<?xml version="1.0" encoding="utf-8"?>
<!-- Generator: Adobe Illustrator 19.0.0, SVG Export Plug-In . SVG Version: 6.00 Build 0)  -->
<svg version="1.1" id="Layer_1" xmlns="http://www.w3.org/2000/svg" xmlns:xlink="http://www.w3.org/1999/xlink" x="0px" y="0px"
	 viewBox="0 0 3000 1300" style="enable-background:new 0 0 3000 1300;" xml:space="preserve">
<style type="text/css">
	.st0{fill:#FFFFFF;}
</style>
<g>
	<path d="M2237.1,853.2c2.7,3.6,5.3,6.9,7.7,10.4c3.3,4.7,3.1,6.8-1,11.1c-0.7,0.7-1.3,1.5-2.5,2.9c5.8,1.2,11,2,16.1,3.3
		c17.3,4.1,21.3,10.1,18.5,27.3c-0.9,5.8-1.1,11.8-2.9,17.3c-4.2,13-12.5,22.8-24.8,29c-3.4,1.7-6.6,3.6-9.8,5.5
		c-6.5,3.9-13,2.8-18.3-1.6c-4.9-4-10.6-3-15.9-3.9c-1.7-0.3-4.3,3.3-6.1,5.5c-3.2,4-5.3,10.4-9.3,12.1c-5.4,2.2-12.6,2-18.5,0.8
		c-5-1-9.2-5.2-13.9-7.8c-1.1-0.6-2.5-0.9-3.7-0.9c-16.2,0.6-32.4,1.2-48.6,2c-4,0.2-5.8,3.5-7,6.6c-4,10.3-7.5,20.7-11.4,31.1
		c-0.7,1.9-1.9,3.9-3.3,5.4c-2.9,3.1-5.8,5.8-5.7,10.9c0,2.3-3.2,5.4-5.7,6.9c-8.9,5-18.1,9.6-27.2,14.2c-4.5,2.3-9.1-0.1-8.4-5
		c1.4-9.6-4.5-13.6-10.8-18.5c-12.7-9.6-24.8-19.9-37.2-29.9c-14.2-11.4-28.5-22.6-42.7-33.9c-11.7-9.3-23.5-18.4-34.9-27.9
		c-3.4-2.8-6.9-4.4-10.2-1.6c-2.2,1.8-3.8,5.3-4.1,8.2c-0.5,4,0.8,8.2,0.7,12.3c-0.1,7.8,0.4,15.8-1.3,23.2
		c-1.3,5.8-5.1,11.2-8.6,16.3c-5.6,8.2-11.8,16.1-20.4,21.6c-8.4,5.4-13.4,13.5-17.7,22.2c-3.2,6.5-6.5,7-11.6,1.7
		c-6.8-7-13.4-14.3-20.3-21.2c-1.4-1.4-3.9-2.5-5.9-2.5c-9-0.3-18-0.1-27-0.1c-1.5,0-2.9,0.7-4.4,0.6c-3.7-0.3-8,0.3-10.8-1.5
		c-10.7-6.9-20.8-5.9-31,0.5c-2.4,1.5-5,0.9-12.4-2.7c-3.2,10.7-12.9,9.2-20.7,9.8c-9.2,0.7-18.6,0.1-27.8-1
		c-5.5-0.7-9.3,2.4-13,4.5c-6.8,3.9-13.4,1.5-20.2,1.6c-3.1,0-6.6-0.1-9.2,1.2c-5.4,2.6-10.8,5.7-15.3,9.5
		c-11.7,9.8-25.8,14.7-39.9,19.2c-10.8,3.5-22,5.9-33.1,8.6c-4.1,1-8.4,1.3-12.7,1.6c-6.1,0.5-12.5-0.3-18.2,1.3
		c-5.7,1.7-11.2,5.2-15.9,9c-8.6,7-16,15.4-24.7,22.2c-5.6,4.3-12.6,6.8-18.9,10.2c-4.2,2.3-8.6,4.6-12.4,7.6
		c-11.5,9-24.2,15-38.6,17.9c-10.6,2.2-20.4-0.5-30.3-2.5c-6.6-1.4-11.1,0.9-15.8,4.2c-6.8,4.8-13.6,9.7-20.4,14.4
		c-4.9,3.4-15.2,1.3-17-4.3c-2.8-8.4-9.1-14.2-13.4-21.4c-10.2-17.1-21.1-33.8-31.9-50.5c-3.1-4.8-0.3-8.7,1.3-12.7
		c3.2-7.8,7.2-15.4,9.9-23.3c1.6-4.5,1.4-9.7,1.8-14.6c0.6-7,1-14,1.6-21.5c-4.8,0-9.8-0.3-14.7,0.1c-14.1,1.1-27-4.8-40.3-7.6
		c-1.5-0.3-3.1-3.9-3.3-6.1c-0.5-5.1-0.2-10.2-4.1-14.2c-4.5-4.5-8.6-9.4-13.6-13.2c-7.4-5.6-19.1-3.3-24.8,3.8
		c-4.5,5.6-9.8,10.5-13.9,16.3c-2,2.8-2.4,7-2.6,10.6c-0.4,6.5-0.3,13-0.1,19.6c0.3,7.9-2.8,14.7-6.4,21.3c-1.7,3.2-4.7,4.1-8.1,3.1
		c-6.9-2-13.7-4.1-20.5-6.3c-1.6-0.5-3.2-1.5-4.6-2.6c-9.5-7.3-20.2-12.5-32.3-11.6c-11.1,0.8-22.1,4-33.1,6.2
		c-3.7,0.7-7.2,2-10.9,2.5c-11.7,1.6-18.8-5-24.2-14.2c-2.6-4.3-5.2-8.7-8.1-12.9c-0.7-1-2.3-1.8-3.5-1.8c-3.6,0-7.2,0.6-10.8,0.7
		c-3.5,0.1-6.2-1-7.6-4.8c-0.6-1.6-2-3.5-3.5-4.2c-12.6-5.7-25.7-10.5-37.8-17.1c-5.7-3.1-10-9.2-14.4-14.3
		c-8.7-10.2-17-20.8-25.5-31.2c-8.6-10.5-17.2-21.1-25.8-31.6c-7.1-8.6-14.4-17.1-21.5-25.7c-7.2-8.7-14.5-17.4-21.4-26.3
		c-3.6-4.7-8.6-6.9-13.6-9.4c-9.5-4.8-9.7-5-17.4,2.5c-6.6,6.6-15.6,11.2-18.4,21.2c-0.3,1.1-1.8,1.8-3,2.8
		c-2.3-2.5-4.5-4.7-6.3-6.7c1.7-10.1,8.8-15.5,16.1-21.1c5.3-4.1,10-9,14.4-14.7c-1.9,0.3-3.9,0.5-5.7,0.9
		c-11.5,2.8-15,1.2-20.2-9.7c-3.6-7.4-4.9-15-3.1-23.4c1-4.5,0.6-9.3,0.1-13.9c-0.6-5.8-5.9-7.8-10.1-9.5
		c-13.2-5.6-26.7-10.3-40-15.6c-4.9-2-9.5-4.8-14.4-6.9c-1.1-0.5-3.7,0-4.2,0.9c-3.9,6.7-10.2,10.2-16.5,14c-2.1,1.3-3.4,4-4.5,6.4
		c-1,2-1.4,4.4-2.3,7c-1.2-0.8-2.2-1.3-2.2-1.5c1.6-6.3,2.1-12.7,9.7-16.1c5.3-2.3,9.5-7.4,15.1-11.9c-9.5-4.1-17.5-7.4-25.3-11
		c-6.7-3.1-13.9-6.1-16.5-13.9c-0.8-2.4-1.1-5.5-0.2-7.7c4.5-10.8,3.6-21.7,1.7-32.8c-0.7-4.1,0.4-8.5,0.5-12.8
		c0-3.1,0.1-6.2-0.6-9.2c-1.4-6.1-3.3-12.1-5.1-18.3c-8,1.9-15.1,3.6-22.1,5.2c-0.2-0.4-0.5-0.8-0.7-1.2c0.9-0.7,1.7-1.8,2.7-2.1
		c5.3-1.5,10.7-2.6,16-4.1c1.2-0.3,2.7-1.4,3-2.4c5.3-15.6,15.1-28.8,22.8-43.2c5.4-10.3,9.1-21.5,13.3-32.4
		c2.7-7.3,5.5-13.2,14.1-16.3c16.6-6,30.6-16.7,41.9-30.3c3.9-4.7,6.5-10.5,9.7-15.7c-3.8,0-7.5,0.2-11.1,0
		c-11.5-0.8-22.9-1.8-33.5,4.7c-2.7,1.6-6.7,1.8-9.9,1.5c-1.8-0.2-4.1-2.4-4.9-4.2c-1.6-3.8-3.4-4.9-7.2-2.9
		c-3.4,1.8-6.6,4.2-10,5.9c-10.9,5.3-21.9,10.3-32.8,15.6c-1.3,0.6-2.5,1.8-3.2,3.1c-2.5,4.3-4.7,8.7-7,13c-0.7-0.3-1.3-0.6-2-0.9
		c2.1-4.3,4.3-8.6,6.6-13.3c-4.2-2-7.8-3.8-11.4-5.5c0.2-0.5,0.3-0.9,0.5-1.4c1.8,0.2,4.1-0.2,5.3,0.8c4.1,3.3,7.6,2.6,12,0.4
		c9.8-4.9,19.9-9,29.8-13.6c2.5-1.1,4.9-2.6,7.2-4.2c6.1-4.4,6.1-4.5,12.8-2.6c4.7-12,14.1-20.1,23.1-28.8c3.3-3.2,3.7-9.5,5.1-14.4
		c3.5-12.4,0.3-25.8,6-37.8c4.4-9.2,9.2-18.2,13.8-27.3c1.5-2.9,2.6-6,4.4-8.7c1.3-1.9,3.4-4.7,5-4.6c8.3,0.4,14-4.9,20.5-8.5
		c11-6,21.9-12.1,33-17.9c1.3-0.7,3.9-0.7,4.9,0.2c3.9,3.3,7.7,6.8,8.5,12.5c0.7,4.7,2.4,9.4,3.8,14c1.2,4,2.4,8.1,4.2,11.9
		c1.5,3.1,4.1,5.7,5.9,8.8c3.8,6.6,7.4,13.3,11,20.1c2.6,4.8,5.7,6.7,10.3,5.6c6.3-1.4,8.4-3.2,7.5-9.8c-1-8-3.2-15.9-5.2-23.8
		c-1.3-4.9-3.4-9.5-5.1-14.3c-1.3-3.8-0.4-6.9,3.5-8.5c19.5-8.1,35.4-22,53.5-32.4c6.9-4,14.5-7,19.7-13.7
		c3.2-4.2,6.7-8.3,10.3-12.3c9.5-10.3,18.5-21.3,29-30.5c6-5.2,4.9-9.2,2.7-14.9c-1.1-2.7-2.1-4.1-5.2-3.8c-2.5,0.3-5,0.1-8,0.1
		c-2.7-16.4-5.5-32.5-8.2-49.1c3.5,1.6,9.4,28.9,10.3,45c4,1,8.9,0.9,11.6,3.3c2.8,2.6,3.5,7.5,5.3,12c3.4-2.9,6.5-6.4,10.3-8.9
		c4.3-2.9,8.9-5.5,13.7-7.2c9-3.1,16.6-8.3,23.7-14.4c1.4-1.2,2.4-3.1,2.7-3.6c-2.7-6-5.5-11-7.3-16.3c-1.3-3.9-0.1-7.5,5.2-8.1
		c1.7-0.2,3.4-1.2,5.7-2.1c0,3,0,5.4,0,7.9c0.1,5.4,1.3,6.3,6.8,6.6c1.6,0.1,3.2,1.5,4.5,2.6c2.5,2.3,4.6,5.2,7.3,7.1
		c4.6,3.2,4.8,8.3,6.2,12.9c1.3,4.3,2.5,8.8,3.1,13.3c1.2,8.7,8.3,7,13.5,7.7c15.4,2,31,3.2,46.4,5.3c4,0.5,7.9,3,11.7,4.8
		c15.6,7.2,31,14.6,46.6,21.7c5,2.3,6.7,7,9.3,10.9c5.4,8.1,10.2,16.7,15.2,25.1c1,1.8,1.9,3.9,2.1,5.9c0.8,7,5.1,12.1,9.4,17.2
		c9.4,11.4,14.1,25.3,19.7,38.7c4.3,10.2,8.1,20.5,15.7,29c5.1,5.7,5.9,13.2,4.7,20.8c-1.1,7.1,3,12.8,5.3,19c0.1,0.3,0.3,0.6,0,0.1
		c3.4,1,6.5,1.3,9,2.7c8.7,4.8,18.5,4.7,27.8,6.9c12.2,3,18.1,0.8,25-10.1c3.5-5.5,8.1-9.8,13.6-12.1c9.2-3.9,15.7-10.6,22.1-17.6
		c6-6.6,13.6-8.3,21.6-9c5.8-0.5,11.8-0.8,17.5,0.1c3.9,0.7,7.5,3.4,11,5.7c3.3,2.1,6.2,4.8,9.3,7.2c4.1,3.2,8.3,0.3,12.1-0.6
		c30.4-7.2,60.7-14.9,91-22.5c0.6-0.2,1.3-0.2,2.2-0.3c0.7-9.6,1.4-19.1,2.1-28.6c1.3-16.7,2.6-33.5,4-50.2c0.9-10.1,2-20.3,3-30.4
		c0.3-3.6,1.6-5.9,5.9-5.5c12.5,1.1,24.9,2.1,37.4,3c6.6,0.5,13.2,1,19.8,0.9c1.7,0,4-1.6,4.9-3.1c8.7-15.5,17.3-31.1,25.6-46.9
		c3.5-6.6,5.9-13.7,9.4-20.3c2-3.8,4.1-9.3,10-7.4c5.8,1.9,12.1,3.2,14.3,10.9c1.6,5.5,4.8,10.7,7.8,15.7c1.3,2.2,4,3.6,6.3,5.1
		c7,4.8,13.5,10.4,23.1,9.4c2.3-0.2,4.9,2.6,7.5,4.2c-0.3-0.9-0.5-1.8-1-2.6c-1.6-2.5-2.8-5.6,0.2-7.2c2.2-1.2,5.8-1.5,8-0.4
		c9.8,4.5,19.4,9.6,29.1,14.4c5.9,2.9,11.8,5.7,17.7,8.3c5.6,2.5,18.3-1.9,22-8c3.8-6.3,8-12.2,14.9-15.2c4.2-1.9,8.9-3.2,13.5-3.6
		c13.8-1.2,25.1-7.9,36.1-15.2c5.2-3.4,8.1-8.7,9.5-14.8c2.1-8.7,4.3-17.4,6.5-26c0.6-2.2,1.1-4.4,1.6-6.6c0.7-3.3,2.8-5.3,5.4-7.6
		c7.8-6.8,14.6-4.1,22.2,0.2c7.1,4.1,14.9,6.9,21.8,11.2c5.3,3.3,10.1,3.1,15.6,1.7c21.6-5.4,43.3-10.7,64.9-16
		c5.5-1.4,11.3-2.2,16.5-4.4c8.2-3.4,16.2-0.5,24.4-0.2c2.8,0.1,6,1.2,8.3,0.3c4.8-2,7,0.8,9.6,3.6c2.6,2.8,6,5,7.9,8.2
		c2.1,3.4,3.8,7.6,4.1,11.6c0.4,4.3,1.7,7.6,3.7,11.3c3.3,6,5.6,12.4,4.8,19.9c-0.6,5.2,1,10.7,1.9,16c1.5,8.7,4.4,17.3,4.5,25.9
		c0.1,6.9-2.8,13.9-5.1,20.6c-4.3,12.8-13,22.9-21.1,33.4c-3.5,4.5-6.5,9.3-9.8,14.1c1.6,0.6,2.9,0.8,3.6,1.5
		c1.4,1.4,3.7,3.2,3.5,4.6c-0.2,2-1.9,4.9-3.6,5.5c-7.9,2.5-16,4.6-24.1,6.1c-5.1,1-10.5,1.2-15.8,0.9c-2.4-0.1-5.6-1.5-7-3.4
		c-13.2-18.8-26.1-37.9-39.1-56.9c-2.4-3.5-4.8-6.9-7.2-10.3c-5.2,6.8-10.2,13.3-14.3,18.6c4.8,7.8,10.4,14.4,13.2,22
		c3,8.3,3.5,17.5,5,26.3c0.6,3.2-1,5.1-3.9,5.8c-7.4,1.8-14.9,3.7-22.4,4.9c-2.9,0.5-6-1-9-1.5c-4.7-0.8-9.3-2-14-2.2
		c-16.8-0.6-33.5-0.6-50.3-1.2c-10.9-0.4-21.7-1.3-32.6-1.9c-1.1-0.1-2.3,0.1-3.9,0.2c6.1,15.7,12.1,31.1,18.1,46.6
		c2.4,6.2,4.8,12.5,7,18.7c2,5.4,5.7,6.7,10.5,3.5c4.1-2.7,8.1-5.5,12.2-8c7.2-4.4,13-0.9,18.5,3.7c7.1,5.9,10.8,13.5,10.6,22.5
		c-0.2,7,3.9,12.1,6.8,17.7c2.7,5.3,6,10,5.5,16.4c-0.4,4.9,4.5,5.4,7.5,7.4c2.7,1.8,5.8,2.9,8.4,4.8c3.8,2.7,7.4,1.9,9-2.6
		c4.8-14.2,9.3-28.4,14.1-42.5c1.5-4.5,3.3-8.9,5.3-13.1c4.1-8.5,9.1-9.6,17.3-4.3c4,2.6,8.5,4.6,12.6,7.1c4.5,2.7,9.1,2.1,13.7,0.4
		c7.6-2.8,14.5-1,21,3c10.2,6.3,21.3,9.4,33.2,10.6c14,1.4,27,6,38.1,14.9c3,2.4,4.6,6.7,6.8,10.1c1,1.5,1.8,3.2,3.1,4.4
		c5,4.5,5.2,10.8,5.6,16.7c0.2,3.4-2.3,5.8-6.4,5.9c-6.7,0.2-9.7,3.7-11.4,10.3c-1,4.1,0.7,6.4,2.2,9.7c2.3,5,3.8,11,3.5,16.4
		c-0.2,2.9-4.9,5.6-7.8,8.2c-4.3,3.9-8.7,7.7-13.3,11.3c-2.3,1.8-4.9,3.2-7.5,4.6c-8.6,4.4-10.7,9.6-8.7,19.2
		c1.9,9.5,9.3,11.8,16.8,14.2c2.9,0.9,6,1.3,9,2.1c4,1,5.7,3.5,4.6,7.7c-1,3.9-1.5,8.1-2.8,11.9c-0.8,2.3-2.6,4.7-4.5,6.2
		c-2.4,1.8-3.3,2.8-2.6,6.3c1,5.1,1.2,10.8,0,15.9c-0.9,3.5-4.5,6.5-7.3,9.3c-3.9,3.9-8.3,7.3-12.1,11.3c-3.7,3.9-2.9,7.7,1.6,10.9
		c10.1,7.2,22,8.2,33.1,6.1c14.2-2.7,27-1.6,39.1,6c4.1,2.6,8.2,2.2,11.8-0.1c11.5-7,23.7-7.3,36.6-5.8c6.3,0.7,13.1,0.1,18-5.6
		c3.5-4,12.6-2.4,15.2,2.2c4.3,7.7,8.9,15.2,13.2,22.8c3.5,6.2,6.4,12.8,10.1,18.8c4,6.5,9.2,11.8,15.3,16.7
		c5.4,4.3,10.3,7.1,17,8.6c8,1.8,15.4,6.1,23.2,8.7c3.5,1.1,7.5,0.5,11.2,1c3,0.4,6,1.1,9,1.9c3.9,1.1,5.1,3.9,5.2,7.8
		c0.5,15.9,1.2,31.7,2,47.6c0.6,12.2,1.3,24.4,2,36.6c0.3,5.3,0.8,10.5,1,15.8c0.1,4.7-2.8,7.9-7.3,8.1c-8.4,0.3-16.7,0-24.7-3.4
		c-4-1.7-7.2,0.6-10.5,2.4c-4.5,2.5-9,5.1-13.8,6.9c-8.3,3.1-16-0.6-23.7-3.3C2255.9,859.3,2246.6,856.4,2237.1,853.2z
		 M1645.6,672.6c-2.4-2.6-5.4-5.1-7.6-8.2c-4.6-6.5-8.2-13.7-13.3-19.7c-4.1-4.8-10.1-7.8-14.7-12.2c-12.9-12-27.5-21.5-42.9-30
		c-5.9-3.3-13.3-5.2-15.5-13.1c-1.3-4.4-3.3-8.5-4.6-12.8c-2-6.8-4.7-11.6-13.3-11.9c-3.7-0.1-8.2-4-10.7-7.4
		c-2.4-3.2-4.8-5.3-8.6-6.2c-24-5.9-48-11.8-72-18c-4.4-1.1-6.9,0.3-9.4,3.6c-5.6,7.3-11.5,14.3-16.4,20.4
		c-9.8-8.7-19.4-17.2-28.8-25.5c-2,3.7-4.6,8.2-6.9,12.9c-6.7,13.8-13.1,27.7-20,41.4c-12.4,24.7-23.6,50.2-39.7,73.3
		c6.4,3.7,12.9,7.2,19.1,11c10.2,6.3,20.2,13,25.2,24.7c0.9,2.2,3,3.8,4.6,5.7c3.6,4.3,8.4,8.1,10.4,13c3.4,8.6,9.3,12.7,17.5,15.6
		c4.6,1.6,9.4,4.3,12.8,7.8c3.8,3.9,6.5,9,9.1,13.9c2.3,4.5,5.1,7,10.5,6.2c4.6-0.6,9.3-0.1,14-0.1c10.1,0,20.2,0,31.5,0
		c-1.4,2.1-2.1,3.5-3.1,4.6c-10.5,11.3-21.1,22.5-31.6,33.7c-13.2,14-26.6,27.8-39.8,41.8c-3.3,3.5-6.3,7.2-9.9,11.4
		c9.5,9.7,19.1,19.3,28.5,29.1c2.4,2.5,4.7,3.5,8.2,3.5c33.2-0.1,66.3,0,99.5-0.2c4.2,0,5.3,1.3,5.4,5.4
		c0.2,12.2-4.8,22.6-10.8,32.5c-2.6,4.2-6.6,8.1-12.7,8.4c-7.8,0.3-14.7,2.6-19.9,9.4c-6.4,8.3-9,17-8,27.6c0.9,9.4,0.6,19-0.2,28.5
		c-0.6,6.9-1.3,13.3,4.2,18.7c1.8,1.8,2.8,4.5,4.6,6.3c3.1,3,4.8,6.4,5,10.8c0.2,3.1,1.3,6.4,2.9,9.1c1.8,3.3,4.3,6.2,6.9,8.9
		c1.1,1.2,3.1,2.5,4.6,2.4c8.7-0.4,17.4-1.2,26.1-2c3.6-0.3,7.2-0.8,10.6-1.7c13-3.6,26.1-6.9,38.9-11.3c8.2-2.9,16.4-6.7,23.6-11.6
		c6-4.1,11.5-8.8,18-12.5c7.1-4,14.3-3.9,21.3-2.3c6,1.3,10.1-1,14.6-3.6c2.3-1.3,4.9-2.7,7.4-2.7c11.3,0,22.6,1,33.9,0.6
		c3.5-0.1,8.3,1,11-3.7c4.1-7.3,11.1-8.4,17.6-3.3c3.8-1.4,7.3-3.5,11.1-3.9c7.9-0.9,16-2.9,23.5,1.8c3.6,2.3,7.4,3.8,12,3.4
		c9.7-0.7,19.5-0.8,29.3-1.1c5.9-0.2,11.1,1.2,15.3,6.1c5.2,6.2,11,11.9,16.8,18c3.3-8.6,9-14.8,15.9-20
		c14.1-10.6,26.5-22.6,28.1-41.6c0.5-6.4,0.9-13.1-0.3-19.3c-2-11.1,3.3-21.7,13.8-25.1c1.4-0.5,2.8-1.1,4.2-1.1
		c2.6,0,5.7-0.3,7.7,0.9c5.6,3.6,10.7,8,17.1,13c2.4-4.3,5.7-8,6.5-12.3c1.8-8.6,2.4-17.5,3.2-26.3c1.2-11.6,7.8-19,18-23.2
		c9.7-4,19-8.3,27.6-14.6c5.1-3.8,7.9-7.8,8.4-13.8c0.1-1,0.4-1.9,0.6-2.9c1.3-5.2-2.3-9.9-7.7-9.7c-2.7,0.1-5.5,0.6-8.1,1.6
		c-5,1.9-10.1,3.8-14.8,6.4c-7.1,3.9-13.7,1.9-20.4-0.9c-0.6-0.3-1.4-0.9-1.6-1.5c-1.4-5.5-4-11-3.9-16.5c0.4-17.5,1.5-35,2.9-52.4
		c0.8-11.1,3.2-22.1,3.6-33.2c0.2-6.2,4-5.9,7.6-6.5c2.3-0.4,4.7,0,7-0.1c1.1-0.1,2.5-0.3,3.1-1c3.4-3.9,6.5-7.8,6.7-13.6
		c0.2-7.5,1.8-15.1,1.9-22.6c0.2-11.7,0.2-23.4-0.8-35c-1.1-12.2-3.5-24.2-5.2-36.4c-1-7.3-1.3-14.7-2.9-21.9
		c-2.3-10.6,0.1-19.3,7.7-26.9c4.5-4.6,6.9-10.3,8.1-17.4c-10,2.1-19.3,2.8-28.2,7.1c-5.9,2.8-13.5,3.8-20,3.2
		c-8.8-0.9-16.1,0.6-22.8,6.2c-3.7,3.1-7.1,5.5-12.8,3.6c-9.8-3.2-20.2-4.7-30-8c-5.8-1.9-11-5.8-16.9-9.1c-1.6,3.1-3.3,6.7-5.3,10
		c-4.2,6.8-7.8,14.1-15.4,18c-1.1,0.6-2.1,2.2-2.4,3.5c-4.1,15.4-7.8,30.9-12.2,46.2c-2,7.1-3,14.7-8.6,20.5
		c-3.9,4.1-5.6,4.5-10.4,1c-3.1-2.3-6.4-4.7-10-5.9c-10.9-3.7-22-6.9-33.1-10.1c-5.9-1.7-11.9-3.8-18.3-1.5c-2.8,1-4.1-1.1-4.4-3.7
		c-0.4-3-0.9-6.1-1.5-10c-7.5,2.2-14.5,4.2-21.4,6.4c-0.9,0.3-1.4,1.7-2,2.7c-1.2,1.6-2.1,3.5-3.6,4.6c-2.6,2-5.4,3.7-8.4,5
		c-3.8,1.8-7.1,3.8-8.7,8c-0.4,1.1-2.7,2.2-3.9,2.1c-3.8-0.5-5.5,1.4-7.6,4.2C1660.8,657.2,1656.9,667,1645.6,672.6z M1744,257.7
		c-1.4,2.7-2.3,5.9-4.4,7.8c-2.4,2.2-13.6,0.2-15.8-2.5c-3.9-4.7-8.6-6.9-14.8-6.2c-1.2,0.1-2.6-0.3-3.7-0.9
		c-13.4-7.5-26.2-15.5-30.7-31.7c-0.7-2.5-2.9-4.7-4.4-7c-0.7,0.1-1.4,0.3-2,0.4c-3,7.1-6.1,14.2-8.9,21.4c-0.4,1,0.6,2.8,1.4,3.9
		c3.3,4.5,6.8,8.8,10.2,13.2c5.1,6.8,10.1,13.6,18.4,16.8c1.8,0.7,3.8,1.6,5,3c2.5,3.2,6.2,6.7,6.4,10.2c0.2,4,0.9,7.4,2.2,11.1
		c2.5,7,4.5,14.3,7.3,21.2c2.7,6.6,6.6,12.7,9.2,19.3c1.8,4.4,3.7,9.5,3,13.9c-1.3,7.9-2,15.5,0.3,23.3c3.1,10.5-3.3,19.1-14.3,18.8
		c-4.9-0.2-9.8-1.6-14.7-2.5c1.2,7.2-3.2,16-10.2,19.7c-2.5,1.3-3.7,2.8-3.4,5.8c0.8,7.5,1.3,15.1,2,23.2c2.9,0.3,6.3,0.6,9.7,0.9
		c4.4,0.4,8.9,0.9,13.3,0.9c3.9,0,7.7,1.2,10.7-3.8c9.1-15.6,22.5-23.4,40.9-17c3.7,1.3,7.6,2.8,11.3,2.6c5.3-0.2,10.6-1.9,15.8-3.1
		c7.7-1.8,13.3,1.6,14.3,9.2c0.4,3,0.1,6.2,0.1,8.8c1.9,2,4.2,4.1,6,6.5c4.3,5.7,12.4,11.3,22.2,8.3c5.3-1.7,10.7-3.9,16.7-1.8
		c4.2,1.5,8.9,1.9,13.4,2.1c9.5,0.3,19.1-0.3,28.6,0.3c8,0.5,14.8,3.9,20.3,10.4c11.7,13.7,23.9,26.9,36,40.2
		c10,10.9,20.1,21.5,30.2,32.3c4.8,5.1,9.1,10.2,3.8,17.5c-2.5,3.4-4.6,7-6.8,10.6c-3.7,6-8.5,11.1-6.7,19.5
		c2,9.4,2.2,19.2,3.3,28.8c0.9,7.3,1.9,14.6,2.9,21.9c1.3,8.4,3.8,16.8,3.8,25.1c-0.1,15.6-1.7,31.3-2.8,46.9
		c-0.2,2.4-0.6,5-1.9,6.9c-3.7,5.6-7.8,10.6-16,8.9c-3.4-0.7-6.2,0.9-6.7,5c-0.7,5.7-1.8,11.3-2.3,17c-0.9,10-1.5,20.1-2.1,30.1
		c-0.8,13.5-1.7,27.1-1.9,40.6c-0.2,10.9,8.6,16.8,19,13.1c6.7-2.4,13.3-5.3,19.9-8c7.2-3,14.4-0.7,17.3,6.2c1,2.4,0.2,5.8-0.4,8.6
		c-0.9,3.9-1.2,8.9-3.8,11.2c-9.4,8.4-19.8,15.3-32.1,19.2c-8.4,2.7-15.1,7.9-17,17.2c-1.3,6.4-2.1,12.9-3,19.3
		c-1.2,8.6-0.2,18-8.8,23.9c-0.2,0.1-0.1,0.6-0.1,0.9c10.5,8.5,20.9,17,31.3,25.4c12.7,10.1,25.4,20.2,38.1,30.3
		c10.9,8.7,22.1,16.9,32.6,26.2c6,5.3,15.9,7.8,15.2,19.1c2.9-1.4,5.2-2.4,7.5-3.6c6.6-3.5,12.8-7.1,14.1-15.8
		c0.5-3.2,5.3-5.5,6.9-8.8c4.1-9,8.3-18.1,11-27.5c3.3-11.6,9.8-17.7,22.3-17.7c11.1,0.1,22.2-0.6,33.3-0.9c1,0,1.9-0.5,2.9-0.6
		c7.1-0.2,14.3-2.4,20.3,4.3c2.8,3.1,7.5,4.8,11.6,6.1c5.4,1.8,9.9-1.4,11.8-7.6c1.8-5.7,5.6-10.9,10.9-11.7
		c7.6-1.3,16-2.3,23.1,2.6c5.8,4,11,4.8,16.5-0.1c1.7-1.5,4-2.2,6.1-3.2c9.1-4.5,15.1-12.1,18.2-21.4c2.1-6.6,2.4-13.8,3.2-20.8
		c0.6-5.2-1.7-8.6-7-9.6c-6.9-1.4-13.9-2-20.5-4.2c-3.9-1.3-8.1-4.4-10.1-7.9c-2.1-3.7,2-6.8,4.7-9.4c0.6-0.6,1.1-1.2,2.2-2.4
		c-3.3-3.4-6.2-7.1-9.8-9.9c-3.1-2.5-5.3-4.5-3.5-8.8c2.9-6.9,4.9-8.7,10.4-8.3c2.8,0.2,5.6,0.4,8.2,1.3c9.7,3.3,19.2,7,28.9,10.4
		c3.7,1.3,7.4,2.6,11.2,3.2c7.5,1.2,12.7-4.1,18.5-7.6c5.9-3.5,11.8-4.6,18.6-1.6c4.8,2.1,10.5,2.4,16.7,3.7
		c-0.9-13-1.9-24.8-2.5-36.7c-0.8-16.5-1.3-33.1-2.1-49.6c-0.2-3.7-0.7-7.4-1.1-11.2c-3.1,0-5.7,0.3-8.1-0.1
		c-5.6-0.9-11.2-1.8-16.7-3.5c-4-1.2-7.6-3.7-11.4-5.4c-8.4-3.8-19.6-1.6-25.1-12c-1-1.9-4-2.7-6-4.1c-1.2-0.9-2.5-1.9-3.2-3.1
		c-4.9-7.9-9.7-15.8-14.4-23.7c-5.3-8.8-10.5-17.6-15.8-26.4c-0.4-0.6-0.8-1.2-1-1.4c-2.9,1.7-5.3,4.2-8,4.5
		c-8.2,0.9-16.5,1.3-24.8,1.2c-7.5-0.1-14.4,0.4-21.4,4.2c-7.3,4-15.5,7-24.1,1c-8.7-6-18.5-7.3-29.1-5.3
		c-14.2,2.6-28.3,1.9-41.4-5.7c-11.5-6.7-14.6-15.2-8.2-25.7c2.8-4.6,6.3-9.4,10.7-12.1c6.6-4,9.4-8.7,8.2-16.1
		c-1.2-7.8-2.2-15.4,6.8-19.8c1-0.5,1.4-2.9,1.5-4.4c0-1-0.8-2.6-1.7-3c-4.7-1.9-9.8-2.9-14.1-5.3c-3.5-2-6.9-5-9.2-8.4
		c-4.3-6.2-4.8-13.6-4.2-20.8c0.6-8,2.7-15.4,12-18.4c3.1-1,5.9-3.4,8.6-5.5c4.5-3.4,8.7-7.3,13.2-10.7c3.7-2.8,4.5-7.4,1.6-11.1
		c-4.2-5.2-9.1-10.3-2.8-17.2c0.2-0.2,0.2-0.6,0.3-0.9c0.8-9.9,8.2-13.9,16.3-18.2c-2.4-3.6-4.9-7.6-7.5-11.4
		c-1.6-2.4-2.9-5.2-5-6.9c-10.6-8.1-23.1-11.1-36.1-12.2c-10-0.9-19-4.1-27.7-8.7c-6.1-3.2-11.6-7.4-19.1-3.8
		c-5.3,2.5-10.8,1.9-16.2-0.5c-6.1-2.8-12.2-5.5-18.9-8.4c-0.7,1.7-1.9,4-2.7,6.5c-5,15.1-10.1,30.2-14.9,45.4
		c-2.3,7.4-6.8,12.1-14.3,13.5c-2.6,0.5-5.7,0.1-8.1-1c-4.5-2.1-8.6-5.2-13-7.6c-7.1-3.8-12.3-8.8-11.7-17.7
		c0.1-1.4-0.6-2.8-1.2-4.2c-4.4-10.2-11.9-19.2-11.1-31.6c0.4-6.2-5.1-10.7-10.3-13.3c-1.8-0.9-5.9,2.3-8.6,4.3
		c-7.6,5.5-15.4,9.4-24.6,4.1c-2-1.2-4.2-3.1-5.1-5.2c-3.9-9.3-7.5-18.7-11.1-28.2c-6-15.6-12.1-31.3-18-47c-2.4-6.5,0.1-9.8,7-9.6
		c2.6,0,5.2,0.8,7.8,0.9c17.7,0.7,35.4,1.4,53.1,2c12.8,0.4,25.5,0.6,38.3,1.1c3.4,0.1,6.8,1,10,2c7.2,2.2,13.5-0.2,19.7-2.6
		c-0.7-4.6-2-8.5-1.7-12.3c0.6-9-4.7-15.1-10.2-20.4c-7.3-7.1-8.3-14.2-0.9-21.2c6.8-6.4,10.9-14.1,13.1-23.1c0.5-2,2.5-4.9,4-5
		c2.1-0.2,5.1,1.3,6.5,3.1c4.8,6.4,9,13.2,13.4,19.8c12,17.7,24,35.4,36.1,53c0.7,1,2,2.4,2.9,2.4c7-0.4,13.9-1.1,19.9-1.7
		c0.7-3.3,0.5-6.2,1.7-8c4.3-6.2,9-12.1,13.7-17.9c7.8-9.7,15.5-19.4,20.1-31.2c1.9-4.9,4.9-10.1,4.6-15.1c-0.6-9.2-3.4-18.2-5-27.3
		c-1-5.6-2.2-11.4-1.8-17c0.3-5.9-0.8-10.8-4.2-15.4c-3.1-4.1-4.7-8.6-4.1-13.8c0.2-1.5,0-4-0.9-4.5c-5.4-3-7.9-10.3-16.1-9.5
		c-8.4,0.7-17-0.8-25.4,0.1c-7.3,0.8-14.4,3.8-21.7,5.5c-22,5.4-43.9,10.8-65.9,16c-2.8,0.6-6.3,0.6-8.8-0.6
		c-9.9-4.7-19.6-10-29.4-15c-7.2-3.7-9.9-2.4-12.1,5.5c-2.5,9.2-5.8,18.4-7.4,27.8c-1.6,8.8-5.9,15.5-12.8,20.5
		c-12.9,9.4-26.9,16.6-43.3,18c-7.5,0.7-13.5,4-17.3,11c-2,3.7-5,7.6-8.5,9.8c-9.8,6-20.2,9.3-31.6,3.5
		C1764.4,267.2,1753.8,262.4,1744,257.7z M1727.6,627.1c12.7-4.9,23.4,3,34.9,5.3c11.9,2.4,23.2,6.7,32.9,15.4
		c2.9-4.9,6.2-8.7,7.5-13.1c5.4-18.9,10.1-38,15.3-57c0.4-1.5,2.2-2.7,3.4-3.9c3.1-3,6.9-5.5,9.3-8.9c4.7-6.6,8.5-13.8,12.9-21.1
		c2.8,2,5.5,4.1,8.5,5.8c3.6,2,7.4,3.9,11.3,5.3c3.8,1.3,7.9,1.8,11.8,2.8c5.9,1.6,11.8,3.7,17.8,5c1.9,0.4,4.6-0.5,6.2-1.8
		c7.1-5.6,14.7-9.5,24.2-9.1c5.3,0.2,10.8,0.4,15.9-0.8c10.7-2.6,21.3-6.1,31.8-9.3c-0.6-0.9-1.4-2.4-2.5-3.6
		c-7.9-8.7-15.9-17.3-23.9-25.9c-9.7-10.4-19.5-20.7-29.2-31.2c-4.7-5.1-9-10.5-13.7-15.6c-2.2-2.4-4.5-5.6-7.4-6.3
		c-12.5-3.3-25.2-4.6-38.1-2.4c-3.2,0.6-7.4,1.2-9.8-0.3c-7.2-4.5-14-1.9-20.8,0.1c-6.9,2-13,0.4-18.2-3.7c-5-3.9-9.3-8.8-14.3-13.6
		c0.3-0.5,1-1.8,1.6-3.1c2.2-4.8-0.3-11.5-5.3-12c-5.5-0.5-11.1,0.7-16.7,1.3c-2.9,0.3-5.9,1.5-8.6,1c-4.9-0.9-9.6-3.2-14.5-4
		c-4.1-0.7-9-1.3-12.7,0.2c-9.4,3.7-16.5,10.4-21.1,19.7c-0.6,1.2-2.7,2.5-4.1,2.4c-8.4-0.1-16.9-0.5-25.3-0.9
		c-2.1-0.1-4.2-0.8-6.3-0.9c-2.7-0.2-3.9-1-2.9-4.1c1.5-5.1,1.6-10,0-15.3c-2.6-8.3-1-11.6,6.3-15.9c8.2-4.9,8.3-15.8,0.6-21.7
		c-4.5-3.4-8.7-7.4-12.2-11.9c-3.1-4-4.4-9.6-7.6-13.5c-6.5-8.2-11.8-17.7-22-22.3c-1-0.5-1.9-1.3-2.8-1.9
		c-5.4-3.8-10.6-8.3-16.4-11.3c-4.8-2.5-6.6-5.9-6.4-10.8c0.2-6.2,0.8-12.4,1.2-19.2c-17.7-1.5-34.8-2.9-51.8-4.3
		c-0.9,8.6-1.7,16.2-2.4,23.9c-1.1,11.8-2.1,23.6-3,35.4c-1.1,14.6-2.1,29.3-3,43.9c-0.5,7.4-1.9,9.4-9,11.1
		c-8.5,2.1-17.1,4.1-25.6,6.2c-24.6,6.1-49.2,12.3-73.9,18.4c-4.5,1.1-8.9,2-12.9-1.5c-3.3-2.9-6.8-5.7-10.4-8.3
		c-2.5-1.8-5.2-4.6-7.8-4.6c-12-0.3-24-0.4-32.8,10.4c-5,6.1-11,11.3-18.5,14.5c-3.6,1.6-7.5,4.1-9.7,7.3
		c-5.3,7.6-11.3,14-19.9,17.8c-1.6,0.7-4,1.9-4.3,3.3c-0.9,4.4-1.4,8.9-1.2,13.4c0.6,12.8,4,25,9.1,36.8c0.5,1.1,2.1,2,3.3,2.3
		c3.4,0.6,6.8,0.7,10.3,1.1c9.1,1,18.2,2.4,27.4,3c6.5,0.4,10.2,4.7,14.1,8.8c6.4,6.7,12.6,13.5,18.9,20.3
		c6.6-7.9,12.9-15.2,18.9-22.8c1.8-2.2,3.3-2.6,5.8-2c26.4,6.6,52.8,13.1,79.1,19.9c2.1,0.5,4.5,2.7,5.4,4.7
		c2.3,5.3,6.1,7.8,11.6,8.1c6.2,0.4,11,2.2,12.3,9.2c0.5,2.8,1.9,5.5,2.9,8.3c2.6,7.7,5.8,14.4,14.3,17.8
		c8.2,3.3,16.1,7.8,23.7,12.3c3.7,2.2,6.6,5.9,10,8.8c9.2,7.7,18.5,15.2,27.7,22.9c2.9,2.4,5.9,4.8,8.2,7.7c1.7,2.2,2.1,5.3,3.2,8
		c0.8,2,2.5,3.8,2.7,5.7c0.2,3.3,2,5.3,4.7,5.1c2.2-0.2,5-1.7,6.4-3.5c5.1-6.5,10-13.3,14.5-20.3c1.7-2.5,2.8-3.5,5.8-2.2
		c1,0.4,3.6-0.7,4.2-1.8c2.3-4.3,6.2-6.3,10.3-8.4c4.4-2.2,9.6-3.9,10.5-10c0.1-0.6,1.4-1.3,2.3-1.6c6-2,12-4.1,18.1-5.8
		c5.7-1.6,7.5-0.2,8.4,6C1726.4,622.4,1727,624.6,1727.6,627.1z M1204.9,936.9c6.6,3.1,12.5,5.1,17.5,8.5c3.3,2.1,4.8,6.8,8,9.2
		c6.4,4.7,10.2,10.3,10.7,18.3c0.1,1.7,1.1,4.6,2.2,4.9c7.9,2.1,15.8,4.3,23.9,5.1c11.2,1.1,22.5,0.8,33.8,1.2
		c4.2,0.1,6.1,3.1,4.4,7.1c-0.8,1.8-2.1,3.3-3,5c-0.9,1.8-2.1,3.8-2.3,5.7c-0.9,7.5-1.3,15.1-2.1,22.6c-0.5,4.8-0.9,9.9-2.5,14.4
		c-2.3,6.2-6,11.9-8.7,18c-0.8,1.9-1.3,5.1-0.3,6.6c9.7,15.8,19.8,31.5,29.8,47.2c4.4,7,8.7,14,13.3,20.9c0.5,0.7,3.1,0.9,4,0.3
		c6.3-4.3,12.5-9,18.7-13.5c6.2-4.5,12.7-7.5,20.8-5.6c7.3,1.8,14.9,4.2,22.1,3.7c15-1.2,28.4-7.9,40.7-16.7
		c5.1-3.7,10.6-6.9,16.2-9.9c7.5-4,15.2-7.3,21.5-13.6c8.1-8.1,17.1-15.4,26.3-22.3c3.9-3,4.1-4.7,1.4-8.2c-3-3.8-7.2-7.9-7.6-12.1
		c-0.7-7.4-3.7-13-8.4-18.2c-6.1-6.9-8.5-14.4-6.4-24c1.5-7,0.9-14.7,0.3-22c-0.9-11.1-1-21.7,6-31.3c5.8-7.9,12.1-13.8,22.9-13.4
		c5.5,0.2,9.7-3.5,12.4-8.4c1-1.9,2.3-3.6,3.3-5.5c4.2-8.4,7.3-17,6.3-26.9c-2.3,0-4.1,0-5.9,0c-32.3,0-64.7,0-97-0.1
		c-2,0-4.6-0.3-5.8-1.6c-10.7-10.3-21.1-20.8-31.5-31.5c-0.8-0.9-0.9-3.9,0-4.8c12.8-14.1,25.7-28,38.8-41.9
		c8.9-9.4,18-18.6,26.9-28c4.8-5.1,9.4-10.4,14.7-16.2c-14.6,0-28.5-0.2-42.5,0.1c-4.4,0.1-6.7-1.4-8.7-5.4
		c-4.9-10.1-10.8-19.2-22.4-23.2c-4.9-1.7-9.6-4.9-13.6-8.4c-2.6-2.3-3.5-6.3-5.6-9.3c-6-8.7-14.7-15.5-18.8-25.7
		c-0.6-1.4-2.1-2.7-3.5-3.5c-12.4-8.1-24.8-16-37-23.9c-5.4,5-9.6,9.6-16.3,10.4c-6.9,0.9-13.7,2.3-20,3.5
		c-2.2,7.5,1.3,12.7,3.5,18.3c1.3,3.3,2,7.5,1.3,10.9c-2.6,11.7-10.6,20.7-16.5,30.7c-2.3,4-7.1,6.6-6,12.3c0.9,4.5,1.6,9,2.7,13.4
		c1.7,7.2-1.6,18.8-7,22.5c-13.5,9.4-23.6,21.8-31.1,36.3c-2.3,4.5-4,9-5,14.2c-1.2,5.6-5.3,10.8-9,15.6c-2.5,3.3-6.6,5.3-9.9,8
		c-5.3,4.3-5.5,15.1-0.3,19.2c3.7,2.9,7.6,5.5,11.8,8.6C1205.1,900.8,1206.6,919.9,1204.9,936.9z M695,648c0,7.3-0.6,14,0.2,20.5
		c1.1,9.1,1.3,17.9-1.7,26.8c-0.8,2.3,0.1,6,1.7,8c1.8,2.2,5,3.6,7.9,4.6c10.1,3.5,19,10.4,30.1,11.3c0.4,0,0.8,0.6,1.2,0.8
		c5.3,2.7,10.5,5.9,16.1,8c14.7,5.3,29.6,9.9,43.3,17.9c7.9,4.6,11.1,11.1,11.2,19.5c0.1,7.3-1.3,14.6-0.6,21.8
		c0.4,4.2,3,8.6,5.8,11.9c1.1,1.3,5.6-0.4,8.5-0.8c1.6-0.2,3.2-0.8,4.8-1.1c4.9-0.8,10.9,2.6,10.4,6.4c-0.6,4.9,1.9,6.8,5.7,8.4
		c2.7,1.1,5.5,2.1,8.1,3.5c2.9,1.5,6.1,2.9,8.1,5.3c7.7,8.8,14.8,17.9,22.3,26.9c8.9,10.7,17.8,21.5,26.9,32.1
		c0.9,1.1,3.1,1.7,4.5,1.5c5.3-0.8,10.8-3.6,15.7-2.8c7.9,1.4,14.4-1.8,21.3-3.7c3.7-1,8.5-2.6,10.1-5.4c5.7-10.4,14.8-18,21.8-27.3
		c4.3-5.6,9.9-10.6,9.9-18.6c0-2,0.6-4.3,1.6-6c6-10.2,12.6-20,23.8-25.4c3.4-1.6,7.2-3.5,7.1-8.5c-4.5-2.1-8.9-4.5-13.4-6.2
		c-3.1-1.2-6.7-2.2-9.9-2c-8.3,0.5-16.6,2-24.9,2.6c-9.2,0.7-18.2,0.9-25.2,8.7c-1.5,1.7-6.1,1-9.3,0.7c-0.5,0-1.2-3.5-1.1-5.3
		c0.5-7,1.3-14.1,1.8-21.1c0.7-9,1.3-18.1,2.1-27.1c0.1-1.3,1.6-3.4,2.8-3.6c6.6-1.2,9.7-6.1,12.5-11.2c3.9-7.1,7.7-14.4,10.9-21.9
		c3.2-7.4,11.9-11.7,11.3-21.1c0-0.5,0.7-1.1,0.9-1.4c2,0.2,3.8,0.6,5.5,0.4c7.9-1.2,15.8-2.4,23.6-3.9c1.9-0.4,4.1-1.3,5.4-2.7
		c5.3-5.6,10.2-11.6,15.5-17.3c4.2-4.5,8.1-8.8,3.6-15.4c-0.9-1.4-1.1-5-0.1-5.7c7.3-5.2,14.6-10.5,22.4-14.7
		c8-4.3,16.6-7.6,25.1-10.9c4.2-1.6,4.8-6.6,1.6-9.1c-10.9-8.8-21.8-17.6-33-26c-11.8-8.9-24.3-17.1-31.4-30.8
		c-0.6-1.2-1.3-2.4-2.2-3.2c-1.3-0.9-2.9-2-4.3-1.9c-6,0.4-12,1.4-18.1,1.8c-12,0.8-24.1,1.4-36.1,2.1c-5.6,0.3-11.3,0.2-16.8,1.2
		c-8,1.4-15.4,1.3-22.9-2.9c-5.7-3.2-12.1-3.6-18.3,0.1c-2.4,1.4-4.9,2.7-7.6,3.3c-10.9,2.4-16.2,10.4-19.3,19.9
		c-3.5,10.6-8,20-18.5,25.1c-4.9,2.5-9.6,5.3-15.8,1.9c-5.4-3-16.3,1.1-20.1,5.8c-7,8.8-13.7,17.9-23.5,24
		c-7.5,4.6-13.2,11-15.9,19.7c-2.4,7.7-9.8,12.8-17.7,12.9C739,648,717.3,648,695,648z M1014.1,976c3,0,7.1-0.2,11.2,0.1
		c1.4,0.1,3.3,0.9,4.1,2.1c4.1,6.1,8.1,12.2,11.8,18.6c3.6,6.3,9.4,9.8,16.3,8.2c11.4-2.7,22.7-5.5,34.2-7.8
		c13.3-2.7,24.3,2.8,36.2,5c0.7,0.1,1.4,0.9,2,1.4c6.9,7,15.8,10.2,25.2,12c1.1,0.2,3.5-1.1,3.7-2.1c1.3-6.5,2.4-13.1,3-19.7
		c0.7-7.9,0.8-15.9,1.4-23.8c0.1-1.4,1.5-2.9,2.6-4.1c4.4-4.9,9.4-9.4,13.4-14.6c3.9-5.1,8.2-9.3,14.7-10.6c2.5-0.5,5.1-0.7,7.7-1
		c1.8-18.4,0.6-37.3,10.6-54c-1.7-1.2-2.9-2.4-4.3-3.1c-8.3-4-11.9-10.5-9.8-19.6c0.7-2.9,2.5-5.8,4.5-8.1
		c5.5-6.3,14.4-9.6,17.1-18.4c1.1-3.4,0.4-7.4,2-10.4c4.2-8.3,8.8-16.4,14-24.1c3.6-5.3,8.4-9.7,12.9-14.7
		c-6.4-2.1-12.6-5.5-18.9-5.9c-9.6-0.7-16.8-4.9-23.2-11.3c-4.9-4.9-9.5-10.2-14.3-15.2c-3.7-3.8-5-8.2-4.3-13.5
		c0.5-3.4,0.7-6.9,1-10.3c0.3-3.1,0.9-6.2,0.9-9.3c0-4.6,1.5-10.9-0.9-13.4c-4.4-4.8-11.1-7.4-16.9-11
		c-8.9,10.8-17.1,20.9-25.8,31.6c-4.9-3.9-9.8-1-14.8,2.2c-8.2,5.3-16,5.5-23.1-2.1c-0.7-0.8-2.5-1.1-3.6-0.8
		c-8.9,1.8-17.8,4-26.7,5.7c-5.3,1-11,2.9-16,1.8c-31.6-6.9-63.1-14.5-94.6-22.1c-2.9-0.7-3.9-0.2-5.4,2.1
		c-4.3,6.7-7.3,14.8-16.3,17.1c-0.7,0.2-1.5,1.3-1.6,2c-0.5,3.7-0.8,7.5-1.1,11.3c-0.7,7.4-1.4,14.7-1.9,22.1
		c-0.4,5.5-0.5,11.1-0.9,18.1c3.2-1.6,5.6-2.6,7.9-3.8c3.5-2,6.6-5.5,10.3-6.1c6.8-1.2,13.8-0.9,20.7-1.3c2.3-0.1,4.5-0.6,6.8-0.9
		c4.8-0.6,10-2.6,14.5-1.6c7.7,1.8,14.9,5.5,22.3,8.4c2.4,0.9,2.8,2.2,1.6,4.6c-1.7,3.4-3.6,6.3-7.2,8.1
		c-12.8,6.5-21.6,16.5-25.6,30.5c-0.6,2.3-0.7,5-2,6.8c-5,7.1-10.3,13.9-15.6,20.7c-3.9,5-8.7,9.6-11.8,15c-2.6,4.5-5.6,7.4-10.3,9
		c-2,0.7-3.9,1.7-5.9,2.3c-5.2,1.4-10.7,4.5-15.5,3.6c-7.9-1.4-14.2,1.9-21.6,2.9c5.6,6.8,10.7,13.2,15.9,19.5
		c10.3,12.6,20.5,25.2,30.8,37.7c3.3,3.9,6.3,8.8,10.6,10.9c12.5,6.2,25.7,11,38.5,16.7C1007.8,970.8,1010.5,973.5,1014.1,976z
		 M1169.9,449.2c9.4-0.8,18.2-1.7,27.1-2.2c16-0.8,32.1-1,48.1-2.2c8.7-0.7,15.6,3,22.8,6.5c2.4,1.1,5.1,1.4,9.1,2.5
		c-1.5-3.5-2.6-5.5-3.3-7.6c-2.5-7.6-7-14.6-4.9-23.5c0.8-3.6-0.4-9.2-2.9-11.9c-8.5-9-12-20.4-16.8-31.2c-4.2-9.5-8.3-19.1-13-28.4
		c-5.3-10.4-16.1-17.8-16.8-30.7c0-0.5-0.3-1-0.6-1.4c-5.6-9.2-11.1-18.4-16.8-27.6c-1.1-1.7-2.5-3.6-4.2-4.4
		c-12.5-6-25-12-37.7-17.6c-8.3-3.7-15.9-8.4-25.7-8.8c-14.4-0.6-28.6-3.3-43-4.6c-9.4-0.9-11.9-1.9-14.1-8.5
		c-2.1-6.3-4.6-12.6-5.6-19.2c-0.9-5.8-3.2-9.6-8.1-12c-8,11.8-19.2,19-32.2,24.1c-4.9,1.9-9.8,4.5-14,7.6c-5.3,3.9-9.9,8.7-14.8,13
		c3.2,9.1,6.5,18.3,9.7,27.5c6.7,19.4,13.1,38.9,20.2,58.1c1.8,5,0.7,7.5-2.4,11.1c-6.6,7.8-14.5,14.9-16.2,25.8
		c-0.1,0.9-0.8,1.8-1.4,2.5c-10.7,12.1-21.3,24.3-32.2,36.2c-6.6,7.2-14.2,13-23.4,16.7c-3.5,1.4-5.4,8.1-3,9.9
		c3.1,2.4,6,5.5,9.5,6.8c8.3,3.2,14.2,9.2,20.4,15.1c1.5,1.5,3.9,2.9,5.9,2.9c4.5,0,9.1-0.7,13.6-1.4c6.8-1,13.4-2.8,20.2-3.2
		c4.6-0.3,9.4,1.2,14.1,1.8c10.1,1.4,20.3,2.7,32,4.3c-17,18.4-33,35.8-49.1,53.1c7.4-0.1,14.2-1.3,21.1-2.3
		c20.7-3.1,41.4-6.1,62.1-9c19.8-2.8,39.6-5.3,59.3-8.2c1.1-0.2,2.8-1.9,2.9-3c0.9-10,1.4-20.1,2.1-30.1
		C1168.6,467,1169.3,458.2,1169.9,449.2z M696.8,645c20.7,0,41.7,0,62.7,0c7.9,0,13.5-4.6,16.7-12.2c2.1-4.9,4.5-10.4,8.5-13.4
		c11.6-8.9,22.8-17.8,30.9-30.3c1.7-2.6,4.9-5.5,7.6-5.8c6.3-0.7,13-3.3,19.2,0.8c0.4,0.3,1.2,0.3,1.7,0.2
		c8.2-2.2,15.2-6.3,19.5-13.7c5.2-8.7,6.3-19.6,14.1-27c2.1-1.9,4.1-4.3,6.6-5.4c4.5-2.2,9.8-3,14.1-5.5c6.6-3.8,12.9-3.4,19.2-0.3
		c6.4,3.2,13.1,4.2,20.1,3.6c6.2-0.6,12.4-1.5,18.6-1.9c12.2-0.8,24.4-1.4,36.6-2.1c4.9-0.3,9.9-0.5,14.8-1
		c4.2-0.4,8.3-1.4,11.1-5.2c2.4-3.2,5.1-6,7.8-8.9c11.5-12.2,23-24.3,34.5-36.5c0.7-0.8,1.3-1.7,2-2.8c-4.9-0.9-9.4-1.8-13.9-2.4
		c-8.9-1.2-17.9-3-26.9-2.9c-7.5,0.1-14.9,3-22.5,4.2c-5.6,0.9-12.6,2.7-16.5-1.9c-8.4-10.1-20.9-14.1-30.3-22.4
		c-4.5-4-4-12.7,1.6-15.4c10-4.7,18.7-10.9,25.9-19.6c9.1-11.1,19.2-21.4,28.8-32c0.6-0.7,1.3-1.6,1.5-2.4c1.9-9.4,7.4-16.7,14.1-23
		c5.2-4.9,5.7-9.8,3.1-16.6c-7.3-19.1-13.8-38.6-20.6-57.9c-2.4-6.9-4.9-13.8-7.4-21.1c-8.6,9.1-16.7,17.7-24.8,26.2
		c-3.8,4-7.5,8.1-11.4,12.1c-3.7,3.7-7.2,8-11.5,10.8c-21.2,13.6-42.7,26.8-64.1,40.1c4.4,12.6,10.3,25,9.9,39.3
		c-0.3,10.6-3.7,14.5-13.5,17.2c-8.5,2.4-16.8-0.7-20.6-7.7c-2.9-5.3-5.1-11-8.1-16.2c-1.5-2.6-3.7-5.8-6.2-6.5
		c-4.3-1.1-4.3-3.6-4.8-6.8c-0.8-4.4-2-8.8-3.2-13.1c-1.5-5.4-3.1-10.9-4.8-16.3c-0.5-1.8-1.4-3.5-2.1-5.4
		c-5.2,2.4-9.9,4.5-14.6,6.6c10.1,20.6,20.1,41,30.1,61.4c9.9,20.1,19.2,40.6,29.9,60.2c6.2,11.4,7.3,23,6.8,35.3
		c-0.1,2.8-1.2,3.7-3.9,3.8c-9.6,0.2-19.2,0.8-28.8,0.9c-17,0.2-34,0.3-51-0.1c-7-0.2-13.9-1.9-20.8-2.7c-1.8-0.2-4.1-0.5-5.4,0.4
		c-3.1,2.1-6,4.6-8.6,7.4c-9.8,10.9-22.5,17.5-35.6,23.2c-5.4,2.4-7.3,5.9-9.1,10.9c-3.8,10.5-7.7,21.1-12.7,31.1
		c-6,11.9-13.2,23.2-19.7,35c-1.5,2.7-3.2,6.3-2.6,9C690.9,628.5,694,636.5,696.8,645z M1082.3,716.8c0.8-0.6,1.5-1.2,2.3-1.6
		c26.4-14,52.7-28.1,79.1-42.1c4.7-2.5,9-5.7,14.9-1.3c2.4,1.8,7,0.2,10,1.4c4.5,1.8,8.1,1.7,12.2-1.2c4.3-3.1,8.9-5.7,14.8-6.1
		c8.6-0.6,12.9-5.4,12.2-12.1c-0.9-8.4-4-16-9.3-22.7c-2-2.5-3.8-5.5-4.5-8.5c-2.3-11.2-4.2-22.4-6.1-33.7
		c-0.8-4.9-1.2-9.9-1.4-14.9c-0.2-3.3,0.6-6.7,0.2-9.9c-0.6-5.5-2.5-10.9-2.7-16.4c-0.5-15-0.4-30,3.7-44.7c1.4-5,2.5-10.5,1.9-15.5
		c-1.3-11.1-4.6-21.8-3.8-33.2c0.2-2.5-0.9-4.4-4.1-4.2c-8.1,0.4-16.2,0.6-24.3,1.1c-2.8,0.2-5.4,1.2-5.6,4.9
		c-0.9,16.6-2,33.3-2.9,49.9c-0.2,2.9-0.1,5.3-4.1,5.2c-2.4,0-4.8,0.6-7.3,1c-12.4,1.9-24.8,4-37.3,5.8c-12.8,1.8-25.6,3.3-38.5,5.1
		c-18,2.5-35.9,5.3-53.8,7.9c-3.3,0.5-6.6,1.1-10.9,1.9c5.5,7.3,9.5,15,15.6,20.1c16.4,13.6,33.6,26,50.6,38.8
		c6.1,4.6,5.7,12.2-1.1,15.4c-3.7,1.8-7.4,3.4-11.2,4.8c-11.7,4.3-22.8,9.5-32.3,17.8c-1.2,1-3,3.1-2.6,3.8
		c2.2,4.3,1.5,10.5,7.6,12.3c2.7,0.8,3.6,2.4,3.3,5.1c-0.5,4.7-0.7,9.5-1,14.3c-0.4,5.7-0.3,11.6-1.4,17.2
		c-2,10.4-1.4,10.6,7.9,14.7C1063.4,702,1076.2,704.3,1082.3,716.8z M1208.4,450.1c0.2,3.9,0.3,7.3,0.7,10.7
		c0.5,4.5,1.1,9.1,1.7,13.6c0.7,4.9,2.4,9.8,2,14.5c-0.8,8.7-3.4,17.3-4.2,26c-1,11.2-2,22.5-1.3,33.6c0.6,10.1,3,20,3.1,30.4
		c0.1,11.3,3.2,22.6,5.1,33.8c0.7,4.1,1,8.9,3.3,12c6.2,8.3,10.5,16.9,11.9,27.3c0.8,6.3-2.9,13.8-9,15.3
		c-7.1,1.8-14.4,2.9-20.2,8.1c-2.2,1.9-2.7,3.1,0.1,4.6c3.7,2,7.4,4.2,11.2,6.1c7.8,3.9,15.4,4,22.6-1.5c3.6-2.8,5.7-8.4,12-6.2
		c0.5,0.2,1.4-0.8,2.2-1c2.2-0.6,4.3-1.4,6.5-1.7c6.5-1.1,13-1.7,19.4-3c6.8-1.4,13.4-3.9,20.3-4.8c5.3-0.7,10.2-1.4,14.2-5.3
		c4.6-4.5,10.2-8.2,13.7-13.3c5.7-8.4,10.1-17.7,14.8-26.8c10.1-20,20.1-40,30.1-60.1c5.5-11,10.9-21.9,16.6-33.4
		c-1.8-0.5-3.3-1.2-4.8-1.4c-12-1.4-24.1-2.6-36.2-4.2c-3.5-0.4-7.4-1.1-6.6-6.4c0.2-1.1-0.7-2.5-1.3-3.6
		c-5.2-9.6-6.1-20.2-7.2-30.7c-0.5-5.2,0.5-10.5,0.9-16.3c-6.9-1.3-13.4-2.6-20-3.9c-3.5-0.7-7-1.2-10.5-2.2
		c-5.2-1.4-9.8-5.9-15.9-2.9c-0.8,0.4-2.4,0.4-2.9-0.1c-2.5-2.8-5.6-1.5-8.5-1.9c-2-0.3-4-1.2-5.9-2c-5.3-2.5-9.9-6.3-16.3-5.9
		c-9.2,0.6-18.5,0.7-27.8,1.1C1217.6,449.3,1212.9,449.8,1208.4,450.1z M1278,676.1c-8,1-15.5,1.2-22.5,3.2
		c-5.5,1.5-12.1,0.5-16.5,6c-4,5-9.6,7.9-16.1,6.6c-5.7-1.1-12-2.2-16.5-5.4c-10.2-7.5-21.7-10.6-33.7-13c-0.8-0.2-1.8,0.2-2.6,0.5
		c-7.3,3.1-14.9,5.8-21.9,9.4c-12.4,6.5-24.5,13.7-36.8,20.5c-9.3,5.1-18.7,10.1-28,15.2c-2.6,1.4-3.7,1-4.7-1.9
		c-0.8-2.2-1.9-5.1-3.7-6c-8.9-4.4-17.9-8.5-27.1-12.2c-5.7-2.2-7.3-3.4-7-9.7c0.4-7.5,1.3-15.1,1.9-22.6c0.4-4.8,1.1-9.6,0.8-14.3
		c-0.1-1.7-2.8-3.4-4.6-4.6c-0.7-0.4-2.7,0.3-3.5,1.2c-6.6,7.4-12.9,14.9-19.5,22.3c-1.3,1.4-3.5,2.4-5.4,2.8
		c-5.6,1.2-11.2,1.9-16.8,3c-5.8,1.2-13.9-1.1-14.4,8.8c0,0.5-1,0.9-1.3,1.4c-4.7,7.2-9.4,14.3-14.2,21.8c2.3,1,3.3,1.6,4.4,1.8
		c26.6,6.2,53.2,12.5,79.9,18.6c6.3,1.5,13,3.8,19.2,3.1c12.4-1.5,24.6-4.9,36.9-7.2c1.7-0.3,4.4-0.1,5.4,1c6.2,7,12.9,6.8,20.3,2.2
		c4.9-3.1,9.7-7.2,15.1-3.2c9.1-10.9,17.8-21.3,26.5-31.7c6.7,4,12.9,7.6,19,11.5c1.2,0.8,2.4,2.8,2.4,4.1
		c-0.4,10.4-1.3,20.8-1.8,31.2c-0.2,4-0.8,7.9,3,11.4c4.4,3.9,7.8,8.9,11.6,13.4c5.2,6,11.4,10.4,19,12.6c8.1,2.4,16.2,4.5,24.4,6.7
		c1.1,0.3,2.4,0.6,3.3,0.2c4.8-1.8,11.9-12,11.5-17.2c-0.5-6.3-1.9-12.6-2.5-18.9c-0.3-3.1-0.6-7.4,1.1-9.3
		c8.1-8.8,12.9-19.7,18.9-29.7c2.1-3.6,3.3-9.3,2-13.1C1281.2,689.8,1276.6,683.8,1278,676.1z M884,501.8c-0.8-8.2,1.8-16.6-2-24.7
		c-9.1-19-18.2-38-27.4-57c-4.7-9.7-10-19.1-14.8-28.8c-7.5-15.1-14.8-30.2-22.3-45.6c-11.9,6.1-21.5,16.1-34.9,17.8
		c-1.3,2.4-2.5,4.9-4,7.2c-1.6,2.5-3.8,4.6-5.1,7.2c-2.9,5.8-5.7,11.7-7.8,17.8c-2.1,5.9-3.6,12.1-4.6,18.3c-0.7,4.3,0,8.8-0.4,13.1
		c-0.3,3.4-1,6.8-1.9,10c-1.9,6.6-3.2,13.4-8.8,18.2c-3.3,2.8-6.6,5.5-9.5,8.6c-2.9,3.1-5.3,6.7-7.9,10c0.3,0.5,0.6,1,0.9,1.5
		c9.1-7.1,19.6-5.5,29.8-5.5c0.3,0,0.7,0,1,0c8.9,0,17.9,1.1,25.8-4.5c0.9-0.6,3.5-0.2,4.3,0.7c1,1.2,1.8,3.5,1.4,4.9
		c-0.9,3-2.6,5.9-4.2,8.6c-3.9,6.5-8,12.9-12.1,19.5C795.6,504.4,820.3,504.9,884,501.8z M1657.1,243.2c-8.3,15.1-16.1,29.2-24,43.3
		c-1.9,3.4-3.6,7.4-8.3,7.4c-3.2,0-3.8,1.6-3.9,4.4c-0.1,3.4-0.9,6.9-0.8,10.3c0.1,4.2-1.7,9,2.4,12.1c6.6,5,13.7,9.4,20.4,14.3
		c6.2,4.5,12.9,8,17.4,15.1c3.9,6.2,7.6,12.5,11.4,18.6c7,11.1,17.2,19.3,30.4,21.6c12.1,2.2,20.2-0.7,17.6-13.9
		c-1.8-9.1-2.9-17.8,0.1-26.6c0.3-0.9,0.3-2.1,0-3c-3.4-8-6.3-16.2-10.4-23.7c-6.4-11.6-10.6-23.7-11.5-37c-0.1-0.9-0.4-2.1-1-2.6
		c-2.7-2.5-5.2-5.6-8.4-7.2c-8.1-4-14.2-9.7-19.1-17.2C1666,253.8,1661.6,248.9,1657.1,243.2z"/>
	<path id="_x33_98" class="st0" d="M1645.6,672.6c11.2-5.6,15.2-15.4,21.2-23.4c2.1-2.7,3.8-4.7,7.6-4.2c1.2,0.2,3.5-1,3.9-2.1
		c1.6-4.2,4.9-6.3,8.7-8c2.9-1.4,5.8-3.1,8.4-5c1.5-1.1,2.4-3.1,3.6-4.6c0.7-0.9,1.2-2.4,2-2.7c6.9-2.2,13.9-4.2,21.4-6.4
		c0.6,3.9,1.1,6.9,1.5,10c0.3,2.7,1.6,4.7,4.4,3.7c6.4-2.3,12.3-0.2,18.3,1.5c11.1,3.2,22.2,6.4,33.1,10.1c3.6,1.2,6.9,3.6,10,5.9
		c4.8,3.5,6.5,3.1,10.4-1c5.6-5.8,6.6-13.4,8.6-20.5c4.4-15.3,8.1-30.8,12.2-46.2c0.3-1.3,1.3-2.9,2.4-3.5
		c7.6-3.9,11.2-11.2,15.4-18c2-3.3,3.6-6.9,5.3-10c5.8,3.2,11,7.1,16.9,9.1c9.8,3.3,20.2,4.8,30,8c5.7,1.9,9.1-0.6,12.8-3.6
		c6.7-5.6,14-7.1,22.8-6.2c6.6,0.7,14.1-0.4,20-3.2c9-4.3,18.3-4.9,28.2-7.1c-1.2,7.1-3.6,12.8-8.1,17.4c-7.5,7.6-10,16.4-7.7,26.9
		c1.6,7.2,1.9,14.6,2.9,21.9c1.7,12.1,4.1,24.2,5.2,36.4c1,11.6,1,23.3,0.8,35c-0.1,7.5-1.7,15-1.9,22.6c-0.2,5.8-3.3,9.7-6.7,13.6
		c-0.6,0.7-2,0.9-3.1,1c-2.3,0.1-4.7-0.3-7,0.1c-3.6,0.7-7.4,0.3-7.6,6.5c-0.4,11.1-2.8,22.1-3.6,33.2c-1.3,17.4-2.5,34.9-2.9,52.4
		c-0.1,5.5,2.4,11,3.9,16.5c0.2,0.6,0.9,1.3,1.6,1.5c6.7,2.8,13.3,4.7,20.4,0.9c4.7-2.6,9.8-4.5,14.8-6.4c2.5-1,5.4-1.5,8.1-1.6
		c5.4-0.2,9,4.5,7.7,9.7c-0.2,0.9-0.5,1.9-0.6,2.9c-0.5,6-3.3,10-8.4,13.8c-8.6,6.3-17.9,10.6-27.6,14.6
		c-10.2,4.2-16.9,11.6-18,23.2c-0.9,8.8-1.5,17.7-3.2,26.3c-0.9,4.3-4.2,8-6.5,12.3c-6.4-5-11.5-9.3-17.1-13
		c-1.9-1.3-5.1-0.9-7.7-0.9c-1.4,0-2.9,0.6-4.2,1.1c-10.5,3.4-15.8,14-13.8,25.1c1.1,6.3,0.8,12.9,0.3,19.3
		c-1.6,19-14,30.9-28.1,41.6c-7,5.3-12.6,11.4-15.9,20c-5.8-6.1-11.6-11.8-16.8-18c-4.2-5-9.3-6.3-15.3-6.1
		c-9.8,0.3-19.5,0.4-29.3,1.1c-4.6,0.3-8.3-1.2-12-3.4c-7.5-4.7-15.6-2.8-23.5-1.8c-3.8,0.5-7.3,2.5-11.1,3.9
		c-6.5-5.1-13.6-4-17.6,3.3c-2.6,4.8-7.4,3.6-11,3.7c-11.3,0.4-22.6-0.6-33.9-0.6c-2.5,0-5.2,1.4-7.4,2.7c-4.6,2.6-8.6,4.9-14.6,3.6
		c-7-1.6-14.2-1.7-21.3,2.3c-6.5,3.7-12,8.4-18,12.5c-7.2,4.9-15.4,8.7-23.6,11.6c-12.7,4.4-25.8,7.7-38.9,11.3
		c-3.4,0.9-7,1.4-10.6,1.7c-8.7,0.8-17.4,1.5-26.1,2c-1.5,0.1-3.5-1.2-4.6-2.4c-2.5-2.8-5-5.7-6.9-8.9c-1.5-2.7-2.7-6-2.9-9.1
		c-0.2-4.5-1.9-7.8-5-10.8c-1.8-1.8-2.8-4.5-4.6-6.3c-5.6-5.4-4.8-11.8-4.2-18.7c0.8-9.4,1.2-19.1,0.2-28.5
		c-1.1-10.6,1.5-19.2,8-27.6c5.2-6.8,12.1-9,19.9-9.4c6.1-0.3,10.1-4.1,12.7-8.4c6-9.9,11-20.4,10.8-32.5c-0.1-4.1-1.2-5.4-5.4-5.4
		c-33.2,0.2-66.3,0-99.5,0.2c-3.5,0-5.9-1-8.2-3.5c-9.4-9.8-18.9-19.4-28.5-29.1c3.6-4.2,6.6-7.9,9.9-11.4
		c13.2-14,26.5-27.9,39.8-41.8c10.6-11.2,21.1-22.4,31.6-33.7c1-1.1,1.7-2.5,3.1-4.6c-11.3,0-21.4,0-31.5,0c-4.7,0-9.4-0.5-14,0.1
		c-5.5,0.7-8.2-1.7-10.5-6.2c-2.5-4.9-5.3-10-9.1-13.9c-3.4-3.5-8.1-6.2-12.8-7.8c-8.2-2.9-14.1-7-17.5-15.6c-2-4.9-6.8-8.7-10.4-13
		c-1.6-1.9-3.7-3.6-4.6-5.7c-5-11.8-14.9-18.4-25.2-24.7c-6.2-3.8-12.7-7.3-19.1-11c16.1-23.1,27.3-48.5,39.7-73.3
		c6.9-13.7,13.3-27.6,20-41.4c2.3-4.7,4.9-9.2,6.9-12.9c9.3,8.3,18.9,16.8,28.8,25.5c4.9-6.1,10.8-13.1,16.4-20.4
		c2.5-3.3,5-4.7,9.4-3.6c24,6.1,48,12,72,18c3.8,0.9,6.2,3,8.6,6.2c2.5,3.4,7,7.3,10.7,7.4c8.6,0.3,11.3,5.1,13.3,11.9
		c1.3,4.4,3.4,8.5,4.6,12.8c2.3,7.9,9.6,9.9,15.5,13.1c15.4,8.5,30,18,42.9,30c4.7,4.3,10.7,7.4,14.7,12.2c5.1,6,8.7,13.2,13.3,19.7
		C1640.3,667.5,1643.2,670,1645.6,672.6z"/>
	<path id="_x33_91" class="st0" d="M1744,257.7c9.8,4.7,20.4,9.4,30.8,14.7c11.4,5.8,21.8,2.5,31.6-3.5c3.5-2.2,6.5-6,8.5-9.8
		c3.9-7.1,9.8-10.4,17.3-11c16.4-1.4,30.3-8.7,43.3-18c6.8-5,11.2-11.7,12.8-20.5c1.7-9.4,4.9-18.5,7.4-27.8
		c2.2-7.9,4.9-9.1,12.1-5.5c9.8,5,19.5,10.3,29.4,15c2.5,1.2,6,1.2,8.8,0.6c22-5.1,44-10.6,65.9-16c7.3-1.8,14.4-4.7,21.7-5.5
		c8.4-0.9,17,0.6,25.4-0.1c8.1-0.7,10.7,6.5,16.1,9.5c0.9,0.5,1.1,3,0.9,4.5c-0.6,5.2,1,9.7,4.1,13.8c3.4,4.6,4.5,9.5,4.2,15.4
		c-0.3,5.6,0.9,11.4,1.8,17c1.6,9.1,4.4,18.2,5,27.3c0.3,4.9-2.7,10.1-4.6,15.1c-4.5,11.7-12.3,21.5-20.1,31.2
		c-4.7,5.9-9.4,11.8-13.7,17.9c-1.3,1.8-1.1,4.7-1.7,8c-6,0.5-12.9,1.3-19.9,1.7c-0.9,0.1-2.2-1.4-2.9-2.4
		c-12.1-17.7-24.1-35.3-36.1-53c-4.5-6.6-8.7-13.4-13.4-19.8c-1.3-1.8-4.4-3.3-6.5-3.1c-1.5,0.1-3.5,3-4,5
		c-2.2,9-6.3,16.7-13.1,23.1c-7.4,7-6.4,14.1,0.9,21.2c5.5,5.4,10.8,11.4,10.2,20.4c-0.3,3.8,1,7.7,1.7,12.3
		c-6.2,2.4-12.5,4.7-19.7,2.6c-3.3-1-6.6-1.9-10-2c-12.8-0.5-25.5-0.7-38.3-1.1c-17.7-0.6-35.4-1.3-53.1-2c-2.6-0.1-5.2-0.9-7.8-0.9
		c-6.9-0.1-9.4,3.1-7,9.6c5.9,15.7,11.9,31.3,18,47c3.6,9.4,7.2,18.9,11.1,28.2c0.9,2.1,3,4,5.1,5.2c9.2,5.3,17,1.4,24.6-4.1
		c2.7-1.9,6.8-5.1,8.6-4.3c5.2,2.5,10.7,7.1,10.3,13.3c-0.7,12.4,6.7,21.3,11.1,31.6c0.6,1.3,1.3,2.8,1.2,4.2
		c-0.5,8.9,4.6,13.9,11.7,17.7c4.4,2.4,8.5,5.5,13,7.6c2.4,1.1,5.5,1.5,8.1,1c7.5-1.4,12-6.1,14.3-13.5c4.7-15.2,9.9-30.3,14.9-45.4
		c0.8-2.4,2-4.7,2.7-6.5c6.7,3,12.8,5.7,18.9,8.4c5.3,2.4,10.9,3,16.2,0.5c7.6-3.6,13.1,0.6,19.1,3.8c8.7,4.6,17.7,7.9,27.7,8.7
		c13,1.1,25.5,4.2,36.1,12.2c2.2,1.6,3.4,4.5,5,6.9c2.6,3.9,5.1,7.8,7.5,11.4c-8.1,4.2-15.4,8.2-16.3,18.2c0,0.3-0.1,0.7-0.3,0.9
		c-6.4,6.9-1.5,12,2.8,17.2c3,3.7,2.1,8.3-1.6,11.1c-4.5,3.4-8.7,7.2-13.2,10.7c-2.7,2.1-5.5,4.5-8.6,5.5
		c-9.2,2.9-11.3,10.4-12,18.4c-0.6,7.2-0.1,14.7,4.2,20.8c2.3,3.3,5.6,6.4,9.2,8.4c4.3,2.4,9.4,3.4,14.1,5.3c0.9,0.3,1.7,2,1.7,3
		c-0.1,1.5-0.5,3.9-1.5,4.4c-9,4.4-8,12-6.8,19.8c1.2,7.4-1.6,12.1-8.2,16.1c-4.4,2.6-7.9,7.5-10.7,12.1c-6.4,10.5-3.2,19,8.2,25.7
		c13.1,7.6,27.2,8.2,41.4,5.7c10.7-1.9,20.4-0.7,29.1,5.3c8.6,6,16.8,3,24.1-1c7-3.9,13.9-4.4,21.4-4.2c8.3,0.2,16.6-0.3,24.8-1.2
		c2.7-0.3,5.1-2.8,8-4.5c0.2,0.2,0.6,0.8,1,1.4c5.3,8.8,10.5,17.6,15.8,26.4c4.8,7.9,9.5,15.9,14.4,23.7c0.8,1.2,2,2.2,3.2,3.1
		c2,1.4,5,2.2,6,4.1c5.5,10.4,16.7,8.2,25.1,12c3.8,1.8,7.4,4.2,11.4,5.4c5.4,1.6,11.1,2.6,16.7,3.5c2.4,0.4,5,0.1,8.1,0.1
		c0.4,3.8,0.9,7.5,1.1,11.2c0.7,16.5,1.2,33.1,2.1,49.6c0.6,11.8,1.6,23.7,2.5,36.7c-6.2-1.3-11.9-1.6-16.7-3.7
		c-6.8-3-12.7-1.9-18.6,1.6c-5.8,3.4-11,8.7-18.5,7.6c-3.8-0.6-7.5-1.9-11.2-3.2c-9.6-3.4-19.2-7.1-28.9-10.4
		c-2.6-0.9-5.5-1.1-8.2-1.3c-5.5-0.5-7.4,1.4-10.4,8.3c-1.9,4.4,0.3,6.3,3.5,8.8c3.6,2.9,6.6,6.6,9.8,9.9c-1.1,1.1-1.6,1.8-2.2,2.4
		c-2.7,2.7-6.8,5.8-4.7,9.4c2,3.5,6.2,6.5,10.1,7.9c6.6,2.2,13.7,2.9,20.5,4.2c5.3,1,7.6,4.5,7,9.6c-0.8,7-1,14.2-3.2,20.8
		c-3,9.3-9,16.9-18.2,21.4c-2.1,1-4.4,1.7-6.1,3.2c-5.6,4.9-10.8,4.2-16.5,0.1c-7.1-4.9-15.5-3.9-23.1-2.6c-5.3,0.9-9.1,6-10.9,11.7
		c-2,6.2-6.5,9.4-11.8,7.6c-4.1-1.4-8.8-3.1-11.6-6.1c-6.1-6.7-13.3-4.5-20.3-4.3c-1,0-1.9,0.5-2.9,0.6c-11.1,0.4-22.2,1-33.3,0.9
		c-12.5-0.1-19,6.1-22.3,17.7c-2.7,9.5-6.9,18.6-11,27.5c-1.5,3.3-6.4,5.6-6.9,8.8c-1.4,8.7-7.6,12.3-14.1,15.8
		c-2.3,1.2-4.6,2.2-7.5,3.6c0.7-11.3-9.2-13.8-15.2-19.1c-10.4-9.2-21.7-17.5-32.6-26.2c-12.7-10.1-25.4-20.1-38.1-30.3
		c-10.5-8.4-20.9-16.9-31.3-25.4c0-0.3,0-0.8,0.1-0.9c8.5-5.9,7.6-15.3,8.8-23.9c0.9-6.5,1.7-13,3-19.3c1.9-9.3,8.6-14.5,17-17.2
		c12.3-3.9,22.7-10.8,32.1-19.2c2.6-2.3,2.9-7.3,3.8-11.2c0.6-2.8,1.4-6.1,0.4-8.6c-2.9-6.9-10.1-9.1-17.3-6.2
		c-6.6,2.7-13.2,5.6-19.9,8c-10.4,3.6-19.1-2.2-19-13.1c0.2-13.5,1.1-27.1,1.9-40.6c0.6-10,1.2-20.1,2.1-30.1
		c0.5-5.7,1.6-11.3,2.3-17c0.5-4.1,3.3-5.7,6.7-5c8.1,1.7,12.2-3.3,16-8.9c1.3-1.9,1.7-4.6,1.9-6.9c1.1-15.6,2.7-31.3,2.8-46.9
		c0.1-8.4-2.5-16.8-3.8-25.1c-1.1-7.3-2.1-14.6-2.9-21.9c-1.1-9.6-1.3-19.4-3.3-28.8c-1.8-8.4,3-13.6,6.7-19.5
		c2.2-3.6,4.3-7.2,6.8-10.6c5.3-7.3,1-12.4-3.8-17.5c-10.1-10.7-20.3-21.4-30.2-32.3c-12.2-13.3-24.4-26.5-36-40.2
		c-5.5-6.5-12.3-9.9-20.3-10.4c-9.5-0.6-19.1,0-28.6-0.3c-4.5-0.1-9.2-0.6-13.4-2.1c-6.1-2.1-11.4,0.1-16.7,1.8
		c-9.8,3.1-17.8-2.6-22.2-8.3c-1.9-2.4-4.1-4.5-6-6.5c0-2.7,0.3-5.8-0.1-8.8c-1-7.6-6.6-11-14.3-9.2c-5.2,1.2-10.5,2.8-15.8,3.1
		c-3.7,0.2-7.7-1.3-11.3-2.6c-18.3-6.5-31.8,1.4-40.9,17c-2.9,5-6.8,3.8-10.7,3.8c-4.4,0-8.9-0.6-13.3-0.9c-3.4-0.3-6.8-0.6-9.7-0.9
		c-0.7-8.1-1.2-15.7-2-23.2c-0.3-2.9,1-4.5,3.4-5.8c7-3.7,11.4-12.5,10.2-19.7c4.9,0.9,9.8,2.3,14.7,2.5c11,0.4,17.5-8.3,14.3-18.8
		c-2.3-7.8-1.6-15.4-0.3-23.3c0.7-4.4-1.2-9.5-3-13.9c-2.6-6.6-6.5-12.7-9.2-19.3c-2.8-6.9-4.8-14.1-7.3-21.2
		c-1.3-3.6-2-7.1-2.2-11.1c-0.2-3.5-3.9-7-6.4-10.2c-1.1-1.4-3.2-2.3-5-3c-8.4-3.2-13.3-10.1-18.4-16.8c-3.4-4.4-6.9-8.8-10.2-13.2
		c-0.8-1.1-1.8-2.9-1.4-3.9c2.8-7.2,5.9-14.3,8.9-21.4c0.7-0.1,1.4-0.3,2-0.4c1.5,2.3,3.7,4.4,4.4,7c4.5,16.3,17.3,24.2,30.7,31.7
		c1.1,0.6,2.5,1,3.7,0.9c6.1-0.7,10.8,1.5,14.8,6.2c2.2,2.6,13.4,4.6,15.8,2.5C1741.6,263.7,1742.5,260.4,1744,257.7z"/>
	<path id="_x33_88" class="st0" d="M1727.6,627.1c-0.6-2.4-1.2-4.6-1.5-6.9c-0.9-6.1-2.7-7.6-8.4-6c-6.1,1.7-12.1,3.8-18.1,5.8
		c-0.9,0.3-2.2,0.9-2.3,1.6c-0.9,6.1-6.1,7.8-10.5,10c-4.1,2-8,4.1-10.3,8.4c-0.6,1.1-3.2,2.3-4.2,1.8c-3-1.3-4.2-0.4-5.8,2.2
		c-4.6,7-9.4,13.7-14.5,20.3c-1.4,1.8-4.1,3.3-6.4,3.5c-2.8,0.2-4.5-1.8-4.7-5.1c-0.1-2-1.9-3.8-2.7-5.7c-1.1-2.6-1.5-5.8-3.2-8
		c-2.2-2.9-5.3-5.3-8.2-7.7c-9.2-7.7-18.5-15.2-27.7-22.9c-3.4-2.8-6.2-6.6-10-8.8c-7.6-4.6-15.5-9.1-23.7-12.3
		c-8.5-3.4-11.7-10.1-14.3-17.8c-0.9-2.8-2.3-5.4-2.9-8.3c-1.3-7-6.1-8.8-12.3-9.2c-5.5-0.3-9.3-2.8-11.6-8.1
		c-0.9-2-3.3-4.1-5.4-4.7c-26.3-6.8-52.7-13.2-79.1-19.9c-2.5-0.6-4-0.3-5.8,2c-6,7.6-12.3,14.9-18.9,22.8
		c-6.3-6.7-12.5-13.5-18.9-20.3c-3.9-4.1-7.6-8.4-14.1-8.8c-9.2-0.6-18.3-2-27.4-3c-3.4-0.4-6.9-0.5-10.3-1.1
		c-1.2-0.2-2.9-1.2-3.3-2.3c-5.1-11.7-8.5-23.9-9.1-36.8c-0.2-4.5,0.4-9,1.2-13.4c0.3-1.3,2.6-2.5,4.3-3.3
		c8.6-3.8,14.6-10.2,19.9-17.8c2.2-3.2,6-5.7,9.7-7.3c7.6-3.2,13.6-8.3,18.5-14.5c8.8-10.8,20.8-10.7,32.8-10.4
		c2.7,0.1,5.4,2.8,7.8,4.6c3.6,2.6,7,5.4,10.4,8.3c4,3.5,8.5,2.6,12.9,1.5c24.6-6.1,49.2-12.3,73.9-18.4c8.5-2.1,17.1-4.1,25.6-6.2
		c7-1.7,8.5-3.7,9-11.1c0.9-14.6,1.9-29.3,3-43.9c0.9-11.8,1.9-23.6,3-35.4c0.7-7.7,1.6-15.3,2.4-23.9c17,1.4,34.1,2.8,51.8,4.3
		c-0.4,6.8-1,13-1.2,19.2c-0.2,4.9,1.6,8.3,6.4,10.8c5.8,3,11,7.5,16.4,11.3c0.9,0.7,1.8,1.5,2.8,1.9c10.2,4.6,15.5,14.2,22,22.3
		c3.2,4,4.4,9.5,7.6,13.5c3.4,4.5,7.7,8.4,12.2,11.9c7.7,5.9,7.6,16.8-0.6,21.7c-7.3,4.4-8.9,7.6-6.3,15.9c1.7,5.3,1.6,10.3,0,15.3
		c-0.9,3.1,0.2,3.9,2.9,4.1c2.1,0.2,4.2,0.8,6.3,0.9c8.4,0.4,16.9,0.8,25.3,0.9c1.4,0,3.5-1.2,4.1-2.4c4.5-9.3,11.7-16,21.1-19.7
		c3.7-1.5,8.5-0.9,12.7-0.2c4.9,0.8,9.6,3.1,14.5,4c2.7,0.5,5.7-0.7,8.6-1c5.6-0.6,11.2-1.8,16.7-1.3c5,0.5,7.5,7.2,5.3,12
		c-0.6,1.3-1.3,2.6-1.6,3.1c5,4.8,9.3,9.6,14.3,13.6c5.2,4.1,11.4,5.7,18.2,3.7c6.8-2,13.6-4.6,20.8-0.1c2.4,1.5,6.6,0.9,9.8,0.3
		c12.9-2.2,25.6-1,38.1,2.4c2.8,0.8,5.2,3.9,7.4,6.3c4.7,5.1,9,10.5,13.7,15.6c9.6,10.5,19.5,20.8,29.2,31.2
		c8,8.6,16,17.2,23.9,25.9c1.1,1.2,1.8,2.7,2.5,3.6c-10.6,3.1-21.1,6.7-31.8,9.3c-5.1,1.2-10.6,1.1-15.9,0.8
		c-9.5-0.4-17,3.4-24.2,9.1c-1.6,1.3-4.3,2.2-6.2,1.8c-6-1.3-11.8-3.4-17.8-5c-3.9-1.1-8-1.5-11.8-2.8c-3.9-1.4-7.7-3.3-11.3-5.3
		c-3-1.7-5.6-3.8-8.5-5.8c-4.4,7.2-8.3,14.4-12.9,21.1c-2.4,3.5-6.2,5.9-9.3,8.9c-1.3,1.2-3,2.4-3.4,3.9c-5.2,19-9.9,38.1-15.3,57
		c-1.3,4.4-4.6,8.2-7.5,13.1c-9.6-8.7-21-13-32.9-15.4C1751,630.1,1740.2,622.2,1727.6,627.1z"/>
	<path id="_x34_01" class="st0" d="M1204.9,936.9c1.6-17,0.2-36.1,11.3-52.4c-4.3-3.1-8.1-5.7-11.8-8.6c-5.2-4.1-5-14.9,0.3-19.2
		c3.3-2.7,7.3-4.8,9.9-8c3.7-4.7,7.8-10,9-15.6c1.1-5.1,2.7-9.7,5-14.2c7.5-14.5,17.6-26.9,31.1-36.3c5.4-3.7,8.7-15.3,7-22.5
		c-1.1-4.4-1.7-8.9-2.7-13.4c-1.2-5.7,3.7-8.3,6-12.3c5.9-10.1,13.9-19,16.5-30.7c0.8-3.4,0-7.6-1.3-10.9
		c-2.2-5.6-5.7-10.8-3.5-18.3c6.3-1.1,13.1-2.6,20-3.5c6.7-0.9,10.9-5.4,16.3-10.4c12.2,7.9,24.6,15.8,37,23.9
		c1.4,0.9,2.9,2.1,3.5,3.5c4,10.2,12.7,17,18.8,25.7c2.1,3,3,7,5.6,9.3c4,3.5,8.6,6.7,13.6,8.4c11.7,4,17.6,13.1,22.4,23.2
		c2,4.1,4.2,5.5,8.7,5.4c13.9-0.3,27.9-0.1,42.5-0.1c-5.2,5.8-9.8,11.1-14.7,16.2c-8.9,9.4-18.1,18.6-26.9,28
		c-13,13.9-26,27.8-38.8,41.9c-0.8,0.9-0.8,3.9,0,4.8c10.3,10.6,20.8,21.1,31.5,31.5c1.3,1.2,3.9,1.6,5.8,1.6
		c32.3,0.1,64.7,0.1,97,0.1c1.8,0,3.6,0,5.9,0c1.1,9.9-2.1,18.5-6.3,26.9c-0.9,1.9-2.3,3.6-3.3,5.5c-2.7,4.9-6.9,8.6-12.4,8.4
		c-10.8-0.4-17.2,5.5-22.9,13.4c-7,9.6-6.9,20.2-6,31.3c0.6,7.3,1.3,15-0.3,22c-2.1,9.6,0.3,17.1,6.4,24c4.7,5.2,7.7,10.8,8.4,18.2
		c0.4,4.3,4.6,8.3,7.6,12.1c2.8,3.6,2.6,5.3-1.4,8.2c-9.2,6.9-18.2,14.2-26.3,22.3c-6.3,6.3-14,9.6-21.5,13.6
		c-5.6,3-11.1,6.2-16.2,9.9c-12.3,8.8-25.6,15.4-40.7,16.7c-7.2,0.6-14.8-1.9-22.1-3.7c-8.2-2-14.6,1.1-20.8,5.6
		c-6.2,4.5-12.4,9.1-18.7,13.5c-0.9,0.6-3.5,0.4-4-0.3c-4.6-6.9-8.8-13.9-13.3-20.9c-10-15.7-20-31.3-29.8-47.2
		c-1-1.6-0.5-4.7,0.3-6.6c2.7-6.1,6.4-11.8,8.7-18c1.7-4.5,2-9.6,2.5-14.4c0.9-7.5,1.3-15.1,2.1-22.6c0.2-2,1.4-3.9,2.3-5.7
		c0.9-1.7,2.2-3.3,3-5c1.7-3.9-0.2-6.9-4.4-7.1c-11.3-0.4-22.6-0.1-33.8-1.2c-8-0.8-16-3-23.9-5.1c-1.1-0.3-2.1-3.1-2.2-4.9
		c-0.5-8-4.4-13.6-10.7-18.3c-3.2-2.4-4.7-7-8-9.2C1217.4,942.1,1211.5,940,1204.9,936.9z"/>
	<path id="_x33_96" class="st0" d="M695,648c22.3,0,43.9,0,65.6,0c7.9,0,15.3-5.2,17.7-12.9c2.7-8.7,8.4-15.1,15.9-19.7
		c9.9-6.1,16.5-15.2,23.5-24c3.8-4.7,14.7-8.8,20.1-5.8c6.2,3.4,10.9,0.6,15.8-1.9c10.4-5.2,15-14.6,18.5-25.1
		c3.1-9.5,8.5-17.5,19.3-19.9c2.7-0.6,5.2-1.9,7.6-3.3c6.1-3.7,12.5-3.3,18.3-0.1c7.4,4.2,14.8,4.3,22.9,2.9
		c5.5-1,11.2-0.9,16.8-1.2c12-0.7,24.1-1.2,36.1-2.1c6-0.4,12-1.4,18.1-1.8c1.4-0.1,3.1,1,4.3,1.9c1,0.7,1.7,2,2.2,3.2
		c7.1,13.7,19.6,21.9,31.4,30.8c11.2,8.4,22.1,17.2,33,26c3.1,2.5,2.6,7.5-1.6,9.1c-8.5,3.3-17.1,6.6-25.1,10.9
		c-7.9,4.2-15.2,9.5-22.4,14.7c-0.9,0.7-0.8,4.3,0.1,5.7c4.6,6.7,0.7,10.9-3.6,15.4c-5.3,5.7-10.2,11.7-15.5,17.3
		c-1.3,1.4-3.5,2.4-5.4,2.7c-7.8,1.5-15.7,2.8-23.6,3.9c-1.7,0.3-3.6-0.2-5.5-0.4c-0.2,0.4-0.9,0.9-0.9,1.4
		c0.6,9.4-8.1,13.8-11.3,21.1c-3.2,7.5-7,14.8-10.9,21.9c-2.8,5.1-5.9,10-12.5,11.2c-1.1,0.2-2.6,2.3-2.8,3.6
		c-0.9,9-1.4,18.1-2.1,27.1c-0.6,7-1.4,14.1-1.8,21.1c-0.1,1.8,0.5,5.3,1.1,5.3c3.1,0.3,7.7,1,9.3-0.7c7-7.8,16-7.9,25.2-8.7
		c8.3-0.6,16.6-2.1,24.9-2.6c3.3-0.2,6.8,0.8,9.9,2c4.6,1.7,8.9,4,13.4,6.2c0.1,4.9-3.6,6.8-7.1,8.5c-11.3,5.4-17.8,15.1-23.8,25.4
		c-1,1.7-1.6,4-1.6,6c0,8-5.7,13-9.9,18.6c-7,9.3-16.1,16.8-21.8,27.3c-1.6,2.8-6.4,4.3-10.1,5.4c-6.9,2-13.4,5.1-21.3,3.7
		c-4.9-0.8-10.4,2-15.7,2.8c-1.4,0.2-3.6-0.5-4.5-1.5c-9.1-10.6-18-21.3-26.9-32.1c-7.4-9-14.6-18.1-22.3-26.9
		c-2-2.3-5.3-3.7-8.1-5.3c-2.6-1.4-5.4-2.3-8.1-3.5c-3.7-1.5-6.3-3.5-5.7-8.4c0.5-3.9-5.5-7.2-10.4-6.4c-1.6,0.3-3.2,0.8-4.8,1.1
		c-2.9,0.4-7.4,2.1-8.5,0.8c-2.8-3.3-5.4-7.7-5.8-11.9c-0.7-7.2,0.7-14.5,0.6-21.8c-0.1-8.4-3.2-14.9-11.2-19.5
		c-13.7-8-28.6-12.6-43.3-17.9c-5.6-2-10.7-5.3-16.1-8c-0.4-0.2-0.8-0.8-1.2-0.8c-11.1-0.9-19.9-7.8-30.1-11.3
		c-2.9-1-6.1-2.4-7.9-4.6c-1.6-1.9-2.4-5.7-1.7-8c2.9-8.9,2.8-17.7,1.7-26.8C694.4,662,695,655.3,695,648z"/>
	<path id="_x34_00" class="st0" d="M1014.1,976c-3.6-2.5-6.3-5.2-9.6-6.7c-12.8-5.7-26-10.5-38.5-16.7c-4.3-2.1-7.3-7-10.6-10.9
		c-10.4-12.5-20.6-25.1-30.8-37.7c-5.2-6.3-10.3-12.7-15.9-19.5c7.4-1,13.8-4.4,21.6-2.9c4.8,0.9,10.3-2.2,15.5-3.6
		c2-0.6,3.9-1.6,5.9-2.3c4.7-1.6,7.8-4.5,10.3-9c3.1-5.5,7.9-10,11.8-15c5.3-6.8,10.7-13.7,15.6-20.7c1.3-1.8,1.3-4.5,2-6.8
		c3.9-14,12.8-24,25.6-30.5c3.6-1.8,5.5-4.7,7.2-8.1c1.2-2.4,0.8-3.6-1.6-4.6c-7.4-2.9-14.6-6.6-22.3-8.4c-4.4-1-9.6,1-14.5,1.6
		c-2.3,0.3-4.5,0.8-6.8,0.9c-6.9,0.4-14,0-20.7,1.3c-3.7,0.7-6.8,4.1-10.3,6.1c-2.2,1.3-4.6,2.3-7.9,3.8c0.3-7,0.5-12.6,0.9-18.1
		c0.5-7.4,1.3-14.7,1.9-22.1c0.3-3.8,0.6-7.5,1.1-11.3c0.1-0.7,0.9-1.8,1.6-2c9-2.3,12-10.4,16.3-17.1c1.5-2.3,2.5-2.8,5.4-2.1
		c31.5,7.6,63,15.2,94.6,22.1c5,1.1,10.7-0.8,16-1.8c8.9-1.7,17.8-3.9,26.7-5.7c1.1-0.2,2.9,0.1,3.6,0.8c7.1,7.6,14.9,7.4,23.1,2.1
		c5-3.2,9.9-6.1,14.8-2.2c8.7-10.6,17-20.7,25.8-31.6c5.8,3.5,12.5,6.2,16.9,11c2.4,2.6,0.9,8.8,0.9,13.4c0,3.1-0.6,6.2-0.9,9.3
		c-0.3,3.4-0.5,6.9-1,10.3c-0.7,5.2,0.6,9.6,4.3,13.5c4.8,5,9.4,10.3,14.3,15.2c6.4,6.4,13.6,10.7,23.2,11.3
		c6.4,0.4,12.5,3.8,18.9,5.9c-4.5,5-9.3,9.4-12.9,14.7c-5.2,7.7-9.8,15.8-14,24.1c-1.6,3-0.9,7.1-2,10.4
		c-2.8,8.8-11.6,12.1-17.1,18.4c-2,2.3-3.8,5.2-4.5,8.1c-2.1,9,1.5,15.5,9.8,19.6c1.4,0.7,2.6,1.9,4.3,3.1
		c-10.1,16.7-8.8,35.6-10.6,54c-2.6,0.3-5.2,0.5-7.7,1c-6.5,1.3-10.7,5.5-14.7,10.6c-4,5.2-9,9.7-13.4,14.6
		c-1.1,1.2-2.5,2.6-2.6,4.1c-0.6,7.9-0.7,15.9-1.4,23.8c-0.6,6.6-1.7,13.2-3,19.7c-0.2,0.9-2.6,2.3-3.7,2.1
		c-9.4-1.8-18.2-4.9-25.2-12c-0.6-0.6-1.2-1.3-2-1.4c-12-2.2-22.9-7.7-36.2-5c-11.5,2.4-22.8,5.1-34.2,7.8
		c-6.9,1.7-12.7-1.9-16.3-8.2c-3.7-6.3-7.7-12.5-11.8-18.6c-0.8-1.1-2.7-2-4.1-2.1C1021.2,975.8,1017.1,976,1014.1,976z"/>
	<path id="_x33_89" class="st0" d="M1169.9,449.2c-0.7,9-1.3,17.8-1.9,26.6c-0.7,10-1.3,20.1-2.1,30.1c-0.1,1.1-1.8,2.8-2.9,3
		c-19.8,2.8-39.6,5.4-59.3,8.2c-20.7,2.9-41.4,6-62.1,9c-6.9,1-13.8,2.2-21.1,2.3c16-17.4,32.1-34.7,49.1-53.1
		c-11.7-1.6-21.9-2.9-32-4.3c-4.7-0.6-9.4-2.1-14.1-1.8c-6.8,0.4-13.5,2.2-20.2,3.2c-4.5,0.7-9.1,1.4-13.6,1.4c-2,0-4.4-1.4-5.9-2.9
		c-6.2-5.9-12.1-11.9-20.4-15.1c-3.5-1.3-6.5-4.4-9.5-6.8c-2.3-1.9-0.4-8.5,3-9.9c9.2-3.7,16.8-9.6,23.4-16.7
		c10.9-11.9,21.5-24.1,32.2-36.2c0.6-0.7,1.3-1.6,1.4-2.5c1.7-10.9,9.6-18,16.2-25.8c3.1-3.6,4.2-6.2,2.4-11.1
		c-7.2-19.2-13.5-38.7-20.2-58.1c-3.2-9.2-6.5-18.4-9.7-27.5c4.8-4.3,9.5-9.1,14.8-13c4.3-3.1,9.1-5.7,14-7.6
		c13-5.1,24.2-12.3,32.2-24.1c5,2.4,7.3,6.2,8.1,12c1,6.5,3.6,12.8,5.6,19.2c2.1,6.6,4.7,7.6,14.1,8.5c14.4,1.3,28.6,4,43,4.6
		c9.8,0.4,17.4,5.1,25.7,8.8c12.7,5.6,25.2,11.6,37.7,17.6c1.7,0.8,3.2,2.7,4.2,4.4c5.7,9.1,11.2,18.4,16.8,27.6
		c0.3,0.4,0.5,0.9,0.6,1.4c0.7,12.9,11.5,20.4,16.8,30.7c4.8,9.2,8.8,18.9,13,28.4c4.8,10.8,8.4,22.2,16.8,31.2
		c2.5,2.7,3.7,8.2,2.9,11.9c-2.1,8.9,2.4,15.9,4.9,23.5c0.7,2.1,1.8,4.1,3.3,7.6c-3.9-1-6.7-1.3-9.1-2.5c-7.2-3.5-14.1-7.2-22.8-6.5
		c-16,1.3-32.1,1.4-48.1,2.2C1188.2,447.5,1179.3,448.4,1169.9,449.2z"/>
	<path id="_x33_94" class="st0" d="M696.8,645c-2.8-8.5-5.9-16.5-7.9-24.9c-0.6-2.7,1.1-6.3,2.6-9c6.4-11.7,13.7-23,19.7-35
		c5-10,8.9-20.5,12.7-31.1c1.8-5,3.7-8.5,9.1-10.9c13-5.7,25.8-12.3,35.6-23.2c2.5-2.8,5.5-5.3,8.6-7.4c1.3-0.9,3.6-0.6,5.4-0.4
		c7,0.8,13.9,2.5,20.8,2.7c17,0.4,34,0.2,51,0.1c9.6-0.1,19.2-0.7,28.8-0.9c2.7-0.1,3.8-1,3.9-3.8c0.5-12.3-0.6-23.9-6.8-35.3
		c-10.7-19.6-20-40.1-29.9-60.2c-10-20.4-20-40.8-30.1-61.4c4.7-2.1,9.4-4.2,14.6-6.6c0.8,1.9,1.6,3.6,2.1,5.4
		c1.7,5.4,3.3,10.8,4.8,16.3c1.2,4.3,2.4,8.7,3.2,13.1c0.6,3.2,0.6,5.7,4.8,6.8c2.5,0.6,4.7,3.9,6.2,6.5c3,5.2,5.2,10.9,8.1,16.2
		c3.9,7,12.1,10,20.6,7.7c9.8-2.7,13.2-6.6,13.5-17.2c0.4-14.3-5.5-26.7-9.9-39.3c21.4-13.3,42.9-26.5,64.1-40.1
		c4.4-2.8,7.8-7.1,11.5-10.8c3.9-3.9,7.6-8,11.4-12.1c8.1-8.6,16.1-17.1,24.8-26.2c2.5,7.2,5,14.1,7.4,21.1
		c6.8,19.3,13.3,38.8,20.6,57.9c2.6,6.8,2,11.7-3.1,16.6c-6.7,6.4-12.2,13.7-14.1,23c-0.2,0.9-0.9,1.7-1.5,2.4
		c-9.6,10.7-19.7,21-28.8,32c-7.2,8.7-15.9,14.9-25.9,19.6c-5.6,2.7-6.1,11.4-1.6,15.4c9.5,8.3,21.9,12.3,30.3,22.4
		c3.8,4.6,10.8,2.8,16.5,1.9c7.5-1.2,14.9-4,22.5-4.2c8.9-0.2,17.9,1.7,26.9,2.9c4.5,0.6,8.9,1.5,13.9,2.4c-0.8,1-1.3,2-2,2.8
		c-11.5,12.2-23,24.3-34.5,36.5c-2.7,2.9-5.5,5.8-7.8,8.9c-2.9,3.8-6.9,4.8-11.1,5.2c-4.9,0.5-9.9,0.8-14.8,1
		c-12.2,0.7-24.4,1.2-36.6,2.1c-6.2,0.4-12.4,1.3-18.6,1.9c-7,0.6-13.6-0.4-20.1-3.6c-6.3-3.1-12.6-3.6-19.2,0.3
		c-4.3,2.5-9.5,3.3-14.1,5.5c-2.5,1.2-4.5,3.5-6.6,5.4c-7.9,7.4-9,18.3-14.1,27c-4.4,7.4-11.3,11.6-19.5,13.7
		c-0.5,0.1-1.3,0.1-1.7-0.2c-6.2-4.1-12.9-1.5-19.2-0.8c-2.8,0.3-5.9,3.2-7.6,5.8c-8.1,12.5-19.3,21.4-30.9,30.3
		c-4,3-6.4,8.6-8.5,13.4c-3.2,7.5-8.8,12.2-16.7,12.2C738.5,645,717.5,645,696.8,645z"/>
	<path id="_x33_97" class="st0" d="M1082.3,716.8c-6.1-12.5-19-14.8-29.8-19.6c-9.4-4.1-9.9-4.3-7.9-14.7c1.1-5.6,1-11.5,1.4-17.2
		c0.3-4.8,0.6-9.5,1-14.3c0.3-2.7-0.6-4.3-3.3-5.1c-6-1.9-5.4-8.1-7.6-12.3c-0.3-0.7,1.5-2.8,2.6-3.8c9.5-8.2,20.6-13.5,32.3-17.8
		c3.8-1.4,7.6-3,11.2-4.8c6.8-3.3,7.2-10.8,1.1-15.4c-17-12.8-34.2-25.3-50.6-38.8c-6.1-5.1-10.1-12.8-15.6-20.1
		c4.3-0.7,7.6-1.4,10.9-1.9c17.9-2.7,35.9-5.4,53.8-7.9c12.8-1.8,25.7-3.3,38.5-5.1c12.4-1.8,24.8-3.9,37.3-5.8c2.4-0.4,4.8-1,7.3-1
		c4,0,3.9-2.3,4.1-5.2c0.9-16.6,2-33.3,2.9-49.9c0.2-3.7,2.8-4.7,5.6-4.9c8.1-0.6,16.2-0.7,24.3-1.1c3.2-0.2,4.2,1.7,4.1,4.2
		c-0.8,11.3,2.6,22.1,3.8,33.2c0.6,5-0.5,10.5-1.9,15.5c-4.1,14.7-4.2,29.7-3.7,44.7c0.2,5.5,2.1,10.9,2.7,16.4
		c0.4,3.3-0.4,6.6-0.2,9.9c0.3,5,0.6,10,1.4,14.9c1.8,11.3,3.7,22.5,6.1,33.7c0.6,3,2.5,6,4.5,8.5c5.3,6.7,8.4,14.3,9.3,22.7
		c0.7,6.7-3.6,11.5-12.2,12.1c-5.9,0.4-10.5,3-14.8,6.1c-4.1,2.9-7.6,3-12.2,1.2c-3.1-1.2-7.7,0.4-10-1.4
		c-5.8-4.3-10.2-1.1-14.9,1.3c-26.4,14-52.8,28-79.1,42.1C1083.8,715.6,1083.1,716.2,1082.3,716.8z"/>
	<path id="_x33_93" class="st0" d="M1208.4,450.1c4.5-0.4,9.2-0.9,13.9-1.1c9.3-0.4,18.5-0.5,27.8-1.1c6.4-0.4,11.1,3.5,16.3,5.9
		c1.9,0.9,3.8,1.8,5.9,2c2.9,0.4,6.1-0.9,8.5,1.9c0.5,0.5,2.1,0.5,2.9,0.1c6.1-3,10.7,1.5,15.9,2.9c3.4,0.9,7,1.5,10.5,2.2
		c6.5,1.3,13.1,2.5,20,3.9c-0.4,5.7-1.4,11.1-0.9,16.3c1.1,10.5,2,21.1,7.2,30.7c0.6,1.1,1.5,2.5,1.3,3.6c-0.7,5.3,3.2,6,6.6,6.4
		c12,1.5,24.1,2.7,36.2,4.2c1.5,0.2,3,0.8,4.8,1.4c-5.7,11.4-11.1,22.4-16.6,33.4c-10,20-19.9,40.1-30.1,60.1
		c-4.6,9.1-9.1,18.4-14.8,26.8c-3.5,5.2-9.1,8.9-13.7,13.3c-4,3.9-8.9,4.6-14.2,5.3c-6.8,0.9-13.5,3.4-20.3,4.8
		c-6.4,1.3-12.9,1.9-19.4,3c-2.2,0.4-4.4,1.1-6.5,1.7c-0.8,0.2-1.6,1.2-2.2,1c-6.3-2.2-8.3,3.4-12,6.2c-7.2,5.5-14.8,5.3-22.6,1.5
		c-3.8-1.9-7.4-4.1-11.2-6.1c-2.8-1.5-2.3-2.7-0.1-4.6c5.8-5.2,13.1-6.3,20.2-8.1c6.1-1.5,9.8-9,9-15.3c-1.4-10.3-5.7-19-11.9-27.3
		c-2.3-3.1-2.6-7.9-3.3-12c-2-11.3-5.1-22.5-5.1-33.8c-0.1-10.4-2.5-20.3-3.1-30.4c-0.7-11.2,0.3-22.5,1.3-33.6
		c0.8-8.7,3.4-17.3,4.2-26c0.4-4.7-1.3-9.7-2-14.5c-0.6-4.5-1.3-9.1-1.7-13.6C1208.7,457.5,1208.6,454,1208.4,450.1z"/>
	<path id="_x33_99" class="st0" d="M1278,676.1c-1.4,7.7,3.1,13.7,5.4,20.4c1.3,3.8,0.2,9.5-2,13.1c-6,10.1-10.8,20.9-18.9,29.7
		c-1.7,1.9-1.4,6.2-1.1,9.3c0.5,6.3,2,12.6,2.5,18.9c0.4,5.1-6.7,15.4-11.5,17.2c-1,0.4-2.3,0.1-3.3-0.2c-8.1-2.2-16.3-4.3-24.4-6.7
		c-7.6-2.3-13.9-6.6-19-12.6c-3.9-4.5-7.3-9.4-11.6-13.4c-3.8-3.5-3.2-7.4-3-11.4c0.5-10.4,1.4-20.8,1.8-31.2
		c0.1-1.4-1.1-3.4-2.4-4.1c-6-3.9-12.2-7.5-19-11.5c-8.7,10.4-17.4,20.8-26.5,31.7c-5.3-4-10.2,0.2-15.1,3.2
		c-7.4,4.6-14,4.8-20.3-2.2c-1-1.1-3.7-1.3-5.4-1c-12.3,2.4-24.5,5.8-36.9,7.2c-6.2,0.7-12.9-1.6-19.2-3.1
		c-26.6-6.1-53.3-12.4-79.9-18.6c-1.1-0.3-2.1-0.9-4.4-1.8c4.8-7.4,9.5-14.6,14.2-21.8c0.4-0.5,1.3-0.9,1.3-1.4
		c0.5-10,8.6-7.6,14.4-8.8c5.6-1.2,11.3-1.8,16.8-3c1.9-0.4,4.1-1.4,5.4-2.8c6.6-7.3,13-14.9,19.5-22.3c0.7-0.8,2.8-1.6,3.5-1.2
		c1.8,1.2,4.5,2.9,4.6,4.6c0.3,4.7-0.4,9.6-0.8,14.3c-0.6,7.5-1.5,15.1-1.9,22.6c-0.3,6.3,1.3,7.5,7,9.7c9.2,3.6,18.2,7.8,27.1,12.2
		c1.8,0.9,3,3.8,3.7,6c1,2.9,2.1,3.3,4.7,1.9c9.3-5.1,18.7-10,28-15.2c12.3-6.8,24.3-14,36.8-20.5c7-3.7,14.6-6.4,21.9-9.4
		c0.8-0.3,1.8-0.7,2.6-0.5c11.9,2.4,23.4,5.5,33.7,13c4.5,3.3,10.8,4.3,16.5,5.4c6.5,1.3,12.1-1.6,16.1-6.6c4.4-5.5,10.9-4.5,16.5-6
		C1262.6,677.3,1270.1,677.1,1278,676.1z"/>
	<path id="_x33_95" class="st0" d="M884,501.8c-63.7,3.1-88.4,2.6-104.5-2.5c4.1-6.6,8.2-13,12.1-19.5c1.7-2.7,3.3-5.6,4.2-8.6
		c0.4-1.4-0.3-3.7-1.4-4.9c-0.8-0.9-3.4-1.4-4.3-0.7c-8,5.6-17,4.4-25.8,4.5c-0.3,0-0.7,0-1,0c-10.2,0.1-20.7-1.5-29.8,5.5
		c-0.3-0.5-0.6-1-0.9-1.5c2.6-3.4,5-6.9,7.9-10c2.9-3.1,6.3-5.9,9.5-8.6c5.6-4.8,7-11.6,8.8-18.2c0.9-3.3,1.6-6.7,1.9-10
		c0.4-4.4-0.4-8.8,0.4-13.1c1-6.2,2.6-12.4,4.6-18.3c2.1-6.1,5-12,7.8-17.8c1.3-2.6,3.5-4.7,5.1-7.2c1.5-2.3,2.7-4.8,4-7.2
		c13.4-1.7,23-11.6,34.9-17.8c7.5,15.4,14.8,30.5,22.3,45.6c4.8,9.7,10,19.1,14.8,28.8c9.3,18.9,18.3,38,27.4,57
		C885.9,485.2,883.3,493.6,884,501.8z"/>
	<path id="_x33_90" class="st0" d="M1657.1,243.2c4.5,5.7,8.9,10.6,12.4,16c4.9,7.5,11,13.2,19.1,17.2c3.2,1.6,5.7,4.6,8.4,7.2
		c0.6,0.6,0.9,1.7,1,2.6c0.9,13.3,5.1,25.4,11.5,37c4.2,7.5,7.1,15.7,10.4,23.7c0.4,0.8,0.3,2.1,0,3c-3,8.9-1.9,17.6-0.1,26.6
		c2.6,13.2-5.5,16.1-17.6,13.9c-13.2-2.4-23.5-10.5-30.4-21.6c-3.9-6.2-7.5-12.5-11.4-18.6c-4.5-7.1-11.2-10.6-17.4-15.1
		c-6.7-4.9-13.8-9.3-20.4-14.3c-4.1-3.1-2.3-8-2.4-12.1c0-3.4,0.8-6.9,0.8-10.3c0.1-2.8,0.6-4.3,3.9-4.4c4.7,0,6.4-4,8.3-7.4
		C1640.9,272.4,1648.8,258.3,1657.1,243.2z"/>
</g>
</svg>
