<?xml version="1.0" encoding="utf-8"?>
<!-- Generator: Adobe Illustrator 19.0.0, SVG Export Plug-In . SVG Version: 6.00 Build 0)  -->
<svg version="1.1" id="Layer_1" xmlns="http://www.w3.org/2000/svg" xmlns:xlink="http://www.w3.org/1999/xlink" x="0px" y="0px"
	 viewBox="0 0 2600 1300" style="enable-background:new 0 0 2600 1300;" xml:space="preserve">
<style type="text/css">
	.st0{fill:#FFFFFF;}
</style>
<g>
	<path d="M1692.4,547.5c-1.5,8,0.8,13.7,6.8,17c6.3,3.4,5.8,9.5,6.7,14.8c1.5,9.2,5.2,16.4,13.1,21.8c6.8,4.7,12.8,10.6,19.7,16.4
		c0.4-0.2,1.9-0.8,3.3-1.3c0.3,0.3,0.6,0.6,1,0.9c-0.8,1.3-1.7,2.6-2.6,4.1c1.5,2.6,3.2,5.5,5,8.4c2.2,3.8,5.2,6.1,9.7,7.6
		c7.9,2.5,14.9,6.7,20.5,13.5c4.3,5.1,10.1,8.9,15.2,13.3c1.3,1.1,3.1,2.4,3.5,3.8c1.8,6.7,4.2,13.5,4.6,20.4
		c0.6,12.7,4.8,24.2,9.6,35.7c5.7,13.7,12.2,27,20.7,39.2c5.5,7.9,11.5,15.5,16.2,23.9c2.4,4.3,3.2,9.9,3.7,15
		c0.8,8.2,0.7,16.5,1.2,24.8c0.1,1.5,0.9,3.2,1.8,4.5c5.2,7.5,8.5,15.7,9.3,24.9c0.3,3.2,1.7,6.3,3,9.3c1.8,4.1,2.7,7.9,0.2,12.1
		c-4.1,6.7-3.4,13.5,0.6,20.6c1.4-0.1,3.3,0,5-0.5c5.5-1.8,10,0.9,14.3,3.5c1.2,0.7,2,4.1,1.4,5.6c-2.6,6.8-5,14.1-9.2,19.9
		c-3,4.2-8.5,7.2-13.5,9.3c-5.5,2.4-6.8,6.2-6.9,11.5c-0.1,5.1-0.7,10.2-0.9,15.3c-0.3,8.9-5,15.7-10.9,21.7
		c-6.1,6.3-12.2,12.6-18.5,18.5c-7,6.5-12.2,14.1-16.7,22.4c-2.8,5.1-6.1,10-8.9,15.1c-0.7,1.3-0.8,3.5-0.3,5
		c2.3,5.9,1.4,11.6,0.4,17.6c-0.5,3.1,0.2,6.6,1.1,9.7c2.1,7.5,5.2,14.8,6.9,22.4c1.6,7,0.8,14.6,3,21.3c4,12.5,1,24.5-0.3,36.7
		c-0.1,1.3-1,2.8-2,3.8c-3.7,3.6-7.5,7-10.4,9.7c-2.6,0.8-4.6,0.9-6.2,1.9c-5.8,3.4-11,8-17.1,10.4c-6.4,2.5-13.5,3.7-20.4,4
		c-2.9,0.1-6.1-3.4-9-5.3c-17.2-11.2-34.4-22.5-51.6-33.7c-16.1-10.5-32.3-20.9-49.4-32c-4,12.6-7.9,24.8-11.7,36.9
		c-0.4,1.2-0.7,2.5-1.5,3.5c-6.5,7.7-7,17.3-8.5,26.6c-0.7,4.8-1.2,9.8-2.2,14.6c-1,4.9-5.1,6.5-9.2,3.6c-2.2-1.6-4.5-3.7-5.6-6.1
		c-8-17.8-21.4-32-32.6-47.7c-0.6-0.8-1.2-1.6-1.6-2.5c-2.9-6.4-7.5-11.3-12.6-16c-6.6-6.1-13.1-12.6-17.8-20.1
		c-4.8-7.6-11-10.6-19.3-12.7c-15.4-3.9-22-1.1-29.7,12.6c-4.8,8.6-12,14.1-21,17.6c-3.3,1.3-6.9,2.4-9.8,4.3
		c-7.8,5.1-16.8,5.5-25.4,6.4c-7,0.8-14.3-1.1-21.5-1.9c-4.9-0.5-9.8-1.1-14.6-1.8c-10.3-1.6-20.7-3.1-30.9-5
		c-10.7-2-20.8-1.1-30.6,3.9c-1.7,0.9-3.5,1.7-5.3,2.6c1,1.2,1.9,2.3,3.1,3.8c-3.8,1.5-7.3,2.9-11.7,4.7c-2.6-5.1-4.9-10.4-7.8-15.4
		c-3.8-6.6-8.2-12.8-12.1-19.4c-4.6-8-9.2-16.1-13.3-24.4c-2-3.9-3.6-5-6.4-1.1c-4.4,6.2-10.9,7.2-17.8,7.5
		c-6.8,0.3-13.5,0.7-20.3,1c-8.5,0.4-16.9,0.5-25.4,1.1c-2.6,0.2-5.6,1.2-7.7,2.7c-7.3,5.3-16,6.3-24.4,8.1
		c-7.1,1.6-12-3.8-17.5-6.6c-11.4-5.8-22.8-8.7-35.9-6.6c-14.8,2.4-29.8,1.7-44.9-0.3c-11.4-1.6-19.8-8.4-28.7-14
		c-4.8-3-5.6-10.5-4.3-16.4c2.8-12.1,9.6-21.8,20.1-28.6c10.5-6.8,15-16.5,12.5-28.4c-0.6-2.7-1.4-5.4-1.8-8.1
		c-0.6-3.7,0.1-6.9,3.8-8.8c0.6-0.3,1.1-0.8,1.7-1c5.8-2.6,8.3-7.2,8.5-13.4c0.1-1.6,0.6-3.2,0.9-4.3c-8.1-2.8-16.1-5.5-24-8.3
		c-9.7-3.5-18.5-16.9-19-27.2c-0.4-7.2-0.6-14.1,0.8-21.4c1.4-7.3,4.4-12.2,10.8-15c9-3.9,16.3-9.6,22.6-17.3
		c3.7-4.5,9.9-6.8,14.8-10.3c1.9-1.4,4.9-3.4,4.8-5c-0.2-3.9-1.4-8-3.2-11.5c-2-3.7-5.3-6.6-7.8-10.1c-2.4-3.4-3-7.1,0.8-10
		c2.7-2.1,3.6-4.7,3.7-8.1c0.1-2.5,1.4-5.3,3-7.4c2.7-3.4,5.8-6.5,9.2-9.2c2-1.6,4.8-2.8,7.3-3.2c4.4-0.7,5.7-2.7,3.4-6.6
		c-5.1-8.1-9.9-16.5-15.6-24.2c-2.2-2.9-6.7-4-9.8-6.3c-10.2-7.5-21.9-10.8-34.1-11.9c-16.2-1.5-31.8-5.5-46.8-11.4
		c-5.1-2-9.7-5.4-14.2-8.6c-4.6-3.2-9.4-2.2-14.3-1.7c-1.9,0.2-3.8,0.8-5.6,1.6c-10.6,4.6-20.1-0.1-29.9-3.1
		c-6.2-1.9-11.5-5.3-16.1-9.8c-3.4-3.3-4.6-3-7.1,0.9c-6.8,10.7-8.8,23-12.3,34.8c-5.1,17.3-10.2,34.7-18.2,50.9
		c-1,2-3.3,3.8-5.4,4.9c-10,5.1-19.5,5.5-27.6-4c-1.2-1.5-3.7-2-5.7-2.6c-7.1-2.2-12.8-6.5-17-12.5c-1.9-2.8-2.3-6.6-3.2-10
		c-1.1-4-1.4-8.4-3.1-12.1c-4.3-9.3-9.5-18.3-13.9-27.6c-1.2-2.5-1.5-5.9-0.9-8.7c2.4-11.4-3.7-19-11.4-25.7
		c-9.5-8.3-10.6-3.5-18.6,2c-5.5,3.7-11.1,7.4-16.9,10.8c-1.5,0.9-3.9,0.9-5.7,0.5c-3.8-0.7-7.5-2-11.3-3c-3.8-1-6-3-7.6-7.2
		c-13.9-36.5-28.3-72.8-42.5-109.2c-2.8-7.2-0.6-10.4,7.1-10.3c13.6,0.2,27.2,0.6,40.8,1c18.5,0.6,37.1,1.3,55.6,2
		c11.9,0.4,23.9,0.6,35.8,1c6.4,0.2,12.9,0.6,19.3,1c0.9,0.1,2,0.3,2.8,0.8c9.6,5.8,19.5,3.5,29.3,1.1c8.8-2.1,8.6-2.6,6.6-11.4
		c-0.9-4.1-1.8-8.4-1.7-12.6c0.4-12.4-6.8-21.1-14.6-29c-4.8-4.9-8.6-10.1-8.5-16.4c0-3.8,3.3-7.8,5.8-11.2c4-5.6,8.6-10.8,13-16
		c4.6-5.4,5.1-12.1,6.7-18.5c0.6-2.4,2.4-6,4.2-6.3c2.1-0.4,5.6,1.5,7,3.5c17.4,25.3,34.5,50.7,51.8,76.1
		c7.5,11.1,15.5,21.9,22.9,33c2.2,3.4,4.4,1.1,6.4,0.8c10.4-1.2,20.7-2.6,31.1-4c0.7-0.1,1.4-0.6,2.2-0.9c-4.8-4.3-4.8-7.2-0.7-12.5
		c10.5-13.6,20.4-27.6,31.3-40.9c11.8-14.4,17.6-31.5,23-48.8c1.4-4.4-0.6-10.3-2.2-15.1c-1.8-5.4-3.3-10.5-3.3-16.2
		c0-4.5-1.3-9-2.3-13.4c-1.7-7.2-2.5-14.2-1.8-21.8c1-10.7-2.3-20.8-9.8-28.8c-2.9-3.1-3.7-6.5-2.6-10c2.3-7.5-0.9-12.5-6.9-16.3
		c-5.8-3.6-8.3-9.5-10.8-15.3c-0.6-1.3,0.2-4.4,1.3-5c4.8-2.9,9.8-6.1,15.8-3.8c5.4,2.1,10.8,4.4,16,7c4.5,2.4,6.4-1.2,7.8-3.6
		c1.6-2.9-0.5-4.7-3.5-6.1c-8.1-3.8-11.7-11.4-12.8-19.5c-1.5-10.8-1.4-21.9-6.2-32.1c-1.1-2.3-2.2-4.8-3.7-6.9
		c-3.9-5.6-4.3-11.5-2.4-17.8c3.2-10.7,5.3-21.6,5.1-32.9c-0.1-4.6-0.2-9.4,1.2-13.6c1.3-3.7,4.8-6.5,8.1-10.8
		c-0.7-3-1.7-7.9-2.8-12.8c-0.7-3.1-1.6-6.2,1.5-8.6c3.3-2.6,6.1-0.2,8.9,1.1c1.4,0.7,2.7,1.7,5.2,3.3c-0.4-2.4-0.4-3.8-0.9-4.9
		c-3-7.2-6.1-14.3-9.1-21.4c-2-4.6-3.7-9.3-6.1-13.7c-1.4-2.7-3.2-5-1.2-8.1c2.2-3.5,6.2-3.6,8.9-2.4c11.2,5.1,23.7,8,31.8,18.7
		c5.6,7.3,18.8,14.9,27.4,17.6c0-4.7-0.1-9.6,0-14.5c0.1-3.9,0.3-7.9,1.1-11.8c0.3-1.6,2.1-3.6,3.6-4c1.5-0.4,4.3,0.3,5.2,1.4
		c2.1,2.8,3.4,6.2,5.1,9.4c1,1.9,2,3.7,3.7,7.1c1.3-5.2,2.5-8.9,3.1-12.7c1.3-7.7,5.8-13.8,15.6-13.6c7,0.2,14.1,0,21.1-0.3
		c1.1,0,2.3-1.5,3.3-2.5c3-3.2,5.6-6.9,9-9.5c7.1-5.3,11.5-3.3,11.9,5.3c0.2,5.1,2.6,8.9,4.6,13.2c3.3,7.2,5.8,14.8,8.2,22.4
		c0.6,1.9-0.5,4.4-0.9,7.3c7.3,0.1,13.4-1.6,18.9-5.9c2.6-2,6-3.1,8.6-5.2c2.5-2,4.3-4.6,6.4-7c1.5-1.7,2.7-3.8,4.4-5.3
		c7.5-6.7,10.1-7.2,17.3-2.8c5,3,10.1,6.1,15.5,8.4c4.1,1.8,8.7,2.3,13,3.8c4.5,1.6,8.8,3.8,13.3,5.6c3.3,1.3,6.7,2.3,11,3.8
		c-0.4-5.3-0.6-10-1.2-14.6c-0.8-7-1.9-13.9-3-20.9c-0.4-2.2-1.3-4.4-2.1-6.5c-2.8-6.8,1-12.9,8.3-13.5c3.9-0.3,7.8-2.1,11.5-1.5
		c7.2,1.2,11.8,6.6,15.8,12.3c5.2,7.5,9.9,15.4,15.7,22.4c3.2,3.9,8.2,6.4,12.4,9.6c3.5,2.6,7,5.4,10.7,7.8
		c5.7,3.7,11.3,7.8,17.5,10.4c7.6,3.2,13.7,7.5,17.6,15.4c6.6-5.4,13.4-3.3,20.2-1.6c7.1,1.7,12.1-2.6,17.8-5.5
		c5.8-2.9,7-8.9,9.4-13.8c3.4-7,9.6-9.9,16.1-11.1c4.3-0.9,10-2.5,14,2c1.3,1.4,2.4,3.1,3.1,4.9c6.7,17.6,14.6,34.6,25.1,50.2
		c2.3,3.4,6.3,6.3,10.1,7.8c4.3,1.7,6.3,4.7,8.7,8c4.4,6.1,9.2,11.9,14.2,18.3c-7.1,3.4-5.6,8.8-3.8,14c3.6,10.5,7.6,20.8,11,31.3
		c1.2,3.7,1.2,7.7,1.7,11.6c1,8.1,1.5,16.4,3.3,24.3c0.8,3.3,4.2,6.1,6.8,8.8c15,15.7,24.2,34.2,30.4,55.1
		c4.1,13.6,0.7,25.6-1.9,38.1c-1.8,8.6,1.2,13.4,9.9,14.4c5,0.6,10,1.7,15,2.2c7.3,0.6,11.9,5.9,16.9,10.1
		c7.9,6.4,16.1,11.5,26.3,12.8c10.8,1.4,18.6,8.5,26.3,15.1c2.6,2.3,4.3,8.9,2.8,11.9c-3.5,7.2-5.2,14.5-7,22.1
		c-1.9,8-5.4,15.6-8.1,23.5c-1.5,4.4-4.8,6.2-8.9,7.4C1703.9,543.7,1698.1,545.7,1692.4,547.5z M1404.5,602.7
		c-4.6,0.8-8.9,2.1-13.3,2c-5.3-0.2-6.6,2.6-7.6,6.8c-1,4.1-3,8-3.8,12.1c-1.2,5.9-3.2,12.1-2.4,17.8c1.4,10.1,5.5,19.8,6.8,29.9
		c1,7.7,1.2,15.7-2.9,23.5c-2.9,5.6-5.9,10.4-10.8,14.1c-4.3,3.3-8.2,9.1-12.7,9.6c-8.3,0.9-17.4,3.1-25.4-3
		c-8.6-6.6-18.2-9.3-29.5-8.6c-21,1.4-42.1,2.3-63.1,1.8c-8.5-0.2-17.1-4.5-25.3-7.6c-3.1-1.2-5.1-4.9-8.2-6.6
		c-5.2-2.9-10.8-5.3-16.3-7.6c-4.1-1.7-6-4.3-6.5-8.8c-0.1-1.5-2.6-3.8-4-3.8c-3.9,0.2-8.5-2.3-11.5,2.2c-0.4,0.6,0.3,1.8,0.3,2.7
		c0,3.6,0.9,7.6-0.4,10.7c-1.6,3.9-4.7,6.4-4.9,11.8c-0.4,11-3.4,21.8-5,32.8c-0.8,5.6-0.2,10.7,5.1,14.7
		c9.1,6.8,17.6,14.3,26.5,21.2c14.6,11.4,29.2,22.7,43.9,33.9c7,5.3,13.5,11.4,22.7,12.9c1.6,0.3,3.1,2.6,4.2,4.3
		c3.5,5.5,7.3,10.9,10.2,16.7c5.4,10.7,16.1,18.4,17.3,31.4c0,0.4,0.6,0.8,0.9,1.1c6.7,6.4,13.3,13,20.3,19c4.5,3.9,9.5,7.1,9.7,14
		c0,0.9,1.5,2,2.5,2.6c8.1,4.5,16.1,9.4,24.6,13.3c23,10.5,46.2,20.4,69.3,30.7c17.3,7.7,34.5,15.5,51.7,23.5
		c7.4,3.4,13.8,2.6,20.8-1.9c7.7-4.9,16-8.8,24.3-12.7c6.8-3.2,14.1-5.2,20.7-8.7c7.3-4,14-9.1,12.1-19.2c-1-5.1,3.3-6.1,6.3-8.3
		c1.1-0.8,2.6-2.3,2.6-3.4c0-5.6,0.1-11.3-1-16.8c-1.9-9.8-5.4-18.8-16.2-22.5c-2.7-0.9-5.5-2.4-7.4-4.5
		c-8.8-10-17.1-20.4-25.8-30.5c-1.9-2.2-1.8-3.6,0.2-5.4c8.3-7.3,16.5-14.6,25-21.7c0.9-0.8,3.7-0.7,4.7,0.1
		c5.4,4.3,10.5,9.1,15.8,13.5c11.4,9.7,22.9,19.2,34.6,29c0.8-1.1,1.1-1.4,1.3-1.8c6.7-14.3,13.4-28.7,20-43.1
		c0.8-1.7,1.1-3.8,0.9-5.7c-0.8-6.8-2-13.6-2.8-20.4c-0.2-1.9-0.3-4.3,0.7-5.7c6.7-10.1,13.7-19.9,20.5-29.9
		c1.7-2.5,3.1-5.2,4.3-7.9c0.8-1.8,0.4-4.2,1.5-5.6c6.9-9.7,13.9-19.3,21-28.9c4.2-5.7,8.2-11.5,12.8-16.8
		c4.5-5.2,9.5-10.1,14.7-14.7c2.8-2.5,6.2-5.1,9.7-6c25.8-6.5,51.8-12.6,78.6-19.1c-1.5-1.4-2.4-2.8-3.7-3.4
		c-5.9-2.7-11.9-5.1-17.8-7.8c-2.5-1.1-4.5-1.1-7.1-0.2c-9,3.2-18.3,5.9-27.4,8.8c-7.1,2.3-14.1,3-21.6,0.7
		c-7.3-2.2-14.3,0-20.9,3.7c-2,1.1-4.6,2.2-6.7,1.9c-8.7-1.5-17.3-3.4-25.8-5.5c-4.7-1.2-9.1-3.9-13.9-4.6c-7.6-1.2-15.3-1.8-23-1.6
		c-13.1,0.2-25.5-3.2-38.1-5.6c-3.4-0.6-6.8-0.8-10.3-1.2c-9.2-1-18.3-2.6-27.5-2.9c-9.5-0.4-17.7-1.2-24.5-9.9
		c-8.5-10.8-18.7-20.2-28.6-29.8c-3.8-3.7-5.5-7.3-5.1-12.6c0.4-6.4-1.4-11.9-6.6-16.5c-14.8-13-29.2-26.4-43.8-39.5
		c-3.5-3.1-7.2-5.9-10.2-8.4c-1.5,7-3,13.6-4.1,20.3c-0.4,2.5-0.1,5.4,0.8,7.7c8.1,19.2,16.4,38.3,24.6,57.5
		c2.2,5.1,3.6,10.2-1.2,14.7C1408.8,614.5,1407.8,613.5,1404.5,602.7z M1740.9,639.9c-7.2-12.2-14.9-23.5-27-30.9
		c-10.1-6.3-15.1-15.9-17-27.4c-0.8-4.6-1.9-8.5-6.3-11.9c-7.2-5.6-10.2-14-8.5-23.4c0.4-1.9,2.2-4.3,4-5.2
		c5.7-2.7,11.6-5.1,17.6-7.1c3.7-1.3,6.9-2.7,8.2-6.7c2-6.2,4.5-12.3,6-18.5c1.7-7.1,1.6-14.6,6.4-20.8c0.7-0.9-0.2-4.3-1.4-5.4
		c-6.3-5.4-12.8-10.5-21.5-11.7c-3.5-0.5-7.3-1-10.4-2.6c-6-3.2-11.5-7.2-17.2-11c-3.9-2.6-7.3-6.6-11.5-8c-6.3-2-13.2-2.1-19.8-3.4
		c-3.6-0.7-8.5-1.4-10.1-3.8c-4.2-6.4-8.2-13.1-5.2-21.9c2.6-7.5,5.2-15.8,4.3-23.4c-1.3-10.5-5-20.9-9.2-30.7
		c-5.2-12.1-13.4-22.5-22.6-32c-2.9-3-6.5-6.4-7.4-10.2c-1.9-8.6-2.3-17.5-3.3-26.3c-0.4-3.2-0.6-6.6-1.6-9.7
		c-4-12.4-8.3-24.6-12.4-37c-0.4-1.1-1.1-2.5-0.8-3.2c2.1-4.4,0.6-8.1-2.4-11.1c-4.7-4.8-6.6-12.1-13.8-14.8
		c-3.5-1.3-7.1-3.7-9.2-6.7c-11.8-16.4-20.1-34.7-27.9-53.3c-0.6-1.3-3.3-3-4.1-2.7c-3.3,1.5-7.1,3.1-9.1,5.8
		c-3.6,5.1-6,11.1-8.9,16.7c1.2,2.2,2.7,4.9,4.2,7.5c3.7,6.5,6.8,13.5,11.4,19.4c4.6,5.8,5.7,11.9,5.3,18.7c-0.2,3.9-1.3,8-0.6,11.8
		c1.8,10.1-1,19-5.2,27.8c-3.4,7.2-7.6,14.2-9.6,21.7c-2.5,9.3-5.3,18.2-12.6,24.7c-4,3.5-3.9,7.6-3.8,12.1c0.1,4.4,0,8.9,0,13.5
		c-1.8,0-3,0.1-4.2,0c-8.5-1-9-0.2-13.5,6.9c-2.8,4.4-7.5,7.4-10.9,11.5c-3.1,3.6-6.4,7.4-8.2,11.7c-2.4,5.8-3.1,12.3-5.4,18.1
		c-2.8,7.2-10.9,9.3-17.2,5c-2-1.3-4.1-2.6-7.2-4.5c3.4,7.7,6.4,14,9,20.4c1.4,3.3,1.8,6.9,3.3,10.1c2.9,6.4,6.5,12.4,9.2,18.8
		c3.1,7.2,6.3,13.7,13.8,17.7c4.4,2.4,8.4,6.5,7.9,12.8c-0.6,6.6,0.7,13.7-4,19.1c-4.8,5.4-3.4,11-2.9,17.1
		c0.4,5.9,2.6,12.1-1.7,17.7c-5.2,6.5-6.5,14.3-5.7,22.2c0.3,3.5,0.5,6.6-1.1,9.8c-0.4,0.8,0.5,2.6,1.3,3.5c4,4.2,8,8.6,12.4,12.3
		c4.1,3.5,5,7.8,5.2,12.6c0.1,2.5-0.2,5,0.1,7.5c0.1,1.3,0.7,2.9,1.6,3.9c12.2,12.7,24.5,25.3,36.9,37.9c1,1,2.4,1.8,3.7,2
		c11.2,1.4,22.4,2.8,33.6,4c16.8,1.8,33.7,3.6,50.5,5c14.1,1.1,28.2,1.4,41.9,6c7.1,2.3,14.6,3.4,21.9,5.1c4.8,1.1,9.1,1.3,14.1-1.2
		c4.4-2.2,10.3-1.6,15.6-1.7c5.1,0,10.6,2.1,15.4,1C1715.9,648,1728.2,643.8,1740.9,639.9z M1874.5,907c-2.8,0-5.7,0-8.5,0
		c-8.5,0-8.5,0-11.1-8.1c-1.1-3.2-2.3-6.5-3.3-9.7c-0.4-1.2-1.1-3-0.5-3.8c5.6-8.8,4.5-17.4,1.2-26.9c-2.3-6.7-2.7-13.9-7-20
		c-1.8-2.6-3.8-5.7-4.1-8.7c-0.8-8.5-0.3-17.2-1.4-25.8c-0.7-5.7-2.3-11.6-5.1-16.5c-4.5-7.9-10.6-14.9-15.7-22.5
		c-9.3-13.9-16.1-29.1-22-44.6c-2.2-5.7-4.6-11.5-5.9-17.5c-1.8-8.8-2.5-17.8-4.2-26.6c-0.5-2.5-2.3-5-4.1-6.8
		c-3.5-3.4-7.4-6.5-11.4-9.4c-1.4-1-3.6-2.1-5.1-1.7c-23.5,5.4-46.9,11-70.3,16.7c-4.8,1.2-10.5,2.2-13.7,5.5
		c-7.2,7.3-13.1,15.9-19.4,24.1c-0.8,1-1.1,2.9-0.9,4.2c0.8,4.6,2,9.2,2.9,13.8c1.9,10.1,2.9,20.4,5.7,30.2
		c4.4,15.7,7.5,31.5,7.4,47.9c0,6.6,0.5,13.2,1,19.8c0.3,4.2,0.5,8.6,1.8,12.6c2.3,7,5.5,13.7,8,20.7c4.2,11.6,8.2,23.3,12.1,35.1
		c2.8,8.1,4.4,16.8,8.4,24.3c3.5,6.7,2.5,12.3-0.9,17.4c-12,17.7-18.3,37.7-24.6,57.8c-0.3,0.9-0.1,2.1,0,3.1
		c0.7,6.5,1.9,13,2.1,19.6c0.2,7-2.3,10.3-6.3,10.9c-7.9,1-14.1,4.5-18,11.8c-1.3,2.4-3.2,4.5-4.7,6.9c-0.9,1.5-1.8,3.2-1.8,4.8
		c-0.1,19.3-0.2,38.7,0.1,58c0,1.9,1.5,4.4,3,5.4c11.4,7.8,23.1,15.4,34.7,23c20.9,13.7,41.7,27.3,62.7,40.9
		c0.7,0.5,1.9,0.3,2.9,0.3c8.3,0.1,14.7-4.2,21.5-8.3c5.5-3.4,10.4-8.9,18-8c0.9,0.1,2.8-1.2,2.9-2.1c2-11.6,5-23.1,1.6-35
		c-1.2-4.1-2.2-8.3-2.3-12.5c-0.2-10-2.9-19.3-6.6-28.5c-1.9-4.7-3.6-9.3-2.8-15c1-6.2,3.3-13-1.6-19.1c-0.6-0.7,0.1-2.9,0.7-4.2
		c2.6-5.4,5.2-10.8,8.2-15.9c6.4-10.9,12.9-21.8,22.7-30.2c5-4.3,9.5-9.1,14-13.9c5.3-5.6,10.6-11.3,11.2-19.5
		c0.5-6.4,0.9-12.9,1-19.3c0.1-5.6,1.2-9.9,7.4-12C1865,926.2,1872.7,919.4,1874.5,907z M1069.9,345.5c-0.5,0.6-1,1.2-1.4,1.9
		c1.9,1.4,3.5,3.4,5.6,4c7.7,2.4,8.1,8.8,8.9,15.1c0.4,3.6-0.7,8.1,1.2,10.5c1.8,2.3,6.4,2.4,9.8,3.5c0.6,0.2,1.2,0.4,1.9,0.6
		c20.8,6,41.6,12,62.4,17.9c26.5,7.4,53.1,14.4,79.4,22.2c23.9,7,47.6,14.7,71.2,22.4c3.7,1.2,7.3,3.6,10.2,6.2
		c5.1,4.6,9.6,9.9,14.2,14.6c2.5-3.7,4.4-6.5,6.3-9.2c0.8-1.1,2.3-2.1,2.4-3.3c1.1-9.9,2.5-19.9,2.8-29.8c0.2-5,2-8.7,4.9-12.4
		c1.8-2.3,3.3-4.9,4.1-7.6c1.1-3.7,1.6-7.7,2.1-11.5c0.6-4.3-3.8-12.6-6.6-14.5c-4.5-3-9.1-6.2-12.7-10.1c-3.6-3.9-6.5-8.7-8.6-13.6
		c-2.1-4.8-4.2-10.4-3.6-15.3c0.9-7.8,4.2-15.3,6.1-23c1.8-7.5,3.6-14.9,1.6-22.8c-2-7.9-4-15.8-5.3-23.8
		c-1.1-6.9-5.8-9.4-11.5-11.3c-2.7-0.9-5.9-1.5-8-3.3c-10.7-9-16.3-20.5-15.3-34.8c0.4-5.3,0.1-10.6,1.1-15.8
		c1.1-5.6,2.9-11.2,5.2-16.5c2.3-5.3,12.1-7.8,16.2-0.5c0.9,1.6,1.7,3.2,2.8,4.6c2.3,3.2,4.3,3.1,6.9-0.1c1.7-2.1,3.6-4.1,5.6-5.9
		c4.9-4.4,9.9-8.6,15.2-13.3c-3.1-0.8-5.9-0.9-8.2-2.1c-7.8-4-15.7-7.4-24.4-9.4c-6.1-1.4-11.8-5.1-17.4-8.4
		c-7.6-4.4-9.3-4.3-14.1,3c-0.5,0.7-1.3,1.2-1.6,1.9c-1.8,5.5-4.8,9.3-11.3,8.8c-0.6-0.1-1.3,0.9-2,1.3c-5.7,2.9-11.5,5.8-17.2,8.7
		c-2.7,1.3-5.5,2.5-8.2,3.8c-2.4,1.2-5,3.9-7.1,3.6c-3.4-0.5-4.5-4.1-4.6-7.6c-0.2-6-0.2-12-1.2-17.8c-0.8-4.6-2.7-9-4.6-13.3
		c-2-4.3-4.6-8.2-7.1-12.6c-0.6,1.1-1.1,1.9-1.6,2.8c-3.6,6.6-5,7.2-12.3,6.1c-2.7-0.4-5.5-1.1-8.3-0.9c-4.4,0.3-8.8,1-13.1,1.9
		c-1.4,0.3-3.4,1.6-3.7,2.8c-1.4,5.4-2.2,10.9-3.2,16.3c-0.7,3.8-3,6.3-6.8,6.7c-3.6,0.3-7.3,0.1-11.4,0.1c0.4,1.5,0.9,3.2,1.1,4.9
		c0.2,2,0.1,4,0.1,6c0,6-3.8,8.5-8.9,5.6c-15.7-9.1-33.3-15.5-45.1-30.7c-2.1-2.8-6.1-4.2-9.1-6.2c-0.4,0.4-0.8,0.8-1.2,1.2
		c2.5,7,4.3,14.4,7.9,20.8c2.7,4.8,3.9,9.7,4.4,14.8c0.6,6.3-0.8,7.6-7.2,8.7c-2.2,0.4-4.4,1-7.6,1.7c4.5,4.2,8.7,8.2,7.9,14.4
		c-0.6,4.8-4.6,6.1-14.6,5.1c-0.1,0.5-0.3,0.9-0.3,1.4c-1.4,12.4-2.9,24.8-3.9,37.2c-0.4,4.6-4.7,8.5-2.1,13.5
		c1.3,2.4,2.6,4.9,3.9,7.3c6.6,11.9,6.8,25.4,9,38.3c1,5.6,2.9,10,8.6,12.3c2.1,0.9,4.2,2.8,5.4,4.7c5,8.5,2.4,18-5.7,24
		c-5.2,3.9-10.2,3.5-15.6,0.8C1078.4,349.7,1074.1,347.6,1069.9,345.5z M1116,833.5c6.3,5.5,9.2,13.9,10.3,23.6
		c0.6,5.5-0.8,8.3-5,11.3c-8.1,5.8-15.8,12.2-23.7,18.4c-3.9,3.1-7.4,7.2-11.8,9c-10.7,4.4-15.3,11.7-13.9,23c0.2,1.5,0.2,3,0,4.5
		c-1.1,6.4,2.3,11.1,6.3,15.3c6.9,7.2,16.4,9.2,25.6,11.2c12.6,2.8,13.6,3.4,11.2,15.7c-1.7,8.9-1.5,18.9-12.6,22.9
		c-0.8,0.3-1.3,2.6-1.3,3.9c0.2,5.8,0.3,11.5,1,17.3c1.4,12.2-5.7,19.3-15,24.8c-8.2,4.9-14.1,11.5-17.1,20.7
		c-1.4,4.3,0,7.4,3.5,9.9c10.2,7.5,21.8,11.2,34.3,10.8c11.6-0.4,23.3-1.7,34.9-2.9c14.2-1.5,26,5,37.9,11.1
		c2.3,1.2,4.7,3.8,6.7,3.5c5.4-0.8,10.7-2.4,15.9-4.3c4.7-1.7,9-5.2,13.8-6c8.4-1.5,17-2.2,25.5-2.1c9.4,0.2,18.7,1.5,27.9-1.2
		c2.3-0.7,5.4-1.7,6.5-3.6c2.8-4.8,6.8-5.8,11.7-5.4c2,0.2,4,0,4.8,0c2.6-3.8,4.2-7.7,7-9.8c3.2-2.3,7.6-2.8,11.3-4.3
		c9.4-3.8,19.7-4.2,29-9.5c14.6-8.4,15.4-16.4,13.1-26.5c-0.3-1.1-1.6-2.6-2.6-2.8c-6.1-1.2-12.2-2.1-18.3-3.1
		c-6.9-1.1-8.6-2.5-9.1-8.7c-0.3-4.2,0.3-8.5,0.3-12.8c0-1.7-0.2-3.8-1.2-5c-9.3-11-7-17.7-1.4-25.6c4.4-6.2,6.7-12.5,4.6-20.2
		c-0.5-1.9,0-4.3,0.7-6.2c1.9-4.6,4.2-9,6.5-13.8c-2.8-1.6-5.9-3.3-9-5.1c-4.3-2.4-9.1-4.3-9.4-10.5c-0.1-1.3-1-2.8-2-3.7
		c-7-6.5-14.3-12.8-21.2-19.4c-3-2.9-5.4-6.5-7.7-10c-1.5-2.4-2-5.5-3.5-7.9c-5.2-8.7-10.3-17.4-16-25.8
		c-4.9-7.1-7.8-16.9-19.2-16.9c-1.6,0-3.2-2.2-4.7-3.4c-7.3-5.8-14.7-11.5-22-17.3c-10.5-8.4-21-16.8-31.5-25.2
		c-9.8-7.9-19.6-15.9-30.1-24.4c-0.4,1.8-0.8,3.1-0.9,4.4c-0.2,6.9,0.1,13.8-0.5,20.7c-0.2,2.8-1.6,6-3.4,8.2
		c-1.9,2.3-5.1,3.4-7.5,5.4c-1.1,0.9-1.7,2.7-1.9,4.2c-0.3,1.9-0.1,4-0.1,6c0.1,10.1-0.4,10.8-10,12.7c-0.8,0.2-1.7,0-2.5,0.1
		c-3.7,0.4-11.1,8.6-11.6,12.1C1118.4,824.9,1117.2,828.5,1116,833.5z M1353.4,115.5c0.6,3.9,1.1,7.5,1.6,11c0.9,7,2,13.9,2.7,20.9
		c0.6,6.4,1.1,12.8,1.2,19.2c0.1,3.9-3.1,4.8-6.4,5.1c-1.6,0.1-3.6,0-4.7,0.9c-7.3,6.3-14.5,12.7-21.4,19.5c-3.5,3.5-8,3.8-11-0.3
		c-1.2-1.6-2-3.5-3.4-4.8c-1.6-1.4-3.6-2.8-5.5-3c-5.5-0.5-7,4.3-8.3,8c-1.5,4.6-1.7,9.6-2.5,14.4c-1.5,9.2-1.8,18.7,1.6,27.3
		c3.1,8.1,7.5,16.5,17.2,18.8c9.2,2.2,15.5,6.4,15.6,16.8c0,0.6,0.5,1.2,0.6,1.9c1.8,8.4,4.4,16.8,5.1,25.3
		c1,11.6-3.8,22.4-6.9,33.4c-1.7,5.9-3.3,11.7,0.1,17.5c1.4,2.4,2.6,4.9,4,7.3c4,6.7,7.6,14.3,15.1,17.3c6.2,2.5,8.6,6.8,9.8,12.2
		c0.8,3.5,0.7,7.4,0,11c-1.1,6.2-1.1,12.8-6.9,17.3c-1.6,1.3-2.7,3.9-2.9,6c-0.9,9.5-1.3,19.1-2.2,28.6c-0.4,3.9-1.7,7.6-2.6,11.5
		c-0.6,0.2-1.2,0.5-1.8,0.7c11.4,10.6,22.7,21.3,34.3,31.7c13.2,11.9,26.8,23.4,40.1,35.2c9.9,8.7,19.6,17.7,30.5,27.6
		c0.3-3.8,0.3-6.4,0.6-8.9c0.9-7.1,0-15.4,3.5-21c4.8-7.6,4.5-14.5,3.6-22.4c-0.5-4.4-1-10.4,1.4-13.1c5.4-6.1,5.1-12.7,5.5-19.8
		c0.4-6.3-3-9.3-7.4-12.7c-4.2-3.3-8-7.7-10.7-12.3c-4.3-7.3-7.5-15.2-11.1-22.8c-1.2-2.6-2-5.4-3.1-8c-2.1-5.1-4.4-10.1-6.6-15.2
		c-2-4.6-4.7-9.1-4.1-15.5c4.5,2.8,8.2,5,11.9,7.4c4.5,2.9,8.2,2.8,11.2-1.7c2.6-4,4.6-8.7,5.5-13.4c1.7-9.2,5.4-16.7,13.7-21.8
		c3-1.8,5-5.4,7.3-8.3c1.7-2.1,2.6-5.3,4.7-6.4c3.6-1.9,7.8-2.5,12.5-3.9c0-0.8,0.3-2.9,0-5c-1.4-9.1,1.4-16.3,8.5-22.3
		c2.2-1.8,3.5-5,4.5-7.8c4-11.5,6.3-23.5,13.2-33.9c4.6-6.9,6-15.1,5.6-23.5c-0.2-4.6-0.5-9.2-0.7-13.8c-0.1-2.4,0.8-5,0-7.1
		c-1.7-4.5-3.9-8.7-6.2-12.9c-4.7-8.6-9.6-17-14.1-24.9c-5.7,2.4-11.2,5.8-17.1,6.8c-6,1-12.3-0.4-19.2-0.7c0.4-0.4,0.1-0.2-0.1,0.1
		c-5.4,9.2-11.1,9.2-16.6,0.3c-3.4-5.6-7.1-11.2-13.9-13.4c-2.8-0.9-5.7-1.9-8-3.5c-7.4-5.1-14.3-10.9-21.9-15.6
		c-9.8-6-18.4-13.1-24.6-22.9c-2.9-4.5-5.4-9.4-8.5-13.7C1361.3,113.7,1359.7,113.3,1353.4,115.5z M1652,1104c0-2.5,0-4.2,0-6
		c0-16,0.1-32,0-48c-0.1-5.7-0.4-11.3,5.3-15c1.3-0.8,2-2.6,2.7-4c3.7-7.7,10.6-10.4,18.2-12.2c1.4-0.3,3.5-1.8,3.6-2.9
		c0.5-4.5,0.6-9.1,0.4-13.6c-0.3-4.7-2.9-9.9-1.6-13.9c6.3-19.5,12.1-39.2,23.7-56.6c2.6-3.9,4.5-9.5,3.9-14
		c-0.8-6.1-4.3-11.8-6.4-17.8c-6.6-18.7-13.1-37.4-19.7-56.1c-0.2-0.7-0.5-1.9-1-2c-5.7-1.4-11.2-5.3-17.2-2.4
		c-13.6,6.7-27.2,13.5-40.5,20.8c-4.3,2.4-7.5,6.6-11.3,9.9c-2.1,1.9-4.2,3.7-6.3,5.6c-5.6,5.3-11.3,10.5-16.3,15.3
		c5.1,4.9,9.9,9.6,14.8,14.3c-4.7,7-11.7,9.2-18.7,11.6c-8.7,3-8.7,3.2-14.3-3.6c-2.9-3.5-6.8-6.3-10.9-4c-2.1,1.2-3.1,5.7-3.2,8.7
		c-0.2,3.6-1.1,6-4.5,7.3c-3.8,1.5-5.3,4.3-4.7,8.2c0.9,5.7-1.6,9.9-5.8,13.3c-2.6,2.1-5.4,4.3-8.5,5.7c-11,5.2-22.2,10.1-33.3,15.3
		c-8.1,3.8-15,10.2-25.2,11.4c6.2,11.5,6,23.5,5.7,35.5c-0.1,2.8-0.8,5.5-0.9,8.3c-0.4,8.8-2.1,17.1-7.4,24.4
		c-1.4,1.9-1.3,3.3,0.6,4.9c3.8,3.2,7.5,6.5,11,10c1.8,1.8,2.7,5,4.7,6c5.1,2.4,7.9,6.5,10.6,11c0.7,1.1,2.8,2,4.1,1.9
		c3.4-0.2,6.9-2,10.1-1.4c7.5,1.4,14.9,3.5,22.1,5.8c2.8,0.9,5.9,2.7,7.5,5c8.1,11.6,16.6,22.5,27.6,31.7c4.3,3.6,6.5,9.7,9.9,14.4
		c10.6,14.9,23.3,28.3,31.4,44.8c0.1,0.1,0.3,0.1,0.6,0.2c0.4-2.4,0.7-4.8,1.2-7.2c1.7-9.1,1.8-18.6,8.4-26.2
		c1.3-1.5,1.9-3.8,2.6-5.7c4.1-12.2,7.8-24.5,12.2-36.5c2.9-8,4.1-8.1,11.7-3.8C1649.4,1103.3,1650.1,1103.4,1652,1104z
		 M923.1,493.7c-1.6,3-2.7,5.7-4.4,7.9c-5.2,6.8-10.4,13.5-16,19.9c-2.9,3.4-3.2,6.2-0.3,9.4c3,3.3,6.2,6.4,8.9,10
		c4.6,6.3,9.6,12.3,10.7,20.5c1.4,10.3,3.1,20.6,5.1,30.9c1.3,6.8,0.9,8.9-5.6,10.5c-8.7,2.1-17.6,3.2-26.3,5.2
		c-7.2,1.7-13.6,0.8-19.9-2.8c-1.6-0.9-3.8-1.2-5.7-1.2c-20.7-0.7-41.4-1.4-62.1-2c-16.3-0.4-32.5-0.7-48.8-1c-0.8,0-1.7,0-2.5-0.1
		c-8.9-0.5-17.7-0.9-27.2-1.4c4.2,10.9,8,20.9,11.9,30.9c9,23.2,18,46.4,27,69.6c1.9,4.9,9,7.5,13.6,4.9c3.7-2.1,7.3-4.4,10.6-6.9
		c5-3.8,9.6-8.2,16.3-9.4c3.8-0.7,7.2-1.6,10.5,1.7c2.5,2.5,5.8,4.3,8.4,6.7c3,2.7,6,5.5,8.3,8.8c2,2.9,2.9,6.5,4.5,9.7
		c1.7,3.5,3.4,6.9,1.8,11.1c-1.9,5.1,0.2,9.7,2.8,14.2c3.4,5.9,6.8,12,9.6,18.2c2,4.6,4.2,9.6,4.4,14.5c0.4,6.8,3.9,12.6,10.4,15.5
		c5.7,2.5,11.2,5.9,16.5,9.2c3.2,1.9,10.7,0.1,12.3-3.4c6.9-15,11.3-30.8,16.1-46.5c4.1-13.3,6.4-27.2,14.6-39.1
		c5.5-8,15.2-10,22-2.9c7.8,8.1,18.4,9.3,27.9,13.3c0.7,0.3,1.8-0.4,2.8-0.6c6.7-1.4,13.4-2.7,20.1-4.3c2.6-0.6,5.1-1.7,7.7-2.5
		c-0.1-0.6-0.3-1.2-0.4-1.8c9,4.6,16.9,0.6,24.8-2.9c1-0.4,2.3-1.8,2.2-2.7c-0.7-6.9,3.3-11.8,6.7-17c2-3,2.7-5.8,0.9-9.4
		c-2-4.1-3.2-8.5-4.4-12.9c-3-10.6-5.8-21.3-8.7-32c-1-3.8-3.4-7.8-2.7-11.3c1.1-5.4-0.8-8.1-4.6-11c-7.2-5.7-14.3-11.4-24.2-11.7
		c-1.8-0.1-4-2-5.2-3.7c-14.3-20.4-28.6-40.9-42.8-61.5C941.6,521.1,932.5,507.5,923.1,493.7z M1233.8,648.2c3.3-1.9,5.7-3.2,8-4.7
		c5.9-3.8,6.8-3.2,10.9,2.4c2.4,3.3,6.6,5.4,10.1,7.8c0.5,0.3,2.2-0.5,2.9-1.2c4.9-4.2,4.5-9.8,3.8-15.4c-0.5-4.2-1.1-8.4-1.6-12.7
		c-0.7-6.5-1.3-13.1-2-19.6c-0.3-3.1,0.1-5.2,4.1-5.1c3.3,0.1,6.5-0.4,9.8-0.9c4.4-0.7,7.8-0.8,11.9,2.8c6.2,5.5,14,9.2,21.8,14.1
		c0.6-2.7,1.2-4.4,1.4-6.1c0.4-5.6,0.9-11.2,1-16.8c0.1-3.3-0.1-6.7-1-9.8c-1.1-3.8-4-7.2-4.7-11.1c-2.5-12.9-2.5-25.5,7.8-35.8
		c2.3-2.3,4.4-5,5.7-7.9c5.9-14,10.9-28.1,11.7-43.7c0.4-8.7-1.2-15.3-7.3-21.1c-4.4-4.1-8.4-8.6-12.8-12.6
		c-1.9-1.7-4.2-3.2-6.6-3.9c-26.3-8.5-52.6-17.1-79.1-25c-24.6-7.4-49.4-14.1-74.2-21c-14.6-4.1-29.3-8-45.1-12.3
		c1.8,7.3,3.2,13.7,5.1,20.1c3.7,12.5,9.3,24.6,11,37.4c2,14.6,8.3,26.5,15.6,38.5c3.8,6.3,7.1,13.4,5.7,20.9
		c-1.6,8.5-0.2,15.9,3.6,23.7c3.1,6.4,5.3,13.5-1,20.2c-2.2,2.3-3.4,1.9-4.3-0.3c-2.3-5.4-6.5-8.1-11.7-10.1
		c-4.5-1.8-10.8,0.9-12.6,5.5c-2.8,7.1-5.9,14.1-8.6,21.2c-0.5,1.3,0,3.2,0.7,4.6c1.5,3.2,4.4,6,5,9.2c1.2,6.7,8.8,16.5,15.3,18.4
		c6.1,1.7,12.2,3.4,18.3,5.2c6.5,1.9,12.9,5.6,19.3-0.1c0.9-0.8,2.5-0.7,3.7-1.1c3.7-1.1,7.6-1.9,11.2-3.3c5-2,8.6-0.8,11.3,3.9
		c5.3,9.3,10.8,18.5,16.2,27.8c1.5,2.5,3.5,3.3,6.5,2.7c3.2-0.7,6.5-0.7,9.7-1.1c3.4-0.4,5.1,0.9,4.7,4.5
		C1234.6,640,1234.3,643.6,1233.8,648.2z M1008.8,597.9c6.3,4.4,12,8.3,17.6,12.3c3.1,2.2,5,4.9,4.7,9.2c-0.2,3.2,0.6,6.5,1.4,9.6
		c1.3,4.9,3.1,9.6,4.4,14.4c3.1,11.1,5.5,22.4,9.2,33.3c2,5.9,0.6,10.2-2.3,15c-2,3.4-4.7,7.3-4.6,11c0.2,5.8-3,7.8-7.1,9.2
		c-6.9,2.4-13.7,5.8-21.7,3.8c8.1,5.1,16.2,9.8,24.8,13.3c7.3,3,15.1,5.2,22.8,6.9c12.7,2.8,26,3.6,38.3,7.5
		c9.4,3,17.9,9.3,26.6,14.4c1.3,0.7,2,2.6,2.8,4c4.6,7.9,9.2,15.9,13.9,24.2c1.7-1.1,2.3-1.4,2.8-1.8c4-3.4,10.2-4.7,10.4-11.7
		c0.3-9.7-0.2-19.3,1.6-29.1c2.9-15.3,3.6-31,5.4-46.5c0.1-1.1,1.1-2.3,1.9-3.2c3.4-3.8,5.8-8.1,3.6-13.2c-2.3-5.3,1.9-9.3,7.7-9.4
		c3.1-0.1,6.3,0,8.8,0c1.3-3,1.9-5.9,3.6-7.8c8.7-10,17.6-19.7,26.5-29.6c-0.4-0.7-0.6-1.3-0.9-1.9c-5.5-9.4-10.9-18.9-16.6-28.1
		c-1-1.6-3.7-3.6-4.9-3.1c-7.5,2.5-14.7,5.7-22.1,8.5c-1.5,0.6-3.4,0.8-4.9,0.4c-9.9-2.6-19.8-5.3-29.6-8.3
		c-8.6-2.7-13.6-10-16.6-17.5c-1.7-4.2-3.4-8.2-5.6-12.1c-0.9-1.7-1.5-4.3-0.9-6.1c2.7-7.5,5.9-14.8,8.8-22.2
		c2.2-5.6,11.1-9.7,16.2-6.9c4.9,2.7,9.4,6.2,14.5,9.6c0.2-0.7,1.6-2.8,1.2-4.5c-0.9-4.7-2.6-9.3-3.8-14c-1.2-4.6-2.5-9.2-3-13.9
		c-0.6-5.6,0.7-11.6-0.7-16.9c-1.7-6.3-5.5-12-8.5-17.9c-2.8-5.6-6.6-11-8.5-16.9c-2.5-7.9-3.3-16.3-5.5-24.2
		c-4-14.6-9-28.9-12.4-43.6c-1.2-5.1-3-6.9-7.7-7.8c-4.6-0.9-9-2.6-14.3-4.3c0.6,1.6,0.7,2.1,1,2.5c5.9,9.1,8,19.1,7.6,30
		c-0.3,6,0.7,12.1,1.5,18.2c0.9,7.1,2.2,14.2,3.4,21.2c0.3,1.7,0.6,3.6,1.3,5.2c3.3,7.2,5.3,15.2,3.4,22.5
		c-4.5,17.3-10.6,34.3-21.3,49c-10.6,14.6-21.5,29-32.5,43.7c2.4,1.2,4.2,2.3,6.1,3.1c3.2,1.4,6.6,3.6,5.6,7c-0.8,2.5-4.2,5.1-7,5.8
		C1040.3,593.8,1025.2,599,1008.8,597.9z M1329.6,1121.7c1.6-0.8,4-2.3,6.6-3.2c9.2-3.4,18.6-6.9,28.7-5.3c10.1,1.6,20,4.4,30.2,5.8
		c12.8,1.8,25.8,2.9,38.7,4c13,1.1,23.9-5.6,35.3-10.3c5.6-2.3,10.2-5.4,13.7-10.1c4.8-6.5,9.2-13.2,14.3-20.6
		c-1.6-3.7-4.1-8.8-10.2-10.7c-0.6-0.2-1.4-0.5-1.6-1c-2.7-7.7-9.8-11.2-15.3-16.2c-1.1-1-1.4-3.9-0.8-5.4c1.7-4.5,4.8-8.6,6-13.2
		c3.7-14.5,4.5-29.4,1.5-44c-1.1-5.2-1.7-11.9-8.4-14.5c-4.2-1.7-8.3-3.8-12.5-5.7c-23.8-10.6-47.7-21.1-71.5-31.7
		c-14.9-6.6-29.8-13.2-44.7-19.7c-1-0.4-3.1-0.5-3.4,0c-3.3,5.5-7.8,10.8-6.5,17.8c1.4,7.4-0.1,14-4.5,19.8
		c-6.5,8.7-6.7,12.9-0.3,21.8c2.1,3,4.2,5.6,2.6,10.2c-1.3,3.6-0.6,7.9-0.1,11.9c0.2,1.3,2.1,3.2,3.5,3.6c7,1.6,14.1,2.6,21.1,4.2
		c1.9,0.4,4.6,1.7,5,3.1c2.4,9.6,2.2,23.5-10.1,28.7c-6.7,2.8-12.9,6.9-19.6,9.4c-8.2,3.1-16.9,4.6-25,8c-2.3,1-4.8,6.3-4.1,8.7
		c1.9,6.3,5.2,12.3,8.6,18C1314,1097.3,1321.8,1109.3,1329.6,1121.7z M1232.1,635c-6.6,0.4-12.3,0.7-18,1.2c-0.8,0.1-1.7,1-2.3,1.7
		c-7.8,9.1-15.5,18.3-23.5,27.3c-4.2,4.7-1.8,9.6-1.1,14.4c0.2,1,0.9,2.3,1.7,2.7c5.3,3,10.6,5.8,15.9,8.6c2.5,1.3,5.6,2.2,7.5,4.1
		c7.5,7.7,17.4,10.2,27.1,10.6c13.3,0.6,26.7-1.2,40.1-1.6c9.8-0.3,19.7,0.4,29.5-0.2c8.3-0.5,15.5,1.3,22,6.6c7,5.8,16,8,23.7,5
		c7.5-2.9,15.2-8.7,19.8-15.3c7.9-11.3,9.5-24.6,5.1-38.4c-2.7-8.5-5.7-17.7-5.1-26.3c0.8-10.5,5.4-20.6,8.4-30.9
		c0.3-1,1.6-2.2,2.6-2.4c5.8-0.9,11.7-1.4,17.6-2.1c2.7-0.3,4.2,0.6,4.9,3.4c2,7.9,7.9,11.5,16,14c0-2.1,0.4-3.8-0.1-5.3
		c-1.9-6.2-3.6-12.5-6.2-18.5c-6.4-14.8-13.5-29.3-19.7-44.2c-1.4-3.2-0.3-7.6,0-11.4c0.3-3.2,1.4-6.3,1.9-9.5
		c1.2-7.8-0.7-13.9-7.7-19.1c-8.3-6.2-15.5-13.9-23.2-20.8c-10.1-9.1-20.2-18.2-30.2-27.2c-0.7,1.9-3.4,5.7-2.4,7.7
		c2.8,6.1,2.6,11.9,1.7,18.2c-1.1,8.4-1.1,17-4.7,24.9c-3.7,8-7.1,16.1-11.1,23.9c-2.1,4-6,7.1-7.8,11.2c-4.3,10-3.3,19.8,1.6,29.6
		c2.3,4.6,4.7,9.5,3.1,15.3c-1.1,4.1-0.8,8.5-1.2,12.7c-0.5,4.7-1.1,9.3-1.7,14c-1.7,0-2.7,0.3-3.3,0c-6.4-3.8-12.9-7.7-19.2-11.7
		c-2.8-1.8-5.4-5.5-8.2-5.7c-5.4-0.3-10.9,1.3-16.2,2.2c0.2,1.4,0.6,2.8,0.7,4.2c0.7,8,1.5,16.1,1.9,24.1c0.3,5.7,0.5,11.4-0.1,17
		c-0.4,4.1-7.1,9.3-9.8,7.7c-4.6-2.6-10.6-3.5-12.2-10c-0.7-2.7-2.9-3.1-5.4-1.5c-2.6,1.7-5.3,3.3-8.1,4.7c-3.4,1.7-5.3,0.7-5.2-3.1
		C1231.1,643.1,1231.7,639.3,1232.1,635z M1677.9,837.7c-0.3-4-0.7-7.8-0.9-11.6c-1-13.3-1.7-26.6-3-39.9
		c-0.8-7.8-2.1-15.5-3.9-23.1c-2.5-10.2-5.9-20.2-8.5-30.4c-1.7-6.6-2.5-13.5-4-21.4c-8.4,12.1-16.1,23.2-23.8,34.3
		c-7.2,10.3-14.5,20.5-21.5,31c-2.5,3.7-5,7.7-5.9,12c-0.8,3.6,0.9,7.7,1.3,11.6c1,7.8,2.5,15.3-2.4,22.7
		c-4.2,6.4-6.9,13.7-10.1,20.7c-3.1,6.8-6.1,13.6-9.4,21c-21.1-12.1-37.2-29.4-54.9-44.9c-8.3,7.6-16.5,15-24.8,22.6
		c2,2.4,3.8,4.5,5.7,6.6c6.1,6.9,12.6,13.4,18.3,20.6c3.4,4.3,7,7.6,12,9.8c5.7,2.6,9.3,7.1,11.1,13c1.5,4.9,2.9,9.7,4.4,14.6
		c6.4-2.5,11.7-0.9,16.8,5.4c1.3,1.6,3.6,4.1,4.6,3.8c7.4-2.5,15.5-3.9,22.1-10.8c-4.7-3.4-8.9-6.7-13.5-9.5
		c-4.2-2.6-4.7-3.4-1.1-6.8c7.1-6.6,14.6-12.9,21.6-19.7c7.3-7.2,15.2-13.2,24.4-17.6c6.6-3.2,12.9-7.1,19.3-10.7
		c7.6-4.3,15.3-8.4,24.4-4.1C1676.8,837.4,1677.7,837.6,1677.9,837.7z"/>
	<path id="_x31_078" class="st0" d="M1404.5,602.7c3.2,10.8,4.3,11.7,19.9,18.2c4.7-4.6,3.4-9.7,1.2-14.7
		c-8.2-19.2-16.5-38.3-24.6-57.5c-1-2.3-1.2-5.2-0.8-7.7c1.1-6.7,2.7-13.3,4.1-20.3c3.1,2.5,6.8,5.3,10.2,8.4
		c14.6,13.2,29,26.6,43.8,39.5c5.3,4.6,7.1,10.1,6.6,16.5c-0.4,5.2,1.3,8.9,5.1,12.6c9.9,9.6,20.1,19.1,28.6,29.8
		c6.8,8.7,15,9.5,24.5,9.9c9.2,0.3,18.4,1.9,27.5,2.9c3.4,0.4,6.9,0.5,10.3,1.2c12.6,2.4,25,5.8,38.1,5.6c7.7-0.1,15.4,0.5,23,1.6
		c4.7,0.7,9.2,3.4,13.9,4.6c8.5,2.1,17.1,4,25.8,5.5c2.1,0.4,4.7-0.7,6.7-1.9c6.6-3.7,13.7-5.8,20.9-3.7c7.5,2.3,14.4,1.6,21.6-0.7
		c9.1-3,18.4-5.6,27.4-8.8c2.6-0.9,4.7-0.9,7.1,0.2c5.9,2.7,11.9,5.1,17.8,7.8c1.2,0.6,2.1,1.9,3.7,3.4
		c-26.9,6.5-52.8,12.5-78.6,19.1c-3.5,0.9-6.9,3.5-9.7,6c-5.2,4.6-10.2,9.5-14.7,14.7c-4.6,5.3-8.6,11.1-12.8,16.8
		c-7.1,9.6-14.1,19.2-21,28.9c-1,1.5-0.7,3.9-1.5,5.6c-1.2,2.7-2.6,5.4-4.3,7.9c-6.8,10-13.8,19.8-20.5,29.9c-1,1.4-0.9,3.8-0.7,5.7
		c0.8,6.8,2,13.6,2.8,20.4c0.2,1.9-0.1,4-0.9,5.7c-6.6,14.4-13.3,28.7-20,43.1c-0.2,0.4-0.5,0.7-1.3,1.8
		c-11.6-9.8-23.1-19.4-34.6-29c-5.3-4.5-10.4-9.2-15.8-13.5c-1-0.8-3.8-0.9-4.7-0.1c-8.5,7.1-16.7,14.5-25,21.7
		c-2,1.8-2.1,3.2-0.2,5.4c8.7,10.1,17,20.5,25.8,30.5c1.8,2.1,4.7,3.6,7.4,4.5c10.8,3.7,14.3,12.7,16.2,22.5c1.1,5.5,1,11.2,1,16.8
		c0,1.2-1.5,2.6-2.6,3.4c-3,2.1-7.2,3.2-6.3,8.3c1.9,10.2-4.8,15.2-12.1,19.2c-6.5,3.6-13.9,5.6-20.7,8.7
		c-8.3,3.9-16.6,7.8-24.3,12.7c-6.9,4.5-13.4,5.3-20.8,1.9c-17.2-7.9-34.4-15.8-51.7-23.5c-23.1-10.3-46.3-20.2-69.3-30.7
		c-8.5-3.9-16.4-8.8-24.6-13.3c-1-0.6-2.5-1.7-2.5-2.6c-0.2-6.9-5.2-10.1-9.7-14c-7-6.1-13.6-12.7-20.3-19c-0.4-0.3-0.9-0.7-0.9-1.1
		c-1.2-13-11.9-20.7-17.3-31.4c-2.9-5.8-6.7-11.2-10.2-16.7c-1.1-1.7-2.6-4-4.2-4.3c-9.2-1.6-15.7-7.6-22.7-12.9
		c-14.7-11.2-29.3-22.5-43.9-33.9c-8.9-7-17.4-14.5-26.5-21.2c-5.3-4-5.9-9.1-5.1-14.7c1.6-10.9,4.5-21.8,5-32.8
		c0.2-5.3,3.3-7.9,4.9-11.8c1.3-3.1,0.4-7.1,0.4-10.7c0-0.9-0.7-2.1-0.3-2.7c2.9-4.5,7.6-2.1,11.5-2.2c1.3-0.1,3.8,2.3,4,3.8
		c0.5,4.4,2.4,7.1,6.5,8.8c5.5,2.3,11.1,4.7,16.3,7.6c3,1.7,5.1,5.4,8.2,6.6c8.3,3.1,16.8,7.4,25.3,7.6c21,0.5,42.1-0.4,63.1-1.8
		c11.2-0.7,20.9,2,29.5,8.6c8,6.2,17.1,3.9,25.4,3c4.5-0.5,8.4-6.3,12.7-9.6c4.9-3.8,7.9-8.6,10.8-14.1c4-7.8,3.9-15.8,2.9-23.5
		c-1.3-10.1-5.4-19.8-6.8-29.9c-0.8-5.7,1.1-11.9,2.4-17.8c0.9-4.1,2.9-8,3.8-12.1c1-4.2,2.3-7,7.6-6.8
		C1395.6,604.9,1399.9,603.5,1404.5,602.7z"/>
	<path id="_x31_073" class="st0" d="M1740.9,639.9c-12.8,3.9-25.1,8.1-37.7,11.2c-4.8,1.1-10.2-1-15.4-1c-5.3,0-11.2-0.5-15.6,1.7
		c-5,2.5-9.3,2.3-14.1,1.2c-7.3-1.7-14.8-2.7-21.9-5.1c-13.7-4.5-27.8-4.8-41.9-6c-16.9-1.3-33.7-3.2-50.5-5
		c-11.2-1.2-22.4-2.6-33.6-4c-1.3-0.2-2.8-1-3.7-2c-12.3-12.6-24.6-25.2-36.9-37.9c-0.9-0.9-1.5-2.5-1.6-3.9c-0.3-2.5,0-5-0.1-7.5
		c-0.2-4.8-1.1-9.2-5.2-12.6c-4.4-3.8-8.4-8.1-12.4-12.3c-0.8-0.9-1.7-2.7-1.3-3.5c1.6-3.2,1.5-6.2,1.1-9.8
		c-0.7-7.9,0.6-15.7,5.7-22.2c4.3-5.5,2.2-11.8,1.7-17.7c-0.4-6.1-1.9-11.7,2.9-17.1c4.7-5.3,3.5-12.5,4-19.1
		c0.5-6.3-3.5-10.4-7.9-12.8c-7.5-4.1-10.7-10.5-13.8-17.7c-2.7-6.4-6.3-12.5-9.2-18.8c-1.5-3.2-2-6.9-3.3-10.1
		c-2.7-6.4-5.6-12.7-9-20.4c3.1,1.9,5.2,3.1,7.2,4.5c6.3,4.3,14.4,2.2,17.2-5c2.3-5.9,2.9-12.4,5.4-18.1c1.8-4.3,5.1-8.1,8.2-11.7
		c3.4-4,8.2-7.1,10.9-11.5c4.5-7.1,5-7.9,13.5-6.9c1.1,0.1,2.3,0,4.2,0c0-4.6,0.1-9,0-13.5c-0.1-4.5-0.2-8.6,3.8-12.1
		c7.3-6.5,10.2-15.3,12.6-24.7c2-7.6,6.3-14.5,9.6-21.7c4.1-8.8,7-17.8,5.2-27.8c-0.7-3.8,0.5-7.8,0.6-11.8
		c0.3-6.8-0.7-12.9-5.3-18.7c-4.6-5.8-7.7-12.8-11.4-19.4c-1.5-2.7-3-5.4-4.2-7.5c2.9-5.6,5.3-11.6,8.9-16.7
		c1.9-2.8,5.8-4.4,9.1-5.8c0.8-0.4,3.5,1.4,4.1,2.7c7.8,18.5,16.1,36.9,27.9,53.3c2.1,2.9,5.8,5.4,9.2,6.7c7.2,2.7,9.1,10,13.8,14.8
		c3,3,4.5,6.7,2.4,11.1c-0.4,0.8,0.4,2.2,0.8,3.2c4.2,12.3,8.4,24.6,12.4,37c1,3.1,1.2,6.4,1.6,9.7c1.1,8.8,1.4,17.7,3.3,26.3
		c0.8,3.8,4.5,7.2,7.4,10.2c9.2,9.5,17.3,19.9,22.6,32c4.2,9.8,8,20.2,9.2,30.7c0.9,7.5-1.8,15.9-4.3,23.4c-3,8.8,1,15.5,5.2,21.9
		c1.6,2.5,6.6,3.1,10.1,3.8c6.6,1.3,13.5,1.4,19.8,3.4c4.3,1.4,7.6,5.4,11.5,8c5.6,3.8,11.2,7.8,17.2,11c3,1.6,6.8,2.1,10.4,2.6
		c8.7,1.2,15.3,6.3,21.5,11.7c1.2,1,2.1,4.4,1.4,5.4c-4.8,6.2-4.7,13.7-6.4,20.8c-1.5,6.3-4,12.4-6,18.5c-1.3,4-4.4,5.5-8.2,6.7
		c-6,2-11.9,4.4-17.6,7.1c-1.8,0.9-3.6,3.2-4,5.2c-1.7,9.3,1.3,17.7,8.5,23.4c4.4,3.4,5.5,7.3,6.3,11.9c1.9,11.5,6.9,21.1,17,27.4
		C1726.1,616.4,1733.8,627.7,1740.9,639.9z"/>
	<path id="_x31_079" class="st0" d="M1874.5,907c-1.8,12.4-9.6,19.2-20.2,22.8c-6.2,2.1-7.3,6.4-7.4,12c-0.1,6.4-0.5,12.9-1,19.3
		c-0.6,8.3-5.9,13.9-11.2,19.5c-4.5,4.8-9,9.6-14,13.9c-9.8,8.4-16.3,19.3-22.7,30.2c-3,5.2-5.6,10.6-8.2,15.9
		c-0.6,1.2-1.3,3.4-0.7,4.2c4.9,6,2.6,12.8,1.6,19.1c-0.9,5.6,0.9,10.3,2.8,15c3.7,9.2,6.4,18.5,6.6,28.5c0.1,4.2,1.2,8.4,2.3,12.5
		c3.4,11.9,0.4,23.4-1.6,35c-0.2,0.9-2,2.2-2.9,2.1c-7.6-0.8-12.5,4.6-18,8c-6.8,4.1-13.2,8.4-21.5,8.3c-1,0-2.2,0.1-2.9-0.3
		c-20.9-13.6-41.8-27.2-62.7-40.9c-11.6-7.6-23.2-15.2-34.7-23c-1.6-1.1-3-3.6-3-5.4c-0.2-19.3-0.2-38.7-0.1-58c0-1.6,1-3.3,1.8-4.8
		c1.4-2.4,3.4-4.5,4.7-6.9c3.9-7.3,10.1-10.8,18-11.8c4.1-0.5,6.5-3.9,6.3-10.9c-0.2-6.5-1.4-13-2.1-19.6c-0.1-1-0.3-2.2,0-3.1
		c6.4-20,12.7-40,24.6-57.8c3.4-5.1,4.4-10.8,0.9-17.4c-4-7.5-5.6-16.2-8.4-24.3c-4-11.7-7.9-23.4-12.1-35.1c-2.5-7-5.8-13.7-8-20.7
		c-1.3-4-1.5-8.3-1.8-12.6c-0.5-6.6-1-13.2-1-19.8c0.1-16.4-3-32.2-7.4-47.9c-2.8-9.8-3.8-20.2-5.7-30.2c-0.9-4.6-2.1-9.2-2.9-13.8
		c-0.2-1.3,0.1-3.2,0.9-4.2c6.3-8.2,12.2-16.7,19.4-24.1c3.2-3.2,8.9-4.3,13.7-5.5c23.4-5.8,46.8-11.3,70.3-16.7
		c1.5-0.3,3.7,0.7,5.1,1.7c3.9,2.9,7.8,6,11.4,9.4c1.9,1.8,3.7,4.3,4.1,6.8c1.7,8.8,2.3,17.8,4.2,26.6c1.3,6,3.7,11.7,5.9,17.5
		c6,15.6,12.7,30.7,22,44.6c5.1,7.6,11.1,14.6,15.7,22.5c2.8,4.9,4.4,10.8,5.1,16.5c1.1,8.5,0.5,17.2,1.4,25.8
		c0.3,3,2.3,6.1,4.1,8.7c4.3,6.1,4.7,13.4,7,20c3.3,9.5,4.5,18.1-1.2,26.9c-0.5,0.8,0.2,2.6,0.5,3.8c1,3.3,2.2,6.5,3.3,9.7
		c2.7,8.1,2.7,8.1,11.1,8.1C1868.9,907,1871.7,907,1874.5,907z"/>
	<path id="_x31_071" class="st0" d="M1069.9,345.5c4.3,2.1,8.5,4.3,12.8,6.4c5.3,2.7,10.3,3,15.6-0.8c8.1-6,10.7-15.5,5.7-24
		c-1.2-2-3.3-3.9-5.4-4.7c-5.7-2.3-7.6-6.6-8.6-12.3c-2.2-13-2.4-26.4-9-38.3c-1.3-2.4-2.6-4.9-3.9-7.3c-2.6-5,1.7-8.9,2.1-13.5
		c1-12.4,2.6-24.8,3.9-37.2c0.1-0.5,0.2-1,0.3-1.4c10,1,14-0.3,14.6-5.1c0.8-6.2-3.4-10.2-7.9-14.4c3.2-0.7,5.4-1.3,7.6-1.7
		c6.4-1.1,7.8-2.4,7.2-8.7c-0.5-5.1-1.7-10-4.4-14.8c-3.6-6.4-5.3-13.8-7.9-20.8c0.4-0.4,0.8-0.8,1.2-1.2c3.1,2,7,3.5,9.1,6.2
		c11.7,15.2,29.3,21.6,45.1,30.7c5.1,2.9,8.9,0.4,8.9-5.6c0-2,0.1-4-0.1-6c-0.2-1.7-0.8-3.4-1.1-4.9c4.1,0,7.8,0.3,11.4-0.1
		c3.9-0.4,6.1-2.9,6.8-6.7c1-5.4,1.9-10.9,3.2-16.3c0.3-1.2,2.3-2.5,3.7-2.8c4.3-0.9,8.7-1.6,13.1-1.9c2.7-0.2,5.5,0.4,8.3,0.9
		c7.3,1.2,8.7,0.5,12.3-6.1c0.5-0.8,0.9-1.7,1.6-2.8c2.5,4.4,5.1,8.3,7.1,12.6c1.9,4.3,3.8,8.7,4.6,13.3c1,5.8,1,11.9,1.2,17.8
		c0.1,3.5,1.3,7.1,4.6,7.6c2.1,0.3,4.7-2.4,7.1-3.6c2.7-1.3,5.5-2.5,8.2-3.8c5.8-2.9,11.5-5.8,17.2-8.7c0.7-0.4,1.4-1.3,2-1.3
		c6.5,0.5,9.5-3.3,11.3-8.8c0.2-0.7,1.1-1.2,1.6-1.9c4.8-7.2,6.5-7.4,14.1-3c5.6,3.2,11.2,6.9,17.4,8.4c8.7,2.1,16.6,5.4,24.4,9.4
		c2.3,1.2,5.1,1.4,8.2,2.1c-5.4,4.7-10.4,8.9-15.2,13.3c-2,1.8-3.9,3.8-5.6,5.9c-2.5,3.2-4.5,3.3-6.9,0.1c-1-1.4-1.9-3-2.8-4.6
		c-4.1-7.3-13.9-4.9-16.2,0.5c-2.3,5.3-4.1,10.9-5.2,16.5c-1,5.1-0.8,10.5-1.1,15.8c-1,14.3,4.6,25.8,15.3,34.8
		c2.1,1.8,5.2,2.4,8,3.3c5.7,1.9,10.4,4.4,11.5,11.3c1.3,8,3.3,15.9,5.3,23.8c2,7.8,0.2,15.3-1.6,22.8c-1.9,7.7-5.2,15.2-6.1,23
		c-0.6,4.9,1.6,10.5,3.6,15.3c2.1,4.9,5.1,9.6,8.6,13.6c3.6,4,8.2,7.1,12.7,10.1c2.8,1.9,7.3,10.2,6.6,14.5c-0.6,3.9-1,7.8-2.1,11.5
		c-0.8,2.7-2.3,5.4-4.1,7.6c-2.9,3.7-4.7,7.4-4.9,12.4c-0.4,10-1.7,19.9-2.8,29.8c-0.1,1.2-1.6,2.1-2.4,3.3
		c-1.9,2.7-3.8,5.5-6.3,9.2c-4.5-4.7-9-10-14.2-14.6c-2.9-2.6-6.5-5-10.2-6.2c-23.7-7.7-47.4-15.4-71.2-22.4
		c-26.4-7.8-53-14.7-79.4-22.2c-20.8-5.9-41.6-11.9-62.4-17.9c-0.6-0.2-1.2-0.4-1.9-0.6c-3.4-1.1-8-1.2-9.8-3.5
		c-1.8-2.4-0.8-6.9-1.2-10.5c-0.8-6.3-1.2-12.7-8.9-15.1c-2.1-0.6-3.8-2.7-5.6-4C1068.9,346.7,1069.4,346.1,1069.9,345.5z"/>
	<path id="_x31_081" class="st0" d="M1116,833.5c1.2-5,2.4-8.7,3-12.3c0.5-3.6,8-11.8,11.6-12.1c0.8-0.1,1.7,0.1,2.5-0.1
		c9.6-1.9,10.1-2.5,10-12.7c0-2-0.3-4,0.1-6c0.2-1.5,0.9-3.2,1.9-4.2c2.3-2,5.6-3.1,7.5-5.4c1.8-2.2,3.2-5.4,3.4-8.2
		c0.6-6.9,0.3-13.8,0.5-20.7c0-1.3,0.5-2.5,0.9-4.4c10.5,8.5,20.3,16.5,30.1,24.4c10.5,8.4,21,16.8,31.5,25.2
		c7.3,5.8,14.7,11.5,22,17.3c1.5,1.2,3.1,3.4,4.7,3.4c11.5,0,14.3,9.8,19.2,16.9c5.7,8.3,10.8,17.1,16,25.8c1.5,2.5,2,5.5,3.5,7.9
		c2.3,3.5,4.7,7.1,7.7,10c6.9,6.7,14.1,12.9,21.2,19.4c1,0.9,1.9,2.4,2,3.7c0.3,6.1,5.2,8,9.4,10.5c3.1,1.8,6.2,3.5,9,5.1
		c-2.3,4.8-4.6,9.2-6.5,13.8c-0.8,1.9-1.2,4.3-0.7,6.2c2.1,7.7-0.2,14-4.6,20.2c-5.6,7.9-7.9,14.6,1.4,25.6c1,1.2,1.2,3.3,1.2,5
		c0,4.3-0.6,8.5-0.3,12.8c0.5,6.2,2.3,7.6,9.1,8.7c6.1,1,12.3,1.9,18.3,3.1c1,0.2,2.3,1.7,2.6,2.8c2.3,10.1,1.5,18.1-13.1,26.5
		c-9.3,5.3-19.6,5.7-29,9.5c-3.8,1.5-8.2,2-11.3,4.3c-2.9,2.1-4.4,6-7,9.8c-0.9,0-2.9,0.1-4.8,0c-5-0.4-8.9,0.6-11.7,5.4
		c-1.1,1.8-4.1,2.9-6.5,3.6c-9.2,2.7-18.5,1.4-27.9,1.2c-8.5-0.2-17.2,0.6-25.5,2.1c-4.8,0.9-9.1,4.3-13.8,6
		c-5.2,1.9-10.5,3.6-15.9,4.3c-2,0.3-4.4-2.3-6.7-3.5c-11.9-6.1-23.6-12.7-37.9-11.1c-11.6,1.3-23.2,2.6-34.9,2.9
		c-12.5,0.4-24.1-3.3-34.3-10.8c-3.5-2.6-4.8-5.7-3.5-9.9c2.9-9.2,8.8-15.8,17.1-20.7c9.3-5.5,16.3-12.6,15-24.8
		c-0.6-5.7-0.8-11.5-1-17.3c0-1.3,0.5-3.6,1.3-3.9c11-4,10.8-14,12.6-22.9c2.4-12.3,1.4-12.9-11.2-15.7c-9.1-2-18.7-4-25.6-11.2
		c-4-4.2-7.4-8.8-6.3-15.3c0.3-1.5,0.2-3,0-4.5c-1.4-11.3,3.2-18.6,13.9-23c4.4-1.8,7.9-5.9,11.8-9c7.9-6.2,15.5-12.6,23.7-18.4
		c4.2-3,5.6-5.8,5-11.3C1125.2,847.4,1122.3,839,1116,833.5z"/>
	<path id="_x31_072" class="st0" d="M1353.4,115.5c6.3-2.2,7.9-1.8,12.6,4.7c3.1,4.3,5.6,9.2,8.5,13.7c6.2,9.8,14.8,16.9,24.6,22.9
		c7.6,4.7,14.5,10.5,21.9,15.6c2.4,1.6,5.3,2.7,8,3.5c6.9,2.2,10.5,7.8,13.9,13.4c5.5,8.9,11.2,8.9,16.6-0.3
		c0.2-0.3,0.5-0.5,0.1-0.1c6.8,0.4,13.2,1.8,19.2,0.7c5.9-1,11.3-4.4,17.1-6.8c4.5,7.9,9.4,16.4,14.1,24.9c2.3,4.2,4.6,8.5,6.2,12.9
		c0.8,2.1-0.1,4.7,0,7.1c0.2,4.6,0.5,9.2,0.7,13.8c0.3,8.3-1.1,16.6-5.6,23.5c-7,10.5-9.3,22.5-13.2,33.9c-1,2.8-2.3,6-4.5,7.8
		c-7.1,6-9.9,13.2-8.5,22.3c0.3,2.1,0,4.3,0,5c-4.7,1.4-8.9,2-12.5,3.9c-2.1,1.1-3.1,4.3-4.7,6.4c-2.3,2.9-4.3,6.4-7.3,8.3
		c-8.3,5.1-12,12.6-13.7,21.8c-0.9,4.7-2.9,9.4-5.5,13.4c-3,4.6-6.7,4.6-11.2,1.7c-3.7-2.4-7.4-4.6-11.9-7.4
		c-0.7,6.4,2.1,10.9,4.1,15.5c2.2,5.1,4.4,10.1,6.6,15.2c1.1,2.6,1.9,5.4,3.1,8c3.6,7.7,6.8,15.6,11.1,22.8c2.7,4.6,6.5,9,10.7,12.3
		c4.4,3.5,7.8,6.4,7.4,12.7c-0.5,7.1-0.1,13.7-5.5,19.8c-2.4,2.7-2,8.7-1.4,13.1c0.9,7.9,1.2,14.8-3.6,22.4
		c-3.5,5.5-2.6,13.9-3.5,21c-0.3,2.5-0.4,5-0.6,8.9c-11-9.9-20.7-18.8-30.5-27.6c-13.3-11.8-26.9-23.3-40.1-35.2
		c-11.6-10.4-22.9-21.1-34.3-31.7c0.6-0.2,1.2-0.5,1.8-0.7c0.9-3.8,2.2-7.6,2.6-11.5c0.9-9.5,1.3-19.1,2.2-28.6
		c0.2-2.1,1.3-4.8,2.9-6c5.7-4.6,5.8-11.2,6.9-17.3c0.6-3.6,0.7-7.5,0-11c-1.2-5.5-3.6-9.8-9.8-12.2c-7.5-3-11.1-10.6-15.1-17.3
		c-1.4-2.4-2.6-4.9-4-7.3c-3.4-5.8-1.7-11.7-0.1-17.5c3.1-11,7.9-21.8,6.9-33.4c-0.8-8.5-3.4-16.9-5.1-25.3
		c-0.1-0.6-0.6-1.2-0.6-1.9c-0.1-10.4-6.4-14.6-15.6-16.8c-9.7-2.3-14-10.7-17.2-18.8c-3.3-8.6-3.1-18.1-1.6-27.3
		c0.8-4.8,1-9.8,2.5-14.4c1.2-3.7,2.7-8.6,8.3-8c1.9,0.2,4,1.6,5.5,3c1.4,1.2,2.3,3.2,3.4,4.8c3,4.1,7.5,3.8,11,0.3
		c6.9-6.8,14.1-13.1,21.4-19.5c1-0.9,3.1-0.8,4.7-0.9c3.3-0.3,6.5-1.2,6.4-5.1c-0.1-6.4-0.6-12.8-1.2-19.2c-0.7-7-1.7-14-2.7-20.9
		C1354.5,123,1354,119.4,1353.4,115.5z"/>
	<path id="_x31_070" class="st0" d="M1652,1104c-1.9-0.6-2.6-0.7-3.1-1.1c-7.6-4.4-8.8-4.3-11.7,3.8c-4.4,12.1-8.1,24.3-12.2,36.5
		c-0.7,2-1.3,4.2-2.6,5.7c-6.6,7.6-6.7,17.1-8.4,26.2c-0.4,2.4-0.8,4.8-1.2,7.2c-0.3-0.1-0.5-0.1-0.6-0.2
		c-8.2-16.6-20.9-29.9-31.4-44.8c-3.4-4.8-5.6-10.8-9.9-14.4c-10.9-9.2-19.5-20.1-27.6-31.7c-1.6-2.3-4.7-4.1-7.5-5
		c-7.3-2.3-14.6-4.5-22.1-5.8c-3.2-0.6-6.7,1.2-10.1,1.4c-1.4,0.1-3.5-0.8-4.1-1.9c-2.7-4.5-5.5-8.6-10.6-11c-2.1-1-2.9-4.2-4.7-6
		c-3.5-3.5-7.2-6.8-11-10c-1.9-1.6-2-2.9-0.6-4.9c5.3-7.2,7.1-15.6,7.4-24.4c0.1-2.8,0.9-5.5,0.9-8.3c0.3-12,0.5-24-5.7-35.5
		c10.2-1.2,17.1-7.6,25.2-11.4c11-5.2,22.2-10,33.3-15.3c3.1-1.5,5.8-3.6,8.5-5.7c4.2-3.4,6.7-7.6,5.8-13.3c-0.6-4,0.9-6.8,4.7-8.2
		c3.4-1.3,4.3-3.7,4.5-7.3c0.2-3.1,1.1-7.5,3.2-8.7c4.1-2.3,8,0.4,10.9,4c5.6,6.9,5.6,6.6,14.3,3.6c7-2.4,13.9-4.6,18.7-11.6
		c-4.9-4.7-9.7-9.4-14.8-14.3c5.1-4.7,10.7-10,16.3-15.3c2-1.9,4.2-3.7,6.3-5.6c3.7-3.4,7-7.6,11.3-9.9
		c13.3-7.3,26.9-14.1,40.5-20.8c6-2.9,11.6,1,17.2,2.4c0.5,0.1,0.7,1.3,1,2c6.6,18.7,13.1,37.4,19.7,56.1c2.1,6,5.7,11.7,6.4,17.8
		c0.6,4.5-1.3,10.1-3.9,14c-11.5,17.4-17.3,37.1-23.7,56.6c-1.3,4,1.3,9.2,1.6,13.9c0.3,4.5,0.1,9.1-0.4,13.6
		c-0.1,1.1-2.2,2.5-3.6,2.9c-7.6,1.8-14.5,4.5-18.2,12.2c-0.7,1.5-1.5,3.2-2.7,4c-5.7,3.7-5.3,9.3-5.3,15c0.1,16,0,32,0,48
		C1652,1099.8,1652,1101.5,1652,1104z"/>
	<path id="_x31_077" class="st0" d="M923.1,493.7c9.4,13.8,18.5,27.4,27.8,40.9c14.2,20.6,28.4,41.1,42.8,61.5
		c1.2,1.7,3.4,3.6,5.2,3.7c9.9,0.3,17,6,24.2,11.7c3.8,3,5.7,5.7,4.6,11c-0.7,3.4,1.7,7.5,2.7,11.3c2.9,10.7,5.7,21.3,8.7,32
		c1.2,4.4,2.5,8.8,4.4,12.9c1.7,3.6,1.1,6.4-0.9,9.4c-3.4,5.2-7.4,10.1-6.7,17c0.1,0.8-1.3,2.2-2.2,2.7c-7.9,3.5-15.8,7.5-24.8,2.9
		c0.1,0.6,0.3,1.2,0.4,1.8c-2.6,0.9-5.1,1.9-7.7,2.5c-6.7,1.5-13.4,2.9-20.1,4.3c-0.9,0.2-2.1,0.9-2.8,0.6
		c-9.5-4-20.2-5.2-27.9-13.3c-6.9-7.2-16.5-5.1-22,2.9c-8.2,11.9-10.6,25.8-14.6,39.1c-4.8,15.7-9.2,31.5-16.1,46.5
		c-1.6,3.5-9.1,5.3-12.3,3.4c-5.4-3.3-10.8-6.6-16.5-9.2c-6.5-2.9-10-8.7-10.4-15.5c-0.3-4.9-2.4-9.9-4.4-14.5
		c-2.8-6.3-6.1-12.3-9.6-18.2c-2.6-4.5-4.7-9-2.8-14.2c1.6-4.2-0.1-7.6-1.8-11.1c-1.6-3.2-2.5-6.9-4.5-9.7c-2.3-3.3-5.3-6.1-8.3-8.8
		c-2.6-2.4-5.9-4.2-8.4-6.7c-3.3-3.3-6.6-2.4-10.5-1.7c-6.7,1.2-11.2,5.6-16.3,9.4c-3.4,2.6-7,4.9-10.6,6.9
		c-4.6,2.6-11.7,0-13.6-4.9c-9.1-23.2-18.1-46.4-27-69.6c-3.9-10-7.7-20-11.9-30.9c9.5,0.5,18.4,0.9,27.2,1.4c0.8,0,1.7,0,2.5,0.1
		c16.3,0.3,32.5,0.6,48.8,1c20.7,0.6,41.4,1.3,62.1,2c1.9,0.1,4.1,0.3,5.7,1.2c6.3,3.6,12.7,4.5,19.9,2.8c8.7-2.1,17.6-3.1,26.3-5.2
		c6.5-1.6,7-3.7,5.6-10.5c-2-10.2-3.7-20.5-5.1-30.9c-1.1-8.2-6.1-14.3-10.7-20.5c-2.6-3.6-5.9-6.6-8.9-10c-2.8-3.2-2.6-6,0.3-9.4
		c5.6-6.4,10.8-13.2,16-19.9C920.5,499.4,921.5,496.7,923.1,493.7z"/>
	<path id="_x31_075" class="st0" d="M1233.8,648.2c0.5-4.6,0.8-8.2,1.2-11.8c0.4-3.6-1.3-4.9-4.7-4.5c-3.2,0.4-6.6,0.4-9.7,1.1
		c-3,0.6-5-0.2-6.5-2.7c-5.4-9.2-10.9-18.4-16.2-27.8c-2.7-4.8-6.3-6-11.3-3.9c-3.6,1.5-7.4,2.3-11.2,3.3c-1.2,0.4-2.8,0.3-3.7,1.1
		c-6.5,5.7-12.9,2-19.3,0.1c-6.1-1.8-12.2-3.5-18.3-5.2c-6.6-1.8-14.1-11.6-15.3-18.4c-0.6-3.3-3.4-6.1-5-9.2
		c-0.7-1.3-1.2-3.3-0.7-4.6c2.7-7.1,5.8-14.1,8.6-21.2c1.8-4.6,8.1-7.2,12.6-5.5c5.2,2,9.4,4.7,11.7,10.1c0.9,2.1,2.1,2.6,4.3,0.3
		c6.3-6.6,4.1-13.8,1-20.2c-3.8-7.8-5.1-15.2-3.6-23.7c1.4-7.5-1.9-14.5-5.7-20.9c-7.3-12-13.6-23.9-15.6-38.5
		c-1.7-12.7-7.4-24.9-11-37.4c-1.9-6.3-3.3-12.8-5.1-20.1c15.8,4.3,30.5,8.2,45.1,12.3c24.7,6.9,49.6,13.6,74.2,21
		c26.5,7.9,52.8,16.5,79.1,25c2.4,0.8,4.7,2.2,6.6,3.9c4.4,4,8.5,8.5,12.8,12.6c6.1,5.8,7.7,12.4,7.3,21.1
		c-0.7,15.6-5.7,29.7-11.7,43.7c-1.2,2.9-3.4,5.7-5.7,7.9c-10.3,10.3-10.3,22.9-7.8,35.8c0.7,3.9,3.6,7.3,4.7,11.1
		c0.9,3.1,1,6.5,1,9.8c-0.1,5.6-0.5,11.2-1,16.8c-0.1,1.7-0.7,3.4-1.4,6.1c-7.8-4.9-15.6-8.6-21.8-14.1c-4.1-3.6-7.5-3.5-11.9-2.8
		c-3.2,0.5-6.5,1-9.8,0.9c-3.9-0.1-4.4,2-4.1,5.1c0.7,6.5,1.3,13.1,2,19.6c0.5,4.2,1.1,8.4,1.6,12.7c0.7,5.6,1.1,11.2-3.8,15.4
		c-0.8,0.7-2.4,1.5-2.9,1.2c-3.5-2.4-7.7-4.5-10.1-7.8c-4.1-5.6-5-6.2-10.9-2.4C1239.6,645,1237.1,646.3,1233.8,648.2z"/>
	<path id="_x31_076" class="st0" d="M1008.8,597.9c16.4,1.2,31.5-4.1,46.8-8.1c2.7-0.7,6.2-3.3,7-5.8c1.1-3.4-2.4-5.6-5.6-7
		c-1.9-0.9-3.8-1.9-6.1-3.1c11-14.8,21.8-29.2,32.5-43.7c10.7-14.7,16.8-31.7,21.3-49c1.9-7.3-0.1-15.3-3.4-22.5
		c-0.7-1.6-1-3.4-1.3-5.2c-1.2-7.1-2.5-14.1-3.4-21.2c-0.8-6-1.8-12.1-1.5-18.2c0.5-10.9-1.6-20.8-7.6-30c-0.3-0.4-0.4-0.9-1-2.5
		c5.3,1.6,9.7,3.4,14.3,4.3c4.7,0.9,6.5,2.7,7.7,7.8c3.4,14.7,8.4,29,12.4,43.6c2.2,8,2.9,16.4,5.5,24.2c1.9,5.9,5.6,11.3,8.5,16.9
		c3,5.9,6.7,11.6,8.5,17.9c1.5,5.3,0.1,11.3,0.7,16.9c0.5,4.7,1.8,9.3,3,13.9c1.2,4.7,2.9,9.3,3.8,14c0.3,1.7-1,3.8-1.2,4.5
		c-5.1-3.4-9.6-6.8-14.5-9.6c-5.1-2.9-14,1.2-16.2,6.9c-2.9,7.4-6.1,14.7-8.8,22.2c-0.6,1.7-0.1,4.4,0.9,6.1
		c2.2,3.9,3.9,7.9,5.6,12.1c2.9,7.4,8,14.8,16.6,17.5c9.8,3.1,19.7,5.7,29.6,8.3c1.5,0.4,3.4,0.1,4.9-0.4c7.4-2.8,14.6-6,22.1-8.5
		c1.2-0.4,4,1.6,4.9,3.1c5.7,9.3,11.1,18.7,16.6,28.1c0.3,0.5,0.6,1.1,0.9,1.9c-8.9,9.9-17.9,19.6-26.5,29.6c-1.7,2-2.3,4.9-3.6,7.8
		c-2.5,0-5.7-0.1-8.8,0c-5.7,0.2-10,4.2-7.7,9.4c2.2,5.1-0.1,9.4-3.6,13.2c-0.8,0.9-1.8,2.1-1.9,3.2c-1.8,15.5-2.5,31.2-5.4,46.5
		c-1.8,9.8-1.3,19.4-1.6,29.1c-0.2,7-6.4,8.3-10.4,11.7c-0.5,0.4-1.1,0.7-2.8,1.8c-4.7-8.2-9.3-16.2-13.9-24.2
		c-0.8-1.4-1.5-3.2-2.8-4c-8.8-5.1-17.2-11.4-26.6-14.4c-12.3-3.9-25.6-4.8-38.3-7.5c-7.7-1.7-15.5-3.9-22.8-6.9
		c-8.6-3.5-16.7-8.2-24.8-13.3c8,2,14.8-1.4,21.7-3.8c4.1-1.4,7.3-3.5,7.1-9.2c-0.1-3.6,2.6-7.5,4.6-11c2.9-4.8,4.3-9.1,2.3-15
		c-3.7-10.9-6.2-22.2-9.2-33.3c-1.3-4.8-3.2-9.6-4.4-14.4c-0.8-3.1-1.6-6.5-1.4-9.6c0.3-4.3-1.5-6.9-4.7-9.2
		C1020.8,606.2,1015.1,602.2,1008.8,597.9z"/>
	<path id="_x31_080" class="st0" d="M1329.6,1121.7c-7.8-12.4-15.6-24.4-22.9-36.6c-3.4-5.7-6.7-11.7-8.6-18
		c-0.7-2.4,1.8-7.8,4.1-8.7c8-3.3,16.8-4.9,25-8c6.8-2.5,12.9-6.6,19.6-9.4c12.3-5.2,12.5-19.2,10.1-28.7c-0.4-1.4-3.1-2.7-5-3.1
		c-7-1.6-14.1-2.6-21.1-4.2c-1.4-0.3-3.4-2.2-3.5-3.6c-0.5-3.9-1.2-8.3,0.1-11.9c1.6-4.5-0.5-7.2-2.6-10.2c-6.4-9-6.2-13.2,0.3-21.8
		c4.4-5.8,5.8-12.5,4.5-19.8c-1.3-7,3.2-12.3,6.5-17.8c0.3-0.5,2.4-0.4,3.4,0c14.9,6.5,29.8,13.1,44.7,19.7
		c23.8,10.6,47.7,21.1,71.5,31.7c4.2,1.9,8.2,4,12.5,5.7c6.7,2.6,7.3,9.3,8.4,14.5c3.1,14.6,2.2,29.5-1.5,44
		c-1.2,4.6-4.3,8.7-6,13.2c-0.6,1.5-0.2,4.4,0.8,5.4c5.5,5,12.6,8.5,15.3,16.2c0.2,0.5,1,0.8,1.6,1c6.1,1.9,8.6,7,10.2,10.7
		c-5.1,7.4-9.5,14.1-14.3,20.6c-3.5,4.7-8.1,7.8-13.7,10.1c-11.5,4.7-22.3,11.4-35.3,10.3c-12.9-1.1-25.8-2.2-38.7-4
		c-10.1-1.4-20.1-4.2-30.2-5.8c-10.1-1.6-19.4,1.8-28.7,5.3C1333.6,1119.4,1331.2,1120.9,1329.6,1121.7z"/>
	<path id="_x31_074" class="st0" d="M1232.1,635c-0.4,4.4-0.9,8.1-1,11.8c-0.1,3.8,1.8,4.9,5.2,3.1c2.8-1.4,5.4-3,8.1-4.7
		c2.5-1.6,4.8-1.2,5.4,1.5c1.6,6.5,7.7,7.5,12.2,10c2.8,1.5,9.5-3.6,9.8-7.7c0.5-5.6,0.4-11.4,0.1-17c-0.4-8-1.3-16.1-1.9-24.1
		c-0.1-1.4-0.5-2.9-0.7-4.2c5.4-0.8,10.9-2.5,16.2-2.2c2.8,0.2,5.4,3.9,8.2,5.7c6.3,4,12.8,7.9,19.2,11.7c0.6,0.4,1.6,0,3.3,0
		c0.6-4.7,1.2-9.3,1.7-14c0.4-4.3,0.1-8.7,1.2-12.7c1.6-5.8-0.8-10.8-3.1-15.3c-5-9.8-6-19.7-1.6-29.6c1.8-4.1,5.7-7.2,7.8-11.2
		c4-7.8,7.4-15.9,11.1-23.9c3.7-7.9,3.6-16.5,4.7-24.9c0.8-6.3,1.1-12.1-1.7-18.2c-1-2.1,1.7-5.8,2.4-7.7
		c10.1,9,20.2,18.1,30.2,27.2c7.7,7,14.9,14.7,23.2,20.8c7,5.2,8.9,11.2,7.7,19.1c-0.5,3.2-1.6,6.3-1.9,9.5c-0.4,3.8-1.4,8.2,0,11.4
		c6.2,14.9,13.3,29.4,19.7,44.2c2.6,5.9,4.3,12.3,6.2,18.5c0.5,1.5,0.1,3.2,0.1,5.3c-8.2-2.5-14.1-6.2-16-14
		c-0.7-2.8-2.2-3.7-4.9-3.4c-5.9,0.7-11.7,1.3-17.6,2.1c-1,0.1-2.3,1.4-2.6,2.4c-3.1,10.3-7.6,20.4-8.4,30.9
		c-0.7,8.6,2.4,17.8,5.1,26.3c4.4,13.8,2.8,27.1-5.1,38.4c-4.6,6.6-12.3,12.4-19.8,15.3c-7.7,3-16.7,0.8-23.7-5
		c-6.4-5.3-13.7-7.1-22-6.6c-9.8,0.5-19.7-0.1-29.5,0.2c-13.4,0.4-26.8,2.2-40.1,1.6c-9.7-0.4-19.6-2.9-27.1-10.6
		c-1.9-2-5-2.8-7.5-4.1c-5.3-2.9-10.7-5.6-15.9-8.6c-0.8-0.5-1.6-1.7-1.7-2.7c-0.7-4.9-3.2-9.7,1.1-14.4c8-9,15.6-18.2,23.5-27.3
		c0.6-0.7,1.5-1.6,2.3-1.7C1219.8,635.6,1225.5,635.4,1232.1,635z"/>
	<path id="_x31_069" class="st0" d="M1677.9,837.7c-0.2-0.1-1-0.3-1.8-0.6c-9.1-4.3-16.7-0.2-24.4,4.1c-6.4,3.6-12.7,7.5-19.3,10.7
		c-9.2,4.4-17.1,10.4-24.4,17.6c-6.9,6.8-14.4,13.1-21.6,19.7c-3.6,3.4-3.2,4.2,1.1,6.8c4.5,2.8,8.7,6.1,13.5,9.5
		c-6.6,7-14.7,8.3-22.1,10.8c-1,0.3-3.3-2.2-4.6-3.8c-5.1-6.2-10.5-7.8-16.8-5.4c-1.5-4.9-2.9-9.8-4.4-14.6
		c-1.8-5.9-5.5-10.5-11.1-13c-4.9-2.2-8.6-5.6-12-9.8c-5.7-7.2-12.2-13.8-18.3-20.6c-1.9-2.1-3.6-4.2-5.7-6.6
		c8.3-7.6,16.5-15,24.8-22.6c17.8,15.5,33.9,32.7,54.9,44.9c3.3-7.4,6.3-14.2,9.4-21c3.2-7,6-14.3,10.1-20.7
		c4.9-7.5,3.4-15,2.4-22.7c-0.5-3.9-2.1-8-1.3-11.6c0.9-4.2,3.4-8.3,5.9-12c7-10.4,14.3-20.7,21.5-31c7.7-11.1,15.4-22.2,23.8-34.3
		c1.4,7.9,2.3,14.7,4,21.4c2.6,10.2,6,20.2,8.5,30.4c1.8,7.6,3.2,15.3,3.9,23.1c1.3,13.3,2,26.6,3,39.9
		C1677.2,829.9,1677.6,833.7,1677.9,837.7z"/>
</g>
</svg>
