<?xml version="1.0" encoding="utf-8"?>
<!-- Generator: Adobe Illustrator 19.0.0, SVG Export Plug-In . SVG Version: 6.00 Build 0)  -->
<svg version="1.1" id="Layer_1" xmlns="http://www.w3.org/2000/svg" xmlns:xlink="http://www.w3.org/1999/xlink" x="0px" y="0px"
	 viewBox="0 0 10000 5000" style="enable-background:new 0 0 10000 5000;" xml:space="preserve">
<style type="text/css">
	.st0{fill:#FFFFFF;}
</style>
<g>
	<path d="M7024.3,4130.6c-3.4,2.7-4.8,4.1-6.5,5.1c-2.3,1.3-4.7,2.3-8,3.9c-1.6-2.1-3.8-3.9-4.5-6.1c-10.6-32.9-21.1-65.9-31.6-98.9
		c-4.4-14-8.9-27.9-13.4-42.2c-8.6-3.5-17.3-1.1-25.6-0.2c-27.1,2.9-54.1,6.5-81.1,10.3c-19.3,2.7-38.4,0.4-58-1.3
		c-3.6,4.5-4,9.7-3.4,14.9c2.6,24.4-2.7,47.7-11.1,70.4c-4.1,11.2-8.7,22.4-14.5,32.7c-15.6,27.5-39.4,46.3-66.7,61.3
		c-27.8,15.2-58.1,23.9-88.8,29.4c-27,4.8-54.4,2.2-80.4-8.9c-6.1-2.6-12.8-4.1-18.5-7.5c-10.9-6.4-20.3-3.9-29.6,2.9
		c-11.2,8.3-22.6,16.4-33.9,24.7c-15.1,11.2-31.8,19.4-48.9,26.7c-19.6,8.4-39.5,16.1-59.2,24c-17.4,7-33.9,16.2-48.5,27.7
		c-14.5,11.4-28.4,23.8-35.5,42.2c-5.2,13.6-13.1,26.2-19.3,39.5c-3.5,7.5-8.5,13.4-15.7,17.5c-9.3,5.3-18.2,11.2-27.7,15.9
		c-6.5,3.2-13.5,5.8-20.6,7.1c-20.4,3.7-40.1,3.6-60.2-5.4c-32.8-14.6-66.9-26.3-100.2-39.7c-11.7-4.7-22.6-11.4-34-16.7
		c-12.7-5.9-25.8-10.8-38.3-16.9c-9.2-4.5-17.6-3.3-26.8,0c-30.7,11.1-61.4,22.2-92.5,32c-23,7.3-46.8,8.9-70.9,5.2
		c-30.2-4.6-60.5-8.8-90.8-12.6c-17-2.1-32.2,2.3-47.6,10.9c-22.9,12.7-38.7,32.2-55.9,50.7c-4.1,4.4-8.6,8.5-11.9,13.4
		c-8.4,12.5-19.6,17.4-35.1,12.7c0,13.6,0,26,0,38.3c-14.5,8.9-30.2,12.1-45.5,16.4c-11.5,3.2-22.8,7.3-34.2,10.6
		c-19.1,5.6-24.5,20.7-26.8,38c-0.5,3.9,0.1,8,0.2,12c0.6,14.6,1.4,29.2,1.9,43.8c0.2,6.1-0.2,12.9-5.9,16.1c-6.8,3.9-12.5-1-18-4.9
		c-37.8-27.2-75.7-54.4-113.6-81.6c-2.6-1.9-5.5-3.5-9.2-5.8c-4.3,3.3-8.4,6.6-12.6,9.6c-14.4,10.6-27,24-44.8,29.4
		c-6.3,1.9-12.9,3.4-19.4,3.6c-15.3,0.5-30.7-0.4-46,0.4c-11.3,0.6-19.5-2.7-24.2-13.3c-0.5-1.2-1.7-2-3.3-3.9
		c-6.2-1.5-13.2-3.2-21.5-5.1c-1.3-2-3.3-4.6-4.8-7.5c-1.4-2.7-2.1-5.8-3.4-9.6c7.9,0,14.3,0,21,0c0.6-2.2,1.8-4.2,1.4-5.9
		c-8.9-37.6-18-75.1-27.1-112.6c-0.5-1.9-1.4-3.7-2.8-7c-15.1-6-31.1-12.4-47.1-18.8c-11.1-4.5-22.2-9-33.4-13.3
		c-5.7-2.2-8.4-6.1-8.3-12.2c0.1-9.3,0-18.5,0-29.9c-14.1-14.1-28.9-30.4-45.3-45c-28.8-25.7-49.5-56.6-67.9-90.3
		c-62.5-114.6-126.4-228.3-189.7-342.5c-34.5-62.3-68.8-124.8-103.1-187.2c-1.9-3.5-3.6-7.1-5.5-10.7c-4-7.4-3-14.5,2.7-20.2
		c10.2-10.2,14.7-23.7,21.4-35.8c6.6-12,7.5-25.6,9.4-38.6c4.1-27.2,13.2-52.9,21.2-79c3.1-10.2,7-20.1,10-30.3
		c5.7-19.2,12-38.1,20.9-56.1c3.3-6.7,4.8-13.5,5.3-21c1.1-15.9,3.4-31.7,4.8-47.6c0.6-7.2,0.1-14.6,0-21.9c0-2-0.8-3.9-0.9-5.9
		c-0.8-22.6-1.3-45.2-2.5-67.8c-1.1-22.2,2.2-43.9,6.9-65.4c8.4-38.4,17.7-76.6,26.7-114.8c1.2-5.2,2.6-10.3,4.3-15.4
		c5.2-16.1,6.1-32.6,4.1-50.3c-6.6-4.8-13.3-10.4-20.6-14.8c-11.2-6.6-17.5-16-19.1-28.8c-0.3-2.6-1.5-5.2-1.6-7.8
		c-0.4-8.3-3.4-15.4-8.6-21.9c-5.1-6.3-7.9-13.6-10.2-21.4c-5.8-19.8-12.8-39.3-18.6-59.1c-2.3-7.8-6.8-12.4-13.9-15.6
		c-15.2-6.9-30.2-14.1-45.1-21.5c-6.8-3.4-13.6-5.3-21.1-4.9c-14.6,0.8-29.2,1.4-43.8,2.1c-2,0.1-4,0.1-6,0.2
		c-32,0.6-63.9,1-95.9,1.9c-28.6,0.8-57.2,1.8-85.7,3.4c-8.5,0.5-15.7-1.5-22.6-5.9c-15.1-9.7-30.3-19.4-45.4-29.2
		c-48.1-31.1-96.2-62.3-144.3-93.4c-2.7-1.8-5.7-3.2-9.4-5.2c-4,2.2-8.3,4-11.9,6.6c-26.5,19-53,38.1-79.2,57.5
		c-8.9,6.6-18.1,10.3-29.5,9.2c-17.9-1.7-35.8-2.7-53.7-3.8c-9.3-0.6-18.6-0.6-27.9-1.1c-28.5-1.5-57.1-3-85.6-4.9
		c-27.8-1.8-55.6-4.3-83.4-6.3c-10.6-0.8-21.3-1-31.9-1.6c-27.9-1.4-55.8-2.7-83.6-4.4c-17.9-1.1-35.8-2.5-53.7-4.1
		c-12-1.1-13.8-2.6-15.1-14.1c-1.8-17.2-1.3-34.7-4.6-51.6c-3.2-16.8,2.7-27.5,14.9-37.7c19.9-16.7,32.7-38.3,39.6-64.4
		c-2.4-7.9-8.7-13.4-15.7-18.8c-20.9-16.5-41.8-33-62-50.3c-8-6.8-15.1-15-21.2-23.7c-20.2-29-38.1-59.2-51.9-92.1
		c-6.9-16.5-10.9-32.9-8.9-50.3c2-18.1-1.1-35.8-2.6-53.6c-0.3-3.6-2.4-7.5-4.7-10.5c-4.9-6.3-10.2-12.3-15.8-18
		c-19.4-20.2-29.5-34.9-39.9-59.1c-1.1-0.7-2.1-1.9-3.3-2.2c-39.4-8.2-75.6-25.4-112.7-40.2c-25.3-10.1-50.8-19.9-76.3-29.7
		c-3.7-1.4-7.6-3.1-11.5-3.1c-20.6-0.2-41.3-2.2-61.7,2.6c-13,3-26,5.7-38.9,8.9c-7.4,1.8-14.2,1.8-21.2-1.9
		c-11.2-5.9-22.8-11-34.3-16.2c-7.6-3.5-12.6-9.5-17.6-15.9c-36.9-46.4-73.9-92.7-110.8-139c-8.3-10.4-16.4-21-24.9-31.2
		c-4.4-5.3-6.7-11-7.4-18c-3-27.1-6.7-54-10.2-81.1c-0.9-7.2,1-12.8,7.7-16.9c14.2-8.7,28.1-17.9,42.1-26.9c5.5-3.6,11-7.4,17-11.4
		c-1.7-7-3-13.4-4.8-19.7c-7.3-25.6-15.2-51-22-76.8c-4.5-16.9-10.4-32.9-19.7-47.7c-3.9-6.1-6.8-12.9-10.7-20.6
		c-6.4-0.2-13-1.1-19.5-0.5c-24.6,2.1-49.2,1.9-73.8,0c-11.9-0.9-24,0-36-0.4c-14.9-0.5-23.4-8.6-24.3-23.5
		c-0.6-9.9-0.1-19.8-0.1-31.6c-10.6-11.2-24.2-21.8-37.5-32.7c-2-1.7-4.3-3.1-6.6-4.4c-15.3-8.9-20.5-21.7-14.4-39.1
		c3.6,1.4,7.2,2.8,12.1,4.7c0.7-3.4,1.7-6.4,1.8-9.4c0.7-34,0.9-67.9,1.8-101.9c0.9-34.6,2.8-69.1,3.8-103.7
		c0.5-17.3,0.2-34.7,0.2-52c0-5.3-0.3-10.7,0.3-16c0.9-8.4,4.5-15.2,13-18.5c13-5.1,25.6-11.6,39-15.2c17-4.6,34.3-4.2,50.1,5.6
		c7.9,4.9,16.4,9.2,23.5,15.1c17.5,14.6,38.4,17.5,59.8,18c7.7,0.2,15.9,1.9,24.3-3c-5.6-13.2-10.9-26-16.4-38.7
		c-8.6-19.5-17.1-39-26.1-58.3c-5.1-10.8-5.5-21.5-2.7-33c1.4-5.7,4.2-9.7,9-12.4c8.2-4.4,16.3-7.6,26.5-5.9
		c20.2,3.3,28.7-2.8,34.7-23.2c2.5-8.7,7.1-15.8,13.3-21.9c14.3-14.1,21.5-31.6,25.3-51.6c-7.6-18.5-15.8-37.2-26.7-55
		c-10.4-16.9-18.1-35.6-26.8-53.6c-3.9-8-3-15.4,3.2-22.1c2.7-2.9,5.2-6.1,7.6-9.2c3.4-4.4,7.7-7.8,13.3-8
		c13.1-0.5,22.7-8,30.8-16.7c8.6-9.2,18.6-14,30.7-16.9c21.5-5.2,41.9-13.3,59.2-27.6c6.1-5.1,12.6-9.7,19.7-15.2
		c-2.4-5.5-4.5-11-7.1-16.2c-17.2-34.6-34.5-69.1-51.8-103.7c-2.1-4.2-4.2-8.3-6.3-12.5c-2.6-5.3-2.3-10.4,1.1-15.1
		c3.1-4.3,6.5-8.5,10-12.4c9.4-10.3,18.7-20.8,28.6-30.6c29.4-29.3,52.4-63.7,76.7-97c4.2-5.8,6.8-12.8,10-19.4
		c4-8.4,7.7-17,11.5-25.5c3.9-8.8,10.9-13.4,20.3-13.7c15.3-0.5,30.2,0.2,44.7,7.4c14.2,7.1,29.7,11.6,44.4,17.7
		c5.4,2.3,11.2,5.1,15.3,9.2c14.1,14.5,31.1,25,47.7,36.1c11.6,7.8,23.7,14.8,35.5,22.4c7.9,5.1,16.1,9.5,25.6,10.5
		c5.8,0.6,9.9,3.3,13.2,7.8c7.9,10.6,18.5,16.6,31.6,18.9c5.8,1,11.3,3.9,17,5.7c11.2,3.5,19.9,10.2,27.5,19
		c13.4,15.7,27.1,31.1,40.8,46.5c9.2,10.4,21.7,15.2,34.5,19.1c27.7,8.6,56,10.3,84.8,7.9c20.1-1.7,39.7,2.4,58.6,9.6
		c7.9,3,16.3,4.8,25.5,7.4c0.2,1.5,1.1,4.1,1,6.6c-1,22.3,4.4,43.6,9.4,65c2.8,12,3.2,11.9,0.7,26.4c7.8,9.9,14.4,21.2,12.5,36
		c-11.8,5.1-23.6,9.4-33.3,17.9c-3.6,3.2-9.8,4.4-15,4.7c-15.9,1-28.7,9.4-42.5,15.6c6.8,16.4,9.7,34.2,29.2,41.2
		c-9.1,15.6-16.7,28.6-30.1,37.2c-14,9-27.5,18.9-42,26.9c-14.7,8.1-24.5,19.9-32,34.5c-10.3,20.1-21.2,40-32,59.9
		c-3.8,7-8.5,13.5-12.4,20.5c-6.3,11.3-9.6,23-6.1,36.3c2.7,10.2,4.3,20.9,5.1,31.4c0.7,8.5-0.4,17.2-0.9,25.8
		c-0.7,14.6-2,29.2-2.2,43.8c-0.2,12.3,5.2,21.1,16.9,26.9c19.1,9.4,37.6,20,56.4,30.1c1.8,0.9,3.6,2,5.5,2.4
		c27.2,5.6,42.8,27.1,61.1,44.8c2.7,2.6,4.2,6.7,5.6,10.4c5.1,13.7,9.9,27.6,15,41.3c2.1,5.6,4.4,11.1,7,16.5
		c4.3,8.8,11.1,14.3,20.8,17.2c18.4,5.7,36.4,12.7,54.8,18.8c6.3,2.1,13,2.9,19.4,4.5c2.3,0.6,4.8,1.3,6.6,2.7
		c13.6,10.7,26.7,21.9,40.5,32.2c8.4,6.2,14.7,13.2,17.5,23.4c2.1,7.7,4.9,15.2,6.8,23c2.2,8.9,7.2,15.3,14.7,20.5
		c21.4,14.7,42.5,29.9,63.8,44.8c15.9,11,32.1,21.5,47.8,32.8c9.7,7,20.8,9.5,31.9,9.7c6.8,0.1,14.5-3.2,20.3-7.2
		c13.6-9.5,28.5-10.3,44-9.6c3.3,0.2,6.7,0.5,9.8,1.4c24.4,6.7,48.9,13,73.1,20.4c13.9,4.3,24.8,3.1,32.5-10.3
		c1.3-2.2,3.6-3.9,5.4-5.9c14.3,2.6,28.3,5.5,40.9,13.7c7.7,5,13.4,3.3,18.5-4.9c6.6-10.6,15.4-18,26.8-23c13.9-6,24.3-16,31.9-29
		c1-1.7,2.1-3.4,3.3-5c11-15.7,20.8-32.7,40.6-41.1c-1.6-5.3-2.8-9.6-4.2-13.8c-1.2-3.8-2.7-7.5-4.5-12.3c-3.4-1.6-7.8-3.2-11.7-5.5
		c-4.5-2.6-9.2-5.3-13-8.8c-14.5-13.1-15.1-19.4-2.3-33.2c1.8-1.9,3.2-4.3,4.5-6.6c0.7-1.1,0.8-2.5,1.6-5.2
		c-4.5-8.3-9.6-17.6-14.7-26.8c-1.6-2.9-3.7-5.6-5.1-8.6c-2.5-5.3-1.3-10.9,3.1-14.4c5.8-4.6,12.2-7.7,20.1-7.2
		c12.9,0.9,20.7-5.3,25.8-17.4c5.6-13.2,11.4-26.5,20.1-38c2.1,0.9,3.9,1,4.3,1.8c12.1,24.8,30.7,45,48.1,65.9
		c3.8,4.6,8.7,8.2,13.1,12.3c9.8,8.9,19.8,17.8,29.6,26.7c6.2,5.6,9.1,12.7,10.6,20.9c2.3,12.4,5.5,24.7,8.5,36.9
		c0.9,3.9,2.3,7.7,3.8,11.4c5.2,13.1,13.7,22.1,28.5,25.1c21.5,4.3,42.7,10.5,64.3,14.5c20.2,3.7,35.3,14.5,48.6,29.1
		c15.7,17.2,31.6,34.3,47.3,51.4c15.2,16.5,34.5,27,54.3,36.6c7.8,3.8,16.1,6.3,24.2,9.3c35.6,13.2,71.1,26.6,106.7,39.6
		c6.1,2.2,10.4,5.9,13.5,11.2c7.1,12,15.1,23.7,20.6,36.4c6.8,15.8,18,24.5,34.4,26.5c11,1.3,20.2,6,29.6,11.2
		c24.7,13.8,46.1,32,64.2,53.4c10.7,12.5,18.3,27.7,26.9,41.9c5.5,9.1,9.3,19.3,15.7,27.6c21.3,27.6,32.2,59.6,39.6,92.9
		c2.7,12.2,2.7,25.1,3.7,37.6c1,13.2,5.9,24.3,15.9,33.3c7.9,7.1,15.3,14.8,19.4,25.1c3,7.5,6.1,14.8,5.4,23.1
		c-1.1,14,5.5,24.3,15.6,32.9c23.6,20,48.7,37.1,79.8,43.5c12.9,2.7,23.1,10.1,31.5,19.8c6.1,7,11.7,14.5,16.9,22.3
		c5.1,7.6,11.1,13.4,20.5,14.2c17.5,1.5,27.9,12.5,38.3,25.5c9.3,11.8,11.4,25,14,39.5c4.3,2.4,9.3,4.5,13.4,7.7
		c5.2,4,11.2,8,14.2,13.5c7.8,14.3,20.4,22.9,33.7,30.2c11.8,6.5,23.3,12.5,29.4,25.5c1.5,3.1,5.7,5.5,9.1,6.9
		c8.6,3.5,17.5,6.6,26.5,9.1c9.7,2.7,14.9,8.2,14.3,18.6c-0.1,1.9,0.4,3.9,0.6,6.5c4.7,2.1,9.5,4.4,14.4,6.4
		c5.8,2.3,10.8,5.7,12.7,11.8c2.1,6.5,7.2,8.8,12.8,11.4c9,4.2,17.5,9.4,26.3,14.1c12.3,6.6,24.3,14,37.2,19.2
		c8.9,3.6,15.1,8.7,17.8,17.3c3.5,11.2,10.2,18.3,21.5,21.4c3.2,0.9,6,2.8,9,4.3c5.3,2.6,7.8,7,8,12.8c0.2,7.9,0.5,15.9,0.8,22.7
		c1.3,1.7,1.6,2.3,2.1,2.7c18.4,14.4,18.4,14.8,20,38c1.3,18.4-2.4,35.6-12.3,52.7c3.7,0.9,6,2,8.4,2c12.3-0.1,23.6,3,34.2,9.3
		c10.1,6,21.1,8.3,32.7,6.3c17.1-3.1,31.6,1.9,44.1,13.4c5.9,5.4,11.5,11,17.1,16.6c7.4,7.3,15.5,12.6,26.5,10.5
		c9.7-1.8,18.3-0.3,25.6,7.4c2.5,2.7,6.8,4.2,10.5,5.2c9.1,2.4,15.4,7.2,18,16.7c1.7,6.5,7,9.4,13.2,10.9c1.9,0.5,3.9,1,5.8,1.4
		c15.7,3.2,18.9,6.3,21.4,21.1c0.1,0.7,0.3,1.3,0.2,2c-2.5,17.3,7.2,25.6,23.8,30.3c6.2-4.1,8.9-11.9,10.7-19.3
		c4.5-17.8,19.2-24.8,33.1-32.3c7.4-4,19.9,2,23.4,10.1c2.1,4.8,3.2,10.1,5,16.2c3.8,2.3,8.7,4.6,12.6,8c6,5.2,12.7,10.3,16.4,17
		c4.9,9,11.7,13.6,20.9,17.1c13.4,5.1,24,14.1,30.4,27.4c1.4,2.9,3.4,5.5,5.5,8.8c11.3-3.3,22.1-6.2,32.8-9.5
		c16.1-5,32.4-7.7,49.1-3c8,2.3,15.9,0.5,23.7-0.9c9.2-1.6,18.3-3.5,27.5-4.7c7.8-1,12.6,2.4,15,9.9c1.2,3.8,1.9,7.7,2.9,11.6
		c4.5,18.2,4.4,18.8-7,35.5c1,8,5.5,14.2,13.3,19.8c3-2.3,7-3.9,8.7-6.9c6.4-11.2,17-16.6,28-21.6c8.3-3.7,12.8-3.3,17.4,3.6
		c6.5,9.5,13.9,17.5,23.4,24.2c3.4,2.4,5.1,7.6,7.1,11.7c2.3,4.8,4.2,9.8,6,14.8c2.4,7,7.1,11,15.6,12.8c2.1-4.2,4.3-8.8,6.8-13.3
		c4.2-7.3,9.1-9.3,16.6-5.8c10.2,4.8,20,10.4,29.8,16c5.2,3,10,6.5,12.4,12.5c6.7,16.9,13,17.4,0.7,38.9c-1.3,2.3-2.4,4.8-3.2,7.3
		c-1.9,5.6,2.7,11.9,8.2,10c14.2-4.9,27.7-0.7,41.2,2.1c18.9,4,37.5,9.1,56.3,13.6c9.3,2.2,17.1,6.6,23.6,13.9
		c4.8,5.4,10.8,9.6,16.5,14.2c7.5,6.1,10.7,13.3,7.3,22.9c-0.9,2.5-1.1,5.1-2,9c2.5,1.5,5,3.6,7.9,4.5c5.9,1.8,8.1,6.6,10.4,11.4
		c2.9,6,5.4,12.2,8.4,18.1c6.5,12.9,15.1,22.7,30.4,26.4c13.3,3.2,23.4,12.1,30.8,23.9c6,9.6,12.8,18.6,20,29c6.5,2,14,4.7,21.7,6.8
		c15.5,4.3,22.8,17.5,31.2,29.2c1.7,2.3,1.3,6.4,1.1,9.7c-0.2,3.9-1.3,7.7-2.1,12.1c7.2,5.3,14.1,10.2,21.5,15.6
		c2.2-2.9,3.8-4.9,5.3-7c8.8-12.6,19.9-16.4,34.3-11.7c5.1,1.6,10.1,3.4,15,5.5c18.6,7.9,37.4,12.6,58.1,11.9
		c16.6-0.5,32.9,4,48.5,10.2c7.5,3,12.3,7.3,13.1,15.8c1,10.4,6.3,17.7,14.6,24.8c13.3,11.4,20.8,27.5,25.8,44.2
		c7.4,25,10.7,50.7,11.7,76.7c0.3,7.4,1,14.5,4,21.4c2.9,6.7,6,13.5,7.6,20.6c1.4,6.4,0.9,13.2,1.2,19.9
		c16,20.5,36.9,32.6,62.2,36.3c9.1,1.3,16.5,4.9,23.4,10.2c5.5,4.2,11.3,7.2,18.3,6.4c11.2-1.2,21.2,2.1,30.1,8.4
		c7.8,5.5,16.1,6.3,24.7,3.7c10.9-3.3,17.8,1,23.1,10.1c6,10.4,12.2,20.7,14.8,32.6c2,8.9,6.8,15.5,14.3,20.8
		c8.1,5.8,15.3,12.8,23.4,18.7c5.1,3.8,8,8.6,10.1,14.4c5.2,14.3,10.3,28.8,16.5,42.7c4.5,9.9,7.8,19.7,6.9,30.7
		c-0.5,6.1,0.1,12,5,16.6c13,12.3,16.5,28.4,18.1,45.2c0.4,4,1.1,7.9,1.8,13.2c6.2,5.3,13.2,11.5,20.4,17.3
		c7.2,5.8,9.1,12.8,6.1,21.3c-3,8.8-6.1,17.5-8.9,25.8c2.3,7.7,8,11.3,14.5,13.1c10.7,3,14.7,10.8,15.6,20.7
		c0.8,9.3,1.3,18.7,0.8,27.9c-0.8,12.5,2.2,23.7,8.7,34.2c2.4,4,4.6,8.1,7,12.1c4.8,7.8,5.7,16.2,4.3,25c-0.8,4.6-1.5,9.2-2.5,13.7
		c-2.5,11.7-1,22.2,7.1,31.7c8.5,9.9,9.3,21.2,5.3,33.7c-3.1,9.4-4.3,19.3-6.2,28.4c19.8,19.4,20.6,21.1,19.6,38.3
		c-9.1,0.8-16.6-2.4-22.5-9.1c-6.2-7-13-8.5-22.5-8.8c-15.8-0.5-31.4-4.9-47.1-8.1c-18.9-3.8-37.7-8.1-56.6-12.2
		c-12.7-2.8-25.1-2.2-37.2,3c-8.8,3.8-18,4.5-27.4,3c-2.6-0.4-5.3-1.2-7.9-1c-21.3,1.6-40.4-7-60.1-12.8c-8.6-2.5-13-7.9-16.6-15.7
		c-5.8-12.8-10.5-25.8-12.4-39.8c-1.2-8.5-3.2-17-5.5-25.4c-2.2-8.1-7.8-12.1-16-12.1c-2,0-3.9,0.4-5.9,0.8
		c-15.1,2.6-30.2,5-45.2,7.8c-3.8,0.7-7.3,2.5-12.3,4.2C6994.6,4036.1,7009.3,4082.9,7024.3,4130.6z M3268.1,493.8
		c2.4,0.1,5.3,1,7.1,0c8.5-4.5,16.8-9.6,25.2-14.5c4.2,4.9,8.1,10.2,12.8,14.7c3.1,2.9,6.9,2.8,9.8-2.7c-7-5.2-12.7-12.6-23.1-11.5
		c-0.2-1.2,0.1-3-0.6-3.6c-8-6.8-16.9-12.1-27.3-17.2c-4.2,11.6,7.7,15.1,8.8,23c-4.1,4.1-8.2,8.2-12.2,12.3
		c-2.6,1.6-5.1,3.2-10.7,6.8C3265.8,500.1,3268.6,498.7,3268.1,493.8z M3364.6,631.3c0.5-3.3,1.1-6.6-2.4-8.8c-3.4-2.1-6.7-1-9.1,1
		c-5.5,4.8-8.8,10.7-6.6,19.8c7-4.8,12.9-8.8,18.8-12.8c-2.2,15.5-15.7,17.7-26.6,22.4c-6.8,11.8-9.4,23.6-5.4,34
		c13.9,12,23.5,1.8,32-3.9c10.9-7.3,14.2-19.9,14.5-32.5c-4.3-3-7.9-5.6-11.5-8.1c5.6-13,13.5-19.4,27.9-18.9c11,0.4,22.2-3,33.2-5
		c1-0.2,1.5-2.6,3.1-5.3c-19.2,2.4-36.7,4.6-52.6,6.6C3374,624.3,3369.3,627.8,3364.6,631.3z M6781.4,3231.1
		c-2.9,1.9-3.6,2.2-3.9,2.7c-1.2,1.6-2.4,3.2-3.3,5c-8.3,16.4-10.8,17.6-27.6,12.1c-4.3-1.4-8.4-3.9-12.4-6.1
		c-4-2.2-7.7-5.2-11.9-7.1c-16.6-7.6-17-7.5-14.4-26.6c1.7-12.8-2.1-19.7-13.4-26.3c-7.4-4.3-15.8-7.3-24.7-2.5
		c-2.2,1.2-5.1,1.6-7.7,1.8c-4.7,0.5-9.5-2.8-10.6-7.3c-0.6-2.6-1.6-5.7-0.7-7.8c4.2-9.9-2.3-16.4-6.7-23.7
		c-8-13.3-19.8-21.6-34.5-25.3c-10.5-2.7-17.5-8.7-22.8-17.8c-6.6-11.5-13.6-22.7-20.7-34.3c-2.3-0.8-4.7-2-7.3-2.5
		c-14.2-3-15.3-10.9-12.6-22.2c1.4-5.7,4.4-11.3,1.8-16.2c-6.3-5.7-11.5-10.8-17.1-15.2c-4.1-3.2-8.5-6.7-13.4-8
		c-16.6-4.7-33.5-8.8-50.3-12.6c-14.3-3.2-28.4-6-43.1-0.5c-8.2,3-15.1-0.4-20.3-8.2c-9.1-13.7-15.3-26.9-2.4-41.6
		c0.4-0.5,0.7-1.2,1-1.7c4.2-6.5,3.2-12.8-1.4-18.5c-5.5-6.7-12.5-11.2-21.2-12.3c-7,16.2-7,16.2-17.5,22.4
		c-7.1-3.6-14.7-7.8-22.5-11.4c-11-5-18.8-12.9-21.3-24.7c-3.8-18.2-18.9-25.7-30.8-36.1c-11.5,5.3-13.2,18.1-22.2,23.6
		c-35.9,3.6-31.7,2.6-46.7-21.8c-0.3-0.6-0.7-1.1-1.1-1.7c-10.8-17.4-10.9-17.5,1.7-34.6c3.8-5.2,3.5-9.6-1.4-14.8
		c-4.2,0.6-8.8,0.7-13.2,1.8c-13.8,3.8-27.3,4.1-41.4,1c-6.9-1.5-14.6-0.9-21.6,0.6c-13,2.6-25.8,6.2-38,12
		c-20.9,10-23.6,9.2-33.3-12c-6.6-14.5-16.4-23.9-31.5-28c-8.3-2.3-14.2-7.3-17.7-15c-5.2-11.5-13.8-19.3-25.4-24.1
		c-6.4-2.6-11.2-7-12.6-14.4c-0.5-2.3-2.6-4.3-3.9-6.2c-10.7,3-13.2,11.8-15.6,20c-3.6,12-11.6,20.8-20,29.4
		c-6.6,6.7-12.2,6.9-19.4,1.7c-6.4-4.6-13.1-9-19.4-13.8c-9.8-7.6-17.3-16.5-16.5-30.1c0.2-3.8-0.8-7.7-1.2-11.3
		c-16.4-6.9-35.8-8.4-39.2-29c-8.1-4.2-15.1-8-22.2-11.4c-2.8-1.3-6.1-2.4-9.2-2.3c-19,0.1-34.9-6.1-46.9-21.4
		c-2.9-3.6-6.5-6.7-9.8-10c-8.4-8.8-18-13.2-30.5-9.7c-12.1,3.4-23.5-1.9-35.2-3.9c-13.6-10.2-29.1-12.4-45.5-11.2
		c-2,0.1-4-0.1-6-0.1c-5.2-0.2-9.2-2.8-10.7-7.6c-3.2-10.2-6.3-20.8,1.3-30.5c7.4-9.5,8.2-20.5,9-32c1-14.3-3.3-24.7-16.9-30.5
		c-1.8-0.8-3.3-2.2-4.4-3c-0.6-11.2-1.1-21-1.5-30.3c-2.4-1.9-3.7-3.6-5.5-4.2c-14.6-5.3-25-14.7-30.1-29.7
		c-2.1-6.2-7.7-8.8-13.2-11.4c-9.6-4.5-19.6-8.5-28.7-14c-12-7.3-23.5-15.1-37.1-19.2c-5.8-1.7-10.9-5.2-12.9-11.5
		c-2.6-8-9.1-11.5-16.5-12.8c-13.5-2.4-19.8-9.7-18.7-23.5c0.1-1.1-1.3-2.2-2.6-4.4c-8.4-3-17.7-6.5-27.2-9.5
		c-6.1-1.9-11.2-5-13.3-11c-4.2-11.8-13.5-17.3-24-22.3c-13.3-6.4-25.7-14.8-33.7-27.4c-5.6-8.8-12-15.7-21.7-19.6
		c-11.7-4.7-18.1-12.5-17.4-26.1c0.3-5.6-1.7-12.1-4.6-16.9c-7.3-12.2-16.5-22.7-32.2-24.1c-2-0.2-3.9-1-5.8-1.4
		c-7.7-1.3-13.3-5.5-17.8-11.8c-6.6-9.2-13.3-18.3-20.4-27.2c-6.8-8.6-15.6-14.2-26.7-16.3c-6.5-1.3-12.7-3.7-19-5.9
		c-23.7-8.3-43.3-23.1-62.6-38.5c-16.5-13.2-26.5-29.7-26.2-51.4c0.1-10-4.1-18-10.5-25.1c-2.7-3-5.6-5.8-8.5-8.5
		c-13.8-13-20-29.5-21.5-47.9c-1-11.3-0.4-22.8-2.9-33.8c-7-30.6-16.5-60.4-36.8-85.5c-5-6.1-9.5-13-12.5-20.3
		c-9.5-22.4-22.3-42.7-40-59.2c-22.3-20.8-44.9-41-77.3-46.5c-17.9-3-32.8-12.5-39.5-32.4c-4.1-12.4-12.9-23.2-19.5-34.7
		c-2.8-5-7.4-7.3-12.6-9.2c-34.4-12.5-68.7-25.3-103.2-37.7c-35-12.6-66.3-30.8-91.7-58.4c-13.5-14.7-26.9-29.5-40-44.6
		c-10-11.5-21.9-19-37-21.7c-11.8-2.1-23.5-4.8-35.1-7.7c-14.8-3.7-29.6-7.8-44.2-12.1c-6.5-1.9-12.1-5.7-15.9-11.5
		c-5.8-8.9-12.1-17.6-14.8-28.1c-3.3-12.9-7-25.7-9.4-38.8c-1.9-10.3-6-18.9-14.1-25.5c-4.1-3.4-7.9-7.2-12.3-10.1
		c-13.5-8.9-24.3-20.5-34.1-33.3c-5.7-7.4-11.4-14.7-17.4-21.8c-2-2.3-4.9-3.8-7.8-6.1c-1.7,3.5-3.3,5.8-3.8,8.3
		c-2,9.6-8.2,14.8-17.3,17.3c-8.2,2.2-16.3,4.6-24.9,7c3,15.7,16.6,25.9,20.3,41.1c-5.5,8.4-10.8,16.5-15.6,23.9
		c3,8.2,8.9,9.4,14.9,10.6c9.3,1.8,15.3,6.6,17.5,16.6c1.7,7.7,5.5,15,8.5,22.3c5.1,12.6,4.6,17-6.8,23.1
		c-14,7.6-24.2,18.4-32.7,31.5c-3.3,5-7.3,9.6-10.3,14.7c-7.6,13.1-17.8,22.8-32,28.8c-11.8,5-21.6,12.8-27.4,24.9
		c-1.6,3.4-4.9,6-6.8,8.2c-15.7,3.3-29.1,1.4-41.3-7.2c-4.6-3.2-9.6-4.4-15.1-3c-13.3,14.1-13.3,14.2-32.6,13.6
		c-5.9-0.2-11.8-1.4-17.8-2.2c-3.8-0.5-7.6-1.3-12.7-2.1c-5,10.6-9.9,20.7-14.5,31c-2.5,5.5-6.4,11.1-6.3,16.7
		c0.2,17.5-7.4,32.1-14.3,47.2c-4.1,8.9-8.9,17.6-10.9,28.3c5.4,2.2,10.1,4.1,14.3,5.7c6,14.9,5.3,27.8-5.6,39.4
		c-5.5,5.8-6,12.9-4.6,20.6c1.7,9.1,3,18.4,4.2,27.6c0.7,5.7,3.3,10.2,8,13.2c9.5,6,18.9,12.3,28.9,17.5c11.2,5.9,22.8,11,34.4,16.1
		c8.3,3.6,14,9,17.6,17.7c6.9,16.9,17.3,31.3,31.1,43.4c6,5.3,11.2,11.4,17.1,16.9c7,6.6,11.5,14.5,12.7,24.5
		c-10.7,12.9-26.2,20.1-38.4,31.7c0.6,10.4,4.5,19.8,10.5,27.6c6.8,8.9,15,16.9,23.2,24.6c14.6,13.6,29.7,26.6,44.5,40
		c7.5,6.8,12.5,15,14.1,26.2c-3.7,0.7-6.2,1.6-8.6,1.6c-10-0.1-20-0.7-30-0.8c-115.3-1-230.6,1.3-345.9-2
		c-68.6-1.9-137.3-0.4-206-0.4c-4,0-8,0.3-12,0c-7.1-0.6-12.9,1.8-18.2,6.4c-7.1,6.1-14.1,12.3-21.7,17.6
		c-4.8,3.4-10.3,6.6-15.9,7.7c-9.5,1.9-17.4,6.1-25.1,11.6c-9.2,6.5-18.4,13.3-28.4,18.6c-17.7,9.4-34.3,20-49.8,32.9
		c-10.4,8.7-23.2,13.6-38.7,10.6c-18-3.4-36.7-8.1-54.8,1.5c-2.7,1.4-6.6,0.6-9.8,1.2c-4.4,0.9-8.8,2.3-13.8,3.6
		c3.3,10.9,9.3,18.6,16.4,25.6c8.1,8,16.4,15.7,23.8,24.2c3.8,4.3,7.7,10,8.3,15.4c2.8,24.4,6.5,49,4,73.6
		c-0.9,9.2,0.8,16.8,3.9,24.9c13.8,35.7,33.7,67.9,55.3,99.2c4.1,5.9,9.3,11.3,14.9,15.9c20,16.6,40.3,32.7,60.5,49.1
		c4.6,3.8,9,7.8,13.5,11.9c11.9,10.9,12.8,23.4,7.4,38.2c-8.4,22.9-19.5,43.7-38.5,59.6c-2.5,2.1-4.6,4.8-7.1,7
		c-4.2,3.9-6,8.8-5.6,14.4c1.4,17.1,3,34.3,4.5,50.6c2.7,1.2,3.9,2.1,5.1,2.2c31.2,2.3,62.3,4.7,93.5,6.7
		c26.5,1.7,53.1,2.9,79.7,4.3c12,0.6,23.9,1,35.9,1.8c27.2,1.9,54.3,4.5,81.5,6.1c37.8,2.3,75.7,3.9,113.5,5.9
		c12.5,5,21.5-1.7,30.8-8.5c25.2-18.6,50.5-37,76-55.1c6.4-4.5,12.4-10.2,21.4-11.2c7.1,4.1,14.8,8.2,22.1,12.9
		c54.3,35,108.7,69.9,162.9,105.1c30,19.5,29.9,19.7,65.1,17.7c0.7,0,1.3-0.1,2-0.1c32.6-1.3,65.1-2.8,97.7-3.8
		c29.3-0.9,58.6-1.1,87.9-1.8c3.3-0.1,6.8-0.1,9.9-1.1c9.6-2.9,18.5-0.8,27.1,3.3c19.3,9.1,38.3,18.7,57.7,27.5
		c9.2,4.2,14.5,10.4,17.3,20.3c5.2,18.6,11.3,36.9,17.3,55.3c2.2,6.9,3.8,14.7,8,20.3c8.8,11.5,14.3,23.7,15.1,38.1
		c0.1,1.3,0.8,2.6,0.9,3.9c0.8,7.2,5,11.9,11,15.7c7.3,4.7,14.2,9.9,21.3,14.8c4.7,3.2,7.7,7.4,7.6,13.2c-0.1,17.3,2,34.7-3.3,51.6
		c-9.2,29.3-14.6,59.4-21.1,89.4c-3.8,17.6-8.8,34.9-12.4,52.5c-2.7,13-5.6,26.3-5.6,39.4c0.2,27.9,2.1,55.8,3.5,83.7
		c1.3,26.7-2.3,53.2-5.1,79.6c-0.8,7.8-3.7,15.5-6.4,22.9c-4.6,12.5-10.4,24.6-14.7,37.1c-7.4,21.4-14.2,43-21,64.6
		c-6.4,20.3-13.1,40.7-15.2,61.9c-2.2,22.5-10.5,42.5-21.1,61.9c-3.8,6.9-8.2,13.5-12.7,21c1.5,3.4,2.9,7.1,4.8,10.6
		c21.1,38.6,42.1,77.1,63.4,115.6c45.5,82.1,91.2,164.2,136.7,246.2c38.1,68.7,76.2,137.4,114.5,206c2.6,4.6,5.5,9.3,9.2,13
		c14,14.3,28.2,28.3,42.6,42.3c11.9,11.6,24,23.1,36.1,34.5c4.1,3.9,6.2,8.4,6,14.2c-0.2,8.5-0.1,17.1-0.1,26
		c6.7,2.8,12.7,5.6,18.8,8c17.3,6.8,34.6,13.9,52.1,20.2c11.1,4,17.9,10.9,19.5,22.7c0.5,3.3,1.5,6.5,2.2,9.7
		c9.1,38.2,18.2,76.4,27.2,114.6c1.7,7.2,3.9,14.1,11.3,19.7c10.9,0,22.9-0.6,34.8,0.1c19.1,1.3,35.2-5.3,49.7-17
		c7.8-6.3,15.2-12.9,23.3-18.8c18-13.1,19.9-11.8,35-0.8c3.2,2.4,6.4,4.8,9.7,7.1c29.2,21,58.3,42.1,87.6,63c3,2.2,6.2,5.6,11.4,1
		c0-10.5,0.7-21.8-0.2-33.1c-1.1-14.6,3-27.3,9.7-40c4.3-8.2,9.8-13.9,18.3-17.2c16.7-6.5,33.2-13.6,51-17.2
		c8.8-1.8,18.5-2.7,25.4-8.9c0.6-17.5,0.3-18.5-5.4-33.9c-2.1-5.6-4.4-11.2-5.3-17c-1-6.5,6.3-11.3,12.1-8.1
		c5.3,2.8,10,6.5,15.1,9.7c11.2,7.2,17.3,6.7,26.3-3c7.7-8.3,15.1-16.9,22.3-25.6c15.5-18.8,34.2-33.6,55.6-44.8
		c8.1-4.2,17.4-7.9,26.3-8.3c17.2-0.9,34.7-0.4,51.8,1.5c21.8,2.4,43.3,7.2,65.1,10.1c21.9,2.9,43.7,2,64.9-5.3
		c32.7-11.3,65.5-22.4,98.1-34c8.7-3.1,16.5-3.6,25,0.3c16.9,7.8,34.5,14.3,51,22.8c14.3,7.3,29,13.3,43.6,19.7
		c31.1,13.6,62.9,25.4,94.9,36.9c5.5,2,11.5,3.9,17.3,3.8c7.9-0.1,15.8-1.8,23.6-3.3c17.5-3.4,31.2-14.4,45.3-24.2
		c2.5-1.7,3.7-5.4,5.2-8.4c6.6-13.1,14-25.9,19.3-39.5c7.3-19,21-32.6,36.4-44c17.1-12.6,35.4-23.7,55.5-31.5
		c19.8-7.7,39.4-16.1,59.1-24.3c6.1-2.6,12-5.7,18-8.5c20.6-9.8,38.9-23.2,56.6-37.3c7.4-5.9,15.3-10.6,24.2-13.6
		c6.6-2.3,12.9-2.6,19.3,0.3c6.7,3,13.4,5.9,20.1,8.8c23.1,9.7,47.2,16.2,72,11.8c32.8-5.8,65.2-14.3,94.3-31.5
		c18.4-10.9,35.7-23.4,47.6-41.8c18.5-28.6,29.5-59.5,28.7-94c-0.3-11.4,0.1-22.6,3.7-33.6c3.2-9.7,5.9-11.8,15.9-10.3
		c21.2,3.3,42.6,3.7,63.8,1.8c29.8-2.8,59.4-6.8,89-10.9c28.3-4,56.7-8.2,84.7-13.6c11.8-2.3,22.1-0.9,32.9,3.2
		c7.6,2.8,12.2,7.4,13.7,15.5c2.5,13.1,6.1,26,8,39.1c1.2,8.8,4.8,16.5,8.1,24.5c2.5,6.2,6.2,9.8,12.5,11.5c5.8,1.5,11.2,4.3,17,5.7
		c24.2,5.8,48.4,9,72.7-0.2c4.8-1.8,10.5-2.8,15.6-2.2c13.8,1.6,27.7,3.8,41.3,6.6c17.6,3.6,35,8.3,52.6,11.9
		c8.3,1.7,16.7,4.6,25.8,3.1c6.1-10.7,5.9-23.2,9.7-34.4c2.1-6.2,0.9-11.8-3.2-16.9c-1.7-2.1-2.7-4.6-4.4-6.7
		c-7.8-9.5-9.4-20.2-6.8-31.8c0.6-2.6,0.9-5.3,1.6-7.8c4-13.7,1.7-26.3-7-37.6c-1.2-1.6-1.9-3.5-2.9-5.2c-5.9-10-9-20.4-8.1-32.3
		c0.8-10.5,0.2-21.2,0.2-30.6c-2.9-2.6-4.1-4.7-5.8-5.2c-13.9-3.4-19.6-15.2-26.3-25.9c-3.5-5.5-3.6-11.4,0.4-16.9
		c1.9-2.7,4.4-5.1,5.9-8c4-7.5,4.8-13.3-3.2-19.1c-5.4-3.9-10.4-8.4-15.2-12.9c-4.5-4.3-6.4-9.3-6.2-16c0.7-16.1-1.1-31.6-14.4-43.6
		c-5.4-4.9-8.9-11.8-7.9-19.7c2.1-16.1-3.7-30-11.3-43.6c-2.3-4-4.7-8.4-5.5-12.8c-2.9-17.8-13.4-29.8-28-39.1
		c-1.1-0.7-1.9-1.9-3-2.6c-12.5-7.9-20.3-18.6-23.1-33.4c-1.9-9.8-5.8-19-13.7-25.2c-19.6,2.9-19.8,3.1-36.3-6.4
		c-8.3-4.8-16.6-8.1-26.4-7c-8.3,0.9-15.7-1.7-22.2-7.1c-6.8-5.7-14.5-8.8-23.4-10.3c-26.5-4.4-48.3-17.9-66.7-37.2
		c-5.8-6.1-9.5-13-8.7-21.5c1.1-11.1-2.6-21.1-7.3-30.7c-3.6-7.4-4.9-15-5.1-23.2c-0.7-25.3-3.9-50.5-10.9-74.8
		c-4.6-15.9-11.2-31.6-26-41.4c-7.8-5.2-12.1-12-13.2-21.2c-0.4-3.2-1.9-6.2-2.8-8.9c-14.5-8.4-29.7-10.1-45.1-9.4
		c-16.4,0.7-31.6-2.4-46.6-8.7C6801.4,3237.6,6791.2,3234.6,6781.4,3231.1z M2709.3,1567.9c7.8,1.2,14.3,3,20.8,3
		c36.6,0.1,73.2,1.9,109.7-0.9c10.5-0.8,16,3.4,20.6,11.8c14.8,26.9,28.7,54.1,35.1,84.5c0.8,3.9,2,7.7,3.1,11.6
		c6.5,23,13.1,46.1,19.6,69.1c4.4,15.7,4.1,16.6-9.8,26.1c-5.5,3.8-11.2,7.1-16.8,10.8c-12.8,8.2-25.5,16.6-37.7,25.2
		c0,3.9-0.3,6.6,0,9.2c2.5,21.1,5.7,42.1,7.5,63.3c0.7,7.8,2.8,14,7.6,19.9c44.5,55.6,89,111.2,133.3,166.9
		c3.8,4.8,7.9,8.8,13.5,11.4c6.7,3,13.2,6.5,19.7,9.8c9.9,5,19.8,5.8,30.8,3.2c18.7-4.4,37.7-8.6,56.8-10.7
		c15.7-1.7,32.1-3.5,47.5,2.2c27.5,10.1,54.8,20.7,82,31.6c37.7,15,74.2,33.2,114.6,40.4c0.7,0.1,1.3,0.3,1.9,0.4
		c5.4,1.5,9.5,4.5,11.8,9.8c2.4,5.4,4.9,10.7,7.9,17.1c9.8-1.6,19.4-1.7,27.8-5c9.7-3.8,19.3-4.6,29.2-3.8
		c9.3,0.7,18.6,1.5,27.7,3.2c7.5,1.4,14.2,0.5,21.3-2.4c7.5-3.1,14.2-6.9,20.1-12.6c4.8-4.5,10.4-8.3,16-11.9
		c19.7-12.4,40.8-22.4,59.3-36.9c5.5-4.3,13-6.5,19.9-8.5c7.8-2.3,14.8-5.5,20.9-11c3.5-3.1,7.6-5.5,10.9-8.8
		c10-10.1,21.6-13.3,36-13.1c103.3,1.4,206.6-0.5,309.9,1.7c86.6,1.8,173.3,0.4,260,0.3c4.5,0,9-0.6,15.3-1
		c-1.8-4.3-2.3-7.7-4.3-9.8c-6.5-6.7-13.3-13.1-20.4-19.1c-16.7-14.3-32.8-29.1-47.3-45.7c-10.1-11.5-14.4-24.8-18.7-39.8
		c13.3-10.4,28.1-18.5,38.7-30.9c-0.5-8.6-4.8-14.3-10.1-19.6c-8.5-8.5-17.3-16.7-25.3-25.6c-6.2-6.9-13.5-13.9-16.5-22.2
		c-7.1-19.4-21.8-29.2-39.5-36.5c-4.3-1.8-8.5-3.9-12.8-5.6c-15.8-6.1-28.9-16-41.7-26.6c-2.1-13-3.2-25.7-6.4-37.8
		c-2.7-10.2-0.6-18.1,5.9-25.8c3.4-4,5.8-8.8,8.4-12.9c-1-5.9-1.9-11.1-2.8-16.5c-5.6-2.5-11-4.9-17.5-7.8c1.9-6.2,3.1-12,5.4-17.4
		c3.5-8.6,8.1-16.8,11.4-25.5c3.8-9.9,8.2-20,9.3-30.3c0.9-8.2,3-15.4,6.3-22.7c4.8-10.8,9.5-21.5,14.1-31.9
		c-2.1-1.8-2.9-3.1-4.1-3.4c-16.6-4.8-33.3-9.6-50-14c-3.1-0.8-6.5-0.4-9.8-0.5c-11.5-0.2-22,2-32.2,8.5
		c-22.4,14.2-45.7,9.9-65.9-3.3c-41.3-26.9-81-56.2-121.6-84.1c-7.1-4.9-11.2-11-13.5-19c-2.7-9.6-5.7-19.1-8.9-28.6
		c-1.2-3.7-2.5-7.9-5.2-10.4c-18.4-17.5-37.8-33.2-62.9-40.8c-22.3-6.7-44.1-15.1-66.2-22.4c-8.6-2.8-14.5-7.9-19.7-15.6
		c-8.8-13.1-13.3-27.6-17.5-42.2c-5.7-19.6-15.3-36.6-29.6-51.2c-7.2-7.3-15-12.9-25.1-15.4c-5.8-1.4-11.6-3.2-16.9-6
		c-21.8-11.5-43.2-23.7-65-35.1c-9-4.7-14-11.6-16.9-21c-4.9-15.7-3.9-31.8-2.1-47.5c2.7-23.3,4-46.6-2.3-69.3
		c-5.1-18.4-0.6-34.3,8.7-49.4c16.5-26.7,31.3-54.2,45.4-82.2c8.2-16.2,19.8-29.3,36.8-38c14.7-7.5,27.9-18,41.8-27.2
		c7.4-4.9,12.4-11.6,16.7-20.1c-5.2-6.7-9.8-13.1-14.8-19.2c-6.3-7.7-13-15.1-19.2-22.9c-2.7-3.4-1.8-8.5,1.8-10.6
		c4.6-2.6,9.4-5,14.4-6.6c20.2-6.7,40.5-13,60.8-19.7c7.5-2.5,15.6-3.9,22.4-11.3c-4.2-6.9-8.7-14.1-12.7-20.6
		c0.9-9.4,3.7-18.3,2.3-26.4c-3.2-19-8.4-37.6-12.9-56.6c-20-11.3-41.6-17.3-63.4-15.2c-31.1,3-61,0.8-90.6-8.2
		c-17.3-5.2-33.7-12-48.9-26.3c1.1,8.4,1.9,14.6,2.9,22.2c-7.3,0-10.5,4.6-13.6,10.1c-3.3,5.8-7.7,10.9-15.2,11.8
		c-11.2,1.3-22.3,3.3-33.5,4.2c-5,0.4-9.6,0.8-11.8,5.6c-2.1,4.7,2.8,6.8,4.8,10c0.7,1.1,1,2.4,1.6,4.1c-1.5,5.4-3.2,11.1-4.7,16.9
		c-4.2,16.6-17.9,23.7-31.4,30.9c-2.1,1.1-5.4,1.2-7.8,0.4c-6.2-1.9-13.2-2.1-18.1-7.7c-0.3-4.7-0.3-9.4-0.8-14
		c-1.1-8.9-7.7-11.9-15.9-7.4c-5.8,3.2-11.4,6.9-17.5,9.3c-26.4,10.2-53.9,14.8-82.2,12.6c-20.7-1.6-41.3,0.5-61.6,4.2
		c-19,3.4-38,8.1-54.2,19.3c-10.9,7.5-25.7,7.2-34.5,18.5c-1.3,1.7-5,2.2-7.5,2.1c-8-0.4-14,3.5-19.7,8.2
		c-20.4,16.9-44.2,27-69.6,33.6c-7.2,1.9-13.2,4.6-19,9.9c-12.2,11.2-24.9,22-42.4,24.9c-3.1,0.5-5.6,4.8-8.7,7.6
		c8.6,20.5,15.7,40.5,28.3,58c11.4,15.9,17.3,34.4,24.7,52.2c1.4,3.5,2.1,8,1.1,11.6c-5.6,20.4-9.4,41.6-26.6,56.9
		c-7.6,6.8-12.2,15.6-14.3,25.8c-2.8,13.5-14,20.7-23.2,29.1c-6.4,5.9-15.2,3.7-23.1,3.8c-4,0-7.9-0.8-11.9-1.1
		c-7.6-0.4-12.7,5.3-11,12.7c0.7,3.2,2.3,6.2,3.6,9.2c9.8,22.6,19.7,45.1,29.6,67.7c5.3,12.2,10.8,24.3,15.9,36.6
		c4.3,10.4,1.8,16.1-9,20.1c-8.1,3-16.3,5.2-25.2,5.2c-17.4,0.1-34.6-0.9-51.6-4.2c-8-1.5-15.3-4.1-22-8.7
		c-10.4-7.1-21.6-13.2-31.8-20.7c-10.6-7.8-22.6-8.9-34.3-6.3c-13.4,3-26.9,7.2-37.6,16.4c-1,31.2-2.3,61.8-3,92.4
		c-0.9,40.6-1.4,81.2-2,121.8c0,2,0.1,4-0.2,6c-3.8,25.2-1.1,50.6-1.9,75.8c-0.2,6.5,2.2,11.3,7.4,15.5c9.3,7.5,18,15.9,27.3,23.3
		c5.8,4.6,8.1,10,7.9,17.2C2709.1,1545.8,2709.3,1555.7,2709.3,1567.9z M3265.6,455.3c-15.3-11.5-29.2-20.8-41.7-31.7
		c-8.2-7.2-17-12.7-27-16.6c-14.3-5.6-28.6-10.9-42.9-16.4c-7.7-2.9-15.5-3.4-25-1c-2.9,5.6-7.2,11.7-9.3,18.5
		c-5.1,16.2-14.1,30.1-24.1,43.4c-25.6,34-50.2,68.9-81.1,98.5c-8,7.7-14.7,16.8-21.5,24.8c14.9,35.8,63.8,131.5,73.3,143.4
		c8.6-0.3,16.2-4.3,23.7-8.7c22.8-13.5,47.7-20.5,73.9-22.3c21.9-1.5,43.9-1.7,65.8-2c23.8-0.2,46-6.6,67.7-15.4
		c3-1.2,4.9-5.1,7-7.5c-6.2-9.7-18.6-10.2-23.7-20.9c12.3-10,24.1-19.7,35.9-29.2c14.5-11.6,29.7-22.6,42-36.7
		c11.8-13.5,24-26.7,35.7-40.3c2.3-2.7,3.2-6.6,5.3-11c-10.2-3.3-18.8-7-27.8-8.9c-12.4-2.6-22.2-8.5-29.9-18.4
		c-1.1-1.4-2.9-2.4-4.6-3.7c-7.2,3.7-14.2,7.2-21.6,10.9c-6.4-5.8-12.2-11-18.2-16.4c-7,4.2-13.2,8-19.4,11.8
		c-5.7,3.4-11.3,7.2-17.3,10c-2.6,1.2-6.8,1.3-9.2-0.1c-2.3-1.3-3.1-5.1-4.3-7.5c7.1-9.4,19.5-11.3,24-22.1
		C3269,471.8,3254.7,467.3,3265.6,455.3z M3406,608.2c14.5,1,15.5,0.7,41.6-12.3c-8.1-24.6-17.9-48-40.4-65
		c-6.7,7.3-13.2,13.9-19.2,21c-21.6,25.2-43.9,49.7-71.4,68.8c-6.5,4.5-12.4,10-18.6,15c-2.4,2-5.9,3.4-5,8.7
		c6.1,5.9,14.1,10.6,22.1,15c3.2,1.8,7.1,2.2,11.5,3.4c5.8-13,11.2-25.1,16.5-37.2c2.2-5,4.9-10,10.9-10.4
		c11.6-0.8,15.8-7.9,17.5-18.1c0.5-3.1,2.1-6.1,3.4-9.6c12.5-2.8,23.8-2.8,34.7,5.9C3408.4,598.4,3407.2,603.2,3406,608.2z
		 M3399.2,596.9c-5.2-6.4-11.9-6.3-19.7-4c-2.8,6.7-4.5,13.2-2,20.2C3395.2,612.9,3395.2,612.9,3399.2,596.9z"/>
	<path id="_x31_132" class="st0" d="M6781.4,3231.1c9.8,3.4,20,6.4,29.7,10.5c15,6.3,30.2,9.4,46.6,8.7c15.3-0.7,30.6,1,45.1,9.4
		c0.9,2.7,2.4,5.7,2.8,8.9c1.1,9.2,5.4,16.1,13.2,21.2c14.8,9.8,21.5,25.4,26,41.4c7,24.3,10.2,49.5,10.9,74.8
		c0.2,8.2,1.5,15.8,5.1,23.2c4.7,9.6,8.3,19.5,7.3,30.7c-0.8,8.5,2.9,15.4,8.7,21.5c18.4,19.3,40.1,32.8,66.7,37.2
		c8.9,1.5,16.6,4.7,23.4,10.3c6.5,5.4,13.9,8,22.2,7.1c9.8-1.1,18.1,2.2,26.4,7c16.5,9.6,16.6,9.3,36.3,6.4
		c7.9,6.2,11.8,15.4,13.7,25.2c2.8,14.8,10.6,25.6,23.1,33.4c1.1,0.7,1.9,1.9,3,2.6c14.6,9.3,25.1,21.3,28,39.1
		c0.7,4.5,3.2,8.8,5.5,12.8c7.6,13.6,13.4,27.5,11.3,43.6c-1,7.9,2.5,14.9,7.9,19.7c13.3,12,15.1,27.4,14.4,43.6
		c-0.3,6.7,1.6,11.8,6.2,16c4.8,4.5,9.8,9,15.2,12.9c8.1,5.9,7.2,11.6,3.2,19.1c-1.5,2.9-4,5.3-5.9,8c-4,5.5-3.8,11.4-0.4,16.9
		c6.7,10.6,12.3,22.4,26.3,25.9c1.7,0.4,3,2.6,5.8,5.2c0,9.4,0.6,20-0.2,30.6c-0.9,11.9,2.2,22.3,8.1,32.3c1,1.7,1.7,3.7,2.9,5.2
		c8.7,11.4,11,23.9,7,37.6c-0.7,2.5-1,5.2-1.6,7.8c-2.6,11.7-1,22.4,6.8,31.8c1.7,2,2.8,4.6,4.4,6.7c4.1,5.1,5.3,10.7,3.2,16.9
		c-3.8,11.2-3.6,23.7-9.7,34.4c-9.1,1.5-17.5-1.4-25.8-3.1c-17.6-3.6-35-8.3-52.6-11.9c-13.7-2.8-27.5-5-41.3-6.6
		c-5.1-0.6-10.8,0.4-15.6,2.2c-24.3,9.2-48.5,6-72.7,0.2c-5.8-1.4-11.3-4.2-17-5.7c-6.4-1.7-10.1-5.4-12.5-11.5
		c-3.2-8-6.8-15.6-8.1-24.5c-1.8-13.1-5.5-26-8-39.1c-1.5-8.1-6.1-12.7-13.7-15.5c-10.8-4.1-21.1-5.5-32.9-3.2
		c-28.1,5.5-56.4,9.7-84.7,13.6c-29.6,4.2-59.3,8.1-89,10.9c-21.2,2-42.6,1.5-63.8-1.8c-10-1.5-12.7,0.6-15.9,10.3
		c-3.6,11-4,22.2-3.7,33.6c0.8,34.5-10.2,65.4-28.7,94c-11.9,18.4-29.2,30.9-47.6,41.8c-29.1,17.3-61.5,25.7-94.3,31.5
		c-24.8,4.4-48.9-2.1-72-11.8c-6.7-2.8-13.5-5.8-20.1-8.8c-6.4-2.9-12.7-2.6-19.3-0.3c-8.9,3.1-16.8,7.8-24.2,13.6
		c-17.8,14.1-36,27.5-56.6,37.3c-6,2.9-11.9,5.9-18,8.5c-19.6,8.2-39.2,16.6-59.1,24.3c-20.1,7.8-38.4,18.9-55.5,31.5
		c-15.5,11.4-29.1,25-36.4,44c-5.2,13.6-12.7,26.4-19.3,39.5c-1.5,3-2.7,6.6-5.2,8.4c-14.1,9.9-27.8,20.8-45.3,24.2
		c-7.8,1.5-15.8,3.2-23.6,3.3c-5.8,0.1-11.7-1.8-17.3-3.8c-32-11.5-63.8-23.3-94.9-36.9c-14.6-6.4-29.3-12.4-43.6-19.7
		c-16.6-8.5-34.1-15-51-22.8c-8.5-3.9-16.3-3.4-25-0.3c-32.6,11.7-65.4,22.7-98.1,34c-21.2,7.3-43,8.2-64.9,5.3
		c-21.7-2.9-43.3-7.7-65.1-10.1c-17.1-1.9-34.6-2.4-51.8-1.5c-8.9,0.5-18.3,4.1-26.3,8.3c-21.4,11.2-40.1,26-55.6,44.8
		c-7.2,8.7-14.6,17.3-22.3,25.6c-9,9.7-15.1,10.2-26.3,3c-5-3.2-9.8-6.9-15.1-9.7c-5.8-3.1-13.1,1.7-12.1,8.1
		c0.9,5.8,3.2,11.4,5.3,17c5.8,15.3,6,16.4,5.4,33.9c-6.9,6.2-16.5,7.1-25.4,8.9c-17.8,3.6-34.3,10.7-51,17.2
		c-8.5,3.3-14,9-18.3,17.2c-6.6,12.7-10.8,25.4-9.7,40c0.8,11.2,0.2,22.6,0.2,33.1c-5.2,4.6-8.3,1.1-11.4-1
		c-29.2-20.9-58.4-42-87.6-63c-3.2-2.3-6.4-4.7-9.7-7.1c-15.1-11-17-12.3-35,0.8c-8.1,5.9-15.5,12.5-23.3,18.8
		c-14.5,11.7-30.5,18.3-49.7,17c-11.9-0.8-23.9-0.1-34.8-0.1c-7.4-5.7-9.6-12.5-11.3-19.7c-9.1-38.2-18.2-76.4-27.2-114.6
		c-0.8-3.2-1.8-6.5-2.2-9.7c-1.6-11.8-8.4-18.7-19.5-22.7c-17.5-6.3-34.8-13.4-52.1-20.2c-6.1-2.4-12.2-5.1-18.8-8
		c0-8.9-0.2-17.5,0.1-26c0.1-5.7-1.9-10.3-6-14.2c-12.1-11.4-24.2-22.9-36.1-34.5c-14.3-14-28.6-28-42.6-42.3
		c-3.7-3.7-6.6-8.4-9.2-13c-38.2-68.6-76.3-137.4-114.5-206c-45.6-82.1-91.2-164.1-136.7-246.2c-21.3-38.4-42.3-77-63.4-115.6
		c-1.9-3.4-3.3-7.1-4.8-10.6c4.5-7.5,8.9-14.1,12.7-21c10.6-19.4,18.9-39.4,21.1-61.9c2.1-21.2,8.8-41.6,15.2-61.9
		c6.8-21.6,13.6-43.2,21-64.6c4.3-12.6,10.1-24.6,14.7-37.1c2.7-7.4,5.6-15.1,6.4-22.9c2.8-26.4,6.5-52.9,5.1-79.6
		c-1.4-27.9-3.4-55.8-3.5-83.7c-0.1-13.1,2.9-26.4,5.6-39.4c3.6-17.6,8.5-34.9,12.4-52.5c6.5-29.9,11.9-60.1,21.1-89.4
		c5.3-16.9,3.1-34.3,3.3-51.6c0-5.8-3-10-7.6-13.2c-7.1-4.9-14-10.1-21.3-14.8c-5.9-3.8-10.1-8.5-11-15.7c-0.2-1.3-0.9-2.6-0.9-3.9
		c-0.7-14.4-6.3-26.6-15.1-38.1c-4.2-5.6-5.8-13.3-8-20.3c-6-18.4-12.1-36.7-17.3-55.3c-2.7-9.8-8-16.1-17.3-20.3
		c-19.4-8.8-38.4-18.4-57.7-27.5c-8.6-4.1-17.5-6.1-27.1-3.3c-3.1,0.9-6.6,1-9.9,1.1c-29.3,0.6-58.6,0.9-87.9,1.8
		c-32.6,1-65.1,2.5-97.7,3.8c-0.7,0-1.3,0.1-2,0.1c-35.2,2-35.1,1.8-65.1-17.7c-54.2-35.2-108.5-70.2-162.9-105.1
		c-7.3-4.7-14.9-8.7-22.1-12.9c-9.1,1-15.1,6.7-21.4,11.2c-25.5,18.1-50.8,36.6-76,55.1c-9.3,6.9-18.4,13.5-30.8,8.5
		c-37.8-1.9-75.7-3.6-113.5-5.9c-27.2-1.6-54.3-4.2-81.5-6.1c-11.9-0.9-23.9-1.2-35.9-1.8c-26.6-1.4-53.1-2.6-79.7-4.3
		c-31.2-2-62.3-4.4-93.5-6.7c-1.2-0.1-2.4-1-5.1-2.2c-1.5-16.3-3.1-33.5-4.5-50.6c-0.5-5.6,1.3-10.5,5.6-14.4c2.5-2.3,4.6-4.9,7.1-7
		c18.9-15.9,30.1-36.7,38.5-59.6c5.4-14.8,4.5-27.3-7.4-38.2c-4.4-4-8.8-8.1-13.5-11.9c-20.1-16.4-40.5-32.5-60.5-49.1
		c-5.6-4.6-10.8-10-14.9-15.9c-21.6-31.3-41.5-63.6-55.3-99.2c-3.1-8.1-4.9-15.7-3.9-24.9c2.5-24.6-1.1-49.1-4-73.6
		c-0.6-5.4-4.5-11-8.3-15.4c-7.4-8.5-15.8-16.3-23.8-24.2c-7.1-7-13.1-14.7-16.4-25.6c5-1.3,9.4-2.7,13.8-3.6
		c3.2-0.7,7.1,0.2,9.8-1.2c18.1-9.6,36.8-4.9,54.8-1.5c15.5,2.9,28.2-2,38.7-10.6c15.5-12.9,32.1-23.5,49.8-32.9
		c9.9-5.3,19.1-12.1,28.4-18.6c7.7-5.4,15.6-9.7,25.1-11.6c5.6-1.1,11.1-4.3,15.9-7.7c7.6-5.4,14.6-11.6,21.7-17.6
		c5.3-4.6,11.1-7,18.2-6.4c4,0.3,8,0,12,0c68.7,0,137.4-1.6,206,0.4c115.3,3.3,230.6,0.9,345.9,2c10,0.1,20,0.7,30,0.8
		c2.4,0,4.9-0.9,8.6-1.6c-1.6-11.2-6.6-19.4-14.1-26.2c-14.8-13.4-29.9-26.4-44.5-40c-8.2-7.7-16.5-15.6-23.2-24.6
		c-5.9-7.8-9.9-17.2-10.5-27.6c12.2-11.6,27.7-18.8,38.4-31.7c-1.3-10-5.7-17.8-12.7-24.5c-5.8-5.5-11.1-11.6-17.1-16.9
		c-13.8-12.1-24.3-26.6-31.1-43.4c-3.5-8.7-9.3-14.1-17.6-17.7c-11.6-5.1-23.2-10.2-34.4-16.1c-9.9-5.3-19.4-11.5-28.9-17.5
		c-4.7-3-7.2-7.5-8-13.2c-1.2-9.2-2.5-18.4-4.2-27.6c-1.4-7.6-0.9-14.7,4.6-20.6c10.9-11.6,11.6-24.6,5.6-39.4
		c-4.2-1.7-8.9-3.6-14.3-5.7c2-10.7,6.8-19.4,10.9-28.3c6.9-15.1,14.6-29.7,14.3-47.2c-0.1-5.5,3.8-11.2,6.3-16.7
		c4.6-10.2,9.5-20.3,14.5-31c5.1,0.8,8.9,1.6,12.7,2.1c5.9,0.8,11.8,2,17.8,2.2c19.4,0.6,19.4,0.5,32.6-13.6
		c5.5-1.4,10.6-0.3,15.1,3c12.2,8.6,25.6,10.5,41.3,7.2c1.8-2.1,5.1-4.8,6.8-8.2c5.8-12.1,15.6-19.9,27.4-24.9
		c14.2-6,24.4-15.7,32-28.8c3-5.2,7.1-9.7,10.3-14.7c8.5-13,18.7-23.9,32.7-31.5c11.4-6.1,11.9-10.6,6.8-23.1
		c-3-7.4-6.8-14.6-8.5-22.3c-2.2-10-8.1-14.8-17.5-16.6c-6-1.2-11.9-2.4-14.9-10.6c4.8-7.4,10.2-15.5,15.6-23.9
		c-3.7-15.3-17.3-25.5-20.3-41.1c8.6-2.4,16.7-4.8,24.9-7c9.1-2.5,15.3-7.6,17.3-17.3c0.5-2.5,2.2-4.8,3.8-8.3
		c3,2.3,5.9,3.8,7.8,6.1c6,7.1,11.8,14.5,17.4,21.8c9.8,12.7,20.6,24.3,34.1,33.3c4.4,2.9,8.2,6.7,12.3,10.1
		c8.1,6.6,12.2,15.2,14.1,25.5c2.4,13.1,6.1,25.9,9.4,38.8c2.7,10.5,9,19.2,14.8,28.1c3.8,5.8,9.4,9.6,15.9,11.5
		c14.7,4.3,29.4,8.4,44.2,12.1c11.6,2.9,23.3,5.6,35.1,7.7c15.1,2.7,27,10.2,37,21.7c13.1,15.1,26.5,29.9,40,44.6
		c25.4,27.6,56.7,45.8,91.7,58.4c34.5,12.4,68.8,25.2,103.2,37.7c5.1,1.9,9.7,4.2,12.6,9.2c6.6,11.6,15.3,22.4,19.5,34.7
		c6.7,19.9,21.6,29.4,39.5,32.4c32.4,5.4,55,25.6,77.3,46.5c17.7,16.5,30.5,36.8,40,59.2c3.1,7.2,7.6,14.1,12.5,20.3
		c20.3,25.1,29.8,54.9,36.8,85.5c2.5,10.9,2,22.5,2.9,33.8c1.6,18.5,7.7,34.9,21.5,47.9c2.9,2.7,5.8,5.5,8.5,8.5
		c6.4,7.1,10.7,15.1,10.5,25.1c-0.3,21.7,9.7,38.2,26.2,51.4c19.3,15.4,38.9,30.2,62.6,38.5c6.2,2.2,12.5,4.6,19,5.9
		c11.1,2.1,19.8,7.7,26.7,16.3c7,8.9,13.8,18,20.4,27.2c4.5,6.3,10.1,10.5,17.8,11.8c2,0.3,3.9,1.2,5.8,1.4
		c15.7,1.3,24.9,11.9,32.2,24.1c2.9,4.9,4.9,11.3,4.6,16.9c-0.7,13.6,5.7,21.4,17.4,26.1c9.7,3.9,16.1,10.7,21.7,19.6
		c8,12.6,20.4,21,33.7,27.4c10.5,5.1,19.9,10.5,24,22.3c2.1,6,7.2,9.1,13.3,11c9.5,3,18.8,6.6,27.2,9.5c1.3,2.2,2.7,3.4,2.6,4.4
		c-1,13.7,5.3,21.1,18.7,23.5c7.4,1.3,13.9,4.8,16.5,12.8c2.1,6.3,7.1,9.8,12.9,11.5c13.7,4,25.2,11.9,37.1,19.2
		c9,5.5,19,9.5,28.7,14c5.5,2.6,11.1,5.3,13.2,11.4c5.1,15,15.5,24.3,30.1,29.7c1.8,0.6,3.1,2.4,5.5,4.2c0.5,9.3,1,19.2,1.5,30.3
		c1.1,0.8,2.6,2.2,4.4,3c13.6,5.8,17.9,16.2,16.9,30.5c-0.8,11.5-1.6,22.5-9,32c-7.6,9.7-4.5,20.3-1.3,30.5
		c1.5,4.8,5.5,7.4,10.7,7.6c2,0.1,4,0.3,6,0.1c16.4-1.2,31.9,0.9,45.5,11.2c11.7,1.9,23.1,7.2,35.2,3.9c12.5-3.5,22.1,1,30.5,9.7
		c3.2,3.4,6.9,6.4,9.8,10c12,15.3,27.9,21.6,46.9,21.4c3.1,0,6.4,1,9.2,2.3c7.2,3.4,14.1,7.2,22.2,11.4c3.4,20.6,22.8,22.1,39.2,29
		c0.4,3.6,1.5,7.5,1.2,11.3c-0.8,13.6,6.7,22.5,16.5,30.1c6.3,4.8,12.9,9.2,19.4,13.8c7.3,5.2,12.8,5,19.4-1.7
		c8.4-8.6,16.4-17.3,20-29.4c2.4-8.2,4.9-17,15.6-20c1.2,1.9,3.4,3.8,3.9,6.2c1.5,7.4,6.3,11.7,12.6,14.4
		c11.6,4.8,20.2,12.5,25.4,24.1c3.5,7.7,9.4,12.7,17.7,15c15.1,4.1,24.9,13.5,31.5,28c9.7,21.2,12.4,22,33.3,12
		c12.2-5.8,25-9.4,38-12c7-1.4,14.8-2.1,21.6-0.6c14.1,3.1,27.7,2.8,41.4-1c4.4-1.2,9-1.3,13.2-1.8c4.9,5.2,5.2,9.6,1.4,14.8
		c-12.6,17.1-12.5,17.2-1.7,34.6c0.4,0.6,0.7,1.1,1.1,1.7c15,24.4,10.8,25.4,46.7,21.8c9-5.6,10.6-18.4,22.2-23.6
		c11.9,10.4,27,17.9,30.8,36.1c2.5,11.8,10.3,19.7,21.3,24.7c7.8,3.6,15.4,7.8,22.5,11.4c10.5-6.2,10.5-6.2,17.5-22.4
		c8.7,1.1,15.7,5.6,21.2,12.3c4.7,5.6,5.6,11.9,1.4,18.5c-0.4,0.6-0.6,1.2-1,1.7c-12.9,14.7-6.7,28,2.4,41.6
		c5.2,7.9,12.2,11.3,20.3,8.2c14.7-5.5,28.9-2.7,43.1,0.5c16.9,3.8,33.7,7.9,50.3,12.6c4.8,1.4,9.3,4.8,13.4,8
		c5.7,4.4,10.8,9.5,17.1,15.2c2.5,4.9-0.4,10.5-1.8,16.2c-2.7,11.2-1.5,19.2,12.6,22.2c2.6,0.5,5,1.7,7.3,2.5
		c7,11.6,14,22.8,20.7,34.3c5.3,9.1,12.3,15.1,22.8,17.8c14.7,3.7,26.6,12,34.5,25.3c4.4,7.3,10.9,13.8,6.7,23.7
		c-0.9,2.1,0.1,5.3,0.7,7.8c1.1,4.5,5.9,7.8,10.6,7.3c2.6-0.3,5.4-0.6,7.7-1.8c8.9-4.8,17.2-1.9,24.7,2.5
		c11.3,6.6,15.2,13.4,13.4,26.3c-2.6,19-2.2,19,14.4,26.6c4.2,1.9,7.8,4.9,11.9,7.1c4,2.2,8.1,4.7,12.4,6.1
		c16.8,5.5,19.3,4.2,27.6-12.1c0.9-1.8,2.1-3.4,3.3-5C6777.8,3233.3,6778.5,3233.1,6781.4,3231.1z"/>
	<path id="_x31_131" class="st0" d="M2709.3,1567.9c0-12.2-0.2-22.1,0.1-32c0.2-7.2-2.1-12.6-7.9-17.2c-9.4-7.4-18-15.8-27.3-23.3
		c-5.2-4.1-7.6-9-7.4-15.5c0.8-25.3-1.9-50.6,1.9-75.8c0.3-2,0.2-4,0.2-6c0.7-40.6,1.1-81.2,2-121.8c0.7-30.6,1.9-61.2,3-92.4
		c10.6-9.2,24.1-13.5,37.6-16.4c11.6-2.6,23.6-1.5,34.3,6.3c10.2,7.5,21.4,13.6,31.8,20.7c6.8,4.6,14,7.2,22,8.7
		c17.1,3.3,34.3,4.3,51.6,4.2c8.9-0.1,17.2-2.2,25.2-5.2c10.8-4,13.3-9.6,9-20.1c-5.1-12.3-10.5-24.4-15.9-36.6
		c-9.9-22.6-19.7-45.1-29.6-67.7c-1.3-3-2.9-6.1-3.6-9.2c-1.7-7.4,3.4-13.1,11-12.7c4,0.2,7.9,1.1,11.9,1.1
		c7.9-0.1,16.7,2.1,23.1-3.8c9.2-8.4,20.4-15.6,23.2-29.1c2.1-10.1,6.7-19,14.3-25.8c17.1-15.2,20.9-36.5,26.6-56.9
		c1-3.5,0.3-8.1-1.1-11.6c-7.4-17.8-13.3-36.3-24.7-52.2c-12.6-17.5-19.7-37.5-28.3-58c3-2.8,5.6-7.1,8.7-7.6
		c17.5-2.8,30.2-13.6,42.4-24.9c5.7-5.3,11.7-8,19-9.9c25.3-6.6,49.1-16.7,69.6-33.6c5.8-4.7,11.7-8.6,19.7-8.2
		c2.5,0.1,6.2-0.4,7.5-2.1c8.8-11.3,23.6-11,34.5-18.5c16.2-11.2,35.2-15.8,54.2-19.3c20.3-3.7,40.9-5.8,61.6-4.2
		c28.4,2.2,55.8-2.3,82.2-12.6c6.1-2.4,11.7-6.1,17.5-9.3c8.2-4.5,14.8-1.5,15.9,7.4c0.5,4.6,0.6,9.3,0.8,14
		c4.9,5.5,12,5.7,18.1,7.7c2.4,0.7,5.7,0.7,7.8-0.4c13.5-7.2,27.1-14.3,31.4-30.9c1.5-5.8,3.2-11.5,4.7-16.9c-0.6-1.7-0.9-3-1.6-4.1
		c-2-3.2-6.9-5.4-4.8-10c2.2-4.8,6.8-5.2,11.8-5.6c11.2-0.9,22.4-2.8,33.5-4.2c7.5-0.9,11.9-6,15.2-11.8c3.1-5.5,6.3-10.1,13.6-10.1
		c-1-7.6-1.8-13.8-2.9-22.2c15.2,14.3,31.6,21.1,48.9,26.3c29.7,9,59.6,11.2,90.6,8.2c21.8-2.1,43.4,3.9,63.4,15.2
		c4.5,19,9.7,37.6,12.9,56.6c1.4,8.2-1.3,17-2.3,26.4c4,6.5,8.4,13.7,12.7,20.6c-6.7,7.4-14.9,8.8-22.4,11.3
		c-20.2,6.7-40.6,13-60.8,19.7c-5,1.7-9.8,4-14.4,6.6c-3.6,2.1-4.5,7.3-1.8,10.6c6.2,7.8,12.9,15.2,19.2,22.9
		c5,6.1,9.7,12.5,14.8,19.2c-4.3,8.5-9.3,15.2-16.7,20.1c-13.9,9.2-27.1,19.7-41.8,27.2c-17,8.7-28.6,21.8-36.8,38
		c-14.1,28-28.9,55.5-45.4,82.2c-9.3,15.1-13.8,30.9-8.7,49.4c6.3,22.7,5,46,2.3,69.3c-1.8,15.7-2.8,31.8,2.1,47.5
		c3,9.4,7.9,16.3,16.9,21c21.8,11.4,43.2,23.6,65,35.1c5.2,2.8,11.1,4.6,16.9,6c10.1,2.5,17.9,8,25.1,15.4
		c14.4,14.6,23.9,31.6,29.6,51.2c4.3,14.6,8.7,29.2,17.5,42.2c5.2,7.7,11,12.7,19.7,15.6c22.1,7.3,43.9,15.7,66.2,22.4
		c25.1,7.5,44.5,23.3,62.9,40.8c2.7,2.5,4,6.8,5.2,10.4c3.2,9.5,6.2,19,8.9,28.6c2.3,8,6.4,14.1,13.5,19
		c40.6,27.9,80.4,57.2,121.6,84.1c20.2,13.2,43.5,17.5,65.9,3.3c10.1-6.5,20.7-8.7,32.2-8.5c3.3,0.1,6.7-0.4,9.8,0.5
		c16.7,4.5,33.3,9.2,50,14c1.1,0.3,2,1.6,4.1,3.4c-4.6,10.3-9.3,21.1-14.1,31.9c-3.2,7.3-5.4,14.5-6.3,22.7
		c-1.1,10.3-5.6,20.4-9.3,30.3c-3.3,8.7-7.9,16.9-11.4,25.5c-2.2,5.4-3.5,11.2-5.4,17.4c6.5,2.9,11.8,5.3,17.5,7.8
		c0.9,5.3,1.8,10.5,2.8,16.5c-2.7,4.1-5.1,8.9-8.4,12.9c-6.5,7.7-8.6,15.5-5.9,25.8c3.2,12.1,4.3,24.9,6.4,37.8
		c12.8,10.6,25.9,20.6,41.7,26.6c4.3,1.7,8.5,3.8,12.8,5.6c17.7,7.2,32.3,17,39.5,36.5c3.1,8.3,10.4,15.3,16.5,22.2
		c8,8.9,16.8,17.1,25.3,25.6c5.3,5.3,9.6,11,10.1,19.6c-10.6,12.4-25.3,20.4-38.7,30.9c4.3,15,8.6,28.3,18.7,39.8
		c14.5,16.6,30.6,31.4,47.3,45.7c7.1,6.1,13.9,12.5,20.4,19.1c2,2,2.5,5.5,4.3,9.8c-6.3,0.4-10.8,1-15.3,1
		c-86.7,0.1-173.3,1.5-260-0.3c-103.3-2.2-206.6-0.3-309.9-1.7c-14.4-0.2-26,3.1-36,13.1c-3.3,3.3-7.4,5.6-10.9,8.8
		c-6.1,5.5-13.1,8.7-20.9,11c-6.9,2-14.4,4.2-19.9,8.5c-18.5,14.5-39.7,24.4-59.3,36.9c-5.6,3.5-11.2,7.3-16,11.9
		c-5.9,5.6-12.6,9.5-20.1,12.6c-7.1,2.9-13.8,3.8-21.3,2.4c-9.1-1.7-18.4-2.5-27.7-3.2c-9.9-0.8-19.5,0-29.2,3.8
		c-8.4,3.3-18.1,3.4-27.8,5c-3-6.4-5.5-11.7-7.9-17.1c-2.3-5.3-6.4-8.4-11.8-9.8c-0.6-0.2-1.3-0.3-1.9-0.4
		c-40.4-7.2-77-25.3-114.6-40.4c-27.2-10.9-54.5-21.5-82-31.6c-15.4-5.7-31.8-3.9-47.5-2.2c-19.1,2-38.1,6.2-56.8,10.7
		c-11,2.6-20.9,1.8-30.8-3.2c-6.5-3.3-13-6.7-19.7-9.8c-5.6-2.6-9.7-6.6-13.5-11.4c-44.3-55.8-88.8-111.4-133.3-166.9
		c-4.8-5.9-6.9-12.1-7.6-19.9c-1.8-21.2-4.9-42.2-7.5-63.3c-0.3-2.6,0-5.3,0-9.2c12.2-8.6,24.9-16.9,37.7-25.2
		c5.6-3.6,11.3-7,16.8-10.8c13.8-9.5,14.2-10.4,9.8-26.1c-6.5-23.1-13-46.1-19.6-69.1c-1.1-3.8-2.3-7.7-3.1-11.6
		c-6.4-30.4-20.3-57.6-35.1-84.5c-4.6-8.4-10.1-12.6-20.6-11.8c-36.5,2.8-73.1,1-109.7,0.9
		C2723.6,1570.9,2717.1,1569.1,2709.3,1567.9z"/>
	<path id="_x31_134" class="st0" d="M3265.6,455.3c-11,12,3.4,16.6,5.7,24.6c-4.5,10.8-16.9,12.7-24,22.1c1.3,2.4,2.1,6.2,4.3,7.5
		c2.4,1.4,6.6,1.3,9.2,0.1c6-2.8,11.6-6.5,17.3-10c6.3-3.7,12.5-7.6,19.4-11.8c6,5.4,11.8,10.6,18.2,16.4
		c7.4-3.7,14.3-7.2,21.6-10.9c1.7,1.3,3.5,2.2,4.6,3.7c7.7,9.8,17.5,15.8,29.9,18.4c9,1.9,17.6,5.5,27.8,8.9c-2.1,4.4-3,8.3-5.3,11
		c-11.7,13.6-23.9,26.8-35.7,40.3c-12.4,14.1-27.5,25.1-42,36.7c-11.9,9.5-23.6,19.2-35.9,29.2c5.1,10.7,17.5,11.2,23.7,20.9
		c-2.1,2.3-4,6.3-7,7.5c-21.7,8.7-44,15.1-67.7,15.4c-22,0.2-43.9,0.4-65.8,2c-26.2,1.8-51.1,8.8-73.9,22.3
		c-7.5,4.4-15,8.4-23.7,8.7c-9.5-11.9-58.4-107.6-73.3-143.4c6.8-8,13.5-17.1,21.5-24.8c30.9-29.7,55.5-64.5,81.1-98.5
		c10-13.3,19.1-27.2,24.1-43.4c2.1-6.8,6.4-12.9,9.3-18.5c9.5-2.4,17.3-1.9,25,1c14.3,5.4,28.6,10.8,42.9,16.4
		c10,3.9,18.7,9.4,27,16.6C3236.4,434.5,3250.3,443.8,3265.6,455.3z"/>
	<path id="_x31_127" class="st0" d="M3406,608.2c1.2-4.9,2.4-9.8,3.6-14.8c-10.9-8.7-22.2-8.7-34.7-5.9c-1.3,3.5-2.9,6.5-3.4,9.6
		c-1.6,10.2-5.9,17.3-17.5,18.1c-6.1,0.4-8.7,5.4-10.9,10.4c-5.3,12.1-10.7,24.1-16.5,37.2c-4.4-1.2-8.3-1.6-11.5-3.4
		c-8-4.5-16-9.1-22.1-15c-0.9-5.3,2.6-6.7,5-8.7c6.1-5.1,12-10.5,18.6-15c27.5-19.1,49.8-43.5,71.4-68.8c6-7,12.5-13.7,19.2-21
		c22.5,17,32.3,40.4,40.4,65C3421.5,608.9,3420.5,609.2,3406,608.2z"/>
	<path id="_x31_128" class="st0" d="M3364.6,631.3c4.7-3.5,9.4-7,15.3-11.5c15.9-2,33.5-4.2,52.6-6.6c-1.5,2.7-2.1,5.1-3.1,5.3
		c-11,2-22.2,5.4-33.2,5c-14.4-0.5-22.2,5.9-27.9,18.9c3.6,2.5,7.2,5,11.5,8.1c-0.3,12.7-3.7,25.3-14.5,32.5
		c-8.5,5.7-18.1,15.9-32,3.9c-4-10.5-1.5-22.2,5.4-34c10.9-4.7,24.4-6.9,26.6-22.4L3364.6,631.3z"/>
	<path id="_x31_130" class="st0" d="M3300.4,479.4c-8.4,4.9-16.6,9.9-25.1,14.4c-1.8,1-4.7,0-7.1,0c0,0,0.5,0.5,0.5,0.5
		c4.1-4.1,8.1-8.1,12.3-12.3c-1.1-7.9-13.1-11.4-8.8-23c10.3,5.1,19.3,10.4,27.3,17.2c0.7,0.6,0.4,2.4,0.6,3.6
		C3299.9,479.9,3300.4,479.4,3300.4,479.4z"/>
	<path id="_x31_126" class="st0" d="M3399.2,596.9c-4,15.9-4,15.9-21.7,16.2c-2.5-7-0.8-13.5,2-20.2
		C3387.4,590.6,3394,590.5,3399.2,596.9z"/>
	<path id="_x31_129" class="st0" d="M3365.2,630.6c-5.9,4-11.8,8-18.8,12.8c-2.1-9.2,1.1-15.1,6.6-19.8c2.4-2.1,5.8-3.2,9.1-1
		c3.5,2.2,2.9,5.5,2.4,8.8C3364.6,631.3,3365.2,630.6,3365.2,630.6z"/>
</g>
</svg>
