<?xml version="1.0" encoding="utf-8"?>
<!-- Generator: Adobe Illustrator 19.0.0, SVG Export Plug-In . SVG Version: 6.00 Build 0)  -->
<svg version="1.1" id="Layer_1" xmlns="http://www.w3.org/2000/svg" xmlns:xlink="http://www.w3.org/1999/xlink" x="0px" y="0px"
	 viewBox="0 0 5400 2700" style="enable-background:new 0 0 5400 2700;" xml:space="preserve">
<style type="text/css">
	.st0{fill:#FFFFFF;}
</style>
<g>
	<path d="M2269.5,928.2c0.7-4.6-3.2-5.7-5.9-6.9c-10.6-4.5-17.2-11.9-20.2-23.1c-0.7-2.6-2.9-5.3-5.2-6.9
		c-8.3-5.6-12.6-14-14.4-23.1c-1.5-7.2-5.1-12.2-10.6-16.1c-5.1-3.6-8.8-7.7-10.6-13.9c-0.8-2.7-3.8-5.3-6.5-6.9
		c-4.8-2.8-10.1-4.9-17-8.2c9.7-0.5,15.4,4.6,22.7,7.4c0.3-1.6,1-2.8,0.7-3.8c-3.6-12.1,0.5-23,5.3-33.7c2.9-6.5,8.7-8.9,15.1-10.2
		c2.6-0.5,5.3-0.6,8-0.3c5.7,0.6,9.5-1.4,11.8-6.8c3.2-7.4,8.9-9.9,17-8.7c4.4,0.6,9.1-0.5,13.6-0.8c4.5-11.2,8.9-22.2,13.5-33.9
		c-7.3-2.6-14.4-5-21.5-7.7c-3.1-1.2-6.1-2.6-8.9-4.4c-3.2-2.1-4.9-4.7-4.1-9.2c1.2-6.7-0.8-14.3,4.9-17.9c0.7-7.9,0.9-14.4,2-20.8
		c1.1-6,9.7-9.5,16.4-6.9c4.6,1.8,9,4.3,14.2,6.9c4.7-6.2,11.1-7.5,18.1-4.2c5.2,2.5,9.5,1.1,14.6-2.4c0.4-9.5-1.4-20.3,7.7-28
		c-1.9-2.4-2.8-4.2-4.3-5.4c-6.5-5.1-5.2-11.9-3.9-18.3c1.2-5.8,4.3-7.5,11-7.6c6.6-0.1,13.2,0,21.2,0c-2.4-2.5-3.9-4.4-5.8-6
		c-5.1-4.3-9.4-9.1-12.1-15.5c-4.7-11.5-0.6-21.3,4.6-31c2.4-4.5,6.2-5.5,11-3.1c5.7,2.8,11.3,2,17.4,0.5c9.6-2.4,19.6-3.4,29.4-4.8
		c10.5-1.5,21.1-2.7,31.6-4.2c2.2-0.3,4.3-1.5,7.9-2.8c-4.7-5-8.6-9.3-12.7-13.4c-11.9-12.1-9.3-27.1,6.9-32.6
		c9.2-3.1,15.5-10,23.9-13.7c1.6-0.7,2.3-3.8,3.2-5.9c5.8-13.1,13-16.8,27-13.2c5.8,1.5,11.3,3.7,18.7,6.1c-1.2-3.7-2-6.2-2.8-8.8
		c-2.1-6.6,0.4-14.6,5.8-18.7c4.8-3.7,9.8-3.6,15-0.9c5.1,2.7,8.6,6.8,7.4,12.9c-2.3,11,0.9,21.7,1.4,32.5c0.1,3.3,1.2,7,0.2,9.9
		c-2.4,6.6,1.7,11.6,3.3,17.1c0.5,1.6,3.4,3.3,5.3,3.4c14,0.4,28,0.7,41.9,0.5c3.1-0.1,6.2-2.6,10.9-4.7
		c-7.2-6.1-12.5-11.8-18.9-15.5c-5.3-3.1-7.8-7.4-9-12.4c-1.2-5.1-2.8-9.4-6.9-12.8c-3.2-2.6-3.5-5.9-2.1-9.8
		c1.6-4.4,4.4-6.4,8.8-6.8c5.6-0.4,11.2-1,16.8-1.4c4.9-0.3,7-3.4,9.6-7.3c2.5-3.8,7-8,11.2-8.7c10.2-1.6,13.1-7.6,13.6-17.2
		c-2.4-1.1-5-2.3-7.6-3.5c-6.3-2.9-12.9-5.4-18.9-8.9c-8.6-5-17.6-7.6-27.6-7.1c2.2-9,3.2-9.3,10.9-8.7c8.3,0.7,15.1,4.7,22.1,8.4
		c4.3,2.2,8.8,4.2,14.6,7c-2.8-9.8-5.6-17.5-14-21.2c-5.3-2.3-6.4-6.1-5.5-11.3c0.4-2.3,0.2-4.7,0.6-7c1.4-8.7,5.1-11.3,13.8-8.9
		c30.1,8.2,60.2,16.6,90.3,24.9c2.5,0.7,5.3,0.8,7.9,0.7c28.2-1.9,56.3-3.9,84.4-5.9c13.5-1,27-2.3,42.2-3.6
		c-2.4-4.8-3.6-9.2-6.3-12.1c-5-5.4-6.9-12.1-9.2-18.6c-3.4-9.6-0.6-17.4,7.3-21.3c7.9-3.9,15.8-1.6,21.9,5.9c2,2.4,4.7,4.9,7.6,5.8
		c19.3,6.2,38.7,12.1,58.1,18c0.6,0.2,1.3-0.2,2-0.3c3-7.1,4.1-13.9,1.8-22c-3-10.6-1.5-21.6,3.6-31.8c1.2-2.3,2.5-5.1,2.1-7.4
		c-1.1-7.1,2.6-11.5,7.5-15.3c8.7-6.6,18-12.4,24.3-21.8c1.6-2.3,6.4-3,9.9-3.4c3.5-0.4,7.1,0.6,11.4,1c-0.3-8-6.8-12.6-9.5-20.3
		c7.4,4.3,10.6,10.8,12.2,17c1.6,6.5,5.5,7.8,10.5,8.6c16.6,2.4,29.4,10.7,39.9,23.7c4,5,9.5,8.8,14.8,13.5c5.6-4,11-6.5,14.6-10.7
		c6-7.1,13.5-9.4,22.1-9.5c4.5-0.1,8.4-0.5,11.4-4.5c2.4-3.3,5.7-2.6,8.9-0.9c5.6,3,11.2,5.8,16.9,8.7c8-4.8,8.6-12.1,7-21
		c3.2-0.2,5.9-0.4,8.7-0.5c4,10.4-0.2,18-5.5,25.6c-2.7,4-5.6,8.4-6.5,13c-1.2,6.2,2.3,11.1,6.9,15.7c8.3,8.1,16,16.8,23.5,25.6
		c3.4,4,6.7,7.2,12.2,7.6c2.9,0.2,5.8,1.3,8.8,1.7c13.1,1.9,19.6,11.2,24.9,22c4.2,8.6,8.9,17.1,13.5,25.5c1.1,2,2.5,4.2,4.3,5.4
		c9.1,5.7,14.2,14.7,20.3,23c6.8,9.3,15.3,16.9,26.6,20c13.9,3.8,21.8,13.9,24,26.7c2.4,14.4,11.8,19.8,23.2,24.3
		c2.7,1.1,5.5,1.6,9.1,2.5c-8.6,2.6-14.3,0-33.1-14.2c-13.3,6.9-22.2,18.7-32.3,29.2c-5.5,5.7-9.3,13-14.4,19
		c-4.2,5-9.3,9.3-14.1,13.7c-1.9,1.8-4.4,3-6.4,4.8c-11.1,9.9-11.1,9.9-4.7,23.1c1.9,3.9,3.5,7.9,5,12c3,8.3,7.5,15.4,14.1,21.4
		c7.4,6.8,7.2,7,16.2,1.9c1.9,0.9,4.2,1.6,6,3c8.6,6.6,18.6,8.4,29.1,8.1c2.9-0.1,6.3,0,8.7-1.2c10.4-5.4,17.4,1,23.4,7.4
		c4.4,4.7,7,11.2,9.7,17.2c3.7,8.2,3.7,8.5,12.6,6.7c1.9-0.4,3.9-1,5.8-1.2c10.9-0.9,14.3,1.3,17.7,11.7c4.1,12.1,6,24.6,5.1,37.4
		c-1.2,15.3,3.7,28,15,38.5c3.4,3.2,6.1,7.1,8.7,10.9c6.6,9.5,7.8,10,19.1,7.1c1.1-0.3,2.5,0.5,4.7,0.9c-5.1,5.1-7.4,11.3-14.3,14.1
		c-3,1.2-5.1,6-6.2,9.7c-1.9,6.3-2.2,13.1-4.3,19.3c-1.6,4.8-4.3,9.8-7.9,13.2c-6,5.8-9.7,12-11.2,20.3c-1.5,8-3.7,9-12,8.2
		c-14.4-1.3-26.4-7.1-33.3-20.3c-3.8-7.2-9.4-10.7-16.8-12.5c-4.5-1.1-9-2.4-13.6-3.2c-10.4-1.8-19.6-6.2-28.1-13.4
		c-2.8,1.3-5.9,2.3-8.7,4c-12.8,7.7-25.6,15.5-38.4,23.4c-7.2,4.5-8.5,7.7-6.7,15.8c2.3,10.5,7.8,18.8,16.5,25.2
		c5.9,4.3,11.4,9.1,17.2,13.6c8.4,6.6,11,15.6,9.6,25.7c-0.7,4.7-0.9,8.9,0.4,13.6c1,3.5,0.2,7.5,0.2,12.1c4.7,0.6,10.1,1.6,15.5,2
		c28.5,2.3,56.9,4.6,85.4,6.7c9.8,0.8,11.6,2.2,12.7,11.6c1.6,13.5,3.4,27,4.3,40.6c0.7,9.7-5.2,15.6-14.9,17.2
		c-6.5,1.1-13.2,1.8-19.2,4.3c-9.3,3.8-9.8,7.3-3.5,14.8c5.4,6.4,11.1,12.4,16.4,18.8c2.7,3.3,5.2,6.9,7.1,10.8
		c2.2,4.6,0.7,7.6-4.2,9.1c-5,1.6-9.7,1.7-13.9-2.3c-8.6-8.4-17.7-16.2-25.9-24.9c-2.9-3.1-4.4-8-5.7-12.3
		c-2.4-7.7-6.5-9.6-13.3-5.2c-4.2,2.7-8.4,5.3-12.4,8.3c-7.9,5.9-17.1,7.1-26.5,7.1c-2.7,0-5.7-1.3-8.1-2.8
		c-6.2-3.8-11.2-3.5-15.1,2.2c-4.9,7.1-9.8,13.9-20.8,10.1c0.7,5.7,1.5,9.9,1.6,14c0,6.3-3.6,8.8-9,5.7c-7.8-4.5-15.2-9.6-22.3-15
		c-2.1-1.6-2.9-5-3.8-7.8c-2.7-8.5-6.3-15.7-15.6-19.2c-3.4-1.3-6-5.8-8.1-9.4c-4.3-7.4-7.9-15.2-12.2-23.4
		c-7.9,2.6-14.7,4.8-21.8,7.1c6.5,27.5,11.8,54.4,25.8,78.8c6.5,11.5,10.7,24.3,15.5,36.7c2.8,7,5.7,12.6,14.2,15
		c7.9,2.3,12.2,10,14.7,17.7c4.8,14.9,7.4,30.4,7.2,46.1c-0.2,10.6,1.9,20.5,5.8,30.1c5.4,13,7.7,26,3.3,39.8
		c-1.2,3.7-1.3,8-0.9,11.8c1.6,13.5-6.1,22.7-13.9,31.9c-4,4.8-9.2,8.7-13.9,12.9c-6.4,5.8-13.7,8.8-22.7,7.9
		c-12-1.2-24.5,0.3-32.5,9.3c-10.4,11.8-18.5,25.8-27.5,38.9c-0.5,0.8-0.6,1.9-0.7,2.9c-0.5,11.1-0.9,22.1-1.3,33.2
		c-0.1,2.3,0.5,4.7,0.2,7c-0.6,5,1.2,9.1,4.2,12.9c8,10,8.7,21.2,5.5,33s-7.1,23.5-9.3,35.6c-2.5,13.7-11.7,19.5-23.5,22.6
		c-8.3,2.2-16.7,3.3-25.5,2.9c-7.8-0.4-15.7,1.4-23.6,2.6c-8.8,1.4-17.6,4-26.4,4.7c-8.6,0.7-15.3,4-21,10
		c-10.1,10.4-23.4,13.3-36.9,15.7c-1.3,0.2-2.8,0.3-4-0.2c-5.4-2.4-10.3-0.8-15.4,1.2c-8.8,3.4-18.4-1.3-21.1-10.4
		c-2-6.7-3.4-13.3-9.8-17.9c-2.3-1.7-2.8-5.8-4.2-8.8c-1.4-3.3-2.5-7-7.7-7.4c-0.7,2.1-1.3,4.3-2.3,6.2c-2.5,4.6-5,9.2-7.8,13.6
		c-1.6,2.5-4.1,4.4-5.9,6.7c-4.8,6.4-5.4,12.8-0.9,20.1c5.7,9.3,11.2,18.8,12.9,30c1.5,10.2-2.3,21.2-11.6,25.2
		c-12.1,5.3-17.1,15.6-20.8,26.6c-6,17.6-11,35.5-16.3,53.4c-3.4,11.7-5.4,23.7-12.4,34.4c-7.1,10.9,0.2,20.4,6.7,29
		c4,5.3,9.2,9.5,16.3,10.7c8.6,1.6,13.9,7.4,17.6,14.9c1.9,3.9,3.3,8,5,11.9c0.9,2.1,1.7,5,3.5,5.9c9.8,5.2,8.7,14.8,10,23.5
		c0.5,3.6,0.1,7.3,0.1,11c0.1,11.2,6.4,20.7,16.7,24.7c5.5,2.2,11,2.6,15.9-1.6c0.5-0.4,1-0.9,1.5-1.3c14.2-9,24.7-6.5,34,7.9
		c10.6,16.5,21.3,33,32.3,49.2c2.7,3.9,6.6,7,10.6,11.2c2.2-3.1,3.5-4.8,4.7-6.6c3.4-5.5,8.1-7.5,14.3-5.9
		c5.7,1.5,11.3,2.8,18.3,4.6c1.4,2.3,3.6,6,6.2,10.4c2.5-2.2,4.5-4.3,6.7-6c4-2.9,7.9-1.6,9,3.2c0.5,2.2,0.5,4.6,0.4,7
		c-0.8,18.6-2.8,37.1-7.5,55.2c-1,3.9-1.8,7.8-2.5,11.7c-1.5,7.5-0.2,14.4,4.2,20.9c6.2,9.1,8.7,18.7,2.1,28.8
		c-2.4,3.6-0.1,6.6,2.1,8.9c5.4,6,7.7,13.3,8.7,20.9c1.1,8.4,0,16.5-6.3,23.2c-11.2,11.9-16.8,26.1-16.7,42.5
		c0.2,14.5-1.7,28.4-7.3,41.9c-2.4,6-2.4,13-3.3,19.5c-1.5,10.9-4.2,13.1-14.9,12.2c-4.6-0.4-6.9-2.4-6.5-6.9
		c0.8-7.3-2.7-10.6-9.5-12.6c-9-2.7-17.7-4-27.3-2.8c-14.5,1.9-29.1,2.1-43.8,2.8c-17.9,0.8-33.2,8-47.5,18.3
		c-10.2,7.4-20.6,14.7-31.5,21.1c-4.9,2.9-8.6,6.2-10.7,11.2c-2.4,5.8-3.9,12-6.3,17.8c-2,4.8-4.1,9.8-7.3,13.8
		c-4.5,5.7-10.1,10.4-15.2,15.6c-3.1,3.2-6.8,4.5-10.9,3.1c-6-2-11-0.7-15.5,3.6c-5.8,5.4-12,9.3-20.7,6.9c-1.8-0.5-4.7,0.9-6.2,2.3
		c-14.1,12.8-31.9,17.6-49.2,23.4c-8.4,2.8-13.2,7.4-14.1,15.9c-0.9,8.8-6.3,14.5-12.9,19.2c-6,4.2-12.6,7.4-18.8,11.4
		c-4.4,2.8-8.4,6.3-12.8,9.2c-3.3,2.2-6.6,4.6-10.3,5.6c-11,3.2-20.1,8.3-24.8,19.5c-5.8,14-18.6,16.9-31.6,19.2
		c-1.2,0.2-2.9,0.2-3.8-0.5c-7.1-5.2-16.2-5.3-23.7-9.5c-3.7-2-7-4.7-9.5-6.4c-5.9,5.7-11.2,11.5-17.2,16.4
		c-5.6,4.6-10.2,4-13.1-2.3c-4.2-9.2-11.4-15.3-18.7-21.7c-3.3-2.9-6.4-7.1-7.4-11.3c-3.8-15-12.6-26-24.8-34.8
		c-4.5-3.3-8.4-7.5-13-11.8c-5.7,5.2-9.4,12-10.2,20.7c-0.4,3.7-2,7.6-4,10.8c-9.5,14.8-25.2,18.5-41,21.4c-4.1,0.8-7.5-1.4-9.5-5.7
		c-3.9-8.4-8.7-16.4-12.2-25c-2-4.8-2.6-10.3-3-15.5c-0.4-4.9-2.6-8-7.1-8.1c-12.4-0.2-22.1-6.5-31.8-13c-0.5-0.4-1.2-0.5-1.8-0.7
		c-7.9,6.5-15.7,12.9-24.2,19.8c2.6,3.2,4.7,6.6,7.5,9.2c4.8,4.5,5.1,9.7,4,15.6c-3.4,17-14.7,27.6-28.9,36c-2,1.2-4.7,1.5-6.2,3.1
		c-8.1,8.1-17.8,11.3-29,10.3c-3.6,6.4-4.2,11.8,0.5,17.8c4.3,5.5,3.4,7.5-2,12.3c-3.4,3.1-6.5,6.6-9.1,10.4
		c-4,5.9-4.7,6.4-11.1,2.8c-2.5-1.4-5.4-3.3-6.6-5.7c-4.4-8.6-13.3-10.3-20.8-14.1c-1.7-0.9-4.5-0.4-6.6,0.1
		c-1.9,0.5-3.8,1.6-5.2,2.9c-10.8,10.5-23.4,8.9-36.2,5.6c-7.8-2-15.3-3.3-23.5-1.3c-4.9,1.2-10.4-0.4-17-0.8
		c5.2-7.1,11.1-9.8,17.6-10.3c7.6-0.5,15.3,0,22.9,0.6c5.5,0.5,10.9,2.7,16.4,2.8c3.3,0.1,6.8-2,10-3.6c7-3.6,13.1-9.4,23.9-7.8
		c-11-8.6-20.7-15.4-32.9-16.1c-9.7-0.6-18.1-3.7-25.6-9.7c-6.6-5.3-13-5.2-20.3-0.9c-14.8,8.6-31.4,0.8-35-16.1
		c-0.7-3.3-1.7-6.5-2.5-9.7c-0.7,0-1.4,0-2.1,0.1c-1.1,3.3-2.4,6.5-3.4,9.9c-1.6,5.2-4.7,8.9-10.2,9.7c-4.7,0.6-10.5-3.7-12.3-10
		c-2.6-9.3-5.6-18.7-6-28.2c-0.7-19.2-1.1-38.6,3.5-57.6c0.9-3.7-0.3-8.7-2.2-12.3c-6.8-13.1-4.6-24.9,3.7-36.2
		c4.4-6,8.8-12.2,7.1-20c-0.9-4.3-2.4-9.3-5.3-12.4c-6.6-7.1-12.5-14.2-15.9-23.7c-2.4-6.7-7.2-12-14.3-15.8
		c-9.7-5.1-16.5-13.3-17-25.2c-0.4-11.4-0.2-22.6,4.7-33.3c1.1-2.4,1.4-5.2,2.4-7.6c1.7-4.2,1.1-7.7-2.6-10.6
		c-6-4.7-6.5-11.2-5.4-18.1c1.9-12.8,3.5-25.7,5.8-38.4c1.3-6.8,3.5-13.5,6-20.1c1.8-4.8,1-8.8-0.9-13.3c-2.2-5.1-5.7-6.6-11-6.8
		c-2.7-0.1-5.4-1.9-7.9-3.4c15.9,0.6,15.9,0.6,22.6,9.2c3.1-9.5,11.1-10.7,19.2-11.5c8.8-0.9,10.5-2.1,12.8-9.7
		c2.3-7.7,1.2-10.8-5.7-16.1c-10-7.7-11.9-15.8-6.1-27c4.5-8.8,10-16.9,12-27.2c1.3-6.7,6.6-12.2,14.9-12.9c2.9-0.2,5.8-1.3,8.7-2
		c1.4-2.7,2.9-5.2,4.3-7.9c3.1-6.1,3-12-0.2-18.1c-2.2-4.1-3.8-8.5-5-13c-2.3-8.4,0.5-15.1,8.2-20.6c6.7-4.8,14-6.2,21.3-1.5
		c7,4.5,14.4,6.3,23.9,4.2c0-3.3,0.8-6.7-0.1-9.6c-3-9.5,1.1-16.8,6.1-24.1c2.2-3.3,4.6-6.7,5.7-10.4c1.4-4.8,4-7.3,8.6-8.6
		c8.7-2.3,17.2-4.7,26.4-3.4c12,1.7,18.9,9.9,25,19.1c7.6,0.5,14.9-6.2,22.2-1.1c6.2,4.3,11.6,9.7,18.2,15.3
		c4.6,0.3,9.6-0.6,14.4-4.7c2.7-2.3,7.3-2.8,11.2-3.3c7-0.9,11-3.1,12.2-9.2c1.7-8,5.5-15.3,5.5-24.1c0-7.2,2.8-15.2,11.6-18
		c1.1-0.4,2.9-1.6,2.9-2.4c0-9.1,7.9-11.6,13.3-16c5.3-4.3,11.2-7.8,17.4-12.1c-5-7.2-16.2-11.2-18-22.6c3.8,4.2,7.4,8.7,11.6,12.6
		c8.8,8.4,9,8.2,22,5.2c0.3-2.1,0.9-4.4,0.7-6.7c-0.3-5.7,1-10.2,6.1-13.8c2.5-1.7,3.8-5.3,5.1-8.2c3.4-7.5,6.8-14.7,16.9-14.3
		c1.1,0,2.6-0.7,3.5-1.6c5.1-5.1,9.9-10.5,15.3-15.3c2.6-2.3,6-3.9,9.3-4.9c4.3-1.3,7-3.5,7.8-8c0.4-1.9,0.3-4.6,1.5-5.6
		c7.5-6,5.9-15,7.9-22.8c0.6-2.4,0.5-5.4-0.4-7.8c-1.8-5.3-3.5-10.8-6.6-15.4c-5.2-8-6.5-16.9-6.8-25.7c-0.3-8.2-3.8-13.8-9.3-19
		c-4.4-4.1-8.4-8.6-12.8-12.7c-12.7-11.7-17.3-25.7-12.8-42.5c0.3-1.2,0.2-2.6,0.4-5.3c-9.4-0.7-18.6-1.4-27.7-2c-1.7-0.1-3.3,0-5,0
		c-7.4-0.4-8.6-1.5-9.2-8.8c-0.7-9.6-1.4-19.2-1.9-28.8c-0.6-11.6-0.7-23.3-1.6-34.8c-0.4-6,2-9.2,7.1-11.7c5.6-2.7,10.8-6,16.3-9
		c-4.6-7.4-10.1-3.9-14.4-2.3c-5.3-2.9-4.8-7.1-4.9-11c-0.2-9.7-0.6-19.3-0.5-29c0-4.5-1.2-7.6-5.5-9.5c-3.9-1.7-6.3-4.6-6.2-9.3
		c0-1.8-1.4-3.5-2.5-6.1c-11.5,8.1-24.4,8.1-37.8,8.7c-3,8.8-10,11.3-18.7,10.6c-1.6-0.1-3.8-0.1-4.5-1.1
		c-4.6-6.3-10.8-12.1-8.3-21.3c0.9-3.2,1.7-6.4,2.7-9.6c2.4-7.7-0.1-14-6-18.7c-14.7-11.8-29.7-23.3-44.8-35c-2.7,2.6-6.3,5.5-9.4,9
		c-1.6,1.9-2.6,4.5-3.2,7c-2.2,9.1-6.3,16.1-15.1,21c-7.4,4.2-13.1,11.1-20.9,17.9c1.2-2.7,1.5-4.6,2.5-5.5
		c7-6.1,13.9-12.3,21.2-17.9c4.5-3.5,7.5-7.8,8.3-13.1c0.9-6,3.1-10.4,7.9-14.3c4.8-3.9,9-8.6,8.2-16c-0.4-3.8-2.2-22.2-4-25.9
		c-3.7-7.7-7.5-15.5-11.3-23.2c-3.4-7-4-14.5-0.9-21.2c3.6-7.8,2.5-16.1,4.7-23.9c3.3-11.6-1.8-18-13.2-22.4
		c-21.2,22.1-40.5,47-62.2,70c-21.6-7.6-38.8-18.9-43.4-43c2.2,3.9,4.9,7.7,6.5,11.8c6,14.7,19.8,19.8,32.3,26.6
		c3.7,2,6.1-0.9,8.4-3.5c13.9-16.1,27.9-32.2,41.9-48.2c4.3-5,8.7-10,13.6-15.6c-17.5-3.9-30.3-16.5-47.7-18.5
		c-8.1-0.9-11-7.3-9.2-15.6c3.9-17.5,7.8-35,11.8-52.5c1.4-6.3,1.7-12.1-0.8-18.4c-4.1-10.5-7.3-21.4-10.7-32.2
		c-2.6-8.3,3.3-15.1,11.5-12.4c7.1,2.3,14.8,4.1,20.3,10.1c1.3,1.5,3.2,2.4,4.6,3.8c10.6,10.1,22.8,13.3,36.4,7.7
		c7.6-3.1,14.2-0.9,21.2,2c3.4-6.2,5.6-12.9,10-17.6c7.9-8.4,9.9-16.8,6.5-27.8c-1.3-4.2,0.7-9.9,2.4-14.5c1-2.7,4.1-5.5,6.9-6.4
		c8.8-3,15.1-7.9,17.4-17.2c0.2-1,0.7-1.9,1.2-2.7C2246.4,932,2262.9,926.4,2269.5,928.2c2.9,1.2,5.8,2.4,8.6,3.7
		C2276,928.6,2273.4,926.4,2269.5,928.2z M2652.1,1202.6c-13.9-25.3-27.1-50.6-39.7-76.3c7.4-4.1,14.5-6.8,19.9-11.4
		c5.4-4.6,8.8-11.4,13.5-17c9.7-11.4,19.9-13.4,33.7-7c4.8,2.2,9.9,4,14.7,6.3c4.9,2.3,9.7,2.6,14.3-0.2c7.5-4.5,15.6-5.1,24-4.3
		c15.9,1.4,31-0.6,44.9-9.3c3.5-2.2,8.1-3,12.3-3.8c3.4-0.7,6.9-0.5,12.3-0.7c-12.4-12.9-23.4-24.4-34.5-35.7
		c-1.1-1.1-2.8-2.2-4.3-2.2c-18.8,0-37.3-7-56.2-2c-0.9,0.2-2,0.1-2.9-0.1c-9.5-3.1-17.6-8.3-23.5-14c4.7-10.3,8.9-19.2,12.6-28.3
		c0.9-2.2,1.2-5.7,0.1-7.4c-7.3-10.6-11-23.2-21.9-31.7c-10.9-8.5-13.5-21.6-4.5-34.7c1.7-2.5,3.5-4.9,4.7-7.6
		c4.3-9.6,10.4-19.3,5.6-30.3c-3.8-8.6-9.1-16.6-12.2-25.7c-0.8-2.2-3.3-4.4-5.6-5.4c-4.1-2-5.6-5.1-6.7-9.2
		c-3.1-11.9-6.4-23.8-10.2-35.5c-2.3-7-4.8-13.7,0.9-20.8c-7.1,0.9-13.4,2.5-19.8,3.9c-1.9,0.4-4.1,1.4-5.7,0.8
		c-8-3.1-12.8,0.1-15.6,7.5c-4.2,0.5-8,0.9-12.3,1.5c-0.4-3.5-0.8-6.3-0.9-7.7c-3.1-2.7-5.1-4.5-7.1-6.2c1.7-1.8,3.3-3.7,5.2-5.4
		c3.5-3,8-5.3,10.6-9c3.6-5.1,7.8-6.7,13.5-6.1c1.2,0.1,2.4-0.5,4.1-0.9c-0.9-3.1-1.7-5.8-2.4-8.1c4.4-4.7,8.8-5.7,14-3.1
		c2.7,1.3,5.5,2.7,8-1.5c-2.9-1-5.7-1.7-8.3-2.9c-1.9-0.9-4.8-2.6-4.8-3.9c0-2.2,1.6-4.8,3.3-6.5c2.2-2.2,5.1-3.6,8.3-5.8
		c-9.3-3.2-15.4-2-22.3,3.7c-1.5,1.2-3.4,2.1-5.3,2.4c-9,1.6-15.2,6.3-17.9,15.2c-2.1,7.1-8.5,6-13.7,7.6c-4.9,1.5-8.2,0.4-11.3-3.1
		c1.3-2.9,2.4-5.6,3.3-7.6c-5.1-2.4-9.8-4.6-14.4-6.8c1.6-7.4,2.6-13.5,9.9-15.8c1.5-0.5,3.4-2.9,3.4-4.5c-0.1-5.1,2.9-6.1,6.9-6.5
		c0.9-0.1,1.7-0.7,2.4-1c-0.8-3.1-1.6-5.9-2.6-9.7c-3.7-0.4-7.5-0.7-11.4-1.1c-2.6-0.3-5.3,0-7.7-0.9c-6.1-2.4-11.7-1-17.4,1.5
		c-11.4,5.1-11.9,4.9-20.5-5.8c1.9-3.6,3.1-8.6,6.3-11.4c8.6-7.4,16.6-15,22.7-24.8c1.7-2.7,5.6-4.5,8.9-5.7
		c7.2-2.8,13.5-6.1,18.9-12.2c6.8-7.6,15.2-14,26-15.2c4.6-0.5,9.3-0.8,13.8-0.2c5.6,0.8,9.5-1.5,13.3-5c8.7-8,10.9-19.2,15.7-29.5
		c-8.4-5.5-16.2-10.5-24-15.6c-7.7-5-15.4-10-24.1-15.7c10.6-6.1,11.8-14.4,9.4-23.9c-0.6-2.2-1.5-4.4-2.3-6.5
		c-1.8-4.9-3.6-9.7-5.3-14.5c-4.6,1-9.8,3.1-14.9,3.1c-15.3-0.2-30.5-1.1-45.8-2c-1.9-0.1-4.9-1.7-5.5-3.3
		c-2.4-6.5-6.2-13.5-5.4-19.9c1.9-16.4-4.1-32.3-1.7-48.5c0.2-1.4-2.3-4.3-3.7-4.5c-1.6-0.2-4.6,1.7-5,3.2c-0.7,2.3,0,5.1,0.6,7.6
		c0.9,3.2,2.5,6.2,3.4,9.4c1.9,7-0.5,10.3-7.6,10.1c-2.6-0.1-5.2-0.8-7.7-1.6c-5.1-1.6-10-3.7-15.1-5.1c-11.3-3.1-13.6-1.6-18.1,9.3
		c-1.3,3.2-3.1,7.4-5.9,8.6c-9.3,4.2-16.7,11.7-26.9,14.6c-8.6,2.5-9.4,9.5-3.2,16.2c3.9,4.1,8.3,7.8,11.9,12.1
		c5.9,7,3.2,16.1-5.5,18.8c-4.1,1.3-8.4,2.1-12.6,2.7c-14.1,2-28.3,3.7-42.4,5.8c-5.8,0.9-11.5,3.2-17.4,3.7
		c-5.8,0.5-11.6-0.5-17.6-0.9c-7.4,13.8-4.5,24.4,7.2,32.5c3,2.1,5.9,4.4,8.4,7.1c1.9,2,4.3,4.9,4.1,7.1c-0.4,4-3.2,7.4-7.6,8.2
		c-2.9,0.5-6,0.3-9,0.3c-6.5,0-13,0-19.4,0c-0.8,6.6-0.8,6.6,3,11.6c5.6,7.1,5.8,10.1,0.9,17.9c-2.5,4-4.1,7.7-3.4,12.9
		c2.1,15.4-9.3,24.2-24.3,19.2c-3.9-1.3-7.7-2.9-10.9,1.2c-3.7,4.8-7.7,3.7-12.3,1.4c-4.9-2.4-9.3-6.5-16.7-5.7
		c0,4.1-1.3,8.6,0.3,11.4c2.9,5,1,8.1-1.9,11.5c-1.3,1.5-2.8,2.9-3.7,4.7c-3.3,6.3-1.9,10.7,5,13c8.5,2.8,17.1,5,25.8,7.1
		c8,1.9,9.4,6.1,4.5,12.7c-3.1,4.2-6,8.8-7.9,13.7c-2.9,7.4-5,15.1-7.4,22.7c-1.1,3.6-2.3,7.1-7.2,6.6c-6.7-0.6-13.4-1.3-20.2-1.3
		c-1.6,0-4.1,2.3-4.8,4c-3.4,9-10.7,11-19.1,11.6c-1.7,0.1-3.3,0.1-5,0c-6.1-0.3-9.5,2.4-12.1,8.2c-4,9-3.5,18-3.4,27.3
		c0.1,7.3,2,12.7,8.1,17.1c7.5,5.4,12.1,12.6,14.1,22.1c1.1,5.5,4.5,11.8,8.8,14.9c6.2,4.5,9.3,9.8,11.8,16.6
		c1.4,3.8,3.9,8.1,7.2,10c8.2,4.8,15.7,11.1,25.7,12.8c5.3,0.9,7.2,6.5,4.8,10.9c-5.3,9.2-12.3,11.7-21.6,6.3
		c-4.1-2.4-7.1-2-11.1-0.3c-5.5,2.3-9.8,5.1-11.1,11.6c-0.4,2.3-2.7,4.5-4.7,6.1c-5.6,4.4-11.6,8.5-18.8,13.8
		c0.5,4.6,0.7,10.6,2,16.3c1.4,5.9,1.5,11.9-2.8,16c-7.4,6.8-11.3,15.4-15.3,24.1c-2.8,6.2-8.8,9.2-14.6,5.8
		c-6.4-3.8-11.9-2.1-18.1-0.5c-9.2,2.4-18.6,4.8-27.4-2.2c-5.7-4.6-12.2-8-17.8-12.7c-4.7-3.9-9.9-5.5-16.9-7.6
		c4.2,12.7,7.6,23.8,11.5,34.7c2.1,5.9,2.2,11.5,0.8,17.6c-4.1,17.5-7.9,35-11.6,52.6c-1.4,6.7-1.1,7.3,5.4,9
		c10.3,2.7,20.7,5.2,29.1,12.3c1.2,1,3,1.6,4.6,1.8c10.9,1.7,19.5,8,28.6,13.5c5,3,7.3,7.3,6.3,12.4c-2.5,12.2-1.1,25.1-6.7,36.9
		c-1.7,3.5-1.8,9.1-0.3,12.6c4.5,10.2,9.7,20.3,15.8,29.7c4.4,6.7,6.9,13.2,3.3,20.4c-4,8-1.2,13.4,4.9,18.1
		c10.7,8.4,21.5,16.7,32.3,25.1c9.5,7.5,15.8,16.3,11.3,29.2c-0.6,1.9-0.9,3.9-1.5,5.8c-2,6.4-0.6,11.6,5.8,16.1
		c2.2-2,5-3.5,6.2-5.9c2.8-5.2,6.9-6.8,12.3-6.6c2.3,0.1,4.7,0.4,7-0.1c6.8-1.5,14.3,0.3,20.2-6.2c4.4-4.9,14.6-1.5,17.2,4.8
		c2.4,5.7,3.9,11.9,10.2,15.2c1.6,0.8,2.5,3.9,2.8,6c1,6.5,1.5,13.1,2.4,21c13.6,1.2,27.3,2.4,41.7,3.6c0.7-3.7,2.1-6.7,1.7-9.4
		c-1.5-9.8-2.2-20-5.9-29c-2.3-5.7-2-10.7-1.8-16.5c-2-0.9-4-1.8-6.2-2.8c-0.2-3.3-0.4-6.6-0.5-9.6c-2.4-1.4-4.6-2.6-6.8-3.8
		c3.7-5.3,3.7-5.2,9.5-7.3c56.3-20.3,112.6-40.5,168.9-60.9c22.8-8.3,45.4-17.2,68.2-25.4c8.1-2.9,16.4-5.1,23.3-10.7
		c7.1-5.8,14.7-10.3,24.5-9C2649,1204.5,2649.9,1203.6,2652.1,1202.6z M3318.7,1009.4c-1.2-8.8,3.3-12,8.1-15
		c7.1-4.4,14.2-8.2,23.2-7.9c8.5,0.3,11.4-2.9,10.6-10.5c-1.3-12.1-3.3-24.2-5-36.5c-2.7-0.7-5.2-1.7-7.8-1.9
		c-17.2-1.5-34.4-2.8-51.6-4.2c-16.9-1.4-33.7-2.7-50.6-4.2c-7.4-0.7-11-4.8-7.5-10.2c4.2-6.6,3.9-12.7,2.8-19.6
		c-0.3-2.2,0.3-4.6,0.9-6.9c1.7-6.5-0.1-11.9-5-16.1c-5-4.4-10.1-8.6-15.5-12.5c-12.1-8.8-20.1-19.9-22.7-34.9
		c-1.9-11,0.8-18.6,10.2-24.5c11.6-7.2,23.2-14.4,34.9-21.3c5.1-3.1,10.6-5.5,15.8-8.5c3.7-2.1,7.4-1.9,10.1,1
		c8,8.6,18.4,11.3,29.3,13.5c14.3,2.9,27.8,7.3,33.8,22.7c0.2,0.6,0.7,1.2,1.1,1.6c6.5,5.6,12.7,11.9,23,9.1
		c0.4-8.6,4-15.2,10.5-20.6c4.3-3.6,6.9-8.4,8.1-14.3c2-10.2,4-20.7,10-29.6c0.3-0.5,0.2-1.3,0.3-2.5c-6-7.4-11.8-15.7-18.8-22.7
		c-7-7-10.4-15.5-12-24.7c-1.4-8.1-1.1-16.5-1.7-24.8c-0.4-5.6-1-11.2-1.9-16.8c-2.5-16.4-6.3-15.3-18.3-12
		c-9.4,2.6-14.6-0.7-18.4-10.2c-1.1-2.8-1.8-5.8-3.4-8.3c-2.7-4.1-5.5-8.3-9-11.7c-1.9-1.8-5.9-3.4-8-2.6c-7.9,3.1-15.8,1-23.7,1.6
		c-6.6,0.6-12.5-0.7-17.7-5.1c-1.5-1.2-3.4-1.9-5.8-3.3c-3.1,5.7-7.2,4-12,2c-14.6-6.1-22.8-17.6-28.5-31.6
		c-2.9-7.1-6.1-14-9.5-20.8c-3-6-3-11.9,1.1-16.9c3.9-4.8,8.5-9.8,13.9-12.7c8.3-4.5,13.9-11,18.6-18.9c1.7-2.8,3.6-5.6,5.8-8.1
		c11.3-12.2,21.5-25.5,35.5-34.8c1-0.7,1.6-2,2.2-2.8c-2.1-11.5-7.5-19.3-18.9-22.6c-13.3-3.9-23.3-12.7-31.3-23.7
		c-5.5-7.5-10.3-15.4-18.1-21c-2.9-2-5.3-5.2-7-8.3c-5-9-9.9-18.1-14.3-27.3c-5.1-10.6-12.9-16.3-25-16.4c-8.4,0-14.6-4.7-18.8-11.4
		c-6.1-9.7-13.6-18-22.7-24.9c-5.3-4-8.7-9.3-9.4-15.8c-0.5-4.8-0.1-9.7-0.1-15.3c-4.6-2.5-9.5-5.2-12.1-6.7c-6.6,1.8-10.8,4-15.1,4
		c-8.8-0.1-16.4,1.7-22.2,8.9c-1.4,1.7-3.7,2.7-5.7,4c-12.8,8.7-20.2,8-31-3.1c-2.1-2.1-3.5-4.9-5.5-7.1c-3.4-3.5-6.8-7.3-10.9-10
		c-7.1-4.8-14.2-9.9-23.6-9.6c-2.8,0.1-5.5-2.1-8.4-3c-3.8-1.1-7.7-2.4-11.5-2.7c-2.3-0.2-5.8,0.8-6.8,2.5
		c-5.2,8.2-13.1,13.1-20.8,18.2c-4.6,3-7,6.4-6.2,12.4c0.4,2.8-1.6,6.2-3.1,9.1c-4,7.7-6.7,16.4-3.5,24c5.5,12.9-1,23.9-2.1,37
		c-5-0.7-9.3-0.8-13.2-2c-17.8-5.3-35.6-11-53.4-16.4c-7.3-2.2-14.9-3.4-18.6-11.8c-0.7-1.6-5.3-2.6-7.8-2.1
		c-1.6,0.3-3.3,3.7-3.6,5.9c-0.4,2.5,0.2,5.5,1.4,7.6c5.1,9.2,10.5,18.2,15.8,27.3c1.5,2.5,2.9,5,4.9,8.5c-3.5,1.6-6,3.5-8.6,3.7
		c-20.2,1.6-40.4,2.9-60.6,4.2c-16.2,1.1-32.5,1.8-48.7,3.1c-15.8,1.3-31.1,2.6-46.9-2.7c-24.6-8.1-50-13.7-75.1-20.3
		c-1.4-0.4-2.8-0.5-4.7-0.9c0,3.9,0,6.8,0,9.8c3,2,6.7,3.1,8.3,5.7c6.3,9.6,12.9,19.2,17.4,29.7c3.6,8.3-1.9,16.5-5.1,24.3
		c-1.9,4.6-5.1,7.6-10.5,7.8c-5.8,0.2-9.7,3.2-12.4,8.5c-2.6,5.3-7.4,8.5-13.5,9.1c-5.8,0.6-11.6,1.1-16.8,1.6
		c2.1,5.7,3.2,12.7,6.9,17.7c7.7,10.2,17.8,18.1,28.7,24.9c3.8,2.3,8.2,3.7,12.1,5.9c3.4,1.9,6.7,4.2,9.9,6.5c4.2,3.1,9,5.8,12,9.9
		c6,8,13.6,12.2,23.3,13.6c3.1,0.4,6.3,1.8,8.7,3.7c5.7,4.5,11,9.5,16.2,14.6c1.3,1.3,2.4,3.3,2.6,5.1c1.4,11.8,2.4,23.7,4,35.4
		c0.4,2.8,1.9,5.5,3.5,8c5.6,8.9,14.3,13.4,25.1,16.1c1.6-1.6,3.6-3.6,5.7-5.7c-1.4-1.5-2.3-2.6-3.2-3.5c-2.6-2.6-3.6-5.6-1.6-9
		c2.4-4,6.3-3.5,9.8-2.4c2.7,0.9,5.1,2.6,7.7,4c4.5-9.9,8.6-11,16.7-5c2.1,1.6,3.9,4,6.3,4.9c7,2.5,7.7,8,7.9,14.3
		c0.2,4.2,0.9,8.6,2.1,12.6c2.2,6.9,5,13.6,7.4,20.3c-2.4,3.2-4.2,5.9-6.4,8.4c-1.5,1.8-3.2,3.3-4.9,4.9c-6.4,6.1-7.2,9.7-3.7,17.7
		c0.9,2.1,2.1,4.1,3.4,6.1c5.1,8.3,5,17.8,6.4,26.9c0.3,1.8-0.5,4-1.5,5.6c-2.9,4.6-3.3,9.2-1.1,14.2c3.2,7.4,3,14.9,0,22.3
		c-2.1,5.2-4.3,10.4-6.3,15.7c-1.8,4.6-3.9,9.2-4.9,14.1c-1.3,6.1,1.2,10.9,6.6,11.3c8.9,0.7,18.8,2.4,25-7.2
		c3.2-5.1,7.7-8.8,13.5-9.4c12-1.1,15.5-9.8,18.5-19.2c0.5-1.6,0.7-3.3,1.1-4.9c2.4-9.5,11.1-13.8,17.1-20.2c3.8-4,8.8-1.7,13.3-1.7
		c8.8,0,14.6-3.9,17.8-12.9c0.9-2.7,1.6-5.4,2.4-8.2c16.4,6.3,53,25.7,58.5,30.9c-2.6,3.4-5.3,6.7-8,10.1c7.3-3,12.4,0.5,18.8,3.1
		c-2.4,2.5-4,4.7-6.1,6.2c-2.3,1.6-5.1,2.6-7.7,3.8c5.4,10.8,4.4,13.3-6,17.9c-2.1,0.9-4.1,2-5.9,2.9c-1.3,5.8-2.6,11.1-3.8,16.4
		c0.4,0.3,0.8,0.6,1.3,0.8c3.3-3.7,6.5-7.5,9.9-11.3c2.9,1.6,5.3,3,8.8,5c1.9-4.8,3.4-8.7,5.1-13c5,1.8,9.3,3.4,14.4,5.2
		c0.7-2.8,1.3-4.9,1.6-7c0.9-8.4,2.6-10.2,10.9-11.4c5.6-0.8,11.2-1.5,16.8-2.2c8.5-1,17-2.1,25.4-3.1c3.4,8.8,6.4,16.4,9.2,24.2
		c3.2,8.9,6.5,10.1,14.9,5.8c3.4-1.7,7.3-3.2,11.1-3.5c5.3-0.4,10.7-0.1,15.9,1c3.7,0.8,7,3.2,10.5,4.9c1.6,0.8,3.1,1.9,4.8,2.9
		c3.6-10.2,3.6-10.2,12.7-9.7c-3.3,10.6,3.4,18.1,8.3,26.3c4,6.6,5.3,7.1,12.8,5c2.4-0.6,4.8-0.9,9.1-1.8
		c-10.1,21.6-19.5,41.6-29.1,62.1c7,1.8,13,4,19.2,4.7c6.6,0.8,9,4.6,10.4,10.2c1.1,4.3,2.5,8.5,3.9,13.1c13-8.5,20.9-5.8,26.6,7.4
		c2.3,5.4,5.2,10.7,8.8,15.4c3.8,5,8.7,9.1,13.1,13.6c3.4,3.5,5.3,7.6,4.6,12.6c-1,7.3,1.8,13.2,7.6,17.4c4.3,3.1,6.2,7.2,6.2,11.9
		c-0.1,11.8,8.3,19.8,11.4,29.6c8.7-0.3,17.1,1.3,20.8-7.9c2.7-6.6,7.6-8.3,14.2-8.4c6-0.1,11.9-1,16.7,4.1c1.1,1.2,3.9,1.6,5.6,1.1
		c5-1.3,10.2-2.8,14.8-5.1c5.6-2.9,10.6-6.8,16-10.1c8.7-5.2,17.4-3.4,23.5,4.6C3315.1,1005,3316.1,1006.2,3318.7,1009.4z
		 M2656.2,1202.9c7.8,0,15.3,1.8,21.6-0.4c13.9-4.7,28.3-3.2,42.3-5.2c27.9-3.9,56-5.5,84-8.7c28-3.2,55.9-7.4,83.9-11
		c14.8-1.9,29.7-4.7,44.5-4.6c23.6,0.1,46.7,4,69.6,10.3c62.1,17.3,124.4,33.9,186.7,50.7c3,0.8,6.1,1,10.4,1.7
		c-2.4-7.7-4-13.8-6.1-19.7c-4.2-11.7-6.1-23.6-6.8-36.1c-0.8-13.5-3.7-26.9-6.3-40.2c-1.1-5.6-4.2-11.5-10-12.8
		c-11.3-2.6-14.9-11.1-18.7-20.1c-5.1-12.3-10.4-24.5-15.5-36.7c-5-11.9-10.9-23.6-14.9-35.9c-5.1-15.4-8.8-31.4-12.9-47.1
		c-1.5-5.7-0.5-7.8,5.3-9.8c8.8-3.1,17.8-5.6,26.5-8.9c5.4-2.1,8.1,0.1,10.4,4.4c4.2,7.9,8.2,15.9,12.7,23.7
		c1.6,2.7,3.7,6.1,6.3,7.1c10.7,3.9,14.5,13.2,17.9,22.5c2.1,5.8,5.6,8.9,11,11.3c1.2-8.5,0.7-15.7-3.7-22.5
		c-3.8-5.8-6.3-12.1-6.4-19.5c0-3.3-3.3-6.9-5.8-9.8c-4-4.5-8.5-8.6-7.5-15.5c1-7.3-2-12.6-7.2-17.5c-8.9-8.4-17.9-17-20.6-29.8
		c-0.1-0.6-0.4-1.3-0.7-1.9c-3.4-6.2-13.7-8.6-18.2-1.2c-1.1,1.8-2.3,3.4-4.3,6.3c-2.3-7.6-4.5-13.5-5.9-19.6
		c-1.4-5.9-4.4-9-10.6-10c-6.7-1-13.2-3.2-20.4-5.1c9.5-20.4,18.4-39.5,27.8-59.7c-4.9,1-8.1,1.6-12.4,2.4
		c-3.6-5.1-7.2-10.6-11.2-15.8c-4.1-5.3-5.6-11.3-6.3-18.9c-1.9,0.8-2.7,2.2-3,3.7c-1.7,8.9-4.2,10-10.7,4
		c-3.5-3.2-7.1-4.6-11.6-4.7c-2.3,0-4.7-0.2-6.9-0.7c-6.2-1.4-11.6-0.5-17.1,2.9c-10.4,6.4-15.8,0.9-18.6-7.9
		c-2.3-7.2-5.4-14.1-8.5-21.7c-16.1,2.6-31.9,3.4-47.6,7.8c0.4,7.1,1.1,13.8-6.3,16.9c-3.7-1.9-7.4-3.8-12.2-6.2
		c1.2,8-2.8,10.9-7.8,12.9c-2.5-1.2-4.8-2.3-7.4-3.5c-2.5,3.6-4.8,6.8-7.5,10.7c-2.3-1-4.5-2-7-3.1c1.4-4.7,3.4-8.8,3.5-12.9
		c0.1-5.8,3-8.4,7.7-10.2c2.2-0.8,4.5-1.5,6.3-2.8c2.2-1.6,4-4.3,1.3-6.7c-5.3-4.7-2-7.4,1.8-10.1c2.1-1.5,4.5-2.4,6.7-3.6
		c-0.1-0.6-0.2-1.3-0.3-1.9c-5.4,0.3-10.9,0.6-18.5,1.1c3.9-6.2,6.7-10.7,9.8-15.6c-17.3-8.9-34.3-17.7-52-26.7
		c-1.1,2.9-1.8,5.1-2.7,7.1c-5.1,11.5-9.3,13.7-22.4,13.3c-3.4-0.1-7.7,0.6-10.1,2.6c-7.5,6.4-15.6,12.6-16.6,23.8
		c-0.2,2.2-1.8,4.3-2.5,6.5c-2.2,7.1-6.9,10.6-14.1,12.5c-4.9,1.3-10.6,3.7-13.5,7.5c-6.6,8.8-14.8,11.3-25,10.9
		c-10.1-0.4-15.6-6.1-13.3-16.1c1.7-7,4.8-13.7,7.6-20.4c4.3-10.3,7.8-20.6,2.5-31.5c-2.1-4.3-1.3-8.7,0.9-12.4
		c2.4-4,2.5-7.6,1.9-12.2c-1.3-9.4-4.3-17.9-8.7-26.3c-4.5-8.7-3.3-13.6,3.7-20.6c1.2-1.2,2.6-2.1,3.8-3.3c5-4.7,7.1-9.8,3.8-16.8
		c-4.4-9.3-8.2-18.9-7.3-29.7c0.1-1.6-2.1-3.8-3.7-5.1c-2.5-2.2-5.2-4.1-8.1-5.8c-2.6-1.6-5.5-2.9-8.4-4.5c-4,11.1-4,11.1-13.7,6.4
		c-0.6-0.3-1.2-0.9-1.8-0.9c-1.9,0-3.7,0.2-5.6,0.3c0.2,2.1-0.3,4.6,0.6,6.2c1.8,2.9,4.4,5.3,6.6,7.8c-4.7,2.6-8.2,4.6-12.4,6.8
		c-2.7-1.1-6.2-2.1-9.4-3.9c-11.7-6.5-23.4-13.3-20.7-29.9c0.1-0.9-0.4-1.9-0.6-2.9c-1.4-8.5-2.7-16.9-4.2-25.4
		c-0.3-1.8-1.2-3.8-2.5-5c-3.9-4-8.1-7.8-12.3-11.5c-3.5-3.1-7-5.3-12.2-5.7c-7.6-0.7-15.4-3.2-19.8-10.2
		c-7.6-12.3-21.6-15.8-31.9-24.3c-0.6-0.5-1.8-0.2-2.7-0.2c-7.1,15.5-6.6,15.3-1.3,30.1c3.6,9.8,5,20-4.9,28.9
		c15.8,10.3,31,20.2,46.3,30.2c-2.6,6-5.2,11.1-7.1,16.3c-3,8.1-8.2,14.3-14.8,19.6c-2.8,2.2-5.3,2.9-9,2.2
		c-15.7-3-28.9,3-39.4,14.1c-5.9,6.3-12.3,10.7-20.4,13.5c-3.7,1.3-6.8,4.8-9.8,7.7c-3,3-5.3,6.7-8.2,9.8c-3.9,4-8.1,7.8-12.2,11.5
		c-6.1,5.5-6.1,12.8,0.5,15.2c2.5,0.9,6.4-0.1,9.1-1.5c6.8-3.6,13.7-4.4,21.1-2.5c2.7,0.7,5.8,0.6,8.6,0.4c7-0.5,12.1,3.1,14,10.2
		c0.5,1.8,1.3,3.6,2.2,6.4c-3.5,1.2-6.5,2.2-9.4,3.2c-1.7,3.8-3.9,7.6-7.1,9.4c-4.6,2.6-6.9,5.8-6.9,12.2c4.5,1.6,9.4,3.2,14.7,5.1
		c-1,3.3-2.1,6.6-3.4,10.7c8.8-1,17.5,0.4,20.3-10.7c1.7-6.5,7.6-9.3,13.3-11c5.9-1.8,11.1-4,13.5-12.1c4.9,9,8.2-1.2,12.7,0.9
		c4.1,2,8.4,3.6,14.1,6c-6.7,4.2-11.6,7.2-18.6,11.5c7.2,2.6,12,4.3,16.7,6c-2.2,7.7-4.3,9-11,7.3c-3.6-0.9-7.3-4.2-10.7,0.2
		c2.4,10.8,2.4,10.6-8.8,11.7c-2.4,0.2-5,1.3-6.9,2.8c-5,3.8-9.6,8.1-14.3,12.3c-0.4,0.3-0.4,1.2-0.7,2.2c2.1,0.4,4.1,0.8,6.1,1.2
		c0.2,3.1,0.4,5.6,0.7,10c3.6-2.2,6.1-3.8,8.7-5.3c3.1-1.8,6.7-5.5,9.1-4.9c8.4,2.4,15.5-2.3,23.2-3.1c5.1-0.5,10.1-1.8,16.3-2.9
		c-1.5,2.8-2.1,4.8-3.3,6.3c-4,5.1-5,10.1-2.7,16.6c4,11.3,7,22.9,10,34.5c1.2,4.6,2.8,8.2,7.2,11.2c4.9,3.2,8.9,7.9,9.3,14.6
		c0.2,2.7,1.9,5.7,3.7,7.9c7.9,9.9,8.6,20.7,3.8,31.9c-3.2,7.3-7.1,14.3-11.1,21.2c-2.9,5-3.4,10-2.2,15.4
		c1.6,6.8,6.2,11.5,11.1,16.1c3.6,3.4,6.9,7.1,9.6,11.2c3.3,4.9,5.6,10.6,8.8,15.5c2.9,4.4,3.1,8.7,1,13.2
		c-3.8,8.4-7.8,16.7-12,25.7c5,3.2,10.4,7,16.1,10.1c3.1,1.7,6.6,2.1,10.4,0.4c2.8-1.3,6.5-1.4,9.7-1.2c13.6,1,27.1,2.6,40.6,3.6
		c3.8,0.3,6.8,1.1,9.6,4.1c10.4,11.2,21.2,22.1,31.7,33.2c1.3,1.3,2.2,3,4.1,5.7c-3.8,1-6.6,2.4-9.3,2.2c-9.1-0.7-16.7,3-24.6,6.8
		c-11.1,5.4-22.9,8-35.6,6.3c-9.3-1.2-18.5-1.2-27.1,4c-5.1,3.1-10.6,3.2-16.1,0.4c-5.1-2.5-10.3-4.5-15.5-6.9
		c-11.9-5.5-24.3-3.4-30.7,7.7c-7,12.2-16.5,20.5-29.2,25.7c-0.5,0.2-0.7,1.1-1.6,2.5C2629.4,1153.2,2642.7,1177.8,2656.2,1202.9z
		 M2082.2,1918.1c-7.9,2.1-13.2,3.9-18.7,5c-5.1,0.9-9.6,3.2-10.3,8c-1.6,9.9-6.8,17.9-11.6,26.3c-4.8,8.3-3.9,11.6,4.1,17.6
		c4.7,3.5,8.2,7.6,9,13.7c2.2,16.1-7.5,27.9-23.8,28.3c-3.8,0.1-7.7,0.4-8.9,4.7c-3.2,11.5-6.6,23-9,34.7c-2.3,11-3.3,22.3-5.5,33.4
		c-1.2,6.4-0.9,11.8,4.7,16c4.2,3.2,5.3,7.2,3.6,12.4c-1.9,5.7-3.1,11.5-5.1,17.2c-3.1,9-4.3,17.8-2.4,27.4
		c1.4,7.4,5.5,12.6,11.6,15.2c9.1,3.8,14.8,10.7,17.9,19.1c3.4,9.1,8.9,16.1,15.4,22.9c9.3,9.8,10.8,24.4,3.7,35.9
		c-2.1,3.4-5,6.3-6.8,9.9c-3.8,7.4-6.8,14.9-1.7,23.4c4.5,7.4,5.1,15.4,2.7,24c-1.8,6.3-1.8,13.1-2.4,19.7c-0.3,4,0.4,8.1-0.4,12
		c-3.2,15.7,1.5,30.3,5.4,45c0.3,1,1.7,1.6,4,3.6c1.6-6.4,2.7-11.4,4.1-16.3c2.7-9.2,8.3-10.5,15.3-3.7c4.7,4.6,7.1,9.9,7.8,16.6
		c1.3,11.5,11.2,16.5,21.2,10.5c10.5-6.3,20-5.7,29.6,1.2c1.1,0.8,2.3,1.4,3.3,2.2c4.6,3.5,9.7,5.3,15.6,5.6
		c9.7,0.6,18.8,3.7,27.1,9c5.3,3.4,10.9,6.4,16.5,9.3c5.3,2.7,9,6.4,11,12.2c1.8,5.1,4.7,9.8,7.7,15.9c3.4-4.3,5.9-7.3,7.5-9.3
		c-1.3-5.6-3-10-3-14.4c0-3.8,2-7.6,3-11.4c2-7.6,3.8-8.6,11.8-8.4c4.5,0.1,9.8,0.2,13.5-1.9c10-5.8,19.6-12.2,28.7-19.3
		c6.1-4.7,9.7-11.5,10.8-19.5c1-6.7-4.6-9.3-7.7-13.2c-8-10.3-8-11.4,2.5-19.7c5.7-4.5,12.7-8.3,16.4-14.1c3.5-5.5,7.2-6.6,12.2-5.8
		c3.8,0.6,7.7,2.1,10.9,4.2c6.7,4.5,13.4,7.8,21.8,8.8c14.1,1.8,17.7,6.8,19.5,20.8c0.6,5.1,2.4,10.2,4.4,15
		c2.7,6.4,6.2,12.4,9.4,18.8c6-1.5,12.4-1.8,17.3-4.6c8.3-4.6,16-9.9,17.2-21.4c1.1-11.3,7.3-20.6,17.1-27c6.4-4.1,8.5-3.3,12.9,2.9
		c2.7,3.7,5.4,7.7,9,10.4c13.8,10.6,24.7,22.9,29,40.4c0.6,2.7,2.7,5.2,4.7,7.2c6.7,6.8,13.7,13.4,20.7,20.2
		c8.6-5.1,9.2-6.2,8.6-15.9c-0.1-2.3-0.6-4.7-0.3-7c0.7-5.8,5.6-8,9.9-4.1c2.9,2.6,5.7,5.8,7.5,9.3c3.5,6.7,9.2,10.2,16,12.4
		c5.6,1.8,11.2,3.7,16.8,5.3c1.5,0.4,3.3,0,4.9-0.2c8.7-1.3,14.6-6.7,17.9-14.3c5.1-11.8,14.9-17.3,26.1-21.4c2.8-1,6.5-1.3,8.2-3.3
		c6.9-8.3,16.7-11.9,25.7-16.9c11.9-6.6,20.2-15,18.7-30.3c-0.7-0.3-1.8-1-3-1.4c-29.8-11.4-59.6-23-89.5-34
		c-6.9-2.5-10-6.4-11.5-13.2c-1.7-7.6-4.2-14.9-6.5-23c-5.5,3.1-10.1,5.2-14.1,8c-8.4,5.9-17.4,7.1-27.4,5.2
		c-6-1.1-12.5-0.9-18.6,0.2c-6.2,1.1-11.1-0.5-16.9-4.7c0.7-5,0.9-10.6,2.4-15.9c1.3-4.6,1.1-8.4-2-12c-4.1-4.7-4.3-10.2-2.5-15.8
		c1.2-3.8,2.7-7.5,4.6-11c6.6-11.9,6.5-24.1,2.7-36.7c-1.3-4.1-3.2-8.1-4-12.3c-1.3-7.8-2.6-15.7-2.6-23.6c0-7.2,2.3-14.4,2.8-21.6
		c0.5-8,3.1-15.4,7.7-21.3c7.6-9.6,9-20.2,8.7-31.8c-0.2-8-2.9-14.1-8.6-19.3c-3.2-2.9-6.3-6-9.7-8.6c-5.6-4.1-12.5-7-18.6-3.3
		c-7.4,4.6-15.3,6.1-23.5,7.5c-4.5,0.8-7.6,2.9-10.1,7c-5.2,8.5-10.9,16.7-16.5,25c-4,5.9-8.3,11.6-12.6,17.6
		c-7.5-5-12.9-10.4-14.5-18.3c-1.3-6.3-2.9-12-9.1-15.5c-1.4-0.8-1.9-3.3-2.9-4.9c-1.4-2.6-2.8-5.2-4.2-7.8
		c-5.8-10.9-13.4-21.1-14.1-34.2c-0.4-7.3-2.4-8.6-10.3-8.9c-6.3-0.3-12.6-0.3-19-0.8c-31.4-2.3-62.8-4.9-94.3-7.1
		c-4.3-0.3-7.2-1.2-9.5-5.4c-3-5.5-6.7-6.2-11.5-2.9c-10.1,7-20.4,13.8-27.4,24.4c-1.9,2.9-4.5,5.5-7,8.5c-1.8-1.4-2.9-2-3.8-2.9
		c-14.3-13.8-27.3-29.1-45.5-38.5c-5-2.6-10.7-7.6-12.1-12.5c-3.1-11.5-10.8-19.6-17.4-28.7
		C2090.6,1927.9,2086,1922.7,2082.2,1918.1z M2482.1,2265.2c4.3,0.9,7.1,2,10,2c10.6,0.2,21.2,0.5,31.8,0c4.4-0.2,9.1-1.6,13.1-3.5
		c6.8-3.2,13.3-7.2,20.8-11.3c3.5,12.3,6.7,23.3,10,34.6c31.2,12,62.3,23.8,93.3,35.8c5.6,2.2,10.4,3.6,15-2.2
		c1.4-1.8,4.7-2.3,7.2-3.2c18.4-6.6,37.6-11.6,52.6-25.4c2-1.8,5.9-3.5,8-2.8c7.3,2.6,12.4-1.1,17-5.2c5.2-4.6,10.9-6,17.5-5.2
		c2.3,0.3,4.6,0,6.9,0c-0.7-0.8-1.5-1.6-2.2-2.5c4.1-2.8,8.4-5.4,12.3-8.5c5.3-4.2,8.8-9.4,10-16.6c1.1-6.1,4-12,6.7-17.7
		c2.9-6.1,7.1-10.8,13.5-14c8-4.1,15.5-9.2,22.6-14.6c10.9-8.2,22.1-15.9,34.9-20.9c6.2-2.4,12.2-4.7,19.1-5
		c13.3-0.5,26.5-1.8,39.7-3c15.6-1.4,31-2.7,46,4c5.4,2.4,11.4,3.5,13.7,11.9c1.5-7.7,1.7-13.6,3.9-18.7c6.4-15.1,7.5-30.8,7.8-46.9
		c0.1-6.1,1.4-12.7,4.1-18.2c4-8.2,6.6-17.5,14.7-23.4c1.4-1,2-3.4,2.6-5.2c2.5-7.9-0.1-15-3.8-21.8c-2.7-4.9-6.1-9.4-9.2-14.2
		c-2.3,0.3-4.6,0.7-6.9,0.8c-2.6,0-5.5,0.3-7.9-0.6c-3.7-1.3-6.8-1.3-10.3,0.6c-4.8,2.6-9,2.1-13.3-2.3c-5.2-5.3-6.9-4.9-13.1-0.9
		c-1.1,0.7-2,2-3.2,2.4c-9.4,3.7-15.8,10.1-19.3,19.7c-0.9,2.6-3.3,5-5.7,6.5c-10.1,6.3-20.3,12.6-30.9,18
		c-6.7,3.4-13.8,8.3-20.6,4.9c-2.2-5.6-3.6-9.5-5.2-13.4c-1.6-3.8-2.2-7.1,0.3-11.2c3-5,4.6-10.9,7-16.3c4.4-9.8,8.7-19.7,13.5-29.3
		c1.1-2.2,3.9-3.6,5.9-5.2c1.6-1.2,4-2,4.7-3.5c1.1-2.4,2.3-7.2,1.3-7.8c-5.6-3.5-6.2-10.3-10.3-14.4c-4.3-4.2-5.3-8.8-4.7-14.4
		c0.2-1.6-0.4-3.2-0.7-5.1c-7.2-2.7-14.1-5.8-11.2-15.6c0.2-0.8-0.4-2-1-2.7c-5.2-6.4-10.4-12.8-15.7-19.2
		c-20.9,12.5-41,24.4-61,36.3c-15.7,9.4-31.6,18.5-47.1,28.2c-6.8,4.3-13.2,1.7-20.4,1.3c1.1-3,2.1-5.4,2.7-7.1
		c-3-2.9-7.4-5.2-7.5-7.6c-0.2-6.2-3.8-7.9-8.3-9.6c-4-1.5-7.8-3.3-12.5-5.4c-4.8,6-13.3,9.3-12.2,19.9c0.2,2.3-3.9,6.1-6.9,7.5
		c-3.6,1.8-6.4-0.9-9.1-3.9c-4.1-4.6-9.1-8.7-14.1-12.4c-3.6-2.7-6.9-5.5-7.4-10.1c-0.5-4.8-3.5-6.8-7.3-8.5
		c-6.2-2.9-12.4-6-19.2-9.3c-2.1,0.7-5.3,1.7-9.3,3.1c-1.5-2.6-2.8-5.1-4.4-7.5c-1.4-2.1-2.6-5.1-4.7-6
		c-14.3-6.2-28.5-12.6-44.7-12.2c-11.7,0.3-23.3,0-35,0c-3.9,0-7.7,0.5-11.6,0.7c-3.7-1.6-7.8-4.8-11.5-4.5
		c-5.8,0.5-11.9,0.8-17.5,2c-7.6,1.6-14.6,5.6-22.1,8.1c-3.2,1.1-6.7,1-10.2,1.5c0-4-0.4-6.7,0.1-9.2c0.3-1.7,2-4.4,3-4.4
		c8.9,0.1,14.6-6.9,24-10.5c-4-1.6-6.5-2.8-9.1-3.7c-2.5-0.8-5.4-0.8-7.6-2.1c-3.2-1.8-5.2-4.3-10.2-2.7c-5.8,1.9-17.2-8-19.1-14.4
		c-3.1-10.1-5-10.9-14.8-6.2c-0.4,0.2-1.2-0.3-1.8-0.4c-5.7-11.5-5.7-11.5-2.3-24.2c1-3.7-0.7-6.1-4.9-9.2c-1.3,3.6-3.5,6.5-3.2,9.2
		c0.8,7.3-3.7,12-7.5,16.7c-5.8,7.3-11.3,14.6-12.8,24.1c-0.6,4.2-1.2,8.6-6.8,10.5c-4.6-6.3-9.1-12.5-13.4-18.2
		c-7.2,2.8-9.7,7.6-10.3,14.2c-0.6,6.9-2.4,13.7-3.6,20.6c-3.6,20.3-7.1,40.6-10.9,60.8c-0.9,4.6-0.4,10.5-8,11.3
		c1,6.3,0.9,12.3,3.1,17.2c5,11.1,11.2,21.6,17.1,32.3c0.9,1.7,2.4,3.4,4,4.3c4.6,2.6,6,6.3,6.5,11.5c0.7,7.6,4.6,13.5,12.7,18.2
		c0.7-1.3,1.2-2.5,1.9-3.7c8.1-12.2,16.5-24.2,24.3-36.6c3.1-4.9,6.6-7.3,12.5-8.4c7.4-1.3,14.3-4.8,21.6-6.9
		c3.7-1,7.7-1.5,11.5-1.3c9.2,0.4,14,8.3,20.5,13.3c6.4,4.9,9.4,11.6,9.6,19.9c0.3,12.5,0.5,24.7-8.7,34.8c-0.9,1-1.3,2.3-1.9,3.5
		c-5.3,8.9-5,19-6.7,28.8c-2.5,14.6-1.2,28.2,3.9,42.1c5.2,14.2,5.6,28.7-2.7,42.3c-1.3,2.2-1.9,5-2.9,7.4c-2.5,6-2.2,11.7,2,16.8
		c3.3,4.1,3,8.4,1.8,13.2C2483.1,2254.6,2482.9,2259.2,2482.1,2265.2z M2799.1,1324c-0.8-1.8-1.3-3-2-4.1
		c-24.8-37.9-49.8-75.6-74.5-113.6c-3.1-4.7-6.9-5.6-11.9-4.7c-7.5,1.3-14.9,3-22.5,3.6c-13.9,1.1-27.9,1.7-41.8,2
		c-5.3,0.1-9.5,1.8-13.9,4.5c-7.8,5-15.5,10.8-24.1,14c-31.4,11.8-63.2,22.6-94.8,34c-8.9,3.2-17.7,6.9-27.2,10.7
		c4.8,9.7,1.7,17-3,24.3c-3.2,5-5.3,10.7-7.7,16.2c-2.7,6-3.2,12-0.7,18.4c1.9,4.9,3.4,10,1,15.2c-6,1.1-11.7,2.1-18.5,3.3
		c4.9,6.5,9,12,13.2,17.5c-6,7.7-2.8,14,2.1,19.2c-2.4,6-3.6,11.7-6.7,16.2c-4.9,7.3-1.7,11.6,2.9,17.4c7,8.8,12.8,18.5,18.4,28.3
		c2.6,4.6,0.9,7.3-4.2,8.9c-4.1,1.3-8.3,3.1-12.5,3.1c-4.1,0-8.2-1.9-13.3-3.2c-2.7,9.2-5.8,18,0.1,26.6c4.2,6.2,4.7,12,1.5,18.7
		c-4.5,9.4-2.9,21.3,5.1,28.2c11.3,9.7,15.2,24.7,26.2,34.6c0.4,0.4,0.5,1.2,0.6,1.9c1.2,6.5,5.6,9.6,11.6,10.6
		c11.2,1.7,18.5,8.5,23.8,17.9c4.4,7.9,12.2,14.3,11.3,24.8c-0.1,1.3,3.5,4.1,5.4,4.2c2.9,0.1,5.6-1.8,5.2-5.8
		c-0.4-4.6-0.3-9.2-0.7-13.8c-0.1-1.5-1-3-1.8-4.4c-5.4-9.2-2.1-15.1,8.8-15.2c14.3-0.1,28.7,0,43,0c60.3-0.2,120.6-0.4,180.9-0.7
		c2.6,0,5.1-0.4,8.8-0.7c-0.8-7.5-1.6-14.3-2.2-21.2c-0.2-2.6-0.6-5.5,0.3-7.8c6.1-16,0.5-30.4-7.9-43.1
		c-7.8-11.7-10.4-23.3-7.5-36.8c1.6-7.3,1.6-14.9-3.7-20.8c-3.3-3.7-3.8-7.5-3.7-11.9c0.1-10.3,0-20.7,0-31c0-3.6,0-7.1,0-10.6
		c-18.1-6.5-35.1-12.7-54.4-19.7C2740,1359.8,2769.4,1342,2799.1,1324z M2995.4,1914.9c-0.9,0.9-1.5,1.3-1.9,1.8
		c-7.8,12.1-16.4,13-26.5,2.8c-2.8-2.8-5.4-5.9-7.6-9.2c-10.1-15.2-20.1-30.5-30-45.9c-8.7-13.6-14-12.8-23.7-4.7
		c-1.7,1.4-3.9,2.6-6,2.9c-22.6,3.7-40.1-13.6-41.5-30.7c-0.4-5.3-0.7-10.6-0.8-15.9c-0.1-6.4-0.4-12.5-7-16.4c-2-1.2-3-4.2-4.1-6.6
		c-1.8-3.9-3.2-8.1-4.9-12c-2.6-5.6-6.2-10.6-12.6-11.8c-9.6-1.8-16.5-7.7-21.6-15c-12.7-18.3-16.6-25.2-3.2-47
		c1.7-2.8,2.6-6.1,3.5-9.3c2.2-8,3.6-16.3,6.2-24.1c7.9-23.5,12.3-48.4,26.5-69.5c0.3-0.4-0.1-1.2-0.3-2.4
		c-13.7-4.1-27.6-8.3-42.7-12.8c-2.4,6.7-4.2,12.6-6.5,18.4c-2.1,5.2-3.6,11.1-7.2,15.1c-7.5,8.3-13.2,17.4-18.4,27.2
		c-2.8,5.3-6.7,10.5-13,11.6c-7.5,1.3-9.9,6.8-12.8,12.5c-2.2,4.3-4.5,9.5-8.2,12.1c-9.2,6.4-12.6,14.7-11.8,25.3
		c0.4,5.9-1.4,10.4-7.2,12.8c-5-2.8-4.5-7.5-4.9-12.2c-0.4-5.5-1.5-11-2.9-16.4c-0.9-3.6-3.8-5.2-8.1-4.3c-0.5,1-1.1,2.1-1.6,3.3
		c-4.3,11.3-12.4,17.6-24.7,18.4c-8,0.5-9.6,1.8-10.7,9.9c-1.1,7.9-1.2,15.9-2.1,23.8c-0.3,2.8-0.8,6.5-2.7,8
		c-6,4.6-12.3,9.2-19.2,12.2c-10.6,4.4-18-0.3-20.7-11.4c-0.8-3.2-2.6-6.2-3.9-9.2c-2.1,2.8-2.4,5.3-2.4,7.8c0,3.3,0.7,6.6,0.3,9.8
		c-0.7,5.9-5,7.2-9.7,3.4c-1.4-1.1-2.7-2.1-4.1-3.2c1,7.5,4,14.3,1,21.6c-0.3,0.8,0.9,2.4,1.6,3.5c6.4,9.9,6.8,20.9,3.2,31.4
		c-3.2,9.4-3.7,17.8,0.3,27c2.7,6.2-0.6,11.8-6.8,13.9c-1.8,0.6-3.9,0.4-6.8,0.7c9.2,17.3,10.4,35.1,5.9,51.5
		c3.5,6.4,6.3,11.3,9.7,17.4c6.7,2.7,15,6.3,23.4,9.4c3.8,1.4,6.3,3.3,7.1,7.4c0.4,1.8,1.5,3.5,2.4,5.5c2.7-0.8,4.9-1.8,7.1-1.8
		c2.4,0,5.1,0.5,7.3,1.6c4.5,2.1,8.6,4.9,13,6.9c5.3,2.5,9.7,4.9,10.9,11.7c0.5,3,4.1,5.7,6.6,8.1c4.4,4.1,9.5,7.4,13.4,11.8
		c2.2,2.4,3.9,4.8,7.2,3.6c3.3-1.2,5.2-3.6,4.8-7.7c-0.2-2.4,0.2-5.5,1.7-7.2c4.1-4.7,8.8-8.8,12.7-12.6c5.7,2.3,10.3,4.1,14.8,6
		c4.4,1.9,8.2,4.3,9.3,9.6c0.3,1.6,1.5,3.9,2.8,4.3c5.8,1.9,5.4,6.4,4.7,10.6c5.9,1.7,10.3,0.6,14.9-2.3
		c17.6-10.8,35.3-21.3,53.1-31.9c18.3-10.9,36.6-21.6,55.5-32.9c4.8,5.9,9.5,11.5,14,17.1c3,3.8,7.3,7,4.7,13.1
		c-0.5,1.2,1.5,4.2,3.1,5.4c2,1.5,4.8,2.1,8,3.3c0.4,3.2,0.9,6.7,1.3,10.3c0.2,1.6-0.7,3.7,0.1,4.8c4.1,5.9,8.2,11.8,12.8,17.3
		c3.5,4.2,4.4,8.3,1,12.3c-1.5,1.7-3.5,3.1-5.4,4.3c-4.8,2.9-8.3,6.3-9.2,12.2c-0.4,2.8-1.9,6-3.9,7.9c-4,3.7-5,8.5-6.6,13.1
		c-1.9,5.6-4.4,11-6.3,16.6c-0.9,2.6-1.6,5.7-1,8.3c1,4.4,3.1,8.5,5,13.2c6.6,0.9,12.4-2.5,18.2-5.6c9.9-5.3,19.6-11,29.1-16.9
		c2.4-1.5,4.9-4.2,5.4-6.7c0.9-4.7,4.1-7.1,6.7-10.5c4.1-5.2,10-7.4,15.2-10.9c9.2-6.3,9.1-6.2,18.1,0.4c1.9,1.4,5.5,3.3,6.8,2.5
		c6.3-3.7,12.5-2.7,19-1.3c8.3,1.8,11.8-4.5,15.6-9.7c3.4-4.6,0.6-8.9-1.6-13c-1-1.7-2.1-3.4-3-5.2c-4-7.5-6.5-15.1-4.1-23.8
		c2-7.4,3.3-14.9,4.8-22.4c2.3-11,5-22,4-31.5c-6.6-5.7-12-10.3-18.8-16.2C3005.6,1918.6,3000.7,1916.8,2995.4,1914.9z
		 M2765.3,1396.5c0,14.9-0.1,28.8,0.1,42.8c0,3.2,0.2,7.2,2.1,9.3c7.2,8.3,6.8,17.9,5,27.4c-2.3,11.9,1,21.6,7.3,31.8
		c8.6,13.9,15.2,28.9,8.5,46c-0.8,2-0.5,4.5-0.3,6.7c0.3,3.6,1.6,7.3,1.1,10.8c-1.1,8.3,3.8,12.8,10.2,15c13.8,4.8,27.9,8.9,42,12.5
		c9.1,2.3,20.1-7.1,18.7-15.6c-1-5.8-3.1-11.5-5.4-16.9c-3.3-7.6-7.7-14.8-10.6-22.5c-1.1-3-0.7-7.4,0.7-10.3
		c2.8-6,6.1-12,10.4-16.9c4.1-4.7,7.1-9.4,8.2-15.5c1.2-7,7.3-9.2,12.8-11.3c5.3-2,7.6,3.1,10.1,6.3c2.6,3.3,4.3,7.4,6.4,11.1
		c1.1,2,1.7,4.7,3.4,5.9c5.9,4.3,7.9,10.3,9.6,16.9c2,7.7,3.9,8.4,11.4,6.2c3.7-1.1,7.9-2.8,11.4-2.1c15.2,3.2,27.2-2.4,38.1-12.2
		c7-6.4,14.9-10.6,24.8-11.4c8.6-0.7,17.2-2.1,25.4-4.5c9.5-2.8,18.9-3.2,28.6-3.4c7.6-0.1,15.3-0.7,22.6-2.4
		c6.9-1.6,12.9-5.2,14.9-13.1c3-12.2,6.8-24.3,9.3-36.7c1.2-6,2.4-13.6-0.2-18.5c-4.6-8.9-8.6-17.3-10-27.5
		c-0.6-4.6-1.3-8.8-0.5-13.3c0.7-3.6,1.6-7.2,1.7-10.8c0-2-1-5.1-2.6-5.9c-10-5.2-19.6-14.3-31.8-4.6c-0.7,0.6-1.8,1-2.8,1.1
		c-12.2,1.5-19,9.3-24.6,19.4c-6.5,11.8-14.5,22.2-29.3,24.5c-5.2,0.8-8.5,4.4-11.8,8.5c-3.4,4.3-8.1,7.5-12.1,11.4
		c-2,2-4,4.3-5.2,6.8c-3,5.9-4.6,12.7-8.5,17.9c-6.6,8.8-14,16.9-13.6,28.5c-9.8,2.6-13.2,1.5-13.9-4.4c-0.9-7.2-1.4-14.5-2.4-21.6
		c-0.4-2.5-1.2-5.2-2.5-7.4c-6.5-10.9-8.5-21.8-2.9-34c4.8-10.4,3.3-16.4-5.7-23.2c-5-3.8-5.8-7.9-3.9-13c3-8.1,6.1-16.2,9.7-24.1
		c1.6-3.5,4.2-6.8,6.8-9.7c4.4-4.9,9.3-9.4,13.8-14.3c3.4-3.8,4.3-7.7,1.3-12.7c-4.2-6.8-8.7-13.2-15.1-18.2
		c-5-3.9-9.4-8.5-14.4-12.3c-4-2.9-5.2-6.4-5-11.1c0.4-7.7-2.4-14.2-7.7-19.8c-1.4-1.5-2.2-3.6-3.8-6.1c6.5-1.5,11.6-2.7,17.3-1.7
		c2,0.3,5.5-1.5,6.3-3.3c0.8-1.9-0.4-5-1.4-7.2c-0.5-1.2-2.5-1.8-3.8-2.5c0.9-3.7,1.7-6.8,2.5-9.8c-5.9-4.2-11.3-8.1-16.8-11.8
		c-3.6-2.4-4.8-5.4-2.9-9.3c1.4-3,2.6-6,4.4-8.8c3.4-5.2,7.2-10.3,11-15.7c4.1,1.4,8.4,2.8,12.8,4.2c1.6-3.6,2.9-6.5,3.9-8.6
		c4.9-2.3,10.3,1.4,14.3-4.2c-4.7-0.7-8.9-2.2-13-1.8c-10.9,1-21.7,2.6-32.6,4.2c-10.1,1.5-20.1,3.7-30.2,5.1
		c-5.2,0.7-10.7,0.1-15.9,0.7c-14.2,1.7-28.3,4-42.5,5.6c-10.2,1.1-20.5,1.1-30.7,2.2c-15.8,1.7-31.6,3.9-47.4,6
		c-2.1,0.3-4.1,1.3-7.3,2.4c26.9,41.2,53.2,81.6,80.2,123c-29,17.6-57.8,35.1-88.3,53.6C2732.6,1384.7,2748.4,1390.4,2765.3,1396.5z
		 M3196.1,1239.4c-4.5-1.3-8.9-2.7-13.3-4c-52.6-14.1-105.3-28.3-157.9-42.4c-7.3-2-14.7-3.7-22-5.9c-16-4.7-32.1-8.3-48.7-9.8
		c-2.4-0.2-6.3,0.3-7.3,1.8c-3.7,5.8-9.4,5.4-15.4,5.6c-0.8,4.3-1.5,8.2-2.3,12.8c-3-1.2-5.4-2.2-7.8-3.2c-2.4-1-4.8-2.2-7.5-3.5
		c-2.1,2.4-4.1,4.6-5.9,6.9c-2.4,3.2-5,6.3-7,9.7c-3.1,5.2-2.7,7,2.5,10.8c5.1,3.7,10.3,7.1,14.4,9.9c1.3,5.9,1.8,10.7,3.4,15.2
		c3.3,9.1,0.1,14.4-9.6,14.4c-3.7,0-7.3,0-10.4,0c2.9,6.7,7.4,12.7,7.5,18.7c0.1,9.3,4.3,14.6,10.8,19.8c9.5,7.7,19,15.4,24.8,26.7
		c2.4,4.8,2.7,8.6-0.6,12.7c-1.6,2.1-3.7,3.8-5.2,6c-5,7.4-13.7,11.7-17.1,20.5c-2.8,7.5-5.8,14.8-8.8,22.2
		c-1.8,4.5-1.7,7.4,3.3,10.6c9.4,6.1,10.5,11.2,7.4,22.2c-0.5,1.6-0.9,3.2-1.7,4.7c-4.7,8.7-4.4,18,0.3,25.9
		c6.3,10.5,5.9,22.2,8,33.4c1.2,6.4,3.4,5.8,6.5,5c3-6.9,4.6-13.6,8.4-18.5c6.7-8.5,11.9-17.5,15.4-27.7c1-2.8,3.6-5.3,5.8-7.5
		c4-3.9,9-6.9,12.2-11.3c4-5.6,8.7-9.1,15.3-10c6-0.8,10.8-3.4,14.4-8.1c4.3-5.5,9-10.8,12.2-16.9c3.3-6.2,7.6-11.2,13.5-14.2
		c7.2-3.7,15-6.8,22.9-8.9c3.7-1,8.4,0.5,12.4,1.8c4.3,1.4,8.4,3.8,13,6c1.1-4.6,1.2-9,3.2-12.2c8.3-13.1,16.2-26.8,26.2-38.6
		c10.7-12.6,25.7-17.2,42.3-15.3c6.4,0.7,11.7-0.9,16.3-5.5c4.2-4.2,9.3-7.6,13.2-12c5-5.7,10.7-11.2,11.5-19.3
		C3195.5,1259,3195.6,1249.7,3196.1,1239.4z M2357.6,1997.5c0.6-2.6,1-3.9,1.3-5.1c4.9-27.5,9.2-55,14.9-82.3
		c3-14.3-0.8-25.4-10.5-35.4c-5.6-5.8-8.4-12.5-7.2-21.2c-2.8-1.3-5.6-3.2-8.7-4c-11.5-3-23.1-6.3-34.8-8.2
		c-8.3-1.4-17.6-3.9-24.4,4.9c-1,1.3-4.1,0.9-5.4,1.2c-2-3.3-2.8-6.6-5-7.8c-3.9-2.2-8.5-3.9-13-4.5c-5.5-0.8-11.3-1.6-15.8,3.4
		c-1.4,1.5-3.9,2.4-6,2.8c-14.9,2.7-14.9,2.7-25.2-9.2c-0.7-0.8-1.3-1.5-1.9-2.3c-2.9-3.9-6.7-5.1-11.4-3.7c-4.1,1.2-8.4,2.2-12.6,3
		c-4.4,0.8-7.8,0-9.1-5.2c-0.7-2.8-2.2-5.6-4.1-7.8c-6.9-8.2-26.1-10.2-35.1-3.9c-0.8,0.6-1.6,1.3-2.1,2.1
		c-3.3,5.7-6.9,11.3-9.7,17.2c-1.5,3.1-2,6.9-2.2,10.4c-0.2,3.3,0.9,6.5,1.2,9.8c0.7,8-3.1,12.9-11,13.5c-9.3,0.7-18.5,0.7-26.7-5
		c-4.1-2.9-8.7-2.2-13,0.9c-4.6,3.4-4.7,7.6-3,12.3c1,2.8,2,5.6,3.4,8.3c4.5,8.8,5.7,17.5,0.7,26.5c-0.8,1.4-1.3,2.9-2.4,5.4
		c10.7,4.1,15.1,13.8,21.4,21.8c1.7,2.1,2.7,4.8,4.7,6.4c4.8,3.8,6.8,8.9,8.1,14.4c1.3,5.5,4.2,9.6,8.8,12.8c4.3,3.1,8.8,6,13,9.2
		c6.1,4.5,12.3,8.9,18,14c6.9,6.2,13.1,12.9,21.2,21c1-2.2,1.5-3.5,2.2-4.6c7.5-11.3,17.8-19.6,29-27c7.2-4.8,11.4-4.4,16.8,2.5
		c2.1,2.8,4.2,4.5,8.1,4.7c30.8,2,61.6,4.3,92.3,6.5C2333.7,1996,2345.2,1996.7,2357.6,1997.5z M2474.4,1544.4
		c-19,1.9-36.7-3.2-55-0.1c1.1,10.3-3.8,16.9-11.2,22.4c-2,1.5-3.9,5.1-3.5,7.4c2.2,12.9,1,26.6,9,38.3c2.7,4,4.3,9,5.4,13.8
		c1,4,1,8.4,0.7,12.5c-0.7,10.5-2.6,20.7,2,31.1c4.6,10.3,8,21.1,7,32.8c-0.5,5.9,0.2,12,0.6,17.9c1.7,28.1,3.6,56.3,5.2,84.4
		c1,17.9-0.2,35.9,4.2,53.5c0.4,1.4,0.1,3.5-0.7,4.7c-4.8,7-1.8,13,1.7,19.1c9.6-3.8,14.1-1.7,17,7.2c3.6,11.1,11.8,15.4,23.7,11.9
		c2.5,4.5,6.4,6.8,11.8,7.5c3.6,0.4,6.9,2.7,11.9,4.8c-8,9.5-17,12.9-27.3,14.9c0.1,2.7,0.3,5.1,0.4,7.8c9.3-3.5,18-6.7,26.5-10
		c1.1-0.4,1.9-1.7,3.1-2.8c3.7,2.7,7.2,4.5,11.7,1.2c1.8-1.3,5.7-0.2,8.4,0.5c3.1,0.8,5.9,2.6,9.4,4.2c0.3-2.5,1.2-4.5,0.6-5.6
		c-2.2-3.8-1.3-7.1-0.9-11.2c0.8-7.5-0.5-14.9-8.1-19.8c-9.2-6-9.8-14.6-2.6-22.6c6.9-7.6,13.7-15.3,20.9-23.3
		c-3.3-8.4-6.7-16.5-9.6-24.8c-3.8-10.8,0.1-16.1,11.2-16.8c3.9-0.3,7,0.3,10.3,2.5c2.3,1.6,5.2,2.3,7.1,3.1
		c2.4-4.9,4.4-9.1,6.5-13.5c-1.2-1.4-2.8-3.4-5.9-7.2c4.7-3.4,9.2-6.6,13.7-9.8c-3.9-4.9-7.7-8.1-9.5-12.2c-2-4.6-5.4-7.2-9-10.2
		c-1.5-1.3-1.8-5-1.3-7.2c0.6-2.7,2.7-5,3.4-6.3c-2-4.8-3.9-8.6-5.2-12.5c-7.1-22.1-11.6-45.1-25-64.8c-1.6-2.4-2.4-6.9-1.3-9.5
		c3.5-8.4,4.3-16.8,4.5-25.9c0.2-10.5-1.3-19.7-7.1-28.4c-1.9-2.8-3.9-5.5-5.5-8.4c-5-8.9-11.6-14.9-22.3-16.5
		c-3.8-0.6-9.2-3.3-10.4-6.4C2487.1,1561.9,2477.4,1555.8,2474.4,1544.4z M2557.1,1717.4c4.6-4,9.3-7.6,13.3-11.8
		c2.5-2.6,4.8-3.6,7.8-2.1c7.7,3.8,15.5,7.8,23.1,11.9c3.9,2.1,5,5.1,4,9.9c-1.1,5.3-0.2,10.9-0.2,17.5c1.5-2.3,2.3-3.5,4.2-6.4
		c3.1,6.8,6.2,12.1,7.9,17.9c2.6,9.2,9.1,13.2,18,9.3c5.1-2.3,9.8-5.6,14.4-8.7c3.8-2.6,5.1-6.2,5.2-11c0.2-8.3,0.9-16.6,2.3-24.7
		c1.3-7.4,4.2-9.8,11.7-9.6c11.7,0.3,18.6-5.5,22.8-15.7c1.3-3.1,2.5-7.4,6.4-6.3c3.4,0.9,7.6,3.7,8.9,6.7
		c2.3,5.6,2.8,12.1,3.9,18.2c0.4,2.4,0.7,4.7,1.2,7.9c6.6-4.1,4.8-9.5,4.7-14.1c-0.1-7.8,2.6-15.2,8.4-19.1
		c7.2-4.9,11.3-10.9,13.9-18.6c1.4-4.3,3.7-7.5,8.7-8.4c7.8-1.5,12.3-6.9,16.2-13.5c5.1-8.5,11.3-16.3,16.9-24.6
		c2.4-3.5,4.9-7.2,6.4-11.2c2.7-7.4,4.7-15,7.4-23.7c-2.4-0.6-5.3-2.1-8.3-2c-43.9,0.5-87.8,1.3-131.7,1.7
		c-31.6,0.3-63.3,0.1-94.9,0.1c-2.3,0-4.7-0.1-7,0.1c-6.1,0.5-8.4,4.5-4.6,9.4c2.6,3.3,3.1,6.2,2.8,10c-0.2,2.6-0.3,5.4,0.2,7.9
		c1.1,5.3-0.2,9-5.6,11.1c-5,1.9-6.3,5.6-6.3,11c0,6.1-1.5,12.4-3.2,18.4c-1.5,5.2-1,9.4,1.5,14.2c4.9,9.4,9.2,19.1,13.2,28.9
		C2553.3,1704.2,2555.2,1711.3,2557.1,1717.4z M2367,1408.9c-12.3,9-27.1,14.5-40.5,23.8c1.1,21,2.2,42.4,3.3,64
		c14.9,1.1,28.7,2.2,43.9,3.3c-1.1,7.7-2.1,14.1-3,20.6c-1.3,8.9-0.3,17.2,6.4,24c8.1,8.2,16.3,16.3,24.4,24.4
		c17.6-15.7,12.9-11.9,16.2-27.6c17.1-2.3,34.5,2,52.9-1c-3.9-4.4-6.7-7.7-9.6-10.8c-6.9-7.4-9.3-20.4-4.7-29.4
		c3.3-6.4,3.2-12-1.4-17.5c-3.5-4.2-4.3-8.8-2.9-14c0.6-2.2,0.5-4.6,0.7-6.9c0.8-7.8,4-10.6,11.1-7.9c8.2,3.3,14.6-1,22.5-2.8
		c-1.4-3.7-2-6.8-3.6-9.1c-5.6-8.2-11.3-16.4-17.5-24.2c-4.1-5.1-6.6-9.6-2.5-16c2.6-4.1,4.3-8.8,6-13.4c0.6-1.6,0.6-4.3-0.4-5.4
		c-4.7-5.6-4.8-11.3-0.7-17.4c-5-6.5-9.8-12.7-15.5-20.1c8.4-1.4,15.4-2.5,22-3.6c0.3-1.4,0.6-2.1,0.5-2.7c-0.3-1.6-0.5-3.3-1.1-4.8
		c-5-11.5-2.3-22.1,3.2-32.5c2-3.8,3.9-7.8,6.3-11.3c4.1-6.1,5.1-12.1,0.3-19c-41.3,14.6-82.7,29.2-126.4,44.7
		c8.3,2.5,8.1,7.1,6.6,12.1c2.9,0.6,5.3,1.1,8.2,1.7c-1.2,8-2.2,15,1.5,22.5c2.8,5.7,2.1,13,4,19.3c2.2,7.2,0.9,13.5-2.1,20.2
		c-14.4-1-28.5-2-43-3c0,4,0,6.9,0,9.8c2.7,0.5,5.1,0.7,7.2,1.5c2.2,0.7,4.1,2,6,2.9C2357.1,1395.8,2361.2,1396.8,2367,1408.9z
		 M2270.4,1834.1c5.2,2.3,13.3,0.8,14.4,12.7c3.4-4.5,4.8-8.5,6.8-8.8c6.1-0.9,12.6-1.5,18.6-0.3c12.7,2.4,25.2,5.7,37.7,9.1
		c4,1.1,7.6,3.6,11.5,5.5c-1.9,9.5,2,15.9,7.5,22.3c3.8,4.4,6,10.1,8.9,15.3c1,1.8,1.8,3.7,3.4,7.2c1-14.2,1-14.2,5.3-14.9
		c0.7,2.8,0.6,6.2,2.3,8.4c4.6,6.1,10,11.6,15.9,18.4c1.1-5.2,1.9-9.3,2.8-13.4c0.4-1.9,0.5-4.1,1.6-5.5c4.4-6,9-11.9,13.7-17.6
		c2.7-3.2,4.4-6.4,4-10.8c-0.5-6.2,2-10.8,8.8-12.8c-0.9-17.4-1.7-34.6-2.6-51.8c-1.2-22.6-2.4-45.1-3.6-67.7
		c-0.7-12.9-0.8-25.9-2.2-38.8c-1.1-10.5-5.9-20-10-29.7c-1.1,0.5-1.5,0.6-1.6,0.8c-4,10.4-7.9,20.7-21.3,21.9
		c-5.1,5.1-10.7,9.8-15.3,15.4c-3,3.7-6,6-10.7,6.1c-3.7,0.1-6.2,1.8-7.7,5.2c-5,11.3-13.7,21-13.9,34.2c0,1.4-1.3,2.9-1.2,2.7
		c-7.3,2.4-13.2,4.3-19,6.3c-11.5,4.1-21.2,10.2-25.7,22.5c-0.8,2.1-3.4,4.2-5.7,5.1c-5.9,2.4-7.4,7-7.8,12.7
		c-0.2,3.9-0.2,8.2-1.6,11.7c-3.8,9.3-5.2,19.9-13.6,27C2269.9,1832.7,2270.2,1833.2,2270.4,1834.1z M2599.2,1851.3
		c-6-11-4.9-22.6-0.9-35c2.5-7.8,2.5-16.8-2.6-24c-3.9-5.5-1.6-10.6-1.7-16.1c-0.1-5.5-5.6-10.6-1.5-17.9c3.8,2.6,7.4,5.1,11.3,7.8
		c2.1-4.2,3.5-7.7,1.3-11.7c-5-8.9-4.8-18.7-3-28.1c1.1-5.7-0.8-7.9-5.1-10c-7.1-3.4-14.2-7.1-21.7-10.8c-4.4,4.6-8.4,9-12.6,13.2
		c-2.9,2.9-3.2,5.6-2.6,9.8c1,6.4,4,10.9,9.2,14.7c-2.1,2.3-3.8,3.8-5.2,5.6c-2,2.7-1.8,5.4,0.4,8.1c5.4,6.5,10.8,13.2,16,19.9
		c0.9,1.2,1.1,2.9,2.1,5.9c-3.6,2.7-7.3,5.5-9.7,7.3c0.9,5.1,2.8,10.9,1.8,11.4c-5.7,3.2-2.9,9.1-5.2,14.1
		c-9.6-1.7-17.9-11.6-30.2-4.5c0.2,3.3-0.3,8,1,12.1c2.6,8.4,6.3,16.4,9.5,24.5c-7.7,8.5-14.8,16.3-21.9,24.2
		c-6.5,7.2-6.2,14,2.2,18.9c7.6,4.4,9.2,11.5,9,18.5c-0.2,6.7,1.1,12.7,2.9,19.5c18.4,0,36.5,0,54.4,0c2-4.8-1.1-6.6-3.4-9
		c-1.5-1.5-3.2-3.8-3.2-5.7c0.1-4.8,0.6-9.8,2.1-14.3c2.4-7.1,1.5-13.6-1.2-20.4c-2.8-6.9-4.8-14-7.5-22.2
		C2589.6,1857.7,2595.8,1860.3,2599.2,1851.3z"/>
	<path id="_x31_169" class="st0" d="M2652.1,1202.6c-2.1,1.1-3,1.9-3.8,1.8c-9.8-1.3-17.4,3.2-24.5,9c-6.9,5.6-15.2,7.8-23.3,10.7
		c-22.8,8.2-45.4,17.1-68.2,25.4c-56.3,20.4-112.6,40.7-168.9,60.9c-5.8,2.1-5.8,2-9.5,7.3c2.2,1.2,4.4,2.5,6.8,3.8
		c0.2,3,0.3,6.2,0.5,9.6c2.2,1,4.2,1.9,6.2,2.8c-0.2,5.8-0.5,10.8,1.8,16.5c3.6,9,4.4,19.2,5.9,29c0.4,2.7-1,5.7-1.7,9.4
		c-14.4-1.2-28.1-2.4-41.7-3.6c-0.9-8-1.4-14.5-2.4-21c-0.3-2.2-1.2-5.2-2.8-6c-6.4-3.3-7.8-9.4-10.2-15.2
		c-2.6-6.3-12.8-9.7-17.2-4.8c-5.9,6.6-13.3,4.8-20.2,6.2c-2.2,0.5-4.7,0.2-7,0.1c-5.4-0.2-9.6,1.4-12.3,6.6c-1.3,2.3-4,3.9-6.2,5.9
		c-6.4-4.5-7.8-9.7-5.8-16.1c0.6-1.9,0.9-3.9,1.5-5.8c4.5-12.9-1.8-21.7-11.3-29.2c-10.7-8.4-21.5-16.7-32.3-25.1
		c-6.1-4.8-8.9-10.1-4.9-18.1c3.6-7.1,1-13.7-3.3-20.4c-6.1-9.4-11.2-19.5-15.8-29.7c-1.6-3.5-1.4-9.1,0.3-12.6
		c5.6-11.8,4.3-24.7,6.7-36.9c1-5.2-1.3-9.4-6.3-12.4c-9.1-5.5-17.7-11.8-28.6-13.5c-1.6-0.2-3.4-0.8-4.6-1.8
		c-8.5-7.1-18.8-9.6-29.1-12.3c-6.5-1.7-6.9-2.3-5.4-9c3.7-17.6,7.5-35.1,11.6-52.6c1.4-6.1,1.3-11.7-0.8-17.6
		c-3.9-10.9-7.3-22-11.5-34.7c7,2.1,12.2,3.7,16.9,7.6c5.6,4.7,12.1,8.1,17.8,12.7c8.8,7.1,18.1,4.6,27.4,2.2
		c6.2-1.6,11.6-3.3,18.1,0.5c5.7,3.4,11.8,0.4,14.6-5.8c4-8.8,8-17.3,15.3-24.1c4.3-4,4.2-10,2.8-16c-1.3-5.7-1.5-11.6-2-16.3
		c7.2-5.2,13.1-9.3,18.8-13.8c2-1.6,4.3-3.8,4.7-6.1c1.2-6.5,5.6-9.2,11.1-11.6c4-1.7,7-2.1,11.1,0.3c9.2,5.3,16.3,2.9,21.6-6.3
		c2.5-4.3,0.5-10-4.8-10.9c-10-1.7-17.4-8.1-25.7-12.8c-3.3-1.9-5.9-6.2-7.2-10c-2.5-6.8-5.6-12.1-11.8-16.6
		c-4.4-3.2-7.7-9.5-8.8-14.9c-2-9.5-6.5-16.8-14.1-22.1c-6.1-4.3-8-9.8-8.1-17.1c-0.1-9.3-0.6-18.4,3.4-27.3c2.6-5.8,6-8.5,12.1-8.2
		c1.7,0.1,3.3,0.1,5,0c8.3-0.5,15.7-2.6,19.1-11.6c0.7-1.8,3.1-4,4.8-4c6.7,0,13.5,0.7,20.2,1.3c4.9,0.4,6.1-3,7.2-6.6
		c2.4-7.6,4.5-15.3,7.4-22.7c1.9-4.8,4.8-9.4,7.9-13.7c4.9-6.6,3.5-10.8-4.5-12.7c-8.7-2.1-17.4-4.3-25.8-7.1c-6.9-2.3-8.3-6.7-5-13
		c0.9-1.7,2.4-3.1,3.7-4.7c2.9-3.5,4.8-6.5,1.9-11.5c-1.6-2.8-0.3-7.3-0.3-11.4c7.3-0.7,11.8,3.4,16.7,5.7c4.7,2.3,8.6,3.4,12.3-1.4
		c3.2-4.1,6.9-2.5,10.9-1.2c15,5,26.4-3.8,24.3-19.2c-0.7-5.2,0.9-8.9,3.4-12.9c4.9-7.8,4.7-10.7-0.9-17.9c-3.9-4.9-3.9-4.9-3-11.6
		c6.5,0,13,0,19.4,0c3,0,6.1,0.2,9-0.3c4.4-0.8,7.3-4.2,7.6-8.2c0.2-2.2-2.2-5.1-4.1-7.1c-2.5-2.7-5.4-5-8.4-7.1
		c-11.7-8.1-14.6-18.7-7.2-32.5c6,0.4,11.8,1.4,17.6,0.9c5.9-0.5,11.5-2.8,17.4-3.7c14.1-2.1,28.3-3.8,42.4-5.8
		c4.3-0.6,8.5-1.4,12.6-2.7c8.8-2.7,11.5-11.8,5.5-18.8c-3.6-4.3-8-8-11.9-12.1c-6.2-6.6-5.5-13.7,3.2-16.2
		c10.3-3,17.6-10.4,26.9-14.6c2.7-1.2,4.5-5.4,5.9-8.6c4.5-10.9,6.8-12.4,18.1-9.3c5.1,1.4,10,3.5,15.1,5.1c2.5,0.8,5.1,1.5,7.7,1.6
		c7.1,0.2,9.5-3.1,7.6-10.1c-0.9-3.2-2.6-6.2-3.4-9.4c-0.7-2.5-1.3-5.3-0.6-7.6c0.5-1.6,3.4-3.4,5-3.2c1.5,0.2,4,3.1,3.7,4.5
		c-2.5,16.3,3.6,32.2,1.7,48.5c-0.8,6.4,3.1,13.4,5.4,19.9c0.6,1.6,3.5,3.2,5.5,3.3c15.3,0.9,30.5,1.8,45.8,2
		c5.1,0.1,10.3-2.1,14.9-3.1c1.7,4.7,3.5,9.6,5.3,14.5c0.8,2.2,1.8,4.3,2.3,6.5c2.4,9.5,1.1,17.8-9.4,23.9
		c8.7,5.7,16.4,10.7,24.1,15.7c7.8,5.1,15.6,10.1,24,15.6c-4.8,10.3-7,21.5-15.7,29.5c-3.8,3.5-7.7,5.8-13.3,5
		c-4.5-0.6-9.2-0.3-13.8,0.2c-10.8,1.2-19.2,7.6-26,15.2c-5.4,6.1-11.7,9.4-18.9,12.2c-3.3,1.2-7.2,3-8.9,5.7
		c-6.1,9.7-14.1,17.4-22.7,24.8c-3.2,2.8-4.4,7.8-6.3,11.4c8.7,10.7,9.2,10.9,20.5,5.8c5.6-2.5,11.2-3.9,17.4-1.5
		c2.3,0.9,5.1,0.7,7.7,0.9c3.8,0.4,7.7,0.8,11.4,1.1c1,3.8,1.7,6.6,2.6,9.7c-0.7,0.3-1.5,0.9-2.4,1c-4,0.4-7,1.4-6.9,6.5
		c0,1.5-1.9,4-3.4,4.5c-7.4,2.4-8.3,8.5-9.9,15.8c4.6,2.2,9.3,4.4,14.4,6.8c-0.9,2.1-2,4.7-3.3,7.6c3,3.5,6.4,4.6,11.3,3.1
		c5.2-1.6,11.6-0.5,13.7-7.6c2.6-8.9,8.9-13.6,17.9-15.2c1.9-0.3,3.8-1.2,5.3-2.4c7-5.7,13-7,22.3-3.7c-3.1,2.1-6.1,3.6-8.3,5.8
		c-1.7,1.7-3.3,4.3-3.3,6.5c0,1.3,2.9,3,4.8,3.9c2.5,1.2,5.4,1.9,8.3,2.9c-2.4,4.2-5.3,2.9-8,1.5c-5.2-2.6-9.6-1.6-14,3.1
		c0.7,2.3,1.4,4.9,2.4,8.1c-1.7,0.4-3,1-4.1,0.9c-5.7-0.6-9.9,1-13.5,6.1c-2.6,3.7-7.1,5.9-10.6,9c-1.9,1.6-3.5,3.6-5.2,5.4
		c2,1.8,4.1,3.6,7.1,6.2c0.2,1.4,0.5,4.3,0.9,7.7c4.3-0.5,8.2-1,12.3-1.5c2.8-7.4,7.6-10.6,15.6-7.5c1.6,0.6,3.8-0.4,5.7-0.8
		c6.4-1.4,12.7-3,19.8-3.9c-5.6,7.1-3.1,13.8-0.9,20.8c3.8,11.7,7,23.6,10.2,35.5c1.1,4.1,2.6,7.3,6.7,9.2c2.3,1.1,4.8,3.2,5.6,5.4
		c3.1,9.1,8.4,17,12.2,25.7c4.8,11-1.3,20.7-5.6,30.3c-1.2,2.7-3,5.2-4.7,7.6c-8.9,13.1-6.3,26.2,4.5,34.7
		c10.9,8.5,14.7,21.2,21.9,31.7c1.2,1.7,0.8,5.2-0.1,7.4c-3.8,9.1-8,18-12.6,28.3c5.9,5.8,14,10.9,23.5,14c0.9,0.3,2,0.4,2.9,0.1
		c18.9-5.1,37.5,1.9,56.2,2c1.4,0,3.2,1.1,4.3,2.2c11.1,11.3,22.1,22.8,34.5,35.7c-5.4,0.3-8.9,0.1-12.3,0.7
		c-4.2,0.8-8.8,1.6-12.3,3.8c-13.9,8.7-29.1,10.7-44.9,9.3c-8.4-0.7-16.5-0.2-24,4.3c-4.6,2.8-9.4,2.5-14.3,0.2
		c-4.8-2.3-9.8-4.1-14.7-6.3c-13.8-6.4-24-4.5-33.7,7c-4.7,5.5-8.1,12.3-13.5,17c-5.4,4.6-12.5,7.3-19.9,11.4
		C2625,1151.9,2638.1,1177.3,2652.1,1202.6z"/>
	<path id="_x31_170" class="st0" d="M3318.7,1009.4c-2.6-3.1-3.6-4.3-4.5-5.6c-6.1-8-14.8-9.8-23.5-4.6c-5.4,3.2-10.4,7.2-16,10.1
		c-4.6,2.4-9.8,3.8-14.8,5.1c-1.7,0.4-4.5,0-5.6-1.1c-4.8-5-10.6-4.1-16.7-4.1c-6.7,0.1-11.6,1.8-14.2,8.4
		c-3.7,9.3-12.1,7.6-20.8,7.9c-3.1-9.8-11.5-17.8-11.4-29.6c0-4.7-1.9-8.9-6.2-11.9c-5.8-4.2-8.5-10.1-7.6-17.4
		c0.7-5-1.2-9.1-4.6-12.6c-4.4-4.5-9.3-8.6-13.1-13.6c-3.6-4.7-6.4-10-8.8-15.4c-5.6-13.2-13.6-15.9-26.6-7.4
		c-1.4-4.6-2.8-8.8-3.9-13.1c-1.4-5.5-3.8-9.4-10.4-10.2c-6.2-0.7-12.1-2.9-19.2-4.7c9.6-20.5,19-40.5,29.1-62.1
		c-4.3,0.8-6.8,1.1-9.1,1.8c-7.5,2-8.8,1.6-12.8-5c-4.9-8.1-11.6-15.6-8.3-26.3c-9.1-0.5-9.1-0.5-12.7,9.7c-1.7-1-3.2-2.1-4.8-2.9
		c-3.5-1.8-6.8-4.2-10.5-4.9c-5.2-1.1-10.6-1.4-15.9-1c-3.8,0.3-7.7,1.8-11.1,3.5c-8.4,4.3-11.8,3.1-14.9-5.8
		c-2.8-7.8-5.8-15.4-9.2-24.2c-8.5,1-16.9,2-25.4,3.1c-5.6,0.7-11.2,1.3-16.8,2.2c-8.3,1.2-10,3.1-10.9,11.4c-0.2,2.1-0.9,4.2-1.6,7
		c-5.1-1.9-9.4-3.4-14.4-5.2c-1.7,4.3-3.2,8.2-5.1,13c-3.4-1.9-5.9-3.3-8.8-5c-3.3,3.8-6.6,7.6-9.9,11.3c-0.4-0.3-0.8-0.6-1.3-0.8
		c1.2-5.3,2.5-10.6,3.8-16.4c1.8-0.9,3.8-2,5.9-2.9c10.4-4.6,11.4-7.1,6-17.9c2.6-1.2,5.4-2.2,7.7-3.8c2.1-1.4,3.6-3.6,6.1-6.2
		c-6.4-2.6-11.5-6.1-18.8-3.1c2.7-3.4,5.3-6.7,8-10.1c-5.5-5.2-42.1-24.6-58.5-30.9c-0.8,2.8-1.4,5.5-2.4,8.2
		c-3.2,9-8.9,12.9-17.8,12.9c-4.5,0-9.5-2.3-13.3,1.7c-6,6.4-14.7,10.7-17.1,20.2c-0.4,1.6-0.6,3.3-1.1,4.9
		c-3,9.4-6.4,18.1-18.5,19.2c-5.8,0.5-10.3,4.3-13.5,9.4c-6.1,9.6-16,7.9-25,7.2c-5.4-0.4-7.9-5.2-6.6-11.3c1-4.8,3.1-9.4,4.9-14.1
		c2-5.3,4.3-10.5,6.3-15.7c3-7.4,3.2-14.9,0-22.3c-2.2-5-1.8-9.6,1.1-14.2c1-1.6,1.8-3.8,1.5-5.6c-1.4-9.1-1.3-18.6-6.4-26.9
		c-1.2-2-2.4-4-3.4-6.1c-3.5-8.1-2.7-11.6,3.7-17.7c1.7-1.6,3.4-3.1,4.9-4.9c2.1-2.5,4-5.3,6.4-8.4c-2.5-6.7-5.3-13.4-7.4-20.3
		c-1.3-4-1.9-8.4-2.1-12.6c-0.2-6.3-0.9-11.7-7.9-14.3c-2.4-0.9-4.2-3.3-6.3-4.9c-8.1-6-12.2-4.9-16.7,5c-2.6-1.4-5-3.1-7.7-4
		c-3.5-1.1-7.4-1.6-9.8,2.4c-2.1,3.4-1,6.3,1.6,9c0.9,0.9,1.8,2,3.2,3.5c-2.1,2.1-4.1,4.1-5.7,5.7c-10.8-2.7-19.4-7.2-25.1-16.1
		c-1.5-2.4-3.1-5.2-3.5-8c-1.5-11.8-2.6-23.6-4-35.4c-0.2-1.8-1.3-3.9-2.6-5.1c-5.2-5-10.5-10.1-16.2-14.6c-2.4-1.9-5.7-3.3-8.7-3.7
		c-9.7-1.4-17.3-5.5-23.3-13.6c-3-4-7.8-6.7-12-9.9c-3.2-2.4-6.4-4.6-9.9-6.5c-3.9-2.2-8.3-3.5-12.1-5.9
		c-10.9-6.7-21.1-14.6-28.7-24.9c-3.7-5-4.8-12-6.9-17.7c5.2-0.5,11-1.1,16.8-1.6c6.1-0.6,10.9-3.8,13.5-9.1
		c2.7-5.4,6.6-8.3,12.4-8.5c5.5-0.2,8.6-3.2,10.5-7.8c3.2-7.8,8.8-16,5.1-24.3c-4.6-10.5-11.2-20.1-17.4-29.7
		c-1.6-2.5-5.3-3.7-8.3-5.7c0-2.9,0-5.9,0-9.8c1.8,0.3,3.3,0.5,4.7,0.9c25.1,6.6,50.5,12.2,75.1,20.3c15.9,5.3,31.1,4,46.9,2.7
		c16.2-1.3,32.5-2,48.7-3.1c20.2-1.3,40.4-2.6,60.6-4.2c2.6-0.2,5.1-2.2,8.6-3.7c-2-3.5-3.5-6.1-4.9-8.5
		c-5.3-9.1-10.8-18.1-15.8-27.3c-1.2-2.2-1.7-5.2-1.4-7.6c0.3-2.2,2-5.6,3.6-5.9c2.5-0.5,7.1,0.5,7.8,2.1
		c3.7,8.4,11.3,9.6,18.6,11.8c17.8,5.4,35.5,11.1,53.4,16.4c4,1.2,8.3,1.3,13.2,2c1.1-13.1,7.6-24,2.1-37c-3.2-7.5-0.5-16.3,3.5-24
		c1.5-2.8,3.4-6.2,3.1-9.1c-0.8-6,1.7-9.3,6.2-12.4c7.7-5.1,15.6-10,20.8-18.2c1-1.7,4.6-2.6,6.8-2.5c3.9,0.3,7.8,1.6,11.5,2.7
		c2.9,0.8,5.6,3.1,8.4,3c9.4-0.3,16.5,4.8,23.6,9.6c4,2.7,7.4,6.4,10.9,10c2.1,2.1,3.5,4.9,5.5,7.1c10.8,11.1,18.2,11.8,31,3.1
		c1.9-1.3,4.3-2.3,5.7-4c5.8-7.2,13.4-8.9,22.2-8.9c4.3,0,8.5-2.2,15.1-4c2.7,1.5,7.5,4.1,12.1,6.7c0,5.6-0.4,10.5,0.1,15.3
		c0.7,6.5,4.1,11.8,9.4,15.8c9.1,6.9,16.6,15.2,22.7,24.9c4.2,6.7,10.4,11.4,18.8,11.4c12,0,19.9,5.7,25,16.4
		c4.4,9.3,9.3,18.4,14.3,27.3c1.8,3.1,4.1,6.3,7,8.3c7.9,5.5,12.7,13.4,18.1,21c7.9,11,17.9,19.8,31.3,23.7
		c11.4,3.3,16.8,11.1,18.9,22.6c-0.6,0.7-1.1,2.1-2.2,2.8c-14,9.4-24.2,22.7-35.5,34.8c-2.2,2.4-4.1,5.2-5.8,8.1
		c-4.6,7.8-10.2,14.3-18.6,18.9c-5.4,2.9-9.9,7.9-13.9,12.7c-4,5-4.1,10.9-1.1,16.9c3.4,6.8,6.6,13.8,9.5,20.8
		c5.7,14,13.9,25.5,28.5,31.6c4.8,2,8.8,3.7,12-2c2.4,1.3,4.3,2,5.8,3.3c5.2,4.4,11.1,5.7,17.7,5.1c7.9-0.7,15.8,1.4,23.7-1.6
		c2.1-0.8,6.1,0.8,8,2.6c3.5,3.4,6.3,7.6,9,11.7c1.6,2.5,2.3,5.5,3.4,8.3c3.8,9.5,9,12.8,18.4,10.2c11.9-3.3,15.8-4.5,18.3,12
		c0.8,5.6,1.4,11.2,1.9,16.8c0.6,8.3,0.3,16.7,1.7,24.8c1.6,9.2,5,17.6,12,24.7c7,7,12.7,15.3,18.8,22.7c-0.1,1.2,0,2-0.3,2.5
		c-6,9-8,19.4-10,29.6c-1.2,6-3.8,10.7-8.1,14.3c-6.5,5.4-10.2,12-10.5,20.6c-10.3,2.7-16.6-3.5-23-9.1c-0.5-0.4-0.9-1-1.1-1.6
		c-5.9-15.5-19.5-19.8-33.8-22.7c-10.9-2.2-21.3-5-29.3-13.5c-2.7-2.9-6.3-3.1-10.1-1c-5.2,3-10.7,5.4-15.8,8.5
		c-11.7,7-23.3,14.1-34.9,21.3c-9.4,5.9-12.1,13.5-10.2,24.5c2.6,15,10.6,26.2,22.7,34.9c5.4,3.9,10.5,8.2,15.5,12.5
		c4.9,4.3,6.7,9.7,5,16.1c-0.6,2.2-1.3,4.7-0.9,6.9c1.1,6.9,1.4,13-2.8,19.6c-3.5,5.5,0.1,9.6,7.5,10.2c16.9,1.5,33.7,2.9,50.6,4.2
		c17.2,1.4,34.4,2.7,51.6,4.2c2.6,0.2,5.1,1.2,7.8,1.9c1.7,12.3,3.7,24.4,5,36.5c0.8,7.6-2.1,10.9-10.6,10.5
		c-9-0.3-16.1,3.5-23.2,7.9C3322,997.3,3317.5,1000.5,3318.7,1009.4z"/>
	<path id="_x31_171" class="st0" d="M2656.2,1202.9c-13.5-25.1-26.8-49.7-39.8-73.8c0.9-1.4,1.1-2.3,1.6-2.5
		c12.7-5.3,22.2-13.6,29.2-25.7c6.4-11.1,18.8-13.1,30.7-7.7c5.1,2.4,10.4,4.4,15.5,6.9c5.5,2.7,11,2.6,16.1-0.4
		c8.6-5.2,17.8-5.2,27.1-4c12.6,1.7,24.5-0.9,35.6-6.3c7.9-3.8,15.4-7.5,24.6-6.8c2.7,0.2,5.5-1.2,9.3-2.2c-1.9-2.7-2.8-4.4-4.1-5.7
		c-10.6-11.1-21.3-22-31.7-33.2c-2.8-3-5.7-3.9-9.6-4.1c-13.6-1-27.1-2.6-40.6-3.6c-3.2-0.2-6.8-0.1-9.7,1.2
		c-3.8,1.7-7.3,1.3-10.4-0.4c-5.7-3.1-11.1-6.9-16.1-10.1c4.2-9,8.2-17.3,12-25.7c2-4.5,1.9-8.8-1-13.2c-3.3-5-5.5-10.6-8.8-15.5
		c-2.7-4.1-6.1-7.8-9.6-11.2c-4.9-4.6-9.5-9.3-11.1-16.1c-1.2-5.4-0.7-10.4,2.2-15.4c4-6.9,7.9-13.9,11.1-21.2
		c4.9-11.2,4.1-22-3.8-31.9c-1.8-2.2-3.5-5.2-3.7-7.9c-0.5-6.8-4.5-11.4-9.3-14.6c-4.4-2.9-6-6.5-7.2-11.2
		c-3.1-11.6-6.1-23.2-10-34.5c-2.3-6.5-1.3-11.5,2.7-16.6c1.2-1.5,1.8-3.4,3.3-6.3c-6.1,1.1-11.1,2.4-16.3,2.9
		c-7.7,0.8-14.7,5.5-23.2,3.1c-2.4-0.7-6.1,3.1-9.1,4.9c-2.6,1.5-5.1,3.1-8.7,5.3c-0.3-4.4-0.5-7-0.7-10c-1.9-0.4-4-0.8-6.1-1.2
		c0.3-1,0.3-1.8,0.7-2.2c4.7-4.2,9.4-8.4,14.3-12.3c1.9-1.5,4.5-2.6,6.9-2.8c11.2-1,11.2-0.9,8.8-11.7c3.4-4.4,7.1-1.1,10.7-0.2
		c6.6,1.7,8.8,0.4,11-7.3c-4.7-1.7-9.5-3.4-16.7-6c7-4.3,11.9-7.4,18.6-11.5c-5.8-2.4-10-4-14.1-6c-4.5-2.2-7.8,8-12.7-0.9
		c-2.4,8.1-7.6,10.3-13.5,12.1c-5.7,1.7-11.6,4.5-13.3,11c-2.8,11.1-11.5,9.7-20.3,10.7c1.3-4.1,2.4-7.4,3.4-10.7
		c-5.3-1.8-10.1-3.5-14.7-5.1c0-6.4,2.3-9.6,6.9-12.2c3.3-1.8,5.5-5.6,7.1-9.4c3-1,5.9-2,9.4-3.2c-1-2.8-1.8-4.5-2.2-6.4
		c-1.9-7.1-7-10.7-14-10.2c-2.9,0.2-5.9,0.3-8.6-0.4c-7.4-2-14.3-1.2-21.1,2.5c-2.6,1.4-6.5,2.5-9.1,1.5c-6.6-2.4-6.6-9.7-0.5-15.2
		c4.1-3.8,8.3-7.5,12.2-11.5c2.9-3.1,5.2-6.8,8.2-9.8c3-2.9,6.1-6.5,9.8-7.7c8.1-2.8,14.4-7.2,20.4-13.5
		c10.5-11.1,23.7-17,39.4-14.1c3.8,0.7,6.2,0,9-2.2c6.7-5.3,11.8-11.5,14.8-19.6c1.9-5.3,4.5-10.3,7.1-16.3
		c-15.3-10-30.5-19.9-46.3-30.2c9.9-8.8,8.5-19,4.9-28.9c-5.4-14.7-5.8-14.6,1.3-30.1c0.9,0,2.1-0.3,2.7,0.2
		c10.3,8.6,24.2,12.1,31.9,24.3c4.3,6.9,12.2,9.5,19.8,10.2c5.2,0.5,8.7,2.7,12.2,5.7c4.2,3.7,8.4,7.5,12.3,11.5
		c1.3,1.3,2.2,3.2,2.5,5c1.6,8.4,2.8,16.9,4.2,25.4c0.2,1,0.7,2,0.6,2.9c-2.7,16.6,9,23.4,20.7,29.9c3.2,1.8,6.7,2.8,9.4,3.9
		c4.1-2.3,7.7-4.3,12.4-6.8c-2.2-2.5-4.9-4.9-6.6-7.8c-1-1.6-0.5-4.1-0.6-6.2c1.9-0.1,3.7-0.3,5.6-0.3c0.6,0,1.2,0.6,1.8,0.9
		c9.7,4.8,9.7,4.8,13.7-6.4c2.9,1.5,5.8,2.8,8.4,4.5c2.8,1.8,5.6,3.7,8.1,5.8c1.6,1.4,3.8,3.5,3.7,5.1c-0.9,10.8,3,20.3,7.3,29.7
		c3.3,7,1.2,12.1-3.8,16.8c-1.2,1.1-2.6,2.1-3.8,3.3c-7,7-8.2,11.8-3.7,20.6c4.3,8.4,7.4,16.9,8.7,26.3c0.6,4.6,0.5,8.2-1.9,12.2
		c-2.1,3.7-3,8-0.9,12.4c5.3,11,1.8,21.3-2.5,31.5c-2.8,6.7-6,13.4-7.6,20.4c-2.4,9.9,3.1,15.7,13.3,16.1c10.2,0.4,18.4-2.1,25-10.9
		c2.9-3.8,8.6-6.2,13.5-7.5c7.1-1.9,11.9-5.4,14.1-12.5c0.7-2.2,2.3-4.3,2.5-6.5c1-11.2,9.1-17.4,16.6-23.8c2.4-2,6.7-2.7,10.1-2.6
		c13.1,0.4,17.2-1.8,22.4-13.3c0.9-2,1.6-4.2,2.7-7.1c17.6,9.1,34.7,17.9,52,26.7c-3.1,4.9-5.9,9.4-9.8,15.6
		c7.6-0.4,13-0.7,18.5-1.1c0.1,0.6,0.2,1.3,0.3,1.9c-2.2,1.2-4.6,2.2-6.7,3.6c-3.8,2.7-7.1,5.5-1.8,10.1c2.7,2.4,0.9,5.1-1.3,6.7
		c-1.8,1.4-4.2,2-6.3,2.8c-4.7,1.8-7.6,4.4-7.7,10.2c0,4.1-2.1,8.1-3.5,12.9c2.5,1.1,4.7,2.1,7,3.1c2.7-3.8,4.9-7,7.5-10.7
		c2.7,1.3,4.9,2.3,7.4,3.5c5-2.1,9-4.9,7.8-12.9c4.8,2.4,8.5,4.3,12.2,6.2c7.4-3.1,6.7-9.8,6.3-16.9c15.7-4.4,31.5-5.2,47.6-7.8
		c3,7.6,6.2,14.6,8.5,21.7c2.8,8.8,8.3,14.3,18.6,7.9c5.5-3.4,11-4.3,17.1-2.9c2.2,0.5,4.6,0.7,6.9,0.7c4.5,0.1,8.2,1.5,11.6,4.7
		c6.5,6,8.9,4.9,10.7-4c0.3-1.5,1.1-3,3-3.7c0.6,7.6,2.2,13.5,6.3,18.9c4,5.2,7.6,10.7,11.2,15.8c4.3-0.9,7.5-1.5,12.4-2.4
		c-9.4,20.2-18.3,39.3-27.8,59.7c7.2,1.9,13.7,4.1,20.4,5.1c6.3,0.9,9.2,4.1,10.6,10c1.5,6.1,3.6,12,5.9,19.6c2-2.9,3.2-4.5,4.3-6.3
		c4.5-7.4,14.8-5,18.2,1.2c0.3,0.6,0.6,1.2,0.7,1.9c2.7,12.8,11.7,21.4,20.6,29.8c5.2,5,8.3,10.2,7.2,17.5c-1,6.8,3.5,10.9,7.5,15.5
		c2.5,2.8,5.7,6.5,5.8,9.8c0.1,7.4,2.7,13.7,6.4,19.5c4.4,6.8,4.9,14,3.7,22.5c-5.4-2.3-8.8-5.5-11-11.3
		c-3.4-9.3-7.2-18.6-17.9-22.5c-2.6-1-4.8-4.3-6.3-7.1c-4.5-7.8-8.5-15.8-12.7-23.7c-2.3-4.3-5-6.5-10.4-4.4
		c-8.7,3.3-17.7,5.8-26.5,8.9c-5.8,2.1-6.8,4.1-5.3,9.8c4.1,15.7,7.8,31.7,12.9,47.1c4,12.3,9.9,23.9,14.9,35.9
		c5.2,12.2,10.5,24.5,15.5,36.7c3.7,9,7.4,17.5,18.7,20.1c5.7,1.3,8.9,7.1,10,12.8c2.6,13.3,5.6,26.7,6.3,40.2
		c0.7,12.5,2.6,24.4,6.8,36.1c2.1,5.9,3.7,12,6.1,19.7c-4.3-0.7-7.4-0.9-10.4-1.7c-62.3-16.8-124.6-33.4-186.7-50.7
		c-22.9-6.4-46.1-10.3-69.6-10.3c-14.8,0-29.7,2.8-44.5,4.6c-28,3.6-55.9,7.7-83.9,11c-28,3.2-56.1,4.8-84,8.7
		c-14,2-28.4,0.5-42.3,5.2C2671.6,1204.7,2664,1202.9,2656.2,1202.9z"/>
	<path id="_x31_181" class="st0" d="M2082.2,1918.1c3.8,4.6,8.4,9.8,12.4,15.3c6.6,9,14.3,17.1,17.4,28.7c1.4,5,7.1,10,12.1,12.5
		c18.2,9.4,31.2,24.6,45.5,38.5c0.9,0.9,2,1.5,3.8,2.9c2.5-3,5-5.5,7-8.5c6.9-10.6,17.2-17.4,27.4-24.4c4.8-3.3,8.5-2.6,11.5,2.9
		c2.3,4.2,5.2,5.1,9.5,5.4c31.4,2.2,62.8,4.8,94.3,7.1c6.3,0.5,12.6,0.5,19,0.8c8,0.3,9.9,1.6,10.3,8.9c0.7,13.2,8.3,23.3,14.1,34.2
		c1.4,2.6,2.8,5.2,4.2,7.8c0.9,1.7,1.4,4.2,2.9,4.9c6.2,3.5,7.8,9.1,9.1,15.5c1.6,7.9,7,13.3,14.5,18.3c4.3-6,8.6-11.7,12.6-17.6
		c5.6-8.2,11.3-16.5,16.5-25c2.5-4,5.6-6.2,10.1-7c8.2-1.4,16-2.9,23.5-7.5c6.1-3.7,13-0.8,18.6,3.3c3.5,2.6,6.5,5.6,9.7,8.6
		c5.6,5.2,8.4,11.3,8.6,19.3c0.2,11.7-1.1,22.2-8.7,31.8c-4.7,5.9-7.2,13.3-7.7,21.3c-0.5,7.3-2.8,14.4-2.8,21.6
		c0,7.9,1.3,15.8,2.6,23.6c0.7,4.2,2.7,8.2,4,12.3c3.8,12.6,3.9,24.8-2.7,36.7c-1.9,3.5-3.4,7.2-4.6,11c-1.9,5.6-1.6,11.1,2.5,15.8
		c3.1,3.7,3.3,7.4,2,12c-1.5,5.3-1.7,10.9-2.4,15.9c5.8,4.3,10.7,5.8,16.9,4.7c6.1-1,12.6-1.3,18.6-0.2c10.1,1.8,19,0.7,27.4-5.2
		c4-2.8,8.6-4.9,14.1-8c2.3,8.1,4.9,15.4,6.5,23c1.5,6.8,4.7,10.7,11.5,13.2c30,10.9,59.7,22.6,89.5,34c1.2,0.5,2.3,1.1,3,1.4
		c1.5,15.3-6.8,23.7-18.7,30.3c-8.9,4.9-18.8,8.6-25.7,16.9c-1.7,2-5.4,2.3-8.2,3.3c-11.2,4.1-21,9.6-26.1,21.4
		c-3.3,7.7-9.2,13-17.9,14.3c-1.6,0.2-3.4,0.7-4.9,0.2c-5.7-1.6-11.2-3.5-16.8-5.3c-6.8-2.2-12.5-5.7-16-12.4
		c-1.8-3.5-4.6-6.6-7.5-9.3c-4.3-3.9-9.2-1.7-9.9,4.1c-0.3,2.3,0.2,4.6,0.3,7c0.6,9.8,0,10.9-8.6,15.9c-7-6.8-14-13.4-20.7-20.2
		c-2-2-4.1-4.6-4.7-7.2c-4.2-17.5-15.1-29.8-29-40.4c-3.6-2.7-6.3-6.7-9-10.4c-4.4-6.2-6.6-7-12.9-2.9c-9.8,6.3-16,15.7-17.1,27
		c-1.1,11.5-8.9,16.8-17.2,21.4c-5,2.8-11.3,3.1-17.3,4.6c-3.2-6.4-6.7-12.4-9.4-18.8c-2-4.8-3.8-9.9-4.4-15
		c-1.7-14-5.4-19-19.5-20.8c-8.3-1.1-15.1-4.4-21.8-8.8c-3.2-2.1-7.1-3.6-10.9-4.2c-5-0.8-8.7,0.3-12.2,5.8
		c-3.7,5.8-10.7,9.6-16.4,14.1c-10.5,8.2-10.5,9.4-2.5,19.7c3.1,3.9,8.6,6.5,7.7,13.2c-1.1,8-4.7,14.8-10.8,19.5
		c-9.1,7.1-18.7,13.6-28.7,19.3c-3.7,2.1-8.9,2-13.5,1.9c-8-0.2-9.8,0.8-11.8,8.4c-1,3.8-3,7.6-3,11.4c0,4.4,1.8,8.8,3,14.4
		c-1.6,2-4.1,5-7.5,9.3c-3-6.1-5.9-10.8-7.7-15.9c-2.1-5.8-5.7-9.5-11-12.2c-5.6-2.9-11.2-5.8-16.5-9.3c-8.3-5.4-17.4-8.5-27.1-9
		c-6-0.4-11-2.1-15.6-5.6c-1.1-0.8-2.2-1.5-3.3-2.2c-9.6-6.9-19.1-7.5-29.6-1.2c-9.9,6-19.9,1-21.2-10.5c-0.7-6.8-3.2-12.1-7.8-16.6
		c-6.9-6.8-12.5-5.5-15.3,3.7c-1.5,4.9-2.5,9.9-4.1,16.3c-2.3-2.1-3.7-2.7-4-3.6c-3.9-14.7-8.7-29.4-5.4-45c0.8-3.8,0-8,0.4-12
		c0.6-6.6,0.6-13.4,2.4-19.7c2.4-8.6,1.8-16.6-2.7-24c-5.1-8.4-2.1-15.9,1.7-23.4c1.8-3.5,4.7-6.5,6.8-9.9c7-11.5,5.6-26.1-3.7-35.9
		c-6.5-6.8-12-13.8-15.4-22.9c-3.1-8.3-8.8-15.3-17.9-19.1c-6.1-2.6-10.1-7.8-11.6-15.2c-1.9-9.6-0.7-18.4,2.4-27.4
		c1.9-5.6,3.2-11.5,5.1-17.2c1.7-5.1,0.6-9.2-3.6-12.4c-5.6-4.2-6-9.6-4.7-16c2.1-11.1,3.1-22.4,5.5-33.4c2.5-11.7,5.8-23.2,9-34.7
		c1.2-4.4,5.1-4.6,8.9-4.7c16.2-0.5,26-12.2,23.8-28.3c-0.8-6.1-4.3-10.2-9-13.7c-7.9-6-8.8-9.3-4.1-17.6c4.8-8.4,10-16.4,11.6-26.3
		c0.8-4.9,5.3-7.1,10.3-8C2069,1922,2074.4,1920.2,2082.2,1918.1z"/>
	<path id="_x31_179" class="st0" d="M2482.1,2265.2c0.8-5.9,1-10.6,2.1-15c1.2-4.8,1.6-9.1-1.8-13.2c-4.2-5.2-4.5-10.8-2-16.8
		c1-2.5,1.5-5.2,2.9-7.4c8.2-13.7,7.9-28.2,2.7-42.3c-5.1-13.9-6.3-27.4-3.9-42.1c1.6-9.8,1.4-19.9,6.7-28.8
		c0.7-1.1,1.1-2.5,1.9-3.5c9.1-10.1,8.9-22.3,8.7-34.8c-0.2-8.3-3.2-14.9-9.6-19.9c-6.5-5-11.3-12.8-20.5-13.3
		c-3.8-0.2-7.8,0.3-11.5,1.3c-7.3,2.1-14.2,5.6-21.6,6.9c-5.9,1.1-9.4,3.5-12.5,8.4c-7.8,12.4-16.2,24.4-24.3,36.6
		c-0.7,1.1-1.3,2.4-1.9,3.7c-8.1-4.7-12.1-10.6-12.7-18.2c-0.4-5.1-1.8-8.9-6.5-11.5c-1.6-0.9-3.1-2.6-4-4.3
		c-5.9-10.7-12-21.2-17.1-32.3c-2.2-4.9-2.1-10.9-3.1-17.2c7.5-0.8,7.1-6.6,8-11.3c3.8-20.2,7.3-40.5,10.9-60.8
		c1.2-6.9,3-13.7,3.6-20.6c0.6-6.6,3.1-11.4,10.3-14.2c4.2,5.8,8.7,11.9,13.4,18.2c5.6-1.9,6.2-6.4,6.8-10.5
		c1.5-9.6,7-16.8,12.8-24.1c3.8-4.7,8.3-9.5,7.5-16.7c-0.3-2.7,1.8-5.6,3.2-9.2c4.2,3,5.9,5.4,4.9,9.2c-3.5,12.7-3.5,12.7,2.3,24.2
		c0.6,0.2,1.4,0.6,1.8,0.4c9.7-4.7,11.7-3.9,14.8,6.2c1.9,6.4,13.4,16.3,19.1,14.4c5.1-1.7,7,0.8,10.2,2.7c2.2,1.3,5.1,1.2,7.6,2.1
		c2.6,0.9,5.1,2,9.1,3.7c-9.4,3.6-15.1,10.6-24,10.5c-1,0-2.7,2.7-3,4.4c-0.5,2.5-0.1,5.2-0.1,9.2c3.5-0.5,7.1-0.5,10.2-1.5
		c7.4-2.5,14.5-6.5,22.1-8.1c5.6-1.2,11.7-1.5,17.5-2c3.8-0.3,7.8,3,11.5,4.5c3.9-0.3,7.7-0.7,11.6-0.7c11.7-0.1,23.3,0.2,35,0
		c16.2-0.4,30.4,6,44.7,12.2c2.1,0.9,3.3,3.9,4.7,6c1.6,2.4,2.9,4.9,4.4,7.5c4.1-1.3,7.2-2.3,9.3-3.1c6.9,3.4,13,6.5,19.2,9.3
		c3.8,1.8,6.8,3.7,7.3,8.5c0.5,4.6,3.7,7.4,7.4,10.1c5,3.7,10,7.8,14.1,12.4c2.7,3.1,5.5,5.7,9.1,3.9c3-1.5,7.1-5.2,6.9-7.5
		c-1.1-10.6,7.4-13.9,12.2-19.9c4.7,2,8.5,3.9,12.5,5.4c4.5,1.7,8.2,3.4,8.3,9.6c0.1,2.4,4.5,4.7,7.5,7.6c-0.7,1.7-1.6,4.1-2.7,7.1
		c7.2,0.4,13.5,3,20.4-1.3c15.5-9.7,31.4-18.9,47.1-28.2c20-11.9,40-23.8,61-36.3c5.3,6.4,10.5,12.8,15.7,19.2c0.6,0.7,1.2,2,1,2.7
		c-2.9,9.8,3.9,12.9,11.2,15.6c0.3,1.9,0.9,3.6,0.7,5.1c-0.6,5.5,0.3,10.1,4.7,14.4c4.1,4.1,4.7,10.9,10.3,14.4
		c0.9,0.6-0.2,5.4-1.3,7.8c-0.7,1.6-3.2,2.3-4.7,3.5c-2.1,1.6-4.9,3-5.9,5.2c-4.8,9.6-9.1,19.5-13.5,29.3c-2.4,5.4-3.9,11.3-7,16.3
		c-2.5,4.1-1.9,7.4-0.3,11.2c1.6,3.9,3,7.8,5.2,13.4c6.8,3.4,13.9-1.5,20.6-4.9c10.6-5.3,20.8-11.7,30.9-18c2.4-1.5,4.8-4,5.7-6.5
		c3.5-9.6,9.9-16,19.3-19.7c1.2-0.5,2-1.7,3.2-2.4c6.2-4,7.8-4.4,13.1,0.9c4.3,4.4,8.6,4.9,13.3,2.3c3.6-2,6.6-2,10.3-0.6
		c2.4,0.9,5.3,0.6,7.9,0.6c2.3,0,4.5-0.5,6.9-0.8c3.1,4.8,6.4,9.3,9.2,14.2c3.8,6.7,6.4,13.9,3.8,21.8c-0.6,1.8-1.2,4.2-2.6,5.2
		c-8.1,5.9-10.7,15.2-14.7,23.4c-2.7,5.4-4,12.1-4.1,18.2c-0.3,16.1-1.4,31.8-7.8,46.9c-2.2,5.1-2.4,10.9-3.9,18.7
		c-2.3-8.4-8.3-9.5-13.7-11.9c-15-6.7-30.4-5.4-46-4c-13.2,1.2-26.5,2.5-39.7,3c-6.9,0.2-12.9,2.6-19.1,5c-12.9,5-24,12.7-34.9,20.9
		c-7.2,5.4-14.7,10.5-22.6,14.6c-6.4,3.3-10.7,8-13.5,14c-2.7,5.7-5.6,11.6-6.7,17.7c-1.3,7.1-4.7,12.3-10,16.6
		c-3.9,3.1-8.2,5.7-12.3,8.5c0.7,0.8,1.5,1.6,2.2,2.5c-2.3,0-4.6,0.2-6.9,0c-6.6-0.8-12.3,0.5-17.5,5.2c-4.6,4.1-9.6,7.9-17,5.2
		c-2.1-0.8-6,1-8,2.8c-15,13.8-34.2,18.8-52.6,25.4c-2.5,0.9-5.8,1.3-7.2,3.2c-4.5,5.8-9.4,4.4-15,2.2c-31-12-62.1-23.8-93.3-35.8
		c-3.2-11.2-6.4-22.3-10-34.6c-7.6,4.2-14,8.2-20.8,11.3c-4.1,1.9-8.7,3.3-13.1,3.5c-10.6,0.5-21.2,0.3-31.8,0
		C2489.3,2267.1,2486.4,2266.1,2482.1,2265.2z"/>
	<path id="_x31_174" class="st0" d="M2799.1,1324c-29.6,18-59.1,35.8-90.8,55c19.3,7,36.3,13.1,54.4,19.7c0,3.5,0,7.1,0,10.6
		c0,10.3,0.1,20.7,0,31c0,4.4,0.4,8.2,3.7,11.9c5.3,5.9,5.3,13.5,3.7,20.8c-2.9,13.5-0.3,25,7.5,36.8c8.4,12.7,14,27.1,7.9,43.1
		c-0.9,2.3-0.5,5.2-0.3,7.8c0.6,6.9,1.4,13.7,2.2,21.2c-3.7,0.3-6.2,0.7-8.8,0.7c-60.3,0.3-120.6,0.5-180.9,0.7
		c-14.3,0-28.7-0.1-43,0c-10.9,0.1-14.2,6-8.8,15.2c0.8,1.4,1.6,2.9,1.8,4.4c0.4,4.6,0.4,9.2,0.7,13.8c0.3,4-2.3,5.9-5.2,5.8
		c-1.9,0-5.5-2.9-5.4-4.2c0.9-10.6-6.9-16.9-11.3-24.8c-5.2-9.4-12.6-16.2-23.8-17.9c-6-0.9-10.4-4.1-11.6-10.6
		c-0.1-0.7-0.2-1.5-0.6-1.9c-10.9-9.8-14.8-24.9-26.2-34.6c-8-6.8-9.6-18.8-5.1-28.2c3.2-6.6,2.7-12.5-1.5-18.7
		c-5.9-8.6-2.8-17.4-0.1-26.6c5.1,1.3,9.2,3.3,13.3,3.2c4.2,0,8.4-1.8,12.5-3.1c5.1-1.6,6.8-4.2,4.2-8.9
		c-5.6-9.8-11.5-19.5-18.4-28.3c-4.6-5.8-7.8-10.1-2.9-17.4c3-4.5,4.3-10.2,6.7-16.2c-4.9-5.2-8.1-11.5-2.1-19.2
		c-4.2-5.6-8.3-11-13.2-17.5c6.8-1.2,12.5-2.2,18.5-3.3c2.4-5.2,0.9-10.3-1-15.2c-2.5-6.3-2-12.4,0.7-18.4
		c2.4-5.5,4.5-11.2,7.7-16.2c4.7-7.4,7.8-14.6,3-24.3c9.5-3.7,18.3-7.4,27.2-10.7c31.6-11.3,63.4-22.2,94.8-34
		c8.6-3.2,16.2-9,24.1-14c4.3-2.8,8.5-4.4,13.9-4.5c13.9-0.2,27.9-0.9,41.8-2c7.5-0.6,15-2.3,22.5-3.6c5-0.9,8.8,0,11.9,4.7
		c24.7,37.9,49.6,75.7,74.5,113.6C2797.8,1321,2798.2,1322.2,2799.1,1324z"/>
	<path id="_x31_178" class="st0" d="M2995.4,1914.9c5.4,1.9,10.2,3.7,13.1,4.7c6.8,5.9,12.2,10.5,18.8,16.2c1,9.5-1.7,20.5-4,31.5
		c-1.6,7.5-2.8,15.1-4.8,22.4c-2.4,8.7,0,16.4,4.1,23.8c0.9,1.8,2.1,3.4,3,5.2c2.3,4.1,5,8.4,1.6,13c-3.8,5.2-7.3,11.5-15.6,9.7
		c-6.4-1.4-12.7-2.4-19,1.3c-1.3,0.8-4.9-1.1-6.8-2.5c-9-6.6-8.9-6.6-18.1-0.4c-5.1,3.5-11.1,5.7-15.2,10.9
		c-2.6,3.3-5.8,5.8-6.7,10.5c-0.5,2.5-3.1,5.2-5.4,6.7c-9.5,5.9-19.2,11.7-29.1,16.9c-5.7,3-11.6,6.5-18.2,5.6
		c-1.9-4.7-4-8.9-5-13.2c-0.6-2.6,0.2-5.7,1-8.3c1.9-5.6,4.3-11,6.3-16.6c1.6-4.7,2.5-9.5,6.6-13.1c2-1.9,3.5-5.1,3.9-7.9
		c0.8-6,4.4-9.4,9.2-12.2c2-1.2,4-2.6,5.4-4.3c3.4-4.1,2.6-8.1-1-12.3c-4.6-5.5-8.8-11.4-12.8-17.3c-0.8-1.1,0.1-3.2-0.1-4.8
		c-0.4-3.6-0.9-7.1-1.3-10.3c-3.2-1.3-6-1.8-8-3.3c-1.6-1.2-3.6-4.2-3.1-5.4c2.6-6.1-1.7-9.3-4.7-13.1c-4.5-5.7-9.1-11.2-14-17.1
		c-18.9,11.2-37.3,22-55.5,32.9c-17.7,10.6-35.5,21.1-53.1,31.9c-4.6,2.8-9,4-14.9,2.3c0.7-4.2,1.1-8.7-4.7-10.6
		c-1.3-0.4-2.5-2.7-2.8-4.3c-1.1-5.2-4.9-7.7-9.3-9.6c-4.5-2-9.1-3.7-14.8-6c-3.9,3.8-8.6,7.9-12.7,12.6c-1.4,1.7-1.9,4.8-1.7,7.2
		c0.4,4.1-1.4,6.5-4.8,7.7c-3.3,1.2-5-1.2-7.2-3.6c-4-4.4-9.1-7.7-13.4-11.8c-2.6-2.4-6.1-5.1-6.6-8.1c-1.1-6.8-5.6-9.2-10.9-11.7
		c-4.4-2.1-8.6-4.9-13-6.9c-2.2-1-4.9-1.6-7.3-1.6c-2.2,0-4.4,1.1-7.1,1.8c-0.9-2-2-3.7-2.4-5.5c-0.8-4.1-3.4-6-7.1-7.4
		c-8.4-3.1-16.6-6.7-23.4-9.4c-3.4-6.1-6.2-11.1-9.7-17.4c4.4-16.4,3.3-34.2-5.9-51.5c2.8-0.3,4.9-0.1,6.8-0.7
		c6.3-2,9.5-7.6,6.8-13.9c-3.9-9.2-3.5-17.6-0.3-27c3.6-10.5,3.2-21.5-3.2-31.4c-0.7-1.1-1.9-2.7-1.6-3.5c3-7.3,0-14.1-1-21.6
		c1.4,1.1,2.7,2.1,4.1,3.2c4.8,3.8,9,2.5,9.7-3.4c0.4-3.2-0.3-6.5-0.3-9.8c0-2.5,0.4-5,2.4-7.8c1.3,3.1,3.2,6,3.9,9.2
		c2.6,11.1,10.1,15.8,20.7,11.4c6.9-2.9,13.2-7.6,19.2-12.2c1.9-1.4,2.4-5.2,2.7-8c0.9-7.9,0.9-15.9,2.1-23.8
		c1.2-8.1,2.7-9.4,10.7-9.9c12.3-0.8,20.3-7.1,24.7-18.4c0.5-1.2,1.1-2.3,1.6-3.3c4.3-0.9,7.2,0.7,8.1,4.3
		c1.4,5.4,2.4,10.9,2.9,16.4c0.4,4.7-0.1,9.4,4.9,12.2c5.7-2.4,7.6-6.9,7.2-12.8c-0.8-10.6,2.6-19,11.8-25.3c3.8-2.6,6-7.7,8.2-12.1
		c2.9-5.7,5.3-11.2,12.8-12.5c6.3-1.1,10.2-6.2,13-11.6c5.2-9.7,10.9-18.9,18.4-27.2c3.6-4,5.1-9.9,7.2-15.1
		c2.3-5.7,4.2-11.7,6.5-18.4c15.1,4.5,29,8.7,42.7,12.8c0.1,1.1,0.5,2,0.3,2.4c-14.3,21.1-18.7,46-26.5,69.5
		c-2.6,7.8-4.1,16.1-6.2,24.1c-0.9,3.2-1.8,6.5-3.5,9.3c-13.3,21.8-9.4,28.8,3.2,47c5.1,7.3,12,13.2,21.6,15
		c6.3,1.2,10,6.1,12.6,11.8c1.8,3.9,3.1,8.1,4.9,12c1.1,2.4,2.1,5.4,4.1,6.6c6.6,3.9,6.9,10,7,16.4c0.1,5.3,0.4,10.6,0.8,15.9
		c1.4,17.1,18.9,34.4,41.5,30.7c2.1-0.3,4.4-1.5,6-2.9c9.7-8,15-8.9,23.7,4.7c9.9,15.4,19.9,30.7,30,45.9c2.2,3.3,4.8,6.4,7.6,9.2
		c10.1,10.3,18.6,9.3,26.5-2.8C2993.8,1916.2,2994.4,1915.8,2995.4,1914.9z"/>
	<path id="_x31_173" class="st0" d="M2765.3,1396.5c-16.9-6.1-32.7-11.8-50.3-18.1c30.5-18.5,59.4-36,88.3-53.6
		c-27-41.4-53.3-81.7-80.2-123c3.2-1.1,5.2-2.1,7.3-2.4c15.8-2.1,31.6-4.3,47.4-6c10.2-1.1,20.5-1.1,30.7-2.2
		c14.2-1.6,28.3-3.9,42.5-5.6c5.3-0.6,10.7,0,15.9-0.7c10.1-1.4,20.1-3.6,30.2-5.1c10.8-1.7,21.7-3.3,32.6-4.2
		c4.1-0.4,8.3,1.1,13,1.8c-4,5.5-9.4,1.8-14.3,4.2c-1,2.1-2.3,5-3.9,8.6c-4.4-1.5-8.7-2.9-12.8-4.2c-3.9,5.5-7.6,10.5-11,15.7
		c-1.8,2.7-3,5.8-4.4,8.8c-1.9,4-0.7,6.9,2.9,9.3c5.5,3.7,10.9,7.6,16.8,11.8c-0.8,3-1.5,6.1-2.5,9.8c1.2,0.8,3.2,1.3,3.8,2.5
		c1,2.3,2.3,5.4,1.4,7.2c-0.8,1.8-4.3,3.6-6.3,3.3c-5.7-1-10.9,0.2-17.3,1.7c1.6,2.6,2.4,4.6,3.8,6.1c5.3,5.6,8.1,12.1,7.7,19.8
		c-0.3,4.7,1,8.2,5,11.1c5.1,3.7,9.5,8.4,14.4,12.3c6.4,5,10.9,11.4,15.1,18.2c3,4.9,2.1,8.9-1.3,12.7c-4.4,4.9-9.4,9.3-13.8,14.3
		c-2.6,2.9-5.2,6.2-6.8,9.7c-3.6,7.9-6.7,16-9.7,24.1c-1.9,5.1-1.1,9.2,3.9,13c9,6.8,10.5,12.7,5.7,23.2c-5.6,12.2-3.6,23.1,2.9,34
		c1.3,2.2,2.1,4.8,2.5,7.4c1,7.2,1.5,14.4,2.4,21.6c0.7,5.9,4.1,7,13.9,4.4c-0.3-11.6,7.1-19.6,13.6-28.5c3.9-5.2,5.5-12,8.5-17.9
		c1.3-2.5,3.2-4.8,5.2-6.8c3.9-3.9,8.7-7.1,12.1-11.4c3.2-4.2,6.6-7.7,11.8-8.5c14.8-2.3,22.8-12.8,29.3-24.5
		c5.6-10.1,12.5-18,24.6-19.4c1-0.1,2-0.5,2.8-1.1c12.2-9.7,21.8-0.6,31.8,4.6c1.5,0.8,2.6,3.9,2.6,5.9c0,3.6-1,7.2-1.7,10.8
		c-0.8,4.5-0.1,8.7,0.5,13.3c1.3,10.2,5.4,18.6,10,27.5c2.5,4.9,1.4,12.5,0.2,18.5c-2.5,12.3-6.3,24.4-9.3,36.7
		c-2,7.9-8,11.6-14.9,13.1c-7.4,1.7-15.1,2.2-22.6,2.4c-9.7,0.2-19.1,0.6-28.6,3.4c-8.2,2.4-16.9,3.8-25.4,4.5
		c-9.9,0.8-17.7,5.1-24.8,11.4c-10.9,9.9-22.9,15.5-38.1,12.2c-3.5-0.7-7.7,1-11.4,2.1c-7.6,2.2-9.4,1.5-11.4-6.2
		c-1.7-6.6-3.7-12.6-9.6-16.9c-1.7-1.2-2.3-3.9-3.4-5.9c-2.1-3.7-3.8-7.8-6.4-11.1c-2.5-3.2-4.8-8.3-10.1-6.3
		c-5.5,2.1-11.6,4.3-12.8,11.3c-1.1,6.1-4.1,10.8-8.2,15.5c-4.3,4.9-7.6,10.9-10.4,16.9c-1.4,3-1.8,7.4-0.7,10.3
		c3,7.7,7.4,14.9,10.6,22.5c2.3,5.4,4.4,11.1,5.4,16.9c1.4,8.5-9.6,17.9-18.7,15.6c-14.2-3.6-28.2-7.8-42-12.5
		c-6.4-2.2-11.3-6.6-10.2-15c0.5-3.5-0.8-7.2-1.1-10.8c-0.2-2.2-0.5-4.8,0.3-6.7c6.7-17.1,0.1-32.2-8.5-46
		c-6.3-10.2-9.6-19.9-7.3-31.8c1.8-9.5,2.2-19.1-5-27.4c-1.8-2.1-2-6.2-2.1-9.3C2765.2,1425.3,2765.3,1411.4,2765.3,1396.5z"/>
	<path id="_x31_172" class="st0" d="M3196.1,1239.4c-0.5,10.3-0.6,19.5-1.4,28.7c-0.7,8.1-6.5,13.7-11.5,19.3
		c-3.9,4.4-9,7.8-13.2,12c-4.6,4.6-10,6.3-16.3,5.5c-16.6-2-31.7,2.6-42.3,15.3c-10,11.8-17.9,25.5-26.2,38.6
		c-2,3.2-2.1,7.6-3.2,12.2c-4.6-2.2-8.6-4.6-13-6c-4-1.3-8.6-2.8-12.4-1.8c-7.9,2.1-15.6,5.1-22.9,8.9c-5.9,3-10.2,8.1-13.5,14.2
		c-3.2,6.1-7.9,11.4-12.2,16.9c-3.6,4.6-8.4,7.3-14.4,8.1c-6.6,0.8-11.3,4.4-15.3,10c-3.1,4.4-8.2,7.4-12.2,11.3
		c-2.3,2.2-4.9,4.6-5.8,7.5c-3.6,10.2-8.8,19.2-15.4,27.7c-3.9,4.9-5.4,11.7-8.4,18.5c-3,0.8-5.3,1.4-6.5-5
		c-2.1-11.2-1.7-22.9-8-33.4c-4.7-7.8-5-17.2-0.3-25.9c0.8-1.4,1.2-3.1,1.7-4.7c3.2-11,2.1-16.1-7.4-22.2c-5-3.2-5.1-6.1-3.3-10.6
		c3-7.4,6-14.8,8.8-22.2c3.3-8.8,12-13.1,17.1-20.5c1.5-2.2,3.6-3.9,5.2-6c3.2-4.1,3-7.9,0.6-12.7c-5.8-11.3-15.4-19-24.8-26.7
		c-6.5-5.3-10.6-10.6-10.8-19.8c-0.1-6-4.7-12-7.5-18.7c3,0,6.7,0,10.4,0c9.6,0,12.9-5.3,9.6-14.4c-1.6-4.5-2.1-9.4-3.4-15.2
		c-4-2.8-9.3-6.1-14.4-9.9c-5.2-3.8-5.6-5.6-2.5-10.8c2-3.4,4.6-6.5,7-9.7c1.8-2.3,3.8-4.5,5.9-6.9c2.8,1.3,5.1,2.4,7.5,3.5
		c2.4,1,4.8,2,7.8,3.2c0.8-4.5,1.5-8.5,2.3-12.8c5.9-0.2,11.6,0.3,15.4-5.6c1-1.6,4.8-2,7.3-1.8c16.6,1.4,32.8,5.1,48.7,9.8
		c7.3,2.1,14.7,3.9,22,5.9c52.6,14.1,105.3,28.2,157.9,42.4C3187.2,1236.7,3191.6,1238.1,3196.1,1239.4z"/>
	<path id="_x31_180" class="st0" d="M2357.6,1997.5c-12.3-0.8-23.9-1.5-35.4-2.3c-30.8-2.2-61.6-4.5-92.3-6.5
		c-3.9-0.2-5.9-2-8.1-4.7c-5.3-6.9-9.6-7.3-16.8-2.5c-11.1,7.4-21.5,15.7-29,27c-0.7,1.1-1.2,2.4-2.2,4.6c-8.1-8-14.3-14.8-21.2-21
		c-5.6-5.1-11.9-9.4-18-14c-4.3-3.2-8.7-6.1-13-9.2c-4.5-3.2-7.4-7.3-8.8-12.8c-1.3-5.5-3.4-10.7-8.1-14.4c-2-1.6-3.1-4.3-4.7-6.4
		c-6.3-8-10.7-17.7-21.4-21.8c1.1-2.5,1.6-4,2.4-5.4c5-9,3.8-17.7-0.7-26.5c-1.4-2.6-2.4-5.5-3.4-8.3c-1.7-4.7-1.6-8.9,3-12.3
		c4.3-3.1,8.8-3.8,13-0.9c8.3,5.8,17.4,5.8,26.7,5c7.9-0.6,11.7-5.5,11-13.5c-0.3-3.3-1.3-6.6-1.2-9.8c0.2-3.5,0.7-7.3,2.2-10.4
		c2.8-5.9,6.4-11.5,9.7-17.2c0.5-0.8,1.3-1.5,2.1-2.1c9-6.3,28.2-4.3,35.1,3.9c1.9,2.2,3.4,5,4.1,7.8c1.3,5.2,4.7,6,9.1,5.2
		c4.2-0.8,8.5-1.8,12.6-3c4.7-1.4,8.4-0.2,11.4,3.7c0.6,0.8,1.3,1.5,1.9,2.3c10.3,11.8,10.3,11.9,25.2,9.2c2.1-0.4,4.7-1.3,6-2.8
		c4.6-5,10.4-4.2,15.8-3.4c4.5,0.6,9,2.3,13,4.5c2.1,1.2,3,4.6,5,7.8c1.3-0.2,4.4,0.1,5.4-1.2c6.8-8.8,16.1-6.3,24.4-4.9
		c11.7,1.9,23.3,5.2,34.8,8.2c3.1,0.8,6,2.7,8.7,4c-1.2,8.8,1.7,15.5,7.2,21.2c9.7,9.9,13.5,21.1,10.5,35.4
		c-5.7,27.3-10,54.9-14.9,82.3C2358.6,1993.6,2358.2,1994.9,2357.6,1997.5z"/>
	<path id="_x31_177" class="st0" d="M2474.4,1544.4c2.9,11.4,12.7,17.5,16.6,27.6c1.2,3.1,6.6,5.8,10.4,6.4
		c10.7,1.6,17.3,7.6,22.3,16.5c1.6,2.9,3.6,5.6,5.5,8.4c5.8,8.6,7.3,17.8,7.1,28.4c-0.2,9.1-1.1,17.5-4.5,25.9
		c-1.1,2.6-0.3,7,1.3,9.5c13.4,19.7,17.9,42.7,25,64.8c1.3,3.9,3.2,7.7,5.2,12.5c-0.8,1.3-2.8,3.6-3.4,6.3c-0.5,2.3-0.2,6,1.3,7.2
		c3.5,3,6.9,5.6,9,10.2c1.8,4.1,5.5,7.3,9.5,12.2c-4.4,3.2-8.9,6.4-13.7,9.8c3.1,3.8,4.7,5.8,5.9,7.2c-2.1,4.4-4.2,8.6-6.5,13.5
		c-1.9-0.8-4.8-1.5-7.1-3.1c-3.2-2.2-6.4-2.7-10.3-2.5c-11.1,0.7-14.9,6-11.2,16.8c2.9,8.3,6.3,16.4,9.6,24.8
		c-7.2,8-14,15.7-20.9,23.3c-7.2,7.9-6.5,16.6,2.6,22.6c7.6,5,9,12.3,8.1,19.8c-0.4,4.1-1.3,7.4,0.9,11.2c0.6,1.1-0.3,3.1-0.6,5.6
		c-3.5-1.6-6.3-3.3-9.4-4.2c-2.7-0.8-6.6-1.8-8.4-0.5c-4.5,3.3-8,1.5-11.7-1.2c-1.2,1.2-2,2.4-3.1,2.8c-8.6,3.3-17.2,6.5-26.5,10
		c-0.1-2.6-0.3-5.1-0.4-7.8c10.3-2,19.3-5.4,27.3-14.9c-5-2.1-8.3-4.4-11.9-4.8c-5.4-0.7-9.3-3-11.8-7.5c-12,3.5-20.2-0.7-23.7-11.9
		c-2.9-9-7.4-11-17-7.2c-3.5-6.1-6.5-12.1-1.7-19.1c0.8-1.2,1.1-3.2,0.7-4.7c-4.4-17.6-3.2-35.6-4.2-53.5
		c-1.6-28.2-3.5-56.3-5.2-84.4c-0.4-6-1.1-12-0.6-17.9c1-11.7-2.4-22.5-7-32.8c-4.6-10.4-2.7-20.6-2-31.1c0.3-4.2,0.2-8.5-0.7-12.5
		c-1.2-4.8-2.7-9.8-5.4-13.8c-8-11.7-6.8-25.4-9-38.3c-0.4-2.3,1.5-5.9,3.5-7.4c7.4-5.5,12.3-12.1,11.2-22.4
		C2437.7,1541.2,2455.5,1546.3,2474.4,1544.4z"/>
	<path id="_x31_167" class="st0" d="M2557.1,1717.4c-2-6.1-3.8-13.2-6.5-19.8c-4-9.8-8.3-19.5-13.2-28.9c-2.5-4.8-3-9-1.5-14.2
		c1.7-6,3.2-12.2,3.2-18.4c0-5.4,1.3-9.1,6.3-11c5.4-2,6.7-5.8,5.6-11.1c-0.5-2.6-0.5-5.3-0.2-7.9c0.4-3.8-0.2-6.7-2.8-10
		c-3.8-4.9-1.5-8.8,4.6-9.4c2.3-0.2,4.7-0.1,7-0.1c31.6,0,63.3,0.2,94.9-0.1c43.9-0.4,87.8-1.2,131.7-1.7c2.9,0,5.9,1.4,8.3,2
		c-2.7,8.7-4.7,16.3-7.4,23.7c-1.5,4-4,7.6-6.4,11.2c-5.6,8.2-11.8,16-16.9,24.6c-3.9,6.7-8.4,12.1-16.2,13.5
		c-5,0.9-7.3,4.1-8.7,8.4c-2.6,7.7-6.7,13.7-13.9,18.6c-5.8,3.9-8.5,11.3-8.4,19.1c0.1,4.6,1.9,10.1-4.7,14.1
		c-0.5-3.1-0.7-5.5-1.2-7.9c-1.2-6.1-1.6-12.5-3.9-18.2c-1.2-3-5.5-5.8-8.9-6.7c-3.9-1-5.1,3.2-6.4,6.3c-4.1,10.2-11,16-22.8,15.7
		c-7.5-0.2-10.4,2.3-11.7,9.6c-1.4,8.1-2.1,16.5-2.3,24.7c-0.1,4.8-1.4,8.5-5.2,11c-4.7,3.1-9.3,6.5-14.4,8.7
		c-8.9,3.9-15.4-0.1-18-9.3c-1.7-5.8-4.8-11.1-7.9-17.9c-1.9,2.9-2.7,4.1-4.2,6.4c0-6.6-0.8-12.3,0.2-17.5c1-4.8-0.1-7.8-4-9.9
		c-7.6-4.1-15.3-8-23.1-11.9c-3.1-1.5-5.4-0.5-7.8,2.1C2566.5,1709.8,2561.7,1713.4,2557.1,1717.4z"/>
	<path id="_x31_175" class="st0" d="M2367,1408.9c-5.8-12.2-9.9-13.1-21.9-6c-1.9-0.9-3.9-2.2-6-2.9c-2.2-0.7-4.5-0.9-7.2-1.5
		c0-2.9,0-5.8,0-9.8c14.5,1,28.6,2,43,3c3.1-6.7,4.3-13,2.1-20.2c-1.9-6.3-1.2-13.6-4-19.3c-3.7-7.4-2.7-14.5-1.5-22.5
		c-2.8-0.6-5.2-1.1-8.2-1.7c1.4-5,1.6-9.6-6.6-12.1c43.7-15.4,85.2-30.1,126.4-44.7c4.9,6.9,3.8,12.9-0.3,19
		c-2.4,3.6-4.3,7.5-6.3,11.3c-5.5,10.4-8.1,21.1-3.2,32.5c0.6,1.5,0.9,3.2,1.1,4.8c0.1,0.6-0.2,1.3-0.5,2.7
		c-6.6,1.1-13.6,2.2-22,3.6c5.7,7.4,10.5,13.6,15.5,20.1c-4.1,6.1-4,11.8,0.7,17.4c1,1.1,1,3.8,0.4,5.4c-1.7,4.6-3.4,9.3-6,13.4
		c-4,6.4-1.6,10.9,2.5,16c6.2,7.7,11.9,16,17.5,24.2c1.6,2.4,2.2,5.4,3.6,9.1c-7.9,1.8-14.2,6-22.5,2.8c-7-2.8-10.3,0.1-11.1,7.9
		c-0.2,2.3-0.2,4.7-0.7,6.9c-1.4,5.2-0.5,9.8,2.9,14c4.6,5.5,4.7,11.1,1.4,17.5c-4.7,8.9-2.2,21.9,4.7,29.4
		c2.9,3.2,5.7,6.4,9.6,10.8c-18.4,3-35.8-1.4-52.9,1c-3.3,15.8,1.4,11.9-16.2,27.6c-8.1-8.1-16.3-16.2-24.4-24.4
		c-6.7-6.7-7.7-15.1-6.4-24c1-6.4,1.9-12.9,3-20.6c-15.2-1.1-28.9-2.2-43.9-3.3c-1.1-21.5-2.2-42.9-3.3-64
		C2339.9,1423.5,2354.7,1418,2367,1408.9z"/>
	<path id="_x31_176" class="st0" d="M2270.4,1834.1c-0.2-0.9-0.4-1.4-0.3-1.5c8.4-7,9.8-17.7,13.6-27c1.5-3.5,1.4-7.8,1.6-11.7
		c0.3-5.7,1.8-10.3,7.8-12.7c2.3-0.9,4.9-3,5.7-5.1c4.5-12.4,14.2-18.4,25.7-22.5c5.8-2.1,11.7-3.9,19-6.3c-0.1,0.1,1.2-1.3,1.2-2.7
		c0.3-13.2,8.9-23,13.9-34.2c1.5-3.5,4-5.2,7.7-5.2c4.7-0.1,7.7-2.4,10.7-6.1c4.6-5.6,10.1-10.3,15.3-15.4
		c13.3-1.3,17.3-11.6,21.3-21.9c0.1-0.2,0.5-0.3,1.6-0.8c4,9.7,8.8,19.2,10,29.7c1.4,12.9,1.5,25.9,2.2,38.8
		c1.2,22.6,2.4,45.1,3.6,67.7c0.9,17.2,1.7,34.5,2.6,51.8c-6.8,2-9.3,6.5-8.8,12.8c0.4,4.4-1.4,7.6-4,10.8
		c-4.8,5.7-9.3,11.6-13.7,17.6c-1.1,1.5-1.2,3.7-1.6,5.5c-0.9,4.1-1.7,8.2-2.8,13.4c-5.9-6.8-11.2-12.3-15.9-18.4
		c-1.6-2.1-1.6-5.6-2.3-8.4c-4.3,0.7-4.3,0.7-5.3,14.9c-1.6-3.5-2.4-5.4-3.4-7.2c-2.8-5.2-5.1-10.9-8.9-15.3
		c-5.5-6.4-9.4-12.8-7.5-22.3c-3.9-1.9-7.5-4.4-11.5-5.5c-12.5-3.4-25-6.7-37.7-9.1c-6-1.1-12.5-0.6-18.6,0.3
		c-2,0.3-3.4,4.2-6.8,8.8C2283.7,1835,2275.6,1836.4,2270.4,1834.1z"/>
	<path id="_x31_168" class="st0" d="M2599.2,1851.3c-3.4,9-9.6,6.4-16.2,5.8c2.7,8.1,4.7,15.3,7.5,22.2c2.7,6.8,3.6,13.2,1.2,20.4
		c-1.5,4.5-1.9,9.5-2.1,14.3c-0.1,1.9,1.7,4.1,3.2,5.7c2.3,2.4,5.4,4.1,3.4,9c-17.9,0-36,0-54.4,0c-1.7-6.8-3.1-12.8-2.9-19.5
		c0.2-7-1.3-14.1-9-18.5c-8.4-4.9-8.7-11.7-2.2-18.9c7.1-7.9,14.2-15.8,21.9-24.2c-3.2-8.1-6.8-16.2-9.5-24.5
		c-1.3-4.1-0.8-8.8-1-12.1c12.3-7,20.6,2.8,30.2,4.5c2.4-5-0.5-10.9,5.2-14.1c1-0.6-0.9-6.4-1.8-11.4c2.4-1.8,6.1-4.6,9.7-7.3
		c-1-2.9-1.2-4.7-2.1-5.9c-5.2-6.7-10.6-13.3-16-19.9c-2.3-2.7-2.4-5.4-0.4-8.1c1.3-1.8,3.1-3.3,5.2-5.6c-5.3-3.7-8.3-8.3-9.2-14.7
		c-0.6-4.1-0.3-6.9,2.6-9.8c4.2-4.1,8.2-8.5,12.6-13.2c7.5,3.7,14.6,7.4,21.7,10.8c4.3,2.1,6.2,4.3,5.1,10c-1.8,9.4-2,19.2,3,28.1
		c2.3,4,0.8,7.5-1.3,11.7c-4-2.7-7.5-5.2-11.3-7.8c-4.1,7.3,1.4,12.4,1.5,17.9c0.1,5.5-2.1,10.6,1.7,16.1c5.1,7.2,5.1,16.2,2.6,24
		C2594.3,1828.6,2593.2,1840.3,2599.2,1851.3z"/>
</g>
</svg>
