<?xml version="1.0" encoding="utf-8"?>
<!-- Generator: Adobe Illustrator 19.0.0, SVG Export Plug-In . SVG Version: 6.00 Build 0)  -->
<svg version="1.1" id="Layer_1" xmlns="http://www.w3.org/2000/svg" xmlns:xlink="http://www.w3.org/1999/xlink" x="0px" y="0px"
	 viewBox="0 0 3000 1500" style="enable-background:new 0 0 3000 1500;" xml:space="preserve">
<style type="text/css">
	.st0{fill:#FFFFFF;}
</style>
<g>
	<path d="M960.1,1077.7c-4.7-4.4-8.8-8.4-13.1-12.1c-0.8-0.7-2.5-0.3-3.7-0.3c-3.6,0.2-7.2,0.6-10.8,0.5c-1,0-2.4-1.5-2.9-2.6
		c-3.9-7.7-7.6-15.6-11.6-23.3c-0.5-0.9-2-1.8-3-1.9c-12-0.1-24-0.1-36,0c-4,0.1-6.7-2-6.8-6.1c-0.1-4.5,0-9.1,0-13.8
		c-6.9-0.4-12.9,0.2-14.6-7.2c-3.8,0-7.5,0.3-11.1-0.1c-5.7-0.7-7.3-2.3-7.3-7.2c0-13.8,0.1-27.7-0.1-41.5c0-3.9,2.2-5.1,5.2-5.1
		c2.9,0,6,0.3,8.7,1.3c4.1,1.6,7.9,3.9,12,5.7c1.1,0.5,2.7,0.1,4-0.2c6-1.4,12-2.9,17.9-4.3c0.1-13.8-13-38-22.9-42.6
		c0-1.6,0.2-3.2,0-4.8c-0.8-4.4-2.4-8.8-2.6-13.3c-0.4-7.6,0.5-15.3,0-22.9c-0.1-2.6-2.5-5.1-4-7.5c-0.9-1.4-2.2-2.4-3.1-3.8
		c-4.7-7.5-9.3-15.1-14-22.6c-1.3-2.1-3-3.9-4.6-6c-2.5,0.8-5.1,1.6-8,2.6c-1.8-2.3-3.9-4.8-6.4-7.9c7.9-3,5.9-9.7,6-15.6
		c0.1-4.7-0.6-9.4,0.2-14c1.5-8.9-3.5-14.9-8.3-21.2c-14.9-19.9-29.8-39.8-44.6-59.8c-1.2-1.6-2.1-3.8-2.1-5.7
		c0-10.6-4.7-18.6-13.9-23.1c-8.6-4.1-12.3-12-16.8-19.2c-1.3-2-1.3-6-0.2-8.2c3.7-6.8,8-13.3,12.5-19.7c2.8-4.1,6.4-7.6,9.5-11.6
		c4.3-5.4,15.9-8.2,25.1-4.4c7.7,3.2,16.1,2.2,23-1.3c6.1-3.1,8.1-10.8,8.3-17.5c0.4-9.6-0.2-19.2-1-28.8c-0.2-2.4-2.8-5-5-6.6
		c-3.1-2.3-3.7-4.7-2-7.9c0.9-1.7,2-3.4,2.9-5.1c3.4-6.2,4.7-12.7,4.8-19.8c0-2.9,3.5-7.9,5.9-8.2c4.6-0.7,5.7-3.7,6.2-6.5
		c1.5-8.6,7.8-14.4,12.2-21.1c2.5-3.7,3.1-5.2,0.4-8.8c-1.3-1.7-1-6.4,0.5-7.9c2-2,5.7-2.4,8.8-3.1c2.7-0.6,5.5-0.9,8.2-1
		c3.3-0.2,6.7-0.2,10,0c2.2,0.1,4.4,0.8,7.6,1.5c-1.7-3.2-3-5.4-4.1-7.6c-1.4-2.9-3.5-5.6-1.6-9.2c0.4-0.8-0.3-2.6-0.9-3.7
		c-4.3-7.5-1.3-11.3,3.9-16.3c2.4-2.3,4.9-4.6,8.3-7.9c-7.8-2.9-14.3-6-21.2-7.7c-6.5-1.6-6.6-6.8-6.5-10.9c0.1-3.1,2.9-7,5.6-9
		c3.6-2.7,6.7-5,8.3-9.6c0.8-2.4,4.2-4.3,6.8-5.5c3.2-1.5,6.8-1.9,10.2-3c6.8-2.2,10.6-0.8,14.4,5.4c3.1,5,10.4,7.1,15.5,4.3
		c1.3-0.7,2.6-1.7,4-1.8c3.7-0.3,4.1-2.5,4.8-5.6c1.3-5.4,3.2-10.8,5.8-15.7c0.9-1.7,4.5-2.8,6.9-2.7c6.2,0.2,12.5,0.6,18.5,2.2
		c6.1,1.6,11.7,4.7,17.6,7.1c2.6,1,5.2,2.1,7.9,2.5c4.4,0.6,7.8,0.1,10.5-4.9c2.2-4,6.7-7.3,11-9.5c5.9-3.2,12.3-5.9,18.8-7.3
		c4.4-0.9,9.4,1,14.1,1.3c2.7,0.2,5.7,0.5,8.2-0.4c15.1-5.6,30-11.8,45.2-17.1c6.4-2.2,11.7-4.7,15.8-10.5c2.3-3.3,6.8-5,10.2-7.4
		c1.5-1,2.9-2.1,4.2-3.4c4.2-4.1,7.5-3.5,10.4,1.8c3.1,5.6,2.8,5.3,7.8,1.3c4.3-3.5,9.3-6,13.8-9.2c1.7-1.2,3.1-3.2,4.2-5.1
		c1.8-2.8,2.8-6.3,5-8.8c4.6-5.4,9.6-10.5,14.6-15.6c1.3-1.3,3.3-2.1,5-3c5.6-2.8,6.9-5.8,5.4-11.6c-0.3-1.2,0-2.5,0.6-3.8
		c3.7,8.8,11.1,11.9,19.2,14.3c6.4,1.9,12.9,4.3,13.8,12.5c11.7,0.7,14,5.4,11.5,12.8c9.3-2.7,13.4,4,18,9.6
		c4.6,5.7,8.8,11.8,13.3,17.6c2,2.6,4.7,3.8,8.2,4.7c4.8,1.3,9.2,4.6,13.2,7.9c4.8,4,8.6,8.4,10.1,15.3c1.3,6.1,5.5,11.7,8.8,17.2
		c2.3,3.7,5.3,7,8.1,10.6c1.4-2.6,2.9-5.5,4.5-8.4c3-5.2,8.1-5.2,12-0.5c2.9,3.5,6.8,6.2,10,9.6c1.6,1.7,3.9,3.9,3.8,5.8
		c-0.2,4.1,2,5.1,5,6.1c1.2,0.4,2.8,0.8,3.3,1.7c4.4,8.2,13.8,7.6,20.6,11.4c2.8,1.6,10.8-3,12.4-6.4c4.2,5.3,11.6,7.4,13.3,15
		c0.2,0.7,1.5,1.4,2.3,1.6c6.6,1.1,13.3,2.5,19.9,2.8c5.8,0.3,8,4.6,11.4,7.8c2.3,2.2,4.6,5,7.4,6c5.8,2.2,10.1,5.3,10.9,11.8
		c0,0.4,0.7,0.7,1.1,1c3.8-2,4.7-5.2,4.8-9.4c0.2-8.7,0-17.7,2.2-26c2-7.1,7.1-13.4,10.9-20c0.6-1,1.3-1.8,1.9-2.8
		c3-4.9,6.8-8.4,13.1-7.5c1.3-3.2,2.5-6.1,3.7-9.2c3.3-8.9,8.7-12.6,18.1-12.9c4.5-0.1,9.1-1.5,13.6-1.7c7.8-0.2,15.7-0.2,23.5,0.4
		c9.5,0.7,18.8,2.3,28.3,3.3c2.2,0.2,4.5-0.8,6.8-0.9c4.7-0.1,9.6-2.4,14,1.7c1,0.9,4,0.4,5.7-0.3c7.7-2.9,15.4-1.3,22.9,0.1
		c9.1,1.6,20.7-2.8,25.3-10.4c0.7-1.2,1.8-2.4,3-3c12.2-5.7,20.7-15.3,27.7-26.5c2.8-4.6,5.6-9.2,8.1-14
		c4.8-9.1,13.4-13.6,21.6-18.6c1.2-0.8,3.4-0.5,5-0.1c4.1,0.9,7.5,1.4,10-3.4c2.6-5.1,7.4-8,12.5-10.6c2.6-1.3,5.8-3.1,6.7-5.5
		c3.2-8.4,11.5-11.5,17.1-17.3c8.1-8.3,16.8-16.1,24.9-24.4c4.2-4.3,6.9-10.3,14.3-9.9c0.6,0,1.4-1.1,2-1.8c2.5-2.9,4.5-6.4,7.5-8.6
		c6.3-4.7,13.6-8,19.4-13.1c6.3-5.6,11.3-12.6,17.1-18.8c2.2-2.4,5-4.3,7.5-6.4c1.5,3,4,5.9,4.5,9c1.7,13.2,7.3,24.9,12.6,36.8
		c5.7,12.6,11.7,25.2,17.4,37.8c1.4,3.1,3.1,4.6,6.6,5.6c19.8,5.9,39.5,12,59,18.8c11.9,4.2,23.1,10.5,35.2,14.4
		c6.2,2,13.3,0.8,20.1,1.1c2.4,0.1,4.8-0.2,7.1,0.4c5,1.2,10,2.7,14.9,4.4c1.9,0.7,3.8,1.9,5.3,3.2c3.7,3.4,7.1,7,10.6,10.6
		c2.6,2.6,4.6,5.5,9.5,4.1c2.4-0.7,5.5,1.6,8.4,2.1c4.5,0.7,9.2,1,13.7,1.7c1.5,0.2,3.5,0.9,4.1,2c2.7,5,5,10.2,7.7,15.9
		c0.9-0.6,2.3-1.2,3.5-2.1c2.3-1.7,4.4-3.7,6.6-5.4c3.3-2.5,7.7-3.5,9.4-8.1c0.4-1.2,3.3-2.3,4.9-2.2c7.8,0.7,15.6,1.7,23.4,2.9
		c10,1.5,20,3.3,30,4.9c13.9,2.1,27.8,4.2,41.8,6c2.6,0.3,5.5-1,9-1.7c1.5,1.7,3.7,4.3,6.1,7c-5.1,6.3-2.1,13.3-1.5,20.1
		c0.4,3.9,1.6,7.7,1.7,11.6c0.5,11.4,0.5,22.9,1.1,34.3c0.7,11.8,2.1,23.6,2.7,35.4c0.2,3.9-1.2,7.9-1.9,12.1c6.2,0.8,12,1,17.4,2.5
		c3.2,0.9,5.9,3.9,8.5,6.4c1.9,1.8,2.8,4.4,4.7,6.2c6.6,6.7,6.4,14.3,5.4,23.1c-2.1,17.5-8.7,34.5-6.9,52.5
		c0.4,3.8-0.2,7.7,0.1,11.6c0.4,4.1-2.1,6.5-5,7.8c-16.4,7.3-30.3,18.6-44.9,28.7c-4.1,2.8-8.4,3.3-12.2,2.2
		c-13.1-3.7-24.9-1.7-36.9,4.4c-8.5,4.2-14.4,10.2-19.7,17.7c-2.8,3.9-7.2,6.9-11.3,9.5c-4,2.5-7.3,4.7-8.8,9.7
		c-1.6,5.2-4.5,10.2-7.7,14.6c-3.5,4.9-2.8,9.4-1.1,14.4c1.3,3.8,2.7,7.7,3.3,11.7c0.4,2.8-0.6,5.8-0.7,8.7c-0.1,3.7-0.3,7.4,0,11
		c0.3,3.5,1,7.1,2,10.5c1.4,5.3,3.1,10.5,5,15.6c0.3,0.8,2.4,1.3,3.7,1.3c7.8-0.2,15.7-0.5,23.5-1c6.6-0.4,8.2,0.9,8.8,9.2
		c0.6,7.9,0.3,15.9,1.2,23.8c0.8,7.2-3.1,10.3-8.7,13.1c-7.3,3.8-14.5,7.9-22.2,12.2c5.9,7.8,5.1,14.8-0.1,22
		c-1.4,2-0.6,5.6-0.7,8.5c-0.3,4-0.5,8-0.8,12c-0.1,2-0.6,3.9-0.6,5.9c0.1,5.9-1.8,11.1-6.2,14.9c-4.1,3.6-6.7,7.6-5.9,13.4
		c0.2,1.8-0.2,4.3-1.3,5.6c-4.4,5.4-7.5,12.1-14.9,14.5c-4.2,1.4-5.4,4.8-5.8,8.8c-0.5,5-1.5,10-1.9,15.1c-0.2,2.7,0.2,5.5,1,8.1
		c3,9.9,1.7,19.7-0.4,29.6c-1.4,7-2.5,14.1-3.7,21.2c-0.1,0.3-0.1,0.7,0,1c3.7,8.3,0.8,15.2-3.6,22.5c-3.8,6.3,0.2,12.6,2.1,18.8
		c2.5,7.7,5.3,15.3,3.6,23.8c-0.6,3,0.9,6.4,1.1,9.7c0.2,5.2,0,10.5,0.2,15.7c0.1,3.5,0.7,7.1,1.1,10.6c0.5,3.7,1.4,7.4,1.5,11.2
		c0.2,10.3,5.4,17.6,15.2,21c2.1,0.7,4.5,1.5,6.1,2.9c1.1,1,2,3.5,1.6,4.8c-0.5,1.6-2.4,3.8-3.9,4c-7.8,1-15.7,1.5-23.6,2.2
		c-16.2,1.3-32.5,2.7-48.7,3.9c-6.6,0.5-13.2,0.4-19.8,1.2c-5.2,0.6-10.5,1.8-15.6,3.3c-4.4,1.3-7.9,0.6-11.2-2.7
		c-4-4.2-4.5-3.9-7.5,1.2c-1.1,1.8-2.5,3.5-4,5c-4.6,4.8-9.3,9.6-14.7,15.2c3.9,3,7.1,5.6,10.5,8c6.3,4.4,9.8,10.7,12.4,17.7
		c0.4,1,0.4,2.4,0.2,3.5c-3,11,2.3,20,7.1,29.1c5,9.3,10.5,18.4,15.4,27.9c9,17.2,17.7,34.6,26.5,52c1.2,2.3,2.4,4.7,3,7.2
		c0.5,2.3,0.7,5.3-0.3,7.3c-1.6,3.1-5.1,2.2-7.4,1c-4.6-2.6-9.1-3-14.2-1.7c-3,0.8-6.3,0.4-9.5,0.1c-5.7-0.7-10.2-2.9-11.1-9.6
		c-0.2-1.7-2.2-3.3-3.5-4.8c-2.2-2.5-4.9-4.6-6.9-7.2c-2.8-3.6-5.9-5.4-10.5-3.8c-2.1,0.8-4.4,1.8-6.6,1.7
		c-13.2-0.9-19.8,9.1-27.5,16.8c-6.8,6.8-14.7,6.3-23.1,6.3c-5.4,0-10.8,1.8-16.2,2.9c-4,0.8-8,2.6-11.9,2.2
		c-2.7-0.3-5.6-3.2-7.4-5.6c-5.9-7.9-11.3-16.3-17.2-24.3c-1.7-2.3-4.4-4-6.7-5.8c-8-6.4-12.1-15.8-18.1-23.7
		c-5.3-7-9.7-14.8-15.3-21.5c-2.9-3.4-7.7-5-11.5-7.7c-1.6-1.2-3.7-2.8-4.1-4.5c-1.7-7.9-10.4-16.6-18.1-17.2
		c-1.7-0.1-3.4,1.2-5.1,1.3c-3,0.3-6.1,0.9-8.9,0.3c-7-1.3-14.4-2.1-20.7-5.1c-8.1-3.8-16.9-3.2-25-5.9c-2-0.6-4.5-0.5-6.5,0.2
		c-5.8,2-12.1,1.7-17.3,6.7c-7.4,7.2-12.8,16-20.5,22.7c-3.5,3-8.2,5.5-12.8,6.4c-12.6,2.6-25.4,4.4-38.2,6.1
		c-10.6,1.4-21.3,2.1-31.9,3.1c-7.2,0.7-14.4,1.2-21.6,2.1c-7.3,0.9-10.4-1.3-11.8-9.1c-4.7,0-9.6-0.3-14.4,0.1
		c-6.5,0.5-11.7-2.1-17-5.3c-2.2-1.4-5-2.7-7.4-2.6c-4.7,0.3-7.3-2.6-10.1-5.2c-1.2-1.1-2.1-4-1.6-5.4c1.7-4,0.2-6.8-2.2-9.8
		c-4.7-6-9.3-12.1-13.9-18.3c-1-1.4-1.7-3.1-2.2-4.8c-1.2-4-4-5.6-8-5.7c-0.3,0-0.7,0.1-1,0c-7.1-4.1-14.8-4.7-22.8-4.4
		c-1.3,0-2.7-1.1-3.9-1.9c-7.8-5.1-15.2-11.2-23.6-15c-7.4-3.4-16.1-4.2-24.1-6.1c-1.6-0.4-3.6-0.4-4.8-1.4
		c-4.6-3.5-9.3-2.3-14.3-1.5c-2.1,0.4-4.7,0.1-6.6-0.9c-10.4-5.3-20.7-11-31-16.4c-2-1.1-4.4-1.5-6.3-2.7c-4.6-3-9.1-6.2-13.7-9.4
		c0.6-0.8,0.5-0.5,0.3-0.3c-9.3,6.7-4.9,14.7-2.3,22.7c0.8,2.4,1.2,6.2-0.1,7.6c-1.6,1.7-5.1,1.8-7.8,2.1c-4.6,0.4-9.2,0.4-13.7,0.7
		c-14.4,0.7-28.7,1.3-43.1,2c-9.5,0.5-19.1,1.2-28.6,2.1c-1.1,0.1-2.5,1.2-3.2,2.3c-3.8,5.3-7.4,10.8-11.3,16
		c-1.7,2.2-3.9,4-6.1,5.7c-3.9,3-6.9,2.4-9.9-1.8c-1.4-2-4.3-3.3-6.8-4c-6-1.8-11.6-2.9-13.6-10.6c-1.1-4.4-5.7-7.9-8.3-12
		c-1.8-2.8-2.9-6-4.1-9.2c-0.6-1.5-0.5-3.3-1.2-4.7c-2.3-4.3-5-8-11-5.8c-2.4,0.9-5.3,0.4-7.7,1.2c-2.4,0.8-4.2,2-5.6,5.1
		c-2.4,5.7-6.7,10.6-10.2,15.9c-1.1,1.7-2.2,3.6-3.2,5.4c-0.5,0.8-0.4,2.3-1.1,2.6c-8.1,4.2-9.8,12.8-13.9,19.9
		c-3.1,5.4-7.3,10.2-11.1,15.2c-0.5,0.6-1.3,1.6-1.9,1.5c-6.3-0.5-6.5,4.5-7.2,8.5c-0.9,4.8-4.2,7.2-8,9c-1.3,0.6-4,0-5.2-1.1
		c-2.3-2.2-4.7-3-7.8-3.4c-2.3-0.3-5-2.5-6.2-4.6c-3.4-5.8-6.2-12-9.2-18c-0.4,0.5-0.9,1.1-1.3,1.6c-3-1.4-6.2-2.5-9.1-4.2
		c-5-2.9-9.7-6.3-14.7-9.3c-1.1-0.6-3-0.4-4.3,0.1c-14.5,4.8-28.3,4.3-41.2-4.7c-1.7-1.2-4.4-0.8-7-1.1c-1.1-3.2-2.2-6.6-3.4-10.3
		c1.8-0.2,3.4-0.3,5.3-0.5c-2.8-5-1.5-9.3,0.8-14c2.5-5.1,3.9-10.9,5.2-16.5c0.4-1.8-1.1-4-1.8-5.9c-0.7-2.1-1.2-4.3-2.1-6.3
		c-0.5-1.2-1.6-2.2-2.7-3c-4.3-2.8-8.6-5.6-13-8.2c-0.9-0.5-2.3-0.1-3.5-0.2c-5.1-0.6-10.2-1.2-15.4-1.8c-0.9-0.1-1.9,0.1-2.5-0.3
		c-0.9-0.5-2-1.4-2.1-2.2c-0.2-1.5,0.8-3.3,0.2-4.5C953.6,1085.3,956.7,1081.5,960.1,1077.7z M1372.2,686.9c-4,2.9-6.7,5.2-9.7,7
		c-2.2,1.3-4.9,1.7-7,3.2c-6,4.2-10.6,10.9-19.1,10.8c-0.2,0-0.3,0.1-0.5,0.1c-7.3,3.8-14.3,8.2-21.8,11.2
		c-11.3,4.5-20.3,13-31.7,17.3c-0.9,0.3-1.6,1.2-2.4,1.8c-5.1,4.5-9.9,9.5-15.5,13.3c-5,3.4-10.9,5.6-16.6,7.8
		c-6.5,2.6-13.3,4.7-20,6.7c-2.7,0.8-5.7,0.5-8.5,1c-9.9,1.9-19.7,4.2-29.7,5.6c-3.3,0.5-7-1.3-10.5-1.8c-8.6-1.1-17.2-2-24.5-7.6
		c-1-0.8-2.4-1.3-3.6-1.4c-7.4-0.5-14.9-0.7-22.4-1.1c-4-0.2-7.9-0.4-11.9-0.5c-3.6-0.1-7.3-0.6-10.8,0c-5,0.9-4.5,6.1-6.1,9.5
		c-3.6,7.8-6.3,16.2-14.9,20.3c-1.8,0.9-3.6,1.9-5.3,3c-2.8,1.8-5.4,4.7-8.5,5.5c-4.9,1.3-9.3,2.1-9.3,8.5c0,0.8-0.8,1.9-1.5,2.5
		c-3.2,2.6-6.9,4.7-9.6,7.8c-4.5,5.3-10.2,8.3-16.3,11.1c-2.4,1.1-5.6,2.6-6.3,4.6c-3.6,10.4-14,14.7-19.6,23.1
		c-0.4,0.6-1.2,1.1-2,1.4c-4.1,1.9-8.1,3.8-12.2,5.7c-2.5,1.1-5,2.9-7.6,3.2c-11.1,1-17.2,8.9-23.9,16.4c-6,6.7-11.2,14.4-20,18.2
		c-1.2,0.5-3,1.8-3,2.7c-0.3,7.2-0.1,14.4-0.3,21.6c-0.1,3.7-0.7,7.5-1.4,11.2c-1.4,6.8-3,13.5-4.5,20.2c-0.1,0.6,0.2,1.3,0.4,1.9
		c1.2,3.8,8.1,9.7,12,8.8c5.8-1.3,8.9,2,12.9,4.9c4.2,3.1,7.8,8.3,13.9,7.2c4.5-0.8,8.9-2.7,13.3-4.1c2-0.6,4-1.1,6-1.8
		c4.6-1.6,10.2-2.1,13.4-5.1c7.3-6.8,16.9-8.4,25.2-12.7c8.8-4.6,18.7-7.4,23.5-17.3c0.7-1.4,2.1-2.8,3.5-3.4
		c6.1-2.6,11.6-6,16-11.1c2.3-2.6,4.8-5.4,7.8-6.7c2.9-1.2,3.4-3.3,3.7-5.5c1.5-9,2.7-18.1,4.1-27.1c3-19.2,6.2-38.4,8.8-57.7
		c0.9-6.5,2.1-11.9,9.7-13.4c3-0.6,5.8-2.2,8.5-3.6c12.3-6.4,25.7-9.1,39.2-11.4c15.8-2.7,31.5-5.3,47.2-8.3c16-3.1,32-6.4,48-9.8
		c20.4-4.3,40.8-8.9,61.2-13.2c14.3-3,28.7-5.8,43.1-8.4c1-0.2,3.9,3,3.7,4.2c-1.3,7.5-3.9,14.8-4.9,22.4c-1.3,9.3-5.4,14.5-15.3,15
		c-7.6,0.3-15.2,0.9-22.6,2.4c-6.2,1.3-13.8,1.2-15.9,9.7c-1.9,7.5-5.7,13.6-13.4,16.2c7.7,4,15,7.9,22.3,11.7
		c2.3,1.2,4.8,2.1,7,3.5c3.6,2.3,7.1,4.8,10.5,7.4c2.7,2.1,2.7,4.5,1,7.7c-1.7,3.2-2.2,7-3.3,10.5c-0.6,2-1.2,4.1-2.3,5.8
		c-6.2,9.4-12.4,18.8-19,27.9c-7.9,10.7-18.9,10.8-27.6,5.4c-5.1-3.2-9.7-4-14.7-1.7c-4.3,2-7.1,0.6-10.5-1.9
		c-8.2-6.1-18-10.2-27.3-5.8c-7.8,3.7-16.1,5.7-22.9,8.4c3.2,3.8,6.3,7.7,9.6,11.4c1,1.1,2.6,1.9,4.1,2.5c3.1,1.2,5.6,3.3,4.5,6.6
		c-1.4,4.4,0.7,7.5,2.3,11c2.5,5.3,4.9,10.7,7.7,15.9c0.9,1.7,2.3,3.5,3.9,4.5c9.6,5.5,19.6,10.5,29.1,16.2c4.9,3,9.4,6.4,14.6,8.9
		c1.1,0.5,2.4,2,2.5,3.1c0.9,8.7,1.4,17.4,2.2,26.1c0.2,1.8,0.8,4,2,5.2c2.4,2.5,2.2,4.7,1.1,7.6c-0.5,1.5-0.3,4.4,0.7,5.1
		c8.2,5.4,15.8,12.6,27,10.7c1-0.2,2.1,0.3,3.1,0.5c-2.2,7.1-2.2,7.3,4.6,8.6c6.9,1.3,13.9,2,20.8,3.2c1.6,0.3,3.6,1.3,4.3,2.5
		c0.5,0.9-0.5,2.9-1.1,4.3c-0.3,0.8-1.1,1.5-0.7,1.1c1.7,4.4,4.8,8.5,3.9,11.1c-2.6,7.2-5.1,13.5-2.3,21.7c1.6,4.7,5.8,14,11.1,16
		c4.4,1.6,8.8,3.3,13,5.4c7.2,3.7,14.1,7.9,21.3,11.6c1.9,1,4.4,1,6.7,1.1c4.7,0.2,9.4-0.3,14,0.4c3.9,0.6,7.6,2.5,11.4,3.6
		c6.9,2.1,14.1,3.6,20.8,6.4c6.4,2.7,12.3,6.6,18.3,10.2c2,1.2,3.5,3.3,5.6,4.3c2.2,1,4.8,1.3,7.2,1.7c3.2,0.5,6.6,0.6,9.7,1.3
		c4.4,1.1,8.8,2.2,12.8,4.2c3.9,2,7.6,4.8,10.8,7.8c1.2,1.2,0.4,4.3,1.5,5.9c4,5.8,8.3,11.2,12.6,16.8c3.8,5.1,9.3,9.4,7.1,16.1
		c4.3,1.5,9.3,1.8,11.9,4.4c4.3,4.4,8.9,5.1,14.4,4.8c2.8-0.1,5.7,0.2,8.5-0.1c7.5-0.7,12.9,1.6,14.6,9.5c12-1.2,23.6-2.3,35.2-3.4
		c6.5-0.7,13.1-1.3,19.6-2.2c10.3-1.5,20.7-3.1,31-4.8c5.3-0.9,10.1-1.9,14.4-6.7c5.8-6.4,10.3-13.9,16.7-20
		c7.1-6.9,15.7-8.6,23.8-10.7c6.3-1.6,13.8,1.2,20.8,2c2.9,0.3,6,0.2,8.8,1c7,1.9,13.9,4.2,20.8,6.5c5.4,1.8,10.6,3.4,16.1,0.1
		c1.3-0.8,3.8,0.5,5.7,0.6c2.3,0.2,4.9-0.3,7,0.5c2.4,0.8,4.9,2.3,6.5,4.2c5.9,6.9,8.3,16.6,17.6,20.8c2.7,1.3,5.3,3.6,7.1,6
		c5.9,7.8,11.4,15.9,17,23.9c2.6,3.7,4.9,7.7,7.6,11.3c2.6,3.6,4.9,7.8,8.3,10.2c10.1,6.9,15.1,17.9,23,26.5c1.6,1.7,2.6,5,4.4,5.5
		c2.4,0.6,5.4-0.7,8.1-1.3c0.6-0.1,1.2-0.7,1.8-0.8c4.8-0.9,9.8-2.8,14.3-2.2c7.3,1,13.2,0.2,18.3-5.4c3.5-3.8,6.9-7.9,11-10.8
		c3.8-2.7,8.4-4.7,13-6.1c4.5-1.4,9.4-1.3,14-2.4c5.2-1.2,10.1-1.5,14.2,2.5c2.9,2.8,5.4,6.4,8.7,8.5c5.5,3.5,9.6,7.5,9.9,14.7
		c5.9-0.6,11.2-1.1,16.9-1.6c-0.4-1.4-0.6-2.2-0.9-2.9c-9.8-19.1-19.6-38.1-29.4-57.1c-3.6-7-6.8-14.3-11.5-20.5
		c-6-7.7-6.8-16.5-6.6-25.2c0.2-7.8-2.3-13-8.4-17.5c-4.9-3.7-9.5-8-13.6-12.6c-2.9-3.3-2-6.6,0.9-10.5c6.3-8.4,17.1-13.2,19.9-24.4
		c0.3-1.1,2.1-2,3.5-2.6c5.8-2.3,11.5-2.5,17,0.9c0.9,0.6,2,1.4,3,1.4c4.6-0.2,9.2-0.6,13.8-1c15.7-1.3,31.5-2.7,47.2-3.9
		c9.8-0.8,19.6-1.4,30.3-2.2c-6.5-6.2-9.5-13.1-10.2-21.1c-0.4-4.9-1.4-9.7-1.9-14.6c-0.3-3.2,0-6.4-0.1-9.6
		c-0.2-5.4-0.5-10.9-0.9-16.3c-0.2-3.4-1.6-7.1-0.9-10.2c1.7-7.1-0.5-13.3-3-19.4c-4.6-11.4-5.9-22.3,1.5-33.1
		c0.8-1.1,1.4-2.9,1-4.1c-2.8-10.5,0.6-20.6,2.1-30.7c1.5-10,4.5-19.8-1.5-29.5c-0.8-1.2,0-3.5,0.3-5.3c0.8-5.3,2-10.6,2.4-16
		c0.6-8.9,2.9-15.9,12.2-19.9c5.8-2.5,10.2-7.3,10.1-15c-0.1-4.9,1.7-9.8,6.2-13.1c3.9-2.9,6-6.8,5.7-11.9c-0.1-2.2,0.8-4.5,0.9-6.8
		c0.2-3.5,0-7.1,0.4-10.6c0.4-4.5,0-9.8,2.2-13.2c3-4.7,2.4-7.7-0.2-12c-3.2-5.2-1.8-9.7,3.5-12.9c7.4-4.4,15.1-8.4,22.6-12.8
		c1.5-0.9,3.4-2.7,3.4-4.1c0-6.9-0.6-13.7-1-20.7c-8.8,0-17,0.4-25.1-0.2c-2.9-0.2-7.1-2-8.2-4.2c-3.2-6.8-5.4-14.1-7.5-21.4
		c-1.1-3.9-1.5-8-2.1-12c-0.4-2.7-1.6-5.9-0.8-8.2c3.1-8.4,0.7-16-2-23.7c-2.2-6.1-2.5-11.9,1.8-17.9c3.7-5,6.6-10.9,8.6-16.8
		c2.2-6.7,7.3-10,12.6-13.6c3.5-2.4,6.8-5.1,9.8-8.2c2.6-2.7,4-6.7,6.9-8.9c6-4.4,12.6-8.1,19.1-11.9c12.2-7.2,25.1-7.5,38.6-4.5
		c2.4,0.5,5.4-0.5,7.8-1.5c2.6-1.2,4.8-3.4,7.2-5c10-6.4,19.8-13.1,30.1-19c4.7-2.7,8.1-4.9,5.5-10.9c-0.4-0.8,0-2-0.1-3
		c-2.2-17.6,5.2-34,6.4-51.1c0.3-4.6,1.2-9.5-0.1-13.7c-1.2-3.8-4.8-6.9-7.7-10c-1.4-1.5-3.5-2.8-5.5-3.1c-5.1-1-10.4-1.5-15.6-2.1
		c-8.4-1.1-10.6-8.3-6.8-13.7c1.5-2.2,2.2-5.6,2-8.4c-0.6-9.5-2.2-18.9-2.7-28.4c-0.9-16.3-1.2-32.7-2.2-49
		c-0.4-6.8-1.8-13.5-2.6-20c-31.4-4.7-62.8-9.3-92.9-13.8c-2.6,2.2-4.2,3.9-6.1,5.3c-3.1,2.1-6.4,3.9-9.5,5.9
		c-3.3,2.2-6.4,5-9.9,6.7c-4.5,2.1-9.4-0.1-10.8-3.9c-2.2-6.2-4.5-12.4-6.3-17.6c-7.1,0-13.3-1.1-18.9,0.3c-6.1,1.5-9.4-1-12.8-4.8
		c-7-8-14.6-15.1-25.7-16.8c-1.9-0.3-3.6-1.9-5.4-1.9c-7.3-0.1-14.6,0.2-21.9,0.2c-1.4,0-2.9-0.3-4.2-0.8
		c-12.5-5.3-24.9-11.2-37.6-16.1c-9.2-3.5-18.9-5.9-28.4-8.8c-11.2-3.4-22.4-6.8-33.5-10.5c-1.7-0.6-3.4-2.5-4.2-4.2
		c-7.9-16.8-15.8-33.7-23.4-50.7c-2.7-5.9-4.8-12.1-7.1-18.1c-0.8-2.1-1.1-4.3-1.7-6.9c-4.3,5-7.6,9.9-12,13.5
		c-6.3,5.1-13.5,9.1-20.2,13.8c-3.1,2.2-6.3,3.9-7.9,8.1c-1.3,3.4-4.6,5.7-9.1,5.9c-1.8,0.1-3.8,1.7-5.2,3.1c-10.1,9.9-20,20-30,30
		c-4,4-8.9,7.3-12.2,11.8c-3.4,4.7-6.7,8.7-12.3,11.2c-3.5,1.6-6.6,4.8-8.8,8c-2.4,3.7-4.9,6.4-9.5,6.8c-4,0.3-8.7-0.5-11.8,1.3
		c-5.3,3-10.2,7.1-14.1,11.8c-3.7,4.4-5.7,10.3-8.9,15.2c-6.5,10-13.9,19.1-24.1,25.8c-3.1,2-7,4-8.5,7c-2.3,4.6-5.6,6.7-10.2,8
		c-2.5,0.7-4.9,1.7-7.4,2.6c-5.4,1.9-10.7,2.7-16.7,1.1c-5.4-1.5-11.3-3.2-17.3-0.3c-4.1,2-8.4,1.2-12.7-0.4c-2.6-1-5.9-1.4-8.6-0.7
		c-9.9,2.5-19.4,0.3-29.1-1.2c-8-1.3-16.1-2.2-24.2-2.1c-7.1,0.1-14.2,2.2-21.4,2.7c-3.6,0.3-6.2,1.6-7.4,4.5
		c-1.8,4.6-3,9.6-4.4,14.4c-0.4,1.4-0.5,3-1.3,4c-3.8,4.9-6.4,0.2-9.5-1.7c-2.1,2.6-4.6,4.9-6.3,7.7c-3.2,5.2-7,10.5-8.6,16.2
		c-1.7,6.2-1,13.1-1.3,19.7c-0.1,3,0.3,6.1-0.4,9c-2,9.3-10.3,13.1-17.1,17.9c-2.9,2.1-7.4-1.3-7.6-5.2c-0.1-2.2-0.1-4.3,0-6.5
		c0.2-3.2-0.7-5.1-4.3-6.1c-5.2-1.4-9.2-4.7-12.1-9.4c-0.9-1.4-2.6-2.9-4.1-3.2c-8.8-1.7-17.6-3.2-26.5-4.4
		c-1.1-0.2-3.8,2.3-3.6,2.8c2.5,7.2-1.6,11.4-6.1,15.8c-3.5,3.4-6.4,7.1-7.4,12.3c-1.9,9.7,1.4,18.5,4.4,27.1
		c3.2,9.2,8.7,17.5,13.2,26.2c0.2,0.4,0.7,0.8,1.1,1c3,1.7,5.8,3.6,9,4.9c6.3,2.5,11.2,9.2,11.6,15.7c0.2,2.9,0.6,6.1,2,8.4
		c4.9,7.8,7.3,16.4,10.2,25.1c3.9,12.1,2.1,23.1-2.4,34.1c-3.5,8.6-3.1,16.9,0.2,25.4c0.8,1.9,2.1,4.4,1.5,5.9
		c-3.3,8.2-6.7,16.6-11.1,24.3c-4.3,7.5-7.9,14.6-3.6,23.3c3,6-0.5,10.8-2.8,16.5C1396.2,704.8,1383.7,695.5,1372.2,686.9z
		 M1022.2,838.9c2.1-9,9.8-12.2,17.4-16.2c5.6-2.9,10.6-7,15.6-10.9c2.1-1.7,4.3-4.3,4.6-6.7c0.5-5.8,3.7-6.6,8.5-8.6
		c8.1-3.3,16.5-8.1,22.3-14.5c4.9-5.4,6.5-14,9.5-21.1c0.4-1,1-2.5,1.7-2.6c3.8-0.9,8-2.8,11.5-2c7,1.7,14.1,0.5,20.8,1.2
		c9.3,1,19.7-0.7,27.7,6.4c0.8,0.7,2.1,1,3.2,1.1c11.7,1.9,22.9,7.1,35.2,3.1c6.6-2.1,13.5-3.3,20.3-4.9c1.3-0.3,3.2-0.9,4-0.2
		c3.5,2.4,6.1,0,9-1.1c0.9-0.4,1.8-0.5,2.7-0.9c6.9-2.6,14.4-4.4,20.6-8.2c6.5-4,15.7-6,16.5-16.2c0-0.5,1.3-0.9,1.9-1.4
		c8.1-5.6,17.5-8.9,25.6-14.8c8.7-6.4,19.4-10.1,29.2-15c1.2-0.6,2.5-1.5,3.6-1.3c6.8,1.2,11.9-1.4,16.2-6.5
		c1.1-1.3,2.8-2.2,4.3-3.3c4.5-3.5,11.4-3.3,14.4-9.3c0.3-0.6,2.2-1.1,3-0.8c2.9,1.1,5.8,2.3,8.3,4.1c9.7,6.6,19.2,13.5,29.7,20.9
		c-0.3-4.6,0.4-8.6-0.9-11.8c-2.7-6.3-2.2-11.8,1-17.6c4.2-7.7,8.4-15.4,12.1-23.4c1.3-2.8,2.2-6.9,1.1-9.5
		c-4.2-10.5-4.5-20.5,0.1-31.2c4.1-9.6,6-20,1.1-30.2c-0.3-0.7-0.8-1.5-0.8-2.3c0-7.2-3.4-13-7-19c-2-3.4-3.4-7.5-3.9-11.4
		c-0.9-7.7-4-11.8-11.2-15c-3.9-1.7-8.9-4.2-10.2-7.6c-1.4-3.6-3.5-6-5.6-8.8c-1.6-2.2-2.8-4.7-4.1-7.2c-4.4-8.7-6.4-18.1-8-27.5
		c-0.5-3-0.3-6.1-0.2-9.1c0.3-7.5,5.2-12.4,10.3-17.2c3.3-3,5.1-6.3,3.3-11c-0.5-1.2,0.6-3.4,1.4-4.8c2-3.3,1.5-6.8-0.9-8.9
		c-1.6-1.4-5.4-1.6-7.4-0.6c-6.2,2.9-11.7,1.7-17.2-1.5c-1.4-0.8-2.8-2-4.3-2.1c-9.2-0.7-13.3-10.1-21.4-12.7
		c-1-0.3-1.9-2.5-1.8-3.7c0.1-5.4-4.3-7.2-7.5-10c-1.3-1.2-2.7-2.3-4.3-3.7c-1.2,2.9-2.6,6-3.8,9.1c-1.3,3.4-3.5,4.7-7.2,4.6
		c-3.2-0.1-4.8-1.1-6.1-4.3c-1.9-4.7-5.1-9-7.8-13.4c-4.2-6.9-10-13-11.3-21.4c-0.9-5.7-4.5-9.2-9.1-12.2c-2.3-1.5-5-4.8-6.7-4.4
		c-6.3,1.7-9-2.7-12-6.2c-5.4-6.5-10.1-13.6-15.5-20.3c-2.7-3.3-5.3-7.1-10.9-4.4c-1.4,0.7-4.7-0.4-5.7-1.7c-2.2-3-3.5-6.7-5.6-10.8
		c0.6,0.1,0,0-0.6-0.1c-8.6-0.2-8.3-0.3-9.8-8.8c-0.4-2-3.3-3.9-5.5-5.1c-2.7-1.4-5.8-2-8.7-2.9c-1-0.3-2.4-1.2-3.1-0.8
		c-3.3,1.8-6.6,3.7-9.4,6.2c-5.1,4.6-9.8,9.5-14.5,14.5c-1.2,1.3-1.9,3.3-2.6,5c-1.9,4.2-2.7,8.9-8,11.1c-4.2,1.7-8.6,4.2-11.7,7.5
		c-2.9,3.2-5.4,5.3-9.9,5.9c-7,1-9.4,0.5-12.7-6.3c-4.7,3.9-10,7.1-13.6,11.6c-4,5-8.8,7.4-14.8,8.3c-2.1,0.3-4.1,1.1-6,1.9
		c-13.8,5.3-27.6,10.6-41.4,16.2c-4.6,1.8-8.8,4.7-13.6,0.7c-0.5-0.4-1.8,0.2-2.7,0.2c-1.6-0.1-3.2-0.7-4.8-0.7c-2.4,0-4.8,0-7,0.7
		c-1.6,0.5-2.9,2.5-4.5,2.8c-7.8,1.7-13.3,6.1-16.9,13.2c-0.6,1.3-2.2,2.5-3.6,2.8c-8.5,2.2-16.9,1.5-24.9-2.4
		c-7.8-3.8-15.7-7.5-24.8-6.6c-2.3,0.2-4.6-0.9-7.6-1.5c-0.5,2.7-1,5.4-1.6,8c-1.4,6.2-2.2,12.7-9.4,15.3c-3.1,1.1-6.1,2.2-9.1,3.4
		c-4.7,2-17.7-1.1-20.8-5.1c-0.6-0.8-0.9-1.7-1.5-2.6c-0.6-1-1.2-2-2-2.7c-1.6-1.3-14.4,2.6-15.1,4.6c-1.7,4.7-4.4,8.3-9.1,10.3
		c-1.2,0.5-1.9,1.9-2.9,2.9c1.2,0.9,2.3,2,3.6,2.6c5.4,2.4,11,4.2,16.1,6.9c2.3,1.2,4.5,3.6,5.7,6c2.7,5.8-1.2,11.3-4.7,13.9
		c-6.3,4.5-7.9,8.6-3.7,14.9c0.1,0.1,0.1,0.3,0,0.5c-1.9,6.7,2,11,6.1,15.3c3,3.1,2.6,7.7-1.4,9.2c-6.6,2.6-13.5,4.8-20.5,0.8
		c-0.8-0.5-2.2-0.5-3.1-0.2c-3.2,1-6.2,2.3-8.2,3c-0.6,3.7-0.3,7.8-1.9,10.9c-2.2,4.3-6.7,7.3-7,12.7c0,0.5-0.8,1.3-1.3,1.4
		c-4.7,0.8-4.4,4.7-5.8,8c-2.3,5.5-3.3,12.6-10.8,12.6c-1.3,8.2-2.5,15.8-6.5,22.8c-0.7,1.3-0.6,3.5,0.1,4.9c1,2.4,3.8,4.3,4,6.6
		c1.1,10.3,2.7,20.8,2,31c-0.5,7.4-3.9,14.7-6.9,21.7c-1.1,2.7-4,5.5-6.8,6.6c-9.5,3.9-19.4,4.1-29.5,2.2c-3.9-0.7-7.8-0.9-11.8-0.9
		c-1.3,0-2.8,1.3-3.7,2.4c-2,2.3-3.2,5.6-5.6,7.3c-6.4,4.6-9.7,11.3-13.6,17.7c-2.3,3.9-1.9,7,0.4,9.8c2.7,3.3,6,6.1,9.3,8.8
		c5,4,10.4,7.5,12.5,14.1c1.2,3.5,2.1,7.4,4.2,10.3c16.6,22.7,33.4,45.2,50.4,67.6c6,7.9,11.1,15.7,9.4,26.4
		c-0.7,4.1-0.1,8.3-0.1,12.5c-0.1,4.2-0.7,8.5,4.3,11c1.4,0.7,1.9,3.3,2.7,5c1.1,2.5,1.7,5.2,3.1,7.4c3.5,5.3,7.4,10.4,10.9,15.7
		c4.1,6,8.4,12,11.8,18.4c2,3.9,4.8,4.8,8.6,5.9c3.2,0.9,5.9,3.6,9.1,5.7c2.2-2.7,6.4-5.5,7.1-9c1.3-6,0.3-12.4,0.3-18.8
		c5.9-0.5,12.2-1,18.1-1.5c3.4-5.9,1.5-11.1-1.3-16.4c-0.5-0.9-0.8-2.5-0.3-3.1c5.5-7.7,4.2-17.3,7.7-25.5c2-4.7,1.2-11.6,8.5-12.9
		c4.2-0.7,5.4-4.2,7.2-7.3c3-5.2,5.9-10.6,9.6-15.2c4.2-5.2,15.4-7.5,21.4-4.7c2,0.9,3.8,3.1,4.9,5.1c3.1,5.6,5.6,11.6,8.7,17.2
		c2.3,4.1,5.4,7.7,4.7,13c-0.2,1.5,1.7,3.5,2.9,5c1.1,1.5,3.9,3.2,3.6,4.2c-1.3,4.7,2.2,5.9,4.9,7.8
		C1004.8,826.9,1013.2,832.7,1022.2,838.9z M1341.2,1097c-0.2-1.2-0.1-3.3-0.8-5c-1.7-4.1-1.4-7.7,0.5-11.7
		c4.7-9.8,4.2-10.9-5.8-14.7c-0.3-0.1-0.6-0.3-0.8-0.5c-1-1.2-2-2.4-3-3.5c1.6-0.3,3.2-1,4.8-0.9c2.4,0.3,4.8,1.3,5.8-1.5
		c-9-1.7-17.7-3.5-26.5-5.1c-4.5-0.8-6.6-3-4.8-7.5c-3.4-0.6-6.7-0.4-9.4-1.7c-6.1-3-12-6.5-17.7-10.1c-1.4-0.9-3.4-3.5-3-4.2
		c2.8-5.2-1.1-9-2.1-13.4c-1.7-8.3-1.8-17-2.2-25.5c-0.2-3.4-1.3-5-4.6-5.9c-2.4-0.6-4.6-2.1-6.7-3.5c-2.2-1.5-4.1-3.7-6.4-5
		c-8.7-4.8-17.7-9.2-26.2-14.3c-2.6-1.5-5-4.2-6.4-6.9c-3.3-6-6.1-12.3-8.7-18.6c-1-2.3-0.8-5.1-0.9-7.8c-0.1-2.2,0-3.8-2.9-4.9
		c-2.4-0.9-4.6-3.5-6.1-5.8c-2.8-4.4-7-6.3-11.6-8.3c-4.6,18-9.1,35.3-13.4,52.6c-2,7.8-5.6,10.8-13.4,10.7c-3.8,0-7.8-0.7-8.9,4.6
		c-0.1,0.6-1.5,1.2-2.4,1.3c-7.4,1.1-14.9,2.1-22.3,3c-1,0.1-2.4,0.4-2.9-0.1c-3.4-3.2-5.9-0.4-8.5,1.2c-10.5,6.8-21,13.7-31.6,20.6
		c-0.9,0.6-2,1.2-3,1.3c-15.9,1.4-31.8,2.8-47.7,4c-11.2,0.8-22.4,1.4-33.6,2c-4.6,0.3-9.2,0.6-13.8,1c-16.1,1.3-32.1,2.7-48.2,3.9
		c-3.9,0.3-12.8,7.3-13.6,11.2c-0.2,1-0.4,2.4,0.1,3.1c5.2,7.4,7.6,15.6,8.1,25c1.6-0.3,2.9-1,4-0.8c3.2,0.8,6.7,1.3,9.3,3
		c3.2,2.1,5.5,5.7,8.6,8.2c7.7,6.3,8.5,9.7,3.9,18.4c-0.6,1.2-0.8,3.6,0,4.3c1.1,1,3.1,1.2,4.7,1.4c4.8,0.5,9.8,0,14.3,1.3
		c3.4,1.1,6.1,4.5,9.2,6.7c2.6,1.8,5.6,3.1,8,5.2c4.9,4.2,3.6,10.8,5.5,16.1c0.8,2.1,0.1,5-0.6,7.4c-1.7,5.6-3.7,11.1-5.7,16.6
		c-1.6,4.5,0.4,12,4.3,14.3c8.9,5.2,18.8,5.4,28.1,2.5c8.3-2.5,15.6-1.3,22.2,3.2c4.9,3.3,9.1,7.3,15.3,8.2c1.9,0.3,4,1.7,5.2,3.3
		c3.2,4.3,6.6,8.7,8.6,13.6c1.8,4.5,4.2,6.5,8.8,6.3c3.9-8.8,6.1-12.2,10.4-13.2c4.5-1,6.1-4.2,7.9-7.7c1-2,2.9-3.7,3.5-5.8
		c1.4-4.8,6.5-7.9,5.7-13.9c-0.2-1.7,2.9-4,4.8-5.7c1.3-1.2,3.5-1.7,4.7-3c2.1-2.4,3.8-5.2,5.6-7.9c2.6-4,6.6-7.1,6.8-12.6
		c0.1-1.8,1.8-3.9,3.3-5.2c7.9-6.4,18.1-5.4,27.2-8.1c1.3-0.4,3.8,0.8,4.7,2c4.4,5.8,9.4,10.8,11.3,18.6c1.5,5.9,6.3,11.1,10,16.4
		c1.9,2.7,2.1,6.8,6.9,7.3c3.4,0.4,6.7,2.4,10.1,3.4c1.1,0.3,3,0,3.6-0.8c2.8-3.6,5.2-7.5,7.8-11.2c3.1-4.4,5.9-9.4,12.1-9.8
		c16.5-1.1,32.9-2,49.4-3c11.3-0.7,22.6-1.3,33.9-1.9c-0.6-7.4-7.2-14.3,0.2-21.4C1329,1106.7,1331.7,1098.6,1341.2,1097z
		 M1127.6,977.8c4,0.9,6.8,2.1,9.4,2c5-0.2,10.1-1,15.1-1.9c1.8-0.3,4.5-0.8,5.2-2.1c2.6-4.6,6.4-5.3,11.1-4.9
		c6.1,0.4,9-2.2,10.6-8.6c4.3-17.2,8.7-34.4,13.1-51.6c0.7-2.7,2-4.2,5.4-5.2c8-2.4,16.6-2.9,23.6-8.4c1.8-1.4,4.6-2.1,6.9-2
		c8.8,0.2,17.5,1.8,24.4,7.3c3.7,2.9,6.6,2,10.3,1.5c4.1-0.5,9.4-0.7,12.5,1.4c9.5,6.5,22.6,4.7,28-6.5c3.5-7.4,9.3-13.7,13.9-20.5
		c1.8-2.7,3.5-5.5,4.7-8.4c1.5-3.9,2.6-7.9,3.7-12c0.3-1.1,0.6-2.7,0.1-3.3c-3-3.5-5.8-7.2-11-7.6c-1.1-0.1-2.2-0.5-3.1-1
		c-5.1-2.9-10.1-6.1-15.3-9c-4.6-2.5-10.5-2.8-13.4-8.3c0.7-0.7,1.2-1.7,1.8-1.9c8.9-1.9,11.1-9.3,14.4-16.4
		c1.5-3.2,4.8-6.9,7.9-7.7c12.1-3.2,24.5-5.2,36.7-7.9c1.5-0.3,3.8-1.4,4.1-2.5c2.3-8.9,4.2-17.9,6.3-27.2
		c-5.5,0.9-10.5,1.4-15.3,2.5c-12.2,2.7-24.4,5.6-36.6,8.3c-20.2,4.4-40.5,8.6-60.7,12.8c-3.5,0.7-8.1,3.1-10.3,1.7
		c-4.3-2.7-7.6-0.5-11.2,0.1c-15.6,2.6-31.1,5.5-46.7,8.4c-11.7,2.1-23.7,3.4-35.1,6.7c-11.2,3.3-21.8,8.6-32.5,13.1
		c-1,0.4-2.3,1.6-2.5,2.6c-1.2,6.4-2.2,12.9-3.1,19.3c-1.8,12.1-3.3,24.3-5.2,36.4c-1.8,11.8-3.8,23.5-5.9,35.2
		c-0.4,2.2-1.3,4.7-2.8,6.4c-2.3,2.5-5.2,4.5-8,6.5c-5.7,4.2-11.6,8.2-17.3,12.3c-1.3,0.9-3,1.8-3.7,3.1
		c-4.9,9.3-13.7,13.1-22.5,17.3c-9.2,4.4-19.3,6.8-27.4,13.7c-3.5,3-9.2,3.6-13.9,5.2c-2.4,0.9-5.4,1.1-7.2,2.6
		c-5,4.3-11,2.5-16.6,3.2c-1.4,0.2-3.3-1.3-4.6-2.5c-7.5-7.1-16.4-10.8-26.7-11.4c-1-0.1-2.4-0.6-2.9-1.3
		c-4.1-6.1-8.4-11.6-15.7-14.6c-5.9-2.4-11.1-6.5-17.9-3.1c-0.7,0.3-2-0.1-2.8-0.5c-3.8-2.2-3.8,0.8-3.8,3c0.1,3.2,1.3,6.5,1,9.6
		c-0.2,2-1.8,4.8-3.5,5.5c-4.3,1.7-9.2,2.2-13.6,3.6c-4.1,1.4-8.1,3.3-12,5.2c-1.7,0.9-3.4,3.7-4.6,3.4c-2.4-0.6-5.6-2.3-6.2-4.3
		c-1.3-4.3-3.7-6-8.2-6.1c0,9-0.1,17.9,0.1,26.9c0.1,2.5,0.8,5.1,4.5,5c3.4,0,6.9,0.8,10.3,0.6c4.9-0.3,7.8,1.1,7.2,6.9
		c1,0.1,1.8,0.1,2.6,0.3c7.5,1.8,8.4,2.9,8.4,10.8c0,2.9,0,5.9,0,9.2c12.9,0,25.2,0.2,37.5-0.1c4.3-0.1,6.3,1.7,7.5,5.4
		c2.2,6.6,4.5,13.2,7,19.8c0.5,1.3,1.8,2.2,3.5,4.2c1.4-10.1-2.5-17.2-6.1-24.2c-2.1-4.1-2.9-7.5,0.5-10.9c2.7-2.8,5.5-5.6,8.4-8.2
		c0.5-0.5,1.5-0.8,2.2-0.9c9.4-0.7,18.7-1.4,28.1-2c10.9-0.7,21.7-1.2,32.6-2.1c14.9-1.2,29.8-2.7,44.7-3.9
		c11.2-0.9,22.4-1.1,33.6-2.2c4.2-0.4,8.8-1.4,12.4-3.6C1105.2,992.8,1117,984.8,1127.6,977.8z M937.4,903.7
		c-0.4-0.3-0.7-0.5-1.1-0.8c1.7-1.3,3.1-3,5-3.9c8.9-4.1,14.5-11.8,20.6-18.9c5.9-6.9,12-13.3,21.3-15.9c4.9-1.4,9.4-4,14.2-6
		c2.7-1.1,5.4-2.1,8.1-3.3c1-0.4,2.1-1,2.8-1.8c3.5-3.8,7-7.7,11-12.2c-7.7-5.6-15.3-11.4-23.3-16.8c-4-2.6-7.9-4.8-8.1-10.2
		c0-0.6-0.3-1.5-0.7-1.7c-5.5-2.4-5.6-7.1-5.4-12.1c0-1.1-1-2.3-1.7-3.4c-4.2-7.3-10.3-13.6-11.6-22.4c-0.1-0.9-1.3-2.3-2.1-2.4
		c-5-0.2-10.6-1.5-14.8,0.3c-6.8,2.8-9.9,9.9-12.7,16.5c-1.9,4.5-4.2,8.5-9.3,9.9c-1.2,0.3-3,0.8-3.3,1.7c-2,5.3-3.7,10.7-5.3,16.2
		c-1.1,3.9-1.3,8.1-2.8,11.9c-1.7,4.4-3.6,8.3-0.4,12.9c1,1.4,0.8,4.2,0.3,6.1c-1.4,5.4,1.6,9.4,3.7,13.8c1.5,3.2,3.9,2.1,6.1,2.8
		c1.2,0.4,2.5,1.8,2.9,3c3.1,11.1-0.9,19-11.8,23.8c-8,3.5-9.3,11.5-3,17.7c1.5,1.5,3.2,4.6,2.6,6.2c-1.4,3.9-0.2,6.7,2.6,8.7
		c7.6,5.4,6.5,12.7,4.4,20c-1.7,6-1.6,6.8,4,9.1c-0.1,1.3-0.1,2.5-0.2,3.8c0.6,0.1,1.3,0.1,1.9,0.2c0.7-5.8,1.3-11.7,2.3-17.5
		c0.3-2.1,2.1-3.9,2.2-6c0.6-6.6,0.8-13.2,1.1-19.8C937.2,910.2,937.3,906.9,937.4,903.7z M898.3,858.2c2.8,13.2-2.8,26.6-13.5,31.8
		c-0.4-2.3-0.8-4.5-1.2-6.9c-3.9-1.8-8-3.6-12.1-5.4c-0.5,3-1.2,5.4-1.2,7.8c-0.3,9.5-2,19.3,4.5,27.7c3.1,4,6.7,7.8,9.2,12.1
		c3.9,6.7,7.2,13.8,10.7,20.5c9.6-0.3,18.9-1.3,26.2,4.1c0.7-3,1.5-5.9,2.2-8.9c1.1-4.5,2.3-8.7-1.8-12.9c-3.7-3.8-8.3-7.8-5.4-14.5
		c0.3-0.6-1-2.4-1.9-3.1c-6.5-5.3-7-12.1-0.9-17.9c2.6-2.4,6.1-3.8,8.8-6.1c2.4-2.2,5.1-4.8,6-7.7c1-3.6,0.2-7.8,0.2-12
		c-5,1-7.4-0.9-9-4.9c-1.4-3.6-4-5.8-8.3-5C906.7,857.6,902.7,857.8,898.3,858.2z"/>
	<path id="_x32_200" class="st0" d="M1372.2,686.9c11.5,8.6,24,17.9,36.9,27.6c2.3-5.6,5.7-10.5,2.8-16.5
		c-4.3-8.7-0.7-15.8,3.6-23.3c4.4-7.7,7.7-16,11.1-24.3c0.6-1.5-0.8-4-1.5-5.9c-3.4-8.5-3.7-16.8-0.2-25.4c4.4-11,6.3-22,2.4-34.1
		c-2.8-8.7-5.3-17.3-10.2-25.1c-1.5-2.3-1.9-5.6-2-8.4c-0.3-6.5-5.3-13.2-11.6-15.7c-3.1-1.2-6-3.2-9-4.9c-0.4-0.2-0.9-0.6-1.1-1
		c-4.5-8.7-10-17-13.2-26.2c-2.9-8.5-6.3-17.4-4.4-27.1c1-5.2,3.9-8.9,7.4-12.3c4.5-4.4,8.6-8.7,6.1-15.8c-0.2-0.5,2.5-2.9,3.6-2.8
		c8.9,1.2,17.7,2.7,26.5,4.4c1.5,0.3,3.2,1.8,4.1,3.2c2.9,4.7,6.9,8,12.1,9.4c3.5,1,4.4,2.9,4.3,6.1c-0.1,2.2-0.1,4.3,0,6.5
		c0.2,3.9,4.6,7.3,7.6,5.2c6.8-4.8,15-8.6,17.1-17.9c0.6-2.9,0.2-6,0.4-9c0.3-6.6-0.4-13.5,1.3-19.7c1.5-5.8,5.4-11,8.6-16.2
		c1.7-2.8,4.1-5.1,6.3-7.7c3.2,1.9,5.7,6.5,9.5,1.7c0.8-1.1,0.9-2.7,1.3-4c1.4-4.8,2.6-9.7,4.4-14.4c1.2-3,3.7-4.3,7.4-4.5
		c7.2-0.5,14.2-2.7,21.4-2.7c8.1-0.1,16.2,0.9,24.2,2.1c9.7,1.5,19.2,3.8,29.1,1.2c2.7-0.7,6-0.3,8.6,0.7c4.3,1.6,8.7,2.4,12.7,0.4
		c5.9-3,11.8-1.2,17.3,0.3c6,1.6,11.2,0.8,16.7-1.1c2.5-0.9,4.9-1.9,7.4-2.6c4.6-1.2,7.9-3.4,10.2-8c1.5-3,5.4-5,8.5-7
		c10.1-6.7,17.6-15.8,24.1-25.8c3.2-4.9,5.1-10.8,8.9-15.2c3.9-4.6,8.8-8.8,14.1-11.8c3.2-1.8,7.8-1,11.8-1.3c4.6-0.3,7-3.1,9.5-6.8
		c2.1-3.2,5.3-6.4,8.8-8c5.5-2.5,8.8-6.5,12.3-11.2c3.3-4.5,8.1-7.9,12.2-11.8c10-10,20-20,30-30c1.4-1.4,3.4-3.1,5.2-3.1
		c4.4-0.1,7.8-2.5,9.1-5.9c1.6-4.2,4.8-5.9,7.9-8.1c6.7-4.7,13.9-8.7,20.2-13.8c4.4-3.6,7.7-8.5,12-13.5c0.6,2.6,1,4.8,1.7,6.9
		c2.3,6.1,4.4,12.2,7.1,18.1c7.7,17,15.5,33.8,23.4,50.7c0.8,1.7,2.5,3.6,4.2,4.2c11.1,3.7,22.3,7.1,33.5,10.5
		c9.5,2.9,19.2,5.2,28.4,8.8c12.7,4.9,25.1,10.7,37.6,16.1c1.3,0.6,2.8,0.8,4.2,0.8c7.3,0,14.6-0.4,21.9-0.2c1.8,0,3.5,1.6,5.4,1.9
		c11.1,1.8,18.7,8.9,25.7,16.8c3.4,3.8,6.7,6.3,12.8,4.8c5.6-1.4,11.8-0.3,18.9-0.3c1.9,5.2,4.2,11.4,6.3,17.6
		c1.3,3.8,6.3,6,10.8,3.9c3.6-1.7,6.6-4.5,9.9-6.7c3.1-2.1,6.4-3.8,9.5-5.9c1.9-1.3,3.6-3,6.1-5.3c30.2,4.5,61.5,9.1,92.9,13.8
		c0.9,6.5,2.2,13.2,2.6,20c0.9,16.3,1.2,32.7,2.2,49c0.5,9.5,2.1,18.9,2.7,28.4c0.2,2.8-0.5,6.1-2,8.4c-3.7,5.4-1.6,12.6,6.8,13.7
		c5.2,0.7,10.4,1.1,15.6,2.1c2,0.4,4.1,1.7,5.5,3.1c2.9,3.1,6.5,6.2,7.7,10c1.3,4.2,0.4,9.1,0.1,13.7c-1.3,17.1-8.6,33.5-6.4,51.1
		c0.1,1-0.3,2.1,0.1,3c2.6,6-0.8,8.2-5.5,10.9c-10.3,5.9-20.1,12.6-30.1,19c-2.5,1.6-4.6,3.8-7.2,5c-2.4,1.1-5.4,2.1-7.8,1.5
		c-13.5-3.1-26.4-2.7-38.6,4.5c-6.5,3.8-13,7.5-19.1,11.9c-2.9,2.1-4.3,6.2-6.9,8.9c-2.9,3-6.3,5.8-9.8,8.2
		c-5.2,3.6-10.3,6.8-12.6,13.6c-2,5.9-4.9,11.8-8.6,16.8c-4.3,5.9-4,11.8-1.8,17.9c2.8,7.8,5.1,15.4,2,23.7
		c-0.9,2.3,0.4,5.5,0.8,8.2c0.6,4,1,8.1,2.1,12c2.2,7.3,4.3,14.6,7.5,21.4c1.1,2.2,5.3,4,8.2,4.2c8.1,0.6,16.3,0.2,25.1,0.2
		c0.4,7,1,13.9,1,20.7c0,1.4-1.9,3.2-3.4,4.1c-7.4,4.4-15.1,8.4-22.6,12.8c-5.3,3.2-6.7,7.7-3.5,12.9c2.6,4.3,3.3,7.3,0.2,12
		c-2.2,3.5-1.8,8.7-2.2,13.2c-0.3,3.5-0.1,7.1-0.4,10.6c-0.2,2.3-1.1,4.5-0.9,6.8c0.3,5.1-1.7,9-5.7,11.9c-4.5,3.3-6.3,8.1-6.2,13.1
		c0.1,7.7-4.3,12.5-10.1,15c-9.3,4-11.6,11-12.2,19.9c-0.4,5.4-1.6,10.6-2.4,16c-0.3,1.8-1,4.1-0.3,5.3c6.1,9.6,3,19.4,1.5,29.5
		c-1.5,10.1-4.9,20.2-2.1,30.7c0.3,1.2-0.3,3-1,4.1c-7.4,10.8-6.1,21.7-1.5,33.1c2.5,6.1,4.7,12.4,3,19.4c-0.8,3.2,0.6,6.8,0.9,10.2
		c0.4,5.4,0.6,10.9,0.9,16.3c0.1,3.2-0.2,6.4,0.1,9.6c0.5,4.9,1.5,9.7,1.9,14.6c0.7,8.1,3.8,15,10.2,21.1
		c-10.7,0.8-20.5,1.4-30.3,2.2c-15.7,1.3-31.5,2.6-47.2,3.9c-4.6,0.4-9.2,0.8-13.8,1c-1,0-2.1-0.8-3-1.4c-5.5-3.5-11.2-3.3-17-0.9
		c-1.3,0.5-3.2,1.5-3.5,2.6c-2.8,11.2-13.6,16-19.9,24.4c-2.9,3.9-3.9,7.2-0.9,10.5c4.1,4.6,8.7,8.9,13.6,12.6
		c6.1,4.5,8.6,9.7,8.4,17.5c-0.2,8.7,0.6,17.5,6.6,25.2c4.7,6.1,7.9,13.5,11.5,20.5c9.9,19,19.7,38.1,29.4,57.1
		c0.4,0.7,0.5,1.5,0.9,2.9c-5.7,0.5-11,1.1-16.9,1.6c-0.3-7.2-4.4-11.2-9.9-14.7c-3.4-2.1-5.8-5.7-8.7-8.5c-4.2-4-9-3.7-14.2-2.5
		c-4.6,1.1-9.5,1-14,2.4c-4.5,1.4-9.1,3.3-13,6.1c-4.1,3-7.6,7-11,10.8c-5.1,5.5-11,6.4-18.3,5.4c-4.6-0.6-9.6,1.4-14.3,2.2
		c-0.6,0.1-1.2,0.7-1.8,0.8c-2.7,0.6-5.7,1.9-8.1,1.3c-1.8-0.5-2.8-3.7-4.4-5.5c-7.9-8.6-13-19.6-23-26.5c-3.5-2.4-5.7-6.7-8.3-10.2
		c-2.7-3.7-5-7.6-7.6-11.3c-5.6-8-11.2-16.1-17-23.9c-1.8-2.4-4.4-4.8-7.1-6c-9.3-4.2-11.7-13.9-17.6-20.8c-1.6-1.9-4.1-3.4-6.5-4.2
		c-2.1-0.7-4.6-0.3-7-0.5c-1.9-0.2-4.4-1.4-5.7-0.6c-5.6,3.3-10.7,1.6-16.1-0.1c-6.9-2.3-13.8-4.5-20.8-6.5c-2.8-0.8-5.8-0.7-8.8-1
		c-7-0.8-14.5-3.6-20.8-2c-8.2,2.1-16.7,3.8-23.8,10.7c-6.4,6.2-10.9,13.6-16.7,20c-4.3,4.8-9.1,5.8-14.4,6.7
		c-10.3,1.8-20.6,3.4-31,4.8c-6.5,0.9-13,1.6-19.6,2.2c-11.6,1.2-23.2,2.3-35.2,3.4c-1.6-7.8-7.1-10.1-14.6-9.5
		c-2.8,0.3-5.7-0.1-8.5,0.1c-5.4,0.3-10.1-0.4-14.4-4.8c-2.6-2.6-7.6-2.9-11.9-4.4c2.2-6.7-3.3-11.1-7.1-16.1
		c-4.2-5.6-8.6-11-12.6-16.8c-1.1-1.6-0.2-4.8-1.5-5.9c-3.2-3-6.9-5.8-10.8-7.8c-4-2-8.4-3.1-12.8-4.2c-3.2-0.8-6.5-0.8-9.7-1.3
		c-2.5-0.4-5-0.7-7.2-1.7c-2.1-1-3.6-3.1-5.6-4.3c-6-3.6-11.9-7.5-18.3-10.2c-6.7-2.8-13.9-4.3-20.8-6.4c-3.8-1.2-7.5-3.1-11.4-3.6
		c-4.6-0.7-9.3-0.2-14-0.4c-2.3-0.1-4.8-0.1-6.7-1.1c-7.2-3.7-14.1-7.9-21.3-11.6c-4.2-2.1-8.6-3.8-13-5.4c-5.4-2-9.5-11.3-11.1-16
		c-2.8-8.1-0.3-14.5,2.3-21.7c0.9-2.6-2.2-6.7-3.9-11.1c-0.3,0.5,0.4-0.2,0.7-1.1c0.6-1.4,1.7-3.4,1.1-4.3c-0.7-1.3-2.7-2.3-4.3-2.5
		c-6.9-1.2-13.9-1.9-20.8-3.2c-6.8-1.3-6.8-1.5-4.6-8.6c-1.1-0.2-2.2-0.7-3.1-0.5c-11.2,1.9-18.8-5.3-27-10.7
		c-1-0.6-1.2-3.6-0.7-5.1c1.1-2.9,1.2-5.2-1.1-7.6c-1.2-1.2-1.8-3.4-2-5.2c-0.8-8.7-1.3-17.4-2.2-26.1c-0.1-1.1-1.4-2.5-2.5-3.1
		c-5.1-2.5-9.7-5.9-14.6-8.9c-9.5-5.8-19.4-10.7-29.1-16.2c-1.6-0.9-3-2.7-3.9-4.5c-2.7-5.2-5.2-10.6-7.7-15.9
		c-1.6-3.5-3.7-6.6-2.3-11c1.1-3.3-1.4-5.4-4.5-6.6c-1.5-0.6-3.1-1.3-4.1-2.5c-3.3-3.7-6.5-7.6-9.6-11.4c6.8-2.6,15-4.7,22.9-8.4
		c9.4-4.4,19.2-0.3,27.3,5.8c3.4,2.5,6.2,3.9,10.5,1.9c5-2.3,9.6-1.5,14.7,1.7c8.7,5.4,19.7,5.3,27.6-5.4c6.6-9.1,12.8-18.5,19-27.9
		c1.1-1.7,1.7-3.8,2.3-5.8c1.1-3.5,1.7-7.3,3.3-10.5c1.7-3.2,1.7-5.6-1-7.7c-3.4-2.6-6.9-5.1-10.5-7.4c-2.2-1.4-4.6-2.3-7-3.5
		c-7.3-3.8-14.6-7.7-22.3-11.7c7.7-2.6,11.5-8.7,13.4-16.2c2.1-8.5,9.8-8.4,15.9-9.7c7.4-1.6,15-2.1,22.6-2.4
		c9.8-0.4,14-5.6,15.3-15c1-7.5,3.6-14.9,4.9-22.4c0.2-1.2-2.6-4.4-3.7-4.2c-14.4,2.5-28.8,5.4-43.1,8.4
		c-20.4,4.3-40.8,8.9-61.2,13.2c-16,3.4-32,6.7-48,9.8c-15.7,3-31.5,5.7-47.2,8.3c-13.5,2.3-26.9,5-39.2,11.4
		c-2.7,1.4-5.6,3-8.5,3.6c-7.6,1.5-8.8,6.9-9.7,13.4c-2.7,19.3-5.9,38.4-8.8,57.7c-1.4,9-2.6,18.1-4.1,27.1
		c-0.4,2.2-0.8,4.2-3.7,5.5c-3,1.3-5.5,4.1-7.8,6.7c-4.5,5-9.9,8.5-16,11.1c-1.4,0.6-2.9,2-3.5,3.4c-4.8,10-14.7,12.7-23.5,17.3
		c-8.3,4.3-17.8,6-25.2,12.7c-3.3,3-8.9,3.5-13.4,5.1c-2,0.7-4,1.2-6,1.8c-4.4,1.4-8.8,3.3-13.3,4.1c-6.2,1.1-9.7-4.1-13.9-7.2
		c-4-2.9-7.1-6.2-12.9-4.9c-3.9,0.9-10.8-5-12-8.8c-0.2-0.6-0.6-1.3-0.4-1.9c1.5-6.7,3.1-13.5,4.5-20.2c0.7-3.7,1.3-7.5,1.4-11.2
		c0.3-7.2,0-14.4,0.3-21.6c0-1,1.8-2.2,3-2.7c8.7-3.8,14-11.5,20-18.2c6.7-7.5,12.8-15.3,23.9-16.4c2.6-0.2,5.1-2,7.6-3.2
		c4.1-1.9,8.2-3.7,12.2-5.7c0.7-0.3,1.5-0.8,2-1.4c5.6-8.4,16-12.8,19.6-23.1c0.7-2,3.9-3.5,6.3-4.6c6.1-2.8,11.8-5.8,16.3-11.1
		c2.6-3.1,6.4-5.2,9.6-7.8c0.7-0.6,1.5-1.6,1.5-2.5c0-6.4,4.4-7.2,9.3-8.5c3.1-0.8,5.6-3.6,8.5-5.5c1.7-1.1,3.4-2.2,5.3-3
		c8.6-4.1,11.3-12.5,14.9-20.3c1.6-3.4,1.1-8.6,6.1-9.5c3.5-0.6,7.2-0.1,10.8,0c4,0.1,7.9,0.3,11.9,0.5c7.5,0.3,14.9,0.6,22.4,1.1
		c1.2,0.1,2.6,0.6,3.6,1.4c7.2,5.6,15.8,6.5,24.5,7.6c3.5,0.4,7.2,2.3,10.5,1.8c9.9-1.4,19.8-3.8,29.7-5.6c2.8-0.5,5.8-0.2,8.5-1
		c6.7-2,13.5-4.2,20-6.7c5.7-2.2,11.6-4.5,16.6-7.8c5.6-3.8,10.4-8.8,15.5-13.3c0.8-0.7,1.5-1.5,2.4-1.8
		c11.4-4.2,20.4-12.7,31.7-17.3c7.5-3,14.6-7.4,21.8-11.2c0.1-0.1,0.3-0.1,0.5-0.1c8.5,0.1,13-6.6,19.1-10.8c2.1-1.4,4.8-1.9,7-3.2
		C1365.5,692.1,1368.2,689.9,1372.2,686.9z"/>
	<path id="_x32_201" class="st0" d="M1022.2,838.9c-9-6.3-17.3-12.1-25.6-17.9c-2.6-1.9-6.2-3.1-4.9-7.8c0.3-1-2.5-2.7-3.6-4.2
		c-1.2-1.6-3.1-3.5-2.9-5c0.7-5.4-2.5-8.9-4.7-13c-3.1-5.6-5.6-11.6-8.7-17.2c-1.1-2-2.9-4.2-4.9-5.1c-6-2.8-17.3-0.5-21.4,4.7
		c-3.7,4.6-6.5,10-9.6,15.2c-1.8,3.1-3,6.6-7.2,7.3c-7.3,1.3-6.5,8.2-8.5,12.9c-3.4,8.2-2.1,17.9-7.7,25.5c-0.5,0.7-0.2,2.3,0.3,3.1
		c2.7,5.2,4.7,10.5,1.3,16.4c-5.9,0.5-12.3,1-18.1,1.5c0,6.5,0.9,12.9-0.3,18.8c-0.7,3.5-4.9,6.4-7.1,9c-3.2-2.1-5.9-4.8-9.1-5.7
		c-3.7-1.1-6.5-2-8.6-5.9c-3.4-6.4-7.7-12.4-11.8-18.4c-3.6-5.3-7.5-10.3-10.9-15.7c-1.4-2.2-2-5-3.1-7.4c-0.8-1.8-1.3-4.3-2.7-5
		c-4.9-2.5-4.3-6.8-4.3-11c0.1-4.2-0.5-8.4,0.1-12.5c1.7-10.7-3.4-18.5-9.4-26.4c-17-22.4-33.8-45-50.4-67.6
		c-2.1-2.9-3-6.7-4.2-10.3c-2.2-6.6-7.5-10.1-12.5-14.1c-3.3-2.7-6.6-5.5-9.3-8.8c-2.3-2.8-2.8-5.9-0.4-9.8
		c3.9-6.5,7.1-13.1,13.6-17.7c2.4-1.7,3.6-4.9,5.6-7.3c0.9-1.1,2.4-2.4,3.7-2.4c3.9,0,7.9,0.2,11.8,0.9c10.1,1.9,20,1.7,29.5-2.2
		c2.7-1.1,5.6-3.9,6.8-6.6c2.9-7,6.3-14.3,6.9-21.7c0.7-10.3-0.8-20.7-2-31c-0.2-2.3-3-4.2-4-6.6c-0.6-1.4-0.8-3.6-0.1-4.9
		c4-7,5.2-14.6,6.5-22.8c7.4,0,8.5-7.1,10.8-12.6c1.4-3.3,1.1-7.2,5.8-8c0.5-0.1,1.2-0.9,1.3-1.4c0.3-5.4,4.8-8.5,7-12.7
		c1.6-3.1,1.3-7.2,1.9-10.9c2-0.7,5.1-2,8.2-3c0.9-0.3,2.3-0.3,3.1,0.2c7,4,13.9,1.7,20.5-0.8c4-1.6,4.5-6.1,1.4-9.2
		c-4.1-4.3-8.1-8.6-6.1-15.3c0-0.2,0.1-0.4,0-0.5c-4.2-6.4-2.6-10.4,3.7-14.9c3.6-2.6,7.4-8.1,4.7-13.9c-1.1-2.4-3.3-4.8-5.7-6
		c-5.2-2.7-10.8-4.6-16.1-6.9c-1.3-0.6-2.4-1.7-3.6-2.6c0.9-1,1.7-2.4,2.9-2.9c4.8-2,7.5-5.6,9.1-10.3c0.7-2,13.6-5.9,15.1-4.6
		c0.8,0.7,1.4,1.8,2,2.7c0.5,0.8,0.9,1.8,1.5,2.6c3.1,4,16.1,7.1,20.8,5.1c3-1.3,6.1-2.3,9.1-3.4c7.2-2.6,8-9.2,9.4-15.3
		c0.6-2.6,1-5.3,1.6-8c2.9,0.6,5.3,1.7,7.6,1.5c9.2-0.9,17,2.7,24.8,6.6c8,3.9,16.3,4.6,24.9,2.4c1.4-0.4,2.9-1.6,3.6-2.8
		c3.6-7.1,9.1-11.5,16.9-13.2c1.6-0.4,2.9-2.4,4.5-2.8c2.2-0.6,4.7-0.7,7-0.7c1.6,0,3.2,0.5,4.8,0.7c0.9,0.1,2.2-0.6,2.7-0.2
		c4.8,4.1,9,1.2,13.6-0.7c13.7-5.5,27.6-10.8,41.4-16.2c2-0.8,4-1.6,6-1.9c6-0.9,10.8-3.3,14.8-8.3c3.6-4.5,8.9-7.7,13.6-11.6
		c3.3,6.7,5.7,7.3,12.7,6.3c4.5-0.6,7-2.7,9.9-5.9c3-3.3,7.4-5.7,11.7-7.5c5.3-2.2,6.1-6.8,8-11.1c0.8-1.7,1.4-3.7,2.6-5
		c4.7-5,9.4-9.9,14.5-14.5c2.8-2.5,6.1-4.3,9.4-6.2c0.7-0.4,2.1,0.5,3.1,0.8c2.9,0.9,6,1.5,8.7,2.9c2.2,1.2,5.2,3.1,5.5,5.1
		c1.5,8.5,1.2,8.5,9.8,8.8c0.6,0,1.3,0.1,0.6,0.1c2.1,4.2,3.4,7.8,5.6,10.8c1,1.3,4.3,2.4,5.7,1.7c5.6-2.8,8.3,1.1,10.9,4.4
		c5.3,6.6,10,13.7,15.5,20.3c2.9,3.5,5.6,7.9,12,6.2c1.7-0.5,4.4,2.9,6.7,4.4c4.5,2.9,8.2,6.5,9.1,12.2c1.3,8.4,7.1,14.5,11.3,21.4
		c2.7,4.4,5.9,8.7,7.8,13.4c1.3,3.3,2.9,4.2,6.1,4.3c3.7,0.1,5.9-1.2,7.2-4.6c1.2-3.2,2.6-6.2,3.8-9.1c1.7,1.4,3,2.5,4.3,3.7
		c3.2,2.8,7.5,4.7,7.5,10c0,1.3,0.9,3.4,1.8,3.7c8.1,2.6,12.1,12,21.4,12.7c1.5,0.1,2.9,1.3,4.3,2.1c5.5,3.3,11,4.5,17.2,1.5
		c2-1,5.9-0.7,7.4,0.6c2.5,2.1,3,5.6,0.9,8.9c-0.9,1.4-1.9,3.6-1.4,4.8c1.8,4.7,0,7.9-3.3,11c-5.1,4.7-10,9.6-10.3,17.2
		c-0.1,3-0.3,6.1,0.2,9.1c1.6,9.5,3.6,18.9,8,27.5c1.3,2.4,2.4,5,4.1,7.2c2.1,2.8,4.2,5.3,5.6,8.8c1.4,3.4,6.3,5.9,10.2,7.6
		c7.3,3.2,10.4,7.4,11.2,15c0.4,3.9,1.8,8,3.9,11.4c3.6,6,7,11.8,7,19c0,0.8,0.5,1.5,0.8,2.3c4.9,10.3,3.1,20.6-1.1,30.2
		c-4.6,10.7-4.2,20.6-0.1,31.2c1.1,2.7,0.2,6.7-1.1,9.5c-3.7,8-7.9,15.7-12.1,23.4c-3.1,5.8-3.6,11.3-1,17.6
		c1.3,3.2,0.6,7.2,0.9,11.8c-10.5-7.4-20-14.3-29.7-20.9c-2.5-1.7-5.4-2.9-8.3-4.1c-0.8-0.3-2.7,0.1-3,0.8c-3,6-9.9,5.8-14.4,9.3
		c-1.4,1.1-3.1,2-4.3,3.3c-4.3,5-9.4,7.7-16.2,6.5c-1.1-0.2-2.4,0.7-3.6,1.3c-9.8,4.9-20.5,8.6-29.2,15c-8.1,5.9-17.5,9.1-25.6,14.8
		c-0.7,0.5-1.9,0.9-1.9,1.4c-0.8,10.2-10,12.2-16.5,16.2c-6.2,3.8-13.6,5.6-20.6,8.2c-0.9,0.3-1.9,0.5-2.7,0.9
		c-2.9,1.1-5.5,3.5-9,1.1c-0.9-0.6-2.7-0.1-4,0.2c-6.8,1.5-13.7,2.7-20.3,4.9c-12.3,4-23.6-1.2-35.2-3.1c-1.1-0.2-2.4-0.4-3.2-1.1
		c-8-7.1-18.4-5.4-27.7-6.4c-6.8-0.7-13.8,0.5-20.8-1.2c-3.5-0.8-7.7,1-11.5,2c-0.8,0.2-1.3,1.7-1.7,2.6c-3.1,7.1-4.6,15.7-9.5,21.1
		c-5.8,6.4-14.1,11.3-22.3,14.5c-4.9,2-8,2.8-8.5,8.6c-0.2,2.4-2.5,5.1-4.6,6.7c-4.9,4-10,8-15.6,10.9
		C1032,826.7,1024.2,829.9,1022.2,838.9z"/>
	<path id="_x32_205" class="st0" d="M1341.2,1097c-9.5,1.6-12.2,9.7-17.5,14.7c-7.4,7-0.9,13.9-0.2,21.4
		c-11.2,0.6-22.6,1.3-33.9,1.9c-16.5,1-32.9,2-49.4,3c-6.3,0.4-9,5.3-12.1,9.8c-2.6,3.7-5,7.6-7.8,11.2c-0.6,0.8-2.5,1.1-3.6,0.8
		c-3.4-1-6.6-3-10.1-3.4c-4.8-0.5-5-4.7-6.9-7.3c-3.7-5.2-8.5-10.5-10-16.4c-1.9-7.8-6.9-12.8-11.3-18.6c-0.9-1.2-3.4-2.4-4.7-2
		c-9.1,2.7-19.3,1.7-27.2,8.1c-1.6,1.2-3.3,3.4-3.3,5.2c-0.2,5.5-4.1,8.7-6.8,12.6c-1.8,2.7-3.5,5.5-5.6,7.9c-1.2,1.3-3.3,1.8-4.7,3
		c-1.9,1.7-5,4.1-4.8,5.7c0.9,6-4.3,9.1-5.7,13.9c-0.6,2.1-2.5,3.8-3.5,5.8c-1.7,3.6-3.4,6.7-7.9,7.7c-4.3,1-6.4,4.4-10.4,13.2
		c-4.6,0.2-7-1.8-8.8-6.3c-2-4.9-5.4-9.3-8.6-13.6c-1.2-1.6-3.3-3-5.2-3.3c-6.2-0.9-10.4-4.9-15.3-8.2c-6.7-4.5-13.9-5.7-22.2-3.2
		c-9.4,2.8-19.2,2.6-28.1-2.5c-3.9-2.3-5.9-9.7-4.3-14.3c2-5.5,4-11,5.7-16.6c0.7-2.4,1.4-5.3,0.6-7.4c-1.9-5.4-0.7-11.9-5.5-16.1
		c-2.4-2-5.4-3.3-8-5.2c-3.1-2.2-5.8-5.6-9.2-6.7c-4.5-1.4-9.5-0.9-14.3-1.3c-1.6-0.2-3.7-0.4-4.7-1.4c-0.7-0.7-0.6-3.1,0-4.3
		c4.6-8.7,3.8-12.1-3.9-18.4c-3.1-2.5-5.4-6-8.6-8.2c-2.6-1.7-6.1-2.3-9.3-3c-1.1-0.3-2.4,0.4-4,0.8c-0.5-9.3-3-17.6-8.1-25
		c-0.5-0.7-0.3-2.1-0.1-3.1c0.8-3.9,9.7-10.9,13.6-11.2c16.1-1.2,32.1-2.6,48.2-3.9c4.6-0.4,9.2-0.7,13.8-1
		c11.2-0.7,22.4-1.2,33.6-2c15.9-1.2,31.8-2.6,47.7-4c1-0.1,2.1-0.7,3-1.3c10.5-6.8,21-13.7,31.6-20.6c2.6-1.7,5.1-4.4,8.5-1.2
		c0.6,0.5,2,0.3,2.9,0.1c7.4-1,14.9-2,22.3-3c0.9-0.1,2.3-0.7,2.4-1.3c1.1-5.3,5.1-4.7,8.9-4.6c7.9,0.1,11.5-2.9,13.4-10.7
		c4.4-17.3,8.9-34.7,13.4-52.6c4.6,2.1,8.8,3.9,11.6,8.3c1.5,2.3,3.6,4.9,6.1,5.8c2.9,1.1,2.8,2.7,2.9,4.9c0.1,2.6,0,5.4,0.9,7.8
		c2.6,6.3,5.4,12.6,8.7,18.6c1.5,2.7,3.8,5.3,6.4,6.9c8.6,5,17.5,9.4,26.2,14.3c2.3,1.3,4.2,3.5,6.4,5c2.1,1.4,4.3,2.9,6.7,3.5
		c3.3,0.9,4.5,2.5,4.6,5.9c0.4,8.5,0.5,17.2,2.2,25.5c0.9,4.5,4.8,8.2,2.1,13.4c-0.4,0.7,1.6,3.3,3,4.2c5.8,3.6,11.6,7.2,17.7,10.1
		c2.7,1.3,6.1,1.1,9.4,1.7c-1.9,4.4,0.2,6.6,4.8,7.5c8.8,1.6,17.5,3.4,26.5,5.1c-1,2.9-3.4,1.8-5.8,1.5c-1.5-0.2-3.2,0.5-4.8,0.9
		c1,1.2,2,2.4,3,3.5c0.2,0.2,0.5,0.4,0.8,0.5c10,3.9,10.5,4.9,5.8,14.7c-1.9,4-2.2,7.6-0.5,11.7
		C1341.1,1093.7,1341,1095.7,1341.2,1097z"/>
	<path id="_x32_203" class="st0" d="M1127.6,977.8c-10.6,6.9-22.5,15-34.7,22.5c-3.6,2.2-8.2,3.2-12.4,3.6
		c-11.2,1-22.4,1.3-33.6,2.2c-14.9,1.2-29.8,2.7-44.7,3.9c-10.9,0.9-21.7,1.3-32.6,2.1c-9.4,0.6-18.7,1.3-28.1,2
		c-0.8,0.1-1.7,0.4-2.2,0.9c-2.8,2.7-5.6,5.4-8.4,8.2c-3.4,3.5-2.6,6.9-0.5,10.9c3.6,7,7.5,14.1,6.1,24.2c-1.7-2-3-3-3.5-4.2
		c-2.5-6.5-4.8-13.1-7-19.8c-1.2-3.8-3.2-5.5-7.5-5.4c-12.3,0.3-24.6,0.1-37.5,0.1c0-3.3,0-6.2,0-9.2c0-7.8-0.9-8.9-8.4-10.8
		c-0.8-0.2-1.6-0.2-2.6-0.3c0.7-5.8-2.3-7.1-7.2-6.9c-3.4,0.2-6.9-0.6-10.3-0.6c-3.6,0-4.4-2.5-4.5-5c-0.2-9-0.1-17.9-0.1-26.9
		c4.5,0.1,6.9,1.8,8.2,6.1c0.6,2,3.9,3.7,6.2,4.3c1.1,0.3,2.8-2.5,4.6-3.4c3.9-2,7.9-3.9,12-5.2c4.5-1.5,9.3-1.9,13.6-3.6
		c1.7-0.7,3.4-3.5,3.5-5.5c0.3-3.2-0.9-6.4-1-9.6c-0.1-2.2,0-5.1,3.8-3c0.8,0.5,2.1,0.9,2.8,0.5c6.8-3.4,12,0.7,17.9,3.1
		c7.3,3,11.6,8.5,15.7,14.6c0.5,0.8,1.9,1.3,2.9,1.3c10.3,0.6,19.2,4.3,26.7,11.4c1.2,1.2,3.2,2.6,4.6,2.5
		c5.5-0.7,11.6,1.1,16.6-3.2c1.8-1.6,4.8-1.8,7.2-2.6c4.7-1.6,10.4-2.2,13.9-5.2c8.1-6.9,18.2-9.3,27.4-13.7
		c8.8-4.2,17.6-8,22.5-17.3c0.7-1.3,2.4-2.2,3.7-3.1c5.8-4.1,11.6-8.2,17.3-12.3c2.8-2,5.7-4,8-6.5c1.5-1.6,2.4-4.1,2.8-6.4
		c2.1-11.7,4.1-23.5,5.9-35.2c1.9-12.1,3.4-24.3,5.2-36.4c0.9-6.5,1.9-12.9,3.1-19.3c0.2-1,1.4-2.2,2.5-2.6
		c10.8-4.5,21.4-9.9,32.5-13.1c11.4-3.3,23.3-4.6,35.1-6.7c15.6-2.8,31.1-5.7,46.7-8.4c3.6-0.6,6.9-2.8,11.2-0.1
		c2.2,1.4,6.8-1,10.3-1.7c20.2-4.3,40.5-8.5,60.7-12.8c12.2-2.6,24.4-5.6,36.6-8.3c4.9-1.1,9.9-1.6,15.3-2.5
		c-2.1,9.3-4,18.3-6.3,27.2c-0.3,1.1-2.6,2.2-4.1,2.5c-12.2,2.6-24.6,4.7-36.7,7.9c-3.2,0.8-6.4,4.5-7.9,7.7
		c-3.3,7-5.5,14.5-14.4,16.4c-0.7,0.1-1.1,1.1-1.8,1.9c2.9,5.5,8.9,5.7,13.4,8.3c5.1,2.9,10.1,6,15.3,9c0.9,0.5,2.1,0.9,3.1,1
		c5.2,0.4,8,4.1,11,7.6c0.5,0.6,0.2,2.2-0.1,3.3c-1.1,4-2.2,8.1-3.7,12c-1.2,3-2.9,5.8-4.7,8.4c-4.6,6.9-10.4,13.2-13.9,20.5
		c-5.4,11.2-18.5,13.1-28,6.5c-3.1-2.1-8.4-1.9-12.5-1.4c-3.8,0.5-6.6,1.4-10.3-1.5c-7-5.5-15.7-7.1-24.4-7.3c-2.3,0-5.1,0.7-6.9,2
		c-7,5.5-15.6,6-23.6,8.4c-3.3,1-4.7,2.5-5.4,5.2c-4.4,17.2-8.8,34.4-13.1,51.6c-1.6,6.3-4.4,9-10.6,8.6c-4.8-0.4-8.5,0.3-11.1,4.9
		c-0.7,1.3-3.4,1.8-5.2,2.1c-5,0.8-10,1.7-15.1,1.9C1134.4,979.9,1131.7,978.7,1127.6,977.8z"/>
	<path id="_x32_199" class="st0" d="M937.4,903.7c-0.1,3.2-0.3,6.5-0.4,9.7c-0.3,6.6-0.5,13.2-1.1,19.8c-0.2,2-1.9,3.9-2.2,6
		c-0.9,5.8-1.5,11.6-2.3,17.5c-0.6-0.1-1.3-0.1-1.9-0.2c0.1-1.2,0.1-2.5,0.2-3.8c-5.6-2.3-5.7-3-4-9.1c2.1-7.3,3.3-14.5-4.4-20
		c-2.8-2-4-4.7-2.6-8.7c0.6-1.6-1.1-4.7-2.6-6.2c-6.2-6.2-5-14.2,3-17.7c10.9-4.8,14.9-12.7,11.8-23.8c-0.3-1.2-1.7-2.7-2.9-3
		c-2.2-0.7-4.5,0.4-6.1-2.8c-2.1-4.5-5.1-8.4-3.7-13.8c0.5-1.9,0.7-4.6-0.3-6.1c-3.2-4.6-1.3-8.5,0.4-12.9c1.5-3.7,1.7-8,2.8-11.9
		c1.6-5.5,3.3-10.9,5.3-16.2c0.3-0.9,2.1-1.4,3.3-1.7c5.2-1.4,7.5-5.4,9.3-9.9c2.8-6.7,5.9-13.7,12.7-16.5c4.3-1.8,9.8-0.5,14.8-0.3
		c0.8,0,2,1.4,2.1,2.4c1.4,8.8,7.4,15.1,11.6,22.4c0.6,1.1,1.7,2.3,1.7,3.4c-0.2,5-0.1,9.7,5.4,12.1c0.4,0.2,0.6,1.1,0.7,1.7
		c0.2,5.4,4.1,7.6,8.1,10.2c8,5.3,15.6,11.2,23.3,16.8c-4.1,4.6-7.5,8.4-11,12.2c-0.7,0.8-1.8,1.4-2.8,1.8c-2.7,1.2-5.4,2.2-8.1,3.3
		c-4.7,2-9.3,4.6-14.2,6c-9.3,2.6-15.3,9-21.3,15.9c-6.1,7.1-11.7,14.8-20.6,18.9c-1.9,0.9-3.4,2.6-5,3.9
		C936.7,903.2,937.1,903.4,937.4,903.7z"/>
	<path id="_x32_204" class="st0" d="M898.3,858.2c4.4-0.4,8.4-0.6,12.2-1.3c4.4-0.7,6.9,1.4,8.3,5c1.6,4,4.1,5.9,9,4.9
		c0,4.2,0.8,8.4-0.2,12c-0.8,2.9-3.6,5.5-6,7.7c-2.6,2.4-6.2,3.7-8.8,6.1c-6.1,5.7-5.6,12.6,0.9,17.9c0.9,0.8,2.2,2.5,1.9,3.1
		c-3,6.7,1.7,10.8,5.4,14.5c4.2,4.2,3,8.4,1.8,12.9c-0.7,3-1.5,6-2.2,8.9c-7.3-5.4-16.6-4.4-26.2-4.1c-3.5-6.8-6.7-13.8-10.7-20.5
		c-2.6-4.3-6.1-8.1-9.2-12.1c-6.5-8.4-4.8-18.2-4.5-27.7c0.1-2.4,0.8-4.8,1.2-7.8c4.1,1.8,8.2,3.6,12.1,5.4c0.4,2.3,0.8,4.5,1.2,6.9
		C895.6,884.8,901.1,871.4,898.3,858.2z"/>
</g>
</svg>
