<?xml version="1.0" encoding="utf-8"?>
<!-- Generator: Adobe Illustrator 19.0.0, SVG Export Plug-In . SVG Version: 6.00 Build 0)  -->
<svg version="1.1" id="Layer_1" xmlns="http://www.w3.org/2000/svg" xmlns:xlink="http://www.w3.org/1999/xlink" x="0px" y="0px"
	 viewBox="0 0 4000 2000" style="enable-background:new 0 0 4000 2000;" xml:space="preserve">
<style type="text/css">
	.st0{fill:#FFFFFF;}
</style>
<g>
	<path d="M1956.6,766c4.6,0.4,8.3,0.7,12,1c3.7,0.2,3.7,0.2,3.6,5.3c-4.9-0.4-9.8-0.8-14.7-1.1c-1.1-0.1-2.8-0.3-3.3,0.3
		c-4.2,5.6-8.5,11.1-12.2,17.1c-3.6,5.8,1.7,9.4,4.4,13.3c3.1,4.4,6.8,8.5,10.5,13.1c19.4,0,39.4,0,59.4,0c4.6,0,9.1,0.3,13.7,0.4
		c6.3,0.1,12.6,0.3,18.9,0.1c10.3-0.3,20.6-1,30.9-1.5c4.1-0.2,6.1,1.6,6.2,6.2c0.2,8.5,1.9,17.1,1.7,25.6c-0.3,7.9-2,15.8-3.7,23.6
		c-1.1,5-0.7,8.9,4.3,12.4c7.6,5.4,12.6,13,15.6,21.9c1.5,4.5,3.3,8.2,6.7,11.9c6,6.5,13.3,12.4,13.8,23c0.2,5,4.4,10,7.4,14.6
		c21.5,33.1,43.4,66,64.7,99.2c3.4,5.3,7.4,8.2,12.8,11.1c7.2,3.7,13.8,8.9,19.8,14.4c6.2,5.7,11.7,12.3,16.7,19.1
		c2.5,3.5,3.2,8.3,4.9,13c4.9-3.9,9.8-8,14.8-11.9c4.5-3.6,8.7-7.7,13.6-10.4c9.6-5.2,13.8-3.6,17.2,6.3c2.7,8,5.1,16.1,6.7,24.4
		c2.5,13.3,4.2,26.8,6,40.2c1.2,9.1,1.8,18.3,3.3,27.3c0.5,3,2.5,6.2,4.6,8.4c6.2,6.2,7.3,13.1,4.5,21.1c-3.5,9.9-7,19.9-9.8,30
		c-0.8,2.7,0.1,6.8,1.7,9.2c7.7,10.7,11.8,22.5,15.1,35.1c2.6,9.9,8.9,17.8,20.3,21.1c6.7,1.9,12.7,6.9,18.5,11.2
		c4.9,3.7,9.1,8.3,13.7,12.5c7.1,6.5,8.2,15.2,8.9,24.1c0.1,1.1,0.1,2.2,0.5,3.1c2.4,5.9,4.8,11.8,7.4,17.5c0.7,1.6,2.3,2.8,4.1,5.1
		c2.2-7.7,7.9-10.3,13.2-13.3c3.2-1.9,6.5-3.8,9.3-6.2c1.1-0.9,1.3-3.1,1.5-4.8c1.1-7.7,1.5-15.7,3.5-23.2c0.9-3.3,4.3-6.6,7.5-8.5
		c8.6-5.2,15.7-11.8,22.1-19.4c3.9-4.7,8.9-8.3,13.4-12.5c2.5-2.3,5.2-4.6,7.1-7.3c11-15.7,26.5-23.8,44.9-26.7
		c5.8-0.9,11.9,0.3,17.8,1c1.4,0.2,3.4,1.9,3.8,3.2c1.5,5.3,2.9,10.7,3.7,16.1c0.8,5.6,0.9,11.3,1.3,17c0.1,1.3,0.2,2.7,0,4
		c-1.8,11.2,5,18.4,12.7,24.1c4.5,3.4,3,6.6,2.8,10.3c0,0.6-0.4,1.3-0.8,1.8c-12.3,14.5-13.4,33.2-18.5,50.3
		c-4.1,14-7.4,28.3-11,42.4c27,17.7,53.8,35.3,80.7,52.9c30.7,20.1,61.5,40.2,92.2,60.2c6,3.9,11.9,8,18.2,11.5
		c8,4.4,9.2,12.1,10.7,19.8c1.4,7.4,2.7,14.7,3.9,22.1c1.8,10.8,4.3,21.5,4.9,32.4c0.7,13,4.4,23.2,16.1,30.4
		c9.5,5.8,15.4,15.3,20.2,25.4c4.8,10.2,9.8,20.3,14.8,30.3c0.7,1.4,1.8,2.8,3,3.9c8.8,7.3,10.8,17.3,12.3,27.9
		c0.6,4.4,1.4,8.6-1.9,12c-1.3,1.4-3.7,2.3-5.6,2.3c-3.1,0-6.2-1-9.3-1.6c0.3-0.5,0.6-0.9,0.9-1.4c-1.5-1.3-2.8-3.4-4.5-3.9
		c-6.7-1.9-13.1-3.7-20.5-2.9c-8,0.9-16.4-0.7-24.5-1.7c-8.4-1-16.8-3.4-25.2-3.6c-8.9-0.3-16.4-4.1-24.4-6.8
		c-6.7-2.3-13-5.8-19.7-8.5c-3.4-1.4-7.1-2.1-10.7-2.9c-0.9-0.2-2.2,0.3-3-0.1c-8.9-5.5-19.2-3.2-28.7-5.1c-3-0.6-5.6-3.2-8.4-4.8
		c-4.1-2.4-8.7-4.2-12.2-7.3c-7.3-6.4-15.8-4.9-24-4.4c-8.2,0.5-16.3,2-24.4,2.6c-5.3,0.4-10.5,0.6-15.9-0.5
		c-4.2-0.9-9.1,1.7-13.7,2.8c-17.6,4.6-35.3,9.2-52.9,13.8c-28.5,7.4-57.1,14.6-85.5,22.1c-7.4,2-14.2,5.9-21.7,7.4
		c-7.1,1.5-14.5,1.4-21.8,1.4c-12.6,0-25,0.6-36,7.9c-4.1,2.7-8.1,5.5-12.3,8c-6.9,4.1-14.6,2-21.9,1.7c-1.6-0.1-3.2-3.5-4.4-5.6
		c-17.4-30.1-34.8-60.2-52.1-90.3c-1.4-2.4-2.6-2.3-5.3-2.2c-12.6,0.6-24.3,4.6-36.4,7.6c-2.8,0.7-5.6,1.8-8,3.3
		c-9.5,6-19.9,8.5-30.9,9.7c-3.5,0.4-7.3,0.9-10.3,2.5c-10.4,5.5-20.4,11.7-30.7,17.3c-2,1.1-5.1,1.7-7.1,1c-4.8-1.7-9-0.3-12.5,2
		c-6,3.9-11.7,3.6-17.6,0.7c-10.3-5-20.4-10.2-30.7-15.4c-6.5-3.3-12.4-1.5-17.4,3.8c-2.2,2.4-5.7,4.3-8.9,4.7
		c-13.2,1.7-26.4,2.9-39.7,4.1c-5.1,0.5-10.2,0.7-15.3,1c-6.8,0.4-13.5,0.8-20.3,1c-4.1,0.1-6.9-1.6-6-6.2c1.3-7.2,3-14.3,4.3-21.5
		c1.5-8,2.7-16,7.4-23.1c0.7-1,0.1-2.9,0.1-4.4c-5.2-2.3-10-2.4-15.7-0.1c-7.5,3.1-13.2-0.2-17.4-7.9c-1-1.8-2.7-3.6-4.5-4.5
		c-5-2.7-10.4-4.6-15.3-7.4c-2.8-1.6-5.7-4.1-7.3-6.9c-2.8-4.8-5.8-7.8-11.6-9.9c-7.8-2.8-14.5-8.5-21.7-13.1
		c-9.3-6-18.4-12.4-28-17.8c-3.7-2.1-8.5-2.2-10.9-6.5c-1.1-2.1-2.6-4-3.6-6.2c-2.9-6.3-8.9-6.6-14.5-7.3c-9.7-1.3-17.3-6.7-25-12.1
		c-2.9-2-3.6-9.6-1.7-14.3c0.4-0.9,0.6-1.9,1.2-2.7c6.5-9.6,1.2-19-0.1-28.6c-1.2-8.9-6.8-14.3-13.1-20c-4.3-3.9-7.7-10.8-8.2-16.6
		c-0.9-10.4-3.7-19.7-8.3-28.9c-5.3-10.4-2.8-21,0.6-31.4c1.1-3.4,1.7-6.9,2.1-10.5c0.1-0.9-1.5-2.6-2.6-2.8
		c-9.7-1.8-16.5-8.4-23.6-14.3c-2.2-1.8-3.4-5.1-4.6-7.9c-1.2-2.6-2.1-5.5-2.7-8.3c-2.8-12.4-13.3-15.6-23.2-19.7
		c-3.8-1.5-7.7-2.7-11.2-4.7c-4.2-2.4-2.2-6.4-1.4-9.7c4.4-17.1,13.6-31.9,23.5-46.3c0.9-1.3,1-4,0.2-5.5
		c-14.2-26.5-28.6-52.8-43-79.3c-1.5-2.7-2.5-5.8-4.3-8.2c-1.2-1.6-3.5-3.2-5.3-3.2c-7.9,0.3-15.7,1.1-23.6,1.9
		c-1.1,0.1-2.3,0.7-3.2,1.4c-6.7,5.7-13,11.8-20.1,17c-3,2.2-7.5,2.6-11.4,3.5c-2.9,0.7-5.9,0.6-8.7,1.2c-0.7,0.1-1.3,1.4-1.8,2.3
		c-5.9,10.4-14,18-25.7,21.9c-5.2,1.7-9.6,1.9-14.7,0.1c-2.4-0.9-5.3-0.4-7.9-0.4c-9.2,0-17.6-1.7-25.6-7c-3.4-2.3-8.8-1.6-13.2-2.3
		c-1.7,8.3-5.9,8.8-13.7,5.8c-8-3.1-16.9-6.5-25.5-0.6c-6,4.1-12.7,1.7-18.4,0.1c-2.6-0.7-4.3-7.2-5-11.3c-1.3-6.9-2.3-8.2-9.2-6.1
		c-15.4,4.7-30.7,9.7-46.1,14.3c-4.5,1.3-8.6,3.2-14,2.2c-3.7-0.7-8.4,3.1-12.5,5.1c-2.8,1.4-5.5,3.3-8.4,5c-3.2-6.6,2-8.2,5.2-10.1
		c3.9-2.4,8.4-4,12.9-6c-1.9-5.2-3.5-9.9-5.4-14.6c-2.3-5.9-1.2-9.4,4.4-12.2c4.2-2.1,8.4-4,13.3-6.3c-5.7-4.9-11-9.5-16.4-13.9
		c-8.7-7.2-17.5-14.4-26.2-21.6c-11.1-9.2-22.4-18.2-33.3-27.7c-2.3-2-4.1-5.6-4.6-8.6c-1.7-12-2.8-24.1-4.1-36.2
		c-0.8-8-1.3-16.1-2.1-24.1c-0.5-5.2-1.5-10.4-1.8-15.6c-0.1-2.5,0.6-5.2,1.6-7.5c1.4-3.3,3-6.6,5.2-9.4c4.8-6.1,4.8-11.9,1.5-18.7
		c-1.3-2.8-2.4-4-5.3-3.6c-3.7,0.5-7.5,1.1-11.2,1.4c-1.3,0.1-3.1,0.3-3.9-0.4c-0.7-0.6-0.8-2.7-0.2-3.6c0.4-0.8,2.1-1.2,3.3-1.3
		c4.2-0.6,8.5-0.9,13.4-1.5c-3.3-8.1-6.4-16-9.6-23.7c-2.7-6.6-5.6-13.2-8.4-19.8c-0.3-0.7-0.5-1.6-0.5-2.4
		c-0.8-8.8-0.8-8.8-8.9-10.7c-8.4-1.9-16.8-3.6-25.1-6.1c-4.4-1.3-8.8-3.5-12.6-6.2c-9-6.3-16.9-13.9-24.5-22
		c-4.7-5-4.6-9.5-4.9-15.3c-0.5-9.3,2.8-14.6,11.6-17.9c8.3-3.1,16-7.8,24-11.8c0.6-0.3,1.2-0.6,1.8-0.7c8.7-2.1,10.4-4,8.5-12.4
		c-1.7-7.3-1.5-14,0.8-21.1c0.7-2.1,0.1-4.9-0.7-7.1c-2.4-6.6,0.2-12.4,3.3-17.7c5-8.5,9.6-17.2,10.3-27.1
		c0.4-5.7-1.4-11.6-1.9-17.4c-0.4-5.6-1-11.3-0.3-16.8c0.3-2.5,3.3-5.5,5.8-6.7c13.2-6.5,26.6-12.5,39.9-18.6
		c12-5.5,23.9-11.4,36.1-16.4c6.4-2.6,5.2-8.3,6.9-12.9c0.6-1.5,0.6-3.2,1-4.8c1.1-4.3,2.2-8.3-0.9-12.7c-5.5-7.8,0.2-14.2,3.7-20.6
		c1.9-3.5,4-6.9,5.4-10.6c0.7-1.7-0.4-4.1-0.2-6.1c0.5-6.5,1.4-13,1.7-19.6c0.1-1.9-1.7-3.9-1.6-5.9c0.4-13.8-3.4-28,1.5-41.2
		c3.9-10.8,3-20.5-0.5-30.8c-2.7-7.9-3.8-16.1-4.4-24.5c-0.6-8.8-3.2-17.5-6-25.9c-1-2.9-5-5.1-8.1-7c-3.1-2-2.6-4.1-1.5-6.7
		c0.8-1.9,2.3-4.3,1.7-5.8c-3.6-9.4-1.6-18.5,0.3-27.7c0.3-1.6,0.8-3.2,0.9-4.8c0.2-6.1,3.3-10.6,9.2-12.5
		c5.1-1.7,10.2-3.2,15.4-4.4c7-1.6,14.9-1.2,20.9-4.4c10.3-5.5,21.6-4.7,32.3-7.4c3.6-0.9,7.8,0.7,11.7,0.7c11,0.1,22,0.5,33-0.1
		c17.5-0.9,35-2.2,52.1-6.5c4.9-1.2,10.1-1.2,16.7-1.9c-3-2-5-3.4-6.9-4.7c-2.5-1.8-5.1-3.6-7.6-5.4c-5.5-3.7-5.4-9.1,0.3-12.3
		c10.6-5.9,21.2-11.6,31.8-17.4c24.6-13.5,49.2-27.1,73.9-40.5c16.6-9.1,33.4-18,50-27c23.6-12.9,47.2-26,70.9-38.9
		c15.9-8.7,31.9-17.3,47.8-25.9c9.5-5.1,18.9-10.3,28.4-15.5c3-1.6,5.8-2,9.2-0.4c4.4,2.1,9.1,4.1,13.8,4.4c4,0.2,8.4-1.3,12-3.3
		c7.6-4.1,15.6-1.9,23.4-2.2c3.4-0.1,6.9,0.9,10.3,0.7c4.1-0.3,6.2,1,7,5c0.4,2.2,1.4,4.3,2,6.1c-8.7,0-17.1,1.1-25.1-0.3
		c-6.8-1.2-11.7,1.7-17.2,3.7c-3.2,1.1-6.4,2.3-10.2,3.7c0,2.9-0.4,6.6,0.2,10.1c0.3,1.6,2.8,2.6,4.2,4.1c3.3,3.5,6.5,7.1,9.6,10.7
		c1.7,2,2.9,4.4,4.7,6.2c7.1,7.6,14.3,15,21.4,22.5c0.6,0.6,1.5,1.2,1.6,1.9c1.8,11.1,11.7,16.3,17.8,24.3
		c3.7,4.8,8.1,9.1,14.1,11.8c3.7,1.7,6.2,6.3,9,9.7c8.6,10.2,17,20.4,25.7,30.5c3.4,4,6.1,7.9,5.7,13.6c-0.4,6.3-0.1,12.6-0.1,19.4
		c3.6,0.1,7.7,0,6.3,5.8c-1.6,0-3.3,0-5.7,0c0.5,8.3,0.8,16.5,1.5,24.7c0.1,1.3,1.4,3.2,2.5,3.5c8.2,2.6,16.5,4.9,24.7,7.2
		c0.9,0.3,2,0.2,2.8,0.7c11.3,6.2,22.5,12.4,33.7,18.7c2.9,1.7,4.3,4.8,3,7.6c-1.1,2.4-3.5,5-5.9,5.8c-24.7,7.7-49.7,14.3-74.2,22.5
		c-23.7,8-46.9,17.6-70.3,26.6c-19.2,7.3-38.2,15-57.5,21.8c-5,1.8-5.3,5-5.8,8.9c-0.3,2.3,0,4.7-0.1,7c-0.3,13.3-0.4,26.5-1.1,39.8
		c-0.2,4.5,1.8,7.1,4.7,9.7c11,9.7,22,19.4,33.1,29c15.6,13.7,31.3,27.2,46.9,40.9c10.2,8.9,20.1,18.1,30.2,27.1
		c11.1,9.9,22.2,19.6,33.4,29.4c0.9,0.8,2.3,1.1,3.5,1.3c1.1,0.2,2.3,0,3.5,0.1c8.8,0.5,11,4.4,6.9,12.1
		C1958.8,760.3,1958,762.8,1956.6,766z M1379.3,1215.2c4.2-2.5,8.2-5.1,12.5-7.4c7.4-4,14.1-10.6,24.2-6.7c0-2.5-0.3-4.5,0.1-6.4
		c0.4-1.8,1.4-3.5,2.2-5.3c1.3-2.8,2.8-5.5,4.1-8.3c2-4.4,5.3-5.2,9-2.2c1.2,0.9,2,2.4,3.3,3c1,0.5,3.4,0.5,3.7-0.1
		c2.9-5.9,7.8-4.9,11.8-2.8c8.2,4.3,17,6.5,25.8,8.5c4.6,1,7.5,2.1,8.4,6.9c5.5-6.6,5.8-6.6,12.8-5.1c1,0.2,2.7-0.8,3.5-1.7
		c2.5-2.8,5.4-4.4,9.2-3.7c2.3,0.4,4.6,1.1,6.8,1.6c0.7-7.7,0.7-7.6,8.4-7.7c1.7,0,4.3,0.1,5.1-0.9c2.8-3.5,4.9-7.4,7.3-11.1
		c-8.5-6.5-8.5-6.5-4.1-12.2c-0.6-2.6-1-4.9-1.5-7.3c7.6-1,11.8-3.7,12-8.8c0.2-4.1,2.3-5.5,5.5-6.4c1.2-0.3,2.4-0.5,3.4-0.7
		c-3.8-12.1-7.8-23.7-11.1-35.6c-2.1-7.5-3.1-15.3-4.6-23c-0.5-2.7-1.3-5.4-2-8c-1.4-5.5-2.5-11-4.2-16.4c-1.4-4.6-3.7-9-5.2-13.6
		c-0.7-2.3,0.5-5.4-0.7-7.2c-8.8-14.5-17.9-28.8-26.9-43.2c-3.1-5-6-10.2-9.8-16.5c12.4-0.9,23-1.6,33.7-2.4c0-2.6-0.5-4.9,0.1-6.9
		c1.3-4.1-1.2-10.2,6.1-11.5c10.9-1.9,21.8-3.9,32.6-6.5c3.8-0.9,7.1-0.4,9.4,2c3.1,3.3,6,2.1,8.2,0.1c4.3-4.1,9.3-4.2,14.7-4
		c7.3,0.2,14.7,0.1,22,0c2.3,0,4.5-0.6,6.8-1c4.2-0.7,8.4-1.7,12.6-1.9c4.2-0.2,8.7,1.5,12.8,0.6c13.2-2.8,26.2-4.2,39.2,0.3
		c4.8,1.7,7.8-0.4,9.6-4.1c2.4-5.1,4.6-10.4,5.9-15.8c0.9-3.6,0.2-7.7,0-11.5c-0.1-1.8-0.4-3.5-0.9-5.3c-2.4-9.8,7.4-17.1,5.3-26.8
		c-0.1-0.7,1.4-1.7,2.2-2.6c4.6-5,10.7-9,11.5-16.5c0.2-2.3,0.2-4.7-0.3-7c-0.8-3.7-2.2-7.3-3.7-12c-4.6-3.6-10.8-4.8-18.2-2.7
		c-4,1.2-9,1.3-12.9-0.1c-8.9-3.1-17.4-7.4-26-11.3c-29.5-13.1-58.9-26.4-88.5-39.2c-5.5-2.4-8.5-5.1-7.4-11.3
		c0.2-1.2-0.2-2.5-0.4-4.9c-10.2,0-20.2-0.2-30.1,0.1c-4.6,0.2-5.7-1.6-5.5-5.8c0.3-8.6,0.1-17.1,0.1-26.1
		c-15.7-3.7-32.2-7.5-48.6-11.4c-20.4-4.8-40.8-9.8-61.3-14.6c-2.6-0.6-5.7-1.3-8.1-0.5c-7.8,2.9-15.3,6.4-22.9,9.8
		c-11.6,5.2-23.1,10.6-34.9,15.5c-7.6,3.2-7.7,2.8-8.5-5.2c0-0.3-0.4-0.5-0.5-0.6c-3.5,0.4-7.1-0.1-10,1.3
		c-24.6,11.3-49.1,23-73.8,34.2c-4.8,2.2-5.1,5.1-4.1,9.4c2.3,10,3.5,19.9,1.7,30.3c-1.7,10-6.8,18.2-10.9,27.1
		c-1.1,2.4-1.4,5.4-1.5,8.1c-0.2,5,1.4,10.5-0.3,14.8c-3.1,7.6,0.7,14.7,0.1,22.1c-0.7,7.6-1.2,12.4-8.7,14.5
		c-12.5,3.5-23.8,9.4-34.8,16.2c-2.4,1.5-4.3,3.8-6.6,5.9c2.8,2.4,5.6,4,7.1,6.4c6,9.2,14.7,15.5,23.4,21.4c10.8,7.4,24,9.2,36.7,10
		c7,0.4,11.4,3.7,12.1,10.9c0.9,9.9,5.2,18.4,8.7,27.3c5.9,14.8,12,29.6,17.4,44.6c1.1,3.1,0.5,7.5-0.8,10.6
		c-2.2,5.2-5.7,9.8-8.5,14.8c-0.9,1.6-1.6,3.7-1.5,5.5c0.4,7,1.2,14.1,2,21.1c1.3,13.1,2.2,26.2,4.2,39.2c0.8,5.2-1.2,11.3,4.4,15.5
		c4.8,3.5,9,7.6,13.6,11.4c10.6,8.7,21.4,17.4,32,26.1c9.5,7.8,18.8,15.9,28.5,23.5c9.6,7.5,10.4,8.8,6.6,17.1
		c-6.9,3-13.8,5.9-21.6,9.3c3.1,3.5,5.5,6.2,8.8,10C1371.3,1227.4,1375.3,1221.3,1379.3,1215.2z M2800.3,1745.9
		c-1.3-4.2-0.5-8.4-4.3-11.7c-3.2-2.8-6.1-6.2-8-9.9c-5.6-10.5-10.6-21.3-15.8-32c-4-8.3-9.3-15.6-16.8-21.2
		c-4-3.1-8.7-5.6-11.8-9.4c-5.2-6.3-6.9-14.2-7.5-22.2c-0.4-6.6-0.2-13.3-1.3-19.8c-2.4-13.1-7.3-25.7-7.9-39.2
		c-0.3-6.7-3.5-12-10.2-15.8c-12-6.8-23.4-14.9-35-22.5c-22.8-14.9-45.7-29.7-68.5-44.6c-28.1-18.4-56.2-36.8-84.3-55.3
		c-4.9-3.2-5.9-6.1-4.4-12.1c5.9-22.8,11.7-45.7,17.8-68.5c1.9-7.1,3-14.6,8.1-20.7c3.9-4.6,2.2-5.1-1.5-10.3
		c-4.7-6.4-8.6-14-10.4-21.7c-1.7-7.3-0.4-15.3-0.4-23c0.1-14.7-4.4-14.3-13.6-12c-12.7,3.1-23.9,8.9-32.7,18.8
		c-3.9,4.4-7.4,9.2-11.6,13.4c-7,7.1-14.2,14-21.6,20.6c-4.5,4-9.6,7.4-14.3,11.2c-1.6,1.3-3.6,2.9-3.9,4.7
		c-1.4,7.5-2.1,15.2-3.4,22.7c-0.4,2.6-1.2,5.7-2.9,7.4c-3.3,3.1-7.2,5.6-11.3,7.8c-4.7,2.5-8.5,5.1-9.9,10.9
		c-1.9,7.3-6.9,9-13.5,5.5c-6.3-3.3-11-8-13.4-15c-3.2-9-9.2-17.1-8.2-27.4c0.2-1.5-0.5-3.3-1.3-4.6c-2.7-4-5.1-8.6-8.8-11.6
		c-7.7-6.2-15.4-13.6-24.4-16.8c-14.4-5-22.2-14.9-26-28.2c-3.2-11.4-7.3-22.1-14.1-31.9c-4.2-6.1-5.4-12.9-3.1-20.1
		c3.3-10.3,6.8-20.6,10-31c0.5-1.7,0.1-4.1-0.7-5.7c-2.5-4.7-6.9-8.9-7.9-13.8c-2.3-11.5-2.9-23.4-4.4-35.1
		c-1.4-10.7-2.4-21.5-4.6-32c-1.7-8.3-5-16.3-7.7-25c-0.4,0.2-1.6,0.7-2.5,1.4c-11,8.9-21.8,17.9-32.9,26.6c-1.9,1.5-5.1,2.4-7.4,2
		c-4.4-0.7-6.2-7-5.1-11.8c0.9-3.8,1.4-8.5-0.2-11.7c-2.5-5.2-6.2-10.3-10.7-13.9c-9.1-7.4-19-13.8-28.6-20.6
		c-2.4-1.7-5.3-3.1-6.9-5.4c-7.3-11-14.3-22.2-21.4-33.4c-5.3-8.3-10.7-16.5-16-24.8c-1,3-1.4,5.9-0.9,8.5
		c1.3,7.2-3.3,10.8-8.4,13.6c-5.4,3-11.4,4.7-16.9,7.5c-4.2,2.2-9.8,3.4-10,9.9c0,0.7-1.5,1.8-2.4,1.9c-7.7,1.5-15.4,2.8-23.1,4.1
		c-11.8,1.9-23.5,3.8-35.3,5.5c-6.8,1-13.8,2.8-20.5,2.2c-7.7-0.8-15.3-2.3-23.2-1.7c-8.2,0.6-16.5,0.7-24.8,1.1
		c-6.4,0.3-12.9,0.7-19.3,1.1c-9.9,0.6-19.7,1.4-29.6,1.8c-1.1,0.1-2.4-1.1-3.5-1.9c-1.5-1.1-2.8-2.7-4.4-3.7
		c-2.1-1.3-4.6-1.9-6.6-3.2c-6.4-4.1-12.7-8.5-19.2-12.5c-2.3-1.5-5-3.3-7.5-3.4c-9.8-0.6-17.7-6.9-19.3-16.4
		c-0.4-2.7-0.1-5.6-0.1-8.3c-9.4-3-11.2-4.4-13.4-11.4c-1-3-2.5-4.7-5.7-5.2c-3.5-0.5-7-1.3-10.4-1.9c-7.8,10.2-15.4,20.2-23.3,30.1
		c-1.2,1.5-3.6,2.8-5.4,2.8c-24.3,0.5-48.5,0.9-72.8,1.1c-44.4,0.4-88.9,0.7-133.3,1c-0.8,0-1.7,0-2.5,0
		c-15.6,0.3-31.2,0.8-46.8,0.9c-9.1,0-18.2-0.7-27.3-0.9c-6.8-0.1-7.7,1.6-4.8,8c2.7,5.9,5.9,11.8,7.4,18c2.8,11.9,4,24.1,6.8,36
		c2.5,10.4,6.5,20.4,9.5,30.7c1.2,4.1,1.6,8.5,2.4,12.6c-2.4,0.7-3.8,1.2-5.2,1.5c-1.4,0.3-2.8,0.4-5,0.7c0.8,1.5,1.5,2.5,1.8,3.6
		c0.6,2.5,2,5.6,1.1,7.5c-0.7,1.5-4.4,1.7-6.8,2.1c-1.4,0.2-2.8-0.4-4.6-0.7c0.9,2.3,2.1,3.9,1.8,5.1c-0.3,1.4-2.1,2.5-3.2,3.7
		c3.8,3.5,5,8,2.4,13c-1.9,3.6-4.2,7.5-7.3,9.7c-3,2.1-7.4,2.1-11.2,3c1.7,5.9,0.5,7.6-6,7.4c-1.4-0.1-2.8-0.6-4.1-1.2
		c-2.6-1.1-4.6-2.1-7,1c-1.4,1.8-4.8,3.1-7.2,3c-4.3-0.2-7.4,0.2-9.9,4.2c-1,1.7-4.5,3.1-6.3,2.6c-1.7-0.4-2.6-3.6-4-5.5
		c-0.8-1.1-1.8-2.7-3-3c-6.5-1.8-13.1-3.4-19.7-5c-0.9-0.2-1.8-0.6-2.7-1.1c-2.6-1.3-5.3-2.7-7.7-4c-5.8,8.3-11.8,4.9-17.2,1.4
		c-1.3,2.5-2.4,4.7-3.4,6.9c-1.2,2.6-2.2,5.2-3.3,7.9c-1.1,2.8-1.4,7-3.4,8c-2.1,1.1-5.8-0.6-8.8-1.1c-0.1-0.5-0.1-1-0.2-1.5
		c-9.9,7.4-23.2,10.3-30.1,23.6c10.3-3,19.3-5.9,28.4-8.1c5.2-1.3,10.7-2,16-2.1c9.1-0.1,11.4,2.6,12.1,11.6
		c0.2,2.1,0.4,4.3,1.2,6.2c0.4,0.9,2.7,2,3.3,1.7c3.7-2.5,9.1-1.8,11.7-6.9c0.8-1.6,5.1-3.2,6.8-2.5c9.1,4,18.8,0.5,28.1,2.6
		c8.6,1.9,17.7,0.7,25.7,6.7c3.4,2.6,9,2.8,13.6,3c7.1,0.3,14.4,2.8,21.2-0.6c4-2,7.8-4.8,11-8.1c2.5-2.5,3.6-6.4,5.7-9.3
		c1.5-2.1,3.4-4.8,5.6-5.3c5.5-1.3,11.3-1.5,17-2.3c0.9-0.1,2-0.3,2.7-0.9c6.4-5.6,12.6-11.4,19-16.9c2-1.7,4.4-3.9,6.7-4
		c12.2-0.7,24.5-0.9,36.8-1.1c1.4,0,3.5,1.1,4.2,2.4c6.1,10.6,11.9,21.4,17.9,32.1c4.9,8.9,9.8,17.7,14.7,26.6
		c6.9,12.6,13.6,25.3,20.5,38c1.9,3.4,2.4,6.7,0.2,10.1c-3.6,5.6-7.2,11.3-10.8,16.9c-5.8,9.1-11.5,18.3-16.9,26.8
		c9.3,4.5,18.3,8.5,26.8,13.4c3.4,2,6.2,5.7,8.3,9.2c1.9,3.3,2.2,7.5,3.8,11c1.7,3.6,3.5,7.5,6.3,10.3c5.9,5.8,12.9,9.9,21.3,11.2
		c4.2,0.7,7.7,5.6,7,9c-1.5,7-2.9,14-4.9,20.9c-2.7,9.1-2.3,17.5,2.9,25.8c3.8,6,5.1,12.9,5.3,20.1c0.2,6.5,1.7,13.2,7.7,17.3
		c7.5,5.2,11.9,11.6,13.6,21c2.5,13.9,8.4,27.5-0.2,41.3c-0.4,0.6,0.3,2.4,1,2.9c6.3,4.4,12.8,8.4,20.9,8.5c5,0.1,9.4,1.8,13.1,5.6
		c5.3,5.4,10.8,10.8,16.9,15.3c10.3,7.5,21,14.4,31.6,21.3c4.9,3.2,9.8,6.7,15.2,8.5c5.2,1.8,10.7,3.5,12.9,8.1
		c3.4,7,9.1,10.2,15.5,13.4c5.7,2.8,12.4,4.9,15.4,11.3c1.6,3.5,3.4,3.6,6.7,2.5c8.4-2.9,16.5-0.4,24.4,2.5c1.5,0.6,3.8,2.3,3.7,3.4
		c-0.2,6-0.4,12.2-1.9,18c-2.7,10.5-6.4,20.8-9.9,31.9c2.9,0,4.4,0.1,5.9,0c6.4-0.6,12.7-1.4,19.1-1.9c13.1-1.1,26.3-1.9,39.4-3.2
		c2-0.2,4.4-1.5,5.6-3.1c5.6-7,18.4-10.6,26.6-6.8c11.5,5.3,23,11,34.4,16.5c2.3,1.1,3.9,1.5,6.6-0.1c5.3-3.2,11.1-5.4,17.7-4.5
		c2.6,0.3,5.6-0.5,8-1.7c9.2-4.9,18.2-10.3,27.4-15.2c2.2-1.2,4.9-1.7,7.4-1.9c11.7-0.9,22.8-3.7,32.7-10.2c2.5-1.6,5.4-3.1,8.3-3.8
		c14-3.1,28-5.7,42-8.7c5.5-1.2,9.2-0.3,11.8,4.2c8.9,15.4,17.7,30.8,26.5,46.3c8.9,15.6,17.8,31.1,26.8,46.7c2.3,4,5.7,4.7,9.8,2.1
		c3.6-2.3,7.2-4.4,10.7-6.8c12.8-8.7,27.4-11.3,42.1-10.4c10,0.6,19.1-0.3,28.4-3.3c14.6-4.6,29.2-9.1,43.9-13
		c32.1-8.5,64.2-16.9,96.4-24.8c10.4-2.5,20.4-7.2,31.6-6.4c5.5,0.4,11.1,0.4,16.6,0c8-0.6,15.9-2.1,23.9-2.7c8.8-0.7,17.8-1,25.8,4
		c6.4,4,12.4,8.4,18.8,12.4c1.6,1,3.7,1.3,5.6,1.3c7.4,0.3,14.9-1.2,21.5,3.7c0.8,0.6,2.3,0.1,3.4,0.4c5.2,1.3,10.5,2.3,15.4,4.1
		c5.3,2,10.2,5.2,15.5,7.1c8.4,2.9,16.9,5.8,25.6,7.6c10.1,2.1,20.4,2.7,30.6,4.3c6.3,1,12.4,2.2,18.7,0.1c2.1-0.7,4.7-0.4,6.9,0.1
		C2787.6,1742.6,2793.6,1744.2,2800.3,1745.9z M1496.8,653.5c0.9-0.3,2.2-0.7,3.4-1.2c18.3-6.8,36.6-13.8,55-20.3
		c2.7-0.9,6.6-0.5,9.1,0.8c10.2,5.4,20.2,11.3,30.1,17.3c1.8,1.1,3.3,3.2,4.3,5.2c11.7,22.9,23.3,45.8,34.9,68.7
		c2.7,5.3,5,10.5,4.5,16.8c-0.4,5.2-0.3,10.7,1.1,15.7c1.5,5.4,4.7,10.4,7.1,15.5c0.5,0,1.1-0.1,1.6-0.1c0.7-1.7,1.4-3.4,2.1-5
		c1-2.1,1.6-4.7,3.2-6.1c4.2-3.5,7.6-2.7,12.8,2.4c4.6,4.5,7.3,5,12.4,1.3c3.8-2.8,7.7-3.9,12.4-3.9c3.2,0,6.5-0.9,9.4-2
		c4.9-1.9,9.9-3.7,14.2,0.4c4.9,4.7,9.2,3.1,13.8,0c1.1-0.7,2.2-1.5,3.2-2.2c7-4.8,14.9-3.2,19.6,4.3c2.2,3.5,3.6,7.6,4.7,10
		c4-1.8,8.2-5.5,10.9-4.5c3.2,1.1,5,6.2,6.8,8.8c2.1-2,4.2-5,7.1-6.4c2.7-1.3,3.7-2.5,3.5-5.4c-0.5-6.9-1-13.9-1-20.8
		c-0.1-30.3-0.5-60.7,0.2-91c0.3-13-3.5-26.4,2.6-39.2c1.6-3.3,1.1-7.8,1.2-11.7c0.4-16.3,0.7-32.5,1-48.8c0.1-3.7,1.6-6.4,5-7.7
		c10.9-4.3,21.9-8.4,32.8-12.6c21.9-8.4,43.9-16.5,65.6-25.2c22.1-8.8,44.5-16.6,67.4-22.9c11.7-3.2,23.2-7.2,35.5-11
		c-5.8-5.2-11.7-9.1-18.8-10.8c-12.3-3-24.9-4.9-36.3-11c-3.3-1.8-5.2-3.5-5.3-7.3c-0.3-14.6-0.4-29.2-1.1-43.8
		c-0.3-7.7-0.9-15.2-7.4-21.4c-7.1-6.7-12.4-15.3-19.1-22.5c-5.2-5.5-8.8-13-17.1-15.1c-1-0.3-2-1.2-2.7-2c-5-5.5-10-11-14.7-16.7
		c-3.3-4-6-8.4-9-12.7c-2.1-3.1-3.8-6.5-6.2-9.3c-7.1-8.1-15.2-15.5-21.6-24.2c-3.2-4.3-6.3-7.8-11-10.2c-4.1-2-7.9-11.6-7-16.3
		c0.5-2.6,1.1-5.3,0.7-7.8c-0.2-1.4-2.1-3.6-3.3-3.7c-3.2,0-6.9,0.1-9.7,1.5c-10.8,5.5-21.3,11.5-31.9,17.2
		c-16.1,8.7-32.2,17.3-48.3,26.1c-24.7,13.5-49.2,27.1-73.9,40.5c-12,6.6-24.2,12.9-36.2,19.5c-27.8,15.2-55.5,30.5-83.3,45.8
		c-5.2,2.9-10.4,5.7-14.8,8.1c5.4,5.4,10.5,10.4,15.5,15.5c3,3.2,2,9-1.8,10.3c-2,0.7-4.1,0.8-6.2,1.2c-11.8,1.9-23.5,4-35.3,5.6
		c-9.4,1.3-18.9,2.6-28.3,3.2c-8.3,0.5-16.7,0.1-25.1,0.1c-4,0-8.1,0.1-12.1,0.1c-6.8,0-13.7-0.1-20.5,0.2
		c-4.6,0.2-9.1,1.1-13.6,1.7c-1.4,0.2-3,0.2-4.2,0.8c-8.1,4.2-16.6,7.2-25.9,7.7c1.1,0.7,2.4,1.5,3.5,1.4c3.5-0.5,7-1.3,10.4-2.3
		c6.3-1.8,11.1-0.9,14.6,4.3c8.5,12.7,16.8,25.6,24.8,38.7c8,13,16.7,25.5,27.3,36.6c3.5,3.7,6,8.5,8.4,13.1
		c3.1,6,5.3,12.6,8.6,18.6c5.5,10.1,12.1,19.7,14.3,31.4c0.7,3.7,1.6,7.3,2.9,10.8c4.2,11.1,8.6,22.1,13,33.2
		C1490,637.4,1493.4,645.4,1496.8,653.5z M1497.4,971c1.4,2.4,2.1,3.6,2.7,4.7c9.4,15.1,18.9,30.1,28.2,45.3c1.8,2.9,3.5,4.2,7,4.2
		c40.1-0.4,80.2-0.7,120.3-1.1c27.3-0.3,54.5-0.8,81.8-1c26-0.2,52,0,78-0.1c2,0,4.5-0.5,5.7-1.8c3-3,5.3-6.6,7.9-10
		c5.4-7.2,10.6-14.5,16.1-21.6c0.9-1.2,3.2-2.5,4.4-2.1c4.9,1.5,9.4,4.2,14.3,5.3c3.5,0.8,4.7,2.4,5.3,5.3c0.9,5.1,4.2,8,8.9,9.3
		c5.2,1.5,6.9,5.1,6,9.8c-1.7,8.9,5.7,15.2,13.2,15.5c11.3,0.5,19.9,6.1,29.1,11.1c1.6,0.9,2.6,2.8,4.1,3.9c4.2,2.9,8.3,7.4,12.9,8
		c7.2,0.9,14.6-1.1,22-1.5c19.3-1.1,38.6-2.6,57.9-2.8c10.4-0.1,20.6,2.5,31.3,0.1c15.3-3.5,31-4.9,46.5-7.4c3.6-0.6,8-0.9,10.5-3.2
		c8.2-7.4,18-11.6,27.9-15.7c5.8-2.4,7.7-4.8,7.7-11c0-4.8,0-9.7-0.1-14.5c0-0.7-0.6-1.5-1.1-2.1c-7.3-11.4-14.8-22.7-22-34.1
		c-4.9-7.6-11-14.7-11.1-24.6c0-1.5-1-3.1-2-4.3c-3.1-3.7-6.1-7.5-9.7-10.6c-4.6-4-6.5-9.2-8.2-14.7c-2.1-6.9-6-13-11.8-17.3
		c-8.9-6.6-11.8-14.1-8.3-25c4.3-13.3,4-26.8,1.8-40.5c-0.9-0.1-1.5-0.2-2.1-0.2c-31,0-62,0-93,0c-9,0-18.1,0.1-27.1-0.1
		c-1.8,0-4-0.7-5.2-1.9c-2.6-2.6-5.4-5.3-6.8-8.6c-3.6-8.3-12.7-13.9-11.9-24.4c-0.4,8.4-0.8,16.8-0.3,25.1c0.3,4.6-1.8,5.9-5.6,6.9
		c-6.7,1.8-14.1,2.9-19.8,6.4c-7.8,4.9-15.7,6-24.5,5.6c-6-0.3-12,0-18-0.1c-2.5,0-4.9-0.5-7.4-0.5c-10.2-0.1-20.5,0-31.1,0
		c0.4,4.7,1.3,9.2,1.1,13.6c-0.3,8.9-1.6,17.7-1.7,26.6c-0.1,5.2-2.9,7.9-6.8,9.1c-10.9,3.3-18.5,10.4-25.6,18.8
		c-4.4,5.3-8.9,10.6-14.2,15c-2.5,2.1-2.7,3.9-2.5,6.3c0.6,6.5,1.2,13.1,1.9,19.6c0.4,3.4-0.9,4.7-4.5,4.7
		c-11.1,0.1-22.2,0.2-33.3,1.1c-5.1,0.4-11.1-0.8-14.6,5.5c-2.6,4.6-4.7,4-9.4,1.2c-8.8-5.1-17.7-10.4-27.2-14.1
		c-7.8-3-16.1-4.8-24.9-2.9c-6.8,1.5-14,1.6-21.1,2c-2.9,0.2-5.9-0.8-8.7-0.5c-6.3,0.6-12.6,2.1-18.9,2.5
		c-7.1,0.4-14.3-0.1-21.5,0.2c-1.9,0.1-4.1,1-5.6,2.2c-4.8,3.7-10.4,5.5-15.5,2.6c-4.2-2.4-7.9-2.9-12.3-2c-9.5,2.1-19,4.1-28,6.1
		c-0.5,5.4-0.8,10-1.5,14.5c-0.2,1.3-1.9,3.2-3.1,3.3c-6.7,0.6-13.5,0.8-20.3,1.1C1501.9,971.1,1500.3,971,1497.4,971z M1788,621.6
		c0,33.6,0,65.9,0,98.2c0,0.2,0,0.3,0,0.5c0.3,15.3,0.7,30.5,0.8,45.8c0,3.7-0.8,7.3-5.6,8.1c-0.9,0.1-1.8,1.7-2.2,2.7
		c-1.3,3-2.7,5.2-6.7,5.3c-4.2,0.1-6.4-1.2-7.3-5.2c-0.3-1.4-1.1-2.6-2.4-5.9c-1.1,2.1-1.8,3.2-2.3,4.4c-1.1,3.1-3.6,4.4-6.2,3.3
		c-2.3-0.9-4.3-3-5.8-5c-1.2-1.6-1.4-3.9-2.1-5.9c-2.8-7.7-7.8-9.4-14.6-5c-2.5,1.6-5.3,2.6-7.7,4.2c-4,2.6-7.4,2.2-11.2-0.7
		c-2.3-1.8-6.5-4-8.3-3.1c-5.8,2.9-11.8,2.3-17.7,2.9c-2.4,0.2-5,1.9-6.7,3.7c-3,3.3-6.1,3.1-10.2,2.6c-4.4-0.5-7.6-1.8-10.1-5.4
		c-0.8-1.1-2.6-1.6-4.5-2.6c-0.8,2.9-1.3,5-2,7.2c-1,3.2-2.4,5.5-6.5,5.4c-6.1-0.2-7.8-1.2-10.8-9.1c-11,0-22.4,0.3-33.8-0.1
		c-11.5-0.4-22.9-1.4-34.3-2.1c-1.2,5.4-0.8,8.7,4.5,10.9c15.8,6.5,31.5,13.4,47.1,20.4c19.7,8.7,39.2,17.8,58.9,26.4
		c4.7,2,9.3,5.6,15.1,3.6c2.8-0.9,5.7-1.6,8.6-2c8.4-1.2,14.5,4.5,21.3,7.8c0.8,0.4,1,4.2,0.1,5.1c-2.1,2.2-1.3,3.8-0.2,5.9
		c0.7,1.4,1.3,3.2,1,4.7c-0.9,5.1-1.9,10.2-3.4,15.2c-0.6,1.9-2.3,3.8-4,5c-4.1,2.7-7.1,5.5-6.7,11.1c0.2,2.3-1.2,4.9-2.4,7.2
		c-2.4,4.7-4.1,9.1-2.8,14.8c1.2,5.1,1.3,10.9,0.2,15.9c-1.8,7.9-5.1,15.4-7.7,22.9c5.4,3.4,11.6,7.1,18.1,11.2
		c3.1-7.8,9.6-7.8,16.4-7.9c11.1-0.1,22.2-0.7,33.3-1.1c0.3,0,0.5-0.4,1.2-0.9c-0.4-7.6-0.9-15.5-1.1-23.5c0-1.5,0.8-3.8,2-4.4
		c6.6-3.5,10.2-9.9,14.8-15.3c7.6-9,15.9-16.5,27.4-20.2c2-0.6,4.3-3.9,4.5-6.1c0.8-8.4,1-16.8,1.2-25.3c0.2-5.9,0-11.9,0-18.3
		c2.3,0,4.1,0,5.9,0c20.8,0.3,41.5,0.7,62.3,0.9c2.5,0,5.4-0.6,7.4-1.9c8-5.4,17-8.1,26.3-9.9c3.3-0.6,4.6-2,4.2-5.2
		c-2.3-17.6,2.1-33.5,11.7-48.3c1.3-2,2.6-4.3,3.1-6.6c0.4-1.7,0.1-4.3-1-5.4c-5.7-5.5-11.7-10.7-17.7-15.9
		c-12.6-11-25.4-22-38-33.1c-10-8.8-19.8-17.9-29.9-26.8c-16.5-14.6-33.1-29.2-49.7-43.7C1797.5,629.5,1793.2,626,1788,621.6z
		 M1424,703.2c0-4.5-0.2-8.4,0-12.2c0.2-4.1,0.9-7.9,5.8-9.5c5.4-1.8,10.6-4.3,15.8-6.5c13.9-5.9,27.8-11.9,41.8-17.8
		c2.8-1.2,3.6-3,2.4-5.7c-2.1-4.8-4.4-9.5-6.2-14.3c-6.3-16.7-12.3-33.5-18.6-50.3c-2.4-6.5-4.9-13-7.9-19.3
		c-3.7-7.8-8.7-15.1-11.7-23.1c-3.6-9.6-8.6-17.9-16.2-24.9c-3.2-3-6-6.6-8.4-10.2c-12.7-19.4-25.3-38.8-37.8-58.3
		c-2.4-3.7-5.5-4.4-9.1-3c-7.5,3-14.6,3-21.7-1c-1.2-0.7-2.9-1.2-4.2-1c-10.3,1.5-10.6,1.8-12.1,12.3c-0.1,0.6-0.4,1.2-0.6,1.9
		c-1.1,3.6-3.5,7.4-2.9,10.6c1,5.6,4,10.8,6.1,16.2c2.1,5.2,6,10.5,6.1,15.7c0.2,10,6.6,18.6,4.8,29.1c-0.9,5.3,2,11.5,4.1,16.9
		c4,10.5,5.3,21.1,2.5,32c-0.9,3.4-2.5,6.8-2.9,10.3c-0.7,6.7-0.3,13.6-1.3,20.2c-1.1,6.5-0.2,12.4,2.2,18.5c1,2.6-0.2,6.1-0.5,9.1
		c-0.2,2.4-1,4.7-0.9,7c0.4,10,2.4,20.1-6.7,28c-1.9,1.7-3.5,6.5-2.5,8.4c3.5,6.8,2.9,13.1,1,20c-1.5,5.2-1.9,10.8-2.9,16.7
		c7.5-1.1,5.9,4.2,6.9,7.8c16.5-7.3,33-14,49-21.8C1406,700.9,1414.4,700.3,1424,703.2z M1634.4,763.7c-0.5-8.2-0.8-16.2-1.4-24.2
		c-0.2-2.2-0.6-4.6-1.6-6.6c-12.3-24.4-24.6-48.8-37.1-73.1c-1.2-2.4-3.6-4.5-5.9-6c-6.7-4.3-13.6-8.3-20.5-12.4
		c-5.6-3.3-10.8-5.8-17.6-1.8c-5.2,3.1-11.5,4.3-17.3,6.4c-13.4,5-27,9.7-40.2,15.1c-19.8,8-39.3,16.6-58.9,25
		c-1.5,0.6-3.4,2.1-3.6,3.4c-0.8,4.6-1.1,9.4-1.5,14.3c8.5,1.9,16.3,3.6,24,5.5c25.3,6.2,50.6,12.5,76,18.5c3.5,0.8,4.5,2.2,4.4,5.5
		c-0.2,8.4-0.1,16.8-0.1,25.4c1.5,0.3,3.6,1.1,5.6,1.1c10.6,0.4,21.2,0.7,31.8,1c11.9,0.4,23.9,0.7,35.8,1c0.8,0,1.6,0.3,2.4,0.3
		C1617.3,762.8,1626,763.2,1634.4,763.7z M1937.8,771.2c0.5,0.3,1,0.5,1.5,0.8c2.7-4.8,5.4-9.5,8.1-14.3c-0.6-0.3-1.3-0.7-1.9-1
		C1942.9,761.5,1940.4,766.4,1937.8,771.2z"/>
	<path id="_x32_213" class="st0" d="M2800.3,1745.9c-6.7-1.6-12.6-3.3-18.6-4.5c-2.2-0.5-4.8-0.8-6.9-0.1c-6.3,2-12.4,0.8-18.7-0.1
		c-10.2-1.6-20.5-2.2-30.6-4.3c-8.7-1.8-17.2-4.7-25.6-7.6c-5.3-1.9-10.2-5.1-15.5-7.1c-5-1.8-10.3-2.8-15.4-4.1
		c-1.1-0.3-2.6,0.2-3.4-0.4c-6.6-4.9-14.2-3.5-21.5-3.7c-1.9-0.1-4.1-0.4-5.6-1.3c-6.4-4-12.4-8.4-18.8-12.4c-8-5-16.9-4.6-25.8-4
		c-8,0.6-15.9,2-23.9,2.7c-5.5,0.4-11.1,0.4-16.6,0c-11.2-0.8-21.2,3.9-31.6,6.4c-32.2,7.9-64.4,16.3-96.4,24.8
		c-14.8,3.9-29.4,8.4-43.9,13c-9.3,3-18.5,3.9-28.4,3.3c-14.7-0.9-29.3,1.8-42.1,10.4c-3.5,2.4-7.2,4.5-10.7,6.8
		c-4.1,2.6-7.4,1.9-9.8-2.1c-9-15.5-17.9-31.1-26.8-46.7c-8.8-15.4-17.7-30.9-26.5-46.3c-2.6-4.5-6.3-5.4-11.8-4.2
		c-14,3.1-28,5.7-42,8.7c-2.9,0.6-5.8,2.1-8.3,3.8c-10,6.5-21,9.3-32.7,10.2c-2.5,0.2-5.2,0.7-7.4,1.9c-9.2,4.9-18.2,10.3-27.4,15.2
		c-2.3,1.2-5.4,2-8,1.7c-6.6-0.9-12.4,1.4-17.7,4.5c-2.7,1.6-4.3,1.2-6.6,0.1c-11.4-5.6-22.8-11.2-34.4-16.5
		c-8.2-3.8-21-0.2-26.6,6.8c-1.3,1.6-3.6,2.9-5.6,3.1c-13.1,1.2-26.3,2.1-39.4,3.2c-6.4,0.5-12.7,1.3-19.1,1.9c-1.5,0.1-2.9,0-5.9,0
		c3.5-11.1,7.1-21.4,9.9-31.9c1.5-5.8,1.7-12,1.9-18c0-1.1-2.2-2.9-3.7-3.4c-7.9-2.8-16-5.4-24.4-2.5c-3.3,1.1-5,1.1-6.7-2.5
		c-3-6.4-9.7-8.5-15.4-11.3c-6.4-3.2-12.1-6.4-15.5-13.4c-2.3-4.6-7.8-6.4-12.9-8.1c-5.4-1.8-10.3-5.4-15.2-8.5
		c-10.7-6.9-21.4-13.8-31.6-21.3c-6.1-4.5-11.6-9.9-16.9-15.3c-3.7-3.8-8.1-5.5-13.1-5.6c-8.2-0.1-14.6-4.1-20.9-8.5
		c-0.7-0.5-1.3-2.4-1-2.9c8.6-13.8,2.7-27.4,0.2-41.3c-1.7-9.5-6.1-15.8-13.6-21c-6-4.1-7.4-10.9-7.7-17.3
		c-0.3-7.3-1.6-14.1-5.3-20.1c-5.1-8.3-5.6-16.7-2.9-25.8c2.1-6.8,3.4-13.9,4.9-20.9c0.7-3.4-2.8-8.3-7-9
		c-8.4-1.4-15.4-5.5-21.3-11.2c-2.8-2.7-4.6-6.6-6.3-10.3c-1.6-3.5-1.8-7.7-3.8-11c-2.1-3.5-4.8-7.3-8.3-9.2
		c-8.5-4.9-17.5-8.8-26.8-13.4c5.4-8.6,11.1-17.7,16.9-26.8c3.6-5.7,7.2-11.3,10.8-16.9c2.1-3.4,1.7-6.6-0.2-10.1
		c-6.9-12.6-13.6-25.3-20.5-38c-4.8-8.9-9.8-17.7-14.7-26.6c-5.9-10.7-11.8-21.5-17.9-32.1c-0.7-1.2-2.7-2.4-4.2-2.4
		c-12.3,0.1-24.5,0.4-36.8,1.1c-2.3,0.1-4.8,2.3-6.7,4c-6.4,5.5-12.7,11.3-19,16.9c-0.7,0.6-1.7,0.8-2.7,0.9
		c-5.7,0.7-11.5,0.9-17,2.3c-2.2,0.5-4.1,3.2-5.6,5.3c-2.1,3-3.2,6.8-5.7,9.3c-3.1,3.2-7,6-11,8.1c-6.8,3.5-14.1,0.9-21.2,0.6
		c-4.6-0.2-10.2-0.4-13.6-3c-7.9-5.9-17-4.7-25.7-6.7c-9.3-2.1-18.9,1.5-28.1-2.6c-1.7-0.7-6,0.8-6.8,2.5c-2.5,5.1-7.9,4.4-11.7,6.9
		c-0.5,0.4-2.9-0.8-3.3-1.7c-0.8-1.9-1-4.1-1.2-6.2c-0.7-9.1-3-11.7-12.1-11.6c-5.4,0-10.8,0.8-16,2.1c-9.1,2.2-18.1,5.1-28.4,8.1
		c6.9-13.3,20.2-16.2,30.1-23.6c0.1,0.5,0.1,1,0.2,1.5c3,0.5,6.7,2.3,8.8,1.1c2-1.1,2.3-5.3,3.4-8c1-2.6,2.1-5.3,3.3-7.9
		c1-2.2,2.1-4.4,3.4-6.9c5.5,3.5,11.4,6.9,17.2-1.4c2.4,1.3,5,2.6,7.7,4c0.9,0.4,1.8,0.8,2.7,1.1c6.6,1.7,13.2,3.2,19.7,5
		c1.2,0.3,2.1,1.9,3,3c1.4,1.9,2.3,5,4,5.5c1.8,0.5,5.2-1,6.3-2.6c2.5-4,5.6-4.4,9.9-4.2c2.4,0.1,5.8-1.2,7.2-3c2.4-3.2,4.4-2.2,7-1
		c1.3,0.6,2.7,1.1,4.1,1.2c6.5,0.3,7.7-1.5,6-7.4c3.8-0.9,8.2-1,11.2-3c3.2-2.2,5.5-6.1,7.3-9.7c2.6-5,1.5-9.5-2.4-13
		c1.1-1.2,2.9-2.3,3.2-3.7c0.3-1.2-0.9-2.9-1.8-5.1c1.8,0.3,3.3,0.9,4.6,0.7c2.4-0.4,6.1-0.7,6.8-2.1c0.9-2-0.5-5-1.1-7.5
		c-0.3-1.1-1-2.1-1.8-3.6c2.1-0.3,3.6-0.4,5-0.7c1.4-0.3,2.8-0.8,5.2-1.5c-0.8-4.1-1.2-8.5-2.4-12.6c-3-10.3-7-20.3-9.5-30.7
		c-2.8-11.8-4-24.1-6.8-36c-1.5-6.2-4.7-12.1-7.4-18c-2.9-6.4-2.1-8.1,4.8-8c9.1,0.2,18.2,0.9,27.3,0.9c15.6-0.1,31.2-0.6,46.8-0.9
		c0.8,0,1.7,0,2.5,0c44.4-0.3,88.9-0.6,133.3-1c24.3-0.2,48.5-0.6,72.8-1.1c1.8,0,4.2-1.3,5.4-2.8c7.8-9.8,15.4-19.9,23.3-30.1
		c3.4,0.6,6.9,1.4,10.4,1.9c3.1,0.5,4.7,2.1,5.7,5.2c2.2,7,4,8.4,13.4,11.4c0,2.7-0.4,5.6,0.1,8.3c1.5,9.5,9.5,15.8,19.3,16.4
		c2.6,0.1,5.2,1.9,7.5,3.4c6.5,4.1,12.7,8.4,19.2,12.5c2.1,1.3,4.5,2,6.6,3.2c1.6,1,2.9,2.5,4.4,3.7c1.1,0.8,2.4,2,3.5,1.9
		c9.9-0.5,19.7-1.2,29.6-1.8c6.4-0.4,12.9-0.8,19.3-1.1c8.3-0.4,16.6-0.4,24.8-1.1c7.9-0.6,15.4,1,23.2,1.7
		c6.7,0.7,13.6-1.2,20.5-2.2c11.8-1.7,23.6-3.6,35.3-5.5c7.7-1.3,15.4-2.6,23.1-4.1c0.9-0.2,2.4-1.2,2.4-1.9c0.3-6.5,5.8-7.7,10-9.9
		c5.5-2.8,11.5-4.6,16.9-7.5c5.1-2.8,9.7-6.4,8.4-13.6c-0.5-2.7-0.1-5.5,0.9-8.5c5.4,8.3,10.7,16.5,16,24.8
		c7.1,11.1,14,22.4,21.4,33.4c1.5,2.3,4.5,3.7,6.9,5.4c9.6,6.8,19.5,13.2,28.6,20.6c4.4,3.6,8.1,8.8,10.7,13.9
		c1.6,3.2,1.1,8,0.2,11.7c-1.1,4.8,0.6,11.1,5.1,11.8c2.3,0.4,5.5-0.6,7.4-2c11.1-8.7,21.9-17.8,32.9-26.6c0.9-0.7,2.1-1.2,2.5-1.4
		c2.7,8.6,6,16.6,7.7,25c2.2,10.5,3.3,21.3,4.6,32c1.5,11.7,2.1,23.6,4.4,35.1c1,4.9,5.4,9.1,7.9,13.8c0.8,1.6,1.2,4,0.7,5.7
		c-3.2,10.4-6.7,20.6-10,31c-2.3,7.2-1.1,14,3.1,20.1c6.8,9.7,10.9,20.4,14.1,31.9c3.7,13.3,11.6,23.2,26,28.2
		c9,3.1,16.7,10.5,24.4,16.8c3.7,3,6,7.6,8.8,11.6c0.9,1.3,1.5,3.1,1.3,4.6c-1,10.3,5,18.4,8.2,27.4c2.5,7,7.1,11.7,13.4,15
		c6.6,3.5,11.6,1.8,13.5-5.5c1.5-5.9,5.2-8.4,9.9-10.9c4-2.1,8-4.7,11.3-7.8c1.8-1.7,2.5-4.8,2.9-7.4c1.3-7.6,2-15.2,3.4-22.7
		c0.3-1.8,2.4-3.4,3.9-4.7c4.7-3.8,9.8-7.2,14.3-11.2c7.4-6.6,14.6-13.5,21.6-20.6c4.2-4.2,7.7-9,11.6-13.4
		c8.8-9.9,19.9-15.7,32.7-18.8c9.2-2.3,13.6-2.7,13.6,12c0,7.7-1.4,15.7,0.4,23c1.8,7.7,5.8,15.2,10.4,21.7
		c3.8,5.2,5.4,5.7,1.5,10.3c-5.1,6.1-6.2,13.6-8.1,20.7c-6.1,22.8-11.9,45.7-17.8,68.5c-1.5,5.9-0.5,8.8,4.4,12.1
		c28.1,18.5,56.2,36.9,84.3,55.3c22.8,14.9,45.7,29.7,68.5,44.6c11.6,7.6,23,15.7,35,22.5c6.6,3.8,9.9,9.1,10.2,15.8
		c0.6,13.6,5.5,26.1,7.9,39.2c1.2,6.5,0.9,13.2,1.3,19.8c0.5,8.1,2.3,16,7.5,22.2c3.2,3.8,7.8,6.4,11.8,9.4
		c7.4,5.6,12.7,12.9,16.8,21.2c5.2,10.7,10.2,21.5,15.8,32c2,3.7,4.9,7.1,8,9.9C2799.7,1737.5,2798.9,1741.7,2800.3,1745.9z"/>
	<path id="_x32_210" class="st0" d="M1496.8,653.5c-3.4-8.1-6.8-16.1-10.1-24.3c-4.4-11-8.8-22.1-13-33.2c-1.3-3.5-2.3-7.1-2.9-10.8
		c-2.1-11.7-8.7-21.3-14.3-31.4c-3.3-6-5.4-12.5-8.6-18.6c-2.4-4.6-4.9-9.4-8.4-13.1c-10.6-11.1-19.3-23.5-27.3-36.6
		c-8-13.1-16.3-25.9-24.8-38.7c-3.5-5.2-8.3-6.1-14.6-4.3c-3.4,1-6.9,1.7-10.4,2.3c-1.1,0.2-2.4-0.6-3.5-1.4
		c9.4-0.5,17.8-3.5,25.9-7.7c1.2-0.6,2.8-0.6,4.2-0.8c4.5-0.6,9-1.5,13.6-1.7c6.8-0.3,13.7-0.2,20.5-0.2c4,0,8.1-0.1,12.1-0.1
		c8.4,0,16.8,0.4,25.1-0.1c9.5-0.6,18.9-1.9,28.3-3.2c11.8-1.7,23.5-3.7,35.3-5.6c2.1-0.3,4.3-0.5,6.2-1.2c3.8-1.3,4.9-7.1,1.8-10.3
		c-4.9-5.1-10-10.1-15.5-15.5c4.4-2.4,9.6-5.2,14.8-8.1c27.8-15.3,55.5-30.6,83.3-45.8c12-6.6,24.2-13,36.2-19.5
		c24.7-13.5,49.2-27.1,73.9-40.5c16.1-8.8,32.2-17.4,48.3-26.1c10.6-5.8,21.1-11.8,31.9-17.2c2.8-1.4,6.4-1.6,9.7-1.5
		c1.2,0,3.1,2.3,3.3,3.7c0.3,2.5-0.2,5.2-0.7,7.8c-0.9,4.7,2.9,14.3,7,16.3c4.8,2.4,7.8,5.9,11,10.2c6.4,8.7,14.4,16.1,21.6,24.2
		c2.4,2.8,4.1,6.2,6.2,9.3c2.9,4.3,5.7,8.7,9,12.7c4.7,5.7,9.7,11.2,14.7,16.7c0.7,0.8,1.7,1.8,2.7,2c8.3,2.1,11.9,9.6,17.1,15.1
		c6.7,7.2,12,15.7,19.1,22.5c6.5,6.2,7.1,13.7,7.4,21.4c0.7,14.6,0.8,29.2,1.1,43.8c0.1,3.8,2,5.5,5.3,7.3c11.4,6.1,24,8,36.3,11
		c7,1.7,12.9,5.6,18.8,10.8c-12.3,3.9-23.8,7.8-35.5,11c-22.9,6.3-45.3,14.1-67.4,22.9c-21.8,8.7-43.8,16.8-65.6,25.2
		c-10.9,4.2-21.9,8.3-32.8,12.6c-3.4,1.3-4.9,4-5,7.7c-0.3,16.3-0.6,32.5-1,48.8c-0.1,3.9,0.4,8.4-1.2,11.7
		c-6.1,12.8-2.3,26.2-2.6,39.2c-0.7,30.3-0.3,60.7-0.2,91c0,6.9,0.5,13.9,1,20.8c0.2,2.9-0.8,4.1-3.5,5.4c-2.9,1.4-5,4.4-7.1,6.4
		c-1.8-2.6-3.6-7.6-6.8-8.8c-2.7-0.9-6.9,2.7-10.9,4.5c-1.1-2.5-2.5-6.5-4.7-10c-4.6-7.5-12.5-9-19.6-4.3c-1.1,0.7-2.2,1.5-3.2,2.2
		c-4.6,3.1-8.9,4.7-13.8,0c-4.3-4.1-9.3-2.3-14.2-0.4c-3,1.1-6.3,2-9.4,2c-4.7,0-8.6,1.1-12.4,3.9c-5.1,3.8-7.8,3.3-12.4-1.3
		c-5.2-5.1-8.6-5.9-12.8-2.4c-1.6,1.4-2.2,4-3.2,6.1c-0.8,1.6-1.4,3.3-2.1,5c-0.5,0-1.1,0.1-1.6,0.1c-2.4-5.2-5.6-10.1-7.1-15.5
		c-1.4-5-1.5-10.5-1.1-15.7c0.5-6.3-1.8-11.5-4.5-16.8c-11.7-22.9-23.2-45.8-34.9-68.7c-1-2-2.5-4.1-4.3-5.2
		c-9.9-6-19.9-11.9-30.1-17.3c-2.5-1.3-6.5-1.8-9.1-0.8c-18.4,6.5-36.7,13.5-55,20.3C1499,652.8,1497.7,653.2,1496.8,653.5z"/>
	<path id="_x32_212" class="st0" d="M1788,621.6c5.2,4.4,9.5,7.9,13.6,11.6c16.6,14.6,33.2,29.1,49.7,43.7
		c10,8.9,19.8,17.9,29.9,26.8c12.6,11.1,25.3,22,38,33.1c6,5.2,12,10.4,17.7,15.9c1.1,1.1,1.4,3.7,1,5.4c-0.5,2.3-1.8,4.6-3.1,6.6
		c-9.6,14.7-14,30.7-11.7,48.3c0.4,3.3-0.9,4.6-4.2,5.2c-9.3,1.8-18.3,4.5-26.3,9.9c-2,1.4-4.9,2-7.4,1.9
		c-20.8-0.2-41.5-0.6-62.3-0.9c-1.8,0-3.6,0-5.9,0c0,6.4,0.1,12.3,0,18.3c-0.2,8.4-0.3,16.9-1.2,25.3c-0.2,2.2-2.5,5.4-4.5,6.1
		c-11.5,3.7-19.8,11.3-27.4,20.2c-4.5,5.3-8.2,11.7-14.8,15.3c-1.1,0.6-2,2.9-2,4.4c0.2,7.9,0.7,15.8,1.1,23.5
		c-0.7,0.5-0.9,0.9-1.2,0.9c-11.1,0.4-22.2,1-33.3,1.1c-6.8,0.1-13.4,0.1-16.4,7.9c-6.5-4-12.7-7.8-18.1-11.2
		c2.6-7.6,5.9-15.1,7.7-22.9c1.2-5.1,1-10.8-0.2-15.9c-1.3-5.7,0.4-10.1,2.8-14.8c1.1-2.2,2.6-4.8,2.4-7.2
		c-0.4-5.6,2.6-8.4,6.7-11.1c1.7-1.1,3.4-3.1,4-5c1.5-4.9,2.5-10.1,3.4-15.2c0.3-1.5-0.3-3.3-1-4.7c-1-2.1-1.9-3.7,0.2-5.9
		c0.9-0.9,0.6-4.8-0.1-5.1c-6.8-3.3-12.8-9-21.3-7.8c-2.9,0.4-5.8,1-8.6,2c-5.8,2-10.4-1.6-15.1-3.6c-19.7-8.6-39.3-17.6-58.9-26.4
		c-15.6-6.9-31.3-13.9-47.1-20.4c-5.3-2.2-5.7-5.5-4.5-10.9c11.3,0.7,22.8,1.7,34.3,2.1c11.4,0.4,22.9,0.1,33.8,0.1
		c3,7.9,4.8,8.9,10.8,9.1c4.1,0.1,5.5-2.3,6.5-5.4c0.7-2.1,1.2-4.3,2-7.2c1.9,1.1,3.7,1.5,4.5,2.6c2.5,3.6,5.7,4.9,10.1,5.4
		c4.1,0.5,7.2,0.7,10.2-2.6c1.7-1.8,4.3-3.5,6.7-3.7c6-0.6,11.9,0.1,17.7-2.9c1.8-0.9,6,1.3,8.3,3.1c3.8,3,7.2,3.4,11.2,0.7
		c2.4-1.6,5.2-2.7,7.7-4.2c6.8-4.3,11.8-2.7,14.6,5c0.7,2,0.9,4.3,2.1,5.9c1.5,2,3.5,4.1,5.8,5c2.6,1.1,5.1-0.2,6.2-3.3
		c0.4-1.2,1.2-2.4,2.3-4.4c1.4,3.3,2.1,4.5,2.4,5.9c0.9,4,3.1,5.3,7.3,5.2c4-0.1,5.4-2.3,6.7-5.3c0.5-1.1,1.3-2.6,2.2-2.7
		c4.8-0.8,5.6-4.5,5.6-8.1c-0.1-15.3-0.5-30.5-0.8-45.8c0-0.2,0-0.3,0-0.5C1788,687.4,1788,655.2,1788,621.6z"/>
	<path id="_x32_208" class="st0" d="M1424,703.2c-9.6-2.9-18-2.3-26.7,1.9c-16,7.7-32.4,14.5-49,21.8c-1-3.6,0.6-8.9-6.9-7.8
		c1-5.9,1.5-11.5,2.9-16.7c1.9-6.9,2.6-13.2-1-20c-1-1.9,0.5-6.8,2.5-8.4c9.1-7.9,7.1-18,6.7-28c-0.1-2.3,0.7-4.7,0.9-7
		c0.3-3.1,1.5-6.6,0.5-9.1c-2.5-6.1-3.3-11.9-2.2-18.5c1.1-6.6,0.6-13.5,1.3-20.2c0.4-3.5,2-6.8,2.9-10.3c2.8-10.9,1.5-21.5-2.5-32
		c-2-5.4-4.9-11.6-4.1-16.9c1.8-10.6-4.7-19.1-4.8-29.1c-0.1-5.3-4-10.5-6.1-15.7c-2.2-5.4-5.1-10.6-6.1-16.2
		c-0.6-3.2,1.9-7.1,2.9-10.6c0.2-0.6,0.5-1.2,0.6-1.9c1.5-10.4,1.8-10.8,12.1-12.3c1.3-0.2,3,0.3,4.2,1c7.1,4,14.3,4,21.7,1
		c3.6-1.4,6.7-0.8,9.1,3c12.5,19.5,25.1,38.9,37.8,58.3c2.4,3.7,5.2,7.3,8.4,10.2c7.6,6.9,12.5,15.3,16.2,24.9c3,8,8,15.3,11.7,23.1
		c3,6.3,5.5,12.8,7.9,19.3c6.3,16.7,12.3,33.6,18.6,50.3c1.8,4.9,4.2,9.5,6.2,14.3c1.2,2.7,0.4,4.5-2.4,5.7
		c-14,5.9-27.9,11.9-41.8,17.8c-5.2,2.2-10.4,4.7-15.8,6.5c-4.9,1.6-5.6,5.4-5.8,9.5C1423.8,694.8,1424,698.6,1424,703.2z"/>
	<path id="_x32_209" class="st0" d="M1634.4,763.7c-8.4-0.4-17-0.9-25.7-1.3c-0.8,0-1.6-0.3-2.4-0.3c-11.9-0.4-23.9-0.7-35.8-1
		c-10.6-0.3-21.2-0.6-31.8-1c-2.1-0.1-4.1-0.8-5.6-1.1c0-8.6-0.1-17,0.1-25.4c0.1-3.4-0.9-4.7-4.4-5.5c-25.4-6-50.6-12.4-76-18.5
		c-7.7-1.9-15.5-3.6-24-5.5c0.5-4.9,0.7-9.6,1.5-14.3c0.2-1.3,2.2-2.8,3.6-3.4c19.6-8.4,39.2-17,58.9-25
		c13.3-5.4,26.8-10.1,40.2-15.1c5.8-2.1,12.1-3.3,17.3-6.4c6.8-4.1,12-1.6,17.6,1.8c6.9,4.1,13.8,8.1,20.5,12.4
		c2.3,1.5,4.7,3.6,5.9,6c12.5,24.3,24.8,48.7,37.1,73.1c1,2,1.4,4.3,1.6,6.6C1633.5,747.5,1633.9,755.5,1634.4,763.7z"/>
	<path id="_x32_211" class="st0" d="M1379.4,1215.3c3.8-8.3,3-9.6-6.7-17.1c-9.7-7.5-19-15.7-28.5-23.5c-10.6-8.7-21.4-17.4-32-26.1
		c-4.6-3.8-8.8-7.9-13.6-11.4c-5.7-4.1-3.6-10.3-4.4-15.5c-1.9-13-2.9-26.1-4.2-39.2c-0.7-7-1.5-14-2-21.1c-0.1-1.8,0.6-3.9,1.5-5.5
		c2.7-5,6.3-9.6,8.5-14.8c1.3-3.2,1.9-7.5,0.8-10.6c-5.4-15-11.6-29.7-17.4-44.6c-3.5-8.9-7.8-17.4-8.7-27.3
		c-0.6-7.2-5-10.5-12.1-10.9c-12.8-0.8-25.9-2.5-36.7-10c-8.7-6-17.4-12.2-23.4-21.4c-1.5-2.4-4.3-3.9-7.1-6.4
		c2.3-2.1,4.2-4.4,6.6-5.9c10.9-6.8,22.2-12.7,34.8-16.2c7.5-2.1,8.1-6.9,8.7-14.5c0.7-7.4-3.1-14.4-0.1-22.1
		c1.7-4.3,0.1-9.8,0.3-14.8c0.1-2.7,0.4-5.7,1.5-8.1c4.1-8.8,9.2-17.1,10.9-27.1c1.7-10.3,0.6-20.3-1.7-30.3c-1-4.3-0.7-7.2,4.1-9.4
		c24.7-11.2,49.1-22.9,73.8-34.2c2.9-1.3,6.5-0.9,10-1.3c0.1,0.1,0.4,0.3,0.5,0.6c0.8,8,0.9,8.3,8.5,5.2
		c11.7-4.9,23.2-10.4,34.9-15.5c7.6-3.4,15.1-6.9,22.9-9.8c2.3-0.9,5.5-0.1,8.1,0.5c20.4,4.8,40.8,9.7,61.3,14.6
		c16.4,3.9,32.9,7.7,48.6,11.4c0,9,0.2,17.6-0.1,26.1c-0.1,4.2,0.9,6,5.5,5.8c9.9-0.3,19.8-0.1,30.1-0.1c0.2,2.4,0.6,3.7,0.4,4.9
		c-1.1,6.2,2,9,7.4,11.3c29.6,12.9,59,26.1,88.5,39.2c8.6,3.8,17.1,8.2,26,11.3c3.9,1.4,8.9,1.2,12.9,0.1c7.4-2.1,13.7-0.9,18.2,2.7
		c1.5,4.7,2.8,8.3,3.7,12c0.5,2.2,0.5,4.7,0.3,7c-0.8,7.6-6.9,11.6-11.5,16.5c-0.8,0.8-2.3,1.9-2.2,2.6c2.1,9.7-7.7,17.1-5.3,26.8
		c0.4,1.7,0.8,3.5,0.9,5.3c0.2,3.8,0.8,7.9,0,11.5c-1.3,5.4-3.5,10.7-5.9,15.8c-1.8,3.7-4.8,5.8-9.6,4.1c-13-4.5-26-3.1-39.2-0.3
		c-4,0.8-8.5-0.8-12.8-0.6c-4.2,0.2-8.4,1.2-12.6,1.9c-2.3,0.4-4.5,0.9-6.8,1c-7.3,0.1-14.7,0.2-22,0c-5.3-0.1-10.3-0.1-14.7,4
		c-2.2,2.1-5.1,3.2-8.2-0.1c-2.3-2.5-5.6-2.9-9.4-2c-10.8,2.5-21.7,4.6-32.6,6.5c-7.3,1.3-4.8,7.3-6.1,11.5c-0.6,2-0.1,4.3-0.1,6.9
		c-10.7,0.8-21.3,1.5-33.7,2.4c3.7,6.3,6.6,11.5,9.8,16.5c9,14.4,18.1,28.7,26.9,43.2c1.1,1.9-0.1,5,0.7,7.2c1.5,4.6,3.7,9,5.2,13.6
		c1.7,5.4,2.8,10.9,4.2,16.4c0.7,2.7,1.4,5.3,2,8c1.5,7.7,2.5,15.5,4.6,23c3.3,11.9,7.3,23.5,11.1,35.6c-0.9,0.2-2.2,0.4-3.4,0.7
		c-3.2,0.9-5.3,2.3-5.5,6.4c-0.3,5.1-4.4,7.8-12,8.8c0.5,2.3,1,4.6,1.5,7.3c-4.4,5.8-4.4,5.8,4.1,12.2c-2.4,3.7-4.5,7.6-7.3,11.1
		c-0.8,1-3.3,0.9-5.1,0.9c-7.7,0.1-7.7,0.1-8.4,7.7c-2.3-0.6-4.5-1.3-6.8-1.6c-3.8-0.6-6.7,1-9.2,3.7c-0.8,0.9-2.5,1.9-3.5,1.7
		c-7-1.5-7.3-1.5-12.8,5.1c-0.9-4.8-3.8-5.9-8.4-6.9c-8.8-1.9-17.6-4.2-25.8-8.5c-4-2.1-9-3.2-11.8,2.8c-0.3,0.5-2.6,0.6-3.7,0.1
		c-1.3-0.6-2.1-2.1-3.3-3c-3.7-3-7-2.2-9,2.2c-1.3,2.8-2.8,5.5-4.1,8.3c-0.8,1.7-1.8,3.4-2.2,5.3c-0.4,1.9-0.1,3.9-0.1,6.4
		c-10.1-3.9-16.8,2.7-24.2,6.7c-4.3,2.3-8.3,4.9-12.5,7.4C1379.3,1215.2,1379.4,1215.3,1379.4,1215.3z M1379.4,1215.3
		c-6.9,3-13.8,5.9-21.6,9.3c3.1,3.5,5.5,6.2,8.8,10c4.7-7.2,8.6-13.3,12.6-19.4C1379.3,1215.2,1379.4,1215.3,1379.4,1215.3z"/>
	<path id="_x32_207" class="st0" d="M1497.4,971c2.9,0,4.5,0.1,6.1,0c6.8-0.3,13.5-0.5,20.3-1.1c1.2-0.1,2.9-2,3.1-3.3
		c0.8-4.5,1-9.1,1.5-14.5c9.1-2,18.6-4,28-6.1c4.4-1,8.1-0.4,12.3,2c5.1,2.9,10.7,1.1,15.5-2.6c1.5-1.2,3.7-2.1,5.6-2.2
		c7.2-0.3,14.3,0.2,21.5-0.2c6.3-0.4,12.6-1.9,18.9-2.5c2.9-0.3,5.8,0.7,8.7,0.5c7-0.4,14.2-0.6,21.1-2c8.8-1.9,17.2-0.1,24.9,2.9
		c9.5,3.7,18.4,9,27.2,14.1c4.8,2.8,6.9,3.4,9.4-1.2c3.5-6.3,9.5-5.1,14.6-5.5c11-0.9,22.2-1,33.3-1.1c3.6,0,4.8-1.4,4.5-4.7
		c-0.7-6.5-1.4-13-1.9-19.6c-0.2-2.4,0-4.2,2.5-6.3c5.2-4.4,9.8-9.7,14.2-15c7-8.4,14.7-15.6,25.6-18.8c3.9-1.2,6.8-3.9,6.8-9.1
		c0.1-8.9,1.4-17.7,1.7-26.6c0.2-4.4-0.7-8.8-1.1-13.6c10.7,0,20.9,0,31.1,0c2.5,0,4.9,0.5,7.4,0.5c6,0.1,12-0.2,18,0.1
		c8.7,0.4,16.6-0.7,24.5-5.6c5.7-3.6,13.1-4.6,19.8-6.4c3.8-1,5.9-2.3,5.6-6.9c-0.5-8.3-0.1-16.6,0.3-25.1
		c-0.7,10.5,8.4,16.1,11.9,24.4c1.4,3.3,4.2,6,6.8,8.6c1.2,1.2,3.4,1.8,5.2,1.9c9,0.2,18.1,0.1,27.1,0.1c31,0,62,0,93,0
		c0.6,0,1.3,0.1,2.1,0.2c2.1,13.7,2.5,27.2-1.8,40.5c-3.5,10.9-0.6,18.4,8.3,25c5.8,4.3,9.7,10.4,11.8,17.3
		c1.7,5.6,3.6,10.7,8.2,14.7c3.6,3.1,6.6,6.9,9.7,10.6c1,1.2,2,2.9,2,4.3c0,9.9,6.2,17,11.1,24.6c7.3,11.4,14.7,22.7,22,34.1
		c0.4,0.7,1,1.4,1.1,2.1c0.1,4.8,0.1,9.7,0.1,14.5c0,6.2-1.9,8.6-7.7,11c-9.9,4.1-19.7,8.3-27.9,15.7c-2.5,2.2-6.9,2.6-10.5,3.2
		c-15.5,2.5-31.2,3.9-46.5,7.4c-10.8,2.5-20.9-0.2-31.3-0.1c-19.3,0.3-38.6,1.7-57.9,2.8c-7.4,0.4-14.9,2.4-22,1.5
		c-4.6-0.6-8.7-5.1-12.9-8c-1.5-1.1-2.5-3-4.1-3.9c-9.2-5-17.8-10.6-29.1-11.1c-7.4-0.3-14.9-6.6-13.2-15.5c0.9-4.7-0.8-8.3-6-9.8
		c-4.6-1.3-8-4.3-8.9-9.3c-0.5-3-1.8-4.6-5.3-5.3c-4.9-1.1-9.4-3.8-14.3-5.3c-1.2-0.4-3.5,0.9-4.4,2.1c-5.5,7.1-10.8,14.4-16.1,21.6
		c-2.5,3.4-4.9,7-7.9,10c-1.2,1.3-3.8,1.8-5.7,1.8c-26,0.1-52-0.1-78,0.1c-27.3,0.2-54.5,0.7-81.8,1c-40.1,0.4-80.2,0.6-120.3,1.1
		c-3.5,0-5.2-1.3-7-4.2c-9.3-15.2-18.8-30.2-28.2-45.3C1499.5,974.6,1498.8,973.4,1497.4,971z M1833.3,879c0.1,0,0.9,0,1.4-0.3
		c7-4.2,13.9-8.4,20.8-12.7c1-0.6,1.7-1.6,2.7-1.9c8.1-2.8,10.1-10.2,4.2-16.1c-1.4-1.4-2.9-2.8-4.2-4.2c-2.1-2.3-4.2-2.5-6.3-0.1
		c-4,4.4-8.7,4.9-14,2.9c-2.7-1-5.6-1.6-8.4-2.3c-3.6-0.8-5.6,0-5.5,4.4c0,5.9-0.6,11.8-0.9,17.7
		C1822.6,872.5,1827.7,879.1,1833.3,879z M1939.3,772c2.7-4.8,5.4-9.5,8.1-14.3c-0.6-0.3-1.3-0.7-1.9-1c-2.5,4.9-5.1,9.7-7.6,14.6
		C1938.3,771.5,1938.8,771.8,1939.3,772z"/>
	<path d="M1833.3,879c-5.5,0.1-10.6-6.5-10.3-12.7c0.4-5.9,1-11.8,0.9-17.7c0-4.4,1.9-5.2,5.5-4.4c2.8,0.7,5.7,1.3,8.4,2.3
		c5.4,2,10,1.5,14-2.9c2.1-2.4,4.2-2.2,6.3,0.1c1.3,1.5,2.8,2.8,4.2,4.2c5.8,5.9,3.8,13.4-4.2,16.1c-1,0.3-1.8,1.4-2.7,1.9
		c-6.9,4.2-13.9,8.5-20.8,12.7C1834.1,879,1833.4,879,1833.3,879z M1829,850.3c0,5.6-0.2,11.1,0.1,16.5c0.2,4.8,3.7,6.4,7.7,3.9
		c3.2-2,6.5-3.6,9.7-5.6c5-3.2,12.6-3.3,13.2-12c-1.1-1.1-2.7-2.6-4.7-4.6C1847.2,858.3,1838.2,850.3,1829,850.3z"/>
	<path id="_x32_206" class="st0" d="M1829,850.3c9.2,0,18.2,7.9,26-1.9c2.1,2,3.6,3.5,4.7,4.6c-0.6,8.7-8.2,8.8-13.2,12
		c-3.1,2-6.5,3.7-9.7,5.6c-4,2.5-7.5,0.9-7.7-3.9C1828.8,861.4,1829,856,1829,850.3z"/>
</g>
</svg>
