<?xml version="1.0" encoding="utf-8"?>
<!-- Generator: Adobe Illustrator 19.0.0, SVG Export Plug-In . SVG Version: 6.00 Build 0)  -->
<svg version="1.1" id="Layer_1" xmlns="http://www.w3.org/2000/svg" xmlns:xlink="http://www.w3.org/1999/xlink" x="0px" y="0px"
	 viewBox="0 0 4500 2000" style="enable-background:new 0 0 4500 2000;" xml:space="preserve">
<style type="text/css">
	.st0{fill:#FFFFFF;}
</style>
<g>
	<path d="M2237.9,1537.1c-17.8,3.3-35.3,6.6-52.7,9.9c-9.9,1.9-19.9,3.8-29.8,5.8c-4.9,1-7.6-0.1-8.5-5.3c-1-5.5-1.2-11.2-0.8-16.8
		c0.5-7.3,1.9-14.6,2.7-21.9c1.4-12.4,2.7-24.8,4-37.2c0.8-8.4,1.6-16.7,2-25.1c0.5-10.1,0.5-20.2,1.1-30.3
		c0.7-10.1,2.1-20.2,2.7-30.4c0.1-2.1-1.4-4.7-3-6.3c-6.1-6.3-11.3-13.2-12.9-22.1c-0.8-4-0.9-8.1-1.4-12.5
		c-7.1,1.5-14,3.2-21.1,4.3c-4.6,0.7-6.8,2.4-6.3,7.3c0.4,4.3-2.1,5.9-6.2,5.5c-10.3-1-20.6-2-30.9-2.9c-7.5-0.7-15.1-1.3-22.6-2.1
		c-12.9-1.3-25.8-2.7-38.7-3.9c-8.2-0.8-16.4-1.3-24.6-2.1c-12.2-1.2-24.5-2.6-36.7-4.1c-4.2-0.5-5.5-3.3-4.3-9.3
		c1.7-8.9,3.7-17.7,5.9-27.5c-2.9-1.3-7-3.4-11.4-5c-4.6-1.6-8.2-3.9-11.3-7.9c-2.1-2.7-6.3-3.7-9.4-5.8c-1.9-1.3-3.9-3.1-5.1-5.1
		c-2.2-4-5.5-5.9-9.6-7.2c-28.1-9.3-56.3-18.6-84.4-28c-49.7-16.6-99.3-33.5-149.1-49.9c-24.9-8.2-49-17.8-72.1-30.2
		c-16.2-8.6-32.8-16.5-48.9-25.2c-6.8-3.7-13.7-6.1-21.2-6.7c-9-0.8-18.1-1.2-27.1-2.1c-12.4-1.2-24.8-2.6-37.2-3.9
		c-8-0.8-16.1-1.4-24.1-2.1c-7.5-0.7-15.3-0.5-22.5-2.3c-5.5-1.4-10.4-5.3-15.5-8.2c-1.7-0.9-3.4-2-5-3c-8.9-5.7-8.9-5.7-6.5-17.3
		c8.1,4.8,16,9.4,23.6,13.9c2.5-6.9,5-13.4,7.4-20c1.1-3.1,1.7-6.7-2.6-7.6c-8.1-1.6-9.2-7.3-7.7-13.6c1.9-7.8,4.6-15.5,7.6-23
		c2.8-6.9,9.8-10.1,15.7-13.4c11.1-6.3,22.6-12,34.6-16.2c8.3-2.9,17.6-3.6,26.5-4.2c9-0.7,11.4-2,13.5-10.8
		c3.3-13.6,6.7-27.2,9.7-40.8c1.3-6.1,1.5-12.4,2.4-18.5c1.5-10.7,3-21.4,4.5-32.1c0.2-1.3,0.2-3.2-0.5-3.8
		c-5.4-4.6-10.9-9.1-16.6-13.4c-7.7-5.8-16.1-10.8-23.1-17.4c-8.5-8-13.9-18.4-18.3-29.2c-3.3-8-7-15.8-10.7-23.6
		c-2.7-5.7-0.5-9.3,5.8-9.6c0.2,0,0.3,0,0.5,0c16.6-0.3,33.2-0.6,49.8-1c18.9-0.5,37.7-1.3,56.6-2c9.6-0.3,19.2-0.6,28.8-1
		c15.7-0.6,31.4-1.2,47.1-2.2c1.9-0.1,3.9-2.3,5.5-3.8c3-2.7,5.3-6.6,8.8-8.4c12.2-6.5,22.3-15.6,32-25.2c3.3-3.2,7.1-5.8,10.6-8.8
		c2.2-1.9,4.3-3.3,7.5-1.8c0.8,0.4,2.8-0.3,3.4-1.2c4.9-6.8,12.1-9.6,19.8-11.7c0.9-0.3,1.9-0.8,2.5-1.5c7.5-10.3,18.5-16,29.4-21.5
		c15-7.4,28.5-16.8,40.5-28.4c2.7-2.6,5.4-5.4,8.6-7.4c2.2-1.4,5.2-2.1,7.8-2.2c11.7-0.2,23.3-0.1,35-0.1c1.1,0,2.3-0.1,4.1-0.3
		c-1.1-6.9-2-13.5-3.3-20c-2.2-10.5-4.3-21-7.1-31.4c-2.3-8.5-6.8-16.5-7.9-25c-1.8-14.3-11.2-23.8-18.8-34.5
		c-3.3-4.7-2.9-9.5-1-14.5c2.1-5.2,4.1-10.4,6.4-15.6c3.1-7.1,2.2-14.5,1.2-21.7c-0.4-2.8-2.9-5.1-3.7-7.9
		c-1.4-4.8-1.9-9.9-3.4-14.6c-1.5-4.6-3.7-9-5.7-13.5c-2.5-5.8-1.9-11.8,6.1-15.1c10.1-4.2,20.4-6.5,31.1-8
		c6.7-0.9,9.2-7.3,13.6-11.9c-8.3-2.3-13-6.9-14.9-14.6c-0.7-2.8-3.3-5.3-5.4-7.5c-4.6-4.6-9.5-9-14.3-13.3
		c-2.6-2.3-5.2-4.9-8.3-6.4c-7-3.5-14.2-6.7-21.5-9.3c-8.8-3.2-17.8-5.9-26.9-8.5c-1.7-0.5-3.8,0.3-6.4,0.6c2.2-3.1,4.1-6,6.2-8.5
		c0.6-0.8,2.3-1.2,3.4-0.9c3.3,0.7,6.8,1.4,9.8,2.9c5.6,3,9.1,0.8,13.2-3.2c17.8-17.6,36-34.9,54.1-52.3
		c8.7-8.4,17.5-16.8,26.2-25.2c7.3-7,14.7-13.9,21.9-21c3.3-3.1,6.4-3.4,10-0.4c6.7,5.6,12.2,7.9,20.1,2c1.6-1.2,5-1.4,7-0.6
		c11.6,4.7,21.4,3.3,29.7-6.6c4-4.8,8.1-8.8,15.5-6.3c2.4,0.8,6-2,9.1-2.7c7-1.5,14-2.7,21.1-4c9.6-1.7,19.3,4.6,26,15.4
		c5.1,8.4,11,16.3,17,24.1c2.3,3.1,5.6,5.4,8.1,8.4c1.8,2.1,7.8,0.9,11.9,0.8c2.3-0.1,4.6-0.9,7.8-1.6c1.1-4.9,2.3-11.2,4.1-17.3
		c1.8-6,3.1-12.6,9.8-15.5c-4.5-7.6-2-18.4,4.8-19.4c-1,2.1-1.8,3.9-2.8,5.7c-2.7,4.8-1.6,9.4,1.3,13.5c0.9,1.2,3.8,0.8,5.7,1.2
		c1.8,0.4,4.2,0.3,5.1,1.4c7.5,9.5,18.3,14.7,27.6,21.8c9.5,7.3,20.9,10.8,32.8,12.4c4.5,0.6,8.8,2.9,12.9,5c4,2,6.8,3.7,11.9,0.6
		c6.8-4.1,15.1-5.9,22.8-8.3c17.4-5.6,34.8-10.9,52.2-16.4c35.5-11.2,71.1-22.4,106.6-33.5c22-6.9,44.2-13.6,66.2-20.6
		c22.5-7.1,44.9-14.4,67.3-21.5c-6.9-6.6-14-13.4-21.8-21c5-2.8,8.2-4.6,11.7-6.5c6.8,6.9,13.5,13.6,20.2,20.4
		c1.8,1.8,3.1,3.2,6.3,2c3.3-1.3,6.5-0.1,8.2,4.1c5.1,12.7,10.6,25.2,15.8,37.9c5.6,13.5,11,27.2,16.5,40.7c1,2.4,2,3.4,5.2,2.3
		c22.1-7.3,44.3-14.2,66.5-21.4c4.4-1.4,7.5-0.7,10.7,2.4c4.7,4.6,9.5,9.3,14.6,13.5c5.5,4.5,8.5,10.2,9.5,17.2
		c1.9,12.4,3.9,24.9,6.1,38.5c4.2-1.1,9.1-2.1,13.6-3.8c10.2-3.8,20.2-8,30.3-12.1c0.7-0.3,1.6-0.6,2.4-0.5c6.8,1.2,11.9-1.9,17-5.8
		c4.3-3.3,9.5-3.7,15.1-3.5c10.5,0.2,21.1,4.3,31.4-0.6c0.6-0.3,1.4-0.3,2-0.1c7.1,1.8,11.6-2.6,14.8-7.5c3-4.7,7.3-5.2,11.7-5.4
		c7-0.3,14.1,0,21.1-0.1c6.3-0.2,12.6-0.4,18.8-1c11.1-1,20,3.4,27.9,10.6c3,2.8,6,5.7,9.3,8.2c5.6,4.2,12.3,4.8,18.2,2.1
		c7-3.1,13.9-5,21.5-3.9c6.5,0.9,13.1,1,19.5,2.2c2.6,0.5,5.4,2.2,7.1,4.3c3.2,3.9,7.7,2.6,11.4,3.4c8.4,1.9,9.4,5.4,5.7,13.2
		c-5.4,11.6-9.4,23.8-13.8,35.8c-3.3,9-6,18.1-9.6,27c-1.1,2.7-3.5,5.6-6,7c-3.9,2.1-3.7,5.9-5.2,9c-0.4,0.9,0.2,2.6,0.8,3.5
		c0.3,0.4,2.1,0.1,2.9-0.3c3.7-2,6.2,0,7.8,2.8c1.3,2.3,2,5.2,2.2,7.9c0.6,8.2,0.8,16.5,1.1,24.8c0,1,0.1,2-0.2,3
		c-1.6,5.3-2.3,10.3,0,15.7c1.4,3.3,1,7.4,1.2,11.2c0.4,6.5-0.6,12.8,3.4,19.1c2.9,4.5,3.2,10.8,4.7,16.3c1.4,5.1,0.3,9.5-3.4,13.4
		c-1.6,1.7-3.2,3.7-3.8,5.8c-1,3.7-1.8,7.7-1.7,11.6c0.3,7,6.2,11.1,10,16.1c2.4,3,6,5,9.1,7.4c4,2.9,7.9,5.7,13.3,5.3
		c6.6-0.4,10.8,4.7,15.9,7.9c6.7,4.2,12.5,9.9,20.6,11.7c1.8,0.4,3.2,2.5,4.9,3.4c2.6,1.4,5.4,2.5,8.2,3.8c3.5,1.7,6.9,3.4,10.3,5
		c2.9,1.4,5.7,3,8.8,3.9c7.9,2.2,14.8,11.6,13.6,19.6c-0.9,5.5,0.8,10.1,4.7,13.5c8.2,7.2,11.7,16.3,12.5,26.8
		c0.1,1.4,0.7,2.9,1.4,4.1c4.3,7.4,2.5,11.9-5.9,12.9c-4.2,0.5-5.5,1.7-5.3,6.1c0.1,2.2-2.4,5.1-4.6,6.6c-2.9,2-6.4,3.4-9.9,4
		c-5.6,1-8.3,5.2-12,8.7c-13,12.3-15.1,30.2-23.5,44.9c-2.8,4.9-2.3,11.7-3.4,17.7c-0.6,3.3-0.6,7.1-2.2,9.9
		c-3.5,6.2-2.1,12.8-0.3,18.2c1.7,5.2,0.7,9-0.4,13.6c-1.4,5.7-2.5,11.5-3,17.3c-0.7,7.9-0.5,15.9-1.2,23.8
		c-1.5,17.6-3.4,35.1-4.8,52.7c-0.4,5,0.1,10.3,1.1,15.2c2.2,10.3,5.2,20.4,7.7,30.7c1.8,7.3,3.5,14.6,4.9,21.9c0.5,2.6,0.5,5.4,0,8
		c-2.6,13.1,1.1,24.6,8.8,35c1.2,1.6,3.4,3.1,5.3,3.3c5.9,0.9,9.7,4.2,12.1,9.3c5,10.7,15.3,15.1,24.6,20.7
		c7.4,4.5,12,10.2,10.6,19.6c-0.5,3.4,0.6,7.1,1.6,10.5c1.7,5.2,2.4,10.4,1.2,15.8c-2.3,9.9-1.7,19.8-0.1,29.7
		c1.1,7-2.4,12.6-6.8,17.7c-5.2,6.1-8.4,15-17.2,16.7c-13.5,2.6-26.9,7.4-41.2,1.3c-16-6.8-33.3-9-50.6-10.7
		c-3.8-0.4-7.5-2.1-11.1-3.4c-11.9-4.4-23.7-9.4-36.7-9.3c-4.4,0-9.1,1.4-13.3,2.9c-8.5,3.2-16.9,6.5-25,10.6
		c-9.2,4.7-14.6,12.6-17.2,22.6c-1.7,6.6-2.8,7.2-8.4,9.2c0,0.1,0,0.3,0,0.4c6.7,11.9,3.1,22.9-1.9,34.3c-5.2,11.6-9,23.9-10.4,36.6
		c-0.5,4.4-3.1,6.6-5.8,9.3c-2.8,2.7-6,5.3-8,8.5c-4.2,7.2-3.2,10.8,2.6,17.1c3.1,3.3,5.5,7.3,7.9,11.1c3.4,5.5,1.5,11.2-1,16.2
		c-4.2,8.5-9.1,16.6-13.9,24.8c-2.1,3.6-4.6,6.4-9.5,4.4c-1.1-0.4-3.3,0.1-4,1c-5.4,6.9-13.4,8.3-21.2,10.2
		c-5.3,1.4-10.5,3.5-15.7,5.3c-0.9,0.3-1.9,1-2.8,0.8c-7.4-1-8.5,4.2-10,9.6c-2.4,8.5-6.2,9.8-14,5.2c-1.8-1.1-3.4-2.6-5-4
		c-4.5-3.8-12.1-4.3-16.9-0.9c-4.1,2.9-8.2,5.8-12.4,8.7c5.2,10.5,1.1,17.7-12.7,16.8c-0.7,6.2-1.3,12.5-2,18.7
		c-1,9.5-6.2,16.9-11.8,24.2c-3,3.8-5.8,7.7-8.7,11.6c-0.4-0.2-0.8-0.4-1.2-0.5c2.1,0,4.2-0.4,6.2,0.1c3.3,0.9,6.5,2.3,9.8,3.6
		c0.9,0.4,1.6,1.2,2.5,1.5c8.1,2.4,13.4,8.7,19.8,13.6c3.4,2.6,3.5,5.5,1.4,8.9c-3.3,5.6-2.6,7,3.1,9.4c2.4,1,4.5,3.3,6.2,5.5
		c6.1,8.2,7.1,18.4,9.7,27.9c2.1,7.5,3.4,15.3,4,23.1c0.4,5.4-0.9,11.1-2,16.5c-0.2,1.2-2.9,2.9-4.1,2.7c-2.6-0.4-5.2-1.7-7.3-3.2
		c-1.8-1.3-2.9-3.5-4.3-5.4c-6.8,3.1-13.1,6.5-19.8,9c-2.9,1.1-6.8,1.6-9.7,0.6c-8.9-3-18.3,0.8-21.2,9.6c-1,2.9-1.6,6-2.4,9
		c-1.8,7.9-4.8,10.6-12.9,11.8c-0.9,0.1-1.7,0.6-3.9,1.3c4.1,0.7,6.8,1.3,9.5,1.6c6.7,0.7,9.3,3,8.1,9.3c-1.1,5.8,2.4,9,5,12.9
		c4.5,6.8,9.4,13.3,13.8,20.2c0.9,1.3,0.6,3.6,0.4,5.4c-0.2,2.6-0.2,5.4-1.2,7.7c-1.2,3-2.7,6.6-5.1,8.3c-6,4.3-8.3,10-8.8,17
		c-0.2,3-1.1,6.1-2.3,8.9c-2.3,5.4-4.8,6.4-10.5,4.9c-4.9-1.3-9.9-2.3-14.6-3.9c-3.2-1.1-5.2-0.5-7.5,1.8
		c-13,13.5-26.2,26.9-39.3,40.4c-8.9,9.2-17.7,18.4-26.6,27.6c-3.1,3.2-5.9,6.6-9.4,9.3c-6.3,4.7-13.3,3.2-16.2-4
		c-3.4-8.2-5.1-17.1-8.7-25.2c-2.1-4.6-6-9.2-10.2-12c-7.3-4.9-15.4-8.7-23.4-12.4c-23.8-10.9-44-27.5-65.9-41.4
		c-11.6-7.3-22.9-15.1-34.5-22.3c-2.3-1.5-5.5-2-8.3-2.3c-12.4-1.5-24.8-2.6-37.2-4.1c-14.6-1.8-29.2-4-43.8-5.9
		c-10.7-1.4-21.4-3-32.2-3.9c-4.4-0.4-5.8-3.1-7.4-6.2c-17-34.1-34.1-68.3-51.1-102.4C2243.9,1548.7,2240.9,1542.9,2237.9,1537.1z
		 M2773.9,1392.8c2.8-7.8,6.7-13.8,16-12.8c0.4,0,0.9-0.4,1.3-0.6c7.7-2.5,15.5-4.9,23.2-7.4c4.2-1.3,8.2-2.7,11.5-6.1
		c2-2.1,5.7-2.6,8.5-3.9c1.7-0.8,4-1.5,4.9-2.9c3.5-5.6,6.4-11.7,9.8-17.4c4.4-7.4,3.5-10.7-3-16.7c-9.2-8.5-11.2-22.5-4.1-32.6
		c2.8-4,6.7-7.3,10.1-10.9c0.6-0.7,1.7-1.3,1.8-1.9c0.6-7.4,2.4-14.4,5-21.3c2.9-7.5,5.3-15.3,8.2-22.8c2.1-5.6,3.2-10.8,1-16.9
		c-1.8-4.9-1.9-10.6-1.9-15.9c0-1.5,3-4.4,4.4-4.3c4.5,0.4,5.1-2.6,6-5.5c2.5-8.2,7.9-14.3,14.3-19.7c7.2-6.1,15.5-9.9,24.4-12.8
		c10.2-3.2,20.2-8.7,31.3-7c9.3,1.4,18.4,4.2,27.3,7.3c9.7,3.4,19.2,7.1,29.7,7.6c6,0.3,12,1.5,17.8,2.9c7.4,1.9,14.7,4.3,22,6.6
		c7,2.2,14,4.1,21.3,1.3c1.5-0.6,3.2-0.5,4.8-1.1c4.2-1.5,8.9-2.3,12.3-4.9c3.5-2.7,6-6.9,8.3-10.8c1.7-2.8,3.6-5.5,3.1-9.7
		c-1-8.3-1.4-16.8-0.7-25.2c0.6-6.7,2.5-13.1-1-19.6c-1.1-2-2-5.1-1.3-7.1c2.7-7.8-0.4-12.1-7.2-15.3c-11.4-5.3-20.9-12.7-26.6-24.3
		c-0.5-1-2-1.7-3.1-2.1c-11.5-3.6-17.2-12.6-21.2-22.9c-3.3-8.4-3.4-17.3-3.3-26.3c0.1-8.1-1.2-16.4-2.9-24.4
		c-2.4-11.4-6.1-22.6-8.5-34c-1.3-6.3-1.5-12.9-1.2-19.3c0.3-6.7,2.4-13.2,2.8-19.9c1-16.2,1.4-32.4,2.1-48.6c0.3-6,1-11.9,1.5-16.9
		c-16.3-0.9-32.4-2-48.5-2.5c-2.2-0.1-5.6,1.5-6.5,3.3c-3.8,7-8.5,11.4-16.9,12.9c-11.2,2-21.8,6.4-31.2,13.3c-1.1,0.8-4,0.8-4.6,0
		c-1.3-1.5-2.1-3.8-2.1-5.8c0.1-4.2,1.2-8.4,1.3-12.7c0-1.5-1.2-3.7-2.5-4.5c-5.3-3.5-10.8-6.7-16.4-9.8c-7-3.8-14.2-7.3-21.2-11.1
		c-12-6.6-23.9-13.1-35.7-20c-5.8-3.4-10.7-7.6-10.1-15.5c0.3-3.6,0.1-7.3,0-11c-0.4-15.1-10.6-25.2-25.5-24.3
		c-9.3,0.6-17.5,4.9-24.8,10.7c-3.9,3.1-7.2,6.9-11.1,9.8c-9.1,6.8-18.6,13.3-27.8,20.1c-10.9,8.1-21.4,16.5-34.7,20.8
		c-4.9,1.6-11,3.4-13.6,7.2c-7.9,11.5-14.7,23.9-21.4,36.2c-7,12.7-13.3,25.8-20,38.7c-2.6,4.9-4.7,10.2-8,14.6
		c-7.7,10-16,19.5-24.1,29.3c-7.5,9.1-15,18.3-22.5,27.4c-4.6,5.6-9,11.3-13.8,16.7c-5.4,6.1-11.1,12.1-16.7,18
		c-0.9,1-2.1,2.1-3.3,2.3c-13,1.5-26.1,2.8-39.2,4c-1.9,0.2-4.4,0-5.6-1.1c-4.5-4.2-9.8-4.1-15.3-3.9c-5.8,0.3-11.6,1.3-17.3,0.9
		c-16.6-1.2-32.2,3.3-48,6.8c-8.9,2-18,3.1-27.1,4.2c-3.8,0.5-6.8-1.4-9.3-4.5c-1.3-1.6-3.5-3.2-5.4-3.3
		c-13.3-0.9-26.7-1.3-40.1-2.2c-5.9-0.4-12.3-0.5-16.9-5.1c-3.8-3.8-10.1-5.2-11.4-11.5c-1.4-6.7-2.6-13.4-4.2-20.1
		c-0.4-1.6-1.6-3.3-3-4.2c-5.7-3.5-11.7-6.5-17.4-10c-5.5-3.4-11.7-5.3-16.9-9.6c-5.9-4.8-12.8-8.3-19.3-12.5
		c-18-11.5-36.1-22.9-54-34.5c-1.9-1.2-3.2-3.7-4.3-5.8c-1.6-3-7.7-7.5-9.9-7.4c0,8.8-0.5,17.6,0.1,26.3c1,13.8,3.8,27.5-1.2,41.1
		c-1.7,4.7-1.4,11-4.5,14.2c-4.8,5.1-5.5,9.6-3.8,15.8c1.9,6.9,2.9,14,4.3,21.1c1.3,6.9,3.1,13.1,11.5,14.6c2.4,0.4,4.8,2.8,6.3,4.9
		c3.2,4.5,6.2,9.2,8.7,14.2c1.2,2.5,1.3,5.7,1.4,8.6c0.1,6.6-0.4,13.1,6.1,17.5c2.6,1.7,5.3,3.4,7.4,5.7c3.2,3.6,6,7.6,8.5,11.6
		c1.3,2.1,1.7,4.8,2.6,7.2c0.8,2.4,1.7,4.8,2.5,7.2c1.1,3.5,1.8,7,5.9,9c2.2,1,4.1,3.9,4.9,6.3c1.3,3.8,1.4,8,2.2,12
		c2.1,9.9,2.2,20.4,9.9,28.6c7.3,7.9,12,17.9,21.5,23.9c2.6,1.7,4.5,4.6,6.2,7.2c4.5,6.9,8.5,14.3,13.3,20.9
		c3.6,4.9,6.8,9.7,8.3,15.8c1.7,6.8,2.5,14,7.7,19.6c3.3,3.6,3.8,9.4,9.4,11.3c14.5,4.9,28.9,10,43.4,15
		c33.3,11.4,66.6,22.7,99.9,34c32.7,11,65.4,21.9,98.2,32.9c23.6,7.9,47.2,15.9,70.8,23.9c29.3,9.9,58.6,19.9,87.9,29.9
		c1.5,0.5,3.9,1.2,4.9,0.5C2751.5,1383.8,2762.5,1385.7,2773.9,1392.8z M2976.6,353.7c-4.2-2.3-7.9-4.5-11.8-6.3
		c-2.7-1.3-5.6-2.7-8.6-3.2c-3.3-0.6-6.7-0.3-10-0.2c-4.3,0.2-9.1-0.6-12.7,1.2c-6.8,3.3-13.7,2.9-20.7,2.8
		c-5.6-0.1-10.2-2.2-14.6-6c-7.8-6.7-14.8-15.1-26.3-15.4c-3.1-0.1-6.1,0.4-9.2,0.5c-9,0.1-18-0.2-27,0.2c-3.4,0.1-7.1,1.2-10,2.9
		c-3,1.8-4.9,5.2-7.8,7.3c-2.4,1.7-5.4,3-8.3,3.6c-3.7,0.8-7.6,0.5-11.3,1c-6.4,0.9-12.3,2.8-19.2,0.4c-9.5-3.4-18.7-1.4-26.2,6.1
		c-2.7,2.6-6.1,3.4-10,2.2c-1.5-0.5-3.5-0.1-5.1,0.5c-15.2,5.2-30.3,10.8-45.6,15.6c-7.7,2.4-12.1-0.1-13.1-6.6
		c-1-6.5-1.5-13-2.2-19.6c-1.4-14.3-2.6-28.6-15.9-38c-2-1.4-3.7-3.4-5.3-5.3c-1.6-2-3.1-2.1-5.5-1.3c-21.6,7.1-43.3,14.2-65,20.9
		c-12.8,4-12,4.1-16.7-6.2c-18.2,5.6-36.4,11.1-54.5,16.8c-25.9,8.1-51.8,16.3-77.7,24.5c-21.9,6.9-43.7,14-65.6,20.9
		c-2.7,0.9-4.7,1.7-3.3,5c2.1,4.8,4.1,9.6,6.2,14.3c5.8,13.2,13.8,25.4,18,39.5c1.5,5.2,5,11.5,9.4,13.7c6.6,3.3,9.7,8.2,12.7,14
		c3.1,6.1,6.1,12.2,12.1,16.4c1.3,0.9,1.6,4.5,1.2,6.5c-1.1,4.6-2.9,9-4.4,13.4c-2,5.7-3.2,11.7-8.5,15.7
		c-6.8,5.1-13.4,10.5-20.2,15.6c-4.7,3.5-5.7,7.2-1.4,10.9c7.2,6.2,10.1,14.6,13.9,22.8c2,4.3,3,9.6,8.6,11.3
		c28.1,8.3,56.1,16.8,84.2,24.9c9.8,2.8,15.8,12.3,11.5,21.8c-3.9,8.6-2.8,15.6,2.8,22.7c1.6,2,3.1,4.9,3,7.3
		c-0.3,6.3-1.8,12.5-2.5,18.8c-0.6,6.2,0,12.7-1.3,18.7c-2.2,9.8-4.2,19.3-2.8,29.5c1.2,8.8,7.9,19.1,16.6,21.1
		c14.1,3.3,28.4,5.6,42.7,8.1c2.7,0.5,3.8,1.1,3.9,3.9c0.6,14.9,1.3,29.7,2,44.6c0.1,2.6,0.6,5.2,1,8.7c1.7-2.7,2.7-4.5,4-6.2
		c4.2-5.5,8.4-10.2,16.7-9.1c9.9,1.3,20.1,1.4,30.1,2.2c4.6,0.4,9.1,1.2,13.6,1.7c7.2,0.8,14.3,2,21.5,2.2
		c7.8,0.2,15.7-1.2,23.5-0.7c6.7,0.4,13.8,0.4,19.6,5.4c-3.6,7.7-7.1,15.4-11.1,24c3.7-1.5,6.4-2.4,9-3.6c6.4-3.1,13.3-5.6,19.1-9.7
		c12.5-8.7,24.4-18.1,36.5-27.3c4.4-3.4,8.7-6.9,13.2-10.2c4.9-3.5,9.7-7.4,15.1-10c9.3-4.5,18.8-7.9,29.2-2
		c2.9,1.7,6.9,2.1,10.4,2.1c25.4,0.5,50.9,0.8,76.3,1.1c34.9,0.4,69.9,0.7,104.8,1c8.3,0.1,16.7-0.3,25,0.1c4.3,0.2,6-1.7,7.5-5.1
		c4.2-9.4,6.6-19.7,14.5-27.4c6.6-6.4,11.6-14.4,21.8-15.7c3.7-0.5,5.3-2.7,4.8-6.5c-0.8-5,2.4-7.5,6.6-8.2c3.4-0.6,3.6-2.4,3.3-4.8
		c-0.9-9.4-4.6-17.2-11.7-24.1c-4.5-4.3-7-10.9-6.5-18c0.2-3-1-8.3-2.7-8.7c-6.2-1.8-11.4-4.8-17-7.9c-6.7-3.8-15-4.4-21.6-10
		c-6.6-5.6-14.9-9.1-22.2-13.9c-2.9-1.9-5.5-3.4-9.2-4c-4.7-0.7-9.3-2.7-13.6-4.9c-3.5-1.8-6.5-4.7-9.5-7.4
		c-10-8.9-20.8-17.4-18.1-33.2c1.4-7.9,1.6-16.3,9.3-22.1c-2.7-7.2-5.4-14.4-8-21.7c-0.4-1.2-0.1-2.6-0.3-4
		c-1.1-9.4-2.2-18.8-3.4-28.3c-0.1-0.8-0.5-1.6-0.5-2.4c0.3-7,0.6-13.9,0.9-20.9c0.1-2.1,0.5-4.2,0.6-6.4c0.2-2.4,0.3-4.9,0.4-7.2
		c-10.3-1.2-14.3-5.5-13.9-15.6c0.2-4.5,1.6-9,3-13.3c0.6-1.9,2.3-4.5,4-5c6.5-2,7.9-7.9,9.6-12.8c3.6-10.3,5.9-20.9,9.1-31.4
		C2971.9,365.8,2974.5,359.4,2976.6,353.7z M2263.3,1154.9c-2.9,3.8-5.5,7.6-8.4,11.1c-2.7,3.4-5.7,6.6-10.8,4
		c-4.4-2.2-8.9-4.5-13.3-6.7c-7.7-3.8-15.1,0.3-16.9,8.6c-3,14.2-14,21.4-28,18.4c-14.2-3.1-26.6-1.2-36.9,10
		c-1.8,2-4.5,3.3-6.9,4.6c-11.4,6-21.2,14-31.5,21.6c-6.8,5-7.7,9.4-3.7,16.4c3.6,6.3,6,13.2,9.3,19.7c2.4,4.7,5.3,9.2,7.9,13.8
		c2.5,4.5,4.1,9,9.2,12.1c4.2,2.6,6.5,8.2,9.6,12.6c0.3,0.5,0.2,1.3,0.1,2c-2,10.2,10.8,16.2,7.6,26.8c-0.2,0.6,1.9,1.5,2.2,2.5
		c0.8,2.1,1.7,4.5,1.5,6.7c-0.9,10.3-1.9,20.5,6.8,28.6c6.3,5.9,9.9,12.7,9.1,22.1c-1.6,16.6-2.2,33.3-3.2,49.9
		c-0.3,5.3-0.6,10.5-1.1,15.8c-1.2,13.4-2.5,26.8-4,40.2c-0.8,7.3-2,14.6-2.8,21.9c-0.8,7.6-1.5,15.3-2.2,23.1
		c4.4-1,8.4-1.9,12.4-2.7c21.1-4,42.3-7.9,63.4-12c10.2-2,11.5-1.5,16.2,7.8c2.3,4.5,4.8,8.9,7.1,13.4
		c16.7,33.6,33.4,67.1,49.9,100.8c1.7,3.5,4.3,4.6,7.6,4.9c9.3,1,18.6,1.9,27.9,3.1c14.6,1.9,29.2,4.1,43.8,5.9
		c12.4,1.5,24.8,2.6,37.2,4.1c3.3,0.4,7,1,9.7,2.8c11.3,7.1,22.3,14.8,33.4,22.2c16.4,11,32.5,22.5,49.4,32.7
		c14.3,8.6,29.6,15.3,44.2,23.4c7.7,4.2,11.1,12.1,13.8,20c2.2,6.5,3.8,13.2,5.7,19.8c0.6,0.1,1.1,0.2,1.7,0.3
		c1-1.3,1.9-2.7,3.1-3.9c24.3-25,48.8-50,73-75.2c3.2-3.3,6.4-3.8,10.5-2.7c5.6,1.6,11.2,2.9,16.7,4.3c0.9-4.4,1.1-8.8,2.7-12.6
		c1.8-4.3,4-9.7,7.6-11.8c5.4-3.2,7.1-11.2,4-15.4c-2.5-3.5-5.3-6.7-7.8-10.1c-4.6-6.5-10.5-12.3-10.4-21.3c-1.9-0.4-3.8-1-5.7-1.2
		c-6.4-0.7-10.1-4.1-11-10.4c-0.7-4.9,3.2-11.6,8.5-12.5c6.1-1.1,9.1-4,9.6-10c0.1-1.4,0.9-2.8,1.5-4.1c5.3-14.4,17-21.3,30.8-18.4
		c6.1,1.3,10.2-0.6,15-2.6c2.9-1.2,5.7-2.6,8.3-4.2c4.2-2.6,8.4-3.9,13.9-1.4c-2.7-13.6-6-26.9-9.6-40c-0.6-2.3-2.6-5-4.7-6
		c-10.3-4.9-13.7-12.4-9.3-22.7c-9.5-6.4-18.5-13.6-30.9-13.9c-2.4-0.1-5.6-2.6-6.8-4.9c-3.1-5.7-1.4-12.3,3.3-16.9
		c2.6-2.5,5.1-5,7.6-7.6c6.4-6.8,9.7-14.8,10.1-24.3c0.2-6.1,1.6-12.3,3.1-18.3c1.2-4.7,4.6-6.1,9.4-4.9c0.7,0.2,1.5-0.2,2.3-0.3
		c-3.6-11-2.6-15.3,4.5-20.3c-4.6-1.8-9.2-3.6-13.8-5.2c-34.5-11.7-69.1-23.5-103.6-35.1c-28.1-9.4-56.3-18.6-84.3-28.1
		c-34.1-11.5-68.1-23.3-102.1-34.9c-27.6-9.4-55.2-18.6-82.8-28.1c-6.3-2.2-13.9-2.8-16.8-10.7c-0.6-1.7-1.9-3-2.7-4.6
		c-1.8-3.4-4-6.8-5.2-10.4c-3.1-9.2-4.1-19.1-11.6-26.5c-3.4-3.4-6.2-7.6-8.3-12c-3.3-6.9-6.9-13.3-13.6-17.6
		c-2.1-1.4-3.9-3.4-5.6-5.4C2273.8,1168.4,2268.8,1161.9,2263.3,1154.9z M1472.1,826c3.3,7.7,5.6,14.4,8.8,20.5
		c4.7,8.9,8.7,18.7,15.5,25.7c8.2,8.4,19,14.3,28.6,21.3c3,2.2,5.4,5.2,8.5,7.1c7.8,4.9,7.9,4.7,6.6,13.9
		c-1.7,12.3-3.2,24.7-5.1,36.9c-1.8,11.4-3.6,22.9-6.1,34.2c-2.1,9.7-5.1,19.2-8,28.6c-1.6,5.2-10,12-14.1,11.5
		c-11.1-1.2-22,0.7-32.1,4.5c-11.4,4.3-22.3,10.2-33,16c-5.9,3.2-11,7.7-13,14.6c-1.1,3.7-1.4,7.8-2.9,11.3
		c-1.6,3.7-0.2,5.1,2.9,6.1c4.2,1.5,7.5,4.1,7.2,8.8c-0.4,5.1-1.4,10.3-2.7,15.3c-1.3,5.1-3.1,10-4.9,15.7
		c8.4,0.7,15.5,1.3,22.7,1.9c8.2,0.7,16.4,1.2,24.6,2.1c12.1,1.2,24.1,2.7,36.2,3.9c9,0.9,18.1,1.1,27.1,2.2
		c4.4,0.5,9.1,1.5,13.1,3.5c17.8,8.7,35.3,17.9,53,26.8c13.9,7,27.4,15.1,41.9,20.3c37.5,13.5,75.5,25.6,113.3,38.3
		c50.6,17,101.3,34,151.9,50.8c6.8,2.3,12.2,4.6,16.5,11.8c3.7,6.3,12.2,10,19.1,14.1c5.7,3.4,12.2,5.3,18,8.6c5,2.9,5.4,5.7,3,11.3
		c-1.4,3.3-3.2,6.4-4.4,9.8c-1.1,3.2-1.8,6.6-2.1,10c-0.1,1.1,1.5,3.2,2.5,3.3c11.1,1.2,22.2,2.2,33.4,3.2
		c8.4,0.7,16.7,1.3,25.1,2.1c11.9,1.2,23.8,2.6,35.7,3.9c9,1,17.9,2,26.9,2.9c5.7,0.5,11.3,0.8,17,1.3c0.4-7.3,1.5-8.7,7.8-10.1
		c10.1-2.4,20.3-4.5,30.4-7.1c6.6-1.7,8.5-8.8,4-14.2c-3.4-4.2-6.2-8.4-5.1-14.2c0.2-1.1-0.3-2.7-1-3.4c-5-4.5-6.9-11.6-13.2-15.1
		c-1.2-0.7-2.1-2.6-2.6-4.1c-2.2-6.1-5.3-11.6-8.8-17.2c-5.3-8.3-8.3-17.9-12.9-26.6c-2.1-4-0.8-7.2,1.6-9.2
		c7.9-6.6,16.2-12.8,24.6-18.6c6-4.2,12.7-7.4,18.8-11.4c4.2-2.8,7.6-7.1,12-9.3c9-4.4,18.6-4.9,28.4-2.2c11.2,3,22.4-4.7,24.2-16.2
		c0.9-5.8,8.2-14,12.5-12.9c5.9,1.5,11.8,3.8,16.9,7c4.8,3,7.5,3.7,11.3-0.5c3.1-3.4,5.9-7,8.6-10.7c0.6-0.8,0.7-2.2,0.5-3.3
		c-1.6-7.5-3-15-5-22.3c-1.8-6.7-0.8-15-9.4-18.4c-0.7-0.3-1.2-1.2-1.5-1.9c-2.2-6-2.8-12.7-7.8-17.5c-0.2-0.2-0.3-0.7-0.1-0.9
		c2.3-3.3-0.1-5.2-2.2-7.1c-4-3.5-7.9-7.3-12.1-10.4c-5.4-4-7.1-9.3-7-15.7c0.1-4-0.1-8.1-1.3-11.8c-1.1-3.5-4-6.3-5.6-9.7
		c-3.9-8.1-11.5-11-19-11.5c-17.5-1.2-35.2-1-52.8-1.3c-28.9-0.4-57.9-0.7-86.8-1c-0.7,0-1.6,0.3-1.9-0.1c-0.8-0.8-2.1-2.4-1.8-2.9
		c2.2-3.9-0.1-6.8-1.6-9.9c-1.8-3.7-3.4-7.6-5.2-11.3c-0.5-1-1.4-2.2-2.3-2.4c-6.2-1.2-12.9-4-18.7-2.9c-9.3,1.8-18.4,1.5-27.7,1.7
		c-6.7,0.2-13.4,1.5-20.1,1.8c-7.2,0.3-12.5,5.9-13.2,13.2c-0.5,5.2-1.8,10.6-4.2,15.2c-2.2,4.2-5.8,8.1-12,5.7
		c-2.1-0.8-4.5-1-6.7-1c-9.4,0.1-18-2.8-26.6-6.1c-3.4-1.3-7.6-1.7-11.3-1.2c-6.1,0.7-11.2-0.4-16-4.1c-2-1.6-4.5-3-6.9-3.4
		c-4.9-0.8-9.9-0.6-14.8-1.1c-6-0.6-12.1-1.3-18.1-2.1c-7.6-1-15.3-1.9-22.9-3.1c-1.1-0.2-2.9-1.8-2.8-2.4
		c1.1-5.2,1.6-10.9,4.2-15.3c3.3-5.6,8.4-10,12.6-15.1c3.6-4.4,7-8.9,10.3-13.1c-10.7,0-20.9-0.1-31.2,0.1c-4.1,0.1-6.2-2.3-6.3-5.5
		c0-5.3-1.7-9-5.5-12.8c-3.8-3.8-7.5-7-12.9-7.7c-2.5-0.3-5.1,0.4-7.5-0.1c-5.2-1-10.4-2.4-15.6-3.7c-30.5-8.2-61-16.2-91.4-24.7
		c-13.6-3.8-11-0.6-12.3-14.5c0-0.3,0-0.7-0.1-1c-1.6-13.3-3.4-26.7-4.9-40c-1.2-10.2-2.1-20.5-3.1-31.2c-2.7,0.4-4.9,1-7.2,1.1
		c-9.6,0.4-19.2,0.7-28.8,1c-18.9,0.7-37.7,1.3-56.6,2c-9.4,0.3-18.9,0.7-28.3,1c-11.9,0.4-23.9,0.8-35.8,1
		C1487.7,826.1,1480.1,826,1472.1,826z M1871,661.5c10.2,0.5,20.5,1.2,30.7,1.4c27.9,0.5,55.9,0.8,83.8,1c35.3,0.4,70.5,0.7,105.8,1
		c1.3,0,2.6,0.5,3.9,0.5c9.8,0.1,20,1.9,29.3-0.2c22.2-4.9,44-11.6,66-17.6c40.8-11.2,81.5-22.6,122.3-33.7
		c40.1-10.9,80.3-21.5,121.2-32.5c-6.7-2.3-12.4-4.7-18.4-6.2c-5-1.2-7.7-4.1-9.7-8.5c-4.7-10.4-8.8-21.1-17.5-29.2
		c-3.2-3-1.9-8.7,1.7-11.4c5.1-3.9,10.3-7.4,15.2-11.5c6.1-5.1,12.4-10,13.8-18.9c0.9-5.5,3.5-10.8,5.5-16.7
		c-1.9-1.8-4.8-3.6-6.6-6.2c-3.5-5.3-6.3-11-9.4-16.6c-1.7-3.2-3.5-6.1-7.6-6.9c-1.7-0.3-3.6-1.8-4.5-3.3c-3.5-6-6.8-12.2-9.8-18.5
		c-1.8-3.6-2.6-7.7-4.3-11.4c-5.8-12.5-12-24.9-17.6-37.5c-2.8-6.2-2.4-6.3,3.8-8.2c41.9-13.2,83.8-26.5,125.6-39.8
		c16-5.1,32-9.9,48-15c8.5-2.7,16.9-5.7,25.5-8.7c-10.4-25.3-20.6-50.2-30.7-74.8c-3.6,0.4-6.4,0.3-9,1.1c-22.4,6.9-44.7,14-67.1,21
		c-22.2,6.9-44.4,13.8-66.6,20.8c-36.2,11.4-72.3,22.8-108.4,34.2c-21.3,6.7-42.6,13.2-63.8,20c-4.9,1.6-10.2,2.6-13.6,7.3
		c-0.7,1-3,1.4-4.4,1.3c-5.6-0.4-10.8-1.9-15.4-5.5c-1.6-1.2-3.7-2.1-5.7-2.4c-4.7-0.8-10.2,0.3-14-1.8c-9.4-5.2-20.9-6.1-28.8-14.9
		c-6.7-7.4-17.5-10.2-23.9-18.6c-0.9-1.2-7.6-0.2-8,1c-2.4,7-4.3,14.4-5.3,21.7c-0.8,6.3-1.7,8.8-8.2,10.5c-4.5,1.2-9.5,0.9-14,1.1
		c-9.4,0.3-17.1-5-22.5-13c-6.2-9.2-12.6-18.1-18.6-27.4c-4.6-7.1-11.6-11.1-17.7-9.7c-9,2.1-18,4-27,6c-1,0.2-2,0.2-3,0
		c-4.1-0.6-7.4,0.6-9.9,4.1c-1.3,1.7-2.9,3.3-4.6,4.6c-6.9,5.3-14.1,9.3-23.5,6.6c-5.6-1.6-11.3-2.4-17.3,0.6
		c-6.1,3.1-12.7,1.1-18.1-2.7c-3.2-2.3-5-1.5-7.5,0.8c-8.5,8.4-17.2,16.6-25.8,24.9c-12.2,11.8-24.3,23.6-36.5,35.4
		c-12,11.7-24.1,23.3-36.4,35.2c1.3,0.7,2.1,1.3,2.9,1.7c7.7,3.6,15.4,7.1,23,10.8c1.9,0.9,3.5,2.7,5,4.2c4.5,4.4,8.5,9.5,13.5,13.2
		c5.2,3.7,9,7.3,10.1,14.1c0.4,2.4,3.8,4.7,6.2,6.4c2,1.5,6.5,1.9,6.7,3.2c0.7,4.2,3.6,8.9,0,13.1c-2.9,3.4-5.6,7-9,9.9
		c-2.6,2.2-6,4-9.3,4.8c-10.7,2.6-22.1,2.4-31.5,9.1c2.2,10.3,10.6,18.9,9.8,30.5c0,0.4,0.4,0.9,0.7,1.3c5.9,6.4,5.3,15.2,4.4,22
		c-1.3,9.3-2.7,19.4-8.5,27.6c-1.9,2.8-2.2,4.5,0,7.3c8.1,10.9,16.5,21.2,19.3,35.6C1859.5,626.9,1865.9,644.1,1871,661.5z
		 M2575.4,806.5c-0.8-0.4-1.6-0.8-2.5-1.2c-0.6-7.8-1.4-15.6-1.9-23.4c-0.5-10.1-0.6-20.2-1.2-30.3c-0.1-1.3-1.7-3.3-2.8-3.5
		c-11.9-2.2-23.9-3.5-35.6-6.3c-20.2-4.8-27.3-19.8-24.9-38.4c0.6-4.7-0.5-5.4-4.5-5.5c-62.9-0.3-125.8-0.6-188.8-1
		c-6.5,0-10.5,5.4-8.8,11.8c1.9,7.5,0.3,10.3-7.1,13.3c-2,0.8-4.4,2.3-5.1,4.1c-1.3,3.3-1.4,7-2.3,10.4c-0.4,1.3-1.5,3-2.7,3.3
		c-3.9,1.1-8.2,1.1-11.9,2.5c-6.2,2.4-12,5.6-18,8.4c-4.9,2.3-9.3,1.6-13.1-2.1c-4.2-4.1-11.3-3.8-14.5,1.2
		c-2.3,3.6-5.2,4.1-7.8,2.3c-4.8-3.3-9-7.4-13.4-11.3c-0.3-0.3-0.1-1.5,0.2-2.1c3-7,0.4-13.2-2.6-19.4c-1.6-3.3-2.2-8.5-4.8-9.7
		c-2.9-1.4-7.4,0.8-11.6,1.5c2.6,4.3,1.3,6.5-2.7,7c0,6.5,0,12.6,0,18.7c0,0.8-0.3,1.7-0.7,2.2c-3.5,4.3-6.8,9-10.8,12.7
		c-4.7,4.4-10.1,8.1-15.2,12.1c-6.1,4.6-12.2,9.1-18.4,13.6c4.7,6.1,4.6,6.1,10.2,2c1-0.7,2.3-1.1,4.3-2
		c2.2,11.8,11.8,16.3,20.5,21.7c3.6,2.3,6.2,14.2,4,18.2c-2.4,4.2-2.3,8.5-0.7,12.8c2.9,8.1,5.9,16.2,8.8,24.3
		c0.7,2,2.4,5.1,1.8,5.7c-2.8,2.8-0.2,4.8,0.5,6.8c1.8,4.9,4.6,9.4,6,14.4c2.5,9.2,10.5,13.8,16.2,20.2c4.2,4.7,10.9,7,16.4,10.6
		c30.7,20.2,61.2,40.5,93.8,57.6c1,0.5,2.4,2.4,2.3,2.6c-3.1,3.8-0.2,7.6,0.3,11.2c0.7,4.8,0.8,10.8,3.7,13.8
		c6.3,6.4,14.1,11.4,23.9,11.5c10.8,0.1,21.6,0.3,32.3,1.1c5.2,0.4,11.2-0.6,15,4.5c2.6,3.6,6.2,4.8,10.1,4.2
		c8.4-1.2,16.7-2.8,25-4.6c9.2-1.9,18.3-5.3,27.6-6.1c14.5-1.3,29.2-1,43.8-1.1c2.4,0,4.9,1.4,7.3,2.2c2.4,0.8,4.8,2.6,7.1,2.4
		c9-0.6,17.9-2.2,26.9-2.7c6.9-0.4,12.6-1.2,17.4-7.5c7.6-10.2,16.5-19.3,24.7-29.1c8.9-10.6,17.1-21.9,26.4-32.1
		c15.4-17,27.1-36.4,37.7-56.6c6.6-12.4,13.6-24.5,20.4-36.8c8.8-16,17.6-31.9,27.1-49.1c-7.6-1.1-13.5-2.6-19.4-2.8
		c-14.3-0.3-28.6,0.8-42.9-1c-14.8-1.9-29.8-2.6-44.7-4.2c-5.6-0.6-8.9,1.9-11.8,6.3C2581.4,799.9,2578.2,803.1,2575.4,806.5z
		 M2190.3,1020.1c-2-9.1-4-17.5-5.7-25.9c-1.1-5.7-3.7-11.3-0.8-17.5c2.9-6.2,5.5-12.6,7.4-19.1c1.8-6.1,3.3-12.4,3.5-18.7
		c0.2-7.3-1.2-14.7-1.8-22.1c-0.6-8.1-0.9-16.3-1.3-24c-1.3-0.8-2.5-1.4-3.6-2.1c1.1-0.8,2-1.8,3.2-2.3c1.4-0.6,3-0.8,4.7-1.3
		c-3.8-8.9-7.5-17.2-11-25.6c-0.5-1.3-0.6-2.8-0.6-4.2c0-1.3,0.9-2.8,0.5-3.9c-2.6-7.4-5.8-14.5-7.9-22c-1.2-4.2-1.8-9.5-0.2-13.4
		c2-5,0.5-14.8-4.1-17.9c-6.4-4.3-14.9-6.4-17.1-15.5c-0.1-0.5-3.4-1.1-4.2-0.4c-3.3,3-5.6,1.9-8.6-0.7c-4.1-3.6-8.7-6.6-13.9-10.6
		c0.7-2,1.7-5.2,2.5-7.5c-4-6.7-7.1-13-4.9-20.5c2.1-7.2,5-14.1,7-21.3c1.7-6.1,2.3-12.5,3.9-18.6c1.6-6,0.9-11.4-2.3-16.5
		c-3.5-5.5-7.5-10.7-10.9-16.3c-1.6-2.7-3.4-3.4-6.4-3.5c-12.3-0.2-24.5-0.7-36.8-0.9c-11.3-0.2-22.7-0.1-34,0
		c-1.2,0-2.8,0.3-3.6,1.1c-4.3,4.7-8.4,9.7-12.7,14.5c-14.1,15.5-28.3,31-42.5,46.5c-9,9.7-18.1,19.4-27,29.1
		c-3.9,4.2-7.6,8.6-11.5,13c4.8,5.2,9.1,10.8,14.3,15.3c6.2,5.3,9.7,10.9,6.8,19.2c-0.5,1.4-0.7,2.8-1,4.3
		c-3.2,18.6-6.3,37.3-9.5,56.3c-1.5-0.7-2.8-1.2-4.1-1.8c-8.4,13.1-16.9,26.3-25.3,39.5c-1.4,2.2-3.1,4.8-3.2,7.3
		c-0.1,4,1.1,8,1.7,12.1c0.9,5.8,1.7,11.5,2.6,17.1c-6.3,2-19.1-0.8-24.8-5.7c-3.3-2.8-6-2-8.8,0.1c-1.8,1.4-3.4,3.2-5,4.9
		c-11,11.9-24.4,18.5-40.9,18.2c-3.8-0.1-6.6,1.7-8.9,5.1c-3.5,5.1-7.2,10.2-11.5,14.6c-6.9,7.1-13.2,14.2-13,24.7
		c9.7,1.5,19.2,3.3,28.7,4.4c6.7,0.8,13.6,0.4,20.3,1.3c4.5,0.6,9.3,2,13.2,4.3c4.9,2.9,9.2,5.6,15.4,3.8c3.1-0.9,7.2-0.7,10.2,0.6
		c10,4.5,20.1,7.8,31.3,7.1c3.2-0.2,7.1,1.3,9.6-0.1c2.6-1.5,4.4-5.2,5.5-8.3c1.1-3.1,1.2-6.7,1.4-10.1c0.3-4.7,6.6-14,10.6-14.4
		c8.7-0.9,17.4-1.7,26.1-2c9.6-0.4,19.3,1.2,28.6-2.6c0.6-0.2,1.5,0.1,2.2,0.3c3.5,0.7,6.9,1.7,10.4,2.2c5,0.7,10.6,4.3,11.2,7.2
		c0.6,2.8,1.5,5.6,2.9,8c2.2,3.9,5.7,7.3,3.1,12.6C2096.7,1018.6,2143,1019.3,2190.3,1020.1z M2040.1,668.5
		c-8.6-0.5-16.3-1.3-24-1.4c-42.1-0.5-84.2-0.7-126.3-1.1c-1,0-2,0-3-0.1c-5.2-0.4-10.4-0.8-15.8-1.3c0.7,4,1.4,7,1.8,10
		c0.5,5.2,1.1,10.5,1.1,15.8c0,4.8-4.2,8.5-8.9,8.5c-12.7,0-25.3,0-38,0.1c-1.5,0-3.4,0.2-4.6,1.1c-3.3,2.5-6.2,5.5-9.3,8.1
		c-6.3,5.3-12.2,11.2-19,15.7c-7.6,5-16.3,8.4-24.1,13.1c-7.8,4.7-16,8.7-22,16.1c-2.2,2.8-5.9,4.5-9.1,6.3
		c-4.7,2.6-10.5,2.8-13.7,8.4c-1.4,2.5-5.5,5-8.2,4.8c-5.7-0.5-8.8,2.3-12.1,5.8c-2.2,2.4-4.3,4.9-6.9,6.8
		c-9.7,7.2-19.7,14-29.2,21.5c-5.1,4-9.2,9.3-13.8,14c-0.3,0.3-0.2,1-0.2,1.4c0.3,3.6,0.6,7.2,1.1,10.8c1.3,10.4,2.7,20.8,3.9,31.2
		c1.2,10.8,2,21.6,3.1,32.4c0.3,2.7,1.6,4.8,5,5.6c12,3,23.8,6.6,35.8,9.8c23.5,6.4,47.1,12.8,70.6,19.1c2.6,0.7,5.6,2.2,8,1.6
		c7.2-1.8,12.5,0.5,17.3,5.6c4.3,4.6,9.6,8.5,8.4,16.1c-0.2,1,1.3,3.1,2.4,3.3c3.3,0.8,6.8,1.4,10.2,1.2c11.5-0.7,22.9-2,34.4-2.8
		c15.1-1.1,27.7-6.8,37.3-18.8c3.3-4.2,7.7-7.6,13.2-6c5.3,1.6,10.1,4.8,15.3,7.1c2.2,1,4.8,1.3,8.1,2.2c-1.9-10.5-3.5-19.2-4.9-28
		c-0.2-1.6,0.3-3.7,1.2-5.1c8.9-14.1,17.9-28.1,26.8-42.1c2.6-4.2,6.5-8.1,7.5-12.6c3.3-15.3,5.3-30.9,8.4-46.2
		c1.4-7.1-0.5-12.1-5.8-16.8c-6-5.3-11.3-11.4-16.9-17.2C1977.2,737.5,2008.4,703.3,2040.1,668.5z M2187.7,714.7
		c-1.6-4.2-0.6-6.5,4-6.8c1.6-0.1,3.2-0.7,4.7-1.1c7.2-1.9,7.2-1.9,9.8,4.7c1,2.4,2.2,4.7,3.1,7.2c2,5.9,6.6,11.5,2.9,18.4
		c-0.4,0.8,0.6,2.8,1.4,3.8c1.8,2.2,4.2,4.1,6,6.3c2.9,3.4,5.9,3.7,8.2,0.1c3.2-4.9,8.7-3.8,13.1-5.1c1.2-0.4,3.4,2.8,5.2,4.2
		c0.7,0.6,1.6,1,2.5,1.5c5,2.7,8.9-0.4,12.6-2.9c5.6-3.7,11.4-6,18.2-6.2c3.7-0.1,7.4-0.7,8-6.3c0.7-6.8,2.9-13.3,11.4-14.7
		c3.3-0.5,3.2-3.6,3.2-6.4c0.1-4.1,0.6-8.2,0.9-12.3c0.4-4.5,3.1-5.4,7.2-5.3c19.5,0.5,38.9,1.1,58.4,1.1c44.5,0.1,89,0,133.5,0
		c1,0,2.2,0.3,3-0.1c1.1-0.6,2.7-1.5,2.9-2.5c1.2-6.9,2.3-13.8,3.1-20.8c0.6-5.9-0.1-12,1.3-17.7c1.4-6-0.4-10.5-3.8-14.9
		c-0.1-0.1-0.2-0.2-0.3-0.4c-3.3-5.7-4.3-11.5-1.5-17.7c0.8-1.6,1.5-3.3,2-5c1.8-5.9-2.7-14.1-8.3-15.7
		c-15.2-4.3-30.3-8.8-45.6-12.7c-7.1-1.8-13.8-5.2-22.1-2.7c-21.9,6.7-44.2,12.2-66.3,18.2c-24.5,6.7-49,13.3-73.4,20
		c-22.4,6.1-44.9,12.1-67.4,18.2c-22.9,6.2-45.8,12.5-68.7,18.8c-10.3,2.8-20.5,5.6-31.3,8.5c2,2.9,3.6,5.1,5,7.5
		c3.4,5.7,7.5,11.1,9.9,17.2c1.8,4.6,0.5,10,0.1,15.1c-0.7,9.1-3.9,17.2-6.9,25.4c-3.9,10.9-8.3,21.5,2.5,31
		c-0.8,1.4-1.6,2.6-2.2,3.9c-0.6,1.3-1,2.6-1.5,4c6.9,2.4,6.9,2.4,8.1,1.7c15.5-10,29.9-21.3,42.1-35.2c0.6-0.7,1.4-1.6,1.4-2.4
		c0.1-5.3,0.8-10.9-0.4-15.9C2182.5,716,2183.9,714.9,2187.7,714.7z M3035.6,766.1c-70.5-0.8-140.7-1.6-211.3-2.4
		c1.2,2.3,1.9,3.7,2.7,5.1c4.3,7.3,4.7,15.4,3.8,23.5c-0.8,8.2,4.1,12.2,10,15.5c10.8,6.2,21.9,12,32.9,18.1
		c3.3,1.8,6.4,3.9,9.7,5.7c10.1,5.6,20.4,11,30.3,16.8c2.7,1.6,4.6,4.1,3.5,8.2c-1.3,4.7-1.3,9.7-2,15.6c2.4-1.1,4.3-1.4,5.4-2.5
		c8.3-7.6,19.1-9.8,29.4-12.5c5.5-1.4,10.4-3.4,12.8-8c3.6-6.9,7.8-8.6,15.7-7.6c12.8,1.6,25.8,1.1,38.8,1.3c4.9,0.1,8.7-6.1,7.9-11
		c-1.6-10.2-3.2-20.6,1.9-30.4c0.7-1.4,0.9-3.1,0.9-4.7c0-9,1.3-17.6,5.9-25.5C3034.8,769.8,3035,768,3035.6,766.1z"/>
	<path id="_x32_286" class="st0" d="M2773.9,1392.8c-11.3-7.1-22.3-9-33.7-0.6c-1,0.7-3.3,0-4.9-0.5c-29.3-9.9-58.6-19.9-87.9-29.9
		c-23.6-8-47.2-15.9-70.8-23.9c-32.7-11-65.5-21.9-98.2-32.9c-33.3-11.3-66.6-22.6-99.9-34c-14.5-4.9-28.9-10.1-43.4-15
		c-5.6-1.9-6-7.8-9.4-11.3c-5.2-5.6-6-12.8-7.7-19.6c-1.5-6.1-4.7-10.9-8.3-15.8c-4.8-6.7-8.8-14-13.3-20.9
		c-1.7-2.7-3.7-5.6-6.2-7.2c-9.4-6.1-14.2-16.1-21.5-23.9c-7.6-8.3-7.8-18.7-9.9-28.6c-0.8-4-0.9-8.2-2.2-12
		c-0.8-2.4-2.7-5.2-4.9-6.3c-4.1-1.9-4.8-5.4-5.9-9c-0.8-2.4-1.7-4.8-2.5-7.2c-0.8-2.4-1.3-5.1-2.6-7.2c-2.5-4.1-5.3-8-8.5-11.6
		c-2-2.3-4.8-3.9-7.4-5.7c-6.5-4.3-6-10.9-6.1-17.5c0-2.9-0.1-6.1-1.4-8.6c-2.4-5-5.4-9.7-8.7-14.2c-1.5-2.1-4-4.5-6.3-4.9
		c-8.5-1.5-10.2-7.7-11.5-14.6c-1.3-7-2.4-14.2-4.3-21.1c-1.7-6.2-1-10.7,3.8-15.8c3.1-3.2,2.7-9.5,4.5-14.2
		c5-13.6,2.2-27.4,1.2-41.1c-0.6-8.7-0.1-17.5-0.1-26.3c2.2-0.1,8.4,4.4,9.9,7.4c1.1,2.1,2.4,4.6,4.3,5.8c17.9,11.6,36,23,54,34.5
		c6.5,4.1,13.4,7.6,19.3,12.5c5.2,4.2,11.4,6.2,16.9,9.6c5.7,3.5,11.7,6.5,17.4,10c1.4,0.8,2.6,2.6,3,4.2c1.6,6.6,2.8,13.4,4.2,20.1
		c1.3,6.3,7.6,7.7,11.4,11.5c4.6,4.6,11,4.6,16.9,5.1c13.3,1,26.7,1.3,40.1,2.2c1.9,0.1,4.1,1.7,5.4,3.3c2.5,3.1,5.5,5,9.3,4.5
		c9.1-1.1,18.2-2.2,27.1-4.2c15.8-3.6,31.5-8.1,48-6.8c5.7,0.4,11.5-0.6,17.3-0.9c5.5-0.3,10.8-0.3,15.3,3.9
		c1.2,1.1,3.8,1.2,5.6,1.1c13.1-1.2,26.1-2.5,39.2-4c1.2-0.1,2.4-1.3,3.3-2.3c5.6-5.9,11.3-11.9,16.7-18c4.8-5.4,9.2-11.1,13.8-16.7
		c7.5-9.1,14.9-18.3,22.5-27.4c8-9.8,16.4-19.3,24.1-29.3c3.3-4.3,5.4-9.6,8-14.6c6.7-12.9,13.1-26,20-38.7
		c6.7-12.3,13.5-24.7,21.4-36.2c2.6-3.8,8.7-5.6,13.6-7.2c13.2-4.3,23.8-12.7,34.7-20.8c9.2-6.8,18.6-13.2,27.8-20.1
		c3.9-3,7.3-6.7,11.1-9.8c7.3-5.8,15.5-10.2,24.8-10.7c15-0.9,25.1,9.1,25.5,24.3c0.1,3.7,0.3,7.4,0,11c-0.6,7.8,4.3,12.1,10.1,15.5
		c11.8,6.9,23.7,13.5,35.7,20c7,3.8,14.2,7.3,21.2,11.1c5.6,3.1,11.1,6.3,16.4,9.8c1.3,0.9,2.6,3,2.5,4.5c-0.1,4.2-1.1,8.4-1.3,12.7
		c0,2,0.8,4.3,2.1,5.8c0.7,0.8,3.6,0.7,4.6,0c9.4-6.9,20-11.3,31.2-13.3c8.4-1.5,13.2-5.9,16.9-12.9c1-1.8,4.3-3.4,6.5-3.3
		c16.1,0.6,32.3,1.6,48.5,2.5c-0.4,4.9-1.2,10.9-1.5,16.9c-0.8,16.2-1.2,32.4-2.1,48.6c-0.4,6.7-2.4,13.2-2.8,19.9
		c-0.3,6.4-0.1,13,1.2,19.3c2.4,11.4,6.1,22.6,8.5,34c1.7,8,3,16.3,2.9,24.4c-0.1,9,0,18,3.3,26.3c4.1,10.2,9.7,19.3,21.2,22.9
		c1.2,0.4,2.7,1.1,3.1,2.1c5.7,11.6,15.2,19,26.6,24.3c6.7,3.1,9.9,7.5,7.2,15.3c-0.7,2,0.2,5,1.3,7.1c3.5,6.5,1.6,12.9,1,19.6
		c-0.7,8.3-0.3,16.9,0.7,25.2c0.5,4.2-1.4,6.8-3.1,9.7c-2.4,3.9-4.8,8.1-8.3,10.8c-3.4,2.6-8.1,3.4-12.3,4.9
		c-1.5,0.5-3.3,0.5-4.8,1.1c-7.3,2.9-14.3,1-21.3-1.3c-7.3-2.3-14.5-4.8-22-6.6c-5.8-1.5-11.9-2.7-17.8-2.9
		c-10.5-0.5-20-4.2-29.7-7.6c-8.9-3.1-18-5.9-27.3-7.3c-11-1.7-21,3.7-31.3,7c-8.9,2.8-17.2,6.7-24.4,12.8
		c-6.4,5.4-11.8,11.5-14.3,19.7c-0.9,2.9-1.5,5.9-6,5.5c-1.4-0.1-4.4,2.8-4.4,4.3c0,5.3,0.1,11,1.9,15.9c2.2,6.1,1.1,11.3-1,16.9
		c-2.9,7.6-5.3,15.3-8.2,22.8c-2.7,6.9-4.5,13.9-5,21.3c-0.1,0.7-1.2,1.3-1.8,1.9c-3.4,3.6-7.2,6.9-10.1,10.9
		c-7.1,10.1-5.1,24.1,4.1,32.6c6.5,6,7.4,9.3,3,16.7c-3.4,5.7-6.3,11.7-9.8,17.4c-0.9,1.4-3.1,2.1-4.9,2.9c-2.8,1.3-6.5,1.8-8.5,3.9
		c-3.3,3.4-7.3,4.8-11.5,6.1c-7.8,2.4-15.5,4.9-23.2,7.4c-0.5,0.1-0.9,0.6-1.3,0.6C2780.6,1379,2776.7,1384.9,2773.9,1392.8z"/>
	<path id="_x32_281" class="st0" d="M2976.6,353.7c-2,5.7-4.7,12.2-6.7,18.8c-3.2,10.4-5.5,21.1-9.1,31.4
		c-1.7,4.9-3.1,10.8-9.6,12.8c-1.7,0.5-3.4,3-4,5c-1.4,4.3-2.8,8.8-3,13.3c-0.5,10,3.6,14.4,13.9,15.6c-0.1,2.4-0.2,4.8-0.4,7.2
		c-0.2,2.1-0.5,4.2-0.6,6.4c-0.4,7-0.7,13.9-0.9,20.9c0,0.8,0.4,1.6,0.5,2.4c1.1,9.4,2.3,18.8,3.4,28.3c0.2,1.3-0.2,2.8,0.3,4
		c2.6,7.3,5.3,14.5,8,21.7c-7.6,5.8-7.9,14.2-9.3,22.1c-2.7,15.8,8.1,24.4,18.1,33.2c3,2.7,6,5.5,9.5,7.4c4.2,2.2,8.9,4.2,13.6,4.9
		c3.7,0.5,6.3,2.1,9.2,4c7.3,4.7,15.6,8.3,22.2,13.9c6.6,5.6,14.8,6.1,21.6,10c5.6,3.2,10.8,6.1,17,7.9c1.7,0.5,2.9,5.8,2.7,8.7
		c-0.5,7.1,2,13.7,6.5,18c7.1,6.9,10.7,14.6,11.7,24.1c0.2,2.5,0.1,4.3-3.3,4.8c-4.2,0.7-7.3,3.2-6.6,8.2c0.6,3.9-1.1,6-4.8,6.5
		c-10.2,1.3-15.2,9.2-21.8,15.7c-7.9,7.8-10.3,18-14.5,27.4c-1.5,3.5-3.2,5.4-7.5,5.1c-8.3-0.5-16.7-0.1-25-0.1
		c-34.9-0.3-69.9-0.6-104.8-1c-25.4-0.3-50.9-0.6-76.3-1.1c-3.5-0.1-7.5-0.5-10.4-2.1c-10.3-5.9-19.9-2.5-29.2,2
		c-5.4,2.6-10.2,6.5-15.1,10c-4.5,3.2-8.8,6.8-13.2,10.2c-12.1,9.2-24.1,18.6-36.5,27.3c-5.8,4-12.6,6.6-19.1,9.7
		c-2.6,1.3-5.3,2.2-9,3.6c4-8.6,7.5-16.3,11.1-24c-5.8-5-13-4.9-19.6-5.4c-7.8-0.5-15.6,0.9-23.5,0.7c-7.2-0.2-14.4-1.4-21.5-2.2
		c-4.6-0.5-9.1-1.3-13.6-1.7c-10-0.8-20.1-0.9-30.1-2.2c-8.2-1.1-12.5,3.7-16.7,9.1c-1.3,1.7-2.3,3.5-4,6.2c-0.4-3.5-0.9-6.1-1-8.7
		c-0.7-14.9-1.4-29.7-2-44.6c-0.1-2.8-1.2-3.4-3.9-3.9c-14.3-2.5-28.6-4.8-42.7-8.1c-8.7-2-15.5-12.4-16.6-21.1
		c-1.3-10.2,0.7-19.7,2.8-29.5c1.3-6,0.7-12.5,1.3-18.7c0.6-6.3,2.1-12.5,2.5-18.8c0.1-2.4-1.4-5.3-3-7.3c-5.6-7.1-6.8-14-2.8-22.7
		c4.3-9.4-1.7-18.9-11.5-21.8c-28.1-8.1-56.1-16.6-84.2-24.9c-5.7-1.7-6.6-7-8.6-11.3c-3.8-8.2-6.7-16.6-13.9-22.8
		c-4.3-3.7-3.3-7.4,1.4-10.9c6.8-5.1,13.4-10.5,20.2-15.6c5.3-4,6.5-10,8.5-15.7c1.6-4.4,3.4-8.8,4.4-13.4c0.5-2,0.2-5.6-1.2-6.5
		c-6-4.2-9-10.3-12.1-16.4c-3-5.8-6.1-10.7-12.7-14c-4.4-2.2-7.9-8.5-9.4-13.7c-4.1-14.1-12.2-26.3-18-39.5
		c-2.1-4.8-4.2-9.6-6.2-14.3c-1.4-3.3,0.6-4.1,3.3-5c21.9-6.9,43.7-14,65.6-20.9c25.9-8.2,51.8-16.4,77.7-24.5
		c18.1-5.7,36.3-11.2,54.5-16.8c4.7,10.3,3.9,10.2,16.7,6.2c21.8-6.7,43.4-13.8,65-20.9c2.3-0.8,3.9-0.7,5.5,1.3
		c1.6,1.9,3.3,3.9,5.3,5.3c13.3,9.4,14.4,23.7,15.9,38c0.7,6.5,1.1,13.1,2.2,19.6c1.1,6.5,5.4,9.1,13.1,6.6
		c15.3-4.9,30.4-10.4,45.6-15.6c1.6-0.5,3.6-0.9,5.1-0.5c3.9,1.2,7.4,0.4,10-2.2c7.6-7.5,16.7-9.5,26.2-6.1
		c6.8,2.4,12.8,0.5,19.2-0.4c3.8-0.5,7.6-0.3,11.3-1c2.9-0.6,5.9-1.9,8.3-3.6c2.9-2.1,4.8-5.5,7.8-7.3c2.9-1.7,6.6-2.7,10-2.9
		c9-0.4,18-0.1,27-0.2c3.1,0,6.1-0.5,9.2-0.5c11.5,0.3,18.5,8.7,26.3,15.4c4.4,3.8,9,5.9,14.6,6c7,0.1,13.9,0.5,20.7-2.8
		c3.6-1.7,8.4-1,12.7-1.2c3.3-0.1,6.8-0.4,10,0.2c3,0.5,5.8,1.8,8.6,3.2C2968.6,349.2,2972.3,351.4,2976.6,353.7z"/>
	<path id="_x32_287" class="st0" d="M2263.3,1154.9c5.5,7,10.5,13.4,15.7,19.8c1.6,2,3.4,4,5.6,5.4c6.7,4.3,10.3,10.6,13.6,17.6
		c2.1,4.4,4.9,8.6,8.3,12c7.5,7.4,8.5,17.3,11.6,26.5c1.2,3.7,3.4,7,5.2,10.4c0.8,1.6,2.1,3,2.7,4.6c2.9,7.9,10.5,8.5,16.8,10.7
		c27.5,9.5,55.2,18.7,82.8,28.1c34.1,11.6,68.1,23.3,102.1,34.9c28.1,9.5,56.2,18.6,84.3,28.1c34.6,11.6,69.1,23.3,103.6,35.1
		c4.6,1.6,9.1,3.4,13.8,5.2c-7.2,5-8.1,9.3-4.5,20.3c-0.8,0.1-1.6,0.5-2.3,0.3c-4.8-1.2-8.2,0.2-9.4,4.9c-1.5,6-2.9,12.1-3.1,18.3
		c-0.3,9.5-3.6,17.5-10.1,24.3c-2.4,2.6-5,5.1-7.6,7.6c-4.7,4.5-6.4,11.2-3.3,16.9c1.2,2.3,4.4,4.8,6.8,4.9
		c12.4,0.3,21.4,7.5,30.9,13.9c-4.4,10.3-1.1,17.9,9.3,22.7c2.1,1,4,3.7,4.7,6c3.6,13.1,6.9,26.3,9.6,40c-5.4-2.5-9.6-1.2-13.9,1.4
		c-2.6,1.6-5.5,3-8.3,4.2c-4.8,1.9-8.9,3.8-15,2.6c-13.8-2.8-25.4,4-30.8,18.4c-0.5,1.4-1.3,2.7-1.5,4.1c-0.5,6-3.5,9-9.6,10
		c-5.3,0.9-9.1,7.6-8.5,12.5c0.9,6.3,4.6,9.8,11,10.4c1.9,0.2,3.8,0.8,5.7,1.2c-0.1,9,5.8,14.8,10.4,21.3c2.5,3.5,5.3,6.7,7.8,10.1
		c3.1,4.3,1.3,12.2-4,15.4c-3.6,2.2-5.8,7.5-7.6,11.8c-1.6,3.8-1.9,8.2-2.7,12.6c-5.4-1.4-11.1-2.7-16.7-4.3
		c-4.1-1.1-7.3-0.6-10.5,2.7c-24.2,25.1-48.7,50.1-73,75.2c-1.2,1.2-2.1,2.6-3.1,3.9c-0.6-0.1-1.1-0.2-1.7-0.3
		c-1.9-6.6-3.5-13.3-5.7-19.8c-2.7-7.9-6.1-15.7-13.8-20c-14.6-8-30-14.8-44.2-23.4c-16.9-10.2-33-21.7-49.4-32.7
		c-11.1-7.4-22.1-15.1-33.4-22.2c-2.7-1.7-6.4-2.3-9.7-2.8c-12.4-1.5-24.8-2.6-37.2-4.1c-14.6-1.8-29.2-4-43.8-5.9
		c-9.3-1.2-18.6-2-27.9-3.1c-3.4-0.4-5.9-1.4-7.6-4.9c-16.5-33.7-33.2-67.2-49.9-100.8c-2.3-4.5-4.8-8.9-7.1-13.4
		c-4.7-9.3-6-9.8-16.2-7.8c-21.1,4.1-42.3,8-63.4,12c-4,0.8-8,1.7-12.4,2.7c0.7-7.8,1.4-15.4,2.2-23.1c0.8-7.3,2-14.6,2.8-21.9
		c1.4-13.4,2.7-26.8,4-40.2c0.5-5.3,0.7-10.5,1.1-15.8c1-16.6,1.6-33.3,3.2-49.9c0.9-9.4-2.7-16.2-9.1-22.1
		c-8.7-8.1-7.7-18.3-6.8-28.6c0.2-2.2-0.7-4.5-1.5-6.7c-0.4-1-2.4-2-2.2-2.5c3.1-10.6-9.7-16.6-7.6-26.8c0.1-0.6,0.2-1.5-0.1-2
		c-3.1-4.4-5.4-10-9.6-12.6c-5.1-3.1-6.7-7.7-9.2-12.1c-2.6-4.6-5.5-9.1-7.9-13.8c-3.3-6.5-5.7-13.4-9.3-19.7
		c-4-7-3.1-11.4,3.7-16.4c10.3-7.5,20.1-15.6,31.5-21.6c2.4-1.3,5.1-2.6,6.9-4.6c10.3-11.1,22.8-13,36.9-10c14,3,25-4.2,28-18.4
		c1.8-8.4,9.2-12.4,16.9-8.6c4.5,2.2,8.9,4.4,13.3,6.7c5,2.6,8-0.6,10.8-4C2257.8,1162.5,2260.5,1158.8,2263.3,1154.9z"/>
	<path id="_x32_284" class="st0" d="M1472.1,826c8,0,15.6,0.1,23.1,0c11.9-0.2,23.9-0.6,35.8-1c9.4-0.3,18.9-0.7,28.3-1
		c18.9-0.7,37.7-1.3,56.6-2c9.6-0.3,19.2-0.6,28.8-1c2.2-0.1,4.4-0.7,7.2-1.1c1.1,10.6,2,20.9,3.1,31.2c1.5,13.3,3.3,26.7,4.9,40
		c0,0.3,0,0.7,0.1,1c1.3,13.9-1.3,10.7,12.3,14.5c30.4,8.5,60.9,16.6,91.4,24.7c5.2,1.4,10.4,2.7,15.6,3.7c2.4,0.5,5.1-0.2,7.5,0.1
		c5.4,0.7,9.1,3.8,12.9,7.7c3.8,3.8,5.5,7.5,5.5,12.8c0,3.1,2.1,5.6,6.3,5.5c10.3-0.2,20.5-0.1,31.2-0.1c-3.3,4.2-6.7,8.7-10.3,13.1
		c-4.2,5.1-9.4,9.5-12.6,15.1c-2.6,4.4-3.1,10.1-4.2,15.3c-0.1,0.6,1.7,2.2,2.8,2.4c7.6,1.2,15.2,2.2,22.9,3.1
		c6,0.8,12,1.5,18.1,2.1c4.9,0.5,9.9,0.3,14.8,1.1c2.4,0.4,4.9,1.9,6.9,3.4c4.8,3.8,10,4.9,16,4.1c3.7-0.4,7.9-0.1,11.3,1.2
		c8.6,3.4,17.2,6.2,26.6,6.1c2.3,0,4.7,0.2,6.7,1c6.2,2.4,9.8-1.6,12-5.7c2.4-4.6,3.7-10,4.2-15.2c0.7-7.3,6-12.9,13.2-13.2
		c6.7-0.3,13.4-1.7,20.1-1.8c9.3-0.2,18.4,0.1,27.7-1.7c5.8-1.1,12.5,1.7,18.7,2.9c0.9,0.2,1.9,1.4,2.3,2.4
		c1.8,3.7,3.4,7.6,5.2,11.3c1.5,3.2,3.9,6.1,1.6,9.9c-0.3,0.5,1,2.1,1.8,2.9c0.3,0.3,1.3,0.1,1.9,0.1c28.9,0.3,57.9,0.6,86.8,1
		c17.6,0.2,35.2,0.1,52.8,1.3c7.5,0.5,15.2,3.4,19,11.5c1.6,3.4,4.5,6.2,5.6,9.7c1.2,3.7,1.4,7.9,1.3,11.8c-0.1,6.4,1.5,11.7,7,15.7
		c4.3,3.2,8.1,6.9,12.1,10.4c2.1,1.9,4.5,3.8,2.2,7.1c-0.1,0.2-0.1,0.8,0.1,0.9c4.9,4.8,5.5,11.5,7.8,17.5c0.3,0.7,0.8,1.7,1.5,1.9
		c8.5,3.4,7.6,11.7,9.4,18.4c1.9,7.4,3.4,14.9,5,22.3c0.2,1,0.1,2.5-0.5,3.3c-2.7,3.7-5.5,7.3-8.6,10.7c-3.9,4.2-6.5,3.5-11.3,0.5
		c-5.1-3.2-11-5.5-16.9-7c-4.3-1.1-11.6,7.1-12.5,12.9c-1.8,11.6-13.1,19.2-24.2,16.2c-9.8-2.7-19.4-2.2-28.4,2.2
		c-4.5,2.2-7.8,6.5-12,9.3c-6.1,4-12.8,7.2-18.8,11.4c-8.5,5.9-16.7,12.1-24.6,18.6c-2.4,2-3.7,5.2-1.6,9.2
		c4.6,8.7,7.6,18.4,12.9,26.6c3.5,5.6,6.6,11.1,8.8,17.2c0.5,1.5,1.3,3.4,2.6,4.1c6.3,3.4,8.2,10.6,13.2,15.1c0.8,0.7,1.2,2.3,1,3.4
		c-1.1,5.8,1.7,10,5.1,14.2c4.4,5.4,2.6,12.5-4,14.2c-10.1,2.6-20.3,4.8-30.4,7.1c-6.3,1.5-7.4,2.8-7.8,10.1
		c-5.7-0.4-11.4-0.7-17-1.3c-9-0.9-17.9-1.9-26.9-2.9c-11.9-1.3-23.8-2.7-35.7-3.9c-8.4-0.8-16.7-1.4-25.1-2.1
		c-11.1-1-22.3-1.9-33.4-3.2c-1-0.1-2.6-2.2-2.5-3.3c0.3-3.4,1-6.8,2.1-10c1.1-3.4,3-6.5,4.4-9.8c2.4-5.6,2-8.5-3-11.3
		c-5.8-3.3-12.3-5.2-18-8.6c-6.8-4.1-15.4-7.8-19.1-14.1c-4.2-7.3-9.7-9.6-16.5-11.8c-50.7-16.9-101.3-33.9-151.9-50.8
		c-37.8-12.7-75.8-24.8-113.3-38.3c-14.5-5.2-28-13.3-41.9-20.3c-17.7-8.9-35.2-18.1-53-26.8c-4-2-8.6-3-13.1-3.5
		c-9-1-18.1-1.3-27.1-2.2c-12.1-1.2-24.1-2.7-36.2-3.9c-8.2-0.8-16.4-1.4-24.6-2.1c-7.2-0.6-14.4-1.2-22.7-1.9
		c1.8-5.7,3.6-10.6,4.9-15.7c1.2-5,2.3-10.1,2.7-15.3c0.3-4.7-3-7.3-7.2-8.8c-3.1-1.1-4.5-2.4-2.9-6.1c1.5-3.5,1.8-7.6,2.9-11.3
		c2-6.9,7.1-11.4,13-14.6c10.7-5.8,21.6-11.7,33-16c10.1-3.8,21-5.7,32.1-4.5c4.1,0.4,12.5-6.3,14.1-11.5c2.9-9.5,5.9-19,8-28.6
		c2.5-11.3,4.3-22.8,6.1-34.2c1.9-12.3,3.4-24.6,5.1-36.9c1.3-9.1,1.3-8.9-6.6-13.9c-3.1-1.9-5.5-4.9-8.5-7.1
		c-9.6-7.1-20.4-12.9-28.6-21.3c-6.8-7-10.8-16.8-15.5-25.7C1477.7,840.4,1475.4,833.7,1472.1,826z"/>
	<path id="_x32_280" class="st0" d="M1871,661.5c-5.1-17.4-11.6-34.6-14.9-52.3c-2.7-14.4-11.2-24.7-19.3-35.6
		c-2.1-2.9-1.9-4.6,0-7.3c5.8-8.2,7.2-18.3,8.5-27.6c0.9-6.8,1.5-15.6-4.4-22c-0.3-0.3-0.7-0.9-0.7-1.3c0.8-11.6-7.6-20.2-9.8-30.5
		c9.4-6.7,20.8-6.5,31.5-9.1c3.3-0.8,6.7-2.6,9.3-4.8c3.4-2.8,6.1-6.5,9-9.9c3.6-4.2,0.7-8.9,0-13.1c-0.2-1.4-4.7-1.7-6.7-3.2
		c-2.4-1.8-5.9-4-6.2-6.4c-1-6.7-4.9-10.4-10.1-14.1c-5-3.6-9-8.8-13.5-13.2c-1.6-1.5-3.1-3.3-5-4.2c-7.6-3.8-15.3-7.2-23-10.8
		c-0.9-0.4-1.6-0.9-2.9-1.7c12.3-11.9,24.4-23.5,36.4-35.2c12.2-11.8,24.3-23.6,36.5-35.4c8.6-8.3,17.3-16.5,25.8-24.9
		c2.4-2.4,4.2-3.1,7.5-0.8c5.4,3.8,11.9,5.8,18.1,2.7c6-3.1,11.7-2.3,17.3-0.6c9.4,2.7,16.6-1.3,23.5-6.6c1.7-1.3,3.3-2.9,4.6-4.6
		c2.5-3.5,5.8-4.6,9.9-4.1c1,0.1,2,0.2,3,0c9-1.9,18-3.9,27-6c6-1.4,13.1,2.6,17.7,9.7c6,9.3,12.4,18.3,18.6,27.4
		c5.4,8,13,13.3,22.5,13c4.5-0.2,9.5,0.1,14-1.1c6.4-1.7,7.3-4.2,8.2-10.5c1-7.4,2.9-14.7,5.3-21.7c0.4-1.2,7.1-2.1,8-1
		c6.4,8.4,17.2,11.2,23.9,18.6c7.9,8.7,19.3,9.7,28.8,14.9c3.8,2.1,9.3,1.1,14,1.8c2,0.3,4.1,1.2,5.7,2.4c4.6,3.6,9.8,5.1,15.4,5.5
		c1.5,0.1,3.7-0.3,4.4-1.3c3.4-4.6,8.7-5.7,13.6-7.3c21.2-6.7,42.6-13.3,63.8-20c36.2-11.4,72.3-22.8,108.4-34.2
		c22.2-7,44.4-13.9,66.6-20.8c22.4-7,44.7-14.1,67.1-21c2.6-0.8,5.4-0.7,9-1.1c10.1,24.6,20.3,49.5,30.7,74.8
		c-8.6,2.9-17,6-25.5,8.7c-16,5.1-32,10-48,15c-41.9,13.2-83.8,26.5-125.6,39.8c-6.2,2-6.6,2.1-3.8,8.2c5.7,12.6,11.8,25,17.6,37.5
		c1.7,3.7,2.6,7.7,4.3,11.4c3,6.3,6.3,12.4,9.8,18.5c0.9,1.5,2.8,3,4.5,3.3c4.1,0.8,5.8,3.8,7.6,6.9c3.1,5.6,5.9,11.3,9.4,16.6
		c1.7,2.6,4.6,4.5,6.6,6.2c-2,5.9-4.6,11.2-5.5,16.7c-1.4,8.9-7.7,13.8-13.8,18.9c-4.9,4.1-10.2,7.6-15.2,11.5
		c-3.6,2.7-4.9,8.4-1.7,11.4c8.7,8.1,12.8,18.8,17.5,29.2c2,4.4,4.7,7.3,9.7,8.5c6,1.4,11.7,3.9,18.4,6.2
		c-41,11-81.1,21.6-121.2,32.5c-40.8,11.1-81.5,22.5-122.3,33.7c-22,6-43.8,12.7-66,17.6c-9.3,2.1-19.5,0.3-29.3,0.2
		c-1.3,0-2.6-0.5-3.9-0.5c-35.3-0.4-70.5-0.7-105.8-1c-27.9-0.3-55.9-0.6-83.8-1C1891.5,662.8,1881.2,662,1871,661.5z"/>
	<path id="_x32_279" class="st0" d="M2575.4,806.5c2.9-3.4,6-6.6,8.5-10.3c2.9-4.3,6.2-6.8,11.8-6.3c14.9,1.5,29.8,2.2,44.7,4.2
		c14.3,1.9,28.6,0.7,42.9,1c5.9,0.1,11.8,1.6,19.4,2.8c-9.5,17.2-18.3,33.2-27.1,49.1c-6.8,12.3-13.8,24.4-20.4,36.8
		c-10.7,20.1-22.4,39.5-37.7,56.6c-9.3,10.3-17.5,21.5-26.4,32.1c-8.2,9.8-17.1,18.9-24.7,29.1c-4.7,6.4-10.5,7.2-17.4,7.5
		c-9,0.5-17.9,2.1-26.9,2.7c-2.3,0.2-4.7-1.6-7.1-2.4c-2.4-0.8-4.9-2.2-7.3-2.2c-14.6,0.1-29.3-0.1-43.8,1.1
		c-9.3,0.8-18.4,4.2-27.6,6.1c-8.3,1.7-16.6,3.3-25,4.6c-3.9,0.6-7.5-0.7-10.1-4.2c-3.7-5.1-9.8-4.1-15-4.5
		c-10.7-0.8-21.5-1-32.3-1.1c-9.9-0.1-17.6-5.1-23.9-11.5c-2.9-3-3.1-9.1-3.7-13.8c-0.5-3.6-3.4-7.4-0.3-11.2
		c0.1-0.2-1.3-2.1-2.3-2.6c-32.6-17-63.2-37.4-93.8-57.6c-5.4-3.6-12.2-5.9-16.4-10.6c-5.7-6.4-13.7-11-16.2-20.2
		c-1.3-5-4.2-9.5-6-14.4c-0.8-2-3.3-4-0.5-6.8c0.7-0.7-1-3.8-1.8-5.7c-2.9-8.1-5.9-16.2-8.8-24.3c-1.6-4.4-1.6-8.6,0.7-12.8
		c2.2-4-0.4-15.9-4-18.2c-8.7-5.5-18.3-9.9-20.5-21.7c-2,0.9-3.3,1.3-4.3,2c-5.6,4.1-5.5,4.1-10.2-2c6.1-4.5,12.3-9,18.4-13.6
		c5.2-3.9,10.5-7.6,15.2-12.1c4-3.8,7.3-8.4,10.8-12.7c0.5-0.6,0.7-1.5,0.7-2.2c0.1-6.1,0-12.2,0-18.7c4-0.5,5.3-2.7,2.7-7
		c4.2-0.7,8.8-2.9,11.6-1.5c2.5,1.2,3.1,6.3,4.8,9.7c3,6.2,5.6,12.4,2.6,19.4c-0.3,0.6-0.5,1.8-0.2,2.1c4.4,3.9,8.6,8,13.4,11.3
		c2.6,1.8,5.5,1.3,7.8-2.3c3.2-5.1,10.3-5.3,14.5-1.2c3.8,3.7,8.2,4.4,13.1,2.1c6-2.8,11.8-6,18-8.4c3.7-1.4,8-1.5,11.9-2.5
		c1.1-0.3,2.3-2,2.7-3.3c0.9-3.4,1-7.2,2.3-10.4c0.7-1.8,3.1-3.3,5.1-4.1c7.4-2.9,9-5.8,7.1-13.3c-1.7-6.5,2.3-11.9,8.8-11.8
		c62.9,0.3,125.8,0.7,188.8,1c4,0,5.1,0.8,4.5,5.5c-2.4,18.6,4.7,33.6,24.9,38.4c11.7,2.8,23.8,4.1,35.6,6.3
		c1.2,0.2,2.8,2.3,2.8,3.5c0.6,10.1,0.7,20.2,1.2,30.3c0.4,7.8,1.2,15.6,1.9,23.4C2573.7,805.7,2574.5,806.1,2575.4,806.5z"/>
	<path id="_x32_285" class="st0" d="M2190.3,1020.1c-47.3-0.7-93.6-1.5-140.4-2.2c2.6-5.3-0.8-8.7-3.1-12.6c-1.4-2.4-2.3-5.3-2.9-8
		c-0.6-2.9-6.1-6.5-11.2-7.2c-3.5-0.5-7-1.5-10.4-2.2c-0.7-0.2-1.6-0.5-2.2-0.3c-9.3,3.8-19,2.2-28.6,2.6c-8.7,0.4-17.4,1.1-26.1,2
		c-3.9,0.4-10.3,9.7-10.6,14.4c-0.2,3.4-0.3,7-1.4,10.1c-1.1,3.1-2.9,6.8-5.5,8.3c-2.4,1.4-6.3-0.1-9.6,0.1
		c-11.1,0.6-21.3-2.7-31.3-7.1c-2.9-1.3-7-1.5-10.2-0.6c-6.2,1.7-10.5-1-15.4-3.8c-3.9-2.3-8.7-3.6-13.2-4.3
		c-6.7-0.9-13.6-0.5-20.3-1.3c-9.6-1.1-19.1-2.9-28.7-4.4c-0.2-10.5,6.2-17.6,13-24.7c4.3-4.4,8-9.5,11.5-14.6
		c2.3-3.4,5.1-5.1,8.9-5.1c16.5,0.2,29.9-6.3,40.9-18.2c1.6-1.7,3.2-3.5,5-4.9c2.8-2.2,5.5-3,8.8-0.1c5.6,4.8,18.4,7.6,24.8,5.7
		c-0.8-5.6-1.7-11.4-2.6-17.1c-0.6-4-1.8-8.1-1.7-12.1c0-2.5,1.7-5.1,3.2-7.3c8.4-13.2,16.9-26.4,25.3-39.5c1.4,0.6,2.6,1.1,4.1,1.8
		c3.2-19,6.4-37.7,9.5-56.3c0.2-1.4,0.5-2.9,1-4.3c2.9-8.3-0.7-13.9-6.8-19.2c-5.2-4.5-9.5-10.1-14.3-15.3c3.9-4.4,7.6-8.8,11.5-13
		c9-9.7,18.1-19.3,27-29.1c14.2-15.5,28.3-30.9,42.5-46.5c4.3-4.7,8.4-9.7,12.7-14.5c0.7-0.8,2.4-1.1,3.6-1.1
		c11.3-0.1,22.7-0.2,34,0c12.3,0.2,24.5,0.7,36.8,0.9c2.9,0,4.8,0.8,6.4,3.5c3.3,5.6,7.4,10.7,10.9,16.3c3.2,5.1,3.9,10.5,2.3,16.5
		c-1.6,6.1-2.2,12.5-3.9,18.6c-2,7.2-4.9,14.1-7,21.3c-2.2,7.5,0.9,13.8,4.9,20.5c-0.8,2.3-1.8,5.5-2.5,7.5c5.2,3.9,9.8,7,13.9,10.6
		c2.9,2.6,5.3,3.6,8.6,0.7c0.7-0.7,4.1-0.1,4.2,0.4c2.1,9.2,10.7,11.2,17.1,15.5c4.6,3.1,6.1,12.9,4.1,17.9
		c-1.5,3.9-0.9,9.1,0.2,13.4c2,7.5,5.3,14.7,7.9,22c0.4,1.1-0.5,2.6-0.5,3.9c0,1.4,0,2.9,0.6,4.2c3.5,8.4,7.2,16.7,11,25.6
		c-1.7,0.4-3.3,0.6-4.7,1.3c-1.2,0.5-2.1,1.5-3.2,2.3c1.1,0.7,2.3,1.3,3.6,2.1c0.4,7.8,0.8,15.9,1.3,24c0.5,7.4,2,14.8,1.8,22.1
		c-0.2,6.3-1.7,12.6-3.5,18.7c-1.9,6.5-4.5,12.9-7.4,19.1c-2.9,6.2-0.4,11.7,0.8,17.5C2186.3,1002.6,2188.3,1011,2190.3,1020.1z"/>
	<path id="_x32_283" class="st0" d="M2040.1,668.5c-31.7,34.8-62.9,69-94.7,103.9c5.6,5.7,10.9,11.9,16.9,17.2
		c5.3,4.7,7.2,9.7,5.8,16.8c-3.1,15.4-5.1,30.9-8.4,46.2c-1,4.5-4.9,8.5-7.5,12.6c-8.9,14-18,28-26.8,42.1c-0.9,1.4-1.5,3.5-1.2,5.1
		c1.4,8.8,3,17.6,4.9,28c-3.3-0.9-5.8-1.2-8.1-2.2c-5.2-2.3-10-5.5-15.3-7.1c-5.5-1.6-9.9,1.8-13.2,6c-9.6,12-22.2,17.7-37.3,18.8
		c-11.5,0.8-22.9,2.1-34.4,2.8c-3.4,0.2-6.9-0.4-10.2-1.2c-1-0.2-2.5-2.3-2.4-3.3c1.2-7.6-4.1-11.5-8.4-16.1
		c-4.8-5.1-10.1-7.4-17.3-5.6c-2.4,0.6-5.3-0.9-8-1.6c-23.6-6.3-47.1-12.7-70.6-19.1c-11.9-3.2-23.8-6.8-35.8-9.8
		c-3.4-0.9-4.7-2.9-5-5.6c-1.2-10.8-2-21.6-3.1-32.4c-1.1-10.4-2.6-20.8-3.9-31.2c-0.4-3.6-0.7-7.2-1.1-10.8c0-0.5-0.1-1.2,0.2-1.4
		c4.5-4.7,8.7-9.9,13.8-14c9.4-7.5,19.5-14.3,29.2-21.5c2.6-1.9,4.7-4.4,6.9-6.8c3.3-3.5,6.4-6.4,12.1-5.8c2.6,0.2,6.8-2.3,8.2-4.8
		c3.2-5.7,9.1-5.9,13.7-8.4c3.2-1.8,6.9-3.5,9.1-6.3c6-7.3,14.2-11.4,22-16.1c7.8-4.7,16.5-8.1,24.1-13.1c6.8-4.5,12.7-10.4,19-15.7
		c3.1-2.7,6-5.6,9.3-8.1c1.1-0.9,3-1.1,4.6-1.1c12.7-0.1,25.3,0,38-0.1c4.7,0,8.9-3.8,8.9-8.5c0-5.3-0.6-10.5-1.1-15.8
		c-0.3-3.1-1-6.1-1.8-10c5.4,0.4,10.6,0.9,15.8,1.3c1,0.1,2,0.1,3,0.1c42.1,0.3,84.2,0.6,126.3,1.1
		C2023.9,667.1,2031.6,667.9,2040.1,668.5z"/>
	<path id="_x32_278" class="st0" d="M2187.7,714.7c-3.8,0.2-5.2,1.3-4.1,5.9c1.2,5.1,0.4,10.6,0.4,15.9c0,0.8-0.8,1.7-1.4,2.4
		c-12.2,14-26.6,25.2-42.1,35.2c-1.1,0.7-1.2,0.7-8.1-1.7c0.5-1.3,0.9-2.7,1.5-4c0.6-1.3,1.4-2.5,2.2-3.9c-10.8-9.5-6.4-20.1-2.5-31
		c2.9-8.2,6.1-16.3,6.9-25.4c0.4-5.2,1.7-10.5-0.1-15.1c-2.4-6.1-6.4-11.5-9.9-17.2c-1.4-2.4-3.1-4.6-5-7.5
		c10.8-2.9,21-5.7,31.3-8.5c22.9-6.3,45.8-12.5,68.7-18.8c22.4-6.1,44.9-12.1,67.4-18.2c24.5-6.6,49-13.3,73.4-20
		c22.1-6,44.4-11.6,66.3-18.2c8.3-2.5,14.9,0.9,22.1,2.7c15.3,3.9,30.4,8.4,45.6,12.7c5.7,1.6,10.1,9.8,8.3,15.7
		c-0.5,1.7-1.2,3.4-2,5c-2.9,6.2-1.9,12.1,1.5,17.7c0.1,0.1,0.2,0.2,0.3,0.4c3.4,4.4,5.2,8.9,3.8,14.9c-1.3,5.7-0.6,11.8-1.3,17.7
		c-0.7,7-1.8,13.9-3.1,20.8c-0.2,1-1.8,2-2.9,2.5c-0.8,0.4-2,0.1-3,0.1c-44.5,0-89,0.2-133.5,0c-19.5-0.1-38.9-0.6-58.4-1.1
		c-4.1-0.1-6.8,0.7-7.2,5.3c-0.3,4.1-0.8,8.2-0.9,12.3c-0.1,2.8,0.1,5.9-3.2,6.4c-8.5,1.4-10.8,7.8-11.4,14.7
		c-0.6,5.6-4.2,6.2-8,6.3c-6.8,0.3-12.6,2.5-18.2,6.2c-3.7,2.5-7.6,5.6-12.6,2.9c-0.8-0.5-1.7-0.9-2.5-1.5c-1.8-1.5-4-4.6-5.2-4.2
		c-4.5,1.3-9.9,0.2-13.1,5.1c-2.3,3.6-5.3,3.3-8.2-0.1c-1.9-2.2-4.2-4-6-6.3c-0.8-1-1.9-3-1.4-3.8c3.7-6.9-0.9-12.5-2.9-18.4
		c-0.8-2.5-2.1-4.8-3.1-7.2c-2.6-6.6-2.6-6.6-9.8-4.7c-1.6,0.4-3.1,1-4.7,1.1C2187.1,708.2,2186.1,710.5,2187.7,714.7z"/>
	<path id="_x32_282" class="st0" d="M3035.6,766.1c-0.6,1.8-0.9,3.7-1.7,5.1c-4.6,7.9-5.9,16.5-5.9,25.5c0,1.6-0.2,3.4-0.9,4.7
		c-5.1,9.9-3.5,20.2-1.9,30.4c0.8,4.9-3,11.1-7.9,11c-12.9-0.2-26,0.3-38.8-1.3c-7.9-1-12,0.7-15.7,7.6c-2.4,4.6-7.3,6.6-12.8,8
		c-10.3,2.6-21.1,4.8-29.4,12.5c-1.2,1.1-3,1.4-5.4,2.5c0.7-5.8,0.7-10.9,2-15.6c1.1-4.1-0.7-6.6-3.5-8.2
		c-10-5.8-20.2-11.2-30.3-16.8c-3.3-1.8-6.4-3.9-9.7-5.7c-10.9-6.1-22-11.9-32.9-18.1c-5.8-3.3-10.8-7.3-10-15.5
		c0.8-8,0.4-16.1-3.8-23.5c-0.8-1.4-1.5-2.8-2.7-5.1C2894.9,764.6,2965.1,765.3,3035.6,766.1z"/>
</g>
</svg>
