<?xml version="1.0" encoding="utf-8"?>
<!-- Generator: Adobe Illustrator 19.0.0, SVG Export Plug-In . SVG Version: 6.00 Build 0)  -->
<svg version="1.1" id="Layer_1" xmlns="http://www.w3.org/2000/svg" xmlns:xlink="http://www.w3.org/1999/xlink" x="0px" y="0px"
	 viewBox="0 0 5000 2500" style="enable-background:new 0 0 5000 2500;" xml:space="preserve">
<style type="text/css">
	.st0{fill:#FFFFFF;}
</style>
<g>
	<path d="M2527.4,2273.7c8.3,8.3,8.4,9,3.9,19.3c-1.3,0.2-2.9,0.5-4.5,0.6c-1.6,0.1-3.3,0-5.4,0c-0.2-2.5-0.4-4.6-0.6-6.2
		c-6.9-1-13.9-0.6-19.3-3.3c-5.6-2.8-9.7-8.6-15-13.6c-4.3,6.7-8.3,13.1-12.4,19.5c-6.9,10.7-15.2,14-27.3,10.1
		c-6-1.9-11.9-4.3-17.5-7.3c-2.6-1.4-5.5-4.1-6.3-6.9c-1.7-5.7-5-9-10.2-11.3c-6.6-3-13.1-6-17.2-12.9c-1.8-3.1-6.3-4.8-9.8-6.7
		c-9.1-4.8-15.4-12.4-21.1-20.7c-2.9-4.2-7-7.8-11.1-11c-5.8-4.4-12-8.3-18.2-12.1c-3.4-2.1-7.1-3.5-10.7-5.2
		c-3.9-1.8-8-3.3-11.7-5.4c-4.9-2.7-8.9-6.4-15.4-5.8c-3.1,0.3-6.5-2.9-9.6-4.4c-0.7,0.3-1.5,0.4-1.8,0.9c-5.8,8-8.1,11.3-18.5,2.6
		c-11.3-9.4-23.4-11.3-37.2-7.7c-6,1.6-8.3-0.2-10-6.7c-1.8-6.7-2.7-13.7-4.7-20.4c-1.2-4-3.1-8.1-5.7-11.3
		c-3.3-4.1-4.3-7.8-2.7-12.8c4.3-13.6,7.1-27.7,16.4-39.3c1.2-1.5,2.4-3.4,2.7-5.3c2.2-13.7,12-22.7,20.3-32.5
		c7.7-9.1,15.5-18.2,23.8-26.8c2.3-2.4,6.3-3.5,9.7-4.2c5.1-1.1,10.5-1.4,16.1-2.1c-0.7-1.1-1-2.1-1.7-2.6
		c-17.8-11.8-34.3-25.2-49.3-40.4c-6.5-6.6-13.8-9-23.2-8.7c-22,0.7-44-0.2-66,0.3c-25.5,0.7-50.2-5.2-75.2-8.2
		c-5-0.6-6.2-4.2-7.8-8c-7.8-19.4-15.7-38.8-23.7-58.3c-11.1-27.1-22.2-54.2-33.3-81.3c-3.2-7.8-7.3-14.4-15.9-18
		c-7.9-3.3-14.9-3.9-22.9-0.8c-9,3.4-18.5,5.4-27.6,8.7c-8.7,3.1-17.1,7-26.2,10.7c-5.3-2.9-7.8-7.7-8-14.3c-0.2-7-1-13.9-1.3-20.9
		c-0.2-4.8-2.5-8.1-6.1-10.8c-7.2-5.4-14.1-11.2-21.3-16.5c-14.2-10.5-24.1-24.7-33.5-39.2c-2.4-3.7-3.5-8.7-3.6-13.1
		c-0.3-13,0.8-26,0.1-38.9c-0.3-6.4-2.3-13.2-5.3-18.9c-10.3-20.3-10.3-41.7-8.1-63.4c0.4-4.3,3.5-8.5,5.9-12.4
		c2.9-4.7,5.5-9,2.2-14.7c-1.2-2.1-1.1-5.2-0.7-7.8c1-7.9,2.3-15.7,3.8-23.5c0.8-4.1-0.1-7-3.8-9.3c-4.3-2.6-8.1-5.9-12.5-8.2
		c-7.1-3.8-9.8-9.5-9.3-17.2c0.1-1.6-0.1-3.2-0.3-5.8c-12.6-0.3-19.2-7.5-21.3-19.3c-0.2-0.9-0.7-2.1-1.4-2.6
		c-11.9-6.8-11.2-17.6-9.2-28.8c0.1-0.6,0-1.3,0-3.4c-0.3-0.2-1.6-0.7-2.5-1.5c-7.9-7.4-7.8-13.6,1.1-19.2c4.1-2.6,4.9-5.4,5.2-9.7
		c0.7-9.4,1.1-18.6-2.1-27.6c-0.3-0.9-1.1-2.1-0.8-2.8c3.8-8.5-2.3-15.3-4-22.7c-3.2-14.1,0.6-23,13.7-29.4
		c5.4-2.6,10.8-5.1,16.2-7.7c0.6-0.3,0.9-0.9,1.4-1.4c0-20.1,13.3-35.7,18.5-54.8c-3.8-4.3-9.1-6.4-15.3-6.7c-2-0.1-4,0-6-0.1
		c-12.2-0.7-19.7-9.5-16.3-21.5c5.3-19.1,0.5-36.7-6.1-54.2c-2.2-5.9-5.5-11.5-7-17.6c-2.3-8.9-3.5-18.1-5.4-28.5
		c-4.5,0-10-0.4-15.4,0.1c-23.5,1.8-47,3.8-70.5,5.9c-21.8,1.9-43.6,3.9-65.5,5.7c-15.9,1.3-17.2-0.3-12.6-15.5
		c2-6.7,4.1-13.4,6.3-20c3.7-11.1,5.2-22.4,5.6-34.2c1.1-36.8,2-73.7,6.8-110.3c0.3-2,0.8-4.6-0.2-5.9c-5.5-7.6-0.5-14.1,2-20.5
		c3.6-9.6,2.3-14.1-6.8-19.4c-4-2.3-7.6-5.3-11.5-7.8c-3.3-2.1-6.7-5-10.4-5.4c-12-1.5-19.3-10-27-17.4c-6.9-6.7-7.5-16.7-9-25.8
		c-0.4-2.4,0.6-5.2,1.5-7.7c1.2-3.4,3-6.6,4.3-9.6c-1.9-6.5-6.3-8.5-12.2-8.9c-3.3-0.2-6.6-0.9-9.7-1.7c-6.9-1.7-11.5-6.5-11.6-13.3
		c-0.1-7.2-3.8-10.8-7.8-13c-9.5,0.3-17.8,1-25.9,0.4c-3.6-0.3-7.5-2.7-10.2-5.2c-4.4-4.1-9.3-6.2-15.1-6.7
		c-3.6,2.8-6.9,6.2-10.8,8.4c-6.3,3.5-10.8,2-14-4.3c-3.4-6.7-5.3-13.8-1-20.9c2.6-4.2,1.7-7.1-2.2-10.2c-4.1-3.3-7.8-7.2-11.3-11.2
		c-7.3-8.4-6.2-16,2.6-22.6c7.1-5.3,15-8.1,23.8-9c12.2-1.2,24.4-2.6,35.7-7.9c4.4-2.1,8.4-4.1,9.3-9.5c0.2-1,0.4-2.1,1.1-2.8
		c11.9-11.8,15-27.9,21.3-42.5c4.2-9.8,7.9-19.8,11.9-29.6c4-9.9,5.4-10.5,15.7-8.9c15.1,2.4,30.2,4.5,45.3,6.6c1,0.1,2-0.1,1.4-0.1
		c8.2-6.6,15.4-12.3,22.6-18c5.7-4.5,8.9-10.3,10.9-17.3c2.4-8.2,5.7-16.2,9.5-23.9c5.7-11.7,7.5-24,7.9-36.7c0.4-13,0.4-26,0.8-39
		c0.2-6.3-1-11.8-5.5-16.6c-5.1-5.4-6.1-11.8-2.8-18.5c4-8.2,8.2-16.3,13-25.8c-2-2.9-4.8-7.5-8.1-11.5c-4.4-5.3-6.5-11.2-7.8-18
		c-2.3-11.3-5.9-22.4-9-33.6c-1-3.5-2.2-6.9-3.5-11.1c3.3-1.3,6.2-2.5,10.4-4.2c4.3,12.3,8.4,24.1,12.8,36.6c7-3.1,14.3-1.4,22,1.1
		c4.4,1.4,10,0.7,14.6-0.6c6.1-1.7,10.3,0.1,14,4.6c6.6,7.9,6.6,7.9,18.6,9.1c2.3-5.4,4.8-11.1,7.1-16.8
		c5.3-12.9,10.5-25.9,15.8-38.8c4.1-10.3,10.7-12.6,20.1-6c5,3.5,9.6,3.9,15.5,2.3c1.2-2.7,2.6-5.7,4.2-9.3
		c13.8,0.9,19,11.7,25.2,22.6c5.3-10.9,10.2-20.9,14.6-30c1.6,5.9,1.3,7.7-4.4,19.7c1.4,1.1,2.9,2.5,4.5,3.4
		c16.5,9.3,33.1,18.5,49.6,27.8c3.4,1.9,6.5,2.2,10.4,1c9.9-3,19.7-5.8,28-12.5c3.3-2.6,7.7-3.9,11.5-5.8c4.5-2.2,9.2-3.9,13.3-6.7
		c8.1-5.5,16.9-7.8,25.4-3.2c15.5,8.4,31.7,6.4,47.9,5c5.8-0.5,8.6,0.5,10.8,5.6c2.3,5.4,5.6,10.4,7.7,15.9c1,2.5,0.3,5.7,0.2,8.6
		c-0.6,11.6-1.6,23.2-1.9,34.7c-0.1,2.2,1.9,4.6,3.5,6.5c3.4,4.1,7.6,7.5,10.7,11.8c4.5,6.1,5,12.6,0.7,19.5
		c-3.1,5-5.8,10.6-7.2,16.3c-2.3,9.2-7.8,15.4-15.9,19.3c-8.4,4.1-14.8,10.3-20.3,17.4c-3.1,4-4.7,9.4-6.2,14.5
		c-2.8,9.8-7.8,17.1-17.3,21.8c-13,6.4-25.9,12.3-40.9,10.5c-3.6-0.4-7.2-1-10.7-1.8c-6.4-1.4-12.6-1.1-18,2.7
		c-7.4,5.2-15,9.8-24,9.9c-3.4,9.2-2.5,16.9,3.3,24c1.8,2.3,3.2,5.3,3.7,8.1c1.7,9.9,5.4,18.9,9,28.1c1.9,4.8,3,10.3,3,15.5
		c0,8.1,6.7,11.8,14.5,10.6c4.9-0.8,9.7-2.3,14.6-3.3c10.6-2.2,16.5,0.5,23,11.3c-2.6,3.3-5.2,7.5-8.6,10.8c-4.4,4.4-5.8,8.4-4.4,15
		c2.5,11.2,3.6,22.8,4.3,34.4c0.7,10.9,1.7,14.1,12.2,16.1c12.1,2.4,19.2,9.6,23.9,20.3c3.6,8.2,0.6,19.3-7,24.5
		c-3,2-6.3,3.8-9.1,6.1c-2.3,1.9-5.2,4.2-5.8,6.7c-2.2,10.6-10.8,16.3-16.9,24c-1.6,2-1.8,5.2-2.4,7.9c-0.2,0.8,0.7,1.8,0.9,2.8
		c4.5,16.3,8.9,32.7,13.7,50.2c18.2-1,36.3-2.1,55.2-3.2c0.9-6.7,1.8-12.6,2.6-18.4c1-6.9,2.6-13.8,2.6-20.7
		c0-5.5-1.6-11.1-3.4-16.4c-4.1-12.1-1.4-15.8,11.5-14.5c0.5-0.8,1.5-1.6,1.5-2.5c0.2-10.4,6.6-18.5,10.3-27.6
		c1.6-3.9,2.2-8.3,3-12.5c1-5.7,3-10,9.7-10.6c7.6-0.8,15.1-2.5,22.7-2.9c4.7-0.2,8.3-1.4,11.3-5c1.3-1.5,2.8-2.8,4.2-4.3
		c14.3-15.1,30.2-3.2,33.2,10.1c1.7,7.3,3.3,14,8.5,19.8c1.8,2,2.3,6.6,1.3,9.3c-3.2,9,1.7,12.4,7.2,15c5.3,2.6,11.3,3.9,16.3,6.9
		c5,3,9.1,7.3,15.6,12.7c-1.2-6.1-2-10.1-2.9-14.1c-1.1-5.1-3.1-10.2-3.4-15.4c-0.4-7.5-2.2-13.6-8.9-17.8c-1.6-1-2.8-2.8-4.3-4.4
		c-0.3-7.1,3.1-10.7,9.9-12.5c6.3-1.7,11.9-1.7,18.4-0.2c8.9,2.1,18.4,3.1,27.6,2.7c12.2-0.5,21.7-7.9,30.3-15.9
		c10-9.3,19.5-19,30-29.2c-1.2-6.2-3.2-13.2-3.9-20.3c-0.6-5.8-0.8-12.1,0.7-17.7c1.8-6.6,1.9-13,1.8-19.6c-0.1-5.2-1.6-9.3-5-13.6
		c-3.1-3.9-5.8-9.4-6-14.3c-0.4-9.8,1.1-19.6,1.6-29.5c0.1-2.8-0.1-5.8-0.7-8.6c-2.7-11.6-7.5-23.1-8.1-34.8
		c-0.6-11.3-1.9-22.2-5.1-32.9c-0.5-1.5-0.2-3.3-0.1-5c0.8-8.4,4.3-11.6,12.6-9.7c9.1,2,17.9,5.1,27.5,8c6.2-4.3,11.7-9.4,12.9-18.2
		c1.1-7.5,2.5-15.3,5.5-22.2c5.5-12.7,0.2-23-6.7-32.4c-6.5-8.8-15.2-15.7-22.3-24.1c-13.2-15.6-28.6-29.4-35.5-50
		c-4.3-12.8-4.1-26.2-7.3-39c-0.8-3.2,1.5-7.9,3.6-11.1c5.4-7.9,4.7-15.5,0.8-23.5c-1-2.1-2.4-4-3.6-6c-3.3-5.2-3.3-10.1-0.1-15.7
		c4.8-8.3,8.3-17.4,13.2-25.7c2.8-4.7,2.4-8.5,0.7-13.1c-1.4-4-2.5-8.1-4.1-13.3c-14.8,0-30.5,0-48.1,0c4.7-4.9,8.7-3.3,12.3-3.2
		c8.3,0.2,16.6,1.4,24.8,0.8c5-0.4,10.3-2.5,14.6-5.2c7.1-4.5,13.9-5.9,21.5-1.6c1.7,1,3.5,1.9,5.3,2.7c8.4,3.9,11.1,3.3,17.2-3.8
		c1-1.2,2.1-2.3,4-4.5c0.3,10.7,0,20.1,0.8,29.4c0.8,9.5,9.6,13.8,18.1,9.3c4.7-2.5,9.2-5.5,13.4-8.7c6.3-4.9,13.1-6.1,20.7-4.3
		c2.6,0.6,5.2,1,7.8,1.7c11.7,3.3,22.3,0.7,32.5-5.2c16.9-9.9,35-17.4,53.6-23.4c3.3-1.1,6.8-1.4,10-2c6.7,16.2,4,25.8-9.3,34
		c-3.6,2.2-5.1,4.7-5.2,8.8c-0.1,5.3-0.8,10.6-1.2,15.8c-0.3,3.8,0,7.2,3.2,9.9c9.3,7.9,15.1,18.5,20.8,29.1c0.8,1.5,1.6,3,2.6,4.3
		c4.6,5.8,9.4,6.9,15.6,2.7c6.3-4.3,12.1-9.4,18.2-13.9c5-3.7,10.4-7,15.4-10.8c1.5-1.1,2.5-2.8,3.5-4.4c1.1-1.8,2-3.8,4.3-5.3
		c-0.4,3-1.7,6.4-0.8,8.9c0.9,2.5,4.1,4.1,6.3,6.2c5.8,5.5,11.6,11,17.4,16.5c7.5,7,12.9,15.1,14,25.6c0.2,2.2,1.4,4.3,2.4,7.6
		c10.1-3.2,19.8-6.2,29.5-9.3c5.1-1.6,10-3.6,15.1-5.2c8.2-2.6,16.3-5,22.8-11.6c2.9-2.9,7.3-4.9,11.4-6c6.4-1.8,10-6.1,12.6-11.7
		c0.7-1.5,1.2-3.1,2-4.6c4.8-9.6,12-15.8,23.3-16c16.3-0.2,32.7-1,49-0.4c18.6,0.7,32.4,13.9,34.8,31.1c0.8,5.9,3.8,11.7,3.7,17.5
		c-0.3,11.5-2,23-3.3,34.4c-0.4,3.5-1.4,6.9-2.5,12.5c8.5-5.4,15.3-3.2,22.1-0.8c2.2,0.8,4.5,1.3,6.8,1.6
		c10.1,1.3,14.9,8.9,11.9,18.9c-1.5,5.1-3.5,10.1-4.1,15.3c-1.2,9.7,3.9,15.9,13.5,17.3c7.1,1,13.4,3.5,18.9,8.2
		c4.6,3.9,9.7,5.9,16.1,6.8c7.4,1.1,14.5,4.6,21.3,7.8c8.5,4,10.1,3.6,15.6-3.9c6.6-9.1,8.4-19,6-30c9.7,1.6,9.7,1.7,10.9,9.1
		c0.4,2.5,1.3,5,2.1,7.5c1.1,3.7,2.7,7.4,3.2,11.2c1.3,10.9,4.1,14.2,14.5,12.8c8.4-1.1,17.2-0.1,25.2-4.4c4.4-2.3,7.8,0,9.9,5.2
		c2.4,5.8,4.7,11.6,6.9,17c6.1,2.3,10.5,0.5,14.3-3.2c0.7-0.7,1.4-1.4,2.1-2.1c10.3-9.9,11.1-9.4,22.3-0.8
		c4.8,3.7,11.2,5.4,17.1,7.2c9.5,2.8,11.2,4.4,11.6,14.4c0.4,9.8,1.1,10.5,10.3,12.8c8.4,2.1,16.7,4.3,24.8,7.2
		c2.8,1,5.9,3.7,7.2,6.4c6.9,14.1,18.8,23.7,29.9,34.1c4.4,4.2,9.6,6.7,15.3,8.9c5.4,2,10.3,5.6,16.8,9.2c4.9-1.4,9.7-5,10.4-12.2
		c0.5-5.2,1.1-10.6,0.7-15.8c-0.5-7.7-0.9-7.7,5.9-13.6c9.3,3.2,10.2,13.2,16.8,20.4c3.4,0,8.1,0.5,12.6-0.1
		c8.3-1.1,15.7-0.1,22.4,5.5c2.7,2.2,6.3,3.4,9.4,4.9c3.5-3.2,3-6,1.6-9.4c-3.8-9.3-2.7-14.2,6.3-16c12.1-2.4,20.8-7.4,25.7-19
		c1.7-4,6.2-5.1,10.4-4.2c10.3,2.1,20.6,4.5,30.9,7c6.1,1.5,12.1,3.3,18.2,4.9c1.9,0.5,4.1,0.4,5.9,1.2c10.3,4.7,21.3,4.8,32.2,5.4
		c8.4,0.5,11,1.8,12.6,9.8c2,10.8,8.2,17.3,18.1,20.5c10.6,3.4,16.9,11.2,22.6,20.1c2.5,3.8,5.8,7.1,8.6,10.7c1.2,1.5,2.7,3,3.2,4.7
		c2.7,8.4,9.4,12.2,17.1,13.2c6.9,0.9,10,4.5,11.6,10.4c2,7.4,3.4,14.9,5.6,22.2c3.1,10.1,6.6,20.1,10,30.1c1.8,5.2,2,10.2-0.1,15.6
		c-4.8,12.7-5.7,25.9-3,39.2c1.4,6.8,5.7,11.9,11.4,15.4c5.2,3.1,8.2,7.1,9.5,13.2c1,4.7,1.1,10.8,8.5,11.7c1.3,0.2,2.2,3.7,3.2,5.6
		c-0.7,0.8-1.2,1.7-1.6,1.7c-7.2,0.5-11.8,4.2-15.4,10.4c-1.7,3-5.6,4.7-7.9,7.5c-4.7,5.5-9.8,10.9-13.5,17.1
		c-4.8,8.1-3,12.5,5,17.6c6.4,4.1,13.1,8.1,18.7,13.1c3.2,2.8,6.1,7.5,6.4,11.6c0.7,9.2,4.8,16.3,9.6,23.6c2.8,4.3,5.2,9.1,6.9,14
		c5.2,14.3,8.5,29.6,15.4,43c5.3,10.2,11.2,20.2,16.3,30.6c0.4,0.9,1.1,1.9,1.9,2.3c8.5,4,10.4,12.3,13.4,20.1
		c4.5,11.8,9.7,23.3,14,35.1c1.4,3.8,0.7,8.3,1.2,12.5c0.4,2.8,0.7,5.9,2.1,8.3c4.2,7.2,4.2,8.7-2.8,12.2
		c-11.3,5.7-22.8,10.9-34.2,16.4c-18.3,8.8-36.5,17.7-55.1,26.7c0.6,5.1,1.2,9.6,1.7,14.2c0.4,3.9-0.7,6.9-4,9.5
		c-13.7,10.6-23,24-23.3,42c-0.2,9.4-5.6,16.9-7.6,25.5c-1.3,5.4-4.8,10.3-2.1,16.3c0.5,1.2-0.8,3.9-2.1,5
		c-6.6,5.4-14.9,5.2-22.7,5.8c-2.2,0.2-5.6-3.5-7.1-6.2c-3.6-6.7-7-13.7-9.2-20.9c-3.3-11.1-8.6-20.9-15.9-29.7
		c-5-6.1-7.7-12.9-10-20.4c-3.8-12.4-8.2-24.6-13-36.6c-2.4-5.9-3.5-11.2-0.3-17.1c5.1-9.4,4.5-18.7-0.1-28.5
		c-2.7-5.9-6.6-10.3-11.9-12.9c-9.5-4.7-13-12.7-15.2-22.1c-1-4.4-2.1-8.8-2.9-12.4c-1.9-0.8-2.5-1.3-3.1-1.2
		c-12.7,1.8-12.7,1.8-17.6-10c-2.2-5.4-5-9.6-10-13.8c-7.8-6.4-13.6-15.5-18.8-24.3c-2.5-4.2-2.3-10.3-2.5-15.5
		c-0.4-11.9-4.3-23.7-0.9-35.6c1-3.6,3.5-6.9,5.8-10c3.3-4.4,7-8.6,11.3-13.9c-10.4-3.3-19.3-5.5-28.4-3.4
		c-7.9,1.8-16.4,2.3-23.2,7.9c-1.8,1.5-5,1.3-7.5,2.1c-8.5,2.6-18.2-0.8-26.1,6.2c-2.6,2.3-8.4,1.5-12.6,1.1
		c-13.7-1.1-20.8,7.7-27.6,17.4c-2.2,3.2-1.3,6,0.7,8.2c6.3,7,8.3,17.5,18.5,21.6c2.7,1.1,5.3,6.5,5.2,9.9
		c-0.5,12.6,2.2,24.4,6.8,35.9c0.8,2.1,1.4,4.3,2.2,6.9c-11.7,3.8-21.3,10-29.5,18.6c-2.2,2.3-5.5,3.7-8.2,5.6
		c-17.5,12-35.3,23.7-52.5,36.3c-7.4,5.4-13.5,12.7-20,19.3c-7.2,7.3-11.1,16.6-13.9,26.1c-2.2,7.5-6.7,12.8-12.4,17.5
		c-4.2,3.5-7.5,7.4-8.5,13.6c2.8,1.8,5.4,3.7,8.3,5.2c8.8,4.3,17.8-1.1,18.3-10.8c0.3-4.9,0.6-9.9,1.3-14.8c0.4-3.1,3.3-5.3,5.7-3.7
		c5.7,3.8,10.7,1.4,15.3-0.6c11.7,4.3,7,13.7,7.4,21.6c5.2,0.9,10,1.6,15.9,2.6c-0.3,11.1-0.6,21.9,3.4,32.3
		c1.7-0.2,3.9-1.1,5.4-0.4c2.5,1.2,6.6,3.8,6.4,5.1c-1.1,6.1-3.1,12.1-5.5,17.7c-1.9,4.3-6.6,4.4-10.5,3.9
		c-9.2-1.2-18.3-2.9-28.2-4.5c-0.7,1.3-2,2.9-2.2,4.6c-1,7.6-1.9,15.2-2.4,22.8c-0.4,6.7,1.1,8.3,7.6,8.8c1.7,0.1,3.3-0.1,5,0.1
		c8.9,1,11.3,4.1,11.3,12.9c0,4.9,0.6,9.9,2.1,14.5c1.4,4.4,0.8,7.4-3.4,8.7c-7.7,2.4-10.5,8.3-12.8,15.3
		c-3.2,9.9-9.9,12.9-20.1,9.3c-5.3-1.9-10.9-3.6-15.6-6.5c-4.7-2.9-8.6-7.3-13.7-11.8c-12.7,6.3-25.6,12.8-39,19.4
		c3.7,9.6,2.2,17.4-4.9,24.2c-1.5,1.4-1.5,4.3-2.3,7c12.4,1.7,17.6,9.5,18.2,21.2c0.2,3.9,1,7.9,1.6,12.5c11.1,1,16.7,8.6,20.8,18.2
		c1.1,2.6,3.9,4.5,5.5,7c1.2,1.9,3.2,4.9,2.5,6.1c-3.3,6,1.4,9.8,2.8,14.7c2.6,9.2,3.8,18.8,5.7,28.2c1.1,5.5,2.7,10.9,4.1,16.3
		c0.3,1.3,1.3,2.4,1.4,3.7c0.9,12.8,2.6,25.7,1.9,38.5c-0.4,7.4-1.1,13.5,4.9,19c4,3.7,5.6,8.7,5.8,14.4
		c0.3,11.1-0.8,12.8-11.4,16.6c-5.6,2-10.9,4.7-16.4,7.2c-3.6,10.8-6.9,21.8-11,32.6c-1.7,4.5-4.7,8.7-7.9,12.4
		c-12.1,13.6-24.5,26.9-38.1,41.8c12,0.3,22.2,0.6,32.4,0.9c0,0.8,0.1,1.6,0.1,2.4c-2.4,0.4-4.7,1-7.1,1c-8,0.1-16,0.3-24,0
		c-4.1-0.1-7,1.4-9.5,4.3c-7.4,8.5-15.1,16.9-22.3,25.5c-4.1,4.9-5.6,10.5-2.6,16.6c1.5,3,2.3,6.5,4.5,8.9c7,7.8,11.5,17,16.2,26.2
		c4,7.8,9.9,13.9,17.5,18.6c13.5,8.3,15.7,32.1,4,42.7c-1.8,1.6-4.5,2.7-6.9,3.1c-5.8,0.9-11.8,1.7-17.7,1.8c-2.7,0.1-5.7-1-8.2-2.2
		c-8.1-3.6-16.1-7.5-24.2-11.3c-0.5-0.2-1.3,0.1-2.3,0.2c-3.4,5.6,2.6,11.7-1.4,18c-3.5,5.6-7.4,9.8-13.9,13.1
		c3.6,3.3,6.3,6,9.3,8.4c8.1,6.6,9,13.5,3.4,22.2c-3.8,5.8-7.4,11.9-10.2,18.2c-2.2,4.8-2.2,10-1.1,15.6c2.5,13.4,0.8,26.6-7,38.2
		c-2.9,4.2-2,6.6,1.3,10.2c5.2,5.6,8.9,12.3,9.1,20.5c0.1,4.4-0.7,8-5.2,9.7c-5.2,2-10.5,3.7-15.5,5.9c-2.8,1.2-5.9,2.8-7.8,5.1
		c-3.2,3.8-5.4,8.4-8.2,12.5c-4,5.8-9.5,8.2-16.5,9.7c-14.3,2.9-24.5-2.3-32-13.3c-1.5,0.2-2.5,0-2.8,0.3
		c-5.7,8.9-15.5,11.9-23.8,17.2c-11.7,7.5-22.7,16.2-33.8,24.6c-5.8,4.4-11.3,9.2-16.2,13.3c3.4,9.5,6.7,18.1,9.5,26.9
		c1.9,5.9,4.1,11.3,10,14.2c7.1,3.5,8.8,9.4,8.3,16.7c-0.6,8.3-0.8,16.6-1.8,24.8c-0.7,6.1,0.7,10.9,4.9,15.4
		c3.7,3.9,8.6,6.9,9.4,13.5c-4.5-4.4-9-8.8-13.9-13.5c-5.5,6.8-10.5,12.8-15.5,19c-3.6,4.5-8.4,7-13.9,5.7c-8-2-14.2,1.6-20.7,4.9
		c-13.3,6.8-26.4,13.9-39.8,20.4c-7.1,3.4-13.5,8.6-22.1,8.5c-1.7,0-3.4,1.9-5,3.1c-1.6,1.2-2.7,3.6-4.4,3.9
		c-13.4,2.9-20.1,14.3-28.4,23.2c-5.8,6.3-10.3,13.8-15,21c-2.2,3.3-3.6,7.1-5.1,10.8c-2,4.9-6.1,7.7-10.8,7.5
		c-14.5-0.5-26.1,6.9-38.4,12.6c-7.2,3.4-14.1,7.3-21.1,11.2c-1.7,0.9-3.6,2.1-4.5,3.7C2543.8,2263.2,2536.7,2269,2527.4,2273.7z
		 M2920.5,1915.2c-3.5-5.4-6.4-10.6-10.1-15.2c-5.2-6.4-6.7-11.1-1.8-17.7c8-10.8,9.1-22.8,6.8-35.2c-1.1-5.9-0.8-11.4,1.2-16.6
		c2.9-7.3,6.8-14.4,10.8-21.2c3.8-6.4,4-6.7-1.3-11.6c-4.6-4.3-9.2-8.5-13.7-13c-3.5-3.6-1.9-6.8,1.6-9.1c1.9-1.3,4.2-2.1,6.4-2.6
		c4-0.9,6.9-3.1,7.7-7c0.7-3,0.6-6.4,0.1-9.5c-1.3-9.4,2.3-13.6,11.6-14c11-0.4,19.4,6.4,28.7,10.3c8.4,3.5,15.9-0.4,23.8-1
		c1.3-0.1,2.7-2.8,3.4-4.6c2.4-6.2-1.6-18.6-7.3-22.3c-10.3-6.8-18-15.5-23.1-26.8c-2.4-5.4-6-10.3-9-15.5
		c-3.1-5.4-6.7-10.6-9.2-16.3c-3.9-8.9-2.8-17.4,3.9-24.8c17.6-19.5,35.2-39,52.7-58.6c10.3-11.6,23.2-21.3,26.9-37.6
		c1.5-6.7,4-13.3,5.1-20.1c0.7-3.9,2.5-6.2,5.6-7.6c7.4-3.5,14.9-6.6,22.6-10c2-6.2-0.2-11.5-4.6-16.1c-1.8-1.9-4.7-4.1-4.7-6.2
		c0.1-9.7-6.7-10.6-13.6-12.3c-49.5-11.9-98.8-24.1-148.3-36c-45.9-11.1-91.8-21.9-137.7-33c-4.2-1-7.6-0.9-11.2,1.8
		c-5.1,3.8-10.6,7-15.6,10.8c-13,9.8-27.4,17.3-41.8,24.7c-5.5,2.8-11.7,4.3-17.1,6.3c-10.6-10.4-15.6-13-29.4-14.7
		c-21.1-2.6-14.7-4.6-30.5,9.7c-1.7,1.6-3.9,2.7-5.3,4.5c-2.9,3.5-6.4,7-8,11.1c-6.8,17.7-13.2,35.5-19.5,53.4
		c-3.4,9.6-6.3,19.4-9.2,28.3c-6.7,0.5-11.9,1.1-17.1,1.2c-11.3,0.1-20.2,4.3-27,13.5c-1.6,2.2-4.7,4.7-7,4.7
		c-14.5-0.4-29.3,2.7-43.6-2.8c-3.1-1.2-7.2-0.8-10.5,0.1c-10.5,3.1-20.8,6.7-30.9,10c-7.6,14.1-10.5,29-10,44.4
		c0.2,6.4-1.8,10.4-6.9,14.1c-7.5,5.4-12.5,12.4-12.7,22.5c-0.1,5.2-1.7,10.5-3.4,15.5c-0.9,2.6-2.8,5.7-5.1,7
		c-7.1,3.8-15.5,5.7-23,3.5c-8.6-2.6-17-2.2-25.6-2.8c-4.5-0.3-10-0.6-13.2-3.2c-8.8-7.1-19.3-8.2-29.4-11
		c-8.9-2.5-17.5-2.1-26.4-0.1c-44.1,9.9-88.3,19.2-132.4,29.2c-6.4,1.5-10.5,0.1-14.8-4.6c-7.4-8.1-15.1-16-23.3-23.3
		c-8.1-7.1-13.3-14.6-9.3-25.8c0.2-0.5-0.3-1.2,0.1,0.2c-6-5.5-10.9-9.4-15-13.9c-9-9.9-19.8-15.3-33.2-15.4
		c-3.6,0-7.3-0.5-10.8-1.2c-14.6-3.2-29.1-6.6-44.6-10.2c-1.2,2.6-3.2,5.1-3.4,7.7c-0.6,7.6-1.7,15.5-0.3,22.9
		c2,11.1-1.8,21.7-0.9,32.6c0.1,1.4-1.3,2.9-1.9,4.3c-9.7-3.4-19-6.6-28.3-10c-0.9-0.3-1.8-1-2.5-1.7c-7.5-7.9-15-15.9-22.5-23.9
		c-8.3-8.8-15.5-18.9-29.2-20.1c-6.9-0.6-12.6-3.7-15.1-11c-0.8-2.3-3.2-4.1-5.2-5.9c-5.8-5.2-10.3-11.1-13-18.6
		c-2.9-8-7.1-15.4-13.2-23.4c-0.3,3.5-1.3,6.1-0.5,7.2c6.5,8.1,1.8,14.9-2,21.9c-1.9,3.5-5.3,6.8-5.7,10.4c-1,9.5-1.4,19.2-1,28.8
		c0.6,14.3,8,26.6,12.5,39.8c1.8,5.2,2.5,10,2.3,15.5c-0.6,12.2-0.4,24.5-0.2,36.7c0.1,2.8,1,6.1,2.6,8.3
		c8.7,12.1,16.9,24.7,29.3,33.7c7.3,5.3,14,11.2,21.1,16.7c7.6,5.8,12.3,12.9,11.6,22.9c-0.4,5.5-0.1,11-0.1,17.1
		c18.6-5.8,35.9-11.5,53.3-16.5c4.9-1.4,10.7-2,15.6-0.9c6,1.3,11.8,4.4,17.3,7.5c3.3,1.9,6.2,5.1,8.3,8.4c3.2,5,5.8,10.5,8.1,16
		c14.6,36,29.1,72.2,43.7,108.2c3.9,9.5,8,18.9,12.1,28.4c4.7,0.7,8.9,1.5,13.2,2c20.5,2.2,40.5,7.4,61.4,6.7
		c23.6-0.8,47.2-0.8,70.8-1.5c6.1-0.2,11,1.5,15.4,5.6c5.3,5,10.9,9.7,16.5,14.5c7.6,6.5,15.1,13.1,22.9,19.2
		c6.2,4.9,12.9,9.4,19.4,14c5.2,3.7,7.1,9,5.9,14.9c-1.3,6.5-7.2,7.1-12.6,7.7c-3,0.3-6,0.3-9,0.1c-5-0.3-8.7,1.3-12,5.4
		c-5,6.2-11,11.6-16.2,17.6c-9.1,10.5-19.8,19.8-22.9,34.4c-0.6,2.8-2.2,5.6-4,8c-8.5,10.8-11.3,23.8-14.9,36.8
		c10.3,8.9,8.3,22.7,13.6,34.2c16.5-3.7,31,0.1,42,11.1c4.8-3.2,9.1-8.2,12.1-7.5c7.6,1.6,15.9,3.4,22.5,6.9
		c8.4,4.4,16.2,10.2,25.6,13c2.5,0.7,4.6,2.6,6.8,4c6.1,4,12.6,7.6,18.3,12.1c5.4,4.2,10.8,8.9,14.7,14.4
		c4.9,6.9,10.1,13.3,17.5,17.3c12.2,6.5,20.4,18.8,33.9,23.5c2.4,0.8,4.7,4.1,5.6,6.7c3.6,10.8,13.2,11.9,22.1,14.2
		c4.8,1.3,8.4-0.5,10.8-4.8c3.5-6,7.2-12,10.6-18c4.6-8.2,11.3-10.1,19.1-5c3,2,5.4,4.9,8,7.4c2.3,2.2,4.5,4.4,6.3,6.3
		c7.1-4.5,13.4-8.3,19.4-12.4c3.2-2.2,7-4.5,8.8-7.8c4.6-7.9,10.8-13.2,19.5-15.9c2.5-0.8,4.7-2.4,7-3.7c15.8-9.2,31.9-18,50.3-18.2
		c0.9-1.2,1.5-1.7,1.6-2.3c5.9-19.5,20.5-33.3,33.5-47.6c8-8.8,20.3-14.7,31.7-19.3c7.2-2.9,14.9-5.4,21.9-8.8
		c12.5-6,24.3-13.6,36.9-19.4c6.7-3.2,14.6-6.2,21.7-5.7c6.7,0.4,9.8-1.2,12.6-6.4c0.8-1.4,1.8-2.9,3-3.9c4.7-3.9,6.4-8.6,6.5-14.8
		c0.2-9.6,1.8-19.1,2.9-28.6c0.5-4-0.3-7.5-4-9.5c-9.6-5.3-12.8-14.4-15.9-24.2c-2-6.4-3.2-13.5-9.3-18.3c-5.6-4.4-5.4-6.3,0-11
		c7.8-6.7,15.9-13.2,24-19.6c13.3-10.6,26.2-21.6,42.1-28.3c2.3-1,4.5-2.9,6.2-4.8c11-12.1,14.4-12.2,25.4-0.7
		c1.1,1.2,2.2,2.6,3.6,3.3c2.6,1.3,5.4,3.1,8.1,3.1c9.7-0.1,18.4-2.4,22.3-13c0.9-2.4,2.8-4.5,4.1-6.8c2.8-5,6.6-8.1,12.7-7.9
		C2910.4,1922.7,2915.2,1920.3,2920.5,1915.2z M2295,1230.7c-1.1-6.2,0.5-10.3,3.9-13.9c4.5-4.8,5-10.5,1.9-15.6
		c-3-5-9-8.1-14.5-6.5c-10.4,3-19-2.5-26.1-6.9c-7.8-4.9-15.9-7.7-24.1-10.7c-40.3-14.7-80.7-29.2-121.1-43.5
		c-4.6-1.6-7.1-4.1-9-8.4c-5.3-11.9-10.7-23.6-16.3-35.4c-2.6-5.6-5.5-11.1-8.1-16.3c-10.7,0.7-19.4,4.7-26.4,10.6
		c-7.1,6-12.7,14-19.1,21.2c-3.6-1.5-7.3-3-10.8-4.5c-4.6,2.8-8.7,5.6-13,8.1c-10.9,6.4-21.6,13.3-32.9,18.8
		c-6.8,3.3-11.2,7.8-14.1,14.3c-1.3,2.8-2.8,5.6-4.9,10c-4.2-8.9-12.1-13.5-10.3-23.5c0.5-3-2.9-6.7-4.2-9.6
		c-6.7,2.7-13.4,3.5-17.2,7.3c-6.6,6.6-14,4.6-21.4,5.1c-5,0.3-9.9,0.5-14.9,1.1c-5.8,0.7-11.1,0.2-16-3.7
		c-11.8-9.4-26.3-8.2-40-8.8c-4.5-0.2-9.3,3.2-13.7,5.5c-3.5,1.8-6.6,4.5-9.2,6.3c-6.2-1.9-11.8-3.6-17.4-5.3
		c-2.5,10.3-2.2,13.4,0.7,21.5c4.9,13.7,10.6,27.3,13.8,41.4c2.3,10,5.3,20.5,1.3,31.4c-3.7,10.1-1.2,13.7,9.6,13.8
		c7.8,0,14.2,2.3,20.5,6.4c7.9,5.2,9.2,8.8,5.5,17.4c-4.9,11.3-9.9,22.5-14.5,33.8c-1.5,3.6-2.6,7.8-2.3,11.6
		c0.7,8.5-4,13-10.6,16.4c-5,2.6-10.4,4.5-15.4,7.1c-6.7,3.5-8.5,7.6-6.3,14.8c0.9,3,2.7,6,4.7,8.5c3.4,4.4,4.3,8.8,2.2,14
		c-0.8,2.1-1.9,4.8-1.2,6.6c3.8,9.1,1.6,18.4,1.9,27.6c0.3,8.5-0.8,15.6-10.4,19.6c8.5,4.8,9.1,10.8,6,18.3
		c-2.5,6.1-0.9,11.3,4.6,15.8c3.1,2.5,5.2,6.8,6.6,10.7c1.6,4.6,3.9,7.5,8.7,8.2c9.9,1.5,11.8,5.4,12,14.2c0.2,6.7,2.8,10.5,8,13.6
		c2.6,1.5,4.9,3.4,7.6,4.8c9.2,4.9,12,12.2,10.2,22.3c-0.9,4.9-1.2,11.3,1.1,15.3c9,15.7,13.3,34.4,28.7,46.1c0.5,0.4,1,1,1.1,1.6
		c1.7,8.7,8.6,10.6,15.6,11.2c13.9,1.2,21.4,11.4,28.8,20.7c12.8,16.3,27.8,28.6,48.3,32.6c1-7.2,2.2-14.3,3.1-21.5
		c0.2-1.9-0.2-3.9-0.3-5.9c-0.4-8.3-1.5-16.6-0.8-24.8c0.4-4.9,3.5-9.6,5.4-14.3c6.9,1.6,12.4,2.9,17.9,4.2
		c15.1,3.6,29.9,8.3,45.9,8.5c8.3,0.1,16.5,4.3,23.1,10.6c6.9,6.6,14.2,12.7,22.3,19.8c-0.3,1.6-0.9,4.9-1.4,8.1
		c-0.6,4.1,0.2,7.6,3.5,10.8c9.3,9.1,18.3,18.4,27.1,28c4.5,4.9,8.6,6.3,15.6,4.7c41.8-9.6,83.8-18.1,125.6-27.7
		c13.7-3.2,26.8-3.7,40.1,0.9c5.9,2,12.5,3,17.4,6.5c6.1,4.4,12.3,5.9,19.5,6.1c7.2,0.2,14.5,1,21.6,2.1c18.6,2.7,29-0.2,29.6-19.4
		c0-1,0.4-2,0.4-3c-0.2-10.3,5.2-18,12.7-23.7c5.2-4,7.2-8.1,6.9-14.2c-0.6-16.6,3.8-32.1,10.9-45.9c9.2-2.8,17.5-5.1,25.6-8
		c8-2.8,15.7-5.1,23.9-0.8c2.2,1.1,5.2,0.8,7.9,0.8c7,0.1,14.1-0.7,21,0.2c9.8,1.4,15.8-3.8,20.7-10.6c2.7-3.8,5.7-5.1,9.8-5.6
		c9.2-1.1,18.4-2.3,27-3.4c8.4-24.4,16.6-48.3,24.9-72.1c3-8.6,7.4-16.2,15-21.8c5.5-4.1,10.2-9.2,16-14.6c-4.6-5-8.5-9.2-12.7-13.9
		c3-1.5,5.6-3,8.3-4.1c13.8-5.7,27.6-11.6,41.6-16.8c6.7-2.5,11.5-5.8,13.5-13.1c1.7-6.2,5.5-10.6,12.9-10.2
		c1.4,0.1,3.1-1.1,4.3-2.1c6.3-5.2,12.5-10.5,19.1-16.1c-2.1-6.6-4.3-13.5-6.6-20.9c6.2-3.1,10.9-7.2,12.9-14.7
		c-3.8-0.8-7.2-1.8-10.6-2.3c-23.6-3.3-47.1-8.7-71.2-8c-5.2,0.1-9.3-1.8-13.2-5.7c-7.9-8-16.2-15.9-28.2-17.5
		c-4.6-0.6-6.2-3.8-7.2-8.3c-1.1-5.6-3.5-10.9-5.6-17.1c-3.5,2.5-5.6,4.1-7.8,5.5c-3.9,2.6-7.7,3.1-12.1,0.7
		c-13.2-6.9-26.7-13.3-40-20.2c-12-6.2-21.1-5.6-30.7,3.9c-4.7,4.6-9.9,6.3-16.1,6.8c-7.9,0.6-15.8,1.7-23.8,2.4
		c-2.6,0.2-5.2,0.4-7.7,0c-30.5-4.9-61-9.9-91.4-15.1C2330.6,1237.6,2313,1234,2295,1230.7z M2841,439.6c1.3,1.9,2.1,3.3,3.1,4.5
		c4.4,5.1,5.9,10.5,4.4,17.4c-1.5,7-2.4,14.6-1.4,21.6c1.4,9.4,4.8,18.6,7.6,27.8c1.1,3.4,1.5,6.3-0.7,9.4
		c-5.7,8.1-3.3,16.5-0.3,24.6c1.7,4.6,4.1,9.2,6.9,13.3c4.6,6.8,6,14.2,4.8,21.9c-2.5,15.5,2,28.9,11.8,40.6
		c4.5,5.4,6.2,11.4,6.5,18.3c0.3,7.2,0.9,14.6,2.7,21.6c5,20.1,13.4,38.8,24.7,56.3c13.2,20.4,21.6,42.7,19.1,67.7
		c-1.1,10.5,2.7,19.6,7.8,28.3c1.5,2.6,3.3,5,4.8,7.6c4.3,7.5,1.4,26.7-4.8,32.6c-0.2,0.2-0.5,0.5-0.7,0.7
		c-8.3,4.6-16.6,9.4-25,13.8c-3.1,1.6-6.1,2.7-6.7,6.6c-1.1,7.8-5.9,13.1-11.6,18c-1.8,1.6-3.2,4.1-3.7,6.4
		c-1.1,5.1-1.6,10.3-2.1,15.5c-0.2,2.2-0.9,5.6,0.2,6.6c9.2,8,7.4,19.4,9.8,29.5c2,8.4,0.9,16.2-1.7,24.4c-2,6.4-3.3,13.4-0.8,20.5
		c1.5,4.3,1.3,9.1,1.8,13.8c1.2,10.7-0.8,21.3,3.3,32.1c2.5,6.6,4.9,12,10.4,16c6.5,4.7,13.3,8.9,19.4,14
		c6.8,5.7,12.2,12.7,13.7,22.9c-4.6,0.5-8.2,0.8-11.8,1.3c-7.8,1.2-10.5,4.8-11.2,12.6c-0.6,6.8,1.2,12.3,6,17.1
		c2.1,2.1,3.7,4.8,5.9,6.7c4,3.5,4.6,7.3,3.4,12.5c-1.6,6.7-2.3,13.7-2.8,20.7c-0.5,6.9,1,8.3,7.8,8.3c2,0,4-0.4,6-0.4
		c7.4,0,11.4,2.9,12.1,10.2c0.5,5.1,0,10.5-1.1,15.6c-1.5,6.7-4.1,13.2-6.1,19.5c3.6,2.8,6.7,5.1,9.1,7c-3.4,6.6-6.4,12.4-9,17.5
		c3.8,4.4,8.1,7.2,9,10.8c1.4,5.2,4.8,7.3,8.9,8.4c7.7,2,15.6,3.2,23.4,4.5c1.2,0.2,2.6-0.4,3.7-1c13-6.7,25.9-13.5,39-20
		c9.1-4.5,9-6.6,17,1.9c2.3,2.4,4.8,4.7,7.5,6.5c6.9,4.5,13.9,8.8,23.1,6.8c2.7-9.4,6-18,15.3-22.9c-0.5-2.9-1.1-5.8-1.4-8.7
		c-0.3-2.9-0.5-5.8-0.7-8.9c-3.2-0.4-5.8-0.6-8.4-1c-11.4-1.5-16.2-7.9-14.7-19.2c1.1-8.5,2-17.1,3.1-25.7
		c1.2-8.8,6.7-12.5,15.5-10.6c7.4,1.6,14.9,2.8,22.3,4.5c4,0.9,5.5-0.5,5.8-4.9c-6.7,0.5-9.8-3.4-10.7-9.3
		c-1.4-8.5-2.5-17.1-3.8-25.9c-13.1-3.8-13.1-3.8-15.5-21.1c-3,0.9-5.9,1.8-9.3,2.9c2.3,9.6-1.6,16.3-8.6,21.1
		c-5.1,3.5-10.9,7.4-17.5,5c-6.2-2.3-11.9-5.9-17.7-9.2c-2.8-1.6-3.8-4.1-2.7-7.6c2.4-7.7,5.3-15.1,12.3-20
		c4.5-3.1,7.7-7.1,9.4-12.5c1.8-5.7,3.9-11.3,6.5-16.6c7-14,18.7-24.6,30.5-33.7c21.8-16.8,45.6-31.1,68.5-46.5
		c5.5-3.7,10.8-7.6,15.3-10.8c-2.4-14.1-4.6-27.2-7-40.7c-12.5-7.1-17.9-20.6-24.9-32.9c-2-3.6-0.4-6.5,1.8-9.1
		c5.6-6.6,11.3-13.1,17.1-19.5c1.3-1.4,3.2-2.9,4.9-3.1c6.5-0.6,13.1-1,19.6-0.7c4,0.2,6.9-0.7,9.9-3.4c2.1-1.9,5.5-4.2,7.7-3.7
		c10.6,2.7,19.7,0.5,28.1-6.1c0.7-0.6,1.8-0.8,2.8-1c13.6-3.8,27.5-5.1,41.2-1.7c6.4,1.6,13.4,3.8,16.8,10.7
		c-5.6,7.2-10.3,14.5-16.3,20.5c-3.9,4-5.7,7.7-5.4,13.1c0.6,10.9,1.8,21.6,3.6,32.5c2,11.8,10.2,18,16.1,26.5
		c8.1,1.4,9.9,7.8,11.7,14.4c0.8,2.8,2.5,5.3,3.7,7.9c13.3-1.7,19.1,2.7,21.3,16c0.6,3.6,0.8,7.4,2.4,10.6c1.7,3.4,4.3,6.9,7.4,8.9
		c19.9,12.8,26.4,30.4,18.3,52.1c-1.9,5.1-1.5,9.3,0.4,14.3c4.5,11.4,9.2,22.9,12.4,34.7c2,7.3,4.9,13.5,9.6,19.4
		c7.1,8.9,12.5,18.7,15.7,29.8c2.1,7.2,5.7,14,8.6,21.2c4.9-0.6,8.7-1,11.3-1.3c3.9-11.8,7.5-22.5,10.9-33.2
		c0.9-2.8,2.1-5.7,2.1-8.6c0.3-17,6.8-31.4,19.4-42.3c6.5-5.7,8.4-10.9,6.2-19c-2.1-7.7-0.7-9.8,6.6-13.3
		c21.6-10.4,43.3-20.6,64.9-31c6.8-3.3,13.4-6.9,19.3-9.9c-0.4-5-1.6-8.8-0.8-12.1c1.3-5.7-0.2-10.6-2.2-15.5
		c-4.9-12.4-9.9-24.7-15-36.9c-1-2.3-2.4-5-4.4-6.3c-5.8-3.6-8.7-9.1-11.1-15c-2.9-7.1-6.1-13.8-11.3-19.7
		c-2.5-2.8-3.4-7.1-4.8-10.8c-1.7-4.3-3.2-8.7-4.7-13.1c-2.6-7.9-5-15.8-7.8-23.6c-1.3-3.7-2.5-7.6-4.8-10.7
		c-5.9-7.8-10.6-15.9-11.7-25.9c-0.3-3.1-1.4-7.2-3.6-8.8c-6.9-5.1-14.5-9.2-21.7-13.9c-2.6-1.7-6.7-3.9-7-6.2
		c-0.7-6.4-1.3-13.6,0.9-19.5c3.4-9.4,9.6-17.3,17.8-23.6c4.1-3.2,7.3-7.7,10.5-11.8c1.1-1.4,2.1-3.9,1.6-5.4
		c-2.2-6.7-2.7-13.8-10.2-18.4c-6.8-4.2-13.1-10.6-14-19.6c-1.6-14.9-1.6-29.7,3.8-44.2c1.1-3.1,0.7-7.2-0.2-10.5
		c-4.4-15.9-9.2-31.8-13.7-47.7c-1.3-4.5-3.6-7-8.3-8.8c-6.4-2.4-12.9-5.8-17.7-10.4c-5.5-5.4-9.7-12.5-13.5-19.3
		c-5.5-9.6-12.2-17-23.2-20.6c-10.4-3.5-17.4-10.7-19.2-22.2c-0.3-1.8-1.5-3.5-2.1-5c-1.2-0.3-1.8-0.6-2.5-0.6
		c-21.3,0.4-41-6.7-61-12.7c-9.5-2.8-18.7-6.7-27.3-5.4c-5.3,6.2-8.8,12.2-14.1,15.8c-5.4,3.7-12.4,5-18.8,7.4
		c0.9,2.5,1.8,4.3,2.1,6.3c0.4,2.3,0.4,4.7,0.2,7c-0.6,9.1-5.9,13.1-14.8,11.2c-1.9-0.4-4.1-1-5.5-2.3c-9.5-8.4-20.9-8.7-32.6-7.5
		c-1.3,0.1-2.8,0.4-4-0.1c-2.7-1-5.4-2.2-7.8-3.7c-1.7-1.1-2.8-3-5.3-6c0,4.3,0.1,6.6,0,8.9c-0.3,7.9-4.2,14.2-10.4,18.5
		c-7.6,5.3-12.6,6.2-20.7-0.4c-3.5-2.9-7.8-4.8-11.9-6.8c-2.9-1.5-6.7-1.9-9-4c-13.7-12.3-28.9-23.2-37.5-40.4c-1-2.1-3.7-3.9-6-4.7
		c-7.9-2.6-15.8-5-23.9-6.9c-8.8-2.2-13.9-7.6-14.5-16.5c-0.2-2.9-0.5-5.7-0.7-8.4c-11-3.3-21.7-5.1-29-14.9
		c-2.5,2.1-4.4,3.9-6.5,5.5c-3.2,2.3-6.2,5.1-9.7,6.7c-10.8,4.8-17.8,1.9-22.5-8.7c-1.6-3.6-3.3-7.2-5.2-11.3
		c-3.8,0.3-7.4,0.7-11,0.9c-7.6,0.4-15.3,1.1-22.9,1c-8-0.1-12.2-3.7-14.7-11.1c-0.9-2.7-1.7-5.4-2.9-9.2c-2.4,3.7-4.1,6.6-6,9.3
		c-4.8,7.1-10.5,9.3-18.9,6.9c-3.5-1-6.7-2.9-9.9-4.5C2856,441.2,2849.5,438.3,2841,439.6z M1469.5,782.1c0.8,0.2,1.6,0.4,2.4,0.6
		c0.8-0.5,1.8-0.9,2.3-1.6c6.5-8,6.5-7.9,16.3-5.1c1.6,0.5,3.3,0.8,4.9,0.8c4.7,0,7.9,2.3,11,5.9c5.7,6.6,12.6,7,19.6,1.4
		c4.3-3.4,8.9-4.1,12.6-0.5c8.3,8.1,20.8,13.7,17.6,29.1c3.9,0.8,6.8,1.3,9.6,2c4.5,1.1,9.2,1.8,13.3,3.8c11.7,5.7,14,13.3,8.6,24.9
		c-1.4,3.1-2.2,6.8-2.2,10.2c-0.2,16.9,10.4,25.4,24.8,30.7c4.9,1.8,10,3.6,14.5,6.2c4.8,2.7,9.1,6.4,13.7,9.5
		c8.1,5.4,17.5,16,12.5,26.4c-3.7,7.6-7.5,15-3.5,23.7c0.3,0.7-0.5,1.9-0.6,2.9c-1.5,17.5-3.5,35-4.4,52.6
		c-1.1,21.5-1.6,43.1-2,64.6c-0.2,9.1-1.5,17.8-4.5,26.4c-2.9,8.4-5.2,17-7.9,26.3c2.6,0,4.2,0.1,5.8,0c24.2-2,48.3-3.9,72.5-5.9
		c21.2-1.8,42.3-3.7,63.5-5.6c8.2-0.8,16.6-0.8,22.3,5.6c5.7,6.4,13.2,8.3,19.7,10.6c7-3.6,13.2-9.1,19.9-9.9
		c15.5-1.8,31.4-1.8,45.2,7.4c4.1,2.7,8,4.3,12.9,3.7c3-0.4,6-0.4,9,0c15.1,1.7,27.9-4.6,40.5-11.5c6.6-3.6,8.2-3.5,11.5,3.4
		c1.4,2.9,2.7,6.3,2.5,9.4c-0.4,6.2,1.9,9.8,6.6,11.5c4.9-5.3,8.5-11.4,13.9-14.8c13.7-8.7,28.5-15.7,42.2-24.3
		c6.3-3.9,11.6-5.9,18-1.5c0.4,0.3,1.3-0.1,2.9-0.3c8-17.5,23.5-26.2,43-30.8c-28.3-61.2-56.5-122.1-84.4-182.4
		c-9.8,0-18.5-0.2-27.1,0.1c-8.4,0.3-8.7,0.4-11-7.7c-4.7-16.6-8.7-33.5-14.1-49.9c-2.9-8.7-0.6-14.7,5.4-20.4
		c1-0.9,1.9-1.9,2.8-2.8c4.9-4.5,9.5-9.1,10.7-16.2c0.4-2.3,2.7-4.5,4.6-6.2c4.2-3.7,8.6-7.3,13.2-10.6c5.2-3.9,6.4-8.5,4.1-14.6
		c-3.2-8.4-9.6-12.2-17.9-14c-9-2-16.3-6.3-17.9-16.3c-1.6-10.1-3.5-20.3-3.8-30.5c-0.2-5.4-0.8-10.3-2.1-15.5
		c-0.7-2.9-0.2-6.8,1.3-9.4c2.7-4.8,6.4-9,10.8-14.8c-4.2-0.3-7.6-1.1-10.9-0.7c-4.3,0.5-8.3,2.3-12.6,3.1c-16,2.7-25.3-5-27-20.9
		c-0.7-6.1-3-12.1-4.9-18c-1.4-4.7-3.2-9.3-5-13.9c-2.3-6.1-4.1-12.6-7.2-18.3c-2.8-5.2-4.9-10-3.6-15.9c0.6-2.9,0.5-6,0.8-8.9
		c0.6-7.6,1.8-9.5,9.6-9.6c7.2-0.1,13.1-2.5,18.2-6.9c7.6-6.6,16.6-7.5,25.4-5.2c17.5,4.5,32.8,0,47.7-8.5c5.9-3.3,9.6-8,11.1-14.6
		c3.9-17.5,15-29.2,30.3-37.5c6.4-3.5,11.1-8.2,12.9-15.6c1.2-4.8,2.6-9.9,5.3-13.9c6.4-9.4,4.4-12.2-3.3-18.5
		c-8.4-6.9-11.7-13.9-10.1-24.5c1.2-8.5-0.7-17.5,1-25.9c2.1-10.4-1.3-17.2-8.6-23.1c-22.1,3.5-28,2.6-50.1-5.1
		c-4.1-1.4-9.6-1.7-13.4-0.1c-10.1,4.1-20.2,8.7-29.2,14.7c-10.2,6.9-21.4,10.4-32.7,14.1c-5.2,1.7-9.3,1.2-14.1-1.6
		c-16.3-9.5-33-18.4-49.9-27.8c-2.5,4.6-4.7,8.9-6.9,13c-14.2-2.9-13.3-18.5-23-24.4c-11.7,9.6-23.7,8-36-0.4
		c-1.7,3.8-3.1,6.7-4.3,9.7c-7.2,17.5-14.3,35.1-21.7,52.6c-1.3,3.1-3.5,5.9-5.8,9.7c-9.1-9.9-23.9-8.5-28.7-20.8
		c-10.8,1.6-20.2,2.8-29.5-1.6c-4.5-2.2-7.1-0.1-9.1,4.7c-1.4,3.2-0.6,5.6,1.4,8.2c5.2,7.2,10.2,14.6,15.5,22.3
		c-2.9,3.8-5.4,6.8-7.6,10.1c-2.9,4.4-5.8,8.9-8.4,13.5c-2.7,4.8-2.5,9.3,1.3,13.8c4.9,5.8,7.7,12.8,6.5,20.4
		c-1.9,12.2,0.2,24.5-0.6,36.6c-0.9,14.2-0.9,28.8-8,41.7c-5.5,10-9.5,20.4-12.1,31.5c-0.9,3.7-3.3,7.4-6,10.1
		c-5.6,5.6-11.9,10.6-17.9,15.7c-2,1.7-5.1,2.9-6,5c-3.6,8.5-10,8.2-17.4,7c-15.3-2.5-30.6-4.6-46-6.9c-1.2,2.7-1.9,4.5-2.7,6.3
		c-10.8,24.2-17.9,50.1-32.8,72.6c-4.3,6.5-8.9,11.1-15.9,14.1c-13.3,5.7-27.5,7.2-41.6,9.1c-6.9,0.9-13.5,2.8-18,10
		c4.1,4.1,7.3,8.6,11.6,11.4c9.4,6.1,9.8,14.1,6.6,23.5C1470.5,776.8,1470.1,779.5,1469.5,782.1z M2254.2,741.8
		c8.6,13.5,16.1,26,24.6,38c2.8,4,2.9,7.1,1.1,10.9c-2.3,4.8-4.8,9.4-7.3,14.1c2.9,5.1,4.1,10.4,5.2,15.6c0.9,4.2,1.4,8.5,2.4,12.7
		c3.1,13.4,14,22.1,27.4,22.2c43.6,0.4,87.2,0.4,130.8,1.5c30.7,0.7,60.9-3.6,91.3-7.2c30.3-3.6,60.6-7.2,90.9-11
		c12.8-1.6,25.8-2.7,38.3-6c18-4.7,35.4-11.4,53.3-16.7c12.3-3.6,23.5-8.9,33.1-17.6c4.9-4.5,10.3-8.4,15.3-12.9
		c3.4-3,7-4.4,11.7-4.2c17.9,0.7,35.9,1,53.8,1.6c2.6,0.1,5.1,0.7,8.2,1.2c3.1,14.8,12.6,24.6,24.4,34c8-9.8,20.4-15.4,22.2-29.6
		c0.6-4.8,4.6-7,9.5-7.2c2.7-0.1,5.3-0.3,8-0.7c9.7-1.2,19.4-2.5,29.6-3.8c-0.3-6,0.5-11-1-15.1c-4.9-13.4-9-27.5-16.5-39.4
		c-13.3-21.1-22.6-43.6-29.2-67.4c-1-3.8-1.7-7.9-1.2-11.8c1.2-8.9-0.9-16.3-7.1-22.9c-7.1-7.6-11.1-17.2-10.8-27.2
		c0.5-17.4-2.2-33.4-11.7-48.4c-3.8-6.1-5.2-14.8-1.5-21.2c4-7,2.5-12.6,0.1-18.8c-5-13-7-26.5-4.2-40.1c2-9.8-0.4-17.1-7.8-22.9
		c-4.4-3.4-9.5-5.9-14.4-8.6c-3.9-2.1-7.9-4-12.3-6.2c-4.7,8.3-9.9,17.2-14.6,26.3c-3.1,5.9-6.9,8.4-14,8.3
		c-40-0.4-80-0.3-119.9-0.1c-4.9,0-10,0.5-14.6,2.1c-35.6,12.1-71,24.6-106.6,36.8c-10.6,3.6-21,8.2-32.9,7.1
		c-19.2-1.7-38.4-2.9-57.6-4c-25.9-1.5-51.7-2.7-77.6-4.1c-7.3-0.4-14.5-1.3-21.8-1.7c-11.9-0.7-23.8-1.3-33.8-1.8
		c-4.7,6.2-8.9,11.2-12.6,16.4c-5.6,8-12.2,8.4-20.6,4.5c-6.4-3-13.5-4.4-21.3-6.8c0,3.6-0.6,5.8,0.1,7.4c4.4,9.8,3.7,20.1,4.1,30.4
		c0.1,3.9,1.4,7.8,2.5,11.7c2.5,8.6,5.3,17.1,7.6,25.8c0.6,2.3-0.3,5.1-0.4,7.6c-0.6,9.6-1.3,19.2-1.5,28.7c-0.1,2.5,0.8,6,2.5,7.3
		c6.6,4.8,6.6,11.5,7.4,18.6c1,8.4,2.1,16.3-2,24.2c-1.1,2.2-1.1,5.3-0.8,7.9c0.8,5.9,2,11.8,3.4,17.5c2.3,9.1,1.6,16.5-6.9,22.8
		C2269.9,726.2,2262.6,734.1,2254.2,741.8z M2268.3,806.3c2.8-5.3,5.6-10.2,7.8-15.4c0.9-2.2,1.8-5.6,0.7-7.3
		c-7.9-13-16.2-25.6-24.5-38.6c-2.2,1.5-3.6,2.3-4.9,3.4c-13.5,11.4-28.8,16-46.3,12.9c-5.5-1-11.3-1.3-16.6-2.9
		c-4.3-1.3-7.5-0.6-11,1.6c8.7,11.1,8.6,11.1,10.2,22.3c0.8,5.9,2.6,11.6,3.4,17.5c0.8,5.9,1.2,11.9,1,17.8c0,1.8-1.9,4.2-3.6,5.2
		c-4.9,3.1-8.5,2.6-12.3-1.9c-7.3-8.6-15.8-14.5-26.9-17.7c-11.1-3.2-15.9-12.6-14.7-24.1c0.2-1.8,1.1-4.5,0.2-5.4
		c-5.7-5.9-6.8-13.5-8.6-20.9c-0.5-2.2-1.8-4.3-3.3-6c-4.1-4.7-7.9-4.8-12.7-0.5c-3,2.6-6.4,5-8.7,8.2c-3.2,4.5-7.4,4.8-12.2,4.9
		c-6.3,0.1-12.5,0.9-18.8,1.4c-4.3,0.3-5.9,2.7-7.1,6.8c-2.2,7.6-5.7,14.8-8.6,22.2c-1.1,2.7-2.3,5.5-3.1,8.3
		c-1.4,4.7-2.7,9.5-3.9,14.3c-1.2,5-4.7,6.4-9.1,5.4c1,6.8,2.9,12.7,2.5,18.4c-1.1,13.2-3.3,26.3-5.1,39.5c-1,7.1-2.1,8.2-9.4,9.1
		c-7.5,0.9-15,1.7-23.5,2.6c3.1,6.8,5.8,12.8,8.6,18.8c15.6,33.5,31.2,66.9,46.8,100.4c17.7,38,35.4,75.9,52.8,114.1
		c2.8,6.1,6.7,9.1,12.6,11.2c34.8,12.3,69.6,24.5,104.3,37.3c17.4,6.4,35.9,10.3,51.7,21.6c4.1-3.7,8.3-3.7,12.7-0.7
		c1.3,0.9,3.1,1.2,4.6,1.9c13.7,6.3,16.1,15,7.8,27.6c-1.5,2.3-2.4,5.1-3.5,7.6c1.6,0.8,2.2,1.2,2.8,1.3c34,6,68,12.3,102.1,17.8
		c21.1,3.4,42.3,9.9,64,3c0.3-0.1,0.7-0.1,1,0c8.6,1.2,15-2.2,21.4-8.1c6.9-6.5,16.5-8.2,25.1-4.5c13.7,5.9,26.8,13.1,40,20
		c10.8,5.7,10.7,5.8,20.6-2.8c0.7-0.6,1.7-1,2.9-1.8c4.2,5.2,8.4,10.3,8.8,17.3c0.3,5.8,3,9.2,8.8,10.2c8.2,1.4,15.1,5.7,20.2,12
		c7.8,9.7,18,11.4,29.4,11c5.9-0.2,11.9-0.2,17.8,0.7c15.1,2.1,30.1,4.8,45.2,7.2c1.8,0.3,3.7,0,6,0c0-3.1,0.4-5.5-0.1-7.7
		c-2-9.4,0.3-17.4,6-25.1c8.7-11.7,16.9-23.9,25.2-36c5.4-7.8,10.6-15.7,15.9-23.6c-16.5-9-31.8-17.6-47.4-25.9
		c-20.3-10.7-40.8-21.1-61.2-31.7c-33.1-17.1-66.3-34-99.3-51.4c-11.3-6-12.7-18.5-16.6-29.1c-0.2-0.5,0.1-1.4,0.3-1.9
		c3.8-7.8,1.4-14.9-2.7-21.8c-2.8-4.8-5.6-9.7-8.4-14.6c-1.3-2.3-3.4-4.7-3.3-7c0.3-13.6-0.8-28,6.7-39.8c6.8-10.8,8.7-21.2,5.7-33
		c-0.2-0.6-0.2-1.3-0.3-2c-1.6-11.5-2-23.1-7.5-33.8c-1.3-2.6-1.5-6.5-0.8-9.5c2-9,1.5-17.7-0.7-26.5c-1.2-4.5-0.7-8.2,2.7-11.9
		c2.6-2.8,5.4-6,4.1-10.6c-1.2-4.4-2-9-3-13.8c-2.7,0-4.9-0.2-7.1,0c-23.5,2.4-46.8,5.7-70.5,5.5c-46-0.6-92-0.4-137.9,0
		c-10.3,0.1-18.9-1.7-26.1-9.1c-1.4-1.4-3.3-2.4-4.6-3.8c-1.5-1.7-3.2-3.6-3.8-5.7c-1.7-6.4-3.7-12.9-4-19.5
		C2274.3,815.6,2273.7,810.3,2268.3,806.3z M2830.4,786.5c-18.9-0.6-37.8-1.2-56.7-1.9c-5.4-0.2-9.3,1.6-13.3,5.2
		c-7.7,6.9-15.9,13.2-24.2,19.3c-3.7,2.7-8,4.8-12.3,6.3c-18.9,6.3-37.9,12.5-57,18.3c-7.9,2.4-16,4.4-24.2,5.5
		c-29,3.7-58,6.8-87,10.3c-7.8,0.9-15.5,2.5-23.4,3.8c0.9,5.1,1.1,9.2,2.4,12.9c1.5,4.3,0.9,8.2-2.2,11.1
		c-5.5,5.1-4.6,10.9-3.7,17.4c0.8,6.8-0.1,13.8,0.1,20.7c0.1,3.9,0.5,7.8,1.3,11.5c1.2,5.1,3.3,10,4.2,15.2
		c1.7,9.5,2.2,19.2,4.2,28.6c1.6,7.1,0.3,13-3.4,18.9c-5.8,9.2-8.4,19.2-9.5,30.1c-1.1,10.6,0.3,19.3,6.9,28.5
		c6,8.4,12.3,18.6,7.3,30.6c-0.7,1.8,0.2,4.6,1,6.7c1.8,4.6,4.3,9,6.1,13.6c1.6,4,4.6,6.2,8.3,8.1c45.3,23.2,90.6,46.4,135.8,69.9
		c23.9,12.4,47.5,25.4,71.1,38.2c0.8,0.4,1.2,1.4,2.3,2.8c-2.5,3.8-4.9,7.7-7.5,11.5c-11,15.9-21.5,32.1-33.3,47.4
		c-7.4,9.6-9.4,19.5-6.8,30.7c1.7,7.2-0.6,13.1-5.4,18.2c-2,2.2-4.2,4.3-6.4,6.6c1.5,5.2,3.2,10.6,4.7,16c0.9,3.4,0.4,6.3-3,8.6
		c-4.9,3.3-9.5,7-14.1,10.7c-3.4,2.7-6.2,6-11.2,5.6c-4.1-0.3-6.5,2.2-7.1,5.7c-1.6,9.5-7.9,13.9-16.3,16.6c-4.4,1.4-8.7,3.4-13,5.1
		c-10.3,4.3-20.7,8.7-31.7,13.3c6.6,8.7,12.1,15.3,24.2,15.2c9.9-0.1,20.4,2.8,28.2,10.8c2.8,2.9,6,3.7,9.9,1.8
		c9.8-4.8,20.1-8.6,29.4-14.1c12.3-7.3,24-15.7,35.5-24.1c5.1-3.7,9.7-4.2,15.7-2.7c29.7,7.4,59.5,14.4,89.2,21.5
		c59.5,14.3,118.9,28.7,178.4,43.1c9.5,2.3,19.1,4.5,29.8,7c-0.5-13.5,0.7-25.8-1.9-37.3c-2.4-10.9-5.8-21.7-7.4-32.9
		c-1.1-7.9-1.5-15.9-7.1-22.4c-1.3-1.5-1.2-4.4-1.2-6.7c0.2-10.2-7.6-16.3-12.1-24.1c-0.7-1.1-2.8-1.6-4.4-2
		c-10.4-2.7-10.5-3-11.6-13.7c-0.7-6.1-1.8-12.2-2.7-18.1c-4.2-0.6-7.4-0.6-10-1.6c-3.7-1.5-7.9-3.4-7-8.4c1-5.5,1.3-12.5,4.8-15.9
		c6.7-6.5,4.5-12.3,1.8-19.4c-2.7-0.4-5.7-0.6-8.5-1.3c-7.1-1.7-14.1-3.4-21-5.7c-2.2-0.7-5.2-3.1-5.5-5c-0.6-4.3-3.1-6.5-6.2-8.5
		c-4.6-3-4.9-6.7-2.7-11.2c2-4.1,4-8.2,5.9-12.2c-8.5-6.6-8.5-6.6-5.2-16.3c1.8-5.4,4-10.6,5.3-16.1c2.8-12-2.1-17.4-14.3-16.8
		c-9.5,0.5-13.6-3.5-12.3-12.7c0.9-6.9,1.9-13.8,3.2-20.6c0.8-4-0.4-7.2-2.9-10c-2.2-2.5-4.1-5.4-6.7-7.4c-6-4.6-7-10.7-6.6-17.7
		c0.5-9,3.5-13.1,12.4-15.4c3.5-0.9,7-1.5,11.1-2.4c-4.3-7.9-8.3-15-15.7-19.6c-4.2-2.6-8.5-5.4-12.3-8.5
		c-7.7-6.2-16.5-11.8-15.8-23.7c0.1-1.8-1.6-3.7-2-5.6c-0.6-2.9-1.8-6.1-1.2-8.7c2.3-9.4,0.3-18.5-1.2-27.5
		c-1.5-8.8-1.4-17.2,1.3-25.6c4.8-14.5-0.8-28.2-3.2-42.1c-0.2-1.4-1.8-2.9-3.2-3.8c-4.5-3-4.4-6.9-3-11.5c1.1-3.8,3.5-8.2,2.5-11.5
		c-2-6.6,1.4-10,5.4-13.6c4.8-4.3,8.7-9,9.9-15.7c0.9-5,5.3-7,9.7-9.2c7.9-3.8,15.3-8.5,23-12.9c0.6-0.3,1-0.9,1.4-1.4
		c6.3-8,6.9-22,1.4-30.7c-6.3-10-11.7-20.2-10.3-32.6c0.2-1.5-0.4-3.2-0.8-5.8c-10.9,1.4-21.3,3.5-31.8,3.7
		c-8.5,0.2-11.8,4-13.5,11.4c-0.8,3.4-2.2,7.3-4.6,9.7c-5.8,5.8-12.3,10.9-19.4,17c-5.4-5.1-11.8-10.1-16.6-16.2
		C2836.7,800.7,2834.3,794,2830.4,786.5z M2807.8,424.9c-2.4-1.8-4.1-3.4-6.1-4.5c-10.7-6-12.3-15.8-11-26.6c0.4-3.6,1.7-7.1,3-10.5
		c2.8-7.9,2.5-8.8-5.5-10.8c-1.9-0.5-3.9-1-5.7-1.8c-4.8-1.9-9.3-3.2-13.7,1.5c-1.2,1.3-5.8,1.6-7,0.4c-4-3.6-9-7-6.9-14.1
		c1.7-5.7,2.2-11.7,3.4-17.5c2.7-13.6,1.4-26.8-1.8-40.3c-3.7-15.6-11.8-23.8-28.1-24c-13-0.2-26,0.4-39-0.2
		c-12.3-0.6-20.1,4-24.6,15.7c-1.8,4.7-5.1,10.2-9.3,12.4c-8.4,4.6-17.4,8-24.6,14.8c-1.6,1.5-4.1,2.1-6.3,2.8
		c-19.3,6.3-38.5,12.7-57.9,18.9c-8,2.6-8.7,2-11-6.2c-1.7-6.4-2.5-13.4-5.6-19c-7-12.7-18.6-21.2-30.2-30.5
		c-3.9,3.2-7.1,5.9-10.5,8.5c-7.1,5.5-13.9,11.4-21.5,16.1c-10.6,6.6-19,4.4-26.5-5.8c-1-1.3-1.9-2.7-2.7-4.2
		c-6.2-11.4-12.8-22.6-22.5-31.6c-1.9-1.8-3.5-5.1-3.5-7.7c0.1-8.9,1.1-17.9,1.5-26.8c0.1-4.2,1.9-6.9,5.4-8.9
		c2.3-1.3,4.5-2.8,6.9-4.1c5.2-2.9,6-7.2,4.1-13.6c-11.2,4.4-21.8,8.1-32.1,12.7c-9.9,4.5-19.2,10.5-29.2,14.7
		c-10.7,4.4-21.9,4.2-33.1,0.8c-7.3-2.2-13.9-1.4-20.4,3.9c-5.6,4.5-12.6,7.2-19.2,10.3c-2.2,1-5.4,1.2-7.5,0.4
		c-6.5-2.6-12.9-5.9-14.7-13.7c-1.2-5.2-1.9-10.5-3-16.2c-3.9-0.6-9-1.1-14-2.4c-4.9-1.3-8.9-6-16.1-4.5c0,2.8-0.4,5.5,0.1,8.2
		c0.5,2.9,1.6,5.8,2.7,8.5c1.9,4.6,1.6,8.3-1.2,13c-6,10.2-10.9,21.1-16.4,31.9c2.2,3.7,4.4,7,6.2,10.5c4.5,8.8,5.4,18.5,0.5,26.7
		c-3.9,6.7-5,12.4-3.2,19.6c2.3,8.9,3.3,18.2,5.7,27.1c5.2,19.5,20.8,32,33.1,46.5c6.9,8.1,14.9,15.2,21.5,23.6
		c10,12.7,16.5,26.5,9.2,43.2c-1.7,3.9-2.5,8.3-3.3,12.5c-0.5,2.4-0.4,4.9-0.6,7.5c33.3,2.2,65.7,4.4,98.2,6.4
		c27.2,1.7,54.4,3.3,81.6,4.5c12.1,0.6,23.9,1.6,36.2-2.9c36.5-13.6,73.4-25.9,110.3-38.3c6.2-2.1,12.9-3,19.5-3.1
		c40.9-0.7,81.9-1,122.8-1.5c1.6,0,3.3-0.3,5.4-0.5C2795.7,446.2,2801.8,435.6,2807.8,424.9z"/>
	<path id="_x32_330" class="st0" d="M2920.5,1915.2c-5.3,5.1-10,7.5-15.5,7.3c-6.2-0.1-9.9,2.9-12.7,7.9c-1.3,2.3-3.2,4.4-4.1,6.8
		c-3.9,10.6-12.6,12.8-22.3,13c-2.7,0-5.5-1.8-8.1-3.1c-1.4-0.7-2.5-2.1-3.6-3.3c-11-11.5-14.3-11.4-25.4,0.7
		c-1.8,1.9-3.9,3.8-6.2,4.8c-15.9,6.7-28.9,17.7-42.1,28.3c-8.1,6.4-16.1,12.8-24,19.6c-5.5,4.7-5.6,6.6,0,11
		c6.1,4.8,7.3,11.9,9.3,18.3c3.1,9.8,6.3,18.8,15.9,24.2c3.6,2,4.4,5.5,4,9.5c-1.1,9.5-2.7,19.1-2.9,28.6
		c-0.2,6.2-1.8,10.9-6.5,14.8c-1.3,1-2.3,2.5-3,3.9c-2.8,5.1-5.9,6.8-12.6,6.4c-7.1-0.5-15,2.5-21.7,5.7
		c-12.6,5.9-24.4,13.4-36.9,19.4c-7,3.4-14.7,5.9-21.9,8.8c-11.4,4.6-23.7,10.5-31.7,19.3c-13,14.3-27.6,28-33.5,47.6
		c-0.2,0.6-0.8,1.1-1.6,2.3c-18.5,0.2-34.5,9-50.3,18.2c-2.3,1.3-4.5,3-7,3.7c-8.7,2.7-14.9,8-19.5,15.9c-1.9,3.2-5.6,5.5-8.8,7.8
		c-6,4.1-12.2,7.9-19.4,12.4c-1.8-1.8-4.1-4.1-6.3-6.3c-2.6-2.5-5-5.4-8-7.4c-7.8-5.1-14.5-3.2-19.1,5c-3.4,6.1-7.1,12-10.6,18
		c-2.5,4.3-6,6.1-10.8,4.8c-8.9-2.3-18.5-3.4-22.1-14.2c-0.9-2.6-3.2-5.9-5.6-6.7c-13.6-4.7-21.7-17-33.9-23.5
		c-7.4-4-12.6-10.4-17.5-17.3c-3.9-5.5-9.3-10.2-14.7-14.4c-5.7-4.5-12.1-8.1-18.3-12.1c-2.2-1.4-4.4-3.3-6.8-4
		c-9.4-2.8-17.1-8.6-25.6-13c-6.6-3.4-14.9-5.3-22.5-6.9c-3.1-0.6-7.3,4.3-12.1,7.5c-11-11-25.6-14.7-42-11.1
		c-5.3-11.5-3.3-25.3-13.6-34.2c3.6-13,6.4-26,14.9-36.8c1.8-2.3,3.4-5.1,4-8c3.1-14.6,13.9-23.9,22.9-34.4
		c5.2-6,11.2-11.4,16.2-17.6c3.3-4.1,7-5.8,12-5.4c3,0.2,6,0.2,9-0.1c5.3-0.6,11.2-1.2,12.6-7.7c1.2-5.9-0.7-11.2-5.9-14.9
		c-6.5-4.6-13.2-9-19.4-14c-7.8-6.2-15.3-12.7-22.9-19.2c-5.6-4.8-11.1-9.5-16.5-14.5c-4.4-4.1-9.3-5.8-15.4-5.6
		c-23.6,0.7-47.2,0.7-70.8,1.5c-20.8,0.7-40.9-4.4-61.4-6.7c-4.3-0.5-8.5-1.3-13.2-2c-4-9.4-8.2-18.8-12.1-28.4
		c-14.6-36.1-29-72.2-43.7-108.2c-2.2-5.5-4.9-11-8.1-16c-2.1-3.3-5-6.5-8.3-8.4c-5.4-3.2-11.2-6.2-17.3-7.5
		c-4.9-1.1-10.7-0.5-15.6,0.9c-17.5,5-34.8,10.7-53.3,16.5c0-6.1-0.3-11.6,0.1-17.1c0.7-10-4-17.1-11.6-22.9
		c-7.1-5.5-13.9-11.4-21.1-16.7c-12.4-9-20.6-21.6-29.3-33.7c-1.6-2.3-2.6-5.5-2.6-8.3c-0.2-12.2-0.4-24.5,0.2-36.7
		c0.2-5.5-0.5-10.4-2.3-15.5c-4.6-13.1-12-25.5-12.5-39.8c-0.4-9.6-0.1-19.2,1-28.8c0.4-3.6,3.8-6.9,5.7-10.4c3.8-7,8.5-13.8,2-21.9
		c-0.8-1.1,0.2-3.6,0.5-7.2c6.1,8.1,10.4,15.5,13.2,23.4c2.7,7.5,7.2,13.4,13,18.6c1.9,1.8,4.4,3.6,5.2,5.9
		c2.6,7.4,8.2,10.5,15.1,11c13.8,1.1,21,11.3,29.2,20.1c7.5,8,15,16,22.5,23.9c0.7,0.7,1.5,1.3,2.5,1.7c9.3,3.3,18.6,6.6,28.3,10
		c0.6-1.3,2-2.8,1.9-4.3c-0.8-10.9,3-21.5,0.9-32.6c-1.4-7.4-0.3-15.3,0.3-22.9c0.2-2.6,2.2-5.1,3.4-7.7c15.5,3.6,30.1,7,44.6,10.2
		c3.5,0.8,7.2,1.2,10.8,1.2c13.5,0.1,24.2,5.5,33.2,15.4c4.2,4.6,9.1,8.5,15,13.9c-0.4-1.5,0.1-0.7-0.1-0.2
		c-4,11.2,1.2,18.7,9.3,25.8c8.2,7.3,15.9,15.2,23.3,23.3c4.3,4.7,8.4,6,14.8,4.6c44.1-10,88.3-19.3,132.4-29.2
		c8.9-2,17.5-2.4,26.4,0.1c10.1,2.8,20.6,3.9,29.4,11c3.2,2.6,8.7,2.9,13.2,3.2c8.6,0.6,17,0.3,25.6,2.8c7.5,2.2,15.8,0.3,23-3.5
		c2.3-1.2,4.2-4.3,5.1-7c1.6-5,3.3-10.3,3.4-15.5c0.2-10.1,5.2-17.1,12.7-22.5c5.1-3.7,7.1-7.7,6.9-14.1c-0.5-15.4,2.4-30.4,10-44.4
		c10.1-3.3,20.4-7,30.9-10c3.3-1,7.4-1.3,10.5-0.1c14.3,5.5,29,2.5,43.6,2.8c2.3,0.1,5.4-2.5,7-4.7c6.8-9.2,15.7-13.4,27-13.5
		c5.2-0.1,10.4-0.7,17.1-1.2c2.9-8.9,5.8-18.7,9.2-28.3c6.3-17.9,12.7-35.7,19.5-53.4c1.6-4.1,5.1-7.6,8-11.1
		c1.5-1.8,3.6-2.9,5.3-4.5c15.8-14.3,9.4-12.3,30.5-9.7c13.8,1.7,18.7,4.3,29.4,14.7c5.5-2,11.6-3.5,17.1-6.3
		c14.4-7.4,28.8-14.9,41.8-24.7c5-3.8,10.6-7,15.6-10.8c3.6-2.7,6.9-2.8,11.2-1.8c45.9,11.1,91.8,22,137.7,33
		c49.4,11.9,98.8,24.1,148.3,36c6.9,1.7,13.8,2.6,13.6,12.3c0,2,2.9,4.3,4.7,6.2c4.4,4.7,6.6,9.9,4.6,16.1
		c-7.7,3.4-15.2,6.5-22.6,10c-3.1,1.4-4.9,3.7-5.6,7.6c-1.2,6.8-3.6,13.3-5.1,20.1c-3.7,16.3-16.6,26.1-26.9,37.6
		c-17.5,19.6-35.1,39.1-52.7,58.6c-6.7,7.4-7.8,15.9-3.9,24.8c2.5,5.7,6.1,10.9,9.2,16.3c3,5.2,6.6,10.1,9,15.5
		c5.1,11.3,12.8,20.1,23.1,26.8c5.7,3.8,9.7,16.1,7.3,22.3c-0.7,1.8-2.1,4.5-3.4,4.6c-7.9,0.6-15.4,4.5-23.8,1
		c-9.3-3.9-17.7-10.7-28.7-10.3c-9.3,0.3-12.9,4.6-11.6,14c0.4,3.1,0.5,6.5-0.1,9.5c-0.8,3.8-3.7,6.1-7.7,7
		c-2.2,0.5-4.5,1.4-6.4,2.6c-3.5,2.4-5.1,5.6-1.6,9.1c4.4,4.5,9,8.7,13.7,13c5.3,4.9,5,5.3,1.3,11.6c-4,6.8-7.9,13.9-10.8,21.2
		c-2,5.1-2.3,10.7-1.2,16.6c2.3,12.4,1.2,24.3-6.8,35.2c-4.8,6.5-3.4,11.3,1.8,17.7C2914.1,1904.6,2916.9,1909.9,2920.5,1915.2z"/>
	<path id="_x32_329" class="st0" d="M2295,1230.7c18,3.4,35.6,6.9,53.2,9.9c30.4,5.2,60.9,10.1,91.4,15.1c2.5,0.4,5.2,0.3,7.7,0
		c7.9-0.7,15.8-1.7,23.8-2.4c6.2-0.5,11.4-2.2,16.1-6.8c9.6-9.4,18.7-10.1,30.7-3.9c13.2,6.9,26.8,13.2,40,20.2
		c4.5,2.3,8.3,1.9,12.1-0.7c2.2-1.5,4.3-3.1,7.8-5.5c2.1,6.2,4.5,11.5,5.6,17.1c0.9,4.5,2.6,7.7,7.2,8.3
		c12.1,1.7,20.3,9.5,28.2,17.5c3.9,3.9,8,5.8,13.2,5.7c24.1-0.7,47.5,4.6,71.2,8c3.5,0.5,6.9,1.5,10.6,2.3
		c-2,7.6-6.7,11.6-12.9,14.7c2.3,7.4,4.5,14.2,6.6,20.9c-6.6,5.6-12.8,10.9-19.1,16.1c-1.2,1-2.9,2.1-4.3,2.1
		c-7.4-0.3-11.2,4-12.9,10.2c-2,7.3-6.9,10.6-13.5,13.1c-14,5.2-27.8,11.1-41.6,16.8c-2.7,1.1-5.3,2.6-8.3,4.1
		c4.2,4.6,8.1,8.9,12.7,13.9c-5.8,5.4-10.5,10.6-16,14.6c-7.6,5.7-12,13.2-15,21.8c-8.3,23.9-16.5,47.8-24.9,72.1
		c-8.6,1.1-17.8,2.3-27,3.4c-4.1,0.5-7.1,1.8-9.8,5.6c-4.8,6.8-10.9,12-20.7,10.6c-6.9-1-14-0.1-21-0.2c-2.6,0-5.7,0.3-7.9-0.8
		c-8.3-4.3-16-2-23.9,0.8c-8.1,2.9-16.4,5.1-25.6,8c-7.1,13.8-11.5,29.3-10.9,45.9c0.2,6.2-1.7,10.2-6.9,14.2
		c-7.4,5.7-12.8,13.5-12.7,23.7c0,1-0.4,2-0.4,3c-0.6,19.3-11,22.1-29.6,19.4c-7.2-1-14.4-1.9-21.6-2.1c-7.2-0.2-13.3-1.7-19.5-6.1
		c-4.9-3.5-11.5-4.4-17.4-6.5c-13.3-4.6-26.3-4.1-40.1-0.9c-41.8,9.7-83.8,18.2-125.6,27.7c-7,1.6-11.1,0.2-15.6-4.7
		c-8.8-9.6-17.8-18.9-27.1-28c-3.3-3.2-4.1-6.7-3.5-10.8c0.5-3.2,1.1-6.4,1.4-8.1c-8.1-7.1-15.4-13.2-22.3-19.8
		c-6.6-6.3-14.8-10.5-23.1-10.6c-16-0.2-30.8-4.8-45.9-8.5c-5.5-1.3-11-2.6-17.9-4.2c-1.9,4.8-5,9.4-5.4,14.3
		c-0.6,8.2,0.5,16.5,0.8,24.8c0.1,2,0.5,4,0.3,5.9c-0.9,7.2-2,14.4-3.1,21.5c-20.6-4-35.5-16.3-48.3-32.6
		c-7.3-9.3-14.8-19.6-28.8-20.7c-7-0.6-13.9-2.6-15.6-11.2c-0.1-0.6-0.6-1.2-1.1-1.6c-15.5-11.7-19.7-30.4-28.7-46.1
		c-2.3-4-2-10.3-1.1-15.3c1.9-10.2-1-17.5-10.2-22.3c-2.6-1.4-5-3.3-7.6-4.8c-5.2-3-7.8-6.9-8-13.6c-0.2-8.8-2.1-12.7-12-14.2
		c-4.8-0.7-7.1-3.7-8.7-8.2c-1.4-3.9-3.5-8.2-6.6-10.7c-5.5-4.5-7.1-9.7-4.6-15.8c3.1-7.5,2.5-13.5-6-18.3
		c9.6-4,10.7-11.1,10.4-19.6c-0.4-9.2,1.8-18.5-1.9-27.6c-0.7-1.7,0.4-4.5,1.2-6.6c2.1-5.2,1.2-9.6-2.2-14c-2-2.5-3.7-5.5-4.7-8.5
		c-2.2-7.2-0.4-11.3,6.3-14.8c5-2.6,10.4-4.5,15.4-7.1c6.6-3.4,11.2-7.9,10.6-16.4c-0.3-3.8,0.8-8,2.3-11.6
		c4.6-11.4,9.7-22.6,14.5-33.8c3.7-8.7,2.4-12.2-5.5-17.4c-6.3-4.2-12.7-6.4-20.5-6.4c-10.8-0.1-13.3-3.7-9.6-13.8
		c4-10.9,1-21.4-1.3-31.4c-3.2-14.1-9-27.7-13.8-41.4c-2.9-8.1-3.2-11.2-0.7-21.5c5.6,1.7,11.2,3.4,17.4,5.3
		c2.6-1.9,5.7-4.5,9.2-6.3c4.4-2.3,9.2-5.7,13.7-5.5c13.7,0.6,28.2-0.6,40,8.8c4.9,3.9,10.1,4.4,16,3.7c4.9-0.6,9.9-0.8,14.9-1.1
		c7.4-0.5,14.8,1.5,21.4-5.1c3.8-3.8,10.5-4.6,17.2-7.3c1.4,2.8,4.8,6.6,4.2,9.6c-1.8,10,6.2,14.6,10.3,23.5c2.2-4.4,3.6-7.1,4.9-10
		c2.9-6.5,7.3-11,14.1-14.3c11.3-5.5,22-12.4,32.9-18.8c4.3-2.5,8.5-5.2,13-8.1c3.5,1.5,7.2,3,10.8,4.5c6.4-7.3,11.9-15.2,19.1-21.2
		c7-5.9,15.7-9.9,26.4-10.6c2.6,5.2,5.5,10.7,8.1,16.3c5.5,11.7,11,23.5,16.3,35.4c1.9,4.2,4.4,6.8,9,8.4
		c40.5,14.3,80.8,28.8,121.1,43.5c8.2,3,16.3,5.9,24.1,10.7c7,4.4,15.7,9.9,26.1,6.9c5.6-1.6,11.5,1.4,14.5,6.5
		c3,5.1,2.5,10.9-1.9,15.6C2295.5,1220.3,2293.8,1224.5,2295,1230.7z"/>
	<path id="_x32_326" class="st0" d="M2841,439.6c8.4-1.2,15,1.7,21.5,4.9c3.2,1.6,6.5,3.5,9.9,4.5c8.4,2.4,14.1,0.2,18.9-6.9
		c1.9-2.7,3.6-5.5,6-9.3c1.2,3.7,2,6.5,2.9,9.2c2.5,7.4,6.7,11,14.7,11.1c7.6,0.1,15.3-0.6,22.9-1c3.6-0.2,7.1-0.6,11-0.9
		c1.9,4.2,3.6,7.7,5.2,11.3c4.8,10.6,11.8,13.5,22.5,8.7c3.5-1.6,6.6-4.3,9.7-6.7c2.1-1.5,4-3.3,6.5-5.5c7.2,9.7,18,11.5,29,14.9
		c0.2,2.7,0.5,5.5,0.7,8.4c0.7,8.8,5.8,14.3,14.5,16.5c8.1,2,16,4.3,23.9,6.9c2.3,0.8,4.9,2.6,6,4.7c8.6,17.2,23.8,28.1,37.5,40.4
		c2.3,2.1,6.1,2.5,9,4c4.1,2.1,8.4,4,11.9,6.8c8.1,6.6,13.1,5.7,20.7,0.4c6.2-4.3,10.1-10.6,10.4-18.5c0.1-2.3,0-4.6,0-8.9
		c2.6,2.9,3.7,4.9,5.3,6c2.4,1.6,5.1,2.7,7.8,3.7c1.2,0.4,2.7,0.2,4,0.1c11.7-1.2,23-0.9,32.6,7.5c1.4,1.2,3.6,1.9,5.5,2.3
		c8.9,1.9,14.2-2.1,14.8-11.2c0.2-2.3,0.2-4.7-0.2-7c-0.3-1.9-1.2-3.7-2.1-6.3c6.4-2.4,13.4-3.7,18.8-7.4c5.2-3.6,8.8-9.7,14.1-15.8
		c8.6-1.3,17.9,2.6,27.3,5.4c20,5.9,39.7,13.1,61,12.7c0.6,0,1.3,0.3,2.5,0.6c0.6,1.4,1.9,3.1,2.1,5c1.7,11.5,8.8,18.7,19.2,22.2
		c10.9,3.7,17.7,11,23.2,20.6c3.9,6.8,8,13.9,13.5,19.3c4.8,4.7,11.4,8,17.7,10.4c4.7,1.8,7,4.3,8.3,8.8
		c4.5,15.9,9.4,31.7,13.7,47.7c0.9,3.3,1.3,7.4,0.2,10.5c-5.4,14.4-5.4,29.3-3.8,44.2c1,9,7.2,15.4,14,19.6
		c7.5,4.6,8,11.7,10.2,18.4c0.5,1.5-0.5,4-1.6,5.4c-3.3,4.2-6.4,8.7-10.5,11.8c-8.2,6.3-14.4,14.2-17.8,23.6
		c-2.1,5.9-1.6,13.1-0.9,19.5c0.3,2.3,4.3,4.5,7,6.2c7.2,4.7,14.8,8.8,21.7,13.9c2.2,1.6,3.3,5.7,3.6,8.8c1,10,5.8,18.1,11.7,25.9
		c2.3,3.1,3.5,7,4.8,10.7c2.7,7.8,5.1,15.8,7.8,23.6c1.5,4.4,3,8.8,4.7,13.1c1.4,3.7,2.3,7.9,4.8,10.8c5.2,5.9,8.3,12.7,11.3,19.7
		c2.4,5.9,5.3,11.3,11.1,15c2,1.3,3.4,4,4.4,6.3c5.2,12.2,10.2,24.5,15,36.9c1.9,4.9,3.5,9.9,2.2,15.5c-0.8,3.3,0.4,7.1,0.8,12.1
		c-5.9,3-12.5,6.6-19.3,9.9c-21.6,10.4-43.3,20.6-64.9,31c-7.3,3.5-8.7,5.6-6.6,13.3c2.2,8.1,0.4,13.3-6.2,19
		c-12.5,10.9-19,25.3-19.4,42.3c-0.1,2.9-1.2,5.8-2.1,8.6c-3.5,10.7-7,21.4-10.9,33.2c-2.6,0.3-6.5,0.7-11.3,1.3
		c-3-7.2-6.5-14-8.6-21.2c-3.2-11.1-8.6-20.9-15.7-29.8c-4.7-5.8-7.6-12.1-9.6-19.4c-3.2-11.8-7.9-23.3-12.4-34.7
		c-2-4.9-2.3-9.2-0.4-14.3c8.1-21.6,1.6-39.3-18.3-52.1c-3.1-2-5.7-5.5-7.4-8.9c-1.6-3.1-1.8-7-2.4-10.6c-2.1-13.2-7.9-17.7-21.3-16
		c-1.2-2.5-3-5.1-3.7-7.9c-1.8-6.6-3.6-13-11.7-14.4c-5.8-8.5-14.1-14.7-16.1-26.5c-1.8-10.9-3-21.6-3.6-32.5
		c-0.3-5.4,1.5-9.1,5.4-13.1c6-6.1,10.7-13.4,16.3-20.5c-3.4-6.9-10.4-9.1-16.8-10.7c-13.7-3.4-27.6-2.1-41.2,1.7
		c-1,0.3-2,0.5-2.8,1c-8.4,6.5-17.5,8.8-28.1,6.1c-2.1-0.6-5.6,1.8-7.7,3.7c-3,2.7-5.9,3.5-9.9,3.4c-6.5-0.3-13.1,0.1-19.6,0.7
		c-1.7,0.2-3.6,1.7-4.9,3.1c-5.8,6.4-11.5,12.9-17.1,19.5c-2.2,2.6-3.8,5.5-1.8,9.1c7,12.3,12.4,25.8,24.9,32.9
		c2.3,13.6,4.5,26.6,7,40.7c-4.5,3.2-9.8,7.2-15.3,10.8c-22.9,15.4-46.7,29.7-68.5,46.5c-11.8,9.1-23.5,19.7-30.5,33.7
		c-2.6,5.3-4.7,11-6.5,16.6c-1.7,5.4-4.8,9.3-9.4,12.5c-7,4.8-9.9,12.2-12.3,20c-1.1,3.5-0.2,6,2.7,7.6c5.8,3.3,11.5,6.9,17.7,9.2
		c6.6,2.4,12.4-1.5,17.5-5c7-4.8,10.9-11.5,8.6-21.1c3.4-1,6.3-1.9,9.3-2.9c2.5,17.4,2.5,17.4,15.5,21.1c1.3,8.8,2.4,17.3,3.8,25.9
		c0.9,5.9,4.1,9.7,10.7,9.3c-0.3,4.3-1.8,5.8-5.8,4.9c-7.4-1.7-14.9-2.9-22.3-4.5c-8.7-1.9-14.3,1.8-15.5,10.6
		c-1.1,8.5-2,17.1-3.1,25.7c-1.5,11.3,3.3,17.6,14.7,19.2c2.6,0.3,5.2,0.6,8.4,1c0.2,3.1,0.3,6,0.7,8.9c0.4,2.9,0.9,5.8,1.4,8.7
		c-9.3,4.9-12.6,13.6-15.3,22.9c-9.2,2.1-16.2-2.3-23.1-6.8c-2.8-1.8-5.3-4.1-7.5-6.5c-8-8.5-7.9-6.4-17-1.9
		c-13.1,6.5-26,13.4-39,20c-1.1,0.6-2.6,1.2-3.7,1c-7.8-1.3-15.7-2.5-23.4-4.5c-4-1-7.5-3.1-8.9-8.4c-1-3.7-5.2-6.5-9-10.8
		c2.7-5.2,5.6-10.9,9-17.5c-2.5-1.9-5.5-4.2-9.1-7c2-6.3,4.6-12.8,6.1-19.5c1.1-5,1.6-10.5,1.1-15.6c-0.7-7.3-4.7-10.2-12.1-10.2
		c-2,0-4,0.4-6,0.4c-6.8,0-8.3-1.4-7.8-8.3c0.5-6.9,1.3-13.9,2.8-20.7c1.2-5.2,0.6-9-3.4-12.5c-2.2-2-3.8-4.6-5.9-6.7
		c-4.7-4.8-6.6-10.3-6-17.1c0.7-7.7,3.4-11.3,11.2-12.6c3.5-0.6,7.1-0.8,11.8-1.3c-1.6-10.2-6.9-17.2-13.7-22.9
		c-6.1-5.1-12.9-9.3-19.4-14c-5.5-4-7.9-9.5-10.4-16c-4.1-10.8-2.1-21.5-3.3-32.1c-0.5-4.6-0.3-9.5-1.8-13.8
		c-2.5-7.1-1.2-14.1,0.8-20.5c2.6-8.2,3.7-16.1,1.7-24.4c-2.5-10.1-0.6-21.5-9.8-29.5c-1.1-1-0.4-4.4-0.2-6.6
		c0.5-5.2,1-10.4,2.1-15.5c0.5-2.3,1.9-4.9,3.7-6.4c5.7-4.9,10.4-10.3,11.6-18c0.6-3.9,3.6-5,6.7-6.6c8.5-4.4,16.7-9.1,25-13.8
		c0.3-0.2,0.5-0.4,0.7-0.7c6.2-5.9,9.1-25.1,4.8-32.6c-1.5-2.6-3.3-5-4.8-7.6c-5.1-8.7-8.9-17.8-7.8-28.3
		c2.5-25.1-5.9-47.3-19.1-67.7c-11.3-17.6-19.7-36.2-24.7-56.3c-1.8-7-2.4-14.4-2.7-21.6c-0.3-6.9-2-12.9-6.5-18.3
		c-9.8-11.8-14.3-25.1-11.8-40.6c1.2-7.7-0.2-15.1-4.8-21.9c-2.8-4.1-5.1-8.6-6.9-13.3c-3-8.1-5.4-16.5,0.3-24.6
		c2.2-3.1,1.8-6,0.7-9.4c-2.9-9.2-6.2-18.3-7.6-27.8c-1-7-0.1-14.6,1.4-21.6c1.5-6.9-0.1-12.3-4.4-17.4
		C2843.1,442.8,2842.3,441.4,2841,439.6z"/>
	<path id="_x32_324" class="st0" d="M1469.5,782.1c0.6-2.6,1.1-5.3,1.9-7.9c3.2-9.4,2.9-17.4-6.6-23.5c-4.3-2.8-7.5-7.3-11.6-11.4
		c4.5-7.1,11-9.1,18-10c14.1-1.9,28.3-3.4,41.6-9.1c7-3,11.6-7.6,15.9-14.1c14.9-22.5,22-48.3,32.8-72.6c0.8-1.8,1.6-3.6,2.7-6.3
		c15.4,2.3,30.7,4.4,46,6.9c7.4,1.2,13.8,1.5,17.4-7c0.9-2.1,4-3.3,6-5c6-5.2,12.3-10.1,17.9-15.7c2.7-2.7,5.2-6.5,6-10.1
		c2.6-11.1,6.5-21.5,12.1-31.5c7.1-12.9,7.1-27.5,8-41.7c0.8-12.2-1.3-24.4,0.6-36.6c1.2-7.5-1.6-14.6-6.5-20.4
		c-3.8-4.5-4-9-1.3-13.8c2.6-4.6,5.4-9.1,8.4-13.5c2.2-3.3,4.7-6.3,7.6-10.1c-5.3-7.7-10.3-15.1-15.5-22.3c-1.9-2.7-2.7-5-1.4-8.2
		c2-4.8,4.6-6.8,9.1-4.7c9.3,4.4,18.7,3.2,29.5,1.6c4.8,12.3,19.6,10.9,28.7,20.8c2.3-3.8,4.5-6.6,5.8-9.7
		c7.3-17.5,14.4-35.1,21.7-52.6c1.2-3,2.6-6,4.3-9.7c12.3,8.4,24.3,10,36,0.4c9.7,5.8,8.8,21.4,23,24.4c2.2-4.1,4.4-8.4,6.9-13
		c16.9,9.4,33.6,18.3,49.9,27.8c4.8,2.8,8.8,3.3,14.1,1.6c11.4-3.7,22.5-7.2,32.7-14.1c9-6.1,19.2-10.6,29.2-14.7
		c3.9-1.6,9.4-1.3,13.4,0.1c22.1,7.7,28.1,8.5,50.1,5.1c7.3,5.9,10.7,12.7,8.6,23.1c-1.7,8.3,0.2,17.4-1,25.9
		c-1.5,10.6,1.7,17.6,10.1,24.5c7.7,6.3,9.7,9.2,3.3,18.5c-2.7,4-4.1,9.1-5.3,13.9c-1.8,7.4-6.5,12.1-12.9,15.6
		c-15.3,8.3-26.4,20-30.3,37.5c-1.5,6.6-5.2,11.2-11.1,14.6c-14.9,8.5-30.2,13-47.7,8.5c-8.8-2.3-17.8-1.3-25.4,5.2
		c-5.1,4.4-11,6.8-18.2,6.9c-7.9,0.1-9.1,2-9.6,9.6c-0.2,3-0.1,6-0.8,8.9c-1.3,6,0.8,10.8,3.6,15.9c3.1,5.7,4.9,12.1,7.2,18.3
		c1.7,4.6,3.5,9.2,5,13.9c1.8,6,4.2,11.9,4.9,18c1.7,16,11,23.6,27,20.9c4.2-0.7,8.3-2.5,12.6-3.1c3.3-0.4,6.7,0.4,10.9,0.7
		c-4.3,5.8-8.1,10-10.8,14.8c-1.5,2.6-2,6.5-1.3,9.4c1.3,5.2,1.9,10.1,2.1,15.5c0.3,10.2,2.2,20.4,3.8,30.5c1.6,10,9,14.3,17.9,16.3
		c8.3,1.8,14.7,5.6,17.9,14c2.3,6,1.1,10.6-4.1,14.6c-4.5,3.4-8.9,6.9-13.2,10.6c-1.9,1.7-4.2,3.9-4.6,6.2
		c-1.2,7.2-5.8,11.7-10.7,16.2c-1,0.9-1.9,1.9-2.8,2.8c-5.9,5.7-8.2,11.7-5.4,20.4c5.4,16.4,9.4,33.3,14.1,49.9
		c2.3,8.1,2.6,8,11,7.7c8.6-0.3,17.3-0.1,27.1-0.1c27.9,60.3,56.1,121.2,84.4,182.4c-19.5,4.6-35,13.3-43,30.8
		c-1.7,0.2-2.5,0.6-2.9,0.3c-6.5-4.4-11.8-2.4-18,1.5c-13.8,8.6-28.5,15.6-42.2,24.3c-5.4,3.4-9,9.5-13.9,14.8
		c-4.6-1.6-7-5.3-6.6-11.5c0.2-3.1-1.1-6.5-2.5-9.4c-3.2-6.9-4.9-7-11.5-3.4c-12.6,6.9-25.4,13.2-40.5,11.5c-3-0.3-6-0.3-9,0
		c-4.9,0.6-8.8-0.9-12.9-3.7c-13.8-9.2-29.7-9.2-45.2-7.4c-6.7,0.8-12.9,6.3-19.9,9.9c-6.6-2.3-14-4.2-19.7-10.6
		c-5.7-6.4-14.1-6.3-22.3-5.6c-21.2,2-42.3,3.8-63.5,5.6c-24.2,2.1-48.3,4-72.5,5.9c-1.6,0.1-3.2,0-5.8,0c2.8-9.3,5.1-17.9,7.9-26.3
		c2.9-8.6,4.3-17.3,4.5-26.4c0.4-21.5,0.9-43.1,2-64.6c0.9-17.6,2.9-35.1,4.4-52.6c0.1-1,0.9-2.2,0.6-2.9c-4-8.7-0.2-16.1,3.5-23.7
		c5.1-10.4-4.4-21.1-12.5-26.4c-4.6-3.1-8.9-6.8-13.7-9.5c-4.6-2.6-9.6-4.4-14.5-6.2c-14.4-5.3-25-13.8-24.8-30.7
		c0-3.4,0.8-7.1,2.2-10.2c5.3-11.6,3.1-19.2-8.6-24.9c-4.1-2-8.8-2.7-13.3-3.8c-2.8-0.7-5.7-1.2-9.6-2c3.2-15.5-9.3-21-17.6-29.1
		c-3.7-3.6-8.3-3-12.6,0.5c-7,5.6-13.9,5.1-19.6-1.4c-3.1-3.5-6.2-5.8-11-5.9c-1.6,0-3.3-0.4-4.9-0.8c-9.9-2.8-9.9-2.8-16.3,5.1
		c-0.6,0.7-1.5,1.1-2.3,1.6C1471.1,782.5,1470.3,782.3,1469.5,782.1z"/>
	<path id="_x32_323" class="st0" d="M2254.2,741.8c8.4-7.8,15.7-15.7,24.2-22c8.5-6.3,9.2-13.7,6.9-22.8c-1.5-5.8-2.6-11.6-3.4-17.5
		c-0.4-2.6-0.3-5.7,0.8-7.9c4.1-7.9,2.9-15.9,2-24.2c-0.8-7.1-0.8-13.8-7.4-18.6c-1.7-1.3-2.6-4.8-2.5-7.3c0.2-9.6,1-19.2,1.5-28.7
		c0.2-2.6,1.1-5.3,0.4-7.6c-2.3-8.7-5.2-17.2-7.6-25.8c-1.1-3.8-2.3-7.7-2.5-11.7c-0.4-10.3,0.3-20.6-4.1-30.4
		c-0.7-1.6-0.1-3.8-0.1-7.4c7.8,2.4,14.9,3.8,21.3,6.8c8.5,4,15,3.5,20.6-4.5c3.7-5.3,7.8-10.3,12.6-16.4c10,0.5,21.9,1.1,33.8,1.8
		c7.3,0.4,14.5,1.3,21.8,1.7c25.9,1.4,51.7,2.6,77.6,4.1c19.2,1.1,38.4,2.2,57.6,4c11.9,1.1,22.2-3.5,32.9-7.1
		c35.6-12.1,71-24.7,106.6-36.8c4.6-1.6,9.7-2.1,14.6-2.1c40-0.2,80-0.3,119.9,0.1c7.1,0.1,11-2.5,14-8.3c4.8-9.1,10-18,14.6-26.3
		c4.4,2.2,8.5,4.1,12.3,6.2c4.9,2.7,10,5.2,14.4,8.6c7.4,5.8,9.9,13.2,7.8,22.9c-2.8,13.6-0.9,27.1,4.2,40.1
		c2.4,6.2,4,11.8-0.1,18.8c-3.7,6.4-2.4,15.1,1.5,21.2c9.5,15,12.1,31,11.7,48.4c-0.3,10,3.8,19.6,10.8,27.2
		c6.1,6.6,8.2,14,7.1,22.9c-0.5,3.8,0.2,8,1.2,11.8c6.5,23.8,15.9,46.3,29.2,67.4c7.5,11.9,11.6,26,16.5,39.4
		c1.5,4.1,0.7,9.1,1,15.1c-10.2,1.3-19.9,2.6-29.6,3.8c-2.6,0.3-5.3,0.6-8,0.7c-4.9,0.2-8.9,2.4-9.5,7.2
		c-1.8,14.2-14.2,19.8-22.2,29.6c-11.8-9.4-21.3-19.2-24.4-34c-3.1-0.5-5.7-1.2-8.2-1.2c-17.9-0.6-35.9-0.9-53.8-1.6
		c-4.7-0.2-8.3,1.2-11.7,4.2c-5,4.4-10.3,8.4-15.3,12.9c-9.6,8.7-20.8,13.9-33.1,17.6c-17.8,5.3-35.3,12-53.3,16.7
		c-12.4,3.2-25.5,4.4-38.3,6c-30.3,3.8-60.6,7.4-90.9,11c-30.3,3.6-60.5,7.9-91.3,7.2c-43.6-1-87.2-1.1-130.8-1.5
		c-13.4-0.1-24.3-8.8-27.4-22.2c-1-4.2-1.5-8.5-2.4-12.7c-1.1-5.3-2.3-10.5-5.2-15.6c2.4-4.7,5-9.3,7.3-14.1
		c1.8-3.8,1.8-6.9-1.1-10.9C2270.3,767.9,2262.8,755.3,2254.2,741.8z"/>
	<path id="_x32_328" class="st0" d="M2268.3,806.3c5.4,4,6,9.2,6.3,15.1c0.3,6.5,2.3,13.1,4,19.5c0.6,2.1,2.3,4,3.8,5.7
		c1.3,1.5,3.2,2.4,4.6,3.8c7.2,7.4,15.9,9.2,26.1,9.1c46-0.5,92-0.6,137.9,0c23.7,0.3,47-3,70.5-5.5c2.2-0.2,4.4,0,7.1,0
		c1.1,4.8,1.9,9.4,3,13.8c1.2,4.6-1.6,7.8-4.1,10.6c-3.4,3.7-3.8,7.4-2.7,11.9c2.3,8.8,2.7,17.5,0.7,26.5c-0.7,3-0.5,6.8,0.8,9.5
		c5.4,10.7,5.9,22.4,7.5,33.8c0.1,0.7,0.2,1.3,0.3,2c3,11.9,1.1,22.3-5.7,33c-7.4,11.8-6.4,26.2-6.7,39.8c-0.1,2.3,2.1,4.7,3.3,7
		c2.7,4.9,5.5,9.8,8.4,14.6c4,6.9,6.4,13.9,2.7,21.8c-0.3,0.6-0.5,1.4-0.3,1.9c3.9,10.6,5.3,23.1,16.6,29.1
		c33,17.4,66.2,34.3,99.3,51.4c20.4,10.5,40.9,20.9,61.2,31.7c15.5,8.2,30.9,16.8,47.4,25.9c-5.3,7.9-10.5,15.8-15.9,23.6
		c-8.3,12.1-16.4,24.3-25.2,36c-5.7,7.7-8,15.7-6,25.1c0.5,2.2,0.1,4.6,0.1,7.7c-2.3,0-4.2,0.2-6,0c-15.1-2.4-30.1-5.1-45.2-7.2
		c-5.8-0.8-11.9-0.9-17.8-0.7c-11.4,0.4-21.6-1.3-29.4-11c-5.1-6.3-12-10.6-20.2-12c-5.9-1-8.6-4.4-8.8-10.2
		c-0.4-7-4.6-12.1-8.8-17.3c-1.2,0.7-2.1,1.1-2.9,1.8c-9.8,8.6-9.7,8.5-20.6,2.8c-13.2-6.9-26.3-14.2-40-20
		c-8.6-3.7-18.2-1.9-25.1,4.5c-6.3,5.9-12.7,9.3-21.4,8.1c-0.3,0-0.7-0.1-1,0c-21.7,6.9-42.8,0.4-64-3
		c-34.1-5.5-68.1-11.8-102.1-17.8c-0.6-0.1-1.2-0.5-2.8-1.3c1.2-2.5,2-5.3,3.5-7.6c8.3-12.7,5.9-21.4-7.8-27.6
		c-1.5-0.7-3.2-1-4.6-1.9c-4.4-2.9-8.6-3-12.7,0.7c-15.8-11.4-34.3-15.3-51.7-21.6c-34.6-12.7-69.5-25-104.3-37.3
		c-5.9-2.1-9.9-5.2-12.6-11.2c-17.3-38.1-35.1-76.1-52.8-114.1c-15.6-33.5-31.2-66.9-46.8-100.4c-2.8-6-5.5-12-8.6-18.8
		c8.5-0.9,16-1.7,23.5-2.6c7.3-0.9,8.4-2,9.4-9.1c1.8-13.1,4-26.3,5.1-39.5c0.5-5.7-1.5-11.7-2.5-18.4c4.4,1,7.9-0.4,9.1-5.4
		c1.2-4.8,2.5-9.6,3.9-14.3c0.9-2.8,2.1-5.5,3.1-8.3c2.9-7.4,6.4-14.6,8.6-22.2c1.2-4.2,2.8-6.5,7.1-6.8c6.3-0.5,12.5-1.3,18.8-1.4
		c4.9-0.1,9-0.4,12.2-4.9c2.3-3.2,5.7-5.5,8.7-8.2c4.8-4.2,8.7-4.2,12.7,0.5c1.5,1.7,2.8,3.9,3.3,6c1.8,7.4,2.9,15,8.6,20.9
		c0.9,0.9,0,3.6-0.2,5.4c-1.3,11.5,3.6,20.9,14.7,24.1c11.1,3.2,19.6,9.1,26.9,17.7c3.8,4.5,7.4,4.9,12.3,1.9
		c1.7-1.1,3.6-3.4,3.6-5.2c0.1-5.9-0.3-11.9-1-17.8c-0.8-5.9-2.6-11.6-3.4-17.5c-1.6-11.1-1.4-11.2-10.2-22.3
		c3.5-2.2,6.8-2.9,11-1.6c5.4,1.6,11.1,1.9,16.6,2.9c17.5,3.1,32.8-1.5,46.3-12.9c1.2-1.1,2.7-1.9,4.9-3.4
		c8.3,13,16.7,25.7,24.5,38.6c1,1.7,0.2,5.1-0.7,7.3C2273.9,796.1,2271.1,801,2268.3,806.3z"/>
	<path id="_x32_327" class="st0" d="M2830.4,786.5c3.9,7.4,6.3,14.2,10.5,19.5c4.8,6.2,11.3,11.1,16.6,16.2
		c7.1-6.1,13.6-11.2,19.4-17c2.4-2.4,3.8-6.2,4.6-9.7c1.7-7.4,5-11.2,13.5-11.4c10.5-0.2,20.9-2.3,31.8-3.7c0.4,2.6,0.9,4.2,0.8,5.8
		c-1.3,12.4,4,22.7,10.3,32.6c5.5,8.7,4.9,22.7-1.4,30.7c-0.4,0.5-0.8,1.1-1.4,1.4c-7.6,4.4-15.1,9-23,12.9
		c-4.4,2.1-8.8,4.2-9.7,9.2c-1.2,6.7-5.1,11.4-9.9,15.7c-4,3.6-7.4,7-5.4,13.6c1,3.3-1.3,7.7-2.5,11.5c-1.4,4.5-1.5,8.5,3,11.5
		c1.3,0.9,2.9,2.3,3.2,3.8c2.4,13.9,8,27.5,3.2,42.1c-2.7,8.3-2.8,16.7-1.3,25.6c1.5,9,3.6,18.2,1.2,27.5c-0.7,2.6,0.5,5.8,1.2,8.7
		c0.4,1.9,2.1,3.8,2,5.6c-0.6,11.9,8.2,17.5,15.8,23.7c3.9,3.1,8.1,5.9,12.3,8.5c7.4,4.6,11.5,11.7,15.7,19.6
		c-4.2,0.9-7.7,1.5-11.1,2.4c-8.9,2.3-11.9,6.4-12.4,15.4c-0.4,7,0.6,13.1,6.6,17.7c2.6,2,4.5,4.9,6.7,7.4c2.5,2.9,3.7,6,2.9,10
		c-1.3,6.8-2.3,13.7-3.2,20.6c-1.2,9.1,2.8,13.2,12.3,12.7c12.2-0.7,17.1,4.8,14.3,16.8c-1.3,5.5-3.5,10.8-5.3,16.1
		c-3.3,9.8-3.3,9.8,5.2,16.3c-2,4.1-3.9,8.2-5.9,12.2c-2.2,4.5-1.9,8.3,2.7,11.2c3.1,2,5.6,4.3,6.2,8.5c0.3,1.9,3.3,4.3,5.5,5
		c6.9,2.3,14,4,21,5.7c2.9,0.7,5.8,0.9,8.5,1.3c2.6,7.1,4.8,12.9-1.8,19.4c-3.5,3.4-3.8,10.4-4.8,15.9c-0.9,5,3.3,7,7,8.4
		c2.7,1.1,5.8,1,10,1.6c0.9,5.9,2.1,12,2.7,18.1c1.2,10.7,1.3,11,11.6,13.7c1.6,0.4,3.7,0.8,4.4,2c4.5,7.8,12.3,13.9,12.1,24.1
		c0,2.3-0.1,5.2,1.2,6.7c5.6,6.6,6,14.6,7.1,22.4c1.6,11.2,4.9,21.9,7.4,32.9c2.6,11.5,1.4,23.9,1.9,37.3c-10.8-2.5-20.3-4.7-29.8-7
		c-59.5-14.4-118.9-28.7-178.4-43.1c-29.7-7.2-59.5-14.1-89.2-21.5c-6-1.5-10.6-1-15.7,2.7c-11.5,8.4-23.2,16.8-35.5,24.1
		c-9.3,5.6-19.7,9.3-29.4,14.1c-4,1.9-7.2,1.1-9.9-1.8c-7.7-8-18.3-10.9-28.2-10.8c-12.1,0.1-17.6-6.5-24.2-15.2
		c11.1-4.6,21.4-9,31.7-13.3c4.3-1.8,8.6-3.7,13-5.1c8.4-2.7,14.8-7,16.3-16.6c0.6-3.5,3-6.1,7.1-5.7c4.9,0.4,7.8-2.9,11.2-5.6
		c4.6-3.7,9.2-7.4,14.1-10.7c3.4-2.3,3.9-5.2,3-8.6c-1.4-5.4-3.1-10.8-4.7-16c2.3-2.3,4.4-4.4,6.4-6.6c4.8-5.2,7.1-11,5.4-18.2
		c-2.6-11.2-0.6-21.1,6.8-30.7c11.8-15.3,22.3-31.5,33.3-47.4c2.6-3.8,5-7.7,7.5-11.5c-1.1-1.4-1.5-2.4-2.3-2.8
		c-23.7-12.8-47.3-25.7-71.1-38.2c-45.2-23.5-90.5-46.7-135.8-69.9c-3.7-1.9-6.7-4.1-8.3-8.1c-1.8-4.6-4.3-9-6.1-13.6
		c-0.8-2.1-1.7-4.9-1-6.7c5-12-1.3-22.2-7.3-30.6c-6.6-9.2-8-17.9-6.9-28.5c1.1-10.8,3.6-20.9,9.5-30.1c3.7-5.9,5-11.8,3.4-18.9
		c-2.1-9.4-2.6-19.1-4.2-28.6c-0.9-5.2-3.1-10.1-4.2-15.2c-0.8-3.8-1.3-7.7-1.3-11.5c-0.2-6.9,0.8-13.9-0.1-20.7
		c-0.8-6.5-1.7-12.3,3.7-17.4c3.1-2.9,3.6-6.7,2.2-11.1c-1.2-3.7-1.5-7.8-2.4-12.9c7.9-1.3,15.6-2.9,23.4-3.8c29-3.5,58-6.6,87-10.3
		c8.2-1,16.3-3.1,24.2-5.5c19.1-5.8,38.1-12,57-18.3c4.3-1.4,8.6-3.6,12.3-6.3c8.3-6.1,16.5-12.4,24.2-19.3c4-3.6,8-5.4,13.3-5.2
		C2792.6,785.4,2811.5,785.9,2830.4,786.5z"/>
	<path id="_x32_325" class="st0" d="M2807.8,424.9c-6,10.7-12.1,21.4-18.1,32c-2.1,0.2-3.7,0.5-5.4,0.5
		c-40.9,0.5-81.9,0.8-122.8,1.5c-6.5,0.1-13.3,1.1-19.5,3.1c-36.9,12.4-73.8,24.7-110.3,38.3c-12.2,4.5-24.1,3.5-36.2,2.9
		c-27.2-1.3-54.4-2.9-81.6-4.5c-32.5-2-64.9-4.2-98.2-6.4c0.2-2.5,0.1-5.1,0.6-7.5c0.9-4.2,1.6-8.6,3.3-12.5
		c7.2-16.7,0.7-30.5-9.2-43.2c-6.6-8.3-14.6-15.5-21.5-23.6c-12.4-14.5-27.9-27-33.1-46.5c-2.4-8.9-3.5-18.2-5.7-27.1
		c-1.8-7.2-0.7-12.9,3.2-19.6c4.9-8.2,3.9-17.9-0.5-26.7c-1.8-3.5-4-6.9-6.2-10.5c5.5-10.8,10.3-21.7,16.4-31.9
		c2.7-4.6,3.1-8.4,1.2-13c-1.2-2.8-2.2-5.6-2.7-8.5c-0.5-2.7-0.1-5.5-0.1-8.2c7.3-1.6,11.2,3.2,16.1,4.5c4.9,1.3,10.1,1.7,14,2.4
		c1,5.7,1.8,11,3,16.2c1.8,7.8,8.2,11.1,14.7,13.7c2.1,0.9,5.3,0.6,7.5-0.4c6.6-3,13.7-5.8,19.2-10.3c6.5-5.3,13.1-6.1,20.4-3.9
		c11.2,3.4,22.4,3.6,33.1-0.8c10-4.2,19.3-10.2,29.2-14.7c10.2-4.6,20.9-8.3,32.1-12.7c1.8,6.4,1,10.6-4.1,13.6
		c-2.3,1.3-4.5,2.8-6.9,4.1c-3.4,2-5.2,4.7-5.4,8.9c-0.3,8.9-1.4,17.9-1.5,26.8c0,2.6,1.5,5.9,3.5,7.7c9.7,9,16.3,20.1,22.5,31.6
		c0.8,1.5,1.7,2.9,2.7,4.2c7.5,10.2,15.9,12.4,26.5,5.8c7.6-4.7,14.4-10.7,21.5-16.1c3.4-2.6,6.6-5.4,10.5-8.5
		c11.6,9.3,23.2,17.8,30.2,30.5c3.1,5.6,3.8,12.6,5.6,19c2.2,8.2,3,8.8,11,6.2c19.3-6.2,38.6-12.5,57.9-18.9
		c2.2-0.7,4.8-1.3,6.3-2.8c7.1-6.8,16.1-10.2,24.6-14.8c4.2-2.3,7.5-7.7,9.3-12.4c4.4-11.8,12.3-16.3,24.6-15.7c13,0.6,26,0,39,0.2
		c16.2,0.2,24.3,8.3,28.1,24c3.2,13.5,4.6,26.7,1.8,40.3c-1.2,5.8-1.7,11.8-3.4,17.5c-2.1,7.1,2.9,10.5,6.9,14.1
		c1.3,1.2,5.8,0.9,7-0.4c4.4-4.7,8.8-3.4,13.7-1.5c1.8,0.7,3.8,1.3,5.7,1.8c7.9,2,8.3,2.9,5.5,10.8c-1.2,3.4-2.5,6.9-3,10.5
		c-1.3,10.8,0.3,20.6,11,26.6C2803.7,421.5,2805.4,423.1,2807.8,424.9z"/>
</g>
</svg>
