<?xml version="1.0" encoding="utf-8"?>
<!-- Generator: Adobe Illustrator 19.0.0, SVG Export Plug-In . SVG Version: 6.00 Build 0)  -->
<svg version="1.1" id="Layer_1" xmlns="http://www.w3.org/2000/svg" xmlns:xlink="http://www.w3.org/1999/xlink" x="0px" y="0px"
	 viewBox="0 0 4000 2000" style="enable-background:new 0 0 4000 2000;" xml:space="preserve">
<style type="text/css">
	.st0{fill:#FFFFFF;}
</style>
<g>
	<path d="M1193.5,1025.9c-7.2-5.8-14.6-11.3-21.3-17.4c-10.9-10-23.2-19-25.6-35.3c-0.4-2.3-2.4-4.3-3.2-6.6
		c-1.3-3.9-1.9-8.1-3.4-12c-2-5.2-3.9-10.8-7.2-15.2c-5.4-7.2-11.9-13.5-17.9-20.2c-2.8-3.2-2.6-7,0.4-10.1
		c7.2-7.2,14.4-14.3,21.5-21.6c0.9-0.9,1.5-2.7,1.4-3.9c-0.9-6.3-2.6-12.5-3-18.8c-0.2-4.5-1.3-8.2-3.7-11.9
		c-5.2-8.3-5.5-17.2-1-25.7c1.1-2,4.4-3.6,7-4c3.9-0.7,7.9-0.2,11.4-0.2c0.4-5.5,0.7-10.6,1-15.7c0-1.1-0.5-2.2-0.8-3.3
		c-1.7-5.5-2-10.7,2-15.5c1-1.2,1.5-2.8,2.6-4.9c-4-1.3-7.8-2.2-11.1-3.8c-2-1-3.9-3-4.9-5.1c-1.6-3.2-2.3-6.8-3.6-10.1
		c-0.4-1.1-1.5-1.9-2.3-2.8c-2.2-2.9-4.3-5.9-6.8-8.5c-1.4-1.5-3.5-2.6-5.5-3.3c-7-2.6-9.8-8.2-7.4-15.1c1.5-4.2,4.3-5.6,8.4-4.9
		c2.9,0.5,5.8,1.6,8.6,1.4c2.4-0.2,4.8-1.6,7-2.8c2.3-1.3,4.4-2.7,6.4-4.5c1.1-1,2.6-2.9,2.4-4.1c-1.7-8,1.8-15.1,4.5-22
		c2-5.1,7.7-3.2,11.8-2.7c1.1-3.8,2.4-7.6,3.3-11.4c0.3-1.3,0.2-3.1-0.5-4.1c-4.3-6-5-12.1-2-18.9c1-2.1,0.7-4.8,1.1-7.2
		c0.7-4,1.8-7.4,5.6-10.3c5.3-4,9.7-9.1,14.3-14c2.8-3,6.2-4.6,9.8-3.4c10.2,3.7,17.1-3,24.8-7.2c5.4-3,10.2-7,15.5-10.2
		c4.2-2.6,8.1-0.3,8,4.7c0,3.3-1.3,6.7-0.7,9.8c0.8,4.7,2.3,9.4,4.4,13.7c2.3,4.8,5.2,9.6,8.7,13.5c3.6,3.9,7.9,7.7,12.7,9.8
		c7.4,3.2,11.1,8.8,13.5,15.9c1.6,4.7,4.6,8,8.7,10.8c4.3,2.9,8,6.5,12,9.8c-0.3,0.4-0.7,0.8-1,1.1c0.8-2.4,1.2-5,2.6-7
		c1.1-1.7,3.5-3.8,5.1-3.6c5.2,0.6,8-2.4,10.9-5.6c2.1-2.4,4.1-3.2,7.3-1.8c4.1,1.8,8.6,2.9,13.8,4.5c0.7-5,2.4-9.7,1.6-14.1
		c-1.3-7.1,2.4-11.7,6.1-16.2c4.7-5.8,9.5-11.7,17-14.3c6.5-2.2,15.6,1.2,19.4,6.8c1.2,1.8,3.2,3.1,5,4.8c5.1-4.9,7.2-10.9,8.6-17
		c0.3-1.4-2.8-4.2-4.9-5.4c-5.3-3.1-8.6-7.5-10.3-13.2c-2.4-8.2,3.2-15.4,11.6-15.9c14.2-0.9,28.4-2.7,42.7-3.5
		c2.7-0.1,5.5,2.7,8.4,4.2c0.5-1.5,1.3-3.9,2.2-6.2c1.5-3.8,4.3-5.6,8.5-5.4c4.2,0.2,7.9-0.4,11.5-3.4c1.6-1.3,5.1-0.9,7.7-0.5
		c1.8,0.3,3.6,1.5,5.3,2.6c4.3,2.6,8.4,4.3,13.6,1.7c1.8-0.9,6,0,7.2,1.6c5.1,6.9,13.9,7.8,19.8,13.1c4,3.5,8.3,3.9,13.2,4.1
		c7,0.2,14.1,0.9,21,2.1c6.3,1,11.4,11.4,9.6,18.4c-1.3,5-1.2,9.1,3.2,12.9c5.8,4.9,6.4,12,6,19c-0.2,4,1.1,6.4,4.5,8.3
		c8.2,4.6,16.4,8.6,26.4,7.3c11.7-1.5,23.3,1.2,34.8,2.9c4.3,0.7,12.4,12.6,11.2,16.6c-1.3,4.5-2.3,9.1-4.5,13.2
		c-2.5,4.6,3.4,7.3,1.7,11.4c3.5,1,7.1,2.2,10.7,2.9c9.3,1.8,15-3.4,20.1-10.3c3.5-4.8,8.2-8.7,11.9-13.3c1.4-1.7,2-4.5,2.1-6.8
		c0.3-6.8,2.2-12.7,7.3-17.6c2.9-2.8,5.1-6.4,7.9-9.4c1.9-1.9,4.3-3.3,6.5-5c5.7-4.3,11.5-8.6,17.2-13.1c4.1-3.2,8-6.8,12.2-10
		c2.9-2.3,6.9-1.3,8.3,2.1c1.6,3.7,2.4,7.7,3.8,11.5c0.7,1.8,1.5,3.8,2.9,4.9c9.7,7.9,18.4,16.3,20.2,29.5c0.2,1.3,1.6,2.9,2.9,3.6
		c4.9,2.8,10,5.3,15.2,7.9c0.9-7.8,10.1-7.7,15.8-11c4.3-2.5,9.6-3.9,14-7.1c1.4-1,3.8-1.3,5.7-1.1c7.8,1,14.5-1.5,21.8-6.2
		c-4.7-3.9-9.1-8-13.9-11.5c-7.1-5.1-7-5.4-5.7-13.8c0.8-5-0.3-10.3-0.3-15.4c0-4.4,0.2-8.8,0.5-13.2c0.2-3.3,1.6-6.9,0.7-9.8
		c-1.7-5.4,0.7-9.5,2.5-14c0.9-2.4,1.1-5.3,0.8-7.8c-0.5-3.9,0.5-7.2,3.1-9.9c3-3.3,8.8-1.6,9.6,3.1c1.1,6.5,1.2,13.2,1.8,20.1
		c9.2,2.5,14.1,10.2,19.4,17.7c3.5,4.9,5.8,9.7,5.2,15.8c-0.1,1.4,1,3,1.9,4.2c6.5,9.8,9.7,20,4.6,31.5c-0.8,1.9-1.5,4.1-1.4,6.1
		c0,1,2.2,3,2.8,2.8c9.3-2.9,16.1,4.1,24.2,6c6.2,1.4,6,2,9.3,7.6c0.5-3.2,1.2-6.4,1.4-9.7c0.3-6,2.2-7.6,8.2-6.8
		c13.6,1.8,27.3,3.3,41,5.1c8.4,1.1,16.8,2.7,25.2,3.8c1.9,0.3,4,0.1,5.8-0.5c9.5-3.3,19-6.7,28.5-10.2c5.5-2,8.7-8.4,7.1-13.8
		c-0.5-1.7-1.2-3.4-2-5c-2.4-5-3.1-9.9,1.6-14.2c-3.8-3.2-7.9-5.9-10.9-9.5c-1.9-2.3-3-5.8-3.2-8.8c-0.2-3.7,1.2-7.4,1.7-11.1
		c1.2-9.5-2.3-17-9.8-22.7c-3.6-2.8-7.9-5.1-10.6-8.6c-2.7-3.5-4-8.1-6.3-13.3c-2.1,0.2-5.6,0.5-9.1,0.9c-4.4,0.5-7.5-2-9.5-5.2
		c-1.8-3,0.3-5.5,2-8.4c1.1-1.8-0.5-5.5-1-8.3c-0.4-2.3-1.8-5.1-1-6.8c0.8-1.7,3.8-3,6-3.2c3.1-0.4,5.1-1.2,6.5-4.1
		c1.6-3.2,3.7-4.8,8-3.3c3.5,1.2,7.6,0,11.4,0.4c1.8,0.2,4.4,0.9,5,2.2c2.2,4.7,6.1,3.8,9.8,3.7c5-0.3,8.3,1.4,9,6.4
		c3.3-1.5,6.7-2.8,9.9-4.4c2-1,4.2-2,5.8-3.5c3-2.9,5.7-4.4,9.9-1.7c3.9,2.5,4.8,5.8,3.9,9.7c-0.9,4,0,6.2,3.4,8.8
		c4.1,3.2,7.4,7.6,10.4,12c3.6,5.1,6.5,10.8,9.7,16.2c0.3,0.5,0.8,1.1,1.3,1.4c6.8,4.3,7.7,6.2,4.2,12.7c-4.1,7.5,0.4,14,1.7,20.8
		c0.3,1.5,4,2.2,5.9,3.6c3,2.1,3,4.9,2.1,8.4c-0.7,2.8-0.9,6.1-0.3,8.9c1.4,5.8-2.6,12.4-8.6,12.7c-3.3,0.2-4.9,1.3-5.9,4.6
		c-1.6,5.3-4.5,9.7-10.6,11.1c-1.3,0.3-2.3,2.3-3.1,3.8c-1.4,2.5-2.5,5.2-3.6,7.4c2.1,7.7,8.1,8.6,14.7,9.4
		c7.4,0.9,14.7,2.7,21.8,4.1c1.8-5.5,2.5-11.3,5.4-15.3c3.9-5.2,9.8-8.9,14.5-13.5c2.6-2.5,5.7-5.2,6.9-8.5
		c3-8.1,6.1-15.9,14.4-20.3c1.2-0.6,1.7-3.4,1.8-5.2c0.3-6.6,0-13,2.7-19.4c1.2-3-0.3-7.4-1.1-11c-1.9-8.4,1.3-13.3,9.4-16.3
		c4.4-1.6,8.6-3.8,10.5-9.7c1.8-5.5,6.4-10.2,10.1-14.9c2.4-3.1,5.1-6.2,8.3-8.2c8.2-5.3,11.4-13.5,14.3-22.1c0.4-1.2,1.1-2.5,2-3.2
		c7.6-6.1,16-9.8,25.9-6.6c5.4,1.8,10.4,4.6,15.6,6.7c1.4,0.6,3.4,0.8,4.8,0.2c3.9-1.4,7.6-3.7,11.6-4.9c4.1-1.2,5.8-4.1,7.1-7.7
		c1.2-3.3,3.2-6.3,4.6-9.6c1-2.4,2.4-5.2,2.1-7.6c-1.1-8.1,1.4-11.1,9.4-10.1c5.7,0.7,11.4,1.5,17.1,1.9c10.9,0.8,21.7,1.2,32.6,2.1
		c10.5,0.8,21.2,0.7,31.2,3.4c6.1,1.6,12,7,16.2,12.1c2.6,3.1,1.8,8.9,2.7,14c2.9-1,4.8-2.1,6.8-2.4c3.4-0.6,6.9-0.6,10.3-1.2
		c3.2-0.5,6.6-0.9,9.4-2.3c7.2-3.6,12.9-0.2,18,3.7c4,3.1,7.2,7.4,10.3,11.6c1.5,2,2.5,2.7,4.7,1.1c3.3-2.4,6.9-4.5,10.1-7
		c2.2-1.7,4.5-3.7,5.8-6.1c3.7-6.7,7.4-13.4,10.3-20.4c4.3-10.3,12.7-14.3,22.7-16.6c1.3-0.3,3-1,3.5-2c1.9-4.2,3.7-8.6,5.1-13
		c1.4-4.2,4.7-6.1,9.8-4.6c10.4,3.1,20.8,6.3,31.9,9.7c-2-9.2-3.9-18.1-5.9-26.9c-0.2-0.8-1-1.8-1.8-2.1c-7.3-3.4-9.9-10-12.4-17.3
		c3.2-1.3,6.2-2.5,9.7-3.9c1.9,6.7,5.4,12.2,12.4,14.3c3.2,1,6.6,1.5,10,2.1c8.3,1.4,14.5,6.5,20.6,11.6c5,4.2,10.6,3.8,14.4-1.5
		c5.3-7.3,14.4-10.3,23.2-8.7c8.2,1.5,14.6,5,18.6,13c4.3-17.9,8.5-35.3,12.8-52.6c6.5-26.7,13.4-53.4,19.3-80.2
		c2-9.2-1.2-18.5-7.2-25.8c-5.9-7.2-10.8-14.3-12.9-23.7c-2.1-9.7,4.8-22.3,14.6-23.3c5-0.5,10.1,0.6,15.2,1.1
		c3.6,0.3,7.2,0.5,10.6,1.5c7.4,2.2,8.6,9,9.7,15.1c1.9,10.2,6,16.9,17.2,19.7c7.3,1.8,12.5,9,14.7,16.3c2.7,8.9,7.9,15.5,14.2,21.9
		c5.1,5.1,9.5,10.9,14,16.5c1.6,2,2.6,2.6,5.1,1.4c23.8-11.7,47.6-23.2,71.5-34.7c3.2-1.6,6.4-3.4,9.8-4.4c1.7-0.5,4.6,0.1,5.6,1.4
		c0.9,1.1,0.8,4.3-0.1,5.6c-4.6,6.7-9.1,13.7-14.7,19.6c-6.8,7.2-6.5,15.6-4.5,23.8c2.2,8.8,2.9,17.6,2.2,26.5
		c-0.2,3.3-2.4,6.7-4.3,9.7c-6.8,10.9-16.8,16.7-29.6,15.9c-6.9-0.4-11.2,1.4-14.4,7.8c-3,5.9-7.6,11-11.1,16.7
		c-0.7,1.1-0.5,4,0.1,4.3c13.8,7.2,20.2,20.2,25.9,33.4c6.9,15.9,15.9,18.2,30.8,15.8c10.7-1.8,17.6-7.5,24.3-14.7
		c3.8-4.2,8.1-5.2,9.8-2.1c1.1,2,1.5,4.6,1.7,7c0.5,5.8,0.7,11.5,1.1,17.3c0.7,12.4,1.3,24.7,2,37.1c0.1,2.3,0.8,4.5,1,5.7
		c7.1-10.9,14.7-22.5,22.9-35c2.9,8.7,3.1,14.9-3,20.8c-3.4,3.2-4.7,8.4-7.2,12.6c-2.5,4.2-5.1,8.4-8.1,12.2c-2,2.5-2.6,4.3-0.4,7.1
		c3.9,5,7.3,10.4,10.8,15.7c2.9,4.4,1.1,7.8-4.1,8.4c-7.9,1-14,5.6-19.2,11c-6,6.2-12.4,11.3-20.6,14.1c-0.7,0.3-1.4,0.9-2,1.3
		c-8.6,5.5-16.6,4.1-24.9-2.4c-6.4-5.2-13.9-9-21.1-13.2c-0.9-0.5-3-0.1-3.8,0.6c-5.8,5.2-11.5,10.5-17.6,16.3
		c7.1,5,14.1,9.4,20.5,14.6c3.6,2.9,6.7,3.5,11.4,3.4c3.6-0.1,7.9,4.2,10.7,7.6c3.2,3.8,5.1,8.6,7.3,13.1c0.6,1.2,0.4,2.9,0.3,4.4
		c-0.2,3.3-0.4,6.6-1,9.8c-0.3,1.6-1.3,3-2,4.5c-0.7,1.7-2.3,3.7-1.8,5c2.7,7.4,3.8,15.9,11.1,20.5c3.6,2.3,8,3.2,13.4,5.3
		c-2.1,0.6-3.2,1.4-4.2,1.2c-7.8-1.8-15.1-4.5-18.3-12.7c-2.1-5.3-3.2-10.9-5.3-16.1c-0.6-1.4-3-3-4.6-2.9c-5.5,0.2-11,1.1-16.6,1.8
		c-1.1,0.1-2.7,0.3-3.1,1c-3.9,6.6-10.6,9.2-17,11.9c-5.9,2.5-7.6,6.7-7.6,12.3c0,5,0.3,10-5.9,11.9c-0.6,0.2-0.7,1.7-1.3,2.3
		c-2.3,1.9-4.4,4.8-7.1,5.4c-33.2,7.6-66.4,14.8-99.7,22.1c-8.7,1.9-17.5,3.9-26.1,6.1c-2.1,0.5-4.2,1.6-6.1,2.8
		c-3.2,2-6,3.9-10.4,2.4c-3.8-1.3-6,2.2-7.5,5.1c-4.3,8.3-10.1,15.3-17.7,20.8c-0.8,0.6-1.6,1.1-2.5,1.5c-8.4,3.3-9.6,5.2-9.9,13.9
		c-0.2,6.6-0.9,13.1-1.4,20.5c5.3-4.1,9.3-8.1,14-10.8c3.8-2.2,8.4-3.1,12.8-4.2c8.2-2,16.5-3.6,24.7-5.6c6.7-1.7,13-2.7,19,2.5
		c2.2,1.9,5.5,3.2,8.4,3.8c7.1,1.3,11.4,5.7,14.4,11.8c2.3,4.7,4.3,9.6,7.3,13.8c1.9,2.7,5.3,4.5,8.2,6.4
		c6.4,4.2,12.8,8.4,19.4,12.4c2.9,1.7,6.2,2.8,9.4,4c3.5,1.3,3.9,3.8,2.9,6.9c-2,6.3-4.4,12.5-5.8,18.9c-1.5,6.6-4.2,11.3-11.5,12.5
		c-3.3,0.5-6.2,3.6-9.4,3.8c-4.9,0.4-10-0.1-14.8-1.2c-6-1.3-9-0.4-12,5.2c-2.1,3.9-3.9,8-6.4,11.5c-1.2,1.6-3.9,3.1-5.9,3.1
		c-9.5,0.1-14-4.6-14-14c0-3.1,0-6.3,0-8.7c-7.5-2-14.3-4.2-21.2-5.6c-2.2-0.5-6,0.1-7.1,1.6c-4.2,6-10.9,5.9-16.8,7.8
		c-0.9,0.3-2,0.2-2.9,0.5c-9.8,2.9-11.6,5.3-12,16.5c-0.3,6.3,0.8,12.5-0.7,18.9c-1.1,4.6,0.8,9.8,0.6,14.8
		c-0.3,5.7-3.4,10.4-7.5,14.2c0.7,9.2,7,15.4,12.8,21.8c5.5,6.1,11.3,11.7,14.3,19.8c0.9,2.4,4.4,4.5,7.2,5.4
		c7.9,2.6,15.5,5.1,22.1,11c6,5.3,13.6,8.7,20.6,12.9c0.9,0.5,2.3,0.3,3.4,0.3c4.5,0,9,0,13.5,0c6,0,8.4-3.1,7.8-9.1
		c-0.2-2.1,1.3-4.3,2-6.4c2.2,0.9,4.8,1.2,6.4,2.7c4.4,4.2,8.2,9,12.5,13.4c0.8,0.9,2.5,1.4,3.7,1.4c8.4-0.5,16.7-1.2,25.1-1.9
		c6.9-0.6,13.7-1.5,20.6-1.8c2.5-0.1,5.9-1.7,7.7,2.6c-18.5,1.4-36.5,2.7-54.5,4c-0.3,0.5-0.6,0.9-0.8,1.4
		c5.6,6.4,11.5,12.5,16.8,19.2c2.8,3.6,5.6,7.5,4.9,13.1c-0.3,2.7,2.5,6.1,4.5,8.8c6.2,8.5,11.1,17.4,12.5,28.2
		c0.7,5.6,5.1,8.1,12.5,8.6c6.6,0.4,8.1,2,8.2,8.4c0,2.7,0.3,5.4,0,8c-1.2,9.5,1.6,18.5,3.6,27.6c1,4.4,2.5,8.7,3.3,13.2
		c0.4,2.1-0.7,4.5-0.8,6.8c-0.4,8.3-1.1,16.6-0.9,24.9c0.2,7.2,1.8,14.3,2.4,21.4c0.5,6.3-0.2,12.4-4.7,17.4
		c-6,6.8-12.4,13.1-19.8,18.6c-5,3.7-8.4,11.3-9.7,17.7c-2,10.5-4.2,20.8-11.5,28.6c-6.3,6.8-7.6,15.8-12.8,22.9
		c-2,2.7-4.3,5.1-6.6,7.7c-0.9,1-2.4,1.7-2.8,2.8c-3,7.8-10.2,7.2-16.4,8c-4.2,0.6-8.6,0.1-13.1,0.1c0,1.8,0,3.2,0,4.6
		c3.1,0,5.9-0.1,8.8,0c5.4,0.2,10.2,1.5,15.1,4.6c3.7,2.3,9.6,0.5,13.4,4.7c1.5,1.7,3.6,2.9,5.8,4.6c-2.4,2-4.5,3.8-5.7,4.7
		c-5.9-1.6-10.9-2.9-15.9-4.4c-1.2-0.4-2.6-0.9-3.5-1.8c-4.2-4.1-9.6-3.7-14.4-2.9c-10.8,1.8-13,3.2-14.3-12.3c-8,4.5-14,1-19.4-5.1
		c-5.7,5.3-11.6,9.6-18.5,6.3c-4.1,4-8.1,7.6-11.6,11.7c-1.3,1.5-1.8,4.1-2,6.3c-0.4,5.1-1.1,9.9-4.5,14.1
		c-3.7,4.6-7.8,5.2-12.9,2.4c-2.3-1.3-5.9-1-8.7-0.3c-3.5,0.9-5.6-0.4-7.3-2.9c-2-3.1-4.5-5-8.1-5.4c-0.2,0-0.3-0.1-0.4-0.2
		c-8.8-7.5-16.3-2.2-24,2.3c-2.4,1.4-5.2,2-7.6,3.3c-1.9,1-3.6,2.5-5.2,3.9c-4.7,4.2-9,8.4-16.5,6.2c-2.3-0.7-5.8,1.5-8.5,2.9
		c-3.3,1.7-6.2,4.3-9.6,5.7c-4.3,1.7-6.8,4.3-6.7,9c0,3.6-1.5,5.4-5,6.8c-5.4,2.3-10.4,5.4-15.4,8.5c-6.4,3.9-12.4,2.8-18.1-1.2
		c-3.4-2.3-6.7-4.2-11.3-4.1c-4.7,0.1-6,2.2-6.3,6.2c-0.4,4.5-2,8.4-7.3,9c-1.4,0.2-3-0.1-4.4-0.4c-1.8-0.5-3.5-1.3-6.3-2.4
		c1.3,3.1,2.1,5.1,3.1,7.1c2.3,4.5,0.3,7.8-3.2,10.2c-7,5-14,10.1-21.4,14.4c-4.7,2.7-10.1,4.1-15.2,6c-1.4,0.5-2.7,1-4.1,1.4
		c3.5,9.1,3.3,9.5-4.9,14.3c9.7,1.5,4.5,7.6,3.6,11.6c-1,4.3,0.1,6.7,3.6,8.7c0.5,0.3,0.9,1,1.3,1.5c-4.1,1.4-9.3-2.4-8.6-6.2
		c0.7-3.6,1.6-7.2,2.4-10.9c-5.9-3.5-6.7-3.4-10.4,2.1c-6.6,9.6-14.1,18.1-25.9,21.6c-10.6,3.2-15.2-0.3-17.1-12.2
		c-0.4-2.7-0.1-5.6-1.2-9.4c-1.9,1.9-4.1,3.6-5.8,5.7c-1.3,1.6-2,3.8-3,5.6c-5.6,9.8-15.3,8.5-23.1,1c-2.1-2-3.8-4.4-5.4-6.4
		c-3.8,2.4-7.4,4.6-10.9,6.9c-0.5,0.3-1.3,0.9-1.3,1.4c-1,8.1-7.5,12.9-11.8,18.9c-5.6,7.8-7.7,16.3-9.5,25.3
		c-0.3,1.4-0.5,3.1-1.4,4.1c-5.6,6.2-11.5,12.2-17.2,18.3c-2.8,3.1-6.4,3.8-10,2.5c-3.4-1.2-4.4,0.4-5.5,2.9
		c-2.9,6.2-6.4,12.2-13.7,13.6c-3.3,0.6-7-0.2-10.3-1.1c-8.9-2.4-17.8-5.1-26.6-7.9c-3.2-1-6.5-2.1-9.1-4.1c-3.4-2.7-7-2.1-10.7-1.9
		c-4.4,0.3-8.8,0.9-13.7,1.4c1,1.6,1.6,3.6,3,4.8c3.3,2.8,3.6,6.4,1.9,9.7c-2.5,4.9-5,10.1-8.7,14.1c-7.3,8.2-13.3,7-18-2.7
		c-2.7-5.4-8.9-8.4-15.1-7c0,1.9,0.3,3.9-0.1,5.8c-0.4,1.7-1.1,4.2-2.4,4.8c-5.7,2.9-6,8.3-7.7,13.3c-1.6,5-4.4,9.6-7,14.2
		c-1.7,3-4.3,2.8-7.3,1.3c-9.7-4.8-9.9-4.8-14.4,4.8c-2.4,5.1-4.1,10.6-6.3,15.8c-0.4,1-1.9,1.6-3.7,3c1.5-11.3,6.8-19.4,11.6-27.8
		c1.8-3.2,4.4-3.5,7.4-2c2.9,1.4,5.9,2.9,8.8,4.3c6.7-3.9,7.6-10.8,8.9-17.3c0.9-4.5,2.4-8,6.5-10.9c2-1.4,2.4-5.1,3.7-8.2
		c-9.2-1.3-16.9-0.8-23.5,3.8c-6.7,4.7-13,3.6-19.5,0.1c-3.1-1.7-10,1.5-9.9,4.9c0.3,10.3-6.5,17.2-11.8,24.7
		c-2.9,4.1-6.1,8.2-9.8,11.6c-5.7,5.2-12.7,5.4-19.8,3.5c-1.2,4.8-2.1,9.6-3.6,14.2c-0.5,1.6-2.3,3.2-4,4
		c-6.2,2.8-10.5,6.6-10.3,14.2c0.1,2.5-1.4,5.5-3,7.6c-3.2,4.4-3.6,9.3-3.8,14.4c0,0.5,0,1,0,1.5c0.5,16.6-5,19.3-20.5,18.9
		c-7.6-0.2-12.5-8.7-9.5-15.8c0.7-1.8,1.3-3.6,1.8-4.9c-4.4,2.2-8.9,5-13.8,6.7c-6.2,2.1-12.7-0.8-15.3-6.9
		c-2.5-5.9-4.1-12.2-6.3-18.8c-7.5-0.9-7.1-0.7-9.8,7.1c-1.4,4-4.4,7.6-7.4,10.7c-1.9,2-5.4,2.5-7.8-0.1c-2.9-3.3-6-4.2-10.5-3.1
		c-3,0.7-6.8,0-9.7-1.3c-4.9-2.3-9.4-1.7-13.8,0.5c-6.3,3.1-12.4,2.2-18.6,0.1c-0.9-0.3-1.9-0.4-3.2-0.6
		c-3.2,8.2-9.3,11.5-18.2,10.7c-4.4-0.4-6.9,3.2-8.4,7.1c-1.1,2.7-1.9,5.7-3.7,7.8c-7.5,8.9-18.8,9-27.2,0.5c-1.4-1.4-2.7-3-4.1-4.7
		c-2.9,1.7-5.3,3.1-8.1,4.7c1,2.3,2,4.5,2.9,6.8c1.7,4,4.1,5.2,8.8,5c4.9-0.2,10,2.4,14.9,3.9c0.5,0.2,1.2,0.9,1.3,1.4
		c0.7,7.3,7,8.7,11.9,11.7c5.3,3.3,10.4,6.7,11.8,13.5c1,5-6.1,12.6-10.8,10.9c-4.8-1.8-7.7-0.4-11,3c-9.7,9.8-21.9,8.9-30.3-1.8
		c-4.3-5.5-8.3-5.4-12.5,0.6c-2.2,3.2-7.7,3.8-8.6,0.7c-3.2-11.1-14-13.3-21.2-19.6c-4.6-4-8.7-8.6-13.2-12.9
		c-3.7-3.5-7-7.9-11.4-10.2c-7.1-3.7-11.2-9.6-15.7-15.7c-3-4.1-7.1-7.7-11.3-10.7c-4.4-3.2-7.7-6.6-9.2-12.1
		c-2.3-8.4-5.6-16.6-8.2-24.9c-1.6-5.2-4.6-8.5-9.8-10.6c-2.8-1.1-4.9-4.2-7.2-6.5c-1-1-1.9-2.1-2-2.2c-6.6,4.4-12.6,8.4-18.6,12.4
		c-0.8,0.5-1.9,0.8-2.5,1.5c-5.6,6.9-13,11.3-20.9,15.1c-3,1.5-5.7,4.5-7.5,7.5c-2.1,3.6-5,4.8-8.5,4.6c-3.4-0.1-5.1,1.2-6.8,4.1
		c-1.9,3.2-4.7,5.9-7.4,8.6c-1.1,1.1-2.8,2-4.3,2c-6,0-12.1-0.1-18.1-0.6c-11.8-1-11.8-1.1-14,10.6c0.9-0.9,1.7-1.7,2.6-2.6
		c2.9,4.4,5.7,8.9,8.6,13.2c2.1,3.1,4.8,3.6,8.4,2.3c3.9-1.4,8.1-2,13.2-3.1c-7.2,5.4-13.3,10.5-19.9,14.6c-1.2,0.8-5.4-1.7-7.1-3.6
		c-4.1-4.7-8-9.3-13.6-12.4c-3.1-1.7-5-4.6-3-8.8c1.1-2.4,0.8-5.5,1.3-8.2c1.7-8.3,1.8-8.4-5.6-13.2c-6-3.8-11.1-7.9-10.8-16.2
		c0.1-1.5-3.4-3.6-5.6-4.5c-6.1-2.6-8.2-5.1-8.1-11.3c0.1-5.3-2.2-9.5-5.8-13.1c-3.8-3.8-6.8-7.9-7.3-13.5c-0.3-2.6-1.8-4.1-4.8-2.8
		c-12.5,5.2-25.1,10-37.4,15.6c-4.9,2.3-9.3,6-13.5,9.6c-8.4,7.1-17.7,12-28.7,13.5c-1.4,0.2-3.1,0.5-4.1,1.4
		c-5.2,4.4-11.9,4.8-17.9,7.2c-5.1,2.1-9.4,6.3-14,9.5c-5.7,4-12.2,4.5-18.8,3.6c-2.7-0.4-4.7-2.4-4.7-6c0-6,1.6-11.6,2.6-17.3
		c1.3-7.1,3.4-13.6,6.7-19.8c5.3-9.8,10.9-19.1,22.9-22.9c7.7-2.4,10.9-9.9,13.1-17.3c0.2-0.6-0.2-1.3-0.4-2
		c-1.1,0.5-2.3,0.9-3.2,1.6c-3.3,2.8-6.3,6.1-9.9,8.5c-1.6,1.1-4.2,0.7-6.4,0.6c-3.1-0.2-6.2-1.2-9.2-1c-4.7,0.3-7.4-1.9-9.4-5.7
		c-1.9-3.8-3.5-6.6-9.2-4c-4.3,2-10.1,1.9-15,1.3c-2.3-0.3-5.8-3.5-6.2-5.9c-1.2-6.3-2.3-13.1-1-19.2c1.9-8.7,2.5-14.6-8.2-17.5
		c-4.8-1.3-7.2-7-6.1-12.9c0.2-1.2,0.4-3.1-0.2-3.6c-4.2-3.5-2.7-7.6-1.8-11.8c0.6-2.9,1.2-5.9,0.9-8.8c-0.5-6.1,1.9-11.3,6.8-13.9
		c6.4-3.3,8.4-8.4,8.9-14.6c1-11.4,8.4-16.7,19.6-20.7c-3-2.3-5.3-4-7.6-5.8c-5.7-4.3-11.8-8.2-16.8-13.2c-1.7-1.7-1.3-6.5-0.3-9.5
		c1.3-4-0.7-6.2-3.4-7.1c-4.2-1.4-6.1-4.2-8.5-7.5c-2.1-3-5.7-4.9-8.7-7.2c-0.7-0.6-2.3-0.3-2.7-1c-3.4-5.1-6.3-10.2-12.2-13.4
		c-2.7-1.4-0.8-5.8,2.5-7.2c2.2-1,4.3-2.3,6.4-3.4c-1.8-2.9-3.1-6.6-5.6-8.6c-3.8-2.9-8.6-4.5-12.7-6.9c-1.7-1-3.7-2.5-4.4-4.3
		c-3.7-9.3-10.5-15.9-18.2-21.8c-5.4-4.2-9.7-9.1-10.1-16.6c-0.1-1.4-2.3-3.5-3.8-3.7c-4.6-0.8-8.4-4.3-9.1-8.9
		c-0.7-4.5-2.1-8.8-2.6-13.3c-0.3-2.7,0.6-5.5,0.6-8.2c0.1-6.9-0.3-13.8,0.1-20.6c0.5-7.1-1-13.7-4.1-20c-0.7-1.3-1.6-2.7-1.6-4.1
		c0.1-5.5-3.8-7.5-7.7-9.7c-7.5-4.3-9.1-9.3-5.3-16.9c0.7-1.4,1.1-3.4,0.6-4.8c-2.2-6.6,0-11.5,5-15.7c1-0.9,2-1.7,3.3-2.8
		c-5.5-15.2-10.8-30.1-16.3-45c-0.4-1.1-1.9-2.1-3.1-2.6c-6.8-2.8-10.2-8-12.2-15c-1-3.4-4.1-6.4-6.8-9c-6.3-6.1-6-15-9.9-22
		c-3.1-5.6-4-11.5-4.3-17.9c-0.2-3.7-3-7.4-5-10.9c-2.9-5.2-6.9-9.7-4.9-16.6c1.2-4.2,4.2-5.7,7.6-6.7c5.6-1.6,11.4-2.5,17-4.4
		c3.8-1.2,7.1-3.9,10.8-5.3c5.1-1.8,10.5-3.2,15.8-4.4c10.6-2.5,21.2-4.7,31.8-7.1C1192.5,1026.8,1193.1,1026.1,1193.5,1025.9z
		 M2021.5,901.1c7.7-0.2,13.9,0.3,20.3,4.5c8.3,5.6,15.9,11.7,21.1,20.1c4,6.4,6.8,13.7,9.2,21c3.4,10.6,9.8,21.2,2.3,32.7
		c-0.5,0.8,0.8,3.8,2,4.4c3.5,1.7,6.3,3.8,7.5,7.8c0.6,2.2,1.4,4.4,2.6,6.3c0.7,1,3,2.2,3.6,1.8c5.1-3.2,11.2-5.2,13.8-11.5
		c1.6-4,3.3-8,8-9.9c5.3-2.1,10.5-4.6,15.3-7.6c3.3-2.1,6.8-4.9,8.5-8.2c3.3-6.5,7.1-11.1,14.9-11.4c5.5-0.2,12.1-1.2,15.3,3.1
		c5.2,7,13.5,8.3,19.8,13c1.1,0.8,3.7,0.1,5.4-0.4c3.3-0.8,6.5-1.8,9.7-2.9c2.6-0.9,5.4-1.6,7.5-3.3c6.1-4.8,12.5-5.3,19.8-3.6
		c3.8,0.9,8.1,1.6,11.8,0.8c7.7-1.6,13.9-0.2,19,5.8c0.4,0.4,1,0.7,1.5,1c4-9.7,0.6-13.9-6.5-19c-6.2-4.4-11.5-9.4-12.6-17.5
		c-0.3-2.2-0.9-4.5-1.6-6.7c-1.6-5.5-2.5-12-8.9-13.6c-6.6-1.6-8.8-5.8-10.1-11.4c-0.5-2.1-1.8-4.1-1.7-6c0.2-5.3-3.3-7.3-7.2-8.7
		c-7.3-2.7-10.6-7.6-10-15.4c0.6-8.2-2.3-15-8-20.9c-1.4-1.4-2.1-3.6-3-5.5c-3.8-8.6-7.6-17.2-11.4-25.8c-2.3-5.2-4.6-10.3-6.8-15.6
		c-1.1-2.7-1.5-5.9-3.2-8.1c-5.4-7.3-11.4-14.2-16.9-21.3c-1.8-2.4-3.6-5-4.6-7.8c-1.7-4.7-1.9-10-4.3-14.2
		c-2.2-3.8-3.4-6.8-1.8-10.9c0.7-1.8,1-3.8,1-5.8c0.1-10,0.3-20-0.1-30c-0.1-3.8-0.2-8.9-2.5-11.1c-6.2-5.9-6.4-14.5-11.4-20.7
		c-1.5,1.3-3.2,3-5,4.3c-4.1,2.8-6.7,6.2-6,11.5c1,8.2-5.7,14.5-15.3,12.1c-11.7-2.9-23.7-4.4-35.6-6.6c-3.4-0.6-6.4-1.8-6.2-6.2
		c0-1-0.9-2.2-1.7-3c-4.6-4.1-4.8-8.3-0.5-13c1.2-1.3,3.1-2.8,3.1-4.2c-0.1-7.5,5.7-9.6,10.8-12.5c1.3-0.7,2.9-2,3.4-3.3
		c2.3-6.9,6.6-11.5,13.5-13.2c0-3.8,0-7.5,0-11.3c-7.6-4.1-12.1-20.4-9-33c-5.9-1.3-8.1-5.2-6.6-11.1c0.3-1.3,0.5-3.1-0.2-4
		c-4-5.6-7.3-12.2-12.6-16.1c-5.3-3.9-8.6-8-9.6-14.3c-8.7,1.3-14.4,5.7-17.6,13.5c-1.7,4.2-5,7.6-9.5,7.4c-5-0.3-9.5-2.4-12.6-7.3
		c-3.3-5.2-0.1-9.3,1.2-13.8c-4.2-4.8-11.6-7.7-15.1-5.5c-2.5,1.6-5.6,3.8-6.3,6.4c-0.9,3,0.3,6.7,0.6,10.1c2.8-0.4,5.2-0.7,7.6-1
		c6.1-0.9,10.3,2.1,9.4,7c-0.3,1.8-0.3,3.7,0,5.5c0.3,1.7,0.6,3.8,1.8,4.9c4.4,4.2,9.7,7.5,13.7,12.1c6.5,7.4,10.8,15.6,8.7,26.3
		c-2.5,12.4-2.1,12.5,8,20.2c0.3,0.2,0.5,0.5,0.7,0.7c4.7,3.8,5.6,7,2.8,12.3c-1.5,2.9-1.6,5.2-0.3,8.3c4.9,11.5,1.6,28.3-14.2,32.2
		c-6.9,1.7-13.5,4.6-20.3,6.9c-4,1.4-8,3.8-12,3.7c-8.1-0.3-16.2-1.9-24.3-3c-12.9-1.9-25.9-3.9-38.8-5.6c-1.4-0.2-4.2,1.4-4.4,2.5
		c-1.2,6.4-5.2,10.6-9.9,14.6c-2.7,2.3-5,3.4-8.4,2.2c-4.2-1.4-6.5-4.4-6.9-8.6c-0.5-5-1.1-5.5-6.1-4.5c-1.7,0.3-4.5,0.3-5.4-0.8
		c-3.2-4.1-7.4-3.5-11.7-3.7c-8.3-0.3-12.5-6-10.4-13.8c0.9-3.3,1.4-6.7,2.7-9.9c3.4-8.2,0.3-15-4.6-21.1c-2.5-3.1-3.4-6-3.6-9.8
		c-0.2-3.2-1.3-6.6-2.7-9.5c-1.3-2.8-3.5-5.1-5.1-7.7c-2.6-4.3-7.2-6.4-11.3-5.5c-0.9,3.9-2,7.5-2.6,11.1c-0.4,2.5-0.8,5.4,0.1,7.5
		c3,7.1,1.9,14.1,0.2,19.9c6.4,6.3,12.3,12.1,18.1,18c0.8,0.8,1.2,2.3,1.3,3.5c0.5,6.7-1.7,9.8-8.4,12.5c-7.3,3-14.1,7.8-22.7,5.1
		c-1-0.3-2.8,1.7-4.2,2.5c-3,1.8-5.9,4.3-9.2,5c-6.1,1.4-11,4.2-14.4,9.3c-4.5,6.8-8.2,7.6-14.9,2.6c-3.5-2.6-7-6.8-10.9-7.3
		c-6.8-0.9-10.3-4.4-11-10.5c-1.3-11.4-8.4-19-16.6-25.2c-4.9-3.7-7.7-7.3-7.9-14.1c-6.7,5.7-12.6,10.9-18.8,15.7
		c-2.6,2.1-6.3,2.9-8.7,5.2c-3.9,3.7-7.2,8.1-10.6,12.3c-1.1,1.4-2.7,3.1-2.5,4.6c0.7,9.2-3.2,16.5-9.2,22.9
		c-5.4,5.7-10.6,11.6-16.1,17.3c-5.5,5.6-12.9,5-19.8,5.3c-5.9,0.2-11.9-0.5-17.8-0.9c-3.9-0.3-4.3-3.1-4.5-6.2
		c-0.3-3.8-1.2-7.6-1.5-11.5c-0.2-2.6-0.3-5.4,0.2-8c0.7-3.8,2.6-7.5,2.8-11.3c0.1-2.3-1.7-6.4-3.2-6.7c-8-1.6-16.4-4-24.2-2.9
		c-13.7,1.9-25.3-0.9-36.9-7.9c-8.1-4.9-12.5-10.8-10.9-20.5c0.8-4.9-1.2-8.7-5-11.7c-3.1-2.4-4.3-5.6-4.1-9.6c0.3-4,0.2-8,0-12
		c-0.1-1.3-1.2-3.5-2.1-3.7c-6.5-1.3-13.5-4-19.6-2.7c-7.6,1.5-12-1.9-17.2-5.5c-6.1-4.2-12.4-8.2-18.7-12.1
		c-0.9-0.6-2.6-0.1-3.8,0.2c-4.3,1.1-8.4,2.1-12.4-1.4c-2.4-2.2-5.1-4.6-9.2-3.2c-4.7,1.7-9.6,2.9-15.2,4.5c0,2.5,0.7,5.7-0.2,8.4
		c-0.9,2.9-2.9,5.8-5.2,7.6c-2.9,2.2-6.4,1.1-8.9-1.4c-2.3-2.3-4.1-5-6.3-7.4c-0.6-0.7-1.9-1.2-2.8-1.1c-11.6,0.9-23.2,2-34.9,2.9
		c-4.4,0.3-5.8,2.4-3.1,6c1.8,2.4,4.6,4.1,7.2,5.7c4.2,2.7,6.4,6.2,6.7,11.2c0.6,9.4-4.4,16.6-9.3,23.7c-3.1,4.6-2.5,15.7,2.4,18.8
		c8.3,5.4,11.6,12.8,10.9,22.4c-0.3,4.1-0.9,8.2-0.9,12.3c0,2.8,1.6,5.9,0.7,8.2c-2.2,6.3,1.3,11,3.3,16.3c1.1,3,1.4,6.6,1.1,9.8
		c-0.8,8.5-3,16.9-2.9,25.3c0.1,10.1-3.6,18.1-9.8,25.5c-1.6,1.9-2.5,4.5-3.4,6.9c-1.1,3-2.3,6.2-2.7,9.3c-0.5,3.4-1.2,7.3-0.1,10.4
		c1.3,3.7,4.3,6.9,6.9,10.2c3.7,4.7,7.5,9.3,11.4,13.8c0.7,0.8,2,1.1,3.1,1.3c4.7,0.8,7.1,4,10,7.6c6.6,8.3,8.7,18.1,10.3,27.9
		c0.7,3.9,1.5,6.9,5.1,8.7c3,1.5,3.6,3.7,3.7,7c0,2.5,1.1,5.6,2.8,7.3c4.4,4.4,9.2,8.5,14.2,12.2c3.3,2.4,5.5,4.9,5.6,9.2
		c0,1.6,0.9,3.7,2.1,4.7c3.5,2.9,7.2,5.3,8.9,9.8c0.3,0.9,2.5,1.1,3.8,1.6c3.9,1.6,9.6,1,9.4,7.7c0,0.6,1,1.2,1.7,1.8
		c2.4,2.1,4.8,4.2,7.2,6.3c1.8,1.5,3.5,3.8,5.5,4c10.6,1.2,15.9,12.1,26.1,13.7c0.1,0,0.2,0.2,0.3,0.3c4.7,5.5,9,11.1,10.8,18.3
		c1.8,7.6,6.3,10.8,14.3,10.1c3.7-0.3,8.4,5.4,7.6,9.1c-1.4,5.9-8.2,9.8-14.5,9c-1.6-0.2-3.5,1.1-5,2c-1.7,1-3.3,3.2-4.9,3.3
		c-3,0.1-6.1-0.8-8.9-1.9c-3.4-1.3-5.4-0.6-6.5,2.8c-1,2.8-1.3,6.2-3,8.3c-4.1,5-8.8,4.3-12.7-1.1c-1.9-2.7-3.9-5.4-6.2-8.6
		c-1.1,1.7-1.5,2.6-2.2,3.2c-3.1,3.2-2.7,12-11,6.8c-0.4-0.3-1.5,0.4-2.3,0.7c-2.4,1-4.8,2-7.2,3.1c-4.2,1.9-8,2.7-11.8-1.4
		c-1.5-1.6-6-2.7-7.3-1.7c-4.5,3.3-8.3,7.5-12,11.8c-2,2.3-3.4,4.1-6.8,2.8c-4.1-1.6-8.3-2.7-13.1-4.3c-2.8,3.5-6,7.8-9.6,11.7
		c-7.7,8.1-18.5,8.4-27.5,1.6c-2.2-1.7-6.2-2.8-8.8-2c-4.7,1.4-8.3,0.3-12.1-2.2c-3.2-2.2-5.5-0.8-6.5,3c-0.7,2.6-2.4,4.8-3.6,7.3
		c-0.9,1.8-1.8,3.7-2.2,5.6c-0.4,1.7,0.1,3.7-0.3,5.5c-2,10.1-0.7,19.8,3.1,29.3c2.3,5.8,5.3,11.8,0.9,18.2c-0.7,1-0.3,2.8-0.2,4.2
		c0.4,2.7,1.5,5.5,1.3,8.1c-0.3,5.7-0.3,11,1.9,16.6c5.3,13.2,10.3,25.8,22.2,35.4c11,9,22.2,6.9,34,5.7c6.3-0.6,11.3-5.9,18.1-5
		c3.4,0.5,6.8,0.4,9.5-2.7c1.4-1.6,3.9-3,5.9-3c4.4-0.1,6.6-2.5,7.8-6.2c1.1-3.2,2-6.5,2.5-9.9c0.7-5,1.1-10.1,1.6-15.7
		c24.5,11.5,47.6,22.3,71.1,33.3c1.3-3.1,3.2-5.4,3-7.5c-0.8-7,3.4-10.6,8-14.7c3.7-3.4,6.6-4.2,10.7-1.5c1.9,1.2,4,2.2,6.2,3
		c1.1,0.4,2.6,0.7,3.6,0.3c15.4-7.5,30.7-15.1,46-22.8c7.5-3.8,14.8-7.8,22.4-11.7c0.6,1.1,0.8,1.9,1.3,2.4
		c15.6,16,31.1,32.1,47,47.8c2.6,2.5,6.7,4.2,10.4,4.9c7.1,1.3,14.3,1.7,21.7,2.5c1.4,9.2,2.8,18.3,4.2,27.7c3,0,5.5,0.1,7.9,0
		c11-0.6,22.1-1.5,33.1-1.9c5.1-0.1,8.8-1.6,11.5-6c2-3.2,4.7-5.1,9.1-3.2c8.3,3.5,16.8,6.2,25.1,9.6c6,2.5,11.7,5.6,17.6,8.5
		c4,2,8,4.1,12.1,6.1c1.5,0.7,3.4,0.9,4.4,1.9c4.2,4,6.4,5.1,11.8-0.3c9.3-9.3,20.8-16.3,31.5-24.2c1.5-1.1,3.5-1.5,4.9-2
		c8.3,3.6,18.6,8.1,29.2,12.6c-1.2,2.5-2.1,4.9-3.4,7.2c-3.7,6.5-2.3,9.4,5,10.8c7.1,1.3,13.8,3.4,18.2,10.2c1.5,2.3,5.1,3.1,7.4,5
		c2.7,2.1,6.1,4.3,7.2,7.2c1.5,3.8,1.1,8.4,1.3,12.7c0.2,3.6,0,7.1,0,10.7c0.5,0.2,0.9,0.4,1.4,0.6c1.9-2.3,3.9-4.4,5.7-6.8
		c2.1-2.7,3.7-5.6,7.9-5.8c2.5-0.1,4.2-1.8,4.2-5.1c0-2.2,1.4-4.5,2.4-6.7c0.6-1.3,2.2-2.5,2.2-3.7c-0.1-6.3,3.8-9.1,8.7-11.6
		c1.2-0.6,2.3-3.5,1.8-4.6c-4.4-9.7-2.5-12.8,7.9-13.1c12.5-0.4,24.9-0.8,37.2,2c3,0.7,6.1,1,9.2,1.3c5.3,0.4,10.6,0.6,15.9,1
		c1.8,0.2,4.5,0.3,5.1,1.4c0.7,1.2,0,4-1.1,5.2c-2.2,2.4-5.1,4.1-7.6,6.2c-1.8,1.6-4.5,3.7-1.3,5.8c9,5.8,9.7,16.9,16,24.4
		c0.6,0.7,0.2,2.2,0.2,3.3c0.1,7-0.9,14.3,0.7,21c2.9,12.1,16.1,21.1,28.6,21.6c2.5,0.1,5.2,2,7.2,3.8c3,2.7,5.3,6,8,9
		c0.5-0.1,1-0.3,1.4-0.4c0.2-2.6,1.6-6.1,0.5-7.6c-4.2-5.2-6.8-9.8-4.3-17.1c3.4-10.1,5.1-20.8,8-31.1c2-7,5-14,2.1-21
		c-2.5-6-1.8-11,0.9-16.4c0.5-1.1,0.1-2.6,0.3-3.9c0.8-4.2,1-8.5,2.6-12.4c3.1-7.8,1.7-15.2-2.1-21.7c-5.6-9.8-13-18.3-23-24.2
		c-4-2.4-5.2-6.2-4.3-10.6c0.8-4.1,2.3-8.2,3.1-12.3c2.3-12.4,3.5-17.8-9.6-25.5c-1.4-0.8-2-3.2-2.6-5c-0.4-1.5-0.2-3.1-0.3-4.8
		c-7.1,1.5-7.2,2.2-5.8,8.5c0.8,3.5,0.9,7.5-0.2,10.8c-1.2,3.7-3.9,7-6.2,10.3c-0.9,1.3-2.3,2.6-3.8,3.3c-4.5,2.1-9.4,3.6-12.9,7.4
		c-0.4,0.5-1.8,0.4-2.7,0.2c-3.7-0.9-8.6-0.9-10.8-3.3c-2.4-2.6-2.3-7.5-3.5-11.3c-1.5-4.7-3-9.5-5.1-14c-1.1-2.4-2.3-5.1-6.8-4.2
		c-7.4,1.4-18.3-9-17.8-16.8c0.4-5.7-2-9.8-4.9-13.9c-4.1-5.9-5.5-13.5-12.2-18c-3.9-2.7-4.4-8.6-9.5-11.2c-2.1-1.1-3.1-5.1-3.6-8
		c-1-6.8-1.5-13.7-2.1-20.6c-0.5-6.1-1-12.2-0.9-18.3c0-3.2,1.7-6.4,1.8-9.6c0.1-5.9-0.7-11.9-0.8-17.8c0-2.7-0.6-4.3-3.3-5.7
		c-4.5-2.2-7.3-5.6-6.9-11.3c0.2-2.3-1.4-4.6-2-7c-0.7-3.1-2.4-6.6-1.7-9.4c1.7-6.9,0.8-12.3-5.7-16.8c2-1.9,4.2-3.2,5.1-5
		c1-2,0.7-4.5,1.1-7.5c13.8-5.5,28.1-11.3,42.5-16.9c7.9-3.1,8.5-2.4,8.8,5.9c0.1,3.1,1.1,6.1,1.8,9.6c1.7-0.8,2.5-1.1,3.1-1.5
		c0.8-0.5,1.4-1.2,1.8-1.5C2026.3,916.6,2024,909.1,2021.5,901.1z M2376.3,1030.3c-3.5,10.6-3.7,20.9-10.8,28.8
		c-1.1,1.2-1.3,3.3-1.5,5.1c-0.5,4.7-0.5,9.5-1.1,14.3c-0.3,2.5-0.8,5.7-2.4,7.1c-4.2,3.8-6.9,8-7.6,13.6c-0.3,2.2-1,4.5-1.9,6.5
		c-3.5,7.3-3.6,14.7-2.2,22.6c0.8,4.3,2,7.9,5.6,10.5c5.5,4,6.4,6.9,5.2,13.4c-0.4,2,0.4,5.2,1.9,6.5c4.3,3.7,9.1,6.9,13.9,10.1
		c3.9,2.5,7.8,2.6,12.6,1.2c8.8-2.6,18-5,27.1,0c1.4,0.8,4,0.9,5.4,0.2c7.7-4.1,15.3-8.6,24.1-13.6c1.1,1.7,2.9,4.4,5,7.5
		c1.9,0.3,4.5,0.9,7.1,1c10.1,0.6,11.2,1.6,11.4,11.7c0.2,5.9,6.5,15.6,11.8,16.5c3.5,0.6,7.3-0.3,10.8-1.1
		c6.6-1.5,13.1-3.2,18.5,3.5c1.4-2.6,2.5-4.8,3.6-6.9c-0.4,0.1-0.8,0.3-1.2,0.4c-2.2-6.4-4.4-12.7-6.7-19c-0.4-1.2-1-2.7-1.9-3.4
		c-4-2.9-3.2-7-2.7-10.9c0.3-2.9,1.5-5.6,2.1-8.5c1.7-8.4,2.7-16.8-2.3-24.7c-1.3-2.1-1.5-4.9-2-7.4c-0.7-3.3-1.3-6.7-2-10
		c-0.3-1.6-1.4-3.4-0.9-4.7c2.6-7.5,4.3-15.5,13-19.1c6.5-2.7,6.9-6.1,2.4-11.3c-3.7-4.2-7.3-8.5-10.8-12.8c-2.6-3.2-4.9-6.6-7.3-10
		c0.3-0.4,0.6-0.9,0.9-1.3c2,0.3,4.1,0.4,6.1,0.8c4.5,0.9,8.4-0.1,11.6-3.5c2.6-2.8,5.2-5.7,8.1-8.2c5-4.3,10.7-7.4,13-14.6
		c2.2-6.7,5.3-13.5,9.6-19c2.9-3.7,4.2-7.3,5.5-11.4c1.8-5.8,3.3-11.9,6.2-17.2c2.1-3.9,6.2-6.6,9.3-9.9c2.6-2.8,1.8-5.3-0.8-7.7
		c-2-1.9-4.5-3.7-5.5-6c-2.2-5-3.3-10.5-5.5-15.6c-1.8-4.3,0-6.6,3.2-8.6c3.9-2.5,5.6-6.2,5-10.5c-0.9-6.1-1.3-11.9-0.1-18.2
		c1.6-8.8,1.3-18,2.4-27c0.3-2.1,2.2-5,4.2-5.8c4.9-2,10.3-3.1,15.4-4.6c3.4-1,7.9-1.2,9.9-3.4c7.3-8.3,15.5-7.9,24.8-4.6
		c4.7,1.6,9.8,2.6,14.8,3c5.7,0.5,6.6,1.1,6.8,7.2c0.1,4.3,0.5,8.5,1,12.8c0.1,1.1,1.2,2.1,1.8,3.1c0.9-0.7,2.1-1.3,2.7-2.2
		c1.6-2.7,2.8-5.5,4.3-8.3c4.8-8.6,13-11.7,21.8-8.2c1.2,0.5,2.5,0.5,3.8,0.8c5.8,1.1,10.4-2.5,15.5-3.8c3.1-0.8,4.3-2.7,4.9-5.2
		c1.3-5.6,2.4-11.3,3.5-17.2c-1.8-0.8-3.8-1.3-5.4-2.3c-7-4.4-14-8.9-21-13.5c-3.6-2.4-7.6-4.6-10.2-7.9c-2.8-3.6-4.1-8.4-6.1-12.6
		c-2.5-5.6-6.2-9.7-12.6-10.9c-2.3-0.5-4.9-1.3-6.7-2.9c-4.3-3.8-8.6-3.8-13.9-2.2c-7.8,2.3-15.8,3.6-23.7,5.5
		c-3.7,0.9-7.6,1.7-10.9,3.6c-3.8,2.2-7.1,5.3-10.4,8.3c-3.2,2.9-6.1,6.2-9.3,9.1c-3.2,2.9-6.2,2.7-7.5-0.7c-1.1-2.8-1.9-6-1.7-9
		c0.7-10,2.1-20,2.7-30c0.5-7.7,5.1-15.4,12.4-17.8c6.2-2.1,10.3-6.3,13.8-11.6c3.7-5.5,7.7-11,11.9-16.2c2-2.4,4.7-4.2,8.1-1.3
		c0.9,0.8,3.4,1,4.2,0.3c6-5.4,13.8-5.6,21-7.3c21.4-5,42.9-9.7,64.3-14.4c16.7-3.7,33.4-7.3,50.1-11.1c0.8-0.2,1.7-1,2.2-1.7
		c1.8-2.5,3.5-5,5.2-7.5c1-0.8,1-2.2,0.9-3.5c-0.5-8.8,3.7-14.5,11.5-18.1c5.9-2.7,12-4.9,16-10.8c1.2-1.8,4.4-2.8,6.8-3.2
		c6.8-1.1,13.6-1.7,20-2.5c3.9-5.5,0-10-1.9-14.3c-1.7-4-4.5-8.4-10.7-5.5c-1.4,0.6-4-0.1-5.5-1.1c-9.8-7.1-19.4-14.5-29.2-21.6
		c-4.4-3.2-5-5.8-1.2-9.4c8.2-7.7,16.4-15.3,24.9-22.8c2.6-2.3,5.5-2.9,8.8,0c2.6,2.3,6.2,3.5,9.1,5.5c5.8,3.8,11.4,8,17.4,11.6
		c2.5,1.5,6,3.3,8.3,2.6c4.8-1.5,9.5-4.2,13.6-7.2c4.4-3.2,7.9-7.8,12.3-11c5.5-4,11.5-7.3,17.2-10.9c-13.2-19.3-13.1-19.4-13.7-34
		c-0.4-12-1.2-24.1-2-36.1c-0.3-5.5-1-11-1.5-17c-1.6,1.5-3.2,2.7-4.4,4.2c-3.8,4.9-9.2,6.6-15,7.5c-3.7,0.6-7.4,1.2-11.1,1.9
		c-15.4,3-28.2-6.1-34-19.5c-6-13.8-12.4-26.9-27-34.1c-6.4-3.1-6.5-5.4-2.6-11.3c6.9-10.3,13.7-20.6,21-30.7
		c1.3-1.8,5.2-3.8,6.4-3.1c5.2,3,10.3,1.2,15.4,0.6c10-1.2,19-11.4,18.6-21.5c-0.2-5.7-1-11.4-2.3-17c-2.6-11.5-2.9-22.4,5.4-32
		c1-1.2,1.7-2.7,2.9-4.7c-7.5,3.5-14.4,6.6-21.1,9.9c-15.2,7.4-30.3,14.8-45.4,22.3c-2.7,1.3-4.8,1.6-7.1-0.8
		c-1.8-1.9-4.2-3.3-5.9-5.2c-5.5-6.3-10.6-13-16.4-19.1c-5.5-5.8-9.9-11.8-12.4-19.7c-1.9-6.1-5.6-12.4-12.6-13.9
		c-8.2-1.8-13.6-6.4-16.7-13.7c-2.4-5.5-3.5-11.5-5.5-17.1c-0.5-1.4-2.1-3.1-3.3-3.3c-6.4-0.7-12.9-1.1-19.3-1
		c-2.6,0-5.4,0.6-6.5,4.5c-2.3,8.5,0.6,15.1,5.7,21.3c1.5,1.8,3.2,3.4,4.5,5.2c9.5,13.4,11.1,27.7,6.8,43.6c-6.5,23.9-12,48-17.8,72
		c-4.7,19.6-9.3,39.3-14.1,58.9c-1.1,4.8-4,6.5-8.2,4.1c-2.8-1.7-5.2-4.9-6.6-7.9c-3.7-8.3-8.2-10.1-17.8-9.7
		c-2.7,0.1-6.6,1.3-7.8,3.3c-3.7,6.1-9.8,7.9-15.5,10.5c-2.8,1.3-5.2,1.1-7.6-1.1c-3.3-2.9-6.8-5.7-10.3-8.3
		c-5-3.7-10.3-6.5-16.9-6.4c2.4,10.4,4.8,20.3,6.8,30.4c1.1,5.6-2.4,8.5-7.9,6.9c-10.8-3.1-21.5-6.4-32.3-9.5
		c-1.3-0.4-3.7-0.4-4.2,0.3c-1.5,2.3-3,5-3.5,7.7c-1.1,5.8-4,8.4-10.1,9.1c-6,0.7-12.4,1.9-15.7,7.6c-3.9,6.7-6.9,13.9-10.5,20.9
		c-2.8,5.5-5,11.4-11.6,14c-3.1,1.2-6.1,3.3-8.6,5.5c-6.5,5.8-14.7,4.9-19.6-2.4c-1.6-2.4-3.3-4.9-5.1-7.2
		c-3.2-4.1-9.4-5.7-14.4-4.3c-3.8,1-7.8,1.2-11.7,1.9c-2.1,0.3-4.1,0.8-6.2,1.2c-4.3,0.9-8.5,1.9-12.8,2.8c-3.5,0.7-5.4-1.4-6.3-4.3
		c-1.1-3.7-1.9-7.6-2.3-11.5c-0.5-4.4-6.6-10.9-11.2-11.2c-13.6-1.1-27.3-2-40.9-3.1c-5.7-0.5-11.4-1.4-17.1-1.9
		c-5.5-0.4-11-0.6-15.4-0.8c-1.7,4-3,7.3-4.5,10.6c-1.9,4.1-4.1,8-6,12.1c-2,4.2-4.1,8.1-9.1,9.6c-3.9,1.2-8,2.2-11.2,4.5
		c-8.4,6-13.4,3.7-19.2-0.3c-5.8-4-12.2-5.9-19-4.7c-4,0.7-8.1,2.5-9.3,7.4c-0.8,3.3-1.2,7-3.1,9.6c-3.4,4.5-8,8-11.7,12.2
		c-5.6,6.3-12.8,12.2-15.7,19.6c-3.8,9.9-11,13.3-19.8,16.9c0.3,2.1,0.9,4.4,1,6.6c0.2,4.2,1.2,8.8,0,12.6
		c-2.3,6.7-2.7,13.5-2.7,20.4c0,4.8-2.4,8.2-6.5,10.8c-2.6,1.7-5.1,4.3-6.4,7c-3.4,7.2-6,14.8-12.1,20.5c-1.1,1-0.4,4.5,0.2,6.7
		c0.9,2.9,2.5,5.5,3.8,8.2c0.5,1.1,0.8,2.6,1.7,3.3c3.5,3.1,5.2,6.6,5.5,11.6c0.8,14.3,2.1,28.6-0.9,42.9c-0.4,1.7,0.3,4,1.3,5.4
		c2.3,3.3,3.3,6.7,3.7,10.8c0.4,4.1,2.6,8.4,5.1,11.8c4.1,5.6,9.1,10.6,13.7,15.9c5.4,6.2,6.1,14.6,9.7,21.6
		c5.1,10.2,11.4,19.7,14.7,30.7c0.9,3.1,1.8,6.7,3.9,8.8c6.5,6.6,9.2,14.3,8.6,23.2c-0.5,7.4,3.1,10.1,8.6,12.4
		c3.2,1.4,6.3,4.3,8,7.3c2,3.6,2.6,8,3.4,12.2c0.5,3,1.8,4.6,4.7,5.4c6.6,1.9,11,5.9,12.3,13c0.6,3.2,1,6.5,2.2,9.5
		c1.7,4.2,3.1,9.1,6.2,11.8c5.6,4.9,11.5,9.1,14.9,16c1.1,2.2,1.5,3.4,0.3,5.6c-3.3,6.3-2.4,8.9,3.6,13.2c2.2,1.5,5,3.6,5.5,5.8
		c1.6,7.1,2.3,14.5,3.3,21.8c0.4,2.8,0.5,5.6,1,8.3c2.2,10.5,1.6,22,9.8,30.4c1-1.2,2-3.7,3.6-4.3c5.5-1.9,11.2-4.7,17.3-2.6
		c3.9,1.4,6.7,0.4,9.1-2.7c1.2-1.6,2.2-3.3,3.3-4.9c4.9-7.2,17.3-6.6,22,0.8c1.1,1.6,4.2,3.8,5.2,3.3c4.3-2.1,8.4-2,12.8-0.9
		C2366.6,1029,2371.2,1029.5,2376.3,1030.3z M1531.7,1670.7c0.8-1.5,2.4-3.8,3.4-6.3c1.1-2.9,2.5-5.1,6-5.6
		c6.7-0.8,11.2-4.8,16.3-9.2c8-7,18.2-11,26.2-18.5c5.3-5,12.6-7.7,17.6-13.6c4.7-5.6,9.5-4.8,13.8,1.1c1.9,2.6,3.7,6.1,6.3,7.2
		c7.3,2.9,11.8,7.9,14.2,15.1c2.8,8.4,5.7,16.9,8.7,25.3c0.8,2.4,1.7,5.6,3.6,6.5c8,4,13,10.8,18.2,17.7c2.4,3.3,5.6,6.1,8.8,8.8
		c4.9,4.1,11.5,7.1,14.6,12.2c4.4,7.1,10.5,11.4,17,15.7c5.5,3.6,11,7.2,15.6,10.2c5.2-0.1,10.2-1.3,14.4,0.1
		c4,1.4,7.1,5.5,10.7,8.3c1.8,1.4,3.9,3,6,3.3c5.5,0.7,9.2-3.1,12.4-6.8c3.5-4.1,7.3-5.2,12.2-3.3c0.9,0.3,1.9,0,2.9,0
		c0.2-0.3,0.5-0.7,0.7-1c-2.6-1.9-5.2-4.1-8-5.7c-5-3-10.8-5.1-13.5-10.9c-1.7-3.6-4.2-4.6-7.9-4.2c-10.2,0.9-14.6-1.7-18.9-11.3
		c-0.7-1.5-1.4-2.9-1.9-4.5c-2.3-7.2-1.7-10.9,4.3-14.3c1.5-0.9,3.3-2.6,3.5-4.1c0.6-4.6,3.6-5.2,7.2-5.9c3.6-0.7,5,1.3,6.3,3.9
		c0.8,1.6,1.7,3.2,2.6,4.8c2.6,4.7,7.3,7.8,12.1,6.2c2.5-0.8,4.7-4.5,5.9-7.4c3.6-8.8,10.8-13.9,20.4-14.4c2.2-0.1,5.1-1.7,6.5-3.5
		c5.3-6.9,7.3-7.5,15.7-5.5c3.8,0.9,8.2,0.8,11.9-0.2c6.5-1.8,12.7-4.1,19.3-0.5c1.8,1,4.2,1.9,6,1.4c5.9-1.5,11.2-0.7,15.6,2.8
		c2.6-5.2,5.3-10.1,7.6-15.2c0.4-0.8-0.8-2.4-1.4-3.5c-1.4-2.5-3.7-4.7-4.4-7.4c-1.2-4.5-1.5-9.3-1.9-14c-0.2-2.4-0.6-3.5-3.3-4.6
		c-12.4-5-24.7-10.3-36.8-15.9c-2.4-1.1-5.1-4.4-5.2-6.8c-0.2-5.2-0.8-10.7,2.9-15.4c1.7-2.1,2.9-4.6,4.4-7.2
		c-3.3-1-6.4-1.4-8.8-2.9c-2.9-1.9-5.7-4.6-7.6-7.5c-1.6-2.5-1.9-5.8,1.6-8c3.3-2.1,5.4-0.8,7.8,1.4c1.2,1.1,3.2,1.3,4.9,2
		c0.4-2.1,1.5-4.3,0.9-6.1c-1.2-4.2-3.3-8-4.8-12.1c-0.5-1.3-0.7-3.5,0-4.4c3.3-3.7,1.4-5-2-6.9c-2.9-1.6-5.2-4.3-7.8-6.5
		c6.6-7.2,6.6-7.2,3.5-16.8c-1.7-5.3,5.5-15.6,11.1-15.6c0.9,0,1.9,0.5,2.7,0.9c7.9,3.5,7.9,3.5,11.5-4.6c0.9-1.9,2.3-3.8,2.4-5.8
		c0.2-2.8,0.2-6.3-1.3-8.2c-2.1-2.7-5.8-4.1-8.5-6.4c-2.1-1.8-4.2-3.8-5.7-6.1c-2-3-0.8-8.3,2.3-9.4c2.8-1,5.3-0.8,7.4,2.6
		c3.4,5.4,6.1,5.3,9.6-0.1c3.4-5.1,8-8,13.5-10c10.5-3.8,13-15,5.9-23.9c-1.6-2.1-2.4-7.1-1.1-8.9c4.4-6,3.1-12.1,2.6-18.4
		c-0.6-7.7-2.4-15.9,3.6-22.1c3.3-3.4,8.1-5.8,12.6-7.5c7.7-2.8,12.5-7.3,13.5-15.9c0.6-4.6,2.7-9,3.8-13.5c0.3-1.2-0.1-3.4-0.9-4
		c-10.8-7-21.9-13.4-34.8-15.9c-1.9-0.4-4.5-1.7-5-3.2c-0.5-1.5,1-4,2.2-5.6c1.4-1.8,3.3-3.2,5.3-4.3c2.9-1.7,2.7-3.6,1.3-6.1
		c-4.2-8.1-8.7-16.1-12.3-24.4c-2.3-5.3-3-11.2-5-16.7c-2.1-5.9-2-13.5-8.7-16.6c-8.3-3.9-16.3-8.6-24.5-12.6
		c-11.3-5.6-23.6-9.2-35.5-13.5c-1.1-0.4-3.2-0.2-3.8,0.6c-4.7,6.1-10.6,9.2-18.5,7.7c-0.3-0.1-0.7,0-1,0.1
		c-13.5,0.7-27,1.5-40.6,2.2c-1.5-9.8-2.9-19-4.3-28.2c-5.1-0.4-9.7-0.7-14.3-1.1c-5.6-0.6-11.2-0.3-15.8-4.9
		c-7.5-7.5-15.6-14.3-23.1-21.9c-8.7-8.8-16.9-18.2-25.3-27.4c-1.5,0.7-2.7,1.3-3.8,1.9c-19.4,10-38.7,20.1-58.1,30
		c-3.6,1.8-7.3,2.9-11.2-0.3c-2.4-2-5.8-3.8-8.8-4c-1.9-0.1-3.9,3.2-6.2,4.4c-3.4,1.8-4.3,4.5-4.6,8c-0.3,2.8-1.5,5.6-2.5,8.3
		c-1.4,3.9-3.9,4.6-7.8,2.9c-12-5.5-24.1-10.9-36.2-16.1c-1.4-0.6-3.9-0.6-4.8,0.2c-6.5,6.1-12.4,12.9-19.1,18.6
		c-5.2,4.4-10.9,8.6-17.2,10.9c-5.2,1.9-11.4,1-17.2,1.4c-1.6,0.1-3.2,0.5-4.6,1.1c-3.9,1.5-7.9,3.1-11.7,4.9
		c-1.7,0.8-4.6,2.4-4.5,3.4c0.2,2.2,1.5,4.9,3.2,6.3c6.1,5,15.2,6,19.1,14.1c0.2,0.3,0.8,0.4,1.3,0.6c4.6,2,9.2,4.1,13.9,5.9
		c5.6,2.1,6.8,4.4,6.3,12.2c-0.4,5.5-4.5,2.9-7.1,3.6c-0.3,0.1-0.7,0-1,0.1c-8.1,3.7-13.7-2.4-18.9-6.1c-6.5-4.8-5.8-5.8-13.6-3
		c-3.8,1.4-6.9,3.2-6.5,8c0.3,4,4.1,9.9,7.3,11c9.7,3.1,19.3,6.1,29,9.2c5.3,1.7,7.5,5,6.7,10.3c-0.8,5.5-2.3,6.6-8.8,6.6
		c-1.2,0-2.3-0.1-3.5,0c-3.9,0.5-5.1,2.6-3.1,5.9c1.3,2.2,3.6,3.9,4.9,6.1c1.4,2.4,3.7,6,2.8,7.5c-2.8,4.8-0.3,7.2,3.1,9
		c3,1.6,3.2,3.8,2.1,6.1c-1.5,3.5-0.7,6.7-0.3,10.3c0.7,5.5,1,11.9-1.2,16.8c-2.5,5.8-7.8,10.5-12,15.5c-2,2.4-2.3,4.1,0.8,5.7
		c4.5,2.3,9.2,4.4,13.4,7.2c3.8,2.6,7.6,5.7,10.5,9.3c3.3,4.2,5.5,9.2,8.4,13.8c1.6,2.5,3.2,4.3,7.2,3c5.3-1.6,10.7-0.3,15.6,3
		c4,2.7,8.6,4.5,12.8,6.8c2.7,1.4,5.7,3.3,3.6,6.8c-4.5,8-3,15.3,1.5,22.5c1.2,1.9,3,4.1,2.9,6.1c-0.4,5.3-1.1,10.7-2.6,15.8
		c-2.5,8.3-6.2,16.2-2.4,25.1c0.3,0.6-2.1,3.3-3.3,3.4c-7.4,0.2-14.5-0.9-21.2-4.8c-6.8-3.9-14.3-6.7-22.1-2.1
		c-5,3-10.2,5.7-14.8,9.3c-7.2,5.6-14.1,11.5-20.7,17.8c-2.5,2.4-4.4,5.9-0.9,9.5c2.4,2.5,5.3,4.7,7.1,7.6c4.4,7.2,4.3,15,2.6,23
		c-0.7,3.2-1.7,6.5-1.3,9.6c0.7,6.3,2.2,12.5,3.6,18.7c0.7,3.2,1,8.2,2.9,9c4.9,2,6.1,6.2,7.2,9.9c1.8,6.3,5.4,10.8,9.3,15.8
		c3.2,4.1,3.9,10.1,6,15.2c0.6,1.4,1.6,3,2.9,3.6c5.5,2.8,11.2,4.9,10.3,13c-0.2,1.9,1.9,4.6,3.6,6.2c4.1,3.7,8.6,7,13.2,10.3
		c1.2,0.9,2.9,1.2,4.4,1.4c1.8,0.3,3.7,0.1,5.5,0.3c3.4,0.2,6.8,0.8,10.2,0.7C1524.4,1671.8,1527.6,1671.2,1531.7,1670.7z
		 M2052,1152.3c2.6,0.9,5.4,2,8.3,2.8c0.8,0.2,1.9-0.3,2.8-0.7c3.3-1.6,4.5-6.9,9.9-5c0.8,0.3,3-2.3,4.1-3.8c2-2.7,3.7-5.7,5.4-8.6
		c0.7-1.2,1.5-2.7,1.3-4c-0.2-3.1-1.5-6.1-1.4-9.1c0.1-2.3,1.1-5.3,2.7-6.6c1.8-1.4,5-2.1,7.2-1.6c1.2,0.3,2.5,3.7,2.4,5.7
		c-0.3,3.3,2,4.2,3.8,5.7c4.2,3.4,8.6,6.2,9.6,12.4c1.3,8.4-0.9,16.2-3.2,23.9c-1.4,4.7-1.2,8.5,3.1,11.2
		c8.5,5.3,15.1,12.2,20.6,20.6c5.3,8,7.8,16.4,5.4,25.9c-2,8.2-4.2,16.3-5.9,24.6c-0.4,2.1,0.6,4.5,0.9,6.7
		c0.6,4.2,2.3,8.6,1.4,12.4c-3.1,14.8-6.6,29.5-11,43.9c-1.6,5.2-0.6,9,2.8,11.6c3.7,2.9,3.2,5.8,1.7,9c-1.9,4.2-0.2,5.7,3.7,7
		c4.2,1.3,8.4,3.2,12.2,5.5c5.6,3.4,11.3,5.6,18,5.4c6.7-0.2,13.4-0.4,20,0.2c2,0.2,4.4,2.4,5.6,4.3c0.6,1-0.6,3.6-1.6,5
		c-3.3,4.6-5.8,9.4-5.9,15.3c-0.1,2.9-1.2,5.7-1.6,8.6c-0.3,2.1-0.8,4.6-0.1,6.4c1.7,4.2,3.9,8.2,6.4,12c0.7,1.1,3.2,2.1,4.4,1.6
		c6.2-2.4,11.2-0.9,16.4,3c2.2,1.7,6,2.6,8.6,1.9c4.5-1.1,8.7-3.4,12.8-5.8c1.9-1.1,3.7-3.2,4.5-5.2c11.4-29.3,22.6-58.6,33.8-88
		c1-2.7,1.9-4,5.3-2.9c7.6,2.5,15.3,4.4,23,6.4c28.1,7.5,56.3,14.9,84.4,22.4c3.2,0.9,6.3,2.1,9.4,3.1c0.2,0.6,0.4,1.1,0.6,1.7
		c-3.4,2.4-6.7,4.8-10.2,7.4c0.9,5.3,1.1,11.6,3.2,17.3c2.1,5.6,1.1,10.5,0.1,16c-1,5.1-1.3,10.7-0.6,15.8c1.1,7,8.4,9.4,14.2,5.5
		c1-0.7,2.4-1,3.6-1.1c4.2-0.1,8.4,0,12.7,0c0.6-5,2.4-10.2,7.5-12.5c7-3.2,14.8-2.4,20.6,2.2c6.8,5.4,12.6,4.4,18.5,0.1
		c3.8-2.8,9.9-3.5,10.3-9.9c0.3-4.7,3.6-7.2,7.2-9.2c3.4-1.9,7.5-3,10.2-5.5c5.3-4.9,11.1-6.7,18-6.2c1.8,0.1,4.9-0.2,5.5-1.3
		c3.2-6.6,10-7.3,15.5-10.2c4.6-2.4,8.9-5.5,13.7-7.4c2.9-1.2,6.6-1.4,9.6-0.7c4.2,0.9,8,4,12.1,4.5c7.5,0.9,8.3,0.9,10,7.3
		c3.8,0,7.7-0.9,10.8,0.2c5.2,1.9,5.1,2.2,5.8-3.1c0.8-6.4,0.5-13.1,6.7-17.7c2.8-2.1,5.1-5.4,6.6-8.6c2.4-5.2,5.3-7,10.8-5.3
		c7.4,2.3,7.4,2.3,11.6-3.9c0.6-0.9,1.2-2,2-2.8c3.2-3.3,9-2.5,11,1.6c3.8,7.6,5,7.5,13.2,4.8c5.1-1.7,10.9-2.1,16.4-1.8
		c6.4,0.3,12.7,1.8,16.4-5.6c0.3-0.6,0.8-1.2,1.4-1.4c4.9-1.9,7-6.1,8.8-10.5c1.8-4.3,3.3-8.7,5.1-13.1c0.6-1.5,1.4-3.3,2.7-4
		c7.6-4.4,10.7-12.2,11.6-19.6c1.1-9.4,5.5-16.9,9.4-25c2-4.3,5-6.7,8.7-9.4c10-7.2,20.7-14.4,16.5-29.7c-0.6-2.3-1-4.9-1-7.3
		c-0.1-11.2,0.1-22.4-0.1-33.7c-0.1-5.4-0.6-10.9-1.1-16.3c-0.2-2.9-0.5-5.9-1.3-8.7c-2.1-8-4.4-16-6.6-23.9
		c-9.9-1.2-9.9-1.2-12.3,8.3c-2.2,8.7-5.7,11-15,11.5c-3.7,0.2-7.2,2.3-10.8,3.4c-2.1,0.6-4.3,1.2-6.5,1.5c-5,0.6-10.7-1.8-14.7,3.6
		c-0.8,1-3,0.9-4.5,1.5c-1.6,0.6-3.6,1-4.7,2.1c-4.3,4.6-7.2,9.7-4.8,16.4c0.5,1.3,0.2,3.4-0.6,4.7c-2.6,4.3-5.6,8.3-8.4,12.5
		c-2.3,3.4-4.6,6.7-6.7,10.2c-1.9,3.3-3.2,7-5.2,10.2c-3.8,5.9-5.2,6.1-11,2.2c-3-2-5.1-2.9-7.2,1.3c-3.4,6.7-7.4,13.1-11.3,19.5
		c-2,3.3-4.9,6.3-6.1,9.8c-1.5,4.3-1.3,9-2.4,13.5c-0.4,1.7-2,3.6-3.5,4.5c-1.9,1.1-4.4,1.1-6.5,1.8c-3.8,1.1-6.7,0.3-8.5-3.6
		c-0.6-1.4-2.4-2.4-3.8-3.1c-3.9-1.9-6.7-6-4.9-8.8c3.4-5.2,0.6-9.8-0.4-14.7c-0.6-3,0-6.2,0.3-9.3c0.1-1.5,1.5-3.3,1.1-4.5
		c-2.1-6.7-5.7-12.4-11.7-16.6c-2-1.4-3.5-3.8-4.5-6c-2.3-4.8-0.3-9.5,1.5-14c1.6-3.8,1.1-6.4-2-9.8c-4.2-4.4-7.3-9.9-10.4-15.2
		c-5.3-8.9-10.2-17.8-20.8-21.8c-5.9-2.2-8.5-8-7.7-13.5c0.3-2.4-0.4-5.3-1.5-7.5c-1.3-2.6-3.9-4.5-5.4-7c-1.8-3.1-3.3-2.5-5.3-0.5
		c-4.9,4.6-7.1,14.6-4.7,20.9c0.6,1.6,0.5,3.5,0.9,5.2c1.1,4.4,2.4,8.7,3.4,13.1c0.9,4,2.6,8.2,2.2,12.2c-0.5,6.4-2.5,12.8-3.6,19.2
		c-0.3,1.9,0.2,4.2,1,6.1c1,2.5,2.8,4.8,3.8,7.3c1.2,3,1.3,6.8,3.2,9.1c5.4,6.5,4.8,12.4-0.2,18.5c-0.4,0.5-0.8,1-1.6,1.9
		c-1.3-1.4-2.3-2.9-3.6-3.8c-2-1.3-4.2-3-6.3-3c-3-0.1-6,1.4-9,1.8c-3.9,0.5-7.9,1-11.9,0.8c-6.1-0.3-7.9-6.3-10.2-10.2
		c-2.8-4.6-3.2-10.6-4.8-16.7c-2-0.3-5.3-0.1-8-1.3c-4.1-1.8-12.6,2.3-10.6-8.2c-1.6,0.7-2.6,0.9-3.3,1.4c-6.5,4-12.9,8.3-19.7,11.9
		c-2,1.1-5.5,1.2-7.3,0.1c-8.6-5.1-17.2-2.7-25.6-0.3c-5.5,1.5-10.4,2.2-15.3-1.6c-4.3-3.3-8.9-6-13.3-9.2
		c-3.8-2.8-5.7-6.2-3.9-11.1c1.5-4.1-0.7-6.9-3.6-9.8c-2.7-2.7-5.7-5.9-6.5-9.4c-2-8.3-3.2-16.8,1.2-25c1.2-2.3,2-4.9,2.2-7.5
		c0.4-5.9,3.4-10.5,7.3-14.6c2.2-2.3,3-4.4,2.9-7.4c-0.2-7.1,0.1-14.1,3.8-20.5c1.1-2,3.3-3.5,3.9-5.6c1.7-6.1,2.9-12.3,4.3-18.6
		c-4-0.6-7.7-1.3-11.5-1.6c-2.8-0.2-6.2-0.9-8.4,0.3c-5.2,2.9-8.1-0.1-10.7-3.4c-5.5-6.9-12.1-7.2-17.5-0.4c-0.7,0.9-1.4,1.8-2,2.7
		c-3.8,5.4-6.7,5.8-13.6,5.2c-6.6-0.6-13.9-1.1-17.6,7c-1,2.3-2.5,2.3-4.3-0.2c-8.9-12.5-9.8-27-11.5-41.4c-0.9-7.1-2-14.2-3.1-21.3
		c-0.1-0.8-0.9-1.7-1.6-2.3c-4.8-4.3-9.7-8.6-14.6-12.9c-3.6-3.1-7.1-5.2-12.5-3.5c-4.7,1.5-9.7,2-14.9-0.3c-3-1.3-7.1-1.1-10.4-0.3
		c-3.8,0.9-7.1,3.4-10.8,4.9c-5.5,2.1-11.2,4-16.9,5.8c-1.2,0.4-2.9,0.6-3.9,0.1c-6.6-3.7-14-6.8-19.4-11.9
		c-5.2-4.9-10.4-5.2-16.5-4.7c-5.7,0.4-9,3.4-11.1,8.7c-1,2.5-3.2,4.9-5.5,6.5c-4.3,3.1-8.9,6.2-13.8,8.4c-7,3.1-13.5,6.2-15.1,14.7
		c-0.1,0.7-0.6,1.6-1.3,2c-5.6,3.4-11.2,6.8-17.4,10.5c-1.2-2.8-1.6-4.4-2.4-5.7c-2.4-4.1-2.6-9.4-7.4-12.2c-6.4-3.6-6.9-5-3.6-11.6
		c2.4-4.8,2.6-9.3,0.8-14.2c-1.1-3-1.5-6.4-2.8-9.3c-4-9.1-7.2-18.7-12.7-26.7c-4.7-6.8-12.3-11.6-18.5-17.3
		c-4.1-3.8-9-4.1-13.8-3.9c1.7,5.9,3.4,11.6,4.9,17.4c0.4,1.7,0.7,4.2-0.2,5.1c-1.5,1.6-4.3,3.2-6.1,2.9c-1.7-0.3-3.7-3-4.3-5
		c-1-3.6-1.1-7.4-1.7-11.7c-12.4,5.1-24.7,10.3-37.1,15.1c-4.1,1.6-7.6,3-8.5,8c-0.4,2-2.3,3.7-3.7,5.7c4.5,4.1,5.8,9.2,4.1,15.7
		c-0.8,2.8,0.9,6.2,1.6,9.3c0.6,2.7,2.1,5.4,2,8c-0.2,4.6,1.9,7,5.7,8.6c3.4,1.4,4.5,3.9,4.5,7.4c-0.1,5,0.1,10,0,15
		c-0.1,3.8-0.2,7.6-0.6,11.4c-0.3,3.2-1.5,6.5-1.3,9.7c0.6,8.5,1.8,16.9,2.9,25.4c0.7,5.3,0.7,11,7,13.5c0.7,0.3,1.5,1.1,1.7,1.8
		c2.7,9.2,14.4,12.9,14.9,23.6c0,0.9,1.6,1.6,2.3,2.6c3.4,4.7,5.9,9.4,5.4,15.7c-0.5,6.8,8.9,13.9,15.8,13.5c2-0.1,4.9,1,5.9,2.6
		c2,3.2,3.1,7,4.5,10.6C2047.6,1141.2,2049.7,1146.6,2052,1152.3z M1880.2,1646.5c9.2-1.1,14.9-1.4,18.1,4.5c1.2,2.3,1.2,5.3,1.7,8
		c1.1,5.1,1.6,11.2,6.6,13.5c4.8,2.3,8.6-2.3,11.7-5.5c3.8-3.8,7.5-3.1,11.4-0.8c4.1,2.5,5.4,6.6,4.4,11.1c-0.6,2.9-4.9,6-1.4,8.5
		c2.1,1.5,6.1,0.2,9.3,0.1c0.3,0,0.5-0.4,1.2-0.8c0.3-3.3,0.8-6.9,0.8-10.4c0-6.7,0.9-12.9,4.9-18.7c1.2-1.8,0.8-4.7,1.2-7.1
		c0.4-2.2,0.1-4.9,1.3-6.5c2.3-3.1,5-7,8.3-8.1c7.4-2.3,7.4-8,8.3-13.6c0.2-1.3,0.6-2.5,1-3.8c1.9-5.7,6.2-7.7,11.5-5.1
		c3.8,1.9,7.6,2.1,10.4-1.2c5.6-6.7,10.9-13.7,16.1-20.7c1-1.4,2-3.3,1.9-4.9c-0.7-8.6,4-13.4,10.9-16.9c4.8-2.5,9.4-3.3,14.2,0.4
		c2.7,2.1,5.7,2.4,9.1,0.2c5.8-3.7,12.1-6.6,19.5-5.7c1.6,0.2,3.2-0.3,4.8-0.7c7.4-1.7,14.2-1.3,21.3,2.4c5.2,2.7,7.8,6.8,10.5,11.3
		c0.8-0.7,1.2-0.9,1.5-1.3c7.1-9.2,7-10.6-0.3-19.8c-1.2-1.5-2-5-1.1-6.3c2.4-3.4,5.1-6.9,10.3-6.6c5.3,0.2,10.7,0.3,15.9-0.4
		c4.9-0.6,9.2-1.1,13.3,2.7c2.1,2,5.4,2.9,8.3,3.8c8,2.5,16.5,4,24.1,7.4c8.7,3.9,11.8,0,15.3-6.9c3.7-7.5,5.4-9.4,13.6-8.3
		c3.7,0.5,5.4-1.2,7.4-3.4c2.5-2.8,5.1-5.4,7.3-8.4c1.9-2.5,4.3-5.1,4.9-8c2.4-12.5,7.7-23.4,15.5-33.2c2.5-3.1,5-5.7,5.9-9.9
		c0.5-2.3,3.2-4.3,5.2-6c2.5-2.2,5.4-4,7.9-6.1c5.5-4.7,9.1-5.8,13.2-1.3c2.5,2.7,4.8,5.6,7.2,8.4c3.2,3.8,6.6,3.3,9.1-0.6
		c2.7-4.2,5.8-8.4,9.2-12.1c3.4-3.7,8.8-3.2,12.9-0.3c6,4.2,3.8,10.8,4.9,16.3c0.7,3.7,1.7,4.4,4.9,3.4c8.4-2.7,14.3-8.5,19.1-15.5
		c3.7-5.4,7.1-11,14-12.7c-3.9-8.3-3.2-10.3,5-14c2.5-1.1,5.2-1.8,7.8-2.8c5-2,10.3-3.4,14.7-6.2c5.4-3.4,10-8,15.3-12.3
		c-1.2-3.1-2.7-7.1-4.3-11.3c-5.3,0.3-10.4-1.2-12.7-6.2c-2.7-6.2-3.7-12.8-1.3-19.6c1.2-3.5,2.1-7.5,1.6-11.1
		c-1-7.4-3.2-14.6-4.7-21.9c-0.6-2.8-0.5-5.4,3.7-5.3c1.7,0,3.4-1.1,5.1-1.6c-0.1-0.4-0.1-0.9-0.2-1.3
		c-38.1-10.3-76.2-20.6-114.5-30.9c-10.8,28.3-21.7,56.4-32.2,84.6c-2.3,6.3-5.7,10.4-11.8,13.5c-8.6,4.4-16.4,6.9-24.5-0.6
		c-1.4-1.3-4.7-1.8-6.4-1.1c-6.9,3-8.7,2.9-13.4-5.2c-2.7-4.7-4.4-10.3-5.1-15.7c-0.5-4,0.8-8.4,2.1-12.4c1.5-4.7,3.9-9.2,5.9-13.7
		c0.5-1.2,1.5-2.7,1.1-3.6c-0.4-0.9-2.1-1.8-3.3-1.8c-6.2-0.2-12.3-0.2-18.5-0.1c-7.5,0.2-14.1-1.7-20.2-6.2c-2.5-1.9-5.7-3.2-8.7-4
		c-8.7-2.3-14.8-8.1-20.5-14.6c-1.4-1.6-3.8-2.6-6-3.1c-3.6-0.9-7.9-0.2-10.9-1.9c-4.8-2.8-9.4-6.4-12.7-10.7c-3.3-4.2-6-9.5-7-14.7
		c-1.2-6.1-0.3-12.6-0.3-19c0-0.6-0.3-1.3-0.6-1.8c-5.8-9-8.1-20.4-19.7-26.4c5.5-5.2,10-9.4,15.4-14.4c-3.9,0.4-6.4,1.2-8.7,0.9
		c-7.1-0.9-14.1-2.3-21.2-3.3c-6.8-1-13.6-2.1-20.5-2.4c-5.9-0.3-11.9,0.5-17.8,0.9c-1.4,0.1-3.6,0.8-3.9,1.6
		c-0.5,1.6-0.2,3.8,0.6,5.2c2.3,3.7,1.8,8.3-2,9.9c-4.8,2-6.9,5.3-8.1,10.2c-1.2,5-3.3,9.7-5.3,14.4c-0.5,1.2-2.2,2.3-3.5,2.5
		c-3.6,0.6-6,1.8-7.8,5.5c-3.3,6.7-7.1,8-12.7,5.8c0-5.6,0.4-11.3-0.1-16.9c-0.4-4.7,0.2-10.2-6.3-12.4c-3.2-1.1-6.8-3.1-8.7-5.8
		c-4.4-6-10.5-7.8-17.1-9.2c-2-0.4-3.9-1.4-5.7-2.4c-1.9-1-3.7-2.4-5.7-3.7c-2.7-5.7,2.4-9.1,5.7-13.6c-8.5-3.2-16.5-6.1-24.4-8.9
		c-0.9-0.3-2.3,0.1-3.1,0.7c-6.9,5-13.4,10.5-20.5,15.2c-5.4,3.6-7.7,10.7-14.7,12.2c-0.6,0.1-1.3,1.7-1.2,2.4
		c1.5,6.5,2.5,13.2,5.1,19.2c4.9,11.5,10.7,22.7,16.3,33.9c1.6,3.2,1.4,5.2-1.8,7.2c-2.9,1.9-5.3,4.6-8,7c3.4,1.7,6.1,1.6,8.4,2.6
		c10,4.7,19.9,9.5,29.6,14.8c2,1.1,5.5,2.7,3.5,7c-1.7,3.6-2.4,7.7-3.3,11.7c-1.8,8.8-4.7,16.7-14.5,19.6c-2,0.6-3.9,1.6-5.9,2.3
		c-5.7,2-9.6,5.9-10.4,11.8c-0.6,4.5-0.2,9.3,0.2,13.9c0.5,6.7,1.8,13.2-2.7,19.4c-1,1.4-0.2,5.3,1.1,7c7.3,8.9,4.1,22.6-6.6,26.9
		c-5.7,2.3-10.8,5.2-14.4,10.5c-4.3,6.4-8,5.9-12.4,0.6c-0.4-0.5-0.8-1.2-1.3-1.4c-1.1-0.6-3-1.7-3.4-1.3c-0.9,0.9-1.9,2.7-1.6,3.8
		c0.4,1.6,1.6,3.3,2.9,4.4c3.5,2.9,7.4,5.3,11,8.2c1.3,1.1,2.6,2.8,2.8,4.4c0.9,7.4-3,13.5-6.3,19.7c-1.7,3.1-4.9,3.6-7.7,2
		c-4.1-2.3-7.1-3.4-11.1,1c-2.9,3.2-4.9,5.9-2.7,9.8c3.3,5.8,3.9,11-3.1,15.5c2.7,2,4.6,3.8,6.9,4.8c4.2,2,5.2,4.7,2.8,9
		c-0.6,1-0.9,2.7-0.5,3.7c1.4,3.9,3.1,7.7,4.7,11.6c1.7,4,0.6,7.5-2.8,9.9c-3.4,2.5-5.7-0.1-8-2.3c-0.9-0.9-2.5-1.1-3.8-1.6
		c-0.4,1.5-1.2,3-1.1,4.4c0.7,6,6,6,10.2,7.4c6.8,2.2,8.2,6.1,3.2,11.5c-4,4.4-3.5,9.7-4.4,14.7c-0.3,1.3,2.1,3.9,3.9,4.7
		c12.8,5.8,25.6,11.5,38.6,16.8c2.6,1.1,3.3,2.1,3.2,4.5C1870.9,1631.4,1870.6,1640.5,1880.2,1646.5z M1256.2,1395.4
		c0.7-0.3,1.3-0.5,2-0.8c3.7,3.4,7.4,6.9,11.2,10.3c2.1,1.8,4.2,3.8,6.6,5c3.4,1.7,8.6,10.9,8.1,15c-0.8,5.2-0.2,9.9,5.5,12.3
		c2.8,1.2,5.6,2.4,8.3,3.8c1.8,0.9,3.9,1.9,5.1,3.4c2.3,3,4.2,6.3,6,9.6c3.1,5.6-1.2,12.9-7.4,13c-7.2,0.1-12,4.8-12.6,12.3
		c-0.6,7.5-3.2,14.2-9.6,18.5c-3.5,2.3-7,3.5-5.7,9.2c0.8,3.7-0.8,7.9-1.2,11.9c0,0.1,0.3,0.2,0.3,0.4c0.8,2.8,2.2,5.6,2.1,8.3
		c-0.2,4.4,1.2,6.4,5.5,7.6c7.2,2,12.5,10,10.3,16.3c-2.6,7.7-2.3,15,0.6,23.2c3.3-0.9,6.8-1.4,10.1-2.7c8.8-3.4,12.6-1.7,15.8,6.9
		c0.5,1.4,2.4,2.5,3.8,3.2c1.4,0.7,3.3,0.4,4.7,1.1c4.5,2.1,7.3-0.6,10.1-3.4c2.9-2.9,5.6-5.9,8.9-8.3c3.9-2.8,8.7-1.2,11.4,2.9
		c4.1,6.3,3.5,12.6,0.8,19.2c-3.8,9.1-9.6,16.2-19.2,19.9c-3.3,1.2-6.8,3.2-9,5.8c-8.9,10.8-11.9,24.3-15.7,37.4
		c-0.1,0.4,0.2,0.9,0.8,2.7c3.5-1.9,6.7-3.4,9.8-5.3c4-2.5,7.6-5.8,11.8-7.8c6.7-3.1,13.6-6,20.7-8c11.1-3,21.7-6.3,30.5-14.2
		c4.1-3.7,8.5-7.4,13.5-9.7c11.7-5.3,23.8-9.7,35.7-14.6c9.2-3.8,8.8-3.9,6.6-14.2c-1.7-7.6-3.4-15.6-2.9-23.3
		c0.4-5.8,2.3-11.5,1.7-17.6c-0.5-5-2-8.9-6.6-11.6c-3.4-2-6.1-5.3-5.4-9.8c0.7-4.8,3.5-8.1,7.7-10.7c3.5-2.1,7.6-4.3,9.5-7.6
		c5.3-9.3,17.3-9.5,23.2-17.6c0.2-0.3,1-0.1,1.4-0.2c8.1-2.5,15.7-0.8,22.6,3.4c6.4,3.9,13,4.9,20.7,4.5c-3-7.5-2.2-14.4,0.6-21.6
		c2.4-6.3,2.9-13.3,4-20c0.1-0.7-0.9-1.7-1.4-2.4c-6.5-8.9-7.3-18.4-2.7-28.1c-5.6-3.2-11.1-6.8-16.9-9.5c-3-1.4-7-2.7-10-1.9
		c-6.4,1.7-10.3,0.1-12.8-5.8c-0.9-2.1-2-4.1-3.2-6.1c-4-6.8-8.4-13.3-16.3-16.3c-3.6-1.4-7.2-3.2-10.6-5.1c-5.4-3.1-5-7.8-0.5-12.2
		c4.4-4.3,8.9-9.2,11.2-14.7c1.7-4.1-0.2-9.7-0.4-14.6c-0.1-2.5-0.8-5.3,0-7.5c1.4-3.8,0.8-6.3-2.9-7.8c-3.9-1.6-4.4-5.3-2.7-7.8
		c2.6-3.7,0.4-5.4-1.4-7.6c-1.9-2.3-4.1-4.3-5.7-6.8c-2.4-3.9,0.4-9.1,4.9-9.8c1.6-0.2,3.3-0.1,5-0.1c2.3,0.1,4.9,0.3,5.4-2.8
		c0.5-2.8,0.6-5.9-2.8-7.2c-7.5-2.8-15-5.7-22.7-8c-7.5-2.3-14.8-4.4-17.1-13.3c-1.6-6.1,0.5-10.3,6.6-12.8c3.1-1.3,6.1-3.1,9.5-4.8
		c8.9,6.3,16,18.1,30.3,12.2c0.8-7.8,0.6-7.4-6.2-10.3c-6.2-2.6-13.9-3.3-17-10.9c-0.2-0.4-0.7-0.7-1.1-0.9
		c-4.4-2.5-8.6-5.4-13.2-7.3c-4.8-2-6.3-5.7-6-10c0.3-4.4,4.4-5.4,8.1-6.6c8.2-2.7,15.9-6.3,25.1-5.6c7.2,0.5,14-2.8,19.4-8
		c4.6-4.4,8.9-9,13.4-13.3c3.3-3.2,6.7-6.1,10.5-9.5c-8-4.1-15.3-7.8-22.8-11.6c-0.3,0.9-0.7,1.4-0.8,2c-0.4,5.1-0.1,10.4-1.2,15.3
		c-1.3,5.2-1.6,11.3-8.9,13.1c-3.6,0.9-6.9,3.4-10.3,5.1c-0.8,0.4-1.8,1.2-2.6,1.1c-8-1.3-14.8,3.2-22.3,4.5
		c-12.8,2.2-26.3,5.3-37.1-6c-0.3-0.3-0.9-0.4-1.3-0.6c-8.5-3.1-10.8-11.8-15-18.3c-4.3-6.6-6.2-14.9-8.8-22.6
		c-0.8-2.3-0.6-4.9-0.8-7.4c-0.3-3.7-0.6-7.5-0.7-11.2c-0.1-2.6,0-5.3,0.2-7.9c0.2-3,1.5-6.2,0.7-8.8c-3-10.7-7.8-21-5.9-32.4
		c1.1-6.6-1.6-14.5,5.5-19.6c1-0.7,1.1-2.6,1.8-4.5c-4.2,0-7.9-0.8-11,0.2c-4,1.3-7.2,0.4-10.2-1.7c-5.6-3.9-11.7-4.7-18.2-4.7
		c-1.8,0-3.6-1-5.4-1.7c-3.9-1.4-7.8-2.9-11.8-4.2c-1.8-0.6-3.8-0.9-5.6-1.4c-7.6-2.2-15.1-4.9-22.9-6.5c-7.7-1.6-15.6-2.1-23.3-3.2
		c-12-1.8-23-8-35.3-8.6c-2.6-0.1-5.1-1-7.7-1.2c-1-0.1-2.6,0.5-3.2,1.4c-6.2,8.5-16.1,9.6-25.1,11.3c-13.2,2.6-26.4,4.6-38.9,10.1
		c-8.6,3.7-17.7,6.2-27.1,9.3c1.3,2,3,4.2,4.3,6.5c2.1,3.8,5.6,7.9,5.4,11.7c-0.3,7.8,2.6,14.3,5.4,21.1c2.4,5.6,3.5,12.5,7.5,16.5
		c4.7,4.6,7.3,9.7,9.6,15.4c0.9,2.2,3.3,3.9,5.3,5.6c2.5,2.2,6.4,3.6,7.5,6.2c6.3,16.1,11.7,32.4,17.7,48.6
		c1.9,5.2,0.7,8.5-3.9,11.4c-1.9,1.2-4.1,3.5-4.4,5.6c-0.6,5.3-0.2,10.8-0.2,16.1c3,2.8,7.7,5.3,9.7,9.3c3.6,7,6.8,14.7,8,22.4
		c1.5,10.3,1,20.8,1.2,31.3c0,1.5-0.7,3-1,4.6c6.8,1.5,8.4,7.4,4.4,14.8c7-0.1,12,4.5,11.7,11.4c-0.3,5.7,0.9,10,6.3,13.3
		c3.8,2.3,6.5,6.4,9.9,9.4c7.5,6.7,9.8,19,22.1,20.8c1.4,0.2,2.8,1.7,3.9,2.9c4.7,5.4,10,10.6,8.8,18.8
		C1257.4,1387,1256.8,1391.2,1256.2,1395.4z M1131.1,742.2c1.5,3,2.8,5.7,4.2,8.3c0.5,0.8,1.3,1.9,2.1,2.1c5.3,0.8,5.7,4.9,6.8,8.9
		c0.8,2.8,0.9,5.8,5.3,7.2c3.1,1,5.8,3.4,9.7,3.7c1.7,0.1,4.2,3.2,4.5,5.2c0.6,3.3,0.2,6.9-0.7,10.2c-0.9,3.5-5,7.5-4.1,10
		c2.7,7.8-0.6,15.4,1.1,23c0.5,2.2,0.7,4.5,1,6.8c0.5,4.6-1.3,6.9-6.2,6.5c-3.6-0.3-7.3-0.1-11,0c-4.9,0-6.9,2.2-5.7,7
		c0.7,2.6,1.5,5.4,3.1,7.6c3.8,5.2,4.7,10.8,5,17.1c0.2,5.4,1.3,11.1,3.5,16c1.8,4.1,1.7,6.6-1.4,9.6c-6,5.8-11.8,11.7-17.7,17.6
		c-5.1,5.1-5.1,5.1-0.6,10.6c1.1,1.4,2.1,2.9,3.3,4.3c6.4,7.2,12.7,14.4,15.9,23.8c2.1,6.2,1.3,13.3,5.8,18.9c1.1,1.4,1.5,3.6,2,5.4
		c1.9,6.9,4.6,13.4,10.4,18c3.1,2.4,6.7,4.2,9.6,6.8c6.2,5.4,11.4,12.2,18.2,16.6c7.9,5.2,15.3,12.2,25.9,12.4
		c4.6,0.1,9.2,0.7,13.6,1.7c8.3,1.9,16.4,4.7,24.8,6.5c6.7,1.5,13.7,1.5,20.3,3.1c8.5,2.1,16.6,6.7,25.1,7.5c9.7,0.9,17.5,8,27.6,7
		c3.1-0.3,6.7,1.5,9.5,3.2c8.3,4.9,16.6,3.1,24.9,0.3c3.2-1.1,5.8-1.7,8.6,1c2.2,2.1,4.8,3.3,8.2,1.3c4.6-2.7,8.9,0,12.5,2.7
		c7.2,5.4,13.9,5.9,20.8,0.4c3.2-2.6,5.6-6.2,8.4-9.3c1.9-2,3.8-5.1,5.9-5.4c2.3-0.2,4.8,2.9,7.4,3.5c3.2,0.7,7.9,4,9.6,0.3
		c2.3-5.2,6.2-8.1,10.1-11.4c4.8-4.1,9-4.5,13.5-0.2c3.7,3.5,6.9,2.6,10.6,1c4-1.8,7.7-5.5,12.8-2.9c0.5,0.2,1.9-1,2.5-1.8
		c1.1-1.4,1.9-3.1,2.9-4.6c3.2-4.9,7-4.8,10.2,0.3c1.3,2.1,2.7,4.2,4.3,5.9c0.9,0.9,3,1.9,3.8,1.5c1.3-0.6,2.5-2.4,2.8-3.9
		c1.6-8.1,6.4-11.3,14.1-8.7c4.3,1.4,8,2,10.9-2.7c0.8-1.2,3.4-1.4,5.2-1.8c2.7-0.5,6,0,8.1-1.4c1.9-1.3,2.5-4.5,3.7-6.9
		c-2.2-0.9-4.3-2.5-6.5-2.6c-3.6-0.1-7.1-0.4-9.3-3.6c-2.3-3.3-4.6-6.7-6-10.4c-3.2-8.6-7.1-16.3-17.2-18.3
		c-1.2-0.2-2.1-1.8-3.2-2.6c-2.2-1.8-4.1-4.4-6.6-5.1c-9.1-2.7-16.2-8.7-22.1-15.3c-3.7-4.1-6.3-8.2-12.3-8c-0.3,0-0.6-0.3-0.8-0.6
		c-4.3-5.1-8.6-10.2-12.8-15.4c-0.7-0.9-0.6-2.5-1-3.7c-0.7-1.7-1.3-3.8-2.6-4.9c-5.6-5-11.5-9.7-17.3-14.6c-1.8-1.5-3.1-3-2.5-6.1
		c0.8-3.8-0.9-7-5.1-8.9c-1.7-0.7-2.9-3.5-3.4-5.6c-1.2-4.4-2.6-8.9-2.6-13.4c-0.1-8-6.4-12.7-9.5-19c-0.6-1.3-2.9-1.8-4.4-2.7
		c-2.8-1.7-6-3-8.1-5.2c-4.1-4.3-7-9.8-11.4-13.5c-5-4.2-7.3-9.4-6.9-15.1c0.7-9.1,3.2-17.8,9.2-25.2c4.6-5.6,7.6-11.9,7.7-19.7
		c0.1-7.3,1.7-14.6,2.6-21.9c0.8-6.6,2.4-13.2-2.2-19.4c-1.4-1.9-2.4-4.4-2.5-6.8c-0.3-6.2-0.2-12.4-0.1-18.6
		c0.1-3.6,1-7.2,0.9-10.8c-0.3-5.5-0.4-11-6.5-14.2c-4.2-2.2-7.2-6-8-11c-0.4-2.1-0.4-4.2-0.6-6.1c-7.7-1.9-14.7-4.2-19.2-11.3
		c-2.1-3.3-6.3-3.4-9.2-0.9c-7.6,6.5-15.5,13-13.3,24.8c0.1,0.5,0,1,0,1.5c-0.1,14-8.6,20-21.5,15c-0.8-0.3-1.5-1-2.2-1
		c-1.8,0.1-3.7,0.1-5.3,0.8c-4.1,1.9-9,3.2-11.6,6.4c-2.7,3.2-2.6,8.6-4.5,12.7c-2,4.5-6.4,5.8-12,4.4c-4.6-1.1-5.2-4.6-4.9-8.4
		c0.3-4.9-1.6-8.3-5.7-11c-6-4-11.5-8.6-13.4-16.1c-1.4-5.6-5.3-8.7-10-11.7c-5.4-3.4-10.4-7.8-14.9-12.4c-3.2-3.3-5.2-7.9-7.9-11.8
		c-4.2-6.2-8.1-12.4-7.3-20.9c-1.6,0.8-2.9,1.4-4.1,2.2c-9.5,6.8-19,13.3-31.7,11.3c-1.8-0.3-4.4,1.1-5.9,2.5
		c-3.9,3.4-7,7.7-11.2,10.7c-3,2.2-3.9,4.5-3.9,7.8c0,6.8-3.9,14,2,20.4c0.3,0.4,0.1,1.3,0.1,2c-0.7,6-0.7,12.2-2.4,17.9
		c-1.1,3.6-2.1,10-8.3,8.4c-6.8-1.7-8,2-8.6,7c-0.2,1.7-0.3,3.5,0,5.2c0.9,4.9,0.1,9.1-4.2,12c-2.3,1.5-5.7,2.3-6.9,4.4
		C1141.2,741.1,1135.8,741.3,1131.1,742.2z M2511.2,1083.5c1.6,2.1,3.3,3.7,4.4,5.7c2,3.6,5.1,7.4,5,11.1c-0.1,7.8-0.1,9.4,6.7,12.7
		c9.6,4.7,15.6,12.4,20.2,21.8c2.6,5.2,5.7,10.5,9.7,14.6c4.4,4.4,6.3,8.2,3.1,14c-1,1.8-1.7,4.1-1.5,6.1c0.4,3.2,0.6,7.5,2.7,9.1
		c6.1,4.7,10.2,10.5,13.5,17.3c1.4,2.8,1.7,5.3-0.2,7.5c-2.6,3-2.1,5.9-0.8,9.1c2,5,4.2,9.9,0.8,15.3c-0.5,0.8,1,3.4,2.2,4.7
		c1.8,2,4.7,3.1,6,5.3c3,5,6.5,0.7,9.7,1c2.4,0.3,2.9-1.9,3.4-4.3c1.1-5.9,2-12,4.6-17.3c3.3-7,8.5-13.1,12.2-19.9
		c6-11.2,7.9-11.9,18.7-5c2.1-2.8,5.5-5.3,6.2-8.5c2-8.5,7.6-14.2,13.1-20.4c2.4-2.6,4.2-7.2,3.8-10.6c-1.5-11.8,2.3-18.7,13.6-21.9
		c0.9-0.3,2.1-0.6,2.6-1.3c4.3-5.7,10.3-3,15.6-3.4c1.3-0.1,3.3,0.3,3.9-0.5c4.4-4.9,10.1-4.9,15.9-4.7c4.6,0.1,7.5-2.1,8.7-6.4
		c0.8-2.8,0.9-5.9,2.2-8.4c1.4-2.9,2.6-7.1,7.2-6.1c4,0.8,9.6-0.8,10.4,5.9c0-2.9,0-5.7,0-8.8c-1.2-0.1-2.2-0.1-3.2-0.2
		c-6.5-0.2-16.4-6.5-17.2-14.1c-1-10.3-5.9-18.7-11.8-27c-3.1-4.4-6.9-8.7-5.9-15.1c0.3-1.7-2-3.9-3.3-5.6c-1.6-2-3.8-3.6-5.2-5.7
		c-4.5-6.5-8.6-13.2-13-19.7c-1.2-1.8-2.9-3.4-4.4-5.2c-5.6,8.3-7.7,9.4-17,9.4c-4.2,0-8.3,0.2-12.5-0.1c-2.5-0.2-5.3-0.6-7.5-1.7
		c-7.4-4-15.4-7.6-21.6-13c-6-5.3-12.7-7.9-19.8-10.1c-7.2-2.2-11.8-6.8-14.9-13.7c-2.3-5-6.4-9.2-8.5-12.1
		c-4.7,3.8-8.9,6.8-12.7,10.4c-1.5,1.4-2.6,3.7-3.2,5.8c-1.6,5.3-2.6,10.7-4.2,16c-0.7,2.3-2,4.3-3.1,6.4
		c-3.6,6.4-7.4,12.6-10.7,19.1c-2.5,5.1-4,10.5-10,13.3c-3.9,1.8-7.9,4.6-10.4,8c-5.1,6.9-9.2,9.1-17.3,7
		c5.6,7.1,11.4,14.1,16.7,21.3C2518.7,1076.9,2518.1,1078.6,2511.2,1083.5z"/>
	<path id="_x32_333" class="st0" d="M2021.5,901.1c2.5,8,4.8,15.5,7.2,23.4c-0.3,0.3-1,1-1.8,1.5c-0.7,0.4-1.4,0.7-3.1,1.5
		c-0.7-3.5-1.6-6.5-1.8-9.6c-0.3-8.4-1-9-8.8-5.9c-14.4,5.6-28.7,11.4-42.5,16.9c-0.4,3-0.1,5.5-1.1,7.5c-0.9,1.9-3.1,3.1-5.1,5
		c6.4,4.4,7.4,9.9,5.7,16.8c-0.7,2.8,0.9,6.3,1.7,9.4c0.6,2.4,2.1,4.7,2,7c-0.4,5.7,2.5,9.1,6.9,11.3c2.7,1.3,3.2,3,3.3,5.7
		c0.1,5.9,0.9,11.9,0.8,17.8c0,3.2-1.7,6.4-1.8,9.6c0,6.1,0.5,12.2,0.9,18.3c0.5,6.9,1,13.8,2.1,20.6c0.4,2.9,1.5,6.9,3.6,8
		c5,2.6,5.6,8.5,9.5,11.2c6.6,4.5,8,12.1,12.2,18c2.9,4.1,5.2,8.2,4.9,13.9c-0.5,7.9,10.4,18.2,17.8,16.8c4.5-0.8,5.7,1.8,6.8,4.2
		c2.1,4.5,3.6,9.3,5.1,14c1.2,3.8,1.1,8.7,3.5,11.3c2.2,2.4,7.1,2.4,10.8,3.3c0.9,0.2,2.3,0.3,2.7-0.2c3.5-3.9,8.4-5.3,12.9-7.4
		c1.5-0.7,2.8-1.9,3.8-3.3c2.3-3.3,5-6.6,6.2-10.3c1.1-3.3,1-7.4,0.2-10.8c-1.4-6.3-1.3-7,5.8-8.5c0.1,1.6-0.1,3.3,0.3,4.8
		c0.6,1.8,1.2,4.2,2.6,5c13.1,7.7,11.9,13.1,9.6,25.5c-0.8,4.1-2.2,8.2-3.1,12.3c-0.9,4.4,0.3,8.2,4.3,10.6
		c10,5.9,17.4,14.5,23,24.2c3.7,6.5,5.2,14,2.1,21.7c-1.5,3.9-1.8,8.2-2.6,12.4c-0.2,1.3,0.2,2.8-0.3,3.9
		c-2.6,5.4-3.4,10.4-0.9,16.4c2.9,7-0.1,14-2.1,21c-2.9,10.3-4.5,21-8,31.1c-2.5,7.3,0.1,11.9,4.3,17.1c1.2,1.5-0.2,5-0.5,7.6
		c-0.5,0.1-1,0.3-1.4,0.4c-2.6-3-5-6.4-8-9c-2-1.8-4.7-3.7-7.2-3.8c-12.5-0.5-25.7-9.5-28.6-21.6c-1.6-6.7-0.5-14-0.7-21
		c0-1.1,0.3-2.7-0.2-3.3c-6.3-7.5-7-18.5-16-24.4c-3.2-2.1-0.5-4.2,1.3-5.8c2.5-2.1,5.4-3.8,7.6-6.2c1.1-1.2,1.8-4,1.1-5.2
		c-0.6-1.1-3.3-1.3-5.1-1.4c-5.3-0.4-10.6-0.6-15.9-1c-3.1-0.3-6.2-0.6-9.2-1.3c-12.3-2.8-24.7-2.4-37.2-2
		c-10.4,0.3-12.4,3.4-7.9,13.1c0.5,1.1-0.7,4-1.8,4.6c-4.9,2.5-8.8,5.4-8.7,11.6c0,1.2-1.6,2.4-2.2,3.7c-1,2.2-2.4,4.5-2.4,6.7
		c0,3.2-1.7,5-4.2,5.1c-4.2,0.2-5.8,3.1-7.9,5.8c-1.8,2.3-3.8,4.5-5.7,6.8c-0.5-0.2-0.9-0.4-1.4-0.6c0-3.6,0.1-7.1,0-10.7
		c-0.2-4.3,0.2-8.8-1.3-12.7c-1.1-2.9-4.6-5-7.2-7.2c-2.3-1.9-5.9-2.7-7.4-5c-4.4-6.8-11-8.9-18.2-10.2c-7.3-1.4-8.8-4.2-5-10.8
		c1.3-2.2,2.2-4.7,3.4-7.2c-10.6-4.6-20.9-9.1-29.2-12.6c-1.4,0.5-3.4,0.9-4.9,2c-10.7,7.9-22.2,14.9-31.5,24.2
		c-5.4,5.4-7.6,4.4-11.8,0.3c-1.1-1-3-1.2-4.4-1.9c-4-2-8-4.1-12.1-6.1c-5.8-2.9-11.6-6-17.6-8.5c-8.3-3.4-16.9-6.1-25.1-9.6
		c-4.4-1.9-7.1,0-9.1,3.2c-2.8,4.5-6.4,5.9-11.5,6c-11,0.3-22.1,1.2-33.1,1.9c-2.5,0.1-5,0-7.9,0c-1.4-9.4-2.8-18.5-4.2-27.7
		c-7.4-0.8-14.6-1.1-21.7-2.5c-3.7-0.7-7.8-2.3-10.4-4.9c-15.9-15.7-31.4-31.8-47-47.8c-0.5-0.5-0.7-1.4-1.3-2.4
		c-7.5,4-14.9,8-22.4,11.7c-15.3,7.7-30.6,15.3-46,22.8c-0.9,0.5-2.5,0.1-3.6-0.3c-2.1-0.8-4.3-1.8-6.2-3c-4.1-2.7-7-1.9-10.7,1.5
		c-4.6,4.2-8.7,7.7-8,14.7c0.2,2.1-1.7,4.4-3,7.5c-23.5-11-46.7-21.8-71.1-33.3c-0.5,5.6-0.9,10.6-1.6,15.7
		c-0.5,3.3-1.4,6.7-2.5,9.9c-1.2,3.7-3.4,6.1-7.8,6.2c-2,0.1-4.5,1.4-5.9,3c-2.8,3.1-6.1,3.2-9.5,2.7c-6.8-1-11.8,4.4-18.1,5
		c-11.8,1.1-22.9,3.3-34-5.7c-11.9-9.7-16.9-22.3-22.2-35.4c-2.3-5.6-2.3-10.9-1.9-16.6c0.2-2.7-1-5.4-1.3-8.1
		c-0.2-1.4-0.5-3.2,0.2-4.2c4.5-6.4,1.4-12.3-0.9-18.2c-3.8-9.6-5-19.2-3.1-29.3c0.3-1.8-0.1-3.7,0.3-5.5c0.4-2,1.4-3.8,2.2-5.6
		c1.2-2.4,2.9-4.7,3.6-7.3c1.1-3.8,3.3-5.2,6.5-3c3.8,2.6,7.3,3.6,12.1,2.2c2.6-0.7,6.5,0.3,8.8,2c9,6.7,19.8,6.5,27.5-1.6
		c3.7-3.8,6.8-8.2,9.6-11.7c4.9,1.6,9.1,2.7,13.1,4.3c3.4,1.3,4.8-0.5,6.8-2.8c3.6-4.3,7.5-8.5,12-11.8c1.4-1,5.8,0.1,7.3,1.7
		c3.9,4.2,7.6,3.3,11.8,1.4c2.4-1.1,4.8-2.1,7.2-3.1c0.7-0.3,1.8-1,2.3-0.7c8.3,5.2,7.9-3.6,11-6.8c0.6-0.7,1.1-1.6,2.2-3.2
		c2.3,3.2,4.3,5.9,6.2,8.6c4,5.5,8.6,6.2,12.7,1.1c1.8-2.2,2-5.5,3-8.3c1.1-3.3,3.1-4.1,6.5-2.8c2.8,1.1,5.9,1.9,8.9,1.9
		c1.6,0,3.2-2.3,4.9-3.3c1.6-0.9,3.5-2.2,5-2c6.3,0.9,13.1-3.1,14.5-9c0.9-3.7-3.9-9.4-7.6-9.1c-7.9,0.7-12.4-2.5-14.3-10.1
		c-1.7-7.2-6.1-12.9-10.8-18.3c-0.1-0.1-0.2-0.3-0.3-0.3c-10.2-1.6-15.6-12.5-26.1-13.7c-2-0.2-3.7-2.5-5.5-4
		c-2.5-2-4.8-4.2-7.2-6.3c-0.6-0.5-1.7-1.2-1.7-1.8c0.1-6.7-5.5-6.1-9.4-7.7c-1.3-0.5-3.5-0.7-3.8-1.6c-1.7-4.5-5.4-7-8.9-9.8
		c-1.2-1-2.1-3.1-2.1-4.7c-0.1-4.3-2.2-6.7-5.6-9.2c-5.1-3.7-9.9-7.7-14.2-12.2c-1.7-1.7-2.7-4.8-2.8-7.3c0-3.2-0.7-5.5-3.7-7
		c-3.6-1.8-4.4-4.8-5.1-8.7c-1.6-9.9-3.8-19.6-10.3-27.9c-2.9-3.6-5.3-6.7-10-7.6c-1.1-0.2-2.4-0.5-3.1-1.3
		c-3.9-4.5-7.7-9.1-11.4-13.8c-2.5-3.2-5.5-6.4-6.9-10.2c-1.1-3.1-0.4-6.9,0.1-10.4c0.5-3.2,1.6-6.3,2.7-9.3c0.9-2.4,1.8-5,3.4-6.9
		c6.3-7.4,9.9-15.4,9.8-25.5c-0.1-8.4,2.1-16.8,2.9-25.3c0.3-3.2,0-6.8-1.1-9.8c-2-5.3-5.4-10-3.3-16.3c0.8-2.4-0.8-5.5-0.7-8.2
		c0.1-4.1,0.6-8.2,0.9-12.3c0.7-9.6-2.5-17-10.9-22.4c-4.8-3.1-5.5-14.2-2.4-18.8c4.8-7.2,9.9-14.4,9.3-23.7
		c-0.3-5-2.5-8.6-6.7-11.2c-2.6-1.6-5.4-3.3-7.2-5.7c-2.7-3.6-1.3-5.6,3.1-6c11.6-0.9,23.2-2,34.9-2.9c0.9-0.1,2.1,0.5,2.8,1.1
		c2.2,2.4,4.1,5.1,6.3,7.4c2.5,2.6,6,3.7,8.9,1.4c2.4-1.8,4.3-4.8,5.2-7.6c0.9-2.7,0.2-5.9,0.2-8.4c5.6-1.6,10.5-2.8,15.2-4.5
		c4.1-1.5,6.8,1,9.2,3.2c4,3.6,8.1,2.5,12.4,1.4c1.2-0.3,2.9-0.8,3.8-0.2c6.3,3.9,12.6,7.9,18.7,12.1c5.2,3.5,9.6,7,17.2,5.5
		c6.1-1.2,13.1,1.4,19.6,2.7c1,0.2,2,2.4,2.1,3.7c0.3,4,0.3,8,0,12c-0.3,4,1,7.1,4.1,9.6c3.8,3,5.8,6.7,5,11.7
		c-1.7,9.7,2.7,15.5,10.9,20.5c11.6,7,23.2,9.8,36.9,7.9c7.8-1.1,16.2,1.3,24.2,2.9c1.5,0.3,3.3,4.4,3.2,6.7
		c-0.2,3.8-2.1,7.5-2.8,11.3c-0.5,2.6-0.4,5.3-0.2,8c0.3,3.8,1.2,7.6,1.5,11.5c0.3,3.1,0.6,6,4.5,6.2c5.9,0.4,11.9,1.1,17.8,0.9
		c6.9-0.3,14.4,0.4,19.8-5.3c5.5-5.6,10.7-11.5,16.1-17.3c6.1-6.4,9.9-13.7,9.2-22.9c-0.1-1.5,1.4-3.2,2.5-4.6
		c3.4-4.2,6.7-8.6,10.6-12.3c2.4-2.3,6.1-3.1,8.7-5.2c6.2-4.9,12.1-10.1,18.8-15.7c0.2,6.7,3,10.4,7.9,14.1
		c8.2,6.1,15.3,13.7,16.6,25.2c0.7,6.1,4.2,9.6,11,10.5c3.9,0.5,7.3,4.7,10.9,7.3c6.7,5,10.4,4.2,14.9-2.6c3.3-5.1,8.3-7.9,14.4-9.3
		c3.3-0.7,6.2-3.3,9.2-5c1.4-0.8,3.2-2.8,4.2-2.5c8.7,2.7,15.4-2.1,22.7-5.1c6.7-2.7,8.9-5.9,8.4-12.5c-0.1-1.2-0.5-2.7-1.3-3.5
		c-5.8-5.9-11.7-11.7-18.1-18c1.6-5.8,2.8-12.8-0.2-19.9c-0.9-2.2-0.5-5.1-0.1-7.5c0.6-3.7,1.7-7.3,2.6-11.1
		c4.1-0.9,8.6,1.2,11.3,5.5c1.6,2.6,3.8,5,5.1,7.7c1.4,3,2.5,6.3,2.7,9.5c0.2,3.8,1.2,6.7,3.6,9.8c4.9,6.1,8.1,12.9,4.6,21.1
		c-1.3,3.1-1.9,6.6-2.7,9.9c-2,7.8,2.2,13.5,10.4,13.8c4.3,0.1,8.5-0.4,11.7,3.7c0.8,1.1,3.6,1.1,5.4,0.8c5.1-1,5.6-0.5,6.1,4.5
		c0.4,4.2,2.8,7.2,6.9,8.6c3.4,1.1,5.7,0.1,8.4-2.2c4.7-4.1,8.7-8.2,9.9-14.6c0.2-1.1,3-2.7,4.4-2.5c13,1.7,25.9,3.7,38.8,5.6
		c8.1,1.2,16.2,2.8,24.3,3c4,0.1,8-2.3,12-3.7c6.8-2.3,13.4-5.2,20.3-6.9c15.7-3.9,19-20.7,14.2-32.2c-1.3-3.1-1.2-5.4,0.3-8.3
		c2.8-5.2,1.9-8.4-2.8-12.3c-0.3-0.2-0.5-0.5-0.7-0.7c-10-7.7-10.5-7.7-8-20.2c2.1-10.7-2.2-18.9-8.7-26.3c-4-4.5-9.3-7.9-13.7-12.1
		c-1.1-1.1-1.5-3.2-1.8-4.9c-0.3-1.8-0.3-3.7,0-5.5c0.9-4.9-3.3-7.9-9.4-7c-2.4,0.4-4.8,0.7-7.6,1c-0.3-3.4-1.5-7.1-0.6-10.1
		c0.8-2.6,3.8-4.8,6.3-6.4c3.5-2.3,10.8,0.6,15.1,5.5c-1.3,4.5-4.5,8.5-1.2,13.8c3.1,4.9,7.6,7,12.6,7.3c4.5,0.3,7.8-3.2,9.5-7.4
		c3.2-7.8,8.9-12.2,17.6-13.5c1,6.3,4.3,10.4,9.6,14.3c5.3,3.9,8.6,10.5,12.6,16.1c0.7,0.9,0.5,2.7,0.2,4c-1.6,5.9,0.7,9.8,6.6,11.1
		c-3.1,12.6,1.4,28.8,9,33c0,3.8,0,7.4,0,11.3c-6.9,1.7-11.2,6.3-13.5,13.2c-0.5,1.3-2,2.6-3.4,3.3c-5.1,2.9-10.8,4.9-10.8,12.5
		c0,1.4-1.9,2.9-3.1,4.2c-4.2,4.7-4,8.8,0.5,13c0.8,0.7,1.7,2,1.7,3c-0.2,4.4,2.8,5.6,6.2,6.2c11.9,2.2,23.9,3.7,35.6,6.6
		c9.6,2.4,16.3-3.9,15.3-12.1c-0.7-5.3,1.9-8.7,6-11.5c1.9-1.3,3.5-3,5-4.3c5,6.2,5.2,14.8,11.4,20.7c2.3,2.2,2.3,7.3,2.5,11.1
		c0.3,10,0.2,20,0.1,30c0,1.9-0.3,4-1,5.8c-1.6,4.1-0.4,7.1,1.8,10.9c2.4,4.2,2.6,9.5,4.3,14.2c1,2.8,2.8,5.4,4.6,7.8
		c5.6,7.2,11.5,14.1,16.9,21.3c1.7,2.2,2.1,5.4,3.2,8.1c2.2,5.2,4.5,10.4,6.8,15.6c3.8,8.6,7.6,17.2,11.4,25.8c0.8,1.9,1.6,4,3,5.5
		c5.7,5.9,8.7,12.7,8,20.9c-0.6,7.8,2.7,12.7,10,15.4c3.9,1.4,7.4,3.4,7.2,8.7c-0.1,2,1.3,4,1.7,6c1.3,5.7,3.6,9.8,10.1,11.4
		c6.4,1.6,7.3,8.2,8.9,13.6c0.6,2.2,1.3,4.4,1.6,6.7c1.1,8.1,6.4,13.1,12.6,17.5c7.1,5.1,10.6,9.3,6.5,19c-0.5-0.3-1.1-0.6-1.5-1
		c-5.1-6-11.3-7.4-19-5.8c-3.7,0.8-8,0.1-11.8-0.8c-7.2-1.7-13.7-1.1-19.8,3.6c-2.1,1.6-4.9,2.4-7.5,3.3c-3.2,1.1-6.5,2.1-9.7,2.9
		c-1.8,0.4-4.3,1.2-5.4,0.4c-6.3-4.7-14.6-6-19.8-13c-3.2-4.3-9.8-3.4-15.3-3.1c-7.8,0.3-11.7,4.9-14.9,11.4
		c-1.7,3.3-5.2,6.1-8.5,8.2c-4.8,3-10,5.5-15.3,7.6c-4.8,1.9-6.4,5.8-8,9.9c-2.6,6.4-8.7,8.3-13.8,11.5c-0.6,0.4-3-0.8-3.6-1.8
		c-1.2-1.9-2-4.1-2.6-6.3c-1.2-4-4-6-7.5-7.8c-1.2-0.6-2.5-3.6-2-4.4c7.4-11.6,1.1-22.1-2.3-32.7c-2.4-7.2-5.2-14.5-9.2-21
		c-5.2-8.4-12.8-14.5-21.1-20.1C2035.4,901.4,2029.2,900.9,2021.5,901.1z"/>
	<path id="_x32_331" class="st0" d="M2376.3,1030.3c-5.1-0.8-9.7-1.3-14.2-2.4c-4.5-1.1-8.5-1.2-12.8,0.9c-1,0.5-4.2-1.6-5.2-3.3
		c-4.7-7.4-17.1-7.9-22-0.8c-1.1,1.6-2.1,3.3-3.3,4.9c-2.3,3.1-5.1,4.1-9.1,2.7c-6.1-2.1-11.7,0.7-17.3,2.6c-1.6,0.6-2.6,3-3.6,4.3
		c-8.2-8.4-7.6-19.8-9.8-30.4c-0.6-2.7-0.7-5.5-1-8.3c-1-7.3-1.7-14.6-3.3-21.8c-0.5-2.3-3.3-4.3-5.5-5.8c-6-4.3-6.9-6.8-3.6-13.2
		c1.1-2.2,0.7-3.4-0.3-5.6c-3.5-6.9-9.3-11.1-14.9-16c-3.1-2.7-4.6-7.7-6.2-11.8c-1.2-3-1.6-6.3-2.2-9.5c-1.3-7-5.7-11.1-12.3-13
		c-2.9-0.8-4.2-2.4-4.7-5.4c-0.7-4.2-1.4-8.6-3.4-12.2c-1.7-3-4.8-5.9-8-7.3c-5.4-2.4-9.1-5.1-8.6-12.4c0.6-8.9-2.1-16.6-8.6-23.2
		c-2.1-2.1-3-5.7-3.9-8.8c-3.3-11.1-9.6-20.6-14.7-30.7c-3.5-7-4.2-15.4-9.7-21.6c-4.6-5.3-9.6-10.2-13.7-15.9
		c-2.5-3.4-4.6-7.7-5.1-11.8c-0.4-4.1-1.4-7.5-3.7-10.8c-1-1.4-1.6-3.7-1.3-5.4c3-14.3,1.7-28.6,0.9-42.9c-0.3-5-2-8.4-5.5-11.6
		c-0.9-0.8-1.2-2.2-1.7-3.3c-1.3-2.7-2.9-5.3-3.8-8.2c-0.6-2.1-1.3-5.6-0.2-6.7c6.1-5.8,8.6-13.3,12.1-20.5c1.3-2.8,3.8-5.3,6.4-7
		c4.1-2.7,6.5-6.1,6.5-10.8c0-6.9,0.4-13.6,2.7-20.4c1.3-3.8,0.2-8.4,0-12.6c-0.1-2.3-0.6-4.5-1-6.6c8.8-3.5,16-7,19.8-16.9
		c2.9-7.5,10.1-13.3,15.7-19.6c3.7-4.2,8.3-7.7,11.7-12.2c1.9-2.5,2.3-6.3,3.1-9.6c1.2-4.9,5.4-6.7,9.3-7.4c6.8-1.3,13.2,0.7,19,4.7
		c5.8,3.9,10.8,6.3,19.2,0.3c3.2-2.3,7.4-3.3,11.2-4.5c5-1.5,7.1-5.4,9.1-9.6c1.9-4.1,4.1-8,6-12.1c1.5-3.3,2.8-6.6,4.5-10.6
		c4.4,0.2,9.9,0.3,15.4,0.8c5.7,0.5,11.4,1.4,17.1,1.9c13.6,1.1,27.3,2,40.9,3.1c4.5,0.4,10.6,6.9,11.2,11.2
		c0.5,3.9,1.2,7.7,2.3,11.5c0.8,2.9,2.8,5,6.3,4.3c4.3-0.9,8.5-1.9,12.8-2.8c2.1-0.4,4.1-0.9,6.2-1.2c3.9-0.6,7.9-0.8,11.7-1.9
		c5-1.3,11.2,0.2,14.4,4.3c1.8,2.3,3.5,4.7,5.1,7.2c4.9,7.3,13.1,8.2,19.6,2.4c2.5-2.3,5.5-4.3,8.6-5.5c6.6-2.6,8.8-8.5,11.6-14
		c3.6-6.9,6.6-14.2,10.5-20.9c3.4-5.7,9.7-6.9,15.7-7.6c6.1-0.7,9.1-3.3,10.1-9.1c0.5-2.7,1.9-5.4,3.5-7.7c0.5-0.7,2.9-0.7,4.2-0.3
		c10.8,3.1,21.5,6.4,32.3,9.5c5.5,1.6,9-1.4,7.9-6.9c-2-10-4.5-20-6.8-30.4c6.6-0.1,11.9,2.6,16.9,6.4c3.5,2.7,7,5.4,10.3,8.3
		c2.4,2.1,4.8,2.3,7.6,1.1c5.8-2.6,11.8-4.5,15.5-10.5c1.2-2,5.1-3.2,7.8-3.3c9.7-0.4,14.2,1.4,17.8,9.7c1.4,3.1,3.8,6.3,6.6,7.9
		c4.2,2.5,7.1,0.7,8.2-4.1c4.7-19.6,9.3-39.3,14.1-58.9c5.8-24,11.3-48.2,17.8-72c4.3-15.9,2.7-30.2-6.8-43.6
		c-1.3-1.9-3-3.5-4.5-5.2c-5.1-6.2-8-12.9-5.7-21.3c1.1-3.9,3.8-4.5,6.5-4.5c6.4-0.1,12.9,0.4,19.3,1c1.2,0.1,2.9,1.9,3.3,3.3
		c2,5.7,3.1,11.7,5.5,17.1c3.1,7.2,8.5,11.9,16.7,13.7c7,1.5,10.7,7.8,12.6,13.9c2.5,7.9,6.9,13.9,12.4,19.7
		c5.8,6,10.8,12.8,16.4,19.1c1.7,2,4.1,3.4,5.9,5.2c2.2,2.3,4.4,2.1,7.1,0.8c15.1-7.5,30.2-14.9,45.4-22.3
		c6.7-3.3,13.6-6.3,21.1-9.9c-1.2,2-1.9,3.5-2.9,4.7c-8.3,9.6-8,20.5-5.4,32c1.3,5.5,2.1,11.3,2.3,17c0.4,10.1-8.6,20.3-18.6,21.5
		c-5.1,0.6-10.2,2.4-15.4-0.6c-1.2-0.7-5.1,1.3-6.4,3.1c-7.2,10.1-14.1,20.4-21,30.7c-3.9,5.9-3.7,8.2,2.6,11.3
		c14.6,7.1,21,20.3,27,34.1c5.8,13.4,18.6,22.5,34,19.5c3.7-0.7,7.4-1.3,11.1-1.9c5.8-0.9,11.2-2.6,15-7.5c1.2-1.5,2.8-2.7,4.4-4.2
		c0.5,6,1.2,11.5,1.5,17c0.8,12,1.6,24.1,2,36.1c0.5,14.6,0.4,14.8,13.7,34c-5.8,3.6-11.8,6.9-17.2,10.9c-4.4,3.3-7.9,7.8-12.3,11
		c-4.1,3-8.8,5.7-13.6,7.2c-2.3,0.7-5.8-1.1-8.3-2.6c-6-3.6-11.6-7.8-17.4-11.6c-3-1.9-6.5-3.2-9.1-5.5c-3.3-2.9-6.1-2.3-8.8,0
		c-8.4,7.5-16.7,15.1-24.9,22.8c-3.8,3.6-3.1,6.2,1.2,9.4c9.8,7.1,19.3,14.5,29.2,21.6c1.4,1,4.1,1.8,5.5,1.1
		c6.2-2.9,9,1.5,10.7,5.5c1.8,4.3,5.8,8.8,1.9,14.3c-6.4,0.8-13.2,1.4-20,2.5c-2.4,0.4-5.6,1.4-6.8,3.2c-4,5.9-10.1,8.1-16,10.8
		c-7.9,3.6-12.1,9.3-11.5,18.1c0.1,1.3,0,2.7-0.9,3.5c-1.7,2.5-3.4,5.1-5.2,7.5c-0.5,0.7-1.4,1.5-2.2,1.7
		c-16.7,3.7-33.4,7.4-50.1,11.1c-21.5,4.8-42.9,9.5-64.3,14.4c-7.2,1.7-15,1.9-21,7.3c-0.7,0.7-3.3,0.5-4.2-0.3
		c-3.4-2.9-6.2-1.1-8.1,1.3c-4.3,5.2-8.2,10.6-11.9,16.2c-3.5,5.2-7.6,9.5-13.8,11.6c-7.2,2.4-11.9,10.1-12.4,17.8
		c-0.6,10-2.1,20-2.7,30c-0.2,3,0.6,6.2,1.7,9c1.3,3.4,4.3,3.6,7.5,0.7c3.2-2.9,6.1-6.2,9.3-9.1c3.3-3,6.6-6.1,10.4-8.3
		c3.2-1.9,7.2-2.7,10.9-3.6c7.9-1.9,16-3.2,23.7-5.5c5.3-1.6,9.6-1.6,13.9,2.2c1.7,1.5,4.3,2.4,6.7,2.9c6.4,1.2,10,5.4,12.6,10.9
		c1.9,4.3,3.3,9,6.1,12.6c2.6,3.3,6.6,5.5,10.2,7.9c6.9,4.6,13.9,9.1,21,13.5c1.6,1,3.5,1.5,5.4,2.3c-1.2,5.8-2.3,11.5-3.5,17.2
		c-0.6,2.6-1.8,4.4-4.9,5.2c-5.2,1.3-9.7,5-15.5,3.8c-1.3-0.3-2.6-0.3-3.8-0.8c-8.8-3.4-17-0.4-21.8,8.2c-1.5,2.7-2.7,5.6-4.3,8.3
		c-0.6,0.9-1.8,1.5-2.7,2.2c-0.6-1-1.7-2-1.8-3.1c-0.5-4.2-0.9-8.5-1-12.8c-0.2-6.1-1.1-6.7-6.8-7.2c-5-0.5-10.1-1.4-14.8-3
		c-9.3-3.3-17.5-3.6-24.8,4.6c-2,2.3-6.5,2.4-9.9,3.4c-5.1,1.5-10.5,2.5-15.4,4.6c-1.9,0.8-3.9,3.7-4.2,5.8c-1.1,9-0.8,18.2-2.4,27
		c-1.2,6.3-0.7,12.1,0.1,18.2c0.6,4.3-1.1,8-5,10.5c-3.2,2-5,4.4-3.2,8.6c2.2,5.1,3.3,10.6,5.5,15.6c1,2.4,3.5,4.1,5.5,6
		c2.5,2.4,3.4,4.9,0.8,7.7c-3.1,3.3-7.2,6.1-9.3,9.9c-2.9,5.3-4.4,11.4-6.2,17.2c-1.3,4.1-2.5,7.7-5.5,11.4
		c-4.3,5.5-7.4,12.3-9.6,19c-2.3,7.1-8,10.3-13,14.6c-2.9,2.5-5.5,5.4-8.1,8.2c-3.2,3.4-7.1,4.4-11.6,3.5c-2-0.4-4.1-0.6-6.1-0.8
		c-0.3,0.4-0.6,0.9-0.9,1.3c2.4,3.3,4.8,6.7,7.3,10c3.5,4.4,7.1,8.6,10.8,12.8c4.6,5.2,4.2,8.6-2.4,11.3c-8.7,3.6-10.4,11.7-13,19.1
		c-0.5,1.3,0.6,3.1,0.9,4.7c0.7,3.3,1.2,6.7,2,10c0.5,2.5,0.7,5.3,2,7.4c5,7.9,4.1,16.2,2.3,24.7c-0.6,2.9-1.8,5.6-2.1,8.5
		c-0.5,3.9-1.3,8,2.7,10.9c1,0.7,1.5,2.1,1.9,3.4c2.3,6.3,4.4,12.7,6.7,19c0.4-0.1,0.8-0.3,1.2-0.4c-1.1,2.1-2.2,4.3-3.6,6.9
		c-5.4-6.7-11.9-5-18.5-3.5c-3.5,0.8-7.4,1.7-10.8,1.1c-5.3-0.9-11.6-10.6-11.8-16.5c-0.3-10.1-1.3-11.1-11.4-11.7
		c-2.6-0.2-5.2-0.8-7.1-1c-2-3.1-3.8-5.8-5-7.5c-8.8,5.1-16.4,9.5-24.1,13.6c-1.4,0.7-4,0.6-5.4-0.2c-9.1-5.1-18.3-2.6-27.1,0
		c-4.8,1.4-8.7,1.3-12.6-1.2c-4.8-3.1-9.6-6.3-13.9-10.1c-1.5-1.3-2.2-4.4-1.9-6.5c1.2-6.5,0.3-9.4-5.2-13.4
		c-3.5-2.6-4.8-6.1-5.6-10.5c-1.4-7.9-1.2-15.3,2.2-22.6c1-2,1.7-4.3,1.9-6.5c0.7-5.6,3.4-9.8,7.6-13.6c1.6-1.5,2.1-4.6,2.4-7.1
		c0.6-4.7,0.7-9.5,1.1-14.3c0.2-1.7,0.4-3.9,1.5-5.1C2372.7,1051.3,2372.8,1040.9,2376.3,1030.3z"/>
	<path id="_x32_337" class="st0" d="M1531.7,1670.7c-4.1,0.4-7.3,1-10.5,1.1c-3.4,0-6.8-0.5-10.2-0.7c-1.8-0.1-3.7,0-5.5-0.3
		c-1.5-0.2-3.2-0.5-4.4-1.4c-4.5-3.3-9-6.6-13.2-10.3c-1.7-1.6-3.9-4.3-3.6-6.2c0.9-8.1-4.8-10.3-10.3-13c-1.3-0.6-2.3-2.2-2.9-3.6
		c-2-5.1-2.8-11.1-6-15.2c-3.9-5-7.5-9.5-9.3-15.8c-1-3.7-2.3-7.9-7.2-9.9c-1.9-0.8-2.2-5.8-2.9-9c-1.4-6.2-2.9-12.4-3.6-18.7
		c-0.4-3.1,0.7-6.5,1.3-9.6c1.7-8,1.8-15.9-2.6-23c-1.8-2.9-4.6-5.1-7.1-7.6c-3.5-3.5-1.6-7.1,0.9-9.5c6.6-6.2,13.5-12.2,20.7-17.8
		c4.6-3.6,9.8-6.3,14.8-9.3c7.8-4.6,15.2-1.9,22.1,2.1c6.7,3.9,13.8,5,21.2,4.8c1.2,0,3.5-2.8,3.3-3.4c-3.8-8.9-0.1-16.8,2.4-25.1
		c1.5-5.1,2.3-10.5,2.6-15.8c0.1-2-1.7-4.1-2.9-6.1c-4.4-7.3-6-14.6-1.5-22.5c2-3.6-1-5.4-3.6-6.8c-4.3-2.3-8.8-4.1-12.8-6.8
		c-4.9-3.3-10.3-4.6-15.6-3c-4,1.2-5.6-0.5-7.2-3c-2.9-4.5-5.1-9.6-8.4-13.8c-2.9-3.6-6.6-6.7-10.5-9.3c-4.2-2.8-8.8-4.9-13.4-7.2
		c-3.1-1.6-2.8-3.3-0.8-5.7c4.2-5,9.4-9.7,12-15.5c2.1-4.9,1.8-11.3,1.2-16.8c-0.4-3.6-1.2-6.8,0.3-10.3c1-2.4,0.9-4.5-2.1-6.1
		c-3.4-1.8-5.9-4.2-3.1-9c0.9-1.5-1.5-5.2-2.8-7.5c-1.3-2.2-3.6-3.9-4.9-6.1c-2-3.3-0.8-5.4,3.1-5.9c1.1-0.2,2.3,0,3.5,0
		c6.5,0,8-1.2,8.8-6.6c0.8-5.2-1.4-8.6-6.7-10.3c-9.7-3.1-19.3-6.1-29-9.2c-3.2-1-7-6.9-7.3-11c-0.4-4.8,2.7-6.6,6.5-8
		c7.8-2.8,7.1-1.8,13.6,3c5.1,3.7,10.8,9.8,18.9,6.1c0.3-0.1,0.7,0,1-0.1c2.6-0.7,6.8,2,7.1-3.6c0.5-7.7-0.7-10-6.3-12.2
		c-4.7-1.8-9.2-3.9-13.9-5.9c-0.4-0.2-1.1-0.3-1.3-0.6c-3.9-8.1-12.9-9.1-19.1-14.1c-1.7-1.4-3-4.1-3.2-6.3c-0.1-1,2.8-2.5,4.5-3.4
		c3.8-1.8,7.7-3.4,11.7-4.9c1.5-0.6,3.1-0.9,4.6-1.1c5.8-0.4,12,0.5,17.2-1.4c6.2-2.3,12-6.5,17.2-10.9c6.8-5.7,12.6-12.5,19.1-18.6
		c0.9-0.9,3.4-0.8,4.8-0.2c12.1,5.2,24.2,10.5,36.2,16.1c3.9,1.8,6.3,1,7.8-2.9c1-2.7,2.2-5.5,2.5-8.3c0.3-3.6,1.2-6.2,4.6-8
		c2.3-1.2,4.2-4.5,6.2-4.4c3,0.2,6.3,2,8.8,4c3.9,3.2,7.6,2.1,11.2,0.3c19.4-9.9,38.7-20,58.1-30c1.1-0.6,2.3-1.1,3.8-1.9
		c8.4,9.2,16.6,18.5,25.3,27.4c7.4,7.6,15.6,14.4,23.1,21.9c4.6,4.6,10.2,4.3,15.8,4.9c4.6,0.5,9.2,0.7,14.3,1.1
		c1.4,9.2,2.8,18.4,4.3,28.2c13.6-0.8,27.1-1.5,40.6-2.2c0.3,0,0.7-0.1,1-0.1c7.8,1.5,13.7-1.5,18.5-7.7c0.6-0.8,2.7-1,3.8-0.6
		c11.9,4.3,24.2,7.9,35.5,13.5c8.2,4.1,16.2,8.7,24.5,12.6c6.7,3.2,6.5,10.7,8.7,16.6c2,5.5,2.7,11.4,5,16.7
		c3.6,8.4,8.1,16.3,12.3,24.4c1.3,2.5,1.5,4.4-1.3,6.1c-2,1.1-3.9,2.6-5.3,4.3c-1.2,1.6-2.6,4-2.2,5.6c0.4,1.5,3.1,2.8,5,3.2
		c12.9,2.5,24,8.9,34.8,15.9c0.8,0.5,1.2,2.7,0.9,4c-1.1,4.6-3.2,8.9-3.8,13.5c-1.1,8.5-5.8,13-13.5,15.9c-4.5,1.7-9.3,4.1-12.6,7.5
		c-6,6.2-4.2,14.5-3.6,22.1c0.5,6.4,1.8,12.5-2.6,18.4c-1.3,1.8-0.6,6.8,1.1,8.9c7,8.9,4.5,20.1-5.9,23.9c-5.5,2-10.2,4.9-13.5,10
		c-3.5,5.4-6.3,5.5-9.6,0.1c-2.1-3.4-4.6-3.7-7.4-2.6c-3.1,1.1-4.3,6.4-2.3,9.4c1.5,2.3,3.6,4.3,5.7,6.1c2.8,2.3,6.4,3.7,8.5,6.4
		c1.5,2,1.5,5.5,1.3,8.2c-0.1,2-1.5,3.9-2.4,5.8c-3.6,8.1-3.6,8.1-11.5,4.6c-0.9-0.4-1.8-0.9-2.7-0.9c-5.5,0-12.8,10.2-11.1,15.6
		c3.1,9.6,3.1,9.6-3.5,16.8c2.6,2.2,4.9,4.9,7.8,6.5c3.4,1.9,5.3,3.2,2,6.9c-0.7,0.8-0.5,3,0,4.4c1.5,4.1,3.6,8,4.8,12.1
		c0.5,1.8-0.6,4.1-0.9,6.1c-1.6-0.6-3.7-0.9-4.9-2c-2.4-2.2-4.5-3.5-7.8-1.4c-3.5,2.3-3.2,5.5-1.6,8c1.9,2.9,4.7,5.5,7.6,7.5
		c2.3,1.6,5.5,1.9,8.8,2.9c-1.5,2.5-2.7,5-4.4,7.2c-3.7,4.6-3.1,10.2-2.9,15.4c0.1,2.4,2.8,5.6,5.2,6.8c12.1,5.7,24.4,11,36.8,15.9
		c2.6,1,3.1,2.2,3.3,4.6c0.4,4.7,0.7,9.5,1.9,14c0.7,2.7,2.9,4.9,4.4,7.4c0.6,1.1,1.8,2.7,1.4,3.5c-2.3,5.1-4.9,10-7.6,15.2
		c-4.4-3.5-9.6-4.3-15.6-2.8c-1.8,0.5-4.2-0.5-6-1.4c-6.6-3.6-12.8-1.3-19.3,0.5c-3.7,1-8.2,1.1-11.9,0.2c-8.3-2-10.3-1.5-15.7,5.5
		c-1.4,1.8-4.2,3.3-6.5,3.5c-9.6,0.5-16.8,5.6-20.4,14.4c-1.2,2.9-3.4,6.6-5.9,7.4c-4.8,1.6-9.5-1.5-12.1-6.2
		c-0.9-1.6-1.7-3.2-2.6-4.8c-1.3-2.6-2.7-4.6-6.3-3.9c-3.6,0.7-6.6,1.4-7.2,5.9c-0.2,1.5-2,3.2-3.5,4.1c-6,3.4-6.5,7.1-4.3,14.3
		c0.5,1.5,1.2,3,1.9,4.5c4.3,9.5,8.7,12.2,18.9,11.3c3.7-0.3,6.2,0.7,7.9,4.2c2.7,5.8,8.4,7.9,13.5,10.9c2.8,1.7,5.3,3.8,8,5.7
		c-0.2,0.3-0.5,0.7-0.7,1c-1,0-2.1,0.3-2.9,0c-4.9-1.9-8.7-0.9-12.2,3.3c-3.2,3.7-6.9,7.5-12.4,6.8c-2.1-0.3-4.2-1.9-6-3.3
		c-3.6-2.7-6.7-6.9-10.7-8.3c-4.2-1.4-9.2-0.2-14.4-0.1c-4.5-3-10-6.6-15.6-10.2c-6.5-4.3-12.6-8.5-17-15.7
		c-3.2-5.1-9.8-8-14.6-12.2c-3.1-2.7-6.3-5.5-8.8-8.8c-5.1-6.9-10.1-13.7-18.2-17.7c-1.8-0.9-2.7-4.2-3.6-6.5
		c-3-8.4-5.9-16.8-8.7-25.3c-2.4-7.2-6.9-12.2-14.2-15.1c-2.6-1-4.4-4.6-6.3-7.2c-4.3-5.9-9.1-6.7-13.8-1.1c-5,6-12.3,8.6-17.6,13.6
		c-8,7.5-18.2,11.5-26.2,18.5c-5,4.4-9.6,8.4-16.3,9.2c-3.5,0.4-4.8,2.6-6,5.6C1534.1,1667,1532.5,1669.3,1531.7,1670.7z"/>
	<path id="_x32_335" class="st0" d="M2052,1152.3c-2.3-5.6-4.4-11-6.6-16.4c-1.4-3.6-2.5-7.4-4.5-10.6c-1-1.5-3.9-2.7-5.9-2.6
		c-6.8,0.5-16.3-6.7-15.8-13.5c0.5-6.3-2-11-5.4-15.7c-0.7-0.9-2.2-1.7-2.3-2.6c-0.5-10.7-12.2-14.3-14.9-23.6
		c-0.2-0.7-1-1.5-1.7-1.8c-6.3-2.5-6.3-8.2-7-13.5c-1.1-8.4-2.2-16.9-2.9-25.4c-0.2-3.2,1-6.4,1.3-9.7c0.3-3.8,0.5-7.6,0.6-11.4
		c0.1-5-0.1-10,0-15c0.1-3.5-1.1-6-4.5-7.4c-3.8-1.6-5.9-4.1-5.7-8.6c0.1-2.6-1.4-5.3-2-8c-0.7-3.1-2.4-6.6-1.6-9.3
		c1.8-6.5,0.4-11.6-4.1-15.7c1.4-2.1,3.3-3.8,3.7-5.7c0.9-5,4.4-6.4,8.5-8c12.4-4.8,24.7-10,37.1-15.1c0.6,4.3,0.6,8.2,1.7,11.7
		c0.6,2,2.6,4.7,4.3,5c1.9,0.3,4.6-1.3,6.1-2.9c0.9-0.9,0.6-3.5,0.2-5.1c-1.5-5.8-3.2-11.5-4.9-17.4c4.8-0.2,9.7,0.1,13.8,3.9
		c6.2,5.8,13.8,10.5,18.5,17.3c5.5,8,8.7,17.7,12.7,26.7c1.3,3,1.7,6.3,2.8,9.3c1.8,4.9,1.6,9.4-0.8,14.2c-3.3,6.6-2.8,8,3.6,11.6
		c4.8,2.7,5.1,8.1,7.4,12.2c0.8,1.4,1.2,2.9,2.4,5.7c6.2-3.7,11.9-7,17.4-10.5c0.6-0.4,1.1-1.3,1.3-2c1.6-8.5,8.2-11.6,15.1-14.7
		c4.9-2.2,9.4-5.3,13.8-8.4c2.3-1.6,4.5-4,5.5-6.5c2.1-5.3,5.4-8.3,11.1-8.7c6.1-0.4,11.3-0.2,16.5,4.7c5.4,5.1,12.8,8.2,19.4,11.9
		c1,0.6,2.7,0.3,3.9-0.1c5.7-1.8,11.3-3.7,16.9-5.8c3.7-1.4,7-3.9,10.8-4.9c3.3-0.8,7.4-1,10.4,0.3c5.2,2.2,10.2,1.7,14.9,0.3
		c5.3-1.6,8.9,0.4,12.5,3.5c4.9,4.3,9.8,8.5,14.6,12.9c0.7,0.6,1.4,1.5,1.6,2.3c1.1,7.1,2.2,14.2,3.1,21.3
		c1.7,14.4,2.7,28.9,11.5,41.4c1.8,2.5,3.3,2.5,4.3,0.2c3.7-8.1,11-7.6,17.6-7c6.9,0.6,9.8,0.3,13.6-5.2c0.7-0.9,1.3-1.9,2-2.7
		c5.4-6.8,12-6.5,17.5,0.4c2.6,3.2,5.4,6.3,10.7,3.4c2.2-1.2,5.6-0.6,8.4-0.3c3.7,0.3,7.4,1,11.5,1.6c-1.4,6.3-2.6,12.5-4.3,18.6
		c-0.6,2.1-2.8,3.6-3.9,5.6c-3.7,6.3-4,13.4-3.8,20.5c0.1,3-0.7,5.2-2.9,7.4c-3.9,4-6.8,8.6-7.3,14.6c-0.2,2.5-1,5.2-2.2,7.5
		c-4.4,8.2-3.2,16.7-1.2,25c0.8,3.5,3.8,6.7,6.5,9.4c2.9,2.9,5.1,5.7,3.6,9.8c-1.8,4.9,0.1,8.4,3.9,11.1c4.3,3.2,9,5.9,13.3,9.2
		c4.9,3.8,9.7,3.1,15.3,1.6c8.4-2.3,17-4.8,25.6,0.3c1.8,1.1,5.4,0.9,7.3-0.1c6.7-3.6,13.1-7.9,19.7-11.9c0.8-0.5,1.7-0.7,3.3-1.4
		c-2.1,10.5,6.5,6.4,10.6,8.2c2.7,1.2,6,1,8,1.3c1.6,6.1,2,12.1,4.8,16.7c2.3,3.9,4.1,9.9,10.2,10.2c3.9,0.2,7.9-0.3,11.9-0.8
		c3-0.4,6-1.9,9-1.8c2.1,0.1,4.4,1.7,6.3,3c1.4,0.9,2.4,2.4,3.6,3.8c0.8-0.9,1.2-1.4,1.6-1.9c5-6.1,5.7-12,0.2-18.5
		c-1.9-2.3-2-6.1-3.2-9.1c-1-2.5-2.8-4.8-3.8-7.3c-0.7-1.9-1.3-4.2-1-6.1c1-6.4,3-12.7,3.6-19.2c0.3-4-1.3-8.2-2.2-12.2
		c-1-4.4-2.3-8.7-3.4-13.1c-0.4-1.7-0.3-3.6-0.9-5.2c-2.4-6.4-0.3-16.3,4.7-20.9c2.1-2,3.6-2.6,5.3,0.5c1.4,2.5,4.1,4.4,5.4,7
		c1.1,2.2,1.8,5.1,1.5,7.5c-0.7,5.5,1.8,11.3,7.7,13.5c10.6,3.9,15.5,12.9,20.8,21.8c3.1,5.3,6.3,10.8,10.4,15.2
		c3.2,3.3,3.6,5.9,2,9.8c-1.8,4.5-3.8,9.1-1.5,14c1.1,2.2,2.5,4.7,4.5,6c5.9,4.2,9.5,9.9,11.7,16.6c0.4,1.3-0.9,3-1.1,4.5
		c-0.3,3.1-0.9,6.3-0.3,9.3c1,4.9,3.8,9.5,0.4,14.7c-1.8,2.8,0.9,6.9,4.9,8.8c1.5,0.7,3.2,1.8,3.8,3.1c1.8,4,4.6,4.7,8.5,3.6
		c2.2-0.6,4.7-0.7,6.5-1.8c1.6-0.9,3.1-2.8,3.5-4.5c1.1-4.4,0.9-9.2,2.4-13.5c1.2-3.6,4.1-6.5,6.1-9.8c3.9-6.4,7.8-12.8,11.3-19.5
		c2.1-4.1,4.3-3.3,7.2-1.3c5.8,3.9,7.2,3.7,11-2.2c2-3.2,3.3-6.9,5.2-10.2c2-3.5,4.4-6.8,6.7-10.2c2.8-4.2,5.8-8.2,8.4-12.5
		c0.8-1.2,1.1-3.3,0.6-4.7c-2.5-6.7,0.4-11.8,4.8-16.4c1.1-1.2,3-1.5,4.7-2.1c1.5-0.6,3.8-0.4,4.5-1.5c4-5.3,9.7-3,14.7-3.6
		c2.2-0.3,4.4-0.8,6.5-1.5c3.6-1.1,7.2-3.2,10.8-3.4c9.3-0.5,12.8-2.8,15-11.5c2.4-9.5,2.4-9.5,12.3-8.3c2.2,7.8,4.5,15.8,6.6,23.9
		c0.7,2.8,1,5.8,1.3,8.7c0.5,5.4,1,10.9,1.1,16.3c0.2,11.2,0,22.4,0.1,33.7c0,2.4,0.3,4.9,1,7.3c4.2,15.3-6.5,22.5-16.5,29.7
		c-3.7,2.7-6.7,5.1-8.7,9.4c-3.8,8.1-8.2,15.5-9.4,25c-0.9,7.4-4,15.2-11.6,19.6c-1.3,0.7-2.1,2.5-2.7,4c-1.8,4.3-3.4,8.7-5.1,13.1
		c-1.8,4.4-3.9,8.7-8.8,10.5c-0.6,0.2-1.1,0.8-1.4,1.4c-3.6,7.4-10,5.8-16.4,5.6c-5.5-0.2-11.3,0.2-16.4,1.8
		c-8.3,2.7-9.4,2.8-13.2-4.8c-2-4-7.8-4.9-11-1.6c-0.8,0.8-1.3,1.8-2,2.8c-4.1,6.2-4.1,6.2-11.6,3.9c-5.5-1.7-8.4,0.1-10.8,5.3
		c-1.5,3.2-3.8,6.5-6.6,8.6c-6.2,4.6-5.9,11.4-6.7,17.7c-0.7,5.3-0.6,5-5.8,3.1c-3.1-1.2-7.1-0.2-10.8-0.2c-1.7-6.4-2.4-6.4-10-7.3
		c-4.2-0.5-8-3.6-12.1-4.5c-3-0.7-6.7-0.4-9.6,0.7c-4.8,1.9-9.1,5-13.7,7.4c-5.5,2.8-12.2,3.6-15.5,10.2c-0.5,1.1-3.6,1.5-5.5,1.3
		c-7-0.5-12.8,1.3-18,6.2c-2.8,2.5-6.8,3.6-10.2,5.5c-3.7,2-6.9,4.5-7.2,9.2c-0.4,6.5-6.5,7.2-10.3,9.9c-5.9,4.3-11.7,5.3-18.5-0.1
		c-5.8-4.6-13.6-5.4-20.6-2.2c-5.1,2.3-6.8,7.5-7.5,12.5c-4.3,0-8.5-0.1-12.7,0c-1.2,0-2.6,0.4-3.6,1.1c-5.9,3.9-13.2,1.5-14.2-5.5
		c-0.8-5.1-0.4-10.7,0.6-15.8c1-5.4,2-10.3-0.1-16c-2.1-5.7-2.3-12.1-3.2-17.3c3.5-2.5,6.8-4.9,10.2-7.4c-0.2-0.6-0.4-1.1-0.6-1.7
		c-3.1-1.1-6.2-2.3-9.4-3.1c-28.1-7.5-56.3-14.9-84.4-22.4c-7.7-2-15.5-4-23-6.4c-3.4-1.1-4.2,0.2-5.3,2.9
		c-11.2,29.4-22.4,58.7-33.8,88c-0.8,2-2.6,4.1-4.5,5.2c-4.1,2.3-8.3,4.7-12.8,5.8c-2.6,0.6-6.4-0.3-8.6-1.9
		c-5.1-3.9-10.2-5.4-16.4-3c-1.1,0.4-3.7-0.5-4.4-1.6c-2.4-3.8-4.7-7.8-6.4-12c-0.7-1.8-0.2-4.3,0.1-6.4c0.4-2.9,1.6-5.7,1.6-8.6
		c0.2-5.9,2.6-10.6,5.9-15.3c1-1.4,2.2-4,1.6-5c-1.2-1.9-3.6-4.2-5.6-4.3c-6.6-0.5-13.3-0.3-20-0.2c-6.7,0.2-12.4-2-18-5.4
		c-3.8-2.3-8-4.1-12.2-5.5c-4-1.3-5.6-2.8-3.7-7c1.4-3.2,2-6-1.7-9c-3.3-2.7-4.3-6.5-2.8-11.6c4.4-14.4,7.9-29.2,11-43.9
		c0.8-3.9-0.9-8.3-1.4-12.4c-0.3-2.3-1.3-4.6-0.9-6.7c1.7-8.2,3.9-16.4,5.9-24.6c2.4-9.5-0.2-17.9-5.4-25.9
		c-5.5-8.4-12.1-15.3-20.6-20.6c-4.3-2.7-4.5-6.5-3.1-11.2c2.3-7.7,4.5-15.5,3.2-23.9c-0.9-6.2-5.4-9-9.6-12.4
		c-1.8-1.5-4-2.4-3.8-5.7c0.2-1.9-1.2-5.4-2.4-5.7c-2.2-0.5-5.4,0.2-7.2,1.6c-1.7,1.4-2.6,4.3-2.7,6.6c-0.1,3,1.1,6.1,1.4,9.1
		c0.1,1.3-0.7,2.8-1.3,4c-1.7,2.9-3.4,5.9-5.4,8.6c-1.1,1.6-3.3,4.1-4.1,3.8c-5.4-1.9-6.6,3.4-9.9,5c-0.9,0.4-2,0.9-2.8,0.7
		C2057.4,1154.2,2054.6,1153.1,2052,1152.3z"/>
	<path id="_x32_338" class="st0" d="M1880.2,1646.5c-9.6-6-9.3-15.1-9.2-24.2c0-2.4-0.7-3.5-3.2-4.5c-13-5.3-25.8-11-38.6-16.8
		c-1.7-0.8-4.1-3.4-3.9-4.7c0.9-5,0.4-10.3,4.4-14.7c5-5.4,3.6-9.3-3.2-11.5c-4.2-1.4-9.5-1.4-10.2-7.4c-0.2-1.4,0.7-2.9,1.1-4.4
		c1.3,0.5,2.8,0.7,3.8,1.6c2.4,2.2,4.6,4.9,8,2.3c3.3-2.5,4.4-5.9,2.8-9.9c-1.6-3.9-3.3-7.7-4.7-11.6c-0.4-1.1-0.1-2.7,0.5-3.7
		c2.3-4.3,1.4-6.9-2.8-9c-2.3-1.1-4.2-2.9-6.9-4.8c7-4.6,6.4-9.7,3.1-15.5c-2.2-3.9-0.2-6.6,2.7-9.8c3.9-4.3,7-3.2,11.1-1
		c2.8,1.6,6,1.1,7.7-2c3.3-6.1,7.2-12.2,6.3-19.7c-0.2-1.6-1.5-3.4-2.8-4.4c-3.5-2.9-7.4-5.3-11-8.2c-1.3-1.1-2.5-2.8-2.9-4.4
		c-0.3-1.1,0.6-2.9,1.6-3.8c0.4-0.4,2.3,0.7,3.4,1.3c0.5,0.3,0.9,0.9,1.3,1.4c4.3,5.3,8.1,5.8,12.4-0.6c3.6-5.3,8.7-8.2,14.4-10.5
		c10.7-4.2,13.9-18,6.6-26.9c-1.3-1.6-2.2-5.6-1.1-7c4.5-6.2,3.3-12.7,2.7-19.4c-0.4-4.6-0.8-9.3-0.2-13.9
		c0.8-5.9,4.7-9.8,10.4-11.8c2-0.7,3.9-1.7,5.9-2.3c9.8-2.9,12.6-10.8,14.5-19.6c0.8-4,1.6-8,3.3-11.7c2-4.3-1.5-5.9-3.5-7
		c-9.7-5.3-19.6-10.1-29.6-14.8c-2.2-1-5-0.9-8.4-2.6c2.6-2.3,5-5.1,8-7c3.2-2.1,3.4-4,1.8-7.2c-5.6-11.2-11.4-22.3-16.3-33.9
		c-2.6-6-3.5-12.8-5.1-19.2c-0.2-0.7,0.6-2.3,1.2-2.4c7.1-1.5,9.4-8.6,14.7-12.2c7.1-4.7,13.6-10.2,20.5-15.2c0.8-0.6,2.2-1,3.1-0.7
		c8,2.8,15.9,5.8,24.4,8.9c-3.3,4.5-8.4,7.9-5.7,13.6c2,1.3,3.8,2.7,5.7,3.7c1.8,1,3.7,2,5.7,2.4c6.6,1.4,12.7,3.1,17.1,9.2
		c1.9,2.7,5.5,4.7,8.7,5.8c6.5,2.2,5.8,7.7,6.3,12.4c0.5,5.6,0.1,11.3,0.1,16.9c5.6,2.3,9.4,0.9,12.7-5.8c1.8-3.6,4.3-4.8,7.8-5.5
		c1.3-0.2,3-1.4,3.5-2.5c2-4.7,4.1-9.5,5.3-14.4c1.2-4.9,3.3-8.2,8.1-10.2c3.9-1.6,4.4-6.1,2-9.9c-0.9-1.4-1.1-3.6-0.6-5.2
		c0.3-0.9,2.5-1.5,3.9-1.6c5.9-0.5,11.9-1.2,17.8-0.9c6.8,0.3,13.7,1.5,20.5,2.4c7.1,1,14.1,2.4,21.2,3.3c2.3,0.3,4.8-0.4,8.7-0.9
		c-5.4,5-9.9,9.3-15.4,14.4c11.7,6,14,17.4,19.7,26.4c0.3,0.5,0.6,1.2,0.6,1.8c0.1,6.3-0.9,12.9,0.3,19c1,5.2,3.7,10.5,7,14.7
		c3.4,4.3,8,8,12.7,10.7c3,1.7,7.3,1.1,10.9,1.9c2.1,0.5,4.6,1.5,6,3.1c5.7,6.6,11.7,12.3,20.5,14.6c3.1,0.8,6.2,2.1,8.7,4
		c6.1,4.5,12.7,6.4,20.2,6.2c6.2-0.1,12.3-0.1,18.5,0.1c1.2,0,2.9,0.9,3.3,1.8c0.4,0.9-0.6,2.4-1.1,3.6c-2,4.6-4.4,9-5.9,13.7
		c-1.3,4-2.7,8.4-2.1,12.4c0.7,5.4,2.3,11,5.1,15.7c4.7,8.1,6.5,8.3,13.4,5.2c1.7-0.7,5-0.2,6.4,1.1c8.2,7.5,15.9,4.9,24.5,0.6
		c6.1-3.1,9.5-7.2,11.8-13.5c10.4-28.2,21.3-56.3,32.2-84.6c38.3,10.4,76.4,20.6,114.5,30.9c0.1,0.4,0.1,0.9,0.2,1.3
		c-1.7,0.6-3.4,1.6-5.1,1.6c-4.2,0-4.3,2.6-3.7,5.3c1.5,7.3,3.6,14.5,4.7,21.9c0.5,3.6-0.4,7.6-1.6,11.1c-2.4,6.8-1.4,13.4,1.3,19.6
		c2.2,5.1,7.3,6.5,12.7,6.2c1.6,4.2,3.1,8.2,4.3,11.3c-5.2,4.3-9.9,8.9-15.3,12.3c-4.4,2.8-9.8,4.3-14.7,6.2c-2.6,1-5.3,1.6-7.8,2.8
		c-8.2,3.7-8.8,5.7-5,14c-7,1.7-10.3,7.3-14,12.7c-4.8,7-10.7,12.8-19.1,15.5c-3.2,1-4.2,0.2-4.9-3.4c-1-5.5,1.2-12-4.9-16.3
		c-4.1-2.9-9.5-3.4-12.9,0.3c-3.4,3.7-6.5,7.8-9.2,12.1c-2.5,4-5.9,4.4-9.1,0.6c-2.4-2.8-4.7-5.7-7.2-8.4c-4.1-4.5-7.7-3.4-13.2,1.3
		c-2.5,2.2-5.4,3.9-7.9,6.1c-2,1.8-4.7,3.7-5.2,6c-0.9,4.2-3.4,6.8-5.9,9.9c-7.8,9.8-13.2,20.7-15.5,33.2c-0.5,2.9-3,5.5-4.9,8
		c-2.3,2.9-4.9,5.6-7.3,8.4c-2,2.2-3.7,3.8-7.4,3.4c-8.2-1.1-9.9,0.8-13.6,8.3c-3.4,6.9-6.6,10.8-15.3,6.9
		c-7.6-3.4-16.1-4.8-24.1-7.4c-2.9-0.9-6.1-1.8-8.3-3.8c-4.1-3.8-8.4-3.3-13.3-2.7c-5.2,0.7-10.6,0.6-15.9,0.4
		c-5.2-0.2-7.9,3.2-10.3,6.6c-0.9,1.3-0.1,4.7,1.1,6.3c7.3,9.2,7.5,10.7,0.3,19.8c-0.3,0.4-0.7,0.7-1.5,1.3
		c-2.8-4.5-5.4-8.7-10.5-11.3c-7.1-3.7-13.9-4.1-21.3-2.4c-1.6,0.4-3.3,0.9-4.8,0.7c-7.3-0.9-13.6,1.9-19.5,5.7
		c-3.4,2.2-6.4,1.9-9.1-0.2c-4.8-3.7-9.4-2.8-14.2-0.4c-6.9,3.5-11.6,8.3-10.9,16.9c0.1,1.6-0.9,3.5-1.9,4.9
		c-5.3,7-10.5,14-16.1,20.7c-2.8,3.3-6.6,3.1-10.4,1.2c-5.3-2.6-9.6-0.7-11.5,5.1c-0.4,1.2-0.8,2.5-1,3.8c-1,5.6-1,11.3-8.3,13.6
		c-3.3,1-6,5-8.3,8.1c-1.2,1.6-1,4.3-1.3,6.5c-0.4,2.4,0,5.3-1.2,7.1c-4,5.7-4.9,12-4.9,18.7c0,3.6-0.5,7.2-0.8,10.4
		c-0.7,0.5-0.9,0.8-1.2,0.8c-3.2,0.1-7.2,1.4-9.3-0.1c-3.5-2.5,0.7-5.6,1.4-8.5c1-4.5-0.3-8.6-4.4-11.1c-3.9-2.3-7.6-3-11.4,0.8
		c-3.1,3.2-6.9,7.8-11.7,5.5c-5-2.4-5.5-8.4-6.6-13.5c-0.6-2.7-0.5-5.7-1.7-8C1895.1,1645.1,1889.4,1645.4,1880.2,1646.5z"/>
	<path id="_x32_336" class="st0" d="M1256.2,1395.4c0.6-4.2,1.1-8.4,1.7-12.6c1.2-8.2-4.2-13.4-8.8-18.8c-1.1-1.2-2.5-2.7-3.9-2.9
		c-12.3-1.8-14.6-14-22.1-20.8c-3.4-3-6.1-7.1-9.9-9.4c-5.3-3.3-6.5-7.6-6.3-13.3c0.3-6.9-4.7-11.5-11.7-11.4
		c4-7.4,2.5-13.3-4.4-14.8c0.4-1.5,1-3,1-4.6c-0.2-10.4,0.4-21-1.2-31.3c-1.1-7.7-4.4-15.4-8-22.4c-2-3.9-6.7-6.5-9.7-9.3
		c0-5.3-0.4-10.8,0.2-16.1c0.2-2,2.4-4.4,4.4-5.6c4.6-2.9,5.8-6.2,3.9-11.4c-6-16.2-11.5-32.5-17.7-48.6c-1-2.6-5-4.1-7.5-6.2
		c-1.9-1.7-4.4-3.4-5.3-5.6c-2.3-5.8-4.9-10.8-9.6-15.4c-4-4-5.1-10.9-7.5-16.5c-2.8-6.7-5.7-13.2-5.4-21.1
		c0.2-3.8-3.4-7.9-5.4-11.7c-1.3-2.4-3-4.6-4.3-6.5c9.4-3.2,18.5-5.6,27.1-9.3c12.5-5.4,25.7-7.5,38.9-10.1
		c9-1.7,18.8-2.8,25.1-11.3c0.6-0.8,2.1-1.4,3.2-1.4c2.6,0.2,5.1,1.1,7.7,1.2c12.3,0.6,23.3,6.8,35.3,8.6c7.8,1.1,15.7,1.6,23.3,3.2
		c7.7,1.6,15.2,4.3,22.9,6.5c1.9,0.5,3.8,0.8,5.6,1.4c4,1.3,7.9,2.8,11.8,4.2c1.8,0.6,3.6,1.6,5.4,1.7c6.5,0,12.6,0.8,18.2,4.7
		c2.9,2.1,6.2,3,10.2,1.7c3.1-1,6.8-0.2,11-0.2c-0.7,2-0.8,3.8-1.8,4.5c-7.2,5.1-4.4,13-5.5,19.6c-2,11.4,2.9,21.8,5.9,32.4
		c0.8,2.7-0.5,5.9-0.7,8.8c-0.2,2.6-0.3,5.3-0.2,7.9c0.1,3.7,0.4,7.5,0.7,11.2c0.2,2.5,0,5.1,0.8,7.4c2.6,7.7,4.5,16,8.8,22.6
		c4.2,6.5,6.5,15.1,15,18.3c0.5,0.2,1,0.2,1.3,0.6c10.8,11.3,24.3,8.3,37.1,6c7.4-1.3,14.2-5.7,22.3-4.5c0.8,0.1,1.8-0.6,2.6-1.1
		c3.4-1.7,6.7-4.3,10.3-5.1c7.3-1.7,7.6-7.9,8.9-13.1c1.2-4.9,0.8-10.2,1.2-15.3c0-0.6,0.4-1.2,0.8-2c7.5,3.8,14.8,7.5,22.8,11.6
		c-3.7,3.4-7.2,6.3-10.5,9.5c-4.5,4.4-8.9,9-13.4,13.3c-5.4,5.2-12.2,8.5-19.4,8c-9.2-0.7-16.9,2.9-25.1,5.6
		c-3.7,1.2-7.8,2.2-8.1,6.6c-0.3,4.3,1.2,8,6,10c4.6,1.9,8.8,4.8,13.2,7.3c0.4,0.2,1,0.5,1.1,0.9c3.1,7.6,10.7,8.4,17,10.9
		c6.8,2.8,7,2.5,6.2,10.3c-14.2,5.9-21.4-5.9-30.3-12.2c-3.4,1.8-6.4,3.5-9.5,4.8c-6,2.6-8.2,6.7-6.6,12.8c2.3,8.9,9.6,11,17.1,13.3
		c7.7,2.3,15.2,5.2,22.7,8c3.4,1.3,3.3,4.3,2.8,7.2c-0.5,3.1-3.1,2.9-5.4,2.8c-1.7-0.1-3.4-0.2-5,0.1c-4.6,0.7-7.3,5.9-4.9,9.8
		c1.5,2.5,3.8,4.5,5.7,6.8c1.8,2.2,4,4,1.4,7.6c-1.8,2.5-1.2,6.1,2.7,7.8c3.7,1.6,4.3,4,2.9,7.8c-0.8,2.2-0.1,5,0,7.5
		c0.2,4.9,2.1,10.5,0.4,14.6c-2.3,5.5-6.7,10.4-11.2,14.7c-4.6,4.4-5,9.1,0.5,12.2c3.4,1.9,6.9,3.7,10.6,5.1
		c7.9,3.1,12.3,9.5,16.3,16.3c1.2,2,2.3,4,3.2,6.1c2.6,5.9,6.4,7.5,12.8,5.8c3-0.8,7,0.4,10,1.9c5.8,2.7,11.2,6.3,16.9,9.5
		c-4.6,9.7-3.7,19.2,2.7,28.1c0.6,0.8,1.5,1.7,1.4,2.4c-1.1,6.7-1.6,13.7-4,20c-2.8,7.3-3.5,14.1-0.6,21.6
		c-7.7,0.4-14.3-0.6-20.7-4.5c-6.9-4.2-14.5-5.9-22.6-3.4c-0.5,0.1-1.2,0-1.4,0.2c-5.9,8.2-17.8,8.3-23.2,17.6
		c-1.9,3.3-6,5.5-9.5,7.6c-4.2,2.5-7,5.9-7.7,10.7c-0.7,4.5,1.9,7.8,5.4,9.8c4.6,2.7,6.1,6.6,6.6,11.6c0.6,6.1-1.3,11.8-1.7,17.6
		c-0.5,7.7,1.3,15.6,2.9,23.3c2.2,10.3,2.6,10.3-6.6,14.2c-11.9,4.9-24,9.3-35.7,14.6c-4.9,2.2-9.4,6-13.5,9.7
		c-8.8,7.9-19.5,11.2-30.5,14.2c-7.1,1.9-14,4.8-20.7,8c-4.2,2-7.8,5.3-11.8,7.8c-3,1.9-6.3,3.4-9.8,5.3c-0.6-1.9-0.9-2.4-0.8-2.7
		c3.8-13.1,6.8-26.6,15.7-37.4c2.2-2.6,5.7-4.5,9-5.8c9.6-3.7,15.4-10.7,19.2-19.9c2.7-6.5,3.3-12.9-0.8-19.2
		c-2.7-4.1-7.5-5.8-11.4-2.9c-3.2,2.4-6,5.5-8.9,8.3c-2.8,2.8-5.6,5.5-10.1,3.4c-1.4-0.7-3.3-0.4-4.7-1.1c-1.5-0.7-3.3-1.8-3.8-3.2
		c-3.1-8.6-7-10.3-15.8-6.9c-3.3,1.3-6.8,1.9-10.1,2.7c-2.9-8.2-3.2-15.5-0.6-23.2c2.1-6.2-3.1-14.3-10.3-16.3
		c-4.3-1.2-5.7-3.2-5.5-7.6c0.1-2.7-1.3-5.5-2.1-8.3c0-0.1-0.3-0.3-0.3-0.4c0.5-4,2.1-8.2,1.2-11.9c-1.3-5.7,2.2-6.9,5.7-9.2
		c6.5-4.3,9-11.1,9.6-18.5c0.6-7.4,5.4-12.2,12.6-12.3c6.2-0.1,10.5-7.4,7.4-13c-1.8-3.3-3.7-6.6-6-9.6c-1.2-1.5-3.2-2.5-5.1-3.4
		c-2.7-1.4-5.5-2.6-8.3-3.8c-5.7-2.4-6.3-7.1-5.5-12.3c0.6-4.1-4.6-13.3-8.1-15c-2.4-1.2-4.5-3.2-6.6-5c-3.8-3.4-7.5-6.9-11.2-10.3
		C1257.6,1394.9,1256.9,1395.2,1256.2,1395.4z"/>
	<path id="_x32_332" class="st0" d="M1131.1,742.2c4.7-0.9,10.1-1.1,13.4-6.7c1.2-2.1,4.6-2.9,6.9-4.4c4.3-2.9,5.1-7.1,4.2-12
		c-0.3-1.7-0.2-3.5,0-5.2c0.6-5.1,1.8-8.7,8.6-7c6.2,1.5,7.2-4.8,8.3-8.4c1.7-5.7,1.7-11.9,2.4-17.9c0.1-0.7,0.3-1.6-0.1-2
		c-5.9-6.3-1.9-13.5-2-20.4c0-3.3,0.9-5.6,3.9-7.8c4.1-3,7.3-7.3,11.2-10.7c1.6-1.4,4.1-2.7,5.9-2.5c12.7,2,22.2-4.4,31.7-11.3
		c1.1-0.8,2.5-1.3,4.1-2.2c-0.8,8.5,3.1,14.7,7.3,20.9c2.7,3.9,4.7,8.4,7.9,11.8c4.5,4.6,9.5,9,14.9,12.4c4.8,3,8.6,6.1,10,11.7
		c1.9,7.5,7.4,12.1,13.4,16.1c4.1,2.8,6.1,6.1,5.7,11c-0.2,3.8,0.4,7.3,4.9,8.4c5.6,1.4,10,0.1,12-4.4c1.8-4.1,1.8-9.4,4.5-12.7
		c2.6-3.2,7.6-4.5,11.6-6.4c1.6-0.7,3.5-0.7,5.3-0.8c0.7,0,1.4,0.7,2.2,1c12.8,4.9,21.3-1,21.5-15c0-0.5,0.1-1,0-1.5
		c-2.2-11.8,5.7-18.3,13.3-24.8c2.9-2.5,7.1-2.4,9.2,0.9c4.5,7.1,11.5,9.4,19.2,11.3c0.2,1.9,0.2,4,0.6,6.1c0.8,5,3.8,8.8,8,11
		c6.1,3.2,6.3,8.7,6.5,14.2c0.2,3.6-0.8,7.2-0.9,10.8c-0.2,6.2-0.3,12.4,0.1,18.6c0.1,2.3,1.1,4.9,2.5,6.8c4.6,6.1,3,12.8,2.2,19.4
		c-0.9,7.3-2.5,14.6-2.6,21.9c-0.1,7.8-3.1,14-7.7,19.7c-6.1,7.4-8.5,16.1-9.2,25.2c-0.5,5.7,1.9,10.9,6.9,15.1
		c4.4,3.7,7.3,9.3,11.4,13.5c2.2,2.3,5.4,3.5,8.1,5.2c1.5,0.9,3.7,1.4,4.4,2.7c3.1,6.3,9.4,10.9,9.5,19c0,4.5,1.4,9,2.6,13.4
		c0.6,2.1,1.8,4.8,3.4,5.6c4.2,1.9,5.9,5.1,5.1,8.9c-0.7,3.1,0.6,4.5,2.5,6.1c5.8,4.9,11.7,9.6,17.3,14.6c1.3,1.2,1.8,3.2,2.6,4.9
		c0.5,1.2,0.3,2.8,1,3.7c4.2,5.2,8.5,10.3,12.8,15.4c0.2,0.2,0.5,0.6,0.8,0.6c6-0.2,8.6,3.9,12.3,8c5.9,6.6,13,12.6,22.1,15.3
		c2.5,0.7,4.5,3.3,6.6,5.1c1.1,0.9,2,2.4,3.2,2.6c10.1,2.1,14,9.7,17.2,18.3c1.4,3.7,3.8,7.1,6,10.4c2.2,3.2,5.6,3.5,9.3,3.6
		c2.2,0.1,4.4,1.7,6.5,2.6c-1.2,2.4-1.8,5.6-3.7,6.9c-2.1,1.4-5.4,0.9-8.1,1.4c-1.8,0.4-4.5,0.5-5.2,1.8c-2.9,4.7-6.6,4.1-10.9,2.7
		c-7.6-2.5-12.5,0.7-14.1,8.7c-0.3,1.5-1.5,3.2-2.8,3.9c-0.8,0.4-2.9-0.6-3.8-1.5c-1.7-1.7-3-3.8-4.3-5.9c-3.2-5-6.9-5.2-10.2-0.3
		c-1,1.5-1.8,3.1-2.9,4.6c-0.6,0.8-2.1,2-2.5,1.8c-5.1-2.6-8.7,1.1-12.8,2.9c-3.7,1.7-6.9,2.5-10.6-1c-4.5-4.3-8.7-3.9-13.5,0.2
		c-3.9,3.3-7.8,6.2-10.1,11.4c-1.7,3.7-6.4,0.4-9.6-0.3c-2.6-0.6-5.1-3.7-7.4-3.5c-2.1,0.2-4,3.4-5.9,5.4c-2.9,3.1-5.2,6.7-8.4,9.3
		c-6.9,5.5-13.6,5-20.8-0.4c-3.6-2.7-7.9-5.4-12.5-2.7c-3.5,2-6,0.8-8.2-1.3c-2.8-2.7-5.4-2-8.6-1c-8.3,2.8-16.5,4.6-24.9-0.3
		c-2.9-1.7-6.5-3.5-9.5-3.2c-10.1,1.1-17.9-6.1-27.6-7c-8.5-0.8-16.6-5.3-25.1-7.5c-6.6-1.6-13.6-1.7-20.3-3.1
		c-8.3-1.8-16.5-4.5-24.8-6.5c-4.4-1-9.1-1.7-13.6-1.7c-10.6-0.2-18-7.2-25.9-12.4c-6.8-4.5-12-11.2-18.2-16.6
		c-2.9-2.6-6.5-4.3-9.6-6.8c-5.8-4.6-8.5-11-10.4-18c-0.5-1.9-0.9-4-2-5.4c-4.5-5.6-3.7-12.7-5.8-18.9c-3.2-9.4-9.5-16.6-15.9-23.8
		c-1.2-1.3-2.2-2.9-3.3-4.3c-4.5-5.5-4.6-5.5,0.6-10.6c5.9-5.9,11.7-11.9,17.7-17.6c3.1-3,3.1-5.5,1.4-9.6c-2.1-4.9-3.3-10.6-3.5-16
		c-0.2-6.3-1.2-11.9-5-17.1c-1.6-2.1-2.4-4.9-3.1-7.6c-1.2-4.7,0.7-7,5.7-7c3.7,0,7.3-0.2,11,0c4.9,0.3,6.7-1.9,6.2-6.5
		c-0.3-2.3-0.5-4.6-1-6.8c-1.7-7.5,1.6-15.2-1.1-23c-0.9-2.5,3.1-6.5,4.1-10c0.9-3.2,1.3-6.9,0.7-10.2c-0.4-2-2.8-5.1-4.5-5.2
		c-3.9-0.3-6.5-2.7-9.7-3.7c-4.3-1.4-4.5-4.3-5.3-7.2c-1.1-4-1.5-8.1-6.8-8.9c-0.8-0.1-1.6-1.2-2.1-2.1
		C1133.9,747.9,1132.6,745.2,1131.1,742.2z"/>
	<path id="_x32_334" class="st0" d="M2511.2,1083.5c7-4.9,7.5-6.6,2.9-13c-5.3-7.2-11.1-14.2-16.7-21.3c8,2,12.1-0.2,17.3-7
		c2.5-3.4,6.5-6.2,10.4-8c5.9-2.8,7.4-8.2,10-13.3c3.3-6.5,7.2-12.8,10.7-19.1c1.2-2.1,2.5-4.2,3.1-6.4c1.6-5.3,2.6-10.7,4.2-16
		c0.6-2.1,1.6-4.4,3.2-5.8c3.8-3.5,8-6.6,12.7-10.4c2.1,2.9,6.2,7.1,8.5,12.1c3.1,7,7.7,11.5,14.9,13.7c7.2,2.2,13.8,4.8,19.8,10.1
		c6.2,5.5,14.2,9,21.6,13c2.2,1.2,5,1.6,7.5,1.7c4.1,0.3,8.3,0.1,12.5,0.1c9.2,0,11.3-1.1,17-9.4c1.6,1.8,3.2,3.4,4.4,5.2
		c4.4,6.5,8.6,13.2,13,19.7c1.4,2.1,3.6,3.7,5.2,5.7c1.4,1.7,3.6,4,3.3,5.6c-1,6.4,2.8,10.8,5.9,15.1c5.9,8.2,10.7,16.7,11.8,27
		c0.8,7.6,10.6,13.9,17.2,14.1c1,0,1.9,0.1,3.2,0.2c0,3.1,0,5.9,0,8.8c-0.8-6.7-6.4-5-10.4-5.9c-4.6-1-5.8,3.2-7.2,6.1
		c-1.3,2.5-1.4,5.6-2.2,8.4c-1.2,4.4-4,6.6-8.7,6.4c-5.8-0.2-11.5-0.3-15.9,4.7c-0.7,0.7-2.6,0.4-3.9,0.5
		c-5.4,0.3-11.4-2.3-15.6,3.4c-0.5,0.7-1.7,1-2.6,1.3c-11.3,3.2-15.2,10.1-13.6,21.9c0.4,3.4-1.4,7.9-3.8,10.6
		c-5.5,6.1-11.1,11.8-13.1,20.4c-0.7,3.2-4.1,5.7-6.2,8.5c-10.7-6.9-12.7-6.1-18.7,5c-3.7,6.8-8.8,12.9-12.2,19.9
		c-2.5,5.3-3.5,11.5-4.6,17.3c-0.4,2.4-1,4.6-3.4,4.3c-3.2-0.4-6.7,4-9.7-1c-1.3-2.2-4.2-3.3-6-5.3c-1.2-1.3-2.7-3.9-2.2-4.7
		c3.4-5.4,1.2-10.4-0.8-15.3c-1.3-3.2-1.8-6.1,0.8-9.1c1.9-2.2,1.6-4.7,0.2-7.5c-3.3-6.8-7.4-12.6-13.5-17.3c-2-1.6-2.3-5.9-2.7-9.1
		c-0.2-2,0.5-4.3,1.5-6.1c3.2-5.7,1.3-9.6-3.1-14c-4.1-4.1-7.1-9.4-9.7-14.6c-4.6-9.4-10.6-17.1-20.2-21.8
		c-6.8-3.3-6.8-4.9-6.7-12.7c0.1-3.7-3.1-7.5-5-11.1C2514.5,1087.2,2512.8,1085.6,2511.2,1083.5z"/>
</g>
</svg>
