<?xml version="1.0" encoding="utf-8"?>
<!-- Generator: Adobe Illustrator 19.0.0, SVG Export Plug-In . SVG Version: 6.00 Build 0)  -->
<svg version="1.1" id="Layer_1" xmlns="http://www.w3.org/2000/svg" xmlns:xlink="http://www.w3.org/1999/xlink" x="0px" y="0px"
	 viewBox="0 0 4200 2600" style="enable-background:new 0 0 4200 2600;" xml:space="preserve">
<style type="text/css">
	.st0{fill:#FFFFFF;}
</style>
<g>
	<path d="M2773.4,1447.5c2.2,2.5,4.1,5.5,6.6,7.5c7.3,5.8,15,11.1,22.3,16.8c2.2,1.8,4.4,4.2,5.4,6.7c1.8,4.3,3.7,8.1,7.2,11.5
		c2,1.8,2.2,5.9,2.4,9.1c0.4,5.1,0.1,10.3,0.1,18.1c-1.9-3.7-3.5-5.5-3.7-7.5c-0.5-3.9-0.2-8-0.2-12c0-3,0.1-5.7-3.5-7.4
		c-1.7-0.8-3.2-3.5-3.6-5.6c-1.4-6.4-5.5-10.3-10.6-13.8c-4.9-3.4-9.7-7-14.3-10.8c-4.5-3.8-8.7-7.9-14.3-13.1
		c-13.8,3.9-28-2.8-42.7-6.5c-15.1-3.8-30.3-7.5-45.5-11.1c-2.5-0.6-5.4-0.8-7.9-0.2c-16.7,4.3-33.4,8.9-50.1,13.2
		c-5.4,1.4-8.1,5.4-11.5,8.9c-4.6,4.7-9.5,8.9-15.3,14.2c7.5,10.5,17.4,20.3,30.7,25.1c19.3,7,38.6,14.8,59.3,17
		c6.4,0.7,10.8,4.7,15.2,8.7c3.8,3.5,4,6.7-0.1,10.1c-12.5,10.4-24.6,21.6-38.2,30.2c-18.2,11.6-37.7,21.2-56.8,31.4
		c-7.6,4.1-15.5,7.8-23.5,11c-4,1.6-5.7,4.2-6.6,7.9c-2.6,10.5-2,20.5,6,28.6c5.9,5.9,7.2,12,3.8,19.8c-2.6,6.1-4.1,12.6-5.8,19.1
		c-1.1,4-3.2,6.1-7.3,7.2c-8.4,2.1-16.6,5-24.9,7.1c-2.8,0.7-6,0.6-8.9,0.2c-19-2.6-38-5.4-58.3-8.3c-0.8,1.5-2.4,4.3-4.3,7.8
		c5.4,5.5,10.5,10.6,15.5,15.9c5.3,5.5,11.1,10.6,15.6,16.8c9.7,13.4,22.4,22.4,37.7,28.2c2.8,1.1,5.6,2,8.5,2.9
		c4.2,1.2,7.2,3.6,8,8c1.4,7.6,6.4,12.9,11.2,18.4c7.3,8.6,14.8,17.2,21.7,26.1c2.3,3,3.9,6.9,4.8,10.7c1.1,4.8-0.7,8.7-5.2,11.9
		c-4.2,3-7.6,7.2-11,11.2c-6.4,7.7-11.7,16.3-18.8,23.2c-12.7,12.4-28.8,19.8-46.2,21.3c-22.8,1.9-45.9,1.4-68.8,1.6
		c-7.4,0.1-14.3,1.2-21.4,3.8c-13.7,5.1-27.8,9.1-41.7,13.6c-3,1-6.1,2.1-10.8,3.7c3.6,1.5,5.2,2.5,7,2.9
		c23.8,4.8,47.8,8.6,71.3,14.5c13.4,3.4,26,9.9,38.8,15.3c6.7,2.9,13.1,6.6,19.6,10c13.9,7.2,29,9.4,44.3,10.6
		c15.6,1.2,30.9,4.2,46.1,8c9.5,2.4,15.9,9.3,23.2,15.1c1.1,0.9,1.4,4.7,0.4,6.2c-4.5,7.2-8.4,14.3-17.2,18.5
		c-17.8,8.5-37,10.4-55.8,14.1c-19.2,3.8-39.1,3.4-57.8,9.8c-16.4,5.7-33.3,9-50.4,11.4c-7.9,1.1-15.8,1.7-23.7,2.8
		c-12.7,1.7-16.7,7.6-14.2,20.5c0.9,4.9,1.7,9.9,3.2,14.6c4.1,13.4,2.3,26.9,1.4,40.4c-0.3,3.9-1.9,7-5.9,8.5
		c-11.7,4.6-22.3,11.8-35.1,14c-2.7,0.5-5.8,2.3-7.3,4.5c-7.7,11.4-19.2,12.8-31.4,13.3c-14.3,0.5-15.8,3.2-9.2,16.2
		c4.2,8.3,9.1,16.3,6.7,26.3c4.5,2.4,8.2,4.4,12.4,6.7c-1.9,3.1-3.7,5.8-5.7,9.1c-2.9-1-5.7-1.8-8-2.6c-9.1,6.9-14.3,15.5-16.9,26.4
		c-1.6,6.5-6,12.4-9.2,18.5c-3.2,6-8.4,9.3-15.1,10.3c-9.6,1.3-16.5,6.1-21.5,14.4c-3.3,5.5-8.4,9.3-14.8,11.1
		c-3.2,0.9-6.3,2.1-9.3,3.5c-7.5,3.4-14.9,3.7-22-0.7c-7.1-4.4-14.3-3.4-21.9-2.3c-14.1,2.1-28.3,3.3-42.9,4.9
		c-0.1,4.5,3.7,6.5,8.2,8.4c9,3.8,15.4,9.8,18,19.9c1.3,5.3,0.9,8.9-3.7,12c-9.3,6.3-19.2,10.1-30.7,8.6c-1.6-0.2-3.5-0.6-4.9,0
		c-5.4,2.3-10.9,0.3-13.9-2.9c-6-6.4-12.9-5.6-20-5.1c-7.3,0.5-14.5,1.3-21.8,2.2c-1.8,0.2-3.8,1.4-5.2,2.7
		c-9.6,8.6-20.4,16-27.2,27.4c-4.6,7.7-25,14-33.1,10.5c-1.7-0.7-2.9-3.3-3.6-5.3c-2.4-6.5-4.5-13.1-6.6-19.8
		c-1.4-4.6-3.9-8.1-7.8-11.2c-4.4-3.5-8.1-7.9-11.7-12.3c-4.1-5-2.6-10.1,4.1-10.6c11.8-0.8,18.3-8.6,24.8-16.5
		c3-3.7,5.1-8.5,6.4-13.1c3.1-11.3,9.3-17.8,20.4-17.9c8.5-0.1,16.8-4.2,25.6-0.9c3.6,1.4,4.3,0.1,8.8-6.9c-1.5-1.1-2.9-2.3-4.4-3.2
		c-4.3-2.4-5.6-6.1-5.4-10.9c0.5-10-2.8-13.9-12.6-14.3c-4-0.2-6.6-1-8.5-5.2c-2.4-5.1-3.7-7.8-12.7-4.9c-7.2,2.4-13.1,5.7-16.7,13
		c-3.4,6.9-9.9,10.7-17.3,12.4c-6.9,1.6-10.1-1-10.5-8c-0.2-3.3,0-6.6,0-9.7c-4.9-3.3-9.5-6.5-14.8-10c-6.6,3.5-13,2.1-18.3-4.2
		c-8.5,3.9-15,0.9-20.4-5.6c-2.7-3.3-5.9-5.1-10.4-4.7c-7.7,0.7-12.4-3.7-15.8-10c-1.4-2.6-2.6-5.4-4.5-7.6c-1-1.2-3.9-2.4-4.9-1.9
		c-5.1,3-7.5-0.4-9.8-3.7c-7.7-11.4-18.1-14.4-30.8-6.3c-6.1,3.9-8.1,3-11.7-3.6c-1.6-2.8-3.1-5.7-4.5-8.2
		c-7.2,2.5-13.6,5.1-20.2,6.9c-6.5,1.8-12.7-0.6-18-3.9c-6.4-4-6.9-10.9-6.1-18.3c-7.3,1-11.8,5.6-16.7,9.1
		c-14.8,10.5-15.1,10.5-27.1-3.8c-4-4.9-6.9-5.5-11.6-1.2c-3.3,3-5.9,7-8.2,10.9c-2,3.4-2.7,7.5-4.5,11
		c-5.4,10.2-13.4,17.5-25.4,18.3c-4.9,0.3-7.1,2.7-8.8,6.6c-1.3,3.1-2.6,6.1-4.3,9c-1.5,2.5-3.1,5.2-5.2,7.2
		c-7.3,6.6-15,13-22.5,19.5c-6.5,5.7-13.6,7.9-22,4c-13-6-25.8-12.4-40.9-9.9c-5.1,0.9-7.9-2.9-10.3-6.5c-1.1-1.6-1.5-3.7-2.5-5.4
		c-4.1-7.1-8.6-12.3-18.4-12.7c-9.3-0.4-18.3-1.6-27.6,0.6c-3.4,0.8-8.1-0.5-11.3-2.4c-5.5-3.3-11.1-3.9-17.2-3.8
		c-4,0.1-8-0.2-11.9-0.6c-8.2-0.8-13.9-5.8-18.9-11.9c-1.9-2.3-3.9-4.5-5.7-6.9c-7.8-10.3-20.1-14.7-29.6-22.9
		c-6.7-5.8-8.9-11.4-7.5-19.8c2.3-13.4,3.7-27,5.5-40.4c0.3-2.3,0.6-4.6,0.6-7c0.1-11.4-0.9-12.6-12-15.9
		c-12.4-3.7-24.8-7.6-37.2-11.4c-10.4-3.1-21-5.9-31.4-9.2c-5.3-1.7-10.3-4.3-15.6-6.2c-2.7-1-5.6-1.5-8.4-1.9
		c-3.9-0.6-8.2-0.3-9.8-5.1c-1.5-4.9,0.8-11.6,5.4-13.7c4.5-2.1,9.3-3.8,14.1-4.5c7.7-1.1,14.6-2.9,20.4-8.7
		c7-7,14.8-13.2,22.5-19.4c4.1-3.3,6.6-7.2,7.8-12.3c0.5-2.2,1.3-4.5,2.6-6.4c4.8-7.5,9.9-14.9,14.6-22.4c2.4-3.9,5.5-4.7,9.2-2.6
		c3.2,1.8,6.2,3.9,9.1,6.1c3.4,2.5,6.8,3,9.7-0.4c3.3-4,7.7-4.1,11.9-3.3c4.7,0.9,6.6-1.8,9-5.3c-8.6-10.9-18.4-20.3-28.8-28.9
		c-1.2-1-2.9-1.7-4.5-1.8c-8.7-0.4-15.8-4.1-22.7-9.2c-6.9-5.1-15.3-6.4-23.6-5.7c-6,0.5-9.7-1.6-12.2-6.5
		c-5.9-11.7-14.5-21.4-23.1-31c-4.8-5.3-11.6-6.2-17.8-8.3c-1.5-0.5-3.3-0.2-4.9-0.5c-8-1.7-9.2-4.2-6.7-11.8c2-6,4.7-11,11.2-13
		c1.2-0.4,2.7-1,3.4-2c1.9-2.5,5.3-5.6,4.9-7.8c-1.1-4.9-6.5-3.6-10.1-3.8c-2.7-0.2-5.6,1.7-8.4,2.7c-7.2-4.4-9-11.8-10.3-18.8
		c-1-5.9-3-10.9-7.2-14.8c-3.7-3.5-5.3-7.7-5.1-12.5c0.7-13.7-2.5-27.9,4.8-41c1.3-2.4,1.5-5.9,1.1-8.8c-1.4-9.7,2.2-18.4,5.5-27
		c2.7-7,7.1-12.6,14.2-16c10.2-5,17.2-19.7,15.1-30.9c-0.5-2.6-1.1-5.2-1.9-7.8c-3.7-12.5-19-17.7-29.8-9.9
		c-5.1,3.7-10.1,7.7-14.8,11.8c-1.9,1.6-3.6,3.9-4.4,6.2c-3.3,8.9-3.2,9-12.2,9.5c-5.3,6.6-6.5,14.1-5.1,22.4
		c1.7,9.8,1.1,10.5-8.6,12.9c-1.3,0.3-2.6,0.5-3.9,0.8c-9.5,2.4-10.8,4.3-9,13.9c1.4,7.3,1.5,14.5-1,21.7c-1.7,5-3,10.2-4.1,15.4
		c-1.8,8.9-4.9,17.1-11.3,24c-4.1,4.4-6.3,9.8-7,16.2c-1,9.2-4.4,11.9-14,13.5c-5.9,0.9-11.9,3.1-17.6,2.4c-5.6-0.7-12.2-3-15.9-6.9
		c-7.2-7.7-15.9-12.8-24.7-17.7c-7.2-4-13.8-7.7-15.9-16.4c-0.4-1.6-2.4-3.1-4-4c-2-1.1-4.3-1.8-6.6-2.2c-9.2-1.4-13.8-7-15.2-15.8
		c-0.4-2.6-1-5.6-2.7-7.4c-4.9-5.5-6.7-11.7-7.6-18.9c-0.6-4.7-5-9-8-14c-3.4,0.4-6.6,0.7-9.8,1.2c-5.3,0.7-7.8-0.8-8.2-5.8
		c-0.3-3.5,0.2-7.3,1.3-10.7c1.7-5.2,2.8-9.8,0.4-15.3c-1.4-3.2-0.8-8,0.7-11.4c2.7-6.4,1.4-11.4-2.2-16.8
		c-5.2-7.8-8.9-16.3-9.9-25.8c-0.2-2.1-1.9-4-2.8-6.1c-4.6-9.6-11.4-17-20-23.3c-4.7-3.4-7.8-8.4-8.1-15.2
		c-0.2-4.3-3.7-8.4-5.3-12.7c-1-2.8-1.4-5.8-1.8-8.8c-0.9-7-3.5-12.4-10.8-15.2c-8-3.1-13.1-9.1-16.8-17.3
		c-3-6.6-8.8-12.4-14.4-17.3c-6.9-6-12.7-11.8-14.6-21.4c-1.2-6.2-5.7-11.9-8.9-17.7c-4.4-7.8-4-9.9,4-14
		c19.5-10.1,39.2-20,58.7-29.9c1.5-0.7,2.9-1.6,5.1-2.9c-1.2-8.7-4.6-17-7.7-25.3c-3.2-8.5-5.4-16.9-3.9-26.2c0.7-4-0.9-8.4-2-12.5
		c-1.5-6.1-3.2-12.1-5.2-18.1c-1.1-3.5-2.9-6.7-4.3-10.1c-1.1-2.7-2.2-5.5-2.9-8.3c-2.4-10.4-0.1-18.9,10-24.2
		c0.9-0.5,1.6-1.2,2.3-1.9c15.8-14.2,13-10.5,28.5-3.3c2.8-1.5,5.6-3.3,8.6-4.5c10-4.1,19.6-9.3,31.3-7.4c7.1,1.2,14.6,0.1,21.9,0.2
		c14.4,0.2,22.9-8,29.7-19.6c3-5.1,6.8-9.7,10.1-14.5c2.6-3.8,5.2-7.6,7.6-11.1c-6.4-11.1-13.7-13.9-25-10.6
		c-3.8,1.1-7.7,1.8-11.7,2.3c-4.2,0.5-7.9-0.6-10.2-4.7c-3.5-6.1-8.9-8.9-15.9-7.4c-6,1.2-9.4-1.6-11.8-6.7
		c-0.5-1.2-1.5-2.3-1.9-3.5c-3.1-12.3-12.9-18.9-22.4-25.5c-6.4-4.5-11.7-9.7-15.1-16.8c-1.5-3.1-2.3-5.9-0.9-9.4
		c2.6-6.5,4.9-12.9,9.6-18.4c2.3-2.7,3.8-7,3.8-10.7c0.1-20.6,3.3-39.7,21.1-53.3c5.1-3.9,9.2-8.4,10.9-15.1
		c0.9-3.7,3.8-6.8,5.8-10.2c-7.1-14.4-14.4-29.1-21.5-43.8c-1.3-2.7-2.7-5.7-2.6-8.5c0.3-9.2-5.8-15.1-10.3-21.9
		c-2.3-3.5-5.7-7.4-5.8-11.1c-0.1-12.4-7.5-19.4-16.6-25.4c-3-2-6.2-3.8-10.7-6.5c1-21.2,2.1-43,3.2-65.3
		c-6.7-3.1-10.7-8.2-13.6-14.9c-1.8-4.4-6.3-7.6-9.3-11.5c-1.6-2.1-3-4.5-3.5-7c-0.5-2.4,1.1-5.5,0.3-7.6
		c-4.8-12.7-10-25.2-15.2-37.7c-1.6-4-3.9-7.7-5.3-11.8c-7.5-23.2-12.6-46.7-9.8-71.4c0.1-0.7,0.3-1.4,0.1-2
		c-4.2-10.2,0.7-19.4,3.1-28.9c1.1-4.2,2.3-8.5,2.2-12.7c-0.4-9.7,5.2-15.9,12.5-20c11.9-6.6,24.5-11.9,36.7-18
		c5.1-2.5,9.6-0.6,14.4,2.4c3.3-3.5,6.2-6.7,9.2-9.7c4.4-4.5,8.6-9.2,13.4-13.3c2.1-1.8,5.3-3.3,8-3.3c16.3-0.3,28.1-9,39-19.7
		c3.1-3,6.4-5.7,9.2-9c1.9-2.2,3.3-4.9,4.3-7.6c2.1-6,4-12,5.5-18.1c1.3-5.4,4.1-7.9,9.7-7.8c13.1,0.2,25.7-1.6,37.5-8.3
		c3.4-1.9,8.4-1.3,12.6-1.6c5.2-0.4,10.4-0.5,16.4-0.8c-0.6-3.9-0.9-6.5-1.5-9c-1.9-8.2,0-15.9,2.9-23.4c0.6-1.5,1.4-3.3,2.7-4.1
		c11.3-7.1,23.3-11.4,36.8-6.9c1.9,0.6,3.7,2.7,4.8,4.6c4.1,7.6,8.9,15,11.7,23.1c5.8,16.8,14.7,32,23.4,47.4
		c3,5.2,6.5,10.1,9.3,15.4c7.4,13.7,18,23.6,32.8,28.9c10.9,3.9,21.7,8.4,32.4,12.7c7.4,2.9,14.8,3.1,22.3,0.2
		c3.4-1.3,7.1-1.9,10.6-2.7c9-2.1,10.7-2.1,13.6,6.8c3.5,10.8,10.4,13.7,20.7,14.4c7.6,0.5,15,1.5,23.5-1c0.8-8.8,1.7-17.3,2.4-25.9
		c0.4-4,0.7-7.9,0.7-11.9c0.1-8.9,3.2-15.8,11.5-20.4c5.2-2.8,6.5-7.5,4.5-13.7c-2.2-6.9-2.4-14.5-4.7-21.3
		c-7-20.7-18.9-38.3-37.2-50.5c-16.4-10.9-28.1-26.4-42-39.7c-1.3-1.3-2-3.3-3-5.1c4.8-7.9,11.9-5.6,17.9-4
		c9.9,2.6,19.6,6.4,29.4,9.6c3.2,1,6.3,2.2,9.6,2.8c31,5.5,55.6,22.5,78.4,43c9.8,8.8,16.9,19.6,24.7,29.9
		c6.8,9,15.3,15.7,25.9,19.7c11.4,4.3,21.5,10.4,28.5,20.8c7.2,10.7,17.5,16.9,29.4,21.3c7.4,2.8,14.4,6.6,21.7,9.7
		c3,1.3,6.2,2.1,9.3,3.2c0.5-1,1.1-1.7,1-2.1c-2.9-12.1-1.4-23.4,3.4-35c1.9-4.5,1.2-10.7,0-15.7c-3.7-15.2-0.2-29.7,2.8-44.4
		c0.9-4.3,3.7-7,7.9-8.1c2.2-0.6,4.5-1.3,6.7-1.9c13.2-3.8,14.9-5.5,15.4-19.3c0.4-12-0.5-24,0.4-35.9c0.7-9.5,3.1-18.9,4.9-28.3
		c1.1-5.7,4.6-9.1,10.4-10.7c4.3-1.2,8.3-3.7,13.6-6.1c-2.9-6.1-4.8-11.4-7.9-15.9c-4.3-6.4-6.4-13.3-5.8-20.7
		c1.2-14.2,2.4-28.5,4.8-42.5c1.7-9.7,1.1-18.7-4.1-26.8c-6.5-10.2-7.5-20-2.3-31.1c2.7-5.6,4.3-11.9,5.6-18
		c1.4-6.1,4.9-10.2,10.1-12.9c8.5-4.5,17.1-8.7,26.1-13.2c-1,8.3-2.6,16-12.2,19c-8,2.5-12.5,7.7-14.2,16.3
		c-1.5,7.6-4.7,14.9-7.3,22.8c14.9-0.4,28.8-1.4,42.7-0.9c14.9,0.5,29.5,2.9,43.1,10.2c8.7,4.7,18.4,7.7,27.4,12
		c11.1,5.3,21.9,11.1,32.8,16.7c5.3,2.7,7,7.2,5.1,12.5c-2.8,7.5-0.1,12.6,5.6,17.3c14.3,11.7,22.7,28.5,35.8,41.3
		c11.3,11.1,23.4,20.4,39.2,24.5c12.2,3.2,24.2,7.5,35.8,12.3c9.9,4.1,19.9,7,30.6,8.1c11.1,1.1,21,6,30.1,12.3
		c1.9,1.3,3.9,2.6,5.7,4c6,4.6,12.4,6.4,19.5,3c4.2-2,7.6-1.1,10.9,1.8c14.4,12.7,25.8,27.7,34,45.1c1.6,3.5,1.5,7.7,2.4,12.5
		c2.2-1.1,4.3-1.8,5.8-3.1c6.5-5.5,13.8-7.4,22.2-6.7c10.2,0.9,20.5,1.5,30.8,2c2.9,0.1,5.9-0.3,8.8-0.6c8.2-1,16.4-2.2,24.6-3.3
		c4.5-0.6,9-1.2,13.1-1.8c5.1-17.2,10.4-33.3,14.6-49.6c1.4-5.5,0.7-11.9-0.4-17.6c-1-4.7-1.5-9,0.3-13.5c3.7-8.9,5.2-17.7,0.5-26.9
		c-1.2-2.3-0.6-5.9,0.3-8.6c4.3-13.9,6.1-27.8,3.1-42.2c-2.4-11.8,3.8-20.3,12.4-27.6c8.6-7.3,17.1-14.8,25.2-22.7
		c5.7-5.6,10.5-12,15.6-18.1c10.1-12,17.2-13.2,31-5.6c6.6,3.7,12.1,8.1,14.9,15.4c0.8,2,2.3,4.2,4,5.4c8.8,5.9,17.7,11.9,26.9,17.2
		c5.8,3.3,11.7,6.2,15.6,12c2.3,3.4,5.2,4.9,9.4,2.9c4.8-2.3,10-3.7,14.4-6.5c10.6-6.8,21.3-13.8,31.2-21.6
		c6.8-5.3,14.6-7.9,22.2-7.6c11.4,0.4,23.4-0.2,33.9,6.1c1.7,1,3.6,1.8,5.4,2.7c4.9,2.6,9.7,2.8,13.8-1.2c4.9-4.8,10.1-3.9,15.6-1.5
		c6.9,3.1,13.8,6.2,20.6,9.3c9.1-11.6,13.8-23.8,9.8-38.3c-0.7-2.5-0.4-5.4,0.2-7.9c0.8-3.4,2.8-6.4,6.8-6.1
		c7.9,0.5,15.9,0.6,23.6,2.3c9.7,2.1,19.2,5.4,28.7,8.4c9,2.8,17.1,7.3,24,13.9c6.1,5.9,13,9.4,21.6,11.2
		c12.6,2.6,24.8,7.1,37.2,10.7c7.3,2.1,14.7,4.4,22.1,5.5c10.8,1.6,19,7.7,27.2,13.9c2.4,1.8,4.6,3.8,7.4,6.1
		c9-5.3,17.8-10.6,27.5-16.3c1.6,2.6,3,4.9,4.8,7.9c-7.7,4.7-14.7,9-21.3,13.1c-0.2,1.2-0.5,2-0.3,2.5c3.5,11.2-2.7,18.5-15.2,17.8
		c-6.3-0.4-12.6-0.7-18.9-1c-9.6-0.6-18.6,1.7-26.8,6.6c-22.3,13.5-46.1,18.2-71.8,14.1c-0.9-0.2-2,0.1-4.2,0.2
		c-3.4,15.5-10.3,30.3-11.6,46.7c-0.6,7.3,2.1,12.4,9.1,14.7c5.9,2,11.9,4,18,4.9c15.1,2.3,30.2,4.4,44.3,10.8
		c5.8,2.6,8.8,5.9,8.7,12.8c0,9.9,1,19.9,1.8,29.8c0.4,5.6-0.3,10.5-5.9,13.6c-2.2,1.3-3.7,4-5.9,5.4c-4.7,2.9-6.3,7.1-7.1,12.3
		c-1.1,7.8-3,15.5-4.5,23.3c-0.9,4.8,1.1,8.4,5.3,10.8c7.3,4.2,10.1,10.5,10.9,18.8c2,22.2,10.5,42.4,20.5,62.1
		c4.4,8.6,8.6,17.2,12.8,25.9c-4.6,6.7-10.8,10.9-17.7,13c-14.3,4.3-28.9,7.6-44,8.2c-1.3,0.1-2.7,0.3-4,0.3
		c-14.4-0.1-23.8,7.5-29.3,20c-2.9,6.6-4.8,13.8-6.4,20.9c-2.1,9.3,3,15.9,9.8,21.3c1,0.8,2.3,1.4,3.5,1.9
		c16.9,7.1,27.5,21.7,39.8,34.2c4.5,4.5,5.1,10.6,4.2,16.8c-0.8,5.5-1.3,11.1-2.2,18c6.5-3.2,9.5-8,13.3-11.7c3.1-3,5.6-6.6,8.9-9.4
		c2.2-1.8,5.1-3.2,7.9-3.7c12.6-2.4,26.4,7.9,29.2,20.6c2.5,11.3,2,21.6-5.5,31c-4.6,5.8-6.2,14-13.1,17c4.8,4.1,10,8.1,14.7,12.7
		c8.7,8.4,18.3,15.5,30.1,18.9c5.5,1.5,8.4,4.6,8.9,10.4c0.5,5.2,1.7,10.3,2.7,16.2c11.2,0.1,17.2,9.3,24.3,17.1
		c10.9,12.1,21.7,24.2,32.9,36.1c4.1,4.4,8.8,8.1,15.7,4.2c2-1.1,5.3-0.4,7.8,0.2c17.2,3.6,34.5,7.1,51.6,11.2
		c13,3.1,21.6,12.6,25,24.5c4.2,15.1,15.7,22.5,26.8,30.6c1.8,1.3,5.8,0.6,8.3-0.3c7.6-2.6,14.8-5.9,22.4-8.5
		c7.2-2.5,8.5-2.1,11.6,4.8c5.6,12.3,13.3,23.3,22.5,32.7c5.5,5.6,13.6,9.8,21.3,12c10.3,3,16.7,9.2,23.3,17.2
		c9.1,11.1,22.1,17,36.4,18.7c13.3,1.6,24.4,8.4,36.5,13.1c1.9,0.7,3.7,4.1,3.9,6.4c1.1,12.2,8.8,21.3,13.5,32.4
		c9-4.1,17.3-7.9,26.8-12.1c0.6,3.6,1.1,6.3,1.6,9.1c-8.5,4.5-16.4,8.6-25.2,13.2c1.6,7.8,2.8,15.6,4.8,23.2
		c4.1,15.7,8.2,31.3,16.5,45.8c6.4,11.3,12.2,23.4,11.7,37.6c-0.3,8.1,2.5,16,8.2,22.9c6.4,7.6,11.2,16.5,16.9,24.7
		c3,4.3,1.9,7.4-1.3,11.4c-14.7,18.7-35.7,28.4-55.7,39.5c-1.7,0.9-3.8,1.2-5.7,1.6c-8.6,1.9-15.7,5.4-22.1,12.2
		c-7.2,7.6-16.2,13.8-25.2,19.3c-4.1,2.5-10.1,1.7-16.1,2.5c-3.3,7.2-10.9,8.9-18.5,10c-3,0.4-6.5-0.6-9.4-1.8
		c-5.5-2.4-10.6-5.5-17.2-9c-6.6,4.5-13.8,9.2-20.7,14.2c-4.8,3.5-8.7,8.8-13.9,11.2c-4.6,2.2-10.6,1.5-16.3,2.1
		c0.7,16.4,1.6,33,1.9,49.5c0.2,10-11,15.9-19.5,10.6c-11.8-7.4-23.5-15.1-35.2-22.6c-8.6,8.5-19.5,8.4-29.9,9.7
		c-6.9,0.8-13.9,1.1-20.9,1.1c-3.2,0-6.7-0.6-9.7-1.8c-14.2-5.6-28.4-11.3-42.5-17.3c-2.9-1.3-5.6-3.5-7.9-5.8
		c-3.9-4.1-8.7-6.4-14.1-6.5c-19.6-0.7-39.2-1.1-58.8-1.7C2774.6,1446,2774,1446.8,2773.4,1447.5z M2614.3,1985.2
		c-6.3-3.4-11.7-7.8-17.9-9.2c-13.9-3.2-28-5.3-42.1-7.2c-16.2-2.2-32.3-3.8-47.1-11.5c-7.7-4-15.2-8.3-23.2-11.7
		c-11.9-5.1-23.8-10.8-36.2-13.8c-23.5-5.7-47.5-9.9-71.3-14.3c-5.3-1-8.4-3.3-10.4-8c-1.2-2.7-2.4-5.3-4.2-9.3
		c4.3-1.8,8-3.7,11.9-5c18.9-6.2,37.9-12.4,56.9-18.4c3.4-1.1,7.1-2,10.7-2c16.3,0,32.6,0.5,49,0.4c8.9-0.1,18.1,0,26.8-1.7
		c22.5-4.4,40.5-16,52.9-35.7c4.8-7.5,9-15.7,18.9-19.7c-1.9-3.4-3.1-6.4-5-8.9c-5.8-7.3-11.9-14.3-17.8-21.6
		c-4.4-5.4-10.3-10.4-12.5-16.6c-2.8-8.1-7.8-11.1-15.1-13.7c-16.7-5.8-29.7-16.6-40.8-30.5c-9.4-11.8-20.7-22.1-31-32.9
		c-2,1.1-3,1.5-3.7,2.1c-8.4,6.5-16.8,13.1-25.4,19.4c-3.1,2.3-6.8,4.9-10.4,5.4c-8.1,1-16.4,2-24-2.9c-4.7-3.1-10-5.2-14.8-8.2
		c-4.2-2.7-7.7-3.6-12.9-1.1c-6.5,3.1-14,4.2-20.9,6.5c-6,2-11.5,0.9-15.8-3c-7.1-6.4-16-9.3-24.3-13.4c-3.5-1.7-7.5-3.3-11.3-3.3
		c-10.2,0-17.6-4.9-24-12.1c-2.9-3.2-6.3-5.9-9.4-8.9c-4.2-4.1-8.6-8.1-12.5-12.6c-6.7-7.6-13.3-14.9-24.5-15.3
		c-5-0.1-8.8-2.3-11.1-7.1c-1.5-3.2-3.1-7.3-7.7-6.7c-5.7,0.7-9.6-2.3-13.4-5.5c-6.6-5.6-13.8-10.8-19-17.6
		c-6.4-8.4-14.4-10.7-24.1-11.2c-6.8-0.3-13.1-2.2-15.9-9.6c-1.6-4.1-5.1-6-9.3-6.6c-9.5-1.2-19.1-3.2-28.6-3
		c-8.7,0.1-16.6-1.5-23.8-5.9c-4.6-2.8-8.5-2.8-13.1-1c-3.3,1.3-7.3,3.2-10.4,2.5c-9.8-2.1-19.9-3.4-27.5-11.5
		c-6.1-6.6-10-13.4-7-22.2c3.2-9.6,1.2-17.7-5.7-24.7c-2.5-2.6-5.2-5.3-8.2-7.1c-7.7-4.6-15.5-8-24.8-9.3
		c-13.9-1.9-26.2-9.3-37.5-17.8c-5.6-4.2-11.2-8.4-16.9-12.7c-2.8,1.7-5.6,2.9-7.9,4.8c-12.1,10.1-25.2,10.3-39.3,5.2
		c-3.5-1.3-7.7-0.5-11.5-1.2c-4.8-0.9-10.1-1.5-14.1-4c-18.6-11.1-36.8-22.7-55.1-34.2c-2.5-1.6-4.9-3.6-6.6-5.9
		c-2.6-3.5-6.2-4.7-9.6-3c-5.3,2.8-9.8,0.6-14.5-0.7c-55.4-15.6-110.7-31.3-166-46.9c-3.8-1.1-7.8-2-11.7-2.1
		c-18.4-0.6-36-5.4-53.9-9.6c-10.9-2.6-22.3-3.7-33.5-4.4c-8.6-0.5-16.2,2.4-20.6,11c-1.4,2.7-4.2,5.6-7,6.5
		c-20.5,6.5-40.3,15.6-62.8,14c-11.5-0.9-23.3,0.3-34.8,2.1c-14.7,2.2-26.4,10.6-36,21.7c-2.9,3.4-5.9,4.6-10.2,4.8
		c-10.4,0.4-20.3,2.5-29,9c-7.4,5.6-16.1,7.5-25.2,8.2c-3.9,0.3-7.8,0.7-10.4,1c-14.5,21.1-27.8,41.5-42.2,61
		c-8.7,11.9-17.8,23.3-19.8,38.5c-0.1,0.5-0.8,1-1.7,1.9c-9.4,1-17.6-3.8-25.9-7.8c-1.5-0.7-2.7-3-3.2-4.8
		c-2.5-10.3-4.5-20.8-7.1-31.1c-4.1-16-6.2-32.6-14-47.6c-2.6-5-5.8-7.6-11.1-8.5c-10.2-1.7-20.3-3.6-30.4-5.6
		c-19.3-3.6-38.5-7.4-57.8-10.9c-2.7-0.5-6.1-0.6-8.5,0.6c-13.5,6.6-26.7,13.5-40,20.4c-9.1,4.7-18.1,9.5-27.4,14.4
		c2.9,6.3,6.4,11.8,7.8,17.7c1.9,8,6.4,13.5,12.7,18.2c7.6,5.6,13.6,12.8,17.1,21.7c1.8,4.7,4.7,7.7,9.1,9.8
		c3.6,1.7,7.1,3.7,10.4,5.9c1.8,1.2,4,3,4.4,4.9c2.7,13,7.2,25.3,12.2,37.5c1.6,4,4.7,8.8,8.3,10.1c7.1,2.7,10.1,8.2,13.3,13.9
		c4.6,8.2,10,16.1,9.9,26.3c0,2.7,2.1,5.5,3.5,8.1c2,3.8,4,7.7,6.5,11.2c2.9,4.2,3.3,8.7,1.8,13.3c-2,6.1-3.8,11.9-0.2,18.1
		c0.8,1.3-0.5,3.8-0.6,5.8c-0.2,3.2-0.3,6.3-0.5,10c8.7-0.1,16.4,0.2,17.6,10.8c0.2,1.6,2.7,2.8,3.8,4.5c1.1,1.6,2.6,3.5,2.6,5.2
		c-0.3,7.3,1,13.7,6.4,19.1c1.3,1.3,1.7,3.6,1.9,5.6c0.8,7.7,5.2,11,12.5,12.9c7.3,1.9,14.3,5.3,15.8,14.6c0.3,2.2,3.7,4.3,6,5.8
		c9.8,6.5,21.3,10.3,28.9,20.1c1.8,2.3,5.6,4.2,8.5,4.3c6.2,0.2,12.5-1,17.3-1.4c4.3-8.9,7.4-17.3,12-24.8
		c10.7-17.1,16.5-35.2,13.7-55.4c-1.7-12.3,1.2-18,12.6-22.6c2.7-1.1,5.6-2,8.4-3c0.3-2.7,0.7-5.3,0.9-7.9
		c0.8-12.7,3.1-24.5,16.9-29.8c0.7-0.3,1.1-1.6,1.6-2.3c1.8-2.3,3.3-5,5.4-6.8c6.3-5.4,12.8-10.6,19.6-15.5c2.3-1.7,5.4-3.2,8.1-3.2
		c6.9,0.1,14,0.4,20.7,2c7,1.7,12.5,6.6,15.2,13.3c4.6,11.3,5.8,22.8,2,34.9c-3.3,10.5-9.2,17.9-18.6,23.4c-3.8,2.2-7.3,6-9.2,9.9
		c-3.1,6.5-5.8,13.3-4.7,21.1c0.6,3.8,0.3,8.4-1.3,11.7c-5.7,11.3-4.4,23.3-4.5,35.2c0,3.8,1.2,6.7,3.3,10
		c3.5,5.5,6.5,11.6,8.4,17.8c2.4,8.1,1.8,8.3,10.4,8.4c1.7,0,3.3,0.2,5,0c7.5-0.7,10.7,4.6,13.4,10c3.1,6.3,1.7,12.9-3.2,17.2
		c-4.2,3.7-8.9,6.8-13.8,10.6c3.8,1.5,7.4,2.8,11,4.4c3.6,1.6,8.2,2.6,10.5,5.4c7.8,9.4,17.7,17.2,23,28.6c1.2,2.7,3.2,5,4.7,7.4
		c1.3,0.2,2.3,0.5,3.3,0.5c11.5,0.2,22.2,2.6,31.7,9.9c3.7,2.8,9.2,3.2,13.8,4.9c3.3,1.2,7.3,1.7,9.8,3.9
		c9.4,8.4,18.4,17.3,27.4,26.1c12.4,12.2,12.2,12.2,0.6,25.3c-3.4,3.8-7,5.4-12.2,5c-2.9-0.3-6.6,0.9-9,2.8
		c-5.6,4.4-11.1,3.6-16.8,1c-2.7-1.2-5.1-2.9-7.8-4.5c-4.7,6.7-10.7,12.5-13.4,19.6c-3.1,8-7,14.5-13.3,20.4
		c-13.7,13-26.4,27-46.4,30.1c-0.3,0-0.5,0.4-1.5,1.2c3.4,1.9,6.3,4,9.6,5.2c7.1,2.7,14.3,5.2,21.6,7.3
		c18.2,5.4,36.4,10.4,54.6,15.7c15.8,4.5,17.8,7,18.9,23.3c0.2,3,0.1,6-0.3,8.9c-1.6,12.2-3,24.4-5.2,36.5c-1.6,8.8,0.7,14.6,8,20.3
		c9.2,7.2,21.8,10.3,27.6,21.9c1.2,2.3,3.1,4.3,4.7,6.4c3.4,4.6,7.8,7.1,13.6,6.9c3.3-0.1,6.7,0.1,10,0c6.4-0.3,12.5,0.1,17.9,4.5
		c3.7,3,8.1,2.2,12.4,0.9c11.3-3.4,22.3,1.3,33.5,1.6c1.2,0,2.3,1.2,3.5,1.7c9.5,4.2,12.9,13.6,17.9,21.5c19-0.2,21.9,0,42.3,9.8
		c6.2,3,10.1,1.8,14.1-2.3c4.5-4.5,7.9-10.9,13.2-13.4c8.4-3.9,10.8-11.2,14.5-18c1.3-2.3,2.7-4.6,4-6.9c2.1-3.9,5-5.7,9.7-5.3
		c10.4,0.9,16.7-5.1,20.8-13.8c1.4-3,2.5-6.2,3.7-9.3c2.5-6.8,7-12,12.9-16.1c10.5-7.2,19.8-5.6,27.1,5.1c1.3,1.9,2.1,4.1,2.9,5.6
		c9.3-5.9,16.1-10.8,23.4-14.6c11.3-6,19.9-0.5,19.8,12.1c-0.1,7.1,2.4,9.8,9.4,8.9c4.2-0.5,8.2-2.4,12.1-4c2.1-0.9,3.9-2.6,6-3.5
		c6.9-3.1,11.1-1.6,14.8,5c1.1,2,2.3,4,3.5,6.2c2.2-0.6,4.2-0.9,5.9-1.6c10.2-4,19.5-2.5,28.1,4.3c2.3,1.9,4.7,4.7,7.3,5
		c11.5,1.5,16.7,9.7,21.8,18.5c1.8,3.2,4,5.1,8,4.2c5.1-1.1,8.9,1.1,12.3,4.8c2.2,2.4,5.1,4.3,8,6.7c8.5-8.4,13.3,1.5,19.4,4.2
		c2.6-0.9,4.8-1.6,7-2.5c3.7-1.7,7-0.9,8.6,2.5c2.8,5.6,7.6,8.2,13,10.2c3.6,1.3,5.3,3.7,5,7.6c-0.1,1.8,0.3,3.6,0.5,6.5
		c2.3-1.6,4.3-2.2,4.8-3.4c4.5-12.2,15-15.9,25.9-19.9c8.4-3.1,14.7-1.1,20.5,5c1.8,1.9,4.1,4.6,6.1,4.6
		c11.9-0.1,15.6,9.1,19.6,17.3c2.8,5.7,2.4,12.9,8.6,17.1c1.2,0.8,1.5,3.6,1.6,5.5c0.5,12.6-11.2,22-23.9,19.6
		c-3-0.6-6.3,0.2-9.5,0.5c-2.2,0.2-4.5,1.2-6.6,1c-10.8-0.8-13.3,0.4-15.3,10.4c-1.3,6.6-4.4,11.7-8.9,16.3
		c-6.5,6.9-13,13.7-19.9,21c10.2,5.7,12.7,16.3,15.7,26.4c1.1,3.5,1.5,8.3,5.8,8.1c4.6-0.2,10.3,0.7,13.4-4.6
		c7.2-12.4,19-20.3,29.1-29.9c4.4-4.2,10.1-6,16.3-6.5c11.6-0.9,23.1-2.2,34.6-3.5c4.6-0.6,7.8,0.6,9.3,5.3c0.5,1.5,1.4,2.8,2.1,4.2
		c11.9-0.6,24.1,3.6,34.5-5.7c-1.5-7-6.6-9.9-12.1-12.5c-2.9-1.4-6.3-2.7-8.1-5.1c-4.2-5.5-7.9-11.5-11.3-17.6
		c-2.5-4.5-1-8.4,3.7-9.2c5.1-0.9,10.4-0.8,15.6-0.8c5,0,10,1.2,14.8,0.8c10.6-1,21.2-2.2,31.5-4.5c5.7-1.2,10.1-0.6,15.2,1.8
		c4.6,2.2,10.4,4.9,14.9,3.9c9.6-2,19.7-4.7,25.2-14.2c5.5-9.4,13.9-13.6,24.2-15.7c3.5-0.7,7.8-3.1,9.6-6
		c3.7-5.7,6.6-12.2,8.7-18.7c2.8-8.4,6.8-15.7,12.9-22.1c7.5-7.9,8.2-16.4,3.2-26.5c-1.5-3-2.6-6.2-4.4-9
		c-4.9-7.4-2.9-14.4,0.4-21.6c1.5-3.4,3.3-5.4,7.4-5.4c6,0,12-0.8,18-0.5c6.6,0.4,11.1-1.7,15.3-7.1c3.3-4.2,8.3-9,13.2-9.8
		c10.6-1.6,19.2-7.2,28.8-10.9c4.4-1.7,6.3-4.5,7.2-9.5c2.5-12.9,0.4-25.3-3.1-37.4c-3.1-10.7-1.8-20.9,0.5-31.3
		c1-4.4,3.1-7.1,7.8-7.6c10.2-1.2,20.5-2.3,30.6-4.1c15.6-2.9,31.2-6.2,46.8-9.5c12.7-2.7,25.2-6,37.9-8.3
		c21.6-3.9,43.4-6.2,64.8-11.1C2596.4,2001.9,2608.3,1999.1,2614.3,1985.2z M2569.3,1671c1.4-4.7,2.7-10.6,5-16
		c2.6-6.1,1.7-10.7-2.8-15.3c-4.9-4.9-7-10.7-7.8-17.8c-0.7-6.5,0.9-12.4,1.8-18.6c0.8-6,3.6-9.3,8.9-12
		c28.7-14.7,57.4-29.4,85.7-44.9c11.6-6.3,20.1-16.6,31.5-26.2c-5.2-1.7-8.2-2.8-11.3-3.6c-9.6-2.4-19.4-4.5-28.9-7.2
		c-9-2.5-17.9-5.3-26.5-8.8c-20.1-8.1-36-20.8-44.2-41.7c-1.2-3-3.3-5.7-5.4-8.2c-8.9-10.3-17.8-20.7-27-30.7
		c-8.3-9-16.9-17.8-25.7-26.3c-9.6-9.1-19.7-17.8-29.7-26.5c-2.3-2-5.2-3.2-8.8-5.4c-1,4.4-1.6,7.3-2.2,10.2
		c-1.9,9.6-5.1,18.7-11.1,26.5c-10.7,13.9-19,28.5-19.5,46.7c-0.1,4.1-2.6,8.1-3.6,12.3c-2.1,8-4.6,15.9-5.6,24.1
		c-0.9,7.2-3.7,12.7-9.6,16.5c-7.5,4.9-15.3,9.5-22.8,14.3c-9.8,6.3-19,5.4-29-0.4c-5.9-3.4-12.9-5.2-19.6-6.7
		c-7.8-1.7-15.8-2.3-23.7-3.2c-3.6-0.4-7.5-1.6-10.8-0.6c-6.5,1.8-12.7,0.7-18.6-1.3c-10.1-3.4-20-7.1-29.8-11.2
		c-8.5-3.6-14.6-9.9-18.5-18.7c-2.4-5.4-5.8-10.6-9.9-14.8c-7-7.1-14.9-13.3-22.4-19.8c-4.4-3.8-8.9-7.4-13.9-11.5
		c-1.2,13.1,6.8,22.4,11.2,34c-2.4-1-3.5-1.2-4.2-1.8c-6.7-6.5-13.2-13.2-19.9-19.5c-5.5-5.2-10.8-11.1-17.2-14.9
		c-11.4-6.8-23.6-12-37.6-11.6c-14.7,0.4-27.2-4.7-36.4-16.8c-2-2.6-4.6-4.9-7.1-7c-6-5-7.3-4.8-13.9-0.6c-4.4,2.8-9.1,5.4-14,6.9
		c-4.9,1.6-10.3,1.7-15.9,2.6c-3.2-0.9-6.9-2.6-10.8-3c-9.7-0.9-19.5-1.2-29.2-1.7c-1.6-11.9-10.6-20.9-6.7-32.6
		c0.3-0.8-0.5-1.9-0.7-2.9c-0.7-3.8-1-7.7-1.9-11.4c-1.6-6.3,1.7-13.8-4-19c-7.5-6.8-7.9-15.4-7.2-24.4c0.2-2.3,0-4.7,0.1-7
		c0.9-35.9,1.7-71.8,2.7-107.8c0.2-6.2-1.6-11.4-4.6-16.9c-10.4-19-18.2-39.1-21.4-60.8c-2.3-15.5,0.7-30.5,4.3-45.4
		c1.5-6.1,0.1-10.3-4.3-14.1c-4.7-4.2-9.2-8.7-13.9-12.8c-4.3-3.7-9.9-4.3-13.1-0.1c-4,5.3-9.1,5.8-14.6,6.5c-0.9-0.8-2.1-1.3-2.4-2
		c-3-10-11.6-13.7-19.9-18c-6.3-3.3-12.3-7-18.5-10.5c0.2-0.8,0.3-1.6,0.5-2.4c10.9-1.7,21.8-3.5,33.3-5.3c-1.5-11.1-3-21.6-4.4-32
		c-0.7-5.1-3.1-9.2-6.6-13.1c-6.9-7.6-14.8-14.4-18.3-24.4c-0.2-0.5-1-0.8-1.5-1.2c-11.9-4.6-17.4,5.5-24.6,11.3
		c-10.5-5.3-21.4-8.7-30.2-16.7c1.9-2.7,4.3-4.8,5.3-7.5c1.4-4.2,5-8.9,1-13.1c-6.6-6.7-9.4-15.2-12.3-23.7
		c-2.5-7.3-6.6-11.8-14.7-12.7c-2.5-0.3-6.1-2.1-7-4.2c-4.3-9.7-9-19.7,0-29.4c0.2-0.2,0.4-0.5,0.6-0.8c5.7-10.3,1.7-17.2-10.2-18
		c-14.9-1.1-29.8-2.4-44.6-4c-7.2-0.8-14.4-2.2-21.6-3.8c-4.4-0.9-7.9-3.2-7.2-9.3c5.6-0.3,10.9-0.4,16.1-1
		c9.2-0.9,12.6-5.1,12.2-14.4c-8-2.4-15.7,0.3-23.4,2c-9.4,2.1-18.4,2-26.7-4c-4.3-3.1-9.3-5.3-13.5-8.5c-6.8-5.1-12.1-11.5-14-20
		c-4.5-19.7-2.1-38.9,6.1-57.2c1.7-3.9,3.3-7.1,0.7-10.9c-20.3-2.4-26.5,9.3-26.8,26.9c-0.1,3.3,0.4,6.7,0.3,10
		c-0.3,13-6.5,21.3-19.1,23.5c-9,1.6-15.2,6.5-22.2,12c-13.5,10.6-28.4,19.5-42.8,29.2c-0.5,0.4-1.2,0.7-1.8,0.8
		c-9.7,2-17.9,6.8-25.5,12.9c-0.4,0.3-1.3,0-2.6,0c-3.7-4-7.7-8.5-11.9-12.7c-13.4-13.5-13.4-13.5-3.2-30.1c1.2-2,2.9-3.8,3.7-5.9
		c1.8-4.9,3.3-9.9,4.6-15c0.6-2.5,0.5-5.1,0.7-8c13.5,3.1,22.5-3.7,28.8-13.5c4.7-7.3,8-15.2,17.6-17.5c-3.1-8.9-7.4-15.3-14-20.2
		c-11.5-8.6-12.2-8.5-24.3-0.6c-9.1,6-18.5,11.8-28.3,16.7c-9.9,5-19.2,10.1-25.4,19.9c-2,3.1-5.6,5.8-9,7.4
		c-7.8,3.5-13.1,9.3-16.5,16.6c-3.4,7.4-8.8,11.3-16.4,13.1c-5.1,1.2-10.2,2.2-16.9,3.6c2.3,3.2,3.6,6.8,6,8
		c17.7,9.2,32.3,22,44.4,37.7c1.2,1.5,3.1,2.5,4.5,4c3.2,3.4,6.5,6.8,9.2,10.5c3.5,4.9,3.8,9.5-0.2,13.6c-4.9,5-8,12.5-16.7,12.9
		c-1.7,0.1-3.4,1.9-4.8,3.3c-14.5,13.7-28.9,27.4-43.2,41.3c-2.5,2.4-4.7,5.7-5.8,9c-3.3,10.1-8.7,18.6-16.8,25.5
		c-2.2,1.9-3.9,4.5-5.8,6.8c-4.8,5.5-9.5,11.1-14.5,16.4c-8,8.4-16.6,16.2-24.4,24.8c-5.1,5.7-11.4,7.8-18.5,8.3
		c-6.2,0.4-12.5,0.1-18.7,0.1c-6.3,0-12.7,0.5-19-0.3c-13.5-1.6-27-3.1-40.5-1.5c-8.8,1-18.4,1.5-26.1,5.4
		c-8.6,4.4-15.5,12.3-23,18.8c-2.7,2.4-4.9,5.5-7.7,7.8c-18,14.8-36.1,29.4-54.2,44c-28.2,22.8-56.3,45.7-84.5,68.5
		c-2.9,2.4-5.5,4.7-5.2,9c0.5,6.4-2.8,11.2-6.9,15.9c-8.8,10.2-7,16.3,2.2,23.3c12.6,9.6,26.6,18,30.3,35.3
		c12.5-1.4,21.1,4.5,28.6,12.7c3.3-0.9,6.3-1.3,9-2.5c7.7-3.3,14.6-2.2,21.9,1.6c6.8,3.5,11.8,8.5,16.4,14.2
		c5.1,6.4,4.4,6.8-0.7,13.5c-6.6,8.6-14.4,16.1-19.5,26.1c-4.6,9-10.6,17.9-22.5,21c-13.9,3.6-27.7,2.9-41.6,2.6
		c-2.3-0.1-4.8-0.9-6.7-0.1c-6.5,2.4-13.3,4.7-19.2,8.2c-7.4,4.5-14.1,5.5-21.1-0.3c-0.7-0.6-1.8-0.7-3.5-1.3
		c-3.5,3.1-7,6.5-10.8,9.6c-5.4,4.3-5.1,9.4-3,15.3c4,11.2,7.6,22.5,11.5,33.8c2.1,6,3.6,11.9,1.5,18.4c-0.8,2.3-0.3,5.4,0.5,7.8
		c4.4,13.5,9.2,27,13.7,40.3c2.3,0.5,3.9,0.9,5.5,1.2c30.7,5.9,61.3,11.8,92,17.8c2.4,0.5,5.7,1.4,6.7,3.2
		c4.1,7.6,8.6,15.2,10.9,23.4c4.3,15.3,7,31,10.8,46.5c5,20.4,5.1,20.4,26.8,26.4c0.8-1.3,2.2-2.6,2.3-4
		c1.3-13.4,9.9-22.8,17.2-33.1c13.1-18.4,26.3-36.9,38.2-56.1c4.3-6.9,8.6-10.1,16.3-10c10.3,0.2,19.7-2.6,28-8.8
		c7.2-5.4,15.6-7.4,24.3-7.7c6.4-0.2,10.9-2.6,15.4-7.5c10.7-11.5,23.8-19.3,39.9-20.4c12.6-0.8,25.2-1.6,37.8-1.4
		c9.5,0.1,18.5-1.8,27.4-4.6c7-2.2,13.8-4.9,20.8-6.9c5.7-1.6,9.9-4.4,12.9-9.8c4.3-7.7,12.5-11,20.3-10.3c15.1,1.3,30.1,4.5,45.1,7
		c12.4,2.1,24.8,4.3,37.2,6.5c7.2,1.2,14.5,2,21.5,3.8c10.6,2.7,21,6.2,31.6,9.1c43.9,12.3,87.7,24.6,131.6,36.8
		c4.4,1.2,8.5,3.1,13.5,0.7c2.9-1.4,6.8-1.2,10.1,1.9c4.8,4.5,10.3,8.4,15.8,12c15.4,9.9,30.9,19.6,46.5,29.2
		c3,1.9,6.9,3.9,10.1,3.6c8.6-0.7,16.2,2.3,24.3,4c7.2,1.6,14.4,2,21.1-2.4c5.5-3.6,11.7-9.1,17.2-8.8c5.6,0.4,10.8,6.9,16.2,10.8
		c12.2,8.8,24.7,17.3,40.1,18.8c12.3,1.2,21.8,7.2,30.7,15c9.4,8.3,12.6,18.3,8.9,30.4c-2.3,7.6,0.1,13.7,6,18.6
		c5.6,4.6,10.6,10.5,19.2,8c5.7,3.9,11.5,2.8,17,0c5.2-2.7,9-1.3,13.8,1.4c5.4,3.1,11.6,5.2,17.7,6.1c7.7,1.2,15.7,0.5,23.6,1.1
		c7.6,0.6,16.2,0.5,20.5,7.9c4.5,7.7,10.6,9.9,18.9,10.2c6.6,0.2,13.1,2.1,18,7c6.8,6.8,13.3,14,20.5,20.3c3.3,2.9,7.8,5.9,12,6.1
		c5.9,0.4,9.2,2.7,11.6,7.6c1.6,3.3,3.5,6.2,8,6.5c13.1,0.7,21.9,8.3,29,18.6c2,2.9,4.8,5.4,7.4,7.9c4.6,4.3,9.6,8.1,13.8,12.7
		c5,5.4,11.2,10,17.9,9.9c13.7-0.3,24.4,7,34.5,13.5c9.6,6.2,17.6,8,27.7,4c3.7-1.5,8.1-1.6,11.3-3.8c6.2-4.3,11-2.1,16.5,1.2
		c6.3,3.7,12.8,7.2,19.5,10c7.4,3.2,16.3,2.3,21.9-1.7c14.8-10.6,32.5-19,38.2-38.8c0.3-0.9,1-1.8,1.3-2.7c1.8-4.6,5.1-5.7,9.6-4.5
		c8,2.1,16,4.5,24.2,6C2526.5,1679.4,2547.9,1682.3,2569.3,1671z M2480,1359c8.7,0.9,11.1,2,14.8,5.4c9.3,8.5,18.8,16.8,28.1,25.3
		c5.6,5.1,11.6,9.9,16.7,15.6c13.3,14.8,26.4,29.9,39.3,45.2c4,4.7,8.4,5.9,13,2.8c5.2-3.4,10.1-7.5,14-12.2
		c3.7-4.4,7.8-6.8,13.2-8.1c17.1-4.3,34-9.1,51.1-13.4c3.1-0.8,6.7-0.5,9.8,0.3c21.6,5.4,43.1,11,64.7,16.5c4.1,1,8.5,2.1,12.7,2
		c24.6-0.4,49.2-1.2,73.8-1.6c7.8-0.1,15.5,2,21.2,7.4c5.2,5.1,11.1,8.3,17.7,10.8c7.5,2.8,15,5.5,22.2,9c12.6,6.2,25.7,5.3,39,3.6
		c9.4-1.2,18.2-2.9,24-11.6c0.3-0.4,1.2-0.4,2.6-0.7c14,9,28.4,18.3,43.5,28.2c1.1-3,2.2-4.8,2.2-6.5c-0.1-18.9,1.7-37.9-4.6-56.4
		c-1.3-3.7,0-8.4,0.9-12.4c0.4-1.8,3-4.7,4.2-4.6c2.2,0.3,4.4,2.4,5.9,4.2c1.5,1.7,2.2,4.1,3.3,6.1c4.2,7.9,6.8,8.4,13.6,3
		c5.2-4.2,10.2-8.6,15.4-12.7c11.6-9.2,23.6-15,37.2-3.6c0.5,0.4,1.2,0.6,1.8,0.8c7.2,3.5,13.8,2.6,18.3-3.6c3-4.2,6.3-5.2,11-5.1
		c3.2,0.1,7.2,0.4,9.4-1.3c10.1-7.5,19.6-15.8,29.4-23.7c2-1.6,4.4-3.6,6.8-3.9c15.6-2.4,28-11.9,41.8-18.3
		c11.6-5.5,18.5-15.6,27.6-25c-6-8.5-11.4-16.9-17.6-24.5c-5.2-6.3-7.7-13.3-7.8-21c-0.3-15.8-6.5-29.6-13.5-43.3
		c-2.8-5.3-6-10.5-7.7-16.2c-3.4-11.1-5.8-22.5-8.8-33.8c-2.9-10.9-4-22.2-9.6-32.4c-4.8-9-8.7-18.5-13.5-28.7
		c-10.7-4.5-22.5-9.2-35.5-11.6c-14.4-2.6-28-9.1-37.2-21.4c-5-6.7-10.8-11-18.7-13.7c-12.7-4.3-24.4-10.3-31.9-22.5
		c-5.5-9-11.9-17.4-18.4-26.8c-7.3,2.9-14.9,5.3-22,8.9c-6.2,3.1-11.2,2.6-16.5-1.6c-5.1-4.2-10.7-8-15.7-12.2
		c-6.7-5.7-11.3-12.4-13.5-21.4c-2.6-10.5-9.8-18.2-20.8-20.7c-15.5-3.6-31.2-6.8-46.8-9.8c-3.4-0.7-7.4-0.4-10.6,0.8
		c-5.7,2.1-10.2,1.2-14.3-3.1c-11.4-12-23-24-34.4-36c-2.4-2.5-4.7-5.2-7.4-8.2c-8.1,10.5-20.4,9.6-29,13.9
		c-1.2,4.7-0.9,9.4-3.2,11.7c-4.1,4.1-9.2,7.9-14.7,9.9c-5.9,2.1-9.7,5.2-11.9,10.9c-0.9,2.5-2.3,4.8-3.3,7c-3.2,0.9-6.2,1.4-9,2.4
		c-8.3,3-15.4,2.5-23.3-2.9c-6.5-4.5-13.3-9.9-22.2-10.6c-22.5-1.7-45-3.9-67.4-5.9c-30.4-2.7-60.8-5.4-91.3-8
		c-34.4-2.9-68.8-5.7-103.2-8.6c-30.1-2.5-60.2-5.1-90.3-7.6c-18.9-1.6-37.7-3-56.6-4.6c-34.4-3-68.7-6.2-103.1-9.2
		c-19.8-1.7-39.7-3.1-59.6-4.8c-34.4-3-68.7-6.1-103.1-9.3c-20.8-1.9-41.6-4-62.4-5.8c-9.5-0.8-19.1-1.3-29.6-2
		c-2.9,8.9-5.8,17.3-8.2,25.8c-0.9,3.1-1.7,5.6-5.3,6.3c-2.2,0.5-4.3,1.5-6.8,2.5c2.8,6.8,5.2,12.9,10.7,17.9
		c5,4.6,10.8,10.2,12.4,16.4c3.4,13,4.4,26.6,6.4,40.7c-10.3,1.6-19.1,2.9-28.3,4.3c0.8,1.5,0.9,2.3,1.4,2.6
		c6.4,3.6,12.8,7.1,19.2,10.6c4.1,2.2,7.8,4.3,9.1,9.7c1.3,5,6.2,5.8,10.3,2.8c1-0.8,1.7-2.1,2.6-3c6.5-6.2,13.5-6.1,19.9,0.1
		c4.6,4.4,9.1,8.7,13.9,12.9c4,3.6,6,7.7,4.7,13.3c-1.1,4.8-1.5,9.9-2.7,14.7c-2.5,10.1-3.3,20-2,30.5c2.9,23.2,11.1,44.3,22.4,64.5
		c2,3.6,3.4,8,3.4,12.1c0.1,9.3-1,18.6-1.1,27.9c-0.4,25-0.5,50-0.8,74.9c0,3-0.7,5.9-0.9,8.9c-0.7,10.2-2.1,20.5,6.5,28.9
		c4.1,4.1,4.9,9.5,5.1,15.5c0.6,16.4,1.1,33,9.1,48.3c4,1,8.1,2.6,12.3,3c4.5,0.4,9.1-0.6,13.6-0.5c2.2,0,4.4,1.1,6.6,1.7
		c1.6,0.5,3.3,1.9,4.6,1.6c9.6-2.8,20.2-1.7,28.7-8.8c6.7-5.6,8.9-5.3,15.6-0.4c2.1,1.5,3.8,3.6,5.6,5.6
		c9.9,10.7,20.5,18.6,36.7,18.5c21.1-0.2,39.3,8.4,53.9,24.2c3.7,4.1,8,7.7,13.4,12.7c0-9.6-6.7-17.7,0.9-25.2
		c11.3,10.1,21.7,20.4,33.1,29.4c7.4,5.8,12.8,12.6,16.4,20.9c3.5,8.1,9.2,13.5,17,17.2c12.4,5.9,24.9,12.1,38.7,12.2
		c13.7,0.1,27.1,2,40.6,3.6c9.5,1.1,18,3.9,26.2,8.6c5.2,2.9,11.1,5.1,17,1.8c9.5-5.4,19.1-11,28.1-17.2c3.3-2.3,6.8-6.5,7.1-10.1
		c1.1-12.1,4.8-23.3,9.1-34.5c1-2.7,1.8-5.8,1.7-8.8c-0.4-13.7,5.8-25.3,13.2-35.7C2471.7,1391.9,2479.7,1377.1,2480,1359z
		 M2726.6,642.4c-2-4.3-3.3-7.3-4.8-10.2c-12.3-23.7-24.1-47.5-26.5-74.7c-0.6-6.3-3.4-11.1-9-14.6c-2.6-1.6-5.5-4.4-6.2-7.3
		c-4.3-15.6,2.6-29.8,6-44.5c0.3-1.4,2-2.6,3.1-3.8c2.8-2.9,5.5-5.9,8.6-8.4c2.9-2.3,4.2-4.8,4-8.5c-0.7-10.5-1.2-21.1-1.8-31.9
		c-13.8-6.6-28.2-9.4-42.6-10.9c-7.4-0.8-14.1-2.6-21-5.1c-15.2-5.6-18.6-16.4-15.9-30.3c3-15.3,8.2-30.1,12.4-45.2
		c1.2-4.4,3.8-6.9,8.8-5.9c2.3,0.4,4.6,0.6,6.9,0.9c20.2,2.1,40,0.9,57.9-10c16.7-10.2,34.5-13.2,53.6-10c2.6,0.4,5.3-0.3,10.1-0.7
		c-8.7-7-15.3-12.5-22.1-17.7c-5.3-4.1-11.3-6.4-18.2-7.4c-8.1-1.2-16-4.2-24-6.5c-12.1-3.5-24.1-7.5-36.3-10.3
		c-8-1.8-15.1-4.3-21-10.2c-6.7-6.6-14.4-11.7-23.5-14.5c-9.2-2.8-18.6-5.3-27.7-8.4c-6.2-2.1-12.2-1.9-18.6-0.8
		c-0.2,2.3-0.7,4.1-0.3,5.6c3.1,13.9-1.2,25.8-8.3,37.6c-4.8,7.9-8.9,10.3-17.4,6.5c-7.2-3.3-14.5-6.6-21.5-9.8
		c-2,1.2-3.7,1.8-4.8,2.9c-5.7,5.4-12,4.7-18.6,2.2c-2.2-0.8-4.3-1.9-6.3-3c-10.3-5.8-21.7-6.3-32.9-6c-5,0.1-10.3,2.6-14.7,5.3
		c-7.4,4.4-14.1,10.1-21.3,14.9c-9.7,6.4-18.9,13.6-30.8,15.7c-6.4,1.1-11.5,0.2-15.8-5.2c-2.8-3.5-6.4-6.7-10.2-9.2
		c-9.7-6.4-19.6-12.4-29.6-18.4c-4.8-2.9-8.3-6.7-10.2-11.9c-3.1-8.4-10.8-10.2-17.9-12.8c-1.4-0.5-3.9,0.5-5.4,1.5
		c-2.4,1.7-4.6,3.9-6.4,6.3c-11.4,15.4-25.5,28-40.2,40c-7.9,6.5-11.9,14.1-9.7,24.3c2.9,13.1,0.4,25.7-2.8,38.4
		c-0.7,2.7-1.4,6.2-0.3,8.6c4.2,9.3,3,18.1-0.5,27.1c-1.7,4.4-1.9,8.7-0.6,13.5c1.3,4.9,1.6,10.7,0.4,15.6
		c-4.4,18.4-9.5,36.6-14.5,54.8c-0.5,1.9-2.5,4.3-4.3,4.8c-6.2,2-12.3,5.2-19.3,3.2c-2.4-0.7-5.5-0.8-7.9,0
		c-12.8,4.3-25.8,5.3-39.2,2.9c-1-0.2-2,0.2-3-0.1c-14.8-3.7-27.1,0.6-38.7,10.1c-5.9,4.8-9.3,3.1-11.4-4.4
		c-1.5-5.4-1.2-11.5-3.6-16.5c-7.3-15.4-17.9-28.6-30.7-40c-12.2,4.9-22,1.6-31.9-5.5c-7.2-5.2-15.3-10.3-23.7-12.2
		c-12.4-2.8-25.5-3.1-35.2-8.4c-9.6,8-17.3,15.3-25.9,21.3c-12.2,8.5-22.1,18.9-30.5,31.1c-4.9,7.1-8.4,14.1-7.5,23
		c0.3,3.2-0.9,6.5-1.4,9.8c-0.3,2.2-1.4,4.7-0.8,6.7c2.7,9.2,3.3,19,8.8,27.4c3.2,5,5.1,10.9,8,16.1c7.5,13.4,16.8,25.5,28.4,35.6
		c12.9,11.2,28.9,16.1,44.5,22.6c1.7-1,3.4-1.9,5.1-3c5.6-3.4,10.8-3.5,16.7,0.4c9.2,6,19.4,10.5,28.2,16.9
		c14.5,10.5,28.3,21.9,42.2,33.2c5,4.1,3.8,10-1.7,13.8c-3.8,2.6-7,5.9-10.4,9c-3.4,3.1-6.5,6.4-10.2,10
		c-18-7.8-35.3-15.3-52.7-22.7c-11.3-4.8-24.3-3.5-31.1,10.5c-1.8,3.8-4.5,7.2-7.2,10.5c-3.8,4.6-8.2,8.7-11.9,13.3
		c-8.9,11.2-16.8,23.2-26.6,33.6c-13.4,14.3-23.1,30.9-32,47.9c-6.4,12.4-8.3,26.3,1.7,38.4c5.7,6.9,8.7,14.7,11.9,22.8
		c3.7,9,1.9,16.8-2.6,24.6c-2,3.5-4.3,6.7-6.2,10.2c-1.2,2.2-1.9,4.6-2.9,7.2c17.1,1.6,33.3,3.2,49.5,4.7
		c38.4,3.4,76.7,6.7,115.1,10c30.1,2.6,60.2,5.4,90.3,7.9c34.1,2.9,68.2,5.5,102.2,8.4c31.1,2.6,62.2,5.4,93.3,8
		c18.5,1.6,37.1,2.9,55.6,4.5c26.8,2.3,53.5,4.8,80.3,7.2c19.9,1.7,39.7,3.1,59.6,4.8c34.7,3,69.4,6.8,104.1,8.9
		c14.9,0.9,28,5.4,39.8,13.6c5.4,3.7,9.8,4.8,15.5,2.1c1.8-0.8,4-0.6,5.8-1.4c2.2-1,5.3-2.3,5.9-4.2c2.9-8.8,8.8-13,17.4-16
		c6.4-2.2,13.7-6.1,12.2-15.7c-0.5-3.6,2.1-5.3,5.3-6.1c4.8-1.3,9.6-2.6,14.4-4c4.9-1.5,8.9-4.1,10.8-8.9c-3.5-7-10.1-7.5-16.2-8.7
		c-9.4-1.9-11-4.7-7.6-13.6c2.3-6.1,0.9-11.6-4-13.4c-14.3-5.3-26.4-13.8-36.8-24.9c-6.1-6.4-13.9-7.4-22.1-5.7
		c-1.9,0.4-4.3,2.1-4.9,3.8c-1.3,3.4-2.6,6.6-6.8,5.7c-3.5-0.8-8.1-1.7-9.8-4.2c-3.7-5.5-7.1-10.7-13.2-14.1c-3.2-1.8-1.7-6.7,2-7.6
		c1.9-0.5,4-0.1,5.9-0.1c8.3-0.1,16.7,0.5,24.9-0.6c18.4-2.4,18-3,28.1-19c4.8-7.5,2-14.8,1.5-22.2c-0.5-5.8-6.8-6.6-10.8-9.3
		c-4.7-3.2-8.8-1.9-12.4,1.8c-3.7,3.8-7.2,7.8-10.6,11.9c-3.4,4.1-6.7,8.2-9.8,12.5c-2.8,3.9-6.9,3.7-10.7,3.1
		c-1.6-0.3-3.8-3-3.9-4.7c-0.2-7.9-0.2-15.8,0.7-23.6c1.1-8.8,0.8-16.5-7.8-21.7c-1.9-1.2-3.7-3-4.9-5c-6-9.3-15.2-14.4-24.3-20.1
		c-6.6-4.2-12.1-10.2-17.5-16c-1.8-1.9-3-5.6-2.7-8.2c1.2-12.2,2.6-24.4,8.8-35.5c7.1-12.6,16-21.2,31.6-22.5
		c15.1-1.3,30.2-4.4,45.1-7.4C2717,647.7,2721.5,644.7,2726.6,642.4z M1907,927.1c4.8-19.4,11.9-35.3,21.1-50.5
		c3.1-5.1,6.3-12.2,5.2-17.5c-1.9-9.2-5.4-18.2-11.5-26.2c-4.6-6.1-9.4-14.3-9.1-21.4c0.4-11.7,4-23.7,11.2-33.6
		c10.9-15,18.9-32.2,33.6-44.3c0.2-0.2,0.3-0.6,0.5-0.8c10.3-14.3,19.8-29.1,33.3-40.8c1.9-1.6,3.1-4.3,4.2-6.7
		c8.2-17.8,23.4-19.2,38.9-11.6c15.7,7.7,32.3,13.5,48,19.9c6.1-6.1,10.8-11.7,16.5-16.2c7-5.6,7.3-7.3,0.3-12.3
		c-5.7-4.1-11.5-8-16.5-12.8c-15-14.5-32.2-25.7-50.7-35c-3.5-1.7-7.1-3.5-10.2-0.8c-7,6.3-13.5,2.8-20.2,0.1
		c-2.5-1-4.8-2.3-7.3-3.2c-28.7-10.4-46.5-32-60-58.1c-2.4-4.7-5.5-9.3-7-14.3c-2.9-9.7-5.8-19.6-7.1-29.7
		c-0.8-6.7,1.1-13.8,2.2-20.6c0.5-3.1,1.8-6.3,3.3-9.1c10.6-19.1,26.1-33.4,44.4-44.9c5.8-3.6,10.1-8.3,13.1-15.2
		c-9.6-3.4-18.4-7.5-27.7-9.6c-21.5-4.8-37.6-17.3-52.1-33.1c-12.6-13.7-21.8-30.3-37-41.6c-5.2-3.9-6.9-8.4-3.5-14.6
		c1.1-2.1,0.7-5.1,1-8c-5.1-3.1-9.6-6.5-14.7-8.8c-11.5-5.2-23.3-9.8-34.8-14.8c-7.3-3.2-14.2-7.4-21.7-9.9
		c-21.2-7.2-43-4.8-64.9-2.8c0.2,1.5,0,2.6,0.4,3.4c6,11.4,6.3,23.3,3.5,35.7c-1.5,6.4-2.2,13.1-3.2,19.6
		c-2.1,14.1-2.2,27.8,7.7,39.6c0.2,0.3,0.4,0.5,0.6,0.8c7,13.9,4.8,21-8.8,28.2c-0.9,0.5-1.8,1.2-2.7,1.3
		c-7.4,0.9-9.4,6.3-10.7,12.5c-3.1,15.8-1.9,31.8-2.5,47.7c-0.9,25.5-0.2,28.2-23.9,35.9c-0.3,0.1-0.6,0.2-1,0.2
		c-4.3,0.5-6,3.2-6.9,7.3c-2.4,11.8-3.7,23.4-0.8,35.5c1.7,7,2.8,14.5-0.8,21.5c-4.1,7.7-4.9,15.5-3.1,24.1
		c0.9,4.6-0.2,9.8-0.9,14.6c-0.8,5-4.7,6.5-9,5.4c-6.1-1.6-12-3.7-17.9-6c-6.1-2.5-11.9-5.9-18.1-8.1c-14.1-5-26.6-12.3-35.4-24.7
		c-6.2-8.7-14.4-14.2-24.3-18c-12.6-4.9-23.2-12.6-31.2-23.9c-8.5-12.3-17.5-24.1-29.3-33.8c-17.1-14.1-35.4-25.9-56.8-32.2
		c-9.9-2.9-19.8-5.5-29.7-8.2c-1.9-0.5-4-0.7-6.8-1.1c5.2,9.2,12.7,14.3,20,19.4c21.8,15,37.4,34.8,45.7,59.9
		c2.6,7.8,2.7,16.4,5.3,24.3c3.2,9.9,0.4,17.3-7.8,22.3c-7.4,4.5-8.5,10.9-8.9,18.5c-0.5,9.6-0.8,19.3-2.7,28.7
		c-3,15-1.4,15.7-17.4,15.2c-1,0-2,0-3,0.1c-11.1,1.8-21.7-0.2-32.3-3.2c-6.2-1.7-9.7-5.1-10.9-11.4c-0.4-2.1-2-4-3.2-6.3
		c-4.3,0.9-8.3,1.5-12,2.7c-8.6,2.9-17.1,2.8-25.4-0.4c-15.8-6.1-31.5-12.4-47.3-18.6c-1.2-0.5-2.4-1.2-3.3-2.2
		c-8.1-8.3-17-15.5-22.9-26.1c-13-23.2-27.3-45.7-35.9-71.2c-1.4-4-3.8-7.8-6.3-11.3c-1.2-1.7-3.2-3.5-5.2-3.9
		c-12.9-2.8-23.6,6.6-22.6,19.8c0.2,2.3,0.4,4.7,0.9,6.9c2.7,12.1,1.8,19.4-15.2,18.8c-8-0.3-16.9-2-24.4,2.7
		c-8.6,5.4-18.2,5.6-27.7,6.9c-2.9,0.4-5.8,0.4-8.5,0.6c-0.7,2-1.2,3.2-1.5,4.5c-3.4,12-5.4,24.8-18.1,31.6
		c-0.8,0.4-1.1,1.6-1.8,2.3c-11.5,12.1-25.1,21.1-41.9,23.2c-6.7,0.8-11,4.1-15.1,8.4c-2.3,2.4-3.7,5.6-6,8
		c-6.3,6.4-12.5,13.5-23.1,8.1c-1.4-0.7-4-0.2-5.6,0.6c-10.8,5.1-21.7,10.1-32.2,15.8c-2.5,1.4-5.4,4.9-5.5,7.6
		c-0.9,15.1-8.2,29-6.5,44.8c1.8,17.7,0.5,35.3,5.1,53.2c5,19.5,17.2,35.9,20.7,55.7c0.1,0.6,0.7,1.1,1,1.7c2.7,5.3,6.2,10.2,5,16.8
		c-0.3,1.6,1.1,3.7,2.2,5.3c3.4,4.9,6.8,9.7,10.4,14.4c1.2,1.5,2.7,2.8,4.3,3.8c2.5,1.6,5.2,2.9,8.1,4.4c0,4.3,0.2,8.3,0,12.3
		c-0.8,15.3-1.6,30.5-2.7,45.8c-0.4,5.9,1.4,9.5,6.6,12.9c10.7,7.1,19.4,16.1,19.9,30.5c0.1,2.6,2.3,5.3,4,7.7
		c5.8,8.2,13.4,15.4,12.5,27c-0.2,2.9,2.1,6.2,3.6,9.1c3.6,6.7,8.9,13,10.7,20.1c1.6,6.4,3.8,11.7,7.7,16.7c3.8,4.9,4,10.9,0.7,15.9
		c-6.9,10.4-12.5,21.7-22.6,29.7c-3.9,3.1-7.2,8-9.1,12.7c-2.6,6.6-3.6,13.9-5.9,23.3c5.3-3.9,8.7-6.2,11.9-8.8
		c30.2-24.5,60.6-48.9,90.5-73.7c19.4-16.1,40-30.9,57.2-49.7c6-6.6,14.1-11.9,24-13.3c14.2-2,28.3-4,42.7-2.3
		c5.6,0.6,11.2,1.2,16.9,1.3c11.6,0.2,23.3-0.1,34.9,0.2c7.9,0.2,13.9-2.4,18.9-8.8c4.9-6.2,10.8-11.7,16.2-17.5
		c12.1-12.8,24.2-25.5,36.2-38.5c1.7-1.9,2.8-4.6,3.6-7.1c3.2-10.1,8.5-18.7,17.4-24.8c1.9-1.3,3.3-3.3,5-4.9
		c10.5-10.2,21-20.4,31.6-30.4c1.6-1.5,3.9-3.2,6-3.3c5.5-0.3,8-4.2,11-7.7c6.2-7.2,6.6-9.9,0.5-17.2c-4-4.8-9.5-8.5-13.3-13.5
		c-10.4-13.8-23.4-24.3-38.6-32.1c-6.2-3.2-9.5-8-9.3-15.9c3.7-0.7,7.5-1.4,11.4-2c10-1.4,18.5-4.5,22.8-15
		c3.1-7.6,9.5-12.5,16.9-16.3c3.4-1.8,7-4.3,8.9-7.4c5.4-9.1,14.2-13.7,22.7-18.7c9.2-5.3,18.6-10.2,27.8-15.3
		c6-3.4,11.9-6.9,17.3-10.1c19.2,10.8,25,17.2,29.7,33.6c-10.5,1.2-14.2,10.1-19.2,17.9c-5.2,8.1-12.2,14-22.3,15.1
		c-1.6,0.2-3.1,1-4.9,1.7c-0.6,9-4.3,16.6-9.3,23.9c-2.6,3.8-4.7,8.1-6.3,12.4c-0.7,1.8-0.5,5,0.7,6.3c6.1,6.9,12.6,13.5,17.7,18.8
		c8.6-3.8,15.8-6.9,22.8-10.3c5.3-2.6,10.6-5.4,15.7-8.5c6.2-3.8,12.1-8.1,18.1-12.2c4.9-3.4,11.1-5.8,14.5-10.4
		c5.5-7.3,12.4-11,21-11.5c10-0.6,14.9-6.7,17.2-15.1c1.2-4.3,0.8-9.1,0.3-13.6c-1.6-12.5,4.1-26.4,14-30.2
		c5.7-2.2,12.1-2.5,18.5-3.7c2,5.5,5,10.1,1.9,14.3c-9.5,13-9,28.4-10.3,43c-2.2,24.8,22.5,43.8,42.9,45.2
		c5.8,0.4,11.9-0.8,17.7-2.2c6.7-1.7,13-2,19.4,0.8c3,11.8-2.5,19.1-14.5,19.6c-3.6,0.2-7.3,1.1-10.9,1.6c1.6,2.1,3,3.1,4.6,3.3
		c15.1,2.2,30.2,4.4,45.4,6.2c6.6,0.8,13.3,0.2,19.9,0.9c11.8,1.1,16.5,9.7,11.7,20.5c-0.5,1.2-0.9,2.6-1.8,3.6
		c-5.4,6.3-4.9,12.8-2,20.3c2.1,5.3,4.5,8.9,10.3,8.9c6.1,0,8.9,3.9,11.3,8.4c1.5,2.9,2.5,6.1,3.8,9.2c2.6,6.1,4.1,12.5,9.3,17.3
		c3.6,3.2,5.1,7.7,2.7,12.7c-1.8,3.8-3.3,7.7-5.2,12.3c8.1,4.1,16,8.2,23.9,12.2c4-3.3,7.3-6.2,10.7-8.7c1.5-1.1,3.4-1.9,5.2-2.1
		C1892.4,928.8,1899.8,928,1907,927.1z"/>
	<path id="_x32_395" class="st0" d="M2614.3,1985.2c-6,13.9-17.9,16.7-28.3,19.1c-21.3,4.8-43.2,7.2-64.8,11.1
		c-12.7,2.3-25.3,5.6-37.9,8.3c-15.6,3.3-31.1,6.7-46.8,9.5c-10.1,1.8-20.4,2.9-30.6,4.1c-4.8,0.6-6.8,3.2-7.8,7.6
		c-2.4,10.4-3.6,20.6-0.5,31.3c3.5,12.1,5.5,24.5,3.1,37.4c-1,5-2.8,7.8-7.2,9.5c-9.6,3.6-18.2,9.2-28.8,10.9
		c-4.8,0.8-9.9,5.5-13.2,9.8c-4.2,5.4-8.7,7.5-15.3,7.1c-6-0.4-12,0.5-18,0.5c-4,0-5.8,2.1-7.4,5.4c-3.3,7.2-5.3,14.2-0.4,21.6
		c1.8,2.7,2.9,6,4.4,9c5,10.1,4.3,18.6-3.2,26.5c-6.1,6.4-10.2,13.7-12.9,22.1c-2.1,6.5-5,12.9-8.7,18.7c-1.9,2.9-6.1,5.2-9.6,6
		c-10.3,2.1-18.7,6.3-24.2,15.7c-5.6,9.6-15.7,12.3-25.2,14.2c-4.6,0.9-10.3-1.7-14.9-3.9c-5.1-2.4-9.6-3.1-15.2-1.8
		c-10.4,2.2-21,3.4-31.5,4.5c-4.9,0.5-9.9-0.7-14.8-0.8c-5.2,0-10.5-0.1-15.6,0.8c-4.7,0.8-6.2,4.7-3.7,9.2
		c3.4,6.1,7.1,12.1,11.3,17.6c1.8,2.4,5.2,3.7,8.1,5.1c5.5,2.6,10.6,5.5,12.1,12.5c-10.3,9.2-22.5,5.1-34.5,5.7
		c-0.7-1.4-1.6-2.8-2.1-4.2c-1.5-4.7-4.6-5.8-9.3-5.3c-11.5,1.4-23,2.6-34.6,3.5c-6.2,0.5-11.9,2.3-16.3,6.5
		c-10.1,9.6-21.9,17.5-29.1,29.9c-3.1,5.3-8.8,4.4-13.4,4.6c-4.3,0.2-4.7-4.7-5.8-8.1c-3.1-10.1-5.5-20.7-15.7-26.4
		c6.8-7.2,13.3-14.1,19.9-21c4.4-4.6,7.6-9.7,8.9-16.3c2-10,4.5-11.2,15.3-10.4c2.2,0.2,4.4-0.8,6.6-1c3.2-0.3,6.5-1.1,9.5-0.5
		c12.7,2.4,24.4-7,23.9-19.6c-0.1-1.9-0.3-4.7-1.6-5.5c-6.2-4.2-5.9-11.3-8.6-17.1c-4-8.2-7.7-17.4-19.6-17.3c-2,0-4.4-2.7-6.1-4.6
		c-5.8-6.1-12.1-8.1-20.5-5c-10.9,4-21.4,7.7-25.9,19.9c-0.4,1.2-2.4,1.8-4.8,3.4c-0.3-2.9-0.6-4.8-0.5-6.5c0.3-3.9-1.4-6.3-5-7.6
		c-5.4-2-10.2-4.5-13-10.2c-1.7-3.3-5-4.1-8.6-2.5c-2.1,1-4.4,1.6-7,2.5c-6.1-2.6-10.9-12.5-19.4-4.2c-2.9-2.4-5.8-4.3-8-6.7
		c-3.4-3.7-7.2-5.9-12.3-4.8c-4,0.9-6.2-1.1-8-4.2c-5-8.7-10.3-17-21.8-18.5c-2.6-0.3-5-3.2-7.3-5c-8.5-6.9-17.9-8.3-28.1-4.3
		c-1.8,0.7-3.7,1-5.9,1.6c-1.3-2.2-2.4-4.2-3.5-6.2c-3.7-6.7-7.9-8.1-14.8-5c-2.1,1-3.9,2.7-6,3.5c-4,1.6-8,3.5-12.1,4
		c-7,0.9-9.5-1.8-9.4-8.9c0.1-12.6-8.5-18.1-19.8-12.1c-7.3,3.9-14.1,8.8-23.4,14.6c-0.8-1.5-1.6-3.7-2.9-5.6
		c-7.4-10.7-16.7-12.3-27.1-5.1c-5.9,4.1-10.4,9.3-12.9,16.1c-1.2,3.1-2.2,6.3-3.7,9.3c-4.2,8.7-10.4,14.7-20.8,13.8
		c-4.7-0.4-7.6,1.3-9.7,5.3c-1.2,2.3-2.7,4.6-4,6.9c-3.7,6.9-6.2,14.1-14.5,18c-5.3,2.5-8.8,8.9-13.2,13.4c-4.1,4.1-8,5.2-14.1,2.3
		c-20.4-9.8-23.3-10-42.3-9.8c-5-7.8-8.4-17.2-17.9-21.5c-1.2-0.5-2.4-1.7-3.5-1.7c-11.2-0.3-22.2-5-33.5-1.6
		c-4.3,1.3-8.7,2.1-12.4-0.9c-5.4-4.3-11.5-4.7-17.9-4.5c-3.3,0.1-6.7-0.1-10,0c-5.9,0.3-10.2-2.3-13.6-6.9
		c-1.6-2.1-3.5-4.1-4.7-6.4c-5.8-11.5-18.4-14.6-27.6-21.9c-7.3-5.7-9.6-11.5-8-20.3c2.2-12.1,3.6-24.3,5.2-36.5
		c0.4-2.9,0.5-6,0.3-8.9c-1.1-16.3-3.1-18.8-18.9-23.3c-18.2-5.2-36.4-10.3-54.6-15.7c-7.3-2.2-14.5-4.6-21.6-7.3
		c-3.3-1.2-6.2-3.3-9.6-5.2c1-0.8,1.2-1.2,1.5-1.2c20-3.1,32.7-17.2,46.4-30.1c6.3-6,10.1-12.5,13.3-20.4
		c2.8-7.1,8.7-12.9,13.4-19.6c2.7,1.6,5.2,3.2,7.8,4.5c5.7,2.7,11.2,3.4,16.8-1c2.3-1.8,6-3,9-2.8c5.2,0.5,8.8-1.1,12.2-5
		c11.6-13.1,11.8-13.1-0.6-25.3c-9-8.9-18-17.7-27.4-26.1c-2.5-2.2-6.5-2.7-9.8-3.9c-4.6-1.6-10.1-2-13.8-4.9
		c-9.5-7.3-20.2-9.7-31.7-9.9c-1,0-2-0.3-3.3-0.5c-1.5-2.4-3.5-4.7-4.7-7.4c-5.4-11.4-15.2-19.2-23-28.6c-2.3-2.8-6.9-3.8-10.5-5.4
		c-3.5-1.6-7.2-2.9-11-4.4c4.9-3.7,9.6-6.9,13.8-10.6c5-4.3,6.3-10.9,3.2-17.2c-2.6-5.4-5.9-10.7-13.4-10c-1.7,0.2-3.3,0-5,0
		c-8.7-0.2-8.1-0.3-10.4-8.4c-1.8-6.2-4.8-12.3-8.4-17.8c-2.1-3.3-3.3-6.2-3.3-10c0.1-11.9-1.1-23.8,4.5-35.2
		c1.7-3.3,1.9-7.9,1.3-11.7c-1.1-7.8,1.6-14.6,4.7-21.1c1.9-3.9,5.4-7.7,9.2-9.9c9.4-5.5,15.3-12.9,18.6-23.4
		c3.8-12.1,2.6-23.6-2-34.9c-2.7-6.7-8.2-11.6-15.2-13.3c-6.7-1.6-13.8-1.9-20.7-2c-2.7,0-5.8,1.5-8.1,3.2
		c-6.7,4.9-13.2,10.1-19.6,15.5c-2.2,1.8-3.7,4.5-5.4,6.8c-0.6,0.8-0.9,2-1.6,2.3c-13.8,5.3-16.1,17.1-16.9,29.8
		c-0.2,2.6-0.6,5.2-0.9,7.9c-2.9,1-5.7,1.9-8.4,3c-11.3,4.6-14.3,10.3-12.6,22.6c2.8,20.2-3,38.3-13.7,55.4
		c-4.6,7.4-7.8,15.8-12,24.8c-4.8,0.5-11.1,1.6-17.3,1.4c-2.9-0.1-6.7-2-8.5-4.3c-7.6-9.8-19.2-13.6-28.9-20.1
		c-2.3-1.5-5.7-3.6-6-5.8c-1.5-9.3-8.5-12.7-15.8-14.6c-7.4-1.9-11.7-5.3-12.5-12.9c-0.2-1.9-0.7-4.3-1.9-5.6
		c-5.4-5.4-6.7-11.8-6.4-19.1c0.1-1.7-1.5-3.6-2.6-5.2c-1.1-1.6-3.7-2.9-3.8-4.5c-1.1-10.5-8.9-10.8-17.6-10.8
		c0.2-3.7,0.3-6.9,0.5-10c0.2-2,1.4-4.4,0.6-5.8c-3.6-6.2-1.8-12.1,0.2-18.1c1.5-4.6,1.1-9.1-1.8-13.3c-2.5-3.5-4.5-7.4-6.5-11.2
		c-1.4-2.6-3.6-5.4-3.5-8.1c0.1-10.2-5.3-18.1-9.9-26.3c-3.2-5.7-6.2-11.2-13.3-13.9c-3.6-1.4-6.7-6.2-8.3-10.1
		c-5-12.1-9.5-24.5-12.2-37.5c-0.4-1.9-2.6-3.7-4.4-4.9c-3.3-2.2-6.8-4.2-10.4-5.9c-4.4-2.1-7.3-5.2-9.1-9.8
		c-3.5-8.9-9.5-16-17.1-21.7c-6.3-4.7-10.8-10.1-12.7-18.2c-1.4-6-5-11.4-7.8-17.7c9.2-4.9,18.3-9.7,27.4-14.4
		c13.3-6.9,26.6-13.9,40-20.4c2.4-1.2,5.7-1.1,8.5-0.6c19.3,3.5,38.5,7.3,57.8,10.9c10.1,1.9,20.2,3.8,30.4,5.6
		c5.3,0.9,8.5,3.6,11.1,8.5c7.8,15,9.9,31.6,14,47.6c2.7,10.3,4.6,20.7,7.1,31.1c0.4,1.8,1.7,4,3.2,4.8c8.3,4,16.4,8.8,25.9,7.8
		c0.8-1,1.6-1.4,1.7-1.9c2-15.2,11.1-26.6,19.8-38.5c14.3-19.6,27.6-39.9,42.2-61c2.6-0.2,6.5-0.7,10.4-1c9.1-0.7,17.9-2.6,25.2-8.2
		c8.6-6.6,18.6-8.6,29-9c4.3-0.2,7.3-1.4,10.2-4.8c9.6-11.1,21.3-19.4,36-21.7c11.4-1.7,23.3-2.9,34.8-2.1
		c22.5,1.7,42.3-7.5,62.8-14c2.8-0.9,5.6-3.8,7-6.5c4.5-8.6,12-11.6,20.6-11c11.2,0.7,22.6,1.8,33.5,4.4c17.8,4.2,35.4,8.9,53.9,9.6
		c3.9,0.1,7.9,1.1,11.7,2.1c55.4,15.6,110.7,31.3,166,46.9c4.7,1.3,9.2,3.5,14.5,0.7c3.4-1.8,7-0.5,9.6,3c1.7,2.3,4.2,4.4,6.6,5.9
		c18.3,11.5,36.5,23.1,55.1,34.2c4.1,2.4,9.3,3,14.1,4c3.8,0.7,8-0.1,11.5,1.2c14.1,5.1,27.2,5,39.3-5.2c2.3-1.9,5.1-3.1,7.9-4.8
		c5.8,4.3,11.4,8.5,16.9,12.7c11.3,8.5,23.5,15.9,37.5,17.8c9.4,1.3,17.2,4.7,24.8,9.3c3.1,1.8,5.7,4.5,8.2,7.1
		c6.9,7,8.9,15.1,5.7,24.7c-3,8.9,0.9,15.7,7,22.2c7.6,8.2,17.8,9.4,27.5,11.5c3.2,0.7,7.1-1.2,10.4-2.5c4.7-1.8,8.6-1.8,13.1,1
		c7.1,4.4,15,6.1,23.8,5.9c9.5-0.2,19.1,1.9,28.6,3c4.2,0.5,7.7,2.4,9.3,6.6c2.8,7.4,9.2,9.3,15.9,9.6c9.7,0.4,17.7,2.7,24.1,11.2
		c5.2,6.8,12.4,12,19,17.6c3.8,3.2,7.7,6.2,13.4,5.5c4.6-0.6,6.1,3.5,7.7,6.7c2.3,4.8,6.1,6.9,11.1,7.1c11.2,0.3,17.8,7.7,24.5,15.3
		c3.9,4.4,8.3,8.4,12.5,12.6c3.1,3,6.5,5.7,9.4,8.9c6.5,7.3,13.8,12.1,24,12.1c3.8,0,7.8,1.5,11.3,3.3c8.3,4.1,17.2,7,24.3,13.4
		c4.3,3.9,9.9,5,15.8,3c6.9-2.3,14.4-3.4,20.9-6.5c5.1-2.4,8.6-1.5,12.9,1.1c4.8,3,10.1,5.2,14.8,8.2c7.6,4.9,15.9,3.9,24,2.9
		c3.7-0.5,7.3-3.1,10.4-5.4c8.6-6.3,16.9-12.9,25.4-19.4c0.8-0.6,1.7-1,3.7-2.1c10.3,10.8,21.5,21.1,31,32.9
		c11.1,13.9,24.2,24.6,40.8,30.5c7.3,2.6,12.3,5.6,15.1,13.7c2.2,6.2,8.1,11.2,12.5,16.6c5.9,7.2,12,14.3,17.8,21.6
		c1.9,2.4,3.1,5.4,5,8.9c-9.9,4-14.1,12.2-18.9,19.7c-12.5,19.7-30.5,31.3-52.9,35.7c-8.7,1.7-17.8,1.7-26.8,1.7
		c-16.3,0.1-32.6-0.5-49-0.4c-3.6,0-7.2,0.9-10.7,2c-19,6-38,12.2-56.9,18.4c-3.9,1.3-7.6,3.2-11.9,5c1.8,4,3,6.6,4.2,9.3
		c2,4.6,5.1,7,10.4,8c23.8,4.4,47.8,8.6,71.3,14.3c12.5,3,24.3,8.7,36.2,13.8c7.9,3.4,15.5,7.7,23.2,11.7c14.8,7.7,31,9.3,47.1,11.5
		c14.1,1.9,28.3,4,42.1,7.2C2602.6,1977.4,2608,1981.8,2614.3,1985.2z"/>
	<path id="_x32_390" class="st0" d="M2569.3,1671c-21.4,11.3-42.8,8.4-64.1,4.4c-8.2-1.5-16.2-3.9-24.2-6c-4.5-1.2-7.8-0.2-9.6,4.5
		c-0.4,0.9-1.1,1.7-1.3,2.7c-5.7,19.8-23.4,28.2-38.2,38.8c-5.6,4-14.5,4.9-21.9,1.7c-6.7-2.9-13.2-6.3-19.5-10
		c-5.5-3.2-10.3-5.4-16.5-1.2c-3.1,2.2-7.6,2.3-11.3,3.8c-10.1,4-18.1,2.2-27.7-4c-10-6.5-20.8-13.8-34.5-13.5
		c-6.7,0.1-12.9-4.4-17.9-9.9c-4.2-4.6-9.3-8.4-13.8-12.7c-2.6-2.5-5.4-5-7.4-7.9c-7.1-10.3-15.9-17.9-29-18.6
		c-4.5-0.2-6.4-3.2-8-6.5c-2.4-4.9-5.7-7.2-11.6-7.6c-4.1-0.3-8.7-3.2-12-6.1c-7.2-6.4-13.7-13.5-20.5-20.3c-5-5-11.4-6.8-18-7
		c-8.3-0.2-14.4-2.5-18.9-10.2c-4.4-7.4-12.9-7.4-20.5-7.9c-7.8-0.6-15.8,0.1-23.6-1.1c-6.1-0.9-12.4-3.1-17.7-6.1
		c-4.8-2.7-8.7-4.1-13.8-1.4c-5.5,2.8-11.4,4-17,0c-8.5,2.5-13.6-3.4-19.2-8c-5.9-4.8-8.3-11-6-18.6c3.7-12.1,0.5-22.1-8.9-30.4
		c-8.9-7.8-18.4-13.8-30.7-15c-15.4-1.5-27.9-10-40.1-18.8c-5.4-3.9-10.6-10.4-16.2-10.8c-5.5-0.4-11.7,5.2-17.2,8.8
		c-6.8,4.4-14,4-21.1,2.4c-8-1.7-15.7-4.8-24.3-4c-3.3,0.3-7.1-1.8-10.1-3.6c-15.6-9.5-31.1-19.3-46.5-29.2c-5.5-3.6-11-7.5-15.8-12
		c-3.3-3.1-7.2-3.2-10.1-1.9c-5,2.3-9.1,0.5-13.5-0.7c-43.9-12.2-87.8-24.5-131.6-36.8c-10.5-3-21-6.4-31.6-9.1
		c-7-1.8-14.3-2.5-21.5-3.8c-12.4-2.2-24.8-4.4-37.2-6.5c-15-2.5-30-5.7-45.1-7c-7.8-0.7-16,2.6-20.3,10.3c-3,5.5-7.2,8.2-12.9,9.8
		c-7,2-13.9,4.7-20.8,6.9c-8.9,2.8-17.9,4.7-27.4,4.6c-12.6-0.1-25.2,0.6-37.8,1.4c-16.1,1.1-29.2,8.9-39.9,20.4
		c-4.5,4.8-9,7.3-15.4,7.5c-8.8,0.3-17.1,2.3-24.3,7.7c-8.3,6.2-17.7,9.1-28,8.8c-7.7-0.2-12,3.1-16.3,10
		c-11.9,19.2-25.1,37.6-38.2,56.1c-7.3,10.3-15.9,19.7-17.2,33.1c-0.1,1.4-1.6,2.8-2.3,4c-21.6-6-21.8-6-26.8-26.4
		c-3.8-15.5-6.5-31.2-10.8-46.5c-2.3-8.2-6.8-15.8-10.9-23.4c-1-1.8-4.3-2.8-6.7-3.2c-30.6-6-61.3-11.9-92-17.8
		c-1.6-0.3-3.2-0.7-5.5-1.2c-4.6-13.3-9.3-26.8-13.7-40.3c-0.8-2.4-1.2-5.5-0.5-7.8c2.1-6.5,0.6-12.4-1.5-18.4
		c-3.9-11.2-7.5-22.6-11.5-33.8c-2.1-5.8-2.4-10.9,3-15.3c3.8-3.1,7.4-6.5,10.8-9.6c1.7,0.6,2.8,0.7,3.5,1.3
		c7,5.8,13.6,4.8,21.1,0.3c5.9-3.6,12.7-5.8,19.2-8.2c2-0.7,4.5,0.1,6.7,0.1c13.9,0.3,27.7,1,41.6-2.6c11.9-3.1,17.9-12,22.5-21
		c5.2-10,13-17.5,19.5-26.1c5.1-6.7,5.8-7.1,0.7-13.5c-4.6-5.7-9.6-10.8-16.4-14.2c-7.4-3.7-14.3-4.9-21.9-1.6
		c-2.7,1.2-5.7,1.6-9,2.5c-7.5-8.2-16.1-14.1-28.6-12.7c-3.7-17.3-17.7-25.7-30.3-35.3c-9.2-7-11-13.1-2.2-23.3
		c4.1-4.8,7.3-9.5,6.9-15.9c-0.3-4.3,2.3-6.6,5.2-9c28.2-22.8,56.3-45.6,84.5-68.5c18.1-14.7,36.2-29.3,54.2-44
		c2.8-2.3,4.9-5.4,7.7-7.8c7.5-6.5,14.3-14.4,23-18.8c7.6-3.9,17.2-4.4,26.1-5.4c13.5-1.5,27-0.1,40.5,1.5c6.2,0.7,12.6,0.3,19,0.3
		c6.2,0,12.5,0.3,18.7-0.1c7-0.5,13.3-2.5,18.5-8.3c7.7-8.6,16.3-16.5,24.4-24.8c5-5.3,9.7-10.9,14.5-16.4c2-2.2,3.6-4.9,5.8-6.8
		c8.1-6.9,13.4-15.4,16.8-25.5c1.1-3.3,3.3-6.6,5.8-9c14.3-13.9,28.7-27.6,43.2-41.3c1.4-1.3,3.2-3.2,4.8-3.3
		c8.7-0.4,11.8-7.9,16.7-12.9c4.1-4.2,3.8-8.8,0.2-13.6c-2.7-3.7-6-7.1-9.2-10.5c-1.3-1.5-3.3-2.4-4.5-4
		c-12.1-15.7-26.7-28.4-44.4-37.7c-2.4-1.3-3.7-4.8-6-8c6.7-1.4,11.8-2.4,16.9-3.6c7.5-1.7,13-5.6,16.4-13.1
		c3.3-7.3,8.6-13.2,16.5-16.6c3.5-1.5,7-4.2,9-7.4c6.2-9.8,15.6-14.9,25.4-19.9c9.7-4.9,19.1-10.7,28.3-16.7
		c12.1-7.9,12.8-8,24.3,0.6c6.7,5,10.9,11.4,14,20.2c-9.6,2.4-12.9,10.3-17.6,17.5c-6.3,9.8-15.3,16.6-28.8,13.5
		c-0.2,2.9-0.1,5.6-0.7,8c-1.3,5.1-2.8,10.1-4.6,15c-0.8,2.1-2.5,3.9-3.7,5.9c-10.2,16.6-10.1,16.5,3.2,30.1
		c4.2,4.2,8.1,8.7,11.9,12.7c1.4,0,2.2,0.3,2.6,0c7.6-6.1,15.8-11,25.5-12.9c0.6-0.1,1.3-0.5,1.8-0.8c14.3-9.6,29.2-18.5,42.8-29.2
		c6.9-5.5,13.2-10.4,22.2-12c12.6-2.2,18.8-10.5,19.1-23.5c0.1-3.3-0.4-6.7-0.3-10c0.3-17.6,6.4-29.3,26.8-26.9
		c2.6,3.8,1,7-0.7,10.9c-8.2,18.4-10.6,37.5-6.1,57.2c1.9,8.5,7.3,14.9,14,20c4.2,3.2,9.2,5.4,13.5,8.5c8.3,6,17.2,6.1,26.7,4
		c7.7-1.7,15.4-4.4,23.4-2c0.4,9.3-3,13.5-12.2,14.4c-5.3,0.5-10.6,0.6-16.1,1c-0.7,6.1,2.8,8.4,7.2,9.3c7.1,1.5,14.3,3,21.6,3.8
		c14.8,1.6,29.7,2.9,44.6,4c11.9,0.9,15.9,7.7,10.2,18c-0.2,0.3-0.3,0.6-0.6,0.8c-9.1,9.8-4.3,19.8,0,29.4c0.9,2.1,4.5,3.9,7,4.2
		c8.1,0.9,12.2,5.4,14.7,12.7c2.9,8.5,5.7,16.9,12.3,23.7c4.1,4.2,0.5,8.9-1,13.1c-0.9,2.7-3.3,4.8-5.3,7.5
		c8.9,8,19.7,11.4,30.2,16.7c7.3-5.8,12.8-15.9,24.6-11.3c0.5,0.4,1.3,0.7,1.5,1.2c3.6,10.1,11.5,16.9,18.3,24.4
		c3.5,3.8,5.9,7.9,6.6,13.1c1.4,10.4,2.9,20.9,4.4,32c-11.6,1.8-22.4,3.6-33.3,5.3c-0.2,0.8-0.3,1.6-0.5,2.4
		c6.2,3.5,12.2,7.3,18.5,10.5c8.2,4.3,16.8,8,19.9,18c0.2,0.8,1.4,1.3,2.4,2c5.5-0.7,10.6-1.1,14.6-6.5c3.2-4.2,8.8-3.6,13.1,0.1
		c4.8,4.1,9.2,8.6,13.9,12.8c4.4,3.9,5.7,8,4.3,14.1c-3.5,14.9-6.5,29.9-4.3,45.4c3.2,21.7,11,41.7,21.4,60.8
		c3,5.5,4.8,10.7,4.6,16.9c-1,35.9-1.8,71.8-2.7,107.8c-0.1,2.3,0.1,4.7-0.1,7c-0.7,9.1-0.3,17.7,7.2,24.4c5.8,5.2,2.5,12.7,4,19
		c0.9,3.7,1.3,7.6,1.9,11.4c0.2,1,1,2.1,0.7,2.9c-3.9,11.8,5.1,20.7,6.7,32.6c9.7,0.5,19.5,0.8,29.2,1.7c3.9,0.4,7.6,2.1,10.8,3
		c5.6-0.8,11-1,15.9-2.6c4.9-1.6,9.6-4.2,14-6.9c6.6-4.2,8-4.5,13.9,0.6c2.5,2.1,5.1,4.4,7.1,7c9.2,12.1,21.7,17.2,36.4,16.8
		c14-0.4,26.2,4.8,37.6,11.6c6.4,3.8,11.7,9.7,17.2,14.9c6.8,6.4,13.2,13.1,19.9,19.5c0.6,0.6,1.7,0.8,4.2,1.8
		c-4.3-11.6-12.3-20.9-11.2-34c5,4.1,9.5,7.7,13.9,11.5c7.6,6.5,15.4,12.7,22.4,19.8c4.1,4.2,7.5,9.4,9.9,14.8
		c3.9,8.8,9.9,15,18.5,18.7c9.7,4.2,19.7,7.9,29.8,11.2c5.9,2,12.1,3.1,18.6,1.3c3.3-0.9,7.2,0.2,10.8,0.6c7.9,1,15.9,1.5,23.7,3.2
		c6.7,1.5,13.8,3.2,19.6,6.7c9.9,5.8,19.1,6.8,29,0.4c7.6-4.9,15.3-9.4,22.8-14.3c5.9-3.8,8.7-9.3,9.6-16.5c1-8.1,3.6-16.1,5.6-24.1
		c1.1-4.1,3.5-8.2,3.6-12.3c0.5-18.2,8.8-32.9,19.5-46.7c6-7.8,9.2-16.9,11.1-26.5c0.6-2.9,1.2-5.7,2.2-10.2
		c3.6,2.1,6.5,3.4,8.8,5.4c10,8.7,20.1,17.4,29.7,26.5c8.9,8.4,17.4,17.3,25.7,26.3c9.3,10,18.1,20.4,27,30.7
		c2.1,2.5,4.3,5.2,5.4,8.2c8.2,20.9,24.1,33.7,44.2,41.7c8.6,3.5,17.6,6.2,26.5,8.8c9.5,2.7,19.3,4.8,28.9,7.2
		c3.1,0.8,6.1,1.9,11.3,3.6c-11.4,9.6-20,20-31.5,26.2c-28.3,15.4-57,30.2-85.7,44.9c-5.3,2.7-8.1,5.9-8.9,12
		c-0.8,6.2-2.5,12-1.8,18.6c0.8,7,3,12.9,7.8,17.8c4.6,4.5,5.5,9.2,2.8,15.3C2571.9,1660.4,2570.7,1666.3,2569.3,1671z"/>
	<path id="_x32_393" class="st0" d="M2480,1359c-0.3,18-8.3,32.8-18.6,47.2c-7.4,10.4-13.6,22-13.2,35.7c0.1,2.9-0.7,6-1.7,8.8
		c-4.3,11.2-8,22.4-9.1,34.5c-0.3,3.6-3.9,7.8-7.1,10.1c-9,6.2-18.5,11.8-28.1,17.2c-5.8,3.3-11.8,1.2-17-1.8
		c-8.2-4.7-16.7-7.5-26.2-8.6c-13.5-1.6-26.9-3.5-40.6-3.6c-13.7-0.1-26.3-6.4-38.7-12.2c-7.8-3.7-13.5-9.1-17-17.2
		c-3.6-8.3-9-15.1-16.4-20.9c-11.4-8.9-21.8-19.2-33.1-29.4c-7.6,7.4-0.9,15.6-0.9,25.2c-5.4-5.1-9.6-8.7-13.4-12.7
		c-14.5-15.8-32.8-24.4-53.9-24.2c-16.2,0.1-26.8-7.8-36.7-18.5c-1.8-1.9-3.5-4-5.6-5.6c-6.7-4.9-9-5.2-15.6,0.4
		c-8.5,7.1-19.1,6-28.7,8.8c-1.3,0.4-3-1.1-4.6-1.6c-2.2-0.7-4.4-1.7-6.6-1.7c-4.5-0.1-9.1,0.9-13.6,0.5c-4.2-0.4-8.3-2-12.3-3
		c-7.9-15.3-8.4-31.9-9.1-48.3c-0.2-6-1-11.4-5.1-15.5c-8.5-8.4-7.1-18.7-6.5-28.9c0.2-3,0.9-5.9,0.9-8.9c0.3-25,0.4-50,0.8-74.9
		c0.1-9.3,1.2-18.6,1.1-27.9c-0.1-4.1-1.4-8.5-3.4-12.1c-11.3-20.2-19.5-41.3-22.4-64.5c-1.3-10.4-0.5-20.4,2-30.5
		c1.2-4.8,1.6-9.8,2.7-14.7c1.3-5.6-0.7-9.6-4.7-13.3c-4.7-4.2-9.3-8.6-13.9-12.9c-6.5-6.2-13.4-6.3-19.9-0.1c-1,0.9-1.6,2.2-2.6,3
		c-4.1,3.1-9,2.2-10.3-2.8c-1.4-5.4-5-7.4-9.1-9.7c-6.4-3.5-12.8-7-19.2-10.6c-0.5-0.3-0.6-1.1-1.4-2.6c9.2-1.4,18.1-2.7,28.3-4.3
		c-2.1-14.1-3-27.7-6.4-40.7c-1.6-6.2-7.4-11.8-12.4-16.4c-5.5-5-8-11.1-10.7-17.9c2.6-1,4.6-2,6.8-2.5c3.6-0.8,4.4-3.2,5.3-6.3
		c2.4-8.6,5.4-17,8.2-25.8c10.5,0.7,20.1,1.1,29.6,2c20.8,1.8,41.6,3.9,62.4,5.8c34.4,3.1,68.7,6.3,103.1,9.3
		c19.8,1.7,39.7,3.1,59.6,4.8c34.4,3,68.7,6.2,103.1,9.2c18.9,1.7,37.7,3.1,56.6,4.6c30.1,2.5,60.2,5.1,90.3,7.6
		c34.4,2.9,68.8,5.7,103.2,8.6c30.4,2.6,60.8,5.3,91.3,8c22.5,2,44.9,4.2,67.4,5.9c8.9,0.7,15.7,6,22.2,10.6
		c7.9,5.5,15,5.9,23.3,2.9c2.8-1,5.7-1.6,9-2.4c1.1-2.2,2.4-4.6,3.3-7c2.2-5.7,6-8.7,11.9-10.9c5.4-2,10.6-5.7,14.7-9.9
		c2.2-2.3,2-7,3.2-11.7c8.6-4.3,20.9-3.3,29-13.9c2.7,3,5,5.7,7.4,8.2c11.5,12,23,23.9,34.4,36c4.1,4.3,8.6,5.2,14.3,3.1
		c3.2-1.2,7.2-1.5,10.6-0.8c15.7,3,31.3,6.2,46.8,9.8c11,2.5,18.2,10.2,20.8,20.7c2.2,9,6.8,15.8,13.5,21.4
		c5.1,4.3,10.6,8,15.7,12.2c5.2,4.3,10.2,4.8,16.5,1.6c7-3.6,14.6-6,22-8.9c6.5,9.3,12.9,17.8,18.4,26.8
		c7.5,12.2,19.2,18.2,31.9,22.5c8,2.7,13.7,7,18.7,13.7c9.2,12.3,22.8,18.8,37.2,21.4c13,2.4,24.8,7,35.5,11.6
		c4.8,10.3,8.6,19.8,13.5,28.7c5.5,10.2,6.6,21.5,9.6,32.4c3,11.2,5.4,22.7,8.8,33.8c1.7,5.6,4.9,10.9,7.7,16.2
		c7.1,13.6,13.3,27.4,13.5,43.3c0.1,7.7,2.6,14.7,7.8,21c6.3,7.6,11.6,16,17.6,24.5c-9.1,9.4-16,19.5-27.6,25
		c-13.8,6.5-26.2,15.9-41.8,18.3c-2.4,0.4-4.7,2.3-6.8,3.9c-9.8,7.9-19.3,16.1-29.4,23.7c-2.2,1.7-6.2,1.4-9.4,1.3
		c-4.6-0.1-8,1-11,5.1c-4.5,6.3-11.1,7.1-18.3,3.6c-0.6-0.3-1.3-0.4-1.8-0.8c-13.6-11.4-25.6-5.6-37.2,3.6
		c-5.2,4.1-10.2,8.5-15.4,12.7c-6.7,5.5-9.3,4.9-13.6-3c-1.1-2.1-1.8-4.4-3.3-6.1c-1.6-1.8-3.8-3.9-5.9-4.2
		c-1.2-0.2-3.8,2.7-4.2,4.6c-0.9,4.1-2.1,8.8-0.9,12.4c6.3,18.5,4.6,37.5,4.6,56.4c0,1.7-1.2,3.5-2.2,6.5
		c-15.2-9.8-29.6-19.1-43.5-28.2c-1.4,0.3-2.3,0.3-2.6,0.7c-5.7,8.6-14.5,10.4-24,11.6c-13.3,1.7-26.3,2.5-39-3.6
		c-7.2-3.5-14.7-6.2-22.2-9c-6.6-2.5-12.5-5.7-17.7-10.8c-5.6-5.5-13.4-7.5-21.2-7.4c-24.6,0.3-49.2,1.2-73.8,1.6
		c-4.2,0.1-8.5-0.9-12.7-2c-21.6-5.4-43.1-11.1-64.7-16.5c-3.1-0.8-6.7-1.1-9.8-0.3c-17.1,4.3-34,9.1-51.1,13.4
		c-5.4,1.4-9.5,3.8-13.2,8.1c-3.9,4.7-8.9,8.8-14,12.2c-4.6,3-9.1,1.9-13-2.8c-12.8-15.3-25.9-30.3-39.3-45.2
		c-5.1-5.6-11-10.5-16.7-15.6c-9.4-8.5-18.8-16.8-28.1-25.3C2491.1,1361.1,2488.7,1359.9,2480,1359z"/>
	<path id="_x32_391" class="st0" d="M2726.6,642.4c-5.1,2.3-9.6,5.3-14.5,6.3c-14.9,3-30,6.2-45.1,7.4c-15.6,1.3-24.6,9.9-31.6,22.5
		c-6.2,11.1-7.6,23.3-8.8,35.5c-0.3,2.7,0.9,6.3,2.7,8.2c5.4,5.7,10.9,11.8,17.5,16c9.1,5.7,18.3,10.8,24.3,20.1
		c1.2,1.9,3,3.8,4.9,5c8.6,5.2,8.9,12.9,7.8,21.7c-0.9,7.8-0.9,15.7-0.7,23.6c0,1.7,2.3,4.5,3.9,4.7c3.8,0.6,7.9,0.8,10.7-3.1
		c3.1-4.3,6.4-8.4,9.8-12.5c3.4-4.1,6.9-8.1,10.6-11.9c3.6-3.8,7.7-5,12.4-1.8c4,2.7,10.4,3.5,10.8,9.3c0.6,7.3,3.3,14.7-1.5,22.2
		c-10.1,16-9.8,16.5-28.1,19c-8.2,1.1-16.6,0.4-24.9,0.6c-2,0-4.1-0.4-5.9,0.1c-3.7,1-5.2,5.9-2,7.6c6.1,3.4,9.5,8.5,13.2,14.1
		c1.7,2.5,6.3,3.4,9.8,4.2c4.2,0.9,5.4-2.3,6.8-5.7c0.7-1.7,3.1-3.5,4.9-3.8c8.2-1.7,16-0.7,22.1,5.7c10.4,11.1,22.5,19.6,36.8,24.9
		c4.9,1.8,6.3,7.3,4,13.4c-3.4,8.9-1.8,11.7,7.6,13.6c6.2,1.2,12.7,1.7,16.2,8.7c-1.9,4.8-5.9,7.4-10.8,8.9c-4.8,1.4-9.6,2.7-14.4,4
		c-3.2,0.8-5.8,2.5-5.3,6.1c1.4,9.6-5.8,13.5-12.2,15.7c-8.6,3-14.5,7.2-17.4,16c-0.6,1.9-3.7,3.1-5.9,4.2c-1.8,0.8-4,0.6-5.8,1.4
		c-5.7,2.6-10.1,1.6-15.5-2.1c-11.8-8.2-24.8-12.7-39.8-13.6c-34.8-2.1-69.4-5.9-104.1-8.9c-19.9-1.7-39.7-3.1-59.6-4.8
		c-26.8-2.3-53.5-4.8-80.3-7.2c-18.5-1.6-37.1-3-55.6-4.5c-31.1-2.6-62.2-5.4-93.3-8c-34.1-2.9-68.2-5.5-102.2-8.4
		c-30.1-2.5-60.2-5.3-90.3-7.9c-38.4-3.4-76.7-6.6-115.1-10c-16.2-1.4-32.4-3-49.5-4.7c1-2.6,1.7-5,2.9-7.2
		c1.9-3.5,4.2-6.8,6.2-10.2c4.5-7.8,6.3-15.6,2.6-24.6c-3.3-8-6.3-15.9-11.9-22.8c-10-12.1-8.2-26-1.7-38.4
		c8.9-17,18.6-33.6,32-47.9c9.7-10.4,17.6-22.5,26.6-33.6c3.7-4.6,8.1-8.7,11.9-13.3c2.7-3.3,5.4-6.7,7.2-10.5
		c6.8-14,19.7-15.3,31.1-10.5c17.4,7.3,34.7,14.9,52.7,22.7c3.7-3.6,6.9-6.9,10.2-10c3.4-3.1,6.7-6.4,10.4-9
		c5.5-3.8,6.8-9.8,1.7-13.8c-13.9-11.3-27.7-22.7-42.2-33.2c-8.8-6.4-19.1-10.9-28.2-16.9c-5.8-3.8-11-3.8-16.7-0.4
		c-1.7,1-3.4,2-5.1,3c-15.5-6.5-31.6-11.4-44.5-22.6c-11.6-10.1-20.9-22.2-28.4-35.6c-2.9-5.2-4.7-11.1-8-16.1
		c-5.5-8.4-6-18.2-8.8-27.4c-0.6-2,0.5-4.5,0.8-6.7c0.5-3.3,1.8-6.6,1.4-9.8c-0.9-8.9,2.6-15.9,7.5-23c8.4-12.2,18.3-22.6,30.5-31.1
		c8.6-6,16.3-13.3,25.9-21.3c9.7,5.3,22.7,5.6,35.2,8.4c8.4,1.9,16.6,7,23.7,12.2c9.9,7.1,19.8,10.4,31.9,5.5
		c12.8,11.4,23.4,24.5,30.7,40c2.3,5,2.1,11.1,3.6,16.5c2.1,7.5,5.5,9.3,11.4,4.4c11.5-9.5,23.9-13.8,38.7-10.1c0.9,0.2,2-0.1,3,0.1
		c13.3,2.4,26.3,1.4,39.2-2.9c2.4-0.8,5.4-0.7,7.9,0c7,2,13.1-1.2,19.3-3.2c1.8-0.6,3.8-2.9,4.3-4.8c5.1-18.2,10.2-36.4,14.5-54.8
		c1.2-4.9,0.8-10.7-0.4-15.6c-1.2-4.8-1.1-9.1,0.6-13.5c3.5-9,4.6-17.8,0.5-27.1c-1.1-2.4-0.4-5.8,0.3-8.6
		c3.3-12.6,5.7-25.3,2.8-38.4c-2.3-10.2,1.7-17.9,9.7-24.3c14.7-12,28.8-24.6,40.2-40c1.8-2.4,4-4.5,6.4-6.3c1.5-1.1,4-2.1,5.4-1.5
		c7.1,2.6,14.8,4.5,17.9,12.8c1.9,5.2,5.4,9,10.2,11.9c10,6,19.9,12,29.6,18.4c3.8,2.5,7.4,5.7,10.2,9.2c4.3,5.4,9.4,6.3,15.8,5.2
		c12-2,21.2-9.3,30.8-15.7c7.2-4.8,13.9-10.4,21.3-14.9c4.4-2.7,9.7-5.1,14.7-5.3c11.2-0.3,22.6,0.1,32.9,6c2,1.2,4.1,2.2,6.3,3
		c6.5,2.5,12.9,3.2,18.6-2.2c1.2-1.1,2.8-1.7,4.8-2.9c7,3.2,14.3,6.4,21.5,9.8c8.5,3.9,12.6,1.5,17.4-6.5
		c7.1-11.8,11.4-23.7,8.3-37.6c-0.3-1.5,0.2-3.2,0.3-5.6c6.4-1.1,12.4-1.3,18.6,0.8c9.1,3.1,18.4,5.6,27.7,8.4
		c9.1,2.7,16.9,7.9,23.5,14.5c6,5.9,13.1,8.4,21,10.2c12.3,2.8,24.2,6.8,36.3,10.3c8,2.3,15.8,5.3,24,6.5c6.9,1,12.8,3.3,18.2,7.4
		c6.8,5.2,13.4,10.7,22.1,17.7c-4.8,0.4-7.6,1.1-10.1,0.7c-19.1-3.2-36.9-0.2-53.6,10c-17.9,10.9-37.6,12-57.9,10
		c-2.3-0.2-4.6-0.4-6.9-0.9c-5-1-7.5,1.6-8.8,5.9c-4.3,15-9.4,29.9-12.4,45.2c-2.7,13.8,0.7,24.7,15.9,30.3c6.9,2.5,13.6,4.3,21,5.1
		c14.4,1.5,28.8,4.3,42.6,10.9c0.6,10.8,1.1,21.4,1.8,31.9c0.2,3.7-1.1,6.2-4,8.5c-3.1,2.5-5.8,5.5-8.6,8.4
		c-1.2,1.2-2.8,2.4-3.1,3.8c-3.4,14.7-10.3,28.9-6,44.5c0.8,2.8,3.6,5.6,6.2,7.3c5.6,3.5,8.4,8.2,9,14.6c2.5,27.2,14.2,51,26.5,74.7
		C2723.3,635.1,2724.6,638.1,2726.6,642.4z"/>
	<path id="_x32_392" class="st0" d="M1907,927.1c-7.2,0.9-14.7,1.7-22.1,2.7c-1.8,0.3-3.8,1-5.2,2.1c-3.5,2.5-6.7,5.4-10.7,8.7
		c-7.8-4-15.8-8-23.9-12.2c1.9-4.6,3.4-8.5,5.2-12.3c2.3-5,0.9-9.4-2.7-12.7c-5.3-4.8-6.8-11.3-9.3-17.3c-1.3-3.1-2.2-6.3-3.8-9.2
		c-2.4-4.5-5.2-8.4-11.3-8.4c-5.7,0-8.2-3.5-10.3-8.9c-2.9-7.5-3.4-14,2-20.3c0.8-1,1.2-2.3,1.8-3.6c4.8-10.8,0.1-19.3-11.7-20.5
		c-6.6-0.6-13.4-0.1-19.9-0.9c-15.2-1.8-30.3-4-45.4-6.2c-1.6-0.2-3-1.2-4.6-3.3c3.6-0.6,7.2-1.5,10.9-1.6
		c12-0.5,17.5-7.8,14.5-19.6c-6.3-2.9-12.7-2.5-19.4-0.8c-5.7,1.5-11.8,2.6-17.7,2.2c-20.3-1.4-45-20.4-42.9-45.2
		c1.3-14.6,0.8-30,10.3-43c3.1-4.3,0.1-8.8-1.9-14.3c-6.4,1.2-12.8,1.5-18.5,3.7c-9.8,3.9-15.5,17.7-14,30.2
		c0.6,4.5,0.9,9.4-0.3,13.6c-2.3,8.4-7.2,14.5-17.2,15.1c-8.6,0.5-15.4,4.2-21,11.5c-3.4,4.5-9.6,7-14.5,10.4
		c-6,4.1-12,8.4-18.1,12.2c-5,3.1-10.3,5.9-15.7,8.5c-7.1,3.4-14.3,6.5-22.8,10.3c-5.1-5.3-11.6-11.9-17.7-18.8
		c-1.2-1.3-1.4-4.5-0.7-6.3c1.7-4.3,3.7-8.6,6.3-12.4c5-7.2,8.8-14.8,9.3-23.9c1.8-0.6,3.4-1.5,4.9-1.7c10.1-1.1,17.1-7.1,22.3-15.1
		c5-7.8,8.6-16.7,19.2-17.9c-4.6-16.4-10.4-22.8-29.7-33.6c-5.3,3.1-11.2,6.7-17.3,10.1c-9.2,5.2-18.6,10.1-27.8,15.3
		c-8.6,4.9-17.3,9.6-22.7,18.7c-1.9,3.2-5.5,5.7-8.9,7.4c-7.3,3.8-13.7,8.7-16.9,16.3c-4.3,10.5-12.8,13.6-22.8,15
		c-3.9,0.6-7.7,1.3-11.4,2c-0.2,7.8,3.1,12.7,9.3,15.9c15.2,7.9,28.2,18.3,38.6,32.1c3.8,5,9.2,8.6,13.3,13.5
		c6.1,7.3,5.6,10-0.5,17.2c-3,3.5-5.5,7.4-11,7.7c-2.1,0.1-4.3,1.8-6,3.3c-10.6,10-21.1,20.2-31.6,30.4c-1.7,1.6-3.1,3.6-5,4.9
		c-8.9,6.1-14.2,14.7-17.4,24.8c-0.8,2.5-1.9,5.2-3.6,7.1c-11.9,12.9-24.1,25.7-36.2,38.5c-5.5,5.8-11.3,11.3-16.2,17.5
		c-5,6.3-11,9-18.9,8.8c-11.6-0.3-23.3,0.1-34.9-0.2c-5.6-0.1-11.3-0.7-16.9-1.3c-14.4-1.7-28.5,0.4-42.7,2.3
		c-9.8,1.4-17.9,6.7-24,13.3c-17.2,18.9-37.8,33.6-57.2,49.7c-29.9,24.9-60.3,49.2-90.5,73.7c-3.2,2.6-6.6,4.9-11.9,8.8
		c2.3-9.4,3.3-16.7,5.9-23.3c1.9-4.7,5.1-9.5,9.1-12.7c10.1-8.1,15.7-19.4,22.6-29.7c3.3-5,3.1-11-0.7-15.9
		c-4-5.1-6.1-10.4-7.7-16.7c-1.8-7.2-7.1-13.4-10.7-20.1c-1.5-2.9-3.8-6.2-3.6-9.1c1-11.6-6.7-18.8-12.5-27c-1.7-2.4-3.9-5.1-4-7.7
		c-0.5-14.3-9.1-23.3-19.9-30.5c-5.2-3.5-7.1-7-6.6-12.9c1.1-15.2,1.9-30.5,2.7-45.8c0.2-4,0-8,0-12.3c-2.9-1.6-5.6-2.9-8.1-4.4
		c-1.6-1-3.2-2.3-4.3-3.8c-3.6-4.7-7.1-9.5-10.4-14.4c-1.1-1.6-2.5-3.7-2.2-5.3c1.3-6.6-2.2-11.5-5-16.8c-0.3-0.6-0.9-1.1-1-1.7
		c-3.5-19.8-15.7-36.2-20.7-55.7c-4.6-17.9-3.3-35.5-5.1-53.2c-1.7-15.8,5.7-29.7,6.5-44.8c0.2-2.7,3-6.2,5.5-7.6
		c10.5-5.7,21.4-10.7,32.2-15.8c1.6-0.8,4.2-1.3,5.6-0.6c10.6,5.4,16.8-1.7,23.1-8.1c2.3-2.3,3.7-5.6,6-8c4.1-4.4,8.4-7.6,15.1-8.4
		c16.8-2.1,30.4-11.1,41.9-23.2c0.7-0.7,1-1.9,1.8-2.3c12.7-6.8,14.7-19.6,18.1-31.6c0.4-1.3,0.9-2.5,1.5-4.5
		c2.7-0.2,5.6-0.2,8.5-0.6c9.5-1.2,19.2-1.4,27.7-6.9c7.5-4.8,16.4-3,24.4-2.7c17,0.6,17.8-6.7,15.2-18.8c-0.5-2.3-0.7-4.6-0.9-6.9
		c-1-13.2,9.7-22.6,22.6-19.8c2,0.4,4,2.2,5.2,3.9c2.4,3.6,4.9,7.3,6.3,11.3c8.6,25.4,22.9,47.9,35.9,71.2
		c5.9,10.6,14.8,17.8,22.9,26.1c0.9,0.9,2.1,1.7,3.3,2.2c15.7,6.3,31.4,12.6,47.3,18.6c8.3,3.2,16.9,3.3,25.4,0.4
		c3.7-1.2,7.7-1.8,12-2.7c1.2,2.3,2.8,4.2,3.2,6.3c1.2,6.3,4.7,9.7,10.9,11.4c10.6,3,21.2,5,32.3,3.2c1-0.2,2-0.1,3-0.1
		c16,0.5,14.4-0.2,17.4-15.2c1.9-9.4,2.2-19.1,2.7-28.7c0.4-7.5,1.5-14,8.9-18.5c8.2-5,11-12.4,7.8-22.3c-2.5-7.8-2.7-16.5-5.3-24.3
		c-8.4-25.1-23.9-44.9-45.7-59.9c-7.4-5.1-14.8-10.1-20-19.4c2.8,0.5,4.9,0.6,6.8,1.1c9.9,2.7,19.9,5.3,29.7,8.2
		c21.4,6.3,39.7,18.2,56.8,32.2c11.8,9.7,20.7,21.6,29.3,33.8c7.9,11.4,18.6,19.1,31.2,23.9c9.9,3.8,18.1,9.3,24.3,18
		c8.8,12.4,21.3,19.7,35.4,24.7c6.2,2.2,12,5.6,18.1,8.1c5.8,2.3,11.8,4.4,17.9,6c4.3,1.1,8.2-0.4,9-5.4c0.8-4.8,1.9-10,0.9-14.6
		c-1.8-8.6-1-16.4,3.1-24.1c3.7-6.9,2.5-14.5,0.8-21.5c-2.9-12.1-1.6-23.7,0.8-35.5c0.8-4.1,2.5-6.8,6.9-7.3c0.3,0,0.7-0.1,1-0.2
		c23.7-7.7,23-10.4,23.9-35.9c0.6-15.9-0.7-31.9,2.5-47.7c1.2-6.2,3.2-11.6,10.7-12.5c0.9-0.1,1.8-0.8,2.7-1.3
		c13.6-7.2,15.8-14.3,8.8-28.2c-0.1-0.3-0.3-0.6-0.6-0.8c-9.9-11.8-9.8-25.5-7.7-39.6c1-6.6,1.7-13.2,3.2-19.6
		c2.9-12.4,2.6-24.3-3.5-35.7c-0.4-0.8-0.2-1.9-0.4-3.4c21.9-2,43.7-4.4,64.9,2.8c7.5,2.5,14.4,6.7,21.7,9.9
		c11.6,5,23.4,9.6,34.8,14.8c5.1,2.3,9.7,5.8,14.7,8.8c-0.3,2.9,0.2,5.9-1,8c-3.4,6.2-1.7,10.7,3.5,14.6
		c15.2,11.3,24.4,27.9,37,41.6c14.5,15.8,30.5,28.3,52.1,33.1c9.3,2.1,18.2,6.2,27.7,9.6c-3.1,7-7.3,11.6-13.1,15.2
		c-18.3,11.5-33.8,25.9-44.4,44.9c-1.6,2.8-2.8,6-3.3,9.1c-1.1,6.8-3,13.9-2.2,20.6c1.2,10,4.1,19.9,7.1,29.7c1.5,5,4.5,9.6,7,14.3
		c13.5,26.1,31.3,47.7,60,58.1c2.5,0.9,4.8,2.2,7.3,3.2c6.7,2.7,13.3,6.2,20.2-0.1c3.1-2.8,6.7-1,10.2,0.8
		c18.5,9.3,35.7,20.6,50.7,35c5,4.8,10.9,8.7,16.5,12.8c7,5.1,6.7,6.7-0.3,12.3c-5.6,4.5-10.4,10.1-16.5,16.2
		c-15.7-6.4-32.3-12.3-48-19.9c-15.4-7.6-30.7-6.2-38.9,11.6c-1.1,2.4-2.3,5-4.2,6.7c-13.5,11.6-23.1,26.5-33.3,40.8
		c-0.2,0.3-0.3,0.6-0.5,0.8c-14.7,12.1-22.7,29.3-33.6,44.3c-7.2,9.9-10.8,21.9-11.2,33.6c-0.3,7.1,4.5,15.3,9.1,21.4
		c6.1,8,9.6,17.1,11.5,26.2c1.1,5.3-2.1,12.3-5.2,17.5C1918.9,891.8,1911.8,907.7,1907,927.1z"/>
</g>
</svg>
