<?xml version="1.0" encoding="utf-8"?>
<!-- Generator: Adobe Illustrator 19.0.0, SVG Export Plug-In . SVG Version: 6.00 Build 0)  -->
<svg version="1.1" id="Layer_1" xmlns="http://www.w3.org/2000/svg" xmlns:xlink="http://www.w3.org/1999/xlink" x="0px" y="0px"
	 viewBox="0 0 1400 700" style="enable-background:new 0 0 1400 700;" xml:space="preserve">
<style type="text/css">
	.st0{fill:#FFFFFF;}
</style>
<g>
	<path d="M554.6,223.8c-5.2-6.1-10-12.1-15.2-17.8c-5-5.5-4.5-8.5,2.7-10.9c12.3-4.1,24.7-8,37.1-12.1c2.3-0.7,4.5-1.7,7.4-2.8
		c-1.5-2.6-2.4-5.4-4.3-7.2c-3.3-3.1-3.6-6.5-2.2-10.2c1.3-3.3,1.1-6.3,0.1-9.7c-2.3-7.9-3.9-16.1-5.7-24.2
		c-0.1-0.6-0.4-1.5-0.1-1.8c4.8-4.3,5.8-12.2,14.1-13.1c5.6-0.6,10.9-3,16.4-4.5c4.4-1.2,8.2-0.8,11.8,2.7
		c11.9,11.5,24,22.8,36.1,34.2c3,2.8,6.1,5.6,9.3,8.2c1,0.8,2.6,1.3,4,1.4c3.3,0.2,6.7,0.2,10,0c8.7-0.6,14.7,3.5,18.9,10.8
		c2.8,4.8,5.9,9.4,8.5,14.3c2.1,3.9,2.6,8.2,1.2,12.6c-0.2,0.8-0.4,1.6-0.7,2.3c-2.7,7.8-3.1,14.9,1.5,22.7c4.2,7.2,6,15.7,9.3,23.6
		c1.2,3,3.2,5.7,5.3,8.2c1.4,1.6,3.7,3.3,5.7,3.4c6,0.4,12.2,1.2,17.9-0.1c11.1-2.6,19.3,0.4,24.2,10.4c4.1,8.2,7.6,16.8,10.8,25.4
		c1.7,4.5,4.3,5.2,8.5,4.8c10.4-0.8,21-4.8,31,1.7c2.2,1.5,4.4,3.4,6,5.5c5.5,7.3,10.2,15.3,16.4,22c4.6,4.9,7.7,9.9,10.2,16.1
		c2.6,6.5,7.3,12.3,11.7,18c9.4,12.4,19.1,24.5,28.8,36.7c2.4,3,5.2,5.8,7.9,8.6c9.2,9.4,12.8,22,19,33.1c0.8,1.4,1.6,2.9,2.5,4.5
		c-5.3,4.1-8.6,9.7-10.7,16.3c-2,6.7-8.7,6.4-13.9,8c-2,0.6-4.3,0.1-7.7,0.1c3.5,5.9,6.3,11.4,9.7,16.3c2.7,3.9,2.4,6.8-0.8,10
		c-1.8,1.9-3.3,4.1-5.1,6.3c0.6,5.1,4.9,5.5,8.5,6.3c4.2,0.9,6.3,3.2,7.4,7.3c1,3.9,2.9,7.5,4.7,11.2c2.8,5.9,2.7,8.2-3,11.2
		c-11.7,6-17.5,17-24.3,27c-4,5.9-9.7,8.6-15.3,11.6c-5.3,2.8-8.8,6.9-11.9,11.8c-1.2,1.9-3.9,3.7-6,3.9c-6.2,0.6-12.4,0.8-17.6-4.3
		c-1.6-1.6-4.8-1.5-7.2-2.2c-6.1,8-15.2,10.3-26.1,6.3c-3-1.1-5.1-1.5-6.8,2.9c-1.8-8.6-9.1-6-13.8-8.4c-2.4-1.2-5.4-1.1-8-2.2
		c-10.8-4.5-20.9-2.3-30.6,3.3c-11.3,6.6-21.7,1.8-31-3.9c-12.9-7.9-25-17.2-37.4-25.9c-7.6-5.3-15.5-10.3-22.7-16.1
		c-2.5-2-3.9-5.9-5-9.2c-1.7-4.9-2.8-10-4.3-15c-0.4-1.2-1.4-2.2-2.3-3.1c-11-10.9-23.8-18.4-39-22.2c-9.9-2.5-19.9-5.6-28.8-10.4
		c-4.5-2.5-7.3-9-9.7-14.2c-3.3-7.2-4.8-15.3-8.3-22.4c-5.2-10.6-12-19.4-24.8-23.2c-10.3-3.1-19.7-9.4-29.4-14.4
		c-3-1.6-5.8-3.8-8.9-5.1c-7.8-3.2-9.4-10.2-9.6-17.2c-0.3-10.6,0.8-21.2,0.7-31.8c-0.1-7.1-0.4-14.4-2.1-21.2
		c-1.8-7.1,0-13.2,2.9-18.9c8.4-16,17.5-31.7,26.3-47.5c4.1-7.3,10.6-11.7,17.6-15.8c7-4.1,13.9-8.6,20.4-13.4
		C549.8,230.3,551.7,227.1,554.6,223.8z M623.7,332c2.2-2.8,4.2-5.8,6.8-8.2c3.2-3,7-5.3,10.2-8.2c2.2-1.9,3.9-4.5,5.9-6.6
		c4.9-5.3,9.9-10.4,14.7-15.7c3.4-3.8,6.6-7.8,9.8-11.8c1.7-2.1,3.9-4.1,4.6-6.5c2.1-7,3.1-14.3,5.3-21.3c2-6.5,6.7-13.3,16.8-10.2
		c1.4,0.4,3,0.4,5,0.6c-3.8-9.4-7.5-18.1-10.8-26.9c-1.1-2.8-2.2-6-1.9-8.9c0.6-5.8,2.2-11.5,3.2-17.3c0.3-1.4,0.1-3.2-0.5-4.5
		c-1.1-2.5-2.8-4.8-4.2-7.2c-2.2-3.7-4.4-7.5-6.5-11.3c-0.4,0.1-0.9,0.2-1.3,0.3c-2,10.1-3.9,20.3-6,30.3
		c-1.9,9.1-3.9,18.1-6.1,27.1c-0.7,2.8-3.1,4.1-5.8,2.6c-4-2.3-7.9-5-11.6-7.4c-1.4,4.6-3.2,9.6-4.3,14.7c-1.1,5.5-4.1,4.5-8,3.3
		c-11.9-3.8-20.4-12.8-30.3-19.6c-2.8-1.9-5.7-5.1-8.6-5.2c-13.5-0.6-27.1-0.2-41.6-0.2c1.5,2.1,2.7,3.3,3.4,4.7c1,2.1,2.8,5,2,6.4
		c-2.5,4.7-5.3,9.7-9.2,13.1c-6,5.2-12.6,10.2-19.8,13.5c-11.9,5.4-18.6,14.5-24.1,25.7c-5,10.2-11.2,19.9-16.7,29.9
		c-3.4,6.2-7,12.1-5.4,20c1.6,7.8,2.7,15.9,2.9,23.8c0.1,8.4-1.7,16.7-1.6,25.1c0.1,4.3,1.3,10.7,4.2,12.5
		c14.4,8.8,28.7,18.1,45.4,22.4c1.7,0.4,3.3,1.4,4.9,2.3c7,3.9,14,6,21.7,1.6c2-1.2,4.6-1.9,7-1.9c4.5,0,6.4-2.3,7.5-5.5
		c-3.3-2.8-6.5-5-9.2-7.9c-4.1-4.4-2-10.7,4.1-11.4c6.8-0.8,13.7-0.2,19.4-0.2c3.2-3,5.6-6.5,8.9-8.1c7.6-3.6,10.5-7.8,8.8-16.2
		c-0.4-2.1-2.2-4-2.9-6.1c-2.9-9.4,1.8-22.8,13.8-26c-1.9,2.5-4.1,4.8-5.6,7.5c-2.3,4.1-4.9,8.4-5.8,12.9c-0.5,2.3,2.7,5.2,4.1,7.9
		c0.4,0.8,0.6,1.9,0.5,2.8c-0.2,2.6-0.7,5.2-0.9,7.8c-0.5,5.3-5.2,10.4-10.3,12.3c-2.2,0.8-4.7,2.6-5.5,4.6c-1.5,4-3.9,4.8-7.6,4.3
		c-2.4-0.4-4.9-1.1-7.3-1c-3.6,0.3-7.2,1-10.7,2c-0.7,0.2-1.7,2.9-1.2,3.6c1.8,2.7,4,5.1,6.2,7.6c1.4,1.6,4.4,4.1,4,4.7
		c-1.5,2.6-3.8,6.3-6,6.5c-8.5,0.7-15.8,8.1-24.9,4.6c-0.3-0.1-0.8,0.2-0.7,0.2c3.1,4.5,6.8,8.5,9,13.3c3.5,7.7,5.9,15.8,9,23.7
		c2,5.1,3.5,11.1,9.2,13.2c12,4.5,24.3,8.2,36.4,12.4c4.4,1.5,6.1-1.5,8.6-3.8c2.3-2.1,4.6-4.7,7.3-5.9c3.4-1.5,4.6-3.4,4.4-7.1
		c-0.3-7.8,2.3-9.8,10.3-9.3c2,0.1,4.3-0.2,6.1-1.1c2.1-1,3.6-3.1,5.6-4.3c6.2-3.7,11.8-7.7,12-15.9c0-0.9,0.7-1.8,1.3-2.5
		c1.8-2.2,4-4.1,5.6-6.5c3.2-4.7,5.9-9.7,9-14.5c2.3-3.7,4.8-7.2,7.2-10.8c0.5-0.8,1.2-1.9,1.9-2.1c6.7-1.3,13.5-3.3,20.3-3.5
		c14.4-0.3,26.3-7.1,38.4-13.4c2.1-1.1,3.5-3.5,5.4-5.1c2.3-2,4.7-3.8,6.8-5.4c0-2.1-0.9-5.2,0.2-7.2c2.2-4.1,5.1-3.9,9.8-0.1
		c4.5,3.6,7,3.6,9.7-1.1c2-3.5,4.8-4.2,8.2-4.4c2-0.1,3.9,0,5.3,0c-0.4-5.3-0.5-10.2-1.3-15c-0.9-4.8-1.3-9.8-6.2-13.2
		c-4.6-3.1-8.4-7.3-12.4-11.2c-4.7-4.5-4.2-6.8,1.9-9.7c1.7-0.8,3.4-1.8,5.1-2.7c-11.1-1.5-16.7-7.2-19.6-17.5
		c-2.2-8-6.8-15.3-10.8-22.7c-0.8-1.5-3.3-2.8-5-2.8c-3.6-0.1-7.1,1-10.7,1.2c-11.9,1-23.8,1.4-30.8-10.8c-3.7-6.3-9.1-8.4-15.6-8.4
		c-2.4,0-6.1,1.8-6.9,3.8c-2.5,5.7-3.8,12-5.8,17.9c-1.6,4.9-2.1,11.8-5.6,14.2c-6.8,4.6-9.6,11.9-15,17.4
		c-9.2,9.3-17.4,19.5-28.7,26.6C628.9,327.8,626.3,330,623.7,332z M769.3,495.5c2.9-6.3,5.1-11.8,7.9-17c4.6-8.4,8.8-17.2,14.8-24.6
		c8.1-10,11.3-20.8,9.6-33.5c-1.4-0.5-3.1-0.6-4.4-1.5c-1.3-0.9-3.4-3-3.1-3.8c2-5.4-1.5-12.7,6.4-16c-1.1-1-1.7-1.6-2.3-1.9
		c-7.3-3.1-14.7-6-22-9.2c-1-0.4-2.3-2.3-2.1-2.7c2.1-4,4-8.5,7.2-11.5c1.3-1.2,5.7,0.7,8.6,1.3c0.6,0.1,1.2,0.4,1.7,0.6
		c-0.1-0.3-0.1-0.6-0.2-1c3-1,6-2,8.8-2.9c0.2-1.3-0.1-3.5,0.8-5.1c1.8-3.5,0.8-4.6-2.7-4.6c-2.4,0-4.9,0-6.8,0
		c-2.9,2.7-5.3,5.9-8.5,7.9c-4.5,2.8-6.7-2.2-10-3.8c-1.1-0.5-2.6-0.3-3.9-0.3c0.1,1.3-0.3,3,0.3,4c2.3,3.5,1.7,5.8-2.2,7.5
		c-2.5,1.1-5.3,1.9-7.3,3.6c-13.2,11.4-28.5,16.7-45.9,16.7c-5.2,0-10.7,0.5-14.4,5.3c-0.4,0.5-2,0.2-3.2,0.2
		c-0.5,1.4-0.6,3.8-1.9,4.9c-5.9,4.9-9,11.6-12.8,17.9c-1.4,2.3-3.7,4.1-5.5,6.3c-1.2,1.6-3.1,3.4-3,5.1c0.1,4.5-2,7.6-5.1,10.2
		c-4.4,3.7-9.1,7-13.5,10.6c-2.3,1.9-4.2,3.4-7.8,2.3c-6.1-1.8-8.6,1-7.2,7c0.8,3.4-0.3,5.8-3.5,7.1c-5.6,2.3-10,5.9-12.8,11.6
		c2.7,1.8,5.6,3.3,8.2,5.3c9,6.9,19.3,12.8,21.4,25.6c0.6,3.3,1.8,6.6,3,9.8c0.7,1.7,1.7,3.7,3.1,4.8c4.9,3.7,10.1,7.1,15.2,10.7
		c14.7,10.3,29.2,21,44.3,30.7c5.6,3.6,12.7,6.1,19.8,2.2c2.4-1.3,5-2.5,7.3-3.9c7.1-4.3,15-4,22.4-2.3c13.3,3.1,26.3,7.3,39.5,11
		c6.6,1.8,15.4-3.7,14.5-9.3c-1.3-8.3-1.9-16.9-6.9-24.2c-1.2-1.7-2.5-3.6-3-5.6c-1.6-7-3.1-14-4-21.1c-1.5-10.7-6.3-17.5-17.9-18.8
		C783.4,500,776.8,497.5,769.3,495.5z M903.6,527c-1.4-3.7-2.8-6.7-3.6-9.8c-0.8-3.3-2.8-4.6-5.9-5.3c-6.1-1.3-9.7-6.2-12.5-11.1
		c-2.5-4.3,1.8-7.1,4.1-10.1c0.7-0.9,1.6-1.8,1.9-2.8c0.4-1.5,0.8-3.4,0.1-4.5c-2.7-5.2-5.9-10.1-8.6-15.4
		c-2.8-5.4,1.2-11.2,7.2-10.8c9.1,0.6,14.3-2.9,17.8-11.4c0.8-2,2.3-3.8,3.6-5.7c-4.2-8.1-7.6-16.8-12.7-24.3
		c-5.6-8.2-12.8-15.2-19.3-22.7c-14.7-17.1-29.2-34.3-37.8-55.5c-0.3-0.8-0.6-1.7-1.2-2.1c-9.4-6.6-14.2-17-20.6-26
		c-2.6-3.6-5.8-5.2-9.8-5.3c-4.9-0.1-9.9,0.5-14.8,1c-0.9,0.1-1.7,1.6-2.5,2.5c-1.3,1.4-2.4,3.2-4,4.3c-1.6,1.1-3.5,1.7-5.7,2.7
		c5.9,5.7,11.3,10.7,16.4,15.9c1.3,1.3,2.2,3.2,2.6,5c1.5,6.2,2.8,12.5,4.2,18.8c1.7,7.8,3.4,15.6,5,23.4c-0.1,1,1,1.8,2.1,2.5
		c9.7,6.6,9.7,6.6,2.2,15.4c-1,1.1-2,2.3-3.2,3.2c-1.5,1.2-3.5,3.3-4.7,2.9c-5-1.5-5.3,2.1-5.8,5c-0.5,2.9-0.1,5.9-0.1,9.2
		c6.4,0,7.8,3.6,7,9c-0.8,5.7-0.1,12-2.3,17c-3.4,7.8-8.5,14.9-13.2,22.1c-6.2,9.3-11.7,19-15.2,29.6c6,1.5,11.6,3.7,17.4,4.2
		c10.8,1,16.2,7.1,18.6,16.9c1.4,5.9,2.5,12,3.8,18c0.8,3.5,0.9,7.4,2.7,10.3c4.1,6.7,6.7,13.5,7.5,21.4c0.2,2.7,2.1,6.1,4.3,7.4
		c4.5,2.6,9.9,3.8,14.7,6c5.2,2.3,6.6,1.6,9.9-2.9c2.5-3.4,5.9-6.4,9.4-8.9c6.3-4.4,13.3-7.5,18-14.6
		C886.7,541.9,891.8,531.1,903.6,527z M678,169.1c-5.2-4.5-10.4-6.8-16.9-4.7c-1.8,0.6-4.9-0.1-6.3-1.3
		c-8.4-7.6-16.4-15.5-24.5-23.3c-2.7-2.6-5.3-5.4-8.1-8.3c-1,1.1-1.7,1.6-2.1,2.3c-3.5,5.8-6.5,12-10.7,17.2
		c-3.4,4.3-4.5,8.9-4.2,13.6c0.5,7,2.3,13.8,3.4,20.7c0.3,2.1,0.7,4.5,0.1,6.3c-2.2,6.3-4.8,12.4-7.3,18.8
		c15.1,8.4,25.3,22.7,42.8,26.7c1.1-5,1.8-9.8,3.2-14.5c0.6-2,2-4.5,3.7-5.3c1.2-0.5,3.6,1.3,5.3,2.5c2.8,2,5.4,4.2,8.8,6.9
		C669.6,206.6,673.8,187.7,678,169.1z M548.9,203c3.6,3,6.5,7.4,9.6,7.6c13.2,0.8,26.6,0.3,39.3,0.3c2.7-7.4,5.4-14.3,7.7-21.3
		c0.4-1.2-0.1-2.8-0.3-4.2c-1.1-6.9-2.4-13.8-3.1-20.8c-0.5-5.4-5.3-9.3-10.8-8.1c-0.5,2.6-1.1,5.1-1.4,7.7c-0.1,1.1,0,2.4,0.4,3.3
		c1.8,4.1,4.1,8,5.6,12.2c1.6,4.5-0.5,7.5-4.9,9C577.5,193.5,563.9,198,548.9,203z M619.6,129.9c-1.8-1.7-2.8-3.1-4.2-3.9
		c-2.9-1.8-6.4-5-9.1-4.6c-7.4,1.2-14.6,4-22,6.3c1.3,5.8,2.4,11.1,3.7,16.4c0.3,1.4,1.4,2.6,2.1,3.9c1.5-1,3.3-1.8,4.4-3.2
		c1.8-2.2,3.2-4.7,5-7.5c2.7,2.6,4.9,4.6,7.9,7.5C611.5,139.9,615.4,135.1,619.6,129.9z M804.2,396.3c0.3-0.5,0.5-0.9,0.8-1.4
		c-5.6-4.7-11.2-9.4-16.7-14.2c-1.9-1.7-3.6-3.1-5.5-0.1c-0.7,1.2-1.7,3.5-1.5,3.7c2.2,1.3,4.5,2.4,6.9,3.4c2.7,1.1,5.6,1.9,8.2,3.3
		C799.1,392.4,801.6,394.5,804.2,396.3z M594.4,151.9c2.7,1.4,4.9,2.6,7.4,3.9c1.7-2.6,3.6-5.3,5.3-7.9c-2.9-1.9-5.1-3.5-7.8-5.3
		C597.5,146.1,595.8,149.3,594.4,151.9z M811.3,387.9c-13-10.4-13-10.4-16.4-8.2c4.6,3.8,9,7.5,13.6,11.2
		C809.5,389.9,810.3,389.1,811.3,387.9z"/>
	<path id="_x32_517" class="st0" d="M623.7,332c2.7-2,5.2-4.1,8-5.9c11.3-7,19.5-17.3,28.7-26.6c5.4-5.4,8.2-12.7,15-17.4
		c3.5-2.4,4-9.3,5.6-14.2c2-6,3.3-12.2,5.8-17.9c0.9-2,4.5-3.8,6.9-3.8c6.4,0,11.9,2.1,15.6,8.4c7,12.2,19,11.8,30.8,10.8
		c3.6-0.3,7.1-1.3,10.7-1.2c1.7,0,4.3,1.4,5,2.8c3.9,7.4,8.5,14.8,10.8,22.7c2.9,10.4,8.5,16.1,19.6,17.5c-1.7,0.9-3.4,1.9-5.1,2.7
		c-6.1,2.9-6.6,5.1-1.9,9.7c4,3.9,7.9,8.1,12.4,11.2c4.9,3.4,5.4,8.3,6.2,13.2c0.8,4.8,0.9,9.7,1.3,15c-1.4,0-3.3-0.1-5.3,0
		c-3.4,0.2-6.2,0.9-8.2,4.4c-2.6,4.6-5.2,4.6-9.7,1.1c-4.7-3.8-7.6-4-9.8,0.1c-1.1,2-0.2,5-0.2,7.2c-2.1,1.7-4.6,3.4-6.8,5.4
		c-1.9,1.6-3.3,4-5.4,5.1c-12.1,6.4-24,13.2-38.4,13.4c-6.8,0.1-13.5,2.1-20.3,3.5c-0.7,0.1-1.4,1.3-1.9,2.1
		c-2.4,3.6-4.9,7.1-7.2,10.8c-3,4.8-5.8,9.7-9,14.5c-1.6,2.4-3.8,4.3-5.6,6.5c-0.6,0.7-1.3,1.7-1.3,2.5c-0.2,8.2-5.8,12.2-12,15.9
		c-2,1.2-3.5,3.3-5.6,4.3c-1.8,0.9-4.1,1.2-6.1,1.1c-8-0.5-10.6,1.5-10.3,9.3c0.1,3.7-1,5.6-4.4,7.1c-2.8,1.3-5,3.8-7.3,5.9
		c-2.5,2.2-4.2,5.3-8.6,3.8c-12.1-4.3-24.4-8-36.4-12.4c-5.7-2.1-7.2-8.1-9.2-13.2c-3.1-7.9-5.5-16-9-23.7c-2.2-4.8-5.9-8.8-9-13.3
		c-0.1,0,0.4-0.3,0.7-0.2c9.2,3.4,16.4-4,24.9-4.6c2.2-0.2,4.6-3.9,6-6.5c0.3-0.6-2.6-3.1-4-4.7c-2.1-2.5-4.4-4.9-6.2-7.6
		c-0.5-0.7,0.5-3.4,1.2-3.6c3.5-1,7.1-1.7,10.7-2c2.4-0.2,4.9,0.6,7.3,1c3.6,0.5,6.1-0.3,7.6-4.3c0.7-2,3.3-3.8,5.5-4.6
		c5.1-1.9,9.7-7.1,10.3-12.3c0.3-2.6,0.7-5.2,0.9-7.8c0.1-0.9-0.1-2-0.5-2.8c-1.4-2.7-4.5-5.6-4.1-7.9c0.9-4.5,3.5-8.7,5.8-12.9
		c1.5-2.7,3.7-5,5.6-7.5C623.9,331.8,623.7,332,623.7,332z"/>
	<path id="_x32_516" class="st0" d="M623.7,332c0,0,0.2-0.2,0.2-0.2c-11.9,3.2-16.7,16.6-13.8,26c0.7,2.1,2.4,4,2.9,6.1
		c1.7,8.3-1.2,12.5-8.8,16.2c-3.4,1.6-5.8,5.2-8.9,8.1c-5.7,0-12.6-0.6-19.4,0.2c-6.1,0.7-8.2,7-4.1,11.4c2.6,2.8,5.9,5.1,9.2,7.9
		c-1.1,3.2-3,5.5-7.5,5.5c-2.3,0-4.9,0.7-7,1.9c-7.7,4.4-14.7,2.3-21.7-1.6c-1.6-0.9-3.2-1.9-4.9-2.3c-16.7-4.3-31-13.6-45.4-22.4
		c-2.9-1.8-4.2-8.2-4.2-12.5c-0.1-8.4,1.7-16.7,1.6-25.1c-0.1-8-1.3-16-2.9-23.8c-1.6-7.8,2.1-13.8,5.4-20
		c5.5-10,11.7-19.7,16.7-29.9c5.5-11.2,12.2-20.3,24.1-25.7c7.2-3.2,13.8-8.3,19.8-13.5c3.9-3.4,6.7-8.4,9.2-13.1
		c0.7-1.4-1.1-4.3-2-6.4c-0.6-1.4-1.8-2.6-3.4-4.7c14.5,0,28.1-0.3,41.6,0.2c2.9,0.1,5.8,3.3,8.6,5.2c9.9,6.8,18.4,15.8,30.3,19.6
		c3.8,1.2,6.8,2.2,8-3.3c1.1-5.1,2.9-10.1,4.3-14.7c3.7,2.4,7.5,5.1,11.6,7.4c2.7,1.6,5.1,0.2,5.8-2.6c2.2-9,4.2-18,6.1-27.1
		c2.1-10.1,4-20.2,6-30.3c0.4-0.1,0.9-0.2,1.3-0.3c2.2,3.8,4.3,7.5,6.5,11.3c1.4,2.4,3,4.7,4.2,7.2c0.6,1.3,0.7,3,0.5,4.5
		c-1,5.8-2.6,11.5-3.2,17.3c-0.3,2.9,0.9,6.1,1.9,8.9c3.4,8.8,7,17.5,10.8,26.9c-2-0.2-3.6-0.2-5-0.6c-10.2-3.1-14.8,3.6-16.8,10.2
		c-2.2,7-3.2,14.3-5.3,21.3c-0.7,2.4-3,4.4-4.6,6.5c-3.2,4-6.4,8-9.8,11.8c-4.8,5.3-9.8,10.5-14.7,15.7c-2,2.2-3.7,4.7-5.9,6.6
		c-3.3,2.9-7.1,5.2-10.2,8.2C627.9,326.2,625.9,329.2,623.7,332z"/>
	<path id="_x32_515" class="st0" d="M769.3,495.5c7.5,1.9,14.1,4.4,20.9,5.2c11.6,1.4,16.4,8.1,17.9,18.8c1,7.1,2.5,14.1,4,21.1
		c0.4,2,1.8,3.8,3,5.6c5,7.3,5.7,15.9,6.9,24.2c0.9,5.6-7.9,11.1-14.5,9.3c-13.2-3.6-26.2-7.8-39.5-11c-7.4-1.8-15.3-2.1-22.4,2.3
		c-2.4,1.4-4.9,2.6-7.3,3.9c-7.1,3.9-14.2,1.4-19.8-2.2c-15.1-9.6-29.6-20.4-44.3-30.7c-5.1-3.5-10.3-6.9-15.2-10.7
		c-1.4-1.1-2.4-3-3.1-4.8c-1.2-3.2-2.4-6.4-3-9.8c-2.2-12.8-12.4-18.7-21.4-25.6c-2.6-2-5.4-3.5-8.2-5.3c2.7-5.7,7.2-9.2,12.8-11.6
		c3.2-1.3,4.3-3.8,3.5-7.1c-1.4-6,1.1-8.8,7.2-7c3.6,1.1,5.4-0.4,7.8-2.3c4.4-3.6,9.1-6.9,13.5-10.6c3.1-2.6,5.2-5.7,5.1-10.2
		c0-1.7,1.8-3.6,3-5.1c1.7-2.2,4-3.9,5.5-6.3c3.8-6.3,6.9-13.1,12.8-17.9c1.3-1,1.4-3.4,1.9-4.9c1.1,0,2.7,0.3,3.2-0.2
		c3.8-4.8,9.2-5.3,14.4-5.3c17.4,0,32.7-5.3,45.9-16.7c2-1.7,4.8-2.5,7.3-3.6c3.9-1.6,4.5-4,2.2-7.5c-0.6-1-0.2-2.6-0.3-4
		c1.3,0.1,2.8-0.2,3.9,0.3c3.2,1.6,5.5,6.6,10,3.8c3.2-2,5.7-5.1,8.5-7.9c1.9,0,4.4,0,6.8,0c3.5,0,4.6,1.2,2.7,4.6
		c-0.9,1.6-0.6,3.8-0.8,5.1c-2.8,0.9-5.8,1.9-8.8,2.9c0.1,0.3,0.1,0.6,0.2,1c-0.6-0.2-1.1-0.5-1.7-0.6c-3-0.5-7.3-2.5-8.6-1.3
		c-3.2,3-5.1,7.5-7.2,11.5c-0.2,0.5,1.1,2.3,2.1,2.7c7.3,3.2,14.7,6.1,22,9.2c0.7,0.3,1.2,1,2.3,1.9c-7.9,3.3-4.4,10.6-6.4,16
		c-0.3,0.8,1.7,2.8,3.1,3.8c1.3,0.9,3,1.1,4.4,1.5c1.6,12.7-1.6,23.4-9.6,33.5c-6,7.4-10.2,16.2-14.8,24.6
		C774.4,483.7,772.2,489.3,769.3,495.5z"/>
	<path id="_x32_513" class="st0" d="M903.6,527c-11.8,4.1-16.9,14.9-23.1,24.3c-4.6,7.1-11.6,10.1-18,14.6c-3.5,2.5-6.9,5.5-9.4,8.9
		c-3.3,4.5-4.8,5.2-9.9,2.9c-4.8-2.2-10.2-3.4-14.7-6c-2.2-1.3-4.1-4.8-4.3-7.4c-0.7-7.9-3.3-14.7-7.5-21.4
		c-1.8-2.9-1.9-6.8-2.7-10.3c-1.3-6-2.4-12-3.8-18c-2.4-9.8-7.8-15.9-18.6-16.9c-5.8-0.5-11.3-2.7-17.4-4.2
		c3.5-10.6,9-20.3,15.2-29.6c4.7-7.2,9.8-14.3,13.2-22.1c2.2-5,1.5-11.3,2.3-17c0.8-5.4-0.6-9-7-9c0-3.3-0.4-6.3,0.1-9.2
		c0.5-2.9,0.8-6.5,5.8-5c1.2,0.4,3.2-1.8,4.7-2.9c1.2-0.9,2.2-2,3.2-3.2c7.6-8.8,7.6-8.8-2.2-15.4c-1.1-0.7-2.2-1.5-2.1-2.5
		c-1.7-7.8-3.3-15.6-5-23.4c-1.4-6.3-2.7-12.6-4.2-18.8c-0.4-1.8-1.3-3.7-2.6-5c-5.1-5.2-10.4-10.2-16.4-15.9c2.1-1,4.1-1.5,5.7-2.7
		c1.5-1.1,2.6-2.8,4-4.3c0.8-0.9,1.6-2.3,2.5-2.5c4.9-0.6,9.9-1.1,14.8-1c4,0.1,7.2,1.7,9.8,5.3c6.4,9,11.1,19.4,20.6,26
		c0.6,0.4,0.9,1.4,1.2,2.1c8.6,21.2,23.1,38.4,37.8,55.5c6.5,7.5,13.7,14.6,19.3,22.7c5.1,7.5,8.6,16.2,12.7,24.3
		c-1.2,1.9-2.8,3.7-3.6,5.7c-3.5,8.5-8.7,11.9-17.8,11.4c-6-0.4-10,5.4-7.2,10.8c2.7,5.2,5.9,10.1,8.6,15.4c0.6,1.2,0.2,3.1-0.1,4.5
		c-0.3,1-1.2,1.9-1.9,2.8c-2.3,3.1-6.6,5.8-4.1,10.1c2.8,4.9,6.4,9.7,12.5,11.1c3.1,0.7,5.1,1.9,5.9,5.3
		C900.8,520.3,902.2,523.3,903.6,527z"/>
	<path id="_x32_510" class="st0" d="M678,169.1c-4.2,18.7-8.4,37.5-13,57.6c-3.3-2.6-6-4.9-8.8-6.9c-1.6-1.2-4.1-3-5.3-2.5
		c-1.7,0.8-3.1,3.2-3.7,5.3c-1.3,4.6-2.1,9.4-3.2,14.5c-17.5-4-27.7-18.3-42.8-26.7c2.5-6.3,5.1-12.4,7.3-18.8
		c0.7-1.9,0.3-4.3-0.1-6.3c-1.1-6.9-2.9-13.8-3.4-20.7c-0.4-4.8,0.7-9.4,4.2-13.6c4.2-5.2,7.2-11.4,10.7-17.2
		c0.4-0.7,1.1-1.2,2.1-2.3c2.8,2.9,5.4,5.7,8.1,8.3c8.1,7.8,16.2,15.7,24.5,23.3c1.4,1.3,4.5,1.9,6.3,1.3
		C667.6,162.3,672.8,164.6,678,169.1z"/>
	<path id="_x32_511_1_" class="st0" d="M548.9,203c15-5,28.6-9.5,42.1-14.1c4.4-1.5,6.5-4.6,4.9-9c-1.5-4.2-3.8-8.1-5.6-12.2
		c-0.4-1-0.6-2.3-0.4-3.3c0.3-2.6,0.9-5.1,1.4-7.7c5.5-1.2,10.3,2.7,10.8,8.1c0.7,7,2.1,13.8,3.1,20.8c0.2,1.4,0.8,3,0.3,4.2
		c-2.4,7-5,13.9-7.7,21.3c-12.7,0-26,0.5-39.3-0.3C555.4,210.5,552.6,206,548.9,203z M615.4,126c-2.9-1.8-6.4-5-9.1-4.6
		c-7.4,1.2-14.6,4-22,6.3c1.3,5.8,2.4,11.1,3.7,16.4c0.3,1.4,1.4,2.6,2.1,3.9c1.5-1,3.3-1.8,4.4-3.2c1.8-2.2,3.2-4.7,5-7.5
		c2.7,2.6,4.9,4.6,7.9,7.5c4-4.9,7.9-9.7,12.1-14.9C617.8,128.2,616.7,126.8,615.4,126z"/>
	<path id="_x32_514" class="st0" d="M804.2,396.3c-2.6-1.8-5.1-3.8-7.8-5.3c-2.6-1.4-5.5-2.1-8.2-3.3c-2.4-1-4.7-2.1-6.9-3.4
		c-0.2-0.1,0.8-2.5,1.5-3.7c1.8-3,3.5-1.5,5.5,0.1c5.5,4.8,11.1,9.5,16.7,14.2C804.7,395.4,804.4,395.8,804.2,396.3z"/>
	<path id="_x32_509" class="st0" d="M594.4,151.9c1.4-2.6,3.1-5.8,4.9-9.3c2.7,1.8,5,3.3,7.8,5.3c-1.7,2.6-3.6,5.3-5.3,7.9
		C599.3,154.5,597.1,153.3,594.4,151.9z"/>
	<path id="_x32_512" class="st0" d="M811.3,387.9c-1,1.1-1.8,1.9-2.8,3c-4.5-3.7-9-7.4-13.6-11.2
		C798.3,377.6,798.3,377.6,811.3,387.9z"/>
</g>
</svg>
