<?xml version="1.0" encoding="utf-8"?>
<!-- Generator: Adobe Illustrator 19.0.0, SVG Export Plug-In . SVG Version: 6.00 Build 0)  -->
<svg version="1.1" id="Layer_1" xmlns="http://www.w3.org/2000/svg" xmlns:xlink="http://www.w3.org/1999/xlink" x="0px" y="0px"
	 viewBox="0 0 4000 1700" style="enable-background:new 0 0 4000 1700;" xml:space="preserve">
<style type="text/css">
	.st0{fill:#FFFFFF;}
</style>
<g>
	<path d="M1240.4,917c-3.3-4.5-6.7-9.9-10.8-14.8c-7.6-9.3-15.7-18.2-23.2-27.5c-1.9-2.4-2.4-5.9-3.5-9c-0.9-2.5-2-4.3-5.1-5
		c-16.4-3.5-28.7-14.2-41.4-24.1c-1.5-1.2-2.4-3.1-3.7-4.6c-4.9-5.9-9.4-12-14.7-17.5c-6.6-6.9-13.7-13.4-20.7-20.2
		c-6,4.6-12.3,9.4-18.9,14.5c-0.8-6,4.9-6.5,7.1-9.7c0.4-0.6,1.3-0.9,2.1-1.3c6.4-3.2,8.8-9.3,11.4-15.5c1.4-3.3,3.1-6.5,4.7-9.7
		c1.5-2.9,3.3-4.1,7-3.1c11.7,3,23.3,6.5,35.2,7.9c15.3,1.8,30.7,4.2,46.1-2.2c6.2-2.6,10.3-4.6,11.1-11.4c0.3-2.4,0.9-4.9,2-7
		c4-7,2.8-13.1-3.2-18.1c-5.8-4.9-5.8-11.7-7-18.3c-1.6-8.4,1.5-16.2,4.1-23.6c1.1-3.2,6.8-4.9,10.6-6.9c14.8-7.7,29.7-15,44.4-22.7
		c12-6.3,23.9-12.8,35.7-19.5c4.5-2.6,8.7-5.7,12.7-9.1c6.6-5.4,12.9-11.2,19.5-17c-3.3-4.5-8.6-4.9-13.4-5.4
		c-17.2-1.7-32.5-9.4-48.8-14c-19.4-5.5-33.1-18.4-44.2-34.5c-1.7-2.5-1.9-6.1-3.4-8.9c-1.6-2.9-3.7-5.5-5.8-8.1
		c-1.9-2.4-4.2-4.6-6-7.2c-0.5-0.7-0.1-2.2-0.1-4.5c4.8,5.4,8.7,9.8,12.6,14.2c1.6,1.8,3.2,2,5.9,1.8c10-0.8,13.4-9.7,19.9-14.7
		c2.9-2.2,5.6-5.3,8.8-6.2c18.8-5.3,37.6-10.5,56.7-14.7c4.8-1.1,10.5,1.1,15.7,2.5c19.5,5.1,38.9,10.8,58.5,15.4
		c6.4,1.5,13.5,0.2,20.3,0.1c1.8,0,3.6-0.6,5.4-0.6c18.8,0,37.7-0.3,56.5,0.1c10.2,0.2,19.3,3.1,27.1,10.6
		c4.5,4.3,11.1,6.5,17.1,9.1c9,3.9,18.1,7.2,27.3,10.6c2.2,0.8,4.7,1.3,7.1,1.5c12.3,0.7,24.3-0.5,36.4-2.9c3.7-0.7,5.6-3.3,7.5-6.2
		c3.1-4.6,5-4.9,9.7-1.9c12,7.8,24,15.7,36.1,23.4c1.2,0.7,3.3,1.4,4.1,0.9c1.1-0.8,1.9-2.8,1.9-4.3c0.1-12,0.7-24-0.1-36
		c-0.6-8-3.1-15.9-5.3-23.8c-1.4-5.3,1.1-9.3,3.4-13.3c1.6-2.8,6-1.7,8,1.8c1.9,3.3,3.4,6.7,5.1,10.1c2.5,4.9,6.9,5.6,10.9,2
		c10.5-9.5,21.2-18.6,34.4-24.2c1.9-0.8,4.8-0.8,6.7,0.1c6.4,2.9,12.3,7.4,18.9,9.2c3.8,1,11.1-0.9,12.7-3.8
		c4.5-8.1,10.9-7.2,17.8-6.9c1.2,0.1,2.8,0,3.7-0.7c6.6-4.8,13.1-9.7,19.6-14.7c2.1-1.6,4.7-2.9,6-5c4.6-7.2,11.9-8.8,19.4-10.9
		c6.6-1.9,12.9-5.3,19.1-8.4c7.6-3.8,15.1-7.8,22.3-12.3c3.2-2,5.5-5.5,8.3-8.2c3.7-3.6,7.4-7.2,11.6-11.3c-5.4-7.6-10-15.6-16-22.3
		c-8-9.2-10.3-19.7-10.4-31.2c-0.1-9.8-4.7-18.2-8.5-26.8c-2.5-5.7-6.1-10.8-8.4-16.5c-3.1-7.8-5.8-15.9-7.9-24
		c-3.3-12.6-5.8-25.4-9.2-37.9c-1.5-5.4-4.2-10.6-6.5-15.7c-2.7-5.9-5.8-11.7-8.2-17.7c-0.6-1.5,0.1-4,1-5.4c1.6-2.4,4-4.4,5.3-5.8
		c4.9,11.5,9.9,23.3,15.1,35.7c4.2-2.1,7.3-3.7,10.5-5.1c9.7-4.2,19.2-9.1,29.3-12.2c8.3-2.6,17.3-3.1,26-4.2
		c3.3-0.4,6.7-0.2,10.1-0.2c5.9-0.1,7.7,3.8,8.5,8.8c0.9,5.8,1.9,11.6,3.1,17.3c0.3,1.2,1.8,2.8,3,2.9c10.4,1.5,21,1.7,31.1,4.5
		c7.7,2.1,15,6.6,21.6,11.2c15.3,10.7,31.4,19.8,49.3,25.5c8,2.5,14.3,7.1,16.1,16.2c1.9,10.1,4.1,20.1,5.9,30.2
		c2.5,14.1,9.4,25.9,17.8,37c0.9,1.1,2.2,1.9,4.2,3.5c-0.4-5.9-0.7-10.7-1-15.4c-1-16.5-7.8-31.1-14.6-45.8
		c-4.7-10.2-9.3-20.5-13.8-30.8c-0.4-1-0.3-2.1-0.5-3.2c0.4-0.3,0.9-0.5,1.3-0.8c1,1.3,2.3,2.4,2.9,3.9c8,18.2,16.3,36.3,23.5,54.8
		c2.7,7,3,14.9,4.2,22.5c0.6,4.2,0.5,8.6,1.2,12.8c0.2,1.2,2.3,3,3.5,3c1.8,0,4.5-0.8,5.1-2.1c1.1-2.2,1.5-5.2,1.1-7.6
		c-1.2-7.4,8.2-16.7,16.8-17.9c3.1-0.4,5,1.5,5.3,4.6c0.5,5.1,0.5,10.2,1.1,15.3c1.5,13.4,4.3,26.4,12.9,37.4
		c2.1,2.7,5.1,4.6,7.9,7.1c3.8-4,7.3-8,11.1-11.6c3.1-2.9,6.8-5.2,9.8-8.1c3.3-3.2,6.6-2.7,10.4-1.1c7,2.9,11.5,7.1,13.5,15.1
		c3.4,13.4,13.8,19.5,27.8,13.2c6.2-2.8,12-1.8,17.9,0.1c-3.1-4.3-6.7-8.4-9.2-13c-3.4-6.4-6.4-13.1-8.9-19.9
		c-1.8-4.7-4-8.5-8.1-11.7c-12.3-9.5-16.6-24.8-10.1-36c3.9-6.8,9.9-8.7,17.1-10.5c12.4-3.2,25.7-0.8,37.6-6.8
		c9.6-4.9,10.1-12.6,7.2-21.1c-3.4-10.1-2.6-16.3,4.5-23.7c5.2-5.4,10.7-9.8,18.3-11.7c4.4-1.1,8.4-4.2,12.2-7
		c6.3-4.7,12.8-4.1,19.5-1.4c3.3,1.4,6.4,3.6,9.8,4.3c4,0.8,8.5,1.5,12.4,0.4c12.2-3.5,24.4-2.7,35.8,1.5
		c9.2,3.4,14.6,11.1,14.8,21.7c0.1,3.9,1.1,7.7,1.6,11.2c3.8-1.2,7.1-2.1,10.5-3.2c8.4-2.8,11.6-7.8,13-16.3
		c1.4-8.1,4.8-15.9,6.8-23.9c2.7-10.9,10.8-16.3,19.8-21.1c1.3-0.7,2.6-1.4,5.3-2.8c0-10.9-0.1-22.4,0-34c0.1-8.5,6.1-19,12.9-20.2
		c3.5-0.6,7.8-0.6,10.9,0.8c13.4,6.2,25.1,15.2,36.6,24.3c1.3,1,2.7,1.9,3.2,2.2c5.4-3.2,10.2-7.1,15.7-9.1c14-5,23.6,2,31.7,12.2
		c0.4,0.5,0.8,1,1.5,1.8c4.2-2.4,8.6-4.5,12.6-7.2c4.1-2.7,7.6-3.2,11.2,0.6c0.8,0.8,1.8,1.4,3.2,2.4c-7.4,4.2-14.3,8.3-21.5,12
		c-2.5,1.3-3.5,2.6-3.1,5.2c0.5,3.5-0.7,5.7-4,7.6c-4.9,2.9-9.3,6.5-14,9.8c-1.8,1.2-2.9,8.1-2.2,11c2.3,10.5,11.4,10.9,19.1,13.5
		c6.4,2.2,11.8-0.5,17.1-3.5c6.8-3.9,12.9-2.6,19.4,1.1c8.3,4.7,17,8.7,25.7,12.8c1.9,0.9,4.1,0.9,6.2,1.2
		c11.3,1.7,16.6,11.2,23.7,18.3c3.5,3.6,6.3,7.9,9.4,11.9c2.7,3.5,5.7,2.3,8.8,0.6c10.6-5.9,20.8-2.6,30.7,1.7
		c3.7,1.6,7.1,4.3,9.8,7.2c4.2,4.5,8.3,9.3,7.5,16.4c-0.5,4.4-0.1,9-0.1,14.2c2.6,0,5,0.1,7.4,0c10.6-0.3,21.2-1.3,31.8-0.8
		c11.8,0.6,21.4-5.4,31.9-8.8c0.7-0.2,1.7-0.9,1.7-1.4c-0.1-5.4,4.8-7.5,7-11.4c2.3-4.1,3.9-8.5,6.2-12.6c1.1-2,2.9-4,4.8-5.2
		c2.8-1.7,6-2.5,9-3.8c5.7-2.5,11.3-2.2,17.1-0.1c7.9,2.9,8,2.6,9.7-4.9c0.2,0,0.5-0.1,0.5-0.1c2.7,5.2,7.4,3.2,11.4,3.1
		c13.6-0.3,26.3,2.5,37.9,9.9c4.2,2.7,7.4,12.2,6.7,17.1c-0.8,5.7-1.2,11.5-1,17.2c0.1,3.9-1.6,6.3-4.3,8.3c-2.6,2-5.4,3.7-8.1,5.5
		c-4.5,3.1-6.6,6.8-7.2,12.8c-1.2,12.3,2.2,22.8,8.3,32.9c1.3,2.1,2.8,4,4.3,5.9c2.4,3.3,5.3,3.1,7.1-0.7c3-6.5,6.3-12.9,8.3-19.8
		c3-10.1,9.8-15.3,19.2-18.3c12-3.7,23.8-7.7,35.8-11.1c3-0.8,6.7-0.2,9.9,0.6c6.3,1.5,12.3,4.5,18.6,5.4
		c16.3,2.4,26.3,12.9,32,26.8c3.5,8.5,3.6,18.6,4.5,28c0.7,6.8-0.3,13.7,0.3,20.5c0.3,3.5,1.8,7.3,3.8,10.2c2.2,3,2.6,5.5,1,8.6
		c-1.2,2.3-1.5,3.8,1.4,5.6c5.6,3.3,10.9,7.2,16.2,11c1.2,0.8,2.5,1.9,3.1,3.2c4,9.1,8.6,18.1,8.3,28.4c-0.3,10.6-0.4,21.2-1.1,31.8
		c-0.4,5.8,1.2,10.5,5,14.7c7.4,8.1,8.6,18.2,7.9,28.5c-0.1,1.5-2.7,3.4-4.5,4.2c-11.7,5.1-23.6,9.4-35.1,14.9
		c-5.3,2.5-10,6.7-14.4,10.8c-4.6,4.3-9.2,6.5-15.7,6.3c-7.3-0.2-14.7,1-22.1,1.9c-6.6,0.8-10.7,6.1-15.4,9.9
		c-3.6,2.9-6.6,3.9-11.4,2.3c-7.8-2.5-16.2-3.3-24.2-5.4c-3.5-0.9-6.6-3.2-9.7-5.2c-1.8-1.2-3-3.2-4.7-4.4
		c-5.6-3.9-9.1-2.7-16.5,2.9c-12.7,9.7-25.9,18.8-39,28c-1.3,0.9-3.6,1.7-4.9,1.3c-6.7-2.4-11.8,0.3-16.6,4.4
		c-2,1.7-4.1,3.3-6.1,5.1c-4.5,4.1-10.1,4.7-16.4,5c-2.2,3.5-4.5,7.9-7.5,11.6c-1.9,2.3-4.9,4-7.8,4.9c-3.4,1.1-4.6,2.9-5.2,6.2
		c-0.9,4.8-1.9,9.7-3.8,14.1c-2.3,5.4-0.9,10.2-0.2,15.6c0.8,6.2,4.3,9.6,7.1,14.1c1.4,2.4,2.1,5.5,2.3,8.3c0.3,7-1,14.3,0.4,21
		c1.6,7.7,5.4,14.9,8.4,22.2c2,5,4.4,9.8,6.1,14.8c0.5,1.4-0.7,3.4-1.3,5c-0.8,2-3.3,4.5-2.7,5.8c1.7,4.3,3.8,9,7.1,11.9
		c5.3,4.6,7.1,11.5,2.8,17.2c-0.7,1-1.6,2.3-1.5,3.4c0.4,7.1,1.2,14.1,1.6,21.2c0.3,4.5,0.9,8.7-2.2,13.1c-3,4.3-3.8,10-5.7,15.5
		c4.5-2.1,9.1-4,13.6-6.4c3.3-1.7,5.6-0.8,7.8,1.7c5.6,6.5,8.3,13.6,4.6,22.3c-3.7-4.6-7.5-9.3-11.3-14.1c-3.5,1.8-6.8,3.4-10.1,5.1
		c0.6-0.5,1.2-0.9,1.8-1.4c5.9,6.9,11.6,13.9,17.7,20.6c2.1,2.4,3.7,4.5,3.2,7.8c-1.7,11.2,3.1,20.7,6.9,30.7
		c1.8,4.8,2.2,10.7,1.6,15.9c-0.9,7.8-8.6,12.9-16.9,13.9c0.9,1.8,1.3,4.1,2.6,5c6.2,4.3,6.9,10.8,7.8,17.3
		c0.8,5.9,1.5,11.7,6.9,15.7c0.8,0.6,1.1,2.3,1.1,3.5c-0.3,14.4-1.3,14.5-14.8,19.8c-2.8,1.1-5.9,1.6-8.4,2.2
		c4,2.9,7.8,6.3,12.1,8.8c7.7,4.5,11.5,11.4,10.9,19.9c-0.5,6.8,2.4,12.5,4.4,18.5c1.8,5.6,2.8,11.2,0.7,16.8
		c-1.6,4.2-0.2,7.3,1.9,11c2.4,4.2,3.5,9.2,5.2,13.9c1,2.7,2.5,5.3,3.3,8c0.8,2.8,1.1,5.7,1.7,8.5c0.3,1.7,0.1,4.2,1.2,5
		c10.4,8.5,14.3,20.1,16.6,32.7c0.9,5.1,2.6,10.1,4.9,14.8c6.5,13.5,8.2,27.9,8.2,42.5c0,8.8-4.9,15.9-12.5,20.3
		c-6.7,3.8-14,6.7-21,10.2c-2,1-3.6,2.8-5.3,4.4c-4.3,4.2-8.8,8.4-12.8,12.9c-1.9,2.1-3.5,4.9-4,7.6c-0.3,1.4,1.8,4.3,3.4,4.8
		c4.8,1.5,9.8,2.1,14.8,3.2c9.3,2.1,11.7,10,4.9,16.9c-4,4-8.8,7.3-12.9,10.6c0.7,2.4,1.4,4.7,2,7c-0.6,0.2-1.1,0.3-1.7,0.5
		c-1.4-2-2.7-3.9-3.8-5.5c-5.5,1.2-10.7,2.3-15.8,3.4c-0.8,0.2-1.7,0.1-2.5,0c-2.3-0.3-5.6-1.9-6.8-0.9c-2.2,1.8-3.6,5-4.8,7.8
		c-3.6,9-8.5,11.4-17,7c-6.5-3.3-12.8-7.2-18.9-11.3c-4.4-3-8.1-1.1-11.9,0.7c-2.2,1.1-4.2,2.5-6.1,4c-4,3.3-8.5,4-13.4,3.6
		c-3.6-0.3-6.1,0.8-7.4,4.8c-1.8,5.3-4.7,9.6-9.6,13.5c-5.9,4.7-11.3,8.7-18.8,10.3c-3.5,0.8-6.2,5.2-9.8,6.1
		c-7.4,1.8-15.2,2-22.8,3.3c-6.2,1-12.4,2.6-18.5,4.1c-0.8,0.2-1.6,1.1-2,1.9c-3.6,7-6.9,14.2-11,21c-1.1,1.9-4.2,2.9-6.5,4
		c-11.2,5-20.9,2.5-29.2-6.1c-2-2-3.8-4.3-6.1-5.9c-1.8-1.3-4.2-1.6-6.4-2.4c-0.3,0.7-0.6,1.5-1,2.2c3.4,2.4,6.7,4.8,10.1,7.2
		c5.2,3.5,11.6,6,13.7,12.6c1.4,4.6,1.6,9.5,2.4,14.6c-3.4,0-6.4,0-10.1,0c0-1.5-0.2-3.1,0-4.7c0.7-6-2.5-9.5-7.3-12.3
		c-7.1-4-14.4-7.9-19-15.1c-2-3-4.5-3.9-8-2.2c-8,4-16,1.7-24-0.1c-12.5-2.9-24.8-6.5-37.7-8.3c-12.2-1.6-24.6-3.5-36-9.7
		c-10.6-5.7-22.3-7.4-34.4-1.5c-8.5,4.1-17.7,1.5-26.3-1.8c-3.6-1.4-6.9-3.8-10.5-5.1c-2-0.7-4.9-1-6.7-0.1
		c-7.8,4.1-15.1,8.5-19.7,16.9c-2.4,4.3-7.8,7.1-12,10.4c-3.3,2.6-7.1,4.7-10.2,7.5c-7.7,7-15.2,14.4-22.7,21.6
		c-3.3,3.2-6.7,6.2-9.6,9.7c-3.8,4.6-8.2,2.9-11.1,0.3c-4.5-4.1-8.4-9.1-11.4-14.3c-4.2-7.4-11.2-10.3-18.4-12.4
		c-4.9-1.5-10.5-0.6-15.7-1.3c-5.5-0.7-9.3,1.8-13.1,5.3c-8.9,8.2-16.3,17.6-23.6,27.2c-3,4-7.9,6.4-11.5,10
		c-5.1,5.2-9.4,11-14.5,16.2c-1.5,1.5-4.6,1.6-7,2.2c-2.5,0.6-5.7,0.2-7.4,1.7c-9.9,8.6-15.7,8.7-25-0.3c-0.2,3.4-0.3,6.4-0.6,10.5
		c-4.7-3.5-1.3-8.3-2.6-10.3c-6.4-0.5-12.1-1.1-17.8-1.2c-4.1-0.1-8.2,0.7-12.3,0.9c-1.8,0.1-3.8,0-5.3-0.8
		c-11-5.7-14.5-14.1-11.5-27c0.5-2.2,0.6-4.5,0.9-7.7c-9.2,0.5-17.8,0.5-26.3,1.4c-11,1.2-20-1.6-27.7-10
		c-7.7-8.3-13.7-18.7-25.4-22.6c-4-1.3-8.1-2.1-12.1-3.5c-1.9-0.6-4.4-1.6-5.1-3.1c-4-8.6-12.7-10.6-19.8-14.7
		c-6.9-4-14.5-5.7-22.7-5.3c-1.8,0.1-5.2-2.3-5.4-3.9c-1.3-8.7-8.4-8.5-14.2-9.8c-7-1.5-14.1-2.4-21.2-3.4c-2.4-0.4-4.9-0.5-7.4-0.6
		c-5.5-0.2-10.9,0-16.4-2.4c-3.8-1.6-9.2-2.3-13.6,1.6c-1.7,1.5-4.9,1.4-7.5,1.7c-3.6,0.4-7.3,0.8-10.8,0.5
		c-6.1-0.5-8.9-4.9-10.2-8.4c-7.6-2.8-14-5.6-20.6-7.6c-9.3-2.8-18.7-5.8-28.3-7.2c-6.1-0.9-12.7,0.8-19,1.8
		c-7.2,1.1-15.4,1-21.4,4.4c-9.3,5.3-19.5,2.6-29,6c-4.8,1.7-11.1,0.3-16.1,3.5c-4.8,3.1-9.3,6.5-14.1,9.5
		c-8.6,5.3-18.2,7.5-27.9,9.5c-1.6,0.3-3.7,1-4.6,2.3c-9.3,12.7-21.8,11.9-35.2,9.5c-7.9-1.4-16-1.8-23.8,1.5
		c-9.2,3.9-25.1-1.6-30-10.7c-3.4-6.2-5.6-13.1-8.3-19.6c-0.4-1-0.8-2.2-1.6-2.9c-16.8-14.7-23.7-34.4-28.5-55.2
		c-1-4.5-2.5-9.5-5.3-13c-4.8-6.2-3.4-12.8-3.5-19.5c-0.1-6,0-12.1-0.2-18.1c-0.2-8.8-0.6-17.5-0.8-26.3c0-1.1,0.5-2.3,1.1-3.2
		c7-9.5,13.9-19,21.1-28.3c5.2-6.7,6.9-13.9,5.5-21.2c-7.2,2.4-14.3,5-21.6,7.2c-2.3,0.7-5.1-0.1-7.3,0.9c-1.7,0.7-3.8,3.1-3.7,4.7
		c0.3,7.9-1.8,15.1-3.9,22.6c-2.1,7.3-6.1,11.3-12.1,14.8c-1.9,1.1-3.4,3.8-4,6.1c-1.4,5.1-11,11.6-16.2,10.8
		c-14.6-2.2-28.7-1.5-42.1,5.8c-3.5,1.9-7.6,2.9-11.6,3.4c-8.7,1-15.3,6-22.4,10.3c-7.6,4.6-15.3,9.3-23,14
		c12,9.5,11.1,22.2,10.1,35.5c-3.9-0.7-7.3-1.3-9.9-1.8c-1.2-6.7-2-12.8-3.3-18.8c-1.2-5.5-6.4-5.9-10.4-6.2
		c-7.6-0.7-12.2-5.3-17-10.2c-1.3-1.3-3.2-2.5-4.9-2.8c-3.7-0.7-7.5-0.8-11.3-1.1c-1.7-0.1-3.5-0.4-5,0.1
		c-13.9,4.8-28.6,4.6-42.9,6.9c-10,1.6-19.9,4-30,4.6c-6.1,0.3-12.5-1.7-18.6-3.4c-22.9-6.3-45.7-12.8-68.6-19.3
		c-0.6-0.2-1.2-0.5-1.8-0.9c-10.2-6.4-22-4.7-32.9-5.6c-13-1-26.3,1.6-39.1,5.7c-2.9,0.9-6.2,0.3-9.3,0.8c-1.4,0.2-3.7,1.3-3.8,2.2
		c-0.9,8.8-7.8,11.9-14.4,14.6c-5.6,2.3-10.7,4.4-14.1,9.8c-1.1,1.8-3.3,3.3-5.4,4.2c-8.5,3.6-17.2,6.9-25.8,10.4
		c-2.2,0.9-4.2,2.5-6.2,3.9c-8.3,5.5-14.9,5.3-23.1,0c-6-3.9-12.3-7.1-19.9-7.4c-4.2-0.1-8.2-2.8-12.8-4.4
		c-4.6,5.9-9.6,12.2-14.6,18.6c-0.6-0.6-1.6-1.7-2.6-2.8c-5.7-6.4-5.6-7.6,0.3-14.2c2.6-2.9,5.4-5.8,7.3-9.2
		c4.4-7.6,3.5-15.1-1.2-22.6c-2.8-4.5-5-9.6-6.7-14.7c-0.7-2.1,0.2-4.9,1-7.2c4.1-12.9,4.2-12.9,17.6-13.2c4.5-0.1,9.1-0.5,13.5,0.1
		c4.9,0.6,8.1-1.7,10.4-5.2c5.2-7.7,12-11.3,21.2-13.3c9.5-2.1,18.3-7.5,27.3-11.8c1.2-0.6,1.7-3.3,2-5.1
		c2.5-13.9,0.8-27.7-3.3-40.9c-3.5-11.4-0.7-21.8,1.8-32.4c0.4-1.8,3.6-3.9,5.8-4.2c22.4-3.6,45-6.4,67.3-10.4
		c11-2,21.5-6.6,32.4-9.1c8.2-1.9,16.8-2.4,25.2-3.7c9.5-1.4,19.1-2.8,28.6-4.4c9.3-1.6,18.7-3.1,27.7-5.7
		c7.4-2.1,14.8-5.1,21.6-8.9c3.1-1.7,4.6-6.1,7.2-9.8c-6-3.3-11.3-7.7-17.3-9.3c-12-3.1-24.3-4.6-36.5-6.8
		c-14.6-2.6-29.8-1.8-43.7-8c-10.9-4.8-21.6-10-32.3-15.2c-13.9-6.7-27.9-13.1-43.3-15.9c-18.8-3.4-37.4-7.5-56-11.3
		c-3-0.6-6.1-1.2-9.2-1.5c-5.8-0.6-14.4-9.9-13.8-15.6c0.2-1.6,2.3-3.7,3.9-4.3c6.1-2.1,12.5-3.5,18.7-5.6
		c15.7-5.2,31.4-10.7,47.1-15.9c2.9-1,6.1-1.5,9.1-1.6c10.3-0.2,20.7-0.2,31,0c5.4,0.1,10.8,0.9,16.2,0.9c12.3,0,24.8,0.5,36.6-4
		c9.1-3.5,18-7.7,26.6-12.3c3.1-1.7,5.4-5.3,7.7-8.3c5.6-7.4,10.8-15.2,16.7-22.4C1231,925,1235.2,921.9,1240.4,917z M1471.6,616.8
		c4.4-0.2,9.2-0.3,13.9-0.8c3.9-0.5,7.6-1.8,11.5-2.3c11.1-1.6,14.6-3.4,16.9,8.1c0.3,1.3,0.2,2.6,0.2,4c-0.2,6.8,3,11.2,8.9,14.5
		c10.2,5.8,20.1,12,24.7,23.9c4.4,11.3,11,10.7,19.2,7.2c7.8-3.4,14.5-3.2,22.2-0.8c5.2,1.7,10.7,2.5,14.4-4c2.2-4,5.4-7.6,10.4-8.2
		c8.7-1,15.3-5.4,21.1-11.5c0.9-0.9,2.1-2.6,3-2.4c7.3,1.3,14.6-4,22.1,3.6c13.5,13.7,29.1,25.2,43.3,38.1
		c7.9,7.2,17.7,10.2,27.2,13.9c6.8,2.6,14.1,3.7,21.2,5.5c4,1,6,3.7,7.5,7.6c2.8,7,6,14,9.9,20.5c6.6,11,14.4,21.4,20.7,32.6
		c4.6,8.2,7.7,17.2,11.6,25.8c1.4,3.1,2.3,6.6,4.4,9.2c4.7,6,10,11.4,14.9,17.2c2.4,2.9,4.2,6.4,6.5,9.5c1,1.4,2.3,2.9,3.8,3.5
		c10.2,4.4,20.4,8.5,30.7,12.7c15.4,6.3,30.7,12.7,46.1,18.8c2.5,1,3.7,2.3,3.4,5c-0.5,3.4-0.8,6.9-1,10.3
		c-0.7,14-1.2,28.1-2.1,42.1c-0.3,5-1.4,10-2.6,14.9c-1.4,5.8-2.9,11.7-5.2,17.2c-2,4.7-4.3,9.9-8,13.1c-3.6,3.1-7.2,5.2-7.5,10.6
		c-0.1,1.7-2.8,3.2-4.3,4.8c-1.2-1.1-2.3-2.2-3.5-3.3c-0.6-0.6-1.1-1.3-1.8-1.6c-6.5-3.3-13.1-6.3-19.4-9.9c-3.7-2-7.3-4.5-10.3-7.4
		c-5.1-4.9-6-4.6-11.8-0.3c-4.7,3.5-7.2,10.1-14.1,10.7c-0.6,0.1-1.2,1.1-1.5,1.8c-1.7,4.5-3.5,9.1-5,13.7c-0.9,2.8-0.7,6.2-2.3,8.4
		c-3.5,4.8-5,9.9-5,16.4c15.5-0.8,30.9-1.8,46.2-2.5c15.5-0.8,31.1-1.3,46.6-2c13.9-0.6,27.7-1.3,41.6-2c13.2-0.6,26.4-2,39.6-1.8
		c16.3,0.3,32.3-2.7,48.4-4.2c15.1-1.4,30.1-2.7,45.2-4c10.2-0.8,20.4-1.3,30.6-2.1c1.3-0.1,2.5-0.9,2.8-1c-0.3-5-1-9.3-0.7-13.5
		c0.8-10.5,5.7-14.8,16.2-14.9c16.8-0.2,33.6-0.4,50.4-0.7c3.9-0.1,6.7,1.7,9.7,3.9c3.1,2.2,6.6,4.1,10.2,5.2
		c5.9,1.8,12.1,2.4,18.1,4.2c6.6,2,11.7-0.2,16.9-3.9c3.5-2.5,7.6-5.6,11.6-5.9c8.5-0.6,16.7-1.7,24.8-4.1c6-1.8,9.4,0,10.6,3.6
		c9.1,0.5,17,3.6,24.9,7.1c6.6,2.9,13,7.2,20.6,5c5.4-1.6,10.9-3.3,15.6-6.2c5.7-3.7,9.2-9.7,11.5-16.2c1.3-3.7,3-7.2,4.7-10.7
		c0.5-1,1.6-2.3,2.6-2.6c5.4-1.2,10.8-2.3,16.3-3.1c4.6-0.7,9.2-0.6,13.8-1.3c13.4-2,26.7-5.3,40.5-2.9c2.3,0.4,5.3-0.5,7.4-1.8
		c6.3-3.7,12.3-7.8,18.4-12c3.6-2.5,7.8-4.6,10.4-7.9c5-6.3,8.8-13.6,18.9-15.4c-3.7-3.4-6.5-6.4-9.6-8.9
		c-6.3-5-10.1-11.5-11.2-19.3c-1-6.6,0.5-8.2,6.7-10.7c6.2-2.4,12.8-4.2,18.2-7.8c8.4-5.7,15.6-12.7,24.6-17.8
		c13.1-7.4,26.8-12.7,41.3-16.4c10.5-2.7,22.7,0.3,30.4-8.7c5.1,2.9,9.3,7.2,13.7,7.4c19.4,1.1,38.8,1.2,58.3,1.3
		c39.2,0.2,78.3,0,117.5,0.1c4.5,0,7.6-0.8,9-5.2c-3.8-8.4-7.8-16.6-11.3-25c-2.2-5.3-4.7-10.6-2.8-17c1.2-4,0.6-8.7,0.1-12.9
		c-0.7-5.7-2.4-10.9-9.3-12.3c-1.9-0.4-3.7-1.5-5.2-2.7c-1.1-1-2.3-2.8-2.2-4.2c0-1.4,1.4-3,2.5-4c1.1-1,2.8-1.3,3.3-1.6
		c-0.4-4.3-1.5-7.9-0.8-11.2c1.5-7.8,3.7-15.5,5.9-23.1c1.3-4.4,3.3-8.7,8.4-10c7.2-1.8,9.9-8.3,13.1-13.6c2.2-3.7,4.1-5.6,8.2-5.2
		c4.3,0.4,8.4,0,11.9-3.2c3.6-3.3,8-5.6,11.1-9.3c2.2-2.7,3.9-3.5,7.2-3.1c4,0.4,8.1,3,12.2-0.1c12.7-9.5,25.5-18.9,38.3-28.2
		c2.1-1.5,4.2-3.5,6.5-3.9c9.2-1.6,17.1,1,23.7,7.9c1.8,1.9,4.5,3.2,7.1,3.9c6.3,1.6,12.8,2.4,19,4.2c4.3,1.2,7.2,0.6,10.5-2.7
		c3-3.1,6.8-6.4,10.8-7.1c10-1.8,20.2-2.2,30.3-3.3c1.7-0.2,3.6-0.7,4.8-1.8c10.7-9.9,22.7-17.4,36.5-22.2c6.2-2.2,12.3-5,17.9-7.3
		c0.1-9.5-3.9-16.8-9.8-22.9c-3.4-3.6-4.1-7.6-3.9-12.2c0.5-10.9,0-22,1.3-32.8c0.7-5.8-0.6-10.6-2.4-15.6
		c-1.4-3.9-2.5-8.5-5.3-11.1c-5-4.6-11.2-7.8-16.8-11.8c-8.2-5.9-9.7-4.4-4.4-15.3c0.1-0.2,0.1-0.5,0.2-0.8
		c-0.4,0.1-0.9,0.3-1.3,0.4c-1.4-5.1-3.4-10-4.1-15.2c-0.5-3.8,1-7.9,0.7-11.8c-0.7-9.6-1.2-19.4-3.2-28.8
		c-2.7-13.2-11.2-21.7-24.4-25c-7.7-1.9-15.8-2.2-22.7-6.7c-1.1-0.7-3.2-0.4-4.6,0.1c-12.6,4-25.2,7.8-37.5,12.3
		c-3.1,1.1-6.4,3.9-7.9,6.8c-4,7.9-7.4,16.2-10.4,24.6c-3.4,9.5-13.3,12.1-20.7,5.2c-7-6.6-11.4-14.6-14.5-23.6
		c-2.5-7.2-5.5-14.3-2.1-22.2c0.6-1.4,0.6-3.5,0-4.9c-2.1-4.7,0.4-8.1,3.4-10.9c3.7-3.5,7.8-6.5,11.9-9.4c2.6-1.9,4.1-3.9,3.9-7.4
		c-0.3-4.1-0.4-8.4,0.4-12.4c0.9-4.7-0.8-8.4-4.3-10.4c-10.8-6.4-23.1-9.7-35.1-6.3c-8.2,2.4-15.1,1.9-22.8-0.3
		c-7.6-2.1-15.7,2.7-18.4,10.1c-0.8,2.3-2.2,4.3-3.3,6.5c-2.5,4.7-8.8,7.3-8.2,14c0.1,0.9-1.7,2.2-2.9,2.9c-1.8,1-3.9,1.6-5.9,2.3
		c-12,4.3-23.4,10.5-36.8,9c-4.1-0.5-8.2-1-12.3-0.9c-7.4,0.1-14.9,0.8-22.3,0.9c-7.5,0.1-10.2-2.6-10.2-9.9c0-3.2,0.1-6.3,0-9.5
		c-0.1-2.4,0-5.1-0.9-7.2c-4.7-10.3-22.1-19.7-34-13.1c-8.8,4.9-13.7,3.9-18.7-1.7c-5.2-5.7-10.3-11.5-14.8-17.8
		c-4.4-6-9.7-10-16.9-11.5c-2.1-0.4-4.3-0.4-6.2-1.2c-7.1-3.2-14.4-6.3-21-10.3c-7-4.3-13.3-6.6-20.7-1.1c-1.8,1.3-4.2,1.8-6.3,2.6
		c-0.9,0.3-1.9,0.9-2.8,0.7c-6.6-1.5-13.3-2.8-19.7-5c-4.2-1.4-9.5-3.3-11.5-6.7c-4.6-7.5-5.9-16.3-3.3-25c0.7-2.3,2.4-4.6,4.3-6
		c3.8-3,7.9-5.7,12.3-7.8c3.2-1.6,3.1-3.4,2.4-6.3c-1.9-7.7-11-15.5-17.8-14.9c-5.6,0.5-10.4,2.5-14,7.1c-5.9,7.6-8.6,6.1-17.2,0.4
		c-11.5-7.5-22.5-15.6-34.1-22.9c-6.3-4-11.4-1-12,6.4c-0.5,6.7-0.8,13.5-1,20.3c-0.2,5.8,0.3,11.7-0.2,17.5
		c-0.2,2.4-1.9,5.2-3.7,6.9c-2.2,2-5.5,2.8-8,4.7c-3.9,2.9-9,5.6-10.8,9.7c-3.7,8.2-6.5,17.1-8.1,26c-1.5,8.7-4.1,16.5-11.9,20.8
		c-7.6,4.1-15.9,7.1-24.1,10c-3.6,1.3-5.4-2.1-6.1-5c-1-4.8-1.4-9.7-2.2-14.5c-0.8-5.3-1.1-11.1-6.5-14.2c-2.8-1.6-6.1-2.8-9.3-3.5
		c-7.5-1.5-15.1-3.1-22.7,0.4c-2.4,1.1-5.5,2.1-8,1.6c-6.4-1.5-12.9-3.3-19-5.9c-5.5-2.3-10-2.7-15.2,1.1c-4.8,3.5-10.4,6-16,8.1
		c-11.6,4.4-15.7,12.4-11.5,23.8c4.9,13.2-4,30.3-17.9,33.1c-11.6,2.4-23.5,3.7-35.3,5.1c-8.4,1-12.7,6.8-11.9,15
		c0.7,7.5,5.6,11.6,10.5,15.5c5.3,4.3,8,9.6,10,15.8c3.4,10.6,7.9,20.8,16.2,28.7c8.4,8,12.6,8.6,22.4,2.9c6.9-4,15.2-2.2,18.8,4.6
		c1.6,2.9,1.5,6.6,2.6,9.8c2.7,7.9-0.4,14.4-5.7,19.6c-6.9,6.8-11.6,14.1-10.4,24.1c0.6,4.7-2.8,7.1-5.9,8.8
		c-4.1,2.2-14.3-2.9-18.2-8.4c-2.2-3-0.9-10.4,2.4-14.1c4.9-5.5,6.1-12.6,2.3-18.9c-4.1-7-11.4-9.9-18.7-12.3
		c-3.1-1-7.5-2.2-9.7-0.7c-6.3,4.2-12.9,2.2-19.3,2.6c-7.6,0.5-12.8-4.5-16.7-9.9c-3-4.2-4.5-9.5-6.4-14.5c-1.3-3.4-8.1-7.8-10.9-5
		c-2.4,2.4-5.3,4.4-7.8,6.9c-3.5,3.5-6.4,7.7-10.2,10.8c-2.2,1.8-6.4,3.5-8.4,2.5c-4.6-2.2-8.9-5.6-12.4-9.4
		c-9.4-10.4-12.1-23.9-15.1-37.1c-1-4.7-0.2-9.8-0.2-14.6c-0.5-0.1-1.1-0.3-1.6-0.4c-0.8,2.1-1.7,4.2-2.4,6.3
		c-1.6,5.1-2.9,10.3-4.5,15.4c-1.1,3.6-3.9,4.6-7.4,4.1c-2.8-0.4-5.6-0.3-8.3-1.1c-5.2-1.5-11.2-2.1-14.6-7.2
		c-3.5-5.3-6.6-10.9-10.1-16.2c-5-7.4-7.5-15.8-9.2-24.4c-1.9-10.1-4-20.1-5.9-30.2c-1.1-5.7-5-8.5-10-10c-19.8-5.9-37-16.6-54-28.1
		c-6.3-4.3-13.1-8.5-21.4-9.1c-9.6-0.7-19.1-2.5-28.7-3.9c-3.6-0.5-6.5-1.7-7-6.1c-0.7-6.3-2-12.5-2.9-18.8c-0.4-3-1.7-4.4-4.8-4
		c-2.9,0.4-5.9,0.6-8.8,1c-6.8,1.1-13.9,1.2-20.2,3.6c-11.7,4.4-22.9,10.2-34.2,15.4c-1.4,0.7-2.8,1.6-4.2,2.4
		c2.8,11.5,5.4,22.6,8.2,33.6c1.9,7.2,3.5,14.6,6.3,21.5c2.9,7.1,7.4,13.4,10.5,20.4c4.5,10.1,9.2,20,8.5,31.9
		c-0.3,5.7,2.4,12.1,5.4,17.2c6.2,10.5,13.5,20.4,20.3,30.6c1.9,2.8,2.5,5.5-0.3,8.2c-11.9,11.6-22.3,25.1-38.9,30.8
		c-0.8,0.3-1.4,0.8-2.1,1.2c-8.9,5-17.2,11-27.9,12.5c-5.1,0.7-9.6,3.3-13.4,7.5c-3.5,3.9-8.1,6.9-12.3,10.2
		c-3.8,3-8.1,5.6-11.5,9.1c-3.5,3.6-7.1,5.8-12.2,5c-5-0.8-9.6-0.8-11.7,5.2c-0.4,1.2-2.5,2-3.9,2.7c-9.7,4.7-19,3.9-27.8-2.4
		c-2.3-1.6-4.7-3.1-7.2-4.1c-1.4-0.5-3.4-0.5-4.7,0.1c-10.2,5.1-18.9,12.3-27.3,20c-3.9,3.6-7.7,8.2-14.5,5.6
		c-2.4-1-5.4-0.6-8.1-0.9c0.7,3.2,1.7,6,1.8,8.8c0.5,14.6,0.6,29.2,1.2,43.8c0.2,4.4-1.5,6.4-5.3,8.3c-6.3,3.3-11.5,3-17.5-1.2
		c-10.7-7.6-21.9-14.4-32.2-21.1c-2.6,2.2-4.5,5.2-7.1,6c-15,4.8-30.8,3.9-46.3,5.2c-0.9,0.1-2-0.2-2.9-0.6
		c-12.7-5-25.5-9.9-38.1-15.1c-5-2.1-10.7-4.1-14.4-7.8c-6.1-6.1-12.9-8.4-21.2-8.5c-9.7-0.1-19.5-0.7-29.2-0.9
		c-8.6-0.2-17.2,0-27.4,0c2.4,3.3,3.5,5.8,5.5,7.4c8.3,6.6,17,12.8,25.3,19.5c2.4,2,4,5.1,5.7,7.9c1.4,2.3,1.6,5.7,3.5,7
		c6.7,4.6,6.3,4.6,5.2,12.8C1467.9,606.5,1468,611.6,1471.6,616.8z M1881.2,976.7c0.1-7.3,4.6-11.4,10.3-14.7
		c0.7-0.4,1.3-1.2,1.5-1.9c3.7-10.9,8.6-21.5,10.7-32.7c2.2-11.6,1.6-23.7,2.4-35.5c0.5-6.9,1.5-13.7,1.8-20.6
		c0.1-1.8-1.2-4.7-2.6-5.4c-10.1-4.5-20.4-8.6-30.6-12.8c-15.5-6.4-31.1-12.6-46.5-19.1c-1.6-0.7-3.6-2.7-3.8-4.4
		c-0.6-4.5-3.5-7.2-6.3-10.2c-5.2-5.6-11.2-10.9-15-17.3c-5.4-9-8.9-19.2-13.8-28.6c-5.3-10.3-9.9-21.2-16.9-30.2
		c-7.2-9.2-13.1-18.5-16.3-29.7c-0.5-1.7-2.1-3.7-3.7-4.3c-4.5-1.8-9.3-2.8-14-4.3c-9.4-3.1-19.4-5.1-28-9.8
		c-7.8-4.2-14-11.3-20.8-17.3c-7.6-6.7-14.9-13.8-22.6-20.4c-4.4-3.9-8.9-9.4-14-10.3c-6-1.1-13.7-1.3-18.8,4.4
		c-4.6,5.1-10.3,8.2-16.8,9.4c-5.2,0.9-8.9,3.3-11.7,7.9c-2.8,4.7-7.2,7-12.8,6.1c-3-0.5-6-1.6-8.9-2.4c-4.6-1.2-8.5-1.2-13.5,1
		c-11.5,5.2-20.8,4.4-25.5-7.3c-3.8-9.4-10.4-15.4-18.9-20.2c-8.1-4.6-15.3-9.6-15.8-21c-0.5-9.1-3-10-9.8-8.9
		c-9.6,1.6-19.3,3.3-28.9,4.8c-1,0.2-3-0.8-3.1-1.5c-1.3-5-2.4-10-3.2-15.1c-0.4-3.1,0.1-6.3-0.2-9.5c-0.1-1.2-1.2-2.3-2.1-3.3
		c-1.5-1.8-3.5-3.4-4.7-5.4c-1.9-3.3-2.6-7.6-5.2-10.2c-4-4-9.4-6.5-13.7-10.3c-6.1-5.5-14.8-8.3-17.7-17.1
		c-0.2-0.7-3.1-0.8-4.7-0.8c-4.8,0.1-9.9,1.4-14.5,0.4c-21.5-5.1-42.9-11-64.3-16.3c-4.8-1.2-10.2-3-14.8-2.1
		c-12.7,2.5-25.4,5.8-37.8,9.6c-7.9,2.4-17.1,2.5-22.6,10.4c-1.4,2-2.9,4.1-4.7,5.7c-4.1,3.5-8.4,6.8-13.1,10.5
		c3.3,3.6,6.7,7.9,10.8,11.5c8.6,7.5,17.5,14.5,29.2,16.9c6.6,1.4,12.9,4.5,19.4,6.6c6.2,1.9,12.4,3.9,18.8,5.1
		c10.1,1.9,20.3,2.6,28,10.9c3.3,3.6,3.4,7.1-0.5,10.3c-6.2,5.1-12.1,10.7-18.4,15.8c-5.6,4.5-11.2,9.2-17.2,13
		c-7.5,4.7-15.4,8.6-23.2,12.6c-20.6,10.7-41.2,21.2-61.7,31.9c-1.1,0.6-2.7,1.3-3.1,2.3c-3.1,8.4-5.6,22.4,2.3,30.5
		c1.7,1.8,3.2,3.7,4.7,5.7c2.3,3.1,5,6.2,3.5,10.6c-2.9,9.1-5.6,18.3-8.9,27.4c-0.7,2.1-3.1,4.3-5.2,5c-6.4,2.3-13.1,4-19.7,5.6
		c-4.6,1.1-9.3,2.2-13.9,2.3c-4.2,0.1-8.4-1.1-12.6-1.8c-12.7-2.1-25.5-3.9-38.1-6.4c-8.8-1.8-8.7-2.2-12.5,5.8
		c-0.2,0.4-0.4,0.8-0.6,1.4c3.6,3.9,7.1,7.9,10.8,11.7c6.2,6.4,12.7,12.5,18.8,19c3.3,3.6,5.4,8.5,9,11.6
		c11.3,9.8,23.5,18.2,38.4,21.5c4.8,1.1,7.7,3.9,8.3,8.5c1,7.8,6.6,12.6,11.1,18c8.2,9.9,16.5,19.6,24.5,29.6
		c4.2,5.3,2.4,15.8-3.5,18.8c-5.5,2.9-8.3,7.6-11.6,12.3c-10.5,15-21.4,29-39.5,36.3c-12.8,5.2-25.6,8.8-39.4,8.8
		c-20.3,0-40.7,0-61,0c-2.6,0-5.3,0.4-7.7,1.3c-11.1,3.8-22,8-33.1,11.6c-8.4,2.8-16.9,5.1-25.4,7.5c1.6,1.9,3.2,3.1,4.9,3.4
		c6.4,1.3,12.8,2.4,19.2,3.7c12.1,2.4,24.3,4.9,36.4,7.5c8,1.7,16.4,2.3,23.8,5.3c17.2,7.1,33.7,15.8,50.8,23
		c9.7,4.1,19.8,7.5,30.1,9.4c17,3.2,34.4,4.5,51.5,7.5c7.2,1.2,14.8,2.3,20.8,7.6c3.2,2.8,6.6,5.3,10,7.9c4.1,3.1,4.6,5.3,1.9,9.4
		c-2.4,3.5-4.7,7.1-7.3,10.5c-1.1,1.5-2.5,3.2-4.2,3.9c-8.6,3.5-17,7.9-25.9,9.8c-19.9,4.3-40,8-60.3,10.5
		c-14.1,1.7-27.5,5.2-41,8.9c-11.9,3.2-24,6.2-36.1,8.3c-13.7,2.3-27.6,3.4-40.7,4.9c-4.1,10-4.3,19.1-1.3,28.6
		c5,15.5,4.5,31.3,2.3,47.1c-0.3,2.1-1.8,4.7-3.6,5.7c-5.8,3.3-12,6-18.1,8.8c-4,1.8-8,4.4-12.2,4.9c-7.2,0.8-12.8,3.3-17.3,9
		c-2,2.5-4.3,4.7-6.7,6.7c-1.4,1.2-3.4,2.3-5.1,2.5c-7.1,0.6-14.2,0.9-21.3,1.1c-6.5,0.2-9.8,5.4-6.8,11.3c2.4,4.8,5.2,9.5,7.1,14.6
		c1.4,3.6,1.9,7.6,2.1,11.5c0.1,3.7,0.1,6.9,4.6,7.9c4.7,1.1,9.6,2,14,3.8c6.3,2.5,12.3,6,18.6,8.5c2.6,1,6.9,1.7,8.5,0.3
		c6.2-5.2,13.9-6.1,20.8-9.2c5.7-2.6,11.9-5.2,16.3-9.5c5.3-5.1,10.9-9,17.8-11.3c3.5-1.2,6.7-2.7,7.5-7.3
		c1.1-6.6,9.8-12.5,15.1-11.5c3,0.5,6.2,0.6,9.2,0.1c10-1.5,19.9-4,29.9-5c6.7-0.7,13.5,0.6,20.3,0.8c8.1,0.3,16.7-1.6,23.6,4.7
		c0.2,0.2,0.6,0.2,0.9,0.3c23.9,6.8,47.8,13.7,71.8,20.5c5.8,1.6,11.3,3.2,17.8,1.9c12.3-2.5,25-3.5,37.4-5.4
		c10-1.5,19.8-3.6,29.8-5.3c2.1-0.4,4.3-0.6,6.4-0.5c4.6,0.2,9.2,1,13.8,0.8c5.6-0.3,9.5,1.8,12.2,6.6c2.2,4,5.6,6.6,9.7,7.2
		c1.4-1.2,2.4-2.2,3.6-2.9c10-6.2,20-12.3,29.9-18.7c6.6-4.3,13.3-7.9,21.2-9.1c4.7-0.7,9.6-2.2,13.9-4.3
		c12.4-6.1,25.2-7.7,38.7-5.5c6.3,1,8.8-0.5,11-6.1c1.1-2.9,3-6.4,5.6-7.7c5.2-2.7,8.4-5.7,10.4-11.6c2.3-7,4.8-13.7,3.8-21
		c-0.7-5.4,2.1-8.5,6.5-10.3c3.1-1.3,6.6-1.6,9.9-2.4c3.6-0.8,7.3-1.4,10.8-2.7c4-1.5,7.6-3.8,11.5-5.5c3.9-1.7,6.9-1,9.7,2.7
		c5.8,7.8,5.1,16.3,1.2,23.7c-4.7,8.9-11.5,16.6-17.2,24.9c-3,4.4-7.5,9-7.9,13.7c-0.9,9.8-1.9,19.9,1.6,31.4c4.1-4,7.8-7.2,11-10.8
		c3-3.3,5.6-6.3,10.6-3.7c3.1,1.6,6.6,2.5,9.8,4c6.1,2.7,12.4,4.9,18,8.5c4.2,2.7,7.8,2.7,11.6,0.6c2.4-1.3,4.4-3.4,6.6-5.1
		c4.6-3.3,9.1-6.3,15.3-3.9c12.9,5,23.3,13.3,31.6,24.3c0.9,1.2,1.1,3.3,0.7,4.8c-1.5,6.9,1.4,13.1,7.5,15.9c2,0.9,3.9,2.2,5.9,3.3
		c6.3,3.6,12.2,8,20,7.8c3.1-0.1,6.7,2,9.3,1.1c7.5-2.6,14.5-6.7,21.9-9.5c5.7-2.1,11.8-3.7,17.8-4.6c7.8-1.2,15.7-1.4,23.6-2.2
		c0.9-0.1,1.6-1.4,2.6-1.8c4.6-2.4,9.1-6,14.1-6.8c7.2-1.2,14.7-0.5,22-0.2c10.7,0.4,21.4,1.1,32.1,2c11.7,1,23.6,1.5,33.9,8.4
		c1.2,0.8,2.7,1.2,4.1,1.6c17.8,4.8,35.5,9.8,51.6,19c6.1,3.5,11,2.5,16-1.4c4.6-3.5,9.8-5.9,15.6-4.6c9.4,2.2,18.7,5.2,28,8
		c3.4,1,6.7,2.6,9.8,3.9c-0.8-3.8-2.1-7.2-2-10.4c0.2-6.2-0.6-12.2-4.5-16.8c-3.4-4.1-3.4-8.2-3.9-12.8c-0.2-2.5-2-5.1-3.7-7.2
		c-3-3.7-5.1-7.2-4-12.3c1.1-5.1,2.4-10.5,1.6-15.5c-1-6,2.2-5,5.4-4.9c6.3,0.2,12.5,0.5,18.8,1c2.9,0.2,3.9-1.3,4.1-3.7
		c0.2-1.8,0.1-3.7,0-5.5c-0.3-7.8-0.7-15.5-1-23.3c-0.1-3.3,0.3-6.7-0.1-10c-0.7-6-1.7-11.9-3-17.8c-1.8-8.4-3.9-16.7-6.1-25.1
		c-1.8-7-4.1-13.9-5.8-20.9c-1.4-5.8-2.2-11.7-3.2-17.6c-7.6,0.7-14.7,1.3-21.7,2.1c-1,0.1-1.7,1.5-2.8,1.9
		c-4.5,1.7-8.9,3.8-13.5,4.8c-4,0.9-5.6-2.9-6.8-5.9c-1.2-3-0.5-5.4,2.3-8c3.8-3.4,7.6-7.3,9.7-11.8c2.6-5.9,5.9-11.2,11-14.5
		c9-5.9,11.5-14.9,13.9-24.3c0.5-1.9,1.5-3.9,2.7-5.4c3.1-3.8,6.8-7.2,9.8-11.1c4.8-6.2,4-13.6,4.4-20.8c0.3-5.1,0-10.3,0.9-15.3
		c1.8-9.8,4.3-19.5,6.6-29.8c-2.3,0.4-4.4,1-6.7,1.1c-14.4,0.7-28.7,1.3-43.1,2.1c-12.7,0.6-25.4,1.4-38.1,2
		c-16.9,0.7-33.7,1.4-50.6,2c-10.8,0.4-21.5,0.7-32.3,1c-0.5,0-1,0-1.5,0.1c-10.5,0.6-21.1,1.4-31.6,1.8c-1.2,0-3.5-2.3-3.4-3.3
		c0.5-4.5,1.6-8.9,2.8-13.3c1.5-5.1,3.1-10.1,5.1-14.9c2-4.9,3.7-10.3,7.1-14.1c4.7-5.1,11.1-8.7,16.3-13.3
		c5.2-4.6,4.8-4.7,10.4-0.5c5.6,4.1,11.3,8.1,17.2,11.6c5.1,3,10.6,5.3,15.9,8.1C1878.4,973.8,1879.4,975.2,1881.2,976.7z
		 M2015,1265.5c11.8,0.5,22.9,1.1,34,1.5c11.1,0.4,22.2,0.7,33.3,1c10.9,0.3,21.9,0.7,32.8,1c11.3,0.3,22.5,0.8,33.8,1
		c19.4,0.4,38.9,0.3,58.3,1.2c5.8,0.3,12.7,1.6,16.8,5c6.1,5.1,11.6,11.9,14.6,19.1c4.7,11.3,14.8,16.6,22.5,24.5
		c4.3,4.5,7.7,16,4.9,21.8c-2.4,5.1-5.6,9.6-5.3,16c0.3,8.2-1,16.4-1.8,24.6c-0.9,9.1-3.9,17.3-10.6,23.9
		c-5.7,5.6-6.7,12.8-3.6,20.3c1.1,2.6,2.5,3.5,5.4,3.7c7,0.3,14.3,0.2,21,2.1c9.3,2.6,18.5,6.2,23.2,16.2c2,4.3,5.3,8,8,12.2
		c9-8.4,17.6-15.7,25.2-24c5.7-6.2,11.3-12.2,19-16c3.2-1.6,6.9-3.7,8.4-6.5c3.7-7,9.1-11.7,15.3-16.1c11.4-8.2,19.9-9,31.5-1.6
		c7.8,4.9,15.9,4.7,24.5,2.2c5.6-1.7,11.5-3.4,17.2-3.2c5.9,0.2,12.1,1.8,17.4,4.4c10.8,5.3,22.2,9,33.9,10.1
		c15.1,1.4,29.4,5.9,43.9,9.3c6.7,1.5,13.3,2.4,19.9-0.8c4.2-2,8.4-2.4,11,0.5c4.1-1.1,7.3-2.4,10.5-2.6c8.6-0.4,13,6.4,18,11.6
		c4.9,5.1,12.4,7.4,18.2,3.3c5.5-3.9,8.6-9.9,9.9-16.8c0.5-2.6,2-5.9,4.1-7.1c4.6-2.7,9.7-5,14.9-6c8.1-1.7,16.5-2.1,24.8-3.2
		c3.3-0.5,7.8-0.5,9.7-2.5c3.8-4.2,8.6-4.8,13.2-6.5c2.3-0.8,4.3-2.6,6.2-4.1c1.3-1,2.1-3.1,3.4-3.4c4.8-1.3,5.5-5.6,7.4-9.1
		c0.8-1.6,1.6-3.2,2-5c1.1-4.1,4.2-5.6,7.8-5.2c7.9,0.8,14.2-2.2,20.5-6.5c7.6-5.2,15.5-7,23.7,0.3c4.4,3.9,10.2,6.3,15.5,9.3
		c1.2,0.7,2.6,0.7,4.1,1.1c0.6-2.1,1-3.7,1.5-5.2c3-8.4,9.3-13.5,16.2-11.8c13.6,3.2,22.6-3.8,32.1-12.7c-4.7-0.9-8.4-2.2-12.2-2.3
		c-6.8-0.3-12.7-3.4-14.3-9.2c-1.5-5.5-0.9-12.4,4-17.3c3.7-3.6,7.8-7,10.9-11c7.4-9.8,17.5-15.6,28.8-19.3c3.8-1.2,6.2-3.2,8.6-6.5
		c3.6-5,4.1-9.9,2.9-15.7c-2-9.4-1.7-19.1-6.3-28c-3.1-6-5.5-12.7-6.5-19.3c-1.6-10.6-5.3-19.7-13.1-27.3c-2.3-2.3-3.9-5.6-5-8.7
		c-1.6-4.7-2.4-9.7-3.5-14.5c-1.6-6.6-3.4-13-7.5-18.8c-1.7-2.4-2-6.7-1.2-9.7c1.9-7.2,1.1-13.8-1.2-20.7c-1.3-3.8-2.4-7.8-2.5-11.8
		c-0.3-11.3-7.4-20.9-18.5-23.1c-6.2-1.2-6.6-5.8-7.5-10c-0.9-4.4,2.7-6.7,6.3-8.1c4.2-1.6,8.7-2.6,13-4.1c6.6-2.3,7.7-7.1,3-12
		c-0.9-0.9-2.1-1.9-2.4-3.1c-1.2-5.4-2.2-10.9-3.1-16.3c-0.6-3.3-1.6-5.8-4.6-8.1c-5-3.9-6.7-10.2-5-16c0.7-2.5,5.6-4.3,8.9-5.4
		c7.3-2.2,10.3-7.2,7.8-14.5c-1.5-4.5-3.5-8.8-5.3-13.1c-2.1-5.2-4.5-10.3-3-16.4c0.6-2.4,0.9-6.3-0.5-7.6
		c-7.7-7.6-15.6-14.9-24.1-21.6c-7-5.6-8-7.4-3.9-15.7c1.1-2.2,2.7-4.2,3.4-6.5c1.9-6.4,4.4-12.9,5-19.5c0.5-5.8-3.3-11.6-0.8-17.8
		c0.3-0.7-0.3-1.9-0.7-2.8c-1.7-3.8-1-6.9,2.2-9.6c2.4-2,2.2-3.5-0.7-5.3c-2-1.2-3.6-3.4-4.6-5.5c-2.5-5.2-4.5-10.7-6.8-16.2
		c-2,0-4,0-6,0c-57.2,0-114.3,0-171.5-0.1c-2.5,0-5.1-0.9-7.3-2.1c-2.7-1.5-4.9-3.9-6.9-5.5c-4.5,2-8.5,4.9-12.8,5.5
		c-11.9,1.6-23.6,2.9-35.1,7.5c-11.9,4.7-23.7,9.6-33.7,17.4c-10.6,8.3-20.7,16.7-34.3,19.6c-2.7,0.6-4.4,3.5-3.6,6.8
		c1.9,7.8,5.7,14.2,12.6,19c3.7,2.5,6.1,6.8,9.4,10.7c-2.2,1.1-3.3,1.8-4.5,2.2c-4.6,1.4-8.2,3.9-11.3,7.9c-3.8,5-8.2,9.8-13.1,13.8
		c-4.2,3.5-9.6,5.4-14,8.7c-7,5.2-14.1,8.4-23.2,5.7c-3.2-1-7-0.4-10.4,0.1c-8.7,1.1-17.5,2.5-26.2,3.7c-7.6,1.1-15.3,1.8-22.8,3.4
		c-2.2,0.5-4.5,3-5.6,5.1c-4.3,8.9-6.5,19.2-15.9,24.6c-4.7,2.7-9.7,4.8-14.8,6.6c-2.8,1-6.3,1.8-9.1,1.1c-5.5-1.4-10.6-4-15.9-6
		c-7.3-2.8-14.1-7-22.5-5.9c-1.2,0.2-3.2-0.7-3.6-1.7c-1.8-3.7-4.4-3.2-7.6-2.5c-6.2,1.3-12.5,2.7-18.8,3.2
		c-5.5,0.4-10,2.1-14.5,5.1c-5.4,3.7-10.7,8.2-18.2,6c-4.4-1.3-8.9-2-13.3-3.1c-6.4-1.5-13-2.1-18.4-7c-7.4-6.7-16.1-6-24.9-2.9
		c-2,0.7-4.6,1.5-6.2,0.8c-9.2-4.3-18.8-1.7-28.2-1.8c-5.1-0.1-8.5,2.4-10.3,7.4c-2,5.4-2.7,10.6-0.3,16.2c0.9,2.1,1.9,5.9-2.8,6.3
		c-16.6,1.3-33.1,2.8-49.7,4c-11.2,0.8-22.4,1.2-33.6,2.1c-4.1,0.4-9.1,0.1-11.4,4.8c-1.4,2.9-2.3,6.1-3.1,9.2
		c-3.6,14.1-6.1,28.3-5.1,42.9c0.1,2-0.4,4.2-1.1,6.2c-2.1,6.7-7,11.3-11.6,16.2c-2,2.1-3.3,5.1-4.2,7.9
		c-2.3,7.9-4.5,15.6-11.2,21.3c-4.2,3.6-9.2,7.2-11.4,12c-3.2,7-6.3,13.4-12.6,18.1c-1.1,0.8-1.9,4.1-1.2,4.9
		c1.1,1.4,3.6,2.6,5.5,2.4c7.2-0.5,12.1-7.3,19.9-7c6.1,0.3,12.3-1,18.4-1.6c2.3,11.9,4,23,6.6,33.9c1.2,5.1,4.6,9.7,5.7,14.9
		c1.7,7.5,1.5,15.4,3.5,22.7c3.2,11.8,3.7,23.7,3.7,35.7C2015,1251.8,2015,1258.6,2015,1265.5z M1568.6,1273.1
		c-5.3,4.5-8.8,8.4-13.1,10.8c-4.1,2.3-7,4.5-7.3,9.5c-0.4,6.4-2.2,12.5,2.1,18.8c2.9,4.3,4.3,9.8,5.7,15
		c5.2,19.1,10.6,38,27.4,50.9c1.2,0.9,2.3,2.7,2.4,4.1c0.3,5.9,2.9,10.9,5.7,15.9c5,9.1,12.3,12.4,22.3,9.5
		c9.6-2.8,19.3-2.3,28.9-0.7c9.4,1.6,17.9,1.9,24.3-7.1c1.7-2.4,5.5-3.7,8.6-4.8c8.6-3,17.4-5.1,25.9-8.4c3.2-1.3,5.5-4.8,8.5-7
		c11-8.4,25-6.5,37.3-10.6c0.6-0.2,1.4-0.2,2,0.1c4,2.2,7.3,0.2,10.7-1.5c2-1,4.1-2.2,6.2-2.6c10.8-1.8,21.6-3.5,32.4-5
		c3.2-0.5,6.6-1,9.6-0.4c7,1.5,13.8,3.7,20.7,5.7c3.7,1.1,7.5,2.1,11.2,3.2c3.8,1.1,7.6,3.2,11.5,3.3c5.4,0.2,9.6,2.3,12,6.5
		c1.8,3.2,3.7,4.1,6.9,3.7c2.9-0.3,6.3,0.4,8.7-0.9c7.3-3.6,14.5-4,22.2-1.6c3.2,1,6.6,2.4,9.9,2.3c13.6-0.2,26.6,2.9,39.8,5.4
		c5.7,1.1,12.5,2.3,13.3,10.5c0.1,0.9,2.6,1.9,4.2,2.2c3.7,0.7,7.8,0.1,11.1,1.5c9.4,4.1,18.4,9,27.5,13.7c0.9,0.5,1.7,1.5,2.1,2.5
		c1.3,3.3,3.8,4.4,7.1,5.7c13.2,4.9,25.7,10.4,33.6,23.6c4.4,7.4,11.7,12.5,22.1,11.3c10.5-1.2,21.2-0.9,31.8-1.2
		c3.1-0.1,6.3,0.3,6.2,4.5c-0.1,6.6-0.6,13.2-0.9,19.8c-0.2,3.9,0.1,8.6,4.3,9.3c8.4,1.4,17,1.4,25.5,2c0.1,0,0.3-0.2,0.4-0.2
		c7.7-1.1,15.3-2.1,20.9,5.4c0.7,0.9,3.5,0.9,5,0.3c1.8-0.6,3-2.6,4.7-3.4c3.6-1.8,7.5-4.6,11-4.3c4.7,0.4,6-2.1,8.3-4.8
		c4.7-5.6,9.9-10.8,15-16.2c3-3.2,6.3-6.1,9.3-9.4c1.6-1.8,2.5-4.3,4.2-6c8-8.2,16.2-16.2,24.5-24.5c0.3,0.5,0,0.2,0-0.1
		c-0.1-0.5,0-1-0.2-1.5c-3.7-9.8-2.6-18.4,5.4-26c2.6-2.4,4.4-6.1,5.6-9.5c4.1-12,4.2-24.5,4.2-37.1c0-3,1.6-6.1,3-8.9
		c2.7-5.3,5-10.4,2.8-16.7c-2.3-6.5-7.2-10.5-12-14.7c-3.3-2.9-7.3-5.4-9.8-8.9c-4.7-6.4-8.1-13.7-12.8-19.9c-3.1-4.1-6.4-9-12.2-10
		c-6.6-1.1-13.3-1.8-20-2.1c-11.4-0.6-22.9-0.7-34.3-1.1c-10.6-0.3-21.2-0.7-31.8-1c-11.3-0.3-22.5-0.7-33.8-1
		c-10.8-0.3-21.5-0.7-32.3-1c-15.9-0.4-31.9-0.8-47.8-1c-9.5-0.1-19.1,0-28.1,0c-0.6,4.4-0.5,9.6-2,14.3c-1.5,4.9-0.7,8.3,3.1,11.3
		c3,2.3,3.8,5.2,4.1,9c0.3,4,2.1,8,3.7,11.8c1.1,2.7,3.4,5,4,7.7c1.6,7.3-0.6,15.2,4,22.1c0.5,0.8-0.1,2.4-0.2,4
		c-1.2-0.3-2-0.5-2.7-0.7c-12.2-4.3-24.5-8.7-36.8-12.7c-2.2-0.7-5.1-0.8-7.2,0c-5.2,2-10.1,5-15.4,6.9c-2.5,0.9-6,1.3-8.3,0.3
		c-15.3-6.8-30.4-14-46.9-18c-9.6-2.3-18.5-7.3-28-9.9c-8.3-2.2-17-3.1-25.6-3.9c-7.9-0.8-15.9-0.9-23.8-1c-6.1,0-12.4,1.6-18.3,0.6
		c-7.1-1.3-11.9,1.2-16.7,5.7c-1.7,1.6-4,3.2-6.2,3.4c-6.6,0.7-13.2,0.5-19.8,1.2c-4.6,0.5-9.4,1.4-13.8,3
		c-7.7,2.7-15.4,5.5-22.6,9.3c-4.3,2.2-8,3-12.5,1.7c-5.6-1.6-11.4-2.4-16.7-4.5c-4.3-1.7-7.8-5.3-12-7.3
		c-7.7-3.8-11.3-9.5-10.6-18.2c0.2-2.2-0.9-5-2.3-6.8c-6.5-8-14.1-14.3-23.8-18.5c-5-2.1-9.5-2.4-14,0.1c-2.3,1.2-4.1,3.2-6.1,5
		c-5.2,4.9-10.8,4.8-17,1.6C1587.4,1281.2,1576.8,1276.8,1568.6,1273.1z M2232.5,488.3c0.3-2.4,0.5-3.1,0.5-3.9
		c-1.2-10.9,4-19.2,11.4-26c4.9-4.6,5.2-9.8,4.5-15.4c-0.6-5.2-3.4-6.3-8.4-4.2c-4.6,1.9-9.2,3.7-13.9,5.6c9,7.7,10.2,25.3,2.5,34.1
		c-1.1,1.2-2.2,3.5-1.8,4.6C2228.1,484.9,2230.2,486.1,2232.5,488.3z"/>
	<path id="_x32_545" class="st0" d="M1471.6,616.8c-3.5-5.1-3.7-10.2-2.9-16.2c1.1-8.2,1.5-8.2-5.2-12.8c-1.9-1.3-2.1-4.8-3.5-7
		c-1.7-2.8-3.3-6-5.7-7.9c-8.2-6.7-17-12.8-25.3-19.5c-2-1.6-3.1-4.1-5.5-7.4c10.3,0,18.9-0.1,27.4,0c9.7,0.2,19.5,0.8,29.2,0.9
		c8.3,0.1,15.1,2.4,21.2,8.5c3.7,3.7,9.3,5.7,14.4,7.8c12.6,5.3,25.4,10.1,38.1,15.1c0.9,0.4,1.9,0.7,2.9,0.6
		c15.5-1.3,31.2-0.4,46.3-5.2c2.6-0.8,4.6-3.8,7.1-6c10.3,6.7,21.6,13.5,32.2,21.1c6,4.3,11.2,4.6,17.5,1.2c3.7-1.9,5.4-3.9,5.3-8.3
		c-0.6-14.6-0.7-29.2-1.2-43.8c-0.1-2.9-1.1-5.7-1.8-8.8c2.8,0.3,5.7-0.1,8.1,0.9c6.7,2.7,10.6-2,14.5-5.6c8.4-7.6,17-14.9,27.3-20
		c1.3-0.6,3.4-0.7,4.7-0.1c2.6,1,5,2.5,7.2,4.1c8.8,6.3,18.1,7,27.8,2.4c1.4-0.7,3.5-1.5,3.9-2.7c2.1-6.1,6.6-6,11.7-5.2
		c5.1,0.8,8.7-1.4,12.2-5c3.4-3.5,7.7-6,11.5-9.1c4.2-3.3,8.8-6.3,12.3-10.2c3.7-4.2,8.3-6.8,13.4-7.5c10.6-1.4,19-7.4,27.9-12.5
		c0.7-0.4,1.4-0.9,2.1-1.2c16.5-5.7,26.9-19.2,38.9-30.8c2.8-2.7,2.2-5.5,0.3-8.2c-6.8-10.2-14.1-20-20.3-30.6
		c-3-5.1-5.7-11.6-5.4-17.2c0.7-11.9-4-21.8-8.5-31.9c-3.1-7-7.6-13.3-10.5-20.4c-2.8-6.9-4.5-14.2-6.3-21.5
		c-2.8-11-5.4-22.1-8.2-33.6c1.4-0.8,2.8-1.7,4.2-2.4c11.4-5.2,22.6-11,34.2-15.4c6.3-2.4,13.4-2.5,20.2-3.6c2.9-0.5,5.9-0.6,8.8-1
		c3.1-0.4,4.4,1,4.8,4c0.8,6.3,2.1,12.5,2.9,18.8c0.5,4.4,3.4,5.6,7,6.1c9.5,1.4,19.1,3.2,28.7,3.9c8.4,0.6,15.1,4.8,21.4,9.1
		c17,11.5,34.2,22.1,54,28.1c5.1,1.5,9,4.3,10,10c1.9,10.1,4,20.1,5.9,30.2c1.7,8.7,4.2,17,9.2,24.4c3.5,5.3,6.6,10.9,10.1,16.2
		c3.4,5.1,9.3,5.7,14.6,7.2c2.6,0.8,5.5,0.7,8.3,1.1c3.5,0.5,6.3-0.5,7.4-4.1c1.6-5.1,2.9-10.3,4.5-15.4c0.7-2.1,1.6-4.2,2.4-6.3
		c0.5,0.1,1.1,0.3,1.6,0.4c0,4.9-0.9,10,0.2,14.6c3,13.1,5.6,26.6,15.1,37.1c3.4,3.8,7.8,7.2,12.4,9.4c2,1,6.2-0.8,8.4-2.5
		c3.8-3.1,6.7-7.3,10.2-10.8c2.4-2.5,5.3-4.4,7.8-6.9c2.8-2.8,9.7,1.6,10.9,5c1.8,5,3.3,10.3,6.4,14.5c3.9,5.4,9,10.4,16.7,9.9
		c6.4-0.4,13,1.6,19.3-2.6c2.1-1.4,6.6-0.3,9.7,0.7c7.3,2.3,14.6,5.2,18.7,12.3c3.7,6.3,2.6,13.4-2.3,18.9
		c-3.3,3.7-4.5,11.1-2.4,14.1c3.9,5.5,14.1,10.6,18.2,8.4c3.2-1.7,6.5-4.1,5.9-8.8c-1.2-10,3.5-17.3,10.4-24.1
		c5.3-5.2,8.4-11.6,5.7-19.6c-1.1-3.2-1-6.9-2.6-9.8c-3.7-6.8-12-8.6-18.8-4.6c-9.7,5.7-14,5.1-22.4-2.9
		c-8.3-7.9-12.8-18.1-16.2-28.7c-2-6.2-4.7-11.4-10-15.8c-4.8-3.9-9.7-8.1-10.5-15.5c-0.8-8.1,3.5-14,11.9-15
		c11.8-1.4,23.7-2.8,35.3-5.1c13.9-2.8,22.8-19.9,17.9-33.1c-4.2-11.4-0.1-19.4,11.5-23.8c5.6-2.1,11.2-4.6,16-8.1
		c5.2-3.8,9.7-3.4,15.2-1.1c6.1,2.5,12.5,4.4,19,5.9c2.4,0.5,5.5-0.5,8-1.6c7.6-3.4,15.1-1.9,22.7-0.4c3.2,0.7,6.5,1.8,9.3,3.5
		c5.4,3.1,5.7,8.8,6.5,14.2c0.7,4.8,1.1,9.8,2.2,14.5c0.6,2.9,2.4,6.3,6.1,5c8.2-2.9,16.5-5.8,24.1-10c7.8-4.2,10.4-12.1,11.9-20.8
		c1.5-8.9,4.3-17.8,8.1-26c1.8-4,6.9-6.7,10.8-9.7c2.4-1.8,5.8-2.6,8-4.7c1.8-1.7,3.5-4.5,3.7-6.9c0.5-5.8,0-11.7,0.2-17.5
		c0.2-6.8,0.5-13.5,1-20.3c0.6-7.4,5.7-10.4,12-6.4c11.6,7.3,22.6,15.4,34.1,22.9c8.6,5.6,11.2,7.1,17.2-0.4c3.6-4.6,8.4-6.6,14-7.1
		c6.8-0.6,15.8,7.2,17.8,14.9c0.7,2.9,0.8,4.7-2.4,6.3c-4.3,2.2-8.4,4.9-12.3,7.8c-1.9,1.4-3.6,3.8-4.3,6c-2.6,8.7-1.3,17.5,3.3,25
		c2,3.4,7.3,5.2,11.5,6.7c6.4,2.2,13.1,3.5,19.7,5c0.8,0.2,1.9-0.3,2.8-0.7c2.1-0.8,4.5-1.3,6.3-2.6c7.3-5.5,13.7-3.1,20.7,1.1
		c6.6,4.1,13.9,7.1,21,10.3c1.9,0.9,4.1,0.8,6.2,1.2c7.2,1.5,12.6,5.5,16.9,11.5c4.5,6.2,9.7,12,14.8,17.8c5.1,5.6,9.9,6.6,18.7,1.7
		c11.8-6.6,29.3,2.8,34,13.1c1,2.1,0.8,4.8,0.9,7.2c0.1,3.2,0,6.3,0,9.5c0,7.3,2.7,10,10.2,9.9c7.5-0.1,14.9-0.8,22.3-0.9
		c4.1-0.1,8.2,0.5,12.3,0.9c13.4,1.5,24.9-4.7,36.8-9c2-0.7,4-1.3,5.9-2.3c1.2-0.6,3-2,2.9-2.9c-0.6-6.7,5.6-9.3,8.2-14
		c1.1-2.1,2.5-4.2,3.3-6.5c2.7-7.4,10.8-12.2,18.4-10.1c7.7,2.2,14.6,2.6,22.8,0.3c11.9-3.4,24.2-0.1,35.1,6.3
		c3.4,2,5.1,5.7,4.3,10.4c-0.7,4-0.6,8.3-0.4,12.4c0.2,3.5-1.3,5.5-3.9,7.4c-4.1,3-8.3,6-11.9,9.4c-3,2.8-5.4,6.1-3.4,10.9
		c0.6,1.4,0.6,3.5,0,4.9c-3.5,7.8-0.4,14.9,2.1,22.2c3.1,9,7.5,17,14.5,23.6c7.4,7,17.3,4.3,20.7-5.2c3-8.4,6.4-16.7,10.4-24.6
		c1.5-2.9,4.8-5.7,7.9-6.8c12.4-4.5,25-8.3,37.5-12.3c1.4-0.5,3.5-0.8,4.6-0.1c7,4.5,15,4.8,22.7,6.7c13.2,3.3,21.7,11.8,24.4,25
		c1.9,9.4,2.4,19.2,3.2,28.8c0.3,3.9-1.3,8-0.7,11.8c0.7,5.2,2.7,10.1,4.1,15.2c0.4-0.1,0.9-0.3,1.3-0.4c-0.1,0.3-0.1,0.6-0.2,0.8
		c-5.2,10.9-3.8,9.4,4.4,15.3c5.6,4,11.8,7.2,16.8,11.8c2.8,2.6,3.9,7.2,5.3,11.1c1.8,5,3.1,9.8,2.4,15.6
		c-1.3,10.8-0.9,21.8-1.3,32.8c-0.2,4.6,0.5,8.6,3.9,12.2c5.9,6.2,9.8,13.4,9.8,22.9c-5.6,2.3-11.6,5.1-17.9,7.3
		c-13.8,4.8-25.8,12.3-36.5,22.2c-1.2,1.1-3.1,1.6-4.8,1.8c-10.1,1.1-20.3,1.5-30.3,3.3c-3.9,0.7-7.8,4.1-10.8,7.1
		c-3.3,3.3-6.2,3.9-10.5,2.7c-6.2-1.8-12.8-2.5-19-4.2c-2.5-0.7-5.3-2-7.1-3.9c-6.6-6.9-14.5-9.5-23.7-7.9c-2.3,0.4-4.5,2.4-6.5,3.9
		c-12.8,9.4-25.6,18.8-38.3,28.2c-4.1,3.1-8.2,0.5-12.2,0.1c-3.3-0.4-5,0.4-7.2,3.1c-3,3.6-7.5,6-11.1,9.3
		c-3.5,3.2-7.5,3.6-11.9,3.2c-4.2-0.4-6,1.6-8.2,5.2c-3.2,5.3-5.9,11.8-13.1,13.6c-5.1,1.3-7.1,5.6-8.4,10
		c-2.3,7.6-4.4,15.3-5.9,23.1c-0.6,3.3,0.5,7,0.8,11.2c-0.5,0.2-2.2,0.6-3.3,1.6c-1.2,1-2.5,2.6-2.5,4c0,1.4,1.1,3.2,2.2,4.2
		c1.4,1.3,3.3,2.4,5.2,2.7c6.9,1.3,8.6,6.6,9.3,12.3c0.5,4.3,1.1,8.9-0.1,12.9c-1.9,6.4,0.5,11.6,2.8,17c3.5,8.4,7.5,16.6,11.3,25
		c-1.3,4.3-4.5,5.2-9,5.2c-39.2-0.2-78.3,0-117.5-0.1c-19.4-0.1-38.9-0.2-58.3-1.3c-4.4-0.2-8.7-4.6-13.7-7.4
		c-7.7,9-19.8,6-30.4,8.7c-14.5,3.7-28.2,8.9-41.3,16.4c-9,5.1-16.3,12.1-24.6,17.8c-5.4,3.6-12,5.4-18.2,7.8
		c-6.2,2.4-7.7,4-6.7,10.7c1.1,7.8,4.9,14.3,11.2,19.3c3.2,2.5,5.9,5.5,9.6,8.9c-10.1,1.8-13.9,9.1-18.9,15.4
		c-2.6,3.3-6.8,5.5-10.4,7.9c-6,4.1-12.1,8.2-18.4,12c-2.1,1.3-5.1,2.2-7.4,1.8c-13.8-2.4-27.1,0.9-40.5,2.9
		c-4.6,0.7-9.2,0.6-13.8,1.3c-5.5,0.8-10.9,1.9-16.3,3.1c-1,0.2-2.1,1.5-2.6,2.6c-1.7,3.5-3.4,7.1-4.7,10.7
		c-2.3,6.5-5.8,12.5-11.5,16.2c-4.6,3-10.2,4.7-15.6,6.2c-7.7,2.2-14-2.1-20.6-5c-7.9-3.5-15.8-6.6-24.9-7.1
		c-1.2-3.6-4.6-5.4-10.6-3.6c-8.2,2.4-16.4,3.5-24.8,4.1c-4,0.3-8.1,3.4-11.6,5.9c-5.2,3.7-10.3,5.9-16.9,3.9
		c-5.9-1.8-12.1-2.4-18.1-4.2c-3.6-1.1-7.1-3-10.2-5.2c-3-2.2-5.8-4-9.7-3.9c-16.8,0.3-33.6,0.5-50.4,0.7
		c-10.5,0.1-15.4,4.4-16.2,14.9c-0.3,4.2,0.4,8.5,0.7,13.5c-0.3,0.1-1.5,0.9-2.8,1c-10.2,0.8-20.4,1.3-30.6,2.1
		c-15.1,1.2-30.1,2.6-45.2,4c-16.1,1.5-32.1,4.5-48.4,4.2c-13.2-0.2-26.4,1.2-39.6,1.8c-13.9,0.7-27.7,1.4-41.6,2
		c-15.5,0.7-31.1,1.3-46.6,2c-15.4,0.8-30.7,1.7-46.2,2.5c0.1-6.5,1.5-11.6,5-16.4c1.6-2.2,1.4-5.6,2.3-8.4c1.5-4.6,3.3-9.2,5-13.7
		c0.3-0.7,1-1.7,1.5-1.8c6.9-0.6,9.4-7.2,14.1-10.7c5.7-4.3,6.7-4.6,11.8,0.3c3,2.9,6.6,5.3,10.3,7.4c6.3,3.5,13,6.6,19.4,9.9
		c0.7,0.4,1.2,1.1,1.8,1.6c1.2,1.1,2.3,2.2,3.5,3.3c1.5-1.6,4.2-3.1,4.3-4.8c0.4-5.4,3.9-7.5,7.5-10.6c3.7-3.2,6-8.4,8-13.1
		c2.3-5.5,3.7-11.4,5.2-17.2c1.2-4.9,2.3-9.9,2.6-14.9c0.9-14,1.4-28.1,2.1-42.1c0.2-3.4,0.5-6.9,1-10.3c0.4-2.8-0.8-4-3.4-5
		c-15.4-6.2-30.8-12.5-46.1-18.8c-10.2-4.2-20.5-8.3-30.7-12.7c-1.5-0.6-2.8-2.2-3.8-3.5c-2.3-3.1-4-6.6-6.5-9.5
		c-4.8-5.8-10.2-11.2-14.9-17.2c-2.1-2.6-3-6.1-4.4-9.2c-3.8-8.6-6.9-17.6-11.6-25.8c-6.3-11.2-14.1-21.5-20.7-32.6
		c-3.9-6.5-7.1-13.5-9.9-20.5c-1.5-3.9-3.5-6.6-7.5-7.6c-7.1-1.8-14.5-2.9-21.2-5.5c-9.5-3.7-19.3-6.7-27.2-13.9
		c-14.3-12.9-29.8-24.5-43.3-38.1c-7.5-7.6-14.8-2.3-22.1-3.6c-0.8-0.1-2.1,1.5-3,2.4c-5.8,6.1-12.4,10.5-21.1,11.5
		c-5,0.6-8.2,4.2-10.4,8.2c-3.6,6.5-9.1,5.7-14.4,4c-7.6-2.4-14.3-2.6-22.2,0.8c-8.2,3.5-14.8,4.1-19.2-7.2
		c-4.6-11.9-14.5-18.1-24.7-23.9c-5.9-3.3-9.1-7.7-8.9-14.5c0-1.3,0.1-2.7-0.2-4c-2.3-11.4-5.8-9.7-16.9-8.1
		c-3.9,0.6-7.6,1.9-11.5,2.3C1480.7,616.5,1476,616.5,1471.6,616.8z"/>
	<path id="_x32_546" class="st0" d="M1881.2,976.7c-1.7-1.5-2.8-2.9-4.2-3.6c-5.3-2.8-10.8-5.1-15.9-8.1
		c-5.9-3.5-11.6-7.5-17.2-11.6c-5.6-4.1-5.2-4.1-10.4,0.5c-5.3,4.7-11.6,8.2-16.3,13.3c-3.4,3.8-5.1,9.2-7.1,14.1
		c-2,4.9-3.6,9.9-5.1,14.9c-1.3,4.3-2.3,8.8-2.8,13.3c-0.1,1,2.2,3.4,3.4,3.3c10.5-0.4,21.1-1.1,31.6-1.8c0.5,0,1,0,1.5-0.1
		c10.8-0.3,21.5-0.6,32.3-1c16.9-0.6,33.7-1.3,50.6-2c12.7-0.6,25.4-1.3,38.1-2c14.4-0.7,28.7-1.3,43.1-2.1c2.2-0.1,4.4-0.7,6.7-1.1
		c-2.3,10.2-4.8,19.9-6.6,29.8c-0.9,5-0.6,10.2-0.9,15.3c-0.4,7.2,0.4,14.7-4.4,20.8c-3,3.9-6.7,7.3-9.8,11.1
		c-1.3,1.5-2.2,3.5-2.7,5.4c-2.4,9.4-5,18.4-13.9,24.3c-5.1,3.4-8.4,8.7-11,14.5c-2,4.5-5.9,8.5-9.7,11.8c-2.8,2.5-3.5,4.9-2.3,8
		c1.2,3,2.7,6.8,6.8,5.9c4.6-1,9.1-3.1,13.5-4.8c1-0.4,1.8-1.8,2.8-1.9c7-0.8,14-1.4,21.7-2.1c1.1,5.9,1.8,11.8,3.2,17.6
		c1.7,7,4,13.9,5.8,20.9c2.2,8.3,4.3,16.7,6.1,25.1c1.3,5.9,2.2,11.9,3,17.8c0.4,3.3,0,6.7,0.1,10c0.3,7.8,0.7,15.5,1,23.3
		c0.1,1.8,0.1,3.7,0,5.5c-0.2,2.4-1.2,3.9-4.1,3.7c-6.3-0.5-12.5-0.8-18.8-1c-3.2-0.1-6.4-1.1-5.4,4.9c0.8,4.9-0.5,10.4-1.6,15.5
		c-1.1,5.1,1,8.6,4,12.3c1.7,2.1,3.5,4.7,3.7,7.2c0.4,4.6,0.5,8.8,3.9,12.8c3.8,4.6,4.6,10.7,4.5,16.8c-0.1,3.3,1.2,6.6,2,10.4
		c-3.1-1.2-6.3-2.8-9.8-3.9c-9.3-2.8-18.6-5.8-28-8c-5.7-1.4-10.9,1.1-15.6,4.6c-5,3.9-9.9,4.9-16,1.4c-16.1-9.3-33.9-14.2-51.6-19
		c-1.4-0.4-2.9-0.8-4.1-1.6c-10.3-6.9-22.2-7.4-33.9-8.4c-10.7-0.9-21.4-1.6-32.1-2c-7.4-0.3-14.9-0.9-22,0.2
		c-4.9,0.8-9.4,4.4-14.1,6.8c-0.9,0.5-1.7,1.8-2.6,1.8c-7.9,0.8-15.8,1-23.6,2.2c-6,0.9-12.1,2.4-17.8,4.6
		c-7.4,2.8-14.4,6.8-21.9,9.5c-2.6,0.9-6.2-1.1-9.3-1.1c-7.8,0.1-13.7-4.2-20-7.8c-1.9-1.1-3.8-2.4-5.9-3.3c-6.2-2.8-9-9.1-7.5-15.9
		c0.3-1.5,0.1-3.7-0.7-4.8c-8.3-10.9-18.7-19.3-31.6-24.3c-6.2-2.4-10.7,0.6-15.3,3.9c-2.3,1.6-4.2,3.8-6.6,5.1
		c-3.8,2.1-7.4,2.1-11.6-0.6c-5.5-3.5-11.9-5.8-18-8.5c-3.2-1.4-6.7-2.4-9.8-4c-5-2.6-7.7,0.3-10.6,3.7c-3.3,3.7-7,6.9-11,10.8
		c-3.4-11.4-2.4-21.6-1.6-31.4c0.4-4.8,4.9-9.3,7.9-13.7c5.7-8.4,12.5-16.1,17.2-24.9c3.9-7.4,4.6-15.9-1.2-23.7
		c-2.8-3.8-5.8-4.5-9.7-2.7c-3.9,1.7-7.6,4-11.5,5.5c-3.5,1.3-7.2,1.9-10.8,2.7c-3.3,0.8-6.8,1.1-9.9,2.4c-4.4,1.8-7.2,4.9-6.5,10.3
		c0.9,7.4-1.5,14.1-3.8,21c-2,5.9-5.2,9-10.4,11.6c-2.6,1.3-4.5,4.8-5.6,7.7c-2.2,5.6-4.7,7.2-11,6.1c-13.4-2.2-26.3-0.6-38.7,5.5
		c-4.3,2.1-9.1,3.6-13.9,4.3c-8,1.2-14.6,4.9-21.2,9.1c-9.9,6.4-19.9,12.4-29.9,18.7c-1.2,0.7-2.2,1.8-3.6,2.9
		c-4.2-0.6-7.5-3.3-9.7-7.2c-2.7-4.9-6.5-6.9-12.2-6.6c-4.6,0.2-9.2-0.6-13.8-0.8c-2.1-0.1-4.3,0.2-6.4,0.5
		c-9.9,1.7-19.8,3.8-29.8,5.3c-12.5,1.9-25.1,2.9-37.4,5.4c-6.5,1.3-12-0.3-17.8-1.9c-24-6.8-47.9-13.6-71.8-20.5
		c-0.3-0.1-0.7-0.1-0.9-0.3c-6.9-6.3-15.5-4.4-23.6-4.7c-6.8-0.2-13.6-1.5-20.3-0.8c-10,1-19.9,3.4-29.9,5c-3,0.5-6.2,0.4-9.2-0.1
		c-5.3-1-14,5-15.1,11.5c-0.8,4.6-4,6.2-7.5,7.3c-6.9,2.3-12.5,6.2-17.8,11.3c-4.4,4.3-10.6,6.9-16.3,9.5c-6.9,3.1-14.6,4-20.8,9.2
		c-1.6,1.4-5.9,0.7-8.5-0.3c-6.3-2.5-12.3-6-18.6-8.5c-4.5-1.8-9.3-2.7-14-3.8c-4.5-1-4.5-4.2-4.6-7.9c-0.2-3.9-0.7-7.9-2.1-11.5
		c-1.9-5-4.7-9.7-7.1-14.6c-2.9-5.9,0.3-11.1,6.8-11.3c7.1-0.2,14.2-0.5,21.3-1.1c1.8-0.1,3.7-1.3,5.1-2.5c2.4-2,4.8-4.2,6.7-6.7
		c4.5-5.6,10.2-8.1,17.3-9c4.2-0.5,8.2-3,12.2-4.9c6.1-2.8,12.2-5.5,18.1-8.8c1.8-1,3.3-3.6,3.6-5.7c2.3-15.8,2.8-31.7-2.3-47.1
		c-3.1-9.4-2.9-18.6,1.3-28.6c13.1-1.5,27-2.6,40.7-4.9c12.2-2,24.2-5,36.1-8.3c13.5-3.7,27-7.2,41-8.9c20.2-2.4,40.3-6.2,60.3-10.5
		c8.9-1.9,17.4-6.3,25.9-9.8c1.6-0.7,3-2.4,4.2-3.9c2.6-3.4,4.9-6.9,7.3-10.5c2.7-4.1,2.2-6.3-1.9-9.4c-3.4-2.6-6.9-5.1-10-7.9
		c-5.9-5.3-13.6-6.4-20.8-7.6c-17.1-2.9-34.4-4.3-51.5-7.5c-10.3-1.9-20.5-5.4-30.1-9.4c-17.1-7.2-33.6-15.9-50.8-23
		c-7.4-3-15.8-3.6-23.8-5.3c-12.1-2.5-24.2-5-36.4-7.5c-6.4-1.3-12.8-2.3-19.2-3.7c-1.8-0.4-3.4-1.5-4.9-3.4
		c8.5-2.5,17-4.8,25.4-7.5c11.1-3.7,22.1-7.9,33.1-11.6c2.4-0.8,5.1-1.2,7.7-1.3c20.3-0.1,40.7-0.1,61,0c13.8,0,26.5-3.6,39.4-8.8
		c18-7.3,29-21.3,39.5-36.3c3.3-4.7,6.1-9.5,11.6-12.3c5.9-3.1,7.7-13.5,3.5-18.8c-8-10-16.3-19.8-24.5-29.6
		c-4.5-5.5-10.1-10.3-11.1-18c-0.6-4.6-3.5-7.4-8.3-8.5c-14.9-3.3-27.1-11.8-38.4-21.5c-3.6-3.1-5.7-8-9-11.6
		c-6.1-6.5-12.6-12.6-18.8-19c-3.7-3.8-7.2-7.8-10.8-11.7c0.2-0.6,0.4-1,0.6-1.4c3.8-8,3.7-7.6,12.5-5.8c12.6,2.5,25.4,4.3,38.1,6.4
		c4.2,0.7,8.4,1.9,12.6,1.8c4.7-0.1,9.3-1.2,13.9-2.3c6.6-1.6,13.3-3.4,19.7-5.6c2.1-0.7,4.5-2.9,5.2-5c3.3-9,5.9-18.2,8.9-27.4
		c1.4-4.5-1.2-7.5-3.5-10.6c-1.5-2-3-3.9-4.7-5.7c-7.8-8.1-5.3-22.1-2.3-30.5c0.4-1,1.9-1.7,3.1-2.3c20.6-10.6,41.2-21.2,61.7-31.9
		c7.8-4.1,15.8-8,23.2-12.6c6.1-3.8,11.7-8.4,17.2-13c6.2-5.1,12.1-10.6,18.4-15.8c3.9-3.2,3.8-6.7,0.5-10.3c-7.7-8.3-18-9-28-10.9
		c-6.4-1.2-12.6-3.2-18.8-5.1c-6.5-2-12.8-5.2-19.4-6.6c-11.8-2.4-20.6-9.4-29.2-16.9c-4.1-3.6-7.5-8-10.8-11.5
		c4.7-3.8,9-7,13.1-10.5c1.8-1.6,3.3-3.7,4.7-5.7c5.5-7.9,14.7-8,22.6-10.4c12.4-3.8,25-7.1,37.8-9.6c4.6-0.9,10,0.8,14.8,2.1
		c21.5,5.4,42.8,11.2,64.3,16.3c4.5,1.1,9.6-0.3,14.5-0.4c1.6,0,4.4,0.1,4.7,0.8c2.9,8.9,11.7,11.7,17.7,17.1
		c4.2,3.8,9.7,6.3,13.7,10.3c2.6,2.6,3.2,6.9,5.2,10.2c1.2,2,3.2,3.5,4.7,5.4c0.8,1,2,2.1,2.1,3.3c0.3,3.1-0.3,6.4,0.2,9.5
		c0.7,5.1,1.9,10.1,3.2,15.1c0.2,0.8,2.2,1.7,3.1,1.5c9.7-1.5,19.3-3.1,28.9-4.8c6.8-1.1,9.3-0.2,9.8,8.9c0.6,11.4,7.7,16.3,15.8,21
		c8.5,4.8,15.1,10.8,18.9,20.2c4.7,11.6,14,12.5,25.5,7.3c5-2.3,8.9-2.3,13.5-1c3,0.8,5.9,1.9,8.9,2.4c5.6,1,10-1.3,12.8-6.1
		c2.7-4.6,6.5-6.9,11.7-7.9c6.6-1.2,12.2-4.3,16.8-9.4c5.1-5.7,12.8-5.5,18.8-4.4c5.1,0.9,9.6,6.5,14,10.3
		c7.6,6.7,15,13.7,22.6,20.4c6.8,6,13,13.1,20.8,17.3c8.6,4.7,18.6,6.7,28,9.8c4.6,1.5,9.4,2.5,14,4.3c1.6,0.6,3.2,2.6,3.7,4.3
		c3.1,11.2,9.1,20.5,16.3,29.7c7,9,11.7,19.9,16.9,30.2c4.8,9.4,8.3,19.5,13.8,28.6c3.9,6.5,9.8,11.7,15,17.3
		c2.8,3,5.7,5.7,6.3,10.2c0.2,1.6,2.2,3.7,3.8,4.4c15.5,6.5,31,12.8,46.5,19.1c10.2,4.2,20.5,8.3,30.6,12.8c1.4,0.7,2.7,3.6,2.6,5.4
		c-0.3,6.9-1.3,13.7-1.8,20.6c-0.8,11.9-0.2,24-2.4,35.5c-2.1,11.2-7,21.9-10.7,32.7c-0.3,0.7-0.8,1.5-1.5,1.9
		C1885.7,965.2,1881.3,969.4,1881.2,976.7z"/>
	<path id="_x32_547" class="st0" d="M2015,1265.5c0-6.9,0-13.7,0-20.5c0-12-0.5-23.9-3.7-35.7c-2-7.4-1.8-15.3-3.5-22.7
		c-1.2-5.1-4.5-9.7-5.7-14.9c-2.6-10.9-4.3-22.1-6.6-33.9c-6.1,0.6-12.3,1.9-18.4,1.6c-7.9-0.3-12.8,6.5-19.9,7
		c-1.8,0.1-4.3-1-5.5-2.4c-0.7-0.8,0.1-4.1,1.2-4.9c6.3-4.7,9.4-11.2,12.6-18.1c2.2-4.8,7.2-8.4,11.4-12c6.7-5.7,8.8-13.5,11.2-21.3
		c0.8-2.8,2.2-5.8,4.2-7.9c4.6-4.9,9.5-9.6,11.6-16.2c0.6-2,1.2-4.2,1.1-6.2c-1-14.6,1.5-28.8,5.1-42.9c0.8-3.1,1.7-6.3,3.1-9.2
		c2.3-4.7,7.3-4.4,11.4-4.8c11.2-1,22.4-1.3,33.6-2.1c16.6-1.2,33.1-2.6,49.7-4c4.8-0.4,3.7-4.2,2.8-6.3c-2.4-5.6-1.7-10.7,0.3-16.2
		c1.8-5,5.1-7.5,10.3-7.4c9.4,0.1,19-2.5,28.2,1.8c1.6,0.7,4.2-0.1,6.2-0.8c8.8-3.1,17.5-3.8,24.9,2.9c5.4,4.8,12,5.4,18.4,7
		c4.4,1.1,9,1.8,13.3,3.1c7.5,2.2,12.8-2.3,18.2-6c4.5-3,9-4.7,14.5-5.1c6.3-0.5,12.6-1.9,18.8-3.2c3.2-0.7,5.9-1.2,7.6,2.5
		c0.5,1,2.5,1.8,3.6,1.7c8.4-1.2,15.2,3.1,22.5,5.9c5.3,2,10.5,4.6,15.9,6c2.8,0.7,6.3,0,9.1-1.1c5.1-1.8,10.2-3.9,14.8-6.6
		c9.4-5.4,11.6-15.7,15.9-24.6c1-2.2,3.4-4.7,5.6-5.1c7.5-1.6,15.2-2.3,22.8-3.4c8.7-1.2,17.4-2.7,26.2-3.7c3.4-0.4,7.2-1,10.4-0.1
		c9.1,2.7,16.2-0.6,23.2-5.7c4.4-3.2,9.8-5.2,14-8.7c4.8-4,9.3-8.8,13.1-13.8c3-4,6.7-6.5,11.3-7.9c1.2-0.4,2.3-1.1,4.5-2.2
		c-3.3-3.9-5.7-8.2-9.4-10.7c-6.9-4.8-10.7-11.2-12.6-19c-0.8-3.3,0.9-6.2,3.6-6.8c13.6-2.9,23.8-11.3,34.3-19.6
		c10-7.8,21.8-12.7,33.7-17.4c11.5-4.6,23.2-5.9,35.1-7.5c4.3-0.6,8.3-3.5,12.8-5.5c2,1.7,4.2,4,6.9,5.5c2.1,1.2,4.8,2.1,7.3,2.1
		c57.2,0.1,114.3,0.1,171.5,0.1c2,0,4,0,6,0c2.3,5.5,4.3,11,6.8,16.2c1,2.1,2.7,4.3,4.6,5.5c2.9,1.8,3.1,3.3,0.7,5.3
		c-3.3,2.7-3.9,5.8-2.2,9.6c0.4,0.9,1,2.1,0.7,2.8c-2.5,6.1,1.3,12,0.8,17.8c-0.6,6.6-3,13.1-5,19.5c-0.7,2.3-2.3,4.3-3.4,6.5
		c-4.1,8.3-3.1,10.2,3.9,15.7c8.4,6.7,16.4,14,24.1,21.6c1.4,1.4,1.1,5.2,0.5,7.6c-1.5,6,0.9,11.1,3,16.4c1.8,4.4,3.8,8.7,5.3,13.1
		c2.5,7.3-0.6,12.3-7.8,14.5c-3.3,1-8.2,2.9-8.9,5.4c-1.7,5.8,0,12.1,5,16c3,2.3,4,4.8,4.6,8.1c1,5.5,1.9,10.9,3.1,16.3
		c0.3,1.1,1.5,2.1,2.4,3.1c4.7,4.9,3.6,9.7-3,12c-4.3,1.5-8.8,2.5-13,4.1c-3.6,1.4-7.2,3.7-6.3,8.1c0.8,4.2,1.3,8.8,7.5,10
		c11.1,2.2,18.1,11.8,18.5,23.1c0.1,4,1.2,8,2.5,11.8c2.4,6.8,3.2,13.5,1.2,20.7c-0.8,3-0.5,7.3,1.2,9.7c4.2,5.7,6,12.1,7.5,18.8
		c1.1,4.8,2,9.8,3.5,14.5c1.1,3.1,2.7,6.5,5,8.7c7.7,7.6,11.4,16.7,13.1,27.3c1,6.6,3.4,13.3,6.5,19.3c4.6,8.9,4.3,18.7,6.3,28
		c1.2,5.8,0.7,10.7-2.9,15.7c-2.3,3.2-4.8,5.2-8.6,6.5c-11.4,3.7-21.4,9.5-28.8,19.3c-3.1,4.1-7.2,7.4-10.9,11
		c-4.9,4.9-5.6,11.8-4,17.3c1.6,5.8,7.5,8.9,14.3,9.2c3.8,0.2,7.5,1.4,12.2,2.3c-9.5,8.9-18.5,15.9-32.1,12.7
		c-6.9-1.6-13.2,3.4-16.2,11.8c-0.5,1.5-0.9,3.1-1.5,5.2c-1.4-0.4-2.9-0.4-4.1-1.1c-5.3-2.9-11.1-5.3-15.5-9.3
		c-8.2-7.3-16.1-5.5-23.7-0.3c-6.4,4.4-12.6,7.3-20.5,6.5c-3.6-0.4-6.7,1.1-7.8,5.2c-0.5,1.7-1.2,3.4-2,5c-1.9,3.5-2.6,7.8-7.4,9.1
		c-1.4,0.4-2.2,2.4-3.4,3.4c-2,1.5-4,3.3-6.2,4.1c-4.6,1.7-9.4,2.3-13.2,6.5c-1.9,2.1-6.3,2.1-9.7,2.5c-8.3,1.2-16.7,1.6-24.8,3.2
		c-5.2,1.1-10.3,3.4-14.9,6c-2.1,1.2-3.6,4.5-4.1,7.1c-1.3,6.9-4.3,12.8-9.9,16.8c-5.8,4.1-13.4,1.9-18.2-3.3
		c-5-5.3-9.4-12.1-18-11.6c-3.2,0.2-6.4,1.5-10.5,2.6c-2.5-2.9-6.8-2.6-11-0.5c-6.6,3.2-13.2,2.3-19.9,0.8
		c-14.6-3.3-28.9-7.8-43.9-9.3c-11.8-1.1-23.1-4.8-33.9-10.1c-5.3-2.6-11.5-4.2-17.4-4.4c-5.7-0.2-11.6,1.5-17.2,3.2
		c-8.6,2.6-16.7,2.8-24.5-2.2c-11.6-7.3-20-6.6-31.5,1.6c-6.2,4.5-11.6,9.2-15.3,16.1c-1.5,2.9-5.3,5-8.4,6.5
		c-7.7,3.8-13.3,9.8-19,16c-7.6,8.3-16.3,15.6-25.2,24c-2.8-4.1-6-7.9-8-12.2c-4.6-10-13.9-13.6-23.2-16.2c-6.7-1.9-14-1.8-21-2.1
		c-2.9-0.1-4.3-1-5.4-3.7c-3.1-7.5-2-14.7,3.6-20.3c6.7-6.6,9.7-14.8,10.6-23.9c0.8-8.2,2.1-16.4,1.8-24.6c-0.3-6.4,2.9-10.9,5.3-16
		c2.8-5.8-0.6-17.3-4.9-21.8c-7.6-7.9-17.8-13.3-22.5-24.5c-3-7.2-8.6-14-14.6-19.1c-4.2-3.5-11.1-4.8-16.8-5
		c-19.4-0.9-38.9-0.8-58.3-1.2c-11.3-0.2-22.5-0.6-33.8-1c-10.9-0.3-21.9-0.7-32.8-1c-11.1-0.3-22.2-0.6-33.3-1
		C2037.9,1266.6,2026.8,1266,2015,1265.5z"/>
	<path id="_x32_548" class="st0" d="M1568.6,1273.1c8.2,3.7,18.8,8.1,29,13.3c6.3,3.2,11.9,3.2,17-1.6c1.9-1.8,3.8-3.8,6.1-5
		c4.5-2.4,9-2.2,14-0.1c9.7,4.1,17.3,10.5,23.8,18.5c1.4,1.8,2.5,4.6,2.3,6.8c-0.7,8.7,2.8,14.4,10.6,18.2c4.2,2.1,7.7,5.6,12,7.3
		c5.3,2.1,11.2,2.9,16.7,4.5c4.5,1.3,8.2,0.5,12.5-1.7c7.2-3.8,14.9-6.6,22.6-9.3c4.4-1.5,9.1-2.5,13.8-3c6.6-0.7,13.2-0.5,19.8-1.2
		c2.2-0.2,4.5-1.9,6.2-3.4c4.8-4.4,9.6-6.9,16.7-5.7c5.9,1,12.2-0.6,18.3-0.6c7.9,0,15.9,0.2,23.8,1c8.6,0.8,17.3,1.7,25.6,3.9
		c9.5,2.6,18.4,7.5,28,9.9c16.5,4,31.6,11.2,46.9,18c2.3,1,5.8,0.6,8.3-0.3c5.3-1.9,10.1-4.9,15.4-6.9c2.1-0.8,5-0.7,7.2,0
		c12.3,4.1,24.5,8.5,36.8,12.7c0.8,0.3,1.5,0.4,2.7,0.7c0.1-1.5,0.8-3.1,0.2-4c-4.6-6.8-2.4-14.8-4-22.1c-0.6-2.7-2.9-5-4-7.7
		c-1.5-3.9-3.4-7.8-3.7-11.8c-0.3-3.8-1.1-6.7-4.1-9c-3.8-3-4.7-6.4-3.1-11.3c1.5-4.7,1.4-9.9,2-14.3c9,0,18.6-0.1,28.1,0
		c15.9,0.2,31.9,0.6,47.8,1c10.8,0.3,21.5,0.7,32.3,1c11.3,0.3,22.5,0.7,33.8,1c10.6,0.3,21.2,0.7,31.8,1
		c11.4,0.3,22.9,0.5,34.3,1.1c6.7,0.3,13.4,1,20,2.1c5.8,0.9,9.1,5.9,12.2,10c4.8,6.3,8.2,13.6,12.8,19.9c2.6,3.5,6.5,6,9.8,8.9
		c4.8,4.2,9.7,8.2,12,14.7c2.2,6.3-0.1,11.4-2.8,16.7c-1.4,2.8-3,6-3,8.9c0,12.6-0.1,25.1-4.2,37.1c-1.2,3.4-3,7.1-5.6,9.5
		c-8.1,7.5-9.1,16.1-5.4,26c0.2,0.5,0.1,1,0.2,1.5c0.1,0.3,0.3,0.6,0,0.1c-8.3,8.3-16.5,16.3-24.5,24.5c-1.7,1.7-2.5,4.2-4.2,6
		c-2.9,3.3-6.2,6.2-9.3,9.4c-5.1,5.3-10.2,10.6-15,16.2c-2.3,2.7-3.6,5.2-8.3,4.8c-3.6-0.3-7.4,2.6-11,4.3c-1.7,0.8-3,2.8-4.7,3.4
		c-1.5,0.5-4.3,0.6-5-0.3c-5.6-7.6-13.2-6.6-20.9-5.4c-0.2,0-0.3,0.2-0.4,0.2c-8.5-0.6-17.1-0.6-25.5-2c-4.2-0.7-4.5-5.4-4.3-9.3
		c0.3-6.6,0.8-13.2,0.9-19.8c0.1-4.2-3.1-4.6-6.2-4.5c-10.6,0.3-21.3,0-31.8,1.2c-10.3,1.2-17.6-3.9-22.1-11.3
		c-7.9-13.2-20.4-18.8-33.6-23.6c-3.3-1.2-5.8-2.3-7.1-5.7c-0.4-1-1.2-2-2.1-2.5c-9.1-4.7-18.2-9.5-27.5-13.7
		c-3.3-1.4-7.4-0.8-11.1-1.5c-1.5-0.3-4.1-1.3-4.2-2.2c-0.8-8.2-7.6-9.5-13.3-10.5c-13.1-2.5-26.2-5.6-39.8-5.4
		c-3.3,0.1-6.7-1.3-9.9-2.3c-7.6-2.5-14.9-2.1-22.2,1.6c-2.4,1.2-5.8,0.5-8.7,0.9c-3.2,0.4-5.1-0.6-6.9-3.7c-2.4-4.2-6.6-6.3-12-6.5
		c-3.9-0.1-7.6-2.2-11.5-3.3c-3.7-1.1-7.5-2.1-11.2-3.2c-6.9-1.9-13.7-4.2-20.7-5.7c-3-0.7-6.5-0.1-9.6,0.4
		c-10.8,1.5-21.7,3.2-32.4,5c-2.2,0.4-4.2,1.6-6.2,2.6c-3.4,1.7-6.7,3.7-10.7,1.5c-0.5-0.3-1.4-0.3-2-0.1
		c-12.3,4.1-26.3,2.2-37.3,10.6c-2.9,2.2-5.2,5.8-8.5,7c-8.4,3.3-17.3,5.5-25.9,8.4c-3.1,1.1-6.9,2.4-8.6,4.8
		c-6.4,9-14.9,8.7-24.3,7.1c-9.6-1.6-19.3-2.1-28.9,0.7c-10,2.9-17.2-0.4-22.3-9.5c-2.8-5-5.4-10-5.7-15.9c-0.1-1.4-1.2-3.2-2.4-4.1
		c-16.8-12.9-22.3-31.7-27.4-50.9c-1.4-5.2-2.7-10.7-5.7-15c-4.3-6.2-2.6-12.4-2.1-18.8c0.3-5,3.2-7.2,7.3-9.5
		C1559.8,1281.5,1563.3,1277.6,1568.6,1273.1z"/>
</g>
</svg>
