<?xml version="1.0" encoding="utf-8"?>
<!-- Generator: Adobe Illustrator 19.0.0, SVG Export Plug-In . SVG Version: 6.00 Build 0)  -->
<svg version="1.1" id="Layer_1" xmlns="http://www.w3.org/2000/svg" xmlns:xlink="http://www.w3.org/1999/xlink" x="0px" y="0px"
	 viewBox="0 0 14000 6800" style="enable-background:new 0 0 14000 6800;" xml:space="preserve">
<style type="text/css">
	.st0{fill:#FFFFFF;}
</style>
<g>
	<path d="M5643.1,3596.4c10.8-33,31.3-59.4,50.3-86.6c7.2-10.4,13.6-20.8,18.5-32.8c5.2-12.7,14.8-23.5,22.5-35.2
		c3.7-5.5,7.6-10.9,11.1-16.5c5.6-8.8,7.1-18.7,6-28.8c-2.5-23.2-4.9-46.4-8.2-69.4c-1.1-7.7-0.2-14.5,3-21.3
		c3.4-7.2,6.7-14.5,10.4-21.6c8.4-16.3,12.5-33.7,12.5-51.9c0-8.2,1.8-15.8,4.8-23.2c7.3-17.9,15.7-35.3,23.6-52.8
		c14.5-32.4,33.4-62.1,53-91.5c7.4-11.1,4.2-21.5,2.6-33.4c-9.8-6.5-19.4-13.7-29.7-19.6c-17.7-10.3-27-27.2-36.1-44.2
		c-1.5-2.7-2.1-6.6-1.6-9.6c2.3-13,2.3-26.5,9.6-39.9c5.4,0,11.3-0.6,17.1-0.1c36.5,3.2,73,6.5,109.5,9.9
		c35.8,3.3,71.6,6.6,107.4,10c37.1,3.5,74.3,7.1,111.4,10.6c33.2,3.1,66.3,6.2,99.5,9.3c53.1,5,106.1,10,159.2,14.9c2,0.2,4,0,7.8,0
		c-3.6-5.2-6.5-9.3-10-14.3c1.1-2.4,2.3-5.3,3.9-8.1c4-6.9,8.4-13.6,12.1-20.6c19.3-36.4,35.3-56.5,66.3-81.5
		c11.6-9.3,25-15.3,39.6-18c7.9-1.4,15.8-2.6,23.8-2.8c7.2-0.2,12.4-2.6,17.5-7.8c10-10.3,22.6-16.2,37-18c7.9-1,15.8-2.4,23.5-4.5
		c6.3-1.7,13.1-3.6,18.4-7.3c20.3-14.2,43.5-20,67.3-23.7c37.5-5.8,75.2-10.7,112.8-15.7c43.6-5.8,87.2-11,130.8-16.9
		c11.2-1.5,22.3-4.1,33.1-7.3c23.7-7.1,47.8-11.7,72.4-14.1c6.4-0.6,11.9,0.2,16.9,4c9.1,6.7,18.3,13.4,27.1,20.5
		c7.9,6.4,16.6,10.8,26.5,13.5c26.5,7.2,51.3,18.7,76.1,30c8,3.6,15.3,8.2,21,15c7.1,8.4,16.2,13.8,25.8,18.4
		c15,7.3,29.9,14.7,45.2,21.4c19,8.3,37,18.3,53.3,31.1c6.1,4.7,12.4,7.5,20.1,7.3c17.3-0.6,32.8,4.4,46.8,14.4c1,0.7,2.5,0.6,5,1.1
		c0.2-3.2,0.8-6.2,0.4-9.1c-10-73.9-20.2-147.8-30.3-221.8c-3.3-24.4-6.5-48.9-9.3-73.4c-1-8.8-4.6-14.3-12.7-18.5
		c-20.2-10.3-39.5-22.1-59.8-32.2c-10.6-5.3-22.4-8.3-33.6-12.5c-13.2-4.9-25.5-11.6-36.3-20.6c-13.6-11.3-28.4-19-47-19.3
		c-14-0.2-17-3.6-19.4-17.9c-5.7-34-4.1-67.7,6.5-100.7c10.8-33.7,18.8-68,23.4-103.1c1.6-12.5,5.1-24.8,7.7-37.1
		c0.1-0.6,0.3-1.3,0.6-1.9c12.6-24.9,29.1-46.8,55.6-57.6c23.2-9.5,41-24.3,54.3-45c8.7-13.5,17.1-27.1,25.7-40.5
		c18-28.2,32.1-58.3,42.7-90c7.9-23.5,21.6-44.2,32.4-66.3c0.6-1.2,1.5-2.2,2.1-3.4c13.6-27.4,27.3-54.8,40.7-82.3
		c6.4-13.1,6.5-27,4.7-41.1c-4.1-30.9,2.2-59.2,20.6-84.9c11.3-15.8,24.7-29.6,37.6-44c14.6-16.3,28.9-33.1,43.5-50
		c-1.8-5.1-2.9-9.5-4.8-13.6c-58.4-122-116.9-243.8-175.4-365.8c-24.8-51.7-49.3-103.4-73.9-155.1c-1.4-3-2.9-6-4-9.1
		c-1.9-5.2-0.1-9.6,4.8-11.4c3.7-1.3,7.7-2,11.6-2.9c92.2-21.1,184.3-42.3,276.6-63.1c12.8-2.9,23.2-8.3,32.9-17.1
		c137.6-125,275.5-249.7,413.3-374.4c19.6-17.7,20.1-17.7,32.1,5c14.3,27.1,28.5,54.3,42.8,81.4c2.8,5.3,5.8,10.4,8.7,15.7
		c14.7,4,28.5,0.6,41.2-4.7c28.9-12,58.3-22.8,85.5-38.5c16.1-9.3,33.7-16,48.3-28c7.6-6.2,16.6-8.3,26.3-7.2
		c4,0.5,8.2,0.1,11.9,1.4c19.6,7,38,2.1,56.3-4.7c6.9-2.5,13.7-5.1,20.4-8.1c16.9-7.5,34.7-9.7,52.8-6.9c12.1,1.8,23.8,1.4,35.5-1.8
		c3.2-0.9,6.5-1.8,9.8-1.9c11-0.6,21.2,1.2,28.9,10.2c8.2,9.5,16.4,19,25.4,29.4c4.1-2.8,7.5-4.6,10.4-7
		c14.3-11.9,28.5-24.1,42.8-36c19.2-15.9,35-34.4,47.4-56.1c7.1-12.4,11-25.7,14.4-39.2c3.7-14.7,12.3-24.6,25.5-31.3
		c42.7-21.8,32.1-13.2,63.7-55c15.7-20.7,25.2-43.6,24.5-70.3c-0.4-16.9,8-32.1,11.4-48.4c0.5-2.4,2.5-4.7,4.1-6.8
		c7.3-9.5,14.2-19.5,22.3-28.2c20.4-21.9,44.1-35.7,75.8-32.1c23.9,2.7,47.4,6.2,69.6,16.3c9.6,4.4,19.9,7.2,27.7,9.9
		c18.2-7.4,34-14.4,50.2-20.3c21.6-7.7,41.8-3.4,60.9,8.7c7,4.4,12.1,10.3,16.9,16.8c36.5,49.3,73.1,98.4,109.6,147.7
		c63.8,86.3,127.4,172.7,191.5,258.8c8.1,10.8,13.1,21.3,10.5,34.8c-0.6,3.2-0.3,6.6-0.3,10c-0.8,58-1.6,115.9-2.5,173.9
		c-0.1,6.6-1,13.1-1.5,20.1c-9.2,3.6-18.4,5.9-26.1,10.6c-7.8,4.7-13.7,12.8-21.5,17.6c-12.8,7.9-22.6,18.3-31.5,30.1
		c-7.2,9.6-15.3,18.4-23.2,27.5c-7.1,8.2-15.3,14.7-25.7,18.4c-3.7,1.3-7.4,3.3-10.6,5.5c-19.8,13.9-42.3,19.5-65.9,20.6
		c-12.9,0.6-25.1,3.1-36.9,7.9c-25.3,10.5-51.3,13.5-78.4,8.2c-5-1-10.5-0.2-15.7,0.6c-7.8,1.3-15.5,3.3-23.9,5.2
		c-2.5,3.2-5.3,6.8-8.6,11c-16.9-2.6-34.8-1.3-48.6-15.9c-4.1,3.8-7,7.2-10.6,9.6c-3.2,2.2-7.1,3.2-10.5,4.7
		c-6.3,10.7-9.5,22.1-10.1,34.3c-0.5,10.5-4,19.6-12.9,25.8c-6.3,4.4-9.6,10.9-12.9,17.4c-1.2,2.4-2,4.9-3.2,7.3
		c-0.6,1.1-1.8,2.8-2.7,2.8c-13.4-0.1-15.1,16.5-27,18.7c-3.7,0.7-8,2.4-10.4,5c-7.5,8.1-16.2,11.3-27.5,8.4c-1,3.2-2.3,5.6-2.5,8.1
		c-0.5,10.9-5,18.9-14.7,24.4c-3.8,2.2-7.2,6-9.3,9.9c-13.9,26.2-36.2,42.2-63.1,52.3c-8.6,3.3-15.5,6.9-18.2,16.4
		c-1.9,6.7-7.2,11-12.7,14.9c-17.5,12.6-37.3,19.5-58.3,23.5c-3.3,0.6-6.5,1.1-10.9,1.8c-0.8,3.6-1.5,7.3-2.3,11
		c-1.4,6.5-2.7,13-4.2,19.5c-2.6,11.6-9.4,20.2-18.8,27.4c-10,7.6-19.7,15.8-28.9,24.4c-5.3,4.9-9.6,11-13.7,17
		c-8.3,12.1-16,24.6-24.1,36.7c-1.8,2.7-4.3,5.1-6.9,7c-7.3,5.1-13.4,4.4-19.4-2.1c-2.7-2.9-4.9-6.1-7.5-9.4
		c-4.9,1.2-9.5,3.7-13.6,3.2c-11.3-1.5-20.6,1.9-29.9,8c-3.6,2.4-8.9,3.1-13.4,3c-15.9-0.3-32-0.4-44.5-13
		c-2.5-2.6-7.1-3.8-10.9-4.3c-7.8-1-15.8-1.2-23.7-1.5c-10.1-0.4-19.9,0.1-29.2,4.9c-5.3,2.7-11.2,4.1-18.3,6.7
		c-1.5,4.7-3.6,10.2-4.9,15.9c-2.6,11.5-9.6,20.4-16.7,29.2c-4.9,6.1-10.9,6.5-17.7,2.1c-5-3.3-9.6-7.2-14.9-9.9
		c-6.3-3.1-11.9-0.6-14.9,5.7c-0.6,1.2-1.3,2.4-1.5,3.7c-2.8,18-14,29.1-28.9,38.5c-11.5,7.3-23.1,9.9-36,7.6
		c-5.2-0.9-10.3-2.7-15.4-4.2c-7-2.1-13-0.9-18.4,4.3c-3.8,3.7-8.2,6.8-12.3,10.2c-11.8,9.5-24.6,15.7-40.4,13.8
		c-15.1-1.8-27.6,3.5-37.2,15c-5.5,6.6-12.6,9.5-20.6,11.1c-14.9,3-29.5,7.5-45.2,2.2c-5.8-2-13.2-0.5-19.6,0.9
		c-9.9,2.2-19.4,3.4-29.4-0.2c-5.4-1.9-11.7-1.4-17.4-1.9c-2.1,6.8,2.7,9.4,5.6,12.4c14.8,15.4,29.8,30.5,44.6,45.8
		c26.5,27.2,52.6,54.8,79.5,81.6c10.8,10.8,23.2,20,34.9,29.9c8.1,6.9,16.1,14,24.6,20.5c9.3,7.1,10.3,15.2-2,20.7
		c-12,5.4-22.9,13-35.7,20.4c3.5,4.6,5.5,9.1,8.9,11.4c16.6,10.9,25.8,27.2,31.1,45.2c9.2,30.8,24.1,59.1,36.6,88.4
		c6.2,14.6,10.4,30.2,15.1,45.4c7.3,23.5,14.7,47,17.9,71.6c2.3,17.4,11.3,31.1,24.7,42c19.8,16,36.1,35.3,51.5,55.5
		c9.7,12.8,18.4,26.1,26.1,40.2c27.6,51,55.3,101.9,83,152.8c0.6,1.1,1.6,2.1,3.1,4.2c9.4-1,16.2,4.7,23,11.5
		c14.6,14.6,30,28.4,47.4,44.8c1.1-0.1,6.4-2.2,11.1-1.1c5.7,1.3,10.3-0.5,15.5-1.3c6.4-1,13.1-0.8,19.6-0.2
		c16.9,1.6,31.7,6.3,42.9,21.2c18.4,24.4,42,44.9,56.7,72.1c13.6,25.2,26.4,50.8,39.5,76.3c0.9,1.8,1.7,3.6,2.3,5.5
		c8.5,31.2,25.5,58.3,42.1,85.5c0.3,0.5,1,0.9,2.7,2.3c3.3,0.2,7.8,0.7,12.4,0.6c6.7-0.1,13.3-0.7,20-1c25.6-1,46.5,9.5,64.3,27
		c12.4,12.3,22.7,26,29.1,42.6c2.1,5.4,5.8,10.5,9.7,15c30.3,34.6,60.9,68.9,91.3,103.4c47.3,53.4,94.5,106.8,141.8,160.2
		c3.9,4.4,8.2,8.4,12.7,13.1c11.2-8.9,21.6-17.3,32.1-25.5c12.7-10,14.3-10,24.7,1c23.9,25.1,47.8,50.2,71.7,75.3
		c0.9,1,2,1.8,3.7,3.3c4.6,0,9.8-0.1,15,0c9.4,0.2,14.3,5.1,15.8,15.6c-6.1-0.8-11.2-1.7-16.3-1.9c-6.1-0.2-12.2,1-16.4,5.9
		c-12.5,14.6-24.6,29.5-37,45c3.8,4.6,6.5,8.2,9.6,11.6c24.7,27.1,49.3,54.2,74.1,81.2c4.5,4.9,10.1,8.7,14.4,13.7
		c8.6,10.1,17.1,20.3,24.8,31.1c5.7,8.1,6.4,17.5,2.1,26.7c-7,15-7.7,30.3-4.9,46.6c10.8,63,20.8,126.2,31,189.3
		c6.8,42.1,14.2,84.1,20,126.3c2.4,17.7,1.3,35.9,2,53.9c0.2,6.6,0.3,13.3,1.3,19.8c1.4,9.7,0.2,13.4-8,17.3
		c-5.4,2.6-11.1,4.5-16.8,6.5c-7.5,2.6-15.1,5-22.8,7.2c-5.1,1.5-10.3,2.6-15.5,3.6c-19.7,3.5-39.6,1.6-59.4,1.4
		c-27.3-0.2-54.6-0.5-82-0.8c-4.7,0-9.4,0.6-14-0.2c-11.6-1.9-22.1-2.1-31.2,7.7c-3.2,3.4-9.7,4.8-14.8,5.3
		c-11.2,1-18.1,7.8-24.3,15.8c-6.9,8.9-13.5,18.1-20.2,27.2c-1.2,1.6-3.3,3.1-3.4,4.8c-1.3,14.1-11,16.6-22.6,17
		c-1.7,0.1-3.3,1.7-5.2,2.8c4.1,18.4,7.3,36.7,12.4,54.5c5.2,18.1,2.6,33.9-7.7,49.3c-17,25.5-33.4,51.4-50.2,77
		c-5.5,8.4-11.7,16.1-10.2,27.2c0.5,3.7-0.9,8-2.4,11.6c-2.1,5-5.3,9.4-11.3,10.3c-18.3,2.9-32.7,14.5-49.1,21.7
		c-1.2,0.5-2.6,1-3.5,1.9c-13.5,13-29.2,23-44.5,33.7c-4.9,3.4-6.4,8.2-6.7,13.8c-0.5,9.9-1.2,19.8-1.8,30.4
		c-62.8,30.8-124.8,61.2-186.2,91.2c-1.7,16.1,16.9,13.1,19.4,25.1c-6.2,11.5-14.9,19.6-29,23.9c-24.8,7.6-48.8,17.4-73.6,26.4
		c0,5,0,9.2,0,15c-2.5-2.2-3.9-3.3-5.1-4.6c-1.3-1.4-2.4-3-3.4-4.3c-1.1-0.1-1.8-0.2-2.5-0.2c-0.7,0-1.4,0-1.9,0.3
		c-151.4,72.5-302.8,145-454.1,217.5c-3,1.4-6,2.9-8.8,4.6c-1.1,0.6-1.8,1.9-2.6,2.7c0,5.4,0.3,10.7-0.1,16
		c-0.8,12.3,1.3,23.7,7.9,34.4c4.3,6.9,6.6,14.5,5.2,22.9c-1.7,11,1.3,21.3,5.6,31.1c2.2,5.1,4,9.8,2.7,15.3
		c-4.4,19.4-8.9,38.8-13.4,58.5c-18.9,3.7-36.8,1.5-54.6,0.2c-4.6-0.3-9.3-1.6-13.8-1.1c-13.9,1.6-23.9,7.1-30,21.7
		c-17.5,41.8-37.2,82.6-55.4,124.1c-5.2,11.9-12.6,21.4-22.4,29.9c-32.3,27.9-64,56.4-95.9,84.6c-2.9,2.6-5.5,5.4-8.8,8.7
		c3.3,4.3,5.9,8.1,8.9,11.5c62.2,70.4,124.5,140.7,186.9,211.1c3.5,4,7.6,7.5,11.2,11.4c6.7,7.4,5.7,12.7-3.4,19.2
		c-1,0.7-2.1,1.4-4.2,2.9c0.5,5.9,1.2,12.4,1.5,18.9c0.3,6.7-0.3,13.4,0.2,20c0.7,8.1-0.2,15.8-2.4,23.6c-2,7-3.1,14.3-4.1,21.6
		c-1.9,14.2-5.2,27.5-18.3,35.4c-0.7,7.4-1.5,14-1.9,20.6c-1,15.9-8.5,27.3-21.8,36c-17.8,11.7-35.1,24.3-52.5,36.5
		c-15.8,11.1-32.3,21.4-47.3,33.5c-12.7,10.3-26.1,10.6-39.2,4.6c-11.3-5.1-21.4-5-32.8-2.2c-14.9,3.6-29.9,7.1-45,8.9
		c-27.1,3.2-54.3,5.4-81.5,7.4c-10.2,0.7-19.8,2.5-28.6,7.6c-17,9.8-35.7,13.7-54.8,17.3c-25.5,4.8-50.6,11.7-75.8,17.7
		c-1.3,0.3-2.6,0.7-3.7,1.4c-24.7,15.6-53.9,22.4-78.2,39c-12.3,8.4-22.9,18.2-31.5,30.3c-7,9.7-14.5,18.3-25.5,24.6
		c-9.5,5.4-17.2,14.5-24.8,22.8c-15.8,17.2-31,34.8-46.4,52.3c-4.9,5.5-9.2,11.5-14.7,16.4c-7.8,7-12.7,14.8-13.4,25.7
		c-0.3,5-3.4,10-6,14.6c-53.1,92.5-106.3,184.8-159.3,277.3c-4.5,7.8-10.6,13.4-17.6,18.7c-31.4,23.6-62.6,47.7-94.3,70.9
		c-12.1,8.9-21.4,19.5-28.5,32.6c-9.5,17.6-20.3,34.4-29.8,52c-5.3,9.8-12.4,16.9-22.5,21.6c-7.2,3.3-14,7.7-21.1,11.3
		c-38.8,19.6-69.7,48.7-97.6,81.3c-3.6,4.2-6,8.7-6.8,14.1c-1.1,7.2-2.4,14.5-3.9,21.6c-1.9,9-4.1,11.3-13,12.5
		c-11.9,1.6-23.8,2.9-35.7,4.3c-72.8,8.5-145.6,16.9-218.4,25.5c-66.8,7.9-133.6,15.8-200.4,23.8c-31.7,3.8-63.5,7.7-95.2,11.5
		c-4.6,0.6-9.3,0.9-13.9,1.2c-5.1,0.4-9.1-1.6-11.9-5.8c-13-19.3-27.4-37.6-38.5-58.3c-19.6-36.7-33-75.6-44-115.5
		c-4.2-15.4-9.7-30.4-14.4-45.7c-2.5-8.2-7.6-13.5-15.7-16.8c-10.6-4.2-19.8-10.6-28.6-19.1c1.8-4.9,3-9.2,5-13.3
		c5.6-11.3,10.9-22.9,17.5-33.7c13.2-21.5,20.2-44.7,22.3-69.7c-15.1-14.7-30.3-29.5-47.7-46.4c-2.2,0-7.5-0.5-12.8,0.1
		c-21.5,2.5-42.4-2.9-63.5-5.2c-5.7-0.6-10-3.1-13.6-7.4c-2.5-3.1-5.2-6.1-8.1-8.8c-6.7-6.3-9.6-13.7-9.1-23.1
		c0.4-8.4,1.4-17.1-1.3-25.2c-29.4-2.6-53.5,1.7-75.6,14.1c-19.2,10.7-38,22-57,33.2c-14.7,8.7-14.7,8.9-31.8,4.6
		c-31.2-7.9-60.7-19.9-87.7-37.6c-10.6-6.9-20.9-14.5-32-20.4c-28.4-15.2-47.6-40.2-68.9-63c-3.9-4.2-6.3-10.1-8.7-15.6
		c-8.4-18.9-16.2-38-24.9-56.7c-3.9-8.4-8.7-16.5-14.1-23.9c-11-15-22.9-29.4-34.2-44.3c-5.3-7-11.5-12.8-19.5-16.7
		c-6-2.9-11.6-6.5-17.5-9.6c-7.8-4.1-14.4-9.1-19.6-16.5c-4.2-5.9-10.1-10.6-15.7-15.3c-14.3-12.1-27.2-25.4-40.1-39
		c-13.7-14.5-28.6-27.9-43.4-41.3c-25.8-23.2-51.6-46.2-78-68.7c-9.2-7.8-14.3-16.9-17-28.3c-7.9-33-16.3-65.9-24.2-99
		c-1.7-7.3-4.4-13.8-9-19.7c-22.2-28.6-47.3-54.1-77.4-74.6c-4.3-2.9-7.4-5.6-5.2-12.3c3.5-1.4,7.6-3.6,12-4.5
		c15.7-3.2,31.3-6.5,47.1-8.7c12.4-1.7,22.8-6.4,32.1-14.5c4.2-3.6,7.3-7.4,8.5-13c1.2-5.8,3.3-11.4,5.2-17.8
		c4.1-0.8,7.8-1.8,11.6-2.1c6-0.5,12-0.8,18-0.7c19.2,0.4,36.5-4.9,53-14.9c10.2-6.2,21.4-10.8,32.6-15c8.2-3.1,11.9-8.3,11.8-16.4
		c-0.1-11.3-0.1-22.7-1.3-33.9c-1.3-12-2.7-23.8-0.6-35.8c0.7-3.9,0-8,0.3-12c0.5-7.1-2.2-12.7-6.4-18.3
		c-11.5-15.5-22.6-31.3-33.6-47.2c-3-4.3-5.3-9.2-7.4-14c-5.3-12.2-9.7-24.9-15.7-36.7c-9.5-18.5-15.4-38.3-21.5-58
		c-1.4-4.4-2.1-9.1-2.6-13.7c-2.2-17.8-4.8-35.7-6.2-53.6c-0.8-9.9-0.4-20,1-29.8c2.9-20.3,0.7-39.5-6.2-58.9
		c-9.1-25.7-17-51.9-24.5-78.1c-3.9-13.8-10.9-25.7-18.9-37.2c-6-8.6-14.3-13.3-25.2-13.8c-12.6-0.6-25.2-2.6-37.8-3.3
		c-7.2-0.4-14.6,0.4-21.8,1c-11.9,0.9-23.9,3-35.8,2.8c-26.6-0.5-53.2-1.9-79.8-3.3c-5.6-0.3-10.5,0.3-15,3.7
		c-10.1,7.6-20.8,14.5-25.7,27.1c-1.9,4.9-5,9.4-7.9,13.9c-13.9,21.1-19.5,45-24.4,69.2c-1.3,6.3,0.5,15.1-6.9,17.4
		c-9.5,2.9-10.8-7.6-15.3-12.7c-5.2-6-10-12.5-15.7-17.9c-9.2-8.7-18.8-16.9-28.5-25.1c-11.9-10-24.7-17.4-41-18.6
		c-22.6-1.6-45-4.5-67.5-7.2c-5.8-0.7-12.5-1.4-16.8-4.7c-7.7-5.8-11.8-13.7-8.2-24.5c4.2-12.6,6.5-25.8,10.6-38.5
		c2.4-7.6,0.8-14-1.8-21.1c-5.5-14.8-15.4-26.5-25.8-37.7c-16.2-17.6-32.4-35.5-49.9-51.8c-21.5-19.9-44.3-38.4-67-57
		c-4.9-4-11.7-6.2-18-8.2c-26.1-8.2-52.2-15.9-78.4-23.8c-7-2.1-14.2-3.9-20.9-6.6c-12.9-5.3-21.9-14.9-27.4-27.6
		c-2.7-6.2-3.3-12.5-2.2-19.5c5.8-36.4,14.6-71.7,31.9-104.6c18-34.3,32.4-70,43.2-107.3c9.5-32.8,15.6-41.3,39.8-65.5
		c8-8,16.1-15.9,23.4-24.6c9.8-11.6,23-12.1,36.3-12.3c2.8,0,6,2.7,8.5,4.6c26.5,20.6,49.7,44.1,65.9,74.1
		c17.1,31.7,35,62.9,52.6,94.2c3.9,7,7.7,14,12,20.8c1.6,2.5,4.2,4.4,7.7,7.9c1.2-5.2,2.2-8.3,2.6-11.5c3.7-32.4,7.5-64.8,10.9-97.2
		c1.3-12.1,3.6-23.5,10.4-34c6.5-10.2,10.4-21.4,12.7-33.4c3.6-18.4,9.5-36.1,18.1-52.7c1.8-3.5,3.6-7.3,6.1-10.3
		c8.3-9.8,18.6-10.7,27.7-1.4c7.9,8.1,15.4,16.8,21.4,26.3c6,9.5,14.4,13,24.4,15.2c18.8,4.3,37.7,8.3,56.2,13.8
		c11.4,3.3,22.3,8.6,33.1,13.8c5.9,2.9,11.9,6.6,16.2,11.4c13.4,14.8,29.6,16.3,47.3,11c8.9-2.7,17.4-6.7,26-10.3
		c13-5.5,25.9-5.6,38.7,0.3c12.1,5.5,24.3,11,35.9,17.4c6.4,3.6,12.3,4.5,19,2c0.6-0.2,1.3-0.4,1.9-0.7c33-11.9,59.5,1.9,84.5,21.5
		c5.7,4.5,10.8,10,16.6,14.4c5.9,4.5,11.1,4.4,16-1c4.8-5.3,8.9-11.5,12.5-17.8c2.9-5.2,4.9-11,6.7-16.7c6.4-20,19.5-34.6,36.4-46.2
		c13.2-9.1,26.6-17.7,39.7-26.9c6.5-4.6,12.7-9.6,18.3-15.1c7.6-7.5,13.9-16.2,21.8-23.4c32.4-29.9,54.7-66.8,73.9-105.8
		c7.1-14.5,16-27.4,28.3-38.2c6.8-6,11.8-14.3,17.1-21.9c2.1-3,2.9-7,4.9-11.9c-4.7-0.7-7.7-1.6-10.8-1.7
		c-38.6-0.9-77.2-1.9-115.9-2.5c-50-0.7-100-1.1-149.9-1.6c-5.9-0.1-12.1,1-18.8-4.1c-0.4-3.8-1.5-8.9-1.4-14
		c0.3-31.3,0.8-62.6,1.4-93.9c1.3-68.6,2.6-137.2,4.1-205.8c0.2-11.2,1.7-22.4,2.6-34.7c32-4,63.2-1.9,94.2-3.2
		c31.2-1.3,62.5-1.8,93.8-2.6C5580.3,3597.6,5611.5,3597.1,5643.1,3596.4z M6837.8,6491.1c1.6-9.3,2.4-16.6,4.3-23.5
		c1.5-5.7,3.1-12,6.7-16.3c28.4-33.9,59.5-64.7,99.3-85.4c7.1-3.7,13.8-8.1,21.1-11.4c11.3-5.3,19.5-12.9,25.4-24.2
		c10-18.8,21.4-36.8,31.9-55.4c5.3-9.5,12.2-17.2,20.9-23.7c31-23.1,61.5-46.8,92.7-69.6c12.1-8.9,21.3-19.4,28.8-32.4
		c49.2-86.2,98.8-172.3,148.3-258.3c5-8.7,9.7-17.5,10.7-27.7c0.6-5.4,2.8-10,6.5-14.2c17.8-19.9,34.9-40.3,53-59.9
		c13.5-14.6,27.2-29.5,42.9-41.5c9.7-7.4,18.2-15.1,25.2-24.9c8.2-11.5,18.4-20.7,30.1-28.8c25.3-17.7,55.7-25,81.7-41.1
		c1.1-0.7,2.4-1.2,3.7-1.5c25.2-6,50.3-12.8,75.8-17.8c19.7-3.8,39-7.9,56.7-17.9c7.6-4.3,15.8-6.6,24.8-7c12-0.5,23.9-2.6,35.8-2.7
		c27.5-0.4,54.3-5,81-10.9c7.2-1.6,14.3-3.4,21.5-4.7c12-2.2,23.8-2.6,34.9,4.2c5.3,3.2,11.2,4.7,17.1,1.8c3.6-1.7,6.8-4.2,10.1-6.5
		c31.7-22.2,62.9-45,95.2-66.2c13.9-9.1,19.7-20.8,20.8-36.2c0.2-2.7,0.2-5.3,0.1-8c-0.3-7.1,1.9-13.1,7.9-17.3
		c3.9-2.7,7.4-5.8,8.2-10.8c3.4-20.3,9.5-40,8.9-61c-0.5-17.6-5.4-35.8,4.1-52.9c-8.4-9.7-16.1-18.8-24-27.7
		c-57.4-64.9-114.9-129.7-172.3-194.6c-13-14.7-13-15.6,1.7-28.6c33.9-30.1,67.8-60.1,102-89.9c7.7-6.7,13.4-14.3,17.6-23.7
		c18.9-42.6,38.3-85,57.5-127.5c2.7-6,5.7-11.9,8.2-17c17.7-6.7,34-10.3,52-6.9c11.5,2.2,23.8,0.4,35.7,0.4
		c6.2-9.8,5.9-20.9,9.2-30.9c4.2-12.5,3.8-24.6-1.1-37c-2.4-6-4.1-13.1-3.4-19.3c1.2-11.3-1.3-21.2-7.2-30.4
		c-4.9-7.7-6.4-15.8-5.4-24.8c0.6-5.2-0.2-10.6-0.7-15.9c-0.5-5.2-1.4-10.4-2.2-16.4c5.8-3.1,10.9-6.1,16.1-8.6
		c42.1-20.1,84.2-40.1,126.2-60.2c4.1-2,7.9-4.5,12.4-7.2c-4-16.1-7.5-31.7-11.9-47c-3.6-12.5-4.6-25-2.4-37.6
		c1.6-9.4,1-18.5-0.6-27.7c-0.2-1.2-1.3-2.2-2.2-3.7c-4.7-0.9-9.6-1.9-14.5-2.8c-0.9-3.6-2-6.1-2.1-8.7c-0.8-16.2-8.5-29.2-18.6-41
		c-3.9-4.6-7.8-9.1-12.1-13.3c-8.3-8.1-12.2-17.1-7.9-28.7c2.5-6.8,3.8-14.1,6.4-20.9c2.4-6.3,3.8-12.4,1.1-20.3
		c-3.1,2.4-6,3.9-8,6.3c-15.6,17.7-34.3,23.6-57.5,17.5c-12.1-3.2-25-4.4-37.6-4.7c-8.9-0.2-17.7,4.3-26.8-1.1
		c-2.6-1.6-7.7,0.9-11.6,1.6c-4.4,0.8-8.8,1.8-13.5,2.8c-5.5-8.4-10.5-16-15.6-23.9c-5.2,1.5-9.5,2.6-15.3,4.3
		c-0.1-7.6-0.5-14.2-0.2-20.7c0.2-5.3,4.1-8.6,8.7-9.8c4.4-1.2,9.2-0.7,13.8-1.3c1.9-0.2,3.7-1.4,9.8-3.9c-31.8-3.2-59-3.8-86.2-4.7
		c-26.6-0.8-53.2-1.4-79.8-2.9c-27-1.5-54.3,0.5-81.7-3.8c-0.5-9.6-0.9-18.1-1.2-25.1c-11.6-16-31.7-16.4-43.3-28.7
		c0.9-9.9,6.9-14.8,14.1-16.3c8.7-1.8,14-6.9,19.4-12.9c6.1-6.8,13.5-10.5,23.1-9.5c3.9,0.4,8,0.1,11.9-0.6
		c9.8-1.8,20.1-3.3,26.1-12.5c6.5-10.1,14.8-18.4,23.3-26.8c0.7-0.7,0.5-2.5,0.8-4.8c-2.3-2.3-5.1-5.1-7.7-8
		c-3-3.2-4.1-6.7-0.2-10.9c10.2-1.5,20.9-1.5,30.9,2.7c5,2.1,9,6.9,13.5,10.5c9.7-3,17.3-9.6,25.4-15.3c8.7-6.1,17.2-13,26.9-16.9
		c13.7-5.5,22.4-13.7,24.2-28.7c0.8-6.8,3.4-12.8,9.5-16.8c2-0.1,4.1-0.7,5.9-0.2c13.4,3.5,23.2-2.1,31.2-12.2
		c1.6-2.1,3.8-3.8,5.5-5.8c7.3-8.6,15.8-16.7,10.7-29.9c-0.6-1.5,0.6-3.9,1.4-5.7c0.7-1.8,1.9-3.3,3-5.1c4.6-0.9,9.1-1.9,13.9-2.8
		c4.2-7.7,8.3-15.2,10.1-18.5c10.9-9.9,23.4-3.6,30.3-13.5c-2.8-2.2-5.3-4.1-8.8-6.9c9.2-11.8,3.5-20.9-5.5-29.5
		c-8.8-8.4-15.3-18.4-19.7-29.8c-4-10.2-10.2-18.4-19.8-24.3c-7.6-4.7-13.6-11.6-14.1-20.8c-0.6-10.6-4.1-19.3-11-27
		c-1.7-1.9-2.6-4.6-3.5-7.1c-7-18.7-14.2-37.4-20.7-56.2c-4.2-12.2-2.9-25-1.1-37.5c0.6-3.9,3.8-6.9,8.9-5.1
		c1.8,0.6,3.8,0.5,6.8,0.8c1.9-4.8,3.7-9.4,5.3-13.7c-13.1-14.8-28.7-25.6-38.8-41.3c7-13.3,10.9-26.7,9.8-41
		c-1.1-14.5-3-29.1-5.2-43.5c-3.2-20.4-7.4-40.6-10.5-60.9c-2.4-15.8-3.6-31.7-5.5-47.6c-1.5-12.9,1.7-23.7,13.1-31.2
		c0.5-0.3,0.1-2.2,0.1-3.5c-5.5-3.1-10.1-1.5-14.4,2.5c-5.3,5-10.5,10.1-16,15.4c-5-8.5-9.5-16.3-13.9-23.8
		c10.1-14.5,10.1-14.5,53.2-30.1c-5.4-6.5-11.5-8.7-19.3-6.6c-7.1,1.9-14.1,3.9-21.3,5.3c-4.6,0.9-9.5,0.8-12.6-5.3
		c1.7-2.2,3.2-5.2,5.6-7.1c8.2-6.8,16.7-13.2,25-19.9c2.5-2,2.8-2.6,5.9-11.4c-26.1,10.7-44.6,31.6-68,45.6
		c-4.1-4.7-6.8-9.4-10.9-12.2c-4.7-3.3-10.5-5-15.6-7.3c-1.8-8.7,2.2-15.2,3.8-22.2c1.6-6.8,1.3-14.1,1.9-20.9
		c8.9-8.3,22.3-11.3,25.6-26.1c-4.3,0.4-8.8-0.4-11.5,1.5c-6,4-11.4,9-16.4,14.2c-13,13.4-25.4,27.2-38.4,40.6
		c-4.6,4.7-12.3,5.6-16.4,1.5c-8.8-8.7-18.6-17.3-17.1-32.4c5.7-3.7,11.2-7.2,16.6-10.7c-2.6-4.4-5.2-8-6.9-12
		c-2-4.9-3.1-10.2-4.8-15.2c-1.4-4.2-6.2-7.1-4.8-13.7c3.3-1.7,7.1-4.4,11.4-5.6c7-2.1,14.2-3.7,21.4-4.8c11.6-1.8,21.7-6,29.6-15
		c11.5-13,26.6-20.1,42.9-24.2c15.4-3.8,31.3-6.4,47.1-8.5c12.2-1.6,23.5-4.5,33.3-12c6.9-5.2,13.7-10.6,20.9-15.5
		c8.2-5.7,16.6-11.1,25-16.3c20.7-12.8,43.4-20,67.2-24.3c5.8-1,11.6-2.9,17.1-5.2c1.7-0.7,2.3-3.8,3.9-6.7
		c-10-2.6-18.6-1.3-27.1-0.6c-17.4,1.4-31.4-8.1-31.2-30c0.1-5.1,0-10.3,0-15.6c-16.5,0.8-30.7,10.5-46.3,4.4
		c-0.6-11.4,0.6-15.1,7-18.6c4.1-2.2,8.6-3.4,12.9-5.2c12.3-5.1,24.4-10.6,36.8-15.5c10.5-4.1,15-11.8,16.1-23.2
		c-14.8-2.6-29.9-1.3-42.8-10.3c1-9.4,6.1-15,13.5-18.9c8.8-4.7,17.6-9.4,26.6-13.7c10.4-5.1,17.8-12.9,23.8-22.5
		c-4.2-3.3-7-0.9-9.9,0.4c-24,10.4-48.2,19.1-75.2,16.2c-5-0.5-10.6,1-15.5,2.8c-21.4,7.7-43.8,10.9-66.1,14.9
		c-22.8,4.1-46.6,3.8-68.5,12.7c-1.8,0.7-4,1.2-5.9,0.8c-15.7-2.9-31.8-4.6-44.5-15.9c-6.1-5.4-12.6-9.6-20.7-11.4
		c-7.6-1.6-12.4-7.1-16.3-13.7c-5.4-9.2-11.2-18.2-17.1-27c-10.5-15.5-20.9-30.9-25.3-49.5c-2.2-9.2-8.4-14.9-17.3-17.8
		c-3.2-1-6.3-2.3-9.5-3c-14.3-3.1-25.7-9.7-33.3-23c-5.5-9.6-14.6-15.3-25.8-17.1c-6.5-1.1-13-3.1-19.6-3.3
		c-5.7-0.2-10.4-1.8-14.6-5.3c-6.2-5-12.6-9.9-18.5-15.2c-14.6-13.2-26.8-27.9-27.1-49.1c0-2-0.1-4.1-0.8-5.9
		c-1.2-3-2.4-6.5-4.7-8.5c-19.9-17.2-29.9-40.5-38.8-64.3c-5.9-15.7-14.9-29.5-22.9-44.2c-23.3-1.3-45.7-2.8-67.5,8.5
		c-8.5-11.6-16.4-22.2-24.2-32.9c-3.5-4.9-7.1-9.2-12.7-12.4c-13.9-7.9-27.3-16.6-41-24.9c-5.6-3.4-11.3-6.6-17.7-10.4
		c-0.6,3.2-1.4,5-1.2,6.7c3.8,29.7,7.7,59.4,11.8,89.1c10,73.3,20,146.5,29.9,219.8c0.6,4.6,0.8,9.3,0.7,13.9
		c-0.1,4.2-4.8,7.5-8.5,5.6c-5.3-2.6-10.7-5.5-15.3-9.2c-15.1-12.4-32-18.9-51.6-18c-7.7,0.3-14.1-2.4-20.1-7.2
		c-16.7-13.5-35.4-23.6-54.9-32.3c-16.4-7.3-32.5-15.4-48.7-23.3c-9-4.4-17.6-9.5-24.1-17.4c-6.1-7.3-14.1-12.2-22.7-15.9
		c-14.7-6.3-29.4-12.6-44.2-18.6c-12.3-5.1-66.5-32.6-76.9-40.3c-6.5-4.8-13.1-5.8-20.6-4.6c-16.4,2.6-33,4.3-48.9,9.6
		c-22.2,7.4-45.2,11-68.4,13.6c-27.8,3.1-55.6,6.3-83.3,10c-42.9,5.8-85.7,11.7-128.5,18.1c-25.8,3.8-51.3,8.7-73.2,24.5
		c-6,4.4-12.8,6.9-20.3,7.8c-6.6,0.8-13,2.8-19.6,3.8c-15.6,2.2-29.7,7.3-40.1,19.9c-5.1,6.1-11.8,8.2-19.6,7.8
		c-4.6-0.2-9.3,0-14,0.5c-16.9,1.7-32.5,7.2-45.5,18.4c-20.2,17.4-39.8,35.4-52,59.9c-4.4,8.9-9.8,17.4-14.6,26.2
		c-1.8,3.3-2.8,7-4.3,10.8c6.2,4.8,11.5,8.8,16.6,13c3.1,2.5,6.1,5.2,8.8,8.1c3.3,3.7,0.7,9.9-4.3,10.5c-2.6,0.3-5.3,0.4-8,0.2
		c-17.3-1.6-34.5-3.2-51.7-4.8c-49.7-4.7-99.5-9.5-149.2-14.1c-34.5-3.2-69-6.2-103.5-9.4c-50.4-4.7-100.8-9.8-151.2-14.5
		c-52.4-4.9-104.8-9.5-157.2-14.2c-3.8-0.3-7.6,0-11,0c-7.8,16.4-7.2,30.6,2.9,44.5c6.3,8.7,12.7,16.9,22.1,22.7
		c12.5,7.6,24.5,16,37.7,24.8c0,9.2-0.5,18.5,0.2,27.8c0.6,7.9-2,14-6.2,20.4c-12,18.4-23.7,37.1-35.1,55.8
		c-4.1,6.8-7.2,14.2-10.7,21.4c-2.9,6-5.8,12-8.5,18.1c-7.4,16.4-14.8,32.7-21.9,49.2c-1.5,3.6-2.5,7.7-2.5,11.6
		c-0.5,26.5-7.2,51.5-20.3,74.4c-6.4,11.2-7,22.3-5.3,34.6c2.8,19.1,4.5,38.4,6.7,57.5c2.2,19.7-3.7,36.8-16,52
		c-3.3,4.2-6.9,8.2-9.8,12.6c-5.2,7.7-11.8,15.1-14.5,23.7c-4.4,13.8-12.5,24.9-20.5,36.3c-19.4,27.8-41.1,54.2-48.4,88.1
		c-9.4,3.1-18.1,2.5-26.7,2.7c-10,0.3-20,0-30,0.3c-38.6,1-77.2,2.2-115.8,3.1c-29.3,0.7-58.6,1.1-87.9,1.6
		c-7.3,0.1-14.4,0.8-22.1,3.8c-2.4,103.4-4.7,206.5-7.1,309.6c-0.1,2.6,0.1,5.3,0.5,7.9c0.2,1.2,1.1,2.3,2.1,4.4
		c1.9,0.4,4.4,1.2,6.9,1.2c32.6,0.9,65.2,2.1,97.9,2.5c55.3,0.8,110.6,1.1,165.9,1.7c7.3,0.1,14.7,0.5,21.9,1.4
		c2.4,0.3,4.5,2.2,6.6,3.3c0,2.7,0.5,4.9-0.1,6.6c-6.8,19.8-16.9,37.9-32.7,51.8c-9.9,8.6-16.5,18.9-22.5,30.2
		c-10.3,19.4-20.9,38.7-31.7,57.8c-3.3,5.7-7.2,11.3-11.6,16.2c-19.2,21.3-38.5,42.5-58.1,63.3c-4.9,5.2-11.1,9.4-17,13.6
		c-14.8,10.3-30,19.8-44.6,30.4c-12,8.7-21.6,19.7-26.2,34.4c-2.2,7-4.9,13.8-8.1,20.4c-5.6,11.5-12.4,21.8-24.7,27.7
		c-8.1,3.9-15,4.6-22.1-1.6c-7-6.2-13.9-12.4-21.2-18.2c-21.8-17.3-45-28.9-73.6-17.4c-10,4-19.1,2.6-28.5-3.1
		c-10.2-6.2-21.3-10.9-32-16.3c-10.8-5.5-21.6-5.9-32.6-0.3c-5.3,2.7-11,4.7-16.5,7.3c-20.2,9.4-40.1,7.5-59.7-1.7
		c-3.5-1.6-7.1-4-9.2-7.1c-4.8-7-11.6-11-18.9-14.2c-9.7-4.3-19.5-8.7-29.7-11.6c-17.3-4.9-34.8-9.2-52.4-12.7
		c-13-2.6-23.9-7-30.9-19.2c-4-6.9-9.4-12.9-14.5-19c-2.4-2.9-5.8-5-9.6-8.2c-3,3.9-5.7,6.7-7.5,10c-8.1,15.4-13.9,31.8-17.1,48.9
		c-2.6,14-7.3,27-14.7,39c-5,8.2-7,16.8-7.8,26.4c-1.8,21.9-4.7,43.7-7.2,65.6c-1.6,13.9-2.8,27.8-4.8,41.6
		c-0.9,6.5-2.9,12.9-5.4,19c-1.8,4.5-8.2,5.4-12,2.4c-2.1-1.6-3.9-3.6-5.8-5.4c-10.7-10.4-17.2-23.6-24.3-36.4
		c-17.5-31.4-35.3-62.7-52.7-94.2c-14-25.5-32.4-47-55.5-64.8c-13.1-10.1-22.9-9.5-34.5,3.1c-6.8,7.3-13.3,15-20.8,21.5
		c-19.2,16.8-31.3,37.7-38,62.1c-1.2,4.5-2.9,8.9-4.1,13.4c-6.9,25.2-17.3,49-28.3,72.5c-6.2,13.3-12.8,26.3-19.1,39.6
		c-12.2,25.5-17.3,53.1-22.5,80.6c-1.6,8.5,1.2,15.7,6.9,22c5.9,6.6,12.4,12,21.1,14.4c5.8,1.6,11.5,3.3,17.3,5
		c26.1,7.9,52.3,15.7,78.3,24c6.9,2.2,14.2,5,19.5,9.6c26,22.9,54.5,42.9,78.2,68.3c10.9,11.7,22.6,22.7,33.3,34.5
		c12.9,14.3,25.9,28.4,33.6,46.8c4.6,11,6.6,21.1,2.9,32.6c-3.9,12-6.9,24.3-10,36.6c-1.6,6.3,0.8,10.6,7.1,11.9
		c6.5,1.3,13.1,2.1,19.8,2.8c16.6,1.7,33.1,3.6,49.7,4.7c21.6,1.5,39.6,10.5,55.4,24.7c10.4,9.4,21,18.5,31.6,27.6
		c2.7,2.3,6,4.1,9.6,6.4c1.9-5.8,3.9-10.1,4.8-14.6c3.7-19.3,12.1-36.6,22.3-53.1c1.4-2.3,2.8-4.5,3.9-7
		c6.3-13.7,16.2-23.9,28.4-32.6c8.2-5.8,16-8.6,25.9-7.7c17.2,1.5,34.5,3,51.8,3.4c16.6,0.4,33.4,0.8,49.9-1.2
		c15.3-1.9,30.4-3.5,45.7-1.8c12.6,1.4,25.2,2.6,37.8,3.6c6.3,0.5,11.4,2.7,16.3,6.7c15,12.2,24,28.4,29.9,46.3
		c10,30.3,19.1,61,28.9,91.4c4.4,13.5,5.9,27.3,5.2,41.3c-0.4,8.7-1.8,17.3-1.8,25.9c0.1,31.4,2.1,62.6,11.8,92.7
		c4.9,15.2,11.3,29.8,17.3,44.6c3.5,8.6,8.6,16.7,11.4,25.5c4.3,13.6,11.1,25.6,19.2,37.1c6.9,9.8,13.3,20.1,21.5,28.8
		c9.9,10.7,13,22.5,11.8,36.5c-1.6,18.6-0.9,37.2,2.4,55.8c2.6,14.7,0.1,29.1-5.5,43.6c-6,2.6-12.1,5.2-18.1,8
		c-9.1,4.1-18.7,7.5-27,12.8c-17.4,11-35.9,17-56.6,16.2c-3.3-0.1-6.7-0.2-10,0.3c-4.5,0.7-8.9,2-12.7,2.9
		c-8.3,23.7-8.5,23.5-26.7,36.5c-5.6,4-11.5,6.3-18.3,7.2c-9.2,1.2-18.5,2.6-27.6,4.4c-5,1-9.8,2.8-16.5,4.7
		c3.5,3.7,5.6,6.1,7.9,8.3c12.9,12.5,26,24.9,38.7,37.6c17.1,17.2,30.1,36.3,34.6,61.4c5.2,28.8,13.9,56.9,20.6,85.4
		c2.3,9.5,6.6,17.1,14.4,23.1c7.3,5.7,13.8,12.5,21.1,18.4c53.3,43.4,100.3,93.6,150.8,139.9c2.4,2.2,4.8,4.7,6.5,7.5
		c3.6,6,9.3,9.4,15.2,12.6c5.9,3.2,11.5,6.7,17.5,9.6c9.3,4.4,16.4,11.1,22.6,19.2c11.7,15.4,24,30.3,35.4,45.9
		c5.5,7.4,10.4,15.5,14.3,23.9c8.7,18.7,16.4,37.9,24.9,56.7c2.7,6,5.6,12.3,10,17.1c21.8,24.3,43.5,48.8,73.3,64.1
		c8.8,4.6,16.9,10.7,25.3,16.1c24.4,15.4,50.9,25.9,78.6,33.7c9.3,2.6,16.4,0.9,24.3-3.8c22.3-13.3,44.9-26.1,67.6-38.8
		c5.1-2.9,10.9-5.4,16.7-6.1c18.5-2.3,37.1-3.7,55.7-5.2c3.7-0.3,7.5,0.8,11.9,1.3c0.6,5.6,1.3,10.1,1.4,14.7c0.2,8-0.1,16,0.2,24
		c0.4,10.5,12.4,25.9,22.7,27.4c16.4,2.4,33,3.9,49.6,5.2c6.6,0.5,13.3,0,20-0.4c7.1-0.4,12.7,1.7,17.8,7
		c14.7,15.3,29.9,30.2,45.1,45.5c0.2,1.7,0.8,3.7,0.5,5.6c-3.3,24.4-6.8,48.8-20.2,70.4c-5.6,9-10.1,18.8-14.9,28.3
		c-2.3,4.6-4.3,9.5-6.3,14c5.3,8,13,10.7,20.3,13.6c8.7,3.5,14.2,9.2,17.1,18.1c4.9,15.2,10.8,30.1,14.9,45.5
		c11.5,42.6,25.8,83.9,47,122.8c10.3,18.8,23.5,35.3,36.6,53.5C6462.9,6535.7,6649.3,6513.5,6837.8,6491.1z M8551.2,1243.2
		c-4.5-0.7-7.1-1.6-9.6-1.4c-20.4,1.9-39.6-3.4-58.9-8.6c-9.6-2.6-19.2-5.6-29-7.6c-9.1-1.9-18.3-3.3-27.5-3.8
		c-26.6-1.3-53.2-1.9-79.8-2.9c-9.5-0.4-18.4,0.8-27.3,4.4c-13,5.2-26.3,9.5-39.4,14.4c-8.5,3.2-17.1,3.9-25.4,0.7
		c-18.7-7.1-37.9-5.9-57.2-4.5c-10,0.7-20,0.3-29.9,1.5c-7,0.9-12.1-1.5-15.5-6.6c-4.4-6.5-8.6-13.5-11.3-20.8
		c-5.6-15.1-7.5-31-7.5-47.1c0-17.6-2.2-34.4-11.8-49.8c-5.6-9.1-7.9-19.5-9.5-30.2c-2.4-16.4-6.2-32.7-9.6-49
		c-4.1-19.6-6.6-39.4-5.7-59.5c0.2-4.5,1-9.3,2.7-13.5c4.6-11.6,9.7-23,15-35.2c15.3-8.5,32.6-11.9,51-10.9c17.3,1,34.6,0.9,51.9,1
		c36.7,0.3,73.3,0.3,110,0.6c113.3,0.8,226.5,1.7,339.8,2.6c8.7,0.1,17.3,0.4,26,0.8c21.4,1,42.1-1,62.7-8.5
		c35-12.8,70.6-24.1,106.1-35.2c11.5-3.6,20.5-9.1,26.3-19.7c1.3-2.3,3-4.4,4.7-6.5c3.9-4.8,5.9-10.2,5.8-16.5
		c-0.3-19.3,0.6-38.7-0.8-57.9c-3-39.8-7.4-79.5-11-119.3c-0.8-9-3.2-18.2,0.2-27.9c3.9-0.4,7.1-0.9,10.3-0.9c14,0.1,28,0.3,42,0.6
		c57.9,1,115.9,1.9,173.8,3.2c57.3,1.2,114.5,2.9,171.7,4.1c33.3,0.7,66.6,0.9,99.9,1.2c3.7,0,7.9,1.2,11.8-3.4
		c-2.7-6.9-8.1-12.8-12.7-19c-65.2-88.5-130.6-177-195.9-265.4c-17.8-24.1-35.7-48.2-53.8-72.1c-17.4-22.9-37.2-29.4-65-20.6
		c-10.7,3.4-22,7-31.1,13.2c-12,8.2-22.9,8.9-35.4,2.9c-5.4-2.6-11.5-3.5-16.8-6.2c-20-10.1-41.7-13.2-63.5-16.5
		c-18.8-2.8-35.2,2-50.8,12.8c-17,11.8-27.2,29.1-39.8,44.4c-0.8,1-1.6,2.2-1.9,3.5c-2.8,15-9.8,28.9-9.8,44.7
		c-0.1,21.7-5.3,42.2-17.6,60.5c-4.5,6.6-8.7,13.4-13.5,19.8c-27.5,36.5-19.9,31.2-61.2,52c-12.1,6.1-20.1,14.4-23,28.1
		c-2.2,10.3-5.5,20.7-10.1,30.2c-11.9,24.9-29.2,46-49.9,64.3c-7,6.2-14.2,12-21.4,18c-12.8,10.7-25.6,21.3-38.4,32
		c-3.7,3-7.5,5.6-13,3.8c-9-11-18.2-22.4-27.5-33.7c-6.5-7.9-14.7-11.7-24.8-8.6c-14.4,4.4-28.8,4.3-43.5,2.8
		c-18.3-1.8-35.7,1.2-52.5,9c-8.4,3.9-17.3,7-26.3,9.6c-15.4,4.4-30.9,8.8-46.9,2.1c-3-1.2-6.6-0.8-9.9-1.4
		c-9.8-1.7-18.3,0.6-26.2,6.6c-6.9,5.2-14.1,10.2-21.7,14.1c-32,16.5-64,32.8-97.4,46.2c-15,6-30.1,10.6-46,12.5
		c-17.7,2.1-23.2-0.8-31.8-17.1c-14-26.5-27.9-53.1-41.9-79.6c-2.4-4.5-5.4-8.8-8.4-13.7c-8.8,4.5-14.5,11.1-20.8,16.8
		c-134.4,121.6-268.8,243.1-403,364.9c-8.7,7.9-18.3,12.4-29.7,14.9c-88.4,19.8-176.7,40-264.9,60.1c-6.3,1.4-12.3,3.6-19.7,5.8
		c3.1,7.3,5.5,13.4,8.3,19.3c16.6,34.9,33.2,69.7,49.9,104.6c52.7,109.9,105.4,219.8,158.1,329.7c12.7,26.4,25.1,53,37.8,79.4
		c3.3,6.7,3.2,12.5-1.9,18.4c-7.8,9.1-15,18.7-22.9,27.7c-12.4,13.9-25.7,27.1-37.8,41.2c-16,18.7-32.1,37.4-36.9,62.9
		c-2.6,14-3.6,27.8-1,41.6c3,15.8,0.3,30.8-6.2,44.8c-12.9,27.7-26.9,54.9-40.5,82.4c-0.6,1.2-1.5,2.2-2.1,3.4
		c-10.7,21.5-23.1,42.2-31.5,64.6c-12.7,33.8-27.1,66.6-46.7,97c-7.2,11.2-14.9,22.1-21.3,33.8c-9.6,17.5-24.3,29.8-39.6,41.6
		c-3.6,2.8-7.5,5.2-11.6,8c1.4,15.1,2.7,29.6,4,43.2c12.6,7,24.7,4.8,36.6,4.5c7.3-0.2,14.7-1.4,21.8-0.4
		c15.8,2.3,31.4,5.6,47.1,8.8c4.5,0.9,9.3,1.8,13.2,4.1c14.9,8.8,30.9,16,43.3,28.5c7.2,7.3,15.4,9.7,25.4,8.2
		c10.7-1.6,21.3-1.1,30.8,5.3c5.6,3.8,11.1,2.8,17.1,0.4c13-5.2,26.4-9.3,39.2-14.8c14.3-6.1,27.7-6.1,42.2,0.2
		c16.2,7,31,15.1,41.3,30c2.5,3.6,6.1,6.5,9.7,10.2c4.9-7.8,4.4-19,16.5-18.4c7.6,5,7.3,13.8,9.9,21.1c1.2,3.4,3.2,5.8,8.2,3.6
		c0.4-4,0.8-8.6,1.3-13.1c0.5-3.9,0.6-8,1.8-11.7c2.4-7.6,5.9-8.8,17.9-6.5c-0.4,4.4-1.1,8.9-1.2,13.5c-0.2,13.3-0.9,26.8,4,39.5
		c1,2.7,3.6,4.9,5.5,7.5c8.8-3.5,14.7-8.3,17.7-16.5c-3.4-4.5-7.1-8.4-9.6-13c-2.1-3.9-4-8.2,0.1-12.8c1.9-2.1,1.8-6,2.9-9
		c4.1-11.3,12.7-16.3,24.6-15.4c10.1,0.8,17.7,5.9,24,13c7.3,8.2,15.7,9.1,25.4,5.9c5-1.7,10-3.9,15.1-5.1c9-2.1,14.7-7.2,19.6-15.3
		c10.9-18.2,26.2-33.5,35.9-52.7c0.6-1.1,1.7-2,2.7-2.9c6.9-6.2,10-14.1,9.5-23.2c-0.6-9.2,2.5-17,7.4-24.3
		c11.9-17.7,24-35.2,35.8-53c9.7-14.6,21.4-27.1,37.3-35.1c2.3-1.2,4.3-3.1,6.3-4.8c5.9-5,10.6-12.3,20.4-8.5c0.9,0.4,3-2,4.5-3.2
		c2.3-2,3.2-6.2,8.8-4.4c1.6,6,3.3,12.6,5.7,21.6c9-7,17.1-12.2,26.1-3.8c1,1,4.9-1,7.4-1.7c2.3-0.7,4.6-1.5,8-2.5c0,7,0,12.7,0,18
		c3.9,0.7,8.7,0.2,10.1,2.2c7.3,9.9,17.2,8.1,27.1,7.4c4.6-0.3,9.3-0.4,14,0c15.8,1.6,27.7,8,32.7,24.6c2.6,8.8,6.8,16.8,13.1,24.3
		c7.2,8.5,10,19.9,8.3,31.8c3.3,2.2,6.5,4.4,10.4,7c-5,15-0.2,29.5,1,44.6c4.4,0.5,7.8,1.6,10.9,1.1c11.1-1.6,20.9,1.1,30.5,6.6
		c6.3,3.6,13.3,6.3,20.2,8.6c18.4,6.1,36.2,8.1,52.4-6.4c8.2-7.3,18.9-9.8,29.8-9.8c7.3,0,14.5,1.5,21.8,2.1c2.9,0.3,5.9,0,10.5,0
		c-2.2-3.9-3.3-6.2-4.7-8.3c-13.5-19.2-29.3-36.2-47.3-51.2c-15.2-12.7-26.5-28-29.3-48.4c-4.1-29.8-13.6-58.3-23-86.7
		c-3.3-10.1-5.8-20.6-10-30.3c-12.5-28.6-27.9-56-35.8-86.6c-0.8-3.2-2.3-6.3-3.7-9.3c-5.5-12.2-11.8-23.7-23.8-31.3
		c-8.2-5.2-15.2-12.1-22.9-18.4c4-11.1,13.4-15.6,21.3-21.2c8-5.6,18-8.3,24.7-17.6c-5.8-4.9-11.3-9.5-16.9-14.3
		c-13.2-11.2-27.2-21.6-39.4-33.8c-32-32-63.3-64.9-94.8-97.4c-13.9-14.3-28-28.6-41.9-42.9c-4.1-4.2-9.2-7.9-9.2-15.5
		c5.5-7.6,14.2-8.6,22.8-8.4c8,0.2,16,1.2,23.7,3c8.7,2.1,17.1,2.9,25.3-0.7c5.9-2.6,11.6-2.4,17.6-1.2c5.2,1,10.5,2.3,15.8,2.6
		c14.8,0.8,30.7,0.7,41.4-10.1c14.9-15.1,31.8-21,52.2-19.4c8.5,0.7,15.8-2.1,22.4-6.9c7-5.1,14-10.3,20.4-16
		c8.3-7.4,17.3-9.5,27.7-6.2c5.1,1.6,10.1,3.3,15.3,4.8c8.2,2.3,15.9,1.2,22.9-3.7c12.5-8.8,25.8-17.1,27.6-34.5
		c0.1-0.7,0.3-1.3,0.4-1.9c3.1-11.8,18.2-22.1,31.7-15.8c6.5,3,12.9,6.1,20,9.4c5.8-5.6,10.3-11.9,12.3-19.9
		c1.4-5.8,2.6-11.8,5-17.3c1.4-3.4,4.2-7.4,7.4-8.6c11.1-4.3,22.7-7.5,34-11c12.6-4,25.1,0,37.6,0.3c11.8,0.3,21.2,3.6,31.3,10.2
		c12.9,8.4,28,12.1,43,1.8c4.7-3.2,11-5.9,16.5-5.7c9.2,0.2,16.5-3.5,22.8-8c11.5,1.9,16.5,11.7,24.7,17.4
		c7.8-11.3,15.9-21.1,22-32.1c11.3-20.4,27.5-36.2,46.2-48.9c13.1-8.8,18-20.7,20.6-34.7c0.6-3.2,0-6.7,0.3-10
		c1.2-11.3,5.8-17.5,17-18.7c11.3-1.3,20.7-8.4,32.4-8.5c5.2,0,10.9-3.6,16.7-10.3c-19.6-0.9-36.6-1.9-53.6-2.3
		c-17.3-0.4-34.6-0.3-52-0.5c-17.3-0.2-34.6-0.3-51.9-1c-17.1-0.6-34.4,2.2-52.3-1.6C8555.4,1284.2,8553.3,1264.5,8551.2,1243.2z
		 M8528.9,2487.8c-2.1-2.5-4.4-5.7-7.2-8.5c-13.4-13.9-26.9-27.7-40.4-41.5c-4.2-4.4-8.3-7.8-15.2-8.1c-3.9-0.1-8-4.1-11.3-7.1
		c-2.3-2.1-3.5-5.6-5.1-8.5c-29-53.2-58.2-106.3-86.6-159.9c-5.7-10.8-12.8-16.3-24.8-16.2c-4.6,0-9.2-1.5-13.9-1.7
		c-5.9-0.2-11.9-0.2-17.7,0.5c-8.1,0.9-15.2,4.6-21.5,9.9c-9.7,8.1-20.3,10.8-33.4,9.3c-14.9-1.7-28.7-5.7-41.6-12.7
		c-8.4-4.6-17-7.1-26.7-6.6c-7.2,0.4-14.8,1-20.4-4.1c-0.7-14.8-1.4-29.2-2.1-43.9c-2.8-2.1-5.9-4.4-9.8-7.3
		c3.6-10.8,2.6-21.7-4.6-30.1c-6.8-7.9-11.2-16.5-14-26c-4.1-14-14.1-20.5-27.6-22.3c-5.2-0.7-11-1.3-15.8,0.2
		c-12.9,4.1-23.7-6-36-4.6c-1.3,0.1-3.3-2.1-4.1-3.7c-1.8-3.5-3-7.3-4.3-10.7c-6.3-2.6-12.2-5-17.6-7.2c-6.7,3.4-12.5,6.3-19.5,9.8
		c-1.7-6.3-3.1-11.2-4.7-16.9c-5.8,1.7-11.8,5.4-17.4,1c-9.8,6.8-19.1,13.1-28.2,19.8c-4.3,3.1-9,6.2-12,10.3
		c-15.2,21.1-29.9,42.4-44.6,63.9c-5.7,8.3-10.1,17-9.4,27.8c0.6,8.9-3.1,16.7-9.1,23.6c-4.3,5-7.7,10.7-11.5,16.2
		c-5,7.1-9.9,14.1-14.9,21.1c-3.5,4.9-8.3,9.1-10.5,14.5c-5.8,13.7-16.6,20-30.2,23.1c-3.2,0.7-6.4,1.9-9.5,3.2
		c-12.5,5.1-23.3,3-32.4-7.2c-5-5.6-11.1-9.4-18.5-11.1c-9.9-2.2-18.4,2.4-17.9,12.4c0.3,6.7-5.2,10.6-4.3,17.7
		c1.7,1.8,3.8,4.3,6.1,6.6c3.8,3.9,4.4,9,1.8,12.9c-3.6,5.4-8.4,10.2-13.6,14.1c-4.4,3.3-10,2.8-15.8-0.3c-3.9-6.4-6-13.8-6.3-22
		c-0.4-9.3-1.5-18.6-2.4-27.8c-0.2-2.2,0.9-5.5-4-5.1c-5.9,8.8,1.5,19.6-4.3,30c-5.2-0.3-10.8-0.5-14.8-0.7
		c-6.9-7.4-3.8-17.2-10.6-23.3c-9,4.9-4.8,17-12.9,21.8c-7-3.6-10.8-10.1-14.8-16c-10.3-14.9-24.7-23.5-41.1-30.3
		c-12.7-5.2-24.2-5-36.6,0.3c-13.5,5.7-27.4,10.3-41.1,15.6c-6.6,2.6-13.3,3.3-19.1-0.6c-10.8-7.3-22.4-7.9-34.5-5.8
		c-8.7,1.5-15.8-1-21.8-7.2c-12.2-12.7-28.1-20.1-42.9-29c-3.4-2-7.2-3.8-11-4.5c-26.8-4.8-53.4-11.6-81.1-8.7
		c-6.5,0.7-13.3-0.2-19.9-0.9c-3.1-0.3-6.1-2.1-9.5-3.4c-2.1-15.4-4.1-30.4-6.2-46.3c-3.7,0.9-6.4,1-8.6,2.2
		c-19.5,10.5-32.5,27-42.9,46c-1.3,2.3-2.2,4.9-2.8,7.5c-2.6,12.4-5.6,24.7-7.3,37.2c-4.8,34.4-13.1,67.9-23.2,101.1
		c-4.1,13.3-6.5,27.2-8.8,41c-2.1,12.4,1.6,42.7,5.8,55.7c5.4,1,11.2,3.1,17.1,3.1c10.7,0,19.3,4.5,27.7,10c5,3.3,9.8,6.9,14.6,10.5
		c9.5,7.4,19.7,13.6,31.2,17.6c22.6,7.8,44.7,16.9,64.8,30.3c0.5,0.4,1.2,0.5,1.8,0.8c18.5,10.1,37.5,18.6,53.8,33.2
		c15.1,13.6,33.9,23.5,51.9,33.5c9.7,5.4,17.2,11.9,23.4,20.9c5.9,8.6,11.2,18,19.9,24.8c17.4-8,35.6-5.4,53.3-7.5
		c9.6-1.1,16.3,2.6,20.9,11.8c7,14.3,15,28.1,20.7,43.2c6.8,18,14.2,36.4,28.9,49.6c8.6,7.7,13.6,16.6,13.9,27.4
		c0.4,15.4,8.3,26.3,18.5,36.2c5.2,5.1,10.7,10,16.2,14.8c7.6,6.6,15.6,11,26.6,11.7c19.1,1.4,36.4,8,46.4,26.5
		c4.1,7.5,11,11.4,18.8,13.8c5.1,1.6,10.3,2.9,15.4,4.4c11.6,3.5,19.4,10.4,23.2,22.5c3.2,10.1,7.2,20.1,12.6,29.2
		c9.5,16.1,20.3,31.3,30.3,47c3,4.7,6.4,8.6,11.9,9.9c10.1,2.3,17.4,9.1,25.8,14.5c15.3,9.8,31.8,16.6,50.8,9.1
		c5.5-2.2,11.6-2.8,17.6-3.7c19.7-2.9,39.4-5.6,59.2-8.5c15.8-2.3,31.5-5.4,46.3-11.6c8.1-3.4,16.4-4.5,25.3-4.1
		c16,0.7,31.9-0.4,46.9-7.4c9-4.2,18.3-7.8,27.7-11.3c3.4-1.3,7.2-1.5,11.8-2.4c0.7,9.9-1.2,16.9-7.5,23c-7.2,7-14.5,13.5-24.1,17.4
		c-8.6,3.5-16.8,8.2-24.6,13.1c-2.9,1.8-4.3,5.8-6.4,8.8c13.3,10.5,29.8,2.3,43.7,10c-1.8,5.2-3.4,9.4-4.7,13.7
		c-2.7,8.8-8,15-16.7,18.4c-12.4,4.9-24.6,10.1-36.9,15.3c-4.9,2.1-9.8,4-14.5,6.5c-1.3,0.7-2.4,3.5-2,4.9c0.3,1.4,2.8,3.4,4.1,3.2
		c7.8-1.2,15.6-2.9,23.4-4.6c6.3-1.3,12.4-4.4,20.5-1.7c-1.2,6.5-2.7,12.2-3.3,18c-1.7,17.3,6.6,26.8,23.7,27.1
		c6.6,0.2,13.3-0.5,20-0.5c5.1,0,10.3,0.4,17,0.7c-1.6,7-2.9,12.5-4.3,18.8c-11.9,2.8-22.8,5.5-33.8,7.8c-15.7,3.4-30.5,8.7-45,16
		c-18.6,9.4-35,21.8-51.3,34.4c-11.4,8.8-23.8,14-38.4,14.8c-17.3,1-34.2,4.8-50.8,9.9c-13.6,4.2-26.3,10.3-36,20.7
		c-9.6,10.4-20.6,16.3-34.6,17.5c-5.2,0.4-10.5,2-15.5,3.6c-3.5,1.1-6.7,3.3-10.2,5.1c1.7,4.8,3.2,8.5,4.5,12.3
		c1.5,4.3,2.8,8.7,4.1,12.7c2.8,0.6,4.9,0.8,6.6,1.6c2.3,1,6,2.6,6,3.9c0,2.9-1.3,6.7-3.4,8.4c-6.2,4.9-13,8.9-19.5,13.1
		c5.4,14.7,7,16.8,19.4,24.8c15.1-12.7,29.5-26.3,41.4-42.4c10.4-14.1,23.6-21,42.3-15.5c-3.4,16.7-16.7,24.6-28.8,32.6
		c0.1,6.9,2.3,12.4-1.2,18.4c-2.8,4.9-6.5,10.3-4,18c3.4,1.5,7.7,3.1,11.6,5.4c3.8,2.3,7.2,5.4,11.7,8.8
		c11.4-8.7,22.5-18.3,34.7-26.2c12-7.7,22.9-18.3,38.2-19c3.9,4.9,4,9.4,0.5,13.3c-4.9,5.4-10.1,10.7-15.8,15.1
		c-5.7,4.5-11.3,8.8-16.7,15.4c6.8,2.3,11.6,0.6,16.4-1.3c7.2-2.7,14.4-2.3,21.5,0.5c8,3.1,9.7,8.2,6.9,19.4
		c-13.3-1.7-24.3,5.3-35.9,10.2c-5.5,2.3-11.2,4.4-13.7,10.7c1.4,5.3,3.1,10.2,9.6,10.9c18.9-15.5,23.3-16,43.8-4.3
		c-2.9,2.2-5.4,4.2-8,6c-2.8,1.9-5.8,3.3-8.4,5.3c-11.5,8.8-13.2,22.1-3.3,32.6c3.9,4.2,6.2,8.5,7,13.8c1.4,8.5,2.9,17,3.6,25.6
		c0.8,10,6.2,16.3,13.3,22.1c5.3-5.4,0.2-13.3,6.3-16.9c6.7-0.5,6.4,5.8,9.5,8.6c3.1,2.9,7.8,4.2,12.7,6.6c2.2,9.8,4.4,20.1,7,31.7
		c4.6-1.2,8.6-2.2,12.9-3.3c-0.7-7-1.3-12.8-2.1-20.2c4.7,0.3,9.2-0.7,11.8,1.1c3.5,2.5,5.9,6.9,8.2,10.8c2,3.4,3.1,7.3,5,10.8
		c1.9,3.5,6.5,5.1,8,3c1.3-1.9,1.4-4.7,1.6-7.1c0.1-1.1-1.1-2.4-1.8-3.5c-4.1-6.7-4.6-13.6-2.1-21.1c1.5-4.3,1.9-9,2.9-13.5
		c9.8-4.2,19.1-8.2,30-12.9c0.5,8.4,0.7,15,1.3,21.5c0.3,3.2,0.3,7.7,2.3,9.3c9.2,7.3,11.1,21.6,24.5,25c2.5,0.6,4.6,4.6,6.2,7.4
		c1.8,3.4,2.8,7.3,4.2,11.1c9.8,2.8,17.3,1.9,21.7-8.4c1.3-3,2.9-6.7,5.5-8.1c6.7-3.6,8.4-9.7,10.2-16.2c1.3-4.9,5-7.7,10.9-7.9
		c3.4,4.4,7.1,9.1,10.4,13.3c11.4,0.8,11,1.6,20.4,6.9c13.3,7.5,26.8,15.2,41.1,20.2c17.2,6,30.1,16.8,41,30.4
		c13.4,16.9,30.3,27.2,53.2,31.2c18.5-12.1,18.5-12,40.7-13.2c7.2-0.4,14.4-1.6,21-2.4c8.5-12.2,16.4-23.5,24.5-35
		c-1.4-3.3-3-6.8-4.7-10.8c8.2-7.3,16-14.2,23.9-21.3c-2.1-5.1-3.9-9.3-6.1-14.5c8.5-9.3,17-18.5,25.6-27.9
		c-1.7-3.8-3.2-7.3-5.1-11.3c2.4-0.5,4.1-1.1,5.9-1.3c2.4-0.2,4.8,0,8.4,0c-2.2-6.2-3.9-10.9-5.7-16.1c8.5-6.4,16.4-12.3,24.1-18.1
		c-0.8-5.3-1.5-9.8-2.1-13.7c8.4-12.4,20.1-19.4,33.3-21.8c18.3-3.3,37-4.1,55.6-5.9c8.7-0.8,15.6,2.6,20.9,9.4
		c6.1,7.8,12.2,15.6,17.9,22.9c64,1.8,142.8,0.7,159.6-2.6c10.5-26.6,23.4-52.9,25.6-82.8c0.4-5.9,1.8-11.8,2.9-17.7
		c5.5-30.4,2-59.5-10.7-87.7c-4.2-9.3-9.4-17.4-17.4-23.8c-6.8-5.4-13-11.4-18-15.8c-0.7-8.1-1.5-13.4-1.6-18.7
		c-0.3-17.8-6.4-33.8-15.1-49.1c-2.6-4.6-5.7-9-8.2-13.7c-1.4-2.7-2-5.8-3.3-10.1c40.8-1.1,79.8,4.5,118.4,1.9
		c23.6-22.8,126.1-137.9,134.8-151.6c-2.7-3.4-5.3-7.1-8.4-10.5c-47.5-54-95.2-107.9-142.6-162c-5.2-5.9-10.5-12.4-13.4-19.6
		c-5.1-12.6-12.5-23.3-21.4-33.3c-19.6-21.8-43.2-32.3-72.9-27.8c-8.4,1.3-17.1,1-24.4,1.3c-2.4-1.9-3.6-2.5-4.4-3.6
		c-17.4-23-27.4-50.2-42.1-74.7c-0.3-0.6-0.5-1.3-0.6-1.9c-3.6-18.6-13.5-34.6-20.9-51.7c-20.2-46.7-51.8-85.1-85.9-121.8
		c-8.6-9.3-19.2-11.7-30.8-8.6c-4.6,1.2-8.7,1.5-13.4,1.5C8554.3,2484.8,8543.3,2486.5,8528.9,2487.8z M8995,3491.1
		c-36.9-4.3-72.6-8.6-108.3-12.7c-15.9-1.8-31.8-4.4-47.7-4.5c-40.6-0.3-81.3,0.7-121.9,1c-13.9,0.1-27.9-0.1-41.1-0.1
		c-6.1-8.1-11.4-14.9-16.5-21.9c-5.5-7.6-12.5-11.6-22.2-10.6c-15.9,1.7-32,2.2-47.6,5.2c-11.7,2.2-23,7-30.2,19.2
		c0,5,0,10.8,0,15.9c-7.8,5.7-14.7,10.8-21.1,15.5c4,13.9,4.3,14.2-3.1,24.5c-5.4,7.5-11.8,14.3-17.8,21.4c-2.9,3.5-6,6.9-8.6,9.9
		c2.3,5.8,4.2,10.6,6.2,15.5c-8.2,7.1-15.6,13.5-22.7,19.6c2,5.3,3.5,9.4,5.4,14.2c-16.1,8.1-19.8,25.3-31.6,37.6
		c-8.6,0.5-17.8,1.5-27.1,1.3c-10.6-0.3-20.1,2.3-27.6,9.4c-7.8,7.2-15.3,6.5-23.7,2c-3.5-1.9-7.2-3.4-10.9-4.9
		c-13.9-5.6-25-14-34-26.5c-9.7-13.5-22.8-23.5-39.6-28.9c-13.2-4.2-25.4-11.5-37.8-18c-5.8-3-10.4-8-18.1-6.3
		c-1.8,0.4-4.6-2.1-6.5-3.7c-2.8-2.4-5.3-5.3-8.8-9c-2.7,6.4-3.4,13.2-6.9,15.3c-8.7,5.1-11.6,14.2-17.3,22
		c-6,0.7-11.9,1.9-17.7,1.7c-2.9-0.1-7.6-2.4-8.1-4.5c-2.8-11.4-10.8-17.6-20.3-22.8c-1.6-0.9-3.5-2.8-3.7-4.5
		c-1-8.3-9.8-10.5-12.8-16.9c-2.6-6.7,2.3-14.3-2.2-21.1c-7.1,2.2-13.3,4.2-18.9,5.9c-6.5,14.3-2.9,26.7,4.1,37.5
		c-3.2,6.6-5.6,12.1-11.4,13.6c-14-4.2-13.5-19.1-22.2-28.6c-1.3,7.5-2.2,13-3.2,18.7c-5.9,1.8-10.9,3.4-16,4.8
		c-1.1,0.3-2.5-0.5-4-0.9c-5.4-7.2-5.2-16.1-6.7-24.5c-1.7-9.3-3-9.8-14.5-7.5c-4.6,2.9-1.5,10-9.3,10.7c-4.4-5.8-9-12.2-14.1-18.4
		c-4.4-5.4-5.9-11.3-6.4-18.3c-0.6-9.1-2.8-18.1-4.4-27.1c-2.4,4.5-2.9,8.9-2.3,13.1c4.6,33.6,12.4,66.6,15,100.5
		c7.4,17.4,1.6,34-3,50.7c-0.7,2.5-1.3,5-2,7.8c12.3,14.2,27.7,25.1,38.1,40.6c-3.3,7.9-4.9,15.8-11,20.5c-4.7-0.2-8.4-0.4-12.5-0.6
		c-2.8,11.8-2.1,22.2,1.6,32.5c6.5,18.2,13.2,36.3,20,54.3c1.4,3.7,3.1,7.6,5.7,10.4c5.8,6.2,8.7,13.4,9.2,21.5
		c0.6,10.1,5,18.1,13.6,23.1c9.8,5.7,15.6,14.2,19.9,24.2c4.9,11.8,11.3,22.6,20.9,31.3c7.6,7,12.9,15.2,11.6,26.2
		c-0.1,0.8,1.6,1.8,2.6,2.8c18.6,1.1,34.6-5.9,51-15.8c-6.5-10.7-19-15.1-21.6-28.7c1.7-3.2,4-7.6,6.2-11.7
		c4.6,0.9,7.7,1.5,10.4,2.1c7.3-4.2,6.1-11.7,8.4-17.8c2.4-6.5,1.5-14.4,7-20.6c9.2,6.7,12.5,14.6,10.8,24.6
		c-0.6,3.3-1.2,6.6-1.9,9.8c-1.3,6.3-0.2,12.4,4.6,16.5c9.6,8.2,13.8,19.3,17.8,30.7c1,2.9,2.8,5.5,4.5,8.7
		c17.5-4.6,28.1-19.1,44.6-26.4c0.2,3.8,0.9,6.2,0.4,8.4c-1.8,7.8-4.2,15.4-6,23.2c-2.5,10.9,0.2,18.4,9.4,23.6
		c5.1,2.8,11.1,4.4,16.9,5.5c5.2,1,10.6,0.2,15.9,0.6c9.4,0.7,19.4,1.9,26,8.9c16.3,17.3,36.7,22.7,59.3,24.1
		c6.8,0.4,13,0.5,19.6-1.5c9.5-2.9,19.3-5.1,29.1-7c8.9-1.8,17.2-0.1,24,6.7c3.8,3.7,7.9,7.2,12,10.5c5.1,4.1,10.1,8.8,18,8.7
		c7.9-10.3,16.6-20.4,23.9-31.4c7.2-10.7,17.8-14.5,29.1-14.3c14.3,0.2,27.6-2.9,41.2-6c16.9-3.9,33.6-8.3,50.6-11.3
		c13.2-2.4,25.8-6,37.9-11.9c32.4-15.6,64-32.9,94.6-51.7c7.3-4.5,14.9-8.3,22.1-12.3c12.9,10.3,25,19.6,36.6,29.5
		c6.7,5.7,13.8,7.1,22.2,5.7c32.8-5.4,65.7-10.5,98.6-15.9c1.9-0.3,3.6-1.4,6.6-2.5c-1-5.1-1.6-10.3-2.9-15.2
		c-5.5-19.9-11.4-39.7-16.8-59.6c-1.1-4.2-0.7-8.8-1-13.2c16.4-7.2,31.7-13.6,46.8-20.6c11.6-5.4,23.4-9.6,36.5-8.9
		c1.9,0.1,4-0.4,5.8-1.2c0.9-0.4,1.8-2,1.9-3.1c0.1-1.1-0.5-2.9-1.4-3.4c-1.6-1-3.7-1.9-5.5-1.8c-32.5,1.9-65.1,3.9-97.2,5.9
		c-2.2,5-3.9,9-6,13.7c-5.9-1.7-10.9-3.2-17.2-5.1c-10.5,7.6-21.8,15.6-33.9,24.3c-7.3-6.2-14.3-12.2-21.3-18.2
		c-3.9,1.4-7.4,2.7-11.4,4.1c-11-9-22-17.4-29.7-29.7c2.1-3.2,4.7-5.7,5.6-8.7c4.8-16.1,16.5-26.5,28.7-37
		c12-10.4,24.8-20.4,32.7-34.8c4.5-8.2,10.1-13.5,20.3-13.4c3.4,0.1,8.7-2.3,10-5c4.7-10,10.6-19.9,11.4-32.1
		c-10.5-8.2-20.9-16.3-31.2-24.3c8.4-15.5,13.9-21.6,25.4-27.9c11.3,7.7,22.7,15.5,34.5,23.5c4.7-8.6,8.2-16.5,13-23.5
		c6.4-9.3,16.2-16.9,20.2-26.9c4-10.1,2.8-22.2,3.8-33.5c0.6-7.3,1.5-14.6,1.5-21.9C8996.6,3507.1,8998.7,3499.7,8995,3491.1z
		 M7903.9,4123.7c1.1,3.4,1.5,5.1,2.2,6.7c4.9,11.2,4.8,16.6-3.4,22.7c-5.5,4.1-9.8,8.6-13.6,14.2c-7.8,11.4-18,19.5-32.7,19.9
		c-4.6,0.1-9.3,1.7-13.8,1.5c-8.8-0.6-15.6,2.4-20.9,9.2c-5.1,6.5-10.9,11.2-19.6,12.4c-4.4,0.6-8.9,3.1-8.6,10.5
		c5.4,2.5,11.6,4.9,17.2,8.2c24.2,14.3,23.8,11.8,24.8,38c0,0.6,0.6,1.1,1.5,2.9c11.8,1,24.2,2.7,36.7,3.1
		c40.6,1.6,81.2,2.8,121.8,4.1c26.6,0.8,53.3,1.5,79.9,2.4c3,0.1,6,1.6,9.1,2.5c-5.2,14.2-5.9,14.8-16,14.8c-3.3,0-6.6-0.9-9.9-0.5
		c-6.3,0.8-8.5,5.5-7.4,15.1c3.8-0.4,7.6-0.7,11.7-1.1c5.6,8.3,11.1,16.4,16.5,24.4c3.7-0.4,6.4-0.4,8.9-1.1
		c7.7-2.1,15.2-5.3,22.9,0c1.4,1,3.9,0.8,5.8,0.6c18.8-2.6,37.2,1,55.5,4.6c17.2,3.4,31.4-1.7,43.3-14.2c5.1-5.3,10-10.7,15.3-15.8
		c5.7-5.6,12.4-9.3,18-9.8c12.5,8.2,1.8,19.1,7.1,27.1c11.2-2.3,12.3-1.7,15.3-7.4c5.3-10,13.3-11.1,23.3-11.7
		c44.6-2.7,89.3-1,133.9-0.7c38.6,0.3,77.2,2.2,115.8,3c25.3,0.5,50.6,0.6,76,0.5c10.2-0.1,19.5,1.9,28.7,6.6
		c17.1,8.9,34.7,16.9,51,24.7c2.7-0.6,4.1-0.7,5.2-1.2c47.9-23.3,95.8-46.7,143.7-70.1c2.5-1.2,4.4-3.7,7.5-6.4
		c-25.2-10.4-49-17.4-75.1-16.6c-28.6,1-57.3-0.1-85.9-0.4c-3.8,0-7.6-1-12.2-1.6c1.4-15.4,0.1-30,4.8-44.5c9.5-3.2,18.8-6.3,28-9.4
		c0-6.5,0-11.7,0-16.3c-15.6-9.6-32.7-7.6-49.3-9.5c-0.8-3.3-1.6-5.8-1.9-8.4c-3.1-23.1-5.4-46.3-9.4-69.3
		c-1.8-10.5,1.1-17.7,7.8-25.1c20.6-22.7,40.8-45.7,61.1-68.7c3.9-4.4,7.4-9.1,11.4-14c-2.6-1.6-4.1-3.3-5.8-3.6
		c-14.5-1.9-29.1-3.7-43.6-5.3c-2.6-0.3-5.3,0.2-7.9,0.8c-15.6,3.3-31.2,6.8-46.9,10c-24.1,4.8-47.4,13.5-72.5,12.8
		c-7.2-0.2-14,3.7-18.7,10.1c-5.5,7.5-11.4,14.7-17.1,22.2c-3.9,5.2-7.7,10.5-11.4,15.6c-3.2-0.8-5.5-0.9-7-1.9
		c-8.2-5.6-17-10.6-24.2-17.3c-8.6-8.1-17.7-11.3-29-8.6c-5.2,1.2-10.5,2.1-15.5,4c-12.3,4.8-24.8,4.3-37.4,2.6
		c-4.6-0.6-9.2-2-13.8-2.1c-11.4-0.1-20.4-5.5-28.9-12c-2.6-2-5.1-4.3-7.6-6.5c-7.8-6.8-16.4-11-27.2-10.7
		c-6.6,0.2-13.4-0.1-19.9-0.9c-20.2-2.7-31.4-18.6-27.1-38.2c0.9-4.2,4.6-8.3,0-13.6c-12,6.3-22.1,16.8-36.5,19.1
		c-5.7-5.8-6.7-13.3-9.2-20c-2.6-6.9-5.1-13.8-11.1-18.6c-8.3-6.6-9.7-15.4-8.8-25.2c0.4-4,1-8,1-11.9c0-2.1,1.1-5.7-4.2-5.3
		c-1.1,3.5-2.9,7.1-3.4,10.9c-1.5,12.8-8.1,19.9-21.9,19.9c1.4,9.1,8.4,12.6,13.3,17.7c4,4,10.4,6.2,10.4,14.9
		c-14.5,5.4-27.6,15.1-44.1,16.4c-6.2,0.5-11.7,2.7-14.9,8.6c-3.2,5.9-8.9,7.8-14.8,9c-5.2,1.1-10.4,1.6-16,2.4
		c-3.3,6.1-6.5,11.9-9.4,17.8c-2.2,4.4-5.2,7.5-10.4,8.3c-3,0.4-5.9,2-8.6,2.9c2.5,18,2.4,18.5-8.2,31.7c-2.5,3.1-5.1,6.1-7.8,9.1
		c-15.9,17.3-15.9,17.3-39.5,16.2c-0.6,0-1.2,0.4-2.9,1.1c-4,4.4-5.8,10.6-6.8,17.3c-1.4,9.8-6.2,18.1-15.7,21.5
		c-16,5.8-29.1,16-42.3,26.1c-5.3,4-11.1,7.5-17.1,10.2c-4.2,1.9-10.2,3.1-12.8-1.5C7926.2,4123.6,7915.4,4125.7,7903.9,4123.7z
		 M9438.6,899.8c0.5-5.3,1.1-9.8,1.2-14.4c0.6-37.3,1.1-74.6,1.6-111.9c0.3-23.3,0.5-46.6,0.9-69.9c0.2-8.3-1.5-15.5-7.1-22.2
		c-8.1-9.7-15.6-20-22.6-30.5c-5.8-8.5-12.9-12.5-23.3-12.3c-17.3,0.4-34.6-0.2-51.9-0.5c-60.6-1-121.1-1.9-181.7-3.2
		c-57.2-1.2-114.5-2.8-171.7-4.1c-27.3-0.6-54.6-0.9-81.9-1c-3.7,0-7.4,1.3-11.6,2.2c2.8,31.5,4.8,62,8.4,92.4
		c4.3,35.8,5.9,71.6,5.1,107.6c-0.1,6.9-1.4,13.1-5.9,18.6c-3,3.6-5.9,7.3-8.2,11.3c-4.9,8.7-12.5,13-21.8,16
		c-40.6,13-81,26.4-121.4,39.9c-3.5,1.1-6.5,3.5-10.4,5.7c4.4,7.3,8,13.6,11.8,19.8c21,34,42,68,63.2,101.9c4,6.3,6.7,12.6,6.8,20.4
		c0.1,16.6,1,33.2,1.9,49.8c0.2,4.4,1.3,8.7,2.1,13.6c7.1,0.3,13.1,0.8,19,0.7c41.9-1.1,83.8-2.3,125.7-3.4c0.7,0,1.3,0,2,0
		c11.7-1.3,18.5-8,20.9-20.1c2.7-13.6,5.7-27.2,8.5-40.8c1-5.2,4.2-8.7,8.9-9.8c6.6-1.6,12.1-4.4,17-9.4c4.8-5,10.8-4.5,16.6-1.3
		c2.9,1.6,5.9,3.3,8.5,5.3c7.8,6.1,16.6,8.1,27.3,6.9c6-7.7,14.3-12.5,25.3-11.1c1.9,0.2,4-0.5,5.8-1.2c11.7-4.3,23.6-3.6,35.5-0.9
		c15.4,3.5,30.5,1.7,45.3-2.8c8.3-2.5,16.4-5.6,24.5-8.5c11.4-3.9,23-6.3,35.2-6.4c7.9-0.1,15.8-1.8,23.6-3.4
		c22.1-4.4,39-19.7,59.1-28.3c2.3-1,4-3.5,5.8-5.4c6.3-6.9,13.3-13.3,18.5-20.9c12.6-18.4,27.1-34.5,47-45.3
		c0.6-0.3,1.2-0.7,1.6-1.2C9412.9,910.9,9424.1,903.1,9438.6,899.8z M8967.5,1133.6c-16.7,0-33.3-0.1-49.9,0
		c-17.3,0.1-34.7,1.2-51.9,0.5c-16.4-0.7-33,3.5-50.6-1.2c-0.6-7.5-1.4-14.7-1.6-21.9c-0.3-12-0.5-24,0.1-36
		c0.5-10.5-2.6-19.2-8.2-28c-23.5-37.1-46.4-74.7-69.6-112c-2.7-4.4-6.1-8.5-9.2-12.8c-27.3,0-54,0.5-80.6-0.1
		c-89.2-2-178.4-0.6-267.6-3c-72.5-2-145.2-0.5-217.8-1.1c-15.8-0.1-30,3.7-42,10c-4.6,10.9-7.8,20.4-12.5,29.1
		c-4.3,8-6.4,16.1-5.3,24.9c2.1,15.8,4.2,31.6,6.9,47.3c2.3,13.8,6.7,27.3,8,41.1c1.5,16.4,6.4,31.3,14.1,45.4
		c5.3,9.7,7,19.8,7.5,30.5c0.7,13.9,1.8,27.9,3.8,41.7c2.3,16,6.5,31.4,22.7,42.4c11.8-0.8,25.1-1.2,38.2-2.6
		c16.7-1.8,33.1-2.2,49.2,3.9c9,3.5,18.1,3.5,27.3-0.1c11.8-4.5,23.9-8.2,35.7-12.7c7.5-2.9,15-4.9,23.2-4.7
		c29.3,0.5,58.6,0.6,87.9,1c4,0.1,8,0.5,11.9,1.4c21.3,5,42.7,9.9,63.9,15.4c12.3,3.2,24.6,5.6,37.4,5.2c5.7-0.2,12-1.8,17.9,3.1
		c2,19.1,4,38.7,6,58.1c3.1,1,4.9,2.1,6.8,2.1c67.9,0.9,135.8,1.8,203.7,2.5c3.3,0,6.5-0.7,10.3-1.1c2.2-4.3,4.5-8.3,6.3-12.5
		c3.1-7.3,8.6-11.6,15.8-14.2c3.1-1.1,6.5-1.8,9.5-3.1c22.5-9.7,41.6-23.4,53.7-45.6c2.8-5.1,6.6-10.6,11.4-13.2
		c8.3-4.5,10.3-11.4,11.8-19.5c3.2-16.8,3.6-16.9,20.6-16.3c2,0.1,3.9,0,6.2,0c4.6-3.7,8.7-9.5,13.9-10.7c8.9-2,13.3-7.8,18.5-13.8
		c2.4-2.9,6.5-4.4,9.9-6.4C8965.8,1143.7,8967.9,1139.3,8967.5,1133.6z M9229.6,3214.3c-4.1,0.6-7.4,0.7-10.6,1.5
		c-23.8,6.3-47.3,4.3-70.9-1.7c-72.2-18.3-144.5-36.4-216.9-54.2c-10.9-2.7-22.2-4.5-33.4-5c-27.9-1.2-55.9-1.6-83.9-2.1
		c-3-0.1-6.8-0.8-8.4,3.2c0.1,1.5-0.2,3,0.4,4c12.2,20.3,20.9,41.6,19.4,65.9c-0.3,5.1,2.7,8.8,6,12.1c5.2,5.1,10.7,10,15.9,15.1
		c3.3,3.3,7.1,6.4,9.1,10.4c14,28.4,23.2,57.6,18.5,90.3c-5,35-9.7,69.8-24.8,102.3c-1.5,3.3-1,7.5-1.5,12.1
		c16.2,1.9,31.3,3.8,46.5,5.5c32.4,3.8,64.8,7.4,97.2,11.4c3.7,0.4,7.2,2.1,10.9,3.3c-1.1,21-2.6,40.9-3.1,60.8
		c-0.4,16.7-4.7,31-17.3,42.7c-6.8,6.3-12.3,14.1-14.6,23.5c-0.6,2.4-1.8,6.1-0.6,7.4c5.1,5.8,2.3,11,0.2,16.6
		c-8.2,21.8-16.3,43.6-24.4,65.5c-0.4,1.1-0.2,2.5-0.3,4.5c3.1,2.7,6.5,5.6,9.4,8.1c2.5,11.8-1.6,23.4,3.6,35.1
		c20.5,2.5,40.8,4.9,61,7.3c19-19.2,37.4-37.5,55.3-56.3c3.6-3.7,5.9-8.8,8-13.6c9.5-21.7,23.1-39.8,42.6-54
		c11.1-8,22-18.2,22.9-33.5c1.2-22.1,10.5-41,21.3-59.4c6-10.3,13.5-19.6,14.9-32.3c0.7-6.8,6.4-11.6,11.9-15.3
		c4.4-3,9.3-5.1,14-7.8c6.9-4,14.2-7.5,20.5-12.3c7.5-5.6,15.2-12.1,15.6-22.2c0.5-17.7,7.7-33.6,12.2-50.2
		c4.4-16.6,11.9-30.9,24.1-42.9c8-8,15.6-16.4,19.4-27.5c2.1-6.1,6.5-9.7,12.7-11.6c3.1-0.9,5.9-2.9,8.8-4.4
		C9313.9,3304.2,9255.8,3239.2,9229.6,3214.3z M8892.2,4247.5c0.7-9.5,1.8-18.1,1.8-26.7c0-8.2,3.3-13.6,10.1-18
		c11.1-7.3,22.3-14.6,32.3-23.3c17.9-15.6,38.9-25.7,60.8-33.3c9.1-3.2,14.6-7.3,14.1-16.2c-0.7-13.1,5.9-22.6,12.6-32.7
		c17.3-26.1,34-52.6,51.1-78.8c6.6-10.2,8.1-20.8,5-32.4c-4.6-17.3-8.8-34.8-13.1-52.2c-0.6-2.6-1.3-5.2-1.4-7.8
		c-0.3-7.2,2.3-11.4,9.1-13.7c5.6-1.8,11.5-2.9,16.8-4.2c1.6-3.7,2.4-7.2,4.3-9.8c9-12.3,18.2-24.6,27.7-36.6
		c5.9-7.5,13.3-12.8,23.1-14.7c5.8-1.1,12.6-2.4,16.5-6.2c7.6-7.4,16.2-8.2,25.7-7.9c8,0.2,16,0.3,24-0.1c3.6-0.2,7.1-1.8,11.4-2.9
		c-2-6.9-3.7-12.6-5.8-19.6c-7.1,2.1-13.4,3.7-19.6,5.8c-20.8,7.1-41.7,13.8-63.6,16.9c-16.7,2.4-33,1.4-50.3-4
		c3.4-7.7,6.4-14.6,9.4-21.6c-11.4-6-23.1-4.9-34.2-6.7c-19.5-3.2-38.3-1.2-56.4,7.4c-10.8,5.2-22,9.5-32.9,14.5
		c-4.1,1.8-7.9,4.3-12.4,6.8c4,14.9,7.9,29,11.6,43.1c3.8,14.6,10,28.6,10.9,44.9c-6.7,1.4-12.4,2.9-18.2,3.8
		c-30.3,4.7-60.8,8.1-90.8,14.3c-13.7,2.8-23.2-0.5-32.5-9c-3.4-3.1-7.3-5.8-11-8.6c-6.7-5.2-13.4-10.4-18.9-14.7
		c-36.1,19.5-70.7,38.1-105.2,56.8c-1.8,1-2.9,3.1-6,6.6c14.4,1.6,26.3,2.7,38.1,4.4c3.5,0.5,6.7,2.5,11.7,4.5
		c-5.4,6.5-9.3,11.7-13.7,16.6c-21.6,24.5-43,49.1-65.2,73.1c-7.1,7.6-9.5,15.4-7.8,25.3c2,11.8,3.1,23.8,4.9,35.6
		c1.6,11.1,3.5,22.1,5.5,33.9c9.5,0.8,18.3,0.4,26.5,2.4c27.1,6.6,28.9,3,21.4,34.3c-8.4,2.7-17.1,5.4-26.4,8.4
		c-2.6,11.3-5.2,22.2-2.8,34.1c9.8,2.8,19.8,2.8,29.7,2.9c19.3,0.2,38.7,1.3,58,0.3c25.8-1.3,50.5,2.2,74,12.6
		c12.2,5.4,23.1,4.6,33.8-2.9C8887.5,4250.6,8889.2,4249.5,8892.2,4247.5z M8302.7,4567.9c5.7-2.2,9.4-3.5,13-5.1
		c74.9-36.1,150-72,224.7-108.4c54.5-26.5,109-52.7,167.2-70.3c4.1-1.3,7.7-4.4,11.6-6.8c-5.8-7.9-11.3-14.5-15.7-21.8
		c-3.6-5.9-8.1-10.3-14.3-13.2c-14.4-6.8-28.9-13.7-43-21c-7.9-4.1-15.8-6.1-24.8-6.3c-59.9-1.2-119.7-2.9-179.6-4
		c-35.3-0.6-70.6-0.8-105.8-0.5c-17.9,0.2-35.7,2-53,3.1c-8.2,12.8-17.6,21.3-33.5,21.4c-0.4-9.7-0.7-18.7-1.1-27.7
		c-6.8-0.2-10.1,3.1-10,8.3c0.2,13.5-2.3,26.1-7.7,38.6c-4.9,11.5-3.5,23.3,6.8,32.8c17.8,16.1,29.8,35.6,31.8,60.2
		c6.2,1.3,11.2,2.4,17.1,3.7c0.7,6.2,1.9,12.1,2,17.9c0.2,5.9-0.7,11.9-1,17.9c-0.4,6.6-2.3,13.5-1,19.7
		C8290.5,4526.5,8295.1,4546.6,8302.7,4567.9z M9133.4,3637.3c21.5,9.1,41.1,17.3,60.7,25.6c19.6,8.3,39.1,16.9,58.8,24.9
		c19.6,7.9,38.4,18,59.6,23.6c25.4-24,51.4-46.5,75.1-70.3c-0.4-3.6-0.5-5.6-0.8-7.6c-11.7-73-23.1-146-35.5-218.8
		c-2.5-14.6,0.2-27.6,4.6-40.8c1.2-3.7,2.9-7.3,4.2-10.3c-7.8-21.1-18-33.7-33.5-41.2c-3.4,1.2-7.2,2.6-11,3.7
		c-5.4,1.7-9.5,4.6-11.3,10.2c-3.8,11.8-12.9,19.9-20.5,29.2c-6.3,7.7-13.8,15.3-17,24.3c-7.1,19.9-16,39.7-17.3,61.2
		c-0.6,11.1-5.4,19.1-13.2,25.6c-5.6,4.7-11.8,8.6-18.1,12.4c-6.3,3.8-13,6.8-19.3,10.5c-5.9,3.5-11.5,8.2-12.3,15
		c-1.5,13.4-9.8,23.1-16,34c-8.6,15-17.2,30.5-18.4,47.9c-0.9,12.7-4.6,23.2-13.2,32.3C9137.4,3630.7,9136.2,3633.1,9133.4,3637.3z
		 M9093.9,3825.2c9.1,1.4,16.9,2.8,24.8,3.8c2.6,0.3,5.3-0.2,7.9-0.6c19.1-2.7,38-6.5,56.1-13.5c12.3-4.7,25-8.1,38.9-12.6
		c3.7,10.9,7,20.6,10.3,30.3c3.7,0.4,6.3,0.9,8.9,0.9c37.3,0.3,74.6,0.5,111.9,0.6c3.9,0,8.2-0.2,11.8-1.6
		c13.6-5.2,26.9-10.9,39.7-16.2c4.2-33.4-0.8-94.2-12.8-155.7c-0.6-2.9-2.3-5.6-4-9.6c-26.5,22.4-49.4,46.5-75.3,68.1
		c-62.1-26.2-123.3-51.9-185.1-78c-4.6,3.3-9.4,5.8-13,9.5c-11.2,11.5-21.3,24.1-27.1,39.2c-4,10.3-10.1,18.5-17.7,26.2
		c-12.6,12.8-25.2,25.6-37.8,38.4c-3.7,3.8-7.5,7.4-11.7,11.6c-15.3-1.7-30.8-2-45.5-5.5c-16.7-4-29.9,2-43.3,9.7
		c-2.8,1.6-5.1,4.3-4.1,8.1c5.8,7.5,13.8,7.1,21.8,6.5c24.5-1.8,49-3.9,73.6-5.5c7.9-0.5,15.8-0.1,24.1-0.1
		c2.7,4.7,5.3,9.2,7.5,13.1c16.4,6.3,33.9,3.5,50.2,10.7C9100.7,3810.5,9097.5,3817.5,9093.9,3825.2z M9228.6,3207.4
		c0.2-11.2-5.1-19.1-12.1-26.6c-20.3-22-40.4-44.2-60.6-66.3c-1.8-1.9-3.9-3.5-5.9-5.3c-5.4-4.8-11.4-9.1-16.2-14.4
		c-24.1-26.7-47.8-53.7-71.8-80.5c-2.9-3.3-6.6-5.9-10.8-9.6c-39,43.4-77.3,86-115.5,128.6c-4,4.4-7.7,9.1-11.5,13.7
		c-0.4,0.5-0.7,1.2-0.7,1.8c0,0.6,0.4,1.2,1.1,3c2.3,0.7,5.3,1.8,8.4,2.5c75.5,18.8,151,37.5,226.5,56.6
		C9182.9,3216.9,9205.4,3214.3,9228.6,3207.4z M9236.9,3197.2c12.2-12.1,23.3-26.6,35-42.4c-25.5-26.7-50.6-53.1-75.5-79.1
		c-9.2,2.9-14.5,9.1-20.6,14c-6.1,4.9-12.8,9.1-18.2,16.8c5.7,6.9,10.8,13.8,16.6,20.1c12.1,13.2,24.9,25.9,36.8,39.2
		C9219.7,3175.4,9227.7,3186,9236.9,3197.2z M8938.3,3647.8c-4.3,10.8-8.4,19.9-11.5,29.3c-2.8,8.4-7.1,13.9-16.8,14
		c-6.2,0-11.9,2.1-15.1,8c-7.9,14.2-19.7,24.9-31.7,35.5c-2.8,2.4-4.5,6-6.9,9.4c8.2,9,15.4,17.5,24.2,23.7c2.2-1,3.7-1.3,4.5-2.2
		c15.1-16.8,30.1-33.7,44.9-50.7c3-3.4,5.6-7.6,7.2-11.8c9-23.4,17.7-47,26.4-70.5c-14.5-9.5-26.5-21-41.5-28.7
		c-6.6,5.7-12.1,11-15.7,19.1C8916.9,3631,8926.7,3638.7,8938.3,3647.8z M8861.4,3796.5c9.1,5.4,13.2,15,23.1,18
		c4.4-3.1,8.9-5.9,12.9-9.2c4.4-3.6,10.7-5.5,12.5-13.2c-11-5.9-22.7-10.7-32.5-18c-10-7.3-18.1-17.2-27.1-26
		c-14.2,7.1-13.4,22.3-22.2,32.6c8.2,7.6,15.4,14.2,22.1,20.4C8854.6,3799.3,8857.6,3798.1,8861.4,3796.5z M8887.3,3772.6
		c15.2,8.5,27.7,15.6,40.3,22.4c0.8,0.4,2.7-1.5,5.3-3c-5.7-4.3-10.3-7.7-14.5-10.8c1.3-19.1,19.8-18.4,30-28.2
		c0-8.9,0.4-18.2-0.3-27.3c-0.2-2.5-3.3-6-5.8-6.9c-2.5-0.8-5.9,1-8.9,1.9c-0.5,0.1-0.9,0.9-1.3,1.4
		C8917.6,3738.4,8903.1,3754.8,8887.3,3772.6z"/>
	<path id="_x32_536" class="st0" d="M6837.8,6491.1c-188.5,22.4-374.9,44.6-561.4,66.7c-13.1-18.2-26.3-34.7-36.6-53.5
		c-21.2-38.9-35.5-80.2-47-122.8c-4.1-15.4-10-30.3-14.9-45.5c-2.8-8.8-8.4-14.6-17.1-18.1c-7.3-2.9-15-5.6-20.3-13.6
		c2-4.6,3.9-9.4,6.3-14c4.8-9.5,9.3-19.2,14.9-28.3c13.5-21.6,16.9-46,20.2-70.4c0.3-1.9-0.3-3.9-0.5-5.6
		c-15.2-15.3-30.3-30.2-45.1-45.5c-5.1-5.2-10.7-7.4-17.8-7c-6.6,0.4-13.4,1-20,0.4c-16.6-1.4-33.2-2.8-49.6-5.2
		c-10.2-1.5-22.3-16.9-22.7-27.4c-0.3-8,0.1-16-0.2-24c-0.1-4.5-0.9-9-1.4-14.7c-4.4-0.5-8.2-1.6-11.9-1.3
		c-18.6,1.5-37.2,2.9-55.7,5.2c-5.7,0.7-11.5,3.2-16.7,6.1c-22.7,12.7-45.3,25.5-67.6,38.8c-7.9,4.7-14.9,6.4-24.3,3.8
		c-27.8-7.8-54.2-18.3-78.6-33.7c-8.5-5.3-16.5-11.5-25.3-16.1c-29.8-15.3-51.4-39.8-73.3-64.1c-4.3-4.8-7.3-11.1-10-17.1
		c-8.5-18.8-16.2-38-24.9-56.7c-3.9-8.4-8.8-16.4-14.3-23.9c-11.5-15.6-23.7-30.5-35.4-45.9c-6.2-8.1-13.3-14.8-22.6-19.2
		c-6-2.9-11.7-6.4-17.5-9.6c-5.9-3.2-11.5-6.6-15.2-12.6c-1.7-2.8-4.1-5.3-6.5-7.5c-50.6-46.3-97.6-96.5-150.8-139.9
		c-7.2-5.9-13.7-12.7-21.1-18.4c-7.8-6-12.2-13.6-14.4-23.1c-6.7-28.5-15.4-56.6-20.6-85.4c-4.5-25.1-17.5-44.1-34.6-61.4
		c-12.7-12.8-25.8-25.1-38.7-37.6c-2.3-2.2-4.4-4.6-7.9-8.3c6.7-2,11.5-3.8,16.5-4.7c9.2-1.7,18.4-3.2,27.6-4.4
		c6.8-0.9,12.7-3.2,18.3-7.2c18.3-13,18.4-12.8,26.7-36.5c3.8-0.9,8.2-2.2,12.7-2.9c3.3-0.5,6.7-0.5,10-0.3
		c20.7,0.8,39.2-5.2,56.6-16.2c8.4-5.3,18-8.7,27-12.8c6-2.8,12.1-5.3,18.1-8c5.6-14.6,8-28.9,5.5-43.6c-3.2-18.5-4-37.1-2.4-55.8
		c1.2-14-1.9-25.9-11.8-36.5c-8.1-8.7-14.5-19-21.5-28.8c-8.1-11.4-14.9-23.5-19.2-37.1c-2.8-8.8-7.9-16.9-11.4-25.5
		c-6-14.8-12.4-29.4-17.3-44.6c-9.7-30.1-11.7-61.3-11.8-92.7c0-8.6,1.3-17.3,1.8-25.9c0.7-14.1-0.8-27.8-5.2-41.3
		c-9.8-30.4-18.9-61.1-28.9-91.4c-5.9-17.9-14.9-34.1-29.9-46.3c-4.8-3.9-10-6.2-16.3-6.7c-12.6-1-25.2-2.3-37.8-3.6
		c-15.4-1.6-30.4,0-45.7,1.8c-16.4,2-33.2,1.6-49.9,1.2c-17.3-0.4-34.6-1.8-51.8-3.4c-9.9-0.9-17.7,1.8-25.9,7.7
		c-12.3,8.8-22.1,19-28.4,32.6c-1.1,2.4-2.5,4.7-3.9,7c-10.2,16.5-18.6,33.8-22.3,53.1c-0.9,4.5-2.8,8.8-4.8,14.6
		c-3.5-2.4-6.8-4.1-9.6-6.4c-10.6-9.1-21.2-18.3-31.6-27.6c-15.8-14.2-33.8-23.2-55.4-24.7c-16.6-1.2-33.1-3-49.7-4.7
		c-6.6-0.7-13.3-1.5-19.8-2.8c-6.2-1.3-8.7-5.6-7.1-11.9c3.2-12.3,6.2-24.6,10-36.6c3.7-11.5,1.7-21.6-2.9-32.6
		c-7.7-18.4-20.7-32.5-33.6-46.8c-10.7-11.9-22.4-22.9-33.3-34.5c-23.8-25.5-52.3-45.4-78.2-68.3c-5.3-4.6-12.6-7.4-19.5-9.6
		c-26-8.3-52.2-16.1-78.3-24c-5.7-1.7-11.5-3.5-17.3-5c-8.7-2.4-15.2-7.8-21.1-14.4c-5.7-6.4-8.5-13.5-6.9-22
		c5.2-27.5,10.3-55,22.5-80.6c6.3-13.2,12.9-26.3,19.1-39.6c11-23.5,21.4-47.3,28.3-72.5c1.2-4.5,2.9-8.9,4.1-13.4
		c6.6-24.4,18.8-45.3,38-62.1c7.5-6.5,14-14.2,20.8-21.5c11.6-12.6,21.4-13.1,34.5-3.1c23.1,17.7,41.5,39.3,55.5,64.8
		c17.4,31.5,35.2,62.8,52.7,94.2c7.1,12.8,13.6,26,24.3,36.4c1.9,1.9,3.7,3.8,5.8,5.4c3.8,3,10.2,2,12-2.4c2.5-6.1,4.4-12.5,5.4-19
		c2-13.8,3.2-27.7,4.8-41.6c2.5-21.8,5.4-43.7,7.2-65.6c0.8-9.6,2.8-18.2,7.8-26.4c7.4-12,12.1-25,14.7-39
		c3.2-17.1,9-33.4,17.1-48.9c1.7-3.3,4.5-6.1,7.5-10c3.8,3.2,7.2,5.3,9.6,8.2c5.2,6.1,10.6,12.2,14.5,19c7,12.2,17.9,16.6,30.9,19.2
		c17.6,3.5,35.1,7.8,52.4,12.7c10.2,2.9,20,7.3,29.7,11.6c7.3,3.2,14.1,7.2,18.9,14.2c2.1,3.1,5.7,5.5,9.2,7.1
		c19.6,9.2,39.5,11,59.7,1.7c5.4-2.5,11.1-4.5,16.5-7.3c11-5.6,21.8-5.1,32.6,0.3c10.7,5.4,21.8,10.1,32,16.3
		c9.4,5.7,18.5,7.1,28.5,3.1c28.6-11.5,51.8,0.1,73.6,17.4c7.3,5.8,14.3,12,21.2,18.2c7,6.2,13.9,5.6,22.1,1.6
		c12.3-6,19.1-16.2,24.7-27.7c3.2-6.6,5.9-13.5,8.1-20.4c4.7-14.7,14.2-25.6,26.2-34.4c14.5-10.6,29.8-20.1,44.6-30.4
		c5.9-4.1,12.1-8.3,17-13.6c19.6-20.9,39-42,58.1-63.3c4.4-4.9,8.3-10.4,11.6-16.2c10.8-19.1,21.4-38.4,31.7-57.8
		c6-11.2,12.6-21.6,22.5-30.2c15.9-13.9,25.9-32,32.7-51.8c0.6-1.8,0.1-3.9,0.1-6.6c-2-1.1-4.2-3-6.6-3.3
		c-7.3-0.8-14.6-1.3-21.9-1.4c-55.3-0.6-110.6-0.9-165.9-1.7c-32.6-0.5-65.2-1.6-97.9-2.5c-2.5-0.1-5-0.9-6.9-1.2
		c-1.1-2.1-2-3.2-2.1-4.4c-0.4-2.6-0.6-5.3-0.5-7.9c2.3-103.1,4.7-206.3,7.1-309.6c7.6-3,14.8-3.7,22.1-3.8
		c29.3-0.5,58.6-0.9,87.9-1.6c38.6-0.9,77.2-2.1,115.8-3.1c10-0.3,20,0,30-0.3c8.6-0.2,17.3,0.4,26.7-2.7
		c7.3-33.9,29.1-60.4,48.4-88.1c8-11.4,16.1-22.6,20.5-36.3c2.7-8.6,9.3-16,14.5-23.7c3-4.4,6.5-8.5,9.8-12.6
		c12.2-15.2,18.2-32.3,16-52c-2.2-19.2-3.9-38.4-6.7-57.5c-1.8-12.3-1.2-23.4,5.3-34.6c13.1-22.9,19.8-47.8,20.3-74.4
		c0.1-3.9,1-8,2.5-11.6c7.1-16.5,14.5-32.8,21.9-49.2c2.7-6.1,5.6-12.1,8.5-18.1c3.5-7.2,6.6-14.6,10.7-21.4
		c11.4-18.8,23.1-37.4,35.1-55.8c4.2-6.4,6.8-12.5,6.2-20.4c-0.7-9.2-0.2-18.6-0.2-27.8c-13.3-8.8-25.3-17.1-37.7-24.8
		c-9.4-5.8-15.8-13.9-22.1-22.7c-10-13.9-10.6-28.1-2.9-44.5c3.4,0,7.2-0.3,11,0c52.4,4.7,104.8,9.3,157.2,14.2
		c50.4,4.7,100.8,9.7,151.2,14.5c34.5,3.2,69,6.2,103.5,9.4c49.7,4.7,99.5,9.4,149.2,14.1c17.2,1.6,34.5,3.3,51.7,4.8
		c2.6,0.2,5.3,0.2,8-0.2c5-0.6,7.6-6.8,4.3-10.5c-2.7-2.9-5.7-5.6-8.8-8.1c-5.1-4.2-10.4-8.2-16.6-13c1.5-3.8,2.6-7.5,4.3-10.8
		c4.7-8.8,10.1-17.2,14.6-26.2c12.2-24.5,31.8-42.5,52-59.9c13.1-11.2,28.6-16.7,45.5-18.4c4.6-0.5,9.3-0.7,14-0.5
		c7.8,0.3,14.5-1.7,19.6-7.8c10.4-12.6,24.5-17.7,40.1-19.9c6.6-0.9,13-2.9,19.6-3.8c7.5-0.9,14.2-3.5,20.3-7.8
		c21.9-15.8,47.4-20.6,73.2-24.5c42.8-6.4,85.6-12.3,128.5-18.1c27.7-3.7,55.5-7,83.3-10c23.2-2.6,46.2-6.2,68.4-13.6
		c15.9-5.3,32.5-7,48.9-9.6c7.6-1.2,14.2-0.2,20.6,4.6c10.4,7.7,64.5,35.2,76.9,40.3c14.8,6.1,29.5,12.3,44.2,18.6
		c8.7,3.7,16.6,8.5,22.7,15.9c6.6,7.9,15.1,13,24.1,17.4c16.2,7.9,32.3,15.9,48.7,23.3c19.6,8.7,38.2,18.9,54.9,32.3
		c6,4.8,12.4,7.6,20.1,7.2c19.6-0.9,36.5,5.7,51.6,18c4.6,3.7,10,6.6,15.3,9.2c3.7,1.9,8.4-1.3,8.5-5.6c0.1-4.6,0-9.3-0.7-13.9
		c-9.9-73.3-20-146.5-29.9-219.8c-4-29.7-7.9-59.4-11.8-89.1c-0.2-1.7,0.6-3.5,1.2-6.7c6.4,3.8,12.1,7,17.7,10.4
		c13.6,8.3,27.1,17,41,24.9c5.5,3.1,9.1,7.5,12.7,12.4c7.8,10.7,15.7,21.3,24.2,32.9c21.8-11.3,44.2-9.8,67.5-8.5
		c8,14.6,17,28.5,22.9,44.2c8.9,23.7,18.9,47,38.8,64.3c2.3,2,3.4,5.5,4.7,8.5c0.7,1.8,0.8,3.9,0.8,5.9
		c0.3,21.2,12.5,35.9,27.1,49.1c5.9,5.3,12.3,10.2,18.5,15.2c4.3,3.5,8.9,5.1,14.6,5.3c6.6,0.3,13,2.2,19.6,3.3
		c11.2,1.9,20.3,7.6,25.8,17.1c7.6,13.3,19,19.9,33.3,23c3.2,0.7,6.3,2,9.5,3c8.9,2.9,15.1,8.6,17.3,17.8
		c4.4,18.6,14.8,34,25.3,49.5c6,8.8,11.7,17.8,17.1,27c3.9,6.6,8.7,12.1,16.3,13.7c8.2,1.8,14.7,5.9,20.7,11.4
		c12.6,11.3,28.8,13,44.5,15.9c1.8,0.3,4.1-0.1,5.9-0.8c21.9-9,45.7-8.6,68.5-12.7c22.3-4,44.6-7.1,66.1-14.9
		c4.9-1.8,10.5-3.3,15.5-2.8c26.9,2.8,51.2-5.8,75.2-16.2c2.9-1.3,5.7-3.7,9.9-0.4c-5.9,9.6-13.4,17.5-23.8,22.5
		c-9,4.4-17.8,9.1-26.6,13.7c-7.4,3.9-12.5,9.5-13.5,18.9c12.9,9,28,7.7,42.8,10.3c-1.1,11.4-5.6,19.1-16.1,23.2
		c-12.4,4.8-24.5,10.3-36.8,15.5c-4.3,1.8-8.9,3-12.9,5.2c-6.5,3.5-7.6,7.2-7,18.6c15.6,6,29.8-3.7,46.3-4.4c0,5.3,0,10.4,0,15.6
		c-0.2,22,13.8,31.4,31.2,30c8.5-0.7,17.1-2,27.1,0.6c-1.6,2.9-2.2,6-3.9,6.7c-5.5,2.2-11.3,4.1-17.1,5.2
		c-23.8,4.2-46.5,11.5-67.2,24.3c-8.5,5.2-16.8,10.7-25,16.3c-7.1,4.9-14,10.3-20.9,15.5c-9.9,7.5-21.2,10.4-33.3,12
		c-15.8,2-31.6,4.6-47.1,8.5c-16.3,4.1-31.4,11.2-42.9,24.2c-7.9,9-18,13.2-29.6,15c-7.2,1.1-14.4,2.7-21.4,4.8
		c-4.2,1.3-8.1,4-11.4,5.6c-1.5,6.6,3.4,9.5,4.8,13.7c1.7,5.1,2.8,10.3,4.8,15.2c1.7,4,4.3,7.6,6.9,12c-5.4,3.5-10.9,7-16.6,10.7
		c-1.5,15.1,8.3,23.7,17.1,32.4c4.1,4,11.9,3.2,16.4-1.5c13-13.4,25.5-27.2,38.4-40.6c5-5.2,10.5-10.2,16.4-14.2
		c2.8-1.8,7.3-1,11.5-1.5c-3.3,14.8-16.7,17.8-25.6,26.1c-0.5,6.8-0.3,14.1-1.9,20.9c-1.6,7-5.6,13.4-3.8,22.2
		c5.1,2.3,10.9,4,15.6,7.3c4.1,2.9,6.9,7.5,10.9,12.2c23.3-14,41.8-34.9,68-45.6c-3.1,8.8-3.4,9.4-5.9,11.4
		c-8.3,6.6-16.8,13.1-25,19.9c-2.4,2-4,5-5.6,7.1c3.2,6.1,8,6.2,12.6,5.3c7.2-1.4,14.2-3.4,21.3-5.3c7.8-2.1,13.9,0.2,19.3,6.6
		c-43.1,15.6-43.1,15.6-53.2,30.1c4.4,7.5,8.9,15.3,13.9,23.8c5.5-5.3,10.7-10.4,16-15.4c4.2-4,8.9-5.6,14.4-2.5
		c0,1.3,0.5,3.1-0.1,3.5c-11.4,7.5-14.6,18.3-13.1,31.2c1.8,15.9,3.1,31.8,5.5,47.6c3.1,20.4,7.3,40.6,10.5,60.9
		c2.3,14.4,4.1,28.9,5.2,43.5c1.1,14.2-2.8,27.7-9.8,41c10.2,15.7,25.7,26.5,38.8,41.3c-1.7,4.3-3.5,9-5.3,13.7
		c-3-0.3-5-0.1-6.8-0.8c-5.1-1.8-8.4,1.2-8.9,5.1c-1.8,12.5-3.1,25.3,1.1,37.5c6.5,18.9,13.7,37.5,20.7,56.2
		c0.9,2.5,1.8,5.2,3.5,7.1c6.9,7.7,10.5,16.4,11,27c0.5,9.1,6.6,16.1,14.1,20.8c9.6,5.9,15.8,14.1,19.8,24.3
		c4.4,11.3,10.8,21.4,19.7,29.8c9,8.6,14.7,17.7,5.5,29.5c3.6,2.8,6,4.7,8.8,6.9c-6.9,9.9-19.4,3.6-30.3,13.5
		c-1.8,3.3-5.9,10.9-10.1,18.5c-4.8,1-9.3,1.9-13.9,2.8c-1.1,1.8-2.3,3.3-3,5.1c-0.8,1.8-2,4.2-1.4,5.7c5.1,13.2-3.4,21.3-10.7,29.9
		c-1.7,2-3.9,3.7-5.5,5.8c-8,10.2-17.8,15.7-31.2,12.2c-1.8-0.5-3.9,0.1-5.9,0.2c-6.2,4-8.7,10.1-9.5,16.8
		c-1.8,14.9-10.5,23.1-24.2,28.7c-9.7,3.9-18.2,10.8-26.9,16.9c-8.2,5.8-15.7,12.4-25.4,15.3c-4.6-3.7-8.5-8.5-13.5-10.5
		c-10-4.1-20.7-4.2-30.9-2.7c-3.9,4.3-2.8,7.7,0.2,10.9c2.7,2.9,5.5,5.6,7.7,8c-0.3,2.3-0.1,4.1-0.8,4.8
		c-8.4,8.3-16.7,16.7-23.3,26.8c-6,9.2-16.3,10.7-26.1,12.5c-3.9,0.7-8,1-11.9,0.6c-9.5-1-17,2.7-23.1,9.5
		c-5.4,6-10.7,11.2-19.4,12.9c-7.2,1.5-13.2,6.4-14.1,16.3c11.6,12.2,31.7,12.6,43.3,28.7c0.3,6.9,0.7,15.5,1.2,25.1
		c27.4,4.3,54.7,2.4,81.7,3.8c26.6,1.5,53.2,2.1,79.8,2.9c27.2,0.9,54.4,1.5,86.2,4.7c-6.1,2.5-7.9,3.6-9.8,3.9
		c-4.6,0.6-9.4,0.1-13.8,1.3c-4.6,1.2-8.5,4.5-8.7,9.8c-0.3,6.5,0.1,13,0.2,20.7c5.8-1.6,10-2.8,15.3-4.3
		c5.1,7.9,10.1,15.5,15.6,23.9c4.7-1,9.1-2,13.5-2.8c3.9-0.7,9-3.2,11.6-1.6c9.1,5.5,17.9,0.9,26.8,1.1c12.6,0.3,25.4,1.5,37.6,4.7
		c23.2,6.1,41.9,0.2,57.5-17.5c2-2.3,4.9-3.9,8-6.3c2.8,7.9,1.3,14-1.1,20.3c-2.6,6.8-3.9,14.1-6.4,20.9
		c-4.3,11.6-0.4,20.6,7.9,28.7c4.3,4.2,8.2,8.7,12.1,13.3c10.2,11.9,17.9,24.9,18.6,41c0.1,2.6,1.2,5.1,2.1,8.7
		c4.9,1,9.8,1.9,14.5,2.8c0.9,1.5,2,2.5,2.2,3.7c1.6,9.2,2.2,18.3,0.6,27.7c-2.1,12.6-1.2,25.1,2.4,37.6c4.4,15.3,7.9,30.8,11.9,47
		c-4.5,2.6-8.3,5.2-12.4,7.2c-42.1,20.1-84.2,40.1-126.2,60.2c-5.3,2.5-10.4,5.5-16.1,8.6c0.9,6.1,1.8,11.2,2.2,16.4
		c0.5,5.3,1.2,10.7,0.7,15.9c-1,9,0.5,17.1,5.4,24.8c5.9,9.2,8.4,19.1,7.2,30.4c-0.7,6.3,1,13.3,3.4,19.3c4.9,12.4,5.2,24.4,1.1,37
		c-3.3,10-2.9,21.1-9.2,30.9c-11.9,0-24.2,1.8-35.7-0.4c-18-3.4-34.3,0.1-52,6.9c-2.5,5.1-5.5,11-8.2,17
		c-19.3,42.5-38.6,84.9-57.5,127.5c-4.2,9.4-9.9,17-17.6,23.7c-34.1,29.8-68.1,59.8-102,89.9c-14.6,13-14.7,13.9-1.7,28.6
		c57.4,64.9,114.9,129.7,172.3,194.6c7.9,8.9,15.6,18,24,27.7c-9.5,17.2-4.6,35.3-4.1,52.9c0.6,21.1-5.5,40.8-8.9,61
		c-0.8,5-4.3,8.1-8.2,10.8c-6,4.2-8.2,10.2-7.9,17.3c0.1,2.7,0.1,5.3-0.1,8c-1.1,15.4-6.9,27.1-20.8,36.2
		c-32.3,21.2-63.5,44.1-95.2,66.2c-3.3,2.3-6.5,4.7-10.1,6.5c-5.9,2.9-11.8,1.5-17.1-1.8c-11-6.7-22.9-6.4-34.9-4.2
		c-7.2,1.3-14.3,3.1-21.5,4.7c-26.7,5.9-53.5,10.6-81,10.9c-12,0.2-23.9,2.2-35.8,2.7c-8.9,0.4-17.2,2.7-24.8,7
		c-17.7,10-37,14.1-56.7,17.9c-25.5,4.9-50.6,11.7-75.8,17.8c-1.3,0.3-2.6,0.8-3.7,1.5c-26,16.1-56.4,23.4-81.7,41.1
		c-11.7,8.1-21.9,17.3-30.1,28.8c-7,9.8-15.5,17.5-25.2,24.9c-15.7,12-29.4,26.9-42.9,41.5c-18.1,19.5-35.2,40-53,59.9
		c-3.8,4.2-6,8.8-6.5,14.2c-1,10.2-5.7,19-10.7,27.7c-49.6,86-99.1,172-148.3,258.3c-7.4,13-16.6,23.6-28.8,32.4
		c-31.2,22.8-61.7,46.6-92.7,69.6c-8.8,6.5-15.6,14.2-20.9,23.7c-10.5,18.6-21.9,36.6-31.9,55.4c-5.9,11.2-14.1,18.9-25.4,24.2
		c-7.2,3.4-14,7.8-21.1,11.4c-39.8,20.7-70.9,51.5-99.3,85.4c-3.6,4.3-5.2,10.6-6.7,16.3C6840.3,6474.5,6839.5,6481.8,6837.8,6491.1
		z"/>
	<path id="_x32_534" class="st0" d="M8551.2,1243.2c2.2,21.3,4.2,41,6.2,61.3c17.9,3.8,35.1,1,52.3,1.6c17.3,0.6,34.6,0.7,51.9,1
		c17.3,0.2,34.6,0.1,52,0.5c17,0.4,34,1.4,53.6,2.3c-5.8,6.7-11.5,10.3-16.7,10.3c-11.7,0-21.1,7.2-32.4,8.5
		c-11.2,1.3-15.8,7.4-17,18.7c-0.3,3.3,0.2,6.7-0.3,10c-2.6,14.1-7.5,25.9-20.6,34.7c-18.8,12.7-35,28.5-46.2,48.9
		c-6.1,11-14.2,20.8-22,32.1c-8.2-5.7-13.2-15.5-24.7-17.4c-6.4,4.5-13.6,8.3-22.8,8c-5.5-0.1-11.8,2.5-16.5,5.7
		c-15,10.3-30.1,6.6-43-1.8c-10.1-6.6-19.6-9.9-31.3-10.2c-12.5-0.3-25-4.2-37.6-0.3c-11.4,3.6-22.9,6.8-34,11
		c-3.2,1.2-6,5.3-7.4,8.6c-2.3,5.5-3.5,11.4-5,17.3c-2,8-6.5,14.3-12.3,19.9c-7.1-3.3-13.6-6.4-20-9.4c-13.5-6.3-28.6,3.9-31.7,15.8
		c-0.2,0.6-0.4,1.3-0.4,1.9c-1.8,17.4-15.1,25.7-27.6,34.5c-7,4.9-14.7,6.1-22.9,3.7c-5.1-1.5-10.2-3.2-15.3-4.8
		c-10.4-3.3-19.5-1.2-27.7,6.2c-6.4,5.7-13.4,10.9-20.4,16c-6.6,4.8-13.9,7.6-22.4,6.9c-20.4-1.6-37.2,4.3-52.2,19.4
		c-10.7,10.8-26.6,10.9-41.4,10.1c-5.3-0.3-10.5-1.6-15.8-2.6c-6-1.1-11.7-1.3-17.6,1.2c-8.2,3.6-16.7,2.8-25.3,0.7
		c-7.7-1.9-15.8-2.8-23.7-3c-8.6-0.2-17.3,0.8-22.8,8.4c0,7.6,5.1,11.3,9.2,15.5c13.9,14.4,27.9,28.6,41.9,42.9
		c31.6,32.5,62.8,65.3,94.8,97.4c12.2,12.2,26.2,22.6,39.4,33.8c5.5,4.7,11.1,9.4,16.9,14.3c-6.7,9.4-16.7,12-24.7,17.6
		c-7.9,5.6-17.3,10-21.3,21.2c7.7,6.3,14.7,13.2,22.9,18.4c12,7.6,18.2,19.1,23.8,31.3c1.4,3,2.8,6.1,3.7,9.3
		c7.9,30.5,23.3,58,35.8,86.6c4.2,9.7,6.6,20.2,10,30.3c9.4,28.4,18.9,56.9,23,86.7c2.8,20.4,14.1,35.7,29.3,48.4
		c18,15,33.8,32.1,47.3,51.2c1.5,2.1,2.5,4.4,4.7,8.3c-4.6,0-7.6,0.2-10.5,0c-7.3-0.6-14.5-2.1-21.8-2.1c-10.9,0-21.6,2.5-29.8,9.8
		c-16.2,14.5-34,12.5-52.4,6.4c-6.9-2.3-13.9-5-20.2-8.6c-9.6-5.5-19.4-8.2-30.5-6.6c-3.1,0.5-6.5-0.6-10.9-1.1
		c-1.2-15.1-6-29.6-1-44.6c-3.9-2.6-7.1-4.8-10.4-7c1.7-11.9-1.1-23.3-8.3-31.8c-6.3-7.5-10.4-15.5-13.1-24.3
		c-5-16.6-16.9-23.1-32.7-24.6c-4.6-0.5-9.3-0.4-14,0c-9.9,0.7-19.8,2.6-27.1-7.4c-1.4-1.9-6.2-1.4-10.1-2.2c0-5.3,0-11,0-18
		c-3.4,1.1-5.7,1.9-8,2.5c-2.5,0.7-6.3,2.6-7.4,1.7c-9-8.4-17.1-3.2-26.1,3.8c-2.4-9-4.1-15.6-5.7-21.6c-5.6-1.8-6.5,2.4-8.8,4.4
		c-1.5,1.2-3.6,3.6-4.5,3.2c-9.7-3.9-14.5,3.5-20.4,8.5c-2,1.7-4,3.7-6.3,4.8c-16,8-27.6,20.4-37.3,35.1
		c-11.8,17.7-23.9,35.3-35.8,53c-4.9,7.3-8,15.2-7.4,24.3c0.6,9.1-2.6,17-9.5,23.2c-1,0.9-2.1,1.8-2.7,2.9
		c-9.7,19.1-25,34.4-35.9,52.7c-4.8,8.1-10.6,13.2-19.6,15.3c-5.2,1.2-10.1,3.4-15.1,5.1c-9.6,3.2-18,2.3-25.4-5.9
		c-6.3-7-13.9-12.2-24-13c-11.9-0.9-20.5,4-24.6,15.4c-1.1,3-1,6.8-2.9,9c-4.1,4.6-2.3,9-0.1,12.8c2.5,4.6,6.2,8.5,9.6,13
		c-3,8.2-8.9,13-17.7,16.5c-2-2.6-4.5-4.8-5.5-7.5c-4.9-12.8-4.2-26.2-4-39.5c0.1-4.5,0.8-9,1.2-13.5c-12.1-2.4-15.5-1.2-17.9,6.5
		c-1.2,3.7-1.3,7.8-1.8,11.7c-0.5,4.5-0.9,9.1-1.3,13.1c-5.1,2.2-7-0.2-8.2-3.6c-2.7-7.3-2.4-16.1-9.9-21.1
		c-12.1-0.7-11.6,10.6-16.5,18.4c-3.6-3.7-7.2-6.6-9.7-10.2c-10.2-15-25-23-41.3-30c-14.5-6.3-27.9-6.3-42.2-0.2
		c-12.9,5.4-26.3,9.6-39.2,14.8c-6,2.4-11.5,3.4-17.1-0.4c-9.5-6.4-20.1-6.9-30.8-5.3c-10,1.5-18.2-1-25.4-8.2
		c-12.4-12.5-28.4-19.7-43.3-28.5c-3.9-2.3-8.7-3.2-13.2-4.1c-15.7-3.1-31.3-6.5-47.1-8.8c-7.1-1-14.5,0.2-21.8,0.4
		c-11.9,0.3-24,2.5-36.6-4.5c-1.3-13.6-2.6-28.1-4-43.2c4.1-2.8,8-5.2,11.6-8c15.3-11.9,30-24.2,39.6-41.6
		c6.4-11.7,14.1-22.6,21.3-33.8c19.6-30.4,34-63.1,46.7-97c8.4-22.3,20.8-43.1,31.5-64.6c0.6-1.2,1.5-2.2,2.1-3.4
		c13.6-27.4,27.6-54.6,40.5-82.4c6.5-14,9.2-29,6.2-44.8c-2.6-13.8-1.6-27.7,1-41.6c4.8-25.6,20.9-44.2,36.9-62.9
		c12.1-14.2,25.4-27.3,37.8-41.2c8-8.9,15.1-18.6,22.9-27.7c5-5.9,5.1-11.6,1.9-18.4c-12.7-26.4-25.1-52.9-37.8-79.4
		c-52.7-109.9-105.4-219.8-158.1-329.7c-16.7-34.8-33.3-69.7-49.9-104.6c-2.8-5.9-5.2-12-8.3-19.3c7.4-2.2,13.4-4.4,19.7-5.8
		c88.3-20.2,176.6-40.4,264.9-60.1c11.5-2.6,21-7,29.7-14.9c134.2-121.8,268.6-243.4,403-364.9c6.3-5.7,12-12.4,20.8-16.8
		c3.1,5,6,9.2,8.4,13.7c14,26.5,27.9,53.1,41.9,79.6c8.6,16.3,14.1,19.3,31.8,17.1c15.9-1.9,31-6.5,46-12.5
		c33.5-13.4,65.5-29.7,97.4-46.2c7.6-3.9,14.8-9,21.7-14.1c8-6,16.5-8.3,26.2-6.6c3.3,0.6,6.9,0.2,9.9,1.4c16,6.7,31.5,2.3,46.9-2.1
		c8.9-2.5,17.8-5.6,26.3-9.6c16.8-7.8,34.2-10.8,52.5-9c14.7,1.5,29.2,1.6,43.5-2.8c10.1-3.1,18.3,0.7,24.8,8.6
		c9.3,11.3,18.5,22.6,27.5,33.7c5.5,1.8,9.4-0.7,13-3.8c12.8-10.6,25.6-21.3,38.4-32c7.2-6,14.4-11.9,21.4-18
		c20.7-18.2,38-39.3,49.9-64.3c4.5-9.5,7.8-19.9,10.1-30.2c2.9-13.7,10.9-22,23-28.1c41.3-20.8,33.7-15.4,61.2-52
		c4.8-6.4,9.1-13.2,13.5-19.8c12.3-18.3,17.5-38.9,17.6-60.5c0-15.8,7-29.7,9.8-44.7c0.2-1.2,1-2.5,1.9-3.5
		c12.6-15.4,22.8-32.7,39.8-44.4c15.6-10.8,32-15.7,50.8-12.8c21.8,3.3,43.5,6.4,63.5,16.5c5.3,2.7,11.5,3.6,16.8,6.2
		c12.5,6,23.4,5.3,35.4-2.9c9.1-6.2,20.4-9.8,31.1-13.2c27.8-8.8,47.6-2.3,65,20.6c18.1,23.9,36,48,53.8,72.1
		c65.4,88.4,130.7,176.9,195.9,265.4c4.6,6.2,10.1,12,12.7,19c-3.9,4.7-8.1,3.4-11.8,3.4c-33.3-0.3-66.6-0.5-99.9-1.2
		c-57.3-1.2-114.5-2.9-171.7-4.1c-57.9-1.2-115.8-2.1-173.8-3.2c-14-0.2-28-0.5-42-0.6c-3.2,0-6.4,0.5-10.3,0.9
		c-3.4,9.7-1,18.9-0.2,27.9c3.6,39.8,8,79.5,11,119.3c1.5,19.2,0.5,38.6,0.8,57.9c0.1,6.4-1.9,11.7-5.8,16.5
		c-1.7,2.1-3.4,4.2-4.7,6.5c-5.8,10.5-14.8,16.1-26.3,19.7c-35.6,11.1-71.2,22.4-106.1,35.2c-20.6,7.6-41.3,9.5-62.7,8.5
		c-8.7-0.4-17.3-0.8-26-0.8c-113.3-0.9-226.5-1.8-339.8-2.6c-36.7-0.3-73.3-0.3-110-0.6c-17.3-0.1-34.7-0.1-51.9-1
		c-18.5-1-35.7,2.4-51,10.9c-5.2,12.2-10.4,23.6-15,35.2c-1.7,4.2-2.5,9-2.7,13.5c-0.9,20.1,1.6,39.9,5.7,59.5
		c3.4,16.3,7.2,32.5,9.6,49c1.6,10.8,3.9,21.2,9.5,30.2c9.6,15.4,11.8,32.2,11.8,49.8c0,16.1,1.9,32,7.5,47.1
		c2.7,7.3,6.9,14.3,11.3,20.8c3.5,5.1,8.6,7.5,15.5,6.6c9.9-1.2,20-0.8,29.9-1.5c19.3-1.4,38.5-2.6,57.2,4.5
		c8.3,3.1,16.9,2.5,25.4-0.7c13.1-4.9,26.4-9.2,39.4-14.4c8.9-3.6,17.9-4.8,27.3-4.4c26.6,1,53.2,1.6,79.8,2.9
		c9.2,0.4,18.5,1.9,27.5,3.8c9.8,2,19.3,5,29,7.6c19.3,5.2,38.5,10.6,58.9,8.6C8544.1,1241.6,8546.7,1242.5,8551.2,1243.2z"/>
	<path id="_x32_535" class="st0" d="M8528.9,2487.8c14.4-1.3,25.4-2.9,36.4-2.9c4.7,0,8.7-0.2,13.4-1.5c11.6-3.1,22.2-0.7,30.8,8.6
		c34.1,36.8,65.7,75.2,85.9,121.8c7.4,17.1,17.3,33.1,20.9,51.7c0.1,0.7,0.2,1.4,0.6,1.9c14.8,24.5,24.7,51.7,42.1,74.7
		c0.8,1,2,1.7,4.4,3.6c7.3-0.4,16,0,24.4-1.3c29.7-4.5,53.3,6,72.9,27.8c9,10,16.4,20.7,21.4,33.3c2.9,7.2,8.2,13.6,13.4,19.6
		c47.4,54.1,95.1,108,142.6,162c3,3.4,5.7,7.2,8.4,10.5c-8.7,13.6-111.1,128.7-134.8,151.6c-38.5,2.6-77.5-3-118.4-1.9
		c1.4,4.3,2,7.4,3.3,10.1c2.5,4.7,5.5,9.1,8.2,13.7c8.6,15.2,14.8,31.2,15.1,49.1c0.1,5.3,0.9,10.6,1.6,18.7
		c5,4.4,11.2,10.5,18,15.8c8.1,6.4,13.2,14.5,17.4,23.8c12.7,28.2,16.2,57.4,10.7,87.7c-1.1,5.9-2.4,11.8-2.9,17.7
		c-2.2,29.9-15.2,56.2-25.6,82.8c-16.8,3.2-95.6,4.4-159.6,2.6c-5.7-7.3-11.8-15.1-17.9-22.9c-5.3-6.8-12.2-10.2-20.9-9.4
		c-18.5,1.8-37.3,2.6-55.6,5.9c-13.2,2.4-24.9,9.4-33.3,21.8c0.6,3.9,1.3,8.4,2.1,13.7c-7.8,5.8-15.6,11.7-24.1,18.1
		c1.8,5.2,3.5,9.9,5.7,16.1c-3.6,0-6-0.1-8.4,0c-1.8,0.1-3.5,0.7-5.9,1.3c1.8,4.1,3.4,7.5,5.1,11.3c-8.6,9.4-17.1,18.6-25.6,27.9
		c2.2,5.2,3.9,9.4,6.1,14.5c-7.9,7-15.7,14-23.9,21.3c1.7,4,3.3,7.5,4.7,10.8c-8,11.5-15.9,22.8-24.5,35c-6.6,0.8-13.8,2-21,2.4
		c-22.2,1.2-22.2,1.1-40.7,13.2c-22.9-3.9-39.8-14.3-53.2-31.2c-10.9-13.7-23.8-24.4-41-30.4c-14.3-5-27.8-12.7-41.1-20.2
		c-9.5-5.3-9-6.1-20.4-6.9c-3.3-4.3-6.9-8.9-10.4-13.3c-5.9,0.3-9.5,3-10.9,7.9c-1.8,6.5-3.5,12.6-10.2,16.2
		c-2.6,1.4-4.2,5.1-5.5,8.1c-4.3,10.2-11.9,11.2-21.7,8.4c-1.4-3.9-2.4-7.7-4.2-11.1c-1.5-2.8-3.6-6.7-6.2-7.4
		c-13.4-3.4-15.3-17.7-24.5-25c-2-1.6-2-6.1-2.3-9.3c-0.6-6.6-0.8-13.1-1.3-21.5c-10.9,4.7-20.2,8.7-30,12.9
		c-0.9,4.5-1.4,9.1-2.9,13.5c-2.5,7.5-2.1,14.4,2.1,21.1c0.7,1.1,1.9,2.4,1.8,3.5c-0.1,2.4-0.3,5.2-1.6,7.1c-1.5,2.2-6.1,0.5-8-3
		c-1.9-3.5-3-7.4-5-10.8c-2.3-3.9-4.7-8.3-8.2-10.8c-2.5-1.8-7-0.8-11.8-1.1c0.8,7.4,1.4,13.1,2.1,20.2c-4.2,1.1-8.2,2.1-12.9,3.3
		c-2.6-11.6-4.8-21.9-7-31.7c-4.9-2.5-9.6-3.7-12.7-6.6c-3-2.9-2.7-9.2-9.5-8.6c-6.1,3.7-0.9,11.5-6.3,16.9
		c-7.1-5.8-12.5-12.1-13.3-22.1c-0.7-8.6-2.2-17.1-3.6-25.6c-0.8-5.3-3.1-9.6-7-13.8c-9.9-10.5-8.2-23.8,3.3-32.6
		c2.6-2,5.7-3.4,8.4-5.3c2.6-1.8,5.1-3.8,8-6c-20.5-11.8-25-11.3-43.8,4.3c-6.5-0.7-8.2-5.6-9.6-10.9c2.5-6.3,8.3-8.4,13.7-10.7
		c11.6-4.9,22.5-11.9,35.9-10.2c2.8-11.2,1.1-16.2-6.9-19.4c-7-2.8-14.2-3.2-21.5-0.5c-4.8,1.8-9.6,3.5-16.4,1.3
		c5.3-6.6,11-11,16.7-15.4c5.7-4.5,10.9-9.7,15.8-15.1c3.5-3.9,3.4-8.4-0.5-13.3c-15.3,0.7-26.2,11.3-38.2,19
		c-12.2,7.9-23.2,17.4-34.7,26.2c-4.5-3.4-7.9-6.5-11.7-8.8c-3.9-2.3-8.2-3.8-11.6-5.4c-2.5-7.7,1.2-13.1,4-18
		c3.4-6,1.2-11.5,1.2-18.4c12.1-7.9,25.4-15.8,28.8-32.6c-18.7-5.5-31.9,1.4-42.3,15.5c-11.9,16.1-26.3,29.8-41.4,42.4
		c-12.4-8.1-14-10.1-19.4-24.8c6.4-4.2,13.3-8.2,19.5-13.1c2.1-1.7,3.4-5.5,3.4-8.4c0-1.3-3.8-2.9-6-3.9c-1.8-0.8-3.8-0.9-6.6-1.6
		c-1.3-4.1-2.6-8.4-4.1-12.7c-1.3-3.8-2.7-7.5-4.5-12.3c3.5-1.8,6.7-3.9,10.2-5.1c5-1.6,10.3-3.2,15.5-3.6c14-1.1,25-7.1,34.6-17.5
		c9.6-10.4,22.4-16.5,36-20.7c16.6-5.1,33.5-8.9,50.8-9.9c14.6-0.9,27-6,38.4-14.8c16.3-12.6,32.8-24.9,51.3-34.4
		c14.4-7.3,29.2-12.6,45-16c11-2.4,22-5.1,33.8-7.8c1.4-6.3,2.7-11.8,4.3-18.8c-6.7-0.3-11.8-0.7-17-0.7c-6.7,0-13.3,0.7-20,0.5
		c-17.1-0.4-25.4-9.8-23.7-27.1c0.6-5.8,2.1-11.5,3.3-18c-8.1-2.7-14.2,0.4-20.5,1.7c-7.8,1.7-15.5,3.3-23.4,4.6
		c-1.2,0.2-3.7-1.8-4.1-3.2c-0.4-1.4,0.7-4.2,2-4.9c4.6-2.5,9.6-4.5,14.5-6.5c12.3-5.2,24.5-10.4,36.9-15.3
		c8.8-3.4,14.1-9.6,16.7-18.4c1.3-4.3,2.9-8.6,4.7-13.7c-13.8-7.7-30.4,0.5-43.7-10c2.1-3,3.5-7,6.4-8.8c7.9-4.9,16-9.6,24.6-13.1
		c9.6-3.9,16.9-10.4,24.1-17.4c6.2-6.1,8.1-13.1,7.5-23c-4.6,0.9-8.4,1.1-11.8,2.4c-9.3,3.5-18.7,7.1-27.7,11.3
		c-15,7.1-30.8,8.2-46.9,7.4c-8.9-0.4-17.2,0.7-25.3,4.1c-14.9,6.2-30.5,9.4-46.3,11.6c-19.7,2.8-39.5,5.5-59.2,8.5
		c-5.9,0.9-12.1,1.5-17.6,3.7c-19,7.5-35.4,0.7-50.8-9.1c-8.4-5.4-15.7-12.2-25.8-14.5c-5.6-1.2-8.9-5.2-11.9-9.9
		c-10-15.7-20.9-31-30.3-47c-5.3-9.1-9.4-19.1-12.6-29.2c-3.8-12.1-11.5-19.1-23.2-22.5c-5.1-1.5-10.3-2.8-15.4-4.4
		c-7.8-2.4-14.8-6.3-18.8-13.8c-10-18.5-27.3-25.1-46.4-26.5c-11-0.8-18.9-5.1-26.6-11.7c-5.5-4.8-11-9.7-16.2-14.8
		c-10.2-10-18.1-20.9-18.5-36.2c-0.3-10.9-5.3-19.7-13.9-27.4c-14.7-13.2-22.1-31.5-28.9-49.6c-5.7-15.1-13.7-28.8-20.7-43.2
		c-4.5-9.2-11.3-12.9-20.9-11.8c-17.6,2.1-35.9-0.5-53.3,7.5c-8.8-6.8-14-16.2-19.9-24.8c-6.1-9-13.6-15.5-23.4-20.9
		c-18-10-36.8-19.9-51.9-33.5c-16.3-14.6-35.3-23-53.8-33.2c-0.6-0.3-1.3-0.5-1.8-0.8c-20.1-13.4-42.1-22.5-64.8-30.3
		c-11.5-4-21.6-10.2-31.2-17.6c-4.7-3.7-9.6-7.3-14.6-10.5c-8.4-5.5-17.1-10-27.7-10c-5.8,0-11.7-2-17.1-3.1
		c-4.3-13.1-7.9-43.3-5.8-55.7c2.3-13.8,4.7-27.6,8.8-41c10.1-33.2,18.5-66.7,23.2-101.1c1.7-12.5,4.7-24.9,7.3-37.2
		c0.5-2.6,1.5-5.2,2.8-7.5c10.4-19,23.5-35.5,42.9-46c2.2-1.2,5-1.3,8.6-2.2c2.1,15.8,4.1,30.8,6.2,46.3c3.4,1.2,6.3,3,9.5,3.4
		c6.6,0.7,13.4,1.6,19.9,0.9c27.7-2.9,54.3,3.9,81.1,8.7c3.8,0.7,7.6,2.5,11,4.5c14.8,8.9,30.6,16.3,42.9,29
		c5.9,6.1,13.1,8.6,21.8,7.2c12.1-2.1,23.7-1.4,34.5,5.8c5.8,3.9,12.5,3.2,19.1,0.6c13.6-5.3,27.6-9.8,41.1-15.6
		c12.4-5.3,23.9-5.5,36.6-0.3c16.4,6.8,30.8,15.3,41.1,30.3c4.1,5.9,7.9,12.4,14.8,16c8.1-4.7,3.9-16.8,12.9-21.8
		c6.8,6.1,3.8,15.9,10.6,23.3c4,0.2,9.6,0.5,14.8,0.7c5.8-10.4-1.5-21.2,4.3-30c4.8-0.4,3.7,2.9,4,5.1c0.9,9.3,2,18.5,2.4,27.8
		c0.4,8.2,2.4,15.6,6.3,22c5.8,3.1,11.4,3.6,15.8,0.3c5.2-3.9,10-8.8,13.6-14.1c2.6-3.8,2-9-1.8-12.9c-2.3-2.3-4.4-4.8-6.1-6.6
		c-0.9-7.1,4.6-11,4.3-17.7c-0.5-10.1,8-14.6,17.9-12.4c7.5,1.7,13.6,5.5,18.5,11.1c9.1,10.2,19.9,12.3,32.4,7.2
		c3.1-1.2,6.2-2.4,9.5-3.2c13.6-3.1,24.4-9.3,30.2-23.1c2.3-5.4,7-9.6,10.5-14.5c5-7,10-14.1,14.9-21.1c3.8-5.4,7.2-11.2,11.5-16.2
		c6-6.9,9.7-14.7,9.1-23.6c-0.7-10.8,3.7-19.5,9.4-27.8c14.7-21.4,29.4-42.8,44.6-63.9c3-4.2,7.7-7.2,12-10.3
		c9.1-6.6,18.5-13,28.2-19.8c5.6,4.4,11.5,0.7,17.4-1c1.6,5.6,2.9,10.6,4.7,16.9c7-3.5,12.8-6.4,19.5-9.8c5.3,2.2,11.3,4.6,17.6,7.2
		c1.3,3.3,2.6,7.1,4.3,10.7c0.8,1.6,2.9,3.9,4.1,3.7c12.4-1.4,23.1,8.7,36,4.6c4.8-1.5,10.6-0.9,15.8-0.2
		c13.5,1.9,23.5,8.3,27.6,22.3c2.8,9.6,7.2,18.2,14,26c7.2,8.4,8.2,19.4,4.6,30.1c3.9,2.9,7,5.2,9.8,7.3c0.7,14.8,1.4,29.1,2.1,43.9
		c5.6,5,13.2,4.5,20.4,4.1c9.7-0.5,18.3,2,26.7,6.6c13,7,26.7,11,41.6,12.7c13,1.5,23.7-1.2,33.4-9.3c6.3-5.3,13.3-9,21.5-9.9
		c5.9-0.7,11.8-0.7,17.7-0.5c4.6,0.2,9.2,1.7,13.9,1.7c12,0,19.1,5.5,24.8,16.2c28.4,53.5,57.7,106.6,86.6,159.9
		c1.6,2.9,2.8,6.4,5.1,8.5c3.3,3,7.4,6.9,11.3,7.1c6.9,0.3,11,3.7,15.2,8.1c13.4,13.9,27,27.6,40.4,41.5
		C8524.5,2482.1,8526.9,2485.3,8528.9,2487.8z"/>
	<path id="_x32_531" class="st0" d="M8995,3491.1c3.7,8.6,1.6,16,1.6,23.1c0,7.3-0.8,14.6-1.5,21.9c-1,11.3,0.3,23.4-3.8,33.5
		c-4,10-13.8,17.7-20.2,26.9c-4.8,7-8.3,14.9-13,23.5c-11.8-8.1-23.3-15.8-34.5-23.5c-11.5,6.3-17.1,12.4-25.4,27.9
		c10.3,8,20.7,16.1,31.2,24.3c-0.8,12.2-6.7,22-11.4,32.1c-1.3,2.7-6.6,5.1-10,5c-10.2-0.2-15.8,5.2-20.3,13.4
		c-7.9,14.3-20.7,24.4-32.7,34.8c-12.2,10.5-23.8,20.9-28.7,37c-0.9,3-3.5,5.5-5.6,8.7c7.7,12.3,18.7,20.7,29.7,29.7
		c4-1.4,7.5-2.7,11.4-4.1c7,6,14,12,21.3,18.2c12.1-8.7,23.3-16.8,33.9-24.3c6.3,1.9,11.3,3.4,17.2,5.1c2-4.7,3.8-8.7,6-13.7
		c32.1-2,64.6-4,97.2-5.9c1.8-0.1,3.9,0.8,5.5,1.8c0.9,0.5,1.4,2.3,1.4,3.4c-0.1,1.1-0.9,2.7-1.9,3.1c-1.8,0.8-3.9,1.4-5.8,1.2
		c-13.1-0.7-24.8,3.5-36.5,8.9c-15.1,7-30.4,13.4-46.8,20.6c0.3,4.4-0.1,9,1,13.2c5.4,19.9,11.3,39.7,16.8,59.6
		c1.4,4.9,2,10.1,2.9,15.2c-3,1.2-4.7,2.2-6.6,2.5c-32.9,5.3-65.8,10.4-98.6,15.9c-8.4,1.4-15.5,0-22.2-5.7
		c-11.6-9.9-23.7-19.2-36.6-29.5c-7.1,4-14.8,7.8-22.1,12.3c-30.7,18.9-62.2,36.1-94.6,51.7c-12.1,5.8-24.6,9.5-37.9,11.9
		c-17,3-33.8,7.5-50.6,11.3c-13.6,3.1-27,6.2-41.2,6c-11.3-0.2-21.9,3.6-29.1,14.3c-7.4,11-16,21.1-23.9,31.4
		c-8,0.1-12.9-4.6-18-8.7c-4.2-3.3-8.3-6.8-12-10.5c-6.8-6.8-15-8.5-24-6.7c-9.8,2-19.6,4.1-29.1,7c-6.6,2-12.9,1.9-19.6,1.5
		c-22.6-1.4-43-6.8-59.3-24.1c-6.5-6.9-16.5-8.2-26-8.9c-5.3-0.4-10.8,0.4-15.9-0.6c-5.8-1.1-11.8-2.7-16.9-5.5
		c-9.3-5.2-11.9-12.7-9.4-23.6c1.8-7.8,4.2-15.4,6-23.2c0.5-2.2-0.2-4.6-0.4-8.4c-16.6,7.3-27.1,21.7-44.6,26.4
		c-1.7-3.2-3.5-5.8-4.5-8.7c-4-11.4-8.2-22.4-17.8-30.7c-4.9-4.2-5.9-10.2-4.6-16.5c0.7-3.3,1.3-6.5,1.9-9.8
		c1.7-10-1.6-17.9-10.8-24.6c-5.5,6.2-4.5,14.1-7,20.6c-2.2,6.1-1.1,13.6-8.4,17.8c-2.7-0.5-5.9-1.2-10.4-2.1
		c-2.1,4-4.5,8.5-6.2,11.7c2.6,13.6,15.1,18,21.6,28.7c-16.5,9.9-32.4,16.9-51,15.8c-1-1-2.7-2-2.6-2.8c1.3-11.1-4-19.3-11.6-26.2
		c-9.6-8.8-15.9-19.5-20.9-31.3c-4.2-10-10.1-18.5-19.9-24.2c-8.6-5-13-12.9-13.6-23.1c-0.5-8.1-3.4-15.4-9.2-21.5
		c-2.6-2.8-4.3-6.7-5.7-10.4c-6.8-18.1-13.5-36.2-20-54.3c-3.7-10.2-4.4-20.7-1.6-32.5c4,0.2,7.8,0.4,12.5,0.6
		c6.1-4.7,7.7-12.7,11-20.5c-10.4-15.5-25.8-26.4-38.1-40.6c0.7-2.8,1.3-5.3,2-7.8c4.5-16.7,10.4-33.3,3-50.7
		c-2.6-33.9-10.4-66.9-15-100.5c-0.6-4.2-0.1-8.6,2.3-13.1c1.5,9,3.8,18,4.4,27.1c0.4,7,2,12.9,6.4,18.3c5,6.1,9.6,12.6,14.1,18.4
		c7.8-0.7,4.7-7.9,9.3-10.7c11.5-2.3,12.8-1.8,14.5,7.5c1.6,8.4,1.4,17.3,6.7,24.5c1.5,0.4,2.9,1.2,4,0.9c5.1-1.3,10.1-3,16-4.8
		c1-5.7,1.9-11.3,3.2-18.7c8.7,9.5,8.2,24.4,22.2,28.6c5.8-1.5,8.1-7,11.4-13.6c-6.9-10.9-10.5-23.3-4.1-37.5
		c5.5-1.7,11.8-3.7,18.9-5.9c4.5,6.8-0.5,14.4,2.2,21.1c3,6.5,11.8,8.6,12.8,16.9c0.2,1.7,2.1,3.6,3.7,4.5
		c9.5,5.3,17.5,11.4,20.3,22.8c0.5,2.1,5.3,4.4,8.1,4.5c5.9,0.2,11.8-1.1,17.7-1.7c5.7-7.9,8.6-16.9,17.3-22
		c3.5-2.1,4.2-8.9,6.9-15.3c3.5,3.7,6,6.5,8.8,9c1.9,1.7,4.7,4.2,6.5,3.7c7.6-1.8,12.3,3.2,18.1,6.3c12.4,6.5,24.6,13.7,37.8,18
		c16.8,5.4,29.8,15.4,39.6,28.9c9,12.5,20.1,20.9,34,26.5c3.7,1.5,7.4,3,10.9,4.9c8.4,4.5,15.9,5.2,23.7-2
		c7.6-7.1,17.1-9.7,27.6-9.4c9.2,0.2,18.5-0.8,27.1-1.3c11.7-12.3,15.5-29.6,31.6-37.6c-1.8-4.8-3.4-9-5.4-14.2
		c7.1-6.2,14.5-12.6,22.7-19.6c-2-5-3.8-9.7-6.2-15.5c2.6-3,5.7-6.4,8.6-9.9c6-7.1,12.4-13.9,17.8-21.4c7.4-10.3,7.1-10.5,3.1-24.5
		c6.4-4.7,13.3-9.7,21.1-15.5c0-5.1,0-10.8,0-15.9c7.1-12.1,18.5-16.9,30.2-19.2c15.6-3,31.7-3.5,47.6-5.2c9.6-1,16.7,3,22.2,10.6
		c5.1,7,10.4,13.8,16.5,21.9c13.3,0.1,27.2,0.3,41.1,0.1c40.6-0.3,81.3-1.3,121.9-1c15.9,0.1,31.8,2.7,47.7,4.5
		C8922.4,3482.5,8958.1,3486.7,8995,3491.1z"/>
	<path id="_x32_543" class="st0" d="M7903.9,4123.7c11.4,2,22.3-0.1,28.8,11.7c2.6,4.6,8.7,3.5,12.8,1.5c6-2.8,11.8-6.2,17.1-10.2
		c13.3-10.1,26.3-20.3,42.3-26.1c9.5-3.4,14.3-11.7,15.7-21.5c1-6.8,2.7-12.9,6.8-17.3c1.7-0.6,2.3-1.1,2.9-1.1
		c23.6,1,23.6,1.1,39.5-16.2c2.7-2.9,5.3-6,7.8-9.1c10.6-13.2,10.7-13.6,8.2-31.7c2.7-1,5.6-2.5,8.6-2.9c5.2-0.8,8.2-3.8,10.4-8.3
		c3-5.9,6.2-11.7,9.4-17.8c5.6-0.8,10.9-1.3,16-2.4c5.9-1.3,11.7-3.2,14.8-9c3.2-5.9,8.6-8.1,14.9-8.6c16.5-1.4,29.6-11,44.1-16.4
		c0-8.7-6.5-10.9-10.4-14.9c-5-5-12-8.5-13.3-17.7c13.8,0,20.4-7.1,21.9-19.9c0.4-3.8,2.3-7.4,3.4-10.9c5.2-0.4,4.2,3.2,4.2,5.3
		c0,4-0.6,8-1,11.9c-0.9,9.7,0.5,18.6,8.8,25.2c6,4.8,8.5,11.7,11.1,18.6c2.6,6.7,3.5,14.2,9.2,20c14.4-2.3,24.5-12.8,36.5-19.1
		c4.5,5.2,0.9,9.3,0,13.6c-4.3,19.5,6.9,35.5,27.1,38.2c6.6,0.9,13.3,1.1,19.9,0.9c10.7-0.3,19.4,3.9,27.2,10.7
		c2.5,2.2,4.9,4.5,7.6,6.5c8.6,6.5,17.6,12,28.9,12c4.6,0,9.2,1.4,13.8,2.1c12.6,1.7,25.2,2.2,37.4-2.6c4.9-1.9,10.3-2.8,15.5-4
		c11.3-2.6,20.4,0.6,29,8.6c7.2,6.7,16,11.8,24.2,17.3c1.5,1,3.7,1.1,7,1.9c3.7-5.1,7.5-10.4,11.4-15.6c5.6-7.4,11.6-14.7,17.1-22.2
		c4.7-6.4,11.4-10.4,18.7-10.1c25.2,0.7,48.5-8,72.5-12.8c15.7-3.1,31.2-6.7,46.9-10c2.6-0.5,5.3-1.1,7.9-0.8
		c14.6,1.6,29.1,3.3,43.6,5.3c1.7,0.2,3.3,1.9,5.8,3.6c-3.9,4.9-7.5,9.6-11.4,14c-20.3,23-40.5,46-61.1,68.7
		c-6.8,7.4-9.7,14.6-7.8,25.1c4,22.9,6.3,46.2,9.4,69.3c0.3,2.5,1.1,5,1.9,8.4c16.6,1.9,33.7-0.1,49.3,9.5c0,4.7,0,9.8,0,16.3
		c-9.3,3.1-18.5,6.2-28,9.4c-4.7,14.4-3.4,29-4.8,44.5c4.6,0.6,8.4,1.5,12.2,1.6c28.7,0.3,57.3,1.3,85.9,0.4
		c26.1-0.9,49.9,6.2,75.1,16.6c-3.1,2.7-5,5.2-7.5,6.4c-47.8,23.5-95.7,46.8-143.7,70.1c-1.1,0.6-2.5,0.6-5.2,1.2
		c-16.3-7.9-33.9-15.9-51-24.7c-9.2-4.8-18.5-6.7-28.7-6.6c-25.3,0.2-50.6,0-76-0.5c-38.6-0.8-77.2-2.7-115.8-3
		c-44.6-0.4-89.3-2.1-133.9,0.7c-9.9,0.6-18,1.8-23.3,11.7c-3,5.7-4.2,5.1-15.3,7.4c-5.4-8,5.4-19-7.1-27.1
		c-5.5,0.5-12.2,4.2-18,9.8c-5.3,5.1-10.2,10.5-15.3,15.8c-11.9,12.5-26.1,17.6-43.3,14.2c-18.3-3.6-36.6-7.2-55.5-4.6
		c-1.9,0.3-4.4,0.4-5.8-0.6c-7.8-5.3-15.3-2.2-22.9,0c-2.5,0.7-5.2,0.7-8.9,1.1c-5.4-8-10.9-16.1-16.5-24.4c-4.2,0.4-8,0.8-11.7,1.1
		c-1.1-9.5,1.2-14.3,7.4-15.1c3.2-0.4,6.6,0.5,9.9,0.5c10.1,0,10.8-0.6,16-14.8c-3.1-0.9-6.1-2.4-9.1-2.5
		c-26.6-0.9-53.3-1.6-79.9-2.4c-40.6-1.3-81.2-2.5-121.8-4.1c-12.5-0.5-25-2.1-36.7-3.1c-0.9-1.7-1.4-2.3-1.5-2.9
		c-1-26.2-0.6-23.7-24.8-38c-5.6-3.3-11.8-5.6-17.2-8.2c-0.4-7.3,4.2-9.9,8.6-10.5c8.7-1.2,14.6-5.9,19.6-12.4
		c5.3-6.8,12.1-9.8,20.9-9.2c4.6,0.3,9.2-1.3,13.8-1.5c14.7-0.5,24.9-8.5,32.7-19.9c3.8-5.6,8.1-10.1,13.6-14.2
		c8.2-6.1,8.4-11.5,3.4-22.7C7905.5,4128.8,7905,4127.1,7903.9,4123.7z"/>
	<path id="_x32_533" class="st0" d="M9438.6,899.8c-14.4,3.3-25.7,11.1-35.1,21.8c-0.4,0.5-1,0.9-1.6,1.2
		c-19.8,10.8-34.3,26.9-47,45.3c-5.2,7.6-12.3,14-18.5,20.9c-1.8,2-3.5,4.4-5.8,5.4c-20.1,8.6-37,24-59.1,28.3
		c-7.8,1.5-15.7,3.2-23.6,3.4c-12.2,0.2-23.8,2.5-35.2,6.4c-8.2,2.8-16.3,5.9-24.5,8.5c-14.8,4.6-29.9,6.4-45.3,2.8
		c-11.8-2.7-23.7-3.4-35.5,0.9c-1.9,0.7-4,1.4-5.8,1.2c-11-1.4-19.3,3.4-25.3,11.1c-10.8,1.2-19.5-0.8-27.3-6.9
		c-2.6-2-5.6-3.7-8.5-5.3c-5.8-3.2-11.8-3.7-16.6,1.3c-4.8,5-10.3,7.8-17,9.4c-4.7,1.1-7.8,4.6-8.9,9.8c-2.7,13.6-5.8,27.2-8.5,40.8
		c-2.4,12.1-9.2,18.9-20.9,20.1c-0.7,0.1-1.3,0-2,0c-41.9,1.2-83.8,2.4-125.7,3.4c-5.9,0.1-11.8-0.4-19-0.7
		c-0.8-4.9-1.9-9.2-2.1-13.6c-0.8-16.6-1.7-33.2-1.9-49.8c-0.1-7.8-2.8-14.1-6.8-20.4c-21.2-33.9-42.2-67.9-63.2-101.9
		c-3.8-6.2-7.5-12.5-11.8-19.8c3.9-2.2,7-4.5,10.4-5.7c40.4-13.4,80.8-26.9,121.4-39.9c9.3-3,16.9-7.3,21.8-16
		c2.3-4,5.2-7.7,8.2-11.3c4.5-5.5,5.7-11.6,5.9-18.6c0.7-36-0.9-71.8-5.1-107.6c-3.6-30.3-5.6-60.9-8.4-92.4
		c4.2-0.8,7.9-2.2,11.6-2.2c27.3,0.2,54.6,0.4,81.9,1c57.2,1.3,114.5,2.9,171.7,4.1c60.6,1.2,121.1,2.1,181.7,3.2
		c17.3,0.3,34.6,0.9,51.9,0.5c10.5-0.2,17.6,3.8,23.3,12.3c7.1,10.5,14.5,20.8,22.6,30.5c5.6,6.7,7.2,13.9,7.1,22.2
		c-0.4,23.3-0.6,46.6-0.9,69.9c-0.5,37.3-1,74.6-1.6,111.9C9439.7,890,9439,894.6,9438.6,899.8z"/>
	<path id="_x32_532" class="st0" d="M8967.5,1133.6c0.4,5.7-1.7,10.1-6.6,13.1c-3.4,2.1-7.4,3.6-9.9,6.4
		c-5.2,6.1-9.6,11.9-18.5,13.8c-5.2,1.2-9.3,7-13.9,10.7c-2.3,0-4.3,0.1-6.2,0c-17-0.6-17.4-0.5-20.6,16.3
		c-1.5,8.1-3.5,15-11.8,19.5c-4.8,2.6-8.6,8.2-11.4,13.2c-12.1,22.2-31.2,35.9-53.7,45.6c-3,1.3-6.4,2-9.5,3.1
		c-7.2,2.5-12.8,6.8-15.8,14.2c-1.8,4.2-4.1,8.2-6.3,12.5c-3.7,0.4-7,1.2-10.3,1.1c-67.9-0.8-135.8-1.6-203.7-2.5
		c-1.9,0-3.7-1.1-6.8-2.1c-2-19.3-4-39-6-58.1c-5.9-4.9-12.2-3.3-17.9-3.1c-12.8,0.4-25.1-2-37.4-5.2c-21.2-5.5-42.6-10.4-63.9-15.4
		c-3.9-0.9-7.9-1.3-11.9-1.4c-29.3-0.4-58.6-0.5-87.9-1c-8.2-0.2-15.7,1.8-23.2,4.7c-11.8,4.6-23.9,8.2-35.7,12.7
		c-9.2,3.5-18.3,3.5-27.3,0.1c-16.1-6.2-32.5-5.8-49.2-3.9c-13.2,1.4-26.4,1.9-38.2,2.6c-16.2-11-20.3-26.4-22.7-42.4
		c-2-13.8-3.1-27.8-3.8-41.7c-0.6-10.8-2.2-20.8-7.5-30.5c-7.7-14.1-12.6-29-14.1-45.4c-1.3-13.8-5.6-27.4-8-41.1
		c-2.7-15.7-4.8-31.5-6.9-47.3c-1.1-8.8,1-16.9,5.3-24.9c4.7-8.7,7.9-18.1,12.5-29.1c12.1-6.3,26.2-10.1,42-10
		c72.6,0.6,145.2-0.9,217.8,1.1c89.2,2.4,178.4,1.1,267.6,3c26.6,0.6,53.2,0.1,80.6,0.1c3.1,4.3,6.4,8.4,9.2,12.8
		c23.2,37.3,46.1,74.8,69.6,112c5.6,8.8,8.7,17.5,8.2,28c-0.6,12-0.3,24-0.1,36c0.2,7.2,1,14.4,1.6,21.9c17.6,4.7,34.2,0.5,50.6,1.2
		c17.3,0.8,34.6-0.3,51.9-0.5C8934.1,1133.5,8950.7,1133.6,8967.5,1133.6z"/>
	<path id="_x32_539" class="st0" d="M9229.6,3214.3c26.2,24.9,84.3,89.9,91.5,102.4c-2.9,1.5-5.7,3.5-8.8,4.4
		c-6.3,1.8-10.7,5.5-12.7,11.6c-3.8,11.1-11.3,19.5-19.4,27.5c-12.2,12.1-19.7,26.4-24.1,42.9c-4.5,16.7-11.6,32.5-12.2,50.2
		c-0.3,10.1-8.1,16.7-15.6,22.2c-6.4,4.7-13.6,8.3-20.5,12.3c-4.6,2.7-9.5,4.8-14,7.8c-5.6,3.7-11.2,8.5-11.9,15.3
		c-1.4,12.6-8.9,22-14.9,32.3c-10.8,18.5-20.1,37.4-21.3,59.4c-0.8,15.4-11.8,25.5-22.9,33.5c-19.6,14.2-33.1,32.3-42.6,54
		c-2.1,4.8-4.4,9.9-8,13.6c-17.9,18.7-36.3,37-55.3,56.3c-20.2-2.4-40.5-4.9-61-7.3c-5.2-11.7-1.1-23.3-3.6-35.1
		c-2.9-2.5-6.3-5.4-9.4-8.1c0.1-2-0.2-3.4,0.3-4.5c8.1-21.8,16.2-43.7,24.4-65.5c2.1-5.6,4.9-10.8-0.2-16.6c-1.1-1.3,0-4.9,0.6-7.4
		c2.3-9.4,7.8-17.2,14.6-23.5c12.7-11.7,16.9-26.1,17.3-42.7c0.5-19.9,2-39.8,3.1-60.8c-3.7-1.1-7.2-2.8-10.9-3.3
		c-32.4-3.9-64.8-7.6-97.2-11.4c-15.2-1.8-30.3-3.6-46.5-5.5c0.5-4.7,0-8.8,1.5-12.1c15.1-32.5,19.8-67.3,24.8-102.3
		c4.7-32.7-4.5-61.9-18.5-90.3c-2-4-5.8-7.2-9.1-10.4c-5.2-5.2-10.7-10-15.9-15.1c-3.3-3.3-6.3-7-6-12.1
		c1.5-24.3-7.2-45.6-19.4-65.9c-0.6-1-0.3-2.5-0.4-4c1.5-3.9,5.3-3.2,8.4-3.2c28,0.5,55.9,0.8,83.9,2.1c11.2,0.5,22.5,2.3,33.4,5
		c72.4,17.8,144.7,35.9,216.9,54.2c23.6,6,47.1,8,70.9,1.7C9222.1,3215,9225.5,3214.9,9229.6,3214.3z"/>
	<path id="_x32_542" class="st0" d="M8892.2,4247.5c-3,2-4.7,3.1-6.4,4.2c-10.7,7.6-21.6,8.3-33.8,2.9c-23.5-10.3-48.2-13.9-74-12.6
		c-19.3,1-38.6-0.1-58-0.3c-9.9-0.1-19.9,0-29.7-2.9c-2.4-11.9,0.2-22.8,2.8-34.1c9.3-2.9,18-5.7,26.4-8.4
		c7.5-31.3,5.7-27.7-21.4-34.3c-8.2-2-16.9-1.6-26.5-2.4c-1.9-11.8-3.8-22.8-5.5-33.9c-1.7-11.9-2.9-23.8-4.9-35.6
		c-1.7-9.9,0.7-17.7,7.8-25.3c22.1-24,43.6-48.6,65.2-73.1c4.3-4.9,8.3-10.1,13.7-16.6c-5-2-8.2-4-11.7-4.5
		c-11.8-1.7-23.7-2.8-38.1-4.4c3.1-3.4,4.2-5.6,6-6.6c34.5-18.8,69.1-37.4,105.2-56.8c5.5,4.3,12.2,9.5,18.9,14.7
		c3.7,2.9,7.6,5.5,11,8.6c9.4,8.6,18.8,11.9,32.5,9c30-6.2,60.5-9.6,90.8-14.3c5.8-0.9,11.6-2.4,18.2-3.8
		c-0.9-16.4-7.2-30.4-10.9-44.9c-3.6-14.1-7.6-28.2-11.6-43.1c4.5-2.5,8.4-4.9,12.4-6.8c10.9-4.9,22.1-9.3,32.9-14.5
		c18.1-8.6,36.9-10.7,56.4-7.4c11,1.8,22.7,0.7,34.2,6.7c-3.1,7-6.1,14-9.4,21.6c17.3,5.4,33.5,6.4,50.3,4
		c21.9-3.1,42.8-9.8,63.6-16.9c6.1-2.1,12.4-3.7,19.6-5.8c2.1,7,3.7,12.6,5.8,19.6c-4.3,1.1-7.8,2.7-11.4,2.9c-8,0.4-16,0.3-24,0.1
		c-9.5-0.2-18.1,0.5-25.7,7.9c-3.9,3.8-10.7,5.1-16.5,6.2c-9.8,1.9-17.2,7.3-23.1,14.7c-9.5,12-18.6,24.3-27.7,36.6
		c-1.9,2.6-2.7,6-4.3,9.8c-5.3,1.3-11.2,2.4-16.8,4.2c-6.8,2.2-9.5,6.5-9.1,13.7c0.1,2.6,0.8,5.2,1.4,7.8
		c4.3,17.4,8.5,34.9,13.1,52.2c3.1,11.7,1.7,22.3-5,32.4c-17.1,26.2-33.8,52.7-51.1,78.8c-6.7,10.1-13.2,19.6-12.6,32.7
		c0.4,8.8-5,13-14.1,16.2c-21.9,7.6-42.9,17.7-60.8,33.3c-10,8.7-21.2,16.1-32.3,23.3c-6.8,4.5-10.1,9.9-10.1,18
		C8894,4229.4,8892.9,4238,8892.2,4247.5z"/>
	<path id="_x32_544" class="st0" d="M8302.7,4567.9c-7.6-21.3-12.2-41.4-16.3-61.5c-1.3-6.2,0.6-13.1,1-19.7c0.4-6,1.2-11.9,1-17.9
		c-0.1-5.9-1.3-11.7-2-17.9c-5.9-1.3-10.9-2.4-17.1-3.7c-2-24.6-14-44-31.8-60.2c-10.4-9.4-11.8-21.2-6.8-32.8
		c5.4-12.6,7.9-25.1,7.7-38.6c-0.1-5.3,3.1-8.6,10-8.3c0.4,9,0.7,18,1.1,27.7c15.9-0.1,25.3-8.6,33.5-21.4c17.3-1,35.1-2.9,53-3.1
		c35.3-0.4,70.6-0.2,105.8,0.5c59.9,1.1,119.7,2.8,179.6,4c8.9,0.2,16.9,2.2,24.8,6.3c14.2,7.3,28.6,14.2,43,21
		c6.3,3,10.7,7.3,14.3,13.2c4.4,7.3,9.9,13.9,15.7,21.8c-3.9,2.4-7.5,5.6-11.6,6.8c-58.2,17.6-112.7,43.8-167.2,70.3
		c-74.8,36.4-149.8,72.3-224.7,108.4C8312.2,4564.5,8308.4,4565.7,8302.7,4567.9z"/>
	<path id="_x32_540" class="st0" d="M9133.4,3637.3c2.8-4.2,4-6.6,5.8-8.5c8.6-9.1,12.3-19.6,13.2-32.3c1.2-17.5,9.8-32.9,18.4-47.9
		c6.2-10.9,14.5-20.6,16-34c0.8-6.8,6.4-11.5,12.3-15c6.3-3.7,13-6.7,19.3-10.5c6.2-3.8,12.5-7.7,18.1-12.4
		c7.8-6.6,12.6-14.6,13.2-25.6c1.3-21.5,10.1-41.3,17.3-61.2c3.2-9,10.7-16.7,17-24.3c7.6-9.2,16.6-17.4,20.5-29.2
		c1.8-5.6,5.9-8.6,11.3-10.2c3.8-1.2,7.5-2.6,11-3.7c15.5,7.6,25.7,20.1,33.5,41.2c-1.2,3-2.9,6.6-4.2,10.3
		c-4.4,13.3-7.1,26.2-4.6,40.8c12.4,72.8,23.8,145.8,35.5,218.8c0.3,1.9,0.4,3.9,0.8,7.6c-23.7,23.8-49.7,46.3-75.1,70.3
		c-21.3-5.6-40-15.7-59.6-23.6c-19.7-8-39.2-16.6-58.8-24.9C9174.5,3654.6,9155,3646.4,9133.4,3637.3z"/>
	<path id="_x32_541" class="st0" d="M9093.9,3825.2c3.6-7.8,6.7-14.7,10.2-22.2c-16.3-7.2-33.8-4.4-50.2-10.7
		c-2.2-3.9-4.8-8.4-7.5-13.1c-8.3,0-16.2-0.4-24.1,0.1c-24.5,1.7-49,3.8-73.6,5.5c-8,0.6-16.1,1-21.8-6.5c-1.1-3.9,1.2-6.5,4.1-8.1
		c13.4-7.7,26.6-13.6,43.3-9.7c14.7,3.5,30.2,3.8,45.5,5.5c4.2-4.1,8-7.8,11.7-11.6c12.6-12.8,25.2-25.6,37.8-38.4
		c7.5-7.6,13.7-15.8,17.7-26.2c5.8-15,15.9-27.7,27.1-39.2c3.6-3.7,8.4-6.2,13-9.5c61.8,26.1,123,51.8,185.1,78
		c25.9-21.6,48.8-45.7,75.3-68.1c1.7,4.1,3.4,6.7,4,9.6c12,61.5,17,122.3,12.8,155.7c-12.8,5.3-26.2,11-39.7,16.2
		c-3.6,1.4-7.8,1.6-11.8,1.6c-37.3-0.1-74.6-0.3-111.9-0.6c-2.6,0-5.2-0.5-8.9-0.9c-3.3-9.6-6.6-19.4-10.3-30.3
		c-13.9,4.4-26.7,7.8-38.9,12.6c-18.2,7-37,10.8-56.1,13.5c-2.6,0.4-5.3,0.9-7.9,0.6C9110.8,3828.1,9103,3826.7,9093.9,3825.2z"/>
	<path id="_x32_537" class="st0" d="M9228.6,3207.4c-23.2,6.9-45.7,9.5-69.1,3.6c-75.4-19.1-151-37.7-226.5-56.6
		c-3.1-0.8-6.1-1.8-8.4-2.5c-0.6-1.8-1.1-2.4-1.1-3c0-0.6,0.3-1.4,0.7-1.8c3.8-4.6,7.5-9.3,11.5-13.7
		c38.2-42.6,76.5-85.1,115.5-128.6c4.1,3.6,7.8,6.3,10.8,9.6c24,26.8,47.7,53.8,71.8,80.5c4.8,5.3,10.8,9.6,16.2,14.4
		c2,1.7,4.1,3.3,5.9,5.3c20.2,22.1,40.2,44.4,60.6,66.3C9223.5,3188.3,9228.8,3196.2,9228.6,3207.4z"/>
	<path id="_x32_538" class="st0" d="M9236.9,3197.2c-9.2-11.2-17.2-21.7-26-31.5c-12-13.3-24.7-26-36.8-39.2
		c-5.8-6.3-10.9-13.1-16.6-20.1c5.4-7.6,12.1-11.9,18.2-16.8c6.1-4.9,11.4-11.1,20.6-14c24.9,26.1,50,52.4,75.5,79.1
		C9260.2,3170.6,9249.1,3185.1,9236.9,3197.2z"/>
	<path id="_x32_528" class="st0" d="M8938.3,3647.8c-11.6-9.1-21.4-16.8-32-25c3.6-8.1,9.1-13.3,15.7-19.1c15,7.7,27,19.2,41.5,28.7
		c-8.8,23.5-17.4,47.1-26.4,70.5c-1.6,4.2-4.2,8.4-7.2,11.8c-14.8,17.1-29.9,33.9-44.9,50.7c-0.8,0.9-2.3,1.1-4.5,2.2
		c-8.8-6.2-16-14.6-24.2-23.7c2.5-3.4,4.2-7,6.9-9.4c12-10.6,23.8-21.2,31.7-35.5c3.3-5.9,9-7.9,15.1-8c9.7,0,14-5.5,16.8-14
		C8930,3667.7,8934,3658.6,8938.3,3647.8z"/>
	<path id="_x32_530" class="st0" d="M8861.4,3796.5c-3.8,1.6-6.8,2.8-11.2,4.7c-6.7-6.2-13.9-12.8-22.1-20.4
		c8.8-10.3,8-25.5,22.2-32.6c9,8.8,17.1,18.6,27.1,26c9.9,7.3,21.6,12.1,32.5,18c-1.7,7.7-8.1,9.5-12.5,13.2
		c-4,3.4-8.5,6.1-12.9,9.2C8874.5,3811.5,8870.5,3801.9,8861.4,3796.5z"/>
	<path id="_x32_529" class="st0" d="M8887.3,3772.6c15.8-17.8,30.3-34.1,44.8-50.5c0.4-0.5,0.8-1.3,1.3-1.4c3-0.8,6.4-2.7,8.9-1.9
		c2.5,0.9,5.6,4.3,5.8,6.9c0.7,9.2,0.3,18.4,0.3,27.3c-10.2,9.8-28.7,9.1-30,28.2c4.1,3.1,8.7,6.5,14.5,10.8c-2.6,1.5-4.6,3.4-5.3,3
		C8915,3788.2,8902.5,3781.1,8887.3,3772.6z"/>
</g>
</svg>
