<?xml version="1.0" encoding="utf-8"?>
<!-- Generator: Adobe Illustrator 19.0.0, SVG Export Plug-In . SVG Version: 6.00 Build 0)  -->
<svg version="1.1" id="Layer_1" xmlns="http://www.w3.org/2000/svg" xmlns:xlink="http://www.w3.org/1999/xlink" x="0px" y="0px"
	 viewBox="0 0 3000 1500" style="enable-background:new 0 0 3000 1500;" xml:space="preserve">
<style type="text/css">
	.st0{fill:#FFFFFF;}
</style>
<g>
	<path d="M798,833c2-0.7,3.4-1.2,4.8-1.7c2.5-0.9,5.9-3.2,7.5-2.3c4.2,2.3,7.9,5.8,11.3,9.3c0.8,0.9,0.1,3.8-0.7,5.5
		c-1.4,3.1-0.7,4.6,2.1,6.8c9.4,7.4,19.1,7.9,29.9,3.5c9.6-3.9,19.6-6.8,29.5-9.9c2.1-0.7,4.6-0.3,6.9-0.1c2.6,0.2,5.2,0.7,7.6,1.1
		c3.6-8.1,1.4-12.2-7.9-15.3c-11.5-3.9-17.1-14.6-16.5-26.2c0.4-8.3,5.5-13,9.8-18c6.9-8,7.8-17.6,10.8-26.8c1-3.2,2.9-6.4,5.3-8.6
		c2.6-2.4,3.7-4.8,1.8-7.5c-4.7-7-2.8-14.4-0.9-21.2c3.1-10.9,7.5-21.4,11.4-32.1c0.8-2.3,2-4.4,3.6-7.8c-5.3-0.4-10.2-0.7-15.5-1.1
		c0-3,0-6.1,0-9.6c5.8,0.3,11.5,0.5,17.2,1c5.7,0.5,11.4,1.5,17.1,1.9c10.9,0.8,21.7,1.3,32.6,2.1c7.5,0.5,15.1,1.2,22.6,2
		c4.5,0.5,6.3,3.6,4.8,8.1c-1.6,4.9-1.4,8.7,3.8,11.4c10.8,5.7,13.4,16.7,16.8,27.1c1.9,5.7,3.3,11.5,5.3,17.1
		c0.4,1.1,2.8,2.1,4.3,2.1c8.6-0.1,17.2-0.7,25.8-0.9c28.1-0.4,56.2-0.7,84.3-1.1c17.1-0.2,34.2-0.6,51.3-1
		c16.3-0.3,32.5-0.6,48.8-1.1c4-0.1,5.2,1.5,6.4,5.1c2.6,7.9-0.7,14.9-2.7,22c-1.1,3.7-0.6,6.5,1.6,9.7c3.1,4.7,5.4,10,8.3,15.5
		c11.3-9.5,22.2-18.9,33.3-28.2c11.3-9.5,22.8-18.8,34.1-28.3c9-7.5,17.8-15.1,26.8-22.6c11.8-9.9,23.7-19.7,35.6-29.6
		c6.8-5.7,13.4-11.7,20.4-17.1c1.7-1.3,4.7-1.6,7-1.6c11.1,0.1,20,6.5,29.8,10.3c7.1,2.8,14.2,5.9,20.9,9.6
		c7.1,4,13.5,9.1,20.5,13.2c4.7,2.8,10.1,4.8,15.4,2.3c6.6-3.1,9.8-8.7,10.1-16.4c0.6-16.3,4.8-31.8,11.4-46.8
		c0.5-1.1,1.4-2.1,1.4-3.1c-0.6-11.4,5.8-20.3,10.7-29.6c3.5-6.8,4.2-14,5.4-21.2c1.2-7.2,2.3-14.5,3.3-21.8
		c0.3-2.3,0.6-4.6,0.7-6.9c0.1-7,3.3-12.1,9.3-15.5c5.8-3.3,11.7-6.4,17.4-10c6.7-4.1,7.7-11.3,9.3-18.1c1.6-6.9,3.2-13.5,12.2-14.7
		c6.7-0.8,12.5-3.9,14.8-12.1c-9.3-9.6-19.2-19.4-28.8-29.6c-3.1-3.3-5.4-7.4-8.3-10.9c-5.4-6.6-3.7-14-2.5-21.2
		c1.3-7.6-2.7-17.5-9.4-21.5c-0.4-0.2-0.9-0.5-1.3-0.7c-3.6-1.9-8.2-3.4-7.5-8.5c0.7-5.2,5.5-6.5,9.7-7.6c7.5-2.1,15.1-3.7,22.7-5.3
		c8.5-1.8,13.5-7.1,16.3-15.2c2.7-7.9,5.4-9.3,13.2-8.6c3.7,0.4,8.3,2,11.1,0.5c5.2-2.7,11-6.2,11.7-13c1.2-12.3,9.2-17.7,19.9-20.4
		c3.6-0.9,7.6-0.9,11-2.2c4.7-1.8,9.2-4.2,10.4-10.1c0.8-4,2.3-7.8,3.6-11.9c2.9,0.8,6.6-2.7,9.1,1.9c0.3,0.5,2.2,0.3,3.4,0.3
		c5.8,0,11.7,0,17.5,0c4.6,0.1,6.3,2.2,5,6.7c-1.3,4.3-0.7,7.2,3.8,9.7c2.6,1.4,3.7,5.5,6.3,7.3c3,2.2,7.4,2.6,10.2,5
		c5.1,4.2,9.4,9.3,14.1,14.1c1,1.1,1.7,2.5,2.8,3.4c4.5,3.4,5.1,8.2,4,12.9c-1.1,4.7,1.3,6.7,4.8,7.8c6.5,2.1,13.2,3.6,16.6,10.6
		c0.6,1.3,2.1,2.1,3.1,3.2c2.4,2.6,4.7,5.3,7,8c-0.3,0.3-0.6,0.6-0.9,0.9c0.1,0.1,0.2,0.2,0.4,0.3c11.9,6.5,17.7-3.4,25.1-9.2
		c3-2.3,5.7-5.1,8.9-6.9c7.4-4.1,7.2-11.4,8.2-18.2c0.3-2,0.2-4,0-6c-1-9.2,2-16.8,7.6-24.2c3.1-4.1,3.9-9.8,6.6-14.3
		c2.4-4.1,6-7.5,4.9-12.8c-0.1-0.4,0.3-0.9,0.5-1.4c1.9-4.7,13.2-10.2,18.2-9.1c2.2,0.5,4.6,0.6,6.8,1.2c1.8,0.5,4.8,1.3,5,2.4
		c1.2,5.2,5.5,4.8,8.9,5.4c7.1,1.1,14.4,1.3,21.6,2.3c3.5,0.5,7,1.6,10.2,3c10,4.5,19.8,9.3,29.8,13.7c1.4,0.6,4.1,0.1,5.4-0.9
		c6.4-5,12.1-11.4,21.5-9.9c1.5,0.2,3.3,0.7,4.3,1.8c2.6,2.7,5.2,2.5,8.5,1.3c3.3-1.2,7-2,10.5-2.1c16-0.2,32-0.2,48-0.1
		c11.8,0.1,23.5,0.6,35.3,1c4.9,0.2,10,0.2,14.8,1.2c2.4,0.5,5.1,2.4,6.5,4.5c4.7,6.6,8.8,13.7,13.3,20.5c0.9,1.4,2.2,2.5,3.3,3.7
		c4.7,5.1,5.5,9.1,2.2,14.9c-3.3,5.9-4.1,11.8-1.2,18.1c1.7,3.7,2.9,7.7,4.7,12.4c1.6-1.8,2.8-2.4,2.8-3.1c0.1-7.7,5.6-11,11.3-14.1
		c3.8-2,8.3-5.1,11.9-4.5c3.4,0.5,6.1,5.3,9.1,8.2c6.9,6.6,7.2,15.8,8.7,24.3c1.4,8-0.4,16-2.9,23.8c-4.5,14-0.7,26,8.3,36.9
		c3.9,4.8,7.2,9.6,6.9,16.3c-0.1,2.1,1.5,4.7,3,6.5c7.1,9.3,5.6,16.6,1.2,25.6c-1.2,2.5-2.6,4.9-3.5,7.5c-2,5.9-1.1,9.1,3.8,12.3
		c7,4.6,10.2,11.2,10.4,19.4c0.1,4.6,0.5,9.2,1,13.8c0.3,2.7,1.3,5,4.9,5c3.1,0,6.2,0.8,9.7,1.3c0,2.8,0,5.9,0,8.8
		c-10.5-0.8-23.1,1.6-23.8-15.4c-23.1-0.8-46.1-1.6-69.9-2.4c-1,5-2,10.6-3.2,16.1c-1.5,7.3-2.9,14.7-4.8,22c-1.4,5.4,0.6,9.2,4,13
		c5.4,6,10.7,12.1,16.1,18.1c4.7,5.1,2.9,11.3,2.5,17c-0.1,1.9-3.9,4.2-6.4,5.2c-10.2,4.1-20.6,7.8-31.5,11.8
		c3,4.4,6.2,10.2,10.6,15c8.8,9.5,13.1,21.2,15.2,33.3c0.8,4.7-3,10.4-5.6,15.2c-1.8,3.3-5.8,5.5-7.7,8.8c-1.6,2.9-1.5,6.7-2.3,10.1
		c-0.9,3.8-1.9,7.6-2.8,11.3c-0.7-0.1-1.4-0.3-2.1-0.4c1.1-6.8,2.1-13.7,3.3-21.3c-6.9,1.2-13.2,2-19.3,3.3
		c-2.9,0.7-4.8,2.6-5.4,6.2c-0.5,2.8-2.4,5.9-4.5,7.9c-11.3,10.7-23.5,20.1-38.7,24.9c-6.5,2-12.8,4.6-19.2,6.9
		c7.3,5.7,11.9,12.1,10,21.7c-0.2,1,1.2,2.9,2.4,3.5c5.1,2.5,10.3,4.7,15.5,7c0.6,0.3,1.2,0.6,1.6,1.1c4.1,6.1,10.3,9,16.9,11.7
		c3.8,1.5,6.9,5,9.8,8.2c5.1,5.6,9.6,11.6,14.5,17.4c0.9,1.1,2.3,1.8,3.2,2.5c-0.4,3.7,0.1,7.9-1.4,11.2c-1.5,3.5-4.6,6.6-7.6,9.1
		c-8.2,6.9-18.3,11.3-25.2,20c-3.5,4.4-8.6,7-16.4,3c-3.7-1.9-7.4-4.8-12.2-1.5c-2.9,2-4,3.4-2.3,6.7c1.5,2.9,2.6,5.9,3.7,9
		c1.6,4.7-0.5,9.5-4.8,13.1c-6.8,5.8-14.4,9.6-23.1,12.2c-9.6,2.9-18.8,7.1-28.9,11c2.2,3.6,4.2,7,6.2,10.3
		c-0.6,0.4-1.2,0.7-1.8,1.1c-2.5-3.1-4.9-6.2-6.7-8.5c-14.4,0.8-28.3,1-42.1,2.5c-9,0.9-17.8,3.8-26.8,5.3
		c-10.3,1.8-20.7,3.2-31.1,4.4c-7.7,0.9-14.2-2.2-19.6-7.4c-6.5-6.3-12.6-13-18.4-19c-5.3,7.2-10.5,15.7-17,22.9
		c-8.4,9.3-20.1,12.2-32.2,13.5c-2.8,0.3-5.7-0.1-8.4,0.5c-6.3,1.3-10.1,4.3-12,11.4c-2.5,9.5-10.2,16.2-18,22
		c-6,4.5-12.6,8.2-19,12.1c-4.8,2.9-6.1,6.1-5.1,11.6c0.5,3-0.2,6.1,0.1,9.1c0.5,5,1.5,10,2,15c0.6,7.1-6.4,18.9-16.4,17.2
		c-3-0.5-5.8-2.7-8.7-3.8c-1.6-0.6-3.6-1.3-5.2-0.9c-1.1,0.3-2.5,2.5-2.3,3.5c0.4,2.2,1.7,4.2,2.9,6.2c5.9,9.7,11.9,19.4,17.9,29
		c0.1,0.1,0.3,0.2,0.3,0.4c0.3,10.1,8.3,17.4,9.6,26.8c1.2,8,2,16.7,0.1,24.3c-2.3,8.9-7.8,17.1-11.8,25.6
		c-2.5,5.2-6.6,5.6-11.6,4.5c-6-1.3-12-2.8-18.2-3.4c-5.4-0.6-9.1,2.1-11.2,7.6c-2.6,6.8-5.8,13.5-9,20.1c-1,2.1-2.5,5.3-4.1,5.5
		c-3.8,0.5-8.4,0.6-11.5-1.2c-7.6-4.4-14.6-9.9-23.8-16.3c-3.6,4-7.5,8.3-11.6,12.7c-1.7-2.1-3.9-4.8-6.5-8c2.5-2.8,4.7-6.4,7.8-8.5
		c5.8-3.8,8.1-9.2,9.3-15.4c1.3-7.1,2.5-14.3,2.8-21.5c0.2-4.8-2.5-8.7-6.8-11.7c-10.1-7.2-17.7-16.7-23-27.8
		c-1.3-2.6-1-6.1-0.9-9.2c0.1-3.6-1.6-6-4.8-6.2c-10.8-0.7-13.5-8.6-15.1-17c-1.1-5.9-2.6-11.3-6.4-16.1c-1.1-1.4-1.5-3.6-1.7-5.5
		c-0.5-6.5-3.2-11.2-9.4-13.7c-2.9-1.1-5.7-2.4-8.6-3.3c-1.1-0.3-2.8-0.3-3.5,0.4c-7,6.3-12.8,3.4-18.1-2.2
		c-4-4.3-7.6-9.1-11.3-13.6c-0.9-1.1-1.7-2.7-2.9-3.3c-6.2-3.2-12.8-5.9-13.9-14.1c-5.4,1.9-5.4,5.9-6.2,9.5
		c-1.3,6-3.6,11.3-7.6,16.1c-3.8,4.6-10.9,5.7-15.8,2.5c-5.1-3.3-9.9-7-14.8-10.5c-0.7-0.5-1.1-1.4-1.8-1.7
		c-11.4-4.5-15.7-14.9-21.1-24.6c-1-1.7-2.7-3.1-4-4.6c-2.9-3.3-6.2-6.2-8.6-9.8c-2.5-3.9-4.9-6.2-9.8-3.9
		c-3.9,1.9-7.9,1.8-11.7-0.7c-3-2-5.5-1.3-6.5,2.2c-1.7,6.3-3,12.6-4.3,19c-1.3,6.1-3.9,7.4-10.1,6.4c-6.4-1-13-1.2-19.6-1.7
		c-1.7,9,2.2,15.8,6.5,22.5c3.4,5.3,5.5,10.7,3.2,17.1c-2.5,6.9-9.3,11-16.3,8.8c-8-2.5-16-5.5-23.7-8.9c-3.5-1.5-6.4-4.5-9.3-7.2
		c-9.2-8.6-18.8-17-27.1-26.4c-6.6-7.4-14.7-10.4-23.6-12.9c-7.2-2-14.5-3.9-21.3-6.9c-4-1.7-7.1-5.4-10.5-8.3
		c-2.3-1.9-4.6-3.7-6.6-5.9c-3.3-3.6-6.3-7.4-9.7-11.5c-1.7,3.3-3.5,6.8-5.2,10.4c-6.6,14-13.1,28.1-19.7,42.1
		c-4.7,10.1-9.3,20.2-14.1,30.2c-3.4,7-6.4,7.6-12.6,2.9c-16-12.1-32.2-24.2-48.2-36.3c-20.9-15.8-42.4-30.8-62.2-47.9
		c-7.4-6.4-14-4.5-21.1-4.4c-2.9,0-6,2.4-8.7,4.1c-4.8,2.9-9,3.7-13.9-0.2c-5-3.9-10.4-7.1-13.8-12.9c-1.2-2.1-4.4-3.2-6.8-4.2
		c-5.4-2.2-10.5-3.8-14.8-9c-3.9-4.8-6.4-10.3-9.8-15.3c-1.6-2.3-3.1-3.1-5.6-1.8c-3.4,1.7-7.1,2.5-9.5,6.3
		c-3.2,5-11.9,6.7-16.4,3.3c-3.1-2.3-4.5-0.4-6.7,0.9c-3.4,2-7,4-10.7,5.2c-1.4,0.4-4.4-1.2-5.3-2.7c-2.1-3.3-3.6-2.1-5.2,0
		c-3.2,3.9-6.2,8.1-9.6,11.8c-2.1,2.3-4.7,4.6-7.4,6.1c-3.9,2-12.8-2.1-15.7-6c-2.5-3.3-6.1-5.8-8.8-8.9c-4.1-4.6-7.8-9.5-11.7-14.3
		c-0.8-1-1.3-2.3-2.3-3.1c-8.4-6.7-10.2-16.5-11.9-26.1c-1.4-7.7-6.1-13.5-10-19.9c-3-5-5.8-10.2-8-15.6c-2.7-6.6-0.8-13.4,0.3-20.1
		c0.2-1.3-0.5-3.3-1.5-4.2C804.3,838,801.2,835.7,798,833z M1552.8,394.1c2,1.4,4.3,2.6,5.9,4.3c7.4,7.6,10.9,16.5,7.9,27.2
		c-2.1,7.4,0,13.6,5.2,18.9c5.1,5.1,10.4,10.1,15.3,15.4c6.3,6.7,12.3,13.8,18.7,20.5c2.7,2.8,2.3,5.9,0.6,8.5
		c-5.1,7.9-10.6,15.4-21.1,16.4c-3.5,0.3-5.2,2.4-5.6,5.5c-1.1,8.2-5.9,15.6-4.9,24.3c0.5,3.9-0.1,8,0.1,12c0.1,1.9,0.5,3.9,1.3,5.7
		c4.8,10.8,15,14.5,25,18.4c4.3,1.6,10.3,1.7,12.6,4.8c8.1,10.3,15.3,21.4,22.1,32.7c9.5,15.6,18.3,31.6,27.3,47.4
		c2.4,4.3,4.7,6.5,10.5,5.4c12-2.4,24.3-3.5,36.5-5c1.9-0.2,4.3-1.4,5,2.1c0.2,0.9,1.8,1.7,3,2.3c6.1,3.1,12.4,6,18.3,9.4
		c2.3,1.3,8.8,0.3,4.5,7.3c-2.2,3.6-0.4,9.6-0.4,14.1c4.2,0.6,7.3,1.3,10.4,1.5c3.3,0.2,6.8-0.4,10,0.2c3.9,0.8,8.1,1.9,11.2,4.2
		c1.1,0.9-1,5.6-1,8.6c0,6.8-3.3,11.2-9,14.4c-10.9,6.3-21.6,12.8-32.4,19.3c-6.7,4-13,9.2-20.2,11.8c-9.3,3.3-19.3,4.4-29,6.3
		c-2.6,0.5-3.6,1.6-3.7,4.2c-0.6,20-1.4,40-1.9,59.9c-0.5,17.9-0.7,35.9-1,53.8c0,3.2-1,5.6-4.2,6.3c-4.8,0.9-9.7,1.4-14.5,2
		c-1.8,0.2-3.8-0.1-5.3,0.7c-6.3,2.9-12.4,6.6-18.8,9.2c-5.3,2.1-6.2,6.6-6,10.7c0.5,10.9,8,19.1,12.8,28.3c1.3,2.6,2,3.8-0.8,5.2
		c-6.7,3.3-13.4,6.5-20,10c-4.6,2.4-9.7,4.5-13.3,8.1c-4.6,4.5-7.9,10.3-11.7,15.7c-5.2,7.3-14.6,8.4-21.4,2.6
		c-1.3-1.1-4-2.5-4.9-1.9c-1.4,0.9-2.4,3.3-2.6,5.2c-0.5,4.8,0.9,10.2-0.9,14.3c-3.2,7.3-7.7,14.2-12.5,20.7
		c-4.8,6.6-10.4,12.6-13,20.9c2.1,0.9,4,2.1,6,2.4c10.1,1.8,15.9,8.4,19.3,17.5c1,2.7,0.5,6.3,2.1,8.4c5,6.4,6.2,13.9,7.8,21.3
		c0.8,3.5,2,5.4,6.1,6.2c10,2,12.9,6.2,13,16.7c0,2.1,0.1,4.5,1.1,6.2c4.9,8.6,10.6,16.6,18.9,22.4c8.9,6.2,12.7,15.2,11.7,25.4
		c-0.8,8.5-3.4,16.9-5.5,25.2c-0.7,2.7-0.8,4.6,1.6,6.3c6.8,4.5,13.5,9.1,20.8,14c2.8-6.9,5.4-13.6,8.3-20.1
		c2.8-6.1,5.2-12.5,13.4-13.6c8.2-1.1,16.3-1.9,24.2,1.5c3.6,1.6,5.5,0.8,7-3.2c2.2-6,5.5-11.7,8.1-17.6c0.8-1.9,1.2-4.1,1.1-6.2
		c0-3.4-0.5-6.9-0.9-10.3c-0.3-3.1,0-6.5-1.3-9.2c-3.1-6.9-8.2-12.9-8.4-21c0-0.6-0.5-1.2-0.8-1.8c-2.2-3.8-4.4-7.6-6.6-11.4
		c-1.9-3.4-3.9-6.7-5.9-10.1c-2.3-3.7-5.2-7.2-7-11.1c-3.9-8.1,0.1-14.8,8.6-17.7c6-2,10,1.6,14.8,3c1.7,0.5,4.5,1.5,5,0.9
		c1.6-2.1,3.5-4.8,3.4-7.3c-0.1-7.6-1.2-15.1-1.8-22.7c-0.8-10.4,3.2-18.7,10.1-21.7c10.2-4.5,19.1-10.9,26.4-19.2
		c2.7-3.1,5.2-6.9,6.3-10.8c1.7-6.3,4.8-10.4,11-13.1c6.7-3,13.6-3.1,20.6-4c4.9-0.6,10.4-1.5,14.2-4.3c6.1-4.4,11.3-10.3,16.5-15.9
		c4.5-4.8,5.8-11.8,11.9-15.8c3.6-2.3,6.1-2.3,8.7,0.3c4.6,4.8,8.9,9.9,13.4,14.8c4.8,5.3,9.2,10.7,17.6,11.1
		c14.1,0.7,27.4-3.1,40.8-5.7c13.1-2.5,26-5,39.5-4.7c5.9,0.2,12.1-1,17.8-2.9c14.2-4.7,28.2-10,42.1-15.4c10.2-4,12.3-9.9,8-19.8
		c-0.2-0.5-0.5-0.8-0.8-1.3c-1.8-3.6-0.9-7,1.1-10.1c5-7.6,14.6-10.3,23-6.5c2.4,1,4.7,2.2,5.7,2.6c10.8-8,20.6-15.6,30.8-22.7
		c4.6-3.2,5.8-6.8,2.1-11.3c-3-3.7-6.9-6.8-9.5-10.8c-7.3-11.2-18.4-17.2-29.9-22.8c-6.4-3.2-13-6.1-19.4-9.3
		c-1-0.5-1.7-1.6-2.5-2.4c-2.7-2.9-5.4-5.8-8-8.6c-5.5,3.6-10.2,6.7-15,9.8c2.8,5,5.3,9.5,7.8,14c-1.8,1.3-3,2.1-3.9,2.7
		c1,2.5,1.9,4.9,3.2,7.9c-4.6-0.4-6.9,1.7-6.1,5c1.1,4.3-1.3,5-4.2,6.2c-2.1,0.9-5.2,2.5-5.4,4.2c-0.6,3.8,0.3,7.7-4.7,9.2
		c-0.5,0.2-1.1,1.5-1,2.1c1.6,6.2-7.1,7.3-6.6,13c0,0.1-1.6,0.6-2.3,0.3c-3.6-1.3-5.1,1.9-5.2,3.7c-0.2,4.8-2.4,6.1-7.4,5.3
		c0,2.4-0.6,4.7,0.1,6.6c1.4,4,1.4,7.8-2,10.2c-2.7,1.9-6.3,2.8-9.6,3c-1.2,0.1-2.5-3.2-3.9-5.1c2.3-1.4,3.7-2.2,4.8-2.9
		c0.5-7.9-5.6-9.1-10.7-11.3c-0.8,1.7-1.6,3.2-2.4,4.9c-3.4-3.3-6.5-6.2-9.5-9.2c-2-2-2.2-9.4-0.9-11.5c0.7-1.2,1.1-2.7,1.2-4.1
		c0.1-3.3-0.6-6.8,2.9-8.9c3-1.8,6.2-2,9,0.4c2.7,2.3,4.4,0.7,6-0.8c-0.2-6-2.2-9-8.7-8.5c-3.2,0.3-7-2-5.1-6.5
		c2.6-6.3,5.6-12.4,8.7-18.5c1.9-3.7,4.2-7.2,6.3-10.8c5.1,2.5,9.6,4.8,14.4,7.1c2.1-3.1,3.8-6.2,6.1-8.9c0.8-0.9,3.1-1.2,4.3-0.7
		c2.2,0.9,4.1,2.5,5.8,3.7c6.5-11.3,12.1-22.4,24-28.2c1.2-0.6,2-2,2.8-3.1c3.2-4.7,6.8-8.7,12.5-10.5c7.3-2.3,14.8-4.3,21.6-7.6
		c7.3-3.4,14.4-7.7,21-12.4c6.9-5,13.7-10.7,16-19.6c0-0.1,0.2-0.2,0.3-0.4c6.5-8.3,16.5-6.3,24.9-8.2c7-1.6,15-10.3,12.7-17.3
		c-2.3-7.1-5.2-14.1-9-20.4c-5.6-9.5-12.3-18.4-18.4-27.7c-2.8-4.2-1.9-6.5,3-7.9c3.1-0.9,6.6-0.6,9.6-1.5c7.7-2.4,15.4-5.1,23-8
		c5.7-2.1,6.5-5.9,2.7-10.4c-6.7-7.7-13.5-15.3-20-23.2c-1.4-1.7-2.6-4.5-2.2-6.5c3-15.7,6.6-31.2,9.4-46.9c0.9-5.1,3.2-6.6,7.9-6.5
		c14.4,0.4,28.9,0.7,43.3,1c0.7,0,1.3,0,2,0.1c8.2,0.4,16.4,0.9,25.1,1.3c-0.5-6.8-1.5-11.9-6.7-15.9c-3.5-2.7-6.4-6.7-8.3-10.7
		c-3.6-7.9,1-14.6,4.7-21.1c3.8-6.8,3.2-10.7-1.1-16.8c-2.6-3.7-3.2-8.7-4.8-13c-0.6-1.8-1-3.7-2-5.3c-3.5-5.7-7.7-11-10.6-17
		c-2.7-5.6-4.9-11.3-3.9-18.2c1.7-11.8,6.2-23.4,4.3-35.5c-1.2-7.9-2.9-15.7-9.5-20.8c-2.3,0.8-4.4,1.1-5.9,2.2
		c-2.4,2-5.6,4.2-6.3,6.9c-1.9,6.8-3.9,9.4-9.7,9.8c-6.5,0.5-11.6-2.6-13.5-8.4c-0.9-2.8-1.3-5.8-2.5-8.4
		c-3.8-8.6-3.3-16.8,1.3-24.9c0.7-1.2,0.6-3.7-0.1-4.8c-5.6-8.2-11.4-16.3-17.2-24.4c-0.8-1-2.4-1.9-3.6-2c-7.4-0.5-14.9-1-22.3-1
		c-24.3-0.1-48.7-0.1-73,0c-1.8,0-3.6,0.3-5.2,1c-5.8,2.5-11.6,2.6-16.6-1.3c-2.6-2-4.6-1.1-6.6-0.1c-1.9,0.9-3.4,2.5-5,3.9
		c-4.6,4-9.2,8.5-16,6.3c-4.8-1.5-9.2-4.2-13.9-6.2c-8.7-3.7-17.1-8.2-26.1-10.8c-7.1-2.1-14.9-1.8-22.4-2.9
		c-5.2-0.8-11.2,0.4-14-6.6c-0.5-1.3-5.6-2-8-1.3c-4,1.2-8,3.1-7.2,9.2c0.3,2.1-2.9,4.5-4.2,6.9c-1.3,2.2-2.3,4.5-3.3,6.8
		c-1.1,2.5-1.8,5.1-3.1,7.4c-3,5.5-8.9,10.1-7.7,17c1.5,8.8-0.6,16.9-2.4,25.1c-0.7,2.9-3.4,5.7-5.8,7.8
		c-6.1,5.6-12.8,10.6-18.9,16.1c-4.4,4-8.5,8.4-15.3,7.3c-2.7-0.4-5.4-1.1-8-2c-4.7-1.6-9.8-2.7-11-9c-0.4-1.8-3.1-3.2-4.8-4.8
		c-1.1-1-2.8-1.7-3.2-3c-1.9-5.8-7.1-5.9-11.7-7c-1.1-0.3-2.4-0.2-3.2-0.9c-5.8-4.4-8.8-10.1-7.6-17.6c0.2-1.3,0.3-3.2-0.4-3.9
		c-6.8-6.2-9.6-17-20.8-18.2c-1-0.1-2-1-2.9-1.8c-3.3-3.1-6.6-6.3-9.8-9.5c-2.1-2.1-4.6-3.9-6.1-6.4c-1.5-2.5-1.2-7-3.1-8.2
		c-2.5-1.5-6.4-0.5-9.8-0.5c-1.3,0-2.9-0.4-3.9,0.1c-1.6,0.8-3.8,2.1-4.1,3.5c-1.5,7.2-6.4,11.6-12.4,14.3
		c-5.7,2.5-12.1,3.5-18.2,5.1c-5.2,1.4-9.7,4.2-9.9,10c-0.3,8.5-6.1,13.2-11.4,18.1c-2.5,2.3-5.5,5.2-8.4,5.5
		c-5.4,0.5-10.9-0.9-14.8-1.3c-4.1,6.1-6.8,12.4-11.4,16.5C1578.4,389.2,1565.8,389.4,1552.8,394.1z M906.5,930.8
		c4.3-4.3,9.7-8.5,14.9-6.4c5.6,2.3,8,1.4,12.2-2.3c4.1-3.5,10.1-5.1,15.4-6.9c1.9-0.6,5.2-0.2,6.4,1.1c3.9,4,7.4,8.3,10.5,13
		c4,6.1,8,12.1,15.8,13.8c5.2,1.1,8.9,4.1,12.1,8.3c2.4,3.2,5.7,5.8,8.6,8.6c1.8,1.7,3.4,1.6,5.6,0.5c6.2-3.3,12.3-7,19.8-5.1
		c1.2,0.3,2.8-0.1,3.8-0.8c5.1-3.4,8.6-0.2,12.2,2.8c8.5,7.2,16.9,14.6,25.8,21.5c18.6,14.4,37.5,28.4,56.3,42.6
		c10,7.6,20.1,15.1,30.3,22.8c3.5-7.4,7-14.4,10.3-21.5c3.2-6.8,6.2-13.7,9.4-20.5c7-14.8,13.8-29.6,21.2-44.2
		c0.8-1.6,4.9-3.3,6.4-2.6c3.9,1.8,9,4.1,10.6,7.6c3.7,8.1,10.7,12.8,16.4,18.7c2.2,2.3,5.2,4.1,8.2,5.1c9.7,3.3,19.6,6,29.4,9.1
		c2.1,0.7,4.5,1.3,6.1,2.8c9.9,9.3,19.8,18.7,29.4,28.4c7.8,8,16.4,14.6,27.2,18c3.7,1.2,7.9,4.2,11.5-1.3c-1.6-2.6-3.4-5.2-4.7-8
		c-4-8.6-9.4-16.8-6.7-27.3c1.7-6.5,7.1-10.8,13.9-9.8c5.6,0.8,11.3,0.7,15.9,0.9c2.2-7.1,3.7-13.8,6.3-20
		c2.6-6.2,10.9-10.8,15.2-8.5c6.3,3.3,12.1,2.1,18.2,0.2c3.6-1.1,6.6,0.3,8.5,3.4c4,6.2,7.5,12.6,14,16.8c1.7,1.1,3,3.1,3.9,5
		c4,8.9,8.2,17.5,17.8,21.7c1.1,0.5,1.9,1.9,2.9,2.7c4.4,3.3,8.9,6.4,14.3,10.3c2-5,3.6-9,5.2-13c1.7-4.1,2.8-8.6,5.2-12.3
		c5.2-8.2,15.5-7.9,21.1-0.3c2.6,3.6,5.9,6.9,9.5,9.4c3.9,2.8,7.2,5.7,9.4,10.2c1.4,2.9,3.9,5.4,6.2,7.6c3.7,3.6,13.8,1.1,16.5-3.2
		c4.2-6.6,9-12.8,13.3-19.3c4-6.2,8.3-12.5,11-19.3c1.6-4,0.8-9.2,0.7-13.8c-0.1-3.4,0.2-6.2,3.9-7.6c3.5-1.2,6.4-0.6,9.1,1.9
		c5.5,4.9,10.5,5,15.3-0.4c4.2-4.7,7.7-10.1,11.8-15.1c1.6-1.9,3.4-4,5.5-5.1c8.4-4.3,16.9-8.4,25.5-12.4c2.9-1.3,3.7-3,2.2-5.8
		c-2.2-4.2-4.5-8.4-6.6-12.6c-2.7-5.4-5.4-10.7-8.1-16.1c0.5,0.1,1,0.1,1.5,0.2c1.1-1.9,2.7-3.7,3-5.8c0.7-4.1,3.4-6,6.8-7.4
		c2-0.8,4-1.4,5.9-2.4c8.8-4.9,17.5-9.2,28.2-7.8c4.4,0.6,6.9-3.1,7-8c0.3-10.3,0.6-20.5,1-30.8c0.6-16.4,1.5-32.8,1.9-49.1
		c0.3-10.8,0.1-21.7,0-32.5c0-1.2-0.2-3.1-0.9-3.6c-4.7-3-9.2-6.8-14.4-8.1c-5.7-1.5-9-5.1-11.6-9.2c-4.1-6.5-7.4-13.4-11-20.3
		c-3.3-6.4-2.9-6.9,4.4-8.2c1.4-0.2,2.8-0.9,4-1.3c-2.1-9-7.9-18.2-0.4-27.1c5.9-7,8-17.6,19.3-21c-7.1-10-14.2-19.6-20.8-29.7
		c-3-4.5-4.5-10-7-14.9c-2.6-5.1-5.6-10-8.5-15c-3.7-6.4-7.2-12.8-11.2-19c-1.8-2.7-4.4-6.2-7.1-6.8c-8.7-1.7-16.5-5.3-24-9.5
		c-7.9-4.4-12.6-11.3-12.8-20.7c-0.1-4.5,0-9,0-13.3c-6.3,4-12,7.9-18,11.1c-5.4,2.9-10.4,4.9-10.7,12.8
		c-0.4,10.2-2.5,20.4-4.4,30.5c-1.2,6.5-2.8,13.1-5.2,19.2c-3.6,8.9-9.3,16.9-10.3,26.8c-0.2,2.1-0.7,4.2-1.5,6.1
		c-6.6,14.6-10.1,29.8-11.1,45.9c-0.3,5.4-2.1,11.9-5.6,15.7c-11.5,12.2-19.8,13-34.9,4.8c-6.1-3.3-11.3-8.5-17.5-11.5
		c-13.2-6.5-26.6-12.4-40.2-18c-3.3-1.4-7.8-1.9-11-0.7c-3.9,1.5-7.1,5.2-10.4,8c-11.7,9.9-23.2,20-34.9,29.8
		c-15.6,13.1-31.4,26-47,39.1c-17.6,14.8-35.1,29.7-52.7,44.6c-8.4,7.1-9.3,7.4-15.3,2.7c-1.4-1.1-2.3-2.7-3.2-4.3
		c-3.6-6.2-7.3-12.3-10.7-18.7c-0.9-1.7-1.1-4.1-0.7-5.9c1.3-5.5,2.9-11,4.6-16.4c1.1-3.5,0.2-5.4-3.7-5.3c-7.1,0.3-14.2,0.8-21.3,1
		c-15.6,0.4-31.2,0.7-46.8,1c-18.9,0.4-37.9,0.7-56.8,1c-22.8,0.4-45.5,0.6-68.3,1c-4.9,0.1-9.9,0.8-14.8,0.9
		c-4.7,0.1-8.3-1.1-8.8-6.9c-0.4-3.8-1.7-7.6-2.9-11.3c-2.2-6.5-4.4-13-7-19.3c-1.2-2.9-2.8-6.2-5.2-8c-7.3-5.4-14.8-10.3-12.6-21.5
		c-10.6-0.7-20.6-1.3-30.6-2.1c-5.6-0.4-11.1-1-16.6-1.9c-8.8-1.4-11.5-0.5-15,7.7c-3.7,8.6-6.4,17.7-9.9,26.4
		c-3.2,8.1-5,15.6-1.3,24.4c3.1,7.3,0.2,12.3-6.2,16.7c-0.8,0.5-1.3,1.9-1.5,2.9c-2.1,13.3-6.5,25.6-16.1,35.4
		c-8.3,8.4-3.4,21.1,7.2,24.6c11,3.6,15.8,11.4,14.9,22.4c-0.2,2.8-0.6,5.5-1,8.3c-0.5,3.9-3.7,5.5-7.5,4.4
		c-3.7-1.1-7.7-2.4-11.4-2.1c-4.2,0.4-8.3,2.5-12.5,3.7c-8.4,2.5-16.9,4.9-25.3,7.3c-7.6,2.2-15.1,3.2-22.4-0.8
		c-2.8-1.5-5.6-2.9-8.4-4.4c-0.3,0.3-0.7,0.5-1,0.8c1.9,3.7,3.7,7.4,5.8,10.9c4.7,7.6,10.8,14.5,12.3,23.6c1.7,10.2,5,19.5,12.4,27
		c4.8,4.9,7,12.2,14,15.4c2.5,1.1,4.2,4.2,6,6.7c2.3,3,4.3,3.3,6.7,0.2c2.8-3.6,5.6-7.2,8.3-11C889,926.9,898.6,924.4,906.5,930.8z
		 M1738,674.5c-8.9-4.5-17.6-8.9-26.4-13.3c-1.3-0.6-2.8-1.2-4.1-1.1c-14.5,1.7-28.9,3.6-43.4,5.3c-3.1,0.4-5.3,1.5-7,4.2
		c-2,3.2-4.1,6.3-6.4,9.2c-5.7,7.3-8.7,14.8-4.8,24.4c3.9,9.6,3.3,9.9-8,11.1c6.5,11.8,9.8,25.6,23.8,31.5c7.1,3,12.9,9.1,21.5,8.5
		c10.4-0.7,20.4-3.5,29.3-8.5c15.2-8.4,29.9-17.9,45-26.6c8.7-4.9,12.1-10.5,11.1-21.9c-8.7-0.8-17.6-1.7-26.5-2.3
		c-3-0.2-4.1-1.2-4-4.2C1738.1,685.6,1738,680.3,1738,674.5z M2005.2,798.9c2.5-3.4,2.3-7.4-0.5-10.6c-2.5-2.9-11.3-5.8-13.7-4.9
		c-9,3.3-13.1,11.6-18.8,18.2c-0.5,0.6,0.3,2.4,0.5,3.6c0.2,1.4,0.8,3,0.4,4.3c-1.1,3.5-2.8,6.9-4,10.4c-0.4,1-0.2,3.3,0.1,3.4
		c5.1,1.5,2.2,4.3,1.2,6.8c-0.9,2.4-2.2,4.8-2.5,7.3c-0.3,3.1-2.7,6.8,0.7,8.8c4.2-2.6,8.1-4.9,12.1-7.4c-0.4-0.7-1.1-1.9-1.7-2.9
		c2.4-2.7,4.6-5.1,5.9-6.6c0-3.1-0.9-6.1,0.2-7.1c2.5-2.5,1.7-3.8-0.3-6c-1.5-1.6-2.2-4-3.2-6c-1.3-2.5-1.2-4.5,1.6-6.1
		c3.1-1.8,6.3-3.6,8.9-6c4.2-3.9,7.9-3.6,11.8,0.2C2004.3,798.7,2004.8,798.8,2005.2,798.9z M1962.9,811.9c-3.6-2.1-8.9-1.4-9.7,2.2
		c-1.3,6.3-5,3.9-8.1,2.8c-3.4-1.2-6.6-3.1-10-4.8c-4.2,7.7-8.3,14.9-12.2,22.2c-2.4,4.5-1.1,6.2,3.7,6.7c6.6,0.6,11.3-2.4,14.2-7.6
		c3-5.4,7.6-5,12-4.2c6.4,1.1,6.7,0.9,7.3-5.9C1960.4,819.6,1961.9,815.9,1962.9,811.9z M1943.8,868.1c0.5-0.2,1-0.3,1.6-0.5
		c-0.1-1.1-0.6-2.8-0.1-3.1c5.5-3.6,1.7-9.9,4.2-14.8c1.2-2.3,1.3-6.6,3-9.5c1.8-2.9,2.9-6,0-7.7c-2.7-1.7-6.3-1.1-8.8,2.1
		c-2,2.7-4.3,5.1-5.5,6.5C1940.2,850.7,1942,859.4,1943.8,868.1z M1925.7,869.4c0.5-3.4,1.1-6.7,1.4-10c0.1-1.1-0.4-2.7-1.1-3.3
		c-1.9-1.6-4.5-2.5-6.4-0.2c-1.1,1.4-1.1,3.6-1.4,5.5c-0.3,2.1,0.4,5.2-0.7,6.1c-3.5,2.8-0.8,5.3,0.2,7.2c1.1,2.1,3.5,3.6,5.4,5.4
		c3.3-6,7.2,0.4,10.3,0.9c1.3-3.4,2.4-6.2,3.8-10C1933.6,870.5,1930.2,870.1,1925.7,869.4z M1937,896.8c7.8,0.4,9.5-1.8,7.4-8.9
		c-1.7-5.8,1.5-10.4,6.7-10.2c1.2-3,2.2-5.8,3.6-9.3c-1.3-0.7-3.2-1.6-5.2-2.6c-1.3,6.2-2.4,6.7-8.1,4.7c-8.4,8.2,0.5,16.6-0.5,24.9
		C1939.4,895.9,1938.2,896.4,1937,896.8z M1963.3,842.9c-2.3,4.7-5,9.5-7,14.6c-2.6,6.5-2.1,7.2,3.8,10.6c1.8-2.8,3.8-5.5,5.4-8.4
		c2.1-3.9,4.2-7.8,0.5-12.1C1964.8,846.3,1964.2,844.5,1963.3,842.9z M1939.7,866.1c-0.8-5.1-1.5-9.1-2-12.6
		c-1.9,1.5-4.7,2.7-6.2,4.9c-1.5,2.2-1.8,5.3-2.9,8.7C1932.9,866.7,1936.4,866.4,1939.7,866.1z M1963.5,838.2
		c0.6,0.1,1.2,0.2,1.7,0.3c0.5-4.4,2-8.9,1.2-13c-0.6-3-1.5-5.3,0.4-8.1c0.7-1,0.8-2.6,1.2-3.9c-0.6-0.2-1.3-0.4-1.9-0.6
		c-2,7-4,14-6.2,21.4C1960.8,835.3,1962.2,836.8,1963.5,838.2z M1951.2,858.8c0.5,0.1,1,0.1,1.4,0.2c0.4-1.2,0.8-2.4,1.3-3.6
		c1.8-4.1,3.8-8.2,5.5-12.4c1.1-2.7,1.1-5.1-1.8-6.5c-0.7,1.9-0.9,4.1-2.1,5.5C1951.1,847.2,1954,853.5,1951.2,858.8z"/>
	<path id="_x32_575" class="st0" d="M1552.8,394.1c13-4.7,25.6-4.9,34.8-13.2c4.6-4.2,7.3-10.4,11.4-16.5c3.9,0.4,9.4,1.7,14.8,1.3
		c3-0.3,6-3.2,8.4-5.5c5.3-5,11.1-9.6,11.4-18.1c0.2-5.7,4.7-8.5,9.9-10c6.1-1.7,12.5-2.7,18.2-5.1c6-2.6,10.9-7.1,12.4-14.3
		c0.3-1.4,2.5-2.7,4.1-3.5c1.1-0.5,2.6-0.2,3.9-0.1c3.3,0,7.3-1,9.8,0.5c2,1.2,1.6,5.7,3.1,8.2c1.5,2.5,4,4.3,6.1,6.4
		c3.3,3.2,6.5,6.4,9.8,9.5c0.8,0.8,1.8,1.7,2.9,1.8c11.2,1.2,14,12,20.8,18.2c0.7,0.7,0.6,2.6,0.4,3.9c-1.2,7.5,1.9,13.2,7.6,17.6
		c0.8,0.6,2.1,0.6,3.2,0.9c4.6,1.1,9.8,1.2,11.7,7c0.4,1.2,2.2,1.9,3.2,3c1.7,1.6,4.4,3,4.8,4.8c1.3,6.3,6.3,7.4,11,9
		c2.6,0.9,5.3,1.6,8,2c6.7,1.1,10.8-3.3,15.3-7.3c6.1-5.6,12.8-10.6,18.9-16.1c2.4-2.2,5.1-4.9,5.8-7.8c1.8-8.2,3.9-16.4,2.4-25.1
		c-1.2-6.8,4.8-11.5,7.7-17c1.3-2.3,2-5,3.1-7.4c1-2.3,2.1-4.6,3.3-6.8c1.4-2.4,4.5-4.9,4.2-6.9c-0.8-6.1,3.2-8,7.2-9.2
		c2.4-0.8,7.4-0.1,8,1.3c2.8,7,8.8,5.9,14,6.6c7.5,1.1,15.3,0.8,22.4,2.9c9,2.6,17.5,7.1,26.1,10.8c4.6,2,9.1,4.6,13.9,6.2
		c6.8,2.2,11.4-2.3,16-6.3c1.6-1.4,3.2-3,5-3.9c2-1,4-1.9,6.6,0.1c5,3.9,10.8,3.8,16.6,1.3c1.6-0.7,3.5-0.9,5.2-1
		c24.3-0.1,48.7-0.1,73,0c7.4,0,14.9,0.5,22.3,1c1.3,0.1,2.9,1,3.6,2c5.9,8,11.7,16.1,17.2,24.4c0.8,1.2,0.8,3.6,0.1,4.8
		c-4.5,8.2-5,16.3-1.3,24.9c1.2,2.7,1.6,5.6,2.5,8.4c1.9,5.7,7,8.8,13.5,8.4c5.8-0.4,7.7-3.1,9.7-9.8c0.8-2.7,3.9-4.9,6.3-6.9
		c1.4-1.2,3.6-1.4,5.9-2.2c6.6,5.1,8.3,12.9,9.5,20.8c1.8,12.2-2.6,23.7-4.3,35.5c-1,6.9,1.2,12.6,3.9,18.2c2.9,6,7.1,11.3,10.6,17
		c1,1.6,1.3,3.5,2,5.3c1.5,4.4,2.2,9.4,4.8,13c4.3,6.1,4.9,10,1.1,16.8c-3.6,6.5-8.3,13.2-4.7,21.1c1.8,4,4.8,8,8.3,10.7
		c5.2,4,6.2,9.1,6.7,15.9c-8.7-0.5-16.9-0.9-25.1-1.3c-0.7,0-1.3-0.1-2-0.1c-14.4-0.3-28.9-0.6-43.3-1c-4.7-0.1-7,1.4-7.9,6.5
		c-2.8,15.7-6.5,31.3-9.4,46.9c-0.4,2,0.8,4.9,2.2,6.5c6.5,7.9,13.3,15.4,20,23.2c3.9,4.5,3,8.2-2.7,10.4c-7.6,2.9-15.2,5.5-23,8
		c-3.1,1-6.5,0.7-9.6,1.5c-4.9,1.4-5.7,3.7-3,7.9c6.1,9.2,12.8,18.1,18.4,27.7c3.8,6.4,6.7,13.4,9,20.4c2.3,7-5.7,15.7-12.7,17.3
		c-8.5,1.9-18.5-0.1-24.9,8.2c-0.1,0.1-0.3,0.2-0.3,0.4c-2.4,9-9.1,14.6-16,19.6c-6.5,4.8-13.6,9-21,12.4
		c-6.9,3.2-14.3,5.3-21.6,7.6c-5.7,1.8-9.3,5.8-12.5,10.5c-0.8,1.2-1.7,2.6-2.8,3.1c-12,5.8-17.5,17-24,28.2
		c-1.7-1.1-3.6-2.8-5.8-3.7c-1.2-0.5-3.6-0.2-4.3,0.7c-2.3,2.7-4,5.8-6.1,8.9c-4.8-2.4-9.3-4.6-14.4-7.1c-2.1,3.5-4.4,7-6.3,10.8
		c-3.1,6.1-6.1,12.2-8.7,18.5c-1.9,4.5,1.9,6.8,5.1,6.5c6.5-0.6,8.4,2.5,8.7,8.5c-1.6,1.5-3.3,3.1-6,0.8c-2.8-2.4-6-2.2-9-0.4
		c-3.5,2.1-2.8,5.6-2.9,8.9c0,1.4-0.4,3-1.2,4.1c-1.3,2.1-1.1,9.4,0.9,11.5c3,3,6.1,5.9,9.5,9.2c0.9-1.7,1.6-3.3,2.4-4.9
		c5,2.1,11.2,3.3,10.7,11.3c-1.1,0.7-2.5,1.5-4.8,2.9c1.4,1.9,2.7,5.2,3.9,5.1c3.3-0.2,6.9-1.1,9.6-3c3.4-2.4,3.4-6.2,2-10.2
		c-0.7-1.9-0.1-4.2-0.1-6.6c5,0.8,7.2-0.5,7.4-5.3c0.1-1.8,1.6-5,5.2-3.7c0.7,0.2,2.3-0.3,2.3-0.3c-0.5-5.7,8.2-6.7,6.6-13
		c-0.2-0.6,0.5-2,1-2.1c4.9-1.5,4.1-5.4,4.7-9.2c0.3-1.7,3.3-3.3,5.4-4.2c2.9-1.3,5.3-1.9,4.2-6.2c-0.8-3.3,1.4-5.4,6.1-5
		c-1.2-3-2.1-5.3-3.2-7.9c0.8-0.6,2-1.4,3.9-2.7c-2.5-4.5-5-9-7.8-14c4.8-3.2,9.6-6.2,15-9.8c2.6,2.9,5.3,5.7,8,8.6
		c0.8,0.9,1.5,1.9,2.5,2.4c6.4,3.2,13,6.1,19.4,9.3c11.4,5.6,22.5,11.7,29.9,22.8c2.6,4,6.4,7.1,9.5,10.8c3.8,4.5,2.6,8.1-2.1,11.3
		c-10.2,7.1-20.1,14.7-30.8,22.7c-1-0.5-3.3-1.6-5.7-2.6c-8.4-3.7-18-1-23,6.5c-2.1,3.1-3,6.5-1.1,10.1c0.2,0.4,0.6,0.8,0.8,1.3
		c4.3,9.9,2.2,15.8-8,19.8c-13.9,5.5-27.9,10.7-42.1,15.4c-5.6,1.9-11.9,3-17.8,2.9c-13.5-0.4-26.4,2.1-39.5,4.7
		c-13.4,2.6-26.8,6.4-40.8,5.7c-8.5-0.4-12.8-5.8-17.6-11.1c-4.5-4.9-8.8-10.1-13.4-14.8c-2.6-2.6-5.1-2.6-8.7-0.3
		c-6.1,3.9-7.5,11-11.9,15.8c-5.2,5.6-10.3,11.5-16.5,15.9c-3.8,2.8-9.3,3.7-14.2,4.3c-7,0.8-13.9,1-20.6,4
		c-6.1,2.7-9.2,6.8-11,13.1c-1.1,3.9-3.6,7.7-6.3,10.8c-7.3,8.4-16.2,14.7-26.4,19.2c-6.9,3.1-10.9,11.3-10.1,21.7
		c0.6,7.6,1.6,15.1,1.8,22.7c0,2.4-1.8,5.2-3.4,7.3c-0.5,0.6-3.3-0.4-5-0.9c-4.8-1.4-8.8-5-14.8-3c-8.5,2.8-12.5,9.5-8.6,17.7
		c1.9,3.9,4.7,7.4,7,11.1c2,3.3,3.9,6.7,5.9,10.1c2.2,3.8,4.4,7.6,6.6,11.4c0.3,0.6,0.8,1.2,0.8,1.8c0.2,8.1,5.4,14.1,8.4,21
		c1.2,2.7,0.9,6.1,1.3,9.2c0.4,3.4,0.8,6.9,0.9,10.3c0,2.1-0.3,4.3-1.1,6.2c-2.6,5.9-5.9,11.6-8.1,17.6c-1.5,4-3.3,4.8-7,3.2
		c-7.9-3.4-16-2.6-24.2-1.5c-8.2,1.1-10.6,7.5-13.4,13.6c-3,6.5-5.5,13.2-8.3,20.1c-7.3-4.9-14.1-9.5-20.8-14
		c-2.4-1.6-2.3-3.6-1.6-6.3c2.1-8.3,4.7-16.7,5.5-25.2c0.9-10.3-2.8-19.3-11.7-25.4c-8.3-5.8-14-13.7-18.9-22.4
		c-1-1.7-1.1-4.1-1.1-6.2c-0.1-10.5-3-14.8-13-16.7c-4.1-0.8-5.3-2.7-6.1-6.2c-1.7-7.4-2.9-15-7.8-21.3c-1.6-2.1-1.1-5.7-2.1-8.4
		c-3.4-9.1-9.1-15.7-19.3-17.5c-2-0.4-3.9-1.5-6-2.4c2.6-8.3,8.2-14.3,13-20.9c4.7-6.5,9.3-13.4,12.5-20.7c1.8-4.1,0.4-9.5,0.9-14.3
		c0.2-1.9,1.2-4.3,2.6-5.2c0.9-0.6,3.6,0.8,4.9,1.9c6.8,5.8,16.2,4.8,21.4-2.6c3.8-5.3,7.1-11.1,11.7-15.7c3.6-3.6,8.7-5.6,13.3-8.1
		c6.6-3.5,13.3-6.7,20-10c2.9-1.4,2.2-2.7,0.8-5.2c-4.8-9.2-12.2-17.4-12.8-28.3c-0.2-4.1,0.7-8.6,6-10.7c6.5-2.6,12.5-6.2,18.8-9.2
		c1.5-0.7,3.5-0.4,5.3-0.7c4.8-0.6,9.7-1.1,14.5-2c3.2-0.6,4.2-3.1,4.2-6.3c0.3-17.9,0.5-35.9,1-53.8c0.5-20,1.3-40,1.9-59.9
		c0.1-2.7,1-3.7,3.7-4.2c9.7-1.9,19.7-3.1,29-6.3c7.2-2.5,13.5-7.8,20.2-11.8c10.8-6.4,21.5-13,32.4-19.3c5.6-3.3,9-7.7,9-14.4
		c0-3,2.2-7.7,1-8.6c-3-2.3-7.3-3.4-11.2-4.2c-3.2-0.6-6.7,0-10-0.2c-3.1-0.2-6.2-0.9-10.4-1.5c0-4.5-1.8-10.5,0.4-14.1
		c4.3-7-2.2-6-4.5-7.3c-5.9-3.5-12.2-6.3-18.3-9.4c-1.1-0.6-2.8-1.4-3-2.3c-0.7-3.5-3.1-2.4-5-2.1c-12.2,1.5-24.5,2.6-36.5,5
		c-5.8,1.2-8.1-1.1-10.5-5.4c-9-15.9-17.8-31.8-27.3-47.4c-6.8-11.2-14-22.3-22.1-32.7c-2.4-3-8.4-3.1-12.6-4.8
		c-10-3.8-20.1-7.6-25-18.4c-0.8-1.7-1.2-3.8-1.3-5.7c-0.2-4,0.3-8-0.1-12c-1-8.7,3.8-16.1,4.9-24.3c0.4-3.1,2.2-5.1,5.6-5.5
		c10.5-1,16-8.5,21.1-16.4c1.7-2.6,2-5.7-0.6-8.5c-6.3-6.7-12.3-13.8-18.7-20.5c-5-5.3-10.2-10.2-15.3-15.4
		c-5.2-5.3-7.4-11.5-5.2-18.9c3-10.7-0.5-19.6-7.9-27.2C1557.1,396.7,1554.8,395.5,1552.8,394.1z"/>
	<path id="_x32_577" class="st0" d="M906.5,930.8c-7.9-6.5-17.5-3.9-22.5,3c-2.7,3.7-5.5,7.3-8.3,11c-2.3,3.1-4.4,2.8-6.7-0.2
		c-1.8-2.4-3.5-5.5-6-6.7c-7-3.2-9.2-10.5-14-15.4c-7.4-7.6-10.8-16.8-12.4-27c-1.5-9.1-7.7-16-12.3-23.6c-2.2-3.5-3.9-7.3-5.8-10.9
		c0.3-0.3,0.7-0.5,1-0.8c2.8,1.5,5.6,2.9,8.4,4.4c7.4,4,14.9,3,22.4,0.8c8.4-2.4,16.9-4.8,25.3-7.3c4.2-1.2,8.2-3.4,12.5-3.7
		c3.7-0.3,7.7,1,11.4,2.1c3.8,1.1,7-0.5,7.5-4.4c0.3-2.8,0.8-5.5,1-8.3c0.9-11-3.9-18.8-14.9-22.4c-10.6-3.5-15.5-16.2-7.2-24.6
		c9.6-9.8,14-22.1,16.1-35.4c0.2-1,0.7-2.4,1.5-2.9c6.5-4.4,9.3-9.5,6.2-16.7c-3.7-8.8-1.9-16.4,1.3-24.4c3.4-8.7,6.2-17.8,9.9-26.4
		c3.5-8.2,6.3-9.1,15-7.7c5.5,0.9,11.1,1.5,16.6,1.9c10,0.8,20,1.4,30.6,2.1c-2.2,11.2,5.3,16.1,12.6,21.5c2.4,1.8,4,5.1,5.2,8
		c2.6,6.3,4.8,12.8,7,19.3c1.2,3.7,2.5,7.4,2.9,11.3c0.6,5.8,4.1,7,8.8,6.9c4.9-0.1,9.9-0.8,14.8-0.9c22.8-0.4,45.5-0.7,68.3-1
		c18.9-0.3,37.9-0.6,56.8-1c15.6-0.3,31.2-0.6,46.8-1c7.1-0.2,14.2-0.7,21.3-1c3.9-0.2,4.8,1.8,3.7,5.3c-1.7,5.4-3.3,10.9-4.6,16.4
		c-0.4,1.9-0.2,4.3,0.7,5.9c3.3,6.3,7,12.5,10.7,18.7c0.9,1.5,1.9,3.2,3.2,4.3c5.9,4.6,6.9,4.4,15.3-2.7
		c17.6-14.9,35.1-29.8,52.7-44.6c15.6-13.1,31.4-26,47-39.1c11.7-9.8,23.2-19.9,34.9-29.8c3.4-2.9,6.5-6.5,10.4-8
		c3.1-1.2,7.7-0.7,11,0.7c13.5,5.6,27,11.5,40.2,18c6.2,3.1,11.4,8.2,17.5,11.5c15,8.2,23.3,7.5,34.9-4.8c3.5-3.7,5.3-10.3,5.6-15.7
		c1-16,4.5-31.3,11.1-45.9c0.9-1.9,1.3-4,1.5-6.1c1.1-9.9,6.8-17.9,10.3-26.8c2.5-6.1,4-12.7,5.2-19.2c1.9-10.1,4.1-20.3,4.4-30.5
		c0.3-8,5.3-9.9,10.7-12.8c6-3.3,11.7-7.2,18-11.1c0,4.3,0,8.8,0,13.3c0.1,9.4,4.8,16.3,12.8,20.7c7.5,4.2,15.3,7.8,24,9.5
		c2.7,0.5,5.3,4,7.1,6.8c4,6.1,7.5,12.6,11.2,19c2.9,5,5.9,9.9,8.5,15c2.5,4.9,4.1,10.3,7,14.9c6.6,10,13.7,19.7,20.8,29.7
		c-11.3,3.3-13.3,13.9-19.3,21c-7.5,8.9-1.7,18.1,0.4,27.1c-1.2,0.4-2.6,1.1-4,1.3c-7.4,1.3-7.7,1.8-4.4,8.2
		c3.5,6.8,6.8,13.8,11,20.3c2.7,4.2,5.9,7.7,11.6,9.2c5.2,1.3,9.7,5.2,14.4,8.1c0.8,0.5,0.9,2.4,0.9,3.6c0.1,10.8,0.3,21.7,0,32.5
		c-0.5,16.4-1.3,32.8-1.9,49.1c-0.4,10.3-0.7,20.5-1,30.8c-0.2,4.9-2.7,8.6-7,8c-10.7-1.4-19.4,3-28.2,7.8c-1.8,1-3.9,1.6-5.9,2.4
		c-3.4,1.4-6,3.3-6.8,7.4c-0.4,2-2,3.9-3,5.8c-0.5-0.1-1-0.1-1.5-0.2c2.7,5.4,5.3,10.8,8.1,16.1c2.2,4.2,4.4,8.4,6.6,12.6
		c1.5,2.8,0.7,4.5-2.2,5.8c-8.6,4-17.1,8.1-25.5,12.4c-2.2,1.1-4,3.1-5.5,5.1c-4,4.9-7.5,10.3-11.8,15.1c-4.8,5.4-9.8,5.3-15.3,0.4
		c-2.7-2.4-5.6-3.1-9.1-1.9c-3.8,1.3-4,4.2-3.9,7.6c0.1,4.6,0.9,9.7-0.7,13.8c-2.8,6.8-7,13.1-11,19.3c-4.2,6.6-9.1,12.7-13.3,19.3
		c-2.8,4.4-12.8,6.8-16.5,3.2c-2.4-2.3-4.8-4.7-6.2-7.6c-2.2-4.5-5.5-7.4-9.4-10.2c-3.6-2.6-6.9-5.9-9.5-9.4
		c-5.7-7.7-15.9-7.9-21.1,0.3c-2.3,3.7-3.5,8.2-5.2,12.3c-1.6,4-3.2,8-5.2,13c-5.4-3.9-9.9-7-14.3-10.3c-1.1-0.8-1.8-2.2-2.9-2.7
		c-9.7-4.3-13.8-12.9-17.8-21.7c-0.8-1.9-2.2-3.9-3.9-5c-6.5-4.2-10-10.7-14-16.8c-2-3.1-4.9-4.5-8.5-3.4
		c-6.1,1.9-11.9,3.1-18.2-0.2c-4.3-2.3-12.6,2.3-15.2,8.5c-2.6,6.2-4.1,12.9-6.3,20c-4.6-0.2-10.3-0.1-15.9-0.9
		c-6.8-1-12.3,3.4-13.9,9.8c-2.7,10.6,2.7,18.7,6.7,27.3c1.3,2.8,3.1,5.3,4.7,8c-3.5,5.5-7.8,2.4-11.5,1.3
		c-10.7-3.4-19.3-10.1-27.2-18c-9.5-9.7-19.5-19.1-29.4-28.4c-1.5-1.4-3.9-2.1-6.1-2.8c-9.8-3.1-19.7-5.8-29.4-9.1
		c-3-1-6-2.8-8.2-5.1c-5.7-6-12.7-10.6-16.4-18.7c-1.6-3.5-6.6-5.8-10.6-7.6c-1.5-0.7-5.5,1-6.4,2.6c-7.3,14.6-14.2,29.4-21.2,44.2
		c-3.2,6.8-6.2,13.7-9.4,20.5c-3.3,7.1-6.7,14.1-10.3,21.5c-10.3-7.7-20.3-15.3-30.3-22.8c-18.8-14.2-37.7-28.2-56.3-42.6
		c-8.8-6.8-17.2-14.3-25.8-21.5c-3.6-3-7-6.2-12.2-2.8c-1,0.7-2.6,1.1-3.8,0.8c-7.6-1.9-13.7,1.9-19.8,5.1c-2.2,1.2-3.9,1.3-5.6-0.5
		c-2.9-2.9-6.2-5.4-8.6-8.6c-3.2-4.2-7-7.2-12.1-8.3c-7.8-1.7-11.8-7.7-15.8-13.8c-3-4.6-6.6-9-10.5-13c-1.3-1.3-4.6-1.7-6.4-1.1
		c-5.3,1.8-11.3,3.4-15.4,6.9c-4.3,3.7-6.7,4.6-12.2,2.3C916.2,922.3,910.9,926.5,906.5,930.8z"/>
	<path id="_x32_576" class="st0" d="M1738,674.5c0,5.7,0.1,11,0,16.3c-0.1,3,1,4,4,4.2c8.9,0.6,17.8,1.5,26.5,2.3
		c1,11.4-2.4,17-11.1,21.9c-15.1,8.6-29.8,18.1-45,26.6c-9,5-18.9,7.8-29.3,8.5c-8.5,0.6-14.4-5.5-21.5-8.5
		c-14-6-17.3-19.7-23.8-31.5c11.3-1.3,12-1.6,8-11.1c-3.9-9.6-0.9-17,4.8-24.4c2.3-2.9,4.4-6,6.4-9.2c1.7-2.7,3.9-3.8,7-4.2
		c14.5-1.7,28.9-3.6,43.4-5.3c1.3-0.2,2.9,0.4,4.1,1.1C1720.4,665.6,1729.1,670.1,1738,674.5z"/>
	<path id="_x32_566" class="st0" d="M2005.2,798.9c-0.4-0.2-1-0.2-1.3-0.5c-3.9-3.8-7.6-4.1-11.8-0.2c-2.6,2.4-5.8,4.2-8.9,6
		c-2.8,1.6-2.8,3.6-1.6,6.1c1,2,1.7,4.4,3.2,6c2,2.2,2.8,3.4,0.3,6c-1,1-0.2,4-0.2,7.1c-1.4,1.5-3.5,3.9-5.9,6.6
		c0.6,1,1.3,2.1,1.7,2.9c-4.1,2.5-7.9,4.9-12.1,7.4c-3.3-2-1-5.7-0.7-8.8c0.3-2.5,1.5-4.9,2.5-7.3c1-2.5,3.8-5.2-1.2-6.8
		c-0.4-0.1-0.5-2.4-0.1-3.4c1.2-3.5,2.9-6.9,4-10.4c0.4-1.3-0.2-2.9-0.4-4.3c-0.2-1.2-1-3-0.5-3.6c5.7-6.6,9.9-14.9,18.8-18.2
		c2.5-0.9,11.3,2,13.7,4.9C2007.5,791.6,2007.7,795.5,2005.2,798.9z"/>
	<path id="_x32_568" class="st0" d="M1962.9,811.9c-1,4-2.4,7.6-2.8,11.4c-0.6,6.8-0.9,6.9-7.3,5.9c-4.4-0.7-9-1.2-12,4.2
		c-2.9,5.2-7.6,8.3-14.2,7.6c-4.8-0.5-6.1-2.2-3.7-6.7c3.9-7.3,8-14.6,12.2-22.2c3.4,1.7,6.6,3.6,10,4.8c3.1,1.1,6.9,3.5,8.1-2.8
		C1954,810.5,1959.3,809.9,1962.9,811.9z"/>
	<path id="_x32_569" class="st0" d="M1943.8,868.1c-1.8-8.7-3.6-17.4-5.5-26.9c1.2-1.4,3.5-3.9,5.5-6.5c2.4-3.2,6-3.8,8.8-2.1
		c2.8,1.7,1.7,4.9,0,7.7c-1.8,2.8-1.8,7.2-3,9.5c-2.5,4.8,1.3,11.2-4.2,14.8c-0.4,0.3,0.1,2,0.1,3.1
		C1944.8,867.8,1944.3,867.9,1943.8,868.1z"/>
	<path id="_x32_573" class="st0" d="M1925.7,869.4c4.5,0.6,7.9,1.1,11.5,1.6c-1.4,3.7-2.5,6.5-3.8,10c-3.1-0.4-7-6.9-10.3-0.9
		c-2-1.9-4.4-3.3-5.4-5.4c-1-2-3.7-4.4-0.2-7.2c1.1-0.9,0.4-4,0.7-6.1c0.3-1.9,0.4-4.1,1.4-5.5c1.8-2.3,4.4-1.4,6.4,0.2
		c0.8,0.6,1.2,2.2,1.1,3.3C1926.9,862.8,1926.2,866.1,1925.7,869.4z"/>
	<path id="_x32_574" class="st0" d="M1937,896.8c1.2-0.4,2.4-0.8,4-1.3c1-8.3-7.9-16.7,0.5-24.9c5.6,2,6.8,1.5,8.1-4.7
		c2,1,3.9,2,5.2,2.6c-1.4,3.5-2.4,6.3-3.6,9.3c-5.1-0.2-8.4,4.4-6.7,10.2C1946.5,895,1944.8,897.1,1937,896.8z"/>
	<path id="_x32_571" class="st0" d="M1963.3,842.9c0.8,1.5,1.5,3.4,2.6,4.7c3.7,4.3,1.6,8.2-0.5,12.1c-1.6,2.9-3.5,5.6-5.4,8.4
		c-5.9-3.4-6.4-4.1-3.8-10.6C1958.3,852.5,1961,847.7,1963.3,842.9z"/>
	<path id="_x32_572" class="st0" d="M1939.7,866.1c-3.3,0.3-6.8,0.6-11.1,1c1.1-3.4,1.4-6.5,2.9-8.7c1.5-2.2,4.2-3.4,6.2-4.9
		C1938.3,857,1938.9,860.9,1939.7,866.1z"/>
	<path id="_x32_567" class="st0" d="M1963.5,838.2c-1.3-1.5-2.6-2.9-3.5-3.8c2.1-7.4,4.2-14.4,6.2-21.4c0.6,0.2,1.3,0.4,1.9,0.6
		c-0.4,1.3-0.5,2.8-1.2,3.9c-1.9,2.7-1,5.1-0.4,8.1c0.8,4.1-0.7,8.7-1.2,13C1964.6,838.4,1964.1,838.3,1963.5,838.2z"/>
	<path id="_x32_570" class="st0" d="M1951.2,858.8c2.8-5.3-0.1-11.7,4.4-16.8c1.2-1.4,1.4-3.6,2.1-5.5c2.8,1.4,2.9,3.8,1.8,6.5
		c-1.8,4.2-3.7,8.2-5.5,12.4c-0.5,1.2-0.9,2.4-1.3,3.6C1952.1,859,1951.6,858.9,1951.2,858.8z"/>
</g>
</svg>
