<?xml version="1.0" encoding="utf-8"?>
<!-- Generator: Adobe Illustrator 19.0.0, SVG Export Plug-In . SVG Version: 6.00 Build 0)  -->
<svg version="1.1" id="Layer_1" xmlns="http://www.w3.org/2000/svg" xmlns:xlink="http://www.w3.org/1999/xlink" x="0px" y="0px"
	 viewBox="0 0 4000 2000" style="enable-background:new 0 0 4000 2000;" xml:space="preserve">
<style type="text/css">
	.st0{fill:#FFFFFF;}
</style>
<g>
	<path d="M1503.1,583.4c-9.1-9.7-10.9-20.2-10.4-29.6c3.8-3.8,6.5-6.3,9-9c6-6.6,12-13.2,17.9-19.9c11.4-13,22.7-26.1,34.1-39.1
		c6.2-7.1,12.7-13.9,18.9-21c3.7-4.2,7-8.8,11-12.7c2.1-2,5.2-3.8,7.9-4c15.8-1.3,31.6-2.1,47.4-3.2c13-0.9,25.9-1.9,38.9-3
		c14.2-1.2,28.5-2.6,42.7-3.9c4.6-0.4,9.2-0.7,13.8-1c15.3-1,30.6-2.1,45.9-3.1c0.7-4,2.8-4.7,6.4-3c2.2,1.1,5.1,1.4,7.6,1.3
		c5.4-0.2,10.8-0.9,16.2-1.3c11.5-0.7,23.1-1.2,34.6-2.1c15.3-1.2,30.5-2.6,45.7-3.9c4.8-0.4,9.5-0.7,14.3-1c16.1-1,32.3-1.9,48.4-3
		c17.1-1.2,34.1-2.6,51.2-4c13-1,25.9-2,38.9-3c16.1-1.3,32.2-2.2,48.2-4.2c6.6-0.8,13.9,0.9,19.9-4c10.1-8.3,20.4-16.4,30.7-24.6
		c9-7.1,18-14.2,27-21.2c3-2.3,4.8-4.8,4.8-9.1c-0.2-56.5-0.1-113-0.2-169.5c0-8.1-0.8-16.2-0.9-24.3c-0.2-8.6,2.4-10.8,11-10
		c2.4,0.2,4.8,0.7,7.3,1.1c5.5,0.9,10.4,2.9,15.1,6.3c2.8,2,7.2,2.2,10.9,2.5c7.9,0.8,16.3-2,23.7,3c1.7,1.2,3.7,2.2,4.9,3.8
		c2.9,4.1,5.5,8.4,8.2,12.8c3.2,5.3,7.7,8.7,13.6,10.5c4,1.2,6.9,3.3,8.6,7.8c2.1,5.5,8.3,5.2,13.1,6c10.7,1.7,21.2,2.8,31.5,7.8
		c6.7,3.2,11.6,8.1,14.6,12.9c3.6,5.8,8.4,12.8,6.6,21.1c-0.9,4,0.8,6.9,4,9.9c2.6,2.5,3.4,6.7,5.3,10.7c-2.8,0.5-4.4,0.8-6.3,1.2
		c0,12.4,0.2,24.7-0.2,37c-0.1,2.9-1.6,6.3-3.6,8.6c-3.5,4-7.8,7.3-11.7,11c-5.8,5.6-6.9,12.8-6.8,20.4c0,3.3,1,6.9,0.1,9.9
		c-2.3,7.1,1,12.9,3.8,18.6c2.8,5.9,2.6,11.6-0.2,16.8c-2.3,4.3-1.6,8-0.4,12.1c0.9,3.1,1.8,6.2,2.8,9.7c9.6-2.9,19.3-1.9,28.6,3.5
		c1.4,0.8,3.8,0.6,5.4,0c5.2-2,10.3-2.6,15.9-1.2c2.1,0.5,4.6,0.1,6.7-0.7c9.9-3.5,20-2.8,29.8-0.8c8.8,1.8,12.3,8.7,13.9,19.2
		c1.3,8.5-2.4,15.4-6.5,22c-1.7,2.8-5.5,4.5-8.5,6.4c-1.9,1.2-4.1,2-6.1,3.1c-4,2.3-6.5,5.6-4.7,10.4c2.4,6.5-0.7,11.3-4.3,16.2
		c-2.4,3.2-4.2,6.9-6.4,10.3c-1.5,2.3-2.9,4.6-4.8,6.6c-4.8,5-8.9,10.2-9.9,17.4c-0.1,1-1.1,1.9-1.4,3c-0.6,1.8-1.8,4-1.2,5.4
		c5.2,12.1-2.1,20.8-7.9,29.7c-4.3,6.7-9.3,13-14.3,20c8,2.5,10.3,9.2,13.8,14.7c2.5,3.8,4.8,7,10,7.6c2,0.2,3.8,3.3,5.3,5.4
		c8.6,11.4,10.8,25.4,14.4,38.6c1.8,6.6,6.4,10.2,10,15.1c3.9,5.3,7.6,10.9,10.7,16.8c2.9,5.4,1,9.4-4.8,12c-2.5,1.1-5,2.2-7.5,3.3
		c2.4,8.5-2.9,18-10.9,21c-9,3.4-18.1,5.5-27.7,5.7c-6.9,0.1-8.5,3.2-5.4,9.4c3.4,6.5,6.9,13,10.3,19.5c2.1,4,2.1,7.7-0.3,12
		c-2.7,4.7-4.4,10-6.1,15.2c-1.3,3.8,1.2,6.5,4.1,8.3c6.8,4.4,10.4,11.2,14.9,17.4c4.1,5.7,8.8,10.9,13.1,16.5c2.2,2.8,3.8,6,5.8,9
		c16.4,24,32.7,48,49.2,72c15.3,22.4,30.7,44.7,46,67c1,1.5,2.3,2.8,3.5,4.2c0.2-0.1,0.5-0.2,0.7-0.4c1.5-1.3,2.9-2.6,4.4-4
		c0.4,2.1,1.7,4.8,0.9,6.3c-2.2,3.8-0.8,6.1,1.3,9.3c19.6,29.7,39.6,59.1,58.2,89.4c7.6,12.4,19.2,20.5,27.7,31.6
		c5.5,7,9.7,15.1,13.8,23c1.6,3-0.6,5.9-3.8,6.9c-6.9,2.3-13.9,5.1-21,6.2c-10.4,1.7-20.9,2.4-31.4,3.1c-5.4,0.4-9.7,2.4-12.4,6.7
		c-4.1,6.5-10.5,8.5-17.1,10.2c-6.4,1.7-13.1,2.6-19.5,4.3c-2.5,0.7-5.7,2.2-6.9,4.3c-4.3,7.5-7.1,15-6,24.6
		c1.4,12.8,2.9,26.2-2.6,38.7c-2,4.5-5.6,8.3-8.5,12.5c-7.5,10.7-16,20.3-26.8,28.1c-7.1,5.1-9.4,13.4-11.6,21.6
		c-1.9,7.2-4.8,14.2-6.9,21.3c-0.5,1.5-0.2,3.8,0.7,5.1c4.6,7.3,2.8,14.3-5.6,16.3c-6.4,1.6-12.6,4.4-18.7,6.6
		c2.5,2.9,5.8,5.5,7.3,8.9c0.7,1.5-1.5,5.2-3.4,6.7c-1.6,1.2-4.6,0.5-7.2,0.7c-2.9,6.5-5.9,14.1-9.6,21.3
		c-4.7,9.3-10.3,18.1-15,27.4c-3.8,7.4-4.3,14.8,1.8,22c6.3,7.4,10.7,15.9,11.6,25.9c0.1,1.2,0.2,2.4,0.1,3.5
		c-1,6.5-1.6,12.4,1.6,19.1c2.8,5.8-2.3,11.5-6.6,15.9c-4.1,4.3-8.8,8-13,12.2c-5.2,5.2-8.4,11.2-8.1,18.9c0.1,2.7-0.3,5.7-1.3,8.2
		c-2.1,4.8-0.8,8.7,1.5,12.8c2.2,3.8,4.3,7.7,6.4,11.6c3.1,5.9,1.2,11.2-2.3,16.2c-2.3,3.4-3.7,6.8-4.5,11.1
		c-1.9,9.8-6.9,18-14.3,25.4c-6.3,6.4-13.2,10.2-21.5,12.3c-0.6,0.1-1.6,0.4-1.7,0.7c-2.4,10.5-13.9,11.9-19.3,19.5
		c-2.2,3.1-7.1,4.3-9.6,7.3c-2.8,3.4-4,8-6.4,11.8c-2,3.1-4.9,5.7-7.1,8.7c-1.9,2.7-4,5.5-4.7,8.6c-1.5,6.5-2.2,13.2-3,19.8
		c-0.5,4.2-3.2,6.5-6.8,7.4c-3.9,1-3.9,3.6-3.1,6.4c0.6,2.5,1.6,5.1,3,7.2c3.3,4.8,1.5,8.9-1.8,12.4c-3.2,3.5-4.6,7.3-4.6,12
		c0.1,6.2,0.6,12.8-1.1,18.7c-2.3,8.5-9.7,13.7-16.6,18.3c-10.6,7.1-21.8,13.2-32.6,19.9c-3,1.9-6.1,4.4-8,7.3
		c-2.1,3.2-4.6,4.1-7.9,3.7c-3.6-0.4-5.5,1.4-7.9,3.9c-2.7,2.9-6.3,5-9.8,7.1c-7.5,4.3-12.3,10.5-15.7,18.6
		c-2,4.9-6.8,8.7-10.5,12.9c-0.6,0.7-2.2,0.7-3.3,0.5c-7.6-1-15.3-2.2-24-3.5c1.3-2.1,1.9-3.4,2.9-4.4c3-3,1.2-4.7-1.5-6
		c-6.8-3.2-13.6-5-21.5-4.3c-10.3,0.9-20.4-1.8-30.5-4.1c-6.6-1.5-13.3-2.6-20.4-0.2c-5,1.7-10.7,1.2-16.2,1.5
		c-13.2,0.7-26.2-1.1-39.2-3.6c-10.9-2.1-21.9-3-32.9,2.4c-5,2.4-12.3,1.1-18.3,0c-5.5-1-10.8-3.6-15.7-6.3c-2-1.1-3.6-4.1-4.1-6.5
		c-1-4.6-1-9.5-1.4-14.7c-7.6-1-12.1-6.1-14.7-13c-0.7-1.9-0.4-4.4,0.1-6.4c0.7-2.9,2-5.8,3.2-8.6c2.5-6,5.1-11.9,7.6-17.8
		c0.5-1.2,1.4-2.7,1-3.6c-2.4-5.8-4.2-12.2-7.9-17.1c-4.4-5.8-7.1-12.2-6.6-18.9c0.5-7.1-1.6-13.4-2.8-20
		c-1.3-7.3-0.5-13.7,6.7-17.9c6.4-3.8,12.8-7.6,19.5-11.6c-7.5-2.4-9-8.7-7.3-15.2c1.1-4.1,4.7-7.6,7.3-11.3c0.9-1.2,2.2-2,3.6-3.2
		c-1.5-0.8-2.5-1.4-3.5-1.7c-9.5-3.6-12.3-12.1-9.2-22.1c1.4-4.5,3-8.9,4.3-12.5c-6.3-1.8-12.8-3.3-19.1-5.5
		c-8.4-2.9-10.5-11.1-5-18.1c1.2-1.6,2.6-3.4,4.3-4.2c7.9-3.8,11.6-10.4,12.8-18.5c0.7-4.7,3.5-6.4,7.5-7c6.1-1,7.7-2.7,7.6-8.6
		c-0.1-3.9-0.4-7.9-1-11.8c-1.1-7.5,2.6-15,9.6-18.4c2.7-1.3,3.8-2.3,2.8-5.8c-2.3-8.4,2.3-15.7,7.8-20.6c6.8-6.1,7.2-11.8,4-19.3
		c-2.7-6.4-5.1-13-6.7-19.8c-1.3-5.6-2.1-11.6-1.5-17.2c0.8-7,6.8-10.6,13.6-9.5c2.4,0.4,4.8,0.9,7.2,1.3c2.2,0.4,4.4,0.7,7.8,1.2
		c-1.8-4.5-2.8-8.8-5.1-12.3c-5.2-7.9-3.7-15.3-0.2-23.2c1.9-4.3,3.3-8.8,4.6-13.3c0.9-3.1,0.8-6.5,1.6-9.6
		c2-7.9,7.5-10.7,15.2-10.2c0.8,0.1,1.6,0,2.3,0c0.2-4.2,0.5-8.1,0.6-12.1c0-1.2-0.4-2.5-0.9-3.6c-2.3-5-4.9-9.9-6.9-15.1
		c-1.7-4.5-1.2-8.8,2-12.9c3.7-4.7,3.4-4.9,10.6-5.5c0.8-3.2,1.7-6.2,2.3-9.1c0.2-1.2,0-2.6-0.4-3.8c-3.3-8.5-7.2-16.7-9.8-25.4
		c-0.9-3,1.4-6.9,2.2-10.4c-5.6-4.2-11.8-8.7-14.1-16.7c-0.4-1.4-2.2-2.6-3.7-3.4c-6.2-3.2-12.7-6.1-18.7-9.5
		c-4.3-2.4-6.2-8.9-3.7-13.3c3.9-6.9,3.4-13.9,2.2-21c-2.7,2.5-5.3,5.3-8.2,7.7c-5,4.3-10.1,1.5-14.8-0.4c-3.8-1.5-4.1-5.4-4.9-9.4
		c-1.7-8.4-4.8-16.5-7.5-24.6c-1.6-4.9-3.8-9.7-5-14.7c-1.1-4.6,0.4-9.2,4.5-11.7c3.3-2,2.7-3.5,1.4-6.1c-4.2-8.5-2-13.5,7.2-14.5
		c3.4-0.4,7.1,2.4,10.6,4c1.5,0.6,2.7,1.7,4.4,2.9c1.7-2.1,3.3-3.9,4.6-6c1.5-2.4,2.6-4.9,0-7.4c-0.5-0.5-0.8-1.4-1-2.2
		c-1.4-5.8-1.1-11.9-4.8-17.2c-1-1.3,0.1-4.5,0.8-6.6c1.2-3.8,2.2-6.6-2-10c-5.5-4.6-9.5-10.8-14.1-16.4c-1.6-1.9-2.7-3-5.7-2
		c-4.7,1.6-9.3,2.6-13.7-2.8c-2.2-2.7-7.7-2.9-11.7-3.7c-0.8-0.2-2.4,1.5-3.1,2.6c-5.2,8-15.6,10-23,4.3c-4-3.1-8.7-3.9-13.2-5.6
		c-6.3-2.3-12.6-6.8-16.8-12c-5.8-7.2-11.7-15-11.8-25.2c0-2.2-1.8-4.2-5-2.8c-3.3,1.4-5.9,0.3-8.3-2.4c-2.2-2.4-4.7-4.7-7.4-6.4
		c-2.2-1.4-4.9-2.5-7.5-2.6c-8.5-0.4-11.3-3.9-8.7-12c0.8-2.3,1.7-4.6,2.4-6.4c-3.2-1.1-6.4-2.1-9.8-3.3c-8.5,5.7-17.7,4.4-24.5-3.8
		c-3.9-4.7-7.5-9.8-12-13.7c-3.3-2.9-7.8-4.9-12.1-6.2c-5.8-1.8-11.7-2.9-18.2-2.1c-8.6,1.1-17.5,0.1-26.2-0.7
		c-9.7-0.9-18.2-6.5-28.4-6.3c-5,0.1-9.9-5.2-15.2-5.9c-13-1.6-23-9.9-34.8-14c-3.8-1.3-7.9-2.7-11.8-2.5
		c-9.8,0.5-18.6-2.5-27.6-5.7c-10.2-3.6-20.9-6.1-31.4-8.7c-2.5-0.6-5.4,0.1-8,0.7c-5.1,1.1-9.4-0.3-12.2-4.7
		c-4.4-6.7-8.5-13.6-12.9-20.2c-1.2-1.8-3.2-3.1-4.8-4.7c-4.2-4.2-8.6-8.3-12.6-12.7c-5.8-6.1-12.7-10.2-21.1-10
		c-8.3,0.2-14.2-3.1-19.4-9.3c-3.7-4.4-8.5-8-12.2-12.4c-5.4-6.5-10.5-13.4-15.4-20.3c-4-5.6-0.9-14.4,5.6-17.2
		c3.3-1.4,6.3-3.4,10.3-5.7c-0.9-2.8-1.1-6.2-2.8-8.6c-5.7-7.9-3.8-15.9-0.9-23.8c2.9-7.8,3.2-7.7-4.4-12c-3.4-1.9-7.1-3.6-10-6.1
		c-5.4-4.6-5.1-11.1-4-17.3c1.3-7-2.7-11.3-9.7-9.3c-5.9,1.7-11.6,1.2-16.7-1.4c-3.3-1.7-6.1-5.3-7.8-8.7c-2-4.3,1.9-7.1,4.8-9.4
		c9-6.9,16.2-15.1,19-26.4c2-7.9,14.8-15.6,23.9-13.5c3,0.7,6.6,0,9.7-0.8c4.1-1,8.2-2.4,12-4.1c2.8-1.3,4.9-3.3,3.7-7.3
		c-1.7-5.6,1-10.7,3.2-15.5c4.9-10.7,9.7-21.4,15.6-31.6c3.4-6,8-11.9,16.5-11.6C1501.7,584.9,1502.8,583.6,1503.1,583.4z
		 M1925,1586.8c2,0.4,3.9,0.7,5.9,1.2c4.7,1.1,9.5,2,14.1,3.5c4.9,1.6,7.8,7.4,4.8,14c-2.7,5.9-5.5,11.6-8.4,17.6
		c2.3,1.2,3.7,2.4,5.4,2.8c9.4,2.1,13.4,12,7.8,20c-2.6,3.7-5.5,7.2-8.5,11.1c0.7,0.5,1.3,1.1,2,1.6c10.1,7,9.3,18.2-1.6,23.6
		c-4.7,2.3-9.6,4.2-14,6.9c-3.1,2-7.8,3.1-5.7,9.4c1.8,5.5,1.6,11.6,2.3,17.5c0.3,2.3,0.1,4.8,1.1,6.7c3.4,6.8,7.8,13.1,10.8,20
		c3.1,7,5.1,14.6,1.1,22.1c-1.9,3.6-4.3,7-5.7,10.7c-1.6,4.5-2.4,9.3-3.8,14.5c1.8,0,2.8,0,3.8,0c9.6,0.2,13.3,6,10.9,15
		c-0.8,3.1,0,8.7,2.1,10.2c5.7,3.9,13.4,6.2,19.6,3c11.7-6.1,23.4-4.2,35.3-3c12.2,1.3,24.1,5.4,36.7,3.9c4.4-0.5,9.2,0.4,13.3-0.9
		c12.3-3.7,24.3-1.3,36.4,0.8c5.9,1,11.8,2.3,17.8,2.9c6.4,0.7,13.1-0.2,19.2,1.3c9,2.2,18.5,4.7,22.2,15.2c0.4,1.3,1.5,2.3,2.2,3.5
		c1.3-0.9,3.1-1.4,3.8-2.7c2.8-4.7,5.2-9.7,7.9-14.5c6.2-10.7,18.8-14,26.8-22.8c4-4.3,11.7-2.5,15.6-8c1.4-2,3.4-3.8,5.6-4.9
		c14.2-7.4,28.6-14.5,40.3-26c3.3-3.2,5.4-6.5,5.9-10.8c0.3-3.5,0.2-7,0-10.5c-0.4-7.1,0.4-13.8,6.1-18.7c-0.7-1.3-1.3-2.3-1.7-3.3
		c-3.4-8.5-2.3-20.9,3.8-24c5.5-2.8,5.8-6.9,6.6-11.4c0.3-2.1,0-4.3,0.3-6.5c0.7-5.1,0.9-10.1,4.6-14.6c3.1-3.8,8.8-5.1,9.7-10.9
		c0.4-2.8,1.2-6.2,3-8c6.7-6.4,13.8-12.4,20.9-18.4c3.1-2.6,8.4-4.6,9.2-7.7c1.7-6.8,6.4-7.9,11.6-9.4c3.1-0.9,6.7-1.6,8.9-3.6
		c7.9-7,15.5-14.2,17.3-25.6c0.6-4,2.1-8.3,4.4-11.6c3.1-4.3,2.7-7.9,0.3-11.9c-1.8-3.1-3.7-6.1-5.6-9.2c-2.3-3.8-3.1-7.7-1.9-12.2
		c1.5-5.7,3.1-11.5,3.3-17.3c0.3-8.9,4.7-15.7,10.2-21.7c5.2-5.8,11.4-10.6,17.2-15.9c-3.8-5.8-5.2-11.2-3.2-17.4
		c2.7-8.2-0.1-15.3-4.9-22c-3.6-5.1-9.2-9.5-8.9-16.4c0.2-6.3-2.2-11.4-4.5-16.9c-1.9-4.6-3.6-9.4-4.6-14.3
		c-1.4-6.9-2.2-13.9-3-20.8c-0.5-4,0.5-8.3-0.7-11.9c-3-9.4-11.4-13.9-19.5-18.1c-9.3-4.8-19.8-4.3-30-4.1
		c-10.8,0.2-21-1.2-29.5-9.1c-6.3-5.9-12.7-12.2-13.1-20.8c-0.5-11.9,1.2-23.9,2-35.9c0.2-2.8,0.6-5.6,0.7-8.4
		c0.4-9.8,4.9-19,3.3-29.3c-1-6.4-1.6-11.7-7.1-16.1c-6.2-5-11.4-11.2-17.1-16.8c-9.6-9.4-19.4-18.6-28.9-28.1
		c-2.1-2.1-2-4.4,0.8-6.6c10.9-8.7,22.3-17,30.1-28.8c1.8-2.7,6.2-4.3,4.4-9.5c-3.9-11.5-7.4-23.2-10-35c-1.9-8.6-2.7-17.5-3.3-26.2
		c-0.3-4.2-1-7.6-3.9-10.7c-8.1-8.4-11.2-18.3-6.1-29.2c4.7-10.2,3.3-20.3,0.8-30.3c-2.6-10.6-5.9-21-9.6-31.2
		c-3.1-8.4-2.5-17-2-25.5c0.2-3.3,1.8-6.2-0.7-9c-26.5,18-52.9,36-79.4,53.9c-1.6,1.1-3.6,1.3-6.2,2.2c0-3.5,0-6,0-8.6
		c-5,0.9-9.5,1.7-14.9,2.7c2.6,4.9,4.6,8.6,6.5,12.3c0.6,1.2,1.7,3.5,1.3,3.9c-3.7,3.2-7.5,8.2-11.7,8.7c-13.9,1.7-28,1.9-42.1,2.3
		c-15.4,0.5-30.9,0.7-46.3,1c-1.8,0-3.6,0-5.7,0c0.8,5.1-2.3,6.1-5.7,5.9c-2.3-0.1-4.8-0.9-6.8-2.1c-2.2-1.2-3.9-4.4-5.9-4.5
		c-3.8-0.3-4.8-2.1-4.9-6.2c-2.7,1.5-5,2.3-6.8,3.7c-2.7,2.2-4.7,5.3-7.6,7.2c-3,2.1-6.6,4.9-9.8,4.7c-8.7-0.5-16.6,1.8-24.5,4.5
		c-2.5,0.9-6.2,2.5-6.7,4.5c-2.5,8.8-7.3,11.1-16.1,8.1c-9.8-3.3-17.9-10.6-28.6-12.1c-1-0.1-1.8-1.8-2.6-2.8c-2.3-3-4.6-6-7.3-9.7
		c-0.6,3.7-0.2,7.4-1.7,8.8c-1.7,1.5-5.3,1-8,0.8c-2.7-0.2-5.9-2.2-7.9-1.4c-1.7,0.8-1.9,4.7-3.1,7c-1.6,3-0.7,3.9,2.4,4.7
		c3.4,0.8,8.8,1.7,9.6,3.9c2.3,6.4,8.2,7.4,11.2,10.3c4.6-3,8.5-6.1,12.9-8.2c5.6-2.7,11.1,0.7,16.6,1.7c5.2,0.9,9.8,4.6,15.6,3.3
		c5.2-1.2,9.2,1.2,12.6,5.1c6.3,7.2,13,14.1,19.2,21.4c3.1,3.6,4.3,8.2,3.2,13.1c-0.5,2.3-1.4,5.3-0.5,7.1c2.8,5.5-1,12.9,5.2,17.3
		c0.3,0.2,0.1,1.3,0.1,1.9c0,3.3,0.2,6.7,0,10c-0.6,8.6-6.6,14.3-12.3,19.4c-2.4,2.1-7.3,1.4-10,1.9c-2.9,2.7-5,5.7-8,7.3
		c-3.5,1.9-3.1,3.7-2,6.6c4.1,10.3,7.9,20.6,11.9,30.9c0.7-1.5,2.2-3.4,2.4-5.5c0.9-8,1.3-16.1,2.2-24.1c0.2-2.2,0.8-5,2.3-6.2
		c2.5-2,6-4.2,8.8-4c5,0.5,8.9,3.7,10.8,8.9c1.6,4.6,3.2,9.2,5.5,13.5c2.6,4.9,2.5,9.3,0.1,14.3c-2.4,4.9-6.2,9.8-4.5,15.9
		c1.5,5.5,0.2,10.6-1.3,15.8c-0.2,0.8-0.2,2.3,0.2,2.5c4.9,2,9.7,4.7,14.8,5.6c6.1,1,7.8,2,8.3,8c0.5,6.3,3.3,11,9.5,13.5
		c9.5,3.8,11.7,12.5,5.7,21.1c-0.7,1-0.9,2.8-0.4,3.9c1.7,4.6,3.4,9.1,5.6,13.4c2.5,4.9,6.1,9.3,5.6,15.4c-0.1,1.8,0.2,4.2,1.3,5.5
		c3.1,3.6,3.8,7.3,1.2,11.3c-3.4,5.2-7.6,6.9-12.5,5.7c-2.2-0.6-4.5-1-7.5-1.7c0.7,1.9,1,2.8,1.3,3.7c2.1,5.6,4.9,11.1,6.1,16.9
		c1.2,5.6,0.9,11.5,1,17.3c0.3,9.5-2.5,12.3-12.1,12.3c-1.3,0-2.8-0.4-4,0.1c-1.4,0.6-3.7,1.8-3.7,2.8c-0.3,9.6-4.3,18-7.4,26.7
		c-0.4,1.1-0.1,2.7,0.3,3.9c2.2,6.3,5.2,12.3,6.7,18.7c2.5,11.2-0.2,15.4-10.5,17.5c-2.1,0.4-4.5-0.4-6.7-0.8
		c-3.4-0.7-6.7-1.6-11-2.6c0.8,5.2,0.9,9.2,2.1,12.8c2.5,7.7,5.6,15.2,8.2,22.9c3,8.8,0.2,16.5-6.6,23c-4.5,4.3-9,8.7-6.5,16.5
		c2,6.3,0.1,9.4-5.9,12.4c-5.4,2.7-7.8,6.3-7,12.4c0.5,3.8,0.1,7.7,0.1,11.5c0,10-2.6,13.6-12,17.3c-1.5,0.6-3.5,1.9-3.8,3.3
		C1937.3,1574.1,1933.1,1581.1,1925,1586.8z M1415.4,698.7c7.6-1.4,12.8,2,18.2,6.3c6.2,5,8.7,13.2,7,19.8c-1,3.9-0.8,6.5,3.4,8.3
		c3.3,1.4,6.1,3.7,9.2,5.5c8.1,4.6,10.4,16.7,6.4,22.9c-4.5,7-3.9,12.9,0.6,19.2c3.3,4.7,2.5,17.3-1.1,21.7c-0.8,1-1.9,1.9-3,2.5
		c-1.9,1.1-3.9,2.3-6.1,3c-4.3,1.6-3.2,3.4-0.7,6c2.6,2.7,4.6,5.9,7.1,8.8c2.1,2.5,4.3,4.9,6.6,7.3c2.4,2.4,5.5,4.2,7.3,7
		c3.3,5.1,7.6,7.4,13.6,7.1c8.8-0.4,16.2,3.4,22.7,9c4.4,3.8,7.9,8.6,12.4,12.2c8.1,6.5,14.8,14,19.2,23.3c2.2,4.7,4.4,8.5,10.5,5.5
		c0.9-0.4,2.3,0.1,3.4,0.4c5.8,1.5,11.6,2.9,17.4,4.5c7.2,2,14.3,4.4,21.5,6.3c5.8,1.5,12.1,4.3,17.5,3.2c6.9-1.4,12,2.1,17.7,3.4
		c7.6,1.8,14.8,5.7,21.7,9.6c4.5,2.5,8.5,5,14.1,4.7c2.8-0.1,5.7,2,8.7,2.9c4.4,1.4,8.9,2.7,13.4,3.8c3.1,0.8,6.6,0.7,9.5,2
		c9.2,4,18.6,5.7,28.5,4.1c2.7-0.4,5.5-0.8,8.3-1c10.7-0.8,20.2,3.3,29.6,7.4c2.6,1.2,5.5,2.5,7.4,4.5c3.1,3.3,5.2,7.6,8.3,10.9
		c2.7,2.8,4.7,7.6,10.4,5.9c-0.3-4.1-0.5-8-0.9-11.9c-0.4-3.3,1.3-6.2,4.1-6.4c3.9-0.4,9.5-0.6,11.5,1.6c4.1,4.6,7.8,10.5,5.6,17.5
		c2.4-0.4,4.6-1.2,6.7-0.9c4,0.7,6.8,2.3,6.1,10.5c-0.6,6.7,3.5,10,7.4,14.8c0.8-2.6,1.5-4.2,1.7-5.9c0.7-6.2,4.8-9.5,10.1-11.3
		c2.4-0.8,6.5-0.8,7.8,0.6c2.4,2.7,5.4,4.8,7.5,7.3c4,4.8,5.4,11.1,2.2,17.5c-0.6,1.2-0.8,2.6-1,4c-0.5,3.4-1.1,6.9-1.3,10.4
		c-0.1,1.9-0.1,4.1,0.7,5.8c0.9,2.1,2.6,3.9,4.9,7.1c0.1-2.7-0.1-4.1,0.3-5.2c0.8-2.3,1.5-5.2,3.2-6.6c3.6-2.8,8-3.8,12.4-1.2
		c0.8,0.5,2,0.4,2.3,0.4c-0.7-4.7-1.7-9.1-1.9-13.6c-0.2-3.1,2.6-4.4,5-2.4c4.7,4,9.3,8.2,13.5,12.7c3,3.2,4.1,8.6,10.2,8
		c0.8-0.1,1.6,1,2.5,1.4c6.9,3.2,13.7,6.7,20.7,9.6c4.2,1.7,7.8-0.4,7.7-4.5c-0.1-3.9,2-5.2,4.9-6.3c2.9-1,5.8-2.1,8.8-2.9
		c5.7-1.4,11.5-3.9,17-3.5c6.7,0.6,10.3-2.2,14.4-6.6c3-3.3,6.9-6.3,11-7.9c3.3-1.3,7.8-3.5,10.6,2.7c1.6,3.5,6.3,5.5,10.2,8.7
		c0-4.6,0-8.2,0-11.7c-0.4,0.2-0.8,0.3-1.2,0.5c-0.9-1.4-2.2-2.8-2.6-4.3c-1.8-6.7-4.5-13.5,1.8-19.7c1.4-1.4,0.9-5,0.9-7.5
		c0-2.2-0.6-4.5-0.9-7c6.3-1.7,12.3-3.2,19.6-5.2c-3.2-3.8-5.4-7.4-8.6-9.8c-5.2-3.9-6.4-6.5-5-12.9c1.1-4.9,2.9-10.3,1.8-14.9
		c-1.6-7-3.1-13.5-2.9-20.9c0.2-9.1-2.8-18.3-4.9-27.3c-1.2-5-11.1-7.7-15.2-4.4c-3.3,2.7-6.4,5.8-9.6,8.5c-1.5,1.3-3.1,2.9-4.8,3.2
		c-11.8,1.7-23.7,3.1-34.6-4.8c-0.7,2-1.3,4-2,5.8c-6.4,0.2-14.5-6.6-16.4-13.3c-1.7-6.1-0.4-14.1-9.6-15.8c-0.5-0.1-1-0.9-1.4-1.4
		c-5.2-5.2-10.4-10.3-15.5-15.6c-3.6-3.6-5.9-7.6-5.5-13.1c0.4-5.5,0.6-11,0-16.5c-0.9-8.6,2.4-16,6.5-22.8
		c5.2-8.6,11.6-16.6,17.4-24.9c1.8-2.5,2.7-6.2,5.1-7.7c5.8-3.5,7.6-9.4,10.4-14.8c2.7-5.3,2.4-10.6-0.4-16
		c-1.3-2.4-1.4-5.5-1.7-8.4c-0.3-3.7,0.4-7.5-0.4-11c-1.2-5.6-3.5-10.9-4.6-16.5c-0.6-2.9-1.9-3.5-4.3-3.4c-8.6,0.4-17.2,1-25.8,0.9
		c-11.9,0-23.9-0.3-35.8-1.1c-4.4-0.3-9.4,0.2-11.1-6.9c-5.5-23-12-45.7-18-68.6c-7.1-27.2-14-54.5-21.4-81.7
		c-6.5-23.7-13.6-47.2-20.3-70.8c-0.8-2.9-2-4.2-5.1-3.9c-5.6,0.5-11.2,0.7-16.8,1.1c-4.4,0.3-8.9,0.6-13.3,1
		c-15.2,1.3-30.5,2.7-45.7,3.9c-10,0.8-20.1,1.3-30.1,2.1c-15.9,1.2-31.8,2.7-47.7,3.9c-11.5,0.9-23.1,1.3-34.6,2.2
		c-1.9,0.1-4.1,1.4-5.5,2.8c-3.8,4.1-7.2,8.5-10.9,12.7c-12.7,14.5-25.5,28.9-38.3,43.3c-11.3,12.7-22.7,25.3-34,38
		c-2.7,3-0.5,12.4,3.3,13.9c8.2,3.3,8.8,4.3,8.2,12.6c-0.5,7.4-9.5,16.1-16.7,16.6c-1.8,0.1-4.1,1.3-5.2,2.8
		c-2.8,3.8-5.4,7.8-7.5,12c-5.7,11.5-12.8,22.5-11.8,36.3c0.1,1.6-0.9,3.4-1.7,5c-2.8,5.5-7.7,7.9-13.3,10
		c-7.6,2.8-14.9,6.2-23.3,4.6c-5.9-1.1-9.3,0.8-11.8,6.4C1425.4,684.1,1422.9,692.6,1415.4,698.7z M1795,444.1
		c5.5,18.9,10.7,37.2,16.2,55.4c0.3,1,1.9,2.2,3,2.4c4.7,0.6,9.5,0.7,14.3,1.1c11.6,1.1,22.6,3.8,33,9.7c6.7,3.8,14,8.2,21.3,8.9
		c16,1.4,32.2,4.5,48.4,1.5c0.7-0.1,1.6,0.3,2.3,0.7c7.9,5.4,17,3.7,25.5,3.9c12,0.3,24.1-0.5,36.1-2c6.6-0.8,13.4-2.9,19.2-6.2
		c5-2.8,9.9-4.3,15.2-4.5c10.7-0.4,21.3-0.3,32,0c1.9,0.1,4.4,1.5,5.4,3.1c3.7,5.9,6.9,12.1,10.2,18.3c1.8,3.4,3.8,5.7,8.3,5.7
		c3,0,6.4,1.3,9.1,3c5.9,3.7,11.7,7.8,17.2,12.1c9.9,7.8,18.2,16.8,21.5,29.6c1.4,5.2,4.1,10.2,9.5,13.1c5.3,2.9,8.9,7.8,11,13.5
		c2.3,6.5,4,13.3,6.3,19.9c1.5,4.3,2.4,9.2,7.7,11c0.6,0.2,1,1.6,1.2,2.5c1.7,6.1,3.3,12.2,5.1,18.2c0.8,2.7,1.7,5.9,3.7,7.7
		c4.3,4,9.2,7.6,14.1,10.9c4,2.6,6.8,5.3,6.8,10.6c0,5.5,2.4,10.4,6.9,13.9c5.9,4.6,10.8,11.3,19.6,10.9c0.6,0,1.3,0.9,2,1.4
		c12.6,9.3,25,18.9,39.9,24.4c9.6,3.5,19.5,6.1,28.8,10.3c6.8,3,13.2,2,19.9,0.8c1.5-0.3,3.5-0.4,4.2-1.4c2.4-3,4.2-6.5,6.5-9.6
		c0.8-1,2.5-1.9,3.9-1.9c8-0.2,16-0.1,24.6-0.1c-1.5-2.8-2.8-5.1-3.8-7.4c-1.5-3.4-3.8-6.8-3.9-10.3c-0.4-9.3,3.2-14.9,13.6-17.2
		c8.9-2,18.2-1.2,26.9-4.9c5.2-2.3,7.4-3.6,5-10c-2.1-5.7-1.2-7.4,4.3-10.2c2.4-1.2,4.7-2.5,7.2-3.8c-3.2-4.8-5.5-9.6-9-13.3
		c-4.4-4.5-7.7-9.1-9.3-15.4c-2.8-10.5-6.4-20.8-10.1-31c-1-2.8-3.2-6.5-5.5-7.2c-8.4-2.2-11.4-9.2-15.7-15.3
		c-1.8-2.5-3.7-5.5-6.3-6.8c-7.6-3.8-9.8-8.1-5.5-15.4c5.3-9,11.6-17.3,16.9-26.3c2.4-4,5.3-9.3,4.5-13.3
		c-1.6-7.5,0.4-21.8,5.5-27.6c4.4-5.1,8.9-10.4,11.9-16.3c2.1-4.3,3.7-8.6,7.4-11.9c2.4-2.2,3.2-4.5,2.5-8.3
		c-1.1-5.6-1.7-11.8,3.2-16.2c3-2.7,6.4-5.5,10.1-6.8c7-2.4,10.1-7.7,12.5-13.9c1.5-3.7-1-11.8-4.4-12.8c-6.9-2-13.6-3.8-21-0.7
		c-4.4,1.8-9.9,2.8-14.4,1.8c-5-1.1-8.7-0.2-12.8,2c-3.9,2.2-7.6,1.9-11.5-0.8c-4.8-3.3-10-6-16.1-4.8c-3.3,0.7-6.5,1.9-9.7,3.1
		c-5.6,2.2-8,1.2-9.4-4.5c-1.5-6.1-2.6-12.4-4-18.5c-1.2-5.4-2-10.6,0.9-15.8c2.1-3.8,2-7.5-0.7-11.2c-1.6-2.2-2.8-5-3-7.6
		c-0.5-5.5,0-11-0.1-16.5c-0.2-8.3,0.1-16.4,2.9-24.3c2-5.8,4.7-10.3,10-13.9c3.7-2.5,8.3-6.6,8.8-10.4c1.4-12.5,1.1-25.2,1.4-37.8
		c0-1.4-0.6-2.8-1-4.2c-1-3.7-2.6-7.4-2.8-11.2c-0.4-5.6,0.7-11.4-5.3-15c-0.6-0.4-0.9-1.3-1.2-2.1c-3.4-9.6-12.8-11.6-20.5-14.8
		c-5.8-2.4-13-1.2-19.4-2.5c-6.1-1.2-13.3-1.5-16.6-7.9c-2.3-4.4-5.7-6.1-9.7-8.1c-3.7-1.9-7.5-4.3-10.1-7.4
		c-4-4.9-6.8-10.8-10.6-15.8c-1.5-1.9-4.6-3.3-7.1-3.5c-5.8-0.5-11.7,0.3-17.5-0.3c-4.1-0.4-8.8-1.2-11.9-3.5
		c-4.6-3.5-9.2-5.9-15.3-5.9c0,2,0,4,0,5.9c0,64.2,0,128.3-0.1,192.5c0,2.2-0.6,5.2-2.1,6.6c-5.2,4.8-10.8,9-16.4,13.4
		c-14.1,11.2-28.2,22.5-42.4,33.5c-4.2,3.2-8.6,7.4-13.5,8.3c-11.1,2-22.5,2.4-33.8,3.3c-16.7,1.4-33.5,2.7-50.2,4
		c-12.6,1-25.3,2-37.9,3c-17.4,1.3-34.8,2.8-52.2,4c-16.1,1.1-32.3,2-48.4,3c-5.1,0.3-10.2,0.6-15.3,1c-15.1,1.3-30.1,2.7-45.2,3.9
		C1816.8,442.8,1806.1,443.4,1795,444.1z M2369.6,1403.4c4.1-6.5,8.8-13,12.5-20c4.1-7.7,7.2-16,10.9-23.9c1.2-2.6,1.4-4.8,0.1-7.6
		c-4.3-8.9-0.7-16.8,8.6-20.1c6.8-2.4,13.6-5.1,20.3-7.6c-1.4-6.3-1.3-11.5,1.3-16.9c2.5-5.1,4.4-10.5,5.7-16
		c2.5-10.4,5.1-20.7,13.6-28.1c3.6-3.2,7.9-5.7,11.1-9.3c6.8-7.8,13.3-15.8,19.4-24.1c2.6-3.6,5-7.8,5.8-12.1
		c1.2-6.2,1.2-12.6,1.1-19c-0.1-4-1.4-8-1.8-12.1c-0.9-8.8,2.8-16.2,6.6-23.8c3.2-6.4,8.2-10,14.9-11.7c7.1-1.8,14.2-3.4,21.3-5
		c5.9-1.3,9.4-5.6,13.2-9.8c2-2.1,4.6-4.5,7.3-5.1c8.9-1.8,18-2.9,27.1-4.2c8.4-1.2,16.8-2.3,25.3-3.5c0.2-0.6,0.5-1.2,0.7-1.8
		c-4-5.3-7.9-10.8-12.1-15.9c-8-9.7-18.2-17.3-25-28.5c-17.6-28.8-36.5-56.8-55.4-84.8c-18.3-27.2-37.2-54.1-55.8-81.1
		c-17.4-25.4-34.7-51-52.2-76.4c-1.9-2.8-4.2-5.3-6.1-7.8c-3.8,1.7-7.1,3.2-10.4,4.7c-14.9,7.1-29.8,14.2-44.8,21.1
		c-1.9,0.9-4.3,0.8-6.4,1.2c-0.6-0.2-1.1-0.5-1.7-0.7c4.8-6.4,3.3-12.3,0.4-18.2c-3.2-6.4-6.1-12.9-9.3-19.8
		c-4.2,2.8-7.8,5.3-11.5,7.6c-1.3,0.9-2.9,1.9-4.4,1.9c-4.7,0.2-9.4-0.4-14,0.1c-5.1,0.5-10.6,1-15.1,3.2
		c-6.4,3.1-12.2,7.6-18.1,11.8c-8.9,6.3-17.7,12.9-26.6,19.2c-1.5,1-3.7,1.6-5.5,1.5c-5.7-0.4-11.2-2.1-15.6-5.9
		c-8.5-7.3-13.8-4-20.3,5c-2.6,3.6-4.5,7.6-7.2,11.1c-4,5.1-9.1,8.1-16,8.1c-13.6-0.1-22.9,7-29.3,18.7c-3.4,6.2-7.3,12-14.8,13.7
		c-0.5,5.8,0.7,10.5,4.4,14.9c3.3,3.9,5.6,8.7,8.5,13.3c17.1-7.3,34.6-14.8,52.1-22.2c8.5-3.6,17.1-7.2,25.7-10.8
		c2.2-0.9,3.9-1.2,5.2,1.6c2.8,6.5,5.7,13,9.1,19.2c2.2,3.9,3.3,7.6,2.7,12.1c-1.1,8-1.6,15.9,0.9,23.9c4,12.5,8.1,25.1,10.8,38
		c1.9,9.1,3.5,18.6-2,27.8c-4.6,7.8-2.4,15.1,3.8,21.8c3.7,3.9,7.3,8.3,6.7,14.7c-0.5,5.8-1.1,12,0.3,17.5
		c3.8,15.1,8.8,29.8,13,44.8c0.7,2.4,0.1,6-1.3,8.1c-8.9,13.8-20.7,24.7-34.5,34.4c14.2,13.7,28.2,27.1,42,40.5
		c3.4,3.3,8.2,6.6,9.3,10.7c2.2,8.1,2.4,16.8,2.9,25.3c0.1,2.2-2.4,4.4-2.6,6.7c-0.9,8.8-1.4,17.7-2.1,26.6
		c-0.4,4.9-0.2,10.1-1.7,14.6c-1.9,5.7-1.2,10.8,0.7,16.2c2.4,6.8,8.3,10.4,13,15.1c1.7,1.7,4.3,2.7,6.7,3.7
		c8.3,3.3,17.1,3.6,25.8,3c14.2-1,26.4,3.4,36.9,12.9c3.8,3.4,7.8,6.8,8.6,12.3c0.9,6.5,1.5,13,2.1,19.6
		C2364.7,1386.6,2364.3,1395.7,2369.6,1403.4z M1856.5,670.5c3.6-0.2,6.3-0.5,9.1-0.5c6.4,0.2,12.9,0.7,19.3,0.9
		c13.6,0.4,27.2,0.8,40.8,0.9c3.8,0,6,0.5,6.5,5.1c0.5,4.1,2.5,8.1,3.6,12.2c1.8,6.3,4.7,12.4,2.2,19.2c-0.5,1.3-0.4,3.3,0.3,4.4
		c6.2,8.5,4.3,17-0.5,24.9c-8.4,14-17.4,27.6-26.3,41.2c-5.5,8.3-10.5,16.6-9.7,27.1c0.3,3.6-0.2,7.4,0.1,11
		c0.2,2.3,0.8,5.1,2.2,6.7c4.8,5.7,10,11,15.2,16.4c1.1,1.2,1.9,3.3,4.6,1.3c1.4-1.1,7.3,4.9,6.8,6.9c-2.1,9,1.9,15.7,7.7,21.8
		c3.8-4.1,7.9-5.1,11-2.8c11.7,8.7,26,7.6,36.3-2.7c7.1-7.1,13.9-8.2,23.1-4.6c3.5,1.4,5.1,3.5,6,6.9c1.5,5.4,3.1,10.8,4.9,17.2
		c8.4,0,16.9-0.3,25.3,0.1c4.1,0.2,5.8-1.6,7.3-5c1.6-3.7,3.4-7.4,5.8-10.6c3.4-4.5,7.2-8.6,14-7.6c4.7,0.7,13.4,6.8,13.7,10.4
		c0.7,9.9,1.4,19.7,2,29.6c0.1,2.6,0.9,3.7,3.5,4.3c6.7,1.6,13.3-0.2,19.8,0.1c8.1,0.4,11.5-4.5,15.3-9.6c2.4-3.2,4.2-7,6.6-10.2
		c4.3-5.7,9.9-9.5,17.1-10.5c3.9-0.5,8.1,0,11.7-1.2c3.6-1.2,7.3-3.5,10-6.3c6.1-6.6,8.8-16.3,17.6-20.4c2.8-1.3,6.8-2.2,9.6-1.2
		c6,2.1,11.6,5.6,18.3,9c3.9-2.7,8.4-6.2,13.3-9c8.8-5.2,16-13,26.2-16c3.9-1.2,8.9-2.8,6.2-9.2c-0.5-1.1,0.6-3.1,1.4-4.5
		c0.9-1.7,2.4-3.1,3.4-4.8c3.5-6.1,2.8-10.3-1.6-13.2c-3.8-2.5-7.5-5.2-10.8-8.2c-4-3.5-7.4-7.7-11.4-11.2
		c-4.3-3.7-6.1-7.5-4.2-13.4c1.7-5.2,1.9-10.9,3.3-16.3c0.6-2.3,2.6-4.2,4-6.4c-4.3-3.2-9.2-6.9-14.1-10.6
		c-5.4-4.1-10.6-8.7-17.9-9.1c-1.2-0.1-2.4-1-3.5-1.7c-7.7-4.6-12.6-11.9-15.4-19.9c-3.8-10.7-13.3-14.9-20.9-21.2
		c-4.6-3.9-6.9-8.4-8.4-13.8c-1.4-5-1.1-10.7-6.2-14.2c-0.6-0.4-0.5-1.8-0.8-2.7c-0.6-2-1.1-4-2-5.9c-2.9-6.5-6.8-12.7-8.8-19.5
		c-2.4-8.1-6.6-14.2-13.1-19.4c-3.2-2.6-5.9-5.7-6.9-10.6c-1.3-6.3-4-13-8-17.9c-5.7-7.1-12.8-13.1-19.8-19.1
		c-5.5-4.7-11.4-9.7-19.2-9.8c-5.6-0.1-7.6-3.7-9.8-7.5c-2.7-4.7-5.2-9.4-7.5-14.3c-1.6-3.5-4-4.6-7.8-4.5c-6.3,0.3-12.7,0.3-19,0
		c-8.9-0.4-17.4,0.1-24.6,6.2c-1,0.8-2.2,1.6-3.5,1.8c-10.2,1.5-20.4,3.1-30.6,4c-7.4,0.6-15,0.2-22.5,0.1c-8.4,0-16.9,1.1-24.6-3.4
		c-0.4-0.2-0.9-0.5-1.4-0.5c-8-0.1-16,0.1-24.1-0.1c-6.6-0.1-13.2-0.4-19.8-1.1c-4.7-0.5-9.5-1.2-13.8-3
		c-9.9-4.1-19.2-9.4-29.2-13.2c-9.5-3.6-19.7-4.2-30.5-3.5C1828,562.9,1842.3,616.9,1856.5,670.5z M2207.4,913
		c-23.8,10.2-47.5,20.3-71.2,30.3c-4,1.7-8.3,3-12,4.3c-1.3-4.6-1.6-8.3-3.3-11.2c-4-7-10.5-12.8-9.3-22c0.1-1-0.7-2.1-1.2-3.2
		c-2.3,0-4.4,0.1-6.5,0c-5.6-0.3-11.3-0.4-16.8-1.2c-1.6-0.2-3.7-2.8-3.9-4.5c-1-8.3-2-16.7-2-25.1c0-5.2-1.4-8.5-5.7-11.5
		c-4.6-3.3-7.5-3.7-10.7,1c-3.2,4.7-6.3,9.6-8.5,14.9c-1.4,3.5-3.2,4.4-6.6,4.4c-10.1-0.1-20.3,0-29.8,0c0,3.2,0,6,0,8.8
		c0.1,3.3-0.8,7.2,0.5,9.9c4.2,8.4,3.1,16.5,0.7,25.1c-0.7,2.5-1.5,5.5,2.3,7.7c7,3.9,11,9.8,9,18.5c-5.5,2-11,4-15.5,5.6
		c-0.6,4.5,0,9.1-1.8,12.3c-3,5.3-3.5,10.2-1.8,15.8c5.6,2,5.6,2,4,12.8c6.4-0.5,12.6-1.1,18.9-1.4c11.6-0.5,23.2-0.7,34.8-1
		c10.4-0.3,20.9-0.2,31.3-1.2c5.3-0.5,11.9,1.2,14.3-3.7c-1.5-6.6-2.9-11.7-3.6-16.9c-0.2-1.4,1.6-4.2,3-4.6
		c4.8-1.3,10.1-1.3,14.8-2.8c4.5-1.5,6.2-0.3,6.3,5.1c26.1-17.8,51.5-35.1,76.6-52.2C2211.6,921.8,2209.5,917.4,2207.4,913z
		 M2384.3,822.2c-3.8-5.4-7.6-10.3-11-15.4c-4.2-6.5-8.9-12.4-15.6-16.7c-3.5-2.2-4.8-5.7-4.9-10.2c-0.3-8.9,2.1-16.8,6.8-24.1
		c1.9-3-0.1-6.7-3.6-6.8c-6.5-0.1-13-0.1-19.5,0c-1.1,0-2.6,0.7-3.3,1.5c-2.3,2.8-4.1,5.9-6.3,8.7c-1.2,1.5-2.8,3.2-4.4,3.6
		c-5.6,1-11.4,2-17,2c-11.6,0-21.7-5.4-31.9-10c-6.8-3-13.2-6.7-19.9-10.1c-0.7,2.7-1.2,4.6-1.7,6.5c-1.6,5.7-3.3,11.4-4.8,17.1
		c-0.2,0.9,0.3,2.4,1,3.1c9.2,9.2,18.2,18.5,27.8,27.3c2.6,2.4,2.5,4.1,1.2,6.7c-2.7,5.1-5.4,10.3-8.3,15.8c6.5-0.5,12.5-1,18.4-1.3
		c7.6-0.3,14.8-1.2,21.1-6.5c3-2.5,7.1-3.7,10.8-5.6c6.2,13.1,11.8,24.9,17.5,36.8C2351.9,837.5,2367.8,830,2384.3,822.2z"/>
	<path id="_x32_565" class="st0" d="M1925,1586.8c8-5.7,12.3-12.7,14.1-21.4c0.3-1.3,2.3-2.7,3.8-3.3c9.5-3.7,12-7.3,12-17.3
		c0-3.8,0.4-7.7-0.1-11.5c-0.9-6.1,1.6-9.8,7-12.4c6-3,7.9-6.1,5.9-12.4c-2.4-7.8,2.1-12.2,6.5-16.5c6.8-6.5,9.6-14.2,6.6-23
		c-2.6-7.7-5.7-15.2-8.2-22.9c-1.2-3.7-1.3-7.6-2.1-12.8c4.3,1,7.6,1.9,11,2.6c2.2,0.5,4.6,1.3,6.7,0.8c10.2-2.1,13-6.3,10.5-17.5
		c-1.5-6.4-4.5-12.5-6.7-18.7c-0.4-1.2-0.7-2.8-0.3-3.9c3.1-8.7,7.1-17.2,7.4-26.7c0-1,2.3-2.2,3.7-2.8c1.1-0.5,2.6-0.1,4-0.1
		c9.5,0,12.3-2.8,12.1-12.3c-0.2-5.8,0.1-11.7-1-17.3c-1.2-5.8-4-11.3-6.1-16.9c-0.3-0.9-0.6-1.8-1.3-3.7c3,0.7,5.2,1.1,7.5,1.7
		c4.9,1.3,9.2-0.5,12.5-5.7c2.6-3.9,1.9-7.6-1.2-11.3c-1.1-1.3-1.4-3.7-1.3-5.5c0.5-6.1-3.1-10.5-5.6-15.4
		c-2.2-4.3-3.9-8.9-5.6-13.4c-0.4-1.1-0.2-2.9,0.4-3.9c6-8.6,3.9-17.3-5.7-21.1c-6.2-2.5-9-7.2-9.5-13.5c-0.5-6-2.2-7-8.3-8
		c-5.1-0.8-9.9-3.5-14.8-5.6c-0.4-0.1-0.4-1.7-0.2-2.5c1.5-5.2,2.8-10.3,1.3-15.8c-1.6-6.1,2.2-10.9,4.5-15.9
		c2.4-5,2.5-9.4-0.1-14.3c-2.3-4.3-3.9-8.9-5.5-13.5c-1.8-5.2-5.8-8.4-10.8-8.9c-2.8-0.3-6.3,2-8.8,4c-1.5,1.2-2.1,4-2.3,6.2
		c-0.9,8-1.3,16.1-2.2,24.1c-0.2,2.1-1.7,4-2.4,5.5c-4-10.3-7.8-20.6-11.9-30.9c-1.2-2.9-1.5-4.8,2-6.6c3-1.6,5.2-4.6,8-7.3
		c2.8-0.4,7.7,0.3,10-1.9c5.8-5.1,11.8-10.8,12.3-19.4c0.2-3.3,0-6.7,0-10c0-0.7,0.2-1.7-0.1-1.9c-6.3-4.4-2.4-11.8-5.2-17.3
		c-0.9-1.8,0-4.7,0.5-7.1c1.1-5-0.1-9.5-3.2-13.1c-6.2-7.3-12.9-14.2-19.2-21.4c-3.4-4-7.4-6.3-12.6-5.1c-5.8,1.3-10.4-2.4-15.6-3.3
		c-5.5-1-11-4.3-16.6-1.7c-4.4,2.1-8.2,5.2-12.9,8.2c-3.1-2.9-9-4-11.2-10.3c-0.8-2.2-6.2-3-9.6-3.9c-3.1-0.7-4-1.7-2.4-4.7
		c1.2-2.3,1.4-6.2,3.1-7c2-0.9,5.2,1.2,7.9,1.4c2.7,0.2,6.3,0.6,8-0.8c1.6-1.3,1.1-5,1.7-8.8c2.8,3.7,5,6.7,7.3,9.7
		c0.8,1,1.6,2.6,2.6,2.8c10.6,1.5,18.7,8.7,28.6,12.1c8.8,3,13.6,0.7,16.1-8.1c0.6-2,4.2-3.6,6.7-4.5c7.9-2.7,15.8-4.9,24.5-4.5
		c3.2,0.2,6.8-2.6,9.8-4.7c2.8-2,4.9-5,7.6-7.2c1.8-1.5,4.1-2.3,6.8-3.7c0.1,4.2,1.1,6,4.9,6.2c2,0.1,3.7,3.3,5.9,4.5
		c2,1.1,4.5,2,6.8,2.1c3.5,0.2,6.6-0.8,5.7-5.9c2.1,0,3.9,0,5.7,0c15.4-0.3,30.9-0.5,46.3-1c14-0.5,28.1-0.7,42.1-2.3
		c4.2-0.5,8-5.5,11.7-8.7c0.4-0.3-0.7-2.6-1.3-3.9c-1.9-3.7-3.9-7.4-6.5-12.3c5.4-1,10-1.8,14.9-2.7c0,2.6,0,5.1,0,8.6
		c2.6-0.9,4.6-1.2,6.2-2.2c26.5-17.9,53-35.9,79.4-53.9c2.5,2.8,0.9,5.7,0.7,9c-0.5,8.5-1.1,17,2,25.5c3.8,10.2,7,20.7,9.6,31.2
		c2.5,10,3.9,20.1-0.8,30.3c-5.1,10.9-2,20.8,6.1,29.2c2.9,3,3.7,6.5,3.9,10.7c0.6,8.8,1.3,17.7,3.3,26.2c2.7,11.8,6.1,23.5,10,35
		c1.8,5.3-2.6,6.8-4.4,9.5c-7.8,11.8-19.2,20.1-30.1,28.8c-2.8,2.2-2.9,4.6-0.8,6.6c9.5,9.5,19.3,18.7,28.9,28.1
		c5.7,5.6,10.9,11.8,17.1,16.8c5.5,4.4,6.1,9.7,7.1,16.1c1.6,10.3-2.9,19.5-3.3,29.3c-0.1,2.8-0.5,5.6-0.7,8.4
		c-0.8,12-2.5,24-2,35.9c0.4,8.6,6.7,14.9,13.1,20.8c8.5,7.9,18.7,9.3,29.5,9.1c10.2-0.2,20.6-0.7,30,4.1c8,4.1,16.4,8.6,19.5,18.1
		c1.2,3.7,0.2,8,0.7,11.9c0.8,7,1.6,14,3,20.8c1,4.9,2.7,9.7,4.6,14.3c2.3,5.5,4.7,10.6,4.5,16.9c-0.2,6.9,5.3,11.3,8.9,16.4
		c4.8,6.8,7.6,13.8,4.9,22c-2,6.2-0.6,11.6,3.2,17.4c-5.8,5.3-12,10.1-17.2,15.9c-5.4,6.1-9.9,12.8-10.2,21.7
		c-0.2,5.8-1.8,11.6-3.3,17.3c-1.2,4.5-0.4,8.4,1.9,12.2c1.8,3.1,3.7,6.1,5.6,9.2c2.4,4,2.7,7.6-0.3,11.9c-2.3,3.3-3.8,7.6-4.4,11.6
		c-1.7,11.4-9.4,18.6-17.3,25.6c-2.3,2-5.8,2.7-8.9,3.6c-5.2,1.5-9.9,2.6-11.6,9.4c-0.8,3.1-6.1,5-9.2,7.7c-7.1,6-14.2,12-20.9,18.4
		c-1.9,1.8-2.6,5.2-3,8c-0.9,5.9-6.6,7.2-9.7,10.9c-3.7,4.5-3.9,9.5-4.6,14.6c-0.3,2.1,0.1,4.3-0.3,6.5c-0.7,4.6-1.1,8.6-6.6,11.4
		c-6.1,3.1-7.2,15.5-3.8,24c0.4,1,1,2,1.7,3.3c-5.7,4.9-6.5,11.6-6.1,18.7c0.2,3.5,0.3,7,0,10.5c-0.4,4.3-2.6,7.6-5.9,10.8
		c-11.7,11.5-26.1,18.5-40.3,26c-2.1,1.1-4.2,2.9-5.6,4.9c-3.9,5.5-11.6,3.6-15.6,8c-8,8.7-20.6,12-26.8,22.8
		c-2.8,4.8-5.1,9.8-7.9,14.5c-0.7,1.2-2.5,1.8-3.8,2.7c-0.7-1.1-1.8-2.2-2.2-3.5c-3.7-10.5-13.2-13-22.2-15.2
		c-6.1-1.5-12.8-0.6-19.2-1.3c-6-0.6-11.9-1.9-17.8-2.9c-12.1-2.1-24.1-4.5-36.4-0.8c-4.2,1.2-8.9,0.3-13.3,0.9
		c-12.6,1.5-24.5-2.6-36.7-3.9c-11.8-1.3-23.6-3.2-35.3,3c-6.2,3.3-13.9,1-19.6-3c-2.1-1.5-2.9-7.1-2.1-10.2
		c2.4-9.1-1.3-14.8-10.9-15c-1,0-1.9,0-3.8,0c1.3-5.2,2.1-10,3.8-14.5c1.4-3.8,3.8-7.1,5.7-10.7c4-7.6,2-15.1-1.1-22.1
		c-3-6.9-7.4-13.3-10.8-20c-1-1.9-0.8-4.4-1.1-6.7c-0.7-5.8-0.5-12-2.3-17.5c-2.1-6.3,2.6-7.4,5.7-9.4c4.4-2.8,9.4-4.6,14-6.9
		c10.9-5.4,11.6-16.6,1.6-23.6c-0.7-0.5-1.3-1-2-1.6c3-3.9,5.9-7.4,8.5-11.1c5.5-8,1.5-17.9-7.8-20c-1.7-0.4-3.1-1.6-5.4-2.8
		c2.8-6,5.7-11.7,8.4-17.6c3-6.6,0.1-12.3-4.8-14c-4.6-1.5-9.4-2.4-14.1-3.5C1929,1587.5,1927,1587.2,1925,1586.8z"/>
	<path id="_x32_560" class="st0" d="M1415.4,698.7c7.4-6.1,10-14.7,13.5-22.6c2.5-5.6,5.9-7.5,11.8-6.4c8.3,1.6,15.7-1.8,23.3-4.6
		c5.6-2.1,10.5-4.5,13.3-10c0.8-1.6,1.8-3.4,1.7-5c-1-13.7,6.1-24.8,11.8-36.3c2.1-4.2,4.7-8.3,7.5-12c1.1-1.4,3.4-2.6,5.2-2.8
		c7.1-0.5,16.1-9.2,16.7-16.6c0.6-8.3-0.1-9.3-8.2-12.6c-3.7-1.5-6-10.9-3.3-13.9c11.3-12.7,22.7-25.3,34-38
		c12.8-14.4,25.6-28.9,38.3-43.3c3.7-4.2,7.1-8.7,10.9-12.7c1.3-1.4,3.5-2.7,5.5-2.8c11.5-0.9,23.1-1.3,34.6-2.2
		c15.9-1.2,31.8-2.7,47.7-3.9c10-0.8,20.1-1.3,30.1-2.1c15.2-1.2,30.5-2.6,45.7-3.9c4.4-0.4,8.9-0.7,13.3-1
		c5.6-0.4,11.2-0.6,16.8-1.1c3.1-0.3,4.3,1,5.1,3.9c6.7,23.6,13.8,47.1,20.3,70.8c7.4,27.2,14.2,54.5,21.4,81.7
		c6,22.9,12.5,45.6,18,68.6c1.7,7.1,6.7,6.6,11.1,6.9c11.9,0.8,23.9,1.1,35.8,1.1c8.6,0,17.2-0.6,25.8-0.9c2.5-0.1,3.7,0.5,4.3,3.4
		c1.2,5.6,3.5,10.9,4.6,16.5c0.7,3.5,0.1,7.4,0.4,11c0.2,2.8,0.4,6,1.7,8.4c2.8,5.4,3.2,10.7,0.4,16c-2.8,5.3-4.6,11.2-10.4,14.8
		c-2.4,1.5-3.3,5.1-5.1,7.7c-5.8,8.3-12.2,16.2-17.4,24.9c-4.1,6.8-7.4,14.2-6.5,22.8c0.6,5.4,0.4,11,0,16.5
		c-0.4,5.5,1.9,9.5,5.5,13.1c5.1,5.2,10.4,10.4,15.5,15.6c0.5,0.5,0.9,1.3,1.4,1.4c9.2,1.6,7.9,9.7,9.6,15.8
		c1.9,6.6,10,13.4,16.4,13.3c0.6-1.9,1.3-3.8,2-5.8c10.9,7.9,22.8,6.5,34.6,4.8c1.7-0.2,3.4-1.9,4.8-3.2c3.3-2.8,6.3-5.8,9.6-8.5
		c4.1-3.3,14-0.6,15.2,4.4c2.1,9,5.1,18.2,4.9,27.3c-0.2,7.5,1.3,13.9,2.9,20.9c1.1,4.6-0.8,10-1.8,14.9c-1.4,6.4-0.1,9.1,5,12.9
		c3.2,2.4,5.4,6,8.6,9.8c-7.3,1.9-13.2,3.5-19.6,5.2c0.4,2.5,0.9,4.7,0.9,7c0,2.6,0.5,6.1-0.9,7.5c-6.4,6.3-3.6,13-1.8,19.7
		c0.4,1.6,1.7,2.9,2.6,4.3c0.4-0.2,0.8-0.3,1.2-0.5c0,3.6,0,7.2,0,11.7c-3.9-3.2-8.6-5.2-10.2-8.7c-2.9-6.2-7.4-4-10.6-2.7
		c-4.1,1.6-8,4.6-11,7.9c-4,4.4-7.7,7.1-14.4,6.6c-5.6-0.5-11.4,2.1-17,3.5c-3,0.7-5.9,1.9-8.8,2.9c-2.9,1-5,2.3-4.9,6.3
		c0.1,4.2-3.5,6.3-7.7,4.5c-7-2.9-13.9-6.4-20.7-9.6c-0.9-0.4-1.7-1.5-2.5-1.4c-6.1,0.6-7.2-4.8-10.2-8c-4.2-4.5-8.8-8.6-13.5-12.7
		c-2.4-2-5.2-0.7-5,2.4c0.3,4.4,1.2,8.8,1.9,13.6c-0.3-0.1-1.4,0-2.3-0.4c-4.5-2.5-8.8-1.6-12.4,1.2c-1.7,1.4-2.4,4.3-3.2,6.6
		c-0.4,1.1-0.2,2.5-0.3,5.2c-2.3-3.2-4-5-4.9-7.1c-0.7-1.7-0.8-3.9-0.7-5.8c0.2-3.5,0.8-6.9,1.3-10.4c0.2-1.4,0.4-2.8,1-4
		c3.2-6.4,1.8-12.7-2.2-17.5c-2.1-2.5-5.1-4.6-7.5-7.3c-1.3-1.4-5.4-1.4-7.8-0.6c-5.3,1.8-9.4,5.1-10.1,11.3
		c-0.2,1.7-0.9,3.3-1.7,5.9c-3.9-4.8-8.1-8.1-7.4-14.8c0.8-8.2-2-9.9-6.1-10.5c-2-0.3-4.3,0.5-6.7,0.9c2.3-7-1.5-12.8-5.6-17.5
		c-2-2.2-7.6-2-11.5-1.6c-2.8,0.3-4.4,3.1-4.1,6.4c0.4,3.9,0.6,7.8,0.9,11.9c-5.7,1.7-7.7-3-10.4-5.9c-3.1-3.3-5.2-7.6-8.3-10.9
		c-1.9-2-4.8-3.3-7.4-4.5c-9.4-4.1-19-8.2-29.6-7.4c-2.8,0.2-5.5,0.6-8.3,1c-9.9,1.6-19.3-0.1-28.5-4.1c-2.9-1.3-6.3-1.2-9.5-2
		c-4.5-1.1-8.9-2.4-13.4-3.8c-2.9-0.9-5.8-3-8.7-2.9c-5.5,0.3-9.5-2.2-14.1-4.7c-6.9-3.9-14.1-7.8-21.7-9.6
		c-5.7-1.3-10.8-4.8-17.7-3.4c-5.4,1.1-11.7-1.7-17.5-3.2c-7.2-1.9-14.3-4.2-21.5-6.3c-5.8-1.6-11.6-3.1-17.4-4.5
		c-1.1-0.3-2.5-0.8-3.4-0.4c-6.1,2.9-8.3-0.8-10.5-5.5c-4.4-9.4-11.2-16.8-19.2-23.3c-4.5-3.6-8-8.4-12.4-12.2
		c-6.4-5.6-13.8-9.4-22.7-9c-6,0.3-10.3-2-13.6-7.1c-1.8-2.7-4.9-4.6-7.3-7c-2.3-2.3-4.5-4.7-6.6-7.3c-2.4-2.9-4.5-6.1-7.1-8.8
		c-2.5-2.6-3.5-4.3,0.7-6c2.1-0.8,4.1-1.9,6.1-3c1.1-0.7,2.2-1.5,3-2.5c3.6-4.3,4.4-17,1.1-21.7c-4.5-6.4-5.1-12.2-0.6-19.2
		c4-6.2,1.7-18.3-6.4-22.9c-3.1-1.8-6-4.1-9.2-5.5c-4.2-1.8-4.4-4.4-3.4-8.3c1.7-6.6-0.8-14.7-7-19.8
		C1428.2,700.7,1423,697.3,1415.4,698.7z"/>
	<path id="_x32_562" class="st0" d="M1795,444.1c11.1-0.7,21.8-1.3,32.5-2.1c15.1-1.2,30.1-2.6,45.2-3.9c5.1-0.4,10.2-0.7,15.3-1
		c16.1-1,32.3-1.9,48.4-3c17.4-1.2,34.8-2.6,52.2-4c12.6-1,25.3-2,37.9-3c16.7-1.3,33.5-2.6,50.2-4c11.3-0.9,22.7-1.3,33.8-3.3
		c4.8-0.9,9.3-5.1,13.5-8.3c14.2-11,28.3-22.3,42.4-33.5c5.5-4.4,11.2-8.6,16.4-13.4c1.5-1.4,2.1-4.3,2.1-6.6
		c0.1-64.2,0.1-128.3,0.1-192.5c0-2,0-4,0-5.9c6.1,0,10.6,2.4,15.3,5.9c3.1,2.4,7.8,3.1,11.9,3.5c5.8,0.6,11.7-0.2,17.5,0.3
		c2.5,0.2,5.6,1.6,7.1,3.5c3.9,5,6.6,10.9,10.6,15.8c2.6,3.1,6.4,5.6,10.1,7.4c4,2,7.4,3.7,9.7,8.1c3.3,6.4,10.5,6.7,16.6,7.9
		c6.4,1.3,13.6,0.1,19.4,2.5c7.7,3.2,17.1,5.3,20.5,14.8c0.3,0.8,0.6,1.7,1.2,2.1c6,3.6,4.9,9.4,5.3,15c0.2,3.8,1.8,7.4,2.8,11.2
		c0.4,1.4,1,2.8,1,4.2c-0.2,12.6,0.1,25.3-1.4,37.8c-0.4,3.8-5.1,7.9-8.8,10.4c-5.3,3.6-8,8.1-10,13.9c-2.8,8-3,16.1-2.9,24.3
		c0.1,5.5-0.3,11.1,0.1,16.5c0.2,2.6,1.5,5.5,3,7.6c2.7,3.8,2.7,7.5,0.7,11.2c-2.9,5.2-2.1,10.4-0.9,15.8c1.4,6.2,2.5,12.4,4,18.5
		c1.4,5.7,3.8,6.6,9.4,4.5c3.2-1.2,6.4-2.5,9.7-3.1c6.1-1.3,11.3,1.5,16.1,4.8c3.9,2.7,7.6,3,11.5,0.8c4.1-2.3,7.8-3.1,12.8-2
		c4.5,1,10,0,14.4-1.8c7.4-3.1,14.2-1.3,21,0.7c3.4,1,5.8,9.1,4.4,12.8c-2.4,6.2-5.5,11.5-12.5,13.9c-3.7,1.3-7.1,4.1-10.1,6.8
		c-4.9,4.4-4.3,10.7-3.2,16.2c0.7,3.7,0,6.1-2.5,8.3c-3.7,3.3-5.3,7.6-7.4,11.9c-3,5.9-7.5,11.2-11.9,16.3
		c-5.1,5.8-7.1,20.1-5.5,27.6c0.8,4-2.1,9.3-4.5,13.3c-5.3,9-11.7,17.3-16.9,26.3c-4.3,7.3-2.1,11.7,5.5,15.4
		c2.6,1.3,4.5,4.3,6.3,6.8c4.3,6.1,7.3,13.1,15.7,15.3c2.3,0.6,4.5,4.4,5.5,7.2c3.7,10.2,7.4,20.5,10.1,31
		c1.7,6.3,4.9,10.9,9.3,15.4c3.6,3.6,5.9,8.5,9,13.3c-2.4,1.3-4.8,2.5-7.2,3.8c-5.5,2.8-6.5,4.4-4.3,10.2c2.4,6.4,0.2,7.8-5,10
		c-8.7,3.8-18,3-26.9,4.9c-10.4,2.3-14.1,7.9-13.6,17.2c0.2,3.5,2.5,6.9,3.9,10.3c1,2.4,2.3,4.6,3.8,7.4c-8.6,0-16.6-0.1-24.6,0.1
		c-1.3,0-3.1,0.9-3.9,1.9c-2.3,3.1-4.1,6.6-6.5,9.6c-0.8,1-2.8,1.1-4.2,1.4c-6.7,1.2-13,2.2-19.9-0.8c-9.3-4.1-19.3-6.8-28.8-10.3
		c-14.9-5.5-27.3-15.1-39.9-24.4c-0.7-0.5-1.3-1.4-2-1.4c-8.8,0.4-13.6-6.3-19.6-10.9c-4.5-3.5-6.9-8.4-6.9-13.9
		c0-5.3-2.9-8-6.8-10.6c-5-3.3-9.8-6.9-14.1-10.9c-1.9-1.8-2.8-5-3.7-7.7c-1.9-6-3.4-12.2-5.1-18.2c-0.3-0.9-0.6-2.3-1.2-2.5
		c-5.2-1.9-6.1-6.8-7.7-11c-2.4-6.5-4-13.3-6.3-19.9c-2-5.7-5.6-10.6-11-13.5c-5.4-3-8.1-7.9-9.5-13.1
		c-3.4-12.8-11.6-21.8-21.5-29.6c-5.5-4.3-11.3-8.4-17.2-12.1c-2.7-1.7-6-3-9.1-3c-4.5,0-6.5-2.4-8.3-5.7
		c-3.3-6.2-6.5-12.4-10.2-18.3c-1-1.6-3.5-3-5.4-3.1c-10.7-0.3-21.3-0.4-32,0c-5.3,0.2-10.3,1.7-15.2,4.5
		c-5.8,3.2-12.6,5.4-19.2,6.2c-11.9,1.5-24,2.3-36.1,2c-8.5-0.2-17.7,1.5-25.5-3.9c-0.6-0.4-1.6-0.9-2.3-0.7
		c-16.2,3-32.4-0.2-48.4-1.5c-7.3-0.6-14.6-5.1-21.3-8.9c-10.3-5.8-21.4-8.6-33-9.7c-4.8-0.4-9.5-0.6-14.3-1.1
		c-1.1-0.1-2.7-1.3-3-2.4C1805.7,481.3,1800.4,463,1795,444.1z"/>
	<path id="_x32_559" class="st0" d="M2369.6,1403.4c-5.3-7.7-4.9-16.8-5.7-25.6c-0.6-6.5-1.2-13.1-2.1-19.6
		c-0.7-5.5-4.8-8.9-8.6-12.3c-10.4-9.5-22.6-14-36.9-12.9c-8.7,0.6-17.5,0.4-25.8-3c-2.4-0.9-4.9-1.9-6.7-3.7
		c-4.7-4.7-10.6-8.3-13-15.1c-2-5.4-2.6-10.5-0.7-16.2c1.5-4.6,1.3-9.7,1.7-14.6c0.7-8.9,1.2-17.7,2.1-26.6c0.2-2.3,2.8-4.6,2.6-6.7
		c-0.5-8.5-0.7-17.2-2.9-25.3c-1.1-4.1-5.9-7.4-9.3-10.7c-13.8-13.5-27.7-26.8-42-40.5c13.8-9.7,25.7-20.6,34.5-34.4
		c1.4-2.1,2-5.7,1.3-8.1c-4.1-15-9.1-29.7-13-44.8c-1.4-5.5-0.9-11.7-0.3-17.5c0.6-6.4-3.1-10.8-6.7-14.7c-6.2-6.7-8.4-14-3.8-21.8
		c5.5-9.2,3.9-18.7,2-27.8c-2.7-12.8-6.8-25.4-10.8-38c-2.6-8-2.1-15.9-0.9-23.9c0.6-4.5-0.5-8.2-2.7-12.1
		c-3.4-6.2-6.3-12.7-9.1-19.2c-1.2-2.8-3-2.5-5.2-1.6c-8.6,3.6-17.1,7.2-25.7,10.8c-17.5,7.4-35.1,14.9-52.1,22.2
		c-2.9-4.6-5.2-9.3-8.5-13.3c-3.7-4.4-4.9-9.1-4.4-14.9c7.5-1.7,11.5-7.5,14.8-13.7c6.4-11.7,15.7-18.8,29.3-18.7
		c6.9,0,12-2.9,16-8.1c2.7-3.5,4.6-7.5,7.2-11.1c6.5-9,11.8-12.3,20.3-5c4.4,3.8,9.9,5.5,15.6,5.9c1.8,0.1,4-0.5,5.5-1.5
		c9-6.3,17.7-12.9,26.6-19.2c5.9-4.2,11.7-8.7,18.1-11.8c4.5-2.2,10-2.7,15.1-3.2c4.6-0.5,9.4,0.1,14-0.1c1.5-0.1,3-1.1,4.4-1.9
		c3.7-2.3,7.3-4.8,11.5-7.6c3.2,6.8,6.1,13.4,9.3,19.8c3,5.9,4.4,11.8-0.4,18.2c0.6,0.2,1.1,0.5,1.7,0.7c2.1-0.4,4.5-0.3,6.4-1.2
		c15-6.9,29.9-14.1,44.8-21.1c3.2-1.5,6.5-3,10.4-4.7c2,2.5,4.2,5,6.1,7.8c17.4,25.4,34.7,51,52.2,76.4
		c18.6,27.1,37.5,53.9,55.8,81.1c18.8,28,37.8,56,55.4,84.8c6.9,11.3,17,18.8,25,28.5c4.2,5.1,8.1,10.6,12.1,15.9
		c-0.2,0.6-0.5,1.2-0.7,1.8c-8.4,1.1-16.9,2.3-25.3,3.5c-9.1,1.3-18.2,2.4-27.1,4.2c-2.7,0.5-5.3,2.9-7.3,5.1
		c-3.8,4.1-7.3,8.4-13.2,9.8c-7.1,1.6-14.2,3.2-21.3,5c-6.7,1.7-11.7,5.3-14.9,11.7c-3.8,7.5-7.5,15-6.6,23.8
		c0.4,4.1,1.8,8.1,1.8,12.1c0.1,6.3,0.1,12.8-1.1,19c-0.8,4.3-3.2,8.5-5.8,12.1c-6.1,8.3-12.6,16.4-19.4,24.1
		c-3.1,3.6-7.5,6.1-11.1,9.3c-8.4,7.5-11.1,17.7-13.6,28.1c-1.3,5.5-3.2,11-5.7,16c-2.6,5.4-2.7,10.6-1.3,16.9
		c-6.7,2.5-13.4,5.2-20.3,7.6c-9.3,3.3-12.9,11.2-8.6,20.1c1.4,2.8,1.2,4.9-0.1,7.6c-3.7,7.9-6.8,16.2-10.9,23.9
		C2378.4,1390.3,2373.8,1396.8,2369.6,1403.4z"/>
	<path id="_x32_564" class="st0" d="M1856.5,670.5c-14.2-53.6-28.5-107.6-43-162.3c10.9-0.7,21-0.1,30.5,3.5
		c10,3.8,19.3,9.1,29.2,13.2c4.3,1.8,9.1,2.5,13.8,3c6.6,0.7,13.2,0.9,19.8,1.1c8,0.2,16,0.1,24.1,0.1c0.5,0,0.9,0.3,1.4,0.5
		c7.7,4.5,16.3,3.3,24.6,3.4c7.5,0,15,0.5,22.5-0.1c10.2-0.9,20.4-2.5,30.6-4c1.2-0.2,2.5-0.9,3.5-1.8c7.2-6.1,15.7-6.6,24.6-6.2
		c6.3,0.3,12.7,0.3,19,0c3.8-0.2,6.2,0.9,7.8,4.5c2.3,4.9,4.8,9.6,7.5,14.3c2.2,3.8,4.2,7.5,9.8,7.5c7.8,0.1,13.6,5.1,19.2,9.8
		c7,5.9,14.1,12,19.8,19.1c4,5,6.6,11.6,8,17.9c1,4.9,3.7,8.1,6.9,10.6c6.5,5.2,10.7,11.4,13.1,19.4c2,6.8,5.9,13,8.8,19.5
		c0.9,1.9,1.4,3.9,2,5.9c0.3,0.9,0.2,2.3,0.8,2.7c5,3.5,4.8,9.2,6.2,14.2c1.5,5.4,3.8,9.9,8.4,13.8c7.5,6.3,17.1,10.5,20.9,21.2
		c2.8,8,7.7,15.3,15.4,19.9c1.1,0.7,2.3,1.6,3.5,1.7c7.3,0.5,12.5,5,17.9,9.1c4.9,3.7,9.8,7.4,14.1,10.6c-1.4,2.2-3.4,4.1-4,6.4
		c-1.4,5.3-1.6,11-3.3,16.3c-1.9,5.8-0.2,9.7,4.2,13.4c4,3.5,7.4,7.7,11.4,11.2c3.4,3,7.1,5.7,10.8,8.2c4.4,2.9,5.1,7.1,1.6,13.2
		c-1,1.7-2.4,3.1-3.4,4.8c-0.8,1.4-1.9,3.4-1.4,4.5c2.6,6.4-2.4,8.1-6.2,9.2c-10.2,3.1-17.4,10.9-26.2,16c-4.9,2.9-9.4,6.4-13.3,9
		c-6.7-3.4-12.3-6.9-18.3-9c-2.7-1-6.7-0.1-9.6,1.2c-8.8,4.1-11.5,13.8-17.6,20.4c-2.6,2.8-6.3,5-10,6.3c-3.6,1.2-7.8,0.7-11.7,1.2
		c-7.2,1-12.8,4.8-17.1,10.5c-2.4,3.2-4.2,7-6.6,10.2c-3.8,5.1-7.2,10-15.3,9.6c-6.5-0.3-13.1,1.5-19.8-0.1
		c-2.6-0.6-3.4-1.8-3.5-4.3c-0.5-9.9-1.2-19.7-2-29.6c-0.3-3.6-9-9.7-13.7-10.4c-6.8-1-10.6,3.1-14,7.6c-2.4,3.2-4.2,6.9-5.8,10.6
		c-1.5,3.4-3.2,5.2-7.3,5c-8.4-0.4-16.8-0.1-25.3-0.1c-1.8-6.4-3.4-11.8-4.9-17.2c-0.9-3.3-2.5-5.5-6-6.9c-9.2-3.6-16-2.4-23.1,4.6
		c-10.3,10.3-24.6,11.3-36.3,2.7c-3.1-2.3-7.2-1.3-11,2.8c-5.8-6.2-9.8-12.9-7.7-21.8c0.5-2.1-5.4-8-6.8-6.9
		c-2.6,2.1-3.4-0.1-4.6-1.3c-5.2-5.4-10.4-10.7-15.2-16.4c-1.4-1.7-2-4.4-2.2-6.7c-0.4-3.6,0.2-7.3-0.1-11
		c-0.9-10.5,4.2-18.8,9.7-27.1c9-13.6,17.9-27.2,26.3-41.2c4.7-7.9,6.6-16.4,0.5-24.9c-0.7-1-0.8-3.1-0.3-4.4
		c2.5-6.8-0.5-13-2.2-19.2c-1.1-4.1-3.1-8-3.6-12.2c-0.5-4.6-2.7-5-6.5-5.1c-13.6-0.1-27.2-0.5-40.8-0.9c-6.4-0.2-12.9-0.7-19.3-0.9
		C1862.9,670,1860.1,670.3,1856.5,670.5z"/>
	<path id="_x32_561" class="st0" d="M2207.4,913c2.1,4.5,4.2,8.9,6.5,13.7c-25.1,17.1-50.5,34.4-76.6,52.2c-0.1-5.5-1.7-6.6-6.3-5.1
		c-4.7,1.6-10,1.5-14.8,2.8c-1.4,0.4-3.2,3.2-3,4.6c0.7,5.2,2.1,10.3,3.6,16.9c-2.4,4.9-9.1,3.2-14.3,3.7c-10.4,1-20.8,0.9-31.3,1.2
		c-11.6,0.4-23.2,0.6-34.8,1c-6.2,0.3-12.5,0.9-18.9,1.4c1.6-10.8,1.6-10.8-4-12.8c-1.7-5.6-1.3-10.5,1.8-15.8
		c1.8-3.2,1.2-7.8,1.8-12.3c4.5-1.6,10.1-3.6,15.5-5.6c2-8.7-2.1-14.6-9-18.5c-3.8-2.1-3-5.2-2.3-7.7c2.4-8.5,3.5-16.6-0.7-25.1
		c-1.4-2.7-0.5-6.5-0.5-9.9c-0.1-2.8,0-5.6,0-8.8c9.5,0,19.6-0.1,29.8,0c3.4,0,5.1-0.8,6.6-4.4c2.1-5.2,5.3-10.2,8.5-14.9
		c3.2-4.7,6.1-4.3,10.7-1c4.2,3,5.7,6.2,5.7,11.5c0,8.4,0.9,16.8,2,25.1c0.2,1.7,2.4,4.2,3.9,4.5c5.5,0.9,11.2,0.9,16.8,1.2
		c2.1,0.1,4.3,0,6.5,0c0.4,1.2,1.3,2.3,1.2,3.2c-1.2,9.2,5.3,15,9.3,22c1.7,2.9,2,6.7,3.3,11.2c3.7-1.3,7.9-2.6,12-4.3
		C2159.9,933.3,2183.6,923.1,2207.4,913z"/>
	<path id="_x32_563" class="st0" d="M2384.3,822.2c-16.4,7.8-32.4,15.3-47.8,22.6c-5.7-12-11.3-23.7-17.5-36.8
		c-3.7,1.8-7.8,3-10.8,5.6c-6.3,5.2-13.5,6.2-21.1,6.5c-6,0.2-12,0.8-18.4,1.3c2.9-5.6,5.6-10.7,8.3-15.8c1.4-2.6,1.4-4.2-1.2-6.7
		c-9.5-8.8-18.6-18.1-27.8-27.3c-0.7-0.7-1.2-2.2-1-3.1c1.5-5.7,3.2-11.4,4.8-17.1c0.5-1.9,1-3.8,1.7-6.5
		c6.7,3.4,13.2,7.1,19.9,10.1c10.2,4.6,20.3,10,31.9,10c5.7,0,11.4-1,17-2c1.7-0.3,3.3-2.1,4.4-3.6c2.3-2.8,4.1-5.9,6.3-8.7
		c0.7-0.9,2.2-1.5,3.3-1.5c6.5-0.1,13-0.1,19.5,0c3.5,0,5.5,3.8,3.6,6.8c-4.7,7.4-7.1,15.3-6.8,24.1c0.2,4.4,1.4,7.9,4.9,10.2
		c6.7,4.3,11.4,10.1,15.6,16.7C2376.7,812,2380.5,816.9,2384.3,822.2z"/>
</g>
</svg>
