<?xml version="1.0" encoding="utf-8"?>
<!-- Generator: Adobe Illustrator 19.0.0, SVG Export Plug-In . SVG Version: 6.00 Build 0)  -->
<svg version="1.1" id="Layer_1" xmlns="http://www.w3.org/2000/svg" xmlns:xlink="http://www.w3.org/1999/xlink" x="0px" y="0px"
	 viewBox="0 0 4000 2100" style="enable-background:new 0 0 4000 2100;" xml:space="preserve">
<style type="text/css">
	.st0{fill:#FFFFFF;}
</style>
<g>
	<path d="M2254.7,1880.3c1,1.8,2.3,4.1,3.9,6.9c-3.9,1.4-7.3,2.5-10.7,3.7c-1.6-2-3.5-3.8-4.4-5.9c-2.8-7.1-8-8.9-15.1-8
		c-6.7,0.8-11.9-2.7-16.3-7.3c-6.6-7-12.6-14.4-19.4-21.2c-4.7-4.7-10.5-8.4-15.5-12.9c-4.3-3.8-9.4-4.2-14.6-4.5
		c-5.7-0.3-11.4,0-17.1-0.1c-7.1-0.1-10.4-5.5-7.2-11.7c5.7-10.9,9.3-22.6,11.4-34.6c0.7-3.8-0.4-7.8-0.9-11.8
		c-0.5-4.7-1.1-9.4-1.9-14.1c-1.3-7.1-5.4-12.7-9.8-18.3c-3.6-4.6-7.9-7.8-13.4-9.1c-8.9-2.2-12.6-10-17.7-16.2
		c-4.5-5.4-10.3-8.2-17.2-9.2c-10.8-1.6-19.5,3.7-28,8.9c-9.7,5.9-19.8,7.5-30.6,5.2c-10.2-2.2-20-0.8-29.4,3.6
		c-4.4,2.1-8.8,4.2-13.4,6.1c-1.6,0.7-3.7,1.6-5.1,1.1c-4.6-1.6-7.6,0.2-11.1,2.9c-5.8,4.5-12,8.4-18.3,12.1
		c-10.3,6.1-21.1,9-32.2,1.9c-5.4-3.4-10.6-7.1-15.4-11.2c-5-4.3-9.8-9.1-14.2-14.1c-9-10.2-19.9-16.4-33.8-16.8
		c-0.1,0.1-0.2,0.4-0.4,0.6c-6.3,7.4-6.3,7.2-15.3,4.6c-9.4-2.7-18.9-4.7-28.4-6.9c-1.9-0.4-4.2-0.6-5.9,0.1
		c-5.6,2.4-10.6,0.5-15.9-1.3c-3-1-6.5-1-9.8-0.8c-3.2,0.2-6.5,0.9-9.5,2.1c-1.7,0.7-3.2,2.6-4,4.3c-1.4,3-2.2,6.4-3.3,9.8
		c-2.5-1.9-2.5-1.9,1.2-14.5c-9.6-1.3-19.1-2.7-28.6-3.7c-10-1.1-19.3,2.2-27.9,6.4c-8.7,4.2-14.6,1-20.4-4.8
		c-3.1-3.1-6.2-6.2-10.9-0.8c-0.8-3.9-1.5-6.9-2.2-10.5c2.3-0.8,4.6-2.2,6.8-2.1c4.3,0.2,6.5-1.6,6.9-5.6c1.1-11.6,4.3-23.2-0.2-35
		c-2-5.2-1.1-11.4-2.4-17c-1.9-8-4.1-16-6.9-23.8c-2.2-6-1.1-11.7-0.8-17.7c0.2-3.5-0.8-6.9-1.1-10.4c-0.2-2.6-1.1-5.7-0.1-7.8
		c7.9-16.8,17.1-32.7,30.9-45.6c7.2-6.7,14.1-13.9,20.3-21.5c2.6-3.2,3.8-7.9,4.4-12.1c0.9-6.5,0.9-13.2,1.1-19.8
		c0.1-5.1,1.3-9.3,6.9-10.8c0.6-0.2,1.1-0.7,1.7-0.9c10.7-3.3,16.7-10.7,19-22.1c-4,0-8-0.2-12.1,0.1c-3.8,0.3-5.7-1.4-6.6-4.9
		c-0.5-2-1.1-4.1-2-6c-3.4-6.6-2.8-12.9,0.5-19.5c1.3-2.6,1.1-6.3,0.4-9.3c-1.6-7.4-3.8-14.7-5.9-22.1c-0.5-1.7-1.1-3.6-2.2-4.9
		c-6.3-6.9-6.2-15.6-6.7-24c-0.3-5.8,0.3-11.7-0.6-17.4c-1.7-10.9-9.1-19-15.4-27.4c-10.2-13.5-17.9-28.4-24.1-44.1
		c-1.8-4.7-4.2-9.2-5.7-14c-1.8-6.2-3.1-12.6-4.3-19c-1.2-6.1-1.6-12.3-3.1-18.3c-0.7-2.7-3-5.1-5-7.3c-1.5-1.7-4.2-2.4-5.4-4.2
		c-4.6-7.1-10.7-7.4-17.9-4.9c-1.4,0.5-3.1,0.1-4.7,0.1c0-0.6-0.1-1.2-0.1-1.8c4-1,8-1.9,13.4-3.2c-9.9-8.3-20.3-12.2-32.5-12.1
		c0-0.4,0-0.8,0.1-1.2c1.8-0.7,3.7-1.4,5.8-2.2c-6.7-11.8-14.4-22.9-26.2-30.3c-11.8-7.5-16.6-18.8-18.6-32
		c-0.3-1.9-1.3-4.2-2.7-5.4c-7.7-6.1-12.6-13.5-11-23.6c0.4-2.6,2.3-6.1,4.6-7.2c6.2-3.2,12.9-5.2,19.3-8c1.9-0.8,4-2.3,4.8-4.1
		c4.5-8.9,7.4-18.3,8.3-28.5c0.3-3.4,2.1-6.8,3.9-9.9c2.9-5,2.4-5.7-2-9.7c-8.3-7.4-18.5-9.4-28.7-12.3c-6.6-1.8-12.3-7.1-18.2-11.1
		c-3.4-2.3-6.2-5.5-9.8-7.4c-2.7-1.5-6.2-1.5-9.4-2.1c-6.5-1.3-13.1-2.5-19.6-4.1c-1.6-0.4-3.2-2-4.3-3.5c-5.4-7.7-6-15.7-2.7-24.6
		c2-5.3,2.8-11.1,3.4-16.7c0.3-2.9-1-6.1-1.8-9c-3.7-12.8-6.6-26-15-36.9c-6.1-7.9-12-16-18.9-23.3c-5-5.3-4.9-11.6-6-17.7
		c-2-10.9-0.6-22.3-5.1-32.9c-3.2-7.6-5.8-15.5-8.5-23.4c-1.3-3.8-2.5-7.4-1.8-11.7c0.4-2.5-1.8-5.6-3.3-8.2
		c-1.4-2.4-3.4-4.4-5.1-6.5c2.3-3.4,4.5-6.7,6.9-10.3c2.8,3.9,5.5,7.6,7.6,10.6c5.3-1.3,10.2-2.7,15.2-3.8c7.6-1.6,13.4-8.1,12.9-16
		c-0.4-6.4,0.7-11.6,6-15.7c1.2-0.9,1.5-4.1,1-5.8c-0.8-2.6-2.5-4.9-4.2-7.1c-9-11.1-12.7-24.1-13.7-38c-0.5-7.3-0.8-14.5-1-21.8
		c-0.1-5.5,1.1-6.6,6.7-6.6c12.5,0,25-0.5,37.5,0.1c15.4,0.8,30.8,2.7,46.2,3.7c8.2,0.5,16.2,0.6,24.1-3.5
		c8.3-4.2,17.4-7.2,26.9-6.3c14.5,1.4,27.7-3.2,40.4-8.8c6.7-2.9,12.1-8.7,19.4-14.1c-2-1.4-3.9-2.5-5.4-3.9
		c-1.4-1.3-3.1-2.8-3.3-4.5c-1.3-8.1-2.7-16.3,4.1-23c0.8-0.8,1.2-2.3,1.3-3.5c0.7-9.2,2-18.4,1.8-27.6c-0.2-8.8-1.5-17.5-6.6-25.2
		c-2.7-4-4.4-8.7-5.9-13.3c-1.2-3.7,0.7-6.4,4.3-8.4c5.6-3,11-6.3,16.3-9.8c1.7-1.1,3.3-2.7,4.3-4.5c4.4-7.5,9.5-14.4,15.4-21
		c7.1-8,11.9-17.8,14.7-28.4c1.1-4.2,3.6-8,5.8-11.8c6.8-11.6,10.5-24,11.2-37.6c0.5-10.3,5.4-19.7,12.2-27.2
		c6-6.6,10.6-13.8,13.4-21.8c4.4-12.6,10.3-24.3,18.3-34.8c6.5-8.5,7.7-18.4,9.9-28.3c1.2-5.3,1.3-11,5.8-15.2
		c3.6-3.4,7.1-6,12.5-3.1c0.2-1.5,0.4-2.5,0.6-3.6c0.7-3.9,1.7-7.3,6.2-9c6.7-2.5,8.2-9.4,10.6-15.1c2.8-6.8,13.2-14.1,20.5-14.8
		c8.9-0.8,17.8-3.2,26.8-3.3c12.9-0.2,24.5-5.5,36.8-7.8c4.6-0.8,7.2,0.8,9.1,4.4c2.1,3.9,4.6,7.8,5.4,12
		c1.7,8.6,7.8,11.6,15.1,12.6c8.8,1.2,17.7,1.8,26.6,2c5.2,0.1,10.4-1.4,15.6-1.7c3.4-0.2,6.9,0.5,10.3,0.8c6,0.6,12.1,1.1,18.1,2.1
		c2.4,0.4,5.4,1.6,6.7,3.4c5.5,7.5,10.4,15.3,15.4,23.2c1.8,2.7,3,5.8,4.6,8.7c2,3.7,4.5,6.4,8.4,8.7c6.8,4,10.9,10.7,12.9,18.7
		c1.5,5.9,3.6,11.8,6.6,17.1c3.1,5.5,4.7,10.4,1.7,16.6c-1.3,2.7-1.7,6.1-1.3,9.1c1.7,16.1-2.6,31.3-5.5,46.9
		c-1.9,10.3-4.8,21.2,0,31.9c0.9,2.1,0.4,5.4-0.7,7.6c-4.8,9.1-10,17.9-15.2,26.8c-2.3,4-4.2,7.8-3.9,12.9c0.3,5.7,4,7.3,7.7,8
		c5,0.9,10.4,0.6,15.5,0.1c4.7-0.4,14.6,2.9,16.9,6.7c2.9,4.8,6.1,9.4,8.1,14.5c3.8,10,6.3,20.5,10.3,30.4
		c3.1,7.8,6.2,16.3,11.7,22.2c7.4,7.8,11.7,16.9,16.2,26.2c0.7,1.4,2.5,2.4,4,3c1.4,0.7,3.1,0.8,4.8,1c3.4,0.5,6.6,0.3,8.8-3
		c5.6-8.4,14.3-12.6,23-16.9c9.2-4.6,18.2-9.5,26.8-15.1c4.4-2.8,8.7-4.7,13.8-3.9c11.1,1.8,22.5,2.5,31.7,10
		c2.4,1.9,4.4,4.4,6.4,6.7c14.4,17,30.1,32.5,49.7,43.6c8.8,5,14.9,12.6,19.1,21.3c5.3,10.9,9,22.6,13.9,33.7
		c2.6,6,5.2,12.9,9.9,17.1c4.5,4.1,11.7,7.1,17.7,7.1c11.1,0,20.3,4.5,30,8.3c5.2,2,10,5,15.1,6.9c7.4,2.7,15.4,4.2,22.6,7.4
		c13.4,5.9,26.5,12.6,39.7,19.2c9.4,4.8,18.6,9.9,27.9,14.9c3.6,2,4.3,5.7,2,10.3c-9.2,18.5-18.5,36.9-27.7,55.4
		c-18.3,36.6-36.6,73.2-55,109.9c2.7,3.2,5.2,6.7,8.2,9.6c3.1,2.9,3.8,6.2,3.8,10.2c0.1,13.8,0.5,27.5,1,41.3
		c0.5,15.2,1,30.4,2.1,45.6c0.8,11.1,2.6,22.1,3.8,33.2c0.8,7.5,1.3,15.1,2.1,22.6c1.3,12.2,2.7,24.5,3.9,36.7
		c0.8,8,1.3,16.1,2.1,24.1c1.2,11.2,2.7,22.5,3.9,33.7c0.8,7.9,1.3,15.7,2.1,23.6c1.2,11.7,2.6,23.5,3.9,35.2
		c0.8,7.5,1.3,15.1,2.1,22.6c1.2,10.4,2.6,20.8,3.8,31.2c0.8,7.2,1.5,14.4,2.2,21.6c0.4,4.2,0.8,8.4,1.3,13.1
		c13.6-7.5,26.6-14.8,39.9-21.8c2-1.1,5.3-1.3,7.2-0.3c1.5,0.8,2.4,4,2.5,6.1c0.3,6.5-0.3,13.1,0.3,19.6c0.3,3.8,2.4,7.4,3.3,11.1
		c0.6,2.9,0.9,6,0.5,8.9c-0.6,4.2-2.1,8.2-2.9,12.3c-0.3,1.9-0.1,4,0.5,5.8c3.9,11.4,8.1,22.6,11.8,34.1c0.8,2.4,0.8,5.9-0.3,8.1
		c-4.4,8.2-3.2,16.5-2,25c1,7,2.1,13.9,2.9,20.9c0.9,8.7,0.9,17.5,2.2,26.1c0.8,5.4,2.6,10.8,5,15.7c3.8,7.4,2.5,14.4,1.1,21.9
		c-0.8,4-0.2,8.7,1.1,12.7c2,5.8,1.7,11.3-0.2,16.8c-3.3,9.9-1.7,18.8,4.5,27c3.7,4.8,4.5,10.4,4.2,16.3c-0.2,3.6-3.3,5.9-6.7,4.4
		c-6.3-2.7-12.6-5.4-18.5-8.9c-8.6-5.1-21.3-4.4-28.7,2.4c-3.7,3.4-7.2,7.1-10.8,10.7c-5.8,6-12.8,9.5-21.3,9.8
		c-6.8,0.2-9.4,3.5-9.1,10c0.5,7.5,3.8,13.8,8.3,19.4c1.3,1.6,4.3,1.9,6.6,2.6c4.5,1.4,9.1,2.4,13.5,4.2c5.5,2.3,6.3,5.9,3,11
		c-1.9,2.9-3.9,5.6-5.5,8.7c-3,5.6-2.7,11.2-0.3,17.2c4.2,10.3,0.2,19.5-4.7,28.5c-0.4,0.7-1.6,1.4-2.4,1.3
		c-6.2-0.4-12.8,0.2-18.5-1.8c-15.3-5.4-30-12.7-45.4-17.7c-14-4.6-27.9-11-43.3-9.3c-8.6,1-17.1,1.9-25.3-1.2
		c-10.7-4-20.9-8.3-28.7-17.9c-6.8-8.4-15.4-15.5-24.1-22c-2.9-2.2-8.6-1.1-13-0.7c-1.1,0.1-3,3.6-2.7,5.2c0.8,4.4,2,9,4.1,12.9
		c3.4,6.5,7.6,12.6,11.4,18.8c2.7,4.3,2.6,8.1-1.7,9.8c-7.7,3-8,9.8-10.1,15.8c-0.4,1.2-0.5,2.6-1.1,3.7c-2.9,5.6-4.2,11.4-3,17.8
		c1.4,8-3.7,14.3-6.3,21.3c-1.4,3.6-4.1,6.8-5.5,10.4c-4,10.1-4.4,20.2,0.6,30.3c2.6,5.2,4.2,10.9,6.4,16.4
		c2.7,6.5,7.8,10.9,13,15.4c10.2,8.7,21.3,5.7,32.3,3.7c10-1.9,19.9-1.2,29.3,1.7c18.1,5.7,36,12.3,53.7,19.3
		c13.8,5.5,27.1,12.1,40.5,18.6c2.5,1.2,5.2,4.1,5.8,6.7c0.3,1.5-2.9,4.5-5.1,5.9c-8.9,5.4-18.2,10.2-28.8,11.6
		c-7.8,1-14.6-2.2-21-6.4c-8.1-5.2-16.3-10.2-24.3-15.5c-6.8-4.5-14.6-5.4-22.3-6.6c-6.2-0.9-12.6-0.7-18.8-1.1
		c-13.3-0.9-24.4,5-35.6,10.9C2272.9,1872.3,2263.9,1876,2254.7,1880.3z M2180.1,1311.2c-10.9-6-21.5-11.8-32-17.7
		c-1.7-0.9-4-3.2-3.8-4.3c0.5-2.2,2.2-4.7,4.1-6.1c2.1-1.6,5-2.3,7.7-3c11.6-2.8,20.8-8.6,27.4-18.9c6.6-10.3,13.3-20.9,12.2-33.4
		c-0.9-10.2-3.3-20.7-7.6-29.9c-12-25.6-25.3-50.7-38.1-75.9c-0.7-1.4-1.6-2.7-2.4-4.1c-4.5,2.9-4.5,3.1-16.3,2.1
		c-11.9-1-23.8-2.3-35.7-4.1c-5-0.7-10.5-1.9-14.6-4.7c-7-4.9-13-11.1-19.5-16.8c-3.1,2.6-6.4,5.1-9.2,7.9
		c-4.3,4.3-19.8,6.3-24.9,2.8c-6.1-4.3-12-9-18.2-13.3c-3.5-2.4-7.4-4.2-10.8-6c-2.6,2.8-6.3,5.9-9,9.7c-5.7,8-12.6,12.8-23,13.9
		c-7.4,0.8-15.7-0.4-22.1,5.5c-3.3,3-7,5.7-10.8,8.1c-7.4,4.6-14.9,9.1-22.8,13c-4.2,2-9.2,2.4-13.8,3.7c-10.7,2.9-21.3,6-32,8.8
		c-1.1,0.3-2.8-0.7-4-1.5c-4.5-3-3.5-8.1-3.9-12.4c-0.9-11.5-1.4-23.1-2.2-34.6c-0.1-1.3-1.8-3.5-2.6-3.4c-12,0.9-24,2.1-36,3.4
		c-8.6,0.9-17.2,2.1-25.9,3.1c-1.1,0.1-2.4,0-3.4-0.5c-7.1-3.4-12.9,0-17.9,4.1c-7.6,6.3-14.5,13.6-21.7,20.4
		c-0.8,0.8-1.8,1.8-2.8,1.9c-3.5,0.2-7-0.1-10.5,0.2c-9.8,0.9-19.6,1.9-29.4,3.1c-9.6,1.2-19.1,2.6-28.7,3.8
		c-8.4,1.1-17.3,1-25.3,3.5c-8.1,2.6-15.4,7.8-23.3,11.9c1.8,2.6,3.5,4.3,4.4,6.4c2.5,6.3,7.3,9.2,13.5,11.5
		c5.8,2.2,11.1,6.1,16.1,10c4.2,3.3,7.7,7.6,11.6,11.3c2.9,2.8,7.1,4.8,8.8,8.1c2.6,5.1,4.5,11,4.9,16.7c0.9,11.5,2.4,22.5,7,33.3
		c8,18.6,16.1,37,29.1,52.9c9,11.1,15.8,23.2,14.3,38.6c-0.6,5.8,0.4,11.9,0.9,17.8c0.2,1.7,1.4,3.2,2.1,4.8
		c2.6,5.6,5.6,11,7.6,16.8c2,5.6,2.9,11.6,4.6,17.4c1.2,3.9,2.3,7.4-0.1,11.3c-4.2,6.8-3.7,13.8,0.5,20.7c1.3,0,3,0.5,4.2-0.1
		c5.3-2.5,9.6,0.6,14,2.3c3,1.1,3.5,3.8,2.5,6.6c-1.2,3.2-2.4,6.4-3.7,9.5c-3.5,8.4-7.9,15.9-17.4,18.8c-7.2,2.2-8.9,7.4-8.6,14.3
		c0.4,12-0.8,23.5-9.9,32.8c-5.9,6-11.1,12.8-17.4,18.4c-6.6,5.9-12.7,11.8-16.7,19.7c-2.2,4.3-5.3,8.3-8,12.3
		c-3.4,5.1-6.5,10.2-3,16.6c0.7,1.2,0.3,3,0.2,4.5c-0.2,5.4-1.5,11-0.4,16.1c2.5,11.6,8.5,22.2,8.7,34.5c0.1,10.8,5.7,21,3.7,32.2
		c-1.6,9.2-2.9,18.4-4.4,28.4c2.4,3.5,6.5,3.1,11.1,1c2.1-0.9,4.4-1.2,6.5-2.1c12.1-5.5,24.7-5.1,37.4-2.9c9.2,1.6,18.4,5.1,27.9,1
		c5.2-2.2,10.1-2.2,15.4,0.7c2.8,1.5,6.7,1.1,10.1,1.2c1.9,0.1,4-1.1,5.8-0.8c12.2,2.4,24.4,5,36.9,7.5c2.1-1.5,5-5.4,7.9-5.3
		c6.4,0.1,12.9,1.7,19,3.7c9.4,3,16.9,9.2,23.6,16.5c5.7,6.3,11.9,12.1,18,18.1c8,7.9,20.9,9.9,30.4,4.4c5.1-2.9,9.7-6.7,14.7-9.7
		c6.5-4,11.7-10.3,21.1-8.7c4.1,0.7,9-3.2,13.5-5c10.3-4.1,20.2-7.7,32.1-5c10.1,2.3,20.8,1.8,30.4-5c8.9-6.4,19.5-10.1,30.4-9.2
		c10,0.8,19.1,5,25.2,13.8c4.5,6.5,9,12.7,17.6,14.3c2.6,0.5,5.4,2.1,7.2,4c8,8.8,16.5,17.4,17.3,30.4c0.2,3.7,1.3,7.4,1.8,11.1
		c0.7,4.5,2.4,9.2,1.6,13.5c-1.8,9.4-4.8,18.5-7.5,27.7c-1,3.2-2.4,6.3-3.7,9.5c6.8,0.5,13.3,0.8,19.7,1.5c3.2,0.3,6.8,0.6,9.4,2.2
		c13.5,8.5,25.3,18.9,34.7,31.9c6.6,9.2,18.2,13.6,29.3,11.2c3.6-0.8,7.6-0.2,11.4-0.2c1.2,0,2.6,0.3,3.6-0.1
		c8-3.7,16.3-6.9,23.9-11.4c12.3-7.4,25.6-10.9,39.7-10.6c8.1,0.1,16.2,2,24.4,2.8c9.7,0.9,18.1,5.3,26.2,10.2
		c7.3,4.4,14,9.5,21.2,14c9.6,6,18.3,1.4,27.7-2.7c-1.9-1-3.1-1.9-4.4-2.4c-20.4-8.7-40.7-17.6-61.2-25.9
		c-10.1-4.1-20.7-7.5-31.8-7.1c-11,0.4-22.1,1.2-33.1,1.9c-11.4,0.7-18.6-7.1-26.3-13.4c-6.8-5.6-10.3-13.7-12.7-22.2
		c-3-10.4-10.3-19.4-8.1-31.6c1.4-8,3.4-15.3,7.1-22.5c3.9-7.5,9.5-14.8,7.4-24.5c-0.8-3.7,0.8-8,1.8-11.9c0.9-3.8,2.2-7.5,3.7-11.1
		c2.6-6.5,1.6-15,9.4-17.6c-4.2-8.8-8.3-17.3-12.3-25.7c-3.6-7.4-1.4-14.5,1.8-21.2c1-2.1,4.4-3.1,6.9-4.2c1.5-0.7,3.4-0.8,5.8-1.3
		c-8.3-6.2-15.8-11.6-23.2-17.3c-1.2-0.9-2.6-2.2-2.9-3.6c-3.2-14,0.5-20.9,12.2-32.2c9.5-9.1,19.5-18.6,17.6-33.8
		c-0.8-6.2-1.2-12.4-5.9-17.7c-3.9-4.4-7-9.8-6.2-16.6c0.3-2.4-1-5.7-2.6-7.6c-3.5-4-7.4-7.8-11.7-11c-12.1-9-18.3-21.2-20.5-35.8
		c-1.4-9.5-2.7-19.1-4-28.6c-0.6-4.7-3.6-6.8-7.6-8.6c-7.8-3.5-16.6-4.3-23.4-10.3c-4.6-4.1-9.6-7.9-15-11
		c-11.5-6.5-15.5-14.8-12.3-29c0.7-3.2,1.5-6.5,1.2-9.7c-0.7-6.3-2.2-12.5-3.3-18.8c-1.3-7.1-0.5-13.5,5.9-18.2
		C2174.4,1316.8,2176.9,1314.1,2180.1,1311.2z M2443.9,1246.7c0-2.4,0.2-4.5,0-6.6c-0.9-9-2-17.9-2.9-26.9
		c-0.8-7.4-1.3-14.7-2.1-22.1c-1.3-12.1-2.6-24.1-3.9-36.2c-0.8-7.4-1.3-14.7-2.1-22.1c-1.2-11.6-2.7-23.1-3.9-34.7
		c-0.8-8-1.3-16.1-2.1-24.1c-1.5-14-3.6-28-4.8-42c-1.1-13.7-1.6-27.4-2.1-41.1c-0.5-14.8-0.9-29.5-1-44.3c0-7.7-2.9-13.5-9.4-17.7
		c-4.7-3.1-5.4-6.2-2.9-11.2c15.3-30.6,30.6-61.2,45.9-91.9c12.2-24.4,24.2-48.8,36.4-73.4c-8.2-4.6-15.8-9-23.5-13.2
		c-6.5-3.5-13-6.8-19.7-9.8c-8-3.6-16.1-7-24.3-10.1c-5.4-2.1-11.2-3.2-16.6-5.4c-7.8-3.2-15.3-7.2-23.1-10.4
		c-4.9-2-10.2-3.9-15.4-4.4c-14.8-1.3-28.3-5.3-35.3-19.5c-5.8-11.8-10.3-24.2-15.1-36.4c-3.6-9.2-8.3-17.9-16.5-23.1
		c-19.3-12.2-36.7-26.5-51.7-43.8c-2.7-3.1-4.8-6.7-7.9-9.2c-6.1-5.1-14-5.7-21.5-7.1c-3.8-0.7-7.1-0.9-11,1.6
		c-9.9,6.3-20.4,11.5-30.7,17.1c-6.1,3.2-12.4,6.1-16.1,12.3c-3.7,6.2-9.1,7.8-15.9,7.1c-4.3-0.5-8.6-0.1-13.3-0.1
		c-0.1,0.7-0.2,1.3-0.4,1.9c-3.4,11-6.5,22.2-14,31.4c-3.2,4-3.6,8.9-2.9,13.6c1.3,8.2,2.7,16.4,4.7,24.5c1.9,7.5,2.2,15.2-1.2,21.6
		c-6.6,12.7-14.9,24.5-22,37c-3.2,5.7-10.2,10.8-4.6,18.9c7.2-0.5,12.1-5.5,17.3-9.9c8.4-6.9,16.7-12.4,28.8-11.5
		c11.3,0.9,22.5,1.7,32.3,6.9c6,3.2,13.2,7.2,14.3,15.1c1.2,8.8-1.5,17.1-5.8,24.9c-1.7,2.9-3,6.1-4,9.4c-2.2,7.3-3.2,15.1-6.3,22
		c-4.4,9.8-4.2,19.2-1.9,29.2c0.5,2.2,0.4,5.4-0.9,7.1c-3.1,4.3-6.9,7.9-10.6,11.8c-1.4,1.5-3.4,2.6-4.4,4.4
		c-4.5,7.8-9.1,15.5-12.9,23.7c-5.7,12.3-11,24.7-16,37.3c-3.3,8.2-8.6,15.9-7.3,25.6c0.6,4.5,0.2,9.4-1,13.7
		c-1.6,5.7,1.4,9.2,3.8,13.8c6.1-4.5,11.6-8.9,17.4-12.8c1.9-1.3,4.6-1.4,6.9-2.1c0,2.3,0.5,4.7-0.1,6.8
		c-4.6,13.9-9.5,27.7-14.2,41.6c-2.7,8-6.4,16-7.2,24.2c-1.2,12.4-0.3,25-0.4,37.5c0,2.8,1.1,3.5,3.8,4.5c8.3,3,16.6,6.6,24.4,10.7
		c3.6,1.9,5.7,6.6,9.3,8.5c3,1.6,2.7,3,2.2,5.3c-0.7,3-1,6.2-2.1,9c-1.8,4.4-4.2,8.5-6.2,12.4c1.3,2.2,2.7,4.2,3.8,6.4
		c11.6,22.7,23.2,45.5,34.9,68.2c1,2,3.4,3.4,3.9,5.5c1.9,7.7,3.6,15.6,4.9,23.4c0.7,4.8,1.1,9.8,0.5,14.6
		c-1.3,10.8-6.5,19.9-12.6,28.8c-5.4,8-11.6,14.5-21.2,17.2c-3.9,1.1-7.8,2.3-11.5,3.9c-2.3,1-4.2,3.1-6.5,4.9
		c12.8,7.1,24.6,13.6,36.1,19.9c13.7-9.8,27.1-19.2,44-21.1c4.2-0.5,9.2-0.6,12.7,1.3c6.2,3.4,11.9,8.1,17.2,12.9
		c7.2,6.5,16.5,5.9,21.8-1.9c0.4-0.6,0.6-1.5,0.8-2.3c2.8-10.3,10.5-16.2,19-21.4c8.9-5.4,17.9-10.8,27-15.9
		c4.7-2.6,9.5-5.3,14.7-6.7c7-1.9,12,2.7,16.3,7.6c5.7,6.4,12.4,8.5,20.5,5.6c2.2-0.8,4.8-1.3,6.4-2.8c4.9-4.4,9.5-9,13.9-13.9
		c3.3-3.6,5.8-3,8.5,0.4c2.8,3.6,5.6,7.3,8.6,10.8c0.5,0.6,2.2,1.3,2.6,1c4.2-3.4,8.3-7.1,12.5-10.6c1.7-1.4,3.5-3.2,5.5-3.8
		C2437.4,1247.2,2440.6,1247.2,2443.9,1246.7z M1894.7,378.4c-11.8-2.6-22.4-5-33-7.4c-1.5-0.3-3.4-1-4.6-0.4
		c-8.5,3.8-16.8,7.9-25.1,12c-4.4,2.1-8.7,6.1-13.1,6.1c-8.5,0-17.4,0.3-25.3-4.4c-6.8-4-13.9-7.2-20.8-11c-3-1.6-5.6-1.4-7.4,1.1
		c-5.4,7.6-10.1,15.7-10.2,25.4c-0.2,12.1-4.4,22.9-9.7,33.5c-3.4,6.9-6.6,13.8-9.4,20.9c-4.5,11.2-10.4,21.4-18.7,30.2
		c-3.6,3.9-6.1,8.9-9.3,13.2c-2.5,3.3-4.9,6.8-8.1,9.3c-4.6,3.8-9.8,6.8-15.2,10.4c2,4.2,3.9,8.7,6.3,13c5.3,9.3,4.9,19.4,4.5,29.6
		c-0.3,7.5-0.5,15-0.6,22.5c-0.1,3.8,0.4,7.3-3.5,10c-1.9,1.3-2.7,4.6-3.4,7.2c-1.3,4.4,1.8,6.9,4.6,9.7c5.2,5.1,6.1,12.2,1.4,16
		c-6.8,5.6-13.5,11.8-21.3,15.5c-14.7,7.1-30.2,12.6-47.2,11.2c-8.1-0.7-15.7,1.6-22.7,5.2c-5.5,2.8-10.9,4.3-17,3.8
		c-6.3-0.5-12.6-0.7-18.9-1c-3.6-0.2-7.2-0.5-11.6-0.7c2.9,5,5.7,9,7.6,13.4c4.2,9.5,8.9,18.9,11.6,28.8c1.9,7,6.7,11,10.6,16.1
		c0.3,0.4,1.2,0.4,1.9,0.4c8.9-0.5,16,3.3,22.6,8.9c9.5,8.1,18.5,16.6,24.2,28c7,13.9,13.6,27.9,22.9,40.8c9.8,13.7,20,26.8,32.5,38
		c4.7,4.2,10,8,15.5,11.2c8.8,5.1,18.7,6.4,28.7,7.3c2.3,0.2,5,1.1,6.5,2.6c6.1,5.9,12.2,11.9,17.5,18.6
		c5.6,6.9,11.8,13.7,14.3,22.6c2.6,9.1,5.1,18.1,7.6,27.2c0.2,0.6,0.2,1.2,0,1.8c-1.9,7.3-4.8,9.1-12.3,8.2
		c-1.3-0.2-2.6,0.1-4.1,0.2c-0.6,3.1-1.2,5.9-1.6,8.8c-1.2,7.6-2.4,15.2-3.5,22.8c-0.4,2.8-0.1,4.8,3.8,5.4
		c15.8,2.3,31.5,5.3,47.3,7.8c8.5,1.3,17.1,2.7,23.3,9.3c3.6,3.8,6.4,4.2,10.2,0.9c0.9-0.8,2.2-1.4,3.5-2.2c3,2.3,6.5,4.1,8.9,6.9
		c3,3.6,5.5,7.7,7.7,11.9c1.8,3.4,3.2,3,5.9,1.1c15.4-10.7,30.9-21.3,46.6-31.6c5.5-3.6,11.5-6.4,18.3-2.4c4.1,2.4,7.8,0.5,11-2.1
		c-1.1-3.3-2.5-6.3-2.9-9.5c-0.6-4.5-1.8-9.6-0.4-13.6c2.1-6,6.3-11.3,9.7-16.8c2.2-3.5,4-7.4,6.9-10c5.5-5.1,9.6-10.4,8.1-18.5
		c-0.1-0.7,0.3-1.6,0.5-2.4c2.8-9.5,9.9-16.3,15.3-24.1c2.9-4.2,4.3-17,1.9-21.6c-7.6-14.1-18.7-25.3-29.6-36.8
		c-3.4-3.5-6.3-8.1-7.9-12.7c-3.2-9-4.4-18.2-2.5-28.2c2.5-13.3,8.3-22.7,20.9-28c8.6-3.6,17.4-6.9,24-14.5
		c13-14.8,18.6-32.5,20.2-51.4c1.6-17.9-4.2-34-15.6-48.3c-5.9-7.4-9.1-16.2-6.4-26.4c1.4-5.3-0.3-10.7-4.1-14.7
		c-10.7-11.1-12.1-27.3-21.7-39c-0.1-0.1,0-0.3-0.1-0.5c-4.4-15.5-10.9-30-20.9-42.7c-5.1-6.4-8.4-13.6-9.6-21.6
		c-0.7-4.5,0.1-9.4-1.1-13.8c-4.1-14.7-8.6-29.3-13.4-43.8c-1.5-4.7,0.4-7.4,3.4-10.1c1-0.9,2.1-1.6,3.3-2.6
		c-8.7-3.5-17.1-7.3-25.8-10.2c-4.1-1.3-4-3.6-3.8-6.6C1893.6,394,1894.1,386.4,1894.7,378.4z M1997,1080.9c5,2.6,9.5,4.8,13.8,7.1
		c1.2,0.7,2.4,1.6,3.5,2.5c5.5,4.3,11.1,8.6,16.6,12.9c0.5,0.4,1.3,0.7,1.8,0.5c7.5-1.6,15.9-0.2,21.5-7.5c1.3-1.6,3.1-3.2,4.9-4
		c1.8-0.8,4.9-1.5,6.1-0.6c4.6,3.9,8.4,8.6,12.9,12.6c2.7,2.5,5.9,5.1,9.3,6.1c16.6,4.7,33.8,6.3,51,7.4c1.6,0.1,3.2-0.5,4.7-1
		c5.8-2,6.6-7.8,9-12.3c4.8-9,3-14.2-5-20.3c-7.8-5.9-16.7-8.6-25.8-11.3c-4.3-1.3-5.5-3.3-5.4-7.6c0.3-12.3,0-24.7,0.2-37
		c0-2.6,0.4-5.3,1.1-7.7c2.3-7.3,4.8-14.5,7.3-21.8c4.5-13.2,9.1-26.3,14.1-40.9c-7.1,5.1-12.8,9.5-18.8,13.4
		c-1.5,1-5.5,1.2-5.9,0.5c-2.5-4.5-6.3-8.7-4.9-14.6c0.6-2.7,0.8-5.5,1-8.2c0.7-9.4,0.5-18.8,5.9-27.3c2.9-4.6,4-10.3,6.2-15.4
		c9.2-22.1,17.4-44.8,35.6-61.8c3.5-3.2,6.5-6.9,4.7-13.3c-2.4-8.5-2.7-17.5,1.6-26c1.6-3.2,2.1-6.8,3.1-10.2
		c2.4-7.6,4.6-15.2,7.2-22.7c1.6-4.7,4.1-9.2,5.7-13.9c4.1-12-2.1-17.9-13.5-23.7c-11.7-6-24.4-6.2-37.1-5.7c-2.8,0.1-5.9,1-8.3,2.5
		c-4.7,3-8.7,7-13.3,10c-5.1,3.3-10.6,6.1-16.1,9c-0.7,0.4-2.4,0-3-0.6c-2.1-2-3-12-1.5-14.5c7.7-12.5,15.4-25,23.2-37.4
		c4.3-6.9,7.7-14.3,6.4-22.6c-1.4-9-4-17.8-5.4-26.8c-1-6.4-1.4-12.8,2.9-18.9c4.8-6.8,9.8-13.9,11-22.6c0.5-3.9,2.2-8,1.4-11.6
		c-1-4.8-3.8-9.3-6-13.9c-1.7-3.7-3-8-5.7-10.7c-10.5-10.3-17.2-22.4-21.3-36.4c-3.6-12.1-5.5-25-14-35.1c-2.1-2.6-5.9-4.7-9.2-5.2
		c-4.5-0.7-9.4,1.2-13.9,0.5c-15.8-2.4-23.4-12.1-19.9-28.2c1.8-8.3,8.1-14,11.9-21.1c3.8-7.2,10.2-13.8,5.2-23
		c-0.2-0.4-0.1-1-0.1-1.5c0.7-9.4,0-19.1,2.4-28c4.5-16.9,6.5-33.9,5.7-51.3c-0.1-1.9,0-4.4,1.1-5.6c2.5-2.9,0.7-5-0.3-7.4
		c-2.7-6.7-5.7-13.4-8.1-20.2c-2-5.7-4.5-10.5-10.3-13.4c-2.7-1.3-5.5-3.7-7-6.3c-4.7-8.1-8.4-16.7-13.1-24.7
		c-3.4-5.7-7.4-11.2-15.5-10.1c-0.9,0.1-1.9-0.4-2.9-0.4c-7.3-0.2-14.7-0.5-22-0.6c-3.2,0-6.5,0.8-9.7,0.6
		c-4.9-0.3-9.8-1.4-14.7-1.5c-9.3-0.2-18.2-1.7-26.9-5c-4-1.5-6.5-3.8-7.9-7.9c-2-5.9-4.7-11.6-7-17.3c-5.8,1.9-10.6,3.9-15.7,5
		c-5.1,1.1-10.3,1.4-15.5,2.1c-8.9,1.3-17.8,3-26.7,3.9c-9.6,0.9-14.5,4.3-18,13.5c-1.3,3.5-2.4,8.2-5.1,9.8
		c-6.7,3.8-9,8.8-9.2,16.1c-0.1,3.5-3.4,5.3-7.4,4.4c-8.6-2.1-8.6-2.1-10.8,6.5c-0.2,0.8-0.2,1.6-0.4,2.4
		c-2.1,8.5-2.1,17.5-7.2,25.1c-4.4,6.5-9.2,12.8-12.7,19.7c-6.3,12.6-11.8,25.6-18.1,39.6c11.1,4.9,21.9,10.8,33.5,14.3
		c5.8,1.8,12.8,3.5,19.5-0.6c8.8-5.3,18.1-9.7,27.3-14.3c2.4-1.2,5.5-2.7,7.9-2.2c11.7,2.3,23.2,5.1,34.7,7.9
		c1.1,0.3,2.7,1.6,2.8,2.5c0.4,5.5,1.4,11.2,0.5,16.6c-1.6,9.7-2.1,9.6,6.7,13.2c1.4,0.6,2.7,1.1,4.1,1.6c6.6,2.6,13.2,5.3,20.6,8.2
		c-2.5,2-4.3,3.5-6.2,5c-3.2,2.5-4.9,5.2-3.1,9.6c2.3,5.5,4.1,11.3,5.7,17.1c3.3,11.9,8.6,23.2,8.2,36.1c-0.2,8,3.2,15.4,8.3,22
		c8.5,11,15.4,22.9,19.6,36.4c1.9,6.1,5.2,11.8,7.9,17.7c2.3,4.8,4.6,9.6,7,14.4c1.9,3.7,3.6,7.7,6.1,11c4.8,6.3,9.5,12.7,7.6,20.9
		c-2.3,9.8,0.9,18,6.5,25.1c10.4,13.3,16,28,15.6,44.8c-0.1,5.4-1.1,10.7-2,16.1c-1.8,10.6-5,20.6-10.7,30
		c-7.8,13-18.7,21.4-32.6,26.6c-7.4,2.8-14.4,6.8-16.7,15.3c-2,7.5-5.2,15.4-4.4,22.8c1.3,11.8,5.8,22.8,15.3,31.4
		c7.5,6.8,13.6,15.2,20.3,22.9c6.8,7.9,7.9,17.4,6.8,27.3c-0.2,1.5-0.9,3.1-1.9,4.4c-2.3,3.2-5.2,6-7.1,9.4
		c-3.3,5.7-9.7,10.1-9.3,17.3c0.4,9.2-3.3,15.8-10.2,21.2c-0.3,0.3-0.3,0.9-0.6,1.3c-5.1,8.1-10.2,16.3-15.2,24.5
		c-0.4,0.7-0.6,1.9-0.4,2.7c1.4,5.8,2.9,11.6,4.2,17.5c0.3,1.3,0.2,3.1-0.5,4.1c-2.3,3-9.7,4.6-13.1,2.7c-5.5-3.1-10.5-1.7-15.2,1.2
		c-4.6,2.8-8.9,6.1-13.4,9.1c-12.8,8.7-25.5,17.4-38.4,26.2c1.5,2.4,2.7,4.6,4.1,6.6c6.7,9.5,10.2,21.4,20.1,28.6
		c1.4,1,3,1.9,4.6,2.4c6,1.7,12.1,3.1,19.3,4.9c-2.2,3.2-3.6,6.8-6.2,8.5c-7.1,4.7-14.6,8.5-22.1,12.7c-0.8,0.5-1.8,0.8-2.7,0.9
		c-6.6,0.4-13.2,0.8-19.8,1c-7.1,0.2-8.9,2.3-8.2,9.4c1.8,17.8,3.4,35.7,5,53.5c0.4,4.2,2.3,5.6,6.5,4.4c6.3-1.8,12.6-3.4,18.8-5.3
		c15.1-4.6,30.9-7.3,43.9-17.8c10.7-8.6,21.8-16.7,37.1-15.4c7.8,0.7,13.3-4.7,18-10.5C1989.4,1090.2,1993.5,1085.2,1997,1080.9z
		 M2414.8,1267.4c-4.9-5.8-9.5-11.1-14.6-17.2c-2.5,2.8-4.5,5.3-6.7,7.6c-2.1,2.3-4.3,4.4-6.4,6.6c-2.9,3.1-5.8,6.3-10.6,6.3
		c-4.3,0-8.9,1-12.8-0.2c-3.5-1-6.5-4.3-9.4-6.9c-9.1-8.3-11.4-8.9-22.5-2.9c-9.5,5.1-18.5,11-27.9,16.2c-9.8,5.5-18.9,11-22.2,23.1
		c-2.1,7.6-8.4,9.9-16.5,9c-5.7-0.6-9.9-3.1-14-7.1c-4.4-4.3-9.4-9.4-15-10.6c-9.3-2.1-18.9,0.2-27.6,4.7
		c-11.5,5.9-22.1,13.3-31.9,21.7c-3.8,3.3-8.4,6.5-8.6,12.1c-0.1,4,0.7,8.1,1.4,12.2c1.5,9,3.6,17.7,0.7,27.1
		c-2,6.2-0.8,13,5.1,17.5c7.2,5.6,14.5,11.1,22.1,16.2c3.9,2.7,8.4,4.6,12.8,6.6c4,1.8,8.5,2.6,12.2,4.8c2.7,1.6,5.6,4.5,6.3,7.3
		c2,9.1,3,18.3,4.4,27.5c0.6,4.2,0.8,8.5,2,12.5c3.6,12.3,11.7,21.1,22,28.4c7.3,5.1,12.3,12.2,12.1,21.9c0,2.1,0.9,4.5,2,6.3
		c2,3.3,5.9,6.1,6.6,9.6c1.5,8.4,1.7,17,2.2,25.5c0.1,1.3-1.1,2.7-1.8,3.9c-6.4,10.6-15.1,19-23.6,27.8c-8.1,8.4-7.3,20.4,1.2,26.9
		c2.8,2.2,5.5,4.8,8.6,6.4c7.1,3.6,11.8,11.9,21.3,10.8c0.9-0.1,2,1,2.9,1.7c8.7,7.6,17.8,14.8,25.8,23.1
		c5.1,5.3,10.2,10.1,16.7,13.3c7.4,3.6,14.7,6.5,23.4,4.8c6.4-1.2,13.5-2.3,19.7-0.9c20.3,4.7,39.8,11.9,59,20.1
		c8.6,3.7,17.7,6.5,26.7,9.3c1.4,0.4,4.8-1,5-2c0.8-4.3,2.3-9.4,0.8-13.1c-4.7-11.5-1.9-21.4,4.3-31.6c-2.5-0.7-5-1.2-7.4-2.1
		c-3.8-1.4-9-1.9-10.9-4.6c-4.8-6.9-10.8-13.6-11.3-22.8c-0.2-4.6-1.7-9.3-0.9-13.7c1.1-6.2,11.5-13,18.1-12.7
		c5.7,0.3,10.3-2.3,14.3-5.5c4.7-3.8,8.6-8.5,13-12.7c8.2-7.9,18-10.3,28.9-7.8c5.8,1.3,11.3,3.6,17,5.4c-7.7-9.3-7.5-19.8-4.8-31.1
		c1.2-4.9,1.3-10.7-0.2-15.4c-1.9-6.1-1.2-11.5,0-17.3c0.7-3.5,1.5-7.9,0-10.8c-6.6-13.5-8.4-27.7-8.8-42.4
		c-0.2-8.1-1.5-16.3-2.9-24.4c-1.7-10.2-2.7-20.3,1.9-30.1c0.7-1.4,0.5-3.5,0-5.1c-2.6-7.5-5-15.2-8.2-22.4
		c-4-8.8-6.7-17.6-2.3-26.8c2.3-4.8,1.7-9.1-0.3-13.6c-1-2.3-1.5-4.9-2-7.5c-0.8-4.1-1.5-8.2-2.3-12.9c-6,3.2-11.4,6.2-16.9,9.1
		c-7.5,3.9-15,7.9-22.6,11.7c-3.5,1.7-5.8-0.6-7-3.3c-1-2.1-0.9-4.8-1.2-7.2c-0.7-7.9-1.3-15.7-2.1-23.6
		c-1.2-11.6-2.6-23.1-3.9-34.7c-0.8-6.5-1.6-12.9-2.6-20.8c-4.9,1.9-11,2.3-13,5.4C2427.1,1260.6,2420.3,1262.8,2414.8,1267.4z
		 M1495.6,656.5c0.6,5.1,1.4,9,1.4,13c0,13.8,4.3,26.2,12.4,37.3c1.3,1.7,2.7,3.3,3.9,5.1c5.5,8.4,5,14.5-2,21.2
		c-2.5,2.4-3.6,4.8-3.4,8.2c0.2,3.6,1,8.2-0.8,10.6c-6.1,8.2-12.1,16.5-24.6,16.4c-8.7,0-12.3,7-9.4,15.3c2.9,8.5,5.9,16.9,9.4,25.2
		c4.3,10.2,2.6,21.1,4.6,31.5c0.9,4.7,1.5,9.9,3.9,13.8c3.4,5.5,8.6,9.9,12.6,15.1c7.4,9.5,14.4,19.4,18.1,31.1
		c2.2,6.8,4.3,13.7,6.2,20.6c0.8,3,1.5,6.3,1.1,9.3c-1.3,8.4-3.1,16.6-4.9,24.9c-1.2,5.5,1.8,10.8,7.3,12c5.4,1.2,10.9,1.9,16.3,3
		c3.2,0.6,6.6,1.1,9.3,2.7c4,2.5,7.3,6.1,11.2,8.8c5.6,3.8,10.4,9,17.7,9.9c12.4,1.5,22.7,7.3,32,15.5c3.8,3.3,5.9,10.8,3.6,15.2
		c-1.6,3.2-3.7,6.3-4.3,9.7c-2.2,12.2-4.9,24.3-11.2,35.1c-1.2,2.1-3.6,4-6,5c-6.6,2.6-13.4,4.7-19.4,6.8c-2,8.9,2.2,13.7,7.8,18.1
		c2,1.6,3.6,4,4.5,6.4c1,2.5,0.6,5.5,1.2,8.2c1.5,7.1,3.5,13.6,10,18.3c7.8,5.6,14.9,12.2,22.8,18.9c1-0.6,2.9-1.8,4.9-2.8
		c5.4-3,10.5-7.1,16.2-8.6c9.1-2.3,18.7-3,28.1-4.2c8.8-1.2,17.6-2.1,26.4-3.2c10.1-1.2,20.1-2.7,30.2-3.7
		c7.1-0.7,13.6-1.7,18.8-7.7c5.3-6.1,11.6-11.3,17.6-16.8c0.8-0.7,1.9-1.4,2.9-1.5c5.9-0.4,11.7-4.6,17.7-0.3c0.2,0.2,0.6,0,1,0
		c16.5-2.2,33-4.5,49.6-6.7c4.5-0.6,9-0.7,13.9-1.1c-0.3-1.1-0.7-2.4-1-3.8c-1.6-7.7,1.1-13.6,6.8-14.1c5.1-0.5,10.2-1.3,15.3-0.9
		c6.8,0.5,12.6-1.5,18.2-4.9c4.6-2.8,9.3-5.4,13.8-8.3c1.2-0.8,1.8-2.4,2.6-3.5c-0.7-0.6-0.9-1-1.2-1.1c-0.8-0.2-1.7-0.1-2.4-0.3
		c-7.9-1.9-16.4-2.6-21.6-10c-3.6-5.1-7.1-10.3-10.5-15.5c-5.2-8.1-10.4-16.2-15.4-24.4c-3.5-5.7-6.1-12-12.8-15.1
		c-0.8,0.6-1.5,1.3-2.3,1.8c-4.1,2-7.4,3.7-12.1-0.3c-5.9-5.1-12.6-9.1-21.2-10.1c-15.6-1.7-30.9-5-46.4-7.3
		c-8.3-1.2-9.7-2.1-8.7-10.2c1.5-11.3,3.5-22.5,5.2-33.5c4.6,0,8.6,0,12.8,0c2.6-3.7,4.3-7.4,1.3-12.1c-1.4-2.2-1.6-5.3-2.3-7.9
		c-2.5-9.3-3.3-19.3-10.1-27.1c-3.6-4-6.4-8.8-9.9-12.8c-6.9-8-13.1-17.4-26-15.7c-1,0.1-2.2-0.7-3.3-0.9
		c-10.1-1.3-19.4-5.2-27.2-11.3c-8.5-6.5-16.5-13.9-23.7-21.8c-5.6-6.1-9.9-13.4-14.5-20.3c-6.5-9.6-15-17.9-18.9-29.1
		c-5.5-15.8-14.8-28.8-27.1-39.8c-6.2-5.6-12.8-11.1-21.9-10.7c-4,0.2-6.7-1.3-8.9-4.2c-4-5.2-9.5-9.8-8.5-17.5
		c0.1-0.9-0.6-1.8-1-2.7c-5.9-11.8-11.7-23.6-17.9-35.2c-0.9-1.7-3.7-3.2-5.7-3.3c-9.3-0.3-18.7,0-28-0.2
		C1511.7,657.8,1504.2,657.1,1495.6,656.5z"/>
	<path id="_x31_048" class="st0" d="M2180.1,1311.2c-3.2,2.9-5.7,5.6-8.6,7.7c-6.5,4.7-7.2,11.1-5.9,18.2c1.1,6.3,2.6,12.5,3.3,18.8
		c0.3,3.2-0.5,6.5-1.2,9.7c-3.3,14.2,0.8,22.5,12.3,29c5.4,3,10.4,6.9,15,11c6.8,6,15.7,6.8,23.4,10.3c4.1,1.8,7,3.9,7.6,8.6
		c1.2,9.6,2.6,19.1,4,28.6c2.2,14.6,8.3,26.8,20.5,35.8c4.3,3.2,8.2,7,11.7,11c1.7,1.9,2.9,5.2,2.6,7.6c-0.8,6.8,2.3,12.2,6.2,16.6
		c4.7,5.3,5.1,11.5,5.9,17.7c2,15.2-8.1,24.7-17.6,33.8c-11.8,11.3-15.5,18.2-12.2,32.2c0.3,1.4,1.7,2.7,2.9,3.6
		c7.4,5.6,14.9,11.1,23.2,17.3c-2.4,0.5-4.2,0.6-5.8,1.3c-2.5,1.2-5.9,2.2-6.9,4.2c-3.3,6.6-5.4,13.7-1.8,21.2
		c4.1,8.4,8.1,16.9,12.3,25.7c-7.8,2.6-6.8,11.1-9.4,17.6c-1.5,3.6-2.7,7.3-3.7,11.1c-1,3.9-2.6,8.2-1.8,11.9c2,9.8-3.5,17-7.4,24.5
		c-3.8,7.2-5.7,14.5-7.1,22.5c-2.2,12.2,5.1,21.2,8.1,31.6c2.4,8.5,5.8,16.6,12.7,22.2c7.7,6.3,14.9,14.1,26.3,13.4
		c11-0.7,22.1-1.6,33.1-1.9c11.2-0.4,21.7,3,31.8,7.1c20.5,8.3,40.8,17.2,61.2,25.9c1.3,0.6,2.5,1.4,4.4,2.4
		c-9.4,4.1-18.1,8.7-27.7,2.7c-7.2-4.5-13.9-9.7-21.2-14c-8.1-4.9-16.5-9.2-26.2-10.2c-8.2-0.8-16.3-2.7-24.4-2.8
		c-14.1-0.2-27.4,3.3-39.7,10.6c-7.5,4.5-15.9,7.7-23.9,11.4c-1,0.5-2.4,0.1-3.6,0.1c-3.8,0-7.7-0.6-11.4,0.2
		c-11.2,2.3-22.7-2-29.3-11.2c-9.3-13-21.2-23.4-34.7-31.9c-2.6-1.6-6.2-1.9-9.4-2.2c-6.4-0.7-12.8-1-19.7-1.5
		c1.2-3.1,2.7-6.2,3.7-9.5c2.7-9.2,5.7-18.3,7.5-27.7c0.8-4.2-0.9-9-1.6-13.5c-0.6-3.7-1.6-7.4-1.8-11.1c-0.8-13-9.3-21.6-17.3-30.4
		c-1.8-2-4.6-3.6-7.2-4c-8.6-1.6-13.2-7.8-17.6-14.3c-6.1-8.8-15.2-13.1-25.2-13.8c-11-0.8-21.5,2.9-30.4,9.2
		c-9.6,6.9-20.3,7.3-30.4,5c-11.9-2.7-21.8,1-32.1,5c-4.5,1.8-9.4,5.7-13.5,5c-9.5-1.6-14.6,4.7-21.1,8.7c-5,3.1-9.6,6.8-14.7,9.7
		c-9.5,5.5-22.4,3.6-30.4-4.4c-6.1-6-12.3-11.8-18-18.1c-6.7-7.4-14.2-13.5-23.6-16.5c-6.1-2-12.6-3.6-19-3.7
		c-2.9-0.1-5.8,3.8-7.9,5.3c-12.4-2.6-24.6-5.2-36.9-7.5c-1.8-0.3-3.8,0.8-5.8,0.8c-3.4-0.1-7.4,0.3-10.1-1.2
		c-5.3-2.9-10.2-3-15.4-0.7c-9.5,4.1-18.7,0.5-27.9-1c-12.7-2.2-25.3-2.6-37.4,2.9c-2.1,0.9-4.4,1.2-6.5,2.1c-4.5,2-8.7,2.5-11.1-1
		c1.5-10,2.8-19.2,4.4-28.4c2-11.2-3.6-21.4-3.7-32.2c-0.2-12.3-6.1-22.9-8.7-34.5c-1.1-5.1,0.2-10.7,0.4-16.1
		c0.1-1.5,0.4-3.3-0.2-4.5c-3.5-6.4-0.4-11.5,3-16.6c2.7-4.1,5.8-8,8-12.3c4.1-8,10.2-13.9,16.7-19.7c6.3-5.6,11.5-12.4,17.4-18.4
		c9.2-9.2,10.3-20.8,9.9-32.8c-0.2-6.9,1.4-12.1,8.6-14.3c9.4-2.9,13.9-10.4,17.4-18.8c1.3-3.2,2.6-6.3,3.7-9.5
		c1-2.9,0.5-5.5-2.5-6.6c-4.5-1.7-8.7-4.8-14-2.3c-1.2,0.6-2.9,0.1-4.2,0.1c-4.1-6.9-4.6-13.9-0.5-20.7c2.4-3.9,1.2-7.4,0.1-11.3
		c-1.8-5.7-2.6-11.7-4.6-17.4c-2.1-5.8-5.1-11.2-7.6-16.8c-0.7-1.6-2-3.2-2.1-4.8c-0.6-5.9-1.5-11.9-0.9-17.8
		c1.6-15.3-5.3-27.5-14.3-38.6c-12.9-15.9-21.1-34.3-29.1-52.9c-4.7-10.8-6.2-21.8-7-33.3c-0.4-5.7-2.3-11.6-4.9-16.7
		c-1.7-3.3-5.9-5.3-8.8-8.1c-3.9-3.7-7.3-8-11.6-11.3c-5-3.9-10.3-7.8-16.1-10c-6.2-2.3-11-5.2-13.5-11.5c-0.8-2.1-2.5-3.8-4.4-6.4
		c7.9-4.1,15.2-9.3,23.3-11.9c8-2.5,16.8-2.4,25.3-3.5c9.6-1.2,19.1-2.7,28.7-3.8c9.8-1.2,19.6-2.2,29.4-3.1c3.5-0.3,7,0.1,10.5-0.2
		c1-0.1,2-1.1,2.8-1.9c7.2-6.8,14.1-14.1,21.7-20.4c4.9-4.1,10.8-7.5,17.9-4.1c1,0.5,2.3,0.6,3.4,0.5c8.6-1,17.2-2.2,25.9-3.1
		c12-1.3,24-2.4,36-3.4c0.8-0.1,2.5,2.2,2.6,3.4c0.9,11.5,1.3,23.1,2.2,34.6c0.4,4.3-0.6,9.3,3.9,12.4c1.2,0.8,2.8,1.8,4,1.5
		c10.7-2.8,21.3-5.9,32-8.8c4.6-1.3,9.6-1.6,13.8-3.7c7.8-3.8,15.3-8.4,22.8-13c3.8-2.3,7.5-5,10.8-8.1c6.4-5.9,14.8-4.7,22.1-5.5
		c10.3-1.1,17.2-5.9,23-13.9c2.7-3.8,6.4-6.9,9-9.7c3.4,1.9,7.3,3.6,10.8,6c6.2,4.2,12.1,9,18.2,13.3c5.1,3.6,20.6,1.5,24.9-2.8
		c2.9-2.9,6.2-5.3,9.2-7.9c6.4,5.7,12.5,11.9,19.5,16.8c4,2.8,9.6,4,14.6,4.7c11.8,1.8,23.7,3.1,35.7,4.1c11.8,1,11.9,0.8,16.3-2.1
		c0.8,1.4,1.7,2.7,2.4,4.1c12.8,25.3,26.1,50.3,38.1,75.9c4.3,9.2,6.8,19.8,7.6,29.9c1.1,12.5-5.6,23.1-12.2,33.4
		c-6.6,10.3-15.8,16.1-27.4,18.9c-2.7,0.7-5.5,1.4-7.7,3c-1.9,1.4-3.6,3.8-4.1,6.1c-0.2,1.2,2.1,3.4,3.8,4.3
		C2158.6,1299.4,2169.2,1305.2,2180.1,1311.2z"/>
	<path id="_x31_050" class="st0" d="M2443.9,1246.7c-3.3,0.5-6.5,0.5-9.4,1.4c-2,0.7-3.8,2.4-5.5,3.8c-4.2,3.5-8.2,7.2-12.5,10.6
		c-0.4,0.3-2.1-0.3-2.6-1c-3-3.5-5.7-7.2-8.6-10.8c-2.7-3.4-5.2-4-8.5-0.4c-4.4,4.9-9.1,9.5-13.9,13.9c-1.6,1.5-4.2,2-6.4,2.8
		c-8.1,2.9-14.9,0.7-20.5-5.6c-4.3-4.9-9.3-9.4-16.3-7.6c-5.1,1.4-10,4-14.7,6.7c-9.1,5.1-18.1,10.4-27,15.9
		c-8.5,5.2-16.2,11.2-19,21.4c-0.2,0.8-0.4,1.6-0.8,2.3c-5.2,7.8-14.6,8.4-21.8,1.9c-5.3-4.8-11-9.5-17.2-12.9
		c-3.4-1.9-8.5-1.8-12.7-1.3c-16.9,1.9-30.3,11.3-44,21.1c-11.5-6.3-23.3-12.9-36.1-19.9c2.3-1.8,4.2-3.9,6.5-4.9
		c3.7-1.7,7.6-2.8,11.5-3.9c9.6-2.7,15.7-9.2,21.2-17.2c6.1-8.9,11.3-18,12.6-28.8c0.6-4.8,0.2-9.8-0.5-14.6
		c-1.2-7.9-2.9-15.7-4.9-23.4c-0.5-2-2.8-3.5-3.9-5.5c-11.7-22.7-23.2-45.5-34.9-68.2c-1.1-2.2-2.5-4.2-3.8-6.4
		c2-3.9,4.4-8.1,6.2-12.4c1.2-2.8,1.4-6,2.1-9c0.5-2.3,0.7-3.7-2.2-5.3c-3.6-1.9-5.7-6.6-9.3-8.5c-7.8-4.2-16.1-7.7-24.4-10.7
		c-2.7-1-3.8-1.7-3.8-4.5c0.1-12.5-0.9-25.1,0.4-37.5c0.8-8.2,4.5-16.2,7.2-24.2c4.7-13.9,9.6-27.7,14.2-41.6c0.7-2,0.1-4.5,0.1-6.8
		c-2.3,0.7-5,0.8-6.9,2.1c-5.8,3.9-11.3,8.3-17.4,12.8c-2.3-4.6-5.4-8.1-3.8-13.8c1.2-4.3,1.6-9.2,1-13.7
		c-1.3-9.8,4.1-17.4,7.3-25.6c5-12.6,10.3-25,16-37.3c3.8-8.1,8.4-15.9,12.9-23.7c1-1.7,3-2.9,4.4-4.4c3.6-3.9,7.5-7.6,10.6-11.8
		c1.2-1.7,1.4-4.8,0.9-7.1c-2.3-10-2.5-19.5,1.9-29.2c3.1-6.9,4.1-14.7,6.3-22c1-3.2,2.3-6.4,4-9.4c4.4-7.8,7.1-16.1,5.8-24.9
		c-1.1-7.9-8.3-11.9-14.3-15.1c-9.9-5.2-21-6.1-32.3-6.9c-12.1-0.9-20.5,4.6-28.8,11.5c-5.2,4.3-10.1,9.4-17.3,9.9
		c-5.5-8.1,1.4-13.3,4.6-18.9c7.1-12.5,15.4-24.3,22-37c3.3-6.4,3-14.2,1.2-21.6c-2-8.1-3.5-16.3-4.7-24.5
		c-0.8-4.8-0.3-9.7,2.9-13.6c7.5-9.2,10.6-20.4,14-31.4c0.2-0.6,0.2-1.2,0.4-1.9c4.7,0,9-0.4,13.3,0.1c6.8,0.7,12.2-0.9,15.9-7.1
		c3.7-6.2,10.1-9,16.1-12.3c10.3-5.5,20.8-10.8,30.7-17.1c3.9-2.5,7.2-2.2,11-1.6c7.5,1.4,15.4,2,21.5,7.1c3.1,2.5,5.3,6.2,7.9,9.2
		c14.9,17.3,32.3,31.5,51.7,43.8c8.2,5.2,13,13.9,16.5,23.1c4.8,12.2,9.2,24.7,15.1,36.4c7.1,14.2,20.5,18.2,35.3,19.5
		c5.2,0.5,10.5,2.4,15.4,4.4c7.8,3.2,15.3,7.2,23.1,10.4c5.4,2.2,11.2,3.3,16.6,5.4c8.2,3.1,16.3,6.5,24.3,10.1
		c6.7,3,13.2,6.3,19.7,9.8c7.8,4.2,15.4,8.6,23.5,13.2c-12.2,24.5-24.3,49-36.4,73.4c-15.3,30.6-30.6,61.2-45.9,91.9
		c-2.5,5-1.8,8.2,2.9,11.2c6.5,4.2,9.4,10,9.4,17.7c0.1,14.8,0.5,29.5,1,44.3c0.5,13.7,0.9,27.4,2.1,41.1c1.2,14,3.3,28,4.8,42
		c0.9,8,1.3,16.1,2.1,24.1c1.2,11.6,2.6,23.1,3.9,34.7c0.8,7.4,1.4,14.7,2.1,22.1c1.3,12.1,2.6,24.1,3.9,36.2
		c0.8,7.4,1.3,14.7,2.1,22.1c0.9,9,2,17.9,2.9,26.9C2444.1,1242.2,2443.9,1244.4,2443.9,1246.7z"/>
	<path id="_x31_051" class="st0" d="M1894.7,378.4c-0.6,8-1.2,15.6-1.7,23.2c-0.2,3-0.3,5.3,3.8,6.6c8.7,2.9,17.1,6.7,25.8,10.2
		c-1.2,1-2.3,1.7-3.3,2.6c-3,2.7-5,5.4-3.4,10.1c4.8,14.5,9.3,29.1,13.4,43.8c1.2,4.4,0.4,9.2,1.1,13.8c1.3,8,4.5,15.1,9.6,21.6
		c10.1,12.7,16.6,27.2,20.9,42.7c0,0.2,0,0.4,0.1,0.5c9.6,11.7,11,27.8,21.7,39c3.8,3.9,5.5,9.4,4.1,14.7c-2.7,10.1,0.5,19,6.4,26.4
		c11.4,14.3,17.2,30.4,15.6,48.3c-1.6,18.9-7.2,36.6-20.2,51.4c-6.6,7.6-15.4,10.8-24,14.5c-12.7,5.4-18.5,14.7-20.9,28
		c-1.8,10-0.6,19.1,2.5,28.2c1.6,4.6,4.5,9.1,7.9,12.7c11,11.4,22,22.6,29.6,36.8c2.5,4.6,1.1,17.4-1.9,21.6
		c-5.4,7.8-12.5,14.6-15.3,24.1c-0.2,0.8-0.7,1.6-0.5,2.4c1.5,8-2.5,13.4-8.1,18.5c-2.9,2.7-4.8,6.6-6.9,10
		c-3.4,5.5-7.6,10.8-9.7,16.8c-1.4,4-0.2,9.1,0.4,13.6c0.4,3.2,1.9,6.2,2.9,9.5c-3.2,2.7-6.8,4.5-11,2.1c-6.8-4-12.8-1.2-18.3,2.4
		c-15.7,10.3-31.2,20.9-46.6,31.6c-2.8,1.9-4.2,2.2-5.9-1.1c-2.2-4.2-4.6-8.4-7.7-11.9c-2.4-2.8-5.9-4.7-8.9-6.9
		c-1.4,0.8-2.6,1.4-3.5,2.2c-3.8,3.4-6.6,3-10.2-0.9c-6.2-6.6-14.8-7.9-23.3-9.3c-15.8-2.5-31.5-5.4-47.3-7.8
		c-3.9-0.6-4.2-2.6-3.8-5.4c1.1-7.6,2.3-15.2,3.5-22.8c0.5-2.9,1.1-5.7,1.6-8.8c1.5-0.1,2.8-0.3,4.1-0.2c7.5,0.9,10.4-0.9,12.3-8.2
		c0.1-0.6,0.1-1.2,0-1.8c-2.5-9.1-5-18.1-7.6-27.2c-2.5-8.9-8.7-15.7-14.3-22.6c-5.3-6.6-11.5-12.6-17.5-18.6
		c-1.6-1.5-4.3-2.4-6.5-2.6c-10-0.9-19.9-2.2-28.7-7.3c-5.5-3.2-10.8-6.9-15.5-11.2c-12.5-11.2-22.7-24.3-32.5-38
		c-9.2-12.9-15.8-26.9-22.9-40.8c-5.7-11.4-14.7-19.8-24.2-28c-6.6-5.6-13.7-9.4-22.6-8.9c-0.6,0-1.6,0-1.9-0.4
		c-3.9-5.1-8.7-9.1-10.6-16.1c-2.7-9.9-7.4-19.3-11.6-28.8c-2-4.4-4.8-8.5-7.6-13.4c4.3,0.3,7.9,0.5,11.6,0.7
		c6.3,0.3,12.6,0.5,18.9,1c6.1,0.5,11.5-1.1,17-3.8c7-3.5,14.6-5.8,22.7-5.2c17,1.4,32.4-4.1,47.2-11.2c7.8-3.8,14.6-9.9,21.3-15.5
		c4.6-3.9,3.7-10.9-1.4-16c-2.8-2.7-5.8-5.3-4.6-9.7c0.7-2.6,1.5-5.8,3.4-7.2c3.9-2.7,3.5-6.3,3.5-10c0.1-7.5,0.3-15,0.6-22.5
		c0.4-10.2,0.8-20.3-4.5-29.6c-2.4-4.2-4.3-8.8-6.3-13c5.3-3.6,10.6-6.6,15.2-10.4c3.1-2.6,5.6-6,8.1-9.3c3.2-4.3,5.6-9.3,9.3-13.2
		c8.3-8.9,14.2-19,18.7-30.2c2.8-7.1,6-14,9.4-20.9c5.2-10.6,9.5-21.4,9.7-33.5c0.1-9.7,4.9-17.8,10.2-25.4c1.8-2.5,4.4-2.8,7.4-1.1
		c6.9,3.8,14,7.1,20.8,11c8,4.7,16.8,4.4,25.3,4.4c4.4,0,8.7-3.9,13.1-6.1c8.4-4,16.7-8.1,25.1-12c1.2-0.6,3.1,0.1,4.6,0.4
		C1872.3,373.4,1883,375.8,1894.7,378.4z"/>
	<path id="_x31_047" class="st0" d="M1997,1080.9c-3.5,4.3-7.7,9.4-11.8,14.4c-4.7,5.7-10.2,11.1-18,10.5
		c-15.3-1.3-26.4,6.8-37.1,15.4c-13,10.5-28.7,13.2-43.9,17.8c-6.2,1.9-12.5,3.5-18.8,5.3c-4.2,1.2-6.1-0.3-6.5-4.4
		c-1.6-17.8-3.2-35.7-5-53.5c-0.7-7.1,1.1-9.2,8.2-9.4c6.6-0.2,13.2-0.6,19.8-1c0.9-0.1,1.9-0.4,2.7-0.9c7.4-4.1,15-8,22.1-12.7
		c2.6-1.7,3.9-5.3,6.2-8.5c-7.1-1.8-13.2-3.2-19.3-4.9c-1.6-0.4-3.2-1.4-4.6-2.4c-9.9-7.2-13.4-19.1-20.1-28.6
		c-1.4-2-2.6-4.2-4.1-6.6c12.9-8.8,25.7-17.5,38.4-26.2c4.5-3,8.8-6.3,13.4-9.1c4.8-2.9,9.7-4.3,15.2-1.2c3.4,1.9,10.8,0.3,13.1-2.7
		c0.7-0.9,0.8-2.8,0.5-4.1c-1.3-5.8-2.9-11.6-4.2-17.5c-0.2-0.9-0.1-2,0.4-2.7c5-8.2,10.1-16.3,15.2-24.5c0.3-0.4,0.3-1.1,0.6-1.3
		c6.9-5.4,10.6-12,10.2-21.2c-0.3-7.2,6.1-11.6,9.3-17.3c1.9-3.4,4.8-6.2,7.1-9.4c0.9-1.3,1.7-2.9,1.9-4.4c1-9.9,0-19.3-6.8-27.3
		c-6.7-7.7-12.8-16.1-20.3-22.9c-9.5-8.6-14-19.6-15.3-31.4c-0.8-7.4,2.4-15.3,4.4-22.8c2.2-8.4,9.3-12.5,16.7-15.3
		c13.9-5.3,24.8-13.7,32.6-26.6c5.7-9.5,8.9-19.4,10.7-30c0.9-5.3,1.8-10.7,2-16.1c0.4-16.9-5.2-31.6-15.6-44.8
		c-5.6-7.2-8.8-15.4-6.5-25.1c1.9-8.2-2.8-14.7-7.6-20.9c-2.5-3.3-4.2-7.2-6.1-11c-2.4-4.7-4.7-9.6-7-14.4c-2.7-5.9-6-11.6-7.9-17.7
		c-4.2-13.5-11.1-25.4-19.6-36.4c-5.1-6.6-8.5-14-8.3-22c0.3-12.9-4.9-24.2-8.2-36.1c-1.6-5.8-3.4-11.6-5.7-17.1
		c-1.8-4.4-0.1-7.1,3.1-9.6c1.9-1.5,3.8-3,6.2-5c-7.4-2.9-14-5.6-20.6-8.2c-1.4-0.5-2.7-1.1-4.1-1.6c-8.9-3.6-8.4-3.5-6.7-13.2
		c0.9-5.4,0-11.1-0.5-16.6c-0.1-0.9-1.7-2.2-2.8-2.5c-11.5-2.8-23.1-5.7-34.7-7.9c-2.4-0.5-5.4,1-7.9,2.2c-9.2,4.6-18.5,9-27.3,14.3
		c-6.7,4.1-13.7,2.4-19.5,0.6c-11.6-3.5-22.4-9.4-33.5-14.3c6.3-14,11.8-27.1,18.1-39.6c3.5-7,8.3-13.2,12.7-19.7
		c5.1-7.6,5.1-16.7,7.2-25.1c0.2-0.8,0.2-1.6,0.4-2.4c2.2-8.5,2.2-8.6,10.8-6.5c4,1,7.3-0.9,7.4-4.4c0.2-7.3,2.5-12.3,9.2-16.1
		c2.7-1.5,3.8-6.3,5.1-9.8c3.5-9.2,8.4-12.6,18-13.5c8.9-0.8,17.8-2.6,26.7-3.9c5.2-0.7,10.4-1,15.5-2.1c5-1.1,9.9-3.1,15.7-5
		c2.3,5.7,5,11.4,7,17.3c1.4,4.1,3.9,6.4,7.9,7.9c8.7,3.3,17.6,4.8,26.9,5c4.9,0.1,9.8,1.3,14.7,1.5c3.2,0.2,6.5-0.7,9.7-0.6
		c7.3,0,14.7,0.3,22,0.6c1,0,2,0.6,2.9,0.4c8.1-1.1,12.2,4.5,15.5,10.1c4.7,8,8.5,16.6,13.1,24.7c1.5,2.6,4.3,4.9,7,6.3
		c5.8,2.8,8.3,7.7,10.3,13.4c2.4,6.8,5.4,13.5,8.1,20.2c1,2.4,2.8,4.6,0.3,7.4c-1.1,1.2-1.2,3.7-1.1,5.6c0.8,17.4-1.2,34.3-5.7,51.3
		c-2.4,8.9-1.7,18.6-2.4,28c0,0.5-0.2,1.1,0.1,1.5c5,9.2-1.4,15.9-5.2,23c-3.8,7.1-10.1,12.8-11.9,21.1
		c-3.5,16.2,4.1,25.9,19.9,28.2c4.5,0.7,9.4-1.2,13.9-0.5c3.3,0.5,7,2.6,9.2,5.2c8.5,10.1,10.4,23,14,35.1
		c4.1,14,10.8,26.1,21.3,36.4c2.8,2.7,4,7,5.7,10.7c2.2,4.6,4.9,9.1,6,13.9c0.8,3.6-0.9,7.7-1.4,11.6c-1.2,8.7-6.2,15.8-11,22.6
		c-4.4,6.1-3.9,12.5-2.9,18.9c1.4,9,4,17.8,5.4,26.8c1.3,8.3-2.1,15.7-6.4,22.6c-7.8,12.4-15.5,24.9-23.2,37.4
		c-1.6,2.5-0.6,12.5,1.5,14.5c0.7,0.6,2.3,0.9,3,0.6c5.4-2.8,10.9-5.6,16.1-9c4.6-3,8.7-7,13.3-10c2.4-1.5,5.5-2.4,8.3-2.5
		c12.7-0.5,25.4-0.3,37.1,5.7c11.4,5.8,17.5,11.8,13.5,23.7c-1.6,4.7-4,9.2-5.7,13.9c-2.6,7.5-4.9,15.1-7.2,22.7
		c-1.1,3.4-1.6,7.1-3.1,10.2c-4.3,8.5-4,17.5-1.6,26c1.8,6.4-1.3,10-4.7,13.3c-18.2,17-26.3,39.7-35.6,61.8
		c-2.1,5.1-3.3,10.8-6.2,15.4c-5.4,8.6-5.2,18-5.9,27.3c-0.2,2.8-0.4,5.6-1,8.2c-1.3,5.9,2.4,10.1,4.9,14.6c0.4,0.8,4.4,0.5,5.9-0.5
		c6-3.9,11.7-8.3,18.8-13.4c-5,14.6-9.6,27.7-14.1,40.9c-2.5,7.2-5,14.5-7.3,21.8c-0.8,2.5-1.1,5.1-1.1,7.7
		c-0.1,12.3,0.1,24.7-0.2,37c-0.1,4.3,1,6.4,5.4,7.6c9,2.6,18,5.3,25.8,11.3c8,6.1,9.8,11.3,5,20.3c-2.4,4.5-3.2,10.3-9,12.3
		c-1.5,0.5-3.2,1.1-4.7,1c-17.2-1.1-34.3-2.7-51-7.4c-3.4-1-6.5-3.6-9.3-6.1c-4.5-4-8.3-8.7-12.9-12.6c-1.1-0.9-4.2-0.2-6.1,0.6
		c-1.9,0.8-3.7,2.3-4.9,4c-5.6,7.3-14,5.9-21.5,7.5c-0.5,0.1-1.3-0.2-1.8-0.5c-5.6-4.3-11.1-8.6-16.6-12.9c-1.1-0.9-2.2-1.8-3.5-2.5
		C2006.5,1085.7,2002.1,1083.5,1997,1080.9z M1983.4,1076c0-0.3,0-0.6,0-0.9c10.9-0.7,21.7-1.3,32.6-2.2c1.5-0.1,3.3-1.4,4.2-2.6
		c4.7-6.5,9.3-13,13.5-19.8c4.6-7.5,5.1-15.4,0.8-23.5c-4.4-8.4-8.5-17-12.7-25.5c-1.4-3-2.9-4-6.5-2.7c-11.1,3.8-22.5,7-33.8,10.5
		c-0.9,0.3-1.9,0.7-2.6,1.4c-5.4,5.6-12.5,8.2-19.6,10.7c-4.6,1.6-10.6,2.1-13.4,5.3c-4.3,5.1-10.4,5.4-15.2,8.6
		c-3.9,2.6-11,1.9-10.8,9.3c-7.4,7-3.8,15.5-2.8,23.4c0.6,4.9,5.8,8.1,11,8.1C1946.6,1076,1965,1076,1983.4,1076z"/>
	<path id="_x31_049" class="st0" d="M2414.8,1267.4c5.5-4.7,12.3-6.8,16.6-13.4c2-3.1,8.1-3.5,13-5.4c1,7.9,1.8,14.4,2.6,20.8
		c1.3,11.6,2.7,23.1,3.9,34.7c0.8,7.8,1.4,15.7,2.1,23.6c0.2,2.4,0.2,5.1,1.2,7.2c1.2,2.7,3.6,5.1,7,3.3c7.6-3.8,15.1-7.7,22.6-11.7
		c5.5-2.9,10.9-5.8,16.9-9.1c0.8,4.7,1.5,8.8,2.3,12.9c0.5,2.5,1,5.1,2,7.5c2,4.6,2.6,8.8,0.3,13.6c-4.4,9.3-1.7,18,2.3,26.8
		c3.3,7.2,5.7,14.9,8.2,22.4c0.5,1.5,0.7,3.7,0,5.1c-4.6,9.8-3.6,19.9-1.9,30.1c1.4,8.1,2.7,16.2,2.9,24.4
		c0.4,14.7,2.2,28.9,8.8,42.4c1.4,2.9,0.7,7.3,0,10.8c-1.2,5.8-1.9,11.2,0,17.3c1.5,4.7,1.3,10.5,0.2,15.4
		c-2.7,11.3-2.9,21.8,4.8,31.1c-5.7-1.8-11.3-4.1-17-5.4c-10.9-2.5-20.7-0.1-28.9,7.8c-4.4,4.2-8.3,8.9-13,12.7
		c-4,3.3-8.6,5.8-14.3,5.5c-6.6-0.3-16.9,6.5-18.1,12.7c-0.8,4.4,0.6,9.1,0.9,13.7c0.5,9.2,6.5,15.9,11.3,22.8
		c1.9,2.7,7.1,3.3,10.9,4.6c2.4,0.9,4.9,1.4,7.4,2.1c-6.2,10.2-9,20.1-4.3,31.6c1.5,3.7,0,8.8-0.8,13.1c-0.2,1-3.6,2.4-5,2
		c-9-2.8-18-5.6-26.7-9.3c-19.2-8.2-38.7-15.4-59-20.1c-6.2-1.4-13.3-0.4-19.7,0.9c-8.7,1.7-16-1.2-23.4-4.8
		c-6.5-3.2-11.6-8.1-16.7-13.3c-8-8.3-17.1-15.5-25.8-23.1c-0.8-0.7-2-1.8-2.9-1.7c-9.5,1.2-14.2-7.1-21.3-10.8
		c-3.2-1.6-5.8-4.2-8.6-6.4c-8.4-6.5-9.3-18.5-1.2-26.9c8.4-8.8,17.2-17.2,23.6-27.8c0.7-1.2,1.9-2.6,1.8-3.9
		c-0.5-8.5-0.7-17.1-2.2-25.5c-0.6-3.5-4.6-6.2-6.6-9.6c-1.1-1.9-2-4.2-2-6.3c0.2-9.7-4.9-16.8-12.1-21.9
		c-10.3-7.3-18.4-16.1-22-28.4c-1.2-4-1.4-8.3-2-12.5c-1.4-9.2-2.4-18.5-4.4-27.5c-0.6-2.8-3.6-5.7-6.3-7.3
		c-3.7-2.2-8.2-3.1-12.2-4.8c-4.4-1.9-8.9-3.9-12.8-6.6c-7.6-5.1-14.9-10.7-22.1-16.2c-5.8-4.5-7-11.3-5.1-17.5
		c2.9-9.4,0.8-18.1-0.7-27.1c-0.7-4-1.5-8.1-1.4-12.2c0.2-5.6,4.8-8.8,8.6-12.1c9.8-8.4,20.4-15.8,31.9-21.7
		c8.7-4.4,18.4-6.7,27.6-4.7c5.5,1.2,10.6,6.3,15,10.6c4.1,4,8.2,6.4,14,7.1c8,0.9,14.4-1.4,16.5-9c3.3-12.1,12.4-17.7,22.2-23.1
		c9.4-5.3,18.4-11.1,27.9-16.2c11.1-5.9,13.3-5.3,22.5,2.9c2.9,2.6,5.9,5.8,9.4,6.9c3.9,1.2,8.5,0.2,12.8,0.2
		c4.8,0,7.6-3.2,10.6-6.3c2.1-2.2,4.3-4.4,6.4-6.6c2.1-2.3,4.2-4.7,6.7-7.6C2405.4,1256.3,2409.9,1261.6,2414.8,1267.4z"/>
	<path id="_x31_052" class="st0" d="M1495.6,656.5c8.6,0.5,16.2,1.2,23.7,1.4c9.3,0.2,18.7-0.1,28,0.2c2,0.1,4.8,1.6,5.7,3.3
		c6.2,11.6,12,23.4,17.9,35.2c0.4,0.9,1.1,1.9,1,2.7c-0.9,7.7,4.5,12.3,8.5,17.5c2.2,2.9,4.9,4.4,8.9,4.2
		c9.1-0.5,15.6,5.1,21.9,10.7c12.3,11,21.7,24,27.1,39.8c3.9,11.2,12.4,19.5,18.9,29.1c4.7,6.9,8.9,14.2,14.5,20.3
		c7.3,7.9,15.3,15.2,23.7,21.8c7.9,6.1,17.1,10,27.2,11.3c1.1,0.1,2.2,1,3.3,0.9c12.9-1.8,19,7.7,26,15.7c3.5,4.1,6.3,8.8,9.9,12.8
		c6.8,7.8,7.7,17.7,10.1,27.1c0.7,2.7,0.9,5.7,2.3,7.9c3,4.7,1.4,8.4-1.3,12.1c-4.2,0-8.2,0-12.8,0c-1.7,11-3.7,22.2-5.2,33.5
		c-1.1,8,0.3,9,8.7,10.2c15.5,2.3,30.9,5.5,46.4,7.3c8.6,1,15.3,5,21.2,10.1c4.7,4.1,8.1,2.4,12.1,0.3c0.9-0.4,1.6-1.2,2.3-1.8
		c6.7,3.1,9.3,9.4,12.8,15.1c5,8.2,10.2,16.3,15.4,24.4c3.4,5.3,6.9,10.4,10.5,15.5c5.3,7.4,13.8,8.1,21.6,10
		c0.8,0.2,1.6,0.1,2.4,0.3c0.3,0.1,0.5,0.4,1.2,1.1c-0.8,1.2-1.5,2.8-2.6,3.5c-4.5,2.9-9.2,5.5-13.8,8.3c-5.6,3.5-11.4,5.4-18.2,4.9
		c-5.1-0.4-10.2,0.4-15.3,0.9c-5.7,0.5-8.5,6.4-6.8,14.1c0.3,1.4,0.7,2.7,1,3.8c-5,0.4-9.5,0.5-13.9,1.1c-16.5,2.2-33,4.5-49.6,6.7
		c-0.3,0-0.8,0.2-1,0c-6-4.4-11.8-0.1-17.7,0.3c-1,0.1-2.2,0.7-2.9,1.5c-6,5.5-12.3,10.7-17.6,16.8c-5.2,6.1-11.7,7-18.8,7.7
		c-10.1,1-20.1,2.5-30.2,3.7c-8.8,1.1-17.6,2.1-26.4,3.2c-9.4,1.2-19,1.9-28.1,4.2c-5.8,1.5-10.9,5.6-16.2,8.6
		c-2,1.1-3.9,2.3-4.9,2.8c-7.9-6.6-15-13.2-22.8-18.9c-6.5-4.7-8.5-11.3-10-18.3c-0.6-2.7-0.3-5.7-1.2-8.2c-0.9-2.4-2.6-4.8-4.5-6.4
		c-5.6-4.4-9.7-9.3-7.8-18.1c6.1-2.1,12.9-4.1,19.4-6.8c2.3-0.9,4.7-2.8,6-5c6.3-10.8,9-22.9,11.2-35.1c0.6-3.4,2.7-6.5,4.3-9.7
		c2.2-4.5,0.2-11.9-3.6-15.2c-9.3-8.1-19.6-14-32-15.5c-7.3-0.9-12.1-6.1-17.7-9.9c-3.9-2.7-7.2-6.4-11.2-8.8
		c-2.6-1.6-6.1-2-9.3-2.7c-5.4-1.1-10.9-1.8-16.3-3c-5.5-1.2-8.5-6.4-7.3-12c1.7-8.3,3.6-16.5,4.9-24.9c0.5-3-0.3-6.3-1.1-9.3
		c-1.9-6.9-4-13.7-6.2-20.6c-3.7-11.7-10.7-21.6-18.1-31.1c-4-5.2-9.2-9.6-12.6-15.1c-2.4-3.9-3-9.1-3.9-13.8
		c-2-10.4-0.3-21.3-4.6-31.5c-3.5-8.2-6.5-16.7-9.4-25.2c-2.9-8.4,0.7-15.4,9.4-15.3c12.5,0.1,18.5-8.2,24.6-16.4
		c1.8-2.4,1-7,0.8-10.6c-0.2-3.5,0.9-5.9,3.4-8.2c7-6.7,7.5-12.8,2-21.2c-1.2-1.8-2.7-3.3-3.9-5.1c-8.1-11.1-12.4-23.5-12.4-37.3
		C1496.9,665.6,1496.1,661.7,1495.6,656.5z"/>
	<path d="M1983.4,1076c-18.4,0-36.9,0-55.3,0c-5.2,0-10.3-3.2-11-8.1c-1-7.9-4.6-16.4,2.8-23.4c-0.2-7.4,6.9-6.7,10.8-9.3
		c4.8-3.2,10.9-3.5,15.2-8.6c2.8-3.2,8.8-3.7,13.4-5.3c7.1-2.5,14.2-5.1,19.6-10.7c0.6-0.7,1.7-1.1,2.6-1.4
		c11.3-3.5,22.6-6.7,33.8-10.5c3.7-1.3,5.1-0.3,6.5,2.7c4.1,8.5,8.2,17.1,12.7,25.5c4.3,8.1,3.9,15.9-0.8,23.5
		c-4.2,6.8-8.9,13.3-13.5,19.8c-0.9,1.3-2.7,2.5-4.2,2.6c-10.8,0.9-21.7,1.5-32.6,2.2C1983.4,1075.4,1983.4,1075.7,1983.4,1076z
		 M1981.5,1073c0-0.3,0-0.6,0-0.9c11.2-0.7,22.4-1.3,33.6-2.2c1.4-0.1,3-1.7,3.9-3.1c3.8-5.3,7-11.1,11-16.2
		c5.3-6.8,4.9-13.9,1.8-21c-3.8-8.5-8.4-16.7-12.5-25c-1.2-2.4-2.3-2.9-5-1.9c-6.3,2.2-12.8,3.8-19.2,5.7c-4.9,1.5-10.8,1.9-14.4,5
		c-6.6,5.8-14.3,8.7-21.9,12.2c-8.5,3.9-16.6,8.8-25.3,12.2c-9.9,3.9-16,11.4-14.6,23c1.2,9.5,3.9,12.1,13.2,12.1
		C1948.6,1073,1965.1,1073,1981.5,1073z"/>
	<path id="_x31_046" class="st0" d="M1981.5,1073c-16.4,0-32.8,0-49.3,0c-9.4,0-12.1-2.7-13.2-12.1c-1.4-11.6,4.7-19.1,14.6-23
		c8.7-3.4,16.8-8.3,25.3-12.2c7.6-3.5,15.3-6.4,21.9-12.2c3.6-3.1,9.5-3.6,14.4-5c6.4-1.9,12.9-3.5,19.2-5.7c2.7-1,3.8-0.5,5,1.9
		c4.1,8.4,8.7,16.5,12.5,25c3.1,7.1,3.5,14.2-1.8,21c-4,5.1-7.3,10.8-11,16.2c-0.9,1.3-2.5,3-3.9,3.1c-11.2,0.9-22.4,1.5-33.6,2.2
		C1981.5,1072.4,1981.5,1072.7,1981.5,1073z"/>
</g>
</svg>
