<?xml version="1.0" encoding="utf-8"?>
<!-- Generator: Adobe Illustrator 19.0.0, SVG Export Plug-In . SVG Version: 6.00 Build 0)  -->
<svg version="1.1" id="Layer_1" xmlns="http://www.w3.org/2000/svg" xmlns:xlink="http://www.w3.org/1999/xlink" x="0px" y="0px"
	 viewBox="0 0 5000 2560" style="enable-background:new 0 0 5000 2560;" xml:space="preserve">
<style type="text/css">
	.st0{fill:#FFFFFF;}
</style>
<g>
	<path d="M2465.2,1484.9c-2.3,10.3-4.6,20.9-7.3,31.5c-0.4,1.7-2.7,4.4-4,4.3c-2.3-0.2-5.1-1.5-6.6-3.3c-6.7-7.9-12.7-16.3-19.6-24
		c-4.4-4.9-10.2-8.6-14.9-13.3c-2.5-2.6-4.5-6-5.6-9.5c-3.6-11-10.7-17.4-21.6-22.2c-16-7-32.4-6.7-49-6.1c-2.9,0.1-5.9,3.5-8.5,5.8
		c-3.1,2.8-5.4,6.7-8.8,9c-5.5,3.7-7.7,2.8-10.2-3.1c-3.8-8.8-7.5-17.7-11-26.6c-1-2.6-2.2-3.7-5-3.3c-5.2,0.8-10.4,1.5-15.6,1.9
		c-16.4,1.4-32.8,2.7-49.2,4.1c-10.8,0.9-21.6,1.9-32.4,3.1c-2.4,0.3-4.7,1.3-6.9,2.4c-15.6,7.9-31.2,15.8-46.8,23.9
		c-2.6,1.3-5,3.4-6.7,5.7c-5.1,6.7-10,13.7-14.8,20.7c-8.6,12.5-8,25.8-3,39.2c0.5,1.3,2.7,2.5,4.4,2.8c3.2,0.7,6.5,0.9,9.8,1.1
		c8.5,0.6,13.5,6.3,17.8,12.5c3.1,4.5,4.9,9.9,7.2,15c2.9,6.6,1.6,8.8-5.2,10c0,4.4,0,8.7,0,13c6.6,6.8,12.7,14.1,12.4,24.7
		c-0.3,11.3-0.4,22.6-1.1,33.9c-0.5,7.6-6.4,12.4-13.9,11.8c-4.4-0.3-8.7-1.1-13.1-1.9c-5.1-1.1-7.8-4.5-7.9-9.6
		c-0.1-2.5,0.1-5.1-0.7-7.3c-0.6-1.6-2.7-3.9-3.9-3.8c-2.4,0.3-4.8,1.7-4.4,5.3c0.3,3.1,0.3,6.3,0,9.5c-0.8,8.9-10.6,12.3-19,10.5
		c-3.5-0.7-6.9-1.9-10.4-2.4c-2.9-0.4-6-0.1-10-0.1c0.9,2.7,1.7,4.9,2.4,7c3.1,9.6,6.9,19,9.2,28.8c1.5,6.5,1.1,13.6,0.8,20.4
		c-0.5,13.8-7.4,24.1-18.5,31.8c-7.2,5-15.8,5.7-24.1,7c-4.6,0.7-9.2,1.4-15.4,2.3c4.4,13.2,8.4,25.3,12.3,37.4
		c2.9,8.9,4.4,18.2,9.2,26.7c3.3,5.9-1.7,11.4-8.6,11.9c-1.8,0.1-3.8,3.1-4.9,5.2c-2.7,4.9-4.5,10.4-7.5,15.1
		c-1.9,3.1-4.8,5.8-7.9,7.9c-6.3,4.3-13,8.2-19.7,11.8c-3.2,1.7-7,2.8-10.6,3.5c-4,0.8-8.3,1.5-12.3,1c-12-1.5-22,4-32.4,8.2
		c-2.2,0.9-4.3,2.1-7,3.3c3.2,2.1,6,3.9,9.6,6.2c-2,0-3.2,0.3-4.1,0c-5.4-1.7-11.3-2.7-16-5.5c-3.2-2-6.1-2-9.3-2.1
		c-5.5-0.1-11.1,0.3-16.6-0.2c-2.8-0.2-5.5-1.8-8.8-2.9c-3.6,11-14.9,8.1-22.4,12.4c-0.4-0.4-0.8-0.8-1.1-1.1c2.4-3,4.5-6.3,7.3-8.9
		c3.5-3.2,4.3-6.1,0.9-9.8c-3.9-4.3-8.3-8.4-11.1-13.4c-2.8-4.9-4.1-10.8-6-16.3c-1.5-4.4-1.1-8.5,0.8-12.9
		c2.9-6.4-0.6-11.7-4.1-16.7c-3.3-4.7-6.7-9.3-10.5-13.6c-5.6-6.3-4.7-13.3-2.8-20.3c0.9-3.5,0.2-5.6-2.3-7.8
		c-5.5-5-11.2-9.9-16.2-15.4c-2.1-2.3-3-5.9-3.9-9.1c-0.5-1.8,0-4-0.1-6c-0.2-5.9-2.4-9.5-7.8-11c-8.9-2.6-14.8-8.6-20.1-15.7
		c-3.9-5.2-7.6-11.1-12.7-14.9c-4.6-3.5-11-4.7-16.7-6.6c-9.8-3.3-16-9.8-20-19.3c-2.5-5.9-6.8-11.1-10.2-16.7
		c-1.3-2.1-2.8-4.2-3.2-6.5c-1.5-9-6.6-16.2-11.4-23.6c-0.6-0.9-2.9-1.9-3.5-1.5c-5.8,4-11.6,0.7-17.4,0.2c-1.7-0.1-3.8,0.2-5.2,1.2
		c-5.9,4.3-13.9,2.8-17.3-3.8c-2.5-4.9-5.7-8.4-11.7-9.2c-2.9-0.4-5.5-3.2-8.4-4.7c-1.3-0.7-3-1.9-4.3-1.6
		c-10.9,2.7-13.7,0.9-14.6-11.5c-2.3,1.7-4.8,2.6-5.5,4.2c-2.7,5.7-5.2,11.5-7,17.5c-2.4,7.8-7.4,11-15.1,8.3
		c-3.1-1.1-5-0.7-7.3,1.7c-1.9,2-5.1,2.8-7.2,4.7c-3,2.7-5.5,5.9-8.1,9c-0.3,0.4-0.3,1-0.6,1.3c-3,3.6-8.4,8.1-12.2,6.3
		c-5.2-2.5-5.5-7.3-5.5-12.1c-0.1-6.8,0-13.6,0-20.6c-5.6-0.6-10-0.1-14.6,3.3c-5.5,4.1-10.9,9.5-18.8,8.3
		c-5.1-0.8-10.1-2.3-15.1-3.8c-5.9-1.8-11.9-3.5-17.3-6.4c-3.5-1.9-7.4-5.3-8.5-8.8c-3.7-12.9-11.9-22.3-21.4-31
		c-3-2.7-5-5.6-4.5-9.9c0.1-0.8,0.2-1.8-0.2-2.4c-4.9-8.4-2-17-0.5-25.4c0.4-2.4,3.5-4.4,5.5-6.4c10.1-10.6,20.3-21.1,30.2-32
		c2.9-3.2,4.4-7.7,7.2-10.9c2.5-2.8,6-4.9,9.3-6.9c3.5-2.2,7.3-4,11.4-6.3c-5.6-8.1-7.1-16.1-7-25c0.2-10.5-6.2-17.4-16.5-19.8
		c-5.1-1.1-10.2-1.8-15.3-3c-3.9-0.9-6.7-2.7-8.4-7.1c-1.6-4.1-5.4-7.5-11-6.9c-2.3,0.2-4.7,0.1-7,0c-5.2-0.3-6.9-2.9-8.9-8
		c-1.8-4.6-4.8-8.9-8.1-12.6c-3.7-4.2-8.4-7.6-12.6-11.4c-1.5-1.4-3.5-3-3.8-4.8c-2.6-13.3-4.8-26.6-7.3-40c-2-11.2-4.4-22.4-6-33.7
		c-0.4-3.1,0.8-7,2.3-9.9c4.3-7.9,9.4-15.3,13.6-23.2c2.8-5.4,4.4-11.4,7-16.9c4.5-9.7,9-19.4,13.9-28.9c4.6-8.9,13-14.1,20.8-19.8
		c2.1-1.5,4.5-2.6,6.8-3.9c4.1-2.6,4.6-4.9,1.8-9c-1.6-2.4-3.8-4.6-5-7.2c-1-2.3-1.7-5.2-1.2-7.6c1.5-6.2,3.8-12.2,6-19
		c-0.7-0.6-2.4-2.1-4.2-3.5c-2.5-1.9-2.7-4.4-0.8-6.5c2.5-2.8,1-5.3-0.6-6.7c-4.4-3.9-4.1-9-4.4-14c-0.2-3,0-5.9,0-9.4
		c-1.8,0.3-3,0.5-4.2,0.8c-11.6,3-11.2,1.4-19.5-6.9c-2.5-2.5-5-5.2-8-6.9c-4.2-2.3-6.1-5.4-5.3-10c0.7-3.9,1.1-7.8,2.4-11.5
		c1.4-3.8,0-6-2.7-8c-1.4-1.1-3.1-1.9-4.6-2.8c-5.2-3.1-9.3-6.8-9.8-13.6c-0.1-2.2-1.9-4.4-3.3-7.1c0.9-0.6,2.5-1.7,4.1-2.8
		c5.9-4.2,10.6-2.6,10.6,4.6c0,5.5,2.3,8.1,6.5,10.1c1,0.5,2.2,1,2.8,1.9c9.5,12.3,22.9,8.6,35.3,8.1c1.9-0.1,4.5-2.9,5.4-5
		c2.4-5.5,5.6-8.5,11.9-8.7c2.5-0.1,4-0.8,5.7-2.8c4.9-5.6,10.5-10.4,18-12.4c1-0.3,2.2-0.9,2.8-1.7c5.8-6.9,13.5-11.4,21.1-16.1
		c2.8-1.8,4.8-4.8,7.3-7.2c4.8-4.6,9.4-4.2,13,1.2c2.9,4.4,6,8.1,11.4,10c6.7,2.4,8.4,9.3,10.5,15.1c3.2,8.6,5.7,17.6,8.6,26.4
		c0.3,1,1,2.3,1.9,2.7c10,4.5,14.9,13.9,21.8,21.6c5.1,5.7,12,9.9,17.8,15.1c3,2.7,5,6.7,8.2,9.2c7,5.3,14.5,10,21.7,15
		c2,1.4,3.8,2.9,5.6,4.3c4.1-0.4,8.9-2.1,12.6-0.8c4.5,1.6,8.5,5.4,11.9,8.9c3.4,3.4,7.2,4.7,11.1,2.1c2.4-1.6,5.2-3,7-5.2
		c3.8-4.7,8.2-5.7,13.6-3.5c0.6,0.2,1.3,0,2.7-1.3c-4.7-3-9.5-5.9-14-9.2c-2.7-2-5.4-4.4-7.2-7.2c-2-3.3-4.5-4.4-8.1-4.4
		c-14.2,0-22.4-8.7-21.9-22.9c0-0.7-0.2-1.6,0.1-2c2.9-2.7,7.9-5,8.3-8c0.9-5.5,4.2-6.9,8.1-7.7c1.5-0.3,4,1.8,5.3,3.3
		c1.7,1.9,2.9,4.4,3.9,6.7c2.3,5.4,7.3,5.2,11.7,5.2c1.5,0,3.7-3,4.5-5c2.1-5.5,4.9-10.6,10.1-13.5c3-1.7,6.6-2.7,10-3
		c3.6-0.2,6.1-1,8.1-4.3c3.9-6.4,6.8-7.4,13.9-4.8c6.5,2.3,12.3,0.2,18.2-1.7c4.9-1.6,9.3-1.4,14.3,0.6c3.3,1.4,7.5,0.6,11.2,1.2
		c2.8,0.4,5.7,1,8.3,2c2.4,1,3.3,0.8,4.1-1.9c1.1-3.6,3.2-6.9,4.6-10.5c0.5-1.4,0.9-4.1,0.3-4.5c-6.7-4.2-6.5-10.9-7-17.4
		c-0.2-2.5,0-5,0-7.3c-4.4-2-8.5-3.9-13-6c4.4-1.3,13.7,1.1,15.9,3.9c0.5,0.6,0.9,1.5,0.8,2.1c-1.6,9.5-0.3,18.1,7.9,24.7
		c5-1.9,10.6-1.5,15.2,1.4c2.5,1.6,3.9,5.5,5.1,8.7c1.7,4.5,2.4,9.4,4.3,13.9c1.3,3.3,4.3,3.9,7.3,1.8c2.4-1.7,5.1-3.1,7.1-5.2
		c3.8-4.1,7.8-2.4,11.6-0.6c4.2,2,4.8,6.2,4,10.4c-0.6,2.8-1.8,5.5-2.7,8.3c2.8,3.1,6.5,3,9.3,1c1.8-1.3,3.1-4.6,3.1-7
		c0-8.5,0.2-16.7,5.6-24c1-1.3,0.6-3.9,0.5-5.9c-0.2-3.8,0-7,3.8-9.3c4.1-2.5,7.9-5.6,11.4-8.8c1.1-1,1.3-3.2,1.7-4.9
		c1-3.7,1.4-7.7,2.9-11.2c1.5-3.5,4.5-5.5,8.7-3.8c8,3.4,11.2,2.5,16.8-4.8c3.2-4.1,6.7-8.1,9.4-12.6c2-3.4,3.1-7.4,4.2-11.2
		c1.3-4.4,1.4-8.6,6.3-11.7c7.3-4.6,13.6-6.9,21-1c1,0.8,3.6,0.6,4.7-0.2c9-6.3,19.5-5.7,29.6-7.6c7.3-1.4,13.4-0.1,19.1,3.7
		c3.9,2.6,7,6.3,10.8,9.9c1.7-2.9,3.8-6.5,5.8-10.2c0.4-0.7-0.1-2.1-0.6-2.9c-1.2-2.1-2.4-4.4-4.2-6c-2.5-2.4-3.9-5.5-2-7.9
		c2.1-2.7,5.5-5.6,8.7-6.1c7.3-1.2,14.8-1.1,22.3-1.2c2.2,0,5.1,0.2,6.5,1.6c5.5,5.2,12.4,5.8,19.2,7.4c5.2,1.2,10.6,2.7,15.2,5.2
		c6.3,3.5,10.5,2.3,14.7-6.7c2.2-4.7,5.1-7.8,10-9.1c0.5-0.1,1.1-0.5,1.4-0.4c7.9,3.7,10.1-3.1,13.6-7.4c0.5-0.6,1-1.5,1.7-1.8
		c7.1-3.2,7.5-10,9.3-16.2c1.2-4.2,2-8.6,4.1-12.3c3.3-5.8,7.6-10.9,11.4-16.4c1.3-1.8,3-3.8,3.3-5.8c0.5-4.4,2.9-6.5,6.6-8.3
		c2.5-1.2,4.9-3.2,6.6-5.4c5.8-7.2,12.7-4.4,17.1,1.7c1.8,2.5,3.8,4.9,6.2,6.8c2.4,2,4.5,1.4,6.3-1.7c2.6-4.3,6-8.1,9-12.2
		c2.9-3.9,6.7-3.6,10.7-2.3c4.5,1.5,7.1,4.3,7,9.5c-0.1,3.7,0.8,7.5,1.3,11.6c4.2,0.9,8.3-0.1,11.2-3c5.4-5.4,10.1-11.5,15.3-17.1
		c3-3.2,6.5-6,10.1-9.2c-3.1-7.2-2.7-8.5,5.8-12.8c3.2-1.6,6.8-2.2,10-3.7c4.9-2.4,9.7-5.1,14.4-7.8c3.2-1.9,6.1-4.3,9.3-6.3
		c2.8-1.8,4.5-3.6,2.4-7.1c-1.1-1.9-1.7-4.2-2.5-6.3c-6.1-1.4-12.5-2.7-14.2-10c-0.8-3.4-2.8-7.1-0.4-10.5c0.5,0,1,0,1.6,0
		c0.5,2.6,1,5.3,1.6,7.9c1.9,7.9,7.5,9.5,14.8,6.2c4.5-2,10.2-1.1,15.7-1.5c2.3-17,19-16.7,30.8-8.4c4.1,2.9,7.3,3.6,11.6,1
		c4-2.5,8.2-4.7,12.3-7.2c0.8-0.5,1.7-1.7,1.8-2.6c0.5-6.8,5-10.3,10.2-13.3c3.9-2.3,7.9-4.5,11.7-6.9c4.4-2.8,9.2-3,14.2-3.2
		c2.5-0.1,4.9-2.2,7.3-3.6c2.9-1.7,5.4-3.9,8.4-5.5c5.7-3.1,11.9-5.3,17.3-8.9c4.9-3.3,9.1-3.1,14.2-0.9c4.3,1.8,9.1,2.3,13.3,4.3
		c2.8,1.3,4.8,4.3,6.7,7.1c4.2,0.4,9.3-4.3,13.4,3c0.4-0.3,0.8-0.7,1.1-1c0.8-3.6,2.3-7.3,2.2-10.9c-0.2-6.6,3.5-10,8.2-13.4
		c1.8-1.3,3.2-3.7,3.9-5.8c1.7-5.8,6.2-8.5,11.7-6.7c7.4,2.4,7.4,2.4,11.4-4.4c2.1-3.7,5.1-5.4,9.1-3.7c1.6,0.7,3.1,2.6,3.8,4.4
		c2.2,5.4,5,6.9,10.3,4.5c7-3.2,14-3.3,21.6-2.3c4.9,0.7,11.1,1.2,13.6-5.5c0.2-0.4,0.6-0.8,1-1.1c8.5-5,11.2-13.8,14.1-22.3
		c2.7-7.9,5.2-10.1,13.4-3.4c-4,7.8-7.7,15.5-11.9,23c-1.6,2.9-4.3,5.2-6.5,7.7c-0.8,0.9-2.1,1.4-2.5,2.4c-3.2,8.5-11,7.5-17.7,8.4
		c-3.9,0.5-7.9,0.1-12.2,0.1c0,1.7,0,3.1,0,4.6c0.6,0.1,1.1,0.4,1.5,0.3c7.1-1.6,13.9-1.2,20,3.2c0.8,0.6,2.2,0.9,3.2,0.8
		c5.9-0.4,10.1,3,14.6,6c2.3,1.6,5.1,2.7,7.5,4.1c5.1,2.9,10.1,5.9,15.2,8.7c3,1.6,6.2,2.9,9.2,4.5c3.3,1.7,4.2-0.3,5.6-2.7
		c1.2-2.1,2.9-4.4,4.9-5.2c1.1-0.4,3.5,2.2,5,3.8c1.2,1.3,2.1,2.9,3,4.5c3.6,6.3,3.5,6.2,10,4c0.9-0.3,2.1,0,3.2,0
		c1.6,0,3.9,0.6,4.7-0.2c3.5-3.4,6.8-2,10.3-0.4c0.7,0.3,1.5,0.8,2.2,0.9c12.2,1.2,17.3,9.9,20.9,20c0.8,2.4-0.4,5.4-0.2,8.1
		c0.5,7.9,1.5,15.7,1.7,23.6c0.1,6.9-0.7,13.8-0.9,20.7c-0.3,11-7.1,18.3-14.2,25.5c-4,4.1-6,8.6-4.9,14.9c0.7,4.4-1,9.3-2.1,13.9
		c-1.5,6.4-1.3,7.1,5,8.6c18,4.2,36.1,8.4,54.5,12.6c3.4-7.2,6.6-14.1,10-21c2.6-5.4,5.9-6.9,11.6-5.6c1.4,0.3,2.9,0.6,4.3,0.7
		c3.3,0.1,5.4,1.2,6.4,4.7c1.5,5,4.6,8.9,9.2,11.7c1.9,1.2,3.4,3.2,5,4.8c1.1,1.1,2,2.8,3.4,3.2c4.6,1.6,8.6,3.9,12,7.4
		c0.9,0.9,3.3,1.3,4.5,0.7c3.4-1.5,6-0.5,7.7,2.2c3.8,6.3,11.1,7.1,16.6,10.8c2.1,1.4,5.7,1.1,6.3-3.6c0.6-4.9,2.2-9.8,3.3-14.6
		c0.5-0.1,0.9-0.2,1.4-0.2c0.4,1.6,1.2,3.3,1,4.8c-0.7,4.3-1.7,8.6-2.9,12.8c-0.4,1.3-1.7,3.3-2.7,3.4c-6.5,0.7-5.5,5.4-5.1,9.5
		c0.8,7.6,3.2,15.4,2.5,22.8c-0.6,6.3-4.3,12.4-7.1,18.3c-1.4,2.8-3.9,5-6.5,8.2c3.2,1.3,5.6,2.1,7.8,3.4c9,5.2,18,10.4,26.9,15.8
		c4.3,2.7,8.6,3.2,13.6,2.3c5.3-1,10.8-1.1,16.2-1.5c12.4-0.7,24.7-1.2,37.1-2.1c13.8-1,27.5-2.2,41.7-3.4
		c-3.6-8.3-0.1-13.5,6.5-18.1c7.4-5.1,14.3-10.9,21.3-16.6c0.9-0.7,1.6-2.9,1.2-3.9c-4.4-10.3,0.4-19.4,3.8-28.5
		c1.2-3.2,4.8-5.8,7.9-7.8c7-4.7,6-11.6,5.6-18.4c-0.2-2.7-1.2-5.4-1.5-8.2c-1-7.7,0.4-10.2,7.2-13.8c5.6-3,11.2-6.1,16.6-9.4
		c1.4-0.8,2.1-2.7,3.2-4c1.8-2.3,3.3-5.2,5.6-6.9c5.6-4.2,11.2-9,17.6-11.3c6.9-2.5,14.7-2.6,22.1-3.7c4.5-0.7,9.2-0.8,13.5-2
		c9.4-2.6,16.3-11.5,15.9-21.3c-0.3-8.9,3.8-16.2,7-23.7c4.5-10.8,10.9-20.9,14.9-31.8c4.4-12,13.6-16.5,24.6-19.1
		c21.5-5.1,43.4-3.9,65.2-4.1c2.3,0,4.9-0.9,7-2c9.6-5,19.9-4.1,30-3.8c4.5,0.1,9.7,0.3,13.2,2.6c5.3,3.5,9.6,8.6,13.8,13.5
		c3.6,4.2,6,9.5,9.9,13.3c2.2,2.2,6.3,3.2,9.7,3.4c9.9,0.7,19.9,0.8,29.8,1.2c3.1,0.1,6.2,0.6,9.3,1c3.1,0.4,4.2,2.5,3.8,5.3
		c-1.4,10.5-2.7,21.1-4.6,31.5c-1.1,6.1-1.2,11,2.1,17.1c4.3,7.8,6.8,17,8.1,25.9c1.3,8.9,4.5,16.9,7.8,25.1
		c1.8,4.4,3.2,8.9,4.5,13.4c1.8,5.7,5.1,10.1,10.6,12.5c9.6,4.2,19.1,8.3,28.8,12.2c7.5,3.1,10.6,8.6,11.9,16.4
		c0.7,4.4,4.6,8.3,7,12.4c1.8,3.1,3.6,6.2,5.2,9.3c3.8,7.2,6.8,15,15.9,17.8c4.4,1.4,8.5,4.2,12.6,6.5c3.3,1.9,5.7,2.2,8.1-1.8
		c5.9-9.8,10.5-19.7,6.6-31.7c11.4,4.3,14.5,13.6,8.3,23.4c-1.3,2-2.2,4.4-3,6.6c-2.3,6.3-6.5,10.8-12,14.7c-2.9,2.1-4.3,6.6-6,10.1
		c-5.5,11.3-11.3,22.1-24,27.1c-5.5,2.1-8,5.8-8.5,12.6c-0.6,8.4-2,17.3-11.9,21.7c-6.6,2.9-12.8,7.3-18.3,12.2
		c-5.1,4.5-9.1,10.4-13.2,15.9c-3.9,5.2-7.5,10.7-11,16.2c-4,6.3-3.3,13.4-2.8,20.4c0.5,7.2,0.4,14.6,0.1,21.8
		c-0.4,11.4-2.7,22.6,6,32.9c3.1,3.8,2.4,11.3,2.3,17.1c-0.2,7.7-1.6,15.3-2.5,23c0.4,0.1,0.8,0.3,1.2,0.4c3.5-4.1,7-8.2,10.5-12.3
		c0.4,0.1,0.7,0.2,1.1,0.3c-0.5,1.9-0.7,4-1.6,5.7c-1.2,2.1-3,3.9-4.6,5.8c-5.3,6.2-5.2,6.2-0.8,12.9c2,3.1,4.2,6.3,5.7,9.7
		c4.1,9.2,12.9,13.7,19.5,20.5c6.1,6.3,12,12.8,17.3,19.8c1.4,1.9,1,6,0.2,8.7c-2.3,8-1.1,15.6,1.1,23.5c2.2,7.7,3.2,15.6,5.3,23.3
		c2.5,8.9,9.2,14.3,17.4,18c1.8,0.8,3.9,1.6,4.9,3c6.1,8.8,12.5,17.6,17.7,26.9c2.3,4,2.8,9.5,2.7,14.3c-0.4,11.2,0.8,21.9,5.4,32.3
		c5.2,11.9,2.8,22.1-6.3,31.3c-7.5,7.6-5.7,20.4,2.9,27.4c8.3,6.8,15.2,15.5,22.2,23.8c4.1,5,7.9,9.2,15.1,9.1
		c3.1,0,6.3,1.4,9.6,2.2c0,3.2,0,6.2,0,9.6c-10.1-1.8-20.3-1.5-28-9.1c-1.2-1.1-2.2-2.5-3-3.8c-6.1-10.1-13.8-18.5-23.4-25.6
		c-8.5-6.3-12.3-17.7-8.2-30.7c-5.1-2.8-10.2-5.6-15.8-8.6c-3.2,6.5-9.3,6.3-15.3,5.9c-7-0.4-12.4,1.9-17.6,6.9
		c-5.1,4.9-11.6,8.3-17.7,12.1c-1.2,0.7-3.5,0.7-4.9,0c-8.4-3.8-16.3-8.1-21.1-16.8c-4.3-7.9-12.7-11.1-20-15.2
		c-2.8-1.6-6.3-2-9.5-3c-5.4-1.7-11-3.1-16.3-5.1c-8.9-3.4-12.3-3.4-17.7,3.9c-5.4,7.3-13.2,11.1-20.1,16.2
		c-3.7,2.7-6.2,5.4-4.3,10.7c0.7,2.1-0.5,5.7-2,7.7c-6.7,9.2-7.1,19.4-4,29.5c2,6.7,2,12.5-0.4,18.8c-1,2.7-1,5.8-1.2,8.7
		c-0.4,4.7-2.3,6.7-6.9,5.5c-10.6-2.7-21-5.8-31.4-9c-12.9-3.9-25.8-8-38.7-11.9c-4.5-1.3-7.6-4-8.9-8.4c-1.2-4.2-4.9-3.3-7.2-3.3
		c-2.2-0.1-5.3,1.2-5,5.3c0.7,7.7,2.6,14.6,7.7,20.6c1.5,1.7,2.2,4,3.4,5.9c2.1,3.2,4.8,6.1,6.6,9.4c1.5,2.7,3.4,6.3,2.7,8.8
		c-0.5,1.8-5,3.2-7.8,3.5c-17.4,1.6-34.8,2.8-52.2,4.1c-5.6,0.4-11.2,0.7-16.8,1c-12.4,0.7-24.8,1.2-37.1,2.1
		c-10.3,0.7-20.6,2-30.9,2.8c-1.9,0.2-3.9-0.5-5.8-1c-11.3-3.4-22.6-7.2-34-10.4c-19.1-5.3-38.3-10.2-57.4-15.2
		c-3.1,6-2.1,10.2,3.4,12.6c7.4,3.4,8.7,11,12.2,17c1.2,2,2.4,4.1,4.1,5.6c4.6,3.9,7.5,13.3,5.7,19.1c-0.9,2.6-1.6,5.2-2.4,7.9
		c-8.8-2.9-9.3-3.6-7.7-9.3c-9.6-4.6-19.3-8.8-28.6-13.8c-6.9-3.8-14.2-6.1-21.9-6.2c-9.6-0.1-18.6-2.4-27-6.2
		c-8.2-3.7-16.2-4.1-24.4-0.9c-8.4,3.3-16.2,2.3-24.2-1.7c-5.3-2.6-11.3-3.9-17.6-5.9c-3.1,4-6.7,8.3-9.9,12.8
		c-3.5,4.9-2.5,10.2,0.2,14.9c2.4,4.3,2,7.9-0.1,12c-6.6,12.5-13.1,25.1-24.1,34.5c-8.9,7.5-17.7,15.3-26.8,22.5
		c-1.9,1.5-5.6,2.6-7.3,1.7c-1.7-0.9-2.9-4.6-2.6-6.9c2.1-18.4-5.3-34.8-10.3-51.6c-0.4-1.4-2.4-3.1-3.7-3.2
		c-9-0.9-18.1-1.3-27.1-2.2c-20.4-2.1-40,2.6-59.9,5.9c-4.8,0.8-9.7,1.7-14.6,2c-2.9,0.2-4.4,0.7-4.8,4.1c-0.6,4.1-2.6,8.1-3.3,12.2
		c-0.5,3.1,0.2,6.5,0.6,9.7c0.5,4.4,0.7,8.9,2.1,13c1.3,3.9,3.9,7.4,6.2,10.8c1.2,1.8,2.8,3.3,4.5,4.7c8.5,7.3,2.6,14.8,0,21.9
		c-2.4,6.3-6.3,11.9-8.7,18.1c-2,5.2-3.1,10.9-4,16.4c-1,6.8-1,13.8-2.2,20.5c-2.2,12.4-10.9,20.2-20.3,27.3
		c-9,6.8-17.6,13.8-22.7,24.3c-2.2,4.6-11.1,4.3-14.1-0.9c-3.2-5.4-6-11.3-7.6-17.4c-1.1-4.3-1.3-9.2,3.4-13.1
		c5.2-4.4,5.6-11.2,6.3-17.5c1.7-15.4-1-30.4-6.1-44.9c-1.1-3.3-3.7-4.9-7.4-4c-2.7,0.7-5.5,0.9-8.1,1.9c-4.6,1.7-6-1-7.4-4.5
		c-1.8-4.5-4.1-8.7-5.8-13.2c-1.3-3.4-2.3-7-3.1-10.5c-0.6-2.5-0.7-5.2-1-7.8c-0.7-5.6,0.6-10.9,3.3-15.6c5.5-9.7,8.9-20,9.5-31
		c0.2-3.5-0.3-7.6-2.1-10.4c-5.1-8.1-7.3-16.9-8.9-26.1c-0.9-5.1-2.9-9.7-6.8-14c-3.8-4.1-4.7-10.8-7.1-16.2
		c-2.1-4.7-2.1-9,1.2-13.1c0.8-1,1.7-2.1,2.7-2.9c8.3-6.6,10.1-10.9,6.3-20.7c-1.9-4.9-1.3-9.3,1.3-12.5c8-10.1,6-18.8-1.6-27.8
		c-6.3-7.5-12.1-15.5-18.2-23.2c-0.7-0.9-1.7-1.6-0.9-0.5c-5.8,4.7-12,8.9-17.1,14.2c-6.5,6.7-12.4,14-17.7,21.7
		c-4.9,7-9.6,14.4-12.7,22.3c-2.8,7-8.4,10.1-13.7,13.9c-1,0.7-3.6,0.7-4.4,0c-3.6-3.3-7.5-6.7-10.1-10.8
		c-3.7-5.9-6.3-12.5-9.5-18.7c-0.4-0.8-1.3-1.5-2.1-2.1C2473.5,1490.5,2469.5,1487.8,2465.2,1484.9z M2825.2,1142.1
		c-1.5-2.7-2.6-5.6-4.5-7.7c-2.4-2.6-3.6-4.9-1.7-8.3c2-3.4,4.7-4,8.4-3.4c5.8,0.9,11.8,2.1,17.1-2.6c1-0.9,4.4-0.1,5.9,1
		c5.6,4.3,11.5,7,18.4,3.8c4.2-1.9,8.4-4.4,11.8-7.4c2.9-2.5,1.6-6.5-1.9-8.7c-1.1-0.7-1.8-1.9-2.7-2.8c-4.6-4.5-7.4-9.9-9.8-16
		c-2.4-6.4-7.3-11.8-10.5-18c-2.1-4-3.4-8.4-4.9-12.7c-0.8-2.3-1.6-4.6-1.8-7c-0.6-8.9-3.6-16.1-12-20.5c-1.8-0.9-3.4-3.3-3.9-5.3
		c-2.1-8-6.2-14.8-11.3-21c-4.1-5-4.2-12.6,0.8-16.6c2.5-2,5.3-3.8,7.9-5.8c4-3.1,7.2-0.7,9.6,1.9c1.2,1.3,0.9,4.2,1.4,7.2
		c2.5-5.1,5.4-3.8,9.3-2.4c3.1,1.1,6.9,0.2,10.4,0c0.6,0,1.2-1.3,1.7-2.1c2.3-4,5-7.9,6.9-12.1c2.4-5.2,5.4-10.6,5.9-16.2
		c0.6-7.3-0.9-14.7-1.8-22.1c-0.2-1.8-1.3-4.8-2.4-5c-7.1-1.2-10.1-11.1-18.8-8.5c-0.5,0.1-1.2-0.5-1.7-0.8
		c-7.1-5.5-16.3-7.8-22-15.4c-3.9-5.2-8.6-9.8-13-14.5c-1.1-1.2-2.5-2.9-3.7-2.8c-1.3,0.1-3.1,1.6-3.8,2.9
		c-3.6,6.6-6.9,13.4-10.2,20.2c-1.5,3.3-3.6,4.2-7.1,3.4c-21.1-4.9-42.2-9.8-63.3-14.6c-7.7-1.7-8.8-3.8-7.1-11.8
		c1.5-7.4,4.6-14.5,3.3-22.4c-1.1-6.6,2-12.5,6.5-16.8c6.5-6.4,12.4-12.7,12.5-22.5c0.1-8,0.1-16.1,0.1-24.1c0-6-0.7-12.1-0.2-18
		c0.4-5.1-4-16.5-8.6-17c-4.6-0.5-9.5-4.7-14.3-0.2c-0.6,0.5-2.3-0.3-3.5-0.2c-2.2,0.2-4.7,0.1-6.6,1.1c-4,1.9-7.6,1.6-10.6-1.4
		c-2.3-2.2-4.2-5-6-7.2c-2.9,1.2-6.3,3.9-8.7,3.2c-6.3-1.8-12.3-5-18.2-7.8c-3.8-1.8-7.3-4-10.9-6.1c-3.3-1.9-6.8-3.7-9.9-5.8
		c-3.4-2.3-6.7-4.6-11.2-4.1c-1.6,0.2-4-0.3-5-1.4c-4.6-5.1-10.5-4.2-15.8-3.1c-8.2,1.8-12.5,1.2-12.5-9.4c0-0.8-0.1-1.6-0.2-2.8
		c-8.2,4.1-14.3,0.7-19.7-5.6c-5.6,6-11.6,9.6-18.5,6.5c-3.2,3.6-5.8,7.4-9.3,10c-3,2.2-4.4,4.4-4.4,8.1c0,2.9-0.3,5.9-1,8.7
		c-2.2,8.7-8.9,11.6-16.4,7.4c-1.1-0.6-2.7-0.6-4-0.4c-5.5,0.6-11.1,2.1-13.7-5.2c-0.2-0.7-1.4-1.2-2.3-1.6
		c-3.7-1.7-7.3-3.6-11.1-4.7c-2-0.6-4.6-0.4-6.6,0.4c-6.6,2.8-13,6-19.4,9.2c-1.3,0.7-2.7,1.6-3.6,2.7c-4.2,4.9-9.3,8.7-15.8,7.1
		c-3.9-0.9-6.3,0.4-9.1,2c-3.8,2.2-7.3,5.1-11.2,6.9c-4.3,1.9-5.4,4.9-5.9,9.1c-0.2,2-1.9,4.4-3.6,5.5c-4.3,2.9-8.9,5.4-13.6,7.6
		c-4.2,2-8.3,5.5-13.6,3.2c-4.1-1.8-8.2-3.5-12.1-5.7c-6.5-3.7-11.9-1.4-12.9,5.8c-1,7.3-7.2,10.3-13.8,6.7c-1.1-0.6-2.4-0.6-4.1-1
		c0.7,1.5,0.9,2.4,1.5,3.2c5.3,7.9,1.2,12.8-5.3,16c-2.2,1.1-4.7,2-6.3,3.7c-6.9,7.2-15.2,11.7-25,13.4c-2.1,0.4-4,1.6-4.9,2
		c0.6,3.6,2,6.7,1.2,8.9c-1,2.4-4.1,3.9-6.2,5.8c2.6,1,6,1.4,4.8,5.8c-1,3.7-1.9,7.5-2.5,9.9c3.3,3.9,6.3,6.6,8.4,10
		c4,6.3,8.6,11,16.4,12.8c7.3,1.7,10,9.7,6.6,16.6c-0.9,1.9-1.9,3.8-2.8,5.8c-0.4,1-0.7,2.1-0.8,3.3c-0.4,3.3-0.6,6.5-1,9.8
		c-0.8,6.9-6.4,11.6-6.8,19.5c-0.5,9.5,2.5,17.2,6.4,24.4c4.7,8.7,6.6,16.2,0,24.4c-0.1,0.2-0.1,0.5-0.2,0.7
		c6.1,2.9,7.8,3.3,5.6,11.7c-0.1,0.3,0,0.7,0,1c-0.3,12.4-0.7,24.9-0.9,37.3c0,1.4,0.4,3,1.2,4c7.5,10.3,15.2,20.5,22.6,30.8
		c0.9,1.2,1.3,3.3,0.9,4.7c-2.8,10.9-5.9,21.6-8.6,32.5c-0.3,1.2,0.6,3.3,1.6,4.1c11.5,10.1,23.1,20.1,34.6,30.1
		c1.2,1.1,2,2.7,3.2,4.4c-2.8,0.8-4.8,1.5-7.3,2.2c7.8,5,15.3,9.5,22.5,14.5c8.2,5.7,17,8.4,26.9,9.1c9.1,0.7,18.1,2.6,27.3,4
		c-0.3,1.7-0.5,3.1-0.8,4.5c2.2,0.5,4.3,1.1,6.4,1.3c6.7,0.7,13.4,1.6,20.1,1.9c5.3,0.3,10.7,0.4,15.9-0.4c4.1-0.7,7.8-3.1,11.8-4.6
		c1.5-0.5,3.2-0.5,5.2-0.7c-0.5,1.9-1.2,2.9-1.1,3.8c0.7,4.8,1.8,9.5,2.2,14.3c0.5,5.6,1.2,10.7,4.8,15.6c2.3,3.1,2.4,7.9,3.1,11.9
		c0.1,0.8-1.2,2.1-2.1,2.8c-4.7,3.2-9.5,6.3-14.2,9.5c-4.4,3-5.7,7.9-4,13c0.5,1.5,0.6,3.3,0.5,4.9c-0.2,4.4-0.2,8.9-1.1,13.3
		c-1.5,7.6-3.2,15.2-5.6,22.6c-1.1,3.4-1.1,6,0.2,9.3c2.6,6.5,7,12.7,4.6,20.4c-0.3,1.1,0.2,2.7,0.8,3.7c2.8,4.6,5.5,9.2,8.7,13.5
		c0.9,1.2,3.7,2.2,5,1.7c3.5-1.3,5.8-0.3,7.8,2.4c6.1,8.1,12.1,16.3,18.6,25.1c2.4-2.6,5.3-5.6,7.9-8.8c5-6,9.9-11.6,18.7-12.3
		c7-0.6,9.2-3.7,10.5-10.9c0.3-1.6,1.6-3.3,2.9-4.3c6.3-4.6,12.7-9,19.3-13.2c1.5-1,3.7-1,5.6-1.4c4-0.8,8-1.4,11.9-2.4
		c3.2-0.8,6-1.3,8.3,1.8c0.5,0.7,1.5,1.5,2.3,1.6c4,0.4,5.2,3.2,5.5,6.4c0.7,8,3.6,15.1,7,22.2c1.2,2.6,0.8,6.1,1,9.2
		c0.1,1.5-0.7,3.7,0,4.3c1,0.9,3.2,1,4.6,0.5c3.8-1.2,6.9-1,9.9,2.1c2.1,2.2,4.7,4.5,7.4,5.5c4.5,1.5,9.4,2.7,14.1,2.3
		c1.5-0.1,2.4-5.4,4.2-8c2.3-3.4,4.6-7.9,8-9.1c4.8-1.7,5.1-4.3,4.6-8.1c-0.2-1.6-0.6-3.2-0.7-4.8c-0.1-5.7,0.3-11.4-0.2-17.1
		c-0.4-4.5-0.8-9.5-3.1-13.1c-2.8-4.4-7.2-8.2-11.7-11.1c-4.5-2.8-6.6-6.6-7.9-11.1c-1.9-6.4-1.1-7.1,5.4-9.2
		c1.7-0.5,4.1-2.7,4.2-4.3c0.8-8,5.7-12.4,12.1-16.1c1.5-0.9,2.5-3,3-4.8c0.5-1.7,0.1-3.6,0.1-5.5c0.1-2.9,1.4-4.3,4.6-4.3
		c3.9,0,7.9-0.3,11.8-1c5.9-1,12-1.6,15.2-8c1-2,2.5-4.3,4.4-5.2c3.7-1.8,3.3-4.5,2.6-7.5c-1-4.2,0.4-6.5,4.2-5.6
		c4.7,1.1,4.8-1.8,6.3-4.7c1.7-3.5,4-7.6,7.1-9.3c4.9-2.7,10.8-3.6,16.3-5.2c2.1-10.1,2.1-10,12.2-10.5c1.4-0.1,4-1.5,4-2.3
		c-0.1-5.7,4-7,8-8.5c5.5-2.1,8.4-7,7-12.6c-1.1-4.4-2.5-8.8-3.6-13.2c-1.7-6.8-0.9-13,5.4-17.3
		C2818.5,1146,2821.6,1144.2,2825.2,1142.1z M2184.6,1427.1c-8.3-7.6-16.3-15-24.4-22.3c-0.6-0.6-1.8-0.6-2.7-0.8
		c-6.2-1.4-12.4-2.4-18.5-4.2c-3.7-1.1-6.9-3.6-10.6-4.7c-4-1.3-8.3-1.4-12.4-2.7c-4.7-1.4-9-3.3-14.1-0.7c-1.3,0.7-5.1-0.5-5.8-1.8
		c-2.5-4.7-5.4-9.7-6-14.8c-1.2-11.5-0.5-23,4.9-33.7c3.3-6.5,6.9-13.1,3-20.8c-0.7-1.5-0.1-4,0.5-5.8c2.8-8.3,1.3-16.3-1.8-24.1
		c-0.5-1.2-2.6-2.8-3.3-2.5c-5,1.9-7-1.4-9.4-4.6c-0.9-1.2-2.1-2.5-3.4-3.2c-4.5-2.4-9.2-4.5-14.1-6.9c-0.3,1.5-1,4.1-1.4,6.8
		c-0.3,2.5,0.6,6.2-0.6,7.2c-4.7,3.6-2,9.6-6.1,13.8c-4.2,4.3-5.5,11.3-8.5,16.8c-2.3,4.1-5.4,7.7-8,11.6c-2.3,3.5-5.7,2.5-8.8,2.2
		c-3.7-0.3-3.1-3.5-3.2-5.7c-0.2-2.1,0.8-4.3,0.8-6.4c0.1-3.3,3.6-7.2-1.1-9.6c-3.9-2.1-8.2-3.4-12.3-5.3c-1.1-0.5-2.2-1.5-3-2.5
		c-4.2-5.1-4.3-11.5-5.1-17.6c-0.9-6.8,0.4-12.8,7-16.5c1-0.6,2.3-1.9,2.3-3c0.2-7.7,0.1-15.4,0.1-24.8c-2.1,2.1-3.5,3.2-4.4,4.7
		c-1.4,2.1-2,5.5-3.9,6.5c-5.9,3-9.1,7.9-11.8,13.4c-1.6,3.4-3.5,3.9-5.8,0.9c-4.8-6.3-10.3-12.2-12.7-20.1
		c-1.3-4.2-3.4-8.1-4.6-12.3c-0.9-3.1-2.9-3.3-5.4-3.7c-4.8-0.8-10-1-14.1-3.2c-4.1-2.3-7.3-2.5-11.5-0.9c-3.8,1.5-7.8,1.9-11.5-1.2
		c-3.8-3.3-8.2-4.1-13.2-2.5c-1.8,0.6-4.1-0.1-6.1-0.1c-3.4,0-6.9,0-9.4,0c-1.6,5.1-2.4,9.5-4.2,13.4c-3.8,8.3-6.9,17.2-12.5,24.1
		c-4.9,6.1-6.5,10.9-3.4,18c2.5,5.9,1.4,11.5-3.3,16.3c-5.7,5.8-6.3,10.7-1.9,17.5c2,3,1.6,5.3-1.7,6c-3.3,0.7-6.9,0.8-10.4,0.5
		c-2.6-0.2-5.8-0.8-7.7-2.5c-5-4.2-6.1-4.4-11.5-0.5c-1.4,1-4,2.4-5,1.8c-3.5-2.1-6.9-1.8-10.7-1.8c-1.6,0-4.8-2.2-4.7-3.1
		c0.7-7.2-4-10.8-8.7-14.6c-2.5-2-5.2-3.8-4.8-7.9c0.1-1.2-1.7-2.8-2.9-4c-1.4-1.5-3-2.7-4.4-4.1c-1.6-1.6-2.9-3.6-4.6-4.9
		c-5.5-4.3-11.6-6.7-18.4-6.2c-1.9,6.5,0.4,12.2,3.7,17.4c1.8,2.9,1.2,4.8-0.9,7.3c-1.6,2-3.6,5.3-2.9,7.3c1.5,4.9,4,9.7,6.9,13.9
		c5.8,8.2,11.3,16.2,10.9,27.1c-0.3,6.3,1.2,12.6,1.7,19c0.1,1-0.2,2.5-0.9,3.2c-3.6,3.4-2.3,7-1.2,11.1c2.1,7.6-1.7,11.4-9.4,10.1
		c-9.8-1.6-16.1,2.8-17.3,12.6c-0.5,3.6-0.2,7.4,0,11.1c0.2,4.6,0.2,9.3,1.2,13.8c0.5,2.4,3,6.3,4.6,6.3c6.7,0,8.2,4.4,10.3,9.1
		c0.7,1.5,2.5,2.9,4.1,3.5c2,0.7,4.7-0.1,6.5,0.9c2.1,1.2,5,3.4,5.1,5.3c0.2,5.3,0.5,9,7.4,8.8c3.3-0.1,6.8,4.9,5.7,7.4
		c-1.6,3.7-4.8,3.9-8.2,2.5c-1.3-0.5-2.7-0.8-4.6-1.3c-1.9,6.6-6.7,9-13.1,9.8c-6.7,0.8-13.3,2.6-20.1,4c-0.9-2.8-1.3-4.7-2.1-6.4
		c-0.6-1.2-1.8-3.1-2.7-3.1c-1.3,0.1-2.8,1.3-3.9,2.4c-4.3,4.4-8.4,9.1-12.9,13.4c-1.5,1.5-3.6,2.4-5.8,3.7c1.4,1,2.3,1.4,2.9,2.1
		c1.6,2,3,4.1,4.5,6.2c-2.2,1.2-4.3,2.8-6.6,3.7c-6.6,2.6-13.6,4.5-19.9,7.6c-6.8,3.4-12.9,8.1-21.3,6.7c1.2,4,1.5,6.9-4,6
		c-0.9-0.2-2.1,0.7-3,1.3c-5,3.6-14.2,2-16.8-1.9c-4.1-1.1-7-1.9-10.1-2.8c-2.1,2.6-4.2,7-9.6,3.5c-0.3-0.2-1-0.1-1.4,0.1
		c-5.7,2.7-11.2,3-17.1-0.2c-2.5-1.3-2.9-1.6-2.3-4.4c1.5-7.5,7.6-12.1,11-18.3c1.2-2.3,2.6-5.6,1.8-7.7c-1.9-5.3-4.2-10.8-7.7-15.1
		c-8.4-10.1-10.4-20.4-4.1-32.3c-7.1-4.5-14-9.2-21.3-13.2c-11.3-6.2-21.5-13.4-27.9-25c-1.9-3.4-1-10.8,1.9-13.2
		c1.6-1.4,3.3-2.7,5.1-3.9c6-4.3,6-9.5-0.3-13.4c-6.9-4.4-14-8.6-21.1-12.7c-6.5-3.7-9.3-12-5.3-16.4c3.7-4,8.4-2.6,13-2.3
		c6.6,0.5,13.9,4,19.6-4.5c-1.7-2-3.2-5.5-5.5-6.1c-3.3-0.8-7.1,1.1-10.6,0.9c-3.9-0.3-8.1-1.2-11.5-3c-0.9-0.4,0.5-5.3,0.9-8
		c0.2-1.1,0.6-2.2,0.8-3.1c-5.4-3.4-9.1,0.8-13,3.4c-10.4,6.8-19.4,7.5-27.6,0.1c-4.7-4.3-9.9-5.3-15.5-6.1
		c-3.6-0.5-6.8-1.1-8.9-5.4c-3.2-6.7-6.9-13.1-14.6-16.4c-3.8-1.6-7.2-5.2-9.5-8.7c-2.4-3.6-4.9-5.2-9.3-5.5
		c-10.1-0.8-21,1.1-29.9-7.4c-4.9,8.3-9.5,16.2-14,24.1c-0.3,0.6,0,1.6,0.1,2.3c3.5,19.6,7.2,39.1,10.6,58.7
		c1.2,6.8,2.9,12.9,10.3,15.5c0.9,0.3,1.7,1.2,2.2,2c5.3,7.6,10.5,15.2,15.8,22.9c0.6,0,1.4,0.1,2.3,0c9.1-1,16.2,2.1,20.9,10
		c1.8,3,4.2,3.5,7.5,4.2c8.7,1.8,17.8,3.3,24.9,9.2c8.7,7.3,10.3,17.9,11,28.4c0.3,5,1.1,9.6,4.1,13.4c3.6,4.5,2.5,10.4-1.1,14.4
		c-2.5,2.8-5.4,5.9-8.7,7.2c-6.3,2.5-9.9,6.9-14,12.1c-10.4,13.1-22.2,25.1-33.9,37.1c-2.5,2.6-4.6,4.9-4.8,8.3
		c-0.5,8.8,0.2,17.7,6.8,24c9.3,8.8,16.6,18.5,20,31c0.3,1,1.5,2.2,2.5,2.6c5,1.9,10.3,3.1,15,5.5c8.6,4.4,16.3,5.5,24.1-1.6
		c8.1-7.4,18.5-7,28.5-6.6c1.6,0.1,4.2,2.9,4.5,4.7c0.8,7,0.9,14.2,1.3,21c0.5-1.3,1.2-3.3,2.1-5.2c1.4-3.2,3.8-6.5,7.2-5.5
		c4.5,1.3,6.4-1.2,8.6-3.7c3-3.5,6.4-4.2,10.5-2.3c1.3,0.6,2.6,1.2,4.2,2c0.9-3.3,1.2-6.5,2.5-9.2c4.2-8.5,6.2-19.1,18.3-20.7
		c3.5-0.4,8-2,10.3-0.4c2.8,1.9,3.9,6.6,5.8,10.2c-0.4,0.1,0.3,0,0.9-0.3c7.2-3.3,8.7-3,12.5,4c1.9,3.4,4.9,4.6,8.4,5.2
		c4.2,0.7,8.3,1.5,10,6.5c0.8,2.3,2.7,4.3,4.1,6.4c3.7-3.4,7.4-4.3,12.3-3.2c5.1,1.1,10.4,3.6,15.9-0.3c2.7-1.9,11.5,1.1,13.3,4.2
		c4.6,7.9,8.8,15.9,13,24c1.5,2.8,1.8,6.3,3.3,9c2.9,5.1,7.3,9.5,9.3,14.9c3.8,10.2,10.6,15.8,20.9,18.7c5.6,1.6,11.5,4.3,15.9,8.1
		c5.2,4.4,8.6,10.7,13.3,15.7c4.3,4.6,8.3,9.3,15,11.6c8.8,3,15.1,8.9,14.6,19.8c-0.2,3.7,1,8.4,3.3,11.2c5.2,6.1,11.7,11,17.1,16.8
		c2.7,2.9,4.2,6.7,2.6,11.3c-2.7,7.4-1,13.9,4.5,19.8c3.3,3.4,5.8,7.5,8.5,11.4c4.5,6.4,6.2,13.6,4.2,21.1
		c-2.5,9.6-0.9,17.7,6.4,24.5c1.5,1.4,2.9,3.2,3.9,5c5.5,10.2,15.2,12.5,25.4,13.4c6.3,0.6,12.9-0.9,19,0.6c4,1,7,1.1,10.5-0.6
		c12.3-5.9,24.8-11.1,38.7-10.8c10.9,0.3,20.4-2.8,29.5-8.8c8.8-5.8,16.4-11.7,19.6-22.6c1.8-6.1,4.2-13.5,13.7-12.7
		c-1.9-4.1-3.8-7.6-5.1-11.4c-2.8-8.3-5.5-16.6-7.8-25.1c-2.7-9.7-5.5-19.4-7-29.3c-1.1-7.1,3.4-10.5,10.5-11.2
		c7.8-0.7,15.8-1.2,23.2-3.6c20.5-6.5,25.7-23.5,22.3-43.3c-2.3-13.2-7.6-25.8-11.5-38.7c-1.4-4.7,2-9.6,6.9-10.3
		c7-0.9,14-1,20.8,1.1c2.2,0.6,4.6,1.1,6.8,0.7c1.4-0.2,3.3-1.9,3.6-3.2c0.5-2.8,0.1-5.8,0.2-8.7c0.2-5.9,8-14,13.2-13.9
		c8.8,0.2,15.6,7,15.8,15.9c0.1,6.3,1,7,8,7.1c6.6,0.1,7.6-0.6,7.9-6.4c0.4-8,0.5-16,1.1-23.9c0.8-10.4-4.5-17.7-11.3-24.5
		c-1.5-1.5-2.3-4.4-2.4-6.7c-0.2-3.7,1.2-7.7,0.4-11.2c-1.2-5.1-1.6-9,4.3-10.8c-3.7-13.2-10.5-18.7-23.3-18.3
		c-7.6,0.3-11.8-2.4-14.4-10.5c-0.3-0.8-0.4-1.6-0.6-2.4c-4-14.3-4.9-28.5,3.3-41.8c2.7-4.4,6.4-8.3,9-12.8
		c7.4-12.5,17.2-22,31.2-26.8c3.1-1.1,5.9-2.9,8.8-4.4C2168.3,1435.3,2176.6,1431.2,2184.6,1427.1z M3012.1,1594.4
		c-2.2-9.5-5.3-18-14.8-21.6c-3.9-1.5-4.9-4.5-4.3-8.3c0.4-2.9,0.9-5.9,1-8.8c0.3-7.9,4.8-11.5,12.3-9.7c2.7,0.6,5.4,1.3,8,2
		c21.9,5.8,43.7,11.6,65.6,17.4c11.9,3.2,23.2,8,36.3,5.8c10.8-1.8,22-1.6,33.1-2.3c5.1-0.3,10.2-0.6,15.3-1
		c17.4-1.3,34.8-2.6,52.2-4c5-0.4,10-0.9,15.4-1.3c-1.8-3.9-2.5-8.3-5.1-10.8c-6-5.9-7.8-13.6-10.3-20.9c-2.3-6.7-1.8-14,4.7-18.8
		c5.9-4.4,12.5-4.6,19-1.2c1.7,0.8,3.8,1.9,4.4,3.4c2,5.1,5.8,7.2,10.9,8.7c19.6,5.8,39.1,11.9,58.5,17.9c1-3.7,2.2-7.1,2.9-10.6
		c0.4-2,1-4.4,0.2-6.2c-3-7.3-3.7-14.8-2.4-22.5c0.8-4.8,0.9-10.4,3.5-14c3.4-4.6,3.3-9.1,3.5-14c0-1.4,0.2-3.2,1-4.1
		c3-3.1,6.1-6.3,9.7-8.8c6.9-4.8,13.9-9.5,18.5-16.7c4.2-6.5,10.2-6.7,16.8-5.5c2.2,0.4,4.3,1,6.5,1.5c0.2-1,0.3-1.4,0.3-1.9
		c0-0.5,0.1-1.1-0.2-1.5c-4.8-8.6-9.3-17.1-18.9-21.9c-3.8-1.9-6.7-6.1-9.2-9.7c-1.3-1.9-0.9-4.9-1.4-8.1c-3.4,1.6-6.8,2.5-9,4.5
		c-6.7,6.1-15,5.1-21.3,2.3c-4.8-2.1-8.5-4.1-13.6-2.7c-0.7,0.2-1.7-0.1-2.4-0.4c-3.4-1.6-6.6-1.3-9.4,1.3
		c-5.4,5.1-12.3,5.3-18.6,3.9c-6.4-1.4-10.3,1.4-14.7,4.5c-1.7,1.2-3.3,2.7-5,3.9c-3.4,2.4-12,2.7-15.1,0.6
		c-4.1-2.9-1.7-6.3-0.4-9.9c-7.1-2.5-10.4-7.8-11.8-14.6c-0.4-2.1-1-4.1-1.5-6.2c-1.2-5.7-2.7-11.4-3.4-17.1c-0.4-3.3-1-5.1-4.8-6.1
		c-7.1-1.9-10.8-4.3-4.4-13.3c4.5-6.3,4.1-14.5-1.2-20.3c-2.7-3-2.5-6.7,0.6-9c0.5-0.4,1.4-0.7,1.4-1.1c0.4-6,5.1-9.3,8-13.8
		c2.5-3.8,6.1-8.1,3.1-13.4c-1.4-2.5-2.7-5.5-4.9-7.1c-4.5-3.4-9.8-5.7-14.4-9c-3.2-2.3-7.1-4.9-8.3-8.2c-1.5-4.3-3.4-7.4-7.1-10
		c-2.8-2-5-4.8-7.5-7.2c-0.9-0.9-2-2-3.1-2.1c-5.6-0.6-11.2-0.9-16.8-1.3c-8.9-0.7-17.7-1.5-26.6-2c-17-0.8-34.1-1.3-51.1-2.1
		c-11.3-0.5-22.5-1-33.3-5.4c-6.1-2.5-12.7-3.9-19.2-5.6c-19.4-5.1-38.9-9.6-58.1-15.2c-6.9-2-11.6-0.4-16.1,4.2
		c-3.1,3.2-6.1,6.5-8.9,9.9c-1.3,1.6-2.7,3.4-3.2,5.3c-3.9,14.6-7.3,29.4-11.5,43.9c-2.7,9.2-2.3,19.6-9.9,27
		c-2.3,2.2-4.4,4.5-6.5,6.9c-10.2,11.8-20,24.1-30.7,35.4c-8.2,8.6-17.7,15.8-26.5,23.8c-9.9,9-19.6,18.3-29.5,27.4
		c-2.9,2.6-5.9,5.8-9.4,7c-14.3,4.8-28.9,8.9-43.3,13.4c-9.3,2.9-18.5,5.9-28.9,9.2c3.8,5.4,6.2,11.5,10.6,14.6
		c8,5.5,8.9,12.5,8.4,20.9c-0.3,4.7,0.8,9.5,0.7,14.3c0,1.6-1.6,3.3-2.5,4.9c-1.5-0.8-3.2-1.5-4.4-2.6c-1.3-1.1-2.1-2.8-3.4-4.5
		c-1.2,1.4-2.9,2.5-3,3.7c-0.2,2.9-0.5,6.1,0.6,8.6c2.8,6.7-1.9,9.8-5.4,13.9c-1.6,1.8-1.9,4.8-2.5,7.4c-1.2,5.4-1.2,11.3-3.6,16.1
		c-3.2,6.5-6.9,12.4-6.7,20.1c0.2,6.9-2.4,12.7-8,17.1c-1.3,1.1-2.7,3-2.8,4.6c-0.9,11.1-1.5,22.2-2.2,33.6c0.6,0,1.7,0,2.8-0.2
		c7.5-1,15.1-2.8,22.6-2.7c12.7,0.1,25.4,1.5,38.1,2c11.6,0.5,15.4,2.8,18.6,14c4,14.3,11.3,27.9,10.1,44.1
		c8.3-7.1,17-12.9,23.5-20.5c7.3-8.6,12.8-18.8,18.8-28.5c0.8-1.3-0.1-4-0.9-5.9c-2.9-7.2-3.6-14.5,0.7-21.1
		c3.9-6,8.7-11.5,13.5-16.9c1.2-1.3,4.3-2.2,6-1.6c8.1,2.5,16.1,5.3,23.9,8.5c3.7,1.5,7.1,1.9,10.8,0.9c3.3-0.9,6.5-2.2,9.9-2.8
		c4.2-0.7,8.9-2,12.7-0.8c13.7,4.3,26.8,10.1,41.7,9.9c5.9-0.1,11.6,1.9,17,5.4C2998.6,1588.6,3005.6,1591.2,3012.1,1594.4z
		 M1696.1,1095.5c0.7,2.1,1.3,4,2,5.7c1.6,3.7,3.9,6.5,8.6,5.8c1.5-0.2,3.2-0.5,4.5,0c4.3,1.9,10.1,3,12.3,6.4
		c2.3,3.5,4.7,6.1,8,8.5c4.9,3.4,9.7,7,13.9,11.2c2.6,2.5,3.7,6.7,1,9.7c-2.8,3.1-5,8.3-11.3,5.5c-2.8-1.2-5.8-0.2-8.5,2.3
		c-3.2,3-7.2,6.3-11.3,7.1c-8.5,1.8-16.2-0.2-21.1-8.7c-2.5-4.3-7.3-3.8-10.3-0.3c-1.6,1.9-4.6,4.3-6.4,3.9
		c-2.2-0.5-4.6-3.4-5.5-5.7c-1.7-4.6-5.5-6.4-9.1-8.9c-7.4-5.1-14.5-10.5-21.5-16.1c-2.5-2-4-5-6.3-7.2
		c-6.3-5.9-13.8-10.8-19.1-17.5c-5.1-6.5-10.2-12.5-17.2-17c-2.4-1.5-4.7-4.3-5.7-7c-3.1-8.3-5.5-16.9-8.3-25.4
		c-2-6.2-4.6-11.5-11.6-13.9c-2.9-1-5-4.4-7.4-6.7c-0.8-0.7-1.4-1.6-1.3-1.5c-4.8,3.4-9.1,6.5-13.4,9.6c-3.2,2.3-7.1,4-9.4,6.9
		c-4.1,5.1-9,8.1-15.1,10.1c-3.4,1.1-7.2,3.7-8.9,6.7c-3.5,6.3-8.2,9.1-14,8.1c-3.4,4-6.5,7.1-9,10.6c-3.3,4.7-7.7,3.7-12.3,3.4
		c-4.7-0.3-9.4,0.2-14.1-0.1c-8.9-0.7-9-0.8-10.8,7.8c-0.3,1.5,0.5,3.6,1.5,4.8c1.4,1.8,4.1,2.7,5.1,4.5c4.7,8.3,11.2,6.9,18.2,4
		c0.6-0.2,1.3-0.2,1.9-0.4c5-1.5,7.4-0.7,8.4,4.4c1,5.8,0.6,11.8,1.2,17.7c0.2,2.3,1,4.6,1.9,6.8c1.5,3.9,3.8,7.7,4.8,11.7
		c0.6,2.3,1,3.6,3.2,4.7c3.8,1.9,5.2,4.8,2.5,8.8c-1.7,2.6-3.5,5.1-4.9,7.9c-3,5.6-6.1,11.3-0.7,17.4c1.4,1.5,2.2,3.6,3.2,5.5
		c3.1,5.7,0.9,15.3-4.4,18.9c-3.2,2.2-6.7,4-10,6.1c-10.5,6.8-18.8,15.5-23.8,27.2c-3.1,7.3-6.3,14.6-10,21.7
		c-4,7.8-1.7,15.4,5.7,16.3c7.5,0.9,15,1.5,22.6,2c4.3,0.3,7,2.4,8.8,6.3c0.9,1.9,2.7,3.7,4.4,4.9c7.6,5.3,16.2,9.5,19.3,19.3
		c1.1,3.4,3.8,4.7,7.2,5.2c6.5,0.9,12.4,2.2,17.8,7c5.7,5.1,13.1,6.3,20.2,0.8c2.9-2.3,6.2-4.6,9.7-5.5c3-0.8,6.6-0.1,9.8,0.7
		c0.6,0.1,0.5,4,0.3,6c-0.2,2-1,4-1.7,6.8c5.8,0,11.3,0.5,16.8-0.1c5.1-0.6,13,6.6,11.9,11.7c-0.1,0.5-0.4,1-0.7,1.2
		c-4.1,2.4-7.2,6.9-13,5.8c-3.9-0.7-7.9-0.4-11.8-1.2c-3.7-0.8-7.8-0.9-8.7,2.6c-0.6,2.4,2.4,5.8,4,8.6c0.3,0.6,1.4,0.8,2.1,1.2
		c7,4.3,14.2,8.6,21.1,13.1c7.9,5.2,7.8,12.2,0.5,18.1c-3.2,2.5-8.6,4.1-7.3,10c1.6,7.6,6.8,13.2,12.5,17.4
		c10.5,7.7,21.7,14.5,33.2,20.8c4.7,2.6,4.6,4.9,3.2,8.9c-1.5,4.2-4.3,8.3-1.8,13.1c3.7,7.3,6.7,15.2,11.3,21.9
		c6.2,8.9,4.1,16.2-2.4,23.3c-3,3.3-4.9,7.6-6.9,10.9c4.6,4.6,8.8,3.6,13.1,2.3c1.8-0.6,4.1-1.4,5.7-0.8c2.7,1,4,0,5.2-2
		c1.9-3.2,4.9-4.2,7.9-2.6c3.6,1.9,6.8,4.6,10.2,6.8c0.6,0.4,1.5,0.5,2.3,0.5c6.1,0.4,11.1-1.2,13.8-7.4c0.6-1.3,3-2.7,4.3-2.4
		c5.3,1.1,9.6-1.9,14-3.5c9.2-3.5,17.9-8.1,27.4-12.4c-2-1.1-4.4-2.4-7.3-4c1.5-2.1,2.6-4.5,4.4-6.2c5.6-5.4,11.8-10.3,17.2-16
		c4.7-5,8.3-4.8,11.1,1.6c1.5,3.5,3.9,4.6,7.8,3.4c4.2-1.3,8.6-1.8,12.7-3.2c2.6-0.9,5.8-2.1,7-4.2c2.5-4.5,5.3-5.8,10-3.8
		c1.2,0.5,2.7,0.3,4.6,0.5c-1.4-3.7-3.9-4.3-6.8-4.3c-3.5-0.1-5.4-2.1-5.7-5.6c-0.7-8.2-0.8-8.5-9-8.3c-3.9,0.1-5.7-1.8-7-4.9
		c-0.8-2-1.4-4-2.5-5.8c-0.6-1-2-2.1-3-2.1c-6.2-0.2-8.8-2.2-9.5-8.1c-0.8-6.7-2.2-13.4-1.8-20.1c0.3-5.7,1.2-12.3,4.4-16.6
		c3.9-5.1,9.9-8.9,17.8-5.9c4.2,1.6,6.3-1.1,5-5.5c-1.3-4.7-4-9.5,1.2-13.7c0.4-0.3,0.3-1.6,0.2-2.4c-0.6-7.2-2.2-14.4-1.7-21.5
		c0.5-7.3-3.9-12.2-6.5-18c-2.3-5.1-6.3-9.4-9-14.4c-3.5-6.3-2.2-11.8,3.8-16.6c-5.2-7.3-8.4-15.2-4.4-24.7
		c3.7,0.5,7.8,0.8,11.8,1.6c11.2,2.2,16,13,24.6,18.7c0.5,0.4,0.3,1.9,0.5,2.8c0.3,1.2,0.4,2.8,1.2,3.6c2.3,2.6,5.3,4.7,7.4,7.4
		c1.9,2.4,4.4,5.8,4,8.3c-0.7,4.5,1.6,3,3.6,3.1c1.9,0,4.6-0.6,5.7,0.4c3.3,3,5.6,1.1,7.9-1c3.5-3.4,8.1-3.1,11.1-0.9
		c5.6,4,11.2,4.9,17.8,4c-7.1-7.4-4.7-15.5,1.3-21.3c1.4-1.3,2.2-3.2,3.1-4.9c3.1-6-0.9-11.1-2.4-16.4c-0.7-2.6-1.2-4.6,0.7-7.1
		c4.4-5.9,8.7-11.9,12.2-18.3c3.1-5.7,6.2-11.8,7.3-18c1.6-9.3,2-8.3,9.1-10.1c2.5-0.6,5.3,0.4,8,0.7c1.6,0.1,3.5,0.8,4.8,0.2
		c4-2,7.6-1.1,10.8,1.3c6,4.6,11.9,3.5,17.2,0.8c0.4-3.5,0.5-6.6,1.3-9.5c1.5-5.3,0.6-10.2-1.4-15.1c-6.6-16.6-13.3-33.2-19.8-49.9
		c-0.4-1.1,0.5-3.6,1.4-4.1c21.4-10.2,42.8-20.2,64.2-30.3c14.3-6.8,28.6-13.6,42.8-20.6c1.3-0.6,2.3-2.5,2.6-4
		c0.8-3.5-1-5.1-4.5-5.2c-7.5-0.1-15.2,1.2-22-3.7c-0.6-0.4-2.3,0.6-3.4,1.2c-4.6,2.6-11.8,2.5-15.3-1.5
		c-4.3-4.9-8.7-10.2-11.3-16.1c-2.1-4.7-1.9-10.6-2.3-15.9c-0.9-13.5,4-25.3,10.9-36.5c3.4-5.6,3.9-8.2,11.6-3.7
		c6.7,3.9,8.8,3,12.2-4.1c1.1-2.3,1.5-5,2.4-7.4c1.6-4.4,0.3-10.1,5.9-12.6c4.3-2,4.5-5.4,3.6-10.9c-6.9,1.5-14.1,1.5-19.6,4.6
		c-7.8,4.5-14.6,5.3-22.3,0.9c-3.2-1.9-9.7,2-9.6,5.7c0.2,5.5-1.6,10.3-4.9,14.6c-4,5.2-8.1,10.3-11.7,15.7
		c-6.3,9.6-14.8,11.2-24.8,9c-0.2,0.3-0.5,0.5-0.5,0.8c-0.9,8.2-1.3,16.3-11.2,19.9c-2.6,0.9-4.3,5-5.8,7.9c-1,1.9-0.4,4.6-1.2,6.7
		c-1.6,4.5-4.2,8.8-5.3,13.4c-1,3.9-0.6,8.2-0.7,12.3c-0.2,8.3-2.1,10.9-10.2,12.7c-3.2,0.7-6.5,1-9.8,0.9
		c-7.7-0.1-12.9-7.4-10.7-14.8c0.7-2.3,1.7-4.4,2.6-6.7c-0.4-0.4-0.9-0.7-1.3-1.1c-0.9,1.4-1.5,3.2-2.7,4.1
		c-11,8.4-21.2,7.1-26.5-4.8c-1.8-4.1-2.3-8.7-3.6-13.1c-0.4-1.2-0.9-3-1.8-3.4c-4.2-1.8-8.2,0.8-9.1,5.5c-0.3,1.9-0.6,4.2-1.8,5.5
		c-2.6,3-5.5,6.1-8.9,7.8c-1.5,0.7-4.6-2.2-7.1-3.1c-2-0.7-4.3-1.3-6.3-1c-4,0.5-7.8,1.5-11.6-1c-3.1-2-6.5-2.6-10.4-0.9
		c-7,3.1-14.2,4.3-21.8,1.4c-1.1-0.4-3.8,1.1-4.7,2.5c-3.4,5.1-7.5,7.9-13.9,7.4c-6.6-0.5-8.8,1.4-11.3,7.8c-0.7,1.7-1.3,3.3-2,5
		c-2.4,5.6-9.2,8.5-14.9,8.4c-8.1-0.2-13.5-4.4-18.3-10.3C1700.9,1092.6,1698.5,1094.1,1696.1,1095.5z M2067.8,952.6
		c0.8,1.2,1.5,2,2.1,2.9c2.1,3.3,5.6,6.3,3.1,10.9c-2.2,4.3-4.2,8.8-6.8,12.8c-6.4,9.8-15.1,9.3-20.1-1.2c-2.1-4.4-6-5.8-10.1-6.8
		c-3.3-0.9-5.6,0.5-5,4.5c0.6,3.9-0.8,6.4-4.3,8.5c-1.8,1-3,3.5-3.8,5.5c-1.8,4.8-2.6,10.1-4.8,14.7c-3.8,7.9-6.9,8.7-14.6,4.9
		c-0.9-0.4-1.9-0.7-2.7-1.2c-2.3-1.5-3.8-1.2-5,1.5c-1.5,3.6-3.3,7.1-5.3,10.4c-7,11.5-7.2,23.7-4.9,36.4c0.7,4.1,1.6,7.6,5.6,9.6
		c1,0.5,1.5,2.4,1.7,3.8c0.7,5.3,6.4,9.9,11.2,8c5.5-2.1,10.5-5.1,15.8,0.2c0.3,0.3,1.3,0.1,2,0.1c5.3,0.3,10.7,0.4,15.9,1.2
		c1.9,0.3,4.8,2.5,4.9,4c0.1,3.8,2.2,8.4-3.6,10.9c-13.2,5.8-26.1,12.1-39,18.3c-19,9.1-38,18.4-57,27.5c-3.7,1.8-7.6,3.4-11.5,5.1
		c7.2,17.5,14.3,34.1,20.6,51c1.6,4.4,4.4,9.5,0.9,14.8c-0.9,1.3-0.8,3.7-0.3,5.5c1.8,7.4,4.9,9.6,13,9.6c6.3,0,11.7,1.1,13.7,8.2
		c1,3.6,1.8,7.4,3.5,10.6c3.5,6.7,7.5,13,11.1,19c4.1-4.9,7.4-8.8,10.8-12.8c1.9-2.3,5-4.2,5.7-6.7c1.3-5,3.8-6.4,8.4-5.3
		c4.2,1,4.1,4.3,3.8,7.4c-0.5,5.4-2.6,11-1.5,16c1.2,5.6-1.7,7.2-4.9,9.8c-1.6,1.3-3.1,3.4-3.3,5.4c-0.5,4.3-0.9,8.8,0.1,12.9
		c1,4,2.9,8.5,5.9,11.2c3,2.8,7.7,3.7,11.6,5.5c4.4,2.1,4.9,5.6,3.8,9.9c-0.9,3.7-1.3,7.6-1.9,11.7c6.9,0.8,9.3-3.7,11.7-7.6
		c3.5-5.9,6.7-12,9.7-18.2c1.6-3.3,2.7-6.8,3.9-10.3c0.5-1.5,0.9-3,1.5-4.4c0.8-1.7,2.2-3.3,2.6-5.1c0.9-3.8,0.8-7.8,2-11.5
		c1-3.4,5.2-4.2,6.8-1.3c2.6,4.5,6.9,4.9,10.9,6.7c1.9,0.8,4,2.4,4.9,4.2c1.6,2.9,3.6,4.1,6.7,3.7c3.4-0.4,5.3,0.9,6.6,4.3
		c3.2,8.2,5.8,16.3,2.3,25.1c-0.6,1.5-0.5,3.5-0.1,5.1c2.3,8.8-0.2,16.7-4,24.5c-7.2,15-7.1,29.8,1.4,44.7
		c6.5-3.2,12.9-1.5,19.2,1.1c2.5,1,5.3,1.5,8,2.1c2.5,0.6,5.2,0.8,7.5,1.8c6.4,2.9,12.4,6.5,19.8,6.3c4.4-0.1,8.6,1,11.7,4.9
		c3.1,3.8,6.7,7.2,10.4,10.4c3.2,2.8,6.8,5,10.8,7.9c0.1-1.5,0.3-2,0.1-2.5c-13-33.7-26-67.4-39-101.1c-2.8-7.2,1.7-15.4,9.3-16.2
		c5.2-0.6,10.2-3.4,15.7-1.6c0.9,0.3,2-0.3,3.9-0.6c-4.5-3.4-8.3-6.2-12-9c-3.8-2.9-4.2-7.8-0.6-9.2c9.3-3.8,18-9.8,28.9-8.1
		c0.7,0.1,1.5-0.1,2.6-0.2c-2-1.8-3.6-3.3-5.2-4.7c-4.1-3.7-8.2-7.3-12.3-11c-1.4-1.3-2.8-2.7-4.2-4c-3.8-3.7-2.1-6.3,1.5-8.9
		c6.8-4.8,13.6-9.6,20.2-14.6c1-0.8,0.9-3.1,1.2-4.8c0.4-2.4-0.2-5.8,1.2-7c4.6-3.9,6-8.7,6.7-14.2c0.4-2.8,0-4.3-3.3-4.6
		c-8.6-0.9-17.2-2.1-26.2-3.2c-0.4-1.4-1-2.9-1.3-4.5c-3.3-17-6.8-33.9-9.7-50.9c-0.7-3.8-3.9-8.5,1.6-11.6c1.8-1,4.3-0.9,5.8-2.2
		c6.5-5.6,13.6-6.2,21.3-3.1c0.6,0.2,1.2,0.5,1.9,0.5c3.7,0.2,4.5,2.2,3.9,5.7c-0.6,3.6,0,6.3,4.7,7.7c12.8,3.8,25.3,8.4,38,12.6
		c2.3,0.7,3.4,1.6,3.7,4.3c0.4,4.1,1.8,8.1,2.8,12.2c1,4,2.9,8.1,2.6,12c-0.5,5.9,0.3,9.2,5.2,13c1.3,1,3,2.9,3,4.3
		c-0.3,6.3,3.7,5.4,7.8,5c-3.5-11.2-6.3-22.6-10.7-33.3c-3.3-8,1.4-12.7,4.2-19.4c2.8,2.2,4.9,4,7.2,5.5c1.6,1,3.7,2.6,5.2,2.2
		c5.1-1.2,9.7-2,15.3-1.5c5,0.5,6.6,2.7,8.9,5.6c1.9,2.5,3.6,5.5,6.2,7.1c8.6,5.6,17.6,10.7,26.5,15.8c1.1,0.6,3,0.9,3.9,0.3
		c5.7-3.6,11.2-7.3,16.6-11.3c1.1-0.8,1.5-2.5,2.5-4.2c-1.4,0.4-2.1,0.6-3.1,0.9c3.5-27.5,5.4-55.1,16-80.6
		c-8.5-11.5-16.9-22.6-25.1-33.8c-0.7-0.9-0.9-2.4-0.9-3.7c0.6-13.9,1.4-27.7,1.8-41.6c0.1-1.6-1.2-4-2.6-4.9
		c-3.3-2.1-4.4-3.9-1.7-7.5c3.8-5.1,4.4-10,0.8-16.4c-5.4-9.4-10.2-19.4-8.6-31.1c0.6-4.2,1.3-7.8,3.6-11.5c3.2-5,7-10.3,3.7-16.9
		c-0.3-0.6,0.4-1.8,0.9-2.7c1.1-2.4,2.1-4.8,3.5-7c3.4-5.7,1.5-9.7-4.9-11.6c-8.2-2.6-13.6-7.8-18.2-14.6c-1.7-2.5-4.1-4.4-5.9-6.8
		c-1.1-1.5-2.2-3.4-2.3-5.2c-0.2-2.4,0.2-5,1.1-7.2c1.1-2.6,0.6-3.9-1.9-5c-2.5-1.1-4.2-1.1-5.6,1.7c-1.2,2.4-3,4.7-4.8,6.8
		c-6.7,7.7-13.9,14.9-24.3,17.6c-7.5,1.9-12-0.1-14.3-7.4c-1.4-4.5-1.3-9.4-1.9-14.3c-4.9,0.5-6.5,4.8-7.9,8.3
		c-4.9,12.2-18.9,12.3-26,1.8c-1.3-1.8-2.9-3.5-4.6-5.5c-4.6,5.8-13.5,7.1-14.2,15.9c0,0.5-0.8,1-1.2,1.5
		c-7.3,9.2-14.6,18.3-16.5,30.5c-0.6,3.4-1.2,7.2-3.1,9.9c-4.2,5.8-9,11.1-14.1,16.2c-3.4,3.4-7.5,5.9-12.9,3.9
		c-3-1.2-3.9,0.9-4.9,3.2c-4.1,9.6-13.9,19-26.5,11.8c-5.5-3.1-12.3-4-18.5-5.9c-4.8-1.5-10.1-2.1-14.1-4.8
		c-3.6-2.5-6.9-2.8-10.6-2.6C2077.7,951.3,2073.1,952,2067.8,952.6z M3332,1123.7c0.6-0.2,1.3-0.5,1.9-0.7c1.7-3.1,3.8-6.1,5.2-9.4
		c2-4.6,6-4.9,10-5c4-0.1,6.4,2.5,7.6,5.9c1.5,4.3,2.2,8.8,3.4,13.2c0.9,3.5,2.7,5.5,6.9,5.5c11.4,0,22.9,0.5,34.3,0.9
		c3.8,0.1,7.6,0.8,11.7,1.2c0-2,0.1-3,0-4c-1.8-10.3-0.1-19.7,6-28.3c1.8-2.5,3.6-5.1,5.3-7.6c9.4-14.4,20.7-26.9,36.1-34.8
		c7.1-3.6,8.8-9,9.8-16c0.7-5.1-0.5-11.2,5.3-14.6c2.8-1.6,5.5-3.5,8.2-5.3c3.2-2.1,7.3-3.6,9.4-6.5c5.3-7.5,9.7-15.6,14.9-24
		c-5.8-3-10.4-5.6-15.1-7.7c-5.7-2.5-11-5.2-13.6-11.6c-1.9-4.7-4.8-9.1-7.3-13.5c-0.6-1.1-1.5-2.1-2.2-3.2
		c-4.4-6.1-10.4-11.4-10.5-19.8c-0.1-3.8-2.3-5.7-5.3-7c-10.3-4.6-20.8-8.6-30.8-13.7c-6-3-11.4-7.2-13.1-14.5
		c-0.9-3.8-2-7.6-3.4-11.2c-3.8-9.8-8.5-19.3-10.1-30c-1.6-10.6-3.6-21.2-10.3-30.2c-1.6-2.2-2.2-5.9-1.9-8.7
		c0.5-5.1,2.3-10.1,3.2-15.3c1.2-6.5,2-13.1,3-19.8c-8.6-0.4-16-0.8-23.4-1.2c-5.8-0.3-11.6-0.4-17.3-1.1c-2.2-0.3-4.9-1.5-6.3-3.1
		c-5-5.7-10.1-11.5-14.3-17.8c-5.2-7.9-11.2-12.7-21.2-11c-2.6,0.5-5.4-0.2-8,0.1c-5,0.6-10.3,0.7-14.8,2.6
		c-6.9,2.8-13.9,3.8-21.2,3.4c-6.6-0.4-13.3-1.4-19.8-0.8c-11.6,1-23,3-34.5,4.5c-9.6,1.2-15,7-18.4,15.6
		c-2.4,6.2-5.3,12.3-8.2,18.3c-5.7,11.7-11,23.4-12.4,36.8c-1.1,11.3-12.1,25.9-26.8,25.7c-5.7-0.1-11.4,1.1-17.1,1.9
		c-4.2,0.6-8.6,0.8-12.4,2.4c-4.2,1.7-7.7,4.8-11.6,7.2c-3.4,2.1-6.3,4.3-6.9,8.6c-0.1,1-1.3,2.2-2.3,2.8
		c-6.6,3.9-13.2,7.9-19.9,11.5c-2.7,1.4-4,3.1-3.8,6.2c0.4,5.1,0.7,10.2,1,15.3c0.5,8.8-2.9,15.4-10.5,20.2
		c-5.7,3.6-8.9,16.2-7.1,22.8c1,3.7,0.9,8,0.3,11.8c-0.2,1.6-2.8,2.9-4.4,4.2c-7.3,5.8-14.6,11.6-22.1,17.1c-3.2,2.4-3.9,5.4-3,8.7
		c0.7,2.9,0.7,6.9,5.8,6.2c1.5-0.2,3.2,1.4,4.8,2.1c4.8,1.9,9.5,4.1,14.3,5.7c4.9,1.7,10.2,2.4,13.5,7.2c2.4,3.5,5.1,3.4,8.2,0.6
		c6.2-5.7,13.6-7.6,22-8c5.2-0.2,11-0.1,15.6-4.3c2.3-2.1,5.8-3.6,8.8-3.9c3.5-0.3,7.3-3.3,10.8,0.6c7.6,8.5,15.4,16.8,22.9,25.4
		c5.9,6.6,11.5,13.5,17.4,20.2c2.9,3.4,1.5,5.9-1.6,7.9c-3,1.9-6.1,3.7-9.3,5.2c-3.2,1.6-4.8,3.7-4.5,7.4c0.2,3.3,0.8,6.9-0.1,9.9
		c-1.7,5.8,1,9.2,5.1,12.3c1.7,1.3,3.2,2.5,2.3,5.6c-1.2,3.9-0.9,8.3-1.2,12.9c4.6-0.1,8.5-1.7,12.3,1.9c4.7,4.3,7.3,11.3,14.9,12.1
		c0.7,0.1,1.5,1.7,1.9,2.7c1.6,3.7,5.8,4.7,7.7,3c3.6-3.3,7-1.6,10.5-1.6c1.7,0,3.3,0.1,5,0c4.4-0.3,7.7-3.9,6.4-7.9
		c-1.2-3.8,1.1-5.4,3.1-7.4c2-1.9,4.3-3.5,6.4-5.5c7.9-7.5,15.6-15.4,23.9-22.6c2.7-2.4,5.1-6.6,9.8-5.6c13.7,2.8,27.4,5.7,41.1,8.6
		c0.9,0.2,2.5,0.6,2.6,1c0.9,5.4,5,4.4,8.5,4.4c4.3-0.1,7.1,1.6,8.3,6c0.9,3.4,1.9,7,3.5,10.1
		C3327,1116.8,3329.6,1120.2,3332,1123.7z M2450.6,1505.3c2.3-9.6,4.1-18.5,6.5-27.2c0.8-3.1,0.3-5-2.1-6.7
		c-3.2-2.2-3.9-4.9-0.9-7.7c3.9-3.5,4.3-7.9,3.9-12.7c-0.1-1.5,0-3,0-4.5c0.2-8.7,0.3-8.9,9-10.7c8.2-1.7,9.6-3.3,11.1-12.4
		c0.5-3.4,2-6.2,5.5-7.4c2-0.7,3.9-1.6,5.9-2.3c3.5-1.2,4.1-2.3,2-6.2c-3.1-5.7-6-12-3.3-19c2.6-6.7,7.3-11.4,14.3-13.6
		c9-2.9,14.8-9.5,19.6-16.8c-2.6-3.8-4.9-7.2-7.1-10.6c-2.9-4.6-5.7-9.3-3.2-15.1c0.2-0.5-0.2-1.2-0.5-1.8c-2-5-4.2-9.9-5.8-14.9
		c-0.7-2.3-1.4-5.5-0.4-7.3c6.7-11.5,6.7-24.4,7.8-37c0.1-1.3-1.1-2.8-1-4.1c0.3-4.4-0.5-9.8,1.7-12.9c3.2-4.4,8.6-7.4,13.5-10.4
		c5.7-3.4,6.9-8.9,2.4-14.2c-1.3-1.5-2.9-3.1-3.3-4.8c-1-4.9-1.5-10-2.2-15c-0.5-3.6-0.8-7.2-1.2-10.2c-7.4,1.9-13.8,4.8-20.2,4.9
		c-11.5,0-22.9-1.6-34.4-2.9c-2.1-0.2-5.6-0.4-5.4-4.4c0-0.8-1.6-2.1-2.6-2.3c-7.9-1.2-16-1.8-23.8-3.2c-5.9-1-12.1-2-17.3-4.6
		c-9.4-4.8-18.2-10.7-27.2-16.4c-3-1.9-5.7-4.2-8.5-6.3c0.2-0.5,0.5-0.9,0.7-1.4c2.8-0.6,5.6-1.2,8.6-1.8
		c-11.7-10.2-23.3-20.3-35.2-30.7c-0.9,6.4-1.9,11.6-2.4,16.8c-0.4,4.4-1.6,9.2-0.4,13.1c1.8,5.8,0.6,14.1-4.3,17.5
		c-5.1,3.5-10.2,7.1-15.5,10.3c-1.4,0.9-3.9,1.3-5.3,0.6c-9.2-4.5-18.5-8.9-27.1-14.4c-3.8-2.4-6.2-7.2-9.2-10.9
		c-1.5-2-2.1-5.9-5.8-2.2c-0.4,0.4-2.2,0.2-2.6-0.3c-2.3-3.2-5.4-2.6-7.9-1.1c-5.6,3.2-9.6,1.2-13.3-3c-0.5-0.6-1.3-0.9-2-1.4
		c-3.3,3.8-4.4,7.6-2.7,12.4c3.9,10.7,7.3,21.6,10.9,32.4c1.3,3.9-1.1,6.3-5.2,5.6c-1.5-0.2-3.2,0.2-4.4-0.4
		c-1.6-0.9-3.1-2.4-4.2-3.9c-1.7-2.2-2.6-5.1-4.6-6.8c-3.4-3.1-5.3-9.2-4.7-13.6c0.5-3.4-0.4-7.1-1.3-10.5c-1-4-3.5-7.8-3.8-11.7
		c-0.2-2.6-0.1-3.6-2.8-4.5c-12.8-3.8-25.6-7.9-38.4-11.8c-5.4-1.6-6.7-3.5-5.7-8.8c0.3-1.6,0-3.2,0-4.8
		c-13.8-2.9-13.8-2.9-26.5,5.2c0.2,4.6,0,9.1,0.7,13.5c2.5,14.6,5.2,29.2,8.1,43.8c0.2,1.2,2.3,2.6,3.7,2.8c8.1,1.2,16.2,2,24.3,3.3
		c1.4,0.2,3.7,2.4,3.5,3.2c-1.3,6.2-0.3,13.4-5.8,18.1c-4.2,3.6-4.3,6.8,0.4,10.4c-7.9,5.9-15.4,11.5-22.8,17.2
		c-6,4.6-5.7,5.5,0.5,10.1c3.8,2.7,7.1,6,10.6,9.1c2.7,2.4,5.7,4.7,8,7.4c1.4,1.6,2.2,4.1-1.6,4.4c-3.9,0.3-7.9,0.9-11.8,1
		c-8.1,0.2-14.4,5-22.6,7.9c5.2,4.2,9.5,7.5,13.6,11c1.1,1,2.8,3.3,2.6,3.5c-1.7,1.7-3.6,4.1-5.7,4.5c-5.5,0.9-11.2,0.6-16.8,1.3
		c-5.7,0.7-8.7,6.5-6.6,11.8c3.4,8.5,6.7,16.9,10,25.5c10.2,26.5,20.4,53.1,30.7,80c13.9-1.4,27.6-3,41.3-4.3
		c16.7-1.5,33.5-2.7,50.2-4.1c5.4-0.5,10.7-1.2,16.1-1.9c4.1-0.5,6.9,2,7.9,5.6c2.5,9.2,5.7,18.2,8.5,27.2c0.5,0,1.1-0.1,1.6-0.1
		c1.6-2.3,3.3-4.4,4.8-6.8c3.2-5,8.3-7.6,13.6-7.7c16.9-0.5,33.8-1.4,50,6.3c8.2,3.9,17.4,5.7,22.6,14.2c2.7,4.4,5.2,9,7.8,13.4
		c2.3,3.8,4,8.6,7.2,11.3c8.7,7.1,17.3,14,23.9,23.2C2448.1,1502,2449.1,1503.4,2450.6,1505.3z M3444,1480.7
		c4.7-3.5,10.7-6.5,14.7-11.3c4.3-5.2,9.5-6.1,15.2-7.5c6.2-1.5,13.7,0.9,18.4-6.2c0.7-1.1,4.9-0.8,6.9,0.1
		c4.7,2.1,9.3,4.7,13.7,7.6c3.3,2.2,5.8,1.4,7.5-1.3c3-4.6,5.5-9.5,3-15.5c-5-12.4-8.1-25.3-7.3-38.8c0.4-7.5-1.9-14.2-6.2-20.2
		c-2-2.8-4.3-5.4-6.1-8.3c-2.7-4.2-6-7.4-10.8-9.4c-9-3.8-15.1-10.8-18-20.1c-2-6.3-3.1-12.9-4.9-19.3c-3.1-11.1-5.8-22.2-3.1-33.9
		c0.3-1.2,0.9-2.8,0.3-3.6c-2.9-4.1-5.6-8.5-9.3-11.9c-10-9.4-21.1-17.2-28.5-29.6c-8.6-14.2-12.3-28.2-8.9-44.7
		c1.7-8.1,1.5-16.7-5.5-23.5c-2-2-3-5.9-3-8.9c-0.1-9.4,0.5-18.9,0.8-28.3c0.1-2.6,0-5.3,0-9.1c-11.4,0-22.2,0.1-32.9,0
		c-5.4-0.1-10.9-0.3-16.3-1.1c-1.9-0.3-4.4-2.1-5.1-3.8c-2-4.9-2.9-10.3-4.9-15.2c-0.8-1.9-2.9-3.9-4.9-4.6c-2.6-0.9-5.5-0.4-7,2.9
		c-1.1,2.5-2.7,4.9-4,7.3c-2.8,5-8,5.3-11,0.1c-3.1-5.5-5.2-11.5-8.1-17.1c-0.9-1.8-2.6-3.7-4.4-4.3c-4.6-1.6-10.7,0.4-13.3-6
		c-0.3-0.7-2-0.9-3.1-1.2c-9.9-2-19.9-3.6-29.7-6.2c-7-1.8-12.1-1.1-17,4.8c-3,3.6-2.8,6-1.4,9.8c1.5,4.2,2.9,8.8,2.7,13.2
		c-0.1,3.3,0.7,5.2,2.8,7.5c3.2,3.6,5.8,7.2,3.2,13.1c-2.7,6.1-4.8,12.7-2.8,20c1.9,7,0.9,14.8,7.2,20.6c2.3,2.1,3.7,3,6.9,2.9
		c3-0.1,6.6,1.2,8.9,3.1c1,0.8-0.4,4.7-0.9,7.2c-0.1,0.8-0.6,1.5-0.6,1.4c4.7,3.6,11.1,6.1,13.1,10.6c2,4.4-0.5,10.8-1.2,17.3
		c1.5,0.7,4.4,3.3,7.2,3.2c7.5-0.3,14.9-1.7,22.3-2.6c3.6-0.4,7.2-1.2,10.8-0.9c4.1,0.4,8.6-3.5,12.4,0.8
		c-1.9,5.4-13.6,9.6-20.5,9.1c-5.7-0.4-11.7,1.1-17.4,2.6c-5.1,1.3-8.9,5.4-14.8,5.7c-3.2,0.2-6.2,3.5-9.5,5.1
		c-3,1.4-6.3,3.4-9.5,3.4c-8.8,0.2-17.6,0.1-26.3-1.1c-3.1-0.4-6.2-3.9-8.3-6.7c-1.8-2.5-2.2-6-3.2-9.4c-15.4,7.9-30,15.5-45.9,23.6
		c7.1,2.4,9.8,7,11.1,13c0.4,1.7,2.5,3.3,4.3,4.3c7.4,4.3,15.9,6.6,20.8,14.7c2.8,4.6,4.5,9.3,2.4,13.8c-3.7,7.8-8.4,15.1-13.2,22.3
		c-1.9,2.7-2.1,3.6,0.4,6.3c2.4,2.6,4.9,7.3,4.1,10.3c-1.2,5-0.8,10.9-5.3,14.9c-0.8,0.7-1,2.3-1.5,3.7c1.8,0.6,3.3,1.5,4.8,1.6
		c5.3,0.4,8.3,4.5,8.1,8.4c-0.5,8.4,2.3,15.8,4.4,23.5c1.2,4.5,2.6,9.4,6.9,11.4c5.7,2.6,6.1,6,3.3,10.6c5.5,3,10.8,1.8,16.2-2.7
		c5.1-4.2,10.4-7.3,17.8-5.7c4.1,0.9,10.1,0.7,12.8-1.7c8.7-7.6,18.2-2.9,27.3-3.5c0.8,0,1.8,1.1,2.6,1.9c2.9,3.1,14.5,3.9,17.9,1.5
		c3.3-2.3,6.9-4,10.5-5.9c4.1-2.2,6.2,0.3,6.5,3.8c0.4,7.1,4.1,11.6,10.1,14.3c10.1,4.3,14,13.7,18.8,22.3c1.4,2.4,0.3,6.4,4,7.6
		c2.9,1,6,1.4,9,2.2c3.6,0.9,7.4,1.5,10.7,2.9c4.1,1.8,8.1,4.2,11.8,6.9c4.4,3.2,9.4,6.4,12.4,10.7
		C3430.3,1472.4,3435.6,1477.8,3444,1480.7z M2885.9,1108.7c-0.7,3.8-0.2,7.5-1.8,9.4c-7.6,9.3-21.6,17.4-35.1,6.3
		c-0.1-0.1-0.3-0.3-0.4-0.3c-1.6,0.1-3.3,0.2-4.8,0.5c-3.8,0.7-7.5,1.7-11.3,2.1c-2.6,0.3-5.3-0.8-7.8-0.5c-2.6,0.3-3.9,2-2.2,4.8
		c1.3,2.1,2.5,4.2,3.6,6.4c3,6,2.5,7.2-3.3,10.4c-10.5,5.9-11.6,8.7-8.3,19.3c1.3,4,2.5,8.1,3.4,12.2c1.2,5-4.1,12.8-9.2,15
		c-2.5,1.1-5.8,3.1-6.5,5.3c-1.6,5.4-3.7,7.3-9.4,5.9c-3.3-0.8-5.8-0.9-6,3.8c-0.1,2.6-0.9,6.5-2.6,7.3c-3.9,2-8.5,2.7-12.9,3.4
		c-4.3,0.7-8.6,4.4-9.3,8.8c-0.7,4.1-2.2,7.2-7.3,6.3c-1-0.2-2.1,0.1-3.5,0.2c2.7,5,2.7,8.8-2.6,11.9c-2.7,1.6-4.4,4.8-6.6,7.3
		c-1,1.2-1.9,3.1-3.2,3.5c-8.4,2.1-16.9,3.8-25.8,5.7c0-0.2-0.2,0.8-0.1,1.8c0.8,6.2-0.6,10.5-7.3,13.1c-3.2,1.2-7,5.5-7.3,8.7
		c-0.8,7-4,10.3-10.5,11.4c0.9,5.6,2.4,10.1,7.4,13.4c5.6,3.7,11.3,7.9,13.8,14.6c4.7,12.5,2,25.6,2.6,38.4c0.1,2-2.6,5.2-4.6,5.8
		c-4.6,1.3-6.8,4.1-8.1,8.3c-0.8,2.6-2,5.1-3,7.7c-1.2,3.1-3.6,3.9-6.4,3.1c-7.6-2.2-15.1-1.4-22.3,1.3c-1,0.4-1.9,2.4-1.9,3.6
		c0.3,3.9,1.2,7.8,1.4,11.7c0.1,1.5-0.7,3.1-1.4,4.5c-0.7,1.5-2,2.7-2.4,4.2c-1.1,4.1-2,8.2-2.8,12.3c-1.2,6.1-3.1,11.9,1.6,18
		c2.6,3.4,2.3,8.2-1.6,12c-4.8,4.7-9.4,9.8-13.3,15.2c-4.3,6.1-7.8,12.8-11.4,19.4c-0.9,1.6-1.2,3.6-1.8,5.6
		c8.8,0.6,8.8,0.6,10.4,8.3c0.1,0.6,0.6,1.2,0.8,1.8c3,9,6.6,17.6,12.4,25.2c5,6.5,3.8,10.8-3.3,15c4.2,2.5,8.4,4.9,8.8,10.3
		c0,0.4,0.6,0.9,1,1.1c7.4,3.4,6.6,9.8,6.5,16.4c0,3.3,1.3,6.9,2.9,9.9c3.2,6.2,9.6,10.9,9,19.1c0,0.7,2.5,2,4,2.2
		c1.5,0.2,3.2-0.5,4.8-0.8c9.3-1.5,18.6-3,27.7-4.5c0.3-2.4,0.7-4.6,0.9-6.7c0.8-7.8,2.5-15.7,2.1-23.5c-0.3-5.9,1.3-9.5,5.6-13.3
		c2.4-2.1,3.9-5.8,4.6-9c1.4-7,0.6-14.6,5.2-20.6c5.1-6.7,5.8-14.3,6.2-22.2c0.1-2.5,2.4-4.9,4-7.2c1.4-2,4.5-3.6,4.5-5.5
		c0.1-5-1-10.1-1.8-16.2c1.6-1.3,4.2-4.9,6.7-4.8c2.4,0,4.8,3.9,6.4,5.4c0-6.4-0.3-13.6,0.1-20.8c0.2-4.1-1.4-6.8-4.4-8.7
		c-8.2-5.2-11.6-13.3-14.7-21.9c0.6-0.5,0.9-1,1.3-1.1c19.4-6.1,38.8-12.2,58.2-18.4c6-1.9,12.8-3.2,17.5-6.8
		c10.7-8.3,20.3-17.9,30.4-26.9c4.4-3.9,9-7.7,13.5-11.6c6.2-5.4,12.9-10.5,18.4-16.5c12.5-13.8,24.4-28.1,36.4-42.2
		c1.7-2,3.6-4.1,4.3-6.4c4.5-16.5,9.4-32.9,12.9-49.6c2.4-11.5,6.1-21.6,15.8-28.9c2.3-1.7,3.9-4.5,6.4-5.8c5.3-2.8,11-4.9,16.5-7.3
		c4-1.8,5.3-4.7,4-9.2c-2-6.6-0.5-9.9,5.2-13.9c1.5-1,3.2-1.7,4.7-2.5c-8.4-8.1-19.8-9.3-22.9-20.3c-1.7-5.9-3.4-11.8-5.5-17.6
		c-0.9-2.4-2.4-4.9-4.3-6.4c-3.3-2.6-7.9-3.8-10.5-6.8c-4.4-5.1-10.1-6.6-16-8.3c-6.4-1.9-13.1-2.9-18.3-7.5
		c-1.2-1.1-3.3-1.2-5.1-1.4c-4.1-0.5-8.2-0.6-12.3-1.1C2891.5,1109.7,2888.6,1109.1,2885.9,1108.7z M3148.8,1091.5
		c0.4-6.6,1.5-12.2,1-17.7c-0.6-6.4,2.9-9.2,7.4-11.8c2.2-1.3,4.3-2.9,6.7-3.8c3.3-1.2,2.5-2.9,0.9-4.7
		c-5.7-6.4-11.4-12.8-17.1-19.2c-6.9-7.8-13.8-15.6-20.8-23.2c-0.9-1-2.9-2.1-4-1.9c-4.7,1.2-10.2,1.7-13.6,4.6
		c-3.9,3.2-8,4.1-12.1,4.1c-9.9-0.1-18.7,2.3-26.3,8.8c-0.1,0.1-0.2,0.2-0.4,0.3c-3.2,2.8-6,2.7-8.9-0.7c-1.9-2.3-4-5.3-6.5-5.9
		c-8.3-2.2-16.6-4.1-23.9-9.1c-4.1-2.8-8.4,0.2-12.7,0.7c-12.3,1.3-24.6,2.3-36.9,3.1c-17.1,1.1-34.3,2-51.4,3
		c-5.3,0.3-10.7,0.1-15.8,1.2c-4,0.9-6.9-0.3-10-2.2c-12.5-7.7-24.5-16-38.4-21.3c-3.1-1.2-5.8-1.5-8.9-1.7c-3.6-0.2-7.2-0.7-10.3-1
		c-2.8,0.9-5.6,1.7-8.9,2.7c0-2.5,0.3-3.9-0.1-5.1c-0.4-1.6-1-3.6-2.1-4.3c-1-0.6-3.1,0.2-4.5,0.8c-1.8,0.8-3.4,1.9-4.9,3.1
		c-4.5,3.5-4.8,9.7-1,13.9c1.2,1.3,2.4,2.8,3.2,4.3c5.3,9.5,8.3,20.5,18.1,27c0.9,0.6,1.5,1.8,1.8,2.8c1.5,5.6,2.8,11.3,4.4,16.9
		c1,3.4,2.5,6.6,4,9.8c2.8,5.8,5.7,11.5,8.6,17.2c1.7,3.3,4.4,6.3,5.2,9.8c1.3,5.8,5.8,8.9,9,13.2c0.6,0.8,2.4,0.8,3.6,0.9
		c4.1,0.4,8.2,0.7,12.3,1.1c3,0.3,6,0.6,9,1c2.6,0.3,5.8-0.3,7.6,1.1c6.2,4.4,13.2,6,20.3,8c4.3,1.2,9.8,2,12.4,4.9
		c4.5,5.1,10.7,7.3,15.7,11.4c1.4,1.2,2.7,2.9,3.2,4.7c1.7,5.8,2.4,11.9,4.5,17.4c1.5,3.9,4.2,7.7,7.3,10.6
		c3.1,2.9,7.3,4.8,11.1,6.9c5.7,3,5.5,8.1,0,11.2c-3.5,2-5.6,4.8-4.1,9.8c2.3,7.5-0.2,11.2-7.7,14.5c-1.3,0.6-2.5,1.4-4.9,2.7
		c24.4,6.3,47.8,12.3,71.2,18.3c1.7-4.8,4.3-8.9,4.4-13c0.2-7.5,1-9.7,8.3-12.4c3.7-1.4,6.1-3.3,6.2-8c0.1-5.5,1.9-10.9,2.5-16.4
		c0.6-5,4.7-9.2,2.4-14.9c-2.1-5.2-3.5-10.8-4.8-16.3c-0.8-3.4-0.9-6.7,3.5-8.5c2.1-0.9,3.6-3.2,5.3-5c2.5-2.6,4.8-5.4,7.5-7.8
		c7.1-6.6,17.4-8.9,23.2-17.2c0.3-0.4,0.8-0.7,1.2-0.8c10-3.1,16.6-10.6,23.3-17.8c7-7.5,13.1-8.2,21.1-1.5
		C3146.1,1090.4,3147.2,1090.7,3148.8,1091.5z M2649.2,1546.1c9.7-5.5,9.1-7,2.5-16.3c-4.8-6.9-7.8-15.2-10.5-23.3
		c-1.2-3.7-1.6-6.2-6-5.5c-3.3,0.5-5-1.2-4.2-4.3c1.1-4,3-7.7,4.4-11.7c2.5-7.2,6.8-12.9,12.1-18.2c4.2-4.2,7.9-8.9,11.5-13.5
		c0.8-1,0.6-3.1,0.2-4.5c-1.2-3.5-4.3-7.1-3.9-10.4c1.1-9,2.4-18.3,5.9-26.5c2-4.8,1.4-8.9,1.5-13.4c0-1.6-0.5-3.2-0.8-4.8
		c-0.7-3.2,1-4.9,3.7-5.7c3-0.9,5.9-1.7,10.3-2.9c-6.1-2.2-8.2-9-15.6-6.4c-6.4,2.3-10.2-1.9-7.9-8.5c1.2-3.5,0.6-6.1-0.8-9.2
		c-2.1-4.5-4-9.2-5.9-13.8c-0.2-0.4-6.9-12.1-7.3-12.4c-0.3-0.4-0.6-0.9-1.1-1c-1.4-0.6-3-1.6-4.3-1.4c-4.3,0.6-8.6,1.6-12.8,2.5
		c-1.2,0.3-2.7,0.3-3.7,1c-5.9,4-11.5,8.4-17.6,12.3c-2.8,1.8-4.1,3.6-4.3,7c-0.1,2.3-1.7,5.2-3.6,6.4c-2.8,1.8-6.3,2.6-9.6,3.2
		c-6.2,1.1-10.7,4.4-14.6,9.1c-4.3,5.1-8.8,9.9-14,15.9c-1.8-4-2.6-6.5-4-8.6c-4.2-6.2-8.7-12.2-13-18.4c-4-5.7-8.5-5.3-13.1,0
		c-5.4,6.3-10.5,12.5-19.2,15.5c-14.3,4.9-15.1,15.4-10.1,26.3c4.2,9.1,4.9,8.9-4.4,12.5c-4.3,1.7-7.9,3.5-8.2,8.9
		c-0.5,7.7-5,12-12.6,12.8c-2.1,0.2-4.1,0.8-5.9,1.2c-1.7,9.3,1.1,19.3-6.4,26.8c2,3.8,6.1,3.8,9.1,5.5c7.7,4.3,15.3,9.5,21.2,16
		c4.9,5.4,7.1,13.1,10.6,19.8c1.2,2.3,2.7,4.5,3.8,6.4c6.3-2.6,8.1-7.3,9.3-12.6c0.2-1.1,0.8-2.2,1.4-3.1
		c4.8-7.2,9.3-14.6,14.7-21.3c7-8.7,14.6-17,22.2-25.2c5-5.4,10.3-10.4,15.2-15.3c1.1,0.9,3.4,2.1,4.9,4c7.7,9.8,14.8,20,22.8,29.5
		c9.8,11.6,13.2,23.4,3.6,36.7c-0.3,0.4-0.7,0.8-0.8,1.3c-0.2,1.7-0.4,3.3-0.2,5c0.4,4.6,1.3,9.2,1.2,13.8
		c-0.1,7.1-4.4,12.2-9.6,16.4c-2.4,2-3.2,4.2-2.5,7.2c1.3,5.6,2.8,10.9,7.5,15.1c2.2,2,3.4,5.3,4.7,8.3c3.8,9,2.8,19.4,8.6,27.8
		c1.4,2,2.8,4.2,3.2,6.5c2.5,13.8,1.2,27.1-5.6,39.6c-4.7,8.5-6.2,17.6-5.2,27.1c0.1,0.9,0.3,2,0.8,2.7c2.9,4.8,5.8,9.6,9.1,14.8
		c0.2-0.1,1.4-0.3,2.4-0.7c8-3.3,16.6,0.5,19.3,8.8c4.7,14.4,8.8,28.9,7.4,44.3c-0.9,9.9-1.7,19.8-8.1,28.3c-1.4,1.8-2.2,5-1.7,7.2
		c0.8,3.5,2.8,6.7,4.7,10.8c6.2-11.7,16.5-18.3,25.7-26.1c7.2-6.2,14.8-12.4,15.6-23.1c0.5-7,0.9-14.1,1.9-21.1
		c0.6-4.8,1.5-9.7,3.4-14.1c3.5-8.4,7.6-16.6,11.8-24.7c1.5-2.9,0.2-4.4-1.4-6.5c-4.7-6.4-11.4-11-12.4-20.5
		c-1.4-13.1-3.3-25.8,0.9-38.7c1.7-5.3,6-10.6,2.6-16.7c-2.2-4.1-5-7.8-7.2-12c-1.6-3.1-3-6.4-3.7-9.7c-0.6-2.9,0.2-6-0.2-9
		c-0.3-2.1-1.3-4.5-2.9-5.8c-5.4-4.7-7.8-11.8-14-15.8C2649.6,1547.7,2649.5,1546.9,2649.2,1546.1z M3045.9,1231.1
		c8,2.2,16,6.3,25.7,6.1c11.5-0.2,23.1,1.2,34.6,1.8c16.4,0.8,32.7,1.3,49.1,2.1c2.7,0.1,5.4,1.3,8.1,1.6c3.6,0.4,7.4,1.1,10.9,0.5
		c3.3-0.6,5.7-0.2,7.6,2.5c0.9,1.3,1.9,2.5,2.9,3.8c15.7-8.1,31-16,46.3-23.8c2.1-1.1,4.1-1,5,2c0.9,3.3,1.6,6.9,3.4,9.8
		c1,1.8,3.7,3.1,5.8,3.5c4.8,0.9,9.8,1.4,14.7,1.4c5.8,0.1,11.6,1.4,17-2.5c3.6-2.6,8-4,12.2-5.7c2.2-0.9,4.6-1.4,6.8-2.4
		c8.6-4.3,17.4-7.7,27.4-6.7c3.9,0.4,8-1,12-1.5c-0.1-0.4-0.1-0.8-0.2-1.3c-2.6,0.3-5.1,0.7-7.7,0.9c-8.4,0.7-16.7,1.4-25.1,2
		c-4.7,0.3-9.3,3.3-13.8-1.6c-2.9-3.2-4.4-5.3-2-9.5c3.2-5.5-2-15.7-8.2-16.9c-6.1-1.1-6.9-3-3.5-8.3c0.7-1.1,1.7-3.4,1.5-3.6
		c-1.3-1-3-2-4.6-2c-5.3-0.2-11.2,1.3-12.5-6.5c0-0.1-0.2-0.3-0.3-0.4c-4.8-3-5.3-7.6-4.8-12.6c0.1-1.3-0.4-2.6-0.5-3.9
		c-0.4-5.1-3.8-9.8-1.4-15.2c1.2-2.8,1.6-6,3.1-8.6c2.7-4.6,0.4-7.6-2.4-11c-1.9-2.4-3.9-6.1-3.3-8.6c1.3-5.2-0.6-9.2-2.4-13.6
		c-1.2-3-2.7-3.8-5.3-1c-2.9,3-6.4,5.3-9.1,8.3c-4.8,5.6-13,8.9-11.8,18.8c0.5,3.8-5.5,6.6-9.6,6.4c-4.8-0.2-9.7-1.5-14.3,2.1
		c-3,2.4-10.1-1-12-4.5c-0.9-1.7-3.1-2.7-4.7-3.9c-1.6-1.1-3.7-1.8-4.7-3.3c-3.7-5.2-7.4-9.7-14.7-8.9c-1.9,0.2-3.9-0.8-5.6-1.1
		c0.4-2.9,0.6-5,0.9-7.1c0.3-2.1,0.8-4.2,1-6.3c0.3-4.1-4.8-8.6-8.7-8.4c-1.7,0.1-4.3-0.4-5.2-1.6c-4.7-6-11.3-4.5-15,0.2
		c-8.5,10.9-20.5,17.7-31.6,25.2c-10.8,7.2-21,14.6-29.8,24.1c-0.9,0.9-2.1,1.5-3.9,2.8c2,6.8,4.2,13.7,5.9,20.8
		c0.6,2.5,0,5.5-0.5,8.2c-1.5,7.3-4.5,14.6-4.7,22c-0.2,7.3-4,10.1-9.5,12.5c-2,0.9-4.7,2.5-5.1,4.2
		C3047.3,1218.1,3046.9,1224.1,3045.9,1231.1z"/>
	<path id="_x32_689" class="st0" d="M2825.2,1142.1c-3.5,2.2-6.7,4-9.6,6c-6.3,4.3-7.1,10.5-5.4,17.3c1.1,4.4,2.5,8.8,3.6,13.2
		c1.4,5.6-1.4,10.5-7,12.6c-4,1.5-8.1,2.8-8,8.5c0,0.8-2.6,2.2-4,2.3c-10.1,0.6-10.1,0.5-12.2,10.5c-5.5,1.7-11.4,2.6-16.3,5.2
		c-3.2,1.7-5.4,5.8-7.1,9.3c-1.4,2.9-1.6,5.8-6.3,4.7c-3.8-0.9-5.2,1.4-4.2,5.6c0.7,3,1.1,5.6-2.6,7.5c-1.9,0.9-3.4,3.2-4.4,5.2
		c-3.2,6.3-9.4,7-15.2,8c-3.9,0.7-7.9,1-11.8,1c-3.2,0-4.5,1.4-4.6,4.3c-0.1,1.8,0.4,3.8-0.1,5.5c-0.5,1.8-1.6,3.9-3,4.8
		c-6.3,3.7-11.2,8.2-12.1,16.1c-0.2,1.6-2.5,3.8-4.2,4.3c-6.6,2.1-7.3,2.8-5.4,9.2c1.3,4.6,3.5,8.3,7.9,11.1
		c4.5,2.8,8.9,6.7,11.7,11.1c2.3,3.6,2.7,8.6,3.1,13.1c0.5,5.6,0.1,11.4,0.2,17.1c0,1.6,0.4,3.2,0.7,4.8c0.5,3.9,0.3,6.4-4.6,8.1
		c-3.3,1.2-5.7,5.7-8,9.1c-1.8,2.5-2.6,7.9-4.2,8c-4.6,0.3-9.6-0.8-14.1-2.3c-2.8-0.9-5.3-3.3-7.4-5.5c-3-3.1-6.1-3.3-9.9-2.1
		c-1.4,0.5-3.6,0.3-4.6-0.5c-0.7-0.6,0.1-2.8,0-4.3c-0.2-3.1,0.3-6.5-1-9.2c-3.4-7.1-6.3-14.3-7-22.2c-0.3-3.3-1.4-6.1-5.5-6.4
		c-0.8-0.1-1.8-0.8-2.3-1.6c-2.3-3.1-5.2-2.6-8.3-1.8c-3.9,1-7.9,1.6-11.9,2.4c-1.9,0.4-4.1,0.4-5.6,1.4
		c-6.5,4.2-12.9,8.7-19.3,13.2c-1.3,1-2.6,2.7-2.9,4.3c-1.3,7.2-3.5,10.3-10.5,10.9c-8.7,0.8-13.7,6.3-18.7,12.3
		c-2.7,3.2-5.6,6.2-7.9,8.8c-6.5-8.8-12.5-17-18.6-25.1c-2-2.6-4.3-3.6-7.8-2.4c-1.3,0.5-4.1-0.5-5-1.7c-3.2-4.3-6-8.9-8.7-13.5
		c-0.6-1-1.1-2.6-0.8-3.7c2.4-7.7-2-13.9-4.6-20.4c-1.3-3.3-1.3-5.9-0.2-9.3c2.4-7.4,4.1-15,5.6-22.6c0.9-4.3,0.9-8.8,1.1-13.3
		c0.1-1.6,0.1-3.4-0.5-4.9c-1.7-5.1-0.4-10,4-13c4.7-3.2,9.5-6.2,14.2-9.5c0.9-0.6,2.2-2,2.1-2.8c-0.7-4.1-0.9-8.8-3.1-11.9
		c-3.6-4.9-4.3-10-4.8-15.6c-0.4-4.8-1.6-9.6-2.2-14.3c-0.1-0.9,0.5-2,1.1-3.8c-2,0.3-3.8,0.2-5.2,0.7c-4,1.4-7.7,3.9-11.8,4.6
		c-5.2,0.9-10.6,0.7-15.9,0.4c-6.7-0.3-13.4-1.2-20.1-1.9c-2.1-0.2-4.1-0.8-6.4-1.3c0.2-1.4,0.5-2.7,0.8-4.5
		c-9.2-1.4-18.2-3.4-27.3-4c-9.9-0.7-18.7-3.5-26.9-9.1c-7.2-5-14.8-9.5-22.5-14.5c2.5-0.7,4.5-1.4,7.3-2.2c-1.2-1.7-2-3.3-3.2-4.4
		c-11.5-10.1-23.2-20-34.6-30.1c-1-0.9-1.9-2.9-1.6-4.1c2.8-10.9,5.9-21.6,8.6-32.5c0.4-1.4-0.1-3.5-0.9-4.7
		c-7.5-10.3-15.1-20.5-22.6-30.8c-0.8-1.1-1.2-2.7-1.2-4c0.2-12.4,0.6-24.9,0.9-37.3c0-0.3,0-0.7,0-1c2.3-8.4,0.5-8.8-5.6-11.7
		c0-0.2,0-0.6,0.2-0.7c6.6-8.2,4.7-15.7,0-24.4c-3.9-7.2-6.9-14.9-6.4-24.4c0.4-8,6-12.6,6.8-19.5c0.4-3.3,0.6-6.5,1-9.8
		c0.1-1.1,0.4-2.2,0.8-3.3c0.8-2,1.8-3.8,2.8-5.8c3.4-7,0.7-14.9-6.6-16.6c-7.7-1.8-12.4-6.5-16.4-12.8c-2.1-3.3-5.1-6.1-8.4-10
		c0.6-2.5,1.6-6.2,2.5-9.9c1.1-4.3-2.2-4.8-4.8-5.8c2.1-1.9,5.2-3.4,6.2-5.8c0.9-2.2-0.6-5.3-1.2-8.9c0.9-0.4,2.8-1.6,4.9-2
		c9.9-1.7,18.1-6.2,25-13.4c1.6-1.7,4.1-2.7,6.3-3.7c6.6-3.2,10.6-8.1,5.3-16c-0.5-0.8-0.8-1.7-1.5-3.2c1.7,0.4,3,0.4,4.1,1
		c6.6,3.6,12.9,0.5,13.8-6.7c0.9-7.2,6.4-9.5,12.9-5.8c3.9,2.2,8,3.9,12.1,5.7c5.3,2.3,9.3-1.2,13.6-3.2c4.7-2.2,9.3-4.7,13.6-7.6
		c1.7-1.2,3.4-3.5,3.6-5.5c0.5-4.2,1.6-7.2,5.9-9.1c4-1.8,7.4-4.7,11.2-6.9c2.7-1.5,5.2-2.9,9.1-2c6.5,1.6,11.6-2.2,15.8-7.1
		c1-1.1,2.3-2,3.6-2.7c6.4-3.2,12.8-6.4,19.4-9.2c1.9-0.8,4.6-1,6.6-0.4c3.8,1.2,7.4,3.1,11.1,4.7c0.9,0.4,2,0.9,2.3,1.6
		c2.5,7.3,8.2,5.8,13.7,5.2c1.3-0.2,2.9-0.2,4,0.4c7.6,4.1,14.2,1.3,16.4-7.4c0.7-2.8,1-5.8,1-8.7c0-3.6,1.4-5.8,4.4-8.1
		c3.5-2.6,6.1-6.4,9.3-10c6.9,3.1,12.9-0.5,18.5-6.5c5.4,6.3,11.5,9.8,19.7,5.6c0.1,1.2,0.2,2,0.2,2.8c0,10.7,4.3,11.2,12.5,9.4
		c5.3-1.1,11.2-2,15.8,3.1c1,1.1,3.4,1.6,5,1.4c4.5-0.5,7.8,1.8,11.2,4.1c3.2,2.1,6.6,3.9,9.9,5.8c3.6,2.1,7.2,4.3,10.9,6.1
		c6,2.9,11.9,6,18.2,7.8c2.4,0.7,5.8-2,8.7-3.2c1.8,2.3,3.7,5,6,7.2c3.1,2.9,6.6,3.3,10.6,1.4c1.9-0.9,4.4-0.9,6.6-1.1
		c1.2-0.1,3,0.8,3.5,0.2c4.8-4.6,9.7-0.3,14.3,0.2c4.6,0.5,9,12,8.6,17c-0.5,6,0.2,12,0.2,18c0,8,0,16.1-0.1,24.1
		c-0.1,9.8-6,16.1-12.5,22.5c-4.5,4.4-7.6,10.2-6.5,16.8c1.3,7.9-1.8,15-3.3,22.4c-1.6,7.9-0.5,10,7.1,11.8
		c21.1,4.8,42.2,9.6,63.3,14.6c3.5,0.8,5.6-0.1,7.1-3.4c3.2-6.8,6.6-13.5,10.2-20.2c0.7-1.3,2.5-2.9,3.8-2.9
		c1.2-0.1,2.6,1.7,3.7,2.8c4.4,4.8,9.1,9.4,13,14.5c5.7,7.6,15,9.9,22,15.4c0.5,0.4,1.3,1,1.7,0.8c8.6-2.5,11.7,7.4,18.8,8.5
		c1.1,0.2,2.2,3.2,2.4,5c0.9,7.3,2.4,14.8,1.8,22.1c-0.5,5.5-3.5,10.9-5.9,16.2c-1.9,4.2-4.5,8.1-6.9,12.1c-0.5,0.8-1.1,2.1-1.7,2.1
		c-3.5,0.3-7.3,1.1-10.4,0c-3.9-1.4-6.8-2.7-9.3,2.4c-0.5-3-0.1-5.8-1.4-7.2c-2.4-2.6-5.6-5-9.6-1.9c-2.6,2-5.4,3.8-7.9,5.8
		c-5,4-4.9,11.6-0.8,16.6c5.1,6.2,9.2,13.1,11.3,21c0.5,2,2.1,4.4,3.9,5.3c8.5,4.4,11.5,11.6,12,20.5c0.2,2.4,1,4.7,1.8,7
		c1.5,4.3,2.8,8.7,4.9,12.7c3.3,6.1,8.1,11.6,10.5,18c2.3,6.1,5.2,11.5,9.8,16c0.9,0.9,1.6,2.1,2.7,2.8c3.5,2.2,4.8,6.1,1.9,8.7
		c-3.5,3-7.6,5.5-11.8,7.4c-6.9,3.2-12.8,0.5-18.4-3.8c-1.5-1.1-4.9-1.8-5.9-1c-5.3,4.7-11.2,3.5-17.1,2.6c-3.8-0.6-6.5-0.1-8.4,3.4
		c-1.9,3.4-0.7,5.7,1.7,8.3C2822.6,1136.5,2823.6,1139.4,2825.2,1142.1z"/>
	<path id="_x32_696" class="st0" d="M2184.6,1427.1c-8,4-16.3,8.2-24.6,12.4c-2.9,1.5-5.7,3.3-8.8,4.4c-14,4.8-23.8,14.3-31.2,26.8
		c-2.6,4.5-6.3,8.3-9,12.8c-8.1,13.3-7.2,27.5-3.3,41.8c0.2,0.8,0.4,1.6,0.6,2.4c2.6,8,6.9,10.7,14.4,10.5
		c12.8-0.5,19.5,5.1,23.3,18.3c-5.9,1.8-5.5,5.7-4.3,10.8c0.8,3.5-0.6,7.5-0.4,11.2c0.1,2.3,0.9,5.1,2.4,6.7
		c6.8,6.9,12.1,14.1,11.3,24.5c-0.6,8-0.6,16-1.1,23.9c-0.3,5.8-1.3,6.5-7.9,6.4c-7.1-0.1-7.9-0.8-8-7.1c-0.2-8.8-7-15.7-15.8-15.9
		c-5.2-0.1-13,8-13.2,13.9c-0.1,2.9,0.4,5.9-0.2,8.7c-0.3,1.3-2.2,3-3.6,3.2c-2.2,0.4-4.6-0.1-6.8-0.7c-6.9-2.1-13.8-2-20.8-1.1
		c-4.9,0.7-8.3,5.6-6.9,10.3c3.8,12.9,9.2,25.5,11.5,38.7c3.4,19.8-1.8,36.8-22.3,43.3c-7.4,2.3-15.4,2.8-23.2,3.6
		c-7.2,0.7-11.6,4.1-10.5,11.2c1.6,9.9,4.4,19.6,7,29.3c2.3,8.4,5,16.8,7.8,25.1c1.3,3.8,3.3,7.3,5.1,11.4
		c-9.5-0.7-11.9,6.7-13.7,12.7c-3.2,10.9-10.9,16.7-19.6,22.6c-9.1,6.1-18.6,9.1-29.5,8.8c-14-0.3-26.5,4.9-38.7,10.8
		c-3.6,1.7-6.5,1.6-10.5,0.6c-6-1.4-12.7,0-19-0.6c-10.2-0.9-19.9-3.2-25.4-13.4c-1-1.9-2.4-3.6-3.9-5c-7.3-6.9-8.9-15-6.4-24.5
		c2-7.5,0.3-14.7-4.2-21.1c-2.7-3.9-5.2-8-8.5-11.4c-5.6-5.8-7.3-12.4-4.5-19.8c1.7-4.6,0.2-8.4-2.6-11.3
		c-5.5-5.9-12-10.7-17.1-16.8c-2.3-2.8-3.5-7.5-3.3-11.2c0.5-10.9-5.8-16.8-14.6-19.8c-6.7-2.3-10.6-7.1-15-11.6
		c-4.7-5-8.2-11.3-13.3-15.7c-4.4-3.8-10.2-6.4-15.9-8.1c-10.2-2.9-17.1-8.5-20.9-18.7c-2-5.4-6.4-9.8-9.3-14.9
		c-1.6-2.8-1.9-6.2-3.3-9c-4.1-8.1-8.4-16.1-13-24c-1.8-3.1-10.6-6.1-13.3-4.2c-5.5,3.9-10.8,1.4-15.9,0.3c-5-1.1-8.6-0.2-12.3,3.2
		c-1.4-2.2-3.3-4.1-4.1-6.4c-1.7-5-5.8-5.8-10-6.5c-3.5-0.6-6.5-1.7-8.4-5.2c-3.8-6.9-5.3-7.3-12.5-4c-0.6,0.3-1.3,0.4-0.9,0.3
		c-1.9-3.7-2.9-8.3-5.8-10.2c-2.3-1.6-6.8-0.1-10.3,0.4c-12.1,1.5-14,12.2-18.3,20.7c-1.3,2.7-1.6,5.9-2.5,9.2
		c-1.6-0.8-2.9-1.4-4.2-2c-4.1-1.9-7.5-1.2-10.5,2.3c-2.2,2.5-4.1,5-8.6,3.7c-3.5-1-5.9,2.3-7.2,5.5c-0.8,1.9-1.5,3.8-2.1,5.2
		c-0.3-6.8-0.4-13.9-1.3-21c-0.2-1.8-2.8-4.6-4.5-4.7c-10-0.4-20.4-0.8-28.5,6.6c-7.8,7.1-15.5,6-24.1,1.6c-4.7-2.4-10.1-3.6-15-5.5
		c-1-0.4-2.2-1.5-2.5-2.6c-3.4-12.5-10.7-22.2-20-31c-6.7-6.3-7.3-15.3-6.8-24c0.2-3.5,2.3-5.7,4.8-8.3c11.7-12,23.5-24,33.9-37.1
		c4.1-5.2,7.7-9.6,14-12.1c3.3-1.3,6.2-4.4,8.7-7.2c3.7-4,4.7-9.9,1.1-14.4c-3-3.8-3.7-8.4-4.1-13.4c-0.7-10.4-2.3-21.1-11-28.4
		c-7.1-6-16.2-7.5-24.9-9.2c-3.3-0.7-5.7-1.2-7.5-4.2c-4.7-7.9-11.8-11-20.9-10c-0.8,0.1-1.7,0-2.3,0c-5.3-7.8-10.5-15.4-15.8-22.9
		c-0.6-0.8-1.3-1.7-2.2-2c-7.4-2.6-9.1-8.7-10.3-15.5c-3.4-19.6-7-39.2-10.6-58.7c-0.1-0.8-0.5-1.8-0.1-2.3
		c4.5-7.9,9.1-15.8,14-24.1c8.9,8.5,19.8,6.6,29.9,7.4c4.3,0.4,6.8,1.9,9.3,5.5c2.4,3.5,5.8,7.1,9.5,8.7c7.7,3.3,11.5,9.7,14.6,16.4
		c2,4.3,5.2,4.9,8.9,5.4c5.7,0.8,10.8,1.9,15.5,6.1c8.2,7.4,17.2,6.7,27.6-0.1c3.9-2.6,7.6-6.7,13-3.4c-0.2,0.9-0.6,2-0.8,3.1
		c-0.4,2.8-1.8,7.6-0.9,8c3.5,1.8,7.6,2.7,11.5,3c3.5,0.3,7.4-1.7,10.6-0.9c2.3,0.6,3.8,4.1,5.5,6.1c-5.7,8.5-12.9,5-19.6,4.5
		c-4.6-0.4-9.3-1.7-13,2.3c-4.1,4.4-1.2,12.7,5.3,16.4c7.1,4.1,14.2,8.3,21.1,12.7c6.3,4,6.3,9.1,0.3,13.4c-1.7,1.2-3.4,2.5-5.1,3.9
		c-2.9,2.4-3.8,9.8-1.9,13.2c6.4,11.6,16.6,18.8,27.9,25c7.3,4,14.1,8.7,21.3,13.2c-6.3,11.9-4.3,22.2,4.1,32.3
		c3.6,4.3,5.8,9.8,7.7,15.1c0.8,2.1-0.6,5.4-1.8,7.7c-3.4,6.2-9.5,10.8-11,18.3c-0.6,2.8-0.2,3,2.3,4.4c5.9,3.2,11.4,2.8,17.1,0.2
		c0.4-0.2,1-0.3,1.4-0.1c5.4,3.5,7.5-0.9,9.6-3.5c3.2,0.9,6.1,1.7,10.1,2.8c2.7,3.8,11.9,5.4,16.8,1.9c0.9-0.6,2.1-1.5,3-1.3
		c5.5,1,5.1-2,4-6c8.3,1.4,14.5-3.3,21.3-6.7c6.3-3.1,13.3-5,19.9-7.6c2.3-0.9,4.4-2.4,6.6-3.7c-1.5-2.1-2.9-4.2-4.5-6.2
		c-0.6-0.7-1.5-1.1-2.9-2.1c2.1-1.3,4.2-2.2,5.8-3.7c4.4-4.4,8.5-9,12.9-13.4c1.1-1.1,2.5-2.4,3.9-2.4c0.8-0.1,2.1,1.8,2.7,3.1
		c0.8,1.7,1.2,3.6,2.1,6.4c6.8-1.4,13.4-3.2,20.1-4c6.5-0.8,11.2-3.2,13.1-9.8c1.9,0.5,3.3,0.7,4.6,1.3c3.5,1.4,6.6,1.1,8.2-2.5
		c1.1-2.5-2.4-7.6-5.7-7.4c-6.9,0.3-7.2-3.5-7.4-8.8c-0.1-1.9-3-4.2-5.1-5.3c-1.8-1-4.4-0.2-6.5-0.9c-1.6-0.6-3.4-2-4.1-3.5
		c-2.1-4.7-3.6-9.1-10.3-9.1c-1.6,0-4.1-3.8-4.6-6.3c-1-4.5-1-9.2-1.2-13.8c-0.2-3.7-0.4-7.4,0-11.1c1.2-9.8,7.5-14.2,17.3-12.6
		c7.7,1.3,11.5-2.5,9.4-10.1c-1.1-4.1-2.4-7.6,1.2-11.1c0.7-0.7,1-2.1,0.9-3.2c-0.5-6.3-1.9-12.7-1.7-19
		c0.5-10.9-5.1-18.9-10.9-27.1c-3-4.2-5.4-9-6.9-13.9c-0.6-2,1.3-5.3,2.9-7.3c2-2.5,2.7-4.3,0.9-7.3c-3.2-5.3-5.5-10.9-3.7-17.4
		c6.8-0.4,13,2,18.4,6.2c1.8,1.4,3,3.3,4.6,4.9c1.4,1.4,3.1,2.6,4.4,4.1c1.1,1.2,3,2.8,2.9,4c-0.4,4.1,2.3,5.9,4.8,7.9
		c4.6,3.8,9.4,7.4,8.7,14.6c-0.1,0.9,3.1,3.2,4.7,3.1c3.7,0,7.2-0.3,10.7,1.8c1,0.6,3.6-0.8,5-1.8c5.4-3.9,6.4-3.7,11.5,0.5
		c1.9,1.6,5,2.2,7.7,2.5c3.4,0.3,7,0.3,10.4-0.5c3.3-0.7,3.7-3,1.7-6c-4.4-6.7-3.8-11.7,1.9-17.5c4.7-4.8,5.8-10.5,3.3-16.3
		c-3.1-7.1-1.5-11.9,3.4-18c5.6-6.9,8.7-15.9,12.5-24.1c1.8-3.9,2.6-8.3,4.2-13.4c2.5,0,6,0,9.4,0c2.1,0,4.3,0.7,6.1,0.1
		c5-1.6,9.4-0.8,13.2,2.5c3.7,3.2,7.6,2.7,11.5,1.2c4.2-1.6,7.4-1.3,11.5,0.9c4.1,2.2,9.3,2.5,14.1,3.2c2.6,0.4,4.5,0.6,5.4,3.7
		c1.2,4.2,3.3,8.1,4.6,12.3c2.4,7.9,7.8,13.8,12.7,20.1c2.3,3,4.2,2.5,5.8-0.9c2.7-5.5,5.9-10.4,11.8-13.4c1.9-1,2.4-4.4,3.9-6.5
		c1-1.4,2.4-2.5,4.4-4.7c0,9.4,0.1,17.1-0.1,24.8c0,1-1.3,2.4-2.3,3c-6.6,3.7-7.9,9.8-7,16.5c0.8,6.1,0.9,12.5,5.1,17.6
		c0.8,1,1.9,1.9,3,2.5c4.1,1.8,8.3,3.2,12.3,5.3c4.7,2.4,1.2,6.4,1.1,9.6c0,2.2-1,4.3-0.8,6.4c0.2,2.2-0.4,5.3,3.2,5.7
		c3.2,0.3,6.5,1.2,8.8-2.2c2.6-3.9,5.8-7.5,8-11.6c3.1-5.5,4.3-12.5,8.5-16.8c4.1-4.2,1.5-10.2,6.1-13.8c1.3-1,0.3-4.8,0.6-7.2
		c0.4-2.7,1.1-5.3,1.4-6.8c4.9,2.4,9.6,4.5,14.1,6.9c1.3,0.7,2.5,2,3.4,3.2c2.4,3.1,4.4,6.5,9.4,4.6c0.7-0.3,2.9,1.4,3.3,2.5
		c3.2,7.8,4.7,15.8,1.8,24.1c-0.6,1.8-1.2,4.3-0.5,5.8c3.9,7.8,0.3,14.3-3,20.8c-5.4,10.7-6.1,22.2-4.9,33.7
		c0.6,5.1,3.4,10.1,6,14.8c0.7,1.3,4.4,2.5,5.8,1.8c5.1-2.6,9.4-0.7,14.1,0.7c4,1.2,8.4,1.4,12.4,2.7c3.7,1.2,6.9,3.7,10.6,4.7
		c6.1,1.7,12.3,2.8,18.5,4.2c0.9,0.2,2.1,0.3,2.7,0.8C2168.3,1412.2,2176.4,1419.5,2184.6,1427.1z"/>
	<path id="_x32_685" class="st0" d="M3012.1,1594.4c-6.5-3.2-13.5-5.8-19.5-9.8c-5.3-3.5-11.1-5.5-17-5.4c-14.9,0.2-28-5.6-41.7-9.9
		c-3.8-1.2-8.5,0.2-12.7,0.8c-3.3,0.5-6.6,1.8-9.9,2.8c-3.7,1-7.1,0.6-10.8-0.9c-7.8-3.2-15.8-6-23.9-8.5c-1.7-0.5-4.8,0.3-6,1.6
		c-4.8,5.4-9.6,10.9-13.5,16.9c-4.3,6.6-3.5,13.9-0.7,21.1c0.7,1.8,1.7,4.6,0.9,5.9c-5.9,9.7-11.4,19.9-18.8,28.5
		c-6.5,7.6-15.2,13.4-23.5,20.5c1.3-16.2-6-29.8-10.1-44.1c-3.2-11.2-7-13.5-18.6-14c-12.7-0.5-25.4-1.9-38.1-2
		c-7.5,0-15.1,1.8-22.6,2.7c-1.1,0.1-2.2,0.1-2.8,0.2c0.7-11.4,1.3-22.5,2.2-33.6c0.1-1.6,1.5-3.5,2.8-4.6c5.6-4.4,8.2-10.2,8-17.1
		c-0.2-7.7,3.5-13.6,6.7-20.1c2.4-4.8,2.4-10.7,3.6-16.1c0.6-2.5,0.9-5.6,2.5-7.4c3.6-4.1,8.2-7.1,5.4-13.9
		c-1.1-2.5-0.8-5.8-0.6-8.6c0.1-1.2,1.8-2.3,3-3.7c1.2,1.7,2.1,3.3,3.4,4.5c1.3,1.1,2.9,1.7,4.4,2.6c0.9-1.6,2.5-3.3,2.5-4.9
		c0.1-4.8-1.1-9.6-0.7-14.3c0.6-8.5-0.3-15.4-8.4-20.9c-4.5-3.1-6.9-9.2-10.6-14.6c10.4-3.3,19.6-6.3,28.9-9.2
		c14.5-4.5,29-8.6,43.3-13.4c3.5-1.2,6.5-4.4,9.4-7c9.9-9,19.6-18.3,29.5-27.4c8.8-8,18.3-15.2,26.5-23.8
		c10.8-11.3,20.5-23.6,30.7-35.4c2.1-2.4,4.2-4.7,6.5-6.9c7.6-7.4,7.2-17.8,9.9-27c4.2-14.5,7.6-29.3,11.5-43.9
		c0.5-1.9,1.9-3.7,3.2-5.3c2.8-3.4,5.8-6.7,8.9-9.9c4.5-4.6,9.2-6.2,16.1-4.2c19.2,5.6,38.7,10.2,58.1,15.2
		c6.4,1.7,13.1,3.1,19.2,5.6c10.8,4.4,22,4.9,33.3,5.4c17,0.7,34.1,1.2,51.1,2.1c8.9,0.4,17.7,1.3,26.6,2c5.6,0.4,11.2,0.7,16.8,1.3
		c1.1,0.1,2.2,1.2,3.1,2.1c2.5,2.4,4.7,5.3,7.5,7.2c3.7,2.6,5.6,5.7,7.1,10c1.2,3.3,5.1,6,8.3,8.2c4.6,3.3,9.9,5.6,14.4,9
		c2.2,1.6,3.5,4.6,4.9,7.1c3,5.3-0.6,9.6-3.1,13.4c-2.9,4.5-7.6,7.8-8,13.8c0,0.4-0.9,0.8-1.4,1.1c-3.1,2.4-3.4,6-0.6,9
		c5.2,5.7,5.7,13.9,1.2,20.3c-6.4,9-2.7,11.3,4.4,13.3c3.8,1,4.4,2.8,4.8,6.1c0.7,5.8,2.2,11.4,3.4,17.1c0.4,2.1,1,4.1,1.5,6.2
		c1.4,6.8,4.7,12.2,11.8,14.6c-1.2,3.5-3.7,7,0.4,9.9c3.1,2.1,11.8,1.8,15.1-0.6c1.7-1.2,3.3-2.7,5-3.9c4.4-3.1,8.3-5.9,14.7-4.5
		c6.2,1.4,13.1,1.1,18.6-3.9c2.7-2.5,6-2.9,9.4-1.3c0.7,0.3,1.7,0.6,2.4,0.4c5.1-1.4,8.8,0.6,13.6,2.7c6.3,2.8,14.6,3.8,21.3-2.3
		c2.2-2.1,5.6-2.9,9-4.5c0.5,3.2,0.1,6.2,1.4,8.1c2.5,3.7,5.4,7.9,9.2,9.7c9.6,4.8,14.1,13.3,18.9,21.9c0.2,0.4,0.2,1,0.2,1.5
		c0,0.5-0.2,0.9-0.3,1.9c-2.2-0.5-4.4-1.1-6.5-1.5c-6.6-1.2-12.6-1-16.8,5.5c-4.7,7.2-11.6,11.9-18.5,16.7c-3.6,2.4-6.6,5.7-9.7,8.8
		c-0.9,0.9-1,2.7-1,4.1c-0.2,4.9-0.1,9.4-3.5,14c-2.7,3.6-2.7,9.2-3.5,14c-1.3,7.7-0.6,15.2,2.4,22.5c0.7,1.7,0.2,4.2-0.2,6.2
		c-0.8,3.5-1.9,6.9-2.9,10.6c-19.4-6-38.9-12.1-58.5-17.9c-5-1.5-8.8-3.6-10.9-8.7c-0.6-1.5-2.8-2.5-4.4-3.4
		c-6.5-3.3-13.1-3.2-19,1.2c-6.5,4.9-7,12.1-4.7,18.8c2.5,7.3,4.3,15,10.3,20.9c2.6,2.5,3.3,6.9,5.1,10.8
		c-5.4,0.5-10.4,0.9-15.4,1.3c-17.4,1.3-34.8,2.7-52.2,4c-5.1,0.4-10.2,0.7-15.3,1c-11,0.7-22.2,0.4-33.1,2.3
		c-13,2.2-24.4-2.6-36.3-5.8c-21.8-5.8-43.7-11.6-65.6-17.4c-2.7-0.7-5.4-1.4-8-2c-7.5-1.8-12.1,1.9-12.3,9.7
		c-0.1,2.9-0.6,5.9-1,8.8c-0.5,3.8,0.4,6.9,4.3,8.3C3006.8,1576.4,3009.9,1584.9,3012.1,1594.4z"/>
	<path id="_x32_686" class="st0" d="M1696.1,1095.5c2.4-1.4,4.9-2.9,7.6-4.6c4.8,5.9,10.2,10.1,18.3,10.3c5.8,0.1,12.5-2.7,14.9-8.4
		c0.7-1.6,1.3-3.3,2-5c2.5-6.4,4.7-8.3,11.3-7.8c6.5,0.5,10.6-2.2,13.9-7.4c0.9-1.4,3.6-2.9,4.7-2.5c7.6,2.9,14.8,1.7,21.8-1.4
		c3.9-1.8,7.3-1.1,10.4,0.9c3.9,2.5,7.6,1.5,11.6,1c2-0.3,4.3,0.3,6.3,1c2.5,0.9,5.6,3.9,7.1,3.1c3.4-1.7,6.3-4.8,8.9-7.8
		c1.2-1.3,1.4-3.6,1.8-5.5c0.9-4.7,4.9-7.3,9.1-5.5c0.9,0.4,1.5,2.2,1.8,3.4c1.2,4.4,1.8,9,3.6,13.1c5.3,11.9,15.4,13.2,26.5,4.8
		c1.2-0.9,1.8-2.7,2.7-4.1c0.4,0.4,0.9,0.7,1.3,1.1c-0.9,2.2-1.9,4.4-2.6,6.7c-2.2,7.4,3,14.6,10.7,14.8c3.2,0.1,6.6-0.2,9.8-0.9
		c8.2-1.8,10-4.4,10.2-12.7c0.1-4.1-0.3-8.4,0.7-12.3c1.1-4.6,3.7-8.8,5.3-13.4c0.8-2.1,0.2-4.8,1.2-6.7c1.5-3,3.2-7,5.8-7.9
		c9.8-3.6,10.3-11.7,11.2-19.9c0-0.3,0.3-0.6,0.5-0.8c10.1,2.2,18.5,0.6,24.8-9c3.6-5.4,7.7-10.5,11.7-15.7c3.3-4.3,5.1-9,4.9-14.6
		c-0.1-3.6,6.4-7.5,9.6-5.7c7.7,4.5,14.5,3.6,22.3-0.9c5.5-3.1,12.7-3.1,19.6-4.6c0.9,5.4,0.8,8.9-3.6,10.9
		c-5.5,2.5-4.3,8.2-5.9,12.6c-0.9,2.4-1.2,5.1-2.4,7.4c-3.4,7.1-5.5,8-12.2,4.1c-7.7-4.5-8.2-1.8-11.6,3.7
		c-6.8,11.2-11.8,23-10.9,36.5c0.4,5.4,0.2,11.2,2.3,15.9c2.6,5.9,7,11.2,11.3,16.1c3.5,4,10.8,4.2,15.3,1.5c1-0.6,2.8-1.6,3.4-1.2
		c6.8,4.9,14.5,3.5,22,3.7c3.5,0.1,5.4,1.7,4.5,5.2c-0.4,1.5-1.4,3.4-2.6,4c-14.2,7-28.5,13.9-42.8,20.6
		c-21.4,10.1-42.9,20.1-64.2,30.3c-0.9,0.5-1.8,3-1.4,4.1c6.5,16.7,13.2,33.3,19.8,49.9c2,4.9,2.9,9.8,1.4,15.1
		c-0.8,2.9-0.8,6-1.3,9.5c-5.3,2.6-11.2,3.7-17.2-0.8c-3.2-2.5-6.8-3.3-10.8-1.3c-1.3,0.6-3.2,0-4.8-0.2c-2.7-0.2-5.5-1.3-8-0.7
		c-7.1,1.7-7.5,0.8-9.1,10.1c-1.1,6.3-4.2,12.3-7.3,18c-3.5,6.4-7.8,12.4-12.2,18.3c-1.9,2.5-1.5,4.5-0.7,7.1
		c1.5,5.3,5.6,10.4,2.4,16.4c-0.9,1.7-1.7,3.6-3.1,4.9c-6,5.7-8.4,13.9-1.3,21.3c-6.6,0.8-12.2,0-17.8-4c-2.9-2.1-7.5-2.4-11.1,0.9
		c-2.2,2.1-4.5,4-7.9,1c-1.1-1-3.7-0.4-5.7-0.4c-2,0-4.3,1.4-3.6-3.1c0.4-2.5-2.1-5.8-4-8.3c-2.1-2.7-5-4.8-7.4-7.4
		c-0.8-0.9-0.9-2.4-1.2-3.6c-0.2-0.9,0-2.4-0.5-2.8c-8.6-5.7-13.4-16.5-24.6-18.7c-4-0.8-8.1-1.1-11.8-1.6
		c-3.9,9.4-0.8,17.4,4.4,24.7c-6,4.8-7.3,10.3-3.8,16.6c2.7,4.9,6.7,9.2,9,14.4c2.6,5.7,7,10.7,6.5,18c-0.5,7.1,1.1,14.3,1.7,21.5
		c0.1,0.8,0.3,2.1-0.2,2.4c-5.2,4.2-2.5,9-1.2,13.7c1.2,4.4-0.9,7.1-5,5.5c-7.9-3-14,0.8-17.8,5.9c-3.2,4.3-4.1,10.9-4.4,16.6
		c-0.3,6.6,1,13.4,1.8,20.1c0.8,6,3.4,7.9,9.5,8.1c1.1,0,2.4,1.1,3,2.1c1.1,1.8,1.7,3.9,2.5,5.8c1.3,3.2,3.1,5,7,4.9
		c8.2-0.2,8.3,0.1,9,8.3c0.3,3.4,2.1,5.5,5.7,5.6c2.9,0.1,5.4,0.7,6.8,4.3c-1.9-0.2-3.4,0.1-4.6-0.5c-4.7-2-7.5-0.7-10,3.8
		c-1.2,2.1-4.4,3.4-7,4.2c-4.1,1.4-8.6,1.8-12.7,3.2c-3.8,1.2-6.2,0.1-7.8-3.4c-2.8-6.4-6.4-6.6-11.1-1.6
		c-5.4,5.7-11.6,10.5-17.2,16c-1.8,1.7-2.9,4.1-4.4,6.2c2.9,1.6,5.3,2.9,7.3,4c-9.5,4.4-18.2,9-27.4,12.4c-4.4,1.7-8.7,4.6-14,3.5
		c-1.3-0.3-3.7,1.2-4.3,2.4c-2.8,6.2-7.7,7.7-13.8,7.4c-0.8,0-1.7-0.1-2.3-0.5c-3.4-2.3-6.6-5-10.2-6.8c-3.1-1.6-6.1-0.6-7.9,2.6
		c-1.2,2-2.4,3-5.2,2c-1.6-0.6-3.9,0.2-5.7,0.8c-4.3,1.3-8.5,2.3-13.1-2.3c2.1-3.3,4-7.6,6.9-10.9c6.4-7.1,8.5-14.4,2.4-23.3
		c-4.6-6.7-7.5-14.6-11.3-21.9c-2.5-4.8,0.4-8.9,1.8-13.1c1.4-3.9,1.5-6.3-3.2-8.9c-11.4-6.2-22.7-13.1-33.2-20.8
		c-5.7-4.2-10.9-9.8-12.5-17.4c-1.2-6,4.1-7.5,7.3-10c7.4-5.9,7.5-12.9-0.5-18.1c-6.9-4.5-14.1-8.7-21.1-13.1
		c-0.7-0.4-1.7-0.6-2.1-1.2c-1.6-2.9-4.6-6.2-4-8.6c0.9-3.5,5-3.4,8.7-2.6c3.8,0.9,7.9,0.5,11.8,1.2c5.8,1,8.9-3.5,13-5.8
		c0.4-0.2,0.6-0.8,0.7-1.2c1.1-5.1-6.8-12.2-11.9-11.7c-5.4,0.6-11,0.1-16.8,0.1c0.7-2.8,1.5-4.8,1.7-6.8c0.2-2.1,0.3-5.9-0.3-6
		c-3.2-0.8-6.8-1.5-9.8-0.7c-3.5,1-6.8,3.2-9.7,5.5c-7.1,5.5-14.4,4.3-20.2-0.8c-5.4-4.8-11.3-6.2-17.8-7c-3.4-0.5-6.1-1.8-7.2-5.2
		c-3.2-9.8-11.7-14-19.3-19.3c-1.8-1.2-3.5-3-4.4-4.9c-1.9-3.9-4.5-6-8.8-6.3c-7.5-0.5-15.1-1.1-22.6-2c-7.4-0.9-9.7-8.5-5.7-16.3
		c3.6-7.1,6.8-14.4,10-21.7c5-11.7,13.3-20.4,23.8-27.2c3.3-2.1,6.8-3.9,10-6.1c5.3-3.6,7.5-13.1,4.4-18.9c-1-1.9-1.9-3.9-3.2-5.5
		c-5.5-6.1-2.3-11.8,0.7-17.4c1.4-2.7,3.2-5.3,4.9-7.9c2.7-4,1.3-7-2.5-8.8c-2.2-1.1-2.6-2.4-3.2-4.7c-1-4-3.3-7.8-4.8-11.7
		c-0.9-2.2-1.7-4.5-1.9-6.8c-0.5-5.9-0.1-11.9-1.2-17.7c-0.9-5.1-3.4-6-8.4-4.4c-0.6,0.2-1.3,0.1-1.9,0.4c-7,2.9-13.5,4.3-18.2-4
		c-1-1.9-3.7-2.8-5.1-4.5c-1-1.3-1.8-3.4-1.5-4.8c1.7-8.6,1.9-8.4,10.8-7.8c4.7,0.3,9.4-0.2,14.1,0.1c4.6,0.3,9,1.4,12.3-3.4
		c2.5-3.5,5.6-6.6,9-10.6c5.9,1,10.5-1.8,14-8.1c1.7-3,5.5-5.6,8.9-6.7c6.2-2,11-5,15.1-10.1c2.3-2.9,6.2-4.6,9.4-6.9
		c4.3-3.1,8.6-6.2,13.4-9.6c0-0.1,0.6,0.8,1.3,1.5c2.4,2.3,4.5,5.7,7.4,6.7c6.9,2.4,9.6,7.7,11.6,13.9c2.7,8.5,5.2,17.1,8.3,25.4
		c1,2.7,3.2,5.5,5.7,7c7,4.5,12.1,10.5,17.2,17c5.3,6.7,12.7,11.6,19.1,17.5c2.3,2.2,3.9,5.2,6.3,7.2c7,5.6,14.2,11,21.5,16.1
		c3.6,2.5,7.3,4.3,9.1,8.9c0.9,2.4,3.3,5.2,5.5,5.7c1.8,0.4,4.7-2.1,6.4-3.9c3-3.5,7.8-4,10.3,0.3c4.9,8.5,12.6,10.6,21.1,8.7
		c4.1-0.9,8.1-4.1,11.3-7.1c2.7-2.5,5.7-3.6,8.5-2.3c6.3,2.8,8.5-2.4,11.3-5.5c2.8-3,1.7-7.1-1-9.7c-4.3-4.1-9.1-7.7-13.9-11.2
		c-3.3-2.3-5.7-4.9-8-8.5c-2.2-3.4-8-4.6-12.3-6.4c-1.3-0.5-3-0.3-4.5,0c-4.7,0.7-7-2.1-8.6-5.8
		C1697.3,1099.5,1696.8,1097.6,1696.1,1095.5z"/>
	<path id="_x32_687" class="st0" d="M2067.8,952.6c5.4-0.6,9.9-1.2,14.5-1.5c3.7-0.2,7,0.1,10.6,2.6c3.9,2.7,9.3,3.3,14.1,4.8
		c6.2,1.9,13,2.8,18.5,5.9c12.6,7.2,22.5-2.1,26.5-11.8c1-2.4,1.9-4.4,4.9-3.2c5.3,2.1,9.5-0.5,12.9-3.9c5-5.1,9.9-10.4,14.1-16.2
		c1.9-2.7,2.6-6.5,3.1-9.9c2-12.1,9.2-21.3,16.5-30.5c0.4-0.5,1.2-1,1.2-1.5c0.8-8.8,9.7-10.2,14.2-15.9c1.7,2,3.3,3.7,4.6,5.5
		c7.1,10.5,21,10.4,26-1.8c1.4-3.4,3.1-7.7,7.9-8.3c0.6,5,0.6,9.9,1.9,14.3c2.2,7.3,6.8,9.3,14.3,7.4c10.4-2.7,17.6-9.8,24.3-17.6
		c1.8-2.1,3.6-4.3,4.8-6.8c1.4-2.8,3.1-2.8,5.6-1.7c2.5,1.1,3,2.4,1.9,5c-0.9,2.2-1.3,4.8-1.1,7.2c0.1,1.8,1.2,3.7,2.3,5.2
		c1.8,2.4,4.2,4.3,5.9,6.8c4.6,6.8,10,12,18.2,14.6c6.3,2,8.3,5.9,4.9,11.6c-1.3,2.2-2.4,4.7-3.5,7c-0.4,0.9-1.2,2.1-0.9,2.7
		c3.3,6.7-0.5,11.9-3.7,16.9c-2.3,3.6-3.1,7.3-3.6,11.5c-1.6,11.7,3.2,21.7,8.6,31.1c3.6,6.3,3,11.3-0.8,16.4
		c-2.7,3.6-1.6,5.4,1.7,7.5c1.4,0.9,2.7,3.2,2.6,4.9c-0.4,13.9-1.2,27.7-1.8,41.6c-0.1,1.2,0.2,2.7,0.9,3.7
		c8.2,11.2,16.5,22.3,25.1,33.8c-10.6,25.5-12.5,53.1-16,80.6c1.1-0.3,1.8-0.5,3.1-0.9c-1,1.7-1.4,3.4-2.5,4.2
		c-5.4,3.9-11,7.7-16.6,11.3c-0.9,0.6-2.9,0.3-3.9-0.3c-8.9-5.1-17.8-10.3-26.5-15.8c-2.5-1.6-4.2-4.6-6.2-7.1
		c-2.3-3-3.9-5.1-8.9-5.6c-5.6-0.6-10.2,0.3-15.3,1.5c-1.5,0.4-3.6-1.2-5.2-2.2c-2.3-1.5-4.4-3.3-7.2-5.5
		c-2.9,6.6-7.5,11.4-4.2,19.4c4.4,10.7,7.2,22.1,10.7,33.3c-4,0.4-8,1.4-7.8-5c0.1-1.4-1.6-3.3-3-4.3c-5-3.8-5.7-7.1-5.2-13
		c0.3-3.9-1.6-8-2.6-12c-1-4.1-2.4-8.1-2.8-12.2c-0.3-2.7-1.4-3.6-3.7-4.3c-12.7-4.2-25.2-8.8-38-12.6c-4.7-1.4-5.3-4.1-4.7-7.7
		c0.6-3.5-0.2-5.4-3.9-5.7c-0.6,0-1.3-0.3-1.9-0.5c-7.7-3.1-14.8-2.5-21.3,3.1c-1.5,1.3-4,1.2-5.8,2.2c-5.4,3-2.2,7.8-1.6,11.6
		c3,17,6.4,33.9,9.7,50.9c0.3,1.6,0.9,3.1,1.3,4.5c9,1.1,17.6,2.4,26.2,3.2c3.3,0.3,3.7,1.8,3.3,4.6c-0.7,5.5-2.1,10.4-6.7,14.2
		c-1.4,1.1-0.8,4.6-1.2,7c-0.3,1.7-0.2,4-1.2,4.8c-6.6,5.1-13.4,9.9-20.2,14.6c-3.6,2.5-5.3,5.2-1.5,8.9c1.4,1.3,2.8,2.7,4.2,4
		c4.1,3.7,8.2,7.4,12.3,11c1.6,1.4,3.2,2.9,5.2,4.7c-1.1,0.1-1.9,0.3-2.6,0.2c-10.9-1.7-19.6,4.3-28.9,8.1c-3.6,1.5-3.2,6.3,0.6,9.2
		c3.7,2.9,7.5,5.6,12,9c-1.9,0.3-3.1,0.9-3.9,0.6c-5.5-1.8-10.5,1-15.7,1.6c-7.6,0.8-12.1,9.1-9.3,16.2c13,33.7,26,67.4,39,101.1
		c0.2,0.4,0,1-0.1,2.5c-3.9-2.8-7.6-5.1-10.8-7.9c-3.7-3.2-7.3-6.6-10.4-10.4c-3.2-3.9-7.4-5-11.7-4.9c-7.4,0.1-13.4-3.4-19.8-6.3
		c-2.3-1.1-5-1.2-7.5-1.8c-2.7-0.7-5.4-1.1-8-2.1c-6.4-2.5-12.7-4.2-19.2-1.1c-8.5-14.9-8.6-29.8-1.4-44.7c3.8-7.8,6.3-15.7,4-24.5
		c-0.4-1.6-0.5-3.6,0.1-5.1c3.5-8.8,1-16.9-2.3-25.1c-1.3-3.4-3.2-4.7-6.6-4.3c-3.2,0.4-5.2-0.8-6.7-3.7c-1-1.8-3-3.3-4.9-4.2
		c-3.9-1.7-8.3-2.2-10.9-6.7c-1.7-2.9-5.8-2.1-6.8,1.3c-1.1,3.7-1.1,7.7-2,11.5c-0.4,1.8-1.8,3.4-2.6,5.1c-0.6,1.4-0.9,2.9-1.5,4.4
		c-1.3,3.4-2.3,7-3.9,10.3c-3,6.2-6.2,12.3-9.7,18.2c-2.4,4-4.8,8.4-11.7,7.6c0.6-4,1-7.9,1.9-11.7c1.1-4.4,0.6-7.8-3.8-9.9
		c-3.9-1.8-8.6-2.7-11.6-5.5c-2.9-2.8-4.9-7.2-5.9-11.2c-1-4.1-0.6-8.7-0.1-12.9c0.2-1.9,1.7-4.1,3.3-5.4c3.2-2.6,6.2-4.1,4.9-9.8
		c-1.1-5,1.1-10.6,1.5-16c0.3-3.1,0.4-6.4-3.8-7.4c-4.6-1.1-7.1,0.3-8.4,5.3c-0.7,2.6-3.8,4.5-5.7,6.7c-3.4,3.9-6.7,7.9-10.8,12.8
		c-3.5-6-7.6-12.4-11.1-19c-1.7-3.3-2.5-7-3.5-10.6c-2.1-7-7.5-8.2-13.7-8.2c-8.2,0-11.3-2.2-13-9.6c-0.4-1.7-0.5-4.1,0.3-5.5
		c3.5-5.3,0.8-10.4-0.9-14.8c-6.3-16.9-13.5-33.5-20.6-51c3.9-1.7,7.7-3.3,11.5-5.1c19-9.1,38-18.4,57-27.5
		c13-6.2,25.9-12.6,39-18.3c5.8-2.6,3.7-7.1,3.6-10.9c-0.1-1.4-3-3.7-4.9-4c-5.2-0.8-10.6-0.9-15.9-1.2c-0.7,0-1.6,0.2-2-0.1
		c-5.3-5.3-10.3-2.3-15.8-0.2c-4.8,1.9-10.6-2.8-11.2-8c-0.2-1.3-0.7-3.3-1.7-3.8c-4.1-2.1-4.9-5.6-5.6-9.6c-2.3-12.7-2-25,4.9-36.4
		c2-3.3,3.7-6.9,5.3-10.4c1.2-2.8,2.7-3,5-1.5c0.8,0.5,1.8,0.8,2.7,1.2c7.7,3.8,10.8,3.1,14.6-4.9c2.2-4.6,3-9.9,4.8-14.7
		c0.8-2.1,2-4.5,3.8-5.5c3.5-2,4.9-4.6,4.3-8.5c-0.6-4,1.7-5.3,5-4.5c4,1.1,7.9,2.4,10.1,6.8c5.1,10.5,13.7,11.1,20.1,1.2
		c2.6-4,4.6-8.5,6.8-12.8c2.4-4.6-1-7.6-3.1-10.9C2069.3,954.6,2068.6,953.7,2067.8,952.6z"/>
	<path id="_x32_691" class="st0" d="M3332,1123.7c-2.3-3.5-5-6.8-6.9-10.6c-1.6-3.1-2.6-6.7-3.5-10.1c-1.2-4.4-4-6.1-8.3-6
		c-3.5,0.1-7.6,1.1-8.5-4.4c-0.1-0.5-1.7-0.8-2.6-1c-13.7-2.9-27.4-5.8-41.1-8.6c-4.8-1-7.1,3.2-9.8,5.6c-8.2,7.2-15.9,15-23.9,22.6
		c-2,1.9-4.3,3.5-6.4,5.5c-2,2-4.3,3.6-3.1,7.4c1.3,4-2.1,7.6-6.4,7.9c-1.7,0.1-3.3,0-5,0c-3.5,0.1-6.9-1.6-10.5,1.6
		c-1.9,1.7-6.1,0.7-7.7-3c-0.5-1-1.2-2.6-1.9-2.7c-7.6-0.8-10.3-7.8-14.9-12.1c-3.9-3.6-7.8-1.9-12.3-1.9c0.4-4.5,0.1-8.9,1.2-12.9
		c0.9-3.1-0.6-4.3-2.3-5.6c-4.1-3.2-6.8-6.5-5.1-12.3c0.9-3.1,0.4-6.6,0.1-9.9c-0.3-3.7,1.3-5.9,4.5-7.4c3.2-1.6,6.3-3.3,9.3-5.2
		c3.1-2,4.5-4.5,1.6-7.9c-5.8-6.7-11.5-13.6-17.4-20.2c-7.6-8.5-15.4-16.9-22.9-25.4c-3.5-3.9-7.3-0.9-10.8-0.6
		c-3.1,0.3-6.5,1.8-8.8,3.9c-4.6,4.2-10.4,4.1-15.6,4.3c-8.4,0.4-15.8,2.3-22,8c-3.1,2.8-5.8,2.9-8.2-0.6c-3.3-4.8-8.6-5.5-13.5-7.2
		c-4.9-1.6-9.6-3.7-14.3-5.7c-1.6-0.7-3.3-2.3-4.8-2.1c-5.2,0.7-5.1-3.3-5.8-6.2c-0.8-3.3-0.2-6.4,3-8.7
		c7.5-5.6,14.8-11.4,22.1-17.1c1.6-1.3,4.2-2.6,4.4-4.2c0.5-3.9,0.7-8.1-0.3-11.8c-1.8-6.7,1.4-19.2,7.1-22.8
		c7.6-4.8,11-11.4,10.5-20.2c-0.3-5.1-0.6-10.2-1-15.3c-0.3-3.1,1.1-4.7,3.8-6.2c6.7-3.7,13.3-7.6,19.9-11.5c1-0.6,2.1-1.7,2.3-2.8
		c0.6-4.3,3.5-6.6,6.9-8.6c3.9-2.4,7.4-5.5,11.6-7.2c3.8-1.6,8.2-1.8,12.4-2.4c5.7-0.8,11.4-2,17.1-1.9
		c14.6,0.2,25.6-14.4,26.8-25.7c1.3-13.5,6.7-25.1,12.4-36.8c2.9-6,5.8-12.1,8.2-18.3c3.4-8.6,8.8-14.4,18.4-15.6
		c11.5-1.5,23-3.5,34.5-4.5c6.5-0.6,13.2,0.5,19.8,0.8c7.3,0.4,14.3-0.6,21.2-3.4c4.6-1.8,9.8-2,14.8-2.6c2.6-0.3,5.4,0.3,8-0.1
		c10-1.8,16,3.1,21.2,11c4.2,6.3,9.3,12.1,14.3,17.8c1.5,1.7,4.1,2.9,6.3,3.1c5.7,0.7,11.5,0.8,17.3,1.1c7.4,0.4,14.8,0.7,23.4,1.2
		c-1,6.8-1.9,13.3-3,19.8c-0.9,5.1-2.7,10.1-3.2,15.3c-0.3,2.8,0.3,6.5,1.9,8.7c6.7,9.1,8.7,19.7,10.3,30.2
		c1.6,10.7,6.3,20.1,10.1,30c1.4,3.6,2.5,7.4,3.4,11.2c1.8,7.2,7.2,11.5,13.1,14.5c10,5,20.6,9.1,30.8,13.7c3,1.3,5.2,3.2,5.3,7
		c0.1,8.3,6.1,13.6,10.5,19.8c0.8,1,1.6,2,2.2,3.2c2.5,4.5,5.4,8.8,7.3,13.5c2.6,6.4,7.9,9,13.6,11.6c4.8,2.1,9.3,4.7,15.1,7.7
		c-5.1,8.5-9.6,16.6-14.9,24c-2.1,2.9-6.2,4.4-9.4,6.5c-2.7,1.8-5.4,3.6-8.2,5.3c-5.8,3.4-4.6,9.5-5.3,14.6c-1,6.9-2.7,12.3-9.8,16
		c-15.4,7.9-26.7,20.4-36.1,34.8c-1.7,2.6-3.5,5.1-5.3,7.6c-6.1,8.6-7.8,18.1-6,28.3c0.2,1,0,2,0,4c-4.1-0.4-7.9-1-11.7-1.2
		c-11.4-0.4-22.9-0.9-34.3-0.9c-4.2,0-6-2-6.9-5.5c-1.2-4.4-2-8.9-3.4-13.2c-1.1-3.4-3.6-6-7.6-5.9c-4,0.1-8,0.4-10,5
		c-1.4,3.3-3.4,6.3-5.2,9.4C3333.2,1123.2,3332.6,1123.4,3332,1123.7z"/>
	<path id="_x32_695" class="st0" d="M2450.6,1505.3c-1.5-2-2.5-3.3-3.5-4.8c-6.5-9.2-15.2-16.1-23.9-23.2c-3.3-2.7-4.9-7.4-7.2-11.3
		c-2.7-4.4-5.1-9-7.8-13.4c-5.2-8.5-14.4-10.2-22.6-14.2c-16.2-7.8-33-6.8-50-6.3c-5.3,0.2-10.4,2.7-13.6,7.7
		c-1.5,2.3-3.2,4.5-4.8,6.8c-0.5,0-1.1,0.1-1.6,0.1c-2.9-9.1-6-18.1-8.5-27.2c-1-3.5-3.8-6.1-7.9-5.6c-5.3,0.7-10.7,1.5-16.1,1.9
		c-16.7,1.4-33.5,2.6-50.2,4.1c-13.7,1.2-27.4,2.8-41.3,4.3c-10.3-26.9-20.5-53.5-30.7-80c-3.3-8.5-6.6-17-10-25.5
		c-2.1-5.2,0.9-11.1,6.6-11.8c5.6-0.6,11.3-0.4,16.8-1.3c2.1-0.4,4-2.8,5.7-4.5c0.2-0.2-1.5-2.5-2.6-3.5c-4.1-3.5-8.4-6.8-13.6-11
		c8.2-2.9,14.4-7.7,22.6-7.9c3.9-0.1,7.9-0.7,11.8-1c3.8-0.3,3-2.8,1.6-4.4c-2.4-2.7-5.3-5-8-7.4c-3.5-3.1-6.9-6.4-10.6-9.1
		c-6.3-4.5-6.5-5.5-0.5-10.1c7.4-5.7,14.9-11.2,22.8-17.2c-4.7-3.6-4.6-6.8-0.4-10.4c5.5-4.7,4.6-11.8,5.8-18.1
		c0.2-0.8-2.2-3-3.5-3.2c-8.1-1.3-16.2-2-24.3-3.3c-1.4-0.2-3.5-1.7-3.7-2.8c-2.9-14.6-5.7-29.1-8.1-43.8c-0.7-4.4-0.5-8.9-0.7-13.5
		c12.7-8.2,12.7-8.2,26.5-5.2c0,1.6,0.3,3.2,0,4.8c-1,5.2,0.3,7.1,5.7,8.8c12.8,3.9,25.5,8,38.4,11.8c2.7,0.8,2.6,1.9,2.8,4.5
		c0.3,4,2.8,7.8,3.8,11.7c0.9,3.4,1.8,7.1,1.3,10.5c-0.6,4.5,1.3,10.6,4.7,13.6c2,1.8,2.9,4.7,4.6,6.8c1.2,1.5,2.6,3,4.2,3.9
		c1.2,0.6,2.9,0.2,4.4,0.4c4.1,0.7,6.5-1.8,5.2-5.6c-3.6-10.8-7-21.7-10.9-32.4c-1.7-4.8-0.6-8.6,2.7-12.4c0.7,0.5,1.5,0.8,2,1.4
		c3.8,4.1,7.8,6.2,13.3,3c2.6-1.5,5.6-2.1,7.9,1.1c0.4,0.5,2.2,0.7,2.6,0.3c3.7-3.8,4.3,0.2,5.8,2.2c3,3.8,5.3,8.5,9.2,10.9
		c8.6,5.5,17.9,9.9,27.1,14.4c1.4,0.7,3.9,0.2,5.3-0.6c5.3-3.2,10.3-6.8,15.5-10.3c5-3.4,6.2-11.7,4.3-17.5
		c-1.2-3.9-0.1-8.7,0.4-13.1c0.5-5.2,1.5-10.4,2.4-16.8c11.9,10.4,23.5,20.5,35.2,30.7c-3.1,0.6-5.9,1.2-8.6,1.8
		c-0.2,0.5-0.5,0.9-0.7,1.4c2.8,2.1,5.5,4.4,8.5,6.3c9,5.6,17.8,11.6,27.2,16.4c5.2,2.6,11.4,3.6,17.3,4.6c7.9,1.4,15.9,2,23.8,3.2
		c1,0.1,2.6,1.5,2.6,2.3c-0.2,4.1,3.3,4.2,5.4,4.4c11.4,1.3,22.9,2.9,34.4,2.9c6.4,0,12.8-3,20.2-4.9c0.3,3,0.7,6.6,1.2,10.2
		c0.7,5,1.2,10.1,2.2,15c0.4,1.8,2,3.3,3.3,4.8c4.5,5.2,3.4,10.7-2.4,14.2c-4.9,2.9-10.2,6-13.5,10.4c-2.3,3.1-1.4,8.5-1.7,12.9
		c-0.1,1.3,1.2,2.8,1,4.1c-1.1,12.6-1.1,25.5-7.8,37c-1,1.8-0.4,5,0.4,7.3c1.7,5.1,3.9,10,5.8,14.9c0.2,0.6,0.7,1.4,0.5,1.8
		c-2.5,5.8,0.2,10.5,3.2,15.1c2.2,3.4,4.5,6.8,7.1,10.6c-4.8,7.3-10.6,13.9-19.6,16.8c-7,2.2-11.6,6.9-14.3,13.6
		c-2.7,6.9,0.2,13.3,3.3,19c2.1,3.9,1.5,5-2,6.2c-2,0.7-3.9,1.6-5.9,2.3c-3.6,1.2-5,4.1-5.5,7.4c-1.5,9.1-2.8,10.7-11.1,12.4
		c-8.6,1.8-8.8,2-9,10.7c0,1.5-0.1,3,0,4.5c0.3,4.8-0.1,9.2-3.9,12.7c-3,2.8-2.3,5.4,0.9,7.7c2.4,1.7,3,3.6,2.1,6.7
		C2454.7,1486.9,2452.9,1495.7,2450.6,1505.3z"/>
	<path id="_x32_692" class="st0" d="M3444,1480.7c-8.4-2.9-13.7-8.3-18.4-15.1c-3-4.4-8-7.5-12.4-10.7c-3.7-2.7-7.7-5-11.8-6.9
		c-3.3-1.5-7.1-2-10.7-2.9c-3-0.8-6.1-1.2-9-2.2c-3.6-1.2-2.6-5.1-4-7.6c-4.8-8.6-8.7-18-18.8-22.3c-6.1-2.6-9.7-7.2-10.1-14.3
		c-0.2-3.4-2.3-6-6.5-3.8c-3.5,1.9-7.2,3.6-10.5,5.9c-3.4,2.4-15,1.6-17.9-1.5c-0.7-0.8-1.8-2-2.6-1.9c-9.1,0.5-18.6-4.1-27.3,3.5
		c-2.8,2.4-8.8,2.5-12.8,1.7c-7.4-1.6-12.8,1.5-17.8,5.7c-5.4,4.5-10.8,5.7-16.2,2.7c2.8-4.7,2.4-8-3.3-10.6
		c-4.4-2-5.7-6.9-6.9-11.4c-2.1-7.7-4.9-15.1-4.4-23.5c0.3-4-2.8-8-8.1-8.4c-1.5-0.1-3-1-4.8-1.6c0.5-1.4,0.6-3,1.5-3.7
		c4.5-4,4.1-9.9,5.3-14.9c0.7-3-1.7-7.7-4.1-10.3c-2.4-2.6-2.2-3.5-0.4-6.3c4.8-7.2,9.5-14.5,13.2-22.3c2.1-4.5,0.4-9.2-2.4-13.8
		c-5-8-13.4-10.4-20.8-14.7c-1.7-1-3.9-2.6-4.3-4.3c-1.3-6-4-10.5-11.1-13c15.8-8.2,30.5-15.7,45.9-23.6c1.1,3.4,1.4,6.9,3.2,9.4
		c2.1,2.8,5.2,6.3,8.3,6.7c8.7,1.2,17.5,1.3,26.3,1.1c3.2-0.1,6.4-2,9.5-3.4c3.3-1.6,6.3-4.9,9.5-5.1c5.8-0.3,9.7-4.4,14.8-5.7
		c5.7-1.5,11.7-2.9,17.4-2.6c6.9,0.4,18.6-3.7,20.5-9.1c-3.8-4.2-8.3-0.4-12.4-0.8c-3.5-0.3-7.2,0.4-10.8,0.9
		c-7.4,0.9-14.8,2.3-22.3,2.6c-2.8,0.1-5.7-2.5-7.2-3.2c0.6-6.5,3.1-12.9,1.2-17.3c-2-4.5-8.3-7-13.1-10.6c-0.1,0.1,0.4-0.6,0.6-1.4
		c0.4-2.5,1.9-6.4,0.9-7.2c-2.3-1.9-5.9-3.1-8.9-3.1c-3.2,0.1-4.5-0.8-6.9-2.9c-6.3-5.8-5.3-13.5-7.2-20.6c-2-7.3,0.1-13.9,2.8-20
		c2.6-6,0.1-9.5-3.2-13.1c-2.1-2.3-2.9-4.2-2.8-7.5c0.1-4.4-1.2-9-2.7-13.2c-1.4-3.8-1.5-6.2,1.4-9.8c4.9-6,10-6.7,17-4.8
		c9.7,2.6,19.8,4.1,29.7,6.2c1.1,0.2,2.8,0.5,3.1,1.2c2.6,6.4,8.7,4.3,13.3,6c1.8,0.6,3.5,2.5,4.4,4.3c2.9,5.6,5,11.6,8.1,17.1
		c2.9,5.2,8.1,4.9,11-0.1c1.4-2.4,2.9-4.7,4-7.3c1.5-3.4,4.4-3.8,7-2.9c2,0.7,4.1,2.7,4.9,4.6c2,4.9,2.9,10.3,4.9,15.2
		c0.7,1.7,3.2,3.5,5.1,3.8c5.4,0.8,10.8,1.1,16.3,1.1c10.8,0.2,21.5,0,32.9,0c0,3.9,0.1,6.5,0,9.1c-0.3,9.4-0.9,18.9-0.8,28.3
		c0,3,1,6.9,3,8.9c6.9,6.9,7.1,15.5,5.5,23.5c-3.4,16.4,0.3,30.4,8.9,44.7c7.4,12.3,18.5,20.2,28.5,29.6c3.6,3.4,6.4,7.8,9.3,11.9
		c0.5,0.7-0.1,2.4-0.3,3.6c-2.7,11.6,0,22.7,3.1,33.9c1.8,6.4,2.9,13,4.9,19.3c2.9,9.3,8.9,16.3,18,20.1c4.8,2,8.1,5.1,10.8,9.4
		c1.8,2.9,4.1,5.5,6.1,8.3c4.3,6.1,6.6,12.7,6.2,20.2c-0.8,13.5,2.3,26.4,7.3,38.8c2.4,6,0,10.8-3,15.5c-1.8,2.7-4.3,3.5-7.5,1.3
		c-4.3-2.9-8.9-5.5-13.7-7.6c-2-0.9-6.2-1.1-6.9-0.1c-4.6,7.1-12.1,4.8-18.4,6.2c-5.7,1.3-10.9,2.3-15.2,7.5
		C3454.7,1474.2,3448.7,1477.2,3444,1480.7z"/>
	<path id="_x32_693" class="st0" d="M2885.9,1108.7c2.7,0.4,5.6,1,8.4,1.3c4.1,0.4,8.2,0.6,12.3,1.1c1.7,0.2,3.9,0.3,5.1,1.4
		c5.3,4.7,12,5.7,18.3,7.5c5.9,1.7,11.6,3.2,16,8.3c2.6,3,7.3,4.2,10.5,6.8c1.9,1.5,3.4,4,4.3,6.4c2.1,5.8,3.8,11.7,5.5,17.6
		c3.1,10.9,14.5,12.2,22.9,20.3c-1.5,0.8-3.2,1.5-4.7,2.5c-5.7,4-7.1,7.4-5.2,13.9c1.3,4.5,0,7.4-4,9.2c-5.5,2.5-11.2,4.5-16.5,7.3
		c-2.5,1.3-4.1,4.1-6.4,5.8c-9.7,7.3-13.4,17.4-15.8,28.9c-3.5,16.7-8.3,33.1-12.9,49.6c-0.7,2.4-2.6,4.5-4.3,6.4
		c-12.1,14.1-23.9,28.4-36.4,42.2c-5.5,6.1-12.2,11.1-18.4,16.5c-4.4,3.9-9,7.6-13.5,11.6c-10.1,9-19.7,18.6-30.4,26.9
		c-4.8,3.7-11.5,4.9-17.5,6.8c-19.4,6.2-38.8,12.3-58.2,18.4c-0.4,0.1-0.8,0.6-1.3,1.1c3.1,8.6,6.5,16.7,14.7,21.9
		c3,1.9,4.7,4.6,4.4,8.7c-0.4,7.2-0.1,14.4-0.1,20.8c-1.6-1.5-4-5.3-6.4-5.4c-2.5,0-5.1,3.6-6.7,4.8c0.8,6.1,1.9,11.2,1.8,16.2
		c0,1.8-3.1,3.5-4.5,5.5c-1.6,2.3-3.9,4.7-4,7.2c-0.3,8-1.1,15.5-6.2,22.2c-4.6,6-3.8,13.7-5.2,20.6c-0.6,3.2-2.2,6.9-4.6,9
		c-4.2,3.8-5.9,7.4-5.6,13.3c0.4,7.8-1.3,15.7-2.1,23.5c-0.2,2.1-0.6,4.2-0.9,6.7c-9.1,1.5-18.4,3-27.7,4.5c-1.6,0.3-3.3,1-4.8,0.8
		c-1.5-0.2-4-1.5-4-2.2c0.5-8.1-5.8-12.8-9-19.1c-1.6-3-2.9-6.6-2.9-9.9c0.1-6.6,0.8-12.9-6.5-16.4c-0.4-0.2-1-0.7-1-1.1
		c-0.4-5.4-4.6-7.8-8.8-10.3c7.2-4.1,8.3-8.5,3.3-15c-5.9-7.6-9.4-16.3-12.4-25.2c-0.2-0.6-0.7-1.2-0.8-1.8
		c-1.6-7.6-1.6-7.6-10.4-8.3c0.6-2,0.9-4,1.8-5.6c3.7-6.5,7.1-13.3,11.4-19.4c3.9-5.5,8.5-10.5,13.3-15.2c3.9-3.9,4.3-8.7,1.6-12
		c-4.7-6.1-2.8-11.9-1.6-18c0.8-4.1,1.7-8.3,2.8-12.3c0.4-1.5,1.8-2.7,2.4-4.2c0.7-1.4,1.5-3,1.4-4.5c-0.3-3.9-1.2-7.8-1.4-11.7
		c-0.1-1.2,0.9-3.2,1.9-3.6c7.3-2.7,14.7-3.5,22.3-1.3c2.8,0.8,5.3,0,6.4-3.1c1-2.6,2.1-5.1,3-7.7c1.3-4.2,3.5-6.9,8.1-8.3
		c2-0.6,4.7-3.9,4.6-5.8c-0.6-12.8,2.1-25.9-2.6-38.4c-2.5-6.7-8.2-10.9-13.8-14.6c-5-3.3-6.5-7.8-7.4-13.4
		c6.5-1.1,9.7-4.4,10.5-11.4c0.3-3.2,4.1-7.5,7.3-8.7c6.7-2.6,8.1-6.9,7.3-13.1c-0.1-1,0.1-2,0.1-1.8c8.9-1.9,17.4-3.6,25.8-5.7
		c1.3-0.3,2.1-2.3,3.2-3.5c2.2-2.5,3.9-5.7,6.6-7.3c5.3-3.1,5.3-6.9,2.6-11.9c1.4-0.1,2.5-0.4,3.5-0.2c5.1,0.9,6.6-2.1,7.3-6.3
		c0.7-4.4,5-8.1,9.3-8.8c4.4-0.7,9-1.4,12.9-3.4c1.7-0.9,2.5-4.8,2.6-7.3c0.2-4.7,2.6-4.6,6-3.8c5.7,1.4,7.9-0.5,9.4-5.9
		c0.6-2.2,4-4.2,6.5-5.3c5.1-2.3,10.3-10.1,9.2-15c-1-4.1-2.2-8.2-3.4-12.2c-3.3-10.6-2.2-13.4,8.3-19.3c5.8-3.3,6.3-4.4,3.3-10.4
		c-1.1-2.2-2.4-4.3-3.6-6.4c-1.7-2.7-0.4-4.5,2.2-4.8c2.6-0.3,5.3,0.7,7.8,0.5c3.8-0.4,7.5-1.4,11.3-2.1c1.6-0.3,3.2-0.3,4.8-0.5
		c0.1,0,0.2,0.2,0.4,0.3c13.5,11.1,27.6,3.1,35.1-6.3C2885.7,1116.1,2885.2,1112.5,2885.9,1108.7z"/>
	<path id="_x32_690" class="st0" d="M3148.8,1091.5c-1.6-0.8-2.7-1.1-3.5-1.8c-8-6.7-14.1-6-21.1,1.5c-6.7,7.2-13.3,14.7-23.3,17.8
		c-0.4,0.1-1,0.4-1.2,0.8c-5.8,8.3-16.2,10.6-23.2,17.2c-2.6,2.5-5,5.2-7.5,7.8c-1.7,1.8-3.2,4.1-5.3,5c-4.4,1.8-4.3,5.1-3.5,8.5
		c1.3,5.5,2.6,11.1,4.8,16.3c2.3,5.7-1.9,9.9-2.4,14.9c-0.6,5.5-2.3,10.9-2.5,16.4c-0.1,4.7-2.5,6.6-6.2,8
		c-7.2,2.7-8.1,4.9-8.3,12.4c-0.1,4.1-2.7,8.2-4.4,13c-23.4-6-46.8-12-71.2-18.3c2.4-1.3,3.6-2.1,4.9-2.7c7.5-3.3,10-7,7.7-14.5
		c-1.5-5,0.6-7.9,4.1-9.8c5.5-3.2,5.7-8.2,0-11.2c-3.9-2.1-8-4-11.1-6.9c-3.1-2.9-5.8-6.7-7.3-10.6c-2.1-5.6-2.9-11.7-4.5-17.4
		c-0.5-1.7-1.8-3.5-3.2-4.7c-5-4.1-11.2-6.2-15.7-11.4c-2.6-3-8.1-3.7-12.4-4.9c-7-2-14.1-3.6-20.3-8c-1.8-1.3-5-0.8-7.6-1.1
		c-3-0.3-6-0.7-9-1c-4.1-0.4-8.2-0.7-12.3-1.1c-1.3-0.1-3-0.1-3.6-0.9c-3.2-4.2-7.7-7.4-9-13.2c-0.8-3.5-3.5-6.5-5.2-9.8
		c-2.9-5.7-5.8-11.4-8.6-17.2c-1.5-3.2-3-6.4-4-9.8c-1.7-5.6-2.9-11.3-4.4-16.9c-0.3-1-1-2.3-1.8-2.8c-9.8-6.5-12.8-17.5-18.1-27
		c-0.9-1.6-2-3-3.2-4.3c-3.9-4.1-3.5-10.4,1-13.9c1.5-1.2,3.2-2.3,4.9-3.1c1.4-0.6,3.5-1.4,4.5-0.8c1.2,0.7,1.7,2.7,2.1,4.3
		c0.3,1.2,0.1,2.6,0.1,5.1c3.3-1,6.1-1.8,8.9-2.7c3.2,0.3,6.8,0.8,10.3,1c3.1,0.2,5.7,0.5,8.9,1.7c13.9,5.3,25.9,13.7,38.4,21.3
		c3.1,1.9,6,3.1,10,2.2c5.1-1.1,10.5-0.9,15.8-1.2c17.1-1,34.3-1.9,51.4-3c12.3-0.8,24.6-1.7,36.9-3.1c4.3-0.5,8.6-3.5,12.7-0.7
		c7.3,5,15.6,6.9,23.9,9.1c2.5,0.7,4.6,3.7,6.5,5.9c2.9,3.4,5.7,3.5,8.9,0.7c0.1-0.1,0.2-0.2,0.4-0.3c7.6-6.5,16.3-8.9,26.3-8.8
		c4.1,0,8.3-0.8,12.1-4.1c3.5-2.9,8.9-3.5,13.6-4.6c1.1-0.3,3,0.8,4,1.9c7,7.7,13.9,15.5,20.8,23.2c5.7,6.4,11.5,12.8,17.1,19.2
		c1.6,1.8,2.4,3.5-0.9,4.7c-2.4,0.9-4.5,2.5-6.7,3.8c-4.6,2.6-8.1,5.4-7.4,11.8C3150.4,1079.3,3149.3,1085,3148.8,1091.5z"/>
	<path id="_x32_694" class="st0" d="M2649.2,1546.1c0.3,0.7,0.4,1.6,0.8,1.8c6.1,3.9,8.6,11.1,14,15.8c1.5,1.3,2.5,3.7,2.9,5.8
		c0.5,2.9-0.4,6.1,0.2,9c0.7,3.4,2.1,6.7,3.7,9.7c2.1,4.1,4.9,7.9,7.2,12c3.4,6.1-0.9,11.5-2.6,16.7c-4.3,13-2.3,25.6-0.9,38.7
		c1,9.6,7.7,14.1,12.4,20.5c1.6,2.2,2.9,3.6,1.4,6.5c-4.1,8.1-8.3,16.3-11.8,24.7c-1.8,4.4-2.7,9.3-3.4,14.1c-0.9,7-1.4,14-1.9,21.1
		c-0.8,10.7-8.4,16.9-15.6,23.1c-9.1,7.9-19.5,14.4-25.7,26.1c-1.8-4-3.9-7.3-4.7-10.8c-0.5-2.2,0.3-5.4,1.7-7.2
		c6.4-8.5,7.2-18.3,8.1-28.3c1.4-15.4-2.7-29.9-7.4-44.3c-2.7-8.3-11.3-12.1-19.3-8.8c-1,0.4-2.2,0.6-2.4,0.7
		c-3.2-5.2-6.2-10-9.1-14.8c-0.5-0.8-0.7-1.8-0.8-2.7c-0.9-9.6,0.5-18.6,5.2-27.1c6.9-12.4,8.2-25.8,5.6-39.6
		c-0.4-2.3-1.9-4.5-3.2-6.5c-5.7-8.4-4.8-18.9-8.6-27.8c-1.2-2.9-2.4-6.3-4.7-8.3c-4.7-4.1-6.1-9.5-7.5-15.1c-0.7-3,0.1-5.2,2.5-7.2
		c5.3-4.2,9.5-9.3,9.6-16.4c0.1-4.6-0.9-9.2-1.2-13.8c-0.1-1.7,0.1-3.3,0.2-5c0-0.4,0.5-0.8,0.8-1.3c9.6-13.3,6.2-25.1-3.6-36.7
		c-8-9.5-15.1-19.7-22.8-29.5c-1.5-1.9-3.8-3.2-4.9-4c-4.9,4.9-10.3,9.9-15.2,15.3c-7.6,8.2-15.2,16.5-22.2,25.2
		c-5.4,6.7-9.9,14.2-14.7,21.3c-0.6,0.9-1.2,2-1.4,3.1c-1.2,5.3-3,10-9.3,12.6c-1.1-1.9-2.6-4.1-3.8-6.4
		c-3.5-6.6-5.8-14.4-10.6-19.8c-5.8-6.5-13.5-11.7-21.2-16c-3-1.7-7.1-1.7-9.1-5.5c7.5-7.5,4.7-17.5,6.4-26.8c1.8-0.4,3.8-1,5.9-1.2
		c7.6-0.8,12.1-5.1,12.6-12.8c0.3-5.4,3.9-7.3,8.2-8.9c9.3-3.6,8.6-3.5,4.4-12.5c-5.1-10.9-4.2-21.5,10.1-26.3
		c8.7-3,13.9-9.2,19.2-15.5c4.6-5.4,9.1-5.8,13.1,0c4.3,6.1,8.8,12.2,13,18.4c1.4,2.1,2.2,4.6,4,8.6c5.2-5.9,9.7-10.8,14-15.9
		c3.9-4.6,8.4-8,14.6-9.1c3.3-0.6,6.8-1.4,9.6-3.2c1.9-1.2,3.5-4.2,3.6-6.4c0.2-3.5,1.5-5.2,4.3-7c6-3.9,11.7-8.2,17.6-12.3
		c1-0.7,2.4-0.7,3.7-1c4.3-0.9,8.5-1.9,12.8-2.5c1.4-0.2,2.9,0.8,4.3,1.4c0.4,0.2,0.7,0.7,1.1,1c0.3,0.3,7.1,12,7.3,12.4
		c2,4.6,3.8,9.3,5.9,13.8c1.4,3,2,5.7,0.8,9.2c-2.3,6.6,1.5,10.9,7.9,8.5c7.4-2.7,9.5,4.1,15.6,6.4c-4.4,1.2-7.4,1.9-10.3,2.9
		c-2.8,0.8-4.5,2.5-3.7,5.7c0.4,1.6,0.9,3.2,0.8,4.8c-0.1,4.5,0.5,8.5-1.5,13.4c-3.5,8.2-4.8,17.5-5.9,26.5
		c-0.4,3.2,2.7,6.8,3.9,10.4c0.5,1.4,0.6,3.5-0.2,4.5c-3.6,4.7-7.3,9.4-11.5,13.5c-5.3,5.3-9.7,11.1-12.1,18.2
		c-1.4,3.9-3.3,7.7-4.4,11.7c-0.9,3.1,0.9,4.8,4.2,4.3c4.4-0.6,4.8,1.8,6,5.5c2.7,8.1,5.7,16.5,10.5,23.3
		C2658.3,1539.2,2658.9,1540.7,2649.2,1546.1z"/>
	<path id="_x32_684" class="st0" d="M3045.9,1231.1c1-6.9,1.4-13,2.8-18.8c0.4-1.7,3.1-3.3,5.1-4.2c5.6-2.5,9.3-5.2,9.5-12.5
		c0.2-7.4,3.2-14.6,4.7-22c0.6-2.7,1.1-5.6,0.5-8.2c-1.7-7.1-3.9-14-5.9-20.8c1.8-1.3,3.1-1.9,3.9-2.8c8.8-9.4,19.1-16.9,29.8-24.1
		c11.1-7.4,23.1-14.2,31.6-25.2c3.7-4.8,10.3-6.2,15-0.2c0.9,1.2,3.4,1.7,5.2,1.6c3.9-0.2,9,4.3,8.7,8.4c-0.1,2.1-0.7,4.2-1,6.3
		c-0.3,2.1-0.5,4.2-0.9,7.1c1.7,0.4,3.7,1.3,5.6,1.1c7.3-0.8,11.1,3.7,14.7,8.9c1,1.5,3.2,2.1,4.7,3.3c1.7,1.2,3.8,2.2,4.7,3.9
		c1.9,3.5,9,6.8,12,4.5c4.6-3.6,9.5-2.4,14.3-2.1c4.1,0.2,10-2.6,9.6-6.4c-1.2-9.9,7-13.2,11.8-18.8c2.7-3.1,6.3-5.4,9.1-8.3
		c2.6-2.7,4.1-2,5.3,1c1.8,4.3,3.6,8.4,2.4,13.6c-0.6,2.5,1.5,6.2,3.3,8.6c2.7,3.5,5,6.4,2.4,11c-1.5,2.6-1.9,5.8-3.1,8.6
		c-2.4,5.4,1,10.2,1.4,15.2c0.1,1.3,0.7,2.6,0.5,3.9c-0.5,5,0,9.6,4.8,12.6c0.1,0.1,0.3,0.2,0.3,0.4c1.3,7.7,7.3,6.3,12.5,6.5
		c1.6,0.1,3.3,1,4.6,2c0.3,0.2-0.8,2.5-1.5,3.6c-3.3,5.3-2.6,7.2,3.5,8.3c6.1,1.1,11.3,11.4,8.2,16.9c-2.4,4.2-0.9,6.3,2,9.5
		c4.5,4.9,9.2,2,13.8,1.6c8.4-0.6,16.7-1.3,25.1-2c2.6-0.2,5.1-0.6,7.7-0.9c0.1,0.4,0.1,0.8,0.2,1.3c-4,0.6-8.1,1.9-12,1.5
		c-10-0.9-18.7,2.5-27.4,6.7c-2.1,1.1-4.6,1.5-6.8,2.4c-4.1,1.8-8.6,3.2-12.2,5.7c-5.4,3.9-11.3,2.6-17,2.5
		c-4.9-0.1-9.9-0.6-14.7-1.4c-2.1-0.4-4.8-1.8-5.8-3.5c-1.7-2.9-2.4-6.5-3.4-9.8c-0.8-3-2.8-3-5-2c-15.3,7.8-30.5,15.7-46.3,23.8
		c-1-1.3-2-2.6-2.9-3.8c-2-2.7-4.3-3.1-7.6-2.5c-3.5,0.6-7.3-0.1-10.9-0.5c-2.7-0.3-5.4-1.4-8.1-1.6c-16.4-0.8-32.7-1.3-49.1-2.1
		c-11.5-0.5-23.1-2-34.6-1.8C3061.9,1237.4,3053.9,1233.3,3045.9,1231.1z"/>
</g>
</svg>
