<?xml version="1.0" encoding="utf-8"?>
<!-- Generator: Adobe Illustrator 19.0.0, SVG Export Plug-In . SVG Version: 6.00 Build 0)  -->
<svg version="1.1" id="Layer_1" xmlns="http://www.w3.org/2000/svg" xmlns:xlink="http://www.w3.org/1999/xlink" x="0px" y="0px"
	 viewBox="0 0 8000 5200" style="enable-background:new 0 0 8000 5200;" xml:space="preserve">
<style type="text/css">
	.st0{fill:#FFFFFF;}
</style>
<path class="st0" d="M3077.7,1272.8c7.9-6.8,11.4-18.2,8.1-27.5c-3.1-8.6-2.7-17.2,0.6-25.3c5-12,9.8-23.9,11.2-37
	c0.7-6.4,3.1-11.1,9.9-13.4c2.9-1,5.3-3.9,7.4-6.4c3.8-4.6,7.1-9.6,10.5-14.5c8.8-12.5,17.5-25,26.4-37.4c1.5-2.1,3.8-3.7,6.1-5
	c14.3-8.3,21.5-20.7,24-37c1.9-12.3,0.7-23.6-5.2-34.6c-1.2-2.3-1.9-4.9-3.2-8.4c3.8-0.8,7.2-1.7,10.6-2.1
	c22.1-2.2,44.2-4.3,66.3-6.5c2-0.2,4-0.3,5.8-1c3.8-1.5,4.8-4.6,2.7-8c-0.9-1.4-2.2-2.5-3.3-3.7c-10.7-11-21.2-22.1-32-32.9
	c-46.2-46.6-92.5-93.1-138.6-139.6c-21.6-21.7-43-43.6-64.4-65.5c-16-16.3-31.8-32.8-48.1-48.9c-4-4-5.4-8.1-4.7-13.3
	c2.1-15.4,4.1-30.8,6.3-47c2.4,0.5,4.4,0.5,5.9,1.3c8.9,5,17.7,3.9,26.7,0.5c12.5-4.7,25.7-6.3,38.9-8c9.3-1.2,16.7,1.3,22.4,9.2
	c4,5.5,9.3,10.2,13.9,15.2l-0.4-0.3c3.9,5.3,7.5,10.8,11.6,15.9c13.2,16.3,26.7,32.3,39.6,48.8c5.5,7,13.3,9.7,20.7,13.1
	c2.1,0.9,5.8,0.7,7.6-0.6c15.4-11.6,34-14.8,51.8-19.7c10.4-2.9,18.3-9.2,25.6-16.6c9.1-9.3,19.4-16.4,31.2-22.5
	c11.9-6.2,22.3-15.6,23.7-31.1c0.9-9.6,2.1-19.2,4.3-28.5c1.4-6,3.5-12.5,7.3-17c14.1-16.9,24.6-35.3,29.9-56.8
	c3.3-13.6,14.3-20,26.2-26.5c14.2,26.4,25.3,53.7,40.2,80.3c8.3-6.1,15.1-3.7,20.7,1.3c4.3,3.7,8.1,3.3,12.8,1.9
	c33.6-9.6,67.1-19.1,100.8-28.3c13.7-3.7,27.7-6.6,41.7-9.9c7.9,13.6,15.7,26.7,23.2,40c8.5,15,21,26.6,33.1,38.4
	c4.9,4.8,9.3,2.9,10-4c1.2-11.9,1.7-23.9,2.7-35.8c2.3-27.8,4.8-55.5,7.2-83.3c0.9-10.9,1.6-21.8,2.5-33.1
	c6.6-2.1,12.8-4.3,19.1-6.2c4.7-1.4,8.5-3.8,10.5-8.4c0.4-0.9,0.9-1.8,1.5-2.6c6.5-10.9,12.8-21.6,23.7-29
	c11.5-7.8,15.6-20.2,18.6-34c-2.6-3-5.6-6.4-9.1-10.4c2.6-4.9,5.2-9.8,8.3-15.7c9.3,1.6,18.8,3.1,28.1,4.9
	c55.1,10.5,110.3,21.2,165.4,31.7c20.9,4,41.8,7.8,62.6,11.7c1.9,0.4,3.9,1,5.7,1.8c35.5,14.2,71.3,27.7,106.4,42.8
	c19.2,8.3,37.1,19.4,55.8,28.8c12.9,6.5,26.4,10.1,41.2,6.1c13.2-3.5,25.3-1.5,36.2,8c11.6,10.2,12,9.8,26.3,4.3
	c35.4-13.5,70.9-26.9,106.2-40.7c8-3.2,14.8-3.3,22.7,0.6c14.6,7.2,29.8,13.2,44.7,19.8c1.8,0.8,3.5,1.8,5.7,2.9
	c0,11.4,0.8,22.8-0.3,34c-0.7,6.6-4.2,13.1-7,19.4c-1.6,3.6-4.6,6.5-6.9,9.8c-6,8.5-5.2,11.1,4.2,14.5c5.6,2,11.3,3.8,17,5.6
	c3.3,1.1,6.6,1.7,8.7-2.2c0,0-0.2,0.1-0.2,0.1c2.3-1.9,5-3.5,6.7-5.8c7.7-10.8,18.3-17.1,32.4-21.3c-4.8,15.5,0.1,31.2-5.3,46.2
	c-2,5.5-2.5,11.6-3,17.5c-0.4,3.9,2.2,5.9,6.1,6.4c4.6,0.5,9.1,1.6,13.8,1.9c6.7,0.5,12.6,3,18.8,5.4c8.2,3.1,16,5.5,19.7,14.3
	c22.1,17.3,39.5,39.1,58.4,59.5c1.9,2,2.8,5.1,3.6,7.8c0.9,3.1,1.2,6.4,1.8,10.5c-11.6,7.3-27.4,9.6-35.1,23.7
	c-9.5-2.2-18.2-3.5-22.5,7.9c-10-1.8-14.3,6.4-20.7,11.4c-9.7,7.5-19.5,14.7-29.5,21.8c-2.3,1.6-5.6,1.8-8.4,2.9
	c-6.8,2.8-7.8,6.9-2.9,12.1c2.5,2.7,5.5,4.9,8.1,7.4c2.8,2.7,5.2,5.8,8.1,8.2c3,2.5,6.5,4.3,10.5,7c-0.2,5.8,3.4,10.6,7.9,15.3
	c5.8,6,9,13.2,11,21.8c4.6,19.5,2.5,39.1,2.8,58.7c0.1,6.8-5.1,11.3-9.7,15.7c-1.4,1.4-3.4,2.2-4.9,3.5c-5.4,4.5-7.1,10.1-4.6,16.7
	c1.9,4.9,4.4,9.6,6.6,14.3c4.7,10,8.7,19.9,5.1,31.5c-1.1,3.7-0.3,7.9-0.4,11.9c-0.1,4.2,1.8,7.5,5.6,8.4c4,1,8.3,1.6,11.9-2.4
	c6.4-7,6.6-6.9,15.8-2.8c1.2,0.5,2.5,1.3,3.7,1.3c11.9,0,22,6.6,33.8,9c1.3,9.2,2.5,18.1,3.8,27c0.7,5.1-1,9-5,12.3
	c-6.8,5.7-8.8,12.7-6.5,21.5c2.6,9.9,3.8,20.1,6.3,30c2.7,10.7,0.2,20.3-4.3,29.9c-1.4,2.9-2.4,6.1-3.1,9.2
	c-2.8,11.9-7.9,22-20.1,26.5c-5.1,1.9-7.5,5.1-7.3,10.5c0.1,2.3-0.3,4.5-0.5,7.5c-1.7-0.2-2.9-0.4-4.1-0.5c-4.4-0.4-9.6-3.3-12.8,2
	c-3.6,6-6.7,12.4-2.9,19.7c1.2,2.4,2.1,5,3.7,7.1c4.2,5.3,5.2,11.4,4.5,17.8c-0.5,4.5,1.1,7.5,5.1,9.8c5.9,3.4,8.8,8.6,9,15.6
	c0.2,5.3,1.5,10.5,1.8,15.8c0.3,5.6,1.1,11.4-5.4,14.8c-1.4,0.7-2.6,4.4-2,6.1c3.1,9.6,1.9,20,4.5,29.3c2.4,8.9,2.9,17.6,3,26.5
	c0,1.9-0.5,3.8-0.8,6.5c-19.2-5.8-37.9-11.4-56.6-17.1c-1.5-0.5-3-1.5-4.2-2.5c-19.2-16.4-38.3-32.9-57.5-49.3
	c-9.4-8-18.8-15.9-28.5-23.4c-6.7-5.2-8.3-4.8-14.2,1.5c-14.4,15.6-28.8,31.4-43.1,47.1c-2.5,2.7-4.9,5.5-7.6,8.5
	c-13.6-4-26.9-7.1-39.5-11.8c-9.5-3.5-17.1-2.3-25.1,3.5c-6.4,4.7-13.8,8.1-20.2,12.8c-4.6,3.4-8.7,3.4-14,2
	c-17.6-4.9-35.3-9.3-53.1-13.8c-4.2-1.1-8.4-2.2-12.7-2.4c-25.8-1-50.2-9.3-75.4-13.7c-10.4-1.8-13.8-0.3-17,9.8
	c-2.7,8.2-5,16.5-7.9,24.7c-2.8,8-3.5,16.4-2.5,24.6c2.3,17.8-5.9,32.2-14,47.7c-9.7-6.3-19.2-12.4-28.5-18.5
	c-22.5-15-47.2-26-71.4-37.9c-5.4-2.7-9.3-6-12.5-10.8c-6.8-10.2-13.9-20.3-20.6-30.6c-3.8-5.8-8.7-8.5-15.8-8.4
	c-23,0.5-46,0.4-68.9,0.8c-10,0.2-19.9,0.8-29.9,1.3c-8.4,0.4-10.7,3.4-9.3,12.2c0.7,4.3,1,8.7,2.4,12.7c1.2,3.7,3.1,7.5,5.7,10.2
	c5.3,5.5,11.6,10,16.8,15.6c2.5,2.7,4,6.6,5,10.2c1,3.4,0.5,7.4,1.5,10.8c1.7,5.8-0.3,8.9-6.7,10.6c-6-4.2-12.9-8.3-18.8-13.5
	c-6.4-5.7-11.9-5.1-18.9-1.3c-10.2,5.5-21,10-31.9,15.2c-8-4.9-16.2-9.4-23.8-14.6c-2.5-1.7-4.3-4.9-5.7-7.8
	c-10.3-21.6-20.3-43.4-30.6-65c-4.4-9.4-5.7-9.9-16.3-9.1c-19.5,1.4-39.1,2.9-58.6,4.2c-2.9,0.2-5.9,0-10.3,0
	c1.1-8,2.1-15.4,3.1-22.8c0.3-2.6,1.5-5.5,0.7-7.8c-4.7-13.1-8.7-26.6-15-38.9c-9.7-18.9-21.6-36.7-35.1-53.2
	c-2.1-2.6-4.2-5.2-6.8-7.2c-1.7-1.3-4.6-2.6-6.3-2c-8.3,3-17.4,4.2-23.4,12.1c-6.8,9-14.8,17.1-21.6,26.1c-2.5,3.3-4.8,4.2-8.3,3.5
	c-6.5-1.2-13.1-2.3-19.6-3.6c-6-1.3-11,0-15.4,4.6c-18.4,19.2-37,38.3-55.6,57.3c-12.1,12.4-24.3,24.6-36.5,36.9
	c-3.4,3.4-7.3,5.1-12.4,5.4c-9.6,0.6-19.2,1.6-28.6,3.3c-3.9,0.7-8.1,3-11.1,5.7c-7,6.2-13.4,13-19.8,19.7
	c-2.9,3.1-6.1,4.6-10.4,4.7c-8.9,0.3-17.9,1-26.8,1.9c-2.5,0.2-5.6,0.9-7.3,2.6c-4.8,4.9-9.5,10.1-13.4,15.8
	c-14.5,20.6-28.8,41.4-43.2,62.1c-4.6,6.5-9.5,12.8-14,19.4c-5.4,7.9-2,14.8,7.8,14.6c16.6-0.3,33.2-1.4,49.8-2.1
	c5.3-0.2,10.6,0,16.6,0c3.6,6.2,7.4,12.8,11.3,19.3c4.2,6.8,6.5,7.8,14,6.1c30.2-6.8,60.3-13.6,90.4-20.4c3.8-0.9,7.8-1.5,13.1-2.5
	c4.2,41.5,8.3,82.6,12.5,124.5c-12.4,3.2-24.2,6.2-36,9.2c-17.4,4.4-34.8,9-52.3,12.8c-4.9,1.1-10.6,0.5-15.5-0.9
	c-10.9-3-21.4-7.4-32.2-10.5c-4.2-1.2-9.2-1.6-13.5-0.8c-13.4,2.5-26.6,5.7-39.9,8.7c-4.8,1.1-9,0.5-13.1-2.6
	c-6.4-4.8-13.3-8.8-19.7-13.6c-4.7-3.5-9.5-4.4-15-2.8c-8.8,2.6-17.5,2.8-26.1-1c-3.9-1.7-8.3-2.4-12.3-4c-12-4.5-24.1-6.3-37-6.3
	c-21.6,0.1-43.2-1.2-64.8-1.7c-4.6-0.1-9.2,1-13.8,1c-2.4,0-5.2-0.7-7.2-2c-8.5-5.5-15.4-12.5-19.7-22c-1.7-3.7-5.2-6.8-8.1-9.8
	c-12.6-13.1-23.2-27.2-23.9-46.4c-0.1-1.9-0.7-3.9-1.1-6.1c3-3.1,6-6.3,8.9-9.4c18.4-19.4,25.2-42.3,20.4-68.6
	c-1.5-8.2-3.7-16.2-5.1-24.4c-1.7-9.7-1.2-18.7,5.3-27.3c9.1-12.2,12.3-26.8,14.1-42.6c3.7-3,8.2-6.7,12.7-10.5
	c0.3-0.3,0.7-0.6,0.9-0.9c12.7-9.8,25.3-19.6,37.9-29.5c1.5-1.2,2.7-2.8,4-4.3l0,0c5.7-7.1,11.5-14.2,17.2-21.3
	C3077.2,1273.4,3077.4,1273.1,3077.7,1272.8z"/>
<path class="st0" d="M3032.3,1840.1c-8.8-11.8-7.1-26.4-9.7-39.7c-1.6-8.4-4-16.4-9.2-22.7c-10.3-12.2-14.9-26.2-17.6-41.5
	c-0.9-5.4-3.4-10.6-5.5-15.7c-2.2-5.4-6.2-9.3-11.7-11.6c-1.8-0.8-3.5-1.9-5.2-2.9c-8.4-5.1-12.6-12.1-11.1-22.3
	c1.1-7.5,1.6-15.1,2-22.7c0.4-7.9,3.9-14,10.3-18.3c5.7-3.8,9.9-8.7,12.3-15.1l-0.3,0.2c7.2-3.3,14.4-6.6,21.6-9.9
	c11.8-5.4,11.8-5.5,24.5-5.3c26.3,0.5,52.6,0.8,78.8,2.3c8.7,0.5,17.2,4.5,25.9,6.9c3.2,0.9,6.5,1.6,9.5,3
	c8.2,3.7,16.5,4.1,25.3,1.8c5.3-1.4,10.1-0.9,14.9,3.1c5.7,5,12.8,8.4,18.8,13c4.4,3.3,8.7,4.2,14,3c14.6-3.3,29.2-6.6,43.8-9.5
	c3.4-0.7,7.3-0.8,10.6,0.3c11.7,3.7,23.4,7.7,34.9,12.1c4.6,1.7,8.8,1.9,13.5,0.6c30.9-7.9,61.9-15.4,92.9-23.1
	c9.9-2.4,12.1-5.9,11-16.3c-2.4-23.8-4.6-47.6-6.9-71.4c-1.9-19.2-3.7-38.3-5.8-57.4c-1.1-9.9-4.3-12.2-13.8-10.1
	c-33.1,7.3-66.2,14.7-99.3,22c-2.2,0.5-4.5,0.7-7.3,1.2c-3.6-6.2-7.3-12-10.4-18.3c-3.3-6.7-8.4-8.7-15.5-8
	c-15.2,1.5-30.4,2.6-45.6,3.8c-1.6,0.1-3.3,0-5.7,0c3.5-9.8,10.2-16.8,15.7-24.5c12.6-17.9,26-35.3,38.4-53.4
	c3.9-5.7,8.3-7.9,14.7-8.1c7.3-0.2,14.6-1.1,21.8-1.3c4.7-0.1,8.2-2,11.4-5.2c6.8-6.9,13.5-13.9,20.6-20.4c2.5-2.3,6-4.3,9.3-4.8
	c7.8-1.3,15.8-1.9,23.8-2.2c7.6-0.4,14-2.2,19.5-8.1c19.7-20.7,39.8-41,59.9-61.4c11.4-11.6,23-23,34.2-34.1
	c10.2,1.4,19.7,2.6,29.1,3.9c5.8,0.8,9.5-2.3,12.8-6.3c7.8-9.5,15.2-19.3,23.3-28.5c2.9-3.3,7.3-5.3,11.6-8.4
	c10.8,14,20.9,26.9,29.4,41.2c7.5,12.6,14.1,25.5,18.2,39.8c1.4,5,2.1,9.6,1.3,14.6c-1.5,8.8-2.9,17.7-4.2,26.6
	c-1.1,7.7,1.8,11.1,9.6,11.3c3.6,0.1,7.3-0.3,11-0.6c22.2-1.6,44.3-3.1,67.5-4.8c3,6.3,6.1,12.8,9.2,19.3
	c7.9,16.9,15.6,33.8,23.8,50.6c1.6,3.3,4.7,6.4,7.7,8.5c7.3,5.2,15.2,9.6,22.6,14.6c6.1,4.2,11.7,4.8,18.4,0.9
	c7.7-4.5,16.3-7.6,24.2-11.8c5.6-2.9,10.1-3.3,15.2,1.5c4.8,4.5,10.8,7.6,16.3,11.5c3.3,2.4,6.6,2.6,10.3,0.6
	c4.1-2.2,8.3-4.2,12.5-6.3c4.8-2.4,6.4-6.3,5.6-11.6c-1.1-7.9-1.5-15.9-3.2-23.6c-1.1-4.6-3.5-9.4-6.6-12.9
	c-5-5.7-10.8-10.8-16.8-15.6c-4-3.2-5.1-6.6-4.1-11.9c6.5-0.4,13.1-0.9,19.7-1.1c22.3-0.5,44.6-0.8,66.8-1.5
	c5.3-0.2,8.5,1.5,11.3,6.1c6.3,10.1,13.5,19.7,20.1,29.8c3.2,5,7.5,8.2,12.7,10.7c18.5,9,37.4,17.5,55.3,27.7
	c17,9.7,33,21.2,49.4,32c8.4,5.5,12,4.7,16.3-4.4c5.6-11.7,11.1-23.5,16.1-35.4c1.5-3.5,1.5-7.8,1.4-11.7
	c-0.6-15.4,0.1-30.6,6.1-45.1c1.3-3,2.3-6.2,3.6-9.9c17,3.5,33.5,7,50,10.3c5.2,1,10.4,2.2,15.7,2.5c27.5,1.7,53.1,11.7,79.5,18
	c5.7,1.4,10.3,1.1,15.1-2c7.5-4.9,15.3-9.4,22.7-14.5c5.6-3.9,10.8-5.2,17.6-2.8c11.9,4.2,24.3,7.1,36.2,11.1
	c6.5,2.2,11.1,1.5,15.9-3.9c13.2-14.9,26.9-29.5,40.4-44.2c2.7-2.9,5.5-5.7,8.7-8.9c11.4,9.7,22.5,19.1,33.5,28.5
	c16.4,14,32.7,28.2,49.3,42c3.5,2.9,8.1,4.5,12.5,5.9c14.9,4.7,29.9,9,44.9,13.5c2.8,0.8,5.6,1.8,8.9,2.9c0,10.4,0.1,20.3-0.1,30.3
	c-0.1,5.9,1.1,10.8,5.4,15.4c5.6,6,10.1,13,14.8,19.8c0.9,1.2,1.1,3.1,1.1,4.7c0.1,16.5,7.7,30.6,13.9,45.2c0.5,1.2,2.1,2.3,2,3.3
	c-0.8,9.8,4,17.7,8.8,25.6c0.2,0.3,0,0.7,0.2,1c6.5,8.3,9.3,18,10.9,28.3c0.3,2,2.5,3.8,4.1,5.4c5.5,5.5,11.1,10.8,17.9,17.4
	c-6.7,1.3-11.2-0.2-14.1-3.2c-5.5-5.7-10.6-11.9-14.7-18.6c-3.5-5.8-7-10.6-12.9-14.5c-6.4-4.2-12-10.6-16.3-17.1
	c-4.8-7.4-9.6-14.3-17.7-18.4c-10-5-18.2-13.2-29.6-16c-8.9-2.2-17.5-5.3-26.3-8.1c-1.9-0.6-3.5-1.8-5.3-2.8
	c-13.4-7.4-21.4-5.7-30.8,6.9c-1,1.3-2.1,2.5-3.6,4.2c-9.1-4.4-16.2,2.3-24.1,4.6c-10.1,2.8-19.3,9-30.5,7.9c-3.7-0.4-6.8-1-10-3.4
	c-6.1-4.5-12.4-7.9-21.1-5.5c-4.5,1.3-10.2-1.6-15.3-2.8c-2.2-0.5-4.4-1.5-6.4-2.5c-6.6-3.3-11.9-0.4-17.6,2.7
	c-11,5.9-22.4,11.2-33.6,16.8c-4.1,2.1-8.1,4.5-12.1,6.7c-3.5,1.8-5.9,4.3-5.7,8.5c0.2,5.4-3.8,7.1-7.8,7.1
	c-7.2,0.1-10.2,4.3-13.4,9.9c-7.3,12.7-9.9,25.8-6.8,40.2c0.8,3.9-0.9,8.4-1.5,12.5c-0.1,1-0.8,1.8-1.2,2.7
	c-11.2,22.6-4.3,43.2,7.5,63.1c1.7,2.9,5.4,4.7,8.4,6.7c5.5,3.6,9.2,7.6,9.2,15.2c0,16.9,1.4,33.9,1.6,50.8c0.1,6.5,1.7,11,8.2,13
	c2.5,0.8,4.8,2.2,7.3,3.1c8.1,3,15,6.4,19,15.6c4.4,10,14.2,14.4,25.5,14.1c3.3-0.1,6.7-0.2,10,0c5.7,0.3,10.2-1.6,14.4-5.6
	c5.8-5.7,12.4-10.1,22.7-7.5c-1.9,8.4-3.4,16.7-5.7,24.8c-1.6,5.7-5.1,10.9-6.4,16.6c-1.9,8.5-6.7,14.5-13.8,18.6
	c-13,7.5-21.6,18.1-25.4,32.8c-1.7,6.7-4.8,13-7.5,20.1c-9.3-1.6-15.5,4.3-21.9,9.9c-2.5,2.2-5.2,4.2-7.3,6.7c-3,3.7-6.6,4-10.8,3.2
	c-7.5-1.4-15-2.7-22.5-4c-3.7-9.8-4.2-10.3-14.2-10.3c-13.7-0.1-27.3,0-41,0c-2.9,0-5.9,0-9.5,0c0.9-14.3-9.4-21.9-16.1-31.6
	c-2-2.9-4-6-5.1-9.4c-2.7-8.2-4.8-16.6-7.3-24.8c-2.5-8.3-4.7-10.1-13.5-10.2c-29-0.1-58-0.1-87,0c-9.1,0-11.9,3.3-10.5,12.3
	c0.8,4.8-0.9,7.7-4.4,10.2c-20.5,14.1-13.3,13.1-12.1,33.4c0.3,5.6,1.5,11.1,2.3,17c-1.7,0.4-2.9,0.8-4.1,1c-11.7,2-19-1.8-25.4-13
	c-6.4-11.3-16.9-20.4-26-30c-1.6-1.7-6.4-2.9-7.9-1.8c-5.8,4-10.8,1.4-15.9-0.7c-35.7-15.4-71.4-30.9-107.1-46.3
	c-15.6-6.7-31.3-13.1-46.7-20.1c-5.1-2.3-8.8-1.9-12.6,1.8c-2.1,2.1-4.5,4-6.5,6.2c-6.3,6.9-13.1,12.6-22.8,15
	c-9.1,2.2-9.9,5.6-8.9,15.8c2,18.8,2.6,37.8,5.3,56.5c2.8,19.2-0.5,37.7-3,56.4c-0.1,0.8-0.8,1.6-1.7,3.6
	c-7.2-9-18.3-13.5-19.8-26.4c-0.9-7.5-4.5-14.7-5.6-22.2c-2.6-17-12.4-29.7-23.4-41.9c-2.7-3-5.3-6-8-8.9
	c-5.7-6.3-8.9-13.3-9.5-22.2c-1.1-17.9-3.5-35.7-5.4-53.5c-0.9-8.3-3.3-10.9-11.6-12.2c-5.2-0.8-10.5-1.1-15.8-1.4
	c-26.5-1.6-53.1-3.1-79.6-4.7c-32.2-1.9-64.3-3.9-96.4-6c-17.9-1.1-35.8-2.2-53.6-3.8c-7.5-0.7-13.8,1-19.5,5.7
	c-2,1.7-4.3,3.2-6.2,5c-15.2,14.8-35.3,19.4-54.7,24.8c-11.6,3.2-20.6,7.8-26,19.3c-3.8,8.1-9.5,15.2-14.2,22.9
	c-2.2,3.6-4.7,5.7-9.1,6.9c-41.4,11.1-82.5,23.2-124.1,33.6c-14.3,3.6-29.6,3.2-44.5,4.4c-21.8,1.8-43.6,3.7-65.5,5.2
	c-5.1,0.4-8.9,2.3-12.2,5.8c-4.3,4.6-8.7,9.2-12.8,13.6c-6.8-2.8-6.9-12.9-18.2-10c3-5,4.7-7.6,6.2-10.4c3.7-6.6,4.4-13-0.8-19.4
	c-3.5-4.3-6.3-9-9.5-13.5L3032.3,1840.1z"/>
<path class="st0" d="M2953.7,1988.8c9.4-7,20.7-8.9,31.8-10.3c6.3-0.8,11.4-3,16.5-6.3c2.8-1.8,5.5-3.8,8.6-5
	c8.4-3.4,12.9-9.8,15.7-18c0.7-2.1,1.7-4.6,3.3-6c6-5.1,8.8-11.5,8.9-20.1c5.8-1.8,12.3-2.4,17.3-5.6c8.6-5.5,16.4-12.3,23.9-19.3
	c1.7-1.6,0.8-6,1.1-9.9c12-0.9,24.2-1.7,36.4-2.6c22.5-1.7,45.1-2.7,67.4-5.7c14.7-2,29.1-6.7,43.5-10.7
	c30.1-8.2,60.1-16.9,90.3-25.1c7.5-2,13-5.5,16.7-12.8c4.4-8.6,10.2-16.4,14.8-24.9c2.9-5.4,7.2-8.4,12.9-10
	c8.9-2.6,17.7-5.8,26.7-7.9c11-2.6,21.1-7,28.8-14.9c11.6-11.8,24.8-13.5,40.5-11.9c24.7,2.6,49.7,3,74.6,4.5
	c32.5,1.9,65,3.9,97.4,6c17.2,1.1,34.4,2.5,52.7,3.9c1.2,6.1,2.9,12.4,3.6,18.8c2.1,18.4,3.6,36.8,5.6,55.2
	c0.7,6.7,6.1,10.3,11,13.2c12.9,7.6,21.6,18.2,25.7,32.5c3.3,11.5,6.3,23.1,9.4,34.6c1.1,4.3,3,7.5,6.8,10.4c4,3.1,6.5,8.3,9.9,12.3
	c4.7,5.6,9.6,11,14.6,16.4c2.5,2.7,5.8,5.9,9.4,3.7c2.7-1.6,5.3-5.3,5.9-8.4c3-18,5.6-36.1,7.8-54.2c0.6-5.1-0.8-10.5-1.4-15.8
	c-1.9-19.1-3.8-38.3-5.7-57.4c-0.2-2.3,0-4.6,0-6.3c6.4-3.6,12.5-6.3,17.7-10.1c5-3.7,9-8.7,14-13.6c12.1,5.5,23.8,11,35.6,16.2
	c12.7,5.6,25.6,10.9,38.5,16.3c18.4,7.7,37.1,14.8,55.2,23.1c14.5,6.6,28.2,14.9,42.4,22.1c4,2,8.5,3,12.7,4.6
	c1.7,0.7,3.7,1.6,4.8,3c4.4,5.8,8.9,11.6,12.5,17.9c3.8,6.7,8.5,10.5,16.7,9.8c8.3-0.7,16.7,0.1,25-0.2c7.7-0.3,10.7-4.1,9.7-11.6
	c-1.4-9.9-2.7-19.7-4.3-29.5c-0.8-4.7-0.5-8.3,4.3-10.9c2.9-1.6,5.2-4.1,7.7-6.4c4.3-3.9,7.8-8.2,6.4-15c27.1,0,53.6,0,81,0
	c1.1,3.5,2.8,7.1,3.5,10.9c2.5,14.2,8.7,26.5,18.6,36.7c4,4.2,5.4,8.9,5.9,14.3c0.4,4.6,1.2,9.2,2.1,13.8c1.5,7.7,3.5,9.6,11.3,9.7
	c12,0.2,24,0.4,36,0c17.4-0.6,34.6,1.2,51.5,5c8,1.8,14.3,0,20-5.6c4.2-4.2,8.9-7.9,14.5-12.8c0.1,6.9-2.8,10.1-6.4,13.5
	c-7.9,7.5-13.7,16.1-12.8,27.8c0.6,6.9,2.1,13.1,7.3,18c1.6,1.5,2.7,3.5,4.4,5.8c-6.1,3.4-11.7,5.7-18,6.5
	c-15.6,1.8-27.2,10.1-35,23.5c-7.2,12.2-4.5,21.8,7.5,29.6c19.1,12.3,39.7,21.4,61.4,28c6.9,2.1,13.5,5.2,20.1,8.1
	c1.4,0.6,2.6,2.1,3.7,3.2c4.9,4.8,9.8,9.7,15.2,15.1c-3.8,4.6-8.3,10.2-13,15.6c-4.4,5.1-7.7,10.4-7.8,17.7
	c-0.1,5.8-1.9,11-6.2,16.1c-6.4,7.7-9,16.9-7.7,27.9c1.5,11.9,4.4,22.4,11.9,31.7c4,5,4.4,10.8,2.1,16.9c-1.9,5.2-3.6,10.5-5.4,15.7
	c-19.3-0.4-37.7,1.5-50.2,19.6c-7.4-5.2-15.6-3.3-23.4-3.2c-6.9,0.1-11.7-1.9-15.7-8.1c-4.3-6.8-10.4-12.3-19.3-12.4
	c-10.8-0.2-19.1-7.2-28.6-10.8c-8.2-3.2-16.3-5.3-25.2-4.8c-4.2,0.2-8.6-0.6-12.7-1.7c-11.2-3.1-22.2,0.8-27.8,11.3
	c-10.9,20.6-14.3,42.8-10.9,65.7c1.6,11.2,0.2,21.8-2.7,32.5c-1.1,4.2-3.4,6.9-8.3,7.1c-6.9,0.3-13.9,1.1-20.8,2
	c-4.9,0.6-9.8,1.8-14.7,2.6c-6.5,1.1-13.1,2.1-19.5,3.4c-3.5,0.7-7.4,1.1-10.5,2.8c-8.7,4.8-18,8.1-26.3,13.9
	c-5,3.5-13.2,3.5-19.8,3.2c-9.3-0.4-18.8,3.3-23.5,11.6c-3.8,6.8-5.4,14.2-5.3,22c0.1,9.1-0.2,9.2-8.6,12c-3.5,1.2-7.4,1.9-10.2,4
	c-7.4,5.6-15.2,8.6-24.7,8.2c-4.1-0.2-8.3,2.9-11.9,4.2c-1.8-6.4-2.7-12.2-5.1-17.3c-18.8-41.1-38.1-82.1-56.9-123.2
	c-4-8.7-9-13.1-19-12.3c-9.6,0.8-19.4-0.4-29,0.3c-10.7,0.7-20.3-2.1-29.7-6.8c-12.2-6.1-24.6-11.7-36.8-17.9
	c-9.4-4.8-19.5-6.3-29.8-6.8c-15.6-0.8-31.2-1.6-46.8-2.3c-4.8-0.2-8.8-1.6-12.8-4.5c-16-11.9-32.6-23-48.4-35.1
	c-7.8-5.9-14.6-7.2-23.5-2.5c-14.1,7.4-28.8,13.7-43.2,20.7c-9.6,4.6-9.9,5.9-6.2,16.3c3.8,10.6,7.7,21.2,11.9,32.6
	c-2.5,0.3-4.5,0.7-6.7,0.8c-21.2,1.2-42.5,2.1-63.6,3.5c-4.1,0.3-8.3,2.2-12,4.3c-8.7,4.9-17.1,10.3-25.6,15.5
	c-5.9,3.6-12,5.1-19.1,3.5c-4.1-0.9-8.6-0.8-12.9-0.7c-18.1,0.5-35.6-2.5-53.2-6.9c-14.6-3.7-26.6-11-38.4-19.8
	c-15.3-11.5-28.5-24.7-40.2-39.7c-7-8.9-14-17.7-21.4-26.3c-6.1-7.1-6.5-7-15.3-3.4c-10.2,4.1-20.4,8.2-30.2,13
	c-3.3,1.6-6.3,4.8-8.2,8c-4.7,7.7-8.6,15.7-13.3,24.5c-5.7,0-11.7,0.6-17.5-0.1c-9.9-1.1-16.3,3.2-21.5,11.1
	c-7.2,10.9-7.1,13.9,4,20.4c4.2,2.4,6.5,5,6.6,10c0.2,8.6,1.1,17.2,1.4,25.8c0.7,15.2,1.2,30.5,1.9,46c-11.2,1.2-21.3-5.6-32.8-1
	c-2.3-4.1-5.1-8.1-7.1-12.6c-2.9-6.6-6.3-12.2-13.3-15.4c-5.2-2.4-8.2-6.9-8.4-12.6c-0.1-4.7-2.6-7.2-6.5-9.1
	c-5-2.5-8.5-5.7-6.7-12.5c1.2-4.3-1.9-7.1-7.3-7.1c-5.9,0-11.8,1.3-18.3,2c-5.6-8.2-10.1-16.7-9.7-27.9c0.5-13.5-0.8-27.2-1.8-40.7
	c-1-11.9-2.7-23.7-4.2-35.5c-0.9-7.4-0.2-14.4,3.5-21.2c4.8-9.1,9-18.5,13-28c1.3-3.2,1.9-7.2,1.2-10.6c-1.5-7.4-1-14.4,1.3-21.5
	c1.4-4.4,2.3-9.1,2.7-13.7c0.4-5.3,3.2-9.1,6.3-13.1c3.4-4.4,6.3-9.3,8.5-14.4c2.5-5.7-0.8-9.1-6.9-7.8c-2.5,0.5-5.3,1.5-7.2,3.2
	c-5.1,4.4-11.4,6.2-17.6,6.1c-9.3-0.2-14.1,4.9-17.7,12c-4.4,8.5-8.6,17.2-12.7,25.9c-3,6.4-3.4,6.7-10.3,4.1
	c-1.6-0.6-3.3-0.9-4.7-1.7c-8.3-4.7-16.2-5.7-23.6,1.9c-0.4,0.5-1.1,0.7-1.7,1c-9.9,4.9-15.4,1.9-15.7-9.2
	c-0.2-7.8-1.5-14.9-4.6-22.1c-2.5-5.7-5.9-8.9-11.7-9.1c-10.8-0.4-19.7-5.1-28.6-10.6c-4.9-3.1-10.7-4.6-16.2-6.8
	c3.5-5.7,7.5-12.3,11.5-19c0.3-0.3,0.5-0.5,0.7-0.8c4.8-5.4,9.8-10.6,14.2-16.3c4.6-6,8.6-12.5,12.8-18.8
	C2951.7,1990.7,2952.7,1989.7,2953.7,1988.8z"/>
<path class="st0" d="M4409.8,3918c2.7,13.9,5.1,27.5,7.9,41.1c2,9.7,3.3,10.7,13.3,11.2c27.9,1.4,55.7,2.6,83.6,4
	c13.9,0.7,27.8,1.7,42.8,2.6c1,7,2.1,14.1,2.9,21.3c0.8,6.7,2.5,13,7.4,18.1c2.3,2.4,4.3,5.1,5.9,8c9.9,17,20,33.8,29.1,51.2
	c3.8,7.2,10.9,9.4,16.2,14.3c2.9,2.7,6.2,5,9.5,7.2c1.8,1.2,4,2.2,6.1,2.7c15.9,4.1,31.4,8.9,43,21.4c3.3,3.6,6.3,3.9,10.3,0.8
	c3.3-2.6,7.1-5,11.1-6.2c6.9-2.1,10.8-6.9,14.9-12.4c9.1-12.2,18.8-24,28.4-35.8c1.6-2,3.9-3.4,6.2-5.3c0.8,1.3,1.8,2.2,1.7,2.8
	c-2.7,14.2,5.9,25.5,12.4,35.8c7.4,11.7,19,21,30,29.9c6.8,5.5,15.7,8.4,23.9,12c2.3,1,5.2,0.9,7.8,1c4.9,0.1,9.8,0,15.2,0
	c-0.5,1.9-0.6,2.9-1.1,3.6c-4.1,6.8-10.2,13-11.9,20.4c-1.7,7.2-1.5,15-4.2,22.3c-1.6,4.3,0,7.6,3.8,10.3c5.4,3.8,10.4,8.4,15.9,12
	c6.5,4.3,11.8,9.4,16,16c3.9,6.1,10.5,8.8,17.4,7.2c8.6-1.9,15.8,0.9,22.6,5c14.3,8.5,28.7,16,45.7,17.3c12.2,0.9,24.4,2.8,36.6,4
	c4.7,0.5,9,1.1,12.8,4.5c1.9,1.7,5.5,2.1,8.4,2.1c18.9,0.2,37.8,0.4,56.7-0.1c5.8-0.1,12-4.4,17-3.1c5.7,1.5,11.1,3.5,17.1,3.3
	c5.3-0.2,10.6,0,16.1,0c6.4,12.8,12.7,25.2,18.8,37.8c12.6,26.1,25.1,52.2,37.6,78.3c4.1,8.5,3.6,11.5-2.7,18.6
	c-5.5,6.2-10.8,12.6-16.5,18.6c-5.4,5.7-7.4,12.4-7.4,20c0,4.3,0.4,8.7-0.1,13c-0.4,3.9-1.2,8-2.9,11.4c-6.2,12.8-14,25-19.1,38.3
	c-4.5,11.9-10.8,22.6-16.9,33.6c-5.1,9.3-11,16.8-21.8,21.8c-9.2,4.3-17.4,12.6-19.5,24.9c-2.7,16.3-6.4,32.5-10.8,48.4
	c-2.4,8.7,1.2,16.4,1.6,24.5c0.2,3.8,3.9,5.1,7.6,4.8c4.6-0.5,8.1,1.8,12,3.9c11.9,6.4,24,12.5,36.2,18.4c4.5,2.2,7.1,4.5,7.9,10.2
	c3.3,26.3,7.3,52.6,11,78.9c0.1,0.6-0.3,1.3-0.7,2.7c-7.9-2.3-16.9-0.5-23.3-7.9c-0.6-0.7-1.6-1.3-2.5-1.6
	c-15.2-4.6-27.7-13.9-40.8-22.3c-3.3-2.1-7.2-3.5-11-4.5c-6.1-1.7-11.6-3.8-16.6-8.3c-5.9-5.4-13.8-6.1-21.6-5.1
	c-1.6,0.2-3.2,0.8-4.8,1.2c-24.7,6.9-50.2,8.8-75.4,12c-13.1,1.7-26.4,3.2-38.2,10.1c-2.2,1.3-5,1.5-7.5,2.3
	c-6.7,2.3-14.7,1.5-19.6,8.4c-0.7,1.1-3,1.5-4.5,1.5c-13-0.6-20.9,7.7-28.1,16.4c-6.6,7.9-12.1,16.6-18.8,25.9
	c-9.6-0.8-19.8-1.7-30-2.5c-18.8-1.5-37.7-2.8-56.5-4.5c-6.2-0.5-11.6-2.1-16.4-7.4c-6.2-6.7-14.1-12.4-22.1-17
	c-4.5-2.6-10.8-3.5-16.2-3.1c-8.1,0.5-14.6-1.1-21-6.4c-13.8-11.5-28.4-22-42.1-33.5c-5.3-4.4-8.4-0.4-13.2,0.9
	c-8.3-6.4-12.8-15.9-16.2-25.9c-5.8-17-18.6-27.7-32.8-37.2c-1.3-0.8-3.6-1.7-4.5-1.1c-5,3.3-8.1-0.1-11.4-2.8
	c-12.9-10.5-25.6-21.2-38.6-31.6c-7.1-5.7-10.1-13.9-14.1-21.5c-3.2-6.2-7.2-11-13.1-14.6c-6.2-3.8-12.5-7.7-18.2-12.2
	c-3.8-3-6.6-7.2-9.7-11c-2.1-2.6-4.8-5-5.9-8c-1.2-3-0.8-6.5-1.1-9.8c-0.9-14-8.3-25.8-12.9-38.5c-5.4-15-5.2-30.6-6.3-46.1
	c-0.3-3.7,1.5-6.4,4.8-8c0.9-0.4,1.8-0.9,2.6-1.4c18.5-11.1,14.1-5.4,18.1-26.6c1.7-8.8,2.3-17.8,3-26.7c0.5-6.1-1.6-7.8-7.6-7.3
	c-4.6,0.4-9.4,0.5-13.8,1.8c-7.7,2.2-15.3,0-21.5-2.7c-6.5-2.8-11.7-9.5-16.4-15.4c-6.8-8.6-12.8-17.9-18.9-27
	c-2.8-4.2-6.2-5.8-11-4.3c-3.9-7.1-4.4-7.4-10.1-4.6c-1.2,0.6-2.3,1.3-3.4,2.1c-4.3,2.9-8,2.8-11.2-1.6c-1.1-1.5-2.7-2.6-4.5-4.2
	c3-11.7,6-23.5,12.6-34.2c7.1-11.7,13.2-23.9,20.1-35.6c2.3-3.9,7.1-6.5,8.5-10.5c1.5-4.3,2.7-7.4,6.8-9.9c4.1-2.6,3.4-7.7-0.7-10.7
	c-1.6-1.2-3.4-2-5.2-2.9c-10.3-4.9-10.3-4.9-16.6-17.2c4-3.4,8-7.2,12.4-10.7c7.2-5.6,13.2-12.1,17-20.5c1.5-3.3,3.6-6.4,5.4-9.6
	c6-10.4,3.8-17.2-7.7-21.3c-2.5-0.9-6.4,0.5-9.1,1.9c-10.9,5.8-21.7,11.7-32.2,18.1c-5.9,3.6-11.9,5.9-18.9,4.9
	c-7.3-1.1-12.6,2-17.9,6.6c-8.2,7.3-16.8,14.1-26.4,21.9c-17-12.2-34.1-24.6-51.5-37.1c3.4-5.9,6.4-11,9.4-16.2
	c2.6-4.4,3.4-8.5-0.4-12.8c-7.1-8.1-8.7-17.1-5-27.4c6.1-17.1,4.3-35,3.2-52.5c-0.5-8.5-5.3-17.1-9.5-24.9c-2-3.8-2.8-7.1-2.7-11.1
	c0.1-7-0.3-14,0.1-21c0.3-5.7-1.4-10.4-5-14.6c-2.3-2.7-4.9-5.1-4.7-9.4c0.1-1.8-3-3.8-4.8-5.6c-3.5-3.4-7.2-6.6-11.1-10.1
	c4.5-9.1,8.5-17.2,12.4-25.4c0.5-1.1,1-3,0.5-3.8c-5.6-8.2-2.7-17.5-3.9-27.2C4265.5,3915,4337.6,3916.6,4409.8,3918z"/>
<path class="st0" d="M3045.5,2440.7c15.9-5.2,27.3-16.4,37.1-29.1c10.7-13.9,26.1-20.1,41-27.3c4.2-2,8.6-3.6,12.7-5.8
	c4.5-2.3,8.5-5.2,7.3-11.8c9.8,1.7,18.5,3.4,27.3,4.8c10.5,1.7,15.1-2.2,14.7-12.9c-1.2-27.5-2.6-55.1-3.9-82.6
	c-0.2-4.6-1.8-8.2-6.2-10.6c-2.2-1.2-3.9-3.3-5.7-4.8c1.2-4.5,4.4-4.2,7.4-4.2c5.7,0,11.3-0.2,17,0c7.2,0.3,12-2.5,15-9.1
	c2.9-6.4,6.3-12.5,9.2-18.8c1.8-3.9,4.4-6.5,8.3-8.1c8-3.2,16-6.6,24.7-10.2c6.2,7.3,12.5,14.5,18.6,21.8
	c7.2,8.7,14.1,17.6,21.2,26.4c1.2,1.5,2.6,3,4.2,4.2c8.5,6.4,17.6,12.1,25.5,19.1c11.1,9.9,24.4,14.1,38.2,18.3
	c26.2,7.9,53.1,7.8,80,8.2c3.4,0,7.2-1.3,10.2-3c7.8-4.4,15.6-9,22.9-14.1c7.1-5,14.7-7.1,23.3-7.3c17.9-0.5,35.9-1.3,53.8-2.1
	c5.3-0.2,10.6-0.7,15.8-1.6c6.6-1.1,9.2-5.9,6.8-12.5c-3.8-10.3-7.8-20.5-11.7-30.8c-0.9-2.4-1.5-5-2.5-8.2
	c15.3-7.2,30.3-14.2,45.3-21.2c17.4,12.4,34.7,24.2,51.2,36.9c8.1,6.3,16.8,8.8,26.6,9.3c17.6,0.9,35.2,1.7,52.8,2.8
	c3.5,0.2,7.3,1,10.5,2.5c17.5,8,34.9,16.6,52.4,24.5c4.1,1.8,8.9,2.7,13.4,2.8c14.3,0.3,28.6,0.1,43.3,0.1
	c8.9,19.3,17.7,38.2,26.5,57.2c-0.3,0.4-0.6,0.7-0.9,1.1c-1.8-1.5-3.6-3.1-5.4-4.6c-8-6.2-13.6-5.1-18.2,3.8
	c-4.1,7.9-7.9,16.1-12,24c-0.9,1.8-2.2,3.3-3.6,5.4c-13.1,0.8-26.3,1.6-39.5,2.4c-9.7,0.5-12.5,4.3-11.7,14.2
	c1.5,17.9,2.6,35.7,3.9,53.6c0.3,4,0.9,7.9,1.1,11.9c0.5,10.2,1.9,20.5-3.1,30.3c-1.6,3.1-1.8,7-1.9,10.6
	c-0.3,6.3-0.1,12.6-0.1,20.1c-14.4,1.1-28.1,2.5-41.8,3.2c-13,0.6-26,0.3-39,0.8c-26.6,1-53.1,2.2-79.7,3.3c-4,0.2-7,1.7-8.7,5.5
	c-6.5,14.2-13.1,28.4-19.4,42.7c-0.9,2.2-0.5,5.1-0.2,7.6c0.9,6.2,2,12.4,3.3,19.8c-10.8,2.8-21.3,5.6-31.7,8.3
	c-1.6,0.4-3.3,0.4-4.9,0.9c-6.5,1.9-9.4,5.4-9.8,12.2c-0.3,5-0.2,10-0.1,15c0.1,4.9,0.4,9.9,0.7,15.5c-6.5,0.8-13.3,1.8-20.2,2.5
	c-17.5,1.7-35.1,3.1-52.6,4.8c-6.7,0.6-12.9,2.7-18.4,6.8c-7.5,5.6-15.1,11-23,15.9c-2.8,1.8-7.3,3.4-10,2.4
	c-9.9-3.7-19.2-4.3-29.3,3.6c2.5-17.2-7.9-26.9-16.1-37.5c-3.8-5-6.2-5-10.7-0.7c-7.7,7.4-15.1,15-22.7,22.6
	c-2.8,2.8-4.5,5.8-2.6,9.8c7.3,15,2.2,28.2-5.9,41.1c-0.7,1.1-1.4,2.3-2.7,4.4c-6.1-0.7-12.6-1.2-19.1-2.2
	c-8.2-1.3-15.7-0.9-22.5,4.9c-4.5,3.9-9.9,6.7-14.8,10.2c-3.6,2.5-6.9,2.9-11.1,1.2c-13.3-5.3-26.9-9.7-40.2-15.1
	c-5.7-2.3-9.9-2.2-14.3,2.5c-3.5,3.9-7.9,7.1-12.2,11c-5.4-5.4-8.6-12.2-10.3-18.9c-2.7-10.4-4.5-21.3-3.2-32.4
	c0.8-6.7,2.2-13.8-3.7-19.7c-4.9-5.1-6.2-5.8-11.2-1.1c-8.3,7.7-16.3,15.7-24.5,23.5c-7.4,7.1-14.8,14.2-22.8,21.9
	c-3.3-5.8-3.7-10.5-1.5-15.8c3-7.4,5.7-14.9,8.4-22.4c2.3-6.3,1.8-7.7-3.9-11.5c-2.2-1.5-4.5-3.2-7-3.8c-2.3-0.5-5.2-0.2-7.2,0.9
	c-3.1,1.8-5.7,4.6-8.4,7.1c-11.4,10.7-22.6,12-35.8,4.1c-2.6-1.5-5.2-3-7.8-4.5c-9.7-5.6-9.5-5.3-18.7,1.3c-2.4,1.7-6.1,2.4-9.1,2.1
	c-8.2-0.8-16.5-2.2-24.6-3.8c-6.5-1.3-11.7-0.4-15.2,6.1c-5.2,9.8-14.4,15.6-23.3,21.3c-5.2,3.3-7.1,7.4-6.7,13.3
	c0.3,5.3,0.1,10.6,0.1,16.8c-2.5-0.2-4.4,0-6.1-0.5c-16.8-5.3-33.6-10.7-50.4-16.1c-2.7-0.9-6.4-1.2-5-5.8c0,0-0.2,0.2-0.2,0.2
	c1.8-4.1,4-8,5.3-12.3c1.3-4.4-0.5-7.5-5.1-9.2c-13.8-5.1-20-15.1-19.3-30c0.4-8.5-2.2-17.3-1.1-25.7c1.2-9.7-1-18-4.1-26.8
	c-1.8-5-0.4-11.2-0.6-16.8c-0.2-8.3-1-9.8-9.3-11.6c-12.5-2.6-25-7.3-38-2.4c-3.1,1.2-5.9,0.2-6-2.8c-0.1-2.4,1.5-5.8,3.5-7.2
	c1.8-1.3,5.1-1.1,7.7-0.9c10.4,1.1,19.3-2.6,28.6-6.7c11.1-4.9,23.2-7.7,34.8-11.4c8.4-2.7,16.3-0.9,24.3,2c3.4,1.2,7,2.4,10.5,2.6
	c8.2,0.4,10.6-2.3,13.5-10.1c5.6-14.9,1.2-27.9-6.6-40.5c-1.1-1.8-3.6-2.7-5.5-4c-0.3-0.3-0.6-0.6-0.9-0.9
	c-0.9-5.2-1.7-10.4-2.7-15.5c-0.8-3.8-2.1-7.6-3-11.4c-1.6-7.3-2.3-14.2,5.2-19.5c5.4-3.8,9.7-9,14.7-13.4c5.2-4.7,7.9-3.9,9.7,2.6
	c2.1,7.9,2.2,7.5,10.1,8.9c5.1,1,10.3,2.8,14.9,5.1c5.1,2.6,9.7,3.2,15.3,1.5c6.9-2.1,8.8-0.4,9.8,6.7c0.1,1,0,2,0.1,3
	c1.3,6.7,5.2,8.7,10.4,4.3c6.7-5.7,12.7-12.4,18.9-18.7C3045.8,2440.4,3045.5,2440.7,3045.5,2440.7z"/>
<path class="st0" d="M4189.5,3390.9c-22.8-0.8-45-1.8-67.3-2.4c-19-0.5-38-0.7-56.9-0.7c-7.9,0-10.7,2.9-10.8,11
	c-0.2,10.9-0.1,21.8-1.9,33.2c-4.4-7.6-8.8-15.2-13.1-22.8c-9.5-16.8-18.7-33.8-28.4-50.4c-1.9-3.2-5-6.2-8.3-8
	c-10.5-5.7-21.3-10.8-32-16.2c-1.2-0.6-2.4-1.6-3.6-1.6c-11.4-0.4-17.3-8.7-23.7-16.3c-3.9-4.6-7.4-9.5-11.5-13.8
	c-4.3-4.6-7.2-9.4-6.3-16c0.7-4.9-2-8-5.9-10.6c-5.3-3.5-10.1-7.6-15.4-11.1c-3.5-2.3-4.7-5.2-4.6-9.2c0.1-9.7-0.1-19.3,0.2-29
	c0.1-2.8,1.1-5.9,2.5-8.4c2.9-5.2,5.8-10.6,9.7-15.1c9.5-10.9,10.5-23.9,10.2-37.4c-0.2-10-0.8-20-0.4-30c0.3-9.5-2.7-17.1-8.8-24.4
	c-4.2-5-7-11.3-10.3-17.1c-36-63.8-72-127.5-107.7-191.4c-3.9-6.9-7.9-10.4-16.3-9.9c-20.6,1.4-41.2,1.9-61.8,2.9
	c-2,0.1-3.9,0.6-6.5,0.9c-0.7-7.4-1.8-14.6-2-21.7c-0.5-20.3-0.4-40.6-0.8-60.9c-0.5-21.9-1-43.9-2.2-65.8
	c-0.2-4.7-2.8-9.4-4.9-13.8c-3.3-6.8-7.2-13.3-11.5-21.2c17.6-1.5,33.7-2.8,49.9-4.1c1.7-0.1,3.6,0.5,5-0.2
	c10.4-5.2,21.9-3.3,32.8-5.4c11.1-2.1,22.4-3.1,33.6-4.4c7.6-0.9,14.7-2.2,16.4-12.4c16.5,1.5,32.6,3.1,49.5,4.6
	c1.4,3.7,2.6,7.4,4.2,11c3.6,8.1,7.2,9.1,14.6,3.8c4.2-3,8.2-6.4,13.4-10.5c9.3,15,17.1,29.7,27,42.9c9.7,12.9,21.4,24.2,32.6,36.7
	c-2,0.2-4.1,0.3-6.2,0.7c-6.7,1.1-13.2,2.4-15.9,10c-0.6,1.8-2.1,3.4-3.5,4.8c-7.9,7.7-7,17.6-6.2,27.2c0.2,2.6,2.5,5.3,4.4,7.4
	c6.4,6.7,12.2,14.5,19.9,19.3c8.3,5.1,16.2,11,25.2,15.3c10.4,5,23.2,5.8,31.3,15.9c3.8,4.8,9.5,6.8,15.5,8.4
	c11.9,3.1,23.8,5.9,36.3,5.8c2.9,0,6.1,0.5,8.7,1.7c9.9,4.7,20,9.2,29.3,15c11,6.8,21.9,10.3,34.8,6c10.9-3.6,21.3-1.7,29.7,6.3
	c3.5,3.3,6,7.8,8.4,12.1c10.7,18.4,21,37,31.7,55.4c11.4,19.6,23,38.9,34.5,58.4c1.2,2,1.9,4.2,2.7,6.4c5.2,14.8,11,29.3,19.2,42.6
	c1.7,2.8,3.6,5.6,6,7.7c12.7,10.9,24,22.5,32.7,37.3c9,15.3,18.9,30.6,34.1,41c1.6,1.1,2.5,3.1,3.8,4.5c7.3,7.9,12.3,18.1,23.3,22.4
	c3.4,1.3,6,5.2,8.3,8.4c7,9.6,13.3,19.8,20.7,29.1c7.4,9.3,15.9,17.9,24.5,27.5c-1.9,2.6-4.1,5.8-6.5,8.9c-5.6,7.7-5.3,9.3,3.1,13.3
	c9.9,4.7,19.6,9.9,29.9,13.8c16,6,28.5,16.6,40.6,28.2c9.8,9.4,20.1,18.3,30.4,27.7c-0.2,5.6-3.3,7.7-9.6,7.7
	c-9.6,0-19.2,1.6-28.8,1.6c-10.6,0.1-21.2-0.7-31.8-1.2c-15.9-0.8-31.8-2-47.8-2.4c-5.5-0.1-11.3,0.9-16.4,3
	c-12.6,5.1-25.1,10.7-37.3,16.7c-6.2,3-11.8,3-18.1,0.7c-17.8-6.4-35.8-12.3-53.7-18.6c-4.9-1.7-9.6-2.1-14.5,0
	c-3.7,1.5-7.8,1.8-11.5,3.4c-14.2,6-28.7,6.8-43.8,5C4194.8,3378.7,4193.2,3380.1,4189.5,3390.9z"/>
<path class="st0" d="M4257.1,3523.5c-5.9-4.1-10.1-6.9-14.6-10c-4.7-21.4-4.5-43.9-4.9-66.4c-0.3-17.2-1.6-34.4-2.5-52.2
	c9.8-3,19.5-6.5,29.5-8.7c4.1-0.9,9,0.6,13.3,1.9c18.3,6,36.6,12.2,54.7,18.6c4.5,1.6,8.2,1.3,12.4-0.7c4.7-2.4,9.9-3.9,14.6-6.5
	c17.9-10.1,37.1-13.2,57.5-12.7c29.5,0.8,59,0.2,88.3,0.2c-7.1,14.9-14.1,29.4-21.5,44.9c5.5,9,16.3,10.9,25,15.5
	c8.7,4.7,17.9,8.9,29.4,8.2c-1.5,4-2.7,7.2-3.8,10.3c2.4,4.9,4.1,10.4,7.5,14.4c2.2,2.6,7,3.2,11.8,5.2c2.8,8.4,6,17.8,9.1,27.2
	c2.1,6.5,5,12.1,12.5,14c2.5,0.6,4.6,2.5,7.9,4.3c-3.2,13-6.2,26.2-9.6,39.3c-8.6,34.1-17.4,68.2-26,102.4c-0.8,3.1-0.6,6.5-0.4,9.7
	c0.7,8.6,1.7,17.2,2.5,25.7c0.2,2,0.6,4.6-0.5,5.8c-7.7,9.1-7.2,20.9-10.9,31.3c-2.6,7.4-3.3,15.5-5.2,24.9
	c-8.6-11.1-16.3-21.4-21.1-33.7c-0.5-1.2-1.1-2.5-1.3-3.8c-1.5-11.1-7.7-17.8-18.1-21.4c-3.6-1.3-6.8-4-10.9-6.5c0-16.8,0-34,0-51.3
	c0-3.7,0-7.3,0-11c-0.1-12.4-4.5-16.9-16.7-16.9c-19.7,0-39.3,0-59,0c-40.3,0-80.6,0-120.9,0c-3.6,0-7.3,0-10.7,0
	c0-12.6,0.3-24.4-0.1-36.2c-0.6-16.9-1.6-33.8-2.5-50.8C4270.9,3524.6,4270.3,3524.1,4257.1,3523.5z"/>
<path class="st0" d="M3924,2450.5c5.6,12.4,10.4,22.8,15.1,33.4c20.7,46.5,41.3,93,61.9,139.5c5.2,11.8,7.4,12.9,19.8,9.6
	c1.6-0.4,3.2-0.9,4.9-1.1c6-0.8,7.8,0.5,8.5,6.7c0.8,6.9,0.9,13.9,1.5,20.8c0.5,6.3,1.8,12.5,1.9,18.8c0.1,6.3,3.7,8.6,9,10.2
	c8.6,2.6,17.1,5.4,25.5,8.6c9.3,3.5,11.9,9.2,9.2,18.4c-1.2,4.1-2,8.4-3.4,12.5c-2.2,6.6-4.7,8.8-11.7,8.4
	c-12-0.6-21.1,4.6-29.4,12.4c-5.6,5.3-11.7,9.7-19.5,11.6c-8.3,2-15.3,6.1-20.9,12.8c-4.6,5.5-10.4,7.1-17.6,2.4
	c4.3-5.8,1.9-10.4-3.3-14.6c-4.9-3.9-9.2-8.7-14-12.8c-10.6-9.1-16.8-21.4-24.1-32.9c-6.3-9.8-12.2-19.9-18.3-29.8
	c-5.7-9.2-8.4-9.6-17.3-2.9c-2.9,2.2-5.9,4.3-8.8,6.4c-0.7-0.3-1.8-0.4-1.8-0.7c-2-8.6-8.5-11.1-16.2-11.8
	c-16.5-1.5-33.1-2.9-49.6-4.5c-6.1-0.6-10.8,1.2-12.4,7.3c-1.2,4.5-4.4,5.7-8,6.1c-16,2.1-32.1,4-49.3,6.2
	c1.2-8.5,2.3-16.3,3.5-24.1c1.3-8.9,2.9-17.7,4.2-26.6c0.9-6.5-1.6-9.4-8.4-9.1c-11.9,0.5-23.6,1.8-34.8,7.2
	c-16.7,8.1-34,15-51.1,22.2c-3.6,1.5-7.6,2.2-11.9,3.3c-3.1-4.7-6-9-8.8-13.5c-3.5-5.6-7.9-8-14.9-7.1c-17.8,2.3-35.6,3.9-53.4,5.6
	c-2.6,0.3-5.3,0-8.1,0c0-8.9,0-17.6,0-26.7c12.5-3.2,24.4-6,36.2-9.2c11-3,13.1-5.4,9.8-16.2c-4.6-15.4-3.2-29.2,5.3-42.7
	c3-4.7,4.7-10.2,7.2-15.8c4.4-0.4,8.6-1.1,12.8-1.2c20.3-0.8,40.5-1.4,60.8-2.1c20.9-0.7,41.9-1.1,62.8-2.1
	c6.7-0.3,11.4,1.4,14.6,7.5c1.5,2.7,4.1,5.2,6.8,6.9c12,7.8,24.1,15.4,36.2,23c6.6,4.2,9,4.6,13.9-1c8.5-9.7,16.2-20.1,25.1-31.2
	c-5-4.3-8.4-8.6-12.9-10.8c-10.7-5.2-16.2-13-16.1-24.8c0-1.3-0.2-2.6-0.2-3.4c4.3-2.1,8.9-3.4,12.1-6.2c7.7-6.9,17-8.4,26.6-9.3
	c10.2-1,20.4-2.6,30.6-3.6c5.3-0.5,8.4-3.2,10.4-8C3916.8,2466,3920,2459.4,3924,2450.5z"/>
<path class="st0" d="M4187.3,3776.2c-1.2-46.1-2.4-90.5-3.7-135.8c94.6,0.7,188,1.5,282,2.2c0,43.1,0,85.5,0,128.6
	c-12,0.4-23.6,0.9-35.1,1.1c-43.9,0.5-87.8,0.9-131.8,1.4c-25.3,0.2-50.6,0.3-75.9,0.7C4211.7,3774.6,4200.5,3775.5,4187.3,3776.2z"
	/>
<path class="st0" d="M4202.1,3899.5c0-36.8,0-72.4,0-108.7c7.3-0.4,14.2-1.1,21.1-1.2c43.6-0.5,87.2-1,130.8-1.4
	c25.3-0.2,50.6-0.3,76-0.7c11.2-0.2,22.4-1.1,34.7-1.7c-0.7,39.7-1.4,78.2-2.2,117.5C4375.3,3902.1,4289.3,3900.8,4202.1,3899.5z"/>
<path class="st0" d="M4220.6,3406.4c1.4,36.2,2.8,71.3,4.2,106.6c-0.5,0.1-1.5,0.6-2.4,0.6c-27.6,0.1-55.2,0.1-82.9,0.1
	c-1,0-2.2,0.3-3-0.1c-11.5-6.7-24-3.2-36.1-3.7c-9.9-0.5-19.8-0.1-30.3-0.1c0-36.1,0-71.2,0-106.9
	C4120.1,3404,4169.5,3405.1,4220.6,3406.4z"/>
<path class="st0" d="M4125.2,3620.1c-1.1-27.9-2.2-55.1-3.3-83.5c44.6,0.6,88.6,1.3,133.9,1.9c0.6,3.8,1.6,7.5,1.8,11.3
	c1,21.9,1.8,43.8,2.8,65.7c0.1,2.6,0.7,5.1,1,8c-1.4,0.3-2.7,0.7-4,0.7c-25,0.1-50,0.1-74.9,0c-2.4,0-5.6-0.7-7-2.4
	c-3.6-4.2-7.9-4.4-12.7-4c-8.6,0.8-17.2,1.5-25.8,2.1C4133.8,3620.3,4130.5,3620.1,4125.2,3620.1z"/>
<path class="st0" d="M3867.3,2355.9c25,18.6,36.2,46.2,52,71c-6.1,12.8-12.3,25.7-18.7,39c-11.4,1.4-22.8,3.1-34.3,4
	c-9.6,0.7-18.2,3-25.4,9.7c-2.4,2.2-5.3,3.8-7.4,5.2c-8.1-8.3-15.9-16.3-24.8-25.6c-1.4-21-2.8-44.1-4.4-68c3.4-0.6,6.3-1.3,9.1-1.5
	c8.9-0.6,17.9-1.2,26.8-1.3c5.6,0,9.3-2,12.1-7C3856.8,2373,3861.9,2364.9,3867.3,2355.9z"/>
<path class="st0" d="M4543.6,3873.5c6.2,28.9,12.4,57.9,18.8,88c-41.2-2-81.5-3.9-122-5.8c-2.5-13-4.8-24.9-7.2-37.3
	c11.1,0,21.4,0.1,31.7,0c9.4-0.1,12.5-3.3,12.8-12.6c0.3-13.3,0.5-26.6,0.7-39.9c0.1-3.3,0-6.5,0-11.2
	C4500.5,3861,4521.5,3867.1,4543.6,3873.5z"/>
<path class="st0" d="M4539.8,3857.1c-20.7-6.2-40.6-12.1-61.4-18.4c0.6-16.6,1.2-33.3,1.9-50.6c14.4,2.8,28,5.5,41.7,7.9
	c4.2,0.7,5.2,3.8,6,7c2.7,10.2,5.4,20.4,7.7,30.7C4537.2,3841,4538.2,3848.4,4539.8,3857.1z"/>
<path class="st0" d="M3813.1,2475c2.6,12.6,3.7,24.8,7.8,36c4.1,11.3,9.4,22.9,22.1,29.5c-4.3,5.7-8.2,10.8-12.7,16.7
	c-12.4-7.9-24.2-15.6-37.5-24.1c4-0.8,6.1-1.2,8.6-1.6c-1.8-9.2-4.8-18.2-4.8-27.2c0-9.1,3.2-18.2,5.1-27.8
	C3805.5,2476.1,3809,2475.6,3813.1,2475z"/>
<path class="st0" d="M4488.8,3741.4c-0.1,3.5,9.3,4.8,11.1,7.3c7.2,9.5,5.5,19.6,13.2,31.1"/>
</svg>
