<?xml version="1.0" encoding="utf-8"?>
<!-- Generator: Adobe Illustrator 19.0.0, SVG Export Plug-In . SVG Version: 6.00 Build 0)  -->
<svg version="1.1" id="Layer1" xmlns="http://www.w3.org/2000/svg" xmlns:xlink="http://www.w3.org/1999/xlink" x="0px" y="0px"
	 viewBox="0 0 10000 5000" style="enable-background:new 0 0 10000 5000;overflow: hidden; display: inline; width: inherit; min-width: inherit; max-width: inherit; height: inherit; min-height: inherit; max-height: inherit;" xml:space="preserve">
<style type="text/css">
	.st0{fill:#8FD4EB;stroke:#000000;stroke-width:3;}
</style>
<g>
	
	<path onclick="modal(this.id);" id="1" class="st0" d="M7368.8,2780.5c0,12.6,0.1,21.9,0,31.2c-0.1,7.1,3.9,10.6,10.1,13c18,6.9,35.9,14.2,53.8,21.4
		c9.8,3.9,19.6,7.9,30.2,12.1c10.4,43,20.6,85.5,30.9,128.3c-3.1,1.1-4.9,2.4-6.7,2.3c-18.6-0.3-37.3-1-55.9-1.2
		c-26.6-0.3-53.2,0.1-79.8-2.5c-18.5-1.8-37.3-1.8-55.9-1.5c-19.6,0.3-37.3,6.4-54.1,17.5c-19.9,13.1-34.2,31.3-50.1,48.2
		c-11.8,12.6-23.4,25.4-35.8,37.5c-7.3,7.1-11,13.8-8.2,24.6c9.4,36.7,14.6,74.4,29.5,109.7c4.9,11.6,8,24,10.8,36.3
		c4.4,19.6,11.2,38.3,20.1,56.2c2.7,5.4,4.6,11.1,6.9,16.6c-3.8,24-18.3,42.6-32.6,60.8c-6,7.7-14.9,13.1-23,19
		c-2.4,1.8-6.3,1.5-9.5,2.3c-9.7,2.3-19.3,5-29.1,6.9c-8.8,1.7-14,7.1-17.4,14.9c-2.6,6.1-5.3,12.2-8.6,19.7
		c-5.8,2.2-12.6,4.8-19.9,7.5c-2.9-3.5-5-6.9-7.9-9.4c-8.2-6.9-16.4-14-28.5-10.4c-20.4-2.8-41.3,0.6-61.6-4c-2.5-0.6-5-1.5-7.5-2.3
		c0-1.8-0.5-3.5,0.1-4.3c10.7-14.7,11.4-32.3,14.1-49.2c1.5-9.3,3.3-18.2,8.1-26.5c9-15.7,7.7-33.4,8.6-50.6
		c0.1-2.5-1.3-5.1-2.3-7.5c-1.3-3.1-2.9-6-4.4-9c-6.2-12.5-8.9-25.1-1.2-38c1.3-2.2,1.9-4.9,2.1-5.6c-2.8-14.8-5.6-27.8-7.7-40.9
		c-1.2-7-3.9-12.7-10.4-16.1c-8.2-4.3-16.3-8.8-24.8-12.6c-17.6-8-35.3-15.6-53-23.2c-6.4-2.8-10.7-7.3-13.4-13.9
		c-2.7-6.8-6.5-13.1-10-20.1c-7.7-2.1-15.4-4-22.9-6.3c-7.2-2.3-13.2-6-15.6-14c-8.1-26.8-30.8-37-53.8-46.1
		c-11.7-4.6-24.3-6.9-36.5-10.4c-5.7-1.6-11.3-3.4-17.2-5.2c-7.8-28.6-9.4-57.9-17.5-87c-15.1,7.2-28.8,12.5-38.5,24.1
		c-7.6,9.1-17.1,13.9-28.7,16.5c-11.6,2.6-22.7,7.4-34,11.3c-6.6,2.3-11.4,6.5-14.8,12.7c-2.9,5.2-6.6,10-9.6,15.2
		c-14,24.7-36,40.5-59.9,54.4c-1.1,0.6-2.5,0.5-4.7,0.8c-8.2-9.9-16.3-20.3-21.5-32.7c-1.5-3.7-3.4-7.3-4.5-11.1
		c-6.2-21.5-21.6-36.1-37.4-50.6c-7.3-6.7-14.6-13.5-21.1-21c-16.7-19.1-43.2-23.4-64.8-9.6c-18.5,11.9-36.6,24.4-55,36.5
		c-37.2,24.6-74.7,48.9-111.6,74c-7.8,5.3-15,7.2-24.1,5.1c-12.3-2.8-24.9-4.2-37.2-6.9c-8.3-1.9-15.6-0.7-23,3.3
		c-22.9,12.2-46,24.1-69,36.2c-27.7,14.6-55.3,29.4-82.9,44c-2.3,1.2-4.9,1.8-8.6,3.1c-12.2-10.9-23.5-23.1-35.3-34.7
		c-11.9-11.7-23.6-23.6-35.4-35.3c-11.7-11.7-23.5-23.4-33.9-33.9c-24.1,1-45.9,2-67.8,2.9c-5.3,0.2-11-0.8-15.9,0.8
		c-12.4,3.9-23.6,0.5-35-3.7c-12.5-4.6-24.3-10.9-37.9-12.1c-9.2-0.8-18.5-1.8-29.5-2.9c-15.2-17.3-30.8-36.3-47.7-54
		c-29.4-30.8-59-61.5-99.5-78.5c-12.3-5.1-24.2-11.1-36.1-17.1c-7-3.5-14.9-5.8-21.4-13c2.9-9.8,6.1-19.9,8.9-30
		c2.2-7.6,4.5-15.1,2.5-23.5c-3.9-16.5,5.5-27.8,16.4-38.3c18.5-7,22.8-21.8,23.3-39.7c0.4-13.4,4.4-26.1,12.9-37.1
		c3.2-4.1,5-9.3,7-14.2c7.2-17.3,16.4-32.9,30.8-45.8c18.1-16.2,26.8-37.6,26.7-62.2c0-3.2-1.4-6.5-2.8-9.4
		c-5.5-12.2-11.9-23.7-22.3-32.7c-5.4-4.7-11.4-9.5-12.1-18.7c3.1-5.7,6.7-12.1,10-18c-3.6-21.7-18.5-35.9-32.2-50
		c-14.8-15.2-31.1-29-49.8-39.7c-12.8-7.2-25.9-13.4-39.9-18c-20.2-6.7-39.8-15-57.7-27c-22.1-14.8-47.2-21.2-73.2-24.2
		c-10.5-1.2-21.1-2.1-31.8-2.6c-17.3-0.8-34.6-1.9-51.9-1.6c-22,0.3-43.8-2.8-65.6-4.4c-16.6-1.2-33.1-2.6-49.6-4.2
		c-16.5-1.6-33-3.8-49.5-5.6c-9.9-1.1-19.8-2.6-29.8-2.7c-26-0.3-51.7-2.3-77.5-6c-19.7-2.9-39.6-2.5-59.4,0.4
		c-7.2,1.1-14.5,2.1-21.8,2.9c-12,1.5-23.4,4.5-34.1,10.5c-18.4,10.3-38.9,13.9-59.3,16.5c-13.2,1.7-26.5-1.5-36.2-12.7
		c-3.1-3.5-6.8-6.4-9.7-10c-23.8-29.6-47.6-59-70.9-89c-7.7-10-13.8-21.2-20.2-32.1c-1.9-3.3-3.4-7.5-3.2-11.2
		c0.7-15.5-2.1-30.6-5.2-45.5c-1.8-8.9,1.3-15.7,5.6-22.4c3.3-5.2,14.2-7.2,22.1-4.4c3.7,1.3,7,3.7,10.5,5.6
		c17.4,9.8,34.7,19.7,52.1,29.6c2.3,1.3,4.5,3.6,6.9,3.9c21.1,2.3,42.5,4.3,62.1-6.5c14-7.7,27.5-16.4,40.9-24.9
		c13.2-8.4,27.2-13.6,42.7-15.6c9.1-1.2,18.1-3.3,27-4.9c2.2-6.2,3.9-11.1,5.8-16.6c1.3-0.8,2.8-2.3,4.6-2.8
		c14.8-3.8,21.3-15.1,25.1-28.4c1.7-5.7,3-11.8,3-17.6c-0.1-7.9,2.4-14.2,7.2-20.1c10.1-12.3,11.3-26.7,7.8-41.2
		c-3-12.2-7.4-24.2-12-35.9c-4.3-10.8-5.4-21.1-3.7-33c2.8-18.7,8.2-36.3,15.1-53.6c6.2-15.6,6.5-30.9,1.4-47
		c-9.8-4.5-19.8-2.4-29.6-2.1c-10.6,0.4-21.2,1.7-31.8,1.8c-22.7,0.3-45.3-0.2-68,0.1c-38,0.4-76.1-0.6-113.9,2.2
		c-34.7,2.6-69.2,1.1-103.8,2.1c-3.1,0.1-6.3-0.3-10.5-0.5c2-10,3.8-19,5.8-28.8c-10.7-3-20.8-5.3-32.8-4.6
		c-4.8,7.4-10.2,14.9-14.9,22.8c-4,6.7-8.9,10.4-17.2,11.7c-29.6,4.6-59,10-88.4,15.4c-6.9,1.2-13,0.8-18.6-4.2
		c-7.9-7-16.2-13.6-24.5-20.6c6.5-16.6,23.1-25.5,27.3-42.7c-3.2-4.8-6.4-9.7-9.9-15.1c-6.9-1-14-2.1-22.4-3.3
		c-12,28.4-20.6,57.7-30.8,85.7c-23.4,5.4-18.4,9.6-69.7-11.5c-7.2,10.5-14.6,21.2-22.4,32.6c-13.1-2.4-25.4-4.5-37.8-6.9
		c-8.7-1.7-16.6-1-25.1,2.7c-73.8,32.2-148,63.7-221.8,95.9c-10.9,4.7-20.8,11.9-31,18.1c-38.1,23.2-76.1,46.5-114.1,69.9
		c-6.7,4.1-12.8,9.2-20.8,15.1c-23-11.9-43.9-30.8-69.4-45c-16.3,4.7-33.4,9.7-50.6,14.8c-2.6,0.8-5,1.7-7.5,2.7
		c-9.5,3.6-16.6,0.5-22.6-7.1c-4.1-5.2-8.8-10-13-15.1c-7.9-9.5-17.9-15.5-29.5-19.7c-8.2-3-15.9-6.2-25-2.7
		c-4,1.5-9.1,0.4-13.6-0.1c-44.8-5.7-89.6-11.5-134.4-17.2c-22.4-2.9-44.8-5.4-67.2-8.7c-18.7-2.8-33-16.6-36.4-34.7
		c-1.4-7.2-2.2-14.5-2.4-21.8c-0.3-12.4,3.5-23.4,11.8-33c10.6-12.3,10.9-16.4,3.4-30.1c-1.6-2.9-3.5-6-6.1-7.8
		c-12.9-9.1-20.5-22.5-29.1-35.1c-5.3-7.7-10.3-15.7-16.5-22.5c-8.8-9.6-11.5-20.8-10.5-33.1c0.8-9.2,1.6-18.7,4.4-27.5
		c3.6-11.5,2.8-22.2-0.6-33.3c-3.2-10.2-4.1-20.8-4-31.5c0.1-8.8,0.8-17.5,4.4-25.4c10.6-22.8,12.9-47.3,15-71.8
		c0.4-4.6,0.7-9.4,2.1-13.7c5-15.3,8.9-30.6,5.1-45.8c6-10.1,14.1-15.7,23.5-19.7c7-3,12.2-7.6,16.1-14.2
		c7.5-12.8,17.8-22.9,29.5-32c12-9.4,22.8-20.4,34.1-30.7c1.9-1.8,4.2-3.7,5.1-6.1c4.9-13,9.6-26.2,13.9-39.4c0.8-2.3-0.3-5.2-0.7-9
		c-3.7-0.9-7.4-2.2-11.1-2.7c-5.3-0.7-10.6-1.2-15.9-1.3c-59.3-0.8-118.5-1.3-177.8-2.2c-47.3-0.7-94.6-1.5-141.8-2.4
		c-30.6-0.5-61.3-0.8-91.9-1.8c-47.3-1.6-94.5-2.9-141.8-2.6c-28.6,0.2-57.3-0.8-85.9-1.5c-33.3-0.8-66.5-1.6-99.8-2.7
		c-5.2-0.2-10.5-1.7-15.5-3.1c-7.7-2.2-15-5.7-22.8-7.3c-19-3.9-34.2-14.1-47.7-27.9c-3.7-7.8,5.5-16.7-1.2-24.6
		c2.6-4.5,5.1-9,7.7-13.5c-0.3-1.3-0.1-3-0.9-3.8c-11.7-10.9-22.5-22.4-31.2-36c-2.1-3.3-5.4-6-8.7-8.1
		c-22.3-13.9-38.4-34.8-58.6-51.1c-10.6-8.6-17.3-20.2-24.2-31.5c-4.7-7.6-10.1-14.1-19.1-16.4c-7-1.8-11.5-6.4-15-12.3
		c-4.4-7.4-9.1-14.7-13.4-22.3c-1.3-2.2-2.3-4.9-2.4-7.4c-0.9-24.9-11.1-47.8-14.8-72.2c-0.9-6.1-5.5-11.6-9-18.6
		c7.3-3.1,13.8-6.2,20.5-8.8c44.2-16.7,88.5-33.2,132.8-49.8c9.3-3.5,18.2-5.5,28.9-4c14.2,2,29.2,2.7,43.6-1.7
		c12.3-3.8,14.9-8.4,13.6-22.1c-2.2-22-2.5-43.8,8.3-64.3c3.4-6.4,6.1-13.4,8.2-20.4c3.4-11.9,9.3-21.1,19.2-29.2
		c7.4-6,12.1-15.7,17.2-24.3c5.5-9.2,11.3-17.6,19.6-24.8c9.9-8.7,18.5-19.1,27.2-29.1c2.9-3.4,5.2-7.8,6.5-12.1
		c3.8-12.3,8.7-23.7,18.7-32.4c1.8-1.6,2.5-4.6,3.6-7c-2.8-12-11.7-19.3-19.7-27.1c-13.4-13-27.1-25.6-40.5-38.6
		c-11.3-10.9-18.8-23.8-21.8-39.5c-1.9-9.8-5.4-19.2-8.2-28.8c-1.9-6.4-4.1-12.6-5.5-19.1c-7.6-34-24.1-63.1-48.5-87.9
		c-10.2-10.5-19.9-21.5-30-32c-3.9-4.1-6.3-8.4-6.1-14.2c0.7-19.9,1.3-39.9,1.9-59.8c0.2-7.3,0.2-14.7,0.4-22
		c0.2-6.6,0.5-13.1,0.7-20.4c11.8-1.1,22.4,0.7,32.3,3.5c33.3,9.4,67.3,7.7,101.2,7.7c2,0,4.2,0.4,6-0.2
		c19.4-6.7,39.9-10.6,57.4-22.3c70.9-47.3,141.7-94.9,213-141.6c15.4-10,28.3-22,40-35.7c16.1-18.9,15.8-19,11.8-42.9
		c-5.9-35.4-11.5-70.9-17.2-106.3c-0.5-3.2-0.6-6.5-1-10.7c4.7-1.8,8.7-3.8,13-4.9c57.4-14.5,115-28.7,172.3-43.4
		c14.8-3.8,29.4-8.5,43.6-14.1c39.1-15.3,77.9-31.1,116.7-47c40.3-16.5,82.5-26.3,125.1-33.5c20.2-3.4,40.7-3.9,61.4,1.4
		c18.6,4.7,38,6,57.2,8.1c4.4,0.5,9.2-1.1,13.5-2.8c22.6-8.7,46.6-10.7,70-15.6c4.5-0.9,9.3-0.5,14-0.5c11.3-0.1,22.7,0.1,34-0.1
		c16.7-0.2,33-2.3,48.5-9.5c10.8-5,22.2-8.6,34.4-13.3c2.6,5.1,5.2,9.6,7.1,14.3c13.4,33.4,26.6,66.8,40,100.1
		c10.3,25.6,7.2,22.4,33.4,32.9c19.2,7.6,38.7,14.5,57.9,21.9c5.6,2.1,11,4.7,16.4,7.2c8,3.8,14.6,9,17.9,17.8
		c4.3,11.2,12.4,13.9,24,12c32.1-5.2,64.4-9.3,96.7-14.1c49.3-7.3,98.6-15.2,148-21.9c31.9-4.3,27.8-7.8,33-30.9
		c4.1-18.1,6.7-36.6,13.1-54.2c2.2-6,1.6-13.1,1.8-19.7c0.1-3.3-0.7-6.6-1.5-9.8c-8.1-29.5,3.4-53.3,22.1-74.9
		c4.3-5,8.7-9.8,13.5-15.2c4.3,1.7,8,2.9,11.4,4.7c40.8,21.2,83.7,37.7,125.7,56.2c3.6,1.6,7.7,3.3,11.4,2.9
		c15.1-1.4,30.6-2.2,45.2-5.8c12.4-3.1,24.5-5.7,37.3-5c20.1,1,39.7-0.9,59.2-6.6c12.4-3.6,24-7.9,33.7-16.4c8-7,16.1-10.1,27.3-7.2
		c10.2,2.6,21.1,1.8,31.8,2.6c20.5,1.5,41.1,2.8,61.6,4.6c5.9,0.5,11.7,2.2,19,3.6c13.7,17.4,28.6,35.4,40.7,55.2
		c5.7,9.3,12.3,17.2,20.8,23.9c14.6,11.5,29.1,23.1,43.5,34.8c7.2,5.9,14.1,12.1,20.2,17.3c0,11.9-0.3,22.5,0.1,33.1
		c0.5,15.5,9.5,25.5,24.6,25.4c39.3-0.1,78.5,4.5,117.8,0.4c5.3-0.5,10.6-0.1,16.5-0.1c2.6,4.1,5.3,7.8,7.5,11.7
		c14.1,24.4,23.8,50.4,30.8,77.7c5.3,20.6,11.9,40.9,17.8,61.4c1.8,6.4,3.2,12.8,5,20.2c-20.4,19.3-47.2,29.6-68.2,48.1
		c0,5.6-0.5,10.9,0.1,16.1c2.7,25.1,5.9,50.1,8.5,75.3c1.1,11,5.1,20.1,12.2,28.7c28.2,34.6,55.8,69.6,83.6,104.4
		c18.3,22.9,36.6,45.7,54.7,68.8c7.1,9.1,15.1,16.5,26.3,20.4c8.7,3.1,16.8,8,25.2,12c8.7,4.2,17.3,5.1,27,2.6
		c18-4.5,36.3-8.6,54.7-11c15.1-1.9,30.6-1.4,45.9-1.3c4.5,0,9.1,1.9,13.4,3.5c38.4,15,76.9,29.9,115.2,45.4
		c24.1,9.8,48,19.7,73.6,25.1c4.5,0.9,8.7,2.9,12.7,4.3c4.3,8.4,8.2,16.1,12.1,23.7c10.3,19.8,26,35.3,41.2,51.1
		c6.8,7,10.1,14.1,11.4,24.2c2.8,21.3,1.5,42.6,1.7,63.8c0.1,10.2,1.7,19.6,5.6,29.1c14.7,35.9,33.3,69.6,54.8,101.8
		c6.4,9.5,13,18.4,21.9,25.6c21.7,17.5,43.3,35.3,65.3,52.5c7.5,5.9,14.2,12,18.7,21.9c-4.7,22.3-15.3,42.6-32.1,59.5
		c-5.6,5.6-11.7,10.9-17.7,16.1s-8.5,11.4-7.7,19.4c1.6,16.5,2.9,33.1,3.8,49.7c1.5,28.7,3.7,31.2,32.4,33
		c28.5,1.7,57.1,2.6,85.7,4.4c28.5,1.8,56.9,4.4,85.4,6.5c10.6,0.8,21.3,1,31.9,1.6c28.5,1.5,57.1,2.7,85.6,4.5
		c29.1,1.9,58.2,4.6,87.4,6.4c18.6,1.2,37.3,1.2,55.9,2.1c7.8,0.4,14-2.5,20.2-7c25.2-18.5,50.7-36.8,76.1-55
		c7-5,14.1-9.8,21.7-15.1c9.5,5.9,18.6,11.3,27.5,17.1c59.9,38.6,119.8,77.2,179.5,116.2c8.9,5.8,17.8,8.2,28.2,7.3
		c9.9-0.9,19.9-0.9,29.9-1.3c37.2-1.4,74.4-2.8,111.6-4.1c29.9-1,59.8-1.6,89.7-3c12.4-0.6,23.7,2.2,34.6,7.6
		c15.5,7.7,30.9,15.7,46.6,23.1c5.4,2.5,8.3,6,10,11.5c5.2,17.2,10.8,34.3,16.1,51.5c4.3,14,7.8,28.1,18.1,39.6
		c3.2,3.6,4.1,9.6,5.4,14.7c1.4,5.1,2.2,10.4,3,15.6c1.8,11.2,7.5,19.3,17.6,25.1c8,4.6,15.1,10.8,22,15.9
		c1.6,19.9,0.1,38.1-4.5,56.6c-12.5,50.3-23.7,101-34.8,151.7c-2.3,10.3-3,21.1-3,31.7c0.1,28-0.7,56.1,2.1,83.8
		c3.1,30.9-3.4,60.8-5.3,91.2c-0.3,4.5-2.5,8.9-4.3,13.2c-20.7,48.5-35.3,99.1-50,149.5c-2.8,9.5-4.4,19.5-5.4,29.4
		c-1.8,19.7-10,37.1-18.8,54.3c-3,5.9-6.9,11.5-11.4,16.3c-8.4,8.7-8,17-2.3,27c11.9,20.8,22.7,42.2,34.3,63.2
		c31.5,57.1,63.2,114.2,94.8,171.2c26.8,48.3,53.6,96.6,80.4,145c34.2,61.7,68.4,123.4,102.7,185.1c7.7,14,15.2,28.1,23.3,41.9
		c3.3,5.6,7.8,10.8,12.4,15.4c24.8,25.1,49.9,50,74.9,75C7365.5,2776.8,7367.7,2779.3,7368.8,2780.5z"/>
	<path onclick="modal(this.id);" id="161" class="st0" d="M5668.2,3042.6c20.7-0.2,39.3,2,56.4,10.2c19.5,9.4,39.9,9.5,60.6,8.2
		c17.2-1.1,34.4-2.5,51.6-4c10.7-0.9,18.8,2.3,26.6,10.3c25.9,26.9,52.6,53,79,79.4c3.3,3.3,6.6,6.6,9.9,9.9
		c4.9,4.9,10.2,5.4,16.3,2.1c23.5-12.5,47.2-24.7,70.7-37.2c27.6-14.6,55.3-29.3,82.8-44.3c6.8-3.7,13.3-4.5,21-2.9
		c13.6,2.9,27.7,4.1,41.2,7.3c8,1.8,14.2,0.3,20.6-4c20-13.3,40.2-26.2,60.2-39.5c33.9-22.5,67.7-45.1,101.5-67.6
		c5-3.3,10-6.8,15.4-9.3c16.5-7.7,32.5-4.8,45.9,8c15.9,15.1,32,30.1,47.3,45.9c4.4,4.5,6.8,11.3,9.2,17.4
		c7.5,19.4,16.5,37.8,29.6,54.1c1.6,2,3.6,3.8,6,6.3c3.7-1.4,7.8-2,10.9-4.1c10.5-7,20.6-14.7,31-21.9c15.3-10.5,24.8-26.1,34-41.3
		c8.6-14.3,20.2-22.3,35.7-26.2c4.5-1.2,9-2.7,13.6-3.5c13.7-2.2,25-7.9,34-18.8c6.8-8.3,15.5-14.3,27.1-17.3
		c7.3,26.5,9.9,52.9,15.6,78.8c5.3,5.8,12.9,6.5,19.9,8.5c7.7,2.2,15.4,4.6,23.2,5.8c17.7,2.8,32,12.7,46.9,21.3
		c8,4.6,13,11.9,15.5,20.1c4.9,16.2,16.4,23.6,31.9,25.9c7.6,1.1,12.5,4.9,14.6,11.7c5.7,18.6,20.2,27.2,36.9,33.6
		c13.7,5.3,27.2,10.9,40.7,16.5c3.7,1.5,7.2,3.4,10.8,5.1c11.2,5,18,12.6,18.1,25.9c0,6.5,2.5,13,4.6,19.3
		c2.2,6.7,2.5,13.3-1.3,19.3c-7.5,11.8-4.9,23.5,1.5,34c8.9,14.9,8.6,30.4,5.9,46.4c-0.9,5.2-1.6,10.9-4.3,15.2
		c-8.4,13.6-10.3,28.9-12.1,43.9c-1.6,13.7-5.8,25.8-13.3,37.1c-1.8,2.7-2.9,5.8-4.5,9.1c13.4,9.4,28.3,9.2,42.7,10
		c14.6,0.8,29.2,0.5,43.8,0.8c8.7,0.2,14.6,5.5,20.9,12.3c-3.6,12.5-7.3,25.1-11.1,38.2c-22.2,9.1-38.6,25.4-56,41.1
		c-31.6,28.7-65.7,54.2-106.2,69.6c-18.8,7.2-38.3,10.7-58.2,13.2c-17.4,2.2-31.7,11-41.7,24.6c-11.8,16-26.7,27.8-43.7,37.2
		c-38.5,21.2-77.3,41.9-115.6,63.4c-10.3,5.8-19.7,13.6-28.8,21.2c-7.6,6.4-14.4,13.8-21.3,21.1c-11.4,12.2-23.9,23.2-37.9,32.3
		c-11.3,7.4-20.4,17-29,27.2c-13.3,15.8-26,32.1-40.1,47.1c-13.2,14-28,26.5-42.2,39.6c-10.3,9.4-21,18.5-31.2,28
		c-20.3,18.9-34.7,42.1-46.8,66.7c-5,10.2-9.6,20.4-18.2,28.2c-6.8,6.2-8.4,13.7-6.8,23.4c4.2,25.6,6.8,51.4,10.1,77.1
		c0.8,6.5,1.9,13.1-1.3,20.1c-22.2,0.1-43.7-2.8-65-7.5c-18.8-4.2-37.4-9.4-56.1-14.2c-11.6-2.9-22.9-5.8-35.3-3
		c-7.8,1.8-15.6,0.5-21.8-6.6c-4.7-5.4-11.2-9.2-16.6-13.5c-13.7,7.6-30.6,24.3-36.7,35.8c-3.1,5.9-6.1,11.9-9.9,17.3
		c-11.2,15.8-15,33.5-16,52.4c-0.9,17.3-5,34-11.6,50.3c-6.1,15.1-15.3,28.1-25.1,40.6c-10.3,13-22.1,24.8-36.3,33.9
		c-15.4,9.9-26.7,23.1-35.7,39.4c-12.8,23.1-31.9,41-54.6,54.3c-16.5,9.7-34.7,13.4-53.4,5.3c-9.2-3.9-18.3-7.9-27.5-11.7
		c-11-4.7-21.9-9.7-33.1-13.8c-14.8-5.4-25.2-2.4-35.3,9.3c-2.6,3-4.9,6.1-8.1,10.1c-12.4-5.7-24.5-11-36.3-16.8
		c-2.1-1-3.5-3.8-4.9-6c-1-1.7-1.3-3.8-2-5.6c-11.3-26.6-11.2-26.7-37.1-41.7c-15-8.7-30.7-16-45.5-25.1c-14-8.6-29.5-6.9-44.5-8.9
		c-2.3-0.3-5.2,1.1-7.4,2.4c-5.7,3.5-11.7,6.7-16.5,11.2c-20.6,18.8-45.9,29.5-70.5,41c-8.6,4-13.9,9.3-17.8,17.4
		c-5.4,11.3-11.6,22.4-17.4,33.5c-5.2,0-9.2,0.7-12.9-0.1c-19.4-4.4-38.8-9.3-58.2-13.8c-5.8-1.3-11.7-2.9-17.6-2.9
		c-22,0.2-43.7,2.7-65.6,9.7c-6.4,9.7-11.1,20.6-14.1,32.3c-1.7,6.4-3.1,13-4.8,19.4c-1.1,4-3,7.3-7.9,7.7c-4.5,0.4-7.7-1.5-10-5.2
		c-2.5-3.9-5.7-7.6-7.3-11.9c-4.5-12.5-9-24.9-9.4-38.6c-0.3-9.9-1.8-19.9-4-29.5c-2.3-10.3-5.9-19.6-16.4-26.1
		c-6.8-4.2-11.9-12.6-15.5-20.3c-8-16.8-20.9-29.1-34.5-40.9c-7.5-6.5-16.4-10.4-26.7-12.6c-44.8-9.3-86.3-26.9-124.2-52.8
		c-12.1-8.3-24.6-15.7-39-19.8c-14.3-4.1-27.3-0.3-40.1,5.3c-1.8,0.8-3.3,2.2-4.9,3.5c-33.2,27.9-70.6,50.1-105.1,76.1
		c-10,7.5-21.5,13-32.7,19.6c-5.5-2.7-10.5-4.6-14.8-7.4c-12.5-8.2-24.4-2.6-36.3,1.4c-2.2,0.8-3.9,3.5-5.5,5.6
		c-4.8,6.4-9.6,12.8-14.2,19.3c-12.6,18-29.3,26.1-51.4,22.2c-10.5-1.9-21.1-3.1-31.6-4.6c-0.7-0.1-1.3-0.2-2-0.4
		c-10.5-2.4-47.6-28.4-52.8-38c-2.5-4.5-4.4-10-4.3-15c0.1-18.6-1.5-37.2,1.7-55.8c1.5-9,0.3-18.5,0.3-27.6
		c-10.9-8.7-22.1-4.7-33.8-5.2c-3,9.3-6.1,17.3-7.9,25.7c-0.8,3.6,0.7,7.8,1.7,11.6c2.8,11.6,6.1,23.2,8.8,34.8
		c1,4.4,0.6,9,0.9,14.5c-4.5,1.1-8.2,2.5-11.9,2.7c-14.6,0.8-29.3,0.9-43.9,1.8c-9.9,0.6-19.7,1.8-30.2,2.8
		c-6.6-13.7-17.8-21.6-30.2-28.4c-7.5-4.2-14.2-9.8-21.4-14.7c-12.1-8.2-23.9-17-36.6-24.1c-8.5-4.8-15.2-10.3-19.8-18.9
		c-2.5-4.6-6-8.7-9-12.9c-3.2-0.4-5.9-1.3-8.4-0.9c-53.2,7.9-106.5,15.9-160.7,24.1c-2.7,5.5-5.7,10.6-7.6,16.2
		c-3.9,11.7-9.8,21.7-20.5,28.5c-5.5,3.5-7.9,8.2-5.9,15.3c0.9,3.2-0.6,8.2-2.9,10.9c-6.3,7.7-12.9,15.2-23.2,18.1
		c-8.3,2.4-16.3,5.8-24.4,9c-6.4,2.5-11,6.8-14.5,13c-13.9,25-28,49.9-42.5,74.6c-7.8,13.3-13.8,27-16,42.5
		c-2.9,20.1-11.8,37.9-24.2,54.1c-10.1,13.2-19.5,26.9-29.3,40.3c-17.1,23.3-36,44-63.2,56.5c-27.2,12.5-53.5,26.9-80.1,40.9
		c-7.4,3.9-14.6,5.3-23,4.3c-29.6-3.8-59.3-7-89-10.4c-2-0.2-4-0.8-5.9-0.7c-23,0.9-42.9-8.2-62-19.2c-22.6-13-46.5-23-70.6-32.8
		c-9.8-4-20.5-5.8-30.6-9.2c-13.2-4.4-26.3-9.4-39.4-14.1c-8.6-3.1-12.5-9.6-12.8-18.4c-0.3-8-0.3-16-0.1-24
		c0.2-11.4-3.5-20.6-13-27.6c-19.1-14-33.2-32.7-46.1-52.1c-10-15-21.5-28.7-34-41.7c-12.4-13-24.6-26.6-34-41.7
		c-9.7-15.7-16.5-33.3-23.3-50.6c-5.4-13.6-1.6-25.8,9.3-36.2c14.3-13.6,21.7-31.7,30.5-48.9c1.6-3.2,1.5-7.7,1.1-11.5
		c-1.6-13.4-1.2-26.5,3.7-39.3c3-7.7,1.8-15.6-0.6-23.5c-5.7-18.6-15.5-35.3-24.2-52.6c-1.5-3-3.3-5.8-5.2-9.1
		c3.2-12.1,5.4-24.5,0.3-36.9c-1.2-2.9-0.7-6.6-0.5-9.9c1.6-34.1-3.4-67.7-6.4-101.5c-3.1-35.1-6.8-70.1-10.2-105.1
		c-1.2-12.6-2.4-25.1-3.9-37.6c-1.5-13,1.2-24.3,8.8-35.6c32.6-47.9,63.9-96.7,96.5-144.6c7-10.3,9.8-19.9,6.5-31.6
		c-1.4-5.1-2.1-10.5-3.9-15.5c-4.7-13.4-11.5-25.2-23.9-33.5c-14.9-10-29.4-20.7-45.7-28.6c-7.1-3.5-14.2-7.5-20.4-12.5
		c-22.5-18.1-46.7-33.2-74-42.7c-11.3-3.9-17.1-11.9-21.7-21.6c3.7-13.6,7.4-27,11.2-40.3c0.7-2.5,1.6-5.4,3.4-7
		c6.9-6.2,9.7-14.2,10.9-22.9c0.8-5.7,3.6-10.2,8.2-13.2c14.1-9.2,19-21.6,13.7-38.1c9.2-10.1,18.9-18.5,32-23.1
		c8-2.8,15.5-7.6,22.5-12.6c9.6-6.7,16-15.6,16.1-28.3c0-6.5,2.1-12.9,3.4-20c5.3-0.5,9.8-1.2,14.3-1.3c26.6-0.7,53.3,1.7,79.8-2.3
		c2.4-0.4,5.1,0.7,7.8,1.2c0.9,2.2,2.1,3.9,2.2,5.7c1.1,35.1,9.7,68.4,24.3,100.1c5.5,12,11.9,24.5,20.9,33.8
		c13.4,13.7,29,25.7,48,31.3c9,2.6,17.3,5.7,22.9,14.4c5.7-2.6,10.4-4.8,14.4-6.6c0.5-2.4,1.2-3.8,0.9-5c-1-3.8-2.4-7.6-3.6-11.4
		c-1.9-5.5,0.6-8.9,5.8-11.4c6.7,3.6,13.3,9.2,20.5,10.3c6.4,0.9,13.6-3.2,21.5-5.4c2.6,2.1,5.7,6,9.7,7.8
		c11.1,5,14.8,14.2,17.1,25.1c2,9.3,2.2,18.4,0.8,27.7c-0.6,3.7-0.1,7.6-0.1,12c8.2,1.4,15.2,3.1,22.4,3.6c3.8,0.3,7.7-1.3,11.5-2.4
		c11.5-3.4,22.7-7.6,34.4-10.4c18.1-4.3,33.1-12.9,45-27.3c8.9-10.7,19-20.5,24.8-33.5c1.1-2.4,2.6-4.9,4.6-6.5
		c15.7-13.1,24.3-31.5,35.8-47.7c6.5-9.1,11.5-19.4,16.5-29.5c8-16.2,16.8-31.7,30.5-44.1c27.5-24.9,48.6-54.6,64.2-88.2
		c3.8-8.2,8.8-14.7,17.6-17.8c4.4-1.6,8.4-3.9,13.1-6.1c15.7,4.9,30.9,11.3,45.5,19.4c10.4,5.8,21.2,13.2,32.5,14.8
		c11.3,1.6,23.4-3.1,35.1-5.4c24.6-4.9,46-16.7,65.9-31.5c2-8.7,3.9-17,5.9-25.5c5.7-2.1,10.6-3.9,15.5-5.8
		c12.8-5,25.2-6.3,38.3,0.5c8.1,4.3,17.9,5.2,26.3,9.1c14.1,6.5,24.4-0.9,34.7-8.1c2.1-1.5,3.5-6.1,3-8.8c-1.6-9-2-18.6-8.3-26.3
		c-8.9-10.9-11.5-23.6-10.1-37.4c0.8-8.3-1-15.7-6.8-22.2c-2.4-2.7-3.7-7-4.4-10.7c-2.8-14.3-5.4-28.7-7.5-43.2
		c-0.8-5.1-0.1-10.4-0.1-16.5c13.1-3.3,25.3-6.3,38.5-9.6c0.2-4,1-7.9,0.4-11.5c-1.8-11.2-4.2-22.2-6.2-33.4
		c-0.8-4.4-0.9-9-1.5-15.1c5.2,1.9,8.9,2.9,12.3,4.6c56.7,28.2,113.3,56.5,169.8,85c5.3,2.7,10.3,6.1,14.7,10
		c11.9,10.7,23.6,21.6,35,32.8c6,5.9,12.6,8.9,20.8,10.6c41.1,8.1,82.2,16.5,123.1,25.6c11.7,2.6,22,1.5,32.8-3.3
		c38.3-17,77-33.3,115.2-50.6c16.7-7.6,33.9-11.3,52.1-11.4c4.5,0,9.1-0.8,13.5-1.2c2.2-8.3-2.9-13.5-5.7-19.2
		c-4.5-9-8.1-18.1-9.8-28.1c-2.5-14.7-7.1-28.3-20.4-37.3c-3-2.1-5.5-5.9-6.8-9.4c-7.5-19.9-14.5-40-21.6-60.1
		c-0.4-1.1,0.2-2.6,0.4-5.2c3.2-0.8,6.8-2.5,10.5-2.6c16.7-0.3,33.3-0.1,50-0.3c20.8-0.2,29.8-6.5,37.4-26.2
		c2.4-6.2,4.3-12.6,6.5-18.9c4.5-12.7,4-24.3-4.1-35.9c-6.6-9.6-5.8-10.2-1.8-22.4c7.1,0.5,14.4,0.9,21,4.3
		c15.4,7.9,31.5,14.7,45.7,24.4c28.3,19.4,59.1,33.4,90.5,46.4c17.3,7.2,36.2,8.6,54.7,9.4c18.6,0.8,37.2,0.2,55.7,4.1
		c5.8,1.2,12,0.5,18,0.4c10.6-0.2,19.2,3.4,26.3,11.8c14.8,17.4,33.4,30.4,52.5,42.6c8.4,5.4,16.5,7.8,26.3,4.2
		c9.4-3.4,19.1-5.9,28.6-8.7c1.3-0.4,2.5-1.1,3.8-1.3c22.3-3.7,44.3-8.5,65.8-15.5c10.1-3.3,20,0.7,28.9,4.9
		c29.5,13.9,58.6,28.5,87.8,43.1c5.3,2.7,10.5,6.1,14.8,10.1c30.1,28.2,60.3,56.3,86.1,88.8
		C5655.4,3029.9,5661.8,3035.8,5668.2,3042.6z"/>
	<path onclick="modal(this.id);" id="16" class="st0" d="M4806.5,4366.4c13.7-5.6,26.3-11.3,37.6-19.7c35.8-26.5,73.6-50.4,108.5-78.3
		c11.5-9.2,25.8-10.9,39.7-6.1c9.3,3.2,18.2,8.1,26.6,13.3c22,13.7,44,27.4,68,37.8c21,9.1,42.6,15.4,64.7,20.3
		c13,2.9,23.5,8.7,32.6,18c10.3,10.4,20.8,20.4,26.9,34.4c3.1,7.1,8,14.6,14.2,18.9c15,10.5,18.8,25.2,18.8,41.6
		c0,12.9,3.2,24.9,6.2,37.2c3.3,13.4,9.6,24.6,19.5,35.4c4.1,0,8.7,0.2,13.3-0.1c1.9-0.1,3.7-1.1,5.9-1.8c6-9.1,6-20.2,9.5-30.1
		c3.4-9.3,6.9-18.6,10.6-28.8c11.6-2.1,22.7-4.1,33.7-5.9c19.8-3.2,38.9-3.1,58.6,3.9c18.6,6.6,38.6,9.3,57.2,13.6
		c10-6.9,12.7-17,17.9-25.4c2.1-3.4,3.3-7.3,4.8-11c3.6-9.1,9.5-15.1,19.1-18.9c12.3-4.9,23.9-11.7,35.5-18.2
		c9.2-5.2,18-11.2,26.9-17c2.2-1.4,4.1-3.4,6.1-5.2c17.7-16.4,37.7-15.4,57.5-5.9c21,10.1,41.1,21.9,61.5,32.9
		c6,3.3,10.8,7.7,13.4,14.2c1.8,4.3,5,8.1,6.1,12.5c3.4,13.5,12.1,21.6,24.9,26c3.8,1.3,7.2,3.5,10.8,5.1c6.1,2.6,12.2,5,19.3,7.8
		c3.4-4.2,6.6-8.3,9.9-12.4c8.7-10.9,17-13.9,29.7-9c13,5.1,25.6,11.2,38.3,17c5.4,2.4,11,4.7,16.2,7.5c17.3,9.1,34.9,5.8,52.6,1.6
		c1.9-0.5,3.9-1.2,5.5-2.2c25.5-15.2,48.3-33.4,62.8-59.9c8.6-15.6,19.8-28.2,34.3-38.2c22.9-15.7,41.3-35.9,55.2-59.7
		c11.9-20.2,19-42.4,20.6-66.1c0.2-2.7,0.3-5.3,0.4-8c0.4-17.1,6.1-32.4,15.6-46.5c2.6-3.8,4.5-8.1,6.6-12.3
		c6.8-14.2,16.9-25.4,30.6-33.5c6.5,0.4,10.4,5.1,14.7,9.1c6.2,5.7,13.2,8.8,21.8,7.9c21.7-2.1,42.3,3.4,62.8,9.4
		c30.8,9,62.1,14.6,94.1,16c4.9,0.2,8.6,2,12.6,4.9c16.2,11.7,33,22.5,49.1,34.3c9.1,6.6,18.6,13.5,25.6,22.1
		c28.8,35.5,62.9,64.9,100.4,90.6c12.3,8.4,22.4,18.8,32.3,29.6c3.6,3.9,6.6,8.5,10.6,11.9c16.5,14.1,27.3,32.5,38.9,50.4
		c3.5,5.4,4.2,10.9,4.4,17c0.5,11.3,2.3,22.5,2.1,33.8c-0.2,10.2,4.4,17.6,9.8,25.3c12.3,17.6,26.8,33.2,42.4,47.7
		c16.3,15.1,22.2,36,32.1,54.7c1.1,2.2,1,5.3,0.8,7.9c-1.6,24.1,3.2,47.7,6.1,71.5c2.7,22.4,4.3,45,6,67.5
		c2,27.3,6.6,54.1,12.6,80.7c3.5,15.5,4.3,31.7,8,47.1c5.6,23,14.7,44.1,38,55.5c16.3,8,30.8,18.2,41.8,34.4
		c-6.3,15.1-12.6,30.4-19,45.7c-12.8,30.7-25.1,61.7-38.7,92c-7,15.6-9.1,31.8-10.1,48.4c-1.2,21.2-1.8,42.5-2.6,63
		c-11.5,8.6-22.8,16.6-33.4,25.3c-22.2,18.3-34.1,43.9-46.6,68.9c-2.6,5.2-2.9,11.5-4.1,17.4c-1.6,7.1-2.5,14.5-4.7,21.4
		c-5.3,17.2-11.4,34.1-16.8,51.2c-3.9,12.1-10.8,19-24.5,19.1c-10,0.1-19.5,3.2-28.3,8.6c-15.2,9.3-32.8,11.4-49.8,13.3
		c-17.7,1.9-36,2.8-53.7-1.9c-5.4-1.4-10.4-1.5-15.6,0.4c-6.4,2.3-12.9,2.2-19.7,1c-9.5-1.6-16.6-6.2-18.9-15.5
		c-4.9-20.1-22.7-28.8-35.7-41.6c-3-3-8.5-3.6-12.8-5.1c-9.4-3.3-18.8-6.6-28.4-9.6c-8-2.5-14.2-7-18.4-14.3
		c-5.5-9.4-13.2-16.7-23.7-20.6c-7.2-2.7-12.1-8.2-15.9-14.6c-7.1-11.5-16.9-17.9-30.5-19.8c-7.6-1.1-14.9-5.2-22.2-8.5
		c-6-2.7-11.7-6.1-17.6-9.3c-23.8-12.9-45.8-8.7-67.3,5.9c-8.7,5.9-17.3,12.3-28,14.9c-7.5,1.8-14.3,2.5-21.2-1.3
		c-2.9-1.6-6.1-2.6-9.1-4c-14.7-7.2-28.8-7.9-43.9,0.3c-12.8,6.9-26.7,11.9-40.2,17.6c-11.1,4.7-21.8,9.8-28.6,20.7
		c-2,3.2-5.7,5.7-9.1,7.4c-1.8,0.9-4.7-0.6-6.9-1c0-2.4-0.5-4,0.1-4.9c10.3-14.9,12.4-32.1,13.3-49.4c0.6-11.3,0.1-22.7,0-34
		c-0.1-7.3-3.3-12.7-10.1-15.8c-10.9-4.9-21.8-9.9-32.8-14.7c-14.6-6.5-29.5-12.4-43.8-19.5c-10.5-5.3-19.8-4.6-30.5-0.4
		c-47.7,18.7-95.7,36.8-143.5,55.1c-3.7,1.4-7.5,2.6-12.5,4.3c-5.9-4.4-12-9.5-18.6-13.8c-4.3-2.8-9.3-6.1-14.2-6.4
		c-12.5-0.7-25.5-1.4-37.7,0.9c-16.7,3.2-31.6,0.3-46.1-7.4c-11.1-6-22.2-12.2-33.1-18.6c-34.7-20.2-72.1-34.2-109.8-47.4
		c-22.6-7.9-44.4-18-66.7-26.8c-8-3.1-16.3-5.8-24.7-7.4c-81-15.8-161.9-31.4-243-46.9c-26.8-5.1-53.6-9.8-80.5-14.7
		c-2-0.4-3.9-0.8-5.9-1.1c-18.8-2.9-21.2-1.8-29.9,15c-3.4,6.5-6.6,13.1-9.7,19.7c-0.8,1.8-1.1,3.8-1.8,6.7c3,5.2,6.4,10.9,9.7,16.6
		c-1.1,8.8-4.4,15.7-11.9,21.8c-13.4,10.9-25.5,23.4-33.2,39.4c-4.9,10.2-12.6,17-24.2,18.6c-1.3,0.2-2.6,0.7-3.8,1.1
		c-18.7,5.9-19.9,8.3-21.2,28.4c-1.5,23.8-4.1,47.6-6.1,71.5c-0.9,10.6-1.3,21.2-2.1,31.9c-1.4,18.5-2.8,37.1-4.3,55.6
		c-0.1,1.8-1,3.5-2,6.9c-8.1-6.4-14.2-12.9-19.2-20.6c-11.9-18.4-25.5-35.8-34.2-56.3c-1.3-3-3.2-5.9-5.1-8.6
		c-3.4-4.9-8.1-6.8-13.9-5.4c-5.8,1.4-11.7,2.7-17.4,4.3c-57.7,15.9-115.4,31.9-173.2,47.9c-11.5-4.3-22.7-8.4-35.7-13.3
		c-3.2-6.3-7.1-14-11-21.6c-10.2-20.2-20.3-40.5-30.5-60.7c-2.1-4.1-4.2-8.4-7.1-12c-3.1-3.9-7.6-5.7-12.5-3.7
		c-16.2,6.6-31.2,15.2-43.4,27.9c-3.1,3.2-5.1,7.8-6.6,12.1c-4.1,11.2-7.4,22.8-11.6,34c-2.8,7.4-6.2,14.7-10.4,21.4
		c-7.7,12.4-16.2,24.4-24.4,36.5c-4.6,6.8-7.2,13.9-7.7,22.3c-0.7,11.2-2.8,22.4-4.2,33.6c-0.9,7-4,12.7-9.4,17
		c-6.8,5.4-13.2,11.4-20.7,15.5c-16.6,9-30.9,20.8-43.8,34.4c-5.7,6-12.2,10-20.2,12c-24,5.8-47.3,13.7-67.9,25.9
		c-11.8-1.5-19-7.8-25.4-15.9c-26.1-32.8-53-65-78.5-98.3c-12.9-16.9-28.7-22.5-48.8-19.7c-19.1,2.7-38.4,4.5-56.5,11.6
		c-7.3,2.8-14.3,2.4-21.3-0.9c-12-5.6-23.8-11.8-36.2-16.7c-9.8-3.9-20.1-6.6-30.4-9.2c-18.1-4.6-35.5-10.9-52.2-19.3
		c-16.2-8.2-26.8-21.6-35.2-36.8c-7.4-13.4-13.5-27.5-19.8-41.4c-6.9-15.4-16.2-28.5-28.8-40c-8.7-7.9-15-18.6-21.1-28.8
		c-6.5-10.7-11.5-22.4-17.2-33.7c8.2-9.2,18.6-12.1,28.1-16.4c21.8-9.8,44.5-17.9,65.6-29c17.7-9.3,32.5-23.2,43.8-40
		c4.1-6.1,7.2-12.8,11.3-18.8c9.9-14.8,7-28.9-1.8-42.7c-2.9-4.5-6.3-8.6-9.6-12.8c-24.9-31.3-46.9-64.6-70-97.2
		c-2.7-3.7-5.3-7.8-6.6-12.2c-9.4-29.8-18.4-59.7-27.7-90c2.5-5.4,5.1-10.8,7.5-16.3c3.1-7.3,8.7-10.5,16.1-13.4
		c13.6-5.3,26.4-12.6,39.3-19.4c2.8-1.5,5.3-4.2,6.9-6.9c7.6-12.5,15-25.1,22.1-38c5-9.1,3.4-14.8-5.8-19.8
		c-15.8-8.6-31.8-16.7-47.7-25.1c-3.5-1.8-6.8-3.9-11.8-6.9c5.4-3.8,9.2-7.1,13.5-9.4c24.8-12.9,49.3-26.5,74.7-38.2
		c26.5-12.2,45.2-32.2,61.9-55c9.8-13.4,19.3-27,29.3-40.3c13.8-18.4,24.3-38.1,27.2-61.3c1.9-15.6,9.4-29,17.2-42.3
		c8.7-15,17.9-29.7,26.8-44.5c3.1-5.1,6.9-10.1,8.6-15.7c3.6-12.1,11.3-19.2,23.2-22.2c1.3-0.3,2.4-1.2,3.7-1.5
		c19.2-4.3,33.9-14.8,44.4-34.2c-2-7.3-1.1-15.9,8.7-21.5c6.6-3.8,10.4-10.1,12.8-17.3c1.1-3.1,2.6-6.1,3.7-9.3
		c2.8-8.5,8.1-12.3,17.4-13.6c41.5-5.8,82.8-12.5,124.2-18.8c7.8-1.2,15.7-1.9,22.5-2.7c2.2,1.8,3.7,2.4,4.2,3.5
		c7.8,15.4,19.2,26.6,35.6,32.9c5.4,2.1,10,6.5,14.9,10c12,8.4,23.6,17.4,36,25.2c10.8,6.8,21.6,13.2,27.1,26.7
		c8.2,0,16.2,0.2,24.1,0c17.3-0.4,34.6-1,51.9-1.7c3.9-0.2,7.8-1.5,11.8-1.9c9.3-0.8,13.2-9.5,11.3-17.6c-2.7-11.7-5.2-23.4-8.2-35
		c-4.2-16.5-4.4-16.4,2.4-34.9c2.9,0,6.1-0.2,9.3,0.1c3.2,0.3,6.4,0.9,11,1.7c-0.7,24.4-0.6,48.3-2.4,72c-1,14.1,3.4,25.1,13.5,33.6
		c11.7,9.8,24.4,18.5,36.8,27.4c2.6,1.9,5.8,3.6,9,4.1c16.4,2.7,32.8,5.9,49.3,7.3c19.5,1.6,34.4-7.9,45.7-23.4
		c4.7-6.4,9.2-13,14.3-19.2c7.8-9.5,21.2-12.9,32.2-8.3C4794.5,4359.6,4799.6,4362.8,4806.5,4366.4z"/>
	<path onclick="modal(this.id);" id="13" class="st0" d="M4898.7,3014.1c-6.6,2.2-13.9,1.2-21,1.1c-8.9-0.1-17,1.8-25.1,5.4
		c-40.1,17.8-80.6,34.9-120.6,53.1c-13.4,6.1-26,7.4-40.5,4.2c-36.3-8.2-72.9-15.3-109.5-22.2c-12.9-2.4-24.5-7-32.9-16.9
		c-19.9-23.3-44.8-38.8-72.3-51.9c-51.6-24.6-102.4-50.9-153.7-76.4c-3.4-1.7-7.1-2.5-12.6-4.3c0.7,22.9,7.7,43.1,9.9,64.5
		c-11.6,7.4-25.6,4.4-36.9,11.4c-2.7,9.4-2,19.3-0.4,29.2c1.9,11.8,3.2,23.7,5.3,35.5c0.9,5.1,2.3,11,5.6,14.6
		c6.1,6.6,7.4,14,6.6,22.1c-1.4,13.9,1.5,26.4,10.5,37.3c0.4,0.5,0.7,1.1,1,1.7c9.6,16.7,7.9,23.1-9.9,34
		c-14.3-2.2-28.9-6.9-42.8-13c-10.4-4.6-20.1-5.6-30.8-1.1c-8.5,3.6-17.5,5.9-26.7,8.9c-2.3,9.4-4.5,18.3-6.8,27.6
		c-25.2,18.5-53.7,28.7-84.4,33.2c-6.2,0.9-11.7-0.2-17.3-3.1c-11.8-6.2-23.7-12.3-35.8-17.7c-11.5-5.2-23.4-9.5-34.8-14
		c-3.8,1.6-6.9,2.8-9.9,4.3c-12.7,6.4-22.9,14.6-28.8,28.6c-7.7,18.4-19.6,34.8-31.5,50.8c-7.1,9.5-16.2,17.6-24.6,26.2
		c-11.7,11.9-22.6,24.4-30.7,39.2c-1.3,2.3-3,4.5-3.8,7c-5.2,16.1-14.6,29.8-24.5,43.2c-3.6,4.8-6.2,10.2-9.3,15.3
		c-2.1,3.4-3.6,7.8-6.6,9.8c-11.6,7.8-17.2,19.9-24.9,30.8c-10.7,15.2-21.8,30.3-38.9,39.3c-0.6,0.3-1.1,0.7-1.7,1
		c-4.5,2.6-59.7,18.6-64.9,18.6c-3.2,0-6.4-0.5-10.7-0.8c-0.6-5.2-2.1-9.8-1.4-14c1.3-8.2-0.7-15.7-2-23.6c-2.1-12.6-6.2-23-19.1-28
		c-3.9-1.5-6-4.8-7.2-9c-0.8-3-2.7-5.8-4.6-9.5c-7,6.1-13.3,11.5-18.6,16.1c-12.9-0.7-17-12.6-26.6-15.3
		c-14.1,13.2-14.1,13.2-11.4,32.5c-2.4,2.9-4.7,1.7-6.6-0.4c-3.8-4.2-9-5-14.1-6.6c-32.2-10.1-55.1-30.2-69.8-61.1
		c-11.9-25-16.9-51.7-23-78.2c-1.2-5.1-1.4-10.6-1.3-15.9c0.4-20,1.7-39.9,1.4-59.9c-0.2-13.4,3.5-24.7,12.6-36.3
		c16.2-0.3,33.4-0.7,51.7-1c-0.4-3.3-0.5-5.7-1-8c-0.5-2.5-1.3-5-2.4-8.9c9.1-2.6,17.7-5.1,25.9-7.5c3.6-22.6-3.1-23.7-20.4-26
		c-13.7-1.9-27.8-0.9-42.2-6.8c1-7.8,2.1-15.5,3.2-23.8c-6.3-9.4-19.1-7.7-28.3-15.1c1.2-4.7,1.8-10,3.7-14.7
		c5-12.1,5.5-24.5,4.2-37.2c-2.1-19.8-4.2-39.6-6.7-59.3c-0.9-7.1-2.9-14-4.8-23.1c10.2-19.7,26.9-38.1,37.8-62
		c-12.4-3.1-22.9-3.3-33.2-3.9c-16.6-1-33.1-1.7-49.7-2.9c-3.2-0.2-6.8-1.1-9.3-2.8c-15.7-11.1-31.8-21.8-46.8-35.8
		c2.7-17.5-2.5-33.7-12.4-48.6c2.1-4.3,3.8-7.8,5.6-11.2c4-7.6,8.9-14.9,12.1-22.9c3.7-9.4,10.1-16.2,19-19.3
		c20.7-7.4,36.5-21.4,52-36c2.4-2.3,4.7-4.9,7.4-6.7c34.4-22.9,53.7-58.3,76.1-91.2c5.2-7.7,4.6-11.2-1.3-17.8
		c-14.2-15.8-28.7-31.5-42.9-47.3c-5.3-5.9-10.2-12.1-15.2-18c2.7-14.9,9.3-27.3,14.8-40c3.1-7.3,7.2-14.3,10.6-21.5
		c9.9-21.2,17.6-43,20.9-66.4c1.3-9.1,4-18.2,7.2-26.9c7.4-20.7,15-41.3,19.6-62.8c0.4-1.9,1.4-3.6,2.6-6.5c21.7,3,42,11,63.7,16.7
		c1.9,6.4-2.5,13.2,2.1,19.1c4.1,5.2,6.1,12,10.3,17c2.7,3.2,7.4,5.6,11.6,6.6c5.7,1.3,11.9,0.8,17.4,1.1c6.8-3.5,9.6-9.7,12.9-15.4
		c6.7-11.6,15-21.9,24.8-31.2c16.5-15.6,32-32,43.8-51.6c2.7-4.5,6.1-9.1,10.3-12c10.7-7.3,22.2-12.7,35.2-4.8
		c8.9,5.4,17.8,5,26.2-0.9c11.2-7.8,23-2.8,34.9-2.9c9.6,14.6,21.5,27.5,20.5,45.6c10.6,4.4,18.3-3.4,27-1.9
		c15.2,12,25.8,28.2,37.7,43.4c22.7,3.3,45.7-2.2,69.2,5.5c7.2,16.4,15.3,33.7,30.8,48c9.2-2.7,18.8-5.1,28.2-8.3
		c10.7-3.6,21.3-7.7,31.8-11.9c13-5.1,25.8-10.8,40.4-8.7c7.4,1.1,12.6-2.9,17.2-8.1c6.8-7.8,14.4-14.1,27-11.9
		c2.8,2.8,5.8,7.2,10,9.7c3.8,2.3,8.8,2.8,13.3,3.8c22.7,4.9,45.5,9.6,68.3,14.7c5.8,1.3,11.7,3,16.9,5.8
		c31,16.8,63.8,21.2,98.3,15.9c9.8-1.5,19.7-3,29.6-4.2c8.7-1.1,17.3-0.3,27.1,4.4c3.7,10.6,8.4,22.2,12,34.2
		c3.7,12.5,8.9,23.3,20.5,30.7c5.3,3.4,9,9.6,13.1,14.9c17.5,22.7,34.8,45.4,55.9,65c2.4,2.2,4.9,4.4,7.4,6.6
		c25.9-4.5,52-0.6,77.9-2.7c15.8-17.5,25.5-39.3,43.8-54.6c17.3-14.5,33-31,49-46.2c10-1.5,19.1-2.8,28.9-4.3
		c6.8-22.9,3.6-46.5,9-69.4c10.7-2.6,21-4.9,31.2-7.6c7.7-2.1,16-3.4,22.7-7.3c21.5-12.6,45.3-14.5,69-17.1
		c21.3-2.3,42.4-2.3,63.6,1.8c10.4,2,21.2,2.6,31.8,2.4c26.7-0.7,53,2.6,79.4,6.4c19,2.8,38.4,3.2,57.6,4.9
		c11.9,1.1,23.7,3.1,35.6,4c29.2,2.3,58.3,4.5,87.6,4.6c22.5,0,45.3,1.5,67.6,4.7c19.8,2.8,38.6,10.6,55.5,21.7
		c19.2,12.6,40,21.3,61.4,28.5c36.5,12.2,66.1,33.9,91.1,62.5c9.1,10.3,20.5,19.5,22,36.8c-1.2,2.4-3,6.7-5.4,10.6
		c-5.5,8.8-2.5,16.8,2.9,23.9c4,5.3,9.2,9.7,13.9,14.3c18.6,18.2,22.6,40.9,7.9,67.2c-5.2,9.3-11,18-19.6,24.8
		c-12.8,10.2-19.9,24.7-26.7,39.2c-2,4.2-2.6,9.4-5.4,12.8c-13.8,17-16.5,37.4-18,58.1c-0.5,7.6-3.6,12.4-9.9,15.9
		c-8.2,4.6-15.5,10-20.7,18.2c-6.2,9.8-10.2,19.5-8.2,31.6c2.8,17.9-6.2,33.4-10.5,48.8c-2.7,1.2-4.1,2.5-5,2.2
		c-12.8-4-24.6-0.6-36.8,3.3c-11.3,3.6-23.3,5-34.9,7.7c-10.3,2.5-20.5,5.6-30.8,8.3c-9.6,2.5-19.3,4.9-29,7.3
		c-9.1-5.5-18.6-10.4-27.1-16.5c-14-10.1-28.3-20-38.6-34.3c-5-6.9-11.6-9.7-20.6-9.7c-13.9-0.1-27.8-2.1-41.7-3.1
		c-6.6-0.5-13.3-0.9-19.9-0.8c-18.7,0.5-37.2-2-55.5-5.4c-7.8-1.5-15.5-4-22.7-7.2c-24.4-10.7-49.5-20.1-71.1-36
		c-14.6-10.7-30.6-18.8-46.5-27.1c-11.4-5.9-23.7-8.6-36.1-10.9c-6.4-1.1-9.4,2-10.2,8.9c-0.9,9,0.8,17.3,6.3,24.4
		c8.8,11.3,7.4,23.4,3.2,35.7c-1.9,5.7-4.1,11.3-6.1,16.9c-4.5,12.8-14.3,18.9-27.2,19.8c-7.2,0.5-14.6-0.8-21.9-1.1
		c-11.3-0.5-22.6-0.9-33.9-1.2c-5.7-0.1-10.2,2.3-13.6,7c-2.5,3.5-3.9,7-1.9,11.1c9.1,18.6,16.1,38,21.5,57.9
		c1.7,6.2,5.6,10.5,10,14.6c11.7,10.9,18.1,24.1,19.4,40.2c0.5,6.3,4.4,12.3,6.8,18.4C4896.7,3003.2,4901.3,3007.2,4898.7,3014.1z"
		/>
	<path onclick="modal(this.id);" id="10" class="st0" d="M2275.8,2976.6c-27.3-70.2-53.9-139-80.3-208.8c5.2-2.7,9.1-5.1,13.2-6.8
		c11.1-4.4,22.2-9,33.6-12.6c9.5-3,13.8-8.1,14.7-18.4c3.8-45,8.4-89.9,12.7-134.9c1-10.6,2-21.2,3.5-31.7c1-7.4-1.1-13-6.9-17.5
		c-3.2-2.4-6.6-4.8-9-7.8c-8.1-9.9-18.3-14.9-30.9-16.1c-4.5-0.4-8.8-2.5-12.5-3.7c-0.6-2.3-1.6-3.7-1.3-4.8
		c3.7-14.1-1.4-26-8.8-37.4c-2.5-3.9-4.8-8-6.5-12.3c-2.7-6.6,0.7-14.2,7.7-15.6c45.5-9.2,85.4-33.4,128.6-48.6
		c50.9-18,98.7-43.2,148.1-64.8c9.6-4.2,15.4-10.3,16.1-20.7c0.2-3.2-0.6-6.6-1.4-9.7c-4.1-14.8-7.1-30-12.8-44.1
		c-8.7-21.4-22.5-39.6-44.3-49.1c-8.8-3.9-19.3-4.4-29.1-5.7c-10.5-1.3-21.2-1.6-33.2-2.5c0.8-4.3,0.4-8.8,2.4-11.3
		c8.9-10.7,18.6-20.8,28-31.1c7.6-8.3,15.5-16.4,22.6-25.1c3.2-4,5.1-9.3,6.8-14.2c3.8-11.5,1.4-21.1-6.6-31.2
		c-9.3-11.9-16.4-25.8-22.6-39.7c-3.4-7.5-3.1-16.8-4-25.3c-0.5-4.6,0.5-9.3,0.2-14c-0.7-9.1,2.3-16.9,6.5-24.7
		c8.7-15.7,17.2-31.6,25.7-47.4c1.6-2.9,3.1-5.9,4.3-9c2.2-5.6,1-10.5-3.7-14.3c-5.7-4.6-11.6-8.9-17.4-13.5
		c-12.5-9.9-25.3-19.5-37.4-29.9c-16.1-13.9-23.8-31.8-22.5-53.1c0.7-10.9-1.5-21.1-5.3-31.2c-4.4-11.9-8.2-23.8-8-36.8
		c0.1-6.3-2.6-13-5.2-19c-5.9-13.5-10.7-27.1-10.9-43.9c4.1-4.2,8.9-9.7,14.2-14.6c5.1-4.8,8-10.3,8.8-17.3
		c1.2-10.6,3.1-21,4.3-31.6c0.4-3.2,0.3-7-1.1-9.6c-6.1-10.6-5.6-21.8-3.6-33c2.3-13.3,1.4-26.5-0.6-39.5c-1.7-11.2,0.3-21,4.5-31
		c3.9-9.2,7-18.7,10.7-28c2.5-6.2,4.7-12.5,8.1-18.1c9.2-15.1,11.4-31,6.8-48c-0.5-1.9-0.9-3.9-1.4-6.5c6-9.9,11.9-20.3,18.5-30.3
		c9.2-14.1,9.3-30.3,10.4-46.1c0.3-4.7-2.7-10.3-5.7-14.5c-7.3-10-7.8-20.8-6.1-32.4c0.9-6.6,1.3-13.2,1.8-19.8
		c0.8-8.6,0.7-17.4,2.5-25.8c3-14,3.4-27.7-1.6-41.2c-4.3-11.8-3.2-22.9,0.3-35c3.5-11.9,3.4-24.9,4.8-37.4c0.3-2.6,0.3-5.4,0-8
		c-1.6-16.1,1.1-29.7,16.2-39.6c7.4-4.9,12.1-13.7,18.7-21.5c6.5,3.6,8.5,10.3,11.7,15.6c6,10,12.2,18.6,24.3,22.3
		c4.5,1.4,8.4,6.2,11.7,10.2c3.7,4.6,6.1,10.3,9.7,15.1c4.8,6.3,9.8,12.6,15.4,18.2c8,8,16.8,15.1,24.8,23.2
		c10.3,10.5,21.2,20.2,33.6,28.2c3.3,2.1,7,4.3,9.4,7.3c5,6.2,8.7,13.4,13.8,19.5c4.6,5.5,10.3,10.1,15.9,15.6
		c-3.6,5.2-6.6,9.5-9.5,13.5c0.2,1.6,0,3.1,0.7,4.1c2.1,3.3,5.2,5.8,3.8,10.6c-1.3,4.4-1.4,9.1-2,14c9.1,7.3,17.6,14.6,26.7,21.3
		c3.6,2.7,8.2,4.4,12.6,5.8c14.5,4.8,29,10.2,43.9,13.5c12.2,2.7,25,3.6,37.6,3.8c62.6,1.1,125.2,1.7,187.8,2.5
		c44.6,0.6,89.3,0.1,133.8,2.5c34,1.8,68,0,101.9,1.9c43.3,2.3,86.6,1.8,129.8,2.2c30,0.3,59.9,1,89.9,1.8
		c27.9,0.7,55.9,1.7,83.8,2.7c1.9,0.1,3.7,1.1,6.5,2c-3.8,20-8.9,38.4-26.7,51.4c-13.4,9.8-25.4,21.5-37.5,32.8
		c-4.8,4.5-8.7,10.1-12.2,15.7c-5.4,8.7-11.9,15.5-21.6,19.8c-6.5,2.9-11.7,8.5-17.5,12.9c-5.9,4.6-7.5,10.8-5.9,17.8
		c1.3,5.8,3.2,11.5,0.6,17.5c-8.2,18.7-9,38.9-10.7,58.6c-1.3,14.9-5.4,28.7-10.3,42.5c-7,19.8-10.4,39.8-3.5,60.4
		c4.4,13,4.8,25.6,0.7,39.1c-4.2,14-3.8,28.7-2.2,43.4c0.6,5.7,3,9.9,6.6,14.1c6.4,7.6,12.8,15.3,18.4,23.5
		c8.9,13.3,17.7,26.6,29.8,37.3c6.1,5.4,10.3,12.2,10.9,21.8c-11.2,13.1-21.3,27.2-19.9,47c1.2,17.6,2.4,34.5,16.2,49.1
		c-4.9,3-9.4,2.2-13.6,1.9c-8.6-0.7-17.1-1.8-25-2.7c-5.3,4.3-3.5,9.1-2.3,13.4c5.8,21.2,11.9,42.2,21.2,62.3
		c8.6,18.6,17.4,37.2,23.3,58.2c-9.2,5-18.2,3.2-27.1,1.3c-18.9-4-37.7-8.2-56.6-12.4c-41.6-9.3-83.1-18.7-124.7-27.8
		c-6.7-1.5-12.7-2.8-17.1-8.8c-1.6-2.2-5.5-3.7-8.5-3.9c-10.7-0.9-21.1-0.6-30.9,5.2c-17.2,10.1-34.6,19.9-52.2,29.4
		c-8.6,4.7-14.9,11.3-18.6,20.1c-7.9,19.1-15.4,38.3-22.8,57.5c-2.4,6.2-4,12.6-6.1,19.7c-4.4,1.4-8.7,3-13.2,4
		c-37,8.4-74,16.8-111,24.9c-14,3.1-16.7,11.5-13.9,23.6c0.9,3.8,3.1,7.3,4.9,10.9c5,10.2,9.1,20.9,15.4,30.3
		c9.4,14.1,11.6,29.2,10.7,45.6c-0.7,14,0.1,28-0.2,42c-0.2,8.2,0.8,15.9,5.1,23c4.5,7.4,4.9,14.6,0.5,22.6
		c-5.2,9.4-7.1,19.9-8.3,30.6c1.9,2.3,3.3,4.8,5.4,6.2c8.2,5.7,11.9,14,14.7,23.1c1.5,5.1,4.2,9.9,5.5,15c2.7,10.8,9,15.8,21,14.6
		c2.5-3,5.5-6.4,9-10.5c4.5,2.6,8.9,5.1,13.5,7.7c-2.4,6.4-4.4,11.9-6.7,18c11.4,6.1,24,3.1,34.8,7.1c2.7,6.8,0.2,12-3.3,17.2
		c-3.4,5-8.4,6.1-13.7,7.1c-12.4,2.5-24.7,5.3-35.7,11.4c-2.2,6.4,2.1,10.4,4.8,14.7c19.4,31.1,38.9,62.1,58.3,93.1
		c3.2,5,6,10.3,8.7,14.8c-0.8,2.3-0.9,4-1.8,4.7c-11.6,9.9-24,19-31.7,32.8c-0.9,1.7-2.5,3.2-4.1,4.3c-20.4,14.5-33.6,35.7-50,54
		c-3.1,3.5-6.5,6.6-9.8,10c-3.6,3.7-8.1,4.6-12.9,4c-6.6-0.8-13.2-1.6-19.7-2.9c-14.7-2.9-29.2-0.7-43.6,1.7c-6,1-10.9,4.1-15.7,8.1
		c-10.4,8.7-19.2,18-22.8,31.7c-3.3,12.5-11.5,22.4-18.7,31.8c-11.5,6.2-24.9,1.1-36.1,9.7c1.5,3.8,2.9,8,4.6,12
		c14.9,33.5,14.3,35.2,11.4,59.3c-13,7.4-128.8,46.8-153.2,52c-15.5-10.5-32.7-19.2-46.3-33.5c-9.9-10.3-23.5-15.1-36.5-19.9
		c-4.4-1.7-10.8-0.6-15.5,1.2c-16.1,6.2-32.4,11.5-46.5,22.6c-14.3,11.3-32.4,15.7-49.9,19.5c-41.6,9-83.8,14.6-126,20.2
		C2288.4,2976.2,2283.1,2976.2,2275.8,2976.6z"/>
	<path onclick="modal(this.id);" id="12" class="st0" d="M3231.7,2888.1c-3.6,28.3-3.9,28.7-26.4,36.5c1.5,5.5,3.1,11.1,4.8,17.4
		c-12.7,11.3-21.8,24.5-21.1,43.2c3.4,1.1,6.4,2.7,9.6,3c12.7,1.3,21.8,9.5,31.5,16.4c6.2,4.4,7,13.6,2,19.5
		c-9.9,11.7-20.2,23-30.8,34.1c-2.6,2.7-6.6,4.5-10.3,5.5c-7,1.9-14.4,2.6-21.5,4.5c-11.7,3.3-20.8-0.5-28.4-9.3
		c-3-3.4-6.3-6.7-9.2-9.8c-14.2,7-87.9,64.5-102.4,79.6c2.9,9,14.2,8.9,18.6,16.5c-17.8,6.1-29,4.7-42.2-4.9
		c-8.1-5.9-15.9-11.9-22.1-19.9c-8.7-11.2-20.2-19.2-33.5-24.5c-22.3-8.9-44.4-18.1-63.6-33c-1.6-1.2-3.5-2-5.1-3
		c-15.4-9.7-29.8-10.6-46.3-0.1c-15.7,9.9-34,15-53,16.5c-4.6,0.4-9.2,2.2-13.7,2.2c-9.2,0.1-16.4,3.8-23.7,9.1
		c-10.6,7.8-24.5,6.3-34.2-2.9c-5.3-5-10.8-10.1-15.1-15.9c-7.4-10-16.9-16.5-27.9-21.9c-32.6-15.8-37.4-17.9-44.1-53.3
		c-1-5.2-3-10.2-4.2-15.4c-0.3-1.1,0.7-2.5,1.4-4.9c4.8-1.8,10.3-4,15.9-5.9c39.1-13.2,78.3-26.2,117.5-39.3
		c3.2-1.1,6.2-2.4,9.5-3.2c8.3-1.9,11.6-6.6,12.4-15.4c1.4-15.6-0.3-30.3-7.2-44.4c-2.6-5.3-4.2-11.1-6.7-17.7
		c5.3-4.1,11.1-4.2,16.9-4.4c7.9-0.3,13.6-4.1,17.9-10.9c7.1-11.3,14.4-22.1,18.8-35c5.7-16.9,18.5-26.8,36.4-30.1
		c20-3.7,39.6,0.3,59.3,2.3c1.9,0.2,3.9,0.6,6.6,1c20-17.1,33.6-40.9,53.4-58.2c19.7-17.1,32.4-40.5,53.3-52.8
		c2-10.3-2.5-15.5-6-21.1c-19.1-30.5-38.3-60.9-57.3-91.4c-2.4-3.8-4-8.1-5.9-12c9-7.6,19.4-8.1,29-9.5c11.6-1.6,18-7.7,21.4-17.9
		c1.8-5.5,2.8-11.3,4.2-17.3c-10.7-6.5-21.7-4.9-33.1-7.7c0.8-4.7,1.6-9.6,2.6-15.4c-5.6-6.8-14-10.8-22.9-16.4
		c-2.9,3.6-5.3,7.4-8.5,10.2c-2.1,1.9-5.5,2.3-9.5,3.9c-3.3-8.5-6.3-15.8-8.9-23.3c-4-11.3-8.1-22.6-18.7-29.5
		c-1.3-9.6,1.5-17.6,5.7-25.3c5.1-9.3,6.5-18.3,0.6-28.2c-4.7-8.1-6-17.4-5.6-27c0.8-18,1.1-35.9,1.1-53.9c0-4.5-1-9.3-2.8-13.4
		c-3.2-7.3-7.4-14.2-10.9-21.3c-5.3-10.7-10.4-21.6-15.6-32.4c-2.9-5.9-3-11.5,1.8-17.8c43.2-9.9,87.2-20,132.4-30.4
		c2.2-6.9,4.4-13.7,6.5-20.6c6.7-21.7,14-43,24.9-63c3.3-6.1,7.6-10.8,13.4-14.3c19.4-11.7,38.7-23.4,59.7-32.1
		c4.8-2,10.2-2.7,15.4-3.2c2.3-0.2,5.9,1,7,2.8c4.8,7.8,12.5,9.1,20.4,10.8c59.8,13.3,119.4,27.2,179.3,39.7
		c22.3,4.7,45.3,4.6,66.1-7.5c8.6-5,16.4-11.3,24.1-17.5c9.4-7.5,18.8-14.8,30.2-19.1c6.4-2.4,12.8-4,19.5-2.4
		c12.9,3.1,25.8,6.3,38.6,10c10.2,2.9,20.1,7.4,30.4,9.6c12.2,2.6,18.9,8.9,19.5,21.5c0.1,1.1,1.2,2.2,2.6,4.6
		c12.9-0.9,26.5-1.9,38.9-2.9c5.2,12.8,9,24.7,14.8,35.7c5.7,10.8,4.5,21.9,5.1,33.5c-2.9,3.4-6,6.8-9,10.4
		c-6.8,8.2-12.3,17.1-16.3,27.2c-3.7,9.2-8,18.4-13.5,26.6c-13.6,20.5-21,43-22.9,67.2c-1.7,20.7-6.4,40.9-13.5,60.2
		c-8.5,23.2-16.1,46.4-20.2,70.8c-3,17.9-11.3,34-18.6,50.4c-7.6,17-15,34.1-22.4,51.2c-1.6,3.6-2.5,7.5-4,12.1
		c21.6,24.4,43.2,48.7,65.3,73.6c-15.6,22.8-30.2,45.1-45.9,66.5c-5.4,7.3-13.6,12.6-20.6,18.7c-9,7.9-18.2,15.6-27.1,23.6
		c-9.4,8.5-19.2,16.4-31,21.5c-4.3,1.8-8.4,4.1-12.4,6.4c-10.6,6-19,13.5-23.3,26c-3.6,10.5-10.4,19.9-16.3,30.7
		c3.5,7.4,7.4,15.1,10.7,23c4,9.5,5.1,19-1.3,26.9c-10.6-0.3-19.7-0.6-28.9-0.7c-7.1-0.1-12.7,2.9-17.8,7.7
		c-6.3,5.9-13.2,11.1-19.9,16.6c-16.1,13.2-34.4,19.6-55.3,19C3257.3,2883.2,3244.7,2883.9,3231.7,2888.1z"/>
	<path onclick="modal(this.id);" id="6" class="st0" d="M4214.5,2264.2c-35-2.8-68.8-10.8-103.6-9.6c-4.6,0.2-9.2-1.4-13.8-1.8
		c-11.3-0.8-22.4-1.4-33.6,2.3c-10.7,3.5-22.4,4.3-32.8,8.3c-16.7,6.4-31.3,0.9-45.8-5.9c-9.5-4.4-13.7-12.6-12-22.8
		c1.6-9.1,3.8-18.1,5.9-27.8c4.8-0.5,8.6-1.4,12.3-1.2c9.9,0.4,19.9,0.9,29.7,2.1c17.8,2.2,26.9-8.8,34.2-22.1
		c7.5-13.6,10-28.9,12.2-44c1.3-9.2,1.9-18.6,1.8-27.9c-0.1-13.6,3.8-24.8,15.3-32.7c2.2-1.5,4.6-2.8,5.1-3c0-3.6,0.1-4.3,0-4.8
		c-0.2-0.6-0.5-1.3-1-1.7c-1.5-1.2-3.1-2.6-4.8-3.5c-18.2-9.6-36.5-19.1-55-28.7c-16.2,9.2-31.7,18-48,27.3
		c-24.3-18-47.6-36.4-71.5-56.3c4.6-3.8,7.8-7.1,11.6-9.4c24.3-15.2,48.2-31,73.2-44.9c18.5-10.3,38.4-18.5,57.9-26.9
		c54.3-23.6,108.9-46.5,163.1-70.5c14-6.2,27.5-9.2,42.3-4.6c8.8,2.7,18.8,0.8,27.8,7.5c0.8,5.6,1.8,12,2.9,19.5
		c7.8,1.7,15.3,3.4,24.1,5.4c1.3,7.9,2.6,16.1,4.1,25c12.1,0,23.3,0,35.7,0c0.8-3.5,2.3-7.1,2.3-10.8c-0.1-11.8-1.1-23.6-1.1-35.5
		c0-3.9,1.6-7.8,2.4-11.3c5-6,15-3.1,18.3-11.3c10.2-2.1,12.7-10.5,15.4-18.7c5.1-15.2,10.1-30.3,15.2-45.5c1.7-5,3.3-10.2,5.4-15
		c1.8-4.1,2.7-9.6,8.4-10.2c7.3-0.8,7.9,5.7,10.3,10.2c0.9,1.7,1.9,3.4,3.1,5.8c-8.8,11.5-17.5,23.1-25.8,34
		c2,10.4,10.4,13.3,16.1,18.3c22.4,19.6,22.6,19.3,51.2,14c22.2-4.1,44.5-7.9,66.8-11.8c6.5-1.2,13-2.5,21.1-4.1
		c6.1-9.2,12.7-19,19.9-29.7c6.2,0,12.5,0,19.6,0c3.4,11.1-5.8,20.8-2.6,32c15.8,2.7,31.6,1.8,47.4,0.6c6-0.4,11.9-1.6,17.9-1.7
		c57.3-0.6,114.6-0.1,171.9-2c33.3-1.1,66.5-2.2,99.8-2.2c6.6,0,13.2,0,19.4,0c8.5,11.4,6.3,22.2,2.6,33.2
		c-5.1,15.1-10.7,30.1-14.8,45.5c-2.7,10.2-3.8,20.9-4.6,31.4c-0.3,4.3,1.8,9,3.3,13.3c3.9,11.3,8,22.6,12.3,33.8
		c2.7,7,3,14.2,2.9,21.6c0,9.1-2.1,17.3-8.6,23.7c-5.2,5.1-7.2,10.8-6.9,17.9c0.2,3.9-0.7,7.9-1.2,11.9c-2.4,17.2-10.3,30-29.2,33.6
		c-2.4,5.6-4.7,11-7,16.5c-1.1,0.6-2.1,1.6-3.3,1.9c-4.5,1.1-9,2.6-13.6,3c-21.1,1.8-39.8,10.1-57.4,21.4
		c-11.8,7.5-23.8,14.7-35.5,22.4c-5.2,3.4-10.6,4.8-16.9,5c-7.9,0.2-15.9,0.9-23.7,2c-7.1,1-13.1-1.3-19-4.6
		c-12.8-7.1-25.6-14.3-38.3-21.5c-7.5-4.3-15.4-8.1-22.4-13.2c-8.8-6.3-17.9-3.1-26.9-1.9c-2.3,0.3-4.9,2.5-6.2,4.6
		c-5.9,9-10.8,18.3-8.5,29.8c2.1,10.4,6.1,21.4,4.5,31.4c-2.7,17.2,5.4,29.3,13.5,42.2c18.2,28.8,40.4,54.5,61.7,80.8
		c4.6,5.7,9,11.5,13.6,17.1c5.5,6.7,11.2,13.2,16.8,19.7c5.8,6.8,12.7,11.6,21.7,13c2.5,0.4,4.8,1.8,8.1,3c2.5,21.5-0.1,42.3-4,62.4
		c-2.1,1.1-3.2,2.1-4.4,2.2c-15.7,1.4-29,6.6-40.1,18.9c-12.9,14.3-27.9,26.7-41.5,40.4c-6.9,7.1-12.8,15.3-18.8,23.2
		c-5.2,6.9-10,14-15.1,21.2c-24.5,0-48.4,0-72.6,0c-12.6-7.3-21.7-18.6-31-30c-14.3-17.5-28.7-34.9-44-51.6
		c-7.4-8.1-13-16.6-16.1-27.1c-3.2-10.8-7.3-21.4-10.8-32.2c-1.8-5.7-5.3-9.1-11.2-10c-7.8-1.2-15.3-3.3-23.6-1.6
		c-9.1,1.9-18.7,1.2-27.7,3.3c-28.4,6.6-55.5,0.5-82.7-6.6c-1.3-0.3-2.7-0.6-3.7-1.4c-21.5-15.4-47.4-16.5-71.8-22.4
		c-12.2-3-24.7-5.2-36.2-7.6c-4.1-6.5-3.7-12-3-18.2c1.6-14.5,2.1-29.2,2.8-43.8C4216,2271.2,4215,2268,4214.5,2264.2z"/>
	<path onclick="modal(this.id);" id="14" class="st0" d="M3040.1,3130.1c11.5-13,72.3-60.8,89.4-70.8c3.8,3.1,8,6.2,11.8,9.6c8.1,7.4,17.2,8.6,27.9,6.7
		c31.9-5.7,31.9-5.4,53.8-29.5c4.9-5.4,10.1-10.7,14.7-16.3c8.5-10.2,7-23.4-3.6-31.2c-11.2-8.3-22.8-16-37-19.2
		c1.5-11.8,3.8-21.4,13.9-28.1c6-3.9,5.3-4.9,5.9-20.6c13.9-6.9,21.4-18.5,20.3-34c7.7-6.9,16-5,23.8-4.9
		c13.5,0.3,26.4-1.3,39.3-5.3c12.4-3.9,22.6-11.2,32.6-18.8c4.8-3.6,9.6-7.3,13.7-11.5c9.5-9.7,20.9-10.5,33.2-8.4
		c5.1,0.9,10.4,1.2,15.5,2.3c3.1,0.7,6.2,2,8.8,3.9c11.4,8.1,22.9,16,33.8,24.8c9.4,7.6,19.7,10.2,31.4,10.5
		c19.2,0.5,38.4,1.8,59.3,2.8c-1.4,4-2,7-3.5,9.5c-6.7,10.7-13.7,21.3-20.5,31.9c-3.9,6.1-7.8,12.3-11.6,18.3
		c3.2,6.6,6.9,12.1,8.7,18.3c1.6,5.6,1.3,11.9,1.8,17.8c1.1,13.2,1.5,26.6,3.7,39.7c2.4,14.9,0.6,29.1-4,43.2
		c-1.8,5.5-3.2,11.2-5,17.7c10.1,4.4,19.1,8.3,29.1,12.6c-0.6,4.7-1.1,9.1-1.6,13.6c-0.5,4.5-0.9,9.1-1.4,13.9
		c13,6.3,26.6,4.9,39.5,7.2c6.5,1.1,13.2,1.7,19.6,3.3c4.6,1.2,5.9,4.9,3.7,10.4c-8.1,2.2-16.9,4.6-26,7.1
		c0.3,5.6,0.5,10.1,0.8,14.9c-1.9,0.9-3.6,2.4-5.4,2.5c-13.3,0.5-26.6,0.6-40.3,0.9c-10.3,14.7-17.7,29.5-16.3,48
		c0.9,11.1,1.3,22.5-1.1,34.7c-4.8,0.6-9.2,1.6-13.6,1.6c-20.7,0.2-41.3-0.1-62,0.2c-8.6,0.1-17.3,1.1-25.9,2.1
		c-2.5,0.3-4.8,1.9-8.2,3.3c-1.4,7.6-3.4,15.3-4,23.2c-0.7,10.2-5.4,17.9-13.3,23.5c-6.5,4.6-13.2,9.6-20.6,12
		c-11.9,3.8-21.4,10.4-29.7,19.3c-1.3,1.4-3.4,2.1-5.8,3.5c-13.5-4.1-27.6-8-41.4-12.7c-26.4-9.2-52.6-18.9-78.9-28.3
		c-16.5-6-24.2-17.8-22.6-35.2c0.2-2,1.1-3.9,1.3-5.8c1.6-12.4-0.9-16.3-13.4-20.2c-17.1-5.5-34.3-10.7-51.4-16.3
		c-5.6-1.8-11-4-17.1-6.3c2.3-12,8-21.8,12.3-32.1c3.3-8,7.2-15.8,10.1-23.9c2.3-6.5-0.6-11.5-7.1-14.4c-8.1-3.6-16.8-5.3-25.4-3.8
		c-9.3,1.6-16.9-0.6-24.3-5.9C3052.7,3137.6,3046.9,3134.4,3040.1,3130.1z"/>
	<path onclick="modal(this.id);" id="11" class="st0" d="M3581.2,2072.9c-2.4-4.9-3.9-9.6-6.7-13.1c-2.8-3.4-6.6-7-10.6-8.3c-22.8-7.3-46-13.2-68.6-20.9
		c-19.4-6.6-35.2,0.8-50.8,10.3c-5.6,3.4-11,7.6-15.7,12.2c-11.3,11-24.9,17.3-40.6,22.6c-8.3-8.5-9.9-20.2-14.6-30.1
		c-4.8-10.2-9-20.7-13.3-31.2c-4.3-10.5-9-20.8-12.4-31.5c-3.3-10.5-8.5-20.8-7.3-33.9c25.2,2.8,49.4,5.2,73.6,8.3
		c48.1,6.1,96.2,12.5,144.3,18.7c12.5,1.6,25.2,2.4,37.6,4.7c9.3,1.7,18.2,2.4,27.6,0.1c8.6-2.1,27.7,5.7,36.1,13.8
		c11.4,11.1,22.5,22.6,34.1,34.3c4.9-0.9,9.5-1.5,13.8-2.7c12.8-3.6,25.9-6.6,38.2-11.5c14.6-5.7,26.4-3.1,38.6,6.5
		c13.5,10.7,28.4,19.8,42.9,29.4c3.8,2.5,8,4.2,12.3,6.3c4.9-5.5,8.7-10.9,13.6-14.9c5.1-4.1,11.3-6.9,17.1-10.3
		c9.7-5.7,19.3-11.5,29.3-17.4c13.9,8.3,25.1,18.8,37.2,27.9c10.6,8,21.1,16.3,31.3,24.8c7.6,6.3,14.8,7.6,23.5,2
		c11.2-7.1,23-13.4,35.2-20.5c17.1,6.4,33.4,15,50.6,25.2c-2.2,3.1-4.1,5.5-5.6,8c-6.9,11.5-12.2,23.3-11.4,37.4
		c1.2,20.8-2.4,41.1-10.4,60.5c-5.9,14.3-15.6,22.9-32,21.4c-10.6-1-21.1-2.1-31.7-3c-3.8-0.3-7.7,0-11.8,0c-6.4,13.3-8,27.3-9.6,41
		c-1.2,10.5,5.9,18.5,14.4,24.5c0.5,0.4,1.2,0.5,1.8,0.7c23.3,10.9,26.9,11.3,53.4,5.1c11.7-2.7,23.3-5.6,34.9-8.3
		c2.6-0.6,5.2-1.5,7.8-1.4c18.6,0.9,37.1,1.8,55.7,3.3c22.5,1.8,45,4.1,67.5,6.3c1.9,0.2,3.7,1,6.8,1.8c0.1,6.4,0.3,12.9,0.3,19.3
		c0.1,6.6,0,13.3,0,19.6c-6.4,5.5-15.7,3.7-19.7,13.1c-2.5,5.8-11.6,8.4-16.7,13.5c-6.6,6.7-13.4,10.9-23,8.1
		c-7.1-2.1-13,1.3-19.2,3.6c-18.7,6.9-37.4,13.9-56.2,20.7c-4.3,1.6-8.9,2.4-13.1,3.5c-17.3-11.5-20.8-30.8-29-48.1
		c-5.4-0.6-10.6-1.5-15.8-1.5c-14.7-0.2-29.3-0.2-44,0c-6.6,0.1-11-2.5-15.2-7.7c-10.2-13.1-21.1-25.7-32.3-39.1
		c-8.2,1.1-15.9,2.2-24.5,3.4c-2-13.8-9.7-24.6-16.2-36c-4.9-8.5-11.8-12-21.3-12c-10,0.1-20.1-0.8-28.7,5.9c-5.3,4.1-11,4.1-17,1.7
		c-1.2-0.5-2.4-1.2-3.7-1.6c-6.9-2-13.6-7.5-21-4.7c-11.1,4.3-22.1,9.4-28.9,20.2c-13.2,21-30.6,38.4-47.8,56.2
		c-11.9,12.4-21.6,26.9-33.5,42c-1.9,0.1-5.8,0.7-9.7,0.4c-3.3-0.3-6.4-1.5-10.2-2.4c-7.6-10.7-15.1-21.5-8.5-36.3
		c-23.6-11.7-49.7-12.8-72.7-23.8c0.4-24.2,4.2-46.7,17.8-66.8c8.2-12.1,15.2-25,20-38.9c3.1-9,8.2-16.8,15.8-22.7
		c8.4-6.6,10.2-15.3,8.8-25c-1.3-9.2-3-18.4-7.9-26.6c-2.1-3.4-4.2-6.8-5.9-10.4c-2.9-6.3-4.1-12.5,0.8-18.7
		c1.5-1.8,2.1-4.4,3.8-8.1C3615.2,2068.2,3599.1,2075.1,3581.2,2072.9z"/>
	<path onclick="modal(this.id);" id="8" class="st0" d="M4348,1891.9c-0.5,4.5-0.2,7.5-1.2,9.7c-1,2.1-3.6,5-5.3,4.8c-2.8-0.3-7.6-2.4-7.8-4.2
		c-0.9-7.1-0.8-14.5-0.2-21.6c0.1-1.5,3.8-3.7,5.9-3.7c2.1-0.1,5.4,1.7,6.1,3.4C4347.1,1884.5,4347.5,1889.2,4348,1891.9z"/>
	<path onclick="modal(this.id);" id="3" class="st0" d="M4295.3,1855c2.8-5.3,4.4-8.3,6.8-12.9c10.1,11.8,23.2,9.2,34.8,10.3c0.6,1.2,0.8,1.6,1,2
		c-0.6,0.2-1.2,0.7-1.8,0.7C4323.7,1855,4311.3,1855,4295.3,1855z"/>
	<path onclick="modal(this.id);" id="2" class="st0" d="M4310.9,1829.6c10.6,3.7,19.5,6.5,31.8,12c-11.2,3.7-18.1,3.5-24.9,1.9c-2.3-0.5-4.6-2.9-5.8-5
		C4310.9,1836.6,4311.3,1833.8,4310.9,1829.6z"/>
	<path onclick="modal(this.id);" id="5" class="st0" d="M4312,1861.7c0.3,4.9,0.5,8.6,0.8,13.8c-6,0-11.2,0.6-16.3-0.2c-4.1-0.6-4.1-4.5-3.4-9.4
		C4298.6,1864.7,4304.6,1863.4,4312,1861.7z"/>
	<path onclick="modal(this.id);" id="4" class="st0" d="M4321.3,1867.3c5.1-8,9.6-8.3,21.5-0.6C4334.6,1867.3,4328.4,1871.1,4321.3,1867.3z"/>
	<path onclick="modal(this.id);" id="7" class="st0" d="M4321,1902.4c0-6.9,0-13.7,0-22.8C4327,1895.8,4326.8,1895.9,4321,1902.4z"/>
</g>
</svg>
