<?xml version="1.0" encoding="utf-8"?>
<!-- Generator: Adobe Illustrator 19.0.0, SVG Export Plug-In . SVG Version: 6.00 Build 0)  -->
<svg version="1.1" id="Layer1" xmlns="http://www.w3.org/2000/svg" xmlns:xlink="http://www.w3.org/1999/xlink" x="0px" y="0px"
	 viewBox="0 0 15000 7200" style="enable-background:new 0 0 15000 7200;overflow: hidden; display: inline; width: inherit; min-width: inherit; max-width: inherit; height: inherit; min-height: inherit; max-height: inherit;" xml:space="preserve">
<style type="text/css">
	.st0{fill:#8FD4EB;stroke:#000000;stroke-width:3;}
    .st1{fill:#8FD4EB;stroke:#000000;stroke-width:0;}
</style>
<g>
	
	<path onclick="modal(this.id);" id="30" class="st0" d="M7465.5,670c-13.5,36.7-26.2,72.4-39.9,107.7c-4.2,10.9-3.3,18.7,5.4,26.6
		c9,8.2,18,15.7,29.8,19.3c4.4,1.3,8.5,3.9,12.9,5.3c9.7,3.3,18,8.5,24.8,16.2c8.5,9.6,18.6,17,29.2,24c19,12.5,35.9,26.9,48.5,46.6
		c6.7,10.4,17.2,18.4,26.3,27.3c4.4,4.3,10.2,5.7,16.3,6.5c10.5,1.4,20.9,3.8,31.3,5.6c13.4,2.2,24.8,9.5,30.5,20.7
		c8.2,16,21.9,24.4,35.4,33.9c6,4.2,11.9,8.4,18.4,13c5.2,33.8,7.6,67.9,10.7,102.6c-21.2,4.7-36.5,16.1-49.6,30.5
		c-9.3,10.2-19.7,14.4-33.5,13.9c-16.6-0.6-33.2-1-49.8,1.9c-9,1.6-18.8,1.4-27.9-0.3c-17.5-3.2-29.3,5.9-40.4,16.7
		c-3.7,3.6-5.6,9.6-11.5,10.2c-7.9,0.8-15.7,1.5-23.6-1.7c-25.2-10.4-50.6-20.4-76-30.4c-5.6-2.2-11.1-4.5-16.9-6
		c-12.5-3.3-21.3,5.6-17.5,17.7c1.8,5.7,4.3,11.2,7,16.5c16.4,32,32.9,63.9,49.3,95.9c24.3,47.4,48.4,95,72.6,142.4
		c11.1,21.7,14.3,23.3,41.5,20.7c3.3-0.3,6.5-2.3,9.7-2.1c24.7,1.8,49-2.9,73.6-3.7c26.5-0.8,53-3.2,79.5-4.9
		c3.3-0.2,6.7-0.5,10-0.2c10.7,0.9,18.7-3.7,26.9-10.4c14.5-11.8,30.6-21.1,50.6-19.5c11.2,0.9,22.6-1.3,33.8,2.3
		c3,1,6.7,0.9,9.9,0.4c18.4-2.8,36.8-5.3,54.9-9.1c17-3.5,32.6-11.2,48-19.1c8.6-4.4,21-19.8,21.7-29.6
		c1.5-21.8,15.6-36.3,28.4-51.2c10.4-12.1,22.8-22.3,34.4-33.3c1.8-1.7,4.2-2.8,7.4-4.8c1.5,4,3.5,6.9,3.7,9.9
		c1.1,22.6,1.9,45.2,2.8,67.7c0.5,10.8-2,21.1-5,31.4c-14.2,47.8-27.9,95.7-42.1,143.5c-9.1,30.6-18.2,61.2-28.7,91.4
		c-10.1,29.1-11.5,58.3-6.7,88.4c1.3,7.8,0.5,15.9,0.9,23.9c0.7,18.6-1.6,37.2,2.5,55.7c2,9.3-0.8,17.9-7.1,26
		c-25.9,32.9-50.9,66.4-76.8,99.3c-9.9,12.5-21.2,23.8-32,35.5c-12.6,13.7-26.2,26.6-37.6,41.2c-8.5,10.9-13.8,24.2-21.3,35.9
		c-13.9,21.4-21.4,45.7-32.3,68.5c-8.3,17.4-17,34.6-26,51.6c-13.1,24.7-26.7,49.1-40,73.7c-6,11-14.3,21-15.7,35
		c5.4,9.8,15.4,12.5,25.3,10.3c17.7-4,35.8-0.8,53.5-5.2c10.8-2.6,22.5-1.9,33.7-1.9c4.5,0,9,2,13.4,3.5
		c35.7,12.7,71.2,26.2,107.2,38.2c58.7,19.5,118.1,36.2,178.1,51.2c19.9,5,39.7,10.6,60.6,16.2c-0.3,8.8-0.2,17.3-1.1,25.6
		c-2.6,23.7-5.4,47.4-8.5,71.1c-1.5,11.8-5.1,23.5-5.4,35.2c-0.3,11.6-6.9,18.2-14.3,24.9c-6.9,6.2-13.8,12.4-21,18.3
		c-11.3,9.2-14.8,21.5-14.8,35.3c0,21.3,0.2,42.7-0.1,64c-0.1,7.2-1.8,14.5-2.1,21.7c-0.5,14-1.1,27.9-0.7,41.9
		c0.2,7.7,4.7,13.7,11.4,17.7c9.8,5.9,18.8,12.6,25.7,22.2c2.7,11.8,0.9,23.5-2,34.7c5.4,12.6,14.3,17.8,27.3,16.2
		c2-0.2,4,0.1,6-0.1c13.1-1,24.8-0.1,32.3,13.7c2.8,5.2,10.3,8.1,16,11.4c8.6,4.9,14.2,11.7,16.4,21.4c4.3,19.2,14.7,35.5,24.6,52
		c8.3,13.7,20.3,18.4,35.4,13.4c8.7-2.9,17-3.3,25,0.7c21.7,11,38.6,3,53.4-13c7.6-8.3,14.3-17.4,21.7-26c5.1-6,10.7-11.5,16.3-17.5
		c8.9,5,11.4,12.9,13.3,20.3c3.9,15.4,6.8,31.1,9.5,46.7c0.6,3.6-0.8,7.7-2.1,11.3c-2.3,6.2-5.5,12.1-7.8,18.3
		c-7.6,20.2-0.1,36.8,20.2,44.4c7.9,2.9,14.1,7.4,18,14.8c3.1,6,7.7,10.5,12.3,15.4c10.9,11.3,17.2,25.3,17.1,41.4
		c-0.1,9.9-1.8,19.8-2.1,29.7c-0.4,12.9,3,25.2,9.8,35.9c3.7,5.8,6.1,11.2,7.1,18c1.4,10.2,6.5,19.4,15,25
		c13.4,8.8,21.5,21.7,29,34.9c3.8,6.6,8.5,11.6,14.8,15.7c18.4,12,36.5,24.4,54.8,36.4c5.6,3.6,11.4,7.2,17.7,9.1
		c10.7,3.2,18.9,9.4,26.2,17.5c2.2,2.5,4.6,5,7.4,6.7c10.3,6,16.5,15,21.5,25.5c3.4,7.2,7.9,13.9,12.3,20.5
		c6.1,9.1,9.6,18.8,8.9,30.6c-4.8,0.3-9.4,0.7-14,0.9c-4.7,0.2-9.4-0.3-14,0.2c-13.2,1.7-23.9,6.5-29.1,20.4
		c-6.4,17-9.7,34.4-9.8,52.5c-0.1,11.3,5.8,18.8,16.2,22.7c3.7,1.4,7.5,2.9,11.4,3.6c9.4,1.7,17.6,6.1,25,11.8
		c10.3,7.9,20.9,13.4,34.7,9.3c7.4-2.2,14.7,1.2,21.1,4.4c16.7,8.3,33,17.2,49.3,26.3c8.3,4.7,13.4,12.7,19,20.2
		c5.6,7.4,11.5,14.6,17.7,21.5c2.6,2.9,5.9,5.7,9.5,7.1c21,8.1,39.5,21.8,61.1,28.4c10,3.1,18.2,8.1,24.6,16.1
		c11.4,14.3,27.2,18.2,44.1,19.4c9.9,0.7,19.8,0.5,29.7,2.7c13.9,3.1,27.8-1.1,41.4-3.5c17.9-3.2,35.6-3.2,53.4-0.4
		c6.5,1,13.2,1.4,19.9,1.2c17.3-0.5,34.5,0.5,51.6,3.4c5.8,1,11.7,2.7,17.2,4.9c16.7,6.7,33.2,13.2,51.2,16.1
		c11.9,1.9,22.6,7.7,30.1,17.9c3.8,5.1,9.1,5.8,14.3,3.8c9.3-3.5,18.5-7.5,27.5-11.9c20.4-9.9,40.5-20.3,60.9-30.2
		c8.9-4.3,18.2-8,28.4-12.4c2.2,3.7,4.7,6.7,6,10.1c3.2,8.7,5.7,17.8,8.9,26.5c4.1,11.1,10.6,19.6,23.3,22.3
		c5.6,1.2,10.6,5.3,16,7.9c13.8,6.6,18.5,22.6,6.3,36.8c-9,10.6-19.5,20-29.6,29.7c-3.3,3.2-6.9,6.4-10.9,8.7
		c-11.4,6.3-17,16.6-20.2,28.4c-3.2,11.5-6.6,23-8.3,34.8c-1.1,7.7,0.2,15.9,1.6,23.7c2,11.5,1.9,22.4-5.8,33.4
		c-2.8-0.8-6.6-0.7-8.6-2.6c-10.6-10-24.9-12.3-36.1-19c-11,4.2-21,7.6-30.7,11.9c-3.4,1.5-7,4.6-8.4,7.9
		c-2.8,6.6-5.1,13.8-5.7,20.9c-0.5,7.2-2.7,12.8-8.1,17.4c-1,0.9-1.8,2.1-2.9,2.8c-19.3,12.9-30.4,33.1-44.4,50.7
		c-14.1,17.7-27.1,36.2-37.2,56.6c-2.9,5.9-6.2,11.8-8.5,17.9c-4.8,12.5-11.4,23.9-19.6,34.5c-2,2.6-4.2,5.3-5.5,8.3
		c-8,18.5-22.4,28.9-43.4,33.1c-7.3-5.3-17.3-5.1-27.3-5c-7.3,0.1-14.7-0.1-22,0c-6.9,0.1-12.9-1.9-18.4-6.3
		c-13.9-11.1-30.8-14.9-48-16.7c-8.6-0.9-17.4-0.9-26,0c-18.1,1.7-32.8-5.8-44.9-17.5c-10.7-10.4-23.4-17.6-35.8-25.1
		c-6.4-3.9-15-4.3-22.1-6.1c-9.9-8.9-19-18.5-29.6-26.3c-24.7-18.2-46.7-28.2-75.6-24.2c-8.7,1.2-15.7-0.5-22.8-4.4
		c-7.5-4.2-14.9-8.7-22.4-12.9c-9.2-5.1-20.3-6.6-27.7-14.9c-16.7-3.2-26.5-16.8-38.9-26.2c-11.2-8.5-22.4-16.5-36.5-19.7
		c-6.3-1.4-12.1-5-17.9-7.5c-11.4,5.3-15.3,15.2-18.9,25.3c-2.4,6.8-3.5,15.2-8.1,19.8c-5.9,5.8-14.6,9.1-22.5,12.4
		c-5.9,2.5-12.3,5.9-19,1.7c-15.2,2.2-30-2.8-44.8-3.2c-27.2-0.6-54.5-3.4-81.6,1.9c-3,0.6-6.5-0.5-9.7-1.3
		c-7.1-1.8-14.2-3.6-21.1-6c-8.3-2.9-16.4-3.2-25.3-2.5c-7.3,0.5-15-5.1-22.7-6.4c-4.1-0.7-9.1,1.4-13.2,3.2
		c-3.5,1.6-6.4,4.6-10.3,7.4c-14.6-5.3-28.4-1.4-41.8,5.3c-2.9,1.5-5.8,3.3-8.1,5.6c-6.5,6.5-6.4,12.9,0.5,18.8
		c7.6,6.5,15.3,12,26.3,12.7c11.7,0.7,23.2,4.1,36.2,6.6c-5.8,19.7-15.9,32.7-34.2,39.6c-22.8,8.5-46.5,10.3-70.4,11.2
		c-14.6,0.5-27.4,4.9-38.4,14.4c-8.5,7.4-9.9,14.6-5.2,24.9c0.8,1.8,2.1,3.4,3.1,5.1c3.7,6.2,4.1,12.5,0.7,19
		c-2.1,4.1-4,8.4-5.8,12.7c-5.7,13.5-3.5,25.7,5.3,37.3c2.7,3.6,4.2,8,6.3,12.1c3,5.9,5.2,12.4,9.1,17.6
		c10.3,13.7,19.2,28.6,36.4,35.7c7.9,3.3,12.4,10.9,16.8,18.8c12.4,22.5,17.4,47.4,25.1,71.3c5.6,17.3,7.6,19.6,26.1,21.5
		c2,0.2,3.9,0.4,6.9,0.8c1.9,2.9,4.2,6,6.1,9.4c5.7,10.3,13.6,18.2,25.1,21.4c7.7,2.1,12.9,7.4,16.7,13.5
		c4.6,7.3,10.8,11.9,18.4,14.5c11.5,4,18.4,11.7,23.8,22.5c7.6,15.1,19.2,26.2,35.6,32.9c15.5,6.3,28.2,17.6,37.3,31.7
		c5.3,8.2,8.3,18,12.1,27.2c1,2.4,0.7,5.8,2.3,7.5c13.1,14,13.5,34.7,25.6,49.8c13-3.2,22.8,3.5,33,9.7c31.5,19.3,61.6,29.6,98,19.5
		c5.5-1.5,10.4-1.6,15.4,1c8.8,4.6,17.7,9.1,26.8,13.8c-1.3,20-2.1,38.7-9.3,57.3c-5.1,13.1-8.1,27.8-4.1,42.9
		c2.7,10.5-0.4,21.5-5.2,30.9c-5.2,10-6.5,20.2-5.9,30.9c0.8,14.3-2.7,27.5-9.1,40.2c-3,6.1-6.1,11.4-11.8,15.6
		c-6.9,5.1-12.8,11.6-19.1,17.5c-6.6,6.1-10.9,13.6-12.8,22.1c-2.3,10.3-5.5,20.3-6.8,31c-1.6,12.3-6.6,24.3-11.2,36.1
		c-7.9,20.2-3.4,38,10.3,53.5c4.2,4.7,7.6,8.7,7.7,15.3c0.1,6.3,3.6,11.3,8,15.7c2.4,2.3,4.8,4.6,7,7.1c10,11.3,11.5,17,9.7,35.2
		c-8.1,5-16.3,10.5-24.9,15.3c-8,4.5-17.3,4.4-25.3,1.7c-19.2-6.6-38.2-3.8-57.2-1c-5.8,0.8-11.7,3-17,5.6
		c-9.9,4.9-14.1,14-14.3,24.5c-0.1,3.5,2.2,7.5,4.3,10.6c4.6,6.5,9.8,12.6,15.2,19.5c-5.1,9.6-12.5,17-21.9,22
		c-7.6,4.1-15.7,7.3-23.7,10.3c-11.8,4.4-24,7.8-35.6,12.6c-7.8,3.2-15.5,3.5-23.5,2.5c-5.2-0.6-10.6-1.1-15.6-2.8
		c-15.1-5-28.8,0.5-42.3,5.7c-8.1,3.2-9.6,7.1-8.3,15.7c0.6,3.9,0.5,8.4,2.3,11.7c7.3,13.6,5.4,26.9-1.1,41.4
		c-16.1,5.8-33.3,10-51.4,10.4c-8.2,0.2-16.1,0.3-21.1,9.1c3.3,5.5,6.6,11.2,10.2,17.4c-12.1,9.7-18.8,24.3-32.6,32
		c-4,2.3-7.6,5.4-11.5,7.9c-15,9.9-30.5,12.9-46.7,2.6c-2.8-1.8-6-3-9.1-4.1c-11.1-3.9-15.2-2.8-22.7,6c-3.9,4.6-7.5,9.3-11.5,13.8
		c-3.8,4.2-4,4.1-16.9,7.4c-2.3-3.3-4.8-7.1-7.5-10.7c-5.9-8.1-10.1-9.2-18.5-4.4c-6.3,3.6-12.9,7.3-18.1,12.2
		c-19,18.3-41.4,22.6-66.4,17.9c-4.6-0.9-9.2-1.3-14.8-2.1c-2-2.7-4.2-5.9-6.7-8.9c-6.3-7.9-11.5-9.3-20.8-6.6
		c-8.9,2.7-17.9,4.8-26.8,7.5c-3.8,1.1-7.9,2.1-11,4.4c-5.2,3.8-10.9,4.8-17,4.6c-7-0.3-12.7,2.6-18.6,6.1
		c-9.1,5.4-18.6,10.5-28.6,14.2c-10.5,3.9-19.3,8.8-22.2,20.6c-0.3,1.2-1.5,2.1-2.8,3.8c-8.2,3.2-16.1,2.6-22.9-4.9
		c-11.9-13-27.3-11.9-42.7-9.6c-9,1.4-15.3,7.4-20.9,14.4c-4.5,5.7-9.5,11.1-14.4,16.5c-10.4,11.1-38.2,4.9-44.9-6
		c-2.3-3.7-3.1-8.7-3.3-13.2c-0.3-13.3,0.1-26.7,0-40c0-4.6,0.5-9.7-1.1-13.8c-1.3-3.2-5.1-6.9-8.3-7.5c-3.1-0.6-7.8,1.8-10.2,4.3
		c-2.4,2.7-3.3,7.1-4,10.9c-1.3,6.5-2.2,13-2.8,19.6c-1.4,15-9.6,25.6-21.1,34.5c-16.8,13.1-34.3,25-52.5,36.1
		c-18.1,11.1-36.3,22-55.2,31.6c-4.7,2.4-9.6,4.8-14.6,6.3c-11.3,3.3-20.9,2.4-31.3-5.9c-12.8-10.2-23.3-20.4-28.7-36.5
		c-3.3-9.8-10.5-18.4-16.7-27c-6.2-8.6-11.3-17.4-15.7-27.4c-7-16.1-20.5-27.9-37.6-33.1c-18.3-5.6-37-10.8-56.3-12
		c-7.7-0.5-14-3.1-19.3-8.9c-2.6-2.9-6.6-4.6-9.3-7.4c-14.4-15.1-31.3-20.7-52.2-16.9c-6.6,1.2-14.7-1.2-21-4.3
		c-8-3.9-15.1-3.6-23-0.9c-24,8.1-48,15.8-72,24c-16.1,5.5-29.5,15.1-39.6,29c-8.2,11.2-18.2,20.6-24.7,33.6
		c-7.7,15.3-8.8,30.3-6.1,46.4c1.3,7.9,2.9,15.7,3.8,23.6c0.4,3.8-0.5,7.8-0.7,11.2c-6.7,4-11.5,1.6-14.4-3.3
		c-3.7-6.2-6.6-13-9.2-19.8c-6.9-18-13-36.3-24.8-52c-1.8-2.5-3.1-6.1-3-9.1c0.5-15.2-1.7-30.4,2.1-45.7c2-8.1,0.4-17.2,0.4-26.3
		c-4.4-3.8-9-7.5-13.3-11.5c-7.9-7.3-11.9-15.7-8.2-26.8c1.2-3.7,1.2-7.8,1.5-11.8c0.5-7-1.8-13.1-6.5-18.3c-3.1-3.5-6.4-6.8-9.8-10
		c-5.4-5.1-9.4-10.8-12.1-17.9c-4.3-11.2-10.5-21.4-20.6-28.9c-6.7-5-9.7-12.4-9.7-20.9c0.1-27.2-15.9-42.2-39.3-51.4
		c-4.9-1.9-9.9-3.7-15.3-5.7c-1.8-24-11-45.1-24.6-64.4c-1.9-2.7-3.5-5.7-5.1-8.6c-5.8-10.8-12.6-20.3-25.8-23.1
		c-6.2-1.4-9.6-6.5-12.6-12c-2.8-5.2-5.7-10.8-9.8-14.9c-11.1-11.2-24-15.7-39.8-9.4c-8.5,3.4-17.6,5.3-27,8
		c-2.8-4.2-5.4-7.2-7-10.6c-4.5-9.4-11.5-16.4-20-21.8c-10.3-6.4-19-14.6-27.3-23.2c-15.5-16.1-35.2-26.2-54.5-36.4
		c-13.4-7.1-27.6-7.3-42.1,0c-23.5,11.8-48.5,12.4-74,7.8c-8.5-1.5-17.1-2.3-25.5-4.3c-14.9-3.5-29.6-7.4-44.3-11.6
		c-3-0.8-6.4-2.8-8.1-5.3c-3.6-5.3-7.6-8.4-14.1-9.9c-3.8-0.9-6.9-5.8-9.7-9.4c-3.5-4.5-7.5-7.4-13.4-7.3
		c-22.6,0.7-45.1-1.3-67.8,2.1c-10.4,1.5-17.2,5.7-22.9,13.5c-10.6,14.5-21.3,28.9-32,43.3c-2.3,3.2-4.7,6.3-7.6,10.1
		c-17.5-8.9-34.3-17.9-50.4-29.5c1.4-8,3.1-15.7,4.1-23.5c1.8-14.2-2.6-27.7-6-41.2c-4.5-17.4-9.9-34.5-15.1-51.7
		c-1.1-3.8-2.9-7.5-4.7-11c-5.8-11.9-10.5-23.9-10.7-37.7c-0.4-22.9-16.9-33.2-35-41.3c-6.6-2.9-13.9-4.2-20.9-6.4
		c-3.7-1.2-7.3-2.7-12.3-4.7c7.2-13.1,13.5-25.3,20.5-37.1c28.9-48.6,58.3-96.9,87-145.6c4.9-8.3,10.7-14.8,18.5-20.3
		c15.8-11.1,31-22.9,46.6-34.3c3.2-2.3,6.7-5.8,10.2-5.9c10.8-0.4,16.2-7.5,22.2-14.7c9.9-12,22.5-20.6,36.5-27.3
		c5.3-2.5,11.5-4,12.7-11.4c0.2-1.5,2.6-2.8,4.2-4c18.4-14.3,36.5-28.8,55.2-42.6c16.6-12.2,33.6-24,51-34.9
		c15.2-9.6,27.9-22.3,42.5-32.5c2-1.4,3.2-4,5-6.4c-3.7-7.8-9.9-13.1-15.9-18.1c-13-11.1-18.8-25.6-21.4-41.7
		c-2.4-15.1-5.6-29.9-10.3-44.5c-3.2-9.9-3.3-20.9-4.4-31.4c-0.8-7.3-0.6-14.6-1.3-21.9c-1.5-16.9-7.4-32.1-17-46.2
		c-4-5.9-6.6-13-8.5-20c-5.5-19.9-10.7-39.8-8.7-60.8c0.4-4,0.8-8.3-0.4-11.9c-3.8-11.4-1.6-22.1,2.6-34c18.7-4.2,38-8.5,57.3-13
		c7.7-1.8,15.4-3.9,23-6.1c5.1-1.5,7.4-5.2,7.7-10.5c-5.9-7.6-15.3-7.3-23.3-9.3c-22.5-5.7-45.3-10.4-68-15.3c-6.8-1.5-11.6-6-17-10
		c-12.4-9.2-23.8-18.9-29.4-34.1c-1.5-4.1-5.1-7.9-8.6-10.6c-21.2-16.1-31.8-38.8-39.5-63.3c-6-19-11.5-38.1-24.6-54
		c-3.3-4-5-9.4-6.7-14.3c-7.4-21.2-18.9-39.6-36.1-54.2c-14.4-12.2-22.3-27.5-26.1-45.8c-3.4-16.2-8.5-32-7.6-49
		c0.4-8.3,3.7-13.9,10-18.3c2.7-1.9,5.8-3.2,8.8-4.7c60-30.5,120.2-60.5,179.9-91.5c54.9-28.5,110.3-56.2,163.2-88.4
		c21.6-13.2,44.1-24.8,65.7-37.8c10.8-6.5,20.9-14.1,30.9-21.8c4.4-3.4,8.4-6.1,14.2-6.1c8.7,0,15.2-4.6,20.6-10.8
		c12.1-14.1,27.9-21.6,44.8-28.6c21.3-8.8,42.8-13.8,65.6-13.6c11.7,0.1,22.1-4.2,32.5-8.6c19.9-8.3,36.9-21.1,53.4-34.7
		c13.3-11,25.9-22.9,38.6-34.6c6.5-6,7.1-10.2,1.8-17.3c-12.3-16.5-25-32.7-37.3-49.2c-19.5-26.1-38.8-52.3-58.1-78.5
		c-22.4-30.6-44-61.7-63.3-94.4c-3.6-6.2-9.8-10.8-14.7-16.3c-1.7-1.9-3.1-4.2-5.3-7c8.7-14.3,5.1-29.4,2.6-44.5
		c-8.4-52.3-17.1-104.7-25.2-157c-2.1-13.7-2.2-27.8-4.2-41.5c-2.7-18.4-5.2-36.9-9.9-54.8c-4.8-18.1-7.5-36.4-9.9-54.8
		c-2.5-18.4,2-35.4,14.1-50.3c12.1-14.9,24.1-30.1,32.4-47.8c7.8-16.5,13-33.4,12.2-51.8c-0.4-9.3,0.4-18.7-0.1-28
		c-2-36,7.4-69.8,19.2-103.2c3.1-8.7,6.4-17.9,6.4-26.9c0.1-17,4.5-32.8,9.5-48.6c3.7-11.7,3.6-11.5-7.6-18.6
		c-5.6-3.5-12.1-7.1-15.3-12.3c-8.9-14.5-23.6-21.2-36.9-29.5c-14.1-8.8-28.8-16.2-44.4-22.5c-12.1-4.8-22.4-13.9-33.4-21.2
		c-2.7-1.8-4.8-4.7-7.6-6.5c-6.5-4.3-13.4-5.1-20.8-1.7c-16,7.3-31.1,3.8-45.9-4c-11.8-6.2-23.7-12.1-35.7-17.8
		c-5.4-2.6-11-4.8-16.6-6.5c-8.8-2.7-17.7-4.3-24.4-11.9c-3.6-4.1-8.3-3.2-12.7,0.1c-1,0.8-2.2,1.5-3,2.5
		c-8.2,10.1-13.5,21.8-27.3,27.7c-11.8,5.1-20.8,16.4-32.1,23.3c-7.7,4.7-17.4,6.2-26,9.5c-12.4,4.7-24.5,4.5-36.7-0.5
		c-4.3-1.7-8.8-3.1-13.4-3.8c-12.5-1.7-23.8,1.7-33.6,9.6c-7.3,5.9-15,10.8-24.1,13.8c-8.5,2.8-16.6,3.3-25.4,1.1
		c-13.5-3.4-27.2-6-42.8-9.5c-0.6-0.8-2.6-3.4-4.6-6c-4.8-6-5.5-12.1-4.9-20.1c1.2-18.2,4.7-35.4,12.6-51.9
		c2.3-4.7,3.2-10.1,4.5-15.3c4.9-19.4,11.9-37.9,21.4-55.7c10.7-20.1,16.9-41.9,20.2-64.4c1.1-7.6,2.5-13.8,7.9-19.6
		c12.6-13.7,24.4-28,36.6-42.1c1.3-1.5,2.9-2.8,3.9-4.5c10.7-18.4,8.4-24.4-11.2-33.8c-10,0.2-17.2-6.4-25.6-10.2
		c-20.7-9.3-29.6-28-36.8-47.4c-3.6-9.8-4.7-20.5-6.9-31.2c0.4-0.7,0.8-2.2,1.8-2.9c15.8-11.2,21.2-26.4,17.2-45.1
		c-1.2-5.7-0.4-10.6,2.7-15.2c7-10.5,14-21,21.3-31.2c6.9-9.7,14.2-19.2,21.5-28.7c9.4-12.3,19.9-23.2,35.1-28.4
		c1.3-0.4,2.6-0.9,3.6-1.7c15.5-11.3,31.6-21.6,49.2-29.4c4.4-2,7.3-7.4,10.9-11.2c18.7-19.9,25.6-44.3,27.6-70.8
		c1.7-22.5,4.4-44.9,6.6-67.3c0.7-7.3,1.7-14.5,1.8-21.8c0.2-7.4,0.5-14.5,4.1-21.3c1.5-2.8,2-6.4,2.2-9.6c1-20.6,2.5-41.2,2.5-61.7
		c0-13.8,2.8-26.2,9.2-38.3c12.5-23.5,24.3-47.4,37-70.8c11.6-21.4,28-39.1,46.5-54.3c13.6-11.1,23.8-25,35.5-37.6
		c10.4-11.2,20.4-22.6,32.6-32c19.6-15.2,34.3-34.8,48.4-55c14.5-20.7,30.1-40.6,45.2-60.7c2-2.6,4.5-4.9,6.8-7.3
		c4.1-4.4,8.9-5.2,14.5-3.2c7.5,2.6,15.2,5.1,22.9,7c11,2.7,22.1,3.9,33.6,3.6c13.3-0.4,26.7,0.3,40-0.2c10.6-0.5,19.7,2.6,28,8.6
		c8.1,5.8,16,11.9,24,17.9c6.9,5.2,13.6,6.1,22.3,3.4c31.1-9.7,62.7-17.8,93.7-27.6c20.9-6.6,41.2-14.9,61.8-22.4
		c18.7-6.8,33.8-18.3,44.9-34.9c7.1-10.7,17.6-18,26.9-26.4c11.9-10.6,24.6-20.3,35.9-31.5c10.8-10.7,20.2-22.9,30-34.5
		c8.2-9.7,16.4-19.7,28.9-23.7c11.7-3.7,18.7-11.7,24.7-21.8c23.5-39.4,47.4-78.5,71.2-117.6C7401.2,616.7,7444,649.1,7465.5,670z"
		/>
	<path onclick="modal(this.id);" id="32" class="st0" d="M8519.5,4567.7c-11-24.3-22.3-49-33.5-73.8c-2.5-5.6-5.7-10.3-11-13.8c-4.4-2.9-8.2-6.8-12-10.4
		c-6.7-6.4-12.8-12.4-23.1-14.2c-8.8-1.6-16.2-8.6-21.2-17c-4.4-7.4-9.2-14.6-14.5-21.4c-5.1-6.7-9.8-13.8-19.9-15
		c-4.5-0.5-9.6-5.2-12.4-9.3c-6.2-9.4-14.3-15.5-24.7-19c-8-2.7-13.8-7.8-17.2-15.6c-1-2.4-3.1-4.3-4.5-6.6
		c-3.3-5.6-7.6-9.1-14.5-8.8c-2.7,0.1-5.4,0.1-8-0.5c-4.8-1-8.7-3.4-10.2-8.4c-3.4-10.8-7.7-21.4-9.8-32.4
		c-3.8-19.3-15.1-35.5-20.6-54c-0.7-2.3-3.1-4.3-5.1-6c-4.1-3.4-8.1-7.2-12.8-9.5c-17.6-8.7-27.4-24.9-37.8-40
		c-5.8-8.5-9-18.9-14.1-28.1c-4.5-8.2-3.1-18.2-0.3-27.3c1-3.1,2.5-6.2,4.4-9c6.9-10.2,6.3-19.8-1.8-29.1c-1.7-1.9-2.4-4.7-3.9-7.7
		c6.2-14.9,19.3-19.1,33.5-20.6c15.2-1.6,30.6-1.2,45.6-3.5c21.8-3.2,42.7-9,57.9-27.3c7.8-9.4,11.8-20.4,17.2-30.6
		c-5.5-6.2-11.4-8.6-18.2-9.8c-10.5-1.7-20.8-3.9-31.3-5.4c-8.4-1.1-15.5-3.6-19.6-12.4c7.3-9.9,18.1-15.6,29-13
		c14.1,3.4,24.7,1.3,34-10c4.9,1.3,9.5,2.1,13.7,3.8c7.4,3.1,14.3,6,23,3.8c4.5-1.2,10.3,1.4,15.2,3.1c14,5,27.9,9.4,42.8,4.1
		c29.9,0.5,59.9-3.4,89.5,4.5c4.4,1.2,9.2,1,13.8,0.9c2.6,0,5.5-2.3,7.7-1.6c14.3,4.8,25.6-3.1,37.9-7.9c14-5.4,21.3-15.5,23.8-29.5
		c1.5-8.4,4.5-15.1,12.9-19.6c13.9,5.5,28.8,9.3,40.9,19.2c3.6,2.9,7.8,5.3,10.8,8.7c8.7,9.5,19,15.6,31,20.7
		c11.9,5.1,22.9,13,34.9,18.8c6,2.9,11.8,6.2,17.5,9.5c10,5.9,19.9,8.8,32.1,6.1c12.4-2.8,24.9,0.3,36.8,6.1
		c12.5,6.2,25.2,11.6,36.3,20.5c5.8,4.7,10.3,10.2,14.9,15.8c4.7,5.7,10.1,10.4,18.6,9.8c3.7-0.2,7.9,1.1,11.2,2.9
		c13.8,7.9,27.8,15.7,39.3,27.1c12.3,12.2,26.7,18.9,44.8,17.4c16.6-1.4,33.3-0.2,49.4,4.9c8.9,2.8,17.9,4.9,25,11.7
		c5.5,5.3,12.7,7.1,20.2,7.3c6,0.2,11.9,0,18.7,0c2.3,6,4.3,11.4,6.4,16.8c4.6,2.1,9.2,4.2,13.6,6.2c-0.9,8-6.5,11-10.7,15
		c-2.9,2.7-6.9,4.4-9.3,7.4c-5.2,6.8-7.6,13.6-0.5,21.4c5.5,6,10.6,12,19.3,12.8c5.6-2,7.5-7.2,10.2-11.7
		c10.4-17.2,10.4-17.1,30.2-22.2c21.1,10.3,23.7,13.4,31.7,37.3c-12.8,18.2-19.5,24.3-41.3,37c-16.6-9.1-35.3-13.6-53.5-19.4
		c-11.7-3.7-21.2-0.1-29.4,7.3c-5.8,5.3-10.8,11.7-15,18.4c-4.6,7.3-8,15.4-11.7,23.2c-1.4,3-2.7,6.1-3.3,9.3
		c-3.6,21.2,3.2,32.5,23.6,39.9c8.1,2.9,16,5,21.4,13.2c8,12.1,7.3,23.5,0.5,35.3c-3.7,6.4-7.8,11.2-16.4,12.9
		c-17,3.4-24.2,18.3-17.8,34.7c4.6,11.8,9,23.7,14.6,35c3.2,6.4,7.9,12.3,12.9,17.5c8.9,9.1,17.6,18.1,22.4,30.3
		c2.2,5.6,6.8,9.3,11.4,13.3c16.3,14.3,34,25.1,55.6,29.6c7.6,1.6,15,5.3,21.8,9.2c7.4,4.3,14,10.2,21.1,15
		c23.1,15.5,39.6,36.8,53.6,60.5c14,23.6,32.5,42.9,53.8,60.5c20.6,17,44.9,25.6,68.1,36.9c14.6,7.1,29.9,3.5,44.8,0.9
		c15.8-2.7,31.2-7.4,45.4-14.7c27.1-13.8,54.4-10.3,81.5-1.8c12.6,4,24.4,9.6,38.1,10.6c10.6,0.7,20.4,5.9,27.9,14
		c8.3,9,18.6,12.3,30.5,11.8c2-0.1,4,0.3,6,0c21.9-3.3,41.6,1.8,61.3,12c12.1,6.3,26.6,7.8,40.2,10.9c3,0.7,6.6-0.3,9.7-1.2
		c6.4-1.8,12.7-4.1,19-6.2c12.7-4.3,25.8-5.5,38.9-7.5c15.7-2.4,28.3,1.8,41.3,8.8c15.6,8.3,33.1,9.5,50.1,12
		c44,6.5,87.8,13.9,130.5,26.7c28.1,8.4,56.8,13.4,85.7,17.5c6.5,0.9,13.1,2,19.5,3.4c12.1,2.6,23.6,0.7,34.9-3.5
		c44.3-16.4,88-34.3,130.5-54.9c13.7-6.7,28.1-11.9,42.3-17.7c11.7-4.7,23-10.2,34.3-15.9c16.4-8.4,33.8-14.9,51.2-22.4
		c8.5,12.7,12.6,26.1,18,38.9c30,71.8,59.8,143.6,89.8,215.4c19.5,46.6,39.2,93.2,58.8,139.7c29.6,70.5,59.3,140.9,88.8,211.5
		c20.3,48.5,40.4,97,60.6,145.5c28.7,68.7,57.4,137.5,86,206.2c17.1,41.1,34.1,82.3,51.3,123.4c20.2,48.4,40.6,96.8,60.9,145.2
		c2.3,5.4,4.3,11,7,18c-4.1,0.9-7.1,2.2-9.9,1.9c-8.4-0.8-16.8-2.3-27.7-3.9c-10.9-10.9-24-23.3-36.3-36.4
		c-8.2-8.7-18-13.8-29.6-14.8c-9.6-0.8-18.1-4.1-26.5-8.2c-10.3-5.1-21.1-7.6-32.7-7.2c-15.3,0.5-30.7,0.1-46,0.1
		c-6.7,0-12.8-0.8-18.9-4.7c-14.1-9-30.1-14-45.8-19.5c-15.7-5.4-30.7-12.7-46.4-18.2c-21.9-7.6-43.9-15.4-66.4-21.1
		c-38.8-9.8-76-24.4-114.1-36.2c-7.7-2.4-12.3-7.1-15.5-14.3c-6.2-14-12.9-27.8-19.2-41.7c-13.2-29.1-26.3-58.2-39.5-87.2
		c-5.8-12.7-12.1-25.2-17.2-38.2c-3.1-7.9-4.7-16.5-6.4-24.9c-2.2-11.1-3.6-22.3-5.8-33.3c-1.9-9.3-4.9-18.1-15.4-20.8
		c-10.3,2.5-15.3,10.8-21.1,18c-10.5,12.9-21,25.7-30.7,39.2c-6,8.4-14,14-22.2,19.6c-16,10.8-31.7,22-48.2,32.2
		c-13.3,8.2-25.2,17.3-29.5,33.3c-4,0.5-7.3,1.3-10.5,1.1c-6.7-0.5-11.4,2.6-15.6,7.2c-9.8,10.8-19.3,21.9-29.7,32.3
		c-24.5,24.5-47.6,50.4-75.1,71.6c-7.9,6.1-16,11.9-23.2,18.7c-4.2,4-7.6,9.3-10.2,14.6c-5.3,10.7-13,18.6-23.8,23.1
		c-18.6,7.7-32.2,20.7-41,38.4c-16.9,4.4-16.9,4.4-34-0.8c-17.5,10.3-35.9,20.9-51.6,35.4c-5.8,5.3-10.9,11.8-15,18.5
		c-9.1,14.7-17.1,30.1-26,44.9c-12.8,21.2-28.1,40.5-47.5,56c-10.8,8.6-20.7,18.9-34.9,22.6c-4.4,5.7-9.9,10.9-12.9,17.3
		c-2.6,5.5-6.3,8.3-11.3,10.3c-7.4,2.9-14.9,5.6-22.4,8.5c-12.2,4.7-24.4,5.5-37.1,1.7c-20.2-6-40.7-5.8-60.8-0.1
		c-9.5,2.7-18.2,3.4-26.9-1.8c-7.8-4.7-15.7-5-24.8-3.1c-12.2,2.5-24.6,4.9-37.4,4.9c-15.4-0.1-30.4-2.6-45.3-5.6
		c-17.6-3.5-35.1-7.3-53.2-6.5c-2,0.1-4.2,0.5-6-0.2c-15.3-6-30-0.4-45,1.6c-12.5,1.7-25,3.3-37.6,4c-18.5,0.9-33.9,7.1-43,24
		c-6.6,12.2-11.9,25.1-18.4,38.8c0.1-0.1-1,1.4-2.1,1.4c-14.7-0.3-24.9,6-32.9,18.5c-9.5,15.1-21.2,28.9-30.9,44
		c-9.5,14.8-13.5,31.5-13.9,49.2c-0.6,21.2-2,42.4-3.1,63.7c-0.4,7.5-5,11.8-12.1,16c-1.8-2.6-4-4.9-5.1-7.6
		c-5.6-13.7-15-23.1-29.2-28.1c-9.5-3.4-17.4-9-23.5-17.6c-4.1-5.9-9.8-10.9-15.3-15.7c-5.6-5-11.6-7.8-20-6.3
		c-6.9,1.2-14.4-0.8-21.6-1.6c-2.6-0.3-5.1-1.6-7.7-2.1c-9.7-2-20.4-2.1-28.9-6.4c-8.7-4.4-11.8-15.6-16.6-24
		c-4.8-8.5-13.6-10-20.4-15.3c-0.2-10.3,4.2-18,11.2-24.7c5.3-5.1,10.7-10.1,15.6-15.5c8.1-8.8,14.9-18.5,18.2-30.1
		c4.5-15.8,12.9-29.4,26-39c14.2-10.4,20.9-23.4,20.8-40.7c0-5.9,1-11.9,2.5-17.6c2.6-10.3,5.7-20.4,8.9-30.5
		c1.4-4.3,3.2-8.6,5.7-12.3c8.6-12.5,13.5-25.9,12.4-41.2c-0.8-10.6-1.5-21.1-2.5-31.7c-0.9-9.7-5.3-19.4-0.5-29.2
		c-1.1-24.3-3.8-36.5-30.5-48.6c-4-13.1-10.3-25.5-19.6-36.6c0-3.9,0.1-7.9,0-11.9c-0.8-25.9-1.8-51.8-2.4-77.8
		c-0.1-5.8-2-10.4-6.3-14c-14.7-12.3-26.1-28.2-42.4-38.9c-4.4-2.9-8.1-6.9-12.3-10.1c-5.3-4-10.4-8.2-16.2-11.3
		c-14.1-7.6-27.7-15.8-39.7-26.6c-3.2-2.9-8-4.7-12.3-5.5c-13.7-2.4-27.5-4.4-41.3-5.8c-6.1-0.6-11.4-1.4-16.4-5.8
		c-6.8-6.2-14.7-8.4-23.9-3.8c-5.6,2.8-11.2,1.7-16.9-2.1c-22.3-14.7-47.4-24-71.3-35.7c-4.2-2-8.9-3.2-12.7-5.8
		c-15.6-10.8-32.9-17.3-51.7-21.3c-11.1-15.3-16-33.5-22.8-50.7c-1.7-4.3-0.5-10.8,1.6-15.3c5.8-12.2,6.6-23.9,2.1-36.6
		c-4.9-13.8-8.7-27.9-13.1-41.8c-0.8-2.5-1.4-5.6-3.2-7.2c-9.5-8.8-9.8-20-9-31.5c0.8-12.4-1.8-23.5-8.6-34.1
		c-5.8-9-2.4-16.7,7.7-20.1c4.3-1.4,9.1-1.2,13.7-1.9c6.5-1.1,13.2-1.7,19.5-3.7c14.6-4.7,23-17.5,19-32.4c-2.7-9.7,0.6-15,6.7-20.9
		c6.7-6.4,13.1-13.2,20.6-20.8c-3.4-3.3-5.9-6.2-8.8-8.5c-11.6-8.9-23.6-17.3-34.9-26.5c-8.7-7-17.9-14.1-24.4-22.9
		c-7.2-9.6-15.4-16.2-27.7-18.7c-0.3-14.5-4.5-28.3,4.2-41.2c0.2-11.3,4.9-21.9,6.2-32.8c2.1-17.4-2.3-33.2-18.9-43
		c-1.1-0.6-1.7-2-3.3-4.1c-0.2-2.2-0.7-5.5-0.8-8.7c0-7.1-2.6-12.5-8.5-17c-17.1-12.9-17.7-30.3-11.2-48.5
		c5.2-14.4,8.7-29,11.7-44.1c4.3-21.4,10.6-42.6,32.2-55c11.3-6.4,18-18.3,21.4-30.5c3.7-13.1,8.9-26.2,5.5-40.8
		c-1.2-5.2,1.3-11.9,3.8-17.1c6.4-13,8.5-26.7,6.9-40.7c-1.4-12.9,0.2-25.3,4.3-37.3c6.9-20.3,8.9-41.4,12.8-62.7
		c-13.4-9.7-28.2-15.8-42.6-22.3c-3.8-1.7-9.6-1.6-13.4,0.1c-22.7,9.9-44.5,5-65.7-3.8c-11.4-4.7-23.1-8.9-33.2-17.2
		C8541,4574.5,8530.5,4572.4,8519.5,4567.7z"/>
	<path onclick="modal(this.id);" id="35" class="st0" d="M6789.1,6275.8c-7.6,9.9-9.7,22-11.8,33.5c-3.3,17.8-14.2,29.6-27.1,40.4
		c-23.4,19.7-46.7,39.3-70.1,58.9c-22.4,18.7-45,37.2-67.3,56.1c-21.8,18.4-43.6,36.9-64.9,55.9c-6,5.3-11.6,7.6-19.7,6.9
		c-12.1-1-23.8-2-33.4-10.5c-2.4-2.1-5.6-3.8-8.8-4.7c-18-4.8-29.2-18.1-39.9-31.7c-6.8-8.6-14.3-15-24.9-18.8
		c-26.3-9.3-52.1-20-78.3-29.7c-6.8-2.5-14.1-3.9-21.3-4.8c-18.7-2.4-35.2-11.1-52.4-16.2c-1.8-5.5-3.2-9.9-4.8-14.2
		c-2.9-7.7-7.6-13.7-14.9-18.1c-9.1-5.5-17.4-12.2-26.1-18.4c-10.4-7.6-21.8-12.7-34.7-14c-13.2-1.3-26.5-2-39.6-3.9
		c-18.3-2.7-37-4.1-53.6-13.8c-8.3-4.8-17-7.2-26.7-6.6c-7.3,0.5-14.7,0.6-22,0c-14.4-1.3-24.3,5.3-31.8,16.6
		c-7,10.5-14.5,20.9-20.2,32c-6.5,12.6-15.8,19.9-29.2,24.9c-32.5,12.1-63.2,28.1-91.8,47.8c-13.6,9.3-28.3,14.4-44.4,16.1
		c-9.2,1-18.4,2.4-27.6,3.1c-3.2,0.2-7.2,0-9.6-1.7c-10.7-7.9-22.4-15.1-29.1-26.9c-5.1-8.9-11.7-16.1-18.7-23.1
		c-9.8-9.9-19.2-20.4-29.9-29.2c-8-6.6-17.8-11-27-16.6c-0.8-17.8,2.1-22.3,17.3-28.3c7.9-3.1,15.5-7.2,22.2-10.3
		c10.1-20.1-1.3-29.7-14.9-37.4c-0.8-2.2-1.7-3.4-1.7-4.6c-1.3-27.9-3-55.7-3.4-83.6c-0.2-10.9-3.8-19.6-10.5-27.2
		c-6.5-7.4-14.4-13.5-21.5-20.4c-9.1-8.8-19.4-16.4-25.5-27.8c-14.6-27.1-21.1-55.9-13.6-86.2c5.8-23.2,3.8-44.7-9.1-65
		c-1.8-2.8-3.8-6-4-9.1c-1.6-23.1-13.4-42.9-20.8-64.1c-6-16.9-12.7-33.6-18.7-50.5c-2.4-6.8-4.6-14-5.2-21.2
		c-0.7-7.6-2.2-14.4-7.2-20.2c-1.3-1.5-3.3-3.2-3.3-4.8c0-14.5-5.1-28.9-2.7-43.1c3-17.6,7.9-34.8,17.4-50.6
		c7.5-12.4,5.9-18.3-5.7-27.4c-11.5-9.1-24.5-15.5-39-18.5c-7.8-1.6-7.7-1.7-17.6-12.2c8.3-2.5,16.2-4.8,25-7.4
		c4.2-55.3,4.4-110.5,7.3-166.6c11.4-10.1,26.1-16.8,39.2-25.7c6-4.1,12.7-7.2,18.9-11.1c10.2-6.3,19.2-13.8,26.5-23.8
		c7.9-10.7,17.1-20.3,26-30.2c18.6-20.8,37.4-41.4,56.1-62.1c7.5-8.4,15-16.9,22.3-25.5c4.4-5.2,3.6-10.4-2.4-12.8
		c-14.7-5.9-28.8-14.1-44.6-13.2c-5.5-4.6-4.9-10.1-5-15.4c-0.3-15.9-0.6-31.8-0.8-48.8c2.5-3.7,7.5-2.5,11.9-2.5
		c25.3-0.1,50.7-0.4,76,0.1c9.8,0.2,18-2.4,26-7.9c25.8-17.7,51.8-35.1,78.1-52c8.4-5.4,12-11.7,11.1-21.4c-0.5-5.3,0.4-10.7-0.2-16
		c-2.1-19.3,6.8-33.1,22.1-45.2c2.3,2.9,4.4,5.1,6.1,7.7c1.8,2.8,2.9,6,4.6,8.9c9.6,16.1,17,17.8,31.6,6.7
		c3.6-2.8,6.4-6.6,10.1-10.6c8.8,2.7,16.2-1.9,23.8-6c11.1-6,21.9-13,33.6-17.2c11.7-4.2,24.4-6.7,36.8-7.5
		c13-0.9,24.6-5.3,36.5-9.5c1.9-0.7,3.6-1.7,5.5-2.4c16.1-5.9,24-4.5,34.7,9.7c6.7,8.9,14.3,13.5,24.9,13.9
		c11.3,0.5,20.3,5,27.7,13.7c4.7,5.5,9.7,11.1,17.6,12.4c1.1,0.2,2.5,1.5,2.8,2.5c3.1,12,11.4,7.8,18.8,6.8
		c5.1-8.6,3.5-17.6,2.8-25.9c-1.4-16.6,5.1-29,15.1-41.7c22.2-28.2,43.2-57.3,64.6-86.1c7.9-10.7,16-21.3,23.4-32.3
		c4.9-7.3,11.2-10.8,19.6-11.9c22.6-3,45.2-1.5,67.7-1.7c3.5,4,6.4,7.7,9.7,10.9c2.3,2.2,5.1,3.8,7.8,5.5c3.9,2.4,8.6,3.9,11.6,7.1
		c5.3,5.6,11.8,8.4,18.9,10.4c15.9,4.6,32,8,48.4,10.9c15.9,2.9,31.6,3.6,47.6,3.9c16.9,0.3,33.1-2,48-10.6c8-4.6,16.1-4.3,25-1.9
		c19.2,5.2,34.1,17.6,49.8,28.5c9.7,6.8,18,15.7,26.9,23.6c2,1.8,3.6,4.3,5.9,5.3c13,5.8,19.8,17.2,26.5,28.8c1,1.7,1.9,3.5,3.1,5.1
		c3.7,4.9,8.3,6.7,14,4.8c7.6-2.5,15.1-5.1,22.4-8.4c6.3-2.8,12.3-4,19.2-1.9c7.4,2.2,12.9,6.5,17.2,12.8c1.1,1.7,2.6,3.2,3.3,5
		c4.4,10.5,12.1,17.4,22.6,21.3c6.6,2.4,10.7,6.8,14.1,13c7.7,13.9,17.5,26.6,23.4,41.6c3.7,9.3,8,18.2,7.7,28.6
		c-0.2,7,4,10.8,10.4,12.8c5.1,1.6,10.1,3.4,15.1,5.3c11.7,4.5,19.6,13.7,25.9,23.8c3,4.7,3.6,11.4,4,17.2
		c0.7,12.5,3.7,22.8,14.7,30.9c6.1,4.4,10.7,12.1,13.6,19.2c3.4,8.4,8.2,15,14.4,21.2c3.8,3.7,7,8,10.4,12.1
		c4.5,5.5,6.3,11.6,4.3,18.6c-0.7,2.5-1.1,5.2-1.4,7.8c-1.1,11.2,0.9,21.2,10.1,28.8c2,1.7,3.6,4,5.7,5.6c7.3,5.6,8.1,13.3,7.1,21.6
		c-1.6,13.1-4.6,26.3-4.5,39.4c0.1,9.4,0.4,19.5,6.8,28.3c5.4,7.4,8.9,16.3,12.5,24.8c5.3,12.2,9.9,24.7,14.8,37
		c1,2.4,2.3,4.7,3.8,6.9c11.5,17,11.6,17,33.2,9.6c1.3-14.3,2.2-29-2.4-43c-7.3-22.3,1.1-40.3,13.9-57.4c5.2-6.9,11.8-12.8,16.4-20
		c6.9-10.8,16.6-17.1,28.2-21c29-9.8,58-19.3,87.8-29.2c10.6,7.8,22.5,9.4,35.7,8.1c16.4-1.6,31.9,1.5,42.9,15.7
		c2.4,3.1,5.7,5.6,8.4,8.5c5.3,5.6,11.8,7.7,19.4,8.9c17,2.6,33.9,6.1,50.7,9.7c14.2,3,25.7,10.8,34.9,21.9c1.7,2,4,4.3,4.2,6.6
		c0.7,12.3,8.8,20.7,15.8,29.3c12.7,15.8,19.6,34.7,28.4,52.3c6,4.4,11.9,8.6,17.7,13c5.3,4,6.9,9.7,6.1,16
		c-3,24.2-9.3,46.8-30.2,62.5c-8.3,6.3-12,15.9-14.5,25.7c-1.8,7-3.5,14.3-3.9,21.5c-0.2,4.3,1.1,9.3,3.3,13.1
		c4.3,7.4,9.2,14.6,14.7,21.2c5.8,7,8.4,15,10.1,23.5c1,5.2,1.8,10.4,3,15.6c4.9,20.7,4,27.1-7,46.9c-3,5.4-1.5,10.5,4.1,13.2
		c4.2,2.1,8.5,3.7,12.8,5.5c18.3,7.8,36.8,15.2,54.9,23.4c10.4,4.7,19.4,11.2,24.1,22.6c3.8,9.2,9.6,17.3,18.5,23
		c3.8,2.4,6.6,6.5,10.1,9.7c6.2,5.8,12.5,11.5,20,18.3c-0.7,3.6-1.7,8.7-2.7,13.5c-18.1,10.5-34.2,22.6-44.3,40.3
		c-9.7,16.8-24.3,20.4-40.9,17c-11.6-2.3-21.9-3.1-32.9,1.9c-3.7,1.7-9.1,0.8-13.4-0.2c-5.1-1.1-9.9-3.6-15.8-5.9
		c-2.9,1.4-7.2,2.3-9.8,4.9c-13.9,14.3-27.5,29-34,48.4c-3,9-6.7,17.3-14.1,23.7c-2.9,2.6-5,6.2-7.2,9.5
		c-12.2,18.4-25.9,35.4-46.2,47.4c-9.8-2.8-20.5-6.1-31.3-8.9c-5.7-1.5-11.6-2.9-17.5-3.2c-12.4-0.6-21.7-5.5-27-17.1
		c-0.5-1.1-1.8-1.8-3.8-3.6c-4.9,0.3-11-0.2-16.7,1c-36.4,7.7-72.6,15.8-108.9,23.5c-10.3,2.2-18.4,6.4-23.5,16.3
		c-3.9,7.6-8.8,14.8-17.1,18.9c-2.7,1.3-4.6,4.6-6.4,7.3c-14.2,22.6-26.3,46.5-35.1,71.6c-6.5,18.6-13.6,35.3-28.4,49
		c-7,6.5-11.9,16.3-15.1,25.6c-6.3,18.2-12.3,36.6-14,56c-1.7,20.7-7.4,40.3-15.2,59.5c-4.8,11.7-14.1,19.3-23.1,27
		c-2.6,2.2-7.5,2.3-11.3,2.5c-18,1.1-35,6.9-52.3,10.7c-11.1,2.4-18.2,12.9-24.7,22.3c-2.6,3.8-4,8.5-6.8,12.1
		c-1.8,2.4-5,4.7-7.9,5.1c-4.5,0.6-7.4-3-8.3-7.1c-2.2-9.7-5.2-19.4-5.5-29.2c-0.4-12.7-1-25.1-5.8-37.2c-1.7-4.3-2.7-9-3.1-13.6
		c-1.3-16.3-9.5-29.5-20.8-39.8c-12.5-11.5-21.3-25.2-29.6-39.5C6799.9,6278.9,6795.6,6276.4,6789.1,6275.8z"/>
	<path onclick="modal(this.id);" id="37" class="st0" d="M7276.7,6051.9c17.6,18.5,18.9,19.8,45,23.1c14.2,1.8,27,6.3,39.2,14.4c10-7.5,20.4-14.7,30-22.7
		c4.5-3.7,8-8.8,11.5-13.6c8.8-11.7,17.4-23.4,26-35.2c2.7-3.7,6-7.5,7.3-11.7c4.8-15.7,16-27.6,23.4-41.7c2.4-4.6,6.6-8.3,8.2-10.4
		c13.2-2.4,20.6,5.4,30.6,6.8c4.2-1.9,8.9-4.5,13.9-6.1c3.6-1.1,7.7-1.3,11.5-1.2c7.3,0.3,14.6,0.8,21.8,1.8
		c17.5,2.3,29-6.9,38.8-19.7c3.6-4.7,7.4-9.4,11.2-14c9.1-10.9,20.7-18.6,32.8-24.4c5.6-15.2,5.6-15.2,4.3-30.9
		c-15.4-5.8-26-18.8-37.5-30.5c-3.7-3.7-7.5-7.9-9.5-12.6c-8.2-18.6-23.3-28.1-41.3-35.2c-16.6-6.5-32.8-14.1-49.2-21.3
		c-1.1-0.5-1.7-1.9-2.8-3.3c1.6-6.1,3.2-12.5,4.9-18.9c0.6-2.6,1.7-5.2,1.7-7.7c-0.6-25.5-3.8-50.3-19.4-71.7
		c-0.8-1.1-1.8-2-2.6-3.1c-5.5-8.2-12-15.8-10.5-27c1.8-13.3,3.6-26.3,14.7-36c7.5-6.6,13.7-14.2,18.8-23
		c5.8-10,10.3-19.9,11.5-31.5c0.6-5.9,2.5-11.6,4.1-18.7c3.4-0.6,7.1-1.2,10.8-1.8c7.1-1.3,14.9-1.3,21.3-4.2
		c14.5-6.6,28.4-14.4,42.3-22.1c8.7-4.8,17.1-10.3,25.3-15.8c16-10.7,31.8-21.8,47.7-32.6c19.7-13.4,29-32.1,29.4-55.7
		c0-2.8-1.1-6.6,3.1-8.2c4.3,1.7,3,5.5,3.1,8.4c0.2,14,0.7,28,0,42c-0.6,11.9,5.7,18.9,14.9,23.7c10.2,5.3,21.4,7.6,32.8,5.9
		c8-1.2,15.4-4.3,20.6-11.1c3.2-4.2,7-8.1,9.6-12.7c6.5-11.1,16.5-14.6,28.6-14.2c4,0.1,7.9,0.4,12,0.6c3.1,2.9,6.2,5.4,8.9,8.4
		c6.9,7.6,15.7,9.4,25.5,8.8c8.7-0.5,15.9-3.7,18.6-12.5c2.4-8,7.7-11.3,15.1-14.2c9.9-3.8,19.4-8.9,28.5-14.3
		c5.9-3.6,11.7-5.7,18.7-5.8c4.5-0.1,9.2-1,13.5-2.4c15-4.9,30-10.2,45.5-15.5c2.3,3.2,4.5,5.7,6,8.5c2.8,5.1,7.4,7.7,12.7,8.9
		c15.7,3.5,31.7,4.7,47.6,2.8c9.9-1.2,19.4-4.2,27.5-10.8c6.2-5,12.6-9.9,19.1-14.4c3.7-2.6,8-4.4,12.7-6.9
		c3.1,4.4,5.6,8.2,8.4,11.7c5,6.3,10.3,8,17.6,5.3c9.5-3.6,17.6-9.3,23.7-17.6c3.1-4.2,6.6-8.1,10.1-12.4c12.6,5,24.2,9.5,36.6,14.4
		c0.5,3.4,1.1,6.6,1.5,9.8c1,9.3,6.5,13.8,15.4,15.7c6.4,1.4,13,3.1,18.9,5.8c8.6,3.9,13.3,10.8,12.2,20.8c-0.2,2-0.1,4.1-0.7,5.9
		c-6.1,21.1,3.9,37.5,15.5,53.5c4.9,6.8,12.3,10.8,19.9,12.7c15.2,3.8,20,14.9,20.7,28.2c0.9,17.8,6.2,33.1,16.9,47.9
		c9.2,12.7,15.1,27.8,11.9,45c-2,10.8,1.4,21.4,9,29.4c14.3,15,18.5,35,26.9,52.9c2.9,6.2,3.2,14.5,2,21.4
		c-1.8,10.5,0.8,19.7,4.5,29c3.9,9.9,7.7,19.7,11.7,29.6c1,2.4,2.2,4.7,3.4,7.1c4.8,9.3,9.7,18.7,13.8,26.6
		c-2.6,13.6-9.3,21.1-20.5,24.7c-6.6,2.1-10.9,6.8-15.4,12.1c-9,10.7-18.9,20.6-29,30.3c-14.1,13.5-27.9,27-29.4,47.7
		c-5.6,3.1-10.1,5.9-14.9,8.2c-14.5,7.1-27.1,16.6-38,28.4c-0.5,0.5-0.8,1.1-1.3,1.5c-4.7,4.4-10.1,4-13.3-1.2
		c-2.5-4-4.2-8.4-6.8-12.2c-7.8-11.4-16.1-12.6-26.7-4.1c-5.1,4.1-10.1,8.6-15.1,12.9c-1,0.9-1.8,2.1-2.9,2.7
		c-17.1,9.3-31.6,21.6-43.3,37.3c-2.2,2.9-6.3,5.1-10,5.9c-32.8,7.2-62.5,22.5-93.3,34.8c-24,9.6-48.6,18-70,25.9
		c-11.3-2-19.7-3.5-28-4.9c-2.6-0.5-5.4-0.3-7.8-1.4c-16-6.8-30.1-1.7-42.7,7.7c-5.1,3.9-10.7,5.1-16.2,7
		c-8.9,2.9-17.7,5.7-23.5,14.1c-1.4,2.1-3.8,3.9-6.2,4.9c-9.6,4.3-16.2,11.3-20.6,20.7c-3.2,6.8-9,9.9-16.4,8.7
		c-10.4-1.7-21-3.1-30.9-6.5c-11.9-4.1-23.2-9.9-34.5-15.5c-9.8-4.8-19.8-7.9-30.7-7.2c-11.4,0.7-22.5-1.1-33.5-4.3
		c-3.1-0.9-6.5-1.6-9.7-1.7c-14.1-0.5-24.4,6.2-28.8,19.7c-4.2,12.5-10,24.7-9.2,38.6c0.3,6-3.4,10.9-9.1,11.5
		c-9.8,1.1-17.1,6.9-25.1,11.8c-7.7-1.9-15.4-3.4-22.8-6c-3.5-1.2-6.7-4.1-9.1-7c-3.4-4-5.7-9-9-13.2c-8.3-10.4-21.1-13.6-34.1-9.2
		c-10.1,3.4-20.1,7.1-30.4,9.4c-12.8,2.9-21.9,9.3-25.9,22c-3,9.6-9.8,15.5-18,20.4c-4.5,2.7-8.9,5.9-12.5,9.6
		c-12.2,12.5-8,27.2-3.6,41.1c1.3,4,7.6,7.2,12.3,9.1c10.5,4.2,21.4,7.3,32.2,10.8c9.5,3.1,18.5,7.2,27.3,13.2
		c-2.4,8.3-6.7,14.2-13.8,18.9c-6,3.9-11.1,9.4-15.8,14.9c-7.5,8.9-8.8,19.2-3.7,29.8c3.9,7.9,6.9,15.4,4.5,24.8
		c-1.1,4.4,2,10.1,3.7,15c2.9,8,8.9,14.8,10,25.3c-5.2-0.2-10.3,0.9-13.8-0.9c-13.8-6.9-27.1-6.3-40,1.1c-5.2,2.9-9.8,2.7-15.2,1.6
		c-5.1-1-10.7-1.2-15.8-0.4c-11.5,1.9-21.3,14.7-15.9,27.1c2.7,6,5.7,11.9,9.1,18.9c-2,2.1-3.9,4.8-6.4,6.5c-5.9,4-9,9.7-10.8,16.2
		c-1.8,6.7-5.2,11.9-10.6,16.3c-8,6.6-11.3,16.2-14.3,25.9c-2.1,6.9-4.6,13.7-6.9,20.8c-4.4,1.8-7.9,3.6-11.6,4.6
		c-7.7,2.1-12.3,7.5-15.9,14.1c-3.2,5.9-6.2,11.5-2.9,18.8c1.1,2.5-0.3,6.4-1.1,9.5c-0.9,3.9-3.6,7.7-3.4,11.4
		c1,14.5-6.7,25.3-14.3,36.3c-2.2,3.3-4,7-5.4,10.7c-3.9,10.2-2.4,15.4,7.5,21.6c9.9,6.2,14.9,14.4,14.5,26.3
		c-0.4,10.7-0.4,21.3,0,32c0.4,8.6,1.7,17.1,2.5,25.6c1.2,12.7,1.5,25.2-3.8,37.3c-3.2,7.3-6.3,14.7-9.6,22
		c-3.8,8.5-10.4,13.9-19.4,15.6c-21.7,4-43.4,7.6-64.8-1.6c-11.5-5-23.8-4.5-35.4-2.5c-16.2,2.8-30.7,10.2-37.6,26.4
		c-3.6,8.5-9.3,14.1-16.7,19.1c-9.9,6.9-17.7,15.9-23.3,26.9c-5.4,10.6-11.3,21.1-16.9,31.6c-5.7,10.7-5,22.2-1.9,33
		c2.1,7.4,6.4,15,11.7,20.6c11,11.5,21,24.1,35.2,32.3c5.6,3.3,10.2,8.4,15.1,13c1.3,1.2,1.8,3.3,3.1,5.7c-5.1,3-10.5,1.7-16.5,2.7
		c-1.9-2.8-4.1-6-6.3-9.1c-3.9-5.4-7.6-10.9-11.8-16.1c-17.5-21.4-26.1-27.5-56.4-33.5c-22.9-4.6-42.3-15.4-60.9-28.5
		c-11-7.8-22.3-14.7-36.6-13.3c-8.1,0.8-13.9-3.4-19-9c-6.3-6.8-13.1-13.2-19.1-20.3c-8.7-10.2-19.5-13.3-32.3-10.9
		c-1.9,0.4-3.9,0-7.2,0c-5.4-15.1-18.1-23.5-32.7-28.5c-27.7-9.5-41.6-30.4-46.2-57.3c-2.4-14.1-8.3-25.2-17-35.2
		c-6.7-7.7-11.9-15.7-16.1-24.9c-5.5-12.1-12.2-23.5-24.2-30.8c-8.2-5-16.6-8.7-26.2-8.5c-10.3,0.2-19.9-1.7-28.9-6.5
		c-11.7-6.2-24.5-5.3-37.7-5.6c-4.7-8-7.4-17.1-17.8-20.3c-9.3-2.9-16.8-0.2-24.6,4c-10.3-6.8-15.9-16.8-22.3-25.8
		c-1.9-2.7-1.7-7.6-1-11.2c5.3-26.9-7.5-46-26.3-62.7c-10.9-3.7-16.6-12.7-22.6-21.6c-3.3-4.9-7.4-9.3-11.9-14.8
		c8.1-7.3,16.1-14.9,24.5-22.1c29.9-25.3,59.8-50.6,89.8-75.7c21.4-17.9,42.9-35.5,64.3-53.4c14.3-11.9,28.4-24,42.5-36.1
		c6.2-5.3,10.8-11.6,13-19.6c3.1-11.5,6.7-22.9,10.6-35.7c3.7,3.4,7.6,5.5,9.2,8.7c7.1,13.8,17.3,25,28.1,35.7
		c6.9,6.8,11.2,14.5,13,24.1c2,10.4,5.9,20.5,7.8,30.9c1.7,9.1,2.9,18.5,2.4,27.6c-0.6,11.8,3.1,22.3,7.3,32.8
		c2.7,6.6,7.6,12,14.8,11.5c7.1-0.4,15.2-2.3,17.3-10.9c2.3-9,8.9-14.8,14.4-21.2c4.1-4.7,10.4-9.6,16.2-10.4
		c17.1-2.3,33.2-9.3,50.6-9.3c8.8,0,14.9-5.7,20.5-11.2c5.6-5.5,10.9-12,14.4-19c9.6-19,16.5-39,17.9-60.6
		c1.5-23.5,7.9-46,17.6-67.2c4.9-10.6,13.1-19.9,21-28.8c7.2-8.1,14.7-15.5,14.4-27.3c9.1-23.6,18.4-47.2,31.8-68.7
		c5.5-8.8,10.7-17.7,19.9-24.3c7.2-5.1,11.3-14.5,18-23.9C7190.7,6070.4,7234,6061.1,7276.7,6051.9z"/>
	<path onclick="modal(this.id);" id="34" class="st0" d="M5228.8,5587.9c8.2,8.5,11.7,16.5,11.7,26.5c0,8.5,2,17.1,3.2,25.6c0.2,1.3,0.5,2.7,1.2,3.8
		c6.9,9.6,11.4,20.8,20.9,29.4c13.2-6.9,26-13.8,37.6-22.6c5.3-4,10.6-8,16.1-11.7c4.6-3.1,9.6-4.3,15.1-1.7
		c9.9,4.7,20.6,4.4,31.3,4.7c23.3,0.5,46.5,1.6,69.8,2.3c7.3,0.2,14.8,0.8,21.9-0.4c7-1.2,13.7-4.6,20.4-6.9
		c13.6,9.8,26.9,19.7,40.5,29c4.8,3.3,10.2,6.5,15.7,7.9c15.1,3.8,28,11.2,41.5,20.5c-1,5.3-0.6,11.1-3.1,15.3
		c-8.3,14-12,29.4-15.7,44.9c-1.1,4.5-3.1,8.7-3.5,10c1.5,12.2,2.7,21.3,3.9,30.4c0.6,4.6-0.2,10.2,2.2,13.5
		c7.5,10.2,8.2,21.8,10.7,33.5c2.9,13.5,9.4,26.2,14.4,39.2c8.4,21.7,17.2,43.3,24.9,65.2c2.8,8,2.1,17.2,4.8,25.2
		c2.5,7.4,9.3,13.5,10.8,20.9c3.1,14.6,8.1,29.9,1.7,44.7c-7.6,17.7-3.1,35.4-2.3,53.2c8.8,21.9,13.6,45.7,34.9,61
		c10.7,7.7,19.5,18.1,28.6,27.8c7,7.4,11.7,16.1,10.1,27c-0.3,2-0.1,4,0,6c0.9,23.9,1.9,47.8,2.6,71.7c0.2,6.8,3.2,11.3,8.6,14.7
		c5.7,3.6,11.2,7.4,11.9,15.8c-2.5,6.2-8.5,10.2-14.6,11.8c-18.5,4.7-27.8,16.7-30.8,36.1c-3.9-0.4-8,0.1-11.1-1.4
		c-4.1-1.9-7.8-5.1-11.1-8.3c-9.1-8.9-20-13.4-32.5-12.9c-24.5,1.2-46.9-7.2-69.8-14c-22.9-6.8-45.7-14.4-69.8-15.1
		c-6.7-0.2-11.3-2.6-14.8-8.2c-3.8-6.2-8.4-12-12.2-18.2c-16.3-26.5-46.4-31.8-71.5-22.1c-12.2,4.8-25.5,7-38.4,9.7
		c-8.3,1.7-16.8,2-26.1,3c-1.5-8.1-3.1-15.1-3.9-22.2c-4.3-36.2-8.3-72.4-12.5-108.6c-1.1-9.9-2-19.8-3.7-29.6
		c-2.1-12.5-6.9-17.2-19.8-18.4c-23.1-2.1-46.3-3.5-69.4-5.6c-18.4-1.7-36.9-3.8-55.2-6.3c-5.8-0.8-11.8-2.9-16.7-5.9
		c-26.1-16-51.8-32.5-77.6-48.9c-2.2-1.4-4.1-3.2-6.7-5.3c3.3-15.4,11.9-28.2,18.7-41.6c6.9-13.4,15-26.2,22.3-38.8
		c-1.2-2.2-1.5-3.7-2.5-4.4c-25-18.5-29.3-18.9-57.4-5.2c-4.8,2.3-9.6,4.7-14.3,7.1c-7.2,3.7-14.6,5.6-22.9,5.7
		c-17.3,0.3-34.5,1.6-51.7,2.9c-10.5,0.8-19.3-2.4-28-7.9c-45.2-28.1-90.6-55.8-135.9-83.6c-28.9-17.7-58-35.2-86.9-52.8
		c-38-23.2-76.1-46.4-113.8-69.3c-3.6-6-2.7-11.9-1.6-17.8c3.2-16.3,6.3-32.5,9.3-48.8c2-11,3.7-22.1,5.7-34
		c18.6-8.4,37.3-17.1,56.1-25.4c30.4-13.5,60.9-26.6,91.3-40.2c14-6.3,27-14.2,37.9-25.5c7.8-8.1,16.4-15.6,25.4-22.3
		c6.8-5.1,14.4-10.1,22.4-12.7c30.3-9.8,60.8-19.4,91.6-27.6c9.9-2.6,21-1.1,31.6-1c4.6,0.1,9.1,2.1,13.7,2
		c22-0.3,43.6,3.6,65.4,5.6c11.2,1,22.6,0.4,34,0.5c6,0.1,12,0.2,18,0.1c6.5-0.1,11.3,2.4,15.1,7.9c8.7,12.6,18,24.7,26.6,37.3
		c7.6,11.2,16.5,20.8,28,28c8,5,15.1,10.8,20.1,19c4.5,7.4,10.9,11.3,20,10.3c9.2-1.1,18.4-1.8,27.7-2.6
		C5221.9,5588.6,5225.1,5588.3,5228.8,5587.9z"/>
	<path onclick="modal(this.id);" id="36" class="st0" d="M9071.4,5858.3c4,2.1,7.3,4.4,11,5.6c20.9,6.5,20.7,18,22.9,37.2c-4.9,11.9-1.4,23.4,1,35.2
		c1.4,7,0.8,14.4,0.7,21.7c0,4-1.6,8-1.2,11.8c1.1,10.6-2.8,19.2-8.6,27.8c-3.3,4.8-4.8,10.8-6.8,16.3c-3.5,10-6.8,20.1-10.1,30.2
		c-1.9,5.7-2.7,11.3-1.7,17.6c1.9,12-2.3,22.1-11.4,30.4c-5.9,5.4-11.9,10.8-16.8,17.1c-8.1,10.4-16.1,20.7-19.5,34.3
		c-2.5,9.9-9.1,19.1-16.9,26.2c-20.1,18.3-21.3,19.5-31.5,46.8c-5.8,2.1-12.9,3.9-19.3,7.1c-8.2,4.1-15.8,2.8-22.6-1.8
		c-8.5-5.7-17.5-9.3-27.4-11.5c-6.5-1.4-13.4-3.9-16.4-10.3c-4.8-10.1-13.2-14.5-23-17.5c-1.2-0.4-2.2-1.4-3.3-2.2
		c-0.7-1.1-2-2.3-1.9-3.3c0.5-13.5-5.6-21.9-17.7-28.1c-8.6-4.4-16.4-11.2-21.3-20.4c-1.8-3.4-4.8-6.4-7.7-9.1
		c-8.1-7.6-19.4-7.1-26.3,1.4c-4.1,5.1-7.2,11.1-10.8,16.7c-1.8,2.7-3.6,5.4-5.4,8.3c-17.5-17-37.4-42.8-44.9-59.9
		c-3.4-7.8-5.2-16.4-7.1-24.8c-3.6-15.7-12-27.8-25.6-36.5c-6.1-3.9-11.4-9.1-17.3-13.3c-8.6-6.1-16.9-13.3-28.8-11.8
		c-5.1,0.6-8.8-2.4-12.1-5.9c-2.3-2.4-4.9-4.6-6.9-7.2c-10.7-14.3-21.3-28.8-32-43.2c-5.9-8-11.7-16.2-18.2-23.7
		c-7.1-8.2-15.7-14.4-27.6-13.4c-3.2,0.3-6.5,0-10.9,0c0-4.2,0.1-7.3,0-10.3c-0.4-15.2-7.6-23.1-22.7-24.8
		c-3.9-0.4-7.9-0.4-12.1-0.6c-3.8-21-20.1-28.7-36.3-36.7c-20.6-1-34.9-14.9-50.2-23.9c-5.6-10.4-10.8-19.6-15.6-29.1
		c-2.4-4.7-3.8-9.9-5.9-14.8c-2.8-6.7-5.6-13.4-8.7-20c-4.4-9.3-7.2-18.7-2.8-28.7c2.1-4.7,1.4-9-0.4-13.5
		c-8.5-21.6-14.9-44.1-30.9-62c-5.3-6-8.4-13.1-7.7-21.9c1.8-22.8-4.5-43.2-19.1-61.2c-4.6-5.6-7-12.6-7.7-20.2
		c-0.8-9.2-2.7-18.4-4.8-27.4c-2.7-11.9-9.7-20.5-21.7-23.9c-20-5.6-27.7-21.4-33.2-39c-0.9-3-0.7-6.5-0.5-9.8
		c0.2-2.6,1.4-5.1,2-7.7c5.2-23-7.1-32.1-23.6-40c-3.5-1.7-7.6-2.4-11.4-3.4c-11.3-2.7-11.3-2.7-10.6-17.6
		c30.1-11,53.1-32.4,74.1-58.1c-2.4-4.5-5-9.5-8.2-15.6c3.4-1.2,5.7-2.9,8-2.8c17.7,1.2,33.9-5.9,50.8-9c6.9-1.3,10.1-5.2,11.7-11.8
		c3.5-14.4,5.2-28.7-0.9-43c-2.2-5.1-2.2-10.3,0.6-15.9c14.7-8,30.7-7,46.3-4c13.6,2.7,25.9,2.2,38.8-3.6c12.1-5.4,25-8.8,37.7-12.8
		c14.3-4.5,26.8-11.7,36.8-22.8c10-11,10.1-18.6,0.4-29.8c-3-3.5-7.1-6.1-10.2-8.6c0-4.2-0.1-6.8,0-9.4c0.2-10.2,5.7-16.4,15.5-17.8
		c18.2-2.6,35.8-8.2,54.9-1.6c14.3,5,30.3,5,43.6-6.1c1.3-1.1,3.7-1,5.7-1.2c0.5-0.1,1.1,0.6,2.6,1.7c-0.1,10-10.9,17.5-8.3,29
		c2.1,9.5-2.3,20.1,4.8,29.9c1.7,0.5,4.2,1.8,6.7,1.9c9.5,0.2,15.2,5.2,21.3,12.4c12.4,14.7,26.3,28.2,42.3,39.4
		c6.5,4.5,12.6,9.5,20,15.1c-4.3,4-7.2,7.4-10.8,10c-9.4,6.7-14.3,15.3-13.5,27.2c0.4,6.6,0.1,13.2,0.1,19.2
		c-8.2,8.9-17.8,11-27.9,11.2c-7.4,0.2-14.5,0.6-21.2,4.3c-11.3,6.1-16.5,17.7-9.9,28.3c8.3,13.3,10.4,26.6,8.2,41.9
		c-0.9,5.9,1.7,13.7,5.5,18.4c6.6,8.2,9.3,17.6,12.4,27c3.3,10.1,6.1,20.4,8.2,30.8c2,9.8,2.5,19.8-1.9,29.4
		c-3.5,7.6-3.7,15.8-0.5,23.3c7.6,17.6,12,36.8,24.1,52.6c11.1,3.6,22.4,7.3,33.6,11.1c3.1,1.1,6.3,2.3,9.2,3.9
		c26.8,14.8,54.9,26.9,82.4,40.4c7.7,3.8,14.4,9.4,22.2,14.7c3.5-0.9,7.5-1.4,11-2.9c8.9-3.9,16.5-3.2,23.4,4.4
		c2,2.1,5.8,3.8,8.7,3.6c17.6-1.2,33.8,7.1,51.2,7.3c3.3,0,7.2,3.2,9.9,5.9c11,10.9,23.6,19.2,37.9,25.1c3.1,1.3,6.3,2.6,8.8,4.7
		c12.2,10.2,24.4,20.5,36.2,31.2c8.3,7.6,15.9,15.9,25.1,25.1c0.1,0.7,1.1,3.3,1,5.9c-1,27.3,2,54.5,3,81.7
		c0.2,6.8,0.5,13.8,5.3,18.7C9068.7,5837.2,9071,5847.3,9071.4,5858.3z"/>
	<path onclick="modal(this.id);" id="31" class="st0" d="M9117.1,4198.8c-5.4-5.8-8.4-9.1-11.2-12.1c1.4-3.6,1.7-5.9,3-7.2c4.7-4.6,9.7-8.9,14.7-13.4
		c3-2.7,6.2-5.1,8.8-8c3.2-3.7,3-9.2-0.1-12.8c-1.3-1.5-2.8-2.8-4.3-4.1c-3.7-3.1-12-4-8.6-10.9c2.6-5.5,8.2-0.2,12.5,0.2
		c1.3,0.1,2.8,0.7,3.9,0.3c15.5-5.3,32.3-8.1,41.1-24.8c3.7-7,9.1-13.1,13.1-19.9c7.3-12.6,15.2-25.1,20.8-38.4
		c5.5-12.9,11.4-25.5,19.3-36.9c12.5-18,25.7-35.4,38.7-53c2.3-3.2,5.4-6,7.1-9.5c3.1-6.2,8.1-9.9,13.8-13.7
		c11.9-7.8,21.3-17.6,21.5-33.6c0.1-6.4,3.1-12.7,4.9-19.2c4.9-1.8,9.2-3.4,13.4-5c6.7-2.6,12.9-8.6,20.5-5.4
		c10.2,4.2,22.3,5.5,29.1,17.7c-9.5,12.1-6.3,25.7-1.4,38.7c5.5,14.7,5.6,29.7,6.5,45c1.1,18.8-10.1,28.8-27.1,34.1
		c-4.4,1.4-9.1,1.8-13.7,2.6c-13.5,2.4-20.6,11.1-23,24c-0.7,3.9-1,7.9-1,11.9c0,9.6-3.5,16.8-12.7,20.5c-9.8,3.9-15,12.8-21.6,20.2
		c-4,4.4-7.9,9-11.6,13.6c-6.6,8.2-14.2,10.5-24.7,7c-14-4.7-27.6-0.5-40.4,5.6c-4.2,2-8,4.8-11.9,7.3c-18,11.8-21.1,19.2-16.6,40
		c0.7,3.1,2,6,3.4,10.3c-8.4,0.5-12.4-6-17.4-7.2C9141.9,4161.7,9129.4,4176.7,9117.1,4198.8z"/>
	<path onclick="modal(this.id);" id="3218" class="st0" d="M5062.1,5932.2c6.3,3.8,13,7.9,21,12.7c-16.9,22.2-25.3,48.3-40.5,72.2
		c-5.7-3.1-10.2-5.4-14.6-8c-10.2-6.1-19.7-13.4-31.9-15.9c-3.1-0.6-6.8-2.2-8.7-4.5c-8.2-10.1-19.7-15.5-30.1-22.6
		c-1.4-1-2.2-2.8-3.1-4c1.1-4.2,4.3-3.4,6.7-3.5c5.3-0.3,10.6-0.4,15.9-0.1c19,1,36.7-2.2,53.4-12.2
		C5039.9,5940.6,5050.8,5937.1,5062.1,5932.2z"/>
	<path onclick="modal(this.id);" id="17" class="st0" d="M5360.2,5512c-11.4-3.1-20.2-5.7-29.1-7.8c-3.8-0.9-8.1-1.5-10.9,2.3c-2.9,4-4.2,8-0.2,12.5
		c1.3,1.5,1.9,5.7,0.8,6.8c-2,2.1-6,4.6-8.2,3.9c-13.1-4.1-27.1-6.1-40.1-14.6c1.8-7.5,3.6-15,5.5-22.9c-6.1-7.9-17.2-6.2-25.4-13.1
		c-2.2-12.2,4.5-22.8,9.5-35.3c12.7,6,24.2,10,31,23.4c7,13.8,20.3,20.2,37.4,17.8c3-4.4,6.2-9.3,9.5-14.2c1.3-0.6,2.4-1.7,3.6-1.8
		c17.1-1.3,17.1-1.3,30.5-13.2c3.6,0.3,4.6,3.1,3.8,5.6C5372.4,5477.6,5366.6,5493.7,5360.2,5512z"/>
	<path onclick="modal(this.id);" id="28" class="st0" d="M5328.9,5536.3c4.4,2.8,8.7,5.5,13.3,8.4c-0.2,1.9,0,4-0.7,5.7c-3.6,9.2-6.7,18.9-18.4,21.3
		c-2.2,0.5-5.2,2.8-5.8,4.8c-3.3,11.8-14.4,16.9-20.7,25.9c-9.6,0.2-16.9-4.9-25-7.7c-7.5-2.6-14.9-5.2-23.6-8.3
		c3.8-21,11.5-39.7,21.4-59.2c14.5,4.2,29.1,8,43.4,12.8C5319.5,5542.5,5324.4,5541.8,5328.9,5536.3z"/>
	<path onclick="modal(this.id);" id="33" class="st0" d="M6531.2,3934.6c-24.5,5.7-49,11.4-73.2,17c-7.9,13.7-7.3,27.5-6,41.5c0.8,7.9,2.7,15.8,2.4,23.6
		c-0.8,20.3,4.9,39.5,9.5,58.8c1.2,5,3.9,10,7,14.3c14.5,19.7,17.9,42.6,18.8,66c0.5,14.1,1.3,27.7,7.3,40.9
		c2.7,5.9,2.8,12.9,4.4,19.3c3.7,14.8,7.1,29.8,11.6,44.4c1.5,4.8,5.7,8.7,8.9,12.9c4.3,5.6,11.3,9.2,14,17.8
		c-5,3.3-9.9,6.5-14.7,9.8c-39.1,27.6-78.3,55.1-117.1,83c-6.8,4.9-14,9.2-18.7,17.4c-4.1,7.2-11.9,12.4-21.8,11.4
		c-5.7-0.6-10.6,1.9-13.8,6.6c-16.8,25-42.9,39.5-65.4,57.9c-12.9,10.5-28.4,18.4-39.1,30.6c-11.6,13.3-19.2,30.2-28.3,45.7
		c-14.6,24.6-28.9,49.3-43.5,74c-13.5,22.9-27.3,45.6-40.8,68.6c-2.6,4.5-4.3,9.5-6.8,15.4c3.9,2.3,6.9,4.9,10.4,6.1
		c10.1,3.3,20.4,5.9,30.6,9c19.1,5.7,29.2,18.1,29.1,37.5c0,11.1,1.6,20.9,9.4,29.5c3.4,3.7,5.2,9.3,6.6,14.4
		c6.8,24.3,12.9,48.7,20,72.9c3,10.1,3.3,19.5-0.3,29.2c-0.9,2.5-0.8,5.3-1.8,7.8c-2.7,6.8,0.3,11.8,5.2,15.7
		c3.6,2.9,7.8,5,11.8,7.3c11.4,6.7,23.3,12.5,33.2,21.4c0.1,6.5-4.2,10.3-7.2,14.3c-10.7,14.4-21.7,28.6-33,42.5
		c-13,15.9-21.6,33.4-20.4,54.5c-11.2,4.3-19.4,0.8-24.8-7.5c-7.3-11.2-17.5-16.6-30-16.4c-9.2,0.1-15.3-4-20.4-10.4
		c-6.8-8.7-15.5-14.4-26.8-18.4c-6.8,2.1-14.6,3.8-21.8,6.9c-14.8,6.4-30,10.8-46.1,11.3c-22.8,0.7-41.7,12.7-61.7,21.4
		c-4.8,2.1-8.7,6.4-13.6,7.7c-4.1,1.1-8.9-0.6-13.3-1c-6.9,6.7-10.3,16.7-21.6,18.1c-11.5-6.7-10.4-24.7-24.9-29.6
		c-6.1,0.4-11.3,3.2-14.9,8.3c-5,7-9.6,14.3-14.3,21.6c-6.1,9.5-7.3,19.8-4.2,30.6c0.5,1.9,1.3,3.8,1.5,5.8c0.7,7-0.3,13-7,17.3
		c-9,5.7-17.4,12.3-26.2,18.2c-14.3,9.7-29,18.9-43.1,29c-9,6.5-18.2,9.6-29.5,9.6c-15.2-0.1-30.4,2.2-45.7,2.8
		c-14.6,0.6-29.3,0.2-44,0.4c-1.9,0-3.8,0.9-6.1,1.6c-5.5,6.9-3.4,15.2-3.2,22.9c0.3,14.6,1.4,29.2,2.3,43.8c0.3,4.5,1.2,9,1.9,14.3
		c16.1,2.5,32.4,2.3,45.9,12.4c2.2,5.2-1.2,8.8-4.2,12.2c-18.6,20.8-37.5,41.3-56,62.2c-10.1,11.4-19.6,23.4-29.8,34.8
		c-11.9,13.4-24.5,26.1-40.4,35.3c-18.4,10.6-36.1,22.4-53.9,33.6c-1.4,26.5-2.9,52.4-4.1,78.2c-0.4,8.6,0.3,17.3-0.1,26
		c-1,19.8-2.4,39.7-3.7,59.6c-8.8,5.1-17.9,5.9-27.2,6c-7.9,0.1-13.9-1.8-18.8-8.7c-4.8-6.7-13-9.2-19.1-4.7
		c-11.7,8.6-23.5,6.1-36.3,4.7c-13.8-1.5-28-0.5-42-0.6c-9.3,0-18.7,0.3-28-0.1c-7.9-0.4-15.7-1.6-22.6-2.4c-4-6.2-0.7-9.9,2.9-10.5
		c11-2,17.2-9.1,22.8-17.7c2.4-3.7,5.9-7.4,9.8-9.5c12.8-7,26-13.2,39.1-19.8c3.6-1.8,8-2.9,10.4-5.7c8.8-10,20.7-14.1,32.5-18.4
		c1.9-0.7,3.8-1.2,5.6-2.1c3.5-1.8,4.7-7,2.2-10.3c-1.6-2.1-3.4-4.1-5.3-5.9c-11.1-10.6-21-22.1-27.7-35.3c-12-0.2-12-0.2-21.3-10.3
		c1.8-12.2,3.7-25.2,5.8-39.3c-11.6-2.5-22.4-10.4-35.3-2.3c-2.8,1.8-7.6,0.3-11.7,0.3c-8.6,14.9-21.9,18.9-37.4,16.1
		c-3.4,5.7-6.1,10.2-8.4,14.1c-8.1,2.3-13.6-0.9-18.9-5.4c-6.7-5.9,2.7-12.6-1.7-20.1c-7.2-1.5-15.7-2.5-23.6-5.2
		c-7.3-2.6-14-7.1-21.5-11.1c-13.1,15.2-15,33.1-19.5,49.5c6,10.4,18.4,9,26.1,16.4c-4.7,27.1-17.9,51.1-25.9,77.6
		c-15.1,1.7-28.5,7.7-43.3,7.9c-8,0.1-14.5-1.7-19-8.5c-6-9.1-14.8-15.3-23.6-20.9c-7.5-4.8-13.6-10.1-18.7-17.4
		c-11.7-16.9-24.4-33.2-36.1-50.1c-4.9-7.1-10.8-9.6-18.7-8.2c-28,4.8-55.6-0.3-83.3-2.3c-23.8-1.7-47.5-6.4-71.5-4.1
		c-8.5,0.8-16.8,3.4-25.1,5.8c-26.2,7.6-52.2,15.7-78.4,23.3c-9.3,2.7-16.4,7.7-23.4,14.3c-13.5,12.7-27.9,24.6-42.4,36.3
		c-5.1,4.1-11.5,6.7-17.5,9.5c-43.1,19.3-86.3,38.4-129.5,57.4c-6,2.6-12.3,4.4-19,6.7c-3.6-5.9-7-10.8-9.7-16
		c-13.1-24.7-28.5-48.2-37.9-74.7c-9.7-27.5-18.8-55.3-28.5-83.8c1.6-5.6,7.8-7.7,12.6-10.7c8.3-5,10-12,8.3-20.5
		c-0.9-4.5-2.7-8.9-4.3-13.3c-16.3-43.6-32.7-87.2-49.1-130.7c-2.3-6.2-5.2-12.3-7.2-18.6c-2-6.2-5.9-10.8-11.6-12.9
		c-9.4-3.6-14.7-10.8-19.8-18.8c-4.6-7.3-9.9-14.1-15.1-21c-10.3-13.5-18.4-27.6-15.4-45.7c1-5.8,0.2-12,0.2-18
		c-0.1-14.1-0.1-14.1-7.7-29.2c2.4-7.5,5.1-15.6,7.7-23.7c1-3.1,2-6.4,2.4-9.6c0.9-9-2.1-13.9-10.7-16.6c-4.4-1.4-9.5-3.2-13.6-2.1
		c-25.9,7.1-46.8-4.1-67.3-17.3c-3.4-2.2-6.6-4.5-10.1-6.4c-8.1-4.5-16.3-8.5-25.9-9.8c-14.4-2-28.9-4.6-42.9-8.6
		c-23.9-6.9-49.2-11.1-67.6-30.9c-7.6-8.2-18.1-12.9-29.1-16.7c-15.5-5.4-31-11.5-44.5-21.4c-2.1-1.6-4.6-2.9-7.2-3.5
		c-8.3-1.9-13.3-7.5-18.7-13.8c-7.3-8.5-16.9-14.9-24.9-22.8c-13.2-12.9-13.4-19.1-2.3-34.4c1.2-1.6,2.9-2.9,3.7-4.7
		c6.4-15.1,18.7-17.4,33-15.6c7.9,1,15.8,2.1,23.8,2.5c12.4,0.6,23.7-2.5,33.2-11.1c3.4-3.1,7.8-5.2,11.1-8.5
		c7.4-7.3,16.4-11.7,26.2-13.8c10.1-2.2,18.5-6.8,26.3-13.4c6.1-5.1,12.9-9.4,18.8-14.8c8.9-8,18.8-12.8,30.8-11.2
		c13.2,1.8,23.2-3.9,32.4-12.2c1.5-1.3,3.5-2.4,4.3-4c10-19.5,21.6-38.2,21.9-61.3c0.2-20.2-10.4-33.9-26-44
		c-13.5-8.7-28.9-13.5-44.6-16.6c-3.9-0.8-7.7-1.8-11-2.6c-5.5-7.1-3.5-14.8-3.4-21.8c0.2-18.1-2.7-35.7-5.4-53.4
		c-0.4-2.6-0.5-5.4-1.3-7.9c-6-18.4-17.7-25.8-36.7-22.1c-7.2,1.4-14.1,3.5-22.6,1.8c-48.5-109.6-97.2-219.6-146.2-330.4
		c6.6-5.4,13.1-9.3,21.5-9.1c16.1,0.4,29.8-6.4,42.5-15.1c6.2-4.3,12-8.1,19.5-9.2c3.2-0.5,6.4-1.9,9.5-3.1
		c20.1-7.7,25.5-15.7,25.7-37.4c0.1-6.7-0.3-13.4,0.6-20c2.1-14.5,9.2-20.2,24.2-20.9c9.9-0.4,19.9-1.3,29.8-2.1
		c13.9-1.1,25.1-7.7,35.6-16.4c13.5-11.3,29.2-17.9,47-19.4c5.3-0.4,10.8-0.4,15.7-2.1c19.7-6.9,39.9-9.5,60.6-10.1
		c9.2-0.3,18.6-1.5,27.5-4c6.2-1.7,12.6-5.2,17.1-9.7c11.3-11.4,21.3-24,20.2-41.8c-0.2-3.9,1.4-7.8,1.5-11.8
		c0.2-7.9,1.6-16.2-0.3-23.6c-9.6-38.1-0.7-73.9,12.7-109.1c2.3-6,6.8-11.3,11.1-16.2c1.9-2.1,6-3.4,8.9-3.1
		c13.2,1.2,26.2,3.4,39.4,4.7c18.9,1.8,36.2,8.8,53.4,15.8c9.2,3.8,18.1,7.9,28.1,9.7c5.8,1.1,11.7,3,17,5.7c4,2,7.8,5.1,10.4,8.6
		c13.5,18.4,31.8,27.3,54.3,28.1c11.9,0.4,23.9-1.3,35.1,5c5.7,3.2,12,0.9,16.9-2.7c4.8-3.5,9.2-7.7,13.2-12.1
		c10.3-11.2,23.3-17.3,37.9-20.7c6-1.4,11.7-2.5,17.6-0.3c10.6,4,19.6-0.8,28.5-5.4c5.4-2.8,9-7.6,10.7-13.8
		c3.1-10.9,7.1-21.5,9.8-32.4c2.8-11.2,2.3-22.7-2.6-33.3c-4.5-9.6-10-18.7-15.2-28c-1.9-3.5-5.2-6.6-5.8-10.3
		c-1.9-11.1-2.9-22.3-4.1-33.5c-0.8-7.4,3.4-13.2,8-17.6c10.4-9.9,14.5-22.2,15.4-35.7c1.5-22,13.4-38.3,28.1-53.2
		c5.1-5.2,11-9.8,15.7-15.4c9.4-11.4,7.4-22.3-5.2-30.1c-3.9-2.5-8.2-4.5-12.5-6.3c-7.5-3.3-14-8.2-18.4-14.9
		c-4.2-6.4-9.9-10.6-15.6-15.1c-3.8-3-7.7-4.5-12.4-5.5c-7.1-1.5-14.3-3.6-20.6-7.1c-14.2-7.8-29.7-11.4-44.8-16.4
		c-8.8-2.9-17.6-6.2-25.8-10.4c-13.6-7-26.7-14.9-40-22.4c-11.8-6.6-14.3-12.9-7.3-24.2c8.7-14,21-24.4,37.3-28.1
		c9.6-2.1,19.8-2.3,29.7-2.6c17.8-0.6,19.7-1.9,26.1-18.5c10-25.6,9.9-29-8.2-45.4c-12-10.8-11.6-21.4-2-35.9
		c2.9-4.3,7.2-7.7,10.9-11.4c7.9-8,15.2-16.2,18.7-27.5c5.3-17.1,11.2-33.8,14.9-51.5c3.3-15.4,10.2-30.3,17.2-44.5
		c3.4-6.8,10.6-11.8,16.5-17.1c9.9-8.8,20.4-17,30.3-25.8c7.6-6.7,12.6-15.3,16-24.9c4.4-12.5,10.1-24.7,13.9-37.4
		c5.2-17.1,9.9-34.5,13.3-52c3.3-17.3-10.3-31-28.1-29.7c-8.6,0.6-17.2,1.5-25.8,2.4c-8.2,0.9-15,5-21.5,9.9
		c-3.7,2.8-7.5,5.6-10.8,8.8c-6.7,6.6-14.5,8.3-23.6,8c-9.2-0.4-16.9-3.8-23.5-9.6c-3.3-2.9-6.4-7.2-7.5-11.4
		c-3.8-15.3-14.3-23.3-28.2-28.4c-8.1-2.9-16-6.3-25.2-9.9c-1.6-6-4.3-12.2-4.7-18.6c-1.6-21.8-2.2-43.7-3.5-65.6
		c-0.7-11.3-1.7-22.5-3-33.7c-0.7-6.2-4-11.3-8.7-15.3c-5-4.3-9.9-9.1-15.6-12.4c-9.8-5.7-15.2-14.5-19.4-24.5
		c-1.6-3.7-2.9-7.4-4.3-11.1c-7.5-19.4-9.4-38.4,1.5-57.5c10.4-18.2,10.6-37.5,6.4-57.9c-3.1-15.3-0.1-30.2,10.8-42.9
		c4.1-4.8,7.8-8.2,14.3-9.6c13.1-2.8,23.2-10.3,27.6-23.3c3.3-9.9,10.9-15.2,19.3-19.1c14.4-6.8,29.3-12.6,44.1-18.6
		c6.8-2.7,13.8-4.6,18.9-10.6c3.3-4,8.6-5.6,12.7-2.9c13.9,9.2,29.3,7.3,44.6,7.4c5.3,0,10.6,0,15,0c2.6,1.9,4.5,2.8,5.8,4.2
		c16.1,19.1,37.2,19.5,58.6,13.9c19.9-5.2,39.2-12.5,58.5-19.8c5.8-2.2,11-4.4,17.2-2.9c11.2,2.8,19.4-2.1,26.3-10.1
		c2.2-2.5,3.7-5.5,5.8-8.1c6.9-8.2,10.8-12.3,23.9-5.7c9.4,4.7,20.5,6.3,29.7,11.4c8.2,4.6,15.6,8.5,25.5,9.2
		c8.2,0.6,16.2,5.5,23.9,9.3c9.5,4.6,18.6,10.1,28,15.1c10.8,5.8,20,12.9,25.6,24.2c3.2,6.5,7.3,12.6,11.3,18.7
		c3.6,5.6,8.2,9.9,14.1,13.6c16,9.8,28.7,23.2,37.2,40.2c6,12.1,15.6,21.5,23.8,31.9c2.3,2.9,6.1,5.2,9.7,6.5
		c8.1,2.9,16.4,5.4,24.8,7.4c12.5,3,27.9-3.8,34.3-14.9c1.6-2.8,3.5-6.5,2.8-9.3c-2.3-9.5-1.9-19.9-9.7-27.6
		c-8-8-15.4-16.5-23.3-24.7c-5.2-5.4-8.6-11.3-10.9-18.6c-3.1-10-8.8-19.2-12.6-29.1c-5.8-15.4-14.4-29.4-18.9-45.5
		c-4.7-17-8.8-34.5-19.7-49.4c-7.8-10.6-6.9-24.1-9.4-36.3c-0.7-3.2,0-6.7-0.4-10c-1.7-11.4-5.3-21.8-14.7-29.6
		c-5.1-4.2-9.7-9.2-13.4-14.6c-6.7-9.9-12.1-20.4-10.3-33.4c1-7.2,0.5-14.7,0.1-22c-1.1-20,2.3-39.7,4.9-59.4
		c0.8-5.9,2.3-12.3,0.9-17.8c-3.5-14.2,0.3-29.5-7.1-42.9c-0.9-1.6-1.2-4.1-0.6-5.7c4.3-11.5,1-22.3-2.4-32.7c0.3-1.7,0-3.4,0.7-4.3
		c12.4-15.6,10.6-33.9,9.2-51.7c-1-13.2-3.9-26.2-5.5-39.3c-1.1-8.7-5.7-15.3-12.4-19.7c-10-6.6-13.4-15.4-14.3-26.8
		c-0.5-6.4-3.3-12.7-5.8-18.8c-2.7-6.6-6.7-12.6-6.5-20c6.8,0,12.6,0.1,18.5,0c13.5-0.2,20.5-7.9,19.6-21.6
		c-0.3-3.8-1.3-7.6-1.8-10.8c9.9-9.5,18.5-18.8,28.2-26.7c12.7-10.5,18.1-24.8,21-39.8c1.6-8.7,3.9-16.6,7.7-24.5
		c8.4-17.8,11.7-35.9,8.7-56.1c-2.1-14.6-4.9-28.6-10.1-42.3c-0.5-1.2-0.9-2.5-1.1-3.8c-4.8-28.1-9.3-21,10.2-40
		c6.1-6,8.5-12.4,9.2-21c1.4-15.4,1.9-30.3-2.8-45.2c-1-3.1-0.7-6.6-0.6-9.9c0.8-17.3-9.3-26.8-23.6-33.3c-3-1.4-6.2-2.7-9.5-3
		c-16.7-1.7-31-12.2-48-12.9c-3.4-0.1-6.8-3.8-9.8-6.4c-8.4-7.1-16.9-9.9-27.2-3.3c-3,1.9-7.7,1.4-12.1,2
		c-1.8-15.5-3.1-30.5-5.3-45.5c-2.3-15.5-13.5-27.1-20.3-41.1c1.4-2.3,2.2-5.4,4.2-6.6c9.4-5.7,15.1-14.8,21.6-23.1
		c9-11.4,13.2-24.6,12.7-39c-0.6-17.9,2.4-36-2.4-53.7c-0.5-1.8-0.6-4.2,0.2-5.9c4.3-9.3,0.8-18.3-0.8-27.4
		c-2-11.7-4.1-23.5-6.5-35.1c-0.8-3.8-2.7-7.5-4.8-10.8c-4.3-6.7-8.5-13.6-13.9-19.3c-6.7-7.1-10.6-14.6-11.1-24.5
		c-0.3-6-4.4-12-10.4-13.7c-10.5-2.9-16.5-10.4-23.1-17.9c-2.1-2.4-5-4.1-8.6-7c3.2-2.7,5.3-5,7.9-6.5c18-10.2,35-21.7,49-37.3
		c4.5-5,9.6-9,16.4-10.8c17.7-4.7,17.6-4.8,29.5-19.6c3.1,0.2,7,0.9,10.8,0.7c8.9-0.5,17-3.3,23.5-9.6c8.8-8.5,19.4-13.9,30.1-19.3
		c11.8-6.1,23.8-12,35.1-18.9c11.1-6.7,13.7-13.3,9.9-25.1c-2.5-7.6-4.3-15.2-5.9-23c-2.7-12.7-12.1-22-20.3-31.5
		c-27.9-32.3-58.9-61.6-88.8-91.9c-7.5-7.6-14.4-15.7-21.2-23.8c-7.5-8.9-16-15.8-28.2-17.1c-2.6-0.3-5.5-0.4-7.8-1.6
		c-16.1-8.7-33.5-12.5-52.6-14.3c0.3-4.3-0.1-8.2,1-11.7c6-18.6,8.7-37.5,7.6-57c-0.9-16.2,5.2-31.2,7.6-46.3
		c14.3-12.7,29-12.6,44.8-4.4c7.6,4,15.9,6.8,24,9.7c9,3.3,18.7,3.9,27.6,1.1c13.8-4.4,28.1-7.9,40-17.1c7.9-6.1,16.1-12.1,25-16.2
		c16-7.3,32-9.5,49.6-2c17.2,7.2,32.1,18.6,49.9,24.3c7.5,2.4,15.1,5.5,22.8,6.5c6.7,0.9,10.8,4.3,14.8,8.9
		c5.6,6.5,11.2,13.1,17.1,19.4c6.8,7.4,13.9,14.2,24.3,16.7c9.3,2.2,14.3,10.7,17.7,18c7.3,15.6,20.3,22.5,34.8,27.9
		c15.5,5.7,30.5,13,47.1,15.9c3.7,0.6,8.2,2.5,10.3,5.3c6.2,8.2,14.2,14.1,22.7,19.3c4.9,3.1,7.5,7.4,9.5,12.4
		c4.4,10.4,9,20.7,13.1,31.3c3.2,8.3,9.2,12.9,17.6,14.5c9.7,1.9,19.6,2.3,29.1,6.1c4.9,2,12.1,0.8,17.5-1.2
		c12.6-4.7,24.7-3.8,37.3-0.6c6.3,1.6,13.1,2.3,19.6,2.5c24.7,0.9,48.9-0.4,73.1-7.2c14.6-4.1,29.9-5.6,43.9-12.3
		c1.2-0.6,2.8-0.4,3.8-1.2c13.6-9.6,28.5-11.7,45.1-12.1c16.3-0.4,30-10.1,38.3-25.1c2.9-5.2,5-10.9,6.8-16.6
		c10.4-31.6,20.6-63.2,30.7-94.8c1-3.2,2.5-6.5,2.1-9.7c-1.8-17.9,7.3-31.9,15.9-46.2c5.2-8.5,9.5-17.6,15.1-25.9
		c8.8-13.2,18-26.3,30.8-36.2c2.6-2,5.6-3.7,7.8-6.2c8.8-10.1,18.9-15.5,33.1-14.8c12.7,0.6,18-6.2,17.8-18.6c0-1.3,0.2-2.7-0.1-4
		c-6.9-23.5-1.1-47.5-2-71.2c-0.6-16.5,1.1-33.2,2.5-49.7c0.5-5.8,2.2-11.8,4.5-17.2c25.8-62,51.7-124,77.7-185.9
		c0.7-1.7,1.9-3.2,3.5-5.7c7.5,2.7,11.5,9.2,16.7,14c4.9,4.5,9.4,9.4,13.8,14.4c10.5,12,20.6,24.3,31.2,36.2
		c7.2,8.1,15.6,15,26.4,17c10.8,2,18.4,8.3,23.8,16.7c5.8,8.9,13.4,14.5,22.7,18.7c6.7,3,13,6.8,19.7,9.7
		c12.6,5.6,24.2,12,25.2,27.2c13,5.5,24.2,10.6,33.3,20.1c7.5,7.8,18.8,10.3,29.4,11c12,0.9,21.1,5.7,30.2,13.3
		c21.2,17.8,23.7,18.2,51.7,22.5c12.4,1.9,24.6,4.6,36.7,8.8c13,4.5,26.9,6,40.8,2.9c38.9-8.5,70.6,2.2,94.9,34.5
		c13.3,17.7,23.4,36.4,29.6,58c5.3,18.4,16.6,34.8,28.2,50.3c4.4,5.9,8.4,12,12.6,18c1.5,2.2,3.7,4.2,4.3,6.7
		c3.3,13.1,9.9,24.5,16.4,36.1c8.8,15.6,16.3,31.9,25,47.6c6.2,11.1,11.9,22.2,14.7,34.8c1.1,5.2,2.9,10.3,4.8,15.2
		c6.7,17.7,8.7,36,9.3,54.7c0.2,6.6,0.9,13.2,1.5,22c-8.3,11-17,24.4-27.5,36.3c-16.3,18.6-28.6,40-44,59.1
		c-6.7,8.3-12.8,17.6-21.2,23.7c-22.3,16.3-39.3,37.3-57.3,57.7c-11,12.4-23.3,23.8-35.2,35.4c-16.3,15.9-30.3,33.3-40.2,54.1
		c-10.5,22.2-22.3,43.9-33.9,65.6c-6.2,11.5-8.8,23.6-8.7,36.4c0.1,14,0,28,0,42c0,10.6,1,21.3-4.7,31.2c-1.2,2.1-1,5.2-1.3,7.8
		c-2.8,27-5.6,54.1-8.4,81.1c-1.2,11.2-2.4,22.4-3.4,33.6c-2.3,24.7-15.5,43.4-32.7,59.8c-1.8,1.7-4.5,2.6-6.9,3.8
		c-6.5,3.2-13.3,6-19.5,9.7c-11.9,7.1-22.8,15.7-35.9,21.2c-14.5,6.2-22.2,20.4-31.6,32.4c-3.3,4.2-5.5,9.3-9.4,12.7
		c-12.7,11.4-20.2,26.3-28.9,40.4c-4,6.5-6.2,13.6-4.4,21c4.2,16.4-2.5,28.4-14.2,38.9c-2.4,2.2-4.8,4.4-7,6.3
		c3.7,14.8,5.7,29.5,11.2,42.6c8,18.9,18.1,36.9,38.3,46.5c8.9,4.2,16.6,10.9,27.2,11.4c2.8,0.1,6.2,3,7.9,5.6
		c1.6,2.4,2.7,6.8,1.5,8.9c-3.6,6.3-8.1,12.1-12.9,17.6c-5.7,6.5-12.6,12-18,18.7c-7.1,8.7-15.7,17.4-19.1,27.6
		c-3.2,9.7-4.1,20.7-6.6,31c-3.6,14.9-8.4,29.2-15.6,42.8c-4.3,8.2-8.2,16.7-11.2,25.4c-8.6,25.1-17,50.3-24.5,75.7
		c-3,10.1-3.3,20.9-4.6,31.4c-0.6,4.7,0.5,9.1,4,12.9c2.7,2.9,4.6,6.5,7.1,9.6c5.7,7,12.8,11.1,22.3,11.4c6.6,0.2,13.3,1.1,19.7,2.8
		c22.1,6,42.1,2,60.5-11.5c5.8-4.2,11-9.3,18.9-10.4c6.7-1,13.1-1.8,19.6,0.5c4.4,1.5,9.1,2.2,13.4,3.8c8.4,3.1,16.6,3.7,25.2,0.3
		c6.1-2.4,13-2.9,19.3-4.7c10.2-2.9,20.2-6.1,27.6-14.8c4.2-4.9,9.8-9.6,15.7-12c15.4-6.4,25.8-17.8,34.8-31.1
		c0.6-0.9,2.3-1.1,4.6-2.1c8.3,6.9,18.9,9.9,29.6,13.4c12.6,4.1,24.3,10.8,36.3,16.5c3.6,1.7,7,3.7,10.5,5.6
		c17.9,10,36.4,11.3,55.6,4c1.8-0.7,3.9-0.6,5.3-0.8c13,8.9,25.4,17.6,38,26c3.3,2.2,6.9,4.2,10.6,5.3c22.7,6.9,41.8,20.3,61.2,33.1
		c4.4,2.9,8.9,6.4,11.7,10.7c6.4,9.7,15.1,16.5,26.2,21.6c-1.2,4.4-2.1,8.1-3.1,11.8c-3.5,12.8-7,25.6-6.3,39.1
		c0.5,10.2-2.5,19.7-6.3,29c-8.2,19.7-13.1,40.4-17.8,61.1c-0.9,3.9-2,7.9-1.9,11.8c0.7,25.3-1.7,50.5-2.7,75.7
		c-0.4,10.9-2.7,20.9-7.1,30.7c-7.2,15.9-17.2,29.9-28.2,43.4c-3.8,4.6-8,9.2-10.7,14.4c-8.1,15.9-14.7,31.4-10.7,51
		c4.7,23.4,9.7,46.7,14.1,70.2c3.2,16.9,4.7,34.1,7,51.2c3,23,5.6,46.1,9.1,69c6.3,41.3,13.3,82.4,19.9,123.6
		c1.6,9.7,4.8,19.1-1.3,29c-3.1,5.1-1.4,11.9,3.8,16.3c13,11.1,20,26.3,29,40.2c16.3,25.1,33,49.9,50.5,74.1
		c23.8,32.8,48.4,65,72.8,97.4c6,8,12.3,15.7,18.2,23.6c1.9,2.5,3.2,5.6,5.1,8.9c-7.8,7.1-14.8,14.1-22.4,20.4
		c-17.4,14.3-33.1,30.7-53.4,41.4c-17.9,9.4-35.9,16.7-56.8,16.1c-16.6-0.5-33,2.6-48.2,10.2c-5.9,3-12.1,5.4-18.4,7.7
		c-13.3,4.9-24.9,12.5-35,22.4c-6.3,6.1-12.5,11.5-22,12.5c-4.9,0.6-10.4,3.4-13.9,6.9c-15.4,15.4-34.9,24.3-53.3,34.8
		c-56.5,32.4-112.3,66.2-171,94.8c-58.1,28.2-115.3,58.3-172.9,87.7c-16.6,8.5-33,17.3-49.4,26.2c-13.3,7.2-19,17.8-17.1,32.6
		c2.7,21.8,7.6,43.2,14.2,64.1c3.8,12,10.6,23.1,21.6,30.3c11.6,7.6,18.7,18.3,25,30.4c8.9,17,15.6,35.1,27.1,51
		c7.1,9.9,9.5,23.2,13.9,35c2.3,6.2,4.5,12.5,6.5,18.8c5.4,16.9,14.4,31.3,28,42.9c8.1,6.9,15.2,14.8,18.4,25.5
		c2.4,7.9,8.3,13.5,14.7,18.5c7.8,6.2,15.6,12.4,23.7,18.1c3.1,2.2,7,3.5,10.8,4.4c19.4,4.6,38.8,8.9,58.2,13.5
		c4.5,1.1,8.8,2.6,13.2,4C6531.4,3932.9,6531.3,3933.8,6531.2,3934.6z M5262,5601.3c-3.5-1.2-7.4-3.2-11,0c-4.2,8.6,1.3,17,0.7,25.4
		c-1,14.9,6.7,24.8,17.4,33.7c18-9.7,34.6-20.1,50.5-34.3c-5.8-5.9-0.3-14.5-6.2-19.9c-1.5-0.1-2.3-0.4-2.7-0.1
		c-3.8,2.5-7.5,5.1-12.2,8.4C5286.8,5610.3,5274.5,5605.7,5262,5601.3z"/>
	<path onclick="modal(this.id);" id="27" class="st0" d="M5328.4,5611c-6.8-7.7-6.2-16.2-5.1-26.1c16.7-5.7,21.7-22.3,30.3-37.4c4.4,1.9,8.2,3.5,13.1,5.5
		c-3.7,4.8-6.2,8.6-9.4,11.9c-6.9,7.3-13.6,14.2-14.9,25.1c-0.5,4-4.9,7.5-7.5,11.2C5332.8,5604.5,5330.7,5607.7,5328.4,5611z"/>
	<path onclick="modal(this.id);" id="20" class="st0" d="M5405.3,5522.5c2.3-6.4,4.3-11.8,6.5-17.7c4.8,1.3,9.9,1.8,14,4.1c5,2.8,9.4,6.8,13.6,10.8
		c3.7,3.5,6.7,7.6,11.8,13.6C5433.2,5533.6,5419.9,5527.8,5405.3,5522.5z"/>
	<path onclick="modal(this.id);" id="19" class="st0" d="M5381.5,5492.3c6.6,1.4,13,2.6,20.7,4.2c-3.1,7.8-1.9,16.5-8.1,22.7c-1.8,0.1-3.1,0.5-4.3,0.2
		c-6.2-1.6-12.3-3.4-19.2-5.4C5372,5505.1,5373,5496.8,5381.5,5492.3z"/>
	<path onclick="modal(this.id);" id="18" class="st0" d="M5393.7,5448.1c4.9,1.7,8.5,2.9,13.3,4.5c-1.6,12-5.3,22.8-10.8,33.5c-2.9-1-5-1.3-6.3-2.4
		c-2.5-2-4.6-4.6-7.1-7.2C5386.1,5467.5,5389.4,5459,5393.7,5448.1z"/>
	<path onclick="modal(this.id);" id="26" class="st0" d="M5347.3,5602.5c7.7-10.7,8.1-26.2,21.9-33.6c7.5,0.4,5.9,7.4,10.4,11.8
		c-12.8,4.5-19.2,13.6-25.5,23C5352.3,5606.3,5349.8,5606.2,5347.3,5602.5z"/>
	<path onclick="modal(this.id);" id="24" class="st0" d="M5385.4,5547.4c13.7-2.7,22.4,1.3,30.9,5.7c3.6,1.9,2.2,5.8-3.8,10.1c-3.8-3.2-7.4-7-11.7-9.8
		C5397.2,5551.3,5392.8,5550.3,5385.4,5547.4z"/>
	<path onclick="modal(this.id);" id="22" class="st0" d="M5364.9,5524.4c5.9-0.4,11.6-0.5,16.1,5c-5.6,3.7-10.7,3.6-15.8,1.8c-0.9-0.3-1.7-2.1-1.7-3.2
		C5363.4,5526.8,5364.4,5525.7,5364.9,5524.4z"/>
	<path onclick="modal(this.id);" id="21" class="st0" d="M5427.1,5542.9c-7.1-1.5-14.2-2.8-21.1-4.6c-0.9-0.2-1.2-3-1.8-4.6l-0.3,0.4
		c8.6,0.6,16.8,2.2,22.9,9.2L5427.1,5542.9z"/>
	<path onclick="modal(this.id);" id="25" class="st0" d="M5386.2,5561.5c6.5-3.6,9.7-0.9,11.9,3.6c0.4,0.9-0.1,2.7-0.9,3.5c-0.6,0.7-2.7,1.2-3.2,0.8
		C5391.4,5567.1,5389,5564.4,5386.2,5561.5z"/>
	<path onclick="modal(this.id);" id="232" class="st1" d="M5364.4,5540.8c-0.5-0.2-1-0.4-1.5-0.7c0.7-0.4,1.3-0.8,2-1.1c0,0.5-0.1,1.1-0.1,1.6
		L5364.4,5540.8z M5364.9,5540.5c1.8,0.5,3.6,1.1,5.3,1.5c0.4,0.1,0.9-0.2,1.4-0.4c-0.6-0.6-1.3-1.9-1.8-1.8c-1.8,0.1-3.6,0.6-5.4,1
		C5364.4,5540.8,5364.7,5540.6,5364.9,5540.5z"/>
</g>
</svg>
