<?xml version="1.0" encoding="utf-8"?>
<!-- Generator: Adobe Illustrator 19.0.0, SVG Export Plug-In . SVG Version: 6.00 Build 0)  -->
<svg version="1.1" id="Layer_1" xmlns="http://www.w3.org/2000/svg" xmlns:xlink="http://www.w3.org/1999/xlink" x="0px" y="0px"
	 viewBox="0 0 5000 2500" style="enable-background:new 0 0 5000 2500;" xml:space="preserve">
<style type="text/css">
	.st0{fill:#FFFFFF;}
</style>
<g>
	<path d="M2456.1,188.2c10.4-1.7,19.2-3.1,28.1-4.6c0.2,0.8,0.5,1.6,0.7,2.5c-3.2,1.5-6.3,2.9-9.7,4.4c6.9,6.3,13.8,12.7,20.8,19
		c7.4,6.6,14.9,12.9,22.4,19.4c7.8,6.8,15.9,13.4,23.3,20.6c2.7,2.7,4.5,6.9,5.2,10.7c1.6,8.6,6.3,13.7,14.9,15
		c8.2,1.2,14.3,6,20.3,11.2c9.8,8.6,19.7,17.1,29,26.2c4.6,4.5,7.6,10.5,11.8,15.5c4.6,5.5,9.8,10.5,14.8,15.6
		c0.9,0.9,2.2,1.5,3,2.4c6.3,7.2,13.1,14,18.6,21.7c7.3,10.1,18.9,14.6,27.5,22.8c7,6.7,15.1,12.2,22.2,18.7
		c10.4,9.6,20.3,19.6,30.5,29.4c11.4,10.8,22.8,21.6,34.3,32.3c12.9,12.1,26,24,39,36c8.6,8,16.7,16.7,26.1,23.6
		c5.8,4.2,13.9,7.8,20.6,7.2c7-0.7,14.3-5.3,17.8-13.5c2.6-6.1,6.2-11.9,9.8-17.5c1.6-2.5,4.9-4,6.6-6.4
		c6.6-9.1,13.1-18.3,19.2-27.8c10.1-15.8,19.8-31.9,29.6-47.9c2.2-3.6,4.6-7.2,6.3-11c0.6-1.4,0.1-3.7-0.7-5.1
		c-1.8-3.3-4-6.4-6.3-10c9.9-1.5,16,1.9,21.1,10.3c9.8,16.1,19.8,32.1,29.7,48.2c9.4,15.3,18.7,30.6,28.3,45.8
		c12.9,20.6,26,41,39,61.5c11,17.3,21.8,34.8,33.2,51.9c13.6,20.5,27.8,40.7,41.7,61c4.3,6.3,8.9,12.5,12.7,19.2
		c1.7,3.1,2.2,7.1,2.4,10.7c0.1,2.5-1.6,3.7-4.5,1.9c-1.2-0.8-3.4-0.9-4.9-0.4c-14.4,5.1-28,11.7-39.6,21.8c-2.8,2.4-4.5,6.4-5.9,10
		c-2.9,7.8-5.4,15.7-7.8,23.6c-0.4,1.3-0.1,3.5,0.8,4.4c9.8,9.4,19.8,18.6,29.7,27.9c13,12.3,26,24.6,39,37
		c12.9,12.2,25.8,24.4,38.6,36.6c14.2,13.5,28.3,27,42.5,40.5c11.1,10.5,22.1,21,33.4,31.3c2.8,2.6,3.5,5.8,2.1,8.4
		c-0.9,1.6-4.4,2.7-6.6,2.6c-14.7-0.7-29.3-1.9-43.9-2.8c-7.1-0.5-14.2-0.6-21.3-1c-17-1-33.9-1.9-50.9-3
		c-6.9-0.5-13.7-1.9-20.6-1.7c-4,0.1-7.9,2.6-11.9,4.1c-3.2,1.2-6.4,2.3-10.3,3.8c0,2.8-0.2,6.4,0,10c0.3,5.6-4.7,4.8-7.6,6
		c-3.3,1.4-4.7-1.8-5.2-4.4c-0.4-2,0.6-4.2,0.5-6.3c-0.1-3.2,0.7-7.6-1-9.2c-2.7-2.6-7.2-2.3-10.9-0.3
		c-11.9,6.5-23.8,12.9-35.7,19.4c-24.4,13.3-48.7,26.7-73,40c-25.7,14-51.3,28-77,42c-25.7,14-51.3,28-77,42c-9.2,5-18.4,10-28,15.2
		c3,2,6.5,3.4,8.8,5.9c3.9,4.3,9.9,7.8,9,14.8c-0.2,1.7-2.4,4.1-4,4.4c-18.1,3.3-36.3,6.3-54.6,9.1c-5.7,0.9-11.5,0.8-17.3,1.1
		c-9.6,0.4-19.2,0.9-28.9,0.9c-7.3,0-14.6-1.3-21.9-0.7c-8.4,0.6-16.7,2.6-25,4.1c-4,0.7-7.8,2.3-11.8,2.7
		c-4.8,0.5-9.7-0.4-14.5,0.3c-3,0.5-5.7,2.8-8.4,4.3c-1.9,1-3.8,2-5.4,3.4c-1.9,1.6-4.3,3.4-5,5.6c-1.6,4.9-2.4,10.1-3.5,15.1
		c-0.2,0.8-0.7,1.7-0.5,2.3c2.2,5.5,4.8,10.9,6.9,16.5c2.3,6.2,4.1,12.6,6,18.9c0.7,2.5,0.8,5.2,1.7,7.6c1.8,5,2.5,9.9,2.8,15.4
		c0.4,8.5,3,17,5.7,25.1c3.6,10.6,2.5,20.7-0.9,31c-1.1,3.4-2,7-2.1,10.5c-0.3,6.9-1.6,14.2,0.3,20.5c2,6.4,2.3,12.3,1.9,18.6
		c-0.1,2-1.2,3.9-1.3,5.8c-0.2,4.7,0,9.4-0.1,14c-0.1,6.8-1.2,13.1-6.6,18.3c-3,2.9-5.2,6.5-2.1,11.9c2.1,3.7,1.2,9.5,0.7,14.2
		c-0.7,6.3-2.4,12.4-3.8,19c2.4,0.3,3.8,0.5,5.1,0.7c0.2,5.8-0.9,6.6-8.6,7.7c-3.7,0.6-7.6,1.2-10.9,2.8c-17.1,7.8-34,15.9-51,23.9
		c-5.8,2.7-11.4,5.8-17.3,8c-4.9,1.8-4.8,5-4.1,9c1,6.3,2.1,12.6,2.6,18.9c1.2,13.7-4.5,25.5-11.1,37c-1.9,3.3-3.1,6.2-2.2,10.5
		c1,4.7-0.3,9.8-0.6,14.7c-0.1,3.2-0.2,6.4-0.1,9.6c0.2,5.1,0.9,10.2,0.9,15.3c0,6.5-5.2,10.9-14.8,13.2c-11,2.6-29,12.9-35.2,19.7
		c3.8,4.3,7.1,8.8,11.2,12.5c8.7,7.9,17,16.2,28.6,20.2c9.7,3.3,19.6,4.7,29.7,5.5c4,0.3,9,4.8,9.4,9.9c1.3,16.4,10.3,30.1,15.7,45
		c3.5,9.6,7.7,19,11.2,28.7c2.3,6.5-2.8,11.1-5.2,16.3c-1.5,3.2-4,6-5.4,9.3c-0.9,2.1-1.1,4.8-0.9,7.2c0.8,8.5,1.9,16.9,2.8,25.4
		c1.3,12.1,3.5,24.1,3.6,36.2c0,7.7,3.9,11.2,9,15.3c21.4,17.4,42.6,35.1,63.8,52.7c3.8,3.1,7.6,6.2,11.3,9.5
		c4.9,4.3,3.3,9.6-1.3,11.9c-6.2,3-12.2,6.1-19.1,9.5c2.6,3.1,4.9,5.9,7.7,9.3c2.6-2.9,4.6-4.9,6.4-7.1c3.2-3.9,4.7-3.8,7.1,0.8
		c10-2.7,19.9-5.9,30.1-7.8c6.4-1.2,13.2-0.9,19.8-0.7c1.5,0.1,3.4,2.5,4.1,4.2c1,2.3,1.2,5.1,1.4,7.7c0.5,6.6,1.6,7.3,7.6,5.1
		c3.6-1.3,7.2-2,9.3-6.1c0.7-1.4,4.6-2.2,6.6-1.7c5.7,1.4,11.2,2.6,17.2,1.8c4-0.6,8.2,0.6,12.2,1c3,9.1,2.7,11-2.9,12.8
		c0,6.5,0.5,13.4-0.1,20.3c-0.6,7,2.5,12,6.6,16.8c6,7.1,12.4,13.9,14.9,23.4c0.3,1.2,3,1.7,5.4,3c-0.3,0.7-0.5,2.5-1.4,3.7
		c-4.8,6-9.9,11.7-14.5,17.7c-1.5,2-2.5,4.8-2.7,7.2c-0.6,7.8-5.7,12.6-10.5,17.9c-14.2,15.6-28.2,31.5-42.3,47.2
		c-4.3,4.8-8.8,9.5-13.2,14.2c-4.5,4.9-10.3,5.3-16.4,4.6c-5-0.6-10-1.5-15.1-1.6c-1.1,0-2.9,2-3.5,3.4c-3.1,7-8.3,8.9-14.9,5.5
		c-1.5-0.8-4.1-1.1-5.4-0.4c-7.1,4-14.9,3.4-22.5,4.1c-3.8,0.3-6.7,1-8.3,4.8c-1.8,4.4-5.9,6-10,7.3c-4.7,1.4-9,2.1-9.5,9.1
		c-0.4,6.6-6.6,10.3-13.7,9.8c-5.6-0.4-9.5,2-13.7,5.1c-3.7,2.7-8.5,3.9-12.7,5.8c-9.6,4.4-19.1,8.9-28.8,13.2
		c-3.7,1.6-7.6,3-11.5,3.9c-4.1,1-5.9,2.8-5.3,7.2c0.3,2.8,0,5.6-0.2,8.5c-0.7,8.6-6.5,12.8-13.8,15.5c-0.4,0.2-1,0.5-1.2,0.8
		c-3.5,8.8-12.7,9.1-19.4,13.3c-4,2.4-7.5,6.1-10.2,9.9c-2.2,3.3-4.3,6-7.9,7.6c-6.8,3-13.5,6.4-19.9,9.5c-0.2,2,0.5,5.6-0.7,6.3
		c-4.6,2.9-4.1-4.1-6.9-4.2c-6.4,2-12.3,4.8-18.5,5.5c-8.5,1-16.5-2-23.2-7.4c-2.1-1.7-3.8-2.1-6-0.9c-5.5,2.9-11,5.6-16.3,8.8
		c-1.1,0.7-1.8,3.1-1.7,4.6c0.4,5.1-1.9,9.1-4.5,13.2c-0.9,1.4-1.1,3.6-0.8,5.2c1.2,5.9-0.9,8.7-6.8,8.7
		c-27.1,0.3-54.2,0.5-81.3,1.1c-3.6,0.1-7.1,2.2-10.6,3.3c-4.6,1.5-12.6-1-14.9-4.9c-0.5-0.8-0.2-2.9,0.5-3.5
		c1.5-1.3,3.4-2.5,5.4-3.1c4.3-1.4,7.9-2.6,7.3-8.6c-0.1-1.7,3.3-3.7,5.9-5.3c0.2-5.6-0.2-11.4-6-15.7c-5.4-3.9-6.8-10.5-7-16.6
		c-0.1-4.9-1.9-6.5-6.3-8c-7.3-2.4-14.6-5.4-21.3-9.2c-7.9-4.5-15.1-10.2-22.7-15.2c-1.2-0.8-2.7-1.3-4.1-1.4
		c-7.1-0.1-12.4-3.8-17.3-8.2c-4-3.6-7.7-7.5-11.6-11.3c-6.5-6.5-6.5-14.3-4.3-22.4c1.2-4.4,4.2-8.6,4.5-13.1
		c0.3-4.1-1.7-8.3-2.9-12.4c-0.4-1.5-1.8-2.9-2-4.4c-0.8-8.2-1.7-16.4-2-24.6c-0.3-7.5-0.1-15.1,0-22.6c0-1.4,0.4-2.9,0.7-4.3
		c-10-1.7-12-9.9-10.2-20.6c0.7-4.6,2.9-8.5,7.6-11.2c2.4-1.3,3.9-5.2,4.8-8.2c3.9-12.4,7.4-24.9,11-37.1c-1.9-1.2-4.3-2.6-6.7-4.1
		c-0.7-0.4-1.4-1.5-1.9-1.5c-7.9,1.3-15.8-4.3-24.1,1.4c-7.4,5.1-22.2,0.7-28.5-6.1c-7.5-8.2-16.8-11.4-27.9-8.9
		c-2.2,0.5-4.5,0.1-6.8-0.1c-8.1-0.7-16.2-1.6-22,6c-2.7,3.6-6.5,4.6-10.9,4.6c-2.6,0-5.2,0.8-7.8,0.9c-5.2,0.1-10.6,0.9-15.5-0.3
		c-6.8-1.5-12-0.3-17.3,4c-2.2,1.8-5.7,1.9-8.7,2.6c-1,0.3-2.2,0.1-3.2,0.5c-8.5,3.2-16.9,6.8-25.6,9.5c-5.4,1.7-11.2,2-16.9,2.6
		c-3.7,0.4-5.7-1.5-6.2-5.3c-1.5-11.2-3.1-22.3-5.1-33.4c-0.5-2.6-2.8-4.9-4.4-7.2c-6.1-9.5-13.7-9.7-23.7-5.7
		c-13.9,5.6-28.4,9.5-42.6,14.1c-5.1,1.6-8.2,0.2-10.1-4.7c-7.7-19.5-15.4-39.1-23.1-58.6c-0.4-1.1-1.3-2.9-2.1-2.9
		c-6.6-0.3-10.3-5.3-14.4-9.3c-22-21.8-43.8-43.8-65.8-65.7c-9.5-9.5-19.4-18.6-28.9-28.1c-1.7-1.7-3.1-4.3-3.6-6.7
		c-0.6-3.3,0.7-6.3,4.6-6.7c7.6-0.8,12.7-5.9,17.6-10.8c4.1-4.1,8.7-6.7,13.9-9c3.9-1.8,8.3-4.2,10.6-7.6
		c4.4-6.4,10.4-9.4,17.3-11.2c9.9-2.6,15.7-9.4,21-17.6c4.5-7,10.5-13,15.5-19.7c2.7-3.6,4.8-7.6,6.7-11.6
		c2.3-4.9,3.7-10.3,6.3-15.1c3-5.5,4.5-11.3,3.2-17.1c-0.9-4.1-3.6-7.9-5.9-11.5c-1.9-2.9-4.9-5.2-6.7-8.1
		c-3.6-5.7-5.7-7.2-11.8-5.3c-10.6,3.3-21.5,3-32.4,2.9c-3.8,0-6.9-1.9-7.5-5.2c-2-11.1-6.7-21.7-5.5-33.3c0.3-2.8,0.7-5.5,1-8.3
		c0.5-4.8-0.7-8.6-4.3-12.4c-2.5-2.6-3.8-7.6-3.4-11.3c1.2-11.8-6.3-19.1-12.5-27.1c-4.4-5.7-8.4-11.9-13.7-16.7
		c-7.2-6.5-6.3-13.9-5-21.9c0.7-4.4,4.5-6.9,7.6-6.3c10.1,1.7,16.5-5.1,24-9.2c2.8-1.5,6.1-1.9,9.1-3.1c2.6-1.1,5-2.5,7.3-4.1
		c1.4-1,2.4-2.7,4.3-4.9c-7.3-6.7-15-13.3-22.1-20.5c-4.5-4.5-8-10-12-14.9c-5.9-7.3-11.7-14.6-17.9-21.6c-4.6-5.2-5-8.1,0.2-12.9
		c15.5-14.1,30.9-28.3,47-41.7c4.7-3.9,11.7-5.3,17.8-7.4c10.2-3.5,18.2-10.3,26.1-17.1c6.3-5.4,12.3-11.5,17.2-18.2
		c5.3-7.2,6.9-15.6-1.7-22.5c-2.3-1.9-3.3-5.4-4.9-8.3c-0.1-0.3,0.1-0.8-0.1-1c-5.6-4-6.1-11.5-10.6-15.9c-5.2-5-6-11-5.1-17.3
		c0.9-6.3-0.9-11.2-5.3-15.3c-2.9-2.7-5.5-6.1-3.5-9.4c2.1-3.4,5.8-6.7,9.5-7.8c4.5-1.3,5.6-4.1,7.2-7.6c2-4.4,4.2-8.6,6.5-12.8
		c1.4-2.6,2.8-5.5,4.8-7.6c3.1-3.1,6.9-5.6,10.4-8.4c5.1-4.2,10.3-8.3,15-12.9c1.2-1.2,0.9-4,1.2-6.1c1.2-7.2,2.3-14.6,8.2-19.6
		c5.2-4.4,10.5-3,13.8,3c3.2,5.6,6.4,11.3,9.7,16.9c4,6.9,11.1,9.4,18,11.7c9.2,3,18.7,5.3,28.1,8c3.7,1.1,7.3,2.9,11.1,3.5
		c7.2,1,11.1-0.2,10.9-7.5c-0.3-9.8,6-15,12.9-19.9c2.4-1.7,5.1-3,7.3-4.8c4.4-3.5,6.1-7.9,7.5-13.6c1.8-7.3,6.8-13.9,10.9-20.6
		c4.7-7.5,6.3-14.9,1.1-22.8c-2.6-3.9-2.8-8.3-0.2-12.1c2.8-4,3.5-7.9,3.9-12.8c0.3-5.4,3-11,5.7-15.9c2.7-5.1,2.1-10.2,1.5-15.3
		c-1-8.1-2.6-16.1-3.4-24.2c-0.7-7.6-0.2-15.3-1.3-22.8c-0.7-4.3-3.1-8.6-5.6-12.3c-4.2-6.2-6.2-12.8-5-20c0.4-2.4,2.4-4.5,3.9-7.1
		c-5.4-6-6.8-13.9-3.7-22.2c2.1-5.6,1.5-10.6-0.9-15.5c-2.8-5.7-2.1-12.8,2.3-17.3c2.9-2.9,6.2-5.4,9.2-8.3c4-3.9,7.9-7.9,11.8-11.8
		c6.9-6.7,15.7-6.9,24.4-6.4c8.9,0.4,17.3-0.2,23.3-7.6c1.9-2.3,2.6-5.9,3.3-9c1.6-7.5,2.2-15.2,4.4-22.5c1.5-5.2-0.8-8.9-2.6-13
		c-1.4-3.3-3.1-6.4-4.6-9.6c-0.6-1.2-0.7-2.8-1.6-3.5c-5.9-5.3-5-12.7-6.5-19.5c-2.4-10.4-5.4-20.8-8.1-31.1
		c-0.6-2.2-0.8-4.7-1.9-6.5c-2.1-3.2-4.5-6.2-7.3-8.8c-3.2-3.1-4.5-6.4-4.8-10.9c-0.3-4.8-2-9.5-3.3-14.2c-1.1-4.4-0.7-8.3,1.9-12.2
		c2.2-3.3,3.7-7.3,6.4-10.1c2.1-2.1,5.6-3.4,8.6-3.7c4-0.4,3.9,3.4,5.1,6.4c5.1,12.9,17.8,18,31.7,13.9
		c13.9-4.1,26.6-10.4,38.6-18.5c5.2-3.6,11.3-5.9,16.8-9.1c9.6-5.6,18.8-11.7,28.5-17.1c3.4-1.9,7.6-3.5,11.4-3.4
		c5.9,0.1,8.8-4,12.4-7.1c0.8-0.7,0.5-3.7-0.3-5c-1.6-2.5-1.3-3.9,1.1-5.2c0.1-0.1,0.3-0.2,0.4-0.3c8.5-6.1,8.5-6.1,13.4,3.2
		c2.2,4.3,3.8,4.4,6.5,0.2c1.8-2.8,3.7-5.7,4.9-8.9c3.5-9,10.8-14.1,18.3-19.3c4.1-2.8,7.7-6.3,11.7-9.3c1.4-1.1,3.2-2.4,4.7-2.3
		c6.1,0.5,8.8-4.6,13-7.3c6-3.9,12.1-7.7,18.5-11c8.5-4.4,15.6-10.3,23-16.2c6.8-5.4,8.5-11.6,8-19.4c-0.1-2.2,0.1-4.3,0-6.5
		c-0.4-6.1,1.8-11.2,4.6-14.2c-0.6-8.1-1.6-14.9-1.3-21.7c0.1-2.6,2.6-6.7,4.8-7.4c7.4-2.3,5.9-8.4,6.8-13.5c0.6-3.2,0.7-6.5,1-9.8
		c0.6-6.5,3.8-10.8,9.6-14.2c2.3-1.3,3.3-5.4,4.3-8.4c1.6-4.8,3.5-8.6,8.3-11.3c4.9-2.7,8.9-7.2,13.4-10.8c2.5-2.1,5.2-3.9,7.7-6
		c1.3-1,3.3-2.3,3.3-3.5c0.3-6.9,5.8-8.6,10.5-9.1c11.8-1.3,26.8-19.9,28.1-32.5c0.4-3.9,3.3-7.6,4.8-11.4c0.6-1.6,1.1-3.7,0.5-5.1
		c-1.8-4.3-3.8-8.7-6.4-12.6c-3.5-5.3-3.4-10.5-1.9-16.3c1.4-5.3,1.8-10.9,2.8-16.4c1.6-8.9,6.4-16,12.8-22.1
		c4.7-4.5,9.7-8.6,14.7-13c-4.1-5.4-5.6-10.6-3.6-16.7c3.3-10-1-18.2-7.1-25.7c-4.4-5.3-7.3-10.9-7.1-18.2c0.1-4.3-2.6-8.6-4.3-13.7
		c1.2-0.8,3-2,4.7-3.2c0.6,0.5,1.1,1.1,1.7,1.6c7.6-15.4,15.3-30.8,22.8-46.2c0.7-1.4,0.5-3.4,0.2-5
		C2458.1,197.4,2457.1,193.2,2456.1,188.2z M2555.9,747c-2.7-4.6-5.9-8.5-11.5-9.9c-2.7-0.7-5.7-1.6-7.8-3.4
		c-6.6-5.7-13.3-11.3-12.9-21.5c0.1-2.3-2.9-5.6-5.2-6.8c-4.8-2.5-6.7-5.9-7.7-11c-0.6-3.5-2.5-7.1-4.9-9.7
		c-5.6-6-11.9-10.9-21.1-8.7c-0.8,0.2-1.8-0.7-2.8-0.8c-3.9-0.6-7.3,0.6-9,4.3c-2.1,4.3-5.4,5.2-9.9,5.9c-4.9,0.8-9.9,2.9-14.2,5.6
		c-5.2,3.3-12.8,2.3-17.2-2c-6.5-6.4-13.8-12.1-21-17.8c-1.1-0.9-3.3-0.3-5-0.4c-7.5-0.5-15.6,0.5-22.3-1.9
		c-9.2-3.3-16.7-10-22.1-18.7c-3.1-4.9-7.1-9.3-14-8.1c-1.1,0.2-2.3-0.1-3.4-0.5c-8.1-2.8-16.3-5.6-24.4-8.6c-3-1.1-5.5-2.5-8.7-0.4
		c-4.4,3-9.1,5.7-13.7,8.5c-7.7,4.5-16.4,7.6-21.8,15.2c-2,2.9-4.4,3.8-7.8,4c-2.5,0.2-5,1.8-7.2,3.1c-2,1.2-3.7,3.1-5.7,4.4
		c-7.8,5.1-15.6,9.9-19.4,19.3c-1.7,4.3-4.9,7.9-7.6,11.8c-3.2,4.7-8,4.5-12.9,4.3c-1.5-0.1-3.6,0.6-4.7,1.7
		c-6,6.3-12.5,11.3-21.8,11.5c-2.6,0-5.3,1.4-7.6,2.8c-6.7,4-13.1,8.6-19.8,12.6c-7.6,4.4-15.8,7.9-23.2,12.7
		c-12.6,8.3-25.9,14.9-40.5,19.3c-13.6,4.2-26.1,3.4-37.5-5.6c-2.6-2-4.6-4.8-7.2-7.6c-0.3,1.5-0.7,2.1-0.5,2.4
		c3.9,7.6,0.2,18.6,10.4,23.4c0.9,0.4,1.5,1.8,1.9,2.8c4.9,15.5,11.3,30.6,12.7,47c0.3,3.4,1,6.9,2.4,9.9c3.7,7.8,8,15.2,11.7,23
		c1.2,2.4,2,5.4,1.7,8c-1.9,13.5-4.2,27-6.4,40.8c0.7,0.3,1.8,1.1,3,1.3c8.1,1.7,16.2,3.4,24.3,5c6.9,1.4,13.7,2.4,20.4-0.8
		c1.5-0.7,3.9-0.1,5.8,0.4c3.9,1,7.7,2.5,11.6,3.3c6.2,1.2,13.2,0.7,18.7,3.3c11.3,5.3,21.8,12.4,32.8,18.4
		c4.9,2.7,10.1,5.1,15.3,7.2c6.9,2.7,14,4.9,21.1,7.2c7.7,2.6,18.6-0.6,20.7,11.3c3-1.3,5.8-2.7,8.7-3.7c3.8-1.3,12.7,1.7,15.1,4.5
		c4.6,5.3,9.1,10.7,14.2,15.5c6.8,6.5,15.9,8.6,24.5,11.2c3.8,1.2,8.7,1.3,12.3-0.2c4.7-1.8,8.7-1.7,13.3-0.7
		c8.8,1.9,17.6,1.5,26.1-1.8c2.4-0.9,5.2-1.1,7.7-1c6.5,0.2,12.1-2.7,14.9-8.5c2.8-5.8,7-10,13.4-11.2c3.5-0.7,7.3-0.1,10.9-0.4
		c1.9-0.2,3.9-0.9,5.5-1.9c7.7-4.6,15.2-9.6,23.1-13.8c3-1.6,6.9-1.7,10.4-2.1c2.8-0.3,5.8,0.4,8.5-0.2c6.1-1.2,12.8-1.4,16.2-8.3
		c0.5-0.9,3.6-1.4,5.1-0.9c5.6,1.9,10.5,12.2,7.5,18c-2.7,5.1-1.1,9.9-1.6,14.7c-0.3,3.7-1.8,5.6-5.4,6.5c-2.7,0.7-6,1.4-7.7,3.3
		c-7.7,8.5-15.1,17.4-22.2,26.4c-4.5,5.6-10.4,10.5-10.3,18.9c0,1.3-2.3,3-3.9,4c-5.2,3.1-10.5,5.9-15.7,9c-3.1,1.9-5.1,3.9-6.6,8
		c-6.9,18.6-19.9,30.9-40.4,33.1c-5.4,0.6-5.1,2.3-3.5,6c3.7,8.8,3.3,17.4-0.7,26.1c-2.5,5.4-4.4,11.1-6.4,16.8
		c-0.3,0.8,0.2,1.9,0.5,2.8c4.4,13.6,8.6,27.3,13.4,40.8c1.5,4.3,3.7,9.7,9.5,9.7c21.6-0.1,43.2-0.5,64.8-0.9c1.1,0,2.2-0.5,3.3-0.9
		c17.8-5.7,35.7-11.2,53.5-17.2c6.9-2.3,13.1-3,20.1,0c14.2,6.1,29.2,10.1,42.3,18.8c6.7,4.5,14,8.1,21,12.1
		c0.4-0.3,0.8-0.5,1.1-0.8c-0.9-2.9-2-5.8-2.5-8.7c-0.6-3.7-1.4-7.6-1-11.2c0.8-6.7,2.3-13.5,4.1-20c0.7-2.6,2.6-5.7,4.9-6.8
		c6.1-2.9,12.5-5.3,19-7.1c6.6-1.8,13.5-2.2,20.1-3.9c4.4-1.1,8.3-4.7,12.6-5c10.6-0.7,20.8-3.1,31.7-2.6
		c26.2,1.2,52.5,0.6,78.5-4.6c7.9-1.6,15.9-2.6,24.3-3.9c-5-3.4-9.6-6.5-14.3-9.7c-5.9-4-5.8-9.1,0.3-12.5c8.3-4.6,16.6-9.1,25-13.6
		c25.7-14,51.3-28,77-42c24.4-13.3,48.7-26.7,73-40c16.3-8.9,32.8-17.6,49.2-26.5c26.3-14.4,52.6-29,79-43.5c1.6-0.9,4-1.6,5.6-1.2
		c4.7,1.2,9.3,2.9,13.7,4.8c3.6,1.6,6.7,1.5,10.1-0.3c6.3-3.5,12.9-5.4,20.3-4.8c13.6,1.2,27.3,2.1,40.9,3
		c12.4,0.8,24.7,1.3,37.1,2.1c7.7,0.5,15.4,1.4,23.1,1.8c5.7,0.3,11.5,0.1,17.8,0.1c-12.7-11.8-25.3-23.5-37.8-35.3
		c-14-13.2-27.9-26.5-41.8-39.8c-11-10.6-21.9-21.3-33-31.9c-6.8-6.5-13.8-12.9-19.9-18.5c-3.7,0-6.7,0.3-9.6-0.1
		c-7-0.9-14.7-1.5-19.9,2.8c-5.6,4.5-10.5,4.2-16.4,2.9c-7.4-1.6-14.6-2.8-20.2,4.6c-0.8,1.1-5.7,0.9-7.1-0.5
		c-2.2-2-3.4-5.4-4.3-8.4c-0.5-1.8-0.3-4.5,0.7-6c2.4-3.5,2.3-6.4,0.2-9.9c-2.2-3.6-3.6-7.7-5.9-11.2c-1.9-2.9-4.6-5.4-7.9-9.1
		c-1.2,5.3-1.6,8.9-2.8,12.2c-1,3-0.4,4.9,1.8,7c4.1,4.1,3.6,6.9-1.9,9.2c-2,0.8-4.5,1-6.7,0.9c-6.3-0.3-10.6,2-13.3,8
		c-2.7,6.1-8.1,7.7-14.5,5.6c-11.2-3.6-22.7-4.3-34.4-2.6c-3.2,0.5-6.5,1-9.8,1c-3.9,0-8.1-1.6-11.7-0.7c-7.8,1.9-14.4,0-21.2-3.6
		c-2.5-1.3-5.9-1.1-8.9-1c-5.1,0.2-10.7,2.4-15,0.8c-4.3-1.6-7.1-0.4-10.5,0.9c-8,3.1-16,6.3-24,9.6c-2,0.8-3.8,1.9-5.7,2.8
		c0.2,0.4,0.3,0.8,0.5,1.3c-2.3,0-4.8,0.4-7-0.1c-11.9-2.7-23.7-6.1-35.6-8.5c-13.9-2.8-27.3-8.5-41.9-7.3c-4.2,0.4-7-0.9-9.3-4.8
		c-1.9-3.4-5.4-5.8-7.7-9c-4.6-6.7-13.6-11-11.9-21.3c0.2-1.1-0.6-2.5-1.3-3.6c-3.2-5.3-6.4-10.6-9.9-15.7c-0.8-1.2-2.7-2.3-4.1-2.4
		c-19.3-0.5-38.5-0.9-57.8-1.1c-37.8-0.4-75.5-0.7-113.3-1c-0.8,0-1.6-0.2-2.3-0.3C2548,749.9,2553.9,750,2555.9,747z
		 M2067.8,1744.9c-4.6,3.6-8.6,1.4-12.8-1.3c-3.2-2.1-6.8-3.6-10-5.7c-5.3-3.5-12-6.2-15.2-11.1c-8.1-12.3-20.3-18.8-32.2-25.6
		c-4.3-2.5-7-5.4-8.6-9.9c-0.5-1.4-1.2-2.7-1.9-4c-4.5-8-7.4-9.4-16.4-8.3c-4.4,0.5-8.9,0.7-13.3,1c-3.7,0.3-7.4,0.7-11,1
		c-0.5,28.6-1,56.6-1.5,84.5c-6.4,0-12.4,0-18.4,0c0.2,2.1,0.6,4.1,0.6,6.2c-0.3,11.1,6,18.7,13.6,25.4c6.1,5.3,11.7,10.4,14.7,18.5
		c2.4,6.3,6.7,12.5,11.5,17.3c4.1,4.1,10.3,6.2,15.5,9.2c7.3,4.3,15.2,5.5,23.6,5c13.9-0.7,27.9-1,41.8-1.1c21.8-0.2,43.7,0,65.5,0
		c1.8,0,3.6,0,7,0c-0.8,4.5-1.5,8.3-2.2,12.1c-0.6,3.2-2.5,6.8-1.5,9.4c4.8,12.7,10.2,25.2,15.6,37.7c2.4,5.6,2.3,8.7-2.6,11.7
		c-6.4,3.9-9.5,10.5-14.5,15.5c-5.9,5.8-10.7,12.9-19.7,14.8c-6.3,1.3-12.6,3.1-18.7,5.2c-12.4,4.3-24.4,10-37.1,13.1
		c-9,2.2-17.2,4.3-23.8,11.2c-3.9,4.1-8.3,7.7-12.7,11.3c-6.5,5.5-13.8,10.3-19.6,16.5c-6.3,6.7-14.2,9.7-22.3,13.7
		c0.1,0.6,0.2,1.7,0.5,3.4c7.5-2.8,14.6-5.5,21.8-8.2c4.2-1.5,8.5-2.9,12.7-4.3c2.4-0.8,5.5-0.7,7.2-2.2c8-7,17.5-4.8,26.5-4.4
		c9.8,0.5,19.2,0.9,26.8-7.1c2-2.2,5.5-3.9,8.4-4.1c11.1-0.8,22.2-0.8,33.3-1.2c11.8-0.4,21.3,4.9,28.9,13c3.7,3.9,7.3,4.4,11.7,3.9
		c1.8-0.2,3.6-1.2,5.4-1.9c7.3-3,14.8-1.9,22.4-1c5.4,0.6,10.7,1.1,15.1,4.9c1.3,1.2,3.5,1.8,5.4,2c10,1.3,11.8,4.9,8.2,14.1
		c-5.1,13.3-9.5,26.9-14.1,40.4c-2.1,6.1-4.5,11.9-10.2,15.7c-0.9,0.6-1.4,2.1-2.2,3.4c6.9,0.8,10.3,4.6,10.4,11
		c0.1,4.5-0.2,9.1,0,13.6c0.6,10.7,1.9,21.4,1.8,32.1c0,7.8,3.2,14.6,4.9,21.8c1.5,6.5,2.1,11.8-3.1,17.5c-2.4,2.6-3.1,9.8-1.2,12.5
		c4.2,6,10.5,10.7,16.2,15.6c1.6,1.4,4.2,1.6,6.3,2.3c2.9,1,6,1.5,8.6,3.1c8.6,5.1,17,10.6,25.6,15.9c1.1,0.6,2.5,0.6,3.7,1.1
		c2.9,1.2,5.8,2.5,8.7,3.8c1.7,0.8,3.2,2.2,5,2.8c9.8,3.1,13.3,7.7,13.7,18.1c0.2,3.7,0.6,7.3,4.5,9.5c1.8,1.1,3.5,3.3,4.2,5.3
		c3.1,9.5,5.8,19.1,8.8,29.2c20,0,41.1,0,61,0c2.1-3.9,4-7.1,5.6-10.4c1.1-2.4,2.6-4.9,2.8-7.4c0.5-5.6,2.3-10.3,7.4-13
		c8.1-4.4,16.3-8.7,24.5-12.8c4.2-2.1,7.7-1.3,10.1,3.4c2.7,5.3,13.6,9,19,7c2.7-1,5.4-2.2,8.2-3.1c8.1-2.5,16.1-5.3,24.3-7.2
		c3.5-0.8,5.8-1.8,7.6-5.1c2.4-4.3,5.4-8.4,8.4-12.3c4.7-6,12.6-6.4,18.6-9.9c1.4-0.8,3.4-1.8,3.6-2.9c0.8-4.4,4.1-5.5,7.4-7
		c4.2-1.9,7.5-4.1,6.9-9.7c-0.4-3.9,0.1-8,1-11.7c1.1-4.3,3.2-7.9,8.6-8.7c4.4-0.7,8.8-2.4,12.9-4.2c8.6-3.9,16.9-8.2,25.5-12.2
		c7.8-3.6,16.9-4.6,21.7-13.5c1.5-2.9,5.4-2.6,8.5-0.8c4.7,2.6,7.9,1.7,8.5-3.3c1-8.4,6.2-11.5,13.6-13.1c2.3-0.5,5.5-1.6,6.3-3.3
		c4.3-9.2,12-10.6,20.9-10.5c3.7,0,8.3,0.4,11-1.5c6.3-4.3,12.5-3.8,19-1.9c4.3-7.7,5.1-8.6,10.3-8.5c7.4,0.2,14.8,1,22.1,1.4
		c1,0.1,2.2-0.3,2.9-0.9c4.9-5.1,9.7-10.2,14.4-15.4c14.3-15.6,28.8-31,42.7-47c4.1-4.7,12-8.4,8.1-17.2c-0.2-0.6,0.3-1.6,0.7-2.3
		c3.4-4.9,6.9-9.7,10.1-14.7c0.8-1.3,1.7-3.7,1.1-4.7c-3.6-6-7.3-12-11.6-17.4c-5-6.1-9.3-12-8.4-20.7c0.7-6.6,0.1-13.3,0.1-19.8
		c-1.6-0.6-2.8-1.2-4-1.4c-8.3-1.4-16.1-3.9-24.7,1.2c-4,2.4-10.9,0-16.4-0.5c-0.7-0.1-1.5-1.3-1.8-2.1c-1.1-3-2.8-6.1-2.9-9.2
		c0-8-3.1-7.5-8.8-6.1c-11.8,3-23.3,6.9-35,10.4c-7,2.1-13.9,5.3-21,5.8c-6.5,0.4-12,2.6-17,5.8c-16.3,10.5-33.3,18.9-52.8,21.8
		c-6.1,0.9-13.4,0.2-17.3,7c-0.3,0.5-1.4,0.6-2.2,0.9c-6.4,2.3-12.7,4.6-16.8,11c-2,3.2-5.5,2.4-8.3-0.1c-2.6-2.3-5.6-4.3-8.8-5.9
		c-5.7-2.9-11.9-3.4-18.3-3.1c-1.7,0.1-4.5-0.7-5.1-1.9c-2.2-4.3-5.8-4.2-9.7-4c-3.5,0.1-7-0.3-10.5,0.1c-5.6,0.6-11.1,1.3-15.7,5.6
		c-2.5,2.4-6.1,3.9-9.4,5.2c-2.3,0.9-5,0.9-7.4,1.3c-0.5,9.3-2.5,10.7-11.2,12c-5.7,0.8-11.3,3-16.7,5.3c-4.5,1.9-7.1,1.7-10.6-2
		c-3.2-3.3-6.6-6.4-10.3-9.3c-3.2-2.5-7.1-4.1-10.1-6.8c-5-4.4-9.5-9.3-14.3-13.9c-2.5-2.4-5.2-4.6-7.7-6.9
		c-7.3-6.6-14.6-13.2-21.8-19.8c-3-2.8-6.2-5.4-8.6-8.6c-3.5-4.5-2.7-7.2,2-10.2c12.1-7.7,24.3-15.3,36.3-23.2
		c1.3-0.8,1.8-2.8,2.7-4.2c-1.6-0.5-3.2-1.5-4.8-1.5c-3.3,0-6.5,0.9-9.8,0.8c-1.8-0.1-4.3-0.9-5.1-2.3c-1.4-2.5-2.5-5.6,0.7-8
		c1.6-1.2,3.4-2.2,4.5-3.8c1.5-2.4,3.6-5.2,3.4-7.7c-0.3-4.2-3.7-5.9-8-5.2c-2.6,0.4-5.2,1.1-7.8,0.9c-9-0.5-18.1-1.1-27.1-2
		c-4.8-0.5-7.8,0.7-10.1,5.3c-3.6,6.9-7.6,13.8-16.3,15.7c-5.6,1.3-9.4,5-12.4,9.7c-0.5,0.8-1,1.8-1.8,2.2c-7.5,3.8-15,7-23.8,6.2
		c-6.6-0.6-12-2.5-16.9-7.6c-7.8-8-14.3-16.3-14.8-28.1c-0.1-2.6-1.6-5.1-2.6-7.6c-1-2.4-2.5-4.6-3.1-7.1
		c-1.4-5.4-2.4-10.8-3.4-16.3c-0.6-3.5-2.3-5.8-5.8-7c-2.6-0.9-5.4-1.8-7.4-3.5c-8.1-7-15.9-14.4-23.7-21.7
		c-0.7-0.6-1.2-1.6-1.5-2.5c-2-7.2-5.1-12.3-13.9-12.8c-7.1-0.4-13.8-3.1-21.2-0.2c-4.7,1.9-7.3,3.5-6.3,8.8
		c0.1,0.4-0.3,0.9-0.7,1.7c-4.5-0.4-9.1-1.1-13.7-1.2c-14.9-0.2-25.7-8.8-28.4-23.3c-0.8-4.3,0-8.9,0-14.5
		C2076.3,1771.3,2075.9,1756.4,2067.8,1744.9z M2456.9,1616.9c6.6-7.8,13-14.6,21.9-18.2c0.4-0.2,0.8-0.5,1.3-0.7
		c6.8-3.1,13.4-6.6,20.3-9c8.8-3.1,10.4-4.6,9.5-13.7c-0.1-0.8-0.5-1.6-0.5-2.4c-0.1-4.5-1.2-9.3,0.1-13.3c1.5-4.8,0.8-8.9,0.1-13.4
		c-0.4-2.4-0.8-5.1,0-7.2c2.6-6.5,5.9-12.6,8.8-19c3-6.5,5.7-13.3,5.2-20.6c-0.6-9.8-1.9-19.6-2.6-29.4c-0.3-3.8,1.9-6.4,5.4-8
		c26.1-12.1,52.1-24.1,78.1-36.4c1.5-0.7,2.8-2.9,3.4-4.6c1.3-4.3,1.5-9.1,3.2-13.2c2-4.8,0.9-8.6-1.5-12.7
		c-2.3-3.9-2.4-7.8,0.3-11.9c3.5-5.4,6.8-11,9.2-16.9c1.1-2.7-0.5-6.4,0-9.5c2.1-13.2-0.3-26.3-0.1-39.5c0-1.2,0.2-2.4-0.1-3.5
		c-2-9.2,1-17.7,3.1-26.4c1.2-5.2,1.8-11.1,0.7-16.2c-2.5-11.8-7.8-23-6.8-35.5c0.1-1.8-1-3.7-1.4-5.6c-0.9-3.8-2-7.5-2.4-11.3
		c-0.7-6-2.7-10.8-8.5-13.8c-5.7-2.9-11.3-5.9-16.6-9.5c-17.2-11.6-36.1-19.3-55.7-25.6c-1.7-0.6-3.9-0.5-5.6,0
		c-13.7,4.2-27.5,8.1-40.9,13c-14.4,5.2-29,7.7-44.3,7.3c-15.2-0.4-30.3-0.2-45.5,0c-3.7,0-6.1-1-8.1-4.3c-1-1.7-3.7-3.8-5.3-3.5
		c-14.7,2.7-29.4,5.9-44,8.9c-22.2,4.6-44.3,9.1-66.5,13.9c-1.6,0.3-3.4,2.2-4,3.7c-3.8,10.8-1.8,21.8-0.8,32.8
		c0.9,9.8,3.9,18.8,9.8,26.7c1.6,2.1,3.7,3.9,4.8,6.1c4.2,8.8,8.1,17.8,12.1,26.7c3.7,8.2,7.5,16.3,11.1,24.5
		c1.2,2.7,2.2,5.6-2.2,6.3c-21,3.7-42.1,7.3-63.1,11.1c-17.5,3.2-34.9,6.6-52.4,9.9c-17.1,3.2-34.2,6.3-51.7,9.4
		c1.8,5.2,2.6,10.6,5.3,14.9c9.3,14.8,14.9,31,21.2,47c1.1,2.9,3.7,6.5,6.3,7.1c3.5,0.9,4.7,3.1,6.3,5.5c4.8,6.9,9,14.4,14.5,20.7
		c6.5,7.5,14.4,13.7,21.3,20.8c2.6,2.7,4.1,6.5,6.3,9.7c1.4,2.1,2.8,4.2,4.6,6c3.7,3.7,7.8,7.1,11.3,11c5.1,5.5,6.6,13.9,14.2,17.6
		c1.9,0.9,3.5,2.9,4.6,4.8c6.4,10.9,12.6,21.9,19,32.8c0.7,1.2,2.6,2.6,3.5,2.4c10.4-2.3,20.8-5,31.2-7.6c2.7-0.7,5.4-1.3,8-2.2
		c7.9-2.6,15.7-5.3,23.5-8c2.9-1,5.7-2.1,8.6-3c5.8-1.6,11.8-2.5,17.4-4.7c11.2-4.4,22.2-9.5,33.2-14.4c5.5-2.5,10.6-4.4,16.7-0.7
		c4.8,2.9,10.4,4.4,15.5,6.9c2.1,1,4.8,2.8,5.4,4.7c0.9,3.1,0.8,6.7,0.1,9.9c-0.9,4.1-1.3,9-6.7,10.5c-0.6,0.2-0.9,2.2-0.9,3.3
		c0.1,3.7,0.1,7.5,0.6,11.2c0.6,4.4,0.4,9.5,2.7,12.8c6.1,9,13.4,17.2,20.2,25.6C2451.1,1610.2,2453.8,1613.2,2456.9,1616.9z
		 M2561.2,750.5c9.6,0.5,18.8,1.3,28,1.4c45.3,0.5,90.5,0.7,135.8,1.1c0.5,0,1.1-0.2,1.5,0c1.4,0.7,3.5,1.1,4,2.2
		c3.8,8.4,11.2,15,12.9,24.5c0.1,0.8,1,1.5,1.7,2.2c5,5.7,10.3,11.1,14.9,17c4.5,5.9,8.9,10.8,17.3,9.1c2.4-0.5,5.1-0.5,7.5,0
		c20.6,4.8,41.1,9.8,61.7,14.8c2-4.1,2.4-4.2,5.9-1.6c0.6,0.5,1.9,0.6,2.6,0.3c8.3-3.4,16.4-7,24.7-10.3c2.2-0.9,4.8-1.3,7.2-1.2
		c4.7,0.1,9.4,0.7,14.2,0.9c1.6,0.1,3.2-1,4.8-0.8c4.3,0.5,8.8,0.8,12.9,2.3c4.9,1.8,9.1,3.9,14.9,2.9c5.9-1,12.3,1.2,18.2,0.2
		c7.2-1.2,14.1-4.3,21.5-0.6c0.6,0.3,1.6-0.1,2.4-0.1c5.8,0.5,11.6,0.5,17.2,1.7c4.8,1,8,0.8,9.5-3.1c2.7-6.9,7.8-9.7,15-9.4
		c2.1,0.1,4.2-0.3,5.9-0.4c-1.2-3-3.2-5.4-2.9-7.6c0.7-5.8,2.3-11.5,3.9-17.1c0.3-1.2,2.3-2.6,3.7-2.8c7-0.7,11.2,3.5,14.3,9.1
		c2.5,4.7,5.2,9.5,7,14.5c1.1,2.9,2,7.6,0.5,9.5c-3.9,4.8,0,6.7,2.4,10.4c1.9-6.4,6.6-5.7,11-5.6c2.7,0.1,5.4-0.4,8,0.1
		c6.2,1.2,11.1,1.5,17.6-2.4c6.4-3.9,15.8-2.7,23.7-3.8c-0.6-0.6-1.7-1.9-2.9-3c-10.9-10.2-21.6-20.5-32.7-30.6
		c-3.3-3-3.4-6.6-2.3-9.9c3.3-10.4,7.1-20.6,10.8-30.8c1.1-3,2.2-6.6,4.5-8.5c7.3-6.1,14.7-12,22.8-16.9c6.7-4.1,14.3-6.5,21.7-9.8
		c-12.3-18.2-24.4-36-36.4-53.9c-1.8-2.7-3.7-3.1-6.9-1.9c-39.8,15.3-79.6,30.6-119.5,45.7c-5.6,2.1-11,5.4-17.7,2.2
		c-26-12.3-52.2-24.1-78.2-36.3c-7.3-3.4-14.9-5.7-23-6.1c-12.3-0.5-24.5-0.7-36.8-1c-13.9-0.4-27.9-0.7-41.8-1
		c-0.8,0-1.6-0.2-2.5-0.3c-6-0.3-12.1-0.7-18.1-1c-0.6,7.2-1.2,13.6-1.7,19.5c-32.3,0-64.4,0-97,0c0.5-2.3,0.2-4.5,1.1-5.4
		c5.6-4.9,9.1-12.3,17.4-13.9c3.5-0.7,4.4-2.7,2.8-6.2c-2-4.4-3.9-8.9-4.9-13.6c-1.1-5.4,0.1-10.7,2.9-15.7c2.2-4.1,0.6-6.5-2.9-8.7
		c-2.5-1.6-4.1-4.8-6.1-7.2c-0.9-1.1-1.6-3-2.8-3.3c-5.1-1.6-10.3-2.9-15.5-4.2c-5.7-1.4-11.4-2.6-17.1-3.8c-4.1-0.8-8.2-2-12.3-2.1
		c-6.1-0.1-12.2,0.6-18.3,0.8c-5.2,0.2-10.3-0.1-15.5,0.1c-14.7,0.6-29.4,1.4-44.1,1.7c-1.6,0-3.8-2.1-4.6-3.7
		c-2.9-5.8-3.3-12.1-4-18.5c-1.1-10.2,0.4-13.4-12.4-15.6c-1.3-0.2-2.7-0.4-3.7-1c-1.7-1.1-3.7-2.5-4.3-4.2c-0.4-1,1.7-2.9,2.8-4.3
		c1-1.4,2.7-2.6,2.8-4c0.6-6.2,1.2-12.5,1-18.8c-0.3-9-1.4-18.1-1.8-27.1c-0.2-4.2-0.6-7.2-5.9-6.6c-1.1,0.1-2.5-0.8-3.3-1.6
		c-3.5-3.5-2-7.1,0.4-10.9c-1.4-0.9-2.5-2.1-3.8-2.3c-5.1-1-7.5-4.4-8.4-9c-0.4-2.3,0-4.7,0-7c0-9.3-2.2-18.1-5.9-26.6
		c-0.6-1.3-1.6-2.7-2.7-3.3c-3.8-2.2-7.8-3.8-11.6-6c-5.7-3.3-11.2-7.1-17-10.1c-6.6-3.5-12.5,0.4-13.8,8.1c-0.7,4-2.7,7.9-4.2,11.7
		c-1.1,2.7-3.1,5.1-3.5,7.9c-3,18-13.1,30.5-29.3,38c-4.7,2.2-9.8,2.7-11.1,8.8c-0.1,0.7-1,1.3-1.6,1.8c-8.4,6.5-17,12.8-25.2,19.5
		c-1.8,1.5-2.5,4.3-3.9,6.4c-2.8,4.5-4.9,9.7-8.7,13.2c-2.9,2.7-5,5-5.4,9c-0.5,6-1.2,12.1-2,18.1c-0.6,4.3-3,8.1-7,9.2
		c-5.5,1.5-4.3,4.9-3.3,8.3c0.5,1.9,1.3,3.8,2.5,5.3c3.2,4.1,2,8.6-0.7,11.2c-5.5,5.3-5.7,11.6-5.5,18.2c0.1,2.7,0,5.3,0,8
		c0.1,5.2-1.6,9.6-5.5,13.1c-2.9,2.7-5.9,5.3-9.6,8.6c13,4.3,23.8,11.3,36.8,10.5c0.9-0.1,2.1,0.3,2.6,0.9c3.2,3.4,6.6,6.8,9.4,10.5
		c9.5,12.6,21,20.1,37.8,16.8c3.3-0.6,7.8,0.5,10.5,2.5c7.5,5.6,14.5,11.9,21.4,18.3c2.9,2.8,5.8,2.5,7.7,0.1c4-5.3,9.9-5.2,15.3-6
		c3.7-0.5,6.3-1,8.1-4.8c0.9-1.9,3.6-3.8,5.7-4.3c9.1-2,18.6-1.7,26.9,2c5.2,2.4,9,8.2,13.1,12.8c1.2,1.3,1.7,3.6,1.7,5.4
		c0,4.6,2.4,7.4,6.2,9.2c4.6,2.3,7.1,5.6,7,11.1c-0.2,7,9.4,19,15.6,20.3C2555.9,734.3,2560.6,739.5,2561.2,750.5z M2643.6,1917
		c-2.6-2.1-4.3-3.4-6-4.8c-10.9-8.9-21.8-17.9-32.7-26.8c-8.7-7.2-17.8-14-26.2-21.6c-7.6-6.8-17.9-11.5-17.8-24.6
		c0.1-11.5-1.8-22.9-2.9-34.4c-0.8-8.5-2.2-16.9-2.7-25.4c-0.4-6.8-2.9-14,1.7-20.5c1.2-1.7,1.9-3.9,3.3-5.4
		c5.6-6.3,6.3-12.8,2.1-20.3c-1.3-2.3-2.2-3.4-4.6-3.2c-6.7,0.7-13.4,1.3-20.1,2.2c-9.6,1.2-19.1,2.6-28.7,3.8
		c-9.1,1.1-18.2,2.1-27.4,3.2c-9.6,1.2-19.1,2.6-28.7,3.8c-9.4,1.2-18.9,2.1-28.3,3.3c-9.6,1.2-19.1,2.5-28.7,3.7
		c-9.1,1.1-18.3,1.7-27.3,3.4c-10.7,2-16.9-1-20.6-11.3c-0.2-0.6-0.6-1.2-0.9-1.7c-9.1-18.3-12.9-37.9-14-58.2
		c-0.3-5.6-3.3-8.2-8.7-7.1c-14,2.9-27,13.7-29.4,28.9c-0.6,4-2.6,7-6.4,9.3c-12,7.2-23.8,14.9-35.7,22.3
		c-9.8,6.1-19.5,12.4-29.6,18.2c-6.7,3.8-14.2-1-14.3-8.5c-0.3-18.9-0.7-37.9-1-56.8c0-0.8,0.3-1.8-0.1-2.5
		c-2.1-3.4-0.2-5.6,2.2-7.6c8.5-7.2,17-14.5,25.6-21.7c2.4-2,3.2-3.3,1.2-6.7c-10.1-16.2-19.7-32.7-29.3-49.2
		c-1.8-3.2-3.7-4.3-6.9-2.8c-6.4,3.1-12.3,1.8-18-1.9c-0.8-0.5-2-0.7-2.9-0.5c-9.9,2.7-19.7,5.5-29.6,8.2
		c-20.9,5.7-41.7,11.4-62.6,17.1c-11.7,3.2-23.4,6.5-35.2,9.8c0.4,1.9,0.6,3.4,1,5c7.2,24.7,14.4,49.3,21.5,74
		c1.6,5.5,3.4,11.2,0.7,16.7c-3.5,7.4-2,14.7-0.8,22c0.8,4.8,4.4,8.1,9,7.5c3.7-0.5,5.9,0.4,7.3,4c0.4,1,2.6,1.8,4,1.8
		c5.8,0.2,11.7-0.1,17.5,0.2c1.5,0.1,3.9,1.2,4.1,2.2c0.8,4.2,1.1,8.5,1.1,12.7c0,2.1-1.7,4.2-1.8,6.4c-0.3,5.3-0.1,10.7,0,16.1
		c0.1,4.1,0.4,8.2,0.6,12.2c2.4,0.4,4.6,0.7,7.5,1.1c-2-7.1,2.6-8.8,8.1-9.8c0.6-0.1,1.2-0.4,1.9-0.6c6.1-1.6,11.9-3.9,18.5-0.7
		c3.8,1.8,8.6,1.4,12.9,2.3c1.6,0.3,3.5,1.3,4.3,2.6c4.2,6.7,6.3,15,14.7,18.5c1.1,0.5,1.6,2.4,2.4,3.6c4.4,5.8,9.4,11.4,16.5,13.7
		c6.4,2.1,9.5,5.6,10.7,12.2c1.2,6.8,3.4,13.5,5.4,20.2c0.9,3.2,3.1,6.2,3.3,9.3c0.8,13.4,11.3,27.6,23.8,31.5
		c8,2.5,20.7-0.8,25.4-7.6c3.1-4.5,7-7.8,11.9-9c8.2-2.2,12-8.2,15.5-15c2.9-5.6,9.1-8.2,15.4-6.9c11.3,2.4,22.5,4.2,34.1,1
		c2.7-0.8,7,0.7,9.4,2.6c7.3,6,6.3,15.2-1.7,20.9c-1.3,0.9-2.5,2.1-4.4,3.8c1.8,0.2,2.5,0.5,3.1,0.4c2.6-0.4,5.1-0.9,7.7-1.4
		c3.9-0.8,9.4,1.2,10.1,3.8c1.4,5.6-0.2,9.4-5.3,12.7c-12.2,7.9-24.4,15.7-37.7,24.2c3.8,3.2,7.4,5.8,10.6,8.8
		c13.3,12.2,26.5,24.7,39.9,36.7c7.1,6.3,14.9,11.9,21.9,18.2c2.6,2.4,4.5,2.5,7.6,1.4c5.3-1.9,10.9-3.2,16.3-4.6
		c3.7-0.9,7.2-1.4,5.8-6.9c-0.3-1.3,1.7-3.8,3.2-4.7c1.9-1.1,4.4-0.9,6.6-1.5c2.8-0.8,6.6-1,7.9-2.9c4.6-6.4,11.2-7.5,18-8.1
		c6.6-0.6,13.2-0.9,19.8-0.9c1.4,0,3.5,1.1,4.2,2.3c2.1,3.8,5,5.3,9.3,4.6c1.8-0.3,3.7-0.4,5.5,0c7.6,1.6,15.3,3,20.3,9.1
		c3.1-2.6,6-6.3,9.7-7.7c5.1-2,9.5-5.1,14.2-7.5c5.9-2.9,13.1-3,19.6-5c9.9-3,19.8-6,29.3-10.1c8.3-3.6,15.9-8.7,23.8-13.2
		c2.2-1.3,4.3-2.8,6.3-4.2c-1.8-5.3-3.6-10.2-5.2-15.1c-1.9-5.8-0.8-8.5,4.6-11.1C2633.5,1921.3,2637.8,1919.6,2643.6,1917z
		 M2015.6,1357.5c0.5-2.1,0.4-4.3,1.3-5.8c13.9-23.8,28-47.5,41.9-71.3c1.6-2.8,3.8-5.8,3.9-8.8c0.1-6.7-1.1-13.4-1.5-20.1
		c-0.3-6.8-0.7-13.7-0.2-20.5c0.5-7.2,2.8-14.3-0.3-21.6c-1.8-4.2-2.8-8.7-3.8-13.1c-1.4-6-1.4-12.5-3.7-18.1
		c-3.9-9.6-5.4-19.5-5.3-29.7c0-2.8,0.5-5.8-0.2-8.5c-0.6-2.2-2.4-5.5-4-5.6c-7.8-0.9-15.7-1-23.2-1.3c0.9,5.2,2.5,9.8,2.2,14.4
		c-0.7,10.5-5.5,19.7-11.8,28c-2.6,3.5-4,6.9-4.1,11.2c-0.1,2.6-1,5.7-2.7,7.5c-5.1,5.3-10.8,10-16.2,14.9c-2.7,2.5-6.1,4.7-7.8,7.7
		c-1.7,3-0.8,7.3-2.4,10.3c-2,3.9-4.7,9.1-8.2,10.2c-8.9,2.7-18.3,2.7-27.4-1.1c-7.3-3-15-5.4-22.8-7c-13.1-2.8-25-7.3-33.2-18.5
		c-1.5-2.1-2.6-4.5-3.9-6.8c-0.5-0.1-1-0.2-1.5-0.3c-0.3,13.5-11.2,19.1-19,26.7c-3.3,3.2-8.3,4.3-9.6,9.8c-0.3,1.2-2.6,1.9-3.6,3.1
		c-2.6,3.2-6.3,6.3-7.3,10.1c-1.6,6-4.1,10.8-9.2,14.4c-1.1,0.8-1.8,3.6-1.2,4.8c2.9,6.4,3.4,13,3,19.8c-0.1,1.3,0.1,2.9,0.8,4
		c4.2,6.2,8.7,12.2,12.9,18.3c0.6,0.9,0.7,2.2,1.3,3.2c1.2,2.2,2.4,4.4,3.7,6.5c1.6,2.5,4.4,4.6,5.1,7.3c1.3,5.2,2.9,10.9,1.8,15.9
		c-1.2,5.7,1.5,8.1,4.6,11.4c8.4,8.9,16.5,18,23.6,25.8c4.7,0,8.6-1.1,11.1,0.2c5.4,2.9,10.3,6.9,15.1,10.8
		c4.3,3.6,7.1,8.9,14.6,6.7c2-0.6,6.5,3.1,8.1,5.8c2,3.4-2.2,4.6-4.5,6.2c-5.8,3.9-11.5,7.9-17.4,11.9c2.9,2.1,5.4,3.6,7.5,5.6
		c0.9,0.9,1.2,2.8,1,4.2c-1,6.2-2.7,12.4-3.2,18.7c-0.4,6.1,0.6,12.2,0.8,18.3c0.1,2.7-0.6,5.5-0.8,8.3c-0.2,3.9,0.4,7.8-0.3,11.5
		c-0.7,4.1-3,7.9-3.8,12c-1.9,9.6-3.4,19.3-5,28.9c-0.3,2.2-1,5.5,0.1,6.5c5.4,4.6,10.9,9.6,17.3,12.3c5.7,2.4,9.9,4.6,11.3,10.9
		c2.5,10.9,5.2,21.9,8.2,32.7c2.9,10.6,6.8,21,9.2,31.8c0.8,3.8,0,9.8-2.6,12.2c-10.6,10-9,22.1-8.4,34.5c6.6,0,12.9,0.1,19.2,0
		c6-0.1,11.9-0.5,17.8-0.6c0.8,0,1.9,0.7,2.4,1.4c2.8,4.4,6.1,8.6,8.1,13.3c3.7,8.7,12.6,10.4,19.2,14.7c5.4,3.5,10.3,7.2,14.6,11.8
		c6.8,7,12,15.8,22.4,18.5c2.5,0.7,5,2.4,7.1,4.1c3.4,2.8,6.7,4.5,9.7,2.2c1.2-4.7,2.4-8.2,3-11.8c0.7-4.1,1.8-8.5,0.9-12.3
		c-3.1-12.6-7.1-25-10.7-37.5c-4.5-15.8-9-31.6-13.5-47.4c-0.7-2.6-0.7-4.1,2.6-5c18.7-5,37.3-10.3,56-15.4
		c25.4-7,50.8-13.9,76.1-21.2c5.3-1.5,10.9-3.5,15.2-6.8c2.8-2.2,5.1-3.1,8.4-3.6c7.7-1.3,15.2-3.2,22.8-5.1
		c6-1.5,11.8-3.3,17.8-4.8c6.5-1.6,13.1-2.8,19.7-4.2c-5.3-9.6-10.3-18.4-15-27.5c-2.8-5.5-6.3-10.1-11.5-13.5
		c-2.2-1.5-4.2-3.7-5.4-6c-4.3-7.9-9-15.2-17.2-19.7c-1.4-0.8-2.8-2.6-3.3-4.2c-2-6.5-6.3-11.4-11.1-16
		c-9.9-9.8-20.4-19.2-28.2-31.1c-3.1-4.7-5-10.4-11.6-12c-2-0.5-3.7-3.6-4.7-5.9c-3.9-9.4-7.1-19.1-11.3-28.4
		c-5.8-13.1-12.3-25.9-18.6-39.1c-9.8-0.4-20.7-1.1-31.6-1.4c-20.1-0.5-40.2-0.6-60.3-1.1C2029,1358.8,2022.8,1358,2015.6,1357.5z
		 M2014.1,1006.6c1.2,2,2.5,3.7,3.5,5.5c2.6,5.1,6.1,10,7.2,15.4c1.4,7.4,0.6,15.2,1.4,22.7c1,9.6,2.7,19.1,4.3,28.6
		c1.3,7.5,1,14.9-2.3,21.6c-2.8,5.6-4.4,11.1-4.1,17.4c0.1,2.9-1,5.9-1.7,9.5c1.2,0.2,3.1,0.6,5.1,0.8c9.1,1,18.2,2,27.3,3.1
		c3.4,0.4,6.9,2.3,10,1.7c10.7-2.1,19.9,1.3,28.9,6.3c3.1,1.8,5.8,3.4,10,2.2c4.4-1.3,9.7-2.2,13.6,0.9c7,5.5,14.9,5.5,23.2,6.1
		c10.1,0.7,19.1,5.1,25.8,13.2c3,3.6,5.9,6.7,11.7,4.7c7.7-2.6,13.8,0.6,18.4,7.3c3.3,4.8,11.1,6.4,16.8,4.7c6.6-2,13-5.3,20.4-4.3
		c1.7,0.2,3.8-1.4,5.6-2.4c6.3-3.3,12.4-7.3,20.2-4.5c4.5,1.6,9.5,1.9,14.2,3.3c1.1,0.3,2.5,2.3,2.4,3.4c-0.2,4.2-5.3,9.2-9.4,10
		c0.8,5.4,1.5,10.8,2.3,16.4c37.6-7.7,75.3-15.4,113.2-23.2c-4.4-12.9-8.8-25.1-12.7-37.5c-1.1-3.3-1.7-7.4-0.9-10.6
		c1.7-6.4,4.7-12.4,7.1-18.6c2.8-7.5,2.3-14.7-1.6-21.7c-2.3-4-0.7-8.2,3.8-9.6c2.5-0.8,5-1.4,7.6-1.8c17.3-2.5,27.8-13.6,33.4-28.9
		c2.4-6.5,6.1-9.8,11.4-12.7c1.3-0.7,2.7-1.2,3.9-2c5.9-3.5,12.8-5.9,13.1-14.6c0.1-2.1,2.2-4.3,3.7-6.1
		c6.7-8.5,13.2-17.2,20.5-25.1c4.5-5,7.7-12.2,16.2-12.4c5.2-0.2,3.2-4.4,3.4-7.2c0.3-3.3,0-6.7,0.7-9.9c0.9-4.3-0.1-7.7-1.6-10.3
		c-4,1.9-7.3,3.9-10.8,5.1c-7,2.4-14.1,4.4-21.5,2.1c-0.3-0.1-0.7,0-1,0.1c-6.9,3.7-14.3,6.8-20.5,11.5c-5.5,4.1-10.4,7.3-17.7,6.5
		c-7.9-0.9-13.3,3.2-16.8,10.3c-3.5,7.3-10.4,10.1-17.8,10.2c-4.3,0.1-8.1,0.6-12.2,1.8c-3.2,1-6.8,0.8-10.2,1.6
		c-8.2,1.7-16-1.9-24.5-0.5c-16.7,2.6-32.6-1.7-45.2-14.1c-4.4-4.3-8.4-9-12.7-13.6c-3.6-3.8-8.4-3.9-14.3-0.3
		c-4.6,2.8-8.8,2.2-10-2.2c-1.3-4.8-4.4-5.9-8.4-6.3c-14.4-1.5-27.7-6.7-40.4-13.1c-10.5-5.3-20.4-11.6-30.4-17.8
		c-6.4-3.9-13.1-7.8-20.5-6.8c-5.2,0.7-9.3-0.8-13.5-2.5c-3.2-1.2-5.7-1.9-9.2-0.3c-3,1.4-6.8,1.7-10.1,1.3
		c-8.7-1.1-17.6-2.1-26-4.4c-8.3-2.3-15.5-3.9-21.9,4.1c-2.3,2.8-6.8,4.6-10.5,5.2c-5.4,0.9-11,0.5-16.5,0.1
		c-7-0.5-12.4,0.9-17.1,6.9c-3.9,5.1-9.7,8.8-14.7,13.1c-2,1.7-3,3.3-1.7,6.3c3.3,8,3.3,16.4,0,24.4c-1.2,2.9-0.5,5,1.4,7.1
		C2021.5,990.4,2022.7,999.4,2014.1,1006.6z M2519.9,539.4c1.8,0.5,3.8,1,5.8,1.6c5.5,1.7,9.5,4.6,9.4,11.1c0,4.3,0.2,8.6,1,12.8
		c0.9,4.2,2.1,8.7,4.4,12.2c0.8,1.2,5.4,0,8.2-0.2c0.5,0,1,0,1.5,0c19.8-0.3,39.5-0.7,59.3-1c0.3,0,0.7,0.1,1,0
		c10.3-3.2,20.2,0,29.8,2.9c18.6,5.7,37.4,8.6,56.9,7.2c2.8-0.2,5.7-0.2,8.5,0c6.9,0.5,13.9,1.1,21.4,1.7c4.8-8.7,10.1-18.4,15.7-28
		c0.8-1.3,2.9-2.6,4.5-2.6c5.1,0,10.2,0.6,15.3,0.8c9.1,0.4,18.2,0.7,27.3,1c20.4,0.7,40.7,1.3,61.1,2c10.3,0.3,20.5,0.7,30.8,1
		c21.7,0.7,43.4,1.4,65.1,2c18.6,0.5,37.2,0.7,55.8,1c0.7,0,1.3,0,2,0.1c13.8,0.6,27.7,1.3,42.4,2c-30-48-59.7-95.4-89.6-143.2
		c-2,3.2-3.5,5.7-5,8.2c-12.5,20.3-24.9,40.6-37.5,60.8c-3.5,5.6-7.9,10.6-12.1,15.7c-1.8,2.2-4.6,3.8-6.1,6.2
		c-3.3,5.2-6,10.8-9.3,16.1c-2.5,4.1-5,8.5-8.4,11.8c-2.2,2.2-6.4,2.4-9.1,4.4c-6.6,4.7-13.1,4.7-20.3,1.4
		c-4.1-1.9-8.6-2.9-12.9-4.5c-1.5-0.5-3.2-1.1-4.3-2.1c-4.2-3.7-8.3-7.5-12.5-11.4c-8.9-8.2-17.7-16.4-26.6-24.6
		c-15-13.9-29.9-27.8-44.8-41.8c-9-8.5-17.7-17.3-26.8-25.7c-9.8-9.1-19.8-18-29.8-26.8c-7.8-6.8-15.6-13.7-23.9-19.7
		c-6.4-4.7-12.6-9.3-17.6-15.6c-5-6.3-10.9-11.8-16.4-17.6c-2.5-2.6-5.1-5-7.5-7.6c-4.4-4.9-8.8-9.8-13-14.9
		c-3.7-4.7-6.7-10.1-10.7-14.5c-4.3-4.7-9.7-8.4-14.4-12.7c-5-4.5-9.9-9.3-14.9-13.8c-5-4.5-10.7-7.9-17.5-9.1
		c-11-2-17.8-8.8-19.7-19.7c-0.8-4.5-2.8-7.6-5.9-10.4c-16.1-14.4-32.2-28.9-48.3-43.3c-3-2.7-6.2-5.2-9.6-8
		c-2.3,5.4-4.5,10.5-6.7,15.5c-2.3,5.2-4.5,10.4-7,15.5c-1.6,3.2-3.4,6.3-5.5,9.2c-7.8,10.9-13.1,22.7-2.3,35
		c8.8,10,12.2,22.1,8.1,35.5c-0.5,1.6,0.4,3.9,1.3,5.5c3.2,5.5,3.3,11.1-1,15.8c-5.8,6.3-12.5,11.8-17.9,18.4
		c-3.2,3.8-5.1,9-6.5,13.9c-1.5,5.1-1.8,10.6-2.6,15.9c-0.2,1.4-0.4,3,0.1,4.1c2.3,4.4,4.9,8.6,7.1,12.5c2.3-2.2,4.3-5.5,6.9-6.3
		c4.3-1.2,9-1.1,13.4,1.6c8.1,5,16.7,9.1,24.9,13.8c5,2.9,7.9,7.4,10,12.9c3.2,8.6,4,17.5,3.9,26.6c0,3.6,0.8,6.3,4.6,8.2
		c9.6,4.6,9.8,6.3,6,14.3c7.9,0.6,9.3,1.6,11.1,8.6c0.3,1.1,0.3,2.3,0.3,3.5c0,16.4,0,32.7,0,49.1
		C2520.9,535.7,2520.3,537.4,2519.9,539.4z M1895.5,1388.2c-3.3,2.8-5.4,7-9.3,3.3c-3.9-3.6-7.7-7.4-11.1-11.5
		c-5.7-7.1-10.7-14.9-17.6-19.1c-7.5,7.5-14.3,15.1-21.9,21.8c-9.7,8.5-19.6,17-32.6,20.2c-9.8,2.4-17.4,7.9-24.3,14.8
		c-4.9,4.9-10.4,9.1-15.5,13.7c-5.2,4.7-10.3,9.7-14.9,14.1c5.8,7.3,11.3,14.2,16.8,21c3.5,4.3,6.9,8.6,10.6,12.6
		c4.4,4.7,9.1,9,13.6,13.6c3.3,3.3,6.2,7.2,9.9,9.8c7.4,5.1,7.7,10.1,0.3,15.3c-2.1,1.5-4.6,2.7-6.2,4.7c-4.2,4.9-8.7,8.8-15.6,8.6
		c-1.2,0-2.5,0.7-3.5,1.3c-5.6,3.2-11,6.9-16.8,9.7c-3.1,1.5-6.8,1.6-10.7,2.5c5.4,7,10.4,13.6,15.6,20.1
		c7.8,9.8,17.1,18.7,16.3,32.9c-0.2,2.9,1,6.6,2.8,8.9c3.1,3.8,4.9,7.3,4.8,12.3c-0.2,13.4-1.4,27,3.6,39.8
		c9.7,1.4,19.1-0.3,28.3-3.1c6.5-2,12.6-3.2,16.9,4.6c2.5,4.5,6.3,8.3,9.4,12.5c3.6,4.9,8.3,9.4,10.5,14.9
		c3.4,8.7,0.7,17.8-1.9,26.4c-1.6,5.2-5.4,9.8-6.6,15.1c-1.8,7.8-4.8,14.5-10.6,20c-2.6,2.4-4.2,5.8-7,9.7
		c38.1,0.6,74.5,1.2,112.4,1.7c0-19.8,0-39.5,0-59.2c0-13.5,0.6-27-0.2-40.5c-0.5-9.4,2.4-16.6,8.8-23c2.7-2.7,3.3-5.9,1.5-9.5
		c-0.8-1.6-1.5-3.3-1.9-5c-5.1-19.5-10.3-39-15-58.6c-0.8-3.3-2.2-5-5-5.6c-7.6-1.4-12.8-6.7-18.8-11c-5.4-3.8-6.3-7.9-4.5-13.8
		c1.3-4.5,1.4-9.4,2.2-14c1.1-6.8,0.8-14.3,3.8-20.1c4.8-9.2,3.8-19,3.4-28c-0.4-8.7,0.7-17.3-0.2-25.9c-0.2-1.5,0.3-3.3,0.8-4.8
		c1.6-4.5,0.9-7.9-3.8-9.9c-1-0.5-2-1.2-2.9-1.8c-3.2-2.4-3.2-4.7,0.2-7c6.7-4.5,13.4-9,20.2-13.4c-1.5-1.3-3-1.4-4.4-1.5
		c-3.5-0.2-7,1-10.2-2.2C1908.8,1399.6,1902,1394,1895.5,1388.2z M2114.2,1851.5c-1-0.2-1.5-0.4-2-0.4c-22.9,0.3-45.9,0.7-68.8,0.9
		c-18.7,0.2-37.3,0.1-56,0c-1,0-2.1-0.6-3.1-1.2c-4.3-2.5-8.7-5.1-13-7.8c-3.2-2-7.3-3.4-9.3-6.2c-5-7.1-8.9-15-13.5-22.4
		c-2-3.2-3.9-6.9-6.9-8.8c-7.3-4.5-12.5-10.7-16.3-18c-2.3-4.5-3.7-9.8-4.1-14.8c-0.4-4.4-1.9-7.7-6.3-7.8
		c-19.4-0.4-38.9-0.7-58.3-1c-7.5-0.1-15,0.3-22.5-0.1c-7.4-0.4-12.5,0.5-16.7,8.4c-5.1,9.7-15.1,14.9-25.9,17.8
		c-3,0.8-5.6,3.1-8.1,5c-5.4,4.1-10.1,9.7-16.1,12.3c-9,4-14.2,12.1-23,16.8c8.4,7.9,16.2,14.9,23.6,22.3
		c22.5,22.3,44.8,44.8,67.3,67.1c1.3,1.3,3.8,2.4,5.6,2.2c4.9-0.5,7.4,2,9,6c3.1,7.7,6.1,15.4,9.1,23.2c5,12.5,10,25.1,15,37.6
		c17.5-5.6,34.7-11,51.8-16.7c5.5-1.9,9.9-0.8,13.8,3.3c4.1,4.2,8.5,8,12.2,12.5c2.3,2.8,4,6.3,5,9.8c1.8,6.5,3,13.1,4.7,21.1
		c6-4,11.2-7,15.9-10.6c5.5-4.2,10.4-9.1,15.7-13.5c4-3.3,8.4-6.2,12.4-9.6c5.7-4.8,11.2-10,17-14.7c1.8-1.5,4.4-3,6.6-2.9
		c10.4,0.4,19.2-4.4,28.4-8c7.9-3.1,15.8-6.1,24-8c8.7-2,16.9-4.3,23.5-10.7c7.8-7.6,12.9-17.8,22.5-23.8c0.2-0.1,0.2-0.6,0.2-0.9
		c-2.1-3.9-4.6-7.6-6.2-11.7c-1.2-3.1-1-6.8-2.2-9.9c-2.1-5.3-5.3-10.1-7-15.5c-1.2-4-0.9-8.6-0.6-13
		C2112,1856.9,2113.4,1854.3,2114.2,1851.5z M2748.5,639.4c18.4,0.9,36.4,1.9,54.4,2.6c14.4,0.5,28.9,0.7,43.3,1c3,0.1,6-0.2,9,0.1
		c4.5,0.4,9.5,0.2,13.5,2c29.5,13.2,58.8,26.8,88.2,40.2c1.8,0.8,4.7,0.6,6.6-0.1c23.9-8.9,47.8-18,71.6-27.2
		c18.8-7.2,37.6-14.5,56.9-21.9c-14.2-21.5-28.1-42.7-41.8-63.5c-5.9-0.5-11.4-1.2-17-1.4c-21.9-0.8-43.7-1.4-65.6-2
		c-10.1-0.3-20.2-0.7-30.3-1c-11.3-0.4-22.5-0.7-33.8-1c-10.1-0.3-20.2-0.7-30.3-1c-10.8-0.3-21.5-0.7-32.3-1
		c-9.9-0.3-19.9-0.7-29.8-1c-16.1-0.4-32.2-0.7-48.3-1.1c-2.6-0.1-5.2-0.7-7.8-0.9c-3.7-0.2-7-0.8-9.2,4.1
		c-4.1,8.9-9.5,17.1-14.1,25.8c-1.3,2.4-2.5,3.8-5.4,2.7c-18-7-36.7-2-55.3-2.9c1.1,1.7,2.7,2.4,4.1,3.3c1.4,0.8,3.5,1.7,3.7,2.9
		c1.2,6.2,2.2,12.3-1.2,18.7c-1.6,2.9-0.9,7.6,0,11.2c1,4.2,3.4,8.1,4.9,12.2c1.5,4.2-0.2,7.5-4.6,9.1c-5.3,2-10.4,4.2-13.7,10.4
		c27.9,0,55.1,0,82.6,0C2747.3,653.2,2747.8,646.9,2748.5,639.4z M2557.9,1724.6c-0.1-1.2,0.1-2.4-0.3-3.4
		c-3.7-8.9-7.6-17.6-11.3-26.5c-2.3-5.6-5-11.1-6.2-16.9c-1.6-7.9-1-8-8.4-9.8c-0.3-0.1-0.7,0-1-0.1c-11.5-2.8-23.8-3.1-33.8-10.1
		c-7.8-5.4-15-11.7-22.3-17.8c-3.8-3.2-6.9-7.2-10.7-10.5c-4.6-4-10.1-7-14.1-11.4c-8.3-9.5-15.6-19.9-23.8-29.4
		c-4.4-5.1-5.5-11-6-17.1c-0.6-6-0.3-12,0-18.1c0.1-1.4,1.1-3.7,2.1-4c5.5-1.8,5.2-6.4,5.8-10.7c0.4-3.1-1.1-4.1-3.9-5
		c-5.2-1.7-10.2-4.1-15.2-6.5c-2.9-1.4-5.4-2.5-8.5-0.6c-21.8,13.2-47.1,17.6-70.4,27c-11.4,4.6-23.7,7-35.6,10.1
		c-3.9,1-8.1,1.4-12.2,2c2.9,10.8,11,19.8,6.8,31.5c0.7,0.2,1.2,0.5,1.6,0.5c11.3-1.7,22.7-3.2,33.9-5.4c3.1-0.6,4.4,0.3,5.4,2.5
		c9.4,21.2,18.7,42.4,27.9,63.6c2.4,5.4,1.5,6.8-4,8.4c-6,1.7-11.8,3.9-16.6,5.4c0.7,5,1.6,8.8,1.7,12.7c0.2,11.2,1.8,22.2,5.5,32.8
		c2.9,8.1,6.1,16.1,9.1,24.2c1.6,4.3,6.2,7.3,10.6,6.8c7.8-0.9,15.6-1.9,23.4-2.9c14.6-2,29.2-4.1,43.8-5.9
		c12.4-1.5,24.8-2.6,37.2-4.1c14.6-1.8,29.2-4,43.8-5.9C2527.4,1728.1,2542.5,1726.4,2557.9,1724.6z M2268.2,1176
		c-3.7-1.2-6.8-2.2-9.8-3.3c-3.1-1.1-5.8-2-9.1,0.1c-3.9,2.5-8.4,5.9-12.5,5.8c-7.5-0.1-14.1,2.3-20.9,4.5c-11,3.5-17.9,1-25.4-7.7
		c-2.2-2.5-7.2-4.7-10.3-4c-7.8,1.8-13.1-0.3-18.4-5.9c-7.8-8.3-17.3-13.4-29.3-12.5c-5.7,0.4-10.7-1.4-15.8-4.4
		c-3.3-1.9-8-3-11.7-2.2c-6,1.2-10.5-0.2-15.8-3c-5.7-3.1-12.3-5.1-18.8-6c-5.5-0.8-11.3,0.7-17.4,1.2c-0.3,11.8-0.1,24.7,5,37
		c0.4,1,0.7,2.2,0.9,3.2c2,8.9,3.5,17.9,6.2,26.6c2.6,8.2,3.8,16.1,1,24.5c-0.8,2.2-0.9,4.8-0.7,7.1c0.7,9.3,1.6,18.6,2.5,27.9
		c0.4,4.3,0.8,8.5,5.3,11.2c8.1,4.8,16.1,9.8,23.8,15.1c6.1,4.3,11.4,3.7,16.7-1.1c1.3-1.2,2.9-2.1,4.4-3.1
		c18.4-12.1,36.9-24.1,55.2-36.2c1.4-0.9,2.9-2.7,3.2-4.2c1-5.4,3-6.6,8.9-5.8c13.8,1.9,27.9,2.2,41.8,3.3
		c5.4,0.4,10.7,1.4,16.1,1.9c6,0.5,12.1,0.7,18.2,1.1c-0.4-3.1-0.4-5.9-1-8.6c-2-9.4-1.6-18.7,0.1-28.3c1.3-7.5,4-15.1,0.1-22.9
		c-2.5-4.9-0.4-7.7,5.2-9.4C2266.8,1177.7,2267.4,1176.7,2268.2,1176z M2298.2,1326.8c-0.9-2.4-1.4-4.3-2.3-6
		c-5.6-12.2-11.2-24.3-16.9-36.4c-1.4-3.1-2.3-6.7-4.5-9.1c-5.1-5.7-8.8-12-11.3-19.3c-0.6-1.7-2.8-3.4-4.6-3.8
		c-3.6-0.9-7.5-0.9-11.3-1.1c-13.6-1-27.3-1.9-40.9-3.1c-5.4-0.4-10.7-1.6-16.1-1.8c-2.6-0.1-5.8,0.4-7.8,1.9c-3.7,2.7-6.2,7-10,9.6
		c-19.7,13.4-39.5,26.6-59.5,39.5c-3.2,2.1-7.7,3.9-11.3,3.4c-3.6-0.5-6.8-4.1-10.2-6.3c-8.3-5.5-16.6-11-24.9-16.5
		c-14.9,25.4-29.3,50-43.7,74.8c6.2,0.5,11.4,1.2,16.7,1.4c10.8,0.5,21.5,0.8,32.3,1c18.6,0.4,37.2,0.7,55.8,1
		c4.8,0.1,9.8,0.5,14.5-0.3c17.3-3,34.6-6.4,51.9-9.7c14.1-2.6,28.2-5.3,42.3-7.8c15.4-2.8,30.8-5.4,46.2-8.2
		C2287.9,1329.1,2292.9,1327.9,2298.2,1326.8z M2190.4,1593.1c0.2,0.7,0.3,1.3,0.5,2c3.5-1.1,7-2,10.5-3.2c3.8-1.3,6.8-2.1,9.1,2.8
		c2.8,6,6.6,11.6,10.1,17.3c7.5,12.4,14.9,24.9,22.5,37.2c2.3,3.6,2.5,6.4-1.1,9.4c-8.7,7-17.1,14.4-25.6,21.6
		c-2.3,1.9-3.5,3.9-3.4,7.2c0.5,16.4,0.8,32.8,1.1,49.3c0,2.3-0.1,4.7,0,7c0.3,4.5,3.3,6.3,7.4,4.5c1.3-0.6,2.7-1.2,3.9-2
		c17.3-10.7,34.7-21.3,51.9-32.3c6.1-3.9,14-6.7,13-16.4c0-0.4,0.4-0.9,0.7-1.3c3.4-5.7,6.8-11.4,10.5-17.5c-0.7-1.1-2-2.8-3-4.7
		c-2.1-4.2-4.8-8.1-2.7-13.4c1.4-3.6,2.3-7.7,2-11.5c-0.7-7.7-0.9-15.7-4.8-22.8c-2.6-4.7-4.8-9.6-7.5-14.2
		c-3.4-5.7-4.8-11.3-1.5-17.6c0.9-1.8,1-4.6,0.3-6.5c-2-6-4.2-12-6.9-17.7c-0.5-1.2-3.5-2-5-1.8c-4.6,0.8-9.1,2.5-13.8,3.4
		c-10.2,2-20.6,2.9-30.1,7.8c-2.8,1.4-6.2,2.1-9.4,2.2C2208.2,1582.5,2198.7,1586.1,2190.4,1593.1z M2306.7,1675.1
		c15.8-4.6,31.1-9.1,46.4-13.6c-1.7-3.6-2.9-6.3-4.1-8.9c-7.7-17.6-15.4-35.2-23.2-52.7c-0.4-1-2.7-1.8-4.1-1.6
		c-6,0.7-11.9,1.8-17.8,2.8c-5.2,0.9-10.4,1.9-16.2,3c2.8,5.1,5.6,9.3,7.6,13.9c3.2,7.5,6.2,15.2,8.6,23c1.7,5.6,2,11.1-1.6,17
		C2298.3,1664.4,2302.5,1670.4,2306.7,1675.1z M2103.2,1780.8c1.1,10.3,7.1,18.8,2.1,28.8c1.3,0.5,2.5,1.1,4.4,1.8
		c0.5-2.3,1.3-4.1,1.2-6c-0.1-5.2-0.6-10.3-0.8-15.5c-0.2-2.8,0.5-5.9-0.5-8.4c-1.5-3.9-0.3-5.7,3.8-6.3c-0.6-3-1.2-5.6-1.7-8
		c-3.9,0-7.2,0-10.5,0C2101.6,1772.4,2106.3,1777,2103.2,1780.8z M2083.2,1760.5c-0.7,0.7-1.4,1.4-2.1,2.1
		c3.7,4.8,7.3,9.7,11.3,14.2c2.7,3,3.9,5.3,0,8.1c-0.7,0.5-1.5,1.5-1.4,2.2c1.4,7,3.2,13.9,9.7,19.6c0.3-7.6,0.3-14-2.8-20.3
		c-1.6-3.2-3.6-6.6-0.7-10.8c1.8-2.7-2.8-8.1-6.3-8.7c-1.6-0.3-3.1-1.7-4.5-2.8C2085.4,1763.1,2084.4,1761.7,2083.2,1760.5z"/>
	<path id="_x34_5" class="st0" d="M2555.9,747c-1.9,3-7.9,2.9-6.6,8.7c0.8,0.1,1.6,0.3,2.3,0.3c37.8,0.3,75.5,0.6,113.3,1
		c19.3,0.2,38.5,0.6,57.8,1.1c1.4,0,3.3,1.2,4.1,2.4c3.5,5.1,6.7,10.4,9.9,15.7c0.7,1.1,1.5,2.5,1.3,3.6
		c-1.7,10.3,7.3,14.6,11.9,21.3c2.2,3.2,5.7,5.7,7.7,9c2.2,3.9,5,5.2,9.3,4.8c14.6-1.2,28,4.5,41.9,7.3c11.9,2.5,23.7,5.8,35.6,8.5
		c2.2,0.5,4.6,0.1,7,0.1c-0.2-0.4-0.3-0.8-0.5-1.3c1.9-0.9,3.7-2,5.7-2.8c8-3.2,16-6.5,24-9.6c3.3-1.3,6.1-2.5,10.5-0.9
		c4.3,1.6,9.9-0.6,15-0.8c3-0.1,6.5-0.4,8.9,1c6.8,3.6,13.4,5.5,21.2,3.6c3.6-0.9,7.8,0.7,11.7,0.7c3.3,0,6.5-0.5,9.8-1
		c11.7-1.7,23.2-1,34.4,2.6c6.5,2.1,11.8,0.5,14.5-5.6c2.6-6,7-8.3,13.3-8c2.2,0.1,4.7,0,6.7-0.9c5.5-2.3,6-5.2,1.9-9.2
		c-2.2-2.1-2.8-4.1-1.8-7c1.1-3.4,1.6-6.9,2.8-12.2c3.3,3.7,6,6.2,7.9,9.1c2.3,3.5,3.7,7.6,5.9,11.2c2.1,3.5,2.2,6.4-0.2,9.9
		c-1,1.5-1.3,4.2-0.7,6c0.9,3,2.1,6.4,4.3,8.4c1.4,1.3,6.2,1.6,7.1,0.5c5.6-7.4,12.8-6.3,20.2-4.6c5.9,1.3,10.8,1.6,16.4-2.9
		c5.3-4.3,13-3.7,19.9-2.8c2.9,0.4,5.8,0.1,9.6,0.1c6,5.6,13,11.9,19.9,18.5c11,10.6,21.9,21.3,33,31.9
		c13.9,13.3,27.8,26.6,41.8,39.8c12.5,11.8,25.1,23.5,37.8,35.3c-6.3,0-12,0.2-17.8-0.1c-7.7-0.4-15.4-1.4-23.1-1.8
		c-12.4-0.8-24.7-1.3-37.1-2.1c-13.6-0.9-27.3-1.8-40.9-3c-7.4-0.7-14,1.3-20.3,4.8c-3.4,1.9-6.5,1.9-10.1,0.3
		c-4.4-2-9-3.6-13.7-4.8c-1.7-0.4-4,0.3-5.6,1.2c-26.4,14.4-52.6,29-79,43.5c-16.3,8.9-32.8,17.6-49.2,26.5
		c-24.4,13.3-48.7,26.7-73,40c-25.6,14-51.3,28-77,42c-8.3,4.5-16.7,9-25,13.6c-6.1,3.4-6.2,8.5-0.3,12.5c4.7,3.1,9.3,6.3,14.3,9.7
		c-8.4,1.3-16.4,2.3-24.3,3.9c-25.9,5.2-52.2,5.8-78.5,4.6c-10.9-0.5-21.1,1.9-31.7,2.6c-4.3,0.3-8.3,3.9-12.6,5
		c-6.6,1.7-13.5,2.1-20.1,3.9c-6.5,1.8-12.9,4.2-19,7.1c-2.2,1.1-4.2,4.2-4.9,6.8c-1.8,6.6-3.2,13.3-4.1,20c-0.5,3.7,0.3,7.5,1,11.2
		c0.5,3,1.7,5.8,2.5,8.7c-0.4,0.3-0.8,0.5-1.1,0.8c-7-4-14.3-7.6-21-12.1c-13.1-8.7-28.1-12.8-42.3-18.8c-7-3-13.2-2.4-20.1,0
		c-17.7,6-35.6,11.5-53.5,17.2c-1.1,0.3-2.2,0.8-3.3,0.9c-21.6,0.4-43.2,0.9-64.8,0.9c-5.8,0-7.9-5.4-9.5-9.7
		c-4.8-13.5-9-27.2-13.4-40.8c-0.3-0.9-0.8-2-0.5-2.8c2-5.6,3.9-11.3,6.4-16.8c4-8.7,4.4-17.3,0.7-26.1c-1.6-3.7-1.8-5.5,3.5-6
		c20.5-2.2,33.5-14.5,40.4-33.1c1.5-4.1,3.6-6.2,6.6-8c5.2-3.1,10.6-5.9,15.7-9c1.6-1,3.9-2.6,3.9-4c-0.1-8.4,5.8-13.3,10.3-18.9
		c7.2-9,14.5-17.8,22.2-26.4c1.7-1.9,5-2.6,7.7-3.3c3.6-0.9,5.1-2.8,5.4-6.5c0.4-4.9-1.1-9.6,1.6-14.7c3.1-5.9-1.9-16.1-7.5-18
		c-1.5-0.5-4.6-0.1-5.1,0.9c-3.4,6.9-10.1,7.1-16.2,8.3c-2.8,0.5-5.7-0.2-8.5,0.2c-3.5,0.4-7.4,0.5-10.4,2.1
		c-7.9,4.2-15.3,9.3-23.1,13.8c-1.6,1-3.6,1.7-5.5,1.9c-3.6,0.4-7.4-0.3-10.9,0.4c-6.4,1.2-10.5,5.5-13.4,11.2
		c-2.9,5.9-8.4,8.8-14.9,8.5c-2.6-0.1-5.4,0.1-7.7,1c-8.6,3.3-17.3,3.7-26.1,1.8c-4.6-1-8.7-1.1-13.3,0.7c-3.6,1.4-8.5,1.3-12.3,0.2
		c-8.6-2.6-17.7-4.7-24.5-11.2c-5-4.8-9.6-10.2-14.2-15.5c-2.4-2.8-11.3-5.8-15.1-4.5c-2.9,1-5.7,2.4-8.7,3.7
		c-2.1-11.9-13-8.7-20.7-11.3c-7-2.4-14.1-4.6-21.1-7.2c-5.2-2-10.4-4.4-15.3-7.2c-11-6.1-21.5-13.1-32.8-18.4
		c-5.5-2.6-12.4-2-18.7-3.3c-3.9-0.8-7.7-2.3-11.6-3.3c-1.9-0.5-4.3-1.1-5.8-0.4c-6.8,3.2-13.6,2.3-20.4,0.8
		c-8.1-1.7-16.2-3.3-24.3-5c-1.2-0.3-2.3-1-3-1.3c2.2-13.9,4.5-27.3,6.4-40.8c0.4-2.6-0.5-5.6-1.7-8c-3.7-7.7-8-15.2-11.7-23
		c-1.4-3-2.1-6.5-2.4-9.9c-1.4-16.5-7.8-31.5-12.7-47c-0.3-1-1-2.4-1.9-2.8c-10.2-4.8-6.6-15.8-10.4-23.4c-0.2-0.3,0.2-0.9,0.5-2.4
		c2.7,2.9,4.7,5.6,7.2,7.6c11.4,9,23.9,9.8,37.5,5.6c14.5-4.4,27.8-11,40.5-19.3c7.3-4.8,15.6-8.3,23.2-12.7
		c6.7-3.9,13.1-8.5,19.8-12.6c2.3-1.4,5.1-2.7,7.6-2.8c9.4-0.1,15.8-5.2,21.8-11.5c1-1.1,3.1-1.8,4.7-1.7c4.9,0.2,9.7,0.4,12.9-4.3
		c2.7-3.9,5.9-7.5,7.6-11.8c3.8-9.4,11.6-14.2,19.4-19.3c2-1.3,3.6-3.2,5.7-4.4c2.3-1.3,4.7-2.9,7.2-3.1c3.4-0.2,5.7-1.1,7.8-4
		c5.4-7.6,14.1-10.7,21.8-15.2c4.6-2.7,9.3-5.4,13.7-8.5c3.2-2.1,5.7-0.7,8.7,0.4c8.1,3,16.2,5.8,24.4,8.6c1.1,0.4,2.3,0.7,3.4,0.5
		c7-1.3,11,3.2,14,8.1c5.4,8.7,13,15.3,22.1,18.7c6.8,2.5,14.8,1.4,22.3,1.9c1.7,0.1,3.9-0.4,5,0.4c7.2,5.7,14.5,11.4,21,17.8
		c4.3,4.3,11.9,5.3,17.2,2c4.2-2.7,9.2-4.8,14.2-5.6c4.5-0.7,7.8-1.6,9.9-5.9c1.8-3.6,5.1-4.8,9-4.3c1,0.1,2,1,2.8,0.8
		c9.2-2.2,15.5,2.8,21.1,8.7c2.4,2.6,4.3,6.3,4.9,9.7c0.9,5.1,2.9,8.6,7.7,11c2.4,1.2,5.3,4.5,5.2,6.8c-0.4,10.2,6.3,15.9,12.9,21.5
		c2.1,1.8,5.1,2.7,7.8,3.4C2550,738.5,2553.2,742.4,2555.9,747z"/>
	<path id="_x33_8" class="st0" d="M2067.8,1744.9c8.1,11.4,8.5,26.4,18.4,34.4c-0.1,5.5-0.8,10.1,0,14.5c2.6,14.5,13.5,23,28.4,23.3
		c4.6,0.1,9.1,0.8,13.7,1.2c0.4-0.9,0.8-1.4,0.7-1.7c-1-5.2,1.6-6.9,6.3-8.8c7.4-3,14.1-0.2,21.2,0.2c8.8,0.5,11.9,5.6,13.9,12.8
		c0.3,0.9,0.8,1.9,1.5,2.5c7.9,7.3,15.7,14.6,23.7,21.7c2,1.7,4.8,2.6,7.4,3.5c3.5,1.2,5.2,3.5,5.8,7c1,5.5,2,10.9,3.4,16.3
		c0.6,2.5,2.2,4.7,3.1,7.1c1,2.5,2.5,5.1,2.6,7.6c0.5,11.8,6.9,20.1,14.8,28.1c4.9,5,10.3,7,16.9,7.6c8.8,0.8,16.3-2.4,23.8-6.2
		c0.8-0.4,1.3-1.4,1.8-2.2c3-4.7,6.8-8.4,12.4-9.7c8.7-2,12.7-8.8,16.3-15.7c2.4-4.5,5.4-5.7,10.1-5.3c9,0.9,18,1.5,27.1,2
		c2.6,0.1,5.2-0.5,7.8-0.9c4.3-0.7,7.7,1,8,5.2c0.2,2.5-1.9,5.3-3.4,7.7c-1,1.6-2.9,2.6-4.5,3.8c-3.2,2.4-2.1,5.5-0.7,8
		c0.8,1.3,3.3,2.2,5.1,2.3c3.2,0.1,6.5-0.8,9.8-0.8c1.6,0,3.2,1,4.8,1.5c-0.9,1.4-1.4,3.4-2.7,4.2c-12,7.8-24.2,15.4-36.3,23.2
		c-4.8,3-5.5,5.7-2,10.2c2.4,3.2,5.7,5.8,8.6,8.6c7.2,6.6,14.5,13.2,21.8,19.8c2.6,2.3,5.2,4.5,7.7,6.9c4.8,4.6,9.3,9.5,14.3,13.9
		c3,2.7,6.9,4.3,10.1,6.8c3.6,2.8,7.1,5.9,10.3,9.3c3.5,3.7,6.1,3.9,10.6,2c5.3-2.3,11-4.5,16.7-5.3c8.7-1.2,10.7-2.6,11.2-12
		c2.4-0.4,5.1-0.4,7.4-1.3c3.3-1.3,6.8-2.8,9.4-5.2c4.5-4.3,10.1-5,15.7-5.6c3.5-0.4,7,0,10.5-0.1c3.9-0.2,7.4-0.3,9.7,4
		c0.6,1.2,3.4,2,5.1,1.9c6.3-0.2,12.5,0.2,18.3,3.1c3.1,1.6,6.2,3.5,8.8,5.9c2.9,2.6,6.3,3.3,8.3,0.1c4-6.4,10.3-8.7,16.8-11
		c0.8-0.3,1.9-0.3,2.2-0.9c4-6.9,11.2-6.1,17.3-7c19.5-2.8,36.5-11.3,52.8-21.8c5-3.2,10.4-5.4,17-5.8c7.1-0.4,14-3.7,21-5.8
		c11.7-3.5,23.2-7.4,35-10.4c5.7-1.5,8.8-1.9,8.8,6.1c0,3.1,1.7,6.2,2.9,9.2c0.3,0.8,1.2,2,1.8,2.1c5.5,0.4,12.4,2.8,16.4,0.5
		c8.6-5.2,16.4-2.6,24.7-1.2c1.3,0.2,2.4,0.9,4,1.4c0,6.5,0.5,13.2-0.1,19.8c-0.9,8.6,3.5,14.5,8.4,20.7c4.4,5.4,8,11.4,11.6,17.4
		c0.6,1-0.2,3.4-1.1,4.7c-3.2,5-6.8,9.8-10.1,14.7c-0.4,0.6-0.9,1.7-0.7,2.3c3.9,8.8-4,12.5-8.1,17.2c-13.8,16-28.4,31.4-42.7,47
		c-4.7,5.2-9.5,10.3-14.4,15.4c-0.6,0.6-1.9,1-2.9,0.9c-7.4-0.4-14.8-1.2-22.1-1.4c-5.2-0.1-6,0.8-10.3,8.5
		c-6.5-1.9-12.7-2.5-19,1.9c-2.7,1.9-7.3,1.5-11,1.5c-8.9-0.1-16.6,1.3-20.9,10.5c-0.8,1.7-4,2.8-6.3,3.3
		c-7.3,1.6-12.5,4.7-13.6,13.1c-0.6,5-3.8,5.9-8.5,3.3c-3.1-1.7-7-2-8.5,0.8c-4.8,8.9-13.9,9.9-21.7,13.5
		c-8.6,3.9-16.9,8.3-25.5,12.2c-4.1,1.9-8.5,3.6-12.9,4.2c-5.4,0.8-7.5,4.4-8.6,8.7c-1,3.8-1.4,7.9-1,11.7c0.5,5.6-2.8,7.9-6.9,9.7
		c-3.3,1.5-6.7,2.6-7.4,7c-0.2,1.2-2.3,2.1-3.6,2.9c-6.1,3.6-13.9,3.9-18.6,9.9c-3.1,3.9-6,7.9-8.4,12.3c-1.8,3.3-4.1,4.3-7.6,5.1
		c-8.2,1.9-16.2,4.7-24.3,7.2c-2.8,0.9-5.5,2.1-8.2,3.1c-5.5,2-16.3-1.7-19-7c-2.4-4.7-5.9-5.4-10.1-3.4
		c-8.3,4.1-16.4,8.5-24.5,12.8c-5.1,2.8-7,7.4-7.4,13c-0.2,2.5-1.6,5-2.8,7.4c-1.6,3.3-3.4,6.5-5.6,10.4c-19.8,0-40.9,0-61,0
		c-3-10.1-5.7-19.7-8.8-29.2c-0.7-2-2.4-4.2-4.2-5.3c-3.9-2.3-4.4-5.8-4.5-9.5c-0.4-10.4-3.9-15-13.7-18.1c-1.8-0.6-3.3-2-5-2.8
		c-2.8-1.4-5.7-2.6-8.7-3.8c-1.2-0.5-2.6-0.4-3.7-1.1c-8.5-5.3-16.9-10.8-25.6-15.9c-2.6-1.5-5.7-2.1-8.6-3.1
		c-2.1-0.7-4.7-1-6.3-2.3c-5.7-4.9-12-9.5-16.2-15.6c-1.9-2.7-1.2-9.9,1.2-12.5c5.2-5.7,4.7-11.1,3.1-17.5c-1.7-7.2-4.9-14-4.9-21.8
		c0-10.7-1.3-21.4-1.8-32.1c-0.2-4.5,0-9.1,0-13.6c-0.1-6.4-3.5-10.1-10.4-11c0.8-1.4,1.2-2.8,2.2-3.4c5.7-3.8,8.2-9.5,10.2-15.7
		c4.6-13.5,9-27.1,14.1-40.4c3.6-9.2,1.9-12.8-8.2-14.1c-1.9-0.2-4-0.8-5.4-2c-4.4-3.9-9.7-4.3-15.1-4.9c-7.5-0.8-15-2-22.4,1
		c-1.8,0.7-3.5,1.7-5.4,1.9c-4.4,0.4-8,0-11.7-3.9c-7.6-8.1-17.1-13.5-28.9-13c-11.1,0.4-22.2,0.4-33.3,1.2
		c-2.9,0.2-6.4,1.9-8.4,4.1c-7.6,8.1-16.9,7.7-26.8,7.1c-9-0.5-18.5-2.6-26.5,4.4c-1.7,1.5-4.8,1.5-7.2,2.2
		c-4.3,1.4-8.5,2.8-12.7,4.3c-7.1,2.6-14.3,5.3-21.8,8.2c-0.2-1.7-0.4-2.7-0.5-3.4c8.1-3.9,16-7,22.3-13.7c5.8-6.2,13-11,19.6-16.5
		c4.3-3.7,8.8-7.2,12.7-11.3c6.5-6.9,14.8-9,23.8-11.2c12.7-3.1,24.7-8.8,37.1-13.1c6.1-2.1,12.4-3.9,18.7-5.2
		c9-1.9,13.8-9,19.7-14.8c5-4.9,8.1-11.6,14.5-15.5c5-3,5.1-6.1,2.6-11.7c-5.4-12.5-10.8-25-15.6-37.7c-1-2.6,1-6.2,1.5-9.4
		c0.7-3.8,1.4-7.6,2.2-12.1c-3.4,0-5.2,0-7,0c-21.8,0-43.7-0.1-65.5,0c-13.9,0.1-27.9,0.3-41.8,1.1c-8.4,0.4-16.3-0.7-23.6-5
		c-5.2-3.1-11.4-5.1-15.5-9.2c-4.8-4.8-9.1-10.9-11.5-17.3c-3-8.1-8.7-13.2-14.7-18.5c-7.6-6.7-13.9-14.3-13.6-25.4
		c0-2.1-0.4-4.1-0.6-6.2c6,0,12,0,18.4,0c0.5-27.9,1-55.9,1.5-84.5c3.6-0.3,7.3-0.7,11-1c4.4-0.4,8.9-0.5,13.3-1
		c9-1.1,11.9,0.3,16.4,8.3c0.7,1.3,1.4,2.6,1.9,4c1.6,4.4,4.3,7.4,8.6,9.9c11.9,6.9,24.2,13.3,32.2,25.6c3.2,4.9,9.9,7.7,15.2,11.1
		c3.2,2.1,6.8,3.6,10,5.7C2059.2,1746.4,2063.2,1748.5,2067.8,1744.9z"/>
	<path id="_x35_1" class="st0" d="M2456.9,1616.9c-3.2-3.7-5.8-6.7-8.3-9.8c-6.9-8.5-14.1-16.7-20.2-25.6c-2.3-3.3-2.1-8.5-2.7-12.8
		c-0.5-3.7-0.5-7.5-0.6-11.2c0-1.1,0.3-3.1,0.9-3.3c5.4-1.5,5.8-6.4,6.7-10.5c0.7-3.2,0.8-6.8-0.1-9.9c-0.6-2-3.3-3.7-5.4-4.7
		c-5.1-2.5-10.7-4-15.5-6.9c-6-3.7-11.2-1.7-16.7,0.7c-11,4.9-22,10-33.2,14.4c-5.5,2.2-11.6,3.1-17.4,4.7c-2.9,0.8-5.7,2-8.6,3
		c-7.8,2.7-15.7,5.4-23.5,8c-2.6,0.9-5.3,1.5-8,2.2c-10.4,2.6-20.7,5.2-31.2,7.6c-1,0.2-2.8-1.3-3.5-2.4
		c-6.4-10.9-12.6-21.9-19-32.8c-1.1-1.9-2.7-3.9-4.6-4.8c-7.6-3.7-9.1-12-14.2-17.6c-3.5-3.9-7.6-7.2-11.3-11
		c-1.8-1.8-3.2-3.9-4.6-6c-2.1-3.2-3.7-7-6.3-9.7c-6.9-7.1-14.8-13.4-21.3-20.8c-5.5-6.3-9.7-13.8-14.5-20.7
		c-1.6-2.3-2.8-4.5-6.3-5.5c-2.6-0.7-5.2-4.3-6.3-7.1c-6.3-16-12-32.3-21.2-47c-2.7-4.3-3.5-9.7-5.3-14.9
		c17.4-3.2,34.6-6.3,51.7-9.4c17.5-3.2,34.9-6.7,52.4-9.9c21-3.8,42.1-7.4,63.1-11.1c4.4-0.8,3.4-3.6,2.2-6.3
		c-3.7-8.2-7.4-16.3-11.1-24.5c-4-8.9-7.9-17.9-12.1-26.7c-1.1-2.3-3.3-4.1-4.8-6.1c-5.9-7.9-8.9-16.9-9.8-26.7c-1-11-3-22,0.8-32.8
		c0.5-1.5,2.4-3.4,4-3.7c22.1-4.8,44.3-9.3,66.5-13.9c14.7-3,29.3-6.2,44-8.9c1.5-0.3,4.2,1.8,5.3,3.5c2,3.3,4.4,4.3,8.1,4.3
		c15.2-0.2,30.3-0.4,45.5,0c15.3,0.4,29.9-2.1,44.3-7.3c13.4-4.9,27.2-8.8,40.9-13c1.7-0.5,3.9-0.5,5.6,0
		c19.6,6.3,38.5,14,55.7,25.6c5.3,3.5,10.9,6.6,16.6,9.5c5.8,2.9,7.8,7.8,8.5,13.8c0.4,3.8,1.6,7.6,2.4,11.3
		c0.4,1.9,1.5,3.8,1.4,5.6c-1,12.5,4.4,23.7,6.8,35.5c1.1,5.2,0.5,11-0.7,16.2c-2.1,8.7-5,17.2-3.1,26.4c0.2,1.1,0.1,2.3,0.1,3.5
		c-0.2,13.2,2.2,26.3,0.1,39.5c-0.5,3.1,1.1,6.8,0,9.5c-2.4,5.9-5.8,11.5-9.2,16.9c-2.7,4.2-2.6,8-0.3,11.9
		c2.4,4.1,3.5,7.9,1.5,12.7c-1.7,4.1-1.9,8.9-3.2,13.2c-0.5,1.8-1.8,3.9-3.4,4.6c-26,12.2-52.1,24.3-78.1,36.4
		c-3.5,1.6-5.7,4.2-5.4,8c0.7,9.8,2,19.6,2.6,29.4c0.5,7.3-2.2,14-5.2,20.6c-2.9,6.3-6.2,12.5-8.8,19c-0.8,2.1-0.4,4.8,0,7.2
		c0.7,4.5,1.4,8.6-0.1,13.4c-1.3,4-0.2,8.9-0.1,13.3c0,0.8,0.4,1.6,0.5,2.4c0.9,9.1-0.7,10.7-9.5,13.7c-7,2.4-13.6,6-20.3,9
		c-0.4,0.2-0.8,0.5-1.3,0.7C2469.9,1602.3,2463.6,1609.2,2456.9,1616.9z"/>
	<path id="_x34_4" class="st0" d="M2561.2,750.5c-0.6-11-5.2-16.2-16.5-18.5c-6.2-1.3-15.8-13.3-15.6-20.3c0.1-5.5-2.4-8.8-7-11.1
		c-3.8-1.9-6.2-4.6-6.2-9.2c0-1.8-0.6-4.1-1.7-5.4c-4.1-4.6-7.8-10.4-13.1-12.8c-8.3-3.7-17.8-4-26.9-2c-2.2,0.5-4.8,2.4-5.7,4.3
		c-1.8,3.8-4.4,4.3-8.1,4.8c-5.4,0.8-11.3,0.7-15.3,6c-1.9,2.4-4.7,2.7-7.7-0.1c-6.8-6.4-13.9-12.7-21.4-18.3
		c-2.7-2-7.2-3.2-10.5-2.5c-16.8,3.3-28.2-4.2-37.8-16.8c-2.8-3.7-6.2-7.1-9.4-10.5c-0.6-0.6-1.8-1-2.6-0.9
		c-13,0.8-23.8-6.2-36.8-10.5c3.7-3.3,6.7-5.9,9.6-8.6c3.9-3.5,5.6-7.9,5.5-13.1c-0.1-2.7,0.1-5.3,0-8c-0.2-6.7-0.1-12.9,5.5-18.2
		c2.7-2.6,3.9-7.2,0.7-11.2c-1.2-1.5-2-3.4-2.5-5.3c-0.9-3.5-2.2-6.8,3.3-8.3c4-1.1,6.4-4.9,7-9.2c0.8-6,1.5-12,2-18.1
		c0.3-4,2.5-6.2,5.4-9c3.7-3.5,5.9-8.7,8.7-13.2c1.3-2.1,2-4.9,3.9-6.4c8.3-6.7,16.8-13,25.2-19.5c0.6-0.5,1.5-1.1,1.6-1.8
		c1.3-6.1,6.4-6.7,11.1-8.8c16.2-7.5,26.3-20,29.3-38c0.5-2.7,2.4-5.2,3.5-7.9c1.6-3.9,3.6-7.7,4.2-11.7c1.3-7.7,7.2-11.6,13.8-8.1
		c5.8,3.1,11.3,6.9,17,10.1c3.8,2.2,7.8,3.8,11.6,6c1.2,0.7,2.2,2.1,2.7,3.3c3.7,8.4,5.9,17.3,5.9,26.6c0,2.3-0.4,4.8,0,7
		c0.9,4.6,3.3,8.1,8.4,9c1.3,0.2,2.4,1.4,3.8,2.3c-2.4,3.8-3.9,7.4-0.4,10.9c0.9,0.8,2.3,1.8,3.3,1.6c5.3-0.6,5.7,2.5,5.9,6.6
		c0.4,9,1.5,18.1,1.8,27.1c0.2,6.3-0.4,12.5-1,18.8c-0.1,1.4-1.9,2.7-2.8,4c-1,1.5-3.1,3.4-2.8,4.3c0.6,1.7,2.7,3,4.3,4.2
		c1,0.7,2.5,0.8,3.7,1c12.8,2.2,11.3,5.5,12.4,15.6c0.7,6.4,1,12.8,4,18.5c0.8,1.7,3.1,3.8,4.6,3.7c14.7-0.4,29.4-1.2,44.1-1.7
		c5.2-0.2,10.3,0.1,15.5-0.1c6.1-0.2,12.2-1,18.3-0.8c4.1,0.1,8.2,1.2,12.3,2.1c5.7,1.2,11.4,2.4,17.1,3.8
		c5.2,1.3,10.4,2.6,15.5,4.2c1.2,0.4,1.9,2.2,2.8,3.3c2,2.5,3.5,5.6,6.1,7.2c3.6,2.3,5.2,4.7,2.9,8.7c-2.8,5-4,10.3-2.9,15.7
		c0.9,4.7,2.9,9.2,4.9,13.6c1.6,3.5,0.7,5.5-2.8,6.2c-8.3,1.6-11.9,9-17.4,13.9c-0.9,0.8-0.7,3-1.1,5.4c32.6,0,64.7,0,97,0
		c0.5-6,1.1-12.3,1.7-19.5c6.1,0.3,12.1,0.7,18.1,1c0.8,0,1.6,0.2,2.5,0.3c13.9,0.3,27.9,0.7,41.8,1c12.3,0.3,24.5,0.5,36.8,1
		c8.1,0.3,15.6,2.6,23,6.1c26,12.2,52.2,24,78.2,36.3c6.7,3.2,12.1-0.1,17.7-2.2c39.9-15.1,79.7-30.3,119.5-45.7
		c3.2-1.2,5.1-0.8,6.9,1.9c12,17.8,24.1,35.7,36.4,53.9c-7.3,3.2-15,5.7-21.7,9.8c-8.1,4.9-15.5,10.9-22.8,16.9
		c-2.3,1.9-3.4,5.5-4.5,8.5c-3.8,10.2-7.5,20.4-10.8,30.8c-1.1,3.4-1,6.9,2.3,9.9c11,10,21.8,20.3,32.7,30.6c1.2,1.1,2.3,2.4,2.9,3
		c-7.9,1-17.3-0.1-23.7,3.8c-6.4,3.9-11.4,3.6-17.6,2.4c-2.6-0.5-5.3,0-8-0.1c-4.4-0.1-9.1-0.9-11,5.6c-2.4-3.7-6.2-5.5-2.4-10.4
		c1.5-1.9,0.6-6.5-0.5-9.5c-1.8-5-4.5-9.7-7-14.5c-3-5.7-7.2-9.9-14.3-9.1c-1.3,0.1-3.3,1.6-3.7,2.8c-1.6,5.6-3.1,11.3-3.9,17.1
		c-0.3,2.1,1.7,4.6,2.9,7.6c-1.7,0.1-3.8,0.5-5.9,0.4c-7.2-0.3-12.3,2.4-15,9.4c-1.6,4-4.7,4.2-9.5,3.1c-5.6-1.2-11.5-1.2-17.2-1.7
		c-0.8-0.1-1.8,0.4-2.4,0.1c-7.3-3.7-14.2-0.6-21.5,0.6c-5.9,1-12.3-1.2-18.2-0.2c-5.8,1-10-1.1-14.9-2.9c-4-1.5-8.5-1.8-12.9-2.3
		c-1.5-0.2-3.2,0.9-4.8,0.8c-4.7-0.2-9.4-0.8-14.2-0.9c-2.4,0-5,0.4-7.2,1.2c-8.3,3.3-16.5,6.9-24.7,10.3c-0.7,0.3-2,0.2-2.6-0.3
		c-3.4-2.5-3.8-2.5-5.9,1.6c-20.5-4.9-41.1-9.9-61.7-14.8c-2.4-0.6-5.1-0.5-7.5,0c-8.4,1.8-12.8-3.2-17.3-9.1
		c-4.5-6-9.9-11.4-14.9-17c-0.6-0.7-1.5-1.4-1.7-2.2c-1.7-9.5-9.1-16-12.9-24.5c-0.5-1.1-2.6-1.6-4-2.2c-0.4-0.2-1,0-1.5,0
		c-45.3-0.3-90.5-0.6-135.8-1.1C2580,751.8,2570.7,751,2561.2,750.5z"/>
	<path id="_x34_1" class="st0" d="M2643.6,1917c-5.8,2.6-10.1,4.3-14.2,6.3c-5.5,2.6-6.6,5.3-4.6,11.1c1.6,4.9,3.4,9.8,5.2,15.1
		c-2,1.4-4.1,2.9-6.3,4.2c-7.9,4.5-15.5,9.6-23.8,13.2c-9.4,4.1-19.4,7.1-29.3,10.1c-6.5,2-13.7,2.1-19.6,5
		c-4.8,2.3-9.1,5.4-14.2,7.5c-3.7,1.5-6.6,5.1-9.7,7.7c-5-6-12.7-7.4-20.3-9.1c-1.8-0.4-3.7-0.3-5.5,0c-4.3,0.7-7.1-0.9-9.3-4.6
		c-0.7-1.2-2.8-2.3-4.2-2.3c-6.6,0.1-13.2,0.4-19.8,0.9c-6.9,0.6-13.4,1.7-18,8.1c-1.4,1.9-5.2,2.1-7.9,2.9
		c-2.2,0.6-4.7,0.4-6.6,1.5c-1.5,0.9-3.6,3.4-3.2,4.7c1.4,5.5-2.1,6-5.8,6.9c-5.5,1.3-11,2.7-16.3,4.6c-3.1,1.1-5,0.9-7.6-1.4
		c-7.1-6.4-14.9-11.9-21.9-18.2c-13.5-12.1-26.6-24.5-39.9-36.7c-3.3-3-6.8-5.7-10.6-8.8c13.3-8.5,25.5-16.4,37.7-24.2
		c5.2-3.3,6.7-7.2,5.3-12.7c-0.7-2.6-6.1-4.6-10.1-3.8c-2.6,0.5-5.1,1-7.7,1.4c-0.6,0.1-1.3-0.1-3.1-0.4c1.9-1.7,3.1-2.8,4.4-3.8
		c7.9-5.7,8.9-14.9,1.7-20.9c-2.4-1.9-6.7-3.4-9.4-2.6c-11.6,3.2-22.8,1.3-34.1-1c-6.2-1.3-12.5,1.3-15.4,6.9
		c-3.5,6.7-7.3,12.8-15.5,15c-4.8,1.3-8.8,4.6-11.9,9c-4.7,6.8-17.4,10.1-25.4,7.6c-12.5-3.9-23-18.2-23.8-31.5
		c-0.2-3.2-2.4-6.2-3.3-9.3c-2-6.7-4.2-13.4-5.4-20.2c-1.1-6.6-4.3-10.1-10.7-12.2c-7-2.3-12-7.9-16.5-13.7
		c-0.9-1.2-1.3-3.1-2.4-3.6c-8.4-3.5-10.5-11.8-14.7-18.5c-0.8-1.3-2.7-2.3-4.3-2.6c-4.3-0.9-9.1-0.5-12.9-2.3
		c-6.6-3.2-12.4-0.9-18.5,0.7c-0.6,0.2-1.2,0.4-1.9,0.6c-5.5,1-10.1,2.7-8.1,9.8c-2.9-0.4-5.1-0.8-7.5-1.1c-0.2-4-0.5-8.1-0.6-12.2
		c-0.1-5.4-0.2-10.7,0-16.1c0.1-2.2,1.8-4.3,1.8-6.4c0-4.3-0.3-8.6-1.1-12.7c-0.2-1-2.6-2.2-4.1-2.2c-5.8-0.3-11.7,0-17.5-0.2
		c-1.4,0-3.6-0.8-4-1.8c-1.4-3.6-3.6-4.5-7.3-4c-4.5,0.6-8.2-2.7-9-7.5c-1.2-7.4-2.8-14.7,0.8-22c2.6-5.5,0.8-11.2-0.7-16.7
		c-7.1-24.7-14.3-49.3-21.5-74c-0.4-1.5-0.6-3.1-1-5c11.8-3.3,23.5-6.6,35.2-9.8c20.9-5.7,41.7-11.4,62.6-17.1
		c9.9-2.7,19.7-5.5,29.6-8.2c0.9-0.2,2.1,0,2.9,0.5c5.7,3.7,11.6,5,18,1.9c3.2-1.5,5-0.4,6.9,2.8c9.5,16.5,19.2,33,29.3,49.2
		c2.1,3.3,1.2,4.7-1.2,6.7c-8.6,7.2-17.1,14.4-25.6,21.7c-2.4,2-4.3,4.2-2.2,7.6c0.4,0.6,0.1,1.6,0.1,2.5c0.3,18.9,0.7,37.9,1,56.8
		c0.1,7.5,7.6,12.3,14.3,8.5c10.1-5.7,19.8-12,29.6-18.2c11.9-7.4,23.6-15.1,35.7-22.3c3.8-2.3,5.7-5.3,6.4-9.3
		c2.4-15.3,15.4-26,29.4-28.9c5.4-1.1,8.4,1.5,8.7,7.1c1.1,20.2,4.9,39.8,14,58.2c0.3,0.6,0.7,1.1,0.9,1.7
		c3.7,10.3,9.8,13.3,20.6,11.3c9-1.7,18.2-2.2,27.3-3.4c9.6-1.2,19.1-2.6,28.7-3.7c9.4-1.2,18.9-2.1,28.3-3.3
		c9.6-1.2,19.1-2.6,28.7-3.8c9.1-1.1,18.2-2.1,27.4-3.2c9.6-1.2,19.1-2.6,28.7-3.8c6.7-0.8,13.4-1.5,20.1-2.2
		c2.4-0.3,3.3,0.9,4.6,3.2c4.2,7.5,3.5,14-2.1,20.3c-1.4,1.6-2,3.7-3.3,5.4c-4.6,6.5-2,13.6-1.7,20.5c0.5,8.5,1.8,17,2.7,25.4
		c1.1,11.5,3,22.9,2.9,34.4c-0.1,13.1,10.2,17.8,17.8,24.6c8.4,7.5,17.4,14.4,26.2,21.6c10.9,8.9,21.8,17.9,32.7,26.8
		C2639.3,1913.6,2641,1914.9,2643.6,1917z"/>
	<path id="_x34_9" class="st0" d="M2015.6,1357.5c7.1,0.5,13.3,1.3,19.6,1.5c20.1,0.5,40.2,0.6,60.3,1.1c10.9,0.3,21.8,0.9,31.6,1.4
		c6.3,13.2,12.7,26,18.6,39.1c4.2,9.3,7.4,19,11.3,28.4c1,2.3,2.7,5.4,4.7,5.9c6.6,1.7,8.5,7.4,11.6,12
		c7.8,11.8,18.2,21.2,28.2,31.1c4.7,4.7,9,9.5,11.1,16c0.5,1.6,1.8,3.4,3.3,4.2c8.2,4.5,13,11.8,17.2,19.7c1.2,2.3,3.2,4.5,5.4,6
		c5.2,3.4,8.7,8.1,11.5,13.5c4.7,9,9.7,17.9,15,27.5c-6.5,1.4-13.1,2.6-19.7,4.2c-6,1.4-11.8,3.3-17.8,4.8
		c-7.6,1.8-15.1,3.8-22.8,5.1c-3.3,0.5-5.6,1.4-8.4,3.6c-4.2,3.4-9.8,5.3-15.2,6.8c-25.3,7.3-50.8,14.2-76.1,21.2
		c-18.7,5.2-37.3,10.4-56,15.4c-3.3,0.9-3.3,2.5-2.6,5c4.5,15.8,9,31.6,13.5,47.4c3.6,12.5,7.6,24.9,10.7,37.5
		c0.9,3.8-0.2,8.3-0.9,12.3c-0.6,3.6-1.8,7.1-3,11.8c-3,2.3-6.3,0.6-9.7-2.2c-2.1-1.7-4.5-3.4-7.1-4.1
		c-10.4-2.7-15.7-11.4-22.4-18.5c-4.3-4.5-9.2-8.3-14.6-11.8c-6.6-4.3-15.6-6.1-19.2-14.7c-2-4.7-5.2-8.9-8.1-13.3
		c-0.5-0.7-1.6-1.4-2.4-1.4c-6,0.1-11.9,0.5-17.8,0.6c-6.3,0.1-12.6,0-19.2,0c-0.7-12.3-2.2-24.5,8.4-34.5c2.5-2.4,3.4-8.4,2.6-12.2
		c-2.4-10.7-6.3-21.1-9.2-31.8c-3-10.8-5.6-21.7-8.2-32.7c-1.5-6.3-5.7-8.5-11.3-10.9c-6.4-2.7-11.9-7.8-17.3-12.3
		c-1.1-0.9-0.4-4.3-0.1-6.5c1.5-9.7,3-19.3,5-28.9c0.8-4.1,3.1-7.9,3.8-12c0.7-3.7,0.1-7.7,0.3-11.5c0.1-2.8,0.8-5.5,0.8-8.3
		c-0.1-6.1-1.2-12.2-0.8-18.3c0.4-6.3,2.2-12.4,3.2-18.7c0.2-1.3-0.1-3.3-1-4.2c-2.1-2-4.6-3.5-7.5-5.6c6-4.1,11.7-8,17.4-11.9
		c2.3-1.6,6.5-2.8,4.5-6.2c-1.6-2.7-6-6.4-8.1-5.8c-7.5,2.2-10.3-3.1-14.6-6.7c-4.8-4-9.7-7.9-15.1-10.8c-2.5-1.4-6.4-0.2-11.1-0.2
		c-7.1-7.8-15.3-16.9-23.6-25.8c-3.1-3.3-5.8-5.8-4.6-11.4c1-5-0.5-10.7-1.8-15.9c-0.7-2.7-3.4-4.8-5.1-7.3
		c-1.4-2.1-2.6-4.3-3.7-6.5c-0.5-1-0.6-2.3-1.3-3.2c-4.3-6.1-8.7-12.1-12.9-18.3c-0.7-1-0.9-2.6-0.8-4c0.4-6.8-0.1-13.4-3-19.8
		c-0.6-1.2,0.1-4.1,1.2-4.8c5.1-3.6,7.5-8.4,9.2-14.4c1-3.7,4.7-6.8,7.3-10.1c1-1.2,3.3-1.9,3.6-3.1c1.2-5.4,6.3-6.6,9.6-9.8
		c7.8-7.6,18.7-13.3,19-26.7c0.5,0.1,1,0.2,1.5,0.3c1.3,2.3,2.3,4.7,3.9,6.8c8.2,11.3,20.1,15.8,33.2,18.5c7.8,1.6,15.5,4,22.8,7
		c9.2,3.8,18.5,3.8,27.4,1.1c3.5-1.1,6.2-6.3,8.2-10.2c1.6-3.1,0.8-7.4,2.4-10.3c1.7-3.1,5.1-5.2,7.8-7.7c5.4-5,11.1-9.6,16.2-14.9
		c1.7-1.8,2.6-4.9,2.7-7.5c0.1-4.4,1.5-7.8,4.1-11.2c6.3-8.3,11.1-17.4,11.8-28c0.3-4.6-1.4-9.2-2.2-14.4c7.6,0.3,15.4,0.4,23.2,1.3
		c1.6,0.2,3.4,3.5,4,5.6c0.7,2.6,0.2,5.6,0.2,8.5c0,10.2,1.4,20,5.3,29.7c2.3,5.6,2.4,12.1,3.7,18.1c1,4.4,2,8.9,3.8,13.1
		c3.1,7.3,0.8,14.4,0.3,21.6c-0.5,6.8-0.1,13.7,0.2,20.5c0.3,6.7,1.6,13.4,1.5,20.1c-0.1,2.9-2.3,6-3.9,8.8
		c-13.9,23.8-28,47.5-41.9,71.3C2016.1,1353.2,2016.1,1355.3,2015.6,1357.5z"/>
	<path id="_x34_6" class="st0" d="M2014.1,1006.6c8.6-7.1,7.5-16.2,1.3-22.8c-1.9-2.1-2.6-4.1-1.4-7.1c3.2-8.1,3.3-16.4,0-24.4
		c-1.3-3-0.3-4.6,1.7-6.3c5-4.3,10.8-8,14.7-13.1c4.7-6.1,10.1-7.4,17.1-6.9c5.5,0.4,11.1,0.7,16.5-0.1c3.7-0.6,8.2-2.4,10.5-5.2
		c6.5-8,13.6-6.4,21.9-4.1c8.5,2.3,17.3,3.3,26,4.4c3.3,0.4,7.2,0.1,10.1-1.3c3.5-1.6,6-0.9,9.2,0.3c4.3,1.7,8.4,3.1,13.5,2.5
		c7.4-1,14.1,2.9,20.5,6.8c10,6.1,20,12.5,30.4,17.8c12.7,6.5,26,11.6,40.4,13.1c4,0.4,7.1,1.5,8.4,6.3c1.2,4.4,5.4,5,10,2.2
		c5.9-3.6,10.8-3.5,14.3,0.3c4.2,4.5,8.3,9.2,12.7,13.6c12.6,12.4,28.5,16.7,45.2,14.1c8.6-1.3,16.4,2.3,24.5,0.5
		c3.3-0.7,6.9-0.6,10.2-1.6c4-1.2,7.9-1.7,12.2-1.8c7.3-0.1,14.2-3,17.8-10.2c3.5-7.1,8.8-11.3,16.8-10.3c7.3,0.8,12.2-2.4,17.7-6.5
		c6.2-4.7,13.6-7.7,20.5-11.5c0.3-0.1,0.7-0.2,1-0.1c7.5,2.2,14.6,0.3,21.5-2.1c3.5-1.2,6.8-3.2,10.8-5.1c1.5,2.6,2.5,6,1.6,10.3
		c-0.7,3.2-0.4,6.6-0.7,9.9c-0.2,2.8,1.7,7-3.4,7.2c-8.5,0.3-11.6,7.5-16.2,12.4c-7.3,8-13.8,16.7-20.5,25.1c-1.5,1.9-3.6,4-3.7,6.1
		c-0.4,8.7-7.3,11.1-13.1,14.6c-1.3,0.7-2.7,1.3-3.9,2c-5.3,2.9-9,6.2-11.4,12.7c-5.6,15.2-16.1,26.4-33.4,28.9
		c-2.6,0.4-5.1,1-7.6,1.8c-4.4,1.4-6,5.5-3.8,9.6c3.9,7,4.4,14.3,1.6,21.7c-2.4,6.2-5.3,12.2-7.1,18.6c-0.9,3.2-0.2,7.3,0.9,10.6
		c3.9,12.4,8.3,24.7,12.7,37.5c-38,7.8-75.7,15.5-113.2,23.2c-0.8-5.6-1.5-11-2.3-16.4c4.1-0.9,9.2-5.9,9.4-10
		c0.1-1.1-1.3-3.1-2.4-3.4c-4.7-1.3-9.6-1.7-14.2-3.3c-7.9-2.7-13.9,1.3-20.2,4.5c-1.8,1-3.9,2.6-5.6,2.4c-7.4-1-13.7,2.2-20.4,4.3
		c-5.8,1.8-13.6,0.1-16.8-4.7c-4.6-6.7-10.6-9.9-18.4-7.3c-5.8,2-8.7-1.1-11.7-4.7c-6.7-8.1-15.7-12.5-25.8-13.2
		c-8.3-0.6-16.2-0.6-23.2-6.1c-4-3.1-9.3-2.2-13.6-0.9c-4.2,1.2-6.9-0.4-10-2.2c-9-5-18.2-8.3-28.9-6.3c-3.1,0.6-6.6-1.3-10-1.7
		c-9.1-1.1-18.2-2-27.3-3.1c-2-0.2-3.9-0.6-5.1-0.8c0.7-3.6,1.8-6.6,1.7-9.5c-0.3-6.3,1.4-11.7,4.1-17.4c3.3-6.7,3.6-14.1,2.3-21.6
		c-1.6-9.5-3.2-19-4.3-28.6c-0.8-7.5,0.1-15.4-1.4-22.7c-1.1-5.4-4.6-10.3-7.2-15.4C2016.6,1010.2,2015.3,1008.5,2014.1,1006.6z"/>
	<path id="_x34_2" class="st0" d="M2519.9,539.4c0.4-2,1.1-3.7,1.1-5.5c0.1-16.4,0.1-32.7,0-49.1c0-1.2,0-2.4-0.3-3.5
		c-1.8-7-3.1-8-11.1-8.6c3.8-8,3.6-9.7-6-14.3c-3.8-1.8-4.7-4.6-4.6-8.2c0.1-9.1-0.7-18-3.9-26.6c-2-5.4-5-10-10-12.9
		c-8.2-4.7-16.8-8.9-24.9-13.8c-4.5-2.7-9.1-2.8-13.4-1.6c-2.7,0.7-4.6,4.1-6.9,6.3c-2.2-3.9-4.8-8.1-7.1-12.5
		c-0.6-1.1-0.3-2.8-0.1-4.1c0.7-5.3,1.1-10.8,2.6-15.9c1.4-4.9,3.4-10,6.5-13.9c5.4-6.6,12.1-12.1,17.9-18.4
		c4.3-4.7,4.2-10.3,1-15.8c-0.9-1.6-1.8-3.9-1.3-5.5c4-13.5,0.7-25.6-8.1-35.5c-10.9-12.3-5.6-24.1,2.3-35c2.1-2.9,3.9-6,5.5-9.2
		c2.5-5.1,4.7-10.3,7-15.5c2.2-5,4.4-10.1,6.7-15.5c3.3,2.8,6.5,5.3,9.6,8c16.1,14.4,32.2,28.8,48.3,43.3c3.1,2.8,5.1,5.8,5.9,10.4
		c1.9,10.8,8.7,17.7,19.7,19.7c6.9,1.2,12.5,4.6,17.5,9.1c5.1,4.5,9.9,9.3,14.9,13.8c4.8,4.3,10.1,8,14.4,12.7
		c4.1,4.4,7,9.8,10.7,14.5c4.1,5.1,8.5,10,13,14.9c2.4,2.6,5.1,5,7.5,7.6c5.5,5.8,11.4,11.3,16.4,17.6c5,6.3,11.2,10.9,17.6,15.6
		c8.3,6.1,16.1,13,23.9,19.7c10.1,8.8,20,17.7,29.8,26.8c9.1,8.4,17.8,17.2,26.8,25.7c14.9,14,29.9,27.9,44.8,41.8
		c8.8,8.2,17.7,16.4,26.6,24.6c4.1,3.8,8.2,7.7,12.5,11.4c1.2,1,2.8,1.6,4.3,2.1c4.3,1.5,8.8,2.5,12.9,4.5
		c7.1,3.3,13.6,3.4,20.3-1.4c2.7-1.9,6.8-2.1,9.1-4.4c3.4-3.4,5.9-7.7,8.4-11.8c3.2-5.3,5.9-10.9,9.3-16.1c1.5-2.4,4.3-4,6.1-6.2
		c4.2-5.1,8.6-10.2,12.1-15.7c12.7-20.1,25.1-40.5,37.5-60.8c1.5-2.5,3-5,5-8.2c29.9,47.8,59.6,95.2,89.6,143.2
		c-14.7-0.7-28.5-1.3-42.4-2c-0.7,0-1.3,0-2-0.1c-18.6-0.3-37.2-0.6-55.8-1c-21.7-0.5-43.4-1.3-65.1-2c-10.3-0.3-20.5-0.7-30.8-1
		c-20.4-0.7-40.7-1.3-61.1-2c-9.1-0.3-18.2-0.6-27.3-1c-5.1-0.2-10.2-0.9-15.3-0.8c-1.5,0-3.7,1.3-4.5,2.6
		c-5.6,9.6-10.9,19.3-15.7,28c-7.5-0.6-14.5-1.2-21.4-1.7c-2.8-0.2-5.7-0.2-8.5,0c-19.5,1.4-38.3-1.5-56.9-7.2
		c-9.6-2.9-19.5-6.1-29.8-2.9c-0.3,0.1-0.7,0-1,0c-19.8,0.3-39.5,0.7-59.3,1c-0.5,0-1,0-1.5,0c-2.8,0.1-7.4,1.4-8.2,0.2
		c-2.3-3.5-3.5-8-4.4-12.2c-0.9-4.2-1.1-8.5-1-12.8c0-6.6-3.9-9.5-9.4-11.1C2523.6,540.4,2521.6,539.9,2519.9,539.4z"/>
	<path id="_x35_0" class="st0" d="M1895.5,1388.2c6.6,5.8,13.3,11.4,19.5,17.5c3.2,3.2,6.7,2,10.2,2.2c1.5,0.1,3,0.2,4.4,1.5
		c-6.7,4.5-13.4,8.9-20.2,13.4c-3.4,2.3-3.5,4.6-0.2,7c0.9,0.7,1.8,1.4,2.9,1.8c4.6,2.1,5.4,5.5,3.8,9.9c-0.6,1.5-1,3.2-0.8,4.8
		c0.9,8.6-0.2,17.3,0.2,25.9c0.4,9,1.4,18.8-3.4,28c-3,5.8-2.7,13.3-3.8,20.1c-0.8,4.7-0.8,9.5-2.2,14c-1.8,6-0.9,10,4.5,13.8
		c6,4.2,11.1,9.5,18.8,11c2.8,0.5,4.2,2.3,5,5.6c4.7,19.6,9.9,39.1,15,58.6c0.4,1.7,1.1,3.4,1.9,5c1.8,3.6,1.2,6.8-1.5,9.5
		c-6.4,6.4-9.4,13.6-8.8,23c0.8,13.5,0.2,27,0.2,40.5c0,19.7,0,39.5,0,59.2c-37.9-0.6-74.3-1.2-112.4-1.7c2.7-3.9,4.4-7.3,7-9.7
		c5.8-5.6,8.8-12.3,10.6-20c1.3-5.3,5.1-9.9,6.6-15.1c2.6-8.6,5.3-17.7,1.9-26.4c-2.1-5.5-6.9-10-10.5-14.9c-3.1-4.2-6.9-8-9.4-12.5
		c-4.2-7.8-10.3-6.6-16.9-4.6c-9.2,2.9-18.5,4.5-28.3,3.1c-5-12.8-3.8-26.4-3.6-39.8c0.1-5.1-1.8-8.6-4.8-12.3c-1.9-2.3-3-6-2.8-8.9
		c0.9-14.2-8.5-23.1-16.3-32.9c-5.2-6.5-10.2-13.1-15.6-20.1c3.9-0.9,7.6-1,10.7-2.5c5.8-2.8,11.2-6.5,16.8-9.7
		c1.1-0.6,2.4-1.3,3.5-1.3c7,0.2,11.5-3.7,15.6-8.6c1.6-1.9,4.1-3.2,6.2-4.7c7.4-5.2,7.1-10.2-0.3-15.3c-3.8-2.6-6.6-6.5-9.9-9.8
		c-4.5-4.5-9.2-8.9-13.6-13.6c-3.7-4-7.2-8.3-10.6-12.6c-5.5-6.8-11-13.7-16.8-21c4.6-4.4,9.7-9.3,14.9-14.1
		c5.1-4.7,10.7-8.9,15.5-13.7c6.9-7,14.5-12.5,24.3-14.8c13-3.1,23-11.6,32.6-20.2c7.6-6.7,14.4-14.3,21.9-21.8
		c7,4.2,11.9,12,17.6,19.1c3.3,4.1,7.2,7.8,11.1,11.5C1890.1,1395.2,1892.2,1391,1895.5,1388.2z"/>
	<path id="_x35_5" class="st0" d="M2114.2,1851.5c-0.8,2.8-2.2,5.5-2.4,8.2c-0.3,4.3-0.6,8.9,0.6,13c1.6,5.4,4.9,10.2,7,15.5
		c1.2,3.1,1,6.8,2.2,9.9c1.6,4.1,4.1,7.8,6.2,11.7c-0.1,0.3,0,0.8-0.2,0.9c-9.6,6-14.7,16.2-22.5,23.8c-6.7,6.5-14.8,8.7-23.5,10.7
		c-8.2,1.9-16.2,4.9-24,8c-9.2,3.6-18,8.4-28.4,8c-2.2-0.1-4.8,1.4-6.6,2.9c-5.8,4.7-11.2,9.9-17,14.7c-4,3.4-8.4,6.2-12.4,9.6
		c-5.3,4.4-10.3,9.3-15.7,13.5c-4.7,3.7-9.9,6.7-15.9,10.6c-1.7-8-2.9-14.6-4.7-21.1c-1-3.5-2.7-7-5-9.8c-3.7-4.5-8.2-8.3-12.2-12.5
		c-3.9-4-8.3-5.1-13.8-3.3c-17.1,5.7-34.3,11.1-51.8,16.7c-5-12.5-10-25.1-15-37.6c-3.1-7.7-6-15.5-9.1-23.2c-1.6-4-4.1-6.5-9-6
		c-1.8,0.2-4.3-0.9-5.6-2.2c-22.5-22.3-44.8-44.8-67.3-67.1c-7.4-7.4-15.2-14.3-23.6-22.3c8.8-4.7,14-12.8,23-16.8
		c6-2.7,10.7-8.2,16.1-12.3c2.5-1.9,5.2-4.2,8.1-5c10.8-2.9,20.8-8.1,25.9-17.8c4.2-8,9.4-8.8,16.7-8.4c7.5,0.4,15,0,22.5,0.1
		c19.4,0.3,38.9,0.6,58.3,1c4.4,0.1,5.9,3.4,6.3,7.8c0.4,5,1.8,10.3,4.1,14.8c3.7,7.3,9,13.5,16.3,18c3,1.9,5,5.6,6.9,8.8
		c4.6,7.4,8.5,15.3,13.5,22.4c2,2.8,6.1,4.3,9.3,6.2c4.3,2.6,8.6,5.2,13,7.8c0.9,0.5,2,1.2,3.1,1.2c18.7,0.1,37.3,0.2,56,0
		c22.9-0.2,45.9-0.6,68.8-0.9C2112.7,1851,2113.2,1851.2,2114.2,1851.5z"/>
	<path id="_x34_3" class="st0" d="M2748.5,639.4c-0.6,7.5-1.2,13.8-1.7,20c-27.4,0-54.7,0-82.6,0c3.3-6.2,8.3-8.4,13.7-10.4
		c4.4-1.6,6.1-4.9,4.6-9.1c-1.5-4.1-3.9-8-4.9-12.2c-0.8-3.6-1.6-8.3,0-11.2c3.5-6.3,2.4-12.4,1.2-18.7c-0.2-1.2-2.4-2-3.7-2.9
		c-1.4-0.9-3-1.6-4.1-3.3c18.6,0.9,37.3-4.1,55.3,2.9c2.8,1.1,4.1-0.3,5.4-2.7c4.6-8.6,10-16.9,14.1-25.8c2.3-4.9,5.5-4.3,9.2-4.1
		c2.6,0.2,5.2,0.8,7.8,0.9c16.1,0.4,32.2,0.7,48.3,1.1c9.9,0.2,19.9,0.7,29.8,1c10.8,0.3,21.5,0.7,32.3,1c10.1,0.3,20.2,0.7,30.3,1
		c11.3,0.4,22.5,0.7,33.8,1c10.1,0.3,20.2,0.7,30.3,1c21.9,0.7,43.7,1.3,65.6,2c5.6,0.2,11.2,0.9,17,1.4
		c13.7,20.8,27.7,42.1,41.8,63.5c-19.3,7.4-38.1,14.7-56.9,21.9c-23.9,9.1-47.7,18.2-71.6,27.2c-2,0.7-4.8,1-6.6,0.1
		c-29.4-13.3-58.7-27-88.2-40.2c-4-1.8-8.9-1.6-13.5-2c-3-0.3-6,0-9-0.1c-14.4-0.3-28.9-0.5-43.3-1
		C2784.9,641.3,2766.9,640.3,2748.5,639.4z"/>
	<path id="_x35_2" class="st0" d="M2557.9,1724.6c-15.4,1.8-30.5,3.5-45.7,5.4c-14.6,1.8-29.2,4.1-43.8,5.9
		c-12.4,1.5-24.8,2.6-37.2,4.1c-14.6,1.8-29.2,4-43.8,5.9c-7.8,1-15.6,2-23.4,2.9c-4.4,0.5-9-2.5-10.6-6.8c-3-8.1-6.2-16.1-9.1-24.2
		c-3.7-10.6-5.3-21.6-5.5-32.8c-0.1-3.8-1-7.6-1.7-12.7c4.8-1.6,10.6-3.7,16.6-5.4c5.5-1.6,6.4-3,4-8.4
		c-9.3-21.2-18.6-42.4-27.9-63.6c-1-2.2-2.2-3.1-5.4-2.5c-11.2,2.2-22.6,3.7-33.9,5.4c-0.4,0.1-0.9-0.3-1.6-0.5
		c4.2-11.7-3.9-20.6-6.8-31.5c4.2-0.7,8.3-1,12.2-2c11.9-3.2,24.2-5.6,35.6-10.1c23.3-9.4,48.5-13.8,70.4-27
		c3.2-1.9,5.7-0.8,8.5,0.6c5,2.4,10,4.7,15.2,6.5c2.8,0.9,4.3,1.9,3.9,5c-0.6,4.3-0.2,8.9-5.8,10.7c-1.1,0.3-2.1,2.6-2.1,4
		c-0.2,6-0.5,12.1,0,18.1c0.6,6.1,1.7,12,6,17.1c8.2,9.6,15.5,20,23.8,29.4c3.9,4.5,9.5,7.5,14.1,11.4c3.7,3.3,6.9,7.3,10.7,10.5
		c7.3,6.1,14.5,12.4,22.3,17.8c10,7,22.3,7.3,33.8,10.1c0.3,0.1,0.7,0,1,0.1c7.5,1.8,6.9,1.9,8.4,9.8c1.1,5.8,3.9,11.4,6.2,16.9
		c3.7,8.9,7.6,17.7,11.3,26.5C2558,1722.2,2557.8,1723.5,2557.9,1724.6z"/>
	<path id="_x34_7" class="st0" d="M2268.2,1176c-0.8,0.7-1.4,1.6-2.2,1.9c-5.5,1.6-7.6,4.5-5.2,9.4c3.9,7.8,1.2,15.4-0.1,22.9
		c-1.7,9.5-2.1,18.8-0.1,28.3c0.6,2.7,0.7,5.4,1,8.6c-6.1-0.3-12.2-0.5-18.2-1.1c-5.4-0.5-10.7-1.5-16.1-1.9
		c-14-1.1-28-1.5-41.8-3.3c-5.9-0.8-7.9,0.4-8.9,5.8c-0.3,1.6-1.8,3.3-3.2,4.2c-18.4,12.1-36.8,24.2-55.2,36.2
		c-1.5,1-3.1,1.9-4.4,3.1c-5.3,4.8-10.6,5.3-16.7,1.1c-7.7-5.4-15.7-10.4-23.8-15.1c-4.6-2.7-4.9-6.8-5.3-11.2
		c-0.9-9.3-1.8-18.6-2.5-27.9c-0.2-2.4,0-4.9,0.7-7.1c2.9-8.3,1.6-16.2-1-24.5c-2.7-8.7-4.2-17.7-6.2-26.6c-0.3-1.1-0.5-2.2-0.9-3.2
		c-5.2-12.3-5.3-25.2-5-37c6.1-0.5,11.9-1.9,17.4-1.2c6.4,0.9,13.1,3,18.8,6c5.2,2.8,9.8,4.2,15.8,3c3.6-0.7,8.4,0.3,11.7,2.2
		c5,2.9,10.1,4.8,15.8,4.4c12-0.9,21.5,4.2,29.3,12.5c5.3,5.7,10.6,7.8,18.4,5.9c3-0.7,8.1,1.5,10.3,4c7.5,8.7,14.4,11.2,25.4,7.7
		c6.8-2.2,13.3-4.6,20.9-4.5c4.2,0.1,8.6-3.3,12.5-5.8c3.3-2.1,6.1-1.1,9.1-0.1C2261.4,1173.8,2264.5,1174.8,2268.2,1176z"/>
	<path id="_x34_8" class="st0" d="M2298.2,1326.8c-5.3,1.1-10.3,2.2-15.4,3.1c-15.4,2.8-30.8,5.4-46.2,8.2
		c-14.1,2.5-28.2,5.2-42.3,7.8c-17.3,3.2-34.6,6.7-51.9,9.7c-4.7,0.8-9.7,0.4-14.5,0.3c-18.6-0.3-37.2-0.6-55.8-1
		c-10.8-0.2-21.5-0.6-32.3-1c-5.3-0.2-10.5-0.9-16.7-1.4c14.5-24.7,28.9-49.3,43.7-74.8c8.3,5.5,16.6,11,24.9,16.5
		c3.4,2.2,6.6,5.8,10.2,6.3c3.6,0.5,8-1.3,11.3-3.4c20-12.9,39.8-26.1,59.5-39.5c3.8-2.6,6.3-6.8,10-9.6c2-1.5,5.2-2,7.8-1.9
		c5.4,0.2,10.7,1.4,16.1,1.8c13.6,1.1,27.3,2,40.9,3.1c3.8,0.3,7.6,0.3,11.3,1.1c1.8,0.4,4,2.2,4.6,3.8c2.4,7.3,6.2,13.6,11.3,19.3
		c2.2,2.4,3.1,6,4.5,9.1c5.6,12.1,11.3,24.3,16.9,36.4C2296.7,1322.6,2297.3,1324.5,2298.2,1326.8z"/>
	<path id="_x35_4" class="st0" d="M2190.4,1593.1c8.3-7,17.8-10.7,28.7-11.2c3.2-0.2,6.6-0.8,9.4-2.2c9.5-4.9,19.9-5.8,30.1-7.8
		c4.6-0.9,9.1-2.6,13.8-3.4c1.6-0.3,4.5,0.6,5,1.8c2.7,5.7,4.9,11.7,6.9,17.7c0.6,2,0.6,4.7-0.3,6.5c-3.3,6.3-1.9,11.9,1.5,17.6
		c2.7,4.6,4.9,9.5,7.5,14.2c3.9,7.1,4.1,15.1,4.8,22.8c0.3,3.8-0.6,7.9-2,11.5c-2.1,5.3,0.5,9.2,2.7,13.4c1,1.9,2.2,3.6,3,4.7
		c-3.7,6.1-7.1,11.8-10.5,17.5c-0.3,0.4-0.7,0.9-0.7,1.3c1,9.7-6.9,12.6-13,16.4c-17.2,10.9-34.6,21.5-51.9,32.3
		c-1.2,0.8-2.6,1.4-3.9,2c-4.1,1.8-7.1,0-7.4-4.5c-0.2-2.3,0-4.7,0-7c-0.3-16.4-0.6-32.9-1.1-49.3c-0.1-3.3,1.1-5.3,3.4-7.2
		c8.6-7.2,17-14.5,25.6-21.6c3.7-3,3.4-5.7,1.1-9.4c-7.6-12.3-15.1-24.8-22.5-37.2c-3.4-5.7-7.3-11.3-10.1-17.3
		c-2.3-4.9-5.3-4.2-9.1-2.8c-3.4,1.2-7,2.2-10.5,3.2C2190.7,1594.5,2190.6,1593.8,2190.4,1593.1z"/>
	<path id="_x35_3" class="st0" d="M2306.7,1675.1c-4.2-4.8-8.4-10.7-4.4-17.2c3.6-5.9,3.3-11.4,1.6-17c-2.4-7.8-5.4-15.4-8.6-23
		c-2-4.6-4.8-8.8-7.6-13.9c5.8-1.1,11-2.1,16.2-3c5.9-1,11.9-2.1,17.8-2.8c1.3-0.2,3.6,0.7,4.1,1.6c7.9,17.5,15.5,35.1,23.2,52.7
		c1.2,2.7,2.4,5.3,4.1,8.9C2337.8,1666,2322.5,1670.5,2306.7,1675.1z"/>
	<path id="_x34_0" class="st0" d="M2103.2,1780.8c3.1-3.8-1.6-8.5-1.9-13.6c3.3,0,6.6,0,10.5,0c0.5,2.4,1.1,5,1.7,8
		c-4.1,0.7-5.3,2.4-3.8,6.3c1,2.5,0.3,5.6,0.5,8.4c0.3,5.2,0.7,10.3,0.8,15.5c0,1.8-0.7,3.7-1.2,6c-1.9-0.8-3.2-1.3-4.4-1.8
		C2110.3,1799.6,2104.3,1791.1,2103.2,1780.8z"/>
	<path id="_x33_9" class="st0" d="M2083.2,1760.5c1.1,1.2,2.1,2.5,3.4,3.5c1.4,1.1,2.9,2.5,4.5,2.8c3.5,0.6,8.1,6,6.3,8.7
		c-2.9,4.2-0.9,7.6,0.7,10.8c3.1,6.3,3.1,12.7,2.8,20.3c-6.5-5.7-8.3-12.6-9.7-19.6c-0.1-0.6,0.7-1.7,1.4-2.2c3.9-2.7,2.7-5,0-8.1
		c-4.1-4.5-7.6-9.5-11.3-14.2C2081.8,1761.9,2082.5,1761.2,2083.2,1760.5z"/>
</g>
</svg>
