<?xml version="1.0" encoding="utf-8"?>
<!-- Generator: Adobe Illustrator 19.0.0, SVG Export Plug-In . SVG Version: 6.00 Build 0)  -->
<svg version="1.1" id="Layer1" xmlns="http://www.w3.org/2000/svg" xmlns:xlink="http://www.w3.org/1999/xlink" x="0px" y="0px"
	 viewBox="0 0 2000 1000" style="enable-background:new 0 0 2000 1000;overflow: hidden; display: inline; width: inherit; min-width: inherit; max-width: inherit; height: inherit; min-height: inherit; max-height: inherit;" xml:space="preserve">
<style type="text/css">
	.st0{fill:#8FD4EB;stroke:#000000;stroke-width:3;}
</style>
<g>
	
	<path onclick="modal(this.id);" id="58" class="st0" d="M1250.6,611.5c-3.2-5.2-7.5-6-12.9-5.7c-7.7,0.5-15.4-0.5-22.6,3.9c-2.1,1.3-5.8,0.9-8.4,0.1
		c-4.2-1.3-7.2,0.3-10.4,2.4c-1.4,0.9-2.6,2-4.1,2.7c-7.8,3.6-15.6,7-23.7,10.6c-3.4-6.4-6.6-12.3-9.8-18.2
		c-2.6-4.8-6.3-5.8-10.3-2.2c-10.4,9.2-20.6,18.6-30.9,27.8c-14.3,12.7-29.5,24.5-42.7,38.3c-8.7,9.1-19.3,10-29.9,12.7
		c-12,3.1-24,5.9-36,9c-5.9,1.6-6.7,3.3-4.6,8.7c1.6,4.2,3.6,8.3,5.9,13.4c-2.8-0.3-5.1-0.6-7.4-0.7c-4-0.2-8-0.5-11.9-0.4
		c-2.4,0-4.8,0.9-7.3,0.9c-10.8,0.1-21.7,0.4-32.5-0.2c-3.1-0.2-6.6-3-8.9-5.5c-3.4-3.7-5.9-8.2-8.8-12.3c-2.1-3-1.3-5.4,0.9-7.9
		c2.7-2.9,5.4-5.8,7.9-8.8c5.7-6.7,7.4-14.5,7.9-23.2c0.4-8.4,2.9-16.7,4.1-25.1c0.3-1.6-0.3-3.7-1.1-5.2c-2.7-4.6-5.6-9-8.5-13.4
		c-0.8-1.2-1.8-2.6-3.1-3.2c-15.7-7.7-18.5-23.5-23.6-37.8c-2.2-6.1-4.5-12.2-6.4-18.4c-0.7-2.4-0.7-4.9-1.2-8.2
		c-1.9-3.8-4.4-8.6-6.8-13.4c-0.1-0.3-0.1-0.8-0.4-0.9c-5.8-2.9-11.5-6.1-17.5-8.4c-5.2-1.9-10.8-2.7-16.2-4
		c-0.8-0.2-1.6-0.9-2.3-0.9c-8,0.7-11.5-4.3-14.2-10.7c-2.4-5.7-5.4-11.1-7.8-16.8c-2.3-5.6-6.4-9.4-11-13.2
		c-6.1-5-11.1-11.2-18.9-13.8c-3.3-1.1-4.8-6.2-3.1-9.3c2.6-4.7,2.4-9.5,1.2-14.5c-1.5-6,0.6-11.4,3-16.6c3.3-7.1,1.9-8.9-5.6-10.5
		c-9-1.9-17.3,0.6-25.8,2.2c-3.7,0.7-7.7-0.6-11.5-0.1c-8.7,1.1-11.7-6.1-15.5-10.9c-4.3-5.5-9.8-4.7-15.1-5.6
		c-0.8-0.1-1.7-0.8-2.4-1.4c-7.1-6.6-13.9-13.5-21.2-19.8c-6.5-5.6-11.9-12-15.3-19.9c-0.5-1.2-0.3-3.2,0.3-4.5
		c2.2-4,4.7-7.9,7.2-11.6c2.1-3.1,2.4-5.4-2.2-6.4c3.5-5.7,7.9-10.8,9.9-16.8c1.7-5.1,0.5-11.1,0.5-16.7c0-0.1-0.2-0.3-0.2-0.4
		c-2.2-8.9-0.1-11.5,8.6-12.9c5.8-0.9,11.5-2.8,17.2-4.6c3.1-1,8.6,1.4,10.8,4.8c1.9,3,4.3,5.8,6.3,8.7c2.8,4.2,7.3,4.3,11.6,5.2
		c7.3,1.5,14.6,3.3,21.9,4.9c6.7,1.4,13.3,3,20.1,3.9c4,0.6,7.4,1.1,10.9,4c3.7,3,9.1,3.9,13.6,6c3,1.4,6.4,2.7,8.7,5
		c6.1,6.2,12.1,12.7,17.5,19.5c7.1,8.8,16,8.9,26.2,7.5c12.8-1.7,21.9-10.5,33-15.3c6-2.6,11.6-6,17.7-8.2c5-1.9,8.8-4.6,11.4-9.3
		c2.8-4.9,5.8-9.8,8.6-14.3c2.3,0.1,4.1,0,5.9,0.3c4.3,0.8,8.5,1.8,12.8,2.6c7.8,1.5,15.7,4,23.5,4.1c10.1,0.1,17.1,5.6,24.4,11
		c0.6,0.5,1.3,1.7,1.1,2.4c-1.5,5.8,2.3,7.6,6.7,9c10.8,3.3,21.7,6.5,32.5,10c5.7,1.8,11.6,3.5,16.9,6.3c4.4,2.3,8.1,6,11.9,9.5
		c7.9,7.2,16.3,13.2,27.4,14.3c1.9,0.2,4.1,1.4,5.5,2.7c4.3,4,8.2,8.6,12.7,12.3c3.2,2.7,4.2,6.3,2.9,9.3c-2.4,5.1-0.4,8.6,2.5,12.2
		c2.6,3.2,5,6.5,7.6,9.7c3.1,3.8,6.9,5,11.6,1.9c1.8,6.8,7.2,6.6,12.6,6.9c4,0.3,7.9,1.5,11.9,2.4c2.4,0.5,4.8,1.6,7.1,1.4
		c4.8-0.4,7.1,2.3,9.3,5.9c3.1,5.1,7,9.8,9.7,15.1c1.9,3.6,2.7,7.9,3.8,12c2.7,9.9,9.4,15.9,18.7,19.1c3.8,1.3,5.7,3.9,7.7,6.9
		c4.1,6.3,6.1,6.8,13.6,3.4c1.8,2.1,3.7,4.3,5.4,6.6c3.9,5.4,9.6,6.9,15.7,8.3c2.5,0.5,5.1,1.3,7.1,2.7c9.1,6.4,19.1,10.5,30,12.3
		c0.8,0.1,1.7,0.4,2.2,0.9c3,3.4,6,6.8,9.8,11.2c-6.1-1.3-10.7-2.8-15.5-3.1c-4.4-0.3-9.5-0.5-13.1,1.5
		c-9.8,5.4-15.6,14.3-16.5,25.7c-0.7,9.1-6.1,14.7-13.4,18.6c-4.1,2.1-6.8,4.3-7.9,9C1265.7,599.4,1259.1,605.9,1250.6,611.5z"/>
	<path onclick="modal(this.id);" id="59" class="st0" d="M784.9,455.7c-2.5,2.8-8.5,0.8-8.1,7.6c0,0.4-1,1.3-1.4,1.2c-7.1-2-7,6.5-12.8,7.8
		c2.1,1.2,3.2,1.8,4.4,2.5c-2.7,2.6-5.9,4.7-7.7,7.7c-0.7,1.2,1.7,4.2,2.2,5.3c11.1-1.7,21.3-3.2,31.5-5c1.5-0.3,3-2.2,3.8-3.7
		c1.2-2.2,1.4-5.1,2.9-7.2c5.1-7.5,8.4-8,16.2-2.6c5.8,4,11.2,8.5,17.3,12c3.8,2.2,6,5.3,7.6,9.1c3.3,7.4,6.1,15.1,9.8,22.4
		c1.7,3.3,3.4,7.6,8.6,7.1c0.1,0,0.3,0.1,0.5,0.2c10.3,7,23,7,34,11.9c1.6,0.7,3.4,1.9,4,3.4c3.4,8.4,6.4,16.9,9.5,25.4
		c0.3,0.8,0.5,1.7,1.1,2.2c7.9,7.9,9,18.9,12.7,28.6c2.4,6.4,5.1,11.9,11.2,15.5c3.4,2,6.5,4.8,9.2,7.7c2,2.2,2.7,5.7,4.8,7.7
		c5.3,4.9,5.3,9.8,3.3,16.7c-2.4,8.2-2.2,17.2-3.4,25.8c-0.9,7.2-4.8,12.9-10,17.8c-2.3,2.1-4.7,4.5-5.7,7.3
		c-0.9,2.4-0.6,5.8,0.6,8.1c2.2,4.3,5.4,8.1,8.5,12.5c-7.7-0.6-14.7-1.4-21.6-1.5c-9.9-0.2-18.1-4.8-26.5-9.2
		c-6.4-3.3-12.6-8.3-20.8-6c-1.1,0.3-3.1-0.1-3.6-0.9c-4.9-8.3-13.5-12-21.3-18.1c2.8-6.4,6.1-12.8,8.3-19.6
		c2.1-6.3,7.1-8.9,12.1-11.8c1.4-0.8,2.9-1.7,3.9-2.9c2.2-2.8,1.9-6-1.1-7.5c-4-1.9-8.5-3.1-13-3.9c-1.4-0.3-3.6,1.3-4.9,2.6
		c-6.7,6.4-11.1,6.2-19.6,2.5c-9.3-4.1-15.3-11.7-22.1-18.2c-4.9-4.8-9.1-11.6-8.1-19.7c0.5-3.8-0.7-6.4-4.4-7.7
		c-0.3-0.1-0.6-0.4-0.8-0.5c-2-1.4-4.7-4.3-6-3.7c-3.3,1.2-6.6,3.6-8.9,6.3c-7.2,8.5-13.9,17.4-20.8,26.2
		c-2.8,3.6-10.6,4.3-14.5,2.3c-6.9-3.5-14.2-6.1-21.3-9.3c-2.6-1.1-5.3-2.3-7.6-3.9c-11.6-8.4-15.5-22.3-23.7-33.2
		c-2.8-3.8-5.9-7.5-8.1-11.7c-1.5-2.7-1.8-6.1-2.5-9.3c-3.8-17.2-7.5-34.3-11.3-51.5c-0.2-0.9,0-1.9,0-3c6.2,1.6,12.2,3.4,18.2,4.6
		c2.3,0.5,5.6,0.7,7.2-0.6c1.6-1.4,1.7-4.6,2.6-7.4c1.5-0.9,4.6-1.8,5.5-3.7c0.9-2,0.1-5.1-0.6-7.6c-4.3-15.4-8.9-30.6-13-46
		c-1.8-6.8-6.2-9.6-12.7-10.8c-6.9-1.2-6.9-1.5-6.2-8.3c0.2-1.6,0.6-3.2,1-4.8c1.5-5.7,0.7-10.6-3-15.5c-2.3-3.1-2.8-7.5-4.2-11.6
		c2.8-0.9,5.4-2.3,8-2.4c9.7-0.3,12.1-8.3,16-14.7c3.2-5.3,6.1-10.7,9.3-16.4c2.3,12.8,11,20.8,19.6,28.9
		c5.5,5.1,10.9,10.2,16.1,15.6c0.9,0.9,0.5,3.2,0.7,5.5c2.1,0,4.5,0.3,6.9,0c8.2-1,13.5,3.1,17.7,9.4c2.5,3.7,5.1,6.2,10.3,6.6
		c8.9,0.5,17.8,2,26.5-1.3c0.9-0.3,2.2-0.7,2.9-0.3c4.3,2.3,8.5,2.1,12.8,0c0.1,0,2.1,2.6,1.8,3.6c-0.6,2.6-2.2,5-3.1,7.6
		c-4.3,11.4-12.2,19.4-22.9,24.8C786.9,453,786,454.5,784.9,455.7z"/>
	<path onclick="modal(this.id);" id="56" class="st0" d="M763.1,484.2c0,0.1-0.1-0.1,0-0.2c6.1-4.6,6.1-14.2,14.3-17.2c2.1-0.8,5.1-1.9,2.9-5.4
		c1.8-0.4,3.4-0.9,5.1-1.3c1.7,2,3.5,3.9,5.2,5.9c1.7,1.9,3.3,3.9,5.2,6.2c-0.5,1.4-0.9,3.5-1.8,5.4c-0.5,1-1.6,2.2-2.6,2.3
		C782.1,481.4,772.8,482.8,763.1,484.2z"/>
	<path onclick="modal(this.id);" id="57" class="st0" d="M788.3,457.8c6.7-7.1,16-10.3,21.6-19.5c0.3,4.1,0.9,8.3,0.7,12.3c-0.2,3.1-1.5,6.1-2.6,10.2
		c-1,0.6-3.1,1.7-5.2,2.8c-2.2,1.1-4.4,2.2-6.9,3.4C793.3,463.9,790.7,460.7,788.3,457.8z"/>
</g>
</svg>
