<?xml version="1.0" encoding="utf-8"?>
<!-- Generator: Adobe Illustrator 19.0.0, SVG Export Plug-In . SVG Version: 6.00 Build 0)  -->
<svg version="1.1" id="Layer1" xmlns="http://www.w3.org/2000/svg" xmlns:xlink="http://www.w3.org/1999/xlink" x="0px" y="0px"
	 viewBox="0 0 9000 4600" style="enable-background:new 0 0 9000 4600;overflow: hidden; display: inline; width: inherit; min-width: inherit; max-width: inherit; height: inherit; min-height: inherit; max-height: inherit;" xml:space="preserve">
<style type="text/css">
	.st0{fill:#8FD4EB;stroke:#000000;stroke-width:1;}
</style>
<g>
	<path onclick="modals(this.id);" id="81" class="st0" d="M4038.5,2178.4c2.7,2.1,5.3,4.3,8,6.4c9.5,7.5,20.3,12.5,31.4,17.1c6.4,2.6,13.1,5.9,17.8,10.7
		c13.9,14.6,30.9,17.2,49.5,14.7c17.5-2.4,26.7,2.8,33.7,19.9c4.6,11.4,9.3,22.8,13.7,34.2c0.9,2.4,1,5.2,1.1,7.8
		c0.2,5.7,0.2,11.3,0,17c-0.1,5.3,2.9,8.3,7.5,9.1c7.4,1.3,14.7,2.8,22.6,0.9c7-1.6,14.4-1.8,21.6-1.7c6.6,0.1,13.4,0.5,19.8,2.2
		c7.1,1.9,13-0.2,19.1-3c12.1-5.5,21.4-14.5,30.8-23.4c3.5-3.3,7.2-5.4,12.1-6.2c5.5-0.9,10.8-3.1,15-6c5.5-6.5,11-13.1,16.7-19.4
		c4.6-5.2,10-9.5,12.3-16.6c0.8-2.5,4.6-5.3,7.4-5.7c7.5-1,15.1-1.1,22.7-1.1c6.5,0,13.1,0.7,21.8,1.3c-1.9-5-2.8-8.3-4.3-11.3
		c-2.6-5.3-5.7-10.4-8.4-15.7c-2.1-4.2-3.2-9-5.9-12.6c-8-10.6-6.6-21.6-2.4-32.9c3-8.1,6.4-15.9,12.1-22.7
		c3.5-4.2,5.2-9.8,7.8-14.8c3.1-6.2,6-12.5,9.5-18.5c3.3-5.6,3.4-16.4-1.3-20.1c-8.4-6.5-10.7-15.4-11.9-25.2
		c-0.8-6.6-2.4-13-3.3-19.6c-0.4-2.8,0.2-5.9,0.6-8.7c1.9-12.8,4.3-25.5,5.8-38.3c0.5-3.9,2.4-5.6,5-7.9c3.5-3.1,9.5-4.6,9.1-10.9
		c-0.6-8.3,2.7-17.3-4.9-24.5c-5-4.7-7.5-10.2-5.6-17.9c1.2-4.8-0.6-10.4-1.1-16.4c5.2-2.7,9.9-6.1,15.1-7.7
		c11.2-3.4,19.6-11.1,29-17.3c2.3-1.5,3.8-4.5,5.3-7c2.8-4.9,5.2-10,8-14.9c3.4-6,9.3-9.1,15.8-6.9c8.8,3.1,17.1,3.5,26.3,1.7
		c6.5-1.3,13.7,1.4,20.7,2.1c3.4,0.3,6.8,0.1,10.8,0.1c-1-9.7-4.1-16.6-9.5-22.9c-13.5-15.5-16.1-20.5-1.9-40.9
		c4.6-6.6,9.1-12.8,16-17.4c7.1-4.7,10.9-11.6,10.4-21.1c-0.6-10.5,1.2-21.2,1.3-31.8c0-6.6,3.7-9.2,9-11.3
		c13.9-5.6,27.6-11.7,41.5-17.1c5.7-2.2,9.4-5.7,11.8-11.2c3.4-7.9,7.3-15.7,10.8-23.6c1.7-3.8,3.6-6.3,8.2-7.7
		c13.7-4.3,17.5-12.4,12.7-26.1c-1.8-5.3-4.4-9.9-2.6-16.2c0.9-3.4-2.3-7.9-3.5-11.6c97.4-20.1,195.1-40.2,293.3-60.4
		c-4-8.1-7.1-15.3-11.1-21.8c-4.6-7.5-13-10.2-20.6-13.3c-14.8-6-30-11-44.6-17.3c-13.1-5.6-25.8-12.3-38.6-18.6
		c-9.2-4.5-18.4-9.3-27.6-13.9c-8.3-4.1-16.7-7.6-20.1-17.7c-1.1-3.4-4.9-6.1-8-8.6c-6.7-5.5-13.6-10.6-20.4-16
		c-14.2-11.2-25.3-25.4-36.6-39.3c-5.8-7.1-10.7-15.3-7.2-25.6c0.8-2.4,0.2-5.3,0.2-8c0-59.3,0-118.7,0-178c0-3.6,0-7.2,0-11.6
		c7.7,3.5,15,5.9,21.3,10c4.3,2.8,7.7,7.4,10.3,11.9c5.3,9,13.2,12.8,23.2,13.1c7.5,0.2,14.2,0.9,18.9,8.1c1.4,2.1,5.8,3.2,8.9,3.2
		c10.4,0,19.8-3.5,26.7-11.4c2.7-3.1,3.2-8.2,5.1-13.7c8.6,1.6,18.3,3,27.7,5.2c7.1,1.7,12.2,6,15.1,13.2c2.1,5.2,5,5.9,9.3,3.3
		c7.5-4.6,15.1-9.1,22.5-13.9c2.7-1.8,6-3.8,7.3-6.5c6.9-13.8,15.8-27.1,12.5-43.9c-1.3-6.6,1.1-12.2,5.4-17.4
		c3.9-4.7,7-10.1,10.7-15.6c6.9,4.9,15.8,5.6,24.9,5.5c9.2-0.1,18.1,1.9,27.6-0.8c13.9-4,25.4-11.4,35.5-21.1
		c5.4-5.2,11.5-9,18.4-8.5c13.8,0.9,26.5-0.9,37.1-10.1c1.8,1.2,3,1.9,4,2.7c9.7,7,19.1,12.8,32.6,11.7c15.6-1.3,31.5,1,47.3,2.2
		c4.5,0.3,9,1.9,13.5,3.3c8.2,2.5,13.3,1.6,18.2-5.5c7.9-11.4,16-22.8,16.4-37.7c0.1-4.1,2.6-8.1,3.9-12.2c2-5.9,4.1-11.9,6.1-17.8
		c2.5-7.5,4.1-15.5,7.5-22.6c7.6-15.7,13.9-31.7,17.1-48.8c0.8-4.3,2.6-7.8,6.3-10.8c7.5-6.1,14.9-12.4,21.4-19.4
		c8-8.5,17.7-9.5,28.3-8.5c4.9,0.5,9.9,1.1,14.9,1.1c21.7,0.3,43.3,0.2,65,0.8c21.6,0.6,43.1,2,64.7,2.7c17.2,0.5,34.5,0.3,51.7,0.7
		c34.5,0.7,69,1.6,103.4,2.5c0.3,0,0.7,0,1,0c38.6,0.7,77.2,1.2,115.8,2.1c21.6,0.5,43.1,1.8,64.7,2.6c10.5,0.4,21.1,0.3,31.6,0.8
		c2.5,0.1,5.5,0.7,7.4,2.2c14.7,11.9,29.2,24.2,43.9,36.1c5.5,4.5,6.8,9.6,4,15.8c-6,13.5-2.6,25.9,3.9,38.2c2,3.9,4.7,6.3,8.7,7.6
		c5.1,1.6,10.1,3.6,15.3,4.5c8.1,1.4,10.6,6.4,11.2,13.8c0.8,10.3,2.3,20.5,3.5,30.7c3,26,5.7,52.1,9.1,78.1
		c1.2,9.7-1.5,16.2-9.5,22.1c-16.8,12.5-33,25.8-49.6,38.7c-3.1,2.4-6.8,4.3-10.4,5.8c-18.2,7.4-36.4,14.8-54.7,21.7
		c-7.6,2.9-11.8,7.8-14.1,15.4c-13.6,45.9-27.4,91.7-41.1,137.6c-3.1,10.3-0.9,13.7,9.9,13.6c31.6-0.4,63.2-1.4,94.8-1.8
		c20-0.3,40,0.1,60-0.2c45.3-0.6,90.5-1.3,135.8-2c37.9-0.6,75.8-1.2,113.7-2c19.6-0.4,39.2-1.2,60.7-1.9c-2.4,3.2-3.5,4.9-4.9,6.3
		c-6.1,6.6-12.3,13-18.3,19.6c-5.1,5.7-10.2,11.4-15.1,17.3c-5.1,6.1-10.5,12-15.1,18.6c-6,8.7-11.5,17.8-16.8,26.9
		c-3.4,5.9-5.5,12.3-0.1,18.5c0.2,0.2,0.3,0.6,0.4,0.9c1.8,5.9,8.2,15.7,12.5,20.2c3.9,4.1,7.7,8.4,10.9,12.9
		c5.1,7.2,11.5,12.8,19.1,17.2c3.3,1.9,7.2,3.8,5.7,8.5c-20.5-0.5-39.6,4.1-57.6,12.6c-4.7,2.2-7.8,7.9-11.5,12.1
		c-3.4,4-6.5,8.4-10,12.4c-5.2,5.9-8.4,12.5-8.9,20.5c-0.4,7.3-1.9,14.5-2.5,21.8c-0.3,3.3-1,7.7,0.7,9.7c6,7.4,5.4,16.2,6.5,24.6
		c1.3,10.2,6,18.8,10.4,27.8c14.3,29.7,35.2,54.8,54.5,81c19.5,26.5,39.4,52.8,59.1,79.2c1.6,2.1,3,4.3,4.8,6.9
		c-12,10.2-23.4,20.1-38.7,25.8c-121,44.9-241.7,90.5-362.6,135.8c-72.6,27.2-145.2,54.3-217.9,81.2c-7.5,2.8-11.2,6.5-5.8,15
		c5.5,8.7,11,17.7,18.3,24.8c8.4,8.3,18.7,14.7,28.2,22c2.6,2,6.3,3.3,7.6,5.9c6.2,11.6,14.7,21.9,18.3,34.9
		c3.1,11.5,9.8,20.8,18.1,29.4c13.9,14.3,27,29.4,40.4,44.2c1.5,1.7,2.4,4,3.6,5.9c2.6,4.2,5.1,8.4,8,12.4
		c6.8,9.4,13.8,18.7,20.6,28.1c1.1,1.6,1.9,3.5,2.4,5.4c4.3,18.9,9.9,37.2,21.2,53.4c1.1,1.6,1.6,3.6,2.3,5.5
		c2.8,8.5,5.4,17,8.2,25.5c0.4,1.3,1.3,2.5,1.2,3.8c-0.2,14.6,5.5,28,9.4,41.6c3,10.4,7.4,20.7,12.5,30.2
		c6.7,12.6,14.6,24.6,22.4,36.6c2.5,3.9,6.1,7,9.3,10.4c7.5,8,15.5,15.5,22.4,24c3.5,4.2,5.7,9.8,7.3,15.1
		c3.6,12.1,11.1,20.9,21.3,27.8c6,4.1,11.9,8.4,19.3,13.7c-15.7,5.8-29.6,12.3-44.3,16.1c-45.3,12-90.9,22.9-136.4,34.3
		c-1.9,0.5-3.9,1-5.8,1.6c-6.7,2.1-7.8,3.7-6.7,10.9c3.6,24.3,7.5,48.6,11.2,72.9c0.5,3,0.9,5.9,1.3,8.9c2.2,17,2,16.8-9.7,29.5
		c-9,9.7-20.2,16.2-31,23.3c-32.2,21.2-64.6,42.3-96.9,63.5c-13.3,8.8-25.9,18.9-39.8,26.6c-12.9,7.2-26.7,12.6-42.3,13.1
		c-22.9,0.8-45-3.5-67.3-7.3c-7.5-1.3-15.1-2.2-22.7-2.9c-6.5-0.6-8.5,1.2-8.9,7.7c-0.6,10.9-1.1,21.9-1.4,32.8
		c-0.4,16.6-0.4,33.3-0.7,49.9c-0.1,5.3,1.4,9.6,5.2,13.5c10.2,10.5,20.4,21,30,32.1c11.8,13.5,19.5,29.1,23.2,46.8
		c0.9,4.5,2.5,9,3.8,13.4c2.4,8.3,5.3,16.5,7.1,24.9c2.1,9.9,7.2,17.8,14,24.7c10.7,11,21.6,21.7,32.4,32.5c2.1,2.1,4.1,4.3,5.6,6
		c-3.9,8.3-6.8,16.5-11.2,23.7c-4.3,7-9.3,14.2-15.5,19.4c-10,8.3-16.9,18.6-23.3,29.6c-2.2,3.9-5.5,7.4-8.9,10.3
		c-6,5.1-10.8,10.6-12.7,18.5c-1.3,5.5-3.1,11-5.8,15.9c-8.9,16.8-11.5,34.4-7.8,54c-2.7,0.8-5.1,1.7-7.5,2.1
		c-1.6,0.3-3.3-0.3-5-0.4c-16-0.9-31.5,0.3-46.9,6.5c-29.3,11.8-59.4,21.6-88.8,33.2c-13.8,5.4-27.5,5.8-41.9,4.6
		c-23.8-2-47.7-3.2-69.7-4.6c-6.7-4.5-11.9-8.5-17.6-11.6c-16.2-8.8-28.4,0.8-40.3,9.9c-2.4,1.9-4.1,5.2-5.2,8.2
		c-3.7,9.8-9.6,17.5-19.7,21.1c-8.5,3.1-11.7,9.3-13.3,17.9c-4.9,26.5-10.6,52.8-16,79.1c-0.5,2.2-1.2,4.4-2.2,7.9
		c-7.8-4.8-14.7-10-22.3-13.5c-17.2-7.9-34.7-15.2-55.6-11.4c-6.5-6.5-13.5-13.5-20.6-20.5c-6.9-6.8-9.1-6.6-16.9-0.8
		c-5.5,4.2-11.4,7.9-17.4,11.4c-20.2,11.6-33,28.4-36.6,51.6c-1.1,7-3,13.6-7.4,19.3c-2.2,2.9-4,6.1-6.2,9
		c-8.7,11.5-15.9,23.7-18.9,38.1c-0.4,1.9-1.5,3.6-2.5,5.9c-17.5-11.8-35.1-22.7-51.6-35c-10-7.5-20.2-7.7-31.1-5.3
		c-6.7,1.5-13.3,3.9-20.4,6c-14.2-17.8-28.1-35.1-42-52.5c-15.8-19.8-31.5-39.6-47.3-59.3c-4.9-6.2-5.9-6.6-13.6-3.5
		c-22.8,9.2-45.5,18.8-68.3,28c-4.2,1.7-6.8,4.3-6.9,8.8c-0.7,17.2-10.1,30.7-19.4,44c-8,11.5-16.5,22.6-24.9,33.7
		c-6.6,8.8-16.1,12.9-26.6,13.3c-17.9,0.7-35.9,0.3-53.9,0.2c-12.3-0.1-22.6,4-31.1,13c-4.5,4.8-9.5,9.3-14.7,13.2
		c-9.9,7.4-21.4,9.4-33.7,10c-30.5,1.6-61,4.2-91.4,6.4c-18.2,1.3-36.6,1.5-54.6,4.3c-16.1,2.6-33.1,5.2-42.2,22.2
		c-6.7,12.4-17.8,18.5-31.4,20.1c-6.1,0.7-11.5,3.1-16.3,6.9c-10.8,8.7-24,13.1-36.5,17.9c-24.2,9.3-49,17-74.6,22
		c-1.3,0.2-2.6,0-5.1,0c0-5.2-0.4-10.2,0.1-15c0.8-6.9-0.3-13.3-3.3-19.4c-2.6-5.4-2.6-10.8-1.7-16.5c2.4-15.4,4.6-30.9,6.7-46.3
		c0.8-5.9-0.9-8.2-6.8-8.2c-15.9-0.2-31.8-0.1-49.3-0.1c-0.5-4.9-1.5-11.1-1.6-17.2c-0.4-17.6-1.8-19.8-18.9-21.1
		c-7-0.5-11.9-3.6-16.6-8c-4.8-4.5-9.9-6.1-16.9-6.2c-14.5-0.1-29-2.2-42.7-8.5c-6.5-2.9-13.9-3.9-21.1-5
		c-8.5-1.3-17.2-1.7-25.7-2.8c-7.8-1-9.1-3.1-8.4-11.2c1-11.8,0.4-23.3-7.7-33c-1.5-1.8-2.8-3.9-4.7-5c-4.4-2.6-6.7-5.9-7.4-11
		c-0.3-2.1-2.6-4.6-4.7-5.8c-10.5-6.4-20.8-12.9-31.8-18.3c-6.7-3.3-14.3-5.1-21.7-6.8c-11.7-2.7-23.5-4.7-35.2-6.9
		c-8.8-1.7-9.7-1.3-9.8,7.1c0,8.8-3.7,14.1-11.8,17.5c-13.2,5.4-26.1,11.6-39.3,17.1c-1.9,0.8-4.4,0.2-6.6-0.1
		c-4.8-0.8-9.7-2.9-14.4-2.6c-14.8,1-29.8,1.4-43.1,9.8c-3.4,2.2-8.1,3-12.2,3.2c-9,0.6-18,1.1-26.9,0.5c-6.2-0.4-12.2-2.5-18.3-4
		c-7.8-1.8-15.4-4.1-23.2-5.5c-2.3-0.4-5.4,0.5-7.5,1.8c-16.8,10-35.7,16.3-51.1,29c-3.3,2.7-8.4,4.4-12.8,4.7
		c-22.1,1.3-43.8-1.8-65-7.9c-4.4-1.3-7-3.4-9.1-7.9c-4.4-9.3-10.2-17.9-21.2-21.2c-2.4-0.7-4.5-2.8-6.5-4.4
		c-11.4-8.8-23.9-13.2-38.1-8.8c-7.9,2.5-15.4,5.9-22.9,9.5c-16.7,7.9-32.2,18.8-52.4,22.2c-1.2-6.2-2.2-12.3-3.6-18.3
		c-1.1-4.7-2.3-9.6-4.5-13.9c-1.7-3.3-1.6-6-1-9.4c0.9-5.8,1.5-11.9,1-17.7c-0.9-9.9-2.5-19.7-4.1-29.5c-0.4-2.5-1.3-5.5-3-7.2
		c-11.7-11.2-12.2-24.6-7.1-38.6c3.5-9.8,1.5-18-3.8-26.4c-2.6-4.1-4.3-8.8-5.9-13.5c-2.7-8.2-5-16.5-7.6-24.7
		c-0.6-1.9-1.6-3.7-2.2-5.6c-3.3-9.5-2.8-17.3,6-24.6c10.5-8.7,19.5-19.2,29.2-28.7c3.2-3.2,5.5-6.1,4.7-11.2
		c-0.5-3.3,0.4-7.5,2.1-10.4c7.7-13.3,4.2-25.5-2.2-37.9c-1.8-3.4-2.9-7.2-4.2-10.8c-0.7-1.8-0.9-4-2-5.5
		c-11.3-15.5-23.7-29.8-44.1-33.2c-0.6-0.1-1.2-0.6-1.7-0.9c1.9-15.3-1.5-29.7-7.2-43.7c-1.9-4.7-5.2-7.9-10.4-9.9
		c-4-1.6-7.3-5.4-10.3-8.8c-5.9-6.7-11.4-13.7-17-20.7c-1.4-1.8-2.4-3.9-3.3-6c-6.1-14.4-12.6-28.6-18.1-43.2
		c-2.1-5.7-2.6-12.2-2.8-18.4c-0.2-6.9,1.3-13.9,1.4-20.8c0.8-32.6,1.3-65.2,2.1-97.8c0.5-19.3,1.2-38.6,2.1-57.8
		c0.1-2.7,1.3-5.8,2.9-8c4.6-6.5,9.5-12.8,14.7-18.9c2.5-3,5.8-5.5,9.1-7.6c11.2-7.2,22.6-14.1,33.9-21.1c4.2-2.6,8-5.8,13.7-5
		c1.8,0.3,4.1-1.7,5.8-3.1c2-1.7,3.6-3.9,5.3-5.9c4.6-5.7,9.4-8.3,17.2-5.3c7.5,2.9,11-0.5,10.7-8.5c0-1.3,0-2.6,0-4.4
		c1.8-0.8,3.5-1.6,5.3-2.2c1.6-0.5,3.2-0.8,5.3-1.3c1-5.1,2.6-10,10.5-11.2c-2.6-2.8-4.2-4.5-5.7-6.2c-2.4-2.7-5.3-5-6.9-8.1
		c-2.9-5.9-4.5-12.5-7.5-18.3c-4.9-9.4-2.7-17.8,3.1-26.8c-3.9-2.9-7.5-5.6-10.9-8.1c-6.1,2.2-11.6,4.2-18.5,6.7
		c-2.3-9.6-4.7-18.2-6.3-26.9c-0.3-1.7,2.1-5.1,4-5.8c12.5-4.4,19-15,26.4-24.7c27.3-35.7,54.7-71.3,82-107c1.4-1.8,2.9-3.6,4.8-5.9
		c4.2,2.1,8.3,4.1,12.8,6.3c-1.9,3.4-3.6,6.3-5.6,9.9c5.5,12.5,14.8,23,22.9,35c19.3-13.1,34.7-30.1,53.6-45.7
		c7.1,42.5,14,83.6,20.9,125c-1.8,1.1-3.3,2.4-5,3.1c-5.9,2.4-9.4,6.9-12.3,12.4c-4.3,8.2-9.2,16.1-13.7,24.2
		c-1,1.7-2.3,3.6-2.2,5.4c0.4,7.9-3,14-7.8,19.8c-1.8,2.2-2.3,5.4-3.8,9c-9.1,1.4-18.9,2.8-28.6,4.5c-5.2,0.9-9.4-0.7-12-5
		c-5.6-9.2-15.2-8.1-23.7-9.7c-1.4-0.3-3.3,0.6-4.7,1.4c-12.8,7.2-25.5,14.4-38.2,21.7c-0.7,0.4-1.1,1.4-2.2,2.8
		c1.7,0.9,3,1.8,4.4,2.2c56.7,14.4,112,33.2,168.4,53.5c0-5,0-8.3,0-11.6c0-70,0-140,0-210c0-5.7-0.2-11.3-0.7-17
		c-0.8-8.4,1.6-15.3,7-22c9.6-11.9,18.1-24.7,27.5-36.8c3.4-4.3,3.9-8.1,1.3-12.7c-4.4-7.8-8.6-15.6-13.1-23.8
		c14-13.5,28.5-27.2,42.5-41.4c4.6-4.6,8.7-10.1,12-15.7c14.5-24.3,28.6-48.8,43-73.2c1.8-3.1,4.2-6,6.7-8.5
		c2.7-2.6,5.6-4.5,4.3-9.1c-0.4-1.3,1.4-3.6,2.7-4.9c7.7-8.2,15.6-16.4,23.5-24.6c6.8,2.5,9.3,7.1,11.6,12.4
		c2.5,5.7,5.4,11.5,9.4,16.2c5.2,6.3,10.7,5.6,17.4,0.1c3-2.5,6.8-4.1,10.4-5.8c6-2.9,12-5.7,18.2-8.1c5.4-2.1,8.2-5.8,10-11.3
		c4.5-13.5,8.5-27.4,14.8-40.2c14.9-30.6,32.3-59.7,60.4-81.3c11.7,11.9,23.8,23.7,35.3,36.1c3.2,3.5,4.9,8.5,6.9,13
		c2.5,5.7,4.7,11.5,7.1,17.7c2.7-0.8,4.4-0.9,5.6-1.7c5.9-3.8,12.1-5,19-2.9c8.2,2.6,16.2,2.1,24.4-1c3.3-1.2,7.2-0.7,10.8-1.1
		c6.6-0.6,13.2-1.1,19.7-1.9c7.7-1,15.2-2.6,17.7-10.3c12.6,1,24.1,1.9,35.6,3c2.2,0.2,4.9,0.7,6.4,2c6.7,6.4,13.3,13,19.6,19.8
		c5.6,6.1,11,12.5,16.2,18.9c2.6,3.2,5.1,4,8.5,1.7c0.7-6.2,1.4-12.4,1.9-18.6c0.8-8.6,1.5-17.2-3.3-25.3c-1.5-2.5-1.9-5.7-2.5-8.6
		c-1.7-8.3,0.7-12,7.8-16.1c6.7-3.9,14.1-5.2,21.3-6c5-0.6,10.3,1.5,15.5,2.3L4038.5,2178.4z"/>
	<path onclick="modals(this.id);" id="75" class="st0" d="M5283,907.1c-5,4.8-8.8,8.3-12.6,11.8c-1.2,1.1-2.6,2.1-3.8,3.2c-15.8,13.6-15.4,13.7-20.7,34.4
		c-2.6,10.2-6.8,20.2-11.2,29.8c-4.6,10-9.4,19.8-10.7,30.9c-0.2,1.3-0.2,2.7-0.7,3.9c-5.1,11.5-8.8,23.3-11.4,35.6
		c-1.7,7.8-6.6,15.1-10.9,22.2c-4.9,8.1-9.2,8.8-18.5,6.6c-7.7-1.8-15.7-2.6-23.6-3.2c-14.8-1-29.7-1.9-44.5-1.9
		c-7.9,0-12.9-4.8-18.5-8.6c-9.2-6.2-9-6.6-18.1-1c-7,4.3-14.6,6.5-22.8,5.3c-11.6-1.7-20.5,3.1-28.7,10.7
		c-16.5,15.5-35.4,24-58.9,19.8c-9.1-1.6-18.7-0.7-26.1-7.9c-0.9-0.9-3-0.5-5.5-0.8c2.2,9-1.9,14.9-7.4,20.7
		c-4.7,4.9-6.9,10.6-5.3,18.2c1.9,9.2,0.1,18.5-4.5,27.1c-1.1,2.1-2.4,4.1-3,6.3c-3.3,12.3-14.4,16.8-23.5,23.1
		c-3.4,2.4-7.7,3.6-12.3,5.7c-3.9-10.9-13.2-16.3-24-18.7c-9.3-2.1-19-2.6-29-3.9c-0.4,1.7-1.3,3.5-0.9,4.8
		c2.2,7.6-1.7,12.2-7.9,15.1c-4.7,2.2-9.8,4.1-14.9,5.2c-4.8,1.1-9.6-0.1-11.9-5.1c-2.1-4.5-5.8-4.7-9.9-4.9
		c-4.9-0.3-9.9-0.9-14.8-1.9c-5.7-1.2-10.2-4.2-13.2-9.6c-4.5-7.9-10.2-14.5-19.5-17.5c-7.6-2.4-13.8-6.7-14.6-15.8
		c-0.1-1.3-1.7-2.5-4.5-3.5c-0.2,3.4-0.4,6.9-0.4,10.3c0,64,0,128-0.1,192c0,4.9-1.2,9.8-1.8,14.6c-1,7.7,1.9,14.7,6.2,20.5
		c12.3,16.5,25.2,32.7,41.6,45.5c5,3.9,9.9,7.9,15,11.6c5.7,4.1,10.9,8.4,13.3,15.6c0.8,2.5,3.5,5,5.9,6.4
		c6.6,3.8,13.5,7.1,20.2,10.6c2.7,1.4,5.5,2.4,8,3.9c29.1,17,60,29.9,91.6,41.5c3.4,1.3,6.7,2.9,10.1,4.3c8.3,3.4,15.2,7.9,17,17.8
		c0.4,2.4,2.6,4.6,4.7,8c-150,34.1-301.2,59.8-452.2,93c0-11.1,0-21.1,0-31.6c-8.3-1.5-15.4-2.9-24-4.4c-0.5-10.8-1.1-22,0.4-33.1
		c1.2-8.8-2.5-15.6-7.9-21.4c-3.8-4-9.1-6.7-13.7-9.9c-4.8-3.4-10.4-5.3-16.1-4c-13.1,3-21.6-4.2-29.3-12.7
		c-4.4-4.9-8.4-10.4-11.5-16.1c-2.8-5.1-6.3-8.3-11.8-9.7c-6.1-1.6-10.6-4.8-13.4-10.8c-3.6-7.6-10.8-9.9-18.5-8.9
		c-9.2,1.1-17.2-1.8-24.4-6.3c-9.1-5.8-18.6-9.8-28.9-13c-8-2.6-15.6-3.4-23.9-3.5c-8.7-0.1-17.5-3.2-26.1-5.3
		c-10.5-2.6-20.5-3.1-31.3,0.6c-8,2.7-17.1,1.9-25.6,3.2c-5.9,0.9-11.6,2.5-17.3,4.2c-4,1.2-6.8,3.9-7.8,8.3
		c-1.8,7.4-8.2,11-13.4,15.5c-0.9,0.8-2.6,1.5-3.6,1.3c-8.6-2.1-16.6,1.3-24.3,3.8c-10.7,3.6-20.3,2.3-29.1-4
		c-5.7-4.1-11.1-5.7-17.5-1.1c-12.2-10.2-27.2-7.4-41.1-9.5c-0.3,0-0.7-0.1-1,0c-10.2,6-23.3,3.3-33.4,12c-1.1-2.8-1.9-5.1-2.5-6.8
		c-8.5-0.4-16.7-1.2-24.8-1.1c-7.7,0.1-14.5-2.5-20.9-5.9c-8.6-4.6-17.6-5.8-27.1-4.6c-11.5,1.4-23.1,2.8-34.6,4.5
		c-3.2,0.5-6.3,2.1-10.5,3.5c-1.9-1.8-4-4.5-6.7-6.2c-4.9-3.3-9.9-7.4-15.4-8.7c-6.8-1.6-12.2-4.7-17.4-9
		c-6.5-5.4-13.7-8.9-22.1-10.8c-5.9-1.3-11-6.2-16.8-7.2c-5.7-0.9-11.9,0.8-17.1-3.2c-1-0.7-2.8-1.4-3.7-1c-9.6,4-20.3,0.9-30.1,5.6
		c-6.8,3.3-14,5.3-20.2,10.1c-4.4,3.4-9.7,4.2-15.9,3.5c-6.1-0.7-13.2,1.4-18.8,4.2c-6.7,3.4-12.2,9.1-17.9,13.4
		c-18.8-1-34.5-9.8-50.5-17.8c-4.3-2.1-6.4-5.5-8.2-9.5c-1.9-4.2-3.9-8.3-5.8-12.1c-13.8,0.6-25.7-4.9-33.5-14.2
		c-11.4-0.5-21.8-0.9-32.3-1.5c-1.9-0.1-4-0.6-5.5-1.7c-14-9.7-23-11.6-42.5-8.6c-0.2,5.3,0.6,10.7-3.8,15.4
		c-4.9,5.2-10.7,7.7-17.1,9.4c-7.1,1.9-14.1,3.8-21.3,5.2c-8.4,1.6-13.9,6.3-15.8,14.4c-1.6,6.6-5.1,10.5-11.8,11.6
		c-0.3,0.1-0.7,0.1-1,0.3c-13.1,8.6-29,13.2-37.3,28.4c-2.3,4.2-6.5,7.3-10.4,11.4c-5.4-4-10.3-1.7-14.9,0.8
		c-4.5,2.3-9,2.6-14.2,2.8c-15.8,0.8-30.9,4.2-39.5,20.3c-4.5,8.4-10.6,16-16.6,24.8c-6-6-11.8-11.7-17.4-17.6
		c-20.3-21.5-40.6-43.1-60.8-64.8c-23-24.5-45.8-49.2-68.8-73.7c-13.2-14.1-26.7-27.9-39.9-42c-23.7-25.2-47.2-50.6-70.9-75.8
		c-15.7-16.8-31.5-33.4-47.2-50.2c-14.8-15.8-29.9-31.3-44.2-47.5c-7.7-8.8-8.8-20.2-6.6-31.1c2-10.2,0.8-19.6-2.3-29.4
		c-3.9-12.4-7.2-25-15-35.7c-1.4-1.9-2.4-4.2-4.2-5.5c-8.4-5.7-16.6-11.9-25.7-16.2c-8.9-4.3-13.6-10-13.5-19.8
		c0.1-7.2-1.7-13.7-6.4-19.3c-2.4-2.8-3.1-5.9-2.7-10c2-21.7-12.5-43.6-33.8-46c-14.6-1.6-21.6-11.3-31.4-18.4
		c-3.2-2.3-4.3-5.6-4.2-9.6c0.7-21.6,1.4-43.2,2-64.7c0.1-5.3,0-10.5,0-17.2c8.9,0,16.8-0.1,24.6,0c5.3,0.1,10.6,0.4,16,0.6
		c27.9,0.8,55.9,1.5,83.8,2.2c18.6,0.5,37.1,0.7,55.7,1.2c35.2,0.8,70.4,1.7,105.6,2.6c1,0,2,0,3,0c32.9,0.9,65.8,2.1,98.7,2.8
		c35.5,0.7,71,0.7,106.5,1.3c24.9,0.4,49.9,1.4,74.8,2c31.9,0.7,63.8,1.1,95.8,2c22.9,0.6,45.8,1.9,68.7,2.7
		c13.9,0.5,27.8,0.5,41.7,0.6c23.6,0.2,47.1,0.2,70.7,0.8c22.6,0.6,45.1,2.2,67.7,2.6c35.5,0.7,71.1,0.7,106.6,1.4
		c21.9,0.4,43.8,1.7,65.8,2.4c11.5,0.4,23.1,0.7,34.6,0.8c22.3,0.3,44.6,0.2,67,0.8c24.2,0.6,48.4,1.7,72.5,2.6
		c1.8,15.4,10.8,25.5,22.7,33.5c2.1,1.4,4.9,2.9,7.3,2.9c6.8,0,12.8,2.2,19.2,4c5.2,1.4,9.6,2.4,10.2,9.5c11.2-1.4,21.3-2.6,31.4-4
		c4.3-0.6,6-3,4.8-7.8c-2.9-11.9-5.3-24-8-36.7c3.9-0.2,7.2-0.6,10.4-0.5c35.2,1,70.5,2.1,105.7,3.1c11.9,0.3,23.8,0.7,35.7,0.9
		c21.3,0.3,42.5,0.3,63.8,0.7c27.9,0.5,55.9,1.1,83.8,2c20.6,0.6,41.2,2,61.7,2.6c26.8,0.9,53.7,1.5,80.6,2.1
		c26.9,0.6,53.8,0.9,80.6,1.6c25.9,0.7,51.7,1.9,77.6,2.5c29.6,0.6,59.1,0.6,88.7,1.1c25.3,0.5,50.5,1.2,75.8,2
		c19.3,0.6,38.5,1.5,57.8,2c29.5,0.8,59,1.2,88.5,2c21.3,0.5,42.5,1.4,63.8,2c17.5,0.5,35,1,52.5,1.5c19.2,0.6,38.4,1.3,57.6,1.7
		c14.3,0.4,28.6,0.5,42.9,0.7C5278.2,906.4,5279.7,906.7,5283,907.1z"/>
	<path onclick="modals(this.id);" id="80" class="st0" d="M3643,2304.9c-7.8-1.3-11.7-8.1-13.9-15.5c-2.5-8.2-7.3-14-14.3-19.2c-1.8,1.3-3.9,2.4-5.4,3.9
		c-7.7,7.9-15.2,15.8-22.8,23.8c-0.5,0.5-1.2,0.9-1.3,1.5c-2.6,12.5-13.6,19.8-18.8,30.8c-5.1,10.8-11.9,20.8-17.9,31.2
		c-6.2,10.6-12.8,21.1-18.4,32c-4.5,8.9-11.4,15.5-18.4,22.2c-20.2,19.4-40.5,38.6-60.7,57.9c-9.2,8.7-18.3,17.4-28.1,26.6
		c-1.3-1.7-3-2.9-3.4-4.5c-3.3-10.9-11.9-12.9-21.6-13.9c-4.9-0.5-9.8-1.4-14.4-3.1c-4.6-1.7-6.3-5.8-7.6-10.8
		c-5.6-21.2-12-42.1-18.1-63.2c-0.2-0.6-0.8-1-2.2-2.6c-2.5,3.1-5.8,5.6-7.1,8.9c-4.2,10.9-10.7,19.8-19.9,27
		c-1.5,1.2-3.5,3-3.6,4.6c-0.4,7.5-6.5,10.5-11.1,14.5c-6.1,5.2-11.5,10.4-13.7,18.8c-1.6,6.3-5.8,11.9-9.1,17.7
		c-0.9,1.6-2.6,3.6-4.2,3.9c-6.7,1.3-9.7,6.5-13.2,11.4c-1.3,1.9-2.7,4.3-4.5,5c-4.6,1.6-6.7,4.6-8.5,8.9c-1.2,2.8-4.4,4.8-7.1,6.8
		c-10.5,7.6-21,15.3-31.8,22.5c-4.5,2.9-6.1,6.5-6.4,11.5c-0.4,6.9-1,13.8-1.6,21.5c-21.6-3.5-42.4-6.8-64.5-10.4
		c-1.3,6.4-2.6,12.3-3.9,18.8c-8.6,3.3-17.2,6.7-25.1,9.8c-4.4-3.6-8.1-6.8-12-9.7c-3.3-2.5-3-5.7-2.5-9c2.7-17.4,5.7-34.7,8.2-52.1
		c2.3-16.1,3.7-32.3,6-48.4c1.7-12.6,4.2-25,13.4-34.8c3-3.2,2.8-6.8,0.3-10c-2.4-3.1-5.4-5.8-8.2-8.7c-6.5-6.7-10.9-14.6-9.7-24.1
		c0.9-7.1-2.2-11.5-7.1-15.3c-2.4-1.8-4.9-3.5-7.5-5c-6.6-3.8-11.7-8.6-13.3-16.5c-0.5-2.5-2.1-4.9-3.5-7.1
		c-6.1-9.5-11.7-18.9-14-30.4c-1.1-5.7-6.3-10.6-9.8-15.7c-2.6-3.8-5.5-7.4-8.2-11.2c-3.3-4.5-6.3-9.2-9.7-13.6
		c-4.5-5.9-10.9-5.9-17.2-4.2c-14.5,3.8-28.9,7.8-43.2,12.1c-3.7,1.1-7.2,3.4-10.4,5.7c-28.6,21.3-57.4,42.3-85.3,64.3
		c-8.1,6.4-16.2,6.8-25.1,6.4c-9.6-0.4-19.2-1.3-28.8-1.9c-8.6-0.5-17.2-0.9-25.9-1.4c-1.6-0.1-3.9-0.1-4.6-1.1
		c-5.9-8.7-13.9-7.4-23-4.6c-8.5-10.9-17.7-21.5-25.2-33.1c-2.7-4.1-1.9-10.9-1.7-16.5c0.3-13.6,1.3-27.2,1.8-40.8
		c0.7-18.9,1.9-37.9,1.8-56.8c-0.1-26,3.6-51.7,5.9-77.5c1.8-20.5,3.9-41,5.9-61.5c0.1-1,0.3-2,0.4-3c0.7-18.9,1.5-37.7,2.1-56.6
		c0.7-21.6,1.4-43.2,2.1-64.8c0.5-17.3,1-34.5,1.3-51.8c0.3-20,0.4-40,0.7-60c0.6-29.3,1.3-58.5,2-87.8c0.7-29.6,1.3-59.2,2-88.8
		c0.7-28.9,1.3-57.8,2-86.8c0.6-21.9,1.5-43.9,2.1-65.8c0.5-20.9,0.9-41.8,1.2-62.7c0.3-22.3,0.3-44.5,0.7-66.8
		c0.6-36.2,1.2-72.5,2.2-108.7c0.6-21.5,2.1-43.1,3.1-64.6c0.4-9,0.5-18,0.7-26.9c0.7-23.6,1.2-47.2,2.1-70.7
		c0.9-23.2,2.4-46.4,3.2-69.6c1.1-29.9,1.8-59.8,2.8-89.7c0.1-4.2,1.1-8.3,1.9-13.8c6.1,5.1,11.4,9.5,16.6,14c3.4,3,7,4.6,11.6,4.8
		c18.3,1,33.6,15.7,35.8,33.9c0.5,4.6,0.8,9.2,1.4,13.8c0.2,1.9,0.5,4.2,1.6,5.6c5.4,6.9,7.4,14.5,7.4,23.2
		c0,9.5,6.6,14.5,14.2,18.8c8.8,5,18.9,9.2,25.4,16.4c6.9,7.6,10.6,18.2,15.2,27.7c2,4.1,2.5,9,4.1,13.3c3.2,8.4,3.3,16.9,1.7,25.6
		c-2.6,14.2-0.2,26.8,10.2,37.6c15.6,16.4,30.7,33.2,46.1,49.8c23.1,24.8,46.3,49.7,69.5,74.4c18.5,19.6,37.1,39.1,55.6,58.8
		c23.7,25.2,47.3,50.5,71,75.8c10.9,11.7,21.9,23.3,32.8,34.9c21.4,22.8,42.9,45.5,64.3,68.4c3,3.2,5.3,6.8,8.8,11.3
		c3.3-4.3,5.2-6.4,6.7-8.8c5.5-8.3,11.1-16.5,16.2-25.1c4.5-7.7,12.1-10.5,19.6-12.8c5.8-1.8,12.3-1.2,18.5-1.8
		c2.6-0.2,5.3-0.5,7.6-1.4c3.7-1.4,7.2-3.4,10.5-5c5.2,1.3,6.8,4.4,7.7,9.4c4.6,23.3-0.7,44.8-9.8,65.9c-4,9.4-6,18.7-2.4,29
		c1.6,4.7,1.2,10.5,0.4,15.6c-1.3,8.1-1.8,15.8,2.1,23.3c1.8,3.5,2.8,7.2,0.5,11.3c-1.2,2.1-1.1,5.1-0.8,7.6
		c1.1,9.5,2.6,18.8,1.4,28.4c-0.3,2.5,0.7,5.2,1.5,7.7c6.2,17.9,12.4,35.7,18.8,53.6c0.6,1.8,2.2,3.3,3.2,4.9c1,1.7,2.9,3.6,2.6,5
		c-1.9,9.2,3.1,17.4,3.8,26.1c0.2,1.9,0.9,3.8,1.4,5.8c2.1,8.1,6.8,12.5,15.4,14.7c19.3,5,38.3,11.2,57.4,16.9
		c3.1,0.9,6.2,2.1,9.7,3.3c-1.9,7.1-3.7,13.7-5.4,20.4c-1.3,5.3-0.5,9.5,4.6,12.9c4.6,3.1,9,7,12.6,11.3
		c7.9,9.5,18.4,14.1,29.9,16.6c22.7,4.9,41.6,17.1,59.7,30.8c3.9,3,8.2,5.8,12.8,7.5c17.4,6.6,34.9,13,52.6,18.7
		c6.1,1.9,13.1,2.2,19.6,1.7c19.9-1.4,39.6-4.2,59.5-5.3c16.9-0.9,33.8-0.2,52.1-0.2c-0.8,8.7-1.3,16.2-2.2,23.6
		c-3.8,30.6-7.8,61.2-11.7,91.9c-2.2,17.5-4.1,35-6.2,52.4c-0.2,1.3-0.5,2.6-1,3.9c-4.6,10.6-1.8,18.9,6.7,26.4
		c2.3,2,2.4,6.5,3.2,8.8c-10.2,9.9-19.6,19-29,28.2c-9.8,9.6-18.3,20.1-24.5,32.5c-6.1,12.1-13.7,23.6-19.4,35.9
		c-5.1,11.1-8.9,22.9-12.5,34.6c-1.8,5.6-4.7,9.1-10,11.3c-7.7,3.2-15.2,6.8-22.6,10.5C3650.9,2299.6,3647.8,2301.9,3643,2304.9z"/>
	<path onclick="modals(this.id);" id="79" class="st0" d="M4038.7,2178.7c-2.9-2.1-5.8-6-8.6-5.9c-9.3,0.4-19.2-1.2-27.3,5.5c-1,0.8-2.4,0.9-3.6,1.5
		c-6.5,2.8-9.7,7.9-9.4,14.8c0.2,3.6,0.7,7.5,2.2,10.7c6.6,13.5,4.7,27.1,1.4,42.3c-4.6-4.8-9.1-8.5-12.4-13.2
		c-6.5-9.3-14.1-17.6-22.6-25c-3.8-3.3-7.5-4.7-12.5-5.1c-9.6-0.6-19.2-1.5-28.6-3c-3.7-0.6-7.3-0.4-8.9,2.4
		c-5.7,10-15.8,8.9-24.6,9.8c-9.9,1-19.7,0.4-29.5,3.5c-4.9,1.6-11.1-0.4-16.6-1.4c-7.2-1.3-13.8,0.1-21,4.3
		c-1.9-4.5-4-8.2-4.9-12.2c-2.1-9.2-7.1-16.4-13.5-22.8c-7.6-7.5-15.4-14.7-23-22.1c-2.3-2.3-4.1-5-6.4-7.8c2.9-2.3,5.2-4.2,7.4-6
		c0.7-8.3-1.7-15.1-8.2-20.2c-4.1-3.3-4.5-6.8-3.2-12.2c2.5-10.3,3.3-20.9,4.7-31.5c6-47.4,11.9-94.8,17.8-142.3
		c0.3-2.3,0-4.6,0-7.4c-2.7-0.4-4.9-0.9-7.1-0.9c-16.7-0.1-33.4-0.6-50,0.1c-17.2,0.8-34.4,2.6-51.6,4.5
		c-10.4,1.2-20.3,1.7-30.4-2.3c-16.1-6.3-32.5-11.8-48.7-17.7c-2.8-1-5.4-2.6-7.8-4.2c-10.7-7.3-21-15.2-32.2-21.8
		c-6.7-4-14.4-7.3-22.1-8.6c-20.5-3.5-35.4-15.6-49.5-29.5c-3.8-3.7-5.3-7.5-3.8-12.4c2-6.6,4-13.2,6.4-20.8c-2.5-1-5.4-2.4-8.4-3.3
		c-20.7-6.2-41.4-12.4-62.1-18.5c-9.4-2.8-13.1-7.3-14.5-17.4c-0.5-3.8-1.9-7.6-2.9-11.3c-0.3-1-1.1-2-0.9-2.8
		c2.2-9.9-3-17.4-6.8-25.9c-7.4-16.6-12.5-34.3-18.6-51.6c-0.4-1.2-1.1-2.7-0.8-3.9c2.7-9.4-1.4-18.5-1.2-27.7
		c0.1-4.8,1.1-9.5,2.9-14.2c-0.9-2.5-1.6-5.1-2.8-7.5c-3.4-6.8-4.7-13.8-2.2-21.1c2.4-7,1.5-14.1-0.8-20.6
		c-2.6-7.3-1.8-13.9,1.1-20.3c6-12.7,10.3-26,12-39.9c1-8.1,0.5-16.5,0.3-24.7c-0.1-4.3-1.4-8.6-1.4-12.8c0-2,1.3-4.2,2.6-5.9
		c3-3.9,6.4-7.5,9.6-11.2c2.1-2.5,3.6-6.2,6.3-7.6c10.6-5.3,19.2-14.3,30.9-17.5c5.3-1.4,8.8-4,9.9-9.7c1.9-10.2,8.5-14.6,18.6-16.4
		c10-1.8,20.5-3.2,29.4-9c7.1-4.7,12.3-10.7,12.5-20.4c12.6-2,24,0.4,34.4,8.1c1.2,0.9,2.9,1.6,4.4,1.8c11.2,1,22.5,1.8,34.3,2.7
		c8.1,9.5,19.4,13.5,33,14.6c0.1,0.1,1.1,0.8,1.3,1.6c4,12.8,13.8,19.1,25.2,24.9c13,6.6,26.5,10.2,41.6,13.3
		c4.7-3.8,10-8.4,15.5-12.5c7.2-5.4,14.7-7.6,24.2-5.8c4.7,0.9,11.1-1.9,15.5-4.8c11-7.3,22.3-12.7,35.9-12.1c2.9,0.1,6-2.3,8.7-1.8
		c8.6,1.7,17,4.3,25.9,4.1c4.5,6.5,12.2,5.5,18.5,7.7c4.6,1.6,9.1,4.1,13,7.1c6.6,5.1,12.9,10.1,21.7,11.4c4.2,0.7,8.2,4.2,11.8,7
		c3.1,2.4,5.6,5.6,7.7,7.7c13.9-2.3,26.9-4.4,39.9-6.5c12.7-2,25-2.5,36.7,4.6c6.5,3.9,14.1,5.4,22.1,5c5.9-0.3,11.9,0.6,17.8,1
		c5,7.9,5,7.9,12.4,3.6c1.2-0.7,2.3-1.5,3.5-1.8c13.4-3,26.4-9.2,40.5-6.7c8.7,1.5,17,4.9,25.2,9c3.1-1,6.3-2,9.3-3
		c0.7,0.2,1.4,0.2,1.9,0.6c13,10,27,11.7,42.3,5.9c4.3-1.6,9.1-2.8,13.6-2.6c12.8,0.6,19.8-7.3,24.4-17.1c2.7-5.7,5.7-8.4,11.4-9.3
		c11.7-1.9,23.8-2.5,35-6c18-5.7,34.5-0.1,51.4,3.8c2.9,0.7,5.9,1.8,8.7,1.7c18.3-1,34.1,5.6,49.1,15.3c7.7,4.9,16.4,7.5,25.4,7.2
		c8-0.3,14.2,1.1,18,9.1c2.3,4.8,6.4,8.4,12.1,9.6c6,1.2,9.1,5.2,12.4,10.3c5.2,8,12.1,14.9,18.6,22c5.5,6,12.7,8.7,20.8,7.3
		c9.4-1.7,17,1.6,23.8,7.6c4.1,3.6,9.9,5.4,11.9,11.6c1.4,4.4,2.9,8.3,2.5,13.3c-0.8,11.3-0.2,22.6-0.2,35c7.9,1.6,15.5,3.2,24,4.9
		c0,10.3,0,20.5,0,32.1c7.2-1.2,13.3-1.9,19.4-3.2c44.2-9.4,88.4-18.9,132.6-28.4c12-2.6,16.6,1.7,15.7,13.8
		c-0.2,2.5,0.4,5.2,1.1,7.7c0.8,2.9,2.2,5.6,3.1,8.4c3,9.7,0.3,15.9-9.5,18.2c-6.5,1.5-9.5,5.2-11.9,10.5c-3.7,8.2-8,16.1-11.5,24.4
		c-1.9,4.4-4.9,6.6-9.2,8.3c-15.1,6.1-30,12.8-45.2,18.7c-4.8,1.9-6.8,4.5-7.1,9.4c-0.6,10.6-2.9,21.3-1.8,31.7
		c1.3,11.8-3.4,18.7-12.4,24.8c-10.5,7.2-16,18.5-21.4,29.5c-5.3,10.8-0.1,19.8,6.9,28.1c3.2,3.8,6.4,7.6,9,11.8
		c1.4,2.3,1.5,5.4,2.4,9.2c-3.3-0.5-5.1-0.7-7-1c-9.8-1.4-19.5-4.2-29.5-0.4c-2.2,0.8-5.2-0.1-7.7-0.6c-3.2-0.7-6.3-2.1-9.6-2.8
		c-7.9-1.6-15.1,2-19.1,9.2c-0.5,0.9-1,1.7-1.4,2.7c-6.4,18.2-21.1,27.3-37.8,34.2c-3.7,1.5-7.3,3.2-10.9,5
		c-8.1,4.2-8.2,4.8-6.9,14.2c0.5,3.6,1.5,7.6,0.5,10.8c-2.3,7.2,0.7,12.2,5.1,17.1c3.9,4.3,6.5,8.8,6,15.1c-0.5,7-1.9,13-8.7,16.6
		c-5,2.6-6.3,6.9-6.3,12.5c0,6.6,0.5,13.9-2,19.7c-8,18.9-1.3,37.2,0.9,55.6c0.6,5.3,5.2,10.6,8.9,15.1c6,7.4,6.4,12.2,0.8,20.1
		c-6.2,8.6-12.1,17.3-18.1,26c-0.9,1.3-1.3,3.1-1.6,4.7c-1.9,9.8-6.3,18.1-13.8,24.4c-0.2,26.2,13.9,46.5,25.2,68
		c-11,0-22.1-0.3-33.2,0.2c-4.4,0.2-8.8,2.1-13.2,3.5c-1.2,0.4-2.7,1.5-2.9,2.5c-2.6,11.6-12.8,17.3-19.5,25.7
		c-1.7,2.1-4.3,3.7-5.1,6.1c-2.5,7.6-9,9.5-15.4,10.4c-8.5,1.1-14.7,5-20.3,11.2c-8.1,9-17.7,16.2-29.1,20.5
		c-3.6,1.4-7.8,2.1-11.6,1.9c-8.6-0.6-17.1-2.4-25.7-2.9c-5.6-0.3-11.5-0.3-16.7,1.4c-7.5,2.3-14.4,1-21.6-0.3
		c-3.9-0.7-6.3-3-5.7-6.8c2.7-17.1-5.3-31.5-11-46.7c-3.9-10.4-8-20.2-15.6-28.5c-5.4-5.9-11.2-8.8-19.4-7.4
		c-7.2,1.2-14.5,1.7-21.8,2c-10.6,0.5-19.8-3.6-27.1-10.8c-7.8-7.7-17.1-12.4-26.9-16.7c-9-4-18.7-6.3-24.8-15.6
		c-1.7-2.6-8.4-1.9-12.8-2.7C4038.5,2178.4,4038.7,2178.7,4038.7,2178.7z M3869.7,1518.7c-11.5-0.5-21.9-0.7-32.6,0.1
		c0,12.8,0,24.5,0,36.6c11.9,0,22.9,0,34.6,0C3871.1,1542.9,3870.4,1531.4,3869.7,1518.7z"/>
	<path onclick="modals(this.id);" id="641" class="st0" d="M3419.6,2506.3c-1.2,0.5-2.7,0.6-3.4,1.5c-3.4,4-6,8.7-9.8,12.2
		c-13.4,12.4-27.2,24.4-41.6,37.2c-6.3-9.1-12-17.2-17.6-25.4c-2.3-3.4-2.2-6.8,0.6-10c1.3-1.5,2.2-3.2,4-5.8
		c-6.4-3.5-12.3-6.8-20-11c-1.4,2.2-2.4,4.2-3.8,6c-29.3,38.3-58.8,76.5-88,114.9c-5.9,7.7-11.9,14.7-21.3,18.6
		c-7.5,3.1-7.7,4.8-6,12.4c1.1,4.9,1.9,9.9,3.6,14.5c2.2,6,1.4,10.8-3.3,15.2c-2.7,2.5-4.7,5.6-7.1,8.3c-5.2,5.8-9.9,11.8-8,20.5
		c-3.2,1.4-6.1,2.7-9,3.9c6.8,2.8,13.2,6.1,20.8,2.6c0.4,3.1,0.6,5.7,1,8.6c-2.2,1.2-4.2,2.2-6.2,3.3c-4.1,2.3-6.5,5.5-6,10.5
		c1.2,11.2,2.4,22.3,3.8,35.1c-2.8,1.7-6.9,4.3-11.1,6.8c-4.8,3-9.4,6.4-14.4,9c-16.6,8.6-30.6,20-40.5,35.9
		c-3.6,5.9-8.5,7.2-15.1,7c-28.9-1.1-57.8-1.9-86.8-2.6c-5.5-0.1-10.6-0.1-13.6-5.8c-3-5.8-9.1-2.4-13.5-4.3
		c-1.6-3.5-3-7.1-4.9-10.4c-5.9-10-4.4-17.6,5-24.6c0.5-0.4,1.2-0.7,1.8-0.9c5.1-2.1,5.4-6.1,4.5-10.8c-3.5-17.6-7-35.2-10.4-52.8
		c-2.3-12-4.5-24-6.7-36.3c5.4-2.6,10.3-4.7,14.9-7.1c2.7-1.4,5.7-3.3,4.6-6.8c-0.7-2.1-3.1-3.9-5.1-5.2c-1.9-1.3-4.4-1.6-6.3-2.9
		c-3.3-2.2-7.3-4.2-9.2-7.4c-16.1-26.8-36-51-54.3-76.2c-38.3-52.8-77.6-104.9-116.5-157.3c-12.5-16.8-25.1-33.6-37.6-50.4
		c-1.4-1.8-2.6-3.8-3.9-5.7c9-4.6,11.9-3.8,15.1,4.7c18.7,0.9,37.6,1.8,56.5,2.7c2.3,0.1,4.8-0.5,7,0.1c12.3,3.8,21.3-1.5,30.7-8.9
		c26.5-20.7,53.5-40.7,80.6-60.6c4.7-3.4,10.3-5.9,15.9-7.6c11.7-3.7,23.6-6.8,35.5-9.9c11.4-3,15.7-1.5,21.3,8.8
		c4.5,8.2,9.5,15.8,15.8,22.7c3.4,3.7,5.3,9.1,6.7,14.1c2.1,7.4,4.5,14.4,9.3,20.7c3.6,4.7,6.5,10.3,8.2,15.9c1.8,5.9,5.1,9.9,10,13
		c2,1.2,3.8,2.8,5.8,3.8c7.9,4,11.9,9.8,11,19.2c-0.8,8.4,3.3,15.4,9,21.4c3.4,3.6,6.9,7,10.2,10.3c-0.3,1.8-0.2,3-0.8,3.7
		c-12.4,15.3-14.2,33.9-16.6,52.4c-2.9,22.7-5.8,45.4-8.9,68.1c-0.8,6.2-2.6,12.4-3.2,18.6c-0.5,5.1-1,10.5,5.7,13.3
		c3.8,1.6,6.8,5.2,10.2,7.9c-0.3,0.9-0.6,1.8-0.8,2.7c10.8-4,21.5-8,32-11.9c1-6.2,1.9-11.6,2.9-17.4c21.9,3.5,43.1,6.8,65.1,10.3
		c0.9-9.2,2-17,2.2-24.9c0.1-4.6,1.9-7.3,5.5-9.8c10.2-6.9,20.2-14,30.2-21.2c4.2-3.1,8.9-5.7,10.6-11.4c0.5-1.6,2.8-2.6,4.2-3.8
		c2.2-2,4.8-3.7,6.4-6c3.4-5.1,7-9.6,13.1-11.7c1.9-0.6,3.7-2.8,4.7-4.7c3.8-7,7.7-14,10.6-21.4c1.9-4.9,4.8-8.5,8.6-11.8
		c6.2-5.3,14-9.3,15.8-18.5c0.3-1.7,2.4-3.2,3.9-4.4c9-7.3,15.3-16.5,19.1-27.4c0.4-1.1,1.6-2,3.1-3.9c3.8,12.6,7.5,24.2,10.8,36
		c2.4,8.6,4.4,17.3,6.2,26.1c1.6,8,7.3,11.7,14.1,13.9c4,1.3,8.5,1.4,12.8,1.7c7.8,0.5,14.1,2.9,16.7,11.2c1,3.1,2.8,5.9,4.3,8.9
		L3419.6,2506.3z M3419.6,2506.3c0.2,2,0.2,4,0.5,6c5.7,34.4,11.5,68.8,17.1,103.2c1.6,9.7,3,19.5,4.5,29c-14.2,7-14.1,7-21.5,21.5
		c-3.2,6.2-7,12-10.4,18c-0.8,1.4-1.9,3.1-1.8,4.5c1,8.1-3,13.9-7.8,19.6c-1.2,1.4-1.8,3.6-2.2,5.5c-0.8,4.3-3.1,6.1-7.5,6.3
		c-5.6,0.3-11.4,0.7-16.8,2.1c-11.5,3.1-21.2,2.6-29-8.2c-4.3-6-13-6.1-18.1-4c-12.1,4.9-23.2,12.4-35.2,19.1
		c54,17.1,107,33.8,160.8,50.9c0-4.6,0-8.5,0-12.5c0-73.6,0.2-147.3-0.2-220.9c0-9.3,2.5-16.5,8.1-23.6
		c10.2-13.1,19.9-26.6,29.6-39.7c-3.7-10-7.6-19-15.8-26.3c-11.5,11.1-22.6,22.1-34,32.7c-6.3,5.8-13.1,10.9-19.7,16.3
		C3420.2,2505.8,3419.6,2506.3,3419.6,2506.3z"/>
	<path onclick="modals(this.id);" id="72" class="st0" d="M4067.1,876.6c9.9,0,19.6,0,29.7,0c2,10.9,3.9,21.4,5.8,31.7c-10,3.7-17.9,0.6-22.9-5.6
		C4074,895.4,4063.8,889.6,4067.1,876.6z"/>
	<path onclick="modals(this.id);" id="751" class="st0" d="M4149.5,915.8c-7.8,1-15,1.9-23.3,3c-1.6-11-3.1-21.3-4.7-32.7c6.8-1.7,13-3.3,20.4-5.2
		C4144.5,893,4146.9,904.1,4149.5,915.8z"/>
	<path onclick="modals(this.id);" id="68" class="st0" d="M3219.8,2733.5c1.4,11.2-3,21.4,3.8,31.1c-4.6,5.1-9.2,10.2-14.7,16.3
		c-5.4-13.4-7.4-25.8-6.2-38.6c0.2-2,2.8-4.5,4.9-5.5C3211,2735.3,3215,2734.7,3219.8,2733.5z"/>
	<path onclick="modals(this.id);" id="76" class="st0" d="M4102.7,890.3c5.6-1.4,10.1-2.5,15.1-3.7c1.2,9.2,2.4,18,3.6,27.7c-2.3,0-4.5,0.1-6.6,0
		c-7-0.6-8.4-2-9.1-9.1c-0.3-3.6-0.3-7.2-0.8-10.8C4104.8,893.2,4103.8,892.2,4102.7,890.3z"/>
	<path onclick="modals(this.id);" id="70" class="st0" d="M3244.6,2753.8c-1.4,10.8-1.4,10.8-6.3,12c1.1-10.4,2.2-20.4,3.4-30.8c4.4-0.8,8.1-1.4,12.1-2.1
		c1.8,2,3.5,3.9,5.1,5.6c-1.3,3.8-1.5,8.2-3.8,10.8C3253,2751.7,3248.7,2752.1,3244.6,2753.8z"/>
	<path onclick="modals(this.id);" id="61" class="st0" d="M3226.3,2699.7c1.8-7.9-1.2-16.4,9.2-20c5.3-1.8,7.9,0.1,10.6,3.5
		C3244.1,2693.7,3238.7,2699.8,3226.3,2699.7z"/>
	<path onclick="modals(this.id);" id="60" class="st0" d="M3223.9,2684.3c-0.7,5.7-1.3,11.4-2,17.5c-6.5,2-12.6,3.8-18.8,5.7c-0.4-0.5-0.8-1.1-1.2-1.6
		c6.3-7.6,12.6-15.3,18.9-22.9C3221.9,2683.4,3222.9,2683.9,3223.9,2684.3z"/>
	<path onclick="modals(this.id);" id="71" class="st0" d="M3224.4,2749c3-1.1,6.3-2.3,10.3-3.8c1.2,7.1,2.5,13.1-1.3,18.8
		C3225,2761.8,3223.8,2759.9,3224.4,2749z"/>
	<path onclick="modals(this.id);" id="63" class="st0" d="M3221,2706.4c1.3,8.4,1.3,8.5-4.8,10.3c-3.1,0.9-6.4,1.9-9.6,2c-1.6,0-3.3-1.8-5-2.8
		c1.1-1.8,1.9-4.5,3.4-5.1C3210.2,2708.9,3215.6,2707.8,3221,2706.4z"/>
	<path onclick="modals(this.id);" id="67" class="st0" d="M3224.4,2735.4c0.5-2.2,0.3-4.2,1.1-4.9c1.4-1.2,3.4-2.2,5.3-2.4c6.9-0.8,13.5-2.2,18.3-9.4
		c1.2,3.9,2.1,6.6,3.1,9.6C3242.8,2730.6,3234.1,2732.9,3224.4,2735.4z"/>
	<path onclick="modals(this.id);" id="62" class="st0" d="M3226.1,2714.6c0-3.9,0-6.1,0-8.3c4.8-5,10.8-2.7,16.3-2.5c0.7,0,1.4,3.3,2.3,5.9
		C3238.5,2711.3,3232.9,2712.8,3226.1,2714.6z"/>
	<path onclick="modals(this.id);" id="66" class="st0" d="M3245.7,2713.8c-3.2,10.4-11.7,9.2-18.8,11c-1.6-3.1-2.2-5.9,2-7
		C3234.3,2716.4,3239.7,2715.3,3245.7,2713.8z"/>
	<path onclick="modals(this.id);" id="73" class="st0" d="M4111.7,876.8c-0.2,7.5-0.2,7.5-9.4,8.7c-0.2-2.8-0.4-5.5-0.6-8.7
		C4105.4,876.8,4108.2,876.8,4111.7,876.8z"/>
	<path onclick="modals(this.id);" id="74" class="st0" d="M4132.2,879c-13.2,3.7-13.2,3.7-15.9-1.7C4121.9,876,4127.1,875,4132.2,879z"/>
	<path onclick="modals(this.id);" id="65" class="st0" d="M3214.7,2729.9c-1.2-9.1-1.2-9.1,6.9-8.9C3220.4,2725,3221.7,2730.4,3214.7,2729.9z"/>
	<path onclick="modals(this.id);" id="69" class="st0" d="M3239.3,2736c-4.5,7-10.1,6.4-16.4,8.3C3227.1,2737.2,3232.7,2737.9,3239.3,2736z"/>
	<path onclick="modals(this.id);" id="78" class="st0" d="M3840.7,1522.4c9,0,17.2,0,26.4,0c1,10,0.7,19.3,0.1,29.1c-8.9,0-17.3,0-26.5,0
		C3840.7,1541.5,3840.7,1532.5,3840.7,1522.4z"/>
</g>
</svg>
