<?xml version="1.0" encoding="utf-8"?>
<!-- Generator: Adobe Illustrator 19.0.0, SVG Export Plug-In . SVG Version: 6.00 Build 0)  -->
<svg version="1.1" id="Layer1" xmlns="http://www.w3.org/2000/svg" xmlns:xlink="http://www.w3.org/1999/xlink" x="0px" y="0px"
	 viewBox="0 0 3200 1560" style="enable-background:new 0 0 3200 1560;overflow: hidden; display: inline; width: inherit; min-width: inherit; max-width: inherit; height: inherit; min-height: inherit; max-height: inherit;" xml:space="preserve">
<style type="text/css">
	.st0{fill:#8FD4EB;stroke:#000000;stroke-width:2;}
</style>
<g>
	
	<path onclick="modal(this.id);" id="83" class="st0" d="M1753.1,986.8c-2.6-4.5-4.8-8.5-7.1-12.4c0.6-0.6,1.2-1.2,1.8-1.8c8.2,3.9,16.5,7.6,24.6,11.7
		c1.6,0.8,2.5,3,3.5,4.6c4,6.2,7.9,12.4,11.8,18.6c0.3,0.4,0.3,1.1,0.7,1.3c14.4,7.1,21.3,21.3,31.5,32.4c2.9,3.2,7.9,4.4,11.7,7.1
		c9.9,7,19.8,13.9,29.2,21.5c1.8,1.5,1.4,5.6,2.3,9.7c-7.1-0.5-13-1.3-18.8-1.2c-3.2,0.1-6.8,1-9.4,2.8c-7,4.7-10.4,11.3-8.8,20
		c0.3,1.8-0.3,3.7,0.1,5.5c2.1,9.7-4.8,14.1-11.2,18.3c-2.8,1.8-6.9,2-10.4,2c-3.8,0-6,1.9-7.2,4.8c-8,19.1-15.9,38.2-23.6,57.4
		c-0.9,2.2-0.7,4.9-0.5,7.3c0.5,8,1.3,16.1,1.9,24.1c0.5,6.5,1.2,13.1,1.5,19.7c0.1,2-0.4,4.2-1.2,6c-1.5,3.5-1.1,6.5,0.6,9.7
		c2.6,4.9,4.9,9.9,7.6,15.4c-6.3,6.2-13.5,12.4-19.6,19.6c-4.6,5.4-7.9,11.9-11.3,18.1c-1.5,2.8-2,6.2-2.3,9.4
		c-1.1,12.1-9.1,20.3-16.2,28.9c-9.2,11.1-18.6,22.2-28,33.1c-0.8,1-2.7,1.5-4.1,1.4c-6.3-0.2-12.6-0.2-18.8-1
		c-12.8-1.7-25.5-3.8-38.2-5.9c-2.2-0.4-4.8-1.3-6.1-2.8c-5.7-6.9-13.9-9.7-21-14.3c-2.1-1.4-3.7-4.1-4.8-6.5
		c-4.2-9-7.3-18.5-12.3-27c-3.5-6-9-11-14.1-15.9c-5.9-5.7-10-12.2-11.5-20.1c-2.5-12.3-10-19.7-21.6-23.2
		c-6.4-1.9-12.9-3.2-19.3-5.2c-2.7-0.8-5.2-2.6-7.7-4c-7.5-4.2-14.9-8.5-22.3-12.8c-2.9-1.7-5.6-3.8-8.4-5.7
		c-6.1-4.1-11.8-9.2-18.5-11.8c-4.9-1.9-11.5-1.5-16.8-0.2c-13.2,3.4-24.2,0.5-32.4-10.1c-3.4-4.3-4.6-10.3-7.2-15.3
		c-3.4-6.5-2.5-12.6-0.1-19.1c2.8-7.8,4.7-15.9,7.3-23.8c0.4-1.3,2.5-2.8,3.9-3c4.7-0.7,9.5-0.8,14.3-1.1c3-0.2,6-0.3,8,2.7
		c0.4,0.6,1.3,0.9,2,1.3c8.6,5.2,17.1,10.8,26,15.5c2.8,1.5,8.4,2.3,9.6,0.9c2.2-2.7,2.2-7.3,2.9-11.1c0.1-0.5-1.1-1.2-1.7-1.8
		c-7.3-7.4-9-13.4-2.9-21.6c8.3-11.2,8-24.5,11.6-36.9c2.3-7.8,1.2-15.7-2-23c-3.2-7.3-2.2-13.2,3.4-19.1
		c7.1-7.5,10.3-17.2,13.8-26.7c3.5-9.6,7.4-19.1,11-28.7c0.8-2.1,2.1-4.5,1.8-6.5c-1.1-6.4,2.3-9.9,6.9-13.4
		c18.9-14.4,37.6-28.9,56.4-43.4c3-2.3,6-6.3,9-6.3c2.4,0,4.9,4.8,7.1,7.7c7.6,10.2,15.3,20.4,22.6,30.8c4.2,6.1,7.8,12.7,11.5,19.2
		c0.8,1.5,0.5,3.6,0.7,5.4c-1.6-0.2-3.3,0-4.7-0.6c-3.5-1.4-4.4,0.7-5.2,3.3c-1,3-1.5,4.9-6.4,4.7c-6.3-0.2-12.8,3.3-19,5.5
		c-0.7,0.3-1.3,2.8-0.9,3.9c1.4,4.3,2.5,9,5,12.7c1.9,2.8,5.6,4.7,8.7,6.4c5.6,3,11.3,5.9,17.3,8.1c6.4,2.4,12.9,4.4,19.6,5.7
		c2.6,0.5,5.8-0.8,8.3-2.1c11.9-6.4,23.5-13.6,35.6-19.6c12.3-6,22.4-14.8,32.6-23.4C1740.9,997.5,1746.9,992.1,1753.1,986.8z"/>
	<path onclick="modal(this.id);" id="89" class="st0" d="M1497.6,609.8c0.8-4.8,1.7-9.3,2.4-13.8c0.8-5.7,1-11.4,2.2-17c0.4-1.9,2.7-3.6,4.4-4.9
		c2.5-1.9,5.4-3.4,8-5.3c1.9-1.3,3.4-3.6,5.4-4.2c8.5-2.3,8.7-9.9,8.5-15.7c-0.2-5.3-4.8-10-10.3-12.9c-6.6-3.4-13.4-6.7-19.4-10.9
		c-6.5-4.6-6.3-12.5-4.3-18.5c5-14.6,3.4-29.5,3.3-44.2c-0.1-12.6-2.8-24.9-6.9-37c-1.9-5.7-2.4-11.8-4-17.6
		c-1.1-4.2-2.5-8.5-4.3-12.4c-4-8.6-8.5-17.1-12.7-25.7c-0.6-1.1-0.8-2.5-1-3.7c-0.8-5.5-2.1-10.1-8-12.9c-4.7-2.2-7.2-6.6-7.3-12.7
		c-0.1-7.4-1.2-15.2-4-22c-2-4.8-7-9-11.6-12.1c-4-2.7-9.2-4.2-14.1-5.2c-9.6-1.8-19.4-2.8-29.1-4.2c-2.6-0.4-5.2-0.5-7.7-1.2
		c-1-0.3-1.8-1.8-2.9-3c10.7-3.5,20.2-1,29.6,1.7c9.8,2.8,19.4,7.1,29.4,8.9c14.1,2.5,28.3,3.2,42.8,1.9c11.6-1,23.1-2.5,34.4-5.4
		c0.8-0.2,1.8-0.1,2.4-0.5c10-7.1,21.1-6.6,32.5-5.7c4.9,0.4,10.1-1.1,15-2c8.8-1.7,17.3-1.2,26.3-0.3c10.6,1.1,21.4,2.3,32.2-2.3
		c6.9-2.9,15.4-2.3,23.2-2.9c0.9-0.1,2.4,1.5,2.8,2.6c6.7,17.8,13.2,35.7,19.8,53.6c2.5,6.9,9.9,8.9,15.3,4.1
		c4.8-4.2,9.6-8.5,14.6-12.5c1.4-1.1,3.6-1.8,5.5-1.9c11.6-0.9,17.9,7.5,24.7,14.7c3.8,4,6.5,9.2,10.5,12.9c4.4,4.1,7,8.7,7.4,14.4
		c0.7,8.8,5.9,15.5,10.2,22.4c6.3,9.9,14,19,19.6,29.2c3.8,7,6.6,15,3.7,23.7c-3.5,10.4-2.7,21.1-1.5,31.8c0.1,1.2-0.7,3.1-1.6,3.6
		c-6.6,3.4-11.6,8.4-15.5,14.7c-4,6.3-13.3,8.5-20.5,5.7c-4-1.6-8.5-2-12.7-3.3c-1.9-0.6-4.3-1.7-5.2-3.2
		c-3.7-6.4-8.3-11.1-16.2-10.6c-2.2,0.1-4.7,1.3-6.4,2.7c-6,5-10.7,11-13.9,18.3c-4.7,10.7-13.3,17.9-23.3,23.7
		c-10.1,5.8-21.6,6.9-32.7,9.2c-3.4,0.7-6.9,1-10,2.2c-1.9,0.8-3.9,2.6-4.8,4.5c-1.9,3.9-2.9,8.2-4.6,12.3
		c-5.3,12.7-16,20.3-26.8,27.8c-9.2,6.3-19.1,10.6-30.1,11.9c-2,0.2-4.1-0.9-6.2-0.9c-3.7,0-7.3,0.3-11,0.5
		c-1.1,0.1-2.4,0.9-3.3,0.6c-5.6-2.1-10.4,0.2-15.6,1.9C1516,605.6,1507.2,607.3,1497.6,609.8z"/>
	<path onclick="modal(this.id);" id="84" class="st0" d="M1864.2,1068.4c-10.8-8-21-15.5-31.3-23c-4-2.9-8.9-5-12.2-8.5c-6.3-6.7-11.7-14.2-17.6-21.2
		c-1.5-1.8-3.1-3.6-5.1-4.6c-8.8-4.4-14.3-11.6-17.6-20.4c-3.8-10.2-12.9-13-21.4-16.7c-2.4-1-5-1.4-7.5-2.3
		c-4.9-1.8-3.6-6.5-4.5-10.1c-1.6-6.6-2.3-13.6-8.8-18.7c2.9-2.8,5.2-5.8,8.2-7.7c7.3-4.8,12.7-11.2,16.6-18.9
		c1.1-2.2,1.7-4.9,1.8-7.5c0.5-10.1,0.8-20.2,1.1-30.3c0.1-3.1,1-4,4.4-3.1c3.7,1,7.8,0.8,12.4,1.1c0.3-1.1,1.6-2.8,1.1-4
		c-2-5.4,1.3-9.4,2.9-14.1c2.5-7.7,3.6-15.8,5.2-23.8c3.3-16.3,6.6-32.6,9.6-48.9c1-5.6,1.6-11.5,1.3-17.2
		c-0.7-10,2.7-20.1-1.5-30.2c-1.9-4.5,3.2-9.5,8.4-9.4c8.3,0.2,16.5,0.7,24.8,1c1.6,0.1,3.2-0.1,6.1-0.3c-2-2.6-2.9-4.5-4.4-5.8
		c-5.7-5.2-9.4-11.6-11.9-18.9c-3.1-9-9.3-16.1-15.2-23.4c-3.2-4-6-8.6-7.9-13.3c-1-2.5,0.2-5.8,0.4-8.6c11.8,0.8,23.9,2.6,36,2
		c11.6-0.5,18,6.4,25.3,13c4.3,3.8,8.8,8,14,10.1c8.7,3.5,18,5.5,27,8.2c2.2,0.6,4.6,1.1,6.4,2.3c3.9,2.7,7.4,1.3,12.1-0.5
		c-4.4-4.3-8-8.5-12.3-11.8c-10-7.6-17.4-16.7-20.4-29.2c-0.8-3.2-2.9-6.2-4.7-9c-2.1-3.3-1.7-5.6,1.9-6.7c9.8-3,19.5-6.4,29.4-8.5
		c5.2-1.1,10.3,1.1,15.2,4.3c11.3,7.4,17.6,19.1,26.6,28.4c7.7,8,11.4,17.7,15.2,27.6c1,2.7,2.6,5.4,4.4,7.6
		c8.3,10.1,9.9,22.8,14,34.6c0.7,2,1.3,4,2.1,6.7c-9.7,1.4-19.3,3-29,4.1c-9.7,1-19.4,1.3-29.1,2.2c-1.1,0.1-2.7,1.8-2.9,3
		c-0.4,2.7-1.1,6,4.1,6c1.1,9.8,2.2,19.5,3.3,29.7c1.5-0.9,4.4-1.9,5.7-3.8c2.6-4,6.6-4.2,10.4-5c5.1-1.1,10.2-2.1,15.4-2.9
		c1.5-0.2,3.2,0.3,4.7,0.8c5.5,2,10.7,4.5,17,4.2c5.9-0.3,7.4,1.8,7.3,7.6c-0.1,4.3-0.9,8.5-0.8,12.8c0.1,6.1,0.3,12.3,1.4,18.2
		c2.6,13.9,2,27.5-2.6,40.7c-2,5.7-6.2,9.9-11.4,13.5c-7.1,4.9-13.6,10.8-20.3,16.3c-11.3,9.3-22.5,18.6-33.8,27.9
		c-10.4,8.6-20.7,17.3-30.9,26.1c-1,0.9-1.5,3-1.4,4.5c0.4,5.7,0.6,11.6,2,17.2c2,7.8-0.3,15.6,0.3,23.1
		c0.9,11.2-4.5,17.7-12.5,23.3c-14,9.8-18.1,24.6-21.1,40.1C1868.7,1055.1,1866.3,1061.3,1864.2,1068.4z"/>
	<path onclick="modal(this.id);" id="98" class="st0" d="M1489.7,1171.5c-2.2-0.7-5-1.2-7.4-2.6c-8.3-4.8-16.6-9.7-24.7-14.9c-3.8-2.5-7.3-4.9-12.2-4.1
		c-3.1,0.5-6.2,1.1-9.3,0.9c-3.6-0.3-7.2-1.6-10.8-2.1c-3.6-0.5-7.2-0.9-10.7-0.4c-10.8,1.3-20.8-1-30-6.5
		c-4.3-2.6-8.1-6.1-12.3-8.9c-1.1-0.7-3-0.1-4.5-0.3c-4-0.5-8.5-0.1-11.8-1.9c-9.4-5-19.5-7.4-29.8-8.7c-13.6-1.7-27.6-2.6-39.7-9.5
		c-5.4-3.1-11.1-8.2-12.4-15.5c-3.1-16.6-5.7-33.4-13.3-48.8c-2.8-5.7-3.6-11.6-1.1-18c1-2.6,0.2-5.9,0.4-8.9
		c0.2-4.5,1.7-7.4,6.2-9.8c4.5-2.3,7.9-7,11.7-10.5c1.8-1.7,3.4-3.9,5.5-4.8c12.6-5.6,21.5-15.1,28.3-26.7c1-1.7,1.9-3.4,3.1-4.9
		c5-6.2,10.6-9.7,19.4-6.7c9.8,3.4,20.1,5.3,30.2,7.9c3.5,0.9,4.7-0.6,5.6-4.1c2.1-7.5,3.8-15.5,7.9-21.8c3.4-5.2,9.8-8.7,15.5-11.9
		c5-2.8,10.9-4.1,16.4-6.1c4.8-1.8,7.8-4.9,10.1-10.1c4.7-10.5,10.2-21,17.1-30.1c11.2-14.7,21-30.3,30.6-46
		c1.4-2.4,2.7-4.8,3.8-5.9c8.1-0.4,16.2-0.8,24.3-1.3c0.6,0,1.3-0.6,1.9-0.5c13.3,2,24.5-5,36.5-8.2c11.1-3,22.2-3.8,33.6-2
		c4.2,0.7,8.5,0.8,12.8,1.1c7,0.6,14,1.2,21.4,1.9c-1.5,3.9-3,7.1-3.9,10.5c-1.1,4.2-3.8,6-7.7,7.7c-3.7,1.7-6.7,5.4-9.4,8.6
		c-2.6,3.1-4.8,6.6-6.6,10.3c-3.8,8-9.1,14.6-16.1,20.2c-2.2,1.7-3,5.2-4.6,7.7c-1.8,2.9-4,5.6-5.8,8.4c-4.3,6.5-7,13-4.3,21.4
		c2.6,8.1,1.5,16-2.7,24.1c-2.9,5.7-5.2,11.4-10.1,15.7c-0.9,0.8-0.8,2.7-1,4.1c-1.2,9.7-2.4,19.5-3.5,29.2c0,0.2-0.3,0.3-0.2,0.4
		c3.3,11.9-4.5,20.9-8,30.9c-3.1,8.9-6,17.9-9.9,26.5c-2.2,4.8-5.7,9.2-9.1,13.2c-4.7,5.5-5.8,11.7-3,17.8c4.5,9.7,4,19.3,1.7,29.2
		c-1.4,6-2.4,12.1-4,18.1c-0.7,2.8-2.3,5.3-3.6,7.9c-2,4.2-4.9,8.2-6,12.7c-1.1,4.8-1.6,10.3,3.8,13.8
		C1492.3,1162.5,1493.3,1166.3,1489.7,1171.5z"/>
	<path onclick="modal(this.id);" id="90" class="st0" d="M1910,628.5c-8.2,2.5-16.6,4.9-24.9,7.5c-4.6,1.5-5.5,6.2-2.6,10.1c1.9,2.7,3.6,5.8,4.5,9
		c3.6,12.1,10.4,21.6,20.5,29.2c3.4,2.6,6.1,6.2,9.9,10.3c-6.4-2.2-11.8-4.3-17.3-6c-7.8-2.4-15.7-4.2-23.4-6.7
		c-2.4-0.8-4.5-2.6-6.4-4.3c-4.8-4.3-9.2-9.1-14.3-13c-4.8-3.7-9.9-6.3-16.8-5.8c-8.5,0.6-17.1-0.8-25.6-1.5
		c-4.4-0.3-8.8-0.9-13.2-1.2c-2.4-0.1-3.8,0.6-2.5,3.6c0.7,1.7,0.2,4,0.4,6c0.2,1.8,0,3.8,0.9,5.2c3.8,6,8.1,11.8,12,17.8
		c4.1,6.3,9.3,11.9,11.7,19.5c1.7,5.3,5.5,9.8,8.5,14.7c0.7,1.2,1.6,2.4,2.1,3.2c-9,0-17.9,0.3-26.7-0.1c-4.3-0.2-5.8,1.5-6.7,5.2
		c-1.2,4.7-0.8,9.2-0.3,14.1c1,8.9,1,18.1,0,27c-1.5,13.1-4.3,26.1-6.7,39c-2.6,14.3-5.3,28.5-8.1,42.8c-0.5,2.5-1.9,4.7-3.1,7.4
		c-1.2-0.8-1.9-1.1-2.4-1.7c-12.3-11.9-24.5-23.9-36.8-35.8c-3.4-3.3-6.9-6.6-10.7-9.6c-1.2-1-3.3-1.4-5-1.4
		c-3.8,0.1-7.8-0.1-11.2,1.1c-3.7,1.3-5.5-0.3-7.5-2.6c-5.1-5.8-9.9-12.1-15.6-17.3c-7.7-7-11.1-16.6-16.3-25
		c-5.8-9.4-10.8-19.4-16.2-29.4c3.3-1.7,3.1-3.7,0.9-6.7c-5.5-7.6-5.2-7.7,0.2-14.9c9.8-13.1,19.6-26.2,29.3-39.3
		c0.6-0.9,0.8-2.3,0.7-3.4c-0.7-7.7-4.6-14.2-8.2-20.8c-4.5-8-9.4-15.7-13.8-23.7c-1.6-2.9-2.9-2.8-5.7-1.3c-3.7,2.1-8,3.2-12,4.7
		c-0.2-0.5-0.4-0.8-0.4-1.1c-0.4-14.9-0.7-29.9-1-44.8c-0.1-6.3-0.1-6.5-6.7-5.6c-13.4,1.9-25.5,7.1-35.3,16.6
		c-8.5,8.2-16.7,16.7-25.1,25c-2.5,2.5-6.6,2.3-8.4-0.7c-6.1-9.8-15.1-15.5-25.8-19c-1-0.3-1.8-1.1-2.5-2.8c2.4,0,5-0.7,7,0.1
		c7.7,3,15,0.8,21.7-1.9c12.2-4.8,23.2-12.1,33-20.8c8.3-7.4,13.2-17,16-27.6c0.8-3,1.9-4.4,5.5-5.1c11-2,22.2-4.1,32.8-7.6
		c15.1-5,26.3-15.1,34-29.3c2.8-5.3,6.5-10.2,10.4-14.7c5.3-6,13.8-6.1,17.4,0.9c3.7,7.3,9.1,9.4,16.2,10c1.4,0.1,3.1,0.3,4.2,1.1
		c6.9,5.3,14.1,2.3,20.4-0.5c3.9-1.7,6-7,9.3-10.4c3.3-3.5,7-6.5,10.8-10c3.5,6.9,0.5,11.8-2.3,16.7c-3.4,5.8-3.8,12-3.3,18.5
		c0.2,3.7,0.2,7.4,0,11.1c-0.2,3.4-0.2,6.3,2.7,8.9c4.3,3.9,8,8.1,14.4,8.8c2.5,0.3,4.8,2.7,6.9,4.4c5.5,4.6,10.7,9.5,16.2,14.1
		c5.1,4.3,10,8.4,13.1,14.8c4.7,9.7,13,16.3,23.2,19.1c15.6,4.3,28.5,13.4,42.4,20.8C1901.9,625.6,1906.1,626.9,1910,628.5z"/>
	<path onclick="modal(this.id);" id="87" class="st0" d="M1486.6,422.1c-7.5-0.4-15.1-0.5-22.6-1.2c-4.5-0.4-6.8,1.8-9,5c-5.3,7.7-10.1,15.7-16.4,22.5
		c-4.1,4.5-10.5,6.9-15.6,10.6c-2.2,1.6-4,4-5.6,6.2c-1.9,2.6-3.2,5.7-5.3,8c-7,7.9-14.3,15.6-21.3,23.5
		c-8.5,9.6-16.7,19.5-25.2,29.1c-2.7,3.1-5.3,7.4-10.5,3.2c-1.2-0.9-3.1-0.8-4.6-1.4c-6.6-2.8-13.5-4.3-19.5-9.3
		c-4.9-4.1-12.3-5.5-18.7-7.7c-10.6-3.6-21.3-7.1-32.1-10c-3.8-1-8.1-0.1-12.1,0.3c-2.5,0.3-4.9,1.4-7.2,2
		c-2.2-10.1-4.6-19.7-6.3-29.5c-1-5.5-0.2-11.4-1.7-16.7c-2.1-7.1-5.7-13.7-8.6-20.6c-2.4-5.6-5-11.2-7-16.9
		c-1.8-5.4-5.6-6.9-9.8-3.2c-1.5,1.3-2.8,2.8-4.3,4.2c-3.8,3.8-3.8,3.8-8.5,2.2c-0.9-7.6-1.8-15.1-2.5-22.6c-0.4-3.5,2.7-6,6.3-6.1
		c8-0.2,14.4,3.1,19.9,8.7c5.2,5.3,8.5,4.7,11.9-1.9c0.4-0.7,0.6-1.6,1.1-2.2c6.2-7.4,9.5-16.1,11.5-25.5c1.1-5,4-9.6,6.5-15
		c9.8,12,21.4,19.8,33.2,27.1c5,3.1,7.5,1.8,9.6-4.3c2.4-6.9,5-13.8,6.9-20.8c3.1-11.6,9-21.5,17-30.4c8.1-9,15.4-18.8,23.3-28
		c5.4-6.3,13.5-5.8,20.7-7.4c0.6-0.1,1.8,0.3,2,0.8c2.6,5.1,7.6,4.6,12,5.1c12.6,1.5,25.6,1,37.2,7.5c3.6,2,7.7,3.3,11.2,5.4
		c7.1,4.3,6,12.2,7.7,18.9c0.8,3.5,1.1,7.2,1,10.8c-0.1,5.8,3,9.9,7.4,12.4c4.6,2.7,7.1,6,7.8,11.2c0.4,2.7,2.2,5.2,3.3,7.9
		c1.2,2.9,2.3,6,3.7,8.9c1.2,2.7,2.5,5.3,4.1,7.8C1481.6,397.6,1487.2,415.4,1486.6,422.1z"/>
	<path onclick="modal(this.id);" id="95" class="st0" d="M1468.4,826.9c-7.4,12.5-13.8,23.8-20.8,34.8c-8.4,13.2-17.3,26.1-25.9,39.2
		c-1.9,3-3.7,6.3-4.5,9.7c-1.4,5.8-5.9,7.5-10.4,9.3c-4.5,1.8-9.4,2.8-13.8,4.7c-12.8,5.4-21.1,14.8-24,28.7
		c-0.7,3.2-1.6,6.3-2.5,9.8c-11.9-2.9-23.9-5.2-35.5-8.7c-5.8-1.8-9.8,0.2-13.1,3.5c-4.4,4.4-8.3,9.3-11.6,14.6
		c-6.2,10.1-14.8,17.1-26.2,21.9c0.7-4.8,1.7-9,1.8-13.3c0.2-12,0.4-24-0.1-36c-0.2-6-1.7-11.9-2.8-17.8c-0.9-5.1-2.2-10.2-2.9-15.3
		c-0.2-1.6,1.2-3.3,1.7-5c7.1-24,14.4-48,21-72.1c1.9-7.1,0-14.4-4.4-20.7c-2.7-3.9-2.1-10.8,0.5-14.7c9.7-14.3,18.6-29,22.1-46.4
		c1.6-8.1,7.4-13.2,14.4-16.7c6.9-3.4,14-6.1,20.9-9.5c2-1,3.8-3,5.1-5c5.1-7.5,9.5-15.7,15.2-22.8c5.9-7.3,15.3-8.1,23.8-10
		c4.3-0.9,8.7-1.5,12.8-3c2.7-1,4.9-3.2,7.6-5c0.5,1.4,1.5,3.4,2,5.5c1.8,8.2,5.5,15.4,12,20.9c1.6,1.3,3.9,2.4,5.9,2.6
		c2.9,0.2,4.4,1,4.1,4.1c-0.4,4.4,0.4,8.3,3.8,11.8c1.4,1.4,0.9,4.9,1,7.5c0,0.7-0.9,1.6-0.8,2.3c2.6,12.8-6.7,21-11.8,30.7
		c-2.6,4.9-4.1,10.5-7.5,14.8c-6.5,8.2-1.4,16.4-1.4,24.6c0,0.3,0.4,0.6,0.4,0.9c0.7,3.5,0.2,8.6,2.3,10c4.5,3.1,10.2,5,15.7,6.3
		C1450.5,824.6,1458.5,825.4,1468.4,826.9z"/>
	<path onclick="modal(this.id);" id="97" class="st0" d="M1687.7,1029.7c-2.7-5.7-5.8-11.6-8.2-17.9c-0.8-2.2-0.2-5.2,0.5-7.6c2.5-8.4,5.2-16.8,8-25.1
		c2.1-6.5-1.3-11.8-3.7-17.1c-2.3-4.8-5.8-9.1-8.5-13.7c-2.1-3.6-2-3.7-5.6-2.6c-8.5-6.5-3.2-16.6-6.7-24.7c-15,0-29.8-0.1-44.7,0.1
		c-1.8,0-3.9,1-5.4,2.2c-14.5,10.6-29,21.2-43.3,32.1c-12.9,9.8-25.5,19.8-39.4,30.6c0.5-4.6,0.9-7.9,1.2-11.2
		c0.4-4.3,1-8.5,0.9-12.8c-0.1-3.7,0.9-6.2,4.2-8.1c3-1.7,5.4-4.1,5-8.4c-0.2-1.7,0.8-3.9,1.9-5.4c5.4-7.7,5.4-16.4,2.7-24.5
		c-3.2-9.8,1.3-16.5,6.6-23.4c0.7-0.9,2.2-1.6,2.3-2.6c1.1-9.3,9.8-12,14.8-17.9c3.9-4.7,6.1-10.8,9.7-15.8
		c4.4-6.2,7.3-14,16.5-15.4c1.5-0.2,3.1-3.5,3.8-5.6c2.1-6,4.1-12,5.4-18.1c1-4.8-0.1-9.3-3.5-13.3c-1.3-1.6-1.3-4.7-1-7
		c1-7.6,2.5-14.7-2.1-22.2c-5.1-8.3,0.8-20.1,10.3-22.5c14.7-3.7,29.4-7.2,44.1-10.5c1.2-0.3,3.5,0.9,4.2,2.1
		c5.8,9.8,11.6,19.7,17,29.8c6.7,12.4,13.2,24.9,24.6,34.1c2.9,2.4,4.8,5.9,7.7,8.4c1.5,1.4,4,2.4,6,2.3c4.4-0.1,8.7-1.1,13.1-1.5
		c1.1-0.1,2.6,0.3,3.5,1c4.2,3.7,8.3,7.5,12.4,11.4c10.9,10.2,21.5,20.7,32.7,30.5c4.3,3.7,3.7,8.8,6.7,14
		c-4.5-0.3-8.2-0.2-11.8-0.9c-4.7-0.8-6.6,0.3-6.8,5c-0.4,11.1-0.4,22.2-1.2,33.3c-0.3,3.5-2,7.4-4.3,10.1c-3.8,4.6-8.6,8.4-13,12.5
		c-0.9,0.9-2.2,1.4-3.2,2.2c-5.4,4.1-5.2,8.4-1.8,14c2.9,4.8,4,10.8,5.4,16.4c0.5,2.2-0.8,4.8-0.6,7.1c0.2,2.8,0.8,5.7,1.7,8.4
		c0.6,1.7,2.2,3.2,3.4,4.9C1730.2,1002.6,1712.5,1020.3,1687.7,1029.7z"/>
	<path onclick="modal(this.id);" id="88" class="st0" d="M1261.6,506.3c7-3.2,13.2-4.5,19.8-2.3c14.4,4.7,28.8,9.1,43.1,14.1c3,1,5.4,3.9,8,5.9
		c0.3,0.2,0.4,0.6,0.7,0.7c8.9,3.1,17.7,6.8,26.8,8.9c2.2,0.5,6-4,8.5-6.7c5.9-6.4,11.3-13.3,17-19.8c10.6-12,22.2-23.2,31.4-36.2
		c4.5-6.3,10.4-9.2,15.8-13.7c8-6.6,15.2-14.6,20.9-23.2c6.4-9.7,9.7-12.2,21-9.5c1.1,0.3,2.3,0.8,3.4,0.6c6.8-1.3,10.7,1.3,12,8.3
		c1.1,6.4,3.2,12.7,3.8,19.1c0.9,10.6,1.2,21.2,1,31.8c-0.1,6.5-2.2,12.8-2.7,19.3c-0.4,6.1-1.5,12.9,0.7,18.3
		c1.9,4.8,7.6,8.3,12.1,11.6c3.1,2.3,6.9,3.6,10.6,4.9c5.2,1.8,8.5,6,9.7,10.3c0.9,3.3-0.9,9.5-3.5,11.1
		c-6.6,4.1-11.2,10.9-19.3,13.2c-2.3,0.6-3.7,7.1-4.3,11.1c-1.4,8.7-1.8,17.6-3.3,26.3c-0.5,3-2.8,5.8-4.9,8.3
		c-5.8,6.8-10.6,14.6-19.6,18.1c-2,0.8-4.1,4.7-4.1,7.1c0.1,13.8-4.7,25.8-11.7,37.4c-4.6,7.5-8.7,15.2-12.9,22.9
		c-1.8,3.3-5.6,4.1-8.6,1.6c-6.9-5.8-9.9-13.7-11.9-22.1c-0.8-3.4-2.9-6.8-0.4-10.7c0.5-0.8-1.8-4.5-3.5-5.6
		c-13.3-8.7-24.9-19.4-36.1-30.6c-4.4-4.5-8.7-9.1-12.8-13.8c-14.9-16.8-33.1-29.5-51.2-42.5c-9.2-6.7-17.6-15.1-24.8-24
		c-9.3-11.5-17.1-24.3-25.1-36.7C1264.7,515.7,1263.5,511,1261.6,506.3z"/>
	<path onclick="modal(this.id);" id="86" class="st0" d="M1550.7,162.1c1,2.6,3,5.4,3.2,8.4c0.5,10.8,4.5,19.7,12.8,26.6c10.3,8.4,20.3,17.2,31.1,24.9
		c11.7,8.3,24.8,14.2,38.7,18.2c12.3,3.6,23.8,1.3,35.2-3.7c-1.5,11.8-8.1,21.5-13.6,31.8c-1.6,3-2.6,6.6-2.9,10.1
		c-0.3,3.3-1,4.8-4.6,4.7c-9.6-0.2-19,0.3-27.6,5.4c-1.1,0.7-2.9,0.6-4.3,0.5c-9.9-0.6-19.7-2-29.6-1.8c-9.6,0.2-19.2,2.1-28.8,3.1
		c-2.4,0.3-4.8,0.1-7.2,0.1c-9.4,0.1-18.6-0.8-27.7,4.1c-6.4,3.5-14.1,5.4-21.4,6.2c-13.1,1.5-26.4,1.6-39.6,2.2
		c-2,0.1-4-0.6-5.6-0.8c2.2-6.2,5.2-11.3,3.5-18.1c-2.1-8.2-2.1-16.9-4.5-25c-1.9-6.4-5.9-12-11.5-16.6c-7.3-6-14-12.9-18.5-21.7
		c-5.1-10-11.1-19.5-16.7-29.1c16.3-7.8,33.4-7.8,50.5-7.6c5,0.1,9.5-0.5,13.1-4.1c4.7-4.6,10.4-3.1,15.9-2.6
		c3.4,0.3,6.7,1.3,10.1,1.6c9.7,0.8,18.3-1.3,25.9-8c3.3-2.9,8.2-4.2,12.6-5.9C1542.5,163.9,1545.8,163.4,1550.7,162.1z"/>
	<path onclick="modal(this.id);" id="94" class="st0" d="M1467.2,661.9c4.1,4.3,7.7,8.3,11.4,12.2c3.4,3.6,7,6.3,6.7,12.6c-0.3,7,6.6,10.7,11.1,15.2
		c1.9,2,3.9,3.9,5.8,5.8c3.3,3.5,6.7,7,10.8,11.4c-0.4,3,3.2,6,5.9,9.1c3.5,4,7.8,7.3,11.7,11c3.3,3.1,11.3,4.1,15,1.7
		c3.3-2.1,6.8-4.1,9.6-6.8c3-2.9,5.5-3,9-1.1c12.1,6.5,24.3,12.8,36.6,19.2c-1.4,2.6-2.7,5-4,7.4c-3.2,5.9-3.6,12.1,0.3,17.4
		c4.6,6.3,1.1,12.6,1.5,18.9c0.2,3.3,0.7,6.6,1.5,9.7c1,3.9,2.5,7.7,4.1,12.3c-10.8-1.1-19.8-1.9-28.9-2.9c-2.8-0.3-5.5-0.9-8.3-0.9
		c-6.7-0.1-13.4,0.1-20.1,0c-11.9-0.1-21.7,6.9-32.8,9.3c-3.2,0.7-6.4,1.3-9.6,1.6c-9.3,0.7-18.7,1.4-28.1,1.8
		c-2.3,0.1-4.7-1.2-7.1-1.7c-9.1-2-18.2-3.9-27.2-5.9c-12.5-2.8-14-4.5-15.3-17.3c-0.2-2.6-0.4-5.3-1-7.8
		c-2.3-9.3,4.7-15.6,7.9-22.9c3.1-7.2,8.5-13.5,12.7-20.3c0.9-1.4,1.2-3.4,1.4-5.1c0.5-4.6,0.9-9.2,1-13.8c0-2.6,0-5.7-1.4-7.6
		c-6.9-9.5-5-18.6,0.4-27.8c5.3-9.1,10.9-18.2,16.3-27.3C1465.3,667.4,1465.9,665.2,1467.2,661.9z"/>
	<path onclick="modal(this.id);" id="92" class="st0" d="M1600.9,748.8c-10.3-5.3-20.5-10.1-30.2-15.8c-10.8-6.4-10.6-6.8-22.9,2.7c-7.7,5.9-13.2,4.8-19-3
		c-2.8-3.7-6.9-6.5-10.3-9.7c-0.9-0.9-2.3-2.6-2-3.2c3.1-5.7-2-5.3-4.8-6.8c-1.9-1-3.6-2.4-5.1-4c-4.8-4.9-9.2-10.2-14.1-14.9
		c-3.2-3.1-4.7-6.6-4.4-11c0.3-3.4-0.2-6.1-3.9-7.6c-1.7-0.7-2.9-2.7-4.3-4.1c-4-4.2-7.9-8.3-12.2-12.9c0.4-3.5,1.2-8,1.3-12.5
		c0.1-3.6,0.9-5.2,4.8-5c13,0.8,26.1,1.4,39.1,2c0.5,0,1,0,1.5,0c15.8,0.3,31.6,0.2,47.3,1.2c7.4,0.5,12.3-3.4,14.4-8.3
		c2.8-6.7,9.2-8.6,13.3-13.3c5.7-6.7,13.4-11.7,18.9-18.6c5.5-7,12.7-10.7,20.4-13.8c5.7-2.3,11.8-3.5,17.6-5.2
		c0.5,0.8,0.7,1,0.7,1.2c0.4,15.3,0.7,30.5,1.1,45.8c0.1,3.1-0.7,5.1-4,5.5c-6.7,0.6-9.6,6.6-13.2,10.7c-4.8,5.5-10.1,3.7-15.6,3.7
		c-2.3,0-5.5,0.8-6.7,2.4c-5.1,6.9-10.6,13.9-14.1,21.7c-1.9,4.3-0.6,10.2-0.2,15.3c0.6,6.7,1.9,13.3,2.7,19.9
		c1.4,10.6,2.7,21.1,3.9,31.7C1601.1,744.7,1600.9,746.5,1600.9,748.8z"/>
	<path onclick="modal(this.id);" id="93" class="st0" d="M1651.9,725.8c2.5,3.5,4.8,6.7,7.8,11c-18.8,4.4-37,8.6-55.4,12.9c-1.5-13.2-2.8-26.2-4.4-39.2
		c-1.1-9.2-2.9-18.4-3.7-27.7c-0.3-3,1.2-6.4,2.7-9.1c3.1-5.5,6.6-10.9,10.2-16.1c1.5-2.1,2.8-4.2,6.8-3c8.6,2.5,12.2,1.9,18.4-6
		c5.4-6.9,12.5-9,19.7-11.8c3.9-1.5,7.8-2.8,12.4-4.4c3.8,6.5,8,13.5,12.1,20.5c2.1,3.7,4.4,7.3,6,11.2c1.5,3.7,3.1,7.6,3.2,11.5
		c0,2.7-2.3,5.6-4.1,8c-9.5,12.7-19.2,25.3-28.7,37.9C1653.8,723.1,1652.8,724.6,1651.9,725.8z"/>
	<path onclick="modal(this.id);" id="91" class="st0" d="M1474.7,637.5c10.4-5.1,14.3-15.2,21.5-22.3c2.8-2.8,7.6-3.8,11.6-5.2c7.4-2.4,14.8-5,22.4-6.4
		c3.9-0.7,8.6,0.1,12.2,1.7c8.2,3.7,16.2,8.2,24,12.9c2.2,1.3,3.4,4.3,5,6.5c1.2,1.7,2.5,3.3,4,5.3c-2.1,7.6-6.3,11-14.5,10.8
		c-15.9-0.3-31.9-0.4-47.8-1C1500.6,639.5,1488.2,638.4,1474.7,637.5z"/>
	<path onclick="modal(this.id);" id="100" class="st0" d="M1661.8,924c0.6,8.5,0.2,16.4,4.8,23.2c0.7,1,2.1,2.7,2.4,2.6c4.5-2.4,4.9,1.4,6.2,3.9
		c0.7,1.3,1.5,2.5,2.4,3.9c-2.8,3.9-6.3,6.7-11.4,7.7c-1.7,0.4-2.9,3.3-4.8,5.7c-0.7,0-2.3,0-4,0c-8.2,0-8.2,0-8.6,8.2
		c-7.6,2.5-7.4,2.3-11.8-3.7c-10.5-14.4-21.1-28.7-31.7-43c8.1-7.7,17.6-10.1,28.7-8.7c7.4,0.9,15,0.2,22.5,0.2
		C1658.3,924,1660.1,924,1661.8,924z"/>
	<path onclick="modal(this.id);" id="99" class="st0" d="M1652,975c5.2-3,13,2.9,14.4-6.2c4-1.9,8-3.8,13.2-6.3c3.3,0.8,7.4,9.2,5.7,14.7
		c-2.4,7.8-5.1,15.4-7.3,23.3c-1.4,5.1-3.6,8.2-9.4,8.7c-6.3,0.6-12.6,4-18.6,3.4c-13.2-1.2-24.8,4.4-37.9,5.9
		c-0.5-1.3-1.2-3.1-2-5.1c4.9-1.5,9.8-3,14.6-4.4c0.3-0.1,0.7-0.4,0.9-0.3c6.3,2.5,8.9-1.3,11.2-6.3c0.3-0.8,2.4-1.3,3.5-1.1
		c1.6,0.3,2.4,3.1,4.8,0.3c2-2.3,3.3-3.9,1.8-7c-1.5-3.2-2.4-6.7-3.7-10.6C1648.7,983.3,1654.5,982.4,1652,975z"/>
	<path onclick="modal(this.id);" id="82" class="st0" d="M1675.5,1010.6c3.4,7,6.7,13.9,10.1,20.8c-5.6,3.2-11.5,5.9-16.7,9.7c-8.5,6.2-16.9,3.2-25,0.1
		c-9-3.5-17.5-7.9-26.1-12.4c-1.7-0.9-2.8-3.6-3.6-5.6c-0.1-0.4,2.4-2.3,3.9-2.7c8.1-2,16.4-5.7,24.2-4.9c9.9,1,18.6-2.2,27.9-3.6
		C1672,1011.7,1673.7,1011.1,1675.5,1010.6z"/>
	<path onclick="modal(this.id);" id="85" class="st0" d="M1944,776.1c-1.4-8.7-2.8-18.6-7.8-27.8c10-0.8,20-1.6,30.4-2.5c1.7,6.5,3,12.8,5,18.9
		c1.2,3.8-0.4,4.7-3.5,5.2c-4.4,0.7-8.8,1.1-13,2.2C1950.9,773.2,1947,775,1944,776.1z"/>
	<path onclick="modal(this.id);" id="101" class="st0" d="M1998.4,775.7c-7-1.9-14-3.8-20.9-5.8c-0.9-0.2-2.1-0.9-2.3-1.5c-1.9-7.5-3.6-15.1-5.4-22.8
		c7.6-1.2,14.9-2.5,22.3-3.4c1.1-0.1,3.3,1.4,3.4,2.4c0.5,5.1,2.9,9.8,1.4,15.4C1995.9,764.3,1997.8,769.4,1998.4,775.7z"/>
</g>
</svg>
