<?xml version="1.0" encoding="utf-8"?>
<!-- Generator: Adobe Illustrator 19.0.0, SVG Export Plug-In . SVG Version: 6.00 Build 0)  -->
<svg version="1.1" id="Layer1" xmlns="http://www.w3.org/2000/svg" xmlns:xlink="http://www.w3.org/1999/xlink" x="0px" y="0px"
	 viewBox="0 0 8000 4000" style="enable-background:new 0 0 8000 4000;overflow: hidden; display: inline; width: inherit; min-width: inherit; max-width: inherit; height: inherit; min-height: inherit; max-height: inherit;" xml:space="preserve">
<style type="text/css">
	.st0{fill:#8FD4EB;stroke:#000000;stroke-width:2;}
</style>
<g>
	
	<path onclick="modal(this.id);" id="113" class="st0" d="M3018.1,2508.4c-0.9-7.8-1.3-16.3-12.3-17c-7.5-0.5-15.6-6.1-21,4.1c-4.6-6.7,0.5-10.5,1.8-15.8
		c-2.4-3.8-5-8-7.6-12.2c-2.8-4.5-3.6-8.9-0.8-14c2.6-4.6,4.4-9.7,6.5-14.6c0.9-2.1,2.4-4.3,2.4-6.5c-0.3-13.6,8.1-20.1,19.7-24.7
		c1.8-8.2,6-14,15-16.5c3.1-0.9,5.8-5.2,7.4-8.5c2.3-4.8,5.1-8.1,10.1-10.3c3.9-1.6,7.2-4.6,10.6-7.2c1.8-1.4,3.3-3.3,5-4.9
		c12.3-12.2,12.2-12.3,18.2-28.2c1-2.6,3-5,5-7.2c3.5-3.9,7.3-7.6,11.3-11.7c4.3,0.9,9.1,1.6,13.9,2.9c7,1.8,14,3.8,20.9,6.1
		c9.4,3.2,18.5,5.1,27.8-1c2.1-1.4,5.6-1.4,8.3-0.9c3.9,0.7,7.6,2.4,11.3,3.9c3.9,1.5,7.8,2.1,11.5,0.1c4.7-2.5,8.8-1.4,13.2,1
		c3.7,2.2,7.8,3.8,11.7,5.6c1.5,0.7,3.6,1.8,4.7,1.2c7.6-4,14.8,1.9,22.5,0.6c3-0.5,7.1,3.2,10.1,5.7c7.9,6.7,15.6,8.4,26.2,4.6
		c22.5-8.2,45.5-14.9,68.5-21.6c20.3-5.9,40.5-5.4,60.3,2.8c2.8,1.2,5.4,2.5,8.3,3.5c11.8,4.1,22.3,9.5,28.8,21.3
		c2.9,5.3,7.6,10.2,15.2,11.2c0.5-11,8.7-14.8,17.4-15.6c8.5-0.8,14-5.2,19.2-10.6c5.9-6.1,11.9-10.2,20.8-7c0.9,0.3,2,0.3,3,0
		c15.7-3.8,30.9,1.2,46.3,3c27.7,3.2,55.3,7.1,83,10.6c33.3,4.3,66.5,8.3,99.7,13.1c5.9,0.8,10.2-0.2,14.6-3.8
		c29.4-24,58.8-47.9,88.3-71.7c30.3-24.4,60.7-48.8,91.1-73.1c9.1-7.3,9.8-11.7,2.7-20.6c-6.7-8.4-6.6-11,0.8-20.9
		c2.7-3.7,5-7.7,7.4-11.6c1.2-2,2.1-4.2,3.6-5.9c4.9-5.8,9.9-11.7,15.2-17.1c1.9-1.9,4.8-3.9,7.2-3.9c19.7-0.3,39.3-0.2,59.8,1.3
		c-2.2,1.5-4.2,3.3-6.5,4.5c-5.1,2.7-6.4,6.7-6.4,12.3c0.1,12.9,1.3,26.2-1.6,38.5c-2,8.5-5.6,18.5-14.7,23.8
		c-4.8,2.8-7.9,6.8-8,12.9c0,2.5-1.4,5.1-2.6,7.4c-3.3,6.4-2,11.9,1.7,17.7c3.9,6.1,7.4,12.5,10.2,19.1c0.9,2.1-0.6,5.9-2.3,8.1
		c-6.1,8-5.9,16.5-3.6,25.6c2.3,9.1,3.7,18.1,0.9,27.4c-1.6,5.6-0.3,11.2,3.8,15.8c1.7,2,3.8,4.2,4.4,6.6
		c1.9,7.7,7.5,12.5,12.8,17.4c5.4,4.9,10.9,9.7,16.8,14c3.6,2.6,5.2,5.7,5.6,9.9c0.5,4.9,1.4,9.9,2.4,14.7c1.4,6.6,3.6,8.7,10.1,8.7
		c30.3,0,60.6-0.2,91-0.4c3,0,6-0.2,9-0.2c76.6-0.5,153.2-0.9,229.9-1.4c28.3-0.2,56.6-0.3,85-0.7c39.9-0.5,79.8-1.3,119.1-1.9
		c7.4,11.7,4.9,23.4,3.2,35.7c-1.9,1.4-4.2,3.3-6.8,4.8c-7.1,4.3-12.6,9.3-13.6,18.4c-0.4,3.6-3.4,7.1-5.8,10.2
		c-5.2,6.7-6.7,13.8-2.3,21.3c2,3.4,1.8,6.4,1.5,10.2c-0.4,5.4,1.3,11,2.2,16.9c-2.5,1.2-4.5,2.1-6.6,3c-6.5,2.9-12.4,6.7-15.6,13.3
		c-2.3,4.7-6,7.3-10.7,8c-8.2,1.2-16.6,2.2-23.7-3.9c-1.5-1.3-3.4-2.1-5.2-2.9c-3.9-1.8-7-1-9.2,2.9c-2.4,4.3-5.1,8.5-8,13.3
		c-2.1-1.2-4.2-1.8-5.2-3.2c-3.7-5-8.4-4.9-13.3-3c-7.7,3.1-15.3,6.5-22.8,9.8c-2.4,1.1-4.6,2.4-6.8,3.5
		c-8.9-10.1-14.2-11.4-25.4-6.6c-10.1,4.2-13.2,10.4-10.8,21.4c2,9-0.8,15.1-9,19.2c-4.7,2.3-7.9,5-6,10.8c0.5,1.5,0.6,3.4,0.1,4.8
		c-3.8,10.2-0.4,20.2,0.5,30.3c0.4,3.9-0.2,7.9-0.7,11.8c-1.2,9.2-2.6,18.4-4,28c-10.7,0.7-20.9,1.8-31.1,1.9
		c-22.3,0.3-44.7,0.1-67,0.1c-3.6,0-7.2,0-11.7,0c-0.3,3.5-0.6,6.4-0.7,9.2c-0.5,11.3-0.9,22.6-1.4,33.9c-0.1,1.6,0,3.9-1,4.7
		c-5.1,4.1-10.1,9.5-16.1,11.3c-10,3.1-20.8,4-31.2,5.5c-3.9,0.6-8,0.1-12,0.1c-48.3,0.4-96.6,1.1-144.9,1.3
		c-97,0.4-194,0.4-290.9,0.9c-7.3,0-11.7-4-16.2-7.9c-6.3-5.5-12.8-8.1-21.2-4.7c-2.6-4.6-6.2-7-11.4-6.2c-6.2,1-10.5-1.9-12.9-7.2
		c-2.7-6.1-7.8-7.6-13.6-8.2c-3-0.3-5.9-0.6-8.9-1c-9-1.1-16.1-4.6-20.4-13.5c-2-4.2-6.3-7.4-10.3-11.8c-4.3,4.3-8,7.5-11.2,11.3
		c-3.3,3.9-7.1,5.3-12.3,5.1c-6.8-0.3-14-1.7-20.1,3.2c-0.7,0.5-1.9,0.5-2.9,0.5c-9.2-0.5-18.4-1.2-27.5-1.5
		c-4.2-0.1-8.6-0.1-12.7,0.8c-7.3,1.5-12.8-0.1-17.3-6.4c-5.3-7.4-12.1-7.3-18.2-0.6c-9,9.8-18.1,19.5-27.3,29.1
		c-14.2,15-28.4,29.9-42.9,44.7c-3,3-6.8,5.2-11.1,8.3c-5.6-4.6-10.9-9-16.3-13.3c-2-1.7-3.9-4.5-6.2-4.8
		c-15.2-2.1-25.8-12.7-38.2-19.9c-2.4-1.4-5.7-2.9-8.2-2.3c-7.7,1.7-13.1-1.8-17.4-7.1c-9-11.1-20.6-17.5-34-21.4
		c-9.5-2.8-16.1-9.4-21.4-17.1c-3.1-4.6-6.9-7.1-11.8-8.2c-7.8-1.8-13.4-6.4-18.9-12.2c-7.8-8.2-14.6-17-21.4-26
		c-6.1-8-13.5-15.3-20-23.2c-1.8-2.2-4.6-4-7.3-5c-11.9-4.2-19.3-12.6-23.4-24.1c-1.4-3.8-3.7-6.2-7.4-7.4c-7.4-2.3-14-8-22.7-4.8
		c-1.1,0.4-2.8-0.1-3.8-0.7c-7.8-4.6-13.7-0.7-18.1,4.9c-5,6.2-10.2,6.9-17.5,5.2c-18-4.2-33.5-12.3-45.9-26.2
		c-2.4-2.7-5.6-4.8-8.7-6.6c-6-3.5-9-8.6-9.4-15.4c-0.1-1.7-0.3-3.3-0.7-4.9c-1.9-9-9.5-15.8-17.9-13.1c-11.3,3.7-15.6-3.7-21-10
		c-2.4-2.7-3.9-6.2-6.2-8.9C3028.2,2506.9,3028.1,2507,3018.1,2508.4z"/>
	<path onclick="modal(this.id);" id="109" class="st0" d="M3754.8,1909c-1.4-6.7-2.3-13.1-4.2-19c-1.5-4.6-4-9-7-12.9c-1.5-2-4.9-3.5-7.4-3.6
		c-11.3-0.4-22.7-1-33.5,3.6c-2,0.9-4.4,1.1-6.5,1.6c0-39.4,0-78.3,0-118c-8.5-1.9-14.2-9.4-21.4-14.9c-7.4-5.7-14.6-12.2-25-13.4
		c-4.8-0.6-9.3-4.5-14-6.8c-2.3-1.1-4.7-2.1-7.1-3c-3.7-1.3-7.7-2.1-11.3-3.7c-8.5-3.9-16.2-8.4-22-16.4
		c-6.5-9.1-14.9-16.9-23.1-25.9c4.9-4.3,6.9-9.4,7.2-15.6c0.1-3.2,2.6-6.6,4.6-9.5c2.7-4,6-7.7,9-11.6c-1.2-1.1-1.7-1.9-2.1-1.8
		c-11.1,1.6-12.2,1.1-18.1-8.9c-4-6.8-8.2-13.5-11.8-20.5c-1.9-3.7-2.6-8.1-3.8-12.2c-0.4-1.3-0.1-2.8-0.7-3.9
		c-9.4-17-18.7-34.1-28.7-50.9c-2.2-3.7-6.5-6.6-10.5-8.7c-3.8-1.9-6.3-4.3-8.4-7.9c-3-5.4-6.7-10.4-11.4-17.4c15.4,0,28.8,0,41.6,0
		c5.7-10.3,7.1-20,5-30.1c-1-4.7,1.2-7.8,4.1-10.5c5.9-5.2,7.9-11.7,5.8-18.9c-2.1-7.3,0.1-13.2,4-18.7c2.9-4.2,4.3-8.4,4.8-13.6
		c0.8-8.7,3.4-17.3,5.6-27.4c5.9,0.4,12.4,1.2,18.9,1.1c14.7-0.2,26.6,7.3,38.8,13.8c11.7,6.3,23,13.5,36.5,15.4
		c0.7,0.1,1.4,0.2,1.9,0.5c15.1,8.5,32.2,11.6,48.2,17.7c5.8,2.2,11.5,4.9,18.5,8c-0.4-5.2-0.8-9.7-1.2-15.1
		c8.8-2.2,17.7-4.7,26.7-6.4c5-1,7.6-3,8.2-8.2c0.9-6.9,2-13.8,4-20.5c1.8-6.3,4.6-12.3,7.4-18.2c3.4-7.1,5.7-14.1,2.9-22.1
		c-0.6-1.8-0.4-4,0-5.9c2.2-10.6,4.6-21.2,7.1-32.3c4.1,2.5,7.9,4.9,11.7,7.3c13.9,9,28.7,9,43.8,4.4c7.6-2.3,15-5.3,23.2-4.9
		c3.2,0.2,6.5-1,10.6-1.7c16.4,13.1,33.2,26.5,50.1,40c39.5,31.6,79.1,63.1,118.4,94.8c4.5,3.6,8.9,5.1,14.5,5.1
		c39,0.3,77.9,0.8,116.9,1.2c9.8,0.1,15.1,5.3,15.5,14.9c0.7,16.2-0.9,32-6.6,47.3c-0.7,1.9-2,3.8-1.8,5.6
		c1.3,13.3-5.1,24.6-9.4,36.3c-1.6,4.2-1.5,7.3,0.7,11c18.1,30.3,36,60.7,54.2,90.9c1.9,3.2,5.1,6.5,8.5,7.8
		c7.2,2.9,14.8,5,22.4,6.5c4.8,0.9,9.8-0.3,14.3,2.9c1.4,1,5.5,0.8,6.5-0.4c4.5-5.8,10.3-3.2,15.6-2.9c26.5,1.3,53.1,2.7,79.6,4.2
		c0.6,0,1.2,0.5,2.4,0.9c0.7,7.8,4.3,14.7,10,20.6c9.5,9.8,10.1,24.8,2,35.2c-6.1,7.8-11.9,15.8-17.6,23.9
		c-4.3,6.2-1.4,11.5,6.4,11.8c2,0.1,4,0.3,6,0c10.3-1.7,18.1,5.1,27.1,8c2.1,0.7,4.8,3.6,4.9,5.7c0.5,7.1,3.7,14.4,0,21.5
		c-1.9,3.7-1.2,6.9,1.2,10.2c5.4,7.5,10.7,15.2,16.1,22.8c3.6,5.2,7.6,10.1,10.8,15.5c2.8,4.8,2.9,10,0,15.2
		c-6.4,11.8-6,16.2,2.1,27.4c-5.1,7.5-8.9,15.8-16.4,22c-6.4,5.4-10.2,12.9-8.1,22.2c0.5,2-0.5,4.6-1.6,6.6
		c-9.5,17.1-18.9,34.3-31.6,49.3c-4.1,4.9-10.7,7.7-16.4,11.2c-8.3,5.2-8.5,5.5-6.7,15.2c0.2,1,0.3,2,0.5,2.9
		c0.9,4.5,3.1,9.3,2.4,13.5c-0.6,3.6-5.3,6.2-7.3,9.7c-2.7,4.8-5.8,9.5-4.7,15.8c1.1,6.5-4.1,10.8-7.1,15.9c-3.7,6.2-9.3,5.5-15,5.2
		c-1,0-2.2-0.6-3-0.2c-6.3,2.9-11.4,0.1-16.9-3.9c-11,8-22,16-32.9,24c-24.1,17.8-48.3,35.4-72.3,53.4c-4.4,3.3-8.5,4.6-13.7,2.3
		c-2.4-1.1-5.3-1.1-7.6-2.3c-8.5-4.6-17.5-5.7-27-5.3c-3.5,0.1-7.1-1.1-10.7-1.8c-4.2-0.8-8.3-2.2-12.5-2.6
		c-6.7-0.7-8.6-1.6-9.6-7.7c-0.8-5.2-2.7-9.3-6.7-12.8c-1.7-1.5-2.3-4.6-2.7-7c-0.8-5.2-3.8-7.5-8.7-7.8c-1.3-0.1-2.7,0-4,0
		c-31.7-0.2-63.3-1-95-0.5c-32.1,0.5-63.6-3.8-95.2-8.8c-41.3-6.6-82.7-12.7-124.1-19.1c-25.6-3.9-51.2-7.8-77.3-11.8
		c0-3.7-0.8-7.2,0.1-10.1c2.7-8.9,5.3-17.9,9.3-26.3c6.3-13.2,10.1-26.3,8-41.2c-0.9-6.2,1-13.2,2.9-19.4c2.5-8.2,2.5-14.9-3.6-22.1
		c-7-8.4-7.4-21.3,0.7-30.2C3740,1925.8,3747.2,1917.6,3754.8,1909z"/>
	<path onclick="modal(this.id);" id="111" class="st0" d="M2988.6,1800.8c24.2,1.6,48.6,3.2,74.5,4.9c-1.4,4.8-2.3,8.9-3.7,12.7
		c-2.7,7.4-6.7,14.5-8.2,22.2c-1.1,5.4,1,11.5,1.8,17.8c5.9,0.4,10.8,0.9,15.8,0.9c22.7,0.1,45.3,0.3,68-0.1
		c7.8-0.1,12.3,3.4,16.3,9.2c2.9,4.3,6.5,8.1,9.7,12.3c3.6,4.7,7.8,9.3,5,16.2c-0.7,1.7-0.3,4-0.4,5.9c-0.9,12.1,2.5,16.2,14.2,17.8
		c8.8,1.2,17.7,2.6,26.5,3.9c5,0.7,9.1-0.4,12.4-4.6c2.2-2.8,4.8-5.5,7.5-7.9c4.3-3.8,8.9-5.7,15.3-5c8.4,0.9,17.1-1,25.6,1.2
		c8.2,2.1,17.3,2.2,23.7,8.2c9.1,8.5,20.3,9.1,31.4,10.3c27.7,3.1,55.5,5.9,83.2,9c21.8,2.4,43.6,4.7,65.2,7.8
		c14.5,2,28.9,4.5,43.6,2.8c8.2-9.1,16.2-18.3,24.7-27.2c2.6-2.7,6.4-6.1,9.6-6c9.1,0.3,16.3-2.2,21.7-10.8
		c15.2,5.6,29.8,11.6,44.9,16.4c7.8,2.5,16.2,2.9,24.4,4c3.9,0.6,8,0.5,11.9,1c8.1,1,8.5,1.2,11.9-6.4c4.7-10.7,12.1-19.5,20.9-26.3
		c14.7-11.4,31.9-16.8,50.7-14c5.8,0.9,8.5,6.3,10,11.3c2,6.6,3.1,13.6,4.5,20c-7.1,8.2-13.6,16.1-20.6,23.5
		c-9.1,9.7-9.3,24.8,0.5,36.1c4,4.6,4.3,9.3,2.5,14.8c-3.1,9.8-4.4,19.5-3.5,30.1c0.7,8.7-2.9,18.1-5.6,26.8
		c-3.4,10.7-8,21.1-11.8,31.7c-1,2.7-1.1,5.8-1.4,8.8c-0.4,4.1,1.8,6,5.7,6.6c27.6,4.1,55.2,8.2,82.7,12.4
		c32.2,4.9,64.3,9.9,96.5,14.8c20,3.1,40,6.2,60,9.4c2.5,0.4,4.9,1.1,8,1.8c-3.2,4.4-5.1,8.6-8.3,11.2
		c-10.5,8.3-14.2,21.2-22.2,31.1c-4.9,6.1-4,11.4,0.3,17c2.4,3.1,4.6,6.4,7.3,10.3c-2.9,3.1-5.3,6.3-8.3,8.7
		c-33.8,27.5-67.7,54.9-101.6,82.3c-25.4,20.5-50.8,40.8-76.1,61.4c-4.2,3.4-8.4,4.5-13.8,3.8c-33.2-4.6-66.4-9-99.7-13.3
		c-32.3-4.2-64.5-8.3-96.8-12.4c-5.9-0.8-11.8-1.8-17.8-2.3c-3.3-0.3-6.8-0.4-9.9,0.6c-5.1,1.6-9.7,1.8-13-1.7
		c-9,2.4-15.1,7.2-20.9,12.9c-2.7,2.6-6.4,5.2-9.9,5.7c-10.6,1.7-19.9,4.9-24.9,17.5c-5.1-6.2-9.8-10.8-13.3-16.3
		c-3.4-5.3-7.6-9.1-13.4-11.3c-13.6-5.2-26.3-12.8-41.2-14.4c-14.7-1.6-29-1.6-43.3,3c-24.4,7.8-48.9,15.1-73.3,22.9
		c-4.2,1.4-7.5,1.5-11.1-1.4c-3.3-2.7-7.1-5-10.6-7.5c-3.6-2.6-7.2-3.3-11.8-3.7c-11.4-1-23.6,1.2-33.9-6.6c-4-3-9.1-4.2-14-1.4
		c-4.4,2.5-8.5,1.2-12.4-0.6c-8.2-3.7-15.7-5.8-24.3,0.1c-6.1,4.1-13.7,2.3-20.1-1.1c-8.1-4.4-16.9-5.8-25.8-7
		c-4.1-0.6-8.1-2.3-11.6-3.4c-5.1,5.4-10.6,10.1-14.8,15.9c-2.7,3.8-4,8.9-5.1,13.7c-1.1,5.3-1.9,10-7.9,12.6
		c-3.7,1.6-6.1,6-9.5,8.7c-4.9,3.9-10.3,7.1-15.2,10.9c-3,2.4-6.7,4.9-8.1,8.2c-2.6,5.9-5.8,10.2-12.3,11.8
		c-2.4,0.6-5.4,2.4-6.3,4.5c-3.3,7.6-9.6,11.9-15.7,16.7c-5.5,4.3-10.1,9.7-9.2,17.8c0.2,1.8-0.6,4-1.4,5.7
		c-3.3,7.2-6.8,14.4-10.7,22.6c-8.2-4.2-16.2-8.3-24.3-12.3c-3.3-1.6-6.6-3.8-10.1-4.1c-6.1-0.5-9.4-4-12.5-8.6
		c-2.8-4.1-5.9-8.1-9-12c-7.8-9.6-13.7-11-25.8-6.8c-5.7,2-10.9,1.6-15.3-3.5c-5.2-6-10.9-11.7-16.4-17.4c-1.6-1.7-3.3-4.2-5.2-4.5
		c-13.1-1.9-20.9-13.7-33-17.3c-4.9-1.5-9.9-2.9-15.7-4.6c4-9.4,7.8-17.8,11.4-26.3c3.3-8,6.6-15.9,6.4-24.9
		c-0.1-5.2,2.7-8.1,8.1-9.8c15.4-4.7,14.6-5.1,16.1-21.1c0.9-9.5-3.8-16.6-6.6-24.7c-1.2-3.4-2.9-6.6-4.1-9.3c0.8-1.5,1-2.2,1.4-2.6
		c7.3-7.2,8-12.7,0.7-19.1c-6.8-5.9-7.4-13.4-9.1-22.1c4.6,1.4,8.3,3.5,11.8,3.3c6.9-0.5,12.3-3.7,15.9-10.4c4-7.5,6.8-16,15-20.5
		c6.4-3.5,12.6-7.5,18.9-11.1c9.1-5.2,10.6-8,8.8-18.6c-0.8-4.5-1.7-9.1-3.1-13.5c-3.2-9.6-1.9-14.7,6.5-20.5
		c8.6-5.9,16.6-12.3,21.7-21.7c1.1-2,1.9-4.2,2.5-6.4c1.8-6,3.4-12,5.2-18c1.9-6,3.8-11.9,6-17.8c1.2-3.3,2.4-7,4.7-9.4
		c5.6-5.8,8.9-12.3,9.7-20.3c0.5-4.6,1.4-9.2,2.4-13.7c1-4.3,2.9-8,7.9-9.3c7.5-1.9,11.2-7.9,14.5-14.1c0.9-1.7,1.4-3.7,1.9-5.7
		c3.1-12.8,10.8-21,23.9-23.8c0.3-0.1,0.6-0.2,0.9-0.3c20.5-7.2,20.7-7.2,18.6-28.1c-0.4-3.6-2.6-7.6-5.1-10.5
		c-7.5-8.6-12.5-17.7-10.9-29.8c0.5-3.5-1.2-7.9-3.1-11.1c-4.2-7-7.1-14.6-13.1-20.9c-5.3-5.5-6.9-13.3-4.6-22.3
		C2988.6,1823,2987.9,1812.4,2988.6,1800.8z"/>
	<path onclick="modal(this.id);" id="112" class="st0" d="M4755.5,2529.4c-4.4,4.8-10.2,6.6-11.3,13.3c-0.3,1.8-5.3,3.4-8.4,4.2
		c-34.8,8.8-69.7,17.5-104.5,26.2c-3.5,0.9-7.3,1.4-10.6,2.8c-1.9,0.8-4.6,3.1-4.5,4.6c0.2,2.2,2,5.1,4,6.1
		c4.4,2.2,9.4,3.4,14.1,5.1c1.5,0.5,2.8,1.4,5.4,2.7c-13.3,12.2-26,23.8-39.1,35.8c-36.6-23.3-72.5-46-109.3-69.4
		c3.4-5.9,6.4-11.2,9.9-17.4c3.8,2,7,3.4,9.9,5.3c10,6.5,20.1,5.6,30.2,0.6c2.5-1.2,4.8-3.6,6.2-6c3.5-6,8.4-10.1,14.8-12.7
		c9.3-3.7,9.7-4.7,7.6-14c-0.1-0.3-0.3-0.6-0.3-0.9c-0.2-8.7-1-17.2-4.4-25.6c-1.6-4,0.4-8.9,4-12.7c2.6-2.8,5.2-6.5,5.8-10.1
		c1.3-8,5.5-13.4,12.3-17c6.7-3.6,8.3-9,10.1-16.5c2.5-10.7-3.9-19.2-2.6-30.1c-4.1,0-7.7-0.1-11.2,0c-7.3,0.3-14.6,1.1-21.9,1.2
		c-57.3,0.3-114.6,0.4-171.9,0.7c-45.3,0.3-90.6,0.9-135.8,1.3c-36.6,0.3-73.3,0.4-109.9,0.7c-27.3,0.3-54.6,0.9-81.8,1.3
		c-12.2,0.2-14.1,0.1-14.4-12.1c-0.4-15.4-9.9-23-20.1-30.9c-7.4-5.7-14.9-11.2-17.2-21.1c-0.1-0.6-0.5-1.3-1-1.7
		c-7.3-7.1-7.7-15-5.5-24.7c1.4-6.1-0.3-13.2-1.8-19.6c-2.3-9.8-3.1-18.9,3.7-27.4c2.8-3.5,3.4-7.2,0.4-11.8
		c-3.7-5.7-5.1-12.7-10-18.2c-3-3.4-4.5-9-0.9-13.8c0.2-0.3,0.4-0.6,0.5-0.9c1.9-10.1,8.1-16.9,15.2-24.2
		c5.8-5.9,10.3-14.9,10.2-24.9c-0.1-12.2,0.7-24.5,1.5-36.7c0.1-2,1.7-4.6,3.3-5.7c8.7-5.5,17.6-10.4,28.7-9.7
		c16.3,1,32.6,1.1,48.8,1.4c10.1,0.2,10,0.1,13.2,9.8c0.6,1.8,1.8,3.7,3.3,4.8c3.5,2.6,4.7,5.8,5.1,10.2c0.7,6.5,4.8,9.5,11.5,10
		c0.7,0,1.4-0.2,2,0c15.4,6.7,33,2.6,48.2,9.9c0.3,0.1,0.6,0.3,0.9,0.4c10.1,4.4,18.4,3.6,28-3.8c30.8-23.9,62.5-46.4,94-69.4
		c1.8-1.4,3.9-2.5,5.8-3.7c9.5,8.2,20.5,4.9,29.9,2.4c9.3-2.5,14.5-12.6,14.5-22c0-9.5,3.9-15.6,10.5-21c0.8-0.6,1.4-1.3,2.8-2.6
		c-0.7-3.1-1.7-6.6-2.3-10.1c-0.9-4.5-2-9.1-2.1-13.7c-0.1-2.2,1.8-4.6,3.1-6.7c0.7-1,2.2-1.5,3.4-2.1c15.9-7.4,24.6-21.4,33.2-35.6
		c4.5-7.4,8.4-15,13.1-22.3c2.6-4.1,4.2-8.3,3.6-13.1c-0.9-7.2,2.3-12.7,7.1-17.8c4.7-5,9.1-10.5,12.9-16.3
		c4.9-7.4,11.6-11.3,20.8-13.6c1.2,7.6,2.4,14.4,0,21.7c-2.9,9-0.9,11.1,8.6,11.5c10.9,0.5,21.9,1.3,32.8,1.8c3.9,0.2,7.9,0,13,0
		c0.3-11.6,1-22.4,0.7-33.3c-0.3-8.2,2.2-14.3,7.6-20.7c5.3-6.2,12-10,17.7-15.1c9.7-8.8,21.8-14.9,29.3-26.2
		c2.4-3.6,5.3-6.9,8.1-10.1c3.5-4,7.7-5.8,13.3-4.5c4.7,1.1,9.7,1.1,14.7,1.6c2.8-7.3,6.3-13.3,2.3-20.6c-0.9-1.7-1-5.1,0.2-6.5
		c3.5-4.4,2.6-9.4,3-14.3c0.5-6.6,1.6-13.1,2.2-19.7c1-10.6,1.7-21.2,2.6-32.3c0.9-0.1,2.3-0.6,3.3-0.2c6.9,2.8,12.5,2.6,17-4.6
		c1.5-2.3,3.7-5.3,8-4.8c2.2,0.2,5.3-1.7,6.9-3.5c8.4-9.6,20.6-13.3,30.7-20.2c3.3-2.2,7.2-3.7,10.2-6.2c6.3-5.1,13-6.9,21.2-5.5
		c5.8,1,10.9,2,14.7,6.9c4.2,5.5,10.2,8.2,17,9.6c8,1.7,14.1,5.9,15.5,15.1c-2.3,1.1-4.6,2.2-7.1,3.4c-1.4,4-1.2,7.7,1.8,11.1
		c4.1,4.6,8.2,9.1,12.1,13.8c2.1,2.5,3.9,5.2,6.1,7.7c1.7,2,3.6,5.3,5.6,5.4c11.2,0.8,15.4,10.5,22.1,16.8c2.7,2.5,5.1,5.2,7.7,7.9
		c3.5,3.7,7.9,4.6,12.8,4.2c3.5-0.3,7-0.1,11.4-0.1c0.8,10.2,1.5,19.7,2.3,29.9c7.3,2.8,10.6,9.1,12.3,17
		c2.8,12.6,5.6,25.2,9.2,37.6c2.2,7.6,0.7,14.9,0.9,22.4c0.1,5.5,1,11.1,1.9,16.5c1.5,9.8,4.5,19.6,4.5,29.4c0,6.8-2.3,14.6-11.2,17
		c-2.8,0.7-5.3,2.4-9,4.1c17.4,26.8,34.3,53,51.2,79c-9.7,9.9-9.8,12.5-2.7,24.5c3.4,5.7,6,12.1,3.8,18.8c-0.9,2.7-4,5.1-6.7,6.7
		c-8,5-9.1,7.2-6.4,16.2c0.9,2.8,2,5.6,2.2,9.2c-1.3-1.5-2.7-2.8-3.7-4.5c-2.9-4.8-5.5-9.9-8.6-14.6c-2.6-3.9-8.6-5.4-12.4-3.7
		c-4.6,2.1-6.1,5.7-4.7,10.7c0.6,2.1,0.5,4.4,0.8,7.9c-2.5-2.1-4.3-3.1-5.5-4.6c-4.6-5.4-7.9-6.5-13.5-4.1
		c-4.9,2.1-8.1,8.2-6.8,14.2c0.9,4.5,2.4,9,3.4,13.5c1,4.2-0.5,7.1-4.9,8.3c-3.2,0.9-6.4,2.5-9.6,2.7c-13.7,0.6-18.6,11.4-24.1,20.9
		c-3.7,6.5-4.2,14,0.6,20.8c2.8,4,3,7.8-0.8,11.6c-6.5,6.6-7.3,15.4-8.1,23.9c-0.2,2.3,1.3,5,2.5,7.3c1.4,2.9,3.3,5.6,5.6,9.2
		c-3.8,2.2-6.8,4.1-10,5.6c-4.5,2.1-7.6,5.6-6.1,10.2c3.9,11.2-1.9,20.8-3.8,31c-1.7,9.1-3.9,18.1-6.2,28.2c-0.3,0.1-1.7,1-3.2,1.4
		c-4.7,1.1-5.4,3.9-4.5,8.2c1.7,8.4,0.8,9.2-8.3,8c-5.9-0.8-7.6,0.6-8.2,6.9c-0.7,8.3-1.6,16.5-2,24.8c-0.1,2.8,0.8,5.9,2.2,8.4
		c4.2,7.7,3.6,15.2,0.2,23c-4.1,9.2-3.6,10,6.8,11.6c0.6,0.1,1.1,0.6,2.3,1.2c-1.1,12.3-4,25.3,6.4,37.1c-3.1,4.6-6.4,9.5-9.6,14.4
		c-4.3,6.5-6.3,13.3-1.3,20.4c3.6,5.2,4,10.1,0.2,15.6c-3.3,4.8-3.6,10.2-2.3,16.2C4755.6,2516.8,4755.1,2523.6,4755.5,2529.4z"/>
	<path onclick="modal(this.id);" id="105" class="st0" d="M3567.4,980.4c2.2-1.3,4.3-2.6,6.5-3.8c2.1-1,4.7-1.4,6.3-2.8c5.3-4.8,10.8-8.5,19.9-6.6
		c-2.3-3.9-3.6-6.4-5.3-8.7c-26-35.8-52.1-71.6-78.1-107.4c-5.1-7-11.9-13.4-14.6-21.3c-2.5-7.5-0.7-16.5-0.8-24.8
		c0-11.7-0.1-23.3,0-35c0.1-9.5,5.4-15.1,14.9-17.6c7.8-2,13.9-6.3,17.6-14.5c2.9-6.5,8.1-12,12.5-17.8c2.2-2.9,4.9-5.5,7.8-7.8
		c5.7-4.5,8.3-10.5,8.3-17.3c0-13.2,6.2-24.2,11.6-35.7c3.1-6.5,5-13.6,7.8-20.3c2.6-6.3-0.9-9.9-5.3-13.5c-2.1-1.7-4.7-3.8-5.4-6.3
		c-2.3-8-7.1-13.3-14.7-16.4c-2-0.8-3.6-2.4-6.8-4.6c10.5-1.2,19.1-2.1,27.8-3.1c2.6-0.3,5.4-0.5,7.9-1.3c4.8-1.5,8.9-0.7,13.4,1.4
		c11.7,5.5,28.5,1.7,37.1-8.4c5.4-6.4,10.4-12.2,19.8-13.7c4.4-0.7,9.1-5.6,11.8-9.7c3.6-5.4,5.3-12.1,8.1-18.1
		c1.7-3.6,3.7-7.1,6-10.2c2.7-3.8,5.9-5.6,11.1-3.1c6.5,3.2,13.4,5.3,20.2,7.9c4.7,1.8,9.4,3.1,14.3,0.6c6.6-3.2,13.4-5.8,19.8-9.2
		c5.2-2.8,9.9-6.5,14.9-9.7c3-2,6-4.1,9.3-5.6c5.4-2.4,9.9-5.4,11.8-11.1c6-1.4,11.7-2.9,17.5-4.1c15.8-3.2,31.4-3.9,47.2,1.1
		c20.9,6.7,42.1,12.5,63.3,18.1c4.9,1.3,10.6,0.8,15.8,0.1c17.1-2.3,34.1-5.3,51.2-7.5c6-0.8,12.2-1.4,17.2,4.7
		c2.6,3.2,7.8,4.7,12.1,6.1c4.8,1.5,7.8,4.4,7.5,9.2c-1.2,17.3,1.6,35.6-10.5,50.7c-2.9,3.7-2.5,7.3,0.2,10.9
		c1.6,2.2,2.9,4.5,4.5,6.6c9.2,11.1,11.4,24.4,12.3,38.2c0.1,2-0.5,4.4,0.4,5.8c5,7.9,10.4,15.6,15.4,23.4c1.2,1.8,2.3,4,2.4,6.1
		c2.1,27.5,4.1,54.9,6.1,82.4c2.5,33.8,4.8,67.5,7.6,101.3c0.7,8.9,2.6,17.7,4.2,26.6c1.4,7.9,4.8,9.5,11.8,5.7
		c23.4-12.6,46.8-25.4,70.2-38.1c14.9-8.1,29.9-16,44.8-24.1c9.3-5.1,18.7-5.6,27,0.8c5.4,4.2,10.9,4,16.8,4.3
		c13.5,0.5,27.3-0.4,40.3,2.5c11.3,2.5,22.6,3.1,33.8,4.6c7.8,1,15.3,0.2,20.8-4.1c5.5,4.6,10.5,9.3,16,13.1c4.3,3,4.3,6.7,4.5,11.2
		c0.3,6.2,0.7,12.7,2.8,18.4c3.5,9.4,10.9,12.3,20.7,9.1c4.5-1.5,8.1,0.2,11,2.8c6.3,5.4,12.8,5.9,20.2,2.8
		c3.9-1.6,8.4-1.9,12.5-3.4c6.3-2.3,12.4-1.6,18.6-0.1c6.4,1.6,12.9,2.8,20.1,4.4c1,3.3-1.7,6.2-3.8,8.8
		c-10.6,13.4-11.3,28.6-7.9,44.3c2,9.7,5.1,19.1,5.7,29.3c0.3,5.1,3.7,10.9,7.4,14.7c33.5,34.4,67.3,68.4,101.1,102.4
		c7,7.1,14.7,13.4,22,20.2c1.6,1.5,2.9,3.4,3.6,6.4c-3.9-1.8-7.8-4.7-11.8-5.1c-4.3-0.4-8.4,0.3-12.1-2.6c-2.1-1.6-4.9-2.4-6.7-4.3
		c-10.4-10.4-23.7-12.2-37.4-13.7c-7.4-0.8-14.9-3.1-21.6-6.3c-15.1-7.2-31.2-9.1-47.5-9.4c-26.6-0.5-53.3-0.4-79.9-0.8
		c-32.6-0.5-65.2-1.3-97.8-2c-29.3-0.6-58.5-1.3-87.8-2c-5.2-0.1-10.4-0.8-13.6-1.1c-7,10.6-12.9,19.9-19.2,29
		c-1.2,1.8-3.7,3.7-5.7,3.8c-8.1,0.4-15.8,4-24.4,1.2c-6-1.9-13.1-0.8-19.7-0.3c-8.8,0.6-8.7,0.9-11.8-8.2c-10-1-19.4,2.7-28.7,5.7
		c-17.7,5.6-35.1,12.3-52.5,18.6c-7.4,2.7-13.4,2.5-21-2c-8.4-4.9-14.2-11.5-20.4-18.4c-8.1-9.1-18-13.8-30.9-10.9
		c-13.2,3-26.8,4.6-39.9,7.8c-7.7,1.9-14.8,5.8-22.5,8.9c-7.1-5.2-14.6-10-17.3-19.5c-1.3-4.7-5.2-6.6-9.9-7.1
		c-2.3-0.2-4.6-0.6-6.9-0.8c-8.8-1-11.6-3.4-13-12.2c-1.6-10.1-4.8-20.2,0-30.3c0.5-1-0.2-2.6-0.4-4.8c-11.9-3.4-24-6.9-36.1-10.3
		c-50-13.9-99.9-27.8-149.9-41.6c-6.7-1.9-13.5-3.6-20.2-5.5c-1.6-0.4-3.4-1.6-4.8-1.2c-5.3,1.3-10.6,4.6-15.7,4.3
		c-5.3-0.4-10.2-2.2-15.1,1.6c-1.8,1.4-4.5,1.5-6.7,2.2C3568,982.4,3567.7,981.4,3567.4,980.4z"/>
	<path onclick="modal(this.id);" id="106" class="st0" d="M3814.7,1037.4c-6.5,14.8-1.7,27.7,2.2,40.6c1.6,5.4,7.2,5.3,11.6,6.4c2.9,0.7,6.1,0,8.9,1
		c2.6,0.9,6.3,2.9,6.7,5c2.3,11.8,12.7,15.5,20.6,22.6c13.2-9.6,28.7-10.3,44.9-13.6c-1.1,49.7-2.2,99.1-3.3,149.9
		c-10.4-2.9-20.6-4.6-29.7-8.6c-11.1-4.9-21.9-4.3-33.1-2c-3.5,0.7-7.1,1.8-10.7,1.6c-7-0.4-13.1,1.3-19.1,5.6
		c-1.4,5.1,0.4,9.1,5.7,10.7c5.3,1.7,8.4,4.9,9.8,10.2c0.5,1.9,1.3,4.3,2.7,5.2c7,4.7,7,11.5,6.7,18.7c-0.5,11.9-1.1,23.7-1.6,35.6
		c-20.3,3.7-37.4-0.2-51.2-17.1c-1.1,2-1.8,2.8-2,3.7c-2.5,12-4.9,24.1-7.3,36.1c-0.3,1.6-1.2,3.5-0.6,4.8c4.6,10.7-1,19.7-5.6,28.3
		c-2.9,5.5-4.1,11-5.1,16.9c-1.1,6.8-2.8,13.6-4.2,20.4c-12,2.9-23.3,5.5-34.8,8.3c0.3,3.9,0.6,7.4,0.9,11.5
		c-12-4.3-23-8.4-34.2-12.2c-14-4.8-28.1-9.2-42.1-13.9c-2.8-0.9-5.4-2.6-8-4c-11.4-6.1-22.8-12.3-34.3-18.4
		c-1.7-0.9-3.7-1.6-5.6-1.8c-12.1-1.5-24.3-2.8-37-4.2c-0.9,2.6-1.9,4.7-2.2,6.9c-1.5,9.7-2.7,19.5-4.3,29.2
		c-0.4,2.2-1.5,4.5-2.8,6.2c-4.9,6.5-6.8,13.5-5.3,21.5c1.3,7-0.1,13.1-5.8,18c-3.8,3.2-5.1,7.4-4.1,12.6c1.8,8.6,0.4,16.9-3.6,25.3
		c-13,0-25.9,0-39.7,0c-2.7-4.3-5.7-9-8.8-13.7c-2.6-4.1-6.2-7.7-11.3-6.3c-5.5,1.5-10.5,4.9-10.9,11.6c-0.3,4.6-0.1,9.3-0.1,14.3
		c-2.6,1.3-5.1,2.3-7.3,3.7c-11.4,7.1-21.5,5.7-31.8-3c-8.5-7.3-18.1-4.5-24.1,5.3c-1.2,2-2.6,3.9-3.8,5.9
		c-5,8.9-12.7,12.5-22.5,11.2c-5.2-0.7-8.6,1-12.5,4.2c-3.9,3.3-8.9,6.3-13.8,7.1c-13.4,2.1-27,3.1-40.6,4.3
		c-5.3,0.5-10.6,0.1-15.9,0.4c-3.6,0.2-7.2,0.8-10.8,1.3c-7.5,1.1-10.8,5.8-11.2,13c-0.7,13.5-1.3,27-2,40.9
		c-6.4-2.4-13.5-3.7-21.3-1.9c-4.3,1-7.8-4.2-8.4-8.4c-1.5-10.2-9.4-12.4-17.1-14.2c-9.1-2.1-17.9-0.2-25,6.5
		c-1.1,1-1.3,2.9-1.9,4.5c-1.4,3.4-2.7,6.7-4.3,10.6c-16.9,0-33.6,0.3-50.2-0.1c-8.1-0.2-13.2-6.6-16.5-12.7
		c-2.1-3.9-3.9-7.3-7.5-9.8c-4.5-3.1-7.7-6.9-9.1-12.5c-0.9-3.6-3.8-6.7-6.2-10.5c8.2-7.6,10.6-17.4,9.6-28.5
		c-0.5-5.6-0.1-11.3-0.1-17c0-3.9,0.7-7.3,2.8-11.1c2.4-4.5,2.1-10.7,2.1-16.2c0-3.2-1.4-6.5-2.3-9.7c-2.1-7.4-1.8-13.9,0.5-21.9
		c4-14.1,1.6-28.9-6.3-42.2c-2.2-3.7-4.5-7.5-5.7-11.5c-2.4-8.1-2-15.7,5.3-21.7c6.2-5.1,12.2-10.3,12.3-19.5c0-1.8,2.4-4,4.2-5.3
		c5.6-4.1,11.2-8.3,17.3-11.6c2.2-1.2,5.8-0.1,8.6,0.5c8.7,1.8,12.1,0.6,16.7-7c6.9-11.3,7.7-23.8,2.9-35.5
		c-4.7-11.6-4.3-22.5-1.2-34c0.8-3.1,1.4-6.7,0.6-9.7c-2.7-9.6-0.9-18.7,2.7-27.3c3.4-7.9,7.7-15.4,12.5-22.6
		c6-9.1,6.4-10.6,0.8-19.7c-4.7-7.7-9.2-15.5-17.1-20.5c-1.6-1.1-3.3-2.3-5.1-2.9c-7.6-2.7-7.8-2.7-6.9-10.2
		c0.9-7.9,2.1-15.8,3.2-23.7c0.9-6.4,0.4-11.7-6.9-14.6c-3.2-1.2-6.1-4.1-8.4-6.8c-8.1-9.2-15.6-18.9-24-27.8
		c-5.3-5.7-6.1-12.9-10.1-20.8c28-0.7,54.7,0,81.4,0.3c26.7,0.3,53.3,0.1,79.8,0.1c2.8-3.8,5.5-7.4,9-12.1c-2.7-1-4.9-2-7.2-2.6
		c-9.2-2.7-12.5-8.4-9.1-17.2c2.4-6.1,3-11.3-1.9-16.5c-1.7-1.8-2.4-4.6-3.5-6.9c6.8-3.8,71-12.5,92.3-12.6
		c1.9,6.5,10.2,8.3,12.1,15.8c0.8,2.9,4.4,2.6,6.8,0.7c3.7-2.9,7.2-5.9,10.7-8.9c5.1-4.4,15.2-3.4,19.1,2.2c0.8,1.1,1.4,2.3,1.9,3.5
		c4.3,8.6,11.2,12.7,20.8,12.2c1-0.1,2.1-0.2,3,0.1c7.2,2.3,14.1,4.9,22.1,2.8c7.3-1.9,15.1-1.8,22.9-2.6
		c6.6-20.2,25-28.5,39.7-40.5c3.7-3,19.6-2.3,22.6,1.1c6.9,7.8,15.7,7.4,24.7,6.7c1.3-0.1,2.5-0.6,3.6-0.9c6.3,6.6,6.9,6.5,15.1,2.2
		c2.7-1.4,6.4-2,9.3-1.4c3.8,0.8,7.1,1.2,10.4-1.3c4.1-3.2,8.4-2.9,13.2-1.5c45.8,12.9,91.5,25.7,137.3,38.5
		c20.2,5.6,40.4,11.1,60.6,16.8C3810.1,1035.3,3812.1,1036.4,3814.7,1037.4z"/>
	<path onclick="modal(this.id);" id="114" class="st0" d="M4732.8,2891.9c-3.1-6.1-8.7-7.5-14.3-9.4c-3.5-1.2-6.8-4.1-9.2-7c-3.2-4-5.8-5.2-11-3.1
		c-4.2,1.8-9.3,1.4-14.3,2c-1.1-3.3-1.6-5.4-2.5-7.5c-2-4.8-5.7-6.6-10.5-4.9c-7.7,2.6-15.3,4.7-23.4,1.7c-1.3-0.5-3.3,0.3-4.8,0.9
		c-12.2,5.1-24.9,2-37.4,2c-9.3,0-18.5-1.2-27.8-1.8c-15.9-1.1-31.8-2.4-47.7-3.2c-5.1-0.3-10.1,0-11.4-7.4
		c-9.1,7.3-13.7,15.6-18.1,24.4c-9-1.3-8.5-9-10.2-14.4c-11.7-4.7-20.5,1.4-30.1,7.9c-0.7-5.3-1.1-8.7-1.7-13.2
		c-7,0.8-13.6,1.6-21.2,2.5c0.3-4.2,0.6-7.3,1-11.9c-41.6-3.2-83.2-3.3-126-5.3c-1.9,9.8-4.2,19.7-5.4,29.7
		c-0.5,4.1-1.5,6.7-4.7,9.1c-3.7,2.8-7.6,5.6-10.5,9.1c-7.9,9.4-18.2,12.2-29.9,12.9c-32.5,1.9-64.9,4.3-97.4,6.5
		c-30.1,2-60.3,3.9-90.4,6.2c-22.8,1.8-45.6,4.6-68.6,2.7c-5.7-0.5-9.7,3.5-8.5,9.4c2.1,10,0.2,18.8-4,27.8
		c-3.1,6.6,1.3,12.4,4.9,17.3c4.4,5.9,6,12.4,7.4,19.3c1.4,6.7-0.5,12.1-3.5,18.5c-4.3,9.1-10.9,18.2-9.3,29.5
		c0.2,1.5-0.8,3.2-1,4.8c-0.7,9-1.1,17.9,5.1,25.6c6.4,8,4.6,17.3,3.6,26.3c-0.3,2.9-2.1,6.2-1.3,8.7c2.2,6.8,0.3,13.4-0.9,19.6
		c-1.2,6.4,0.6,10.4,5.3,13.6c5.5,3.7,9.5,8.6,11.3,14.8c1.3,4.3,1.4,9,2.1,14.3c-3.2,4.6-9,5.1-14.7,6.4c0,16.8,0,33.2,0,49.7
		c-5.6-0.5-11.3-2.4-15.7-0.8c-3.9,1.4-6.2,6.9-10.7,12.4c-7.2-1.3-16.6-2.7-25.7-5c-2.1-0.5-4.1-4.2-4.9-6.8
		c-2.8-9.5-0.9-19,1.3-28.4c0.7-2.8,2.7-6.2,1.8-8.3c-2.1-4.7-5-9.5-8.8-13c-6.3-5.8-13.4-10.9-20.4-15.8
		c-8.4-5.8-17.2-11.1-26.1-16.8c0-7.1,0.5-14.4-0.1-21.6c-1.2-14.2-8.4-25.1-20.5-32.3c-2.6-1.5-6.9-0.8-10.3-0.1
		c-10.7,2.2-11.5,1.8-14.9-8.5c-0.3-0.9-0.4-2-0.7-2.9c-3.7-10.5-4.7-11.2-15.9-10.3c-5.6,0.5-11.3,0.6-16.8,1.6
		c-3.8,0.7-7.6,2.1-11,4c-7,3.9-13.2,3.3-17-3.4c-4.1-7.4-10.4-11.7-17.4-15.9c-12.3-7.5-25-13.1-39.6-15.4
		c-8.8-1.4-16.4-0.6-24.1,2.9c-1.5,0.7-3,1.3-5.5,2.4c-1.8-4.2-3.3-8.1-5-11.9c-1.2-2.7-2.1-5.7-4.1-7.8c-2.6-2.8-6-4-9.7-0.9
		c-3.1,2.5-6.5,4.7-9.6,7.1c-5,3.9-10.5,3.3-11.4-2.3c-1.6-10-8.4-11.7-16.2-13c-3.6-0.6-7.3-0.9-10.7-2.1
		c-4.6-1.7-9.4-3.3-13.2-6.3c-7.8-6.1-11.9-7-20.5-2.3c-4.7,2.5-9.1,5.6-13.8,7.9c-10.4,5.1-16.2,3.6-23.7-4.8
		c-8.3-9.4-16.7-18.9-25.5-27.9c-7.4-7.5-16.5-9.7-26.4-5.3c-2.9,1.3-5.3,3.8-7.6,6.1c-2,2-3.6,4.6-5.7,7.4
		c-10-6.9-16.7-15-18.4-26.4c-0.8-5.5-3.1-9.4-8.2-11.5c-8.4-3.4-13.3-9.7-15-18.4c-1.2-6.5-3.2-12.1-9.4-15.6
		c-1.6-0.9-2.8-2.8-3.9-4.5c-10.7-17.2-21.3-34.4-31.8-51.7c-2.4-4-3.6-8.6-5.7-12.7c-2.1-4.1-4-8.7-7-12
		c-5.7-6.3-10.5-12.4-9.7-21.9c0.2-2.8-3.2-6.3-5.6-9c-7.7-8.7-12.2-17.9-13.3-30.2c-0.8-9-7.5-17.6-12.2-26.1
		c-1.3-2.3-4.9-3.3-7.4-4.9c-8.7-5.5-16.8-11.4-24.1-19c-6.6-7-16.2-11.3-24.7-16.6c-7-4.3-7.1-4.1-5.9-14.3
		c8.2,3.1,16.7,3.7,22.5,12.2c6,8.8,14.4,15.1,25.5,17.9c11,2.8,20.1,9.7,28,18.2c3.1,3.3,7.1,5.8,10.9,8.4c1.3,0.9,3.5,2.1,4.6,1.5
		c7.8-4,12.4,2,17.8,5.4c6.4,4,12.5,8.5,18.9,12.5c1.6,1,3.7,1.7,5.6,1.7c6.6-0.1,11,3.6,15.5,7.9c16.3,15.3,17.7,14.8,32.5-0.5
		c21.5-22.3,42.8-44.7,64.2-67.1c1.6-1.7,3.2-3.4,5-4.9c4.4-3.7,7.3-3.6,10.6,1.3c5.7,8.3,12.7,9.8,22.4,8.1
		c11.2-2,22.8-1.9,34.2,0.1c2.5,0.5,5.9,1.3,7.5,0.2c5.2-3.6,10.8-3.2,16.4-2.8c7.5,0.6,13.6-1.2,18.3-7.4c2.1-2.8,5.1-5,8.8-8.5
		c4.1,5.6,8.2,9.9,10.8,15.1c1.7,3.4,3.7,5.4,7,6.2c7.1,1.7,14.2,3.3,21.3,4.4c4.1,0.6,7.8,1.2,10,5.3c3.5,6.5,8.1,10.7,16.4,10.1
		c2.9-0.2,6.1,2.9,8.8,5.4c0.6,0.1,1.4,0.4,1.9,0.2c9.6-3.2,17.4,0.2,22.8,7.7c3.8,5.4,8.3,5.3,13.6,5.3c78.7,0,157.3,0,236,0
		c14,0,28,0.1,42,0c58.3-0.6,116.5-1,174.8-2.2c10.1-0.2,20.5-2.7,30-6.1c6.6-2.4,11.9-8.2,18.6-13.1c0-14.4,0-29.3,0-45.3
		c37.3-1.6,73.8,0.7,111-1.5c1.8-13.6,3.8-26.7,5.1-39.8c0.5-4.8-1.1-9.8-1.3-14.7c-0.2-9.4-0.1-18.8-0.1-28.8
		c5.9-3.1,11.6-6.5,15.1-13c1.7-3.2,3-5.8,1.3-9.2c-0.4-0.9-0.7-1.9-0.9-2.9c-2.7-13,7.3-23.5,20.3-20.4c4.4,1.1,8,5.3,12.5,8.4
		c8.5-3.7,17.6-7.5,26.5-11.7c6-2.8,10.5-2.1,16.3,1.7c23.8,16,48,31.2,72.1,46.6c12.9,8.2,25.9,16.3,38.9,24.4
		c1.4,0.9,3.7,1.6,4,2.8c1.9,8.5,9.3,8.5,15.4,10.3c25.3,7.1,50.6,14,75.9,21.1c3.5,1,6.9,2.3,10.7,3.6c1,4.3,2.1,8.5,2.8,12.7
		c1.7,11,5.1,21.3,11.3,30.6c3.8,5.8,4.6,11.7,0,17.5c-4.5,5.6-1.5,12.3-2.9,18.4c-1.5,6.7,2.1,11.1,6.2,15.9
		c6.6,7.6,10.4,17.1,11.4,27c2.5,22.8,4.2,45.6,6,68.4c0.4,4.5-0.7,9.2-0.6,13.7c0.1,2.9,0.8,5.8,1.6,8.6
		C4736.9,2883.9,4737.9,2888,4732.8,2891.9z"/>
	<path onclick="modal(this.id);" id="104" class="st0" d="M3270,485.4c0.1,16.6,15.2,23.3,35.7,12.9c0.7,1,1.6,1.9,2.2,3c5.2,8.6,5.2,8.6,14.7,4.3
		c8.1-3.7,13-2.9,18.1,4.5c3.5,5,7.1,7.6,13.3,4.8c1.5,2.8,2.8,5.1,3.9,7.4c2.7,5.5,6.4,8.8,13.2,8.6c3.1-0.1,6.7,2.3,9.4,4.4
		c3.8,2.8,8,3.4,12.2,4.7c9.1,2.8,19.8,1.4,27.5,9.6c0.3,3.6,0.6,7.5,0.9,11.2c9,4.7,15.3,2.9,22.2-5.8c7-9,7-9,18.5-12
		c4,4,7.1,9.9,14.8,9c1.6-0.2,5.1,5.1,5.6,8.2c1,5.5-0.6,11.7,9.2,12.9c-0.8,0.8-1.6,1.6-2.3,2.5c-2.3,0.5-4.6,1.4-7,1.5
		c-6.2,0.3-12.5-0.1-18.7,0.4c-9.4,0.8-14.7,4.9-16.3,14.5c-1.6,10-8.9,15.3-15.5,21.2c-2.1,1.9-6.3,1.5-9.5,2.3
		c-4.5,1.1-6.1,4.1-3.9,8.1c1.7,3.2,3.8,6.6,6.7,8.6c6.7,4.8,9.3,11.8,11.6,19.1c4.7,14.5,4.8,14.1,20,12.3
		c6.3-0.8,10.4-3.7,14.1-8.2c2.7-3.4,5.8-6.4,8.3-9.9c10.1-13.8,24.9-14.9,40.1-14.8c1.2,0,2.7,0.2,3.7,0.9
		c14.9,10.9,29.5,6,43.9-0.9c3-1.4,5.5-3.8,9-1.5c3.6,2.4,4.1,6,3,9.7c-1.6,5.4-2.9,11-5.5,15.9c-7.2,13.6-13.8,27.2-14.6,43
		c-0.2,3.3-2.3,6.8-4.5,9.5c-5.5,6.7-11.6,12.8-17.2,19.4c-2.3,2.8-4.8,5.9-5.8,9.2c-2.5,8.5-8.5,12.2-16.6,13.5
		c-8.9,1.4-15.9,9.3-15.9,18.5c-0.1,19.3,0.1,38.7-0.1,58c-0.1,4.7,1.7,8.1,4.4,11.7c29.3,40,58.5,80.1,87.7,120.2
		c0.8,1.1,1.4,2.2,2.7,4.3c-9.3,5-18.4,9.8-27.5,14.7c-7.2,3.9-15,3.4-22.4,1.6c-3.4-0.9-6.1-4.5-9.9-7.5c-1.2,0-3.7,0.6-5.8-0.1
		c-10.4-3.5-18.6,0.1-26.3,6.8c-7.8,6.8-16.4,12.6-23.7,19.7c-3.9,3.8-5.8,9.5-9,14.9c-8.7,1-17.9,2.3-27.1,3
		c-2.8,0.2-5.7-1.1-8.6-1.6c-3.5-0.7-7.1-2.2-10.6-2c-8.5,0.4-14.5-3.6-17.3-10.9c-3.4-8.8-10.5-9.4-17.8-9.6
		c-2.5-0.1-5.3,2.2-7.5,3.9c-3.9,3-7.5,6.4-11.3,9.7c-5.4-6.6-10.2-12.4-15.6-19.1c-12.5,1.3-26,2.7-39.5,4.3
		c-14.8,1.7-29.6,3.9-44.5,5.5c-13.6,1.5-15.4,4.7-7.8,16c2.4,3.5,3.6,6.4,2,10.9c-5,14.2-2.3,19.1,12.3,24.1
		c-1.9,2.7-3.8,5.3-6.2,8.7c-52.7-0.7-105.9-1.3-158.4-2c-4.6-5.6-9.6-10.3-12.8-15.9c-3.8-6.5-7-13.7-8.7-21
		c-1.8-8.2-6.2-13.2-13.5-15.7c-20-7-40.7-10.6-61.6-5.3c-15.1,3.8-29.7,9.6-44.4,14.7c-6.9,2.3-13.3,6.3-21.2,5.2
		c-2.7-6.8-4.8-13.7-8.1-20.1c-1.9-3.6-5.5-6.4-8.4-9.5c-1.6-1.7-4-2.8-4.9-4.7c-3.9-7.6-11.1-11.2-17.7-15.6
		c-5.6-3.7-7.2-3.4-11.5,2c-2,2.6-3.8,5.4-6,8.5c-4.6-3.7-9.3-6-13.6,1c-10.5-6.4-17.8-15.4-25.8-23.7c-3.4-3.6-7.2-6.9-11.1-9.9
		c-1.7-1.3-4.2-1.6-6.3-2.3c-2.6-0.9-5.3-1.6-7.9-2.6c-1.9-0.7-3.7-2.6-5.4-2.4c-11.2,1.4-14.1-8.4-19.7-14.4
		c-1.3-1.4-1.4-4.3-1.6-6.5c-1-8.9-3.1-12-11.4-14.1c-4.9-1.3-8.1-4-10.8-8c-3-4.4-6.2-8.6-9.8-12.5c-9-9.6-12.9-20.6-11.5-33.7
		c0.5-5,0.1-10.2,0.1-15.3c-0.9-0.4-1.7-0.8-2.6-1.2c1.9-1.3,3.8-2.7,5.7-3.9c5-3.2,7.7-8.1,6.6-13.6c-2-10.6,4.3-16.9,10.4-23.4
		c9.8-10.6,19.8-21.1,30.2-31c5.1-4.9,11-8.8,12.5-16.2c1.1-5.5,2.5-11.2,2.3-16.7c-0.3-7.9,4.3-12.7,9.6-16.4
		c7.2-5.2,15.3-9.2,23-13.7c4.8-2.8,9.2-3.3,13.6,1.1c6.9,6.8,14.2,6.8,22.5,1.6c10-6.3,21.3-10.7,30.9-17.6
		c14.6-10.5,17.2-27,6.8-41.9c-6.4-9.3-10.2-18.6-7.5-29.8c0.5-1.9,0.6-4.2,1.7-5.6c10.1-11.7,10.1-26.3,11.6-40.4
		c1.2-11.9,2.3-23.8,3.8-35.6c1.2-8.8,5.7-12.1,14.6-11.5c3.6,0.2,7.2,1,10.8,1.5c6.6,0.8,13.2,2.3,19.1-2.3
		c0.5-0.4,1.2-0.6,1.8-0.7c4.9-0.3,10.2,0.5,14.5-1.2c4-1.6,6.8-6,10.8-9.8c4,4.3,8.2,8,11.4,12.5c4.9,6.8,11.3,10.2,19.5,10
		c7.4-0.2,14.4,0.1,21.1,4.2c2.4,1.5,6.6,1.6,9.4,0.6c8.5-3,16.7-0.8,24.5,1.2c3.7,0.9,7.3,5.6,9.3,9.5c3.1,6.1,6.9,9.5,14,8.5
		c10.1-1.4,18.9,3,27.5,7.2c7.4,3.6,13.5,2.5,19.3-2.5c6.3-5.4,12.4-11,18.6-16.5c0.7-0.7,1.7-1.4,1.9-2.3
		c2.8-10.6,10.7-14.5,20.5-17.5c7.7-2.4,11.3-9.7,13.8-17.2c2-6,4.1-12.1,12.2-13.6c2.3,2.5,4.6,5.3,7.1,7.8
		c5.6,5.7,7.2,5.8,13.7,1.5C3259.2,492.9,3264.2,489.3,3270,485.4z"/>
	<path onclick="modal(this.id);" id="115" class="st0" d="M4257.9,3522.9c-9-11.7-11-11.9-23.8-3.2c-7.3-3.7-15.3-7.6-23.2-11.7c-1.8-0.9-3.3-2.9-5-3
		c-9.2-0.7-13.2-7.9-18.5-13.7c-8.3-9-16.7-18.1-24.8-27.3c-1.7-1.9-2.8-4.3-3.9-6.6c-4.7-10.6-8.4-21.7-19.5-28
		c-2.6-1.4-3.8-5.2-5.7-7.9c-4.6-6.4-8.7-11.5-17.9-13.7c-26.8-6.3-53-15.1-79.4-23c-0.3-0.1-0.4-0.5-0.7-0.7c0-5.9,0-11.8,0-17.5
		c9.3-3.6,11.9-8.2,10.1-17.5c-1.8-9.4-3.4-18.9-10-26.7c-1.2-1.4-0.9-4.2-0.7-6.4c0.6-6.7,1.5-13.3,2.2-19.8
		c3.2,4.1,6.5,9,10.5,13.4c1.5,1.7,4.4,2.1,6.7,3.1c0.9-2.6,1.9-5.2,2.6-7.9c0.2-0.8-0.6-1.9-0.9-2.8c-3.6-9.1-6.6-18.2-8.1-28.2
		c-1.2-8-7.6-16.8-14.2-21.9c-7.1-5.5-13.2-11.9-20-17.7c-6.6-5.5-8.7-11.5-8.3-19.8c0.6-11.6,0.2-23.3,0.2-35.4
		c3.3-1.4,7-2.8,10.4-4.6c3.7-2,6.3-4.5,3.9-9.6c-1.9-4.1-2.1-8.9-3.4-13.3c-1.6-5.2-4.7-9.5-9.6-12.3c-5-2.8-6.2-6.8-5.6-12.5
		c0.8-7.1,3.7-14.3,0.4-21.5c-0.2-0.5-0.1-1.5,0.3-1.9c5.3-6.7,0.7-14.7,2.6-21.9c0.6-2.2-1.5-5.7-3.3-7.9c-6-7.2-6.7-15.4-6.5-24.3
		c0.4-14.9,5-28.3,13.1-40.6c1.2-1.8,1.7-4.4,1.5-6.6c-0.6-10-1.9-19.7-8.3-28.2c-4.7-6.2-7.5-12.6-2.6-21
		c3.6-6.2,3.9-13.9,2.2-21.4c-1.2-5.3,0.6-7.3,5.7-8c2-0.2,4-0.2,6-0.1c19.9,1.7,39.7-1.1,59.5-2.3c30.8-1.9,61.6-4.3,92.4-6.4
		c28.5-2,57-4,85.4-6c3-0.2,6-1.5,8.8-1.2c15.5,1.9,27.6-4.3,37.9-15.2c2-2.2,4.4-4.1,6.7-6c4.4-3.6,7.4-7.1,7.3-13.9
		c-0.1-8,2.9-16.1,4.8-25.2c39.9,1.5,79.3,3,119.4,4.4c-0.2,2.1-0.7,4-0.5,5.8c0.6,5.5,4.7,8,11,6.8c2.3-0.4,4.5-1.1,6.8-1.4
		c1.3-0.2,2.6,0.2,3.2,0.2c1.4,3.6,1.8,7.8,4,9.4c3.5,2.5,8,0.9,10.6-2.6c4.8-6.4,11.7-2.2,18.1-4.6c0.7,8.4,3.9,14.8,13.2,17.4
		c4.8-7.4,9.8-15.1,14.2-21.8c5,1.5,9.1,3.5,13.2,3.7c28.5,1.8,57,3.2,85.6,4.8c6.9,0.4,13.8,1.3,21.2,2
		c9.7,22.8,19.4,45.7,29.3,69.2c-4.9,10.9-10,22.1-15,33.3c-1.5,3.4-3.7,5.1-7.5,5.5c-7.4,0.7-14.2,2.9-20.4,7.3
		c-2,1.5-4.9,1.9-7.5,2.4c-11.9,2.2-14.8,3.8-21.3,12.5c-8.5-4.3-15.6,1-22.9,3.6c-3.5,1.3-6.4,4.3-9.8,6.1c-7.6,4-9.2,7.6-7.4,16.1
		c1.7,7.8,2.6,15.7,4.2,23.5c3.1,14.7,11.8,26.3,21.6,37.2c3.4,3.8,7.6,5,12.6,4.6c7.9-0.7,15.4-0.1,20.2,7.7
		c0.5,0.8,1.6,1.5,2.5,1.6c10.7,1.2,17.6,10.1,27.1,13.7c2.7,1,4.9,3.3,7.4,4.9c4.2,2.7,8.4,5.2,12.5,7.9c4,2.6,8,5.4,12.4,8.3
		c-6.1,9.9-11.4,18.7-17,27.3c-1.3,2.1-3.6,3.8-5.8,5c-8.5,4.6-17,8.9-25.7,13.2c-3.6,1.8-5.5,4.3-6.6,8.1
		c-3.9,12.9-11.9,18.6-25.4,18.5c-3.7,0-7.3-0.1-11,0c-8.7,0.1-16-1.7-21-10.2c-3.6-6.2-9.7-10.9-14-16.8
		c-4.1-5.6-7.2-11.9-10.9-17.9c-5.1-8.4-8.7-8.8-15-1.3c-12.6,15.1-24.5,30.7-37.4,45.5c-7.6,8.7-16.2,16.6-25,24.2
		c-13.3,11.5-27.4,22.2-40.7,33.7c-5.2,4.5-9.8,10-13.6,15.7c-39.3,59.4-78.3,119-117.4,178.6c-1.3,1.9-2.2,4-3.4,6.2
		c1.9,2.9,3.7,5.7,5.5,8.6c-0.5,1.5-0.7,3.3-1.7,4.5c-3.9,5.1-3.9,10-1,15.8c2,4.1,3.1,8.7,3.9,13.3c1.4,7.4-9.8,15.7-17.2,11.5
		C4266.2,3516.7,4262.4,3518.3,4257.9,3522.9z"/>
	<path onclick="modal(this.id);" id="110" class="st0" d="M3469.3,1513.1c0-4.5-0.2-8.1,0.1-11.7c0.2-2.9,0.5-6.1,1.8-8.6c3.6-6.9,10.6-7.2,15-0.9
		c2.7,3.8,5.8,7.7,7.1,12c2.9,9.8,10.2,16.9,14.8,25.6c1.3,2.3,4.5,3.6,6.7,5.5c4,3.4,8.9,6.2,11.7,10.4
		c7.1,10.4,14.6,20.9,19.1,32.5c3.2,8.1,10.4,15,9.1,24.7c6.6,12.1,10.9,25.6,20.8,35.7c2.6,2.7,6.6,4.1,10.4,6.4
		c-1.8,2.1-3.8,4.2-5.5,6.6c-1.5,2.1-3.7,4.5-3.7,6.8c0.1,7.5-3.3,13.2-8.7,18.7c8.2,8.9,16.8,16.9,23.6,26.2
		c6.4,8.7,14.1,14.8,23.8,18.7c3.7,1.5,7.6,2.3,11.3,3.7c2.7,1,5.3,2.4,7.8,3.8c3.2,1.7,6.1,4.7,9.4,5.2c15.6,2.4,26.8,12.2,38,22
		c3.2,2.8,6.8,5.1,10.9,8.3c0,27.1,0,55.4,0,83.6c0,8.7-0.1,17.3-0.5,26c-0.1,2.4-0.8,5.4-2.3,7c-12,12-24.5,23.5-30.8,39.9
		c-20.6-0.5-40.2-3-58.4-12.2c-5.6-2.8-11.3-5.2-17.8-5.3c-3.4-0.1-6.8-2.2-11-3.7c-0.8,0.5-2.5,1.1-3.4,2.3
		c-4.4,5.8-9.9,8.6-17.3,7.4c-4-0.7-6.9,1.3-9.6,4.2c-7.7,8.3-15.7,16.3-23.1,24.9c-3.2,3.7-6.4,5.4-11.1,5
		c-11.9-1.1-23.8-1.7-35.7-3c-20.5-2.2-40.9-4.8-61.3-7.2c-26.7-3.1-53.4-6.3-80.1-9.4c-3-0.3-6-0.2-9-0.6c-9.6-1-18.9-1.9-26.8-8.9
		c-7.7-6.8-17.7-8.5-27.6-9.4c-9.7-1-19.5-1.4-29.3-1.8c-1.8-0.1-4,0.7-5.4,1.8c-4.9,3.9-9.7,7.9-14.1,12.4
		c-2.8,2.9-5.7,4.4-9.6,3.8c-9.5-1.4-19-2.6-28.4-4.1c-8.6-1.4-11-4.5-9.9-13.1c1.6-11.4,1-21.9-9.9-29.1c-2-1.3-2.9-4.3-4.3-6.6
		c-4.5-7.7-10.1-12.2-20-11.8c-16.6,0.8-33.3,0.4-50,0.1c-9.9-0.1-19.8-0.9-30-1.5c-4.1-11.5-2.5-22.2,3.7-31.5
		c4.3-6.3,5.5-12.4,4.7-20.2c-26.3-4.2-53.2-2.3-81.2-7.3c3.4-5.7,5.7-9.3,7.7-13c2.8-4.9,5.3-10,8.1-14.8
		c3.9-6.7,4.7-13.8,2.7-21.2c-1.5-5.4-0.4-10.2,1.5-15.5c2.4-6.7,2.8-14.1,5.1-20.9c6-17.6,12.3-35.2,18.9-52.6
		c4-10.3,4.3-20.6,2.5-31.4c-1.9-11.4-3.4-23-4.6-34.5c-0.2-2.2,1.2-5.1,2.8-7c2.7-3.3,5.7-6.7,9.3-9c5.7-3.7,9-8.2,10.1-15.1
		c1-6,6.8-8.6,15.3-7.6c11.5,1.4,23,3.4,34.5,5c5.5,0.7,8.3,4.6,9.3,9c1.2,5.4,3.8,9,8,12.1c4,2.9,8.7,5.3,8.1,11.5
		c6.4,4.9,10.5,13.2,19.9,13.4c15,0.3,30-0.1,45,0.1c5.1,0.1,8-2.1,9.7-6.8c1.4-3.7,2.6-7.9,5.2-10.6c7.5-7.9,25.3-5.4,31.6,0
		c1.4,1.2,2.7,3.3,2.7,5.1c0.1,5.5,4.2,8.1,7.5,11.2c1.3,1.2,3.9,2.6,5.2,2.1c8.6-3.2,16.3,0.2,24.9,3.6c0.2-3.3,0.8-5.8,0.5-8.1
		c-1.6-11.6-0.6-23.1,0.3-34.7c0.8-10.3,6.5-15,16.9-15.1c11.2-0.1,22.5-0.3,33.7-1.1c8.3-0.6,16.4-2.4,24.7-3
		c6.4-0.4,11.6-2.6,15.8-7.3c2.7-3,5.4-4.6,10.3-3.9c10.6,1.4,19.6-2.6,25.5-12.1c1.8-2.8,3.4-5.7,5.3-8.5c4.6-6.7,11.4-8,18.1-3.4
		c2.2,1.5,4.1,3.4,6.3,4.9c6.8,4.5,14,5.8,21.7,2.3C3458.4,1517.3,3463.4,1515.5,3469.3,1513.1z"/>
	<path onclick="modal(this.id);" id="107" class="st0" d="M4761,1727.2c3.7-2.3,6.4-4,9.3-5.7c-1.7-10.5-7.6-16.7-17.2-18.9c-7.1-1.7-12.6-5.2-17.6-10.4
		c-7.4-7.7-24.9-9.1-33.9-3.6c-9.9,6-20.1,11.6-30.1,17.6c-3.7,2.2-7.1,4.9-10.5,7.5c-4.2,3.1-8,6.2-13.5,7.8
		c-4.9,1.4-8.7,6.6-13.2,10.2c-8.8,0.1-14.7-3.4-16-13.4c-0.9-6.5-3-12.9-4.3-18.6c-3.8-5-9.1-9.2-10.3-14.3
		c-1.2-5.2,1.6-11.4,2.8-18.1c-1.9-1.4-4.8-3.5-7.7-5.7c-5.5-4.2-8.1-9.8-7.1-16.5c0.5-3.5,1.8-6.7,6-8.4c7.4-2.9,8.7-5.7,8.3-14.7
		c4.7-1.8,9.5-3.6,14.3-5.4c0.2-1.4,0.6-2.4,0.5-3.4c-0.6-3.9-1.3-7.8-2.1-12.5c-14.8,0-29.4-0.2-44,0.2c-2.4,0.1-4.8,2.5-8.1,4.4
		c-6.6-8.3-13.5-16.7-20.1-25.4c-2-2.6-3.8-5.8-4.3-8.9c-1.9-11.4-3.2-22.9-4.7-34.4c-0.8-5.8-1.6-11.6-2.6-18.6
		c7.4-5.3,3.6-13.4,2.5-19.3c-6.5-4.5-11.6-8-16.6-11.5c-4.8-3.4-9.5-7.2-14.5-10.4c-11.1-7.2-13.2-17.5-11-29.5
		c0.6-3,0.9-6.1,1.5-10c-11.6,5.3-21.6,9.9-32.9,15.1c1.1-15.5,2-29.7,3-44.5c10.9-1.8,20.9-4.1,31.7-3.6c11.9,0.6,23.9-1,35.8-1.9
		c14.9-1.1,29.8-2.5,44.6-3.8c28.1-2.4,56.2-4.8,84.3-7.1c13.9-1.1,27.8-1.9,41.8-2.9c5.5-0.4,11-0.9,16.9-1.4
		c0.6,4.3,1,7.6,1.4,10.8c1.2,12,7.7,20.3,18.3,25.4c5.1,2.5,10.4,4.4,15.7,6.4c12.5,4.7,14.2,4.2,24-6.3c4.9,6.4,12.1,5.5,18.7,4.8
		c5.5-0.6,10.4,0.1,15.5,1.5c8,2.3,16.1,4.1,24.2,6.1c0.3,0.1,0.7,0.4,0.9,0.3c9.3-2.6,18-0.8,26.4,3.6c1.2,0.7,4.3-0.2,5.3-1.4
		c4.3-5.3,10.1-5.5,16.1-5.9c2.9-0.2,5.9-0.7,9.4-1.2c4.2,6.5,7.5,14.3,15.4,18.4c1.5,0.8,2.1,4.8,2,7.2
		c-1.3,22.6,11.5,35.8,30.1,44.8c10,4.8,18.6,11.3,27.3,18.8c-4.8,13.2,1.1,23.9,7.8,34.5c2.2,3.5,4.4,7.6,5,11.6
		c2.2,13.7,11.6,22.9,19.6,32.9c2.9,3.6,6.5,6.6,9.8,9.8c5.6,5.5,11.5,5.6,17.1-0.1c3.2-3.3,6.1-7,9.7-11.2c4.7,4.6,9.7,3.5,15,0.3
		c1.7-1,4.5-2,6-1.3c5.2,2.2,9.1-0.1,12.9-2.8c8.7-6.2,8.5-6.3,14,2c3.7,5.6,8.2,10.2,14.9,12.7c3.2,1.2,6,3.8,8.8,6
		c3.1,2.4,6,5.2,9.1,7.7c3.8,3.1,7.7,3.1,12,0.4c2.7-1.7,6-3,9.2-3.5c4.9-0.8,9.2-0.1,13.7,3.5c25.4,20,51.2,39.3,76.9,58.9
		c2.6,2,5.1,4.2,8.3,6.8c-22.5,43.1-44.8,86.1-67.9,130.4c-5-10.8-13.4-13.5-23.1-13.9c-4.6-0.2-9.3-0.8-13.8-2
		c-2.7-0.7-5.6-2.4-7.2-4.6c-5-6.6-9.7-13.5-14.1-20.6c-5-8-17.6-10.3-24.9-4c-1.5,1.3-2.9,2.8-4.1,4.3c-6.2,7.9-14.6,10.6-24,8.4
		c-5.1-1.2-8.7,0.1-13.1,2.2c-7.7,3.6-15.4,7.1-24.2,8.1c-3.9,0.4-8.8,2.8-11,5.8c-5.9,8.3-14.9,8-23.1,9.5
		c-1.9,0.4-5.1-1.7-6.6-3.6c-8.1-10.8-20.4-9.5-31.6-11.2c-2.1-0.3-4.6,0.8-6.6,1.9c-4.5,2.6-9.2,3.7-14.3,3.2
		c-4.6-0.4-8.1,1.6-9.4,5.8c-1.6,5.1-5,6.7-9.7,6.8c-1,0-2.3-0.2-2.9,0.3c-2.2,1.8-5.1,3.6-5.8,6c-0.5,1.8,1.3,5.2,3.1,6.5
		c5.6,4.2,8.6,9.1,10.6,16c1.9,6.4,6.5,12.3,11,17.5c6.8,7.7,10.7,15.9,9.5,26.2c-0.8,7.4,1.2,13.3,5.9,19.3
		c6.3,8,7.4,17.3,3.7,27.3c-3.4,9-6,18.2-12.9,25.5c-1.3,1.4-1.2,4.4-1.3,6.6c-0.1,8.7-0.2,17.3,0,26c0.1,7.7,1,8.5,8.7,8.8
		c16.9,0.7,33.9,1.5,50.8,2c26.9,0.8,53.9,1.4,80.8,2.1c1,0,1.9,0.3,3.7,0.7c0.2,2.8,0.8,5.6,0.6,8.5c-0.4,6.2,0.6,11.7,4,17.1
		c1.3,2.1,1.6,7.3,0.7,7.8c-3.2,1.7-7.3,2.6-11,2.5c-1.8,0-3.7-2.6-5.5-4c-7.5-5.8-11.8-5.6-19.2,0.7c-5.2-2.2-7.8-6.7-10.1-11.6
		c-4-8.5-17-15.4-26.1-13.8c-5.5,1-11.1,2.4-16.3,4.4c-2.9,1.2-5.3,3.9-7.4,6.3c-5.3,6.1-5.5,6.2-11.9,1.8c-1.6-1.1-3.4-2.1-5.1-3.1
		c-14.4-7.6-29-4.3-36.1,10.4c-4.6,9.6-11.8,10.9-19.9,11c-6,0.1-11.5-1.4-15.5-8c-13.6-22.1-28.1-43.7-42.2-65.5
		c-0.9-1.4-1.5-2.9-2.4-4.6c1.2-0.9,2.1-2,3.3-2.4c12.1-5,17-14.1,14.2-26.8c-3.7-17.2-6.5-34.3-5.4-52.1c0.3-5.7-1.9-11.7-3.2-17.5
		c-2-8.4-5.1-16.6-6.3-25.1c-1.4-10.5-4.6-19.3-13.8-24.8c-0.5-9.7-0.9-18.9-1.4-29.6c-5.4-0.3-10.2-0.9-15-0.6
		c-5.1,0.4-9-0.9-12.4-4.8c-4.9-5.5-9.9-10.8-15-16c-3.6-3.6-6.6-8.6-13.1-7.6c-1,0.1-2.6-1-3.2-2c-5.3-9.5-13.1-16.9-20.4-24.7
		C4762.1,1731,4761.8,1729.2,4761,1727.2z"/>
	<path onclick="modal(this.id);" id="102" class="st0" d="M4439.9,1194.9c-0.5,5.5-1,10-1.3,13.4c3.1,6.7,13.8,4.4,12.3,13.9c-4.4,1.1-8.8,2.2-13.8,3.5
		c0,8.1,0,16,0,24c-0.2,0.1-0.9,0.9-1.3,0.7c-9.4-3.1-14.9,2.3-21.1,8.4c-8.7,8.5-18.7,15.7-28.5,23.7c0.4,2.9,0.5,5.8,1.3,8.6
		c3.1,11.5,6.2,23.1,9.7,34.5c4,13-0.2,23.8-9.3,32.6c-7.3,7-14.2,13.4-16,24.2c-1.1,6.7-5,12.9-8,20.1c-9.5,0-19.7,0.4-29.9-0.1
		c-5.8-0.3-9.3,2-12.2,6.6c-5.1,8.2-4.9,9.7,0.6,17.8c3.6,5.2,7.4,10.4,9.5,16.3c1.8,5,1.5,10.8,2.2,16.9c-4.4,0.3-7.2,0.6-10.1,0.6
		c-38,0-76,0.3-114,0c-47.9-0.4-95.9-1.3-143.8-1.9c-9.4-0.1-17.3-2.5-25.1-8.8c-51.6-42-103.8-83.3-155.6-125.1
		c-6-4.8-11.1-7.8-19.4-4.8c-7.6,2.7-16.2,2.3-24.7,3.3c0-8.4,0-17.3,0-26.2c0-4.3,0.1-8.7,0-13c-0.2-7.3-12.4-26.2-18.8-29.7
		c-2.1-1.2-3.8-3.2-5.7-4.9c2.2-1.7,4.1-4.5,6.5-4.9c13-2,26.1-4,39.3-4.9c4.3-0.3,8.7,3,13.1,4.3c9.5,2.8,19,5.5,28.6,8
		c1.3,0.3,3-1.2,4.8-1.9c1.3-50.6,2.5-101.1,3.8-152.3c10.4-2,20-6.1,30.9-1.4c6.9,3,11.9,7.3,15.5,13.4c3,5.1,7.2,8.6,12.3,11.2
		c1.8,0.9,3.9,1.6,5.1,3c6.2,7.5,14,5.4,21,3c18.5-6.3,36.7-13.7,55.3-20.1c7.5-2.6,15.4-3.7,23.9-5.7c0.8,1.7,1.5,3.3,2.3,5
		c2,4.2,5.3,5.6,9.9,4.6c9.2-2.1,18-1.4,27.4,0.8c6.8,1.6,15.3-0.6,22.1-3.3c4.7-1.9,8.2-7.4,11.6-11.8c4.6-6,8.4-12.5,13.3-19.8
		c15.4,0.6,31.3,1.4,47.2,1.8c17.3,0.4,34.6,0.5,52,0.8c43.3,0.7,86.5,1.3,129.8,2c16.6,0.3,33.2,1.1,49.9,1.2
		c19.3,0.2,37.3,5.2,54.7,13.1c3.8,1.7,8.2,2.1,12.4,3c8.4,1.7,16.9,3.2,25.2,5.2c2.4,0.6,4.6,2.5,6.6,4.1
		c7.2,5.8,13.9,11.7,24.5,11.2c5.3-0.3,10.8,3.6,18.1,6.4c11.7,22.5,24.5,46.9,38.1,72.9C4560.6,1197.3,4501,1196.1,4439.9,1194.9z"
		/>
	<path onclick="modal(this.id);" id="108" class="st0" d="M4610.3,1822.7c-4.4,0-8.6,0.9-12.1-0.2c-6.8-2.2-11.7,0.2-16,4.9c-3.4,3.7-6.5,7.6-9.6,11.5
		c-4.1,5.2-9.9,8.7-14.5,13.2c-8,7.7-17.1,13.2-25.7,19.7c-4.9,3.6-8.3,9.5-11.6,14.8c-1.6,2.6-1.9,6.2-2.1,9.4
		c-0.7,11.9-1,23.7-1.5,36.5c-16.9-0.9-32.8-1.7-50.3-2.5c3.8-11.6,5.8-21.9,0.8-32.4c-6.9-2.5-11.1,4.9-17.2,5.3
		c-8.6-7.6-9.6-12-4.2-21.4c4.6-8,4.7-15.4-1-23.1c-7.9-10.6-15.1-21.7-23-32.3c-2.8-3.8-3.4-7.4-2.7-12c1-6.8,1.1-13.8,0.7-20.6
		c-0.2-2.6-2.2-6.2-4.5-7.3c-8.7-4.4-17.3-9.6-27.7-9.5c-4.8,0.1-10.1,1.9-14.6-2.5c0.4-1.4,0.4-3.2,1.3-4.4
		c5.7-8.1,11.1-16.4,17.4-24c8.6-10.4,7.5-21.4,3.5-32.8c-0.5-1.5-1.7-2.9-2.9-3.9c-6.3-5.4-10.7-11.8-11.6-20.2
		c-0.5-4.2-3.1-5.2-7-5.3c-18.9-0.8-37.8-1.7-56.8-2.6c-8.3-0.4-16.6-0.9-24.8-1.5c-4.6-0.3-9.3-1.7-12.8,3c-0.6,0.8-3,1.4-3.6,1
		c-7.2-5.6-17.1,0-24.3-5.9c-1.8-1.5-5-1.7-7.6-1.8c-6.6-0.5-10.8-3.7-14.2-9.4c-17.1-29.3-34.4-58.5-51.9-87.6
		c-2.5-4.1-3.5-7.4-1.3-11.9c2.2-4.4,3.7-9.2,5.4-13.9c1.1-3.1,2.9-6.4,2.7-9.5c-0.6-9,2.4-16.9,5-25.2c4.4-14,5-28.6,4.6-43.1
		c-0.1-3.6-2.6-7.1-4.3-11.4c4,0,7.6,0,11.1,0c44,0,88,0.4,131.9-0.2c22.5-0.3,45.1-2.5,67.6-3.7c7.3-0.4,14.6-0.5,21.9-0.8
		c11.3-0.4,22.6-0.8,33.8-1.4c2.9-0.2,6-0.8,8.6-1.9c8.8-3.7,17.6-7.8,27-12c-0.5,4.3-1,7.8-1.3,11.4c-1,11.3,5.2,18.8,13.5,25
		c4.4,3.3,9.2,6.2,13.7,9.5c4.9,3.6,9.7,7.4,16.2,12.4c0.9,4.3,3.3,10.8-5.4,15.2c7.1,13.9,6.5,29,7.9,43.6
		c1.3,13.3,6.9,24,15.4,33.7c4.8,5.4,9.7,10.8,15.2,16.8c1-1.1,2-2.6,3.4-3.6c1.9-1.5,4.1-3.6,6.2-3.7c12.6-0.3,25.2-0.2,38.4-0.2
		c0.6,3.9,1.1,7.1,1.7,10.9c-4.9,1.7-9.4,3.3-14.2,5c-0.3,2.8-0.1,5.6-1.1,8c-0.9,2.3-2.6,4.7-4.6,5.9c-11.3,6.6-12.2,21.9-1.7,30.4
		c2.3,1.9,4.7,3.5,7.3,5.4c-0.9,3.1-1.6,6-2.6,8.8c-2.8,7.7-0.2,14,5.9,18.4c3.4,2.5,4.7,5,5.2,8.8c0.6,4.3,1.7,8.5,3.2,12.5
		c6.4,16.6,3.4,33.4,1.5,50.2c-0.6,5.6-1,11.2-1.8,16.7c-0.7,4.5-1.9,8.9-2.7,13.3c-0.5,2.9-1.8,6.4-0.7,8.6
		C4613.9,1812,4612.2,1816.7,4610.3,1822.7z"/>
	<path onclick="modal(this.id);" id="103" class="st0" d="M4464,1405.2c-1.2,16.4-2.4,32.3-3.6,48.7c-41.2,2-81.5,4-122.2,6c-0.1-0.1-1-0.6-0.9-1.1
		c1.3-13.2-5-23.7-12.3-33.7c-2.7-3.7-4.8-6.8-2-11.6c2.8-5,5.7-8.8,12.2-8.3c10.2,0.8,20.5,1.2,30.8,1.7c3.3-8.6,7.4-16.4,9-24.6
		c1.6-8.2,6.1-14,11.8-18.9c13.6-11.7,17.6-24.4,12.3-41.8c-3.1-10.5-5.8-21.1-8.9-31.6c-1.1-3.7-0.7-6.4,2.5-8.7
		c5.1-3.7,10.1-7.4,14.9-11.4c4.1-3.4,8.2-6.8,11.7-10.8c4.4-5.1,9.1-7.4,15.7-5c1.5,0.5,3.2,0.3,6.4,0.6
		c-2.1-9.5-0.9-18.3,1.9-27.3c3.6-0.4,7.5-0.9,11.5-1.4c0.8-7.1-1.2-11.8-7.7-14.8c-6.6-3.1-6.4-3.5-3.5-12.2c15.4,0,31,0,46.6,0
		c1.7,0,3.3,0.3,5,0.4c29.6,0.5,59.2,0.9,88.9,1.4c10.7,0.2,21.3,0.9,32,0.5c6.5-0.3,9.8,2.8,12.5,7.8c1.6,2.9,3.1,5.9,4.8,8.7
		c3.3,5.6,8,9.6,14.2,11.9c11,4.1,18.1,11.7,20.8,23.5c0.9,3.8,2.7,7.6,5.1,10.6c3.6,4.4,4.8,9,4.5,14.6
		c-0.7,10.5,4.5,17.4,14.9,20.6c14.3,4.5,24.6,17.4,23.7,32.4c-0.9,14.9,7.5,26.5,11.9,39.5c0.5,1.5,1.5,2.9,2.4,4.5
		c-5.2,5.8-10.3,9.3-18.7,9.8c-37.1,2.2-74.2,5.5-111.2,8.4c-24.5,1.9-49,4-73.5,5.9c-17.5,1.4-35,2.5-52.5,3.9
		C4471.2,1403.5,4467.7,1404.5,4464,1405.2z"/>
</g>
</svg>
