<?xml version="1.0" encoding="utf-8"?>
<!-- Generator: Adobe Illustrator 19.0.0, SVG Export Plug-In . SVG Version: 6.00 Build 0)  -->
<svg version="1.1" id="Layer1" xmlns="http://www.w3.org/2000/svg" xmlns:xlink="http://www.w3.org/1999/xlink" x="0px" y="0px"
	 viewBox="0 0 6000 3000" style="enable-background:new 0 0 6000 3000;overflow: hidden; display: inline; width: inherit; min-width: inherit; max-width: inherit; height: inherit; min-height: inherit; max-height: inherit;" xml:space="preserve">
<style type="text/css">
	.st0{fill:#8FD4EB;stroke:#000000;stroke-width:2;}
</style>
<g>
	
	<path onclick="modal(this.id);" id="124" class="st0" d="M2029,1867c19.6-28.3,38.7-56,58.1-83.4c5.7-8,9.9-16.3,12-25.9c2.7-12.6,6.2-25,9.6-38.3
		c6.3,2.1,11.5,4.4,13.8,9.8c3.7,9,10.1,15.6,17.6,21.3c5.8,4.4,9.9,9.4,12,16.6c2,7.1,4,7.8,9.9,4.1c15.5-9.7,30.8-19.7,46.2-29.7
		c3.4-2.2,4.8-4.7,3.5-9.2c-1.7-5.7-1.8-11.8-3-17.6c-1.3-6.1-2.5-12.4-4.8-18.2c-5.4-13.7-5.9-27.7-4.4-42.8c2.7,0.9,5,1.3,7,2.3
		c10.8,5.2,21.2,4.9,31.1-2.1c5.6-3.9,11.3-6.7,18.4-6.7c3.1,0,6-3.1,9.2-3.3c8.5-0.6,17.2-1.3,25.6,0c4.3,0.7,8.6,4.9,11.9,8.4
		c9.5,9.9,26.9,10.8,38.5,0.3c4.9-4.5,11.9-7.4,18.5-9.2c11.6-3.2,18.9-9.5,23.1-21c2.3-6.3,7.1-11.9,11.6-17.2
		c5.7-6.7,8-14.9,2.6-21.3c-5.4-6.5-2.7-12.6-1.6-18.8c0.7-4.2,11.1-8.2,16.4-6.2c4.2,1.6,8.4,4.2,11.5,7.3c4.2,4.2,7.3,9.5,11,14.1
		c3.3,4,5.9,4.3,8.8,0.1c3.9-5.6,6.8-11.8,10.3-17.9c4.3,1.2,9.3,2.5,15.1,4.1c0.3,5.5,0.9,11.7,1.1,18c0.7,19.6,1.2,39.2,2.1,58.8
		c1.1,23.9,2.5,47.8,3.7,71.6c0.6,12.6,1.2,25.2,1.8,38.4c-10.4,3-12.7,11.9-15.2,20.6c-1.2,4.1-1.6,8.6-6.9,11.6
		c-1.7-2-3.4-4.3-5.3-6.3c-3.1-3.2-6.2-3.1-9.5-0.1c-5.5,5.1-11.1,10-14.8,13.2c-11-2-19.2-3.8-27.6-4.8c-5-0.5-9.3,4.9-7.9,11.4
		c1.4,6.3-1,11-3,16.1c-3.3,8.5-5.3,17.1-2.6,26.3c0.7,2.4,0.7,5.5-0.4,7.7c-4.7,10.2-9.9,20.1-15.3,30.9c2.4,1.1,4.2,2.4,6.2,2.8
		c46,10.5,92,20.9,138.1,31.2c2.9,0.6,5.9,0.6,8.9,0.6c17.3,0.1,34.7,0.2,52,0c40.3-0.6,80.5-1.3,120.8-2c1.3,0,2.6-0.3,4.2-0.5
		c0.9-8.5-5.2-13.8-9.7-18.8c-3.9-4.4-7.1-8.7-8.7-14.1c-2.4-8.4-7.7-13.7-15.6-16.9c-0.9-0.4-1.9-0.7-2.8-1.1
		c-3.4-1.7-6.5-3.9-5.5-8.3c1-4.2,4.1-5.2,8.2-5.7c4.7-0.6,9.2-2.7,16-4.9c7.4,6,16.9,13.1,25.4,21.2c3.7,3.6,6.3,6.1,11.7,4.5
		c7-2.1,13.8-3.6,21.1,0.6c2.9,1.7,7.8,0.4,11.7-0.1c19.8-2.4,39.5-5,59.3-7.4c4.4-0.5,8.1-1.8,11.5-4.9c12-10.9,24.3-21.6,37.3-33
		c5.7,4.5,11.2,9.2,17.2,13.3c4.5,3.1,9.6,5.5,14.5,8.1c0.8,0.5,2.1,0.2,2.9,0.7c7.5,5.3,15.4,10.1,22.4,16.1
		c9.3,8,18,16.8,26.6,25.6c3.9,4,7.6,8.3,10.3,13.1c1.8,3.3,2.5,7.7,2.3,11.5c-0.4,6.8-1.9,13.6-3.1,21.7c-4.9,0-10.2,0.2-15.4,0
		c-23.6-0.8-47.2-1.8-70.8-2.7c-2-0.1-4.5-0.7-5.8,0.2c-9.4,6.8-21.7,9.8-27.5,21.6c-5.9,11.9-13,23.3-18.4,35.4
		c-3.8,8.6-12.2,11.2-19.5,6.3c-1.9-1.3-4.2-2.1-6.2-3.2c-6.2-3.2-12.4-3.1-17.8,1.3c-6.6,5.4-14.2,6.7-22.4,6.5
		c-34.9-0.8-69.9-1.4-104.8-2c-3.6-0.1-7.2,0-12,0c3.5,8.2-0.7,13.4-4.3,18.9c-5.8,8.8-11.9,17-23.6,17.8
		c-42.8,20.4-89.3,30-133.7,45.7c-2.7,1-5.8,1.1-8.7,1.6c-4.9,0.8-9.8,1.3-14.6,2.4c-4.8,1.1-8.3,0.1-10.9-4.3
		c-6.8-11.6-14.9-14.1-26.3-7.6c-2.9,1.6-5.2,4.9-6.8,7.9c-4,7.6-7.6,15.4-11,22.6c-6.9,1.2-10.8-2-13.8-6
		c-5.2,0.3-9.8,0.8-14.4,0.9c-5.3,0.1-8.9,2.3-10.5,7.4c-1,3.2-1.9,6.4-2.6,9.6c-1.3,5.9-3.4,11.2-7.7,15.8
		c-2.2,2.4-3.1,6.1-4.6,9.2c-3.4-4.7-6.7-9.6-10.3-14.3c-1.4-1.8-3.2-3.4-5.1-4.7c-6.7-4.4-9.2-3.6-12.7,3.8c-0.4,0.9-1,1.7-1.5,2.6
		c-5.8,2.1-11.1,1.6-16-2.3c-1.5-1.2-3.4-2.1-5.3-2.6c-7.3-1.9-10.4-0.5-13.3,6.6c-5.8,13.8-11.2,27.7-16.9,41.6
		c-2.2,5.5-4.6,11-7,16.6c-7.9-0.7-14.4-2.3-18.8-9.6c-3-4.9-7.8-6-14-4.4c-5.3,1.3-11.7,1.9-16.5,0c-7.1-2.8-13.4-2.9-20.3,0
		c-11.8-35-23.4-69.6-35-104.2c-5.4-16.1-11-32.1-16.2-48.2c-1.6-5-4.3-8.9-8.4-12c-6.3-4.9-12.4-10.2-19-14.6
		c-8-5.3-13.6-12.3-18-20.8C2065.8,1937.2,2047.5,1902.4,2029,1867z"/>
	<path onclick="modal(this.id);" id="122" class="st0" d="M2991.8,2091.9c-3.8-4.2-7.7-7.4-10.1-11.4c-6.4-10.6-12.1-21.4-21.3-30c-2-1.9-2.7-5.9-2.8-9
		c-0.1-5.3,0.9-10.5,1.1-15.8c0.1-4,1.3-6.7,4.9-9c13.7-9,16.1-17.3,9.8-33.9c-3.2,0.5-6.7,0.7-9.9,1.8c-10.1,3.4-20.2,6.7-30,10.9
		c-7.9,3.4-15.5,7.5-22.8,12c-10.4,6.3-21.2,9.2-33.3,5.9c-2.9-0.8-5.9-1.2-8.8-1.9c-7.2-1.7-13.7-0.3-19.8,4.2
		c-4.5,3.4-9.2,6.7-14.2,9.2c-8.4,4.2-16.3,0.1-17.5-9.1c-1-7.5-1.4-15-1.7-22.5c-0.1-1.8,1.2-3.8,2.1-5.5
		c6.5-12.4,13-24.8,19.6-37.1c2.8-5.2,23-17.4,28.9-17.2c22.2,0.9,44.4,2.1,66.7,3.1c7,0.3,14,0,20.7,0c0.7-0.6,1.5-1,1.6-1.5
		c1.3-9,3.1-18,3.6-27c0.3-4.9-2.1-9.4-6-13.2c-2.4-2.3-5-6.4-4.5-9.2c1-5.7-1-10.4-2.3-15.5c-18.9-76.2-48.7-148.9-73.2-223.3
		c-9.1-27.8-18.9-55.4-25.9-83.8c-0.3-1.3-1.1-2.6-1-3.8c1.7-19-7.9-34.6-15.1-51c-0.4-0.9-1-1.8-1.4-2.7c-2.3-5.5-1.9-8.3,3.8-10.1
		c6.3-2.1,6.5-5.7,4.9-10.7c-1.6-5.1-2.7-10.4-4.7-15.2c-1.3-3.2-3.7-6.2-6.1-8.9c-2.8-3.3-5.1-1.2-7.2,1.7
		c-6.5-7-9.5-14.9-9.2-24.5c0.5-14.6,0.1-29.2,0.1-44.5c73.6,0,146.4,0,220.2,0c0.8,16.2,5.9,32,4.7,48.7
		c-0.5,6.5,1.3,13.2,2.2,19.7c1.6,11.5,3.4,23,4.7,34.5c0.9,7.7,1.8,14.8,7,21.3c2.4,2.9,2,8.2,2.9,13c3.6,1.3,7.6,2.7,11.9,4.2
		c1,4.4,2.4,8.3-0.1,13.1c-1.2,2.4,0.4,6.2,0.9,10.2c3.7-1.7,6.6-3.1,10.1-4.7c7.4,7.4,14.1,3.8,20.8-2.7c9.9,5.4,20.4,7.6,31.7,6
		c6.7-1,12.1,2.3,16.7,7.2c16.1,16.9,32.3,33.6,48.4,50.5c11.5,12,22.9,24.1,34.3,36.3c3.9,4.2,8.5,8.3,3.3,14.1
		c6.3,8.2,14,6.8,21.6,5.6c7.4-1.2,7.4-1.3,13.2,1.5c0.7,7.3,0.1,14.3-6.3,20.3c8.8,3.8,12.3,9.9,12,19c-0.1,4.3,2.9,8.7,4.6,12.9
		c1.9,4.5,5.3,6.6,10.2,6.4c4.5-0.2,4.7-4,6.1-6.9c0.6-1.2,1.2-2.4,2.3-4.4c6.6-0.8,13.8-2,21-2.5c6-0.4,11.7-0.4,17.4-3.1
		c7.2-3.4,21.1,3.2,26.6,11.3c2.4,3.5,5.1,6.9,8.1,9.9c6.7,6.8,6.9,9.2,0.5,16.8c-4.5,5.3-4.5,5.3-2.6,12.6
		c-13.5,13.5-27.3,26.9-40.7,40.9c-3.5,3.7-6.8,8.4-8.3,13.2c-7.5,25.6-22.7,47.3-34.9,70.5c-1.5,2.9-5,5.6-8.2,6.6
		c-18.3,5.7-31.7,17.4-42.7,32.5c-1.8,2.4-3.7,4.7-5.7,7.3c-2.9-2.4-5.2-3.5-6.2-5.4c-3.3-6-8.2-5.7-13.8-4.4
		c-10.6,2.4-21,5.1-32.1,5.6c-13,0.6-24.6,17-22.8,30.2c0.7,5.2,1.5,10.6,1.3,15.8c-0.4,8.6-4.1,12.4-12.6,12.2
		c-11.5-0.3-21.5,2.5-30.4,10.1c-2.8,2.4-7.2,3.1-11,4c-9.2,2.3-10,3.3-8.9,13.7c-16.3-3.9-26.3,8.2-38.4,15.1
		c-3.3,1.9-5.1,6.7-7.3,10.4c-1,1.7-1.1,3.8-1.8,5.7c-2.6,7-5,13.3-12.9,17.4c-8.1,4.1-14.6,11.4-22,17.1
		C3001.8,2085.8,2997.2,2088.4,2991.8,2091.9z"/>
	<path onclick="modal(this.id);" id="116" class="st0" d="M2615.4,1386.1c0.6-2.8,1.5-4.8,1.3-6.6c-1-8.8,0.5-15.3,10.8-17.9c5-1.3,3.9-12.3-1.2-16
		c-1.3-0.9-3.1-1.3-4.5-2.1c-7.5-4.6-9-11.4-6.1-19.6c3.1-8.7,5-17.8,7.1-26.8c0.3-1.4-0.2-3.5-1.2-4.6c-5.4-5.8-8.4-13.7-15.9-17.6
		c-1.2-0.6-2.2-1.5-3.2-2.4c-4.5-4.3-4.5-7-0.6-11.9c2-2.5,4-5.3,5.3-8.2c3.2-7,3.1-13.3-3.7-18.7c-5-3.9-5.3-8.8-3.2-15.1
		c4-12.1,8.9-24.2,5.5-37.8c-1.1-4.2,0.4-9.2,1.2-13.8c0.3-1.8,1.6-3.6,2.9-5c1.6-1.7,3.6-3,5.4-4.4c15.1-11.3,10-6.4,11.8-23.8
		c0.3-2.4-0.6-5.4-1.9-7.5c-4.1-6.9-6.9-14.2-8.8-22.1c-1.1-4.7-5.4-8.7-8.7-13.7c10.4-4.4,20.4-9.6,25.3-20.8
		c-1.6-5.9-4.8-10.7-10.5-13.8c-4.1-2.2-5.3-5.5-3.3-10.1c3.4-7.7,3.1-15.4-0.5-23.1c-0.8-1.7-1.4-3.8-1.3-5.7
		c0.4-7.2-1-13.9-3.8-20.4c-0.5-1.2-1-2.6-0.8-3.9c1.8-10.8-5.4-17.2-11.7-24c-3.1-3.4-6.7-6.4-9.6-10c-9-10.9-8.9-11.3-1.6-23
		c3.8-6,3.4-10.4-1.9-16.1c-2.6-2.8-5.6-5.3-9.6-9.1c3.7-0.6,5.9-0.6,7.9-1.2c3.7-1.2,8-1.9,10.9-4.1c6.2-4.9,12.6-5.1,19.8-3.3
		c6.7,1.6,13.5,2.8,21.6,4.5c2.3,5.4,7.9,6.8,14.9,6.5c2.7-0.1,6.1,1,8.2,2.7c14.3,12.1,31.1,17.3,49.3,19.2c4.9,0.5,9.7,2,14.5,3.4
		c13.4,4,26.7,8.2,40,12.2c2.2,0.6,5.1,1.4,6.8,0.4c6.5-3.5,11.5-0.1,16.9,2.5c9,4.4,17.7,9.2,27,12.9c7.6,3,15.7,5.5,23.8,6.6
		c5.6,0.7,10.1,2.5,14.6,5.4c16,10.2,32,20.4,48,30.6c1.4,0.9,2.5,2,3.6,2.9c-2.3,46.9-4.5,93.3-6.8,140.5c2.8,0.5,5.3,1.2,7.8,1.2
		c31.3,0.5,62.6,0.9,93.9,1.4c3.3,0,6.6,0,10.1,0c4.3-8.9,1.5-16.8-4-22.4c-10.2-10.8-10.9-21.9-4.5-35.1c1.9,0,4.2-0.3,6.4,0.1
		c37.3,6.7,74.7,12.7,111.7,20.6c14.7,3.1,29.9,6.3,43,14.9c5.4,3.5,10.3,6.7,9.8,14.6c-0.2,2.8,3.2,5.9,5.2,9.2
		c6.6-5.3,13-9.3,17.6-14.7c2.8-3.4,3.2-9,4.1-13.7c1-4.9,1.2-9.8,5.3-13.6c5.2-4.8,7.3-4.8,12.3,0.2c5,4.9,10.2,9.5,15.9,14.8
		c4.9-0.2,8.9-2.7,10.4-8.8c0.5-2.2,2.3-4,3.4-6c0.8,0.2,1.7,0.4,2.5,0.6c1.3,22.9,2.6,45.8,3.9,68.9c7.9,0.5,14.2,1.7,19.8-4.1
		c1.7-1.8,6.6-2.6,9-1.6c7.2,3.3,15,4.3,21.8,9.4c4.9,3.7,7.3,7.1,7.5,12.6c0.2,3.6,0,7.2,0,11.7c-7.3,0.2-13.9,0.4-20.5,0.7
		c-18.3,0.8-36.5,1.6-54.8,2.5c-6,0.3-12,0.5-17.8,1.6c-2.6,0.5-5.2,2.6-7,4.7c-18.2,22.1-36.9,43.8-54,66.7
		c-14.2,19.1-32.1,33.5-51.1,47c-22.8,16.2-45.3,32.8-67.8,49.4c-4.2,3.1-8.4,4.7-13.7,4.7c-96.7-0.1-193.3,1-290-0.6
		c-38.5-0.6-77.1-1.8-115.7-2.2C2619,1386.6,2617.7,1386.4,2615.4,1386.1z"/>
	<path onclick="modal(this.id);" id="123" class="st0" d="M2942.5,1882.9c-8-7.9-15.8-16-24-23.7c-3-2.8-7.6-4-10.5-6.9c-8.4-8.5-21.3-9.4-29.3-17.5
		c-6-6.1-13.3-9.5-20.6-14.7c-9.9,8.7-20.1,16.7-29.1,25.9c-8.7,8.9-18.4,12.8-30.6,13.6c-17.5,1.3-34.9,4.2-52.4,6.3
		c-2.2,0.3-5,0.9-6.7-0.1c-7-4.1-14-3.1-21.2-0.9c-3.8,1.2-6.5-0.2-9.6-3.1c-7.9-7.5-16.5-14.3-25-21.1c-3.1-2.5-6.4-2.1-10.1,0.3
		c-3.1,2.1-7.2,3.6-10.9,3.6c-5.8,0.1-7,4.3-8.9,8c-2,3.8,1,6.2,3.1,8.7c0.8,1,2,1.8,3.2,2.2c10.4,3.5,15.2,11.6,19.4,21.2
		c2.9,6.8,8.6,12.3,13.1,18.4c1,1.3,1.8,2.7,3.3,5c-2.8,0.5-4.8,1.3-6.8,1.3c-33.6,0.5-67.2,0.9-100.8,1.4
		c-17.6,0.2-35.3,0.3-52.9,0.7c-12.7,0.3-25.1-1-37.5-3.9c-39.1-9.2-78.4-17.8-117.7-26.6c-2.2-0.5-4.2-1.6-7-2.7
		c4.5-9.1,9-17.6,12.7-26.4c1.4-3.4,2-7.9,1.1-11.5c-2-8.3-0.3-15.8,2.6-23.3c2.3-5.9,4.4-11.5,3.7-18.2c-0.8-6.8,2.4-8.9,9.2-7.5
		c6.3,1.3,12.5,2.9,21.5,5.1c5.6-4.1,13.4-9.8,21.8-16c2.5,2.4,6,5.7,9.3,8.9c5.5-3,7.9-7.1,9.2-12.1c0.9-3.2,1.9-6.3,2.8-9.5
		c1.7-6.3,5.3-10.3,12.9-10.2c-0.9-22.3-1.8-44.2-2.7-66c-0.8-18.9-1.6-37.9-2.5-56.8c-1-20.2-2.1-40.4-3.3-60.7
		c-0.6-9.9,2-14.8,11.3-19.4c6.7-3.3,8.1-11.1,2.9-16.3c-1.9-1.9-3.9-3.8-6.1-5.1c-7.4-4.6-5.2-13.4,0.6-17.5
		c2.1-1.5,4.5-2.7,6.2-3.7c2.9,4.3,5,8.4,8.1,11.6c3.3,3.4,6,2.8,9-1c1-1.3,2-2.7,2.7-4.2c5-12.3,10.1-24.5,14.6-37
		c1.9-5.4,1.6-11.1-3.9-15.3c-1.9-1.5-2.8-4.3-4.4-7c8-3.9,15.2-7.7,22.7-11.1c5.3-2.4,8.9-5.2,8.6-11.9c-0.2-3.8,1.1-7.8,1.9-12.3
		c8.6,0.2,14-5.1,19.2-10.8c3.8-4.2,8.8-7.6,11.7-12.2c5.8-9,13.9-10.8,23.3-9c4.8,0.9,9,1,13.5-1.3c2.2-1.1,5.1-1,7.8-1
		c16.7-0.1,33.3-0.2,50,0c15,0.2,30-0.1,44.8,1.5c28.9,3.2,57.8,1,86.7,1.8c1.3,0,2.5,0.3,5,0.7c0,14.7,0.5,29.3-0.2,43.8
		c-0.4,8.5,2.1,15.7,6.5,22.5c4.1,6.5,4.7,6.6,13.6,4.4c4.2,8.2,7.1,16.7,7.5,26.3c-2.2,1.1-4.1,1.7-5.7,2.8
		c-4.6,3.4-5.6,7.8-3.2,13c2.1,4.5,4.1,9.1,6.4,13.5c5.3,10.4,9.6,21.1,9.9,33.1c0.4,16.9,7.1,32.5,12,48.2
		c11.3,36.2,24.2,71.8,36.5,107.7c14.7,42.8,30.2,85.3,43.6,128.5c4.1,13,5.6,27,10.2,40.2c0.5,1.4,0.1,3.2,0.1,4.8
		C2943.8,1882.4,2943.2,1882.7,2942.5,1882.9z"/>
	<path onclick="modal(this.id);" id="118" class="st0" d="M3586.4,485.2c-2.6,4.2-4.4,7.3-6.3,10.3c-3.4,5.2-4.5,11.1-0.3,15.8c4.1,4.5,3.1,8,1.2,12.6
		c-4.2,9.9-5.2,19.7,0,29.8c2.9,5.6,6.9,9.7,12.3,12.7c5.6,3,9.2,7.1,10.2,13.8c0.6,4.5,3,8.8,4.4,13.2c0.6,1.8,1.5,4.2,0.8,5.7
		c-3.1,7.2-0.1,12.9,3.4,17c-2.5,6.8-4.6,12.6-6.9,18.4c-0.8,2.1-1.7,4.6-3.4,5.8c-7.8,5.4-11.1,14-15.9,21.5
		c-1,1.6-1.8,3.7-2.1,5.6c-1,8.4-1.4,16.9-2.7,25.3c-0.8,5.5-2.1,11.2-4.3,16.3c-3.7,8.8-2.6,17.4-1.1,26.3
		c1.1,6.4,0.8,13.1,2.2,19.5c1,4.4-0.9,6.3-4,7.9c-13.7,7.1-23.4,19-32.4,30.5c-5.7,7.3-7,18.3-9.4,27.9c-0.7,2.8,1.4,6.2,2.1,8.9
		c-1.9,5.8-3.6,11.4-5.7,17c-0.9,2.4-2.3,4.7-3.7,6.9c-6.3,9.4-12.2,18.8-19.8,27.4c-10.8,12.3-9.4,27-4.9,41.5
		c3.2,10.4,7.6,20.6,9.5,31.3c0.9,5.5,2.6,10.8,3.2,16.2c1,9.1,5.3,16.3,10.9,23.1c3.4,4.2,5.5,8.5,5.9,14.3
		c0.7,9.5,4.5,17.9,13.8,22.7c9.2-4.2,11.7-12.3,13.1-21.1c1.4-8.3,2.4-8.6,10.1-6c4.6,1.6,9.6,1.9,15.4,3.1
		c2.3,7.2,6.8,13.5,16.5,14.5c8.9,0.9,15.8-4.3,24.3-7.5c7.3,6.4,14.5,13.3,22.3,19.4c4.4,3.4,9.4,6.5,14.7,8.1
		c3.2,0.9,7.6-1,11-2.5c2.3-1,3.9-3.4,6.3-5.6c8.4,5.5,18,5,27.3,6.2c4.5,0.6,8.8,3.5,14,5.6c-8.8,11.1-17,21.9-25.8,32.3
		c-1.9,2.2-5.6,3.4-8.7,3.9c-44.8,7.7-89.7,15.3-134.6,22.8c-3.4,0.6-7.3,0.4-10.6-0.6c-48.2-13.9-96.4-28-144.6-42.1
		c-6.6-1.9-9.7-5.7-9.5-14.2c0.2-10.3-3.6-18-11.7-23.9c-1.3-1-2.6-2.2-3.5-3.5c-5.1-7.7-12.3-11.9-21.7-12.6
		c-0.7-1.8-1.6-3.3-1.8-4.8c-0.6-4.6-2.7-7.5-7.2-9.6c-6.5-3-8.6-9.3-3.7-14.6c8.3-9,7.5-19.3,7.5-29.9c-0.1-15,0.2-30-0.1-45
		c-0.4-19.6-1.2-39.2-1.9-59.1c-14.5,1.4-19.7-9.2-25.7-18.7c3.9-5.2,7.3-9.9,12.2-16.4c-33-5.7-64.2-8.7-95.2-13.1
		c-30.8-4.3-61.6-8.1-94.3-12.4c8.8-6.9,7.3-14.6,6.3-22.2c-0.9-6.6-2.1-13.1-2.8-19.7c-1.1-10.3,6-17.1,16.5-17
		c5.2,0,11.2,0,15.3-2.5c5.1-3.2,8.8-0.3,13.7,0.8c4.6-12.5,9.2-24.6,13.7-36.7c25.5-69.3,51.1-138.5,76.5-207.8
		c2.6-7,6.4-12.9,11.8-18.1c10.7-10.4,20.6-21.8,31.5-32c5.2-4.9,11.8-8.5,18.3-11.9c5-2.7,8.7-6.2,10.2-11.6
		c2.3-8.4,8.2-13.4,16-17.5c4.4,8.3,11.6,9.6,20.2,8.4c12.2-1.6,22.5,4.1,33.1,9c10.4,4.8,20.4,11.3,32.8,11.1
		c0.9,19.3,11.1,34.1,20.8,49.2c3,4.6,4.6,10.2,7.1,15.1c1.8,3.4,3.7,7,6.2,9.8c5.1,5.7,10.9,10.5,14.7,17.4
		c2.9,5.5,8.5,6.6,13.5,2.7c3.5-2.7,6.4-6.7,8.6-10.6c2.5-4.5,5.2-8,10-10.6c6.1-3.3,11.5-7.9,17.4-11.7c7.7-4.9,15.4-7.4,23.4,0.1
		C3576,479.9,3580.8,481.8,3586.4,485.2z"/>
	<path onclick="modal(this.id);" id="119" class="st0" d="M3416.2,1345.2c-22.9,3.3-44.5,6.5-67.1,9.8c0-9.9-0.9-19.2,0.2-28.3
		c3.8-32.3,8.3-64.5,12.6-96.8c2.5-19.4,5-38.8,7.6-58.5c-2-1.2-3.6-2.5-5.3-3.1c-10.4-3.3-14.9-11.4-18.1-20.9
		c-1.6-4.8-3.9-9.4-6.6-15.9c0.3-0.5,1.4-2.8,3-4.8c9.2-12.2,18.6-24.3,27.9-36.5c2.2-2.8,4.9-5.2,3.8-9.7c-0.4-1.6,1.4-4.2,2.8-5.8
		c3.6-4.3,7.6-8.3,11.8-12.7c21.4,6.3,43,12.7,64.7,19.1c28.7,8.4,57.4,16.9,86.2,25c3.7,1,8,1,11.8,0.4
		c44.8-7.6,89.6-15.5,134.5-23.1c5-0.8,8.4-2.8,11.4-6.8c5.8-7.7,11.7-15.4,18.2-22.5c6.9-7.6,14.4-14.5,21.7-21.7
		c13.3,13.3,17.8,14.6,32.8,9.5c2.9,6.2,6.4,12.2,8.6,18.8c2.8,8.4,7.1,15,16.3,18.4c-2.6,16.5,9.6,27.5,15.6,40.8
		c2.6,5.7,9.4,9.3,13,14.7c3.3,4.8,6.9,10.7,7,16.1c0.4,16.9,9.1,30.4,15.9,44.6c6.7,13.9,16.8,25.6,27.2,36.8
		c4.9,5.3,12.3,8.7,18.9,12.1c4.2,2.2,6.1,5.1,7.7,9.5c2.7,7.4,6.3,14.7,10.5,21.4c3.3,5.2,3,9.1-0.7,13.5c-1.5,1.8-3.1,3.5-4.4,5.5
		c-4.4,6.7-6.3,13.8-2.4,21.5c3.9,7.7,7.5,15.6,11.7,23.1c3.7,6.5,9.3,10.7,16.4,13.9c12.1,5.4,23.1,12.7,26.4,27.1
		c0.8,3.6,2.1,7,3.1,10.5c2.2,7.5,4.6,14.3,0.6,22.8c-3.8,8-3,17.5,1.7,26c1.9,3.4,2.5,7.4,4,11.9c-3.9,2.9-8,5.2-11.1,8.4
		c-3,3.2-5,7.5-7.8,11.8c-4.6-3.4-9.2-7.5-14.4-10.5c-5.1-2.9-10.7-5.3-16.4-7c-11.7-3.3-17.2-9.6-18-21.7c-0.1-2,0.1-4-0.1-6
		c-0.8-8.7-2.7-10.5-11.6-11.1c-25.8-1.8-51.6-3.7-77.5-5.3c-11.3-0.7-11.7,0-9.7,11.8c0.2,1.3,0.1,2.6,0.2,3.1
		c-7.6,0.9-15,1.6-22.3,2.8c-10,1.6-17.6-1.1-23.8-12.2c-2.5-4.5-5.2-6.9-10.2-8c-56.9-12-113.7-24.2-170.6-36.3
		c-10.9-2.3-16.2,0.4-21.5,10.7c5.4,9.8,17,5.6,24.7,10.8c-0.8,4.4-3.4,6.3-7.5,6.7c-4.9,0.5-9.9,1.1-14.8,1.9
		c-2.2,0.4-4.9,0.7-6.5,2.1c-4.1,3.6-8.7,4.3-13.8,4.8c-5.6,0.6-9.8,2.9-13.6,8.3c-5.5,7.9-12.6,14.6-23.9,15.2
		c-7.1,0.4-13.5-0.3-20.2-2.5c-15.5-5-31.1-9.4-47.7-14.3C3424.8,1391.7,3420.6,1368.9,3416.2,1345.2z"/>
	<path onclick="modal(this.id);" id="126" class="st0" d="M2674.7,2548c11.6,6.8,15.2,16.8,15,28.9c-0.1,3.5,2.3,6.9,3.2,10.4c0.9,3.5,1.4,7,2.5,13
		c-3.4-3-4.9-4.5-6.5-5.8c-6.4-5.3-12.5-10.6-21.1-12.6c-11.3-2.7-12.4-5.8-11.2-17.6c0.3-3.2-1.8-6.8-3.1-10
		c-2-5.1-4.2-10.3-6.6-15.3c-2.4-5-4.2-10.6-7.8-14.6c-6.2-7-16.9-7.2-23.9,0.3c-7.1,7.4-14.3,12-24.9,11.4
		c-5.5-0.3-11.1,2-16.6,2.8c-4.6,0.7-7.2,3.2-7.7,7.8c-1,10.5-5.2,19.8-10.6,28.7c-1.3,2.1-1.5,5-2.1,7.5c-0.7,2.8-1.2,5.7-2,9.4
		c-2.4-0.4-4.2-1.1-5.9-1c-6.5,0.3-10.4,5-7.6,10.6c6.8,13.5,4.3,27.2,2.1,41c-0.9,5.8-1.5,11.7-2.4,18.8
		c-18.7,1.1-36.7,2.1-55.3,3.2c-5.1-18.3-10.1-35.8-14.7-53.5c-0.5-2.1,0.6-5.2,1.9-7.1c2.5-3.5,5.9-6.3,8.7-9.6
		c2.1-2.5,4.7-5,5.6-7.9c2.3-8.3,7.4-14.4,14.9-17.8c7.8-3.6,10.6-10.5,11.7-17.4c1.3-8.3-3.9-15.5-9.7-20.9
		c-3.9-3.7-9.4-6.1-14.7-7.8c-12.1-3.8-13.9-5.7-13.4-18.1c0.1-2,0.2-4-0.1-6c-1.6-10.1-3.4-20.2-5.2-30.2
		c-0.9-4.9,1.5-8.2,4.6-11.4c3.2-3.3,6-6.9,8.8-10c-4.8-11.1-11.8-14.8-22.3-12.5c-4.5,1-9,2.3-13.6,3.3c-9.6,2-14.8-1.6-15.7-11.2
		c-0.9-9.4-3-18.2-8.3-26.3c-1.4-2.1-1.2-5.1-1.9-7.6c-1.7-5.7-2.4-12.1-5.6-16.9c-5.1-7.5-7.1-14.8-3.2-24c9-1,17.3-5.3,25.2-11.1
		c4.5-3.3,10.6-3.5,16.2-1.9c22.2,6.2,41.5-1.2,59.1-13.5c4.9-3.4,8.4-10.6,9.9-16.7c3.5-14.5,12.9-23.7,24.8-30.9
		c8.8-5.3,15.9-11.6,18.6-22.2c1.4-5.4,3.9-10.7,6.9-15.3c4.2-6.6,3.3-12.8-0.8-18.5c-2.8-4-6.3-7.9-10.2-10.9
		c-3.6-2.9-4.6-6-4.5-10.3c0.4-11.3-0.4-22.5,2.3-33.8c1.1-4.6-0.7-10.6-3-15.1c-7.3-14-7.6-13.7-23.5-12.9c-7,0.4-14,1-20.9,0.4
		c-5.2-0.5-10.4-2.3-15.2-4.4c-10.6-4.7-20.3-4.8-30.1,2.1c-4,2.8-8.9,4.3-13.3,6.5c-4.2,2.1-8.7,3.7-12.3,6.6
		c-8.1,6.5-17.7,9-27.4,11.5c-2.6,0.7-5.7-0.1-8.5-0.5c-1.2-0.2-2.4-1.2-3.5-1.8c-17.4-9.7-34.7-19.5-51.5-28.9
		c1.8-6.7,3.6-12.6,5.1-18.6c2.2-9.3,4.4-11,14.7-11.3c2.6-0.1,5.2-1,8.1-1.5c3.8,6.7,10.1,6.7,17.3,6.2c3.5-7.2,7.7-14.4,10.5-22.1
		c2.8-7.8,8.5-11.5,15.6-11.8c6.5-0.3,11.8,3,14,10.4c1.4,4.6,8.1,6,13.7,4.7c5.1-1.1,10.3-1.5,15.4-2.3c2.3-0.3,4.6-0.6,6.7-1.2
		c40.2-12.8,80.5-25.5,120.7-38.7c9.4-3.1,18.9-6.8,27-12.3c6-4.1,10.1-11.2,14.4-17.5c2.8-4.1,4.3-9.1,6.8-14.5
		c41.2,0.6,83.7,1.3,126.7,1.9c1.8,6.2,3.8,13.1,5.9,20.1c-5.1,10.2-9.9,20.9-15.7,30.9c-3.6,6.1-3,11.1,0.3,16.7
		c1.5,2.6,3.4,5.1,4.3,7.8c2.4,6.7,3.4,13.6-1.3,19.9c-4.2,5.7-5.1,11.9-3.2,18.8c1.1,3.8,1.2,7.9,1.7,11.8
		c2.6,18.8,9.1,35.8,22.3,50c12.8,13.9,25.6,27.9,38,42.2c3.2,3.7,5.8,8.1,8,12.5c3.1,6.4,4.2,12.9,1.5,20.2
		c-2.7,7.1-4,14.8-5.8,22.2c-2.8,11.5-2.8,11.5-13.3,20.4c-7-2.1-14.3-4.3-21.5-6.5c-1.6-0.5-3.2-1.1-4.8-1.4
		c-9.8-1.8-13.8,1.5-13.8,11.5c0,0.7-0.1,1.4,0.1,2c6.4,22.9,4.2,47.4,13.5,69.7c0.7,1.8,1.7,4.1,1.1,5.7c-3.7,9.6-1.3,19.7-2,29.5
		c-0.5,6,0.7,12.5,6.1,17.2c2.1,1.8,4.2,4.9,4.2,7.4c0,7.8,2,15.6-1.3,23.6c-3.9,9.3-1.4,19,0.8,28.4c0.8,3.5,1.8,7.1,2.8,11.1
		c-7.4,7-14.9,14-22.4,21c-5.3,5-10.6,10.1-16.3,14.6c-10.7,8.6-22.9,11.8-36.5,9c-6.5-1.3-13-3.6-19.4-3.5
		c-6.1,0-12.5,1.8-18.1,4.2C2677.5,2539.5,2676.7,2544.2,2674.7,2548z"/>
	<path onclick="modal(this.id);" id="117" class="st0" d="M3339.4,331.2c6.1,7.6,13.1,8.8,21.6,7.8c0.6,9.6,1.2,18.8,1.8,27.9c0.1,2-0.3,4.2,0.5,5.9
		c3.1,6.5,0.7,10.8-5,14.1c-6.3,3.7-10.7,8.9-12.6,16c-1.2,4.5-3.9,7.8-8.1,9.6c-11.9,5.1-20.9,13.8-29.3,23.4
		c-7.4,8.5-16.1,15.8-23.7,24.2c-3.9,4.3-7.5,9.4-9.6,14.8c-14.9,39.2-29.4,78.5-43.9,117.8c-14.5,39.3-28.9,78.7-43.3,118
		c-0.8,2.2-1.9,4.2-2.4,5.3c-5.5,1.3-10.1,2.4-14.8,3.5c-2.9,0.7-6,2.2-8.7,1.7c-8.4-1.4-15,0.9-20.4,7.3c-1.1,1.2-2.6,2.1-4.5,3.6
		c0.8,6.9,1.6,14.1,2.5,21.3c0.2,1.3,0.8,2.6,0.9,3.9c0.9,9.6,3.2,19.6-7.5,27c31.7,5.9,62.8,9.4,93.8,13.6
		c31.1,4.2,62.3,8.2,95.4,12.6c-4.3,5.4-7.6,9.7-11.2,14.2c7.1,10,12.3,21.5,27,23.1c0.2,1.4,0.6,2.9,0.6,4.5
		c0.3,35.3,0.4,70.6,0.8,105.9c0,4.8-0.3,9.4-3.7,13c-5.3,5.7-5.9,12.3-4.3,19.8c1.9,1.1,3.8,2.4,5.9,3.4c3.2,1.5,5.5,3.1,5.5,7.3
		c0,5.6,3.7,8.4,8.9,8.9c6.1,0.6,10.4,3.8,14,8.5c2,2.6,4.4,4.9,6.9,7c5,4.3,8.2,9.3,8.1,16.2c-0.1,3.2,0.8,6.5,1.9,9.6
		c2.2,6.7,1.2,12.3-4.1,17.1c-2,1.8-3.9,3.7-5.6,5.7c-1.1,1.2-2.9,3.1-2.5,4c2.4,6.5-2.6,9.9-5.7,13.9
		c-20.2,26.5-40.5,52.8-60.7,79.2c-1.8,2.4-3.7,4.6-6.3,7.8c-3.8-1.1-8.2-1.7-11.8-3.6c-5.3-2.7-10.2-1.8-13.7,1.8
		c-4.3,4.5-8.9,3.4-14.2,3.3c-0.5-3.4-1.1-6.3-1.2-9.2c-0.8-16.9-1.5-33.9-2-50.8c-0.1-4.8-1.2-8.4-5.4-10
		c-8.9,1.8-5.8,13.8-15.4,15.6c-3.8-4.1-7.7-8.5-11.8-12.8c-3.2-3.3-6.6-8.3-11.5-6.1c-5.1,2.3-10.7,5.7-11.8,12.5
		c-0.4,2.6-1.5,5.3-1.3,7.8c0.5,8.4-3.6,13.7-10.5,17.6c-2.8,1.6-5.2,3.8-8.5,6.2c-0.8-2.6-2-4.5-1.8-6.2c0.8-6.4-2.9-9.8-7.4-13
		c-8.5-6-18-9.3-28-12.4c-14-4.4-28.2-7.1-42.5-9.7c-30.1-5.4-60.1-11.2-90.1-16.8c-7.1-1.3-8.7-0.2-11,6.5
		c-4.1,12.3-3.4,23.5,6.8,32.8c1,0.9,1.7,2.1,2.3,3.2c6.4,12,4.6,15.1-8.8,15c-28.3-0.2-56.6-0.4-84.9-0.7c-3.2,0-6.4-0.7-9.7-1.1
		c0-8.9-0.3-16.8,0.1-24.7c1.2-26.2,2.6-52.4,3.9-78.6c0.5-9.3,0.5-18.6,1.7-27.8c0.8-6.6-1.1-10.3-6.8-13.7
		c-16.3-9.7-32.2-20.1-48.2-30.3c-1.6-1-3.1-2.3-4.7-3.6c5.3-7.1,11.4-8.8,19.1-5.2c6.7,3.1,13.7,3.5,21.3,3.2
		c6.5-0.3,14,1.8,19.7,5.1c9,5.2,18,10.1,28,12.6c9.2,2.3,15.3,9,21.6,14.7c1.6-0.4,2.8-0.3,3.5-0.8c13.5-10.7,27-21.5,40.4-32.4
		c1.8-1.4,2.9-4.2,4.9-4.9c12.9-4.8,17.5-17.8,26.4-26.5c4.7-4.6,1.6-11.6-1.5-15.5c-4.9-6.2-4.8-12.2-2.7-18.7
		c6.3-19,3.2-37.1-3.7-55.3c-3.2-8.4-6.7-17-3.7-26.9c1.8-5.9,5.5-9.7,9.4-13.7c4.8-5,10.6-9.3,11.7-16.9c0.5-3.6,1.1-7.2,1.2-10.8
		c0.3-6,2.2-11.1,7.5-14.3c11.3-6.7,17.3-17.4,21.2-29.2c2.7-8.4,6.9-15.7,12.6-22.3c3.7-4.2,7-8.9,10.8-13.1
		c3.6-3.8,7.6-7.3,11.6-10.6c2.8-2.3,6.3-3.8,9.1-6c4.9-3.8,7.7-8.3,7.4-15.3c-0.6-16-0.1-32-0.3-48c0-5.1,0.2-9.6,4-13.7
		c2.3-2.6,3.1-6.5,4.8-10.2c1.9-0.3,4.2-0.8,6.5-1.2c8.3-1.5,9.9-3.8,8.2-12.3c-2.2-10.9,0.6-15.5,10.9-19.5
		c3.6-1.4,7.5-3.5,9.9-6.4c9.6-11.5,21.9-19.1,35.1-25.5c8.6-4.2,8.1-4.1,8.4-13.5c0.5-15.6,1.6-31.2,2.7-46.7
		c0.8-11.2,2.9-22.5,2.8-33.7c-0.1-9.6,3.4-17.1,10.5-22c7.9-5.5,12.1-12.9,15.2-22.3c12.5,3.4,21.5-1.2,26.2-12.9
		c4.2,3.6,6.9,6.6,10.2,8.7c7.8,4.9,17.1,1.1,17.9-8c1.4-15,10-23.1,23-28.2C3330.8,348.7,3339,343.7,3339.4,331.2z"/>
	<path onclick="modal(this.id);" id="120" class="st0" d="M3369.5,1455.7c2.4,9-3.5,13.9-11.4,16.9c-3.9,1.5-5.8,4-7.3,7.5c-3.9,8.8-7.9,16.8-17.4,22
		c-9.6,5.3-8.4,19.5,0.6,26.4c5,3.8,9.7,8,14.3,12.2c3,2.7,4,6.4,2.3,10c-2.9,6-5.4,12.5-9.8,17.2c-4.9,5.3-7.5,11.3-7.8,17.7
		c-0.6,13.1-2.6,26.7,5.8,38.7c1.4,2,1.6,5,1.8,7.6c0.5,7.6,3.7,13.5,10.3,17.2c5.8,3.2,11.8,6,18,8.4c7,2.8,8.9,5.4,7.7,12.7
		c-2,11.7-3.8,23.5-6.2,35.2c-0.5,2.6-2.8,5.1-4.9,7c-2.1,2-5,3.2-7.5,4.8c-5.1-2.2-10.4-4.2-15.4-6.8c-4-2.1-7.5-1.3-11.4,0.1
		c-4.3,1.4-8.9,2.1-13.4,2.7c-7.2,0.9-14.5,1.2-21.8,2.3c-1.9,0.3-4,2.1-5.3,3.8c-1.6,2.1-2.4,4.7-3.5,6.9c-3.5,1.8-6.4,0.8-7.9-2.2
		c-1.9-3.8-4.6-7.9-4.5-11.8c0.3-8.9-3.3-15.3-9-20.2c1-5.7,2.2-10.8,2.7-15.9c0.6-6.4-1.9-9.3-8.1-9.5c-4.3-0.2-8.7,0.3-12.9,1.1
		c-6,1.1-6,1.4-12.6-2.6c2.5-7-1-11.8-6-16.9c-27.3-28.2-54.4-56.6-81.3-85.2c-7.6-8.1-15.9-11.1-26.8-9.1
		c-4.3,0.8-9.1-0.6-13.5-1.7c-4.1-1.1-8-3.2-12.3-4.9c-2.3,1.9-4.4,4.1-7,5.5c-1.9,1-5.2,1.9-6.4,0.9c-4.4-3.6-9-3.1-13.9-1
		c0.4-6.8,0.7-12.9,1-19c-4.7-1.9-8.7-3.6-11.3-4.6c-3.2-6.5-6-12-8.6-17.6c-1.1-2.3-1.9-4.9-2.3-7.5c-2.5-17.4-6.5-34.8-6.8-52.2
		c-0.3-17.7-3.4-34.8-5.3-52.1c-0.7-6.2,3.1-9,7.2-11.9c20.7-15.1,41.4-30.2,62.1-45.3c10.5-7.6,21.1-15.2,31.4-23
		c3.4-2.6,6.3-5.8,9-9.1c23.3-28.6,46.7-57.2,69.8-86c2.8-3.5,5.6-4.8,10-4.9c21.3-0.7,42.5-1.6,63.8-2.6c8.9-0.4,17.7-1.3,26.9-2.1
		c0-8.6,0-16.8,0-24.7c-4.8-2.6-9.1-5-14.5-7.9c12-15.7,23.4-30.6,35.7-46.8c2.7,3.7,5.9,6.3,6.4,9.3c2.5,13.5,9,23.4,23,27.8
		c-0.2,3.6-0.1,6.9-0.5,10.1c-4.2,32.6-8.7,65.1-12.6,97.8c-2.7,22.7-7.9,45.2-6.9,68.3c0.1,3.2,0,6.4,0,10
		c23.5-2.7,45.7-5.2,68.5-7.8c3.7,19.6,7.2,38.4,10.8,57.3c0.6,3.4-1,5.5-3.8,7.3c-8.1,5.2-16,10.9-24.2,16
		c-6.8,4.2-12.7,9.2-17.4,15.7C3376.9,1449.8,3373.6,1452,3369.5,1455.7z"/>
	<path onclick="modal(this.id);" id="121" class="st0" d="M3554.6,1797.6c-9.5,5.8-6.4,15.6-8.6,24.1c-3.5,1.3-6.8,1.5-7.1-3.3
		c-0.7-10.1-3.3-18.5-12.4-25.1c-7-5.1-11.7-13.2-18.1-20.8c-12.5,11-24.4,21.4-36.3,31.9c-5.4-6.4-0.8-17.7-12.9-20.2
		c-2.5,3.5-5.6,7.2-8.1,11.3c-4.8,7.8-14.3,9.4-20.8,3.2c-1.9-1.8-3.4-4-5.2-6c-6.5-7.5-13-15-19.6-22.4c-3.5-3.9-7.3-7.5-10.8-11.4
		c-3.3-3.7-7.8-5.1-12.5-3.3c-3.1,1.2-6,3-9.1,3.9c-1.8,0.5-4-0.2-6.8-0.5c4.1-6,7.4-10.8,11-16.1c-6-7.6-11.6-14.8-16.8-21.5
		c1.1-1.8,1.3-2.7,1.8-2.9c8.6-3.8,11.5-10.5,12-19.7c0.6-9.5,3.6-18.8,5.4-28.2c1.7-8.9-1.5-12.9-10.1-16
		c-6.5-2.3-12.7-5.7-18.5-9.4c-4.9-3.2-7.4-8.2-7.7-14.4c-0.1-2.9-0.7-6-2.1-8.5c-7.2-13.4-7.4-27.3-3.8-41.5
		c0.7-2.8,2.6-5.2,4.1-7.8c3.9-6.9,8.1-13.7,11.9-20.6c2.3-4.2,1.7-8.5-1.6-12c-4.4-4.5-8.5-9.7-13.9-12.6
		c-11.9-6.6-8.5-21.1,0.9-25.4c7-3.1,9.5-9.9,12.5-16.1c2.7-5.5,5-10,11.6-12.4c7-2.6,12.1-8.4,10.2-16.6
		c5.3-4.9,10.5-9.1,14.8-13.9c9.5-10.6,22.5-16.4,33.8-24.5c1.8-1.3,5.1-1.4,7.4-0.8c17,4.7,33.8,10,50.7,14.7
		c12.1,3.4,24,3.7,33.9-6.1c3.9-3.9,7.4-8.4,11.7-11.8c2.6-2.1,6.3-3.6,9.7-4c5-0.7,9.4-1.9,13.8-4.8c3.6-2.3,8.7-2.7,13.2-3.3
		c7.5-1,15.3-1.2,19-9.9c-5.3-10.4-18.8-3.6-24.8-11.9c4.4-7.5,8.7-9.3,18.1-7.3c20.8,4.4,41.6,8.9,62.4,13.4
		c34.1,7.3,68.2,14.8,102.3,21.9c6.3,1.3,10.6,3.8,14,9.5c6.6,10.8,17.5,15.2,29,10.7c7.1-2.8,13.7-1.9,20.1,2.8
		c0.2,3,0.3,6.3,0.5,9.6c0.6,9.8,0.4,10-10.8,11.3c-2.7-7-7.7-11.6-15.7-13c-9-1.5-11-0.8-16.8,8.9c-9.6-1.8-15.3,5.8-22.4,10.5
		c-2-0.7-3.9-1.5-5.8-1.8c-8.4-1.5-16.4-1.7-23.1,5.4c-3.1,3.3-7.3,5.9-11.4,7.8c-9,4.2-13.7,11.4-15.5,20.7
		c-1.9,9.8-3.5,19.6-4.5,29.5c-0.7,7-3.6,12.6-7.4,18.2c-4.8,7.1-8.8,14.8-13.7,21.8c-7.6,11-11.1,24.2-21.3,34.2
		c-8.2,8-6.9,20.6-1.6,30.9c4.8,9.1,5.6,18,3.2,27.7c-1,4.1-0.8,8.6-0.7,12.9c0.7,19-9.9,29.7-28.6,36.9c-3.7,1.4-7.5,2.6-11.2,4
		c-13.6,5.1-27.3,10-40.8,15.6c-12.1,5-17.1,14.4-16.1,27.7C3539.8,1767.3,3545.5,1782.3,3554.6,1797.6z"/>
	<path onclick="modal(this.id);" id="125" class="st0" d="M3424.3,2172c-1.8,0.2-3.5,0.4-5.1,0.7c-7.4,1.1-10.7,3.9-11.8,11.2c-0.5,3.6-0.8,7.4-0.1,10.9
		c2.3,10.9-3,19.1-8.5,27.4c-2.9,4.3-6.5,5.6-11,2.9c-9.2-5.6-19.1-9-29.9-10.1c-3.3-0.4-6.7-3-9.4-5.3c-5.8-5-12.3-7.6-19.7-8.8
		c-9.8-1.6-14.7-7.5-13.6-17.2c0.5-4.9,2.2-9.7,3.9-14.3c2.2-5.9,1.1-11.1-2.5-15.9c-1.3-1.7-3.5-3.2-5.5-3.8
		c-5.7-1.7-11.5-3.2-17.4-4c-4.3-0.5-8.9,0.3-14.4,0.5c0.5-3.1,1.1-6.8,1.8-10.6c0.7-3.9,1.4-7.8,2.3-11.6
		c3.1-13.4-0.5-26.2-2.4-39.3c-2.4-16.1-16.2-31.1-34.4-31.7c-16.3-0.6-32.6,0-48.9,0.4c-11.9,0.3-20.2,6.6-24.4,17.4
		c-3.3,8.4-8.3,14.1-17.2,16.3c-2.2,0.5-4.6,1.5-6.2,3.1c-11.6,11.8-27.9,13.3-42.2,19c-8.6,3.4-17.6,5.7-26.5,8.5
		c-0.9-1.3-1.8-2.1-1.9-2.9c-1.6-18.2-13.7-29.7-26.2-40.8c-3.5-3.1-7-6.1-10.6-9.1c-2.6-2.1-3.6-4.4-2.1-7.8
		c1.9-4.2,3-8.8,4.9-12.9c1.4-2.9,3.1-6.2,5.6-8c7.8-5.6,16-10.8,24.3-15.5c2.3-1.3,5.8-0.8,8.7-0.6c7.9,0.8,9.1-0.5,7.2-8.3
		c-0.1-0.6,0.1-1.3,0.2-2.7c1.8-0.6,3.8-1.6,5.9-2c6.3-1.3,12-3.2,16.9-7.8c5.3-5.1,12.2-6.7,19.4-6.2c18.8,1.4,21.9-9.8,21-23.6
		c-0.1-1.6-0.6-3.2-0.9-4.9c-3.2-17.8,7.4-30.2,25.6-31.1c8.2-0.4,16.5-2.1,24.4-4.4c6.1-1.8,10.2-0.5,13.9,4.2
		c1.6,2.1,3.8,3.6,6.5,6.1c6.4-7,13.1-13.3,18.6-20.6c5.9-7.7,13.4-12.7,22.3-15.9c3.4-1.2,6.7-3,10.1-4.3c4.5-1.8,7.7-4.8,10-9.2
		c8.2-15.3,16.8-30.3,24.7-45.6c3-5.9,5.4-12.2,7.1-18.6c2.5-9.5,8.3-16.5,14.8-23.1c11-11.1,22.3-22,33.1-33.3
		c5.6-6,13.5-6.7,20.2-10.2c1.3-0.7,4.7,0.7,6.1,2.2c9,8.8,17.8,17.7,26.4,26.9c4,4.3,6.9,9.7,11.1,13.8c7.5,7.3,19.7,5,25-4
		c1.8-3.1,4.1-6,6.5-9.4c8.7,5.1,4.2,15.2,9.8,22c13.8-9.5,24.5-22.7,38.4-32.5c4.8,5.6,9.6,11.1,14.3,16.6c0.6,0.8,1.1,1.7,1.8,2.4
		c5.7,6.8,9.3,14.7,11.4,24.5c0.3,1.3,1,2.4,1.6,3.7c3.5,0.9,6.9,1.7,11.3,2.8c-9.8,10.5-11.9,23.1-13.3,35.5
		c-2.2,19.5-15.1,27.5-31.6,32.6c-3.8,1.2-7.7,2.2-11.4,3.5c-10.2,3.7-16.7,10.6-18.8,21.4c-0.6,3.3-1.1,6.6-1.7,9.8
		c-1.6,7.7,1.1,13.7,7.2,18.3c3.2,2.4,6.3,4.7,9.7,7.2c-1.3,2.3-2,4.2-3.1,5.7c-4.1,5.3-5.5,11.2-5.1,17.8c0.2,3.9,0,7.5-2.9,11.1
		c-8.8,11-8.5,23.4,0.3,34.3c0.8,1,1.7,1.9,2.6,2.8c-0.8,2.5-1.9,4.7-2.2,6.9c-0.9,5.5-4.4,7.6-9.4,8.6c-7.5,1.5-13.4,5.5-17.2,12.2
		c-4.3,7.5-8.9,14.9-12.5,22.7c-2.9,6.3-3.3,12.8,2.8,18.2c3.5,3.2,4,7.1,1.8,11.8c-1.5,3.1-2.5,7.4-1.6,10.5
		c1.9,6.4-0.3,11.1-4.2,15.5c-7.1,8-10,18-13.4,27.6C3423.3,2164.3,3424.3,2168.2,3424.3,2172z"/>
</g>
</svg>
