<?xml version="1.0" encoding="utf-8"?>
<!-- Generator: Adobe Illustrator 19.0.0, SVG Export Plug-In . SVG Version: 6.00 Build 0)  -->
<svg version="1.1" id="Layer1" xmlns="http://www.w3.org/2000/svg" xmlns:xlink="http://www.w3.org/1999/xlink" x="0px" y="0px"
	 viewBox="0 0 4200 2100" style="enable-background:new 0 0 4200 2100;overflow: hidden; display: inline; width: inherit; min-width: inherit; max-width: inherit; height: inherit; min-height: inherit; max-height: inherit;" xml:space="preserve">
<style type="text/css">
	.st0{fill:#8FD4EB;stroke:#000000;stroke-width:2;}
</style>
<g>
	
	<path onclick="modal(this.id);" id="1041" class="st0" d="M2002.3,1864.2c-2.8-1.9-5.2-3.5-7.3-4.9c0-10.1,0.9-20-0.4-29.6c-0.7-5.1-4.5-10.1-8-14.3
		c-3.8-4.6-8.8-8.2-13.1-12.4c-4.1-4.1-7.9-8.6-12-12.9c-5.3-5.6-10.4-10.2-19.5-10.6c-12.5-0.6-13.1-2.3-17.9-16.4
		c-1.8-5.4-4.6-9.5-8.8-13.6c-8.3-8.3-13.6-18.7-14.3-30.8c-0.8-12.3-4.1-23.3-13.7-32c-3.4-3-5.5-7.4-8.4-11.6c3.4-2.8,6-4.8,8.4-7
		c5.7-5.2,9-11.9,10.7-19.4c0.8-3.5,6.3-8.4,9.6-8.7c3.9-0.3,6.8,5,5.1,9.7c-1,2.9-2.1,5.8-3.4,8.6c-2.7,5.5,1.5,8.2,4.7,10.9
		c3,2.6,5.4,0.3,8-1.6c5.6-3.8,9.2-8.4,10.2-15.4c0.9-6.6,4.3-10.8,12.1-11.7c5.1-0.5,10.1-3.7,14.7-6.3c4.5-2.6,3.9-6.3-0.6-9.6
		c-8.7-6.4-16.4-13.9-18.7-24.8c-1.2-5.8-1.1-12.5,0.7-18c2.8-9,0.1-17.7,0.6-26.5c0.5-8.7,0.9-17.5,2.5-26c1.3-6.9,4-13.8,7-20.2
		c3.3-6.9,7.7-13.2,11.6-19.9c1.2-2.1,2.3-4.4,2.8-6.7c1.4-6.8,4.4-9.3,11.7-9.7c5.9-0.3,11.8-0.6,17.6-1.7
		c9.2-1.7,14.7-8.7,18.8-16.1c3.8-6.8,8.7-11.1,15.4-14.3c11.5-5.5,22.8-11.3,34.3-16.8c5.6-2.6,11.7-4.1,16.9-7.3
		c4.6-2.9,8.3-7.2,12.1-11.2c3.6-3.8,6.9-7.9,10.2-12c1.9-2.4,4-4.9,5-7.8c1.8-5.6,5.3-9.6,10-12.8c3.5-2.4,7.1-4.8,10.1-7.7
		c1.2-1.2,1.5-4.1,1-5.9c-1.4-5-4.8-8.6-8.8-12c-7.5-6.5-14.5-13.7-21.9-20.8c1.3-2.7,3.7-3.8,7.3-3.7c12.1,0.3,24.1,0.3,36.1-2.5
		c2.6-0.6,6.5,2.8,9.3,5c1.5,1.2,1.9,3.7,2.6,5.7c2.6,7.2,8.9,10.4,16.2,8c2.9-1,5.2-1.1,6.6,2.5c0.8,1.9,2.4,3.5,3.8,5.1
		c0.9,0.9,2.2,2.4,3.1,2.2c7.8-1.3,10.7,4.1,13.7,9.5c0.1,0.3,0.5,0.4,1.4,1c1-1.6,2.3-3.1,2.8-4.8c2.1-7.6,5.1-15.3,5.7-23.1
		c0.5-7.5-0.7-15.4-2.7-22.8c-1.4-5.1,0.2-7.3,4-9.7c8.5-5.4,17.2-10.7,25.2-16.8c8-6.1,13.5-14.5,17.8-23.6
		c2.6-5.6,5.1-11.2,8.1-17.8c12.4,8.1,23.9,15.6,35.3,23.2c3.8,2.5,7.4,4.1,11.8,1.5c2-1.1,4.4-1.4,6.3-2.5
		c8.3-4.9,16.4-0.9,24.5,0.6c15.2,2.9,30.3,6.3,45.5,9.3c4,0.8,7.3-0.3,10.4-3.8c1.7-2,5.5-2.2,8.4-3.1c7.3-2.1,15.4-1.3,21.9-6.1
		c3.2-2.3,6.4-4.7,9-7.6c8.1-9,17.7-15.8,27.8-22.4c19.2-12.7,40.4-21.2,61.4-29.9c12.6-5.2,25.2-10.7,37.2-17.1
		c5.5-2.9,9.5-8.5,14.8-13.5c6.8-0.2,8.3,6.2,10.6,11.6c5.8,13.7,12.6,26.9,22.1,38.6c2.8,3.4,5.7,4.6,9.8,2.2
		c2.9-1.7,6.2-2.8,9.1-4c14.8,6.7,22,20.3,29.9,33.1c7.4,12,13.6,24.7,21.1,36.6c5.8,9.1,12.9,17.5,23.6,21.3
		c4.2,1.5,3.8,3.8,2.5,7.2c-4.8,12.8-9.9,25.5-13.5,38.6c-1.5,5.5,0,12.1,1,18.1c0.7,4,2.7,7.9,4.3,11.7c3.9,9.2,3.8,18.3-1.9,26.6
		c-9.8,14.5-13.6,31.2-18.9,47.5c-1.3,4-2.9,8-3.8,12.1c-1.6,7.1-2.7,14.4-4.2,21.6c-1.9,9.6-4,19.1-6,28.7
		c-3,13.8-6.2,27.6-8.8,41.6c-0.8,4.1-3.4,5.6-6.1,7.6c-2.1,1.6-4.7,3.3-5.8,5.6c-4.6,9.3-11.8,17.6-11.4,28.8
		c0.1,3.6,0.6,7.3,1.8,10.6c4.1,12,10.5,22.8,21.7,29.5c4.4,2.6,10.1,3.2,15.2,4.4c4,0.9,8,1.9,12.1,1.8c4.6-0.1,5.7,3.1,7.3,6
		c6.6,11.8,13.1,23.7,19.5,35.4c-3,2.6-6.2,5.5-9.6,8.1c-0.8,0.6-2.6,0.8-3.5,0.4c-3.4-1.6-5.5,0-7.8,2.4
		c-6.8,7.2-10,15.6-10.7,25.5c-0.6,9.3-2.5,18.4-4,27.6c-0.2,1.1-0.8,2.3-1.6,3c-7.6,6.4-14,14.3-23.6,18.2c-2.1,0.8-3.4,3.6-5,5.4
		c-0.3,0.4-0.5,0.9-0.6,1.3c-1.6,9.1-6.8,13.5-15.9,16.3c-13.8,4.3-26.6,11.5-40.3,15.9c-14,4.5-26.1,11.7-37.4,20.6
		c-3.4,2.6-5.9,2.2-8.9-0.7c-13-12.3-24.8-25.5-34.7-40.4c-4-6-8.6-11.5-12.9-17.3c-2.6-3.5-5.7-4.3-9.9-2.5
		c-6.9,3-14.1,5.2-20.9,8.3c-2.2,1-4.5,3.3-5.3,5.6c-4.8,12.6-8.8,25.5-14,38c-4.2,10.3-10.5,18.9-20.1,25.7
		c-8.8,6.3-16,15.1-22.9,23.7c-2.5,3.1-2.1,8.7-2.8,13.2c-1.1,7.3-2.1,14.6-3.2,21.8c-0.1,0.8-0.7,1.4-1.3,2.5
		c-8.4-3.2-18.4-2.6-24.9-10.5c-3.9-4.7-8.2-9.1-11.5-14.1c-6-8.9-14.2-15.5-22.1-22.5c-0.2-0.2-0.5-0.4-0.7-0.7
		c-13.4-15.3-30.5-25.7-47.7-36.1c-4-2.4-7.7-3.7-12.4-3.9c-5.1-0.3-10.2-1.8-15.3-3c-1.1-0.3-2.2-1.5-2.9-2.6
		c-7.2-11.2-14.7-22.2-21.1-34c-4.1-7.8-11.1-16.1-22.6-14.2c-5,0.8-8.4-1.8-12.1-4.3c-6.2-4.1-12.7-8-19-12
		c-8.8-5.7-18-3.5-26.7-0.6c-7.1,2.3-14,1.9-21,1.7c-9.1-0.2-18.4-1.6-27.3-0.3c-5,0.7-9.7,5.2-13.9,8.8
		c-7.4,6.3-13.8,13.4-17.8,22.5c-5.4,12-12.4,23-22,32.4c-5.7,5.5-10.3,12.1-15.9,17.6c-3.3,3.2-7.4,6-11.7,7.7
		C2009.7,1849.7,2006.3,1856.8,2002.3,1864.2z"/>
	<path onclick="modal(this.id);" id="3132" class="st0" d="M1967.7,464.9c-2.2,3.3-3.7,7-6.5,9.1c-7.4,5.7-8,14.8-12.2,22c-2.9,5-5.5,10.6-9.5,14.7
		c-11.2,11.2-18.3,25-25.3,38.9c-0.8,1.5-1.4,3.6-1.2,5.2c1.6,9.4-3,16.8-7.6,24.2c-7.4,11.7-9.8,24.4-7.4,38
		c2,11.4,4.1,22.8,9.9,33c4,7,8.7,13.7,13,20.6c8.9,14.2,17.8,28.5,26.7,42.7c0.6,1,1.5,2.2,2.6,2.6c12.3,4.4,21.3,13.8,31.9,20.7
		c13.2,8.6,26.7,16.9,39.9,25.5c7.8,5.1,17.5,8.3,21.3,18c1.1,2.9,1.4,8.1-0.3,9.7c-5.7,5.5-12.2,10.4-19,14.3c-3.5,2-8.5,1-12.6,2
		c-4.9,1.2-9.6,3-14.2,5c-6.2,2.6-12.6,4.5-17.9,9.7c-6.6,6.5-8.8,14.8-12.3,22.7c-3.3,7.3-6.1,14.7-9.4,22.8
		c-3.8-9.1-7.9-17.2-10.5-25.8c-1-3.2,1.1-7.4,2.3-11c2.2-6.9,5.2-13.6,7.1-20.6c1.4-5.3,1.6-11,2.5-16.5c0.7-4.2,1.6-8.3,2.6-12.4
		c0.9-3.9,0.7-6.9-3.8-8.5c-3.8-1.3-7.5-3.2-11.1-5c-3.8-1.8-7-1.5-10.8,0.7c-13.5,7.6-27.4,14.6-40.9,22.2c-2.7,1.5-5.3,4-6.8,6.7
		c-6.6,11.5-9.7,24.2-11,37.2c-0.7,6.9-3.3,10.9-9.5,14.3c-12.2,6.6-23.8,14.3-35.4,21.8c-1.2,0.8-2.3,3.3-2.1,4.8
		c1.6,7.8,3.7,15.5,5.3,23.3c0.9,4.3,1.6,8.9,1.2,13.2c-0.2,2.2-2.7,4.6-4.8,6.1c-12.7,8.9-25.3,18-38.4,26.1
		c-5.8,3.6-12.9,5.1-19.8,7.7c-2.6-4.1-5.6-7.8-7.6-12c-2.4-4.9-7.4-6.1-11.3-8.7c-3.5-2.4-7.3-4.4-11.1-6.1
		c-1.3-0.6-3.7-0.4-4.8,0.5c-6.2,5-8.3,12.3-9.8,19.8c-1,5.3-1.3,10.7-1.9,16c-0.1,0.6-0.2,1.5,0.1,1.9c6,7,2.2,14.8,1.8,22.3
		c-0.3,4.8-0.7,9.5-1.1,14.3c-0.4,4.5-3.9,9-8.4,9.7c-7.4,1.3-14.9,2.3-22.3,3c-6.4,0.6-8.2,2.6-8.6,9c-0.8,13.8-2.2,27.6-3,41.3
		c-0.5,9.1-0.7,18.3-0.6,27.4c0.2,19.1,0.6,38.2,1,57.3c0,1.6,0.4,3.1,0.7,5.1c-7.9-2.1-15.6-4.2-23.2-6.3
		c-30.3-8.2-60.6-16.5-91-24.4c-3.1-0.8-7,0-10.2,1c-7.9,2.5-15.4,7-23.4,8.1c-5.4,0.7-11.8-2.3-16.9-5.2c-9.5-5.5-19.6-9.4-30.3-10
		c-5.4-0.3-11.1,2.1-16.4,4.1c-5.6,2.2-11,5.1-16.3,8.1c-12.5,7.2-23.8,5.9-34.6-3.5c-11.7-10.1-23.7-19.8-35.1-30.3
		c-12.6-11.6-24.6-23.8-36.9-35.7c-3.1-3-3.6-5.7-0.9-9.2c5.8-7.3,12.1-14.3,16.9-22.3c3.3-5.4,4.1-12.2,6.6-18.2
		c2.6-6.3,5.7-12.5,8.7-18.6c0.5-1,2-1.8,3.1-2.2c7.3-2.6,12.9-7.7,17.3-13.6c6-8.2,9-17.9,6.5-28c-1.4-5.6,0.1-9.9,2.5-14.5
		c3-5.6,6-11.3,8.9-16.9c3.5-6.8,0.3-13.2-1.6-19.6c-4.8-15.7-10.6-31.1-14.1-47.1c-2.6-11.8-0.1-23.1,9.5-32.6
		c7.8-7.6,15-16.3,20.5-25.7c7.3-12.3,7-25.9,0.8-38.9c-4.6-9.7-4.1-19.2-0.6-29c0.7-1.9,0.2-4.8-0.8-6.7
		c-4.5-8.3-9.3-16.5-14.1-24.7c-2.4-4-3.2-13,0-15.3c10.8-7.9,12.6-20.1,16.5-31.5c1.3-3.8,3.8-7.1,5.3-10.8c2-4.6,4-9.2,5.3-14
		c2.1-8.3,6.9-14,16.5-13.9c17.4,0.1,34.7-1.1,52.1-1.8c5.3-0.2,10.5-0.9,15.8-0.9c2.1,0,4.6,0.8,6.3,2.1
		c11,8.8,23.1,14.7,37.6,12.6c7.3-1.1,11.8-6.7,15.8-12.4c1.8-2.6,2.9-5.8,4.1-8.8c2.2-5.4,7.7-8.3,13.3-7c0.8,0.2,1.7,0.4,2.4,0.3
		c8.6-1.6,15.2,2.9,21.8,7.2c4.3,2.8,7.7,3.3,12.5,0c10.6-7.5,21.7-14.1,34.7-17.3c3.9-1,7.8-4.6,10.4-7.9
		c6.2-7.9,12.2-16.2,13.9-26.6c0.7-4.2,1.2-8.4,1.9-12.6c1-6.9,2-13.9,3.1-20.8c0-0.3,0.1-0.7,0.4-0.9c7.2-6.3,13.6-13.4,24.3-14.3
		c12.7-1.1,24.4,3.3,36.5,5.4c8.5,1.5,16.1,0.2,22.8-4.4c8.4-5.7,17.9-7.4,27.4-7.6c9.7-0.3,19.4,1.2,29.1,1.7
		c2.3,0.1,4.6-0.4,6.8-0.6c5.8-0.7,11.8-1.1,17.5-2.4c5.7-1.2,11.5-2.6,16.6-5.3c4.5-2.4,8.3-3.3,13.2-1.7c9.2,3,18.2-0.1,27-2.4
		c3.4-0.9,6.7-3.2,9.6-5.3C1949.4,466.8,1956.7,461.8,1967.7,464.9z"/>
	<path onclick="modal(this.id);" id="1034" class="st0" d="M2844.3,583.6c-8.6,6-15.9,11.1-23.1,16.4c-1.6,1.2-3.1,2.9-4,4.7c-4.2,8.8-8.2,17.7-12.2,26.6
		c-3.7,8-7.2,16.1-11.1,24c-1.8,3.6-4.6,6.7-6.8,9.9c-4.6-4.1-8.6-7.9-12.8-11.2c-1.7-1.4-4.2-3-6.1-2.8c-10.8,1.6-19.6-3.4-29-7.4
		c-14.9-6.4-30.3-11.7-45.4-17.8c-15.4-6.3-30.8-12.5-45.8-19.6c-12.2-5.8-24.9-5.3-37.7-5.2c-1.3,0-2.7,1.1-3.9,1.9
		c-10.9,7.5-21.8,15-32.6,22.6c-4.8,3.3-10,3.2-15,1.6c-8.5-2.8-16.7-6.6-25.3-9c-3.5-1-7.8,0.5-11.6,1.4c-4.3,1-8.7,1.9-12.6,3.8
		c-9.5,4.8-18.5,3.4-27.9-0.3c-6.7-2.6-13.5-5.3-21.4-3.3c-4.7,1.2-8.6-2.3-11.6-5.8c-2.8-3.4-4.9-7.4-7.8-10.6
		c-5.6-6.1-11.5-12-17.6-17.6c-2.1-2-4.9-3.4-8.3-1.2c-3.3,2.1-7.2,3.1-10.6,5c-5.9,3.1-12,3-18.3,2c-1.1-0.2-2.3-0.4-3.4-0.4
		c-7.5-0.2-7.8-0.6-10.6-8.2c-3.2-9-6.4-18.1-10-26.9c-2.8-6.7-8.3-10.7-15-13c-6.8-2.4-13.6-4.5-20.3-7c-1.5-0.6-3.5-1.7-4-3
		c-6-16-19.4-22.7-34.2-27.5c-3.3-1.1-7.3,0-10.9-0.5c-3-0.4-5.8-1.5-8.7-2.5c-2.9-1-5.8-2.1-8.6-3.5c-1.5-0.7-3.7-1.7-4.1-3
		c-1.6-6.1-5.9-10.1-10.1-14.3c-4.5-4.6-4.3-11.5,0.5-15.7c3.8-3.4,4.6-7.4,2.5-12.4c-3.9-9.2-7.5-18.4-11.7-27.4
		c-2.4-5.1-1.7-8.9,1.9-13.1c1.9-2.3,2.7-5.7,3.6-8.7c0.2-0.8-0.8-2.5-1.7-3.1c-0.5-0.3-2.1,0.4-2.9,1.1c-5.2,4-15.7,3.3-21-0.4
		c-8.8-6.1-12.4-15.5-16.1-24.7c-4.8-11.8-8.9-23.8-13.2-35.7c-0.5-1.5-0.7-3.7,0-4.9c5.1-9.1,10-18.4,16-26.9c2.9-4.1,8-7,12.6-9.5
		c8.9-4.9,12.4-13.3,15.2-22.1c0.9-2.8,2.2-4.1,4.6-4.8c4.1-1.1,8.2-2.8,12.3-3c3.2-0.1,6.5,1.8,9.8,2.5c2.9,0.6,6,1.6,8.7,1.1
		c10-2.1,19.5,0.8,29,2.8c2.7,0.6,5.5,1.2,7.9,2.5c6.2,3.2,11.1,3.4,16.4-2.6c1.8-2,8.3-1.5,11.9-0.1c6.2,2.5,12.5,5.9,17.6,10.3
		c8.4,7.3,15.4,16.2,24,23.3c5.6,4.7,12.6,9,19.6,10.4c7.2,1.5,15.3-0.2,22.1-4.6c7.8-5.1,15.5-10.2,23.3-15.3
		c0.9-0.6,2.2-1.7,2.9-1.4c8.4,3.1,14.2-3.3,21.1-5.6c7.6-2.6,14.8-6.4,23.2-5.4c5.7,0.7,11.4,1.4,17.1,1.9c8.8,0.8,16.2-2.8,23.6-7
		c8.1-4.7,16.3-9.4,26.3-7.9c6.8,1,12.8,3.7,17.1,9.3c2.3,3,4.1,6.6,6.9,8.9c4.3,3.4,9.1,6.2,14,8.7c11.2,5.6,17.3,14.9,20,26.6
		c1.5,6.3,2.8,12.9,2.8,19.4c-0.1,6.6-1.3,13.4-3.2,19.7c-2,7-5.1,13.7-8.1,20.4c-3.1,7-0.1,11.9,7.8,12.1c7.8,0.2,15.6,0.5,23.3,1
		c1.7,0.1,3.4,0.9,4.8,1.8c12,7.2,21.7,16.8,30.2,27.9c3.9,5.1,8.9,9.9,14.4,13.1c3.7,2.2,9.2,1.9,13.9,1.9c4,0,6.3,1.1,8.5,4.7
		c7.8,12.4,15.9,24.7,24.4,36.7c5,7.1,11.8,12.2,20.5,15c9.6,3.1,17.6,9.4,24.9,16.4c8.2,7.8,16.3,15.6,24.4,23.4
		c13.3,12.7,26.7,25.4,40,38C2840.8,581.2,2842.2,582.1,2844.3,583.6z"/>
	<path onclick="modal(this.id);" id="1036" class="st0" d="M2004.8,895.3c-5.3-0.8-10.9-1.2-16.2-2.7c-2.3-0.7-3.9-3.8-5.3-5.3c-2.7-1-5.2-1.6-7.4-2.9
		c-4.3-2.6-8.6-5.4-12.6-8.4c-3-2.2-4.2-4.8-2.5-8.8c5-11.5,9.3-23.3,14.5-34.7c3.2-7.3,8.6-13,16.4-15.5c11.3-3.6,22.8-6.6,34.2-10
		c1.9-0.6,3.8-1.6,5.4-2.9c3.5-2.8,6.3-6.7,10.1-8.7c7.8-4.1,8.6-15.5,1.8-21.6c-4.2-3.8-8.7-7.5-13.5-10.5
		c-13.3-8.6-27-16.5-40.2-25.3c-10.7-7.1-20.9-15-31.5-22.7c0.8-0.6,1.3-1.3,1.8-1.3c11.2,0.2,19.2-7.8,28.9-11.5
		c4.7-1.8,9.3-3.8,13.9-5.6c1.5-0.6,3.7-0.7,4.4-1.8c5.2-8.6,14.7-14.7,15.8-25.6c0.6-6,3.5-10.6,7.6-14.4c4-3.6,6.2-7.8,7.5-12.9
		c1.7-6.7,6.3-9.8,12.7-8c3.3,0.9,4.2,0.2,4.5-2.9c0.5-5.7,1.3-11.4,1.9-17.1c1-9.6,1.9-19.2,2.7-27.5c6.9-3.9,13.4-6.5,18.4-10.8
		c14.2-12.1,28.2-24.6,37.7-41c2.8-4.9,3.5-11,5.2-16.5c0.5-1.5,1-3.4,2.2-4.1c3.2-1.9,5-4.7,6.8-7.8c0.6-1,4.1-1.4,5.6-0.7
		c10.5,5.1,21.5,9.4,30.3,17.8c4.6,4.5,11.1,6.8,17.7,8.7c7.4,2.2,14.5,6.4,21.1,10.7c9,5.9,17.2,13,27.9,15.8
		c13.4,3.5,27,4.6,40.7,1.7c2-0.4,3.7-2.1,5.7-2.7c4.2-1.2,8.5-2,12.7-3.1c2.1-0.6,4.4-1.2,6.3-2.3c7.3-4.4,14.4-9,21.6-13.5
		c0.9-0.6,2.3-1.3,3.1-1.1c9.4,3.2,18.9,6.1,28,10c8.1,3.5,10.5,11.9,13.4,19.3c3.2,8.1,5.3,16.6,7.9,24.9c0.4-0.1,0.8-0.2,1.2-0.3
		c-0.2,0.3-0.3,0.7-0.5,0.8c-12.2,3.3-13.5,14.9-18.2,23.9c-2.1,4-3,8.7-5.3,12.6c-4.3,7.2-1.4,12.3,3.4,17.6
		c10.5,12,20.2,24.6,26.3,39.4c3.4,8.2,8.1,17,7.8,25.3c-0.4,13,0,25.7,2.8,38.1c2.3,10.2,4.3,20.8,13.2,28.3
		c6,5.1,10.8,11.6,16.5,17.2c4.8,4.7,10.4,8.7,15.1,13.4c4.8,4.8,9.7,9.7,13,15.4c1.4,2.4,0,8-2.1,10.6c-3.7,4.5-9,7.6-13.4,11.5
		c-1.9,1.7-3.6,3.9-4.5,6.3c-3.9,10.9-7.4,21.9-11.1,32.8c-1.6,4.6-10.8,9-15.5,8c-9.8-2.1-17.6-7-24.5-14.4
		c-3.9-4.2-9.4-7-14.5-9.9c-9.9-5.7-19.6-11.7-29.1-18.1c-8.4-5.7-19.3-9-29.6-10.4c-13.1-1.9-24.1-7.5-35.1-14
		c-3.5-2.1-7.2-3.7-10.9-5.5c-4.1-1.9-8-3.6-11.2-7.3c-4.2-5-9.6-9-14.7-13.1c-11.9-9.5-13.7-28.1-3.6-39.5
		c5.1-5.8,5.8-11.6,2.4-18.5c-0.6-1.2-1.5-2.3-1.8-3.5c-2.4-8.6-9.4-13.1-16.6-15.9c-5.7-2.2-12.5-1.7-18.9-1.9
		c-7.5-0.3-13.3,3.8-18.6,8.4c-2.4,2-4.1,4.9-5.9,7.5c-3.2,4.6-5.4,5.4-10.6,3c-5.4-2.5-10.6-5.6-16.2-7.8c-2-0.8-4.8,0-7.2,0.1
		c-0.1,0-0.2,0.2-0.4,0.3c-3.2,2-8.6,3.6-9,5.9c-0.6,4,1.4,8.8,3.3,12.9c3.8,8,2.6,10.6-3.1,16.2c-5.9,5.8-11.7,11.5-20,13.9
		c-1,0.3-2.1,1.1-2.8,1.8c-8.3,8.3-16.7,16.4-24.7,25c-2.6,2.8-4.2,6.6-6.1,10c-6.5,11.7-12.9,23.4-19.5,35.1
		c-1,1.8-2.6,3.3-4.2,4.6c-11.5,8.9-23.3,17.5-34.6,26.7C2009.8,887.3,2007.8,891.4,2004.8,895.3z"/>
	<path onclick="modal(this.id);" id="1033" class="st0" d="M1692.9,1015c7.5-1,14.8-2.4,22-2.9c5.7-0.4,11-2.1,14.3-6.3c2.1-2.6,2.2-7,2.6-10.6
		c1-9,1.9-18,2.3-27c0.1-2.2,0.8-4.9-2.6-7c-1.6-1-1-6.6-0.5-10c0.6-4.8,1.5-9.7,3.1-14.3c1.5-4.2,4.2-8,6.2-11.7
		c13.5,6.3,25.8,12.9,31,28.8c8.2-3,16.6-4.6,23.4-8.9c14.4-8.9,28-19.1,42-28.7c4.2-2.9,3.6-7,3-10.8c-1.8-11.1-4-22.1-6.1-33.5
		c13.5-8.3,27.1-17.3,41.4-25.1c5.7-3.1,4-7.9,4.7-11.8c2.3-13.4,4.5-26.7,11.3-38.7c0.9-1.6,2.3-3.3,3.8-4.1
		c14.2-7.7,28.5-15.2,42.7-23c2.9-1.6,5.4-2.2,8.2-0.3c0.9,0.6,2,1.1,3,1.6c3.3,1.8,8.2,2.9,9.6,5.6c1.3,2.7-0.8,7.2-1.7,10.8
		c-4.3,16.5-9.1,32.9-13,49.5c-0.8,3.5,1.1,7.8,2.5,11.5c2.5,6.7,5.4,13.3,8.5,19.7c1.3,2.8-1.2,5.8,2.2,8.7
		c5.1,4.3,10.9,7.3,16.7,10.2c1.7,0.9,3.4,1.9,5.1,2.9c4.9,2.8,4.9,4.7,0.5,8.1c-2.2,1.6-4.3,3.7-5.6,6c-4.1,7.5-7.8,15.2-11.5,22.8
		c-0.6,1.1-1,2.5-1,3.7c0.2,8.7-3.2,15.5-10.5,20.4c-3.1,2.1-6.2,5.8-9.3,5.8c-2.6,0-5.5-4.1-7.7-6.9c-4.9-6-8.2-7.6-19.1-0.4
		c5.2,20.9,11,41.3,15.3,62c2,9.7,8.1,16.2,13.7,23.2c10.5,13.3,21.2,26.4,32.3,39.2c2.8,3.3,7.2,5.3,10.9,7.9
		c0.9,0.6,2.3,1.5,2.3,2.2c-0.4,5.5-0.1,11.3-1.9,16.4c-2.3,6.4-8,8.2-14.6,6.3c-7.2-2.1-14.3-4.3-21.5-6.3c-4-1.1-7.8-1-10.7,2.9
		c-3.3,4.5-7.7,6.4-13.4,5.8c-2.1-0.2-4.4,0.7-7.8,1.4c2,2.8,3.6,4.9,5.1,7.1c3,4.4,6.6,8.6,8.8,13.4c3.9,8.8,9.6,14.9,19.2,17.2
		c3.6,0.9,7,2.6,10.8,4c-4.4,11-8.8,21.6-13,32.3c-3.8,9.7-2,15.6,8.2,18.8c11.3,3.6,17.7,11.5,22.8,20.9c3.8,7,10,10.1,17,11.8
		c6.8,1.6,12.4,8,12.2,14.8c-0.2,4.3,0,8.7,0,13.1c0,3.9,1.7,6.6,5,8.8c1.7,1.1,2.6,3.3,4.4,5.6c-8.6,0.7-15.6,1.5-22.7,1.8
		c-11.2,0.5-16.6,7.4-13.6,18.3c-3,2.2-5,2.9-6.4-1.9c-2.8-9.4-8.3-17.5-16.2-23c-5-3.5-11.4-6.3-17.5-7
		c-16.9-1.9-31.6-8.5-44.9-18.7c-4.7-3.6-9.1-7.9-14.5-10c-4.2-1.6-9.5-0.5-14.2-0.1c-0.8,0.1-2,2.2-2.2,3.6
		c-0.6,3.6-1.1,7.2-1.1,10.8c-0.1,11.5-6.7,13.5-14.7,11.9c-11.6-2.3-23.1-5.6-34.5-8.8c-14.7-4.1-25.8-13.4-34.7-25.5
		c-1.4-1.8-2.6-3.8-4.2-5.4c-7.7-7.5-9-18.3-14.1-27c-4.4-7.3-10.6-13.4-20-14c-10.5-0.7-18.9-5.2-26.7-12.1
		c-4.9-4.4-11.2-7.2-16.7-11c-1.9-1.3-3.1-4-5.2-4.9c-7.3-3.1-6.1-9.7-6.3-15.3c-0.6-21.3-1.3-42.5-0.9-63.8
		c0.3-14.8,2.5-29.5,3.7-44.2C1692.4,1026.4,1692.6,1021,1692.9,1015z"/>
	<path onclick="modal(this.id);" id="1035" class="st0" d="M2121.9,428.9c7.1-9.1,13.6-18.4,16.1-30.1c2.6-12.3,5.6-24.4,8.4-36.6
		c1.4-6.2,3.3-12.3,4.4-18.5c0.5-2.8,1.5-3.7,4.1-3.6c8.7,0.1,17.3-0.2,26,0.2c1.6,0.1,3.8,2.2,4.5,3.9c4.7,11.8,9,23.7,13.5,35.6
		c3.9,10.5,8.5,20.7,18.9,26.4c2.3,1.3,5.3,1.6,7.9,1.8c4.3,0.2,8.6-0.1,13.4-0.3c-1.5,2.3-3.1,5.1-5.1,7.7
		c-2.3,2.8-2.2,5.3-0.7,8.6c4.6,10.2,8.9,20.6,13.1,31.1c1.3,3.4,1.6,6.8-2.7,9.3c-4.7,2.7-5.2,13.3-1.7,17.3
		c4.5,5.1,10,9.5,11.8,16.6c0.3,1.1,1.7,2.2,2.9,2.8c4.2,2.1,8.4,4.1,12.8,5.7c2.2,0.8,4.8,1.4,7.2,1.2c11.9-1.2,22,3.6,31,10.3
		c4.6,3.3,7.7,8.7,11.1,13.5c1.3,1.9,0.9,4-1.8,5.5c-5.1,2.8-10,6.2-14.9,9.3c-4.8,3.1-9.3,6.5-15.7,5.8c-2.8-0.3-5.9,1.6-8.7,2.9
		c-10,5-20.3,4.3-31,3.3c-11.7-1.1-22.2-4.7-31.8-11.5c-5.7-4.1-11.3-8.4-17.4-11.8c-4.7-2.7-10.2-3.9-15.1-6.3
		c-5.8-2.8-12.3-5.1-16.9-9.3c-9.6-8.7-21.5-12.9-32.8-18.1c-1.1-0.5-4,0.9-4.8,2.2c-2.1,3.2-3.7,6.5-7.3,8.8c-2,1.3-3.1,5-3.3,7.8
		c-0.9,11.2-7.1,19.5-14.2,27.2c-7.9,8.5-15.9,16.9-24.6,24.4c-5.4,4.6-11.3,9.2-19,10.5c-1.4,0.2-3,3.7-3.2,5.8
		c-1.3,12.6-2.2,25.2-3.1,37.9c-0.2,3.7-1.4,5.4-5.3,5.1c-6-0.4-11.5,3.8-12.7,9.7c-1.1,5.5-3.7,9.9-7.9,13.7
		c-4,3.7-6.4,8.2-7.5,13.9c-1,5.4-2.1,11.8-8.3,14.8c-0.4,0.2-0.9,0.6-1,1c-2.5,8.2-9.4,9.6-16.5,12.1c-8.7,3.1-16.4,8.9-25,12.4
		c-5.1,2.1-11.1,2.5-16.7,3c-1.3,0.1-3.2-2.3-4.2-3.9c-4.2-6.8-8-13.9-12.3-20.6c-7.4-11.4-15.3-22.4-22.5-33.8
		c-6.4-10.2-9.5-21.7-11.2-33.5c-0.6-4.4-1.4-8.7-1.9-13.1c-0.2-1.8-0.2-3.7,0.2-5.4c2.5-11.3,7.3-21.5,13.7-31.1
		c1-1.4,2-3.4,1.8-4.9c-1.7-13,4.6-23.2,11.4-33.1c4.7-6.9,10.9-12.8,15.4-19.8c5-7.7,9.3-16,13.1-24.4c2-4.4,4-8.3,7.3-12
		c3.4-3.7,5.9-8.4,9.1-13c-11.4-4.9-20.8-2.4-28.8,4.3c-12.6,10.4-26.6,11.7-41.9,8.4c-2.1-0.5-4.9,0-6.7,1.1
		c-7.3,4.5-14.9,7.4-23.6,7.1c-2.1-0.1-4.2,0.4-6.3,0.9c-7.2,2-14.3,0.9-21.7,0.2c-8.8-0.9-17.7-0.6-26.5,0.1
		c-9.7,0.8-18.3,4.8-26.7,9.9c-5.5,3.4-12.4,3.4-19,1.8c-9.4-2.2-18.7-5-28.2-5.6c-8.1-0.5-16.7,0.6-23.3,6.8
		c-2.5,2.3-5.3,4.4-7.8,6.4c-2.4-4.2-4.3-8.8-7.4-12.4c-6-6.7-14.7-7.6-23-9.1c-7.6-1.4-15.3-2.6-23.8-4.1c3.2-3.8,6.2-6.7,8.2-10.1
		c1.2-2.1,1.9-6,0.8-7.6c-5.2-7.6-11.1-14.8-17-22.3c2.8,0.6,6.2,1.1,9.3,2.1c7.7,2.5,15.4,5.2,23.1,7.9c8.4,3,16.7,6.5,25.1,9.4
		c11.3,3.9,22.3,2.4,32.7-3.2c5.4-3,10.4-6.8,15.9-9.6c2-1,5-0.9,7.4-0.5c8.9,1.7,17.8,4.3,26.8,5.5c4.8,0.6,10.1-0.5,14.9-1.7
		c3.4-0.8,5.8-3.4,5.6-7.6c-0.7-17.4-1.3-34.7-2.1-52.1c-0.5-12.4-1.3-24.7-2-37.1c-0.2-3.9-0.9-7.9-0.9-11.8
		c-0.1-4.9,5.8-8.7,10.5-7.4c4,1.1,7.3,2.5,9.5,6.6c6.1,11.4,16.5,18.1,27.3,24.2c7.8,4.4,16.6,7.1,24.2,11.7
		c4.6,2.8,8.9,7.1,11.6,11.8c5.2,9,14,10.4,22.5,12.9c9.8,2.9,20.5,2.9,29,9.4c4.4,3.4,8.2,7.6,12.3,11.4c1.1,1,2.5,2.1,3.9,2.1
		c9.6,0.5,19.3,0.2,28.8,1.2c10.7,1.2,20.7,0,30.5-4.6c2-0.9,4.5-1,6.8-0.9c8,0.4,13.5-5.3,20.3-7.9c5.2-2,9.8-2,14.9-0.7
		c18.4,4.8,36.9,9.2,55.3,14.1C2115.6,425,2118.4,427.1,2121.9,428.9z"/>
	<path onclick="modal(this.id);" id="1039" class="st0" d="M2197.8,1301.4c5.8,18.2,6.8,34.8-0.4,51.4c-4.7-3.1-8.1-9-15.4-7.4c-0.7-0.9-1.6-2.1-2.4-3.3
		c-3.3-5.2-6.6-9.2-14-5.4c-3.9,2-8.3-1.2-9.7-5.7c-1.8-6-4.1-11.6-10.9-12.9c-3.5-0.7-7.3-0.3-11-0.1c-10,0.6-20.1,1.2-30.1,2
		c-2.4,0.2-5,1.1-7,2.5c-6.4,4.4-14,3.7-20.1,1.9c-25.2-7.2-50.7-13.7-74.2-25.7c-5.2-2.7-10-5.8-16-2.3c-3.5-5.6,0.7-13.2,7.6-13.5
		c8-0.3,16-0.2,24.1-0.3c0.7,0,1.7-0.4,2.1-1c1.7-2.2,0.1-9.8-2.6-11.3c-4-2.2-5.5-5.3-5-9.8c0.4-4.1,1-8.2,0.9-12.3
		c-0.1-2-1.6-4-2.7-5.9c-3.3-6.1-7.9-9.8-15.2-10.8c-5.2-0.7-9.2-3.8-12.2-8.8c-3.7-6.1-8.6-11.6-13.4-16.9
		c-1.7-1.9-4.8-2.6-7.1-4.1c-4.6-2.7-9-5.6-13.8-8.6c4.9-12.1,9.4-23.2,14-34.3c0.2-0.6,0.6-1.2,0.8-1.8c2.9-6.6,2.9-6.7-3.7-9.5
		c-2.5-1.1-5.1-2.2-7.8-2.8c-8.6-2-13.7-7.2-17-15.3c-2.5-6.1-6.7-11.4-10.3-17.4c-0.2,0.3,0-0.2,0.1-0.2c6.9,0.8,12.1-1.6,17-6.8
		c1.9-2,7.2-1.6,10.8-1c4.9,0.8,9.8,2.3,14.5,4.2c5.6,2.2,10.9,2.4,16.5,0.5c2.7-0.9,7.9-10,7.7-13.7c-0.1-3.6,0-7.2,0-12.3
		c13.9,1,27.4,1.5,40.8,3.2c4.5,0.6,9.1,3.8,12.6,6.9c10.9,9.7,21.7,19.6,35.5,25.2c11.7,4.8,23.6,8.8,36.5,8.6
		c3.8-0.1,7.5,0.6,11.3,0.9c11.2,1.1,22-1.4,32.3-5.2c6.1-2.3,11.8-1.8,18-1.2c4,0.4,8.2-2.2,12.4-3.5c2-0.6,3.9-1.8,5.9-2
		c7.8-0.8,15.7-1.4,23.6-1.9c1.1-0.1,2.7,0.7,3.3,1.5c3.3,4.7,8.2,5.3,13.2,6.4c2.7,0.6,5.1,2.6,7.8,3.4c3.1,1,6.5,2.3,9.6,1.9
		c5.4-0.7,9.6-1,13.1,4.6c3,4.7,7.9,8.1,11.8,12.2c3.3,3.5,7.2,6.7,9.5,10.7c5.8,10,16,14.3,25,19.9c6.8,4.3,11.5,9.7,16,16
		c2.5,3.6,5.9,7.4,9.8,8.9c9.7,3.8,17.1,10.8,25.2,16.8c6.8,5,10.2,11.8,10.9,19.9c0.3,3.4-0.7,6.9-1.4,10.3
		c-0.7,3.3-2.4,6.6-2.2,9.9c0.1,1.9,2.5,4.5,4.4,5.3c4.3,1.7,9,2.4,13.8,3.6c-2.4,3.6-4.8,5-9.7,3.9c-19.5-4.5-39.2-8.6-58.9-11.9
		c-4.3-0.7-9.5,1.9-13.9,3.7c-5.6,2.3-9.9,2.7-15.5-1.5c-9.5-7.1-20-12.8-30.3-18.8c-4.9-2.9-6.8-1.8-9.4,3.4
		c-3.9,7.9-7.5,15.9-12,23.5c-5.7,9.7-14.4,16.6-23.9,22.3C2210.6,1293.8,2204.2,1297.6,2197.8,1301.4z"/>
	<path onclick="modal(this.id);" id="1031" class="st0" d="M1996.9,211.7c11.8,7.7,22.9,15.1,34.1,22.3c16.2,10.4,32.5,20.6,48.7,31
		c6.4,4.2,13,8.3,18.8,13.3c6.3,5.4,12.9,4.9,20.2,3.5c10-2,17.2-8.9,25.7-13.7c1-0.6,1.9-1.2,3-1.9c3.8,3.1,7.6,6.1,11.4,9.2
		c3,2.4,6,3.1,9.9,1.7c7.3-2.7,14.7-5.1,22.3-7c11.4-2.9,22.5,0.1,33.6,2.3c1.6,0.3,3.2,0.7,5.3,1.1c-3.1,10.2-6.2,19.9-16.9,25.1
		c-11.7,5.7-18.3,16.1-23,27.6c-3.4,8.4-8.3,12.4-17.8,11c-5.7-0.9-11.6,0-17.5-0.2c-4.3-0.2-6.2,1-7.1,5.9c-2,11.4-5.3,22.5-8,33.7
		c-2,8.6-3.2,17.4-6.1,25.6c-2.9,8-7.5,15.4-11.6,23.5c-9.4-6.7-19.8-6.5-29.5-8.9c-11.4-2.8-23-5.1-33.9-9.2
		c-8.3-3.1-15-1.1-22.2,2.2c-5.1,2.3-10.5,4.2-15.8,5.9c-6.2,2-12.4,3.8-18.7,5.2c-2.7,0.6-5.7,0.2-8.5,0.1
		c-11.3-0.3-22.5-0.5-33.8-1.1c-2.3-0.1-5-1.3-6.8-2.8c-4.1-3.3-7.6-7.4-11.8-10.5c-8.5-6.4-19.1-6.9-29-9.5
		c-9.3-2.4-17.8-5.2-23.3-14.4c-4-6.7-10.6-10.8-18.2-13.9c-13.8-5.6-27.2-12.3-37.6-23.6c-2.1-2.3-4.3-4.8-5.3-7.6
		c-2.3-6.5-8.2-7.3-13.3-8.4c-2.7-0.5-5.9,1.8-9.4,3.1c-0.6-9.5-1.1-19.2-1.8-28.8c-0.3-4.1-0.5-8.2-1.1-12.3
		c-0.3-1.6-1.4-3.8-2.7-4.5c-6.3-3-12.5-5.6-20.1-4.7c-6,0.7-12.7-0.6-18.5-2.6c-9.4-3.2-18.3-7.8-27.5-11.4c-3.4-1.3-7.3-2-11-2
		c-3.2,0-4.9-1.3-6.9-3.4c-3.2-3.4-6.9-6.3-10.3-9.5c-4.3-4.2-8.6-8.3-12.5-12.8c-2.6-3-4.5-6.7-6.7-10c9.2-5.4,19.2-8.5,29.9-7.2
		c6.4,0.8,12.7,3,19.1,4c7.6,1.2,15.3,2,22.9,2.8c9.8,1.1,19.6,2.8,29.4,2.7c7.4-0.1,14.9-2,22-4.2c6.9-2.2,13.5-5.7,20.1-8.9
		c7.8-3.8,13.1-10.3,17.2-17.8c5.7-10.6,13.5-13.7,24.8-10.7c2.4,0.6,4.8,1.2,7.2,1.5c9.7,1,13,9.2,18,15.6
		c5.9,7.5,11.6,15,19.7,20.4c2.1,1.4,3.5,3.9,5,6c7.1,10.3,13.7,21.1,21.5,30.9c5.8,7.4,10.8,15.1,14.9,23.6
		c1.3,2.7,3.4,5.4,5.8,7.2c5.6,4.2,8.7,2.5,10-4.2c1.9-9.9,3.4-19.9,5.1-29.9c0.2-1.3,0.5-2.8,1.3-3.6c6.7-7.4,7.6-17.1,10.7-25.9
		C1992.3,225.8,1994.5,219,1996.9,211.7z"/>
	<path onclick="modal(this.id);" id="1038" class="st0" d="M2379.9,886c-3.6-0.5-5.7-0.6-7.7-1.1c-8.9-1.9-15.6,2.6-22,7.6c-2.6,2-3.8,1.2-5.8-0.7
		c-7.8-7.6-14.7-16.5-23.8-22.1c-8.9-5.4-19.8-8.2-30.2-10.6c-12.5-2.9-25.4-4.3-38.2-6.1c-13.6-1.9-27.3-3.9-41-4.9
		c-5.4-0.4-11.2,0.7-16.3,2.6c-8.6,3.2-17.4,2.7-26,1.9c-5.2-0.5-10.3-3.9-15.2-6.4c-5.5-2.8-10.9-1.8-16.7-0.9
		c-6.3,1-12.8,1.5-19.2,1.5c-4.2,0-8.3-1.6-12.5-1.8c-6.2-0.3-9.5,2.7-9.3,8.8c0.2,6.5,1.2,13,2.2,19.5c0.2,1.4,2.1,3.6,3.3,3.7
		c6.5,0.2,7.5,6,10.3,9.8c8.9,11.9,17.2,24.3,26.4,35.9c13.1,16.4,26.8,32.4,40.4,48.5c6.1,7.3,13,13.9,16.8,22.9
		c5.8,13.5,11.9,26.8,17.5,40.4c3.8,9.3,3,18.8-1.2,27.9c-2.3,5-2.5,9.7,0.1,14.5c0.8,1.4,1.5,3,1.7,4.6c0.9,6.8,5.2,10.9,11,13.3
		c3.9,1.6,5.6,3.3,5.6,7.7c0,6.2,2.6,11.7,8,16c-6.1,0.7-9.9-1.6-13.2-5.5c-0.9-1.1-2.8-1.7-4.3-1.7c-5.9,0.1-11.8,0.9-17.8,0.8
		c-5.1,0-9.7,0.6-13.8,4c-5.3,4.3-11.4,2.3-17.3,1.7c-1.7-0.2-3.6-0.2-5.2,0.2c-5.3,1.5-10.5,3.5-15.9,4.7
		c-5.2,1.2-10.7,2.7-15.9,2.3c-12.3-0.8-24.6-0.2-36.7-3.7c-14.1-4.1-27.2-9.8-38.5-19.6c-6.9-6-13.8-12.3-21.8-16.6
		c-9.6-5.1-20.5-6.2-31.6-4.2c-4,0.7-8.3,0.1-12.9,0.1c2.7-4.5,5.1-8.5,11.2-9.4c3.1-0.4,6.1-3,8.6-5.2c7-6.3,16-7.7,24.6-9.9
		c3.8-1,6.5-2.3,7.4-6c2.5-10.7,10.5-12.4,19.7-12.2c6.7,0.1,12.5-1.3,16.9-7.1c2-2.7,4.9-4.9,7.7-6.9c9.1-6.3,11.7-16.2,14.4-26
		c3.3-11.9,6.6-23.8,10.1-35.7c0.5-1.6,2-2.9,2.9-4.4c3.1-5.1,0.6-10.2-1.2-14.6c-2.1-5.3-8.4-5.4-13.4-6.4
		c-23.9-5-47.9-9.9-71.8-14.8c-0.8-0.2-1.6-0.3-2.4-0.3c-10.5-0.3-14.4-9.1-19.8-15.7c-2.1-2.6,2-12.7,4.9-15.1
		c6-5.1,11.7-10.6,17.8-15.6c6.3-5.2,13.3-9.5,19.4-14.9c3.2-2.8,5.4-6.9,7.6-10.7c6.6-11.5,12.6-23.2,19.4-34.6
		c4.1-6.8,9.3-12.9,15.9-17.6c2.8-2,5.5-4.5,7.5-7.3c2.6-4,5.9-6.5,10.3-8.2c9.1-3.5,14.9-11.2,20.9-18.3c1.7-2,1.1-6.3,0.8-9.5
		c-0.3-2.3-2-4.4-2.7-6.8c-2.7-8-2.6-8,4-12.3c2.5-1.6,4.6-1.4,7.2,0c5.5,3,11.2,5.9,17,8.4c5.5,2.3,8.4,1.6,12.1-5
		c3.5-6.1,8.9-9.9,14.6-12.5c4.8-2.2,10.9-2.1,16.4-2.1c3.7,0,7.6,1.4,11.2,2.8c8.8,3.5,12.7,11.4,15.6,19.6
		c1.7,4.7,0.1,9.5-3.5,13.3c-4.5,4.8-6,10.4-6.7,16.9c-1.5,13.2,7,20.7,15,28.6c3.4,3.3,6.5,6.9,10.1,9.9c3.5,2.9,7.3,5.4,11.2,7.6
		c8.2,4.7,16.7,8.8,24.8,13.6c7,4.2,14.8,4.7,22.4,6.5c8.7,2.1,17.3,4.7,25.7,7.6c2.6,0.9,4.5,3.7,7,5.2c12.1,7.4,24.4,14.5,36.4,22
		C2373.6,879.9,2376.2,882.8,2379.9,886z"/>
	<path onclick="modal(this.id);" id="1037" class="st0" d="M1917.7,951.1c6.8-4.4,9.2-4,14,2.1c6.9,8.8,7.6,8.5,17.1,2.8c10-5.9,13.8-14.7,16.6-25.5
		c2.2-8.8,7.3-17.1,11.8-25.2c1.9-3.4,5.6-6,8.9-8.5c1.1-0.9,3.2-0.8,4.7-0.6c2.2,0.3,4.4,1,6.6,1.6c8.9,2.2,9.4,3.2,6,11.5
		c4.7,0.1,6.7,4.2,9.1,7.1c3.3,4.1,6.5,7.1,12.1,8.2c22.2,4.2,44.4,9,66.5,13.6c6.1,1.3,12.2,2.4,18.1,4.2c1.6,0.5,3.1,2.9,3.7,4.8
		c2.7,8.2-2.9,14.8-4.7,22.2c-3.2,13.6-6.9,27.2-11.6,40.3c-1.7,4.9-6.7,8.7-10.5,12.8c-2.8,3-5.9,5.9-9.2,8.2
		c-2.8,2-6.1,3.9-9.4,4.4c-6.2,1-12.5,0.9-19.1,1.3c-2.1,4.3-4.2,8.7-6.6,12.9c-0.9,1.5-2.5,3.5-4,3.7c-12.4,1.8-23.2,7.2-33,14.8
		c-0.5,0.4-1,1.2-1.5,1.2c-6.4,0.1-9.2,4.8-12.1,9.4c-0.4,0.6-0.8,1.1-1.3,1.8c-7.9-3.7-13.9-9-19.1-15.8
		c-10.2-13.6-20.7-27.1-31.6-40.1c-5.6-6.6-6.2-14.5-8.2-22.1c-3.9-15.1-7.3-30.4-11-45.5C1919.7,954.6,1918.6,953,1917.7,951.1z"/>
</g>
</svg>
