<?xml version="1.0" encoding="utf-8"?>
<!-- Generator: Adobe Illustrator 19.0.0, SVG Export Plug-In . SVG Version: 6.00 Build 0)  -->
<svg version="1.1" id="Layer1" xmlns="http://www.w3.org/2000/svg" xmlns:xlink="http://www.w3.org/1999/xlink" x="0px" y="0px"
	 viewBox="0 0 4000 2000" style="enable-background:new 0 0 4000 2000;overflow: hidden; display: inline; width: inherit; min-width: inherit; max-width: inherit; height: inherit; min-height: inherit; max-height: inherit;" xml:space="preserve">
<style type="text/css">
	.st0{fill:#8FD4EB;stroke:#000000;stroke-width:2;}
</style>
<g id="XMLID2">
	
	<path onclick="modal(this.id);" id="146" class="st0" d="M2620,1029.1c-1,1.1-1.7,2-2.5,2.8c-2.2,2.2-2.4,4,0.6,5.8c1.3,0.8,2.4,2.4,3.1,3.9
		c3.8,8.3,8.4,10.2,17.1,6.5c2.4-1,4.7-2.8,7.2-3.2c3.4-0.5,7.1-0.6,10.5,0.1c3.6,0.7,6.8,2.9,10.4,3.8c7.3,1.7,8.7,3.1,8.7,10.4
		c0,18.2,10.9,33.1,27.8,39.8c5.6,2.2,10.5,6.5,15.2,10.5c11.7,10.2,25.2,15,40.6,15.5c2.4,0.1,5,2.3,7,4c2.7,2.5,5.1,5.4,7.3,8.3
		c0.8,1,1,2.7,1.1,4.1c0.2,7.1,5.2,12.3,12.4,12.3c2.5,0,3.7,0.9,4.7,3.1c3.3,6.8,8.3,12,15.5,14.9c7.3,3,6.7,3.2,6.5,11
		c-0.2,9.5-3.3,15.7-12.3,20.3c-11.4,5.9-21.9,13.6-32.6,20.7c-3,2-5.7,4.8-8.2,7.5c-8.4,9.3-16.8,18.6-25,28.1
		c-1.1,1.3-1.8,3.4-1.9,5.2c-0.3,3.1-0.1,6.3-0.1,9.3c-5.1,3-9.6,6.9-14.9,8.5c-5.5,1.6-11.7,1.7-17.4,1.2
		c-12.1-1.1-13.7-0.6-14.6,11.2c-1,12.2-1.5,24.4-2,36.6c-0.3,7.8,2.3,14.3,9,19c4.3,3,8.4,6.2,12.4,9.6c5.2,4.4,11.8,4.2,17.9,5.9
		c1.5,0.4,3.5,1,4.1,2.1c2.5,4.3,4.3,9,6.8,13.2c3.4,5.6-2.4,8.9-2.6,14.5c-8.5-6.6-16.9-13.6-24.2,0.2c-6.8-3.3-13.5-5.5-20.9-3.1
		c-1.7,0.5-3.4,1.1-5,1.9c-2.1,1.1-5,4-6,3.5c-3.1-1.8-5.8-4.7-8.2-7.5c-3.2-3.7-6-7.8-8.8-11.8c-5.9-8.4-17.1-7.1-23.4-1.5
		c-8.4,7.4-18.9,10.2-28.4,15.3c-2,1.1-4.2,1.8-6.2,2.8c-3.5,1.8-4.6,4.5-2.6,8.1c1.4,2.5,1.3,4.6,0.6,7.6c-1.7,6.6,2.1,12.5,6,17.4
		c12.8,16,25.6,32.1,39.5,47.2c7.9,8.6,9.3,18,9,28.6c-0.2,7,0,14,0,21.8c-5-1.7-9.4-3.2-13.7-4.8c-10.9-4.1-20.5-0.5-29.6,5.2
		c-1,0.6-1.8,1.5-2.7,2.1c-6.3,4.4-6.7,5.7-5.2,13.7c0.5,2.6,0.1,5.3,0.2,8c0.2,7.2,0.2,14.3,0.7,21.5c0.5,6.5,1.3,13,2.4,19.5
		c0.8,4.3,2.3,8.4,1.9,11.1c-2.3,1.9-4.6,3.8-6.9,5.7c0.8,0.7,1.6,1.5,2.4,2.2c-3.8-0.5-7.8-0.7-11.4-1.8c-1.7-0.5-2.8-3-3.9-4.8
		c-3.4-5.7-12.6-9.4-18.4-6.7c-4.7,2.2-9.4,4.8-13.3,8.2c-2.6,2.2-3.7,6.1-6.1,10.2c-5.7-3-14.2,2.5-20.9-3.7
		c-1.7-1.6-3.8-3.6-4.1-5.7c-1.1-7.4-5.8-13-9.2-19.2c-5.3-9.7-11.2-9.7-21.7-6.1c-7.2,2.5-10.8,7.6-9.3,15.5
		c-5.4,2-11.6,2-14.2,8.5c-5.8-1.1-11.5-2.2-17.1-3.3c0.1-6.9,0.1-13.7-4.2-19.9c-2.2-3.2-3.2-7.1-6.9-9.7
		c-9.2-6.5-16.7-4.6-25.1,1.4c-3.5-5.8-4.5-13.4-11.8-16.5c-1.3-0.6-3-1.3-4.2-0.9c-5.8,1.9-10.8,0.1-16.1-1.9c-2.6-1-6,0.1-9-0.1
		c-1.5-0.1-3.8-0.8-4.3-1.8c-3.6-7.8-6.8-15.7-10-23.7c-0.8-1.9-0.9-4.1-1.3-6.2c-0.4-1.9-0.5-3.9-1.2-5.7c-3.2-8-6.5-15.9-9.8-23.9
		c-0.4-0.9-0.4-2.2-1.1-2.7c-5.7-3.8-2.9-7.8-1-12.3c3.3-7.7,5.5-15.7-0.8-23.1c-1.7-2-4.4-3.3-5.6-4.1c-0.9-8.3-1.5-16.3-2.8-24
		c-0.5-2.7-2.3-5.7-4.4-7.4c-6.1-5-7.5-12.1-9.3-19c-3.1-11.4-9.5-19.7-21.8-20.8c-6.5-0.6-8.9-4.4-11-8.9
		c-4.4-9.3-12.2-12.8-21.7-13.5c-5.3-0.4-10.1,1-12.1,6.9c-1.4,4.1-8.1,6.4-12.8,4.6c-5.5-2.1-10.9-5-15.8-8.4
		c-5.2-3.7-9.6-8.5-14.8-12.3c-2.2-1.6-5.3-2.9-8-2.8c-9.2,0.4-16.6-2.4-24-8.1c-8.8-6.8-19.7-9.5-31-9c-2,0.1-4.4,1.5-5.8,3.1
		c-2.7,3-4.7,2.8-7.9,0.7c-10.5-6.9-17.2-16.9-22.9-27.7c-1.4-2.7-3.5-5.2-4.4-8c-0.9-2.8-1.2-6.2-0.7-9.1c1-5.8-0.3-8-5.4-10.4
		c-2-0.9-4-4.5-3.8-6.6c0.9-9.1-3.9-14.5-10.7-19c-0.8-0.5-1.4-1.4-2.1-2.1c-0.2-0.2-0.3-0.6-0.5-1.2c3.4-3.8,6.9-7.8,11-12.4
		c-6-4.4-11.4-8.5-17-12.3c-5.9-4.1-8.6-10.3-10.8-16.5c-4.1-12-3.7-10.5-16.8-7.3c-3.6,0.9-7.4,1.7-11.1,1.6
		c-1.5,0-3.6-2.4-4.2-4.2c-3.7-11.7-8.8-22.6-18.1-30.9c-3.3-2.9-7.9-4.5-11.8-6.8c-1.7-1-3.9-1.8-4.7-3.3c-2.1-4-3.8-8.2-8.6-9.8
		c-0.5-0.2-1.1-1.9-0.7-2.5c2.3-4.1-0.6-5.9-3.5-7.1c-5.3-2.2-7-6.3-5.5-11.1c1.5-4.7-2.6-6.7-3.2-10.2c-1.1-7.1-1.9-14.2-2.9-21.9
		c11.9,0,23.6-0.3,35.4,0.3c1.6,0.1,3,4.6,4.3,7.1c0.4,0.8-0.3,2.2,0.2,3c6.2,10.4,12.5,20.6,18.8,30.9c0.2,0.3,0.1,0.8,0.3,0.9
		c9.2,5.1,14.9,13.6,21.1,21.5c3,3.8,5.6,8,8.7,11.7c1.3,1.5,3.4,3.3,5.2,3.3c12.2,0.3,24.3,0.3,36.5,0.1c5.9-0.1,11.8-0.9,17.9-1.4
		c0.1-0.1,0.4-0.4,0.3-0.6c-2-5-0.3-9.2,2-13.8c2.1-4.4,2.5-9.7,4.3-14.3c1.1-2.8,3.1-5.4,5.3-7.6c4.8-5,1.1-10.2,0.9-15.3
		c-0.1-2.8-1.5-5.6-2.2-8.1c4.3-5.6,9.2-4.9,14.2-1.7c4.9,3.1,9.6,3.6,15.3,1.4c4.1-1.6,8.5-5.3,13.4-2.4c3.6,2.2,7.2,4.8,9.9,8
		c2.6,2.9,4.3,5,8.4,2.5c1.7-1,4.4-0.1,6.7,0c2.6,0,5.2,0.2,7.8,0.1c0.9,0,2-0.7,2.8-0.5c19.1,4.5,38.5,5.3,58,5
		c2.1,0,4.2,0.7,6.2,1.4c7.6,2.7,14.7,1.1,21.7-2.2c5.1-2.4,10.5-4.2,15.8-6.4c3.8-1.5,6.6-10.5,5.6-16.4c-0.3-1.6,0.4-3.5,1.2-5
		c2.1-4,4.8-7.8,6.8-11.8c2.7-5.3,0.4-10.3-1.7-15c-2.4-5.1-0.7-9.3,1.5-13.9c4.1,2.1,7.6,4.1,11.3,5.7c11.2,4.8,21.4,3.4,28-4.1
		c1.3-1.5,1.6-4.4,1.3-6.5c-1.2-6.7-6.2-11.2-10.1-16.4c-1.6-2.1-2.9-4.9-2.9-7.4c-0.3-10.1-0.2-20.2-0.1-30.2
		c0-1.9,0.3-4.2,1.5-5.6c6.9-8,6.6-17.1,2.9-25.8c-2.7-6.5-2.9-12.6-1.5-19.1c0.2-0.8,0-1.7,0-3.4c5.7,3.5,10.9,6.7,16.1,9.8
		c23.2,14.2,46.3,28.7,69.9,42.3c3.9,2.3,10,0.7,15.1,0.9c2.2,0.1,4.7-0.6,6.5,0.3c5.3,2.6,11.8,3.6,14.9,9.7c0.3,0.5,1,1,1.6,1.1
		c8.8,0.7,12.9,8,18.5,13.1c5,4.7,6.6,5.1,13.1,2.1c2.2-1,4.6-1.7,6.7-2.9c6.4-3.6,11.5-4.3,18.3,1.1c6,4.8,14.5,6.3,21.7,9.8
		c4.2,2,8,1.7,12.1,0c1.6-0.7,3.5-1.1,5.2-1c3.4,0.3,6-0.6,8.3-3.4c2.7-3.3,6.4-2.3,9.8-1.4c5.4,1.5,10.8,3.1,16.2,4.7
		C2617.2,1027.5,2618.5,1028.3,2620,1029.1z"/>
	<path onclick="modal(this.id);" id="138" class="st0" d="M1280,297.7c3.8-0.8,8-1.6,11.7-2.4c7.4,3.7,15.1,7.4,22.5,11.5c2,1.1,3.8,3.3,4.8,5.4
		c3.8,8.4,7,17,11.1,25.3c2.1,4.2,5.3,7.9,8.5,11.3c1.6,1.7,4.7,3.3,6.8,3c7.4-1,14.8-2.3,21.8-4.7c4.4-1.5,6.7-0.9,7.7,3.1
		c1.2,4.6,4.3,6,8.5,6.8c6.7,1.3,13.5,2.4,18.5,8.1c1.3,1.4,3.7,2.9,5.5,2.7c5.8-0.7,7.4,3.4,9.8,7.1c1.3,2,3.7,5,5.2,4.7
		c2.5-0.4,5.4-2.6,6.6-4.8c5.9-11.2,3.5-22.7,0.4-34.1c-0.5-2-1.1-3.9-1.7-6.2c5.2-1.1,9.8-2.3,14.4-2.8c1.6-0.1,4.6,1.6,4.9,2.9
		c1.8,8.3,7.1,14.4,11.9,21.1c2.7,3.7,2.6,9.5,3.1,14.5c0.3,3-0.8,6.2-0.7,9.3c0.1,5.3,3,8.9,8.2,9.4c7.9,0.7,15.9,0.8,23.9,1.1
		c0.5,0,1.2,0.2,1.5-0.1c8.8-6.9,17.2-1.1,25.8,0.7c5.4,1.2,10.8,3,16.2,3c4.3,0,9.5-1.3,12.7-3.9c8.6-7,18.6-9.5,29-12.1
		c6.1-1.5,12-5,17.1-8.9c8.4-6.4,16-13.7,23.9-20.6c0.6-0.5,1.1-1.6,1.8-1.7c6.2-0.9,7.8-6.3,10.5-10.6c4.5-7.1,4.2-14.1-0.2-21.1
		c-1.7-2.8-3.6-5.5-5.1-8.4c-1.9-3.8-2-7.1,1.3-10.8c4.4-4.8,8.1-10.2,11.8-15.6c2-2.9,3.1-6.3,4.8-9.7c3,0.8,6.6,1.8,10.3,2.9
		c0.2,0,0.4,0.1,0.4,0.2c2.7,4.8,6,9.4,7.7,14.5c1,2.9,0.4,7.4-1.3,9.9c-5.9,8.9-1.8,16.9,1.2,25.1c0.6,1.8,1.3,3.6,1.4,5.5
		c0.4,8.4,0.8,16.9,0.9,25.3c0.1,10.9,8,14.7,16.3,17.8c5.9,2.2,12.1,4,18.2,5.5c5.5,1.3,11.2,2.8,16.8,2.8
		c14.9,0.1,27.2,5.5,38,15.6c5.8,5.4,12.8,8.4,21.3,6c4-1.2,8.5-1.4,12.7-1.2c1.7,0.1,3.7,2.1,4.8,3.8c4.3,6.2,9.2,11.9,16.9,13.1
		c5.4,0.9,11.1,0.4,16.5-0.4c7.5-1.1,14.5-1,21.6,2.2c9.3,4.1,19.1,7.2,28.4,11.4c5.6,2.5,10.6,6.3,15.9,9.5
		c0.4,0.2,0.7,0.8,0.8,1.2c1.9,8.2,6.8,15.3,7.3,24.2c0.5,8.3,2.6,16.7,5.1,24.8c1.1,3.5,4.9,6.2,7.3,9.3c1,1.4,2.4,3.1,2.2,4.6
		c-1.1,11.1-2.5,22.1-3.8,33.2c0,0.3,0,0.7-0.1,1c-0.3,3,0.4,6.9-1.3,8.8c-1.7,1.9-5.6,2.3-8.7,2.7c-5.6,0.8-8.9,3.8-10.9,8.9
		c-1.1,3.1-2.6,6-4.3,8.8c-2.6,4.3-1.4,8.5,0.4,12.4c3.7,8,7.3,16.2,12,23.6c2.7,4.2,7,7.7,11.3,10.4c2.4,1.6,6.1,0.3,7.9-2.7
		c2.2-3.7,5.5-4.7,9.4-5c4.9-0.4,9.7-1.2,15.1-1.8c0,5.4,0.5,10.8-0.1,16c-0.9,7.3,3.3,11.1,8.3,15c9.9,7.8,21.3,12.4,33.3,15.9
		c4.2,1.2,7.5,3.6,9.6,7.7c3.1,6.1,9.7,10.3,10.5,17.9c0.1,0.7,1.8,1.3,2.7,1.9c3.3,2.4,6.6,4.8,10.4,7.6c-5.9,5.1-11.1,9.9-16.8,14
		c-1,0.7-4.2-1.1-6.2-2.2c-2-1.1-3.8-3.8-5.7-3.8c-7.9,0.1-10-6-13.1-11.3c-1.9-3.2-3.4-7.2-6.2-9.3c-2-1.5-5.9-0.6-9-0.5
		c-0.2,0-1,2.4-0.5,3c5.2,6.4,2.4,12.9,0.5,19.5c-1.7,6.1-3.8,12.2-4.4,18.5c-0.5,4.9,0.6,10.1,1.9,15c1.9,7.2,4.7,14.1,7.2,21.2
		c-16.3,2.8-16.6,2.8-16.3,19.1c0.2,10,0.3,20.2,2.1,30c3.5,18.3,8,36.4,12.5,54.5c1.8,7,4.8,13.8,7.1,20.1c-14.3,0-29.2-0.2-44,0.1
		c-6.6,0.2-13.2,1.5-20.7,2.5c1.6,3.3,2.5,5.6,3.7,7.6c5.9,9.6,8.7,21.2,17.4,29.1c2.8,2.5,6.4,4.2,9.6,6.3
		c-4.6,5.9-9.7,6.5-14.9,1.7c-2-1.8-3.9-3.6-5.6-5.7c-4.6-5.5-10.8-7-17.4-7.7c-10.3-1.1-19.8-4.4-27.5-11.4c-2.1-2-3-5.3-4.5-8
		c-5.6-10-10-20.9-17.1-29.7c-4.5-5.6-8.2-11.3-11.6-17.3c-1.7-3.1-2.4-7-4.7-9.4c-5.6-5.7-11.7-10.9-17.9-15.8
		c-9-7.1-18.1-14.1-27.4-20.7c-6.6-4.7-13.3-9.9-22.1-9.6c-5.1,0.2-10.1,0.4-12,7.2c-1.5,5.5-4.7,6.2-10.2,4.1c-2-0.8-4-1.6-6-2
		c-10.1-2-14.7-10.1-19.7-17.6c-2.4-3.5-4.5-7.3-7.3-10.4c-4.1-4.6-4.7-10.1-5.9-15.8c-0.4-2.1-3.3-5.4-4.9-5.4
		c-7.5,0.2-15.3,0.5-19.5,8.7c-0.6,1.3-2.2,2.8-3.4,2.9c-15.3,0.8-30.7,1.4-45.1,2c-1.4-5.5-2.3-10.8-4-15.8
		c-3.7-10.6-7.9-21-11.6-31.5c-0.8-2.4,0.1-5.4-0.5-7.9c-0.3-1.4-2.2-3.5-3.4-3.5c-17.6-0.2-35.2-0.2-53-0.2
		c-0.7,1.4-1.6,3.6-2.7,5.7c-1.7,3.4-1.4,6.7-0.3,10.2c1.5,5.2,0.2,7.2-5.1,7c-12.3-0.3-24.5-0.5-36.8-1c-7.4-0.3-14.7-1.4-22.1-1.9
		c-3.7-0.2-4.1,1.6-2.6,4.8c3.4,7.4,6.6,14.9,10.2,22.8c-3.4,0.7-6,0-7.1-3.2c-1.3-3.5-2.6-7.1-2.8-10.7c-0.5-6.9-3.3-9.3-9.9-8
		c-1.8,0.4-4-0.2-5.8-0.8c-3.7-1.2-8,1.2-12.2,6.2c-1.5,1.7-4,2.9-6.3,3.6c-2.9,0.8-4.9-0.6-6.2-3.5c-1.5-3.4-3-6.9-5-10
		c-3.5-5.3-8.3-5.9-12.8-1.5c-2.6,2.5-4,1.7-5.8-0.6c-4.3-5.8-9.3-10.8-16.7-12.2c-3.5-0.7-7.3-0.2-10.9,0.4
		c-2.7,0.4-5.3,1.6-7.8,2.7c-4.7,2-9,3-12.4-2.2c-0.4-0.6-1.3-0.9-2.1-1.2c-8.3-3.2-16.5-6.5-24.9-9.6c-2.9-1.1-4.7-2.2-5.4-5.8
		c-2.6-12.9-5.7-25.7-9.1-38.4c-0.7-2.7-2.8-5.3-4.9-7.3c-6.6-6.3-13.3-12.4-20.2-18.2c-2.5-2-6-2.9-8.6-4.1
		c-9.3-10.8-16.2-22.6-9-36.9c4.8-1.8,10.1-3.8,15.3-5.9c1.1-0.4,2.6-1.7,2.6-2.5c-0.1-5.6-0.4-11.2-0.9-16.8
		c-0.1-1.2-0.9-2.5-1.9-3.3c-9.6-7.8-14.8-19.8-26.4-26.1c-3.9-2.1-5.6-8.6-7.7-13.3c-3-7-5.1-14.4-8.2-21.3
		c-1.6-3.5-4.5-6.3-6.7-9.3c5.7-4,8-8.7,7-15.5c-2.3-14.5-4.7-29.1-5.8-43.7c-0.6-7.8,0.6-15.8,4.5-23.2c7.7-14.7,9.4-29.9,1.7-45.4
		c-4.8-9.5-3.6-17.6,4.1-24.9c6.1-5.8,10.6-12,9.6-21.1C1279.5,309.2,1280,303.4,1280,297.7z"/>
	<path onclick="modal(this.id);" id="141" class="st0" d="M1413.4,1173.9c-0.3-1.1-1.3-3.3-1.3-5.4c0.1-4.4-1.9-5.5-5.7-4.5c-7.2,1.9-14.1,4.3-18.2,11.2
		c-1.4,2.4-3.2,4.4-5.1,6.9c-1-0.9-2-1.8-3-2.6c-5.3-4.7-9.6-4.7-15.8-1.5c-4,2.1-8.8,2.8-13.4,3.8c-0.9,0.2-2.4-0.9-3.3-1.7
		c-2.4-2.2-4.7-4.4-6.9-6.9c-0.9-1-2-3-1.6-3.7c6.4-10-0.7-17.1-5.6-24.2c-7.6-11-15.3-22.1-24.3-32c-8.1-9-17.3-17-28.7-22.1
		c-6-2.7-6.7-6.7-2.1-11.3c3.5-3.6,4.6-7.4,2-12c-0.2-0.3-0.3-0.6-0.5-0.9c-6-12.8-5.8-12.5,6.2-19c5.5-3,10.4-7.4,15.4-11.3
		c2.8-2.2,4.3-5,3-8.7c-1.4-4.3-4.2-7.2-8.9-7c-4,0.1-8,0.9-11.3,1.3c-2.1-6.3-5.2-12.5-6.2-19.1c-1.2-8.1-1.4-16.5-0.9-24.7
		c0.5-9.1,1.9-17.7-2-26.8c-1.9-4.4-0.2-10.5,0.1-15.8c0.5-11.5,8.8-16.6,17.8-21.1c3.8-1.9,6-4.3,6-8.8c0-0.9,1.9-2.1,3.1-2.6
		c2-0.9,4.4-1,6.4-2c4.8-2.5,9.5-5.1,14-8c8.2-5.3,9.6-13.4,4.6-22.1c-2.1-3.8-3.6-8-5-12.1c-0.4-1.1,0.2-2.9,1-4
		c2.1-3.3,4.4-6.4,6.7-9.7c6.9-0.5,11,4.7,16.1,7.9c3,1.9,5.9,4.2,9,5.9c5.8,3.2,11.8,0,13-6.5c0.9-5,2.8-9.9,2.6-14.8
		c-0.2-4.9-2.3-9.7-3.8-14.5c-3-9.1-10.1-15.2-16-22.2c-6.4-7.7-6.5-12.7-0.5-21.1c5.5-7.9,8.2-15.6,2.7-24.6
		c-2.1-3.5-4.1-7.1-5.9-10.7c-3-5.7-3.5-11.5-2.3-18c1.6-8.5,2.1-17.3,3.1-26.3c1.1,0.3,3,0.7,4.7,1.3c7.1,2.7,14.1,5.5,21.2,8.3
		c0.3,0.1,0.6,0.3,0.8,0.6c6.6,9.4,14.5,3.5,21.5,1.3c10-3.2,19.5-0.5,26,8.6c1.4,1.9,3.4,3.5,5.4,4.8c0.8,0.5,2.9-0.1,3.6-0.9
		c5.6-6.2,8-3.8,11.9,2.7c1.1,1.8,1.7,3.9,2.7,5.8c1.4,2.6,2,6.2,6.3,5.9c4.8-0.3,9.6,0.8,12.5-5.3c1.5-3.3,4.5-7.2,9.7-3.1
		c1.3,1,4.8-0.1,7.1-0.9c3.8-1.2,4.7,0.6,4.9,3.8c0.1,2.8-0.3,5.8,0.6,8.3c3.1,9.1,5.6,10.5,17.1,9.7c-3.9-9-7.6-17.6-11.7-27
		c14.8,0.8,29,1.6,43.1,2.2c6.3,0.3,12.7,0.3,19,0c3.8-0.2,5.6-5.2,4.6-10.5c-0.5-2.7-1.1-5.8-0.2-8.2c1.3-3.4,3.6-5.6,8.4-5.5
		c14.7,0.6,29.5,0.2,44.1,0.2c1.7,16.3,10.1,29.2,13.7,43.7c1.2,5.1,1.5,10.4,2.3,16.6c5.4-0.4,11.6-0.9,17.9-1.2
		c3.3-0.2,6.7,0,10-0.1c7.3-0.3,14.5-0.5,21.8-1.1c1.5-0.1,3.3-1.8,4.3-3.2c3.4-4.8,7.2-8.5,13.7-7.7c1.4,0.2,2.8-0.6,5-1.1
		c0.8,3.3,1.3,6.6,2.3,9.7c1.2,3.5,2.4,7,4.3,10.1c3.5,5.5,7.8,10.5,11.5,15.9c0.6,0.9,0.8,2.8,0.3,3.8
		c-5.8,11.5-11.7,22.9-17.7,34.5c-4.6-0.8-9.2-1.6-13.8-2.5c-5.3-1.1-10.7-1.9-15.7-3.6c-3.4-1.2-4.3,0.2-5.6,2.7
		c-7.1,13.5-14.3,26.9-21.5,40.3c-0.2,0.4-0.6,0.8-0.1,0.2c-17.1-4.4-33.4-8.6-49.8-12.7c-3.5-0.9-7.3-1.2-10.5-2.7
		c-1.8-0.8-3-3.4-3.8-5.4c-2.5-6.5-5.8-12.3-11.6-16.6c-1.7-1.2-2.6-3.4-4.2-4.8c-4.3-3.9-8.7-7.7-13.2-11.4c-0.8-0.7-3-1.1-3.3-0.7
		c-0.7,1.1-1.3,2.7-1,3.9c3,12.3,6.7,24.2,7.2,37.2c0.5,13.2,2.4,26.5,2.8,39.8c0.3,7.2,3,14.6,5.8,21.5c5,12.2,11.3,23.9,16.2,36.2
		c2.5,6.1,3,12.9,4.7,19.3c0.9,3.3,2.4,6.4,3.4,9.6c0.4,1.4,0.3,2.9,0.4,4.4c-1.4-0.2-2.9,0-4-0.6c-5.2-2.4-10-5.9-16.2-4.7
		c-2.3,4.5-1.9,7.9,3.2,10.3c1.4,0.7,2.3,2.7,3.2,4.3c3.4,6,5,12.9,10.7,17.8c3.5,3,5.1,8,8.2,11.4c1.6,1.7,4.8,2.9,7.2,2.7
		c4.7-0.4,7.5,1.6,8.9,5.6c2,6,3.3,12.2,5.2,18.2c2.2,6.7,5.2,13,11.4,17.4c-7.6-1.6-15.2-3-22.8-4.7c-6-1.3-7.2,0.5-6.9,6.6
		c1,17.7,8.4,33.7,13.2,50.4c2.3,8.1,5.1,16.1,7.1,24.3c0.7,2.8,0.6,6.4-0.5,9c-3.2,7.3,0.4,13.4,3.1,19.5c1.9,4.2,5.2,7.8,7.6,11.8
		c2.5,4.1,1.4,9.3-2.7,11.9c-4.2,2.6-7.4,5.9-10.8,9.5c-3.1,3.4-8.3,4.8-12.7,7.1c-8.9-8.2-18.9-8.2-29.5-5.2
		c-4.2,1.2-8.6,1.6-12.9,2.6c-8.6,2.2-11.7,8.3-7.8,16.5c2.1,4.5,3.2,8.4,1.3,13.3c-1.1,2.8-0.6,6.2-1.2,9.2
		c-0.3,1.5-1.2,3.2-2.4,3.9c-0.8,0.4-2.8-0.6-3.8-1.5c-12.7-10.9-25.3-21.9-37.9-32.8c-3.6-3.1-8.8-1.8-10.6,3.3
		c-2.7,7.4-8,10.4-15.2,10.2c-2-0.1-4.7-2-5.9-3.8c-3.3-5-6.3-10.2-8.9-15.6c-1.9-3.9-3.2-8.1-4.1-12.4c-0.8-4-3.7-5-6.8-6.1
		c-9.6-3.4-20.2-4.2-28.3-11.9C1423,1173.2,1418.1,1174.3,1413.4,1173.9z"/>
	<path onclick="modal(this.id);" id="137" class="st0" d="M1901.6,1393.9c-2.2,0.8-2.6,0.8-2.8,1c-7,6.3-15.3,4.3-23.6,4.2c-6.9-0.1-14.2,0.7-19.1,7.2
		c-0.5,0.7-1.5,1.4-2.4,1.5c-8.3,1.4-11.4,7.8-14.8,14.4c-1.8,3.5-4.6,6.4-7.2,9.4c-2.2,2.6-5.6,4.4-7,7.3
		c-4.8,9.4-13.3,16.5-16.1,27.3c-0.9,3.4-4.6,6.8-7.9,8.6c-10.1,5.2-19.7,10.7-25.1,21.6c-0.5-0.1-0.9-0.3-1.4-0.4
		c-0.7-5.9-1.5-11.8-2.3-18.6c-4.8,2.2-9.1,4.2-14.1,6.6c2.3-8.9-3-13.3-8.6-17.5c-0.5-0.4-0.9-0.9-1.4-1.4
		c-4.2-3.9-8.5-7.6-12.5-11.6c-2.6-2.7-4.8-5.8-7.1-8.7c-5.5-6.9-10.7-14.2-16.7-20.7c-2.4-2.6-6.4-3.9-10-4.9
		c-4.2-1.2-6.1-4-6.2-7.8c-0.2-7.3-2.6-12.3-10.2-14.7c-3.3-1-6.2-4.3-8.6-7.2c-4.6-5.8-12.8-9.1-19.7-7.3c-1.9,0.5-3.8,0.8-6.5,1.4
		c-0.7-7.4-2.2-14.3-2-21.1c0.3-10.5,8.3-15.4,19.2-13.2c4.2,0.8,8.6,1.2,12.8,0.6c1.8-0.2,3.9-3.2,4.6-5.3c0.9-2.5,0.6-5.5-3.4-5.7
		c-0.8,0-1.5-0.7-2.3-0.7c-6,0.1-10.4-2.5-13.1-7.9c-1.8-3.6-4.4-4.1-7.7-2.3c-9.4,5.2-18.8,10.4-28.3,15.4c-1.8,1-4.2,1-5.9,2.2
		c-2.6,1.7-5.1,3.8-7.3,6.1c-3.9,3.9-7.4,8.2-11.3,12.1c-0.5,0.5-3,0.1-3.4-0.5c-1.9-2.8-4.5-5.8-4.8-8.9c-0.7-7.7-6-12.8-8.8-19.3
		c-2.3-5.1-3.9-10.6-5.3-16c-0.3-1.1,1.5-3.4,2.8-4.3c3.2-2.1,6.8-3.8,10.9-6c-6.4-10.3-12.1-20.2-18.6-29.6
		c-5.8-8.4-8-17.4-8.7-27.5c-0.5-7.4,0.5-14,3.8-20c2.5-4.5,6.4-8.5,10.5-11.7c8.2-6.5,16.4-12.9,26.4-16.7c2.2-0.8,3.8-3.2,5.6-4.9
		c1.8-1.6,3.6-3.2,5.3-4.9c3.2-3.2,7.9-6.1,9-10c0.9-3.1-1.6-8.2-4-11.2c-7.1-8.6-11-17.6-8.4-29.1c0.9-4.2,0.4-9.1-0.8-13.3
		c-2-7.7-5.2-15-7.5-22.7c-4-13.2-7.7-26.5-11.4-39.8c-0.7-2.8-0.5-5.8-0.7-9.3c7.4,1.5,14.8,2.9,22.2,4.4c4.3,0.9,8.6,2,12.9,2.5
		c1.3,0.1,3.7-1.5,4.1-2.8c1.2-3.4,1.3-7.1,2.3-10.5c0.9-3,1.9-6.2,3.7-8.7c3.2-4.7,3.2-10.9-0.6-15.7c1.6-0.9,3.2-1.7,4.8-2.5
		c2.5-1.2,4.2-1.3,6.4,1.6c2.8,3.7,6.6,7.1,10.8,9.1c6.4,3.1,11.7,7.1,15,13.4c1.5,2.8,3.4,3.6,6.3,3.4c5-0.3,10.3-1,14.3,3.3
		c1.7,1.8,3.7,3.5,4.7,5.7c4.5,9.4,4.4,9.4,12.8,15c1-0.8,2.1-1.7,4.3-3.5c-0.6,5.1-1.1,8.9-1.4,12.8c-0.4,5.4-0.5,10.9-1.1,16.3
		c-0.2,1.6-1.4,3.5-2.7,4.5c-7.6,5.6-8.3,6.8-5.8,15.5c1.7,5.6,3.9,11,6.2,16.4c2.2,5.1,5.2,9.9,6.9,15.1c2.9,9,9.9,10.9,17.7,11.7
		c3.1,0.3,6.4,0.3,9.5,0c10.5-1,18.5,3.1,24.4,11.7c0.4,0.5,1,0.9,2,1.8c11.5-10.7,22.9-21.4,33.3-31c2.6,9.9,5.4,20.3,8.1,30.6
		c-1.6,0.3-3.5,0.7-4.3,0.9c0,6-1.1,11.7,0.3,16.5c1.6,5.4,5.6,10.1,9.3,16.4c1.6-3.3,2.2-5,3.2-6.3c1.3-1.6,3.8-4.3,4.3-4
		c4.7,2.7,8.7-1.7,13.2-0.6c3.2,0.7,5-0.8,3.6-4.5c-1-2.6-1.3-5.4-2.5-7.9c-2.4-5.2-1.2-9.9,1.3-14.7c1.7-3.2,3.7-6.5,4.5-10
		c1.6-6.9,1.9-13.9-1.7-20.4c-0.8-1.5-2.8-2.8-4.4-3.2c-5.1-1-10.3-1.6-15.7-3.3c6.2-1.3,12.5-3.6,18.7-3.6c43-0.3,86-0.2,129-0.2
		c6.3,0,12.6,5.7,13.6,11.9c0.2,1.4,1.5,2.8,2.5,3.9c1.9,2.2,4,4.4,6.1,6.5c2.2,2.2,4.2,5.2,6.9,6.3c7.4,3.1,13,7.4,17.8,14.3
		c5.1,7.4,8.3,15.2,10.8,23.5c1.2,4.1,6.2,5.6,12.3,4.2c4.1-1,8.4-1.3,12.3-2.9c3.9-1.6,4.8,0.4,6.2,3.1c3.2,6.3,6.6,12.6,10,18.8
		c0.6,1,1.7,1.8,2.7,2.5c4.8,3.4,9.6,6.8,15.3,10.8c-3,2.7-5,4.8-7.2,6.6c-4.6,3.7-4,7.3,0.2,10.3c7,5.1,10.7,11.1,11,19.6
		c0.1,5,3.4,7.1,7.2,7.8c1,6.5,0.7,13.4,3.2,18.9c3.7,8.1,9.4,15.2,14.2,22.7c3.8,6.1,9.1,10.5,15.5,13.7c1,0.5,1.6,3.1,1.3,4.4
		c-1,4.9-3.2,9.1-8.6,10.6c-4,1.1-6.3,3.9-8,7.8c-1.3,2.9-3.5,5.5-5.7,7.9c-5.1,5.7-10.2,11.3-15.7,16.6c-4.3,4.3-9.4,7.8-13.6,12.1
		c-2.1,2.1-3.4,5.1-4.5,7.9c-2.3,6-4.4,9.6-12.6,5.9c-2.7-1.2-5.9-1.6-9-1.9c-12.4-1.3-23.3-5.8-32.4-14.4
		c-4.4-4.2-4.3-7.3-0.4-11.9c6.7-7.9,8.8-23.6,3.1-30.4c-3.5-4.1-8.5-6.9-12.8-10.3c-3.1-2.5-6.4-4.7-9-7.6
		c-5.3-6-11.4-10.4-19.4-11.4c-2.3-0.3-4.8-0.3-7,0.3c-2.6,0.7-5,2.4-7.7,3.2c-8,2.4-9.9,9.2-12,15.9c-0.2,0.7-0.6,1.5-0.6,1.5
		c-4-3.3-7.7-7.1-12.2-9.5c-1.7-0.9-5.4,1.5-7.8,2.9c-5.4,3.3-6.6,10.1-3.3,17c-1.6,1-3.2,2-4.8,3.1c-2.4,1.6-4.2,2-7-0.1
		c-2-1.5-6-1.8-8.5-0.9c-6.6,2.6-12.8,6-19,9.5c-1.7,1-2.9,3.3-3.7,5.2c-1.6,3.5-2.6,7.2-4,10.8c-1.9,5,0.9,8.4,4,11.6
		C1897.9,1392.4,1899.5,1392.8,1901.6,1393.9z"/>
	<path onclick="modal(this.id);" id="145" class="st0" d="M2190.9,1018.5c0.7-7.9,1.3-14.4,2-20.9c0-0.3,0.2-0.7,0.1-1c-3.9-9.8,5.1-14.2,8.8-20.8
		c4.3-7.8,9.3-15.2,13.1-23.2c1.1-2.2-0.4-6.4-1.9-9c-4.2-7.6-4.6-11.4,5-13.7c9.8-2.3,18.5-6.4,22.9-16.4c0.8-1.9,1.2-4,2.2-5.9
		c0.7-1.4,2-3.5,2.9-3.5c6.8,0.4,7.9-7.8,13.7-8.7c0.2,0,0.4-1.2,0.3-1.9c-1.3-7.9-2.5-15.8-4.1-23.6c-0.2-1.2-1.9-2.4-3.1-3
		c-10.8-5.2-21.6-10.3-32.4-15.2c-3.2-1.5-4.3-3.3-4.5-7c-0.6-15.8-2.5-31.6-2.3-47.4c0-4.9,0.9-9.6-1.5-14
		c-2.7-5.1-2.4-9.9-0.4-15.3c7.1,0.7,14.4,1.3,21.7,2.1c7.5,0.8,15,1.9,22.4,2.8c8,1,15.9,2,23.9,2.8c1.3,0.1,2.9-0.4,4.1-1.1
		c7.4-4.3,11.9-4.1,18.3,1.9c3.5,3.3,7,3.8,11.7,2.6c6.7-1.8,12.6-4.5,17.2-9.7c0.7-0.7,1.3-1.5,2.1-2.1c5.8-4.1,7.7-3,10.2,3.7
		c3,8,6.8,15.7,10.8,23.3c0.8,1.5,4.3,2.7,6.2,2.3c11.8-2.4,23.4-5.8,35.3-7.7c5.6-0.9,11.6,0.2,17.3,1.1
		c11.1,1.7,22.2,3.8,33.2,5.9c3.2,0.6,6.1,2.1,9.2,3c3.3,0.8,6.6,1.5,10,1.9c7.2,0.8,14.4,1.2,21.6,2.1c1.3,0.1,2.7,1.1,3.7,2.1
		c7.1,7.5,21.3,6.5,27.4-2.5c2,1.7,4.9,2.9,5.8,5c2.8,6.6,8.6,6,13.9,6.4c17.2,1.4,34.5,2.7,51.7,3.9c3.8,0.3,7.7,0.1,11.5,0.1
		c0.5,0,1.1,0.1,1.5-0.2c5.7-5.1,11.2-10.3,16.9-15.4c1.9-1.7,4-3.2,6.8-5.4c-0.5,5-0.7,9.4-1.4,13.6c-0.6,3.9,1.7,10.5,5,12.3
		c10.8,6,21.8,12.3,34.3,13.7c6.4,0.8,11.2,3,14.7,7.7c2.3,3.2,4,7.1,5.2,10.9c3.1,9.6,8.6,17.8,13.8,26.3
		c5.4,8.7,9.7,18.1,10.3,28.7c0.2,4,1,8.2,0.2,12.1c-1.2,6-3.5,11.7-5.5,17.5c-4.3,12.1-6.4,24.4-7.1,37.4
		c-0.6,12.7-0.5,25.9-6.5,37.9c-1,1.9-1.5,4.7-0.9,6.7c3.1,10-2.6,16.5-8.5,23.1c-1.3,1.5-2.5,3.1-2.9,3.7
		c-9.5-2.8-17.7-5.5-26.2-7.3c-2.7-0.6-5.9,1.1-8.9,1.9c-3.4,0.9-6.9,1.8-10.2,2.9c-3.6,1.2-4.9-1-6.3-3.6c-1.5-2.9-3.3-5.6-5.1-8.8
		c0.9-0.9,2.5-2.6,4.8-5.1c-2.8-1.6-5-3.5-7.6-4.3c-5.9-2-12.2-3.1-18-5.3c-4.5-1.7-8.3-0.6-11.4,2.2c-2.4,2.2-4.7,3.4-7.9,3
		c-0.9-0.1-2,0.1-2.9,0.5c-5.8,3.2-11,1.1-16.4-1.6c-5.6-2.8-12.1-4.3-17-8.1c-6.9-5.3-12.7-4.2-19.9-1c-15.4,6.8-11.4,7.7-22.8-3.5
		c-3.5-3.5-6.9-6.6-12-8.3c-5.4-1.9-9.6-6.7-14.8-9.2c-3.4-1.6-7.6-2-11.5-2c-6.2,0-12,0.5-18-3.3c-26.5-16.7-53.3-32.9-80-49.2
		c-4-2.4-5.4-1.6-5.7,3.2c-0.2,2.6-0.5,5.2-1,7.8c-1.5,7.7,2.7,14.4,4.2,21.5c1.2,5.8-0.6,10.7-3.1,15.7c-1.4,2.7-2.8,5.6-2.9,8.5
		c-0.4,9.5,0.2,19-0.2,28.5c-0.2,5.5,2.2,9.3,5.3,13.3c3.2,4.1,5.7,8.6,8.2,13.2c0.5,0.9,0,3.1-0.8,3.8c-5.6,5-13,7.2-21,4
		c-4.9-2-9.4-5-14.1-7.5c-1.1-0.6-2.4-0.9-3.9-1.5c-0.4,1.6-0.5,2.8-0.9,4c-2.4,6.7-2.4,6.1-9.8,5.5c-5.9-0.4-11.9,0.9-16.1,6.2
		c-0.1,0.1-0.1,0.4-0.3,0.4c-9.5,3.2-6.6,10.3-5.2,16.8c1.1,5-2.4,11.2-7.4,12.4c-4.3,1-8.5,2.6-12.8,2.7c-3,0.1-6.3-1.6-9-3.3
		c-11.2-7.2-23.2-11.3-36.7-10.4c-0.3-0.4-0.7-0.8-1-1.2c2.3-2.6,4.2-5.7,6.9-7.8c7.6-6,16.7-8.6,25.9-10.9c4.6-1.2,7-3.7,8.9-7.9
		c4.8-10.6,3.4-21.1,1.3-31.8c-0.9-4.7-0.7-9.7-0.7-14.6c0.1-3.9-4.6-8.9-9.3-8.8c-8,0.3-14.2-2.1-18.9-8.9
		c-2.5-3.6-6.6-3.1-9.8-1.2c-3.3,2-6,5.1-9,7.7c-3.3,3-6.7,4-11.2,2.3c-1.9-0.7-5.3-0.5-6.5,0.8c-1.7,1.8-2.1,4.9-3,7.4
		c-0.4,1-0.3,2.6-1.1,3C2200,1013.7,2195.8,1015.9,2190.9,1018.5z"/>
	<path onclick="modal(this.id);" id="147" class="st0" d="M1217.2,1431.3c-7-7.1-16.2-4.8-24.4-8.3c0.3-2.6,1.3-5.7,1-8.7c-0.5-4.6-1.5-9.3-3-13.7
		c-4.1-11.7-1.4-13.8,6.1-19.4c4.2-3.1,9.3-4.8,13.4-8.1c7.7-6.1,14.5-13.2,16.1-23.7c0.2-1.1,0.8-2.1,1.4-3.6c3,0.7,5.9,1.4,8.9,2
		c3.9,0.8,7.4,0.4,9.3-3.6c5.4-11.6,11.5-23,15.7-35.1c2.4-6.8,1.5-14.7,2.5-22c0.5-3.4,2.3-6.6,3.1-9.9c0.6-2.3,1.2-5,0.7-7.2
		c-2.3-8.8-4.9-17.4-7.6-26.1c-0.4-1.4-1.4-2.5-2.3-3.9c3.2-2.9,6.5-5.9,10.5-9.6c3.5,3.7,7.2,7.3,10.4,11.2
		c3.1,3.7,7.2,3.1,10.5,1.9c2.1-0.7,3.8-4.2,4.4-6.8c2.9-10.6,2.4-21.4,0.2-32.2c-0.5-2.4-0.1-4.9-0.1-8.1
		c7.5,3.5,12.4,1.2,16.3-5.1c1.5-2.3,4.4-3.8,6.9-5.4c4.8-3,9.9-5.6,14.7-8.6c4.3-2.7,7.6-2.4,10.9,1.1c2.2,2.3,4.8,6.1,7.3,6.1
		c5.2,0.1,10.8-1,15.6-3.2c5.9-2.8,8.6-3.2,13.5,1.3c1.2,1.1,2.4,2.3,4,3.8c7.3-8.1,12.4-18.9,24.8-19.4c0.8,2.7,1.1,5.4,2.4,7.5
		c1.4,2.4,3.3,4.3,7,2.7c3.1-1.3,6-0.4,9,2.2c2.9,2.5,6.9,4,10.6,5.4c5.6,2.1,11.5,3.3,16.9,5.7c1.9,0.9,3,4.1,4,6.5
		c1.4,3.1,2,6.5,3.5,9.5c2.6,5.2,6,10,8.5,15.2c2.1,4.4,4.8,6.7,9.9,6.1c7.1-0.8,13.2-2.7,16.3-10.1c2.6-6.4,5.4-6.4,10.1-1.4
		c2.6,2.8,6.1,4.6,9,7.2c8.7,7.8,17.4,15.6,26,23.5c3.7,3.4,9.7,1.9,10.8-3.1c1.2-5.5,2.7-11.1,2.9-16.8c0.1-3.5-1.9-7.1-2.9-10.7
		c-2.2-8.4-1.8-9.4,6.4-11.3c7.1-1.7,14.3-3.8,21.6-4.1c5.4-0.2,10.8,2.4,17.5,4.1c-5.1,4.2-8.8,7.1-12.4,10.2
		c-4.4,3.9-9.7,7.3-12.6,12.1c-4,6.6-8.2,13.6-5.5,22.4c1.6,5.2,0.1,11.5,1.9,16.6c2.1,6,6.2,11.3,9.5,16.9
		c4.6,7.8,9.3,15.6,14.3,23.9c-2.8,1.5-5.2,2.8-7.5,4.1c-5,2.5-6.2,4.9-4.5,10.2c2.8,8.1,5.4,16.2,10.4,23.4
		c3.2,4.6,4.1,10.8,6.4,16.1c0.9,2,2.4,4.1,4.2,5.3c2.2,1.5,4.5,2.7,7-1c3.6-5.3,8.4-9.9,12.7-14.8c0.4-0.4,1-0.8,1.5-1
		c12.9-6.5,25.8-12.9,39.2-19.6c0.6,0.8,1.6,1.9,2.3,3.1c2.7,5.6,7.8,7,13.3,7.7c2.2,0.3,5.2,0.1,4.6,3.6c-0.6,3.4-3,2.1-5.4,1.8
		c-5.7-0.8-11.5-1.3-17.3-1.2c-6.1,0.1-13.5,7.9-14,15.8c-0.5,7.1,0,14.3,1.1,21.3c0.8,5.1,5.9,4.5,9.4,3.6
		c7.6-1.9,13.4,0.2,18.5,5.8c3.7,4.1,7.5,7.9,13.2,9.9c2.3,0.8,4,5.6,4.5,8.8c0.9,6.6,3,9.2,9.5,12c5.4,2.4,10.7,4.8,14.1,10.9
		c4.6,8.2,11.3,15.2,17.1,22.7c0.2,0.3,0.4,0.6,0.7,0.7c8.6,3.7,12.8,12.3,19.6,18c1.4,1.2,1.6,4,2.1,6.1c0.6,2.4,0.8,4.8,1.3,7.6
		c4.9-2.4,8.6-4.2,12.5-6.1c1.1,5.8,2.1,11.4,3.3,18.4c-2.6,1.4-6.7,3-10.1,5.5c-8.4,6.2-16.7,12.6-24.7,19.4c-2,1.7-3.1,5-3.8,7.8
		c-2.2,8.4-8.3,12.8-15.3,16.8c-5.3,3.1-10.4,6.8-15.2,10.6c-4.2,3.3-5.5,8.2-6,13.5c-0.3,3.1-1.3,6.6-3.1,9.1
		c-4.4,5.9-9.4,11.4-14.4,17.3c-1.9-2.7-3.5-4.7-4.9-6.8c-0.4-0.5-1.1-1.3-1-1.6c3.4-7.1-1.8-13-2.4-19.6c-0.3-3.1-2.1-3.8-5.1-3.8
		c-19.4-0.2-38.9-0.5-58.3-0.9c-10.6-0.2-21.2-0.7-31.8-1c-2.9-0.1-4-0.6-3-4.1c1.8-6.1,2.7-12.4,4.1-18.6c0.3-1.5,0.9-3.1,1.7-4.4
		c3-4.5,6.2-8.9,9.4-13.3c2.6-3.7,5.2-7.4,8-11.1c3.9-5.1,4.1-11.5,1.1-17.4c-1.6-3.1-2.1-6.7-3.1-10.1c-0.8-2.6-1.4-5.4-2.5-7.9
		c-1.5-3.5-3.4-6.7-5-10.1c-4-8.1-1.1-15.5,7.6-18.4c1.3-0.4,4.2,0.7,4.9,1.9c6,9.8,14.1,11.4,23,3.8c4.8-4.1,4.2-10,3.9-15.7
		c-0.3-5.5,0.1-11.1-1.1-16.3c-0.9-3.9-3.1-8.1-6-10.8c-6.9-6.5-14.2-12.8-22.1-17.9c-3.1-2-8.6-1.3-12.7-0.5
		c-6.9,1.3-13.5,3.4-18.5,9.6c-6.4,7.9-13.9,15-23.2,19.8c-3.7,1.9-6,1.1-8.2-1.9c-1.4-1.8-2.5-3.9-4-5.6c-1.4-1.5-3-3.2-4.8-3.9
		c-4.5-1.8-9.3-2.9-13.8-4.5c-4.8-1.7-7.5-0.2-7.3,4.6c0.3,7.2-5.3,11.4-8.1,16.9c-0.5,1-3.3,0.7-5.2,1.1
		c-3.9-6.3-7.7-12.3-11.3-18.4c-1.4-2.3-2-5.1-3.4-7.4c-2.5-4.1-6.6-4.9-10.2-1.6c-2.4,2.3-4.1,5.4-5.9,8.4c-2.3,3.8-4.6,7-9.4,7.9
		c-4.5,0.9-5.7,6.2-3.3,10c0.9,1.4,0.9,4.4,0,5.9c-4.2,7.3-4,8.6,3.3,12.3c2.4,1.2,5.5,2.2,4.2,5.9c-1,2.7-8,6-10.2,4.8
		c-3.8-2.2-7.3-4.9-11.2-6.9c-3.3-1.7-7-2.6-11.5-4.3c0,3.5,0.4,5.4-0.1,7c-0.6,1.9-1.8,4.8-3,4.9c-2,0.2-4.2-1.4-6.2-2.4
		c-0.6-0.3-0.7-1.6-1.3-2c-6.6-3.9-13.2-7.7-19.9-11.4c-4.4-2.4-7-1-6.3,3.9c0.5,4,2.5,7.8,3.8,11.4c-0.5-0.5-1.7-1.3-2.6-2.4
		c-5.7-6.4-12.3-10.3-21.2-8.8c-5.2,0.9-8.2-1.5-10.2-6.3c-3.8-8.8-9.7-15.9-18.2-20.8c-4.8-2.8-13-2.3-16.7,1.8
		c-4.2,4.6-7.8,9.7-11.6,14.6c-0.8,1-1.6,2.5-2.5,2.6c-7.7,0.9-15.4,1.5-23.8,2.3c0-2.1,0-3.8,0-5.6c0-4.4-1.4-7.9-6-9.6
		c-2.9-1-5.9-2.2-5.1-6.5c0.1-0.6-1.5-2.1-2.5-2.3c-6.2-1.5-12.4-2.6-18.6-4.1c-4.6-1.1-8.9-0.5-13.1,1.7c-4.7,2.5-9.8,4.2-13.1,9
		C1222,1428,1219.3,1429.6,1217.2,1431.3z"/>
	<path onclick="modal(this.id);" id="139" class="st0" d="M2295.8,589.9c-2.9-1.5-6-3.6-9.3-4.7c-5.2-1.7-8-6.2-8.1-10.2c-0.1-8.4-5.5-13.5-9.7-19.2
		c-2.1-3-6.1-4.9-9.6-6.5c-1.7-0.8-4.2-0.1-6.3,0.3c-4,0.8-6.9,0.7-9.6-3.5c-3.9-6.1-7.1-13.1-14.2-16.8c-1.1-0.6-1.3-2.9-2.1-4.2
		c-3.5-5.8-7-11.6-10.8-17.3c-0.7-1-2.5-1.7-3.8-1.7c-9.9-0.5-19.9-0.7-29.8-1.1c-9.9-0.3-19.9-0.7-29.8-1c-4.5-0.1-5-4-6.7-6.7
		c-1.9-3-3.1-6.7-5.6-8.9c-1.4-1.2-6-1-7.3,0.4c-7.3,7.4-17,4.6-25.5,6.6c-0.8,0.2-2-1.5-3-2.2c-4.8-3.7-9.1-8.3-16.4-6.3
		c-2,0.5-4.9-0.5-6.7-1.8c-5.4-3.8-10.6-1.1-15.4,0.6c-12.8,4.3-25.8,6.1-39.3,5.5c-14.4-0.7-28.9-0.7-43.3-1.1
		c-2.8-0.1-5.5-0.8-8.9-1.3c-3.2-6.5-6.8-13.3-9.9-20.2c-2.5-5.6-4.9-11.5-6.2-17.4c-1.5-7-1.6-14.2,0.9-21.1
		c1.9-5.3,1.1-6.3-4.5-5.8c-8,0.7-16,1.6-24.1,1.9c-12.1,0.6-24.2,0.8-36.3,1c-6.3,0.1-13.1,1.2-18.9-0.4
		c-9.6-2.7-18.7-7.3-27.9-11.2c-7.5-3.2-15.2-3-22.8-1.7c-14,2.4-20.8,1.7-30-12.9c-1.6-2.5-3.2-4.3-6.6-3.7c-5,0.8-10,1.4-15.1,1.9
		c-6.7,0.7-12.9-1.2-17.6-5.9c-6.6-6.5-14-11.4-22.6-14.3c-3.5-1.2-7.4-1.7-11.1-1.6c-14,0.6-26.6-4.5-39.4-8.9
		c-12.4-4.3-15.2-7.9-15.5-20.9c0-2.3-0.2-4.7,0-7c0.8-9.3-0.2-18.4-4.3-26.8c-2.4-4.8-0.7-8.7,1.1-12.9c2.8-6.8,4.5-13.3-1.9-19.5
		c-2-2-2.3-5.6-3.5-8.6c0.1-0.1,0.1-0.5,0.4-0.7c7.1-4.5,5.4-11.2,4.7-17.9c-1.3-14.1-3.6-28.3,6.6-40.9c3.3-4.2,4.2-10.4,5.9-15.9
		c1.5-4.8,4.8-6.1,9.6-4.4c9.3,3.3,15.5,10.8,22.9,16.5c7.4,5.6,15.1,10.1,24,12.9c6.1,1.9,11.9,4.8,15.3,10.5
		c2.5,4.2,6.3,5.2,10.1,4.2c3.6-1,6.3-4.3,6.2-8.6c-0.1-4.1,1.8-5.1,5.7-5.3c4.8-0.2,9.7-1.1,14.4-2.5c6.4-1.8,8.9-7,10-13.2
		c0.3-1.9,1.3-3.6,2.3-6.1c1,1.2,1.4,1.5,1.6,1.9c3.5,8,9.9,10.8,18.6,8.1c1.2-0.4,2.5-0.9,3.8-1.1c6.5-1.1,10.9-4.7,13-10.9
		c6.1,1.6,11.4,3.3,15.3,8.7c4.1,5.8,10.4,10,14,16c4.1,6.7,6.4,14.5,9.2,21.9c3.1,8.2,8.1,14.3,16.7,17.2c2.2,0.7,4.4,2,6.3,3.5
		c2.2,1.9,2.4,4.2,1,7c-6.6,13.5-2,29.4,10.2,38.2c8.8,6.3,17.1,13.2,25.3,20.3c6.9,6,11.9,4.8,15.7-3.8c2.7-6.2,2.8-11.8,1.2-18.4
		c-2.3-9.2-2.9-18.7-4.3-28.1c-0.8-5.4,4-6.8,7-8.4c5.2-2.8,11.2-4.2,16.8-6.3c1.4-0.5,2.9-0.8,4.1-1.5c7.8-4.4,15.6-8.7,23.3-13.3
		c4.3-2.6,8.7-5.2,12.4-8.6c7.1-6.5,15.6-8.9,24.7-10.8c8.6-1.7,17-4.4,25.3-6.9c2.6-0.8,4.2-1.8,5.4,2.1c3.1,10.1,6.9,20,10.3,30
		c0.5,1.5,0.5,3.3,0.4,4.9c-0.2,2.6-0.5,5.2-0.9,7.8c-2.1,13.1,5.1,21.4,14.9,28.2c2.6,1.8,5.6,3.2,8.4,4.8c3.9,2.1,6.3,4.9,5,9.8
		c-1.1,4.1,3.4,10,9.2,12.3c1.4,0.6,2.8,1,5.6,2c-4.2,0.6-7,0.6-9.5,1.5c-4.1,1.3-6.3,4.5-5.5,8.8c1.8,9.7,0.9,20.1,6,29
		c1.5,2.7,3.4,5.7,5.9,7.1c3.8,2.1,4.2,4.8,4.1,8.6c-0.3,5.7-0.2,11.4,0,17.1c0.1,2.6-0.7,4-3.5,4.4c-2.2,0.3-4.4,1-6.5,1.9
		c-4.2,1.6-7.3,6.4-7,10.8c0.2,3.6,4.4,8.1,8.6,9.2c10.4,2.7,20.2,1.2,29.2-4.5c9.6-6.1,18.8-4.5,28.3-0.1c3.4,1.6,7.2,2.1,10.6,3.7
		c2,1,4.4,2.7,5.2,4.6c4.2,10.7,13.1,15.2,23.1,18.7c9.3,3.2,18.7,5.3,28.4,2.5c10.1-2.9,16.2-6.4,15.8-20c-0.2-9.4,0.5-18.9,1-28.3
		c0.1-1.4,1-3.1,2-4.2c4.2-4.7,8.4-9.4,12.9-13.8c0.9-0.9,3.3-1.2,4.5-0.7c4.6,2.1,8.9,4.7,13.1,7c-1.3,5.6-2.3,10.8-3.7,15.9
		c-2,7.6,1.7,13.5,5,19.6c2.9,5.5,5.3,11.2,8.1,16.7c1.7,3.3,0.6,5-2.3,6.8c-6.5,4.1-13.1,8.3-15.1,16.6c-3,12.1-5.6,24.6-0.4,36.2
		c2.9,6.5,9.5,11.4,14.6,17c0.6,0.7,1.6,1.1,2.3,1.8c13,12.6,26,25.3,38.9,37.9c4.3,4.2,3.8,8.4-1.5,11.4c-4.3,2.4-8.7,4.5-13,6.7
		c-3.5,1.8-7.1,3.2-10.4,5.3C2302,585,2299.1,587.5,2295.8,589.9z"/>
	<path onclick="modal(this.id);" id="130" class="st0" d="M2206.7,659.4c0,9.3,8.8,10,12.7,15.9c-7.2,3.4-6,9.8-6.4,16c-0.9,12.6-2.5,25.1-3.8,37.7
		c-0.7,6.4-0.5,13-2.3,19c-1.8,6.3,1.2,11.9,0.7,17.3c-0.7,8.4,1.5,16,2.3,24c1.6,15.9,1.6,32.1,2.3,48.1c0.2,4.1,0.8,8.1,1.3,12.2
		c-8.1,0.4-33.7-11.3-34.2-16.4c-5.3,3.5-10,6.7-14.9,9.8c-8.2,5.2-16.5,10.2-24.8,15.3c-5.6,3.5-11.1,7.3-16.8,10.9
		c-4.1,2.5-7.6,1.8-10.5-2.2c-1.3-1.7-2.9-3.2-4.6-4.6c-1.2-1-3.2-2.6-4.2-2.2c-7.9,3.4-12.7-2.9-18.6-5.6
		c-3.9-1.8-7.5-4.5-11.5-5.4c-3.3-0.7-7.3,0.2-10.7,1c-17.1,4.2-34.1,8.6-51.5,13.1c-1.2-6.3-2.7-13.4-3.9-20.5
		c-0.2-1.1,0.4-2.5,1-3.6c1-1.8,2.4-3.5,3.6-5.3c7.8-12,7.8-12,4.4-26.2c-0.3-1.4-0.8-3.1-0.3-4.4c2.6-6.9-0.3-12.7-3.7-18.3
		c-1-1.7-2.1-3.8-3.7-4.5c-9.8-4.4-13.8-12.6-16.2-22.4c-2.5-9.9-6.4-12.4-16.6-11.1c-2.7,0.4-5.4,1.2-9.1,2
		c-2.9-10.2-7.3-20.3-8.3-30.7c-0.7-8.1,2.2-16.8,4.9-24.7c2.2-6.6,2.2-12.3-0.1-19.4c1.9,1.5,4.2,2.6,5.5,4.5
		c2.7,4,4.6,8.5,7.3,12.6c2.1,3.1,4.9,5.3,9.2,6c3.1,0.5,6,3.2,8.7,5.3c2.8,2.1,4.8,3.1,8,0.1c6-5.6,12.6-10.5,19.4-16.1
		c-2.5-2-4.5-4-6.7-5.4c-9.3-6.1-12.7-16.8-19.5-24.9c-3-3.6-5.7-7-10.5-8.3c-12.2-3.2-23.7-8.2-33.8-16c-3.8-2.9-6.2-6-6-11.1
		c0.4-6.4,0.1-12.9,0.1-20.1c-6.8,0.8-13,1.5-19.5,2.3c6.1-11.2,16.6-15.9,27.5-20c0.2-0.1,0.4,0,0.5-0.1c1.8-1.2,3.6-2.4,5.4-3.5
		c-1.8-0.8-3.7-1.5-5.4-2.5c-4.6-2.9-8.9-6.6-13.8-8.9c-6.8-3.3-4.1-7.5-2.2-12c0.4-0.9,0.6-2,0.4-2.9c-1.5-8.1,2.1-15.2,4-22.6
		c2-7.9,4-15.7,5.9-23.6c0.4-1.5,0.1-3.2,0.1-5.5c-10.2,1.5-19.8,2.8-28.3,4c-2.2-3.3-4-6.4-6.2-9.2c-5.1-6.6-8.6-13.8-9.5-22
		c-0.9-8.9-1.8-17.5-5.1-26.3c-2.8-7.3-6.3-12.6-13-16.9c23.5-1.1,47.1-2.2,70.6-3.3c-0.8,4.5-1.9,9.2-2.4,14
		c-0.4,4.2-0.2,8.2,2.1,12.3c2.7,4.9,3.5,10.8,5.8,16c3.3,7,7.1,13.8,11.1,20.5c0.8,1.4,3.3,1.8,5.1,2.5c0.6,0.2,1.3,0.1,2,0.1
		c18.1,0.3,36.2,0.4,54.3,1.1c10.4,0.4,20.2-1.9,29.9-4.8c3-0.9,6-1.8,9-2.2c2-0.2,4.2,0.4,6.3,0.8c3,0.6,6,2.2,8.8,1.9
		c6.9-0.7,11.3,3.1,15.9,7c1.4,1.1,3.5,1.9,5.2,1.8c3.2-0.1,6.5-1.8,9.6-1.4c7.3,0.7,12.5-3.1,18.7-8c1.8,3.5,3.8,6.6,5,9.9
		c1.7,4.4,6,7.9,10.7,8c11.8,0.3,23.5,0.6,35.3,1c7.3,0.2,14.5,0.5,21.8,1.1c1.9,0.2,4.4,1.3,5.3,2.7c3,4.6,5.3,9.7,7.9,14.5
		c1,1.8,1.7,4.3,3.3,5.3c6.7,4.3,10.1,11,14.1,17.4c0.9,1.5,1.2,4,0.5,5.6c-2.7,6.7-4.6,13.3-2.2,20.7c0.7,2.2-0.2,5.3-1.3,7.5
		c-5.9,12-5.5,24.6-3.2,37.1c0.6,3.5,4.1,6.6,6.7,9.5c4.3,4.6,9.1,8.7,11,15c1,3.2,1.7,6.5,2.5,9.7c-0.4,0.5-0.7,1-1.1,1.5
		c-5-1.1-9.9-2.2-14.9-3.5c-2.4-0.6-4.2-0.4-6.7,0.6c-6.5,2.4-13.4,3.6-20.2,5.2C2210.6,658.5,2208.5,659,2206.7,659.4z"/>
	<path onclick="modal(this.id);" id="148" class="st0" d="M1266.6,1423.5c2.2,2.2,4,5.2,6.6,6.3c5,2.2,6.2,5.7,5.8,10.5c-0.1,1.8,0,3.6,0,6.1
		c10-0.9,19.4-1.6,28.7-2.6c1.2-0.1,2.2-2.1,3.2-3.3c3.4-4.6,6.2-10,10.3-13.8c4.9-4.6,13-5.2,19.9,2.1c4,4.2,7.5,9.2,10.3,14.3
		c3.3,6,7,10.2,14.6,9c8.1-1.2,14.3,2.2,18.7,9c0.8,1.1,2.3,2.4,3.5,2.5c1.7,0.1,3.7-0.6,5.1-1.6c0.4-0.3-0.3-2.8-1-4
		c-1.6-3.3-3.5-6.6-5.3-9.8c0.5-0.4,1-0.8,1.5-1.1c2.5,1.4,5.1,2.6,7.5,4.1c5.2,3.5,10,7.5,15.4,10.6c2.6,1.5,6.6,2.8,9.1,1.8
		c3.7-1.5,6.1-5.3,4.1-11c2.3,0.8,3.8,1,5.1,1.8c4.6,2.7,9,5.9,13.8,8.4c1.7,0.8,4.4,0.6,6.2-0.1c2.5-1,4.8-2.8,6.8-4.7
		c3.8-3.5,2.4-8.6-2.8-10.8c-6.9-2.9-7.1-3.2-3.1-9.3c2.8-4.2,2.2-7.5-2.2-10.7c1.4-1.2,2.3-2.6,3.5-2.9c5.8-1.5,8.8-5.7,11.2-10.7
		c0.6-1.3,1-3,2.1-3.9c1.7-1.4,3.7-3,5.7-3.3c1-0.2,2.6,2.3,3.5,3.8c4.3,7.4,8.3,15.1,12.9,22.4c1.2,1.8,4.5,3.5,6.6,3.2
		c2.2-0.3,4.4-2.7,6.1-4.6c1.6-1.8,2.8-4,3.7-6.3c1.8-4.1,3.2-8.3,4.7-12.2c5.2,1.5,10.7,2.5,15.6,4.8c2.7,1.3,4.8,4.4,6.6,7
		c4.6,6.5,7.6,7,14.4,3.3c9.5-5.2,16.5-12.9,23.6-20.6c7-7.6,16.4-8.3,25.9-7.9c0.3,0,0.8,0,1,0.1c8.2,8.4,20.2,12.6,25.9,23.7
		c0.4,0.7,0.8,1.7,0.5,2.3c-3.1,6-0.4,11.9,0.7,17.5c2,10.6-3.9,14.5-11.7,16.2c-3.4,0.8-6.2-0.5-7.4-4.1c-0.1-0.2-0.2-0.3-0.3-0.4
		c-4.2-8.2-11.8-8.3-18-1.2c-6.4,7.4-3.3,14.1-0.3,21.2c3.8,9.1,7.9,18.2,11,27.6c1.4,4.2,0.4,8.8-2.9,12.7c-3.3,4-5.9,8.5-8.8,12.8
		c-2.1,3.1-4.4,6.1-6.3,9.3c-1.7,2.8-3.8,5.7-4.6,8.8c-1.6,5.8-2.4,11.8-3.8,17.6c-1,4.5,0.4,6.7,5,6.8c20.6,0.4,41.2,0.6,61.8,1.1
		c10.4,0.2,20.8,0.9,32.2,1.4c0.2,3.1,0.2,6.5,0.8,9.8c0.3,2,1.5,3.8,2.6,6.2c-2.4,2.5-1.5,5.5,0.8,8.5c4.2,5.5,3.7,10.8-1.9,14.8
		c-6.9,4.8-14.5,7.7-23.2,6.3c-7.4-1.2-18.4,5.4-22.3,12.7c-6.7,12.4-16.1,22.5-27.3,30.8c-4.8,3.6-11.4,4.7-16.5,8
		c-8.2,5.3-13.5,13.3-17.1,22.2c-4,9.6-8.6,18.5-15.2,26.9c-5.2,6.7-13.4,8.7-17.8,15.6c-1.7,2.7-3.5,4.5-2.4,8.3
		c1,3.1-0.1,6.7,0.3,10c0.3,2.5,1.5,4.9,2.1,7.3c0.3,1.1,0.4,2.5,0,3.6c-1.6,4.6-2.8,9.4-5.3,13.5c-2.8,4.7-6.6,8.9-10.3,13
		c-2.7,3-5.1,5.8-1.6,9.8c-5.7,2.2-11.1,4.3-16.6,6.1c-0.8,0.3-2.9-1-3.2-1.9c-3.6-11.9-12.4-20.6-19.2-30.5
		c-3.6-5.2-5.8-11.6-10.1-16.1c-6.8-7-8.4-13.9-7.3-23.9c1.3-12.1-3.6-23.3-15-30.4c-7.5-4.6-14.8-9.7-21.7-15
		c-6-4.6-9.6-11.1-10.6-18.5c-2-16.1-11.7-27.1-23.7-36.3c-8.3-6.4-12.7-14.5-14.4-24.6c-1.7-9.9-3.7-19.8-5.5-29.8
		c-0.3-1.5,0-3.2,0.5-4.6c6.2-14.9,3.7-28.7-6.4-40.8c-2.2-2.6-6.8-3.5-10.5-4.4c-6.6-1.6-12-4.3-15.3-10.9c-1.3-2.6-4.2-4.9-6.9-6
		c-6.8-2.8-7.2-3.8-7.1-11.2c0.2-12.3-3.8-23.4-12.1-32.8c-0.2-0.2-0.5-0.4-0.7-0.7c-5.4-8.6-13.4-8-21.8-6.2
		c-3.3,0.7-7.2,1.4-10.3,0.4c-13.5-4.4-25.1-0.3-36.1,7c-2.7,1.8-5.6,3.6-7.8,5.9c-5.9,6.3-13.1,10-21.2,12.5
		c-2.5,0.8-5.3,3-6.4,5.3c-3.4,7.2-8.6,12.3-16,15.2c-2.6-2.3-2.5-4.6-1-7.8c3.6-7.4,7.3-14.9,9.7-22.8c1.3-4.2,0-9.3-0.5-14
		c-1.4-11.8-3-23.6-4.7-36.5c5.4,1,10.3,1.6,15.1,2.8c2.5,0.6,4.7,2.1,7,3.4c4.5,2.7,8.1,0.2,10.3-2.8c4.4-6.1,10.3-9.3,17.1-11.7
		c1.5-0.5,3.3-0.7,4.9-0.4c7.2,1.3,14.4,2.8,21.6,4.2C1267.3,1422.7,1266.9,1423.1,1266.6,1423.5z"/>
	<path onclick="modal(this.id);" id="142" class="st0" d="M1552,810.7c2.7,2.4,5.5,4.6,7.9,7.1c3.8,3.9,7.8,7.7,10.9,12.1c3.5,4.9,5.9,10.4,9,15.6
		c0.6,1.1,2,2.1,3.2,2.4c15.6,3.9,31.4,7.6,47,11.7c3.8,1,7.3,3.3,10.9,4.9c2.7,1.2,4.1,0.1,5.4-2.4c6.8-13,14-25.9,20.8-39
		c1.7-3.3,3.7-3.4,6.8-2.7c8.6,2,17.1,3.9,25.8,5.3c1.4,0.2,3.8-1.6,4.6-3.1c4.2-7.8,8-15.8,12.3-24.4c4.6,4.6,9,8.7,13.2,13.2
		c4.4,4.7,8.1,10,12.7,14.4c3.5,3.4,3.8,7.4,4.3,11.6c0.8,5.8,1.1,11.8,2.1,17.6c0.3,1.4,2.3,3.2,3.9,3.6
		c18.7,5.6,37.5,10.9,56.3,16.3c3.1,0.9,6.1,2.3,10.3,3.8c-0.1-0.5,0.4,0.5,0.4,1.3c-0.6,9.5-0.4,19.3-2.3,28.5
		c-1.6,7.7-5.7,14.8-8.6,22.3c-2.7,7-5.2,14-8.1,20.9c-1.4,3.2-0.6,5,2.4,6.2c7.1,3.1,14.3,5.9,21.3,9.2
		c9.1,4.4,15.9,11.5,21.6,19.8c1.2,1.7,2.9,3.5,4.8,4.2c6.9,2.6,14.1,4.8,21.1,7.2c6.3,2.2,6.8,5,2.2,9.9c-5,5.4-9.1,12-14.9,16.4
		c-7,5.2-9,13-13.2,19.6c-2,3.1-5.2,5.5-7.4,8.6c-2.2,3.1-3.9,6.6-5.6,10.1c-0.9,1.7-1.3,3.6-1.9,5.5c-1.1,3.5-3.7,4-6.9,3.4
		c-2.7-0.5-5.5-0.7-8.3-1c-4.3-0.4-7.3,0-9.3,5.2c-2.4,6.3-13.5,6.5-17.6,1c-2.1-2.9-4.5-5.7-5.9-9c-2.1-4.8-5.7-7.8-10.3-9.8
		c-9.3-4-17.6-9.3-25.1-16.1c-4.6-4.3-10.1-4.7-16-3.2c-7.5,1.9-10.5,6-10.8,15.2c-0.1,3.3-0.2,6.7,0,10c0.3,3.5-0.8,7.5-4,7.2
		c-2.8-0.2-6.7-3.4-7.7-6.2c-1.6-4.5-3.7-8.2-6.9-11.6c-3.4-3.5-7-5.6-11.8-4.7c-5.5,1.1-9.3-1.4-11.7-5.8
		c-2.7-4.9-6.9-7.8-11.8-9.6c-5.9-2.2-9.5-6.7-13.2-11.4c-0.9-1.1-3.1-1.6-4.8-1.7c-1.2-0.1-2.4,0.8-3.6,1.3
		c-7.6,3.3-7.4,3.2-4.5,10.7c0.8,2,0.6,4.8-0.1,6.8c-1.6,4.7-4.1,9-5.7,13.7c-0.9,2.6-0.9,5.5-1.3,8.7c-8.8-4.9-15.8-10.8-17.9-21.1
		c-1.2-5.7-2.8-11.4-4.7-16.8c-2.4-6.7-6.2-8.4-13.6-8.2c-1.9,0-4.3-2.4-5.8-4.2c-3.1-3.7-6.1-7.6-8.7-11.7
		c-2.6-4.1-4.5-8.6-6.9-12.8c-1.5-2.5-3.5-4.8-5.2-7.2c-0.8-1.2-1.5-2.5-2.3-3.7c0.3-0.4,0.6-0.7,1-1.1c4.1,1.8,8.1,3.9,12.3,5.2
		c2.2,0.7,6.1,1.1,7.1-0.1c1.3-1.7,1-5.1,0.5-7.5c-2-8.2-4.3-16.3-6.6-24.4c-0.7-2.6-1.4-5.4-2.5-7.8c-6.2-13.6-13.6-26.8-18.4-41
		c-3-9-2.2-19.4-3.1-29.2c-0.7-7.1-1.4-14.2-2.1-21.3c-0.3-3.6-0.4-7.2-1-10.8c-0.9-5.6-2.2-11.1-3.3-16.7c-0.7-3.2-1.4-6.3-2.2-9.4
		C1551,811.5,1551.5,811.1,1552,810.7z"/>
	<path onclick="modal(this.id);" id="144" class="st0" d="M2195.5,1116.7c-3.7-5.8-7.6-11.4-14.5-11.9c-4.8-0.4-10.1,0.7-14.5,2.7c-5,2.3-8.8,1.1-12.9-1.3
		c-5.4-3.3-10.4-4.5-16,0.3c-2.3,2-3,3.6-2.4,6.1c0.9,4,2.1,7.9,2.6,11.9c0.5,3.7,0.3,7.1-3,10.4c-5.2,5.2-6.7,12.5-7.9,19.6
		c-0.2,0.9-0.2,2.2-0.8,2.7c-3.7,2.8-3.8,6.2-2,10.1c-0.7,0.3-1.1,0.6-1.5,0.6c-15.3,0.4-30.5,0.7-45.8,1.1
		c-3.7,0.1-6.2-0.5-7.3-4.8c-0.6-2.2-2.7-4.1-4.4-5.8c-7.7-8-12.8-18.4-23-24c-1.3-0.7-2.3-2.4-3.1-3.7
		c-5.4-8.9-10.9-17.7-15.9-26.9c-1.7-3.1-1.7-7-2.6-10.7c7.7-0.4,15.1-0.8,22.6-1c3.5-0.1,4.7-1.3,2.8-4.4c-3.3-5.4-4-10.9-1.3-16.9
		c1.9-4-1.8-6.2-4.1-7.5c-5.1-2.8-4.5-6.9-3.1-10.8c4.8-13.5,0.2-24.3-9.2-33.8c-1.6-1.7-3.3-3.3-4.8-5c-0.2-0.2-0.1-0.6-0.1-0.9
		c0.2-0.2,0.6-0.6,0.7-0.5c9.7,4.9,17.5-2,25.9-4.6c4-1.2,8-2.9,11.8-4.8c3.5-1.7,4.8-0.4,5.5,2.8c0.9,4.1,2.4,8.2,2.9,12.3
		c0.9,7.7,6.7,11.2,12.1,15c3.4,2.4,6.7,1.3,7.5-3c1.4-7.7,1.7-15.6,2.3-23.4c0.2-2.2-0.6-4.5-1-7.3c12.9,0,25.4,0,38.3,0
		c0-2.3,0.6-4.4-0.1-5.9c-5.2-11.3-10-22.9-16.3-33.6c-3.1-5.2-7.9-9.5-9.9-15.6c-0.3-0.9-0.9-2-0.7-2.8c1.4-3.9,2.9-7.7,4.6-11.4
		c1.9-4,4.7-6,9.6-6.1c16.5-0.6,32.9-1.9,49.4-2.8c2.7-0.2,3.7-1,3-4.1c-0.7-3.2-0.4-6.7-0.6-10c-0.3-5.1-1-10.2-1.1-15.4
		c-0.1-4-0.3-8.2,1-11.9c2.6-7.7,0.2-15.6-7-19.1c-3.2-1.6-6.4-3.2-9.6-4.9c7.2-5,14.2-10,21.4-14.7c1.2-0.8,3.4-1.3,4.7-0.8
		c9.4,3.8,18.6,8,28,11.8c2.8,1.1,6.1,1.1,9,2.2c12,5,24,10.1,35.9,15.5c1.8,0.8,3.3,3.6,3.7,5.7c1.1,5.1,2.7,10.6,1.7,15.4
		c-0.8,3.6-5.5,6.4-8.5,9.4c-2.5,2.6-6.4,4.7-7.3,7.7c-3.5,11.3-11.9,16.2-22.3,19c-1.9,0.5-3.9,0.8-5.5,1.8
		c-5.5,3.4-6.9,11.3-2.3,15.8c3.8,3.7,3,7.4,1.2,10.5c-4.8,8.3-10.3,16.2-15.7,24.2c-2.5,3.7-5.3,7.1-6.6,10.5c0,7.4,0,14.7,0,22.1
		c0,1-0.5,1.9-0.5,2.9c-0.3,6,1.3,7.4,6.8,5.1c3.6-1.5,6.9-3.6,10.4-5.5c2.7-1.5,4.8-3.3,3.1-7.1c-0.4-1,0.6-3.2,1.7-4.2
		c0.7-0.6,2.6-0.4,3.7,0c4.7,1.6,8.9,1.1,12.8-2.2c3.3-2.8,6.4-5.6,9.9-8c2.8-1.9,5.3-1.8,7.2,1.9c2.6,5.3,8.1,7.3,13.2,7.9
		c11.4,1.3,11.8,0.9,13.1,11.7c1.1,9.6,1.7,19.4,2.1,29.1c0.3,8.6-4.3,14.6-12.3,17.2c-8.1,2.6-16.5,4.4-23.1,10.2
		c-3.7,3.3-6.9,7.1-11.1,11.5c3.2,1.7,5.2,3.6,7.1,3.5c14.5-0.7,26.6,5.7,38.5,12.8c0.6,0.3,1,1,1.6,1.2c7.1,2.7,24.8-4.3,27.4-11.5
		c1.1-3.2,0.5-7.4-0.4-10.9c-1.2-4.4-0.4-7.3,3.6-9.5c1.9-1,3.4-2.7,5.2-3.9c5.3-3.7,11.1-2.7,17-1.7c0.9,2.6,1.4,5.5,2.8,8
		c4.8,9.3-1.1,16-5.8,22.6c-2.1,2.9-2.5,5.2-1.5,8.6c1.5,5.1-1.6,9.7-6.7,11.6c-3.8,1.4-7.4,3.5-11,5.4c-7.7,4-15.5,5.6-23.9,2.1
		c-1.6-0.7-3.6-0.6-5.3-0.6c-18.5,0-36.9-0.4-55-4.9c-1.9-0.5-4.1,0.5-6.2,0.7c-1.5,0.1-3.2,0.5-4.6,0.1
		C2201.6,1114,2201.6,1113.9,2195.5,1116.7z"/>
	<path onclick="modal(this.id);" id="128" class="st0" d="M1992.5,929.2c5.5,7.3,10.1,13.2,14.4,19.2c2.2,3,4.3,6.2,5.9,9.5c0.4,0.8-0.5,3.3-1.3,3.7
		c-3.2,1.4-3.6,3.8-3.5,6.9c0.1,6.3,0,12.5,0,19.7c-18.3,7.5-37.6,15.5-56.8,23.4c2.2,4.2,4.3,8.4,7,13.4c-12,0-22.5,0-33,0
		c-12.8,0-25.7-0.1-38.5,0.1c-2.9,0-4.4-1-4.6-3.7c-0.4-6.1-0.1-12.3-1.4-18.2c-0.6-2.7-3.8-5.8-6.6-6.9c-7-3-14.7-4.3-21.4-7.6
		c-3.8-1.9-6.1-6.5-9.3-9.7c-6.3-6.4-11.8-13.4-21.8-15.4c-6.4-1.3-12.2-5.8-18.3-8.8c5.6-14.1,11.3-27.9,16.4-42
		c1.7-4.8,1.8-10.3,2.3-15.6c0.6-6.9,0.8-13.8,1.3-21.8c-5-1.3-10.6-2.6-16.2-4.2c-16.1-4.6-32.2-9.5-48.3-14
		c-5.7-1.6-7.5-5.5-7.8-10.9c-0.2-4.3-0.8-8.5-1-12.8c-0.3-6.3-4.8-10.2-8.6-14.3c-6.6-7.3-13.4-14.3-20.2-21.3
		c-2.6-2.7-3.6-5.2,0.6-7.5c5.4,7.7,14.8,7.9,22.4,11.5c3.3,1.6,10.5-3.1,12.7-7.4c2.5-4.8,7.1-7.2,12-4.8c7.6,3.7,15,7.9,21.8,12.8
		c11.5,8.4,22.5,17.6,33.8,26.3c3.7,2.9,6.1,6.1,8,10.6c3.2,7.3,8.4,13.6,12.7,20.4c3,4.8,6.1,9.6,8.9,14.6
		c4.2,7.4,7.5,15.3,12.3,22.2c4.6,6.6,11.9,10.2,19.6,12.4c5.8,1.6,12,1.6,17.7,3.4c3.6,1.1,6.8,3.7,9.9,6.1
		c3.1,2.4,6.1,5.1,8.8,7.9c0.9,0.9,1.6,2.7,1.3,3.9c-1.5,8.8,1.9,12.2,9,15.2c3.7,1.6,8.2,4.1,11.6,3.2c2.8-0.7,4.3-5.9,6.7-8.8
		c4.9-5.8,10.1-11.4,15.6-17.6c-2.4-0.6-5.1-1.4-8-2c-7.6-1.6-15.3-3-22.9-4.6c-6.3-1.4-10.1-6.2-13.1-11.3
		c-4.1-7-7.5-14.5-11.1-21.8c-0.4-0.8-0.6-1.8-0.9-3.1c9.3-1.9,18.2-1.7,27.3-0.5c3.8,0.5,7.9-0.8,11.8-0.7
		c7.6,0.1,15.2,0.7,22.8,0.9c1.3,0,2.8-0.6,4-1.3c0.3-0.2-0.2-2.2-0.8-3c-9.6-11.3-11-25.6-13.8-39.3c-2.5-12-4.1-24.2-7.5-35.9
		c-3.9-13.4-3.5-26.8-2.8-40.4c0.1-1.1,1.5-2.7,2.6-3c7.8-2.2,15.6-4.4,23.6-5.9c6.6-1.3,10.7,2.9,12.2,10.8
		c1.7,9,6.4,16.1,14.3,20.7c6.4,3.8,9.4,11.4,8.9,18.6c-0.4,6.2,1.3,12.4,1.9,18.7c0.1,1.3,0.1,2.8-0.5,3.9
		c-1.8,3.3-3.3,6.9-5.9,9.6c-5.5,5.7-4.9,11.9-3.3,18.7c1.3,5.4,1.8,11,2.7,17.2c5.5-1.5,10.8-2.9,16-4.5
		c10.3-3.1,20.5-6.5,30.8-9.3c5.3-1.4,11-2.6,16.4-2.2c3.8,0.2,7.5,3,11.1,4.9c4.9,2.6,9.6,5.6,14.5,8.2c1,0.5,3.1,0.6,3.6,0
		c3-3.7,5.3-1.6,6.9,0.9c7.1,10.9,13.1,8.3,23.4,2.8c4.7-2.5,8.5-6.6,13-9.6c1.3-0.9,3.7-1.3,5.2-0.7c3.8,1.4,7.5,3.3,11.1,5.3
		c5.3,3,7.4,8.8,4.5,14.2c-3.5,6.4-1.4,12.5-0.4,18.8c0.5,3.2,0.1,6.5,0.1,9.8c0,3.5,0,7.1,0,10.7c-5.7,0.4-11.6,1-17.5,1.4
		c-11.7,0.7-23.4,1.3-35.1,2.1c-4.2,0.3-9.4,6.9-9.9,12c-0.8,8.3-6.5,12.2-13.6,8.7c-2.3-1.1-4-4-5.3-6.5c-1.6-3-2.5-6.4-3.7-9.5
		c-2.7-6.6-5.5-7.9-12.5-6.8c-12.1,1.9-24.3,3.3-36.5,5C2018.3,925.6,2006.2,927.3,1992.5,929.2z"/>
	<path onclick="modal(this.id);" id="140" class="st0" d="M2209.2,662.4c7.6-1.7,13.8-2.2,19.5-4.5c6.1-2.4,11.6-2.9,17.7-0.3c2,0.8,4.6,0.2,6.9,0.5
		c3.5,0.4,4.6-1.4,4.8-4.6c0.4-7.5-2.8-13.7-7.4-19.3c-2.5-3.1-5.2-6-7.9-8.8c-7.9-8.2-6-18.4-5.2-28c0.4-5.2,3.5-10.1,4.7-15.3
		c0.7-2.9,0.7-6.2,0.1-9.2c-1.3-6.7,0.3-12.7,3.5-18.4c0.3-0.5,0.7-1.2,1.2-1.4c6.5-2.9,16.2,0,20.6,6.1c1.7,2.4,3.8,4.6,5,7.2
		c1.1,2.3,0.8,5.3,2,7.6c2.3,4.5,4.6,9.3,8.1,12.7c3,2.9,7.7,4.1,12.3,6.3c-4,6.3-3.3,12.8-0.9,19.1c0.8,2.1,2.4,4.3,4.2,5.4
		c5.7,3.4,11.4,6.9,17.6,9.3c7.3,2.8,14.3-1.1,21.3-2.9c7.6-1.9,15-4.3,22.7-5.7c2.1-0.4,5.6,1.5,7.1,3.4
		c13.2,16.2,32,25.3,48.1,37.8c4.5,3.5,5.2,6.7,1.6,11.5c-3.9,5.2-7.8,10.5-11.5,15.9c-5.3,7.7-4.6,13.4,0.6,22.6
		c3.9,6.7,9.9,10.1,16.2,13.6c9.7,5.3,19.4,10.7,29.1,16c0.1,0.1,0.4,0,0.5,0.1c7.3,8.7,17.2,14.1,26.4,20.4c7,4.8,9.5,4.8,14.4-2
		c0.8-1.1,2-1.9,2.6-3c1.7-3.8,4.2-4.1,7.6-2.4c1.7,0.9,3.6,1.5,5.1,2.2c-0.3,3.5-0.7,6.8-0.7,10.1c-0.1,9.5,7,12.9,14.2,14.9
		c7.8,2.2,15.9,1.5,22-4.8c11-11.1,18.6-24,19-40.2c0-2.2-0.5-4.5-0.8-6.6c9.5,0,13.4,7.7,18.8,13.3c2.1,2.2,4.3,4.4,6.1,6.8
		c2.1,2.7,4.5,5.4,5.8,8.5c2.8,6.7,8.2,10.6,14.2,13.8c9.6,5,13.8,14.4,20.5,23c-7.2,5.6-14,10.8-20.9,16.1c-0.8,0.6-1.8,1.1-2.2,2
		c-2.8,5.3-7.7,4.2-12.1,3.9c-7.5-0.5-15.1-1.3-22.6-1.9c-12.6-1-25.3-2-37.9-3.1c-1.1-0.1-2.2-1.6-3.2-2.4
		c-3.6-3.1-7.3-6.3-11.1-9.6c-4.1,7.6-13.4,11.4-19.9,9c-0.7-0.3-1.5-0.9-1.9-1.5c-4.3-6.7-11.2-7.1-18.1-7.3c-5-0.2-10,0-15.1,0
		c-0.8,0-1.8,0-2.4-0.3c-14.7-7.9-31.4-6.7-46.9-10.8c-13.3-3.6-25.5,0.5-38,3.4c-4.8,1.1-9.5,2.3-14.3,3c-1.3,0.2-3.6-0.8-4.1-1.9
		c-3.5-6.9-7-13.9-9.6-21.1c-1.3-3.5-2-8.2-5.8-8c-4.2,0.3-9.2,2.3-12,5.3c-5.6,5.9-12.4,7.9-19.7,9.3c-0.8,0.1-1.9-1-2.9-1.6
		c-3.7-2.3-7.2-5.1-11.2-6.8c-1.8-0.8-4.8-0.4-6.5,0.6c-5.9,3.6-11.8,3.3-18.3,2.1c-6.6-1.3-13.4-1.5-20.1-2.2
		c-12.2-1.3-24.5-2.6-36.7-4.1c-1.1-0.1-2.3-1.9-3-3.1c-2.7-5.1-0.5-10.3,0.2-15.4c1.2-9.4,2.6-18.8,3.6-28.2
		c1.2-11.4,1.9-22.9,3.1-34.3c0.2-1.7,1.5-3.5,2.7-4.9c3.1-3.5,2.9-6-0.9-8.9C2215.8,667.7,2212.9,665.3,2209.2,662.4z"/>
	<path onclick="modal(this.id);" id="143" class="st0" d="M2011.6,989.9c-0.2-8.8-0.6-16-0.4-23.2c0-1.4,2.3-2.9,3.7-4.1c2.3-2.1,2.9-4,0.7-6.8
		c-4.6-5.9-9-12.1-13.3-18.2c-1.3-1.8-2.3-3.9-3.7-6.3c9.3-1.2,18-2.3,26.6-3.4c11.4-1.5,22.7-3.1,34-4.6c3.6-0.5,7.2-0.9,10.7-1.4
		c2.8-0.4,4.7,0.6,5.8,3.4c1.7,4.5,3.5,9.1,5.6,13.5c2.5,5.3,6.9,7.8,12.8,7.1c4.4-0.5,7.3,0.5,8.1,5.5c0.3,1.8,1.4,3.9,2.8,5.1
		c7.2,6.3,10.2,15.2,14.6,23.2c2.7,4.8,4,10.4,6,16c-8.4,0-17.1,1.1-25.4-0.3c-12.5-2-14.8-0.4-11.8,11.5c1.7,6.7-0.4,19.8-3.6,23.5
		c-9.8-3.6-12.3-11.9-14-21c-0.8-4-2.5-7.8-4-12.2c-9.8,3.9-18.7,7-27.2,10.9c-5.1,2.3-9.7,3.2-14.8,0.8c-1.3-0.6-2.8-0.8-4.2-1.2
		c-1.6,4.5-0.4,7.5,2.9,10.4c8,6.9,12.6,15.5,12.4,26.2c-0.1,3-0.8,6.2-2,9c-2.4,5.9,0.5,9.6,4.8,12.5c2.2,1.4,3.2,2.6,2.3,5
		c-2.5,6.1-1.8,12,2.4,18.7c-23.4,0-45.7,0-69,0c2.7,14,5.3,26.9,8,40.5c-2.3,0-4.1,0-5.9,0c-37.3,0-74.7,0.3-112-0.1
		c-13.8-0.2-27.1,1.3-40.3,5.4c-5.9,1.8-10.5,4.6-14.9,8.8c-10.3,10.1-21,19.8-31.3,29.4c-4.2-3.1-8.2-6.6-12.6-9.2
		c-4.5-2.6-9.4-3.2-15-2.6c-5.9,0.6-12-0.9-17.9-2.1c-1.6-0.3-3.2-2.2-4-3.8c-4.1-8.5-8.2-17.1-11.9-25.8c-1.9-4.5-3.5-9.3-3.8-14
		c-0.1-2.3,2.6-5.6,5-6.9c5.7-3.2,4.8-8.4,5.2-13.3c0.2-2.7,0-5.4,0.1-8.1c0.3-8.6,0.7-17.2,1-25.8c0.1-2.3-0.4-4.8,0.1-7
		c0.9-4.1,0.1-9.2,5-11.4c5.9-2.6,12.2-3.5,17.2,1.5c7.6,7.5,17,12.1,26.2,17.1c2.9,1.6,5.3,4.6,7.4,7.3c2.2,2.8,3.7,6.2,5.9,9
		c6.2,7.9,18.5,8.2,22.9,0.1c3.3-6,8-4.6,12.6-4.1c3.5,0.4,7.2,3.4,9.9-1.1c1.8-3,3-6.3,4.8-9.4c2-3.4,4.2-6.6,6.4-9.9
		c3.5-5.3,7-10.6,10.6-15.8c2.1-3.1,4.4-6.2,6.7-9.2c1.2-1.5,2.7-2.7,4-4.1c4.3-4.9,8.6-9.8,13.3-15.1c1.1,5.5,2.1,10.2,2.8,14.9
		c0.4,2.8,1.8,3.4,4.4,3.4c24.2-0.1,48.3,0,72.5,0c3.2,0,5.5-0.5,3.5-4.6c-1.7-3.6-3.1-7.4-4.2-10.1
		C1974.9,1005.3,1993.9,997.4,2011.6,989.9z"/>
	<path onclick="modal(this.id);" id="135" class="st0" d="M1840.5,1187.2c-2.7-3-4.7-5.2-7.5-8.3c-2.5,0-6.5,0-10.5,0c-2.8-9.3-5.6-18.2-8-27.3
		c-0.4-1.3,0.8-3.7,2-4.7c6.5-5.3,14-6.1,22-4.7c0.8,0.1,1.5,0.6,2.3,0.7c6,0.8,9,5.5,8.5,11.5c-0.6,7.6-1.7,14.6-6.8,20.9
		C1840.6,1177.8,1841.2,1182.3,1840.5,1187.2z"/>
	<path onclick="modal(this.id);" id="129" class="st0" d="M1944.9,504.7c-1.9,9.5-3.3,18.3-5.6,26.9c-1.9,7-4.4,14-7.7,20.5c-0.9,1.9-5.7,3.1-8.2,2.5
		c-2.5-0.6-4.8-3.5-6.4-6c-6.5-10-0.1-20.4-0.6-30.6c-0.1-2.8,0.5-5.6,0.8-8.9C1926.2,507.7,1935.3,506.3,1944.9,504.7z"/>
	<path onclick="modal(this.id);" id="132" class="st0" d="M1888,570c2.9-5.7,4.3-9.9,6.9-13.2c1.8-2.3,5.1-3.5,8-4.7c2.4-1,5-1.5,7.6-1.8
		c1.2-0.1,3,0.2,3.6,1.1c4.7,6.6,6.9,7.6,14.7,5.9c0.1,0.7,0.3,1.3,0.3,2c0,3.3,0,6.6,0,9.9c-5.9,1.7-11.7,3.3-17.8,5
		c0.8-4.4-2.4-4.2-5.7-4.2C1900.1,570.1,1894.7,570,1888,570z"/>
	<path onclick="modal(this.id);" id="127" class="st0" d="M1959.6,923.5c-5.3,7.3-10.6,14.4-16.2,22c-3.5-1.1-8.1-1.6-11.6-3.9c-2.6-1.7-4.5-5.4-5.4-8.6
		c-0.4-1.3,2.6-3.9,4.4-5.3c2.8-2.2,5.9-4.8,9.2-5.5c4.6-0.9,9.6-0.2,14.4,0C1956.4,922.4,1958.4,923.2,1959.6,923.5z"/>
	<path onclick="modal(this.id);" id="134" class="st0" d="M1896,592.6c11.1-2.7,20.9-5.2,30.7-7.4c1.6-0.4,3.3,0,5,0.1c-0.3,1.7,0,3.9-0.9,5.1
		c-5.2,6.6-10.6,13-16.2,19.2c-0.8,0.9-3,0.6-4.7,0.9C1905.5,604.7,1901,599,1896,592.6z"/>
	<path onclick="modal(this.id);" id="133" class="st0" d="M1886.9,573.2c8,0,14.3,0,20.9,0c0.1,1.6,0.3,3,0.4,5.3c7.2-2.1,14.1-4.1,21.4-6.2
		c0.2,2.4,0.1,3.9,0.4,5.3c0.7,3-0.4,4.1-3.5,4.6c-4.3,0.8-8.3,2.7-12.6,3.7c-5.5,1.3-11.2,2.1-16.8,3c-0.8,0.1-2.2-0.4-2.6-1
		C1892,583.3,1889.7,578.6,1886.9,573.2z"/>
	<path onclick="modal(this.id);" id="136" class="st0" d="M1819.7,1183.4c3.3-0.5,7.4-1.2,11.5-1.8c1.6,6,6.1,9,11.6,7.7c0.8,2.5,1.7,5.1,2.7,8.2
		c-5.2,0.5-9.7,1.3-14.2,1.4c-4.6,0.1-7.8,1.4-7.4,7.4C1819.8,1198.8,1815.7,1192.1,1819.7,1183.4z"/>
	<path onclick="modal(this.id);" id="131" class="st0" d="M1934.8,586.4c-0.7-4.8-1.4-10.4-2.4-17.2c6.8,4,12.5,7.3,18.8,10.9
		C1945.7,582.3,1940.4,584.3,1934.8,586.4z"/>
</g>
</svg>
