<?xml version="1.0" encoding="utf-8"?>
<!-- Generator: Adobe Illustrator 19.0.0, SVG Export Plug-In . SVG Version: 6.00 Build 0)  -->
<svg version="1.1" id="Layer1" xmlns="http://www.w3.org/2000/svg" xmlns:xlink="http://www.w3.org/1999/xlink" x="0px" y="0px"
	 viewBox="0 0 12000 6700" style="enable-background:new 0 0 12000 6700;overflow: hidden; display: inline; width: inherit; min-width: inherit; max-width: inherit; height: inherit; min-height: inherit; max-height: inherit;" xml:space="preserve">
<style type="text/css">
	.st0{fill:#8FD4EB;stroke:#000000;stroke-width:2;}
</style>
<g>
	<path onclick="modal(this.id);" id="3174" class="st0" d="M4775.4,4578.5c11.5-1,21-6.1,25-16.9c6.6-17.9,20.9-20.8,36.7-21.1c11.4-0.2,22.4,2.5,33,6.8
		c3.7,1.5,7.5,2.9,11.1,4.4c10.2,4.2,20.4,4.9,31.1,1.3c12.5-4.3,25.3-7.7,37.5-13.3c15-7,31.2-11.4,46.9-16.7
		c3.1-1,6.6-1.6,9.8-1.3c19.1,1.6,36.9-4.4,54.7-9.5c11.3-3.2,14.1-10.4,8.9-21.6c-6.2-13.3-13.3-26.1-23.4-36.9
		c-1.8-1.9-3.8-3.8-5.3-6c-5.7-8.6-5.2-14.6,0.8-23.6c3.7-5.5,6.7-11.5,10.2-17.1c5.5-8.9,6.9-18.6,5.3-28.8
		c-2.6-17.3-1-34.7,2.9-51.4c3.6-15.4,2-28.8-5.3-42.2c-0.6-1.1-0.7-2.5-1.2-4.4c1.7-0.4,3.5-1.2,5.1-1c20.6,2.8,36.5-3.8,46.6-22.5
		c1.3-2.3,2.8-4.5,4.4-6.8c-0.7-8-1.4-15.8-2.1-24.2c-7.7-6.2-15.8-12.4-17.7-23.1c-0.7-3.9-2.1-7.9-1.6-11.6
		c2.4-17.9-5-32.5-14.5-46.5c-3.7-5.5-7.7-11.1-12.5-15.5c-9.6-8.8-15.2-20.2-21-31.3c-6.3-12.1-8.8-25-4.1-38.6
		c1.5-4.3,3.1-9.2,2.6-13.6c-1.7-14.2,4.2-25.5,11-37.3c9.9-17.4,14.8-37,19.6-56.4c2.5-10.4,4.7-20.8,12.3-29
		c1.7-1.9,4.1-3.2,5.6-4.3c8.4,0,13.1,4.7,17.8,9.5c12.8,13,27.9,22.3,45,28.7c14.1,5.2,25.6,13.7,31.4,28.5
		c3.7,9.3,9.1,17.3,17.9,23.3c19.4,13.1,23.6,34.6,28.8,55.2c2.8,10.9,4.5,22.1,6.4,33.3c4.5,26.4,15.1,51,24.3,75.9
		c3.2,8.8,3.5,16.7,0.7,25.2c-3.6,10.8-8.4,20.9-16.1,29.6c-23,26-33.6,56.7-34.7,91.2c-0.3,10.6-3.5,21-3.9,31.6
		c-0.5,10.7-6.3,18.7-11.7,28.4c1.3,12.9,1.9,26.9,4.3,40.6c2.4,13.6,6.8,26.9,10.3,40.7c5.1,0,9.2,0.8,12.8-0.1
		c32.2-8.5,64.3-17.3,96.4-26c1.9-0.5,3.8-1.1,5.8-1.7c6.9-2,12-5.7,13.2-13.2c0.8-4.7,1.7-10.1,6.5-11.6c5.5-1.8,11.7-1.7,17.5-2.4
		c0.6-0.1,1.4,0.2,1.9,0.5c12.1,7.4,24.2,3.7,36.5,0.5c21.2-5.6,42.5-11.1,63.8-16.1c19.1-4.4,37.5-4.5,55.8,5.6
		c21.7,11.9,42.7,24.4,61.3,41.6c12.6-2.1,20.6-11.2,29.6-18.7c1-0.8,1.7-2.1,2.4-3.2c10.6-16.3,25.8-25.8,43.6-33.2
		c48.5-20.1,96.5-41.5,144.8-62.3c2.3-1,4.8-1.6,8.8-2.8c0.4,6.3,1.1,11.3,1,16.4c-0.2,7.3-0.3,14.7-1.6,21.8
		c-4.1,22.3,3.8,41.7,13.9,60.6c7.8,14.7,15.5,29.4,23.4,44.1c3.2,5.9,5.8,11.7,4,19c-2,8.1,4.3,13.7,8,19.7
		c14.6,23.8,29.7,47.4,44.7,71c6.4,10.1,13,20.2,19.7,30.1c4.2,6.2,9.9,8.6,17.3,5.6c3.1-1.3,6.2-2.5,9.4-3.5
		c29.7-9.4,59.8-10.7,90.1-3.4c5.7,1.4,11.5,3.8,16.4,7c17.7,11.4,37.1,17.5,57.7,20.9c7.9,1.3,15.5,3.8,23.3,5.5
		c3.2,0.7,6.5,0.6,10.3,0.9c11.6-12.9,23.5-25.4,34.6-38.6c9.5-11.3,19-22.2,32.4-29c2.8-1.4,5.2-4.1,7.1-6.6
		c12.8-17.5,31-29.1,47.6-42.4c4.9-4,12.1-5.1,18.7-7.8c2.7-4.7,5.6-9.8,9.4-16.5c2.4,2.9,4.3,4.5,5.3,6.5c1.5,2.9,2.2,6.3,3.6,9.3
		c4.7,10.4,11.1,13.8,22.1,11.1c5.2-1.2,10.1-3.2,15.9,0.2c3.1,11.8,3.2,23.2-6.2,33c-8.3,8.7-9.2,19.8-6.5,30
		c3.7,13.9,1.5,26.3-4.6,38.6c-4.3,8.6-6,17.6-5.4,27.1c0.5,8.2-0.3,16-4.1,23.3c-3.8,7.3-4.8,15.1-3.9,23.3
		c1.3,11.4,0.4,22.6-2,33.7c-2.5,11.2-2.6,22.4-0.3,33.7c0.9,4.6,1.1,9.3,2,13.8c4.5,21.8-1.8,40.7-15,57.9
		c-3.2,4.2-6.4,8.6-10.1,12.4c-19.8,20.3-27.3,45.2-26.2,72.8c0.7,17.7,8.6,33.4,19.2,47.3c6.1,7.9,14.6,13.2,24.8,15.8
		c14.2,3.6,27.9,8.1,43,7.3c12.6-0.6,21.8,9,32.8,13.4c18.2,18.8,42.9,26.3,65.5,37.4c10.7,5.3,21.8,9.9,32.7,14.8
		c6.8,3,12.8,7,16.9,13.5c1.1,1.7,2.2,3.4,3.6,4.7c12.4,11.9,19.3,27,24.3,42.9c3.8,11.9,9.9,21.4,20.5,28.2
		c9.5,6.2,18.1,13.7,27.9,19.2c7.8,4.4,14.2,9.9,19.7,16.6c15.1,18.5,31.8,35.8,43.6,56.9c3.7,6.6,5.5,13.1,6.1,20.6
		c1.5,18.4-2,35.1-11.3,51.3c-7.6,13.2-13.2,27.6-18.6,41.9c-6.1,16.1-15.9,29.2-29.2,39.6c-16.1,12.5-28.7,27.3-36.1,46.7
		c-6.3,16.4-17.8,29.6-28.7,43c-6.3,7.7-12.4,15.6-18.8,23.2c-6.9,8.1-13.6,16.5-21.2,23.8c-7.4,7.1-12.8,15.1-16,24.8
		c-3.7,11.3-7.5,22.6-11.1,33.2c32.8,32.2,44.3,71.3,45.2,114.6c0.3,16.6,1,33.2,1.7,49.8c0.3,5.6-0.6,10.5-4.9,14.5
		c-6.9,6.3-13,13.5-20.4,19.1c-8.4,6.3-14,13.9-17.1,23.8c-4.7,15.2-10.1,30.3-14.6,45.6c-3,10-8.1,17.7-16.8,23.8
		c-12,8.3-23.2,17.8-34.6,27c-17.5,14.3-37.7,19.5-59.6,16c-6.6-1-11.5-0.2-16.8,3.2c-11.8,7.5-23.5,15.1-35.7,21.9
		c-6.1,3.4-10.5,7.6-13.6,13.9c-4.8,9.5-8.9,19.8-15.9,27.5c-6.5,7.2-16.4,11.2-24.4,17.1c-10.7,7.9-21.8,15.5-31.4,24.5
		c-8.3,7.8-18,10.9-28.5,12.9c-26.7,5.3-53.5,10.5-80.3,15.4c-5.1,0.9-10.6,0.9-15.8,0.6c-14.5-1.1-29-3.4-43.6-3.8
		c-15.1-0.5-25.8-9.7-37.7-16.7c-1-0.6-1.7-2.1-2.1-3.3c-4.2-13.8-15.8-18.9-27.8-23.4c-5-1.9-10.2-3.1-15.2-5
		c-8.4-3.3-16.7-3.1-25.4-1.1c-10.3,2.4-20.8,4.4-31.3,5.8c-6.6,0.8-13,0.3-18.4-5.4c-3.5-3.7-9-5.4-14.8-8.7
		c-0.7-2.8-1.1-6.9-2.8-10.3c-5.1-10.1-17.8-16.7-30.7-13.5c-17.7,4.4-35.5,4.7-53.5,4.5c-7.7-0.1-14.1,2.2-19.8,7.8
		c-18.1,17.8-34.3,37.2-47.3,59c-12.4,20.6-6.5,30.5,18,31c7.3,0.2,14.7,0.2,22,0c10.5-0.2,19.4,3,26.5,10.8
		c-0.7,1.4-1.2,3.2-1.8,3.3c-25.6,2.9-48.9,12.4-71,25c-16.7,9.6-33.3,19.5-50,29.1c-15.2,8.7-31.1,14.4-49.3,13.6
		c-30.6-1.4-61.2-1.4-91.8-2.6c-8.6-0.3-15.7,1.7-22.2,7c-3.6,2.9-7.5,5.5-11,8.6c-15.5,13.5-30.9,27.2-46.2,40.6
		c-8,1.8-14.9-0.8-21.6-3.6c-7.9-3.4-15.9-6.7-23.7-10.6c-10.6-5.3-21.4-7.8-32.8-3.5c-10.3,3.9-19.6,1.5-28.8-3.2
		c-5.4-2.7-10.7-5.3-16.1-8c-7.9-3.9-16-6.1-24.9-5.9c-15.2,0.4-30.4-2.3-45.8-0.2c-12.7,1.7-25.1-1.6-36.5-8
		c-13.9-7.8-28.2-15-42-23.1c-13.8-8.2-28.5-10.6-44.1-9c-10,1-15.9,6.1-17.7,16c-0.9,5.2-0.7,10.6-0.9,15.9
		c-0.5,16.6,0.8,33.2-2.2,49.8c-1.4,7.6,0.6,15.8,1.1,23.8c0.4,7.2,0.8,14.5,1.2,22.5c-9.7,0.9-15.1-6.7-24.7-8
		c-7.3,3.7-16.8,7.3-24.9,12.9c-11.7,8-23.7,8-36.1,3.9c-17.8-5.7-34.8-13.1-50.9-22.6c-9.7-5.7-19.8-10.9-29.7-16.4
		c-10.3-5.7-21.7-7.3-32.9-5.7c-8.9,1.3-17.6,0.9-25.6-1.6c-17.2-5.3-34.3-3.5-51.4-0.9c-10,1.6-19.6,0.7-29.6,0.2
		c-25.5-1.2-49.6-9.3-74.5-13.1c-5.2-0.8-10.6-0.7-15.9-0.6c-16.5,0.1-33,1.3-50.5-0.9c1-3.3,1.3-6,2.6-8.1
		c8.6-13.8,9.9-29.2,7.6-44.4c-1.5-9.8,0-18.2,3.3-27c1.9-5,3.1-10.1,4.5-14.9c-4.9-15.2-10.4-29.7-22.4-40
		c-11.5-9.8-24.1-18.4-35.9-27.3c-0.1-6.8,3.8-8.8,8.9-9.2c2-0.2,4,0,6,0.3c19.5,2.8,19.5,2.8,37.2-5.6c7.2,5.9,16.5,5.4,25.8,4.9
		c10-0.6,15.1-8.3,12.1-18.2c-3.7-12.2-9-23.5-18.2-30.6c2.9-14.5,5.3-27.5,8-40.4c2.1-10,5.9-19.3,14.5-25.3
		c6.8-4.8,8.8-11.3,9.3-18.9c0.9-12.6,2.8-25.1,2.6-37.7c-0.2-11.2-2.2-22.4-4.6-33.4c-1.5-7.2-3.1-14.2-2.7-21.6
		c0.2-3.9-0.4-8.1-1.9-11.6c-2.3-5.4-2-10.2,0.5-15.3c3.5-7,3.2-14.1-0.5-21.1c-7.4-13.5-5.9-28.3-5.9-42.8c0-8,0.4-16,0.6-23.9
		c0.1-6.7,0-13.2-5.6-18.4c-2.1-2-2.7-5.9-3.4-9c-4.1-17.6-5.7-35.4-4.8-53.4c0.5-10.3-1.5-19.6-6.4-28.7
		c-5.4-9.9-9.4-20.6-14.6-30.6c-2.7-5.3-6.1-10.2-9.9-14.8c-4.3-5.1-9.5-9.3-14-14.3c-8.2-9.2-17.9-16.1-30.2-18.2
		c-7.4-1.3-11.8-5.5-15.4-11.5c-2-3.4-3.8-7.1-6.3-10.2c-5.4-6.7-6.5-14.2-6.4-22.4c0.2-14.6,1.2-29.3-2.8-43.6
		c-1.1-3.8-1.5-8.5-4-11c-6.9-6.8-8.1-14.6-8-23.7c0.2-14.8-3.3-29-9.8-42.4c-2-4.2-3.9-8.5-5.5-12.9c-5.7-15.8-13.3-30.5-24.8-42.9
		c-7.1-7.7-9.7-16-8.6-27.2c1.3-14.4-0.4-29.2-2.3-43.7c-0.8-6.2-1.1-11.8,1.3-17.4c7.1-16.5,4.9-32.5-2.2-48.3
		c-1.1-2.4-1.6-5.1-2.8-7.5c-4.4-8.9-10.3-17.3-13.2-26.6c-2.9-9.3-2.3-19.7-4.1-29.4c-1.4-7.4-2.1-14.3,2.2-21.1
		c5.8-9.1,1.6-18.1-1.4-26.7c-2-5.5-7-7.9-12.7-8.1c-8-0.3-16-0.3-24-0.2c-29.3,0.5-58.7-0.3-87.9,2.1c-37.9,3.1-75.8,1.6-113.7,2.9
		c-2.6,0.1-5.2,0-9,0c-1.7-6.3,0.8-11.8,2.4-17.2c7.7-26.2,15.7-52.3,23.7-78.4c8.7-28.6,17.5-57.2,26.4-85.8
		c1.9-6.3,4.4-12.4,6.3-17.5c1.8-1.1,2.4-1.7,3-1.7c18.5-1.2,37.1-3.3,55.6-3.3c15.1,0,29.1-2,41.6-11c2.5-1.8,6-2.3,9.7-3.6
		c4.4,5.6,8.4,10.8,12.6,15.9c7.4,8.9,13.5,10.6,21.8,3.1c4.8-4.4,11.5-3.4,14.5-7.1c2.8-7.8,5.1-14.4,7.3-20.5
		c5.7-0.9,10.3-1.6,15.2-2.3c3.2-11.9,6.8-23.7,4.3-35.5c-2.3-10.9-7.2-21.2-11.2-32.4c3.2-2.6,6.2-5.2,9.3-7.4
		c22.2-15.8,44.4-31.7,66.8-47.2c4.9-3.4,10.5-5.7,15.8-8.5c8.2-4.4,16.2-9.1,24.5-13.2c5.3-2.6,10.8-5.4,16.6-6.6
		c18.2-3.9,36.6-5.4,56-2.8c3.5-3.3,7.8-6.5,11.2-10.5c11.5-13.5,25.9-22.6,41.8-29.9c19.3-8.9,38.3-18.7,57.4-28.1
		c3.1-1.5,5.9-3.2,4.1-7.4L4775.4,4578.5z"/>
	<path onclick="modal(this.id);" id="3169" class="st0" d="M4798.7,597.3c34.1-14.4,68.2-29,103.4-41.9c3,3.3,5.3,5.6,7.3,8.1
		c37.7,47.4,75.4,94.7,113,142.1c7.4,9.4,14.6,19,22.1,28.3c9.4,11.6,11.7,12.2,25.5,7.7c8.9-2.8,17.6-6.2,26.6-8.6
		c14.6-3.9,28.2-3.5,41.6,6.1c26.6,18.9,54.2,36.4,81.4,54.4c3.9,2.6,7.7,5.4,11.9,7.3c8,3.7,16.8,0.7,20.1-7.4
		c3.8-9.2,7.1-18.7,9.4-28.4c3.6-15.2,10.1-28.7,19.2-41.3c7.4-10.2,14.1-21,21.5-31.3c4.8-6.7,7.7-13.5,8.2-22
		c1.4-23.5,11.8-43.3,27.3-60.6c2.6-2.9,5.3-6.1,8.6-8.1c14.2-8.6,28.6-16.7,43.8-25.5c3.3,2.9,6.9,5.6,10.2,8.8
		c6.7,6.5,13.4,13,19.8,19.8c6.5,6.8,13.8,10.4,23.3,7.2c14.1-4.8,27.1-1.1,40.8,2.8c17.6,5,33.5,12.5,48.7,22.3
		c8.9,5.8,18.3,10.9,27.6,16.1c2.9,1.6,6,2.9,9.2,3.8c6.2,1.7,12.3-0.7,15.2-6.6c2-4.1,3.1-8.7,4-13.3c9.5-46.2,19.2-92.4,28-138.7
		c2.1-11,6.9-18.4,16.9-22.5c15.8-6.5,26.3-18,31.6-34c3.6-10.9,11.3-17.5,20.5-23.1c12.8-7.8,23.1-9.1,32.4,1.5
		c12.5,14.2,27,16.4,44.5,16.8c25.2,0.5,50.2,4.3,75.4,6.4c13.9,1.1,27.9,2,41.9,2.1c13.7,0.1,24.2,4.8,32,16.4
		c2.7,4.1,4,8.1,4.9,12.7c3.1,15,5,30.4,10.1,44.7c6.3,17.5-1.2,29.7-11.5,41.5c-5.7,6.5-12.1,12.5-19,17.7c-5.9,4.4-8.7,9.6-9,16.8
		c-0.7,15.9-2.2,31.9-2.2,47.8c-0.1,12.8-1,25.2-6.1,37.1c-4.1,9.6-5.5,19.7-1.3,29.2c10.1,22.8,5.4,45.8,1.8,68.6
		c-3.4,21.3-1.3,42.5-1.7,63.7c-0.1,3.7,1.8,7.7,3.5,11.2c2.7,5.3,6.1,10.3,8.9,15c0,19.7-5,37.2-16.4,52.7c-3.1,4.3-5.7,9-8.7,13.4
		c-6.5,9.8-9.7,19.5-5.7,31.8c3.7,11.5,2.2,23.4-3.7,34.8c-5.5,10.6-9.5,22-13.9,33.1c-3.2,8-5.1,16.8-9.3,24.2
		c-8.4,14.7-10.8,30.1-7.2,46.1c4.4,20.1,0.8,39.8-1.4,59.5c-0.6,5.8-0.4,10.6,2.3,15.1c5.4,9.1,6.9,18.3,3.6,28.5
		c-1,3.1-0.9,6.6-1.1,9.9c-0.5,8.5-4.4,15-10.8,20.6c-4.5,3.9-8.6,8.4-12.7,12.7c-4.8,5.1-7.3,10.5-5.3,18.1c2,7.6,2,15.8,3.7,23.6
		c1.7,7.7,3.2,15.8,6.9,22.7c6.1,11.5,7.9,23.8,10,36.2c1.4,8.5,2.4,17.2,5.3,25.2c5.9,15.9,7.7,32.2,8.6,48.9
		c1.2,21.9,8.3,40.8,24,57.4c16.6,17.6,35.8,31.5,54.8,46c2.6,2,5.2,4,8.2,6.2c0.4,7.3-4.1,12.6-6.8,18.5c-2.5,5.5-5.3,10.7-8.1,16
		c-3.8,7-7.4,14.2-11.5,21c-17.5,28.4-16,59-7,88.7c5.3,17.5,16,33.5,25.8,49.3c10.6,17,11.8,19.8-0.9,34.7
		c-10.7,12.7-21.7,25.4-34.4,36.1c-10.6,8.9-17.3,20.2-24,31.5c-5.3,8.9-3.9,19.4-1,29.2c1.9,6.5,7.7,8.7,14.1,9.3
		c18.5,1.6,37,3.8,55.6,4.5c12.3,0.5,21.8,5.8,29.6,14c12.4,13,23.3,27.1,26.9,45.7c2.4,12.3,6.7,24.3,10.3,37
		c-3.2,2.3-5.6,4.7-8.5,6c-40,18.1-80,36.3-120.2,54.1c-14,6.2-28.5,11.1-42.7,16.8c-26.5,10.7-53,21.4-79.4,32.5
		c-21.4,9-42.4,19.4-66,21.2c-9.6,0.7-14.4,5.7-17.5,13.8c-0.7,1.9-1.1,3.9-2.1,5.6c-6.4,11.4-7.2,22.4,1,33.6
		c3.1,4.2,4.7,9.5,7.4,14.2c5.8,10.1,9.7,20.4,5.3,32.3c-1.1,3-0.6,6.6-0.4,9.9c0.5,7.5,4.3,12.7,11.7,14.3c9.1,2,18.2,4.3,27.4,5
		c14.7,1.2,21.2,12.6,29.2,22c1.7,2,1,6.4,0.7,9.7c-2.2,23.1-4.5,46.2-6.8,69.3c-2.2,21.1-4.6,42.2-6.7,63.3
		c-1.4,14.5-2.3,29.1-3.5,44.4c-23.5,11.1-47.9,19.3-70.6,28.2c-3.8,6.6-3.2,11.7-1.3,16.9c5.3,14.4,10.4,28.8,15.9,43.1
		c22,57.1,44.2,114.2,66.2,171.4c3.3,8.5,6,17.2,8.8,25.2c-4.4,4.2-7.3,1.6-10.1,0.3c-6.1-2.7-12-5.7-18.1-8.5
		c-21.4-9.9-42-3.1-61.7,5c-8.8,3.6-17,7-26.8,6.7c-3.1,3.5-6.5,6.7-9.1,10.4c-13.2,18.9-31.9,26.8-54.1,29.3
		c-26.3,2.9-50.1-4.4-73-16c-7.1-3.6-14.1-7.6-20.7-12c-21.7-14.5-46.5-20.9-71.7-22.1c-17.3-0.8-35.8-0.9-52.6,7.7
		c-7.8,4-15.1,8-21.4,14.3c-7,6.9-14.9,13-22.2,19.4c-2.7-1.8-4.6-2.7-6-4.1c-43.8-42.9-87.5-85.9-131.4-128.6
		c-6.7-6.5-9.5-13.3-9.8-22.7c-0.5-15.9-2.9-31.7-4.1-47.6c-0.5-7.3-1.2-15,0.5-21.9c4.6-17.9,0.2-35.6,0.6-53.4
		c0.7-29.9-9.1-57.6-14-86.3c-0.3-2-1.6-3.9-1.5-5.8c1.4-25.5-4.5-50.2-7.2-75.3c-3.3-30.3-8.1-60.4-13.7-91.1
		c-4.2-1.2-7.8-2.9-11.6-3.3c-22.6-2.4-42.1-11.6-59.2-26.3c-9.1-7.8-18.9-14.8-27.2-23.3c-15.4-15.8-31.8-30.3-49.4-43.5
		c-13.8-10.4-28.5-19.6-42.9-29.1c-13.3-8.8-27.3-16.6-40-26.1c-25.6-19.3-53.6-34.6-81.4-50.4c-15.6-8.9-31.6-17.6-45.4-28.9
		c-24.1-19.7-51-33.6-79.8-44.6c-5-1.9-9.8-4.4-14.9-5.7c-30.1-7.8-47.5-29.9-63.7-54.9c5-10.8,3-20.1-3.7-29.8
		c-29.5-42.7-58.4-85.8-87.5-128.8c-1.1-1.6-1.7-3.5-2.9-6.1c4.8-7,12.2-9.8,20-10.8c11.8-1.5,23.7-2.2,35.6-3.1
		c5.3-0.4,10.7,0.2,16-0.5c11.1-1.5,16.7-7.4,17.3-18.4c0.3-5.9,0.1-12-0.7-17.9c-2.1-15-1.4-30.4-8.3-44.2
		c7.3-9.8,16.3-15.1,26.9-17.6c9.4-2.1,15.1-7.6,18.1-16.6c5.7-17,11.9-33.9,17.4-51c3.8-11.7,3.3-15.8-7.2-21.9
		c-12.5-7.2-14.9-17.7-14.7-30.2c0.1-8.7-0.3-17.3,0.1-26c0.6-12.1-3.6-21.7-12.5-30.2c-15.4-14.7-30.1-30.1-47.3-42.9
		c-4.8-3.6-8.8-8.1-14.2-13.1c3.1-3.3,6-6.5,9-9.5c3.7-3.8,8.3-6.9,11.1-11.3c1.8-2.9,2.5-8.2,1.1-11.1c-4.1-8.3-9.2-16.2-14.7-23.7
		c-4.3-5.8-10.9-7.5-18-5.7c-7.8,1.9-15.5,3.9-23.2,6.1c-6.8,2-13,1.2-19.1-2.4c-14.3-8.5-28.9-16.5-43-25.3
		c-3.7-2.3-6.7-6.4-9-10.2c-8.2-13.7-16-27.6-23.8-41.5c-20.2-36.2-49.4-64.1-82.5-88.3c-5.5-4-11.2-6.9-18.2-7.4
		c-7.9-0.6-15.7-2.2-25.1-3.6c-11.7-31.8-16.1-66.2-25.4-99.2c-9.4-33.3-17.4-66.9-25.7-100.5c-8.2-33.4-18.3-66.4-23.5-101.1
		c7.1-1.3,12.3-2.7,17.5-3.1c27.2-2,54.3-3.5,81.5-5.5c17.2-1.2,34.4-3,51.5-4.4c11.3-0.9,22.5-1.6,33.8-2.3
		c17.9-1.1,35.8-2.4,53.7-3.2c30.3-1.3,54.6-14.2,74.6-36.4c7.9-8.8,15.5-18,28.3-21.2c8-2,15.8-3.2,23.6-1.7
		c16.5,3.3,32.9,2.9,49.5,0.2c7.7-1.3,16.3-1.6,23.7,0.5c9.3,2.5,17.1,0.4,25-3.2c8.5-3.8,16.7-8.3,25.1-12.4
		c7.4-3.6,12.8-9.1,17.5-15.8c12.6-18,26.2-35.3,38.6-53.4c10.1-14.8,19.3-30.3,28.5-45.7c2.3-3.9,3.2-8.7,4.4-13.1
		C4795.2,612.4,4796.8,605.2,4798.7,597.3z"/>
	<path onclick="modal(this.id);" id="3170" class="st0" d="M5297.2,2767.7c10.4-9.3,19.9-17.6,29-26.2c11.1-10.5,24.3-15,39.3-16.8
		c30-3.6,58.1,1.3,85.1,14.9c18.4,9.3,36,19.9,55.4,27.3c24.2,9.1,48.5,8.8,72.5,2.9c13.2-3.3,25.8-11.1,34.2-22.9
		c6-8.4,12-16.2,24.1-14.2c1.8,0.3,4.2-0.5,5.6-1.7c8.5-7.5,19.8-7.5,29.5-11.4c10.6-4.3,20.9-3.1,31.1,1.2
		c17,7.3,34,14.8,52.4,22.9c56.3-7.3,114.4-13.9,171.4-27.1c19.3-4.5,38-11.9,56.8-18.4c4.2-1.5,8.1-4.7,11.5-7.8
		c12.3-11.1,27.9-15.2,42.9-20.6c3.9-1.4,9.6-1,13.4,0.8c9.5,4.7,19.6,9.3,27.2,16.4c10.8,10.1,21.9,19.3,34.6,26.7
		c8,4.6,13.1,10.9,15.4,19.9c2.6,10.3,6.5,20.4,8.3,30.8c3.1,17.8,13.3,30.1,27.9,39.5c5.6,3.6,11.4,7.2,17.6,9.3
		c17.1,5.8,30.9,16.3,40.8,30.7c12.3,18,28.8,26.3,49.9,28.4c10.4,1,19.6,0.9,27.5-7.2c6.8-7,15.8-9.5,25.4-10
		c22.2-1.2,42.9-8.9,63.9-15c4.4-1.3,8.3-4.1,12.5-6.2c5.3-2.7,10.5-5.5,16.3-8.6c8.6,4.5,17.6,7.8,24.9,13.3
		c20.6,15.2,43.8,25.3,67.3,34.6c10.3,4.1,18.8,9.8,26.1,17.7c12.2,13.3,25.8,25,40.4,35.6c9.4,6.9,19.4,11.1,31.5,10.3
		c15.9-1.1,31.8,1.3,47.7-2.5c6.9-1.7,14.5-0.3,23.7-0.3c-2.3,6.9-3.8,12.5-6,17.8c-5.9,14.1-12.4,28-18.3,42.1
		c-4.9,11.5-2.2,17.4,9.7,21.1c16.5,5.1,33.2,9.7,49.7,14.7c11.4,3.5,22.7,7.4,34.7,11.4c0.6,5.8,1.5,11,1.5,16.1
		c0,14.5,2.9,27.9,13.9,38.3c5.1,4.8,5.1,10.4,3.7,16.6c-4,17.5-7.4,35.1-12,52.5c-9.2,34.7-19,69.3-28.6,103.9
		c-0.3,1.1-1.6,2-3,3.8c-22,0.4-42.6-13-66.6-11c-10.3,32.3-13.7,66.1-23.8,99.1c-14.4-1.2-27.5-4.8-40.6-9.9
		c-1.7-11.7,6.6-22.3,1.7-34.8c-18.4-8.1-37.7-16.5-59.3-22.8c-0.7,4-1.7,6.4-1.5,8.7c4.4,36.2,8.9,72.5,13.6,108.7
		c5.7,44.1,11.6,88.1,17.4,132.2c0.3,2.6,0,5.2,0,8.2c-8.6,6.5-19,7-28.3,9.7c-75.6,21.3-151.3,42.1-226.9,63
		c-31.4,8.7-62.9,17.3-94.3,25.8c-7,1.9-13.8,2.6-21.4,1.4c-12.4-1.9-25.2-1.3-37.8-1.9c-21.9-1-43.8-2.1-65.7-3.3
		c-21.9-1.2-43.8-2.6-65.6-4c-1.3-0.1-2.6-0.3-4-0.4c-23.2-1-46.5-1.1-69.6-3.3c-22.5-2.1-45.3,0.7-67.6-4.2c-1.9-0.4-4-0.1-6-0.1
		c-29.9-1.5-59.7-3-89.6-4.4c-24.6-1.1-49.1-1.9-73.7-3c-16.6-0.7-33.1-1.7-51.1-2.7c-8.7-13.9-16.7-30.4-38.6-30.4
		c-8.7,6.5-17.7,14.8-30.5,16c-11-8.3-22.2-16.5-33.2-24.9c-6.2-4.8-12.5-7.3-20.3-3.7c-2.3,1-5.3,0.6-7.9,0.9
		c-13,1.7-24.2,6.2-31.4,18.3c-3,5.1-7.5,9.2-11.9,14.4c-9.2,0-18.5,0.2-27.8,0c-13.3-0.4-26.6-1-39.9-1.6
		c-37.2-1.6-74.3-3.3-111.5-5c-1.3-0.1-2.7-0.1-4-0.1c-35.3-0.7-70.5-1.3-105.8-2.3c-16.6-0.5-33.1-2-49.7-2.8
		c-15.9-0.7-31.9-1-47.9-1.5c-2-0.1-4-0.2-6-0.2c-29.9,0-59.7-2.9-89.5-5c-17.2-1.2-34.6-2.8-51.8-2.1c-27.9,1.1-54.1-5.4-80-14.1
		c-27.1-9.1-54.3-18.2-81.6-26.9c-81.7-26.4-163.5-52.6-245.2-78.9c-19-6.1-38.1-12-57.1-18.2c-4.3-1.4-8.5-3.3-13.2-5.2
		c-2.2-11-1.3-21.6-0.9-32.2c0.4-9.9,1.4-19.9,1.9-29.8c1.5-28.5,2.9-57,4.4-85.5c0.1-1.3,0.2-2.7,0.2-4c1-25.9,1.7-51.8,2.9-77.7
		c1.1-21.9,3.2-43.7,4.1-65.6c1.4-31.9,2.1-63.8,3.2-97c-9.5-9.5-19-19.6-29.2-29.2c-13-12.2-18.6-26.6-17.2-44.6
		c1.1-14.6,0.2-29.3,0.4-44c0.1-6.9-1.6-13.1-5.3-18.9c-7.9-12.3-15.2-25-23.8-36.9c-7.4-10.2-8.5-20.2-4.3-31.9
		c7.5-20.8,19.8-39.1,29.8-58.7c1.2-2.4,3.2-4.4,4.1-6.8c4.9-13,15.3-21.1,25.3-30c10.8-9.7,21.4-20.1,29.9-31.8
		c4.7-6.4,5.1-16.1,6.8-24.5c0.9-4.5,0.4-9.3,0.7-13.9c1.4-31.6,16.6-58.4,29.9-85.8c1.5-3,3-6,5.1-8.5c14.8-17.5,17-38.7,16.7-60.1
		c-0.2-20.1,3.5-39.7,5.5-59.5c1.5-13.9,7.4-26.8,13.2-39.5c2.1-4.6,6.2-8.5,9.8-12.3c13.2-14.1,26.8-27.7,39.6-42.2
		c11.7-13.3,9.2-35.1-4.7-45.9c-3.7-2.9-7.9-5-11.5-7.9c-6.3-4.9-12.6-9.8-18.4-15.2c-13.3-12.5-23.2-27.2-28.5-44.8
		c-0.8-2.6-1.5-5.1-2.4-7.6c-7.5-22.9-17.3-44.5-31.6-64.2c-13.7-18.9-26.4-38.4-39.5-57.7c-1.1-1.7-2.1-3.4-3.3-5
		c-11.4-15.5-11.5-31.5-3.7-48.8c20.3-45,44.4-87.9,68-131.1c8-14.6,15.6-29.4,23.4-44.1c2.1-3.9,4.5-7.7,6.7-11.4
		c8.9,2.7,10.8,10.7,15.8,15.6c5.2,5.1,10.2,10.3,15.1,15.7c13.3,14.6,32,18.9,49.3,25.3c29.1,10.6,56.1,24.2,79.9,44.2
		c18,15.1,38.7,26.1,59.4,36.6c27.5,14,52.3,31.7,77.5,49.2c9.3,6.4,18.7,12.7,28.5,18.4c29.5,17.2,56.4,37.5,80.7,61.6
		c14.1,14,29.4,27,45.1,39.3c14.8,11.6,31.4,20,50.5,22.4c4.5,0.6,8.9,2.4,13.8,3.7c2.9,25.5,9.6,49.8,10.7,75.2
		c0.6,15.8,5,31.4,7.3,47.2c1.1,7.2,2.2,14.5,2,21.8c-0.5,19.6,3.3,38.3,8.8,56.9c1.9,6.3,2.5,13,3.2,19.6c1.1,11.2,1,22.7,2.9,33.7
		c2.8,16,2.7,31.6-0.3,47.5c-1.4,7.7-1.8,16-0.5,23.7c3,17.9,3.1,35.8,2.7,53.7c-0.2,8,2.4,13.9,8.2,19.3
		c19.5,18.2,38.6,36.7,57.8,55.2c28.7,27.8,57.3,55.7,86,83.5C5293.4,2765.3,5295.2,2766.3,5297.2,2767.7z"/>
	<path onclick="modal(this.id);" id="3168" class="st0" d="M7573.2,4718.1c-4.7,12.5-11.1,24.8-19.9,33.8c-8.5,8.6-21.3,13.1-32.5,18.9
		c-4.7,2.4-10,3.9-15.2,4.9c-9.5,1.8-15.2,7.5-18.8,16.1c-1,2.5-2.3,4.8-3.4,7.2c-4.3,9-11,17.7-12.1,27c-1,8.6,3.7,17.9,6.4,26.8
		c8.4,27.4,17.3,54.6,25.6,82c2.8,9.1,7.1,17.1,12.7,24.7c8.3,11.2,16,22.9,24.2,34.2c19.2,26.4,38.4,52.6,57.8,78.9
		c14,19,13.2,18.6,2.7,38.8c-8.9,17.1-21.5,30.2-36,42c-4.1,3.3-8.6,6.5-13.3,8.7c-21.7,10-43.6,19.6-65.5,29.3
		c-12.8,5.7-25.7,10.9-38.2,17.1c-13,6.4-17.2,15.8-12.2,29.6c4.7,13.1,10.4,25.9,17.1,38.1c6.4,11.6,14.4,22.4,22,33.3
		c3,4.3,6.4,8.7,10.5,11.9c13.1,10.2,20.9,24,27.8,38.5c6.9,14.4,13.6,28.9,20.5,43.3c13.5,28.2,34.8,48.7,63.5,60.7
		c18.4,7.7,37,14.9,56.9,18.1c6.5,1.1,13,2.9,19.2,5.4c5.4,2.2,10.4,5.7,15.7,8.8c1.3,14.7-3.3,28-4.8,41.7
		c-1.2,11.2-3.5,22.3-5.3,33.4c-2.6,16.1,0.9,29,13.5,41.2c46.9,45.5,92.8,92,138.8,138.3c86.9,87.5,173.6,175.1,260.4,262.7
		c3.2,3.2,6.1,6.8,10.2,11.5c-3.6,1.4-5.7,2.7-7.9,3c-22.4,2.3-44.9,5.4-67.4,6.5c-31.2,1.5-62,7.7-93.5,5.9
		c-21.3-1.2-42.7-0.5-64-0.2c-41.3,0.5-82.4-2.7-123.5-5.3c-19.8-1.3-39.5-4.9-59.3-7.4c-7.9-1-15.8-1.6-23.7-2.3
		c-11.3-1-22.5-1.6-33.8-2.8c-21.8-2.2-43.7-6.9-65.5-4.1c-24.3,3.2-47.4-2.3-71.1-4.3c-4.6-0.4-9.3-0.6-13.8,0.3
		c-8.5,1.7-16.8,4-25.1,6.4c-4.4,1.3-9.6,2.4-12.7,5.4c-8.4,8.3-19.3,11.5-29.3,16.6c-10.7,5.4-20.5,11.8-30.2,19.1
		c-31.6,23.5-65.5,43-103.8,53.9c-14.9,4.2-29.1,3.2-42.3-4.5c-10.6-6.1-21.4-9.6-33.9-10.1c-10.5-0.4-20.8-3.9-31.2-6.2
		c-5.2-1.2-10.2-3.3-15.4-4.1c-16.1-2.6-29.9,0.3-40.1,15.1c-9.9,14.4-19.4,28.5-23.2,45.9c-2,9.3-2.7,18.2,0.3,27.5
		c2.3,6.9,3.7,14.2,4.9,21.4c1.1,6.3-1.1,9.9-7.3,12.5c-4.2,1.8-8.8,2.7-14.4,4.4c-0.8-3.8-1.8-6.8-1.9-9.9
		c-0.4-7.2-3.8-12.6-9-17.2c-13.9-12.4-27.7-24.9-41.7-37.1c-7.5-6.5-15-12.5-26-13.5c-6.1-0.6-12.3-4.9-17.5-8.9
		c-14.6-11-31-14.7-48.8-14.5c-6.7,0.1-13.4-0.4-20,0.1c-29.1,2.4-56.9-3.3-84-13.3c-19.6-7.3-39.9-10.6-60.8-8.2
		c-5.8,0.7-11.7,2.1-17.1,4.4c-33.9,14.2-59.3,37.6-74.7,71.3c-5.1,11-12.8,20.1-19.7,29.9c-8,11.3-19.7,16.4-31.9,18.4
		c-25.8,4.4-51.9,4.7-76.5-6.3c-10.4-4.6-21-3.9-31.4-2.9c-17.2,1.6-34.2,4.9-51.2,7.5c-3.3,0.5-6.5,1.6-9.7,2.5
		c-17.1,4.8-26.6,16-28.8,33.9c-0.5,4.5-1.2,9-1.9,14.1c-7.8,1.5-14.9,4.3-22,4.1c-24.7-0.7-48.8,4.6-73.2,7
		c-3.8-2.8-2.1-6.2-0.2-8.7c2.8-3.7,6.3-6.9,9.6-10.2c11.9-12.1,17.1-26.5,16-43.5c-0.4-6.1-0.8-12.2-4.5-17.1
		c-11.9-15.7-20-34.3-35.5-47.3c-4-3.3-8.4-6.2-13.8-10.2c-1.2-3.1-2.7-8.3-5.1-12.9c-3.6-6.8-9.6-10.2-16.7-7.5
		c-20.1,7.8-39.3,2.8-58.5-2.8c-8.3-2.4-16.5-5.3-24.8-7.7c-7-2.1-14.1-4.2-21.2-5.5c-16.1-2.9-31.8-2.1-46.4,6.7
		c-4.6,2.7-9.9,4.3-14.1,7.5c-6.9,5.2-14.5,5.7-22.6,6.1c-13.9,0.7-28.1,1-41.5,4.2c-14.1,3.3-27.9,3.3-41.5,0.3
		c-16.1-3.5-30.2-0.7-43.7,8.3c-3.2,2.1-7.1,3-11.1,4.7c-2.3-6.4,2.5-9.5,5.1-12.4c15.2-17.3,19.5-37.2,15.8-60.5
		c2.5-3,5.7-6.3,8.2-10.1c2.4-3.7,3.9-8,6.1-12.6c3.3,1,6.2,1.1,8.1,2.6c13.1,9.7,28.4,10.1,43.7,10.9c8.6,0.4,17.1,2,25.7,2.3
		c7.9,0.3,16,0.5,23.7-0.9c26.8-4.8,53.5-10.4,80.2-15.5c8.6-1.6,16.4-3.9,23.6-9.6c18.8-14.9,38.1-29,57.4-43.2
		c4.9-3.6,9-7.1,11-13.4c2-6.2,6.4-11.6,9.4-17.6c3.1-6.3,7.9-10.5,13.9-13.8c7-3.8,14.5-7.2,20.7-12c10-7.8,20.8-11.3,33.4-10.1
		c11.5,1.1,22.5-1.5,33.3-5.1c4.4-1.4,9-3,12.6-5.7c17.5-13.2,34.6-27,52.2-40.1c7-5.2,10-12.1,12.3-19.8
		c3.8-12.7,8.6-25.2,11.9-38.1c3.6-14.3,11.7-25.2,22.5-34.5c3-2.6,6.4-4.8,9.4-7.4c13.2-11.2,16.3-16.2,13.4-32.7
		c-3-17.3-2.2-34.5-2.2-51.8c-0.1-40.3-13.3-75.5-39.8-105.9c-0.8-1-1.2-2.3-2.4-4.6c5.6-21.1,13.5-41.2,30.1-58.4
		c18.9-19.5,35.2-41.5,51.9-63.1c5.6-7.3,9.4-16.1,13.2-24.6c6.6-14.9,15.8-27.5,29.2-37.1c19-13.7,30.9-32,38-54.5
		c4.8-15.1,12.6-29.3,20-43.5c6.4-12.2,11-24.3,6.6-38.1c2.5-20.5-9.3-35.5-20.4-50.4c-10.3-13.9-21.6-27-32.9-40
		c-4.3-4.9-9.9-8.8-15.2-12.6c-9.2-6.6-18.5-13-28-19c-10.6-6.7-17.9-15.6-21.4-27.7c-5.8-19.6-17.3-35.6-30.2-51.1
		c-5.8-7-12.2-12-20.1-15.7c-23.5-10.9-47.1-21.7-70.6-32.7c-4.8-2.2-10.2-4.1-13.6-7.8c-9.9-10.7-23-16.1-35.7-21.4
		c-8.3-3.4-18.1-3.4-27.2-4.9c-7.8-1.3-15.8-2.3-23.5-4.1c-16.1-3.8-26.7-14.3-32.8-29.3c-4.5-11-10.3-21.7-9.1-34.4
		c2.2-23.1,8.9-44.2,24.9-61.6c2.7-2.9,5.7-5.7,8.3-8.7c17.2-19.8,23.8-42.5,18.7-68.3c-3.4-17.1-5.6-34.1-0.4-51.3
		c0.9-3,1.1-6.7,0.3-9.8c-2.6-10.8-0.2-21.3,1.2-31.8c1.8-13.1,4.4-26.1,6.9-39.1c0.9-4.5,2-9.2,4-13.2c8.7-17.3,10-35.6,6.6-54.2
		c-0.9-5.1-0.1-9,2.3-13.2c7.3-12.6,14.5-25.3,22.4-39.1c6.2-1.2,11.3,5.7,18.9,5.9c8.1,0.2,15.8,4.8,25.1,3.2
		c7.3-1.2,13.4,5.2,18.3,10.8c7.1,8,14.3,16,23.9,20.9c9.2,4.7,15.8,13.7,27.3,15.2c10.4,1.3,20.5,5.2,30.8,7.4
		c11,2.3,21.7,5.6,33.4,4.7c10.6-0.9,21.1-1.3,31.4-4.7c7.5-2.4,15.7-2.7,23.6-3.8c5.7-0.8,9.7-3.5,12.5-8.7
		c12.9-23.4,22-48.5,30-73.7c4.1-13,3.7-27.5,5.5-41.3c1.5-12.5,3.4-25,4.7-37.5c0.7-7.2,3.7-12.8,9.8-16.4
		c6.2-3.7,12.6-7.2,19.9-11.3c33.6,17.5,64.5,39.7,98.1,57c33.7,17.3,68.1,33.3,103.1,50.3c0.6,5.7,1.2,12.2,2,20
		c19.7,6.5,39.4,13.9,59.4,18.5c1.7-1.8,3.2-2.7,3.3-3.7c1.3-17.8,2.2-35.7,3.9-53.6c0.8-9.2,1.8-18.7,4.8-27.3
		c11.8-34.6,24.5-69,37.3-104.8c3.2,2,6.3,3.1,8.1,5.3c9.4,11.2,18.5,22.6,27.7,34c1.7,2.1,3.3,4.4,5.5,5.8
		c15.1,9.8,22.5,25.8,32.9,39.6c16.3,21.8,31,45,53.5,61.5c6.7,4.9,10.2,11.4,10,20.6c-0.4,12.6,1.3,25.2,1.6,37.9
		c0.2,8.9,3.9,14.7,11.9,19c21.3,11.4,43.7,19.6,66.8,26c32.9,9,63.9,22.5,93.9,38.4c14.1,7.5,29,13.6,43.1,20.9
		c8.5,4.5,17.6,6.4,26.8,7.5c39.6,4.5,79.2,8.2,118.8,12.7c7.1,0.8,14.3,3.4,20.7,6.6c19.1,9.4,37.9,19.5,56.7,29.5
		C7569.9,4714.5,7571.1,4716.1,7573.2,4718.1z"/>
	<path onclick="modal(this.id);" id="3172" class="st0" d="M4775.9,4578c-3.1-2.6-6.2-1.2-9.2,0.2c-23.1,10.3-46.2,20.5-69.1,31.2
		c-4.7,2.2-8.9,5.7-12.9,9.2c-4,3.5-7.8,7.3-11.2,11.4c-11.9,13.9-27.4,18.9-44.8,16.9c-9-1-17.8-0.7-25.5,2.5
		c-16.3,6.8-33.8,11.4-48.5,21.7c-22.4,15.6-44.6,31.6-66.9,47.3c-4.8,3.4-9.8,6.3-15.2,9.7c-8.4-18.9-2.4-39-8.4-55.9
		c-5.6-5-11-3.8-16.3-3.8c-21.3,0.1-42.6,0.4-63.9-0.1c-6.5-0.1-13-2.5-20.8-4.1c-8.2-17.5-16.8-35.4-25.2-53.4
		c-14.4-30.9-32.1-59.7-55.5-84.7c-4-4.3-8.6-5.9-14-6.6c-19.2-2.3-38.4-4.6-57.5-7c-10.5-1.3-21-2.7-32-4.1
		c-1-4.3-1.4-8.2-2.9-11.7c-1.6-3.6-4.2-6.7-6.4-10.1c-8.8-13.3-17.8-26.5-26.4-40c-8.1-12.7-7.9-12.8-8-28
		c-3.9-1.5-8.1-3.2-12.1-4.8c-29.5,15.8-61.6,22.5-92.4,33.7c-12.5-5.8-18.8-17.1-25.1-27.7c-6.3-10.6-10.3-22.6-15.8-35.1
		c3-2.5,5.7-5.3,8.8-7.4c45.8-30.9,91.6-61.9,137.6-92.5c9.6-6.4,18-13.5,24.6-23c5.7-8.2,12.1-15.9,18.4-23.6
		c6.5-7.9,7.9-16,4.1-25.9c-5.9-15.5-10.5-31.6-16-47.3c-3.3-9.6-5.6-18.9-2.8-29.2c2.2-8.4,0.8-17-3.2-25.2
		c-3.5-7.1-5.9-14.8-9-22.2c-3.8-8.9-4-17.7-1.9-27.3c8.8-40.9,17.3-81.9,25.4-122.9c3.5-17.6,5.9-35.3,9-53
		c1.1-6.5,2.7-12.9,3.9-19.1c10.1-4.1,19.4-3.7,28.5-1.8c11,2.3,21-0.2,31-4.4c8.5-3.7,17.3-6.9,25.8-10.5c3.6-1.5,7.5-3,10.6-5.3
		c14.5-10.5,28.8-21.4,43.2-32c3.2-2.3,6.5-4.9,10.2-6c10.8-3.2,21.8-5.7,33-8.5c15.8,4.9,32.4,9.8,48.7,15.1
		c4.2,1.4,8.3,3.9,11.8,6.7c3.1,2.4,4.9,6.4,7.9,8.9c8.3,7,19.5,3.4,21.6-7.4c2-10.4,3.2-21,3.7-31.6c1.1-27.9,1.6-55.9,2.5-83.8
		c0.6-18.6,0.7-37.3,2.4-55.8c3.2-34.5,3.5-69,4.6-103.5c0.9-26.5,3.3-53,5.1-79.5c0.1-1.8,1.2-3.6,2.3-6.7c3.2,0.6,6.4,0.8,9.3,1.7
		c38.7,12.3,77.4,24.6,116,37.1c65.8,21.3,131.6,42.9,197.4,64.3c31,10.1,62.1,19.8,93,30.2c12.8,4.3,25.4,6.9,39,6.7
		c19.3-0.3,38.7-0.1,57.8,1.9c28.5,3,57,4.2,85.5,4.7c8.7,0.2,13.4,3.9,16,11.9c2.7,8.2,6,16.2,9.6,24.1c4,8.6,5.7,17.4,6.3,27
		c0.7,10.5,3.1,20.9,5.1,31.3c2.1,10.7,8.1,19.4,14.7,27.9c7.3,9.5,13.8,19.5,20.9,29.1c3.1,4.2,6.4,8.5,10.2,11.9
		c12.5,11.2,23.8,23,31.9,38c8,14.9,20.3,26.3,32.8,37.3c2.9,2.6,6.9,5,8.3,8.3c5,11.4,14.2,19.1,22.3,27.9
		c9.8,10.8,18.6,22.4,19.9,39c-16.8,5.5-34.6-0.7-51.5,4.2c-8.2,27.1-3.9,55.5-10.9,83.2c-10.4-2.1-15.3-9.2-20.2-16.1
		c-2.3-3.2-4.3-6.9-5.5-10.6c-5-15.3-16.8-24.3-30.7-29.3c-20.5-7.5-37.5-19.8-53.6-33.8c-2-1.7-3.8-3.8-6.1-5.1
		c-8.2-4.6-18.6-1.8-24.4,6.2c-5.6,7.7-9,16.1-11.3,25.3c-3.2,12.9-6.5,25.9-11,38.3c-3.8,10.5-8.9,20.7-14.5,30.5
		c-3.4,6-5.7,11.9-5.4,18.8c0.5,10.1-1.3,19.7-4.1,29.4c-3.8,13.1-1.8,26.6,4.9,38.4c8.2,14.4,16.4,28.9,28.4,40.8
		c6,6,10.6,13.8,14.4,21.4c3.8,7.6,5.5,15.8,4.7,25.1c-1.3,14.3,3.5,27.2,14.5,37.4c7.3,6.9,8.5,19.8,3.5,29.4
		c-5.8,11.3-22,19.5-35.2,17.3c-7-1.2-13.9-3.4-22.5-0.6c2.9,6.8,5.4,12.8,8,18.7c4.5,10.4,6.3,20.5,4.3,32.5
		c-3.5,20.8-7.3,42-2.8,63.4c0.9,4.1-0.6,9.4-2.7,13.3c-5.5,10.5-11.9,20.6-19.4,33.4c0.3,7.3,4,15.8,10.8,23.8
		c10.8,12.6,19.7,26.7,26,43.5c-3.6,2-6.6,4.5-10.1,5.6c-17.7,5.5-35.4,10.5-54.3,11.8c-17.8,1.2-35.5,5.9-51.3,15
		c-15.4,8.8-32.8,10.5-49.4,15.2c-2.8,0.8-6.4-0.7-9.5-1.6c-10.2-3.1-20.4-6.3-30.4-9.8c-17.9-6.2-35.3-4.6-52.1,3.6
		c-3.4,1.6-7.2,4.4-8.6,7.6c-5.5,12.4-14.9,21.7-24.1,31.2C4775.4,4578.5,4775.9,4578,4775.9,4578z"/>
	<path onclick="modal(this.id);" id="3166" class="st0" d="M6526,3943c11.8,4.4,18.8,13.2,25.3,22.3c12.8,17.8,25.8,35.4,36.3,54.9
		c10.7,19.9,26,36.8,40.6,54c13.7,16.2,26.1,33.6,39,50.5c3.2,4.2,6.8,8.6,8.5,13.5c11.9,33.2,23.6,66.4,23.1,102.4
		c-0.2,15.3-0.3,30.5,2,45.8c1.6,10.4,0.4,21.1-2.3,31.7c-4.8,18.7-9.8,37.2-17.9,54.9c-3.5,7.6-8,13-15.3,17.4
		c-26.6,16.1-20.5,9-25.9,40.2c-1.3,7.8-1.3,15.9-2.8,23.7c-2.1,10.9-3.1,21.9-7.9,32.6c-4.6,10.1-5.2,21.9-7.8,32.9
		c-4.5,19-13.6,35.8-22.9,51.5c-27.8,6.5-54.5,5.8-81.1,5c-7.7-0.2-15.3-4-23.1-5.7c-21.4-4.7-39.8-14.8-54.6-31
		c-14.6-16.1-33.1-23.9-54.1-27c-7.2-1.1-15.4-5-21.3-2.8c-7.5,2.8-13.1,1.9-20.3,0.5c-8.1-1.6-16.9,0.5-26.5,1.1
		c-1.8-2.8-4.2-5.8-5.8-9.3c-2-4.2-3-8.8-5-13c-2.9-5.8-11.1-6.8-15-1.9c-2,2.6-3.3,5.8-5.2,8.5c-4.3,6.2-10.2,10.3-17.4,12.7
		c-14.1,4.5-33.4,17.8-41.9,28.3c-2.5,3.1-5.1,6.2-8.1,8.7c-27.2,21.7-50.4,47.4-72.9,73.7c-1.3,1.5-3,2.5-4.4,3.6
		c-31-3-61.1-12.1-84.6-27.6c-11.7-7.7-23.4-12.1-37.4-10.5c-3.9,0.5-8,0.3-12,0c-24.9-1.6-49,1.8-73.1,11.2
		c-2.3-2.5-4.9-4.5-6.6-7.2c-17.8-27.4-35.4-54.8-53.1-82.2c-6.5-10.1-11.4-20.7-15.3-32.2c-4.8-14.4-12.4-27.8-19.2-41.5
		c-5.3-10.7-11.3-21.1-16.7-31.8c-7.5-14.7-8.8-30.5-7.6-46.7c1.1-14.5,2.4-29,3.4-43.6c0.3-4.2-4.2-6.7-8.5-4.7
		c-9,4.2-18,8.7-27.1,12.7c-45.1,19.7-90.3,39.3-135.4,59c-4.9,2.1-9.6,4.8-14.6,6.4c-6.1,1.9-9.7,6.1-13.8,10.6
		c-8.9,9.7-15.9,21.5-27.7,28.5c-2.8,1.7-5.7,3.3-9.3,5.4c-11.9-8.3-23.7-16.8-35.9-24.8c-15.1-9.9-31-18.1-48.3-23.5
		c-5.3-1.6-10.1-1.8-15.6-1c-29,4.2-56.9,13-85.4,19.3c-11.3,2.5-21.8,4.7-33.2,0.2c-9.8-3.8-19.7-0.9-29,2.7c-1,1.1-2.2,2-2.6,3.1
		c-7.7,23.5-5.3,18.5-26.5,24.5c-26.9,7.5-53.9,14.6-80.9,21.8c-2.5,0.7-5,1.2-8.2,2c-8.9-11.3-9.6-24.8-12.3-37.5
		c-1-4.5,0.1-9.5-1.2-13.9c-3.4-11.7-0.9-21.8,4.2-32.6c6.2-13.3,8-28,8.9-42.6c1-16.6,1.5-33.1,7.6-49c5.8-15,12-29.4,23-41.5
		c9.9-10.9,16.8-24,21-38.2c2.3-7.7,2.9-15.3-0.4-23.2c-4.5-11.1-7.7-22.7-12.4-33.7c-9.4-22.3-13.2-45.9-17.9-69.4
		c-1.8-9.1-3.9-18.2-6.9-26.9c-4.8-14-7.6-27.7-5.4-42.9c3-20.3,3.7-40.9,5.6-61.4c0.2-2.6,1.1-5,1.9-8.3c18-3.5,36,0.5,54.6-2.6
		c-1-16.9-6.2-31.6-17.1-43.7c-9.8-10.8-20.6-20.6-27.4-34c-2.9-5.7-8.5-10.5-13.8-14.3c-13.9-10-23.4-23.6-31.6-38
		c-6.4-11.1-13.8-20.9-24.3-28.6c-5.7-4.2-10.1-10.5-14.4-16.3c-7.1-9.6-13.2-20-20.8-29.3c-10.4-12.8-16.5-27-17.4-43.5
		c-0.5-7.9-1.4-15.9-2.8-23.7c-0.9-5.1-2.7-10.2-4.8-15c-4.4-9.7-7.9-19.7-9.9-29.3c3.4-5,7.7-3.7,11.3-3.6
		c16.6,0.3,33.3-1.7,49.7,2.6c1.3,0.3,2.7,0.1,4,0.1c26.6,0.6,53.2,0.9,79.8,1.9c42.5,1.4,85,3.3,127.5,4.9c1.3,0.1,2.7,0,4,0.1
		c35.2,0.9,70.5,1.7,105.7,3c6.7,0.2,11.7-1.2,15.6-6.5c2-2.7,4.4-5,6.1-7.9c8.4-13.9,21.1-19.4,36.9-19.5c2.6,0,5.2-0.8,8.6-1.4
		c9.1,4.3,17.5,10.6,25,18.4c2.8,2.9,5.7,5.6,8.9,8c4.5,3.4,9.4,4.4,15,2.8c9.8-2.7,18.6-6.9,25-14.5c11.8,0.2,19.3,5,24.7,14.8
		c12.9,23.5,31.6,42.7,48.5,63.2c11.1,13.5,21.5,27.3,27.4,43.8c6.6,18.8,12.4,37.9,17.8,57.1c2.6,9,5.4,17.7,10.5,25.6
		c9.8,15,19.1,30.4,29,45.4c7.4,11.2,13.9,22.5,17.8,35.5c5.6,18.5,12.4,36.5,18.2,54.9c5.9,18.5,16.4,32.6,33.6,42.7
		c22.5,13.2,45.2,25.3,70.4,32.5c12.8,3.6,25,9.1,37.8,12.9c16.1,4.8,27.4,15.8,37.2,28.4c6.9,8.9,12.7,18.7,18.9,28.2
		c17.5,26.7,41.5,46.3,67.3,64.3c11.5,8,24,11,37.4,11.7c11.3,0.6,22.5,1.6,33.8,1.7c3.7,0.1,7.6-1.7,11.3-3
		c12.5-4.5,23.9-11.5,37.1-14c13.3-2.6,26.2-4.5,39,1.7c2.9,1.4,6.7,1.2,9.6,2.6c15.6,8,26.5,1,35.9-10.9c1.7-2.1,3.2-4.3,4.6-6.5
		c3.5-5.8,8.7-7.6,15.2-7.5c19.3,0.1,38.7-0.6,58,0.2c12.8,0.6,23-3.5,33-11.1c24.3-18.6,48.8-37,73.7-54.7
		c9.8-7,15.8-15.5,19.2-26.8c4-13.4,9.1-26.4,13.9-39.5c1.3-3.7,2.6-8,5.3-10.4c4.1-3.6,4.9-7.6,4.9-12.4
		C6517.2,3961.3,6521.2,3952.3,6526,3943z M6323,4391.1c9.3,20.6,24.9,33.3,46.4,38.2c11.8-10.1,15.4-22.2,14.9-36.4
		c-10.4-7.5-21.1-14.3-26.2-26.9c0.3-5.7,1.3-11.7,0.9-17.6c-0.3-3.7-1.5-8.6-4.1-10.6c-13-9.9-24.8-22.5-43.7-23
		c-7.5,20.7-20.6,39.6-21.5,62.8C6299.4,4386.6,6312.9,4384.6,6323,4391.1z"/>
	<path onclick="modal(this.id);" id="3171" class="st0" d="M6628.1,3549.2c0.1,24,14.8,35.9,31.8,43.7c32.7,14.9,65.9,28.6,100.6,38.3
		c17.5,4.9,35.4,5.7,53.3,6.5c6.7,0.3,13.1,0.7,19.3,3.9c33.1,17.4,68.6,24.7,105.7,25.1c2.6,0,5.2,0.6,9.3,1
		c1.5,7.5,3.8,15.1,4.4,22.8c3.4,38.4,6.1,76.8,9.6,115.1c3.1,33.7,7.4,67.3,10.2,101c1.5,17.9,1,35.9,1.8,53.8
		c0.3,8.6,0.5,17.3,2.4,25.7c2.1,9.4,3,18.6-0.4,27.5c-3.2,8.5-0.7,15.1,3.7,22.4c7.2,11.9,13.5,24.5,20.1,36.8
		c1.9,3.5,3.5,7.2,5.1,10.9c6.8,15.5,7.6,30.7-3,46.3c-3.1,0.5-6.9,1.5-10.8,1.5c-100.7,0.1-201.3,0-302,0c-2,0-4-0.3-7.2-0.6
		c-12.5-16.2-25.4-33-38.3-49.8c-4.1-5.3-7.5-11.3-12.4-15.6c-19.4-17.2-31.2-39.6-44.2-61.3c-13-21.6-26.3-43.1-45.3-60.2
		c-2.7-2.4-3.7-6.7-6.1-11.3c-2.7,0-5.9,0.1-9.2,0c-5.4-0.2-8.9,2.5-10.9,7.1c-1.9,4.2-4.1,8.6-4.8,13c-2.3,16.7-8.7,32-14.4,47.7
		c-3.8,10.6-8,21.2-10.9,32.2c-2.4,8.9-7,15.4-14.4,20.8c-26.3,19.2-52.6,38.6-78.7,58.1c-4.4,3.3-8.8,4.9-14.4,5.8
		c-19.9,3.1-39.8,2.2-59.8,2.4c-7.9,0.1-15.9,0.3-22.9,0.5c-5.5,6.9-9.8,12.8-14.6,18.3c-5.7,6.5-13,9.1-21.6,6.4
		c-3.8-1.2-7.7-2.2-11.4-3.6c-23.5-9.1-46.6-4.4-67.7,5.8c-18,8.7-35.4,9.9-54.2,6.9c-2-0.3-4-1-5.9-0.8
		c-16.9,2.1-29.5-7.3-41.5-16.5c-25.9-19.9-49.8-41.9-65.4-71.6c-4.2-8.1-11-15-17.1-21.9c-9.4-10.7-21.2-17.9-34.8-22.3
		c-19.6-6.3-39.1-13.1-58.8-19.5c-21.2-6.9-39.2-19.9-57.4-32c-8.5-5.7-13.3-16.2-16.7-26.6c-6.3-19.7-13.3-39.1-19.6-58.8
		c-3.7-11.5-8.9-22.1-15.7-32.1c-10.4-15.4-20.1-31.4-30.1-47.1c-10.6-16.6-12.4-36.4-19.3-54.3c-4.5-11.8-8.1-23.9-12.7-35.7
		c-9.5-24.1-27.8-41.9-43.6-61.6c-4.9-6.1-9.8-12.2-14.4-18c2.6-4.7,6.1-4.1,9.3-3.9c9.9,0.6,19.9,1.4,29.8,2
		c23.2,1.3,46.4,2.6,69.6,3.9c2,0.1,4,0.6,6,0.6c25.2,1,50.5,1.8,75.7,3.1c21.9,1.1,43.8,2.8,65.6,4.2c2.7,0.2,5.3,0.1,8,0.3
		c27.9,1.4,55.7,3,83.6,4.4c23.2,1.1,46.5,1.9,69.7,3.2c19.9,1.1,39.7,2.8,59.6,4.2c4.6,0.3,9.3,0.2,14,0.3c5.3,0,11-1.2,15.9,0.3
		c19.8,5.9,38.2-0.4,56.7-5.5c92.9-25.7,185.8-51.8,278.7-77.7c22.4-6.2,45-12.2,67.5-18.2C6597,3552.2,6611.4,3550.6,6628.1,3549.2
		z"/>
	<path onclick="modal(this.id);" id="3162" class="st0" d="M6951.6,3659.9c-35.8-0.2-71.3-4.6-104-20.8c-14.7-7.3-29.3-11.6-45.8-10.6
		c-16.7,1-32.9-2.8-48.9-7.8c-31.1-9.8-61.2-22.2-91.2-35.1c-9.1-3.9-15.2-10.5-21.5-17.3c-2-2.2-2.9-5.9-3.3-9
		c-0.8-5.2-0.8-10.5-1.2-16.8c-4.2-0.6-8.1-2.1-11.7-1.6c-15.7,2.1-31.3,4.7-48.1,7.3c-5.4-26.7-7.6-53.6-11.1-80.3
		c-3.6-27-7.3-53.9-10.8-80.9c-3.4-26.8-6.9-53.6-10.2-82c17.7,2.8,31.8,9.2,46.5,16.9c-2,10.8-3.9,21.1-5.8,31.1
		c12.2,7.7,36.6,14.4,56.4,15.4c7.2-15.4,7.9-32.8,12.1-49.3c4.2-16,7.2-32.4,11-49.7c5.1,0.4,9.6,0.3,13.9,1.2
		c13,2.8,25.9,6.2,38.9,9c4.4,1,9.1,0.9,14,1.3c5.5-6.9,6.7-14.8,9.1-22.3c14.9-46.3,25.7-93.6,36-141c0.6-2.5,1.5-5,2.8-8.8
		c4.6,0.7,9.1,0.6,13.2,2c21.4,7.2,42.8,14.7,64.1,22.2c17.6,6.1,35.2,12.1,52.7,18.4c3.6,1.3,7,3.3,12,5.7
		c-3.8,4.4-6.1,8.7-9.6,10.9c-10.5,6.6-15.2,16.6-17.8,27.8c-1.1,4.6-1.4,9.2-5.3,12.5c-7.2,6-9.4,14.4-10.7,23
		c-2,12.6-5.6,24.6-12,35.7c-6.1,10.6-3.1,19.1,3.4,29.2c10.6,16.5,24.3,26.9,42.8,33.2c24.8,8.4,46.2,23.1,67,38.9
		c7.4,5.6,15.3,10.5,23.2,15.4c17.5,10.9,35.2,21.5,52.5,32.6c17.4,11.1,21.4,29.6,25.2,47.9c0.6,2.8-1.2,6.5-2.7,9.4
		c-2.5,4.7-5.7,9-8.7,13.4c-29.2,43.8-58.3,87.5-87.4,131.3c-7.7,11.6-15.2,23.5-22.9,35.1
		C6956.2,3655.4,6954.1,3657.2,6951.6,3659.9z M6594.1,3527.2c9.8,4.6,19.9,7.3,30.6,7.9c6.6,0.4,9.7-2,11.6-8.5
		c3.5-12.1,6.8-24.3,10.3-36.4c0.5-1.8,2.1-3.2,3.2-4.8c5.4,0,10.5,0,16.7,0c4.7-16.3,10.5-31.6,19.2-45.9c5.2-8.6,9-19.1,8.3-30.9
		c-15.2-4.3-29.9-7.2-46.8-8.6c-2.5,3-6.2,6.2-8.3,10.2c-2.3,4.3-3.1,9.4-4.4,13.7c-7.8,0.8-14-5.2-21-0.3c-0.8,1.4-2.3,2.9-2.8,4.8
		c-2.7,8.9-5.1,17.4-13.5,23.5c-3.4,2.5-5.8,10.2-4.6,14.3c2.7,9.1,0,17-1.9,25.3c-0.3,1.2,0.1,2.6,0.2,4c2.5,2,5,4,8.5,6.8
		C6597.7,3509.9,6596,3518.1,6594.1,3527.2z"/>
	<path onclick="modal(this.id);" id="3173" class="st0" d="M4368.1,4824.8c-21.6,0.7-43.1,1.4-66.1,2.2c4.5-15.6,1.3-30.1-2.5-44.9
		c-6.9-26.9-23.4-44.2-49.6-52.1c-7.5-2.3-12.4-6.5-17.5-12.1c-8.8-9.9-19.2-18.4-28.7-27.7c-6.8-6.7-15.1-10.4-23.8-14.1
		c-12.7-5.4-24.8-6.7-38.7-4.2c-26.1,4.6-52.6,7.7-79,9.8c-28,2.1-50.9,13.9-71,32.3c-7.9,7.2-15.1,15-22.8,22.4
		c-1.8,1.8-4.3,2.8-7.6,4.9c-4.9-4.5-10.2-8.5-14.5-13.3c-10.4-11.9-23-19.8-38.1-24.4c-10.1-3.1-19.9-7.2-30.7-11.2
		c0-7.3-0.2-13.9,0-20.5c0.3-8.3,2.9-15.6,9.2-21.4c11.5-10.5,19.6-23.3,26.7-37c2.7-5.2,7-9.6,10.4-14.5c14-19.5,27.3-39,31.1-63.8
		c1.9-12.3,7.2-24.1,11-36.1c9.7-3.9,19.8-4.8,29.6-2.6c12.6,2.9,22.4-1.3,30.5-10c7.5-8,12.5-17.2,7.9-28.5
		c17-9.1,60.8-24,85.7-29.1c13.5,20,27.4,40.2,40.8,60.6c2.4,3.7,3.2,8.6,4.5,13c1.3,4.3,2.4,8.7,3.6,13.2c9.5,1.4,18,2.8,26.5,3.9
		c22.4,2.9,44.7,6,67.2,8.3c8.6,0.9,15.2,4.5,20.6,10.7c8.7,10.1,17,20.3,23.8,31.9c15.1,25.9,28,52.9,40.3,80.1
		c4.3,9.6,8.4,19.6,16.7,28.5c29.9,0.2,60.4,0.5,89.8,0.7c5.6,5.9,6.2,11.8,6.4,17.8c0.2,6.6,0.8,13.3,0.8,19.9
		c0,16.1,4.4,31.3,12.6,47.1c-8.9,0-15.3,0-22.1,0c-4.4-7.7-8.6-15.1-13.2-23.1c-8.2,1.5-15.8,3-23.9,4.5
		c-3.7-5.3-7.1-10.1-10.7-15.2c-9.5,1-18.7,1.6-26.6,7.2c-2.1,1.5-5.1,3.1-7.3,2.7c-12.3-2.1-23.3,4.9-36.2,4.3
		c-4.2,7.4-8.5,14.7-12.3,21.3c2,15.9,15.6,21.7,23.5,31.9c2,2.5,6.5,4.1,6.9,6.6c1.6,10,9.2,13.3,17.7,16
		C4368.9,4822.3,4368.5,4823.6,4368.1,4824.8z"/>
	<path onclick="modal(this.id);" id="3167" class="st0" d="M6985.3,4338.4c-10.9,30.9-21.7,61.6-32.6,92.3c-2.4,6.9-5.7,13.5-7.6,20.6
		c-2.1,7.6-3.5,15.5-4.3,23.4c-1.5,16.5-2.3,33.1-3.5,49.6c-0.1,1.2-1.2,2.3-2.5,4.6c-14.8-4.9-29.8-9.9-43.9-14.6
		c-1.1-2.6-2.3-3.9-2.1-4.9c2.6-10.9-1.3-16.8-12.1-21c-22.2-8.8-43.8-19.3-65.5-29.2c-7.9-3.6-15.9-7-23.3-11.4
		c-32.1-19-63.9-38.3-95.8-57.6c-2.2-1.3-4.1-3.3-7-5.7c2.2-6.1,4.5-12.1,6.6-18.3c3.9-12,7.9-23.9,11.4-36c6.9-24,7.6-48.4,3.2-73
		c-0.9-5.2-0.7-10.6-0.5-16c0.8-25.6-3-50.3-12.2-74.3c-3.1-8-5.3-16.3-8.4-25.9c3.7-1.1,6.6-2.2,9.6-2.6c3.3-0.4,6.7-0.2,10-0.2
		c92.6,0,185.2,0,277.8,0c5.9,0,11.7,0.6,17.7,0.9c6.1,14.5,6.9,27-1.8,40.4c-8.3,12.7-15.2,26-26.3,37.1
		c-10.5,10.5-16.3,23.6-15.1,39.6c0.8,11.4,1.6,22.1,6.8,32.7C6971.7,4305,6978.2,4321.8,6985.3,4338.4z"/>
	<path onclick="modal(this.id);" id="3149" class="st0" d="M4338,4752.3c12.7-1,24.3-2,36.3-3c4.5,7.8,7.2,15.7,8.7,25.3c-10.9,6.2-23.1,8.7-35.2,10
		c-10.7,1.2-19-11.7-15.2-22C4333.6,4759.5,4335.6,4756.8,4338,4752.3z"/>
	<path onclick="modal(this.id);" id="3150" class="st0" d="M4410.5,4755.1c7.1-1.1,12.9-2.5,18.7-2.8c5.3-0.2,8.7,2.5,6.7,9.8c-13.3,3.5-27,7.1-41.3,10.8
		c-5.7-6.5-7.7-14.1-10-21.5c-1.3-4.3,0-8.5,4.1-9.8c3.4-1.1,8.4-1.4,11,0.5C4403.8,4745.1,4406.5,4750.1,4410.5,4755.1z"/>
	<path onclick="modal(this.id);" id="3153" class="st0" d="M4476.4,4779.1c-1.3,7.7-2.4,14.1-3.7,21.5c-2.6,0-6.1,1-7.2-0.2c-10.6-11.3-23.1-13.5-37.4-9.4
		c-0.7,0.2-1.9-1.4-2.9-2.1c9.3-7.9,20.9-13.7,29.8-15.2C4462.5,4772.4,4469.2,4774,4476.4,4779.1z"/>
	<path onclick="modal(this.id);" id="3156" class="st0" d="M4449.6,4801.6c6.3,10-2.8,15.4-1.4,22.3c-6.2,3-11.9,5.8-18.7,9.2c-4.5-5.8-8.9-11.3-13.3-16.9
		C4424.3,4802.1,4437.9,4805,4449.6,4801.6z"/>
	<path onclick="modal(this.id);" id="3155" class="st0" d="M4401.7,4811.3c-6.2,3.3-12.4,6.6-19.5,10.4c-5.4-3.6-10.8-7.1-17.1-11.3
		c6.6-8.5,14.5-10.7,23.9-9.9C4395.5,4801,4395.9,4801.3,4401.7,4811.3z"/>
	<path onclick="modal(this.id);" id="3152" class="st0" d="M4385.5,4791.9c-9.3,3-16.1,5.4-23,7c-1.6,0.4-3.8-2.2-6.3-3.7
		C4370.1,4786.5,4375.7,4785.6,4385.5,4791.9z"/>
	<path onclick="modal(this.id);" id="3154" class="st0" d="M4418.7,4799.5c-2.9,1.4-6.1,4.2-7.8,3.5c-3.9-1.6-7.9-4.5-5.3-11.1
		C4411.1,4791.4,4414.5,4794.9,4418.7,4799.5z"/>
	<path onclick="modal(this.id);" id="3151" class="st0" d="M4395.7,4781.8c5.4-1.6,10.8-3.3,17.4-5.3c-0.8,5.7-4.5,5.7-6.7,6.6c-2.8,1.2-6.1,1.3-9.2,1.9
		C4396.7,4783.9,4396.2,4782.8,4395.7,4781.8z"/>
	
	<path onclick="modal(this.id);" id="3164" class="st0" d="M6332.2,4330.6c4.7,3.3,9.1,6.1,13.2,9.3c5.2,4,8.1,9.5,5.7,15.8c-4.2,11.1-0.8,19.3,7.8,26.4
		c3,2.5,5.3,5.8,8.3,8.3c10.4,8.6,11.3,13.7,3.9,25c-1,1.6-2.8,2.7-4.3,4.1c-11.9-2.3-20.8-8.7-27.7-18.2c-3.1-4.3-5.7-8.1-5.3-14.3
		c0.4-5.5-2.7-11.4-4.7-16.9c-1.8-4.9-4.2-9.7-5.8-13.3C6326.5,4347.5,6329.1,4339.6,6332.2,4330.6z"/>
	<path onclick="modal(this.id);" id="3163" class="st0" d="M6320.2,4326.5c0,3.9,1.6,9.2-0.3,11.4c-7.4,8.4-5,18.5-6.5,27.9c-0.4,2.6-0.4,5.4-1.6,7.6
		c-1.6,3.2-4.9,4.9-8.3,3c-2-1.1-3.6-3.5-4.4-5.6c-0.6-1.6,0.3-3.9,0.8-5.8c0.9-3.2,1.9-6.3,3-9.5c0.8-2.5,1.5-5.1,2.7-7.4
		c3.8-7.4,7.8-14.7,11.7-22.1C6318.3,4326.1,6319.2,4326.3,6320.2,4326.5z"/>
	<path onclick="modal(this.id);" id="3165" class="st0" d="M6318.7,4369.8c6.7,0.4,6.6,5,7.2,8.6c0.5,2.7-0.5,5.1-3.5,6c-2.8,0.8-5.8-2.2-5.5-6.1
		C6317,4375.3,6318,4372.5,6318.7,4369.8z"/>
	<path onclick="modal(this.id);" id="3158" class="st0" d="M6637.3,3456.4c0-3.3-0.3-4.7,0-5.9c3.1-10,7.5-19.6,7.2-30.6c-0.2-7.2,6.5-11.8,13.8-10.8
		c8.5,1.1,16.8,3,26.3,4.8c0.9,9.3-2.1,17.6-6.5,24.3c-6.2,9.6-10.6,19.7-14.4,30.3c-1,2.9-3.4,5.4-5.1,8.1c-8.3-2-3.6-9.3-7.2-13.6
		C6647.5,3461.1,6642.8,3458.9,6637.3,3456.4z"/>
	<path onclick="modal(this.id);" id="3157" class="st0" d="M6620,3428.7c5.1,2,8.7,3.4,13.1,5.2c-2,12-4.1,23.3-9.8,33.3c-8.6,3.1-14.8-1.3-23-4.3
		C6611.9,3454.7,6613.6,3441.8,6620,3428.7z"/>
	<path onclick="modal(this.id);" id="3161" class="st0" d="M6636.5,3493.3c-2.2,9.5-3.7,16.6-5.5,23.6c-0.6,2.5-1.5,5.2-2.9,7.3c-1.9,2.9-4.9,4.4-8.6,3
		c-3.4-1.3-5.6-3.8-4.6-7.6c1.9-7,3.9-14,6.3-20.8c0.8-2.3,2.3-5.5,4.2-6.1C6628.3,3491.8,6631.7,3492.9,6636.5,3493.3z"/>
	<path onclick="modal(this.id);" id="3160" class="st0" d="M6599,3489.6c2.2-5.8,4-10.5,6.2-16.2c4.6,1.8,8.1,3.1,11.3,4.4c1.9,7.7-0.1,13.6-4.7,20.3
		C6608.1,3495.6,6604.5,3493.2,6599,3489.6z"/>
	<path onclick="modal(this.id);" id="3159" class="st0" d="M6628.1,3478.6c1.6-3.5,3-7.2,4.9-10.5c2-3.2,8-2.5,9.8,0.8c2,3.8,0.8,9.5-4,13.7
		C6635.3,3485.7,6631.7,3484.5,6628.1,3478.6z"/>
</g>
</svg>
