<?xml version="1.0" encoding="utf-8"?>
<!-- Generator: Adobe Illustrator 19.0.0, SVG Export Plug-In . SVG Version: 6.00 Build 0)  -->
<svg version="1.1" id="Layer1" xmlns="http://www.w3.org/2000/svg" xmlns:xlink="http://www.w3.org/1999/xlink" x="0px" y="0px"
	 viewBox="0 0 16000 10000" style="enable-background:new 0 0 16000 10000;overflow: hidden; display: inline; width: inherit; min-width: inherit; max-width: inherit; height: inherit; min-height: inherit; max-height: inherit;" xml:space="preserve">
<style type="text/css">
	.st0{fill:#8FD4EB;stroke:#000000;stroke-width:3;}
</style>
<g>
	
	<path onclick="modal(this.id);" id="3209" class="st0" d="M10781.7,4014.4c-8,11.6-15.4,22.5-23,33.4c-5,7.1-13.6,7.8-20.6,1.4c-4.9-4.5-9.4-9.4-14.1-14
		c-17.9-17.3-26.4-17.9-44.4-2.6c-17.3,14.7-34.3,29.6-51.4,44.5c-82.7,71.5-165.4,143-248,214.5c-6.9,6-13.4,12.5-22.5,16.7
		c-14.8-14.6-29.3-27.9-48.5-35.1c-7-2.6-12.3-9.9-18.5-14.9c-7.2-5.8-14.2-12.2-22-17c-7.1-4.4-15.4-4.2-22.8,0.1
		c-6.9,4-13.6,8.4-17.9,15.5c-3.5,5.7-6.9,11.3-10.5,16.9c-1.9,3-8.5,3-10.3,0c-4.1-6.8-8.2-13.6-12-20.5c-3.9-7-7.1-14.4-11.5-21
		c-2.9-4.3-7.1-7.8-11.2-11.1c-7.6-6.1-20.5-2.2-22.4,7.2c-1.8,9.2-3.5,17.8-10.5,25.1c-33.2,34.6-66.1,69.5-98.9,104.6
		c-7.1,7.6-15.2,10.5-25.1,7.7c-17.9-5.1-35.7-10.4-53.6-15.5c-10.8-3.1-18.4-9.7-24.1-19.5c-10-17.2-20.7-34-30.3-49.8
		c-9.4-3.1-17-5.4-24.4-8c-15.9-5.5-15.8-5.6-27.4,10.9c-9.1-0.1-17.9-4.8-27.5-1c-4.8,1.9-10.5,1.4-15.7,1.9
		c-16.7,1.4-31.3-2.1-43.9-14.4c-11.1-10.8-23.2-5.3-26.8,8.6c-1.7,6.4-2.9,13-5.3,19.2c-6.5,16.7-21.6,22.7-39.1,16
		c-1.2-0.5-2.4-1.1-3.6-1.8c-17.3-9.9-34.8-10.8-53.8-4c-9.7,3.5-20.4,5.8-31,4.5c-11.2-7.3-12.1-20.4-18.2-30.5
		c-3.8-6.3-9.2-9.4-16.5-8.9c-34.4,2.4-34.4,2.5-71-7.4c-1.3-3.2-3.5-6.7-4.2-10.4c-3.7-17.5-13.8-28.2-31.6-31.5
		c-5.2-1-10.4-2.5-15.5-3.9c-11-3.2-18.8-9.8-22.3-20.9c-1.2-3.8-2.1-7.8-3.6-11.4c-5.2-12-18.4-17.9-29.5-12.2
		c-11.8,6.1-23.1,12.7-35.8,17.1c-7.1,2.4-13.3,8.8-18.6,14.6c-9.8,11-21,10.9-32.5,5c-10.7-5.4-20.9-11.7-30.7-18.5
		c-6.9-4.7-10.3-12.3-9.9-20.8c0.3-6.6,1.8-13.2,2.5-19.8c1.6-14.5,3-29.1,4.5-44.5c9.5-9.6,19.7-19.9,29.8-30.3
		c6.8-7.1,15.7-10.2,24.7-12.4c16.6-4.1,18.5-17.4,20.2-30.8c0.8-5.7-7.1-13.6-12.6-12.8c-5.2,0.8-10.4,1.8-15.5,3.1
		c-19.6,4.8-39,8.3-58.9,0.5c-8-3.1-16,0.1-22,6c-8.5,8.4-16.5,17.3-25.5,26.8c-7.4,1-15.2,2.6-23,3.1
		c-67.8,3.9-135.6,7.9-203.5,11.2c-15.7,0.7-31.6-1.1-47.4-2.4c-3.6-0.3-7.7-2.4-10.4-5c-5.8-5.5-10.7-12.4-19.2-13.5
		c-15.7-2.1-30-10.8-46.9-7.6c-18.3,3.4-37,4.6-55.5,6.4c-1.6,0.1-3.7-2.7-5-4.5c-0.6-0.7-0.2-2.8,0.4-3.7c2.2-3.2,4.6-6.5,7.3-9.3
		c6.5-6.7,13.2-13.2,19.8-19.8c19.4-19.8,31.9-42.8,30.7-71.3c-0.5-12,3.3-20.8,14-26.3c13.2-6.8,24.2-16.3,34.5-26.9
		c3.6-3.7,8.1-6.6,11.6-9.3c12.8-0.9,20.8,7.4,30.5,11.2c13.4,5.3,22.6,2.1,29.5-11.6c3.6-7.1,7-14.4,10-21.8
		c4.2-10.4,10.9-18.1,21.1-22.9c3.6-1.7,7.1-3.6,10.7-5.3c7.6-3.6,12.8-9.2,15.8-17.1c2.8-7.5,6.2-14.7,8.8-22.3
		c3.9-11.5,10.5-21.4,17.6-31.2c3-4.1,2.4-12-1.3-14.8c-16.5-12-27.8-28.2-39.2-44.8c-11.3-16.4-24.5-31.4-36.9-47.2
		c-4.1-5.2-7.6-11-11.9-16c-8.9-10.2-19.7-17.7-33.1-21.2c-9-2.4-17.7-6-26.8-7.6c-9.8-1.8-16.6-6.9-23.6-13.6
		c-23-22.3-47.3-43.1-78.3-54c-4.3-1.5-8.4-8.7-8-12.8c0.2-2.7,0.6-5.3,1-7.9c4.4-30.3,8.4-60.7,13.4-90.9c2.8-17,5-34.3,14.4-49.5
		c0.7-1.1,1.1-2.5,1.4-3.7c6.1-24.8,17-47.5,30.7-69c5.4-8.5,5.6-17.4,1.1-26.6c-7-14.4-13.9-28.9-12.3-45.7
		c0.4-3.8-0.3-8.4-2.2-11.6c-11-19.1-9.6-41.2-16.5-62.9c2.2-3.7,4-9,7.6-12.5c15-14.6,20.1-34.2,27.4-52.7
		c4.5-11.3,3.5-23.7,0.7-35.5c-0.9-3.7-3-7.4-5.6-10.2c-3.6-3.9-7.9-7.2-12.3-10.2c-28.8-19.3-57.8-38.2-90-51.5
		c-29.5-12.2-59.3-24-88.3-37.5c-16.6-7.8-30.1-9-42.4,6.6c-7.3,9.3-16,12.5-28,6.6c-14.7-7.3-31.2-5.3-47-4.8
		c-5.2,0.2-10.3,2.9-12.6,8.4c-3.1,7.3-6.2,14.5-9.3,21.8c-26.3,9.2-52,11.7-78.9-3c-1.4-1.4-4.4-4.1-6.8-7.3
		c-16.5-21.9-40.8-28.5-65.7-33.7c-4.9-1-10.9-0.3-15.6,1.6c-10.3,4.3-20.4,5-31.2,3.3c-15.1-2.4-28.9,1-41.6,10
		c-16.4,11.6-34.7,19.6-53.5,26.6c-57.3,21.7-114.6,43.4-171.8,65.3c-12.6,4.8-25,8.5-38.8,4.5c-7.9-2.3-15.9-0.2-22.8,4.6
		c-17.4,12.2-35,24.2-52,36.9c-10.9,8.1-18.9,18.3-20.9,32.7c-1.7,12.2-8.7,22.2-18.3,30.1c-12.3,10.3-23.2,21.9-28.9,34.8
		c-9.1,6.4-17.2,5.1-25.1,4.8c-58.5-2.7-117.1-5.5-175.6-8.3c-20-0.9-39.9-1.5-59.8-3.1c-3-0.2-7.2-4.2-8.1-7.3
		c-1-3.3,0.4-8,2.3-11.2c1.9-3.3,5.4-5.8,8.6-8.1c5.4-3.9,11.2-7.2,16.5-11.2c5.9-4.4,3.2-17.3-4.5-19.7c-6.2-1.9-13-3.3-19.4-2.8
		c-12.4,0.9-23.3-0.7-34-8.3c-9.6-6.9-21.1-11.1-31.4-17.2c-9-5.4-18-11-26-17.8c-7.1-5.9-12.2-14.1-19.1-20.3
		c-19.7-17.8-19.9-21.8-41.6,0.2c-8.4,8.5-15.2,18.5-22.6,27.9c-4.9,6.3-9.3,13-14.4,19.1c-11.5,14.1-25.5,23.2-44.5,23
		c-5.2-0.1-10.5,1.4-15.7,2.2c-4.5,0.7-8.1,9.2-5.4,12.8c3.1,4.3,6.1,8.7,9.7,12.5c13.9,14.3,28.1,28.4,42.2,42.6
		c3.8,3.9,6.6,8.1,5.9,13.9c-0.8,1-1.4,2.5-2.5,3.1c-27,14.3-44.4,37.3-58.1,63.8c-6.7,12.9-14.2,25.4-21.9,38.9
		c7.3,8.3,13.6,16.6,21,23.6c5.7,5.4,12.8,9.5,19.5,13.9c17.9,11.6,35.9,23.1,53.9,34.5c8,5.1,15.4,10.9,20,19.1
		c1.7,2.9,1.6,7.4,0.9,10.9c-0.3,1.4-4.5,2.5-7,2.7c-12.7,1.2-23.5-2.2-32-12.4c-5.1-6-11.1-11.2-16-16.1
		c-45.7,0.1-88.9-8.2-132.1-16c-8.5-1.5-14.7-5.6-16.5-14.9c-1.1-5.7-4.8-9.8-10.6-10.2c-12.9-0.9-18.6-8.5-21-20.2
		c-2.1-10.4-5.4-20.7-7.2-31.1c-2.1-11.8-7.1-20-20.1-20.8c-13.9-0.8-25.5-7.2-36.4-15.2c-7.5-5.5-14.6-11.6-22-17.3
		c-10.6-8.4-22.1-14.7-35.4-17.8c-13-3-25.7-6.8-37.7-13c-5.9-3-12.4-5.9-18.8-6.4c-16.3-1.3-31.1-6.7-45.9-13
		c-8.9-3.8-18-4.5-27.3-1.7c-10.1,3.2-20.3,6.3-30.3,9.8c-12.9,4.6-26,6.6-39.1,1.9c-16-5.7-32.7-4.8-47,1.2
		c-19.7,8.2-42.3,7.5-60,20.8c-0.9,0.7-2.5,0.6-3.8,0.6c-1.3,0-2.7,0.1-3.9-0.4c-2.4-1-4.8-2.3-7.1-3.6
		c-16.2-9.1-33.7-16.6-48.3-27.8c-14.6-11.2-25.7-26.9-39.6-39.2c-22.6-19.9-49.7-31.6-79.7-32.2c-27.3-0.6-48.6-10.4-66.8-30.1
		c-16.2-17.5-32-35.7-53.9-47.2c-5.6-3-9.5-9.1-14.5-13.4c-11.1-9.7-14.9-22.1-12.5-36.1c4.5-26-2.6-50.2-10.2-74.3
		c-2.8-8.9-5.5-17.9-9.2-26.4c-7-16.2-5.2-32.9,3.7-46.1c13.8-20.6,16.4-41.2,11.5-64.5c-1.8-8.8-0.2-18.6,1.1-27.7
		c3.4-25.1,6.2-50.3,11.4-75.1c6.5-30.9,5.5-60.8-4.7-90.6c-0.9-2.5-1.3-5.2-1.2-4.8c3-26.6,5.7-50.4,8.5-74.2
		c0.8-6.9,4.1-12.7,10-16.6c18-11.6,33.7-25.9,48.4-41.4c10.6-11.1,18-23,17.1-38.9c-0.2-2.7,0.2-5.3,0.1-8
		c-0.3-10.1,4.2-17.9,10.9-24.9c4.6-4.8,9.4-9.4,13.8-14.4c8.1-9.3,13.4-20,14.2-32.4c1.9-26.4,10-52.2,6.3-79.3
		c-2-14.4,2-28.9,11.4-41.4c8.8-11.7,8-24.9,2.6-38c-2-4.9-4.6-9.9-5.2-15c-0.4-3.4,1.2-8.8,3.8-10.5c14.3-9.7,29.1-18.6,43.9-27.5
		c4.5-2.7,9.8-4.2,14.4-6.8c39-22.2,39.7-17.5,36-64.8c-1.9-25.2-2.4-50.6-3.8-75.9c-0.6-9.6-9.7-17.5-18.9-16.9
		c-5.3,0.3-10.6,0.9-15.8,1.9c-25.2,4.7-50.5,1.2-75.7,1.3c-3.2,0-8.4-3.5-9.2-6.3c-6.8-25.6-21.2-49-22.5-76.3
		c-0.2-5.2-2.2-10.4-3.7-15.5c-3.5-11.8-4.1-23.7-0.1-35.4c5.4-15.9,3.8-31.2-1.6-46.9c-4.4-12.5-6.6-25.8-9.8-38.7
		c-2.6-10.7-1.7-20.6,3.6-30.8c11.6-22.4,25.7-43.6,35.3-67.1c4.2-10.2,12.2-17.7,22.6-21.6c23.8-9,39.9-26,51.7-47.7
		c11.4-20.8,28-34.9,50.1-43.6c12.3-4.8,23.6-12.4,35.8-17.6c8.5-3.6,17.8-6.9,26.8-7.1c26.6-0.6,53.3-3.3,79.5,4.2
		c3.8,1.1,7.9,1.5,11.8,1.9c6.8,0.8,13.2-0.5,18.9-4.6c18.4-13.2,36.9-26.4,55.1-39.7c31.2-22.8,62.3-45.8,98.7-60.3
		c3.6-1.5,6.9-4,10.1-6.4c5.5-4.1,9.5-9.5,9.6-16.7c0.3-26.7,0.9-53.3,0.2-80c-0.4-14.8,0.3-29.2,4.4-43.5
		c7.9-27,12.3-54.5,14.8-82.5c1.5-15.9,4.5-31.7,6.8-47.5c1.8-12.4-0.1-23.5-8.4-33.7c-14.2-17.6-27.5-35.9-40.1-52.4
		c-25.9-9.3-52-8.2-76.7-17.6c0.6-6,0.8-11.2,1.8-16.3c2.4-13.3,2.3-26.5,0-39.8c-4.7-26.4-5.5-53-5.3-79.7
		c0.3-53.3-2.2-106.5-6.1-159.7c-1-13.2-3.7-26.3-5.7-39.5c-0.8-5.3-2-10.5-2.4-15.8c-1.1-14.9,0.1-28.8,11.6-40.7
		c6.4-6.5,10.3-15.5,16.3-25c5.1-0.8,11.5-2.8,17.9-2.8c69.3,0.6,138.6,1.5,207.9,2.3c2.7,0,5.3,0.3,8,0.3
		c65.3,1.1,130.5,2.2,195.8,3.2c98.6,1.6,197.2,3.2,295.8,4.7c66.6,1.1,133.2,2.1,199.8,3.2c60,1,119.9,2.1,179.9,3.3
		c6.6,0.1,13.1,0.9,17.4,1.3c10.2,7.9,9.1,18.4,13.7,26.3c8.5,14.4,11.3,29.7,5.1,46c-1.4,3.7-2.1,8-1.7,11.8
		c2.7,25.9-2.9,50.2-13.9,73.4c-0.6,1.2-0.8,2.5-1.2,3.8c-9.7,33-10.4,33.5,2.8,65.4c13.8,33.4,21.6,68.6,31.4,103.2
		c2.9,10.1,2.4,21.1,3.5,31.6c0.7,6.1,7.1,12.1,13.9,12.1c17.3,0,34.7,0.6,51.9-1c18.9-1.8,37.4-0.6,55.5,3.8
		c15.6,3.8,31.4,6.2,47.3,7.2c18.9,1.2,36.2,6.7,52.7,16.6c12.4,7.5,26.4,12.2,40.3,18.5c1.9,4.7-0.7,9.2-4,13.4
		c-19.1,24-38.2,48-57.3,72c-6.6,8.3-13.7,16.4-19.5,25.3c-2.8,4.2-3.6,9.8-4.5,14.9c-0.9,5.2,3.3,11.7,7.8,12.5
		c7.9,1.3,15.7,2.6,23.7,3.1c39.9,2.6,79.7,4.8,119.6,7.3c5.5,0.3,8.9,7,6,11.5c-2.2,3.3-4.2,6.8-6.6,9.9
		c-23.8,30.5-47.9,60.7-71.5,91.3c-10,13-21.1,23.9-37.6,28c-5,1.2-9.7,4.2-14.4,6.7c-3,1.5-6.8,11.1-5.7,14.3
		c1.7,5,3.1,10.3,5.8,14.8c6,10.4,13.6,19.9,18.9,30.6c8.1,16.4,20.2,27.8,36.6,35.2c10.9,4.9,21.4,11.3,32.7,14.8
		c54.8,17.1,107.5,39.6,160.9,60.2c96.9,37.4,193.8,75.1,290.7,112.6c6.2,2.4,12.5,4.7,18.7,7.1c19.3,7.5,37.8,3.3,49.9-13.7
		c8.1-11.4,16.5-20.1,29.3-25.5c5.9-2.5,11.6-7.1,15.4-12.3c14.5-19.2,28.1-39,31.9-63.6c0.6-3.9,1.6-7.8,2.3-11.8
		c2.3-12.4,7.8-22.4,19.3-28.7c9.3-5,11.9-13.8,11.6-23.8c-0.1-4-0.5-8-0.5-12c0.1-4,0.6-7.9,1-13.1c3.7-4.4,7.4-10.1,12.2-14.5
		c15.7-14.3,20.6-33.8,26.2-53c1.6-5.5-2.1-14.7-7.1-17.5c-9.3-5.3-18.6-10.3-28.1-15.1c-14.3-7.1-28.7-14.1-43.2-20.9
		c-22.1-10.3-21.7-17.9-8-36.8c21.9-30.1,45.6-59,68-88.8c14-18.6,32.1-27.2,55.2-26.4c8,0.3,16-0.2,24,0
		c19.3,0.4,36.9-3.8,51.7-17.3c2.8-2.5,7.1-3.3,11.2-5.1c6.5,4.9,12.6,10,19.3,14.3c4.4,2.8,9.3,5,14.3,6.3
		c16.6,4.3,33.4,8.1,50.2,12.1c8.3,2,14.2,7.1,18.4,14.2c2.7,4.6,4.6,9.6,7,14.3c2.4,4.7,4.9,9.4,7.7,13.9c5.4,8.4,17,10.4,24.2,4.2
		c5-4.3,10.7-8.4,14.3-13.8c13.6-20.2,33.1-30.6,56.1-34.7c15.1-2.7,27.7-9.1,38.3-21.4c5.3-27.1,0.5-55.1-0.2-82.9
		c-0.7-26.5-3.6-53-2.6-79.6c3-0.4,6.5-1.9,7.8-0.9c5.1,4.1,9.9,8.7,14,13.8c9.4,11.7,21.7,19.5,34.8,26.3
		c12.3,6.3,24.9,0.6,27.4-13.1c4.3-23.5,8-47.2,12.3-72.4c3.8-1.8,8.2-4.7,13.1-6.2c14.4-4.3,27-11,35.8-23.8
		c4.6-6.7,11.2-11.1,19.5-12.9c5.1-1.1,10.8-2.5,14.7-5.7c10.2-8.3,21.8-9.3,34-8.9c14.2,0.5,25.4-5,35.5-15
		c8.5-8.3,19.2-14.3,28.2-22.1c10.8-9.4,22-13.7,36.5-9.2c11,3.4,21.5-1.1,29.3-8.9c10.2-10.4,20.2-21.4,28.4-33.3
		c6.9-10,9.9-22.3,3.4-34.1c-13.7-25-12.3-52-7.4-78c3.6-18.9,5.1-36.6-0.3-55c-1.1-3.6-0.2-7.8-0.2-11.2c2.1-6.4,7.6-7.7,12.3-9.8
		c9.7-4.4,19.9-7.9,29.1-13.2c23-13.2,30.1-45.2,13.1-65.7c-9.1-11-13.6-22.1-15.5-35.6c-0.9-6.3-4.3-12.3-6.3-18.5
		c-0.2-0.7,1.3-2.3,2.3-3.1c0.9-0.7,2.3-1.4,3.4-1.4c31.7,2.6,60.3-8.4,88.6-20.3c6.1-2.6,11.9-5.8,18.1-8.2
		c6.9-2.7,16.8,0.4,21.1,7c5.1,7.8,11.5,14.5,17.4,21.6c11.8,14.4,24.1,28,38,40.5c11.8,10.6,22.8,22.2,29.9,37
		c3.4,7,9.3,12.7,13.8,18.6c-1.3,8.6-3.3,16.4-3.6,24.3c-0.3,7.9,0.5,16,1.6,23.9c2.5,18.2-2.8,33.7-13.2,48.7
		c-10.7,15.4-23.2,29.1-35.5,43.1c-11.5,13-23.1,25.8-33.8,39.4c-11.6,14.7-23.2,29.1-38.7,40.2c-6.3,4.5-11.4,11.1-16.2,17.3
		c-4.6,5.8-3.9,17,1,22.5c4.4,4.9,8.9,10.2,14.4,13.6c10.1,6.3,20.9,11.8,31.7,16.9c7.6,3.6,16.6,3.8,22.6-2.1
		c10.2-10,25-9.4,35.5-17.3c11.4-8.6,25-8.4,37.6-12.2c10.2-3,20.4-6.3,30.6-9.3c24.7-7.3,47.4-4,67.6,12.5
		c5.2,4.2,10.5,8.3,15.3,12.9c11.8,11.1,25.2,14.6,40.5,8.7c8.4-3.3,15.9-0.9,22.7,3.5c20.3,12.8,40.6,25.5,60.4,39.1
		c34,23.5,67.4,47.8,103.7,67.6c8.2,4.5,16.4,9,24.8,12.8c13.4,6.1,25.8,13.8,37.6,22.6c24.7,18.6,52.1,31.9,81.9,40.4
		c16.6,4.7,33.2,9.9,46.5,21.9c8.7,7.9,18.6,9.5,29.7,5.4c3.6-1.4,7.7-1.3,12.3-2c1.3,3.9,3.7,7.5,3.6,11
		c-0.5,17.8,9.1,30.1,21.5,40.9c5,4.4,10.2,8.8,15.9,12.1c21.5,12.3,37,30.5,49.6,51.1c9.2,15.2,21,27.3,36.1,36.6
		c10.3,6.4,18.8,14.5,25.2,25.2c5.1,8.5,14,11.7,24,11.8c26.8,0.2,53.1-1.4,78.7-10.8c20-7.3,40.8-12.3,61.2-18.4
		c10.2-3,20.6-5.6,30.6-9.1c23.9-8.4,48.3-14.8,73.3-19.5c15.7-3,31-7.8,46.5-11.3c8-1.8,15.8-0.2,22.9,4.3
		c12.7,7.9,22.3,18.8,31.6,30.2c4.9,6.1,10.2,12.3,16.4,17.1c6.3,4.8,16.7,2.4,20.5-5.2c5.6-11.1,7.1-23,7.1-35
		c0.1-17.3,0.9-33.8,7-50.8c8-22.5,3.6-44.8-12.6-63.6c-29-33.7-44.7-75.6-69.2-112.1c-2.2-3.2-4.1-7.3-4.2-11.1
		c-0.9-24.6-12.1-46.2-18.8-69.2c-1.9-6.4-4.1-12.7-5.3-19.2c-1.3-6.5-1.2-13.1,3-19.7c3.5,0.9,8,0.9,10.8,3.1
		c31.8,24.2,65.7,45.8,94.1,74.2c9.9,9.9,21.1,15.7,35.3,16.3c6.6,0.3,13.3,1.4,19.8,2.9c19.9,4.5,39.6,3.6,59.5,0.3
		c13.1-2.1,26.4-3.2,39.7-3.3c28.2-0.3,55.6,3.6,81.4,16.4c24.1,12,50.5,16.9,76.6,21.8c23.7,4.4,47.7,5,71.3-2.2
		c5.1-1.6,10.3-2.6,15.6-3.5c5.5-0.9,10.6,0.8,14.8,4.5c23.8,20.6,39.4,46.8,49.9,76c2.6,7.1,2.2,15.8,1.4,23.6
		c-1.2,11.9-3.9,23.6-6.2,35.4c-2.3,11.9-3.3,23.8,0.4,35.6c3.4,10.9,1.2,21-4.2,30.7c-4.5,8.1-9.2,16.2-13.1,24.7
		c-5.4,11.7-0.9,24.9,10,31.1c3.5,2,7.1,3.7,10.7,5.5c8.3,4.2,16.7,8.4,25,12.6c56,28,112,56.1,168,84.1c8.3,4.2,16.7,8.4,25,12.5
		c8.8,4.3,14.8,10.8,18.3,20.1c11,28.6,22.3,57.1,33.6,85.6c4.4,11.2,9.4,22.1,13.3,33.4c3.7,10.8,10.8,18,20.6,23.2
		c28.3,14.9,56.4,30.1,84.7,45.1c31.8,16.9,63.6,33.7,95.4,50.4c7,3.7,14.3,7.2,21.8,9.6c3.3,1,9.3,0.3,11.1-2
		c11.6-14.9,28.5-23.9,41-37.6c1.8-2,4.3-3.8,5-6.1c9.4-28.6,37.8-40,55.6-61c0.7-0.8,5.7,0.2,6.3,1.5c2.1,4.8,3,10.1,4.5,15.2
		c11.5,38.6,31.6,73.3,51,108.2c5.1,9.2,12.6,17.2,19.8,25c10.1,10.9,23.3,12.4,36.8,8.9c4.7-1.2,8.6-5.8,12.9-8.9
		c6.2-4.6,10-5.5,13.9-1.3c15.6,16.9,35.3,22.9,57.5,23.2c5.3,0.1,10.7,0,16,0.8c7.2,1,12.2,5.3,14.5,12.1c2.6,7.6,5,15.2,6.7,23
		c2.9,13.3,9.8,21.6,24.3,21.5c8.2-0.1,15.8,1.8,22.1,7.6c12,10.8,26.4,12,41.3,9.4c7.8-1.4,15.4-4.2,23.1-6.1
		c10.5-2.6,21-3.2,31.6-0.6c3.3,0.8,6.5,5.7,5.4,9.1c-7.8,25.6-18.2,50.1-30.5,73.7c-24,46.1-48.2,92.1-72.3,138.1
		c-14.9,28.3-29.8,56.5-44.6,84.9c-11.1,21.3-22.1,42.4-37.3,61.3c-7.4,9.2-12.5,20.4-18.3,30.9c-105.3,186.9-210,374.2-316,560.7
		c-51.4,90.4-105.1,179.3-157.9,268.9c-42.6,72.3-86.2,144.1-127.9,217c-35.1,61.3-68.1,123.7-101.9,185.7
		c-65.6,120.5-131,241.2-196.8,361.7c-15.3,28.1-29.2,56.9-41.3,86.5c-39.5,96.1-79.3,192.1-119,288.2c-3.6,8.6-7.4,17.1-11.1,25.7
		c-2.4,5.5-7.4,7.9-12.6,8.6c-33.1,4.5-66.4,4.4-99.7,5.4c-55.9,1.6-111.9,1.5-167.7,5.8c-5.2,0.4-10.5-1.5-13.9-6.4
		c-0.8-1.1-1.8-2.1-2.3-3.3c-5.6-13.6-16.9-19.2-30-23.6c-42.9-14.4-85.7-29.4-128.5-44c-32.8-11.2-65.6-22.3-98.4-33.2
		c-15.6-5.2-29.8-11.6-36.2-28.5c-1.4-3.6-4-6.9-6.5-10c-3.5-4.3-8.1-6.5-13.9-6.3C10810.6,4008.4,10796.5,4012.7,10781.7,4014.4z"
		/>
	<path onclick="modal(this.id);" id="3208" class="st0" d="M8792.5,7980.8c-1.2-6.5-2.6-11.7-2.9-16.9c-0.9-17.1-8.2-30.6-21.7-40.9
		c-3.2-2.4-7.3-4.8-8.6-8.1c-7.2-18.1-22.5-29.4-35-43.1c-6.6-7.3-10.1-15.6-10.1-25.3c0-9.3,0.3-18.6,0.2-28
		c-0.1-8.4-8.4-15.3-16.1-13.4c-16,3.8-30.3,10.4-39.4,24.9c-11.4,18-22.7,36-33.6,54.3c-2.6,4.4-4.8,10.1-4.5,15
		c1,14.8-6.4,24.8-15.4,35.3c-13,15.2-25.1,31.1-36.6,47.5c-9.7,13.8-20.7,23.7-38.6,24.8c-7.6,0.5-13.4,9.5-13.5,17.6
		c-0.1,5.3-0.3,10.8,0.8,15.9c3.8,17,8.8,33.5,19.6,47.7c3.2,4.2,6.5,8.6,8.1,13.5c1.1,3.3,0.1,8-1.6,11.2c-1.7,3.4-4.9,6.4-8.2,8.5
		c-11.2,7.2-22.2,14.9-34.1,20.7c-20.3,9.9-41.2,18.5-62,27.5c-11.2,4.8-21.7,10.4-27.2,22.2c-3.5,7.6-10.2,12-17.1,16.2
		c-37.8,22.8-78,40.4-119.9,54.1c-7.6,2.5-15.3,4.8-22.7,7.6c-20.1,7.7-38.7,17.6-52.3,35.2c-6.9,8.9-16.1,12.2-27.8,13
		c-52,3.7-103.8,2.9-155.8,0c-20.3-1.1-39-7.1-57.3-12.9c-10.1-24.4-19.7-47.7-29.5-71.6c1.4-3.1,2.4-7.2,4.8-10.2
		c7.3-8.8,9.6-19,8.7-29.9c-1.1-14.6-4.5-29-1.2-43.8c0.8-3.7,0.1-8.2-1.5-11.7c-7.5-16.7-8.2-33.2-0.1-49.9
		c-0.7-17.3-1.3-34.5-2.1-51.8c-0.1-2.5-1.3-5.2-2.6-7.4c-11.2-18.9-11.9-40.8-17.4-61.3c-2.2-8.1-0.7-15.6,5.3-22.2
		c13.3-14.7,21.3-33.8,39-45c5.6-3.6,8.4-10.3,8.5-17.4c0.7-30.6-0.4-60.8-10.9-90.5c-9.3-26.2-14.8-53.8-23-80.4
		c-3.8-12.2-3.1-23.5,1.3-35c1.9-5,2.9-10.4,5.3-15c7.9-15.5,5.9-31.1,0.5-46.6c-2.6-7.5-5.8-15-9.8-21.8
		c-6.8-11.7-9.9-24.6-13.3-37.5c-1.7-6.6-2.5-12.9-0.6-19.5c4.4-15,0.6-29-6-42.4c-1.8-3.6-3.2-7.4-5.5-10.6
		c-12.6-17.8-18.9-37.8-22.1-59.1c-1-6.4-3.6-12.8-6.6-18.7c-15.3-29.4-31-58.7-46.4-88c-3.1-5.9-5.5-12.1-8.5-18
		c-4.3-8.6-5.9-17.6-5.1-27.1c0.8-10.6,1.5-21.3,1.9-31.9c0.7-16.5-1.9-20.6-16.9-27.2c-1.2-0.5-2.5-0.9-3.7-1.4
		c-19.8-8.5-23-11.6-18.9-37.3c0.6-3.9,1.5-8,3.1-11.6c8-17.8,8.1-35.9,3.3-54.5c-4.7-18.2,1.1-34.2,12.2-48.6
		c4.1-5.3,8.8-10,13.2-15c4.6-5.2,6.9-11.2,7.7-18c1.5-11.9,3.3-23.7,4.6-35.7c0.8-7.9,3.3-16.7,1-23.7c-9.7-29.9,3.4-61.2-6.9-90.9
		c-3.1-9.1-6.6-17.3-14-23.6c-4.1-3.5-8.1-7-11.9-10.7c-12.9-12.3-27.3-20.5-46-21.2c-10.9-0.4-17.3-7.9-17.6-18.2
		c-0.6-20.1-2.6-39.9-9.1-59c-3.6-10.6-2-21.2,1.4-31.4c2.9-8.8,7.2-17.2,11.3-25.6c4.3-8.8,11.4-14.6,20.9-17.2
		c5.1-1.4,10.6-2.1,15.1-4.6c3-1.7,5.8-5.7,6.6-9.2c1.2-5,1.2-10.6,0.6-15.8c-3-25.2-1.2-50.3-0.7-75.5c0.2-10.1,4.2-18.3,12.6-23.7
		c7.7-5,16.1-9.1,24.6-13.9c7,5.2,13.8,9.4,19.6,14.8c16,15,35.3,17.3,55.8,16c5.6-0.3,10.4-2.9,13.4-7.6
		c6.5-10.1,12.5-20.4,18.7-30.7c3.6-5.9,8.8-10.2,15.4-12c14.1-3.9,28.2-8.3,42.6-10.7c17-2.8,34-5.7,51-8.8
		c18.5-3.4,30.7,14.6,47.6,18.3c21.2,4.6,39.7,15,58,26.1c10.2,6.2,21.3,11.1,32.5,15.3c15,5.5,30.4,9.7,44.4,17.7
		c3.1,1.8,7.7,1.3,11.6,1.2c9.3-0.1,15.5-8.7,11.6-16.1c-8-15.3-15.8-30.3-18.9-47.9c-2-11.3-9.2-22-15.3-32.2
		c-9-14.8-18.7-29.1-24-45.9c-2.4-7.7-6.7-14.7-13.7-19.1c-9.7-6.2-13.6-15.8-16.9-26.2c-3.6-11.4-7.4-22.8-12.3-33.7
		c-6.3-14-16.9-22.7-32.7-26.5c-33.9-8.2-68.2-11.3-101.7-10.9c-9.9-4.9-16.5-11.5-20.8-19.9c-3.7-7.1-6.2-14.8-10-21.8
		c-3.1-5.8-6.2-13.1-11.4-16c-15.5-8.9-21.1-23.3-25.3-38.9c-1.4-5.1-1-12.1-4.2-15.2c-15.9-14.8-11.4-34.3-13.9-52.2
		c-0.3-2.5-0.9-5.6,0.2-7.6c1.8-3.3,4.5-8,7.4-8.4c7.7-1.2,15.9-1.3,23.7-0.4c32.8,3.7,63.4-3.6,93.5-15.8
		c14.9-6,23.9-16.3,27.8-31.6c1-3.9,1.6-7.8,2.7-11.7c2.1-7.9,5.5-15.1,12.4-20c10-7.2,16.8-16.8,23.1-27.2
		c17.1-28.1,40.9-48.7,70.7-62.7c9.6-4.5,19-9.7,27.8-15.6c13.4-9.1,27.4-16.3,43.6-18.9c9.8-1.5,17-7.3,22-15.8
		c6.9-11.7,16.7-20.6,27.5-28.6c7.5-5.6,14.7-11.5,21.2-18.2c11.1-11.5,21.3-23.9,38.5-26.8c3.6-0.6,6.9-3.9,10.1-6.3
		c7.7-6,13.1-13.5,12.3-23.8c-0.9-11.9-2.4-23.8-3.3-35.8c-0.3-3.8,0.2-7.9,1.5-11.4c0.7-2,4.6-5,5.7-4.5
		c23,10.2,46.6,19.3,66.4,35.4c9.4,7.7,19.7,13.8,31.5,16.8c6.6,1.7,13.3,1.7,19-2.8c6.8-5.5,10.7-17.8,7.7-25.3
		c-1.4-3.5-3.8-6.9-6.6-9.5c-3.8-3.7-8.6-6.3-12.3-10.1c-1.4-1.4-1.9-4.8-1.2-6.8c0.8-2.2,3.2-4.8,5.3-5.3c6.4-1.6,13-2.5,19.5-3.3
		c6.6-0.8,13.3-0.6,19.9-1.7c11.1-1.9,22.1-13.8,22.4-25.2c0.7-22.6,0.5-45.3,0.6-67.9c0.1-8.6-3.1-15.3-10.3-20.3
		c-5.4-3.7-11.8-6.4-14.6-13.1c-4.3-10.2-11.9-17.6-21.3-23.1c-7.2-4.2-12.1-10.3-15.6-17.7c-3.9-8.3-11.5-10.6-19.7-11.2
		c-15-1.1-29.2,1.3-42.3,9.1c-5.7,3.4-11.7,6.2-18.1,9.5c-6.4-2.5-13.1-4.1-18.6-7.6c-27.2-17-57.1-28.8-85.3-43.7
		c-13.2-7-26.3-12.8-41.5-12.8c-5.3,0-10.8-0.9-15.7-2.7c-4.8-1.7-9.1-5-13.6-7.7c-1.1-0.7-1.9-1.9-2.6-3
		c-20.2-29.7-40.7-59.2-60.5-89.2c-5.1-7.7-9.4-16.4-11.4-25.3c-4.3-18.7-2.4-36.5,9.9-53c15.2-20.3,29.9-40.9,49-57.8
		c15.2-13.5,27.1-29.3,35.7-47.7c7.4-15.8,16.9-29.7,30.3-41.5c10.9-9.5,19-22.2,28.3-33.5c3.2-3.9,0.9-11.2-4.2-13.4
		c-7.3-3-14.7-6.1-22.3-8.3c-150.5-45.1-301.1-90.2-451.7-135.2c-28.1-8.4-56.1-16.9-84.2-25.3c-7.4-2.2-10.8-8.1-11.2-14.9
		c-1.4-22.6-1.7-45,7.5-66.8c4.3-10.1,2.9-20.7-6.6-29.1c-9.4-8.2-9.7-21.7-16.7-31.4c-15-20.8-24-44.5-32-68.5
		c-3.8-11.3-7.5-22.8-9.8-34.5c-3.6-18.5-4.1-36.9,3-55.1c13.6-34.6,20.2-71.8,40.1-104c2.8-4.5,4.3-10.2,8-13.7
		c9.5-9.1,10.8-20.9,12.6-32.8c3.1-20.8-0.5-39.6-14.4-56.1c-19.8-23.6-35.2-50-48.7-77.7c-4.6-9.5-10.6-18.8-17.9-26.4
		c-20.6-21.4-27.1-48.6-31.1-76.2c-4.2-29.1-10.9-57.5-19.2-85.6c-3.8-12.7-8.7-25.1-8.9-38.8c-0.2-12.8-6.7-22.8-16.1-31
		c-5-4.4-10.7-7.9-15.8-12.3c-14.9-12.7-18.6-29.6-10.1-46.5c5.4-10.7,11.4-21.1,17.1-31.7c2.4-4.5-1.2-11.1-6.7-12
		c-7.8-1.3-15.7-3.3-23.6-3.3c-57.3-0.2-114.6-4.2-171.9-0.3c-5.3,0.4-10.7-0.1-16,0.1c-11.1,0.4-21-2-29.4-9.9
		c-4.8-4.5-10.2-8.6-15.8-12.3c-10.2-6.8-23.7-6.4-33.7,0.7c-7.6,5.4-14.9,11.2-22.5,16.5c-6.1,4.2-15.8,3.3-22.1-2
		c-1.8-1.6-4-5.9-3.4-6.7c16.3-19.7,16.5-44.4,21.3-67.6c10.5-50.9,20.6-101.9,31.5-152.7c5.3-24.7,11.1-49.4,18.4-73.7
		c4.5-15.2,2.5-28.4-3.7-42.4c-13-29.2-24.8-58.9-37.6-88.2c-5.6-12.7-7.6-25.4-4.2-38.9c0.3-1.3,0.5-2.6,0.5-4
		c1.2-25.1,11-45.8,28.8-63.9c10-10.2,20-17.3,34.5-16.5c1.3,0.1,2.7-0.2,4-0.1c14.1,0.8,25.4-5.9,35.8-13.7
		c11.3,2.1,21.6,4.2,32,6.1c8.3,1.5,16.3,0.3,22.5-5.4c6.5-5.9,13.2-8.1,21.8-6.5c5.2,0.9,10.6,0.5,15.9,0.2
		c8.2-0.5,14.4-7.4,15.2-15.7c1.1-11.2-1.2-21.4-9.7-29.2c-6.9-6.2-14.2-12.1-21.9-17.3c-18.9-12.5-38-24.7-57.2-36.7
		c-8.4-5.2-14.1-12.3-16.5-21.6c-1-3.7-1.8-8.5-0.2-11.5c9.6-17.5,19.4-34.9,30.1-51.7c3.4-5.3,9.5-9.2,14.8-13.1
		c9.7-7,19.8-13.5,29.6-20.4c5.5-3.9,6.2-12.5,1.2-17.7c-12.9-13.5-26.1-26.7-39.1-40.1c-4.6-4.7-9.9-8.8-11.1-15.9
		c3-5,7.8-7.4,13.2-7.8c17.5-1.4,29.2-12.1,39.4-24.8c5.8-7.2,10.6-15.4,16.2-22.8c5.6-7.4,11.5-14.7,17.7-21.6
		c7.6-8.6,14.3-8.4,23.8,0.1c3,2.7,7.4,4.9,8.6,8.2c6.1,16.8,23.1,20.9,35.5,29.8c15,10.7,32.3,18.4,49,26.5
		c5.8,2.8,12.8,3,20.2,4.5c-3.3,6.3-7.1,11.5-8.8,17.3c-2.3,7.6-3.1,15.7-4.2,23.6c-1.1,7.3,3.2,12.9,11,13.5
		c37.2,2.5,74.4,4.9,111.6,7c39.9,2.2,79.8,4.1,119.7,6c13.3,0.6,26.6,0.7,40,0.9c5.8,0,10.7-3.2,12.9-8c6.9-14.9,17.3-26.5,30-36.6
		c10.8-8.6,16.7-21.1,19.6-34.2c3.2-14.4,12.7-23.1,23.3-31.2c8.5-6.4,18.6-10.7,26.6-17.6c12.6-11.1,24.9-18.8,43.1-13.9
		c6.9,1.9,15.7-1.5,23.1-4.1c17.6-6.1,34.8-13.3,52.3-19.9c41.1-15.6,82.1-31.3,123.3-46.7c22.5-8.4,44.6-17.5,64.4-31.4
		c11.3-7.9,23.5-12.3,37.6-5.9c6.1,2.7,13.2,2.3,19.5-0.5c24-10.7,43.9-0.4,63.2,12.2c3.3,2.2,7,4.6,8.9,7.9
		c9.9,16.8,28,19.2,43.8,25.3c4.7,1.8,10.5,1.7,15.7,1.1c17.2-1.7,34.4-3.9,51.6-6c12.2-1.5,13.8-4.6,10.9-18.8
		c-0.5-2.5-1-5.4-0.2-7.6c0.8-2.2,3-5,5.1-5.5c10.6-2.5,21.2-0.5,31.4,2.2c3.5,0.9,6.5,4.3,9.6,6.8c3.9,3.2,6.4,9.4,12.8,7.5
		c3.6-1.1,7.3-3.3,10.1-5.9c33.6-31.1,26.2-26.7,65.2-10.5c16,6.6,31.9,13.6,48,19.8c35.1,13.4,66.7,33.3,98.3,53.2
		c3.4,2.1,6.3,4.9,9.7,7c10.2,6.6,13.9,16.7,11.7,27.7c-3.3,16.9-8.5,33.5-19.3,47.6c-7.2,9.5-14.1,19.2-21.2,28.8
		c4.1,12.3,8.7,23.4,11.3,35c2.6,11.6,2.3,23.9,8.5,34.7c1.3,2.2,2.4,5.2,2,7.6c-3.7,21.3,7.7,38.6,15.7,58
		c-2.9,5.5-5.6,11.5-8.9,17.1c-9.5,16.2-17.5,32.9-21.7,51.3c-0.3,1.3-0.3,2.8-1,3.8c-14.7,23.4-15.5,50.6-20.4,76.6
		c-4.1,22.3-7.3,44.7-10.6,67.1c-1.2,7.9-1.9,15.9-2.5,23.9c-0.8,10,2.3,15.7,10.2,19.5c1.2,0.6,2.4,1.2,3.6,1.6
		c30.7,11.3,55.8,30.7,77.5,54.6c5.6,6.2,12.4,10,20.1,12.4c10.2,3.1,20.3,6.6,30.7,8.8c13.8,2.9,24.9,9.8,32.7,21.2
		c15.7,23.2,33.6,44.7,51.3,66.3c5,6.2,8.9,13.3,13.8,19.6c4.8,6.2,10.3,11.9,15.5,17.9c-8.6,20.5-16.8,40-24.4,58.2
		c-2.2,1.8-3.1,2.8-4.2,3.5c-31.1,18.1-31.1,18.1-47.3,50.7c-6,12.2-10.6,14.1-21.6,8.9c-6-2.9-11.8-6.3-17.8-9
		c-8.2-3.7-16.2-2-22.1,4.1c-15.8,16.6-33.8,29.9-53.5,41.4c-7.4,4.4-10.9,11.6-9.1,20.5c4.9,24.5-4.5,44.8-19.8,62.4
		c-13.1,15-28,28.5-41.7,43c-3.5,3.7-5.9,8.7-8.1,13.4c-2.2,4.7,1.4,11.8,6.1,12.9c5.1,1.3,10.5,3.3,15.6,2.9
		c17.2-1.4,34.7-2.3,51.5-6c15.1-3.3,28.4,0.6,42.8,3.2c13.5,2.5,20.9,10.7,30.7,20.2c5.1,0.5,11.6,1.4,18.1,1.6
		c10.6,0.4,21.2-0.1,31.2,5.1c3,1.6,8,1,11.4-0.3c10.2-4,20.8-4.1,31.4-5c45.1-4.1,90.4-5.9,135.6-7.6c18.6-0.7,37.2-1.8,55.8-3.5
		c9.4-0.8,17.8-4.6,24.2-12.3c5.9-7.1,12.6-13.5,18.1-19.2c4.3-0.7,7.1-2.1,9.4-1.4c17,4.9,33.8,6.9,50.9,0.3
		c3.4-1.3,7.8-0.2,11.8,0.1c3.5,0.2,4.8,2.3,4.1,5.5c-0.3,1.2-0.3,3-1,3.4c-5.9,3-12.1,5.3-17.8,8.5c-5.8,3.2-13,5.9-16.3,10.9
		c-8.3,12.8-21.8,19.2-32,28.4c-0.8,5.1-2.1,9.1-1.8,12.9c1.2,17.4,0.6,34.6-3.6,51.6c-2.3,9.2-1.9,18.5,1.4,27.5
		c2.4,6.3,5.3,12.5,11.2,16.1c11.3,7,22.9,13.6,34.5,20.1c7.2,4.1,15.2,4.7,23.3,4.5c6.8-0.1,13.9-1,18.4-6.3
		c15.4-18,37.8-23.8,57.9-33.5c1.6-0.8,5.9,0.7,6.8,2.4c3.9,6.9,7.2,14.1,10.4,21.3c3.5,7.8,9.2,12.9,17.2,15.5
		c10.2,3.2,20.4,6.3,30.6,9.3c8.4,2.5,13.5,8.1,15.6,16.5c1.3,5.2,1.8,10.7,4,15.4c1.5,3.3,4.9,6.8,8.3,8c7.4,2.8,15.2,5.3,23,6.1
		c18.5,1.9,37.1,2.7,56,3.9c13.3,11.2,11.9,32.1,27.1,43.2c14.1-3.7,28.2-7.4,42.2-11.3c13.2-3.7,26.1-4.6,38.8,2.2
		c13.6,7.3,28.3,6.5,43,4.5c8.7-1.2,14.7-6,18.4-13.5c4.1-8.2,7.9-16.7,12.2-25.8c4.3,0.8,8.2,0.9,11.5,2.3
		c16.5,6.8,33.7,7.5,51.1,6.8c11.9-0.4,23.7-2.6,35.6,2.2c8,3.2,15.5-0.4,22.3-5.3c8.1-5.7,19.1-3.5,24.4,4.8
		c4.3,6.7,8.7,13.4,12.9,20.2c6.9,11.3,13.7,22.8,20.1,33.5c20.7,12.4,43.4,15.7,64.9,22.3c7.6,2.3,15.2,5,23,6.4
		c8.1,1.4,15.7-0.1,21.8-6.8c9-9.8,18.6-19.1,27.8-28.7c22-23.2,44.2-46.3,65.9-69.7c10.7-11.5,20.7-23.8,31.1-35.7
		c7.2,4.2,9.9,11.9,13.1,19.2c6,13.4,12.9,26.3,22.7,37.4c4.4,5,13.2,4.4,17-1.5c2.9-4.4,5.9-8.9,8.6-13.5c3.4-5.7,6.2-11.8,10-17.3
		c2.2-3.2,5.6-5.6,8.5-8.3c3.3-3,11.7-3.7,15.1-1.1c6.3,4.8,13,9.3,18.6,14.9c7.6,7.7,15.5,14,25.9,17.9c12.6,4.7,23,13.4,30.8,24.6
		c1.5,2.2,3,4.4,4.8,6.4c6.2,6.9,14.8,8.4,21.3,3.3c7.3-5.7,14.5-11.7,21.6-17.8c86.7-75,173.4-150,260.1-225
		c15.1-13.1,30.3-26,45.6-38.9c5.1-4.3,13.2-4,17.9,1.6c10.5,12.3,23.1,22,37,30.1c4.2,2.5,11.3,1.4,14.1-2.8
		c7.5-11,14.9-22.1,21.9-33.4c5.4-8.6,12.9-13.3,23-13.6c6.6-0.2,13.1,0,18.1,0c2.6,2.3,3.6,3.1,4.6,4.1
		c8.7,8.3,10.2,22.5,21.6,28.1c10.7,5.2,22.2,9,33.5,12.9c70.5,24.3,141,48.8,211.8,72.3c14.8,4.9,26.6,11.4,33.2,25.9
		c1.1,2.3,3.5,4,6.5,7.2c9.3,0.4,19.9,1.6,30.4,1.2c49.2-2.2,98.5-1.4,147.7-5.5c29.1-2.4,58.6-1.4,87.9-1.7c6-0.1,9.5,5.3,7.6,10.8
		c-0.8,2.5-1.6,5.1-2.6,7.5c-28.8,70.3-54.9,141.6-79.7,213.4c-4.3,12.6-9.5,24.9-14.4,37.3c-19.1,48.3-38.1,96.7-57.3,144.9
		c-8.4,21-17.1,42-26.1,62.7c-38.2,88-73.6,177.1-105.2,267.7c-9.7,27.7-21,54.7-34.9,80.6c-11.4,21.2-20.2,43.4-28.6,65.9
		c-24.1,64.9-48.6,129.7-73,194.6c-2.3,6.2-4.5,12.6-7.7,18.4c-19.9,36.4-34.7,74.9-48.4,113.9c-3.5,10-7.3,20.1-12.1,29.6
		c-22.8,45.4-38.9,93.4-55.4,141.2c-4.3,12.6-8.5,25.3-14.2,37.3c-49,103.8-89.6,210.9-127.4,319c-15.4,44.1-33.7,86.9-56,128
		c-18.4,34-35.8,68.5-52.9,103.2c-10,20.3-18.6,41.2-27.8,61.9c-8.6,19.4-14.4,40.1-27.6,57.4c-4.2,5.5-3.8,12.9-0.4,19.1
		c3.8,7,8.3,13.7,12.9,20.2c66.7,93.3,128.7,189.7,192.6,284.8c75.8,112.8,151.4,225.8,227.1,338.8c5.2,7.7,10.2,15.6,15.5,23.3
		c7,10.1,10.7,21.3,12.7,33.3c10.9,67.1,21.9,134.1,32.9,201.2c12.4,74.9,25,149.8,37.3,224.8c12.1,73.6,23.8,147.3,35.9,220.9
		c8.8,53.9,18,107.8,26.9,161.7c9,53.9,17.9,107.8,26.8,161.7c1.7,10.3-4.3,15.9-13.5,12.5c-13.7-5.1-27.2-10.8-40.9-16
		c-6.2-2.4-12.4-5.1-18.9-6.3c-3.6-0.7-8.9-0.1-11.2,2.2c-11.6,11.6-26.2,17.7-40.9,24.1c-12.6,5.4-24.7,7.4-38.6,6.8
		c-35.1-1.6-62.1,14.6-78.2,45.4c-8.9,16.9-18.7,31.7-33.4,44c-17.6,14.7-30.5,33.9-40.1,54.4c-15,32.1-38.6,57.1-63.4,83.6
		c-5.1-7.2-9.8-13.4-14-19.9c-16.6-25.7-31-52.9-51.4-76.1c-4.3-4.9-8-10.9-10.4-17c-7.2-18.7-18.1-35.6-26.2-53.6
		c-10.2-22.7-28.6-34.1-48.5-45.2c-5-2.8-14.3,0.1-17.9,5.1c-5.4,7.7-9.8,15.6-11.5,25.2c-1.3,7.8-3.7,15.4-6.3,22.9
		c-0.5,1.4-5.4,3.1-6,2.5c-9.8-10.7-21.6-19.7-28.1-33.2c-2.3-4.8-5.3-9.2-7.9-13.9c-9.9-17.8-24.2-27.8-45.4-25.9
		c-2.3,0.2-4.8-1.8-8.5-3.2c-1.8-3.9-4.7-8.4-6.2-13.4c-3.6-12.1-10-21.4-21.5-27.3c-7.9-4-10.6-11.9-10.4-20.2
		c0.2-9.3,1.6-18.5,2.2-27.8c0.6-9.7-2-18.7-8.4-26c-10.6-12-21.3-23.9-32.7-35c-11-10.7-24.7-15.6-40.2-13.8
		c-26.5,3-52.9,5.7-78,15.9c-23.4,9.5-47.1,18.5-70.7,27.6c-9.9,3.8-19.9,7.6-30.1,10.8c-9,2.9-18.2,3.8-27.6,1.5
		c-32.3-7.9-64.7-15.7-97.1-23.6c-14.2-3.5-28.4-7.2-42.5-10.7c-1.3-0.3-2.8-0.1-3.9-0.7c-16.5-9-33.4-15.7-52.7-16.4
		c-6.1-0.2-12.2-5-17.9-8.3c-13.9-8-27.5-16.4-41.3-24.4c-7-4.1-14.4-6.6-22.8-5.8c-4.5,0.4-10.8,6.6-9.4,10.8
		c2.8,8.8,6.1,17.4,9.3,26.1c4.2,11.4,8.2,22.4,1.8,34.7c-3,5.7-3.7,12.8-4.8,19.3c-2.4,13.8-0.7,26.6,11,36.3
		c2,1.7,3.9,3.7,5.5,5.8c5.5,7.1,5.7,15.9,0.3,21.9c-5.4,5.9-10.9,11.7-16.6,17.3c-33,33-66.2,65.8-98.9,99.1
		c-27.4,27.9-59.3,49.4-93.7,67.4c-4.6,2.4-9.9,4.3-15,4.8c-10.6,1-21.3,1.2-31.9,1.2c-15.3,0.1-29.1-3.8-38.4-17.2
		c-0.8-1.1-1.8-2-2.7-3c-5.5-6.4-12.5-10.5-20.8-10.5c-42.2,0-80.2-18.8-120.8-26c-5.1-0.9-9.8-4-14.5-6.4
		c-8.3-4.1-16.7-8.4-24.9-12.7c-16.9-8.9-34.6-13.8-53.9-10.5c-6.8,1.2-13.2,0-18.8-4.5c-17.7-14.2-40.2-13.2-60.6-17.9
		c-16.7-3.9-34.5-3.2-51.7,0.4c-11.8,2.5-23.2,6.3-33.4,12.9c-10,6.6-20,13.2-29.4,20.6c-16.8,13.1-33.2,26.7-49.8,40
		c-16.5,13.2-29.9,30.2-44.4,45.8c-13.6,14.6-26.8,29.6-40.2,44.3c-3.8,4.1-10.8,3.8-14.1-0.4c-2.5-3.1-4.9-6.3-7-9.7
		c-6.7-10.8-16.8-16.8-28.6-20.3c-10.7-3.2-21.1-2.5-31.2,1.9c-2.4,1.1-4.7,2.4-7.1,3.7c-21,11.7-27.8,17-51.1,1.2
		c-2.1-1.5-4.9-2-7.4-2.9c-8.5-2.8-15.7-0.7-21.6,5.7c-2.7,2.9-5,6.3-7.8,9.1c-6.1,6.2-13.6,6.6-21.8,2.2
		c-11.3-6.1-18.7-15-20.3-27.8c-0.8-6.6-1.4-13.3-1-19.8c1.2-21.9-3.8-42.3-12.8-62c-2.8-6.1-5.8-12-8-18.3
		C8821.5,8013.8,8811.2,7994,8792.5,7980.8z"/>
	<path onclick="modal(this.id);" id="3175" class="st0" d="M8216.1,6537.8c-5.5,4.8-12,5.7-18.7,3.9c-19.3-5.2-38.2-11.9-55.1-23
		c-15.7-10.3-32-19.2-50.5-23.2c-11.9-2.6-22.2-8.9-32.6-14.9c-10.8-6.1-22-8.1-34.6-5.4c-19.5,4.2-39.3,7-59,10.7
		c-6.5,1.2-12.9,3.5-19.4,4.5c-19.9,3-34.8,12.5-42.5,31.8c-1,2.5-2.4,4.8-3.8,7c-8.7,14.4-26.8,19.4-41.2,10.9
		c-6.8-4.1-12.9-9.4-19.3-14.2c-5.3-4-10.3-8.5-15.9-11.9c-6-3.7-12.8-4-19-0.5c-7,3.9-13.6,8.3-20.2,12.9
		c-14.1,9.7-21.6,22.3-21,40.3c1,27.9,0.3,55.8,0.3,82.5c-2.4,1.9-3.3,3-4.4,3.4c-16.1,6.4-31.1,12.6-38.9,31.1
		c-9.6,22.7-18.1,44.8-9.6,69.1c6.3,18.1,6.3,36.6,7.7,55.2c0.9,12.3,9.3,22.2,21.5,25.9c2.5,0.8,5.2,1.8,7.8,1.8
		c26,0,40.1,18.8,54.9,35.6c4.9,5.6,6.9,14.4,8.2,22.2c1.5,9.1,0.8,18.5,0.8,27.8c0,9.3-1.7,18.9,0,27.8c3.2,17.4,1.2,34.4,0.8,51.7
		c-0.4,16.9-4.2,30.9-16.7,43c-6.5,6.3-10.3,15.4-15.3,23.2c-6,9.4-7.9,19.7-6.1,30.6c1.3,7.9,2.7,15.8,4,23.7
		c1.3,8,1.6,15.9-1.7,23.6c-7.6,17.6-5.9,36.7-8.1,55.1c-1,8.9,4.2,15.1,12.2,18.7c3.6,1.7,7.6,2.6,11.2,4.1
		c17,7.3,19.5,11.6,17.7,30.7c-0.4,4-0.9,8-1.9,11.8c-4.7,19.4,1.6,36.9,10.2,53.6c15.2,29.5,30.2,59.1,46.7,87.9
		c6.1,10.7,11.1,21.1,11.8,33.4c0.8,13.6,5.5,25.9,12.7,37.4c4.9,7.9,8.9,16.4,13.5,24.5c6.4,11.1,7.7,22.6,2.9,34.5
		c-2.6,6.6-1.8,12.8,0.5,19.3c6.2,17.5,9.7,36,19.9,52.1c3.5,5.5,5,12.3,7,18.6c2.4,7.8,3.1,16-0.6,23.5
		c-15.8,32.5-12.3,65.1,0.8,96.9c9.2,22.3,9.2,47.2,21.2,68.5c1.8,3.2,1.3,7.8,1.4,11.8c0.5,18.6,0.8,37.2,1.1,56.1
		c-5.3,5.1-9.5,10.4-14.8,14c-16.1,11-21.2,30.3-33.8,43.9c-3,3.3-3.3,10.1-3.1,15.2c1,24.1,4.9,48,13.8,70.3
		c6.7,16.7,4.1,34.2,8.6,50.9c0.9,3.3-1.4,7.6-2.7,11.3c-4.2,11.6-6,23.5-2.3,35.3c7.7,24.6,4.2,50.2,8.5,70.9
		c-3.5,17-17,21.7-21.9,32.3c0.2,2.9-0.6,6.1,0.7,7.9c13.5,18.4,26,37.6,29.3,60.5c2,14.1,8.5,20.9,21.8,24.4
		c33.8,8.7,68.2,11.4,102.8,12.7c9.3,0.4,18.6,0.9,27.7,2.1c1.5,0.2,3.9,4.4,3.4,6.1c-2.6,9.1-7.7,17-14.5,23.6
		c-7.6,7.4-15.5,14.7-23.4,21.8c-19.2,17.3-33.8,37.6-40.4,63c-1.3,5.1-3.6,10-5.8,16.2c-5,2.6-11,5.4-16.5,8.9
		c-3.2,2.1-7.1,5-8.2,8.3c-5.8,17.6-18,32.7-20,51.9c-1.4,13.7-8.8,25.2-19.1,34.2c-18.4,15.9-33.5,34-44.3,56
		c-2.7,5.4-9.1,9.9-14.9,12.5c-8.4,3.8-17.6,7.1-26.7,7.7c-25.3,1.8-49.8,8.6-75.3,9.2c-13.1,0.3-26.3,4-39.1,7.7
		c-18.2,5.2-36.4,7.3-55.3,6.2c-11.9-0.7-23.8-0.1-35.8-0.1c-5.8-11.4-12.3-21.6-16.4-32.6c-4.5-12.3-12.1-20.2-24.2-24.5
		c-9-3.2-15.6-9.5-21.5-17.2c-9.7-12.7-20.3-24.7-30.9-36.7c-9.6-10.9-18.8-12-31.6-3.1c-19.7,13.6-38.9,28.1-58.8,41.6
		c-12.7,8.6-20.8,20.5-26.8,34c-2.7,6-4,12.7-6.4,18.9c-5.9,14.9-12.7,29.1-26.1,39.4c-6.1,4.7-10.4,11.9-15,17.4
		c-3.6,0.2-6.4,1.1-8.8,0.4c-12.7-3.6-23.7-0.1-33.7,7.5c-6.4,4.8-12.1,11.6-20.5,11.6c-18.6,0-28.8,10.7-37.3,25.5
		c-6.7,11.8-17.1,20.5-29.3,26.4c-15.7,7.7-30.4,16.4-42.3,29.5c-2.6,2.9-6.3,4.8-9.6,7.2c-7.7,5.6-16.1,9.2-25.9,9.1
		c-34.6-0.3-69.1,3.2-103.9,1.1c-25.1-1.5-50.6,0.3-75.8,2.6c-15.3,1.4-28.8,0.6-41.7-8.7c-10.8-7.9-22.9-5.7-34.3-0.9
		c-6.5,2.7-10.4,8.2-11.4,15.3c-2.1,14.5,2.5,26.8,14.8,34.6c8.9,5.6,19.1,9.4,29,13.1c7.7,2.9,13.8,7.3,19.3,13.5
		c6.1,6.9,13,13.3,20.2,19.1c12.8,10.2,21.6,23.3,30.1,36.9c9.4,15.1,14.6,31.3,13.5,49.2c-1.3,21.2-2.7,42.5-4.2,63.7
		c-0.4,5-5.6,8.4-11.4,8.1c-10.6-0.6-21.2-1.3-31.8-1.4c-14.6-0.1-27.8,10.3-43,5.9c-13.1-3.8-26.4-2.1-39.7-2.7
		c-9.1-0.4-18.3-3-27.2-5.7c-10-3.1-18.9-1.3-26,5.4c-8.7,8.2-16.9,17-24.1,26.5c-6,7.8-7.7,18-2.2,26.4
		c12.1,18.4,13.1,36.7,4.5,56.7c-4.9,11.4-3.1,24.3,0.2,35.5c6.8,23.1,3.9,44.5-5.7,65.4c-1.3,1.1-2.2,2.2-3.4,2.7
		c-14,5-26.3,12.3-34.9,25c-2.4,3.6-11.8,2.6-14.2-1.3c-6.3-10.2-12.6-20.3-18.2-30.9c-22.5-42.4-44.7-84.9-67-127.3
		c-3.7-7.1-7.4-14.2-11.2-21.2c-4.6-8.8-11.1-15.3-21.8-14.7c-21.7,1.2-40.7-12.4-62.4-11.2c-2.3,0.1-4.8-2.2-7.1-3.5
		c-17.6-9.6-36-9.1-54.1-2.9c-9,3.1-17.6,6-27.1,5.3c-13.8-1-26.4,3-38,10.2c-6.8,4.3-13.7,8-22,8.5c-7,0.5-14.4-3.6-14.5-10.2
		c-0.1-26.7-10.7-48.8-27.3-69c-5-6-8.3-13.4-11.9-20.5c-1.5-2.9,0-5.2,2.8-6.3c9.9-3.9,21.7,1,30.8-6c8.4-6.5,16.6-13.2,24.5-20.3
		c8.1-7.3,17.5-4.6,26.6-4.5c5.6,0.1,10.5-4.5,11.1-9.3c1.3-10.7,1.6-21.4-4-31.1c-2.6-4.5-5.4-10.3-9.6-12.4
		c-10.1-4.9-18.6-10.2-20-22.5c-9.1-5.9-15.6-13.4-18.4-24.3c-0.8-2.9-5.9-5.1-9.5-6.6c-4.9-2-10.1-2.9-15.8-4.4
		c-2.7-5.8-5.6-11.7-8.2-17.7c-6.9-16.1-14.5-31.3-29.9-41.5c-4-2.6-6.1-8.4-8.6-12.9c-5.1-8.8-13.1-15-22.6-14
		c-14,1.5-22.4-5.8-31.4-14.2c-3.3-7,2.1-12.5,3.8-18.6c2.3-8.3,0.2-15.9-4.4-22.8c-3.5-5.3-26.7-25.6-32.4-28.8
		c-9.3-5.2-18.1-11.8-28-15c-9.6-3.1-14.2-11.7-22.8-16c-4.8,1.4-9.9,2.9-15.8,4.6c-3.1-3.9-7.3-7.6-9.4-12.3
		c-5.4-12-17.8-15.4-26.9-22.6c-1.6-1.3-5-0.3-7.6-0.2c-13.1,0.4-12.9,0.4-9.9-14.7c0.7-3.6,1-9.6-1-10.9
		c-10.3-7.2-10.9-21.4-21.5-28.2c-7.8-4.9-8.4-12.4-7.1-21c1.6-10.9,6.2-20.4,12.3-29.2c7.6-10.9,16.3-20.8,22.2-33
		c3.2-6.7,11-11.2,16.7-16.8c4-3.9,3.8-11-0.4-14c-3.2-2.3-6.4-4.8-9.8-6.8c-40.2-23.7-80.4-47.3-120.7-70.9c-3.4-2-6.9-4-10.5-5.8
		c-7.6-3.9-15.3-3.9-23.1-0.4c-3.6,1.6-7.1,4.3-10.9,4.7c-3.5,0.4-8.8-0.5-10.6-2.9c-6.1-8.3-13.1-12.7-23.6-11.6
		c-3.8,0.4-8.4-0.1-11.6-1.9c-10.8-5.8-21,1.8-30.9,1c-26.3-2.1-50,4.6-73.2,15.6c-6.3,3-13.2,2.1-19.3-1.2
		c-5.8-3.2-11.1-7.3-16.6-11c-15.9-10.3-24-9.9-39.3,2c-2.1,1.6-3.7,4.1-6,5.1c-3.6,1.5-7.6,2.7-11.4,2.8c-3.9,0.1-8-0.9-11.7-2.2
		c-32.4-12.1-65.1-23.3-97.7-37.6c-2.8-21.5-13.7-39.6-23.7-58.2c-39.7-73.9-79.1-148.1-118.6-222.1c-3.1-5.9-6.6-11.6-9.5-17.6
		c-5.3-10.9-14.5-15-26-15.4c-14.6-0.5-29.3-1.1-43.9-1.7c-4-0.2-7.9-0.8-11.9-1.1c-3.2-0.2-7-6-5.8-8.7c9.8-22,22.9-42.1,37.1-61.4
		c2.9-4,8.1-6.9,12.8-9c14.6-6.5,29.4-12.6,44.2-18.6c51.8-21.2,103.6-42.3,155.4-63.4c18.6-7.6,36.3-16.5,49.8-32.1
		c3.4-4,7.8-7.3,12-10.5c18-13.9,14.4-25.4-0.3-39.4c-9.6-9.2-20.2-17.4-29.9-26.5c-6.8-6.3-13.6-12.9-19-20.3
		c-5-6.8-10.3-11.9-18.9-13.2c-8.4-1.3-14.1-7.3-19.6-13.1c-15.7-16.4-31.2-32.8-46.7-49.3c-4.7-5-10.2-8.6-17.2-9.2
		c-12.2-0.9-23.5-4.5-33.9-10.9c-7.1-4.3-14.9-5.4-22.9-6.3c-3.8-0.4-8.4-1.5-10.8-4c-13.8-14.6-33.2-16.4-50.5-22.6
		c-16.2-5.8-32.5-10.8-50.4-11c-30.8-0.2-56.7-12.8-76.6-36.9c-2.5-3.1-5.5-5.8-8.3-8.7c-6.7-7.1-14.7-11.5-24.6-11.4
		c-12.4,0.1-22.5-4-33-11.3c-14-9.8-30.4-16.1-45.9-24c0.9-12.1,11.9-16.9,17.8-25.2c4.8-6.7,9.3-13.1,6.8-21.8
		c-2.4-8.5-10.4-13.8-21.6-14.5c-2.7-0.2-5.4-0.4-8-0.2c-30.1,2.8-53.8-12.4-77.6-27.4c-5.7-3.6-9.9-9.2-11.4-15.9
		c-2-9.1-2.8-18.4-5.3-27.4c-1.7-6.3-4.6-12.5-8.3-17.9c-1.9-2.7-7.7-5.8-10-4.8c-24.7,10.6-50.1,4-75.1,3.7
		c-26.6-0.4-53.1-3.2-79.7-4.6c-41.2-2.2-82.5-3.8-123.7-6.5c-14.8-1-29.1-0.8-43.5,3.4c-19.1,5.6-38.6,10.2-57.9,15.2
		c-14.8,11.3-29.9,22.3-44.4,33.9c-50.9,40.9-101.4,82.3-152.6,122.9c-12.1,9.6-20.5,20.4-23.1,35.7c-0.4,2.3-2.9,4.2-5.3,7.4
		c-5.3-3.7-10.8-7.2-15.8-11.3c-9.4-7.5-18.3-15.5-27.8-22.9c-11.7-9.1-21.6-7.5-30.9,4.2c-7.4,9.4-14.9,18.6-22.5,27.9
		c-0.8,0.9-2.3,1.2-3.8,1.9c-10.6,0-13.1-11.8-21.5-15.4c-5.1-2.2-9.9-4.2-15.1-1.4c-7,3.8-13.9,7.9-20.7,12.1
		c-11.3,6.9-22.6,14-34.5,21.5c-7.6-3.4-14.8-6.6-22-9.9c-13.1-6-17.8-5.4-27.7,6.1c-9.5,11.1-18.1,23-27.1,34.6
		c-8.9,11.5-15.7,24.8-27.1,35.1c-3.8-2-8.1-3-10.4-5.8c-23.4-29.1-46.5-58.4-69.5-87.8c-5.9-7.6-5.5-13.4,1.2-21.5
		c11.9-14.3,24.5-28.1,32.4-45.4c4.4-9.6,3.8-17.9-3.7-25.6c-8.5-8.7-15.3-18.1-17.4-30.8c-1.2-7.2-7.3-10.7-14.8-10.9
		c-5.9-0.2-10.1-2.3-11-8.7c-2.1-14.5-9.7-24.4-24-28.5c-7.9-2.3-15.5-6.2-19.8-12.8c-8.5-13.1-20.7-20.3-34.5-25.7
		c-10.5-4.1-17.6-11.8-22.5-21.6c-8.4-16.6-17-33.2-24.7-50.2c-4.9-10.7-9.8-21-6.7-34.2c2-8.5-2.2-18.5-9.9-25
		c-1.7-1.4-5.7-2.4-7.1-1.4c-6.4,4.6-12.2,10.1-18.2,15.1c-4.3,3.6-10.4,4-14.6,0.5c-18.3-15.4-36.7-30.9-54.6-46.7
		c-3.8-3.4-6.7-8.4-4.7-14.3c2.2-6.8,6.4-11.4,13.8-12.7c7.9-1.4,15.9-2.4,23.5-4.7c6.2-1.9,13.4-4.4,17.4-9
		c9.3-10.7,21.7-15.4,34.1-19.8c13.3-4.8,23.5-12,28.6-25.7c1.8-4.8,4.6-9.7,12-11c4.3,8.9,8.8,18.3,13.9,28.9
		c4.5,0.6,9.8,2.2,14.8,1.7c35.8-3.7,71.5-7.8,107.3-11.9c17.2-2,34.4-4.1,51.6-6.4c9.2-1.2,18.4-2.7,27.6-4.5
		c7.7-1.5,11.4-8.8,7.7-14.7c-4.3-6.8-8.6-13.4-13.2-20c-13-18.6-26.2-37-39.1-55.6c-3-4.3-5.6-9-2.9-15.4c4.9,0.2,10.3,0,15.4,0.8
		c9.6,1.5,18.7,0.6,27-4.6c6.9-4.3,14-8.4,22.1-8.6c18-0.3,32.9-10.2,49.4-15c15.2-4.4,24.5-13.6,30-29.1
		c5.8-16.4,19.5-28.3,30.4-41.7c3.2-3.9,8.3-6.8,13-9c13.4-6.2,25.9-13.4,36-24.6c6.5-7.1,15.3-10.6,25-11
		c45.2-1.8,90.2-7.8,135.6-7.6c31.1,0.1,61,6.3,90.2,15.6c12.4,3.9,23.4,12.3,37.2,19.7c15,0,32.4,1.3,49.5-0.4
		c18.1-1.8,34.4,1.9,50.1,9.9c11.9,6,23.1,13.2,34.7,19.8c7.8,4.5,15,1.8,18.9-7.5c1.6-3.6,2.2-7.7,3.8-11.3c2.2-5.1,8.4-8,13.1-6.2
		c7.4,2.9,15,5.7,22.2,9.1c11.9,5.6,23.6,4.5,34.5-1.8c12.7-7.3,24.7-15.7,37-23.6c4.5-2.9,8.9-5.8,13.1-8.5c3,0.2,5.8-0.3,8.2,0.6
		c11.7,4.2,21.4,0.4,28.3-8.8c12.8-16.9,25.8-33.8,34.9-53.3c12.1-26,31.3-46.2,55.4-61.6c11.2-7.2,22.9-13.1,36.5-15.4
		c22.2-3.8,43-13.2,65.8-15.7c11.4-1.3,22.3-8.3,33.3-13.1c7.3-3.2,14.5-6.8,21.5-10.6c9.6-5.2,19.5-8.5,30.5-7.8
		c30.9,2.1,60.6-8.6,91.3-9c4.8-0.1,10-3.4,14.3-6.3c5.5-3.7,10.6-8.1,15.3-12.8c11.9-11.6,26-18.8,42.4-20.4
		c16.2-1.6,30.9-6.9,46-12.6c33.6-12.8,67.6-24.4,101.6-36.4c7.5-2.7,15.1-5.5,22.8-7.1c40.7-8.3,79.3-22.9,117.8-37.6
		c8.7-3.3,17.2-7,26.9-7c14.9-0.1,28.8-4.4,42.4-10.4c9.7-4.3,19.7-8.3,30-10.9c22.4-5.5,41.9-16.5,60.7-29.5
		c45-31,89.5-62.7,132.4-96.5c13.5-10.7,28.5-19.6,43.3-28.6c33.1-20,65.9-40.3,97.4-62.8c11.9-8.5,24.8-15.6,37.4-23
		c11.4-6.8,23.3-12.8,34.6-19.8c9.2-5.7,19.4-8.5,29.5-11.8c12.5-4.1,16.9-18,10.3-29.6c-0.6-1.2-0.8-2.6-1.6-3.6
		c-18.8-24.2-37.4-48.5-61.1-68.3c-15.4-12.9-33.6-21.5-51.4-30.5c-4.5-2.3-10.4-2.6-15.6-2.4c-24,0.9-47.9,2.2-71.9,3.8
		c-5.2,0.3-10.6,1.6-15.5,3.6c-19.9,7.9-39.1,4.8-58-3.4c-9.7-4.3-19.2-9.2-28.7-13.9c-6.2-3.1-10.7-8-13.1-14.4
		c-11.5-29.8-24.1-59.2-23.6-92.2c0.2-11.8-2.6-23.8-4.9-35.5c-5.5-28.8-10.9-57.6-17.4-86.2c-4.2-18.4-6.1-36.7-5.9-55.5
		c0.3-26.7-1.5-53.3-13-79.4c-4.9-2.8-10.4-6.5-16.3-9.5c-20.1-10.2-41.7-17.9-58.6-33.6c-43.9-20.1-79.8-53-122-75.8
		c-12.7-6.9-23.6-17.3-35.1-26.2c-6.3-4.9-12.1-10.5-18.6-15.1c-8.9-6.4-19-9.6-30.2-8.2c-6.6,0.8-13.1,2.3-19.7,3.3
		c-7.3,1.1-12.2-2.5-14.1-10.6c-4.6-19.4-9.1-38.9-13.4-58.4c-10.3-46.8-20.6-93.7-30.8-140.5c-1.2-5.4,4.3-10.7,9.3-9.1
		c3.8,1.2,7.4,3,11.3,4c28.2,7.9,56.5,15.1,82.9,28.6c8,4.1,17.8,5.9,26.9,6.5c13.2,0.9,26.6,0,39.9-0.3c12.3-0.2,23.6-3.9,34.3-9.7
		c9.4-5.1,18.7-10.2,28.4-14.7c8.5-4,17.2-6.4,27-5.1c12.5,1.7,23.7-2.1,32.2-12.1c8-9.5,17.4-15.2,30.3-17.2
		c16-2.5,30-10.5,40.2-24.1c4.9-6.5,9.9-12.8,10.3-21.2c0.8-16.7,7.2-30.9,17.8-43.6c0.8-1,1.5-2.2,2.3-3.2
		c18.7-23.7,18-49.7,6.6-75.5c-6.9-15.7-17-30.1-26.4-44.6c-5.5-8.4-14.6-12-24.4-11c-10.5,1-21,3.3-31.3,6
		c-7.6,2-14.9,5.5-23.7,8.9c-22.8-10-42.5-25.3-59-45c-6.8-8.2-13.6-16.5-21.2-23.9c-5.6-5.5-12.1-11.1-19.2-13.8
		c-9.4-3.5-15.8-9.2-20.7-17.5c-5.8-10-14.8-15.2-25.9-16.6c-7.9-1.1-15.8-1.7-23-5.8c-8.3-4.7-17.5-5.9-26.9-6.6
		c-24.2-1.7-47.2-7.4-67.8-21c-3.3-2.1-7.5-4.7-10.9-4.3c-19.6,2.2-27.4-12.2-37.9-24.4c-27.3-31.7-44.9-69.2-65-105.1
		c-5.3-9.4-7.6-19.9-7.3-30.8c0.1-5.3-0.7-10.8,0.2-16c4-21.3-6.2-36.4-21.8-48.1c-12.7-9.5-26.6-17.6-40.5-25.5
		c-10.8-6.1-19.8-13.2-24.5-25.2c-4.4-11.4-11.7-20.7-21.3-28.5c-15.1-12.3-22.7-29.3-27.4-47.7c-3.3-12.9-7.6-25.9-8.1-39.1
		c-1.1-29.2-16.6-53.1-26.8-78.9c-1.9-4.8-5.8-9-9.4-12.8c-21.2-21.9-30-49.7-37.5-78.2c-1.7-6.4-1.7-13.2-2.9-19.8
		c-2-10.7-5.9-20.4-13.9-28.3c-16.5-16.3-25.3-36.7-33.6-58.1c-18.8-48.8-16.8-49.7-64.9-82.1c-7.7-5.2-15.6-10.3-23.3-15.5
		c-4.6-3.1-5.7-9.5-3.7-14c8.7-18.7,24.4-31.3,38.7-45.2c2.7-2.7,6.6-4.5,10.3-5.8c46.6-15.9,93.3-31.8,137.9-52.9
		c6.4-3,13.1-2.1,19.3,0.8c4.8,2.3,9.4,5.1,13.7,8.2c31.3,21.8,65.9,34.4,104.1,36.3c12.2,0.6,24,2.7,34.7,8.4
		c18.5,9.7,38.1,11.1,58.3,10.1c4-0.2,8-0.4,12-0.5c6.8-0.2,13.7,0.2,19.1,4.5c17.5,13.6,41.3,10.2,59.1,22.8
		c11.9,1,23.8,2.7,35.7,2.9c8.3,0.2,16.1-4.1,21.2-10.1c8.9-10.6,21-16.3,32.2-23.2c8.9-5.5,19.2-9,29.2-12.7
		c6.4-2.4,13.8-2.6,19.1,1.8c10.6,8.7,22.5,13.7,35.6,17c10.4,2.6,19.8,7.8,26.1,17.3c3.8,5.7,8.8,9.6,15.4,11.9
		c25.1,8.8,49.8,18.9,75.2,26.8c13,4.1,24.6,8.7,33.8,19.3c4.1,4.7,10.8,7.5,16.8,10.2c12.3,5.7,23.4,2.7,32.9-6.5
		c8.6-8.3,17.2-16.7,25.6-25.2c7.3-7.5,14.3-15.4,21.3-23c27,14.8,48.9,34,68.9,55.2c19.5,20.6,41.8,37.1,66.8,50.1
		c5.9,3.1,11.5,6.7,17.4,9.9c7.2,4,12.7,9.5,16,17.2c7.3,17.4,18.3,32.3,30.5,46.6c13.1,15.3,21.8,33.4,29.4,52
		c4.1,10.2,11.1,17.2,20.3,23.7c28.3,19.9,55.8,41,83.6,61.6c8.9,6.6,14.7,15.4,17.2,26.2c6.7,28.6,12.4,57.3,11.8,86.8
		c-0.2,8-1,16-0.8,23.9c0.1,4,2.5,8.3,6.8,8.4c9.6,0.1,17.7,3.8,26.5,7c30,10.9,60.3,21.2,90.9,30.5c11.3,3.5,23.5,4.8,35.4,5.4
		c14.6,0.7,29.3-0.2,43.9-0.8c29.3-1.2,58.5-2.8,87.8-3.9c5.2-0.2,10.7,0.5,15.8,1.9c36,9.8,72.2,18.6,105.2,37.1
		c12.7,7.1,26.5,12.6,40.1,17.8c22.6,8.5,43.7,19.5,63.9,32.7c21.2,13.8,42.4,27.5,68,32.8c8.8,1.8,16.8,7.9,24.9,12.5
		c23.2,13.2,46.4,26.3,69.2,40c13.9,8.4,28.6,14.6,44.4,17.5c23.8,4.4,46.5,11.5,68.1,22.4c12.5,6.4,25.4,6.9,38.7,1.6
		c21-8.4,42.5-15.7,63.2-24.8c11.9-5.3,22.9-5.6,34.7-1.4c11.3,4,22.7,7.7,33.9,11.9c20,7.5,40.1,14,61.4,17.3
		c14.3,2.2,28.2,7.6,41.9,12.7c20,7.4,40,14.2,61.2,18.2c16.9,3.2,33.3,9.1,49.8,14.1c242.5,72.4,485,144.8,727.5,217.2
		c5.1,1.5,10.1,3.3,15.1,5.1c5.5,2,8,8.7,4.9,12.9c-0.8,1.1-1.3,2.4-2.3,3.3c-20,18.2-34.7,39.9-46.4,64.2
		c-5.7,11.9-15.1,21.7-25.1,30.8c-18.9,17-34.5,36.9-49.6,57.3c-22.7,30.8-20.1,62.3-3.9,94c7.9,15.3,17.6,29.9,27.8,43.8
		c11.8,16.1,24,31.9,34.3,49.1c3.4,5.6,8.5,10.1,12.3,14.5c43,6.5,43.1,6.3,87.5,27.7c19.2,9.3,37.9,19.5,56.8,29.2
		c5.9,3,11.8,6.3,18,8.5c11.8,4.2,23.5,4.2,34.7-2.3c5.8-3.3,11.4-7,17.5-9.5c4.8-2,10.2-2.7,15.5-3.3c5.5-0.6,11.8,0.7,14.1,5.5
		c5.5,11.4,14.9,18.5,24.6,25.7c3.2,2.4,7,5,8.3,8.4c4.7,11.9,14.2,18.9,24.1,25.9c4.4,3.2,7.2,8.2,6,13.9c-2,9.3-2,18.2,0.5,27.6
		c1.7,6.3,1.5,13.2,1.2,19.8c-0.7,15.6-8.8,24.5-24.3,26.8c-9.2,1.4-18.5,2.1-27.8,3.4c-3.9,0.6-7.8,1.8-11.6,2.9
		c-12.4,3.6-16.7,18.7-7.7,29c5.2,5.9,11.6,10.8,17,16.6c1.1,1.2,0.5,5.4-0.8,6.9c-1.4,1.6-4.5,2.3-6.9,2.4c-2.5,0-5.2-0.8-7.6-1.8
		c-2.4-1-4.8-2.4-6.8-4.2c-22.4-19.4-50.2-29.8-75.1-44.9c-9-5.5-29.7,2.7-30.1,16.8c-0.5,14.8,1.7,29.2,3.8,43.7
		c1,6.9-2.4,13.3-8.2,17.2c-6.6,4.3-13.7,8.1-21,11.1c-7.6,3.1-14,7.2-19.4,13.4c-6.1,7-12.5,14-19.8,19.6
		c-17.9,13.9-35,28.6-46.7,48.3c-23.1,5-43.9,13.3-62.4,27.1c-6.3,4.7-13.6,8.5-21,11.6c-32,13.5-54.5,37.4-73.9,65.1
		c-4.5,6.5-8.2,14.3-14.3,18.9c-13.5,10.3-21.4,22.5-23.8,39.7c-2.2,15.6-13.4,25.2-28.2,30.9c-17.5,6.8-35.8,10.6-54.1,13.9
		c-11.9,2.1-23.8-0.1-35.6-3.1c-9.2-2.4-18.4-1.3-27.1,3.5c-10.8,5.9-15.5,14.6-12.7,26.3c1.9,7.7,5.7,14.9,3.7,23.3
		c-2.7,11.3,0.6,21.1,8.4,29.4c7.7,8.2,10,18.5,12.3,29c3.2,14.7,9,27.8,23.3,35.4c7.5,4,10.2,12.1,13.9,19.1
		c4.9,9.4,8.7,19.6,14.8,28.1c8,11.3,18.8,18.7,34.1,15.6c22.9-4.5,45,2.1,67.3,5.3c9.2,1.3,18,4.6,27.1,6.7
		c7,1.6,12.2,5.9,15.3,11.9c4.8,9.4,9.1,19.2,12.9,29.1c2.9,7.4,4.8,15.2,7.1,22.9c2,6.6,5.4,12.2,11.3,15.8
		c8.4,5.1,13.8,12.4,16.9,21.5c4.3,12.7,10,24.8,17.9,35.6c12.8,17.5,20.9,36.9,25.4,58.1c0.8,3.6,3.7,6.8,5.7,10.2L8216.1,6537.8z"
		/>
	<path onclick="modal(this.id);" id="3207" class="st0" d="M6053.7,3386.8c15.6-17.6,26.9-37.3,45.9-50.7c10-7.1,15.3-18.1,20.3-29.1
		c2.6-5.7,12.5-7.2,17.6-3.1c6.2,5,11.9,10.6,18.2,15.4c6.8,5.1,15,7.2,22.3,2.1c12.5-8.9,26.3-11.3,41.2-12.3
		c75.8-5.2,151.5-11.1,227.2-16.8c30.6-2.3,61.1-4.5,91.7-7c5.3-0.4,10.5-1.7,15.6-2.8c4.3-0.9,9.4-7.1,9.8-11.5
		c0.5-5.8-1.4-11.3-6-13.9c-8.1-4.5-16.8-8.1-25.7-10.8c-10.8-3.3-18.9-9.8-25.7-18.1c-13.9-16.8-23.7-35.4-23.1-58
		c0.4-14.8-1.2-29.2-6.6-43.1c-5-13.1-0.7-26.4,0.3-39.6c0.5-6.4,0.2-14.3,8.2-16.4c6.9-1.8,12.9,2.5,18,6.7
		c7.2,5.9,14.1,12.2,20.7,18.7c8.5,8.5,16.1,17.8,24.9,26c15.1,14.1,32.7,24.5,53.8,22.1c20-2.3,36.4,6.3,53.7,12.6
		c16.6,6.1,30.7,15.9,42.7,28.8c4.5,4.9,9.7,9.4,13.3,14.9c7.7,11.6,18.3,19.9,30.6,24.8c15.1,6,28.1,15,41.4,23.8
		c2.2,1.4,4.7,2.5,7.2,3.3c6.5,2,13.7,3.4,18.8-1.9c7.9-8.1,17.1-11.5,28-13.5c11.7-2.2,22.8-7.3,34.1-11c7.8-2.6,15.5-2.7,23.6-0.9
		c9,2,18.3,3.5,27.5,4.2c10.7,0.8,21.2,0.1,31.1-5.3c5.8-3.1,12.3-5,18.6-7.2c10.5-3.8,20.9-3.5,31,1.8
		c13.1,6.8,26.7,11.7,41.9,11.8c5,0,10.3,2.6,15,4.9c12.1,5.7,24.4,10.1,37.6,12.8c13.1,2.7,24.4,9.6,35.2,18.1
		c32.7,26,33,25.7,69.1,38.1c6.2,7.5,7.1,16.9,9.3,25.9c2.5,10.3,5.4,20.6,8.7,30.7c1.8,5.2,6.1,8.8,11.7,9.7
		c6.9,1.1,12.9,3.3,15.5,10.5c4.2,11.6,13,15.3,24.6,16.8c33,4.4,65.9,9.9,98.8,14.5c11.4,1.6,19.6,7.9,26.6,16.1
		c1.5,1.7,1.3,4.9,2.2,8.9c-8.1-0.4-15.8-1-23.5-1.2c-10.7-0.3-20.9,0.2-30.1,7.7c-4.8,3.8-12.1,5-18.5,6.3
		c-9.1,1.8-18.4,2.5-28,3.7c-3.7,4-7.3,7.8-10.8,11.7c-27.6,31-27,31.1-34.9,69.3c-4.7,23.1-3.1,44.4,7.2,66
		c12,25.2,21.8,51.5,33.2,77.1c5.1,11.5,7,22.8,3.9,34.9c-22.1,85.2-37.1,171.8-55.1,257.9c-2,9.4-5.1,17.8-11.6,25
		c-2.7,2.9-5,6.2-7.1,9.6c-4.1,6.5-1.5,17.7,4.6,21.4c9.3,5.7,19.3,9.4,30.2,8.8c5.1-0.3,10.3-2.4,15.1-4.3
		c12-4.9,18.9-20.2,34.2-18.1c12.6,1.7,19.7,13,29.7,19.5c5.9,3.8,12,5.5,18.8,5.5c5.3,0,10.7-0.2,16-0.6
		c54.6-3.9,109.2-0.7,163.8-0.3c6.6,0,13.2,1.4,19.8,2.1c3,0.3,6.9,6.1,5.8,8.9c-1.9,4.9-3.3,10.2-6,14.7
		c-8.2,13.8-7.3,27.7-2.8,42.3c2.9,9.3,7.3,17,14.7,23.2c5.1,4.2,10.5,8.2,15.4,12.7c7,6.4,12.4,13.6,13.6,23.7
		c2,17.3,7.8,33.6,12.3,50.4c7.6,28.2,16.9,56.1,17.9,85.7c7.6,23.7,9.4,49.5,29.5,68.5c9.4,8.8,15.3,21.7,21.6,33.4
		c12.1,22.3,23.9,44.6,40.4,64.1c5.1,6,8.8,13.3,13.2,20c8.6,13.4,6.7,28.1,4.8,42.6c-0.3,2.5-1.8,5.1-3.6,7
		c-13.8,15-19,35-29.7,51.8c-2.8,4.4-3.9,9.8-5.5,14.9c-5.4,16.4-9.9,33.2-16.4,49.2c-14.1,35.2-11.5,70.9-1.2,105.7
		c7.9,26.7,17.2,53.3,33.8,76.5c10.7,14.9,13,31.1,10.6,49.3c-2.1,15.7-0.8,31.9-1.1,47.8c-0.2,6.6-0.8,13.2-1.3,19.9
		c-0.3,3.4-5.1,7.4-8.3,6.8c-7.8-1.5-15.7-2.7-23.3-4.9c-48.5-14.3-97-28.9-145.5-43.3c-12.7-3.8-25.1-7.3-39.1-6.1
		c-17.3,1.5-34.4-3-50.4-10c-24.6-10.7-50.1-17.5-76.4-22.7c-14.3-2.8-28.1-8-42-12.7c-8.8-2.9-17.2-7.4-26.1-10.1
		c-23.4-7.2-46.1-9.3-69.8,2.4c-20.1,10-41.3,18.6-64.3,22.9c-3.5-1-7.6-1.4-11.1-3.1c-21.5-11-44.4-18.1-68-22.5
		c-17.4-3.2-33-9.9-48.1-18.8c-18.4-10.8-36.9-21.3-55.4-32c-17.3-10-34.4-19.5-54.1-25c-15-4.1-29.1-13.2-42.2-22.1
		c-25.6-17.3-52.9-30.7-81.8-41.4c-10-3.7-19.8-8.1-29-13.3c-35.3-19.9-74.4-28.9-112.7-40c-7.4-2.2-16-2.3-23.7-1
		c-17.2,2.9-34.5,2.5-51.8,3.1c-12,0.4-23.9,1.7-35.8,3c-26.9,3-53.1,0.3-78.7-9.1c-16.2-5.9-32.7-11.5-49.3-16.4
		c-20.8-6-41-12.7-55.3-40c0,0-1.1-7.9-1.1-15.8c0-24.2-7.4-47.2-10.7-70.9c-2.1-14.8-10.4-27.2-22.8-36.3
		c-26.8-19.8-53.1-40.1-80.3-59.3c-10.2-7.2-17.5-15.6-22.2-27.2c-8.5-21.1-20.3-40.2-35.4-57.6c-8.6-9.9-14.8-22.1-20.7-34
		c-5.6-11.3-13.6-19.5-24.6-25.2c-8.3-4.3-16.7-8.4-24.7-13.2c-20.5-12.5-39.8-26.9-56.1-44.7c-19-20.8-41.5-37.4-63.9-54.3
		c-10.2-7.7-20.6-6.7-27.9,3.5c-12.5,17.5-28.5,31.7-43.8,46.4c-5.9,5.7-15,5.7-21.8,0.2c-4.1-3.3-7.9-7-11.5-10.9
		c-6.6-7-14.5-10.7-23.8-13.6c-26.6-8.3-52.9-17.6-79.2-27c-4.8-1.7-10-4.7-12.9-8.7c-9.2-12.6-21.5-19.4-36.4-22.7
		c-10.6-2.3-19.7-7.7-27.7-15.1c-8.8-8-19.5-8-30.2-5.1c-23.4,6.4-46,16.2-63,33.1c-16.1,16-34.1,17.1-51.3,9.7
		c-18.4-8-38.9-9-56.1-20.3c-9-5.9-20.6-6.5-31.1-4c-18,4.3-34.3-0.5-50.4-7.2c-13.6-5.7-27.2-10.7-41.9-12.9
		c-1.8-0.3-4.7-3.1-4.6-4.6c0.1-2.2,2-5,4-6.3c11.1-7.4,22.3-14.6,33.7-21.5c52.4-31.8,104.9-63.5,157.3-95.2
		c5.7-3.4,11.5-6.7,17.2-10.2c22.5-13.8,24.1-17.9,10.2-40.9c-7-11.5-7.1-22.4-4.1-34.3c1.6-6.4,7.5-11.7,14.3-11.7
		c38.7-0.1,77.3-0.2,116-0.1c7.1,0,12.9,3.1,16.4,9.5c2.6,4.7,5.3,9.3,7.1,14.3c5.7,15.1,17.4,18.7,32,18.2
		c14.8-0.4,29.3-2.6,42.9-8.4c16.4-6.9,32.5-8.7,50.5-6.5c15.4,1.9,31.7-1.9,47.4-4.2c4.9-0.7,10-3.9,13.9-7.4
		c16.8-15.1,33.6-30.3,49.6-46.2c11.8-11.7,24.4-19.3,41.9-20c13.1-0.6,26.2-4.6,39-8c13.1-3.5,23.7,0.4,33,9
		c9.8,9,18.7,19,28.7,27.7c6.3,5.5,10.9,11.5,12.8,19.6c0.6,2.6,1.6,5.1,2.4,7.6c3.1,9.8,10.6,15,19.8,18.2
		c15.4,5.3,31.5,7.7,47.3,4.6c16.4-3.2,31.4-3.2,46.6,4.3c4.5,2.2,10.3,1.8,15.6,2.3c3.9,0.3,10.5-6.3,10.5-10.5
		c0-3.9,0.6-8.2-0.7-11.8c-3-8.8-6.4-17.5-10.5-25.9c-19.5-39.4-38.5-79.1-59.1-117.9c-30.6-57.7-61.9-115-93.8-171.9
		c-12.1-21.6-18.7-43.9-18.3-68.5c0.1-4-0.2-8,0-12c1.5-30.7-13.1-53.7-35.5-72.5c-8.1-6.9-17.5-12.2-25.7-19
		C6062.4,3397.9,6058.6,3392.3,6053.7,3386.8z"/>
	<path onclick="modal(this.id);" id="3220" class="st0" d="M4448.2,7998.4c10.5,4.3,15.9,14,22.5,22.1c40.7,49.4,81.2,98.9,121.7,148.5
		c106.3,130,212.6,260.1,318.9,390.2c10.9,13.4,21.7,26.9,30.9,38.2c2.2,10.4-2.2,15.7-5.9,21c-21.2,30.7-42.6,61.3-63.9,92
		c-3,4.4-6.2,8.7-8.8,13.4c-2.6,4.8-4.1,10.6,0,14.9c9.2,9.5,12.2,20,9.2,32.8c-0.4,1.7,2.1,5.3,4.1,6.3c16.5,8,32.2,19.2,52.4,14.7
		c2.3-0.5,5.5,0.4,7.6,1.7c4.4,2.7,8.8,5.7,12.2,9.5c3,3.5-0.5,14-5.4,17.9c-4.2,3.3-8.7,6.1-13.1,9c-15,9.8-15.2,9.9-7.6,28.1
		c2.1,5.1,3.2,9.8,2.7,15.3c-0.8,7.9-1.2,16-1.4,23.9c-0.3,11.1,5,15,17.3,13.5c3.8-0.5,8.8-1.8,11.3,0c8.8,6,17,5.3,26,0.9
		c4.1-2,8,0.6,10.8,3.4c3.7,3.7,6.5,8.3,9.8,12.4c10,12.3,19.9,24.7,30.2,36.8c1.4,1.7,5.2,2.8,7.3,2.2c17.1-5.3,31.1,1.5,44.7,10.4
		c3.3,2.2,5.9,5.8,9.5,7.3c6,2.5,12.4,4.4,18.8,5.6c4.9,1,7.2,4.5,7.6,8c2.7,21.4,1.2,42.4-7.6,62.6c-14.5,32.9-28.5,66-42.8,99.1
		c-2.2,5-5.5,9-12.4,11.5c-6.2-2.6-13.4-5.8-20.8-8.5c-17.7-6.6-34.8-1.8-45.4,14.2c-7.3,11-12.8,23.3-18.8,35.1
		c-2.8,5.4-7.2,7.4-12.8,7.8c-1.3,0.1-2.7,0.1-4,0c-47.8-3.3-95.7-6.5-143.5-9.8c-6.6-0.5-13.2-1.5-19.9-1.9
		c-27.1-1.4-25.8-5.3-49.8,17.1c-17.5,16.4-35.3,32.5-53.1,48.5c-4.9,4.4-10.6,7.8-16.2,11.7c-18.3-6.2-36-12-53.5-18.3
		c-8.9-3.2-17.8-5.7-27.3-4.7c-10.9,1.1-21.3-0.3-31.3-4.7c-10.5-4.6-20.8-3.5-30.8,1.4c-7.1,3.5-14.2,7.1-21.8,10.9
		c-31-8.3-60.6-20.3-90.8-30.4c-21.5-7.2-42.8-14.9-64.2-22.1c-3.7-1.2-7.8-1.5-11.7-1.9c-5.3-0.6-13.2,9.1-11.2,13.9
		c3.1,7.3,6.2,14.7,10.3,21.5c10.3,17.1,21.3,33.8,31.9,50.8c4.7,7.5,4.1,15.2,0.1,22.8c-2.5,4.7-5.1,9.4-7.9,13.9
		c-24.5,39.7-48.9,79.5-73.6,119c-5.6,9-11.1,18.8-19,25.5c-13.7,11.6-22.2,26.4-30.9,41.3c-3.3,5.8-6.5,11.7-10.1,17.2
		c-9,13.7-26.5,20.3-41.7,16.4c-14.5-3.7-27-10.1-38-20.8c-27.8-26.8-56.4-52.9-84.6-79.2c-1.9-1.8-3.7-3.9-5.7-5.6
		c-33.9-28.1-64.9-59.3-96-90.4c-41.5-41.5-86.5-79-132.8-115c-13.6-10.6-25.5-23.4-37.7-35.6c-16-15.9-28.6-35-46.4-49.3
		c-5-4.1-9.1-9.9-12.1-15.8c-8.7-17.1-22.3-29.6-36.5-41.9c-14.1-12.2-27.6-25.1-41.4-37.6c-12.9-11.8-26.9-22-44.4-25.9
		c-14.3-3.2-24.3-11-27.4-25.7c-3.2-15.2-12.5-25.8-23.9-35.7c-32.2-28-63.9-56.5-95.7-84.9c-4.9-4.4-9.2-9.5-13.1-14.7
		c-1.1-1.4-0.5-6.2,0.7-6.8c10.7-5.2,21.9-9.6,32.6-14.8c5.1-2.4,7.5-7.5,7.9-13c0.3-3.9,0.1-8.1-1-11.9c-2-6.6-2.4-12.8-0.4-19.5
		c4.8-15.2,9.3-30.6,13.6-45.9c4.2-14.5,11.5-26.8,23.8-36c22.8-16.9,39.2-39.6,56-62c10-13.4,15.6-28,16-44.3
		c0.4-17.3,0.3-34.7-1.4-51.9c-1.3-12.7,1.9-23.7,7.2-34.6c4.9-10.2,12.8-16.8,24.2-19c6.5-1.2,13.2-2,19.6-3.8
		c19.2-5.5,38.7-10.1,51.6-27.8c4.7-6.5,13-8.7,21.3-9.5c21.2-2.3,42.3-4.8,63.4-7.6c6.6-0.9,13.2-2.3,19.5-4.3
		c29.6-9.4,32.8-14.5,17.3-41.8c-7.9-14-16.5-27.4-28.8-38.1c-22.3-19.5-39.1-43.2-55-68.1c-30.8-48.4-62.5-96.1-93.8-144.1
		c-3.6-5.6-7.1-11.3-10.4-17c-3.3-5.9-1.5-17.9,3.4-22.4c2.9-2.7,5.9-5.5,9.2-7.7c56.3-38.2,112.6-76.2,168.8-114.5
		c8.1-5.5,16.5-7.8,26.1-8.4c55.9-3.4,111.9-1.7,167.9-2.1c14.8-0.1,28.9,2.2,42.5,9c13.2,6.6,27.5,9.9,42.5,10.1
		c9.5,0.1,18.6-1.1,26.9-6.1c10.3-6.1,20.9-11.9,31-18.2c11.5-7.2,21.9-8.1,32.3,2.4c3.6,3.6,8.8,7,13.7,7.8
		c22,3.9,38.4,18,55.3,30.4c24.9,18.2,51.3,20.8,79.6,13c12.9-3.6,25.7-6.7,39.2-7c6.6-0.1,13.1-1.9,19.6-3.2
		c14.9-2.9,27.4-9.5,36-22.9C4434.3,8010.7,4438.7,8002,4448.2,7998.4z"/>
	<path onclick="modal(this.id);" id="3218" class="st0" d="M5494.8,8056.1c4.2,7.3,8.4,14,12.1,21c42.8,79.8,85.5,159.7,128.2,239.5
		c2.5,4.7,4.9,9.5,6.7,14.5c0.8,2.2,0.1,5-0.3,7.4c-0.4,2.3-7.3,3.8-10.9,2.4c-6.3-2.3-12.5-4.5-18.7-7
		c-62-24.3-123.9-48.7-185.9-73c-2.5-1-4.8-2.3-7.3-3.1c-31.6-11-28.2-17.6-73.3-6.7c-20.7,5-41.9,7.8-62.7,12.1
		c-15.6,3.3-31.2,6.4-45.3,14.9c-11,6.6-17.8,14.6-18.8,28.3c-1,13.1-4.9,26-7,36.4c-8.6,13-21,16.1-30.5,23.1
		c-4.6,3.4-6.8,7.8-8.1,13.1c-3,13.5,0.6,26.4,3.3,40c-3.4,1.9-6.7,4.9-10.2,5.3c-9.2,1.2-18.6,1.1-27.9,1.8
		c-5.6,0.4-11,2.8-12.7,8.1c-3,9.4-9.1,16.2-16.2,22.3c-47.4,40.9-94.8,81.8-142.3,122.6c-2,1.7-4.3,3.5-6.7,4.2
		c-2.3,0.6-6,0.9-7.5-0.5c-6.8-6.3-13.4-12.9-19.3-20.1c-49.8-60.8-99.3-121.9-149.1-182.7c-105.5-128.9-211.4-257.4-316.4-386.6
		c-42.9-52.7-83.9-106.9-125.8-160.4c-35.3-45.1-70.7-90.1-106.1-135.3c-4.9-6.3-9.9-12.6-14.3-19.3c-3-4.7-3.3-10.4,0-15.1
		c16.1-22.8,32.5-45.5,48.9-68.1c3-4.2,9.6-5.3,14.5-3.2c8.5,3.7,16.9,7.5,25.3,11.2c7.9-4.1,15.2-7.3,22-11.4
		c9.1-5.5,17.8-11.7,26.9-17.3c10.6-6.5,16.1-5.7,24.5,3.2c2.7,2.9,4.7,6.5,7.5,9.3c4.4,4.5,13.9,4.8,18.3,0.1
		c10.9-11.6,21.3-23.7,31.9-35.5c2.1-2.3,8.6-3.3,11-1.5c6.3,4.8,12.7,9.7,18.9,14.6c10.4,8.3,20.7,16.8,31.3,24.8
		c3.1,2.3,7,4,10.8,4.7c1.9,0.3,5.9-1.9,6.3-3.5c2.6-11.6,4.4-23.3,6.7-35.7c3.4-6.8,10.2-11.2,16.4-16.1
		c58-46.9,116.2-93.6,173.9-141c13.8-11.3,28.9-18.4,45.9-22.8c29.9-7.7,59.9-11.1,90.9-9.3c82.4,4.7,164.8,8.4,247.3,12.5
		c2.6,0.1,5.4,0.2,7.7,1.3c2.2,1.1,5,3.2,5.5,5.3c1.5,6.4,1.6,13.2,3,19.7c3.7,17.7,11.5,32.5,29.6,39.7c6.1,2.5,12,5.9,17.6,9.4
		c11.7,7.4,24.5,9.8,38.1,9.8c9.2,0,18.7-1.4,27.5,3c2.7,1.3,5.8,7.8,4.1,10c-6.5,8.3-13.3,16.5-19.8,24.9
		c-3.2,4.2-6.2,8.5-9.1,12.9c-2.3,3.5,0.6,12.5,4.3,14c1.2,0.5,2.2,1.8,3.4,2c23,3.1,43.4,11.7,60.9,27.4c5,4.5,11.9,6.2,18.7,5.7
		c16.3-1.2,27.9,6.2,37.7,18.4c14.7,18.3,34.1,29.5,56.8,35c7.7,1.9,15.7,4.2,23.4,3.9c29.1-1.1,53.9,13.6,81,20.1
		c1.2,0.3,2.4,1.2,3.5,1.9c10.6,7.2,18.2,20.6,34.2,17.3c12.6,3.9,25,8.8,37.9,11.6c13.7,3,24.2,9.3,33.2,20.1
		c10.2,12.3,21.9,23.3,33.1,34.7c4.6,4.8,8.9,10.4,14.5,13.6c13.8,7.8,27.3,14.7,37.6,28.2c9.5,12.4,23.6,21.4,35.5,32
		c2.9,2.6,5.8,5.6,7.8,9c1.2,2,1.9,6.1,0.7,7.4c-16.9,18.9-35.3,35.7-59.5,45.4c-65.5,26.3-130.6,53.4-196.1,79.8
		c-14.1,5.7-25.2,13.6-32.7,27.4c-12.1,22.2-25.8,43.5-38.7,65.2c-2.9,4.9,0,11.3,5.2,12.4c5.2,1.1,10.4,2.4,15.7,2.8
		c17.3,1.3,34.6,2,51.8,3.3C5481.3,8053.5,5487.7,8054.9,5494.8,8056.1z"/>
	<path onclick="modal(this.id);" id="3219" class="st0" d="M6169.7,8481c-8.5,15.3-15.6,30.9-26.7,44.2c-8.6,10.3-14,22.4-17,35.7
		c-1.4,6.4-4.8,12.4-7.1,18.6c-4.4,12-1.7,16.4,6.9,19.2c9.6,3.1,15,10.8,20.7,18c3.3,4.1,4.9,8.5,3.6,14.6
		c-1.6,7.7-1.3,15.8-1.3,23.7c0,7.1,6.5,11.1,14.3,9.1c2.5-0.7,4.9-2.1,7.4-3.1c5.8-2.4,10.3,0.2,14,4.2c2.7,2.9,5.7,6,7,9.5
		c3,8.1,10.6,11.7,15.7,17.7c3.6,4.2,8.8,5.6,14.4,4c5.6-1.6,10.6-0.4,14.4,4c5.2,5.9,11.3,5.1,18.2,4.1c3.4-0.5,8.8,0.7,10.6,3.2
		c5.2,7,12.5,9.3,19.8,12.5c7.2,3.1,8.9,12.7,17.6,15.3c6.9,2.1,9.6,8.5,7.4,16.1c-2.2,7.7-4.6,15.3-6.8,22.9
		c-1.6,5.6,0.4,11.8,5.6,13.3c9.3,2.6,16.6,7.9,23.9,13.7c2.8,2.2,7.7,3.4,11,2.6c11-2.7,18.1-0.1,20.9,11.6
		c1.4,5.7,6.6,8.1,11.1,10.7c17.8,10.2,24,27.4,27.7,46c0.5,2.6-0.5,5.5,0.3,7.9c1.6,5,3,10.6,6.3,14.2c3.3,3.6,8.9,4.9,14.4,7.7
		c0.8,4.1,1.2,9.6,3.1,14.4c1.4,3.2,4.6,6.4,7.8,8c3.4,1.7,8.4,0.3,11.5,2.2c5.4,3.4,9.5,9.1,15,12.2c4.4,2.5,10.6,1.9,15.2,4.3
		c3.1,1.6,5.5,5.5,7.1,8.9c2.9,6.2,1.3,12.5-3.4,13.3c-16.7,2.6-29.7,11-40.3,23.7c-5.5,6.5-12.8,9.3-21.2,9.2
		c-6.7-0.1-13.4-0.7-19.9,0c-3.7,0.4-8.6,1.7-10.7,4.4c-8.6,10.8-19.9,12.3-32.4,11.9c-16.5-0.5-31.4,4.6-45.4,13
		c-24,14.3-48.3,28.1-72.5,42.2c-5.7,3.4-11.9,6.3-17,10.5c-12.8,10.6-27.9,15.1-45.1,17.8c-25.5-9.9-52.4-17.6-76.4-2.6
		c-14.1-7-24.4-13.2-35.4-17.4c-14.1-5.5-25.6-14-35.4-25.2c-5.3-6-10-12.4-15.2-18.6c-5.2-6.2-11-11.5-18.9-14.1
		c-6.6-2.2-11.3-6.4-14.3-13c-2.8-6-6.2-11.8-9.9-17.2c-5.4-7.8-12.1-14.4-21.7-16.6c-13.8-3-19.6-12.3-21.6-25.3
		c-0.8-5.2-1.5-11-4.2-15.4c-7.5-12.4-17.9-22.9-24.4-36.2c-2.1-4.3-7.5-7.6-12-10.2c-7.2-4-12.3-9.8-17.3-16.2
		c-11.4-14.7-23.2-29.1-34.9-43.6c-12.7-15.7-28.1-28.4-44-40.6c-18.9-14.5-37.9-29.1-54.9-45.7c-9.6-9.3-27.8-8.3-36.9-2.5
		c-24.6,15.5-36.2,38.2-38.8,66.3c-0.5,5.3-0.2,10.7-0.7,16c-1.8,16.6-18.1,32.5-34.9,32.6c-52,0.2-104-0.2-155.9-0.5
		c-1.3,0-2.6-0.4-4-0.4c-57.3-1.2-114.5-2.5-171.8-3.6c-7.9-0.1-15.9,1-23.8,1.9c-4.5,0.5-9.4,6.9-9.1,11.8c0.4,6.6,0.7,13.3,2,19.8
		c2.7,13,5.1,26.2,9.3,38.8c4.4,13.4,2.8,22.9-10.9,29.4c-2.8,1.3-4.8,6.3-5.6,9.9c-1.5,6.4-1.8,13.1-2.8,19.7
		c-0.6,3.5-5.2,6.7-8.9,6.4c-13.3-1.3-26.5-2.8-39.7-4.1c-13.6-1.3-26.4,1-38.2,8.6c-6.7,4.3-13.9,7.8-21,11.5
		c-5.8,3-10.7,0.8-11.3-5.3c-0.4-4,0.1-8-0.3-12c-0.8-8.6-4.1-12.7-12.6-11.6c-13,1.7-22.5-3.2-33.1-10c-11.9-7.6-24.3-16.7-40.4-15
		c-3.4,0.4-7.8-2-10.6-4.4c-8-6.9-17.4-12.4-22.5-22.4c-9-17.9-22.4-28.3-43.8-28.9c-8.5-0.2-16.9-6.6-26.8-10.8
		c-0.6-8.3-0.8-17.4-2.2-26.4c-1.1-7.3,0.6-12.5,6.5-17.2c5.1-4.1,10-8.9,13.6-14.3c12.3-18.1,3.4-39.2-17.8-42.6
		c-3.9-0.6-8-1.1-12-0.7c-17.3,1.6-30.9-5.4-42.7-18.1c-2.5-11.1-5-22.6-7.8-35.5c3-4.9,6.2-10.7,9.9-16.1
		c22-31.8,44.2-63.5,66.1-95.3c9.2-13.3,20-24.8,32.3-35.3c38.5-32.9,76.8-66.1,115.1-99.2c8.1-7,16.6-13.5,24-21.1
		c6.3-6.5,11.3-14.3,17.5-22.4c12.1,0,24,0.1,35.9-0.1c5.4-0.1,12.1-8.5,11.2-14.5c-1.2-7.8-3.1-15.5-4.8-23.3
		c-2.4-10.5-1-21.8,10.5-27.1c4.8-2.2,9.2-5.4,13.6-8.3c8.2-5.4,13.5-12.9,15.1-22.6c1.5-9.2,2.6-18.5,3.7-27.7
		c1.4-11.6,7.7-19.8,17.7-25c7.1-3.7,14.3-7.8,21.9-9.4c31.3-6.7,62.7-12.4,94.1-18.7c12.3-2.5,23.7-0.5,35.1,4.2
		c23.5,9.5,47.1,18.5,70.7,27.7c86.9,33.8,173.8,67.7,260.7,101.5c7.4,2.9,14.9,5.8,22.4,8.5c19,6.7,36.4,5.4,51.6-9.6
		c4-4,10-4,14.4,0.1c11.2,10.3,24.4,15.9,41.3,18.6c11.9-4.5,25.5-9.9,39.2-14.8c6.2-2.2,13-5.8,19.1-5c22.3,3.1,45.3-4.9,68.8,5.5
		c1.2,1.4,3.9,4.3,6.5,7.3c7.8,9,11.8,10.6,20,7.5c8.6-3.3,17.1-6.8,26.4-10.5c41.1,23,80.9,47.2,121.1,70.8
		C6164.3,8474.8,6166.8,8478.2,6169.7,8481z"/>
	<path onclick="modal(this.id);" id="3206" class="st0" d="M4437.1,7980.4c-7.1,10.6-12.5,18.1-17.3,26c-9.1,14.9-22.7,22.6-39.5,23.4
		c-22.8,1.1-44.8,6.1-66.4,12.8c-8,2.5-15.5,0.7-23.3-1.8c-15.6-5-28.2-15-41.1-24.2c-7.6-5.4-14.4-12.5-23.6-14.4
		c-16.2-3.5-29.6-11.3-41.4-22.6c-4.1-3.9-9.9-4.5-15-2.8c-8.8,2.9-17.5,6.4-25.9,10.3c-6,2.8-11.7,6.4-17.2,10.1
		c-19.4,13.4-40.7,14.7-60.6,4.2c-18.8-9.9-37.9-11.1-58-11c-53.3,0.2-106.6,0.4-159.8-0.1c-15.3-0.2-28.3,3.5-41,12.3
		c-59.2,40.9-118.7,81.2-178.2,121.6c-3.2,2.1-6.8,3.6-10.6,5.6c-3.2-3.2-6.4-5.5-8.6-8.6c-47.3-65.2-169.5-245.3-184-270.8
		c1.5-5.4,5-9,10-11.4c22.8-11,45.6-21.9,68.2-33.3c12.1-6.1,23.9-10.6,38.1-8.1c12.8,2.3,23.9-3.8,30.5-14.9
		c7.2-12.2,17.8-19.1,29.9-25.3c35.6-18.2,70.9-36.7,106.4-55.1c2.4-1.2,4.7-2.5,7.2-3.5c13.2-5.6,20.8-15.1,24.5-29.3
		c6.2-24.5,14-48.6,20.9-72.9c2.9-10.4,6.9-20.1,14.4-28.2c21.1-22.7,20.4-29.6,57.9-17.1c6.2,2.1,12.9,3.8,19.3,3.7
		c29.3-0.2,58.5-1.1,87.8-1.7c10.7-0.2,21.3-0.4,32-0.3c11.6,0.1,20.7-3.4,25.4-15.2c2.4-6.2,5.9-11.9,9-17.8c2.7-5.2,8.6-7,17-5.3
		c2.6,0.5,5.2,1.4,7.8,1.5c4.8,0.3,11-4.5,11.4-9.1c0.4-5.2,1.2-10.8-0.2-15.7c-3.4-12.8-8.6-25.2-11.7-38.1
		c-2.7-11.4-9.6-22-7.8-34.4c7.5-7.4,15.2-14.6,22.4-22.3c7.3-7.7,14-10.5,23.4-1c4.8,4.8,9.9,8.5,16.8,10.1
		c3.8,0.8,7.2,3.2,7.1,8.2c-0.2,10.5,6,17.7,13.5,23.4c13.8,10.6,25.5,23.2,36.5,36.5c4.7,5.7,5.6,12.5,1.7,18.5
		c-5,7.8-10.3,15.5-16,22.8c-5.7,7.3-12.3,14-18.3,21.1c-4.7,5.7-5.6,16.8-1.5,22.6c5.3,7.7,10.9,15.1,16.7,22.4
		c95.3,121.6,190.6,243.2,285.8,364.9C4419.8,7956.4,4427.4,7967.3,4437.1,7980.4z"/>
	<path onclick="modal(this.id);" id="3215" class="st0" d="M5138.5,6693.3c-2.5,5.4-7.3,7.4-12.7,8.1c-35,4.6-61.5,23.9-84.4,49.2
		c-8.9,9.9-17.6,20-22.5,32.7c-6.3,16.4-17.2,30-27.3,44c-3.8,5.3-8,11.8-15.3,11.2c-4.9-0.4-9.6-4.2-14.1-6.5
		c-2.7,1.1-5.8,1.5-7.3,3.3c-11.3,13.5-26.2,22.4-40.4,32.3c-14.3,10-28.3,14.5-44.4,4.4c-3.3-2.1-7.5-2.8-11.2-4.2
		c-14.3-5.4-25.9-2.6-34.7,10.5c-2,3-5.9,4.9-9.5,7.7c-8.5-4.3-16.8-8.4-25.1-12.5c-18.2-9.2-37.4-13.5-57.9-11.7
		c-11.9,1-23.9,0.7-35.9,0.7c-8.2,0-15.5-1.8-21.8-7.9c-3.7-3.6-8.6-6.6-13.5-8c-26.8-8-53.5-16.9-81.8-17.1
		c-31.9-0.3-63.8-1.6-95.7,1.4c-23.8,2.3-47.7,3.8-71.6,5.4c-11.1,0.7-21.1,4.6-28.6,12.5c-9.3,9.9-20.1,17-32.4,22.7
		c-7,3.2-14.3,8.2-18.8,14.3c-11.7,15.9-28.1,28.6-33.3,49.2c-1.7,6.6-7.6,11.2-14.1,13.1c-20.2,6.1-38.2,19.3-60.6,18.7
		c-3.7-0.1-8.3,1.4-11.1,3.8c-13.2,10.9-26.6,9.5-41,2.8c-8.4-3.9-17.3-7.4-27-5.8c-2.4,0.4-5.4,1.9-6.5,3.8
		c-1.2,1.9-1.4,5.7-0.3,7.5c9.3,14.6,18.8,29,28.5,43.3c11.9,17.6,24,35.1,35.9,52.8c2.1,3-0.1,9-3.2,9.8c-1.3,0.3-2.5,1.1-3.7,1.3
		c-11.8,2-23.6,4.2-35.5,5.7c-39.6,4.8-79.3,9.4-119,14c-11.1,1.3-15.4-2-20-14.6c-1.4-3.7-2.1-7.7-3.6-11.4
		c-2-5.2-5.6-8.9-11.1-10.5c-14.4-4.3-20.1-16.5-25.5-28.7c-0.9-1.9-0.1-5.8,1.4-7.3c4.7-4.6,9.5-9.6,15.2-12.5
		c15.2-7.8,19.3-20.7,19.7-36.3c0.2-7.3-2-13.3-7.5-17.5c-9.6-7.4-8.4-15-2.6-24.2c2.7-4.2,4.6-9.8,4.5-14.8
		c-0.3-9.5,0-18.5,4.6-27.1c1.2-2.2,2-5.5,1.2-7.6c-6.1-15.6,2.4-28.4,7.8-41.7c4.6-11.6,5.9-22.9-0.4-34.6c-3-5.7-5-12.4-5.7-18.8
		c-1.3-11.6-8.1-15.9-18.5-16.8c-1.3-0.1-2.6-0.5-3.9-1c-5.5-1.9-9.5-7.5-7-12.2c10.9-21.1,3.6-37.6-10.1-54.5
		c-12.5-15.4-22.9-32.5-33.8-49.2c-0.7-1.1,1.4-4.5,2.7-6.5c0.5-0.7,2.3-0.8,3.5-0.8c1.3,0,2.8,0.1,3.8,0.8
		c9.9,6.8,20,12.7,32.6,13.8c4.8,0.4,9.7,4.1,13.8,7.3c9.2,7.2,19.1,8.4,30.1,5.4c5-1.4,10.3-2.2,15.5-2c24.9,1,50,6,74.5-3.3
		c1.4-0.5,5,2,6,4c1.7,3.5,2.7,7.5,2.9,11.3c0.9,17.3,1.4,34.6,2.2,51.9c0.4,8.6,8.1,16.1,15.6,14c17.1-4.8,34.2-4.2,51.5-2.5
		c5.2,0.5,10.8,0.5,15.9-0.6c27.5-6,55.3-6.9,83.3-5.9c9.7,0.4,18.2-4,25.9-9.3c10.6-7.4,22.2-8.8,34.3-5.9
		c25.1,6,47.4-0.5,68.1-14.7c4.4-3,8.8-6,13.2-9c10.2-7,21.3-10.6,33.8-10c6.6,0.3,13.3,0.2,20-0.2c19.1-1.1,36.6-7,51.7-18.8
		c10.5-8.2,21-16.5,30.1-26.1c17.8-18.8,38.3-32.3,63.4-39.9c13.9-4.2,26.7-11.8,40.1-17.6c14.6-6.3,29.2-13,44.1-18.4
		c15.3-5.6,31-7.7,46.7-0.6c3.5,1.6,7.8,1.8,11.7,2.2c6.9,0.6,13.7-0.7,18.1-6.2c5.1-6.3,10.1-12.4,17.9-15.3
		c6.5-2.5,13.3-2.8,19,1.7c5.2,4.1,9.4,9.4,14.6,13.5c4.1,3.2,8.9,7.4,13.6,7.6c13.4,0.6,22.3,6.9,29.3,17.7
		c2.1,3.3,5.4,5.9,8.6,8.2c13.4,9.6,22.3,22.7,29.5,37.2c1.2,2.4,2.7,4.6,4,6.9c19.1,34.7,50.3,50.3,88.1,53.9
		c10.3,1,21.1-1.7,31.6-3.4c18.4-3.1,36.6-7.2,55-9.9c9.1-1.3,18.5-0.5,27.8-0.7L5138.5,6693.3z"/>
	<path onclick="modal(this.id);" id="3216" class="st0" d="M3539.7,6825.6c-0.8,8.9-1.5,16.7-2.2,24.4c10.8,7.9,22.6,9.6,34.4,11c7,0.8,13.1-1.9,18.3-6.4
		c6.4-5.5,13.6-8,22-7.4c5.3,0.3,10.7,1,16,0.5c37.6-3.8,35.9-2.3,58.3,23.2c4.6,5.2,10.4,8.6,17.3,9.1c12.5,0.9,23.3,5.5,32.7,13.4
		c8.6,7.2,18.3,11,29.5,9.7c13.8-1.7,26.3,2.3,38.7,7.4c16,6.6,32.1,13.1,48.1,19.5c24,9.6,24.6,10,12.7,33.1
		c-6.8,13.3-11.2,26.8-14,41.4c-6.9,35.3-15.1,70.3-21.9,105.6c-2.6,13.3-5.8,25.9-14.7,36.5c-2.6,3-4.6,6.5-6.7,9.9
		c-11.7,18.7-16.5,39.1-15.2,61c0.7,12,1.4,23.9,1.3,35.9c-0.1,10.8-5.6,17.6-16,20.1c-16.8,4.1-33.6,8.7-50.7,11
		c-16.6,2.3-30.5,7.7-41.5,20.9c-4.3,5.2-12.7,3.6-18.1-0.2c-9.4-6.5-11.6-17.6-18.9-27.7c-24.2-10.2-49.9-21.1-75.6-32
		c-7.3-3.1-14.7-6.3-21.7-10.1c-1.9-1-3.6-4.4-3.7-6.7c-0.3-5.2,0.8-10.5,0.9-15.8c0.2-16-1.9-27.8-23.3-30.2
		c-7.1-0.8-12.1-4.7-16.2-10.4c-3-4.3-6.4-8.3-9.8-12.4c-1.7-2-9.1-2.4-11.2-0.7c-4.1,3.3-8.9,6.2-11.9,10.4
		c-8.6,12-17.7,23.3-30.1,31.7c-6.8,4.6-11.5,11.1-12.8,19.5c-1.6,9.5-5.9,17.2-12.1,24.6c-7.6,9.1-13.6,19.5-20.6,29.7
		c-10.4-8.4-13.4-20.1-18.4-30.2c0.9-2.8,1-6,2.6-7.6c16.9-17.5,22.9-42,38.3-60.5c5.3-6.4,5.2-15,4.5-23
		c-0.9-10.5,2.9-18.1,12.2-23c3.5-1.8,7-3.8,10.5-5.8c17.6-10.4,25.5-26.5,26.6-46.3c0.4-6.6-0.3-13.3-1.4-19.9
		c-2.5-15.3-14.2-27-29.1-28.9c-9.2-1.2-18.8-2.8-27.8-1.7c-23.7,2.9-47.8,1.1-71.4,5.8c-3.8,0.8-8.5,1.5-11.6,0
		c-17.2-8.2-35.8-8.9-53.4-9.6c-8-11.8-11.4-23.1-7.3-35.4c4.9-14.7,3.9-28.7-2-42.8c-9.1-21.8-5.8-44.4-2.9-66.8
		c1.2-9.3,6.3-17.2,13.9-23.6c30.3-25.7,27.3-29.2,27.6-61.8c0.1-10.7-0.1-21.3,0.4-32c0.2-3.9,1.5-7.7,2.6-11.5
		c1.7-5.7,12.6-9.7,16.5-5.4c10.7,11.8,22.9,17.4,38.9,12.7c7-2,13.3,0.6,17.8,6c6.4,7.8,14.3,11.5,24.4,11c3.9-0.2,8.4-0.5,11.8,1
		c11.8,5,23.1,5,34.7-0.5c5.2-2.5,10.9-1,14.9,2.7c6.8,6.5,14,12.3,23.2,15C3514.2,6798.3,3527.9,6808.2,3539.7,6825.6z"/>
	<path onclick="modal(this.id);" id="3217" class="st0" d="M3332.7,7361.3c8.8-12.5,17.1-24.5,25.7-36.4c8.7-12,13.8-25.6,17.7-39.4c7.1-1.9,9.6,3,13.4,6.8
		c6.3,6.4,16.3,5.6,20.5-1.1c9.8-15.7,17.1-33.1,31.1-46.1c1.7-1.6,2.4-4.8,2.6-7.4c1.1-12.9,8.3-21.7,17.9-29.8
		c10-8.5,18.6-18.6,28.5-28.7c3,1.8,6.9,3.2,9.3,5.9c5.5,6.3,11.9,9.7,20.3,11.2c14.9,2.7,14.7,3.3,12.2,21.7
		c-0.5,3.9-0.9,8-0.4,11.8c0.8,6.8,3.5,12.9,9.7,16.6c4.5,2.7,9.3,5.1,14.2,7.2c15.9,6.8,31.9,13.3,47.8,20.1
		c9.8,4.2,20.4,7.3,28.8,13.5c7.1,5.2,11.6,14,17.4,21.1c1.7,2,4.1,3.5,5.9,5.4c11.3,11.9,22.2,14.3,39.5,4.4
		c16-18.8,38.5-21.9,60.8-25.3c5.2-0.8,10.5-1.4,15.8-2.1c3.5-0.4,7.2,3.5,7.6,7.4c0.8,9.5-0.6,18.4-4.7,27.1
		c-3.4,7.2-8.1,14.7-8.3,22.2c-0.5,19.9-10,35.3-20.4,51c-12.5,18.9-24.6,38-36.2,57.5c-7.9,13.2-19.9,21.6-33,28
		c-6.8,3.3-15.5,3.3-23.3,3.5c-11,0.2-22.5,1.8-29.8,9.3c-6.2,6.4-10.7,10.2-19.9,8c-8.4-2-15.7,2.6-21.8,7.8
		c-17.3,14.6-34.6,29.2-51,44.8c-22.3,21.3-49.8,35.3-74.2,53.6c-2,1.5-5,1.6-7.6,2.2c-4.7,1.3-12.3-1.5-13.7-5.4
		c-1.8-5.1-2.6-10.9,1.3-15.1c5.3-5.8,12.1-10.2,17.2-16.2c2.2-2.5,2.3-7.3,2.4-11.1c0.1-2.5-1.2-5.2-2.6-7.4
		c-7-11.3-12.9-23.7-21.8-33.2c-11.5-12.3-16.8-26.4-21.4-42c-5.1-17.8-9-36.2-18.7-52.5c-5.5-9.2-11.2-17.9-21.7-22.6
		c-4.6-2.1-9.2-5.7-12.3-9.7C3349.2,7386.3,3341.4,7374.1,3332.7,7361.3z"/>
	<path onclick="modal(this.id);" id="3199" class="st0" d="M3819.5,7485.8c1.5,5.8-1.2,10.3-4.7,14.4c-14.7,17.2-29,34.8-44.4,51.3
		c-11.2,12-18.7,25.3-22.8,41.3c-5.9,23.2-13.6,45.9-19.8,69c-3.4,12.7-11.2,20.3-22.6,26.1c-35.6,18.1-70.9,36.7-106.3,55.1
		c-5.9,3.1-11.9,6-17.7,9.2c-8.4,4.5-14.9,10.4-19.1,19.5c-3.6,7.8-11.1,12.5-19.6,10.8c-17.1-3.5-31.2,3.4-45.6,10.6
		c-22.6,11.3-45.4,22.3-68.2,33.2c-14.8,7-19.8,5.4-30.2-8.3c-2.4-3.2-4.8-6.4-7-9.7c-9.6-14.4-19.3-28.6-32.8-39.9
		c-6.6-5.5-7.9-13.6-4.5-21.9c3.1-7.4,6.5-14.6,9.5-21.9c3.7-9.1,3.4-18.3-0.9-27.1c-4-8.4-8.9-16.4-13-24.7
		c-10.2-20.7-9.8-25,13.7-28.1c14.4-1.9,28.9-5.3,42.6-10.1c12.7-4.5,24.8-9,38.7-6.9c9.7,1.5,18.9-2.5,26.2-7.9
		c23.4-17.3,49.3-31.3,70.2-52.1c11.3-11.2,24.6-20.3,36-31.4c10.2-9.9,20.2-16.3,35.4-11.9c6.3,1.8,12.7-2.8,16.4-9.1
		c5.1-8.6,12.4-14.9,22.6-13.6c28.5,3.6,48.1-10.6,65.5-30.3c1.8-2,3.7-3.8,5.5-5.7c2.9-2.9,6.9-2.3,8.4,2.6
		c2.4,7.6,6.7,10.8,14.5,9.7c2.5-0.3,5.2-0.1,9.2-0.1c5,6.7,10.4,14.2,16.1,21.5c3,3.9,10.3,5.5,14.4,3.1c8-4.8,15.5-10.3,23.7-14.6
		c3.1-1.7,7.6-0.9,11.4-1.2L3819.5,7485.8z"/>
	<path onclick="modal(this.id);" id="3214" class="st0" d="M4000.2,6796.7c5.3,13.7,9.6,24.8,14.3,37c-2.2,6.8-4.5,14.4-7.2,21.8
		c-4.5,12.4-11.6,24.2-6.7,38.2c-3.7,11.3-6.3,22.7-5.4,34.9c0.3,4.6-3.4,9.9-6.2,14.3c-10.2,16.1-9.2,20.4,6.6,32.9
		c11.3,9,8.5,21.5-2.9,29.8c-8.6,6.2-17.5,12.1-26.1,18.4c-5.9,4.3-7.6,11.7-4.2,17.5c4,6.9,7.8,14,12.6,20.3
		c9.8,12.6,7.6,24.8-0.3,36.8c-2.8,4.2-6.8,8.2-11.2,10.7c-6.9,3.9-14.7,6.2-22,9.5c-4.8,2.2-10.8,3.6-14,7.3
		c-16.5,19.1-39.9,18.7-61.2,23.7c-4-2.3-7.5-4.2-10.8-6.3c-9.8-6.2-15.4-14.1-12.5-26.6c2.9-13,4.9-26.1,7.6-39.1
		c4.8-23.4,9.8-46.8,14.7-70.3c2.7-13.1,5.5-26.1,13.1-37.4c9.7-14.3,9.6-30,7.8-46.1c-0.7-5.7-4.9-10.5-10.5-9.4
		c-9.5,1.9-18.1,1.2-27.1-2.7c-9.7-4.3-20.2-6.7-29.9-11.2c-13.6-6.3-27.4-10-42.4-9.3c-12.6,0.6-23.4-3.6-33.1-11.6
		c-6.2-5.1-12.9-10-21.3-10c-13.1-0.2-22.7-6.1-30.5-16.1c-3.3-4.2-7-8.1-11-11.5c-9.5-8-20.5-12.8-33.2-10.2
		c-14.5,3-28.6,5-43.4,1.2c-4.4-1.1-10.1,1.8-14.9,3.8c-6,2.5-11.6,6.1-17.5,8.7c-3.9,1.7-12.1-1.7-14.3-5.1c-2.7-4.2-1-15.9,3-18.4
		c3.3-2.1,6.7-4.5,10.4-5.9c8.7-3.3,17.6-6,26.4-9c21.5-7.5,41.7-17.2,59.3-32c4-3.4,8.7-5.9,11.3-7.6c12.1-2.7,20.4,2.7,29.1,5.4
		c16.9,5.1,33.9,6.5,51.2,2.9c11.7-2.4,23.7-3.8,35.1-7.2c19.3-5.7,38.4-10.5,58.8-8.1c9.7,1.2,18.5-1.8,26-8.1
		c13.4-11.2,28.4-19.6,44.6-26c12.3-4.8,19.2-13.6,20.4-26.9c0.3-3.6,0.6-8.8,5.8-8c3.5,0.5,7.4,3,9.6,5.9
		c9.8,12.6,19.5,25.3,28.3,38.6c2.6,3.9,3,10.3,2.2,15.2c-1.6,9.1-4.9,17.9-7.2,26.9c-1.2,4.5,2.7,10.2,8,12
		C3985.5,6792.4,3991.9,6794.2,4000.2,6796.7z"/>
	<path onclick="modal(this.id);" id="3198" class="st0" d="M3757.9,7449c9.9-8.6,18.9-16.3,27.7-24.2c3.4-3,3.7-11.3,0.2-14.5c-4.8-4.5-10-8.5-14.8-12.6
		c-0.4-2.7-1.8-5.8-0.9-7.6c7.9-15.8,5.6-34.2,13-49.8c5.2-11,8.9-22,10.4-34c1.4-10.9,6.8-19.7,14.5-26.8
		c31.3-7.5,60.2-0.4,88.8,9.2c0.1,15.4-8,26.2-14.9,37.3c-8.4,13.5-17.5,26.6-20.4,42.7c2.8,8.6,11.1,10.6,17.5,14.9
		c5.5,3.7,6.9,12.2,3.6,17.7c-2.1,3.4-4.2,6.8-6.8,9.8c-5.3,6.2-11.3,11.3-20.4,10c-9-1.2-15.2,2.5-19.6,10.2
		c-4.6,8.1-9.4,16-14.2,24c-8.6,14.2-21.9,22.8-36.3,29.9c-1.7,0.8-5.8-0.2-7.1-1.8C3769.6,7473.4,3764.7,7461.3,3757.9,7449z"/>
	<path onclick="modal(this.id);" id="3178" class="st0" d="M3916.1,7268.2c-9.7,6.1-21,5.4-30.5,2.4c-20.5-6.4-41-8.8-62.3-8.2c-7.4,0.2-14.8-7.7-15.5-15.4
		c-1-10.5-1.9-21-2.4-31.5c-1-23.7,8-43.6,23.4-61.1c4-4.6,13.6-3.5,17.1,2.3c2.7,4.4,6,9,7,13.8c3.1,15.3,11.8,25.9,24.1,34.8
		c7.4,5.4,13.4,12.8,20.8,18.2C3913.2,7234.8,3918.4,7249.8,3916.1,7268.2z"/>
</g>
<g>
	
	<path onclick="modal(this.id);" id="3192" class="st0" d="M3992.7,7380.5c8.6,4.2,16.3,8.8,22,16.7c-1,6.5-2.2,14.1-3.5,22.4c-2.6-1.2-4.9-2.2-7.1-3.4
		c-5.7-3-9.9-0.5-9.9,5.7c0,10.7-0.5,21.4,0.2,32c0.4,7.3,2.6,14.6,3.5,21.9c0.6,4.9,0.5,10,0.2,15c-0.2,4.5,1.1,7.4,6.6,8.1
		c-2.3,4.6-4.5,8.7-6.5,12.9c-3.4,7.3-6.5,14.7-10,21.9c-1.8,3.8-3.9,7.4-6.2,10.9c-0.5,0.8-2.3,1.1-3.5,1.1c-6,0.1-12,0.4-18,0
		c-9-0.7-17.9-1.9-27-2.8c3.2-4.7,6.9-9.5,10-14.7c5.9-9.8,11.5-19.7,17-29.7c3.7-6.7,7-13.7,10-20.7c1.4-3.1,1.7-6.7,2.4-9.6
		c-8.1-3.4-15.2-6.3-22.3-9.2c0-0.5,0.1-1.1,0.1-1.6c2.7-0.9,5.3-1.7,8-2.6c3.8-1.2,5-5.1,2.4-8.2c-0.9-1-1.8-1.9-2.8-2.9
		c-0.8-0.8-1.6-1.7-2.3-2.5c2.1-3.8,4-7.5,6.2-11c5.6-9,11.4-17.9,17-26.9C3983.9,7395.7,3988.3,7387.9,3992.7,7380.5z"/>
	<path onclick="modal(this.id);" id="3202" class="st0" d="M3829.6,7538.5c2.6-5,5-10,7.7-14.9c2-3.6,4-7.5,6.8-10.5c3.3-3.4,7.2-6.9,11.6-8.6
		c4.4-1.8,7.1-3.5,8.1-8.4c0.7-3.4,2.8-6.7,4.9-9.7c0.7-1,3.6-1.5,4.7-0.8c6.3,3.5,12.6,3.8,20.5,0.8c-2.2,4.5-4,8.2-5.9,12
		c-4.2,8.6-8.4,17.2-12.8,25.8c-2.6,5.1-5.9,9.9-8.2,15.2c-2.2,5.3-5.6,6.7-11.1,6.5C3844.7,7545.4,3844.7,7545.7,3829.6,7538.5z"/>
	<path onclick="modal(this.id);" id="3203" class="st0" d="M3875.2,7542.9c1-2.3,1.8-4.6,3.1-6.8c2.8-5,6-9.8,8.7-14.9c1.7-3.2,2.6-6.9,4.2-10.2
		c2-4.2,4.2-8.3,6.7-12.2c0.8-1.2,3.5-2.2,4.8-1.7c6.8,2.8,13.4,6,20.1,9.2c1.4,0.7,3.7,2.1,3.6,2.8c-1.1,7.1,4.6,7.1,8.6,9.2
		c1.1,0.6,2,3.6,1.5,4.5c-4.5,6.9-9.3,13.6-14.1,20.2c-0.4,0.5-1.5,0.7-2.2,0.7c-14.5,0-28.9-0.1-43.4-0.1
		C3876.4,7543.6,3876.1,7543.3,3875.2,7542.9z"/>
	<path onclick="modal(this.id);" id="3185" class="st0" d="M3904.7,7359.3c-5.9-1.9-11.4-3.5-16.7-5.5c-2.4-0.9-4.4-2.6-6.6-4c2.2-2.7,1.9-6.9,7-8
		c3.2-0.6,6-4.2,8.4-6.9c0.6-0.7-1.1-3.3-1.7-4.9c4.1-5,8.2-10,12.3-15.1c0.7-0.9,1.9-2.3,1.6-2.8c-3.6-6.9,1.8-12.4,2.5-18.9
		c2.7-1.4,7.7,1.1,8.4-4.3c1.1,0.4,2.5,0.6,3.4,1.3c3.3,3,6.4,6.3,9.6,9.4c0.7,0.7,1.3,1.5,2.1,2.1c6.6,4.8,6.5,4.7,0.7,10.8
		c-8.4,8.8-15.2,18.8-20.8,29.7C3911.8,7348.2,3908.1,7353.7,3904.7,7359.3z"/>
	<path onclick="modal(this.id);" id="3204" class="st0" d="M3942.4,7511.9c-2-0.9-3.5-1.6-5.1-2.4c3-5.8,1.1-7.9-4.8-9.4c-7.2-1.8-13.9-5.2-20.8-8.1
		c-2.8-1.2-5.3-2.9-7.9-4.3c3.1-8.7,9.9-11.4,18.4-13.3c7.4-1.6,16.6-0.5,20.6-9.3c6.5,3.1,12.4,5.8,18.9,8.9
		C3954.7,7485.7,3951.9,7500.5,3942.4,7511.9z"/>
	<path onclick="modal(this.id);" id="3200" class="st0" d="M3802.6,7534.9c0.5-0.6,0.9-1.1,1.3-1.5c6.8-7.5,14-14.8,20.4-22.7c5.7-7,10.1-15.2,16.2-21.7
		c11.5-12.1,17.5-27.4,25.4-41.5c1.7-3.1,3.6-6.1,5.6-8.9c0.5-0.7,2-1.4,2.7-1.2c2.7,1.1,5.4,2.3,7.8,4c0.6,0.4,0.7,2.6,0.2,3.5
		c-3.5,6.3-7.5,12.3-10.9,18.6c-5.5,9.9-10.6,20.1-16.1,30c-0.7,1.3-2.9,2.8-4.2,2.7c-3.7-0.3-6,1.4-8,4c-3.7,4.9-7.6,9.7-10.7,14.9
		c-3.9,6.5-6.8,13.5-10.8,19.9c-1.1,1.8-4.8,2.8-7.2,2.6C3810.5,7537.4,3806.8,7535.9,3802.6,7534.9z"/>
	<path onclick="modal(this.id);" id="3190" class="st0" d="M3966.4,7334.7c3.4-3.9,6.3-7.4,9.3-10.8c2.8-3.1,5.6-5.7,10.6-3.8c1.7,0.6,4.5-1.7,6.9-2.7
		c3.6,6.4,8.4,13.2,11.3,20.7c1.9,4.7,4.6,8,7.8,11.5c2.9,3.2,2.2,5.4-2.4,9.1c-7.7,6.1-7.7,6.1-3.1,15.2c0.1,0.3,0.3,0.6,0.4,0.9
		c-6,2.4-9.5,0.5-9.2-5.6c0.2-3.7-1.4-5.8-3.8-8c-8.7-7.9-17.3-15.9-25.9-23.9C3967.5,7336.3,3966.7,7335.1,3966.4,7334.7z"/>
	<path onclick="modal(this.id);" id="3205" class="st0" d="M4034.4,7507.4c-6.5-2-11.8-3.4-16.8-5.3c-1.5-0.5-3.6-2.6-3.4-3.6c0.8-5.2-2.7-6.6-6.3-8.2
		c-0.9-0.4-1.7-1.9-1.8-2.9c-0.8-18.8-1.4-37.6-2-56.3c0-1.1,0.2-2.3,0.4-3.9c3.8,1.3,7.4,1.3,7.6,7c0.1,4.1,2.8,8.1,4.1,12.2
		c1.9,5.6,3.7,11.2,5.4,16.8c1.5,4.9,2.9,9.8,4.5,14.7c1.8,5.8,3.8,11.5,5.4,17.3C4032.7,7499.1,4033.4,7503.1,4034.4,7507.4z"/>
	<path onclick="modal(this.id);" id="3196" class="st0" d="M3949.2,7448.8c-4,3.7-7.9-1.1-12-2.6c-5-1.9-9.7-2.6-14.5,0c-0.6,0.3-1.4,0.7-1.8,0.5
		c-7.7-3.3-15.3-6.7-23-10.1c-0.1-0.1-0.2-0.3-0.3-0.5c7-7.8,14.1-15.7,20.4-22.7c11.6,5.8,22.7,11.4,33.6,16.9
		c-1.4,2.3-4,5.2-4.6,8.5C3946.4,7441.8,3948.2,7445.1,3949.2,7448.8z"/>
	<path onclick="modal(this.id);" id="3201" class="st0" d="M3939.6,7456.5c-4.7,5.7-9.2,7.7-15.2,8.4c-7,0.9-13.9,3.6-20.6,6.2c-4.7,1.8-9.2,4.3-13.4,7.2
		c-4.6,3.1-8.6,0.6-12.6-0.6c-1.8-0.5-3.2-2.4-1.5-5.1c5.2-8.6,10-17.5,15.1-26.2c0.4-0.7,2-1.4,2.7-1.1c6.2,2.6,12.2,5.6,18.4,8.1
		c5.7,2.3,11.2,6,17.8,1.6C3932.1,7453.8,3935.9,7455.8,3939.6,7456.5z"/>
	<path onclick="modal(this.id);" id="3191" class="st0" d="M4051,7372.5c-7,8.9-13.8,17.5-20.7,26.3c-5-9.4-9.9-19.2-15.3-28.7c-1.5-2.7-1-4,0.9-5.4
		c2.6-1.9,5.2-4.5,8-4.9c2.4-0.4,5.2,1.9,7.8,3.2C4038.2,7366.1,4044.5,7369.3,4051,7372.5z"/>
	<path onclick="modal(this.id);" id="3186" class="st0" d="M3930.2,7354.9c-10.6,11.5-20.2,22.1-30.7,33.5c0.2-5.4-1.5-7.9-5.8-9.4
		c-5.9-2-11.5-4.8-17.1-7.5c-2-1-4.7-2.6-2.4-5.2c1.9-2.2,1-8.3,7.1-5.5c7,3.2,14.1,6.1,21.3,8.9c3.4,1.3,8.3-1.2,10.3-5
		c2-4,4.5-7.9,5.9-12.2c1.4-4.4,3.7-2.7,5.9-1.6C3926.7,7351.9,3928.4,7353.6,3930.2,7354.9z"/>
	<path onclick="modal(this.id);" id="3194" class="st0" d="M3939.6,7389.3c4.4-5.2,7.9-9.3,12.1-14.2c3.4,3.7,6.2,7.1,9.4,10.1c2.7,2.5,5.9,4.6,8.8,6.9
		c2.7,2.1,3.6,4.3,1.3,7.6c-3.8,5.6-7.2,11.4-10.7,17.2c-0.9,1.5-1.8,2.9-2.8,4.6c-1.3-4-2.4-7.5-3.5-11c-0.4,0-0.9,0.1-1.3,0.1
		c1.1-2.1,2.5-4.1,3.4-6.2c1.6-3.7-0.7-7-5-8.8C3947.6,7393.9,3944.1,7391.7,3939.6,7389.3z"/>
	<path onclick="modal(this.id);" id="3193" class="st0" d="M3957.9,7369.1c5-4.5,10.3-9.3,16.2-14.5c5.3,5.3,10,10.1,14.8,14.9c-3.7,6.2-7.3,12-11.1,18.4
		C3971,7381.5,3964.8,7375.6,3957.9,7369.1z"/>
	<path onclick="modal(this.id);" id="3176" class="st0" d="M3967.1,7231c1.9,5,3.4,8.8,4.7,12.7c0.7,2.1,1.4,3.8-1.7,5.6c-3.5,2.1-8.3,3.5-8.1,10
		c0.2,4.9-5.8,6.2-9.5,2.6c-1.2-1.1-2.5-2-3.8-3c-1.3-0.9-2.6-1.8-4-2.7C3952.2,7247.7,3959.5,7239.5,3967.1,7231z"/>
	<path onclick="modal(this.id);" id="3197" class="st0" d="M3879.2,7430c7.5-10.5,14.7-20.7,22.5-31.6c3.5,4.1,6,7.1,9.2,10.8c-5.7,5.5-12,11.5-18.3,17.6
		c-0.5,0.5-1,0.9-1.4,1.4C3886.6,7433.1,3886.6,7433.1,3879.2,7430z"/>
	<path onclick="modal(this.id);" id="3189" class="st0" d="M3951.3,7363.5c-2.8-2.8-5.5-5.7-8.2-8.5c5.2-4.4,10.3-8.8,15.9-13.6c2.2,2.7,4.4,5.3,6.7,8
		C3961.3,7353.6,3956.5,7358.3,3951.3,7363.5z"/>
	<path onclick="modal(this.id);" id="3177" class="st0" d="M3949.9,7267.3c-1.3,2-1.8,3.8-2.8,4.1c-1.1,0.4-2.8-0.3-3.9-1.1c-5.8-3.7-11.3-7.9-17.3-11.4
		c-3.6-2.2-2.9-4.6-1.7-7.6c1.6-3.9,4.5-2,6.1-0.8c4.8,3.4,9.3,7.4,13.9,11.2C3946.1,7263.4,3947.8,7265.3,3949.9,7267.3z"/>
	<path onclick="modal(this.id);" id="3195" class="st0" d="M3934.4,7396.3c7.6,3.5,13.5,8.3,7,18.9c-6.7-0.6-11.3-5.6-16.3-10.7
		C3928.1,7401.8,3931,7399.2,3934.4,7396.3z"/>
	<path onclick="modal(this.id);" id="3184" class="st0" d="M3933.9,7328.4c4.5,4.6,7.8,8,11.5,11.9c-3.4,2.8-6.8,5.7-11.1,9.3c-1.7-2-4.4-4.5-6.2-7.6
		c-0.9-1.5-0.9-4.3-0.1-5.9C3929.5,7333.4,3931.8,7331.2,3933.9,7328.4z"/>
	<path onclick="modal(this.id);" id="3180" class="st0" d="M3986.6,7304.7c-7.2-5.2-13.6-9.9-20.1-14.6c3.1-4.1,5.9-7.8,9.2-12.3
		C3979.4,7287.2,3982.8,7295.5,3986.6,7304.7z"/>
	<path onclick="modal(this.id);" id="3187" class="st0" d="M3917.7,7400c-3.5-3.1-6.3-5.6-9.5-8.5c3.2-2.9,6.1-5.5,7.9-7.1c3.7,0,6.4-0.2,9.1,0.1
		c1.2,0.1,2.3,1,3.6,1.6C3924.7,7391.1,3921.1,7395.7,3917.7,7400z"/>
	<path onclick="modal(this.id);" id="3183" class="st0" d="M3959.3,7325.6c-2.1,2.9-3.9,5.3-5.9,8c-3.9-3.2-8.1-6.6-12.3-10c-0.3-0.3-0.7-1.1-0.6-1.3
		c2.5-3.3,5.1-6.6,7.6-9.9c0.8,0.8,2.4,1.6,2.3,2.3C3949.7,7320.9,3954,7323.2,3959.3,7325.6z"/>
	<path onclick="modal(this.id);" id="3188" class="st0" d="M3925.2,7372.5c3.5-3.3,7.1-6.7,10.8-10.3c2.5,2.7,5.1,5.6,8.1,8.8c-3,2.5-6.4,5.3-10.2,8.5
		c-0.6-0.6-2.1-2.1-3.6-3.4C3928.8,7374.9,3927.2,7373.9,3925.2,7372.5z"/>
	<path onclick="modal(this.id);" id="3181" class="st0" d="M3981,7309c-1.3,0.8-2.3,1.8-3.5,2.1c-0.6,0.2-1.6-0.4-2.2-0.9c-5.9-4.5-11.9-8.9-17.6-13.6
		c-1-0.8-0.9-3-1.3-4.6c1.6,0,3.7-0.7,4.8,0.1c6,4.5,11.7,9.2,17.5,14C3979.4,7306.7,3979.9,7307.6,3981,7309z"/>
	<path onclick="modal(this.id);" id="3182" class="st0" d="M3967.1,7321.1c-6.7-6.1-12.5-11.3-18.2-16.7c-0.8-0.8-0.7-2.5-1-3.9c1.3-0.1,3.2-0.9,3.9-0.3
		c4,3.5,7.8,7.3,11.7,10.9c0.5,0.5,1.2,0.8,1.8,1.2c1.6,1.1,4.3,2,4.6,3.4C3970.3,7317.2,3968.3,7319.2,3967.1,7321.1z"/>
	<path onclick="modal(this.id);" id="3179" class="st0" d="M3959.1,7284.6c-1.5-1.6-2.9-3.1-4.4-4.7c4.3-4.2,8.5-8.2,12.9-12.5c0.8,0.7,1.6,1.5,2.5,2.3
		C3966.5,7274.5,3963,7279.2,3959.1,7284.6z"/>
</g>
</svg>
