<?xml version="1.0" encoding="utf-8"?>
<!-- Generator: Adobe Illustrator 19.0.0, SVG Export Plug-In . SVG Version: 6.00 Build 0)  -->
<svg version="1.1" id="Layer1" xmlns="http://www.w3.org/2000/svg" xmlns:xlink="http://www.w3.org/1999/xlink" x="0px" y="0px"
	 viewBox="0 0 5000 2200" style="enable-background:new 0 0 5000 2200;overflow: hidden; display: inline; width: inherit; min-width: inherit; max-width: inherit; height: inherit; min-height: inherit; max-height: inherit;" xml:space="preserve">
<style type="text/css">
	.st0{fill:#8FD4EB;stroke:#000000;stroke-width:3;}
</style>
<g>
	
	<path onclick="modal(this.id);" id="232" class="st0" d="M2404.1,1455.2c-9.9,6.7-14.1,6.7-25.5-2c-4.4-3.4-8.5-5.7-14.2-6.2c-3.3-0.3-6.5-2.9-9.6-4.7
		c-2.6-1.4-4.9-3.4-7.6-4.6c-1.8-0.8-3.9-0.7-5.9-0.9c-7.2-0.8-14.4-1.6-22.8-2.6c-2.1,7.9-4,15.1-6.1,22.7
		c-5.9,0.6-10.5-2.9-15.1-5.9c-9.9-6.7-20.9-10.1-32.6-11.6c-8.4-1.1-15.8-4.4-23.6-7.2c-13-4.7-23-12.2-31.5-22.8
		c-9-11.1-18.8-21.6-28.1-32.4c-1-1.2-1.7-2.9-1.9-4.4c-0.8-4.8-4.5-6-8.6-7.5c-2.9,3.3-5.7,6.3-8.4,9.3c-5.8-2.9-4.7-7.3-4.1-11.5
		c1.1-7.9,2.5-15.7,3.4-23.6c0.9-8.6-1.7-13.1-9.5-16.5c-8.5-3.7-15.5-8.3-19-17.8c-2.6-7.2-9.8-8.1-17.1-8
		c-0.3-2.3-0.7-4.3-0.6-6.2c0.3-5.1-0.6-9-6.4-10.8c-2.2-0.7-4.4-3.3-5.4-5.5c-3.4-7.7-10.2-9.3-17.3-9.6
		c-19-0.6-34.5-7.8-47.5-21.7c-3.5-3.7-8.7-6.3-13.6-8c-13.6-4.8-19.4-15.5-22.8-28.1c-1.4-5.2-0.6-10.2,4-14.5
		c3.8-3.6,6.2-8.5,9.4-12.8c3.6-4.9,4.2-10.1,2.8-16.1c-0.8-3.4-1.2-7.7,0.2-10.7c6.9-14.7,6.9-30.4,7-46c0.2-16,4.4-31,10.6-45.3
		c4.4-10.2,6.3-20.2,3.9-31c-0.2-0.9,0.3-1.9,0.4-2.6c3.7-0.4,7.2-1.2,10.6-0.8c2.3,0.3,5.2,1.7,6.6,3.6
		c5.4,7.2,12.5,11.5,20.7,14.9c5.7,2.4,11,6.2,16,10.1c2.4,1.9,3.4,5.4,5.3,8.4c3.4,0,7,0,10.8,0c1.5-2.7,2.9-5.3,4.4-8
		c6.2,0.3,12.2,0.6,18.1,1c3.3,0.2,5.6-0.9,7.4-3.8c5.2-8.2,5.9-17.5,7.2-26.7c0.2-1.7-1.7-5-3.3-5.4c-8.6-2.2-13.8-7.6-16.3-16.9
		c1.1-3.3,2.5-7.9,4.2-13.1c6.1-1.1,13.8-0.4,17.4-9.2c5.4,4.1,10,7.7,14.8,11c6,4.1,12.1,8,18.2,12c1.9,1.3,4.4,2.2,5.5,4
		c5.7,9.2,14.9,13.9,23.7,19.2c2.3,1.3,4.3,3,6.4,4.7c1.8,1.5,3.1,4.1,5.1,4.7c14.5,4.3,19.4,18.2,28.6,27.8
		c7.3,7.7,14.6,15.4,22,22.9c1,1.1,2.9,1.8,4.4,1.8c5.3,0.1,10.9,0.8,15.9-0.6c9.2-2.6,16.2,0.1,22.8,6.1c4.7,4.2,9.9,6.8,16.4,4.1
		c4.4-1.8,8.6-3.6,7.1-10.1c-0.5-2.1,1.1-5,2.5-7.1c7.9-11.6,15.1-23.7,24.3-34.2c5.7-6.5,14.2-10.7,21.9-15.1
		c3.9-2.2,14,4.1,15.5,10.1c2.9,11.7,12.8,16.3,21.5,21.3c12.1,6.9,25.1,12.4,38.2,17.1c9,3.3,18.5,4.2,28.1-0.4
		c8.1-3.9,16.9-6,25.2-9.5c3.9-1.7,7.3-4.6,12.3-7.8c11.5,7.6,24.4,16.2,37.9,25.1c-1.8,17.4,8.8,29.1,19.6,40.6
		c10.9,11.5,13.9,11.5,25.8,1.1c1.1,1,2.2,2.1,3.3,3.2c7.3,7.1,9.6,6.8,14.3-2.6c2.7-5.4,6.6-9.6,12.6-10.4
		c6.1-0.7,7.3-6.4,11.3-9.1c4.6-3.2,4.5-7.2,3.6-12.3c-0.6-3.6,0.5-8.2,2.4-11.4c8.5-14.5,17.5-28.7,27.1-44.3c2.2,5.2,3.9,9,5.3,13
		c5,13.7,9.9,27.5,14.9,41.3c0.8,2.2,1.8,4.3,2.7,6.4c5.3,13.2,14.2,20.4,29.4,19.9c8.7-0.3,17.1,0.8,24.2-6.2
		c1.6-1.5,5.8-1.5,8.3-0.7c5.7,1.8,9.9,0.9,14.6-3.1c13.5-11.6,26.6-11.1,39.7,1c4.4,4.1,8.8,8.2,12.7,12.8c5.2,6.2,11.6,8.2,19.4,8
		c10.3-0.3,20.7,0.4,31-0.2c7.4-0.4,12.9,2.1,17.7,7.2c8.6,9.2,17.8,18.1,25.8,27.8c5.9,7.2,12.6,9.1,21.1,6.9
		c5-1.3,9.7-3.1,15.4-2.2c8,1.3,13.8,5,17.1,12c2.2,4.5,5.5,6.8,9.7,9.3c7.6,4.6,14.6,10.4,21.5,16.1c1.8,1.5,2.7,4.4,3.3,6.8
		c2.9,11.5,1.8,23.2-0.3,34.5c-1.5,8.4-8.3,13.6-16,16.4c-2.1,0.7-5.6-1-7.8-2.5c-6.8-4.6-12.9-10.5-20.1-14.3
		c-11.8-6.3-23.4-0.3-28.2,12.5c-2.8,7.4-6.8,14.5-11.5,20.8c-6,8-11.5,15.7-15.4,25.2c-3.6,8.9-10.9,16.6-17.7,23.8
		c-6.3,6.7-14.6,11.4-21.1,18c-4.4,4.5-8.7,6.7-14.7,5.9c-1.6-0.2-3.2,0.3-5.7,0.5c0.7,2.2,0.9,4.1,1.9,5.5
		c4.8,6.6,4.9,8.7-0.5,14.5c-2,2.2-4.7,3.8-6.7,6c-3.1,3.4-6.5,7-3.2,13.2c20.4,4.4,41.4,8.8,62.7,13.4c-0.2,5.1-2,8.3-6.5,5.7
		c-6.3-3.7-10.7-1.3-15.1,2.6c-9.2,8.2-17.9,16.8-24,27.7c-2.9,5.2-6.2,10.1-9.8,15.8c-5-1.3-10-1.9-14.4-3.9
		c-10.1-4.5-20.2-3.8-30.3-0.8c-9.2,2.7-18.3,6-27.2,9.7c-8.9,3.7-17.8,7.1-27.5,8.3c-6.3,0.8-11.9,5-19.1,3c-2.9-0.8-6.9,1.3-8,5.9
		c-0.7,3.1-2.8,5.9-4.5,9.2c-1.2-1-2.2-1.4-2.4-2.1c-5.3-17.1-10.2-34.4-15.9-51.4c-1.7-5.1-5-10.1-8.6-14.2
		c-4.9-5.5-11.4-5.1-14.9,1.5c-7.4,14-16.5,27.6-15.3,44.6c0.8,11.5-6.6,18.4-14.7,24.5c-1.8,1.4-5.1,1.1-7.7,1.1
		c-4.7,0.1-9.3-0.1-14-0.4c-9-0.6-16.6,3.7-24.4,6.9c-3.6,1.4-6.9,3.8-7.8,8.5c-0.4,2-2.4,3.9-4,5.6c-4.5,4.7-9.4,4-11.4-1.9
		c-4.7-13.8-9.2-27.8-13.6-41.7c-0.7-2.2-0.1-4.7-0.7-6.9c-1.1-4.4-2.4-8.8-3.9-13.1c-1.8-5-4.2-9.8-5.7-14.8
		c-2.5-8.6-4.3-17.4-6.8-26c-2.2-7.4-6.9-12.6-14.3-15.6c-19.5-7.9-39.3-12.9-60.8-11.7c-16.4,0.9-32.9-1.2-49.3-2.5
		c-13.3-1-26.5-1.6-40.5,2.6c-0.4,8-4,15.8-1.2,24.2c0.6,1.8,0.8,4.1,0.2,5.9c-1.8,5.1-2.4,9.7,2.9,13.2c0.4,0.3,0.8,1.2,0.7,1.8
		c-1.3,7,2.9,11.9,6.2,17.2C2404.2,1453.1,2404,1454.3,2404.1,1455.2z"/>
	<path onclick="modal(this.id);" id="233" class="st0" d="M3043.6,1783.1c-8.5,0-14,0-20.1,0c-6.1-11.5,0.8-22,1.6-32.8c0.9-12.5,10.7-18.2,20.2-24.7
		c-5.8-6.7-13.3-7.9-19.6-11c-6.6-3.2-13.3-6.2-20.5-9.5c1.1-5.1-0.4-8.7-5.4-11.1c-10.1-4.8-18.8-12.9-31.5-11.4
		c-0.3-2.9-0.5-5.2-0.7-7.4c-0.5-6.6-1.4-12.6-5.8-18.5c-3.1-4.1-3.5-10.5-4.2-16c-0.5-3.5-0.1-7.4,0.9-10.9
		c2.1-7.3-0.3-12.9-6.2-18.2c8-10.7,1.3-17.8-6.3-25.3c-7.5-7.4-14.2-15.6-22.5-24.9c-5,11.6-15.8,17.3-18,29.4
		c-0.8,4.2-3.9,8.3-6.7,11.8c-6.7,8.3-13.6,16.3-20.8,24.1c-4.4,4.8-9.5,8.9-15.8,14.7c-0.8-6.3-1.7-10.7-1.8-15.1
		c-0.2-12.3,0-24.7-0.1-37c0-3.9-0.6-7.8-1-12.5c-14,0-27.2,0-40.6,0c-1.9-8.8,0.6-16.2,4.1-22.8c4-7.6,5.9-15.4,7.2-23.6
		c1.5-10,4.5-12.2,14.7-11.2c2.6,0.3,5.3,0.8,7.8,1.7c9.4,3.4,19,3.2,28.4,0.4c3.4-1,7.3-2.6,9.4-5.1c4.9-6,10.6-10.8,16.6-15.5
		c3.5-2.8,6.4-6.8,8.6-10.8c3.4-5.9,6-12.3,9.1-18.8c-5.1-4.2-10.6-3.6-16.1-3c-11.2,1.1-22.5,2-33.7,2.9c-1.9,0.1-3.8-0.4-6.7-0.8
		c8.6-19.1,20.2-34.7,36.5-47.1c2.1,1.1,3.7,2.2,5.5,3c4.8,2.3,11.8-1,13.4-6.1c1.9-6.1-0.3-10.5-6.7-11.8
		c-18.5-3.9-37.1-7.6-57.5-11.8c3.4-3.7,6.1-6.8,8.9-9.6c5.6-5.4,9.1-11.4,5.3-20.4c7.5,0.5,11.4-3.9,15.9-8.3
		c8.4-8.4,17.9-15.7,26.3-24.1c6.5-6.6,11.6-14.1,14.5-23.5c1.9-6.1,7.2-11,10.7-16.6c4.6-7.2,10-14.2,13.3-22
		c6.9-16,16.6-18.7,29.7-7.2c3.5,3,7.1,6,10.4,9.2c5,4.8,10.7,5,16.4,2.1c10.1-5.1,17-12.5,17.1-24.8c0.1-8.2,1-16.3,1.5-25.3
		c6.4,2.9,13.1,3.2,20.4,1.9c4.3-0.7,9.4,3.7,13.1,5.3c1.8,8.2,2.9,15,4.8,21.7c1.7,6,4.8,11.1,12.3,11.1c0.6,0,1.6,0.1,1.9,0.5
		c4.8,7.2,12.8,7.2,19.9,9.5c2.3,0.8,4.1,3.2,6.2,4.7c4.2,3.1,8.3,6.5,12.8,9c8.1,4.6,10.8,12,12.9,20.7c-2.6,1.7-5.1,3.3-7.6,4.9
		c-5.8,3.8-7,6.6-3.9,12.4c5.5,10.2,13.7,17,24.6,21.8c7,3,13.8,8.3,18.5,14.2c13.3,16.6,29.5,29.7,46.7,41.7
		c7.7,5.4,9.3,12.4,7.9,20.9c-0.8,5.2-1.6,10.5-2.1,15.8c-0.5,4.9,2,7.3,6.9,7.7c8.3,0.5,16.7,0.6,24.8,2.2
		c15.2,3,26.6-0.8,36.8-13.2c5.8-7,13.5-13.2,23-16.6c9.4-3.4,16.6-10.7,22.6-19.1c4.6-6.5,9.7-12.6,14.8-19
		c9.3-0.3,14.5,5.6,20.2,12.1c-2.9,5.3-5.7,10.5-8.4,15.8c-2,3.8-4.1,7.6-5.8,11.6c-4.3,10.5-2.8,20.7,1.8,30.9
		c4.5,9.9,8.7,20,12.8,30.1c5,12.4,11.4,23.9,19.6,34.6c8.5,11,16.5,22.5,24.7,33.7c5.3,7.2,8.1,15.1,8.4,24.1
		c0.1,4.6,0.8,9.3,2.2,13.7c1,3.2,3.1,6.6,5.7,8.7c12.7,10.1,16.6,20.9,12.8,36.5c-0.8,3.5-0.6,7.3-0.8,10.9
		c-0.6,7.9-0.9,15.9-1.8,23.8c-0.9,8,0.7,10.3,8.8,10.7c3.6,0.2,7.2,0,11.5,0c-1.2,4.7-2.1,8.2-3,11.7c-1,3.8-3.2,6.4-7,7.8
		c-7.9,2.8-12.1,8.7-13.8,16.8c-1,4.5-2.5,9-4.3,13.2c-3.3,8-3.2,15.8,1.5,22.9c4.9,7.6,5.5,15.3,3.5,23.8
		c-1.5,6.4-2.3,13.1-2.9,19.7c-1.1,11.4-0.5,22.6,6.6,32.5c1.3,1.8,1.9,4.1,3.3,7.3c-3.7,1.5-6.8,3.3-10.1,4.1
		c-4.4,1.1-7.1,3.7-7.8,8c-1.6,10.8-3.3,21.6-4.3,32.5c-0.6,6.6,0.1,13.3-0.2,20c-0.4,9.3-1.7,11.8-10.4,13.1
		c-9.8,1.5-13.3,7-14.5,15.9c-1.3,9.9-3.6,19.5-1.2,29.6c1.3,5.4,1,10.7-1.1,16.4c-2.3,6.4-2.4,13.6-3.5,21.1
		c-0.9-0.2-2.5-0.3-3.8-0.9c-5.4-2.4-10.6-5.6-16.2-7.5c-11.3-3.7-20-10.5-26.3-20.3c-3.3-5.1-7.5-8.2-13.1-10
		c-15.6-5.2-26.6-15.6-34.7-29.8c-2.7-4.8-7.2-8.7-11.4-12.5c-18.4-17-39.6-28.8-64.3-34.5c-11.6-2.7-22.9-8.5-34.5-9.1
		c-13.4-0.8-19.9-8.9-24.3-18.4c-4.6-9.8-12-15.9-20-21.4c-6.9-4.8-11.9-10.4-15.7-17.6c-2.2-4.1-4.6-8.1-7.4-11.8
		c-6.8-9-16.2-11.6-26.4-6.9c-6,2.8-11.6,6.5-17.1,10.2c-6.3,4.2-12.9,7-20.5,6.5c-4.9-0.3-8.1,1.8-11.2,5.1
		c-4.3,4.4-9.1,8.4-15,13.8c-2.6-13-1.4-23.2,5.7-32.5C3036.2,1795,3039.1,1790,3043.6,1783.1z"/>
	<path onclick="modal(this.id);" id="234" class="st0" d="M2950.7,1600.2c-1.5,3.9-3,6.3-3.2,8.9c-0.3,2.7-0.3,7.1,1.3,8c6.8,4.2,5.7,10.1,4.3,15.8
		c-1.9,7.5-1.9,15,1.5,21.5c5.2,10.1,9.6,20,8.2,30.9c7.4,2.1,13.8,3.3,19.8,5.7c5.8,2.4,11.1,6,17.1,9.3c-1.8,7.6,3,10.2,9.1,12.6
		c8.6,3.4,16.8,7.6,25,11.3c-4.1,5.6-9.4,10-11.1,15.5c-3.6,11.7-6,23.8-7.7,35.9c-0.5,3.7,2.6,8,4.1,12.3c4.3,0.4,8.2,0.8,12.5,1.2
		c-3.4,7.2-7.8,13.7-9.7,21c-1.9,7.5-1.4,15.6-2,23.2c7.6,3.5,12.8,2,17.5-2.6c1.7-1.6,3.4-3.2,5-4.9c4.1-4.6,8.5-7.1,15.3-7.7
		c7.2-0.7,14.3-4.8,21.1-8c5.4-2.5,10.3-6.2,15.5-9.1c5.2-2.9,10.2-2.7,14.5,2c2.4,2.7,5.6,5.1,7,8.3c6,13.2,15.5,23,27.2,31
		c5.6,3.8,10.4,8.1,12.1,15.2c0.5,2.1,2.3,4.1,3.8,5.8c18.2,19.6,34.6,40.7,56.6,56.9c16.7,12.3,24,31.4,26.5,51.9
		c0.4,3.5-1.2,5.9-4.1,7.3c-7.5,3.7-8.4,10.3-8.6,17.6c-0.2,8.9-0.8,17.8-1.3,26.8c-8.7,2.5-16.3,1.8-23.8,0.9
		c-4.6-0.5-6.5-4.1-8-7.9c-3.5-9-5.3-11.2-15.8-7.4c-11,4-21.5,3-31.7-2c-10.7-5.2-22.8-7.6-31.5-16.6c-2.3-2.4-5.2-4.4-6.9-7.2
		c-10.3-17.1-21-34-28.1-52.8c-2.6-6.8-5.9-13.4-9.6-19.7c-1.5-2.5-4.7-5-7.5-5.5c-9.4-1.6-18.6,0.2-26.7,5.4
		c-2,1.3-4.1,3.8-4.5,6.1c-1.5,7.4-2.3,14.9-3.5,23.5c0.6-0.5,0.1,0.2-0.4,0.3c-10,0.3-19.7,0.5-28.9,5.9c-4,2.3-9.7,1.8-14.6,2.5
		c-2,0.3-4-0.1-6,0.1c-4.7,0.5-9.3,3.2-14.2-0.6c-6.4-4.9-12.7-9.6-15.5-17.7c-1.1-3.3-2.9-6.5-4.3-9.5c-6,2.9-11,5.7-16.3,8
		c-5.7,2.4-10.9,1.4-15.8-2.5c-6.1-4.9-14.6-7-17.4-14.9c-1.3-0.3-2-0.7-2.5-0.5c-13,4.4-18.5,2.1-24.5-10
		c-7.6-15.2-16-29.8-27.3-42.6c-4.1-4.6-6.8-10.7-8.9-16.5c-1.6-4.5-4-7.5-8.1-9.4c-8.2-3.8-16.6-6.6-25.9-4.4
		c-2.9,0.7-6,0.2-8.9,0.6c-4.1,0.4-6.8-1.1-9.2-4.5c-3.8-5.4-7.1-13-12.4-15c-5.2-2-12.7,1.6-19.1,3c-4.9,1.1-9.6,2.6-14.4,4
		c-21.5,6-35.6-3.2-45.2-21.1c-1.6-3.1-1.8-7-2.3-10.6c-0.7-4.7-3.6-7.1-8-7.4c-11-0.9-22.3-4.8-33.5,3.8
		c-4.1-13.6-14.3-18-26.1-20.9c-3.5-0.8-6.5-4.2-9.5-6.7c-6.5-5.6-13-11.4-19.3-17.3c-7.1-6.8-11.6-15.3-14.1-25.5
		c-3.4-0.2-6.6-0.5-9.9-0.4c-10,0.3-19.8-1.3-29.6-3c-21.2-3.8-39.4,2.4-53.5,19.4c-1.4,1.6-3.1,3.9-4.9,4.1c-5.2,0.4-6.4,4-7.3,8.5
		c-7.9-0.6-14.7-0.6-20.6-7.4c-9.7-11.1-14.5-10.1-22.9,2.9c-7.3-0.1-15.4-1-18.8,9.3c-11.4-9.4-22.3-18.1-32.8-27.2
		c-6.1-5.3-8.1-13.1-9.3-20.5c-1.3-8.6,5.9-14.2,14.2-12.1c3.9,1,7.7,2,11.6,2.9c5,1.2,9.8,4.7,15.3,1.7c7.3-4,14.8-7.3,18.7-15.6
		c3.3-7,5.7-13.7,6.1-21.7c1.3-25.6,6.1-50.7,14.6-75c1.6-4.5,2.1-9.4,3.2-14.7c-5.7-2.4-10.1-4.7-14.8-6.1
		c-14.7-4.4-23.8-13.9-27.5-28.7c7.8-8.1,15.3-16,22.9-23.8c4.5-4.6,14.5-3.5,18.1,2.8c5,8.8,10.8,17.6,4.1,28.7
		c-2.2,3.7-2.6,9.2,2.6,13.3c2.8,2.2,3.6,6.9,5.5,10.4c2.2,3.9,5.3,6.6,9.5,2.6c3.3-3.1,6.5-2.2,10.1-1.1c3,0.9,6.7,2.4,9.4,1.5
		c11.5-3.9,20,0.7,27.4,8.7c3,3.1,6.1,4.8,10.6,4c8.3-1.4,14.7-8.2,15.2-16.7c0.2-3.6-0.7-6.7-4.2-8.3c-8.7-3.9-10.5-10.9-9.8-19.6
		c1.2-15.2,2.3-18.9,9.8-29.1c4.3,0.2,8.9,0.2,13.5,0.7c8.5,1,17,2.3,25.7,3.4c1.7,6,3.1,11.4,4.8,16.8c2.4,7.8,13.9,10.9,19.6,5.1
		c2.5-2.6,4.2-5.9,6.4-8.8c1.6-2,3.1-4.4,5.2-5.4c9.8-4.9,19.9-8.7,31.2-7c16.3,2.4,32-10.7,31.5-27.2c-0.6-17.5,8.1-31.1,16-45.2
		c0.3-0.5,1.1-0.8,2.1-1.5c5.6,3.1,8.9,8,10.7,14.2c5.1,17.2,10.4,34.3,15.7,51.5c0.5,1.6,1,3.2,1.8,4.6c2.6,4.1,7,4.4,9.5,0.3
		c1.9-3.1,3.3-6.5,4.7-9.9c1.6-4,4.3-6.1,8.5-4.6c3.9,1.3,7,0.8,10.3-1.6c1.5-1.1,3.7-1.9,5.6-2.1c16.1-1,29.5-10,44.3-14.6
		c7.3-2.3,14.7-4.1,22.2-5.8c2.2-0.5,5-0.7,6.8,0.2c8.8,4.5,19.6,3.8,27.7,10.3c1.7,1.4,5.1,1.1,7.7,1c11.9-0.7,23.9-1.6,35.8-2.3
		c2-0.1,3.9,0,6.5,0c-1.9,11.5-7.4,19.9-16.4,26.4c-3.2,2.3-6.8,4.6-8.9,7.8c-6.4,9.7-15.9,11.2-26.1,10.3c-5.6-0.5-11-2-16.6-3.1
		c-1.6-0.3-3.2-0.9-4.9-0.9c-11.1-0.4-15.6,2.9-17.5,13.7c-1.6,8.9-4,17.3-7.9,25.5c-4,8.4-6.1,17.5-4.1,28.5c13.7,0,27.4,0,42.5,0
		c0,24.6,0,47.8,0,73.4c3.6-2.2,5.5-3,6.8-4.3c4.1-3.8,8-7.8,12-11.7c2.4-2.3,4.9-4.4,7.1-6.9c7.4-8.5,14.8-17.1,21.9-25.8
		c2.3-2.8,5.3-5.8,5.8-9.1c1.8-10.6,8.6-17.6,15.8-25.1C2933.8,1581.3,2942.2,1590.7,2950.7,1600.2z"/>
	<path onclick="modal(this.id);" id="222" class="st0" d="M3040.6,745.1c1.5,1.7,2.5,2.4,2.7,3.3c2.5,9,9,10.7,17.4,11.2c8.5,0.5,13.5,7.6,19.1,13.1
		c2.3,2.3,4.5,4.7,7,6.7c6.1,4.7,6.6,10.4,1.3,15.9c-6.1,6.3-6.3,11.6-0.7,17.8c0.9,1,2.4,1.7,2.7,2.9c5.4,15.9,19.1,28.2,19.6,46.2
		c0.1,5.3,1.3,10.5,1.8,15.8c0.5,5.3-1.9,8.9-6.8,11c-2.1,0.9-4.2,2-6.3,3.1c-9.1,4.7-11.2,7.9-7.3,17.4c3.2,7.6,1.7,12.3-4.1,17.3
		c-3.7,3.2-6.2,7.8-9.3,11.7c-6.6,8.4-5.8,17,2.3,24c0.8,0.6,1.6,1.4,2.5,1.7c11.1,4,17.7,13.9,26.3,21c1.2,1,2.4,2.4,3.1,3.8
		c2.9,6.1,7.2,9.8,14.5,10.2c2,0.1,4.4,2.6,5.8,4.6c2.2,3.3,3.7,7.1,5.6,10.6c4.4,8.3,9.8,15.4,17.8,21.1c8,5.7,14.7,13.3,22.2,19.9
		c7.5,6.7,8.2,15.6,8.4,24.7c0.2,7.8-5.8,12.4-10.5,17.3c-3.7,3.8-8.1,7-11.9,10.6c-2.8,2.7-5.9,5.5-7.9,8.8
		c-3.7,6.4-9.1,9.6-16.1,10c-10.5,0.6-19.2,4-25.8,12.7c-4.2,5.5-9.5,10.2-14.7,14.8c-5.5,4.9-8.4,11-10.5,17.8
		c-4.1,13-8.2,26-12.9,38.8c-2.1,5.8-5.6,11.2-8.9,17.8c-3.9-2.2-6.8-4.3-10.1-5.5c-2.9-1-6.9-2.3-9.3-1.2
		c-8.2,3.8-13.8-0.2-18.5-5.5c-8.9-10.1-19.2-18.2-30.8-24.9c-2.4-1.4-4.6-3.9-5.9-6.4c-6.9-13.6-21.2-17.2-33.2-13
		c-11.6,4.1-17.5-0.1-24.3-8.4c-7.7-9.5-16.9-17.9-25.5-26.7c-3.9-3.9-8.6-5.8-14.4-5.6c-12,0.3-24-0.1-36,0.2
		c-4.6,0.1-8.3-0.9-11.6-4.3c-4.9-5-10.2-9.5-15.1-14.6c-8.8-9.1-19.8-12.4-31.8-10.9c-4.8,0.6-9.7,4-13.8,7.1
		c-4.5,3.5-8.6,5.9-14.4,3.5c-5-2.1-9.4-0.2-12.8,3c-4.3,4.1-8.8,5.4-14.5,4.2c-1.9-0.4-4-0.1-6-0.2c-12.2-0.6-18.5-5.3-22.6-16.8
		c-7.4-20.3-14.7-40.7-22.3-60.9c-1.6-4.3-2-8-0.4-12.4c1.5-4.3,2.1-9.1,1.8-13.6c-0.8-16.6-1.6-33.2-3.3-49.7
		c-1.1-10.8-3.7-21.6-5.8-32.3c-2.3-11.7-4.9-23.3-7.4-35.1c8.7-6.3,16.7-12.1,24.8-17.8c7.8-5.5,15.8-10.9,23.8-16.4
		c-0.7-4.4-1.3-8.3-2-13c-10.7,0-21.1,0-32.9,0c1.9-13.3,3.8-25.6,5.7-38.8c-10.1-6.2-21.1-8.9-33.4-1.7
		c-13.2,7.7-26.8,14.7-40.3,22c-2.3,1.3-4.7,2.3-7.2,3.5c-7.2-5.9-14.1-11.4-24.1-11.2c-5.3,0.1-7.2-4.8-7.4-9.2
		c-0.7-13.9-6.3-26.3-11.5-38.9c-1-2.4-2.2-4.9-3.7-7.1c-3.9-5.9-4.2-12.4-4.2-19.1c0-2.2,0.8-4.7,0.1-6.7
		c-3.1-10.1-6.8-20.1-9.9-30.2c-3.6-11.7-7.5-23.3-7.1-35.9c2.8-1.8,5.6-3.1,7.6-5.2c4.5-4.7,8.2-9.9,4.3-16.8
		c-2.4-4.3-0.7-7.5,2.2-10.9c4.8,0.8,8.4,3,10.5,7c5.2,10,13.2,17.5,21.7,24.5c8.9,7.3,14.8,16.1,16.4,27.5
		c1.5,10.4,4.8,19.4,15.9,23.1c1.6,0.5,3.3,1.8,4.7,1.5c11-2.2,15.3,7,21.9,12.4c4.8,4,9.8,8.1,15.3,10.7c7.4,3.5,11.9,0.2,13.4-7.8
		c1-5.5,2.4-11,4.2-16.3c3-8.8,5.8-17.8,10.1-25.9c2.6-4.9,7.5-9.2,12.3-12.3c5.8-3.7,12.6-5.9,20.2-9.3c-3.7,19-7.2,37.4-10.9,56.5
		c3,0.7,5.4,1.6,7.9,1.7c6,0.2,12-0.1,18,0.1c6.7,0.2,11.6-1.3,13.1-9c0.8-4.5,4.7-5.9,9.1-6.4c6.1-0.7,12.2-1.7,19.8-2.8
		c0.9,0.9,2.7,3.2,4.8,5.2c4.4,4.5,10.8,4.3,14.8-0.3c1.9-2.3,3.6-4.7,5.3-7.2c1.5-2.2,2.8-4.5,4.6-7.3c11.3,4.6,22.7,9.2,34.1,13.9
		c2.4,1,4.8,2.3,7,3.7c8,5.3,15.9,10.8,25.4,13.5c3.3,0.9,6.2,3.8,8.9,6.2c5.8,5,12.2,7.4,20,7.4c5.5,0,11,1.7,16.5,2.5
		c2.3,0.3,4.6,0.7,6.9,0.6c12-0.4,23.9-1,35.9-1.2c4.2-0.1,8.5,0.7,12.6,1.7c4.8,1.1,9.8,2.2,14.2,4.5c7.5,4,11.1-7.5,18.3-3.9
		c8.6,4.3,11.5-3.2,15.9-8C3034.7,749.2,3037.8,747.4,3040.6,745.1z"/>
	<path onclick="modal(this.id);" id="235" class="st0" d="M2151.7,1372.2c6.1,8.5,11.8,10.4,20.7,1.4c2.7,3.5,5.3,7.1,8.2,10.5
		c8.1,9.7,16.3,19.3,24.6,28.9c4.3,5,8.8,9.9,13.3,14.9c0.9,1,1.9,2.2,3.1,2.4c14.2,3.4,26.1,13.3,41.1,14.4
		c12.2,0.9,23.1,5.4,33.3,12.1c6,3.9,12.7,6.7,20.4,9.2c2.1-9.5,4-18,5.9-26.7c7.6,1.1,14.4,0.6,19.8,3.2c10.8,5.2,22,9.4,32.5,15.2
		c5.5,3,11.2,5.9,17,8c2.4,0.9,5.8-0.2,8.5-1.1c3.7-1.2,7.2-3,11.4-4.8c0.4-5.3-2.3-9.9-5.3-14.2c-2.6-3.7-4.4-7.4-3.8-12
		c0-0.3-0.1-0.7,0-1c1.5-4.3-5.3-5.5-3.5-10.5c1.2-3.1,0.1-7.1-0.3-10.7c-0.8-6-0.9-11.9,2.2-17.7c10.1-1.5,20-2.6,30.6-1.5
		c19.4,2,39,3.4,58.6,2.6c19.6-0.8,38.1,4.4,55.6,13.1c5.9,2.9,8.6,8.3,10.3,14.1c2.4,8.3,4.3,16.7,6.4,25.1
		c0.4,1.6,0.5,3.5,1.4,4.7c8.7,12.4,7.2,28,12.9,41.3c0.6,1.5,0.9,3.1,1.6,5.7c-13.8-1.3-26.9-2.6-39.5-3.8
		c-12.1,12.9-12.2,28.5-12.3,43.7c0,4.4,4.9,9,8,13.1c1.3,1.7,3.7,2.7,6.4,4.4c-1,2.4-1.7,4.9-3,7c-4,6.9-8.2,7.4-14.3,2.7
		c-4.9-3.8-10.4-6.7-15.5-10.3c-3.4-2.4-6.6-2.9-10.2-0.8c-4.1,2.5-8.2,1.6-12.5,0.4c-5.3-1.5-10.9-3.7-16.1,0.9
		c-3.1-5.2-6.6-9.7-8.6-14.8c-0.9-2.2,0.7-5.6,1.7-8.3c5.3-14.4-4.9-34.2-19.7-37.9c-5.4-1.3-9.5-0.1-13.4,4.1
		c-6.8,7.2-13.9,14.2-21.3,20.8c-3.2,2.8-4.6,5.3-3.2,9.4c3.2,10.1,8.3,19,16.5,25.7c3.2,2.6,7.6,3.7,11.6,5.3c4.3,1.7,8.6,3.1,14,5
		c-0.8,3.4-1.3,6.2-2.2,8.9c-8.9,26.2-15,52.9-14.8,80.8c0.1,10.3-13.7,27.7-23.7,29.3c-1.8,0.3-3.9-0.5-5.8-1
		c-7.1-1.7-14.4-3-21.3-5.3c-4.9-1.6-7.7,0.4-10.2,3.8c-4,5.3-6.1,11.2-4.8,17.8c1.9,9.6,5.4,18.4,13.6,24.8
		c7.9,6.1,15.3,12.8,23.3,18.8c6.3,4.8,11.1,10.3,11.8,19.1c-2.4,2.3-5.2,5-8.2,7.8c-5.6-0.3-8.5-4.6-11.7-8.3
		c-6.7-8-14.1-9.6-22.8-4.4c-5.3,3.1-5.9,8.4-6,14.5c-1.5,0.6-3.4,0.9-4.9,2c-7.7,5.3-9,12.9-3.4,20.7c1.9,2.7,4,5.2,6.7,8.6
		c-2.2,2.5-4.3,5-6.6,7.1c-2.4,2.3-5.1,4.2-7.4,6.2c-3.2-1.4-5.9-3.4-8.9-3.9c-5.3-0.9-8.2-3.9-9.4-8.8
		c-3.2-13.7-10.2-14.5-20.7-16.5c-6.7-1.2-11.3,3.2-14.9,8.3c-4,5.7-3.9,12-0.8,17.9c2.3,4.5,5.4,8.5,3.5,14.4
		c-8.7,3.5-15.9-4.8-24.3-2.8c-3.1-21.2-6.5-24.7-23.8-23.4c-1.6,4.2-4,8.8-5.2,13.8c-1.2,5-4.5,7.1-8.5,8.7
		c-6.1,2.4-12.6,4-18.6,6.7c-5.7,2.5-11.1,6-17.4,9.5c-1.9-4.1-3.9-8.2-5.7-12.2c-5.6-12.3-17.2-14.5-27.2-5.1
		c-5.3,4.9-6.1,7.7-5,17.9c-10.3,0.9-20.8-6.7-30.4,0.2c-9.8-6.4-10.4-6.5-24-3.5c2.6-10.9-2.1-19.5-8.8-27.2
		c-6-6.9-10.1-7.4-17-1.2c-5,4.5-8.6,10.7-13.7,17.3c-3.1-1.6-7.5-3.6-11.7-6c-5.5-3.1-11.1-6.2-16.1-10c-3.6-2.7-6.7-6.3-9.5-9.9
		c-6.5-8.2-14.2-11-23.6-7.9c-7.6,2.5-10.3,7.7-7.9,15.5c1.5,5,3.4,10,5.1,15c-3.3,2.8-6.4,1.2-9.3-0.2c-7.1-3.6-13.8-4.5-19.9,2.3
		c-0.9,1-2.9,1.4-4.3,1.3c-6.3-0.8-11.9,0.6-16.3,5.2c-10.3-7.9-13.8-7.6-24,2c-4.6-12-8.3-24-9.5-36.5c-1.1-11.5-1.5-23.2-2.2-34.8
		c-0.3-5.8-0.2-11.1,5.9-14.6c6.6-3.8,13-6.5,20.7-3.4c6.2,2.5,12.5,4.6,18.8,6.6c7.8,2.4,13.5-0.3,13.6-7.9
		c0.3-18.6,2.4-37.3-2.1-55.7c-1.1-4.3-4.1-8.3-7-11.8c-14.6-17.7-29.5-35.1-44.2-52.8c-4.6-5.5-9.7-11-5.9-19.4
		c0.8-1.8-0.3-4.4-0.5-6.5c13.2-6.9,26-13.7,40.3-21.2c3.6,1,6.7,5.2,9.8,9.6c4.1,5.6,8.8,10.7,13.4,16c3.8,4.4,8.5,4.8,13.5,2.3
		c1.2-0.6,2.6-1,3.6-1.8c7.4-6.2,14.9-6.2,22.8-1.1c4.1,2.7,8.3,1.6,12.2-0.9c2.5-1.6,4.8-3.5,7.1-5.2c3.7,1.7,7.1,3.8,10.8,4.8
		c9.1,2.6,14.2-0.6,16.6-9.9c0.2-0.6,0.2-1.3,0.4-1.9c1.9-4.7,6.6-8.5,4.2-14.7c-3.9-9.8-5-21-14.5-27.7c-2.6-1.8-5.7-3.8-8.7-4
		c-14.1-0.9-24-9.2-33.2-18.5c-2.3-2.3-3.6-6.7-3.4-10c0.7-13.2,2.2-26.3,3.5-39.9c2.5,0,4.4-0.2,6.3,0c10.9,1.2,21.1-0.5,30.6-6.6
		c2.2-1.4,5.5-1.7,8.3-1.7c6.7-0.1,8-1.1,8.4-7.9c0.1-1.7,0.4-3.5,0-5c-3.2-9.8,2.4-16,8.4-22.5c7-7.6,13.7-15.4,20.5-23.1
		c1.3-1.5,2.7-3,4.4-4C2118.9,1392.4,2135,1382.5,2151.7,1372.2z"/>
	<path onclick="modal(this.id);" id="229" class="st0" d="M1971,508.9c5.7,4.4,10.5,8.1,16.7,13c0,0.8,0.1,3.8,0,6.8c-0.1,3.8,2,6.8,2.9,10.1
		c3.1,10.9,11.1,17,19.1,23.8c4.1,3.5,5.7,9.6,9.5,13.6c7.6,8.1,15.8,15.8,24.1,23.3c3.9,3.6,8.5,6.4,12.7,9.6c5,3.8,9.6,8.5,17,4.7
		c1.3-0.7,5.1,0.7,6,2.2c11,18.2,27.6,31.3,41.8,46.6c0.2,0.2,0.3,0.6,0.5,0.8c-2.9,12.2-6.8,24.2-8.3,36.6
		c-1.1,8.7,0.4,17.9,2.2,26.6c1.1,5.1,6.5,7.2,11.7,7.1c5.5,7.7,5.4,16.6,6.8,25c1.3,7.4,0.9,15.6,9.5,19.5c0.7,0.3,1,1.7,1.6,2.5
		c4.5,6.9,9.6,13.6,13.4,20.9c5.6,10.9,15.6,17.8,22.7,27.3c3.2,4.3,8.2,3.9,12.8,4.3c4.2,0.3,8.5-0.1,13.1,4.2
		c-5.8,4.3-10.5,9.7-16.3,11.5c-10.5,3.2-18,9.8-25,17.4c-3.2,3.5-6.9,5.4-11,7.6c-8.1,4.5-15.9,6-25.1,5.8
		c-9.5-0.2-19.1,1.7-28.6,3c-3.5,0.5-7,1.8-10.3,3.3c-9.1,4.4-18.6,7-28.8,6.6c-16.7-0.7-33.1,0.4-49.4,5.1
		c-8.7,2.5-18.2,2.5-27.5,1.8c-6.8-0.5-13.9,0.8-20.6,2.3c-9.5,2.1-13.8-0.1-18.2-8.7c-6.8-13.3-14.4-26.2-28.6-33.5
		c-6.1-3.1-10.8-7.7-12.5-14.8c-0.2-0.6-0.3-1.4-0.7-1.8c-14.5-14.4-24.8-34.5-49.2-35.1c-6.9-0.2-9,1.1-9.2,8
		c-0.1,2.7-0.2,5.4,0.3,8c3.6,18.3-6.3,31.1-17.7,43.1c-3.6,3.8-9.1,3.5-13.7,0.8c-4.7-2.7-4.6-6.3-3.4-11.1
		c2.8-11,2.3-12.1-8.8-15.8c-21.1-7.1-15.5-10.6-32.3,6.8c-6.5-4.5-13.8-8.5-19.6-14c-10.3-9.8-21.3-17.9-34.6-23.1
		c-4.9-1.9-9.8-4.4-14.1-7.4c-3.7-2.6-6.7-6.3-9.6-9.8c-3.1-3.8-3.2-7.6,0.3-11.7c3.7-4.3,7.1-8.9,10.1-13.6
		c2.3-3.6,4.3-7.5,5.5-11.5c3-10.6,1-15.7-8-22.3c-8-5.9-15.9-12.1-24.2-17.6c-10-6.6-19.4-13.7-27.1-23.2
		c-7.2-8.8-16.8-11.1-27.8-8c-10.6,3-21.2,5.7-31.8,8.3c-7,1.7-20.4-3.6-23.5-9.6c-1.1-2.3-1-5.8-0.1-8.3c2.3-6.7,8.5-8.9,14.5-11.2
		c9.1-3.4,17.5-7.7,25.1-14c8.7-7.3,7.9-15.9,3-25.1c-1.8-3.4-4.8-6.4-7.6-9.1c-17.8-17-35.7-33.9-53.6-50.8
		c-4.9-4.7-7.3-9.9-5.7-16.9c0.9-3.8,0.7-7.9,0.9-11.9c0.5-8.5,3.9-15.1,11.3-19.8c3.6-2.3,6.9-5.2,9.6-8.5
		c3.5-4.1,4.2-8.7,1.5-13.9c-4.7-9.2-8.8-18.7-13.6-27.8c-4.1-7.7-3.2-14.5,1.5-21.4c9-0.8,15.7,3.3,21.8,8.6
		c10.8,9.4,23.3,12,37,9.4c5.9-1.1,11.4-1.9,17,1.6c5.2,3.3,11,1.8,16.5,0.3c5.1-1.3,8.7-0.6,13.1,3.6c6.1,5.8,13.9,10.3,21.6,13.9
		c15.5,7.3,30.1,15.8,43,26.8c5.9,5.1,10.8,11.7,15,18.4c7.5,11.9,27.9,22.3,41.7,20.1c7.9-1.2,15.7-2.7,23.6-3.3
		c4.8-0.4,9.8,0.3,14.5,1.3c5,1.1,8.2,3.5,9.4,9.7c3.4,16.5,22.8,23.6,35.9,12.8c9.4-7.7,17.7-17,25.8-26.2
		c6.6-7.5,13.9-12.4,24-14.6c8-1.7,15.5-5.8,23-9.3c4.9-2.3,9.5-4.3,15.2-2.2C1959.8,519.7,1965.7,513.7,1971,508.9z"/>
	<path onclick="modal(this.id);" id="223" class="st0" d="M2374.3,653.1c-6.9-2.3-13.2-4.2-19.3-6.7c-2.6-1.1-5.2-3.1-6.9-5.4c-6.8-9.1-12.8-18.6-16-29.7
		c-0.3-1,0-2.3-0.6-2.9c-8.5-8.9-8-19.7-7.2-30.8c0.2-2.5-1-5.1-1.5-7.7c-1.5-6.8-3.3-13.5-4.3-20.4c-0.9-5.8-2.4-10.1-9.1-11.1
		c-5.4-0.8-10.4-3.7-16.4-2.2c-2,0.5-6.5-1.8-7.3-3.9c-4.7-11.8-14.5-18.6-23.7-26.2c-6-4.9-10.1-10.2-6.7-18.8
		c1.2-3-0.4-7.1-0.8-10.7c-0.9-7.9-1.4-15.9-2.7-23.8c-1.3-8.2-3.4-16.1-7.9-23.4c-3.1-5-5.8-10.5-7.5-16.2
		c-3.6-12.3-10.1-22.3-20.2-30c-2.3-1.8-4.1-4.2-7.1-7.3c3.3-2.1,6.3-3.9,9.2-5.8c10.7-7.1,17.5-16.2,16.3-29.8
		c-0.9-10.8,1.3-21.1,4.6-31.3c1.5-4.6,2.1-9.7,2.6-14.6c0.8-8.6,6.4-14.6,15-13.5c23.3,2.9,39.5-7.9,53.1-25.2
		c4.7-6,10-11.6,15.8-16.5c17.9-15,32.2-32.6,42-53.8c0.8-1.8,1.2-4.3,2.6-5.3c13.1-9.4,19.7-24.7,31.6-35.2
		c5.4-4.8,10.9-9.7,16.4-14.6c11,4.5,20.3,9.4,27.9,18.8c36.8,45.5,74.4,90.4,111.5,135.6c4.6,5.6,9.8,9.6,16.4,12.3
		c11.7,4.8,23.2,9.9,34.8,15c8.2,3.6,12.8,10.7,10.3,18.7c-3,9.9-0.8,16.9,7.1,23.7c5,4.3,7.6,11.4,11.4,17.5
		c-8.8,1.7-16.6,3.3-24.6,4.9c-0.5,3.8-0.6,7.1-1.4,10.3c-1.8,7.2-1.3,14.9-6.8,21.4c-3.3,4-3.5,10.1-0.7,16.1
		c2.3,4.9,2.6,10.8,3.3,16.4c1.2,9.2,1.7,18.5,3,27.7c2.7,18.8,1,22.1-17.2,28.6c-8.6,3.1-17.6,5.2-26,7.6
		c-2.2,5.9-4.2,12.1-6.7,18.1c-1.6,3.7-0.4,6.5,1.8,9.2c5.9,7,8.7,14.6,7.6,24c-0.4,3,1.5,6.3,2.6,10.4c24.2,0,48.1,0,72,0
		c1.9,4.9,3.8,8.8,4.9,12.9c3.8,13.2,14.2,22.3,21.3,33.4c0.8,1.2,2.6,1.8,4,2.6c6.2,3.3,8.8,8.1,7.7,15.4c-0.9,6.1-0.7,12.4-1,19.7
		c7.1-0.3,12.8-0.6,19.9-1c0.7,11.2,1.7,22,1.9,32.9c0,2.5-2,5.6-4,7.3c-4,3.4-6.1,7.4-7.6,12.4c-2.3,7.6-5.8,14.8-8.4,22.4
		c-2.5,7.2-4.4,14.5-6.8,22.2c-6.8,1.2-11.4-3.7-16.3-7.3c-2.6-1.9-4.8-4.6-6.7-7.2c-4-5.5-7.7-9.5-16.2-8.1
		c-8.1,1.3-16.2-6.8-18.3-15.2c-0.5-1.9-1-3.9-1.4-5.8c-2.4-12.9-8.2-23.5-18.9-31.6c-8-6.1-15.2-13-19.6-22.3
		c-0.1-0.3-0.3-0.6-0.5-0.9c-4.2-5.9-9.7-8.6-17.1-7.7c-7.4,0.9-4.8,7.6-7.4,12.3c-11.3-0.8-22.8-1.7-34.3-2.5
		c-17.2-1.3-34.4-2.8-51.6-3.7c-17.9-0.9-35.9-1.1-53.8-1.3c-3.8,0-7.7,1.6-11.6,1.9c-3.8,0.3-7.8,0.2-11.6-0.2
		C2384.7,646.5,2378,645,2374.3,653.1z"/>
	<path onclick="modal(this.id);" id="231" class="st0" d="M2363.7,699.9c2.3,11.6-6.2,22.6,0.6,33.6c-2,0.6-2.9,1-3.8,1.1c-9.3,1.4-13.4,4.7-11.8,13.5
		c2.2,12.6-1.8,22.6-8.9,32.3c-4.2,5.8-2.6,12.7-0.4,18.3c3.5,9.1,1.9,17.5-0.5,26.2c-2,7.4-2.6,14.7,5.1,19.4
		c2.3,1.4,5.8,2.9,8,2.1c4.9-1.7,8.2-0.2,11.8,2.7c3.1,2.5,6.6,4.5,10,6.5c5.7,3.4,9.9,8,11.4,14.5c0.9,3.9,3.1,6.4,6.5,8.2
		c2.6,1.4,5.5,3,7.2,5.3c6.5,8.8,14.9,10.7,24.6,6.8c7.7-3.1,12.7-0.5,16.5,6.2c1.3,2.3,2.9,4.5,4.8,6.4c7.3,7.3,11.6,15.9,13,26.2
		c0.5,3.4,2.6,6.6,4.3,10.7c-4.7,9.7-14.8,18.9-8.6,32.2c12.5,1.6,13.7,2.9,16.8,15.4c3.4,13.9,7.2,27.7,10.5,41.6
		c1.1,4.6,3.4,7.5,7.7,9.6c8.7,4.2,17.1,9,25.5,13.7c1.7,0.9,3.5,1.9,4.9,3.3c4.6,4.6,4.2,8.1-1.8,10.5c-10.5,4.2-21,8.5-31.8,11.7
		c-6.6,1.9-13.4,1.3-20.2-2.3c-9.9-5.3-20.5-9.5-31.1-13.6c-10.5-4-17.2-12.1-23.7-20.6c-2.2-2.8-4.3-5.9-6.9-8.3
		c-7.4-6.8-13-7.1-21.5-1.8c-4.8,3-9.7,5.7-14.4,8.8c-2.1,1.4-4.1,3.3-5.6,5.4c-7.5,10.6-14.7,21.4-22.4,31.9
		c-2.5,3.4-3.9,6.5-4,10.8c-0.1,6.3-4.3,8.9-9.9,6.2c-3.2-1.6-6-4.1-9-6.3c-5.7-4.1-11.7-6-18.8-3.9c-2.5,0.7-5.3,0.8-7.9,1.1
		c-7.5,1.1-12.8-1.7-18-7.5c-10.1-11.3-21.4-21.7-29.5-34.8c-0.7-1.1-1.7-2.1-2.8-2.8c-8.5-5.7-17.1-11.3-25.6-17
		c-7.4-5-15.5-9.2-20.4-17.2c-0.8-1.4-2.1-3-3.5-3.4c-13.7-4.6-22.8-15.9-34.5-23.4c-1.9-1.2-3.8-2.6-6.2-4.2
		c-3.3,3.4-6,7.5-9.7,9.6c-3.6,2-8.3,1.9-12.3,2.6c-8.6,23.3-3.8,30.3,15.9,40.5c-2.3,7.9-4.7,16-7.3,24.9
		c-5.6-0.6-10.1-0.8-14.6-1.6c-8.2-1.4-8.2-1.6-12.5,5.1c-0.9,1.4-1.4,3-2.5,5.6c-8.5-12.7-19-17.9-29.6-23.3
		c-5.1-2.7-9.7-6.8-13.9-10.9c-4.5-4.3-8.4-8.5-15.5-6c-4,1.4-7-0.8-8.8-4.5c-1.5-3.3-2.9-6.7-4.4-10.1c-2-4.6-3.3-9.7-6.3-13.5
		c-8.5-11-13.9-23.3-18.7-36.1c-4.7-12.6-13.9-20.7-28-22.5c-10.9-1.5-21.1-5.1-30.7-11.1c-4.8-3-6.8-5.6-5.2-10.9
		c0.6-1.9,0.7-3.8,1.2-7.1c9.5,4.1,18.4,2.4,27.2-0.8c0.9-0.3,2-0.3,3-0.3c18.8,1.7,36.9-1.8,55.3-5.6c10.9-2.3,22.5-1.7,33.8-1.7
		c9.2,0,17.9-1.6,25.9-6.2c5.4-3.1,11-4,17.2-4c6.3,0,12.5-1.2,18.8-1.9c0.7-0.1,1.4-0.4,2-0.3c10.1,2.1,18.8-0.7,27.7-6
		c4.3-2.5,8.3-4.7,11.8-8.4c6.7-7.2,13.6-13.9,24.2-16.6c6.1-1.6,11.5-7.7,16.2-12.7c4.3-4.5,2.4-9.6-3.8-11.3
		c-4.7-1.3-9.8-1.6-14.7-2.5c-1.9-0.4-4.3-0.6-5.5-1.8c-5.8-6.2-11.8-12.4-16.9-19.2c-7.7-10.3-16.9-19.8-20.9-32.5
		c-10.8-6.1-9-17.1-10.4-26.9c-0.8-5.4-2.2-10.8-3.5-16.7c-0.7-0.3-1.8-1-3.1-1.2c-9.9-1.8-9.5-1.9-11.6-11.3
		c-1.9-8.4-2.1-16.3,0.7-24.5c1.9-5.6,2.1-11.7,3.6-17.5c2.7-10.9,5-12.6,15.7-10.8c6.5,1.1,11.2,0.1,15.2-6
		c3.9-6.1,8.7-6.6,15.7-3.9c1.5,0.6,3.1,1.7,4.6,1.8c12.9,0.7,25.8,1.3,38.7,1.7c8.2,0.2,16.5,0,24.7,0c10.3,0.1,20.6,0.5,30.9,0.3
		c5.8-0.1,10.4,0,14.8,5.3c9.2,11.1,23,12.6,36.2,12.9c9.3,0.3,15.6,4,21.3,10.8c2.2,2.6,5.5,4.3,8.6,5.9
		C2354.5,696.1,2359.2,697.8,2363.7,699.9z"/>
	<path onclick="modal(this.id);" id="227" class="st0" d="M3055.3,658.3c0.2,4.5,0.7,7.8,0.4,11.1c-0.8,9.5,1.3,18.4,4.3,27.3c1.5,4.6,1.2,9.8,1.5,14.7
		c0.3,6.5,0.2,13.1,0.7,19.6c0.5,7.5,1.5,15,2.4,23c-7.5,0.9-12.1-0.5-15.5-6.9c-4.5-8.4-11.9-8.9-18.6-2c-1.6,1.7-3.2,3.5-4.4,5.4
		c-2.5,4-5.6,4.9-10.1,3.8c-2.6-0.7-6.5-0.8-8.4,0.6c-5.4,4.2-10.7,3.1-15.9,0.9c-8.5-3.7-16.9-4.2-26.1-3.3
		c-13.1,1.3-26.5,2.5-39.5-1.6c-3-1-6.6-0.5-9.9-0.3c-7.8,0.7-14.5-1.8-20.1-7c-4.7-4.4-10.1-7.4-16.3-9.2c-3.1-0.9-6.1-2.7-9-4.3
		c-10.7-5.8-21.4-11.8-32.1-17.6c-1.2-0.6-2.5-1.6-3.6-1.5c-6.3,0.5-10.6-2.8-14.7-6.9c-1-1-3-1-4.8-1.6c-4,6-7.6,11.9-11.6,17.5
		c-3.1,4.3-4.9,4.3-8.6,0.4c-1.1-1.2-2-2.6-3.2-3.8c-0.9-1-2-1.8-3.6-3.2c-3.1,0.9-6.5,2.1-9.9,3c-3.5,0.9-7,2.5-10.4,2.2
		c-8.4-0.5-13.2,3-15.1,11.1c-0.2,0.9-0.9,1.8-1.7,3.2c-7.9,0-16.1,0-24.2,0c-0.3-0.8-0.9-1.4-0.8-1.9c2.7-14.3,5.2-28.7,8.2-42.9
		c0.7-3.3,3.3-6.3,5.3-9.3c3-4.4,6.6-8.6,3.3-14.8c-4.7-0.2-7.9,1.9-10.9,5.3c-6,6.8-13.1,12-23.2,13.8c-0.3-21.1-4.5-41.5,3-62.1
		c3.3-9.2,1.8-20.2,2.4-30.4c0.1-1.6-0.8-3.6-0.1-4.9c7-13.9,0-26.4-3.4-39.3c-1.5-5.4-4-10.7-4.7-16.2c-1.4-10.2,0.7-19.9,8-28.7
		c11.5-0.8,24.6,1.9,35.5-4.8c6.9-4.3,12.3-11,17.7-15.9c0-11.3,0-21.5,0-33.5c7.8,4.1,14.3,6.6,19.7,10.6
		c9.4,6.8,18.5,14,27.1,21.8c4.1,3.7,8.1,5.9,13.3,4.9c13.5-2.5,22.8,4.1,30.8,13.8c2.7,3.3,5.7,6.5,8.2,10
		c8,11.6,17.9,21.3,28.9,29.9c1.9,1.5,4.6,2.2,7.1,2.9c3.8,1,8.3,0.6,11.5,2.6c16.1,9.8,34.5,8.3,52,11.3c1.6,0.3,3.3,0.1,5,0.3
		c8,0.8,15.7,2.1,19.9,10.4c1,2,3,3.6,4.9,5c13.4,9.6,21.6,23.5,29.6,37.2c4.9,8.5,7.6,18.3,11.2,27.6c0.7,1.8,1,3.8,1.5,5.8
		C3039.9,650.4,3044.3,657.3,3055.3,658.3z"/>
	<path onclick="modal(this.id);" id="221" class="st0" d="M2691.9,815.9c-1.7,12.8-3.4,25.8-5.1,39.4c7.3,4,14.9,0.8,22.3,0.8c3,0,6-0.9,8.9-0.6
		c3.7,0.4,4.9,3.7,2.3,6.5c-1.8,1.9-4.1,3.4-6.3,4.9c-10.9,7.6-21.9,15.2-32.8,22.8c-7.9,5.5-8.5,7.1-6.3,16.7
		c4.1,18.4,8.2,36.9,11.9,55.4c1.1,5.4,0.5,11.1,0.9,16.6c0.6,8.6,1.2,17.2,2.2,25.8c1.8,17.4-4.6,32.5-13,47
		c-6.7,11.5-13.4,22.9-19.7,34.6c-1.8,3.4-3.1,7.5-3.1,11.3c0,10.8-5.1,16.9-15.2,20.1c-7,2.3-11.5,7.7-13.6,14.9
		c-4.7-2.9-4.7-2.9-7-8.4c-4.6-1.6-7.3,0.8-10.1,4.1c-5.7,6.8-7.6,6.9-13.5,0.8c-5.7-6-11.8-12.1-15.7-19.2
		c-3.7-6.7-4.7-14.9-7.6-25.2c-8.4-5.7-19.4-13.1-30.2-20.7c-6.5-4.6-12.4-9.9-18.9-14.3c-4.9-3.3-10.2-6.2-15.8-8.3
		c-14.3-5.4-22.6-14.6-24.2-30.3c-0.9-9.2-4.1-18.1-6.4-27.1c-1.9-7.3-5.2-13.4-13.2-16.2c-6.9-2.4-7.1-3.6-3.6-10.1
		c3.4-6.4,7.4-12.5,11.2-19.1c-5.6-5.1-7.7-11.4-8.9-18.5c-1-6-3.5-11.7-8.6-16.3c-5-4.6-8.3-11-12.7-17c12.8-6.8,25-13.5,37.4-19.8
		c2.1-1.1,5.4-1.3,7.7-0.6c6.6,2.1,12-0.2,16.7-4.1c2.3-1.9,4.7-5.5,4.5-8.1c-0.9-12.5,3.1-25.4-3.6-37.5
		c12.4-9.3,5.8-21.5,5.8-32.6c0-15-14.7-15.3-23.2-22.5c1-1.6,2.3-3.1,3-4.8c1.3-3,3.9-6.5,3.2-9c-2.2-7.6-0.7-15.9-5.2-23.1
		c-1.8-2.9-2.2-6.9-2.3-10.5c-0.6-16.9-1-33.8-1.3-50.7c0-3.2,1.1-6.4,1.9-10.8c24.5,2.2,48.5,4.3,72.6,6.4
		c1.4,10.2-6.4,11.5-11.9,15c-2.6,14.2,2.4,27.4,6.1,40.7c2.9,10.2,6.6,20.2,9.9,30.3c0.1,0.3,0.4,0.6,0.4,0.9
		c-3.1,19.3,9.6,34,14.6,50.9c1.7,5.6,2.4,11.6,3.9,17.3c1.1,4.1,1.9,8.6,4.2,12c1.8,2.6,5.8,5.3,8.7,5.2c7.8-0.2,13.6,3.4,18.6,8.2
		c3.9,3.8,7.2,3.7,11.5,1.3c15.1-8.4,30.3-16.6,45.4-25.1C2678.2,809.7,2680.1,809.6,2691.9,815.9z"/>
	<path onclick="modal(this.id);" id="237" class="st0" d="M2972.2,1958.9c-5.1,20.7-19,33.4-39.2,38.6c-9.7,2.5-17.1,6.9-22.8,14.6
		c-2.8,3.7-5.4,6.8-10.7,4c-1.2-0.6-3.3-0.2-4.7,0.3c-12.1,4.6-24.1,9.5-34.6,17.6c-4,3-5.8,6.6-6.7,11.6c-1.3,8.1-3.7,16.1-5.7,24
		c-6.2,0-11.7,0.2-17.2-0.1c-12.1-0.7-18.8-8.6-21.9-18.9c-3.5-11.8-10.5-18.5-22.1-21.8c-10.2-2.9-20.1-6.7-30.1-10.5
		c-2-0.8-3.4-3-5.3-4.2c-4.5-2.7-8.9-5.9-13.8-7.6c-9.2-3.2-13.9-0.2-17,10.1c-16.6-4.1-33.2-8.1-50-12.2c2.2-8.6,7.2-12.1,15.1-13
		c11.6-1.2,23.1-3,34.6-4.6c4.2-0.6,8.4-1.4,13.1-2.3c4.1-13.4-1.2-24.3-8.4-34.3c-6-8.4-12.9-16-19.8-23.7
		c-6-6.7-9.3-14.4-6.7-22.9c2.8-9.1-0.6-16.3-4.6-23.6c-7-12.9-14.1-25.6-21.2-38.4c-1.3-2.3-2.4-5.2-4.5-6.4
		c-11.6-7.1-16.8-19.4-25.4-29.5c0.5-2.7,0.9-5.6,1.6-8.5c2.9-11.3,12.6-17.6,24.3-15.8c1,0.1,1.9,0.7,2.9,0.8
		c10.5,1.7,10.5,1.7,12.9,12.7c2.7,12.8,20.2,27.7,34.2,28.1c7.5,0.2,15.2-1,22.6-2.4c8.5-1.6,16.7-4,25.7-6.3
		c4.3,5.7,8.6,11.1,12.6,16.8c2.2,3.2,4.6,4.4,8.4,3.9c5.2-0.7,10.5-1.2,15.8-1.7c8.4-0.8,15.7,2.4,22.4,6.8c1.6,1.1,2.1,4,3.1,6
		c2.8,5.3,4.7,11.3,8.5,15.6c11.1,12.6,19.3,26.7,26.8,41.6c2.9,5.7,7.9,11.1,13.3,14.6c3.8,2.5,9.9,1.5,16.6,2.3
		c3.6,2.5,9.2,5.6,14,9.6c11.6,9.5,23.2,6.7,35.2,1.2c3.8,5.1,7,10.9,11.6,15.3C2959.9,1951,2965.8,1954.3,2972.2,1958.9z"/>
	<path onclick="modal(this.id);" id="228" class="st0" d="M2190,480.4c5.7,2.1,10.3,4.1,15,5.3c2.8,0.7,5.8,0.4,8.7,0.2c4.9-0.3,9.7-1,14.6-1.2
		c6.4-0.2,7.5-1,7.9-7.4c0.1-2.3-0.1-4.7,0.1-7c0.5-7.1-2.2-12.1-8.6-15.4c-3.2-1.7-6.2-3.9-9.3-5.8c-8.4-4.9-12.4-12.2-9.8-21.6
		c1.8-6.4-0.6-10.7-3.8-15.6c-5.8-8.9-11.1-18.1-17.3-28.4c3.3-1,5.5-1.7,7.8-2.3c2.5-0.7,5.1-1.2,7.9-1.8
		c4.9,4.4,10.2,8.5,14.7,13.3c5.5,5.8,10.3,12,12.3,20.2c1.4,5.7,3.4,11.7,6.8,16.5c7.2,10.3,9.5,21.9,10.5,33.8
		c0.9,10.8,4.3,21.6,0.6,32.6c-0.6,1.8,0.4,4.8,1.8,6.3c4.7,5.1,9.4,10.6,15.1,14.4c5.9,3.9,9.7,8.7,13,14.7c2,3.6,5.2,6.8,8.4,9.5
		c1.5,1.3,4.2,1.5,6.4,1.6c1.9,0.1,3.9-1,5.8-0.9c10.7,0.6,14,4.1,15.2,15.1c0.3,3,0.9,5.9,1.8,8.8c2.5,7.9,5,15.6,3,24.2
		c-0.7,3.3,0.3,7.4,1.7,10.6c6.3,13.5,12.8,26.8,19.7,40c3.5,6.6,9,11.3,16.7,13.1c5.1,1.2,10,3.4,15.3,5.2
		c-1.5,12-4.7,22.8-12.7,32c-6.8-0.4-11.9-3.4-16.3-9.2c-4-5.2-9.8-8.6-17.2-8.6c-6.9-0.1-13.9-0.9-20.8-2.2
		c-7.8-1.5-13.7-6.7-18.5-12.6c-3-3.6-6.1-4.7-10.3-4.4c-5.9,0.5-11.9,1.4-17.8,1.2c-8.6-0.2-17.2-1.3-25.8-1.9
		c-14.8-1-29.8,3.1-44.6-1.2c-6.5,2.6-12.2-0.5-18.1-2.7c-7.4-2.7-13.6,0.5-19,5.2c-2,1.7-3.4,4-5,6.1c-2.9-0.3-5.6-1.3-8.1-0.9
		c-10.2,1.8-16.7-3.7-22.9-10.7c-8.6-9.7-17.7-18.9-26.3-28.6c-2.4-2.7-3.8-6.1-6-9.7c-0.3-0.1-1.2-0.7-2.1-0.6
		c-16.2,2.3-26.4-8.8-37.3-17.5c-7.4-5.9-13.5-13.4-20.1-20.3c-1.5-1.6-2.5-3.8-3.8-5.6c-2.1-3-3.6-7.2-6.5-8.5
		c-11-5.1-13.4-16.3-19.2-25c-0.9-1.4-0.7-3.6-1.1-6.6c13.1,3.2,21.6-3.4,29.1-11.8c8.7,1.9,17.1,3.4,25.3,5.7
		c2.2,0.6,3.9,3.4,5.8,5.2c6.2,5.9,11.9,12.5,20.7,15.1c4.1,1.2,7.7,1.3,11.5-0.6c7.7-3.8,15.5-7.5,23.8-11.5c4,4.7,9.1,8,16,7.7
		c1.7-0.1,3.4,2,5.2,2.5c4.4,1.2,8.8,2.9,13.3,3c5.9,0.1,11.8-1.4,17.7-1.6c13.2-0.4,23.3-7,32.6-15.4c1.9-1.7,2.9-5.3,2.8-7.9
		c-0.3-4.9-1.4-9.8-2.7-14.6C2191.6,494.8,2189,488.3,2190,480.4z"/>
	<path onclick="modal(this.id);" id="236" class="st0" d="M2729.8,1980.2c-16.7,2.4-32,4.9-47.5,6.7c-6.6,0.7-11,3.1-14.4,8.8c-4.6,7.6-9.1,8.6-17.1,5
		c-0.6-0.3-1.2-0.9-1.8-0.9c-22.6-1.7-34.4-19.9-49.1-33.1c-6-5.4-12-12.5-13-21.8c-0.2-2.2-1.6-4.4-2.8-6.3
		c-3.7-5.8-7.6-11.2-9.1-18.5c-0.9-4.6-5.5-9.1-9.4-12.5c-7.9-6.6-11.5-6-19.8,0.6c-4.4,3.5-9.4,6.3-13.5,10.2
		c-3.2,3.1-5.4,7.3-8.4,11.4c-1-1.4-2.3-3.5-3.9-5.3c-4.5-4.8-9-9.7-13.8-14.1c-6.9-6.3-14.6-12-12.7-23.1c0.3-1.5-0.5-3.2-1-4.8
		c-1.7-5.7-3.8-11.3-5.2-17.1c-1.4-5.8-2-11.7-3.1-17.9c1.6-1.2,3-2.6,4.7-3.5c8.1-4.5,9.9-9.9,4.4-17.5c-2.5-3.5-4.2-6.7-3.1-10.9
		c1.6-5.8-3.8-9.8-3.3-15.9c0.5-5.9,1.5-9.8,6.8-12.8c8.3-4.6,9.2-7.8,4.6-16c-1.8-3.3-2.2-6.5-2.6-10.2c-0.7-6.1-3-12-5.3-17.8
		c-3.2-7.9-3.2-11.2,3.1-16.8c12.9-11.2,27.3-16.8,44.9-13.3c11.3,2.2,23,2.5,35.4,3.7c3.5,15.9,16.5,25.7,27.8,37
		c8,7.9,16.7,13.6,28,15.8c7.3,1.4,13.1,13,11.2,20.5c-0.7,2.9-1.6,5.8-2.4,8.7c-1.6,6.2-0.4,11.2,3.7,16.6
		c6.9,8.9,12.8,18.4,22.1,25.2c3.2,2.3,4.5,7.2,6.6,11c6.9,12.5,13.8,25,20.8,37.5c2.2,4,3,7.9,1.8,12.4
		c-3.3,12.8,0.8,23.3,9.7,32.7c10.7,11.3,22.1,22.4,25.6,38.5C2729.3,1974.5,2729.3,1976.8,2729.8,1980.2z"/>
	<path onclick="modal(this.id);" id="224" class="st0" d="M2618.7,382.1c8-5.6,19.7,0.2,27-9.1c-5.2-7.8-9.1-16.7-15.7-22.8c-6.5-6.1-7.4-11.8-5.5-19.3
		c0.6-2.2,1.3-4.4,2-7.1c3.9-0.7,7.7-1.3,12.4-2.2c3.8,5.8,7.9,11.4,11.2,17.5c9.5,17.9,20.1,17.7,35.9,15.3
		c4.2-0.6,8.2-2.8,12.5-3.5c11.1-2,22.2-3.7,33.3-5.5c1-0.2,2.2-0.2,3,0.2c9,4.7,19.7,5,28,11.9c4.6,3.8,11.3,5.2,17.1,7.5
		c3.6,1.5,7.4,2.7,12.5,4.6c-8.8,8.4-16.6,15.9-24.4,23.3c-3.3,3.2-7.2,6-9.9,9.7c-1.5,2-1.7,5.6-1.2,8.1
		c3.3,16.6,7.8,32.9,3.8,50.1c-1.3,5.3-0.2,11.2-0.2,17.9c-6.1,6.2-12,14.8-22.8,16.3c-9.5,1.3-19.1,1.7-28.7,2.4
		c-10.8,15.5-11.3,31.7-4.3,49.1c3.3,8.2,4.7,17.2,6.9,25.9c0.3,1.2,0.4,2.8-0.1,3.9c-5,11.7-1.8,24.1-3.5,36
		c-1.5,10.7-4.9,21.2-7.5,31.9c-4.8,0.3-8.7,0.6-13.3,0.9c0.3-5,0-9.6,1-13.9c2.3-9.7-2-15.7-9.8-20.3c-1.4-0.8-2.9-1.7-3.9-3
		c-10.2-13.4-21.2-26.4-23.5-44.8c-24.7-0.8-49.1-1.5-74.6-2.3c-0.3-12.3-1.4-24.3-10.1-33c1.9-6,3.5-11.3,5.4-17.4
		c6.3-2.1,13.7-3.9,20.7-6.9c7.3-3.1,14.3-6.9,21.2-11c1.8-1.1,3.4-4.3,3.2-6.3c-0.9-11.5-2.4-23-3.5-34.6
		c-0.4-4.3-0.3-8.6-0.8-12.9c-0.8-5.9-2-11.7-2.9-17.6c-0.4-2.8-1.5-6.8-0.1-8.4c7.3-8.5,6.1-19.3,8.6-29.1
		C2618.1,383.1,2618.4,382.6,2618.7,382.1z"/>
	<path onclick="modal(this.id);" id="230" class="st0" d="M2477.3,650.7c0.8,18.1,1.6,34.2,2.1,50.4c0.1,2.9-1.7,5.8-1.5,8.7c0.4,6.2,0.7,12.3,3.5,18.4
		c2.8,6.1,3.5,13.3,4.2,20.1c0.2,2.1-2.4,4.5-3.7,6.8c-4.2,7.1-3.4,10.6,4.4,13.7c5.6,2.2,7.4,9.4,14.4,9.8c1.1,0.1,2.4,4.5,2.8,7
		c0.6,4.3,0.5,8.6,0.9,12.9c0.4,4.9-0.6,9-4.7,12.4c-3.5,2.9-5.3,5.9-1.5,10.9c3.7,5,4.2,11.7,3,18.2c-0.5,2.9-0.8,5.9-0.6,8.9
		c0.4,6.7-3.1,11.3-9.7,12.2c-0.7,0.1-1.4,0.2-2,0c-10.1-3.9-17.7,1.8-25.8,6.3c-8.1,4.6-16.2,9.4-24.8,12.9
		c-7.6,3.1-15.9,4.6-24,6.3c-1.9,0.4-4.4-0.9-6.2-2.1c-2.2-1.5-3.6-4.1-5.8-5.4c-7.4-4.3-12.4-10.2-15.5-18.3c-1.4-3.6-5.6-6.4-9-9
		c-4.2-3.3-8.9-5.9-13.1-9.1c-3.4-2.5-6.4-3.8-11-2.4c-6.5,1.9-11.5-3.1-10.6-9.8c0.3-2.3,1.2-4.5,1.7-6.8
		c1.6-8.7,3.6-17.2-0.3-26.2c-2.6-6.1-2-12.6,2.8-18.6c6-7.5,8.6-16.3,6.5-26.2c-0.5-2.5-0.5-5.5,0.2-7.9c1.1-3.5,3.8-4.5,7.7-4.4
		c6.9,0.1,9.1-3,6.7-9.5c-2.1-5.7-1.4-11-0.3-16.5c1.4-6.8,3.6-13.5-1.8-19.9c-0.9-1.1-0.2-5.1,1.1-6.2c6.3-5.3,6.2-12.9,8.3-19.8
		c1.2-3.8,2.2-7.7,3.5-11.4c1.6-4.2,4-6.3,9.2-4.9c7.5,2.1,14.8,0.1,22.4-1.1c10.4-1.6,21.3-0.4,31.9-0.4
		C2454.1,650.7,2465.4,650.7,2477.3,650.7z"/>
	<path onclick="modal(this.id);" id="225" class="st0" d="M2842.4,479.3c-6.9,0-12.5,0.4-18-0.2c-2.3-0.2-4.8-2.1-6.5-3.9c-12.5-12.7-27.1-22.5-42.9-30.3
		c-5.5-2.7-8-6.4-8.6-12.1c-0.8-7.3-1.2-14.6-3.1-21.7c-1.1-4.4,0.2-6.9,2.9-9.6c0.2-0.2,0.4-0.5,0.7-0.7
		c14.9-9.7,25.4-23.6,36.3-37.3c5.9-7.3,8.6-14.6,8.5-23.5c0-6,0.1-12,0-18c-0.2-8,1.3-14.7,8.4-20c4.6-3.4,7.6-9.1,11.2-13.9
		c7.9-10.2,22.5-10.7,30.9-1c1.3,1.5,2.4,3.3,4,4.4c8.6,5.9,13.5,13.3,11.7,24.3c-0.8,4.6,3.2,6.1,6.9,7.1c8,2.1,16,4.1,25.3,6.5
		c-5.1,7.8-9.5,15.1-14.4,22.2c-6.9,9.9-7,11.3-0.6,21.3c1.2,1.9,2.6,3.9,3.2,6.1c3.9,14.3,7.6,28.6,11.2,42.2
		c-3.2,6.2-7.1,6.3-12.1,4c-5.7-2.5-11.6-5.1-17.6-6.5c-3.2-0.8-7.4-0.1-10.3,1.4c-11.8,6.1-23.3,12.8-34.9,19.3
		c-1.1,0.6-1.9,1.8-2.3,2.2C2835.7,454.2,2838.8,466,2842.4,479.3z"/>
	<path onclick="modal(this.id);" id="226" class="st0" d="M2840.5,443.3c11.1-6.4,21.3-12.7,31.9-18.1c2.8-1.4,7.1-1.3,10.2-0.3c5.3,1.7,10.3,4.7,15.5,6.9
		c8.3,3.6,17.2-2.1,15.9-10.9c-1.4-10.1-2.4-20.4-7.2-29.7c-1.2-2.3-2.2-5-2.2-7.6c-0.1-5.9-1.7-11.1-5.8-15.4
		c-3.4-3.5-2.6-7,0-10.7c4.7-6.8,9.1-13.9,13.6-20.9c2.1-3.3,4.5-5.5,8.7-5.5c7.9,0.1,15.8,0,24.6,0c-0.8,8.6-1.6,16.7-2.1,24.9
		c-0.9,13.8-4.7,26.7-11.7,38.6c-5.3,9-4.8,16.8,1.3,25.7c12.6,18.7,23.6,38.5,36.3,57.2c5.3,7.8,8.9,16.9,16.5,23.2
		c1.5,1.2,2,4.1,2.2,6.3c0.3,4.6,0.4,9.3,0,14c-0.2,2.5-1.2,5.5-2.9,7c-5.5,5-6.3,10.5-3.6,17.1c0.6,1.5,0.7,3.2,1.1,5.5
		c-4.7,0-9.2,0.4-13.6-0.1c-10.9-1.1-21.7-2.5-32.6-3.9c-2.9-0.4-6.2-0.6-8.7-2c-7.9-4.4-15.7-8.7-25.2-8.2
		c-1.4,0.1-2.9-1.3-4.2-2.3c-10.4-8.3-19.4-17.8-27.5-28.4c-5.8-7.6-12.6-14.6-19.5-21.2c-3.1-3-4.8-6-5.3-10.2
		c-0.4-3.9-0.9-8.2-2.7-11.6C2840.3,456.5,2839.9,450.1,2840.5,443.3z"/>
</g>
</svg>
