<?xml version="1.0" encoding="utf-8"?>
<!-- Generator: Adobe Illustrator 19.0.0, SVG Export Plug-In . SVG Version: 6.00 Build 0)  -->
<svg version="1.1" id="Layer1" xmlns="http://www.w3.org/2000/svg" xmlns:xlink="http://www.w3.org/1999/xlink" x="0px" y="0px"
	 viewBox="0 0 6000 3000" style="enable-background:new 0 0 6000 3000;overflow: hidden; display: inline; width: inherit; min-width: inherit; max-width: inherit; height: inherit; min-height: inherit; max-height: inherit;" xml:space="preserve">
<style type="text/css">
	.st0{fill:#8FD4EB;stroke:#000000;stroke-width:3;}
</style>
<g>
	<path onclick="modal(this.id);" id="250" class="st0" d="M3101.9,1681.2c8.3-7,16.5-14.3,27.6-16.8c0-16.6,0-32.5,0-48.8c-2.4-1.7-4.7-4.2-7.4-4.8
		c-3.6-0.8-8.2-1.3-11.3,0.3c-11.1,5.7-10.9,6-21.8,4.9c-4-5.1-5.8-9.4-0.1-15.5c5.7-6,4.4-10.3-2.4-16
		c-11.4-9.6-22.8-19.3-34.4-28.6c-6.7-5.4-8.3-12.5-8.2-20.4c0-5.3,2.1-6.9,7.6-6.3c10.5,1.3,20.9,2.6,31.4,3.8
		c1,0.1,2.2,0.1,2.9-0.3c8.4-5.3,16.6-10.7,25.1-16.2c-6.9-16.6-12.7-32.4-23.1-46.1c-7.1-9.3-9.7-20.2-7-32.1
		c2.9-13.3,5.6-26.6,8.2-39.9c0.4-1.8-0.6-3.9-0.4-5.8c0.4-5.2,1.1-10.4,1.8-15.6c0.3-2.3,1.4-4.5,1.3-6.8
		c-0.4-17.3,7.2-33,9.2-49.8c0.5-4.4,2.6-7.5,7.9-7c8.5,0.8,17,1.5,26.5,2.3c3.4-8.5,9.8-16.9,8.6-28c-0.6-5.3,1.5-9.7,5.5-13.3
		c2.5-2.2,5-4.5,7-7.1c6-7.9,13.3-9,22-4.9c5.4,2.6,10.9,4.8,16.3,7.4c4.4,2.1,5.8,5.8,5.8,10.6c-0.1,10.2,3.5,15.2,12.9,18.4
		c9.2,3.2,16.2,8.8,20.4,17.8c8.1,17.7,22.1,29.6,38.7,38.9c5.5,3.1,11.5,5.9,15.6,10.4c6.8,7.5,20,9,28.3,3.4
		c8.5-5.7,15.7-4.9,24.3-0.9c7.8,3.6,16.1,6.1,24.8,9.3c8,30,16.1,60,24.4,91.1c2.3-1.8,4.1-2.6,4.6-3.8c3.4-7.4,9.6-7.8,16.7-7.7
		c15,0.3,30,0,45,0.2c4.3,0.1,7.5-1.1,10.6-4.3c11.1-11.5,22.5-22.8,36.1-31.4c1.3-0.9,3-2.1,3.4-3.4c1.4-5.4,4.9-7.2,10.2-7.6
		c2.4-0.2,5-1.8,6.8-3.4c3.9-3.7,7.4-2.7,10.3,0.7c6.7,7.7,15.9,13,20.8,22.6c1.8,3.5,6.2,5.9,9.9,8c6.9,4,14.1,7.6,21.2,11.1
		c2.4,1.2,5,2.7,7.5,2.6c7.6-0.3,14.3,2.7,21.1,5.4c4.4,1.8,7.9,1.3,12-1.6c13.4-9.7,16.9-9.6,31-0.1c-0.4,0.5-0.7,1.4-1.1,1.5
		c-15.1,2.8-25.1,13-34.1,24.3c-3.1,4-6.1,5-11,4.4c-6.9-0.9-13.9-0.5-20.9-1c-4.7-0.3-7.7,1.5-9.6,5.5c-2.1,4.2-4.4,8.2-6.1,12.5
		c-10.7,26.9-21,53.9-31.9,80.7c-2.4,5.9-2.6,10.7,1.6,15.6c1.5,1.8,3,3.8,3.6,5.9c0.5,2,0.3,4.6-0.6,6.5c-1.4,3.2-3.2,6.3-5.5,8.9
		c-3.8,4.1-4.2,8.9-5.2,14.1c-0.5,3.1-0.4,4.8,1.4,7c3.6,4.6,3.4,9.7,1.9,15.2c-2.9,10.6-5.4,21.3-8,31.9c-0.7,2.8-1.1,5.7-1.8,9.8
		c15.4,2.9,28.7,11.6,44.7,9.5c5.5-0.7,11.2,0,16.8,0.3c8.1,0.5,16.4,8.6,17.2,18c0.6,8.1,3.9,14.2,9,20.4c4.3,5.3,9.2,6.7,14.8,5.4
		c8.9-2.1,17.1-0.6,25.4,2.4c3.4,1.2,7.1,1.5,10.7,1.9c6.4,0.7,11-1.7,13.1-8.1c0.4-1.3,1.1-2.4,1.8-3.6c3.7-6.9,4.1-7.1,11.7-5.5
		c2.3,0.5,4.6,0.9,6.8,1.7c5.9,2.4,10.7,0.9,15.8-2.6c8.5-5.9,11.6-5.6,19.2,1.3c5.2,4.7,9.9,9.8,14.8,14.7c1.4,1.4,2.5,3.4,4.2,4.2
		c4.9,2.3,9.4,9,15,5.4c5.3-3.4,9.4-9.3,10.1-16.4c0.3-3.2,1.1-6.3,1.9-11.5c3.6,9.1,5.8,16.1,5.5,23.9c-0.2,6.6,0,13.4,0.9,19.9
		c1.1,7.8-1.2,13.7-7.8,17.6c-5.2,3.1-7.3,7-6.3,13.2c0.6,3.8-0.2,8-1.2,11.8c-2.5,10-5.5,19.9-8.1,29.8c-1.1,4.2-3.8,6.3-7.6,8.3
		c-6.7,3.4-13.3,7.5-19.1,12.3c-4.8,3.9-6.9,9.7-4.9,16.2c1.4,4.8-0.2,9-3.6,11.7c-9.4,7.5-8.2,17.4-7.3,27.4
		c0.5,5.3,1.9,10.7,1.4,15.8c-1.5,14.4,4.2,26.6,10.6,38.8c2.6,4.9,5.3,9.9,8.5,15.9c-3.6,1.1-6.2,2.1-9,2.7
		c-8.3,1.7-13.1,7.1-16.6,14.4c-3.7,7.8-8,15.2-11.7,23c-1.4,2.9-2.2,6.2-2.9,9.4c-1.2,4.9-3.7,8.8-8.7,9.9
		c-8.2,1.7-13,7.4-17.8,13.5c-5.7,7.3-12.5,13.9-11.4,24.4c0.1,0.8-0.9,1.7-2.1,3.5c-12.3-1.9-25-3.8-37.9-5.7
		c0.7-13.2-0.2-25.8,6.1-37.5c1.3-2.4,1.1-5.9,0.9-8.8c-0.1-1.7-1.6-4.3-2.8-4.5c-1.9-0.4-5.1,0.3-6.1,1.7
		c-5.5,8.4-14.2,14.7-14,26.6c0.2,10-4.9,18.2-15.2,20.9c-7.1,1.9-11.8,5.4-13.1,12.2c-5.7-1.4-10.6-3.3-15.8-3.9
		c-6-0.6-8.8,1.8-9.4,6.5c-0.7,5.3,2.4,7.1,6.9,7.7c0.6,0.1,1,0.7,2.6,1.9c-1.1,2.6-1.6,6.1-3.6,8.2c-5.3,5.7-3.9,11.3,0.3,16.1
		c5.6,6.4,7.9,13.5,7.8,21.9c0,3.5,1,7.5,2.8,10.4c3,4.8,2.1,8.6-0.7,12.8c-3.5,5.2-9,10.3-9.8,16c-1.5,11.4-10.1,15.5-17.4,21.1
		c-4.2,3.1-9.1,5.3-13.9,7.5c-10.1,4.5-18.8,10.2-26,19.3c-7.3,9.2-17.3,16.4-26.2,24.3c-5.9,5.3-12.4,10-17.8,15.7
		c-7.4,7.7-22.7,10.2-30.6,3.3c-8.2-7.2-15.9-15.1-23-23.3c-8-9.3-15-19.3-22.5-29c-1.6-2.1-3.1-4.6-5.2-6
		c-16-11-23.6-28.4-33.8-43.8c-6.4-9.7-12.4-19.7-23.1-25.6c-1.4-0.8-2.2-3.1-2.9-4.8c-3.8-10-7.5-20.1-11.2-30
		c7.1-7,7.3-7.4,9.3-19.1c-2.3,0.1-4.5,0.1-6.6,0.3c-2,0.2-3.9,0.5-5.7,0.7c-2.2-2.8-4.2-5.3-6.7-8.5c1.6-1.3,3.3-2.6,4.8-4.2
		c1.3-1.4,2.4-3.1,3.5-4.5c3.9-0.3,7.5-0.6,11-0.9c4.7-8.2-4.4-17.9,4-24.3c-3.2-7-14.2-5.2-13.2-15c-3.9,0.2-7.1,0.4-11.7,0.6
		c2.3-3.2,3.9-5.1,5.2-7.2c2.1-3.3,4.5-3.8,8.5-2.9c5,1.2,10.3,1.1,16.2,1.6c-0.7-4.2-1.3-7.1-1.8-10.4c1.8-1.1,3.7-2.3,5.6-3.4
		c0.1-0.7,0.5-1.6,0.3-2c-3.3-4.2-3.3-7.9-0.1-12.5c3.7-5.3,7.8-10.6,8.2-17.8c0.1-2.8,3.3-5.5,5.5-9c-6.2-11-18.9-18.8-18.8-33
		c3.3-3.3,6.2-6.2,9.5-9.5c-2.2-3-3.9-5.3-5.5-7.6c1.1-3.6,2.2-7,3.2-10.1c-3.7-5.9-8.2-0.6-12.3-1.4c-2.1-2.7-4.2-5.5-6.4-8.4
		c-3.2-4.2-2.2-8.4,2.7-10.1c3.7-1.3,7.6-1.8,12-2.7c0-6.2,0-12,0-18.3c-3.1,0-5.9,0-8.5,0c-5.5-7.4-2.1-19.8-14.5-22.5
		c0.6-5.2,1.3-10,1.6-14.9c0.1-1.8-1.1-5.3-1.3-5.3c-7.2,1-6.1-6.7-9.8-9.3c-3.6-2.5-3.6-6.5-1.2-10.6c3.4-5.8,5.5-11.8,3.4-19
		c-1.1-3.7-2.4-5.8-6.2-6.6c-5.1-1-9.1-3.6-11.8-9.1c7.3-3.7,8.2-9.1,5.8-16.5c-1.8-5.4,3.3-9,6.4-12.7c2.7-3.3,6.5-5.9,5.5-11.2
		c-13.3-4.3-24.2,4.7-36.5,6.6c-6.6-4.6-6.1-11.1-4.3-18.8c-2.8,0.2-5,0-7,0.6c-5.3,1.8-10,4.6-16,0.7c-1.9-1.2-6.4,0.5-9.2,1.9
		c-8.2,4-15.6,2.4-22.3-2.9c-6-4.8-12.1-8.1-20.1-5.2c-1.7,0.6-4.1,0.5-5.9-0.2c-5.7-2.1-10.2,0.1-14.9,3.2c-2.6,1.7-6.1,3.1-9.2,3
		c-8.9-0.2-16.5,2.3-22.6,8.6c-6.4,6.6-13.5,6.7-21.9,4.4c-10-2.7-19.1-6.7-24.2-16c-3-5.3-4.4-11.6-6.7-17.9
		c3.6-1.7,6.8-3.5,10.2-4.7c4.9-1.8,7.1-5,8-10.2c1.6-8.7,4.2-17.3,6.4-25.9L3101.9,1681.2z"/>
	<path onclick="modal(this.id);" id="249" class="st0" d="M2421.1,1922.1c2.2,9.7,4,18,5.9,26.7c4.7,1.3,7.9-1.1,10-5.3c2.2-4.6,6.2-6.3,10.7-8
		c8.3-3.3,16.5-6.9,24.3-11.2c4.2-2.3,7.3-6.5,11.3-10.3c4.2,3.1,9.1,5.2,7.5,12.8c-1.2,5.6,4.9,8.2,8.4,11.4
		c6.5,6,13.4,11.5,20,17.5c1.3,1.2,1.7,3.4,2.6,5c1.1,1.9,2.2,4,3.8,5.4c5.9,4.9,12.2,9.2,17.9,14.3c3.6,3.3,6.4,7.5,9.2,11.6
		c3.7,5.5,7.1,11.2,10.5,16.9c2,3.3,4.5,4.5,8.3,3.6c6.8-1.6,13.4-2.8,18.8-8.3c3.3-3.3,8.4-5.1,13-6.9c8.9-3.6,18.4-5.8,24.3-14.6
		c1.5-2.2,5.7-3.5,8.7-3.7c9.5-0.6,16.3-5.1,21.2-12.9c2.5-4,5.3-7.7,7.7-11.7c4.8-8.1,8.9-16.5,5.5-26.4c-0.6-1.7-0.1-3.8-0.1-7.2
		c10.8,8.9,6.7,24.2,17.8,31.6c9.7-4.1,4.3-16.1,9.5-20.4c9.9,1.3,18.6,2.7,27.4,3.5c9.3,0.8,16.8,6.3,18.3,15.1
		c0.4,2.3-1.7,5.1-2.9,8.4c4.7,4.4,10,9.4,15.6,14.8c-3.6,11.2,4.9,14.9,12.8,19.7c1.9-1.2,4-2.5,6.9-4.4c4.3,6.8,9,13.1,12.5,20
		c2.1,4,4.7,5.7,8.9,6.9c7.7,2.2,14.6,4.8,23.2,1.6c3.6-1.3,10,2.6,14,5.6c7.6,5.8,14.3,12.7,21.3,19.3c2.8,2.6,5.2,5.5,8.6,9.2
		c2.8-10.2,9.2-18,8.3-28.2c-0.2-1.9,0.3-4.1-0.5-5.7c-4.5-9.6-0.2-17.3,6.4-23.1c4.5-4,5.4-8,5-13.1c-0.4-5-0.8-9.9-1.5-14.8
		c-1.6-12.2-8.5-20.4-19.4-25.6c-2.1-1-5.1-1.8-5.9-3.5c-3.7-7.8-10.7-9.1-18-10.4c-2.6-0.4-5.4-1.3-7.4-2.9
		c-5.2-4.1-11.3-5.4-17.4-6.9c-9.4-2.3-10.5-4.3-10-13.9c0.2-4.8-0.3-9.8-1.1-14.5c-0.7-4.4-1.3-8.4,1.3-12.5
		c1.4-2.2,2.9-4.9,2.9-7.3c0.1-7.8,0.8-15.1,7.1-20.9c1.2-1.1,1.2-3.7,1.3-5.7c0-5.7-0.2-11.1,4.5-15.7c1.5-1.5,0.6-5.5,0.9-9.3
		c11.9-3.3,13.4-12.6,13-23.9c-0.2-5.9,3.3-12,5.5-17.8c3-7.9,7.1-15.4,9.4-23.5c1.4-5.1-0.6-10.4-7.5-12.5
		c7.6-9.6,14.5-18.4,22.1-28c-0.9-2.4-1.8-6-3.7-9c-3.9-6.3-2.2-11.7,2.4-16.2c2.3-2.2,2.1-4.1,2.4-6.7c1.2-11,12.9-19.4,23.7-16.7
		c4.4,1.1,8.2,1.2,12.6,0.1c7-1.7,13.6,0.1,19.6,4.6c2.6,2,5.6,3.7,8.7,4.6c8.3,2.3,16.6,4.7,25,5.7c5.4,0.7,11.1-0.8,16.7-1.6
		c3.2-0.4,6.3-1.5,9.5-2c15.8-2.3,28.4,3.3,37.9,16c2,2.7,3.9,5.4,6.1,7.9c9.1,10.2,9.1,10.4,25.3,12.6c4.3,0.6,7.5,1.6,10.5,4.6
		c1.6,1.6,3.8,2.9,5.9,3.5c6.9,2.1,10.2,7.2,11.7,13.7c2.8,12.2,10.9,19.4,22.1,23.6c3.1,1.2,6.4,1.8,9.6,2.8
		c8.6,2.7,16.2,1.8,22.7-5.2c5.3-5.7,11.9-7.9,19.8-7.7c3.7,0.1,7.5-2,11.3-3.3c0.9-0.3,1.6-1.1,2.5-1.6c5.8-3.6,26.4-3,32,0.9
		c2.2,1.5,4.2,3.4,6.5,4.6c6.3,3.3,12.8,5.2,19.9,1.9c4.3-2,8.8-5,13.6-0.3c0.9,0.9,3.8,0.3,5.6-0.2c2.9-0.8,5.6-2,9.6-3.5
		c-2.3,8.3,1.2,14,6.4,19.2c11.6-0.8,21.9-8.3,36.4-8.6c-3.5,3.9-5.8,6.1-7.6,8.6c-3.7,5-8.4,9.7-4.9,17c1.6,3.3,0.1,6-3,8.5
		c-4.2,3.5-3.9,8.3,0.4,11.6c2.6,2,5.5,4.1,8.6,4.9c6.3,1.4,6.8,6,6.3,10.7c-0.4,3.5-2.1,7-4,10c-3,4.6-3.1,9.3,0.3,12.9
		c3.6,3.8,2.7,7.6,1.5,12.4c3.5-0.2,6.3-0.3,10.7-0.5c-0.9,6.7-1.7,12.7-2.6,19.5c9.3,1.5,11.1,8.8,12.9,16.2
		c0.7,2.9,1.6,5.7,2.5,8.8c2.8-0.3,5.4-0.5,8.3-0.7c0,3.7,0,7,0,11c-8.4,2.2-18.9,3.6-16.4,15.8c0.9,4.4,5.9,8.4,9.8,11.6
		c1.8,1.5,5.4,0.7,8.9,1c-0.5,2.3-2,5.1-1.6,7.8c0.3,2.6,2.4,5.1,4,8.1c-1.1,0.9-2.3,2-3.6,2.9c-1.4,0.9-2.9,1.5-4.8,2.4
		c0.6,14.8,8.1,25.6,19,35.6c-5,9.8-10.1,19.4-14.5,29.1c-1.5,3.2-1.3,7.2-2.1,11.8c-1.1,0.4-3.5,1.3-6.1,2.3c1.7,3,3,5.4,4.3,7.7
		c-3.7,3.9-7.1,1.4-9.8,0.3c-5.6-2.2-9.6-1-13,3.7c-1.7,2.4-3.8,4.5-5.9,6.8c1.4,4.1,2.6,7.9,8.2,6.3c0.8-0.2,2.7,0.2,2.7,0.5
		c1.2,6.7,8.4,5.7,11.3,8.8c0,8.1,0,15.5,0,23.8c-7.8-2.5-12.9-0.6-16.4,5.9c-1.3,2.3-4.5,3.6-6.7,5.4c3.6,4.5,6.7,8.4,10.4,13
		c2.5-0.4,5.7-0.9,9.4-1.5c1.1,8.3-4.8,10.9-9.8,13c4.7,11.6,9,22.5,13.5,33.3c1.1,2.6,2.3,6,4.4,7.1c9,4.7,14.4,12.8,19.7,20.8
		c6.5,9.7,12,20,18.3,29.7c2.5,3.8,6,7,9.2,10.4c5.9,6.2,12.6,11.9,17.7,18.7c6.3,8.3,15.9,14.4,18.4,24.7c-7.8,3-15.8,5.9-23.5,9.1
		c-6.1,2.6-11.7,3.2-17.9-0.4c-5.7-3.3-12.3-4.1-19.1-4.7c-13.1-1.2-25-7.1-35.6-14.6c-13.8-9.8-26.8-20.8-40.1-31.4
		c-5.9-4.6-12.2-8.2-20-7.8c-4.5,0.2-9.2,0.6-13.4,2c-7.7,2.6-15,4.3-23.2,1.1c-8.3-3.3-17.1-5.5-25.7-8c-3.1-0.9-6.3-1.6-10.7-2.7
		c0.3,4.6,0.5,8,0.8,12.2c-1.9,1.2-4.3,2.3-6.3,4c-2.4,2.1-5.6,4.2-6.4,7c-2.7,9.1-9.7,11.7-17.6,11.8c-9.6,0.1-19.2-0.7-28.8-1.6
		c-10.9-1-21.7-2.6-32.5-4c-3.9-0.5-7.8-1.3-11.7-2.3c-7.8-1.9-15.7-4-24.9-6.3c7.7-8.4,5.4-17.6,4.6-26c-0.4-3.6-4.8-8.2-8.6-9.9
		c-8.1-3.8-16.8-6.2-25.3-9c-4.4-1.4-7.8,1-10.6,3.9c-4.5,4.7-10,5.6-16.3,5.5c-18.3-0.1-36.6,0.5-55,0.5c-6.8,0-11.6,1.9-13.1,9.2
		c-0.5,2.2-1.8,4.3-2.8,6.4c-6.9,15.2-15.2,20.4-31.9,19.6c-3.1-0.2-6.4-1.5-9.2-3c-17-8.8-32.3-19.9-46-33.2
		c-9.2-8.9-19.9-14.9-32.2-16.9c-20.3-3.3-40.7-6.2-61.2-7.9c-20.6-1.8-22.5-0.6-39.5,10.8c-2.7-2.6-5.7-5.2-8.4-8.1
		c-3.3-3.6-7-4.1-10.6-1.2c-5.7,4.4-12.1,5.2-18.9,4.1c-4.9-0.8-8.1,1.4-11.5,4.5c-7.5,7-14.5,14.3-15.7,25.6
		c-0.7-0.1-1.3-0.2-2-0.3c-7.6-12-15.3-23.8-22.8-35.9c-9.5-15.3-9.4-14.8-27.7-14.2c-13.6,0.5-27.2-0.9-40.8-1.2
		c-6.6-0.1-13.3-0.1-19.9,0.7c-5.2,0.6-9.6-0.1-14.3-2.6c-21.7-11.6-43.5-22.9-65.3-34.3c-1.8-0.9-3.6-1.6-5.5-2.3
		c-10-3.7-12-2.7-14.2,9.1c-5.8-8-11.7-14.7-16-22.3c-9.8-17.2-26.3-27.2-41.1-38.7c-6.2-4.8-15.3-6.4-23.4-8
		c-3.4-0.7-7.5,2.4-11.3,3.8c-0.1,0.8-0.2,1.6-0.3,2.4c-6.7-3.5-13.2-7.3-20.1-10.2c-3.6-1.6-7.9-1.7-12.2-2.5
		c4.8-4.4,3.2-9.8,0.5-15.7c-4.4-9.8,5.8-23.7,16.5-23c5.8,0.4,11.5,1.3,18.7,2.2c0.7-0.8,3.7-2.6,3.9-4.7c0.7-7.8,6.3-11.2,11.8-15
		c7.1-4.9,6.9-7,1.8-13.9c-4.3-5.9-10.1-11.9-5.8-21.3c7,0.5,14.2,1.1,21.5,1.7c0.9-1.2,2.1-2.1,2.3-3.3
		c2.3-10.2,9.7-14.1,18.9-16.9C2403.1,1940.2,2404.3,1938.7,2421.1,1922.1z M3166.6,2070.4c-1.4-0.6-2.3-1.2-3.2-1.2
		c-0.8,0-1.6,0.7-2.4,1.2c0.7,0.9,1.3,1.9,2.2,2.6C3163.4,2073.1,3164.5,2071.9,3166.6,2070.4z"/>
	<path onclick="modal(this.id);" id="246" class="st0" d="M3105.6,1511.6c-6.9,4.4-12.1,7.8-18.3,11.7c-0.9-5.1-1.6-9.1-2.4-13.4
		c-8.2-0.9-15.7-2.1-23.2-2.4c-4.6-0.2-7.6-2.7-8.1-6.1c-1.7-11.3-10-18.5-16.6-26.3c-7.7-9.3-14.8-18.2-18.3-30.2
		c-4.2-14.1-11.2-17-26.6-16c-7,0.5-14-0.2-20.1,4c-3.8,2.6-7.5,5.4-10.7,8.6c-6.7,6.6-12.6,13.6-16.6,22.6
		c-5,11.1-12.6,21-19.2,31.3c-0.7,1.1-1.6,2.4-2.7,2.7c-8.6,2.4-12,9.9-17.2,16.6c4.2,3.7,8.1,7.1,12,10.4
		c-5.8,8.5-25.5,15.8-33.7,12.9c-25.7-9.1-36.4-25.5-34.6-53.7c-3.6-2.3-7.3-3.2-12-2.3c-4.1,0.8-8.6,0.6-12.8-0.1
		c-4.4-0.7-7.3,0.6-10.6,3.6c-3,2.7-7.1,5.1-11,5.6c-5.6,0.7-10.2,1.6-14,6.2c-1.4,1.8-5.2,3.6-6.8,2.9c-9.3-4.1-19-0.8-28.4-2.5
		c-7.6-1.4-15.3-1.1-23.4,0.9c-8.8,2.2-18.5,0.7-27.9,0.7c-6,0-12-0.9-17.9-0.4c-5.2,0.4-10.2,2.1-15.3,3.4
		c-5.4,1.4-10.7,3.7-16.2,4.2c-6.7,0.6-12.4,2.2-16.2,8.2c-2.7,4.4-6.9,4.6-11.1,4.3c-7.1-11.4-13.9-22.7-21.1-33.9
		c-1.3-2.1-4-3.3-6.1-4.9c-2.4-1.8-5.6-3.1-6.9-5.5c-3.4-6.3-9-8.2-15.3-9.8c-8.4-2.1-16.5-5.2-24.9-7.1c-7.4-1.7-14.8-3.8-22.6-1.3
		c-4.9,1.6-8.2-1.7-10.8-5.4c-4.3-6.3-8.7-12.5-12.9-18.8c-0.9-1.3-1.4-3.1-1.3-4.7c0.4-6.2,1-12.3,1.6-18.7
		c0.8-0.2,1.8-0.9,2.5-0.7c3.6,0.8,7.4,2.4,9.5-2.2c1.8-4-0.4-12.6-3.9-14.5c-2.9-1.6-6.2-3.4-9.3-3.4c-10.2-0.2-20.4,0.1-30.5,0.8
		c-7.2,0.5-13.8-0.6-20.2-4c-3.7-1.9-7.9-2.8-11.9-3.9c-4.7-1.3-9.5-2.3-13.9-3.4c-10.1,10.9-19.3,22.1-36.4,17.7
		c-3.5-6.9-4.2-13.5-1.6-21.1c3.8-11.2,9.8-22,8.4-34.6c-0.2-1.8,1.4-4.6,3-5.8c8.7-6.5,17.6-12.7,26.5-18.9
		c4.6-3.2,8.9-6.8,15.3-6.1c4,0.4,5.5-3.1,6.8-6.3c2.2-5.6,3.8-11.5,6.7-16.6c4.9-8.7,6.6-17.1,2.2-26.5c-1.8-3.8-0.4-7,3.3-9.3
		c5.5-3.5,6.8-9.1,5.8-14.9c-2.2-11.9-2.9-23.5,1.9-35.1c1.4-3.4,1.3-8.1,0.3-11.7c-2.7-10.5-6.3-20.8-9.4-31.1
		c3.9-4.4,7-8.3,10.5-11.7c5.5-5.3,7-11.8,6.9-19c0-3.3-0.1-6.7,0-10c0.3-7.8,1.7-9.7,9.7-8.7c6.4,0.8,13.4,2.4,18.6,5.9
		c11.8,7.9,24.1,9.8,37.9,7.8c9.4-1.4,19.8-3.5,28.5-1.1c16,4.6,32,8.5,48.6,9.8c6.5,0.5,13.1,2.7,19.1,5.3c7.3,3.2,14.6,4,22.3,4.1
		c8.9,0.1,17.8,1,27.7,1.5c2.1,8.4,3.9,16.8,6.4,24.9c1.1,3.6,3.3,7.4,6.1,10c4.3,4,9.5,7.1,14.5,10.3c3,2,5.9,1.1,7.7-1.9
		c5.8-9.2,11.5-18.5,17.1-27.9c1.5-2.6,2.3-5.7,4.3-7.9c5.5-6.1,9.2-12.8,10-21.1c0.1-1.5,1.1-3.5,2.4-4.2c5.7-3.3,5.2-7.8,3.2-12.9
		c-1-2.5-1.5-5.1-2.1-7.7c-1.2-4.9,0.6-8.1,5.3-10.2c10.6-4.7,21.1-9.5,31.5-14.7c10.8-5.4,12.2-8.2,11.1-20.6
		c2.6,0.2,5.1,0,7.5,0.5c5.5,1.2,10.9,2.8,16.4,4.2c7.7,1.9,14.8,2,21.5-3.8c2.6-2.3,7.3-2.6,11.2-2.9c16.8-1.5,34.2-0.7,50.4-4.6
		c16.2-3.9,29.9,1,44.3,5.4c0.6,0.2,1.2,0.5,1.9,0.7c10.2,3.5,20.8,5.5,29.1,13.9c4,4,11.6,4.2,17.3,6.8c6,2.7,11.6,6.2,17.3,9.5
		c1.7,1,2.9,3.6,4.5,3.8c9.1,1.2,13.2,7.8,16.3,15.1c4.1,9.7,14.2,10,21.6,14.4c3.4,2,7.2,3.1,11.8,5c-0.5,9.5-0.5,18.7-1.6,27.9
		c-0.6,5.2,0.1,9.6,2.1,14.4c5.2,12.6,10.1,25.3,14.4,38.2c1.7,5.2,3.1,11.4,2,16.6c-2.2,10.5,4.1,15.2,11.1,19.9
		c14.8,9.9,31.3,10.1,48.1,8.1c4.2-0.5,8.3-1.3,12.3-1.9c2.3,4.4,0,6.1-2.4,8.1c-6.6,5.5-13.5,10.7-19.3,17
		c-2.9,3.1-4.1,8.2-5.2,12.5c-0.8,3.4,0.6,7.5-0.5,10.8c-1.5,5-4.3,9.7-6.6,14.6c-7.9-0.8-15.7-2-23.5-2.3c-8-0.3-10.2,1.3-11.6,9.2
		c-2.9,17-9.4,33.3-9.6,50.8c0,3.2-1.6,6.4-2.4,9.6c-0.5,2.2-1.8,4.8-1.2,6.7c2.4,8.2-0.5,15.7-2.1,23.4
		c-2.4,11.3-4.5,22.8-5.9,34.3c-1.5,11.8,2.8,22.4,10.1,31.4C3095.4,1485.7,3098.5,1499.1,3105.6,1511.6z"/>
	<path onclick="modal(this.id);" id="243" class="st0" d="M3732.2,1044.6c-6.8,3.2-12.6,5.8-18.3,8.7c-5.3,2.7-9.5-0.7-14.2-2.5c-3.5,2.6-4,5.2-2.5,9.4
		c3.1,8.4,5.8,16.9,8,25.6c2.1,8.3,1.9,16.6-4.8,23.2c-3,3-3.1,6.4-2,10.2c1.9,6.3,3.7,12.7,5.9,20.4c-11.1,5.4-22.4,10.9-33.7,16.1
		c-1.5,0.7-4,0.3-5.6-0.6c-11.1-6.2-23.6-3-35.2-5.5c-1.8-0.4-4.2,1.7-6.3,2.6c-32.4,14.3-58.8,37.4-86.3,58.8
		c-14.7,11.4-29.4,22.9-44.1,34.4c-1.8,1.4-3.8,2.7-6.2,4.4c-1.6-2.5-2.9-4.6-4.2-6.7c-5.4-9.1-11-18.2-16.2-27.5
		c-1.9-3.4-3.1-7.3-4.4-11c-0.9-2.8-1.1-6-2.2-8.7c-3.3-7.6-5.9-15.2-5.6-23.7c0.3-8.5-3-16.4-8-23.2c-9.4-12.8-15.6-26.9-19.2-42.4
		c-1.5-6.3-2.8-12,0.1-18.2c1.5-3.1,1.6-6.8,2.5-10.5c-5.9-1.9-10.7-1.6-15.6,0c-6.5,2.1-13,1.7-19.6-0.6c-11.6-4-23.1-9.8-35-11.1
		c-13-1.4-24.7-5-36.8-9.4c-7.9-2.9-16.9-3.1-25.5-3.4c-10-0.3-19.8-1-29.5-3.9c-3.3-1-7.3-1.1-10.5,0c-4.5,1.5-8.2,1.6-12.4-0.5
		c-10.3-5.2-20.5-4.4-30.4,1.6c-5,3-10.4,3.3-15.3,0.8c-10-5.3-19.8-3.2-29.9-0.6c-7,1.8-14.2,3.4-21.5,3.8
		c-6.8,0.4-13.1-2-16.1-10.3c6.2-1.1,9.4-5.2,11.8-10.5c3.4-7.2,7-14.3,10.6-21.5c1.3-2.7,2.7-5.4,4-8c4.8-9.2,12.3-13.7,22.7-12.8
		c7.5,0.6,13.2-2.6,19.2-6.8c13.3-9.4,27-18.3,40.8-26.9c3.3-2.1,8-2,12.7-3.1c0.2-2.8,0.3-5.7,0.5-8.6c0.2-2.6-0.2-5.6,1-7.6
		c3.2-5.6,3.6-11.5,2.9-17.4c-0.7-5.5,1.1-9.4,4.5-13.5c3.1-3.7,5.5-8.2,7.1-12.7c2.6-7.3,6-13.8,11.3-19.7
		c6.4-7.1,12.1-15,17.6-22.8c1.4-1.9,1.5-5,1.5-7.6c0.1-21.7,0.1-43.3,0-65c0-2.9-0.8-5.9-1.5-8.8c-4.8-22.1-9.7-44.1-14.4-66.2
		c-0.3-1.5-0.2-3.2-0.3-5.6c10.5,5.6,19,12.2,25.5,21.3c2.7,3.7,5.6,7.7,9.3,10.2c12,8.3,24.4,16,37.6,24.6
		c2.8-6.5,5.6-13.2,8.6-19.7c1.7-3.6,3.2-7.6,6-10.2c2.9-2.7,7.1-4.5,11-5.8c4.6-1.4,9.6-2.2,14.4-2.4c2.7-0.1,5.9,0.9,8.3,2.4
		c8,5.2,15.4,5.7,22.4-1.7c1.1-1.2,2.5-2.2,4-2.9c16.6-7.9,22.7-23.2,28.8-38.9c3.7-9.5,8.8-18.7,14.5-27.1
		c6.5-9.5,10.1-19.3,9.2-30.8c-0.2-2,0-4,0-6c0-18.9,6.2-33.9,26.1-40.8c3.8,5.7,7.3,12.1,11.8,17.7c4.5,5.6,10,10.6,15.1,15.6
		c2.6,2.5,5.7,4.3,5.4,8.9c-0.2,2,1.5,4.3,2.5,6.3c5.7,12,7.6,24.7,7.6,37.8c0,3.5-1.3,7.1-2.2,11.3c3.5,3.1,4.9,7.1,3.9,12.6
		c-1.4,7.1-1.8,14.5-1.6,21.7c0.1,3.6,1.9,7.8,4.3,10.4c3.5,3.7,8.3,6.1,13.6,9.8c3-2,6.8-4.5,11.6-7.7c2.6,4.2,5.3,8.4,8.1,12.8
		c3.1-1.4,6.2-2.9,10-4.6c1.6,3.3,2.8,5.8,3.9,8.2c8-1,8-1,11.6,8.3c1.4,0.4,2.9,1.3,4.5,1.3c10.3-0.1,17.1,5.9,23.4,13.1
		c3.7,4.3,8.3,7.8,11.8,12.2c3.4,4.3,7.1,4.3,11.4,2.3c2.1-1,3.9-2.6,6.1-3.4c4.5-1.9,9.1-3.8,13.8-5.2c6-1.8,12.3-2.2,16.9-7.5
		c3.6-4.1,9.7-4.1,12.7-1c7.1,7.4,15.3,4.2,24.2,5.2c-1.5-14.1-8.5-26.2-10.6-40.4c34-1.2,67.4,2.8,101.8,2.5
		c-7,19-10.8,37.9-14.3,57c-0.5,2.7-2.5,5.2-3.7,7.8c-0.7,1.4-2,3.3-1.6,4.4c3.6,9.9-1.4,19-2.8,28.2c-2.6,17.1-6.7,33.9-14,49.8
		c-4.1,8.9-4.6,17.2,0.6,25.6c0.5,0.8,0.4,1.8,0.7,3.5c-6.7,1.7-11.2,5.3-10.9,12.8c0,0.3-0.1,0.7-0.4,0.9
		c-6.6,5.1-10.9,11.2-9.7,20.2c0.1,1.1-2.4,3.2-4,3.6c-5,1.4-6.4,5.3-7.6,9.6c-0.8,2.9-1.8,5.7-3.3,8.3c-2.3,4.1-2.7,7.9-1.1,12.4
		c1,2.6,0.6,5.7,0.8,8.6c0.3,4.3,0.1,8.7,0.8,12.9c0.9,5.9,2.6,11.4-2.2,16.8c-3.2,3.6-0.7,8,2,10.8c6.2,6.4,6.5,14,6.7,22.2
		c0.3,10.5-1,21.1,3.5,31.3c1.7,3.8,1.7,8.3-2.4,11.9c-1.8,1.5-2.3,4.6-3.1,7c-0.4,1.2,0.3,2.9-0.3,3.9c-5,8.7-2.3,16.4,2.7,24.1
		c2.9,4.5,1.3,8-3.9,10.8c-1.2-1.8-2.4-3.3-3.2-4.9c-3.5-6.8-6.4-13.9-10.3-20.5c-5.1-8.5-7.3-17.8-8.4-27.4
		C3741.3,1061.5,3736.7,1053.5,3732.2,1044.6z"/>
	<path onclick="modal(this.id);" id="252" class="st0" d="M3296.7,2724.9c-0.4-4.2-0.4-8.2-1.1-12c-0.8-4.1-2.2-8.2-3.3-12.2c-3.4-12.3-14.1-15.9-24-20.7
		c-13.4-6.6-26.8-13.2-40.1-20.2c-3.1-1.6-6.2-4.2-8-7.1c-13.2-20.7-21-43.6-28.3-66.8c-4.1-13-8.3-26.1-14.3-38.2
		c-4.2-8.4-11.2-15.6-17.7-22.7c-3.7-4.1-13.4,2-14.2,8.8c-0.4,3.2-0.4,6.4-2.3,9.9c-0.6-1.5-1.7-3-1.7-4.5
		c-0.4-29.7-9.1-57.6-18.8-85.2c-1.3-3.8-4.5-7.2-7.4-10.3c-2.4-2.7-5.7-4.6-8.4-7c-10.2-9.2-12.6-16.1-10.5-30.4
		c1-0.4,2.1-0.9,3.4-1.3c15.1-4.7,12.9-4,11.3-17.3c-3-25.2-13.3-47.6-30.7-66.6c-5-5.5-11.2-8.3-18.1-9.9
		c-7.9-1.8-13.7-6.1-18.4-12.6c-5.2-7.2-11.6-13.6-14.4-22.5c-1.5-4.6-2.5-8.8-0.8-13.5c0.9-2.5,1.6-5.1,1.9-7.7
		c0.9-8,5.3-13.3,12.3-16.6c18.7,5.9,37.3,11.2,57.2,11.4c9.2,0.1,18.3,3.4,27.5,4c8.5,0.6,17.3,0.5,25.7-0.8c5.5-0.9,9.7-5.3,12-11
		c1-2.5,2.9-5.6,5.2-6.6c6.1-2.7,10.3-6,7.1-15.1c10.1,3,18.8,5,27,8.3c11.1,4.4,21.5,4,32.7-0.4c8.1-3.2,17.1-2,24.5,3.7
		c12.6,9.8,25,19.9,37.7,29.6c14.2,10.9,29.7,18.5,48,20c5.4,0.4,11,2.7,16,5.2c4.6,2.3,8.6,2.7,13.2,0.6c4.8-2.2,9.9-3.9,14.8-6
		c8.7-3.9,15.8-2.7,22.8,3.8c3.6,3.4,7.4,6.7,11,10.2c5.1,4.9,11.1,6.1,18.2,6.1c9.6,0,16.4-3.5,22.1-11c3.2-4.1,7.5-7.6,11.9-10.4
		c13.4-8.5,24.1-19.7,33.9-31.9c5.9-7.4,14.2-11.1,22.6-14c10.8-3.7,18-12.3,27.4-17.9c1-0.6,1.9-2.2,1.9-3.3
		c0-12.6,10-19.8,15.2-29.6c13,5.3,16.7,19,26.9,27.2c-0.9,1.9-1.7,4-3,5.8c-5.6,8.3-6,13.5,0.5,20.5c9.2,9.9,9.7,20.4,4.1,31.9
		c-3.3,6.9-4.6,14-0.3,20.9c2.2,3.5,0.9,6.5-1,9.3c-6.5,9.4-6.2,17.6,2.9,25.3c1.6,1.3,2,4.6,2,7c0,7.9-1.1,15.9-0.5,23.8
		c0.5,6.9-2.7,12.4-7.9,13.3c-10.7,1.9-11.9,10.6-15.1,17.7c-2.7,6.1,0.8,12.3,3.3,18.1c0.9,2.1,2.2,4,2.2,4
		c-1.8,8.6-3.4,15.3-4.4,22c-0.7,4.4-2.6,7.1-6.4,9.3c-6.7,3.9-7.1,4.6-3.5,10.7c4.3,7.3,4.6,14.2,1.5,21.9
		c-1.3,3.3-1.7,7.1-2.1,10.6c-0.6,4.4,1.3,7.7,5.4,9.7c5.6,2.6,9.8,6.8,13.2,13.3c-9.3,5.2-7.5,15.9-11.4,24.1
		c-0.6,1.4-0.9,3.8-0.2,4.8c6,7.4,6.6,18.3,15.7,23.7c2.2,1.3,4,3.6,5.2,5.9c3.1,6,7.2,10.7,12.8,14.8c7.1,5.2,7.6,16.1,1.9,23.3
		c-3.7,4.6-8.7,8.3-9.5,14.8c-0.1,1-1.7,2.2-2.9,2.5c-7,2-7.7,8.1-9.9,13.7c-3.5,8.9-7.4,17.8-12.6,25.7c-3.8,5.8-7.9,11.3-10.3,18
		c-3.8,10.6-7.9,21.1-12,31.5c-0.8,2.1-2.7,3.7-4.2,5.5c-7.1,8.4-14.3,16.6-21.1,25.1c-2.6,3.3-5.1,4.2-9.3,3.8
		c-16.2-1.5-32.4-2.4-48.6-3.6c-22.2-1.7-44.3-3.5-66.5-5.1c-14.6-1.1-29.2-1.8-43.8-2.9C3345.7,2728.8,3321.6,2726.9,3296.7,2724.9
		z"/>
	<path onclick="modal(this.id);" id="247" class="st0" d="M2648.6,1900.5c4,2.4,6.5,4.7,9.5,5.6c6.2,1.9,8.2,6.4,8.7,12c0.6,6,1.1,11.9,1.1,17.9
		c0,2.5-0.5,5.4-1.7,7.6c-4.9,8.3-9.9,16.5-15.3,24.5c-3.2,4.8-8.2,6.7-13.9,6.4c-5.1-0.3-9.7,1.4-12.3,5.4
		c-5.9,9-15.6,10.6-24.3,14.4c-4.2,1.9-8.8,3.5-12.1,6.5c-5.8,5.4-12.4,7.3-21,8.2c-3.6-5.8-7.1-12.1-11.3-18
		c-3.6-5.1-7.4-10.2-11.8-14.5c-4.7-4.6-10.3-8.3-15.5-12.5c-0.3-0.2-0.7-0.4-0.8-0.6c-2.6-10.4-13.2-14.1-18.6-22.2
		c-1.4-2.1-4-3.3-6.1-4.8c-4.8-3.5-10-6.1-8.7-14.1c0.9-5.4-4.6-8.8-8.8-11c-1.9-1-7.2,0.6-8.6,2.6c-6.2,9.4-16.9,11.7-25.8,16.3
		c-7.5,3.9-16.8,4.5-19.4,15.5c-0.6-0.4-1.2-0.9-1.8-1.3c-2.8-10.7-5.6-21.3-8.6-33c-1.8,1.9-3,2.7-3.4,3.8
		c-5.1,13.6-15.7,21-28.8,25.5c-2.8,1-5.7,1.7-8.6,2.7c-8.2,2.8-12.9,8.8-14.6,18c-8.2-0.8-15.7-1.4-23-2.1
		c-4.6,14.6-5.7,12.1,8.8,32.6c-7.3,6.5-18,10.7-18.1,22.3c-6.8-0.5-12.6-1.1-18.4-1.4c-14.5-0.6-25.6,15.2-20.1,28.4
		c1,2.4,1.8,4.9,3,8.4c-9.2,4.2-16.5,10-17,21.7c-7.7-4-10.9-10.4-15-15.8c-3-3.9-5.4-7.9-11.3-5.9c-2.3-11.1-0.6-21.2,1.4-31.1
		c1.4-7.1,8.7-8.7,13.8-11.3c13.8-7.1,22-23.4,16.7-37.2c-1.7-4.4-5-7.6-10.3-8.4c-8.9-1.3-17.7-3.1-26.5-4.7
		c-5.1-0.9-9.1-2.5-11.1-8.4c-1.3-3.8-4.9-6.9-7.9-10c-2.3-2.3-5.3-4.1-7.9-6.1c-11.4-8.6-11.5-8.6-6.4-22
		c2.6-6.7-1.6-11.3-5.7-14.7c-4.6-3.9-8.9-7.1-11-13.3c-2.1-5.9-6.4-6.5-14.4-4.8c-6.1,1.3-12.3,2.2-18.5,3.1
		c-0.9,0.1-1.9-0.5-4.1-1.1c0.9-3.1,1-6.7,2.8-8.8c10.8-12.7,8.9-25.5,1.3-38.7c-2.3-4-4.4-8.2-6.4-12.4c-2.8-6.1-1.8-11.6,3.2-16.3
		c3.1-3,6.1-6.1,9.2-9.2c4.1-4,5.8-8.2,3.5-14.3c-2.8-7.4-4.4-15.2-6.6-23.2c9.7-3.7,16.8-10,21.8-18.5c4.7-7.9,11.8-14.3,14.3-23.8
		c1.5-5.7,5.3-6.9,10.9-3.6c12.5,7.2,27.1,6,40.2,10.8c4.5,1.6,7.5-1.7,9.8-5.1c3.5-5.3,7.2-10,13.2-13.1c5.7-2.9,8.2-9,7.4-15.3
		c-1.7-12.9,1.7-25.2,4.4-37.5c1.8-8.6,1.8-12-9.3-14.4c-3.5-0.8-6.7-2.7-10-4.3c-6.7-3.3-10.8-8-11.6-16
		c-0.7-6.6-3.3-12.8-8.6-17.5c-3.5-3-4.2-6.6-3.6-11.5c0.7-6.1-0.8-12.4-1.5-19.6c4-2.3,8.9-4.3,15.5-3.1c8.4,1.5,12.9-3.3,12.9-12
		c0.1-8.7-0.4-17.3-0.4-26c0-3.3-0.3-6.9,0.8-9.9c4-11.4,1.7-20.8-7.4-28.7c-0.9-0.8-1.4-2.1-2.1-3.2c8-5.1,10.2-5.1,15.8,0.1
		c2,1.8,4.2,3.5,5.7,5.6c7.7,10.5,18.7,13.7,31,14.8c5.8,0.5,11.7,2.3,17.2,4.3c6,2.2,11.7,2.1,17.5,0.2c4.1-1.3,6.9-3.8,7.8-8.2
		c1.3-6.8,2.8-13.7,3.9-20.5c1-5.8,0.3-10.8-4.1-15.7c-2.9-3.3-4.2-8.2-5.6-12.6c-1.8-5.7-4.6-9.7-10.9-11.7
		c-9.2-2.9-10.1-5.4-8.9-16.6c6-3.1,12.5-6.5,18.9-9.9c1.8-0.9,4.3-1.4,5.2-2.9c6.7-10.4,18.2-9.7,28.2-12c3.3-0.8,7.2,0.6,10.7,1.3
		c3.4,0.6,6.3,0.6,8.9-2.5c2.1-2.4,5-4.6,8-5.6c5.7-1.8,9.7-5.2,11.8-11.5c9.3,4.7,19.9,2.8,28.4,9c2.3,1.7,6.4,1.4,9.7,1.4
		c11.7,0.2,23.3-0.1,35,0.1c5.5,0.1,10.8,1.2,12.6,7.6c0.5,1.7-0.3,3.7-0.5,6.1c-3.4-0.5-6.2-0.9-10-1.4c-0.7,2.8-1.6,5.2-1.9,7.6
		c-0.6,4.9-1.1,9.9-1.3,14.8c-0.1,2.2-0.2,4.9,0.9,6.6c5.3,8,10.9,15.8,16.7,23.5c2.5,3.3,5.7,5.5,10.3,4c8.3-2.8,16.5-0.5,24.5,1.6
		c6.4,1.7,12.7,3.8,19.2,5.5c7.1,1.9,14.4,3.4,17.8,11.1c0.1,0.3,0.4,0.6,0.7,0.7c8.8,4.2,13.9,11.9,18.7,19.9
		c4.6,7.6,9.2,15.3,14.4,24c3-0.3,7.2-0.9,11.4-1c4.3,0,8.7,0,12.7,1.1c5.1,1.4,6.6,5.8,6.8,10.9c0.2,4.7-1.5,7.5-6.1,8.9
		c-5.7,1.8-11.5,3.5-17,5.7c-7.7,3-9.1,8.2-4.3,14.7c2.3,3.1,5.1,5.9,8.2,9.4c-2.3,1.9-3.7,3.8-5.7,4.6c-3.7,1.5-7.5,2.7-11.4,3.4
		c-12.5,2.3-12.5,2.2-17.5-9.6c-0.4-0.9-1.2-1.7-1.5-2.6c-3.4-10.6-10.4-14.1-21.3-12c-5.4,1-11.3,0.6-16.9,0
		c-4.9-0.6-6.8,2.4-8.1,5.7c-3.8,9.8-0.9,19.7,7.5,26.7c9.5,7.9,9.8,10.2,3.1,20.8c-3.4,5.4-6.3,11-9.8,16.2
		c-2.6,3.8-5.5,7.4-8.7,10.7c-3.9,3.9-4.6,6.6-0.7,9.7c3.5,2.8,7.9,6.3,12,6.4c7.2,0.2,12.7,3.3,18.3,6.9c0.8,0.5,1.8,0.6,2.8,0.9
		c0.9-0.5,1.9-0.8,2.7-1.3c8.6-5.7,8.5-5.6,17.1,0.2c8.5,5.8,17.1,11.6,25.9,16.9c4.2,2.5,8.9,4.1,14,6.4c-2.1,3.2-4.3,7.2-7.1,10.8
		c-2.8,3.6-2.1,6.4,0.5,9.7c5.7,7.1,5.6,8.5-1.9,13.8c-4.7,3.4-7.8,7.3-6.7,13.3c1.5,7.8-2.4,13.5-7.4,18.7
		c-12.5,13-11,18.5,4.8,27.6c9.9,5.7,18.3,14,27.7,20.7c10.4,7.6,17.3,18.2,25.3,27.9c2.7,3.3,5.5,6.7,8.6,9.6
		c4.8,4.7,5.4,7.2-0.2,10.8c-6.6,4.3-7.3,10.2-5.7,16.5c1.1,4.4,0.2,7.6-3.1,9.5C2660.6,1878.1,2657.7,1890.6,2648.6,1900.5z"/>
	<path onclick="modal(this.id);" id="242" class="st0" d="M3736.8,754c-7.3-1.5-13.5,1.5-17.7-5.5c-1.9-3.1-14.2-1.7-17.6,1.9c-4,4.2-9.2,5.9-14.2,6.4
		c-6.7,0.6-12,3.3-17.4,6.8c-7.2,4.7-8,4.5-14.5-1.8c-3.1-3-6.1-6.1-9.2-9.2c-11.5-11.5-11.5-11.5-27.2-14.8
		c-2.2-4.9-3.7-10.7-10.9-10.9c-0.6,0-1.5-0.3-1.7-0.6c-3-8.6-9-5.6-15-3.8c-2.8-3.9-5.7-7.8-8.9-12.3c-4.1,3.1-7.8,5.8-11.6,8.7
		c-3.9-2.8-8.1-4.9-11.1-8.2c-1.9-2-2.4-5.7-2.7-8.6c-0.4-4.9-0.2-9.9-0.2-14.8c0-2.3-0.4-4.7,0.2-6.8c1.6-5.1,2.6-9.9-2.6-12
		c2.9-17.4,0.1-32.8-5.6-48c-1.1-3-1.6-6.4-3-9.2c-1.6-3.1-3.4-6.7-6.1-8.6c-10.4-7.3-17.5-17.2-23.4-28.1c-4.8-8.8-5.6-8.4-14.5-4
		c-18.5,9.1-22.5,25.6-21.9,43.5c0.4,12.6-1.4,23.7-9.4,33.5c-9.9,12.1-14.1,27.1-20.1,41.1c-3.8,9-9.3,16-17.9,20.7
		c-2.9,1.6-5.8,3.5-8.1,5.8c-5.4,5.3-11.1,5.3-17.2,1.6c-2.8-1.7-5.8-3.2-8.9-5c-5.5,2.8-10.8,5.1-17.7,4.2
		c-3.9-0.5-9.4,3.4-12.4,6.8c-3.8,4.4-5.9,10.3-8.6,15.6c-1.8,3.5-3.3,7.1-5.1,11.1c-12.3-7.9-24-15.4-35.6-23.1
		c-1.9-1.2-3.3-3.3-4.5-5.2c-6.6-10.4-15.9-17.8-26.1-24.3c-3.7-2.4-6.4-5.2-8.5-9.3c-7.6-15.5-15.5-30.9-23.6-46.2
		c-7.1-13.5-14.5-26.8-21.8-40.2c-0.2-0.3-0.4-0.6-0.5-0.8c-8.6-15.6-8.2-16.4,6.5-26.6c20.2-14,40.5-28.1,62.9-38.5
		c19.8-9.3,40.3-17.1,60.6-25.4c8.6-3.5,17.9-5.8,21.6-16c0.5-1.4,3.1-3,4.6-2.8c2.8,0.2,2.8,2.5,2.8,5.2c0,2.1,1.9,5.4,3.8,6.2
		c8.2,3.6,16.6,7,25.2,9.4c3.1,0.9,7-1.1,10.5-2c7.7-2.1,15.2-4.7,23-6.3c4.9-1,7.6-2.7,8.9-7.8c2.7-10.3,5.6-20.4,5.4-31.3
		c-0.1-6.2,1.2-12.6,2.8-18.7c0.8-3,3.1-5.8,5.4-8.1c17.7-17.6,35.5-35.1,53.5-52.5c2.6-2.5,5.8-4.4,9-6.1c13.9-7.1,28-14,41.9-21.1
		c7.8-4,8-4.9,5.4-13.3c-1.8-5.7-3.5-11.4-5.7-18.4c60-23.4,119.9-46.8,180-70.2c3.1,7.1,7.2,13,3.1,20.4c-0.9,1.7,0.1,4.4,0.3,6.7
		c1,8.2,1.6,16.4-0.6,24.6c-1.8,6.7-1.5,13.1,5.5,17.6c2,1.3,2.9,4.2,4.2,6.5c3.9,6.9,7.7,13.9,11.5,20.8c2.3,4,4.3,8.2,6.9,12
		c3.2,4.6,6.8,8.8,10.6,13.8c-2.3,3.2-4.7,6.6-7.3,10.1c2.2,8,11,8.3,15.8,14c-4.2,8.2-0.5,15.7,3.9,22.7c5.4,8.7,8.2,17.5,3.4,27.3
		c-1.7,3.5-0.3,6,1.5,9.2c2.2,3.9,3.8,8.4,4.4,12.8c0.9,7.5,0.6,15.1,1,22.7c0.1,1.9,0.8,3.9,1.7,5.6c2.3,4.4,4.7,8.5,3.8,14
		c-0.4,2.2,1.5,4.9,2.9,7.1c1.5,2.5,3.6,4.7,5.8,7.4c-4.4,4.3-7.1,8.6-7.4,14.8c-0.2,4.6-0.7,8.2,3.5,11.4c1.3,1,1.5,4,1.6,6.2
		c0.2,6.8-2.2,13.9,2.7,20.2c0.6,0.8-0.1,2.5-0.1,3.8c0,8.3,0,16.5,0,25.1c-9,9.8-8.9,9.7-6.7,24c0.6,3.8,1.1,8.1-0.2,11.5
		c-2.2,5.8-1.8,10.2,2.9,14.3c1,0.8,1.4,2.2,2.3,3.6c-1,0.9-1.8,2-2.9,2.6c-4.6,2.5-4.7,6-2.5,10.1c3.5,6.5,7.4,12.7,1.7,20.2
		c-1.1,1.5,0.2,5,0.6,7.6c0.5,2.8,1.4,5.6,2.5,9.7c-38.5-1.4-75.9-2.8-114.7-4.3C3728.4,726.6,3732.3,739.5,3736.8,754z"/>
	<path onclick="modal(this.id);" id="248" class="st0" d="M3102.2,1680.8c-7.6,2.8-6.2,10.8-9.3,16.2c-0.4,0.8-0.1,2-0.2,2.9c-0.7,3.9-0.3,9.1-2.6,11.2
		c-3.7,3.4-9.2,5.7-14.2,6.6c-3.4,0.6-8.4-1-10.9-3.4c-6.8-6.7-15.3-7.9-23.7-8.8c-6.9-0.7-11.3-4.1-14.2-9.4
		c-11.1-20.3-28.9-26.9-50.8-24.9c-6.2,0.6-12.4,3.8-18.3,3.1c-13.3-1.5-26.8-2.9-38.1-11.7c-1.9-1.4-4.9-1.9-7.4-1.9
		c-11.3-0.2-22.6-0.1-34,0c-6.9,0.1-15.3,7.3-16.6,14.2c-1.5,8-4,15.4-10.8,19.7c2.2,5.6,4.7,10.6,5.9,15.9c0.5,2-1.5,4.9-3,7
		c-3.8,5.4-8.1,10.6-12,15.9c-1.7,2.3-3.1,4.9-4.9,7.7c1.9,1.5,3,2.8,4.4,3.3c4.8,1.8,5.4,5.2,2.4,8.5c-2.8,3.1-2.9,5.7-2.5,9.6
		c0.3,2.9-2.2,6.1-3.7,9c-3.8,7-8.1,14-7.4,22.3c0.9,10-1.4,17.8-10.4,20.4c-2.5,5.8-4.8,10.1-6.2,14.6c-1.1,3.7-1.1,7.7-1.9,11.6
		c-0.6,2.8-0.7,6.5-2.5,8.1c-4.3,3.7-5.2,8-5.3,13.3c-0.1,3.9-0.4,8.4-2.4,11.5c-3.8,6-3.7,11.6-1.7,18c1.1,3.3,1.1,7.1,0.6,10.6
		c-1.4,11.4,1.5,16.4,12.4,18.8c5.9,1.3,11.4,3,16.5,6.5c2.6,1.8,6.1,2.9,9.3,3.5c6.1,1.1,11.6,2.5,14.8,8.6
		c0.8,1.6,2.9,2.7,4.7,3.5c22.1,10.1,21.5,25.1,21.1,43.5c0,1.6-1.8,3.3-2.9,4.8c-2.5,3.5-5.5,6.7-7.5,10.5
		c-1.9,3.7-3.4,7.7-1.5,12.4c4,10.1,1.5,19.4-5,29.2c-7.6-6.5-15.5-12-21.9-19.1c-4.7-5.2-10.3-8.3-16.3-11
		c-1.7-0.8-4.5-0.3-6.3,0.6c-8.7,4.1-16.8,0.1-23.8-3.5c-4.6-2.4-7.6-9.1-9.8-14.5c-3-7.2-6.2-10.4-14.9-8.3
		c-7.1,1.7-10.9-5.3-9.4-15.6c-4.4-4-9.1-8.3-13.7-12.5c4.1-14.5-7.5-30.4-24.7-27.2c-4.2,0.8-9.1-0.9-13.4-2.4
		c-5.9-2-11.4-4.7-18.1-6.7c7.5,8.6-0.6,15.6-0.5,23.6c-4.6-1-5.2-4.4-6-7.5c-2.4-9-6.6-16.7-12.3-24.5c-4.7-6.3-9.6-11.2-17.2-14.6
		c6.4-8.3,8.8-18.2,17.8-24c5.3-3.4,9.5-8.1,6-15.9c-2.1-4.6,0.6-8.5,4.9-11.7c7.7-5.8,7-9.7,0.1-16.5c-6.1-6-11.5-12.9-16.7-19.8
		c-8.6-11.7-19.9-20.4-31.6-28.6c-2.4-1.7-4.7-3.7-7.1-5.4c-2.6-1.9-5.3-3.6-7.9-5.4c-1.9-1.3-4-2.3-5.8-3.8
		c-5.8-4.6-6.2-7.9-1.2-13.2c4.8-5.1,10.2-9.6,12.1-16.8c0.5-1.9,1.7-4.2,1-5.7c-2.6-6.4,0.9-10,5.2-13.6c9-7.5,9.3-12.6,0.3-21.5
		c3.9-5.3,7.8-10.8,12.2-16.8c-1.9-1.2-3.6-2.8-5.6-3.6c-3.9-1.5-8.4-1.7-11.9-3.9c-9.9-6.1-19.5-12.7-29-19.4
		c-7.4-5.2-7.9-5.3-16-0.4c-1.4,0.8-2.8,1.7-2.6,1.6c-7.9-2.4-14.4-4.9-21.1-6.3c-5.3-1.1-8.7-4.1-12-6.5
		c4.2-5.7,8.2-10.5,11.6-15.7c4-6.1,7.5-12.6,11.2-18.9c5.6-9.6,4.9-13.1-3.5-20.4c-3.7-3.2-9-5.4-9.1-11.2
		c-0.1-5.1,0.5-10.3,0.8-15.4c9.9-0.7,18.7-1.4,27.5-1.9c3.9-0.2,7.3,0.9,8.9,4.9c1.8,4.3,4,8.4,5.3,12.8c1.5,5.2,4.4,8.2,9.8,8.1
		c8.7-0.1,17.3-1.2,25-5.6c5.6-3.1,6.4-8,2.2-13.1c-9.8-12.1-9.8-12.1,5.4-17.3c3.1-1.1,6.3-2.2,9.4-3.4c7.4-3,8.9-5.3,8.3-12.7
		c-0.5-7.2-4.4-12.4-10.6-14c-2.4-0.6-4.8-1.2-7.5-1.9c2.3-5.2,6-6.1,10-6.7c4.9-0.7,10.3-0.6,14.5-2.8c12.5-6.6,25.5-5.3,38.8-4.7
		c11.6,0.6,23.3,2,34.5-2.7c0.9-0.4,1.9-0.8,2.9-0.7c12.5,1.2,25.1,1.9,37.5,3.9c5.5,0.9,9.9,0.5,13.4-3.7c2.6-3.1,5.3-4.7,9.4-4.5
		c6.1,0.4,10.7-2.7,15.1-6.6c1.6-1.5,3.8-3.1,5.8-3.2c7.4-0.4,14.9-0.2,22.9-0.2c0.2,2.3,0.5,3.8,0.4,5.4c-1.2,17,4.8,30.7,19,40.3
		c5.8,3.9,11.8,7.6,18.3,10.1c3.6,1.4,8.6,1.1,12.5,0c9.6-2.8,20.5-3.7,27-15.2c-3.4-3.8-7-7.9-10.8-12.3
		c3.1-5.4,6.2-10.7,13.2-12.2c2.2-0.5,4.7-2.6,5.9-4.6c6.9-11.7,13.7-23.5,19.9-35.5c3.6-7.1,17.8-22.8,25-26.2
		c8.4-3.9,17.5-2.6,26.3-2.9c5.3-0.2,9,3.9,11.7,8.3c0.9,1.4,1.6,3,2,4.6c2.9,13.6,11.3,23.6,20.4,33.5c6.1,6.7,10.7,15.1,14.7,23.3
		c2.9,6,7.3,8,13,8.6c4.9,0.6,9.8,0.8,15.4,1.3c0,5.3,0,9.7,0,14.7c-8.8,0-17.6,0.5-26.4-0.1c-10.5-0.8-13.3,2.6-12.4,12.9
		c1.2,13.2,10.3,20.2,19,27.8c7.8,6.8,16.1,12.9,24,19.4c6.4,5.2,6.5,6.4,2,13c-1.3,1.9-2.6,3.9-4.1,6.2c1.9,4.7,3.8,9.6,6,15
		c4.7,0,9.3-0.1,13.9,0c3.8,0.1,7.2-0.3,9.4-4.2c2.1-3.8,5.9-4.2,9.6-3.1c3.8,1.1,4.6,4.2,4.5,7.9c-0.1,13.3,0,26.6,0,39.5
		c-8.3,6.6-20.1,8.4-22.5,20.4C3101.9,1681.2,3102.2,1680.8,3102.2,1680.8z"/>
	<path onclick="modal(this.id);" id="245" class="st0" d="M3397.8,1378c-22.4-0.6-42.2-6.6-61.5-15.2c-6.4-2.9-12.5-2.3-18.9,1.6
		c-11.9,7.4-17.9,6.3-28.5-2.8c-3.7-3.2-8.1-5.8-12.5-8.1c-17.4-8.9-31.5-21-39.9-39c-4.5-9.8-12.5-15.5-22-19.2
		c-7.6-2.9-11.4-7.7-10.9-15.7c0.4-7-3-11.1-9.2-13.7c-7.3-3.1-14.5-6.5-22.5-10.2c-0.1-1.1,0-3-0.4-4.9c-1.2-5.3-2.8-6.5-8.5-5.6
		c-5.3,0.8-10.5,1.5-15.7,2.6c-15.5,3.4-28.9-2.2-41.6-10c-4.7-2.9-7.1-7.1-6.9-14.1c0.3-9.3-2.4-19-5.1-28.1
		c-2.7-9.2-6.2-18.4-10.5-26.9c-3.6-7.1-3.2-14-2.6-21.3c0.6-7.6,1.2-15.2,1.8-22.8c-10-8.3-23.9-8.9-33.6-18.3
		c16.8-24.3,33.3-48,50-72.1c2.3,1.2,4.3,1.7,5.6,3c4.5,4.5,10.3,6.5,16.2,6.9c4.5,0.4,7.4,1.7,9.6,5.5c3.6,6.1,9,7.9,16,7.9
		c9.1-0.1,17.9-1.2,26.5-4c8.5-2.8,16.7-3.4,25,1.1c6.3,3.4,12.7,2.7,19-1.2c8.5-5.2,17.4-6.2,26.5-1.1c4.5,2.6,9.1,3,14.3,0.9
		c2.8-1.1,6.6-1,9.5-0.1c11,3.2,22.2,4.3,33.5,4.3c12.8-0.1,25.1,1.8,36.1,9.4c2.5,1.7,6.4,2.7,9.4,2.3c11.8-1.7,22.3,2.2,32.9,6.2
		c2.2,0.8,4.3,1.8,6.5,2.7c10.6,4.3,21.3,7.7,32.8,3c1.8-0.7,3.9-0.5,7.4-0.9c-0.8,3.5-1,6.7-2.2,9.4c-2.3,5.3-1.7,10.2-0.4,15.6
		c4.1,17,10.6,32.8,20.9,47.1c5.4,7.6,9.2,16.2,6.8,26.2c-0.2,0.9-0.5,2.2-0.1,2.9c6.8,12.6,6.5,27.7,15,39.9
		c6.1,8.7,10.7,18.4,15.9,27.6c5,8.7,0.5,17.5-0.2,26.2c-0.1,1.6-3.2,3.1-5.1,4.4c-7.6,5.3-15.2,10.6-23.4,16.3
		c2.2,3.7,4.1,6.7,6.1,10c-2.4,9.8-7,17.8-19.2,18.5c-4.3-4.8-8.6-9.8-13-14.8c-7.5,1.6-9.9,7-11,13c-1.4,7.8-2.4,15.7-3.3,23.6
		C3410.9,1358.3,3405,1368.5,3397.8,1378z"/>
	<path onclick="modal(this.id);" id="244" class="st0" d="M3705,1143.4c9.9,18.3,9.8,22-1.7,33.3c8.8,4.8,17.8,7.7,27.3,7.9c8.6,0.1,16,1.2,22.8,7.6
		c4.1,3.9,10.4,6,16.8,3.5c1.4-0.6,3.2-0.3,5.9-0.4c-0.8,5.7-1,10.4-5.4,14.6c-2.6,2.5-4.4,6.9-4.5,10.5
		c-0.3,11.8-8.1,19.3-14.8,27.4c-1.7,2-5.1,2.8-7.9,3.6c-5.7,1.7-10.2,6-8.6,11.3c3.3,10.8,0.9,21.5,1.6,32.1
		c0.4,6.6,1.6,13.1,3.2,19.5c1,3.9,0.2,6.5-2.9,8.6c-6.1,4.2-8.6,10.6-11,17.3c-3.5,10-7.3,20-11.5,29.8c-2.2,5.2-3.3,10.1-1.2,15.4
		c2.2,5.5,1.6,10.1-3,14.5c-5.9,5.6-3.7,12.1-0.3,18.7c-9.2,5.5-10.6,13.8-8.9,23.4c1.4,8.2,0.1,9.7-8,11.5
		c-2.3,0.5-4.8,0.5-6.7,1.7c-8.1,5-15.6,3.4-23.4-0.8c-5-2.7-10.4-4.5-15.4-7.1c-6.8-3.4-13.2-2.8-18.4,2.4
		c-6.6,6.5-13.2,5.6-20.9,2.5c-4.5-1.9-9.7-2-14.4-3.4c-4.7-1.4-9.3-3.3-13.8-5.5c-11.4-5.5-22.1-11.5-29.2-23.2
		c-4-6.6-11.1-11.3-17.1-16.5c-2.8-2.4-6.9-4.6-9.9-1.2c-4.9,5.7-11.8,5.3-16.1,6.7c-4.2,5-6.7,9.6-10.5,12.1
		c-11.3,7.4-20.9,16.6-29.9,26.4c-4.9,5.3-10,7.8-17.4,7.4c-13.6-0.6-27.3-0.2-41-0.2c-6.2,0-12.7-1.2-17.1,8.1
		c-7.8-29.3-14.9-56-22.5-84.4c8.3,3.4,15.8-0.4,22.9,3.6c3.9,2.2,7.3,0.4,10.1-3.5c9.5-13.4,14.5-28.2,15.3-44.6
		c0.6-11.7,1.2-13.2,7.6-20.7c4.6,5.2,9.2,10.2,13.6,15.2c13.1-2,21.4-8.8,24.8-22.3c-1.4-2.3-3.3-5.3-5.7-9.4
		c6.4-4.5,12.5-9.7,19.3-13.4c6.8-3.7,9.3-8.9,9-16.2c-0.1-2,0.2-4,0.5-5.9c0.6-4.8,2.7-8.3,6.8-11.4c31.6-24.3,62.7-49.5,94.7-73.3
		c11.9-8.9,25.9-14.8,39-22.1c0.8-0.5,1.9-0.9,2.8-0.8c10.5,1.3,21.2,1.6,31.3,4.5c5.6,1.6,10.1,2,15-0.5
		C3686,1152.8,3695.5,1148.1,3705,1143.4z"/>
	<path onclick="modal(this.id);" id="251" class="st0" d="M3674.8,1752.3c-5.2,0-10.3,1.3-14.3-0.3c-9.6-3.8-19.2-4-29.1-3.5c-9.3,0.5-18.3-7.8-18.9-17.3
		c-0.6-10.5-4.7-18.7-13.8-23.8c-2.8-1.6-6.2-2.3-9.4-2.6c-4.9-0.4-10-0.7-14.9-0.1c-13.1,1.6-24.6-4.4-36.8-7.2
		c-1.2-0.3-2.3-1.2-4.1-2.1c2.5-10.7,5-21.3,7.6-31.9c2-8,3.9-15.2-0.3-23.9c-3.8-8,2.1-16.2,6.9-23.2c4.8-6.9,5.9-9.1,0.6-15.8
		c-5.2-6.6-4.3-12.2-1.4-19.2c9.9-24.3,19.3-48.9,28.9-73.3c0.5-1.2,1-2.5,1.5-3.7c6.1-15.1,6.2-14.5,22.4-15.2
		c14.5-0.7,27.9,4.4,41.8,6.6c6.3,1,9.6,5.9,10.1,12.1c1.5,19.2,8.3,36.9,15.3,54.4c2.9,7.2,8,13.8,13.1,19.9
		c10.2,12.4,14.1,27.8,21.2,41.7c0.3,0.6,0.5,1.3,0.4,1.9c-0.5,17.4,2.1,35.2-8.2,51c-4,6.1-5.6,12.4-3.5,19.8
		c4.2,14.7-1.4,28-7.1,41.1C3680.6,1742.5,3677.7,1747,3674.8,1752.3z"/>
	<path onclick="modal(this.id);" id="240" class="st0" d="M3777.8,1189.9c-11.2,4.5-19.9,3-27.8-4.6c-4.2-4.1-10.1-5.2-15.9-4.5
		c-8.3,1.1-15.3-2.5-24.6-4.6c10.2-7.3,7.2-15.6,4.3-24.9c6-1.8,11.8-3.5,18.1-5.3c-1.1-6.9,3.9-12.6,1.2-20
		c-2.3-6.1-1.3-13.5-1.8-20.3c0-0.6-0.7-1.5-0.5-1.9c7.9-12.4-1.5-23.3-3.1-34.8c-0.5-3.9-1.5-7.8-2.6-11.6
		c-1.3-4.6,1.5-5.9,5.3-7.1c5,7.8,8.2,16.3,9.1,25.6c0.8,9.1,4,17.3,8.7,25.1c2.6,4.3,5.4,8.6,6.8,13.3c2.3,8.3,7.4,13.7,14.9,17.1
		c3.3,1.5,4.7,3.9,6.4,7c4.4,8.1,5.9,17.1,8.8,25.7c0.6,1.9,0,4.5-0.7,6.5C3782.4,1177.1,3780,1183.7,3777.8,1189.9z"/>
	<path onclick="modal(this.id);" id="241" class="st0" d="M3712.6,1092.5c-0.4,0.2,1.4-0.5,3.3-1.2c4.9,3.9,2.1,13.8,12,12.8c0.6,13.5,3.9,26.2-0.7,39.6
		c-4.4,1.2-9.1,2.5-14.5,3.9c-5.2-10.2-8.7-20.7-10.9-31.6c-0.3-1.6,1.2-3.6,2-5.3C3706.3,1105.1,3709,1099.7,3712.6,1092.5z"/>
	<path onclick="modal(this.id);" id="239" class="st0" d="M3720,1054.3c11.3,37.7,11.6,39.3,6.7,45.4c-4.2-13.5-8.5-26.1-10.8-39.3
		C3715.7,1059.1,3717.9,1057.4,3720,1054.3z"/>
	<path onclick="modal(this.id);" id="238" class="st0" d="M3711.8,1059.8c1.5,8,2.9,15.8,4.3,23.6c0.7,4.3-2.4,4.6-5.8,5.4c-3.2-11-6.3-21.6-9.4-32.4
		C3704.3,1057.5,3707.6,1058.5,3711.8,1059.8z"/>
</g>
</svg>
