<?xml version="1.0" encoding="utf-8"?>
<!-- Generator: Adobe Illustrator 19.0.0, SVG Export Plug-In . SVG Version: 6.00 Build 0)  -->
<svg version="1.1" id="Layer_1" xmlns="http://www.w3.org/2000/svg" xmlns:xlink="http://www.w3.org/1999/xlink" x="0px" y="0px"
	 viewBox="0 0 1920 2220" style="enable-background:new 0 0 1920 2220;" xml:space="preserve">
<style type="text/css">
	.st0{fill:#FFFFFF;}
</style>
<path class="st0" d="M943.2,1525c-7.5,1.7-15.4,2.5-22.6,5.2c-17.5,6.6-31.1,19-44.1,32c-3.8,3.9-7.8,7.6-11.7,11.5
	c-0.5,0.5-1,1.5-1.3,1.4c-5.5-1.9-12.4-2.6-16.1-6.3c-4.6-4.7-6.2-12.2-9.7-18.2c-3.9-6.8-8.6-13.1-12.5-19.9
	c-2.9-5.2-7-6.4-12.4-5.6c-5,0.7-10.1,1.5-15.1,1.9c-11.1,1-22.2,1.9-34.2,2.9c0.5-6.7,1.1-13.2,1.4-19.7c0.2-5.9-1.5-7.5-7.3-8
	c-1.3-0.1-2.7,0.1-4-0.2c-7.6-1.8-8.4-4.1-6.6-14.1c2.3-12.7,4-25.5,6-38.2c1.2-7.7,2.8-15.4,3.8-23.2c0.4-3,0.3-6.5-0.9-9.1
	c-3.1-6.3-6.8-12.3-10.6-18.2c-2.4-3.7-6.3-4-10.6-1.4c-6.1-7.8-4.2-15.7-0.2-23.5c0.5-1,1.1-2,1.4-3.1c6.3-17.2,5.8-17-2.2-34.8
	c-3.7-8.3-8.7-14.6-17.5-15.8c-15-2-21.8-13.7-30.4-23.6c-3.4-4-5.4-8.1-5.3-13.4c0-1.7-0.6-4-1.8-5.1c-5.8-5.2-6.8-12.9-9.7-19.4
	c-3.5-8-5-9.1-13.3-7.2c-6.8,1.6-13.7,2.9-20.5,4.3c-0.5,0.1-1.1,0.2-1.5,0c-5.8-3-11.6-6.1-17.8-9.3c9.3-3.8,18.1-8,27.3-11.1
	c6.1-2,12.7-2.6,19.2-3.4c3.3-0.5,5-2.1,4.5-5.2c-1.2-6.9-2.6-13.8-4.3-20.6c-2-8.2-4.7-16.3-6.5-24.5c-1-4.8-3-7.6-9.2-6.6
	c7-5.8,13.4-9.8,22.4-7.6c4.3,1,9,0.6,13.4,0.4c4.1-0.2,5.8-4.3,3.4-9.2c-3.3-6.7-7.3-13.1-10.7-19.8c-0.7-1.3-0.7-4.1,0.1-4.8
	c1.9-1.5,5.1-3.5,6.7-2.8c6.2,2.6,11.9,6.1,17.8,9.3c4.3,2.3,8.1,1.8,12.3-1.3c13.3-10.3,26.9-20.2,40.5-30.2
	c5-3.7,5.6-7.9,1.8-12.9c-9.5-12.7-19.2-25.2-28-38.4c-2.6-3.9-2.8-9.6-3.6-14.5c-1-5.8-1.9-11.7-2-17.6c0-4.9,0.4-10.1,2.1-14.6
	c2.8-7.5,6.7-14.5,10.1-21.8c0.4-0.7,1.1-1.5,1.1-2.2c-0.2-3.1,0.4-7.5-1.4-8.9c-1.8-1.4-6.6-0.9-8.9,0.6
	c-8.2,5.1-15.9,10.9-23.8,16.4c-4.5,3.1-13,0-15.5-5.2c-0.6-1.3-2.3-2.5-3.7-2.8c-9-1.6-9.1-1.6-17.5-7.1c11.7-8,22.9-16,34.4-23.5
	c3.9-2.6,8.5-4.1,12.8-6c2.9-1.3,4.2-3.1,4.1-6.5c-0.2-11,0.6-22.1-0.3-33c-0.6-6.8-3.4-13.5-5.8-20c-5.2-14.4-10.8-28.6-15.9-43.1
	c-0.6-1.8-0.1-4.8,1-6.4c4.8-7,10.1-13.7,15.2-20.5c2.9-3.9,2.4-8.6-1.5-11.8c-6.5-5.2-13.1-10.4-19.8-15.3c-2.8-2-3.5-3.9-2.5-7.1
	c2.2-7.2,4.6-14.4,6.1-21.7c2.2-10.8,3.7-21.7,5.4-32.5c0.5-3.4,0.5-6.9,1.1-10.3c0.6-3.3,1.6-6.1,5.1-8.3
	c9.3-5.8,18.1-12.4,26.8-19c1.6-1.2,2.7-3.7,2.9-5.8c0.9-11.3,1.4-22.7,2.2-34.1c0.1-1.2,0.6-2.8,1.4-3.6
	c6.6-6.3,13.2-12.5,19.9-18.6c5.6-5.1,11.5-9.9,16.9-15.2c4.1-4,1.1-8.2-0.9-12.1c-0.4-0.7-1-1.3-2.1-2.7c2.2-0.5,3.8-1.1,5.4-1.2
	c7.6-0.4,15.2-0.5,22.8-1.2c1.6-0.2,3.8-2.7,4.3-4.5c0.8-2.8,0.2-5.5-3.6-6.4c-1.9-0.4-4-1.4-5.4-2.8c-26.3-26.5-52.5-53-78.6-79.5
	c-8.3-8.4-16.2-17.2-24.6-25.4c-3.4-3.3-4.3-6.3-2.5-10.5c0.9-2.1,1.6-4.3,2.5-6.6c8.2-0.7,16.5-1.5,24.8-2c1.3-0.1,2.8,1.5,3.9,2.6
	c10.8,11.4,21.7,22.8,32.4,34.4c3.3,3.6,6.9,3.7,10.6,1.7c12.4-6.6,24.9-13,37-20.2c2.9-1.7,4.9-5.7,6.4-9.1
	c6.5-14.8,12.6-29.7,18.9-44.5c1.8-4.2,4.7-4.3,7.8-0.3c4.3,5.7,8.6,11.5,12.8,17.4c1.9,2.6,3.9,4.3,7.4,3.8
	c8.1-1.2,16.2-2.1,24.3-3.4c11.3-1.8,22.5-3.8,33.8-5.5c1.1-0.2,2.7,0.9,3.5,1.9c5.2,7.1,10.3,14.3,15.3,21.6c2,3,4.8,3.9,8.2,3.3
	c3.1-0.5,3.5-2.8,3.7-5.5c0.8-9.1,1.9-18.3,2.9-27.4c1-9.5,2-18.9,3.1-28.4c0.1-1,0.9-2.1,1.7-2.9c4.8-4.2,9.4-8.6,14.5-12.5
	c6.5-5,7.9-12.5,10.4-19.9c11.4,1.9,22.6,3.7,33.7,5.7c14.1,2.5,28.2,5.2,42.3,7.8c12.3,2.3,24.9,3.9,36.9,7.3
	c7,2,13.3,6.7,19.7,10.5c8.3,4.9,16.3,10.2,24.6,15c2.3,1.3,5.2,1.8,7.9,2.1c16.5,1.4,32.3-1.2,47.7-7.6c8.2-3.4,17.1-5.1,25.6-8
	c4.6-1.6,6.7,1.9,9.4,3.9c3.2,2.3,5.8,5.5,8.1,7.8c-2,6.6-4.4,12.5-5.4,18.7c-0.9,5.6,4.9,8,8.4,10.8c1.6,1.3,6.1-0.6,9-1.7
	c2.5-0.9,4.6-2.8,7-4.3c0.5,5.7,1.4,11.1,1.3,16.5c0,3.9,1.9,5.6,5,7c5,2.3,10.6,3.9,14.6,7.3c8.5,7.2,18.7,12.9,23.5,24.4
	c-8.4,1.8-16.8,3.4-25.1,5.4c-1.9,0.5-3.9,1.7-5.4,3.1c-3.3,3-6.2,6.5-9.6,9.4c-3.7,3.2-3.6,6.8-1.7,10.6c4.1,8.4,8.3,16.7,12.6,25
	c1.7,3.3,1.8,6.4,1.5,10.2c-0.9,14.1-0.8,28.2-1.3,42.2c-0.1,3.9,2.3,5.3,5.1,6.2c5.9,1.9,11.7,3.9,17.7,5.4
	c3.8,0.9,4.4,3.1,4.2,6.4c-0.5,7.9-1.2,15.9-0.9,23.8c0.2,5.6-2.2,9.9-4.6,14.3c-3.5,6.5-7.1,12.9-11.1,19.1c-3.9,6-2.6,12-0.4,17.9
	c7.4,20.4,5.8,41.6,6.1,62.7c0,3.5,0.9,7.2,2.4,10.3c5.2,11,10.9,21.8,16.9,33.6c-7.5-5.5-14.1-10.5-20.8-15.3
	c-2.2-1.5-4.8-2.9-7.3-3.4c-13.5-2.8-27-4.7-40.9-2.9c-10.4,1.4-21,1.7-31.6,2.1c-7.4,0.3-14,1.4-19.2,7.8
	c-4.9,6.1-10.7,11.4-16.6,16.6c-3.3,3-3.6,6.3-2.8,9.9c4.1,18.2,8.2,36.5,13.1,54.6c1.3,4.7,5.7,8.6,8.8,12.8
	c2.8,3.7,5.8,7.1,8.7,10.7c3.4,4.3,6.6,4.7,12.3,2.6c1.5-0.5,2.8-1.3,5.3-2.5c-3,6.9-5.6,12.8-8,18.7c-6.5,15.6-12.9,31.3-19.4,47
	c-0.5,1.2-1.1,2.3-1.9,3.3c-4.1,5.1-8.3,10.2-12.3,15.4c-2.3,3-0.9,7.6,2.8,9.4c9.5,4.7,19.1,9.3,28.7,13.8c3.3,1.5,4.2,3.4,3.2,7
	c-4,14.1-7.1,28.3-6.6,43.1c0.1,2.2-0.8,4.4-1.4,7.5c-8.5-1.7-16.9-3.1-25.1-4.9c-10.3-2.4-20.5-5.1-30.8-7.6
	c-4.9-1.2-8.3,0.4-11.4,4.7c-4.7,6.6-7.2,13.3-6.4,21.6c0.6,5.6,0.1,11.3,0.1,17.7c-5.3,0-10.4,0.4-15.4-0.1
	c-7.3-0.8-13.4,1.7-19.4,5.5c-14.9,9.3-30,18.4-45,27.6c-4.1,2.5-5.6,6.3-3.6,11c9.8,23.3,19.7,46.5,29.4,69.8
	c2.1,5.2,4.8,8.5,11,7.3c1.2-0.2,2.6,0.1,4.2,0.2c-0.4,2.5-0.9,4.7-1.1,7c-0.3,7.2,0.6,8.3,7.3,10.8c2,0.8,5.5,3,5.3,3.5
	c-1,2.9-1.3,6.2-5.6,7.6c-12.8,4.2-25.4,9.2-38,13.8c-6.9,2.5-8.1,4.5-7,13c0.5,4.4,1,8.8,2.1,13c0.5,2.1,2,4.7,3.8,5.8
	c9.6,5.9,19,12.2,29.2,16.9c7.2,3.3,15.5,4.7,23.5,6.2c9.3,1.8,18.8,2.6,28.1,4.2c1.8,0.3,3.9,1.6,4.8,3.1
	c9,14.4,17.8,28.9,26.7,43.3c9,14.7,17.6,29.8,27.3,44.1c6,8.9,13.8,16.7,20.7,25.1c5.5,6.7,10.5,13.9,16.4,20.2
	c5.7,6.1,12.3,11.5,18.6,17.1c3.8,3.4,7.6,6.7,11.3,11.4c-10.8,0.8-21.6,2.1-32.4,2.4c-16.7,0.4-33.3,0-50,0.2
	c-6.8,0.1-13.6,0.9-21.1,1.4c2.5,10.1,4.8,19.1,7,28.1c1.9,7.6-3.4,13.3-11.3,12.1c-4.4-0.6-8.8-1.3-14-2
	c2.4,12.2,4.9,23.7,6.7,35.3c0.5,3.5-0.2,7.5-1.6,10.7c-1.5,3.5-5.9,3.3-9.3-0.2c-7.4-7.7-14.3-15.8-21.8-23.4
	c-8.2-8.4-10.6-19.7-14.9-30c-2-4.7-3-5.6-7.7-3.8c-13.4,5-26.7,10.3-40.2,15c-4.9,1.7-6.5,4.8-6.1,9.1c0.5,4.5-1.6,6.8-5.4,8.4
	c-3.4,1.4-6.9,2.6-10,4.5c-6.6,4-11.3,2.7-17.8-3.3c-5.1-4.7-10.3-9.3-15.4-14c0,0-0.3-0.3-0.3-0.3c-2.2-1.9-4.2-4.4-6.7-5.4
	c-8.2-3.2-16.6-1.6-24.8,0.4c-3.3,0.8-6.4,2-9.6,3C946.3,1524.7,944.8,1524.8,943.2,1525z"/>
<path class="st0" d="M989,1526.6c0,0,0.3,0.3,0.3,0.3c7.4,8.1,14.8,16.2,22,24.1c7.7-2.6,15.1-5,22.4-7.7c10.4-3.9,8.1-3.2,7.7-13.1
	c-0.2-4.1,1.7-5.4,4.5-6.4c6.7-2.3,13.6-4.1,20.3-6.4c6.4-2.2,12.7-4.9,19.6-7.5c1.4,3.2,3.3,6.2,4,9.4c2.4,10.8,9.8,18.6,16.4,26.6
	c6.7,8.1,14.4,15.4,22.2,22.5c3.1,2.8,7.8,3.6,11.4,5.9c3.4,2.2,6.7,4.8,9.4,7.8c2.3,2.6,1.1,5.4-1.6,7.8c-1.3,1.2-2.7,3.3-2.6,4.9
	c0.3,8.6,0.9,17.2,1.7,25.8c0.6,6.1-0.7,8.2-5.1,9.4c-2.3,4.2-3.7,7.9-6.2,10.8c-14.5,17.1-30,33.3-43.4,51.2
	c-7.4,9.9-17,18-23.4,28.7c-5.2,8.7-10.2,17.5-15.8,25.9c-5.8,8.6-6.2,18.4-7,28.1c-0.7,8.5-1.5,17.1-1.9,25.6
	c-0.2,3.9,1,7.9,0.8,11.8c-0.3,5.8-1.6,10.8-7,14.9c-7.6,5.8-14.2,12.9-21,19.7c-2.1,2.1-3.7,2.3-6.4,1.2
	c-11.3-4.7-22.6-9.4-34-13.6c-3.3-1.2-4-3.2-4.6-6.1c-0.4-2.1-1.4-4.3-2.6-6.1c-2.8-4.2-6.1-8-8.7-12.2c-2-3.3-4.1-5.1-8.2-5
	c-4.7,0.1-9.4-1.2-14.1-1.2c-4.6,0-9.1,0.8-13.7,1.4c-3.8,0.5-5.6-1.3-6.9-4.6c-3.4-8.3-7.7-16.3-10.5-24.7c-1.1-3.5,0.5-8.1,1.5-12
	c2.9-11.2,5.5-22.5,9.5-33.3c2.5-6.6,7.2-12.4,11.2-18.2c2.2-3.1,5.4-5.5,7.6-8.7c2.1-3,3.2-6.6,5-9.8c1.6-2.8,4-5.2,5.5-8.1
	c2-3.7,2.4-7.3-1.2-10.7c-11.2-10.6-22.2-21.5-33.3-32.2c-0.7-0.7-1.6-1.2-2.4-1.7c-7.9-5.5-13.8-16.1-14.6-26.1
	c8.6-2.6,17.2-5,25.6-8c2.1-0.7,4.4-3,5.2-5c4.7-13.1,9-26.4,13.4-39.6c1.9-5.7,0.1-5.9-4.4-9.6c-5.5-4.5-8.3-2.6-12.1,1.3
	c-0.6,0.6-2.6,0.5-3.4,0c-9.3-6.3-11.3-1.7-16.5,4.2c-8.5,9.6-17.2,19.1-25.7,28.4c-1.8-0.8-3.2-1.4-4.5-2.1c-2-1.1-5-2-5.6-3.7
	c-0.7-1.8,0.3-5,1.7-6.7c6.4-7.4,13.6-14.2,19.9-21.7c10-12,24.6-16.1,37.7-22.7c2.7-1.4,6.2-0.9,9.3-1.7c2.3-0.6,4.3-2,6.4-3
	c1.6-0.1,3.2-0.3,4.8-0.4c2.1-0.3,4.3-0.5,6.3-0.9C966.2,1521.1,978,1519.6,989,1526.6z"/>
<path class="st0" d="M1135,1523c7.5,0,14.3,0,21.2,0c4.8,0,7.6-2.3,6.7-6.9c-1.5-8.2-1.5-16.8-6.4-24.2c-2.5-3.8,0.3-8.3,5.3-8.7
	c5.8-0.5,11.6-0.8,17.4-1c19.9-0.7,39.9-1.4,59.8-2.1c4-0.2,8-0.7,11.9-0.9c3.8-0.1,6.8,1.6,6.9,5.6c0.2,4.3-2.8,5.7-6.8,6.4
	c-2.1,0.3-4.9,1.8-5.5,3.4c-0.6,1.4,0.9,4.9,2.4,5.7c8.7,4.2,15.1,11,21,18.4c2.3,2.9,5.1,3.7,8.7,3.5c6.3-0.3,12.6-0.1,18.9-0.1
	c2.7,16.8,5.4,33.2,7.8,47.7c-5.7,8.8-10.7,16.4-15.5,24c-2,3.2-3.6,6.7-5.9,9.5c-1.3,1.5-3.8,2.3-5.9,2.7c-4.5,1-7.6,2.5-7,8.1
	c0.5,4.8-0.1,9.7,0.2,14.5c0.2,4.2-1.5,4.9-5,3.5c-7.9-3.1-16-5.5-23.7-9.1c-7-3.3-12.9-1.1-19.2,1.5c-2.5,1-5.9,1.8-8.2,0.9
	c-3.4-1.4-3.1-5-2.2-8.3c1.2-4.4-0.1-7.3-4.5-9.6c-9.8-5-19.1-11-29-15.7c-4.3-2-9.5-2.4-14.3-2.7c-7.8-0.5-7.8-0.3-10.6-7.9
	c-0.4-1.2-1.9-2.2-3-3.1c-1.6-1.2-3.3-2.3-4.9-3.5c-6.4-4.7-7.2-6.9-3.3-13.8c2.5-4.4,1.2-8.5,0.3-12.4
	C1140.5,1539.9,1137.6,1531.7,1135,1523z"/>
<path class="st0" d="M1150,1593c6.6,0,13.8-0.2,20.9,0.1c2.3,0.1,4.5,1.6,6.7,2.8c9.6,5.2,19.1,10.5,28.6,15.7
	c-2.1,12.9-4.1,25.7-6.2,38.8c-10.7-2.8-21.6-5.7-31.1-12.2c-1.7-1.2-3.6-2.3-5.5-3.2c-9.6-4.5-13.2-12.5-13.3-22.6
	C1150,1606.2,1150,1600,1150,1593z"/>
</svg>
