<?xml version="1.0" encoding="utf-8"?>
<!-- Generator: Adobe Illustrator 19.0.0, SVG Export Plug-In . SVG Version: 6.00 Build 0)  -->
<svg version="1.1" id="Layer1" xmlns="http://www.w3.org/2000/svg" xmlns:xlink="http://www.w3.org/1999/xlink" x="0px" y="0px"
	 viewBox="0 0 5400 2700" style="enable-background:new 0 0 5400 2700;overflow: hidden; display: inline; width: inherit; min-width: inherit; max-width: inherit; height: inherit; min-height: inherit; max-height: inherit;" xml:space="preserve">
<style type="text/css">
	.st0{fill:#8FD4EB;stroke:#000000;stroke-width:3;}
</style>
<g>
	
	<path onclick="modal(this.id);" id="3914" class="st0" d="M2679.5,783.8c-0.3-1.4-0.7-3-1.1-4.5c-2.7-12.3-3.4-12.7-16.3-14c-2.9-0.3-6-0.5-8.6-1.6
		c-2-0.8-3.9-2.7-5-4.6c-4.4-7.3-9.3-14.6-12.6-22.4c-2.1-4.9-2.2-10.9-2.2-16.4c-0.1-6.6,0.9-13.2,1.5-20.9
		c-6.4-1.7-12.3-3.3-19.1-5.1c-3.2,9.8-6.2,18.9-9.1,28c-0.7,2.2-1.1,4.5-2,6.7c-4.4,11.2-9.9,21-23.7,22.4
		c-4.5,0.5-8.8,2.4-14.2,3.9c-2.3-9.9-8.4-16-17-19.7c-6.7-2.9-13.8-5.2-20.1-8.8c-7.8-4.4-16.4-6.1-24.5-9.1
		c-8.4-3.1-17-5.8-25.5-8.8c-7.1-2.6-14.8-4.3-19.3-11.4c-0.9-1.3-3.3-2.2-5.1-2.3c-13.6-0.6-27.2-0.9-40.7-1.5
		c-2.5-0.1-5.2-0.4-7.5-1.3c-4.9-1.8-9.7-4-14.9-6.2c-1.6,3.9-2.8,7-4.1,10c-3.2,7.7-4.9,8.5-12.8,5.3c-1.8-0.7-3.6-1.4-5.3-2.1
		c-7.6,7.6-20.3,11.8-31.8,10.5c-3.1-8.6-6.3-17.6-9.7-27c-12.4,2.6-25,5.5-37.8,7.8c-12.7,2.3-25.4,3.9-38.6,5.9
		c-0.3-0.3-1.1-1-1.4-1.8c-2.8-7.6-8.1-11.5-15.6-14.8c-9.9-4.3-18.6-11.3-29.4-18.2c13.3-4.6,23.6-11.9,37-11.2
		c19,1,34.9-7.5,48.7-19.5c4.7-4.1,7.6-10.6,10.5-16.5c2.2-4.5,3.3-8.8,9.9-9.1c4.9-0.2,7-6.1,5-12c-4.5-13.2-9.3-26.2-13.9-39.4
		c-2.7-7.7-5.4-15.5-5.2-24.4c7.8-1.4,15.3-3,22.8-3.9c17-2.1,31.4-19.3,33.1-35.2c1.2-11,0-21-3.6-31.2c-3-8.4-5.7-16.9-9-26.9
		c6.1,0.5,11,0.8,15.8,1.3c3,0.3,5.9,1.4,8.8,1.4c9.8,0,14.5-4.6,15.1-14.6c0.1-2-0.4-4.2,0.2-5.9c0.8-2.1,2.5-3.8,3.9-5.7
		c0.8,0.2,1.6,0.4,2.4,0.5c0.7,3.4,1.7,6.7,2.1,10.1c0.9,7.6,3.7,10.7,11.1,11.7c2.6,0.4,5.3,0.5,7.9,1c9.1,1.9,13.9-1.8,15.8-10.9
		c2.8-13.6,3.9-27.7,0.6-41.5c-0.9-3.7-3.3-7.2-5.5-10.5c-5.7-8.4-5.8-8.4-5.7-18.9c1.9-1.7,4.5-3.1,5.4-5.2
		c0.8-1.8,0.1-4.6-0.8-6.6c-2.5-5.8-4.5-12.1-8.4-16.9c-5.2-6.5-11.9-11.2-21.3-11.2c-8.8,0-9.1-1.1-11.2-9.3
		c-3.6-13.9-1.2-26.3,8.2-37.3c1.1-1.3,2.3-2.5,3-4c7.1-15,21-21.5,34.7-28.4c32.7-16.5,32.7-16.3,70-19.1
		c20.2-1.5,40.3-3.7,60.5-5.6c1.3-0.1,2.6,0,4.7,0c3.6,8.5,7.1,17.1,10.7,25.6c4.2,10.1,9,11.1,16.7,3.2c0.2-0.2,0.5-0.5,0.7-0.7
		c4.4-10.2,12.9-10.3,22.4-10.6c14-0.6,26.9,2.4,39.9,7.2c9.5,3.5,16.1,9.6,18.9,19.1c2.2,7.5,6.6,13.2,12.5,17.6
		c10,7.5,18.2,16.4,25.5,26.5c2.3,3.3,6.3,7.7,9.4,7.6c5.8-0.2,4.9-6.9,6.1-11.1c2.2-7.6,3.9-15.3,5.8-23.2
		c12.3,5.8,18.9,15.2,23.1,26.8c2.3,6.3,6.5,12.2,13.1,12.1c6.7,0,12.8-5.3,14.8-11.7c6.7-20.5,22.2-34.4,35.5-50
		c3.4-4,7.2-7.8,11.6-12.6c8.8,11.4,17.5,22.2,25.5,33.6c3,4.3,3.3,9.8-0.1,15c-4.4,6.6-6.4,13.5-3.4,21.6
		c1.9,5.2,0.5,10.6-3.9,14.7c-3.9,3.6-9.5,7-8.5,12.7c1.3,7.4,3,15.9,7.6,21.2c6.1,6.9,7,14.7,9.2,22.5c1.1,3.8,1.6,8,3.6,11.1
		c7.4,11.1,6,22.6,2.6,34.4c-0.8,2.9-2,5.8-3.6,8.2c-7.2,10.4-6.3,21.9-4.9,33.5c0.3,2.1,1.9,4.1,2.9,6.2c1.7,3.6,3.8,7,5.1,10.7
		c2.7,8,3,8.4,11.2,7c2.6-0.5,5.2-1.2,9.2-2.2c0.7,1.1,2.2,2.6,2.9,4.4c6.7,17.8,9.6,36,4.6,54.7c-0.7,2.8-2.1,5.9-4.2,7.8
		c-4.5,4-4.8,9-3.5,13.7c1.5,5.7,3.8,11.5,7,16.4c4.3,6.9,10.9,5.7,15.9-0.7c5.9-7.5,12.1-15.2,19.8-20.7
		c16.2-11.6,25-26.2,23.7-46.4c-0.5-7.5,1.5-14.4,4.9-21.1c4.1-8.3,7.6-17,11.5-25.4c2-4.3,1.3-7.7-2.3-10.6c-0.5-0.4-0.9-1-1.3-1.5
		c-15.3-15.8-14.8-34.2-9.3-53.8c36-7,71.5-13.7,109-5.5c2.9,9.3,6.9,19.2,9,29.5c2,9.9,2,20.3,3,31.7c3-0.8,5.9-0.7,7.7-2
		c20.1-15.9,40.7-31.4,51.3-56c2.1-4.9,3.2-9.3,0.5-14.2c-3.6-6.4-2.1-12.1,2.4-17.5c2.6-3,5-6.1,7.8-9.6c6.9,2.3,13.6,4.2,20,6.8
		c6.5,2.7,12.9,3.4,19.4,1c9.5-3.5,18.4-2.8,28,0.9c8.9,3.4,18.6,5,28.1,6.1c6.5,0.7,12.2,2.4,17.9,5.3c9.7,5,19.7,9.5,29.5,14.3
		c-0.7,12.6-1.5,13.1-13.3,16.9c-4.1,1.3-9.1,4.5-10.5,8.1c-3,7.5-8.9,8.3-15.1,9.1c-3.9,0.5-8,0.1-12,0.3c-4.5,0.2-7.1,2.7-8.7,7
		c-1.5,4-0.8,7.1,2.3,9.8c3.7,3.2,5.5,7,6.6,11.9c1.3,5.7,4.1,10.6,10.2,13.9c6.2,3.4,11.1,9.1,16.4,13.7c-2.9,5.4-7.2,6.2-11.5,6.2
		c-11.3,0.1-22.7,0.1-34-0.4c-9.4-0.4-15.2-7.2-15.3-16.5c-0.2-10.9-0.6-21.8-0.9-32.7c-0.1-4.2-0.2-8.5,0.3-12.6
		c1-7.8-2.7-13.5-10.5-15.8c-7-2-14.5,1.5-16.9,8.7c-1.6,4.6-2.8,9.6-0.1,14.4c0.9,1.6,1.1,3.5,1.9,6.2c-8-2.3-14.8-4.6-21.7-6.1
		c-10.6-2.4-18.1,0.6-22,10.3c-4.7,11.6-14.9,15.7-24.5,21.1c-4.8,2.8-10.4,4.9-14.2,8.6c-6.7,6.5-7,17,0.7,23.8
		c4.5,4,8.4,8.5,12.5,12.9c0.4,0.4,0.4,1.2,1.1,3.3c-3.6,0.9-7.1,2.3-10.8,2.8c-15.4,2.1-30.9,4-46.4,6c-3.3,0.4-6.7,0.9-9.7,2
		c-6.2,2.4-12,2.6-18.3-0.1c-5.7-2.5-8.7-1.7-11.6,3.9c-7.8,15.6-9.5,27.5,3.1,41c3.1,3.3,6.7,6.2,11.6,10.7c-8,0-14.1,0.3-20.1-0.1
		c-5.9-0.4-11,0.7-12.6,6.9c-1.5,6-3.2,12.4,2.2,17.7c1.6,1.6,3.1,3.4,5.4,6.1c-7.5,8.1-8.2,18.2-7.3,28.2c-5.1,4.7-10,4.6-15.8,2.6
		c-6-2.1-12.7-3.5-16.4,4.7c-4.9-2.3-9.1-4.4-13.3-6.3c-9.6-4.2-16.9-0.2-18.5,10.3c-0.6,4.2-0.4,8.5-0.6,12.7
		c-0.1,1.2,0.1,3-0.6,3.6c-6.8,5.6-4,13.7-5.5,20.6c-0.4,1.9,2.4,5.7,4.6,6.8c6.4,3.3,13.3,5.9,20.1,8.6c3,1.2,6.2,2.1,10,3.3
		c-4.6,11.6-8.9,22.6-13.7,34.5c-5,0-10.5,0.1-16,0c-7.1-0.1-12.2,3-14.9,9.5c-1.9,4.6-4.8,6.9-9.9,6.4
		c-22.4-2.2-27.2,11.6-30.7,30.9c-0.9,5,0.3,10.5,0.6,16.8c-5.6-2.4-10.8-4.8-16.1-6.9c-12-4.6-23.4-3.4-32,6.4
		c-6.9,7.9-15.5,10.9-25,13c-3.6,0.8-7.3,0.9-10.7,2.1c-9.3,3.4-17.1,8.3-20.8,18.5c-3.4,9.6-9.4,17.3-20.3,20.5
		c-0.7-1.5-1.6-2.7-1.6-3.9c-0.3-15.6-8-26.8-20.7-35.3c-2.3-1.5-5-4-5.6-6.5C2708.7,793.1,2696.3,786,2679.5,783.8z"/>
	<path onclick="modal(this.id);" id="3919" class="st0" d="M2737.1,2355c0.7,2.7,1.8,5.5,2.2,8.3c2.6,18.9,23.5,27.1,35.8,17.5c6.1-4.8,12.4-4.1,18.4,0.3
		c8.5,6.3,17.7,9.8,28.4,10.5c11.3,0.8,20.3,7.4,28.9,13.8c-5,2-10.8,2.9-14.8,6.1c-9.5,7.7-19.6,7.7-30.6,5.1
		c-8.3-1.9-17-3.7-25.5-1.3c-5.3,1.5-10.3,4.3-15.3,6.8c-2,1-3.5,3.7-5.5,4.1c-8.5,1.7-9.9,8.1-10.4,14.9c-0.4,5.6-0.3,11.3,0,17
		c0.4,9.4,4.6,17.1,13.2,24.5c-9.6,1.8-17.9,2.2-25.3,5c-16.3,6.1-29.3,0.7-42.5-8.4c-13.4-9.2-27.7-17.2-40.4-24.9
		c-1.4-6-2.8-10.7-3.6-15.5c-1.1-5.8-1.7-11.7-2.5-17.5c-1.5-10.7-6.7-11.1-15.7-10.6c-3.2,0.2-6.7,1.1-9.5,2.7
		c-10.7,6.3-22.4,5.9-34,5c-5.5-0.4-10.4,0.2-15.4,2.2c-3,1.2-6.5,2.3-9.6,2c-13.8-1.5-27.5-3.5-42.2-5.4
		c4.9-11.4,9.3-21.4,13.7-31.4c5.4-12.2,10.8-24.3,16.2-36.5c0.7-1.5,1.4-3,1.8-4.6c1.4-6.1-0.9-8.9-7.3-8.1
		c-5.6,0.7-11.1,2.1-16.7,2.8c-9.1,1.1-18.3,1.5-27.1,4.2c-6,1.8-11.7,3.7-17,7.8c-8.3,6.5-18.8,7.9-29,9.3
		c-4.9,0.7-9.9,0.4-14.9,0.1c-5.9-0.3-11.3,0.1-14.5,6.2c-0.7,1.3-2.5,2.1-4.1,3.4c-4.8-2.6-6.2-5.5-6-11.6
		c0.1-6.9,2.9-15.1-3.3-21.4c-0.7-0.7-1.4-1.9-1.2-2.6c2.9-8.2-2.7-12.1-7.8-16.5c-2-1.7-4.2-3.9-4.8-6.3
		c-2.9-11-12.1-11.5-20.5-12.1c-3.7-0.2-6-0.9-8.6-3.2c-14.5-12.7-29.1-25.3-43.7-37.9c-0.3-0.2-0.7-0.3-0.8-0.6
		c-4.6-9-9.4-17.9-13.5-27c-0.7-1.6,0.9-4.5,2-6.5c7.3-12.3,11.1-26.2,19.5-38c4-5.7,5.4-13.5,6.9-20.5c1-4.8,2.9-8.2,7.3-9.6
		c14.7-4.6,21.5-16.8,28.8-28.8c11.8-19.3,12.9-39.9,8.2-61.4c-1.6-7.1-3.2-14.3-4.9-21.4c-3.7-15.5-6.1-24.8-30.4-26.2
		c-1.1-8.3-1.6-16.7,0.6-25.2c0.3-1.3,0.7-2.6,1.3-3.8c5.4-10.1,4.1-19.8-1.8-29.2c-3.9-6.1-3.7-12.9-1.8-19.3
		c2.9-9.6,1.9-17.1-8.7-21.8c3.6-12.8-3-18.1-14.2-21.3c-11.7-3.4-21.4-10.5-30.1-18.9c-1.9-1.9-3.7-4.8-3.8-7.4
		c-1-17.3-1.5-34.5-2.2-51.8c-0.5-15.3-0.4-30.6-1.7-45.8c-0.7-8.9,1.9-15.5,7.9-21.5c16.1-16.4,32.2-32.8,48.3-49.2
		c10.7-10.9,21.3-21.8,28.1-35.9c2.1-4.3,7.3-7.4,11.6-10.4c4.6-3.2,10.1-5.3,14.6-8.5c7.6-5.4,9.3-11.4,5.4-20
		c-3-6.6-3-12.1,3.3-17.3c18.7,7.6,37.4,15.2,56.5,23c-0.3,2.3-0.7,4.2-0.9,6c-0.8,7.4,1.1,10.3,8.3,12.3c6.4,1.7,13,2.6,19.4,4.6
		c11.1,3.4,14.1,13.4,7.1,22.4c-5.3,6.8-10.8,13.4-16.7,20.7c3.2,2.5,6,4.2,8.3,6.5c3.5,3.5,7.2,6.9,9.9,11c2.3,3.5,4.1,8,1.2,12.2
		c-7.4,10.8-1,19,5.4,26.7c7.6,9.2,17.6,13.6,29.9,12.9c5.2-0.3,10.6,0.6,15.7,1.6c7.1,1.4,11.7,5.8,13.6,13.1
		c-7,6.6-13.9,13.1-21.2,19.9c2.4,5.1,4.4,9.6,6.6,14c3.6,7.4,3.8,14.7-0.8,21.6c-4.9,7.3-4.5,14.3,0.4,21.2
		c6.1,8.4,9.4,17.2,8,27.9c-0.9,6.8,1.5,13,7.1,17.7c8.1,6.8,15.9,13.9,23.7,21.1c2.6,2.4,4.8,5.5,7,8.3c4.8,5.9,9.1,12.3,14.3,17.7
		c5.3,5.4,11.4,9.7,16.4,15.8c3.4,4.1,10.1,6,15.7,7.7c8.9,2.6,16.5,8.5,26.2,9c4.1,0.2,8.9,11.2,6.8,16.1
		c-7.2,16.8-6.7,35.1-10.8,52.6c-0.7,2.9-1.2,5.9-1.7,8.8c-1.1,6.8-1,13.4,5.2,18.1c3.7,2.8,4.5,6.2,2.8,10.6
		c-1.1,2.8-1.5,5.8-2.7,8.5c-5,11-5,22.7-4.3,34.3c0.7,11.1,7.7,18.6,16.6,23.4c7.7,4.1,12.7,9.9,15.1,17.5
		c2.7,8.3,8,14.6,13.6,20.5c8.5,8.8,10,19.3,2.6,29.5c-5.1,7.1-9.6,14.1-10.4,23.3c-0.5,5.6,0.1,10.5,2.9,15.2c3.8,6,3.4,12,2.4,19
		c-3.7,25-6,50.2,1.3,75.2c0.8,2.9,1.4,6,2.9,8.4c2.4,3.9,5.2,8.1,10.8,7.7c5.2-0.4,8.4-3.7,10.3-8.2c1.4-3.6,2.5-7.3,3.7-11
		C2735.5,2355.2,2736.3,2355.1,2737.1,2355z"/>
	<path onclick="modal(this.id);" id="3916" class="st0" d="M2118.9,742.9c1.5-3,2.8-5.6,4.2-8.3c4.5-8.8,9.8-17.1,11.3-27.4c0.8-6,4.6-11.6,7.2-17.3
		c0.8-1.8,2.8-3.3,3-5.1c1.1-11.6,9.9-18.4,16.5-27.3c8.4,4.2,17.2,3.3,26.2,3.5c6.6,0.2,13.5,2.7,19.6,5.6
		c11.7,5.4,20.8,15.6,33.6,19.2c1.5,0.4,2.8,2.7,3.7,4.3c2,3.4,3.7,7,5.3,10.2c1.2,0.3,1.9,0.8,2.4,0.7c19.4-6.2,39.7-7.3,59.7-10.4
		c4.1-0.6,7.9-3,13.2-5.1c1.7,3.9,3.6,8.3,5.4,12.7c1.8,4.6,3.4,9.4,5.1,14.1c10.5,3.3,19.8-0.3,29.1-3.9c4.9-1.9,9.3-4.5,15.1-2.1
		c2.6,1,6.3-0.9,9.5-1.5c1.7-4.8,3.2-9.1,4.8-13.8c2.2,0.8,3.8,1.1,5.2,1.9c8.3,4.5,16.8,3.8,26,3.5c12.5-0.4,25.2-0.4,37,7.9
		c9,6.3,20.6,8.8,31.1,12.9c17.9,7.1,35.9,13.9,53.8,21.2c8.5,3.4,13.9,11,15.6,21.1c2.5-0.5,5-0.8,7.4-1.5
		c4.2-1.1,8.3-2.4,12.5-3.5c5.4-1.5,12.8-1.4,15.7-4.9c5.1-6.1,7.8-14.3,10.7-22c3.5-9.3,6.1-18.9,9.3-29.2c4.4,1.1,8.2,2,12.9,3.1
		c0.2,9.2,0.6,18-2.7,27.2c-5.9,16.2-10.4,33-15.4,49.5c-0.8,2.5-1.2,5.2-2.3,7.6c-6.6,15.5-3.4,30.2,5.1,43.6
		c6.3,10,12.5,20.4,23,27.1c3.5,2.2,6.2,6.1,8.5,9.7c3.7,5.7,8,9.9,14.4,13c8.2,4,9.8,13.3,8.6,20.7c-2.3,14.6,5.8,26.2,8.8,39.3
		c0.5,2,2.3,4.6,4.1,5.3c6.4,2.3,9.7,7.8,14.3,12c5.5,5.1,12.3,8.8,18.4,13.2c1.8,1.3,4.1,2.6,4.8,4.4c2.4,6.5,4.4,13.2,6.1,20
		c1.7,6.5,0,9.7-6.8,10.4c-5.9,0.6-7.3,3.5-7.3,8.4c0,9.6,0.1,19.1-0.1,28.7c-0.1,3.1-1.3,6.2-1.9,8.8c-6.4,2-10.1-1.3-13.7-4.1
		c-6.1-5-11.6-6.6-19.9-3.8c-8.2,2.7-17.8,2.6-26.6,2c-10-0.7-18.2,2.8-26,7.9c-6.3,4.1-10.7,9.4-10,18c0.8,9.9-1,20,4.3,29.2
		c0.5,0.8,0.3,2,0.3,2.9c0,0.6-0.4,1.2-0.8,2.4c-4,0-8.2,0-13,0c0,3.8-0.4,7,0.1,10.1c0.7,4.7,0.4,9-2.1,13.3
		c-1.1,1.8-1.3,4.5-1,6.6c0.9,5.4-1.9,6.3-6.1,6.2c-5.9-11.6-10.9-14.1-24.1-11.4c0.8,4.1,2.9,7.3,6.7,9c4.7,2.1,4.6,6.1,4.6,10.1
		c0,4.6-2.8,6.2-7,6.6c-1.3,0.1-2.5,1.9-3.6,2.9c-3.1-1.5-6-2.9-10.1-4.9c0-5.6,0.1-11.9,0-18.1c-0.1-9.8-7.1-18.7-16.7-20.4
		c-22.2-4-44.5-7.7-66.7-11.5c-20.3-3.5-40.6-6.9-60.9-10.3c-1-0.2-2.3,0.1-2.9-0.4c-11.8-9.8-24.4-4-36.8-1.8
		c-2.6,0.5-5.3,1.2-7.6,2.2c-10.1,4.6-20.8,4.2-31.3,3.4c-12.1-0.9-19.3-9.7-24.8-19.3c-4.5-7.7-8-16-11.6-24.3
		c-4.2-9.8-5.2-19.5-0.2-29.8c3.7-7.7,5.8-16.2,8.1-24.4c1.3-4.5,2-9.1,6-12.2c4.7-3.7,6.5-9,7.6-14.7c1.4-7.7,4-10.5,11.6-10.8
		c4.6-0.2,9.3,0.4,13.8,1c4.3,0.6,8.4,2.1,12.7,2.6c10.1,1.4,17.7-5,17.9-15.2c0.2-10.3,0.9-20.5,3.9-30.5c2-6.6-0.1-9.6-6.7-12.3
		c-7.8-3.2-16-4.3-22.1,2.7c-6.5,7.3-17.1,5.5-24.9,2c-3-1.3-5.8-3.5-7.9-6c-5-5.6-10.2-10.1-18.4-10.2c-2,0-4.7-2.6-5.9-4.7
		c-7.8-13.3-19.7-20.2-34.5-23.2c-6.9-1.4-13.3-3.6-18.7-8.7c-2.1-2-6.1-3-9.2-2.9c-5.8,0.3-8.6-2.7-12.2-6.5
		c-6.3-6.7-14-12.2-21.1-18.2c-11.9-10.1-23.4-20.5-32.5-33.5c-5.1-7.3-12-13.3-18.3-19.7c-5.6-5.7-11.4-11.2-16.9-17
		C2129.9,755.1,2124.8,749.4,2118.9,742.9z"/>
	<path onclick="modal(this.id);" id="3918" class="st0" d="M2546.2,1804.8c5-4.6,9.4-9.2,14.4-12.9c9.9-7.5,8-13.1-2.5-20.9c-3.9-2.9-9.9-3.3-15.1-4.2
		c-3.2-0.6-6.6,0-10-0.1c-15.1-0.6-25.3-8.5-32.2-21.5c-1.9-3.6-1.8-6.8-0.4-10.4c4.9-12.6,2.7-20.5-7.8-28.7
		c-2.3-1.8-4.8-3.5-8.3-5.9c4.8-6.2,9.4-12.1,14.1-17.9c9.2-11.2,5.2-24.5-8.7-28.4c-4.5-1.3-9.2-1.7-13.6-3.2
		c-3.8-1.3-9.5-0.2-10.8-5.6c-1.4-5.6,0.6-10.3,5.1-14.1c6.1-5.2,11.8-10.8,17.7-16.1c8.6-7.8,17.5-15.3,25.8-23.5
		c3.8-3.7,7.3-4.6,12.4-3.5c27.2,6.3,54.7,11.5,81.7,18.6c16.1,4.2,31.5,2.7,47.2-0.1c25.8-4.5,51.6-9.4,77.4-14.1
		c3.6-0.7,7.5-0.5,10.8-1.7c6.1-2.3,12.3-4.9,17.8-8.3c6.8-4.2,13-9.3,21.9-5.7c1.9,0.8,4.6-0.1,7.3-0.2c1.9-8.7,9-12.8,15.4-17.5
		c5.7-4.2,9.3-3.8,15.1,0.1c4,2.8,8.4,5,13.7,8.2c0.7,6,1.5,13.6,2.5,21.7c15.8,6.8,31.7,13.7,47.5,20.5c8.9,3.8,17.6,8.1,26.6,11.4
		c9.8,3.7,18.1-4.9,28.4-4.5c2.9,7.7,5.9,15.7,8.9,23.7c0.9,2.5,2,5,2.5,7.5c0.8,4.1,2.2,8.6,1.3,12.4c-1.5,6.2,0,11.1,3.4,15.9
		c0.6,0.8,1.4,1.5,1.8,2.4c6.8,14.1,14.3,27.7,27.7,36.3c-9.2,6.5-17.9,12.2-25.9,18.7c-2.8,2.3-3.8,6.6-6.4,11.4
		c-10.4,3.5-12.6,13.2-13.8,24.4c-0.8,7.4-3.4,14.7-6.1,21.8c-1.6,4-5,6.6-10.3,6.1c-5-0.5-9.4,1.2-13.8,4.5
		c-7.7,6-12.9,4.9-19.6-2.7c-1.6-1.7-2.8-3.8-4.5-5.3c-4.9-4.4-10.2-7.2-17.2-4.8c-3.4,1.2-7.1,1.7-10.5,2.4
		c-3.4-3.9-6.6-7.5-9.8-11.2c-6.2-7.2-14.5-9-23.4-8.5c-5.3,0.3-10.5,1.5-15.7,2.5c-6.6,1.3-11.4,4.5-13,11.9
		c-0.7,3.3-3.6,6.2-5.5,9.3c-4.3,6.9-8.2,13.6-5.3,22.4c1,2.9,0.2,6.5,0.2,10.1c-8.5,2.1-15.7,0.7-22.5-3.2
		c-13-7.6-29.7-0.9-31.3,13.8c-0.7,6.6,2.8,14,5.6,20.6c2.7,6.4,3.2,12-0.4,18c-1.3,2.3-2.3,4.8-3.6,7.6c-3,0.7-6.1,1.9-9.4,2.3
		c-9,1.2-13.6,7.3-15.2,15.1c-1.5,7.1-4.3,13.2-8,19.1c-1.6,2.5-3.1,5.2-4.3,7.9c-4.4,9.4-2,17.3,7.5,25.1c7.4,6,8.3,14.3,2.8,21.8
		c-2.8,3.8-6.7,3.7-10.8,3.8c-8,0.3-15.3,2.3-18.7,12c-3.3-6.3-7.7-8.2-14-9.6c-11.5-2.7-22.2-8.3-33.3-12.7
		c-0.3-0.1-0.6-0.3-0.8-0.6c-9-13.1-24.7-20.3-31.6-35.4c-1.5-3.2-4.6-5.6-7.3-8.1c-7.8-7.2-15.6-14.3-23.6-21.3
		c-5-4.4-7-10.1-5.8-16c1.9-9.4-0.8-17.2-6-24.3c-5.9-8.1-7.1-15.8-1.3-24.8c4.1-6.5,3.6-13.9,0.1-20.9
		C2550.5,1813.5,2548.5,1809.3,2546.2,1804.8z"/>
	<path onclick="modal(this.id);" id="3912" class="st0" d="M2566.1,1159.7c8.8,2.3,17-0.7,20.1-6.9c2.9-5.8-0.3-13.4-8-18.9c10.5-2,10.6-2,14.5,9.7
		c5.9,2.9,9.9,0.1,12.5-3.2c1.6-11.2,3.1-21.1,4.6-31.4c3.5-0.2,7.1-0.4,10.7-0.6c4.3-4.8,2.1-9.8-0.2-14c-5-9.2-3.4-19.1-2.3-28.4
		c0.6-4.5,6.4-8.9,10.7-12.2c5.8-4.5,13.1-6,20.3-6.3c7.6-0.4,15.2-0.1,23.5-0.1c-0.6,9.2,3.3,14.3,12.1,15.6
		c4.3,0.6,6.7,3.8,7.7,8.1c1.9,8.9,1.6,17.1-5.9,23.8c-1.4,1.2-2.5,3.2-3,5c-2.3,8.1,4.1,23.2,11.7,27.3c4.4,2.3,9.1,4.1,13.7,6
		c3.9,1.6,6.1,4.2,7.4,8.5c3.9,12.5,10.7,23.5,18.4,34c0.8,1.1,1.5,2.3,2.6,3c9.1,5.3,18.3,10.5,28.2,16.1
		c21.3-24.3,41.9-47.8,62.2-70.9c1.2,0.1,2,0,2.5,0.2c9,4.4,14.7,10.1,11.3,21.6c-2.3,7.7-1.3,16.1-4.6,23.9c-3,7.1-3.5,15.3,1.2,22
		c6.7,9.6,8.4,21.7,16.6,30.4c1,1.1,2.1,3.4,1.6,4.6c-3.3,8.4-1.5,18.5-8,25.8c-1.8,2-4,3.6-5.6,5.7c-2.1,2.8-4.7,5.8-5.2,9
		c-1.4,9-6,14.5-13.7,19.4c-7.4,4.7-14.1,11.4-19.2,18.6c-3.1,4.4-3,11.3-3.6,17.2c-0.1,1.6,2.2,3.9,4,5c3.4,2,7.2,3.3,12.3,5.6
		c-3.3,2.1-5.7,3.4-7.9,5.1c-3.4,2.6-6.1,4.9-5.3,10.6c0.6,4.4-2.6,9.3-4.4,14.9c2.3,1.1,5.2,2.8,8.2,3.8c3.5,1.2,7,3,5.3,6.8
		c-1.2,2.8-4.8,4.9-7.8,6.5c-1.4,0.7-3.8-0.6-5.7-1c-9.8-1.8-15.1-1.9-20.7,12c4.3,5.1,9.8,9.9,12.9,15.8c3.1,6,3.8,13.2,5.8,21.1
		c-5.6,0-10.3,0-15.2,0c-1.8-3.4-3.6-6.9-5-9.5c-4.4-0.8-7.7-1.4-11-2c-3.1-0.5-6.2-1-9.5-1.6c-1.4,4.5-2.5,7.9-3.4,10.6
		c-4.5,1.5-8.3,2.7-11.6,3.8c-6.5-0.3-12.8-0.6-19.5-0.9c-0.3,3.3-0.4,5.4-0.6,7.7c-7.6-3.5-10.6-1.9-16.4,8c-10.6-3.4-13-2-17,9.9
		c2,0.8,4,1.6,6.4,2.5c-6.7,8-7.1,16-2.6,24.9c1.6,3.3,1.1,7.6,1.4,10.5c4.8,5.2,8.8,10.2,13.5,14.6c4.7,4.4,10.1,8.2,16.2,13
		c-3.1,8-6.6,16.8-9.9,25.2c7.5,6.6,7.5,6.6,18.2,2.2c4.3,4.9-1.3,7.3-1.9,8.8c1.1,11.9,2,21.9,3,33.3c-16.9,3.3-33.4,6.7-50,9.6
		c-16,2.8-32.1,5.1-48.3,7.3c-4.2,0.6-8.6,0.4-12.7-0.4c-32.2-6.9-64.3-13.9-96.4-21.2c-4.5-1-7.3-0.5-10.7,2.6
		c-16.2,14.8-32.7,29.3-49.7,44.5c-5.7-2.3-11.5-4.6-17.2-7c-11.4-4.6-22.8-9.3-34.2-13.8c-3.9-1.5-6.3-3.7-7.8-8
		c-2.6-7.8-7-15.1-5.9-24.2c3.1-1.6,6.3-3.3,9.5-5c8.6-4.7,14.1-11.7,16.3-21.5c2.4-10.5,9.2-15.7,19.8-17.4
		c8.1-1.3,16.3-2.9,24.2-5.4c14.5-4.8,28.8-10.3,43.1-15.7c2.3-0.9,5.6-2.5,6.1-4.4c3.2-11.2,10.7-19.8,16.4-29.5
		c4.3-7.5,9.9-14.2,14.5-21.5c6-9.7,14.3-16.2,24.8-20.6c8.5-3.6,16.7-8.1,25-12.3c0.5-12.8,2.5-25,1-36.6c-1.2-9.7-1.3-18,4-26.6
		c2.1-3.5,1.1-9,1.5-14.2c1.6-1.9,3.7-4.3,6.5-7.7c-9.1-2.5-17.2-5.1-22.1-10.9c1.9-5.1,3.2-9.4,5-13.4c3.4-7.6,6.8-15.2,10.6-22.6
		c3.2-6.2,3.5-11.8-0.5-17.8c-2.3-3.6-4.1-7.6-5.6-11.6c-2.8-7.5-4.5-15.3-10.5-21.2c-1.3-1.3-2.3-3.4-2.6-5.3
		c-1.7-10.2-4.1-20-10.6-28.6c-2.2-2.9-1.1-6.5,2-9.8c4-4.3,7.3-9.4,10-14.7c1.1-2.1,0.4-6-1-8c-1-1.4-4.7-1.8-7-1.3
		c-15,3.2-15.8,2.6-14.6-12.8C2565.5,1161.5,2565.8,1160.9,2566.1,1159.7z"/>
	<path onclick="modal(this.id);" id="3917" class="st0" d="M2804.4,1362.1c1-6.1,1.7-11.6,2.9-17c0.4-1.7,2-3.3,3.3-4.5c1.2-1.1,3.1-1.4,4.3-2.4
		c1.9-1.6,3.5-3.6,5.3-5.4c-2.1-1.8-4-4-6.5-5.2c-3.8-1.9-9.9-2-9.9-6.9c-0.1-5.3,1.2-11.8,4.4-15.8c5.3-6.6,12.1-12.5,19.3-17.1
		c6.5-4.1,10.9-9.1,12-16.2c1-6.4,3.9-11,8.8-14.7c2-1.5,3.6-3.7,4.6-4.9c15.1,11.7,29.8,23.1,44.4,34.6c5.9,4.7,8.9,10.7,6.3,18.5
		c-0.7,2.2-0.7,4.7-1.6,6.8c-4.5,9.6,1.3,16.6,6.1,23.7c0.9,1.3,3.4,2.2,5.1,2.1c7.8-0.4,17,1.2,18.2-10.3c13.5-1.6,27,0.2,38.2-9
		c1.2,1.6,2.9,2.8,2.9,4.1c0.1,6,2.8,10.1,8.2,12.5c3.2,1.4,3.8,4.1,3.8,7.4c0.1,10,0.4,20,0.6,30c0.1,4-0.1,8,4,10.9
		c4.7,0,10-5.5,14.7,1.2c-3.4,5.4-9.8,7.1-15.2,9.8c-5.5,2.8-8,6-7.6,12.3c1.4,21.2,2.2,42.4,3.5,63.6c0.4,7.2,1.7,8.1,9.3,8.6
		c9.9,0.7,19.9,1.4,29.8,2.1c0.6,0,1.2,0.4,2.5,1c-0.2,2-0.4,4.1-0.8,6.3c-2.9,14.8,0.4,27.7,11.4,38.4c5.7,5.6,11.4,11.2,17,17
		c4.3,4.4,7,9.2,7,15.8c0,13.5,5.6,25.7,11.4,37.6c2.4,4.8,3.5,9.2,1.9,14.3c-0.6,1.9-0.9,3.9-0.8,5.9c0.2,4.6-0.9,8.3-4.4,11.7
		c-1.8,1.7-3.3,4.5-3.5,6.9c-0.6,6.5-3.9,9.4-10.1,10.1c-2.1,0.2-4.5,1.6-6.1,3.1c-5.5,5.2-10.6,10.7-16.1,15.9
		c-1.3,1.2-3.3,2.6-4.9,2.5c-7.9-0.5-11.3,4.9-14.2,10.6c-2.8,5.6-4.7,11.6-10.4,15.3c-1.5,1-2,4-2.3,6.2c-0.5,3.6-0.5,7.2-0.8,11.5
		c-4.5,0.6-9.9,3-12.4,1.2c-6.7-4.6-13.1-10.3-18.1-16.8c-5.4-7-9.6-15.2-13.3-23.3c-1.6-3.6-1.8-8.5-0.9-12.4
		c0.9-4.2,0.5-7.5-1.1-11.4c-3.8-9.2-7-18.6-10.2-28c-2.5-7.3-4.5-9.1-11.7-6c-12.7,5.4-23.9,3.5-36-2.5
		c-15.7-7.9-32.3-14.1-48.5-21.1c-3-1.3-5.9-2.9-8.8-4.4c-0.5-7.3-0.9-14.2-1.4-20.7c-6.6-3.9-12.5-8.2-19.1-11.1
		c-3.3-1.5-8.8-2.3-11.2-0.5c-7.3,5.4-17,8.6-19.8,18.9c-1.8,0.2-3.7,0.9-5,0.4c-9.6-3.8-16.7,1.1-23.5,6.6
		c-6.5,5.2-13.8,7.5-22.4,8.7c-1.7-8-3.7-15.1-3.3-23.5c0.3-7.5,6.4-15.7-0.9-23.7c-2.3,1.4-4.9,3.4-7.8,4.6c-1.9,0.7-5,1-6.3-0.1
		c-1.3-1.1-1.7-4.3-1.2-6.2c0.8-2.8,3.2-5.1,4.3-7.8c1.7-4.3,3-8.8,5-15c-0.9-0.5-2.3-1.5-3.9-2c-10.9-3.8-16.7-13.3-22.9-21.8
		c-5.7-7.9-8.4-17.5-7.4-27.3c0.4-3.8,4-7.3,6.4-11.4c-2.5-1.1-4.4-1.9-6.4-2.8c3.7-7.7,3.7-7.7,13.5-1.5c2.4-4.1,4.7-8.3,7.6-13.4
		c2.5,2.8,4,4.4,6.7,7.4c1-1.8,1.7-3.2,2.5-4.6c5.9-9.9,7.5-10.3,16.6-4.9c4.2-1.3,8-2.1,11.4-3.5c2-0.8,4-2.4,5.1-4.2
		c1.3-2.2,1.8-4.9,2.4-6.9c6.6-4.4,9.5,8.6,15.7,2.5c0.8,0.6,1.5,0.9,1.8,1.4c4,8.5,9.2,11,17.9,8.8c4.3-1.1,6.3-4.3,5.3-8.9
		c-2.5-10.9-4.3-22.2-14.5-29.5c-1.3-0.9-2-4.3-1.4-5.9c1.5-3.8,4.5-6.8,9-6.7c2.3,0,4.5,1,6.8,1.5c5.5,1,10.6,0.6,14.7-3.8
		c4.5-4.7,3.6-11.1-2.2-13.9C2809.4,1364,2806.6,1363,2804.4,1362.1z"/>
	<path onclick="modal(this.id);" id="3913" class="st0" d="M2412.9,1095.6c18,2.9,34.3,5.4,50.6,8.1c26.2,4.4,52.4,9,78.6,13.4c12,2,17,7.9,17.4,20.1
		c0.2,7.1-1.4,14.1,2.5,21.3c2.1,3.8-0.6,10.2-1.2,15.6c5.4,5.8,11.4,9.5,19.7,3.8c1.2-0.8,3.9,0.7,7.8,1.5
		c-4.6,6.5-7.8,11.9-11.8,16.6c-5.9,6.9-6.8,10.2-1.5,17.5c3.9,5.3,5.8,10.9,6.7,17.3c0.7,5.1,2.6,10.6,5.7,14.7
		c4.4,5.7,6.6,12.1,9.1,18.6c1.3,3.4,2.1,7.2,4.3,10.1c5.4,7.2,4.4,13.8,0.5,21.3c-3.9,7.6-6.6,15.9-10.1,23.7
		c-1.5,3.3-3.7,6.2-5.9,9.7c5.3,6.4,12.5,9.7,18.4,12.6c-0.4,4.5-0.2,8.5-1.1,12.3c-1.2,5.1-2.4,10.4-4.9,14.8
		c-2.7,4.6-5.1,8.1-1.2,13.3c1.4,1.8,0.9,5.1,0.9,7.8c-0.1,8.7-0.8,17.3-0.5,25.9c0.2,5.5-1.9,8.8-6.6,11c-6.3,3-12.5,6.3-19,8.9
		c-11,4.3-18.9,11.9-25.1,21.8c-8.3,13.2-16.9,26.3-25.4,39.4c-0.5,0.8-1.5,1.6-1.6,2.5c-1.8,10.2-10.1,13.1-18.1,15.9
		c-15.4,5.3-30.8,10.3-46.3,15.3c-1.8,0.6-3.8,0.4-4.2,0.5c-2.2-4.9-3.4-9.2-5.8-12.6c-7.3-10.3-16.2-19.6-22.5-30.4
		c-8.1-14.1-14.2-29.3-13.5-46.2c0.1-2,0.5-4.2-0.1-6c-3.5-10.1,2.5-16.3,8.6-22.6c3.7-3.8,7.5-7.5,10.9-11.6c1.6-2,2.8-4.5,3.5-7
		c2.1-6.9-1.2-10.4-8.1-8.4c-9.9,2.9-19.7,6.2-29.5,9.3c-3.4,1.1-6.7,2.1-12.4,3.8c4.6-8,7.5-14.3,11.5-19.8
		c10.5-14.6,11-30.5,5.4-46.6c-10.6-30.1-22.1-59.9-33.1-89.9c-1.9-5.2-3.2-10.6-4.8-16.2c18.2-8,34.5-5.8,50.7,2.3
		c11.9,5.9,23.7,12.1,36.1,16.7c6.2,2.3,13.7,2.2,20.4,1.5c10.5-1.2,20.8-3.9,31.3-6c1.6-0.3,3.3-0.6,4.9-1.1
		c15.5-5.4,16.7-8,10-22.8c-4.8-10.6-10.4-20.9-14.6-31.7c-3.4-8.9-6.1-18.2-7.7-27.6c-1.1-6.5-2.7-10.9-9.5-13.5
		c-6.6-2.5-12.3-2.4-17.8,1.9c-2.4,1.8-4.6,3.9-6.4,6.2c-3.7,4.6-8.8,5.7-13.5,3.4c-7.7-3.8-15-8.4-22-13.4
		c-3.8-2.7-3.9-7.5-2.4-11.9c2.5-7.5,0.8-14.3-2.6-21.1C2415.4,1105.7,2414.6,1101.2,2412.9,1095.6z"/>
	<path onclick="modal(this.id);" id="3915" class="st0" d="M2933.6,900.2c-3.4-0.2-7.1-1.1-10.3-0.3c-4.4,1.3-8.7,3.5-12.5,6.1c-2.3,1.5-4.6,4.2-5.2,6.8
		c-1.8,7.8-7.7,11.3-13.6,15.1c-3.2,2.1-8.3,3.1-9.7,6c-2.4,4.9-2.8,10.8-3.4,16.3c-0.3,2.5,0.9,5.2,1.6,7.8
		c1.3,5.5,0.6,9.6-3.9,14.3c-4.9,5.1-7.7,12.3-11.4,18.6c-0.8,1.4-1.7,2.7-2.9,4.6c-8.4-5.1-16.5-3.7-24.9-0.9
		c-12.2,4-22.7-0.4-31.7-8.6c-6.3-5.7-13-10.2-21-12.9c-1.9-0.6-3.8-1.4-5.7-1.7c-7.7-0.9-12.7,4.9-10.4,12.3
		c3.5,11.1,6.9,22.3,11,33.1c2.3,6,2.2,11.6,0.8,17.5c-4.1,17.8-8.1,35.6-12.1,53.5c-1.7,7.7,1.2,12.8,8.6,15.4
		c1.9,0.7,3.8,1,5.8,1.4c8.5,1.8,16.4,4.5,23.8,9.6c5,3.5,11.4,4.9,18.2,7.7c-7.2,8.5-14.1,16.8-21.2,24.9
		c-11.2,12.8-22.7,25.2-33.5,38.3c-3.9,4.8-7.1,4.9-11.7,1.9c-4.5-2.8-9.5-4.9-14-7.7c-3-1.9-6.5-4-8.2-6.9
		c-6.1-10.6-12-21.4-17-32.5c-1.9-4.3-3.9-7.4-8.2-9.1c-4.9-2-9.9-4-14.6-6.3c-4.7-2.3-8.2-5.5-7.8-11.6c0.2-2.2-0.9-4.5-1.6-6.7
		c-1.3-3.9-0.4-6.6,2.5-9.7c6.2-6.6,8.2-14.7,6.6-23.9c-1.3-7.1-5-11.6-11.9-13c-4.4-0.9-8.2-2.4-8.3-7c-0.1-2.4,2.3-5.5,4.4-7.2
		c3.9-3.1,7.8-2.1,11.7,1.1c5.6,4.5,11.2,9.8,20.6,7.6c5.9-14.1,0.9-29.6,3.3-43.8c5.3-2.5,10.2-4.8,15.7-7.3
		c-1-4.6-1.7-8.5-2.7-12.2c-0.7-2.6-2.6-5-2.5-7.5c0.1-12.1-8.7-16.6-17.5-21.3c-3.4-1.9-7-4.1-9.3-7.1c-3.9-5.2-8.3-9.2-13.9-12.5
		c-2.7-1.6-4.4-5.6-5.7-8.9c-2.2-5.6-3.9-11.3-5.3-17.1c-0.9-3.5-1-7.1-1.4-10.7c-0.6-5.9-0.7-11.9-1.8-17.7
		c-1.2-6.1-4.7-10.5-11.1-12.9c-3.4-1.3-6.4-4.5-8.6-7.6c-4.7-6.6-10.2-11.9-16.3-17.3c-9.7-8.6-17.4-19.3-22.1-31.5
		c-2.9-7.4-3-15.3-0.3-23.3c5.8-17.3,10.8-34.9,16.2-52.4c0.4-1.2,1.2-2.3,2.6-5c4.6,7.5,9.2,13.8,12.6,20.7
		c3.3,6.9,8.3,10,15.5,10.5c0.7,0,1.3,0,2,0.1c11.2,0.9,11.4,1.1,12.9,12.1c0.3,1.9,0.8,3.8,1,4.8c6.1,2,11.5,3.5,16.6,5.5
		c9.4,3.5,15.1,10.2,17.6,20.1c0.7,2.8,3.2,6,5.8,7.4c9.7,5.3,14.7,14.3,19.4,23.5c1.4,2.8,1.1,6.4,1.4,9.7
		c0.7,7.7,3.7,9.3,10.4,5.8c8.5-4.4,14-11.4,17.2-20c4.2-11.4,12.8-16.2,23.9-18.3c5.2-1,10.3-2.6,15.4-3.9c5.6-1.5,10.2-4.1,13.8-9
		c6.1-8.2,19-12.7,31.7-7.6c3.7,1.5,7.3,3.2,10.9,4.9c3.8,1.7,6.1,4.3,7.5,8.6c1.2,3.8,4.2,7.6,7.4,10.1
		c6.9,5.3,11.5,11.3,13.3,20.1c1.6,8.1,6.1,15.2,13.1,20.5c3,2.2,5.8,5.8,6.8,9.3c2.6,9.4,8.3,15.5,16.8,19.8
		C2928.3,893.7,2933.9,894.2,2933.6,900.2L2933.6,900.2z"/>
</g>
</svg>
