<?xml version="1.0" encoding="utf-8"?>
<!-- Generator: Adobe Illustrator 19.0.0, SVG Export Plug-In . SVG Version: 6.00 Build 0)  -->
<svg version="1.1" id="Layer1" xmlns="http://www.w3.org/2000/svg" xmlns:xlink="http://www.w3.org/1999/xlink" x="0px" y="0px"
	 viewBox="0 0 4000 2000" style="enable-background:new 0 0 4000 2000;overflow: hidden; display: inline; width: inherit; min-width: inherit; max-width: inherit; height: inherit; min-height: inherit; max-height: inherit;" xml:space="preserve">
<style type="text/css">
	.st0{fill:#8FD4EB;stroke:#000000;stroke-width:3;}
</style>
<g>
	
	<path onclick="modal(this.id);" id="3257" class="st0" d="M3061.7,814.7c-2,1.1-3.9,2.3-6,3.1c-2.9,1.2-6.6,0.5-8.3,4.5c-2.2,5.1-6.3,9.4-5.6,15.6
		c0.9,8.2,0.9,16.6,2,24.8c0.5,3.4,2.4,6.8,4.1,9.9c2.6,5,2.8,5-0.5,12.7c-3.5-1.4-7.1-2.7-10.6-4.3c-6.5-3-12.8-3.4-18.9,1
		c-1.9,1.4-3.8,2.7-6,3.6c-8.7,3.7-12.4,9.9-12.6,19.5c-0.1,4.6-3.5,9.2-5.4,13.7c-1.3,3-3.8,6-3.8,9c0.3,16.5-8.1,29.8-15.4,43.4
		c-7.4,14-6.1,22.4,6.5,32c-2.9,9.5,1.7,15.8,9.1,21.8c17.3,13.9,29.8,32,41.5,50.6c0.7,1.1,1.5,2.4,1.5,3.6
		c-0.1,8.5-0.5,17-0.7,25.5c-0.1,2.6-0.6,5.5,0.3,7.9c3.9,10.5,8.2,20.9,13,33.1c-1.5,3.8-4.4,9.9,0.4,15.7c3.8,4.5,8,8.7,12.9,14
		c-10.5,2.2-20,1.9-29.2,0.6c-6.3-0.9-11.5,0.2-17.3,2.4c-6.4,2.4-13.4,3.8-20.3,4.6c-4.1,0.4-8.4-1.1-12.5-2.3
		c-4.1-1.2-8-3.2-12.1-4.6c-12.3-4.1-23-10.4-30.6-21.2c-2.8-3.9-6.8-5.6-11.8-6.6c-6.4-1.3-12.6-3.9-18.5-6.8
		c-10.7-5.3-21.1-11.2-31.6-16.9c-4-2.2-7.9-4.7-12.1-6.6c-3.5-1.6-6.7-0.6-7.8,3.5c-1.2,4.3-2.9,8.3-2.4,13.4
		c0.8,8.7-0.7,17.6-0.9,26.4c-0.2,4.6-0.5,9.4,0.4,13.9c2.2,10.5,0.4,18.8-9.9,24.3c-6,3.2-9.2,8.2-7.3,15.7c1.3,5-0.8,9.4-3.6,13.9
		c-12.6,20-25.2,40-36.5,60.7c-5.7,10.4-8.7,22.2-13.3,33.3c-1.7,4.2-3.8,8.6-6.8,12c-4.3,4.8-4.4,9.5-1.5,14.5
		c2,3.4,4.3,6.7,6.7,9.8c3.3,4.2,4.9,8.6,3.1,14.8c-3.4,1.3-7.3,3-11.3,4.3c-14.6,4.7-29.1,9.5-43.8,13.9c-6.9,2-12.9,5.2-18.2,9.9
		c-26.3,23-52.5,46.1-79,68.8c-5.5,4.7-8.6,9.8-9.2,16.8c-0.2,2.9-1.3,5.7-2,8.7c-15.7-0.6-30.9-1.3-46.2-1.8
		c-5.5-0.2-9-3.9-10.8-7.8c-8.1-16.8-22.2-29-32.6-43.9c-17.6-25.1-39.7-45.5-65.2-62.3c-9.2-6-17.7-12.9-26.6-19.5
		c-9.4-7-9.4-7.1-19.2-1.2c-22.8,13.7-45.6,27.5-68.4,41.2c-24.3,14.6-48.5,29.1-72.8,43.7c-2.3,1.4-4.7,2.5-7.3,4
		c-16.2-8.5-32.4-17-48.6-25.5c-7.3-3.8-16.3-6.2-21.6-11.9c-5.1-5.4-6.2-14.5-9.7-21.7c-1.5-3.1-4.2-5.9-7-8.1
		c-16.2-12.3-32.4-24.6-49-36.3c-5.7-4-7.8-8.7-7.3-15.1c0.4-5.3,1.1-10.6,1.5-15.8c0.2-3.6,0-7.2,0-12.5c9.9-7.3,21-15.5,33.2-24.6
		c-0.2-3-0.3-6.9-0.9-10.7c-2.2-14.8-4.6-29.5-7-44.3c-1-6.1-0.8-11.3,3.6-16.7c3.2-3.8,5-9.4,5.8-14.4c2.5-16.2,5.7-32.2,12.5-47.1
		c15-32.8,21.3-68.1,29.7-102.7c1.7-7.1,3.5-13.9,1.4-21.8c-6.8-2.7-14.1-2.8-21.8-1.6c-13.6,2.1-27.3,2.6-39.9-4.5
		c-4.9-2.7-9.3-6.3-13.7-9.8c-6.5-5.2-12.3-11.2-19.1-15.9c-6.2-4.3-8-9.3-6.3-16.3c0.6-2.6,0.6-5.4,1.6-7.8
		c2.2-5.7,0.9-10.4-3.3-14.3c-5.6,1.1-11.1,1.8-16.4,3.3c-10,2.7-18.7-1.9-27.9-4.1c-1.9-0.5-3.6-2.6-5-4.3c-1.6-2-2.8-4.3-3.9-6.2
		c-1.5,0.2-2.2,0.1-2.7,0.3c-13.4,5.7-16.7,5-24.9-8.1c-7.7-12.1-19.9-18.2-31.5-24.9c-3-1.7-7.6-0.8-11.4-0.7
		c-4.2,0.1-9.9,2.7-12.3,0.8c-5.7-4.6-13.3-8.1-15.2-16.5c-0.6-2.9-1.6-5.8-3-8.4c-3.2-5.9-9-6.9-14.1-2.7c-1.5,1.3-3,2.7-4.3,4.2
		c-4.4,5.2-9.4,9.2-16.6,10c-2.9,0.3-5.7,1.9-8.3,3.2c-7.2,3.6-14.2,3.3-22.1,1.6c-8.8-1.9-18.4-2.1-27.4-1.1
		c-13.8,1.5-27.1,2-40.2-3.3c-6.9-2.9-13.1,0-19.2,2.4c-3.7,1.5-3.7,4.7-1.5,7.3c1.4,1.6,4,2.3,6.7,3.7c-3.2,2.8-4.1,4.3-5.1,4.3
		c-19.9,0.1-39.8,0.1-59.6,0.1c-1.5-11.5,6.8-18.1,11.1-25.9c-2.4-6-4.5-11.5-6.7-17c-1.7-4.1-0.4-7.8,1.2-11.5
		c2.4-5.5,4.7-11,7-16.5c0.9-2.1,1.4-5.1,3-6.1c6-3.6,5.7-9.1,5.7-14.9c-0.1-9.3-0.1-18.7-0.1-28c0-6.9,3.7-10.3,10.2-11.4
		c13.1-2.2,26.3-4.1,39-8c8.5-2.6,14.3-10.1,19.2-17.8c5-7.8,9.9-15.7,15.6-23c4.3-5.6,10.3-8.9,17.1-11.6
		c10.8-4.3,21.1-9.9,31.5-15.1c5.6-2.8,10.6-4.6,16.7-0.3c4.4,3.2,10.9,0.2,16-6.1c5.4-6.7,11-13.2,16.5-19.8c1.1-1.3,2.5-2.4,3-3.9
		c4.9-13.8,17.2-19,29-24.9c2.9-1.5,5.9-2.9,9.1-3.9c10.9-3.4,12.2-5,13.1-17.2c9.3-3.4,18.3-4,27.2,1.9c2.4,1.6,5.6,2,8.3,3.1
		c3,1.1,6.1,2.3,9,3.6c1.5,0.7,2.8,2.3,4.3,2.4c14.3,1.4,25.8,11.4,40.1,13.1c3.1,0.4,6.1,2.7,8.8,4.5c10.8,7.2,21.3,14.8,32.1,21.9
		c3.8,2.5,8.3,4.1,12.4,6.3c2.2,1.2,5.5,2.1,6.4,4c3.8,8.3,10.9,12.3,18.5,15.7c5.8,2.7,10.9,5.6,14.5,11.5c3.3,5.5,9.3,6.4,15,3.8
		c5-2.3,9.6-1.5,15.5,0.9c-0.3,2.6-0.4,5.4-1.1,8.1c-3.4,12.8-7.4,25.5-10.5,38.3c-1.5,6.2,1,8.8,7.5,8.4c23.5-1.7,47-3.9,70.5-5.7
		c4.6-0.4,7.9-2,11.3-5.3c6.7-6.6,10.4-6.8,18.8-2.7c9,4.4,17.9,8.9,26.8,13.4c6.5,3.3,12.9,4.7,19.8,0.5c2.7-1.6,6.7-3.2,9.4-2.4
		c6.8,2,11.6-1.4,16.7-4.3c6.3-3.6,12.3-8.1,18.8-11.2c5-2.4,10.5-3.9,16-4.7c9.6-1.5,19.2-3.1,27.4-8.3c11.3-7.2,24.4-8,36.9-11.3
		c4.7-1.2,9.8-1.2,15.4-1.8c10.2,17.6,20.6,35.3,30.9,53.1c7.2,12.4,14.2,24.8,21.5,37.2c5.7,9.7,15,12.3,25.2,7
		c2.4-1.2,4.6-2.7,6.7-4.3c13.3-9.8,28.2-12.3,44.4-11.7c7.8,0.3,16.3,0,23.5-2.6c23.8-8.7,48.6-13.7,73-20.3
		c29.5-8,59.2-15.7,88.9-22.9c6.5-1.6,13.6-0.7,20.4-1.2c13.3-0.9,26.5-1.9,39.8-2.9c5.2-0.4,9.7,1,14,4.1
		c5.1,3.7,10.5,7.2,16.1,9.9c4.1,2,9.1,4.2,13.1,3.5c6.5-1.1,11.5,2.2,17.1,2.8c15.4,1.6,27.4,11.6,41.9,15
		c10.6,2.5,21.3,4.7,32.1,6.8c7.5,1.4,15.1,2.5,22.6,3.4c4.3,0.5,8.9,1.2,12.9,0.1c9.7-2.7,17.4,2.1,25.8,4.3
		C3061.5,813.3,3061.6,814,3061.7,814.7z"/>
	<path onclick="modal(this.id);" id="3259" class="st0" d="M1543.8,1649.7c-6,2.2-14.7,1.5-16.5,13.2c-5.7-6.2-10.2-11-14.7-15.8c-3.9-4.2-8.4-7.1-14.3-8.4
		c-4.2-1-8.5-3.8-11.7-6.9c-7-6.8-14-8.9-23.3-4.6c-5.5,2.6-10.4,3.2-16.1,0.8c-5.9-2.6-8.6-6.5-6.1-12.3c6-14.3,0.6-28-2.2-41.7
		c-0.9-4.7-4.4-8.1-9.8-8.6c-8.3-0.8-14.4-6.1-21-10.5c6.3-6.8,6.4-10.3-4.5-21.7c1.5-4.3,5.4-5.1,9.1-6.5
		c4.5-1.7,10.6-2.3,11.2-8.5c0.7-7.2,1.6-15.2-5.1-20.3c-7-5.3-7.4-12.9-8.2-20.4c-0.1-1.4,1.1-2.9,1.8-4.4
		c6.8,0.3,8.9,5.9,12.5,9.5c6.9,6.8,10.9,7.7,18.6,4c4.8-2.3,7.8-6,6.6-11c-3-12.8,3.4-22.5,9.8-32.2c1.1-1.7,2.4-3.2,3.5-4.8
		c7.2-10.1,7.6-11.1-1.2-20.3c-8.7-9.1-10.7-20.4-11.8-31.9c-0.8-8.5-3.2-15.8-7.3-23.3c-4.4-8-6.3-17.3-9.2-26.1
		c-0.9-2.8-1.1-6.2-2.8-8.4c-4.6-6.2-2.3-11,1.7-16.1c7.8-9.8,12.7-21.8,22.8-30.1c1.2-0.9,1.4-4.6,0.5-6.1c-2.7-5.1-6.8-9.8-13.1-9
		c-5.9,0.8-9.7-2-11-6.3c-3.4-10.8-12.8-13.8-21.4-17.8c-14.4-6.7-29.3-12.4-43.8-19c-3.3-1.5-7.5-4.8-8.1-8
		c-1.4-7.1-5.9-10.5-11.7-12.2c-4.6-1.3-7-4.3-10-7.5c-5.1-5.5-11-10.5-17-15.2c-6.8-5.4-14-10.1-20.8-15.4
		c-7-5.5-10.5-12.8-9.4-21.8c0.8-7.2-2-12.6-6.4-18.1c-8.7-10.7-19.4-19.1-30.6-26.8c-3.5-2.4-6.9-5.3-9.8-8.5
		c-3.4-3.7-6.9-6.1-13.4-3.4c0.7-3.4,0.8-5.6,1.6-7.4c2-4.9,0.8-8.8-3.8-11c-11.9-5.7-23.8-11.4-34.1-19.9c-1.5-1.2-4.2-1-5.5-1.3
		c-3.7-11-7.1-21.2-10.8-32.1c7.4-2.2,14.9,1.5,22.5,2.3c3.9,0.4,7.9,1.5,11.5,3.2c11.6,5.5,23.4,4.2,35.1,1.3
		c4.2-1.1,8.1-4.3,11.7-7c2.3-1.7,4-4.2,6.6-7.1c2.5,3.9,1.5,6.7,0.2,9.8c-1.9,4.6-3.9,9.3-4.8,14.1c-0.4,2.4,1.6,5.3,2.5,8
		c2.3-0.8,4.9-1.4,7-2.6c2.2-1.3,3.9-3.9,6.2-4.8c9.9-4,17.2-11.2,23.9-19.4c6.6,3.3,13,6.5,19.8,9.9c-3.3,5.4-8,8.2-13.5,9.9
		c-4.1,1.2-7.5,2.7-7.7,9.1c2.6,0.4,5.4,1.5,8,1.1c17.6-2.4,34.2,3.3,51.1,6.2c8.4,1.5,16.7,3.7,25.1,5.4c1.9,0.4,4.1,0.3,5.9-0.2
		c8.2-2.6,16.3-5.4,24.9-8.3c0.6-4.8,1.1-9.3,1.7-14.5c10.7,5.9,20.9,2.1,31.1-0.8c2.5-0.7,5.2-1,7.6-1.9c2.6-1.1,5.2-2.4,7.4-4.1
		c5-3.8,9.7-7.8,14.6-11.7c4.9-3.9,10-7.6,14.9-11.5c4.1-3.3,8-6.8,12.6-10.9c-0.9,4.9-3.1,9.9-2.5,14.5c0.7,4.8,4,9.3,6.4,14.5
		c7.2-5.7,1.1-12.1,3.7-18.8c5.3,9.6,10,18.3,14.7,26.9c5.1-0.6,4.4-3.7,4-7.3c-0.9-8.3-1.2-16.6-1.7-24.8c5.6-1.7,7.7,0.1,7.3,4.4
		c-0.9,8,0.1,10.8,7.4,17c1.6-2.5,3.1-4.8,4.9-7.7c2.9,2.3,5.5,4.9,8.5,6.4c2.6,1.3,5.8,1.5,9.9,2.4c0.6-8.1,1-14.6,1.5-21.3
		c9,0.9,4-10.7,10.3-14.3c0.6,8.7-0.8,17.4,5.5,26.7c1.9-3.8,3.4-6.8,4.9-9.7c9.3,4.1,16.2,7,20.6,15.4c2.8,5.4,9.3,9.4,15,12.5
		c9.5,5.3,20.3,7.1,31,9c11.7,2,22.9,5.5,33.5,11.2c3.9,2.1,9,2.2,13.5,3c23.2,4,46.7,7,69.3,14.1c1.1,0.3,2.2,0.7,5.6,1.8
		c-14.7,6.4-27.3,11.9-41.4,18.1c12.4,19.5,24.2,38.1,36.2,57.1c-17.1,10.6-33.4,20.7-50.1,31c0.6,2.3,0.8,4.3,1.7,5.9
		c16.4,31.6,32.8,63.2,49.2,94.8c4.6,8.8,9.4,16.9,18.5,22.7c7,4.4,12.9,11.3,16.1,19.8c2.1,5.7,6.2,9.6,12.3,12.2
		c6.3,2.7,11.6,7.5,17.8,11.7c1.1-0.5,2.8-0.9,4.1-1.9c5.4-4.2,11.1-5.9,17.6-2.7c4.1,2,8.2,1.7,12.6,0.5c6-1.7,12.3-2.4,18.3-3.6
		c7.9,9.3,8.5,20.6,10.1,31.7c0.1,0.7-0.2,1.4,0.1,2c7.3,13.9,1,27.2-2.1,40.5c-1.5,6.3-2.1,12.8-6,18.7c-3.9,5.9,0.5,13.8,8,16
		c17.8,5.4,35.7,10.6,53.5,15.9c3.1,0.9,6.2,2,10.6,3.4c-7.4,11.8-14.3,22.9-21.7,34.7c10.2,14.4,10.4,31.8,13.9,48.2
		c0.7,3.5-0.3,8.2-2.4,11.2c-12.3,17.8-25,35.3-37.9,52.6c-3.1,4.2-8,7-11.8,10.7c-7.9,7.5-15.6,15.2-24.1,23.5
		c-4.4-6.5-9.2-13.1-13.6-20c-4-6.2-7.4-8.6-14-5.3c-11.4,5.8-24.5,4.2-36,9.9c-10.9,5.4-22.9,8.7-34.6,12.2
		c-4.3,1.3-9.3,1.6-13.8,0.9c-6.4-0.9-11.7,0.8-17.1,3.8c-32.8,18.3-65.7,36.6-98.5,54.9c-4.4,2.4-8.7,4.8-13.3,7.3
		c-11.8-7.6-15.8-18.9-16.5-32.1c-0.3-4.9-1.7-9.7-2.1-14.7c-0.3-3.6-0.4-7.4,0.4-10.8c2.5-10.3,1.6-20.5-0.8-30.6
		c-1.6-6.7-7.1-8.9-12.9-5.1c-3,2-5.6,4.7-8.4,7.1c-4.9,4.4-10,7.8-17,5.9c-1.2-0.3-2.8-0.5-4,0c-9.6,4.2-19.4,8-28.5,13.2
		C1546.4,1639.5,1545.9,1644.8,1543.8,1649.7z"/>
	<path onclick="modal(this.id);" id="3258" class="st0" d="M1838.2,1335.4c-7.7-4.4-14.6-7.9-20.9-12.1c-2.9-1.9-5.5-5-6.8-8.1
		c-4.5-10.9-12.7-18.4-21.9-25.2c-2.8-2.1-5.9-4.6-7.5-7.6c-17.8-33.9-35.4-67.9-53.1-101.8c-0.9-1.7-1.5-3.5-2.6-6
		c12.8-7.9,25.1-15.8,37.6-23.3c18.1-10.9,15.5-8.5,5.3-24.9c-7.9-12.7-16.3-25.1-25.2-38.9c15.5-6.8,30.4-13.3,45.3-19.9
		c0-0.9,0-1.7,0-2.6c-2.5-1-4.8-2.4-7.4-3.1c-23-6.6-46.5-11.1-70.1-14.9c-11.7-1.9-23.3-5.1-34.9-7.8c-0.6-0.1-1.4-0.1-1.9-0.5
		c-11-9.3-25-9-38-11.3c-11.8-2.1-21.5-6.3-26.5-18.2c-0.9-2.2-3.6-3.8-5.7-5.3c-3.2-2.2-6.7-4.1-11-6.7c6.4-8.3,12.6-16,18.5-23.9
		c5.8-7.7,11.2-15.7,16.9-23.4c2.4-3.2,5-6.2,7.9-8.8c5.4-4.6,8.3-9.5,7.7-17.2c-0.7-8.1-2.5-16.4,0.3-24.6c0.6-1.7-0.6-4.4-1.8-6.1
		c-1.8-2.7-4.3-4.9-7.3-8.1c1.3-0.8,2.2-1.7,3-1.7c12.2,0.1,20.9-6.5,28.9-14.8c1.8-1.9,4.1-3.3,6.2-5c5.2-4,10.4-8.2,15.8-12.1
		c4.2-3,8.7-5.8,13.2-8.5c3.4-2,7.2-3.4,10.5-5.5c11.3-7.1,23.6-7.7,37.9-6c-2.7,7.5-4.3,14.2-7.5,20.2c-5,9.5-5.5,18.4,1.1,27
		c3.3,4.3,1.4,7.5-1.4,10.6c-5.9,6.5-7.6,14.5-8.8,23.4c23,0,45.5,0,68.6,0c4.2-5.1,1.8-9.3-3-13.6c6.7-4.3,12.9-5.2,20.5-2.3
		c8.9,3.5,18.4,4,28.3,3.2c13.1-1.1,26.3-2.7,39.6,0.7c6.7,1.7,13.9,1.4,20.5-2.1c2-1.1,4.2-2.5,6.4-2.8c8.8-1.2,15.1-5.9,21-12.2
		c6.7-7.1,12.1-5.9,13.7,3.5c1.8,10.7,10.1,15.4,17.2,21c2.7,2.1,8.5,1.4,12.5,0.2c7.5-2.1,13.7-0.3,19.6,4
		c5.6,4.1,11.7,7.7,17,12.2c3.4,2.9,5.7,7.2,8.2,11c6.4,10,14.8,12.7,24.8,7c16.1,16.8,35,16,56.2,10.8c0.1,3.4,0.5,6.5,0.3,9.5
		c-0.3,3.3-1.2,6.5-1.7,9.8c-1.1,8.4,1.4,14.5,9.3,19c5.7,3.2,10.6,8.1,15.1,12.9c14.8,15.6,32.9,20.2,53.6,17.6
		c7.5-0.9,15.1-0.8,23.4-1.3c-12,45.3-18.6,90.8-35.8,133.5c-4.5,11.2-6.2,23.7-8.4,35.8c-1.1,5.8-2.8,11-6.8,15.2
		c-4.2,4.4-4.3,9.1-3.3,14.7c3.2,18.3,5.9,36.6,8.8,55.2c-11.8,8.6-23.3,17-33.7,24.5c-0.6,12-0.9,22.9-1.7,33.7
		c-0.4,5.7,1.8,9.2,6.3,12.5c15.9,11.5,31.4,23.6,47.4,35c6.2,4.5,10.3,9.7,13,16.9c5.8,15.8,6.2,15.8-5.9,26.3
		c-29.1,25.4-58.2,50.6-87.3,75.9c-0.5,0.4-1.1,0.8-1.6,1.2c-12.9,11.7-10.8,10.4-4.1,22c8.3,14.4,16.5,28.9,24.8,43.3
		c1.9,3.4,3.9,6.9,6,10.7c-27.5,17.8-58.6,29.1-80,55.4c-5.6-4.9-10-3.5-14.8-0.2c-8.8,6-18.2,11.1-26.9,17.2
		c-4.9,3.3-9.4,7.4-13.3,11.8c-18.7,21.7-37,43.6-55.5,65.4c-1.9,2.2-4,4.3-7,7.4c-6.1-17.6-17.6-31-26.3-46
		c-6.9-11.9-10.7-25.7-15.5-38.8c-0.7-1.8-0.1-4.7,1-6.3c3.5-4.8,7.1-9.7,11.5-13.6c13.9-12.4,27.3-25.1,37.3-41.2
		c6.4-10.4,14.5-19.9,22-29.6c4.7-6.1,5.5-12.4,3.4-19.6c-1.3-4.4-1.3-9.2-2.3-13.7c-1.7-7.1-3.6-14.1-5.7-21
		c-1-3.5-2.7-6.7-4.2-10.1c7.4-11.8,14.7-23.2,22.5-35.7c-3.8-1.4-6.7-2.7-9.7-3.6c-18.5-5.5-37-10.9-55.5-16.4
		c-10.2-3-10.8-5.8-6.9-15.9c3.3-8.6,4.7-17.9,6.9-26.9c0.6-2.3,0.9-4.6,1.8-6.7c2.7-5.9,1.9-11.1-0.3-17.2c-2.7-7.7-3-16.2-5-24.2
		c-1.4-5.7-3.6-11.3-6.2-16.5c-0.8-1.6-4.4-2.6-6.6-2.5c-4.3,0.3-8.6,1.2-12.7,2.5c-6.7,2.2-13,2.1-19.5-0.6
		C1848.3,1328,1843.3,1332.7,1838.2,1335.4z"/>
	<path onclick="modal(this.id);" id="3253" class="st0" d="M1582.4,1001.9c-0.5-9.3-0.8-16.8-1.2-24.8c-10,0.4-8.9,9.3-12.2,14.8c-1.7-0.9-3.3-1.9-5.3-3
		c-2.4,2.4-5.9,5-2.6,8.2c4.4,4.2,3,8.1,1.4,12.6c-0.4,1.2-0.3,2.6-0.6,5.8c-4.7-3.4-8.4-6.1-13.2-9.6c-2.2,1.5-5.1,3.3-8.8,5.8
		c-0.4-3.4-0.8-6.5-1-9.6c-0.3-7.4-2.7-14-14.1-10c0,6.6,0,13.5,0,20.4c-6.6,0.1-6.3-5.1-8-8.2c-2.3-4.2-4.1-8.4-9.7-6.8
		c-0.7-5.1-1.3-10.1-2.1-15.8c-2.2,1.1-3.4,1.3-3.8,2c-7.5,13.3-18.6,22.7-32.2,29.3c-1.2,0.6-2.7,1.2-3.3,2.2
		c-5.6,10.5-16.6,11-26.1,14.2c-9.1,3.1-18.3,4-26.2-3.7c-5.6,5.5-1.2,12.6-4.2,18.5c-6,2-12.2,4.4-18.5,6.2c-2.8,0.8-6,1.2-8.8,0.7
		c-14.3-2.6-28.6-5.4-42.8-8.5c-10-2.2-19.9-4-30.2-2.6c-1.5,0.2-3.2-0.7-6-1.3c8.9-4.3,18.1-6.9,20.8-17.7c-8-3.9-15.8-7.7-25-12.1
		c-7.2,13.5-21.7,18.5-33.9,27c-3-5.4,0.5-9.7,2.3-14c2.2-5,4.4-9.7,1.3-15.1c-0.5-0.8-0.8-2.1-0.5-2.9c4.5-11.9-2.2-24.3,1.8-36.3
		c0.8-2.3-0.1-5.2-0.4-7.8c-0.5-4.2-1.7-8.4-1.5-12.5c0.3-5.7-1.7-9.5-6.5-12.4c-4-2.3-7.9-5-11.7-7.6c-1.9-1.3-4.1-2.5-5.4-4.3
		c-4.6-6.4-8.3-12.9-16.8-16c-5.4-2-7.9-9.1-7.5-15.3c1.3-19-5.6-36.7-8.4-55c-1-6.2-1.7-12.5-1.4-18.7c0.9-17.9,2.2-35.8,3.7-53.6
		c0.4-5.6,1.8-11.1,2.4-16.7c0.4-3.2,0.1-6.4,0.1-9.6c0-4-0.4-8-0.1-11.9c0.4-4.6,1.6-9.1,2.2-13.6c0.8-6.4,14.4-37.8,18.6-42.6
		c7.2-8.3,16.6-12,27.3-12.2c24-0.5,48-0.5,71.9-0.7c2,0,4,0,6-0.1c4.2-0.3,6.4-2.6,4.9-6.6c-1.4-3.8,0.3-6,1.9-9
		c2.2-4.2,3.1-9.2,5.3-15.9c1.7-1.1,5.1-3.7,8.8-5.7c6.2-3.4,11.8-5.3,19.1-0.1c7.8,5.6,17.6,7.8,27.3,2.5c2.8-1.5,6.3-2,8.1-2.6
		c8.1,4.4,15.1,8.1,22.3,12c4.8-3.9,4-8.7,2.3-14.8c5.2,1.8,9.1,3.1,12.7,4.4c5.6-4,1.1-8.9,2.1-13.6c8.2-5.9,12.1,2.3,16.1,5.2
		c6.2-1.4,11.2-3,16.2-3.5c4.1-0.4,7.5,1.1,9.1,6c2,6.1,7.2,9.2,13.3,8.2c5.7-0.9,9.8,1,13.4,4.6c6.5,6.4,14,9.3,22.6,5.2
		c11.3-5.4,22.9-1.3,34.8-1.8c0.8,1.7,1.8,3.7,2.7,5.7c3.8-1,7.3-1.9,10.2-2.7c5.7,3.5,4.3,8.3,3.4,12.6
		c10.1,6.5,13.4,4.9,22.3-11.4c5,10.8,9.8,21.1,14.4,31.4c6.1,13.5,17.6,15.5,28.5,5.1c3.3-3.1,7.1-5.9,11.1-8.1
		c6.6-3.6,12.9-6,19.8,0.8c2.6,2.5,8.1,2.7,12.3,2.8c8.6,0.1,17.2,1,25.7-2c3.5-1.2,7.9-0.2,11.8,0.4c9.6,1.4,11.3,0,11.7-9.1
		c0.2-4.5,1.7-8.9,2.8-13.4c0.6-2.6,2.4-5.1,2.2-7.6c-0.8-10.1,3.8-18,10.3-26.8c18.7,0,38.3-0.2,57.9,0.2
		c5.2,0.1,10.3,2.8,15.5,3.3c8.6,0.8,14.8,4.4,21.5,10.1c8.8,7.4,19.7,12.7,32.2,6.6c3.4-1.7,6.6-1.5,10.1,1.2
		c2.3,1.8,6.2,2.5,9.3,2.3c13.6-0.9,27-2.1,40.6,0c4.4,0.7,9.2-1.2,13.8-1.7c5.9-0.7,11.8-1.2,17.5-1.8c3.1,6.3,0.4,9.4-4.4,11.5
		c-10,4.5-20.1,8.5-29.9,13.4c-3.3,1.6-5.7,5.3-8,8.3c-4,5.2-7.6,10.8-11.5,16c-4.2,5.5-8.5,11-13.1,16.1c-2.6,2.9-5.9,5.2-9.1,7.9
		c-2.5-1.3-4.3-3-6.4-3.4c-3.4-0.6-7.4-1.5-10.3-0.3c-7.7,3-15,7-22.6,10.6c-5.4,2.6-10.9,4.8-16.2,7.5c-4.7,2.4-9.7,4.6-13.4,8.1
		c-7.9,7.6-14.5,16.2-19.4,26.3c-4.5,9.3-11.7,16.7-22.9,18.6c-10.8,1.9-21.5,4.2-32.3,5.8c-10.4,1.5-14.5,5.6-14.3,16.1
		c0.2,9.6,1.1,19.2,1.2,28.9c0.1,8.5-1,8.6-9.2,7.4c-12.7-1.8-25.1-0.4-36.6,6.2c-4.6,2.6-9.5,4.8-14.2,7.1
		c-1.8,0.9-3.9,1.3-5.3,2.6c-9.7,8.1-18.9,16.8-28.9,24.4c-6.8,5.2-12.9,12.2-23.1,11.1c-2.2-0.2-5.5,2.3-7.1,4.4
		c-2.2,3,0.3,5.7,2.6,7.7c4.8,4,6.5,7.7,3.8,14.5c-2,5-0.1,11.7,0.7,17.6c0.9,6.7-1.1,11.4-6.6,15.4c-3.6,2.7-6.2,6.8-9,10.5
		c-12.5,16.3-25,32.8-37.5,49.1C1586.4,999.3,1585.1,999.8,1582.4,1001.9z"/>
	<path onclick="modal(this.id);" id="3260" class="st0" d="M1453.9,1276.6c-9.4,13.3-17.6,24.9-25.6,36.6c-3.3,4.9-4.1,9.5-0.9,15.6
		c3.6,6.9,4.7,15.1,7.4,22.6c2,5.6,4.9,10.8,7.1,16.3c1.7,4.2,3.4,8.5,4.4,13c1.7,7.8,2.4,15.7,4.3,23.4c1,4,3.3,7.9,5.6,11.4
		c2.7,4.2,6,7.9,9.6,12.5c-2.3,3.7-4.6,7.2-6.9,10.8c-7.1,11.1-16,21.5-12.6,36.3c0.8,3.5-0.6,6.4-4.3,8c-3.9,1.7-7.7,2.5-11.3-0.4
		c-2.3-1.9-4-4.4-6.2-6.4c-2.4-2.2-4.8-4.6-7.7-6.1c-5.4-2.9-8.5-1.3-8.9,4.6c-0.6,9.1-0.2,18.4,7.9,24.5c5.8,4.5,4.5,10.8,5.3,16.4
		c0.3,1.7-3.2,4.6-5.6,6c-3.4,2-7.6,2.6-11,4.6c-5.7,3.4-6.1,7.5-1.4,12c3,2.8,6.2,5.2,5.6,10.2c-5.2,3.6-11.4,2.5-17,1.8
		c-16.2-1.8-22.7,2.6-25.6,18.5c-0.1,0.6-0.6,1.2-0.8,1.8c-12.8-2.7-15.3-1-21,10.3c-5.3,10.4-11.7,20.2-21.2,27.3
		c-11.2-6.3-17.4-6.3-23.8-0.5c-7.2,6.6-3.7,15.7-5.8,24c-5.6,0.1-9.7-3.6-14.3-5.7c-1.2-0.5-2-2.2-3.1-2.4
		c-17.2-3.7-26.5-18.9-40.2-27.7c-2-1.3-3.3-3.8-4.4-6c-1.2-2.3-1.6-5.1-2.7-7.5c-3.4-7-9.4-7.4-13.8-1.1c-0.9,1.3-1.3,3.1-2.1,4.5
		c-0.6,1.1-1.6,1.9-2.4,2.8c-14.4-9.4-18.5-24.7-10.7-40c3.8-7.4,8-14.6,12.4-21.6c6.8-10.6,9.1-21.1,1.8-32.7
		c-1.6-2.6-1.4-7-0.8-10.3c1.2-6.4,1.1-11.4-5.4-15.4c-3.4-2.1-5.6-6.5-7.5-10.3c-3.6-7.2-8.9-9.8-16.9-9.1
		c-17.8,1.6-35.8,2.6-53.6,3.8c-17.9,1.2-35.8,2.6-53.7,3.5c-4.6,0.2-9.3-0.8-13.8-1.8c-33.3-7.8-66.7-15.7-100-23.6
		c-3.8-0.9-7.6-2-11.5-3.1c0.3-5.9,1.7-10.2,5.6-14c7.9-7.8,8.3-15.4,2-24.9c-2.2-3.3-4.8-6.4-6.7-9.9c-1.6-2.8-2.5-6-3.8-9
		c-1.4-3.5-2.9-6.9-4.5-10.9c1.5-3.8,3.5-8.7,5.4-13.6c3-7.7,5.7-9.5,13.6-7.4c4.7,1.3,8.4,0.3,12.4-1.8c3.5-1.8,7.2-3.3,10.9-5
		c1.6,1.3,2.8,2.4,4.1,3.4c6.5,4.6,9.7,3,11-4.9c2.5-15.7-2-30.3-7.2-44.6c-1.7-4.6-5.7-8.5-9.5-13.9c4.5-8.7-3.7-13.2-10.4-17.8
		c-5-3.5-11-5.6-17.1-8.6c1.4-1.7,2.8-3.4,4.3-5c6-6.6,10-14.1,9.9-23.3c-0.1-5,0.4-9.1,6.9-10c3.7-0.5,4.8-3.7,5.2-7.5
		c1.3-11.6,11-15.8,21.1-9.5c1.4,0.9,2.9,1.7,4.4,2.3c5.8,2.3,9,1.4,10.8-4.6c1.6-5.2,4.5-7.5,9.5-8.5c5.5-1.2,11-2.7,16.3-4.7
		c6.9-2.7,13.7-5.8,20.4-9.1c1.6-0.8,3-2.7,3.9-4.4c3.4-6.1,6.3-12.5,9.9-18.5c5-8.4,1.7-15.2-3.7-21.7c-6.8-8.1-7-11.3,1.2-18
		c4-3.2,5.8-6.9,6.7-11.6c1.9-9.8,4.4-19.3,8.7-28.4c2.9-6.1,5.6-12.9,2.4-20.1c-0.4-0.8-0.5-2.1-0.1-2.9
		c6.4-12.7,12.1-24.9,27.5-30.8c16-6.1,30.3-4.2,45.1,1.9c3.3,1.4,5.1,3.4,6.6,6.7c4.3,9,8.8,17.6,9.5,28c0.2,3.9,2.3,7,7.9,6.8
		c3-0.1,6.5,2.9,9.1,5.3c5.1,4.5,10.6,7.7,17.1,9.9c4.5,1.5,8.5,4.5,12.9,6.9c-1,2.5-1.5,3.7-1.9,4.9c-2.9,8.1-1.9,9.5,6.5,10.8
		c2.1,0.3,4.2,1.5,5.9,2.9c5.8,4.5,11.2,9.4,17.1,13.7c9.5,6.9,18.3,14.5,25.1,24c2.3,3.2,3.8,7.9,3.7,11.9
		c-0.2,12.3,3.9,21.9,14.3,28.8c7.5,5,14.4,10.7,21.8,15.9c5.5,3.9,10.4,8.1,14.1,13.8c1.8,2.7,5.6,4.4,8.8,5.9
		c5.3,2.4,9.7,4.5,11.1,11.4c0.8,3.6,5.6,7.3,9.4,9.1c15,7,30.4,13.1,45.5,19.9c7.1,3.2,14,6.4,17.5,14.9c2.2,5.4,6.5,10.4,14.8,9
		C1446.6,1270.4,1450.5,1274.6,1453.9,1276.6z"/>
	<path onclick="modal(this.id);" id="3256" class="st0" d="M2006,466.3c-1.6,7-2.5,13.2-4.5,19.2c-3.1,9.5-2,18.4,2.5,27c3.8,7.2,5.7,14.6,6.5,22.8
		c0.8,8.6,3.4,16.9,11.4,22.3c5.7,3.9,9.2,9.4,10.1,16.5c0.5,4.3,1.7,8.5,2.8,12.7c1.5,5.7,1.3,11.1-1.5,16.4
		c-1.4,2.6-2.3,5.5-3,8.4c-1,3.9-0.1,7.6,3.5,9.6c7.2,4,14.4,9.5,22.1,10.7c9.4,1.5,15.7,5.6,21.5,12.9c-1.3,0.1-2.2,0.2-3.1,0.2
		c-6.7-0.2-10.9-6.4-16.6-7.8c-6-1.5-12.4-1.2-17.7-5.6c-1.6-1.3-4.2-1.6-6.3-2.3c-2.5-0.8-5.4-0.9-7.6-2.2
		c-10.5-6.5-21.4-4.7-32.7-3c-13.7,2.1-27.2,5-41.4,3.5c-9.8-1.1-19.9,0.4-29.8,0.8c-4.6,0.2-9.2,1.3-13.1-2.8
		c-3.8-3.9-8.6-1.5-12.1,0.1c-12.6,5.4-21.8-1.3-30.6-8.1c-4.4-3.4-7.5-8.4-14.2-7c-0.6,0.1-1.3-0.1-1.9-0.4
		c-22.3-8.5-45.2-4.6-68-3.7c-4.3,0.2-8.6,0-13,0c-6.2,8.3-11.8,16.4-10.9,27.3c0.2,2.2-0.7,4.7-1.8,6.6c-3.6,6.3-5.3,12.8-2.8,19.6
		c-3,3.7-6.4,3.1-9.5,2c-5.7-1.9-10.9-0.6-16.6,0.8c-12.1,3.1-24.1,3.3-35-4.6c-3.6-2.6-7.7-2.9-12.1-0.8
		c-7.3,3.3-14.3,6.3-20.1,12.5c-7.7,8.2-16.9,6.1-21.4-4.1c-4.5-10-8.9-20-13-30.2c-3-7.7-2.7-7.8,2.5-16.9c1.7,4.7,3.3,9.3,4.9,14
		c10.6-2.7,11.7-13.8,20.5-18.2c1.4,4.9,2.7,9.4,4,14c2.2,8.2,5.4,10.1,12.9,6.1c3.9-2.1,7.4-5.6,10.1-9.3c3.2-4.3,6.3-6.9,12.1-6.9
		c11.7,0,15.8-3.9,19-15.1c2-7,4.6-13.8,6.9-20.7c0.6-1.9,1.2-3.8,1.4-5.8c0.7-9.5,4.6-17.3,9.3-25.7c4.9-8.8,12.4-17,12.9-28.3
		c0.2-5.1,3.4-10,5.1-15c3.1-9.1,5.9-18.3,9.1-27.3c2.7-7.6,6.4-14.9,14.9-17.3c8.7-2.5,9.6-10.3,12.4-16.8c0.5-1.1-2.4-4.9-4.3-5.4
		c-3.7-1.1-7.7-0.9-11.6-0.9c-3.3,0-6.6,0.5-10.8,0.8c1-14.9,2-29.3,2.9-43.7c0.2-3.7,0.4-7.3,0.6-11c0.7-15.1,15.6-25.2,29.1-21.1
		c4.7,1.4,10.4-0.4,15.6-0.8c4.3-0.3,8.6-1,12.9-1.2c11.2-0.6,20.8,1.8,27.2,12.4c3.4,5.7,8.3,10,15,12.5c3.5,1.3,6,5,9.7,8.1
		c7.6-2.3,15.4,0.2,23.4,2.6c4.8,1.4,10.6,1.5,15.5,0.5c8.3-1.7,14.7,1.2,21.3,5.3c5.6,3.5,11.5,6.5,17.3,9.5c1.1,0.6,2.7,0.5,3.8,1
		c9.7,4.5,19.2,8.9,21.3,21.4c2.4,13.5,12.7,20.4,24.1,25.9C1999.3,463.8,2002.1,464.8,2006,466.3z"/>
	<path onclick="modal(this.id);" id="3254" class="st0" d="M1748.5,296.5c6.6,1.5,12.5,1.6,17.1,4.1c7.9,4.3,16,6.1,24.8,6.1c2,0,4.1-0.4,6,0.1
		c17.7,4.7,28.3-5.9,37.5-18.1c3.3-4.3,6.3-7.7,11.7-7.3c9.7,0.7,16.9-4.3,22.8-10.6c8.5-9.2,17.9-14,30.6-12.3
		c3.2,0.4,6.5-0.6,11.4-1.1c17.4,30.5,33.9,62.3,51.6,94.3c-10.1,15.9-20.2,31.8-30.6,48.2c-2.1-0.7-4.2-0.9-5.7-1.9
		c-4.5-3.3-9.4-3.3-14.3-2.2c-7.7,1.7-15.2,1.1-22.5-1.6c-1.5-0.6-3.2-1.4-4.8-1.3c-7.9,0.5-13.9-2.4-20.8-6.6
		c-8.3-5-14.8-11.2-20.4-18.5c-4.1-5.3-8.7-7-15.3-7.3c-10.6-0.4-21.1-0.5-31.5,1.9c-3,0.7-6.4-1.4-9.7-1.4
		c-5.3,0.1-10.5,1-16.7,1.6c-3.1-10.9-10.5-19.4-17.8-28c-3.1-3.7-4.7-7.8-4.4-12.8C1748.1,313.9,1748.2,306,1748.5,296.5z"/>
	<path onclick="modal(this.id);" id="3255" class="st0" d="M1756.2,399c-0.9,15-1.9,30-2.8,45.1c9.5,2.1,18.2-3.8,26.8,1.4c-2.3,7.2-4.9,12.7-13.1,15.9
		c-8,3.2-12.2,11.6-14.7,20.2c-2.4,8.2-5.3,16.3-8.1,24.4c-1.5,4.4-3.5,8.6-4.7,13c-2.1,7.6-4.9,14.6-8.8,21.7
		c-6.3,11.6-14,22.8-15,37.3c-0.7,9.9-5.6,19.6-8.9,29.3c-1.9,5.5-6.8,7.5-12,7.1c-8.4-0.5-13.8,3.3-17.9,10.2
		c-2.9,4.8-7,7.8-14.1,7.9c-2.3-7.6-4.6-15.3-6.9-23c-11.5,1.7-12.8,13.5-21.6,19.3c-0.9-5.7-1.7-10.3-2.5-15.4
		c-4.7-2.4-6.6,1-8.3,5c-3.2,7.3-6.4,14.6-9.5,22c-1.9,4.6-5.1,6.7-10.8,5.9c-0.3-2.4-0.4-4.9-0.9-7.3c-1.4-6.7-3.3-8.2-10.2-7.8
		c-1.6,0.1-3.4,0.5-4.7-0.1c-2.2-1-4.1-3.8-6.2-3.9c-9.3-0.2-18.6,0.3-27.8,0.6c-1.3,0-2.6,0.7-3.8,1.2c-9.7,3.8-18.1,2-25.3-5.8
		c-3.1-3.4-6.6-4.9-11.6-3.6c-4.9,1.3-8.7-0.7-11.5-5.5c-5.7-10.3-15-12-26.1-5.2c-6-4.6-11.8-11.3-21.2-4.4
		c-0.2,3.3-0.4,7.2-0.7,11.9c-2.8-1.2-5.4-2.3-8.2-3.5c3.1-4.9,5.4-9.6,8.7-13.5c3.1-3.7,6.6-8.2,10.9-9.6
		c11.1-3.7,18.3-12.6,27.6-18.6c4.4-2.8,5.5-7.3,5.8-12.1c0.2-3.9,0-7.9,0-11.9c18-7.6,35.4-14.9,52.7-22.4c2.7-1.2,5.5-2.5,7.7-4.5
		c2.9-2.5,5.9-4.2,9.9-3.7c8.6,1.2,13.3-3.5,15.5-10.9c1.3-4.4,3.6-6.5,7.8-7.8c3.7-1.2,8.1-3,10-5.9c3.9-6,9.1-6.7,15.3-7.1
		c5.5-0.4,11-2,16.5-3c1.9-0.4,4.3-1.5,5.7-0.7c9.2,5,13.5-0.4,17.2-7.5c5.7,0,11.6-1,16.9,0.2c8,1.9,13.5-0.9,18.6-6.4
		c10.4-11.6,20.9-23.2,31.4-34.8c10.4-11.5,20.7-22.9,31.1-34.3C1755.1,398.6,1755.6,398.8,1756.2,399z M1436.9,612.4
		c-4.8,1.8-8.7,3.2-12.9,4.7c3.9,6.6,10,6,16.7,8.9C1439.1,620.6,1438.1,616.8,1436.9,612.4z"/>
</g>
</svg>
