<?xml version="1.0" encoding="utf-8"?>
<!-- Generator: Adobe Illustrator 19.0.0, SVG Export Plug-In . SVG Version: 6.00 Build 0)  -->
<svg version="1.1" id="Layer1" xmlns="http://www.w3.org/2000/svg" xmlns:xlink="http://www.w3.org/1999/xlink" x="0px" y="0px"
	 viewBox="0 0 6000 3500" style="enable-background:new 0 0 6000 3500;overflow: hidden; display: inline; width: inherit; min-width: inherit; max-width: inherit; height: inherit; min-height: inherit; max-height: inherit;" xml:space="preserve">
<style type="text/css">
	.st0{fill:#8FD4EB;stroke:#000000;stroke-width:3;}
</style>
<g>
	
	<path onclick="modal(this.id);" id="3261" class="st0" d="M3564.7,1574.3c0.3-1.2,0.5-2.3,1.3-5.6c-5.8,3.1-10,5.3-14.7,7.7c-1.9-2.6-2.5-4.8,0.5-6.6
		c3.2-1.8,6.5-3.3,9.8-4.9c5.3-2.6,9.3-6.3,11.8-12.3c-7.6-6.4-12.4,0.8-18.8,3.9c-0.3-2.9-0.5-5.5-0.8-8.3
		c-12.4-1.4-10.7,11.2-16.7,15.9c-5-1.9-4.3-6.4-5.4-10c-1.1-3.8-3.5-7.6,1.2-10.7c0.3-0.2,0.6-0.6,0.6-0.8
		c-3.1-7.3,5.2-13.5,2-20.5c-2.2-4.8-5.2-9.3-8.5-13.4c-0.8-1-5.1-0.8-6.2,0.3c-3.7,3.8-7.1,7.9-9.7,12.5c-4,6.8-6.8,14.1-13.7,19.1
		c-2.2,1.6-2.7,5.8-3.6,8.9c-0.7,2.5-0.2,5.6-1.5,7.7c-5.8,9.5-12,18.8-18.6,28.9c-0.9-2-1.9-3.3-1.9-4.6
		c-0.2-12.6-0.1-25.3-0.2-37.9c0-5.7-0.6-11.1-4.8-15.7c-1.6-1.7-2.7-5-2.2-7.1c1.4-6.1-0.9-11-3.8-17.2c-25.6,0-51.6,0-77.6,0
		c-5.6,0-11.3,1-15.8-4.1c-1-1.2-4.2-0.4-6.5-0.5c-0.3-0.4-1-1-1-1.4c2.8-13.2-4.4-22.3-13.5-29.6c-6.4-5.1-8.6-11.2-8.7-19.3
		c-12-0.4-24.7,5.9-35.5-5.4c-7.1,7.8-14.7,15.3-21.2,23.5c-5.3,6.6-10.9,10.2-19.6,7.4c-3.8-1.2-7.8-1.8-11.7-2.1
		c-6.7-0.6-11.8-2.2-13.5-10.2c-0.7-3.1-5.1-5.6-8-8.1c-5-4.3-10.2-8.4-15.5-12.7c-3.4,2.2-6.1,4-8.9,5.8c1.8,4.2,3.4,8,5.8,13.7
		c-8.1-2.7-13.3,6.6-20.5-0.7c-1.9,3-3.9,5.6-5.3,8.4c-3.7,7-9.4,10.5-17.2,8.9c-5.8-1.1-9,1.8-10.8,6.3c-3.7,9.1-8.6,17-16,23.7
		c-1.8,1.6-2.7,5.3-2.3,7.8c1.3,8.4-0.9,15.7-5.1,22.8c-1.8,3.1-3.4,6.6-3.8,10.1c-0.5,5.2,1.3,9.8,6.5,12.4
		c3.3,1.6,6.5,3.4,9.6,5.4c9.1,5.7,10.2,14.8,2.8,22.5c-9.8,10.1-9.8,10.1-22.6,15.4c-3.6,5.9-3.4,11.9-0.3,18
		c2.3,4.6,1.9,8-2.3,12.2c-3.8,3.7-5.5,9.7-7.5,14.9c-0.6,1.6,0.5,4.2,1.4,6c1.8,3.6,3.5,7,1.1,11.1c-0.6,0.9-0.8,2.5-0.4,3.6
		c2,6.5,4.3,12.9,6.8,20.4c3.1-0.4,6.9-0.8,11.4-1.4c1,4.2,2.1,8.5,3.3,13.6c15.9,1.3,32.1,4.7,47.4,11.5c3.2,1.5,6.2,1,9.2-1.6
		c4.2-3.7,9-6.8,13.6-10.2c3.6,2.8,6.9,5.5,10.7,8.4c16.2-6.2,30.9,3.5,46.5,4.7c8.1,12.4,10.7,26.5,13.2,40.6
		c0.4,2-0.6,4.3-1.4,6.4c-1.3,3.4-3.3,6.6-4.3,10.1c-2.5,8.2,1.4,14,9.9,15.8c3.5,0.8,7,1.7,10.8,2.6c0.1,7.8-9.8,6.8-10.9,14.2
		c1.6,2.2,3.7,5,6.2,8.5c-6.3,4.5-12.7,9-19.1,13.6c0.6,2.4,1.1,4.3,1.7,6.1c2.2,7,6,9.5,13.2,8.9c4.3-0.4,8.6-1.4,12.8-1.1
		c5.4,0.3,10,5.5,10.5,10.5c0.5,5.8-1.4,8.4-7.8,11c-1.9,0.7-4.1,1-5.5,2.1c-1.3,1-2.8,3.2-2.5,4.6c0.3,1.4,2.4,3.1,4,3.4
		c2.9,0.5,5.9,0.2,8.4,0.2c2.1,3,3.4,6,5.6,7.8c2.1,1.7,5.2,2.2,8.4,3.4c-2.4,6.2-6.6,7.1-11.5,6.8c-10.9-0.6-20.1,1.7-26.5,11.8
		c-1.9,3-6.5,4.2-10.8,6.8c3.6,10.7,3.1,22.9,10.6,33c2.7,3.6,4.4,8.2,6,12.6c3.6,10.1,9.8,17.8,19.4,22.8c7.6,3.9,13.2,10,18,16.9
		c4.2,6,8.7,11.8,13.1,17.6c5.6,7.3,12,13.2,21.6,15c7.6,1.5,12.4,6.2,13,14.3c0.2,3.7,2.4,5.5,5,7.9c6.5,6,13.5,12.3,10.5,23
		c-0.2,0.8,0.1,2,0.5,2.8c6.2,10.2,12.4,20.3,19.1,31.2c1.6-1.8,2.8-3.2,4.3-4.9c2.4,2.7,5,5.4,7.9,8.6c-0.3,2-0.8,4.2-1,6.5
		c-0.7,8.6,1.5,11.4,10,14.1c2.6,0.8,5,3,6.9,5c2.2,2.4,3.8,5.4,6,8.7c2.2-0.3,4.3-0.6,6.8-1c3.3,3,6.9,6.3,9.5,8.7
		c0,8.1-0.3,14.9,0.1,21.8c0.4,6.6-3,10-9.2,8.4c-1-0.2-1.9-0.7-2.8-1.1c-14.7-8.1-29.1-7-43.7,0.4c-2.4,1.2-5.6,1.3-8.4,1.2
		c-3.9,0-7.7-0.7-11.1-1c-5.7,5.5,1.1,10.5-0.8,16.7c-2.9-0.1-6.2,0.2-9.2-0.5c-14.9-3.6-26.6,3.3-29.4,18.3
		c-1.2,6.4-3.1,11.9-6.5,17.4c-2.7,4.4-4,9.7-5.8,14.6c-1.6,4.3-2.3,9.4-5.1,12.9c-5.5,6.9-5.2,14.5-5.5,22.6
		c-0.3,9.7-0.2,20-8.5,28.7c-4.9-6.2-11.5-6.6-18.6-6.6c-3.2,0-6.5-2.5-9.7-3.7c-2.6-1-5.4-2.6-8-2.3c-1.1,0.1-2.3,4.1-2.6,6.5
		c-0.9,5.9-0.7,5.9-10.8,9c-1.3,4.9-2.7,9.8-4.3,15.8c-10.6-7.5-21.2-7.7-34-7.2c2.8,3.7,4.3,5.6,6.3,8.2c-10,0.3-11.9,7-11.4,16
		c-8.3-4.9-14.7-2.3-21.9,1.3c-10.8,5.4-22.5,9.2-32.5,13.2c-4.7-5.9-8.5-10.7-12.3-15.4c-2.4-4.3,1-11-6.3-13.9
		c-0.4-0.2,0.1-2.5-0.1-3.8c-1-6.3-4.5-9.8-11-10.8c-5.9-0.9-11.8-1.7-17.7-1.9c-6.6-0.3-12.7,2.2-17,7.1
		c-10.4,12-23.1,17.1-38.9,14.9c-6.5-0.9-12.1,1.7-18.1,4.3c-6.2,2.7-13.3,3.4-20.1,4.9c-2.2,0.5-4.7,0.5-6.7,1.5
		c-9.5,4.8-19,9.5-28.1,14.9c-4.8,2.9-9.3,4.8-14.9,4.3c-8.8-0.9-16.5,2.7-23.4,7.3c-3.8,2.6-6.3,7.4-8.9,11.5c-1.9,3-3,6.5-4.5,9.7
		c-0.7,0-1.5-0.1-2.2-0.1c-0.4-3-1-5.9-1.2-8.9c-0.3-4.2-2.2-6.8-6.4-7.6c-3.3-0.6-6.6-1.1-9.7-2.1c-2.1-0.7-4.8-1.6-5.8-3.3
		c-5.1-9.2-14.9-10.5-23.2-14.4c-1.7-0.8-4.2-0.7-5.3-1.9c-5.4-6.1-11.6-5.1-18.1-2.6c-8.2-5.1-13-15.5-24.7-14.6
		c-2.8-7.5-1.7-13,4.7-17.7c6.9-5.1,10.8-11.7,11.3-21c0.7-12.9,3.2-25.7,4.7-38.5c1-9.3,0.3-10.1-8.7-12.4
		c-39-10-77.8-20.7-115.4-35.2c-4.5-1.7-9.7-1.8-14.6-1.7c-5.6,0-11.2,1-18.6,1.7c2.4-4.4,4.1-7.4,5.7-10.6
		c7.4-14.9,15-29.7,22-44.7c6.8-14.7,16.4-27.1,27.1-39.1c13-14.7,24.9-30.3,36.9-45.9c1.8-2.3,2.2-6.2,2.2-9.3c0-14-0.6-28-0.4-42
		c0.1-5.6,0.8-11.3,2.4-16.6c7.6-26.2,15.3-52.3,23.6-78.3c3.1-9.6,1.8-19.1,1.7-28.6c0-4.6-0.9-9.2-1.2-13.9
		c-0.2-4.7-3-7.1-6.9-8.8c-3.6-1.6-6.4-0.2-8.9,2.4c-6.9,7.2-13.9,14.2-20.8,21.5c-3.5,3.7-6.1,7.6-6.2,13.2c-0.1,4.5-4,6.7-7.9,8.1
		c-11,3.9-21.9,7-34,5c-10.2-1.7-19.7,1.5-28.3,7.4c-2.1,1.5-4.5,3.3-6.8,3.4c-19.2,1.1-38.5,1.9-57.8,2.8c-1,0-2-0.2-4.3-0.5
		c-12.2-23.8-24.7-48.2-37.2-72.6c0.5-0.6,1-1.3,1.5-1.9c5.1,1.9,10.5,3.3,15.4,5.7c8.9,4.3,16.7,3.8,23.4-3.8
		c3.1-3.5,6.9-3.4,10.9-3.5c9.9-0.3,19.9-0.6,29.8-1.5c2.7-0.2,5.6-1.9,7.7-3.8c5.5-4.8,10.7-9.8,18.5-11c4.2-0.6,5.5-4.3,5.1-8.5
		c-1.2-11.5-2.6-23.1-3.5-34.6c-0.4-4.4-2-7.5-5.8-9.7c-6.7-3.8-12.3-8.7-16.8-15.3c-4.1-6.1-11.4-8.3-18.3-8.9
		c-7-0.6-12-3.5-15.5-9.3c-4.9-8.3-12.3-13.8-20.3-18.8c-1.7-1.1-3.6-2-4.9-3.5c-5.3-6.4-12.2-10.1-19.8-12.9
		c-1.5-0.5-2.7-1.8-4.8-3.2c4-11,7.9-21.8,11.9-32.7c3.9-10.5,3.8-10.9-4.8-17.5c-7.6-5.9-15.2-11.9-22.9-17.8
		c-6.6-5-8.9-4.5-13.3,2.6c-7.3,11.9-14.6,23.9-21.8,35.9c-2.8,4.6-5.8,8.6-11,11.1c-3.4,1.6-6.2,4.9-9,7.7
		c-7.8,7.7-15.4,15.6-23.1,23.3c-3.5,3.5-6.8,7.3-10.5,10.5c-3.4,3-7,6.4-11.1,7.9c-15.3,5.5-30.9,10.1-46.4,15.4
		c-3.8,1.3-6.6,0.3-9.1-2c-7.1-6.8-15.8-7.5-25-7.3c-7.5,0.1-15.1-1.1-22.4-1.8c-1.6-7.9-3-14.6-4.3-21.4
		c-2.9-15.1-12.1-27.2-18.5-40.7c-3.5-7.5-8.4-14.3-12.3-21.6c-2.5-4.6-4.9-9.4-6.8-14.3c-3.8-9.8-8.8-19-16.3-26.1
		c-9.1-8.6-20.7-12-33.3-9.7c-5.5,1-10.4,1.2-15.5-1c-2.7-1.1-5.8-1.3-8.7-1.9c-6.2-1.3-12.1-2.6-16.8-7.7c-2.2-2.4-6.3-3.6-9.7-4.1
		c-8.4-1.4-14.5-5.9-19.9-12c-0.9-1-1.4-2.6-2.5-3.1c-11.5-5.3-20.6-14.1-31.3-20.6c-4.2-2.5-7.9-6-11.2-9.6
		c-9.1-9.7-17.6-20-27-29.4c-4.9-4.8-10.9-8.8-17-12.1c-8.4-4.6-12.5-11.9-14.1-20.6c-3.3-17.3-6.4-34.6-8.9-52
		c-1.6-11.5-2.1-23.1-3-34.7c-0.9-11.9-1.4-23.9-2.8-35.7c-1.6-13.3-8.3-24.3-16.6-34.4c-6.8-8.2-13.9-16.1-20.9-24.1
		c-2.8-3.2-4.1-6.8-3.6-11c2.1-17-5.6-30.2-16.4-42.1c-10.7-11.8-21.3-23.6-34.7-32.7c-13.2-9-25.2-19.6-35.3-32.1
		c-8.3-10.2-18.6-18-29.9-24.5c-7-4-10.4-8.9-10.7-17.4c-0.3-10.9-2.2-21.8-4-32.6c-0.6-3.4,0.2-5.5,2-8.2c3.3-4.9,6.5-10,9.1-15.3
		c6.5-13.5,15.9-24.6,27.1-34.2c16.3-13.8,31.2-28.8,44.7-45.4c5-6.1,11.6-10.9,17.5-16.3c4.9-4.5,10.3-8.5,14.6-13.5
		c12.5-14.6,29.7-22.3,45.8-31.4c11-6.2,22.5-11.6,33.2-18.4c7.2-4.6,13.5-10.6,19.5-16.7c4.8-4.9,9.6-9.3,16.7-9.9
		c31.5-2.8,55.9-19.7,78.9-39.5c7.5-6.4,15.4-12.7,23.6-18.1c4.2-2.8,7.6-5.3,8.1-10.4c0.6-6.3,4.4-9.1,10-10.7
		c3.2-0.9,6.1-2.4,9.5-3.8c0.3-1.7,0.8-3.3,0.8-4.9c0.2-6.1,3.8-9.1,9.3-9.9c26.9-3.8,37.3-24,45.7-46c0.8-2.1,0.4-5.4-0.7-7.5
		c-10.6-20.2-14-42.9-22-64.1c-4.1-10.8-5.7-22.5-8-33.9c-0.4-2.1,0.7-5.2,2.2-7c8.9-10.3,17.9-20.6,27.3-30.4
		c12.8-13.2,29.2-16.4,46.8-14.9c13.2,1.1,26.1,3.4,39.6,2c11.4-1.2,23.2,0.4,34.8,1.4c2.8,0.2,6.2,2.5,7.8,4.9
		c2.7,3.8,5.9,4.9,10.2,4.7c6-0.2,12-0.4,18,0c11,0.8,20.2-3.1,28.5-9.7c4.9-3.9,9.9-7.8,14.9-11.7c19.2,13.7,37.8,27.1,56.5,40.5
		c1.6,1.2,3.1,2.5,4.8,3.6c6.7,4,10.1,2.3,10.3-5.2c0.2-8-0.5-16-0.3-24c0.1-3.9,0.7-7.8,1.7-11.6c2.8-11,12.8-12.5,21.4-15.4
		c9.4-3.1,19.1-5.4,28.9-8.1c0-7.1,0-12.9,0-19.7c9.3,1.9,14.7-3,19.6-9.3c3.7-4.7,8.5-8.6,12-13.4c5.9-8.1,14.3-12.8,22.7-17.6
		c6.3-3.6,12.9-4.3,20.2-3.3c18.4,2.6,36.8,5.4,55.3,6.5c9,0.5,18.5-1.7,27.3-4.3c14-4.1,27.7-9.4,41.5-14.4c4.8-1.7,9.3-2.6,14.3,0
		c8.3,4.3,16.7,8.3,25.2,12c13.4,5.9,26.9,11.5,40.5,17c6.5,2.6,13.3,4.5,19.6,7.3c15,6.6,28.6,3,42.9-3.1
		c13.1-5.6,19.5-16.2,23.9-27.9c7.5-19.4,22.3-30,39.9-38.2c8.7-4.1,17.6-8,26.6-11.4c14.8-5.5,28.3-13.3,40.7-22.9
		c2.6-2,5.3-4.1,8-5.9c4.1-2.7,8.1-3.3,13-1c12.7,6.1,26,10.5,40.4,9c28.5-2.9,54.7-11.8,75.5-32.3c10.2-10,15.5-23.1,19.2-36.7
		c2.5-9.3,4.3-18.8,3.3-28.6c-0.2-1.6,0.3-3.2,0.5-4.3c13.9-0.8,27.3-1.2,40.7-2.4c13.2-1.2,26.3-3.2,40.5-5
		c4.1,12.4,8.2,24.6,12.1,36.9c13.2,41.5,26.3,83.1,39.5,124.6c6.3,19.7,13,39.1,18.8,58.9c2.2,7.5,6.2,11.5,13.4,12.6
		c6.3,1,12.3,3.9,19.1-0.7c3.4-2.3,9.8-0.8,14.6,0c3.9,0.7,6.8,0,8.8-2.9c3.1-4.7,7.8-5.7,12.7-7.1c4.5-1.3,8.8-3.5,14.6-5.8
		c9.2,6.2,19.9,14.3,35,6c0,5.3,0.9,9.4-0.2,12.8c-3.3,10.3-1.2,19.6,3.4,28.8c1.3,2.6,2.8,5.4,3.2,8.3c0.9,7.2-2.9,12.6-10.6,16.1
		c-6.6,3-13.2,6.2-20.1,8.6c-4.3,1.5-9.2,1.1-13.6,2.3c-2.6,0.7-5.7,2.2-7.2,4.3c-7.5,11.1-18.9,19.9-20.9,34.5
		c-0.2,1.5-3.9,3.4-6.1,3.5c-5.9,0.3-11-4.5-13.3-11.6c-3.7-11-8.3-13.6-19.2-10.7c-2.6,0.7-5.2,1.3-7.6,2.3c-9,3.9-11,9.9-5.8,18.2
		c8.9,14.1,18.1,28,27.2,41.9c17.2,26.2,34.3,52.4,51.6,78.5c3.9,5.9,6.8,11.9,8.1,19.1c1.2,6.8,3.1,13.9,6.6,19.7
		c5.1,8.4,5.2,17.3,4,26.1c-1.2,9.6,1.1,17.8,6.9,25c3.9,4.8,4.4,9.3,3.6,15.5c-3.2,25.7-5.6,51.5-8.2,77.2
		c-0.9,8.6-1.6,17.2-2.5,25.8c-0.8,7.4,0.3,8.9,7.9,8.6c9.6-0.3,19.2-1.2,28.8-2c17.8-1.5,35.5-4.5,53.5-2.1c8.9,1.1,18,0.4,27,0.1
		c4.7-0.1,8,1.5,11.5,4.7c4.2,3.9,9.5,6.6,15.6,10.8c0.5,2.3,0.9,6.7,2.2,10.7c4.1,12.9-2,22.4-9.7,31.7c-3.5,4.2-7.2,5-12.3,2.7
		c-4.5-2-9.4-3.8-14.2-4.1c-7.3-0.5-14,1.8-20.5,6.2c-23.5,16.3-47.5,32-71.3,48c-3.5,2.3-6.5,5.2-10.6,8.5
		c9.3,10.6,17.7,20.4,26.3,30.1c17,19.1,34.2,38.1,51.1,57.4c2.5,2.8,4.7,6.8,5.1,10.4c2.5,27.1,4.5,54.3,6.6,81.4
		c0.1,1-0.3,2-0.4,2.8c-0.6,0.5-1,1.3-1.5,1.4c-11.4,1.3-18.9,9-26.5,16.4c-2.7,2.5-5.2,5.2-7.9,7.7c-3.6,3.5-7.6,4.6-12.8,3.1
		c-3.3-1-7.2-1.1-10.6-0.4c-9.7,1.9-19.3,4.9-29.1,6.4c-6.4,1-9.5,4.1-10.5,10c-0.4,2.6-0.6,5.3-0.8,7.9c-0.3,4.7-0.4,9.3-0.7,14
		c-0.5,8.2-3.7,14.3-11.6,18.2c-6.1,3-12.2,6.4-15.9,13.1c-4.1,7.5-7.5,14.7-4.8,23.6c1,3.4-0.1,7.3,0.3,10.9
		c1.5,14.9,12.1,30.4,30.6,28.4c0.7-0.1,1.4,0.1,2-0.1c7.9-3.1,15.6-6.2,24.7-3.9c2.6,0.7,6.5-2.8,9.3-5c1.7-1.3,2.4-3.9,3.5-5.9
		c0.9,0.6,1.9,1.2,2.8,1.7c-0.6,12-0.9,23.9-2.1,35.9c-0.6,6,0.4,11.3,3.5,16.2c4.9,7.6,3.2,14.4-1.9,21c-0.2,0.3-0.3,0.6-0.5,0.8
		c-10.3,9.7-18.1,21.1-23.1,34.4C3568.2,1573.7,3566,1573.8,3564.7,1574.3L3564.7,1574.3z"/>
	<path onclick="modal(this.id);" id="3265" class="st0" d="M2888.1,2435.4c-1.9-3.4-4.4-6.4-5.4-9.8c-2.4-8.3-7.2-14.1-13.7-20c-6.2-5.6-11.6-9.3-20.8-7.5
		c3.5-9.2-0.6-14.8-6.9-19.4c-3.8-2.8-5.4-6.2-5.1-11c0.4-7.3,0.1-14.6,0.1-21.7c8.4-2,8.7-0.9,13.7,3.8c5,4.7,9.7,11.8,18.9,8.3
		c2.2-0.8,6.5-0.7,7.5,0.7c3.4,4.7,8.7,4.2,13.2,6c6.7,2.8,13.4,5.3,18,11.8c2,2.8,6.6,4,10.2,5.4c3,1.2,6.3,1.6,9.2,2.2
		c1.5,6.6,2.8,12.7,4.2,19.1c6.2-1.5,8.2-6,9.6-10.1c5.4-16.1,17.2-21.8,33.1-21.4c5.2,0.1,9.5-1.6,14-4.3
		c9.7-5.8,19.7-10.9,29.8-16c2.2-1.1,5.2-0.7,7.7-1.3c6.1-1.4,12.5-2.1,18.1-4.6c6-2.7,11.7-4.5,18.2-4c1,0.1,2-0.1,3,0
		c14.3,2.4,25.3-3.7,34.5-13.7c7.4-8,16.5-9.2,26.5-8.1c3.3,0.4,6.6,1,9.6,2.2c2,0.8,5.5,3,5.2,3.9c-2.1,8.7,9.6,13.7,5,22.8
		c6,3.8,11.7,7,12.9,14.6c0.5,2.8,3.8,3.4,6.7,2.2c11-4.6,22.3-8.7,33-13.9c5.4-2.6,10.1-4.1,16-1.8c6.3,2.4,7.7,1.2,8-5.3
		c0.1-2.3,0-4.5,0-6.8c4.1-3.5,13.3,0.1,11.5-9.1c9.4-1.9,16.6,0.6,22.6,7c5-5.4,7.8-10.8,7.9-17.8c8.2-1.7,12.8-6.4,11.8-17.3
		c6.2,7.6,12.8,8.5,19.9,7.7c4-0.5,6.8,1.2,9.8,3.8c2.9,2.5,6.4,4.7,10.1,5.8c8.8,2.9,18.2,4.4,22.3,15.2c6.8-5,13-8.8,18.4-13.6
		c11.8-10.4,26.9-14.3,40.7-20.7c1.7-0.8,4.7-0.5,6.4,0.5c4.3,2.4,8.4,5.3,12.4,8.3c7,5.3,13.9,10.7,23.6,6.6
		c1.1-0.5,3.1-0.4,3.8,0.3c7.6,7.9,19.5,2.7,27.4,9.3c10-3.5,18.3,4.8,27.9,4.2c1.3-0.1,2.9,1.3,4.1,2.3c1.5,1.3,3,2.7,4.2,4.3
		c6,7.9,11.8,15.9,17.9,23.7c4.4,5.7,6.4,11.5,3.2,18.5c-0.3,0.7,0.3,1.9,0.5,3.2c7.6-3.6,15.7-6.2,22.1-11
		c4.4-3.3,7.4-9.3,9.5-14.7c2.2-5.8,2.7-12.3,3.4-18.5c0.6-4.9,1.9-9,7.3-12c7.9,6.8,12.7,15.9,16.9,25.1c3.6,7.9,6.9,15.9,9.9,24
		c4.2,11.3,13.3,17.1,23.6,21.2c4,1.6,6.6,3.6,8.5,7.5c3,6.3,6.4,12.4,10.5,18.1c5.9,8.3,8.3,17.9,11.5,27.3
		c2.7,8.1,6.2,15.9,9.9,25.2c22.5-15.5,43.7-30.2,64.8-44.7c6.6,5.4,10.8,11,10,19.8c-0.6,6.3,0.9,6.8,10.6,6.1
		c0.4,1.1,0.9,2.3,1.1,3.5c0.5,3.5,2,5.9,5.9,4.8c3.5-1,5.9-3.2,5.2-7.3c-0.4-2.3-1.3-4.5-1.5-6.8c-0.5-4.2-1-8.5-0.9-12.8
		c0-4.5-0.8-8.4-4.3-11.5c-1.7-1.5-3.4-3.3-4.4-5.2c-3.1-6-2.2-9.3,3.8-12.2c20.3-9.5,40.9-13.2,61.9-1.7c2,1.1,4.4,2,6.5,1.9
		c8.3-0.3,15.7,2.2,22.7,6.4c2.2,1.3,4.8,2.4,7.4,2.9c4.9,0.9,10,0.7,14.7,2c4.7,1.3,9.1,3.8,13.6,5.7c0.3-0.6,1-1.4,0.8-1.8
		c-3.9-8.8-7-17.3-1.8-27.1c1.5-2.9-1-8.3-2.4-12.3c-2.1-6.2-4.9-12.2-8.2-20.3c3.6,1.5,5.2,2,6.7,2.8c8.9,4.5,17.5,9.7,26.8,13.3
		c9.4,3.7,16.5,9.8,22.6,17.4c4.9,6.1,10.4,10.9,18,13.5c3.9,1.4,7.4,4.4,10.8,6.9c3.4,2.6,6.4,5.8,9.9,8.4
		c7.4,5.3,12.9,11.9,17.6,19.9c5.5,9.4,12.9,17.7,20,26c3.3,3.9,6.2,7.3,6.8,12.8c1.4,11.5,6.5,21.4,14.6,30
		c4.3,4.6,7.8,9.9,11.3,15.2c5.8,8.5,11.7,17,20.1,23.3c3.6,2.7,6.5,6.4,10.1,10.2c-10.3,9.3-19.8,18.1-29.5,26.6
		c-7.9,7-7.9,6.9-4.4,16.9c2,5.9,3.9,11.9,5.8,17.9c1.4,4.5-0.8,6.9-4.8,8.2c-5.4,1.7-10.7,3.7-16.1,5.4c-5.1,1.5-9.4,4.3-11.1,9.3
		c-3.9,11.3-8.5,22.5-10.4,34.2c-2.2,13.9,5.5,24.9,15.4,34.1c5.1,4.7,10.6,9.1,15.5,14.1c2.4,2.5,4.5,6,5.2,9.3
		c1.9,8.5,6.6,14.3,16,18.1c-3.6,1.6-5.7,2.9-8,3.7c-20.4,6.5-37.7,17.6-53.2,32.3c-23.5,22.1-47.8,43.4-71.7,65
		c-19.7,17.9-39.3,35.9-59,53.8c-21.9,19.9-44,39.7-65.9,59.5c-11.9,10.7-23.8,21.3-35.5,32.1c-5.5,5.1-5.7,6.4-1.7,12.7
		c7.5,11.4,15.1,22.8,23,34.7c-5.6,5.6-4.6,11.3-0.7,17.6c6,9.6,11.2,19.6,17,29.3c4.2,7,10.8,10.4,18.7,12c3.6,0.7,7,2.7,9.6,3.8
		c-3,11.4-5.7,21.2-8,31.1c-1.9,8.3-9.7,10.1-14.9,15.2c-21.6-13.3-42.9-26.4-64.1-39.5c-7.7-4.7-15.3-9.5-23-14.1
		c-6.4-3.8-12.8-2.5-14.2,4.4c-1.9,9.1-8.9,13.7-13.7,20.5c-3.9,0-7.9,0-12.9,0c-5.4-12.9-10.9-26.1-16.3-39.2
		c-4.1-9.8-8-19.7-12.2-29.5c-4-9.2-5.1-9.6-14.1-5.7c-27.1,11.8-54.3,23.5-81.4,35.4c-5.6,2.5-11.1,3.4-17.3,1.9
		c-16.8-4-33.7-7.4-50.6-10.9c-7.5-1.5-15.1-2.3-22.6-4c-7.7-1.8-15.3-4.1-22.9-6.5c-8-2.6-16-1.7-23.5,0.7
		c-10.2,3.2-19.2,2.6-28.6-2.9c-4.2-2.4-10.2-2.1-15.5-2.4c-4.4-0.3-7.9-1.9-11.9-3.4c-19-7.5-38.4-16.5-59.2-6.1
		c-13.5,6.8-25.7,4.1-37.3-4c-8.8-6.1-16.4-13.3-21.9-22.8c-9.2-16.2-22.8-27.4-40.8-33c-6.9-2.1-12.2-5.9-15.8-12.7
		c-3.8-7.2-11.8-11.9-13.1-20.9c7.4-5.7,13.5-12.7,12.6-22.9c-0.9-10.2-8-15.6-17.3-18.9c0.4-1.7,0.5-3,1-4.1
		c5-11.3,9.3-12.4,19.6-5.1c7.1,5,8.2,5.1,14.8,0.3c4-2.9,7.9-6.1,11.6-9.5c9.2-8.3,8.5-16.1,3.2-26.8c-0.7-1.5-1.6-2.9-2.7-4.8
		c3.9-4.5,8.6-6.5,14.1-4.8c7.2,2.1,12.2-0.7,16.5-6.1c2.1-2.6,4-5.7,6.7-7.4c7-4.4,11.1-10.3,11.5-18.3
		c23.4-11.7,25.4-16.3,18.7-45.2c7.1-5.2,7.8-13,7.1-21.2c-0.9-10.5,1.3-19.6,10.5-26.3c4-2.9,7.4-6.8,10.6-10.6
		c7.7-9.3,6.1-20.3-4.4-26.1c-6.5-3.6-10.7-7.6-12.7-15.1c-2.7-9.9-8.9-11.9-18.3-7.3c-9,4.3-17.9,8.8-27.1,12.8
		c-2.4,1.1-6,1.6-8.2,0.7c-18.1-7.8-36.6-12.6-56.6-13.5c-12-0.5-23.8,1.3-35.7,1.1c-8.8-0.2-17.3-0.4-23.3-8.5
		c-1.2-1.7-3.8-2.6-5.9-3.4c-11.4-4.5-21.7-9.4-30.1-19.7c-7.8-9.5-19.5-16.5-32.8-16.9c-6.7-0.2-10.7-5-16.3-6.6
		c-1.6-0.4-3.1-1.2-5.7-2.3c0.3-2.6,0.8-5.4,1.1-8.2c0.5-5,2.9-7,8.1-6c2.8,0.5,5.9,0,8.7-0.6c4.7-1.1,6.4-4.5,5.5-9.1
		c-2.7-13.4-8.6-25.4-19.3-33.9c-9.3-7.3-20.1-12.7-29.8-19.5c-10.2-7.1-17.3-16.7-23.1-27.7c-3.5-6.7-4.5-12.9-4.4-20.6
		c0.4-16.7-10-28.1-23.6-37.3c6.7-13.7,3.2-27-2.8-39.9c-4.4-9.4-10.5-10.4-18-3.3c-4.1,3.9-7.6,8.4-11.4,12.6
		c-2.8,3.1-5.8,4.7-10.5,3.2C2898.5,2435.3,2893.6,2435.8,2888.1,2435.4z"/>
	<path onclick="modal(this.id);" id="3263" class="st0" d="M3402.5,2293.6c-23.7,7.7-44.6,18.3-63.1,35.3c-4.6-11-15.5-10.4-22.7-14.6
		c2-8.1,4.1-15.6,5.7-23.3c0.7-3.5,1-7.3,0.4-10.7c-0.9-5.3,0.5-9.7,2.8-14.3c2.9-5.9,5.6-11.9,8.2-18c2.1-4.8,3.7-9.9,6.1-14.5
		c2.7-5.3,5.6-10.1,6.1-16.6c0.7-9.9,8.7-17.2,18.4-17.9c3-0.2,6.2,1.9,9.3,2.7c3.7,1,7.5,1.2,10-2.3c2.5-3.4,3.8-7.1-0.5-10.5
		c-0.6-0.5-0.5-1.8-0.7-2.6c0.6-0.6,1.2-1.5,1.5-1.4c9,2.6,16.8,0.6,25.3-3.4c10.7-5.1,22.4-4.8,33.4,1.5c8.3,4.8,12.4,3.8,17.1-3
		c0.7-1.1,2-2.5,1.8-3.5c-1.5-7.8-0.4-15.5,0.2-23.3c0.1-1.3-1.2-3.1-2.3-4.2c-3.1-3-6.3-5.8-9.5-8.7c-0.5-0.4-1.1-1.3-1.5-1.3
		c-8.2,1.5-10.1-5.9-14.6-9.8c-1.6-1.4-4-2.2-6.1-2.9c-6.5-2.2-8.8-4.7-6.7-10.7c1.9-5.3,0.4-8.5-3.1-12.4c-3-3.3-4.8-7.8-7.3-12.1
		c-2.2,1.3-4.3,2.6-6.5,3.9c-4.1-6.7-8.2-13.1-12-19.6c-0.8-1.3-1.5-3.1-1.4-4.6c1.4-12.7-6.8-19.9-15.9-28.2
		c-0.2-1.3-0.5-3.9-1.1-6.5c-1.2-5.1-3.9-9.5-9.3-10.6c-17.8-3.6-27.1-17.2-36.2-30.7c-6.3-9.3-13.6-17-23.5-22.4
		c-7.1-3.9-12.1-10-14.7-17.9c-1.4-4.4-3.1-8.9-5.8-12.5c-6.9-9.2-7.3-20.3-10.2-29.6c4.5-4.6,8.4-8.9,12.6-12.7
		c5.2-4.6,11.4-6.2,18.4-6.2c4.1,0,8.6-0.8,12.3-2.5c2.2-1,4.1-4.4,4.5-7c0.6-3.5-2.7-4.9-5.7-5.8c-1.6-0.5-3.2-0.8-4.9-1.3
		c-0.8-2.3-1.4-4.5-2.1-6.6c-3.8-0.7-7.2-1.3-13-2.2c4-2,6.1-3.1,8.2-4.2c7.2-3.8,9.5-12.6,5.1-19.4c-4.2-6.5-11.3-9.5-19-7.9
		c-1,0.2-1.8,0.8-2.8,1c-8.8,1.8-11.2,0.1-13.3-10.2c6.5-4.6,13.1-9.4,20.1-14.3c-3-3.5-5.5-6.4-8.3-9.7c2.9-2,4.9-3.7,7.1-5
		c3.2-1.9,5-4.5,4-8.3c-0.9-3.5-3.5-4.4-6.8-4.7c-2.6-0.2-5.2-1-7.7-1.7c-6-1.5-7.9-4-6.8-9.8c0.4-2.2,1.2-4.6,2.4-6.5
		c4.7-7.3,4.3-14.8,1.9-22.9c-3.3-11.5-5.4-23.4-12.2-32.1c-8.6-2.1-16.6-3-23.7-6c-8.5-3.5-16.7-0.7-26.9-1.7
		c1.3,0.7,0.6,0.5,0.2,0.1c-8.4-8-8.5-8.1-18.3-1.4c-3.3,2.2-6.4,4.7-10,7.5c-4.7-1.7-9.5-3.9-14.6-5.2c-8.6-2.2-17.4-4.3-26.2-5.7
		c-4.1-0.6-6.8-2-8.3-5.8c-3.6-9.8-3.6-9.8-13-8.4c-0.6,0.1-1.3-0.3-2.2-0.5c-1.2-5-3.7-10.2-3.3-15.2c0.5-7.5-1.8-13.9-3.2-20.8
		c-0.8-3.9,2.5-10,5.8-13.1c5.7-5.3,5.9-10.3,3.2-16.9c-1.5-3.8-1.4-8.2-2.2-13.3c11.9-1.4,17.8-9.9,25-16.6
		c7.9-7.4,6.9-19.6-2-25.6c-3.6-2.4-7.6-4.1-11.2-6.5c-5.3-3.4-6.8-9-4.3-14.7c1.1-2.4,2.4-4.7,3.9-7c4.2-6.4,6.2-13,4.2-20.8
		c-0.5-2,0.8-5.5,2.4-6.9c6.8-5.8,11.1-13.2,14.2-21.3c1.5-3.8,3.7-6.8,7.9-6.4c11.1,1,18.6-3.5,22.7-14.1c1.6,1.4,2.7,2.4,2.9,2.6
		c5.9-2,11-3.8,16.1-5.6c3.6-1.3,5.4-3.9,4.4-7.7c-0.7-2.5-2.2-4.7-3.3-7c1.8-3.2,4-3.6,6.6-1.4c7.7,6.5,16.9,11.5,20.6,21.9
		c0.8,2.1,4.1,4.1,6.7,4.7c10,2.2,20.2,3.7,31,5.7c9.4-10.2,18.9-20.4,28.7-30.9c9.4,8,20.3,2.8,31.6,4.8c0.5,1.3,1.1,4.2,2.4,6.7
		c1.5,2.8,3.4,5.4,5.6,7.8c4.2,4.6,9,8.8,12.9,13.7c1.5,1.8,1.5,5,1.7,7.6c0.2,2.6-0.3,5.3-0.1,7.9c0.4,4.3,1.2,7.6,7.4,6.3
		c3.2-0.7,7.1,2.4,10.7,2.7c6.9,0.7,13.9,0.8,20.9,0.9c17.7,0.3,35.3,0.4,53,0.5c3.6,0,7.2,0,11.3,0c0.9,4,2,7.2,2.1,10.4
		c0.2,5.7-0.1,11.2,4.9,15.5c1.2,1,1.1,3.7,1.2,5.6c0.3,13.3,0.4,26.6,0.8,39.8c0.1,4.1,1.2,8.2,1.9,13.3c6-3.4,9.2-7.2,11.8-12.1
		c2.7-5.2,5.8-10.4,9.4-15c3.6-4.6,6.3-9.4,6.1-15.3c-0.1-4.1,1.8-6.3,4.6-9.1c4.3-4.4,7.3-10.1,10.8-15.3c3.3-4.8,6.6-9.5,10-14.5
		c3.5,4.5,6.3,7.7,8.6,11.2c2.2,3.4,0.3,7.7-5.1,12.6c1.1,1.9,2.3,3.8,3.7,6.2c-1.5,2.4-3.1,4.8-4.4,6.9c1.4,4.3,2.8,8,3.8,11.8
		c0.9,3.6,1.5,7.8,5.9,8.2c4.7,0.5,6.8-3.1,8.3-7.2c1.1-3,2.7-5.7,5.7-8c0,2.7,0,5.4,0,10c4-1.9,6.8-3,9.5-4.5
		c2.7-1.4,5.1-3.2,8.2-4c-2.7,6.6-9.1,8.1-14.4,11c-8,4.4-8.2,4.5-5,15.4c4.2-1.5,8.2-2.9,13.4-4.7c-1.9,7.5-11.2,10.3-10,19.1
		c1.9,0.1,4,0.3,6,0.4c0,0.5,0.2,1.2,0,1.7c-2.3,5.5-4.7,10.9-7,16.4c-4,9.5-7.5,19.2-12,28.4c-2.1,4.3-5.9,7.8-9.3,11.5
		c-5.5,5.9-6.1,6.7-1.9,13.8c4.8,8.2,10.5,16,15.8,23.9c0.9,1.4,2.8,2.6,2.8,4c0.2,8.2,5.2,12.5,12,15.1c-0.2,1.6,0.1,2.8-0.4,3.4
		c-6.1,7.7-3.5,15.5-0.3,23.4c2.2,5.5,3.7,11.2,5.5,16.9c0.8,2.5,0.7,5.8,2.3,7.5c7.2,8.1,4.9,17.3,4.3,26.5
		c-0.4,6.2-0.1,12.6,0.5,18.8c0.2,2.5,1.1,5.7,2.9,7.3c7,6,6.1,13.8,4.8,21.3c-1.2,7.1-3.7,14.1-6.1,20.9c-2.3,6.6-3.3,12.6,2,18.5
		c3.1,3.5,5.1,7.8,8.1,11.4c4.4,5.3,6.5,11.4,8.2,17.9c2.1,8.3,5.2,16.4,8.3,25.6c-11.6,7.4-8.8,21-11.5,32.7
		c-1.2,5.1-1.8,10.5-1.6,15.8c0.2,5.4,2.5,9.3,8.1,12.3c8.9,4.8,18.8,10.1,24.5,18c9.9,13.7,23.9,18.1,38.3,23.2
		c7.5,2.6,14.9,5.4,22,9c6.1,3,8.3,9.3,9.8,15.6c0.9,3.9,1.1,8,2.4,11.7c2.8,8.3,2.6,15.7-1.7,23.9c-2.6,4.9-1.6,11.6-2.3,17.9
		c-4.7,2.1-9.5,4.4-14.4,6.3c-8.2,3.2-12.7,8.3-10.6,17.6c0.2,0.9-0.1,1.9-0.3,3.5c-6.7-0.7-11.4,1.1-15.2,7.6
		c-2.4,4.1-9,6.5-14.3,7.9c-3.3,0.9-7.7-1-11.2-2.6c-5.9-2.7-11.5-4.7-18.2-3c-2.4,0.6-5.2-0.4-7.8-0.8c-8.4-1.2-10.8,1.5-14.3,9.2
		c-3.5,7.7-6.3,15.2-5.9,23.7c0.1,1.4-1.5,2.8-2.3,4.3c-1,2.1-3.2,4.5-2.7,6.2c3.2,11.9-5.4,21.6-5.5,32.8c0,1.9-1.5,4.3-0.8,5.7
		c2.3,4.5,0,7.8-2,11.1c-2.9,4.8-2.8,9.5-0.4,14.2c2.6,5.1,1.7,9.9,0.4,15.3c-1.6,7-1.5,14.4-1.4,21.7c0.1,5.9,1.3,11.9,2.2,19.2
		c-0.2,0.3-1.5,2.1-3.2,4.5c3.2,2.3,6.1,4.4,9.3,6.7c-5.3,6-7.7,12.9-7.4,20.9c0.1,3.6-1.1,7.2-2,10.7c-3,11.8-11.3,17.3-21.8,19
		c-2.9-5.4-5.1-11-8.4-15.7c-5.8-8.4-12.2-16.5-18.7-24.5c-3.5-4.3-6.8-9.2-14-7.1c-1.6,0.5-3.8-1-5.6-1.8c-1.9-0.7-3.7-2.5-5.4-2.3
		c-9.2,1.1-17.4-2.9-26-4.4c-4.3-0.8-8.3-1-11.9-3.9c-1.8-1.4-5.4-2.1-7.2-1.2c-6.6,3.3-11.7,0.3-16.7-3.1
		C3415.3,2303.2,3409,2298.4,3402.5,2293.6z"/>
	<path onclick="modal(this.id);" id="3264" class="st0" d="M3753.4,2457.6c-1.4-2.9-2.9-5.8-4.4-9c-2.9,0.6-5.4,1-8,1.5c-0.8-5.6-0.4-11.3-2.7-15.5
		c-2.2-4-7.5-6.3-12.7-10.3c-18.9,13-39.9,27.5-61.5,42.4c-1.4-2.3-2.9-4-3.7-6c-1.8-4.3-3.7-8.6-4.8-13.1
		c-3.4-13.6-9.7-25.8-17.3-37.6c-5.9-9.1-10.1-18.5-22-22.3c-8.2-2.6-13.1-10.1-16.8-18.6c-5.6-13.1-9.3-27-18.2-38.7
		c-5.9-7.7-8.9-11.4-16.6-15.3c-0.3-4-0.4-7.5-0.7-11c-0.4-3.8-1.5-7.6-1.5-11.4c-0.1-8.9-1.3-17.7,1.5-26.7c1.2-3.7,0-8.5-1.1-12.5
		c-1.5-5.4-1-9.9,1.1-15.3c2.4-6.2,2.4-13.4,3.6-20.1c0.8-4.5,2-9,2.8-13.6c0.7-4.1,1.2-8.3,1.6-12.5c0.1-1-0.5-2.3-0.1-2.9
		c7.1-10.8,5.1-24.3,10.8-35.4c1.1-2.1,4.9-4.1,7.3-3.9c10.7,0.9,21.9-2,32,5c4,2.8,9.4,2.1,14.2-0.7c5.9-3.5,13.3-4.9,14.9-12.5
		c4.8-0.8,8.8-1.4,12.4-2c0.6-1.6,1.1-2.2,1.1-2.8c-0.9-13.1-3.3-13.1,11.2-19.2c3-1.3,6-2.5,8.8-3.7c9.2,13.4,16.7,27.7,27.3,39.1
		c14.7,16,18.1,35.8,23.8,55.1c5.6,19.1,9.2,38.9,19,56.6c2.4,4.3,5.5,8.3,8.8,12c3.7,4.3,8.1,7.9,11.9,12.1
		c9.1,10.2,20.1,17.3,33.3,20.9c1.8,0.5,3.8,1.5,5.1,2.8c7.7,8.2,15.3,16.5,22.8,25c5.8,6.6,11.7,12.7,20.7,14.9
		c2.8,0.7,5.3,2.6,8.4,4.1c-1.3,10.1,3.3,18.6,6.8,27.6c1.7,4.2,2.4,10.5,0.4,14.2c-3.1,6-3.3,10.8,1.3,17.7
		c-13.9-4.7-27.5-2.9-38.6-11c-1.7-1.2-4.4-1.2-6.7-1.5c-7.2-1-14-3.1-21-5.6c-13.5-5-27.7-6.7-41.8-1c-4,1.6-8,3.2-12.1,4.6
		c-12.4,4.5-15.1,11-5.7,22.5c3.8,4.6,5.3,8.7,5.4,14.2c0.2,4.9,1.2,9.8,1.8,14.7c0.2,1.4-0.1,2.9-0.2,4.3
		C3754.7,2457.5,3754.1,2457.5,3753.4,2457.6z"/>
</g>
</svg>
