<?xml version="1.0" encoding="utf-8"?>
<!-- Generator: Adobe Illustrator 19.0.0, SVG Export Plug-In . SVG Version: 6.00 Build 0)  -->
<svg version="1.1" id="Layer1" xmlns="http://www.w3.org/2000/svg" xmlns:xlink="http://www.w3.org/1999/xlink" x="0px" y="0px"
	 viewBox="0 0 15000 7400" style="enable-background:new 0 0 15000 7400;overflow: hidden; display: inline; width: inherit; min-width: inherit; max-width: inherit; height: inherit; min-height: inherit; max-height: inherit;" xml:space="preserve">
<style type="text/css">
	.st0{fill:#8FD4EB;stroke:#000000;stroke-width:3;}
</style>
<g>
	
	<path onclick="modals(this.id);"  id="3127" class="st0" d="M7578.7,4295.1c-10.3-2.6-18.1-4.5-25.7-6.6c-23.9-6.6-48.3-10.2-72.9-9.8
		c-23.9,0.4-47.8,2.6-71.7,3.7c-19.9,0.9-39.9,1.3-59.9,1.9c-5.9,0.2-11.9,0-18.6,0c-1.3,4.7-3.2,8.4-3.1,12
		c0.3,15.9-1.8,31.9,1.8,47.8c1.3,5.7,0.9,12,0.4,17.9c-0.9,10.4,2.7,17.3,11.6,23.3c16.6,11.1,32,23.9,48.3,35.5
		c6.8,4.9,11.1,10.6,13.3,18.9c17.2,62.9,34.9,125.7,52.4,188.5c0.9,3.1,1.4,6.3,2.2,10.4c-14.7,2.6-28.6,1.3-42.4,1.3
		c-13.3,0-26.6-1.2-39.9-1.5c-13.8-0.3-27.7-0.9-42.4,0.8c-2.1,29.2-4,56.8-6,84.6c-3.8,0.9-6.3,1.9-8.9,2
		c-25.3,0.8-50.6,1.8-75.8,2c-38.7,0.3-77.3-0.1-116,0.2c-9,0.1-16.8-1.9-24.5-6.7c-19.2-12-37.9-24.4-55.3-39.2
		c-19.2-16.3-40.5-30.3-60.9-45.2c-7.5-5.5-15.2-10.8-23-16c-3.2-2.1-6.9-3.6-11.3-5.9c-10.9,16.8-21.3,32.7-21.3,54
		c-55.2,39.2-110.5,78.5-166.5,118.4c-18.1-10.2-35.1-22.1-57.3-26.3c-14,3.7-24.9,17.7-41.9,20c-0.7-3.1-1.3-5.6-1.8-8.2
		c-5.5-29.9-5.2-30.2-25.8-51.7c-8.6-9-14.8-20.7-27.8-27.2c-12.8,9.8-26,19.9-39,29.9c-7.9,6.1-16.2,11.8-23.4,18.6
		c-8.4,8-17.9,10.2-29.1,9.8c-26.6-1-53.3-1.3-79.9-1.7c-6.6-0.1-13.2,0.4-19.5,0.6c-1.7,2.2-3.2,3.7-4.1,5.3
		c-11.6,21.5-11.6,21.5-4,44.6c2.5,7.6,4.9,15.2,7.6,23.6c-8.9,11.5-21.1,19.6-31.9,29.3c-9.4,8.4-19.5,16.2-29,24.4
		c-4,3.4-7.4,7.5-10.8,11c1.2,8.2,7.2,11.9,12.1,16.1c72.7,62.3,145.6,124.5,218.4,186.8c4,3.4,7.4,7.4,11.9,12
		c-3.8,4.5-6.8,8.7-10.5,12.2c-34.2,33.6-68.5,67.1-102.7,100.8c-16.6,16.4-32.9,33.1-49.5,49.4c-37,36.5-74.1,72.9-111.3,109.2
		c-8.2,8-14.3,17-19.1,27.6c-21,46.1-43,91.6-64.1,137.6c-5.2,11.3-12.2,20.4-22.4,27.2c-3.9,2.6-7.7,5.4-11.1,8.5
		c-7.2,6.7-15.3,10.3-25.3,9.8c-6.8-0.3-13.2,1.6-18.8,5.7c-23.6,17.7-50.8,29.1-75.8,44.4c-39.4,24-82.1,41.2-122.9,62.4
		c-4.1,2.2-8.2,4.6-12.5,6.2c-6.5,2.4-9.1,7.4-10.4,13.5c-0.6,2.6-0.5,5.3-0.9,7.9c-2,14.2-6.4,27.2-18.3,36.5
		c-7.1,5.5-10.7,13.3-13.4,21.7c-8.5,26-15,52.3-19.5,79.4c-16.1,97.1-32.7,194.2-49.1,291.2c-16.2,95.8-32.5,191.6-48.8,287.4
		c-15.8,93.1-31.8,186.2-47.7,279.3c-14.8,86.6-29.4,173.2-44.3,259.7c-0.7,4.3-2.7,8.3-4.5,13.7c-9.8-6.4-15.1-15.1-21.4-22.5
		c-57.6-67.2-114.9-134.6-172.2-202c-51.7-60.8-103.4-121.7-155.2-182.5c-65.6-77-131.3-153.8-196.8-230.8
		c-56.1-65.9-112-131.9-168-197.7c-61.2-71.9-122.4-143.9-184-215.5c-19.9-23.2-41.2-45.2-61.6-67.9c-23.5-26.2-46.8-52.7-70.2-79.1
		c-24.3-27.4-48.5-54.8-72.7-82.2c-28.6-32.4-57.1-64.9-85.8-97.3c-23.3-26.4-46.8-52.7-70.2-79.1c-22.5-25.4-45-50.8-67.9-76.7
		c2.8-6.5,8.1-10.5,12.9-14.7c57.8-51.2,115.6-102.3,173.4-153.3c16.5-14.5,32.9-29,49.5-43.4c7.7-6.7,13-14.4,17.3-23.9
		c41-91.8,82.6-183.3,124-274.9c4.7-10.3,9.7-20.4,14.9-31.3c14.7-3.8,29.4-8,44.3-11.4c5-1.1,10.5-0.7,15.6,0
		c34.3,5,68.9,6,103.5,6.1c2.7,0,5.3,0.1,8-0.1c9.3-0.8,13-3.5,15.3-12.8c3.7-14.8,6.8-29.9,10.2-44.8c5.5-24,10.9-48,16.6-72
		c1.5-6.2,1.5-11.3-3.1-16.6c-3.3-3.9-5.2-9.1-7.2-14c-8.3-20.6-12.8-41.8-8.1-64c1.8-8.2,0.1-15.8-3.6-23.2
		c-6.1-12.6-11.7-25.4-18.6-37.6c-4.1-7.3-5.9-14.6-5.6-22.8c0.3-8,0.3-16,0-24c-0.4-11.9-1.3-23.8-2-37.4c1.8-1.3,4.8-4,8.2-5.6
		c70.9-33.9,141.9-67.5,212.8-101.4c66.1-31.6,132.1-63.3,198.1-95c55.8-26.8,111.6-53.7,167.4-80.6
		c55.8-26.9,111.6-53.8,167.4-80.6c67.2-32.3,134.5-64.5,201.8-96.7c3.5-1.7,7.3-2.6,10.6-3.7c1.5,1.8,2.8,2.6,3.1,3.8
		c3.9,14.8,11.7,25.3,26.2,32.8c12.5,6.5,19.2,20.5,21.5,34.5c1.7,10.5,6.3,18.5,12.7,26.4c12.1,15,23.4,30.7,35.2,45.9
		c12.3,15.9,28.6,27.8,44,40.4c5.3,4.4,13.2,6.1,20.2,7.9c34.4,8.7,26.1,5.2,41.6,31.7c5.3,9.1,11.3,16.3,20.7,20.6
		c7.6,3.4,13.8,7.8,16.7,16.1c2.8,8.1,8.8,11.4,17.1,10.6c8.8-0.9,15.4,3.2,21.5,8.8c8.1,7.4,17.5,11.8,28.4,13.6
		c6.5,1.1,12.9,3.5,19.5,4.5c7.2,1.1,14.6,2.1,21.7,1.5c23.2-2.2,46-6.9,68.6-12.8c12.9-3.4,25.3-8,36.5-15.7
		c7.6-5.3,15.5-10.1,23.7-13.6c8.8,4.7,8.6,12.2,8.5,19.4c-0.1,10.1,1,19.4,5.6,29c6.8,14,16.2,24,31.5,29.9
		c9.5-2.8,19.7-5.6,29.8-8.9c11.4-3.7,22.7-7,35.1-6.7c5.6,0.2,11.7-2.5,16.8-5.3c33.8-18.6,67.4-37.6,101.1-56.6
		c2.9-1.6,5.8-3.3,8.5-5.2c4.5-3.3,5.3-7.8,1.7-12c-4.3-5.1-9.1-9.7-13.4-14.8c-2.4-2.9-4.1-6.3-6.7-10.3c3.1-1,4.8-2,6.6-2.1
		c64.7-2,180.3-1,198.8,1.9c1.8,14.5,3.6,29.4,5.4,44.3c2.4,0.9,4.2,2.4,6,2.3c56.4-2.7,112.7-5.4,170.1-8.3
		c5.6-29.1,3.2-57.5,4.2-85c5.3-2.9,7.5,0.1,9.5,2.5c11.5,13.8,22.8,27.7,34.6,42c17.6,0,34.9,0.2,52.1-0.1
		c10-0.1,19.9-0.9,29.9-1.3c35.2-1.5,70.4-2.9,105.6-4.5c1.9-0.1,3.7-1.2,6.1-2.1c2.6-11.8,1.2-23.8,0.9-35.6
		c-0.1-2.9-2.2-6.3-4.3-8.6c-5.3-6-11.1-11.5-16.8-17.1c-17.3-16.9-25.1-37.2-23.1-61.4c1-12,3.9-22.7,10.6-33.4
		c10.5-16.8,19.3-34.8,25.2-54.2c3.8-12.6,9.5-24.7,13.9-36.2c11.1-5.6,21.7-6.5,32.3-6.6c68-0.1,136-0.1,204,0c2.6,0,5.2,0.6,9.1,1
		c-4.8,14.8-13.4,27.4-16,42.7c-2.5,14.6-3.7,28.7-2.1,43.6c7.7,3.1,15.1,1.9,22.3,1.9c63.3,0.1,126.7,0,190,0.1
		c7.2,0,14.5-1,21.2,1.5c3,15.7,3.3,67.3,0.5,87.4c-4.8,0.5-9.9,1.6-14.9,1.4c-22.5-0.7-41.5,9.3-59.5,20.6
		c-8.7,5.4-14.6,15.2-16.6,26.4C7583.7,4272.4,7581.3,4282.7,7578.7,4295.1z"/>
	<path onclick="modals(this.id);"  id="3128" class="st0" d="M7585.3,4305.3c2.9-13.9,5.6-24.8,7.5-35.9c2.5-15,10-25.8,24-31.9c9.2-4,18.2-8.3,27.6-11.5
		c5.5-1.9,11.7-2,17.6-2.6c7.2-0.7,14.6,1,22.6-2.1c3.4-10.2,1.4-20.9,1.8-31.3c0.3-10,0.1-20,0.1-30c0-10.6,0-21.2,0-32.1
		c12.8-5.7,25.6-5.2,37.8-6.9c46.1-6.5,92.3-12.1,138.4-18c0.7-0.1,1.3,0,2-0.2c23.2-4.9,21.7,0.9,30.2-24.7
		c7.7-23.5,24.8-38.5,47-50.8c1,4.1,2.2,7,2.5,10c1,8.6,0.7,17.4,2.6,25.8c2.7,12.2,1.4,23.7-2.8,35.3c-1.8,4.9-3.2,10.3-3.5,15.5
		c-1.1,19.9-2.2,39.9-2.3,59.8c-0.8,93.3-1.4,186.6-2,279.8c-0.1,7.9,0,15.9,0,23.8c11,5.2,21.4,5.9,32,5.8c32.7-0.1,65.3-0.2,98,0
		c24.6,0.2,49.3,1,73.9,1.7c1.9,0,3.8,0.8,6.9,1.4c0.7,4.2,1.9,8.6,1.9,13.1c0.2,25.3,0.1,50.7,0.1,76c0,70,0,140,0,210
		c0,7.3-0.3,14.5-0.4,21.7c-20.8,8.7-41.9,3.9-62.2,6.6c-20.3,2.7-40.9,2.3-62.3,3.3c-2.7,12.6-3.7,24.5-4,36.2
		c-1.1,41.9-1.2,83.9-2.1,125.8c-1,40.6-2.6,81.1-3.9,121.7c0,1.3,0,2.7-0.1,4c-0.8,45.9-1.4,91.9-2.4,137.8
		c-0.5,23.2-1.7,46.5-2.6,70.6c-4.1,0.8-7.9,2.2-11.6,2.2c-29.3,0.2-58.7,0.4-88,0c-17.3-0.2-34.5-1.6-51.8-2.4
		c-3.3-0.2-6.7-0.2-10,0.1c-10.4,0.8-14.6,4.4-15.6,14.5c-1.7,18.5-3.1,37.1-4.4,55.7c-0.7,9.9-1.3,19.9-1.6,29.9
		c-0.1,2.6,0.8,5.2,1.1,6.9c8.3,10.2,20.5,5.9,31.5,10.2c-2.1,3.1-3.3,5.4-5,6.9c-2.9,2.7-6.1,5.2-9.5,7.2
		c-13.7,8.5-20.7,19.8-18.6,36.6c1.1,9.2,0.4,18.6,0.2,28c-0.7,39.3-1.5,78.5-2.4,117.8c-0.4,20-1.3,39.9-1.6,59.9
		c-0.1,10-1.5,19.7-5,30.4c-12.9,1-26,2.6-39.2,2.9c-35.9,0.9-71.9,1.2-107.9,2.1c-7.9,0.2-15.9,1.8-23.7,3.4
		c-69.9,14.1-138.7,32.8-207.7,50.4c-7.7,2-15.6,3.6-23.2,5.8c-9.8,2.8-12.6,5.7-12.6,15.3c0,16.6,0.9,33.2,1.4,49.8
		c0.1,4,0.7,8,0.8,11.9c0.1,27.3-0.2,54.7,0.1,82c0.1,9.1-2.3,16.7-7.8,24c-17.3,22.8-34.2,46-51,69.1c-4.4,6.1-10,10.4-16.4,14.3
		c-55.4,34.6-110.7,69.3-165.9,104c-11.3,7.1-22.5,14.3-33.8,21.4c-2.7,1.7-5.8,2.7-9.3,4.3c-6.3-8.9-4.8-18.7-6-27.5
		c-4.2-30.3-7.4-60.7-10.6-91.1c-2.1-19.9-2.9-25.8-27.7-21c-34,6.6-67.8,14-101.8,20.1c-14,2.5-26.7,7.5-39.3,13.8
		c-48.3,24.1-96.7,47.9-145.1,71.7c-29.3,14.4-58.7,28.5-87.9,43.1c-8.2,4.1-15.7,5.1-24.7,2.5c-39.1-11-78.4-21.3-117.6-31.8
		c-10.9-2.9-21.8-6.1-32.8-8.8c-11.6-2.8-22.2-2-30.9,8c-4.3,4.9-10.3,8.3-15.7,12.2c-14.8,10.6-15.6,15.6-4.4,30.8
		c3.5,4.8,7.2,9.5,11,14.2c14.6,18.1,29.3,36.2,43.9,54.4c2.4,3,4.1,6.7,6.3,10.4c-18.3,9.2-36.3,8.9-54.9,3.7
		c-25.8-7.2-52.2-9.4-78.9-8.9c-13.3,0.2-26.7-0.1-40,0.3c-17.9,0.5-35.9,1.5-53.8,2.2c-11.1,0.4-18.1,7.3-24.6,15.2
		c-15.3,18.5-30.5,37-45.9,55.3c-63,74.8-126.2,149.4-189.3,224.2c-82.7,98.2-165.3,196.5-248,294.8c-30,35.6-60.1,71.2-90.3,106.6
		c-3.3,3.8-5.9,8.9-12.8,10.7c0.2-3.8,0.2-6.9,0.7-9.8c10.2-59.7,20.4-119.4,30.6-179.1c12.9-75.4,26-150.8,38.7-226.2
		c14-82.7,27.6-165.4,41.7-248c12.6-74.1,25.8-148.2,38.4-222.3c9.9-57.7,19.3-115.4,29-173.2c4.5-26.9,8.2-54,14-80.6
		c4.5-20.7,11.5-41,18.1-61.2c1.5-4.8,5.1-9.6,9.1-12.7c12.5-9.8,18-23.3,19-38.2c0.7-11,5.9-16.5,15.1-21
		c31.8-15.4,63.5-31,94.8-47.4c30.7-16,60.8-33.1,91.2-49.8c3.5-1.9,6.8-4.2,9.9-6.7c9.1-7.4,19-12.1,31.1-11.4
		c7,0.4,12.8-2.9,18.2-7.2c8.4-6.6,16.6-13.4,25.2-19.7c6.3-4.6,9.4-11.1,12.5-17.7c11.6-24.7,23-49.5,34.5-74.2
		c11.5-24.7,23-49.5,34.8-74.1c2.6-5.3,5.9-10.5,10-14.8c11.5-12.1,23.3-23.8,35.3-35.4c11-10.7,22.5-20.8,33.4-31.6
		c35-34.8,69.7-69.8,104.7-104.6c31.7-31.4,63.8-62.5,95.7-93.7c3.8-3.7,7.7-7.4,11.2-11.4c4.3-5,4-9.1-1.4-13.7
		c-28.7-24.8-57.5-49.4-86.3-74.1c-48-41.1-96-82.2-144-123.4c-2.4-2.1-4.4-4.5-7.5-7.7c22.4-23,48.5-40.5,70.3-62.7
		c-2-17.3-11.1-31.8-14.7-48.5c2.8-6.4,5.7-13.1,8.9-20.2c18.7-3,37.4-1.3,55.9-1.3c14.6,0,29.3,0.2,43.9,1.5
		c12.4,1.1,21.8-3.5,30.9-11c11.2-9.4,22.8-18.4,34.3-27.4c7.3-5.7,14.8-11.1,23.2-17.4c7.9,8.7,14.7,17.9,23.2,25
		c15,12.6,19.8,29.1,21.9,47.3c0.6,5.2-0.1,10.9,6.1,15.1c10.1-0.9,19.2-6.1,28.3-11.4c20.2-11.8,21.1-11.9,42.1-1.8
		c4.8,2.3,9.2,5.4,13.7,8.2c5.6,3.4,11.2,6.9,17.3,10.6c4-2.3,7.6-3.9,10.7-6.2c50-35.4,100-70.8,150-106.3c2.7-1.9,5.3-4.1,8-6.1
		c5.1-3.7,8.5-8.2,8.2-15c-0.7-14.2,7.5-24.8,14.9-37.3c6.4,3.8,12.2,6.8,17.4,10.6c29.1,21.1,58.8,41.3,86.4,64.6
		c14.1,11.9,30.9,20.7,46.9,30.2c4.3,2.5,10.1,3.3,15.2,3.4c60,0.2,120,0.3,180,0c11.2-0.1,22.4-1.9,34-2.9
		c5-28.2,4.1-56.1,6.7-84.2c11.2-4,21.7-2,32.2-1.9c30,0.4,59.9,0.6,89.9,0.8c1.2,0,2.5-0.9,3.7-1.4c3.3-5.3,0.5-10.3-0.9-15.3
		c-10.3-37.2-20.7-74.4-31.1-111.6c-7.7-27.6-15.7-55-23.1-82.7c-2.5-9.5-6.8-16.8-15.2-22.4c-12.7-8.6-24.8-18-37.1-27.2
		c-6.9-5.1-13.7-10.4-21-16c2.1-25.6-5.1-50.5-1.5-76.8c4.3-0.7,8-1.8,11.8-1.9c20.6-0.7,41.3-0.9,61.9-1.8c21.9-1,43.8-3,65.7-3.7
		c27.5-1,54.3,3.9,80.7,11.4C7564.6,4301,7573.6,4302.6,7585.3,4305.3z"/>
	<path onclick="modals(this.id);"  id="3129" class="st0" d="M7947.2,4472.2c-1.6-3.5-2.1-4.1-2.1-4.7c0-39.3,0.1-78.6,0.2-117.8c0-6,0.7-12,0.7-17.9
		c0.1-26-0.2-52,0.1-78c0.6-43.9,1.3-87.9,2.4-131.8c0.2-7.2,2.1-14.5,4.3-21.3c3.8-11.7,4.3-23.4,2.9-35.5c-1.7-14.5-2.7-29-4-43.9
		c14.3-7.8,27.9-14.4,43.6-14.6c55.9-0.8,111.9-1.6,167.8-2.4c15.3-0.2,30.7,0.5,46-0.2c8.9-0.4,15.5,2.6,20.9,9.2
		c3.3,4.1,6.5,8.4,9.3,12.8c5.4,8.4,10.4,17,15.6,25.3c9,3.1,17.6,0.3,26-1c40.1-5.9,80.1-12.4,120.3-18.1
		c13.4-1.9,26.5-4.2,37.7-11.8c14.3-9.7,28.6-8.3,43.6-2.7c22.6,8.4,44.1,19.1,64.2,32.2c9.6,6.3,19.4,8.4,30.3,6.8
		c11.8-1.8,23.6-4.1,35.4-6.3c8.2-1.5,14.5-5.4,19.3-12.7c7.7-11.7,16.7-22.5,24.3-34.2c6.3-9.6,14.6-13,25.4-11.5
		c3.9,0.5,8.1,0.8,11.8,2.2c16,5.8,32.5,6.8,49.4,5.8c4.9,3.7,9.3,7.7,14.3,10.8c5.1,3.2,10.9,5.2,15.9,8.3
		c10.7,6.7,21.3,13.6,31.6,21c7.4,5.2,14.3,8.6,24,5.6c6.1-1.9,13.2-0.4,19.9-1c4.4-0.4,8.8-1.6,14.5-2.6
		c-1.3-5.5-1.8-10.1-3.5-14.1c-10.2-23.2-20.6-46.2-31-69.2c-3-6.6-7.1-12.8-6.5-21.9c52-32.3,105-64.2,159-96.9
		c11,20.7,15.8,43.1,26.8,62.9c2.7,0,4.7,0.4,6.6-0.1c29.2-6.5,58.5-13,87.8-19.6c9-10.9,9.1-26.8,20.8-36c11.8,1.8,20,7,23.2,18.9
		c2.4,8.9,10.1,14,16.4,19.7c11.3,10.3,23.4,19.6,34.9,29.7c2.8,2.5,5,6.1,6.6,9.6c10,22.3,9.6,45.2,3.5,68.4
		c-2.2,8.4-5.4,16.5-7.7,24.8c-1.4,5-3.4,10.3,1.2,16.3c21.8-6.7,44-13.5,66.2-20.4c15.3-4.7,30.3-10.3,45.7-14.4
		c17-4.5,32.9-11.1,47.3-20.9c13.5-9.2,27.3-9.6,41.6-3.7c16,6.6,31.8,13.6,47.5,21c9.3,4.4,18.3,5.6,28.8,4.4
		c17.8-1.9,35.6-1,53.4,3.7c41.3,10.8,81.9,23.7,122.1,37.8c15.6,5.5,31.2,5.6,47.2,4.4c17.2-1.3,34.5-2.3,51.7-3.3
		c2.6-0.1,5.2,0.5,9,0.9c0.8,3.7,2,7.4,2.3,11.1c0.4,5.3,0.2,10.7,0.2,16c0,252,0.1,504-0.2,755.9c0,25.9-2.5,51.8-3.8,77.7
		c-0.7,14.6-1.3,29.2-1.8,43.9c-0.9,23.3-1.5,46.5-2.5,69.8c-0.6,14.6-1.6,29.1-2.5,44.7c-5,0.7-9.4,1.9-13.8,1.7
		c-11.7-0.5-21,4-27.6,13.2c-11.5,16.2-27.7,26.5-43.9,37.2c-12,7.9-23,9.5-34.2-1.2c-2.9-2.7-6.7-4.4-9.8-6.9
		c-6.4-5-11.1-11.1-13.6-19.2c-7.3-23.1-24.4-37.4-44.8-48.3c-3.9-2.1-9.1-3.7-13.3-3.1c-15.7,2.3-31.7,2.9-46.8,9.3
		c-17.1,7.3-34.9,13.2-52.4,19.6c-3.7,1.4-7.6,2.5-11.5,3.1c-7.1,1-11.7-2.7-12.2-9.8c-1.6-23.9-2.4-47.8-4.6-71.6
		c-2.2-24.5-5.2-48.9-8.5-73.3c-1.4-10.5-4.5-20.7-6.9-31.1c-1.6-6.9-5.9-11.6-12.3-14.8c-7.1-3.6-14-7.7-20.9-11.7
		c-5.2-2.9-10.9-5.3-15.4-9.1c-10.4-8.9-23-13.6-35.4-18.2c-7.2-2.7-15.7-2.8-23.6-2.7c-19.9,0.1-39.8,1.4-59.6,1.4
		c-10.3,0-19.7,2-28.8,6.8c-9.1,4.7-18.3,7.8-28.6,2.8c-4.9-2.4-10.5-1.6-15.4,1c-17.1,8.9-34.6,17.1-51.2,26.9
		c-8.8,5.2-13,14.6-14.7,25c-3.7,23.7-8.9,47-17.8,69.4c-3.9,9.8-6,20.4-8.6,30.7c-3.6,14.2-6.8,28.5-10.4,42.7
		c-2.6,10.3-1.9,19.9,5.8,27.9c7.3,7.6,10.5,15.8,9.5,26.9c-0.8,8.1,2.8,16.7,4.8,27.1c-2,1.5-5.2,5-9.1,6.6
		c-6.1,2.5-12.6,4.4-19.2,5.4c-33.4,5.1-57.5,23.3-74,52c-8.6,15-16.1,30.6-24.2,45.8c-4.7,8.8-10.8,17-14.3,26.1
		c-7.1,18.6-19.9,32.5-33.9,46c-4.5,4.4-7.3,11-9.7,17.1c-4.1,10.5-11.3,17.7-20.7,23.4c-13.1,7.9-25.8,16.6-39.1,24.1
		c-10.3,5.7-17.8,13.8-24.3,23.2c-15.6,22.4-31.1,44.9-47,67.1c-7.3,10.3-15.5,19.9-23.2,30c-6,7.7-14.1,12-23.1,14.9
		c-11.8,3.8-22.4,0.9-29.6-9.5c-20.9-30.1-41.4-60.5-62-90.8c-13.5-19.8-26.9-39.7-40.3-59.6c-1.1-1.7-2.3-3.3-3.4-4.9
		c-5.7-8.4-13.2-12-23.6-11.7c-24,0.6-48,0.3-72,0.2c-69.3-0.4-138.7,1-207.9-2c-63.3-2.8-126.5-0.7-189.8-2
		c-22.6-0.5-45.3-1-67.9-1.6c-2.6-0.1-5.1-0.7-8.3-1.2c-3.3-7.2-1.9-14.6-2.1-21.7c-0.2-6.6,0.1-13.3,0.4-20
		c0.4-8.6,1.2-17.3,1.3-25.9c0.8-45.3,1.4-90.5,2.3-135.8c0.5-25.9,0.3-52,2.1-77.8c2.1-30,1.5-59.9,2-89.8
		c0.4-26.6,1.1-53.2,2-79.8c0.4-11.9,1.8-23.8,2.8-37c21.2-3.1,42.5-1.9,63.3-4.5c20.3-2.5,41.4,2.3,61.7-6.6
		c0.4-4.5,1.1-9,1.2-13.6c2-116.5,1-302.1-1.8-323c-4-0.6-8.4-1.8-12.8-1.8c-52.6-0.6-105.3-1-157.9-1.8
		C7972.1,4474.6,7959.6,4473.1,7947.2,4472.2z"/>
	<path onclick="modals(this.id);"  id="3109" class="st0" d="M8549,1435.3c-1.7-12.2-3-86.9-1.6-95.8c0.6-3.8,2.2-7.5,3.6-11.9c5-0.5,9.5-1.4,14-1.4
		c68.6-0.8,137.3-0.1,205.8-2.5c56.6-2,113.2-0.7,169.9-1.9c11.9-0.2,23.8-2.4,35.6-4.1c8-1.1,13.3-5.7,15-14c2-9.7,5-19.4,5.8-29.2
		c2-26.5,2.9-53.1,4.4-79.6c0.3-5.9,1.6-11.8,2.6-18.8c9.7-1.2,18.8-3,28-3.3c21.3-0.9,42.6-1,63.9-1.7c8.9-0.3,17,2,25.2,5.1
		c16.1,5.9,22.5,1.6,23.1-15.3c0.9-23.9,1.4-47.9,1.9-71.9c0.9-41.3,1.6-82.5,2.3-123.8c0.1-4-0.3-8,0.1-12c0.7-8.2-3-14.1-9.1-18.9
		c-5.3-4.1-10.7-7.9-16-11.9c-14.9-11.2-29.7-22.5-44.7-33.9c-2.6-14-4.6-27.7-4.3-41.7c0.4-16,0.4-32,0-48
		c-0.4-15.4,0.1-30.7,4.7-45.4c3.2-10.3,1.4-19.7-2.2-29.2c-3.7-10-8.1-19.8-11.2-29.9c-4.8-15.9-8.5-32.2-13.3-48
		c-2.4-7.8-1.1-13.8,3.3-20.5c14.1-21,26.5-43.3,41.6-63.5c18.8-25.2,17.1-67.3-3.4-90.9c-2.2-2.5-4.6-5.1-5.8-8.1
		c-8.1-20.2-15.9-40.6-24.2-61.8c3.8-0.5,6.3-1.2,8.8-1.2c53.3-0.8,106.5-1.5,159.8-2.4c20.6-0.3,41.2-1.1,61.9-1.8
		c4.6-0.2,9.4-0.5,13.8-1.7c10.4-3,19.6-0.6,28.4,5.1c16.8,10.9,33.8,21.3,50.4,32.4c16.1,10.8,32.6,20.7,50.9,27.3
		c4.4,1.6,8.9,3.1,12.9,5.4c13,7.7,27.3,10.7,41.9,11.8c41.1,3.3,82.2,5.9,123.5,1.8c17.2-1.7,34.6-0.6,52-0.5
		c26.3,0.1,51.6-4.4,76-14.4c25.8-10.6,52.7-13.1,80.2-9.2c2.6,0.4,5.2,1.3,7.8,1.3c33.6,0.3,59.4,16.9,82.4,39.2
		c3.3,3.2,6.8,6.4,9.9,9.9c14,16.3,31.7,26,52.8,29.8c3.2,0.6,6.4,1.7,10.5,2.7c5.5,8.5,11.5,17.2,17.1,26.3
		c8.3,13.7,20.4,20.8,36.2,20.7c12.6-0.1,25.2,1.5,37.6-2.8c12.7-4.3,22.6,3.9,29.7,12.1c12.7,14.5,24.3,30.3,31.1,48.6
		c3.6,9.7,8.6,17.9,16.4,24.5c37,31.5,51.6,74.8,62.6,119.9c0.3,1.3,0.5,2.6,0.8,3.9c3.7,18.5,15.7,30.5,34.4,33.3
		c12.5,1.9,25.1,3,37.6,4c18.6,1.5,34.8,7.9,48.5,20.8c5.3,5,11.2,9.4,16.7,14.2c10.7,9.4,23.2,16.1,36.6,19.9
		c12.9,3.7,22.5,10.8,31.6,19.8c5.6,5.6,12,10.4,18.4,15.1c10.2,7.4,21.7,6.6,32.3,2.4c22.2-8.8,44.1-18.6,66-28.4
		c6.6-3,13-6.8,18.8-11.1c7-5.2,14.4-6.8,22.5-4.2c10.2,3.2,20.6,6,30.2,10.4c14.1,6.4,23,17,24.3,33.6c1.4,18,1.8,35.9-1.2,53.7
		c-0.9,5.2-1,10.6-1.5,15.9c-1.2,13.2-2.5,26.5-3.7,39.7c-0.6,6-1.6,11.9-1.9,17.9c-0.9,19.8-9.2,35.3-24.8,47.8
		c-11.4,9.1-21.6,19.7-26.3,34.5c-2.2,6.8-2.6,13,1.3,19.1c3.2,5,6.6,9.9,10.1,14.8c5.8,8,13.8,14.4,16.6,24.6
		c0.6,2.3,3.1,4.2,5.1,5.8c3.7,2.8,7.5,5.6,11.6,7.8c11.7,6.3,17.4,15.7,15.8,30.7c-3.8-1.4-7.7-1.9-10.5-3.9
		c-21.1-15.3-41.1-11.5-60.8,2.8c-5.3,3.9-10.9,7.3-17,11.4c-4.3-2.8-8.1-5.4-12-7.6c-11-6.3-21.4-6.5-30.9,3.2
		c-6,6.1-12.4,11.8-19.4,18.5c-5.9-10.4-15.9-11.6-25.5-14.4c-7.9-2.3-14.4-1.1-20.6,3.7c-11.6,9.1-21.7,19-26.7,33.9
		c-6.5,19.5-14.4,38.6-25.9,55.8c-1.7-0.5-3.4-0.4-3.9-1.1c-4.3-5.8-7.6-13.2-16.2-13.4c-10.2-0.1-19.8,2.7-28.2,8.5
		c-7.1,4.9-13.4,10.9-20.3,16.1c-24.1,18.1-51.3,30.7-78.4,43.5c-8.5,4-16.8,7.5-23.2,14.9c-7.6,8.8-18.7,12.7-29.4,16.2
		c-20.2,6.8-40.6,12.9-61.1,18.4c-6.2,1.7-13.2,1.7-19.6,0.7c-11.4-1.8-19.2-8.4-21.4-20.6c-1.1-5.9-3.6-11.6-4.2-17.5
		c-1.6-15-9.4-27.6-15.2-41c-3.5-8.1-9.4-11.7-18.8-11.8c-22.6-0.4-22.6-0.8-23.7-23c-0.1-1.3-0.5-2.6-0.9-4.9
		c-2.9-1.5-6.3-3.4-9.9-4.9c-11.7-4.8-23-9.9-33.7-16.9c-9.8-6.4-21.9-9.2-33.2-13.2c-4.3-1.5-9-2-13.5-3c-2-4.7-3.7-8.9-5.5-13.1
		c-2.1-0.6-4-1.7-5.9-1.7c-11.3-0.2-22.7-0.3-34-0.4c-8.7-0.1-17-0.1-24.8,5.6c-3.9,2.9-10,3.1-15.2,3.9
		c-8.8,1.3-16.7,3.8-22.9,10.7c-6.3,6.9-14.9,8.6-23.8,8.2c-10.8-0.4-21,1.5-31.1,5.7c-12.9,5.4-26,5.1-38.5-2
		c-2.9-1.6-6.3-2.6-8.9-4.6c-16.4-12.4-35.9-12.5-55.1-13.9c-8.3-0.6-16,0.8-22.4,6.4c-6.6,5.7-14.4,6-22.6,6
		c-34.7-0.1-69.3-0.1-104,0c-6.5,0-13.1,0.5-19.9,0.8c-6.7,31.4-1.9,62.1-4.8,92.6c-9.5,4.5-18.9,2.6-28,2.3
		c-26.6-1-53.2-1.6-79.7-3.9c-25.2-2.2-50.5-0.4-75.7-3.3c-22.3-2.5-45.1-1.3-67.4-1.7c-5.2,5.2-5.7,11-5.9,17
		c-0.5,12.6-1.1,25.3-2,37.9c-0.2,3.1-1.8,6-2.9,9.5c-8.3-2.1-13.4-7.7-19.5-11.3c-5.1-3-10.1-6.4-15.6-8.7
		c-11.6-4.9-23.2-5.9-34.1,2.3c-9.6,7.2-20.5,8.2-32.1,8.2c-42,0.1-83.9,0.9-125.9,1.6c-5.9,0.1-11.8,1.4-17.8,2
		c-5.8,0.6-11.2-0.6-13.5-6.2c-3.8-9.2-11.3-12.7-19.8-14.9c-21.9-5.7-43.8-11.4-65.7-16.7c-3.7-0.9-8-0.4-11.8,0.3
		c-23.7,4.5-47.4,4.9-71.3,0.8c-13.1-2.2-26.4-3-39.6-4.1c-6-0.5-12.1-0.9-18,0c-21.9,3.6-43.9,1.8-65.8,2.1
		c-18.6,0.2-37.1,1.7-55.8-0.1c-12.2-1.2-23.1,3.1-33.1,11.2C8581,1421.1,8566.4,1429.1,8549,1435.3z"/>
	<path onclick="modals(this.id);"  id="3126" class="st0" d="M7450.1,4116c-1.1-23.3,3-43.2,12.6-61.8c2.7-5.3,6.5-10.1,9-15.5c1.3-2.7,0.8-6.1,1.3-10.6
		c-20.3-1.5-39.6-0.6-58.8-0.8c-18.7-0.2-37.3,0-56,0c-19.3,0-38.7,0-58,0c-18.6,0-37.2,0-56.9,0c0.5-19.4,4.6-35.3,23.3-44.2
		c-2.9-4.9-4.3-8.6-6.8-11.3c-4-4.4-8.6-8.4-13.1-12.3c-18.5-16.3-35.2-34.2-48.6-55c-14-21.8-28.3-43.6-42.8-65.9
		c1.7-4.4,3.1-8.7,5.1-12.8c13.5-28.2,27.1-56.5,40.9-84.6c4.1-8.3,9.1-16.1,15.3-26.9c0.5-3.6-2.1-9.7-5.3-15.5
		c-2.9-5.2-6.4-10.1-9.6-15.1c1-6,8.1-9.1,6.4-16.2c-1.7-7-5.7-12.2-11.1-16.1c-11.8-8.6-23.8-17-36.1-25c-5.8-3.8-8.1-8.5-7-15.5
		c5.3-6.3,13.6-7.6,20.8-10.4c47.9-18.3,95.9-36.2,143.9-54.4c7.4-2.8,14.7-6.1,21-8.8c4-5.5,2.7-9.8,0.8-14.2
		c-6.4-14.6-12.9-29.1-19.1-43.2c11.7-15.4,11.7-15.4,41.9-21.4c6.6-13.5,7.9-28.5,11-44.8c-6.9-0.8-12-1.8-17.1-1.8
		c-33.3-0.1-66.7-0.1-100,0c-8.7,0-17.3-0.1-26.3-5.4c-1.7-53.2-0.4-106.9,3.2-160.7c8-6.6,16.9-10.7,26.8-13
		c12.3-2.8,24.6-5.9,36.8-9.1c5.7-1.5,11.2-3.6,15.9-5.1c4.6-8.1,2.9-15.6,2.9-22.8c0.1-56,0.1-112,0.1-168c0-7.3,0-14.5,0-22.4
		c4.5-1.8,7.9-4,11.6-4.5c54-8,107.9-15.9,161.9-23.7c5.2-0.7,10.5-0.7,16.6-1.1c4.2,6.1,8.3,12,12.2,17.7
		c-3.6,10-10.3,16.5-17,22.9c-5.7,5.5-8.1,11.8-7.8,19.7c0.2,5.7,1.8,10.3,6.1,14.1c7,6.1,14.3,11.8,23,15.5
		c15.6-7.3,21.3-23.9,34.8-34.8c14.7,11,29.2,22.2,44.1,32.9c15.2,10.9,30.8,21.1,46.1,31.7c15.3,10.6,30.6,21.3,46,32.1
		c1.7,9.1,3.4,18,5.2,27.6c14-0.7,22.8-9.8,33.4-14.7c10.3-4.7,20-10.5,30.3-16.1c14,7.3,25.4,17.4,37.9,27.7
		c0,36.2,1.1,72.6,2.6,108.5c7.2,5,14.1,2.9,20.5,3.4c5.8,0.4,11.7,0.6,18.1,0.9c2.7,16.8,2.6,32.5,0.2,48.8
		c-11.4,3.8-23,0.1-33.6,2.7c-10.2,24.9-11.7,40.7-5.9,61.8c15.7,11.8,15.7,11.8,40.7,14.1c1.5,3.1,3.2,6.5,5.3,10.6
		c6.2-1.1,12.6-2.2,19.6-3.5c3.3,5.5,6.2,10.6,9.5,16.2c15.1,4.1,29.9-2.5,45-3.2c14.3-0.7,28.5-5.4,43.8-8.6
		c1.2,3.3,2.9,6.1,3.3,9.1c1.7,13.8,3.1,27.7,4.5,41.6c0.5,5.4,1.3,10.5,6.8,15.3c33.6-6.1,68.2-11.5,102.5-19.9
		c1.7-14-7.3-25.1-6.3-38.7c8.3-4,17.1-2.6,25.3-2.1c11.6,0.7,20.4-2.9,27.9-11.8c7.7-9.1,16.3-17.5,24.9-26.5
		c15.4,1.6,29.8,3.1,44.7,4.7c7.2-15.7-0.4-33.1,5.5-49.6c18,1.5,35.1,3,52.2,4.4c3.3,0.3,6.6,0.8,9.9,1.2
		c10.1,1.2,17.5-1.7,23.7-10.8c9.3-13.7,20.2-26.4,30.5-39.5c4.4-5.6,9.1-11,14.3-17.4c16.9,18.7,33,36.3,48.8,54.2
		c13.7,15.4,27,31.2,40.7,46.6c9.6,10.7,16.9,21.8,15.8,37.2c-0.5,7,1.7,14.1,2.9,22.3c7.8-0.5,14.2-1,21.6-1.5
		c6,7,12.5,14.4,19.3,22.3c28.1-5.7,53-19.4,80-25.1c15.4,23.5,277.3,588.9,284.9,615.1c-10.3,3-21,1-31.4,1.9
		c-3.3,0.3-7.4-2.8-10.5-5.1c-12.3-9.3-25.2-17.4-39.1-24c-3.5-1.7-7.1-4-9.6-6.9c-7.1-8.3-15.1-11.6-26.4-9.5
		c-9.8,1.8-19.7,0.1-29.5-3.3c-10-3.5-20.4-5.7-31.4-4.8c-9.2,0.7-16.4,3.7-21.7,11.8c-8.1,12.2-17.4,23.6-25.5,35.8
		c-4.4,6.7-10.2,10-17.8,11.3c-10.5,1.9-20.9,4.2-31.3,6c-8.2,1.5-15.5-0.4-22.8-4.8c-14.3-8.6-29-16.4-43.7-24.1
		c-14.3-7.5-29.7-11.9-45.4-14.9c-6.6-1.3-13.6-1.4-19.3,2.8c-18.5,13.9-40.6,15.8-62.2,19.2c-36.1,5.8-72.3,11-108.4,16.4
		c-3.9,0.6-8,0.1-13.2,0.1c-2.2-3-5-6.5-7.4-10.4c-3.5-5.6-6.2-11.9-10.1-17.2c-9.5-12.5-20.1-20.8-38.2-20.1
		c-42.6,1.6-85.3,0.2-128,0.6c-29.3,0.3-58.6,0.8-87.8,2.5c-19.6,1.1-37.1,10.2-53.7,20.2c-7.4,4.4-13.7,10.5-20.9,15.4
		c-13.2,9-21.5,21.5-26.8,36.2c-2.3,6.3-4.9,12.4-7.4,18.7c-5.7,3.9-12.4,4.5-18.9,5.3c-46.1,6-92.4,11.4-138.4,18.2
		c-23.9,3.5-47.7,3.9-71.7,3.8c-59.3,0-118.7,0-178,0C7466.9,4116.6,7459.6,4116.2,7450.1,4116z"/>
	<path onclick="modals(this.id);"  id="3125" class="st0" d="M6445.9,3734.8c7.6-26.6,2-55.2,9.4-84.3c15.4-10.1,32.2-20.7,48.4-32.2
		c10.8-7.7,21.3-16,30.8-25.2c10.7-10.3,22.3-18.8,35.6-25.3c19.2-9.3,38-19.3,56.8-29.4c9.5-5.1,19.4-8.4,30.1-9.9
		c19-2.7,31.6-15.1,33.2-33.7c0.7-8.4,3.5-16.7,1.1-25.6c-2.5-9.1,3.1-16.7,8-23.9c10.4-15.4,21.2-30.6,31.8-46
		c32.9-47.7,64.7-96.1,92.9-146.8c4.8-8.7,8.9-18,11.9-27.4c2-6.1,2-13.1,1.7-19.6c-0.2-5.2-2-10.4-3.2-15.6
		c-7.9-32.9-11.9-66.8-22.1-99.2c-2.8-8.9-5.8-17.6-8.7-26.4c-1.9-5.8,0.4-10.9,6.4-12.3c5.8-1.3,11.8-1.9,17.7-2.7
		c4.6-0.6,9.2-1.1,13.9-1.5c8.5-0.7,14.9-5.6,15.1-13.4c0.4-20.5,16.4-31.1,26.9-44.9c6.4-8.5,13.6-16.3,18.7-25.8
		c6.1-11.3,14.4-20.7,23.6-29.5c8.4-8,17.1-13.6,29.6-14.4c10.4-0.6,20.8-4.4,30.6-8.4c5.9-2.4,11.1-7.4,15.4-12.2
		c6.4-7,13.7-9.8,23-9.3c17.3,0.9,34.6,1.8,51.9,1.9c40.7,0.3,81.3-0.2,122,0.2c33.3,0.3,66.6,1.4,99.9,2.3c2.6,0.1,5.1,0.8,7.3,1.2
		c5.2,6.4,3.3,13.3,3.3,19.7c0.2,46.7,0.1,93.3,0.1,140c0,44.7,0,89.3,0,134c0,6.6,0,13.3,0,20.7c-4.7,2-8.7,4.2-13,5.4
		c-12.9,3.4-25.9,6.4-38.8,9.6c-11.1,2.8-21.5,7-30.6,15.3c-0.4,2.2-1.1,4.7-1.3,7.3c-3.4,49.9-2.6,99.8-2.6,149.7
		c0,22.3,0.1,22.4,21.7,22.5c33.3,0.1,66.6,0,100,0.1c5.9,0,11.8,0.6,17.6,0.8c2,10.8-1.3,19.6-4.1,29.2c-6.2,3.2-13.5,4-20.6,4.7
		c-12.7,1.2-16.9,11.9-23,20.1c-1.8,2.4-0.6,7.9,0.6,11.4c2.9,8.1,6.9,15.9,10.3,23.8c2.6,6.1,5,12.3,8,19.8
		c-5.7,2.6-10.9,5.3-16.2,7.3c-52.9,20.2-105.8,40.2-158.6,60.4c-5.4,2.1-12,2.6-15.5,10.6c1.5,5.7,3.4,12.7,5.1,19.2
		c16.5,14.1,37.8,21,51.3,39.9c-3.7,3.3-6.9,6.2-9.9,8.9c0,1.5-0.5,3.1,0.1,4c5,8.6,10.2,17.1,14.9,24.8
		c-20.2,41.6-39.9,82.3-59.9,123c-3.7,7.5-3.1,13.7,1.4,20.5c17.6,26.7,34.9,53.6,52.4,80.4c1.4,2.2,3.1,5.1,5.3,5.8
		c14.2,4.6,21.6,17.3,32,26.4c6,5.2,11.6,10.8,17.2,16c-0.2,1.7,0.2,3.7-0.5,4.1c-9.3,5.9-12,15.5-14.6,25.2
		c-1.7,6.4-3.5,12.8-5.5,20.1c-6.7,2.3-13.4,4.7-21,7.3c-7,9.9-11,21.9-15.2,33.8c-8.3,23.9-17.2,47.5-32.1,68.4
		c-1.5,2.1-3.3,4.6-3.6,7c-3.4,24.4-7.4,49,7.1,71.6c3.6,5.5,7.8,10.7,12.3,15.5c7.2,7.8,14.9,15.2,22,22.4c0,9.5,0,18.1,0,27.7
		c-30.2,8-60.9,3-91.1,6.1c-29.7,3.1-59.8,1.7-89.2,2.3c-17.4-19.7-34-38.6-50.7-57.4c-0.6-0.7-2.5-0.3-5.1-0.5
		c-0.9,3.4-2.5,7-2.6,10.7c-0.3,14,0.2,28-0.2,42c-0.4,14.5-1.5,29-2.2,43.1c-19.1,4.4-132.4,10.2-160.9,8.4
		c-4.9-14-2.9-29.5-6.2-43.9c-2.5-0.9-4.3-2.1-6.2-2.1c-72.6-0.1-145.3-0.2-217.9-0.1c-1.8,0-3.5,1.1-4.9,1.5
		c-2.3,4.3-0.1,6.9,2.1,9.4c7.9,8.9,15.9,17.8,24.8,27.8c-2.7,2.4-4.6,4.9-7.2,6.4c-33.6,19-67.3,37.9-100.9,56.9
		c-4.7,2.7-9.4,5.1-15,4.5c-13-1.4-25,2.6-37,6.9c-3.8,1.4-7.6,2.5-11.4,3.7c-13,4.1-23.3,0.5-30.3-11.4
		c-6.7-11.5-13.3-23.2-11.4-37.4c0.4-3.3,0.5-6.8-0.4-9.9c-3.5-12.2-10.1-20-25-12.7c-7.7,3.8-14.7,9.1-22.3,13.3
		c-7,3.9-13.9,8.3-21.5,10.4c-26.2,7.6-52.8,13.9-80.1,16.1c-8.4,0.7-17-2-25.5-3.6c-14.6-2.7-28.3-7.3-39-18.5
		c-7.2-7.6-17.2-6-27.6-7.1c-0.7-0.9-2.2-2.4-2.9-4.1c-3.8-9.9-10.9-16.7-20.4-20.8c-9.1-3.9-14.7-10.8-19.4-19.2
		c-4.8-8.7-8.8-18.9-16-24.8c-6.7-5.4-17.2-6.5-26.3-8.5c-12.7-2.8-23.1-8.5-32.9-17.3c-18.5-16.4-36.2-33.3-49.8-54.1
		c-4.4-6.7-9-13.3-14.3-19.2c-7.3-8.2-10.9-17.5-13.8-28.1c-4.4-15.9-11-32-27.7-39.3c-13.7-5.9-17.8-16.8-19.3-31
		c2.5-1.6,5-3.8,7.8-4.9c41.8-15.6,83.6-31.2,125.5-46.3c12.5-4.5,25.5-7.7,38.1-11.7c4.3-1.4,9.4-2.8,12.4-5.8
		c9.3-9.5,18.1-19.5,26.6-29.8c4.8-5.9,3.6-12.8-2.8-17.4c-5.4-3.8-11.1-8.1-17.3-9.7c-9.7-2.5-14.6-8.5-17.7-17.1
		c-1.1-3.1-2.9-6-4.4-9.1c2.1-6.7,8.7-7.7,13.8-10.2c44.2-21.7,88.7-43,133-64.6c45.5-22.2,90.8-44.8,136.3-67.1
		c31.7-15.5,63.6-30.6,95.4-45.9C6442.2,3738.1,6443.6,3736.6,6445.9,3734.8z M6978.9,3569.7c-11.1-4.3-19.6-1.6-28-0.7
		c-7.2,0.8-14.4,3.1-21.6,3.3c-13.7,0.4-25,5.8-32.1,16.9c-7.2,11.3-17.8,15-29.3,18.5c-10.7,3.3-22.2,4.1-32.5,10.6
		c-0.4,3.2-1.2,6.5-1.1,9.7c0.5,8.6,1.7,17.2,2,25.8c0.8,23.2,1.2,46.5,2,69.7c0.6,15.9,1.5,31.8,2.4,47.7
		c0.5,9.2,2.1,10.9,11.8,12.8c16.3,3.2,32.8,5.5,48.9,9.3c13.2,3.1,26.4,2.5,39.7,2.6c7.8,0.1,14.2-2.9,19.3-8.8
		c2.6-3,4.5-6.8,7.6-9.2c10.1-7.8,11.3-18.2,11.2-30.1c-0.4-52.5-0.2-105.1-0.2-157.7C6978.9,3583.5,6978.9,3576.9,6978.9,3569.7z"
		/>
	<path onclick="modals(this.id);"  id="3123" class="st0" d="M8355.5,2973.8c18.2-2.3,35.1-4.5,52.4-6.7c7.2-24.6,5.7-49.6,11.7-74.5c11-5.7,23.3-6.6,36-6.6
		c64.6,0.1,129.3,0,193.9,0c6.7,0,13.3,0,20,0c2,0,4.1-0.5,6-0.2c8.2,1.5,16.8,8.3,24.5,3.2c7.2-4.8,15.2-3.8,23.4-6.9
		c0.5-3.6,1.7-7.5,1.4-11.2c-0.9-13.9-2.3-27.8-3.6-41.6c-0.4-4.6-1.2-9.2-1.5-13.8c-0.3-5.2-0.1-10.3-0.1-16.1
		c5.2-2.1,9.9-4,15.3-6.2c-5.8-25.2-17.9-47.7-23.9-72.1c17.1-3.4,88.3-3.4,104.8,0c-0.8,17.1-5.5,33.6-8,50.5
		c-1.2,7.9-3.6,15.6-4.8,23.5c-1.9,13.1-5.2,26.1,1.6,39.1c2.3,4.4,1.9,10.4,1.9,15.7c0.2,22-0.2,44,0.2,66
		c0.2,8.6-2.6,15.3-7.7,21.9c-8.6,10.9-16.6,22.3-26,35.1c4.8,1.5,7.6,3.1,10.4,3.1c37.3,0.2,74.6,0.3,112,0
		c10.6-0.1,21.2-1.1,31.8-2.1c9.8-0.9,18.4,1.7,26.3,7.2c5.9,4.1,12.1,8,18.1,11.9c-1.2,12-4,23.2-2.9,34.1
		c1.1,11,6.1,21.6,9.8,33.5c6.4,0.4,12.3,1.2,18.1,1.2c31.3,0.1,62.7,0.1,94,0.1c4.7,0,9.4-0.3,14,0.2c12.7,1.2,22,9.7,24.4,22.4
		c1.4,7.2,2.9,14.5,2.9,21.7c0,23.3,27.1,41.9,47.5,36.9c29.3-7.2,59.4-6.8,88.9-11.4c26.6-4.2,53,1.3,79.5,0.6
		c4.6-0.1,9.3,0.8,13.9,0.9c12.7,0.5,25.1,2.4,37,7c18.2,7.2,37.3,9.6,56.8,9.5c25.3-0.1,50.7-0.3,76,0.1
		c10.4,0.2,19.8-1.7,28.1-8.2c10.2-8.1,22.4-11.4,35-13.3c9.2-1.4,18.3-3,28.5-4.7c7.1-8.8,14.6-18.2,22.1-27.4
		c3.8-4.7,7.8-8.9,14.6-9.4c32.5-2.1,65-4.5,97.4-6.7c1.2-0.1,2.4,0.5,4.1,0.8c0.6,1.5,1.9,3.3,2,5.1c1,26.6,1.8,53.2,2.7,79.8
		c0.6,16.6,1.8,33.2,1.6,49.8c-0.3,23.9-1.5,47.9-2.4,71.8c-0.4,9.3-1.5,18.6-1.5,27.9c-0.1,229.9-0.1,459.9-0.1,689.8
		c0,7.3-0.1,14.7-0.5,22c-0.3,4.6-3.4,7.4-7.7,7.7c-8,0.7-16,0.4-23.9,1c-13.9,1-27.8,2.6-41.7,3.6c-10.7,0.8-21.1-0.3-31.4-4
		c-16.3-5.9-32.7-11.4-49.3-16.4c-26.7-8.1-53.6-15.7-80.4-23.6c-10.3-3-20.6-4-31.5-3.4c-34.5,1.7-34.5,1.2-66.7-13.9
		c-9-4.3-18.1-8.8-27.7-11.5c-15.6-4.4-31.2-5.7-45.9,4.2c-12.7,8.6-26.6,15-41.4,19.4c-32.5,9.8-64.9,20.1-97.3,30.1
		c-1.9,0.6-3.9,0.8-7,1.3c0-3.9-0.7-7.7,0.1-11.1c2.8-11.6,6.7-22.9,7.9-35c1.3-13.4,0.5-26.8-2.5-39.7
		c-3.2-13.6-9.1-25.2-22.4-33.5c-12.8-8-23.1-19.9-34.3-30.4c-2.8-2.7-5.8-6.2-6.6-9.7c-3-13.6-12.8-19.4-24.8-23.2
		c-3.1-1-6.2-1.6-9.5-2.5c-11.6,10.7-16.1,24.9-22.1,37.5c-21.3,7.4-70,17.9-84.5,18c-11.7-19.6-14.9-43.5-28.6-64
		c-56.2,32.8-110.5,67.6-165.7,99.8c-7-3.2-8.4-9.5-10.8-14.7c-14.2-30.1-28.1-60.4-42.1-90.6c-17.1-36.8-34.2-73.6-51.3-110.5
		c-17.1-36.8-34.2-73.7-51.3-110.5c-16.6-35.6-33.3-71.1-50-106.7c-10.8-22.9-21.2-45.9-32.5-68.6c-11.8-23.9-24-47.5-36.6-71
		c-37.5-69.8-73.5-140.4-105-213.2c-16.4-37.9-34.2-75.1-51.5-112.6c-7.8-17-16.7-33.3-27.8-48.5
		C8357.8,2979.2,8357,2976.8,8355.5,2973.8z M9252.2,3461.6c-3.6-1-6.7-2.6-9.7-2.6c-39.9-0.2-79.9-0.2-119.8,0
		c-3.7,0-7.5,1.7-12.2,2.9c-4.4,39.3-8.7,78.2-12.8,117c-0.4,3.7,1,7.6,1.5,11.3c7,1.8,14.6,1,16.1,10c0.2,1.2,3,2.7,4.7,2.9
		c10.6,0.9,21.2,1.8,31.8,1.9c2.9,0,7.8-2,8.3-4c2.3-8.8,10.2-9.3,16.6-12.5c2.8-8.3,4.9-16.8,8.6-24.5c3.6-7.3,5.6-14.5,6-22.7
		c0.8-17.2,23.1-44.2,41.6-46.3c5.6-0.6,11.8-1.2,16.6-5.1C9250.5,3480.6,9251.3,3471.5,9252.2,3461.6z"/>
	<path onclick="modals(this.id);"  id="3111" class="st0" d="M8489.3,2020.1c17.2-1.6,34.3-3.4,51.5-4.6c10.3-0.7,19.6-3.6,27.7-9.9c8.9-7,17.8-14,26.6-21
		c4.1-3.2,8.1-6.6,11.8-9.6c7.8,5.8,14,12.5,21.6,15.4c7.1,2.8,15.8,1.3,23.7,2.2c31.9,3.6,63.7,3.4,95.6,0.1
		c8.6-0.9,17.3-0.7,26-0.2c8.8,0.5,15.6-2.8,21-9.3c3.4-4,7.1-8,9.8-12.5c5.6-9.1,11.2-18.2,15.8-27.8c5-10.4,10.7-19.8,21-25.8
		c8.5-5,10.6-11.9,9.5-21.9c-2.1-19.9-3.8-39.5-11.2-58.5c-4.6-11.8-3.7-24.9,5-36.9c20.8-2.7,42-0.9,63.2-1.2
		c21.3-0.3,42.5-0.1,62.1-0.1c6.2-5.2,7-10.5,6.7-15.9c-1.9-39.7,8.4-77.9,15.1-116.5c2.8-16.4,6.6-32.6,9.3-49
		c1.3-7.8,1.3-15.9,1.7-23.9c0.3-5.3-1.3-11.2,0.5-15.9c4.9-12.9-1.1-22.1-9.4-30.1c-11-10.6-22.1-21.3-34.5-30.1
		c-9-6.4-12.8-13.6-10-23.5c4.9-17.2,10.7-34.1,16.5-52.3c10.6,6.7,20.9,6.4,31.3,4.8c4.6-0.7,9.2-1.5,13.8-1.6
		c40-0.7,79.9-1.7,119.9-1.4c15.2,0.1,29-2.4,41.7-10.7c2.2-1.4,4.7-2.5,7.1-3.8c12.2,1.8,22.5,7.1,32.6,14.1
		c8.5,5.9,15.9,14.2,27.6,16.2c8.5-22.7,2.7-46.8,9.5-69.8c4.3-0.3,8.1-0.7,11.9-0.7c4,0,8,0.5,12,0.7c28.6,0.9,57.2,1.4,85.8,2.6
		c36.5,1.6,73,5.2,109.6,5.2c36.2-0.1,68.6,14.4,103,20.4c5.2,25.3,2,49.4,4.5,73c2.4,23.3,0.5,46.5,2.5,70.8
		c-5.3,0.9-9.7,2-14.1,2.2c-16,0.7-31.9,0.9-47.9,1.8c-4.5,0.2-9.3,1.3-13.1,3.5c-13.9,8-27.4,16.5-40.9,25
		c-1.5,0.9-2.1,3.2-3.7,5.8c2.8,1.9,5.2,4.3,8,5.3c10,3.7,20,7.6,30.3,10.2c12.7,3.2,19.1,11.6,21.1,23.6c3.2,18.5,9.7,36,15.5,53.6
		c9,27.2,23.7,50.4,48.1,68.8c30.5-8.3,61-19.5,91.4-28.5c2,1.7,3.5,2.4,3.8,3.4c4.7,17.3,8.8,34.8,16.9,51.1
		c4.6,9.3,1.5,18.1-4.7,27.5c-29.5,3.2-59.8,6.4-89.6,9.6c-5.2,7.2-3.4,14.8-3.4,21.9c-0.2,57.3,0,114.7-0.2,172
		c0,7.1,1.7,14.7-3.2,22c-2.8,0.4-6,1.3-9.3,1.4c-43.3,0.9-86.5,1.5-129.8,2.5c-29.9,0.7-59.8,1.7-91.2,2.6
		c0.4,4.1-0.5,8.7,1.4,11.1c10.3,13.1,13.4,28.8,17.2,44.3c5.2,21.3,10.7,42.6,15.5,64.1c3.4,15.6,11.2,28.1,22.4,39.3
		c9,8.9,17.1,18.6,25.4,28.1c5.4,6.2,8.2,13.4,9.4,21.7c1.8,12.5,4.3,24.9,6.8,38.4c-3.5,2.4-6.9,5.3-10.9,7.4
		c-59.4,30.2-118.8,60.3-178.3,90.3c-4.5,2.3-9.5,3.5-15.3,5.7c-4.1-22.4-0.8-43.9-6.9-64.1c-15.4-3.5-81.3-5.7-113.5-3.7
		c-5.2,5.8-11.6,12.6-17.5,19.6c-11.5,13.5-25.3,23.1-42.7,26.5c-6.5-3.8-7.3-10-9.5-15.4c-4.8-11.7-7.4-25-14.8-34.6
		c-7.4-9.7-20-15.2-29.6-23.3c-15.7-13.2-33.1-22.3-54.1-21.8c-15.9,0.4-25.4-9.6-36.7-19.1c2.2-6.1,4.1-11.5,5.9-16.5
		c-1.4-1.6-2-3.2-3-3.5c-5.6-1.9-12.2-2.2-16.9-5.4c-9.4-6.5-17-14.3-15.7-27.9c1.9-19.4-2.8-38.3-4.8-57.5
		c-1.8-16.4-0.6-33.1-0.6-49.7c0-2.6,1.1-5.2,1.2-7.8c0.2-5.1-4.3-8.5-9.5-6.9c-14,4.3-27.9,8.8-41.9,13.2
		c-46.4,14.7-91.8,31.9-135.4,53.6c-28,13.9-56.7,26.5-85.1,39.6c-4.6,2.1-9.7,3.3-15.5,5.2c-1.5-4.2-2.9-7.1-3.7-10.2
		c-9.6-35.3-19-70.7-30.9-105.4c-4-11.6-9.8-19.5-21-24.6c-18.2-8.2-35.9-17.6-53.7-26.7c-4-2-7.7-4.5-11.6-6.7
		C8488.8,2022.4,8489,2021.2,8489.3,2020.1z"/>
	<path onclick="modals(this.id);"  id="3117" class="st0" d="M7914,2127.1c6.9,3.6,14.3,2,21.5,2.1c58,0.1,116,0,174,0.2c7.2,0,14.7-1.6,22.8,2.7
		c13.5,45,24.4,91.7,37.1,137.8c1,3.7,1.1,7.6,1.8,13.2c-4.4-0.6-7.5-0.7-10.4-1.4c-14.8-3.9-29.6-7.9-44.4-11.9
		c-6.9-1.8-13.9-4.4-22.1-0.9c-0.5,12.8,1.3,25.1,3.3,38.2c-4.5,2.2-8.5,4.1-13.9,6.7c-1.7-2.4-3.2-4.5-4.7-6.7
		c-9.4-13.7-18.5-27.7-31.7-37.8c-13.2,0.8-13.2,0.8-22-5.9c-11.3-8.6-20.2-19.2-28.7-30.4c-4.6-6-7.5-14.1-17.3-15.3
		c-3.1-0.4-5.9-5-8.3-8.2c-8.2-10.5-16-21.3-24.2-31.8c-3.6-4.6-7.7-8.7-12-13.4c-12.6,6.4-22,14.3-29.4,25.2
		c3.2,11.7,13.6,18.2,19,29.2c-3.1,3.4-6.6,7.1-10.8,11.7c4.2,5.8,8.4,11.6,13.2,18.3c-8.2,6.1-7.7,15.6-8.9,24.4
		c-0.9,6.6-1.5,13.2-1.7,19.8c-0.4,11-3.9,20.8-9.8,29.9c-2.9,4.5-5.7,8.8-3.2,14.8c0.8,2-0.2,5.3-1.4,7.4
		c-7.4,12.5-15.2,24.8-23.3,38c-13.7-5-20.8-18.1-33.6-22.7c-4.3,1.7-8.5,3.4-13,5.2c-1.5-1.2-3.4-2.2-4.5-3.8
		c-15.2-21.9-30.1-44-45.6-65.7c-6-8.4-10.3-17.3-11.2-27.3c-0.7-7.9-4.1-13.9-9.4-19.7c-4.3-0.7-8.8-1.4-13.4-2.2
		c-5.1-8-9.9-16-15.2-23.6c-4.5-6.4-7.8-7.8-15.4-4.7c-11,4.5-21.8,9.8-32.2,15.5c-5.5,3.1-6.9,9.5-7.9,15.5
		c-2.3,15.1-4.6,30.2-6.8,45.4c-3.1,20.4-6.4,40.7-9.1,61.2c-2.5,18.8-11,34-25.7,45.8c-3.1,2.5-6.1,5.2-9.5,7.3
		c-6.5,4.2-11,9.8-12.2,17.4c-1.7,10.8-6.9,20.1-12.9,28.9c-4.6,6.8-6.6,14.3-8.3,22.2c-5.3,25.5-6.4,51.3-6.4,77.2
		c0,6.1,2.8,10.1,8.1,12.5c5.5,2.5,11,4.7,16.5,7.1c6.6,2.9,13.1,5.9,19,8.5c1.8,7.9-1.7,13-3.7,18.6c-7.2,19.6-11.9,39.2-6.1,60.5
		c2.5,9.2,0.4,19.7,0.4,30.4c-12.7,11.2-25.5,22.8-38.7,33.9c-12.4,10.4-22.8,22.2-29.6,37.1c-5.2,11.5-12.5,22.1-17.5,33.7
		c-6.6,15.2-18.8,23.2-32,29.9c-5.1-2-4.1-5.7-4.3-8.8c-0.2-3.3,0-6.7-0.1-10c-0.5-38.6-0.8-77.3-1.8-115.9
		c-0.3-11.2-2.2-22.5-4-33.6c-6.2-38.1-12.7-76.1-18.9-114.2c-7.5-46.6-14.8-93.3-22.3-139.9c-8.8-55.2-17.5-110.3-26.5-165.5
		c-11.5-70.9-23.2-141.8-34.8-212.6c-0.5-3.3-0.7-6.7-1.7-9.8c-6.2-21.2-2.2-42.1,1.8-62.9c1.5-7.7,5.4-15,8.7-22.2
		c8-17.4,8.2-34.2-1.1-51.6c-11.8-22-28.3-40.3-43.5-59.5c-1.6-2.1-3.7-4-5.9-5.3c-18.8-11-31.4-28.5-45.8-44.1
		c-17.1-18.6-34.3-37.2-51.3-55.9c-25.1-27.5-50-55.2-75.1-82.8c-10.7-11.8-21.6-23.5-33-35.8c2.7-4.4,4.6-8.5,7.5-12
		c21.4-26.3,43.5-52.1,64.2-79c12.8-16.6,29.4-19.7,47.7-16.6c24.3,4.1,48.2,10.1,72.3,15.3c67.6,14.6,135.2,29.3,203,44
		c8.1,7.5,16.4,15.2,24.7,22.9c11.9,0.5,23.9,1.3,35.8,1.3c28,0.2,56,0.1,84,0.1c6.6,0,13.2,0,20.4,0c2.7,5.4,5.3,10,7.2,14.8
		c11.5,29.1,23.2,58.2,34,87.5c3.4,9.3,8.1,16.5,16.3,21.8c1.7,1.1,3.1,2.5,4.6,3.9c12.3,11.2,26,18.3,43.3,15.3
		c2.6-0.4,5.3,0.1,8,0.4c1.3,0.1,2.5,0.8,5.1,1.8c1.5,5.5,3.4,11.8,4.8,18.1c1.6,6.9,5.3,12.1,11.6,15.4
		c16.8,8.8,30.4,21.4,43.4,34.9c4.6,4.8,10,8.8,15.1,13c5.2,4.2,9.8,8,12,15.2c1.8,6,7.4,10.8,11.2,16.3c3.8,5.4,7.4,10.9,11,16.5
		c10.2,16,11.5,33.7,9.3,52c-0.3,2.6-1.6,5.3-1.2,7.9c2.3,18.1-5.1,33.9-11.6,50c-7.2,17.9-13.5,36.2-21.4,53.8
		c-4.9,10.9-5.3,22.5-4.8,33.2C7901.8,2072.6,7904.6,2100.4,7914,2127.1z"/>
	<path onclick="modals(this.id);"  id="3122" class="st0" d="M9288.8,2548.5c19.4,19.9,20.4,44.3,23,68c0.4,4-0.7,8.2,0.3,12c3,12.4-1.6,22-9.9,30.6
		c-4.1,4.3-8,9.1-12.5,12.9c-14.4,12.2-21.3,28.4-26.3,45.4c3.7,6.3,9.4,5.2,14.6,5.2c30.7,0.1,61.3,0,92,0.1c6.6,0,13.2,0,20.6,0
		c16.4,23.2,28.3,48.6,44.6,72.2c11.5,1.1,23.3,2.8,35.1,3.1c9,0.2,15.2,3.5,20,10.8c1.8,2.8,4.3,5,6.5,7.5
		c8.1,9.4,17.2,15.1,30.8,15.4c15.4,0.3,29.9,6,41.8,16.7c8.4,7.6,17.1,14.7,26.7,22.9c0.2,34.1,0.4,68.6,0.6,102.4
		c7.7,6.1,15.2,4.4,22.2,3.9c31.3-2.5,62.5-2.4,93.7,0c9.9,0.8,20,0.2,30,0.5c5.9,0.2,11.7,0.8,18,1.2c3.6,30.2,3.9,59.2,2.5,88.6
		c-4.8,1.6-8.4,3.6-12.2,3.9c-29.8,2.4-59.6,4.9-89.5,6.3c-9.7,0.4-16.2,4-21.9,11.2c-7.1,8.8-13.3,19.4-22.5,25
		c-8.5,5.2-20.4,4.7-30.8,6.9c-10.5,2.2-20.6,5.1-29.3,11.9c-8.8,6.8-18.9,8.8-30,8.6c-24-0.5-48-0.2-72-0.1
		c-17.5,0-34.2-3.4-50.9-8.7c-11.3-3.6-23.1-6.2-34.9-7.4c-15.2-1.6-30.6-1.2-45.9-1.9c-6.6-0.3-13.2-1.5-19.8-1.8
		c-6.6-0.4-13.3-0.8-19.9-0.1c-24.5,2.3-48.9,4.9-73.3,7.8c-9.9,1.2-19.7,3-29.5,4.9c-19.8,3.9-37.3-8.4-40.1-28.5
		c-1.2-8.6-2.1-17.2-3.7-25.7c-2.4-13.6-14.9-25-28.6-26.2c-4.6-0.4-9.3-0.1-14-0.1c-29.3,0-58.7,0-88,0c-6.6,0-13.1-0.3-18.6-0.4
		c-14.1-21.1-10-42-4.8-63.2c-11.2-9.8-23.6-16.1-35.8-22.6c-3.2-1.8-7.8-1.6-11.7-1.5c-13.9,0.4-27.9,1.3-41.8,1.8
		c-7.3,0.3-14.7,0.3-22,0.4c-22,0-44,0.1-66,0c-4.5,0-8.9-0.5-14.9-0.8c2.1-8.9,7.1-14.4,11.8-19.5c10.3-11,13.4-23.6,12.6-38.4
		c-0.9-16.6-0.2-33.3-0.2-50c0-12,0.2-23.8-4.1-35.5c-1.9-5.3-1.5-11.9-0.5-17.7c4.3-25.6,9.2-51.1,14-76.6c0.6-3.2,1.9-6.2,3.1-9.8
		c19.7-1.1,38.9-2.3,58.1-3c18.5-0.7,37.1-0.7,56.8-1c0.3-4.9,1.5-8.9,0.7-12.3c-4-15.7,0.6-28.8,10.9-40.4c0.9-1,1.8-2,2.5-3.1
		c5.3-10,13-16.5,24.6-17.8c1.2-0.1,2.2-1.4,4.5-2.9c4.2-18.9-1.4-38.7-0.3-58.4c1.1-19.1-1.3-38.4,1.5-58.1
		c7.7-2.1,14.5-4.9,21.6-5.6c10.8-1.1,18.8-6,25.6-13.9c3-3.5,6.2-6.9,10.2-11.2c3.5,3.2,5.8,6.3,8.8,7.9c2.8,1.5,6.4,1.5,9.7,2.1
		c5.9,1.1,11.7,2.3,17.7,3.1c15.3,2.2,28.6,5.8,39.1,19.9c8.9,11.9,22.8,20.1,34.6,30c4.9,4.1,10.8,5.1,16.9,4.3
		c27.6-3.8,55.4-7.1,82.8-12C9265.6,2544.7,9277,2544.2,9288.8,2548.5z"/>
	<path onclick="modals(this.id);"  id="3115" class="st0" d="M8471.1,2261.8c-0.6-3.8-1.2-6.3-1.3-8.9c-0.9-47.2-1.5-94.5-2.6-141.7
		c-0.5-21.3-1.5-42.5-2.4-64.8c-3.7-0.8-7.4-2.3-11.1-2.4c-17.3-0.3-34.7-0.5-52,0c-9.2,0.2-16.9-2-23.8-8.1c-3-2.6-6.4-4.8-9.6-7.1
		c-4-2.9-8.2-3.4-13.2-2.7c-15.1,2.2-30.3,4.3-45.5,5.3c-7.1,0.4-14.7-0.8-21.4-3.2c-11.8-4.2-23.5-3.9-35.4-1.7
		c-4.6,0.8-9.1,2-13.6,3.2c-16.2,4.2-32.4,7-49.3,6.3c-8.6-0.4-17.3,0.7-25.9,1.8c-9.7,1.2-12,3.9-13.6,14.2c-1,6.5-1.8,13-2.7,20.3
		c-8.5,0-16.1,0-24.8,0c0,16.1,5.4,30.6,6.5,46.6c-3.2,0.8-6.3,2.2-9.3,2.2c-64,0.1-128,0.1-191.9,0c-1.9,0-3.9-0.7-6.6-1.2
		c-5.5-12.6-7.7-26.4-10.2-40c-1.5-7.8-1.4-15.9-1.8-23.9c-1-18.8,0.5-36.8,9.2-54.4c8.8-17.8,14.9-37,22.4-55.6
		c3.3-8.1,4.7-16.5,5-25.3c0.6-17.9,2.1-35.7,3.2-53.3c14.6-5.7,14.6-5.7,35.1,14.8c13-7.4,24.8-16.4,35.8-28.3
		c-23.1-30.8-46.9-59.8-71.6-88.6c-15.6,8.6-23.1,24.2-37.2,31.7c-9.3-0.4-14.1-7.7-20.3-12.4c-6.3-4.8-11.8-10.7-17.3-16.6
		c-6.9-7.4-14.5-13.9-23.5-18.3c-10.4-5-17.2-11.8-18.1-24c-0.4-5.1-3-10-4.6-14.9c-8.9-3.9-17.7-2.5-26.2-2.3
		c-9.2,0.3-17.1-1.8-23.6-8.3c-0.5-0.5-1-0.9-1.5-1.3c-14.9-9-23.4-22.2-29-38.8c-9.4-27.7-21.3-54.6-31.5-82
		c-3.6-9.6-9-13.4-19.3-13.3c-36,0.4-72,0.2-108,0.2c-4.7,0-9.3-0.2-14,0c-5.8,0.2-10.4-1.8-14-6.2c-4.6-5.6-9-11.2-14.1-17.6
		c5.1-4.3,9.9-7.8,14.1-12c10.8-10.8,21.9-21.4,31.8-32.9c6.5-7.5,9.5-16.6,10.7-27.2c2.3-20.8,10-39.9,26.4-54.4
		c4.5-4,8.7-8.3,12.7-12.7c9.7-10.4,20.9-18.3,35.1-21.6c6.5-1.5,12.7-4.1,19-6.1c12.1-3.8,23.5-8.4,33.5-16.9
		c10.8-9.2,15.9-9.3,26.3-0.2c10.6,9.3,21.6,12,34.9,8.8c5.1-1.2,10.6-0.8,15.8-1.5c3.2-0.4,7.5-0.7,9.3-2.7
		c5.9-6.5,14-7.3,21.6-9.2c12.5-3,24.1-7.8,34.4-15.5c9.4-7,19.6-11,32.5-11.9c14.4,13.5,29.5,27.4,44.4,41.6
		c7.7,7.3,15.4,14.7,22.6,22.6c10,11,21.5,20,35,26c11.1,4.9,19,12.1,22.6,23.8c1.7,5.4,4.9,9.7,9.9,11.9
		c21.2,9.3,36.7,26.2,54.6,40c5.7,4.4,10.8,9.7,17,15.4c-1.5,4.2-2.8,8.5-4.5,12.6c-5.3,12.3-9,24.6-7.5,38.6
		c1,9.7-1.3,19.8-2.9,29.6c-2.4,14.4-5.9,28.6-8.2,43c-1.5,9.2-1.1,18.6,2.2,27.6c1.6,4.4,3.2,8.9,3.6,13.4c1,11.1,8,16.4,17.5,19.3
		c5.7,1.8,11.6,2.9,17.5,4c11.3,2.1,21.2,5.8,29.4,15.1c7.1,8.1,21.6,6.5,30.6-1.9c3.3-3.1,5.7-7.2,8.4-10.7
		c23.6,2.9,46.6,5.9,69.6,8.6c1.7,0.2,3.6-1.5,6.5-2.8c0.6-3.9,1.9-8.3,1.9-12.8c0.4-31.3-1.1-62.5-3.5-93.7
		c-1.4-17.7-0.2-35.7-0.2-54.5c10.5-2.1,20.3-1.5,30.1-0.7c7.3,0.5,14.5,1.5,21.8,1.9c35.8,2,71.7,3.8,107.5,5.9
		c9.6,0.6,11.1,4.1,7.7,18c-12.8,1-26,0.9-39.2-0.2c-11.2-0.9-22.5-1.5-33.8-1.5c-8.9,0.1-11.8,3.1-11.8,12.4
		c-0.1,17.9-0.3,35.8-4.4,53.4c-14.7,14.7-32.8,5.1-49.6,6.1c-6.6,10.3-7.4,20.2-4.8,32.2c3.8,17.5,5.1,35.6,6.2,53.5
		c1,16.4,5.7,32.7,1.3,49.4c-1.9,7.2,3.2,12.6,7.4,17.7c13,16,25.8,32.2,39.4,47.7c7,8,10.9,16.2,10.3,27
		c-0.3,5.7,1.7,11.6,2.6,16.9c11.9,4.4,23.1,4.8,34.4,4.7c12-0.1,24,0,36,0.6c2,0.1,4.9,2.5,5.5,4.4c0.6,2.1-0.4,5.5-2,7.1
		c-2.8,2.7-6.5,4.6-9.9,6.6c-9.2,5.4-18.5,10.6-27.6,16.1c-3.3,2-6.2,4.7-9.9,7.5c2.9,10.8,7.4,20.2,12,29.7c3.3,6.7,8,9.7,15.7,9.9
		c11.9,0.3,23.7,1.9,36.7,3c2.1,16.6,4,32.2,6,48.4c18.1,9.2,35.9,18.2,53.7,27.2c13.7,6.9,27.3,13.9,41.1,20.5
		c5.2,2.5,8.6,6,10.4,11.3c14.1,40.2,26.4,80.8,35.8,123.3c-20.7,12.9-43,21.6-64.5,31.6C8514.4,2243.2,8494.1,2254.6,8471.1,2261.8
		z"/>
	<path onclick="modals(this.id);"  id="3119" class="st0" d="M10019,2823.4c-7.1,2.1-14.2-0.1-21-1.6c-13.3-2.9-26.1-2.3-39.4,0.5
		c-20.1,4.3-40.6,6.6-60.9,10.2c-11.8,2.1-23.4,5.1-35,8.2c-17.7,4.7-35.4,5.2-53.5,3.1c-12.7-1.4-25.1-0.2-37.4,4.2
		c-7.9,2.8-12.6,7.1-12.3,15.8c1,27.9-2.2,55.9,1.9,83.8c0.9,5.8,0.1,11.9,0.1,18.9c-3.9,1.1-7.6,3-11.2,3
		c-12.6-0.1-25.2-1.3-37.8-1.4c-30.6,0-61.3,0.4-91.9,0.6c-4.5,0-9,0-14.6,0c-0.6-6.1-1.6-11.2-1.6-16.3c-0.2-24-0.4-48,0.1-72
		c0.2-10.2-2.4-18-11.2-23.8c-5.5-3.6-10.7-8-15.5-12.6c-14.2-13.4-31.7-19.4-50.6-20.9c-9.4-0.8-16.6-3.8-22.1-11.4
		c-2.3-3.2-5.1-6.1-7.7-9.2c-7.1-8.6-15.3-13.9-27.4-13.2c-9.1,0.6-18.4-1.6-29.5-2.7c-15.1-22.1-27.2-47.4-43.8-71
		c-4.8-0.4-10-1.2-15.2-1.2c-28-0.1-56-0.1-84-0.1c-6.6,0-13.2,0-19.8,0c0.4-15.1,2.7-20.1,12.5-30.8c8.6-9.3,16.8-18.8,25.3-28.2
		c5.3-5.8,6.9-12.2,5.9-20.2c-1.8-13.8-1.9-27.9-3.9-41.7c-3.7-26.2-5.4-29-22.8-52.8c-13.6-4.7-27.5-5-42.4-2.3
		c-26.8,4.8-53.9,7.7-80.9,11.7c-5.8,0.9-10.5-0.7-14.7-4.4c-13.4-12-27.2-23.5-39.7-36.3c-5.5-5.6-11-8.8-18.6-9.9
		c-12.4-1.8-24.7-4.6-37.6-7.2c-0.9-7.2,3.1-11.9,5.5-17c4.6-9.8,7-19.8,6.7-30.8c-0.5-19.3-0.1-38.6-0.1-57.7c2.5-1.5,4-3,5.7-3.4
		c19.9-4.1,34.7-16.1,47.6-31c2.6-3,5.1-6.2,7.7-9.2c4.1-4.7,8.8-7.6,15.6-7.3c29.9,1.1,59.7,1.8,88.7,2.6
		c5.6,5.5,6.2,11.4,6.5,17.4c0.6,12,1.2,23.9,1.7,35.9c0.2,6,0.6,11.9,6.2,17.1c15.7-4.5,29.7-13.5,44.5-20.8
		c15.6-7.6,30.7-15.9,46.1-23.8c14.8-7.6,29.7-15,44.6-22.5c15.5-7.7,31-15.4,46.5-23.2c14.9-7.4,29.7-14.9,45.1-22.6
		c18.2,6.1,36.5,12.1,54.7,18.3c22.7,7.7,45.5,15.2,68,23.3c12.6,4.5,25.6,6.7,38.8,8.9c40.7,6.6,81.2,14,122.6,21.3
		c0.8,4.2,2,8,2.1,11.7c0.8,48.6,1.6,97.2,1.9,145.8c0.3,42.6,0.1,85.3,0.1,127.9c0,4.7-0.2,9.3,0.1,14c0.9,13.7,3.8,17.1,17,20.9
		c3.2,0.9,6.5,1.6,9.6,2.7c13.1,4.7,24,2.7,34.7-7.4c9.1-8.6,20.2-15.3,31-21.7c20-11.7,48.3-2.6,57.3,18.9
		c9.5,22.7,21.7,44.2,28.8,67.9c2.3,7.6,6.9,14.4,10.2,21.7c3.6,8.2,9,14.7,16.5,19.5c13.5,8.5,26.9,17.2,40.4,25.8
		C10016,2817.3,10019.4,2818.4,10019,2823.4z"/>
	<path onclick="modals(this.id);"  id="3121" class="st0" d="M8369.6,2321c6.1-3.2,10.7-5.9,15.4-8.1c41.7-19.2,83.4-38.3,125.1-57.6
		c43.5-20.2,86.8-40.5,130.2-60.8c41-19.1,81.4-39.8,123.2-56.9c38.1-15.6,77.8-27.3,116.9-40.6c1.1-0.4,2.6,0.3,4.5,0.5
		c2.9,6.7,1.8,14.1,1.4,21.2c-0.8,14.7-0.3,29.2,2.9,43.6c3.3,15,4.9,30.2,3.9,45.6c-1.4,20.5,10.1,31.6,27.3,38.9
		c1.1,0.5,2,1.6,3.2,2.6c-1.2,4.3-2.5,8.7-3.9,13.7c7.5,6.4,14.9,12.8,23.2,19.9c-10.9,14.9-21.1,28.8-32.2,43.8
		c2.8,30.5,5.7,62.1,8.5,93.7c2.7,31,5.2,61.9,7.9,94.2c16,2.9,31.4,5.8,47.8,8.8c0.8,6.1,1.9,11.2,2,16.4c0.2,20-0.1,40,0.2,60
		c0.1,10.5,0.9,21.1,1.4,32c-3.2,1.5-5.4,3.1-7.8,3.5c-8,1.1-13.2,5.7-17.1,12.3c-2.7,4.6-5.4,9.3-8.9,13.2
		c-9.9,11-15.4,23-10.8,38.1c0.7,2.3-0.4,5-0.7,8.1c-3.8,0.4-7.1,0.8-10.3,1c-67.2,3-134.4,2.1-201.7,2.4c-7.1,0-14.6-1.8-22.1,3.1
		c3.5,12.8,8.6,25.1,12.6,37.6c3.7,11.8,11.3,22.7,10.3,36.5c-3.5,0.8-6.7,2-9.9,2.1c-46.6,0.2-93.1,0.5-138.9-0.1
		c-13-17.1-25.1-32.9-37.3-48.8c-15.5,2.3-27.1,12.2-41.2,16.2c-7.4-4.4-8.1-12-10.9-18.6c7-8,22.4-4.3,24.7-20.3
		c-4.4-12-11-24.9-17.7-37.8c-2.2-4.1-5.8-8.3-5.9-12.5c0-10.4-5.9-17.2-12.2-23.7c7-35.6,4.4-71.7,10.3-106.4
		c8.3-4,17,1.9,24.9-5.2c-1.9-10.9-4.1-22.4-5.8-34.1c-1.6-11.1-2.6-22.2-3.9-33.2c5.6-3.4,10.2-6.1,14.5-9
		c3.8-2.5,5.1-6.5,3.1-10.5c-5-10.1-10.3-20.1-16-29.9c-1.2-2-4-3.5-6.4-4.4c-5.6-2-11.4-3.5-18.5-5.6c-1.5-17.7-3.1-36-4.8-55.3
		c-4-0.8-7.7-2.1-11.5-2.2c-20-0.2-40-0.1-60-0.2c-5.9,0-11.8-0.6-18.2-0.9C8376.9,2338.7,8373.7,2330.8,8369.6,2321z"/>
	<path onclick="modals(this.id);"  id="3112" class="st0" d="M8841.4,1905.4c-3.6,2.9-6.5,5.7-9.8,7.8c-7.5,4.9-12.6,11.6-16.5,19.6
		c-4.9,10.2-10.2,20.2-16,29.9c-3.3,5.6-7.8,10.7-12.1,15.7c-3.7,4.2-8.7,5.7-14.3,5.9c-24.6,0.7-49.2,2.2-73.7,2.2
		c-19.9,0.1-39.8-1.6-59.8-2.3c-8.8-0.3-14.5-4.9-19.7-11.7c-5.7-7.6-13.2-8.3-20.8-3.1c-2.7,1.9-4.9,4.5-7.4,6.7
		c-7.7,6.4-15.4,12.6-23.1,18.9c-10.7,8.7-22.9,12.8-36.8,13.3c-17.2,0.6-34.5,2-51.7,2.8c-3.9,0.2-7.8-0.6-11.2-0.9
		c-9-14.6-2.4-31.2-9.1-46.1c-15-3.8-31-3.3-47.5-5c-5.7-7.7-9.5-16.6-13.3-26.3c6.2-5.9,13.4-9.3,20.1-13.5
		c4.5-2.8,9.1-5.5,13.7-8.3c12.6-7.7,12.6-7.8,16.9-23.3c9.4,0,19.2,0,27.7,0c6-5.1,4.8-10.7,4.8-15.8c0.1-30.6-0.1-61.3,0.1-91.9
		c0.1-14,1.1-27.9,1.6-41.8c0.1-2.6-0.6-5.2-1.1-8.8c-8.9-2.2-17.7-4.3-27.4-6.7c-2.7-17.5-5.6-34.7-4.7-52.9
		c1.4-27.2-0.4-54.6-0.7-81.8c-0.1-12.6,0-25.2,0-38.6c14.9-9.5,29.4-18.8,44-28.1c11.8-7.5,23.3-15.5,35.5-22.3
		c11.8-6.5,18-15,16.5-28.9c-0.8-7.1,0-14.4,0.1-21.7c11.6-6.1,22.1-11.6,32.7-17.1c8.2-4.3,16.6-8.2,23.3-15.1
		c6.9-7.2,16.5-8.9,25.9-8c27.9,2.8,55.8-1.3,83.7-0.4c11.9,0.4,23.9-1.9,35.8-1.7c15.9,0.3,31.8,1.7,47.7,2.8
		c3.3,0.2,6.7,0.5,9.9,1.1c23.8,4.8,47.5,3.9,71.3,0c3.3-0.5,6.8-1.5,9.9-0.8c22,5.2,44.8,7.2,65.6,16.6c2.3,1.1,4.4,2.6,7.7,4.6
		c-3,10.4-5.9,20.6-8.9,30.6c-2.8,9.6-5.7,19.2-8.7,28.7c-2.1,6.6-2,13-0.3,19.6c1.2,4.8,3,8.5,7.4,11.2
		c18.5,11.1,33.5,26,46.1,42.3c0,11.3,0.3,21.8-0.1,32.4c-0.3,7.3-1.1,14.6-2.4,21.8c-6.2,34-13.3,67.9-18.9,102
		c-2.8,17-3.2,34.3-4.7,51.5c-0.4,5.3-0.6,10.5-0.8,14.9c-4.7,5.8-10.3,4.9-15.5,4.9c-29.3,0.1-58.6,0.1-87.9,0.1c-3.3,0-6.7,0-10,0
		c-18.1,0.2-22.5,3.5-24.4,21.2c-1.2,11.2-1,22.4,2.8,33.5C8840.9,1868.1,8842.1,1879.7,8841.4,1905.4z"/>
	<path onclick="modals(this.id);"  id="3118" class="st0" d="M9685.8,1729.1c51.6-17.9,101.6-35.7,151.4-51.4c6,3.9,1.4,8,2.3,11.6c0.8,3.2,1.2,6.6,2.3,9.7
		c1.8,4.9,2.9,11.2,6.5,14.2c11.4,9.6,10.4,22.3,10.9,34.8c0.2,3.9-1.6,8.1-0.9,11.9c2.7,15.4,3.8,23.5,22,26.3
		c19.8,3,28.1,15.3,30.9,33.6c1.7,11.1,4.4,22.1,6.9,34.4c-10.5,1.9-20.3,4.3-29.5,9.8c-14.2,8.4-19.9,21.2-22.2,35.9
		c-1.2,7.6-1.2,16.7,2,23.3c4.8,10.1,12.6,19.4,23.5,23.7c18.3,7.3,26.5,22.8,34.8,38.8c9.7,18.6,14.1,38.6,16.3,59.2
		c0.3,3.2,0,6.5,0,10.8c-6.3,1.5-11.9,3.7-17.6,4.1c-8.9,0.5-15.2,5-20,11.5c-4.3,5.8-8.4,12-11.3,18.6
		c-5.6,12.8-14.2,21.8-26.9,28.1c-22.6,11.3-44.7,23.6-67.1,35.3c-6.5,3.4-13.3,6.1-19.9,9.2c-13.7,6.4-17.4,12.1-16.3,26.3
		c4.3,53.9,1,107.8,1.8,161.7c0,1.9-0.8,3.8-1.5,7c-3,0.2-6.2,1-9.1,0.5c-29.5-5-59-10.3-88.4-15.5c-2-0.3-3.9-1.2-5.8-1.3
		c-30.3-1.8-58.4-12.6-86.7-22.1c-27.1-9.1-54.1-18.6-81.4-27.5c-7.4-2.4-15.3-3.2-24.3-5c-2.1-10.8-5.1-22.4-6.4-34.2
		c-1.2-10.6-5.6-19-12.4-26.6c-8-8.9-15.8-18.1-24.3-26.4c-10.3-10.1-17-21.6-20.2-35.8c-6.1-27.3-13.2-54.3-20.2-81.4
		c-2.2-8.3-5.6-16.2-9-25.6c3-0.8,6.5-2.4,10-2.4c41.9-0.8,83.8-1.2,125.8-2.1c27.3-0.5,54.5-1.5,81.8-2.5c2.6-0.1,5.1-1.1,7.4-1.7
		c5.4-6.9,3.5-14.5,3.5-21.5c0.2-56.6,0.1-113.3,0.1-169.9c0-7.3,0-14.5,0-22.5c9.9-3,18.8-4.5,28-5.2c17.9-1.4,35.7-4,53.5-5.1
		c9.8-0.6,13.7-5.3,16.5-14c3.4-10.7,3.7-20.2-2.1-30.4C9692,1764.5,9689.2,1748,9685.8,1729.1z"/>
	<path onclick="modals(this.id);"  id="3110" class="st0" d="M9504.9,1391.4c-1-30.2-2.3-58.6,2.2-86.7c5.4-4.8,11.7-3.4,17.5-3.4c33.3-0.1,66.6-0.2,100,0
		c10.1,0,20,0.1,28.1-7.5c2.3-2.1,6-4.4,8.8-4.2c16.9,1.3,34.6-1.6,50.2,8.2c6.2,3.9,12.7,7.2,19.2,10.6c14,7.2,28.5,6.1,42.7,1.1
		c10.8-3.8,21.4-6.1,33-6.1c9.9,0,19.8-1.6,26.6-10.8c4.2-5.8,11.5-6.3,18-7.6c7.8-1.6,15.6-2,22.5-7.1c2.9-2.1,7.6-2.4,11.4-2.5
		c11.3-0.3,22.6-0.1,33.7-0.1c3.5,4.8,5.7,10,9.7,12.8c4.1,2.9,9.8,3.3,14.8,5.1c10.6,3.8,22.3,6.2,31.4,12.2
		c12.9,8.6,27,14.2,41.6,20.4c0.4,4.6,0.8,9.1,1.1,13.7c0.9,10.5,5.6,15.7,15.8,16.8c4,0.4,8,0.1,12,0.2c3.3,0.1,6.5,0.6,10.1,0.9
		c8.2,14,17,27.2,18,45.9c-4-2.9-6.5-4.6-8.9-6.5c-17.7-13.9-36.6-16.9-57.9-8.8c-16.6,6.3-30.1,16.4-42.6,28.8
		c-15.1,15.1-18.8,33.1-15.3,53.3c0.3,2,0.9,3.9,1.6,5.8c6.4,15.8,9.5,31.1,2.3,48.1c-3.4,8.2-2.4,18.3-2.7,27.6
		c-0.5,14.1-5.1,26-16.3,34.9c-6.2,5-12.3,10.1-18.7,14.9c-16.5,12.4-33.4,24.3-49.6,37.1c-6.1,4.8-12.3,10.9-15.5,17.7
		c-3.9,8.4-10.1,11.6-17.9,14.1c-24.7,8.1-49.2,16.5-73.9,24.7c-51.2,16.9-102.5,33.6-153.7,50.3c-6.3,2.1-12.7,3.8-19.5,5.8
		c-19.8-13.3-31.5-32.4-39.4-53.9c-7.6-20.6-15.1-41.2-19.1-63c-2.4-13-8.8-23.3-23.2-26.9c-8.9-2.2-17.3-5.9-27.1-9.3
		c6.5-8.7,15.8-11.5,23.3-16.6c7.7-5.3,15.9-9,25.9-8.7c13.3,0.4,26.6-0.8,39.9-1.2c4.7-0.2,9.3,0.1,14-0.4c5.4-0.5,8.1-3.7,8.5-9.3
		c0.2-2.6,0.2-5.3,0-8c-0.5-10-1.2-19.9-1.6-29.9c-1.4-36.5-2.8-73.1-4.2-110c-11.7-7.9-25.5-8.3-37.9-12.4
		C9531.9,1397.6,9519.5,1395.1,9504.9,1391.4z"/>
	<path onclick="modals(this.id);"  id="3956" class="st0" d="M8461.7,2267.5c-34.8,16.1-68.4,31.8-103,47.9c2.9,7.9,5.2,14.7,7.8,21.4c5,12.4,8.1,25,7.5,38.7
		c-0.9,19.9-0.2,39.9-0.2,59.5c-10.6,5.6-20.8,2.9-30.5,3.4c-9.2,0.5-18.4,0.3-28.9,0.5c-1.3,8.7-2.4,16.3-3.6,24.4
		c-14.1,1.8-27.8,3.6-42.2,5.5c-1.1,7.6-2.1,14.5-3.2,21.7c-8.5-3.8-8.6-3.7-20.6-20.9c-5.3-7.6-9.8-15.7-15.1-24.3
		c-6.9-0.6-14.1-1.2-22.1-1.9c-1.3-9.5-2.8-18.5-3.6-27.7c-2.2-24.5-3.5-49.1-6.4-73.4c-1.5-12.4-5.6-24.6-8.9-36.8
		c-11.4-42.4-23.1-84.7-34.2-127.2c-6.9-26.4-12.9-53-19-79.5c-1.2-5-1.2-10.3-2-16.9c6.9,0.7,12.5,1.3,17.6,1.8
		c5.2-5.1,5.8-11,6.4-17c0.6-5.9,1.8-11.7,2.8-17.7c10.5-4.6,21-5.5,31.6-5.1c17.5,0.7,34.4-1.7,51.2-6.4c15.5-4.3,30.9-6,46.9,0.1
		c12.5,4.7,26.3,2.6,39.5,0.9c10.5-1.4,21-2.6,30.3-3.8c2.5,1.3,4,1.6,4.9,2.5c13.1,13.9,29.6,16.1,47.5,14.8
		c10.6-0.8,21.3-0.2,32-0.1c3.8,0.1,7.6,0.8,12.3,1.3c0.5,4.2,1.1,7.3,1.1,10.5c0.6,38.6,1,77.2,1.8,115.8
		c0.5,23.2,1.6,46.5,2.4,69.7C8461.8,2254.6,8461.7,2259.9,8461.7,2267.5z"/>
	<path onclick="modals(this.id);"  id="3963" class="st0" d="M7845.4,3057.3c-5.4,12.3-16.1,15.6-26.9,18.8c-23,6.9-44.2,18.3-65.9,28.4
		c-12.1,5.6-23.9,11.8-35.7,17.8c-5.8,3-11,3-16.7-1c-36.4-25.6-73.2-50.8-109.6-76.6c-9.1-6.4-16.9-14.6-25.7-22.5
		c3.4-3.9,5.8-7.1,8.5-9.9c38.2-38.9,76.4-77.8,114.6-116.8c4.6-4.7,8.9-9.6,13.6-14.6c-1.9-3.3-3.1-5.5-4.4-7.7
		c-1-1.7-2.1-3.3-3.7-5.8c3.9-6.8,9.8-11.9,16.5-17.3c4.5,2.4,9,4.8,14.2,7.5c6.3-5.3,12.3-10.4,19.2-16.1c3.5,2.9,7.1,5.4,10.2,8.5
		c17.5,17.3,34.9,34.8,52.3,52.2c2.8,2.8,5.5,5.8,8.6,8.4c6.5,5.5,11.1,5.5,17.7,0.1c5.6-4.6,11-9.6,16.8-14.1
		c2-1.5,4.7-2.1,7.2-3.2c8.8,4.6,14.5,12.2,20.9,18.8c19.6,19.9,38.7,40.2,58.3,60.1c17.9,18.2,18.1,18,16.1,46.2
		c-13.1,11.1-30.2,15.4-45.5,23.2c-14.8,7.5-30.3,13.7-46.5,21C7856.4,3061.4,7852.2,3059.9,7845.4,3057.3z"/>
	<path onclick="modals(this.id);"  id="3957" class="st0" d="M8222.2,2818.3c-4.7-0.9-8.9-0.6-11.6-2.4c-4.3-3-7.8-7.2-11.3-11.2
		c-48.3-55.8-96.6-111.5-144.7-167.4c-9.1-10.6-17-22.2-26.2-32.6c-17.1-19.5-34.8-38.4-52.2-57.6c-13.3-14.7-26.6-29.5-40.3-44.8
		c4.4-5,7.9-8.8,11.3-12.8c5.6-6.7,12.1-10.4,21.5-5.4c4-10,7.6-19,11.1-27.8c8.2-0.7,10.7,5.8,15.1,9.4c8.1,6.6,13.4,16.9,24.6,19
		c0.7,4.9,1.3,9.3,1.8,13.3c2.4,0.5,3.7,1.2,4.8,0.9c15.6-3.9,30.1-9.8,42.9-20.1c6.6-5.3,14.9-8.4,22.7-12.2
		c26.9-13.1,53.9-26.1,80.8-39.2c6.5-3.2,13.1-6.3,20.7-10c1.8,5.5,4.1,9.7,4.4,14.1c2.3,31.8,4.1,63.6,6.3,95.4
		c1.8,26.5,4.2,52.9,5.9,79.4c2.4,36.4,4.3,72.9,6.6,109.4c2,31.8,4.2,63.6,6.2,95.4C8222.7,2812.4,8222.4,2813.7,8222.2,2818.3z"/>
	<path onclick="modals(this.id);"  id="3972" class="st0" d="M7814.3,3324.6c12.3-0.6,23.5-1.2,34.3-1.7c4.7-14.1,5.2-47.6,0.9-66.8c-11.5,0-23.3,0-35.2,0
		c-6-12.5-2.4-24.6-3.3-36.3c-0.8-11.9-1.3-23.9-1.5-35.9c-0.3-12-0.1-23.9-0.1-36.6c-11.9-11-25.1-19.8-37.8-29.3
		c-5.5-4.1-11.1-2.6-16.8,0.6c-12.1,6.9-24.4,13.5-36.7,20.2c-2.9,1.6-6,2.8-8.8,4.1c-4.3-3.4-2.8-6,0.7-7.7
		c9.5-4.7,19.2-9.1,28.8-13.7c15-7.2,29.7-15,45-21.5c20.2-8.6,40.2-18.1,61.3-23.8c32.3-8.9,60.6-26.5,91.2-38.8
		c4.2-1.7,8.6-3.1,14.3-5.1c1.5,7,2.4,13.4,4.4,19.4c1.9,5.6,5.3,10.8,7.4,16.4c1,2.9,1.1,6.5,0.5,9.6c-1.8,10.5-3.9,20.9-6.1,31.3
		c-1,4.5-2.3,9-3.6,13.5c-2.4,8.4-0.9,15.7,5.3,22.1c1.8,1.8,3.2,4.1,5.4,7.1c-2.6,3.1-5,6.1-7.5,9c-1.7,2-4.9,3.5-5.3,5.7
		c-3.3,15.6-16.4,23.7-26.1,34.4c-3,3.4-5.9,6.9-9.2,10.9c6.7,11.9,18.3,18,26.8,27.1c9.1,9.7,19.4,18.2,29.5,26.9
		c9.5,8.2,19.4,16,28.6,23.5c-5.7,20.8-11.1,40.5-16.4,60.3c-3.9,14.3-3.9,14.4-20.9,22.5c0.7,6,1.5,12.3,2.2,18.5
		c-19.6,13.2-41.3,14.4-81,17.2c-3.6-5.9-7.3-12-11.2-18.6c-5.9,0.9-11,1.6-16.9,2.5c-2.7-7.2-8.6-8.7-15.8-8.3
		c-8,0.4-15.8,0.2-23-4.8c-7.3-5.1-11.3-11.7-10.1-20.2C7809,3347,7811.9,3336.1,7814.3,3324.6z"/>
	<path onclick="modals(this.id);"  id="3108" class="st0" d="M8431.6,3147.8c38.1,91.4,86,175.2,130.2,261.8c-23.6,11.3-47.9,17.5-72,26.5
		c-3.8-4.5-7.7-8.1-10.5-12.4c-5.3-8.2-11.8-12.4-21.8-9c-1,0.4-2.5-0.4-4.9-0.9c-2.8-6.9-3.3-15-3-22.6c0.4-10.4-4.4-17.9-10.5-25
		c-10.8-12.6-21.9-25-33-37.4c-18.1-20.4-36.8-40.3-54.1-61.3c-12.1-14.7-27.3-25.2-42.3-36.2c-2.9-2.1-7.4-2.6-11.1-2.8
		c-7.9-0.4-15.9-0.1-25.1-0.1c-2.6-4.7-5.4-9.9-8.4-14.9c-4.3-7.3-8.2-14.3-16.5-19.1c-6.3-3.6-9.8-12.1-14.2-18
		c1.3-7.7,0.4-15.2,6.6-19.2c7.7-4.9,15.3-9.6,25.6-9.5c45.3,0.5,90.6,0.2,135.9,0.2C8411.9,3147.8,8421.2,3147.8,8431.6,3147.8z"/>
	<path onclick="modals(this.id);"  id="3991" class="st0" d="M8269.7,2827.1c14.5-6.8,27.1-12.7,39.7-18.5c3.6-1.6,7.5-3.9,11.3-3.8
		c20.6,0.3,35.9-13,53.4-20.4c1.7-0.7,4.1-2.3,4.3-3.8c1.4-10.7,10.4-8.3,18.3-10.4c3.3-20.6-0.3-41.9,2.1-63.6
		c27.4-11.2,45.1-34.3,65.7-53.5c6.9,0.5,10.5,4.8,10.6,10.2c0.2,9.3,5,16.3,9.1,23.9c4,7.6,7.5,15.6,10.7,23.6
		c1.1,2.9,0.7,6.3,1.1,10.5c-5.2,2.2-10,4.1-14.6,6.4c-6.5,3.2-8.7,7.7-6.4,14.7c3.2,9.8,4.3,21.2,17.8,24.8
		c12.2-5,25.1-10.3,38.3-15.7c8.8,7,14.4,16.1,20.7,24.5c3.6,4.8,6.9,9.8,10,14.9c3.1,5,7.5,7.2,13.3,7.2c4.6,0,9.3,0.7,13.9,0.7
		c36-0.2,71.9-0.5,107.9-0.7c3.9,0,7.7,0.7,11.9,1.1c5.9,24.9,3.7,49.5,7.6,75.1c-11.6,0.4-21.2,5.4-32.9,2.5
		c-8.6-2.1-18.4,0.8-27.7,0.8c-52.6,0.1-105.2,0.1-157.9,0.1c-16.6,0-33.3,0.1-49.9-0.1c-3.8,0-7.6-1.2-11.9-1.9
		c-3.5-28.3,0.8-56.2-2.7-85.6c-13.5,5.6-25.3,12.5-37.9,15c-12.6,2.4-24.5,5.4-35.9,11.2c-8.9,4.6-17.8,9.1-26.8,13.4
		c-15.6,7.5-31.3,14.7-47.6,22.4C8276.6,2846.6,8275.3,2837.1,8269.7,2827.1z"/>
	<path onclick="modals(this.id);"  id="3998" class="st0" d="M8425.8,2802.4c0,27.3,0,51.2,0,76c-4.7,2.1-9.3,4.3-14.4,6.6c-1.4,10.3-2.8,20.8-4.2,31.3
		c-0.2,1.3-1,2.9-0.5,3.9c5.9,14-1.6,25.6-6.7,38.2c-18.7,6.8-38.8,4.9-60.3,5.8c5.2,17.6,18.4,27.9,25.1,41.9
		c6.8,14.2,16.3,27.2,20.3,42c-3.8,4.7-8,3.5-11.7,3.6c-33.3,0.1-66.6,0-99.9,0.1c-8.2,0-15.6-0.7-22.3-6.5
		c-3.2-2.7-8.4-3.3-12.8-4.1c-4.5-0.8-9.1-0.7-14.3-1c-1.1-4.2-1.5-8.3-3.2-11.6c-1.5-2.8-4.6-4.7-6.8-7.1
		c-4.7-5.1-6.9-11.1-6.3-18.2c0.5-5.9,0.6-11.8,0.9-18.9c4.3-0.6,8.1-1.8,11.7-1.5c7.3,0.5,14.4,2.2,21.7,2.7
		c4.4,0.3,8.9-0.6,14.6-1.1c0.4-16.9,0.8-32.7,0.9-48.5c0.1-8-0.3-15.6,2.6-23.5c3.8-10.2,1.7-20.8-4-29.9
		c14.2-14.4,31-22.3,47.8-30.3c19.8-9.4,39.5-19.1,59.3-28.6c5.4-2.6,10.8-6,16.5-6.8C8394.9,2814.8,8409.4,2810.7,8425.8,2802.4z"
		/>
	<path onclick="modals(this.id);"  id="3101" class="st0" d="M8277.8,3323.9c-9.6-0.9-18.8-1.8-27.9-2.7c-13.2-1.3-26.3-3-39.6-3.8
		c-7.6-0.4-14.1-3.2-20.8-6.1c-28.1-12.3-52.8-30.6-79.8-44.7c-4.6-2.4-8.2-6.5-13-10.3c-6.5,2.2-13.3,4.4-20.2,6.7
		c-4.8-8.4-8.7-15.8-3.2-24.9c1.2-2,0.7-5.1,0.8-7.8c0.3-9.1,0.5-18.3,0.8-30.6c-6.7-7.6-15.3-17.6-24.2-27.8
		c0.7-5.9,6-8.4,9.3-12.3c4.6-5.4,11.6-9.4,9.4-18.4c-0.4-1.5,1.2-3.7,2.2-5.3c3.4-5.1,31.9-31.4,39.7-36.8
		c10.4,4.8,15.1,16,23.4,23.4c8.4,7.5,15.5,16.4,22.7,24.2c14.2,0.5,26.7,1,40.1,1.5c6,23.7-2.2,48.2,6.8,71.5
		c16.3-0.1,29.8-10.8,46.2-11.8c8.5,6.9,9.2,18.8,17.3,27.3c4.4,0.5,9.6,1.3,14.8,1.6c7.2,0.5,15.4-1.2,21.5,1.5
		c8.8,4,16.2,11.2,25.1,17.8C8312.8,3280.4,8295.4,3301.8,8277.8,3323.9z"/>
	<path onclick="modals(this.id);"  id="3120" class="st0" d="M8950.7,2288.1c12.1-1.4,23.2-0.2,34.2,2.7c5,1.4,10.1,3.3,14.4,6.1
		c12.2,8.1,23.9,16.9,35.9,25.2c6.8,4.7,11.3,10.5,14.3,18.4c15.1,39.7,15.3,39.6,15.2,81.2c0,11.3-0.5,22.6-0.7,33.9
		c-7,7.9-14,15.8-21,23.7c-0.9,1-1.7,2-2.5,3.1c-18.9,27.5-46.3,33.2-77.1,29.8c-7.9-0.9-15.8-2.1-23.7-3.3
		c-1.2-0.2-2.3-1.2-4.9-2.6c-1.1-11.5-2.6-23.9-3.6-36.3c-2.1-27.1-3.6-54.3-5.9-81.3c-1.3-15.2-3.8-30.3-6-45.3
		c-1.1-7.6-0.1-14.2,5-20.5C8933.7,2311.5,8942.2,2299.6,8950.7,2288.1z"/>
	<path onclick="modals(this.id);"  id="3106" class="st0" d="M8194.4,3323.5c1.4,15.2,2.1,28.3-0.4,42.6c-9.6-0.9-18.1-1-26.4-2.5
		c-9.6-1.8-16.7,1.4-23.2,8.2c-7.3,7.7-15.2,14.9-22.5,22.6c-4.4,4.7-9.5,6.8-15.9,6.7c-9.3-0.2-18.6-0.3-27.9,0.1
		c-3.7,0.2-7.4,1.6-12.5,2.9c1.6,7.3,2.9,13.6,4.4,19.8c1.4,5.7,3,11.4,4.6,17.7c-14.6,8-30.3,7.5-44.9,10.8
		c-14.1,3.2-28.5,5.4-43.3,8.2c-7.1-14-4.2-28.4-7.2-41.7c-2.9-12.9-3.3-26.3-5-40.8c2.7-1.3,6.1-3,10.7-5.3
		c6.9-15.2,10.4-32.9,15-50c8.1-30.1,9.2-26.3,32.7-34.4c20-6.9,40.2-13.6,60.9-20.6c13.4,7.6,27.2,15.6,41.1,23.2
		c6.4,3.4,13.2,6,19.8,8.9c1.8,0.8,4,1.2,5.3,2.6C8169.2,3312.2,8181.5,3317.5,8194.4,3323.5z"/>
	<path onclick="modals(this.id);"  id="3932" class="st0" d="M7319.3,2992.4c-3-17.2-3.4-74.4-0.7-96.2c4-0.6,8.3-1.7,12.7-1.8c17.9-0.3,35.9-0.2,53.8-0.4
		c3.3,0,6.7-0.4,9.7-1.6c29.7-11.7,59.3-23.5,88.9-35.3c6.9-2.7,11.8-6.6,16-13.6c5.3-8.9,15.3-14.1,25.7-17.1
		c0.7-0.2,2,1.4,3.5,2.5c-1.7,3.2-3.5,6.4-5.7,10.6c17.7,17.9,35.4,35.9,53.8,54.6c-2.2,2.8-3.9,5.5-6,7.7
		c-15.3,15.6-30.7,31.1-46.1,46.7c-3.3,3.3-6.6,6.6-9.7,10c-5.2,5.6-11.5,8.4-19.1,9.5c-53.9,7.7-107.8,15.7-161.7,23.5
		C7329.7,2992.1,7325,2992.1,7319.3,2992.4z"/>
	<path onclick="modals(this.id);"  id="3113" class="st0" d="M8362.3,1576.1c13.7-5.9,26.1-1.2,38.4-0.6c12.5,0.6,25.1,0.3,38,0.4c3.7,11.3,3.9,22,4,32.4
		c0,22-1.2,43.9-0.6,65.9c0.5,17.2,2.9,34.4,4.7,51.6c0.2,1.8,1.8,3.5,2.7,5.2c7.9,1.8,15.6,3.6,23.9,5.5c0,6.1,0,11.8,0,18.5
		c-4.3,0.8-8.1,2.2-11.8,2.2c-45.3,0.1-90.6,0.1-135.8,0c-3.8,0-7.7-1-12.1-1.5c-3.4-36.3-6.8-71.7-10.3-108.3
		c10.6,0,19.7-0.3,28.8,0.1c9.3,0.3,16.6-3.9,24.6-9.3C8362.6,1618.2,8360.6,1596.8,8362.3,1576.1z"/>
	<path onclick="modals(this.id);"  id="3958" class="st0" d="M7977.7,2752.6c-12.9-12.8-24.8-24.3-36.2-36.2c-2.6-2.7-3.9-6.7-5.3-10.3
		c-1.3-3.6-1.9-7.5-2.9-12.1c-18.1-0.8-28.6-12.3-38.9-26.3c6.5-12,18.3-19.2,26.7-30.2c-0.4-1.9-1.7-4.7-1.1-6.9
		c0.5-1.9,3.5-4.7,5-4.5c3.3,0.4,6.3,1.8,9.2-1c14.5-14.5,29.5-28.5,43.1-43.8c-3.2-11.9-15.2-16-19.7-26.5c1.4-1.8,2.9-3.8,4.2-5.4
		c2,0.3,3.7,0.1,4.4,0.8c19.8,21.4,39.9,42.6,59.1,64.6c21.3,24.5,41.8,49.8,62.6,74.8c2.5,3,4.6,6.3,7.4,10.1
		c-7.6,10-17.1,14.8-29,15c-3.3,0.1-6.6,0-10,0.1c-26.3,0.7-49.4,9.1-68,28.3C7985.6,2745.6,7982.5,2748.2,7977.7,2752.6z"/>
	<path onclick="modals(this.id);"  id="3968" class="st0" d="M8209.5,2453.3c4.7,0,8.6,0,13.2,0c11.6,16.3,23.4,33.1,35.3,49.8c2.7,3.8,5.3,7.7,8.5,11
		c12.4,12.9,17.1,28,13.4,45.6c-1.6,7.7,0.2,14.5,5.4,20.4c5.1,5.9,7.1,12.5,5.8,20.4c-0.6,3.9,0.3,8-0.4,11.9
		c-4.8,28.4-3.1,57-3,85.6c0.1,10.6-2.9,19.1-9.3,27.5c-12.4,16.4-24,33.4-35.8,50.4c-2.9,4.1-5.9,7.1-12.4,6.3
		c-2.1-12.6-3.6-25.4-4.2-38.5c-1.4-28.5-3.3-56.9-5-85.4c-1.6-25.8-3.2-51.7-4.9-77.5c-1.7-25.1-3.6-50.3-5.4-75.4
		c-0.9-12.6-2.1-25.1-2.7-37.7C8207.8,2463,8208.9,2458.5,8209.5,2453.3z"/>
	<path onclick="modals(this.id);"  id="3983" class="st0" d="M8375.6,2703.9c-9-3.9-12.7-9.4-12.6-17.7c0.2-16-0.9-32,0.4-47.9c0.9-11.1,4.4-22.1,7.8-32.8
		c1-3.1,5.4-5.2,10-9.3c0.3-28.9,0.7-60.1,1.1-92.2c28.8-6.9,57.3-3.3,85.9-4c4.4,7.4,8.4,14.3,12.4,21.2c-8.7,11-7.6,23.9-8.8,36
		c-2.1,21.8-2.8,43.8-4.6,65.6c-0.4,5.1-2,10.6-4.7,14.9c-14,23.2-34,41-56.4,55.6C8397,2699.1,8385.1,2700.7,8375.6,2703.9z"/>
	<path onclick="modals(this.id);"  id="3944" class="st0" d="M8060.9,2357.6c-1,2.8-1.1,4.4-2,5.2c-21,20.3-38.5,44-61.4,62.4c-7.7,6.2-15,13.3-21.1,21.2
		c-5.5,7.2-9.1,15.8-14.3,25.2c-10.4,2.5-22.3,0.9-34.2,0.9c-5.3,0-8.3-3.4-9.9-9.8c7.6-7.1,16.7-13.8,23.5-22.4
		c6.8-8.7,11.3-19.3,17.3-29.8c-10.6-7.6-21.2-14.2-30.5-22.2c-9-7.7-17.3-16.3-24.9-25.3c2.9-11.6,13.9-19.7,9.6-32.2
		c4-10.4,10-19.6,11.5-31.5c1.3-10.6-2.4-22.8,6.2-33.2c13.1,7.3,25.7,14.4,38.6,21.6c4.4-2.3,8.4-4.4,13.4-7
		C8009.4,2306,8035.4,2332.1,8060.9,2357.6z"/>
	<path onclick="modals(this.id);"  id="3966" class="st0" d="M8462,2358.6c1.6,17.9,3.1,36.2,4.7,54.2c9,3.2,19,4.4,25.5,9.9c6.6,5.6,9.6,15.4,14.8,24.3
		c-6,4.5-11.1,8.4-16.7,12.6c-1.3,21.9,3.7,43.2,8,67.6c-4.3-3.5-7-4.8-8.4-7c-3.2-5-5.6-10.5-8.5-15.8c-2.5-4.6-5.3-9-7.8-13.3
		c-43.2-0.4-85.5,2.4-128.4-0.4c-4.9-14.1-1.7-27.8-2.5-41.8c12.4-5.1,24.9-0.3,37.5-4.4c0.5-3.5,1.4-7.2,1.5-10.9
		c0.2-19.9,0-39.9,0.1-59.8c0-5.1,0.7-10.3,1.1-15.1C8399.6,2355.5,8443.7,2355.4,8462,2358.6z"/>
	<path onclick="modals(this.id);"  id="3114" class="st0" d="M8472.7,1877.7c-53.2,2.5-81.6,1.5-103.2-4c-0.7-4-2.4-8.5-2.1-12.9
		c0.8-11.6-4.1-20.2-11.5-28.6c-12.8-14.4-24.6-29.7-36.8-44.7c-2.9-3.6-5.6-7.5-7.9-11.5c-1.8-3,1.2-9,4.7-9.7
		c2.6-0.6,5.2-0.8,7.9-0.8c46.6,0,93.3,0,139.9,0.1c2.6,0,5.1,0.8,8.4,1.4c3.5,9.2,1.6,18.6,2.2,27.7c0.6,9.2-0.1,18.6-0.2,27.9
		c-0.1,9.3,0,18.7-0.2,28C8473.7,1859.6,8474.7,1868.9,8472.7,1877.7z"/>
	<path onclick="modals(this.id);"  id="3946" class="st0" d="M8195.5,2405.3c-38.9,20.6-75.6,40.5-115.8,56c-17.9-15.9-34-33.3-51.5-50.5
		c14.9-21,32.4-37.8,52.8-53.9c5.3,6.7,10.3,13.4,15.8,19.6c1.4,1.6,4.9,2.7,6.9,2.2c2.1-0.5,4.7-3.1,5.2-5.2
		c1.1-5.1,1.1-10.4,1.6-17.1c8.8-1.9,17.6-3.8,27.1-5.9c4.6-6.2,3.1-13.5,2.3-20.6c-0.9-8.6-2.3-17.1-3.1-25.6
		c-0.3-3.1,0.6-6.4,1.1-10.2c13-0.2,24.1,4.4,35.2,7.9c3.1,1,6.4,5.2,7.3,8.6c4,14.7,9,29,9.7,44.6
		C8190.7,2371.8,8193.5,2388.1,8195.5,2405.3z"/>
	<path onclick="modals(this.id);"  id="3103" class="st0" d="M8209.6,3107.9c-2.3-11.9-2.6-21.6,0-31.6c14.6-4.8,29.4,0.1,44.9-3.6c1.5-3.3,3.3-7.3,5.5-12.1
		c43.4,0,87.1,0,130.4,0c10.7,17.5,30.8,62.7,34,76.1c-0.2,0.6-0.3,1.4-0.8,1.8c-0.4,0.4-1.2,0.6-1.9,0.6
		c-49.2,0.2-98.3,0.4-147.5,0.6c-4.6,0-9.3-0.2-13.9-0.6c-1.2-0.1-2.3-1.1-3.7-1.8c-2.4-11.3-4.9-22.7-7.4-34.9
		C8236,3100.3,8223.3,3096.9,8209.6,3107.9z"/>
	<path onclick="modals(this.id);"  id="3969" class="st0" d="M8049.7,2823.2c-21.7-21.5-42.4-42-63-62.5c7.5-12.6,13-18.5,22.9-23.9
		c16.6-9,33.9-14.9,53.2-14.3c10.6,0.4,20.8-1.2,30.1-7.9c6.3-4.6,12.4-3.2,18.1,1.8c2,1.7,3.9,3.6,5.6,5.7
		c26.5,30.6,53,61.1,79.5,91.8c1.7,1.9,2.8,4.4,4.1,6.4c-10.5,13.3-13.1,14.1-26.2,7.8c-13.7-6.7-27.5-13.3-41-20.5
		c-13.4-7.2-28.2-6.7-42.6-8.8c-9.2,4.5-20.8,3.4-28,12.9C8058.9,2816.2,8053.8,2819.4,8049.7,2823.2z"/>
	<path onclick="modals(this.id);"  id="3948" class="st0" d="M7890.4,2567.6c-2.6-4-5.4-8.3-8.3-12.9c12.5-18.2,30.5-30,46.1-45.6c10.7,9.4,20.5,18.6,27,30.6
		c-10.9,17.6-10.9,17.6,2.7,31.8c2.3,2.4,4.4,4.9,7.5,8.3c-5.8,9.9-15,16.5-22.5,24.6c-5.3,5.7-10.5,10.3-19.7,11.3
		c-7.7,0.9-15.7,6.9-14.3,18.1c0.3,2.6-2,6-3.9,8.4c-5.8,7.2-11.5,14.6-18.1,21c-8.9,8.7-18.2,17.2-28.1,24.6
		c-3.8,2.8-9.9,2.5-16.1,3.8c-8-8.7-16.2-17.3-23.9-26.3c-7.3-8.4-18.4-13.1-23.7-23.6c7.2-12.1,19.3-18.4,29.1-28.6
		c4.3,3,8.5,5.8,12.5,8.6C7850,2612.2,7880.3,2582,7890.4,2567.6z"/>
	<path onclick="modals(this.id);"  id="3923" class="st0" d="M7678.8,2316.5c11.1,14.1,19.5,27.6,28.1,40.8c20.3,31.2,40,62.7,60.7,93.5
		c5.7,8.4,8.3,16.2,5.7,25.9c-1.9,6.9-3.4,14-5.3,22c-4.6-0.3-8.4-0.1-12-0.8c-9-1.8-18-4.1-26.5-6c-16,12.2-26.9,28.5-42.5,39.2
		c-6.2-4-5.6-9.6-6.2-14.8c-2.3-19-4.7-38-7-57c-0.2-2-1.1-4.3-0.3-5.8c5.3-10.6,0-19.7-4.8-28.1c-7.5-12.8-5.2-26.9-6.4-40.3
		c-0.7-7.3,4.7-15,6.3-22.7c2.4-11.7,3.8-23.6,5.9-35.3C7675,2324,7676.7,2321.3,7678.8,2316.5z"/>
	<path onclick="modals(this.id);"  id="3977" class="st0" d="M8290.1,2534.2c15.3-2.8,63.6-2.8,82,0.2c0.7,4.6,2.1,9.6,2.2,14.6c0.2,9.3-0.3,18.6-0.5,27.9
		c-0.2,6.5,1,13.2-7.1,16.9c-2.2,1-3,5.6-4,8.7c-5.2,15.8-9,31.8-7.8,48.7c0.8,11.2,0.1,22.5,0.1,34.2c-9.9,1.7-15.3-6-23.1-7.3
		c-16.2,4.4-16.2,4.4-34.1,20c-0.7-3.8-1.8-6.8-1.9-9.8c-0.9-27.9,0.2-55.7,3.3-83.4c1.3-11.7,1-22.4-8.2-31.2
		c-5.3-5-5.8-11.6-4.4-18.5C8287.9,2548.3,8288.9,2541.3,8290.1,2534.2z"/>
	<path onclick="modals(this.id);"  id="3984" class="st0" d="M8388.8,2711.5c2.2,16.4,1.4,32.8,0.3,49.9c-3.8,0.2-7.3-0.3-10.1,0.9c-2.8,1.1-6.8,3.6-7,5.8
		c-0.7,7.3-5.5,10-11.1,12.8c-7.7,3.8-15.2,8.2-22.9,12.1c-2.9,1.4-6.3,3-9.3,2.8c-15.5-1-28,7.4-41.4,12.8
		c-6.7,2.7-12.4,7.7-20.9,8.3c-1.3-2.8-3.2-5.6-4-8.6c-1-3.8-0.7-8-1.7-11.8c-7.4-29.3-2.5-28.5,10.1-45.6
		c12.9-17.7,26.7-34.8,40.7-51.6c10.4-12.5,17.5-13.6,31.1-6.2c5.8,3.2,11.4,6.8,16.8,10.6C8372.3,2712.9,8372.2,2713,8388.8,2711.5
		z"/>
	<path onclick="modals(this.id);"  id="3945" class="st0" d="M7934.6,2176.6c9.9,13.1,19.1,25.3,28.5,37.3c5.2,6.6,9.1,14.7,18.8,16.8
		c2.7,0.6,5.2,4.1,6.9,6.8c10.1,16,25.4,27,38.6,39.9c5.8,5.7,11.4,5,17.8,2.6c15.4,12.4,23.5,30.4,36.5,45.7
		c8.1-4.2,14.9-7.8,21.3-11.1c7.3-12-3.8-24.2,2.6-36.6c6.8-1.8,13.2,2.5,21.2,3.4c1.7,20.1,3.4,39.6,5.1,59
		c-8.2,7.2-18.3,4.5-28.1,7.6c-1.1,4.1-2.3,8.9-3.6,13.6c-9.9-1.8-8.6-13.4-17.3-17.2c-3.7,2.2-8.1,4.7-12.9,7.5
		c-1.6-0.8-3.6-1.4-4.9-2.7c-22.7-22.5-45.2-45-67.9-67.5c-4.6-4.6-9.5-8.9-14.7-13.7c-3.1,2.1-5.1,3.6-7.3,5
		c-1.6,1.1-3.3,2.1-5.6,3.6c-8.9-3.8-16.7-8-21.8-18c-4.7-9.2-13.1-16.5-20.5-25.6c1.2-1.9,2.5-4,3.8-6c1.4-2.2,2.9-4.3,4.5-6.6
		c-2.8-12.5-15.9-18.3-19-30.5C7920.9,2183.2,7927,2178.9,7934.6,2176.6z"/>
	<path onclick="modals(this.id);"  id="3924" class="st0" d="M7679,2299.1c1.8-12.8,4.6-26.5,5.4-40.4c0.7-12.6,6.9-19.5,17.9-23.4c1.8-0.7,3.8-1.1,6.7-2
		c0.8,4,1.5,7.7,2.2,11.4c2.6,13.8,6.7,27,13.7,39.3c10.3,17.9,19.9,36.1,29.9,54.1c7.4,13.4,15,26.7,22.4,40
		c7.5,13.3,14.9,26.6,22.7,40.5c-6.7,10.2-17.9,13.1-28,18.9c-13.9-13.8-21.6-30.9-32.3-45.9c-10.5-14.6-19.8-30-29.6-45.1
		C7699.9,2331,7689.7,2315.4,7679,2299.1z"/>
	<path onclick="modals(this.id);"  id="3971" class="st0" d="M7856.4,2876.7c14-14,27-27.1,41-41c9.5,6.6,16.2,14.8,23.7,22.1c7.6,7.4,15.1,15,22.6,22.5
		c7,7,14.2,14,21.1,21.2c7.3,7.6,15.6,14.2,21.8,23.5c-8.4,8.6-15,17.4-18.1,28.6c-2.4,8.7-10.3,13.4-16.6,18.9
		C7938.3,2964.6,7879.9,2906.1,7856.4,2876.7z"/>
	<path onclick="modals(this.id);"  id="3953" class="st0" d="M7709.5,2838.3c-9.9,10.2-18.6,19.2-28.2,29.2c2.1,4,4.5,8.5,7.1,13.5c-0.7,1.3-1.2,3.3-2.5,4.6
		c-23.9,24.1-48.4,47.8-71.9,72.3c-28.4,29.8-58.8,57.9-83.5,91.2c-1.5,2.1-3.8,3.6-5.7,5.3c-7.8,0.1-12.1-5.7-17.1-9.6
		c-6-4.7-6.6-11.3-2.6-17.8c1.4-2.2,3.3-4.2,5-6.2c0.9-1,1.9-1.9,2.8-2.9c4.1-4.3,8.3-8.5,12.9-13.3c4.1,2.5,7.9,4.8,12.6,7.6
		c17.5-12.8,33.3-27.7,50.4-42.2c-3.1-5.1-5.7-9.4-8.2-13.5c23.4-24.8,46-49,68.9-73.1c18.3-19.3,36.7-38.4,55.4-57.4
		c5.5-5.6,11.8-10.5,17.6-15.5c9.5,2.7,13.6,9.9,19.4,15.5c-2.4,9.4-11.1,12.9-16.1,20.8C7720.1,2843.9,7715.7,2841.6,7709.5,2838.3
		z"/>
	<path onclick="modals(this.id);"  id="3100" class="st0" d="M8118.4,3089.9c3.8-4.2,7.3-8.2,10.9-12c4.9-5.2,12-9,8.8-18.3c-0.4-1.2,1.3-3.6,2.6-5
		c16.9-18.8,33.4-37.9,54-53c0.3-0.3,1.2,0.2,1.8,0.3c0.8,0.9,2.3,1.8,2.3,2.8c0.3,41.9,0.5,83.9,0.5,125.8c0,2.5-1.2,4.9-2,8.1
		c-9.7,1.8-19,1.1-28.1,0.7c-3-0.1-6.6-1.6-8.8-3.7C8145.6,3121.5,8130.6,3107.3,8118.4,3089.9z"/>
	<path onclick="modals(this.id);"  id="3102" class="st0" d="M8039.9,3180.2c13,3.8,17.1,14.7,25,22.3c-0.7,12.8,2.7,26-3,38.9c-1.4,3.2-0.3,7.8,0.4,11.7
		c0.7,4.4,2.2,8.7,3.7,14.2c-7,2.7-12.9,5.3-19.1,7.4c-5.6,2-11.9,2.6-17,5.4c-10.3,5.7-19.7,3.1-28-2.6c-13.1-9-26.3-18-37.2-31.4
		c4.3-8.1,7.7-16.3,19.8-14.6c2.4,0.3,5.6-2.8,7.9-5C8008.1,3211.4,8023.7,3196,8039.9,3180.2z"/>
	<path onclick="modals(this.id);"  id="3976" class="st0" d="M8058.5,2831.9c6.6-17.6,21.3-19.8,33-23.4c10.9-3.3,23.7,0.4,34.7,5.9
		c15.5,7.8,30.9,15.7,46.5,23.1c6.4,3,13.4,4.8,21.7,7.6c2.4,13.5,1.1,28.7,0.6,44.8c-3.3,1.9-6.6,3.9-10.1,5.6
		c-2.9,1.4-6,2.5-9.4,3.9c-11.1-6.9-18.3-17.4-27-26.5c-8.2-8.5-17.4-16.1-26.7-24.5c-11.8,2.7-16,15.5-26.6,20.7
		c-2.3-1.9-5.1-3.8-7.3-6.2C8077.8,2852.6,8068,2842,8058.5,2831.9z"/>
	<path onclick="modals(this.id);"  id="3952" class="st0" d="M7648.3,2837.4c2.7,1.4,4.7,2,6,3.3c3.8,3.6,7.3,7.6,11.7,12.3c-4.1,4.8-7.7,9.3-11.7,13.5
		c-24,24.7-48.2,49.4-72.3,74.1c-2.3,2.4-4.7,4.7-7,7.1c-4.9,4.7-6.4,9.8-2.2,15.9c1,1.5,1.2,3.6,2.2,6.6
		c-11.8,10.1-23.7,20.4-36.3,31.1c-9.7-8.8-16.5-18.1-22.3-29.6c11.8-17.8,28.5-31.1,42.6-46.5c13.9-15.1,29.6-28.5,44.3-42.9
		C7618.5,2867.4,7633.3,2852.3,7648.3,2837.4z"/>
	<path onclick="modals(this.id);"  id="3959" class="st0" d="M8043,2832.7c-5.8,5.1-11.2,9.7-17.5,15.2c-2.8-2.2-5.5-3.8-7.7-6
		c-48-47.9-95.9-95.8-143.8-143.8c-1.4-1.4-2.5-3.1-4.1-5.2c1.9-8.3,9.4-11.8,14.2-17.3c8.3,2.1,11.9,8.1,16.5,12.5
		c7.2,6.9,13.8,14.7,26.6,12c-2.5,10.7,1.8,16.7,7.8,22.5c28.2,27.2,56.2,54.6,84.2,82C8027.8,2813,8035.8,2821.7,8043,2832.7z"/>
	<path onclick="modals(this.id);"  id="3992" class="st0" d="M8247.6,2975.6c-15.7,3.4-30.1-5-44.1-0.2c-3.8,5.3-7,10.4-10.9,14.7c-3.9,4.4-8.6,8.1-14,13.1
		c-6.2-5.8-11.7-11.1-17.7-16.7c-10,4.2-15.2,13.3-23,19.1c-4.5,3.3-7.3,1.2-8.4-4.8c6.9-6.5,14.1-13.2,21.3-20
		c2.4-2.3,4.9-4.5,7-7.1c11.6-14,25.1-25.4,42.4-30.3c6.6-12.1,0.7-24.8,4.8-35.8c20.8-14.1,31.5-18.6,43.7-18.3
		c0.6,3.7,2,7.6,1.6,11.3C8247.1,2925.5,8251.5,2950.9,8247.6,2975.6z"/>
	<path onclick="modals(this.id);"  id="3960" class="st0" d="M8017.7,2855.9c-5.5,5.7-10.5,10.8-16.5,17c-5-4.4-9.5-7.9-13.6-11.9
		c-39.5-39.4-78.9-78.9-118.4-118.3c-7.5-7.5-15.2-14.7-23.1-22.3c-0.1-0.3-0.7-1-0.6-1.5c0.8-4.5,1.7-9.1,2.8-14.7
		c4.4-1.4,9.3-2.8,14.8-4.5C7914.3,2751.3,7965.1,2802.7,8017.7,2855.9z"/>
	<path onclick="modals(this.id);"  id="3942" class="st0" d="M7781.4,2554.2c5.8-13.6,17.1-20.2,25.1-30.2c4.5,2.1,8.6,4,13.4,6.3c7.6-5.4,15.4-11,22.9-16.4
		c1.4,1.1,2.3,1.5,2.2,1.8c-1.2,14.6,6.3,24.8,16.8,33.7c6,5.1,11.2,11.1,17.1,17.1c-4.1,10.2-12.8,15.7-19.4,22.7
		c-6.7,7.1-13.4,14.4-21.9,20.7C7817.8,2591.9,7800.2,2573.2,7781.4,2554.2z"/>
	<path onclick="modals(this.id);"  id="3943" class="st0" d="M7921.9,2502.4c-15.8,14.9-31.2,29.5-47.1,44.5c-8.1-2.8-12.6-9.6-17.7-15.4
		c-1.9-2.2-2.8-6.1-2.8-9.2c-0.2-26.6-0.1-53.3,0-79.9c0-1.9,0.6-3.9,1.2-5.7c1.2-3.8,7.2-5.2,9.8-2.1c5.2,6,9.9,12.5,15.1,18.5
		c11.4,13,23.1,25.7,34.4,38.7C7917.4,2494.7,7919.2,2498.3,7921.9,2502.4z"/>
	<path onclick="modals(this.id);"  id="3926" class="st0" d="M7776.8,2446.1c9.6-5.7,18-10.7,26.8-16c2.4,2.7,4.7,4.3,5.8,6.6c8.5,16,19.9,29.7,31.9,43.1
		c6.4,7.1,6.5,11.7,0,19.2c-6.4,7.4-13.8,14-20.6,20.7c-5.2-3-9.1-5.2-13.9-8c-5.9,5.7-11.4,11.4-17.2,16.7
		c-5.6,5.1-10,11.7-17.1,17.4c-5-12.3-1-21.9,0.7-31.2c2.4-13.7,5.7-27.3,9.3-40.7c2-7.5,2.7-14.2-2.7-20.6
		C7778.8,2451.8,7778.4,2449.7,7776.8,2446.1z"/>
	<path onclick="modals(this.id);"  id="3921" class="st0" d="M7636.5,2575.9c-15-6.4-27.6-11.8-41-17.5c-0.2-10.1,1.1-19.9-2.3-29.4
		c-1.4-3.9-0.6-4.2,5.3-15.4c5.1,1,10.7,2.2,17.5,3.5c5-9.5,9.9-18.8,15.4-29.2c13.8,2.7,25.7,9.7,38.9,15
		c3.2,13.5,2.7,27.2,4.9,41.1c-7.1-1.8-12.6-3.3-18.3-4.7C7648,2550,7640.6,2560.6,7636.5,2575.9z"/>
	<path onclick="modals(this.id);"  id="3967" class="st0" d="M8270.2,2504.7c1.8-5.4,3.7-9.6,4.7-13.9c1-4.4,1.1-9,1.6-14.2c13.9-1.7,27-3.3,41.4-5.1
		c1-2.9,2-6.5,3.3-10c2.3-6.2,6.7-4.6,11.5-3.8c4.4,13.3-1.1,27.3,5.2,41c5.6,0.4,11.4,0.7,17.2,1.1c5.2,0.3,10.5,0.6,16.2,0.9
		c3.4,6.8,2.7,13.1,0.9,19.1c-4.7,4.4-10.1,4.4-15.4,4.4c-20,0-40-0.2-60,0.1c-7.2,0.1-13-1.5-17.2-7.8
		C8277.2,2512.6,8273.9,2509.2,8270.2,2504.7z"/>
	<path onclick="modals(this.id);"  id="3116" class="st0" d="M7946.5,1856.4c-10.9-16.4-20.4-30.6-30.4-45.6c6.7-13.6,18.7-22.6,30.7-32.8
		c23,23.4,42.1,48.4,61,74.8c-6.2,6.7-12.4,12.3-20.8,16.6C7975.1,1861,7964.2,1848.3,7946.5,1856.4z"/>
	<path onclick="modals(this.id);"  id="3922" class="st0" d="M7651.2,2400.6c4.1,11.8,7.5,21.8,11.1,31.8c1.1,3.1,3,6,3.7,9.2c1.6,7.1-7,13.6-1.8,21
		c4.1,5.9,4.6,12.3,4.2,19.1c-0.1,2.6-0.6,5.1-1,9c-13.1-4.7-25.5-9-36.7-13c-7.8,3.2-9,9.6-11.9,14.7c-2.6,4.5-5,9.2-7.6,14.3
		c-4.4-1.4-8.1-2.6-12.5-4.1c0.6-16.3,2.5-31.4,11.7-45.6c6.4-9.8,10-21.5,16.5-36.2C7632.6,2416,7641.7,2408.4,7651.2,2400.6z"/>
	<path onclick="modals(this.id);"  id="3954" class="st0" d="M7762,2723.2c9.5,9.5,17,16.9,24.4,24.5c1.8,1.8,3.1,4.2,5,6.8c-3.7,4.2-7.1,8.2-10.7,12
		c-6.8,7.2-15.1,13.3-14.7,24.7c-6.7,6.1-7.7,14.5-9.3,22.8c-0.5,2.4-2.5,4.5-4.2,7.5c-18.1-13.5-30.5-28.8-45.3-42.7
		C7722.4,2757.2,7744.2,2744,7762,2723.2z"/>
	<path onclick="modals(this.id);"  id="3961" class="st0" d="M7836.2,2724.7c4.9,4.5,8.8,8,12.6,11.7c22.4,21.7,44.9,43.1,67,65.1
		c9.3,9.3,17.6,19.5,27.2,30.3c-5.3,5.7-10.1,10.9-15.6,16.9c-3.2-2-6.2-3.3-8.4-5.4c-32-32.6-63.9-65.3-95.8-98
		c-0.9-0.9-1.5-2.2-2.4-3.6C7823.1,2734.4,7829.1,2730.2,7836.2,2724.7z"/>
	<path onclick="modals(this.id);"  id="3941" class="st0" d="M7818.3,2606.2c-10.7,9.6-20.5,18.4-30.2,27.1c-6.3-3.5-12.1-6.5-17.7-9.8
		c-1.5-0.9-3.3-2.6-3.6-4.2c-1.2-7.9-6.9-12.7-11.8-18c-8.5-9.2-17.2-18.3-26.3-28.1c8.2-11.1,19.2-18.4,28.2-27.3
		C7774.6,2559.2,7804.3,2588.2,7818.3,2606.2z"/>
	<path onclick="modals(this.id);"  id="3962" class="st0" d="M7811.7,2748.3c10.1,10.8,19.2,20.4,29.1,31c-3.8,10.4-14.4,15.6-22.2,23.4
		c-8,8-16.1,15.8-24.2,23.6c-8,7.8-15.5,16.2-24.4,23.3c-7.5-4.5-12.4-9.4-16.2-16.3c6.4-7.9,14-15,13-26.1
		c5.7-6.6,10.4-13.5,9.5-22.9c-0.1-1,1.2-2.4,2.1-3.3C7789.2,2770.3,7799.6,2759.2,7811.7,2748.3z"/>
	<path onclick="modals(this.id);"  id="3933" class="st0" d="M7614.9,2857.6c-10.8,10.1-20.5,19.2-31.1,29.2c1-0.2,0.4,0.1-0.2,0c-0.6-0.1-1.3-0.4-1.8-0.9
		c-14.9-15.1-29.7-30.1-44.4-45.1c1.5-4.1,4.1-7.8,3.6-11.1c-0.5-3.5-4-6.6-6.9-11c4.2-8.2,8.7-16.9,13.7-26.8
		c3.9,2.9,7.3,4.8,10,7.4c17,16.8,33.9,33.8,50.8,50.8C7610.6,2851.9,7612.1,2854.1,7614.9,2857.6z"/>
	<path onclick="modals(this.id);"  id="3965" class="st0" d="M7890.9,2828.6c-14.6,14.3-27.7,27.2-41.7,40.9c-16-12-28.6-26-41.6-40.6
		c12.9-15.4,26.4-28.8,42-42.1C7863.6,2799.9,7876.7,2812.8,7890.9,2828.6z"/>
	<path onclick="modals(this.id);"  id="3996" class="st0" d="M7926.3,3211.9c7.2-7.3,12.8-12.9,18.3-18.5c6-6.1,12.1-11.8,14.8-20.7
		c1.6-5.1,7.3-8.9,11.9-14.1c11.2,10.5,21.2,19.9,31.5,29.6c11-4.1,14.7-15.9,24.2-20.7c5.1,0.5,8.1,4.2,4.7,7.6
		c-13.9,14.2-28.6,27.7-43.1,41.3c-0.9,0.9-2.5,1.9-3.5,1.7c-9.3-2.3-12.8,5.2-17.9,10c-3.4,3.2-6.7,6.3-11,10.3
		C7945.1,3231.8,7938.3,3220.9,7926.3,3211.9z"/>
	<path onclick="modals(this.id);"  id="3951" class="st0" d="M7663.8,2817.7c-3.4-4.2-6.5-8.5-10.1-12.3c-3.6-3.8-7.6-7.1-12.6-11.7
		c8.5-8.6,16.4-16.6,24.4-24.5c2.8-2.7,5.9-5,9.3-7.9c14.6,13.8,28.4,27,42.3,40.1c-14.3,14.7-28.1,28.8-42.6,43.6
		c-5.7-5.1-10.5-9.4-15.8-14.2C7660.4,2826.4,7662,2822.3,7663.8,2817.7z"/>
	<path onclick="modals(this.id);"  id="3947" class="st0" d="M8068.6,2467.3c-11.8,7.4-19.8,18.2-34.4,18.4c-1.4-2.7-2.8-5.5-4.2-8.4
		c-12.6-3.2-12.5-3.3-22.7-13.7c-5.5-5.6-11.5-10.8-17.5-16.4c7.1-12.8,19.2-19,28.5-28C8030.3,2426.3,8049.7,2444.7,8068.6,2467.3z
		"/>
	<path onclick="modals(this.id);"  id="3950" class="st0" d="M7695.7,2715.3c9.6-9.8,18.8-19.2,28.6-29.2c12.1,8.6,19.8,20.1,29.4,29.4
		c-8.1,13.9-24.3,30.1-54.7,55c-6.7-3.2-11.4-8.5-14.3-15.3c2.2-11.2,13.7-15.9,18.1-26.5C7700.7,2724.5,7698.3,2720,7695.7,2715.3z
		"/>
	<path onclick="modals(this.id);"  id="3955" class="st0" d="M7836.4,2697.5c0.5,8.3-0.9,14.4-6.2,19.5c-9.5,9.2-18.8,18.7-27.9,27.8
		c-13-7.6-19.3-13.6-30.9-29.4c3.3-3.7,6.7-7.7,10.3-11.4c9.8-9.8,19.7-19.5,30.6-30.3C7821.2,2682.5,7829.1,2690.4,7836.4,2697.5z"
		/>
	<path onclick="modals(this.id);"  id="3995" class="st0" d="M8027.8,3154.3c-8.6,7.8-15.9,14.4-23.5,21.2c-8.2-7.5-15.9-14.6-24.3-22.3
		c3.6-9.9,12.2-15.4,18.9-22.2c6.8-7,13-14.9,22.2-20.4c14,10.7,24.6,24.1,37.2,36.4c-3.8,7.3-9.3,11.7-15.4,16.2
		C8038.1,3160.4,8033.7,3157.8,8027.8,3154.3z"/>
	<path onclick="modals(this.id);"  id="3949" class="st0" d="M7733.1,2679.4c14-14.5,25.2-30.1,41.2-42.3c6.8,3.5,11,9.5,16.1,14.4c4.8,4.6,9.2,9.5,14.6,15.1
		c-11.7,15.3-26.8,28-40.8,42.3C7751.8,2700.5,7743.1,2689.8,7733.1,2679.4z"/>
	<path onclick="modals(this.id);"  id="3927" class="st0" d="M7720.7,2566.1c-10.5-8.8-19.1-16.8-26.7-26.8c3.2-3.7,5.7-6.7,8.4-9.5
		c9.4-9.4,18.9-18.7,28.5-28.2c11.8,1.2,22.4,4,32.8,7.9c1.6,10.2-1.1,17.9-8,24.2C7744.5,2544.1,7733.3,2554.5,7720.7,2566.1z"/>
	<path onclick="modals(this.id);"  id="3987" class="st0" d="M8048.9,2970.8c6.7-4.2,12.7-8,18.9-11.9c14.9,6.4,21.1,23.3,38.2,28.1
		c3.3-4.6,7.2-9.9,10.4-14.4c8.2,1.9,13.9,3.3,19.6,4.6c-6,11.2-20.4,26.4-39.2,41.3c-5.8-3.7-11.3-8.7-17.7-10.9
		c-5.9-2-13.2,1.5-19.7-4.4c-0.3-5.1,0.2-11.3-1.4-16.8C8056.3,2981.3,8052.4,2976.6,8048.9,2970.8z"/>
	<path onclick="modals(this.id);"  id="3973" class="st0" d="M8029.1,2966.1c-2,2.7-2.5,4.2-3.6,4.7c-20.7,10.1-41.4,20.1-63.2,30.6
		c-1.3-7.9-2.4-14.2-3.5-20.5c4.3-10,14-13.9,21.6-19.5c-0.7-16.6-0.7-16.6,14.3-28.7c6.6,3.9,11.4,10.2,17,15.6
		C8017.5,2953.9,8022.9,2959.7,8029.1,2966.1z"/>
	<path onclick="modals(this.id);"  id="3986" class="st0" d="M8149.4,2969.4c-6-0.6-11.5-0.4-16.5-1.8c-4.9-1.4-9.4-4.4-14.7-7c-5.2,4.9-10.4,9.7-16.4,15.2
		c-8.2-6.6-15.8-12.5-20.7-22.4c13.2-4.7,23.2-13.6,36.2-17.7c13.2-4.2,25.9-10.5,38.4-16.5c11.9-5.7,24.1-10.5,36.8-16.8
		c4.3,11.5,2.7,21.2,2.2,30.1c-1.4,1.8-2,3.2-3,3.7c-15.2,6.9-29,15.5-38.1,30.2C8153.1,2967.3,8151.6,2967.9,8149.4,2969.4z
		 M8202.4,2835.6c3.8,19.1-1.6,39.1,3.6,59.6c16.9-7.4,32.8-13.8,46.4-24.6c-8.8-13.8-17.3-27.2-27-42.4
		C8216.4,2826,8208.4,2826.4,8202.4,2835.6z"/>
	<path onclick="modals(this.id);"  id="3964" class="st0" d="M7800.4,2835.4c14.4,14.3,27.5,27.3,40.5,40.4c2.3,2.3,4.1,4.9,7,8.4c-7.2,8.4-15.6,14.4-23.3,21
		c-12.4-8.1-34.5-29.7-47.4-46.5c3.2-3.6,6.5-7.4,10.1-11C7791.1,2843.9,7795,2840.4,7800.4,2835.4z"/>
	<path onclick="modals(this.id);"  id="3989" class="st0" d="M7972.3,3058.9c4.5,4.2,8,7.2,11.1,10.5c9.9,10.5,19.7,21.2,29.4,31.6c-8,12.5-25.1,30.1-39.9,41
		c-13.5-10-13.9-10.2-9.8-23.6c3.8-12.6,7.9-25.1,8.2-38.4C7971.4,3073.7,7971.9,3067.4,7972.3,3058.9z"/>
	<path onclick="modals(this.id);"  id="3930" class="st0" d="M7682,2642c-10.2,9.6-19.7,18.4-29.9,28c-8.6-6.1-16.5-11.7-25.2-17.8c-3.8-18,3.3-34,9.8-52.1
		C7654,2612.9,7665.9,2628.7,7682,2642z"/>
	<path onclick="modals(this.id);"  id="3935" class="st0" d="M7566.3,2755.5c4.1-4.5,7.1-7.7,10.9-11.7c10,8.1,17.8,17.2,26.5,25.3c4.7,4.5,8.4,10.5,16,11
		c1.2,0.1,3.3,0.9,3.4,1.6c2.4,16.9,20.2,22.2,27,35.8c-3.7,6.8-3.7,6.8-10.2,10.9C7612.7,2808.1,7591,2782,7566.3,2755.5z"/>
	<path onclick="modals(this.id);"  id="3981" class="st0" d="M8033.2,2958.1c8.6-8.1,16-14.6,22.9-21.6c6.6-6.5,12.7-13.5,18.3-19.5c7.5,0.6,13.1,1.5,17.7-4
		c4.6-5.5,10.2-10.2,15.8-15.7c3.8,3,7,5.2,9.8,7.9c4.2,4.1,8,8.6,12.2,13.1c-5.2,6.8-12.4,8.9-18.8,12c-20.2,9.7-40.7,19.1-61,28.6
		c-2.4,1.1-4.9,3-7.3,2.9C8040.1,2961.7,8037.5,2959.8,8033.2,2958.1z"/>
	<path onclick="modals(this.id);"  id="3970" class="st0" d="M8003.9,2894c-3.1,7.5-9.1,12.5-14.8,16.3c-18.2-18.3-35.9-36.2-54.5-55c3-5.9,8.8-10.8,15-15.2
		C7963.3,2850,7993.4,2880,8003.9,2894z"/>
	<path onclick="modals(this.id);"  id="3937" class="st0" d="M7692.8,2729.2c-5.7,5.7-10.7,10.8-16.1,16.2c-10.3-5.4-16.4-14.3-24.1-21.3
		c-7.8-7.1-15.6-14.2-22.6-20.6c-0.4-12.5-1.1-22.8,0.7-33.6C7643.2,2676.9,7669,2701.5,7692.8,2729.2z"/>
	<path onclick="modals(this.id);"  id="3979" class="st0" d="M8005.6,2991.9c2.4,2.5,4.1,4.3,5.9,6.2c-3.3,11.2-15.3,15.2-19.3,25
		c-0.3,10.1,11,13.1,13.4,22.8c-4.6,4.8-9.6,9.9-14.4,14.8c-9.1-5.5-23.7-18.4-27.2-23.7c-4.8-7.4-4.3-17.5,1.7-23.9
		c3.1-3.4,6.6-6.9,10.7-8.8C7985.8,2999.7,7995.7,2996,8005.6,2991.9z"/>
	<path onclick="modals(this.id);"  id="3939" class="st0" d="M7712.9,2686.1c-11.4-11.4-20.6-20.6-30.8-30.8c9.7-11.4,19.6-20.7,30.2-30.5
		c12.2,7.3,20.1,18.7,30,27.8C7736.4,2667.5,7722.1,2672.6,7712.9,2686.1z"/>
	<path onclick="modals(this.id);"  id="3929" class="st0" d="M7705.2,2615.6c-5.1,8.4-9.2,14.4-17,18.1c-15.8-12.7-28.9-28.4-44.5-43
		c2.8-8.7,1.4-18.3,8.2-26.5C7669.6,2581.3,7687,2598.1,7705.2,2615.6z"/>
	<path onclick="modals(this.id);"  id="3990" class="st0" d="M8016.5,3089.8c23.5-23.3,45.1-44.8,67.9-67.4c3.1,2.8,7.3,6.5,10.9,9.7
		c-0.9,6.9-38.3,43.9-67.4,67.7C8024.3,3096.7,8020.6,3093.4,8016.5,3089.8z"/>
	<path onclick="modals(this.id);"  id="3934" class="st0" d="M7553.9,2780.6c2.1-4.1,4.5-8.6,6.7-12.7c2.4,0.4,4.1,0.1,4.8,0.8c9.7,9.9,19.1,20.2,29,30
		c9.4,9.3,19.4,18.1,28.9,27.3c3.8,3.6,7.1,7.7,11.2,12.3c-4.4,4-8.1,7.4-11.6,10.7C7609.1,2838.9,7565.8,2795.9,7553.9,2780.6z"/>
	<path onclick="modals(this.id);"  id="3931" class="st0" d="M7609.7,2762.8c-8.8-8.6-16.2-16-24.3-24c9.5-13.7,22.6-22.3,34.5-32.6
		c9.3,5.4,15.6,12.9,22.3,20.9C7635.1,2741.7,7622.5,2750.4,7609.7,2762.8z"/>
	<path onclick="modals(this.id);"  id="3988" class="st0" d="M8051.9,3015.1c4.9,0.5,11.7-1.7,17.4,3.1c-8.1,12.4-40.6,45.8-60.8,62.3
		c-3.5-3.1-7.1-6.4-11-9.9c2.9-4.2,4.7-7.9,7.5-10.6C8019.8,3045.5,8034.8,3031.4,8051.9,3015.1z"/>
	<path onclick="modals(this.id);"  id="3985" class="st0" d="M8231.5,2793c5.8-1.9,10.8-3.6,15.4-5.1c1,0.9,1.8,1.3,1.9,1.8c4.4,23.5,13,45.5,25,66.8
		c-4,3-7.1,5.3-10.7,8.1c-11.5-8.3-18.4-19.7-23.8-31.5C8233.9,2821.2,8228.1,2808.8,8231.5,2793z"/>
	<path onclick="modals(this.id);"  id="3974" class="st0" d="M8011.6,2901.9c5,2.9,9,5.1,14,7.9c18.1-13.1,31.3-31.8,49.5-46c2.1,2.3,3.8,4.1,5.4,5.9
		c-14.3,17.3-54.5,56.9-67.7,66.5c-5.4-5.2-10.9-10.6-17.3-16.7c2.9-3.7,5.1-6.7,7.7-9.5C8005.3,2907.5,8007.9,2905.4,8011.6,2901.9
		z"/>
	<path onclick="modals(this.id);"  id="3982" class="st0" d="M8165.4,2904.7c-9.9,4.6-16.4,7.6-23.5,10.9c-14-11.3-26.2-23.8-37.8-37.6
		c5.1-6.7,8.2-14.3,16.6-17.8C8136.3,2873.2,8150,2887.9,8165.4,2904.7z"/>
	<path onclick="modals(this.id);"  id="3975" class="st0" d="M8024.8,2899.7c-6.4-7.5-11.1-13-16.6-19.4c12.5-15.9,26.6-29.5,43.4-41.5
		c5.3,5.7,10.2,10.9,15.9,17C8054.9,2872,8040.2,2885.1,8024.8,2899.7z"/>
	<path onclick="modals(this.id);"  id="3993" class="st0" d="M8129.7,3052.3c-10.3-6.9-16.6-16.2-25.4-24.5c3.3-7.3,9.4-11.4,15.1-17.2c5.1,2.9,10,5.6,16.1,9
		c7.4-6.7,14.6-13.3,22.9-20.8c4.1,3.7,7.7,6.9,12.3,11.1C8156,3024,8143.9,3038.8,8129.7,3052.3z"/>
	<path onclick="modals(this.id);"  id="3940" class="st0" d="M7759.2,2638.3c-1.9,1.8-4.8,4.4-7.3,6.7c-2.1-0.4-3.8-0.2-4.6-0.9
		c-12.9-12.4-25.8-24.9-37.3-36.1c-1.6-8.3,5.2-9.1,6.7-13c1.4-3.7,0.4-8.4,0.5-14.9c4.1,2.2,6.5,2.9,8.2,4.5
		c5.4,5,10.3,10.4,15.7,15.4C7751.5,2609.6,7761.1,2619.6,7759.2,2638.3z"/>
	<path onclick="modals(this.id);"  id="3980" class="st0" d="M8017.7,2985.1c6.6-3.1,13-6,19.5-9.1c3,2.7,5.6,4.7,7.8,7c6.9,7.3,7.6,15.6,1,22.6
		c-9.9,10.6-20.4,20.6-31.5,31.8c-4.6-4.3-8.2-7.6-12.3-11.5c5.4-5.6,9.9-10.5,14.6-15.1c5.9-5.8,8.2-11.8,2.8-19.3
		C8018.6,2990.1,8018.5,2988,8017.7,2985.1z"/>
	<path onclick="modals(this.id);"  id="3994" class="st0" d="M8036.8,3109.6c6.6-14,18.3-22.2,27.8-32c10.1-10.4,21.1-20,31.7-29.8c1.9-1.8,4-3.4,6.3-4.6
		c0.8-0.4,2.6,0.3,3.4,1.1c0.7,0.8,1.4,2.8,0.9,3.4c-3.7,4.6-7.7,9-11.7,13.3c-4,4.3-9,7.8-6.5,15.2c0.6,1.7-1.5,4.9-3.2,6.6
		c-12,12.2-24.2,24.3-37.3,37.4C8044.1,3116.3,8040.5,3113,8036.8,3109.6z"/>
	<path onclick="modals(this.id);"  id="3978" class="st0" d="M8027.6,2950c-2.3-3.5-4.1-5.1-4.1-6.7c0-1.7,1.2-3.7,2.5-5c20.1-20.2,40.2-40.4,61.4-61.5
		c4.8,4,9.1,7.6,12.9,10.8c-0.4,2.5-0.2,4.1-0.8,4.8c-3,3.5-6.2,6.9-9.5,10.2c-1.4,1.4-3.5,3.6-4.7,3.3
		c-13.4-3.4-17.9,8.5-25.4,14.9C8049.4,2929.8,8039.3,2939.4,8027.6,2950z"/>
	<path onclick="modals(this.id);"  id="3936" class="st0" d="M7619.9,2767c10.4-10.5,20.1-20.2,30.7-30.9c6.9,4.2,11.9,9.9,16.7,16.6
		c-3.1,7.3-9.3,11.3-14.1,16.5c-4.9,5.2-10.3,10-16.2,15.7c-2.8-4.4-4.7-8.3-7.6-11.4C7626.9,2770.9,7623.3,2769.3,7619.9,2767z"/>
	<path onclick="modals(this.id);"  id="3997" class="st0" d="M8053.3,3127.1c8.7-8,15.5-14.2,22.1-20.5c6.7-6.4,13.5-12.7,20-19.4c2.2-2.3,5.6-5.8,5.1-8.1
		c-2.7-13.5,7.2-18.2,15.5-25c2.5,1.9,4.7,3.3,6.5,5.2c1.8,1.8,3.2,4,5.2,6.5c-1.8,2.4-3.1,4.7-4.8,6.5
		c-16.8,16.9-33.6,33.9-50.6,50.6c-3.2,3.2-7.3,5.7-11.2,7.9C8060.1,3131.3,8057.9,3129.4,8053.3,3127.1z"/>
	<path onclick="modals(this.id);"  id="3938" class="st0" d="M7706.2,2693c-6.9,5.8-12.4,10.4-18.4,15.4c-11.7-8-20.4-18.6-29.8-28.5
		c2.6-9.6,11.3-11.2,16.7-17.5C7686.4,2670.7,7695,2680.6,7706.2,2693z"/>
	<path onclick="modals(this.id);"  id="3928" class="st0" d="M7701.6,2598c-16.7-14.7-30.1-28-42.3-42c1.6-5.3,4.5-5.3,7.6-3.1c4.2,3,8.2,6.4,13.5,10.6
		c3-5.4,5.5-9.6,8.5-15.1c7.8,7.7,15.6,15.4,23.7,23.4c-2.5,4.8-4.8,8.6-6.5,12.7C7704.6,2587.8,7703.7,2591.5,7701.6,2598z"/>
	<path onclick="modals(this.id);"  id="3999" class="st0" d="M8212.6,3036c1.1,3.7,2.1,7.4,3.6,12.5c7,0.3,14.2,0.4,21.3,0.9c7.6,0.6,8.5,1.9,10.3,14
		c-12.1,4.1-24.4,2.5-37.3,1.3C8206.6,3055,8207.1,3045.7,8212.6,3036z"/>
	<path onclick="modals(this.id);"  id="3107" class="st0" d="M8238.5,3200c-8.8,4.6-16.7,7.4-25.5,8.5c-5.2-6.3-5.7-13.2-4.1-21.8c4.3-2.7,9.3-5.7,14-8.6
		C8231.5,3183.6,8233.7,3192,8238.5,3200z"/>
	<path onclick="modals(this.id);"  id="3104" class="st0" d="M8223.6,3111.1c5.4-3.5,10.9-2.9,16.8-0.9c2,7.1,4.6,13.9,5.9,20.9c2,10.3-0.5,13.1-14.2,17.5
		c-2.6-6-2.8-12.4-3.7-18.8C8227.5,3123.6,8225.3,3117.5,8223.6,3111.1z"/>
	<path onclick="modals(this.id);"  id="3105" class="st0" d="M8216.1,3124.9c7.6,14.5,5.5,27.6,6.6,41.2c-3.3,2.4-6.8,4.9-10.1,7.3c-1.7-1.4-3.4-2-3.5-2.9
		c-1.3-8.3-2.4-16.2,2.9-24.3C8215.1,3141.3,8214.5,3133.9,8216.1,3124.9z"/>
	<path onclick="modals(this.id);"  id="39251" class="st0" d="M7721.9,2225.7c9.8,9.5,13.9,18.5,17.4,27.8c1.1,0.7,2.3,1.9,3.4,1.9
		c14.5,0.1,18.7,3.9,20.2,18.9c1.1,10.3,5.8,18.9,11.6,27.1c17.9,25.6,35.8,51.1,54.3,77.6c5.8-2.9,10.8-5.4,16.5-8.2
		c6,4.7,11.8,9,17.3,13.6c5.1,4.3,10.1,8.7,17.8,9.5c7.9-3.9,8.8-14.3,16.5-19.9c16,13.2,32.2,26.6,48.4,40
		c-6.4,22.5-25.9,34.1-42.4,49.8c-2.5-2.2-5.7-4.4-8.1-7.2c-9.4-11.1-18.6-22.4-28.4-34.4c-6.8,2.5-12.8,4.7-19.9,7.3
		c-0.3,11.7-0.6,22.9-0.9,33.6c-4.5,2.7-7.1,0.1-8.9-2.5c-7.5-11-15.1-21.8-21.8-33.3c-18.2-31.7-36.2-63.6-53.9-95.6
		c-11.6-20.9-23.3-41.8-33.5-63.4c-4.7-10-6-21.6-8.4-32.6C7718.9,2233.6,7720.5,2231,7721.9,2225.7z M7921.9,2483.6
		c7.8,11.3,9.5,11.2,16.6-2.3C7932.5,2482,7927,2478.5,7921.9,2483.6z"/>

	<path onclick="modals(this.id);"  id="3124" class="st0" d="M6850,3774.7c-4.1-50.5-4.3-100-7.2-150.7c10.1-2.9,19.5-6,29.1-8.1
		c12.8-2.9,23.8-8.2,31.1-19.6c6.7-10.5,16.4-15,28.4-15.7c12.4-0.7,24.4-5.6,38.2-4.2c0.5,5.6,1.3,10.7,1.3,15.9
		c0.1,51.9-0.2,103.7,0.2,155.6c0.1,10.1-2,18.2-10.1,24.5c-3.1,2.4-5.4,5.8-8.1,8.8c-3.8,4.2-8.6,6.2-14.1,6.4
		c-6,0.2-12.1,0.9-17.9,0C6897.4,3783.6,6874.1,3779.1,6850,3774.7z"/>
	<path onclick="modals(this.id);"  id="3130" class="st0" d="M9241.9,3468.8c-0.3,5.5-0.5,10-0.7,14.7c-3.7,1.4-6.7,3.2-9.9,3.6c-22.3,3.5-33.6,20-44.5,37
		c-1.7,2.7-3,6.3-3,9.4c0.4,14.5-8.3,26.4-11,40c-0.7,3.4-3.8,6.9-6.7,9.2c-2.9,2.2-7.5,2.2-10.3,4.5c-2.2,1.8-2.7,5.6-4.3,9.3
		c-8.9-0.5-17.4-1-25.9-1.4c-2.7-3.8-4.7-8.2-8-10.7c-2.8-2.1-7.2-2.2-11.9-3.4c4.2-37.7,8.3-74.5,12.5-111.9
		c4.9-0.8,8.7-1.9,12.5-2.1c19.9-1,40,2.1,59.6-3.3c0.6-0.2,1.3-0.2,2-0.1C9208.1,3465.2,9223.9,3466.9,9241.9,3468.8z"/>
</g>
</svg>
