<?xml version="1.0" encoding="utf-8"?>
<!-- Generator: Adobe Illustrator 19.0.0, SVG Export Plug-In . SVG Version: 6.00 Build 0)  -->
<svg version="1.1" id="Layer_1" xmlns="http://www.w3.org/2000/svg" xmlns:xlink="http://www.w3.org/1999/xlink" x="0px" y="0px"
	 viewBox="0 0 960 460" style="enable-background:new 0 0 960 460;" xml:space="preserve">
<style type="text/css">
	.st0{fill:#A52A2A;}
	.st1{stroke:#000000;stroke-width:0.7;}
</style>
<g id="dis13">
	<path id="namiquipa" class="st0" d="M506.3,89l1.3,10.5l-5.6,3.3l8.9,7.5l-1.4,4.7l-2.8,2.4l4.7,3.8l-4.7,6.1l6.6,8l6.6-2.4
		l4.2,5.2l-6.6,4.3l-2.3,6.6l2.8,6.1l8.5,2.4c0-0.8,0-1.6,0-2.4c0-1.4-0.5-2.5-0.7-3.4c-0.1-0.4-0.1-0.7,0.2-1
		c0.3-0.3,0.7-0.4,1.4-0.4s1.2-0.2,1.5-0.5s0.4-0.6,0.4-1.1c0-0.8-0.3-1.8-0.6-2.2c-0.4-0.9-0.1-1.5,0.1-2.2
		c0.1-0.3,0.2-0.7,0.2-1.1s-0.1-0.9-0.4-1.4c-0.4-0.8-0.6-2-0.7-3c-0.1-1-0.2-1.9-0.2-2.2c0-0.3,0.1-0.5,0.4-0.5s0.6,0,1,0
		c0.8,0.2,1.7,0.5,2.4,0.5l-1-11.3l-2.3-3.3c0-0.1,5.5-4.6,5.6-4.7c0.3-0.3,0.7-0.4,1.1-0.3c0.4,0.1,0.9,0.3,1.3,0.5
		c0.9,0.4,1.9,1,2.8,0.7c1.6-0.4,2.8-0.2,3.6-0.3c0.4,0,0.7-0.2,0.9-0.5c0.2-0.3,0.3-0.8,0.3-1.6c0-1.6-0.1-2.5-0.4-3.2
		s-0.9-1-1.9-1.5c-1.1-0.5-1.8-1.1-2.2-1.6s-0.5-1.1-0.7-1.7c-0.1-0.4,0.1-0.7,0.6-0.9c0.4-0.2,1-0.2,1.6-0.3
		c0.6-0.1,1.2-0.1,1.7-0.3c0.5-0.2,0.8-0.4,0.8-0.9c0-0.4,4.9,0,6.1,0c1.5,0,2.2,0.6,3.3,0.9l3.8-7.5l4.7,0.5l13.6,1.4l-0.4-5.2
		l7-7.5l0.5,5.1l8.5,7.1l2.4-3.8l3.7,3.8h4.3l2.8-1.9l4.7,5.2l6.1-8L614,84.7h9.9l-3.8-9l14.1-0.5l1.9,2.9l-1.4,1.8l2.4,3.8l4.2-2.3
		l9,7.5l4.2-2.8V74.8l-7.5-1.9l5.6-9.9l-7-2.4c1.3,0,2-0.3,2.5-0.7c0.4-0.4,0.5-1,0.4-1.6c-0.2-1.2-1.1-2.5-1.5-2.9
		s-0.1-0.8,0.4-1.1s1-0.7,1.1-0.7v-8.4l5.2-0.5l-0.5-9.9l4.2-0.5l5.7-5.2l-1.9-2.3h-0.5l0,0c-0.7,0.7-1.3,1.3-2,2
		c-0.8,0.8-2.7,1.7-3.9,2l-16.2-2.5l-3.9,3.9l-7.4,0.5l-2.5,4.4l-4.9-4.4l-7.4-0.5l-4.9,5.4l-4.9-1.4l-7.4-0.5l-5.9-4l-10.3,2.5
		l-1.4-5.4l-14.3,2.9l-10.8-0.5c-0.8,0.8-1.4,1.3-1.9,1.6s-0.8,0.3-1.1,0.2c-0.7-0.2-1.3-1-2.9-1.8c-0.6-0.3-1-0.3-1.5-0.2
		c-0.4,0.1-0.9,0.4-1.2,0.7c-0.7,0.7-1.2,1.7-1.7,2.4c-0.8,1.1-1,1.9-1.3,2.5c-0.1,0.3-0.3,0.6-0.7,0.8c-0.3,0.2-0.8,0.4-1.5,0.6
		s-1.1,0.1-1.4-0.3c0,0,0-0.1,0-0.2c-1.7,0.2-5.7,1-8.4,1c-1.5,0-2.4,0.4-3.1,1s-1.3,1.5-2.3,2.5c-1.1,1.1-1.4,1.6-1.8,1.6
		c-0.4,0-0.6-0.6-1.7-1.6c-0.5-0.5-0.9-0.8-1.2-0.9c-0.3-0.1-0.5-0.1-0.7,0.1c-0.4,0.4-0.5,1.3-1,2.2c-0.4,0.8-0.8,1.4-1.2,1.7
		c-0.4,0.3-0.7,0.4-1.1,0.3c-0.7-0.3-1.4-1.3-2.2-2.9c-0.4-0.8-0.7-1.2-1-1.1c-0.3,0-0.5,0.4-0.7,1c-0.4,1.1-0.7,2.7-1.2,3.6
		c-0.5,1-0.7,2.3-0.9,3.6c-0.2,1.3-0.3,2.5-0.5,3.3c0,0.2-0.3,0.2-0.5,0.3l0.1,0.2v3.2l5.2,2.3L508.5,73l-1.9,15.5L506.3,89z"/>
	<path id="path2433" class="st1" d="M525.8,152.1h0.3c0.5,0,1.7,0,2.9,0s2.3,0.1,2.4,0.4c0.4,0.9,1.3,1.4,2.2,1.8
		c0.8,0.4,1.6,0.7,1.8,1.1c0.6,1.1,2.4,2.5,2.8,3.2c0.2,0.5,0.4,1.5,0.7,2.4c0.2,0.5,0.3,0.9,0.6,1.3c0.3,0.4,0.7,0.7,1.1,0.8
		c0.4,0.1,0.7-0.1,1.1-0.4c0.4-0.3,0.8-0.7,1.1-1.1c0.3-0.4,0.7-0.7,1-0.8c0.3-0.2,0.6-0.1,0.7,0.2c0.2,0.3,0.8,1.3,1.2,2.3
		c0.2,0.5,0.4,1.1,0.4,1.6s-0.1,0.9-0.4,1.3c-0.4,0.4-1.2,1-1.5,1.6c-0.2,0.3-0.2,0.6,0,0.9s0.7,0.5,1.5,0.7
		c0.5,0.1,1.7,0.2,2.7,0.4c0.5,0.1,1,0.2,1.3,0.4s0.5,0.5,0.4,0.8c-0.3,1.4-0.4,2.2-0.2,2.7c0.2,0.5,0.8,0.8,1.8,1.4
		c1,0.5,2.1,0.9,3.1,1.2c0.9,0.2,1.7,0.3,2.2,0l0.6-0.1c0-0.1,0-0.2,0-0.3c0.3-0.4,0.7-0.7,1.1-1.1c0.9-0.7,1.9-1.3,2.3-2.2
		c0.1-0.3-0.4-1.3-0.9-2.2s-1.1-1.8-1.1-1.8c-0.1-0.3,0.1-0.5,0.3-0.7s0.6-0.3,0.9-0.4c0.3-0.2,0.6-0.3,0.7-0.7
		c0.1-0.3,0.1-0.8-0.3-1.4c-0.6-1.1-0.8-1.5-0.6-1.9s0.7-0.7,1.8-1.8c1.2-1.2,3.5-2.3,4.9-3.2c0.5-0.4,0.8-0.7,0.9-1.1
		c0.1-0.3,0-0.7-0.1-1c-0.3-0.6-1.1-1.1-1.6-1.6c-0.7-0.7-1.2-1.1-1.5-1.6c-0.4-0.5-0.6-1.1-0.9-2c-0.1-0.4,0-0.7,0.4-0.9
		c0.3-0.2,0.7-0.4,1.2-0.6c1-0.3,2.1-0.6,2.5-1.4c0.2-0.4,1.7-0.3,3.2-0.1s3.1,0.5,3.3,0.5c0.3-0.6,0.8-1.1,1.2-1.6
		c0.3-0.3,0.1,0,0.2-0.1c0.1-0.1,0-0.1,0-0.1s-0.1-0.1,0.2-0.6c0.3-0.4,0.5-1,0.4-1.6s-0.2-1.3-0.4-1.9c-0.4-1.2-1.1-2.4-1.2-3
		c-0.2-0.7-0.7-1.3-1.3-1.9s-1.3-1.2-1.9-1.8c-0.8-0.8-1-1.6-1.1-2.2c-0.1-0.3-0.1-0.7-0.3-1s-0.5-0.6-1-0.8c-2-1-2.6-1.6-4.5-2
		c-1.2-0.3-1.8-0.7-1.9-1.2s0.3-1.2,1.1-2.1c0.2-0.2,0.2-0.5,0-0.7s-0.5-0.5-0.9-0.7c-0.7-0.5-1.5-1.1-1.5-1.8c0-1.2,0.5-1.6,0.7-2
		c0.1-0.2,0.2-0.4,0.1-0.6c-0.1-0.3-0.3-0.6-0.8-1.1c-1.3-1.3-1.7-2.1-3.2-2.9c-1.2-0.6-2.5-2-3.2-2.8c-0.7-0.7-1.2-0.9-1.8-1.2
		c-0.5-0.3-1-0.7-1.5-1.6c-0.2-0.3-0.1-0.6,0-1c0.1-0.3,0.4-0.7,0.7-1c0.5-0.7,1.1-1.4,0.9-2.1c-0.1-0.6-0.6-0.6-0.8-0.8l-0.2-0.5
		c-0.8-0.3-1.5-0.7-2.7-0.7s-6.1-0.4-6.1,0s-0.4,0.7-0.8,0.9c-0.5,0.2-1.1,0.2-1.7,0.3c-0.6,0.1-1.2,0.1-1.6,0.3
		c-0.4,0.2-0.7,0.5-0.6,0.9c0.2,0.6,0.3,1.1,0.7,1.7c0.4,0.5,1.1,1.1,2.2,1.6c1,0.5,1.5,0.9,1.9,1.5c0.3,0.7,0.4,1.6,0.4,3.2
		c0,0.8-0.1,1.3-0.3,1.6c-0.2,0.3-0.5,0.4-0.9,0.5c-0.8,0.1-1.9-0.1-3.6,0.3c-0.9,0.2-1.8-0.3-2.8-0.7c-0.5-0.2-0.9-0.4-1.3-0.5
		c-0.4-0.1-0.8,0-1.1,0.3c-0.1,0.1-5.6,4.6-5.6,4.7l2.3,3.3l1,11.3c-0.6,0-1.6-0.3-2.4-0.5c-0.4-0.1-0.8-0.1-1,0s-0.4,0.2-0.4,0.5
		c0,0.2,0,1.1,0.2,2.2s0.3,2.2,0.7,3c0.3,0.6,0.4,1,0.4,1.4s-0.1,0.8-0.2,1.1c-0.2,0.7-0.6,1.3-0.1,2.2c0.2,0.5,0.6,1.4,0.6,2.2
		c0,0.4-0.1,0.8-0.4,1.1c-0.3,0.3-0.8,0.5-1.5,0.5c-0.8,0-1.2,0.1-1.4,0.4c-0.2,0.3-0.3,0.5-0.2,1
		C525.7,151.7,525.7,151.9,525.8,152.1z"/>
	<path id="path2471" class="st1" d="M582.2,217.5c-0.1,0.3,0,0.4-0.3,0.9c-0.3,0.7-0.7,1.3-1.1,1.8c-0.4,0.5-1,1-1.8,1.4
		c-0.9,0.4-1.3,0.2-1.7,0c-0.5-0.3-1-0.6-1.9-0.4s-1.6,0.6-2.2,1.1c-0.6,0.5-1.2,1.1-1.8,1.7c-0.8,0.8-1.1,1.3-1.6,1.8
		s-1.1,0.8-2.5,1.1c-1.5,0.4-3.1,0.9-4.5,1.6c-0.7,0.4-2,0.4-3,0.5c-0.5,0.1-1,0.2-1.2,0.4s-0.4,0.4-0.2,0.7
		c0.2,0.5,0.2,1.1,0.3,1.9c0,0.8,0.1,1.7,0.5,2.5s0.6,1.4,0.7,1.7c0,0.3-0.1,0.5-0.2,0.5c-0.2,0.1-0.4,0.1-0.5,0.2
		c-0.2,0.1-0.3,0.4-0.3,0.8c0,1.4,0.2,2.1,0.5,2.7s0.8,1,1.5,1.7c0.5,0.5,1,1,1.4,1.6s0.6,1.4,0.6,2.4s0.4,2,0.4,2.8
		c0,0.4-0.1,0.7-0.3,0.9c-0.2,0.2-0.6,0.4-1.3,0.4c-1.5,0-2.3,0.1-2.5,0.4c-0.3,0.3,0,0.9,0.5,2.1c0.5,1,0.4,1.8,0.2,2.5
		s-0.6,1.1-0.6,1.6c0,1.2-0.1,2.2,0.2,2.9c0.2,0.3,0.4,0.5,0.9,0.6s1.2,0,2.2-0.2c0.6-0.2,1-0.3,1.2-0.5s0.3-0.4,0.3-0.7
		c0-0.6-0.2-1.4,0.2-2.9c0.1-0.5,0.5-1.3,1.1-2s1.2-1.2,1.8-1.2c0.5,0,1.3,0.1,2,0.2c0.3,0,0.6,0,0.8-0.1s0.4-0.3,0.4-0.5
		c0-1.4-0.2-2-0.6-2.6c-0.4-0.6-0.9-1.1-1.4-2.2c-0.2-0.5-0.3-0.9-0.3-1.2c0-0.3,0.2-0.5,0.5-0.6c0.6-0.2,1.6-0.2,3,0.2
		c0.6,0.1,1.5,0.7,2.3,1.3c0.8,0.6,1.6,1.4,1.7,1.9c0.3,1.2,0.2,1.8-0.3,2.2c-0.4,0.4-1.1,0.7-1.8,1.4c-0.6,0.6-1.3,1.6-1.8,2.5
		c-0.2,0.5-0.4,0.9-0.4,1.2c0,0.3,0.1,0.6,0.5,0.7c1,0.2,2.4-0.1,3.6-0.4c0.6-0.1,1.1-0.1,1.6,0c0.4,0.1,0.8,0.3,0.9,0.8
		c0.1,0.3,0.4,0.6,0.5,1.1s-0.1,1.1-0.9,2.2c-0.6,0.8-0.6,2.1-0.4,3c0.1,0.5,0.3,0.9,0.5,1.1s0.5,0.2,0.8-0.1c1-1,2.2-1.8,3.2-2.8
		c0.4-0.4,1.2-1,2.1-1.3c0.4-0.1,0.9-0.2,1.4,0c0.5,0.1,1,0.4,1.4,0.9c0.9,0.9,1.5,1.3,1.7,1.3s0.2-0.5,0.2-1
		c-0.1-0.5-0.2-1.1-0.2-1.7c0-0.5,0-1,0.4-1.1c0.9-0.2,1.5,0,2.1,0.3s1.2,0.6,2.3,0.6c0.5,0,2.2-0.2,3.6-0.1c0.7,0,1.4,0.1,2,0.3
		c0.5,0.2,0.9,0.5,0.9,1c0,1.9,0,2.6,0.3,2.7s1-0.3,2.5-0.7c0.9-0.2,1.9,0.1,2.7,0.5s1.5,0.8,1.8,0.7c0.5-0.1,1.1-0.5,1.7-0.8
		c0.6-0.3,1.1-0.4,1.5,0c0.6,0.6,1.6,1.1,2.2,1.2c0.3,0,0.6-0.1,0.7-0.4c0.1-0.2,0.1-0.7-0.1-1.3c-0.3-0.7-0.5-1.3-0.8-2l12.5,2
		l8.1-4.4l9.3,8.9l-0.4-12.2l6.5,7.3l7.7-8.1l-5.3-5.7l0.3-0.4h-0.3c0-0.4-1-0.7-2-1.1c-0.5-0.2-1-0.5-1.4-1s-0.6-1.1-0.6-1.9
		c0-0.5-0.2-0.8-0.5-1s-0.7-0.3-1.2-0.3c-1-0.1-2.2,0.1-3.1,0.1c-1.2,0-1.6-0.2-1.9-0.5c-0.3-0.3-0.6-0.8-1.3-1.5
		c-0.6-0.6-0.9-1.1-0.8-1.5c0-0.4,0.3-0.7,0.7-0.9c0.8-0.4,2.1-0.5,2.9-0.5c0.4,0,0.7-0.3,0.8-0.7c0.2-0.4,0.3-1,0.3-1.6
		c0-1.2-0.2-2.6-0.3-2.9c-0.2-0.8-0.8-1.3-1.6-1.7c-0.7-0.3-1.6-0.5-2.5-0.7c-1-0.3-1.7-0.5-2.4-0.5s-1.2,0.1-2.1,0.5
		c-1.4,0.7-1.7,2.1-3.2,2.9c-0.3,0.2-0.5,0-0.6-0.3s-0.1-0.8-0.2-1.4s-0.1-1.1-0.2-1.5c-0.1-0.4-0.3-0.8-0.7-0.9
		c-1-0.2-1.6-0.7-2-1.4s-0.6-1.5-0.8-2.2c-0.1-0.4,0-0.7,0.4-0.9c0.3-0.2,0.8-0.4,1.3-0.5c1-0.3,2.2-0.5,2.8-1.1
		c0.9-0.9,1-1.6,1.3-2.1c0.2-0.5,0.6-0.8,2-1.2c0.3-0.1,0.7,0.1,1.1,0.4c0.4,0.3,0.7,0.8,1.1,1.3c0.7,1,1.3,2.1,1.4,2.4
		c0.4,0.8,0.7,1.1,0.9,1s0.2-0.5,0.3-1.1c0-1.2-0.1-2.9-0.3-3.6c-0.1-0.4,0-0.9,0.3-1.3s0.6-0.8,0.9-1.1c0.3-0.3-0.3-2.7-0.4-3.2
		l-0.3-0.2c-0.2,0.1-0.2,0.1-0.5,0.2c-2,0.5-4.8,0.4-6.5,0.8c-0.8,0.2-1.4,0.8-1.8,1.4c-0.4,0.6-0.7,1.2-1,1.5
		c-0.4,0.4-0.9,0.6-1.2,0.7c-0.4,0.1-0.7,0.1-1.1,0.1c-0.3,0-0.6,0.1-0.9,0.2c-0.3,0.2-0.6,0.5-0.9,1c-0.3,0.6-0.5,0.9-0.7,0.9
		s-0.4,0-0.7-0.3c-0.4-0.5-0.9-1.3-1.8-1.5c-1.2-0.3-2.2-0.2-3.2,0s-1.9,0.4-2.9,0.4c-0.7,0-1.4-0.4-2-0.9c-0.7-0.5-1.2-1.1-1.6-1.5
		c-0.3-0.3-0.6-0.3-0.9-0.2s-0.6,0.5-0.8,0.9c-0.5,0.8-0.9,1.9-1.1,2.5c-0.1,0.6-0.6,1-1.1,1.3s-1.2,0.6-1.8,0.7
		c-0.5,0.1-0.8-0.4-1.2-0.9c-0.3-0.5-0.7-1.1-1.2-1.1c-2.7,0-5.4,0-8.1,0c-0.7,0-1.3,0.3-2.1,0.6s-1.6,0.6-2.8,0.6
		c-2.9,0-3.2,0.8-5.3,0.8c-1.1,0-1.8-0.2-2.2-0.4c-0.4-0.2-0.4-0.5-0.3-0.9c0.2-0.7,1.2-1.5,1.6-2c0.2-0.2-0.2-0.8-0.8-1.4
		C583,218.2,582.5,217.8,582.2,217.5z"/>
	<path id="path2513" class="st1" d="M478.3,266.9l-5.7,4.1l4.9,7.3l-5.7,6.1l2.4,7.3l-4,4.8l2,6.5l-0.4,11.3l-3.6,9.7
		c-0.7,0.3-1.4,0.6-1.9,1c-0.2,0.2-0.5,0.4-0.6,0.7c-0.1,0.3-0.1,0.7,0,1.1c0.2,0.9,0.8,1.5,1.1,2.1c0.2,0.3,0.3,0.6,0.3,0.9
		c0,0.3-0.2,0.7-0.6,1.1c0,0-0.8,0.9-1.7,1.6c-0.4,0.4-0.9,0.7-1.2,0.8c-0.4,0.2-0.6,0.2-0.7,0c-0.4-0.7-0.1-1.8,0.1-2.7
		c0.1-0.5,0.1-0.9,0.1-1.3c0-0.4-0.2-0.7-0.6-0.9c-0.9-0.5-1.5-0.5-1.8-0.4s-0.4,0.5-0.5,0.9c-0.1,0.4-0.1,1-0.2,1.4
		c-0.1,0.4-0.3,0.8-0.8,0.9c-0.9,0.2-1.7,0.2-2.5,0.1s-1.6-0.3-2.4-0.5c-0.7-0.2-1.1-0.3-1.4-0.2c-0.3,0-0.3,0.2-0.3,0.4
		c0.2,0.4,0.9,1.2,1.6,2.2c0.2,0.3,0.7,1.2,1.3,2c0.5,0.8,1.1,1.6,1.6,1.7c1.6,0.4,3,0.9,4.4,1.6c1.6,0.8,2.2,1,2.7,0.9
		c0.5-0.2,1-0.8,2.2-1.7c0.6-0.5,1.2-1.4,1.8-2.1c0.3-0.4,0.6-0.7,1-0.9c0.4-0.2,0.8-0.3,1.2-0.2c0.7,0.1,1.3,0.3,2,0.4l9.7,14.1
		l2.9-0.8l0.8-5.7l3.6-0.4l16.6-17l12.2,5.3l18.6,18.2l7.2-11.7c1.4,0,2.2,0.3,2.8,0.5c0.6,0.2,1,0.2,1.7-0.5
		c0.6-0.6,1.7-1.1,2.8-1.4c1-0.3,2.1-0.3,2.5-0.3l0.2-0.1c-0.3-0.2-1-0.7-1.1-0.7c-0.3-0.2-0.3-0.4-0.2-0.7s0.5-0.5,0.8-0.8
		c0.7-0.6,1.6-1.2,1.8-1.3c0.3-0.3-1.4-3.1-2.1-4.4c-0.3-0.7-0.5-1.2-0.5-1.7s0.1-0.8,0.3-1c0.5-0.5,1.3-0.7,2.2-1
		c1.3-0.3,1.8-0.6,1.9-0.9c0.1-0.3-0.4-0.8-1.1-1.5c-0.8-0.8-1.5-0.9-2-1.3c-0.3-0.2-0.5-0.5-0.6-0.9s-0.3-1-0.3-1.8
		c0-0.5,0.8-1,1.7-1.5c0.8-0.5,1.7-0.8,2-0.9c0.6-0.3,1-0.5,1.1-0.8s0.2-0.5,0.2-0.7c-0.1-0.5-0.6-1.1-0.9-2.1
		c-0.3-1.3-0.3-2.2-0.3-2.9s-0.2-1.3-0.9-2c-1-1-1.5-1-1.9-1.1s-0.6-0.2-0.9-1.4c-0.1-0.3,0-0.6,0.2-0.8s0.5-0.4,0.8-0.6
		c0.6-0.4,1.3-0.8,1.4-1.4c0.1-0.3-0.2-0.6-0.5-0.9s-0.8-0.6-1.4-1c-1.1-0.6-2.3-1.2-2.6-1.3c-0.6-0.3-1.3-1.2-1.9-2.1
		c-0.6-0.9-1.1-1.9-1.3-2.4c-0.1-0.2,0-0.3,0.4-0.4c0.4-0.1,0.9-0.1,1.5-0.1c1.2,0,2.8,0,3.8-0.3c0.4-0.1,0.5-0.3,0.4-0.5
		c-0.1-0.3-0.3-0.6-0.6-0.9c-0.6-0.7-1.4-1.4-1.8-1.8c-0.8-0.8-1.5-1.4-2.2-1.9s-1.3-0.8-1.9-0.9c-0.4-0.1-1.2,0.5-2,1.2
		s-1.6,1.4-2,1.6c-1.1,0.5-2.1,1.2-2.7,1.4c-0.3,0.1-0.5,0.1-0.5-0.1c0-0.2,0.1-0.6,0.4-1.2s0.4-1.2,0.4-1.8c0-0.5-0.2-1-0.4-1.5
		c-0.5-0.9-1.2-1.6-1.5-2c-0.6-0.6-1.3-0.7-2.2-0.9c-0.8-0.2-1.7-0.4-2.3-1.1c-0.3-0.3-0.7-0.4-1.2-0.5c-0.5,0-1,0-1.5,0.1
		c-1,0.2-2,0.7-2.5,0.8c-0.8,0.2-1.1,0.1-1.1-0.2s0.2-0.7,0.6-1.1c0.7-0.9,1.7-1.9,1.8-1.9c0.3-0.3-0.3-0.9-1.1-1.4
		c-0.8-0.5-1.7-1-2.1-1.1c-0.6-0.2-1.1-0.4-1.4-0.6c-0.3-0.3-0.5-0.6-0.7-0.9c-0.3-0.7-0.3-1.5-0.8-2.5c-0.1-0.3,0-1.3,0-1.6v-0.2
		l-6.9,1l-4-5.7l-6.8-2l-8.1-4.5l-5.3,4.9l-7.7-3.6L478.3,266.9L478.3,266.9z"/>
	<path id="path2518" class="st1" d="M472.1,285.3l-0.7-0.1c-0.4-0.1-1.4-0.6-2-1.4c-0.3-0.4-0.5-0.8-0.6-1.3c0-0.5,0.1-0.9,0.6-1.4
		c0.3-0.3,1.1-0.8,1.7-1.4c0.3-0.3,0.5-0.6,0.4-0.9c0-0.3-0.3-0.6-0.9-0.9c-0.5-0.3-1.1-0.8-1.7-1.3c-0.6-0.5-1.3-1-1.9-1.1
		c-0.8-0.2-1.6-0.6-2.5-1.1c-0.9-0.5-1.7-1.1-2.3-1.8c-0.9-0.9-2.9-2-4.1-3.6c-0.7-0.9-1.2-1.4-1.8-1.7c-0.6-0.3-1.4-0.2-2.6,0.1
		c-1,0.2-2,0.7-2.9,1c-0.9,0.3-1.8,0.5-2.3,0.2c-1.3-0.6-1.9-0.9-2.5-0.8c-0.6,0.1-1,0.7-2,1.6c-1.4,1.4-2.1,2.1-3.2,3.6
		c-0.9,1.2-1.3,2-1.8,2.6s-1.2,1-2.6,1.4c-1.5,0.4-2.1,0.6-2.2,1.1c-0.1,0.5,0.2,1.2,0.2,2.5c0,0.9,0.3,1.9,0.5,2.9s0.3,2-0.1,2.8
		c-0.4,0.7-1.1,1.5-1.5,2.2c-0.2,0.4-0.3,0.7-0.3,1.1c0,0.3,0.2,0.6,0.6,0.8c1,0.5,1.5,0.8,1.7,1.1s0.1,0.6,0,0.8
		c-0.2,0.3-0.5,0.5-0.7,0.9s-0.3,0.9-0.2,1.5c0.1,0.3,0.1,0.8,0.3,1.4c0.2,0.6,0.7,1.3,1.7,2.3c0.3,0.3,1.1,0.9,1.9,1.4
		c0.8,0.6,1.6,1.3,1.7,1.8c0.1,0.4,0.4,1.5,0.5,2.6c0.2,1.1,0.2,2.3-0.1,3c-0.4,0.9-0.6,1.3-0.6,1.6s0.2,0.3,0.5,0.3
		s0.7-0.1,1.2-0.1c0.4,0,0.9,0.2,1.3,0.6c0.7,0.7,0.9,1.2,1.1,1.8s0.4,1.3,0.9,2.2c0.3,0.7,0.7,1.4,0.6,1.9
		c-0.1,0.3-0.2,0.5-0.6,0.7c-0.3,0.2-0.9,0.3-1.6,0.3c-0.4,0-1.9,0.2-3.3,0.4c-1.4,0.2-2.8,0.6-2.7,0.8c0.2,0.7,0.2,2.1,0.2,3.4
		c0.1,1.3,0.2,2.6,0.6,3c0.3,0.3,1.1,0.7,1.7,1.3c0.3,0.3,0.5,0.6,0.6,0.9c0.1,0.3,0,0.7-0.3,1s-1.1,0.9-1.5,1.6
		c-0.2,0.4-0.3,0.7-0.2,1.1c0.1,0.4,0.3,0.8,0.9,1.3c0.5,0.4,1.3,1,2.2,1.5c0.9,0.6,1.9,1.1,2.7,1.3c0.3,0.1,1.6,0,2.8,0.1
		c0.6,0,1.2,0.1,1.7,0.3s0.8,0.4,0.8,0.8c0,0.3-0.1,0.6,0,0.8c0.1,0.2,0.8,1.1,1.6,1.8c0.4,0.4,0.8,0.7,1.3,0.8
		c0.4,0.1,0.9,0.1,1.2-0.2c0.3-0.3,0.8-1,1.4-1.6c0.3-0.3,0.7-0.5,1.1-0.7c0.4-0.2,0.8-0.2,1.2-0.1c-0.4-0.3-0.8-0.7-1.2-1.3
		c-0.5-0.8-1-1.7-1.3-2c-0.8-1-1.5-1.8-1.6-2.2c-0.1-0.2,0-0.4,0.3-0.4s0.7,0,1.4,0.2c0.9,0.2,1.6,0.4,2.4,0.5s1.6,0.1,2.5-0.1
		c0.5-0.1,0.7-0.5,0.8-0.9s0.1-1,0.2-1.4c0.1-0.4,0.2-0.8,0.5-0.9s0.9-0.1,1.8,0.4c0.4,0.2,0.5,0.5,0.6,0.9c0,0.4,0,0.8-0.1,1.3
		c-0.2,0.9-0.5,2-0.1,2.7c0.1,0.2,0.4,0.2,0.7,0c0.4-0.2,0.8-0.5,1.2-0.8c0.8-0.7,1.6-1.5,1.7-1.6c0.4-0.4,0.5-0.7,0.6-1.1
		c0-0.3-0.1-0.6-0.3-0.9c-0.3-0.6-0.9-1.2-1.1-2.1c-0.1-0.5-0.1-0.8,0-1.1c0.1-0.3,0.3-0.5,0.6-0.7c0.5-0.4,1.2-0.6,1.9-1l3.6-9.7
		l0.4-11.3l-2-6.5l4-4.8L472.1,285.3z"/>
	<path id="path2591" class="st1" d="M389,428.1l0.4-0.4c1.5-0.5,2.3-1,2.3-1.4c0.1-0.5-0.6-1-1.8-1.7c-0.3-0.1-0.3-0.4-0.2-0.7
		s0.4-0.7,0.7-1.1c0.6-0.8,1.5-1.5,1.7-1.7c0.9-0.9,1.2-1.4,1.7-1.8c0.4-0.3,0.9-0.5,1.9-0.5c0.8,0,1.7,0.6,2.4,1.3
		c0.7,0.7,1.3,1.5,1.7,1.8c0.5,0.5,0.9,0.7,1.3,0.8c0.4,0.1,0.8,0,1.2-0.2c0.8-0.4,1.5-1.1,2.4-2c0.5-0.5,1.6-0.6,2.8-0.6
		c1.2,0,2.6,0.1,3.4,0.1c1.8,0,2.4-0.1,2.7-0.2c0.3-0.1,0.1-0.4,0.4-0.7c0.4-0.4,0.4-0.7,0.2-1.1c-0.2-0.3-0.5-0.6-0.7-0.8
		c-0.4-0.4-0.3-0.4,2.3,0.1c0.4,0.1,0.7,0,0.9-0.2s0.4-0.5,0.5-0.8c0.3-0.7,0.3-1.5,0.3-2.1c0-1-1.9-3.7-2.2-4.5
		c-0.4-0.8-0.6-1.8-0.7-2.9c-0.1-1.1-0.2-2.1-0.2-2.9c0-2.1,0.1-4.8,0.4-6.2c0.1-0.2,3.6-3,4-3.6c0.3-0.4,0.3-0.9,0.2-1.3
		s-0.5-0.8-1-1.1c-0.9-0.7-2.2-1.1-2.8-1.1c-0.8,0-1.1-0.2-1.1-0.5s0.2-0.8,0.5-1.2c0.7-0.9,1.8-1.7,2-1.9c1.8-1.8,2.3-2,4.4-3.1
		c0.5-0.3,0.9-0.6,1.1-1s0.3-0.8,0.3-1.3c-0.1-0.9-0.5-1.8-0.9-2.6c-0.4-0.7-0.4-1.2-0.4-1.6c0.1-0.4,0.3-0.6,0.7-0.7
		c0.7-0.3,1.8-0.1,2.8,0.1c1.8,0.4,4.4,1.3,5.4,1.8s1.7,1.1,2,1.1s0.3-0.6-0.2-2.5c-0.1-0.5,0.1-0.8,0.4-1c0.4-0.2,0.9-0.3,1.6-0.3
		c1.3-0.1,2.8,0,3.7-0.5c1.2-0.6,2-0.8,2.5-1.1s0.7-0.8,0.7-2c0-1.4-1.2-4.3-1.8-5.4c-0.5-1.1-0.9-1.9-1.1-2.6
		c-0.2-0.7-0.3-1.4-0.3-2.3c0-0.4,0.2-0.8,0.6-1.3c0.3-0.4,0.8-0.9,1.2-1.3s0.9-0.9,1.2-1.4c0.3-0.5,0.5-1.1,0.5-1.8
		c0-0.9-0.3-1.2-0.5-1.6c-0.2-0.4-0.3-1,0-2.4c0.5-1.9,1.1-3.5,1.8-4.9c0.4-0.8,0.7-1.6,1-2.5c0.2-0.8,0.4-1.8,0.4-2.9
		c0-2.3,0-4.5,0.4-6.2c0.2-0.6,0.9-0.9,1.4-1.4v-0.1c-0.6,0-1.4,0-1.5,0c-0.9-0.2-1.9-0.7-2.7-1.3c-0.9-0.6-1.6-1.2-2.2-1.5
		c-0.6-0.4-0.8-0.9-0.9-1.3c-0.1-0.4,0-0.8,0.2-1.1c0.4-0.7,1.2-1.3,1.5-1.6s0.4-0.7,0.3-1c-0.1-0.3-0.3-0.6-0.6-0.9
		c-0.6-0.6-1.4-1-1.7-1.3c-0.4-0.4-0.6-1.7-0.6-3c0-1-0.1-1.8-0.2-2.6l-11.7,4.3l6.2,11.5l0.4,6.7l-21.3-16.6l-2.7-10.7l-9.8,10.2
		v-0.8c-0.3,0.4-0.6,0.8-0.8,1.2c-0.5,1-0.8,1.6-1.1,2.2c-0.2,0.6-0.3,1.2-0.3,2.3c0,0.6,0.2,1.2,0,1.6c-0.2,0.4-0.9,0.7-2.7,0.7
		c-0.6,0-1.1,0.1-1.4,0.4c-0.3,0.2-0.5,0.6-0.7,1c-0.3,0.8-0.3,1.7-0.6,2.7c-0.1,0.6-0.4,1.5-0.8,2.4c-0.4,0.9-0.8,1.8-1.4,2.1
		c-1,0.5-1.5,0.8-1.9,1.4c-0.4,0.5-0.7,1.2-1.2,2.2c-0.8,1.6-1.2,2.8-2.2,4.9c-0.3,0.7-1,1.3-1.3,1.9c-0.2,0.3-0.3,0.7-0.3,1
		s0.2,0.7,0.7,1.1c0.3,0.3,0.5,0.7,0.6,1.2c0.1,0.5,0.1,0.9,0,1.4c-0.1,0.9-0.3,1.7-0.1,1.9c0.4,0.4,4,3.2,4,3.6
		c0,1.5,0.2,2.6,0.6,3.5c0.5,0.9,1.2,1.7,2.5,2.3c1.9,1,2.6,1.2,3.3,1.1c0.7-0.1,1.3-0.3,2.9-0.3c1,0,1.5,0.2,1.8,0.8
		s0.5,1.4,0.8,2.8c0.3,1.2,0.2,2.2,0,3.2c-0.1,1-0.3,2,0,3c0.2,0.8,0.4,1.8,0.7,2.8c0.3,1,0.6,1.9,1.1,2.5c0.7,0.9,1.4,1.7,1.8,2.3
		c0.2,0.3,0.3,0.6,0.2,0.9c-0.1,0.3-0.3,0.5-0.7,0.7c-1.5,0.8-1.9,1.2-2,1.7c-0.1,0.5,0,1.1-0.7,2.3c-0.7,1.4-1.4,2.8-2.6,4
		c-0.4,0.4-0.9,1.4-1.5,2.2c-0.3,0.4-0.7,0.7-1.1,0.9c-0.4,0.2-0.9,0.2-1.4-0.1c-0.3-0.2-1.3-1-2.2-1.7c-0.5-0.4-0.9-0.7-1.3-0.9
		c-0.4-0.2-0.7-0.2-0.9,0c-0.6,0.6-3.2,2.3-3.6,3.1c-0.4,0.7-0.8,1.3-1.2,1.9c-0.4,0.6-0.6,1.3-0.6,2.1c0,1.3,0,2.4-0.3,3.2
		c-0.1,0.4-0.3,0.7-0.7,1c-0.3,0.3-0.7,0.5-1.2,0.6s-0.9,0.3-1.1,0.5s-0.3,0.5-0.4,0.8c-0.1,0.7,0.1,1.7,0.1,3.1
		c0,0.7-0.1,2.1-0.1,3.3c0,0.6,0.1,1.2,0.2,1.6c0.1,0.4,0.4,0.8,0.8,0.9c1,0.3,2.2,0.4,2.9,0.7c0.3,0.2,0.5,0.4,0.5,0.7
		s-0.3,0.7-0.8,1.2s-0.7,0.9-0.7,1.2c-0.1,0.3,0.1,0.7,0.3,1c0.4,0.7,1.1,1.4,1.4,2.7l0.8,2.5c0.5,0.5,0.8,1.1,1.8,1.1
		C387.5,427.7,388.3,427.7,389,428.1z"/>
	<path id="path2586" class="st1" d="M384.4,426.6l-0.8-2.5c-0.3-1.3-1-2-1.4-2.7c-0.2-0.3-0.3-0.7-0.3-1c0.1-0.3,0.3-0.8,0.7-1.2
		c0.5-0.5,0.8-0.9,0.8-1.2s-0.2-0.5-0.5-0.7c-0.7-0.3-1.9-0.4-2.9-0.7c-0.4-0.1-0.6-0.4-0.8-0.9c-0.2-0.5-0.2-1-0.2-1.6
		c0-1.2,0.1-2.6,0.1-3.3c0-1.5-0.2-2.4-0.1-3.1c0-0.3,0.1-0.6,0.4-0.8c0.2-0.2,0.6-0.4,1.1-0.5s0.9-0.3,1.2-0.6
		c0.3-0.3,0.5-0.6,0.7-1c0.3-0.8,0.3-1.9,0.3-3.2c0-0.8,0.3-1.4,0.6-2.1c0.4-0.6,0.8-1.2,1.2-1.9c0.4-0.8,3-2.5,3.6-3.1
		c0.2-0.2,0.5-0.1,0.9,0c0.4,0.2,0.8,0.5,1.3,0.9c0.9,0.7,1.9,1.6,2.2,1.7c0.5,0.3,1,0.3,1.4,0.1c0.4-0.2,0.8-0.5,1.1-0.9
		c0.6-0.8,1.1-1.8,1.5-2.2c1.3-1.3,1.9-2.7,2.6-4c0.6-1.2,0.5-1.8,0.7-2.3c0.1-0.5,0.5-0.9,2-1.7c0.4-0.2,0.6-0.5,0.7-0.7
		c0.1-0.3,0-0.6-0.2-0.9c-0.4-0.7-1.1-1.4-1.8-2.3c-0.5-0.6-0.8-1.6-1.1-2.5c-0.3-0.9-0.5-2-0.7-2.8c-0.3-1.1-0.1-2,0-3
		c0.1-1,0.3-2,0-3.2c-0.3-1.3-0.5-2.2-0.8-2.8s-0.8-0.8-1.8-0.8c-1.7,0-2.3,0.2-2.9,0.3c-0.6,0.1-1.4-0.2-3.3-1.1
		c-1.3-0.6-2-1.4-2.5-2.3c-0.5-0.9-0.6-2-0.6-3.5c0-0.3-3.6-3.1-4-3.6c-0.2-0.2,0-1,0.1-1.9c0.1-0.4,0.1-0.9,0-1.4
		c-0.1-0.5-0.2-0.8-0.6-1.2c-0.4-0.4-0.6-0.8-0.7-1.1c0-0.3,0.1-0.7,0.3-1c0.3-0.6,1-1.2,1.3-1.9c1-2,1.4-3.3,2.2-4.9
		c0.5-1,0.8-1.7,1.2-2.2s0.9-0.9,1.9-1.4c0.6-0.3,1.1-1.2,1.4-2.1c0.4-0.9,0.6-1.9,0.8-2.4c0.2-0.9,0.3-1.9,0.6-2.7
		c0.1-0.4,0.3-0.7,0.7-1c0.3-0.2,0.8-0.4,1.4-0.4c1.8,0,2.5-0.3,2.7-0.7s0-1,0-1.6c0-1.1,0.1-1.7,0.3-2.3c0.2-0.6,0.6-1.2,1.1-2.2
		c0.2-0.4,0.6-0.8,0.8-1.2l-0.4-4.6c-0.6-0.3-1.2-0.6-1.8-0.9c-0.6-0.3-1-0.7-1.4-1.1c-0.3-0.4-0.5-0.9-0.7-1.4
		c-0.3-1.1-0.2-2.3-0.2-3.7c0-0.3-0.7-0.5-1.5-0.8s-1.6-0.6-2.1-1c-0.9-0.9-1.8-1.2-2.8-1.3s-2.1,0-3.5,0c-0.3,0-0.6,0.2-0.8,0.4
		c-0.2,0.2-0.4,0.6-0.5,1c-0.3,0.7-0.7,1.5-1.3,1.7c-0.3,0.1-1.3-0.5-2.2-1.2c-1-0.7-1.9-1.3-2.2-1.5c-1.1-0.5-1.9-0.9-2.8-1.1
		c-0.8-0.2-1.6-0.3-2.6-0.3c-0.8,0-1.2,0.1-1.5,0.3s-0.4,0.4-0.6,0.4c-0.3,0.2-0.8-0.1-2.8-1.6c-0.1-0.1-5.7,3.8-6.2,4
		c-0.5,0.3-0.7,0.6-0.7,0.9c0,0.3,0.2,0.7,0.4,1.1c0.5,0.7,1.4,1.5,1.7,2c0.6,1.1,0.9,2.1,0.8,2.9c0,0.4-0.2,0.7-0.5,0.9
		c-0.3,0.3-0.7,0.5-1.2,0.6c-1.1,0.3-1.8,0.8-2.5,1.3s-1.2,1-2,1.4c-0.7,0.3-1.2,1-1.5,1.7s-0.4,1.6-0.2,2.3c0.2,0.6,4,3.5,4,3.6
		c0.2,0.4,0,0.7-0.4,1c-0.4,0.3-1,0.5-1.6,0.7c-0.6,0.2-1.2,0.5-1.7,0.7c-0.5,0.3-0.8,0.7-0.8,1.1c0,0.6-0.3,0.8-0.7,0.9
		s-1-0.1-1.6-0.4c-1.2-0.5-2.4-1.4-2.5-1.4c-0.3-0.2-2.1,4.1-2.2,4.5c-0.3,0.6-0.7,1.5-0.9,1.8l0,0c0.2,0.3,0.4,0.7,0.7,0.9
		c0.6,0.3,2.7,0.9,2.4,2.1c-0.5,2.2-0.1,1.9,1.4,2.7c0.8,0.4,2.2,0.7,3,1.5c1.2,1.2,3.6,1.5,4.1,2.1l0.3,9.8l-3,2.9l5.4,5.7l0.3,7.4
		l5.9,9.2l-11.9,10.4c0.2,0.3,0.3,0.6,0.6,0.9c0.9,0.9,3.8,1.2,3,2.1c-0.8,0.8-3,1-2.7,2.1c0.2,0.6,2.4,2.1,2.4,3
		c0,1-0.5,3.5,0.9,3.8c1.2,0.3,2.5,1.5,3.6,1.8c2.6,0.7,0.5,2.3,2.1,3.9c0.4,0.9-0.7-0.4,0.3,0.6c0.9,0.9,1.5,2.9,1.5,4.2
		c0,1.6,0.3,2.8,0.3,4.4c0,1.6-0.5,2.3-1.8,2.9c-0.4,0.2-3,2.1-1.5,3.2c2.3,1.7,1.7,0.9,3.6,0c1.8-0.9,2.4-0.6,3.6,0.6
		c1.5,1.5,0.3,0.9-0.9,2.1c-0.7,0.7-1.4,1.9-0.3,3c1.3,1.3,1.7,0.6,3.9,1.2c1.1,0.3,1.8,1.3,3.6,0.9c1.5-0.4,2.7-0.3,2.4-1.8
		c-0.7-2.8,2.5,0,2.9-1.8c0.2-1-2.2-2-1.4-2.7c0.2-0.2,0.6-1.7,2.6-1.2C383.9,426.1,384.1,426.3,384.4,426.6z"/>
	<path id="path2581" class="st1" d="M346.1,338.2L346.1,338.2c0.2-0.3,0.6-1.2,0.9-1.8c0.2-0.4,1.9-4.7,2.2-4.5
		c0.1,0.1,1.3,0.9,2.5,1.4c0.6,0.3,1.2,0.4,1.6,0.4c0.4,0,0.7-0.3,0.7-0.9c0-0.5,0.3-0.9,0.8-1.1c0.5-0.3,1.1-0.5,1.7-0.7
		c0.6-0.2,1.2-0.4,1.6-0.7c0.4-0.3,0.6-0.6,0.4-1c0-0.1-3.8-3-4-3.6c-0.2-0.7-0.1-1.5,0.2-2.3c0.3-0.7,0.9-1.4,1.5-1.7
		c0.7-0.4,1.3-0.9,2-1.4s1.4-1,2.5-1.3c0.6-0.1,1-0.4,1.2-0.6c0.3-0.3,0.4-0.5,0.5-0.9c0.1-0.8-0.3-1.7-0.8-2.9
		c-0.3-0.5-1.1-1.3-1.7-2c-0.3-0.4-0.5-0.7-0.4-1.1c0-0.3,0.2-0.7,0.7-0.9s6.1-4.1,6.2-4c2,1.5,2.5,1.8,2.8,1.6
		c0.2-0.1,0.3-0.3,0.6-0.4c0.3-0.2,0.7-0.3,1.5-0.3c1,0,1.8,0.1,2.6,0.3c0.8,0.2,1.7,0.5,2.8,1.1c0.3,0.1,1.2,0.8,2.2,1.5
		s1.9,1.3,2.2,1.2c0.7-0.2,1-0.9,1.3-1.7c0.2-0.4,0.3-0.7,0.5-1s0.5-0.4,0.8-0.4c1.4,0,2.5-0.1,3.5,0s1.9,0.4,2.8,1.3
		c0.4,0.4,1.3,0.7,2.1,1s1.5,0.5,1.5,0.8c0,1.4,0,2.7,0.2,3.7c0.1,0.5,0.3,1,0.7,1.4c0.3,0.4,0.8,0.8,1.4,1.1
		c0.6,0.3,1.2,0.6,1.8,0.9l0.4,5.4l9.8-10.2l2.7,10.7l21.4,16.9l-0.4-6.7l-6.2-11.5l11.7-4.3c0-0.2,0-0.7,0-0.8
		c-0.1-0.3,1.3-0.6,2.7-0.8s3-0.4,3.3-0.4c0.7,0,1.3-0.1,1.6-0.3c0.3-0.2,0.5-0.4,0.6-0.7c0.1-0.5-0.2-1.3-0.6-1.9
		c-0.5-1-0.7-1.6-0.9-2.2c-0.2-0.6-0.5-1.1-1.1-1.8c-0.4-0.4-0.9-0.6-1.3-0.6c-0.4,0-0.9,0.1-1.2,0.1s-0.5-0.1-0.5-0.3
		c0-0.3,0.2-0.7,0.6-1.6c0.3-0.7,0.3-1.9,0.1-3c-0.2-1.1-0.4-2.2-0.5-2.6c-0.1-0.5-0.9-1.2-1.7-1.8s-1.6-1.1-1.9-1.4
		c-1-1-1.5-1.7-1.7-2.3s-0.2-1-0.3-1.4c-0.1-0.7,0-1.1,0.2-1.5s0.5-0.7,0.7-0.9c0.2-0.3,0.3-0.5,0-0.8s-0.7-0.7-1.7-1.1
		c-0.4-0.2-0.6-0.5-0.6-0.8s0.1-0.7,0.3-1.1c0.4-0.7,1.2-1.5,1.5-2.2c0.4-0.8,0.3-1.8,0.1-2.8s-0.5-2-0.5-2.9c0-1.4-0.3-2.1-0.2-2.5
		c0.1-0.2,0.8-0.4,1.1-0.6l-0.5-0.1l-3.6-4.9l-16.2-1.2l-8.5,4l-4.9,3.6l-8.9-4l-14.9-3.2h-0.3c-0.7-0.3-2-0.2-3.2,0
		s-2.4,0.5-3.1,0.9c-0.4,0.2-0.7,0.5-0.8,0.9c-0.2,0.4-0.3,0.8-0.4,1.2c-0.1,0.4-0.2,0.8-0.5,1.1s-0.7,0.6-1.4,0.8
		c-1.1,0.3-1.9,0-2.5-0.2c-0.7-0.2-1.4-0.3-2.4,0.2c-0.6,0.3-0.7,1-0.7,1.8s0,1.6-0.1,2.2h-6.7l-17.3-9.3l-6.2-4.9l-3.6,1.3
		l-9.3-4.4l-4.5,6.2l4.5,5.4l-5.8,4.4h-0.1c0.1,0,0.1,0,0.2,0c0.5,0.5,1,2.1,2.1,2.4c1.4,0.3,2.4,0.9,3.6,1.5
		c0.5,0.3,2.8,1.1,1.5,2.4c-0.6,0.6-2.4,1.1-2.4,2.4c0,1.8,0.5,2.8,0.9,4.4c0.3,1.3,2.3,2.6,2.4,2.9c0.2,0.9-1.5,2-0.9,2.7
		c0.3,0.3,0.6,0.6,0.9,0.9c1.3,1.3,1.5,0.7,3.6,1.2c0.3,0.1,3.3,1.1,2.4,2.1c-0.9,0.9-1.8,1.2-2.7,2.1c-0.8,0.8-1.1,2-2.1,2.7
		c-0.1,0.1-3.8,3-2.9,3.2c0.5,0.1,3.2,0.8,3.2,1.4c0,2.5-1,3.3,2.1,3.3c1.5,0,3,0,4.4,0c1.3,0,3.2-0.3,4.5,0
		c1.7,0.4,1.8,1.3,3.2,2.1c1.7,0.8,2-0.7,2.4-0.6c0.5,0.1,1.5-0.5,0.9,2.1c-0.4,1.7-0.6,3,0.6,4.1c1.1,1.1,1.9,2.2,3.2,3.6
		c0.3,0.3,1.8,2.9,0.9,3.9c-0.3,0.3-3.3,2.1-2.7,2.9c0.7,0.9,1.5,2.1,2.4,3C345.3,336.7,345.7,337.5,346.1,338.2z"/>
	<path id="path2523" class="st1" d="M313.2,279.6L313.2,279.6l5.9-4.5l-4.5-5.4l4.5-6.2l9.3,4.4l3.6-1.3l6.2,4.9l17.3,9.3h6.7
		c0.2-0.7,0.1-1.5,0.1-2.2c0-0.8,0.1-1.4,0.7-1.8c1-0.5,1.7-0.4,2.4-0.2c0.7,0.2,1.4,0.5,2.5,0.2c0.7-0.2,1.1-0.5,1.4-0.8
		s0.4-0.7,0.5-1.1c0.1-0.4,0.2-0.8,0.4-1.2c0.2-0.4,0.4-0.7,0.8-0.9c0.7-0.3,1.9-0.7,3.1-0.9s2.4-0.3,3.2,0h0.3l-0.4-0.1
		c1.7-0.7,2.4-1.5,3-2.1c0.3-0.3,0.6-0.4,1-0.4c0.4,0,0.9,0.1,1.6,0.5c0.2,0.1,3.4-2.9,4-3.2c1.2-0.6,1.7-0.8,1.6-1.1
		c0-0.3-0.6-0.6-1.6-1.3c-0.7-0.5-1-1.5-1.1-2.5c-0.1-1-0.1-1.9-0.1-2.4s0.6-1,1.4-1.5c0.7-0.5,1.5-1,1.8-1.3
		c1.1-1.1,1.7-1.2,2.1-1.3c0.4-0.1,0.3-0.3,0-1.5c-0.3-1.1-0.4-1.8-0.7-2.5c-0.3-0.7-0.6-1.2-1.4-2s-1.9-2.9-2.4-4
		c-0.3-0.5-0.5-0.8-0.8-1s-0.5-0.1-0.8,0.1c-0.5,0.3-0.9,1-1.2,1.7c-0.3,0.6-0.7,0.9-1.1,0.9c-0.4,0-0.7-0.2-1.1-0.5
		c-0.7-0.6-1.3-1.7-1.4-2c-0.2-0.4-0.2-0.7,0-0.9c0.1-0.3,0.4-0.5,0.7-0.7c0.7-0.4,1.6-0.6,2.1-0.8c0.4-0.2,0.5-0.5,0.5-0.9
		c-0.1-0.4-0.3-0.8-0.6-1.3c-0.6-0.9-1.4-1.6-1.5-1.8c-0.5-1.1-1.1-1.5-1.1-1.7s0.5-0.4,1.9-1.1c0.1,0,0-1.4,0-1.6v-10.5l4.3-2
		c-0.1,0-0.2,0-0.3,0c-0.6-0.1-2.4-2.8-3.2-3.2c-0.8-0.4-0.8-0.8-1.2-1.2l-0.7-0.2c0,0.6-0.3,0.9-1.5,1.2c-1.9,0.5-2.2,0.7-2.7,2.4
		c-0.3,1.1-0.9,2.6-1.2,3.9c-0.3,1.2-1,2.9-2.1,2.1c-1.1-0.8-1.6-1.8-2.7-2.4c-1.9-1-5.9-4.8-5.9-2.7c0,0.2,0.2,3-1.2,3
		c-2.5,0-2.2,0.1-3.2,1.4c-0.9,1.1-1.1,2.1-1.5,3c-0.6,1.2-0.8,2.6-2.4,1.8c-1.3-0.6-1.2-2.6-2.1-2.9c-0.2-0.1-3.3-1.5-3.9-0.3
		c-0.5,1.1-1.3,2.9-2.6,3.2c-1.5,0.4-2,1.1-3,2.1c-0.5,0.5-4.4,0.8-4.4,0.9c-0.4,0.9-0.5,2.4-2.1,2.4c-1.9,0-3.1-0.5-4.7-0.9
		c-0.1,0-3.9-1.4-4.2-0.3s0.1,3-1.8,2.1c-1.1-0.6-1.3-1.7-2.7-2.4c-1.8-0.9-1.8-0.1-3.6,0.3c-0.5,0.1-2.9,1.6-2.9,1.5
		c-0.9-1.1-1.4-1.6-3.3-2.1c-1-0.3-2.1-0.9-2.1-2.4c0-1.2,0.3-3.3-0.9-3.6c-0.8-0.2-3.5-0.7-3.9,0.9c-0.5,2.1,0.3,2.5,0.9,3.6
		c0.2,0.3,1.8,3.2,0.6,2.9c-1.8-0.5-1.7-2.3-3.2-2.7c-1.5-0.4-2.3-2.5-3-2.6c-2-0.5-1.9-0.2-2.9,0.9c-0.7,0.7-3.9,1.6-3.6,2.9
		c0.3,1.1,1.8,2.7,1.8,3.9c0,1.8,0.6,2.6,0.6,4.2c0,1.5-0.3,3.4,0.3,4.4c0.9,1.8,0.2,3-0.3,5c-0.5,1.9-0.4,2.9,0.6,4.1
		c0.8,1,2.3,2.6,1.8,4.4c-0.5,2,0.6,2.4,0.6,3.9s0,2.6,0.6,3.9c0.7,1.4,1.3,2,2.1,3.6c0.5,0.9,1.4,2,1.8,3.6c0.2,1,0.3,3.4,1.2,3.8
		c1,0.5,1.8,0.8,3.6,1.2C312.3,279.4,312.7,279.5,313.2,279.6z"/>
	<path id="path2483" class="st1" d="M386.3,220.9l-4.3,2v10.5c0,0.2,0.1,1.6,0,1.6c-1.4,0.7-2,0.9-1.9,1.1c0.1,0.2,0.6,0.6,1.1,1.7
		c0.1,0.2,0.9,1,1.5,1.8c0.3,0.4,0.5,0.9,0.6,1.3c0.1,0.4-0.1,0.7-0.5,0.9c-0.5,0.3-1.4,0.5-2.1,0.8c-0.3,0.2-0.6,0.4-0.7,0.7
		c-0.1,0.3-0.1,0.5,0,0.9c0.2,0.3,0.7,1.4,1.4,2c0.4,0.3,0.7,0.5,1.1,0.5c0.4,0,0.8-0.3,1.1-0.9c0.3-0.6,0.7-1.4,1.2-1.7
		c0.2-0.2,0.5-0.2,0.8-0.1s0.5,0.4,0.8,1c0.6,1.1,1.6,3.3,2.4,4c0.7,0.7,1.1,1.3,1.4,2s0.4,1.4,0.7,2.5c0.3,1.2,0.4,1.4,0,1.5
		c-0.4,0.1-1,0.3-2.1,1.3c-0.3,0.3-1.1,0.8-1.8,1.3s-1.4,1-1.4,1.5s-0.1,1.4,0.1,2.4c0.1,1,0.4,2,1.1,2.5c1,0.7,1.6,1,1.6,1.3
		s-0.4,0.5-1.6,1.1c-0.6,0.3-3.9,3.3-4,3.2c-0.7-0.4-1.2-0.5-1.6-0.5c-0.4,0-0.7,0.2-1,0.4c-0.6,0.5-1.3,1.4-3,2.1l15.4,3.2l8.9,4
		l4.9-3.6l8.5-4l16.2,1.2l3.6,4.9l0.5,0.1c0.3-0.2,0.3-0.3,1.1-0.5c1.4-0.4,2.1-0.8,2.6-1.4s0.9-1.4,1.8-2.6
		c1.1-1.5,1.9-2.3,3.2-3.6c1-1,1.4-1.5,2-1.6c0.6-0.1,1.2,0.2,2.5,0.8c0.5,0.3,1.4,0.1,2.3-0.2c0.9-0.3,2-0.7,2.9-1
		c1.2-0.3,2-0.3,2.6-0.1c0.6,0.3,1.1,0.8,1.8,1.7c1.2,1.6,3.1,2.7,4.1,3.6c0.7,0.7,1.5,1.3,2.3,1.8c0.9,0.5,1.7,0.9,2.5,1.1
		c0.7,0.2,1.3,0.6,1.9,1.1c0.6,0.5,1.2,1,1.7,1.3c0.6,0.3,0.8,0.6,0.9,0.9c0,0.3-0.2,0.6-0.4,0.9c-0.5,0.6-1.4,1.1-1.7,1.4
		c-0.5,0.5-0.6,1-0.6,1.4c0,0.5,0.2,0.9,0.6,1.3c0.6,0.7,1.6,1.3,2,1.4l0.7,0.1l-0.3-0.9l5.7-6.1l-4.9-7.3l5.7-4.1l-0.4-3.6
		l-4.9-1.2l-3.2-3.6l-8.9-0.4l2.4-3.6l-6.5-5.3l0.8-6.5l-5.7,2l-16.2-12.9l0.4-6.8c-0.4,0-0.8,0.1-1.1,0c-0.4-0.1-0.7-0.3-1-0.5
		c-0.2-0.1-0.5-0.2-0.8,0s-0.9,0.5-1.6,1.3c-0.9,0.9-1.3,1.6-1.8,1.9c-0.5,0.4-1,0.4-2.3,0.1c-0.6-0.1-0.9-0.3-1.1-0.5
		s-0.2-0.5,0-0.7c0.2-0.6,0.8-1.4,1.1-2.4c0.2-0.7,0.2-1.1,0-1.4s-0.4-0.5-0.8-0.6c-0.8-0.2-1.9,0-3.2,0c-1.5,0-2,0.3-2.4,0.7
		c-0.4,0.4-0.4,1.2-0.9,2.1c-0.1,0.3-0.4,0.2-0.7-0.1c-0.3-0.3-0.7-0.7-1.1-1.3c-0.7-1-1.4-2.2-1.4-2.2c-0.4-0.7-0.7-1.2-0.9-1.4
		c-0.3-0.2-0.5-0.2-0.7-0.1c-0.5,0.2-0.9,1-1.6,2c-0.2,0.3-0.6,0.3-0.9,0.1s-0.7-0.6-1.1-1c-0.7-0.9-1.4-2.1-1.6-2.4
		c-0.1-0.1-0.3,1-0.9,1.8c-0.3,0.4-0.7,0.6-1.2,0.6s-1.1-0.3-1.9-1.1c-0.8-0.8-1.3-1.2-1.9-1.4c-0.6-0.2-1.2,0.1-2.2,0.6
		c-1.1,0.5-1.2,0.6-1.5,0.6c-0.4,0-0.9-0.2-2.9-0.2c-0.8,0-1,0.2-1.1,0.5c-0.1,0.3,0,0.7,0.1,1.1c0.1,0.4,0.2,0.8,0,1.1
		c-0.2,0.3-0.7,0.5-1.7,0.5c-1.3,0-3.1-0.3-4.7-0.6C388.8,221.5,387.4,221.2,386.3,220.9z"/>
	<path id="path2447" class="st1" d="M436.2,224.9l-0.4,6.8l16.2,12.9l5.7-2l-0.8,6.5l6.5,5.3L461,258l8.9,0.4l3.2,3.6l4.9,1.2
		l0.4,3.6l7.7-6.1l7.7,3.6l5.3-4.9l8.1,4.5l6.8,2l4,5.7l8.5-1.2c0.7-0.1,1.3-0.3,2-0.4c1.6-0.3,2.7-0.5,3.6-0.4
		c0.9,0.2,1.5,0.8,2.5,2c0.2,0.3,0.6,0.4,1,0.4c0.4,0,0.9-0.2,1.4-0.3c0.9-0.3,1.9-0.8,2.1-0.9c1-0.5,1.7-0.8,2.4-0.7
		c0.6,0.1,1.2,0.5,1.7,1.5c0.4,0.9,0.8,1.4,1.3,1.6c0.4,0.3,0.9,0.3,1.3,0.1c0.8-0.3,1.4-1.1,1.9-1.8c0.3-0.5,0.8-0.6,1.2-0.7
		c0.4,0,0.9,0.2,1.4,0.4c0.9,0.4,1.9,1.1,2.7,1.1c0.7,0,1-0.1,1.2-0.4s0.2-0.5,0.2-0.8s0-0.7,0.2-1s0.5-0.5,1.2-0.7
		c0.3-0.1,0.4-0.4,0.4-0.9s-0.1-1.1-0.3-1.8c-0.3-1.3-0.8-2.6-1-2.9c-0.2-0.5-0.3-0.9-0.2-1.4s0.3-0.8,0.6-1.2
		c0.5-0.7,1.3-1.2,1.6-1.5s1.1-0.7,1.2-0.8l1.2-1.4c0-0.4,0-0.6,0-1s0.4-0.9,0.6-1.6s0.3-1.4-0.2-2.5c-0.6-1.1-0.8-1.7-0.5-2.1
		c0.3-0.3,1.1-0.4,2.5-0.4c0.7,0,1-0.1,1.3-0.4c0.2-0.2,0.3-0.5,0.3-0.9c0-0.8-0.4-1.8-0.4-2.8s-0.2-1.8-0.6-2.4
		c-0.4-0.6-0.9-1.1-1.4-1.6c-0.7-0.7-1.2-1.1-1.5-1.7s-0.5-1.3-0.5-2.7c0-0.5,0.1-0.7,0.3-0.8c0.2-0.1,0.4-0.1,0.5-0.2
		c0.2-0.1,0.3-0.2,0.2-0.5c0-0.3-0.2-0.8-0.7-1.7c-0.4-0.9-0.5-1.8-0.5-2.5c0-0.8,0-1.4-0.3-1.9c-0.2-0.4-0.1-0.6,0.2-0.7
		s0.7-0.3,1.2-0.4c1-0.1,2.3-0.2,3-0.5c1.4-0.7,3-1.3,4.5-1.6c1.3-0.3,2-0.7,2.5-1.1s0.8-1,1.6-1.8c0.6-0.6,1.2-1.2,1.8-1.7
		s1.3-0.9,2.2-1.1c1-0.2,1.5,0.1,1.9,0.4c0.5,0.3,0.9,0.5,1.7,0c0.8-0.4,1.3-0.9,1.8-1.4c0.4-0.5,0.8-1.2,1.1-1.8
		c0.3-0.5,0.2-0.6,0.3-0.9c-0.1-0.1-0.3-0.2-0.3-0.3c-0.3-0.3-0.4-0.7-0.3-1.1c0.1-0.4,0.3-0.8,0.6-1.2c0.6-0.8,1.5-1.7,1.7-2.6
		c0.1-0.3-1.1-0.7-2.4-0.9s-2.8-0.4-3.3-0.4s-0.7-0.2-0.9-0.6c-0.1-0.4-0.1-0.9-0.1-1.5s0-1.2-0.1-1.8c-0.1-0.6-0.2-1-0.5-1.4
		c-0.3-0.3,0-0.6,0.3-1s0.6-0.7,0.5-1.1c-0.5-0.9-0.9-1.6-1-2.1c0-0.3,0-0.5,0.2-0.7c0.2-0.3,0.6-0.5,1.2-0.8
		c0.4-0.2,0.6-0.5,0.7-0.8c0-0.3-0.1-0.6-0.3-0.9c-0.4-0.6-1.1-1.2-1.5-1.6c-0.6-0.6-1.1-1.2-1.5-1.9s-0.7-1.3-0.9-2.2
		c-0.1-0.6-0.4-1-0.8-1.2c-0.4-0.3-0.8-0.4-1.3-0.5c-1-0.1-2.1,0-3.2-0.3c-1.6-0.4-3.8-1.1-4.9-1.6c-0.3-0.2-0.4-0.4-0.2-0.7
		c0.1-0.3,0.5-0.6,0.8-0.9c0.7-0.7,1.6-1.4,1.8-2.1c0.1-0.4,0-0.8-0.3-1.1c-0.3-0.3-0.7-0.5-1.1-0.7c-0.9-0.4-2-0.8-2.6-1.4
		s-1-0.8-1.4-0.9s-0.6,0-0.8,0s-0.4-0.1-0.7-0.5c-0.2-0.4-0.5-1-0.7-2.2c-0.2-0.7-0.9-1.2-1.2-1.6c-0.1-0.3,0.1-0.6,0.2-0.9
		l-0.6,0.1c-0.4,0.3-1.2,0.2-2.2,0c-0.9-0.2-2-0.7-3.1-1.2c-1.1-0.5-1.6-0.8-1.8-1.4c-0.2-0.6-0.1-1.3,0.2-2.7
		c0.1-0.4-0.1-0.6-0.4-0.8s-0.8-0.3-1.3-0.4c-1-0.2-2.2-0.2-2.7-0.4c-0.8-0.2-1.3-0.5-1.5-0.7c-0.2-0.3-0.2-0.6,0-0.9
		c0.3-0.6,1.1-1.2,1.5-1.6c0.3-0.3,0.5-0.8,0.4-1.3c0-0.5-0.2-1.1-0.4-1.6c-0.4-1.1-1-2-1.2-2.3s-0.4-0.4-0.7-0.2
		c-0.3,0.2-0.6,0.5-1,0.8c-0.4,0.3-0.7,0.8-1.1,1.1c-0.4,0.3-0.8,0.4-1.1,0.4c-0.5-0.1-0.9-0.4-1.1-0.8c-0.3-0.4-0.5-0.8-0.6-1.3
		c-0.3-0.9-0.5-1.9-0.7-2.4c-0.4-0.8-2.3-2.1-2.8-3.2c-0.2-0.4-1-0.7-1.8-1.1s-1.7-0.9-2.2-1.8c-0.1-0.3-1.2-0.4-2.4-0.4
		c-1.2,0-2.4,0-2.9,0h-0.3c0.2,0.8,0.6,1.7,0.6,2.9c0,0.8,0,1.6,0,2.4l-8.5-2.4l-2.8-6.1l2.3-6.6l6.6-4.3l-4.2-5.2l-6.6,2.4
		l-0.1-0.1l-2.5,5.7l-1.6,8.5l-6.1,8.5l-0.8,4.4l-9.7-4.8l3.2,7.7l-8.9,4l-0.4,3.2l-4.9,3.2l-1.2-9.3l-5.7,6.1l-0.5-0.4l0.1,1.2
		c-0.4,0.7-0.9,1-1.4,1.1c-0.6,0.1-1.2,0-1.7-0.1c-0.5,0-0.8,0-0.9,0.4c-0.1,0.4,0.1,1,0.7,2.3c0.2,0.5,0.1,1-0.3,1.5
		c-0.4,0.5-0.9,1-1.3,1.4c-0.2,0.2-0.2,0.4-0.1,0.7c0.1,0.2,0.4,0.5,0.6,0.8c0.5,0.6,1.1,1.2,1.1,1.8c0,2.4-0.4,3.4-0.4,5.7
		c0,1,0,1.7-0.2,2c-0.1,0.3-0.4,0.3-0.7,0.2c-0.6-0.2-1.5-1-2.8-1.4c-2.2-0.6-2.3-1.5-4.4-2c-0.4-0.1-0.6,0-0.6,0.3s0.1,0.7,0.1,1.1
		s0,0.7-0.3,1s-0.8,0.3-1.6,0.1c-0.8-0.2-1.4-0.2-1.8-0.2c-0.4,0.1-0.6,0.3-0.7,0.5c-0.2,0.5,0.1,1.3,0.5,2.1
		c0.5,1.1,1.1,1.6,1.3,2.2c0.2,0.6,0.1,0.9-0.9,1.9c-0.8,0.8-1.1,1.8-1.5,2.7c-0.4,0.9-0.7,1.9-1.4,2.5c-0.8,0.8-1.1,1.5-1.1,2
		s0,0.9-0.1,1.2c-0.1,0.5,0.5,1.2,1.2,1.8c0.7,0.6,1.5,1.2,1.7,1.4c0.3,0.3,0.1,0.5-0.3,0.7c-0.4,0.2-1.1,0.3-1.8,0.4
		c-1.5,0.2-3.2,0.2-3.5,0.2c-1.3,0-2.1,0.1-2.6,0.6c-0.5,0.4-0.8,1.1-1.1,2.3c-0.2,0.7-1.1,1.1-1.6,1.4c-0.2,0.2-0.3,0.3-0.1,0.5
		c0.2,0.2,0.7,0.3,1.7,0.6c0.5,0.1,0.5,0.3,0.2,0.4s-0.9,0.4-1.6,0.6c-1.4,0.4-3.3,0.8-4.3,1c-0.6,0.1-1.4,0-2,0l-3.2,8.5
		C436.7,225,436.5,224.9,436.2,224.9z"/>
	<path id="path2439" class="st1" d="M474.1,171.9l0.5,0.4l5.7-6.1l1.2,9.3l4.9-3.2l0.4-3.2l8.9-4l-3.2-7.7l9.7,4.8l0.8-4.4l6.1-8.5
		l1.6-8.5l2.5-5.7l-6.5-7.9l0.5-0.7l-1,0.1c-0.8-0.2-1.6-0.7-2.4-1.4s-1.6-1.2-2.5-1.4c-0.4-0.1-1.3,0.6-2.1,1.4s-1.4,1.7-1.6,1.8
		c0,0-2.4-3.5-2.5-3.6c-0.2-0.3-1.4-0.8-2.7-1.3c-1.3-0.5-2.6-0.9-3-1.1c-1-0.7-1.7-1.5-2.2-1.6c-0.2-0.1-0.4,0-0.5,0.3
		c-0.1,0.3-0.2,0.8-0.2,1.7c0,1.4-0.3,2.3-0.7,3c-0.4,0.7-1.1,1.2-1.8,1.9c-0.3,0.3-0.6,0.2-0.9,0.1s-0.6-0.3-0.9-0.4
		s-0.5-0.1-0.7,0.2c-0.2,0.3-0.3,1-0.3,2.2c0,0.3-0.2,0.6-0.4,0.8c-0.2,0.2-0.6,0.3-1,0.4c-0.7,0.2-1.6,0.3-2.3,0.4
		c-0.6,0.1-0.7,0.5-0.7,1c0.1,0.5,0.4,1,0.8,1.7c0.9,1.2,2.3,2.6,3.1,3.4c0.3,0.3,0.2,0.5-0.1,0.6s-0.9,0.1-1.5,0.1
		c-1.4,0-3.1-0.1-4,0.1c-1.3,0.3-3.5,0.8-4.9,1.2c-0.5,0.1-0.9,0.5-1.1,0.9c-0.3,0.4-0.4,1-0.5,1.6c-0.2,1.2-0.3,2.6-0.8,3.6
		c-0.2,0.5-0.3,0.9-0.2,1.3s0.3,0.7,0.7,1c0.6,0.6,1.5,1,2.4,1.4c0.4,0.2,0.5,0.4,0.5,0.7c0,0.3-0.1,0.5-0.4,0.8
		c-0.4,0.6-1.1,1.2-1.4,1.7c-0.6,1.3-1.4,1.9-2.5,2.4l5.7,9.3L474.1,171.9z"/>
	<path id="path2428" class="st1" d="M380.9,216.2l0.7,0.2c0.4,0.4,0.4,0.8,1.2,1.2c0.8,0.4,2.7,3.1,3.2,3.2c1,0.3,2.6,0.6,4.2,1
		c1.6,0.3,3.4,0.6,4.7,0.6c1,0,1.5-0.2,1.7-0.5s0.1-0.7,0-1.1c-0.1-0.4-0.2-0.8-0.1-1.1c0.1-0.3,0.4-0.5,1.1-0.5
		c2,0,2.5,0.1,2.9,0.2c0.4,0,0.5,0,1.5-0.6c1-0.5,1.6-0.7,2.2-0.6c0.6,0.1,1.1,0.6,1.9,1.4s1.4,1.1,1.9,1.1s0.9-0.3,1.2-0.6
		c0.6-0.7,0.8-1.8,0.9-1.8c0.2,0.3,0.9,1.5,1.6,2.4c0.4,0.4,0.7,0.8,1.1,1c0.4,0.2,0.7,0.2,0.9-0.1c0.7-0.9,1.1-1.7,1.6-2
		c0.2-0.1,0.4-0.1,0.7,0.1c0.3,0.2,0.6,0.7,0.9,1.4c0,0,0.7,1.2,1.4,2.2c0.4,0.5,0.7,1,1.1,1.3c0.3,0.3,0.6,0.4,0.7,0.1
		c0.5-0.9,0.6-1.6,0.9-2.1s0.9-0.7,2.4-0.7c1.3,0,2.4-0.1,3.2,0c0.4,0.1,0.7,0.3,0.8,0.6c0.2,0.3,0.2,0.7,0,1.4
		c-0.3,1-0.9,1.8-1.1,2.4c-0.1,0.3-0.1,0.5,0,0.7c0.2,0.2,0.5,0.4,1.1,0.5c1.3,0.3,1.8,0.3,2.3-0.1s0.8-1,1.8-1.9
		c0.8-0.8,1.3-1.1,1.6-1.3c0.3-0.2,0.6-0.1,0.8,0s0.5,0.4,1,0.5c0.4,0.1,1,0.2,1.8,0l3.2-8.5c0.6,0,1.5,0.1,2,0c1-0.2,2.9-0.6,4.3-1
		c0.7-0.2,1.3-0.4,1.6-0.6c0.3-0.2,0.3-0.3-0.2-0.4c-1-0.2-1.5-0.4-1.7-0.6s-0.1-0.3,0.1-0.5c0.4-0.3,1.4-0.7,1.6-1.4
		c0.3-1.1,0.5-1.9,1.1-2.3c0.5-0.4,1.3-0.6,2.6-0.6c0.3,0,2,0,3.5-0.2c0.7-0.1,1.4-0.2,1.8-0.4c0.4-0.2,0.6-0.4,0.3-0.7
		c-0.2-0.2-1-0.8-1.7-1.4s-1.3-1.3-1.2-1.8c0.1-0.3,0-0.7,0.1-1.2c0.1-0.5,0.3-1.2,1.1-2c0.7-0.7,1-1.6,1.4-2.5
		c0.4-0.9,0.7-2,1.5-2.7c0.9-0.9,1.1-1.4,0.9-1.9s-0.8-1.1-1.3-2.2c-0.4-0.8-0.7-1.5-0.5-2.1c0.1-0.3,0.3-0.5,0.7-0.5
		c0.4-0.1,0.9,0,1.8,0.2c0.9,0.2,1.4,0.1,1.6-0.1s0.3-0.6,0.3-1s-0.1-0.8-0.1-1.1c0-0.3,0.2-0.4,0.6-0.3c2.1,0.5,2.2,1.5,4.4,2
		c1.3,0.3,2.2,1.1,2.8,1.4c0.3,0.1,0.5,0.1,0.7-0.2c0.1-0.3,0.2-0.9,0.2-2c0-2.2,0.4-3.3,0.4-5.7c0-0.6-0.6-1.2-1.1-1.8
		c-0.3-0.3-0.5-0.5-0.6-0.8c-0.1-0.2-0.1-0.4,0.1-0.7c0.4-0.4,0.9-0.9,1.3-1.4c0.4-0.5,0.6-1,0.3-1.5c-0.6-1.3-0.8-2-0.7-2.3
		c0.1-0.4,0.4-0.4,0.9-0.4s1.1,0.2,1.7,0.1c0.6-0.1,1.1-0.3,1.4-1.1l-1.2-10.5l-5.7-9.3c1.1-0.5,1.8-1.1,2.5-2.4
		c0.3-0.5,0.9-1.1,1.4-1.7c0.2-0.3,0.3-0.6,0.4-0.8c0-0.3-0.1-0.5-0.5-0.7c-0.8-0.4-1.7-0.8-2.4-1.4c-0.3-0.3-0.6-0.6-0.7-1
		c-0.1-0.4,0-0.8,0.2-1.3c0.5-1,0.6-2.3,0.8-3.6c0.1-0.6,0.2-1.1,0.5-1.6c0.3-0.4,0.6-0.8,1.1-0.9c1.4-0.3,3.6-0.9,4.9-1.2
		c0.9-0.2,2.7-0.1,4-0.1c0.7,0,1.2,0,1.5-0.1s0.4-0.3,0.1-0.6c-0.8-0.8-2.2-2.2-3.1-3.4c-0.4-0.6-0.8-1.2-0.8-1.7
		c-0.1-0.5,0.1-0.8,0.7-1c0.6-0.2,1.5-0.2,2.3-0.4c0.4-0.1,0.7-0.2,1-0.4s0.4-0.5,0.4-0.8c0-1.2,0.1-1.8,0.3-2.2
		c0.2-0.3,0.4-0.3,0.7-0.2c0.3,0.1,0.6,0.3,0.9,0.4s0.6,0.2,0.9-0.1c0.7-0.7,1.3-1.2,1.8-1.9c0.4-0.7,0.7-1.5,0.7-3
		c0-0.9,0.1-1.4,0.2-1.7c0.1-0.3,0.2-0.4,0.5-0.3c0.5,0.1,1.2,0.9,2.2,1.6c0.3,0.3,1.7,0.7,3,1.1c1.3,0.5,2.5,0.9,2.7,1.3
		c0.1,0.1,2.4,3.7,2.5,3.6c0.1-0.1,0.8-1,1.6-1.8c0.8-0.8,1.6-1.5,2.1-1.4c0.8,0.2,1.6,0.8,2.5,1.4c0.9,0.6,1.6,1.2,2.4,1.4l1-0.1
		l4.2-5.4l-4.7-3.8l2.8-2.4l1.4-4.7l-8.9-7.5l5.6-3.3l-1.3-10.5l-2.9,2.5h-13.7l2.4-4.7c-0.6-0.2-1.3-0.3-1.9-0.4
		c-0.8-0.2-1.5-0.8-2.2-1.4s-1.4-1.2-2.5-1.5c-1.3-0.3-2-0.8-2.8-1.4c-0.8-0.5-1.6-1.1-2.9-1.4c-1.2-0.3-2.5,0.2-3.8,0.5
		c-0.4,0.1-0.8,0-1.1-0.3c-0.3-0.3-0.6-0.6-0.9-1.1c-0.6-0.9-1-1.9-1.3-2.4c-0.2-0.3-0.4-0.4-0.7-0.4s-0.7,0.1-1.1,0.2
		c-0.8,0.2-1.7,0.5-2.4,0.2c-0.5-0.2-1.2,0-2,0.2s-1.7,0.5-2.7,0.3c-0.7-0.2-1.4-0.2-2.1-0.4c0.1,0.2,0.2,0.1,0.2,0.4
		c0.1,0.6-0.3,1.1-0.6,1.7c-0.4,0.6-0.6,1.1-0.3,1.6c0.5,0.6,0.9,1,1.2,1.3c0.4,0.3,0.7,0.4,1.1,0.4c0.7,0,1.5-0.4,2.9-0.7
		c0.5-0.1,2.3-0.5,3.9-0.5c0.8,0,1.6,0.1,2.2,0.4c0.6,0.3,1,0.8,1,1.5l-1.4,5.2l8,0.5l1,7.1h-18.3l-7.1-3.3l-6.1,14.1h5.2l1.8,7.1
		v9.4l-18.3,1.9c0,1.3-0.2,2.3-0.4,3.3c-0.1,1-0.1,1.9,0.4,2.8c0.6,1.2,0.8,1.8,0.7,2.4c-0.2,0.5-0.7,1-1.6,1.9
		c-0.9,0.9-1.7,1.3-2.6,1.6c-0.9,0.3-2,0.4-3.5,0.7c-1.5,0.4-2.1,0.4-2,0.7c0.1,0.3,0.7,1,1.5,2.6c0.7,1.5,1.4,2,1.4,2.2
		s-0.6,0.2-2.3,0.6c-1.8,0.4-2.2,0.8-2.4,0.9c-0.2,0-0.3-0.3-1.4-1.4c-0.5-0.5-1.3-1-2.2-1.4s-1.9-0.5-3-0.5c-0.5,0-0.9,0.2-1.3,0.4
		c-0.4,0.3-0.7,0.7-0.9,1.1c-0.2,0.4-0.3,0.9-0.3,1.4s0.2,0.9,0.6,1.3c1.1,1.1,1.7,1.4,2.3,1.6c0.6,0.2,1.2,0.2,2.4,0.8
		c0.9,0.4,1.3,0.8,1.5,1.1c0.2,0.3,0,0.6-0.2,0.9s-0.5,0.5-0.7,0.8s-0.3,0.6-0.1,1c0.4,0.8,1,1.6,1.2,2.2c0.1,0.3,0,0.6-0.2,0.9
		s-0.7,0.5-1.4,0.7c-0.6,0.2-1.7,0.4-3,0.6c-1.2,0.1-2.6,0.2-3.6-0.1c-0.7-0.2-2.1-0.5-3.5-0.7c-1.4-0.2-2.8-0.2-3.6,0.2
		c-0.9,0.4-1.8,0.8-2.9,1.1c-1.1,0.2-2.2,0.4-3.7,0.4c-1.6,0-2.6,0-2.9,0.4s0,0.9,1.1,2c0.6,0.6,0.9,1,1.1,1.2
		c0.1,0.2,0,0.4-0.3,0.4c-0.5,0.1-1.8-0.1-3.2,0.3c-1.3,0.3-1.9,0.7-2.2,1.3c-0.2,0.6,0.1,1.5,0.7,2.9c0.5,1,1.2,2,1.4,2.5
		c0.1,0.2,0,0.3-0.4,0.3c-0.3-0.1-1-0.3-1.9-0.8c-1.2-0.6-2-1.1-2.8-1.6s-1.6-0.9-2.9-1.2c-0.8-0.2-1.3-0.5-1.8-0.8
		s-0.8-0.7-1.1-1.1c-0.7-0.8-1.3-1.6-2.7-2.3c-0.9-0.4-1.8-0.7-2.2-0.4c-0.2,0.2-0.4,0.5-0.4,1s0,1.2,0.3,2.2
		c0.2,0.7,0.2,1.3,0.2,1.6c-0.1,0.4-0.2,0.6-0.4,0.7c-0.4,0.3-1.1,0.4-1.6,0.9c-1,1-1.5,1.3-2,1.1s-1.1-0.9-2.2-2.1
		c-0.7-0.7-1.2-1.1-1.5-1.3s-0.4-0.1-0.5,0.1c-0.1,0.2-0.2,0.6-0.5,1s-0.6,0.8-1.3,1.1c-0.7,0.4-1.3,0.4-1.7,0.3s-0.8-0.4-1.1-0.9
		c-0.6-0.9-1-2.2-1.9-3.2l0,0c-0.1,0.1-0.1,0.2-0.2,0.3c-1,0.5-2.4,1-2.4,2.4c0,1.3,0.4,3.3,0.9,4.4s0.9,2.4,1.8,3.3
		c1.2,1.2,1.2,1,0.6,3.2c-0.4,1.6,0.8,1.4,1.2,2.9c0.3,1-0.5,3.4,0.3,4.2c0.9,0.9,2,1.7,3.3,2.4c1.4,0.7,1.6,0.9,1.2,2.9
		c-0.3,1.4-1,3.3-0.6,4.7c0.2,0.9,1.1,2.7,2.1,2.7c1.2,0,3.3,0.1,3.6,1.2c0.8,3.1-0.3,1.1-2.4,3.2c-1.1,1.1-1.2,2,0,3.2
		c1.1,1.1,1.9,0.9,0.6,2.1c-0.8,0.8-4,1-2.1,2.9c0.7,0.7,1.4,1.7,2.3,2.7c0.9,0.9,2,1.8,2.4,3.2C381,215.6,381,215.9,380.9,216.2z"
		/>
</g>
</svg>
