<?xml version="1.0" encoding="utf-8"?>
<!-- Generator: Adobe Illustrator 19.0.0, SVG Export Plug-In . SVG Version: 6.00 Build 0)  -->
<svg version="1.1" id="Layer1" xmlns="http://www.w3.org/2000/svg" xmlns:xlink="http://www.w3.org/1999/xlink" x="0px" y="0px"
	 viewBox="0 0 10000 5000" style="enable-background:new 0 0 10000 5000;overflow: hidden; display: inline; width: inherit; min-width: inherit; max-width: inherit; height: inherit; min-height: inherit; max-height: inherit;" xml:space="preserve">
<style type="text/css">
	.st0{fill:#8FD4EB;stroke:#000000;stroke-width:.5;}
</style>
<g>
	
	<path onclick="modal(this.id);" id="886" class="st0" d="M4956.9,1262c14.5,27.5,30.7,52.7,55.8,74.3c1.2-8,2.4-13.6,2.8-19.3c2.4-29.8,4.5-59.6,6.8-89.4
		c0.6-8.3,1.5-16.5,1.9-24.8c0.3-5.3,2.2-8.7,7.8-9.7c2.6-0.5,5-2,7.6-2.5c5.4-1,8.8-4.2,11.3-8.9c6.9-13.1,16.1-24.2,27.8-33.5
		c7.6-6,9.3-15.5,9-25.8c1.2-0.5,3-1.7,4.8-1.9c23.2-1.7,46.4-4,69.6-4.6c10.5-0.3,21.1,2.3,31.5,4.3c39.5,7.5,79,15.2,118.4,23
		c5.5,1.1,10.9,2.9,16.2,4.8c20.3,7.4,40.5,15.1,60.7,22.6c24.1,8.9,46.7,21,68.9,33.8c7.5,4.3,15.1,8.1,23.8,9.8
		c6.4,1.2,12.5,1.9,18.6-0.1c7.2-2.3,14.6-2.1,21.6-0.2c4.5,1.2,9.2,4.1,12.4,7.5c6.6,7,12.7,6.8,21.3,3.3
		c31.1-12.6,62.7-24.1,94-36.4c6.8-2.7,12.5-2.4,19,0.6c15.1,6.9,30.5,13.1,46.4,19.8c0,11.2,0.4,22.4-0.1,33.6
		c-0.5,11.9-9.8,20-14.9,30.6c7.2,5.1,15.4,6.5,23.2,8.9c1.4,0.5,3.8-0.8,5.2-1.9c2.4-1.8,4.7-3.9,6.4-6.3
		c6.9-10,18.2-12.7,29.7-19.2c-2,16.6-3.8,31.2-5.7,45.7c-0.3,2.6-1.3,5.2-1.8,7.8c-1.6,7.9,0,11.4,8,11.1c12.2-0.4,22.2,6,33.5,8.1
		c1.4,0.3,3,1.5,3.9,2.8c9.5,12.5,22,22,32.5,33.4c8.3,9.1,17.1,17.8,24.4,27.6c3.5,4.6,4.1,11.4,6.3,17.9
		c-5.4,2.8-10.4,5.3-15.3,7.8c-3.8,2-7.7,3.8-11.3,6.2c-5.1,3.4-9.3,8.8-16.7,6.1c-1.2-0.4-3.7,0.5-4.6,1.6
		c-7.3,9.2-19.4,11.1-27.7,19.6c-7.6,7.8-18.5,12.6-28.2,18.3c-5.3,3.1-6.3,6.9-1.5,10.7c7.5,5.9,15.3,11.5,21.1,15.9
		c3.6,6.2,5.7,11,8.9,14.9c9,10.9,11.5,23.8,12,37.2c0.4,10,0,20,0.1,30c0.1,9.4-3.7,16.5-11.2,22.1c-7.9,5.9-8.7,8.8-4.7,17.6
		c2.1,4.5,4.6,8.9,6.5,13.4c3.4,7.8,4.4,15.8,2.3,24.3c-0.9,3.4-1.1,7.4-0.3,10.8c0.6,2.4,3.1,5.2,5.5,6.1c3,1.2,6.1,0.4,8.6-3
		c4.2-5.8,8.8-6.3,15-2.9c2,1.1,4.1,2,6.3,2.6c8.9,2.4,17.9,4.7,26.3,6.9c1.3,5.8,2.4,10.5,3.5,15.3c2,8.8,1.9,17-5.5,23.6
		c-7.6,6.8-4.9,15.2-3.1,23.2c1.4,6.2,2.9,12.3,4.8,18.3c2.5,8.1,1.1,15.6-1.9,23.3c-2.3,5.8-3.9,11.9-5.4,17.9
		c-1.8,7.2-5.6,13.2-12,16.5c-7.9,4.1-12.2,9.7-11.5,19.1c-2.6-0.3-4.5-0.3-6.4-0.7c-9.4-1.7-14.9,4.8-11.8,14c1.4,4.1,3.4,8,4.9,12
		c1.1,2.8,2.5,5.6,2.6,8.4c0.4,7.4,2.4,13.4,9.4,17.2c1.7,0.9,2.9,3.7,3.2,5.8c1,6.9,1.2,13.9,2.3,20.8c1,6.6-2.5,10.6-6.8,13.9
		c1.3,10.3,2.1,20.2,3.9,29.9c1.8,9.7,5.1,19.3,0.3,29.9c-27.3-2.9-52.7-9.8-73.4-29.2c-7.7-7.3-16.5-13.4-24.2-20.7
		c-10.7-10-20.8-20.5-31.8-31.4c-3.4,1.5-6.8,2.6-9.8,4.4c-11.3,6.8-20.5,15.7-27.4,27c-3.3,5.3-7,10.6-11.4,15
		c-6.3,6.5-14.2,7.7-22.9,4.5c-5.9-2.2-12-3.8-18.1-5.4c-12.2-3.3-23-0.3-32.4,7.8c-8,6.8-16.6,7.1-26.1,4.1
		c-18.3-5.8-36.8-11.1-55.3-16.6c-2.8-0.8-6.1-2-8.8-1.4c-13.1,2.8-24.8-2-36.9-5.5c-6.4-1.9-12.9-3.4-19.4-4.4
		c-8-1.2-11.2,0.9-12.7,8.9c-1.7,8.9-4.7,17.1-8.8,25.3c-2.5,5-2,11.5-2.7,17.3c-0.3,2.2,0,4.4,0,7.4c-16.5,3.2-32.7,7-49.1,9.2
		c-5.4,0.7-11.6-2-16.9-4.4c-13.9-6.3-27.4-13.4-41.3-19.8c-6.3-2.9-11.2-6.6-15-12.5c-4.4-6.7-9.7-12.7-14.3-19.2
		c-3-4.2-6.9-6.1-11.9-5.9c-10.5,0.4-20.6-1-30.1-6.2c-2.7,1.7-5,3.6-7.7,4.7c-3,1.3-6.3,2.7-9.4,2.5c-12.9-0.6-25.7-1.8-38.4-2.8
		c-5.5,12.7-0.8,25.6,10.7,30.3c12.5,5.1,15.9,11.2,14,26.6c-9.9,2.6-20.1,5.3-30.4,7.9c-12.9,3.3-25.9,6.1-38.7,9.8
		c-6.8,2-11.1,0.5-15.4-5.1c-4.2-5.5-9.4-10.3-14.4-15.2c-5.6-5.6-8.7-12.3-11.1-19.7c-4.2-13-9-25.8-13.5-38.6
		c-0.7-1.9-1.7-3.6-3-6.4c-25.9,0.6-52.1,1.2-78.9,1.8c1.5-9.7,3.2-18.6,4.2-27.6c1-9.1-0.3-17.8-6.4-25.4c-3.2-4.1-5.2-9.2-7.5-14
		c-3.1-6.5-6-13.1-9.2-19.6c-0.7-1.4-2.1-2.6-3.4-3.5c-4.1-3.1-6.7-6.9-8.7-11.8c-5.8-14.3-23.6-16.9-34.2-5.4
		c-3.2,3.4-6.7,6.6-9.7,10c-4.4,4.9-9.1,9.7-9.1,17.1c0,4-2.5,6.2-6.4,6.1c-6.6-0.2-13.3,0.1-19.6-1.6c-5.8-1.5-9.6-1.2-14.1,3.2
		c-26.9,25.8-54.3,51-81.3,76.8c-4.9,4.7-10.1,7.3-16.6,7.8c-0.7,0.1-1.3,0.3-2,0.3c-16.7-1.2-30.4,6.2-40.2,18.1
		c-10.4,12.6-22.7,15.6-37.1,13.1c-7.2-1.2-11.2,2.5-16,5.8c-0.8,0.5-1.5,1.4-2,2.2c-5,9-9.8,18-14.9,26.9
		c-4.3,7.5-9.3,14.6-13.5,22.1c-3.9,6.9-7.5,14-10.5,21.3c-2.3,5.5-0.6,10.4,3.3,13.4c4,2.9,7.6,1.7,11.9-0.2
		c5.3-2.3,11.3-3.5,17.1-4.3c5.9-0.8,12-0.5,17.9-0.7c8.3-0.2,11.4,2.3,13.4,10.1c0.8,3,1.6,7.1,3.8,8.4c4.4,2.7,9.4,4.6,15.1,3.2
		c13.9-3.3,27.7-7.1,41.8-8.7c11.1-1.2,22.5,0.5,33.7,1.4c1.9,0.2,4.5,2.9,5.3,4.9c7.7,21.9,15.5,43.8,16.6,67.5
		c0.5,10.6,2.4,21.1,3.6,31.6c0.2,1.9,0,3.9,0,6.7c-11.8,2-23.1,4-34.5,5.8c-14.7,2.3-29.5,5.5-44.3,6.3c-9.4,0.5-19.2-1.6-28.4-4.1
		c-18.4-5-36.5-7-54.7,0.3c-7.5,3-15.1,3.2-22.4,0.5c-8.1-3-17.5-2.6-24.1-10.6c-2.4-2.9-9.3-2.7-14.1-2.8
		c-14-0.4-26.5-5.7-39.4-9.9c-3.9-1.3-8.3-1.2-12.4-1.4c-16.9-0.9-33.6,4.5-50.6,1c-3.5-0.7-7.3-1.4-10.8-0.9
		c-18,2.6-28.2-7.9-37.3-21c-3.6-5.1-7.9-9.6-11.9-14.4c-10.1-12.2-18.5-25.1-18.9-41.7c0-2,0.9-4.7,2.4-6
		c23.7-21.7,28-48.4,21.1-78.4c-1.6-7-5.4-13.8-3.2-21.3c0.9-3.1,1.6-6.5,3.5-9c8.4-11.1,12.3-23.6,13.8-37.4
		c0.3-2.6,3.5-5.2,5.9-7.3c4-3.5,8.4-6.4,12.5-9.7c9.8-8,19.9-15.6,29.1-24.2c7.9-7.5,15.5-15.6,21.9-24.4
		c4.7-6.5,5.6-15.1,3.3-23.1c-2-6.9-0.7-13.3,1-19.6c3.9-14.1,8.3-28,12.8-42.8c8.3-1.3,12.7-8.3,17.3-15.2
		c8.5-12.7,17.2-25.3,26.5-37.5c3.3-4.4,8.1-7.8,12.7-11c6-4.2,10.1-9.3,12-16.5c3.6-13.2,4.1-26.2-1.5-39
		c-1.6-3.6-2.8-7.2-4.5-11.4c26.3-3.5,52-4.4,79.9-7.9c-3.9-4.5-5.9-7-8.1-9.3c-28.8-29.2-57.6-58.3-86.5-87.4
		c-53.5-53.9-107-107.9-160.8-161.6c-5.3-5.3-7.1-10-5.4-17.4c3-13.6,4.6-27.4,6.8-41c1.2,0,1.6-0.1,1.9,0
		c11.4,6.7,22.6,4.2,34.3,0.6c9.8-3,20.1-4.4,30.3-5.9c7.3-1,13.3,1.8,18.2,7.9c18.6,23.5,37.9,46.4,56.2,70.1
		c5.7,7.3,13.4,9.4,21.1,12.1c1.7,0.6,4.5-0.6,6.3-1.8c13.3-8.9,28.4-13,43.6-16.6c6.5-1.6,11.6-4.5,16.1-9.1
		c9.3-9.6,19-18.4,31.3-24.4c6.7-3.2,12.1-9.3,17.7-14.5c1.7-1.6,2.6-4.6,3.1-7c1.4-8.2,3-16.4,3.5-24.6c0.5-7.3,3.4-13.5,6.9-19.5
		c0.8-1.4,1.8-2.8,2.9-4c11.6-13.3,19.5-28.4,23.3-45.7c3-13.8,13.2-20.7,26.5-26.4c4.1,8.2,8.1,16.1,12,24
		c6.3,12.8,12.6,25.7,18.8,38.6c2.1,4.3,4.2,5.9,9.9,5.2c5.5-0.6,11.6,3.1,17.1,6.7C4868.7,1285.8,4912.3,1274,4956.9,1262z"/>
	<path onclick="modal(this.id);" id="887" class="st0" d="M4873.1,1853.3c9.8,4.8,19.4,6.1,29.5,3.2c4.3-1.2,6.6-3.4,6.8-7.3c0.3-8.8,5.6-14.6,11.6-20.1
		c2.2-2,4.4-4.1,6.4-6.3c6-6.5,17.5-8,23.8-2.4c2.3,2,3.5,5.4,5.2,8.1c1.9,3,3.4,6.6,6,8.9c5.9,5.2,8.9,12,12.3,18.8
		c4,8,8.6,15.7,12.6,23.6c3.4,6.6,5.4,13.4,3.5,21.1c-1.2,5.1-1.6,10.4-2.5,15.6c-0.3,1.9-0.7,3.9-1.4,5.7c-2.9,7.6-1.9,9.4,6.4,9.2
		c17.9-0.4,35.9-1.2,53.8-1.7c6.6-0.2,13.2,0,20.1,0c6.1,17.2,12.1,33.7,17.9,50.3c2.5,7.1,3.9,14.2,12.5,17.6
		c4.5,1.8,7.7,7.2,11,11.3c4.6,5.7,9.1,8.1,17.1,5.8c21.7-6.2,43.8-11.2,65.8-16.7c2.5-0.6,4.9-1.6,7.3-2.4
		c1.8-8.4,0.9-15.7-3.3-22.6c-2.1-3.6-4.6-6.1-8.6-7.7c-15-6-15-6.2-14.4-25.1c9.5,0.6,19,1.2,28.4,1.7c8,0.4,16,1.3,22.9-4.4
		c1.3-1.1,4.3-0.6,6.4-0.2c8.8,1.5,17.4,3.6,26.2,4.6c4.4,0.5,7.6,1.7,10.1,5.2c4.9,6.7,10.2,13.2,14.8,20.1
		c3.3,5,7.6,8.2,12.9,10.6c9.4,4.1,19.1,7.9,28.2,12.6c7.6,4,14.5,9,22.9,11.6c5.4,1.7,10.2,2.1,15.6,1c13.3-2.8,26.7-5.3,40.1-8
		c4.2-0.8,9.4,1.4,11.9-3.3c-1.7-2.9-4.3-5.5-4.3-8.1c0-5.5,0.8-11.1,2.2-16.5c1.2-4.4,3.9-8.4,5.7-12.7c0.9-2.1,1.5-4.4,2-6.7
		c3.3-15.8,4-13.5,18-11.3c6.2,1,12.2,3.2,18.2,5c9.6,2.9,19.1,5.1,29.4,4c10.9-1.2,20.7,4,30.9,7.1c7,2.1,13.9,4.4,20.8,6.6
		c4.4,1.4,9,2.4,13.4,3.9c10.1,3.6,19.3,2.6,27.8-4.5c9.5-7.8,20.3-11.1,32.6-7.1c5.1,1.6,10.3,2.6,15.3,4.5
		c13.7,5,21.5,1.5,31.5-9.9c2.6-3,4.6-6.6,6.6-10c7.8-13.4,19-22.8,33.2-30.4c12.3,11.8,24.4,23.6,36.6,35.3
		c2.9,2.7,5.8,5.3,8.9,7.9c5.6,4.7,11.5,9.1,16.9,14c10,8.9,22.3,13.1,34.7,17c10.7,3.3,21.8,5.3,33.8,8.2c0,0.9,0.3,3,0.2,5.2
		c-0.2,10.3-0.9,20.5-0.7,30.8c0.2,8.2,5.7,14.2,11,19.4c5.7,5.6,8.4,11.9,8.5,19.4c0.2,7.2,2.7,13.3,6,19.7
		c3.5,6.9,4.9,15,7.7,22.3c2.8,7.3,6.3,14.4,9.6,21.6c0.9,2.1,2.7,4,3,6.1c2,12.3,10.3,20.3,18.4,28.5c1.5,1.6,2.6,3.6,3.9,5.5
		c-5.9,3.6-12.6,2.7-16.9-2.1c-2.9-3.2-6.2-6.4-7.8-10.3c-4.1-10-11.9-16.4-20-22.7c-3.5-2.7-6.8-6.4-8.8-10.3
		c-4-7.6-9.4-13.6-17-17.6c-5.3-2.7-10.2-6.4-15.7-8.7c-9.7-4-19.7-7.4-29.5-11c-2.8-1-5.7-1.9-8.3-3.2c-8.6-4.4-16.4-3.4-22.1,4.2
		c-3.2,4.4-5.6,8.3-11.9,5.3c-1.2-0.5-3.2,0.4-4.6,1c-8.7,3.3-17.2,6.9-25.9,10.2c-8.9,3.3-17.5,4.3-24.5-4.1
		c-2.9-3.4-6.9-3.5-11-3.4c-7.7,0.2-15.2,0-22.4-3.6c-4.7-2.4-9.9-1.8-14,1.6c-7.9,6.4-17.5,9.2-26.6,13c-13,5.6-15.1,7.1-20.9,20.1
		c-14.7,0.4-19.5,11.3-22.4,23.3c-1.3,5.3-1.3,11.1-0.7,16.6c0.8,7.8,0.2,14.9-3.4,22.2c-9,18-1.8,45,15,55.7
		c6.5,4.1,8.4,9.5,8.6,16.7c0.5,16.9,1.6,33.8,2.5,51.1c6.7,2.6,12.8,5.1,19,7.2c4.1,1.4,6.4,3.6,7.8,8c3.6,11,14.2,15.8,26.2,16.8
		c9.3,0.8,15.1-2.7,21-8.4c5.3-5,11.9-5.2,19.4-4.5c0.8,7.9-1.9,15-3.9,22.1c-1.8,6.4-4.2,12.6-7.3,18.5c-2.5,4.8-5.5,10.4-9.9,13.2
		c-16.4,10.7-25.4,25.8-29.1,44.6c-0.5,2.3-1.4,4.4-2.4,7.5c-2.8-0.3-5.8-0.2-8.4-1c-5.8-1.8-9.7,0.4-12.7,5.1
		c-3,4.8-5.9,9.6-9.1,15c-7-1.3-14.1-2.5-21.2-3.9c-1.2-0.2-2.8-0.9-3.5-1.9c-5.2-7.3-13.1-6.6-20.6-7c-14.2-0.8-28.4-1.5-43.4-2.3
		c1.6-10.5-3.6-17-11.1-22.2c-4.6-3.2-7-7.5-7.6-13.3c-0.8-9.2-2.4-18.3-3.7-26.9c-31,0-61.1,0-91.5,0c-0.2,2.9-0.7,4.6-0.4,6.1
		c0.9,4.3-0.8,7-4.4,9c-2.3,1.3-4.5,2.8-6.6,4.5c-5.6,4.3-7.3,9.9-5.1,16.6c1.9,5.7,4.3,11.2,6.1,16.8c2.5,7.6-0.4,14.2-11,13.7
		c-11-0.5-16.5-1.8-22.8-7.5c-0.1-0.7-0.4-1.4-0.1-1.9c5.3-11.4,4.4-14.2-6.1-21.1c-2.7-1.8-5.5-3.8-7.7-6.2
		c-8.1-8.6-18.1-14.3-29.6-15c-16.2-1-31.4-5.3-46.4-10.6c-19.8-6.9-40.5-10.9-58.9-21.7c-5.5-3.2-10.8-6.6-16.3-9.6
		c-7.5-4.1-15.1-8-23.9-12.6c-5,7.2-9.4,13.5-14.9,21.3c-2.1,0.3-6.3,0.9-11.6,1.6c-0.2,4-0.6,7.9-0.4,11.7
		c1.2,28.2,2.7,56.4,3.9,84.6c0.3,8.2,0.1,16.4-0.2,24.7c-0.1,1.7-1.6,3.4-3.2,6.6c-1.7-3.6-2.4-6.1-3.9-8
		c-4.1-5.6-7.9-11.5-12.8-16.4c-7.6-7.6-13.2-15.8-11.8-27.2c0.8-6.7-2.2-11.4-5.9-17c-7.9-12-18.2-20-30.8-25.8
		c-5.4-2.5-7.4-7.1-7.3-13c0.1-9.3,0-18.7,0.1-28c0.1-9.8-2.4-18.9-6.8-27.7c-1.8-3.6-1.4-8.2-2.2-13.1c-0.5-0.2-1.7-0.9-2.9-0.9
		c-17.3-0.5-34.6-0.8-51.8-1.5c-4.9-0.2-9.8-1.4-14.7-2.1c-6.2-0.9-12.5-2.4-18.7-2.3c-12.9,0.1-25.9,1.2-38.8,1.7
		c-2.9,0.1-6.3-0.1-8.7-1.4c-10.1-5.5-21.3-4.4-32.1-5.7c-9.2-1.1-18.5-1.4-27.8-2.1c-12-0.9-24-1.2-35.1,4.2
		c-4.4,2.1-8.8,5-11.9,8.6c-7,8.4-15.1,14.8-25.8,17.8c-8,2.2-15.8,5.2-23.7,7.5c-6.1,1.7-10.8,4.7-14.3,10.1
		c-3.7,5.8-7.4,11.7-11.9,16.9c-2.4,2.8-6.2,5-9.8,6.3c-9.3,3.5-19,5.9-28.3,9.6c-27.3,10.8-55.2,19.4-83.9,25.2
		c-2.9,0.6-5.9,1.1-8.9,1.1c-20.7,0.3-41.3,0.4-62,0.8c-8.6,0.2-17.3,0.7-25.8,1.4c-6.6,0.6-9.5,4.5-8.9,11.3
		c0.8,8.9,0.8,9-7.2,13.1c-3.5,1.8-7.1,3.6-10.6,5.5c0.8-4.9,3.3-10.1,1.9-14c-1.5-4.1-6.6-6.9-11.1-11.2c0.7-1.8,1.2-4.7,2.8-7
		c4.1-5.9,3.2-11.1-0.8-16.5c-9.5-12.9-14.2-27.3-15.2-43.4c-0.3-5-3.1-10-5.2-14.8c-1.7-3.9-3.9-7.8-6.3-11.3
		c-6.7-9.7-11.7-20-13.5-31.8c-1.9-12.5-7.8-22.5-19.6-28.3c-9.5-4.7-12-12.1-9.6-22.3c1.7-7.4,2-15.1,2.6-22.7
		c0.4-5.1,2.4-8.8,7.2-11c5.5-2.4,8.7-7,11.3-12.2c2-4,4.9-6.2,9.5-7.9c7-2.5,13.3-7.1,23.1-12.7c9.6,0.8,23,2.4,36.4,2.9
		c7.6,0.3,15.3-0.7,22.8-2.1c12.9-2.4,25.1-0.9,37.1,3.9c10.6,4.2,21.6,6.7,33,7.1c4.8,0.1,9.3,0.6,12,5.4c0.2,0.3,0.4,0.7,0.6,0.8
		c13.2,3.8,25.8,10.8,40.3,7.8c2.3-0.5,4.5-1.1,6.7-2c17-6.5,34-5.2,50.9,0c16,4.8,32,5,48.3,2.3c17.7-3,35.4-5.8,53.1-8.7
		c3.8-0.6,7.6-1.5,11.9-2.4c-2.4-20.3-5.4-39.6-6.8-59c-1.3-18.7-10.6-34.9-15-52.5c-1.2-4.6-5.3-4.7-8.7-5.3
		c-14.8-2.6-29.6-3.3-44.4,0.4c-10,2.5-20,4.6-30,7.1c-8.2,2-14.3-1.3-16.4-9.3c-2.6-9.8-4.3-11.8-14.1-12.2
		c-13.6-0.5-27.2-1.3-40,5.5c-6.2,3.3-11.8-1.2-9.7-8.1c2.2-7.2,6.1-13.9,9.7-20.6c5.1-9.3,10.6-18.4,16-27.5
		c4.4-7.4,8.5-15,13.4-22.1c3.3-4.7,8-7.8,14.3-7.4c4,0.2,8.2-0.4,11.9,0.6c8.6,2.3,14.5-1,20.4-6.9c6.6-6.5,14-12.2,21.1-18.1
		c4.8-4,10.6-5.1,16.7-5.7c5.9-0.5,11.9-1.3,17.7-2.8c3.4-0.9,6.8-2.9,9.4-5.3c14.4-13.4,28.5-27.1,42.8-40.5
		C4842.6,1881.8,4857.5,1868,4873.1,1853.3z"/>
	<path onclick="modal(this.id);" id="888" class="st0" d="M4524.9,2565.5c-1.7-0.6-2.1-1-2.3-0.9c-9.1,4.5-18.4,7.9-28.6,9.8c-3.5,0.6-6.7,6-8.8,9.9
		c-4.5,8.1-8.1,16.7-12.4,24.9c-1,1.8-3.5,2.8-5.3,4.1c-2.4-1.3-4.5-2.4-6.5-3.5c-7.5-4.4-14.7-5.8-21.9,0.8c-1.6,1.5-4,2.4-6.2,3
		c-4.5,1.3-8-0.2-9.1-5.1c-0.7-3.2-0.9-6.5-1.5-9.8c-0.5-2.9-0.6-6-1.7-8.7c-3.3-8.6-7.2-15.4-19-14.6c-5.4,0.4-11.3-4.8-16.8-7.8
		c-4.6-2.5-8.4-6.5-14.5-4.2c-1.4,0.5-3.6-1.2-6.3-2.1c3.6-4.6,6.8-8.7,9.9-12.9c7.5-10.1,15.5-20,22.4-30.6
		c7.7-12,19-17.4,32.2-19.5c10-1.6,19.3-4.4,27.6-10.4c5.5-4,10.2-8.3,12.7-14.9c1.1-2.9,3.7-5.3,5.6-7.9c1.7-2.4,3.8-4.6,5-7.2
		c4.3-9.3,9.8-17.3,19.8-21.3c2.2-0.9,4.2-2,6.3-3.1c4.5-2.4,6.8-5.1,5.4-11.1c-2-9.1,0.9-11.9,10.6-12c18.3-0.3,36.6-0.9,55-0.6
		c29.9,0.5,58.6-4.8,86.5-15c15-5.5,29.9-11.1,45-16.5c4.7-1.7,9.5-3.3,14.3-4.2c8.4-1.7,14.2-5.9,18.5-13.6
		c3.5-6.2,8.7-11.6,13.5-17c1.4-1.6,3.9-2.5,6.1-3.2c9.2-3,18.4-5.8,27.6-8.7c9.5-2.9,17.2-8.6,23.4-16.2
		c8.4-10.3,19.9-14,32.4-13.6c20.2,0.7,40.4,2.5,60.6,3.8c1.3,0.1,2.9-0.1,3.9,0.5c10.9,6,22.6,3.8,34.2,3.8
		c16.1,0,32.4-3.1,48.2,3.5c3.5,1.5,7.9,0.9,11.9,0.9c15.6,0.1,31.2,0,45.3,0c2.5,6.4,4.7,11.4,6.5,16.5c1.5,4.4,3.6,8.8,3.8,13.4
		c0.7,12.2,0.6,24.5,0.8,36.7c0.1,5.9,1.8,11.1,6.7,14.9c1.3,1,2.7,2,4.3,2.6c14.4,5,22.6,16.9,31.1,28.3c1.6,2.2,2.9,5.7,2.4,8.2
		c-2.4,12.4,2.3,22.5,10.9,30.4c7.3,6.8,13.2,13.9,16.4,23.3c0.3,0.9,1.2,1.6,2.1,2.7c5.9-0.1,8.7-3.5,9.2-9.2
		c0.2-2.3,0.5-4.7,0.4-7c-1.3-29.5-2.6-59.1-3.9-88.6c-0.3-7.3,0-14.6,0-21.8c4.7-0.9,8.6-1.6,10.9-2c4.5-7.2,8.2-13.2,11.6-18.6
		c11.2,0.9,18.3,7.4,26.3,12c15.9,9.2,31.9,17.7,50,22.1c12.2,3,23.9,8.2,36,11.7c9.2,2.6,18.7,4.8,28.2,5.7
		c12.1,1.2,22.5,5.1,31.3,13.6c3.5,3.4,7.8,6.1,11.7,9.1c6,4.5,6.5,6.1,3.5,13.2c-2.5,6.1-1.7,9.2,4.3,12.1c8.6,4.1,17.9,5.3,27.3,4
		c5.7-0.8,9.7-7,8.5-13.8c-1-5.8-3.4-11.4-5.5-17c-3.8-10-3-12.9,6.1-19c8.8-5.9,8.8-5.9,9.8-15.8c27.9-0.6,55.9-1.3,84.6-1.9
		c1,8.5,2.1,15.7,2.6,22.9c0.5,6.7,2.3,12.9,7.8,16.6c8.5,5.7,13.7,12.4,11,23.6c5,0.5,9.2,1.1,13.4,1.3c13.6,0.8,27.2,1.5,40.8,2
		c3.9,0.1,7,0.7,9.5,4c1.4,1.7,3.6,3.3,5.7,3.8c8,1.9,16.1,3.3,24.4,4.9c4.5-7.2,8.6-13.6,13.1-20.9c4.5,0.6,9.2,1.2,14.3,1.9
		c-1.8,8.9-4.6,15.7-11.2,20.7c-5.5,4.2-8.2,10.2-9.6,17c-1.1,5.2-0.6,9.8,2.7,14.1c2.6,3.4,5,6.9,7.6,10.6
		c-0.3,3.6-1.9,5.6-6.1,6.1c-10.3,1.2-20,4-29,9.6c-8.7,5.4-12.5,13.6-14.3,23c-1,5.3,2.6,9.2,6.5,11.5c11.8,6.8,23.7,13.6,36,19.3
		c11.1,5.1,23,8.6,34.5,12.9c1.8,0.7,3.2,2.2,4.7,3.5c5.8,4.9,11.5,9.9,18.3,15.7c-1.7,1.3-3.9,2.6-5.7,4.4
		c-7.6,8.1-13.9,17.2-15.3,28.5c-0.8,6.3-3,11.5-7.4,15.8c-5.2,5.3-5.4,11.3-4.7,18.4c1.1,10.5,3.7,19.9,10,28.6
		c7.1,9.8,2,19.7-1.4,30.3c-17.3-0.4-33.9,2.1-44.8,16.9c-6.7-0.5-12.6-1.5-18.4-1.1c-8.6,0.5-14.9-3.2-19.8-9.4
		c-3.7-4.8-8.4-7.2-13.9-9.1c-7.9-2.6-15.8-5.2-23.3-8.7c-9-4.1-18.4-5.4-28-6.3c-3-0.3-6-0.4-8.9-1c-11.2-2.3-18.4,1.3-23.2,11.8
		c-6.7,14.7-11.3,29.9-10.8,46.2c0.3,8.6,1.7,17.2,1.8,25.8c0.1,13.7-4.2,18.5-17.7,20.5c-15.4,2.4-30.9,3.9-46.1,7.2
		c-7.9,1.7-15.8,5.6-22.3,10.4c-7.4,5.4-15.3,6.5-23.4,6.2c-12.4-0.5-23.3,6.8-22.6,19c0.8,13.6-4,20.6-16.9,23.3
		c-2.5,0.5-4.6,2.6-6.9,4c-1.7,1-3.4,2.4-5.3,2.8c-9.6,2-19.2,3.8-29.8,5.9c-2.1-6.6-4.3-12.7-5.9-19.1
		c-5.2-19.8-14.4-37.9-23.1-56.2c-7.6-15.9-15.2-31.8-22.4-47.9c-3-6.7-7.1-9.4-14.6-9c-12.3,0.6-25,2-36.9-0.4
		c-11.4-2.4-21.8-9.3-32.7-14c-8.8-3.9-17.5-8.4-26.7-11c-7.8-2.2-16.3-2.4-24.5-3c-10.6-0.7-21.2-0.8-31.8-1.6
		c-3.2-0.2-6.5-1.4-9.3-3c-13-7.4-26-14.9-38.7-22.8c-5.6-3.5-10.5-7.9-14.6-11.1c-5.2,1.1-9.5,2-13.7,3c-4.1,0.9-8.5,1.5-12.3,3.1
		c-8.6,3.5-16.9,7.5-25.9,11.6c5.4,15.5,10.7,30.4,15.9,45.3c-21.1,0-41.3,0.1-61.5-0.1c-5.6-0.1-10.3,1.2-14.9,4.5
		c-12.1,8.6-25.7,13.8-40.4,16c-7.5,1.1-15,3-22.6,3.4c-5.9,0.3-11.8-1.2-17.7-1.8c-4.5-0.4-9.2-0.2-13.6-1.1
		c-4.5-0.9-9.2-2-13.1-4.3c-16-9.4-31.8-19.3-47.6-29.2c-2.7-1.7-5.3-4.2-6.8-7c-3.3-6.4-8-11.4-13.4-15.8c-4-3.2-6.4-7-8.5-11.8
		c-3-6.7-7.9-12.5-12.5-19.7c-11.5,5.3-23.3,10.4-34.8,16.2c-2.1,1.1-3.1,4.6-4.1,7.3c-1.4,3.7-1.5,8-3.5,11.3
		c-6.4,10.7-9.9,12.7-22.7,11.1c-6.3-0.8-10.3,1.8-14,5.5c-6.1,6-6.3,11,0.5,15.8c5.9,4.2,6.5,9.1,4.8,14.7
		c-3.4,11.3-1.4,22,1.4,33.2c2.4,9.4,2.6,19.4,4,30.4c-9.7-1-17.8-1.9-25.9-2.8c-7.8-0.9-12.5-5.7-15.2-12.6
		c-2.6-6.8-6.4-12-12.9-15.8c-3.2-1.9-4.9-6.6-7-10.2c-1.3-2.2-1.5-5.7-3.3-7c-5.3-3.8-10.1-7.4-9.4-15c0.1-0.9-2.7-2.9-4.2-3
		c-2.9-0.2-5.9,0.4-8.8,0.9c-7.8,1.3-8.7,0.8-12.4-6.4c-5.5-10.8-5.5-22.5-6-34.1c-0.5-13.6,1.1-27.7-1.9-40.7
		c-3.8-16.7-0.2-30.4,8.6-44.2c4.4-6.9,4.5-15.3,4.4-23.9c0-14.8,1.3-29.9,11.6-42.2C4523.9,2575.9,4526.1,2571.1,4524.9,2565.5z"/>
	<path onclick="modal(this.id);" id="894" class="st0" d="M5356.9,3760.1c-7.5,1.3-12.3,2.1-18.4,3.1c-1.3,4.9-2.5,10.3-4.3,15.4
		c-3.8,10.7-8.1,20.7-19.6,26c-17,7.7-35.5,10.3-52.6,17.1c-2.4-2.1-4.4-3.8-7-6.1c-9.5,6.8-18.8,13.5-29,20.8
		c11.3,13.3,25.4,21.7,36.9,32.9c-6.4,9.1-13.9,13.7-25.4,12.6c-8.8-0.8-17.9,0.7-26.7,1.9c-3.4,0.5-6.6,2.8-9.8,4.4
		c-5.1,2.5-10.1,5-16.4,8.1c-2.3-3-4.8-5.8-6.9-9c-2.8-4.1-4.9-8.7-8-12.6c-5.8-7.3-11.3-14.4-14.5-23.5c-5-14.4-22.8-13.7-33.8-6.2
		c-2.7,1.9-5.2,4-7.9,6.2c-5.2-2.6-7.8-5.8-8-11.7c-0.3-10.4-2.5-12.3-12.5-12c-19.3,0.5-38.6,0.4-57.8,2.4
		c-15.2,1.5-30,6.9-42.9,15.2c-11.4,7.3-21.6,16.6-32.2,25.1c-6.9,5.6-13.2,12.1-23.2,12.2c-4.8,0-7,2.9-9.3,8.1
		c-4.1,9.5-11,18-17.4,26.4c-1.7,2.2-6,2.6-9.2,3.2c-8.8,1.6-14.5,6.9-19.6,14c-8.9,12.6-20.5,21.1-36.8,22.3
		c-7.9,0.5-15.6,2.7-23.5,3.8c-2.7,0.4-5.6-0.4-8.5-0.6c-0.3,0-0.6-0.3-0.9-0.4c-10.3-4.7-19.1-10.7-19.3-23.7c0-1-0.5-1.9-0.8-2.9
		c-6.4-23.5-1.5-18.2-23.6-33c-2.5-1.7-4.8-3.6-7.5-5c-4.2-2.1-5.7-5.3-4.9-9.7c3.5-20.1-13.7-27.9-27.7-28.5
		c-14.6-0.5-29.3,0.1-44-0.2c-7.3-0.1-14.5-1.2-21.8-1.6c-3.3-0.2-6.9-0.6-9.8,0.6c-14.1,5.5-28.2,3.2-42.3,0.9c-6.1-1-7.8-3-5.8-9
		c3.4-10.3,0.1-18.7-5-27.3c-1.8-3-2.2-6.8-3.2-10.2c-1.4-4.6-2.7-9.2-4-13.6c-7.3,4.2-13.4,7.7-20,11.5c-5.1-4.8-11.2-8-13.2-12.9
		c-2.9-7-5.2-14.3-8.6-21.2c-1.4-2.8-0.4-7.2,0.6-10.6c1.5-5.1,3.5-10.1,5.9-14.8c2.4-4.9,4-9.7,3-15.3c-0.4-2.5,0.2-5.3,1-7.8
		c2.4-7.5,5.6-14.8,7.7-22.5c1.6-5.9,4-10.3,10.2-12.1c2.1-0.6,4-2.2,6.3-3.6c-1.7-3-4.8-5.8-4.4-8.1c0.5-3.3,3.8-6,5.5-9.2
		c2.5-4.6,5.3-9.2,6.9-14.1c1.6-5,2.9-9.5,9.1-10.3c1.5-0.2,3.5-1.3,4.1-2.6c3.9-8.4,12.4-10.1,19.3-14.1c9.7-5.7,16.2-5,24.9,2.4
		c6.9,5.8,12.3,5.5,18.7-0.8c1.5-1.5,3.7-2.4,6.1-3.9c0.6,1.9,0.9,3.2,1.3,4.4c3.6,8.7,15.6,13.5,24,9.2c2.1-1.1,4.1-3.7,4.9-6
		c4.4-14,14.8-23.6,24.8-33.2c8.5-8.1,13-18.3,17.9-28.3c1.8-3.6,2.9-7.4,4.3-11.1c2.1-5.4,5.3-9.3,10.9-12.1
		c5.8-2.9,11.1-7.5,15.3-12.4c4.6-5.4,10.6-9.6,14-16.5c2.4-4.9,8.6-7.1,14.5-7.6c4.3-0.4,8.5-0.7,14.5-1.2
		c-1.6-4.3-2.9-7.7-4.3-11.4c2.1-2.3,5.2-4.4,6.4-7.3c4.2-10.5,11.7-11.2,20.8-8.1c7.1,2.4,13.7,1.3,19.9-2.7
		c4.3-2.8,8.7-3.5,14.2-2.4c5.9,1.2,11.9,0.7,18.2-2.2c10.1-4.6,21.5-2.4,32.4-2.3c9.8,0.1,19.7-0.9,29.5-2.1c3-0.4,5.8-2.8,9.5-4.6
		c-1.6-2.2-2.5-4-3.9-5c-7.8-5.6-8.7-13.6-8-22.3c0.6-7.8,3.8-10.9,11.5-10.3c15,1.2,29.8-0.5,44.4-3.3c4.9-0.9,9.8-4,14-7
		c5.6-4.1,10.8-8.9,15.8-13.7c7.3-6.9,15.2-10.8,25.9-10.4c12.9,0.4,26.1,0.1,38.7-2.1c11-1.9,21.4-2.8,32.4-0.8
		c5,0.9,10.8,0,15.6-1.7c5.9-2.1,10.9-1.1,16.4,0.7c16.8,5.5,16.7,5.5,24.9,21.2c10.3,19.7,20.9,39.4,31.5,59
		c1.2,2.3,3.3,4.2,4.6,6.4c2,3.3,4.6,6.5,5.5,10.1c2.1,8.2,4.6,15.1,14.7,15.9c3.2,0.2,5.1,3.1,4.2,6.6c-1,4.2-2.1,8.4-3.6,12.4
		c-1.8,5-1.9,9.8,0.9,14.4c4,6.3,3,12.3,0.1,18.9c-3.8,8.6-8,16.8-14.4,23.7c-5.8,6.3-7.3,13.6-6.3,22c0.7,5.9,0.5,12,0.4,18
		c-0.1,5.5,2.4,9.5,6.2,13c6.8,6.2,13.8,12,13.2,22.9c-0.2,3,2.7,7.7,5.4,9c9.3,4.3,14.3,12.9,20.9,19.7c4,4.2,7.5,7.9,13.6,9.2
		c4.4,0.9,8.4,3.9,12.5,6.1c2.6,1.4,5.1,3.3,7.8,4.4c9.6,3.8,17.6,8.5,19.2,20.2c0.4,3.1,4.2,5.8,6.3,8.8
		C5344.4,3742,5350,3750.1,5356.9,3760.1z"/>
	<path onclick="modal(this.id);" id="893" class="st0" d="M4678.8,3618.6c-5.4,4.2-9.4,7.2-13.3,10.4c-4.1,3.4-9.4,3.8-13.1-1.2c-3.8-5.1-8.7-4.9-13.8-6.2
		c-5.3-1.4-9,1.1-13.1,3c-4.2,1.8-9.8,2.5-12.4,5.6c-6.2,7.7-15.7,11.1-21.8,18.6c-1.3,1.6-0.9,4.6-1.8,6.6c-2,4.5-3.8,9.3-6.7,13.2
		c-5.9,7.8-6.4,8.3-5,18.2c-1.9,0.9-3.9,1.8-6.6,3c-2.1-10.2-1.3-19.9,2.3-28c6.7-15.6,5.5-31.4,3.5-47.1
		c-1.7-13.1-5.5-25.9-8.2-38.9c-0.6-2.9-0.7-5.9-1.2-10c-5.3-0.9-10.7-2.3-16.1-2.5c-3.8-0.2-6.7,2.6-8.4,6.2
		c-2,4.2-5.5,5.4-9.9,5.2c-5.7-0.3-8.6-2.4-7.6-7.9c1.3-7.2-0.8-12.5-4.4-18.6c-2.3-4-1.9-10.4-0.9-15.3c1.5-7.2,1.9-13.6-2.8-19.8
		c-2.7-3.6-3.3-7.8-1.7-12.2c1.1-3.1,1.5-6.5,2.6-9.6c3.1-8.8,6.6-17.4,3.7-27.3c3.4-1.3,6.4-2.5,10.2-3.9
		c-1.8-11.8,4.3-23.7-1.9-35.2c-0.1-0.3-0.2-0.7-0.1-1c2.8-13.4-2.9-25.3-9.4-35.6c-5.2-8.3-14.4-14.4-22.7-20.3
		c-3.3-2.3-8.9-2.3-13.3-1.8c-11.2,1.3-19.5-3.5-25.6-12c-6.3-8.9-11.4-18.8-17.6-27.7c-7.2-10.3-16.1-18.5-30.1-17.7
		c-16.1,0.9-15.4-2.8-9.2-13.9c8.7-15.4,8.5-29.3-2.1-44.4c-4.9-7-8.4-14.5-15.8-19.5c-2.1-1.4-2.7-5.2-4-7.9c-3.7-8.2-6.6-9-14.6-6
		c-6.4,2.4-13.3,4.1-20,5c-12.8,1.8-25.7,3.1-38.6,4.2c-9.8,0.9-10.9-0.3-11-10.3c-0.1-5.3,0-10.6,0-15.3c-6.3-4.6-12.6-4.7-19-4.5
		c-8,0.2-16-0.1-23.9,0.8c-7.7,0.8-12.7-2.2-16.6-8.4c-1.6-2.7-3.5-5.3-6.5-9.8c6.3-0.3,10.4-0.5,14.5-0.6c6.4-0.2,12.5-1,17.3-6.2
		c1.6-1.8,4.5-2.7,6.9-3.3c7.6-2.1,13.2-6.6,15.2-14.3c1.9-7.1,7.1-10.2,13.2-12.2c9.4-3,19.1-3.1,28.5-0.4
		c6.2,1.8,12.1,2.7,18.5,0.8c6.2-1.9,12.4-1.1,17.8,3.3c1.2,1,2.8,1.9,4.4,2.2c16,2.7,31,10.2,47.6,10.4c4.2,0.1,8.4,2,12.5,3.3
		c3.7,1.2,7.1,1.7,10.9-2.4c-1.6-3.7-3.3-7.9-5.1-12c-2.2-4.9-1.5-7,3.4-9.6c1.8-0.9,3.6-1.6,5.5-2.3c5.5-2,8.5-5.6,8.9-11.8
		c0.5-7.7,1.2-7.9,8.9-9c6.2-0.9,12.1-1,18.4,0.9c9.4,2.7,18.4-0.2,26.7-7.2c3.3,2.7,6.8,5.1,9.9,8c9.2,8.4,23,8.8,32.5,0.6
		c2.3-1.9,4.5-4,6.2-6.5c2.9-4.3,6.5-5.2,12.4-3.1c-2,4.2-3.5,8.5-6,12c-6.1,8.5-6.3,18.1-5.4,27.7c0.5,5.5,5.1,8.8,9.8,10.5
		c4.6,1.6,9.1-0.4,12.2-4.6c7.1-9.6,14.6-19,21.2-28.9c6-9,5.6-9.3,17.8-10.2c0,4.3,0.5,8.6-0.1,12.7c-1.5,10.5-0.8,20.5,3.4,30.3
		c1.8,4.3,3.2,8.7,4.6,13.2c2.7,8.7,2.6,8.7,13.1,8.3c0.7-1,1.8-2.2,2.5-3.6c2.7-5.8,7.3-7.4,13.2-5.9c12.3,2.9,24.6,5.6,36.7,8.8
		c7.2,1.9,13.5,1.6,19.8-2.9c3.4-2.4,7.5-4,11.6-5c9.2-2.3,18.1-6.6,28-5.1c0.9,0.1,2.3-0.2,2.8-0.8c6.5-8.6,15.5-15.6,18.8-26.4
		c0.7-2.2,0.1-5.3-1-7.5c-5-11-4.7-14.5,3.5-22.9c3-3.1,6.5-5.8,9.6-8.7c3.2-3,6.5-2.2,8.5,0.9c4.7,7.1,10.3,14.2,6.1,23.8
		c-0.6,1.4-0.8,3.5-0.2,4.8c0.8,1.9,2.3,3.9,4.1,4.7c1.3,0.6,3.7-0.4,5.2-1.3c1.3-0.8,2.1-2.5,3.1-3.8c3.2-4.1,6.9-6.1,12.1-3
		c2.3,1.3,5,1.8,7.4,2.9c3.9,1.7,7.5,1.6,11.4-0.7c9.6-5.9,19.1-12.1,29.2-16.9c8.3-3.9,17.4-7,26.4-8.5c11.1-1.9,22.5-1.8,33.7-2.4
		c17.8-1,35.4-3,53-5.6c9.2-1.3,18.6-0.8,27.9-1c5.7-0.1,7.7,4.6,10.2,8.4c5.6,8.5,6.8,9,16,5.4c4.3-1.7,8.2-4.5,12.6-6
		c5.3-1.8,10.8-2.7,16.3-3.9c1.6-0.4,3.7,0.2,4.8-0.7c9.6-7.1,21.7-5.4,32.1-9.5c2.7-1.1,6.4,0.1,10.5,0.3c0,9.2,0,17.8,0,26.4
		c0,0.7,0.1,1.4-0.2,2c-4,7.4-9.2,14.4-7.4,23.3c-11.3,0.8-21.4,1.8-31.5,2.1c-9.8,0.3-19.6-3.1-30.4-0.1c0.8,2.4,1.2,4.6,2.2,6.5
		c5.2,9.3,10.8,18.4,15.7,27.8c2,4,3.5,8.7,3.6,13.1c0.9,39.3,1.5,78.5,2.2,117.8c0,2.6,0.5,5.1,0.8,8.8c24.7,0,48.9,0,73.6,0
		c14.6,26.1,28.7,51.6,44.2,79.3c-6.4-2-10.5-3.1-14.4-4.6c-5.2-1.9-10.1-2.4-15.6-0.5c-8,2.7-16.2,2.3-24.6,0.9
		c-5.4-0.9-11.2-0.1-16.8,0.4c-6.6,0.6-13.1,2-19.6,2.5c-12.3,0.9-24.6,1-36.8,2.3c-4,0.4-8.1,2.8-11.4,5.3
		c-6.3,4.8-12.2,10.3-18.1,15.7c-5.8,5.3-12.3,8.4-20.3,9.7c-13.5,2.2-26.8,4.1-40.6,2.5c-8.8-1-14.1,4.8-14.5,13.7
		c-0.4,8.2,0.5,15.9,7.2,21.8c1.2,1,1.8,2.7,2.7,4.2c-5,4.7-11,3.3-16.4,3.9c-6.9,0.9-14,1.3-20.9,0.5c-11.4-1.3-22.3-0.7-33,4
		c-3.4,1.5-7.8,1.1-11.7,0.7c-7.2-0.7-13.7,0.4-20.3,3.7c-3.6,1.8-8.2,2.2-12.3,1.9c-5.9-0.4-11.8-1.9-17.8-3
		c-5.8,7.2-11.6,14.3-17.8,22.1c1.3,2,2.9,4.3,4.8,7.1c-5,0.8-9.2,1.6-13.5,2c-6.9,0.6-11.6,4.9-15.2,10
		c-7.8,11.3-16.5,21.6-29,27.8c-4,2-6.2,4.7-7.9,8.4c-4.9,10.5-9.8,21-15.1,31.4c-1.8,3.4-4.6,6.3-7.2,9.3
		c-6.8,7.7-13.9,15.3-20.5,23.1c-2.1,2.5-4,5.6-4.5,8.7c-1.2,7.3-7.4,9.5-13.4,9.1c-7.7-0.5-10.2-3.5-11-12.5
		C4679.5,3623.7,4679.3,3622.4,4678.8,3618.6z"/>
	<path onclick="modal(this.id);" id="892" class="st0" d="M4417.1,2890.2c1.3,4.3,2.4,8,3.3,11.2c8.9,3,17.2,5.9,25.7,8.4c1.7,0.5,3.8-0.5,5.7-1
		c7.9-2.1,10-0.9,11.9,7c0.5,1.9,1,3.8,1.6,6c5.4,0,9.1-2.6,12-6.3c5.5-6.9,12.1-12.3,20.3-15.7c6.6-2.8,11.9-7.2,16-13.1
		c11.7-16.7,27.2-27.6,47-32.9c4.6-1.2,8.5-4.8,12.7-7.2c-0.8-3.7-1.3-6.5-1.9-9c8.5,0.7,16.6,1.1,24.7,2c2.4,0.3,4.6,2.1,7.1,3.3
		c3.6-5.1,3-10.8,2-16.3c-2-11.7-4.9-23.4-6.3-35.2c-0.7-5.8,0.2-12,1.6-17.7c1.9-7.6,1.6-13.6-5.9-17.9c-1.6-0.9-2.6-2.9-3.8-4.3
		c5.6-10.5,8.1-11.7,18.7-10.5c3.9,0.4,9.3,1.2,11.5-0.8c5.1-4.9,8.9-11.3,12.8-17.4c1.3-2.1,0.8-5.3,1.9-7.7c1-2.2,2.4-5,4.4-5.9
		c9.8-4.8,19.9-9.1,28.8-13.1c3.7,4.8,6.7,8.8,9.7,12.8c0.6,0.8,1.6,1.5,1.7,2.4c1.3,8.5,8.1,12.4,13.8,17.4
		c2.4,2.2,4.8,4.8,6.1,7.7c3.1,6.6,8,11.3,14.2,14.9c14.5,8.7,28.8,17.9,43.6,26.1c5,2.8,11.3,3.3,17.1,4.6c3.2,0.7,6.7,0.4,9.8,1.4
		c11.5,3.8,22.8,2.3,34.4,0.2c11.4-2.1,22.9-3.9,33.4-9.4c5.6-2.9,11.4-5.4,16.7-8.8c4.4-2.9,8.7-4.2,14-4.1c18,0.4,36,0.5,53.9,0.7
		c3.2,0,6.5,0,11.5,0c-5.8-16.6-11-31.5-16.5-47.3c9.4-4.4,18.6-8.9,28-12.9c2.2-0.9,5.3,0.2,7.9-0.1c3.7-0.4,7.4-1.2,10.2-1.7
		c19.3,11.4,38.1,23.3,57.6,33.8c5.1,2.7,12.3,1.7,18.6,2.1c11.3,0.6,22.6,0.7,33.8,1.5c4.2,0.3,8.5,1.5,12.5,3.1
		c14.2,5.7,28.3,11.7,42.4,17.7c1.5,0.6,3.5,0.8,4.5,2c6.5,7.2,15,5.8,23.2,5.8c10.6,0,21.3,0,32.6,0c12.7,26.9,25.2,53.6,38.6,82.2
		c-15.5-11.1-28.8-21.1-33.3-39.1c-7.3,6.4-11.9,16.5-18.1,38.9c-6.6,0-13.5,0-20.5,0c-6,0-12,0.1-18,0c-4.1,0-6.2,1.4-5.7,6
		c3.1,27.7,6.1,55.4,9.1,83.1c0.3,2.6,0.7,5.3,0.6,8c-0.7,12.3-1.7,24.5-2.6,37.8c-52.3,2.4-104.7-2.6-156.8-0.4
		c-0.3,0.8-0.6,1.2-0.6,1.5c3,10.3-1.4,18.5-6.8,26.7c-2.3,3.6-3.8,7.7-5.1,11.8c-1.5,4.8-1.7,9.6,1.9,14.1
		c2.8,3.4,4.2,7.5,2.6,12.7c-6.3,0.9-12.8,2.6-19.2,2.7c-7.7,0.1-14.2,2.8-20.8,6.1c-6.8,3.3-9.7,8.6-8.4,16.3
		c0.7,3.9,1.4,7.9,1.2,11.8c-0.5,7.2-4.2,9.5-11.4,9.2c-20-0.8-39.9,0.6-58.5,8.4c-10.6,4.5-20.3,11.1-30.2,17.2
		c-5.3,3.3-10.4,4.2-15.9,1.1c-8.9-4.9-16.4-4-21.9,5.3c-0.4,0.7-1.6,0.8-3.9,1.9c0-7.9,1.6-15.5-0.4-21.9
		c-2.1-6.6-6.2-13.3-15-16.7c-6,6-12.9,12.1-18.8,19.1c-5,5.8-5.7,12.7-1,19.3c2.5,3.5,1.6,6.4,0.3,10.2c-3,8.7-10.3,13.7-15.9,20.1
		c-1.4,1.6-4.9,2.1-7.4,2c-12.8-0.2-24.5,3.8-35.2,10.1c-6,3.5-11,4.5-17.7,2.4c-12.3-3.8-25-6.6-37.6-9.3c-6-1.3-11.2,0.7-14.4,6.4
		c-0.8,1.4-1.7,2.7-3.1,5c-2.4-1.7-5.4-2.7-6.1-4.6c-3.3-8.7-7-17.4-8.6-26.5c-1.3-7.7-0.1-15.8,0.5-23.7c0.4-5.6,0.8-5.6-2.6-12.5
		c-3.4,0.7-7.2,0.8-10.4,2.2c-3.5,1.6-7.2,3.8-9.4,6.8c-7.6,10-14.6,20.5-21.8,30.8c-2.7,3.8-5.7,6.5-10.8,4.6
		c-4.4-1.7-8.4-6.9-7.5-11.8c1.4-7.7,0.6-16.1,7.1-22.3c1.6-1.5,2.3-4,3-6.1c1.2-3.4,3-7.1-0.8-10c-2.5-2-10.2-0.9-13,1.8
		c-1.9,1.9-3.4,4.1-5.2,6c-4.1,4.6-9.1,7.1-15.5,8c-5.8,0.8-10.2-0.5-14.5-4.3c-4.1-3.7-8.7-7-12.9-10.4c-4.2,2.4-7.4,5.4-11.1,6.1
		c-5.7,1.2-12.4,2.7-17.5,0.9c-7.3-2.6-13.7-1-20.3,0.2c-7.4,1.4-8.1,3.1-8.5,11.4c-0.2,4.5-2.8,7.3-6.6,9c-2.4,1.1-5,1.8-7.3,3.1
		c-6.5,3.4-7.5,7.2-4.1,13.8c1.1,2,2.2,4,3.1,6.1c0.4,0.8,0.3,1.9,0.5,4.4c-23.3-5.2-45.9-10.2-70.1-15.5c3.1-4.2,5.2-6.7,6.9-9.3
		c4.2-6.7,3.2-11.5-3.8-15.4c-13.1-7.4-18.4-17.6-15.6-33.1c1.6-8.5,0.7-18.1-1.7-26.5c-2.8-9.7-2.9-19.4-4.4-29.1
		c-1-6.5-2.7-9.3-8.8-10c-9.4-1.1-18.9-4.3-28.5-0.6c-3.9,1.5-7.3,0.3-8.8-4c-1.4-3.9,0.9-7.6,5.7-8.8c2.2-0.6,4.7-0.7,6.9-0.4
		c7.6,1.1,14.5-0.9,20.9-4.8c12-7.3,25.4-9.9,39-10.8c6.1-0.4,12.3,1.9,18.5,2.8c2.8,0.5,5.7,0.9,8.6,1.1c5.2,0.2,7.8-2.2,8.4-7.6
		c0.5-5.5,2.3-11,2.6-16.5c0.5-8.4-5.1-14.4-10.2-19.8c-4.2-4.5-5.6-9.5-6.3-15.1c-0.5-3.6-1.3-7.1-2-10.7c-1.8-9-1.2-17.1,7.7-22.8
		c3-1.9,5.2-5.1,7.7-7.7C4409.1,2890.6,4409.1,2890.6,4417.1,2890.2z"/>
	<path onclick="modal(this.id);" id="895" class="st0" d="M5070.8,3309.7c-0.4-4-0.9-7.6-1.1-11.2c-0.2-3.3,0-6.7-0.1-10c-0.4-34.3-0.8-68.6-1.5-102.8
		c-0.1-3.8-1.5-7.8-3.3-11.2c-5.4-10.2-11.2-20.2-17.6-31.4c4.1-0.3,6.9-0.6,9.7-0.7c11.6-0.6,23.2-1.1,34.8-1.6
		c1.6-0.1,3.2,0.7,4.8,1c8.4,1.4,8.9,1.2,13.6-7.6c19.3,0.6,39.1,1.2,59.6,1.8c0.4-5.2,0.7-9.7,1.1-15.5c7.4,0,14.9-0.2,22.3,0.1
		c6.6,0.2,13.2,0.8,19.9,1.3c6.8,0.5,7.8,1.4,9.3,8c1.9,8.3,4.8,9.8,12.5,6c3.5-1.7,6.5-4.6,9.9-6.6c7.3-4.5,10.3-3.6,14,4
		c4,8.4,7.8,16.9,11.8,25.3c2.9,6.2,7.3,11.1,13.5,14.2c8.3,4.1,13.5,10.6,15.4,19.6c0.8,3.5,1.8,7,3,11.2
		c-15.5-1.6-20.8,10.2-26.9,20.3c-3.8,6.3-0.9,17.2,4.5,22.7c5.6,5.7,10.5,12.1,16.8,16.9c5.9,4.5,12.9,7.7,19.7,10.9
		c11.8,5.7,25.3,8.2,33.9,19.4c0.2,0.3,0.5,0.4,0.7,0.7c4.3,3.7,7.7,9.7,14.9,5.6c13.2,3,26.4,5.8,39.6,9c2.1,0.5,3.9,2.5,5.8,3.8
		c8.9,5.9,17.7,11.7,29,11.9c2.5,0,5,1.2,8.4,2.1c-1.5,4.7-2.9,9-4.5,13.9c6.9,6.4,7.4,14.5,4.8,23.4c-0.7,2.5,0.1,6.1,1.5,8.4
		c6.1,10.2,12.2,20.5,19.2,30.1c3,4.1,3.7,11.2,11.2,11.2c0.6,0,1.2,2.2,1.7,3.5c8.4,21.7,16.8,43.4,25.1,65.2
		c0.5,1.2,0.4,2.6,0.6,4.3c-4.8,3.5-9.5,7-14.9,10.9c10.9,13.3,13,29.5,19,44c5.9,14.4,13.7,28.1,21.2,41.8
		c2.6,4.7,3.4,8.9,2.3,14.1c-2.4,11.4-4,22.9-6.5,34.3c-2,9.1-2.3,9.4,6.8,15.1c19.2,12,38.6,23.7,57.9,35.5
		c28.4,17.4,56.7,34.9,85,52.4c1.4,0.8,2.7,1.8,5.4,3.7c-3.6,0.6-5.7,1.1-7.7,1.2c-7.3,0.1-14.7,0-22,0.1c-6.3,0-12.2,1.2-18.3,3.8
		c-9.4,4-19.1,6.3-29.7,1.4c-9.3-4.3-19.3-7.2-27.8-13.3c-3.9-2.8-8.1-3.8-13.2-2.5c-13.2,3.4-26.4,6.8-39.7,9.1
		c-13.6,2.3-25.8,8-38.5,12.7c-2.1,0.8-4.4,1.2-6.8,1.8c-0.9-8.4-2.8-16.3-2.5-24.1c0.3-9.1-1.7-16.9-6.8-23.6
		c-8.1-1.1-15.7-2.2-24.4-3.4c3.2,18.1,11.7,35,17.4,53.7c-3,1.7-6.1,3.4-10,5.6c-2.6-5.2-5-9.8-7.7-15.2c-2.3,0.4-4.9,0.5-7.3,1.2
		c-5.7,1.7-11.4,3.6-17.1,5.4c-4.9,1.5-9.4,1.5-14.8,0.8c-8.1-1.1-16.8,2.2-25.2,3.9c-5.2,1.1-10.2,2.6-15.3,4.1
		c-4.8,1.5-7.6-0.7-9.6-4.7c-5.6-11-12.1-21.4-20.7-30.4c-1.5-1.6-2.5-4-2.8-6.1c-1.3-8.1-6-12.5-13.7-15.4
		c-7.4-2.8-13.7-8.8-21.2-10.9c-11.2-3.1-17.2-11.7-24.8-18.8c-4.3-4.1-9.1-7.5-13.2-11.8c-2.1-2.2-4.4-5.5-4.4-8.3
		c-0.1-9.4-5.6-16.4-11.7-21.2c-6.5-5.1-7.9-11.2-8.5-18c-0.6-6.6-0.8-13.4,0.1-20c0.6-4.4,2.3-9.3,5.2-12.5
		c7.1-7.8,11.8-16.8,16-26.2c2.8-6.4,3.8-12.8-0.3-19c-3-4.5-3.2-9.1-1-14.1c1.4-3.3,2.4-6.9,3.2-10.5c1.5-6.9-0.8-11.4-7.8-12.5
		c-7.1-1.1-9.3-5.3-10.4-11.2c-1.1-5.6-3.7-10-7.7-14.5c-5.2-5.9-8.3-13.5-12.1-20.5c-24.5-45-49.1-89.9-73.4-135
		c-3.1-5.7-6.5-7.9-13.2-7.9C5114,3311.4,5093.1,3310.4,5070.8,3309.7z"/>
	<path onclick="modal(this.id);" id="891" class="st0" d="M5176.8,2998.5c0-6.9,0-12.5,0-19c-3.7-1.6-7.9-3.5-12.7-5.6c0-8.9-1.3-18.1,2.7-26.7
		c4.7,0.4,8.9,0.7,13.1,1.2c8,0.8,15.1-0.4,20.1-7.7c3.9-5.7,9.9-4.3,15.5-4.1c9.3,0.3,18.6,0.8,27.9,1.1c2.2,0.1,4.5-0.4,6.6-0.6
		c4.9-10.4,0.2-22.9,9.3-33.7c26,58.3,51.4,115.3,77.2,173.2c4.6-0.8,9-1.6,13.5-2.3c8.5-1.4,11,0.2,11.8,8.8
		c0.9,9.9,1.3,19.9,1.8,29.8c0.5,9.2,0.8,9.5,10,11.9c7,1.8,14.2,3.4,20.9,6c8.3,3.2,11.3,10.2,8.7,18.6c-1,3.2-2.4,6.2-3.5,9.4
		c-2.6,7.8-7.1,12.4-16.2,11c-7.6-1.2-13.5,2.9-18.5,7.9c-5.5,5.4-10.9,10.1-19.1,11.4c-4.6,0.8-9.9,3.3-13,6.8
		c-7.2,8-15,11.7-26.9,6.9c-1.1-3.4-2.9-7.9-4.1-12.7c-2.2-9-7.1-15.7-15.3-19.9c-6.8-3.5-11.6-8.4-14.5-15.6
		c-3.2-8-7.1-15.8-10.8-23.6c-3.8-8-8.9-9.7-17-5.5c-2.6,1.4-4.9,3.4-7.5,4.8c-2.8,1.6-5.7,2.8-8,3.9c-1.3-0.9-1.7-1.1-1.7-1.3
		c-1.2-12.2-8.4-15.5-19.9-15.1c-10.9,0.4-21.9-1.2-32.8-1.5c-8.3-0.2-8.5,0.4-7.5,8.5c0.3,1.9,0.3,3.9,0.5,7
		c-19.8,0.5-39.1-0.5-59.1-2.3c2.2-8,8.6-13.8,7.4-22.6c-1.1-7.8-0.2-15.8-0.2-24.7c-3.7-0.2-7-1.2-10.1-0.5
		c-11.6,2.5-23.1,5.5-34.6,8.3c-1.6,0.4-3.1,1.5-4.7,1.4c-10.1-0.3-18.6,4.5-27.3,8.6c-3.5,1.7-7.3,2.9-11.5,4.5
		c-2-2.7-4.2-4.8-5.4-7.4c-3.5-7.4-9.7-10.1-17.2-9.5c-15.9,1.3-31.7,3.2-47.5,4.9c-3.9,0.4-7.8,0.8-13.1,1.4c0-9-0.3-17.2,0.2-25.4
		c0.1-2.2,2.1-5.2,4.1-6.3c4.9-2.7,10.1-5.3,15.5-6.4c7.4-1.5,15-1.6,22.6-2.3c4.8-0.4,7.1-2.9,6.2-7.8c-0.7-3.8-1.8-8-3.9-11.1
		c-2.9-4.1-3-8-1.2-12.2c2-4.6,4.3-9,6.5-13.4c3.5-7,9.6-13.2,4.1-23.6c13,0,24.2-0.1,35.3,0c23.6,0.2,47.3,0.3,70.9,0.7
		c16,0.2,32,0.2,47.9,1.6c6.6,0.6,12.8,4.6,19.2,7.1C5173.1,2995.7,5174.3,2996.8,5176.8,2998.5z"/>
	<path onclick="modal(this.id);" id="890" class="st0" d="M5150.6,2852.5c14.9,0,28.7,0,43.6,0c1.9-13.1,5.9-24.9,12.8-36c1,1.3,2.2,2.1,2.6,3.3
		c3.8,11.6,12.4,18.5,22.2,24.7c4,2.6,6.3,7.3,11.6,8.7c1.5,0.4,2.4,3.7,3.1,5.9c3.6,11,7,22.1,10.5,33.2c1.4,4.4,0.9,8-2.5,11.8
		c-2.4,2.7-3.3,6.9-4,10.6c-1.1,5.8-1.5,11.8-2.4,18.9c-8.3,0-16.2,0-24,0c-5.7,0-11.3-0.4-16.9,0.2c-3,0.3-7.2,1.3-8.6,3.5
		c-7.5,11.1-17.8,8.5-27.6,6.1c-11.5-2.7-11.9-4-13.2-16.3c-2.2-21.1-4.7-42.1-7-63.2C5150.3,2860.7,5150.6,2857.3,5150.6,2852.5z"
		/>
	<path onclick="modal(this.id);" id="609" class="st0" d="M5517.8,3811.7c-8.4,0.9-15.8,1.7-24,2.6c-15.4-35.2-30.2-70.1-41.6-106.6c6,0,11.2,0,15.9,0
		c8.8,6.2,7.5,15,7.7,23.6c0.2,8.6,1.4,17.1,2.3,26.4c17.1-4.3,31.6-13.9,49.2-14.3c-3.9,3.2-5.5,6.8-6.1,11.6
		c-0.5,3.7-2.8,7.5-5.2,10.6c-4.3,5.3-4.3,10.6-2.3,16.8C5516.8,3791.4,5518.9,3800.7,5517.8,3811.7z"/>
	<path onclick="modal(this.id);" id="608" class="st0" d="M5422.5,3796.3c-9.3,4.3-17.6,8.1-27,12.5c-12.2-12-24.2-25.7-31.8-42.6
		c7.8-2.4,14.6-4.9,21.5-6.6c7-1.7,14.1-2.6,20.8-3.8C5411.8,3769.8,5417.1,3782.9,5422.5,3796.3z"/>
	<path onclick="modal(this.id);" id="3177" class="st0" d="M5341.2,3766.3c5.8-0.9,10.9-1.7,16.8-2.5c3.1,5.8,5.9,11.2,8.9,16.9
		c-9.8,6.6-19.8,8.1-31.7,7.5C5337.3,3780.4,5339.3,3773.4,5341.2,3766.3z"/>
	<path onclick="modal(this.id);" id="2844" class="st0" d="M5425.6,3755c6.7-2.2,12.8-4.3,19.5-6.5c1.6,3.5,3,6.4,4.8,10.3c-4.1,1.4-7.6,2.6-11.1,3.9
		C5436.5,3756.6,5427.4,3764.2,5425.6,3755z"/>
	<path onclick="modal(this.id);" id="889" class="st0" d="M5160.3,2955.2c0,7.2,0,14.3,0,21.3c4.8,1.8,8.8,3.4,13.4,5.1c-0.7,2.6-1.4,5-2.3,8.1
		c-4.7-1.7-8.8-3.2-13.2-4.8c0-10.2,0-20,0-29.8C5159,2955.1,5159.7,2955.1,5160.3,2955.2z"/>
</g>
<g>
	
	<path onclick="modal(this.id);" id="2902" class="st0" d="M5474.6,3864.9c-0.5,0.3-1.1,0.5-1.6,0.8c-1.5,0.6-3,1.2-4.4,1.9c-0.3,0.1-0.7,0.3-1,0.5
		c-1.6,0.9-3.3,1.6-5,2.3c-5.5,2.3-11.1,4.5-16.6,6.8c-0.1,0.1-0.3,0.1-0.4,0.1c-0.1,0-0.1,0-0.1-0.1c-0.6-0.5-1.1-1-1.6-1.6
		c-2.9-3.5-5.8-7-8.7-10.4c-2.4-2.9-4.8-5.7-7.2-8.6c-1.8-2.2-3.6-4.3-5.4-6.5c-0.1-0.1-0.1-0.2-0.2-0.3c0.1-0.1,0.2-0.2,0.3-0.3
		c2.3-2,4.6-3.9,6.9-5.9c2.1-1.8,4.1-3.5,6.2-5.3c0.2-0.2,0.3-0.3,0.4-0.5c1.2-2.1,2.5-4.2,3.7-6.3c0.1-0.2,0.3-0.5,0.4-0.7
		c0.1,0,0.3,0,0.4,0c0.1,0,0.2-0.1,0.4-0.2c0.3-0.2,0.6-0.3,0.9-0.5c1-0.4,1.9-0.8,2.9-1.2c0.1,0,0.2-0.1,0.3-0.1
		c1.4-0.5,2.6-1.1,4-1.7c0.2-0.1,0.3-0.2,0.4-0.3c0.2-0.2,0.4-0.3,0.6-0.4c0.2-0.1,0.5-0.2,0.8-0.3c0.2,0.5,0.4,0.9,0.6,1.4
		c0.2,0,0.3-0.1,0.5-0.1c0.2,0.3,0.7,1.4,0.8,1.8c-0.1,0.1-0.3,0.2-0.5,0.2c-0.2,0.1-0.3-0.2-0.5,0c0,0,0,0.1,0,0.1
		c0.9,2.1,1.7,4.1,2.6,6.1c0.2,0.1,0.3,0,0.4-0.1c0.5-0.2,1-0.4,1.5-0.6c0.2,0.2,0.3,0.6,0.4,0.8c0.2,0.1,0.3,0,0.4-0.1
		c0.8-0.4,1.7-0.7,2.5-1.1c0.5-0.2,1-0.4,1.5-0.6c0.1,0,0.2-0.1,0.3-0.1c0,0.1,0.1,0.1,0.1,0.2c0.9,2,1.8,4,2.6,6
		c0.5,1.1,0.9,2.3,1.4,3.4c0,0,0,0.1,0.1,0.1c0.1,0.6,0.4,1.1,0.6,1.7c1.6,3.7,3.1,7.5,4.7,11.2c1.1,2.2,1.9,4.5,2.9,6.8
		c0.2,0.4,0.4,0.9,0.6,1.3C5474.5,3864.7,5474.6,3864.8,5474.6,3864.9z"/>
	<path onclick="modal(this.id);" id="3191" class="st0" d="M5397.5,3854.5c-1.5-1.9-3.1-3.8-4.6-5.7c0.1-0.1,0.1-0.1,0.2-0.2c0.2-0.1,0.4-0.3,0.6-0.4
		c0.2-0.1,0.4-0.2,0.5-0.4c0-0.1,0.1-0.1,0.2-0.1c1-0.8,2-1.6,3.1-2.4c2-1.5,3.9-2.9,5.9-4.4c0.2-0.1,0.4-0.3,0.6-0.4
		c0,0.1,0.1,0.1,0.2,0.2c0.9,1.2,1.8,2.3,2.7,3.5c0.4,0.5,0.9,1.1,1.3,1.6c0.1,0.2,0.3,0.3,0.5,0.3c0,0,0.1,0,0.1,0
		c0.5,0.1,0.8,0.4,1.1,0.8c3.1,3.7,6.2,7.4,9.3,11.1c5.3,6.3,10.5,12.6,15.8,19c0.8,1,1.7,1.9,2.5,2.9c0.1,0.2,0.3,0.3,0.4,0.6
		c-1.1,0.2-2.1,0.4-3.1,0.6c-1,0.2-2,0.4-3,0.6c-0.1,0.2,0,0.3,0,0.5c0.1,0.8,0.3,1.6,0.4,2.5c0,0.1,0,0.1,0,0.2
		c-0.1,0-0.2,0.1-0.3,0.1c-0.3,0-0.5,0.1-0.8,0.1c-0.3,0-0.6,0-0.8-0.1c-1.1-0.5-2.3-0.9-3.4-1.4c-0.3-0.1-0.5-0.2-0.8-0.3
		c-0.3-0.1-0.5-0.1-0.8-0.1c-0.6,0.1-1.2,0.1-1.8,0.2c-0.5,0.1-1,0.1-1.4,0.1c-1.2,0.1-2.3,0.2-3.5,0.4c-0.9,0.1-1.7,0.1-2.6,0
		c-0.1,0-0.3-0.1-0.5,0c-0.4,1-0.7,2.1-1.1,3.2c-0.1-0.1-0.1-0.1-0.2-0.2c-0.6-0.8-1.3-1.6-1.9-2.4c-0.4-0.5-0.8-1-1.2-1.4
		c-3.3-3.8-6.6-7.6-10-11.4c-0.6-0.9-1.4-1.7-2.1-2.5c-1.1-1.4-2.2-2.8-3.4-4.1c-0.2-0.2-0.4-0.5-0.6-0.7c-0.5-0.6-1-1.2-1.4-1.7
		c-0.6-0.7-1.2-1.4-1.7-2.1c-0.2-0.2-0.3-0.4-0.5-0.6c0.1-0.1,0.3-0.2,0.4-0.4c1.6-1.4,3.2-2.8,4.8-4.1
		C5397,3855,5397.3,3854.8,5397.5,3854.5z"/>
	<path onclick="modal(this.id);" id="2876" class="st0" d="M5440.3,3830.3c-0.1,0.2-0.3,0.3-0.4,0.5c-1.3,2.2-2.7,4.5-4,6.7c-0.1,0.3-0.3,0.5-0.5,0.7
		c-4.1,3.5-8.2,7-12.2,10.4c-0.3,0.2-0.6,0.5-0.9,0.7c-0.1,0.1-0.2,0.1-0.3,0.2c-0.1-0.1-0.2-0.2-0.3-0.3c-1.4-1.7-2.9-3.5-4.3-5.2
		c-1.7-2-3.3-4-5-5.9c-0.9-1-1.7-2-2.5-3.1c-0.9-1.1-1.7-2.2-2.6-3.3c-1-1.3-1-1.3-1.8-3c-1.2-2.4-2.3-4.9-3.5-7.3
		c-0.2-0.5-0.5-1-0.7-1.5c0-0.1-0.1-0.2-0.1-0.3c0-0.2,0.2-0.2,0.3-0.2c1.9-0.8,3.7-1.6,5.6-2.4c0.3-0.1,0.6-0.2,0.9-0.4
		c0.2,0.2,0.3,0.4,0.3,0.7c0.1,0.6,0.1,1.2,0.2,1.8c0,0.1,0,0.1,0,0.2c0.3,0.1,0.5,0.1,0.8,0.1c0.3,0,0.5,0.1,0.8,0
		c0.1-0.4,0.2-0.8,0.3-1.2c0.1,0,0.2,0,0.3,0c0.5,0,1,0,1.5,0.1c0.2,0,0.4,0,0.6-0.1c0.7-0.2,1.4-0.5,2.2-0.7c0.1,0,0.1,0,0.2-0.1
		c0.2,0.2,0.3,0.5,0.4,0.7c0.1,0.2,0.2,0.5,0.4,0.7c-0.1,0-0.1,0.1-0.2,0.1c-0.3,0.1-0.6,0.3-0.9,0.4c-0.1,0.2,0,0.2,0.1,0.3
		c0.3,0.5,0.6,0.9,0.9,1.4c0.2,0.3,0.5,0.7,0.7,1c0.1,0.1,0.1,0.2,0.2,0.3c-0.7,0.4-1.3,0.8-2,1.2c0.1,0.3,0.6,1.1,1,1.6
		c0.1,0,0.2,0,0.3-0.1c0.2-0.1,0.4-0.2,0.6-0.3c2.5-1.1,4.9-2.2,7.4-3.3c0.3-0.1,0.5-0.2,0.8-0.3c2.1-0.7,4.3-1.3,6.4-1.9
		c0.2-0.1,0.4-0.1,0.6-0.2c0.9-0.4,1.9-0.8,2.8-1.2c0.1,0,0.2-0.1,0.3-0.1c0.2,0.1,0.2,0.3,0.2,0.4c0.8,1.8,1.5,3.5,2.3,5.3
		c0.9,2.1,1.8,4.2,2.7,6.4C5440.2,3830.1,5440.3,3830.2,5440.3,3830.3z"/>
	<path onclick="modal(this.id);" id="621" class="st0" d="M5414.7,3887.2c0.4-1.1,0.7-2.2,1.1-3.2c0.1-0.1,0.2-0.1,0.4-0.1c1,0.1,2,0.1,3-0.1
		c0.9-0.1,1.8-0.2,2.7-0.3c1-0.1,2-0.2,3.1-0.3c0.2,0,0.5,0,0.7-0.1c0.2,0,0.3,0,0.5,0.1c1.1,0.4,2.1,0.8,3.2,1.3
		c0.4,0.2,0.8,0.3,1.2,0.5c0.1,0,0.3,0.1,0.4,0.1c0.5,0,1-0.1,1.4-0.2c0.1,0,0.1,0,0.2-0.1c0.1-0.1,0-0.3,0-0.4
		c-0.1-0.8-0.3-1.6-0.4-2.4c0-0.1,0-0.2,0-0.4c0.3-0.1,0.6-0.1,0.9-0.2c1.8-0.3,3.5-0.7,5.3-1c0.3-0.1,0.6-0.2,1-0.3
		c1.9-0.8,3.8-1.6,5.7-2.4c0.2-0.1,0.3-0.1,0.5-0.2c0.1,0.1,0.2,0.2,0.2,0.3c1.1,1.4,2.3,2.9,3.4,4.3c1.4,1.7,2.7,3.4,4.1,5.1
		c1.2,1.4,2.4,2.8,3.6,4.3c1,1.2,2.1,2.5,3.1,3.7c1,1.2,2,2.4,3,3.6c0.1,0.1,0.2,0.2,0.3,0.3c-0.1,0.1-0.2,0.1-0.3,0.1
		c-4.2,1.6-8.4,3.1-12.5,4.7c-0.2,0.1-0.4,0.1-0.7,0.1c-0.7-0.1-1.5-0.2-2.2-0.3c-1-0.1-2-0.3-3-0.4c-0.1,0-0.2,0-0.3,0
		c-0.2,0.5-0.2,1-0.4,1.5c-0.1,0-0.2,0-0.2-0.1c-0.5-0.4-0.9-0.8-1.4-1.2c-0.2-0.2-0.4-0.3-0.6-0.3c0,0,0,0,0,0
		c-1.9-0.6-2.1-0.5-4.2-0.6c-0.5,0-0.9,0-1.4-0.2c-0.4-0.1-0.8-0.2-1.1-0.2c-0.1,0-0.3-0.1-0.4-0.1c0-0.2,0-0.3,0.1-0.5
		c0.4-1.5,0.7-2.9,1.1-4.4c0.1-0.2,0.1-0.5,0-0.7c-0.1-0.2,0-0.5-0.1-0.8c0-0.3,0-0.5-0.1-0.8c-0.1-0.5-0.2-1-0.4-1.5
		c-0.8,0.2-1.6,0.5-2.4,0.7c-0.2,0.1-0.4,0.1-0.6,0c-2.1-0.5-4.2-0.9-6.2-1.4c-0.2,0-0.4-0.1-0.5-0.3c-0.3-0.3-0.6-0.7-0.9-1
		c-0.1-0.1-0.2-0.2-0.3-0.3c-0.1,0.1-0.2,0.2-0.2,0.2c-0.3,0.4-0.5,0.8-0.8,1.2c-0.1,0.1-0.1,0.2-0.2,0.3c-0.9,0-1.7,0-2.6-0.1
		c-0.1-0.1-0.2-0.2-0.4-0.3c-0.9-0.9-1.9-1.9-2.8-2.8c-0.1-0.1-0.3-0.3-0.4-0.4C5416,3888.9,5415.4,3888,5414.7,3887.2z"/>
	<path onclick="modal(this.id);" id="611" class="st0" d="M5433.7,3815.3c-1.8,0.7-3.6,1.5-5.4,2.2c-0.5-1.1-0.9-2.1-1.4-3.1c-0.2-0.1-0.3,0-0.4,0
		c-0.8,0.3-1.7,0.7-2.5,1.1c-0.5,0.2-0.9,0.4-1.4,0.6c-0.1,0-0.1,0-0.2,0.1c-0.1-0.6-0.2-1.1-0.3-1.7c-0.2-0.1-0.3-0.1-0.5-0.1
		c-0.3,0-0.6,0-0.9-0.1c-1.4-0.3-2.8-0.6-4.2-0.8c-0.1,0-0.2-0.1-0.3-0.1c0-0.3,0.1-0.6,0.1-0.8c-0.1,0-0.1,0-0.1,0c0,0,0,0,0,0
		c-0.2,0.1-0.3,0.1-0.5,0.2c-1.9,0.7-3.8,1.5-5.6,2.2c0,0,0,0-0.1,0.1c0,0.1,0,0.2,0.1,0.4c0,0,0,0,0,0s0,0,0,0
		c-2.9,1.2-5.7,2.4-8.6,3.6c-0.1,0-0.2,0.1-0.3,0.1c-0.1-0.1-0.1-0.2-0.2-0.3c-0.5-0.9-1.1-1.8-1.6-2.6c-0.1-0.2-0.3-0.5-0.5-0.7
		c-0.5-0.6-0.9-1.2-1.4-1.7c0.1-0.2,0.3-0.3,0.4-0.4c1.2-1,2.5-2,3.7-3c2.3-1.9,4.7-3.8,7-5.7c0.2-0.2,0.4-0.3,0.6-0.3
		c4.1-1.2,8.3-2.4,12.4-3.6c0.7-0.2,1.4-0.4,2.2-0.6c0.2,0,0.3-0.1,0.4-0.2c0.6-0.6,1.2-1.2,1.9-1.8c0.1-0.1,0.2-0.2,0.3-0.3
		c0.1,0,0.2,0.1,0.2,0.2c0.5,1,0.9,2,1.4,3c0.2,0.4,0.3,0.7,0.6,1.1c0.4,0.6,0.7,1.2,1,1.9c0.3,1,0.8,1.9,1.2,2.8
		c0.1,0.3,0.2,0.5,0.4,0.8c0.1,0.3,0.3,0.7,0.4,1.1c0.4,1,0.8,2.1,1.1,3.2c0.2,0.7,0.4,1.3,0.6,2c0.1,0.3,0.2,0.7,0.4,1
		C5433.6,3815,5433.6,3815.1,5433.7,3815.3z"/>
	<path onclick="modal(this.id);" id="2848" class="st0" d="M5411.6,3759.7C5411.7,3759.7,5411.7,3759.6,5411.6,3759.7c0.1-0.1,0.2-0.1,0.2-0.1
		c3.5-0.9,7-2,10.6-3c0.1,0.1,0.1,0.3,0.2,0.4c0.4,1,0.8,2.1,1.2,3.1c0.5,1.3,1.1,2.6,1.7,3.9c0.2,0.5,0.4,0.9,0.6,1.4
		c0,0.1,0.1,0.2,0.3,0.3c0.9-0.3,1.9-0.7,2.8-1c0.2,0.1,0.2,0.2,0.2,0.4c0.7,2,1.4,4,2.2,6c0.1,0.2,0.1,0.5,0.3,0.6
		c0.1,0,0.1,0.1,0.1,0.2c0.4,1,0.8,2,1.2,3c0,0,0,0.1,0,0.1c0,0-0.1,0.1-0.1,0.1c-4.4,2.1-8.8,4.3-13.1,6.5
		c-0.2-0.1-0.2-0.3-0.3-0.4c-0.7-1.5-1.4-3.1-2.1-4.6c-0.9-2-1.7-3.9-2.6-5.9c-0.4-0.9-0.6-1.8-0.9-2.7c-0.7-2.3-1.4-4.6-2.2-7
		C5411.8,3760.5,5411.7,3760.1,5411.6,3759.7z"/>
	<path onclick="modal(this.id);" id="643" class="st0" d="M5436.1,3928.8c-0.8-2.4-1.6-4.7-2.4-7c0.3-0.2,0.6-0.4,1-0.6c0.4-0.2,0.8-0.3,1.1-0.5
		c0.1-0.1,0.3-0.1,0.4-0.2c0.1-0.2,0-0.3,0-0.4c-0.4-0.9-0.7-1.9-1.1-2.8c0-0.1-0.1-0.3-0.1-0.4c0.1,0,0.1-0.1,0.2-0.1
		c1.1-0.1,2.2-0.4,3.3-0.7c0.2,0,0.4-0.1,0.7-0.2c0.2,0,0.3-0.1,0.5,0c0.1,0,0.2,0,0.3,0c1.7-0.3,3.4-0.6,5.1-0.9
		c0.1,0,0.2,0,0.3-0.1c0-0.1,0-0.2,0.1-0.3c0.3-0.1,0.5-0.2,0.8-0.3c2.1-0.8,4.3-1.6,6.4-2.3c0.3-0.1,0.6-0.3,0.9-0.4
		c0.2-0.1,0.4-0.1,0.6-0.1c1.7,0.2,3.3,0.4,5,0.6c0.7,0.1,1.5,0.3,2.2,0.4c0.3,0,0.5,0.1,0.8,0.1c0.2,0,0.3,0.1,0.5,0.2
		c1,1,2.1,2.1,3.1,3.1c0.2,0.2,0.3,0.3,0.4,0.6c-0.1,0-0.1,0.1-0.2,0.1c-1.7,0.7-3.4,1.4-5.1,2.1c-0.6,0.2-1.2,0.5-1.8,0.7
		c-0.3,0.1-0.5,0.3-0.8,0.5c-0.2,0.2-0.5,0.3-0.8,0.4c-4,1.6-8,3.1-12,4.6c-1.8,0.7-3.6,1.5-5.4,2.2c-1.1,0.4-2.2,0.9-3.3,1.4
		C5436.4,3928.7,5436.3,3928.7,5436.1,3928.8z"/>
	<path onclick="modal(this.id);" id="661" class="st0" d="M5464.1,3928.9c-0.1-0.1-0.1-0.2-0.2-0.3c-0.1-0.1-0.1-0.2-0.3-0.1c-0.2,0.1-0.4,0.1-0.6,0.2
		c-0.5,0.2-1.2,0.5-1.6,0.6c0-0.1-0.1-0.2-0.1-0.3c-0.6-1.4-1.1-2.8-1.7-4.2c-0.3-0.7-0.5-1.4-0.8-2.1c0-0.1-0.1-0.2-0.2-0.3
		c-0.1,0.1-0.3,0.1-0.4,0.1c-0.8,0.3-1.5,0.6-2.3,1c-0.2,0.1-0.3,0.1-0.5,0.1c-0.1,0-0.2,0.1-0.3,0.1c-0.4,0.2-0.7,0.3-1.1,0.5
		c-0.1,0.1-0.3,0.1-0.4,0.2c-0.2-0.3-0.3-0.6-0.4-0.9c-0.1-0.3-0.3-0.6-0.4-0.9c0.1-0.1,0.2-0.1,0.3-0.2c1.4-0.6,2.8-1.1,4.2-1.7
		c0.4-0.1,0.7-0.3,1-0.5c0.3-0.2,0.6-0.4,1-0.5c2.1-0.8,4.3-1.7,6.4-2.6c0.5-0.2,1-0.4,1.5-0.6c2.4-0.9,4.7-1.9,7.1-2.8
		c0.1-0.1,0.3-0.1,0.4-0.2c0.1,0.1,0.2,0.2,0.3,0.2c0.2,0.1,0.4,0.4,0.6,0.6c0.3,0.2,0.5,0.4,0.7,0.6c0.2,0.2,0.4,0.4,0.7,0.6
		c0.2,0.1,0.3,0.2,0.5,0.3c0.5,0.3,1.1,0.6,1.6,0.9c0.2,0.1,0.3,0.2,0.3,0.5c0,0.4,0.1,0.7,0.2,1.1c0.1,0.6,0.3,1.2,0.5,1.7
		c0.1,0.3,0.1,0.5,0,0.7c-0.3,0.7-0.6,1.5-0.9,2.2c-0.1,0.2-0.2,0.4-0.3,0.7c-0.4,0.7-0.6,1.5-0.8,2.3c0,0.1,0,0.2,0,0.3
		c0,0.5-0.1,1-0.1,1.5c0,0.2,0,0.4,0.1,0.5c0.2,0.4,0.3,0.9,0.5,1.3c0.1,0.2,0.1,0.3,0.2,0.5c-0.1,0-0.1,0.1-0.2,0.1
		c-2,0.8-3.9,1.7-5.9,2.5c-0.1,0-0.2,0-0.3,0.1c-0.1-0.1-0.1-0.2-0.1-0.3c-0.7-1.7-1.4-3.4-2.1-5.1c-0.1-0.1-0.1-0.3-0.1-0.4
		c0-0.1-0.1-0.2-0.2-0.2c-0.1,0.1-0.2,0.2-0.3,0.3c-0.1,0.1-0.2,0.1-0.4,0.2c-1.3,0.5-2.5,1-3.8,1.5
		C5465,3928.7,5464.6,3928.8,5464.1,3928.9z"/>
	<path onclick="modal(this.id);" id="619" class="st0" d="M5452.7,3886.3c-2.3-2.9-4.7-5.9-7-8.8c0.1-0.2,0.2-0.2,0.3-0.2c1.9-0.8,3.7-1.5,5.6-2.3
		c2.8-1.1,5.6-2.3,8.3-3.4c0.2-0.1,0.4-0.1,0.6-0.2c0.4,1.1,0.7,2.3,1.1,3.4c0.4,0,0.6-0.2,0.9-0.3c0.3-0.1,0.6-0.3,0.9-0.4
		c0.3-0.1,0.6-0.2,0.9-0.4c0.3,0.5,0.5,1.1,0.7,1.6c0.2,0.5,0.4,1,0.6,1.5c0.2,0.5,0.4,1.1,0.6,1.6c0.2,0.5,0.4,1,0.6,1.5
		C5466.6,3880.2,5453.1,3886.2,5452.7,3886.3z"/>
	<path onclick="modal(this.id);" id="638" class="st0" d="M5474.6,3913.1c-0.5,0.3-7.5,3.1-8.4,3.4c0,0-0.1,0-0.1-0.1c-0.2-0.4-0.5-0.7-0.8-1
		c-0.9-0.9-1.7-1.7-2.6-2.6c-0.2-0.2-0.5-0.4-0.8-0.4c-0.7-0.1-1.5-0.3-2.2-0.4c-0.1,0-0.2-0.1-0.3-0.1c-1.3-3.2-2.5-6.4-3.7-9.6
		c0.1-0.2,0.3-0.2,0.4-0.2c1.7-0.6,3.4-1.3,5.1-1.9c0.7-0.3,1.4-0.5,2-0.8c0.1,0,0.1,0,0.2-0.1c0.1,0.1,0.2,0.2,0.2,0.3
		c2.4,2.9,4.8,5.8,7.2,8.7c1.1,1.3,2.1,2.6,3.1,3.9C5474.2,3912.5,5474.4,3912.8,5474.6,3913.1z"/>
	<path onclick="modal(this.id);" id="2880" class="st0" d="M5467.1,3796.7c1.5,3.5,2.9,6.9,4.4,10.4c0,0,0,0.1,0,0.1c-0.3-0.1-0.6-0.1-1-0.2
		c-0.3-0.1-0.6-0.2-0.9-0.3c-1-0.4-1.9-0.9-2.9-1.3c-0.4-0.2-0.9-0.4-1.4-0.6c-0.1,0-0.2-0.1-0.3-0.1c-0.5-0.1-0.9-0.1-1.4-0.1
		c-0.3,0-0.7,0.1-1,0.1c-0.3,0-0.6,0.1-0.9,0.1c-0.7,0.1-1.4,0.4-2.1,0.6c-0.1,0-0.2,0.1-0.3,0.2c-0.2,0.1-0.4,0.3-0.7,0.4
		c-0.4,0.2-0.8,0.6-1.2,0.9c-1.1,1.2-2.2,2.4-3.4,3.5c-0.4,0.4-0.9,0.8-1.3,1.2c-0.1,0.1-0.2,0.1-0.2,0.1c-0.4,0.2-0.9,0.3-1.3,0.5
		c0-0.1-0.1-0.2-0.1-0.2c-0.3-0.8-0.7-1.7-1-2.5c-0.1-0.3-0.2-0.5-0.3-0.8c0-0.1-0.1-0.2-0.1-0.3c-0.3-1.1-0.8-2.1-1.3-3.2
		c-0.1-0.1-0.1-0.3-0.2-0.4c0,0,0.1-0.1,0.1-0.1C5454.6,3802,5460.8,3799.4,5467.1,3796.7z"/>
	<path onclick="modal(this.id);" id="2849" class="st0" d="M5457.2,3771.9c-1-2.3-1.9-4.5-2.9-6.8c0,0,0.1-0.1,0.1-0.1c4.5-2.4,9.1-4.7,13.6-7.1
		c0.1,0.1,0.1,0.2,0.1,0.3c0.7,1.7,1.3,3.4,2,5.1c0.7,1.9,1.5,3.7,2.2,5.6c0.1,0.3,0.2,0.6,0.3,0.9c-0.1,0-0.1,0-0.1,0
		c-0.8,0-1.5,0-2.3-0.1c-0.6,0-1.2,0-1.8,0c-1,0-2-0.1-3-0.1c-0.2,0-0.4-0.1-0.6-0.2c0-0.3,0-0.6,0-0.8c-0.1-0.1-0.2-0.1-0.3,0
		c-0.3,0.1-0.5,0.3-0.8,0.4c-2,0.9-4,1.9-6,2.8C5457.5,3771.8,5457.4,3771.8,5457.2,3771.9z"/>
	<path onclick="modal(this.id);" id="626" class="st0" d="M5434.3,3902.5c0.3,0.1,0.6,0.1,0.8,0.1c0.7,0.2,1.3,0.2,2,0.3c0.8,0,1.7,0.1,2.5,0.1
		c0.2,0,0.4,0.1,0.5,0.1c0.4,0.1,0.9,0.2,1.3,0.4c0.2,0,0.3,0.1,0.5,0.2c0.8,0.7,1.6,1.3,2.3,1.9c0.1,0.1,0.1,0.1,0.2,0.2
		c0.4,0.5,0.9,1,1.1,1.6c0.1,0.3,0.3,0.7,0.5,1c0,0.1,0.1,0.2,0.1,0.3c-0.3,0-0.5,0-0.7,0c-0.4,0-0.8-0.1-1.2-0.1
		c-0.4,0-0.7,0.2-1.1,0.4c-1.4,0.5-2.8,1.1-4.1,1.6c-0.1,0-0.2,0.1-0.3,0.1c-0.1,0.3-0.2,0.6-0.3,0.9c-0.1,0.3-0.2,0.6-0.5,0.6
		c0,0.2,0,0.3,0.1,0.5c0.3,0.8,0.7,1.7,1,2.5c0.1,0.1,0.1,0.3,0.2,0.4c-0.2,0.1-0.3,0.1-0.5,0.1c-0.9,0.2-1.8,0.4-2.6,0.6
		c-0.3,0.1-0.6,0.1-0.9,0.1c-0.2,0-0.4,0.1-0.5,0.1c-0.1,0-0.1,0.1-0.1,0.2c0,0.1,0.1,0.2,0.1,0.3c0.3,0.9,0.7,1.8,1,2.7
		c0,0.1,0.1,0.3,0.1,0.4c-0.1,0-0.2,0.1-0.2,0.1c-0.4,0.1-0.7,0.3-1.1,0.4c-0.1,0-0.2,0.1-0.3,0.2c-0.2,0.1-0.4,0.3-0.7,0.4
		c0-0.1-0.1-0.2-0.1-0.2c-0.2-0.5-0.3-1-0.5-1.5c-0.1-0.2-0.2-0.5-0.3-0.7c-0.2-0.1-0.3,0-0.4,0c-0.6,0.2-1.3,0.4-1.9,0.7
		c-0.1,0-0.3,0.1-0.4,0.1c0.1-0.6,0.3-1.1,0.4-1.6c0.1-0.5,0.2-1.1,0.4-1.6c0.2-0.5,0.3-1,0.4-1.6c0.1-0.5,0.3-1.1,0.4-1.6
		c0.1-0.5,0.3-1.1,0.4-1.6c0.1-0.5,0.3-1,0.4-1.5c0.1-0.5,0.3-1.1,0.4-1.6c0.1-0.5,0.3-1.1,0.4-1.6c0.1-0.5,0.3-1.1,0.4-1.6
		c0.1-0.5,0.3-1.1,0.4-1.6C5434,3903.6,5434.2,3903.1,5434.3,3902.5z"/>
	<path onclick="modal(this.id);" id="2879" class="st0" d="M5432.4,3810.3c0.2-0.1,0.3-0.1,0.4-0.2c2.1-0.9,4.2-1.8,6.3-2.7c0.2-0.1,0.3-0.1,0.5-0.1
		c0.2,0,0.4,0,0.6-0.1c0.3-0.4,0.4-1,0.7-1.4c0.1,0.1,0.1,0.1,0.2,0.2c0.3,0.3,0.6,0.7,0.9,1c0.2,0.3,0.3,0.3,0.6,0.1
		c1.1-0.4,2.1-0.9,3.2-1.3c0.7-0.3,1.3-0.5,2-0.8c0.1,0,0.1,0,0.2-0.1c0,0.1,0.1,0.1,0.1,0.2c0.3,0.7,0.6,1.4,0.9,2.1
		c0.3,0.9,0.6,1.7,1,2.6c0.2,0.6,0.5,1.3,0.7,1.9c0.1,0.2,0.1,0.4,0.2,0.5c-0.1,0.1-0.2,0.1-0.3,0.1c-1,0-1.9,0-2.9-0.1
		c-0.3,0-0.5,0-0.8,0.1c-0.5,0.2-1,0.4-1.5,0.5c-0.8,0.3-1.6,0.7-2.5,1.1c-2.6,1.2-5.2,2.3-7.8,3.5c-0.1,0-0.2,0.1-0.4,0.2
		C5433.8,3815.3,5433.1,3812.8,5432.4,3810.3z"/>
	<path onclick="modal(this.id);" id="2857" class="st0" d="M5461.8,3783.6c-0.2,0.1-0.3,0.1-0.5,0.2c-1.2,0.4-2.3,0.8-3.5,1.2c-0.4,0.1-0.7,0.3-1.1,0.4
		c-0.2-0.1-0.2-0.2-0.2-0.4c-0.7-1.6-1.3-3.2-1.8-4.8c-0.1-0.3-0.2-0.6-0.3-0.9c0-0.1-0.1-0.1-0.1-0.2c0-0.1-0.2-0.1-0.2,0
		c-0.1,0.1-0.1,0.1-0.1,0.2c-0.4,0.8-0.9,1.5-1.5,2.2c-1,1.2-2,2.4-3,3.6c-0.1,0.1-0.2,0.2-0.3,0.4c-0.2-0.2-0.4-0.3-0.5-0.5
		c-0.1-0.2-0.2-0.3-0.3-0.5c-0.4-0.5-0.9-1-1.3-1.6c-0.1-0.1-0.2-0.2-0.3-0.3c0.1-0.1,0.1-0.2,0.2-0.2c0.3-0.3,0.6-0.7,0.9-1
		c0.7-0.7,1.2-1.6,1.8-2.4c0.1-0.1,0.1-0.2,0.1-0.2c0.2-0.5,0.3-1,0.4-1.5c0.1-0.7,0.2-1.4,0.2-2.1c0-0.5,0-0.9,0-1.4
		c0-0.1,0-0.2,0-0.3c2.1-0.9,4.1-1.8,6.2-2.6c0,0,0.1,0.1,0.1,0.1C5457,3771.9,5461.6,3782.9,5461.8,3783.6z"/>
	<path onclick="modal(this.id);" id="2858" class="st0" d="M5472.9,3770.1c0.5,1.3,1,2.5,1.5,3.8c-0.3,0.2-0.5,0.3-0.8,0.4c-0.2-0.3-0.3-0.6-0.4-0.9
		c-0.1-0.1-0.3,0-0.4,0c-0.5,0.2-0.9,0.4-1.4,0.6c-1.4,0.6-2.8,1.2-4.3,1.8c-0.1,0.1-0.3,0.1-0.4,0.2c-0.1,0.4,0.2,0.7,0.2,1.1
		c-0.3,0.2-6.1,2.6-6.4,2.7c0,0-0.1-0.1-0.1-0.1c-1-2.4-2-4.9-3.1-7.3c0,0,0-0.1,0-0.1c2.3-1.1,4.6-2.1,6.9-3.2c0.1,0,0.1,0,0.2,0
		c0.1,0.1,0.1,0.3,0.1,0.4c0,0.2,0.1,0.4,0.3,0.4c0.2,0.1,0.4,0.1,0.7,0.1c1,0,1.9,0,2.9,0.1c1.2,0,2.3,0.1,3.5,0.1
		C5472.2,3770,5472.5,3770,5472.9,3770.1z"/>
	<path onclick="modal(this.id);" id="620" class="st0" d="M5469.7,3886.6c-0.3,0.2-11.8,5.3-12.1,5.4c-0.3-0.2-4.3-4.9-4.6-5.3c0.1-0.1,0.2-0.2,0.3-0.2
		c2.3-1,4.5-2,6.8-3c2.2-1,4.4-2,6.6-2.9c0.1-0.1,0.3-0.1,0.4-0.2c0,0,0,0,0.1,0c0,0,0,0,0,0c0.8,2,1.7,4,2.5,6
		C5469.6,3886.4,5469.7,3886.4,5469.7,3886.6C5469.7,3886.5,5469.7,3886.5,5469.7,3886.6z"/>
	<path onclick="modal(this.id);" id="2885" class="st0" d="M5462,3814.3c0.5,0,1,0,1.5,0c0.5,0,1,0,1.5,0c0.1-0.2,0-0.3,0-0.5c0-0.1,0-0.3,0-0.5
		c0-1.8,0-3.7,0.1-5.5c0-0.9,0.1-1.8,0.1-2.6c0-0.1,0-0.1,0-0.2c0.1,0,0.2,0,0.3,0.1c0.5,0.3,1.1,0.5,1.6,0.8
		c0.8,0.4,1.7,0.8,2.5,1.2c0.2,0.1,0.4,0.1,0.6,0.2c0.4,0.1,0.9,0.2,1.3,0.3c0.5,1.2,0.9,2.5,1.4,3.7c-0.1,0-0.1,0.1-0.1,0.1
		c-0.5,0.2-0.9,0.5-1.5,0.7c-0.5,0.2-1,0.4-1.5,0.6c-0.5,0.2-1,0.4-1.5,0.6c-1.8,0.8-3.7,1.6-5.5,2.4"/>
	<path onclick="modal(this.id);" id="2887" class="st0" d="M5463,3815.7c-1.2,0.5-2.4,1.1-3.7,1.6c-0.2,0.1-0.4,0.2-0.6,0.3c-0.1,0-0.1,0.1-0.2,0.2
		c0,0.1-0.1,0.2-0.1,0.2c-0.4-0.1-0.8-0.1-1.2-0.3c0-0.6-0.1-1.1-0.1-1.6c-0.1-0.9-0.1-1.9-0.2-2.8c0-0.4-0.1-0.8-0.2-1.2
		c-0.2-0.8-0.3-1.5-0.5-2.3c-0.1-0.3-0.1-0.6-0.1-0.9c0.5-0.5,1-1.1,1.5-1.6c0.5-0.5,1-0.9,1.6-1.3c0.5-0.3,1.1-0.5,1.6-0.7
		c0,0,0.1,0,0.1,0c0,0.1,0,0.2,0,0.3c-0.1,0.7-0.2,1.3-0.3,2c0,0.1,0,0.3,0,0.4c0,0.8,0,1.7-0.1,2.5c0,1.1,0,2.3,0,3.4
		c0,0.1,0,0.2,0,0.3c0.5,0,1,0,1.5,0.1"/>
	<path onclick="modal(this.id);" id="2863" class="st0" d="M5436.3,3793.8c0.4,1.1,0.9,2.2,1.3,3.4c-0.4,0.3-5,2.4-6,2.6c0-0.1-0.1-0.1-0.1-0.2
		c-0.2-0.5-0.5-1-0.7-1.4c-0.1-0.2-0.2-0.4-0.4-0.6c-0.5,0.2-1.1,0.4-1.6,0.7c-0.5,0.2-1,0.4-1.6,0.7c-0.1-0.1-0.1-0.2-0.2-0.3
		c-0.5-1.1-0.9-2.1-1.4-3.2c-0.1-0.3-0.3-0.7-0.4-1c0.1-0.3,0.3-0.4,0.6-0.5c1.1-0.5,2.1-1,3.2-1.5c1.8-0.8,3.7-1.7,5.5-2.5
		c1-0.5,2.1-0.9,3.2-1.4c0.6-0.2,1.1-0.5,1.7-0.7c0,0.1,0.1,0.1,0.1,0.2c0.5,1.3,1,2.5,1.5,3.8c0,0,0,0.1,0,0.1
		c-0.1,0.1-0.3,0.2-0.4,0.2c-1.3,0.5-2.5,1-3.8,1.5C5436.6,3793.6,5436.4,3793.7,5436.3,3793.8z"/>
	<path onclick="modal(this.id);" id="2854" class="st0" d="M5439.2,3787.4c0,0-0.1,0.1-0.1,0.1c-3.6,1.5-7.2,3.2-10.8,4.8c0,0-0.1,0-0.1,0
		c-0.2-0.4-1.8-4.2-2-4.7c0.4-0.2,0.8-0.4,1.1-0.6c0.4-0.2,0.8-0.4,1.2-0.6c0.4-0.2,0.8-0.4,1.1-0.6c0.1-0.1,0.1-0.3,0-0.4
		c-0.2-0.6-0.5-1.3-0.7-1.9c-0.1-0.3-0.2-0.5-0.3-0.8c0.5-0.4,5.9-2.8,7.3-3.3c0.2,0.1,0.2,0.2,0.2,0.3c0.6,1.4,1.1,2.8,1.7,4.2
		c0.4,1,0.8,1.9,1.1,2.9C5439.1,3787.1,5439.2,3787.3,5439.2,3787.4z"/>
	<path onclick="modal(this.id);" id="618" class="st0" d="M5474.6,3884.3c-0.1,0-0.1,0.1-0.1,0.1c-0.3,0-0.5,0.2-0.8,0.3c-0.6,0.3-1.1,0.5-1.7,0.8
		c-0.5,0.2-1,0.5-1.5,0.7c-0.2,0.1-0.3,0.1-0.5,0.2c-0.2-0.4-0.4-0.9-0.5-1.3c-0.2-0.4-0.4-0.9-0.5-1.3c-0.2-0.4-0.4-0.9-0.5-1.3
		c-0.2-0.4-0.4-0.9-0.5-1.3c-0.2-0.4-0.4-0.9-0.5-1.3s-0.4-0.9-0.5-1.3s-0.4-0.9-0.5-1.3c-0.2-0.4-0.4-0.9-0.6-1.3
		c-0.2-0.4-0.4-0.9-0.5-1.3c-0.2-0.4-0.4-0.9-0.5-1.3c-0.1,0-0.2,0-0.3,0.1c-0.6,0.3-1.2,0.5-1.9,0.8c-0.2,0.1-0.3,0.1-0.5,0.2
		c0-0.1-0.1-0.1-0.1-0.2c-0.3-0.9-0.6-1.9-0.9-2.9c0,0,0-0.1,0-0.1c0.5-0.2,1-0.4,1.5-0.7c0.5-0.2,1-0.4,1.5-0.6
		c0.5-0.2,1-0.4,1.6-0.6c0.1,0.1,0.1,0.2,0.2,0.3c0.3,0.8,0.6,1.6,1,2.3c0.2,0.6,0.2,0.4,0.7,0.3c0.1,0,0.2-0.1,0.4-0.1
		c0.2-0.1,0.4-0.1,0.6-0.3c0.1-0.1,0.2-0.1,0.3-0.2c0.2-0.1,0.4-0.1,0.5-0.2c0.1,0.2,0.2,0.4,0.3,0.6c0.1,0.3,0.2,0.6,0.4,0.9
		c0,0,0,0.1,0.1,0.2c1.5,3.6,3,7.1,4.6,10.7C5474.5,3884.1,5474.5,3884.2,5474.6,3884.3z"/>
	<path onclick="modal(this.id);" id="639" class="st0" d="M5455.4,3902.4c1.2,3.2,2.4,6.3,3.6,9.5c-0.1,0-0.2,0-0.3,0c-0.7-0.1-1.3-0.2-2-0.2
		c-0.8-0.1-1.7-0.2-2.5-0.3c-0.4-0.1-0.8-0.1-1.2-0.2c-0.7-0.1-1.4-0.2-2.1-0.3c-0.9-0.1-1.8-0.2-2.7-0.4c-0.2,0-0.3-0.1-0.5-0.2
		c-0.4-0.2-0.7-0.5-0.9-0.9c-0.3-0.7-0.7-1.4-1.1-2.2c-0.2-0.3-0.3-0.6-0.6-0.9c-0.3-0.4-0.6-0.8-1-1.1c0,0-0.1-0.1-0.1-0.1
		c0.1-0.5,0.2-1,0.3-1.6c0.4,0,0.7,0.1,1,0.1c0.9,0.1,1.8,0.2,2.7,0.3c0.6,0.1,1.1,0.1,1.7,0.2c0.3,0,0.5,0,0.7-0.1
		c1.5-0.6,3-1.1,4.5-1.7C5455.1,3902.5,5455.2,3902.5,5455.4,3902.4z"/>
	<path onclick="modal(this.id);" id="2884" class="st0" d="M5468.9,3800.4c2.1-0.9,4.2-1.7,6.3-2.5c0.1,0,0.1,0,0.2,0c0.2,0.4,0.3,0.8,0.5,1.3
		c0.2,0.4,0.3,0.8,0.5,1.3c0.2,0.4,0.3,0.8,0.5,1.3c0.2,0.4,0.3,0.8,0.6,1.2c0.3-0.1,0.6-0.2,0.9-0.3c0,0.1,0.1,0.1,0.1,0.2
		c0.7,1.7,1.5,3.4,2.2,5.1c0.1,0.1,0.1,0.3,0.1,0.4c0.1,0.7,0.3,1.4,0.4,2.1c0,0,0,0.1,0,0.2c-0.1,0-0.2,0-0.3,0
		c-0.5,0-0.9-0.1-1.4-0.1c-0.6-0.1-1.2,0-1.9,0c-0.7,0-0.7,0.1-1.3-0.4c-0.7-0.6-1.4-1.1-2.1-1.7c-0.2-0.1-0.3-0.2-0.5-0.3
		c-0.4-0.2-0.8-0.4-1.3-0.6c-0.1-0.1-0.3-0.1-0.4,0c-0.1,0-0.2,0-0.3,0c-0.2-0.1-0.2-0.3-0.3-0.4c-0.7-1.7-1.4-3.4-2.2-5.1
		C5469.3,3801.3,5469.1,3800.9,5468.9,3800.4z"/>
	<path onclick="modal(this.id);" id="2891" class="st0" d="M5447.9,3823.8c-0.6,0.2-1.1,0.5-1.7,0.7c-0.1-0.1-0.1-0.2-0.2-0.3c-0.3-0.6-0.5-1.3-0.8-1.9
		c0-0.1-0.1-0.2-0.1-0.2c-0.1-0.1-0.2,0-0.3,0c-1.5,0.6-3,1.3-4.5,1.9c-0.4,0.2-0.7,0.3-1.1,0.4c-0.2,0.1-0.4,0.1-0.6,0.1
		c-0.2,0-0.3,0.1-0.5,0.1c-1-2.3-2-4.7-3-7c0.1-0.2,0.2-0.2,0.3-0.2c1.7-0.8,3.4-1.5,5-2.3c1.1-0.5,2.1-1,3.2-1.4
		c0.1,0,0.2-0.1,0.4-0.2c0,0.1,0.1,0.2,0.1,0.2c0,0.3,0,0.5,0,0.8c0,0.2,0,0.5,0.1,0.7c0.7,1.7,1.5,3.5,2.2,5.2c0.4,1,0.8,2,1.2,3
		C5447.9,3823.6,5447.9,3823.7,5447.9,3823.8z"/>
	<path onclick="modal(this.id);" id="627" class="st0" d="M5457.7,3892.2c0.1-0.1,0.1-0.1,0.2-0.1c3.9-1.7,7.9-3.5,11.9-5.2c0.1,0.1,0.1,0.2,0.2,0.3
		c0.7,1.6,1.3,3.2,2,4.7c0,0,0,0.1,0,0.1c-0.1,0-0.1,0.1-0.2,0.1c-0.6,0.3-1.2,0.6-1.9,0.9c-0.1,0.1-0.2,0.1-0.4,0.2
		c0,0.4,0.3,0.7,0.3,1.1c-0.1,0.1-0.3,0.2-0.4,0.2c-1.7,0.7-3.4,1.5-5,2.2c-0.6,0.3-1.2,0.5-1.8,0.8c-0.1,0.1-0.2,0.1-0.4,0.1
		c-0.2,0-0.2-0.2-0.3-0.3c-0.9-1.1-1.8-2.2-2.7-3.2c-0.4-0.5-0.8-1-1.2-1.5C5457.9,3892.5,5457.9,3892.3,5457.7,3892.2z"/>
	<path onclick="modal(this.id);" id="636" class="st0" d="M5482.2,3902.5c0,0-0.1,0.1-0.1,0.1c-2.4,1-4.8,2-7.2,2.9c-0.2-0.1-0.2-0.3-0.2-0.4
		c-0.8-2-1.7-4-2.5-6c-0.3-0.8-0.6-1.5-0.9-2.3c0-0.1-0.1-0.2-0.1-0.3c0.1-0.1,0.3-0.2,0.4-0.2c1.6-0.7,3.1-1.4,4.7-2.1
		c0.3-0.1,0.6-0.3,0.9-0.4c0.2-0.1,0.4-0.2,0.6-0.3c0.1-0.1,0.3-0.2,0.5-0.2c0.2,0.1,0.2,0.3,0.3,0.4c0.5,1.2,1,2.3,1.5,3.5
		c0.7,1.6,1.4,3.2,2.1,4.8C5482.1,3902.1,5482.1,3902.3,5482.2,3902.5z"/>
	<path onclick="modal(this.id);" id="3202" class="st0" d="M5433.6,3873.4c0.2-0.1,0.2-0.2,0.2-0.3c0.3-1,0.6-1.9,0.9-2.9c0.1-0.5,0.3-1,0.4-1.5
		c0.1-0.2,0.1-0.4,0.3-0.5c0.4-0.3,0.7-0.6,1-0.9c0.2,0,0.2,0.2,0.3,0.3c1.2,1.4,2.3,2.8,3.5,4.2c1.1,1.3,2.2,2.6,3.3,3.9
		c0.4,0.4,0.8,0.8,1.2,1.2c0.1,0.1,0.3,0.2,0.4,0.4c-0.1,0.1-0.1,0.1-0.2,0.1c-2,0.8-4.1,1.7-6.1,2.5c-0.2,0.1-0.3,0.1-0.5,0.2
		c-0.1-0.1-0.2-0.1-0.2-0.2c-2-2.3-4-4.6-6-7c-0.1-0.1-0.1-0.1-0.2-0.2c0.2-0.2,0.4-0.4,0.6-0.5
		C5433,3872.5,5433.2,3873,5433.6,3873.4z"/>
	<path onclick="modal(this.id);" id="637" class="st0" d="M5469.9,3894.5c0.3,0.5,4.4,10.3,4.6,11.1c-0.1,0-0.1,0.1-0.2,0.1c-1.3,0.5-2.7,1-4,1.5
		c0,0-0.1,0-0.2,0c-2.6-3.1-5.2-6.2-7.8-9.4c0-0.2,0.2-0.2,0.3-0.2c1.5-0.6,2.9-1.3,4.4-1.9c0.8-0.4,1.6-0.7,2.4-1.1
		C5469.6,3894.6,5469.8,3894.6,5469.9,3894.5z"/>
	<path onclick="modal(this.id);" id="2877" class="st0" d="M5409.9,3819.1c-0.4,0-0.8,0-1.1-0.1c-0.1-0.1-0.1-0.3-0.1-0.4c-0.1-0.5-0.1-1-0.2-1.5
		c0-0.2,0-0.5-0.2-0.7c0.1-0.1,0.2-0.1,0.3-0.2c0.4-0.2,0.9-0.4,1.3-0.6c0.1-0.1,0.3-0.1,0.4-0.2c0-0.1,0-0.3-0.1-0.4
		c0,0,0.1-0.1,0.1-0.1c0.8-0.3,1.6-0.6,2.4-0.9c1-0.4,2-0.8,2.9-1.2c0.1,0,0.1,0,0.2-0.1c0.1,0.2-0.1,0.4,0,0.7
		c0.1,0,0.2,0.1,0.3,0.1c1.5,0.3,3,0.6,4.4,0.9c0.2,0,0.5,0,0.7,0.1c0.2,0,0.3,0,0.5,0.1c0.2,0.6,0.2,1.2,0.3,1.7
		c0.2,0.1,0.4,0,0.5-0.1c0.9-0.4,1.9-0.8,2.8-1.2c0.3-0.1,0.6-0.2,0.9-0.4c0.1,0,0.2-0.1,0.3-0.1c0.3,0.6,0.5,1.1,0.7,1.7
		c0,0,0,0.1,0,0.1c0,0,0,0,0,0c-2.7,1.1-5.4,2.4-8.2,3.5c-0.1,0-0.3,0.1-0.4,0.1c0,0-0.1,0-0.1,0c-0.2-0.3-0.3-0.7-0.5-1
		c-0.2-0.1-0.3,0-0.4,0.1c-0.6,0.4-1.2,0.7-1.8,1.1c-0.1,0.1-0.3,0.2-0.4,0.2c-0.3-0.3-0.4-0.6-0.6-0.9c0.3-0.3,0.8-0.3,1.1-0.5
		c0-0.1,0-0.2,0-0.2c-0.3-0.6-0.5-1.1-0.9-1.7c-0.1,0-0.2,0-0.3,0c-0.7,0.2-1.4,0.4-2.2,0.7c-0.3,0.1-0.6,0.1-0.9,0.1
		c-0.5,0-0.9,0-1.4,0c-0.1,0-0.2,0-0.4,0C5410.1,3818.4,5410,3818.7,5409.9,3819.1z"/>
	<path onclick="modal(this.id);" id="2850" class="st0" d="M5454.1,3765.2c0.2,0.3,2.2,4.8,2.3,5.3c-0.1,0.1-0.2,0.1-0.3,0.2c-1.1,0.5-2.2,0.9-3.2,1.4
		c-1.4,0.6-2.8,1.2-4.2,1.8c-0.9,0.4-1.8,0.8-2.8,1.1c-0.1,0-0.2,0.1-0.4,0.1c0-0.1-0.1-0.1-0.1-0.2c-0.7-1.4-1.5-2.9-2.2-4.3
		c0-0.1,0-0.1-0.1-0.1c0,0,0-0.1,0-0.1c0,0,0,0,0,0c3.6-1.7,7.2-3.5,10.8-5.2C5454,3765.2,5454,3765.2,5454.1,3765.2z"/>
	<path onclick="modal(this.id);" id="2866" class="st0" d="M5436.6,3793.9c1.5-0.6,3-1.2,4.4-1.8c0.2,0.5,0.4,1,0.6,1.5c0.2,0.5,0.4,1,0.6,1.4
		c0.2,0.5,0.4,1,0.6,1.5c-0.1,0.1-0.2,0.1-0.3,0.2c0,0.1,0,0.2,0,0.2c0.8,2,1.5,4,2.4,6c0.4,0.8,0.6,1.6,1,2.5
		c-0.1,0.1-0.1,0.1-0.2,0.1c-1.1,0.5-2.1,0.9-3.2,1.3c0,0-0.1,0-0.2,0c0,0-0.1-0.1-0.2-0.1c-0.5-0.5-0.9-1-1.4-1.6
		c-0.2-0.2-0.3-0.4-0.4-0.6c-0.7-1.8-1.4-3.5-2-5.3c-0.1-0.3-0.2-0.6-0.3-0.9c-0.2-0.7-0.4-1.5-0.7-2.2c-0.3-0.7-0.5-1.3-0.8-2
		C5436.7,3794.2,5436.6,3794.1,5436.6,3793.9z"/>
	<path onclick="modal(this.id);" id="2852" class="st0" d="M5422,3786.4c-0.2-0.3-1.9-4.2-2-4.6c0.1,0,0.1-0.1,0.2-0.1c2.6-1.3,5.3-2.6,7.9-3.9
		c1.4-0.7,2.8-1.4,4.3-2.1c0.1,0,0.1-0.1,0.2-0.1c0,0.1,0.1,0.1,0.1,0.2c0.6,1.3,1.1,2.6,1.6,4c0,0,0,0.1,0,0.2
		c-0.1,0-0.2,0.1-0.3,0.1c-0.5,0.2-0.9,0.4-1.4,0.6c-1.2,0.5-2.4,1-3.5,1.6c-1.1,0.5-2.2,1-3.3,1.6c-0.7,0.4-1.5,0.7-2.2,1.2
		c-0.4,0.3-0.8,0.6-1.2,0.9C5422.4,3786,5422.2,3786.2,5422,3786.4z"/>
	<path onclick="modal(this.id);" id="2868" class="st0" d="M5461.9,3783.9c0.2,0.3,2,4.8,2.1,5.2c-0.6,0.3-1.2,0.5-1.7,0.7c-0.6,0.2-1.2,0.4-1.8,0.7
		c-0.6,0.2-1.2,0.4-1.8,0.7c0.1,0.4,0.3,0.7,0.4,1c-0.5,0.3-0.9,0.4-1.4,0.6c-0.5,0.2-0.9,0.4-1.4,0.6c-0.2-0.3-0.2-0.6-0.5-0.9
		c-0.1,0-0.1,0-0.2,0c-0.1,0-0.2,0.1-0.3,0.1c-0.6,0.3-1.2,0.4-1.8,0.5c-0.3,0-0.6,0.1-0.9,0.1c-0.1,0-0.1,0-0.2,0
		c0-0.1,0-0.2,0-0.3c0-0.5-0.1-1-0.2-1.4c0-0.1,0-0.1,0-0.2c-0.1-0.3,0-0.5,0.2-0.7c1.2-1.3,2.3-2.6,3.5-4c0.5-0.5,1.1-0.9,1.7-1.2
		c1.4-0.5,2.9-1,4.3-1.5C5461.8,3783.9,5461.8,3783.9,5461.9,3783.9z"/>
	<path onclick="modal(this.id);" id="2845" class="st0" d="M5450.7,3762.3c0.3,0.4,1.2,2.5,1.5,3.4c-0.1,0-0.1,0.1-0.2,0.1c-3.6,1.7-7.2,3.5-10.8,5.2
		c-0.6,0.3-1.2,0.6-1.8,0.9c-0.1,0.1-0.2,0.1-0.3,0.1c0-0.1-0.1-0.1-0.1-0.2c-0.5-1.3-1-2.5-1.5-3.8c0,0,0-0.1,0-0.1
		c0.1,0,0.1-0.1,0.2-0.1c2.1-1,4.2-2,6.3-3c0.9-0.4,1.9-0.8,2.9-1.1c0.8-0.3,1.6-0.6,2.4-0.8
		C5449.8,3762.7,5450.3,3762.5,5450.7,3762.3z"/>
	<path onclick="modal(this.id);" id="2883" class="st0" d="M5481.6,3810.6c-0.1-0.6-0.2-1.1-0.3-1.6c0-0.2-0.1-0.4-0.1-0.7c-0.1-0.4-0.2-0.7-0.3-1
		c-0.7-1.5-1.3-3-2-4.6c0-0.1-0.1-0.2-0.1-0.3c0,0,0.1-0.1,0.1-0.1c1.4-0.6,2.9-1.2,4.3-1.7c0.5-0.2,0.9-0.3,1.4-0.5
		c0,0.1,0.1,0.1,0.1,0.2c0.8,2,1.6,4.1,2.4,6.1c0.3,0.6,0.5,1.3,0.8,1.9c0.1,0.2,0.1,0.3,0.2,0.5c-0.8,0.4-1.6,0.9-2.4,1.3
		c-0.1,0.1-0.3,0.1-0.4,0.1c-1,0.1-2,0.2-3,0.3C5482.1,3810.6,5481.9,3810.6,5481.6,3810.6z"/>
	<path onclick="modal(this.id);" id="2881" class="st0" d="M5468.8,3800.1c-0.5-1.2-1-2.4-1.5-3.6c0.1-0.2,0.2-0.2,0.3-0.2c1.3-0.5,2.6-1.1,3.9-1.6
		c2-0.9,4-1.7,6.1-2.6c1-0.5,2.1-0.9,3.1-1.4c0.1,0,0.1,0,0.2-0.1c0.2,0.3,0.6,1.4,0.7,1.9c-0.1,0.1-0.2,0.1-0.3,0.2
		c-0.3,0.1-0.5,0.2-0.8,0.4c-0.1,0-0.1,0.1-0.2,0.2c0.2,0.6,0.5,1.2,0.8,1.9c-0.3,0.2-0.7,0.4-1,0.5c-0.3,0.2-0.7,0.3-1,0.4
		c-0.4,0.2-0.8,0.4-1.2,0.5c-0.4,0.2-0.7,0.3-1.1,0.4c-0.6,0.3-1.3,0.5-1.9,0.8c-1.9,0.8-3.8,1.5-5.6,2.3
		C5469.1,3800,5469,3800,5468.8,3800.1z"/>
	<path onclick="modal(this.id);" id="2867" class="st0" d="M5442.8,3796.8c0.2-0.1,0.3-0.1,0.5-0.2c1.1-0.4,2.1-0.9,3.1-1.4c0.2-0.1,0.4-0.2,0.6-0.4
		c0.8-0.5,1.6-1.1,2.3-1.8c0.7-0.6,1.4-1.2,2-1.7c0.1-0.1,0.2-0.1,0.3-0.2c0.2,0.2,0.2,0.5,0.2,0.7c0.1,0.2,0.1,0.5,0.1,0.8
		c0,0.3,0.1,0.5,0.1,0.8c0.1,0,0.2,0,0.2,0c0.6-0.1,1.3-0.1,1.9-0.2c0.3,0,0.5-0.1,0.7-0.2c0.2-0.1,0.5-0.2,0.7-0.3
		c0.2,0.4,0.3,0.8,0.5,1.2c0.2,0.4,0.4,0.8,0.5,1.2c0.2,0.4,0.3,0.8,0.5,1.2c-0.1,0.2-0.3,0.2-0.4,0.3c-0.4,0.2-0.9,0.3-1.4,0.5
		c-0.3,0.1-0.7,0.1-1.1,0.1c-0.6,0.1-1.3,0.1-1.9,0.2c-0.2,0-0.4,0.1-0.6,0.2c-0.5,0.2-1,0.4-1.5,0.6c-0.1,0-0.2,0.1-0.3,0.1
		c-0.1-0.1-0.1-0.2-0.1-0.3c-0.1-0.2-0.2-0.4-0.2-0.6c-0.1,0-0.1,0-0.2,0c-0.9,0.4-1.7,0.7-2.6,1.1c-0.1,0-0.1,0.1-0.2,0.1
		c0,0.3,0.2,0.6,0.3,1c0,0-0.1,0-0.1,0.1c-0.8,0.3-1.6,0.6-2.4,0.9c-0.1,0-0.2,0-0.3,0.1c0-0.1-0.1-0.1-0.1-0.2
		c-0.5-1.2-0.9-2.3-1.4-3.5C5442.8,3796.9,5442.8,3796.9,5442.8,3796.8z"/>
	<path onclick="modal(this.id);" id="3195" class="st0" d="M5416.5,3854.2c0.1,0,0.1-0.1,0.2-0.1c0.2-0.1,0.3-0.2,0.5-0.4c1.4-1.1,2.8-2.2,4.2-3.4
		c0.2-0.2,0.4-0.3,0.6-0.3c0.1,0,0.2,0.2,0.3,0.3c1.4,1.6,2.8,3.3,4.1,4.9c0.4,0.4,0.7,0.9,1.1,1.3c-0.4,0.4-0.7,0.7-1.1,1
		c-0.1-0.1-0.2-0.2-0.3-0.3c-0.3-0.4-0.6-0.8-1-1.1c-0.1-0.1-0.1-0.2-0.3-0.2c-0.1,0.1-0.1,0.2-0.2,0.4c-0.4,1.4-0.8,2.8-1.2,4.1
		c0,0.1-0.1,0.2-0.1,0.3c0,0.1-0.1,0.2-0.1,0.2c-0.2,0.2-0.4,0.3-0.6,0.5c-0.1-0.1-0.2-0.2-0.3-0.3c-1.7-2-3.3-4-5-6
		c-0.2-0.3-0.4-0.5-0.6-0.8C5416.7,3854.4,5416.6,3854.3,5416.5,3854.2z"/>
	<path onclick="modal(this.id);" id="2878" class="st0" d="M5415.8,3825c-0.3-0.4-0.6-0.8-0.8-1.2c0.1-0.1,0.1-0.1,0.2-0.2c0.4-0.3,0.9-0.5,1.3-0.8
		c0.2-0.1,0.3-0.2,0.5-0.3c0-0.1-0.1-0.2-0.1-0.3c-0.2-0.3-0.5-0.7-0.7-1c-0.1-0.1-0.2-0.3-0.3-0.4c0.3-0.2,1.5-1,2.2-1.4
		c0,0.1,0.1,0.1,0.1,0.2c0.1,0.2,0.2,0.5,0.4,0.7c0.1,0.1,0.1,0.2,0.3,0.1c0.2-0.1,0.5-0.2,0.7-0.3c2-0.8,4-1.7,6-2.5
		c0.6-0.3,1.2-0.5,1.8-0.8c0.1,0,0.2-0.1,0.3-0.1c0.2,0.3,0.3,0.7,0.5,1.1c0.1,0.1,0.3,0,0.4,0c0.8-0.3,1.6-0.7,2.4-1
		c0.9-0.4,1.8-0.7,2.6-1.1c0.1,0,0.1-0.1,0.2-0.1c0.2,0.3,0.3,0.7,0.5,1c0.2,0.3,0.3,0.7,0.4,1c-0.1,0.1-0.2,0.1-0.3,0.2
		c-0.9,0.4-1.9,0.8-2.8,1.2c-0.2,0.1-0.4,0.2-0.6,0.2c-1.4,0.4-2.7,0.8-4.1,1.2c-0.8,0.2-1.6,0.5-2.5,0.8c-0.2,0.1-0.3,0.1-0.5,0.2
		c-2.5,1.1-5,2.2-7.5,3.3C5416.2,3824.8,5416,3824.9,5415.8,3825z"/>
	<path onclick="modal(this.id);" id="2869" class="st0" d="M5464.8,3790.2c-0.2-0.3-2.2-5.2-2.4-5.9c0.1,0,0.2-0.1,0.3-0.1c0.3-0.1,0.7-0.3,1-0.4
		c0.1,0,0.2-0.1,0.2-0.1c-0.1-0.4-0.3-0.7-0.4-1.1c1.6-0.7,3.2-1.4,4.8-2.1c0.1,0.1,0.1,0.2,0.2,0.3c0.2,0.5,0.4,1,0.6,1.5
		c0,0.1,0.1,0.2,0.1,0.3c0.4,0.1,0.6-0.2,0.9-0.2c0,0,0,0,0.1,0c0,0,0,0,0,0c0.6,1.6,1.3,3.1,1.9,4.7c0,0,0,0.1,0,0.1
		c-0.1,0-0.2,0.1-0.3,0.2c-1.8,0.8-3.6,1.5-5.4,2.3c-0.4,0.2-0.9,0.4-1.3,0.6C5465,3790.1,5464.9,3790.1,5464.8,3790.2z"/>
	<path onclick="modal(this.id);" id="2859" class="st0" d="M5462.3,3784c-0.5-1.4-1.1-2.7-1.6-3.9c0.1-0.2,0.3-0.2,0.4-0.2c1.9-0.8,3.9-1.7,5.8-2.5
		c0.1,0,0.2-0.1,0.3-0.1c0-0.4-0.2-0.7-0.2-1.1c0.6-0.3,1.3-0.5,2-0.8c0.7-0.3,1.3-0.5,2-0.8c0.7-0.3,1.3-0.6,2-0.9
		c0.2,0.3,0.3,0.6,0.5,0.9c0.4,0,0.7-0.3,1-0.3c0,0,0.1,0.1,0.1,0.1c0.4,0.9,0.7,1.8,1,2.7c0,0,0,0.1,0,0.2
		c-2.1,0.9-4.1,1.7-6.2,2.6c-2.1,0.9-4.1,1.7-6.2,2.6c0,0.1,0,0.2,0.1,0.3c0.1,0.2,0.2,0.4,0.2,0.6c0,0.1,0,0.2,0.1,0.3
		C5463.2,3783.7,5462.7,3783.8,5462.3,3784z"/>
	<path onclick="modal(this.id);" id="2851" class="st0" d="M5442.8,3770.6c0.3,0.5,1.9,3.7,2.4,4.7c0,0.2-0.2,0.2-0.3,0.2c-1.2,0.5-2.5,1-3.7,1.5
		c-1.3,0.5-2.5,1-3.8,1.6c-0.7,0.3-1.4,0.6-2.2,0.9c-0.1,0.1-0.3,0.1-0.4,0.2c-0.2-0.5-0.4-1-0.6-1.4c-0.2-0.5-0.4-1-0.6-1.5
		c-0.2-0.5-0.4-0.9-0.6-1.4c0.1-0.1,0.1-0.1,0.2-0.1C5436.3,3773.7,5439.5,3772.2,5442.8,3770.6z"/>
	<path onclick="modal(this.id);" id="628" class="st0" d="M5471.1,3896.2c-0.2-0.3-1.1-2.3-1.3-2.9c0.4-0.2,0.8-0.4,1.2-0.6c0.4-0.2,0.8-0.4,1.2-0.5
		c0.1-0.2,0-0.4-0.1-0.5c-0.4-1-0.8-2-1.2-2.9c-0.2-0.6-0.5-1.1-0.7-1.7c0-0.1-0.1-0.2-0.1-0.3c0.1-0.1,0.1-0.1,0.2-0.1
		c0.1-0.1,0.3-0.1,0.5-0.2c0.5-0.3,1.1-0.5,1.6-0.8c0.7-0.3,1.4-0.6,2.1-0.9c0.1,0,0.1,0,0.2,0c0,0.1,0.1,0.1,0.1,0.2
		c0.2,0.5,0.5,1,0.6,1.6c0,0.2,0.1,0.3,0.2,0.5c0.8,1.8,1.6,3.7,2.4,5.5c0.1,0.1,0.1,0.3,0.2,0.4c-0.1,0.1-0.2,0.1-0.3,0.2
		c-0.2,0.1-0.5,0.2-0.7,0.4c0,0.1-0.1,0.1-0.2,0.1c-1.9,0.9-3.8,1.7-5.7,2.6C5471.2,3896.2,5471.1,3896.2,5471.1,3896.2z
		 M5474.5,3891.1C5474.6,3891,5474.6,3891,5474.5,3891.1c0.1-0.1,0.1-0.1,0.1-0.1C5474.6,3891,5474.5,3891,5474.5,3891.1
		C5474.5,3891,5474.5,3891,5474.5,3891.1z"/>
	<path onclick="modal(this.id);" id="640" class="st0" d="M5438.3,3912.5c0.2-0.1,0.3-0.3,0.4-0.5c0.1-0.3,0.2-0.7,0.3-1c0.1-0.1,0.2-0.1,0.4-0.2
		c1.5-0.6,3-1.2,4.4-1.7c0.3-0.1,0.7-0.2,1-0.2c0.5,0.1,1,0.1,1.5,0.1c0.1,0.3,0.3,0.5,0.4,0.8c0.1,0.3,0.3,0.5,0.6,0.6
		c0.1,0,0.2,0.1,0.2,0.1c0.2,0.2,0.5,0.2,0.8,0.2c0.7,0.1,1.4,0.2,2.1,0.3c0.5,0.1,1,0.1,1.4,0.2c0.3,0,0.7,0.1,1,0.1
		c0.1,0,0.1,0,0.2,0.1c-0.2,0.2-0.5,0.3-0.7,0.4c-1.3,0.5-2.6,0.9-3.9,1.4c-1,0.4-2.1,0.8-3.1,1.2c-0.1,0-0.2,0.1-0.3,0.1
		c-0.2,0.1-0.2,0.2-0.2,0.3c-0.4,0.1-4.7,0.9-5.3,0.9C5439.5,3915.5,5438.6,3913.4,5438.3,3912.5z"/>
	<path onclick="modal(this.id);" id="2870" class="st0" d="M5475.8,3777.4c0.9,2.4,1.9,4.7,2.8,7c-0.1,0.2-0.3,0.2-0.4,0.3c-1.4,0.6-2.7,1.1-4.1,1.7
		c-0.5,0.2-1,0.4-1.6,0.6c-0.1-0.1-0.1-0.2-0.2-0.3c-0.6-1.4-1.2-2.9-1.7-4.3c-0.1-0.1-0.1-0.3-0.2-0.4c-0.3,0-0.6,0.2-0.9,0.3
		c-0.2-0.3-0.7-1.3-0.8-1.9C5469,3780.1,5475.3,3777.5,5475.8,3777.4z"/>
	<path onclick="modal(this.id);" id="652" class="st0" d="M5473.3,3911c-1-1.2-1.9-2.3-2.9-3.5c0.1-0.1,0.2-0.1,0.3-0.1c1.2-0.4,2.3-0.9,3.5-1.3
		c1.7-0.6,3.3-1.3,5-2c0.9-0.4,1.8-0.7,2.7-1.1c0.1-0.1,0.3-0.1,0.4-0.2c0.2,0.3,1.1,2.3,1.7,4c-0.1,0.2-0.2,0.2-0.3,0.2
		c-1.3,0.5-2.7,1.1-4,1.6c-2,0.8-4,1.6-6,2.4C5473.6,3910.9,5473.5,3910.9,5473.3,3911z"/>
	<path onclick="modal(this.id);" id="2856" class="st0" d="M5450,3773.6c0,0.2,0,0.3,0,0.4c0,0.6,0,1.3,0,1.9c0,0.1,0,0.1,0,0.2c-0.1,0.8-0.3,1.6-0.5,2.4
		c-0.1,0.2-0.1,0.4-0.3,0.5c-0.3,0.4-0.6,0.9-1,1.3c-0.2,0.3-0.5,0.6-0.7,0.9c-0.3,0.4-0.7,0.7-1,1.1c-0.3-0.4-0.4-0.8-0.6-1.2
		c-0.2-0.4-0.2-0.8-0.3-1.3c0-0.4,0-0.9,0-1.3c-0.2-0.1-0.3,0-0.4,0c-0.7,0.3-1.3,0.5-2,0.8c-0.4,0.2-0.9,0.3-1.3,0.5
		c-0.1,0.1-0.3,0.1-0.4,0.2c-1.2,0.5-2.5,1.1-3.7,1.6c-0.1,0.1-0.3,0.1-0.5,0.2c-0.3-0.8-0.6-1.6-0.9-2.4c0.1,0,0.1-0.1,0.1-0.1
		c1.3-0.6,2.7-1.2,4.1-1.8c2.7-1.1,5.4-2.2,8.1-3.4c0.4-0.2,0.7-0.3,1.1-0.5C5449.8,3773.6,5449.9,3773.6,5450,3773.6z"/>
	<path onclick="modal(this.id);" id="2865" class="st0" d="M5440,3807c-0.1,0-0.1,0-0.2,0c-0.4,0-0.8,0.1-1.2,0.3c-2,0.9-4,1.7-6,2.6
		c-0.1,0-0.2,0.1-0.3,0.1c-0.1-0.1-0.1-0.2-0.1-0.3c-0.2-0.5-0.4-1-0.6-1.6c-0.3-1-0.8-1.9-1.2-2.8c0-0.1-0.1-0.2-0.1-0.3
		c0.1,0,0.1-0.1,0.2-0.1c2-0.9,4-1.8,6-2.5c0.5-0.2,1-0.4,1.5-0.7c0.3-0.1,0.6-0.3,0.9-0.4c0.1,0.1,0.1,0.2,0.2,0.3
		c0.3,0.9,0.7,1.7,1,2.6c0.2,0.4,0.3,0.8,0.6,1.1C5440.6,3805.8,5440.3,3806.7,5440,3807z"/>
	<path onclick="modal(this.id);" id="3187" class="st0" d="M5411.3,3843.6c-0.8,0.8-1.7,1.4-2.7,2c-0.1-0.1-0.2-0.3-0.3-0.4c-1.1-1.3-2.1-2.7-3.2-4
		c-0.4-0.5-0.9-1.1-1.3-1.6c0,0-0.1-0.1-0.1-0.2c0.2-0.3,0.4-0.6,0.8-0.6c0.4,0,0.8-0.1,1.2-0.2c0.3-0.9,0.6-1.9,0.9-2.8
		c0.3,0,0.6,0.2,0.9,0.2c0,0,0.1-0.1,0.1-0.1c0-0.4,0.3-0.6,0.6-0.8c0.3-0.2,0.6-0.5,0.9-0.7c0.4,0.4,0.6,0.8,1,1.2
		c0.3,0.4,0.6,0.8,1,1.1c0.3,0.4,0.7,0.8,1,1.2c-0.1,0.1-0.1,0.2-0.2,0.2c-0.3,0.3-0.5,0.5-0.8,0.8c-0.1,0.1-0.2,0.3-0.3,0.4
		c-0.3,0.7-0.4,1.4-0.3,2.1c0.1,0.6,0.2,1.1,0.5,1.7C5411,3843.2,5411.1,3843.4,5411.3,3843.6z"/>
	<path onclick="modal(this.id);" id="2860" class="st0" d="M5454.1,3779.5C5454.1,3779.6,5454.1,3779.6,5454.1,3779.5
		C5454.2,3779.6,5454.2,3779.6,5454.1,3779.5c0.1,0.1,0.1,0.1,0.1,0.1c0,0.1,0.1,0.2,0.1,0.3c0.6,1.9,1.3,3.8,2.1,5.6
		c-0.1,0.1-0.2,0.2-0.3,0.3c-0.4,0.3-0.7,0.6-1,0.9c-1,1.1-2,2.3-3,3.4c-0.1,0.1-0.2,0.2-0.3,0.3c-0.1-0.1-0.1-0.2-0.2-0.4
		c-0.3-0.8-0.7-1.6-1.1-2.4c-0.1-0.1-0.1-0.2-0.2-0.3c-0.2,0-0.3,0.1-0.3,0.2c-0.5,0.5-0.9,1-1.4,1.5c-0.6,0.6-1.2,1.1-1.8,1.6
		c-0.4-0.5-0.8-1.1-1.2-1.7c0.1-0.1,0.2-0.1,0.3-0.2c0.9-0.8,1.8-1.7,2.8-2.5c0.3-0.3,0.5-0.5,0.8-0.8c1.2-1.4,2.4-2.8,3.5-4.2
		c0.4-0.5,0.7-1,1-1.5C5454,3779.7,5454,3779.6,5454.1,3779.5z"/>
	<path onclick="modal(this.id);" id="2901" class="st0" d="M5459,3833.8c0.2,0,0.3-0.1,0.5-0.1c0.1,0.2,0.2,0.4,0.3,0.6c-0.3,0.2-2.3,1.1-2.8,1.2
		c-0.2-0.2-0.3-0.6-0.4-0.8c-0.4,0-0.6,0.2-0.9,0.3c-0.3,0.1-0.6,0.3-0.9,0.4c-0.2-0.1-0.2-0.3-0.2-0.4c-0.6-1.4-1.2-2.9-1.8-4.3
		c-0.1-0.3-0.2-0.6-0.4-0.9c0.3-0.2,0.6-0.2,0.9-0.5c0-0.1,0-0.2,0-0.2c-0.3-0.7-0.6-1.4-0.9-2.1c-0.2,0-0.3,0.1-0.4,0.1
		c-0.2-0.2-0.3-0.6-0.5-1.1c0.1-0.2,0.2-0.2,0.4-0.2c1-0.4,2-0.7,3-1.2c0.2-0.1,0.4-0.1,0.5-0.3c0.1-0.1,0.2-0.1,0.3-0.2
		c0.2,0.2,0.5,0.9,0.5,1.2c-0.1,0.1-0.2,0.2-0.4,0.2c-0.1,0.2,0,0.3,0.1,0.4c0.5,1.3,1,2.5,1.5,3.8c0.5,1.3,1.1,2.6,1.6,3.8
		C5458.9,3833.6,5459,3833.7,5459,3833.8z"/>
	<path onclick="modal(this.id);" id="2892" class="st0" d="M5440.7,3830.4c-0.2-0.3-2.2-4.9-2.3-5.4c0.1-0.1,0.2-0.2,0.4-0.2c0.2,0,0.4-0.1,0.6-0.1
		c1.6-0.7,3.1-1.3,4.7-2c0.3-0.1,0.6-0.3,0.9-0.4c0.1,0.1,0.1,0.2,0.2,0.3c0.2,0.6,0.5,1.2,0.7,1.8c0.1,0.1,0.1,0.2,0.2,0.4
		c0.1,0,0.3-0.1,0.4-0.1c0.4-0.2,0.8-0.3,1.3-0.5c0.1,0,0.2-0.1,0.3-0.1c0.4,0.9,0.7,1.7,1.1,2.6c-0.1,0.2-0.2,0.2-0.3,0.2
		c-0.8,0.3-1.5,0.7-2.3,1c-0.4,0.2-0.7,0.3-1.1,0.4c-0.6,0.2-1.2,0.5-1.8,0.7c-0.6,0.3-1.2,0.5-1.9,0.8
		C5441.3,3830.1,5441,3830.2,5440.7,3830.4z"/>
	<path onclick="modal(this.id);" id="2872" class="st0" d="M5464.9,3790.5c0.6-0.3,9-3.8,9.6-4c0.2,0.2,0.2,0.4,0.3,0.7c-0.1,0.1-0.2,0.1-0.3,0.2
		c-0.8,0.3-1.6,0.7-2.4,1c-0.1,0.1-0.3,0.1-0.4,0.3c0.3,0.8,0.6,1.6,0.9,2.4c0.3,0.8,0.6,1.6,1,2.4c-0.1,0.2-0.3,0.2-0.4,0.2
		c-1.5,0.6-3,1.2-4.4,1.8c-0.4,0.2-0.9,0.4-1.3,0.6c-0.1,0-0.2,0.1-0.2,0.1C5467,3795.8,5465.1,3791,5464.9,3790.5z"/>
	<path onclick="modal(this.id);" id="2864" class="st0" d="M5438.8,3801.2c-0.8,0.3-1.5,0.7-2.2,1c-0.7,0.3-1.5,0.6-2.2,0.9c-0.7,0.3-1.4,0.6-2.2,0.9
		c-0.7,0.3-1.4,0.6-2.2,0.9c-0.1-0.1-0.1-0.2-0.1-0.2c-0.2-0.5-0.4-1-0.6-1.5c-0.1-0.3-0.2-0.5-0.4-0.8c-0.6-0.8-1-1.7-1.3-2.6
		c-0.1-0.2-0.3-0.5-0.3-0.8c0.9-0.5,1.9-0.8,2.9-1.2c0.2,0.1,0.2,0.3,0.3,0.4c0.2,0.5,0.5,1,0.7,1.6c0.1,0.1,0.1,0.2,0.2,0.3
		c0.1,0,0.1,0,0.2,0c1.3-0.5,2.5-1,3.8-1.6c0.5-0.2,1-0.5,1.4-0.7c0.2-0.1,0.5-0.2,0.8-0.3c0,0,0.1,0,0.1,0c0,0,0,0.1,0.1,0.1
		C5438,3798.9,5438.4,3800,5438.8,3801.2z"/>
	<path onclick="modal(this.id);" id="3184" class="st0" d="M5405.6,3829.5c-0.5,0.3-1.1,0.4-1.6,0.6c-0.1,0.3,0.1,0.5,0.2,0.8c0.1,0.3,0.2,0.5,0.3,0.8
		c-0.1,0-0.3,0-0.4,0c0,0.1-0.1,0.2-0.1,0.3c-0.3,1-0.6,2.1-0.9,3.1c0,0.1-0.1,0.3-0.1,0.4c-0.3,0.1-0.7,0.1-1,0.2
		c-0.2,0-0.4,0.1-0.6,0.2c-0.1,0.1-0.3,0.1-0.5,0.2c-0.1,0-0.2-0.2-0.3-0.3c-1-1.2-2-2.4-2.9-3.6c-0.1-0.2-0.3-0.3-0.4-0.4
		c-0.3-0.2-0.6-0.5-0.8-0.9c0.1-0.1,0.2-0.1,0.2-0.2c2.3-1.5,4.6-2.9,6.9-4.4c0.1-0.1,0.2-0.1,0.3-0.2c0.2,0.3,0.4,0.7,0.5,1.1
		c0.2,0.4,0.3,0.7,0.5,1.1C5405.3,3828.8,5405.5,3829.2,5405.6,3829.5z"/>
	<path onclick="modal(this.id);" id="2900" class="st0" d="M5459.7,3833.4c-0.2,0-0.3,0.1-0.5,0.1c-0.2-0.1-0.2-0.2-0.2-0.3c-0.4-0.9-0.7-1.8-1.1-2.7
		c-0.6-1.5-1.2-2.9-1.8-4.4c-0.1-0.1-0.1-0.3-0.2-0.4c0.2-0.1,0.4-0.3,0.6-0.4c0-0.1,0-0.1,0-0.1c-0.2-0.1-0.3-0.2-0.4-0.4
		c-0.1-0.3-0.2-0.5-0.3-0.8c0.3-0.2,0.7-0.4,1-0.5c0.3-0.2,0.7-0.3,1-0.5c0.3-0.2,0.7-0.4,1-0.5c0.2,0.4,1.3,2.4,1.4,2.8
		c-0.3,0.1-0.6,0.3-0.9,0.4c0,0.1,0,0.2,0,0.2c0.2,0.6,0.5,1.2,0.7,1.4c0.3,0,0.6-0.2,0.9-0.2c0.3,0.6,0.6,1.2,0.9,1.8
		c0.3,0.6,0.6,1.2,0.9,1.8c0.3,0.6,0.6,1.2,0.9,1.9c-0.3,0.2-3.2,1.4-3.7,1.6C5459.9,3833.9,5459.8,3833.7,5459.7,3833.4z"/>
	<path onclick="modal(this.id);" id="3193" class="st0" d="M5416.3,3854c-0.2-0.2-0.3-0.3-0.4-0.5c-2-2.4-4-4.8-6-7.2c-0.2-0.2-0.4-0.4-0.7-0.5
		c-0.1,0-0.2-0.1-0.3-0.1c0.4-0.4,0.9-0.6,1.3-0.9c0.4-0.3,0.8-0.6,1.2-0.9c0.2,0.1,0.2,0.2,0.3,0.4c1,1.5,2,3.1,3,4.6
		c0.2,0.3,0.4,0.7,0.6,1c0.1,0.1,0.1,0.2,0.2,0.3c0.1,0,0.1,0,0.2,0c0.4-0.2,0.7-0.5,0.8-1c0-0.3,0.2-0.7,0.3-1
		c0-0.1,0.1-0.2,0.2-0.3c0.6-0.5,1.3-1.1,2-1.6c0.4,0.3,0.6,0.7,0.9,1.1c0.3,0.4,0.6,0.8,1,1.1c0.3,0.4,0.6,0.7,0.9,1.1
		c-0.6,0.3-1.1,0.8-1.6,1.3c-0.5,0.4-1.1,0.8-1.6,1.3c-0.6,0.5-1.2,0.9-1.8,1.4C5416.7,3853.7,5416.5,3853.8,5416.3,3854z"/>
	<path onclick="modal(this.id);" id="2873" class="st0" d="M5461.9,3798.6c-0.1-0.3-0.2-0.5-0.3-0.7c-0.7-1.8-1.4-3.5-2.1-5.3c-0.1-0.3-0.3-0.6-0.4-1
		c0-0.1-0.1-0.2-0.1-0.3c0.6-0.3,1.1-0.5,1.7-0.7c0.6-0.2,1.1-0.4,1.7-0.6c0.6-0.2,1.1-0.5,1.7-0.7c0.2,0,0.2,0.2,0.2,0.3
		c0.4,0.9,0.7,1.8,1.1,2.7c0.5,1.2,1,2.5,1.5,3.7c0,0.1,0.1,0.2,0.1,0.3C5466.7,3796.6,5462.7,3798.4,5461.9,3798.6z"/>
	<path onclick="modal(this.id);" id="2882" class="st0" d="M5481.5,3795.1c-0.1-0.4-0.2-0.7-0.4-1c-0.1-0.3-0.3-0.6-0.4-0.9c0.3-0.2,0.7-0.3,1-0.5
		c0.2,0.1,0.2,0.3,0.3,0.4c0.6,1.4,1.1,2.8,1.6,4.2c0.3,0.7,0.5,1.3,0.8,2c0,0.1,0.1,0.2,0.1,0.3c-0.3,0.2-6.5,2.6-6.9,2.7
		c-0.2-0.4-0.4-0.8-0.5-1.2c-0.2-0.4-0.3-0.8-0.5-1.2c-0.2-0.4-0.3-0.8-0.5-1.2c-0.2-0.4-0.3-0.8-0.5-1.2c1-0.5,2-0.8,2.9-1.2
		C5479.5,3796,5480.5,3795.7,5481.5,3795.1z"/>
	<path onclick="modal(this.id);" id="2862" class="st0" d="M5450.3,3787.8c0.4,0.5,1.1,2.1,1.4,2.9c0,0.1-0.2,0.2-0.3,0.3c-0.8,0.7-1.7,1.4-2.5,2.1
		c-0.7,0.6-1.5,1.1-2.3,1.7c-0.2,0.2-0.5,0.3-0.7,0.4c-0.8,0.4-1.7,0.8-2.6,1.1c-0.1,0-0.1,0-0.2,0.1c0-0.1-0.1-0.1-0.1-0.1
		c-0.5-1.3-1.1-2.7-1.6-4c0-0.1,0-0.1-0.1-0.2c0.7-0.4,1.4-0.9,2.1-1.4c0.6-0.5,1.3-1,2-1.5c0.1,0.1,0.1,0.2,0.2,0.3
		c0.3,0.4,0.6,0.8,0.8,1.2c0,0.1,0.1,0.1,0.1,0.2c0.1,0.1,0.2,0.2,0.3,0.1c0.1-0.1,0.3-0.2,0.4-0.3c1-0.8,1.9-1.7,2.8-2.6
		C5450.1,3787.9,5450.2,3787.8,5450.3,3787.8z"/>
	<path onclick="modal(this.id);" id="2871" class="st0" d="M5478.7,3784.8c0.7,1.8,1.4,3.6,2.1,5.5c-0.1,0.1-0.2,0.1-0.4,0.2c-2.1,0.9-4.2,1.9-6.3,2.8
		c-0.1,0-0.1,0-0.2,0.1c-0.2-0.3-1.7-4-1.9-4.6c0.1,0,0.2-0.1,0.3-0.1c0.8-0.3,1.6-0.7,2.4-1c0.1-0.1,0.3-0.1,0.4-0.2
		c-0.1-0.3-0.3-0.6-0.3-0.9C5475.1,3786.2,5478.2,3784.9,5478.7,3784.8z"/>
	<path onclick="modal(this.id);" id="2874" class="st0" d="M5459.2,3792.5c0.4,1,0.8,2.1,1.2,3.1c0.4,1,0.8,2,1.2,3.1c-0.1,0.1-0.2,0.1-0.4,0.2
		c-2.3,1-4.6,2-7,3c-0.2,0.1-0.5,0.2-0.8,0.3c0-0.1-0.1-0.1-0.1-0.2c-0.3-1-0.6-2-0.6-3c0-0.3-0.1-0.7-0.1-1c0-0.1,0-0.2,0-0.3
		c0,0,0.1-0.1,0.1-0.1c0.3,0,0.6-0.1,0.9-0.1c0.5,0,0.9-0.1,1.4-0.1c0.8-0.1,1.5-0.3,2.2-0.7c0.1,0,0.1-0.1,0.2-0.1
		c-0.1-0.5-0.3-1-0.5-1.4c-0.2-0.5-0.4-0.9-0.6-1.4C5456.6,3793.5,5458.7,3792.6,5459.2,3792.5z"/>
	<path onclick="modal(this.id);" id="3189" class="st0" d="M5412.1,3838.1c0.3,0.3,6.4,7.6,6.6,8c-0.1,0.1-0.2,0.2-0.4,0.3c-0.5,0.4-1,0.8-1.5,1.2
		c-0.2,0.1-0.3,0.3-0.3,0.5c-0.1,0.4-0.2,0.8-0.3,1.1c-0.1,0.3-0.3,0.5-0.6,0.7c0,0-0.1-0.1-0.1-0.1c-1.3-2-2.5-3.9-3.8-5.9
		c-0.3-0.4-0.5-0.8-0.7-1.2c-0.2-0.4-0.4-0.9-0.4-1.3c-0.1-0.6,0-1.3,0.3-1.9c0.1-0.2,0.2-0.3,0.3-0.5
		C5411.5,3838.7,5411.8,3838.4,5412.1,3838.1z"/>
	<path onclick="modal(this.id);" id="2889" class="st0" d="M5455.8,3809.2c0,0.1,0.1,0.2,0.1,0.3c0.1,0.4,0.1,0.7,0.2,1.1c0.1,0.3,0,0.5-0.1,0.7
		c-0.3,0.5-0.6,0.9-1,1.3c-0.1,0.1-0.2,0.2-0.3,0.3c-0.2,0.1-0.3,0.2-0.5,0.4c0,0.5,0,0.9,0,1.4c0,0.8,0,1.5,0,2.3c0,0.3,0,0.7,0,1
		c0,0.3-0.1,0.4-0.4,0.5c-0.5,0.2-0.9,0.4-1.4,0.5c-1,0.4-2,0.8-2.9,1.2c-0.1,0.1-0.3,0.1-0.4,0.2c0-0.1,0-0.2,0-0.3
		c0-0.8,0-1.5,0-2.3c0-0.7,0-1.4,0-2.2c0-0.4,0-0.8,0-1.2c0-0.1,0-0.2,0-0.3c0.1-0.5,0.3-1.1,0.4-1.6c0.1,0,0.2,0,0.3,0
		c0.4,0,0.8,0,1.2,0c0.2,0,0.4,0,0.5-0.1c0,0,0.1,0,0.1,0c0.6-0.3,1.2-0.4,1.7-0.8c0.5-0.4,1-0.8,1.4-1.3c0.3-0.3,0.6-0.6,0.9-0.9
		C5455.6,3809.3,5455.7,3809.3,5455.8,3809.2z"/>
	<path onclick="modal(this.id);" id="2875" class="st0" d="M5446.2,3805.3c-0.6-1.4-1.1-2.7-1.7-4.1c0-0.1-0.1-0.2-0.1-0.3c0.1,0,0.2-0.1,0.2-0.1
		c0.8-0.3,1.7-0.6,2.5-1c0.2-0.1,0.2-0.2,0.2-0.4c-0.1-0.2-0.2-0.4-0.3-0.7c0.1,0,0.1-0.1,0.2-0.1c0.7-0.3,1.4-0.6,2-0.9
		c0.1,0,0.1,0,0.2-0.1c0.2,0.3,0.2,0.6,0.4,0.9c0.1,0,0.2,0,0.3-0.1c0.6-0.2,1.1-0.5,1.7-0.7c0.1-0.1,0.3-0.1,0.4-0.1
		c0,0.1,0.1,0.2,0.1,0.3c0.1,0.4,0.1,0.7,0.1,1.1c0.1,0.9,0.2,1.8,0.5,2.7c0.1,0.2,0.1,0.3,0.1,0.5c-0.1,0-0.1,0.1-0.2,0.1
		c-2.2,0.9-4.3,1.8-6.5,2.7C5446.5,3805.2,5446.3,3805.3,5446.2,3805.3z"/>
	<path onclick="modal(this.id);" id="2853" class="st0" d="M5428.5,3782.8c0.4,0.9,0.7,1.8,1.1,2.8c0,0.2-0.2,0.2-0.3,0.2c-1,0.5-1.9,1-2.9,1.4
		c-0.1,0.1-0.3,0.1-0.4,0.2c-0.1,0.2,0,0.4,0.1,0.5c0.3,0.7,0.6,1.4,0.8,2.1c0.3,0.7,0.6,1.3,0.8,2c0.1,0.2,0.1,0.3,0.2,0.5
		c-0.1,0.1-0.2,0.1-0.3,0.2c-0.6,0.3-1.3,0.6-1.9,0.9c-0.2,0.1-0.5,0.2-0.7,0.4c0,0,0,0,0,0c0,0,0,0,0,0c-0.5-1.3-1.1-2.6-1.6-3.8
		c-0.5-1.1-0.9-2.2-1.4-3.3c0.3-0.4,0.7-0.7,1.1-1c0.5-0.4,0.9-0.7,1.5-1c1.2-0.7,2.5-1.3,3.7-1.9
		C5428.3,3782.9,5428.4,3782.9,5428.5,3782.8z"/>
	<path onclick="modal(this.id);" id="655" class="st0" d="M5437,3931.1c-0.2-0.3-0.5-1.3-0.7-2c0.1,0,0.1-0.1,0.2-0.1c2.6-1.1,5.3-2.2,7.9-3.3
		c1.5-0.6,3.1-1.2,4.6-1.8c1-0.4,2-0.8,3-1.1c0.1,0,0.3-0.1,0.4-0.1c0.2,0.1,0.2,0.2,0.3,0.4c0.2,0.5,0.4,1,0.6,1.5
		c-0.1,0.2-0.3,0.2-0.4,0.2c-1,0.4-2,0.8-3,1.2c-1.7,0.7-3.4,1.4-5.1,2.1c-1.3,0.5-2.6,1-3.9,1.5c-0.3,0.1-0.6,0.3-0.9,0.4
		c-0.4,0.2-0.8,0.3-1.2,0.5c-0.4,0.2-0.9,0.4-1.3,0.5C5437.2,3931,5437.1,3931.1,5437,3931.1z"/>
	<path onclick="modal(this.id);" id="2855" class="st0" d="M5445.4,3778.7c0,1.1,0.1,2,0.4,2.9c-0.4,0.2-0.7,0.3-1.1,0.5c-0.4,0.2-0.7,0.3-1.1,0.5
		c0,0.1,0,0.2,0.1,0.3c0.2,0.5,0.4,1.1,0.6,1.6c-0.2,0.3-0.7,0.8-1,1c-0.9,0.6-1.9,1.1-3,1.6c-0.3,0.1-0.5,0.2-0.8,0.3
		c-0.2-0.3-2-4.9-2.1-5.3c1.3-0.6,2.6-1.1,3.9-1.7C5442.7,3779.8,5444,3779.2,5445.4,3778.7z"/>
	<path onclick="modal(this.id);" id="3188" class="st0" d="M5396.1,3845.9c-0.2-0.2-0.3-0.4-0.5-0.6c0.1-0.3,0.1-0.7,0.3-0.9c0,0,0-0.1,0-0.1
		c-0.1-0.1,0-0.3,0-0.4c0.5-1.7,1.1-3.5,1.6-5.2c0.2-0.7,0.4-1.3,0.6-1.9c0-0.1,0.1-0.2,0.1-0.4c0.3,0.2,0.4,0.4,0.7,0.6
		c0.3-0.2,0.3-0.5,0.5-0.7c0.2-0.2,0.3-0.5,0.4-0.7c0.1,0,0.2,0.1,0.2,0.1c1,1.3,2.1,2.5,3.1,3.8c0.1,0.1,0.2,0.2,0.3,0.3
		c0.1,0.1,0.2,0.2,0.2,0.3c-0.3,0.2-0.6,0.5-0.8,0.7c-2.2,1.7-4.4,3.3-6.6,5C5396.3,3845.8,5396.2,3845.9,5396.1,3845.9z"/>
	<path onclick="modal(this.id);" id="2861" class="st0" d="M5448.8,3785.7c-0.1,0.1-0.1,0.2-0.2,0.2c-1,0.9-2,1.8-3,2.7c-0.4,0.3-0.8,0.6-1.3,1
		c-0.5,0.4-1.1,0.8-1.6,1.2c-0.5,0.3-1,0.7-1.5,0.9c0-0.1-0.1-0.1-0.1-0.2c-0.5-1.2-0.9-2.4-1.4-3.7c0-0.1,0-0.1-0.1-0.2
		c0.3-0.2,0.6-0.3,0.9-0.4c1-0.4,2-0.9,2.9-1.5c0.5-0.3,0.8-0.7,1.2-1.1c-0.2-0.6-0.5-1.2-0.7-1.9c0.2-0.2,1.5-0.7,2-0.8
		c0,0,0.1,0.1,0.1,0.1c0.2,0.5,0.5,0.8,0.8,1.2c0.4,0.5,0.8,1,1.2,1.5c0.1,0.1,0.1,0.1,0.2,0.2c0.1,0.1,0.1,0.3,0.2,0.4
		C5448.5,3785.5,5448.7,3785.6,5448.8,3785.7z"/>
	<path onclick="modal(this.id);" id="2886" class="st0" d="M5463.5,3814.1c-0.6,0-1.1,0-1.7,0c-0.3,0-0.7,0-1,0c0,0-0.1,0-0.2,0c0-0.1,0-0.2,0-0.3
		c0-1.2,0-2.5,0.1-3.7c0-0.5,0-1,0-1.4c0-0.3,0-0.7,0.1-1c0.1-0.7,0.2-1.3,0.3-2c0-0.1,0.1-0.3,0.1-0.4c0.7-0.1,1.3-0.2,2-0.3
		c0.2,0,0.5,0,0.7,0c0.3,0,0.7,0.1,1,0.1c0.1,0.1,0.1,0.3,0.1,0.4c0,1-0.1,2-0.1,3c0,1.4,0,2.8-0.1,4.3c0,0.4,0,0.8,0,1.2
		c0,0.1,0,0.1,0,0.2c-0.1,0.1-0.3,0.1-0.4,0.1C5464.1,3814.1,5463.8,3814.1,5463.5,3814.1"/>
	<path onclick="modal(this.id);" id="660" class="st0" d="M5453.7,3924.6c0.5-0.2,1-0.5,1.5-0.6c0.3-0.1,0.6-0.2,0.9-0.3c0.7-0.3,1.4-0.6,2.1-0.9
		c0.1,0,0.2-0.1,0.3-0.1c0,0.1,0.1,0.1,0.1,0.2c0.7,1.8,1.4,3.6,2.2,5.4c0.1,0.3,0.2,0.6,0.3,0.9c0,0.1,0,0.1,0,0.2
		c-0.3,0.2-4.1,1.6-4.6,1.7c-0.2-0.1-0.2-0.3-0.3-0.5c-0.8-1.9-1.6-3.9-2.3-5.8C5453.7,3924.8,5453.7,3924.7,5453.7,3924.6z"/>
	<path onclick="modal(this.id);" id="3197" class="st0" d="M5427.7,3856.7c1.1,1.3,2.1,2.5,3.2,3.8c-0.1,0.1-0.2,0.2-0.2,0.2c-0.2,0.2-0.4,0.3-0.6,0.5
		c-0.5,0.4-0.5,0.4-1.1,0.6c-0.2,0.1-0.5,0.1-0.7,0.2c-0.1,0-0.1,0-0.2,0.1c-0.3,1-0.6,2-0.9,3c-0.1-0.1-0.2-0.1-0.2-0.2
		c-0.2-0.2-0.4-0.4-0.5-0.7c-0.1-0.1-0.2-0.1-0.3,0c-0.2,0.2-0.5,0.3-0.7,0.5c-0.3-0.3-0.6-0.7-0.8-1c-0.3-0.3-0.6-0.7-0.8-1
		c-0.3-0.3-0.6-0.6-0.8-1c0.1-0.2,0.3-0.3,0.5-0.4c0.2-0.1,0.3-0.3,0.4-0.5c0.4-1.3,0.7-2.6,1.1-3.9c0-0.2,0.1-0.3,0.1-0.4
		c0.1-0.1,0.2,0,0.2,0.1c0.3,0.3,0.5,0.6,0.8,1c0.1,0.1,0.1,0.2,0.2,0.2c0.2,0.2,0.2,0.2,0.4,0c0.1,0,0.1-0.1,0.2-0.2
		c0.2-0.2,0.5-0.4,0.7-0.7C5427.5,3856.8,5427.6,3856.8,5427.7,3856.7z"/>
	<path onclick="modal(this.id);" id="3199" class="st0" d="M5431.3,3870.2c-0.2-0.2-0.2-0.3-0.3-0.4c-0.4-0.5-0.8-1-1.2-1.5c-0.1-0.1-0.1-0.1-0.2-0.2
		c-0.1-0.1-0.2-0.1-0.3,0c-0.2,0.1-0.3,0.3-0.5,0.4c-0.1,0-0.1,0.1-0.2,0.1c-0.2-0.2-2.9-3.3-3.2-3.8c0.2-0.2,0.4-0.3,0.6-0.5
		c0.1,0.1,0.1,0.1,0.2,0.2c0.2,0.2,0.4,0.4,0.5,0.7c0.1,0.1,0.1,0.2,0.3,0.2c0.2,0,0.1-0.2,0.2-0.3c0.1-0.3,0.2-0.5,0.3-0.8
		c0.2-0.6,0.4-1.2,0.6-1.8c0-0.1,0.1-0.2,0.1-0.3c0.4-0.1,0.7-0.2,1.1-0.3c0.3-0.1,0.5-0.2,0.7-0.3c0.3-0.2,0.5-0.5,0.8-0.7
		c0.1-0.1,0.1-0.1,0.2-0.2c0.3,0.3,2,2.3,2.2,2.6c-0.4,0.4-0.9,0.7-1.3,1.1c0.2,0.4,0.6,0.7,0.8,1.1
		C5432.3,3867.1,5431.8,3868.6,5431.3,3870.2z"/>
	<path onclick="modal(this.id);" id="662" class="st0" d="M5484.1,3907c0.4,1,0.8,2,1.2,2.9c-3.2,1.3-6.4,2.5-9.6,3.8c-0.3-0.2-0.6-0.4-0.9-0.7
		c-0.4-0.5-0.8-1.1-1.3-1.7c0,0,0-0.1-0.1-0.1c0-0.2,0.2-0.2,0.3-0.2c0.8-0.3,1.7-0.7,2.5-1c2.4-1,4.9-1.9,7.3-2.9
		C5483.8,3907.1,5483.9,3907.1,5484.1,3907z"/>
	<path onclick="modal(this.id);" id="2847" class="st0" d="M5429.5,3764.5c1.5-0.6,3-1.1,4.5-1.6c0.1,0,0.1,0,0.2,0c0.1,0.2,0.1,0.3,0.2,0.4
		c0.2,0.5,0.3,1,0.5,1.5c0.4,1,0.7,2,1.1,3c0.1,0.2,0.2,0.4,0.2,0.6c-0.3,0.7-0.8,1.2-1.4,1.6c-0.1,0.1-0.3,0.2-0.4,0.2
		c-0.8,0.3-1.6,0.6-2.4,0.9c-0.2-0.1-0.2-0.3-0.2-0.4c-0.5-1.3-1-2.7-1.4-4c-0.2-0.6-0.4-1.2-0.7-1.8
		C5429.6,3764.8,5429.5,3764.6,5429.5,3764.5z"/>
	<path onclick="modal(this.id);" id="682" class="st0" d="M5469.9,3927.1c0.5,1.2,0.9,2.3,1.4,3.4c-0.1,0.1-0.2,0.1-0.2,0.1c-1.2,0.5-2.5,1-3.7,1.5
		c-0.1,0-0.1,0-0.2,0c-0.2-0.2-0.2-0.5-0.3-0.7c-0.2-0.4-0.2-0.4-0.6-0.3c-0.9,0.4-1.8,0.7-2.7,1.1c-0.2,0.1-0.4,0.2-0.6,0.2
		c-0.3-0.5-0.5-1-0.7-1.5c-0.2-0.5-0.5-1-0.7-1.5c0.2-0.2,0.4-0.2,0.6-0.2c0.2-0.1,0.3-0.1,0.5-0.2c0.1-0.1,0.2-0.1,0.3-0.1
		c0.3-0.1,0.6-0.2,0.8-0.3c0.2,0.1,0.2,0.3,0.3,0.4c0.1,0.1,0.2,0,0.4,0c0.4-0.1,0.8-0.2,1.2-0.3c0,0,0.1,0,0.1,0
		c0.7-0.4,1.6-0.7,2.3-1c0.5-0.2,1.1-0.4,1.6-0.6C5469.6,3927.1,5469.7,3927.1,5469.9,3927.1z"/>
	<path onclick="modal(this.id);" id="3185" class="st0" d="M5408.8,3834.1c-0.2,0.1-0.3,0.3-0.5,0.4c-0.2,0.2-0.4,0.3-0.6,0.5c-0.2,0.1-0.4,0.3-0.4,0.6
		c0,0,0,0.1-0.1,0.1c-0.2,0-0.3-0.1-0.5-0.1c-0.3-0.1-0.4,0-0.5,0.3c-0.2,0.7-0.4,1.4-0.7,2.1c0,0.2-0.1,0.3-0.2,0.5
		c-0.3,0-0.6,0.1-0.9,0.1c-0.3,0-0.6,0.1-0.9,0.4c-0.1,0.1-0.1,0.1-0.2,0.2c-0.3-0.2-1.5-1.7-2.1-2.5c0.2-0.2,0.5-0.5,0.8-0.5
		c0.4-0.1,0.7-0.2,1.1-0.2c0-0.1,0.1-0.2,0.1-0.3c0.3-1,0.6-2.1,0.9-3.1c0-0.1,0.1-0.2,0.1-0.3c0.2,0,0.3,0.1,0.5,0.1
		c0.1,0,0.1-0.1,0.1-0.2c0-0.1,0-0.1-0.1-0.2c-0.2-0.4-0.3-0.7-0.5-1.1c0-0.1-0.1-0.2-0.1-0.3c0.5-0.2,0.9-0.4,1.4-0.6
		c0.1,0.1,0.2,0.2,0.2,0.4c0.1,0.3,0.3,0.6,0.5,0.8c0.7,0.9,1.4,1.9,2.2,2.8C5408.7,3833.9,5408.8,3834,5408.8,3834.1z"/>
	<path onclick="modal(this.id);" id="2890" class="st0" d="M5448.7,3820.5c-0.5,0.2-1,0.4-1.6,0.6c-0.1-0.1-0.1-0.3-0.2-0.4c-0.8-1.8-1.5-3.6-2.3-5.4
		c-0.1-0.3-0.2-0.5-0.2-0.8c0-0.3,0-0.6,0-1c0.2-0.1,0.4-0.2,0.6-0.3c0.7-0.3,1.4-0.5,2.1-0.8c0.1,0,0.3-0.1,0.4-0.1
		c0.5,0,1,0.1,1.5,0.1c0.1,0.1,0.1,0.2,0.1,0.3c0,0.2-0.1,0.3-0.1,0.5c-0.2,0.6-0.2,1.2-0.2,1.9c0,1.7,0,3.4-0.1,5.2
		C5448.7,3820.4,5448.7,3820.4,5448.7,3820.5z"/>
	<path onclick="modal(this.id);" id="2893" class="st0" d="M5447.2,3821.4c0.1-0.1,0.1-0.1,0.1-0.1c0.1,0,0.1-0.1,0.2-0.1c0.9-0.3,1.8-0.7,2.7-1.1
		c0,0.1,0.1,0.2,0.1,0.2c0,0.3,0,0.6,0,0.9c0,0.1,0,0.2,0,0.4c0.1,0,0.2,0,0.3,0c0.5,0,1,0,1.5,0c0.6,0,1.2,0,1.8,0
		c0.1,0,0.2,0,0.3,0c0,0.1,0,0.2,0,0.3c0,0.4,0,0.8,0,1.2c0,0.1,0,0.3,0,0.4c0.4,0.1,0.8,0,1.2,0.1c0,0.1-0.1,0.1-0.1,0.1
		c-0.3,0.2-0.7,0.3-0.9,0.6c-0.1,0.1-0.2,0.1-0.2,0.1c-0.9,0.3-1.8,0.7-2.7,1.1c-0.6,0.2-1.2,0.5-1.7,0.8c-0.1,0.1-0.3,0.2-0.4,0.3
		c-0.1-0.1-0.2-0.2-0.2-0.4c-0.3-0.7-0.5-1.3-0.8-2c-0.3-0.8-0.7-1.6-1-2.4C5447.3,3821.7,5447.3,3821.5,5447.2,3821.4z"/>
	<path onclick="modal(this.id);" id="3201" class="st0" d="M5429.4,3868.3c0.2,0.2,0.3,0.4,0.5,0.6c0.4,0.5,0.8,1,1.2,1.4c0.1,0.1,0.1,0.2,0.2,0.2
		c0,0,0.2,0,0.2,0c0-0.1,0.1-0.1,0.1-0.2c0.4-1.5,0.9-3,1.3-4.4c0.1-0.3,0-0.5-0.1-0.7c-0.2-0.2-0.3-0.4-0.5-0.6
		c0.3-0.3,0.9-0.8,1.2-1c1,1.2,1.9,2.3,2.9,3.5c-0.1,0.1-0.1,0.2-0.2,0.2c-0.3,0.2-0.5,0.5-0.8,0.6c-0.3,0.2-0.4,0.4-0.5,0.7
		c-0.4,1.3-0.8,2.6-1.2,3.9c0,0.1-0.1,0.2-0.1,0.4c-0.4-0.3-0.6-0.8-1-1.1c-0.3,0.2-0.5,0.4-0.8,0.6c-0.3-0.2-2.5-2.9-3-3.6
		C5429,3868.7,5429.2,3868.5,5429.4,3868.3z"/>
	<path onclick="modal(this.id);" id="2846" class="st0" d="M5432.1,3771.4c0.5-0.2,0.9-0.3,1.4-0.5c0.4-0.1,0.8-0.3,1.1-0.4c0.5-0.2,0.9-0.6,1.3-1
		c0.1-0.1,0.2-0.3,0.3-0.4c0.3-0.4,0.4-0.5,1-0.8c0.2,0.4,0.4,0.9,0.6,1.3c0.2,0.4,0.4,0.9,0.5,1.3c0.2,0.4,0.3,0.9,0.5,1.3
		c-0.2,0.2-4.6,2.3-5.3,2.6c0-0.1-0.1-0.1-0.1-0.2C5432.9,3773.6,5432.5,3772.5,5432.1,3771.4z"/>
	<path onclick="modal(this.id);" id="2894" class="st0" d="M5454.5,3823.3c0-0.1,0-0.1,0-0.2c0-0.4,0-0.7,0-1.1c0-0.1,0-0.2,0.1-0.3
		c-0.1-0.3-0.4-0.3-0.6-0.3c-1,0-1.9,0-2.9,0c-0.1,0-0.3,0-0.4,0c-0.1-0.4-0.1-0.9,0-1.4c1.1-0.5,2.2-0.8,3.4-1.3
		c0.1,0.4,0,0.7,0.1,1c0.1,0,0.2,0,0.3,0c0.6,0,1.3,0,1.9,0c0.3,0,0.5,0,0.8,0c0.2,0.2,0.2,0.4,0.3,0.6c0.1,0.4,0.1,0.8,0.2,1.2
		c0,0.1,0,0.3,0.2,0.4c0.3,0,0.5-0.2,0.8-0.3c0.2,0.1,0.2,0.3,0.3,0.5c-0.1,0-0.1,0.1-0.2,0.1c-0.7,0.4-1.5,0.7-2.2,1.1
		c-0.2,0.1-0.3,0.1-0.5,0.1c-0.4-0.1-0.8-0.1-1.2,0C5454.6,3823.3,5454.5,3823.3,5454.5,3823.3z"/>
	<path onclick="modal(this.id);" id="2888" class="st0" d="M5454.2,3819.5c-0.1-0.2-0.1-0.4,0-0.6c0-0.3,0.1-0.5,0.1-0.8c0-0.4,0-0.8,0-1.1
		c0-0.8,0-1.5,0-2.3c0-0.4,0-0.9,0.1-1.3c0.4-0.3,0.7-0.5,1-0.9c0.3-0.4,0.5-0.7,0.8-1.1c0,0.1,0.1,0.2,0.1,0.2
		c0.2,0.9,0.4,1.9,0.4,2.8c0,0.9,0.1,1.8,0.2,2.7c0,0.2,0.1,0.4,0,0.5c0,0,0,0.1,0,0.1c0.2,0.5,0.1,1.1,0.2,1.6
		c-0.1,0-0.1,0.1-0.2,0.1c-0.8,0-1.6,0-2.4,0C5454.4,3819.5,5454.3,3819.5,5454.2,3819.5z"/>
</g>
</svg>
