<?xml version="1.0" encoding="utf-8"?>
<!-- Generator: Adobe Illustrator 19.0.0, SVG Export Plug-In . SVG Version: 6.00 Build 0)  -->
<svg version="1.1" id="Layer_1" xmlns="http://www.w3.org/2000/svg" xmlns:xlink="http://www.w3.org/1999/xlink" x="0px" y="0px"
	 viewBox="0 0 960 560" style="enable-background:new 0 0 960 560;" xml:space="preserve">
<style type="text/css">
	.st0{stroke:#000000;stroke-width:0.7;}
	.st1{fill:#33CCFF;}
</style>
<g id="dis11">
	<path id="praxedis" class="st0" d="M399.1,37.2L399.1,37.2c0,0.6,0,1.2,0,1.7c0,1.1,0.2,2.3,0.2,3.4c0,1-0.2,2.3-0.2,3.2
		c0,0.8,0.7,1.5,0.7,2.7c0,0.5-0.3,1-0.5,1.4c-0.2,0.4-0.4,0.8-0.2,1c0.9,0.9,1.9,1.5,2.7,2.3c0.3,0.3,2.3,0.9,2.5,1.3
		c0.4,0.7,0.7,1.6,0.7,2.9c0,0.8,0.2,1.2,0.2,1.6c0,0.3-0.2,0.6-0.8,0.9c-0.4,0.2-1.3,1.6-1.8,1.6c-1.3,0-2.2-0.1-3.2,0.4
		c-0.1,0.1-0.9,0.4-1.4,0.7c-0.2,0.2-0.4,0.3-0.4,0.4c0,0.1,0.3,0.2,0.8,0.2c1.7,0,2.6,0.6,3.9,0.9c0.3,0.1,1,0.1,1.7,0.2
		c0.3,0,0.6,0.1,0.8,0.2s0.2,0.3,0.1,0.5c-0.5,0.9-0.8,1.3-1.6,2c-0.6,0.6-1.1,1.1-1.8,1.8c-0.3,0.3-0.5,0.8-0.5,1.3
		c0.1,0.4,0.5,0.8,1.4,0.8c0.7,0,1.3-0.1,1.9,0c0.6,0,1.1,0.2,1.4,0.5c0.8,0.8,1.3,1.5,2,2.2c0.1,0.1,0.6,0.5,1.2,0.7
		c0.3,0.1,0.6,0.2,0.8,0.2s0.5-0.1,0.7-0.4c0.1-0.2,0.3-0.7,0.6-1.2s0.6-1,1-1.1c0.4-0.1,0.6-0.3,0.7-0.2c0.2,0,0.4,0.3,1.1,0.9
		c0.7,0.7,1.2,0.9,1.8,1.8c0.5,0.6,1.1,1.9,1.8,2.2c0.6,0.3,1.4,1.3,2.3,1.6c0.9,0.2,1.6,0.5,2.5,1.1c0.6,0.5,1.5,1.2,2.3,1.6
		c0.2,0.1,2.4,1.6,2.5,1.6c0.5-0.3,0.8-0.5,1-0.9c0.2-0.3,0.2-0.8,0.4-1.4s0.4-0.9,0.7-0.8c0.2,0.1,0.5,0.5,0.5,1.3
		c0,0.4,0.2,1.1,0.4,1.6c0.1,0.3,0.2,0.4,0.3,0.5s0.1,0,0.1-0.3c0-1.1,0-2.3,0-3.4c0-1.1,0-2.3,0-3.4c0-0.4,0-1.3-0.2-2.2
		c-0.1-0.9-0.3-1.7-0.7-1.9c-0.4-0.2-0.8-0.4-1-0.6c-0.2-0.2-0.3-0.6-0.1-1.2c0.1-0.6,0-0.9,0-1.2c0-0.3,0.1-0.5,0.7-0.8
		c0.6-0.3,1-0.7,1.1-1.1s0.1-0.9,0-1.6l0,0c-0.9-0.8-2.4-2-2.4-2.7c0-1.6,0-2.6-1.2-3.6c-1.5-1.1-1.9-1.3-2.9-2.4
		c-1-1-1.5-2.1-2.7-3.2c-1.3-1.3-2.5-2.7-4.1-2.7c-1.8,0-4.7,0.3-5-1.2c-0.3-1.1-3-3.7-2.9-4.1c0.2-1,2.5-2.8,2.1-3.6
		c-1-2-1.9-0.2-3.6-1.5c-0.7-0.6-1.2-2.7-1.8-2.9c-1.4-0.7-3.4-1.4-5-0.6C400,36.7,399.6,37,399.1,37.2z"/>
	<path id="aldama" class="st0" d="M412.4,306.7L412.4,306.7l-7.4,15.7l0.9,25.3l-10.1,0.5c0,0.6,0,1.2,0,1.8c0,1.4-0.4,2.1-0.9,2.6
		s-1.2,0.8-1.9,1.5c-0.2,0.2,0.7,1,1.6,1.8c0.9,0.8,1.9,1.6,2.1,1.9c0.5,0.6,0.4,1.1,0.1,1.5s-0.8,0.7-1.3,1
		c-0.4,0.3-0.8,0.5-0.8,0.9s0.4,0.7,1.4,1.3c1.4,0.7,2.1,1.4,2.4,2.1s0.1,1.4-0.6,2c-0.3,0.3-0.3,1.8-0.3,3.3
		c0.1,1.5,0.3,3.1,0.3,3.6c0,1.6,0,2.6,0.1,3.4c0.2,0.8,0.5,1.4,1.3,2.2c1.1,1.1,1.4,1.6,1.2,2s-1,0.6-2.2,1.2
		c-0.3,0.1-0.5,0.6-0.6,1.1s-0.1,1.2-0.1,1.9c0,1.4,0.2,2.9,0.2,3.5s-0.2,0.9-0.6,1.2c-0.4,0.2-0.8,0.3-1.4,0.4
		c-1.1,0.1-2.5-0.2-3.6-0.2c-0.4,0-0.9-0.8-1.5-1.7c-0.6-0.9-1.4-1.8-2.2-2c-0.4-0.1-0.7,0-1,0.4c-0.2,0.3-0.4,0.8-0.5,1.4
		c-0.3,1.1-0.4,2.3-0.4,2.9l-14.7,0.3c-0.1,0,0.2,1.2,0.7,2.5c0.4,1.3,1,2.7,1.7,3c0.5,0.2,0.7,0.5,0.7,0.8s-0.2,0.6-0.4,1
		c-0.5,0.7-1.4,1.3-1.7,1.9c-0.3,0.5-0.2,1,0.2,1.4c0.3,0.4,0.9,0.7,1.5,1c1.2,0.6,2.8,1,3.4,1.3c0.5,0.3,1,1.2,1.4,2.2
		s0.7,2,0.9,2.4c0.4,0.8,0.5,1.2,0.4,1.4c-0.1,0.2-0.5,0.1-0.9-0.2c-0.9-0.5-2.1-1.4-2.7-1.7c-1.1-0.6-1.6-0.8-1.9-0.7
		c-0.3,0.1-0.6,0.5-1.3,1.2l6.9,14.3l6,0.9c-0.4-0.2-0.7-0.1-0.9,0.3c-0.2,0.3-0.3,0.9-0.4,1.5c-0.1,1.3-0.1,2.9-0.6,3.7
		c-0.1,0.2,4.6,2.7,4.6,2.8c0.4,0.2,0.2,1.1,0,2s-0.6,2-0.4,2.6c0.2,0.8,3.2,3.6,3.7,4.6c0.2,0.4,0.2,0.7,0,0.9s-0.4,0.3-0.7,0.4
		c-0.7,0.1-1.6,0.1-2.1,0.1l18,10.6l9.2,0.9l0.5,6c0.4,0.8,0.9,1.4,1.4,1.8s1,0.8,1.6,1c1.1,0.4,2.2,0.4,3,0.4
		c0.4,0,0.7-0.1,1.1-0.4c0.3-0.2,0.6-0.6,0.9-0.9c0.5-0.7,1-1.5,1.8-1.9c1.3-0.6,1.9-0.8,2.4-0.5s0.9,1,1.8,1.8
		c0.5,0.5,1.9,0.6,3.3,0.6c1.4,0,2.9-0.1,3.6-0.1c1.2,0,2.2,0.2,3,0.5s1.5,0.8,2.1,1.4c0.7,0.7,1.2,1.4,1.4,2.3
		c0.3,0.9,0.4,1.9,0.4,3.2c0,2.1-0.4,3.9-0.4,6.4c0,1.6,0.9,2.5,0.9,4.6l4.1-3.2l1.8,3.7h6v-8.8l5,6.9c0,0.4,0.2,0.7,0.6,0.8
		c0.4,0.1,0.9,0.1,1.4,0.1s1.1-0.1,1.7,0s1,0.2,1.3,0.5c0.9,0.9,1.5,1.3,2.1,1.2c0.5-0.1,1-0.5,1.6-1.2l2.3-9.2l12.4-6.4l-1.8-5.5
		l12-4.2c0-0.6,0-1.2,0-1.8c0-1.1,0.2-2.1,0.7-2.9c0.2-0.4,0.6-0.7,1-0.9c0.4-0.2,0.9-0.4,1.5-0.4c0.5,0,1-0.1,1.4-0.4
		c0.4-0.2,0.6-0.5,0.9-0.9c0.5-0.7,0.9-1.5,1.4-2c0.6-0.6,1.1-1,1.4-1.5s0.4-1.1,0.4-2.2l6.9,2.7l1.4,4.6l7.4-6.9l3.2,6.5l6.9-9.7
		l9.2,7.3l22.6-5.5l-1.4,5.5l12.4-3.7l1.4,4.6c0.8-0.8,1.5-1.1,2.2-1.1s1.3,0.2,1.9,0.6c1.2,0.8,2.1,2.1,2.8,2.9
		c0.2,0.2,0.6,0.3,0.9,0.3c0.4-0.1,0.7-0.2,1.1-0.4c0.8-0.4,1.7-1,2.5-1.2c0.4-0.1,0.9,0,1.4,0l3.7-2.8l-6.5-5l-15.7-23l-0.2-0.7
		l-3-4.8l-7.9,4.1l-2.3-5.5L551,415l-8.3-0.4c0.3,0.1,0.5,0,0.6-0.1s0.1-0.3,0-0.5c-0.1-0.4-0.6-1.1-1.2-1.8c-0.6-0.7-1.3-1.4-2-1.9
		s-1.4-0.9-2-0.9c-1.5,0-2.5-0.3-3.2-0.2c-0.3,0.1-0.6,0.2-0.7,0.6s-0.2,1-0.2,1.9c0,0.4-0.3,0.5-0.7,0.3s-0.9-0.6-1.4-1.1
		c-1-0.9-2.1-2-2.1-2c-0.5-1-1.2-1.5-1.8-2.1c-0.3-0.3-0.6-0.6-0.7-1.1s-0.3-1.1-0.3-1.9c0-0.6,0.2-0.8,0.5-1s0.7-0.3,1-0.4
		s0.5-0.2,0.5-0.5s-0.4-0.7-1.1-1.4c-0.2-0.2,0.3-0.5,0.7-1c0.2-0.2,0.4-0.5,0.4-0.9s0-0.8-0.2-1.4c-0.2-0.4-0.1-0.7,0.3-0.9
		c0.3-0.2,0.8-0.3,1.4-0.4c1.2-0.2,2.7-0.4,3.3-1c0.8-0.8,1.2-1.5,1.5-2.3s0.4-1.8,0.4-3.2c0-1,0-1.5,0.3-1.9s0.9-0.7,2.1-1.3
		c0.7-0.3,0.9-0.8,1-1.2c0-0.4-0.2-0.8-0.6-1.2c-0.7-0.8-2-1.3-2.7-1.3c-0.2,0-0.7-1.1-1.2-2.2s-1.1-2.2-1.6-2.5
		c-0.6-0.3-1.2-0.4-1.8-0.4s-1,0.3-1.4,0.5c-0.8,0.5-1.5,1.3-1.8,1.7c-0.4,0.4-1,0.7-1.5,0.8c-0.5,0.1-1.1,0.2-1.6,0.1
		c-1.1-0.1-2.2-0.6-2.9-0.9c-1-0.5-1-1.1-1.3-1.5c-0.1-0.2-0.3-0.4-0.7-0.6c-0.3-0.1-0.9-0.2-1.7-0.2l-14.7-18.4
		c-0.7-0.4-1.6-0.6-2.3-0.9c-1.6-0.6-2.5-0.7-2.8-1s0-0.9,0.9-2.7c0.2-0.4,0.1-0.7-0.2-0.8s-0.8-0.3-1.4-0.3
		c-1.2-0.1-2.6-0.1-3.5-0.3c-0.7-0.2-1-0.5-1.1-0.8c-0.1-0.4,0-0.8,0.2-1.3c0.4-0.9,1.3-1.9,1.8-2.5c0.3-0.3,0.1-0.5-0.2-0.8
		c-0.4-0.3-0.9-0.5-1.6-0.7c-1.3-0.4-2.8-0.7-3.3-0.7c-2.5,0-3.7-0.5-6.4-0.5c-0.7,0-1.4,0.1-2,0.4c-0.6,0.2-1.2,0.6-1.7,1.1
		c-0.2,0.2-0.4-0.1-0.5-0.5c-0.2-0.5-0.3-1.1-0.4-1.8c-0.3-1.5-0.4-3.2-0.4-3.6c0-1.6-0.2-2.4-0.4-3.2s-0.1-1.4,0.4-2.4
		c0.2-0.4,0.4-0.4,0.7-0.4s0.5,0.1,0.7,0.2s0.5,0.1,0.7-0.1s0.3-0.7,0.3-1.4h-24.4l-0.5-14.3l-8.3-0.9v-8.2l-22.6-0.9v6.9l-5-3.2
		l1.4-3.7l-5.6-2.6l-0.1,0.4L412.4,306.7L412.4,306.7z"/>
	<path id="aserdan" class="st1" d="M417.8,461.1c-0.8,0.5-1.4,1.4-1.8,2.5c-0.4,1.1-0.7,2.3-1,3.5c-0.2,0.6-0.6,0.9-1.1,1
		s-1.2,0.1-2,0s-1.5-0.3-2.3-0.3c-0.7,0-1.5,0-2,0.3s-0.7,0.6-0.6,1c0.1,0.4,0.4,0.8,0.8,1.2c0.8,0.8,1.9,1.4,2.1,1.5
		c0.4,0.2,0.8,1.4,1.1,2.5s0.6,2.3,0.7,2.6c0.1,0.6-0.1,0.9-0.4,1.1c-0.3,0.2-0.8,0.2-1.2,0.3s-0.7,0.1-0.7,0.4s0.2,0.7,1,1.5
		c1,1,1.5,1.6,1.5,2.2c0.1,0.6-0.3,1.2-1.1,1.9c-0.4,0.4-0.4,0.7-0.4,1.2s0.3,1,0.6,1.4c0.6,1,1.6,2,2,2.9c0.3,0.5,0.6,0.7,1,0.7
		s0.8-0.2,1.2-0.5c0.8-0.6,1.7-1.5,2.5-1.7c0.4-0.1,0.7,0.1,1,0.4s0.5,0.7,0.8,1c0.2,0.3,0.5,0.4,0.7,0.3c0.2-0.2,0.5-0.7,0.7-1.7
		c0.1-0.4,0.3-0.5,0.7-0.4c0.3,0.1,0.7,0.5,1.1,0.9c0.9,0.8,2,1.8,2.8,1.8c0.7,0,1.3,0.2,2,0.5c0.6,0.3,1.2,0.8,1.7,1.3
		c0.2,0.2,0.3,0.5,0.2,0.8s-0.3,0.6-0.5,0.9c-0.4,0.6-1,1.3-1.1,2c-0.1,0.3,4,4,4.1,4.1c0.2,0.3,0.6,0.4,0.9,0.2
		c0.4-0.1,0.8-0.5,1.2-0.8s0.8-0.7,1.3-1c0.4-0.3,0.8-0.4,1.2-0.3c0.9,0.2,1.7,0.3,2.2,0.3c0.5-0.1,0.8-0.2,1-0.5
		c0.3-0.6,0.1-1.5-0.4-2.5c-0.3-0.6-0.1-0.9,0.4-1.1s1.2-0.3,2-0.3c1.7,0,3.8,0.3,5,0c0.7-0.2,1-0.5,1.3-1c0.2-0.4,0.3-0.9,0.6-1.4
		l-9.7-9.2l6.9,0.5l-0.4-2.4l0,0c0-2.1-0.9-3-0.9-4.6c0-2.5,0.4-4.3,0.4-6.4c0-1.3-0.1-2.3-0.4-3.2c-0.3-0.9-0.8-1.6-1.4-2.3
		c-0.6-0.6-1.2-1-2.1-1.4c-0.8-0.3-1.8-0.5-3-0.5c-0.8,0-2.2,0.1-3.6,0.1c-1.4,0-2.8-0.1-3.3-0.6c-0.9-0.9-1.3-1.6-1.8-1.8
		c-0.5-0.3-1.1-0.2-2.4,0.5c-0.7,0.4-1.2,1.2-1.8,1.9c-0.3,0.4-0.6,0.7-0.9,0.9c-0.3,0.2-0.6,0.4-1.1,0.4c-0.9,0-1.9,0-3-0.4
		c-0.5-0.2-1.1-0.5-1.6-1C418.5,462.1,418.2,461.6,417.8,461.1z"/>
	<path id="path2459" class="st0" d="M487,525.3l-0.2-0.7c0.1-1.4,0.1-2.2,0.5-2.7s1.1-0.6,2.9-0.6c0.3,0,0.4-1.1,0.4-2.2
		c0-1.1,0-2.4,0-2.8c0-0.4-0.9-0.7-1.9-1c-1-0.2-2.1-0.4-2.5-0.4c-0.5,0-0.9-0.7-1.1-1.5s-0.4-1.6-0.5-1.8c-0.9-1.8-0.7-2.5-1.3-3
		c-0.3-0.3-0.8,0.2-1.2,0.7s-0.9,1-1.2,0.7c-0.6-0.6-1.3-0.9-2.1-1.2c-0.7-0.3-1.5-0.5-2.2-0.8c-0.3-0.1-0.3-0.4-0.2-0.6
		s0.4-0.5,0.8-0.7c0.7-0.5,1.8-1,2.4-1c1.2,0,1.5-0.2,1.4-0.6s-0.5-1-0.7-1.8c-0.6-2.3-0.6-3-0.3-4c0.2-0.6,0.2-1.1,0-1.4
		c-0.2-0.4-0.7-0.6-1.6-0.9c-1-0.2-2.1-1.8-2.7-2.3c-0.1-0.1-0.2-0.2-0.4-0.4L475,494c-0.1,0.4-0.9,0.4-1.7,0.3
		c-0.8-0.2-1.8-0.5-2.3-0.6c-0.6-0.2-1.3,0.3-2,0.9s-1.2,1.4-1.7,1.8c-1.3,1.3-2.7,2.1-3.3,3.3c-0.6,1.2-1.6,1.9-2.4,2.7
		c-0.2,0.2-2.6-1.9-3-2c-0.2-0.1-3.1,1.9-3.7,2c-1.3,0.3-3,1.7-3.6,2.3l4.7,7.7l9.7,13.3l6,1.7l3,4v0.4l0.4-0.1c0.8,0,1.9,0.2,2.6,0
		c1.1-0.3,1.6-0.5,1.8-0.9c0.3-0.4,0.4-0.9,0.8-1.8c0.3-0.7,0.4-1.3,0.7-1.7s0.8-0.5,1.9-0.3c0.9,0.2,1.5,0.3,1.9,0.2
		c0.4-0.1,0.6-0.3,0.7-0.5c0.1-0.2,0.2-0.5,0.3-0.8c0.1-0.2,0.4-0.4,0.8-0.5C486.7,525.3,486.9,525.3,487,525.3z"/>
	<path id="path2467" class="st0" d="M493,531.6l0.2,0.1l6.7-3.7l3.6-7l5.4-3l8.3,2l-0.7-3.3l1.7-1.7l5.7,3.6l4.7,0.7l2.7,7.7l17-1.4
		l-2.3-5.7l9.7,2.3l5.3,9l2.7,2c0.3,0.2,1.2,1,2,1c0.4,0,0.9,0,1.3,0l7.3-6.7v-5.7l2.4-3.7h7.7l-1.4-6.7l6-3.3l-2.3-3l-1.7-7l1.7-8
		l3.3-2.3l-0.4-4.3l-6.3,1l-0.7-7l11-2.3l4.7-6.7l5.4,0.4v-4.3l-6.4-3.3l0.6-5l-0.2,0.1l-0.5-5.6l-8,2.8l-0.9-4.9l-0.5,0.4
		c-0.5,0-1-0.1-1.4,0c-0.8,0.2-1.7,0.8-2.5,1.2c-0.4,0.2-0.8,0.4-1.1,0.4c-0.4,0.1-0.7,0-0.9-0.3c-0.7-0.7-1.6-2.1-2.8-2.9
		c-0.6-0.4-1.2-0.7-1.9-0.6s-1.4,0.4-2.2,1.1l-1.4-4.6l-12.4,3.7l1.4-5.5l-22.6,5.5l-9.2-7.3l-6.9,9.7l-3.2-6.5l-7.4,6.9l-1.4-4.6
		l-6.9-2.7c0,1.1-0.1,1.7-0.4,2.2s-0.8,0.9-1.4,1.5c-0.5,0.5-0.9,1.3-1.4,2c-0.3,0.3-0.5,0.7-0.9,0.9c-0.4,0.2-0.8,0.4-1.4,0.4
		c-0.6,0-1.1,0.1-1.5,0.4c-0.4,0.2-0.8,0.5-1,0.9c-0.5,0.8-0.7,1.8-0.7,2.9c0,0.6,0,1.2,0,1.8l-12,4.2l1.8,5.5l-12.4,6.4l-2.3,9.2
		c-0.6,0.6-1.1,1.1-1.6,1.2l0.1,0.3c0.5-0.2,1.4,0,2.4,0.3s2,0.7,2.6,1c0.4,0.2,0.6,0.5,0.7,0.7s0.1,0.6,0,1
		c-0.1,0.7-0.5,1.5-0.7,2.3c-0.1,0.5-0.5,0.6-0.5,0.8s0.3,0.7,1.4,1.8c0.4,0.4,0.2,1-0.1,1.7s-0.7,1.4-0.9,2l0.3,0.3
		c0.1,0.1,0.2,0.2,0.4,0.4c0.5,0.5,1.7,2.1,2.7,2.3c0.9,0.2,1.4,0.5,1.6,0.9c0.2,0.4,0.2,0.8,0,1.4c-0.3,1-0.3,1.7,0.3,4
		c0.2,0.8,0.7,1.4,0.7,1.8c0.1,0.4-0.2,0.6-1.4,0.6c-0.6,0-1.7,0.5-2.4,1c-0.4,0.3-0.7,0.5-0.8,0.7s-0.1,0.5,0.2,0.6
		c0.7,0.4,1.5,0.6,2.2,0.8c0.7,0.3,1.5,0.6,2.1,1.2c0.3,0.3,0.8-0.2,1.2-0.7s0.9-1,1.2-0.7c0.6,0.6,0.4,1.2,1.3,3
		c0.1,0.3,0.3,1.1,0.5,1.8c0.2,0.7,0.6,1.5,1.1,1.5c0.4,0,1.5,0.1,2.5,0.4c1,0.2,1.9,0.5,1.9,1c0,0.3,0.1,1.6,0,2.8
		c-0.1,1.2-0.1,2.2-0.4,2.2c-1.7,0-2.5,0.1-2.9,0.6s-0.4,1.3-0.5,2.7l0.2,0.7c0.5-0.1,1.1-0.2,1.6-0.1c0.7,0.1,1.4,0.4,2.2,0.8
		c0.7,0.4,1.2,1,1.5,1.9c0.3,0.9,0.4,2,0.4,3.1C492.9,531.3,493,531.4,493,531.6z"/>
	<path id="path2438" class="st0" d="M653.2,457.4h0.5l6.1,4.2l0.9-3.7l4.7,5.1l2.3-6.1l12.2,11.8l-3.3,5.2l5.2,8.9l6.1-11.3l6.1-0.9
		v8.5l13.7-5.7l13.7,7.1l5.1-4.7l2.9,1.4l2.3-4.3l2.4,0.5v3.8l5.9-2.3c-0.5-0.4-1-0.8-0.8-1.4c0.4-1.5,1.5-1.2,1.5-2.9
		c0-1.7,0.9-3.2,2.1-0.9c1.2,2.4,1.8-0.2,2.1,0.3c0.7,1.3,2.1,5.5,1.5,4.2l20.4-33.8l4.5-3l-3-5.3l9.5-9.2l5.9-8.6
		c-0.7-0.7-2.2-1.5-2.9-3c-0.1-0.2-0.2-0.4-0.3-0.6c-0.2-0.5-0.7-3.9-1.5-3.9c-2,0-2.3,0.1-2.7,1.8c-0.4,1.4-0.7,2.2-2.6,1.8
		c-1.1-0.3-2.8-0.7-3.9-1.5c-0.4-0.3-3.2-3-3.6-2.9s-3,0.8-3.9-0.9c-0.7-1.4-1.3-1.9-2.4-3c-0.9-0.9-1.6-2.2-2.6-3.2
		c-1.2-1.2-2.3-2.5-3.3-3.6c-0.9-0.9-1.8-1.5-2.9-2.7c-1-1-0.8-2-1.8-3.2c-0.7-1-1.5-2.2-3.2-1.8c-1.1,0.3-1.6,2.3-2.4,2.1
		c-1.7-0.4-2.6-1.4-4.1-1.8c-1.1-0.3-2,2-3,1.5c-0.2-0.1-2.7-3-3.8-3.2c-0.7-0.2-2.9-0.2-3.6-0.9c-0.6-0.6-1.3-2.6-2.4-2.4
		c-0.4,0.1-3.9,0.8-3.9-0.3c0-1.5,0-2.7-1.2-3.2c-1.6-0.8-5.5-0.1-5-1.8c0.5-1.8,1.5-1.5,0.6-3.2c-0.9-1.9-4.3-0.7-4.7-1.5
		c-1-2.1-1.5-1.4-2.7-2.6c-0.7-0.7-1-2.3-2.4-2.7c-1.2-0.3-2-0.5-3.6-0.9c-1.3-0.3-3.6-0.7-5-0.3c-1.5,0.4-2.2,0.1-3.6-1.2
		c-1.1-1.1-1.4-0.7-2.9-0.3c-0.9,0.2-1.9,0.5-2.9,0.6l-0.1,0.3l-3.3,8.4l-20.2-10.4c0.2,0.8,0.3,1.5,0.5,2.3c0.2,1,0.2,1.6,0.1,2
		s-0.4,0.5-0.7,0.4c-0.6,0-1.5-0.5-2.2-0.5c-0.3,0-0.6,0.2-0.8,0.4c-0.2,0.3-0.3,0.6-0.4,1c-0.3,0.7-0.5,1.6-1.1,1.9l-16.9-5.2
		l2.9,3.8l-4.3,2.8c-0.6,0-0.6,0.2-0.4,0.5c0.2,0.3,0.7,0.7,1.4,1.2c1.3,1,2.9,2.2,3.7,2.9c0.5,0.5,0.7,0.9,0.6,1.3s-0.3,0.7-0.4,1
		c-0.2,0.3-0.3,0.6-0.2,0.9s0.6,0.7,1.4,1.1c0.2,0.1-0.2,0.7-0.4,1.5c-0.1,0.4,0,0.8,0.1,1.2c0.2,0.4,0.5,0.8,1.1,1.1
		c0.8,0.4,1.3,0.9,1.9,1.5c0.6,0.6,1.2,1.3,2.3,1.8c1.5,0.7,1.9,0.8,1.9,1c0,0.3-0.5,0.7-0.9,2.3c-0.1,0.6-0.1,0.9,0,1.3
		c0.1,0.3,0.4,0.5,0.7,0.7c0.7,0.3,1.8,0.4,3,0.4c1.7,0,2.6,0.2,2.9,0.7s0.4,1,0.4,1.7c0,1-0.5,1.5-0.9,2s-0.8,0.9-0.6,1.8
		c0.1,0.5,0.4,0.7,0.8,0.8c0.4,0.1,0.8,0,1.1,0c0.4,0,0.7-0.1,0.9,0.1s0.3,0.7,0,1.5c-0.1,0.3-0.1,0.7-0.1,1.2s-0.3,1-0.8,1.6
		c-0.3,0.3-0.3,0.6-0.2,0.9s0.3,0.7,0.5,1.1s0.4,0.8,0.6,1.1s0.2,0.8,0,1.1c-0.1,0.3-0.4,0.4-0.7,0.4s-0.6-0.1-1-0.2
		c-0.7-0.3-1.5-0.7-2.2-0.7l7.5,9.9l-3.7,1.9l3.3,4.2l-2.4,3.8c-0.2,0.3-0.4,0.3-0.7,0.1c-0.3-0.2-0.7-0.5-1.1-0.9
		c-0.4-0.4-0.7-0.8-1.1-1c-0.4-0.2-0.7-0.3-0.9,0c-0.6,0.6-0.9,1.1-1.1,1.5s-0.1,0.7,0.1,1c0.4,0.6,1.2,1.1,1.9,1.7
		c0.9,0.9,1.3,1.7,1.2,2.4c-0.1,0.7-0.7,1.3-1.7,1.8c-0.7,0.3-1.1,0.6-1.3,0.8c-0.2,0.2-0.2,0.4-0.1,0.7c0.3,0.4,1.2,0.9,2.3,1.8
		c0.4,0.3,0.4,0.8,0.2,1.3c-0.3,0.5-0.8,1-1.3,1.5c-1.1,1-2.5,1.8-2.6,1.9c-1.4,1.1-1.8,1.9-2.3,2.5c-0.3,0.3-0.6,0.5-1.1,0.6
		s-1.2,0.2-2.2,0.2c-0.3,0,0.1,1.2,0.6,2.4c0.5,1.2,1.1,2.5,1.3,2.8c0.1,0.3-0.1,0.5-0.6,0.7s-1.1,0.3-1.9,0.4
		c-1.5,0.2-3.1,0.3-3.6,0.4c-0.3,0.1,0.6,0.7,1.8,1.4s2.3,1.3,2.5,1.4c0.4,0.2,0.5,0.4,0.5,0.7C653.2,457.2,653.2,457.3,653.2,457.4
		z"/>
	<path id="path2406" class="st0" d="M588.3,448.7l0.9,4.9l8-2.8l0.5,5.6l8.5-5.1l4.7-1.9l8.5,0.9v3.3l4.7,0.5l-0.5,6.1l8,1l-7.1,9.4
		l10.4,5.2l3.8-4.3l3.8,6.1l8.9-6.6l-3.3-4.3l5.2-8.9c-0.1-0.3,0-0.6,0-0.8s-0.1-0.5-0.5-0.7c-0.1-0.1-1.4-0.7-2.5-1.4
		s-2.1-1.3-1.8-1.4c0.5-0.1,2.2-0.2,3.6-0.4c0.7-0.1,1.4-0.2,1.9-0.4c0.5-0.2,0.7-0.4,0.6-0.7c-0.1-0.3-0.8-1.5-1.3-2.8
		c-0.5-1.2-1-2.4-0.6-2.4c1,0,1.7-0.1,2.2-0.2s0.8-0.3,1.1-0.6c0.5-0.6,0.9-1.4,2.3-2.5c0.1-0.1,1.5-0.9,2.6-1.9
		c0.6-0.5,1.1-1,1.3-1.5c0.3-0.5,0.3-0.9-0.2-1.3c-1.1-0.9-2-1.4-2.3-1.8c-0.1-0.2-0.1-0.4,0.1-0.7c0.2-0.2,0.6-0.5,1.3-0.8
		c1.1-0.5,1.6-1.1,1.7-1.8c0.1-0.7-0.3-1.5-1.2-2.4c-0.7-0.7-1.5-1.1-1.9-1.7c-0.2-0.3-0.3-0.6-0.1-1s0.4-0.9,1.1-1.5
		c0.2-0.2,0.6-0.2,0.9,0c0.4,0.2,0.7,0.6,1.1,1c0.4,0.4,0.7,0.7,1.1,0.9c0.3,0.2,0.5,0.2,0.7-0.1l2.4-3.8l-3.3-4.2l3.7-1.9l-7.5-9.9
		c0.6,0,1.4,0.4,2.2,0.7c0.4,0.1,0.7,0.2,1,0.2s0.5-0.1,0.7-0.4s0.1-0.7,0-1.1s-0.3-0.8-0.6-1.1c-0.2-0.4-0.4-0.8-0.5-1.1
		c-0.1-0.3-0.1-0.7,0.2-0.9c0.6-0.6,0.8-1.1,0.8-1.6s0.1-0.9,0.1-1.2c0.2-0.8,0.1-1.3,0-1.5s-0.5-0.2-0.9-0.1c-0.4,0-0.8,0.1-1.1,0
		c-0.4-0.1-0.7-0.3-0.8-0.8c-0.2-0.8,0.2-1.3,0.6-1.8c0.4-0.5,0.9-1,0.9-2c0-0.7,0-1.3-0.4-1.7s-1.2-0.7-2.9-0.7c-1.3,0-2.3,0-3-0.4
		c-0.3-0.2-0.6-0.4-0.7-0.7c-0.1-0.3-0.1-0.7,0-1.3c0.4-1.5,0.9-2,0.9-2.3s-0.4-0.3-1.9-1c-1.1-0.5-1.7-1.2-2.3-1.8
		c-0.6-0.6-1.1-1.1-1.9-1.5c-0.6-0.3-1-0.7-1.1-1.1c-0.2-0.4-0.2-0.8-0.1-1.2c0.1-0.8,0.5-1.4,0.4-1.5c-0.9-0.4-1.3-0.8-1.4-1.1
		c-0.1-0.3,0-0.6,0.2-0.9s0.4-0.6,0.4-1s-0.1-0.8-0.6-1.3c-0.8-0.8-2.5-2-3.7-2.9c-0.6-0.5-1.1-0.9-1.4-1.2
		c-0.2-0.3-0.2-0.5,0.4-0.5l4.3-2.8l-2.9-3.8l16.9,5.2c0.6-0.3,0.9-1.1,1.1-1.9c0.1-0.4,0.2-0.7,0.4-1s0.5-0.4,0.8-0.4
		c0.6,0,1.5,0.5,2.2,0.5c0.3,0,0.6-0.1,0.7-0.4s0.1-1-0.1-2c-0.2-0.8-0.3-1.5-0.5-2.3l20.2,10.3l3.3-8.4l0.1-0.3
		c-0.6,0.1-1.2,0.2-1.8,0c-1.4-0.3-2.5-1.5-3.9-1.8c-2.1-0.4-2.8-1.4-4.7-2.4c-1.4-0.7-3-2.5-4.1-2.9c-1.9-0.7-3.8-2-5-3.3
		c-0.7-0.7-1.5-2.8-2.4-3.2c-1.8-0.9-0.8,1.1-2.7,0.6c-1.7-0.4-2.6-0.6-4.1-2.1c-0.9-0.9-1.5-2.1-1.5-3.6c0-1.9-0.1-3.3-2.1-4.1
		c-1.5-0.6-2.6-1.2-2.1-3.2c0.2-0.9,0.8-3.2-1.2-3.2c-2.5,0-2.3-0.5-3.9-2.1c-0.7-0.7-2.5-0.4-3.2-1.2c-0.4-0.4-2.1-2.4-3-2.6
		c-1.1-0.3-2.8,0-4.1-0.3c-1.6-0.4-2-1.3-3.6-2.1c-1-0.5-2.7-0.6-4.2-0.9c-1.3-0.3-2.3-0.9-2.6-2.4c-0.1-0.5-0.4-3.8-1.5-3.6
		c-1.4,0.4-3.1,1.1-4.7,0.3c-1.7-0.8-2.3-1.7-3.6-2.9c-0.9-0.9-2.1-2.1-3.2-3.2c-0.6-0.6-2.1-1.7-2.4-2.7c-0.4-1.5-0.5-2.6-1.8-3.2
		c-1.1-0.6-3.2-0.8-3.6-2.1c-0.3-1.2-1.2-3.2-1.2-4.1c0-0.9,0.2-3.8-0.3-4.4c-1-1.3-2.1-2.5-2.1-3.9c0-1,0.4-3.8-0.3-4.4
		c-0.5-0.5-1.5-2.7-2.1-3c-1.3-0.7-1.6-1.6-2.6-2.6c-0.9-0.9-2-1.9-2.7-3.3c-0.5-0.9-0.8-2.8-1.5-3.6c-0.8-0.8-1.3-1.5-2.1-2.9
		c-0.7-1.4-2.7-2.3-2.7-3.9c-0.2-0.3-2.1-2.4-2.1-2.9c0-1.6,0-3.1-0.9-4.2c-1.5-2-1.8-1.8-1.2-4.1c0.2-0.9,1.3-2.8,0.9-3.6
		c-0.5-1-1.6-2-2.1-3c0,0-1.7-3.4-0.9-3.8c0.8-0.4,3-0.9,2.1-2.7c-0.6-1.2-1.8-1.8-1.8-3.6c0-2.1,0.5-2.6,0.9-4.4
		c0.3-1.2,0.2-2.6,0.6-4.2c0.2-0.8,1.7-3.5,1.5-4.4c-0.4-1.8-1.1-2.6-1.8-3.9c-0.2-0.5-1.8-2.2-1.8-3.2c0-2-1.3-2.7-1.8-4.7
		c-0.2-0.9-0.5-2.7-1.4-3.2c-1.8-1.1-2.3-1.6-2.7-2.4c-0.8-1.7-2.2-3.4-3.9-4.4c-0.9-0.5-3.6-2.3-3.6-3c0-1.1,1.3-2.9,0.6-3.8
		c-0.8-1-2-2.2-3-3c-0.5-0.4-6.1-3.3-5.9-3.6c0.8-1,2.7-1.1,3-2.4c0.6-2.5-1-1.1-1.8-2.7c-0.5-1,1.1-2.5,0.3-3.2
		c-0.1-0.1-2.7-2.3-2.7-2.4c0.2-0.9,0.4-1.6,0.6-2.3l-0.4,0.2c-0.7-0.2-1.3-0.2-1.8-0.1c-0.5,0.1-0.8,0.3-1.2,0.5s-0.8,0.4-1.2,0.4
		s-1-0.1-1.6-0.4c-0.7-0.3-1.6-0.4-2.6-0.4s-2.1,0-3.1,0c-0.4,0-0.7-0.2-0.8-0.6c-0.1-0.3-0.2-0.8-0.2-1.4c0-1,0.1-2.3-0.3-3
		c-0.5-1-1.1-1.5-1.9-1.8c-0.8-0.3-1.7-0.3-3-0.3c-1.6,0-3.1-0.3-4.6-0.5l12.7,23.1l8.3-2.8l-8.8,17l6.9,16.1
		c0.8,0.3,1.5,0.6,2.3,0.9c0.3,0.1,0.3,0.5,0.1,0.9c-0.2,0.5-0.5,1-0.8,1.6c-0.7,1.1-1.6,2.1-1.6,2.1c-0.4,0.4-0.6,0.8-0.7,1.2
		c0,0.3,0.1,0.6,0.4,0.9c0.5,0.5,1.5,0.9,2.1,1.2c0.5,0.2,0.6,0.6,0.6,1s-0.2,1-0.4,1.5c-0.5,1.1-1.1,2.4-1.1,3.4
		c0,0.4,0.2,0.7,0.5,0.8s0.7,0.2,1,0.3s0.6,0.2,0.7,0.5c0.1,0.3,0,0.8-0.4,1.6c-0.6,1.2-0.8,1.9-0.6,2.5c0.1,0.6,0.6,1.1,1.1,2.1
		c0.5,1.1,0.5,1.8,0.4,2.5s-0.2,1.5,0,2.6c0.1,0.5,0.4,0.8,0.8,1.1c0.4,0.2,1,0.4,1.5,0.5c1.1,0.3,2.4,0.5,3.2,1.2
		c0.3,0.3,0.2,0.6-0.2,0.9c-0.3,0.3-1,0.6-1.6,0.9c-1.3,0.5-2.7,0.9-2.9,1c-0.4,0.1-0.7,0.4-0.9,0.7c-0.2,0.4-0.3,0.8-0.4,1.3
		c-0.1,1-0.2,2.2-0.6,3c-0.6,1.2-1,1.8-1.1,2.4c-0.1,0.6,0.3,1,1.1,1.8c0.8,0.8,1.4,1.3,1.9,1.8s0.7,0.8,0.9,1.4
		c0.4,1.4,0.6,2.1,1.1,2.5s1.3,0.4,2.6,0.7c0.3,0.1,0.1,1.2,0,2.5c-0.1,1.3-0.4,2.6-0.4,3.1c0,2.8-0.9,2.7-0.9,5.5l-8.3,5.1
		c0,0.6,0.2,1.2,0.5,1.8s0.8,1.2,1.3,1.8c0.9,1.1,2,2,2.4,2.4c0.6,0.6,1.5,0.8,2.6,0.9s2.3,0.2,3.4,0.5c1.3,0.3,3.3,2.1,4.6,2.8
		v27.6l-1.4,5.5l8.8,6.9l6.9,12.5l2.8-3.2l5.5,3.2l3.7,0.9l9.7,10.1l-0.4,3.2l-2.8,3.2l1.8,9.2h-10.6v9.2l-20.8,17.5l-0.4,8.7h-6.5
		L569,417l0.2,0.7l15.7,23l6.5,5L588.3,448.7z"/>
	<path id="path3263" class="st0" d="M416,306.9l5.6,2.6l-1.4,3.7l5,3.2v-6.9l22.6,0.9v8.3l8.3,0.9l0.5,14.3H481
		c0,0.8-0.1,1.2-0.3,1.4c-0.2,0.2-0.4,0.2-0.7,0.1s-0.5-0.2-0.7-0.2s-0.5,0.1-0.7,0.4c-0.5,1-0.5,1.6-0.4,2.4s0.4,1.6,0.4,3.2
		c0,0.5,0.2,2.2,0.4,3.6c0.1,0.7,0.3,1.4,0.4,1.8c0.2,0.5,0.3,0.7,0.5,0.5c0.5-0.5,1-0.8,1.7-1.1c0.6-0.2,1.4-0.4,2-0.4
		c2.7,0,3.9,0.5,6.4,0.5c0.5,0,2,0.3,3.3,0.7c0.6,0.2,1.2,0.5,1.6,0.7c0.4,0.3,0.5,0.5,0.2,0.8c-0.5,0.5-1.4,1.5-1.8,2.5
		c-0.2,0.5-0.3,0.9-0.2,1.3s0.5,0.7,1.1,0.8c0.8,0.2,2.3,0.2,3.5,0.3c0.6,0,1.1,0.1,1.4,0.3s0.4,0.4,0.2,0.8
		c-0.9,1.8-1.2,2.4-0.9,2.7c0.3,0.3,1.2,0.4,2.8,1c0.8,0.3,1.6,0.6,2.3,0.9l14.7,18.4c0.8,0,1.4,0.1,1.7,0.2s0.5,0.3,0.7,0.6
		c0.3,0.5,0.3,1.1,1.3,1.5c0.7,0.4,1.8,0.8,2.9,0.9c0.5,0.1,1.1,0.1,1.6-0.1c0.5-0.1,1-0.4,1.5-0.8c0.4-0.4,1-1.2,1.8-1.7
		c0.4-0.3,0.9-0.5,1.4-0.5s1.1,0.1,1.8,0.4c0.5,0.2,1.1,1.4,1.6,2.5s0.9,2.2,1.2,2.2c0.7,0,2,0.6,2.7,1.3c0.4,0.4,0.6,0.8,0.6,1.2
		c0,0.4-0.3,0.8-1,1.2c-1.2,0.6-1.8,0.9-2.1,1.3s-0.3,0.9-0.3,1.9c0,1.4-0.1,2.4-0.4,3.2c-0.3,0.8-0.7,1.5-1.5,2.3
		c-0.7,0.7-2.1,0.8-3.3,1c-0.6,0.1-1.1,0.2-1.4,0.4c-0.3,0.2-0.5,0.5-0.3,0.9c0.3,0.5,0.3,1,0.2,1.4s-0.2,0.6-0.4,0.9
		c-0.4,0.5-0.9,0.8-0.7,1c0.7,0.7,1,1.1,1.1,1.4c0,0.3-0.2,0.4-0.5,0.5s-0.7,0.2-1,0.4c-0.3,0.2-0.5,0.5-0.5,1
		c0,0.8,0.1,1.4,0.3,1.9s0.5,0.8,0.7,1.1c0.6,0.6,1.3,1.1,1.8,2.1c0,0,1,1.1,2.1,2c0.5,0.5,1,0.9,1.4,1.1s0.7,0.1,0.7-0.3
		c0-0.9,0.1-1.5,0.2-1.9s0.4-0.6,0.7-0.6c0.7-0.1,1.7,0.2,3.2,0.2c0.6,0,1.3,0.4,2,0.9s1.4,1.2,2,1.9c0.6,0.7,1,1.3,1.2,1.8
		c0.1,0.2,0.1,0.4,0,0.5s-0.3,0.2-0.6,0.1l8.3,0.4l5.1-3.7l2.3,5.5l7.9-4.1l3.2,5h6.5l0.4-8.7l20.8-17.5v-9.2h10.6l-1.8-9.2l2.8-3.2
		l0.4-3.2l-9.7-10.1l-3.7-0.9l-5.5-3.2l-2.8,3.2l-6.9-12.5l-8.8-6.9l1.4-5.5v-27.6c-1.3-0.7-3.3-2.4-4.6-2.8
		c-1.1-0.3-2.3-0.4-3.4-0.5c-1.1-0.1-2-0.3-2.6-0.9c-0.4-0.4-1.4-1.3-2.4-2.4c-0.5-0.6-0.9-1.1-1.3-1.8c-0.3-0.6-0.5-1.2-0.5-1.8
		l8.3-5.1c0-2.8,0.9-2.7,0.9-5.5c0-0.5,0.3-1.8,0.4-3.1c0.1-1.3,0.3-2.4,0-2.5c-1.3-0.3-2.1-0.4-2.6-0.7c-0.5-0.4-0.7-1-1.1-2.5
		c-0.1-0.6-0.4-0.9-0.9-1.4s-1.1-1-1.9-1.8c-0.8-0.8-1.1-1.3-1.1-1.8s0.5-1.2,1.1-2.4c0.4-0.8,0.4-2,0.6-3c0.1-0.5,0.2-0.9,0.4-1.3
		s0.5-0.6,0.9-0.7c0.2,0,1.6-0.4,2.9-1c0.6-0.3,1.2-0.6,1.6-0.9c0.3-0.3,0.5-0.6,0.2-0.9c-0.7-0.7-2-0.9-3.2-1.2
		c-0.6-0.1-1.1-0.3-1.5-0.5c-0.4-0.2-0.7-0.6-0.8-1.1c-0.3-1.1-0.1-1.9,0-2.6c0.1-0.7,0.1-1.4-0.4-2.5c-0.5-1-0.9-1.5-1.1-2.1
		c-0.1-0.6,0-1.2,0.6-2.5c0.4-0.8,0.4-1.3,0.4-1.6c-0.1-0.3-0.4-0.4-0.7-0.5s-0.7-0.2-1-0.3s-0.5-0.4-0.5-0.8c0-1,0.7-2.3,1.1-3.4
		c0.2-0.6,0.4-1.1,0.4-1.5s-0.2-0.8-0.6-1c-0.6-0.3-1.6-0.7-2.1-1.2c-0.3-0.3-0.4-0.5-0.4-0.9c0-0.3,0.2-0.7,0.7-1.2
		c0,0,0.9-1,1.6-2.1c0.4-0.5,0.7-1.1,0.8-1.6c0.2-0.5,0.2-0.8-0.1-0.9c-0.8-0.3-1.5-0.6-2.3-0.9l-6.9-16.1l8.8-17l-8.3,2.8
		l-12.8-23.2c-0.9-0.1-2-0.1-2.9-0.3c-1-0.2-2.2-0.3-3.3-0.1c-1.1,0.1-2.2,0.4-2.9,0.5c-0.4,0.1-0.6,0.3-0.8,0.7
		c-0.2,0.3-0.2,0.7-0.3,1.2c-0.1,0.9,0,1.9-0.2,2.7c-0.1,0.6-0.5,0.8-1,0.8s-1.2-0.2-1.8-0.5c-1.4-0.6-3-1.5-4.2-1.5
		c-0.9,0-1.8,0.3-2,0.4l0.4,16.5l-5.7,0.8l-0.4,5.4h-6.5v-13.6l-8.6,0.4v9.4l-9,0.4v5.7l-14,0.8l-0.8,6.2h-4.5v-4.1l-6-3.7l-0.2,0.3
		c-0.3,0.5-0.8,0.9-1.4,1.2s-1.2,0.5-1.9,0.6c-1.4,0.2-3,0.2-4.1,0.2c-1,0-1.3,0.5-1.7,0.8c-0.2,0.2-0.5,0.3-0.9,0.4s-1,0-1.8-0.2
		c-0.4-0.1-0.7,0.1-1,0.4c-0.2,0.3-0.4,0.8-0.6,1.4c-0.2,0.5-0.3,1.1-0.5,1.6s-0.5,0.9-0.9,1.1c-1.4,0.7-1.8,1.1-1.8,1.7
		s0.8,1.2,1.8,2.2c0.6,0.6,0.7,1.5,0.7,2.2c0,0.8-0.2,1.5-0.2,1.7c0,0.5,0.3,0.8,0.7,1s0.9,0.3,1.5,0.4c1.2,0.2,2.5,0.3,3.2,1
		c0.4,0.4,0.6,0.9,0.6,1.5s-0.1,1.3-0.3,1.9c-0.3,1.3-0.8,2.6-0.8,3.4c0,0.5-0.2,0.6-0.5,0.4c-0.3-0.2-0.7-0.7-1.2-1.2
		c-1-1.1-2.2-2.6-3.2-3.1c-0.7-0.3-1.2-0.5-1.8-0.6c-0.5,0-0.9,0-1.4,0.2c-0.8,0.3-1.5,1-2.3,1.8c-0.7,0.7-1.3,1.4-1.8,2.1
		c-0.5,0.7-0.9,1.5-1.1,2.4c-0.2,0.6-0.4,1.1-0.7,1.4c-0.3,0.3-0.7,0.5-1.2,0.6c-0.9,0.2-2.1,0-3.5,0c-0.2,0-0.3,0.4-0.5,0.5
		l-10.8,6.8l-7.9,8.3l0.5,3.9l18.2,1v22.6L430,274l0.5,16.2l-11.3,0.5l9.8,7.3c-0.5,0-0.8,0.3-1.1,0.7c-0.2,0.4-0.3,1-0.4,1.6
		c-0.1,1.2,0,2.5,0,3.1l-7.4,1l-2-2.9l-1.9,2.9L416,306.9z"/>
	<path id="path3236" class="st0" d="M192.7,135.8l-0.5,11.6c0.8,0,2.2,0.2,3.2,0.5c0.5,0.2,0.9,0.4,1.2,0.6c0.2,0.2,0.3,0.5,0,0.8
		c-0.7,0.7-1,1.2-1.1,1.6c-0.1,0.4,0,0.7,0.3,1c0.5,0.5,1.7,0.8,2.9,1.4c1.5,0.7,2.4,1,3.2,1.4c0.8,0.3,1.4,0.7,2.2,1.6
		c1.2,1.2,1.5,1.6,1.6,2.1c0.1,0.4-0.1,0.8-0.1,1.8c0,0.6,1.5,4.4,1.5,4.4c-2.4,1.2-3.1,1-3,1.1c0,0.1,0.3,0.2,0.6,0.6
		c0.3,0.4,0.6,1.1,0.9,2.2v10.8l-9.8,0.5l9.8,11.3v10.3l-5.9,2.9l2.5,57.8l-26.9,0.5c0.4,1.1,0.7,1.4,1,2.4c0.3,1.1,0.8,2.1,1.6,2.8
		c0.4,0.4,0.9,0.6,1.4,0.8c0.6,0.2,1.2,0.3,1.9,0.3c1.5,0,2.3,0.2,2.5,0.4c0.3,0.3,0.1,0.6-0.2,1.1c-0.3,0.5-0.7,1-0.9,1.6
		c-0.2,0.6-0.2,1.2,0.4,1.8c1,1,1.6,1.3,2.3,1.5c0.7,0.2,1.4,0.1,2.6,0.4c0.9,0.2,1.9,0.5,2.9,0.9s1.9,0.9,2.5,1.5
		c0.7,0.7,1.1,1.2,1.1,1.5c0,0.3-0.2,0.6-0.5,0.7c-0.3,0.2-0.7,0.3-0.9,0.7c-0.2,0.3-0.4,0.8-0.2,1.5c0.2,0.9,0.7,2,0.8,2.9
		c0.1,0.5,0.1,0.9-0.1,1.4c-0.2,0.4-0.6,0.8-1.2,1.1c-0.4,0.2-1.6,1-2.4,1.8c-0.4,0.4-0.7,0.8-0.7,1.1c0,0.3,0.1,0.5,0.7,0.5
		c1.2,0,2.3-0.1,3.2-0.4c1-0.3,1.8-0.8,2.6-1.6c0.4-0.4,1.6-1.6,2.7-2.3c0.6-0.4,1.1-0.6,1.6-0.6s0.9,0.3,1.1,1
		c0.4,1.5,0.1,2.3-0.2,3.1c-0.3,0.8-0.7,1.6-0.7,2.8c0,0.8,0.1,1.4,0.3,1.8c0.2,0.4,0.4,0.6,0.7,0.8c0.6,0.4,1.3,0.7,1.9,1.8
		c0.4,0.7,0.1,1.6-0.1,2.5s-0.4,1.8,0.1,2.4c0.7,1,1.2,1.7,1.5,2.2c0.3,0.6,0.4,1.1,0.4,1.7c0,1,0.2,2.8,0.6,3.8
		c0.2,0.5,0.4,0.9,0.7,0.9c0.3,0,0.7-0.3,1.1-1.2c0.2-0.5,1.1-1.4,1.9-2.1c0.4-0.3,0.8-0.5,1.1-0.5s0.4,0.1,0.4,0.6
		c0,1.5-0.3,2.3-0.7,3.1c-0.4,0.8-0.7,1.5-0.7,2.8c0,0.5,0.2,1,0.5,1.4s0.6,0.9,1,1.3c0.8,0.8,1.5,1.4,1.4,1.7
		c-0.1,0.3-1.3,1.2-2.5,2.2s-2.4,2-2.4,2.6c0,0.5,0.2,0.9,0.5,1.3c0.3,0.4,0.7,0.8,1.1,1.2s0.8,0.7,1,1.1c0.3,0.4,0.4,0.8,0.3,1.3
		c0,0.1-0.3,1.3-0.3,2.3c0,0.5,0.1,1,0.4,1.3s0.7,0.4,1.4,0.3c0.7-0.2,1.2-0.3,1.5-0.6c0.3-0.2,0.5-0.5,0.7-0.8
		c0.3-0.6,0.5-1.4,1.3-2.5c0.5-0.6,1-1.7,1.7-2.4c0.4-0.4,0.8-0.6,1.2-0.7c0.4-0.1,0.9-0.1,1.5,0.2c1.6,0.8,2.2,1.6,2.9,1.8
		c0.3,0.1,0.6,0.1,1.1-0.2c0.5-0.3,1.1-0.8,1.9-1.6l10.8,0.5l14.3-2.9l1.4,5.4l10.3-2.5l5.9,4l7.4,0.5l4.9,1.4l4.9-5.4l7.4,0.5
		l4.9,4.4l2.5-4.4l7.4-0.5l3.9-3.9l16.2,2.5c1.2-0.3,3.1-1.2,3.9-2c0.7-0.7,1.3-1.3,2-2L321,308v-4.9l-6.9-1.4l-1-10.3
		c0.7,0.3,1.3,0.6,2,1c0.5,0.3,0.8,0.4,1.1,0.3c0.2,0,0.4-0.2,0.6-0.4c0.3-0.5,0.6-1.2,1.8-1.8c0.7-0.4,1.1-0.6,1.2-0.8
		c0.1-0.2,0-0.3-0.1-0.4c-0.4-0.2-1.1-0.3-1.1-0.7l-7.9-9.3l2.9-4.4l-13.3-2.9l-3.4-12.2l-4.9-13.3c1.8-0.9,2.7-1.7,3.1-2.5
		c0.4-0.8,0.4-1.4,0.4-1.9c0-0.6-0.2-1-0.5-1.2s-0.7-0.3-1-0.5c-0.4-0.1-0.7-0.3-0.9-0.6s-0.2-0.8,0-1.6c0.1-0.4,0.7-0.7,1.3-1.4
		c0.3-0.3,0.6-0.8,0.8-1.4c0.2-0.6,0.4-1.3,0.4-2.2c0-1.5,0-2.7-0.2-3.7s-0.5-1.8-1.3-2.6c-0.9-0.9-1.2-1.6-1.5-2.2
		c-0.3-0.6-0.7-1.1-1.9-1.7c-1-0.5-1.2-1.2-1.7-2c-0.2-0.4-0.5-0.8-0.9-1.1s-1-0.6-1.8-0.8c-1.8-0.4-4.2-2.3-5.4-2.9
		c-1.5-0.7-3-0.7-4.3-0.9c-0.6-0.1-1.2-0.3-1.5-0.7c-0.4-0.4-0.6-0.9-0.6-1.8c0-1.3-0.4-2.2-1.1-2.9c-0.7-0.7-1.6-1.2-2.9-1.5
		c-1.3-0.3-1.8-1-2.3-1.5c-0.3-0.3-0.5-0.4-0.9-0.5s-0.9-0.1-1.7,0.1c-1,0.2-1.4,0.4-2,0.3c-0.6-0.1-1.3-0.5-2.9-1.3
		c-1.2-0.6-1.9-1.1-2.4-1.4c-0.5-0.3-0.9-0.5-1.5-0.5c-0.2,0-2.7,4.2-2.9,4.4c-0.5,0.5-1,0.8-1.4,0.9s-0.9,0.1-1.2,0.1
		c-0.4,0-0.7,0.1-1.1,0.4c-0.4,0.3-0.8,0.7-1.2,1.6c-0.6,1.2-1.2,1.9-1.9,2.2s-1.5,0.2-2.5-0.3s-2.3-0.7-3.4-1l6.4-8.8l-12.7-9.6
		l15.2-15.7l5.4-9.8h-9.8l7.9-11.8l-10.9-10.7l7.9,0.5l4.4-4.4l1-5.4c-0.5-0.3-0.9-0.8-1.1-1.5c-0.2-0.7-0.2-1.5-0.1-2.3
		c0.1-0.8,0.3-1.5,0.7-2.1c0.4-0.6,0.9-0.9,1.5-0.9c0.9,0,1.5-0.1,1.8-0.4s0.4-0.6,0.4-1c0-0.8-0.6-2-0.8-3
		c-0.4-1.4-0.2-2.6-0.4-3.5c-0.1-0.4-0.3-0.8-0.7-1c-0.4-0.2-1-0.4-1.8-0.4c-1.4,0-2.8-1-4.9-1l-0.2-0.1c-0.2,0.1-0.3,0.3-0.7,0.4
		c-1,0.1-2.3-0.1-2.8-0.2c-1-0.3-2.1-0.3-3-0.2s-1.7,0.4-2.1,0.6c-0.6,0.3-1.1,1-1.5,1.7c-0.4,0.7-0.8,1.4-1.2,1.8
		c-0.4,0.4-0.9,1.4-1.2,2.4c-0.4,1-0.6,1.9-0.7,2.3c-0.5,1.9-1.2,2.6-1.6,4.3c-0.2,0.7-0.3,0-0.5-1.1c-0.2-1-0.5-2.4-1-2.9
		c-0.4-0.4-0.9-0.6-1.4-0.6s-1,0.2-1.5,0.4c-0.9,0.5-1.7,1.3-1.8,1.8c-0.3,1.3-0.3,2.1-0.3,2.8c0,0.7-0.1,1.2-0.9,1.9
		c-1.2,1.2-2.1,1.7-3.1,2.7c-0.2,0.2-0.5,0.1-0.9-0.3c-0.4-0.4-0.8-0.8-1.2-1.3c-0.8-1.1-1.4-2.2-1.4-2.3c-0.4-1.7-1.2-2.6-1.6-4.3
		c-0.1-0.6-1.2-2.3-1.2-2.4l-7.8-1.1l-5.1,10.4L192.7,135.8L192.7,135.8z"/>
	<path id="path2482" class="st0" d="M250.4,118.9l0.2,0.1c2.1,0,3.5,1,4.9,1c0.9,0,1.5,0.1,1.8,0.4s0.6,0.6,0.7,1
		c0.2,0.9,0.1,2.1,0.4,3.5c0.3,1,0.8,2.2,0.8,3c0,0.4-0.1,0.8-0.4,1s-0.9,0.4-1.8,0.4c-0.6,0-1.1,0.4-1.5,0.9s-0.6,1.3-0.7,2.1
		c-0.1,0.8-0.1,1.6,0.1,2.3c0.2,0.7,0.6,1.2,1.1,1.5l-1,5.4l-4.4,4.4l-7.9-0.5l10.8,10.8l-7.9,11.8h9.8l-5.4,9.8l-15.1,15.7
		l12.2,9.3l-6.4,8.8c1.1,0.3,2.4,0.5,3.4,1s1.8,0.6,2.5,0.3s1.3-1.1,1.9-2.2c0.4-0.8,0.8-1.3,1.2-1.6s0.7-0.4,1.1-0.4
		c0.4,0,0.8,0,1.2-0.1s0.9-0.4,1.4-0.9c0.2-0.2,2.8-4.4,2.9-4.4c0.7,0,1,0.2,1.5,0.5s1.2,0.8,2.4,1.4c1.6,0.8,2.4,1.2,2.9,1.3
		c0.6,0.1,1-0.1,2-0.3c0.8-0.2,1.3-0.2,1.7-0.1c0.4,0.1,0.7,0.3,0.9,0.5c0.5,0.5,1,1.2,2.3,1.5c1.2,0.3,2.2,0.8,2.9,1.5
		s1.1,1.7,1.1,2.9c0,0.9,0.2,1.4,0.6,1.8c0.4,0.4,0.9,0.6,1.5,0.7c1.2,0.2,2.8,0.2,4.3,0.9c1.2,0.6,3.6,2.5,5.4,2.9
		c0.8,0.2,1.4,0.5,1.8,0.8s0.7,0.7,0.9,1.1c0.4,0.8,0.7,1.5,1.7,2c1.1,0.6,1.5,1.1,1.9,1.7c0.3,0.6,0.6,1.3,1.5,2.2
		c0.8,0.8,1.1,1.6,1.3,2.6s0.2,2.2,0.2,3.7c0,0.9-0.2,1.6-0.4,2.2c-0.2,0.6-0.5,1-0.8,1.4c-0.6,0.7-1.2,1-1.3,1.4
		c-0.2,0.8-0.1,1.3,0,1.6s0.5,0.5,0.9,0.6s0.7,0.3,1,0.5s0.5,0.6,0.5,1.2c0,0.5,0,1.2-0.4,1.9c-0.4,0.8-1.3,1.6-3.1,2.5l4.9,13.3
		l3.4,12.2l13.3,2.9l-2.9,4.4l7.9,9.3c0,0.4,0.7,0.5,1.1,0.7c0.2,0.1,0.3,0.2,0.1,0.4c-0.1,0.2-0.5,0.5-1.2,0.8
		c-1.1,0.6-1.5,1.3-1.8,1.8c-0.2,0.2-0.3,0.4-0.6,0.4c-0.2,0-0.6,0-1.1-0.3c-0.7-0.3-1.3-0.6-2-1l1,10.3l6.9,1.4v-7.3h11.3l-1.5,5.4
		l4.9,6.9l-1.5-6.9l5.4-5.4l11.8,1l3.5,5.4l11.8-1l-4.4-6.8l8.3-5.4l4.4,3.9l13.3,3.4l26-1.4l-2.5,4.4l1,7.8l3.5,0.5l0.5-3l1.9-2.9
		l2,2.9l7.4-1c0-0.6-0.1-1.9,0-3.1c0.1-0.6,0.2-1.2,0.4-1.6c0.2-0.4,0.6-0.7,1.1-0.7l-9.8-7.3l11.3-0.5l-0.5-16.2l6.4,0.5v-22.6
		l-18.2-1l-0.5-3.9l7.9-8.3l10.8-6.8c0.2-0.2,0.3-0.5,0.5-0.5c1.3,0,2.5,0.2,3.5,0c0.5-0.1,0.9-0.3,1.2-0.6s0.6-0.7,0.7-1.4
		c0.2-0.9,0.6-1.7,1.1-2.4s1.1-1.4,1.8-2.1c0.8-0.8,1.5-1.5,2.3-1.8c0.4-0.2,0.9-0.3,1.4-0.2c0.5,0,1.1,0.2,1.8,0.6
		c0.9,0.5,2.2,1.9,3.2,3.1c0.5,0.6,0.9,1,1.2,1.2s0.5,0.1,0.5-0.4c0-0.7,0.5-2.1,0.8-3.4c0.2-0.7,0.3-1.3,0.3-1.9
		c0-0.6-0.2-1.1-0.6-1.5c-0.7-0.7-2-0.8-3.2-1c-0.6-0.1-1.1-0.2-1.5-0.4s-0.7-0.5-0.7-1c0-0.2,0.2-0.9,0.2-1.7s-0.1-1.6-0.7-2.2
		c-1-1-1.7-1.6-1.8-2.2s0.4-1,1.8-1.7c0.4-0.2,0.7-0.6,0.9-1.1s0.4-1.1,0.5-1.6c0.2-0.5,0.3-1,0.6-1.4c0.2-0.3,0.5-0.5,1-0.4
		c0.9,0.2,1.4,0.3,1.8,0.2s0.7-0.2,0.9-0.4c0.4-0.4,0.6-0.8,1.7-0.8c1.1,0,2.7,0,4.1-0.2c0.7-0.1,1.4-0.3,1.9-0.6s1.1-0.7,1.4-1.2
		l0.2-0.3l-0.6-0.4l-4.9-8.6c0-0.7,0-1.4,0-2.1c0-2.4-0.4-4.2,0-5.7c0.1-0.5,0.3-0.8,0.6-1c0.2-0.2,0.5-0.3,0.7-0.4
		c0.2-0.1,0.3-0.3,0.2-0.6c0-0.3-0.2-0.8-0.7-1.7c-0.7-1.4-0.6-2.1-0.5-2.7c0.1-0.6,0.1-1-0.7-1.8c-0.6-0.6-1.2-1.1-1.9-1.5
		c-0.7-0.4-1.4-0.7-2.2-0.9s-1.5,0.2-2.2,0.8c-0.6,0.6-1.2,1.3-1.5,1.7c-0.4,0.4-1,0.6-1.8,0.8c-0.8,0.2-1.6,0.3-2.3,0.4l1.6-23.4
		l-7-3.3l3.3-17.7l-8.3-4.1l-7.8-6.6l-8.6-0.4l0.4,3.7h-24.7v-8.6c0.4-0.5,0.8-1.1,1.2-1.6c1.1-1.5,1.6-1.9,1.8-2.1
		c0.2-0.2,0.1-0.1,0.3-0.8c0.1-0.4,0-0.6-0.4-0.5c-0.3,0-0.8,0.3-1.3,0.6c-1.1,0.6-2.4,1.4-3.2,1.6c-0.6,0.2-1,0-1.3-0.3
		c-0.3-0.3-0.4-0.8-0.5-1.3c-0.2-1.1-0.1-2.5-0.3-3.3c-0.4-1.7-1.3-2.9-1.7-4.5c-0.3-1.1-0.2-2.1-0.3-3.1c0-1-0.1-1.9-0.5-2.7
		c-0.2-0.3-0.5-0.5-0.8-0.6s-0.7-0.1-1.1,0c-0.8,0.1-1.8,0.5-2.6,0.7c-0.5,0.1-0.8,5.2-0.8,5.4c-0.1,0.3-1.5,0.2-2.9,0
		c-1.4-0.2-2.8-0.5-2.9-0.5c-1.4-0.3-2.3,0-2.9-0.1c-0.3,0-0.5-0.2-0.6-0.5c-0.1-0.3-0.2-0.9-0.2-1.8c0-1.4-0.1-2.3,0.1-2.9
		c0.2-0.6,0.7-0.9,1.9-1.2c0.6-0.2,0.9-0.4,1-0.6c0.1-0.2-0.1-0.5-0.3-0.7c-0.5-0.5-1.5-1-1.9-1.2c-1.3-0.6-2-1-2.8-1.3
		c-0.8-0.3-1.7-0.4-3.4-0.4c-1.1,0-2.3-0.4-3.5-0.8c-1.1-0.5-2.2-1.1-2.7-1.6c-1.2-1.2-1.9-2-2-2.5c0-0.3,0-0.5,0.3-0.8
		c0.3-0.2,0.7-0.5,1.3-0.8c0.6-0.3,0.9-0.6,1.1-1c0.2-0.4,0.2-0.8,0-1.2c-0.2-0.8-0.9-1.6-1.5-2.3c-0.8-0.8-1.1-1.5-1.2-2.3
		c-0.1-0.8,0-1.8,0-3.1c0-0.7,0-1.4,0-2.1l-0.1-0.2c-0.1,0.1-0.3,0.1-0.7,0.1c-1-0.2-1.3-0.4-1.5-0.7c-0.2-0.3-0.3-0.6-0.8-0.9
		c-0.7-0.5-1.8-0.6-2.5-1.2c-0.9-0.7-1.1-1.6-1.8-2.3c-0.5-0.5-0.8-0.8-1.2-0.8c-0.3,0-0.6,0.3-0.9,1.3c-0.2,0.9-0.3,2.2,0,3.5
		c0.3,1.1,0.2,1,0,0.7c-0.2-0.3-0.6-1-0.9-1.1c-0.9-0.5-1.4-0.7-1.8-1c-0.4-0.3-0.7-0.7-1.2-1.4c-0.1-0.1-0.8-0.5-1.4-0.8
		c-0.3-0.1-0.7-0.3-0.9-0.2c-0.2,0-0.3,0.2-0.2,0.6c0.1,0.6,0.3,1.1,0.2,1.4c-0.2,0.1-0.5,0.3-1.2,0.3c-1.2,0-2.5,0-3.7,0
		c-1.9,0-1.7,0.2-3.5-0.2c-0.7-0.2-1.1-0.4-1.4-0.7c-0.3-0.3-0.6-0.8-0.9-1.4c-0.5-1-0.9-1.8-1.8-2.3c-0.6-0.3-1-0.5-1.3-0.4
		c-0.2,0.1-0.3,0.5-0.1,1.3c0.2,0.8,0.7,2.2,0.9,3.2c0.4,1.4,0.3,1.5,0,1.5c-0.1,0-0.3,0-0.5,0c-0.2,0.1-0.3,0.3-0.4,0.8L316,75.5
		c0.2-0.6-0.2-1.5-0.6-2.1c-0.2-0.3-0.4-0.5-0.6-0.6c-0.2-0.1-0.4-0.1-0.4,0.2l-15.9-0.4c0,0.9-0.1,1.4-0.2,2.1
		c-0.1,0.5-0.3,2.9-0.7,3.2c-0.6,0.6-1.6,0.9-2.3,1.6c-0.4,0.4-1.8,1.8-2.3,1.8c-0.4,0-1.6,0-2.7-0.1c-1.1-0.1-2.2-0.2-2.4-0.6
		c-0.3-0.8-1-1.4-1.3-1.8c0-0.1,0-0.1,0-0.2h-0.2c-0.9-0.6-3.7-1.3-5-1.9c-1-0.5-1.7-0.7-2.2-0.8c-0.5-0.1-0.9,0-1.4,0
		s-0.7,0.3-0.8,0.7s0,0.9,0.1,1.5c0.2,1.2,0.7,2.7,0.7,3.7c0,1.1,0.1,1.7-0.2,2.2c-0.3,0.4-0.9,0.7-2.1,1c-1.7,0.4-4.1,0-5.9,0
		c-2,0-3.9,0-5.8,0c-1.9,0-4.2,0.1-5.5,0.4c-0.3,0.1-0.6,0.3-0.7,0.6c-0.1,0.3-0.2,0.7-0.2,1.1c-0.1,0.8-0.2,1.7-0.7,2.2
		c-0.2,0.2-0.2,0.5,0,0.8c0.2,0.3,0.5,0.5,0.8,0.8c0.3,0.3,0.7,0.6,0.9,0.9c0.2,0.3,0.4,0.6,0.3,1c-0.3,1.1-0.8,1.4-1.2,1.7
		c-0.2,0.1-0.4,0.3-0.4,0.6c-0.1,0.3-0.1,0.6,0.1,1.3c0.4,1.7,0.4,3.6,0.4,5.5c0,1.3,0.1,2.2-0.1,2.8s-0.6,1.1-1.4,1.5
		c-1,0.5-2,0.5-2.5,0.6c-0.2,0.1-0.3,0.2-0.2,0.4c0.1,0.3,0.5,0.7,1.1,1.3c0.3,0.3,0.3,0.6,0.1,1c-0.2,0.3-0.5,0.7-0.9,1
		c-0.8,0.6-1.8,1.1-1.9,1.1c-0.5,0.2-0.4,0.9-0.6,1.5c-0.1,0.3-0.2,0.6-0.4,0.9c-0.3,0.3-0.7,0.5-1.4,0.7c-0.7,0.2-1.1,0.4-1.2,0.6
		c-0.1,0.2,0,0.4,0.2,0.7c0.4,0.5,1.3,1,1.8,1.5c0.6,0.6,0.8,1,0.7,1.3C250.7,118.8,250.5,118.8,250.4,118.9z"/>
	<path id="path2470" class="st0" d="M361.7,75.7l0.1,0.2c0,0.7,0,1.4,0,2.1c0,1.3-0.1,2.2,0,3.1c0.1,0.8,0.4,1.5,1.2,2.3
		c0.7,0.7,1.3,1.5,1.5,2.3c0.1,0.4,0.1,0.8,0,1.2c-0.1,0.4-0.5,0.7-1.1,1c-0.6,0.3-1,0.5-1.3,0.8c-0.3,0.2-0.4,0.5-0.3,0.8
		c0.1,0.6,0.7,1.3,2,2.5c0.6,0.6,1.6,1.1,2.7,1.6c1.1,0.5,2.4,0.8,3.5,0.8c1.7,0,2.6,0.1,3.4,0.4c0.8,0.3,1.5,0.6,2.8,1.3
		c0.5,0.2,1.4,0.7,1.9,1.2c0.3,0.2,0.4,0.5,0.3,0.7c-0.1,0.2-0.4,0.5-1,0.6c-1.2,0.3-1.7,0.6-1.9,1.2c-0.2,0.6-0.1,1.5-0.1,2.9
		c0,0.9,0,1.5,0.2,1.8c0.1,0.3,0.3,0.5,0.6,0.5c0.6,0.1,1.5-0.2,2.9,0.1c0,0,1.4,0.3,2.9,0.5c1.5,0.2,2.8,0.3,2.9,0
		c0-0.2,0.4-5.2,0.8-5.4c0.8-0.2,1.8-0.5,2.6-0.7c0.4-0.1,0.8-0.1,1.1,0c0.3,0.1,0.6,0.3,0.8,0.6c0.4,0.8,0.5,1.7,0.5,2.7
		s0,2,0.3,3.1c0.4,1.6,1.2,2.8,1.7,4.5c0.2,0.8,0.1,2.2,0.3,3.3c0.1,0.6,0.2,1,0.5,1.3c0.3,0.3,0.7,0.5,1.3,0.3
		c0.8-0.2,2.2-1.1,3.2-1.6c0.5-0.3,1-0.5,1.3-0.6c0.3,0,0.5,0.1,0.4,0.5c-0.2,0.6-0.1,0.6-0.3,0.8c-0.2,0.2-0.6,0.6-1.8,2.1
		c-0.4,0.5-0.8,1.1-1.2,1.6v8.6h24.5l-0.4-3.7l8.6,0.4l7.8,6.6l8.3,4.1l-3.3,17.9l7,3.3l-1.6,23.4c0.7-0.1,1.5-0.3,2.3-0.4
		c0.8-0.1,1.4-0.4,1.8-0.8c0.3-0.3,0.9-1.1,1.5-1.7c0.6-0.6,1.4-1,2.2-0.8s1.5,0.5,2.2,0.9c0.7,0.4,1.3,0.9,1.9,1.5
		c0.8,0.8,0.8,1.2,0.7,1.8c-0.1,0.6-0.2,1.4,0.5,2.7c0.4,0.8,0.6,1.3,0.7,1.7s0,0.5-0.2,0.6c-0.2,0.1-0.4,0.2-0.7,0.4
		c-0.2,0.2-0.4,0.5-0.6,1c-0.4,1.5,0,3.4,0,5.7c0,0.7,0,1.4,0,2.1l4.9,8.6l6.6,4.1v4.1h4.5l0.8-6.2l14-0.8v-5.7l9-0.4v-9.4l8.6-0.4
		v13.6h6.5l0.4-5.4l5.7-0.8l-0.4-16.5c0.3-0.1,1.2-0.4,2-0.4c1.2,0,2.8,0.9,4.2,1.5c0.7,0.3,1.3,0.5,1.8,0.5s0.9-0.2,1-0.8
		c0.2-0.8,0.1-1.8,0.2-2.7c0-0.4,0.1-0.9,0.3-1.2s0.4-0.6,0.8-0.7c0.7-0.2,1.7-0.4,2.9-0.5c1.1-0.1,2.3-0.1,3.3,0.1
		c2.3,0.6,4.8,0.8,7.4,0.8c1.3,0,2.2,0,3,0.3s1.4,0.7,1.9,1.8c0.4,0.8,0.3,2,0.3,3c0,0.5,0,1,0.2,1.4c0.1,0.3,0.4,0.6,0.8,0.6
		c1,0,2.1-0.1,3.1,0c1,0,2,0.1,2.6,0.4c0.7,0.3,1.2,0.4,1.6,0.4c0.4,0,0.8-0.2,1.2-0.4c0.4-0.2,0.7-0.4,1.2-0.5
		c0.5-0.1,1.1-0.1,1.8,0.1l0.4-0.2c0.1-0.4,0.4-0.8,0.4-1.3c0-1.4,0.2-3.3-0.6-4.4c-0.4-0.6-2.4-2.3-1.8-3.6
		c0.3-0.7,1.8-2.4,0.9-3.2c-0.9-0.9-1.4-1.7-2.4-2.7s-2-2.6-3-3.6s-2.6-1.4-2.9-2.7c-0.1-0.3,0.3-1.4-2.1-1.4
		c-1.8,0-2.5,0.1-3.6-0.9c-0.3-0.3-2.5-2.2-1.5-3.2c0.4-0.4,2-1.8,0.9-2.9c-0.7-0.7-2.4-1.6-2.7-2.7c-0.3-1.4-1.2-2.6-3.2-2.1
		c-1.1,0.3-2.5,1.3-2.9,0.9c-0.6-0.6-1.2-1.9-2.1-2.4c-1.4-0.7-1.8-1.8-2.9-2.4c-1.6-0.8-1.3-1.8-2.4-2.9c-1-1-1.9-1.4-3.6-1.8
		c-1.5-0.4-1.8-2.1-2.9-2.4c-1.4-0.3-2.7-0.6-3.9-1.8c-0.9-0.9-1.9-1.1-3.2-1.8c-1.2-0.6-1.7-1.9-2.7-2.4c-1.7-0.8-4.3,0.8-5.6-0.6
		c-0.8,0.2-1.8,0.8-2.4,0.3c-1-1-2.8-2.7-3.9-3.2c-1.1-0.6-2.4-0.1-4.1-0.6c-2.1-0.5-1.8-0.9-3-2.1c-1.4-1.4-1.6-0.7-3.6-1.4
		c-0.1,0-4.3-1.6-3.2-2.1c1.5-0.8,3.1-0.7,2.7-1.4c-0.5-1.1-2.2-2.8-3.3-3c-1.4-0.3-4.4-0.2-5-1.4c-0.6-1.3-1.2-2.4-1.8-3.6
		c-0.8-1.6-2-1.5-3.6-2.7c-1.3-1-2.2-2-2.9-3.6c-0.8-1.6-1.8-2.5-3.9-3c-0.8-0.2-3.6-0.8-4.4-1.4c-1.7-1.3-1.9-1.4-2.4-3.3
		c-0.4-1.5-0.5-3.1-1.2-4.4c-0.8-1.7-0.7-3.3-1.8-4.4c-0.9-0.9-0.9-1.5-1.8-2.4c-1.2-1.2-2.3-1.5-3-2.9c-0.8-1.6-1.9-1.7-3.8-2.7
		c-1.4-0.7-2.8-0.8-4.2-1.5c-1.1-0.6-3.1-1-4.1-2.1c-1.1-1.1-2.8-1.9-3.9-3c-0.8-0.8-2-2-2.9-2.9c-0.8-0.8-2.2-1.3-3-2.4
		c-1.1-1.5-2.2-1.9-3.2-3c-0.1-0.1-0.4-0.4-0.6-0.5l0,0c0.1,0.6,0.1,1.1,0,1.6c-0.1,0.4-0.5,0.8-1.1,1.1c-0.6,0.3-0.7,0.5-0.7,0.8
		s0.1,0.6,0,1.2c-0.2,0.6-0.1,0.9,0.1,1.2c0.2,0.2,0.6,0.4,1,0.6s0.6,1,0.7,1.9c0.1,0.9,0.2,1.8,0.2,2.2c0,1.1,0,2.3,0,3.4
		s0,2.3,0,3.4c0,0.3,0,0.4-0.1,0.3c-0.1-0.1-0.2-0.2-0.3-0.5c-0.2-0.5-0.4-1.2-0.4-1.6c0-0.8-0.2-1.2-0.5-1.3
		c-0.2-0.1-0.5,0.2-0.7,0.8c-0.2,0.6-0.2,1.1-0.4,1.4c-0.2,0.3-0.5,0.6-1,0.9c-0.1,0-2.2-1.5-2.5-1.6c-0.8-0.4-1.6-1.1-2.3-1.6
		c-0.9-0.6-1.6-0.9-2.5-1.1c-0.9-0.2-1.6-1.3-2.3-1.6c-0.7-0.4-1.3-1.6-1.8-2.2c-0.6-0.8-1.1-1.1-1.8-1.8c-0.6-0.6-0.9-0.9-1.1-0.9
		c-0.2,0-0.3,0.1-0.7,0.2s-0.7,0.6-1,1.1s-0.5,1-0.6,1.2c-0.1,0.3-0.4,0.4-0.7,0.4s-0.5-0.1-0.8-0.2c-0.6-0.2-1.2-0.6-1.2-0.7
		c-0.7-0.7-1.2-1.5-2-2.2c-0.3-0.3-0.8-0.5-1.4-0.5s-1.3,0-1.9,0c-0.9,0-1.3-0.4-1.4-0.8c-0.1-0.4,0.2-1,0.5-1.3
		c0.7-0.7,1.2-1.2,1.8-1.8c0.7-0.7,1.1-1.1,1.6-2c0.1-0.2,0.1-0.4-0.1-0.5c-0.2-0.1-0.5-0.2-0.8-0.2c-0.7-0.1-1.4-0.1-1.7-0.2
		c-1.3-0.3-2.2-0.9-3.9-0.9c-0.6,0-0.8-0.1-0.8-0.2c0-0.1,0.1-0.3,0.4-0.4c0.5-0.3,1.3-0.6,1.4-0.7c1-0.5,1.9-0.4,3.2-0.4
		c0.5,0,1.4-1.4,1.8-1.6c0.7-0.3,0.8-0.6,0.8-0.9s-0.2-0.8-0.2-1.6c0-1.3-0.3-2.2-0.7-2.9c-0.2-0.4-2.2-1-2.5-1.3
		c-0.8-0.8-1.7-1.4-2.7-2.3c-0.2-0.2,0-0.6,0.2-1c0.2-0.4,0.5-0.9,0.5-1.4c0-1.2-0.7-1.9-0.7-2.7c0-0.9,0.2-2.1,0.2-3.2
		c0-1-0.2-2.3-0.2-3.4c0-0.5,0-1.1,0-1.6v-0.1c-0.4,0.2-0.9,0.2-1.7,0c-1.4-0.3-2.9-1.6-4.4-1.2c-0.9,0.2-3,0.7-3.6-0.3
		c-0.7-1.4-0.7-2.3-2.1-3c-0.8-0.4-4.5-0.8-4.7-1.2c-0.5-0.9-2.4-1-2.4-2.1c0-1.4-0.2-2.6-1.5-3.1v0.2c-0.5,0.5-0.7,1-1.4,1.6
		c-0.6,0.6-1.1,0.9-1.8,1.6c-0.6,0.6-0.9,1.3-1.6,2.1c-0.2,0.2-1.5,3.2-1.8,3.2c-0.7,0.2-0.9,0.1-1.1-0.3c-0.1-0.3-0.2-0.9-0.6-1.6
		c-0.1-0.2-1.8-3.3-2.1-3s-0.9,1-1.2,2.1c-0.2,0.9-0.7,1.9-0.9,2.8c-0.3,1-0.8,1.8-1.1,3c-0.1,0.6-1.5,2-1.1,2.3
		c0.3,0.3,1.6,1.7,1.6,2.3c0,0.7-0.7,2.7-0.5,3c0.2,0.2,0.9,0.8,1.5,1.4c0.6,0.6,1.1,1.3,1.1,1.6c-0.1,0.4-2.1,2.5-2.1,2.5
		c0.2,0.8,0.7,2.1,0.9,3c0.1,0.2,0.4,1,0.7,1.7s0.5,1.5,0.2,1.8c-0.3,0.2-3.3,0.9-3.5,1.1c-0.2,0.4-0.4,0.9-0.4,1.4s0.3,0.9,1.1,1.1
		c0.6,0.2,1,0.2,1.3,0.5c0.2,0.2,0.2,0.6-0.1,1.4c-0.4,0.9-0.2,1.5-0.2,2.8c0,1.3,0.7,3.2,0.4,4.4c-0.1,0.5-0.2,1.1-0.4,1.5
		s-0.6,0.7-1.2,0.7c-0.2,0-1,0-1.7,0.2c-0.7,0.2-1.4,0.4-1.3,0.7c0.1,0.4,0.4,1,0.4,1.4C361.9,75.4,361.8,75.6,361.7,75.7
		L361.7,75.7z"/>
</g>
</svg>
