<?xml version="1.0" encoding="utf-8"?>
<!-- Generator: Adobe Illustrator 19.0.0, SVG Export Plug-In . SVG Version: 6.00 Build 0)  -->
<svg version="1.1" id="Layer1" xmlns="http://www.w3.org/2000/svg" xmlns:xlink="http://www.w3.org/1999/xlink" x="0px" y="0px"
	 viewBox="0 0 6600 3300" style="enable-background:new 0 0 6600 3300;overflow: hidden; display: inline; width: inherit; min-width: inherit; max-width: inherit; height: inherit; min-height: inherit; max-height: inherit;" xml:space="preserve">
<style type="text/css">
	.st0{fill:#8FD4EB;stroke:#000000;stroke-width:1;}
</style>
<g>
	
	<path onclick="modals(this.id);" id="900" class="st0" d="M3224,1175.7c-2.1-9.6-2.3-9.7-10-10.1c-7-0.4-13,2.6-18.9,5.7c-7.4,4-15,7-23.4,8
		c-10.7,1.2-20.3-0.6-28.1-9.2c4.6-7.4,11.2-6.7,17.8-5.6c10.9,1.9,14.5,1.5,25.9-3.2c-0.7-9.8-7.3-17.9-17.4-21.2
		c-7.3-2.4-7.7-3.8-2.8-9.9c0.8-1,2.1-2,2.3-3.2c2.1-11.4,11.2-16.5,19.9-20.8c20.9-10.2,30.4-27.8,35.1-49.1
		c2-9.2,4.8-17.9,12.5-25.4c-2.6-0.9-4.3-1.6-6-2c-4.8-1.2-9.8-1.9-14.5-3.4c-8.4-2.6-14.9-3.9-22.8,4.4
		c-6.9,7.2-18.3,10.3-28.1,14.5c-4.5,1.9-8.5,3.9-11,8c-8.6,14-21.7,16.2-36.5,14.3c-2-0.2-3.9-0.8-5.9-1.1
		c-13.5-2.1-23.9,3.8-32.9,12.9c-6.6,6.6-12.8,13.6-19.4,20.2c-5.7,5.7-12.1,10.5-20.3,11.8c-6.5,1.1-12.3,0.2-17.6-4.5
		c-9-7.9-18.3-15.3-27.6-22.8c-5.2-4.2-10.7-7.7-17.8-8.4c-3.4-0.4-7.1-2.1-9.7-4.3c-4.8-3.9-10.1-6.1-15.9-7.7
		c-11.5-3.2-15.2-8-15.1-20.1c0-4.6,0.7-9.3,2-13.7c3.8-13.8,7.6-27.5,12.1-41c3.3-10.1,1-16.1-8.5-20.3c-3.8-1.7-7.2-4.3-11.1-6.7
		c1-3.7,0.9-7.1,2.6-9.2c7-9.2,6.8-19.8,6.8-30.4c0-5.2,0.5-9.7,4.9-13.4c2-1.7,3-5,3.7-7.8c4.9-18.4,1.9-36.8-0.5-55.2
		c-1.2-9.5-2.1-19.1-3.5-28.6c-1.6-10.4-6.5-19.4-12.7-27.8c-8.5-11.6-13.7-24.3-13.2-38.9c0.1-3.3,0.6-6.6,1.3-9.8
		c3.5-16,2.3-31.7-3.2-47.1c-1-2.9-3.2-5.9-5.7-7.6c-14.8-10.6-30.7-18.1-49.6-18.5c-8.7-0.2-17.4-3.4-25.7-5.2
		c-2.6-13.7-4.9-26.3-7.7-41.2c4.6,3.9,8,6.6,11.2,9.5c7.4,6.7,15.2,13,22,20.3c5.9,6.3,12.9,7.4,20.8,6.9c7.4-0.5,8.7-1.3,9.8-8.5
		c2.1-14.8,4.1-29.6,6.2-44.4c1.1-7.6,2.3-15.1,3.3-22.7c0.4-2.9,1-6.1,0.3-8.9c-3.4-13.2,2.5-24.8,5.8-36.8
		c0.2-0.6,0.9-1.2,0.9-1.8c0.9-15.6,13.4-23.4,22.4-33.7c2.6-3,5-6.3,8.4-10.6c4.1,4.8,6.6,7.8,8.3,9.7c5.6,1.2,10.4,1.8,15,3.3
		c6,2,11.8,4.6,17.7,6.9c4.1,1.5,8,2.8,12.5,0.8c1.9-0.8,4.5-0.1,6.7,0.1c4,0.3,7.9,1.1,11.9,1.1c14.5,0,19.5-7,15.7-21.4
		c-0.5-1.9-0.2-5.2,1-6.2c14.8-12.1,25.5-28,38.2-42c1.8-2,3.4-4.1,5.3-6c5.4-5.2,11.3-8.6,19.4-8.6c13.6,0,27.2-0.6,40.8-2
		c5.7-0.6,11.4-3.1,16.7-5.5c7.4-3.3,9.5-3.2,14.4,3.1c2.2,2.9,4.2,6,6.9,9.8c-6.3,5.7-12.5,11.3-18.9,17.2c-1.2,3,4,6.7-0.6,9.7
		c-2.9,1.8-5.7,3.8-9.5,6.4c6.1,4.8,7.5,9.4,6.4,16c-1.4,8.4-0.3,17.2-0.3,26.8c7.2,1.4,14.9,2.9,23.6,4.5
		c-2.2,18.4-4.4,36.7-6.7,56.1c10.8,2,20.7,3.9,30.8,5.8c1.3-3.2,2.3-5.5,3.5-8.5c15.4,2,30.8,3.9,47.4,6.1
		c1.2-8.3,2.3-16.3,3.5-25.3c16.9,2.7,33.7,5.4,51.8,8.4c-1.7,14.8-4,29.2-4.7,43.6c-0.6,14.4,4.7,28.3,4.7,43.4
		c2.6,0,4.2,0.2,5.7,0c26.2-4.5,52.4,0,78.6,0.3c21.3,0.2,42.5,1.4,63.8,2.4c20.6,0.9,41.1,2.2,61.7,3.2c9,0.4,18,0.4,27,0.8
		c11.6,0.4,23.2,0.9,34.9,1.4c1.6,0.1,3.2,0.8,5.3,1.3c3.5,16.2,7.1,32.4,10.6,48.6c0.4,1.9,0.6,4.2-0.1,5.9
		c-4.5,9.8,0.8,17.7,5.4,25.1c16.5,25.8,34,51,50.4,76.8c8.2,12.9,14.7,26.8,22.1,40.2c1.6,2.9,3.1,6.1,5.5,8.1
		c10.9,8.7,22.2,16.8,33.2,25.4c6,4.7,13,6.4,20,8.4c20.5,5.7,40.6,12.6,58.3,24.7c4.9,3.3,8.8,8.1,13.2,12.2
		c7.6,7,10.2,7.2,17.3-0.4c5.3-5.7,11.6-9.1,19.1-9.7c5.5-0.5,9.4-2.9,12.7-6.8c2.6-3.1,5.4-6,7.6-9.3c12.2-18.3,25.9-35.4,41.4-51
		c5.8-5.9,10.2-13.1,15.5-19.6c6.2-7.6,14.2-12.6,24.9-16.2c0,6.2,0.3,11.4-0.1,16.5c-1.1,16.3,5.1,30.6,12.1,44.7
		c2.8,5.6,5.5,11.5,9.2,16.5c5.2,6.8,11.2,13,17.2,19.2c7.1,7.4,14.9,14.1,21.7,21.8c7.5,8.5,14.7,16.9,26.6,19.8
		c4.4,1.1,8.6,3.7,12.4,6.3c15.7,10.7,33.6,12,51.7,11.7c5.8-0.1,11.5-2.6,15.9-7.4c5-5.3,10.6-10.1,17-16.2
		c4.2,1.2,9.8,2.7,17.6,4.9c-7.9,4.8-13.8,8.7-20.2,12.1c-5.5,2.9-9.5,6.7-12.7,12.1c-6.8,11.4-14.2,22.5-21.4,33.7
		c-3.5,5.4-5.4,10.9-6.2,17.5c-1.4,11.4-4.5,22.8-7.7,33.9c-1.7,5.9-1.2,10.3,3.6,14.2c2.1,1.7,3.7,3.9,5.9,5.4
		c9.4,6.8,18.7,13.9,28.6,20c10.5,6.4,19.3,14.1,24.6,25.2c3.5,7.3,9.5,9.9,16.8,10.4c6,0.4,12,0.5,17.9,0.1
		c7.4-0.4,14.5-0.3,21,4.2c2.9,2,6.7,2.9,10.1,4.1c5.7,1.9,10.7,4.6,15.5,8.5c5,4.1,11.6,6.2,17.5,9c8.4,4,16.7,8.2,25.3,11.7
		c5.2,2.1,10.7,4,16.2,4.6c24.4,2.4,48.9,4.3,73.4,6.4c5.9,0.5,12,0.6,17.8,1.9c5,1.2,10.7,2.9,14.4,6.2c6,5.3,12.5,6.3,19.4,5
		c7.8-1.5,15.1,0.2,22.7,0.7c8.9,0.5,17.8,0.3,26.7,0.3c11,0,22-0.2,33-0.1c14.4,0.2,28.5-1.1,42.3-5.6c6.6-2.2,13.1-2,18.8,2.8
		c4.5,3.9,9.8,5,15.8,4.8c12.3-0.3,24.6-0.1,38.3-0.1c6.2,12.7,13.2,26.6,19.9,40.6c9.5,19.8,18.8,39.7,28.3,59.5
		c20.7,43.2,41.4,86.4,62.4,129.5c2.4,4.9,2.4,8.2-1.5,12.4c-10.4,11.2-20.4,22.8-30.5,34.3c-11.7,13.5-21.7,27.9-23.2,46.4
		c-0.4,4.9-0.3,9.9,0.5,14.7c1.2,7.8,1.3,15.3-2.2,22.5c-4.2,8.7-8.9,17.1-13.2,25.7c-7.5,15.2-15.2,30.3-22.3,45.7
		c-5.4,11.7-9.3,24.3-15.4,35.6c-10.7,19.9-22.1,39.5-34.2,58.5c-5.7,9-14.7,15-24.9,19.2c-18.5,7.5-30.5,21.7-34.3,41
		c-5.7,28.3-10.9,56.7-19.2,84.4c-4.2,14-1.4,28.5-0.8,42.7c0.2,5.1,3,9.3,9.5,9.5c12.9,0.4,23,7,33,14.7c5.6,4.3,13.1,6.3,19.7,9.4
		c7.5,3.5,15,7,22.4,10.6c8.4,4.1,16.6,8.6,25,12.4c4.8,2.2,6.9,5.4,7.6,10.6c3.3,26,6.9,52,10.4,78c3.7,27.3,7.6,54.6,11.3,81.9
		c0.6,4.2,0.6,8.6,1,13.7c-2.2-0.7-3.8-0.8-4.9-1.6c-7.6-5.3-15.8-8.1-25.1-8.5c-3.5-0.1-7.8-0.6-10.3-2.6
		c-15.2-12.4-33.6-18.8-50.7-27.7c-8.3-4.3-16.4-8.6-23.1-15.4c-4.1-4.1-9.8-7-15.3-9.2c-12-5-24.1-9.7-36.4-13.6
		c-6.9-2.2-12.8-5.3-18-10.1c-1.2-1.1-2.6-2-3.8-3.2c-7.8-7.7-17-9.7-27.5-7.2c-11.3,2.7-22.6,5.6-33.9,7.8
		c-10.7,2.1-21.6,3.6-32.4,5.1c-16.1,2.3-32.2,4.4-48.4,6.5c-14.8,1.9-29.7,3.5-44.4,5.7c-14.1,2.2-28.1,4.8-42.1,7.7
		c-5.1,1.1-10.4,2.9-14.7,5.7c-9.1,6.1-19.2,8.9-29.8,10.6c-9.1,1.5-17.1,4.7-23.6,11.7c-1.6,1.8-5.2,2.4-8,2.6
		c-9.4,0.7-18.9,1.6-26.8,6.6c-8,5.1-15.2,11.7-22.5,17.9c-10.6,9.1-16.3,21.8-23.5,33.3c-2.8,4.5-5.4,9.1-8.8,14.7
		c2.2,2.3,4.8,5,8.1,8.5c-5.4,2.1-10.6,0.5-15.5,0.1c-26.1-2.3-52.2-5.2-78.3-7.6c-31.1-2.9-62.2-5.3-93.2-8.3
		c-4.7-0.5-9.7-2.5-13.6-5.2c-17.6-12.6-34.8-25.7-52.1-38.7c-9.5-7.2-19.4-9.9-31.6-8.4c-7.8,0.9-16.5-1.8-24.1-4.5
		c-11.2-4-22.6-8.1-31.9-16.2c-2-1.7-4.5-3.3-7-3.6c-10.7-1.6-19.1-8-27.3-13.9c-8.8-6.3-13.8-16-17.5-26.1
		c-2.1-5.7-4.1-11.3-10.2-15c-8,3.8-16.6,8.6-26.1,4.9c-10.4-4-19.2-10.6-26.7-18.8c-1.9-2-1.6-6-2.2-8.5c3.6-3.2,7.6-5.3,9.1-8.4
		c2.8-6.1,3.7-12-2.5-18c-6.6-6.4-11.3-14.7-17.3-21.9c-6.6-7.9-13.3-15.8-20.5-23.1c-4.4-4.5-9.8-7.8-16.3-8.9
		c-8.2-1.4-16.2-3.9-24.4-5c-5.7-0.7-9.9-2.9-13.9-6.7c-4.1-3.8-9-6.6-13.5-10c-4.4-3.4-8.6-7.1-13-10.6
		c-11.4-9.2-22.1-19.3-34.3-27.3c-16.7-10.9-31.1-23.9-42.1-40.5c-1.6-2.5-3.7-4.9-4.7-7.6c-6.9-19.5-20.1-34.1-35.4-47.2
		c-7.1-6-13.8-12.5-20.7-18.8c-1-0.9-2.2-1.7-2.7-2.9c-4.7-10.7-11.7-19.1-22.7-23.9c-1.6-0.7-2.7-4.5-2.6-6.7
		c0.6-7.6,1.1-15.3,3-22.7c1.9-7.6,0.4-13.6-4.6-19.2c-1.5-1.7-2.7-3.8-4.3-5.5c-12.6-14.2-18.6-30.9-20-49.9
		c-0.6-8.1-3-16.3-5.3-24.2c-3.7-12.5-3.7-24.6,1.9-36.6c1.8-3.9,2.7-8.2,4.6-12.1c2.8-5.6,5.6-11.3,9.3-16.3
		c6.4-8.7,13.1-17.2,21.5-24.3c2.8-2.4,4.8-6.5,5.6-10.1c4.6-19.7,10.5-39.1,11.6-59.4c0.1-2,0.3-4,0.2-5.9c-0.1-0.9-0.7-1.8-1-2.5
		c-0.5-0.2-0.9-0.4-1.2-0.3c-18.3,5-36.1,0.6-54.1-2.1c-8.2-1.2-16.8-1.8-24.9-0.6c-10.5,1.5-17-4.1-23.7-10.1
		c-5.2-4.6-10-9.5-15.2-14.2c-8.9-7.9-15.6-17.2-19.6-28.4c-0.8-2.4-1.3-5.3-0.7-7.6c1.6-6.2-0.1-10.8-4.9-15
		c-8.2-7.2-16-14.9-24-22.4c-10.8,3.3-18.1,13.5-30.5,13c-3.6-3.6-3.2-11.7-9.7-12.3c-5.3-0.5-10.8,1.5-16.6,2.5
		c-3.6-4.1-4-8.4-0.7-13.9c6.8-11.5,13.6-23.8,12-37.3c-1.1-9.9,1.8-18.3,3.5-27.3c1-5.4,3.5-9.4,8.4-12.8c8-5.6,13.6-13,16.5-23
		c2.8-9.8,7.3-19.2,11.8-28.5c2.6-5.5,8.6-7,14.1-8.2c2.3-0.5,4.7-0.9,6.9-0.5c9.7,1.3,15.1-3.9,18.3-12
		C3213.1,1186.3,3217,1179.6,3224,1175.7z"/>
	<path onclick="modals(this.id);" id="903" class="st0" d="M2605.2,2456.8c-3.5-1.9-6.9-3.9-11.4-6.4c4.5-13.9-2.4-25.5-9-37.5c-4.1-7.4-6.2-16-8.3-24.3
		c-2.4-9.7,3.3-19,12.6-22.8c6.5-2.6,12.8-5.6,19.3-8.1c4.3-1.6,8.9-2.5,13.3-3.7c5.4-1.5,11-2.6,16.3-4.5
		c9.2-3.3,16.6-8.4,21.7-17.6c9.9-17.7,28.4-20,41.9-11.9c1.9,1.1,4.2,1.6,6.9,2.6c3.1-7.3,4.4-14,2.8-21.5c-2.3-11-5-22.1-0.5-33.3
		c2.2-5.4-1.8-9.2-4.6-12.4c-4.5-5.2-6-10.8-6-17.4c0-4-0.4-8-0.9-11.9c-0.8-7-1.9-13.9-10.4-17.9c5.9-4.2,10.6-5.9,17-4.4
		c8.3,2,17,2.5,25.8,3.7c-0.3,0.8-1.1,1.8-1.3,3c-2.4,11.2,0,13.6,11,16c10.4,2.3,19.7,0.3,29-3.5c11.4-4.8,22.7-6.2,35-2.8
		c4.7,1.3,10.5,0.3,15.5-0.8c12.2-2.5,24.3-3.2,36.4,0.6c2.2,0.7,4.9,1.1,6.4,2.6c5.8,5.9,11.6,4.2,18.2,1.6
		c13.9-5.6,28.1-10.6,43.6-7.8c0.6,0.1,1.3-0.1,2,0c25.8,3.9,45.8-7.8,63.8-24.3c5.1-4.7,8.8-10.8,13.1-16.3c8.6-11,16-22.9,27-31.9
		c6.2-5.1,13-8.5,20.6-9c10.1-0.7,20.4-2.1,30.5,2.2c5.1,2.2,11,2.2,16.6,3.1c6.3,1,11.3,3.2,12.3,10.7c0.4,2.8,2.2,5.4,3.9,9.2
		c6.4-2.2,12.4-4.3,18.3-6.4c-0.1-2.6,0-4-0.3-5.2c-1-3.4-1.7-6.6,2.5-8.4c3.7-1.6,7.1-3.4,11,0c5.3,4.5,11.1,8.6,16.7,12.7
		c13.6,9.9,28.4,14,45.1,9.7c27.4-7,54.8-13.7,82.2-20.9c11.6-3,22.8-6,35.2-4.3c15.1,2.1,23.4-5.4,26.3-20.7
		c0.2-1.3,0.5-2.6,0.6-3.6c10.2-6.6,20.6,1.8,30.9-1.5c2.4-3.5,5-7.3,7.5-11c7.2,2.2,14,4.3,23,7c-4.1-17.9,2.8-31.4,9.2-45.1
		c1.3-0.3,2.3-0.6,3.2-0.6c4.9,0.1,10.9,1.9,14-2.7c4-5.9,8-12.3,7.6-20.2c-0.3-4.8-1.8-8.2-7.1-9.3c-5.7-1.2-9.5-3.8-12-10.2
		c-2.8-7.2-11.1-7.3-18-7.9c-4.6-0.4-9.5,0.5-12.3-5.9c8.2-4.9,16.6-5.6,25-0.8c11.7,6.6,23.7,12.1,37.2,13.7
		c2.3,0.3,4.6,0.9,6.9,0.9c21.6,0.1,43.2,0.4,64.8-0.2c6.3-0.2,12.6-3,19.5-4.7c-3.4-12.4-3.5-24.3-13.3-32.8
		c-2.1-1.8-3.1-5.9-2.9-8.9c0.5-6.9,2.1-13.6,3.4-20.9c11.2,1.1,20.9,3.9,28.2,12c6.5,7.1,12.8,14.4,18.9,21.9
		c5.7,6.9,10.9,14.3,16.5,21.3c6.6,8.2,5.2,14.3-4.6,19.1c-0.6,0.3-1,0.8-2,1.5c-1.5,7.3-0.4,14,6.7,18.7
		c7.7,5.1,15.1,10.8,23.2,15.3c7.6,4.2,15.4,0.8,22.9-1.5c1.5-0.4,2.8-1.6,5.2-2.9c2,3.7,3.8,7.1,5.7,10.4c4.9,8.7,8.5,18.4,15,25.6
		c6.9,7.8,16.4,13.3,26.7,16.7c4.7,1.5,9.2,3.7,13.6,6c8.9,4.5,17.5,9.5,26.4,13.8c10,4.7,20.7,7.4,31.9,6.4
		c11.5-1,21.2,2.4,30.3,9.9c12.9,10.5,26.6,20,40,29.9c2.3,1.7,4.5,3.7,6.3,7.1c-7.9-0.6-15.9-1-23.8-1.7
		c-18.8-1.7-37.6-3.7-56.5-5.5c-17.9-1.7-35.8-2.9-53.6-5c-5.4-0.6-7.1,1.2-8.4,5.7c-5.6,19.1-0.9,30.1,16.8,44.8
		c3.6,2.9,7.9,5,11.8,7.5c8.1,5.1,10.2,15.9,5,24c-7.7,12-16,23.8-22.5,36.5c-8.2,15.9-15.2,32.4-22,49c-2,5-1.5,11.1-2,16.7
		c-0.8,9.1-3.2,17.8-8.3,25.3c-6,9-6,18.4-4.5,28.5c1.6,10.5,2.4,21.1,3.3,31.7c0.7,8.7-2.1,16.5-7.9,22.9
		c-7.4,8.3-12.6,17.7-17.1,27.9c-3.2,7.5-8.9,13.9-13.7,20.7c-8.7,12.2-16.5,24.9-21.4,39.3c-1,0.2-1.9,0.6-2.9,0.6
		c-29.3,0.5-58.6,0.9-87.9,1.5c-22.3,0.5-44.5,1.2-67.8,1.9c-0.5,8.9-1.1,17.1-1.3,25.2c-0.8,43.3-1.3,86.5-2.1,129.8
		c-0.2,10.3-0.9,20.6-1.2,30.9c-0.1,3.2,0.4,6.4,0.7,9.8c2.9,0.4,4.8,0.9,6.7,1c25,0.5,49.9,1.1,74.9,1.3c28,0.2,55.9,0.1,85,0.1
		c-1.9,10.9-8,17.6-14.2,24.5c-4.4,4.9-8.9,9.8-12.3,15.4c-6.8,11.4-12.4,23.6-19.4,34.9c-3.8,6.2-9,11.5-13.8,16.9
		c-8.2,9.2-16.5,18.3-25.1,27.1c-3,3-6.8,5.2-10.4,7.7c-7.3,5.2-14.8,10.2-22,15.5c-8.8,6.4-15.1,14.6-18.7,25.1
		c-2.1,6.1-5.5,12.2-9.6,17.2c-4.4,5.4-6.9,5.1-12.7,0.8c-6.9-5.1-13.2-11.2-20.6-15.5c-9.9-5.9-20.8-8.6-32.2-3.6
		c-5.6,2.5-10.6,1.8-16-1.5c-6.5-4-13.7-6.8-20.5-10.1c-5.5-2.6-10.9-2.4-16.4,0.1c-4.2,1.9-8.6,3.7-12.8,5.7
		c-8.1,3.8-16.2,2.9-24.3,0.4c-1.6-0.5-3.4-1.1-4.4-2.3c-11.9-13.7-28.7-16.9-44.9-21.6c-1.3-0.4-2.6-0.6-3.9-0.7
		c-15.2-1.3-26.2-8.1-34.6-21.5c-7.7-12.3-15.8-11.1-21.8,2c-4.3,9.3-6.8,19.4-10.3,29.1c-2.5,6.8-5.4,13.5-7.8,20.3
		c-2,5.6-4.3,11.2-5,17c-2.5,20.7-4.3,41.5-6.4,63c-5.6-1.1-7-5.5-9-9c-9.1-16.3-17.8-32.7-27-49c-10.5-18.6-21.9-36.5-39.2-49.9
		c-10.6-8.3-21.7-8.2-30,2.2c-3.4,4.2-7.1,6.6-12.4,7.1c-15.6,1.5-29.3,8.1-42,17c-1.6,1.1-3.4,2.1-5.9,3.6
		c-6.1-7.3-12.2-14.5-18.3-21.7c-6.2,0.9-10.1,4.4-13.1,9c-2.1,3.1-4.2,6.1-9.5,3.9c6.1-13.9,12-28.1,6.3-43.2
		c-12.4-1.8-24.1-4.3-36-4.9c-10.2-0.5-20.5,1.3-30.8,2c-1.9,0.1-4.2,0.7-5.7-0.1c-7.7-4.4-16.2-7.7-21.8-15.3
		c-9.3-12.6-18.9-24.9-28.5-37.3c-3.7-4.8-5.3-9.9-3.8-16.2c10.3-6.9,22.3-2.8,34.1-4.1c0-4.3,0-8.1,0-13.1c-4.5-0.9-9.4-1.6-14.1-3
		c-4.3-1.3-8.5-3.4-13.6-5.6c7.6-6.2,14.1-11.5,21-17.2c4.5,1.1,9.9,2.5,15.4,3.9c0.7-8.5,1.3-15.9,2-23.6c-4.7-3.9-9.7-3-14.6-0.3
		c-4.4,2.5-8.7,4.6-14,1.5c-1.5-0.9-5.5,0-6.8,1.5c-3,3.3-5.8,7.3-7.3,11.5c-1.9,5.1-4.2,9.1-8.9,12.5c-4.7,3.3-8,8.6-12.3,13.5
		c-7.7-2.9-11.8-14.7-23.8-12.8c-0.5,6.9,2,12.8,4.3,18.5c3.7,9.1-1.2,16.3-4.6,23.5c-1.1,2.4-6.1,3.1-10.9,5.3
		c0.6-3.3,1.4-5,1.1-6.5c-0.7-4.5-4.6-6.7-9.9-5c-6.8,2.2-13.5,3.5-20.2,0.2c-4.4,4.4,1,12.2-6.9,15.5c-1-2.5-2.7-5-3-7.6
		c-1-8.2-1.3-16.5-2.2-24.8c-0.7-6.8,1.5-12.3,5.9-17.3c3.2-3.7,6-7.8,9.8-12.8c-4.5-2.1-8.2-3.7-12.6-5.7c1.7-7.8,0.8-16.7-3.7-25
		c-9.4-0.1-11.5,13.9-22.8,10.7c1.3-5.1,2.6-10.1,4-15.6c-7.5-5.4-7.7-12.4-3.3-19.9c2.8-4.7,2.5-9.3,0-14.1
		c-2.6-4.9-4.8-10.1-7.4-15.5c-9.6,4.9-17.6,10-22.6,18.7c-3.8,6.5-9.6,7.9-16.3,7c-7.2-0.9-10-8.2-5.7-14
		c3.3-4.5,6.5-9.1,10.6-14.7c-5.7-3.4-10.5-6.2-16.2-9.6c0-4.7,1.5-10.9-0.4-15.6c-1.9-4.5-7.5-7.5-12.7-12.3
		c12.5-2.5,13.2-14.9,21.2-20.5c-2.2-11.4-6.5-14.8-17.4-13.5c-5.3,0.6-10.5,1.4-15.8,2.1c-11.9,1.5-17.5-1.6-23-12.4
		c-4.9-9.8-10-19.6-14.8-29.5c-3.6-7.4-2.2-9.9,5.7-12c12.4-3.2,24.8-4.1,37.7,0.3c2.5-4.5,4.6-8.4,7.3-13.3
		c-10.4-4.6-19.7-8.6-29.1-12.8c-10-4.5-20.5-8.2-29.7-13.8c-8.4-5.1-13.8-13.2-12.6-24.2C2604.6,2470,2604.7,2464.1,2605.2,2456.8z
		"/>
	<path onclick="modals(this.id);" id="902" class="st0" d="M2723.5,1552.5c5.3-0.4,8.6-0.8,11.9-0.8c5.1,0,7.3-2.5,9.4-7c2.6-5.6,6.5-10.7,10.6-15.4
		c4.7-5.3,9.3-10.1,8.4-18.2c-0.7-6.2,5.5-6.5,8.8-9.2c9,7.5,2.9,16.1,1.9,26c3.6-1.9,6.1-2.9,8.3-4.5c3.8-2.8,7.6-4.6,12.5-5.6
		c4.1-0.8,7.6-4.6,12.4-7.8c1.1,0.5,3.6,1.2,5.8,2.5c7.2,4.1,14.1,8.5,21.4,12.4c5.5,2.9,11.2,1.4,16.2-1.5c4-2.3,7.8-5.2,11.1-8.4
		c4.8-4.8,9.7-8.9,16.5-10.7c2.3-0.6,5.5-2.4,6.2-4.4c2.2-6.5,7.5-8.8,12.6-11.7c2.9,1.9,5.6,3.7,9.4,6.2c-0.8,5-0.6,10.9-2.7,15.9
		c-3.9,9.1-0.2,17,2.2,25.1c0.6,2.1,3.4,4.2,5.7,5.2c4.8,2.1,6.8,5.6,8,10.5c2.8,11.7,3.7,12.2,18.2,14.9c2.5-4.6,1.8-9.4,0.1-14.1
		c-2-5.6-4.4-11.1-6.3-16.8c-0.7-2.1-0.4-4.5-0.6-8.7c5.9,4.6,9.6,9.3,14.2,10.6c4.7,1.3,10.3-0.8,15.6-1.4c2.2,6.4,1.6,10.9-4.3,14
		c-1.9,1-3.8,2.9-4.6,4.8c-2.9,6.7-5.4,13.5-8.2,20.8c2.7,3,5.5,6.2,8.6,9.6c12.6-9.2,12.7-27.2,28.2-33.3c1.3,8-6.6,10.6-8,17
		c0.3,0.8,0.6,2.2,1.4,3.2c2.9,3.4,2.8,9.4,8.7,10c7.6,0.7,15.7,2.4,21.4-4.5c8.5-10.2,18.7-12.2,31-8.5c11.4,3.4,23.1,6,34.6,9
		c1.9,0.5,4.2,0.9,5.5,2.2c6.8,6.3,15,6.1,23.4,6c14.7-0.1,29.3,0.6,44,0.5c5.8-0.1,9.2,2.3,11.8,7.3c3.9,7.7,8.2,15.2,12.3,22.7
		c3.9,7,10.3,6.5,16.5,5c6.5-1.6,7-7.4,6.9-12.8c-0.2-10.8,4.9-18.2,14.1-23.3c4.7-2.6,9.1-5.6,13.9-7.8
		c13.3-6.3,21.6-17.2,27.4-30.2c2.6-5.7,3.6-12.4,9.7-15.7c2.5-1.3,5.5-3,8-2.6c16.4,2.4,32.8,5.3,49.1,8.1c0.6,0.1,1,0.8,2.6,2.1
		c-2.7,4.1-5.6,8.3-8.3,12.6c-5.8,9.1-12,18-17.2,27.4c-2.1,3.9-2.2,8.9-3.1,13.5c-2.5,12.6-2.4,24.8,2.9,37c2.6,5.9,4,12.9,4,19.4
		c0,18.3,6.5,33.9,18.2,47.3c8.5,9.7,12.7,19.5,8.6,32.6c-2.1,6.8-1.7,14.4-2.5,21.8c2.3,1.5,4.2,3,6.2,3.9
		c8.8,4.1,13.9,11.4,19.2,19.3c5.6,8.4,14.2,14.7,21.6,21.9c6.6,6.5,13.5,12.8,19.9,19.5c8.1,8.5,13,18.9,18.4,29.3
		c8.1,15.6,19,29.7,33.7,40.1c11.2,7.9,22.5,15.5,33.3,23.8c5.8,4.4,10.7,10,16,14.9c2.2,2,4.2,4.4,6.7,5.8
		c8.2,4.5,16.1,9.2,22.4,16.4c1.3,1.5,3.9,2.2,6.1,2.8c4.5,1.1,9,1.8,14.5,2.8c-1,5.2-2,10-2.8,14.8c-1.3,8-1.5,15.5,5.8,21.7
		c3.2,2.7,4.4,7.9,6,12.2c1.3,3.4,1.9,7,2.8,10.8c-3.2,4-7.9,4.9-12.4,4.9c-22,0.4-44,1-66,0.6c-14.8-0.3-28.7-5.2-41.4-13.1
		c-12.2-7.6-23.7-6.5-35.4,2.4c5.2,6.8,10.6,11.2,20,10.3c6.5-0.6,13,1.7,15.6,9.7c0.8,2.6,4.2,4.7,6.9,6.2c2.5,1.5,5.6,1.9,8.3,2.8
		c3.3,9.2-2,15.7-5.4,23.3c-5.2,0-10.4,0-16.3,0c-5.9,14.2-14,27.4-11.4,45.1c-7.2-2.6-13.1-4.6-19.9-7.1c-2.7,3.8-5.7,8-8.2,11.6
		c-10.5,0-20.3,0-30.9,0c-1,3.8-2,6.8-2.7,10c-2.5,11.1-6,14.6-17.1,16.1c-3,0.4-6.1,0.6-9,0.1c-10.5-2-20.3,1.4-30.2,3.9
		c-28.3,7.3-56.6,14.6-85,21.6c-14.3,3.5-27.7,0.5-39.7-8.1c-5.1-3.7-10.1-7.6-15.2-11.3c-10.4-7.7-11.6-7.7-23.5,1.1
		c0.3,3.1,0.7,6.3,1.1,10.3c-4.1,1.3-8.1,2.6-12.5,4.1c-1.1-2.1-2.6-3.8-2.7-5.6c-0.4-7.8-5.2-11.5-12.1-12.1
		c-12.6-1-24-7.2-36.9-7.3c-21.7-0.1-38.6,8-51,25.8c-3,4.4-6.8,8.3-9.6,12.8c-9.5,15.4-22.5,26.9-37.5,36.6c-7,4.5-14.3,6.8-22.4,7
		c-4.7,0.1-9.4,0.3-14,0c-17.6-1.3-34.5,1.3-50.6,8.4c-5.4,2.4-9.7,1.9-15.5-1.3c-11.9-6.6-25.6-7.6-38.9-4.6
		c-10.6,2.4-20.8,3.3-31.3-0.1c-3.2-1-7.3-0.5-10.7,0.3c-4.8,1.1-9.6,2.7-14.2,4.8c-11.2,5-22.4,5.5-34.1,1.5
		c-7.1-8.8,3.5-12.8,6.9-20.1c-3.5,0.4-5.7,0.2-7.7,0.9c-8.3,2.8-16.9,2.1-24.5-0.6c-10.2-3.7-18.1,0-26.4,4.1
		c-11.3,5.6-22.3,11.8-33.8,17c-7.8,3.5-16.2,2.8-24.3,0.2c-2.2-0.7-4.3-1.8-6.5-2.6c-7.4-2.9-14.5-2.9-20.4,2.9
		c-6.5,6.3-14,8.5-22.8,7.4c-5.8-0.7-11.2,0.7-16.1,4c-2.2,1.5-4.7,2.5-7.1,3.5c-7.9,3.1-15,7.4-19.7,14.6
		c-2.7,4.2-6.3,5.6-10.9,5.5c-10.9,0-21.7,0-32.9-0.4c-1.1,0-2.1-3.5-3-5.4c-9.9-0.8-16.3,5.4-23.6,10.7c-2.7-1.2-5.3-2.3-7.9-3.4
		c2-10.9,11.7-19.9,4.9-31.8c3.4-2.4,6.6-4.6,9.5-6.7c0.8-7.5,1.6-14.6,2.4-22.1c-10.7-3-20.8-0.6-30.3,3.2
		c-5.3,2.2-9.7,6.7-9.5,13.9c0.3,9-2.8,16.9-9.4,23.2c-1.6,1.6-3.1,3.7-3.9,5.8c-2.2,5.7-6.2,9-11.5,11.7c-4.1,2.1-7.5,5.4-11,8.5
		c-11,9.6-22.2,19.1-32.6,29.3c-4.8,4.8-8.5,11-11.7,17.1c-5.8,11.2-10.8,22.8-16.2,34.2c-2.3,5-5.4,9.2-11.1,10.7
		c-4,1.1-5.7,4.1-6.6,8c-0.7,3.2-1.7,6.4-2.8,9.6c-0.6,1.7-1.8,3.3-2.7,4.9c-1-0.5-1.9-0.9-2.9-1.4c-0.7-8.8-1.2-17.6-2.1-26.3
		c-1.6-14.5-3.5-29-5-43.5c-1-9.3-1.4-18.7,2.6-27.5c1.8-3.9,1.8-7.7,0.5-11.5c-5.1-14.4-10.3-28.8-15.2-43.2
		c-0.9-2.6-1-5.6-0.9-8.4c0.1-2.3,0.7-4.6,1.5-6.8c3.7-10,3.9-19.3-0.7-29.7c-4.1-9.1-5.8-19.7-2.4-30.2c0.8-2.3,0.5-5,0.8-9.6
		c-22.9,10.6-42.5,23.7-64.7,34.7c-14.1-132.8-28-264.6-42.1-397c5-2.9,9.7-6,14.8-8.3c6.9-3,11.9-8.2,17.4-13.1
		c18-15.8,32.4-34.1,44.2-54.9c3.9-6.9,9.8-12.6,14.5-19c3.5-4.8,6.5-9.9,10-14.7c1.9-2.6,4.2-5.1,6.7-7.1
		c12.1-9.9,24.9-19,36.2-29.7c7.6-7.2,13.2-16.6,19.4-25.1c2.5-3.5,4.3-7.7,10.1-7.4c1.8,3.7,3.7,7.5,6.1,12.4
		c8.8,0.3,17.6,0.5,24.8-7.4c4-4.4,8.8-8.1,13.5-11.8c11.6-9.1,22-19.1,29.5-32c3.3-5.7,8-10.6,12.4-15.6c3.5-4.1,8.2-6.7,13.2-3.6
		c7.7,4.7,14.7,5.3,21.1-1c6.3,1.8,6.5,7.1,7.7,11.3c1.2,4.1,3.1,5.9,7.2,7.1c21.1,5.9,42.1,12.3,63.3,18.1c2,0.6,4.7-1,7-1.9
		c0.8-0.3,1.2-1.5,1.8-2.3c6.4-9.5,14.3-16.4,26.4-17.4c2.6-0.2,5.2-2.8,7.5-4.6c8.3-6.6,17.3-10.7,28.2-11
		c15.4-0.3,29-6.1,42.2-13.6c9.8-5.6,19.5-11.5,30.8-13.7c15.1-3,24.5,5.1,24,20.5C2721.7,1539.2,2722.9,1545.4,2723.5,1552.5z
		 M2667,2078.2c0.6,0.5,1.2,1.1,1.9,1.6c-1.5,3.6-3.3,7-4.3,10.7c-1.7,6.7-3.7,13.5-4,20.3c-0.7,12.9-0.1,25.8-0.7,38.7
		c-0.4,7.8,0.6,15.1,3.3,22.2c8.8,1.5,16.1-1.8,23.3-5.3c6.1-3,12.4-4.6,19.2-4.1c4.3,0.3,8.7-0.2,13,0.1c6.9,0.5,13.1-0.9,19.1-4.4
		c5.2-3,10.7-5,17.1-4.4c19.6,2.1,37.3-3.5,53.9-13.8c9.3-5.8,12.9-14.7,12.5-24.4c-0.5-13.9-3.4-27.6-4.8-41.4
		c-1.3-12.7-6.3-23.5-14.8-33.1c-5-5.6-11.9-11.5-12.9-18.1c-1.1-6.7,3.9-14.5,6.4-21.7c2.4-6.9,4.6-14,8-20.4
		c5.1-9.8,14-15.7,23.7-20.6c12.3-6.2,19.2-19.8,16.6-33c-3.4,3.4-6.2,6.6-9.5,9.2c-2.8,2.3-6.2,5.6-9.1,5.4c-8-0.5-11.3,4-13.8,9.9
		c-6.3,0.8-8.7-2-10-7.4c-1.3-5,0-9.2,1.9-13.5c1.5-3.3,2.3-6.1-0.6-9.1c-6.2-6.4-12.2-12.9-19.1-20.2c-4.8,6.1-9.5,11.7-13.7,17.5
		c-5.9,8.1-12.1,15.8-20.5,21.5c-8.5,5.8-16.9,11.8-25.5,17.5c-12.2,8.1-24.6,16-30.5,29.1c-6.3,1.1-12.4,0.5-16.5,3.1
		c-12.1,7.7-25.5,9-39.1,9.8c-14,0.8-26.4,5.6-37.8,13.6c-2.6,1.8-5.8,3.3-9,3.9c-7.2,1.2-14.6,1.2-21.7,2.8
		c-7.9,1.8-16.4,3.7-23.2,7.9c-9.8,6-18.5,14.1-27.4,21.5c-7,5.7-12,12.4-8.6,22.3c0.5,1.5,0.1,3.3,0,4.9c-0.7,10.6-1.5,21.2-2,31.8
		c-0.3,8.3-0.3,16.3-2.9,24.6c-3.9,12.2-1.8,15.9,8.8,22.9c1.4,0.9,2.9,1.7,4.1,2.8c3.3,3,7,3.2,11.2,2.2c5.5-1.4,11.2-2,16.5-3.8
		c3.5-1.2,6.9-3.5,9.7-6.1c5.6-5.1,10.5-10.9,16.2-16c9.6-8.7,19.8-16.7,27.1-27.7c2.2-3.3,5.5-5.8,8.1-8.8c3-3.4,6.5-4.9,11.2-5.4
		c5.9-0.6,11.6-2.5,17.3-4.3C2645.8,2085.6,2656.4,2081.8,2667,2078.2z"/>
	<path onclick="modals(this.id);" id="899" class="st0" d="M2909.9,1490.1c-4.4-2.2-7.8-4-12.1-6.1c-5.5,3.3-12.4,5.6-15.7,13.1c-0.9,2-3.8,3.6-6.1,4.4
		c-6.6,2.1-11.6,6.1-16.3,11c-3,3.1-6.5,5.7-10.3,7.8c-4.7,2.6-9.5,3.8-14.8,0c-6.8-4.7-14.2-8.3-21.5-12.2
		c-2.3-1.2-4.9-1.7-8.4-2.9c-4.2,10.7-15,10-24.1,14c2.5-8.7-1.1-15.5-5.6-22.6c-3.2,1.8-5.9,3.8-8.9,5.1c-5,2.1-7.5,5.5-6.1,10.9
		c1.5,5.6-2.3,8.8-5.4,12.1c-6.2,6.5-12.5,13-14.6,22.8c-4.4,0.4-8.5,0.8-14.3,1.3c0-6.9-0.4-12.8,0.1-18.7
		c1.2-14.9-15.5-24.5-26.9-21.7c-9.5,2.4-18.3,6.1-26.6,10.9c-16.6,9.6-33.5,17.8-53.3,17.6c-9.3-0.1-16,5.5-23.3,10.2
		c-4.1,2.6-8.5,5.4-13.2,6.3c-7.7,1.6-13.4,5.3-17.9,11.6c-2.3,3.2-5.1,6-7.7,9c-20.9-5.9-41.3-11.8-61.8-17.3
		c-5.1-1.4-8.1-4-9.2-9.1c-0.5-2.2-1.3-4.6-2.5-6.5c-2.6-4.1-7.2-5.5-11-2.5c-5.1,3.9-9.2,3.1-14.5,0.5c-8.5-4.3-14.2-2.9-20,4.7
		c-6.7,8.7-12.9,17.7-19.5,26.5c-2.6,3.4-5.5,6.6-8.7,9.4c-8,7-16.8,13.2-24.2,20.8c-6.2,6.4-12.9,8.8-21.9,7.7
		c-2-4.2-4.2-8.6-6.6-13.4c-5.6,1.1-10.4,2.6-13.2,7.8c-12.5,23.7-33.4,39.3-54.2,54.9c-4.9,3.6-9.7,6.9-11.3,13.2
		c-0.4,1.5-1.5,3-2.6,4.2c-12.1,13.4-22.3,28.1-31.5,43.6c-10.2,17.2-25.4,29.9-39.8,43.2c-5.8,5.4-14.1,8.2-22.1,12.6
		c-0.8-10.5-1.7-19.6-2.1-28.7c-0.5-14.3-0.4-28.6-0.8-43c-0.3-12.3-1-24.6-1.3-36.9c-0.2-6.3-2-11.7-7.1-15.8
		c-3.4-2.7-6.6-5.6-9.8-8.3c1.2-3.1,1.7-5,2.5-6.7c31.8-63.8,64.3-127.2,95.1-191.4c14.4-29.9,35.6-54.4,56-79.7
		c28.8-35.7,58.1-71.1,87-106.7c2.4-3,4.5-6.7,5.5-10.4c5.5-20.6,10.7-41.2,15.9-61.8c0.7-2.8,0.9-6,0.3-8.9
		c-2.6-12.3-5.4-24.6-8.6-36.8c-3.3-12.6-6.8-25.1-3.5-38.2c0.8-3.1,1.8-6.4,3.5-9.1c7-11.7,14.2-23.3,21.3-34.9
		c8.3-13.3,11-28.4,14.4-43.3c4.4-19.8,9.3-39.4,14-59.2c0.2-0.6,0.5-1.3,0.5-1.9c0.1-30,12.6-56.9,20.8-84.9
		c3.2-10.8,7.6-21.3,10.8-32.1c3-10.4,10.2-17.8,16.9-25.5c32.5-37,65.5-73.5,97.4-110.9c15.9-18.7,30-39.1,44.7-58.8
		c6.2-8.2,11.8-16.9,18.2-24.9c2.3-2.9,6-6.1,9.5-6.6c11-1.5,18.6-8.3,26.4-15.1c3-2.6,6-5.1,9.2-7.8c4.5,2.3,8.6,4.4,13.5,6.9
		c4.3-5.4,8.5-10.8,12.7-16c11.4,0.7,19.8,8.1,30.1,12.8c3.5-8.6,12-8,21.1-10.8c2.1,2.7,4.3,6.2,7.2,8.9c2.8,2.7,4.9,5.3,4.4,9.4
		c-0.6,4.3,1.3,7.7,4.4,10.6c11.8,11.3,14.7,26.3,16.9,41.6c0.1,0.7,0,1.3,0,2c0.7,12.2,2,14.2,13.8,16.8c8.7,1.9,17.6,2.9,26.5,4
		c15.4,2,28.4,9.2,40.2,18.5c3,2.4,4.5,7.4,5.3,11.5c2.5,12.8,3.6,25.7,0.5,38.6c-4.6,19,2,35.2,12.3,50.7c3.3,5,7.1,10,8.8,15.5
		c2.5,8.1,3.4,16.8,4.6,25.2c2.1,14.4,4.7,28.9,5.6,43.4c0.8,12.5,0.7,25.4-9.1,35.5c-1.2,1.3-1.7,3.6-1.8,5.5
		c-0.4,5.6-0.8,11.3-0.7,17c0.1,5.5-1.1,10.1-4.5,14.8c-2.8,3.8-3.7,9-5.9,14.6c5,3.4,9.3,7.1,14.2,9.4c7,3.3,10,7.5,6.9,14.5
		c-6.6,15.1-10,31-13.3,46.9c-1.2,6.1-1.6,12.7-0.6,18.7c1.2,6.8,6.3,11.7,13,13.8c7.7,2.4,15.1,4.6,21.3,10.3
		c2.2,2.1,6,3.1,9.2,3.2c6.2,0.2,10.8,3.4,15.2,6.9c9.1,7.2,18.1,14.6,26.7,22.4c9.5,8.6,22.2,8.3,33.1,2.1
		c8.3-4.7,14.4-11.7,20.8-18.4c5.3-5.5,11.1-10.5,16.5-15.8c6.5-6.5,14.6-7.2,23.1-6.4c2.6,0.2,5.3,0.5,7.9,1
		c15.2,3,27.6-1.4,36.8-14c3.5-4.8,7.9-7.5,13.5-9.6c12.5-4.6,24.8-9.9,33.8-20.7c8.6,2.1,17.2,4.3,24.8,6.1
		c-2.7,9.5-4.6,18.9-8.2,27.7c-4.2,10.4-8.9,20.8-15.2,30.1c-3.5,5.1-10.5,7.8-16,11.6c-4.4,3-9.6,5.2-13.1,9
		c-5.8,6.5-11,13.7-15.6,21.2c-2.3,3.7,1.6,9.6,7.1,10.9c8.2,2,12.5,7.8,17.6,14.7c-7.8,3.9-14.9,5.7-21.9,3.4
		c-10.5-3.5-18,0.3-25.1,8c7.8,11,19,14.5,31.8,13.8c10.5-0.6,19.9-4.8,29.1-9.7c6.5-3.5,13.3-5.6,21.7-2
		c-3.7,4.8-7.4,8.9-10.3,13.5c-2.9,4.4-4.7,9.6-7.7,13.9c-1.2,1.8-4.3,2.6-6.7,3.1c-4.5,0.9-9.3,0.8-13.8,1.9
		c-8,1.9-14.4,5.2-16.9,14.6c-2.6,9.9-7.2,19.2-11.2,28.7c-3,7.2-8.1,13-14.7,17.1c-4.2,2.6-6.8,6-7.7,11c-1.1,5.9-3,11.6-4.5,17.4
		c-0.5,1.9-1.4,4.1-1,5.8c4.4,16-2.4,29.6-10.1,42.3c-5,8.2-2.8,14.2,1.4,22c3.2-1,6.3-1.9,9.3-2.9c8.7-3,9.7-2.6,13.5,6
		c0.5,1.2,1.2,2.4,1.8,3.5c13.9,5.5,22.1-6.2,33.3-10.7c7.8,7.2,16,14.5,23.7,22.2c1.6,1.6,2.7,4.7,2.6,7.1
		c-1.1,19.5,10.3,32.2,23.4,44.1c3.9,3.5,7.5,7.5,11.5,10.9c5.1,4.3,10.4,8.3,15.8,12.1c1.4,1,3.8,1.3,5.6,1.1
		c19.7-2.1,39,2,58.4,4.2c7.7,0.9,15.6,0,24.4-0.1c0.1,0.8,1,3,0.8,5.1c-1.6,19.9-6.7,39.2-11.5,58.6c-1.9,7.9-6.6,11.1-14.5,10
		c-14.7-2.2-29.5-3.5-43.5-9.1c-12.2-4.9-19.9,0.9-26,12.9c-4.8,9.5-8.4,19.6-16.6,26.9c-2.7,2.4-5.3,4.9-8.4,6.8
		c-6.2,3.9-12.7,7.3-19,11c-9.9,5.8-15.6,14.2-15.8,25.9c-0.1,4,0.2,8.2-5,9.6c-5,1.4-9.2,0.6-11.9-4.4c-3.2-5.8-7.2-11.3-9.5-17.4
		c-3.9-10.4-11.6-13.6-21.7-13.6c-14.7,0.1-29.3,0-44,0.1c-5.1,0-9.5-0.6-14-3.8c-4.2-3-10-3.7-14.5-6.3
		c-14.6-8.5-31.6-4.5-46.8-9.5c-1.4-0.5-3.7,1-5.3,2.1c-3.2,2.3-6.2,5-9.4,7.4c-2.1,1.6-4.2,3.2-6.6,4.2c-10.8,4.4-14.9,2.9-21-8
		c4.3-6.4,10.3-12.7,7.5-22.5c-7,2.3-13.4,5-17.4,11.8c-4,6.9-8.2,13.6-12.5,20.9c-5-1.7-7.2-3.7-4.6-8.8c2-3.8,3-8.1,4.9-12
		c1-2,2.3-4.5,4.2-5.3c6.6-2.7,7.5-7.8,6.9-13.8c-0.2-1.6-0.3-3.3-0.5-6.4c-4,0-8.1-0.9-11.6,0.2c-6.6,2.2-10.8-0.5-14.7-5.1
		c-1.5-1.8-3.4-3.2-5-4.7c-8.2,5.9-8.3,6.1-5.1,14.3c1.9,5,4.2,9.8,5.9,14.8c1,2.9,1.1,6.1,1.7,9.6c-7.8-0.5-11.7-3.3-12.6-10.2
		c-0.8-6-3.1-10.9-9.6-13.8c-6.7-2.9-10.1-16-6.9-23.9C2910.4,1505.9,2910.9,1498.2,2909.9,1490.1z"/>
	<path onclick="modals(this.id);" id="905" class="st0" d="M2736.3,2671c2.5,5.4,5,9.8,6.4,14.4c0.7,2.5,0,5.9-1,8.5c-4.4,11.7-4.4,13.5,2.3,23.8
		c-1.4,5.1-2.7,10.3-4,15.4c-0.1,0.5,0.4,1.2,0.7,2.3c9.6,1.5,17-2.6,22.8-10.8c8.4,10,0.9,20.5,2.9,30.5c3.4-1.6,6.2-2.9,11.3-5.3
		c-1.8,4-2.2,6.3-3.5,7.5c-11.3,10.1-12,23-9.7,36.6c1.6,9,0.5,18.9,8.9,26.2c5.2-3.9,8-9.1,8.8-14.9c7.8-1.4,15.1-2.7,23.9-4.3
		c-2.2,4.5-3.8,7.8-6.3,13.1c7.6-1.6,13.5-2.8,19.4-4.2c0.9-0.2,2.1-0.8,2.5-1.5c3.7-8.3,9.9-16,6.5-26.1c-1.6-5-3-10-4.9-16.3
		c10,2.9,14.3,11.2,22.3,15.8c1.4-2.3,2.5-4.6,4-6.5c3-3.8,5.7-8.3,9.5-11c4.4-3.1,7.2-6.6,8.7-11.6c1-3.2,2.1-6.3,3.8-9.1
		c1.8-3,4.9-5,8.5-3c4.9,2.8,8.8,0.4,13-1.5c3-1.4,6.5-1.9,10.8-3.2c-0.8,6.9-1.4,12-2.1,18c-4.7-1.1-9.3-2.1-12.9-2.9
		c-8.7,7.3-16.7,13.9-25.1,21c7.7,6.2,15.3,9.5,24.1,10.6c5.1,0.6,5.1,1,5,7.9c-11.5-0.5-23.2-1.6-34.2,5.2
		c-0.7,7.3,0.1,14.4,5.2,20.9c10,12.9,19.3,26.4,29.9,38.7c10.6,12.3,24.4,18.1,40.9,14.5c10.6-2.3,21-1.6,31.6,0.7
		c6.4,1.4,13.1,1.6,20,2.4c5.5,16.5-3.4,30.2-9.5,45.1c8.7,0.5,14.9-0.7,19.4-7.5c1.7-2.6,4.5-4.4,7.5-7.2
		c5.9,7.2,11.1,13.5,16.6,20.2c-10.3,7.7-20.3,14.8-29.9,22.4c-5.1,4.1-9.7,9-14.1,13.9c-14.5,16.1-27.4,33.4-37.8,52.5
		c-4.1,7.5-10.5,11.8-19,14.7c-15,5.2-30.7,5.4-45.9,8.9c-4.7,1.1-9.5,2.9-13.8,5.2c-8.5,4.6-16.7,9.6-24.8,14.9
		c-4.3,2.8-7.6,3.1-11.4-0.6c-9-8.9-18-17.7-27.2-26.3c-6.7-6.4-13.4-12.9-20.7-18.6c-2.1-1.7-6.2-2.2-9.1-1.6
		c-15.7,3.1-29.3,10.6-41.2,21.2c-0.2,0.2-0.5,0.5-0.7,0.7c-25.1,21.9-53.3,22-82.9,11.6c-3.8-1.3-7.2-3.5-11-4.8
		c-10.7-3.7-21-6.5-32.9-3.7c-20.6,5-41.6,8.5-62.6,11.8c-10.3,1.6-18.7,6.7-27.7,10.9c-12.4,5.7-24.5,12.1-37.2,16.8
		c-6.6,2.5-14.3,2.5-21.5,2.9c-2.3,0.1-5.1-1.5-7.1-3c-14.5-11.2-30.7-16.6-49.2-15.4c-8.9,0.6-17.8-0.2-26.7,0.3
		c-3.1,0.1-6.5,1.5-9.3,3.1c-8.7,4.9-17,10.5-25.8,15.1c-7.3,3.9-15.1,6.7-22.6,10.4c-5,2.4-8.9,1.1-12.8-2.1
		c-0.8-0.6-1.7-1.1-2.3-1.9c-6.2-7.8-12.6-15.5-24.2-17.1c2.5-5.7,4.5-10.2,6.4-14.7c1.3-3.1,3.3-6,3.7-9.2
		c1.6-11.9,8.2-21.4,13.8-31.6c5.4-9.8,8.5-20.8,12.6-31.3c1.7-4.4-1-7.3-4.2-9.1c-7.3-4.3-8.4-10-5.8-17.7
		c4.7-14.2,9.1-28.5,13-42.9c2.5-9.3,3.7-18.8,5.7-28.2c1.2-5.8,2-11.8,4-17.3c2.7-7.7,4.4-15.3,2.5-23.4
		c-2.5-10.3-5.2-20.5-7.6-30.9c-1.4-6.1-2.8-12.3-3.4-18.5c-1.2-12.2,4.6-21.9,12.7-30.2c6.3-6.4,13.3-12.1,19.7-18.3
		c2.6-2.5,5.3-5.3,6.6-8.5c6.3-16.2,16.5-29.7,29.5-40.9c7.5-6.4,10.2-14.6,11.3-23.5c0.4-3.3-1.2-7.1-2.7-10.2
		c-5.5-12-4.8-17.7,5.2-26c8.7-7.2,18.2-13.4,27-20.4c8.8-7,18-13.9,25.7-22c10.6-11.2,11.4-25.4,8.8-40c-1-5.9-1.9-11.8-2.6-17.7
		c-0.6-5.7,0.7-8.2,6.4-9c16.5-2.4,29.7-10.8,42.2-21c2.2-1.8,5.1-3.5,7.8-3.9c22.6-3.2,43.7-11.1,64.5-20.2
		c8.3-3.6,17.6-4.7,26.9-7.1c0.7,2.6,1.4,3.9,1.3,5.1c-0.8,12.7,5.5,21.8,15.5,28c7.6,4.7,16.2,7.7,24.4,11.3
		c9.7,4.2,19.6,8.2,30.2,12.5c-1.7,3-2.9,5.1-4.6,7.9c-12.6-4.9-24.9-2.4-37.2,0.1c-8.3,1.7-11.6,7.8-7.9,15.3
		c5.8,12,11.9,23.8,17.8,35.8c3.1,6.1,7.4,9.9,14.9,9.1c8.6-0.9,17.2-1.5,25.8-1.8c5.4-0.1,10.8,0.5,12.7,6.9
		c-2.6,4.3-4.5,8.9-7.7,12.4c-3.1,3.5-7.5,6-12.1,9.5c-1,3.7,0.4,7.9,5.1,9.5c7.4,2.7,7.8,8.2,7.2,14.5c-0.3,2.9-0.3,5.8-0.4,8.7
		c5,2.4,9.4,4.5,15.1,7.2c-3.3,4.5-6,8.1-8.6,11.8c-2.6,3.8-5.9,7.5-2.2,12.5c3.4,4.6,6.4,8.7,13.6,7.7c7.8-1,13.8-3.3,17.5-10.5
		C2722.7,2678.4,2728.8,2674.9,2736.3,2671z"/>
	<path onclick="modals(this.id);" id="904" class="st0" d="M2189.6,2884.8c-7.6-4.2-13.2-7.6-19-10.6c-32.6-16.9-66.2-31.1-101.5-41.2
		c-18.3-5.2-37.1-7.7-56.2-3.4c-5.5,1.2-11.2,1.4-16.8,1.9c-1.9,0.1-4.2,0-5.8-0.9c-14-8-27.5-16.3-32.2-33.5
		c-1.6-5.7-4.1-11.3-6.6-16.7c-4.5-9.5-6.5-19.2-5.4-29.9c0.7-6.5,2.6-12,5.7-17.7c4.8-9.1,9.1-18.5,12.8-28.1
		c1.3-3.4,0.8-7.8,0.2-11.7c-0.8-5.4-0.4-10.5,1.8-15.6c2.5-6.1,5.1-12.3,6.7-18.8c1.6-6.7,5-11.4,11.2-14.2
		c1.4-0.7,2.5-1.9,4.7-3.6c-4.9-8.2-10.1-15.9-14.2-24c-3.4-6.7-6.5-13.8-8.2-21.1c-1-4,1.1-8.8,1.9-13.4c6.9-0.5,12.8-1.3,18.7-1.3
		c2,0,4.4,1.3,6,2.8c11.4,10.2,23,20.2,33.8,30.9c18.2,18.2,40,25.6,65.3,22.4c8.1-1,15.8-1,23.5,1.8c4.7,1.7,9.6,3,14.4,3.9
		c18.2,3.3,33.8,13.7,51.3,18.8c8,2.3,15.8,5.3,23.4,8.7c9.2,4.1,18.5,4.8,28.3,3.5c8.2-11,11-22.5,5.3-35.5c-3.9-9-2-17.5,2.9-25.6
		c2.9-4.8,5.6-9.7,8.6-14.9c-2-1.4-3.5-2.9-5.2-3.5c-3.8-1.3-7.6-2.2-11.5-3.3c-15.3-4.1-15.1-4.2-23.5-17.1c-5-7.6-3.9-16-3.8-24.1
		c0-4.9,6.3-9.6,12.2-9.8c13.1-0.4,23.4-5.5,31.7-16c4.4-5.7,10.2-10.6,16.3-14.6c10.5-7,22-6.2,33.2-1.2c9.7,4.3,19.2,9,29.1,13.7
		c4.1-6.2,1.3-11.8-0.3-17.3c-0.5-1.9-1.7-3.6-2.9-5.2c-8.3-11.1-11.5-22.6-6.4-36.4c2.9-7.7,2.5-16.1-0.1-24.4
		c-1.3-4.2-1.7-9.3-0.7-13.5c2.7-11.5,2.6-22.3-3.3-32.8c-1.4-2.6-2.2-5.5-3.5-9c6.1-1.8,7.4-6.8,8.6-12c1.3-6,3.4-11.1,10.3-13.3
		c2.9-0.9,5.7-4.5,7.3-7.5c5.2-10,10.2-20.2,14.6-30.6c4.7-11.3,10.8-20.9,21.2-28.1c7.6-5.3,13.6-12.7,20.6-18.8
		c6.2-5.4,12.9-10.4,19.6-15.2c4.2-3,20.2-26.6,20.9-31.7c0-0.3,0-0.7,0-1c2.9-20.3,12.3-26.5,33.1-22c-0.6,5.2-1.2,10.4-2,16.3
		c-2.9,2.1-6.4,4.6-10.3,7.4c8.3,13.1-2.1,23.2-5.3,34.7c7.8,4.8,15,7.5,22.4-0.5c2.3-2.5,6.2-3.5,10-5.5c2.4,3.3,2.8,8.8,8.2,7.2
		c10.5-3.3,21.1-0.2,31.6-0.4c6.4-0.1,10.8-2.3,14.4-7.2c8.4-11.5,22-14.3,33.7-20.5c1.8-0.9,4.6,0,6.9,0c7.8,0.3,15.2-0.3,21.3-6.2
		c6.8-6.7,14.4-6.8,23-3.4c12.9,5.2,25.5,5.2,38-2.5c8.1-5,17.2-8.5,25.7-12.7c7.1,4.2,10.7,10,11,18.1c0.2,6.3,0.8,12.6,1.9,18.8
		c0.5,3.1,2.1,6.3,4,8.7c4.2,5.2,5.9,9.8,4.5,17.1c-1.6,8.6,0.3,17.8,0.8,26.7c0.3,5.9,0.7,11.8,1.1,19.1c-5.1-1.7-8.8-2.9-12.4-4.2
		c-13.2-4.8-24.1-0.6-33.6,8.6c-2.2,2-4.4,4.4-5.6,7c-5.8,13.4-18.1,17.3-30.4,19.9c-9.8,2.1-19.4,4.3-28.2,9.3
		c-2.6,1.4-5.4,2.7-8.3,3.3c-9.1,1.6-12.8,9.1-17.1,15.6c-1.4,2.1-0.7,5.8-0.4,8.7c1.7,13,6.1,25.2,13.2,36.2
		c4.6,7.2,8.1,14.4,5,23.3c-0.7,2.1-0.1,4.6-0.1,6.8c4.4,4.5,14.9,4.1,10.3,15c-1.8,0.5-4.2,1.9-6.7,1.9c-12,0.3-22.5,5-33.2,9.8
		c-16.7,7.5-34.1,12.9-52.4,15.4c-4,0.5-7.8,3.2-11.4,5.4c-8.2,5-16,10.8-24.4,15.3c-4.5,2.4-10,3.4-15.1,4.3
		c-6.4,1.1-9.1,2.8-9.5,9.1c-0.3,5.6,0.5,11.3,1.1,16.9c0.4,3.6,1.6,7.1,2.1,10.7c2.1,14.3-2.8,26-13.1,35.8
		c-9.9,9.4-21.1,17.1-32.5,24.7c-8.1,5.4-14.7,13.3-21.8,20.3c-6.1,6-5.9,13.1-1.5,19.8c4.5,6.9,4.6,13.8,1.7,20.9
		c-1.4,3.5-3.5,7.1-6.3,9.8c-13.6,13-25.1,27.2-32.6,44.8c-2.7,6.2-10,10.4-15,15.7c-5.9,6.2-12,12.4-17.5,19
		c-5.8,7-7.5,15.7-6.3,24.4c1.1,8.2,3.6,16.1,5.5,24.2c2.2,9.7,4.5,19.4,6.2,29.2c0.6,3.5,0.9,8-0.8,10.8c-7,11.7-4.7,25.3-8.2,37.6
		c-4.5,15.6-9.3,31.2-13.8,46.8c-1.7,5.7-3,11.6-4.5,17.4c-1.1,4.2-0.7,7.9,3.5,10.3c8.3,4.7,8.3,11.1,5.5,19.4
		c-3.8,11.2-9.2,21.3-15.7,31.1c-2.3,3.5-4,7.6-5.5,11.5c-3.5,9.3-6.6,18.7-10.1,28c-0.9,2.4-2.2,5.2-4.1,6.7
		c-11.8,9.7-16.7,22.8-19.6,37.1c-0.3,1.3-0.6,2.6-0.9,3.9c-15.6,7.1-31.5,12.4-48.6,14.4c-11.7,1.4-20.1-4.7-27.7-11.2
		c-16.1-13.9-31.2-28.9-46.8-43.4c-33.1-30.8-66.1-61.9-99.6-92.3c-5.9-5.4-13.9-9-21.5-12c-14.3-5.8-24.5-15.4-32.3-28.5
		c-7.4-12.5-15.4-24.7-23.8-38.2c19.1,0.1,33.3-10.2,48.4-18.1c17.8-9.4,36.6-13.2,56.7-10.7c14.2,1.7,28.6,3,41.3,10.2
		c9.8,5.6,19.9,11,28.7,18c12.7,10,25.8,12.9,40.9,7.5C2169.8,2897.4,2179.2,2892.2,2189.6,2884.8z"/>
	<path onclick="modals(this.id);" id="884" class="st0" d="M3336.6,440.2c8.4,0.4,15.9,0.8,23.7,1.2c1-3.2,1.9-5.9,3.2-10c3.2,2.1,6.2,3.2,8.1,5.4
		c3,3.3,14.1,6.8,17.5,4.1c3.3-2.6,6.2-5.3,10.3-6.5c0.8-0.2,1-3,1.6-5.1c25.9,13.7,54.4,19.1,82.2,26.4c15.4,4,30.8,8.3,46.2,12.5
		c7.5,2,11.8,5.4,13.4,14.5c6.3,37.3,13.8,74.4,21.3,111.4c3.1,15.6,7.3,31,11,46.6c0.5,1.9,0.6,3.9,0.9,5.8
		c-6.6,2-222.4-6-249.4-9.2c-1.2-12-6-24.1-0.4-36.5c2.7-6.1-1.2-11.1-2.8-16.2c-1.5-5-1.9-9.5-1.2-14.5
		c3.8-26.6,7.5-53.2,11.1-79.8c0.4-2.9,0.5-5.9,0.8-9.4c-2.5-0.9-4.9-1.7-8-2.8c3.3-5.2-2.2-12.9,6.2-16.4c1.2-0.5,1.9-3.2,2.2-4.9
		C3335.3,451.9,3335.8,446.6,3336.6,440.2z"/>
	<path onclick="modals(this.id);" id="877" class="st0" d="M3377.4,295.6c4.7,3.9,9.4,7.1,13.3,11.1c5.4,5.6,12,7.9,19.3,9.5c14.3,3,28.6,6.2,42.8,9.3
		c17.2,3.7,34.4,7.5,51.6,11.2c2.4,0.5,4.9,0.5,9.1,0.9c-2-7.3-3.6-13.1-5.4-19.5c7.6,0,14.5,0,21.9,0c3.5-8.3,3.3-16.5,0.5-24.5
		c-2.2-6.2-1.9-12.1-0.9-18.5c2.3-14.9,7.4-28.7,14.6-42.5c0.8,2.8,1.6,5.5,2.3,8.3c2.6,10.4,6.2,20.3,13.5,28.5
		c2.9,3.3,3.4,6.5,2.6,10.9c-3.4,17.9-6.3,36-9.4,54c-0.5,2.9-0.8,5.8-1.3,9.3c2.3,1,4.3,2.2,6.4,2.7c14.9,3.3,29.8,6.6,44.9,9.4
		c5.4,1,7.8,3.2,9.2,8.5c10.4,38.2,21.2,76.2,31.9,114.3c2.5,8.9,5,17.8,8,28.9c-7.4-3.6-13.3-6.4-20.9-10.1
		c-1.1,14.4,3.6,26.7,3.7,40.1c-2.2-0.4-4.4-0.5-6.4-1.1c-22.5-5.9-44.9-12.2-67.5-17.8c-5.7-1.4-8.4-3.8-9.3-9.7
		c-1.8-10.8-4.5-21.5-6.6-32.2c-0.9-4.6-2.5-7.6-7.7-9c-15.7-4.2-31.2-9.1-46.9-13.5c-17.3-4.8-34.6-9.5-52-13.8
		c-15.7-3.9-30-10.7-43.3-19.8c-6.5-4.4-12.8-9.2-19.4-14c1.9-2.9,3.3-5.1,4.6-7.4c1.9-3.4,5.6-7.2,5-10.1
		c-1.1-5.2-4.5-10.1-7.6-14.7c-2.3-3.4-5.7-6-8.1-8.4c3-9.5,12.9-6.6,17.5-12.6c-1.4-6.4-4-12.2-8.6-17.3
		c-6.8-7.7-13.3-15.8-19.8-23.8c-1.6-2-2.8-4.4-5.3-8.6C3365.6,309.3,3371,301.6,3377.4,295.6z"/>
	<path onclick="modals(this.id);" id="885" class="st0" d="M2795.6,574.5c-7,3.8-15.8,1.4-20.6,9c-9.8-4.2-19.3-8.3-29.5-12.7c-4.6,5.6-8.9,11-13.6,16.8
		c-4.2-2-8.3-4-13.1-6.3c-5.7,4.8-11.3,10-17.3,14.5c-4.2,3.1-8.8,6.7-13.7,7.6c-10.6,2-16.6,8.7-22.2,17
		c-7.8,11.5-16.1,22.6-24.2,33.8c-12.2-6.9-19.9-15.8-24.1-28.7c-4.6-14.2-10.6-28-16.8-41.6c-4.1-9-9.8-17.3-14.3-26.1
		c-3.1-6-0.9-10.1,5.6-11.7c1.9-0.5,3.8-0.7,5.1-0.9c6.6,9.8,12.8,19.1,19.2,28.7c8.7-5.3,7.1-15,12.4-21.5
		c10.6,6.7,20.8,13.4,31.2,19.7c7.1,4.3,14.4,8.2,21.8,12c1.5,0.8,3.8,0.9,5.5,0.5c4.7-0.9,9-3.7,14.3-1.1c1.4,0.7,4.3-1.2,6.2-2.5
		c14.6-9.8,29.2-19.7,43.6-29.8c2-1.4,4.5-4,4.4-6c-0.5-9.4,2.8-17.4,9.1-24.8c-2.8-2.1-4.8-3.8-6.9-5.2c-2.8-1.9-5.2-3.6-5.6-7.6
		c-0.3-2.3-3.1-4.2-5.2-6.8c1.5-0.3,3.3-0.6,5-1.1c5.1-1.4,10.6-2,15-4.5c8.7-5,17.8-8.6,27.4-11.2c3.1-0.8,5.7-4,8.1-6.5
		c2.8-3,4.9-6.6,7.5-10.1c5.5,13.4,10.6,25.9,15.9,38.8c6.5-2.5,10.8-6.5,12.8-11.5c3.1,4.1,5.9,8.6,9.5,12.3
		c9,9.2,16.6,19.1,20.8,31.3c1.3,3.8,3.6,6.2,7.2,7.6c8.8,3.5,13.9,11.3,19.2,18.1c2.9,3.8,2.9,10.9,2.3,16.3
		c-3,24-6.6,48-10.1,72.3c-9.3,2.2-17.3,1.9-24.8-5.2c-14.7-13.9-30.1-27.2-45.3-40.6c-3.5-3.1-5.6-6.5-4.9-11.3
		c0.6-4.4-1.2-7.4-4.9-10.1C2803.4,582.4,2800.1,578.7,2795.6,574.5z"/>
	<path onclick="modals(this.id);" id="596" class="st0" d="M3191.3,571.9c-8-1.5-15.4-2.8-24-4.4c2.3-18.6,4.5-36.8,6.8-56c-9-1.7-17-3.2-25.2-4.7
		c0.6-9.9,0.4-19.6,1.9-29c0.8-5-1.1-7.4-4.8-10.6c5.5-3,10.3-5.2,9.6-13.4c-0.7-7.8,6.9-10.8,14.7-7c3.3-4.6,7.2-7.9,13.8-6.9
		c2.4,0.4,6.3-1.5,7.8-3.6c4.8-6.7,12-7.5,20.3-9.7C3208.4,475.5,3199.9,523,3191.3,571.9z"/>
	<path onclick="modals(this.id);" id="879" class="st0" d="M3322.7,637.9c-6.6,0.9-12.1,1.6-18.5,2.5c-0.7-5.5-1.3-10.3-1.8-15.1c-0.4-3.6,0.4-7.7-1-10.9
		c-4.8-10.5-1.3-20.9-0.2-31.2c1.6-14.5,3.5-28.9,5.3-44c-3.6-0.9-6.6-1.6-10.9-2.7c0.8-7.3,1.3-14.8,2.4-22.2c2.6-17,5.5-34,8.4-51
		c1.4-7.8,3.4-15.5,4.7-23.3c0.5-3.1,0.1-6.6-0.9-9.5c-2.2-6.6-1.6-8,5.7-8c13-0.1,26,0,39,0c1.3,0,2.6,0.4,4.5,0.8
		c-0.5,4.7-1,9.2-1.6,14.6c-8.5,0-16.7,0-25.6,0c0,6.9,0,12.8,0,19.3c-5.3,1.2-8.7,3.5-7.9,9.4c0.4,2.8-0.9,5.8-1.5,8.8
		c-1.1,5.3,0.4,8.6,7.4,8.7c-1.5,11.8-3,23.2-4.5,34.6c-2.6,18.7-5.7,37.4-7.5,56.2c-0.5,5.5,2.6,11.4,3.7,17.2
		c0.6,2.8,1.6,6.3,0.5,8.4c-4.1,7.8-2.3,15.6-1.5,23.4C3321.2,628,3321.9,632.2,3322.7,637.9z"/>
	<path onclick="modals(this.id);" id="883" class="st0" d="M3291.6,539.3c4.2,1,7,1.7,10.7,2.7c-0.4,3.5-0.7,6.6-1.2,11.1c-18.1-2.9-35.3-5.7-53.3-8.5
		c4.2-31.1,8.3-61.2,12.5-91.3c2.7-0.3,4.6-0.5,6.8-0.8c0.5-4.5,1.1-9,1.6-13.4c13-2,31.7-1,39,2.4
		C3299.7,473.4,3294.5,505.9,3291.6,539.3z"/>
	<path onclick="modals(this.id);" id="861" class="st0" d="M3382.3,353.1c-7.4,1.8-13.1,5.3-17.5,11.2c-3.3,4.4-8.3,5.3-13.8,2.2c0.3-3.6,0.6-7.4,1-11.9
		c-5.1-1.3-9.8-2.5-14.1-3.6c-3.6,1.8-2.9,8-8.5,6.1c-0.6-0.2-2.5,1.9-2.9,3.2c-0.8,2.8-1,5.9-1.6,9.9
		c-18.8-9.8-32.5-25.4-49.7-36.9c1.8-3,3.1-5.2,4.6-7.7c1.6,0.4,2.9,0.6,4,1.1c11.5,5.5,11.6,8.3,22.8-5.9c3.3-4.2,5.5-9.3,9.2-12.9
		c5.8-5.5,12.6-10.1,18.7-14.8C3350.7,304.8,3380.2,341.6,3382.3,353.1z"/>
	<path onclick="modals(this.id);" id="881" class="st0" d="M3242.4,420.1c7.9,0.6,15.3,1.1,23.9,1.7c-0.8,9.1-1.5,17.5-2.2,26.3c-2.1,0.5-4.7,0.5-6.1,1.7
		c-1.2,1.1-1.4,3.5-1.6,5.4c-3.9,26.9-8,53.7-11.6,80.6c-1,7.5-0.6,15.3-1.1,22.9c-0.3,3.5-1.2,7-2,11c-9.2-1.3-17.5-2.5-26.7-3.8
		c2.3-22.2,4.6-43.4,6.8-64.7c8.3-8.8,2.4-22.8,11.5-31.5c1.3-1.3,0.8-4.5,1.3-6.7c0.6-2.9-0.6-6.2,3.2-8.4c1.6-0.9,1.8-4.7,2.1-7.3
		C3240.8,438.7,3241.5,430,3242.4,420.1z"/>
	<path onclick="modals(this.id);" id="539" class="st0" d="M2937.4,486.6c3.3-1.6,5.9-3,8.5-4.2c7.4-3.4,9.6-8.3,7.3-15.9c-1.7-5.5-1.7-5.5,0.9-11.2
		c-2.6-2.5-5.4-5.2-8.4-8c17.1-6.1,17.1-6.1,26.7,1.7c1.3-2.4,2.7-5,4.7-8.7c1.9,2.8,3.6,4.4,3.3,5.1c-1.5,3.2-3.5,6.2-5.6,9.8
		c3.4,1.2,6.7,2.3,10.7,3.7c-0.4,4.4-0.9,8.9-1.3,13.5c0.7,0.3,1.4,0.7,2.1,1c4.5-5.5,10.2-9.2,17-13.6c2.8,4,6.1,7.9,8.3,12.3
		c2.4,4.7,4.4,9,8.5,12.9c3.1,3,6.1,9.1,3.6,15c-1,2.4-1.9,4.9-2.8,7.4c-8.2,0-16.1,0-24,0c-0.6,0-1.4-0.7-1.9-0.6
		c-12.1,3.9-21.7-3.5-32.1-7c-3.4-1.1-6.9-2.1-10.3-3.2c-1.4-0.5-2.8-1.2-4-2.1C2945,492.2,2941.7,489.7,2937.4,486.6z"/>
	<path onclick="modals(this.id);" id="882" class="st0" d="M3237.8,420.8c-0.8,8.2,1.8,16-3.6,22.7c2.5,7.7-5.8,13.4-4,21.1c0.3,1.1-0.2,3.1-1,3.7
		c-4.9,3.3-4.2,8.6-5.1,13.3c-0.9,4.8,0,10-4.9,13.5c-0.9,0.7-0.7,3.1-0.9,4.7c-1.8,12.8-3.7,25.6-5.2,38.4
		c-0.7,6.2-0.5,12.4-0.9,18.6c-0.2,2.6-0.8,5.2-1.4,9c-4.5-0.9-8.4-1.6-13.4-2.6c1.3-24.4,8.5-47.4,11-71
		c2.5-23.6,5.5-47.2,8.4-71.4C3222.9,420.8,3229.8,420.8,3237.8,420.8z"/>
	<path onclick="modals(this.id);" id="540" class="st0" d="M2987.5,440.4c2-0.7,5.1-1.8,11.4-4.1c-4.8-2.5-8-4.1-11.8-6.1c11.4-8.8,21-16.3,30.5-23.7
		c12.7,5.9,14.8,10.7,8.2,19.3c8.7,11.7,7.9,24.9,4.4,39c2.8,0.8,5.5,1.6,8.8,2.5c-4.5,6.5-8.1,13.2-18.3,14.1
		c-1.7-3.3-3.6-7-5.6-10.7c-1.5-2.8-2.8-5.9-4.7-8.4c-5.7-7.5-7.9-7.7-16.2-2.3c-3.8-2.2-7.8-4.5-12.1-7
		C2983.7,449.3,2985.4,445.3,2987.5,440.4z"/>
	<path onclick="modals(this.id);" id="538" class="st0" d="M2896.5,559.1c-3.8-4-6.4-7.2-9.5-9.9c-4.7-4.1-10.6-7-14.3-11.8c-3.6-4.5-5-10.7-7.6-16.7
		c23.9-7.4,44.3-23.3,68.2-31.4c0.4,0.6,0.8,1.2,1.3,1.7c-1.8,2.1-3.4,4.5-5.6,6.4c-14.7,12.7-25.7,27.5-28.3,47.4
		C2900.1,549.1,2898.3,553.2,2896.5,559.1z"/>
	<path onclick="modals(this.id);" id="541" class="st0" d="M3035.3,462.7c0.7-12.4,3.2-24.3-4.1-35.8c3.4-3.7,2.9-8.5,0.9-13.2c-1.5-3.4-3.2-6.9,0.7-9.7
		c3.4-2.4,12.6-0.4,14.7,3.3c1.2,2.2,1.6,4.8,2.1,7.4c0.4,1.9,0.3,3.8,0.4,6.2c8.9,1.9,17.4,3.7,26.4,5.5
		c-10.6,11.6-20.7,22.5-30.4,33.6C3043,463.5,3040,464.4,3035.3,462.7z"/>
	<path onclick="modals(this.id);" id="862" class="st0" d="M3348.2,356.9c-0.5,4.2-0.9,7.8-1.4,11.8c6.5,3.3,13.1,5.2,19.5-0.2c4.5,5.1,8.7,9.7,12.6,14.5
		c4,4.7,4,7.2,0.3,12.3c-2,2.7-4.2,5.2-7,8.6c-3.7-2.5-7.5-4.9-11.2-7.4c-7.9-5.5-15.5-11.4-23.6-16.5c-6.9-4.3-8.5-10.2-7.4-18.3
		c4.2,0.1,8.9,0.1,8.4-6.5C3342.1,355.8,3344.9,356.3,3348.2,356.9z"/>
	
	<path onclick="modals(this.id);" id="901" class="st0" d="M2783.4,1907.2c6.2,6.5,11.6,12.3,16.8,17.8c0.8,6.4-4.7,10.8-2.9,17.6c3,11.9,2.4,12.2,16,13.3
		c0.9-1.8,1.7-4,3.1-5.7c1.4-1.7,3.1-3.4,5-4.2c5.3-2.2,10.9-3.9,17.1-6.1c-0.1,8.7-6.2,13.7-13.6,17.4
		c-9.7,4.9-18.4,10.8-23.9,20.4c-2.4,4.3-4.5,8.9-6.2,13.6c-3.2,9.1-5.7,18.4-9.2,27.4c-2,5.2-1.2,8.6,2.7,12.3
		c4.1,3.9,7.3,8.6,11.1,12.8c7.4,8.4,12.3,17.9,13.4,29.4c1.3,13.2,3.8,26.3,4.8,39.5c0.9,11.7-3.4,20.5-14.9,26.7
		c-15.2,8.1-30.7,12.5-47.8,10.5c-6.8-0.8-12.6,1.6-18,4.7c-7.2,4.1-14.7,5.8-22.9,5.2c-12.4-0.9-24.5,0.1-35.8,6.3
		c-3.3,1.8-7.5,1.8-12.5,2.9c-0.8-4.7-2-8.5-1.9-12.3c0.2-11,0.9-21.9,1.4-32.8c0-1,0.5-2,0.3-2.9c-3.2-12.6-0.2-24.3,5.3-35.7
		c1.5-3.1,2.9-6.1-0.3-9.1c-2.8-2.7-5.4-1-8.3,0c-11.6,4.1-23.2,8-34.9,11.9c-1.6,0.5-3.2,1.3-4.8,1.2c-13.2-0.9-20.6,7.8-27.3,16.9
		c-7.4,10-16.8,17.9-25.9,26.1c-5.9,5.3-11.5,11-16.7,16.9c-2.4,2.7-4.6,4.4-8.2,4.9c-4.6,0.7-9.1,1.9-13.6,3.2
		c-4.8,1.4-9,0.8-13.1-2.4c-3.4-2.7-7.1-4.8-11.6-7.8c1.3-6.2,2.6-12.5,4-18.9c0.3-1.6,1.2-3.2,1.2-4.8c0.2-11.9,0.1-23.8,0.3-35.7
		c0-3,0.8-5.9,1.1-8.9c0.3-2.3,1.1-4.9,0.4-6.8c-3.3-9,1.5-14.6,7.7-19.7c8.7-7.2,17.1-14.9,26.7-20.8c6.2-3.8,14.1-5.4,21.4-7
		c7.7-1.7,15.8-2,23.6-3.3c2.8-0.5,5.8-1.8,8.1-3.5c12.3-9.5,26.2-13.5,41.6-14.2c11.2-0.5,22.4-1.9,32.5-8.2
		c3.7-2.3,8.7-3.1,13.3-3.4c4.4-0.3,7.7-1.2,9.7-5.4c4.3-9.1,12.2-14.7,20.2-20.2c9.6-6.6,19.3-13.1,29-19.5
		c11-7.3,19.7-16.6,27-27.6C2776.4,1915.2,2779.6,1911.8,2783.4,1907.2z"/>
</g>
<g>
	
	<path onclick="modals(this.id);" id="486" class="st0" d="M2892.9,462.3c1.7,1.3,4.4,3.3,7.1,5.4c-5.9,9.8-11.6,19.6-17.6,29.1c-2,3.1-2.6,5.8-1,9.1
		c0.5,1.1,0.3,3.7-0.5,4.1c-11,6.5-19.6,10-28.8-4.1c-0.6-0.9-1.5-1.9-2.5-2.4c-5.1-2.7-6-7-5.4-12.3c0.3-2.4-0.4-5-1.6-7.3
		c2.1-4.4,4.2-8.8,6.4-13.4c1.9,1.2,3.8,2.8,5.9,3.8c4.8,2.2,9.7,4.2,14.6,6.1c2.9,1.1,4.6-0.1,6.8-2.6
		C2881.3,472.3,2887.1,467.7,2892.9,462.3z"/>
	<path onclick="modals(this.id);" id="537" class="st0" d="M2902.2,499.5c0.2-1.7,0.6-3.3,0.5-4.8c-0.2-9.6,6.4-15.7,11.6-22.6c2.4-3.2,7-5,6.4-10.2
		c0-0.1,1.7-0.6,2.6-0.7c1.7-0.2,3.9,0.4,5.1-0.4c2.5-1.8,4.7-4.2,6.7-6.7c3.2-4.1,7-4.7,11-1.4c1.3,1,2.4,2.2,3.7,3.5
		c-1.4,2.2-3,4.8-4.5,7.3c5.7,4.2,6.5,6.6,4.1,12.1c-0.4,0.9-1.2,1.9-2,2.3c-7.2,3.4-14.5,6.5-21.7,9.9
		C2917.7,491.6,2910,495.6,2902.2,499.5z"/>
	<path onclick="modals(this.id);" id="872" class="st0" d="M3275.2,382.1c-0.4,4.3-0.6,7.8-1,11.1c-0.1,0.7-0.8,1.9-1.3,1.9c-5.1,0.3-4.5,4.1-5,7.4
		c-0.6,4.7-1.4,9.4-2.2,14.5c-5.7,0-11.9,0-18,0c0.7-11.8,1.4-23.4,2.1-35C3258,382.1,3266.4,382.1,3275.2,382.1z"/>
	<path onclick="modals(this.id);" id="869" class="st0" d="M3357.8,419.3c-7.4,0-14.7,0-22.2,0c0-10.3,0-20.3,0-30.3c8.5-2.6,13.5,3.7,18.9,7.5
		c10.1,7,9.8,7.4,4.8,19C3358.8,416.7,3358.3,418.1,3357.8,419.3z"/>
	<path onclick="modals(this.id);" id="940" class="st0" d="M2927.4,295.5c-4.5,6.1-8.1,12.4-16.4,13.2c0.5-5.6-2.1-7.4-12.2-8.6c1.6-11.7,3.3-23.3,5-35.6
		c3.4,0.4,6.9,0.5,10.3,1.4c1.1,0.3,2.3,2.7,2.2,4.1c-0.6,5.6-1.6,11.3-2.7,16.8c-0.9,4.6,1,7.3,5.7,7.6
		C2921.8,294.7,2924.3,295.1,2927.4,295.5z"/>
	<path onclick="modals(this.id);" id="878" class="st0" d="M3365.7,404.4c11.2,7.8,20.6,14.5,30.1,21.1c0.7,6.6-5.8,8.5-8.9,12.1c-1.5,1.7-7.7-0.6-11.8-1.2
		c-0.2,0-0.6-0.5-0.6-0.7c2.1-8.4-5-4.8-8.2-6.1c-1-0.4-2.3-0.1-4.4-0.1C3363.2,421.2,3364.4,413.3,3365.7,404.4z"/>
	<path onclick="modals(this.id);" id="857" class="st0" d="M3234.6,366.5c-2.9,0-6.4,0.2-9.9-0.1c-4.6-0.4-7,1.2-6.4,6.2c0.1,1.1,0,2.3,0,3.6
		c-2.7,0-4.9,0-8.7,0c3.5-16.4,6.9-32.6,10.6-49.7c2.2,0.4,5,0.5,7.6,1.5c0.8,0.3,1.1,3,0.9,4.6c-0.5,4.8-2.4,9.7-1.8,14.4
		c0.7,5.2,3.5,10.2,5.5,15.2C3232.9,363.6,3233.8,364.9,3234.6,366.5z"/>
	<path onclick="modals(this.id);" id="870" class="st0" d="M3332.1,418.6c-6.5,0-12.8,0-19.6,0c0-10,0-19.6,0-29.6c6.4,0,12.8,0,19.6,0
		C3332.1,398.8,3332.1,408.9,3332.1,418.6z"/>
	<path onclick="modals(this.id);" id="876" class="st0" d="M3308.1,417.8c-12.5,0-24.8,0-38,0c0.4-6.2,0.8-11.9,1.3-18.5c5.8,0.4,11.5,0.7,16.9,1.1
		c4.4,9,12.8,5,19.8,6.4C3308.1,410.5,3308.1,414.1,3308.1,417.8z"/>
	<path onclick="modals(this.id);" id="871" class="st0" d="M3278.5,382.7c10.1,0,19.6,0,29.5,0c0,6.5,0,12.9,0,19.5c-5.1,0-10.1,0-15.5,0
		c1.7-4.2,0.9-6.6-4.3-5.7c-1.8,0.3-3.6,0.1-5.5,0.2c-4.8,0.2-5.6-0.9-4.7-5.7c0.2-1.3,0-2.6,0-3.9
		C3278.1,385.8,3278.3,384.4,3278.5,382.7z"/>
	<path onclick="modals(this.id);" id="859" class="st0" d="M3241.8,330.9c8.3,1.6,16.7,3.2,25.2,4.8c-0.2,4.9-0.2,9.6-0.8,14.2c-0.1,1-2.2,2.5-3.3,2.5
		c-6.6-0.1-13.3-0.4-19.8-1.1c-1-0.1-2.5-2.8-2.5-4.3C3240.6,341.6,3241.3,336.3,3241.8,330.9z"/>
	<path onclick="modals(this.id);" id="880" class="st0" d="M3305.3,422.1c0,3.4-0.1,5.8,0.1,8.3c0.1,1.1,0.8,2.1,1.3,3.1c0.2,0.4,0.9,0.9,0.8,1.1
		c-0.2,0.5-0.8,1.2-1.1,1.2c-12.3-0.6-24.5-1.4-36.9-2.1c0-4.3,0-7.9,0-11.7C3281.3,422.1,3292.9,422.1,3305.3,422.1z"/>
	<path onclick="modals(this.id);" id="844" class="st0" d="M2898.7,304.2c8.2,1.2,8.2,1.2,7.2,9.3c-4.5-2.3-8.3-0.4-11.5,2.5c-4.7,4.2-9.1,8.6-13.8,13.1
		c1.5,6.4-1.8,11-6.2,15.2c-1.5,1.5-3,3.1-4.6,4.6c-1.6,1.5-2.9,2.8-0.7,4.8c0.5,0.4,0.6,1.7,0.4,2.3c-1.5,4.2-3.2,8.3-5.1,13.2
		c-0.7-1.3-1.2-1.8-1.2-2.3c-0.2-8.8-0.8-17.8,2.6-26.2c0.9-2.2,2.9-3.9,4.5-5.8c7-8.5,14.1-16.8,23.4-23.1
		C2895.8,310.4,2896.8,307.1,2898.7,304.2z"/>
	<path onclick="modals(this.id);" id="487" class="st0" d="M2886.7,507.4c-2.2-2.9-3.3-5.4-0.8-9.2c7.9-11.9,15.2-24.1,23-36.5c-0.8-0.8-2-2.2-3.2-3.5
		c6-7.6,6.7-7.6,13.8,0.2c-6.3,8.8-12.7,17.7-19,26.6c-0.7,1-1.1,2.4-1,3.6C2899.9,497.9,2896.1,504.2,2886.7,507.4z"/>
	<path onclick="modals(this.id);" id="534" class="st0" d="M2997.9,393.1c5.7,3.5,10.8,6.7,17,10.5c-8,6.3-15.8,12.4-23.6,18.5c-4.2,3.2-6.3-1.3-10.3-2.7
		C2986.7,410.6,2992.2,402.1,2997.9,393.1z"/>
	<path onclick="modals(this.id);" id="865" class="st0" d="M3276.6,373.5c-9.2-0.5-17.6-0.9-26.4-1.3c0.5-5.5,1-10.8,1.5-16.5c8.4,0.4,16.8,0.8,24.9,1.2
		C3276.6,362.2,3276.6,367.5,3276.6,373.5z"/>
	<path onclick="modals(this.id);" id="402" class="st0" d="M2826.9,500.5c-2-6.2-3.4-12-5.7-17.6c-1.3-3.1-3.9-5.6-6-8.6c4.7-3.9,9.4-7.7,14.5-12
		c1.3,1.2,2.8,2.7,4.5,4.3c-1.9,3.2-3.9,6.2-5.6,9.4c-0.3,0.6,0.3,1.9,0.7,2.6c0.5,0.8,1.4,1.4,2,2.2c2,2.2,6.1,5.2,5.6,6.5
		C2835.1,492.3,2833.8,498.1,2826.9,500.5z"/>
	<path onclick="modals(this.id);" id="483" class="st0" d="M2876.3,432.4c1,1.9,2,3.4,1.8,3.6c-3.5,3.8-0.8,5.3,2.2,7.1c1.3,0.8,2.2,2.5,3.6,4.2
		c1.9-1.7,3.3-3,4.9-4.6c3.8,2.9,0.9,5.2-0.9,6.8c-2.2,1.9-4.9,3.3-7.6,4.4c-1,0.4-2.7-0.2-3.7-0.9c-2.2-1.4-4.2-3.2-6.4-5
		c-3,4.2-5.6,7.7-8.2,11.4c-0.5-0.5-1.4-0.8-1.5-1.3c-0.3-3.2-1.2-6.7-0.6-9.7c0.7-3.3,2.8-6.3,4.5-9.3c0.4-0.7,1.9-1.6,2.4-1.3
		C2871.6,440,2873.8,437.2,2876.3,432.4z"/>
	<path onclick="modals(this.id);" id="403" class="st0" d="M2814.9,440.4c5,3.7,9.1,6.9,13.9,10.5c-5.5,2.2-4.8,5.4-2.4,8.8c-2.9,2.6-5.7,4.9-8.1,7.1
		c-1.7-1.1-3.2-2.8-5-3.1c-7-1.3-9-6-5-11.7C2810.9,448.2,2812.8,444.2,2814.9,440.4z"/>
	<path onclick="modals(this.id);" id="493" class="st0" d="M2938.1,414c2.2-3.8,4.2-7.6,6.6-11c0.5-0.8,3-1,4-0.4c5.2,3.1,10.1,6.5,16.5,10.7
		c-2.6,2-4.9,3.6-6.9,5.4c-1.8,1.6-3.2,3.5-4.8,5.2C2948.8,420.7,2943.6,417.4,2938.1,414z"/>
	<path onclick="modals(this.id);" id="858" class="st0" d="M3246.2,372.3c-2.4,0-4.4,0-6.8,0c0-1.8-0.1-3.4,0-5c0.1-2.5-0.7-4-2.7-6.1
		c-2.4-2.5-3.3-6.8-4.2-10.5c-1.9-7.3-1.5-14.7,0.6-22c1.5,0.4,3.2,0.8,5.2,1.2c-0.6,6.2-1.2,12.3-1.8,18.5c-0.4,3.7-0.2,6.7,5,6.2
		c2.2-0.2,4.4,0.8,6.9,1.2C3247.6,361.5,3246.9,366.9,3246.2,372.3z"/>
	<path onclick="modals(this.id);" id="480" class="st0" d="M2906.8,411.7c-4,6.8-7.9,13.3-12,20.2c-1.7-1.2-2.6-1.6-3.4-2.4c-3.5-3.5-6.4-3.9-8.8,1.1
		c-0.3,0.5-1.5,0.6-2.3,0.8c0-0.9-0.4-2.1,0-2.7c3-4.1,6.1-8.1,9.2-12c1.9-2.4,4.6-4.5,5.9-7.2c2.2-4.3,4.5-3.2,7.2-1.1
		C2903.9,409.5,2905,410.3,2906.8,411.7z"/>
	<path onclick="modals(this.id);" id="875" class="st0" d="M3229.3,398.6c1.9,0,3.1,0,3.6,0c0,6.2,0,12.3,0,19.2c-6.9-0.5-12.8-0.8-18.6-1.5
		c-1.1-0.2-2.6-2.3-2.8-3.7c-0.5-2.4-0.1-4.9-0.1-8.1c4.1,0,8.1-0.2,12,0.1C3227.6,404.9,3230.4,404.1,3229.3,398.6z"/>
	<path onclick="modals(this.id);" id="412" class="st0" d="M2860.9,383.5c-2.3,2.7-5.2,4.7-5.1,6.5c0.3,3.6,2.3,7,3.9,11.4c-0.2,0.4-1,2-1.7,3.4
		c-7.8-3.7-15.7-7.5-23.7-11.3c5.5-3.6,10.2-7.4,15.5-9.8C2852.6,382.5,2856.5,383.5,2860.9,383.5z"/>
	<path onclick="modals(this.id);" id="860" class="st0" d="M3269,353.1c0.7-6.1,1.3-11.8,2.1-18.2c6.9,5,13.1,9,18.6,13.7c2,1.7,2.4,5.2,3.8,8.5
		c-5.7,0.6-9.4,0.4-13.4-2.8C3277.9,352.6,3273.5,353.5,3269,353.1z"/>
	<path onclick="modals(this.id);" id="873" class="st0" d="M3243.9,417.3c-2.3,0-4.6,0-7.5,0c0.3-4.2,0.7-8.4,0.9-12.5c0.4-6.9,0.6-13.8,1-20.7
		c0.4-5.8,4.7-2.7,8-3.6C3245.5,393,3244.7,405,3243.9,417.3z"/>
	<path onclick="modals(this.id);" id="536" class="st0" d="M2950.6,440.9c5.5-8.6,11.1-17.3,16.8-26.3c3,1.8,5.7,3.4,8.8,5.2
		C2969.8,429.5,2966.3,442.4,2950.6,440.9z"/>
	<path onclick="modals(this.id);" id="874" class="st0" d="M3234.2,386.8c0,3,0,5.6,0,8.4c-3.8,0.8-9-1.1-9.2,5.3c-3.9,0-7.4-0.4-10.8,0.1
		c-3.9,0.5-4.9-2-5.6-4.7c-0.8-3.2,1.8-2.9,3.9-3.6c1.8-0.7,3.1-2.9,4.6-4.4c-0.4-0.4-0.7-0.8-1.1-1.1
		C3221.8,386.8,3227.7,386.8,3234.2,386.8z"/>
	<path onclick="modals(this.id);" id="490" class="st0" d="M2925.2,443.8c-5.6-3.4,0.8-5.8,0.4-8.6c4.7,2.8,9.5,5.6,14.1,8.4c-3.5,3.7-7,7.3-10.4,11.1
		c-2.9,3.1-5.5,3.1-8.5,0c-2.1-2.2-4.8-3.9-7.4-6.1c0.8-1.3,1.8-2.9,3.1-5C2919.2,445.8,2921.9,448.8,2925.2,443.8z"/>
	<path onclick="modals(this.id);" id="470" class="st0" d="M2924.2,379.2c6.2-10.9,12.4-22,18.8-33.2c1.8,4.3,3.8,8.5,5.3,12.9c1.4,4.2-2.6,5.9-4.8,7.7
		c-5.8,4.6-12.3,8.5-18.5,12.6C2924.7,379.4,2924.1,379.2,2924.2,379.2z"/>
	<path onclick="modals(this.id);" id="420" class="st0" d="M2899.4,380.4c0-2.9-0.8-6.7,5.3-5.1c0.8,0.2,2.6-2,3.4-3.4c0.9-1.5,1.1-3.3,1.8-5.5
		c4.8,1.6,9.5,3.2,14.3,4.9c0.3,0.7,0.7,1.4,1,2.1c-5,5-9.9,9.9-14.9,14.9c-0.3-0.7-0.5-1.4-0.8-2.1
		C2906.4,384.3,2903.1,382.5,2899.4,380.4z"/>
	<path onclick="modals(this.id);" id="868" class="st0" d="M3338.6,385.3c-9.4,0-17.4,0-26.4,0c0.4-5.7,0.8-11.3,1.3-17.7
		C3321.7,373.4,3329.6,379,3338.6,385.3z"/>
	<path onclick="modals(this.id);" id="404" class="st0" d="M2839.5,482.7c-2.4-1.8-4.2-3.1-5.9-4.4c0.4-5.2,6-8.9,3.2-14.9c4.2-3.5,8.7-7.3,13.2-11
		c0.5-0.4,1.6-0.2,2.5-0.2c0,0.7,0.2,1.5-0.1,2.1C2848.2,463.6,2844,472.9,2839.5,482.7z"/>
	<path onclick="modals(this.id);" id="425" class="st0" d="M2901.5,346.3c-6.2-2.4-12.7-5-19.4-7.6c2.2-3.8,4-7,5.8-10.2c6.3,2.6,12.3,5,18.1,7.3
		C2904.5,339.3,2903,342.7,2901.5,346.3z"/>
	<path onclick="modals(this.id);" id="866" class="st0" d="M3209.6,389.5c0-4,0-6.7,0-9.2c3.7,0,7.3,0,11.5,0c0.5-3.2,1.1-6.7,1.8-10.8
		c4.1,0.4,8.4,0.9,12.6,1.3c0,4.2,0,8.2,0,12.6c-5.9,0-11.3,0.5-16.7-0.2c-3.7-0.4-6.6-1.6-6.6,3.8
		C3212.2,387.5,3211,388.2,3209.6,389.5z"/>
	<path onclick="modals(this.id);" id="414" class="st0" d="M2865.6,419.6c-3.4-11.2,6.2-14.7,10.6-22c4,7.7,4.7,15,0.5,21.2
		C2874.4,422.6,2869.1,420.7,2865.6,419.6z"/>
	<path onclick="modals(this.id);" id="409" class="st0" d="M2857.4,441.8c-0.7-3.9-1.3-7.9-2-11.8c-0.5-2.3-1.2-4.6-1.7-6.9c-0.2-1.1-0.3-2.5,0.2-3.3
		c0.5-0.7,2.7-1.3,2.9-0.9c3.8,4.4,9.3,4.3,14.3,5.6c0.3,0.1,0.5,0.3,0.8,0.5C2867.1,430.5,2862.3,436.1,2857.4,441.8z"/>
	<path onclick="modals(this.id);" id="429" class="st0" d="M2940.8,336.9c-0.6,2.3-1.3,4.7-2,7.4c-3.3-1.8-5.7-0.3-6.3,3.3c-0.9,6.2-5.3,5.7-10.7,5.9
		c2.8-7.2,5.4-13.9,8.1-20.9C2933.9,334.2,2937.4,335.6,2940.8,336.9z"/>
	<path onclick="modals(this.id);" id="411" class="st0" d="M2827.3,401.9c0.5-2.7,1-4.9,1.4-7.4c6,3.2,11.9,6.3,18.3,9.7c-2.9,4.5-6,9.3-9.8,15.3
		c-0.9-2.1-2.1-3.7-1.8-4.6c2.9-6.7-2.1-9.1-6.3-12C2828.7,402.6,2828.1,402.3,2827.3,401.9z"/>
	<path onclick="modals(this.id);" id="863" class="st0" d="M3295.3,373.1c0-4.6,0-9,0-13.5c0-1.3,0.1-2.6,0.3-5.2c4.7,3.6,9.2,6.2,12.6,9.8
		c1.6,1.8,1.1,5.5,1.6,8.8C3304.8,373.1,3300.5,373.1,3295.3,373.1z"/>
	<path onclick="modals(this.id);" id="476" class="st0" d="M2932.3,399.4c-4.9,7.5-4.9,7.5-12.1,3.1c-3.9-2.4-7.6-5-11.4-7.5c0.1-0.1,0.1-0.5,0.3-0.6
		c8.6-5.7,9.7-5.6,19.5,1.9C2929.8,397.2,2930.9,398.2,2932.3,399.4z"/>
	<path onclick="modals(this.id);" id="535" class="st0" d="M2990.3,436.3c-6.3,0.9-11.2,1.3-16,2.3c-1.5,0.3-2.6,2.3-4.3,3.9c-2.5-1.3-2.7-3.1-0.2-6.2
		c3.4-4.3,6.1-9.2,9.3-14.1c2.1,1.3,4.2,2.5,6.5,4c-0.8,1.9-1.5,3.7-2.2,5.5C2985.3,433,2987.2,434.2,2990.3,436.3z"/>
	<path onclick="modals(this.id);" id="477" class="st0" d="M2925.3,409.9c-1.4,2.3-2.6,4.2-4,6.5c-5.9-3.8-11.8-7.5-17.6-11.2c-1.7-1.1-2.6-2.6-1-4.3
		c1.4-1.6,2.5-4,5.5-2.1C2913.7,402.5,2919.3,406.1,2925.3,409.9z"/>
	<path onclick="modals(this.id);" id="405" class="st0" d="M2833.7,461.5c-1.7-1.8-3.3-3.6-5.3-5.7c4.5-4.8,9.1-9.6,13.9-14.8c2.6,2.8,4.6,4.9,6.7,7.2
		C2844.1,452.5,2839,456.9,2833.7,461.5z"/>
	<path onclick="modals(this.id);" id="492" class="st0" d="M2953.9,428.6c-1.8,2.9-3.5,5.5-4.5,7.2c-5.8-4.1-11.6-8.2-17.5-12.4c2.3-6.1,4.3-6.8,9.2-3.5
		C2945.1,422.6,2949.2,425.3,2953.9,428.6z"/>
	<path onclick="modals(this.id);" id="410" class="st0" d="M2850.9,404.8c3.9,4.3,11,4.6,10.1,11.6c-2.5-0.3-5.6-1.5-7.6-0.5c-1.9,0.9-2.7,4.2-4.1,6.4
		c-1,1.6-2.3,3-3.5,4.4c-4.5-2.1-4.5-5.2-2.7-8.6C2845.5,413.9,2848,409.7,2850.9,404.8z"/>
	<path onclick="modals(this.id);" id="542" class="st0" d="M3014.8,399.4c1.6-2.7,3.1-4.9,4.2-7.2c1.3-2.7,2.5-3.5,5.2-1.4c3.2,2.5,6.7,4.5,9.2,6.3
		c-2.6,3.2-5,6.1-7.7,9.5C3022.1,404.1,3018.3,401.7,3014.8,399.4z"/>
	<path onclick="modals(this.id);" id="473" class="st0" d="M2952.6,384.3c-1.6,2.2-3,4.2-4.4,6.1c-4.4-0.4-6.5-7.2-11.5-3.4c-1.5-2.6-3-5.1-4.9-8.4
		c-0.2,0.9-0.2,0.4-0.1,0.3c6.8-4.7,6.8-4.8,15.2,0.9C2948.9,381.1,2950.5,382.6,2952.6,384.3z"/>
	<path onclick="modals(this.id);" id="406" class="st0" d="M2829.5,446.7c-2.6-2.1-6.1-4.8-9.9-7.9c1.7-2.6,3.5-5.4,5-7.7c7.3-0.9,9,5.4,12.9,9.3
		C2834.9,442.4,2832.3,444.4,2829.5,446.7z"/>
	<path onclick="modals(this.id);" id="418" class="st0" d="M2878.5,375.3c-12.4-4.3-11.7-0.8-6.1-17.5c3.4,1.1,6.8,2.2,10.7,3.4
		C2881.6,366,2880.1,370.4,2878.5,375.3z"/>
	<path onclick="modals(this.id);" id="485" class="st0" d="M2857.2,461.6c7.1,3.5,13.5,6.7,19.8,9.8c-1.5,1.6-3.1,3.4-5,5.5c-5.7-2.3-11.7-4.7-18-7.3
		C2855.1,466.9,2856.2,464.3,2857.2,461.6z"/>
	<path onclick="modals(this.id);" id="428" class="st0" d="M2908.6,339.2c2-4.4,3.8-8.3,5.8-12.5c4,1.6,7.8,3,12.1,4.7c-0.9,2.2-1.8,4.6-2.7,7
		c-2.4,0.3-6.1-3-6.7,2.4c0,0.3-2.3,0.6-3.5,0.3C2911.9,340.7,2910.3,339.9,2908.6,339.2z"/>
	<path onclick="modals(this.id);" id="495" class="st0" d="M2958.8,381.2c5.5,3.5,10.6,6.6,15.9,10c-1.4,2.3-2.7,4.3-4.3,7c-5.3-3.4-10.5-6.6-15.9-10
		C2955.9,385.9,2957.2,383.7,2958.8,381.2z"/>
	<path onclick="modals(this.id);" id="529" class="st0" d="M3008.2,380.2c3.4,2.4,6.6,4.6,9.8,6.8c-0.2,0.3-0.5,0.7-0.8,1.1c-6.2,9.7-7.9,9.8-16.8,1.5
		c1.4-1.3,2.9-2.5,4.2-3.9C3005.8,384.2,3006.7,382.4,3008.2,380.2z"/>
	<path onclick="modals(this.id);" id="416" class="st0" d="M2892.7,385.8c-2.4,6.2-4.9,12.6-7.4,19.2c-4.9-3.4-6-7.9-3.8-12.2c0.9-1.7,1.6-3.5,2.3-5.3
		C2886.2,381.4,2886.2,381.4,2892.7,385.8z"/>
	<path onclick="modals(this.id);" id="417" class="st0" d="M2871.2,389.6c-1.3-1.1-2.9-1.8-3.5-3c-1-1.7-2.4-4.6-1.7-5.6c1.3-1.9,2.2-5.7,6.1-4.1
		c3.3,1.4,6.6,2.6,10,4c-1.1,3.3-2.2,6.5-3.3,10c-1.2-1.4-2.1-2.4-3.1-3.4C2874.1,388.2,2872.8,388.8,2871.2,389.6z"/>
	<path onclick="modals(this.id);" id="488" class="st0" d="M2903.8,454.6c-5.2,3.4,0.2,6.9,0.4,11.6c-2.9-2.1-4.6-3.5-6.4-4.7c-2.7-1.8-4.7-6.1-9.1-2.3
		c-0.5,0.5-2.9-1.2-4.6-2c4-3.3,7.6-6.3,11.5-9.6C2897.5,449.2,2900.3,451.6,2903.8,454.6z"/>
	<path onclick="modals(this.id);" id="864" class="st0" d="M3291,373.3c-3.8,0-7.4,0-11.9,0c0.4-4.3,0.8-8.4,1.3-13.2c4.3,0.6,8,1.1,11.7,1.5
		C3291.7,365.7,3291.4,369.3,3291,373.3z"/>
	<path onclick="modals(this.id);" id="494" class="st0" d="M2948.1,397.6c0.9-1.4,1.9-2.6,2.6-4.1c1.2-2.4,2.3-2.5,4.5-0.8c4,3,8.3,5.6,12.8,8.5
		c-1.2,2.1-2.6,4.4-4,6.8C2958.8,404.7,2953.6,401.3,2948.1,397.6z"/>
	<path onclick="modals(this.id);" id="430" class="st0" d="M2942.2,333.8c-3.9-1.7-7.2-3.1-10.7-4.6c1.8-4.5,3.5-8.9,5.2-13.2c2.5,2,5.2,4,7.6,6.2
		c0.7,0.7,1.3,2.2,1.1,3.1C2944.6,328,2943.4,330.6,2942.2,333.8z"/>
	<path onclick="modals(this.id);" id="484" class="st0" d="M2885.5,462.4c-2.9,4.1-5.4,7.3-10.8,3.2c-2.4-1.8-6.1-1.9-10-3.1c2.2-3.5,4-6.2,6.5-10.2
		C2873.9,459.5,2881.1,458.4,2885.5,462.4z"/>
	<path onclick="modals(this.id);" id="424" class="st0" d="M2873,353.8c2.9-3.9,5.4-7.4,8.3-11.3c1.9,0.6,4.2,1.2,6.3,2.3c0.7,0.3,1.2,2.1,1,3
		C2886.2,358.1,2885.9,358.2,2873,353.8z"/>
	<path onclick="modals(this.id);" id="431" class="st0" d="M2926.9,308.9c2.3,1.1,4.7,2.3,7.5,3.7c-1.4,3.3-2.8,6.1-4,9.1c-2.7,7.2-2.7,7.2-9.7,3.4
		C2922.7,319.8,2924.8,314.4,2926.9,308.9z"/>
	<path onclick="modals(this.id);" id="422" class="st0" d="M2899.5,362c0.9-2.1,1.5-3.6,2.2-5.1c0.3,0.1,0.6,0.2,0.9,0.3c-0.1,1.1,0,2.3-0.3,3.4
		c-0.8,2.7-1.9,5.4,2.1,6.8c0.5,0.2,0.8,2.1,0.5,2.9c-0.2,0.5-1.9,0.9-2.7,0.6c-5.3-1.9-10.5-3.9-16.1-6c0.9-2.4,1.8-4.7,2.6-6.7
		C2892.3,359.4,2895.9,360.7,2899.5,362z"/>
	<path onclick="modals(this.id);" id="481" class="st0" d="M2916.5,433.1c-6.7,6.7-12.5,5.5-17.6-1.6c1.6-2.2,3.6-5,5.6-7.7
		C2908.5,426.9,2912.5,430,2916.5,433.1z"/>
	<path onclick="modals(this.id);" id="426" class="st0" d="M2890.5,325.6c2.6-4.9,5.4-7,10.3-4.2c2.9,1.7,6.3,2.4,9.9,3.7c-1.2,2.5-2.2,4.7-3.4,7.3
		C2901.6,330.1,2896.1,327.9,2890.5,325.6z"/>
	<path onclick="modals(this.id);" id="482" class="st0" d="M2884.3,441.5c-1.2-0.8-2.4-1.6-3.8-2.6c2.1-2.3,4.2-4.7,6.5-7.4c5.6,2.9,11.4,5.8,17.2,8.8
		c-5.3,5.3-9.1,3.2-13.4-0.4c-1.3-1.1-4.3,0-6.5,0.1C2884.3,440.4,2884.3,441,2884.3,441.5z"/>
	<path onclick="modals(this.id);" id="415" class="st0" d="M2904.2,389.6c-5.2,5.3-10.5,10.6-14.7,14.9c1.9-5.1,4.4-11.8,7.1-18.4c1-2.5,4.6-2.1,6.5,0.6
		c0.8,1.2,1.5,2.6,2.2,3.9C2904.8,390.4,2904.5,390,2904.2,389.6z"/>
	<path onclick="modals(this.id);" id="867" class="st0" d="M3240.4,376.7c22.9,0,45.7,0,68.6,0c0.1,0.3,0.3,0.7,0.4,1c-1.2,0.6-2.5,1.7-3.7,1.7
		c-14-0.5-28-1.3-42-1.8c-6-0.2-12.1-0.1-18.1-0.1c-1.8,0-3.5,0-5.3,0C3240.4,377.3,3240.4,377,3240.4,376.7z"/>
	<path onclick="modals(this.id);" id="419" class="st0" d="M2882,377c1-3.2,1.9-5.9,2.8-8.9c4.5,1.7,8.4,3.2,12.6,4.9c-1.1,3-2.1,5.8-3.2,8.7
		C2890,380,2886.3,378.6,2882,377z"/>
	<path onclick="modals(this.id);" id="496" class="st0" d="M2960.6,378c2.5-2,4-3.2,5.7-4.5c3.8,2.4,7.7,4.8,11.5,7.1c2,1.2,2.8,2.7,1.2,4.7
		c-1.4,1.7-2.7,3.1-5.3,1.1C2969.7,383.4,2965.3,381,2960.6,378z"/>
	<path onclick="modals(this.id);" id="532" class="st0" d="M2981.1,388c1.3,1.2,2.3,2.1,3.4,3.1c-4.4,7.1-8.7,14.1-13.2,21.3c-1.4-0.9-2.5-1.6-4.2-2.7
		C2971.6,402.6,2976.1,395.7,2981.1,388z"/>
	<path onclick="modals(this.id);" id="533" class="st0" d="M2974.4,414.2c4.5-7.3,8.9-14.4,13.4-21.5c1.4,1.1,2.8,2.3,3.9,3.1c-4.3,6.8-8.7,13.6-13.2,20.7
		C2977.2,415.8,2975.8,415,2974.4,414.2z"/>
	<path onclick="modals(this.id);" id="600" class="st0" d="M3187.3,405.7c4.3-1.6,8.4-3.1,12.5-4.6c0.4,0.4,0.8,0.9,1.2,1.3c-8.9,3.2-2.5,9.8-3.9,14.9
		c-2.4,0-4.7,0-7.1,0C3189.2,413.7,3188.3,410.2,3187.3,405.7z"/>
	<path onclick="modals(this.id);" id="474" class="st0" d="M2940.8,391.5c-0.9,1.4-2.4,3.5-4.1,5.9c-5.3-3.5-10.6-6.9-15.9-10.4c4.3-5.2,8.3-6.4,10.3-3
		c1,1.7,1.3,4,2.6,5.1C2935.3,390.4,2937.7,390.6,2940.8,391.5z"/>
	<path onclick="modals(this.id);" id="413" class="st0" d="M2861.8,408.1c4.2-6.6-0.1-12.1-2.5-17.6c5-1.4,8.9-0.4,11.4,4.1c1.5-0.6,2.7-1.1,3.8-1.6
		c0.2,0.3,0.4,0.6,0.7,0.9C2870.7,398.6,2866.3,403.4,2861.8,408.1z"/>
	<path onclick="modals(this.id);" id="408" class="st0" d="M2853.7,446.3c-5.8-2.7-7.2-9.7-13.9-9.4c3.7-3.3,7.4-6.7,11.7-10.6
		C2852.2,433.1,2852.9,439.4,2853.7,446.3z"/>
	<path onclick="modals(this.id);" id="432" class="st0" d="M2923.7,307.4c-2.1,5.4-4.2,10.7-6.4,16.2c-6.1-2.2-11.6-4.1-17.2-6.1c-0.1-0.6-0.3-1.1-0.4-1.7
		c10.8,4.1,17.3-1.5,22.6-9.4C2922.9,306.7,2923.3,307,2923.7,307.4z"/>
	<path onclick="modals(this.id);" id="421" class="st0" d="M2912.1,361.9c2.5-0.1,4.9-0.2,8.4-0.4c1.6-4.7,6-5.8,12.1-4.5c-2,4-3.9,7.8-5.6,11.4
		c-5.3-1.8-10.1-3.5-14.9-5.2C2912,362.7,2912,362.3,2912.1,361.9z"/>
	<path onclick="modals(this.id);" id="423" class="st0" d="M2899.9,352.7c-0.9,1.5-1.8,3-3,5.1c-2.3-1.2-4.5-2.4-6.7-3.6c1-2.4,1.8-4.3,3-7.2
		c7.4,2.9,15,5.9,22.7,8.9c-2.6,1.9-4.6,5.2-7-0.5C2908.1,353.6,2903.1,353.5,2899.9,352.7z"/>
	<path onclick="modals(this.id);" id="407" class="st0" d="M2828.7,414.8c4.5,4.7,8.8,9.4,13.1,13.9c-1.7,1.8-3.4,3.6-5.6,5.9c-0.3-2.1-0.4-4.1-1-5.9
		c-0.4-1.1-1.4-2.7-2.3-2.9C2825.8,424.2,2827.9,419.4,2828.7,414.8z"/>
	<path onclick="modals(this.id);" id="478" class="st0" d="M2928.2,412.5c1.3,0.7,2.7,1.5,4.4,2.4c-3.8,5.6-7.4,10.9-11.1,16.3c-5.3-1.8-5.3-2.4-1.5-6.9
		C2923,420.7,2925.4,416.6,2928.2,412.5z"/>
	<path onclick="modals(this.id);" id="491" class="st0" d="M2926,431c1.3-1.9,2.1-3.1,3.2-4.7c4.8,3.2,9.6,6.3,14.5,9.6c-0.5,3.5-2.2,4.6-5.5,2.6
		C2934.2,436.1,2930.3,433.6,2926,431z"/>
	<path onclick="modals(this.id);" id="472" class="st0" d="M2941.2,372.2c7.3-3.8,7.3-3.8,17.3,3.1c-1.1,1.7-2.3,3.4-3.8,5.7c-2.3-1.6-4.3-3-6.4-4.4
		C2946.1,375.1,2943.9,373.8,2941.2,372.2z"/>
	<path onclick="modals(this.id);" id="427" class="st0" d="M2905.1,347.9c0.7-2.1,1.2-3.6,1.8-5.4c3.7,1.3,7.3,2.6,11.1,4c0.9-1.4,1.9-2.9,2.9-4.3
		c0.2,0.1,0.5,0.2,0.7,0.2c-0.8,3-1.6,6-2.6,8.9c-0.2,0.6-1.8,1.3-2.4,1.1C2912.7,351.1,2909.1,349.5,2905.1,347.9z"/>
	<path onclick="modals(this.id);" id="479" class="st0" d="M2913.6,426.7c-2.6-2.3-4.9-4.3-7.5-6.6c1.2-2.3,2.3-4.4,3.4-6.5
		C2919.2,418.7,2919.2,418.7,2913.6,426.7z"/>
	<path onclick="modals(this.id);" id="531" class="st0" d="M2997.8,387.1c-1.4,2.1-2.6,3.8-3.9,5.7c-3.7-2.6-7.1-5-10.9-7.7c1.8-1.7,3.3-3,4.6-4.2
		C2990.8,382.9,2993.9,384.8,2997.8,387.1z"/>
	<path onclick="modals(this.id);" id="475" class="st0" d="M2935,411.9c-1.7-0.9-3-1.6-5.4-2.8c5.4-5.5,10.4-10.6,15.4-15.8c0.3,0.2,0.6,0.5,1,0.7
		C2942.5,399.7,2938.9,405.5,2935,411.9z"/>
	<path onclick="modals(this.id);" id="489" class="st0" d="M2919.8,436.8c-4.6,4.7-9.3,9.5-14.1,14.4c-1.6-1.2-3.4-2.5-5.6-4.1c6.8-3.8,13.1-7.3,19.5-10.8
		C2919.7,436.5,2919.7,436.6,2919.8,436.8z"/>
	<path onclick="modals(this.id);" id="599" class="st0" d="M3205.2,396.8c0.6,2.3,1.2,4.6,1.8,6.9c1.6,6.2,0.7,7.5-6.2,8.7c-0.3-1.5-0.6-3-0.8-4.2
		c1.6-1.9,3.5-3.4,4.2-5.3c0.6-1.6-0.4-3.7-0.7-5.6C3204,397.1,3204.6,396.9,3205.2,396.8z"/>
	<path onclick="modals(this.id);" id="595" class="st0" d="M3187.6,421.1c-0.6,4.8,3.8,9.5,0.1,14.7C3181.9,428.1,3181.8,425.5,3187.6,421.1z"/>
	<path onclick="modals(this.id);" id="598" class="st0" d="M3202.7,416c1.3-0.5,2.8-1,5-1.8c1.2,2.7,2.3,5.2,3.5,8.1c-2.4,0.8-4.8,1.7-7.4,2.5
		C3203.4,421.6,3203,418.9,3202.7,416z"/>
	<path onclick="modals(this.id);" id="597" class="st0" d="M3192.9,429.3c-0.7-3.4-1.1-5.9-1.7-8.6c2.9,0,5.3,0,7.8,0C3200.4,426.3,3196,426.8,3192.9,429.3
		z"/>
	<polyline onclick="modals(this.id);" id="594" class="st0" points="3181.3,430.5 3172.8,430.5 3172.8,437.6 3182.3,437.6 3182.3,430.5 3182.8,430.5 	"/>
</g>
</svg>
