<?xml version="1.0" encoding="utf-8"?>
<!-- Generator: Adobe Illustrator 19.0.0, SVG Export Plug-In . SVG Version: 6.00 Build 0)  -->
<svg version="1.1" id="Layer_1" xmlns="http://www.w3.org/2000/svg" xmlns:xlink="http://www.w3.org/1999/xlink" x="0px" y="0px"
	 viewBox="0 0 960 200" style="enable-background:new 0 0 960 200;" xml:space="preserve">
<style type="text/css">
	.st0{stroke:#000000;stroke-width:0.7;}
</style>
<g id="dis19">
	<path id="path2448" class="st0" d="M429.7,115.8l-1.6,5.6l5.7,1.7l4.7,3.6l0.7-3.6l8,12.3c-0.6,0.1-1.4,0.1-2,0.2
		c-0.7,0.1-1.2,0.3-1.3,0.8c-0.1,0.4-0.3,0.7-0.2,1s0.3,0.8,1.2,1.7c0.2,0.2,0.1,0.6-0.1,0.9c-0.2,0.4-0.4,0.8-0.2,1.1
		c0.3,0.6,0.8,0.9,1.5,1.2c0.7,0.4,1.4,0.7,2.2,1.4c1.4,1.4,1.3,2.3,2.7,3.7c0.6,0.6,1.2,0.8,2,0.9s1.7,0.1,3,0.1
		c0.6,0,1.1,0,1.4,0.2c0.3,0.1,0.5,0.3,0.6,0.6c0.2,0.5-0.1,1.4-0.4,2.5c-0.1,0.5-0.2,1.5,0,2.2c0.1,0.4,0.3,0.7,0.7,0.9
		c0.3,0.2,0.8,0.3,1.4,0.2c0.9-0.2,2-0.7,3-1c0.5-0.1,0.9-0.2,1.2-0.1s0.5,0.3,0.5,0.8c0,1.3,0,2,0.4,2.4c0.3,0.4,1,0.3,2.3,0
		c0.4-0.1,0.9-0.2,1.4-0.3l12.7-14l10-6.3l-4.7-5.4l5-8l13.7-7.7l3.3-4.7h3l1.3-9.3l-3-4l-6-1.7l-9.7-13.3l-4.7-7.7
		c0.6-0.6,2.4-2,3.6-2.3c0.6-0.2,3.5-2.1,3.7-2c0.3,0.1,2.8,2.2,3,2c0.8-0.8,1.8-1.5,2.4-2.7c0.6-1.3,2-2,3.3-3.3
		c0.4-0.4,1-1.2,1.7-1.8s1.3-1,2-0.9c0.5,0.1,1.5,0.5,2.3,0.6c0.8,0.2,1.6,0.2,1.7-0.3c0.1-0.6,0.6-1.3,0.9-2
		c0.3-0.7,0.5-1.3,0.1-1.7c-1.2-1.2-1.5-1.6-1.4-1.8s0.4-0.3,0.5-0.8c0.2-0.8,0.6-1.6,0.7-2.3c0.1-0.4,0.1-0.7,0-1s-0.3-0.6-0.7-0.7
		c-0.6-0.3-1.7-0.7-2.6-1c-1-0.3-1.9-0.5-2.4-0.3l-0.1-0.3l0,0c-0.5,0.1-1.1-0.3-2.1-1.2c-0.3-0.3-0.8-0.4-1.3-0.5s-1.1,0-1.7,0
		s-1.1,0-1.4-0.1c-0.4-0.1-0.6-0.4-0.6-0.8l-5-6.9v8.8h-6l-1.8-3.7l-4.1,3.2l0.4,2.4l-6.9-0.5l9.7,9.2c-0.2,0.5-0.3,0.9-0.6,1.4
		c-0.2,0.4-0.6,0.8-1.3,1c-1.2,0.3-3.3,0.1-5,0c-0.8,0-1.6,0.1-2,0.3s-0.6,0.5-0.4,1.1c0.5,1,0.8,1.9,0.4,2.5l0.2,0.2l4.7,7.5
		l-0.5,10.4l-5.7-2.8l-4.2,5.6l4.2,1l-0.9,3.8l-5.7,0.4l-5.2,2.4h-7l-4.7,2.8l-2.9,7.5L446,108v9.4l-9.4-0.9L429.7,115.8
		L429.7,115.8z"/>
	<path id="path2454" class="st0" d="M490.6,136.5l8.6,9.2l4.7-8.3h6.4l5-3l1-4h5.3l2,3.3l3.3-6.4l3.7,1.7l1-8
		c-0.6-0.1-1.1-0.2-1.7-0.4c-0.7-0.1-1.3-0.7-1.7-1.4s-0.8-1.6-0.9-2.2c-0.4-1.4-0.5-2.2-0.2-2.7s1-0.7,2.2-1
		c0.7-0.2,1.3-0.6,1.7-1.1s0.7-1,1-1.6c0.3-0.5,0.2-1.4,0.2-2.4c-0.1-1-0.2-2-0.2-2.6c0-1.9-1-2.5-1-4.7c0-1.1-0.1-2.2-0.4-3.1
		c-0.3-0.9-0.8-1.6-1.5-1.9c-0.8-0.4-1.5-0.7-2.2-0.8c-0.7-0.1-1.4-0.1-2.1,0.1c-0.4,0.1-0.7,0.3-0.8,0.5s-0.2,0.5-0.3,0.8
		c-0.1,0.2-0.3,0.4-0.7,0.5s-1,0.1-1.9-0.2c-1.1-0.3-1.6-0.1-1.9,0.3c-0.3,0.4-0.4,1-0.7,1.7c-0.4,0.9-0.5,1.4-0.8,1.8
		s-0.7,0.6-1.8,0.9c-0.8,0.2-1.8,0-2.6,0l-0.4,0.1l-1.3,8.9h-3l-3.3,4.7l-13.7,7.7l-5,8l4.7,5.4L490.6,136.5z"/>
</g>
</svg>
