<?xml version="1.0" encoding="utf-8"?>
<!-- Generator: Adobe Illustrator 19.0.0, SVG Export Plug-In . SVG Version: 6.00 Build 0)  -->
<svg version="1.1" id="Layer1" xmlns="http://www.w3.org/2000/svg" xmlns:xlink="http://www.w3.org/1999/xlink" x="0px" y="0px"
	 viewBox="0 0 15000 7500" style="enable-background:new 0 0 15000 7500;overflow: hidden; display: inline; width: inherit; min-width: inherit; max-width: inherit; height: inherit; min-height: inherit; max-height: inherit;" xml:space="preserve">
<style type="text/css">
	.st0{fill:#8FD4EB;stroke:#000000;stroke-width:4;}
</style>
<g>
	<path onclick="modals(this.id);" id="1916" class="st0" d="M10934,5889.2c-24.5,20.6-47.3,40.1-70.4,59.2c-167.6,138.3-335.3,276.4-502.9,414.7
		c-28.8,23.7-57.3,47.8-86.1,71.6c-6.1,5.1-12.5,9.9-19.6,15.5c-2.6-3.6-5.2-6.5-7-9.8c-16.1-28.4-32.1-56.8-48.2-85.3
		c-2.6-4.6-5.1-9.4-8-13.9c-4.1-6.4-8.6-7.9-15.1-4.9c-4.2,2-8.2,4.5-12.2,6.8c-82,47.2-163.7,94.9-246.3,141.1
		c-29.6,16.6-59.9,31.8-88.8,49.5c-9.7,5.9-18.9,12.5-28.6,18.2c-8.6,5.1-17.7,9.3-26.3,14.3c-31.6,18.5-63,37.4-94.7,55.7
		c-69.3,40-138.7,79.7-208,119.4c-2.8,1.6-5.9,2.7-8.5,3.9c-12.1-12.9-774.7-1095.5-801-1136.8c3.3-7.5,10.6-11.4,16.7-16.3
		c84.1-67.7,168.4-135.2,252.6-202.8c83.7-67.1,167.4-134.3,251.2-201.4c7.2-5.8,14.5-11.5,22.9-18.1c4.6,4.9,8.7,8.9,12.4,13.3
		c95.7,117.2,191.4,234.4,287.1,351.6c15.6,19.1,31.2,38.2,46.9,57.3c2.5,3.1,5,6.3,7.7,9.2c4.6,4.8,9,5.4,14.2,1.9
		c2.2-1.5,4.3-3.2,6.3-4.9c24.1-21,48.3-42,72.4-63c2-1.7,4.2-3.4,5.7-5.5c2.6-3.4,3.2-7.5,0.9-11.2c-3.2-5.1-6.8-9.9-10.5-14.6
		c-27.6-35.1-55.2-70.2-82.9-105.2c-52.6-66.3-105.4-132.4-157.8-199c-43.3-55-85.7-110.6-129-165.6c-63.5-80.7-127.4-161-191-241.5
		c-51.7-65.3-103-130.9-155-196.1c-74.8-93.8-150.1-187.2-225.1-280.8c-13.3-16.6-26-33.8-39.2-50.6
		c-66.1-84.6-132.2-169.1-198.3-253.6c-4.4-5.7-8.5-11.6-12.4-16.9c1.9-5.4,5.6-4.1,8.7-4.1c15.3-0.1,30.5,0,46.2,0
		c8.4-11.7,8.1-26.7,15.7-39.3c18.6-2.2,35.3,10.7,55.3,8.1c1.7-5.6,3.7-11.2,5-16.8c5.2-23.4,10.1-46.9,15.3-70.3
		c0.8-3.7,2.3-7.4,3.6-11.7c13.8,2.3,26.8,4.4,39.2,6.5c11-18.8,20.2-52.2,20.8-75.3c0.2-6.7,0.1-13.3,0-20c-0.1-9-3.8-15.2-13-17.7
		c-5-1.4-9.9-3.3-16.1-5.4c3.3-27.5,10.3-53.8,15.1-80.5c5-27.5,11.2-54.8,16.6-82.3c5.2-26.8,10.1-53.7,15-80.5
		c4.9-26.9,9.8-53.7,14.2-80.7c4.6-27.6,8.5-55.3,12.8-82.9c4.1-26.9,8.3-53.8,12.6-81.7c83.1-16.8,166.3-28.4,246.3-56.4
		c6.6,5.8,12.8,10.7,18.5,16.2c35.9,34.8,71.7,69.7,107.6,104.5c68.4,66.3,136.3,133.2,206.5,197.6c40.3,36.9,79.2,75.2,118.9,112.8
		c62.8,59.6,126.3,118.5,188.5,178.9c50.7,49.2,99.9,99.9,149.5,150.2c28.1,28.5,55.6,57.5,83.4,86.3c37,38.4,74.5,76.2,110.8,115.3
		c21.3,22.9,40.7,47.6,60.8,71.6c57.5,68.6,58,68.3,105.5,154.6c31.5,57.2,61.4,115.2,91.9,172.9c34.9,66,69.3,132.2,104.7,197.8
		c18.3,34,38.1,67.2,57.9,100.4c42.4,71,79.8,144.7,118.4,217.7c50.1,94.8,100,189.8,150.5,284.4c18.8,35.3,39.7,69.4,65.8,100
		c7.3,8.6,13.7,18.1,19.5,27.7c58.1,95.7,115.8,191.6,174.2,287.1c10.7,17.4,17.6,35.5,20.5,55.6
		C10927.3,5852.7,10930.7,5870.3,10934,5889.2z"/>
	<path onclick="modals(this.id);" id="2930" class="st0" d="M8809.4,7122.6c-108-112.1-211.9-225.5-318.7-337.9c3.4-4,5.9-7.7,9.2-10.6
		c27.7-23.9,55.7-47.7,83.5-71.6c4.6-3.9,9.3-7.7,13.3-12.1c2-2.2,2.8-5.6,4.5-9.2c-4.4-2.2-7.7-4.4-11.4-5.5
		c-9.6-2.8-19.2-6-29-7.4c-13.2-1.9-21.1-9.4-28.1-19.9c-23.4-34.9-47.4-69.3-71.1-103.9c-1.5-2.2-2.8-4.5-4.4-6.7
		c-27.1-36.4-50.5-75.1-70-116.1c-2.8-6-6.4-11.6-8.9-16c-7.2-4.1-11.8-0.6-16.5,1.6c-25.2,12.1-50.4,24.4-75.5,36.7
		c-20.3,10-40.6,20.1-61,30c-5.9,2.9-12.1,5.2-18.8,8.1c-5.1-4.9-10-9.2-14.6-14c-83.6-88.8-167.1-177.6-250.6-266.4
		c-4.5-4.8-8.9-9.9-12.8-15.3c-79.2-108-158.4-216-237.6-324.1c-48.1-65.6-96.2-131.1-144.2-196.7c-4.7-6.4-9.1-13-13.7-19.6
		c1.9-2.1,3-4,4.6-4.8c23.7-11,44.6-26.5,66-41.3c80.6-55.7,161.1-111.5,241.7-167.2c9.9-6.9,18.7-14.7,27.1-23.4
		c12-12.4,25-24,38.2-35.1c15.4-12.9,30.1-26.3,42.4-42.2c6.2-8,13.5-14.9,22.1-20c26.9-15.9,46.3-39.9,67.3-62.1
		c4.5-4.7,7.1-11.2,10.5-16.9c4.8-7.9,7.6-16.9,14-23.4c36.3,0.5,100.9,6,115.1,10c0,4.1,0.2,8.6,0,13c-1.4,28.6-3.3,57.2-4.3,85.8
		c-0.5,15.3,1,30.7,0.5,46c-0.3,10,3,17.7,9.5,25.2c30.5,35.3,60.6,71,90.8,106.5c61.7,72.6,123.5,145.2,185.2,217.8
		c2.6,3,5.1,6.2,7.8,9.1c5.6,5.8,10.9,6.8,17.9,2.8c4.6-2.6,8.9-5.9,13.3-8.9c43.3-29.9,86.6-59.9,130-89.7c4.8-3.3,10-6.3,15.1-9.6
		c7.4,4.1,10.5,11,14.6,16.9c49.2,69.7,98.2,139.5,147.3,209.3c209.3,297.6,418.7,595.2,628,892.9c3.8,5.4,7.3,10.9,11.5,17.3
		c-2.2,1.7-3.8,3-5.5,4C9232.6,6879.1,9021.9,7000.3,8809.4,7122.6z"/>
	<path onclick="modals(this.id);" id="1827" class="st0" d="M8961.9,3192.6c-52.7,15.9-102.7,29.6-154.1,38c-25.6,4.2-51.1,9.4-76.6,14.4
		c-7.3,1.4-14.3,1.5-21.7,0c-74.3-15.6-148.7-30.7-223-46.5c-29.9-6.4-59.6-14.3-89.3-21.7c-3.1-0.8-6.1-2.2-9.3-3.3
		c-2.1-19.2,7.2-37.1,4.1-56.8c-32-9.7-64.1-18-96.3-26c-3.6-0.9-7.7-0.1-11.9-0.1c-7.7,17.9-6.9,37.3-14.9,55.2
		c-26.4-5.3-52.1-11.6-78.5-19.1c0.3-4.4,0.3-8.3,1-12c10-54.4,20.1-108.7,30.1-163.1c0.8-4.5,1.3-9.1,2.1-14.7
		c-4.4-2.1-8.3-4.6-12.5-5.7c-19.9-5.5-39.9-10.5-59.9-15.8c-4.4-1.2-8.7-2.9-13.8-4.6c0.4-4.4,0.3-8.3,1.1-12.1
		c4.3-20.9,8.8-41.7,13.1-62.6c1.4-6.5,2.8-13-0.2-20.9c-30.4-9.5-62.4-15.5-93.9-23.4c-31.5-7.9-63.3-15.1-95.7-22.8
		c0.9-4.6,1.2-7.8,2.1-10.9c8.4-30.8,16.8-61.7,25.3-92.5c23.9-86.7,45.3-174,62.9-262.2c1.3-6.4,1.4-13,2.2-20.3
		c-5.4-2-9.5-3.9-13.8-5.1c-67.5-18.2-135-36.4-202.6-54.5c-5.7-1.5-11.4-3.3-17.6-5.2c-3.6-8.9-7.2-17.4-10.5-26.1
		c-11.1-29.3-21.7-58.7-33.2-87.8c-8.4-21.3-10.4-44-15.4-66c-4.8-21.4-8.6-43.1-13.1-64.6c-0.9-4.5-2.6-8.9-4.1-14.1
		c-4.7-0.3-9.3-1.2-13.8-0.8c-20.6,1.8-41.2,3.5-61.6,6.3c-16.1,2.2-31.5,0.1-47.5-3.4c0.8-21.4,12.8-39.9,11.2-62
		c-24.9-6.2-49.3-12.2-74.4-18.4c2.9-21.9,12.8-41.3,15-63.6c-6.2-2.3-11.6-4.8-17.2-6.3c-53.9-15-107.8-29.8-161.8-44.6
		c-1.9-0.5-3.9-0.9-5.8-1.5c-70.3-23.1-142.6-38.8-213.9-58.3c-33.4-9.1-66.7-18.6-100-28.1c-3.7-1-7.1-2.9-11.6-4.8
		c1.7-7.1,3-13.5,4.7-19.8c25-91.9,50.6-183.6,74.8-275.7c11.5-43.8,20.6-88.2,30.7-132.3c3.4-14.9,6.6-29.9,9.9-44.9
		c0.6-2.6,0.6-5.6,1.9-7.7c9.8-15.2,9.5-32.9,12.7-49.7c1-5.2,2.3-10.3,3.6-16.2c4.2,0,8.2-0.7,11.8,0.1
		c27.8,6.7,55.6,13.8,83.4,20.6c7.9,1.9,14.9,5.3,21.7,9.8c48.3,32,96.7,63.9,145.1,95.9c52.3,34.5,104.9,68.5,156.7,103.8
		c26.4,18,51.8,37.6,76.9,57.4c100.1,78.7,204.7,151.3,308,225.7c172,123.8,344.3,247.2,516.5,370.8c5.4,3.9,10.8,7.9,15.8,12.3
		c30,26.4,59.9,53,90,79.4c7.1,6.2,13.3,12.9,18.1,21.1c23,39,46.2,77.9,69.6,116.8c3.8,6.4,6.2,12.9,7.2,20.4
		c9.2,72,18.5,144,28.1,216c7.7,57.4,15.4,114.9,23.9,172.2c2.8,19,6.8,38.1,12.6,56.4c8.4,26.1,14.3,52.7,18.4,79.7
		c5.7,37,17.3,72.5,26.2,108.7c1.2,5,4.1,9.8,6.8,14.3c19.7,33.2,39.4,66.5,59.5,99.5c6.2,10.2,13.3,19.9,20.8,29.2
		c11.2,14.1,23.1,27.6,34.6,41.4C8955.4,3183.3,8957.8,3187.1,8961.9,3192.6z"/>
	<path onclick="modals(this.id);" id="1885" class="st0" d="M6594.5,1949c5.5,6.3,10,11.2,14.2,16.3c35.9,43.8,71.8,87.6,107.6,131.5
		c6.7,8.2,13,16.9,24.6,20.9c-0.9,5.1-1.1,9.7-2.4,13.9c-29,97-58.1,193.9-87,290.9c-34.6,116.1-69.3,232.2-103.4,348.5
		c-12.5,42.8-23.2,86.1-34.9,129.2c-1.9,7-4.7,13.8-7.4,20.6c-4.6,11.5-12.7,19.6-23,26.6c-58.1,40.1-115.9,80.8-173.8,121.2
		c-5.9,4.1-12,8.1-18.7,12.6c-3.3-3.2-6.4-5.7-8.9-8.6c-58.3-69.4-116.2-139.1-175.2-207.9c-15.5-18.1-33.8-34-51.7-49.9
		c-84.4-74.6-169.1-148.7-253.6-223.1c-39-34.4-77.7-69.1-116.4-103.7c-4.4-3.9-8.6-8.2-12.6-12c4.8-14.4,5.2-14.8-3.7-23.2
		c-18.9-17.9-38.1-35.3-57.3-52.8c-11.8-10.8-23.8-21.3-35.7-32c-2.4-2.2-4.5-4.7-7-7.3c3.5-7.6,10.5-10.8,16.2-15
		c96.3-72.6,192.4-145.5,289.3-217.3c57.9-43,112.2-90,165.3-138.6c15.2-13.9,31-27.3,46-41.5c10.6-10.1,23.5-14.3,38-17.6
		c8.7,9.3,17.2,18.6,26,27.7c27.3,28.3,52.9,58.1,77.2,89c14,17.8,28.4,35.3,43.2,52.4c7.2,8.3,13.4,16.4,13.6,27.9
		c0,1.8,1.4,3.7,2.5,6.2c8.7,3.1,18.1,1.6,27.1,1.1c4.1-0.2,8.6-3.2,12-6c11.3-9.3,22.2-19.2,33.3-28.7c5-4.3,10.3-8.3,16.2-13.2
		c7.1,6.5,13.7,12.6,19.6,18.1c8.9-0.1,13.3-5.7,18.3-9.7c40-32.2,79.8-64.5,119.8-96.7c17.1-13.8,34.2-27.6,51.4-41.3
		C6586.3,1954.9,6589.5,1952.6,6594.5,1949z"/>
	<path onclick="modals(this.id);" id="2725" class="st0" d="M5344.5,2734.3c2.2-2.3,3.7-4.4,5.6-6c13.1-10.3,25.8-21.2,39.6-30.4
		c30.6-20.2,61-40.7,92.8-58.7c59.7-33.8,120.3-65.9,180.6-98.7c8.7-4.8,17.9-8.8,23.6-17.8c1.5-2.4,5.5-3.1,8.8-4.9
		c5,4.1,9.7,7.8,14.2,11.7c111.4,98.3,222.8,196.6,334.2,294.9c26.5,23.4,51.3,48.3,73.9,75.6c58.1,70.4,117.4,139.8,175.7,210.1
		c77.8,93.9,155.1,188.2,232.5,282.5c34.7,42.2,69.1,84.6,103.6,127c2.1,2.6,4,5.3,5.6,7.3c0,1.5,0.1,2.1,0,2.7
		c-0.2,0.6-0.5,1.3-1,1.7c-125.7,94.7-244.4,197.8-365.8,297.8c-1.5,1.2-3.5,1.8-6,3c-3.1-3.3-6.4-6.5-9.2-10.1
		c-133.2-171.6-267.1-342.7-399.1-515.2c-48.3-63.1-101-122.2-153-182c-9.5-10.9-20.6-20.6-24.8-35.6c-1.3-4.7-6.4-8.4-10-12.2
		c-89.6-95-179.2-189.9-268.8-284.9c-16-17-32-33.9-47.9-51C5347.9,2739.2,5346.5,2737,5344.5,2734.3z"/>
	<path onclick="modals(this.id);" id="2731" class="st0" d="M6271.9,3844.9c125.2-102.2,244.3-208.8,375-303.6c5.2,6.5,9.8,12.1,14.1,17.8
		c65.4,85.1,130,170.8,196.4,255.1c42,53.4,86.5,104.9,130.2,156.9c71.2,84.7,142.7,169.1,213.9,253.8
		c14.6,17.3,28.7,35.1,42.3,53.2c22.8,30.5,47.3,59.4,71.7,88.5c25.6,30.6,49.5,62.7,73.6,93.4c-1.6,8.1-7.8,8.6-12.3,10.6
		c-66.7,30.4-133.5,60.5-200.2,90.8c-77,35-153.9,70.3-231,105c-9.7,4.4-16,10.7-21.1,19.8c-26.5,47.8-53.4,95.3-80.3,142.9
		c-3.1,5.6-5.5,11.9-11.7,16.7c-8.6-14.3-10.2-29.3-12.4-44.2c-2.2-14.5-4.9-28.8-7.2-41.7c-18-17.1-34.9-33.2-51.7-49.2
		c-15.4-14.7-30.7-29.6-46.3-44.1c-10.7-9.9-22-19.3-33-28.9c-1-0.9-2.3-1.5-3-2.6c-8.9-14-22.4-22-36.8-28.9
		c-1.6-0.8-2.6-2.8-4.5-5c7.7-8.4,15.2-16.8,23-24.9c22-23.2,44.2-46.2,66.2-69.4c13.3-14,26.3-28.2,39.3-42.5
		c4.9-5.4,5.4-10.6,1.4-16.3c-4.2-6-9-11.6-13.6-17.3c-106.7-132.3-213.3-264.6-322.6-394.8c-50.1-59.7-100.1-119.6-150.1-179.4
		C6278.6,3853.4,6276.2,3850.2,6271.9,3844.9z"/>
	<path onclick="modals(this.id);" id="2904" class="st0" d="M8061.1,3520.2c-2,2.2-3.5,4.4-5.5,5.9c-166.7,130.5-328.3,267.5-492.8,402
		c-2.9-3.1-5.3-5.3-7.4-7.8c-29.1-35.6-58-71.3-87.1-106.8c-15.2-18.6-30.1-37.4-45.9-55.4c-41.4-47.1-75.5-99.8-113.6-149.4
		c-5.6-7.3-10.1-15.5-18.8-20.3c-3.8-2.1-6.3-6.8-9.2-10.4c-60.1-74.8-120.3-149.5-180.2-224.4c-5.8-7.2-10.4-15.4-15.4-23.3
		c-2.1-3.3-3.6-6.9-5.8-11.1c5-4.4,9.2-8.5,13.8-12.1c108.2-85.5,216.4-171,324.6-256.5c52.3-41.3,104.5-82.6,156.6-124.2
		c10.3-8.3,19.9-17.5,30.8-27.2c14.3,0.3,28.5,6.5,43.2,10c14.7,3.5,29.3,7.8,45.4,12.1c-4.4,10.9-10.3,18.4-18.8,24
		c-8.3,5.5-16.7,11-24.9,16.7c-9.1,6.4-9.7,10.2-3.7,19.9c1.4,2.3,3,4.4,4.6,6.5c33.4,46.5,66.4,93.4,100.5,139.4
		c22.6,30.5,47,59.6,70.4,89.6c31.5,40.5,62.4,81.5,94.1,121.7c20.2,25.6,41.9,50.1,62.4,75.5c26.4,32.6,52.3,65.7,78.3,98.6
		C8058.3,3515.1,8059.4,3517.5,8061.1,3520.2z"/>
	<path onclick="modals(this.id);" id="1889" class="st0" d="M6649,3520.3c-117.2-142.8-233-283.8-349.7-425.8c5-4.2,8.6-7.8,12.8-10.7
		c58.4-40.9,116.4-82.5,175.6-122.1c20.5-13.7,31.5-31.5,37.4-54.1c8.5-32.2,16.6-64.5,25.8-96.5c20.8-72.3,41.9-144.6,63.3-216.7
		c32.8-110.5,65.9-220.8,98.9-331.2c1.7-5.6,3.6-11.2,5.7-18c6.7,1.3,12.5,1.9,18.1,3.5c41.1,11.4,82.1,23,123.2,34.3
		c70,19.2,140.1,38.2,210.1,57.4c5.7,1.6,11.3,3.5,18,5.6c-0.6,4.3-0.7,8.1-1.7,11.8c-21.8,79-43.8,157.9-65.7,236.8
		c-35.9,129.6-71.8,259.3-107.8,388.9c-16.9,61-34.1,121.9-51,182.8c-1.6,5.7-2.4,11.5-3.7,17.7c17.4,14.5,36.5,25.4,54.6,37.8
		c18,12.4,36.4,24.3,53.6,35.7c0.3,2.5,0.6,3.1,0.5,3.7c-0.2,0.6-0.6,1.2-1.1,1.6c-9.1,7.8-18.2,15.7-27.5,23.2
		C6842.6,3363.6,6746.8,3441.1,6649,3520.3z"/>
	<path onclick="modals(this.id);" id="1929" class="st0" d="M4470.3,379c50.5,4.2,93.2,26.7,138.7,42.2c-2.5,12.3-6.1,22.1-10.9,32.1
		c-11.2,0.7-21.4-2.6-31.8-3.9c-9.2-1.1-18.4-3.2-27.6-4.6c-3.2-0.5-6.6-0.4-9.9,0.1c-4.9,0.7-8.4,5.4-7.1,10.3
		c2.2,8.4,4.5,16.7,7.8,24.7c9.8,24.3,15,49.7,19.1,75.3c13.7,84.8,27.3,169.6,41,254.5c0.5,3.2,1.7,6.4,2.8,10.5
		c26.9,12.4,56.1,19.4,84.4,31.9c-0.6,4.7-0.8,9.2-1.9,13.5c-4.2,16.1-8.9,32.1-13,48.2c-7.7,29.6-14.8,59.2-19.6,89.5
		c-8.1,51.3-19.8,101.9-30.1,152.9c-14.3,71.2-28.9,142.3-42.9,213.5c-20,101.3-39.7,202.6-59.5,303.9c-4.2,21.6-8.4,43.1-12.6,64.7
		c-0.5,2.5-1.4,4.8-2.5,8.5c-5.5-2.7-10.3-4.7-14.7-7.3c-27.7-16-55.3-32.2-82.9-48.2c-5.7-3.3-11.2-7.7-20.1-2.7
		c-17.2,80.1-32.4,161.9-48.8,243.4c-16.4,81.5-32.2,163.1-48.3,244.4c-18.3-0.1-131-21-154.5-28.6c0.4-4.2,0.5-8.7,1.4-13.1
		c8.8-43.1,18.1-86,26.4-129.2c5.7-29.4,10.8-59,15-88.6c8.3-58.1,19.3-115.6,33.6-172.5c3.4-13.5,5.3-27.4,7.8-41.2
		c2.6-14.4,6.3-28.4,10.4-42.5c5.4-18.5,8.4-37.7,12.4-56.6c29-137.5,58.1-274.9,87-412.4c2.7-13,4.2-26.1,5.1-39.4
		c1.4-19.8,6.3-39.4,10-59c22.2-116.5,44.5-232.9,66.6-349.4c16.7-87.7,33.3-175.3,49.9-263C4457.6,447.7,4463.8,414.3,4470.3,379z"
		/>
	<path onclick="modals(this.id);" id="1857" class="st0" d="M4693,840.7c-29.9-10.8-58.6-21.2-87-31.4c-1.2-3.5-2.4-6-2.8-8.5
		c-13.7-84.1-27.3-168.2-40.8-252.4c-0.2-1.1,0.7-2.4,1.1-3.7c0.5-0.3,1.1-0.8,1.6-0.8c1.3-0.1,2.7-0.2,3.9,0.2
		c254.1,81.6,508.3,163.2,762.4,244.8c1.1,0.4,1.9,1.7,4,3.7c-13.5,50-29,100.1-43.3,150.6c-14.3,50.6-29,101.1-43.6,151.6
		c-14.6,50.4-29.2,100.8-44.2,152.4c-5.5-0.9-10-1.2-14.2-2.4c-67.3-18.9-134.5-38.1-201.8-56.8c-9.4-2.6-18.7-7.4-30.4-4.7
		c-15.3,47.8-27.1,96.9-42.3,146.2c-5.2-0.9-9.6-1.4-13.8-2.6c-94.1-26.8-188.2-53.6-282.3-80.6c-3.1-0.9-6.1-2.5-10-4.1
		c0.4-4.7,0.4-9.3,1.3-13.7c13.3-65.2,27.9-130.2,39.7-195.8c10.1-55.8,25.4-110.2,39.6-165c1.5-5.8,2.8-11.6,3.7-17.5
		C4694.2,847.8,4693.4,845.1,4693,840.7z"/>
	<path onclick="modals(this.id);" id="2971" class="st0" d="M8368.6,6420.1c2.6,3.7,5.3,6.6,7.1,10c7.9,15.4,15.4,31,23.3,46.3c3,5.9,6.5,11.6,10.3,17.1
		c38.4,56,77.1,111.9,115.1,168.2c6.5,9.6,14.2,15,25.2,17.7c8.8,2.2,18.2,3,28.8,9.5c-5.6,4.5-9.8,7.7-13.8,11.1
		c-23.3,19.8-46.8,39.6-69.9,59.7c-5.7,5-11.8,8-19.2,9.8c-157,38.7-314,77.6-471,116.4c-45.9,11.3-91.8,22.5-137.7,33.6
		c-12.9,3.1-25.2,7.9-37.5,12.9c-18.5,7.5-38,12.3-56.9,18.7c-20.8,7-41.5,14.2-62.1,21.8c-21.2,7.8-40.6,20.1-63.1,24.5
		c-1.9,0.4-3.7,1.5-5.4,2.5c-23.1,14-49.7,18.6-74.8,26.8c-1.8,0.6-4,0.1-7.5,0.1c-4.3-4.4-9.5-9.4-14.5-14.7
		c-37.2-39.1-73.9-78.5-111.6-117.2c-31.6-32.5-61.2-66.7-90.3-101.4c-10.7-12.7-21.8-25.2-32.7-37.8c-2.1-2.4-3.8-5.2-5.8-7.9
		c7-11.6,17-17.1,28.9-20.6c127.8-37.1,255.5-74.9,383.5-111.2c53.8-15.2,108.3-27.7,162.7-40.7c102.9-24.6,206-48.8,309-73
		c13.7-3.2,26.7-7.8,39.3-14.1c43.5-21.7,87.2-42.8,130.9-64.1C8361.7,6422.8,8364.8,6421.7,8368.6,6420.1z"/>
	<path onclick="modals(this.id);" id="1888" class="st0" d="M7102.6,2351.1c19.7,2.3,291.3,70,307.4,76.5c-0.8,4.8-1.3,9.9-2.6,14.9
		c-13.6,48.7-27.3,97.4-41.2,146.1c-3.3,11.6-5.8,23.2-5.6,35.4c0.4,17.9,5.3,33.6,16.9,47.8c42.5,52.2,86.5,103.1,131.1,153.6
		c21.6,24.5,41.3,50.6,61.8,76c1.2,1.5,1.7,3.4,2.4,4.7c-0.2,1.2-0.3,1.9-0.5,2.5c-0.3,0.6-0.6,1.2-1.1,1.6
		c-165.1,130.8-330.2,261.5-495.3,392.2c-1.5,1.2-3.4,1.8-6,3c-3.5-3.8-7.2-7.5-10.6-11.5c-13.6-16.4-27-33-40.6-49.4
		c-10.8-13-13-13.2-25.9-3.4c-3.2,2.4-6.3,4.8-9.3,7.1c-13.3-4.7-85.5-51.6-109.7-71.4c24.1-91.4,50.5-182.7,75.7-274.3
		c25.3-91.8,50.7-183.6,76.2-275.3C7051.1,2535.3,7076.7,2443.7,7102.6,2351.1z"/>
	<path onclick="modals(this.id);" id="2924" class="st0" d="M7861.6,4885.9c8.2,10.7,15.4,20.2,22.8,29.6c51.5,65.5,99.2,133.8,148.1,201.1
		c4.8,6.6,8.2,13.4,9.7,21.6c2.9,15.7,6.4,31.3,9.9,46.9c2.1,9.5,0.7,17.9-3.7,26.8c-14.9,29.9-37.8,52.8-62.5,74.3
		c-5.5,4.8-11.7,8.9-17.8,12.9c-10.6,7.1-20.1,15.3-27.9,25.5c-11,14.3-24.7,26-38.2,37.9c-16,14-31,29.1-46.7,43.6
		c-4.9,4.5-10,8.8-15.4,12.6c-90.9,63-181.8,125.9-272.7,188.8c-13.7,9.5-27.7,18.2-44.5,24.1c-4.5-5-9.1-9.8-13.2-14.8
		c-28.9-34.9-57.6-69.9-86.6-104.7c-5.1-6.1-10.7-11.9-16.8-16.9c-31-25.2-62.3-50-93.3-75.3c-7.6-6.2-15.2-9.8-25.3-9.5
		c-9.2,0.3-18.4-1.6-28.1-2.5c-18.4-34-36.3-67.2-54.8-101.3c4.3-2.8,7.3-5.1,10.7-6.9c7.7-4,15.3-8.2,23.2-11.6
		c33.8-14.8,63.9-35.5,93.8-56.7c77.7-55,156-109.4,234-164c5.4-3.8,11.2-7.3,17.1-10.3c20.8-10.6,40.3-23.3,59.3-36.9
		c39-27.9,78.3-55.4,117.7-82.8c7.6-5.3,15.7-10.1,24-14.3c22.6-11.4,45.4-22.4,68.1-33.5
		C7854.7,4888.5,7857.2,4887.7,7861.6,4885.9z"/>
	<path onclick="modals(this.id);" id="2929" class="st0" d="M8564.3,5330.3c-18.3-32.1-36.6-61.4-58-88.6c-0.7-0.9-2.3-1.2-4.1-2.2
		c-9.4,1.5-15.8,8.1-21.4,15.7c-9.2,12.3-18.5,24.4-27.5,36.8c-5.6,7.6-12.3,13.8-20.1,19.2c-37.5,25.8-37.5,25.6-83.8,32.3
		c-46.8,6.8-93.4,14.2-140.2,21.3c-5.2,0.8-10.4,1.2-16.6,1.9c-4.7-17.6-2.3-34.9-2.8-51.9c-0.6-17.9,1.7-35.9,2.8-53.8
		c1.1-17.2,2.4-34.3,3.6-52.1c-7.7-4.2-15.6-4.5-23.5-5.1c-25.2-1.8-50.5-3.5-75.7-5.5c-9.2-0.7-18.4-2-28.3-3.1
		c-4.9-11.4-5.7-23.3-8.1-34.8c-2.2-11.1-4.7-22.1-7.3-33.8c2.9-3.4,5.5-7.2,8.8-10.3c18.3-17.5,36.3-35.3,56.3-50.8
		c16.8-13.1,32.7-27.3,49.4-40.6c7.8-6.2,16.2-11.7,24.8-16.6c23.3-13.2,47.7-23.4,74.5-27.5c7.1-1.1,13.9-3.7,21.7-5.8
		c4-18.7,8.3-36.8,11.7-55c2.4-12.5,6.7-24.2,11.4-36c23-57.1,56.4-108.6,87.4-161.4c5-8.5,10.2-17,15.7-25.9
		c5.4,1.4,9.9,2.1,14.1,3.7c84.3,31.3,169.8,58.6,255.4,86.1c3.2,1,6.2,2.4,9.4,3.3c11.9,3.5,20.6,10.7,28.3,20.6
		c38.3,49.5,77,98.7,116,147.7c19.9,25,40.7,49.3,61.1,73.9c4.2,5.1,8.1,10.5,12.8,16.7c-3.3,3.4-6.1,6.9-9.5,9.6
		c-108.8,87.9-217.7,175.7-326.6,263.5C8573,5324.3,8569.7,5326.4,8564.3,5330.3z"/>
	<path onclick="modals(this.id);" id="1858" class="st0" d="M5572.5,863.2c-0.6,3.5-0.9,7.4-1.9,11.2c-25.1,93.2-50.2,186.5-75.3,279.7
		c-14.6,54-29.3,108-43.9,162c-1.7,6.3-2.7,12.8-3.7,18.2c5,6.8,11.2,7.3,16.8,8.9c103.8,29.3,207.6,58.5,311.4,87.8
		c70.5,19.9,141,39.9,211.4,59.9c6.4,1.8,12.7,3.8,20.1,6c-0.5,3.7-0.5,6.9-1.4,9.8c-21.5,70-43.1,140-64.7,210
		c-0.7,2.3-2.1,4.5-4,8.5c-4.7-4.9-8.5-8.3-11.5-12.2c-15.2-19.4-30.3-38.9-45.3-58.5c-6.1-8-12.9-15.2-21.2-21
		c-5.4-3.8-10.9-7.8-15.7-12.3c-23.7-22.6-52.7-34.8-83.3-45.4c-66.1-23-133.8-40.7-200.9-60.1c-204.1-58.8-408.4-117.1-612.6-175.7
		c-5.6-1.6-11.1-3.7-17.8-5.9c12.3-45.9,24.9-90.5,37.9-134.3c8.3-2.5,14.5,0.6,20.8,2.3c68.6,19.3,137.2,38.6,205.8,57.8
		c5.6,1.6,11.4,2.7,15.7,3.7c8.5-5,8.2-12.4,10-18.5c22.1-76.1,43.9-152.3,65.8-228.4c19.2-66.5,38.4-133.1,57.7-199.6
		c2-6.9,4.6-13.7,6.8-20.3C5366.3,798.6,5554.9,855,5572.5,863.2z"/>
	<path onclick="modals(this.id);" id="1933" class="st0" d="M5696.5,1568.4c-2.9,10.6-5.1,18.8-7.7,28.2c-6.7-1.3-12.5-2.1-18.1-3.6
		c-37.2-10.3-74.4-20.8-111.6-31.3c-6.4-1.8-12.6-4.3-20.1-3c-5.5,6.2-7.5,13.4-5,23c7.3,3,15,6.2,22.1,9.1c0.4,2.5,1.2,3.9,0.8,5
		c-22.4,76-44.9,152-67.4,227.9c-0.7,2.5-2.1,4.7-3.4,7.6c-4.3-0.6-8.3-0.6-12-1.7c-47.1-13.9-94.7-26.3-141.6-41.3
		c-0.9-14.2,8.9-24.9,7.8-37.4c-3-5.9-8.5-6.6-13.5-8.1c-54.3-15.9-108.6-31.8-163-47.7c-196.2-57.4-392.5-114.8-588.7-172.1
		c-6.3-1.8-12.6-3.9-19.6-6.1c1.1-22.7,7.5-43.8,11.2-65.2c3.8-21.6,8.5-43.1,12.8-64.7c4.3-21.6,8.6-43.1,12.7-64.7
		c4.1-21.4,7.6-43,13.4-64.6c4.8,0.7,8.1,0.7,11.2,1.6C4976.1,1362.3,5335.2,1465,5696.5,1568.4z"/>
	<path onclick="modals(this.id);" id="1940" class="st0" d="M5417.1,2235.3c-5,5.4-8.8,9.8-12.9,14c-43.6,44-87.4,87.9-130.9,132
		c-40.7,41.2-81.3,82.7-122,123.9c-7.9,8-16.3,15.5-25.4,24.1c-163.4-20.4-327-41.3-491.5-62.3c4.1-20.2,7.6-38.3,16.3-55
		c19.1-36.8,30.8-76.5,45.2-115.2c1.9-5,3.3-10.1,5.4-15c1-2.3,2.7-5.6,4.6-6c9.8-2,11.3-10.6,14.5-17.6
		c24.1-51.9,47.5-104.2,72-156c18.8-39.7,39.1-78.7,58.7-118c1.2-2.3,2.9-4.3,5.2-7.6c4.8,2.4,9.6,4.2,13.9,6.8
		c81.3,49.6,162.6,99.3,243.9,148.8c27.3,16.6,54.8,32.9,82.4,49.1c6.1,3.6,12.1,8.8,21.2,5.1c4.4-5.2,5.3-12.6,7.3-19.5
		c13.3-46.8,26.3-93.6,39.5-140.3c1.8-6.3,2.5-13.1,8.1-18.9c50.1,14.2,100.7,27.9,151.7,43.8c-2.1,8.3-3.6,15.3-5.5,22.2
		c-10.7,38.5-21.8,76.8-32.2,115.4c-6.7,24.7-7.4,22.3,13.3,34.7C5405.4,2227.2,5410.7,2231,5417.1,2235.3z"/>
	<path onclick="modals(this.id);" id="2916" class="st0" d="M7865.8,4865.1c-6.6,4.2-11.3,7.6-16.5,10.4c-11.8,6.2-23.5,12.6-35.7,17.9
		c-36.4,15.6-69.4,36.7-101.3,59.7c-29.8,21.4-59.5,42.7-89.6,63.7c-11.4,8-23.6,14.9-35.5,22.2c-14.2,8.7-28.9,16.6-42.5,26.1
		c-82.5,57.5-164.8,115.3-247,173.3c-15.3,10.8-31,20.6-47.9,28.6c-16.8,8-33.3,16.4-49.8,24.5c-8.7-13-66.3-150.5-76.4-182.2
		c2.5-3.7,5.1-8.2,8.3-12.3c12.7-16.3,25.8-32.3,38.3-48.7c26.6-35,53.1-70.1,79.3-105.4c8.3-11.2,15.7-23.2,23-35.1
		c54.3-87.8,108.3-175.8,162.8-263.5c5.8-9.4,9-18.8,9-29.9c0-16.6,1.4-33.1-0.8-49.8c-3.6-26.8-14.2-51.2-23.6-76.1
		c-2.3-6.2-5-12.2-7.3-17.9c10.2-12.4,59.8-53.8,77.7-64.9c6.2,4.5,10.3,11.4,14.8,17.7c38.5,52.8,77.6,105.1,115,158.5
		c23.9,34.1,51.4,64.4,82.2,92.1c25.2,22.7,49.6,46.4,74.2,69.8c3.8,3.7,7.5,7.6,10.6,11.9c24.1,32.7,48.1,65.5,72,98.4
		C7860.9,4856.9,7862.4,4859.8,7865.8,4865.1z"/>
	<path onclick="modals(this.id);" id="2903" class="st0" d="M7366.2,3714.1c-111.5,96.7-221.1,191.8-331.6,287.7c-2.8-2.4-6-4.5-8.4-7.3
		c-44.3-52.4-89.4-104.1-132.4-157.6c-47.6-59.2-93.2-119.9-139.5-180c-27.7-35.9-55.2-71.8-82.8-107.8c-4-5.2-7.8-10.6-11.6-15.8
		c1.5-2.4,2.1-4.5,3.5-5.7c113.1-92,226.3-184,340.2-276.5c3.6,3.6,7,6.6,9.9,10.1c14.9,17.9,29.7,35.9,44.4,54.1
		c3.8,4.6,7.4,9.5,10.3,14.7c10.9,20,24.8,37.8,39.1,55.4c62.5,77.1,125,154.2,186.8,231.9
		C7318.9,3648.5,7341.8,3681.2,7366.2,3714.1z"/>
	<path onclick="modals(this.id);" id="2919" class="st0" d="M8624.2,3758.3c8,2.5,13.7,4.1,19.4,6c9.9,3.3,12.5,5.8,12,15.6c-0.7,14.5-0.4,29.3-6,43.2
		c-3.5,8.6-5.9,17.6-8.9,26.8c-14.5,4.4-27.5-6.2-43-2.5c-1.3,3.3-3.5,7.2-4.4,11.5c-5.6,25.3-10.9,50.8-16.4,76.1
		c-0.7,3.1-2.1,6-3.3,9.3c-18.7-0.1-35.1-10.5-53.7-8.9c-8.9,12.8-8.3,29.4-16.8,42.3c-17.6,0-34.9,0.3-52.1-0.2
		c-3.6-0.1-7.1-2.8-10.5-4.6c-1.1-0.6-1.9-1.8-2.8-2.8c-22.9-26-46.6-51.2-68.5-78.1c-25.6-31.5-49.6-64.3-74.4-96.5
		c-7.3-9.5-15.1-18.6-22.6-27.9c-11.6-14.3-13.4-12.4-8.6-34c10-44.8,21.4-89.3,33-133.7c6.2-23.8,11.2-48,15.1-72.3
		c6.8-42.8,16.2-85,25.5-127.2c14.6-66.3,29.1-132.6,43.8-198.9c1-4.3,2.8-8.4,4-12c2.7-0.3,4.1-0.9,5.2-0.6
		c103.8,27,209.3,45.9,314,68.4c1.9,0.4,3.6,1.6,6.5,2.9c-0.2,3.4,0,7.3-0.6,11c-7.6,50-14.9,100.1-22.9,150
		c-16.8,105.2-39.2,209.3-59.8,313.8C8625.8,3742.1,8625.3,3749.3,8624.2,3758.3z"/>
	<path onclick="modals(this.id);" id="2871" class="st0" d="M6265.6,1564.5c8.1-18,11-38.6,18.7-58.3c23.6,4.4,44.7,12.1,67.4,18.7
		c-0.8,4.5-1.1,8.2-2.1,11.8c-4.4,16.1-8.1,32.3-13.7,48c-5.2,14.7-3,25.8,6.9,38.4c73.5,93.9,146.2,188.4,219.1,282.7
		c7.7,10,15.1,20.1,23.4,31.3c-62.6,50.5-124.2,100.2-186.8,150.7c-3.8-3.1-7.8-5.4-10.4-8.8c-10.2-12.8-16.5-9.9-26.4-1.1
		c-15,13.3-30.3,26.1-45.3,39.3c-6,5.2-12.1,8-21,3.9c-0.2-14.4-9.9-24.5-18.9-35.1c-15.9-18.8-31.9-37.6-46.8-57.2
		c-28.4-37.1-61.4-70.1-92.7-104.6c-7.4-8.1-14.3-10.5-24.4-5.9c-28.1,12.9-58.7,17.1-88.3,24.8c-11.4,3-22.7,6.8-35.8,10.9
		c-0.9-0.9-3.6-2.9-5.5-5.4c-34.2-45.1-68.3-90.3-102.4-135.5c-0.8-1-1.3-2.3-2.3-4.4c2.8-3,5.7-6.6,9-9.6
		c13.4-11.9,26.6-24.3,40.7-35.4c13.2-10.3,20.5-23.1,25.3-39.1c20.6-68.9,42.2-137.4,63.4-206.1c1.5-5,3.4-9.9,5.5-16
		c5.7,1,10.8,1.4,15.7,2.7c51.3,14.4,102.5,28.9,153.7,43.4c19.2,5.4,38.5,10.7,57.7,16.2
		C6254.5,1566.2,6259.6,1567.7,6265.6,1564.5z"/>
	<path onclick="modals(this.id);" id="1936" class="st0" d="M4842.9,1617c24.5,4.9,466.4,134.4,481.3,141c0.5,13.1-10.2,24.4-7.1,39.7
		c4.9,1.7,10.3,4,15.9,5.6c50.5,14.6,101.1,29,151.6,43.7c13.3,3.9,27,6.6,39.1,13.2c-2,16.5-32.8,125.2-41.5,146.7
		c-8.7,2.5-16.6-2.1-24.7-4.1c-16.4-4.2-18.1-2.5-22.3,12.9c-1.8,6.9-2.1,14.6-8.9,21.3c-54-13.8-107.6-31.4-163.2-45.5
		c-2.4,5-4.9,8.8-6.1,13.1c-13.4,47.4-26.7,94.8-40,142.2c-2.1,7.6-3.7,15.4-6.8,21.9c-6.5,2.3-9.8-1.7-13.5-4
		c-88.3-53.4-176.6-107-264.8-160.5c-19.4-11.7-38.9-23.3-57.9-35.5c-8.4-5.4-16.7-7.7-27.5-4.5c-13.2,22-22.5,47-37.7,69.9
		c-19.6-5.5-38.3-11.4-56.8-20.6c1.5-5.2,2.5-9.6,4.1-13.8c9-24.3,18.2-48.6,27.3-73c1.9-5,3.9-9.9,5.3-15
		c1.6-5.6,0.3-10.4-5.1-13.8c-5.6-3.5-11-7.4-17.3-11.6c0.7-3.9,1-7.8,2-11.4c23.7-82.5,47.4-165.1,71.2-247.6
		C4840.3,1624.2,4841.4,1621.1,4842.9,1617z"/>
	<path onclick="modals(this.id);" id="2928" class="st0" d="M9005.1,4709.6c-6.3,5.6-11.1,10-16.2,14.3c-23,19.2-46,38.4-69.1,57.6c-3.1,2.6-6.3,5-9.1,7.8
		c-5.2,5.1-5.6,9.7-1.1,16c4.6,6.5,9.7,12.6,15.1,19.5c-9.7,11.9-22.7,18.9-33.8,28.1c-11.9,9.7-24.2,18.8-36.3,28.1
		c-11.6,8.9-23.2,17.8-35.7,27.3c-4-4.5-7.7-8.1-10.9-12.2c-25.6-32.4-51.5-64.6-76.6-97.4c-7.2-9.4-15.5-16-26.7-19.6
		c-25.4-8.1-50.5-16.8-75.9-24.8c-66.1-20.7-131.3-43.9-196.6-67.1c-10.5-3.7-18.5-9.2-24.8-18.6c-17.2-25.3-35.1-50.2-53.4-76.1
		c4.1-4.1,7.5-8.1,11.4-11.4c28.1-23.5,56.4-46.8,84.6-70.2c15.6-13,16.1-14.9,4.1-30.8c-20.5-27.1-41.5-53.8-62.2-80.7
		c-4-5.2-7.8-10.4-11.5-15.4c10.3-12.3,88.1-77.3,107-89.6c10.6,9.7,19.2,21.5,28,33c3.7,4.7,6.9,9.8,10.6,14.5
		c4.2,5.2,8.7,5.9,13.9,2.1c4.3-3.1,8.2-6.8,12.3-10.2c26.8-23,53.5-46,80.3-69c3-2.6,6.1-4.9,10.3-8.3
		c21.4,24.5,39.5,50.7,59.5,75.3c20.2,24.8,40.2,49.8,60.1,74.8c20.3,25.5,40.4,51.3,60.8,76.8c19.9,25,40.1,49.9,60.2,74.7
		c20.1,24.9,40.3,49.7,60.3,74.6C8963.7,4657.7,8983.6,4682.7,9005.1,4709.6z"/>
	<path onclick="modals(this.id);" id="1886" class="st0" d="M7331.9,2267.8c8.9-20.8,10.4-41.1,18-58.8c2.6-0.4,4-1.1,5.2-0.8
		c226.3,60.7,452.6,121.4,678.9,182.2c1.8,0.5,3.5,1.7,6.3,3.2c-11.3,60.6-24.8,120.7-41.1,181.2c-5.5-1-10-1.6-14.3-2.8
		c-55.8-15.5-111.5-31.2-167.4-46.7c-149.4-41.4-298.9-82.9-448.4-124c-30.8-8.4-62.2-14.6-93.2-22.4
		c-57.5-14.3-115.1-28.2-172.2-43.7c-104.1-28.2-207.8-57.4-311.8-86.1c-18-5-36.1-9.4-54.1-14.3c-4.4-1.2-8.5-3-13.2-4.7
		c0.4-3.5,0.2-6.2,0.9-8.6c9.7-32.4,19.6-64.8,29.4-97.2c9.4-0.7,16.9,2.5,24.5,4.4c78.7,19.8,157.1,41.1,236.2,59.4
		c51.9,12.1,102.9,27.2,154.6,40.1c47.8,11.9,95.4,24.4,143.2,36.5C7319.1,2266.3,7325,2266.7,7331.9,2267.8z"/>
	<path onclick="modals(this.id);" id="2734" class="st0" d="M6687,5400.9c4.2-5.2,8.3-10.4,12.5-15.5c18.4-22,36.9-43.8,55.2-65.9c9.9-11.9,10-15.1,1-28.1
		c-12.9-18.6-26.2-36.9-39.2-55.4c-4.6-6.5-9.9-12.6-11-22c1.9-2.6,4.2-5.9,6.6-8.9c12.6-15.5,25.4-30.9,38-46.3
		c41.6-51.1,82.9-102.5,125-153.1c8.8-10.6,11.2-20.2,6.3-32.8c-2.6-6.7-4.3-13.7-3.9-21.4c0.3-5.5-2.5-11.6-5-16.8
		c-9.5-19.8-19.4-39.4-29.4-59c-3-5.9-3-11.1,0.3-16.9c29.6-52.1,58.9-104.3,88.4-156.5c1-1.7,1.7-3.5,3.9-7.7
		c15.2,30.8,25.2,59.6,37.3,87.5c12.2,28,21.1,57.3,34.2,85.1c13,27.6,23.8,56.3,35.5,84.6c11.9,28.9,23.7,57.9,35.6,86.8
		c11.6,28.3,23.3,56.6,35,84.9c11.7,28.3,23.4,56.6,35,84.9c11.6,28.2,23,56.5,35,86c-4.4,1.5-7.3,2.7-10.3,3.3
		c-2.6,0.6-5.3,0.8-7.9,0.7c-32.6-0.7-62.9,9.2-92.9,20.4c-5.9,2.2-10.6,5.4-14,10.6c-21.9,33.4-47.1,64.5-67,99.2
		c-1.3,2.3-3.1,4.3-4.7,6.5c-24.1,33.5-48,67.1-72.2,100.6c-7.4,10.2-15.3,19.9-22.9,29.7c-14-7.6-154.4-116.8-184.8-144.1
		C6699.6,5415.5,6691.5,5410.4,6687,5400.9z"/>
	<path onclick="modals(this.id);" id="2907" class="st0" d="M8278.2,3162c9.5-19.1,8.1-39.4,16.4-58.2c28.6,8,57,13.9,84.6,23.9c-2.2,25.8-6.7,49.9-12,73.9
		c-19.1,86.5-38.3,172.9-57,259.4c-4.8,22.1-8.7,44.5-11.9,66.9c-4.1,28.4-11.4,56.1-18.4,83.8c-9.1,36.1-17.9,72.4-26.9,108.5
		c-1.1,4.4-2.5,8.8-4.4,15.2c-4.3-4.2-7.8-6.9-10.2-10.2c-15.3-21-30.3-42.2-45.6-63.2c-7.8-10.8-16-21.3-24.3-31.7
		c-55-69.4-110.2-138.8-165.3-208.2c-6.6-8.3-13.3-16.6-20.3-24.7c-46.6-53.2-88.9-109.7-131.8-165.8
		c-24.7-32.3-49.7-64.3-75.2-95.9c-6.1-7.6-8.1-14.4-5.5-23.7c5.5-19.8,10.3-39.8,15.5-60.1c7.9-2.8,14.9-0.3,21.9,1.1
		c48.4,9.2,96.2,21.1,143.9,33.3c34.8,8.9,70.2,15.3,105.2,23.4c66.1,15.4,132.1,31.3,198.2,47
		C8262.2,3158.5,8269.3,3160,8278.2,3162z"/>
	<path onclick="modals(this.id);" id="2931" class="st0" d="M8794.1,5164.5c52.5,65,103.5,128.1,155.1,192c-6,5-11,9.3-16.1,13.4
		c-90.4,72.6-180.6,145.4-271.5,217.5c-24.5,19.4-50.7,36.8-76.3,54.7c-28.4,19.9-57,39.4-85.5,59.1c-5.4,3.7-11,7.2-16.3,10.7
		c-2.5-1.6-4.5-2.4-5.7-3.8c-91.5-107.6-183-215.2-274.4-322.9c-0.7-0.9-0.6-2.4-1.3-5.1c6.8-1.5,13.7-3.3,20.6-4.4
		c56-8.5,111.9-16.9,167.9-25.2c8-1.2,15.6-3.4,22.1-8.5c0.5-0.4,1.1-0.8,1.6-1.2c39-25.3,38.9-25.4,67.7-63.5
		c5.1-6.7,8.9-14.8,18.6-20.1c1.5,2.2,3,4.4,4.4,6.6c9.7,14.4,19.6,28.6,28.9,43.2c7.2,11.2,13.4,23,20.4,34.3
		c4.1,6.6,9,7.8,15.2,3.6c5.5-3.7,10.6-8,15.8-12.2c63.7-51.6,127.3-103.2,191-154.8C8781.6,5173.8,8786.9,5169.9,8794.1,5164.5z"/>
	<path onclick="modals(this.id);" id="2905" class="st0" d="M7893.9,2561c-0.8,6.1-1,10.1-1.9,13.9c-44.4,176.2-89,352.3-133.6,528.5
		c-0.3,1-1.8,1.8-2.7,2.6c-11.8-11.6-56.3-71.9-90-121.8c-2.2-3.2-3.7-6.8-6-11.1c6.6-4.6,12.3-9.3,18.6-12.8
		c15.2-8.5,23.8-23,33.5-36.4c3.9-5.4,1.9-10.7-3.8-12.9c-9.1-3.5-97.9-25.8-109.3-27.3c-3.8,3.3-8.2,7.1-13.3,11.6
		c-4.1-4.5-7.8-8.2-11-12.3c-34.5-44.9-72.5-86.9-109.7-129.6c-26.7-30.6-52.2-62.3-78.1-93.6c-13.2-16-16.9-34.2-11.2-54.2
		c9.1-32,18-64.1,27-96.1c6.1-21.8,12.2-43.6,18.4-65.4c1.1-3.8,2.5-7.5,3.7-10.9c6-3.6,10.9-0.1,15.8,1.2
		c127.6,35.4,255.3,70.9,382.9,106.3c16.7,4.6,33.3,9.3,50,14.1C7879.6,2556.7,7885.9,2558.6,7893.9,2561z"/>
	<path onclick="modals(this.id);" id="1860" class="st0" d="M6229.2,1063.7c-44.9,148.4-89.2,294.9-133.1,440.2c-2.2,1.2-2.7,1.5-3.3,1.7
		c-0.6,0.2-1.4,0.5-1.9,0.4c-129.5-36.5-258.9-73-388.4-109.6c-2.5-0.7-4.9-1.9-8.4-3.3c3.5-21.3,11.2-41,16.9-61.2
		c5.6-19.9,12-39.5,17.9-59.3c6.1-20.4,11.5-41.1,17.9-61.4c6.2-19.5,10-39.8,19.3-59.4c7,2,13.3,3.7,19.5,5.6
		c38.9,11.8,77.8,23.5,116.7,35.4c7,2.1,13.9,4.6,21.2,2.2c8-14.5,20-58.3,20-73.8c-24.6-10.3-51.2-16.4-77-25
		c-25.2-8.4-50.7-16.1-77.3-24.6c4.2-23.1,12.6-44,18.9-65.5c6.4-21.7,13.2-43.2,20.2-66.1c6.6,1.4,12.3,2.3,17.8,4
		c78.9,24.3,157.8,48.6,236.7,73.1c43.9,13.6,87.7,27.4,131.6,41.2C6218.8,1059.7,6223,1061.5,6229.2,1063.7z"/>
	<path onclick="modals(this.id);" id="1930" class="st0" d="M4699.7,2114.5c-9.7-3.3-17.2-5.7-24.7-8.5c-42.5-15.5-85.1-30.9-127.5-46.6
		c-18.3-6.8-37.7-8.3-56.6-11.7c-49.1-8.9-98.4-16.9-147.6-25.4c-5.8-1-11.4-2.7-16.4-3.8c-0.8-2.7-1.7-4-1.4-5.1
		c20.3-102.4,40.6-204.9,60.8-306.6c6.3-3.6,9.8,0.5,13.6,2.7c28.2,16.3,56.4,32.9,84.6,49.2c5.6,3.2,10.9,8,18.3,6.2
		c5-4.4,5.1-10.6,6.2-16.4c13.3-68.6,26.6-137.2,39.9-205.8c0.6-3.2,1.6-6.3,2.6-10.5c3.7,0.4,6.9,0.4,9.9,1.2
		c85,24.7,169.9,49.5,254.9,74.3c3.8,1.1,7.4,2.7,12.3,4.6c-0.8,4.2-1.2,7.9-2.3,11.5c-23.5,81.9-47.1,163.7-70.6,245.6
		c-2,7-3.7,14-5.4,20.2c5.1,10.8,17.4,11.7,23.4,21.9C4749.5,1978,4724.9,2045.3,4699.7,2114.5z"/>
	<path onclick="modals(this.id);" id="1939" class="st0" d="M5396.3,2204.6c13.6-50.4,26.8-99.1,41.9-148.6c4.7,1,8.4,1.5,12,2.5
		c13.4,3.9,26.8,7.8,40.2,11.9c16.3,4.9,30.6,12.8,41.3,26.5c4.5,5.8,9.5,11.2,14.5,16.5c7.3,7.7,12.2,7.7,20.4,0.3
		c3.5-3.1,6.6-6.6,10-9.8c2.9-2.7,5.9-5.2,8.8-7.8c11.7,10.7,81.3,102.5,110.5,145.6c-3.2,3-6.3,6.4-9.9,9.1
		c-38.8,29.3-77.7,58.5-116.6,87.8c-5.3,4-10.7,7.9-15.8,12.3c-6.3,5.4-6.3,10.7-0.2,16.9c2.8,2.8,5.9,5.4,8.9,8
		c24.5,21.6,49,43.2,73.3,65c6.9,6.2,13.2,13.2,20,20.1c-0.6,1.5-1.3,3.3-2.1,5c-3.8,8.5-3.8,10,2.1,15.5
		c8.2,7.7,16.8,15.1,25.9,23.3c-6.1,10.2-13.8,17.4-24,22.8c-62.7,33.9-125.3,68-187.7,102.4c-16.3,9-32,19.2-47.6,29.4
		c-27.9,18.2-56.4,35.4-82.6,56.1c-2,1.6-4.4,2.8-7.7,4.8c-4.4-4-8.9-7.7-12.9-11.9c-40.7-43.1-81.2-86.4-122.2-129.3
		c-12.4-13-26-24.9-39-37.3c-2.4-2.3-4.5-4.7-7.3-7.6c8.2-13.2,16.8-25.3,27.6-36.2c82.3-82.6,164.4-165.5,246.5-248.3
		c0.5-0.5,0.9-1,1.4-1.4c15-13.1,10.3-19.9-2.9-26.9C5414.5,2216.7,5406.4,2210.9,5396.3,2204.6z"/>
	<path onclick="modals(this.id);" id="2917" class="st0" d="M7766.1,4695.5c-0.7,4.5-1.5,8.8-2.2,13.1c-1.8-0.1-3.5,0.3-4.2-0.4
		c-30.6-28.7-61.2-57.5-91.6-86.4c-3.4-3.2-6.2-7-8.9-10.8c-50.7-69.5-101.3-138.9-151.8-208.4c-1.5-2.1-2.6-4.5-3.7-6.5
		c19.9-24.7,215.6-189.2,243.4-204.5c22.3,18.7,35.7,42.2,38.8,71.5c1.4,13.2,3.5,26.4,5.1,39.6c0.8,7.1,4,12.5,10,16.3
		c5,3.2,9.6,7.3,14.9,9.9c13.7,6.9,27.6,13.4,41.5,19.8c5.4,2.5,11,5.1,17.5,0.2c2.2-12.6-7.9-23.4-7.3-37.5
		c9.5-6.7,19.7-13.8,30.2-21.1c61.6,65.2,117.7,133.5,173.4,203c-12.8,11.4-25.5,21.9-41.1,28.4c-11.6,4.8-23,10-35,15.3
		c0.3,4.9,0.2,8.8,0.8,12.6c5.6,37.6,14.6,74.5,23.3,111.4c3.4,14.3,6.3,28.6,9.1,43c0.9,4.5,1,9.1,1.5,14.4
		c-18.1,5.6-35.5,8.9-53.4,9.6c-29.4,1.2-58.4-2-87.5-6.6c-33.7-5.3-66.1-15.4-98.9-24.1C7782.3,4695.5,7774.8,4692.4,7766.1,4695.5
		z"/>
	<path onclick="modals(this.id);" id="2962" class="st0" d="M7530.8,6461.5c15,26.6,29.3,52,43.4,77c11.6,3.3,22,0.2,32.5-1.1c58.5-7,114.5-24.4,170.8-40.3
		c7-2,14-4.1,21-6.3c1.2-0.4,2.1-1.5,4.3-3.1c-0.2-3,0.4-7.1-0.9-10.5c-3.3-8.7-7.4-17.1-11.4-25.5c-9.8-21.1-19.8-42.2-29.5-63.4
		c-1.6-3.5-2.7-7.3-4.4-12c6.1-2.4,11.5-4.5,17.8-6.9c3,4.4,5.8,7.9,7.9,11.8c14.9,28.3,29.6,56.7,44.4,85c1.8,3.5,3.8,7,5.8,10.5
		c2.2,4,6.1,5.6,10.2,4.6c14.1-3.6,28.1-7.6,40.7-13.1c4.3-9-0.6-15.3-3.8-21.6c-10.3-20.2-20.9-40.2-31.3-60.2
		c-5.5-10.6-11.1-21.2-16.5-31.9c-1.4-2.8-2.3-6-3.7-9.9c5.7-4.2,10.9-8,15.3-11.2c7.1,1.2,8,6.3,10.2,10.2
		c17.1,30.9,34,61.8,51,92.8c2.2,4.1,4.3,8.3,6.7,12.3c5.6,9.4,7.5,10.3,17.7,7.3c9.6-2.8,19.1-5.9,28.5-9.3
		c7.2-2.6,8.8-6.8,5.5-14.2c-2.4-5.5-5.3-10.7-8.1-16c-18.6-35.3-37.3-70.6-55.9-106c-1.5-2.9-2.9-6-4.8-10.1
		c14.5-25.4,29.5-51,45.1-76.6c15.4,12,200.9,206.7,246,258c1.2,1.3,1.5,3.3,2.8,6.3c-7.5,2.1-14.3,4.3-21.2,5.9
		c-140.5,33.5-281.1,66.6-421.5,100.6c-36.2,8.8-71.7,20.3-107.5,30.6c-107.4,31.1-214.8,62.2-322.2,93.4c-4.3,1.3-8.4,3.6-12.3,6
		c-3.8,2.4-7.2,5.5-10.7,8.1c-13.5-11.5-136.7-153.2-146.2-168.1c8.6-6.2,17.9-11.2,28.1-13.9c51.4-13.9,102.7-28,154.3-41.1
		c63.2-16,126.7-31,190.1-46.3C7522.1,6462.6,7525.4,6462.3,7530.8,6461.5z"/>
	<path onclick="modals(this.id);" id="2918" class="st0" d="M7855.6,4332.2c-16.1-7.8-30.4-13-42.9-22.1c-5.8-4.2-9.3-9.2-10.2-16.3
		c-1.6-13.2-3.4-26.4-5.1-39.6c-2.9-22.3-10.8-42.3-26.5-58.9c-4-4.2-7.3-9.1-12.2-15.2c3.1-2.1,5.4-3.4,7.4-5.1
		c46.3-37,92.6-73.9,138.8-111c24.4-19.6,48.3-39.7,72.4-59.7c2.6-2.1,5.3-4.1,7.7-6.4c6-5.8,6.5-11.1,1.4-17.6
		c-3.7-4.7-8-8.9-11.9-13.4c-2.1-2.5-3.9-5.2-6.5-8.6c14.9-16.1,32.4-28.1,48.4-41.8c15.6-13.5,31.7-26.4,47.5-39.7
		c16.2-13.7,32.3-27.6,47.5-40.5c2.3-0.1,3-0.3,3.6-0.1c0.6,0.2,1.3,0.5,1.7,1c60.3,76.3,127.9,146.4,186.1,224.4
		c1.6,2.1,2.7,4.5,4.2,7.1c-7,7.7-15.7,12.7-23.6,18.6c-10.7,7.9-21.6,15.6-32.1,23.7c-8.8,6.8-9.3,10.7-2.9,20.2
		c5.6,8.2,11.6,16.2,16.9,23.6c-0.2,1.8-0.2,2.4-0.4,3c-0.2,0.6-0.3,1.4-0.8,1.8c-3,2.7-5.9,5.3-9,7.8
		c-86,69.3-172,138.6-258.7,208.6c-3.4-3.2-6.5-5.6-9-8.4c-23.9-26.8-47.8-53.7-71.6-80.6c-2.6-3-5-6.3-7.8-9.1
		c-4.3-4.3-9.2-5.2-14.5-1.8c-7.3,4.6-14.3,9.7-21.4,14.7C7850.8,4305.6,7850.8,4305.6,7855.6,4332.2z"/>
	<path onclick="modals(this.id);" id="2915" class="st0" d="M6947.4,4681.2c149.5-68.8,297.4-135.9,445.5-202.3c1.7-0.7,3.8-0.3,5.9-0.5
		c1.3,1.8,2.7,3.2,3.5,5c12.4,28.7,24.6,57.5,29.3,88.8c2.4,16.1,0.7,31.9-0.3,47.8c-0.3,4.3-3.4,8.6-5.8,12.5
		c-58.3,94.7-116.1,189.7-175.5,283.8c-20.2,32-43.9,61.9-66.7,92.2c-18.4,24.5-37.9,48.2-57,72.1c-2.8,3.5-6,6.6-10.3,11.3
		c-3-6.5-5.4-11-7.3-15.7c-19-46.2-37.9-92.4-56.8-138.6c-1.8-4.3-4.5-8.6-4.7-13.1c-0.5-13.2-6.7-24.3-12.2-35.6
		c-30.6-63.7-56.4-129.4-83.1-194.7C6950.4,4690.7,6949.3,4686.9,6947.4,4681.2z"/>
	<path onclick="modals(this.id);" id="1932" class="st0" d="M4293.3,2180.2c9.4-50,18.6-98.2,27.9-147.7c5.1,0.4,8.8,0.4,12.5,1.1
		c59,10,118.1,19.9,177.1,30.4c11.7,2.1,23.3,5.5,34.5,9.5c47.6,17,95.1,34.4,142.6,51.7c0.6,0.2,1.2,0.5,1.9,0.7
		c17.4,6,18.6,5.6,24.7-11.2c7.9-21.9,15.5-43.9,23.4-65.8c2.4-6.8,5.3-13.4,8.3-20.7c19.3,6.5,37.4,12.2,55.7,19.6
		c-1.1,3.5-1.6,6-2.7,8.3c-29.1,62.8-58.3,125.5-87.5,188.2c-3.3,7-5,14.9-14.7,17.6c-3.2,0.9-5.6,7-7.1,11.2
		c-8.3,22.5-16.1,45.1-24.2,67.6c-8.5,23.7-16.5,47.7-31.5,68.5c-2.9,4.1-3.6,9.9-5.1,15c-3.6,12.7-6.9,25.5-10.2,37.7
		c-3.4,0.8-5.3,1.8-7.2,1.6c-70.7-8.6-141.3-17.4-212-26.2c-5.2-0.6-10.2-2.1-15.7-3.3c-0.5-16.4,4.2-31.1,6.6-46
		c8.9-55.8,18.3-111.6,27.4-167.4c0.3-2,0.8-3.9,1-5.9c0.7-6.8-1.3-9.9-8.1-11.3c-14.3-2.9-28.7-5.6-43.1-8.3
		c-21.6-4.1-43.2-8.1-64.7-12.2C4300.7,2182.5,4298.2,2181.6,4293.3,2180.2z"/>
	<path onclick="modals(this.id);" id="1859" class="st0" d="M5463.9,1328.8c0-3.2-0.4-5.2,0.1-7c40.2-149.1,80.4-298.1,120.7-447.2c0.7-2.4,2-4.7,2.9-6.8
		c16.8,2.1,109.5,29.3,209.2,61.3c5.6,1.8,11,3.9,17.5,6.3c-1.2,5.5-1.8,10-3.1,14.3c-11.1,36.3-22.6,72.4-33.4,108.8
		c-2,6.7-6.7,13.4-2,22.8c49.5,17,101.3,31.7,153,48.8c-1.9,18.1-8.3,34-13.3,51.5c-6.6-1.5-12.3-2.5-17.8-4.2
		c-40.1-12.2-80.2-24.5-120.3-36.8c-23.3-7.1-21.8-6.2-28.3,15.8c-21.2,71.5-42.5,142.9-63.8,214.3c-1.7,5.7-3.7,11.2-5.9,18.1
		c-24.9-4.8-48-13.1-71.5-19.5c-24.4-6.6-48.6-13.9-73-20.8C5511.3,1342,5487.6,1335.5,5463.9,1328.8z"/>
	<path onclick="modals(this.id);" id="2906" class="st0" d="M7790.4,3035.3c1.3-6.5,2.2-11.6,3.4-16.6c37.9-150.3,75.8-300.7,113.9-451.5
		c16.1-0.2,29.5,6.3,43.5,9.8c14.1,3.5,28,7.9,42.4,12c-0.3,17.3-6.7,32.2-10,47.6c-3.4,15.6-8.8,30.7-13.1,46.1
		c-4.3,15.4-8.5,30.8-12.6,46.3c-4.1,15.4-8.1,30.7-11.8,44.7c4.1,8.1,10.6,8,16.3,9.4c51.2,12.2,102.3,24.3,153.5,36.5
		c7.6,1.8,15.2,4,23.4,6.2c-1.3,17.2-6.3,32.4-8.8,48c-2.5,15.5-9.2,30.5-6.9,47.4c28,9.8,56.9,14.3,84.1,23.6
		c-0.5,19.5-27.5,162.6-33.4,177.5C8046.1,3096,7919.4,3063.5,7790.4,3035.3z"/>
	<path onclick="modals(this.id);" id="2973" class="st0" d="M7278.7,6746.7c-11,7.4-13.5,18.9-18.6,28.8c-13.3,26.1-26.4,52.3-40.2,78.1
		c-5.9,11-9.1,21.7-7.2,34.3c1,6.3-0.6,12.9-1,18.6c-5.7,2.8-7.4-1-9.2-3.3c-14.8-18-29.4-36.2-44.1-54.3
		c-4.6-5.7-9.3-11.3-14.4-17.5c-13.8-1.8-27.7,0.3-41.5,0.9c-5.3,0.2-10.6,1.4-15.9,1.5c-7.6,0.2-13.5,3.3-19.8,7.6
		c-17.6,12-36.2,22.5-54.1,34c-6.3,4-11.8,3.7-18.7,1.4c-20.1-6.5-36.8-17.4-51.5-32.7c-22.6-23.5-46.9-45.4-69.9-68.5
		c-37.6-37.7-74.8-75.8-112.9-114.5c3.4-3.6,5.9-6.4,8.6-9c34.9-32,74.4-58.1,112.2-86.2c0.5-0.4,1.1-0.8,1.6-1.2
		c10.7-8.4,10.9-12.7,1.4-22.3c-4-4.1-8-8.2-12-12.4c3.9-3.5,5.7-0.4,7.3,1.1c13.1,12.3,26.5,24.3,38.9,37.3
		c11.4,12,13.4,12.5,28.9,4c35-19.2,70.2-38.1,105.4-57.1c5.8-3.1,11.9-5.7,17.4-8.3C7081.3,6517.1,7263.3,6725.3,7278.7,6746.7z"/>
	<path onclick="modals(this.id);" id="1872" class="st0" d="M6345.3,1601.5c7.3-24.6,13-47.7,20.8-70.8c18,2.6,32.9,6.4,43.8,21.8
		c16.6,23.3,35.2,45.2,52.9,67.7c3.7,4.7,7.4,9.5,11.2,14.1c9.1,10.9,9.1,10.9,23.1,3.4c1.2-0.6,2.4-1,3.9-1.6
		c58.9,15.7,118.3,30.7,177.2,47.4c58.2,16.5,117,30.9,174.1,48.6c2.5,7.5-0.3,13-1.9,18.6c-28.9,98.4-57.8,196.8-86.6,295.2
		c-3.9,13.4-7.6,26.9-11.6,40.3c-1.7,5.6-3.9,10.9-6.3,17.4c-3.4-1.6-6.2-2.1-7.8-3.8c-3.8-3.7-7.2-7.9-10.5-12
		c-38.9-47.4-78.1-94.5-116.5-142.4c-32.1-40.1-63-81-94.4-121.6c-53-68.5-106-137.1-158.9-205.6
		C6353.7,1612.8,6349.8,1607.5,6345.3,1601.5z"/>
	<path onclick="modals(this.id);" id="1863" class="st0" d="M7014,1174c57.9,16.4,113.5,32,170.2,48.1c0.2,3.6,1,7.4,0.4,11.1c-2.3,13.1-4.6,26-8.3,38.9
		c-6,21.1-10.1,42.7-14.7,64.2c-26.1,123.8-60,245.5-94.2,367.2c-5,17.9-9.7,35.9-14.7,53.9c-1.2,4.4-3,8.6-4.4,12.5
		c-18.2-1.9-158.2-40.9-174.6-48.6c1.6-6.6,3.1-13.6,5.1-20.4c21.2-74.9,42.6-149.7,63.8-224.6c8.7-30.7,17.7-61.4,25.2-92.4
		c7.8-32.3,13.9-65,20.9-97.5c7-32.5,14-65,21.1-97.5C7010.8,1184.3,7012.3,1179.9,7014,1174z"/>
	<path onclick="modals(this.id);" id="1862" class="st0" d="M6911.6,1530.9c-22.4-6.2-44.1-12.1-65.8-18.3c-28.2-8-56.3-16.2-84.4-24.3
		c-5.1-1.5-10.3-2.9-15.4-4.3c-7.4-2-13.2,0.5-16.8,7.1c-3.2,5.8-6.2,11.7-8.7,17.8c-4.1,9.7-7.7,19.6-12,30.6
		c-27.7-5.1-53.4-14.1-79.4-21.7c-26.1-7.6-52.7-13.6-78.2-23c-1.3-7.1,1.7-12.6,3.4-18c24-77.6,48.4-155.1,72.4-232.6
		c5.4-17.4,14.9-32.5,23.7-49.2c3.4,0.4,6.7,0.2,9.7,1.1c97.3,30.1,194.6,60.2,291.9,90.4c5.7,1.8,11.2,3.9,17.2,6
		c2.7,7.6-0.2,14.7-1.6,21.6c-3.9,18.9-8.7,37.6-12.2,56.6c-9.8,52.5-26.7,103-40.2,154.5
		C6914.7,1526.5,6913.7,1527.5,6911.6,1530.9z"/>
	<path onclick="modals(this.id);" id="2944" class="st0" d="M6663.3,5867.5c-1.9,0.8-4.3,1-5.5,2.3c-8.2,8.8-16.3,17.5-24,26.8c-4.8,5.7-4.3,10,0.4,16.2
		c2.4,3.2,5.3,5.9,7.9,9c22.2,25.8,46.1,49.9,71.6,72.4c4.4,3.9,8.4,8.3,12.8,12.7c-3.7,8.2-8.7,14.1-15.9,20
		c-19.6-18.4-39.1-36.5-58.3-54.8c-12-11.5-23.4-23.8-35.3-35.3c-8-7.7-12.4-7.2-19.6,1.8c-5.9,7.3-11.5,14.7-16.9,22.3
		c-6.4,9-6.5,12.6,1.5,21c21.2,22.1,42,44.6,65.6,64.3c10.2,8.5,20,17.4,30.2,26.2c-3.8,8.3-7.3,15.3-13.9,21.7
		c-3.4-2.4-6.5-4.5-9.5-6.9c-27.8-22-52.2-47.6-77.2-72.5c-18.4-18.3-20.4-18.1-31.7,5c-16.5,33.9-17.5,24.5,8.1,51.6
		c25.8,27.2,55.7,49.6,84.4,73.4c9.2,7.6,18.1,15.6,25.8,22.1c0,20.7,0.3,39.3-0.1,58c-0.5,24.4,2.3,47.8,15.3,69.2
		c1.3,2.1,1.3,4.9,1.8,7.2c-1.8,1-2.8,1.9-4.1,2.3c-1.2,0.3-2.6,0.1-5.2,0.1c-7.1-12.7-7.2-28.7-14.7-42.9
		c-3.8-0.2-7.6-0.9-11.4-0.7c-57.1,3.8-114.3,7.7-171.4,11.7c-15.3,1.1-30.5,2.4-45.8,3.6c-3.9,0.3-8.4,0.1-10,4.8
		c-1.5,4.4,1.1,7.8,3.7,10.8c11.1,12.4,21.7,25.3,33.6,37c29.9,29.5,60.3,58.4,90.4,87.6c3.8,3.7,7.3,7.6,11,11.5
		c-1.8,7.8-7.7,10.8-13.6,15.6c-9.2-9.6-17.9-18.6-26.5-27.7c-26.6-28.1-52.9-56.3-79.6-84.2c-23.5-24.5-47.4-48.7-71-73.1
		c-4.1-4.2-7.7-9-12.1-14.2c2.9-4.3,5.2-8.2,7.9-11.8c14.7-19.8,29.5-39.5,44.4-59.2c4-5.2,7.8-10.4,13.7-14.2
		c4.7-3,7.8-8.8,11-13.8c59.5-91.7,118.8-183.4,178.3-275.1c6.9-10.6,14.3-20.9,20.6-31.9c12.8-22.3,30-40.2,49.6-56.7
		c59-49.9,117.3-100.7,176.5-151.7c14.4,8.1,25.3,20.5,38.9,31.5c-4,4.3-7,7.5-9.8,10.6c-12.3-4.8-18.5-16.9-31.5-20.1
		c-2.5,1.8-5.5,3.4-7.6,5.7c-14.5,16.5-29,33.1-43.2,49.9c-7.4,8.7-7.4,11.8,0,20.9c19,23.1,36.8,47.4,61,65.8
		c4.7,3.6,8.7,8.1,12.8,11.9c-7.9,27.8-37,75.3-58.4,95.4c-4.5-3.8-9.3-7.3-13.5-11.5c-23-23.1-45.9-46.4-68.8-69.6
		c-1.4-1.4-2.6-3-4-4.5c-11.2-12-14.1-12-25.3,0c-5.9,6.3-11.8,12.7-17.3,19.4c-5.7,7-5.6,10.6,1.1,17.3
		c20.7,20.8,41.5,41.5,62.4,62c9.9,9.7,20,19.4,29.6,29.9c-5.5,8.1-10.6,14.9-18.7,20.1c-4.4-3.5-8.7-6.5-12.5-9.9
		c-25-22.1-48.1-46.1-70.4-70.9C6675.8,5877.3,6671.7,5869.9,6663.3,5867.5z"/>
	<path onclick="modals(this.id);" id="1875" class="st0" d="M7802.6,2313.2c-9.1-1.9-14.9-2.9-20.5-4.4c-138.2-37-276.3-74-414.4-111.1
		c-31.4-8.4-27-8.8-35,21c-2.6,9.6-5.3,19.2-8.1,28.8c-0.3,1.2-1.5,2.1-2.7,3.7c-2.2,0-4.9,0.5-7.3-0.1
		c-56.1-14.2-112.1-28.4-169.1-42.9c2.1-21,9.7-39.5,14.6-58.5c4.8-18.7,9.9-37.3,15.1-55.9c5.3-19.2,10.8-38.3,16.6-58.5
		c5.2,0.5,9.8,0.4,14,1.5c39.2,10.4,78.2,21.9,117.6,31.3c103.6,24.7,205.4,55.7,308.1,83.8c4.5,1.2,8.9,2.7,13.5,3.5
		c6.7,1.2,10.3-1.3,11.2-7.9c1.8-13.2,3.1-26.4,4.7-39.6c1.1-9.1,2.5-18.3,3.8-26.8c16.6-5.5,49.6-9.3,68.7-8.1
		c1.2,4.1,2.9,8.4,3.8,12.9c6.6,31.9,12.8,63.9,19.6,95.8c2.3,11,5.4,22,9.2,32.6c10.4,28.8,21.5,57.3,32.3,86
		C7799.3,2303.3,7800.3,2306.4,7802.6,2313.2z"/>
	<path onclick="modals(this.id);" id="1865" class="st0" d="M6180.1,1273.5c5.1,0.8,9.1,1,12.8,2.1c124.8,35.4,249.6,70.8,375.4,106.6
		c-3.1,18.2-9.6,34.1-14.6,50.4c-4.8,15.9-9.7,31.8-14.6,47.7c-5.1,16.5-10.2,33.1-15.4,49.6c-5,15.9-9.7,31.8-15.3,47.5
		c-5.7,16-9.4,33-17.2,47.3c-8,0.3-9.9-4.5-12.6-7.9c-19.9-25-39.9-50-59.2-75.5c-7.2-9.5-15.4-15.5-27.1-18.7
		c-33.4-9.2-66.5-19.3-99.7-29.2c-5.8-1.7-11.4-3.6-18.6-0.7c-5.6,18.6-11.4,37.6-17.4,57.6c-3.3,0-6.6,0.7-9.5-0.1
		c-43.6-12.1-87.2-24.4-130.7-36.8c-2.4-0.7-4.5-2.5-7.5-4.2C6132.3,1430.4,6155.7,1352.3,6180.1,1273.5z"/>
	<path onclick="modals(this.id);" id="1874" class="st0" d="M7184.9,1824.4c42.6,10.7,83.5,20,123.8,31.2c82.6,23,164.9,47.1,248.5,71.1
		c-3.1,21.7-13,41.1-15.1,62.5c12.5,8,26.2,8,38.7,11.8c11.9,3.6,24.8,4.1,36.8,10.4c-2,20.9-11.2,39.9-13,60.9
		c14.8,5.8,29.7,4,45,7.6c1.1,19.8-2.8,39.1-5.8,58.1c-6.9,2.9-12.4,0-18-1.5c-60.3-16.9-120.5-33.9-180.9-50.6
		c-29.5-8.1-59.3-15.3-88.9-23.2c-71.4-19-142.8-38.1-214.2-57.2c-2.5-0.7-4.9-1.9-8.6-3.4c0.4-3.7,0.4-7.5,1.4-11.1
		c5-17.3,10.2-34.5,15.4-51.7c10.1-33.8,20.3-67.6,30.5-101.4C7181.6,1834.1,7183,1830.4,7184.9,1824.4z"/>
	<path onclick="modals(this.id);" id="1861" class="st0" d="M6572.6,1367.2c-15.9-1.8-198.2-52.5-371.9-103.3c-5-1.5-9.8-3.3-14.5-5
		c2.1-16.7,48.5-169.6,57.5-190.2c129.5,39.7,259,79.5,388.7,119.3c-0.1,8.9-4.9,14.8-8.1,21.2c-5.4,10.6-12.1,20.8-11.5,33.5
		c0.1,1.3-0.4,2.6-0.8,3.9c-12.4,39.3-24.9,78.7-37.3,118C6574.5,1365.2,6573.9,1365.6,6572.6,1367.2z"/>
	<path onclick="modals(this.id);" id="2959" class="st0" d="M7352.1,6368.5c2.6,2.4,5.3,4.4,7.4,6.9c24.8,29.6,49.5,59.2,74.1,88.9c0.7,0.8,0.4,2.5,0.7,4.5
		c-11.3,5.1-23.6,7.2-35.7,10.2c-49.8,12.3-99.6,24.1-149.3,36.7c-22.6,5.7-44.6,13.4-67.2,19.2c-16,4.2-32.5,6.8-47.5,16.5
		c-3.2-2.7-6.6-4.8-9-7.6c-14.4-16.6-28.3-33.6-42.8-50.1c-7.4-8.4-15.6-16.1-24.6-25.3c16.6-7.4,31.6-14.3,46.8-21
		c18.3-8,36.8-15.5,55.1-23.6c8.2-3.6,9.7-9.1,4.1-15.7c-7.3-8.7-15.2-16.8-22.9-25c-3.5-3.8-8.2-4.6-12.9-3.1
		c-5.1,1.6-9.9,3.9-14.8,5.9c-32,13.2-64,26.3-96,39.4c-1.8,0.7-3.8,1.1-6.2,1.8c-6.9-2.7-10.3-9.6-16.8-15.2
		c3.9-2.6,6.9-5,10.2-6.6c28.4-13,57-25.8,85.5-38.8c16.9-7.8,17.4-12,3-22.5c-7.5-5.5-15.5-10.4-22.9-16.1
		c-7.9-6.1-15.4-6.1-24.1-1.7c-15.4,7.9-31.1,15.1-46.7,22.6c-14.9,7.2-29.8,14.4-45,21.7c-7.4-6-12-13.1-16.5-21.7
		c4.3-2.4,8-4.9,12-6.8c24.1-11.3,48.3-22.4,72.4-33.7c12.3-5.8,13.5-9.3,7.3-21.6c-3.8-7.8-8-15.4-12.3-22.9
		c-3.2-5.6-7.6-7.4-13.4-4.9c-9.8,4.2-19.4,8.8-28.9,13.5c-16.1,7.9-32.2,16.1-48.3,24.1c-4.1,2-8.3,3.7-13.4,5.9
		c-8.1-19.2-12.3-38.4-15.7-57.5c28-20.7,196.1-88.1,247.7-99.2c13.4,12.5,25.2,27.5,39.1,43.1c-4.7,2.4-8.4,4.8-12.3,6.2
		c-41.3,15-82.6,29.8-124,44.7c-21.3,7.7-21.9,9.3-9.9,29.4c4.4,7.4,9,14.6,12.6,20.6c8.8,3.6,14.8,0.3,21-2
		c28.8-10.5,57.4-21.2,86.4-31.2c22.6-7.8,45.6-14.6,68.8-22c8.6,5.6,15.7,12.1,21,22.2c-6.4,2.4-11.7,4.6-17.2,6.4
		c-39.8,13.3-79.5,26.6-119.3,39.8c-5.7,1.9-11.4,3.7-17,5.9c-6.9,2.7-8.9,9.5-3.6,13.9c10.3,8.5,21,16.4,31.7,24.3
		c5.5,4,11.4,2,17.2,0.1c19.7-6.3,39.3-12.4,59-18.6c24.8-7.8,49.5-15.7,74.3-23.4c5-1.6,10.2-2.7,15.4-4.1
		c7.4,6.3,14.6,12,19.8,21.1c-4.3,1.8-7.8,3.6-11.5,4.7c-41.3,12.9-82.6,25.5-123.9,38.5c-20.4,6.4-21.2,9.6-6.8,24.3
		c4.6,4.8,9.9,9,14,14.2c5.9,7.6,13.3,8.3,21.5,5.9c14.7-4.3,29.2-9.3,43.9-13.4c32-8.9,64.2-17.5,96.3-26.2
		C7345.3,6369.6,7348.6,6369.2,7352.1,6368.5z"/>
	<path onclick="modals(this.id);" id="2941" class="st0" d="M7237.4,5724.6c22.3-25.2,43.1-50.5,65.8-73.8c25.2-25.9,47.4-54.1,69.3-82.7
		c9.7-12.7,19.1-25.6,28.8-38.4c2.3-3.1,5.2-5.7,8.7-9.6c64.8,75,126.1,151,181.4,231.7c-13.3,28.2-98.8,138.8-127.8,165.3
		C7445.1,5906.7,7283.4,5769.2,7237.4,5724.6z"/>
	<path onclick="modals(this.id);" id="2910" class="st0" d="M7703.5,3830.2c6.5,6.9,12.3,13.1,18.2,19.3c8.1,8.4,12.6,8.8,22.3,1.7
		c6.4-4.7,12.6-9.7,19.5-15c13.4,12.1,22.4,26.9,31.1,41.6c8.4,14.1,14.3,29.7,21.4,44.7c6.8,3.5,12.8,0,19-2.4
		c21.7-8.5,43.3-17.2,64.9-25.7c3.6-1.4,7.4-2.6,11.7-4.1c9,17.5,16.8,35.1,26.7,51.3c10,16.3,22.2,31.2,33.5,46.7
		c-16.7,18.2-196.4,163.8-221.1,179.2c-6.2-0.5-8.5-5.8-11.7-9.8c-37.7-47.4-75.4-94.8-110.7-144c-14.7-20.5-31.2-39.8-46.8-59.7
		c-3.2-4.1-6-8.4-9.7-13.7C7615.8,3903.4,7659.2,3867.2,7703.5,3830.2z"/>
	<path onclick="modals(this.id);" id="1934" class="st0" d="M5575.6,1580.5c14.9,4.1,30.2,8.2,45.4,12.4c19.2,5.4,38.4,11,57.6,16.3
		c6.3,1.7,12.7,4.6,19.5,0.5c6.7-10.5,5.1-24.5,13-35.3c3.6,0.8,6.8,1.2,9.9,2.3c15.7,5.4,31.1,11.9,47.1,16.3
		c21.1,5.8,38.3,17.4,55.6,30.2c25.9,19.3,48.5,41.3,67.1,67.7c11.9,16.8,25.1,32.7,38.4,49.9c-2.7,3.2-4.8,6.4-7.6,8.9
		c-9.4,8.5-18.9,16.8-28.6,24.9c-36.2,30.5-69,64.6-103.3,97.2c-4.3,4.1-8.7,8-13.9,12.9c-3.5-4-6.9-7-9.3-10.7
		c-14.8-22.6-36.2-38.9-55.6-56.9c-4.8-4.4-11.2-7-17.1-10.2c-46.8-25.6-46.8-25.5-97.6-39.3c-22.4-6.1-44.7-12.4-66-18.3
		c-4.5-6.6-1.3-11.7,0.1-16.5c11.7-39.6,23.7-79,35.5-118.5C5569.2,1603.3,5572.2,1592.5,5575.6,1580.5z"/>
	<path onclick="modals(this.id);" id="1876" class="st0" d="M6812.7,1931.4c3.1,0,5.1-0.4,6.9,0.1c118,32.3,235.9,64.6,353.9,97c1.1,0.3,1.9,1.7,3.6,3.2
		c-0.1,2,0.2,4.7-0.5,7.1c-15.5,54.2-29.2,109-45.3,162.3c-2.6,0.7-4,1.6-5.1,1.3c-119.2-30.1-238.5-60.2-357.7-90.5
		c-2.5-0.6-4.7-1.9-6.9-2.8C6763,2093.3,6800.6,1962.5,6812.7,1931.4z"/>
	<path onclick="modals(this.id);" id="2911" class="st0" d="M7527.7,4186.7c-17.2-21.2-32.6-40.4-48.2-59.4c-19.9-24.1-41-47.2-59.3-72.7
		c-7.3-10.1-17.7-18-26.4-27.2c-15-15.8-25.3-34-27.3-56.1c-1-11.3-1.5-22.6-1.7-33.9c-0.4-22.1-7.1-42-20.8-59.2
		c-15-18.7-30.8-36.7-46.2-55.1c-4.7-5.5-9.3-11.1-13.7-16.5c8.7-9.7,76.4-65.4,92.5-76.1c2.5,2.6,5.3,5.2,7.7,8.2
		c6.5,8.4,12.4,17.1,22,22.9c3.8,2.3,6.3,6.8,9.2,10.4c28.5,34.3,57.6,68.2,85.5,102.9c50.8,63.3,101.9,126.5,149.3,192.5
		c1.9,2.6,3.5,5.5,5.6,9c-9.4,7.5-19.9,11.7-30,16.2c-36.9,16.8-65,43.2-86.6,77.2C7536,4174.8,7532.5,4179.6,7527.7,4186.7z"/>
	<path onclick="modals(this.id);" id="1931" class="st0" d="M4066.9,2394.7c5.4-26,6-50,15.8-72.4c3.4-7.8,4.4-16.7,6.4-25.1c9.3-38.9,18.5-77.8,27.8-116.6
		c1.2-5.2,2.7-10.3,4.4-16.5c4,0,7.9-0.6,11.5,0.1c84.5,15.8,168.9,31.7,253.3,47.6c5.8,1.1,11.5,2.7,18.6,4.3
		c-1.4,24.5-7,47.7-10.8,71.1c-3.9,23.7-7.7,47.3-12,70.9c-4.3,23.6-9.1,47.1-14,72c-4.1,0.4-8.6,1.6-12.9,1.1
		c-27.1-3.1-54.2-6.4-81.3-9.9c-47.6-6-95.2-12.1-142.7-18.2C4110.5,2400.5,4090.1,2397.8,4066.9,2394.7z"/>
	<path onclick="modals(this.id);" id="2908" class="st0" d="M8358.2,3903c-33.4,27.6-65.9,52.8-99.6,77.7c-4-3.8-7.5-6.8-10.5-10.2
		c-52.5-60.2-105-120.5-153.2-184.2c-36.2-47.9-77.2-91.6-114.9-138.2c-6.7-8.2-13.5-16.3-19.4-23.5c0-2.3-0.1-3,0-3.6
		c0.2-0.6,0.6-1.2,1-1.7c0.4-0.5,0.8-1.1,1.3-1.5c32.9-26,65.8-52.1,98.7-78c2.6-2,5.4-3.8,9-6.2c3,2.8,6.2,5.1,8.4,8.1
		c49,63,101.5,123.4,146.1,189.9c3,4.4,6.4,8.5,9.7,12.7c37.7,48.2,75.5,96.5,113.2,144.7C8351.2,3892.9,8354.1,3897.3,8358.2,3903z
		"/>
	<path onclick="modals(this.id);" id="2912" class="st0" d="M7270.3,3816.4c1.1,0.4,1.8,0.5,2.2,0.9c21.9,25.8,44.3,51.3,65.5,77.7
		c10.2,12.7,13.7,28.7,14.6,44.9c0.7,12.6,1.2,25.2,1.9,37.9c0.7,11.4,3.5,22.2,9.7,32c2.4,3.8,4,8.1,6.2,12.8
		c-60.3,54.4-125.2,102-185.1,155.2c-4.4,0.8-6.1-2.5-8.2-4.9c-43.1-50.7-86.1-101.5-129-152.3c-1.2-1.5-2-3.3-3.6-6
		c2-2.3,3.9-4.9,6.3-6.9c70-61.4,140.1-122.7,210.2-184C7264.1,3821,7267.3,3818.7,7270.3,3816.4z"/>
	<path onclick="modals(this.id);" id="2926" class="st0" d="M8028.4,4634.8c42-10.7,78.8-28.5,109.6-55.5c2,0.5,2.7,0.6,3.3,0.8c0.6,0.2,1.3,0.5,1.7,1
		c37.3,46.8,75.2,93.2,111.7,140.6c24.3,31.6,46.8,64.6,70.6,97.6c-1.9,5-3.7,9.9-5.6,14.7c-1,2.5-2.1,4.9-3.3,7.3
		c-17.7,33.2-29.3,68.3-34.9,105.5c-0.7,4.6-2,9.1-3.1,13.6c-0.3,1.2-1.3,2.3-2.8,4.9c-14.2,3.3-29.6,6.9-45.2,10.6
		c-3.8-4-7.1-7.2-10-10.7c-27.1-32.9-53.9-65.9-81.1-98.7c-14-16.9-28.1-33.8-42.8-50c-14.4-15.9-25.8-33.8-36.4-52.3
		c-7.7-13.5-12-28.1-15.2-43.1c-5.4-25.4-10.6-50.7-15.8-76.1C8028.5,4642.4,8028.7,4639.8,8028.4,4634.8z"/>
	<path onclick="modals(this.id);" id="2946" class="st0" d="M7602.5,5768.4c10.1,10.4,125.5,167.3,138.4,188.2c-0.8,1.5-1.3,3.7-2.7,4.8
		c-27.9,22.7-54.1,47.5-84.8,66.6c-9,5.6-18.5,10.6-27.9,15.4c-15.4,7.8-31.2,14.9-46.6,23c-10.2,5.4-21,7.7-32.3,9.4
		c-61.9,9.3-123.7,19.1-185.6,28.7c-2.6,0.4-5.2,0.6-9,1.1c-3.8-3.8-7.9-7.9-12.4-12.3c2.5-3.5,4.3-6.3,6.4-8.8
		c6.9-8.1,14-16.1,21.1-24c28.4-31.8,56.2-64.1,81.5-98.5c14.9-20.4,31.8-39.3,48.2-58.6c31.9-37.6,62.1-76.6,90.3-117.1
		c3.8-5.5,7.9-10.7,12.1-15.9C7599.8,5769.4,7601.3,5769.1,7602.5,5768.4z"/>
	<path onclick="modals(this.id);" id="2909" class="st0" d="M7824.9,3907.7c-1.7-3.1-3.3-5.3-4.1-7.7c-9.1-29.3-29.4-51.9-46.6-76.2
		c-4.2-6-9.6-6.6-15.6-2.3c-8.1,5.8-15.7,12.1-23.9,18.4c-8-5.1-13.1-11.7-18.4-19.5c76.8-63.2,152.8-125.6,228.6-188
		c16.6,13.3,117.8,133.9,158.9,189.1c-2.8,3.1-5.4,6.8-8.7,9.7c-43.8,36.9-87.7,73.7-131.5,110.4c-1,0.8-2.3,1.2-4.7,2.5
		c-2.3-2.4-5.2-4.8-7.2-7.8c-8.3-12.1-15.5-24.8-20.3-38.8c-2.4-6.8-5.6-13.4-8.2-19.4c-8.1-5-14.9-2.1-21.7,0.6
		c-21.6,8.7-43.2,17.4-64.9,25.9C7832.9,3906,7829,3906.6,7824.9,3907.7z"/>
	<path onclick="modals(this.id);" id="1873" class="st0" d="M7168.8,1820.8c1.5,10.6-2.9,19.2-5.3,28c-17,63-39.7,134-46.8,147.9
		c-16.5-1.9-274.8-72-298.7-81.1c0-2.2-0.6-4.9,0.1-7.3c15.8-54.3,31.7-108.6,47.7-162.8c0.7-2.5,2.2-4.7,3.9-8.1
		c25.6,4.7,50.1,13,74.9,19.8c25,6.8,50,13.8,75,20.8c25,6.9,50.1,13.6,75,20.8C7119.4,1806.1,7144.7,1811.8,7168.8,1820.8z"/>
	<path onclick="modals(this.id);" id="2936" class="st0" d="M9222.6,5163.8c27.8-23.5,54.7-46.2,82-69.3c7.3,4.4,11.3,10.5,15.7,16.2
		c27.9,35.7,55.5,71.6,83.6,107.1c67.1,84.5,134.5,168.8,201.6,253.3c12.8,16.1,25,32.8,37.9,49.8c-1.6,2.5-2.6,5-4.4,6.6
		c-21.5,18.9-43.1,37.7-64.7,56.5c-1.4,1.2-3.3,2-5.4,3.2c-6.6-2.6-9.8-8.8-13.8-13.8c-41.3-50.5-82.5-101.2-123.8-151.8
		c-18.9-23.2-37.9-46.4-56.8-69.7c-4.6-5.6-10.1-10.6-10.8-18.7c-0.2-2-2.9-4.9-5-5.4c-5.9-1.3-8.9-5.7-12.2-9.8
		c-40-49.1-79.9-98.2-119.8-147.3C9225.5,5169.3,9224.7,5167.4,9222.6,5163.8z"/>
	<path onclick="modals(this.id);" id="2913" class="st0" d="M7380.1,4034.9c10.5,10.3,20.8,18.9,29.2,29c33.1,40,65.5,80.5,98.1,120.8
		c3.7,4.6,7.1,9.5,10.9,14.6c-2.4,8.2-8.3,13.8-12.7,20.3c-4.1,6-8.6,11.8-13.2,17.5c-28.8,35.3-63,64.6-100.6,90.4
		c-18.7,12.8-37.7,24.7-60.2,32.8c-3.1-2.9-6.6-5.7-9.7-8.9c-23.1-24.9-43.7-51.9-64.3-78.8c-20.6-26.9-41.9-53.3-63.5-80.5
		c9.9-11.5,20.9-22,32.7-31.6c19.1-15.5,38.4-30.8,57.4-46.5c24.6-20.3,49-40.9,73.6-61.3
		C7364.5,4047.1,7371.3,4041.9,7380.1,4034.9z"/>
	<path onclick="modals(this.id);" id="2921" class="st0" d="M8477.8,4281.5c-67.3,55.8-133.8,111-199.5,165.4c-6.6-0.6-7.6-4.9-9.3-8.2
		c-7.1-12.8-13.6-26-20.8-38.7c-8.8-15.6-18.3-30.9-27.2-46.5c-8.9-15.6-17.5-31.4-26-47.1c-5.7-10.5-11.2-21.2-16.8-31.8
		c-3-5.8-6-11.7-9.4-18.2c37.3-33.8,77.3-63.5,115.8-94.1c-4.4-16.4-16.4-25.2-23.2-38.7c2.3-2.4,4.5-5.6,7.5-7.8
		c15.4-11.4,31.1-22.6,47.5-34.6c16,15.5,27.7,33.2,41,49.5c13.5,16.5,26.8,33.1,40.3,49.6c13.5,16.5,27.2,32.8,40.5,49.5
		C8451.4,4246.5,8464.8,4263,8477.8,4281.5z"/>
	<path onclick="modals(this.id);" id="2920" class="st0" d="M8632.7,4243.7c-15.8,16.7-85.5,76-99,84c-86.7-111.9-178.9-219.7-264-332.8
		c0.3-1.5,0.2-3.3,1-3.9c31.8-25.2,63.7-50.3,95.1-75.1c7.5,1.5,10.4,7.2,14.4,11.4c45,47.5,84.2,99.6,124.4,151.1
		c41.4,53.1,82.9,105.9,124.4,158.9C8630.1,4238.9,8630.9,4240.7,8632.7,4243.7z"/>
	<path onclick="modals(this.id);" id="1864" class="st0" d="M6508.1,1622.3c12.4-38.3,24.2-74.8,35.8-110.7c7.3-3.2,12.8-0.1,18.4,1.4
		c43.5,12.4,86.9,25,130.4,37.2c7.5,2.1,14.9,6.3,24.2,3.1c11.4-16.2,11-38.9,25.8-54.9c3.6,0.5,6.9,0.5,10,1.4
		c51.7,14.8,103.3,29.7,154.8,44.5c-1.4,15.9-41,154.7-49.1,172.9c-1.3,0.3-2.7,1-3.8,0.8c-108.5-29.3-217-58.6-325.4-88
		C6522.8,1628.2,6516.7,1625.4,6508.1,1622.3z"/>
	<path onclick="modals(this.id);" id="2927" class="st0" d="M8445.8,4494.7c-4.4,3.9-7.7,7.1-11.2,10.1c-27.6,23-55.3,46-82.9,69c-2.6,2.1-5.3,4.1-7.8,6.3
		c-7.6,6.9-8.4,10.4-2.6,18.9c13.5,19.8,27.3,39.4,41,59c6.8,9.8,13.6,19.5,20.9,30c-21.3,36.2-42.2,71.7-63.2,107.1
		c-1.6,2.7-3.7,5-5.2,7c-2-0.2-3,0-3.2-0.4c-55.6-78.1-116.3-152.4-175.2-227.9c-1.1-1.5-1.6-3.4-3.5-7.6c2.2-1.5,5.2-3.1,7.8-5.2
		c67.6-55.1,135.2-110.2,202.8-165.3c0.9-0.7,2.5-0.7,3.7-1C8382.4,4408.8,8430.2,4469.5,8445.8,4494.7z M8340.1,4534.4
		c-2.3-1.4-3.6-2.4-5.1-2.8c-0.5-0.1-2.3,1.7-2.1,2.3c0.4,1.5,1.6,2.8,2.4,4.2C8336.7,4537,8337.9,4536,8340.1,4534.4z"/>
	<path onclick="modals(this.id);" id="1935" class="st0" d="M5764,1896.2c-65.4,66.7-131.7,131.2-196.8,196.9c-3.2,3.2-7.3,5.4-11.6,8.5
		c-5.1-5.5-9.9-10-13.9-15.2c-11.1-14.3-26.1-22.3-43-27.5c-13.4-4.1-26.8-7.9-40.2-12c-5-1.5-9.9-3.6-15.1-5.5
		c0.8-9.4,2.5-17.6,7-24.9c14.2-0.3,26.2,8.3,41,6.2c1.5-3.2,3.6-6.5,4.6-10.2c13.7-47.3,27.3-94.7,40.7-142.1
		c5.5-19.4,4.8-20.1-15-26.5c-6.3-2-12.5-4.1-19.9-6.5c0.4-13.8,6.2-25.9,9.6-38.4c3.3-12.1,7.1-24,10.9-36.7
		c5.8,1,10.3,1.4,14.7,2.6c29.5,8.1,59.1,16.1,88.5,24.8c10.1,3,19.7,7.8,29.5,11.9c3.7,1.6,6.9,4,10.6,5.6
		c28.8,12.3,51.2,33.1,73.1,54.7C5748.4,1871.8,5756,1883.4,5764,1896.2z"/>
	<path onclick="modals(this.id);" id="2975" class="st0" d="M7291.5,6760.3c3.5,3.7,7.3,7.4,10.8,11.4c47.3,55,96,108.6,147.4,159.8
		c26.9,26.7,52,55.2,77.8,82.9c3.1,3.3,5.6,7.1,9.1,11.5c-5.2,2.3-9.3,4.4-13.5,6c-16.8,6.5-33.5,12.8-50.3,19.1
		c-8.2,3.1-16,6.6-20.9,14.5c-3.3,5.3-8.1,8.6-13.8,10.9c-9.2,3.8-18.2,8.2-27.4,12c-12.9,5.3-26.1,10-37.2,18.9c-2.4,2-5.9,2.6-9,4
		c-7.9-5.2-14-11.1-15.3-20.3c-1.1-7.8-6.2-13-10.8-18.7c-33.3-41.4-66.5-83.1-99.9-124.4c-6.2-7.7-8.9-16.1-9.7-25.6
		c-1-11.9-1.9-23.8-3.4-35.7c-1-7.6,0.6-14.4,4.1-21.1c15.6-30.1,31-60.3,46.4-90.6C7279.1,6768.4,7283.4,6762.8,7291.5,6760.3z"/>
	<path onclick="modals(this.id);" id="2954" class="st0" d="M7579.2,6081.8c16.6-8.3,30.6-16,45.2-22.2c27.2-11.6,51.4-28,74.2-46.6
		c17-13.8,34-27.8,51.3-42.1c7.7,4.5,11.4,11.7,16,18c40.3,54.7,80.5,109.5,120.7,164.3c13.8,18.8,27.5,37.6,41.3,56.5
		c-4.5,13.3-22.8,45.4-37.1,64.7c-9.3-11.4-17.5-23.2-24.4-35.8c-8-14.6-15.8-29.3-23.9-43.8c-8.7-15.5-10.3-15.9-26.2-6.5
		c-9.7,5.8-19.5,11.5-29,17.7c-27.4,18.1-57.3,31-87.4,43.8c-1.7,0.7-3.8,0.7-7,1.3C7658.6,6193.7,7619,6139.6,7579.2,6081.8z"/>
	<path onclick="modals(this.id);" id="1938" class="st0" d="M5873.5,2043.7c-10.7,8.9-20.9,17.4-31.2,25.9c3.3,18.4,20.7,26.6,26.4,41.9
		c-11.6,11.9-144.2,111.3-159.1,119.5c-13.1-11.4-80.6-100.1-110.7-145.7c0.6-6.6,6.3-9.8,10.3-13.9c37.7-37.6,75.5-75,113.3-112.5
		c14.2-14,28.2-28.2,42.3-42.3c2.3-2.2,4.9-4.1,6.7-5.6c2,0.2,2.6,0.2,3.2,0.4c0.6,0.2,1.2,0.6,1.6,1.1
		c31.9,41.8,63.7,83.6,95.5,125.4C5872.6,2039,5872.6,2040.5,5873.5,2043.7z"/>
	<path onclick="modals(this.id);" id="2922" class="st0" d="M8262.4,4458.1c-2.3,2.5-3.8,4.7-5.8,6.3c-48.1,39-96.2,78-144.5,116.7
		c-24.9,19.9-53.9,32.5-87.2,39.3c-5.8-11.1-6.9-23.7-9.5-35.8c-2.7-12.3-4.6-24.7-6.8-37.1c10.3-7.4,21.2-10.6,31.5-15
		c17.5-7.5,31-20.6,45.9-31.6c4-3,4.3-8.4,1.2-12.6c-3.2-4.3-6.9-8.1-10.3-12.2c-20-24.1-40-48.1-59.8-72.3
		c-3.8-4.6-7.1-9.6-11.4-15.4c49-41.7,99.3-81,149.7-121.8c2.9,3.7,5.9,6.4,7.5,9.7c27.1,56.5,62.4,108.4,91,164
		C8256.7,4446,8259.4,4452,8262.4,4458.1z"/>
	<path onclick="modals(this.id);" id="2914" class="st0" d="M7544,4188.6c7.2,4,11.9,4.3,15.1-3.2c-1.8-2.6-4-5.6-6.6-9.3c26.3-43.5,66.8-68.3,114.2-86.4
		c23.5,29.3,46.6,58.3,69.9,88.2c-4.9,4.4-8.7,8.1-12.7,11.3c-71.6,56.7-141.3,115.6-209.9,175.9c-33.5,29.4-68.7,57.1-103.1,85.4
		c-2,1.6-4.5,2.5-6.6,3.7c-15.9-16.6-55.1-68.3-62-81.6C7426.4,4330.7,7494.5,4270.8,7544,4188.6z"/>
	<path onclick="modals(this.id);" id="2938" class="st0" d="M7045,5373.4c9.3-13.1,18.2-25.6,27.1-38.1c13.6-5.3,27-10.9,40.8-15.7
		c20.9-7.4,53.8-10.5,78.2-7.8c18.9,34.8,38.3,70.4,57.6,105.8c11.1,5.2,22.6,4.8,33.8,5c7,0.1,12.9,1.8,18.4,6.2
		c30.5,24.8,61.2,49.4,91.8,74.1c2,1.6,3.5,3.9,6,6.8c-24.9,32.4-48.2,65.5-75.1,97.5c-4.3-3.1-8.9-4.9-11.2-8.4
		c-5.3-8-12.9-13.4-20.2-19.1c-22.4-17.8-45-35.5-67.5-53.3c-4.1-3.3-8-6.8-13-11c2-3.7,3.9-6.9,5.6-10.3c3.7-7.4,3-10.9-3-15.6
		c-2.1-1.6-4.3-3.1-6.6-4.5c-5.6-3.4-11.2-4-16.5,0.7c-2.4,2.1-5.1,4-7.4,5.9C7162.4,5478.8,7059.9,5391.7,7045,5373.4z"/>
	<path onclick="modals(this.id);" id="2934" class="st0" d="M8923.9,4799.4c10.8-12.5,70.1-62.4,89-75.4c0.7,0,1.3-0.1,1.9,0c0.6,0.2,1.3,0.6,1.7,1.1
		c30.6,38.7,61.2,77.3,91.7,116c2,2.6,3.7,5.4,6.2,9c-3.3,3.5-6,7.1-9.4,9.9c-24.2,19.9-48.5,39.6-72.7,59.5
		c-5.1,4.2-11.2,7.5-13.4,13.9c-0.3,8.7,7.6,12.6,10.6,20.3c-1.1,1.6-2,4.2-3.9,5.7c-31.6,25.5-63.4,51-95.1,76.3
		c-1.5,1.2-3.4,1.8-4.7,2.4c-1.2-0.2-1.9-0.3-2.5-0.5c-0.6-0.3-1.2-0.6-1.6-1.1c-29.5-36.1-59.1-72.2-88.5-108.3
		c-1.7-2-2.8-4.4-4.3-6.7c3.4-7.4,10.3-10.6,16-15c27.3-21.3,54.8-42.4,82.3-63.5c3.2-2.4,6.5-4.7,9.5-7.4c5.1-4.5,6.3-10.5,2.5-16
		C8934.3,4812.6,8928.9,4806,8923.9,4799.4z"/>
	<path onclick="modals(this.id);" id="2945" class="st0" d="M7030.7,5687.3c14.9-8.8,27.9-15.5,39.8-23.7c11.4-7.9,21.7-17.3,33.3-26.7
		c5.8,4.5,11.1,8.3,16.2,12.5c28.8,23.7,56.9,48.3,86.5,71.1c39.1,30.2,75,63.9,112.4,96c5,4.3,9.7,9,15,14
		c-2.1,8-7.9,12.2-14.3,17.5c-6-4.6-12-8.6-17.2-13.5c-7.5-7.1-15.6-9.7-26.4-6c-21.3,27-38.6,58.1-64.7,83.5
		c-3.8-3.3-7.5-6-10.6-9.2c-17.7-18.1-35.1-36.5-52.9-54.5c-4.1-4.1-9.3-7.6-14.6-9.9c-8.7-3.9-11.8-2.5-18.7,6
		c-14.7,18.1-29.4,36.2-44.2,54.2c-3.7,4.5-8,8.7-11.7,12.6c-17.6-6.7-48.4-24.3-59.7-34.1c2.8-3.6,5.4-7.3,8.4-10.7
		c28.3-31.9,56.6-63.8,84.9-95.6c5.8-6.6,6.3-10-0.1-17.1c-12.4-13.9-25.3-27.4-38-41.1C7046.8,5704.8,7039.6,5697,7030.7,5687.3z"
		/>
	<path onclick="modals(this.id);" id="2923" class="st0" d="M8097.2,4839.1c-52.6,42.7-103.2,83.8-153.7,124.8c-2.4-1.2-4.7-1.6-5.8-2.9
		c-21.2-27.3-42.3-54.7-64-83c1.8-3,3.4-5.6,4.9-8.4c2.5-4.5,2.4-8.9-0.6-13.1c-2.3-3.3-4.5-6.6-6.9-9.8
		c-22.4-30.6-44.7-61.3-67.2-91.8c-5.5-7.5-11.5-14.6-17.9-21.3c-6-6.2-8.6-12.9-6.8-22.5c3.6,0,6.8-0.2,9.9,0.1
		c2,0.2,3.9,0.9,5.8,1.5c42.6,13.7,86.5,21.1,130.7,27.1c6.5,0.9,13.1,0.6,19.7,0.7c5.3,0,10.6-0.4,16-0.3c18.7,0.3,37.2,0,55.5-4.6
		c5-1.2,10.4-1,16.6-1.5C8044.9,4774.5,8068.2,4807.2,8097.2,4839.1z"/>
	<path onclick="modals(this.id);" id="2943" class="st0" d="M6832.2,5911.9c2.3-3.8,4.2-7.8,7-11.3c21.1-26.1,36.4-55.6,50.9-85.7c5.1-10.5,4.4-13.4-3.7-21
		c-4.8-4.6-9.8-9.1-15-13.2c-21.2-16.6-37.3-37.9-54.1-58.6c-1.2-1.5-1.9-3.5-3.4-6.3c13.2-15.3,26.7-30.8,40-46.2
		c8.7,2,13.3,8.1,19.1,12.3c10.9,8.1,15.3,8.3,23.9-1c21.7-23.4,43.3-47,64.6-70.8c6.1-6.8,11.2-14.5,17.6-22.8
		c6.2,4.7,11.6,8.6,16.6,12.7c14.5,11.7,28.9,23.6,43.3,35.4c3.1,2.5,6.2,5.1,9.4,7.4c5,3.5,10,3.1,14.8-0.5
		c5.8-4.5,11.4-9.2,17.2-13.6c1.9-1.5,4.2-2.5,8-4.7c-0.8,3.6-0.6,5.9-1.7,6.8c-12.7,11.6-25,23.6-42.2,29.4
		c-10.5,3.6-19.9,10.6-29.5,16.6c-5.2,3.2-6.3,9.1-2.8,13.9c3.5,4.8,7.6,9.2,11.7,13.6c17.6,19,35.4,37.9,53.9,57.7
		c-8.9,14-21,24.4-31.2,36.4c-9.9,11.7-20.2,23.1-30.2,34.6c-10.4,12-20.8,24.1-31.9,37c-15.7-7.5-28.8-17.4-42.1-27.1
		c-13.3-9.6-25-21.7-41.6-28.4c-2.6,3.6-5.3,6.4-7,9.7c-10,18.8-19.1,38.1-29.9,56.4c-6.7,11.4-15.9,21.3-24.2,31.7
		c-1,1.2-3.4,1.4-5.1,2C6834,5913.6,6833.1,5912.8,6832.2,5911.9z"/>
	<path onclick="modals(this.id);" id="2958" class="st0" d="M6884,6247.1c1.1,5.9,1.9,9.7,2.8,14.3c-12.3,8.7-28,8.7-41.1,17.2
		c-1.4,15.6,6.8,29.1,11.7,43.2c4.7,13.7,11.2,26.8,16.9,40c-11.5,10.7-88.3,59.2-106.8,67.3c-2.2-1.7-5-3.4-7.4-5.6
		c-12-11.5-23.8-23.3-35.9-34.7c-9.7-9.2-18.3-19.3-25.7-30.4c-5.5-8.4-11.3-16.2-20.7-21c-6.6-3.4-6.7-11.9-0.7-16.5
		c3.6-2.8,8.1-4.3,12.2-6.4c7.2-3.7,9.9-9,7.4-16.2c-1.5-4.4-3.7-8.6-6.1-12.5c-11.4-18.1-15.1-38.2-14.8-59.2
		c0.2-16.6,1-33.3,1.3-49.9c0.2-13.6,5.8-25.6,10.3-37.3c5.5-2.5,8.4,0.8,11.4,3c49.7,37.2,104,67,157.2,98.6
		C6864.3,6245.8,6872.5,6249.4,6884,6247.1z"/>
	<path onclick="modals(this.id);" id="2932" class="st0" d="M8923.2,5062.4c50.6,64.8,100.4,128.7,150.2,192.5c-11.3,12.6-74.9,64.6-111.2,91.1
		c-2.6-2.3-5.9-4.4-8.2-7.2c-35.3-43.4-70.4-86.9-105.6-130.4c-13.8-17.1-27.6-34.2-42-52c2.8-3.1,5-6.3,8-8.7
		c33.8-27.1,67.6-54.1,101.5-81C8917.3,5065.4,8919.2,5064.6,8923.2,5062.4z"/>
	<path onclick="modals(this.id);" id="2933" class="st0" d="M9040.8,4966.4c4.3,5.1,7,8.1,9.4,11.2c27,34.6,53.8,69.5,81.2,103.9
		c10.8,13.5,22.8,26,34.4,38.9c10.6,11.8,20.6,24,30,36.5c-12.3,13.2-95,79.4-110.3,88.4c-4.2-4.8-8.9-9.5-13-14.6
		c-45.8-58.8-91.6-117.6-137.8-177c10-12.7,23.2-20.5,34.8-30.2c11.2-9.4,22.8-18.4,34.2-27.6
		C9015.6,4986.4,9027.6,4976.9,9040.8,4966.4z"/>
	<path onclick="modals(this.id);" id="2957" class="st0" d="M7367.2,6116.7c66.6-10.3,131.5-20.4,195-30.2c2.7,1.9,4.1,2.4,4.8,3.4
		c21.6,31.1,43.2,62.3,64.8,93.5c6.8,9.8,14,19.5,20.6,29.5c7,10.5,13.5,21.4,20,32.2c2,3.3,3.3,7,4.9,10.5
		c-25.1,11.6-114.6,31-146.8,31.6c-0.8-1.1-2.6-3.8-4.6-6.6c-17.8-25.2-40.4-45.8-62.6-67c-31.3-29.8-62.2-60.2-93.2-90.4
		C7369.3,6122.4,7369.1,6120.9,7367.2,6116.7z"/>
	<path onclick="modals(this.id);" id="2925" class="st0" d="M7951.8,4978.1c13.8-14.3,139.5-116.6,155-126.2c14.5,13.8,98,116.3,105.6,129.9
		c-7.9,6.2-17.2,9.9-26.1,14.2c-10.9,5.2-20.7,11.8-29.9,19.6c-17.8,15-36.1,29.4-53.8,44.5c-14.1,12.1-27.7,24.8-41.5,37.3
		c-4.4,4-8.7,8.1-13.7,12.8c-13.7-12.8-22.2-28.6-32.9-42.7c-11.3-14.8-22.1-30-32.6-45.3C7971.9,5007.4,7959.7,4994,7951.8,4978.1z
		"/>
	<path onclick="modals(this.id);" id="2950" class="st0" d="M7115.3,5867.8c4.5-5.8,8.3-10.8,12.9-16.8c12,9.6,21.3,20,31,29.9c29.4,29.9,58.8,59.8,87.9,90
		c11.5,11.9,24.3,22.8,33.3,37c1.4,2.2,2.7,4.5,4.6,7.7c-1.9,2.6-3.5,5.4-5.6,7.8c-1.7,1.9-3.9,3.2-6.8,5.4
		c-4.4-3.8-8.2-7.3-12.2-10.6c-6.8-5.4-13.1-5.2-19.6,0.9c-2.9,2.7-5.3,6-7.9,9c-26.7,30.6-53.4,61.2-80,91.9
		c-5.3,6.1-10.5,11.6-18.8,14.1c-48.3,15.1-95.9,32.2-142.8,51.3c-1.2,0.5-2.6,0.3-4.4,0.5c-3.7-5.4-1.8-11.2-0.1-16.7
		c6.9-23.3,17.8-44.4,33.7-62.9c39.7-45.8,79.4-91.6,119.1-137.4c7.4-8.6,15.1-16.9,22.4-25.6c7.2-8.7,7.5-12.4,1.1-21.2
		c-10.6-14.5-20.9-29.3-34.9-41C7123.8,5877.4,7120.1,5872.8,7115.3,5867.8z"/>
	<path onclick="modals(this.id);" id="2935" class="st0" d="M9124.1,4864.5c13.4,12.7,160.7,199.8,170.9,216.7c-9.3,11-62.6,56.7-82.4,70.4
		c-63.4-67.5-119.6-141.2-175.6-214.7C9047.9,4924.9,9100.3,4881.4,9124.1,4864.5z"/>
	<path onclick="modals(this.id);" id="2966" class="st0" d="M6439.6,6286.8c70.7-4.7,138.3-9.2,206.8-13.7c8.9,22.5,16,44.9,13.7,70.4
		c17.5,6.5,25.8,22,36,35.8c3.9,5.3,8.6,10,13.2,14.8c4.5,4.8,9.3,9.3,13.9,14c-10.6,11.8-74.6,59.3-92.1,68.5
		c-2.8-2.1-6.1-4.1-8.9-6.8c-50.2-48.5-100.4-97-150.5-145.6C6460.9,6313.6,6449.8,6303.3,6439.6,6286.8z"/>
	<path onclick="modals(this.id);" id="2949" class="st0" d="M7285.3,6040.4c3.4-4.6,6.5-8.9,9.7-13.1c7.2-9.7,7.7-13.2,0.5-23.2
		c-6.6-9.1-13.8-17.9-21.5-26.2c-10.9-11.7-22.5-22.7-33.6-34.2c-6-6.1-11.7-12.6-18.1-19.5c21.6-27.2,42.6-53.6,64.3-81.1
		c3.3,1.8,6.8,3.3,9.9,5.4c3.8,2.7,7.2,5.9,10.9,8.8c12.3,9.4,15.9,9,26.9-2.3c4.1-4.2,8.2-8.4,12.2-12.4
		c14.8,9.7,88.8,71.2,105.2,87.3c-10.3,24.8-99.8,130-124.4,150.5C7311.7,6069.3,7299.4,6054.5,7285.3,6040.4z"/>
	<path onclick="modals(this.id);" id="1937" class="st0" d="M5882.4,2102.4c-7.5-9.1-14.6-17.6-22.3-26.9c9-12.8,24.1-18,31.2-29.5
		c-0.2-9-5.5-13.5-9.5-18.7c-28.1-37.2-56.4-74.2-84.5-111.4c-4.4-5.8-8.4-11.8-12.8-18.1c26.5-27.4,53.8-52.4,80.9-79.7
		c22.5,27.1,41.6,54.2,61.8,80.4c19.8,25.8,39.2,51.8,59.5,78.7c19.6-19.3,43.6-23.4,69.1-26.6c-1.2,2.9-1.3,5.2-2.6,6.3
		C5997.6,2006.3,5944.8,2059,5882.4,2102.4z"/>
	<path onclick="modals(this.id);" id="2955" class="st0" d="M7060.1,6277.4c-4.7-7.8-8.1-13.5-12.2-20.3c4.6-2.4,8.2-5,12.3-6.5
		c40.7-14.8,81.4-29.4,122.1-44.1c7.4-2.7,14.6-6,20.8-8.6c2.5-6.7,0.4-10.6-2.9-14.2c-8.1-8.8-16.3-17.6-24.3-26.5
		c-5.8-6.4-11.3-13-16.7-19.3c8.7-13.8,76.8-92.5,91.7-106.3c1.2,0.4,2.8,0.3,3.7,1.1c50.1,47.8,100.1,95.8,150,143.7
		c0.8,0.8,0.8,2.4,1.6,5.1c-7.1,2.7-14.7,4.1-22.3,5.2c-52.1,7.8-103.4,19.7-154.1,33.6c-50,13.8-99.4,30.1-147.7,49.4
		C7075.4,6272.3,7068.5,6274.4,7060.1,6277.4z"/>
	<path onclick="modals(this.id);" id="2967" class="st0" d="M7786.6,6477.6c-28.9,16.1-164.9,48.4-201.6,48.3c-10.3-13.9-31.9-52.8-37.7-68.2
		c19.8-10,42.1-9.5,63.5-14.4c2.7-3.9,5-8.1,8.1-11.4c6.9-7.4,5.1-14.2-0.1-21.5c-8.4-11.9-16.4-24.2-24.2-35.7
		c1.4-6,5.9-5.9,9.5-6.7c8.4-2,16.9-3.6,25.4-5.1c22.3-4,44-10,65.4-17.6c8-2.8,16.2-5.2,24.9-8c10.6,15.1,16.1,31.5,23.7,46.8
		c7.7,15.5,14.7,31.3,22,47C7772.6,6446.6,7780.5,6461.8,7786.6,6477.6z"/>
	<path onclick="modals(this.id);" id="2948" class="st0" d="M6823.1,5956.2c16.3-19.9,33.1-38,46.9-58.2c13.4-19.6,23.7-41.3,35.9-63.1
		c16.6,8.8,29.4,22.5,45,32c15.3,9.4,30.5,18.9,45.9,28c16,9.4,32.1,18.5,49.2,28.3c-1.5,3.1-2.1,5.7-3.7,7.4
		c-30.7,34.9-61.5,69.7-92.4,104.6c-0.9,1-2.1,1.5-3.2,2.3C6922.5,6029.9,6848.5,5981.6,6823.1,5956.2z"/>
	<path onclick="modals(this.id);" id="2942" class="st0" d="M7115,5624.4c10.1-11.7,19.3-23,29-33.8c18.5-20.8,37.3-41.4,56.8-63c3.7,2.5,7.6,4.7,11.1,7.4
		c24.7,19.3,49.5,38.4,73.7,58.2c9.1,7.5,16.8,16.7,26.1,26c-13.3,18-30.1,32.2-44,48.9c-13.6,16.2-27.3,32.4-42,47.2
		C7211.5,5706.9,7131.6,5641.4,7115,5624.4z"/>
	<path onclick="modals(this.id);" id="2968" class="st0" d="M7550.9,6340.6c21.4,25.5,39.3,52.7,56.3,79.2c-2,8.7-6.5,13.1-14,13.8
		c-41.3,4.1-80.2,19.2-120.7,27.2c-5.8,1.2-11.7,2.1-17.6,3.1c-31.8-29.4-55.6-64.3-83.1-97.5
		C7403.7,6356.5,7505.7,6341.9,7550.9,6340.6z"/>
	<path onclick="modals(this.id);" id="2965" class="st0" d="M7006.4,6273.5c4.2,7.8,7.3,13.6,10.9,20.3c-3.7,2.4-6.7,4.9-10.1,6.5
		c-23.5,11-47.1,21.8-70.6,32.7c-3.6,1.7-7.3,3.3-10.8,5.2c-5.5,3-7.7,8.4-4.4,13.3c7.4,11,15.4,21.7,23.6,32.1
		c3.4,4.3,8.3,3.3,12.8,1.2c11.4-5.5,22.7-11,34.1-16.5c18.6-8.9,37.1-17.9,55.8-26.7c2.9-1.4,6.1-2.5,9.1-3.7
		c8.9,3.9,16.2,9.1,23.8,16.5c-19.8,12-40.5,19.2-60.1,28.7c-19.7,9.6-39.8,18.5-59.2,28.6c-19.4,10.2-38.2,21.6-57.3,32.5
		c-19,10.8-38,21.7-58.1,33.1c-17.5-13.9-33.2-28.7-49.4-45.4c4.5-3.6,7.8-6.6,11.5-9c22.5-14.3,45.1-28.3,67.6-42.5
		c5.5-3.5,10.8-7.3,16.2-11c-2.6-16.2-12.5-27.7-17.8-41.1c-5.1-12.8-10.4-25.7-13.1-40.2c9-5.4,18.1-8.5,28.7-9.8
		c7.8,12.3,7.2,27.2,13.7,38.8c7.4,4.8,13.2,0.5,19.1-2.3c22.7-11.1,45.3-22.3,68-33.5C6995,6278.8,6999.7,6276.7,7006.4,6273.5z
		 M6854.4,6424.2c0.5-0.3,1.2-0.5,1.3-0.9c0.2-0.5-0.1-1.2-0.1-1.8c-0.7,0.4-1.4,0.8-2.1,1.2
		C6853.8,6423.2,6854.1,6423.7,6854.4,6424.2z"/>
	<path onclick="modals(this.id);" id="2963" class="st0" d="M7784.8,6355.9c-13.6-2.9-22.6,5.2-34.2,5.9c-8.1-7.5-10.3-19.1-15.7-28.8
		c-5.5-9.8-10.4-19.9-16-30.8c21.6-11.1,42.7-21.7,63.6-32.7c21.1-11.2,42-22.8,64-34.7c2.4,3.3,4.8,6.2,6.9,9.4
		c6.1,9.5,11.9,19.2,18.1,28.6c4.9,7.4,8.9,15.3,8.9,23.9c0,9.3,4,16.6,8,24.2c16.5,31.2,33,62.3,49.4,93.5c3.1,5.9,6,11.8,9.2,18
		c-5,8.3-14.2,6-21.1,11.4c-3.7-5.7-6.8-9.9-9.3-14.4c-18.3-33.2-36.8-66.3-54.6-99.8c-7.6-14.3-12.9-19.6-29-6.9
		c-5.2,4.1-10.8,7.7-16.2,11.6c-5.1,3.7-5.7,8.8-3.7,14.2c1.3,3.7,3.4,7.2,5.2,10.7c16.8,32.5,33.6,64.9,50.6,97.6
		c-7,7.1-16,6.8-24.5,10.2c-12.5-18.1-20.6-37.7-30.7-56.3C7803.8,6392.7,7794.5,6374.4,7784.8,6355.9z M7760.3,6315.3
		c-0.9-0.5-1.8-1.1-2.8-1.4c-0.1-0.1-1.1,1.2-0.9,1.5c0.5,1,1.3,1.8,1.9,2.6C7759.1,6317.1,7759.7,6316.2,7760.3,6315.3z"/>
	<path onclick="modals(this.id);" id="2947" class="st0" d="M6719.3,6041.8c7-9,14.3-17.7,20.9-26.8c5-6.9,4.7-11.5-1.7-17.6
		c-13.5-12.9-27.3-25.4-41.1-37.9c-18.3-16.5-33.6-35.8-50.5-54c4.2-8,9.2-14,16-18.9c6.7,4.1,11,10,15.9,15.3
		c21,23.2,43.2,45.3,66.7,66c4,3.5,8,7.1,12.3,10.2c4.6,3.2,10.8,2.8,14.8-1.1c8.5-8.4,16.7-17.2,24.6-26.1
		c3.5-3.9,3.2-8.7-0.2-12.8c-3-3.6-6.3-6.9-9.6-10.1c-21.3-21.1-42.7-42-64-63.1c-6.6-6.5-13.1-13.2-19.8-19.9
		c2.3-9.7,8.8-14.8,15.5-19.9c35.6,34.9,70.6,69.3,106.3,104.4c-2.9,3.9-5.7,8.3-9.1,12.2c-27.1,31.2-53.9,62.5-81.5,93.2
		c-27.5,30.6-49.1,64.4-61.9,103.7c-0.6,1.9-1.3,3.8-2.2,5.6c-0.6,1.2-1.4,2.2-2.2,3.3c-0.5,0.3-1,0.8-1.6,0.8
		c-0.6,0-1.4-0.1-1.9-0.5c-27.3-22.3-54.9-44.3-81.7-67.2c-12.1-10.3-22.6-22.4-34.2-34.1c3-9.3,6.3-17.6,13.5-25.5
		c5.4,5.1,10.2,9.4,14.8,14c23,23.1,45.7,46.6,71.6,66.6c2.6,2,5,4.4,7.7,6.4c8.7,6.4,13.4,5.6,19.5-3.9
		c5.4-8.4,10.7-16.9,15.6-25.6c3.6-6.5,2.8-11-2.9-16c-10-8.8-20.2-17.4-30.4-25.9c-23.5-19.7-44.7-41.7-65.8-65
		c2.4-8.7,8.7-14.5,15.1-21.7c3.3,2.6,6.4,4.8,9.2,7.4c27.5,26.2,55,52.3,82.3,78.7C6704.5,6040.9,6710,6043.6,6719.3,6041.8z"/>
	<path onclick="modals(this.id);" id="2939" class="st0" d="M7055.4,5630.1c-20.7-16.8-40.7-32.3-59.8-48.8c-17.5-15.1-20.6-11.2-32.1,2.2
		c-16.4,19.2-33.3,38-49.9,57.1c-2.2,2.5-4.1,5.2-6.4,8.3c-16.3-8.4-26.9-21-39.8-31.6c2.5-3.3,3.7-6.4,5.7-7.3
		c10.6-4.3,16.2-13.5,22.3-22.1c14.7-20.6,28.6-41.7,43.6-62.1c19.6-26.8,40-53.2,59.9-79.8c4.7-6.3,10.4-12.1,11.3-20.7
		c0.3-2.4,2.2-4.8,3.7-7c6.8-9.8,13.7-19.5,20.4-28.9c2.4,0.8,3.9,0.9,4.8,1.7c43.7,36.9,87.4,73.9,131,110.9
		c0.8,0.7,0.8,2.2,1.2,3.3c-4.7,3.3-7.4-0.8-10.2-3.1c-27.5-22.1-54.9-44.4-82.4-66.5c-4.7-3.8-9.3-7.7-14.3-10.8
		c-4.3-2.7-9.2-2.4-12.9,1.4c-6.9,7.2-13.8,14.4-20.2,22.1c-3.8,4.5-3.6,10-0.2,14.8c2.3,3.3,5.1,6.2,7.7,9.1
		c17.2,19.5,34.4,38.9,51.6,58.4c3.9,4.4,7.5,9.1,11.7,14.2c-3.2,3.4-5.7,6.2-9.1,9.8c-3.8-2.6-7-4.6-10.1-7
		c-21-16.4-42-32.8-62.9-49.2c-3.1-2.5-6.2-5.1-9.5-7.3c-8.7-5.9-13-5.2-20.4,3.3c-5.7,6.5-11.5,13-16.8,19.8
		c-4.6,5.9-3.9,10.4,1.6,15.8c2.9,2.8,6.1,5.2,9.2,7.7c25.6,21.2,51.3,42.4,76.9,63.7c4.1,3.4,8,6.9,12.4,10.8
		C7070.5,5620.8,7062.7,5623.7,7055.4,5630.1z"/>
	<path onclick="modals(this.id);" id="2953" class="st0" d="M6814.4,5969.3c36.5,33,78.9,55.4,120.5,80.7c-1.1,3-1.4,5.7-2.9,7.5
		c-17.7,20.7-26.5,45.8-34.9,71c-2.1,6.2-4.3,12.3-6.8,19.6c-11.4-3.5-20.1-9.7-29-15c-73.6-44-101.7-63.3-119.5-81.8
		C6748.3,6040.9,6800.6,5981.4,6814.4,5969.3z"/>
	<path onclick="modals(this.id);" id="2964" class="st0" d="M7307,6296.2c64-14.1,124.8-28.1,187.8-30.8c16.3,18.9,31.6,37.9,45.1,59.9
		c-5.6,3.8-11.4,4.3-17,4.6c-56.5,3.7-112,14.6-167.7,24.4c-40,7-78.8,19.2-117.7,30.7c-13.9,4.1-27.4,10-43.5,11.6
		c-4.7-4.9-9.7-10-15.9-16.3c4.6-2.3,7.7-4.5,11.3-5.6c39.3-12.3,78.7-24.4,118.1-36.5c5.7-1.8,11.5-3.5,17-5.6
		c5.3-2.1,7-8.5,3.5-13.2c-2.4-3.2-5.4-5.9-8.1-8.8C7316.5,6306.7,7313,6302.8,7307,6296.2z"/>
	<path onclick="modals(this.id);" id="2972" class="st0" d="M6556.1,6454.3c2.6-7.1,7.4-11.1,14.3-14.8c14,13.4,28.1,26.5,41.6,40.1
		c17.8,17.8,17.6,18,37.8,3.3c22.1-16.1,44-32.4,66-48.6c5.9-4.3,11.9-8.4,18.3-13c8.1,3.8,14.1,9.5,19.6,17.8
		c-3.9,3.2-7.2,6.3-10.8,8.9c-25.9,18.7-52,37.2-77.9,56.1c-14.3,10.4-14.2,13.2-0.9,25.8c4.8,4.6,9.6,9.2,14.7,13.6
		c10.3,8.9,11.8,9.1,22.4,1.8c11-7.6,21.7-15.5,32.5-23.3c20-14.3,40-28.7,60.4-43.2c3.3,2.2,6.2,3.7,8.6,5.8c3.4,3.1,6.4,6.6,9,9.3
		c0.1,6-4.2,7.4-7.2,9.6c-26.5,19-53.2,37.9-79.7,56.9c-14.9,10.7-15,12.5-2.1,25.7c5.6,5.7,11.3,11.3,17,16.9c5,5,10.7,5,16.4,1.6
		c4.6-2.7,8.9-5.8,13.3-8.9c22.8-16.2,45.5-32.5,68.4-48.7c5.4-3.8,10.9-7.3,17.1-11.4c6,5.5,11.3,10.3,17.8,16.3
		c-4.2,3.7-7.3,6.9-10.7,9.4c-24.1,17.8-48.5,35.3-72.5,53.2c-13.9,10.3-27.4,21.1-42.1,32.5c-4.8-4.3-9.4-7.8-13.5-11.9
		c-40.7-41.2-81.8-82.2-121.8-124.1c-16.6-17.4-33-34.8-50.9-50.7C6559.3,6458.7,6557.9,6456.5,6556.1,6454.3z"/>
	<path onclick="modals(this.id);" id="2960" class="st0" d="M7245.8,6230.2c19.9-5.1,35.7-9.8,51.8-13.2c36.5-7.6,73.1-14.3,109.6-21.7
		c10.1-2.1,17.9,0.1,25.2,7.6c14.4,14.8,29.4,29,44,43.5c1.2,1.2,1.4,3.3,2,4.8c-3.2,4.2-7.5,3.2-11.2,3.7
		c-19.1,2.5-38.2,5.2-57.4,7.4c-37.7,4.4-74.3,14-111.2,22.2c-28.5,6.4-56.1,16.6-84,25.3c-22.9,7.1-45.9,13.8-68.4,21.9
		c-10.7,3.8-19.2,3.3-27.2-4.8c-1.8-1.9-3.8-3.6-5.4-5.1c0-6.2,4.8-6.2,8.3-7.3c42.2-14.2,84.5-28.4,126.8-42.5
		c4.4-1.5,8.9-2.8,13.2-4.5c7.8-3.1,9.4-8.9,3.8-15.6C7260.2,6245.2,7254.1,6239.1,7245.8,6230.2z"/>
	<path onclick="modals(this.id);" id="2956" class="st0" d="M6881.4,6234.5c-5-0.7-7.8-0.5-10-1.6c-39.6-18.1-148.5-87.8-175.5-112.3
		c6.6-20.8,18.5-38.8,33.7-56.6c8,3.4,14.2,9.5,21,14.4c7.6,5.4,14.9,11.3,22.6,16.5c7.1,4.9,14.7,9.2,22,13.7
		c7.4,4.6,14.7,9.2,22,13.8c7.3,4.6,14.6,9.3,22,13.8c8,4.9,16,9.6,24,14.4c7.4,4.4,14.7,8.8,22.9,13.7c-1.6,11.8-3.7,22.8-4.5,34
		C6880.8,6209.6,6881.4,6220.8,6881.4,6234.5z"/>
	<path onclick="modals(this.id);" id="2969" class="st0" d="M7042.2,6459.4c-5,17.7,15.6,20.4,14.9,36.2c0.4-0.4-1,2-3.1,3.1c-34,18.3-68,36.4-102.1,54.5
		c-5.8,3.1-11.7,6-18.4,9.5c-15.4-14.9-30.6-29.5-46.8-45.2c4.1-3.2,7.3-6.3,11-8.5c29-17.6,58.1-35.1,87.1-52.6
		c2.8-1.7,5.7-3.5,8.7-4.8c43.5-18.4,86.9-36.8,130.4-55.1c1.8-0.8,3.8-1.1,6.3-1.8c7.3,4.3,13.5,9.8,17.4,19.3
		C7112,6429.5,7076.7,6444.6,7042.2,6459.4z"/>
	<path onclick="modals(this.id);" id="2961" class="st0" d="M7828.2,6197.8c4.7,8.6,8.1,14.9,12.1,22.3c-14.3,10.8-29.8,18.2-44.7,26.6
		c-15.6,8.8-31.7,16.9-47.8,25c-15.4,7.7-31,14.8-46,21.9c-2.8,12.3,8.3,18.6,10,29.6c-11.5,8.6-26.5,9.8-39.7,14.9
		c-14.1,5.5-29.4,8.3-44.3,11.7c-14.2,3.3-28.6,5.8-44.1,8.9c-14.2-18.2-28.8-35.9-40.9-57.7c17.1-3.3,32.7-5.8,48-9.2
		c33.1-7.5,66.6-13.6,98.9-23.8c33.6-10.6,65.6-25.7,95.8-44.3C7799,6215.4,7812.7,6207.2,7828.2,6197.8z"/>
	<path onclick="modals(this.id);" id="2951" class="st0" d="M7105.2,5881.6c9.3,4.2,13.7,11.9,21.3,17.8c-3.8,5-6.6,9.3-10,13.1
		c-33.1,37.4-66.4,74.6-99.4,112c-11.9,13.5-23,27.7-35,41c-21.1,23.2-32.8,51.5-44.4,79.8c-6.6,16.1-9.3,33.3-9.7,50.7
		c-0.1,5.3-0.6,10.5-0.9,15.9c-8.6,7.4-19.1,9.6-29.1,15.1c-5.5-9.6-4.9-19-3.8-27.8c4.9-38.6,16.1-75.6,33.7-110.2
		c6.8-13.5,17-25.5,26.9-37.1c48-55.3,96.4-110.3,144.7-165.3C7100.8,5885.2,7102.4,5884,7105.2,5881.6z"/>
	<path onclick="modals(this.id);" id="2940" class="st0" d="M7184.8,5518.9c-2.1,4-3.4,8.6-6.3,11.8c-13.5,14.7-27.4,29-41.2,43.5
		c-8.6,9.1-18.6,16.8-23.7,29.1c-1.9,4.5-6.9,7.7-11,12c-8.2-5.5-16.4-10.1-23.4-16c-30.4-25.7-60.5-51.9-90.6-77.8
		c5.7-8.9,5.7-8.9,15.1-14.4c5,3.7,10.4,7.5,15.6,11.6c18.9,14.8,37.7,29.6,56.6,44.4c3.1,2.5,6.2,5.1,9.5,7.2
		c7.2,4.7,12.1,4.4,17.9-1.4c5.1-5.2,9.9-10.8,14.5-16.5c3.8-4.7,4-9.9,0.3-14.7c-3.6-4.8-7.6-9.3-11.5-13.8
		c-19.9-22.4-39.8-44.8-59.5-67c0.9-8,6.9-11.4,11.9-16.9c4.1,2.7,8.1,4.9,11.6,7.7c27.5,22.1,54.9,44.4,82.4,66.6
		c3.1,2.5,6.2,5,9.3,7.5c5.4,4.3,10.6,4.7,16.3,0.3c1.9-1.5,4.5-2,6.9-2.9L7184.8,5518.9z"/>
	<path onclick="modals(this.id);" id="2952" class="st0" d="M6970.6,6193c-3.6,2.1-7,4.2-10.5,5.9c-4.8,2.3-9.7,4.3-14.7,6.2c-1,0.4-2.5-0.3-4.2-0.6
		c-2.7-19,2.4-36.9,9.2-54.3c11.9-30.6,27.3-59,49.5-83.8c43.6-48.6,86.5-97.8,129.7-146.7c1.7-2,3.8-3.6,6.1-5.8
		c8.5,3.2,10.8,11.3,16.9,17.3c-3.9,5-6.9,9.1-10.3,13c-44.1,50.8-88.2,101.6-132.2,152.5c-14.5,16.8-25.7,35.7-32.1,57.1
		c-2.4,8.2-3.7,16.8-5.3,25.2C6971.7,6183.5,6971.3,6188.1,6970.6,6193z"/>
	<path onclick="modals(this.id);" id="2970" class="st0" d="M6732.4,6573.9c4.4-3.6,8.2-7,12.4-10c24.3-17.4,48.7-34.7,73-52.1
		c17.9-12.8,17.9-13.8,2.9-29.8c-1.2-1.3-2-3.1-2.9-4.7c3.2-2.7,5.1-0.3,7,1.3c3.6,3,7,6.1,10.4,9.3c5,4.7,10.6,5.3,16.5,2.3
		c4.2-2.1,8.1-4.5,12.1-6.8c33.5-19.1,66.9-38.2,100.5-57.3c4.5-2.6,9.3-4.7,14.8-7.5c4.4,4.7,8.3,8.9,13,13.9
		c-7.7,7.5-15.7,12.9-24,17.9c-36.5,21.8-73.1,43.4-109.5,65.6c-12.5,7.6-24.3,16.3-36.2,24.7c-17.9,12.6-35.7,25.5-53.6,38.2
		c-5.9,4.2-12,8.1-18.4,12.5C6743.6,6586.1,6737,6582,6732.4,6573.9z M6706,6524.1c24.3-17.4,48.7-34.7,72.9-52.2
		c7.4-5.4,14.8-10.4,25.3-9.4c-11-14.7-11-14.7-24.8-22.4c-35.5,24.5-70.7,50.3-106.1,76c4.2,8.8,11.5,12.5,17.7,18.2
		C6696.2,6530.7,6701.2,6527.6,6706,6524.1z"/>
</g>
</svg>
