<?xml version="1.0" encoding="utf-8"?>
<!-- Generator: Adobe Illustrator 19.0.0, SVG Export Plug-In . SVG Version: 6.00 Build 0)  -->
<svg version="1.1" id="Layer1" xmlns="http://www.w3.org/2000/svg" xmlns:xlink="http://www.w3.org/1999/xlink" x="0px" y="0px"
	 viewBox="0 0 6600 3300" style="enable-background:new 0 0 6600 3300;overflow: hidden; display: inline; width: inherit; min-width: inherit; max-width: inherit; height: inherit; min-height: inherit; max-height: inherit;" xml:space="preserve">
<style type="text/css">
	.st0{fill:#8FD4EB;stroke:#000000;stroke-width:3;}
</style>
<g>
	
	<path onclick="modals(this.id);" id="898" class="st0" d="M3911.2,1661.3c6.8,13.9,12.2,27.6,20,39.9c20.1,32.1,30.3,68.3,45.3,102.6
		c4.8,10.9,8.5,22.2,13,34c1.7-0.5,4.1-1.2,6.7-1.9c6.3,5.3,12.9,10.7,19.9,16.5c-10.5,14.3-20.6,27.8-30.5,41.5
		c-21.4,29.8-47,56.1-70.9,83.8c-34.8,40.3-70,80.1-105.1,120.1c-12.7,14.5-25.6,28.8-38.2,43.5c-2.7,3.2-5,7-6.6,10.9
		c-15.5,37.2-27.9,75.5-39.5,114c-5.8,19.1-11.5,38.2-16.9,57.4c-1.8,6.3-2.9,13-3.2,19.6c-1.1,23.4-6.2,46.1-10.8,68.9
		c-2.1,10.4-5.5,20.5-8,30.8c-4.5,18.4-8.6,36.9-13.1,55.3c-3.5,14.2-6.1,28.9-11.6,42.2c-5.8,14-14.6,26.8-22.5,39.9
		c-9.6,16-19.3,31.9-29.4,47.5c-4.7,7.4-6,15.3-6.4,23.7c-0.8,16.4,0.6,32.6,3.7,48.6c0.6,3.3,1.4,6.6,2.8,9.6
		c8,18.1,11.6,37.3,15.1,56.6c2.4,13.1,2,25.4-1.6,38.3c-9.2,33.7-17.4,67.6-26.2,101.4c-0.8,3.1-2.4,6.2-4.4,8.6
		c-61.7,75.9-123.5,151.7-185.3,227.5c-15.7,19.3-31.3,38.9-47.7,59.4c-4-1.7-8.5-2.9-12.2-5.2c-22.5-14.3-45.5-27.6-69.9-38.4
		c-12.8-5.6-25-12.4-37.4-19.1c-19.2-10.3-39.2-17.9-60.6-22.6c-8.3-1.8-16.5-5-24.4-8.5c-26.9-11.6-53.4-24-80.4-35.3
		c-5.9-2.5-13-2.9-19.6-2.7c-11.3,0.4-21.4-3-32-5.9c-17.9-5-29.8-15.7-39.4-31c-4.7-7.5-8.1-15.2-11.1-23.3
		c-8.2-22.2-15.6-44.6-24.6-66.4c-10.7-25.7-27.2-46.8-51-62.4c-20.6-13.5-40.2-28.5-60.4-42.6c-6.7-4.7-12-10.4-16.5-17.1
		c-5.8-8.6-11.8-17-20.7-22.7c-8.9-5.7-14.7-14.2-20.9-22.5c-10-13.4-22.4-23.4-39.4-26.6c-16-2.9-31.9-6.3-48-8.6
		c-3.8-0.6-8.5,1.3-12,3.4c-14,8.3-27.6,17.3-41.7,25.6c-8.3,4.9-16.7,9.9-25.6,13.2c-15.5,5.7-29.3,14.3-42.5,23.8
		c-6,4.4-10.6,10.9-15.2,17c-4.5,6-9,9.6-17.4,8.2c-7.5-1.2-15.3-0.4-23-0.2c-7.1,0.1-11.5-2.4-14.1-9.7
		c-4.6-12.5-9.9-24.7-15.8-36.6c-3-6.1-7.4-12-12.3-16.7c-14.2-13.5-23.9-30.1-33.8-46.7c-0.8-1.4-1.7-2.9-2.1-4.5
		c-6.4-23-12.7-46.1-19.1-69.2c-0.8-2.8-1.7-5.7-3.2-8.3c-6.8-12.2-13.7-24.4-20.9-36.3c-1.8-2.9-4.9-5.2-7.8-7.2
		c-2.4-1.7-5.6-2.2-8.1-3.8c-7.6-4.6-15.2-4.5-23.9-3c-18.5,3.3-36.3,0.9-51.8-10.9c-1.6-1.2-3.8-2.5-4.1-4
		c-1.9-9.6-5.5-19.1-2.6-29.2c3-10.5,9.3-19.1,14.6-28.2c10.6-18.1,20.9-36.3,31.2-54.6c2-3.5,3.9-6.9,1.6-11.2
		c-10.6-20.2-7.1-41.6-3.9-62.4c3.5-22.6,9.6-44.8,13.6-67.3c2.7-15.3,4.7-30.7,3.3-46.4c-1-10.5-0.6-21.4,0.7-31.9
		c0.6-4.7,4.4-9.6,8-13.2c5.1-5.1,11.2-9.5,17.2-13.6c6.2-4.2,9.9-9.8,11.2-16.9c1.4-7.2,5-12.6,10.2-17.7c9.6-9.4,17-20.4,22-33
		c7.9-20.1,17.4-39.6,21-61.2c0.4-2.6,1.4-5.2,1.2-7.8c-0.9-19.3,5.3-37.4,9.4-55.9c0.7-3,2.7-6.2,5-8.3
		c7.3-6.8,14.9-13.3,22.6-19.5c2.5-2,5.9-2.9,9-3.9c12.6-4.2,25.2-8.3,38.1-12.6c1.4-12.2,2.5-23.7,3.9-35.2
		c2.8-21.4,9.8-41.5,21.8-59.4c9.5-14.1,13.7-30.2,20-45.5c2.8-6.7,6.9-7.9,13.2-9.6c14.5-3.9,24.8,1.4,34.4,11.4
		c4.1,4.3,9.1,7.6,14.5,12c6.5-5.3,14.1-9.3,18.3-15.5c4.7-6.9,6.1-16,3.5-24.8c-0.4-1.3-1.1-2.5-1.8-3.6
		c-10.5-16.8-14.4-35.6-17.2-54.8c-0.5-3.5-0.7-7.5,0.4-10.8c4.5-13.9,8.4-28.2,14.6-41.3c3.8-8.1,11.4-14.4,17.6-21.2
		c2.2-2.4,5.3-4.1,8-5.9c10.4-6.8,19.4-15,27-24.9c6-7.9,5.3-14-3.2-19.6c-6.9-4.6-14.3-8.7-20.6-13.9
		c-13.7-11.4-26.2-24.1-29.6-42.4c-2.7-14.2-9.9-23.6-22.6-30.4c-6.8-3.6-12.4-9.9-17.4-16c-11.4-13.8-25.2-24.6-40.2-33.9
		c-8.6-5.3-16.6-10.8-22.5-19.1c-8.5-12.1-19-22.3-31.6-30c-13.6-8.3-22.7-21.3-33.5-32.5c-1.8-1.9-3.5-4.3-5.7-5.4
		c-12.5-6.1-25.1-12.2-37.9-17.7c-4.1-1.8-7.5-3.7-10.1-7.5c-4.3-6.4-8.8-12.5-13.2-18.8c-6.7-9.6-6.8-10-17.5-6.8
		c-6.1,1.8-11.4,0.8-17.4-0.8c-24.2-6.6-45.2-19.1-65-34c-6.9-5.1-13.8-10.3-20-16.3c-15.3-14.8-18.1-35.2-21.6-54.6
		c-3.2-18.2-4-36.9-6.2-55.4c-1.3-11.4-4.9-22.3-11.7-31.4c-21.8-29.4-33.2-60.7-40.2-87.6c6.5-6.2,13.2-13,20.4-19.3
		c2-1.8,5.5-2.4,8.4-2.7c23.1-2.4,46.3-4.3,69.4-6.9c8.5-1,17-2.8,25.2-5.2c16-4.7,31.6-10.3,47.6-15.1c6.6-2,11.9-5.5,17-9.9
		c15.6-13.5,31.5-26.7,46.9-40.3c8-7,15.7-14.4,22.6-22.5c8.1-9.5,16.8-17.9,27.3-24.6c5-3.2,8-7.5,9.9-13.1
		c4.3-12.6,9.1-25,13.7-37.5c0.9-2.5,2-5,2.3-7.6c2-17.4,13.5-26.5,28.5-32.2c22.8-8.7,23.3-8.2,37.6-28.4c8.8-12.4,16-26,23.8-39.1
		c0.7-1.1,1.2-2.4,1.4-3.7c0.9-6-11.1-20.2-17.4-20.5c-4-0.2-8,0-12,0c-3.6,0-7.3,0-11.7,0c-6.4-11.2-8.2-23.5-6.9-36.8
		c1.3-12.5,0.9-25.3,2.2-37.8c1.8-17.1,4.1-34.3,7.3-51.2c1.3-7,5.8-13.3,8.8-19.9c8-17.5,16.1-35,24-52.6c0.9-1.9,1.5-4.9,0.5-6.4
		c-5-8.1-10.4-15.9-16.1-24.4c-12.2,8.3-22.7,16.7-30.5,27.4c-10.5,14.3-26.3,19.8-40.8,27.8c-2.3,1.2-5.9,0.5-8.8,0
		c-19-3.3-38-6.8-55.5-15.4c-4.5-2.2-7.9-1.2-12,1.2c-12.5,7.2-23,16.8-33.9,26.1c-17.4,14.9-35.9,28.6-54,42.7
		c-12.3,9.6-24.9,18.9-37,28.8c-3.4,2.8-6.6,6.8-8.1,10.9c-5.6,14.9-10.8,30-15.5,45.3c-2.3,7.4-5.8,13.8-10,20.3
		c-9.8,15-22,26.1-39.5,31.4c-7.5,2.3-14.2,7.3-21.3,10.9c-11.6,5.9-23.1,11.8-34.8,17.4c-4.4,2.1-7.9,4.8-10.1,9.2
		c-0.4,0.9-1.1,1.7-1.5,2.6c-9.1,18.9-24.7,31.7-41.2,43.8c-3.2,2.3-6,3.1-10.1,2.1c-11.3-2.9-22.8-4.9-34.1-7.6
		c-5.4-1.3-10.3-1.5-15.6,0.5c-5.9,2.2-12.3,3.2-18.1,5.5c-5.3,2.1-7.8,0.1-10.4-4.2c-8.7-14.2-8.7-14.1-2.6-29.8
		c2.6-6.8,4.8-13.8,6.2-20.9c1.6-8.6,3.2-16.9,8.7-24.1c1.6-2.1,2-5.5,2-8.3c-0.1-4.6-1.1-9.1-1.8-14.3
		c12.4-8.4,24.7-16.9,37.1-25.2c13.8-9.3,27.8-18.3,41.5-27.9c3.9-2.8,7.3-6.7,10-10.8c4.9-7.5,8.5-15.9,13.8-23.1
		c8.4-11.5,17.5-22.6,26.9-33.3c2.4-2.7,6.8-3.9,10.6-4.9c19-4.9,38-9.7,57.1-14.2c5.9-1.4,9.9-4.4,13.4-9.3
		c17.4-25.2,35.1-50.2,52.7-75.3c7.4-10.5,12.3-22,14.1-34.8c1.4-9.5,1.7-9.5,10.4-11c14.7-2.6,29.4-5.2,44.2-7.5
		c5.8-0.9,10.5-3.3,15.2-6.8c18.4-13.8,36.1-28.2,51.5-45.6c16-18.1,36.6-30.9,55.7-45.2c21.8-16.4,44.4-31.8,67-47
		c6.5-4.4,14.3-6.9,21.8-9.6c30.7-11,61.6-21.3,92.2-32.6c12.7-4.7,25.7-3,38.5-3.7c21.6-1.2,43.2-1.4,64.8-2.2
		c16.3-0.6,32.5-1.3,48.8-2c29.2-1.2,58.4-2.6,87.6-3.7c9-0.3,17.9-0.1,28.1-0.1c3.1,7.8,7.7,15.8,9.3,24.3c1.4,7.2,0,15.3-1.6,22.6
		c-1.3,5.8,0.3,9.3,4.1,13.2c8,8.4,15.7,17.2,23.3,26c3.3,3.7,6.4,4.5,11.3,2.6c16-6.3,30.9-14,41.8-27.8c4.1-5.2,9.5-8.1,16.1-8.9
		c2.3-0.3,4.5-1,6.8-1.5c28.9-6.5,28.9-6.4,58.4,0.9c5.2,1.3,8.6,3.7,12.1,7.7c11.1,12.6,18,27,21.1,43.3c1.7,9,6,16.6,11.8,23.8
		c13.8,17.1,26.9,34.7,40.7,51.8c9.9,12.3,17.2,26.1,23.6,40.4c7.1,15.9,19,26.9,33.4,36c3.2,2,5.9,2.1,9.3,0.5
		c22.8-10.9,45.8-21.4,68.5-32.6c4.6-2.3,8.4-6.5,11.9-10.3c3.9-4.3,8.2-6.4,14-6.2c29,1.1,57.6-4,86.4-6.2
		c10.8-0.8,21.9-0.4,32.7,1.2c12.9,1.9,24.3-1.8,35.8-6.2c8.4-3.2,16.4-7.3,19.5-17.1c0.6-1.9,2.8-3.6,4.7-4.9
		c4.1-2.9,8.2-5.8,12.6-8c11.7-5.9,15.5-17.4,21.7-27.6c-10.3-7.2-20-13.6-29.2-20.6c-12.7-9.6-25.1-19.5-36.3-31.1
		c-9.6-9.9-22.5-16.5-33.2-25.4c-14.9-12.2-29.1-25.2-45-39c31.8-22.2,62.2-43.4,93.2-65.1c6.9,7.5,13.6,14.8,20.2,21.9
		c27-7.7,53.1-15.2,79.3-22.8c1.9-0.5,3.8-1.3,5.5-2.3c15.9-9.8,33.5-14.7,51.9-16c17.8-1.2,33.4-7.5,48.7-16.1
		c6.9-3.9,14.2-7.4,21.8-9.8c10.4-3.4,19.1-9.1,26.9-16.5c0.5-0.5,0.9-1,1.4-1.4c6.1-5.2,13-9.7,17.9-15.8c4.8-6,7.6-13.8,11.3-20.9
		c5.9-1.6,10.1,0.4,14.2,5.4c28.3,34.4,57,68.5,85.5,102.8c1,1.3,1.8,2.8,3.1,4.9c-27.9,19.5-55.7,38.8-84.2,58.7
		c1.8,3.2,3.5,6.4,5.3,9.4c39.3,62.6,78.6,125.2,117.9,187.8c4.3,6.8,9.2,13.1,12.9,20.2c4.9,9.4,11.6,15.6,22,18.5
		c7.7,2.1,10.3,11.4,6,18.1c-0.8,1.3-1.5,2.8-2.6,4.8c3,1.1,5.3,1.9,7.6,2.8c0.1,0.6,0.5,1.3,0.4,1.9c-1.5,4.7-1.6,8.5,0.5,13.7
		c3.1,7.8,3,16.9,4.2,25.4c2,14.8,3.8,29.6,6.3,44.4c0.6,3.6,2.9,7.5,5.5,10c11.7,10.9,23.4,21.8,32.4,35.2c2,3,4.5,6.1,5.3,9.5
		c2.2,9,7.7,15.2,15,20.3c1.9,1.3,3.5,3.2,5.5,4.3c17.9,9.1,15,26.3,16.2,41.8c0.1,1.6-1.2,3.8-2.5,5.1
		c-16.4,16.6-32.2,33.7-52.6,45.8c-5.4,3.2-10.4,4.7-16.7,3.6c-21-3.4-42-6.3-63.1-9.3c-5.2-0.7-10.5-1.1-16.2-1.7
		c-17.7,31.3-35.1,62.2-52.7,93.4c24.4,31.4,48.5,62.3,72.9,93.7c-5.1,5.8-9.4,11.3-14.3,16.1c-7.6,7.4-15.6,14.3-23.3,21.6
		c-6.1,5.7-13.5,8.4-21.5,9.5c-23.3,3.3-44.6,13-66.7,20.4c-3,1-5.9,3.2-8.1,5.6c-8.7,9-20.2,12.6-31.5,16.5
		c-2.2,0.8-5.4,0.5-7.5-0.5c-7.9-3.5-15.6-7.3-23.2-11.4c-4.9-2.7-9.4-6.2-14.2-9.4c-14.1-9.4-14-9.3-30.2-6.3
		c-10.9,2-21.2,5.2-30.7,11.2c-12.8,8.1-26.7,13.3-42,14.1c-7.6,0.4-13.9,3.3-19.5,8.8c-5.4,5.3-11.6,9.9-18.2,15.4
		c3.7,8,6.9,15.9,10.9,23.4c1,2,3.9,3.6,6.2,4.1c22.6,4.8,45.3,4.9,68.4,3.5c25.5-1.5,50.4,3,71,20.3c22.3,18.8,44.6,37.7,67.6,57.1
		c-0.7,0.9-1.4,1.9-2.2,2.7c-14.3,13-28.5,26-42.9,38.9c-5,4.4-10.6,8.1-15.7,12.3c-10.3,8.4-20.4,17.1-30.8,25.3
		c-6.5,5.1-8.8,12.1-10.6,19.7c-4.3,18.5,0.1,13.4-18.1,21c-4.6,1.9-9.4,3.5-13.8,5.8c-11.1,5.9-22.9,8.9-35.3,9.3
		c-5.4,0.2-8.2,2.8-11.2,6.8c-9.3,12.6-15.6,25.7-13.7,42.3c1.5,13.4-3.2,26.3-6.9,39c-4.4,14.9-3.9,30.1-5.2,45.3
		c13.1,6.7,26.2,10.8,40.5,10.7c19.7-0.1,20.1-0.4,33.9,13.5c7.2,7.2,15.2,10.8,24.7,13.6c21.9,6.5,44.4,8.1,67,9.3
		c15.5,0.8,31.1,0,46.7,0.3c6.9,0.1,13.9,0.8,20.8,1.9c2.7,0.4,5.3,2.5,7.4,4.3c2.3,1.9,3.9,4.6,5.9,6.7c5.5,5.8,10.2,12.7,16.7,17
		c6.2,4.1,14.1,5.5,22,8.3c0,12.8,0.2,25.4-0.1,38c-0.1,2.4-1.6,5-2.9,7.2c-4.7,8-9.8,15.9-14.5,23.9c-2.5,4.3-7.2,7.8-5.3,14.1
		C3916.1,1657.1,3913,1659.2,3911.2,1661.3z"/>
	<path onclick="modals(this.id);" id="897" class="st0" d="M4334,1402.5c9.3,3.4,17.8-2.4,25.8,3.5c-3.2,1.8-6.7,2.7-8,4.9c-1.5,2.5-1.1,6.2-1.3,9.4
		c-0.6,14.8-5,27.5-18,36.4c-5.9,4-11.3,8.9-13.3,16.5c-0.9,3.4-2.7,6.8-4.8,9.7c-5.8,8-6.1,10.9-0.7,19.4c0.9,1.4,1.7,2.8,2.9,4.7
		c-4.2,7-8,14.4-12.8,21.1c-2.1,2.9-6.2,5-9.8,5.9c-8.7,2.3-17.4,4.3-25.1,9.3c-2.2,1.4-5.1,1.4-7.5,2.5c-3.6,1.5-7.6,2.7-10.4,5.1
		c-10.8,9.3-23.1,12.4-37,10.9c-2.1-0.2-5.1-0.4-6.4,0.8c-5.8,5-11.3,10.6-16.7,15.8c2.4,5.9,5.3,9,11.7,6.9c3.3-1.1,7-0.8,11.4-1.2
		c-1,14.3,10.5,17.7,20.1,24.4c-13.1,9.9-13.4,23.6-13.2,37.3c0.1,4.4-1.5,7.4-5.2,9.9c-25.7,17.3-51.2,34.8-76.8,52.2
		c-2.2,1.5-4.6,2.6-7.5,4.3c-1.7-2.5-3.4-4.9-4.8-6.9c-8.5,3-15.7,5.8-23,8.1c-1.7,0.6-4.1,0.5-5.7-0.3c-7.5-3.5-15.2-6.9-22.2-11.3
		c-24.9-15.5-49.5-31.3-74.3-47c-1.6-1-3.5-1.7-6.2-3c-4.7,12.5-9.2,24.6-14.2,37.8c-12.9-14.6-22-30.5-29.7-48.2
		c-9.3,1.8-18.3,3.5-28.9,5.5c1.6-3.2,2.6-5.4,3.8-7.4c5.4-9.2,12.8-17.7,15.6-27.6c2.7-9.6,0.8-20.5,0.8-30.8c0-1.7-0.1-3.3,0-5
		c0.2-4.3-1.8-7.3-6-7.9c-16-2.4-26.7-12.6-35.7-24.8c-6.6-8.9-15.3-11.8-25.9-11.7c-17,0.2-34,1-50.9-0.2c-24.5-1.6-49-3.1-72.9-10
		c-7.6-2.2-14.3-5.1-19.9-10.6c-1.7-1.6-3.4-3.2-5-4.9c-7.5-8-15.6-12.7-27.7-12c-20.4,1.2-25.6-0.9-41.8-9
		c-0.4-12.4,0.8-24.8,3.1-37.3c0.5-2.9,1.4-5.8,2.3-8.7c5-15.3,7.8-30.9,6.4-47.1c-0.5-6.1,0.2-11.9,4.7-16.8
		c1.1-1.2,1.7-2.9,2.6-4.3c8.5-13.8,8.6-13.7,24.9-15.3c4.2-0.4,8.5-1.4,12.5-3c12.4-4.8,24.6-10.2,37-15.1c4.5-1.8,7.5-4.5,7.8-9.3
		c1-19.6,13.2-32.2,27.9-42.3c25.4-17.4,47-39.2,70-59.3c2.7-2.4,5.5-4.8,9.2-8c-3.4-2.9-6.3-5.5-9.2-8
		c-14.9-12.7-30-25.3-44.8-38.1c-14.7-12.7-30.5-23.9-48.7-30.7c-6.9-2.6-14.9-3.2-22.5-3.3c-15.6-0.2-31.2,0.6-46.8,1
		c-3.3,0.1-6.7,0.2-10-0.2c-4-0.4-7.9-1.1-11.8-1.9c-7.1-1.4-15.9-1-20.9-5c-5.4-4.3-7.4-13-11.5-20.7c11.1-8.6,18.7-21.8,34.7-22.7
		c17.1-1,32.1-7.7,46.3-16.7c11.7-7.4,25.1-8.2,38.2-10.4c2.6-0.4,5.9,0.9,8.2,2.4c6.5,4,12.5,9,19.1,12.7c8.9,5,18.2,9.4,27.6,13.8
		c2.2,1,5.5,1.6,7.6,0.8c10.8-4.2,22.4-6.7,31-15.4c5-5.1,11.2-7.9,18-10.2c21.7-7.3,43.3-15.1,66-19.1c11.2-2,18.8-11,27-18.1
		c6.5-5.6,12.2-12.3,17.7-19c5.3-6.5,10.7-10.7,20-10.4c10.9,0.3,21.8-1.7,32.7-2.6c1.6-0.1,3.2,0.4,4.9,0.7
		c19.1,2.7,38.1,5.5,57.2,8.2c1.9,0.3,3.9,0,6.6,0c3.7-9.7,7.4-19.2,11.5-30c23.9,6.3,47.5,12.5,71.6,18.9c-0.7,1.1-1,2.4-1.6,2.5
		c-8.8,2.1-11.4,9.1-13.8,16.6c-6.1,19-11.9,38.1-18.6,56.9c-4.1,11.6-9.3,22.8-14.6,33.9c-4.3,9-5.1,9,4.7,15.6
		c11.6,7.9,22.9,16.1,34.7,23.6c10.7,6.9,18.2,16.3,24.1,27.3c1.1,2,2.3,4.3,4.2,5.3c7,3.9,10,10.4,12.8,17.2
		c2.1,5.2,4.2,10.5,6.5,15.7c1.2,2.7,2.6,5.4,4.5,7.6c7.6,8.8,8.2,8.9,18.4,3.5c12.1-6.4,24-12.9,36-19.5c5.7-3.1,6.7-4.8,4.7-11.2
		c-1.7-5.3-4.2-10.4-6.7-15.5c-1.4-2.9-3.3-5.7-4.5-7.8c7.1-8,13.6-15.4,21.1-23.8c1.8,4.2,3.7,7.9,5,11.7
		c3.8,10.9,9.7,20.1,19.3,27.1c7.2,5.2,13.8,11.3,20.3,16.7c-2.8,8.4-7.9,8.2-13.3,5.8c-14.1,10.9-2.5,22-0.4,34
		c-9.4-1.2-17.8-2.2-26.2-3.5c-7.3-1.1-14.1-0.2-19.4,5c-3.3,3.2-5.7,7.2-8.7,11.1c9.9,11.3,21.3,20.3,33.4,28.5
		c5.8,3.9,11.8,7.5,18.1,10.4c6.3,2.8,5.5,8.2,6.8,13.4c-8.5,4.7-16.6,8-26.5,7.9c-11.8-0.2-22,5.4-32.4,12.5
		c2.2,4.8,4.2,9.2,6.7,14.8c-2.3-0.9-3.8-1.5-5.3-2.2c-5.4-2.4-10.7-5.2-16.2-7.3c-3.5-1.4-6.8-1.9-9.9-5.2
		c-5.4-5.7-17-4.5-25.1,0.9c-2.5,1.6-4.9,3.6-7.6,4.7c-12.6,5.2-12.7,5.1-18.3,11c-0.4-0.4-1.4-1.1-1.3-1.2
		c4.3-8.8-1.9-14.4-7.7-17.3c-5.5-2.7-13-2.2-19.1,1.9c-4.1,2.8-8.4,5.4-12.6,8.2c-3.4-1.7-6.7-3.4-10.9-5.5
		c-2.1,6-4.3,11.7-6.2,17.6c-1,3.3-2.2,5.7-5.7,7.5c-9.7,5.1-19.2,10.6-28.4,16.5c-22.7,14.6-45.5,29-67.6,44.5
		c-22,15.5-43.1,32.3-64.8,48.4c-3.9,2.9-4.1,6.6-3.6,10.6c1.5,14.2,3,28.4,4.6,42.6c1.7,14.5,3.5,29,5.3,43.5
		c0.3,2.3,0.8,4.6,1.3,7.8c5.7,0.9,11.5,2,17.3,2.8c11.9,1.5,23.8,2.5,35.6,4.2c14.9,2.2,29.1-2.2,43.5-4.4
		c21.7-3.2,43.1-7.9,64.9-10.8c12.1-1.6,21.9-7.6,32.2-12.8c17.6-8.7,35-17.9,52.3-27.1c5.8-3.1,11.4-4.1,17.1-1
		c6,3.2,11.4,2.4,17-0.4c2.1-1.1,4.3-1.8,6.4-2.8c4.4-2.1,8.3-2.6,13,0.3c6.6,4.2,9,2.7,12.3-4.6c2.5-5.7,5.9-10.9,8.7-16.5
		c1-2,2.5-4.6,2-6.3c-1.7-5.2,1.2-8.2,4.2-11.4c7.6-8.3,15.3-16.6,22.9-24.9C4341.3,1436.1,4343.3,1420.8,4334,1402.5z"/>
	<path onclick="modals(this.id);" id="847" class="st0" d="M3982.6,1561.6c-3.7-31.7-7.3-63.6-11.1-95.8c1.4-1.3,2.7-2.8,4.2-4
		c37.6-28.7,75.5-56.9,115.7-81.9c8.8-5.5,17.2-11.5,25.9-17c5.3-3.3,10.9-6.5,16.6-9c4.1-1.8,6.5-4,7.6-8.4c1.3-5,3.4-9.8,5.4-15.4
		c3.1,2.1,5.2,3.6,7.5,5.1c0.8-0.3,1.8-0.4,2.6-0.9c3.1-1.9,6.1-4,9.2-6c11.2-7.4,15.7-7.1,26.3,1.8c2,7.8-5.7,11.6-8.4,18.8
		c8.3-0.8,14-3.6,18.2-9.6c1.3-1.8,2.7-4.4,4.5-4.8c7.9-1.9,14.4-6.2,21.4-9.9c9.1-4.8,15.2-2.4,19.6,6.3c13.7-3.1,22.4,9,34.3,12.3
		c3.1-8-5.3-11.7-5.3-18.7c3.6-3.2,6.9-7.7,13.2-4.5c0.6,0.3,2.2-0.3,2.3-0.7c1.3-5.7,6.7-5.8,10.1-5.5c10.1,0.9,18.9-2.5,27.3-6.7
		c6.5,6.2,12.7,12.1,18.9,18.1c13.4,13.1,27.3,14.8,43.3,5.1c7-4.3,11-3.9,17.8,2.4c4.5,4.2,8.4,9,13.1,14c-5.1,4-10,7.3-16.8,6.8
		c-8.6-0.6-15.7,1.8-22.6,7.8c-5.4,4.7-13.2,7.1-20.3,9.3c-7.4,2.3-11.4,5.8-12.8,14.1c-0.8,4.8-1.5,9.7-2.3,14.5
		c-7.6,0.8-14.8,1.5-24.2,2.4c3.8,3.5,6.3,5.2,7.9,7.4c2.2,3.1,5.5,6.9,5.1,9.9c-1.3,9-1.5,18.5-8.5,25.8
		c-7.4,7.6-14.4,15.6-21.5,23.6c-4.5,5.1-9.5,9.5-8.5,18c0.5,4.1-3.7,8.8-5.9,13.2c-1.9,3.8-4,7.5-6.6,12.3
		c-3.9-1.8-7.6-3.5-12.6-5.8c-5.2,2.1-11.3,4.5-17.4,7c-3.5,1.5-6.8,1.9-10.4-0.2c-7.3-4.2-14.3-3-21.7,1
		c-20.8,11.1-41.9,21.9-63,32.5c-5.6,2.8-11.7,4.9-17.8,6c-32.4,5.8-64.8,11.2-97.3,16.4c-3.8,0.6-7.9-0.4-11.8-0.8
		c-13.9-1.5-27.7-3-41.6-4.6C3989.5,1563.3,3986.7,1562.5,3982.6,1561.6z"/>
	<path onclick="modals(this.id);" id="754" class="st0" d="M4227.8,988.7c-5.1,1.1-10.2,3.1-15.4,3.1c-14.5,0.1-28.8,0.5-43.1-4.5
		c-16-5.6-32.7-8.9-49.1-13.2c-2.8-0.7-5.7-1.2-9.3-1.9c-4,10.1-7.8,19.9-11.9,30.3c-12-1.6-23.6-2.6-34.9-4.9
		c-20.8-4.2-41.6-4.2-62.4-1.6c-8.8,1.1-14.5-0.9-20.2-8.4c-19.3-25.9-39.5-51-59.3-76.5c-1.6-2.1-3.1-4.3-5.1-7
		c16.8-29.7,33.6-59.5,50.6-89.6c10.1,1.3,19.9,2.6,29.7,4c16.8,2.4,33.5,5,50.3,7.3c4.5,0.6,7.7,2.8,11.2,5.6
		c10.8,8.6,17.4,19.5,22,32.4c5,14.1,11.1,27.8,16.9,41.6c1.6,3.7,2.4,7.2,1.7,11.4c-2,13,1.2,25.1,8.7,37.6
		c7.7-0.7,16.1-1.6,26-2.5c3.6-12.9,7.2-26.1,11.1-40c9,3.1,15,9,22.5,15c21.3-8.1,43.6-16.5,66-24.9c0.6-3.1,1-5.7,1.5-8.7
		c6.5-2.3,13-4.6,19.9-7.1c2.6,6.4,5.2,12,7.2,17.9c1.4,4.1,3.8,5.8,8,6.2c7.9,0.8,15.8,1.8,24.5,2.8c4.3,11,8.8,22.4,13.7,34.8
		c-26.9,10.2-53.7,20.3-81.4,30.7C4227.5,981,4227.6,984.5,4227.8,988.7z"/>
	<path onclick="modals(this.id);" id="805" class="st0" d="M4327.5,996c1.6,4,2.9,7.3,4.4,11.1c1.8,0.2,3.7,0.5,5.7,0.6c9.2,0.6,14.9,8,13.1,17
		c-1.2,6.1-2.5,12.2-4,19.6c5-0.4,8.8-0.8,13.5-1.2c0.1,2.6,0.6,5.4,0.4,8.1c-1,11.6-2.5,23.1-3.2,34.7c-0.4,6.9,0.9,13.8,0.7,20.7
		c-0.2,6.6-1.3,13.1-2.1,20.7c-6.2,0.1-12.4,0.3-18.6,0.4c-5,0.1-10,0.2-15,0c-5.7-0.3-10.3,1.4-14.2,5.7c-3,3.2-5.5,7.3-11.4,5.4
		c-1.3-0.4-4,2.1-5.5,3.8c-6.7,7.7-13.1,15.6-20.2,24c2.5,3.9,5.9,8.4,8.4,13.3c2.3,4.7,3.5,9.8,5.5,15.5
		c-16,8.7-31.3,17.1-46.9,25.5c-6.1-3.6-10.8-7.7-13.1-14.5c-1.9-5.7-4.6-11-6.8-16.6c-2.4-6.3-5.4-12-11.8-15.5
		c-1.8-1-3.1-3.4-4.2-5.3c-6.6-11.3-14.2-21.3-25.8-28.4c-13.6-8.3-26.3-18-40.2-27.8c2.3-5.5,4.7-10.8,6.8-16.3
		c5.4-14.3,10.8-28.5,16-42.9c5-14.1,10.1-28.2,14.5-42.4c2.3-7.5,7.2-10.4,14.3-11.6c2.4-0.4,4.6-2.3,7-3.5
		c10.8-0.9,22.2-1.9,33.8-2.9c6,8.9,6.9,9.6,17,13.8c0.8-0.4,1.9-0.7,2.4-1.5c12.2-18.4,34-16.3,49-8.2c9.4,5,17.2,5.9,26,0.5
		C4324.3,997,4325.8,996.6,4327.5,996z"/>
	<path onclick="modals(this.id);" id="3179" class="st0" d="M4054.6,336.4c-7.1,5.3-13.9,11-21.5,15.7c-3.3,2.1-8,2-12.2,2.6c-3.9,0.5-7.9,1-11.8,0.8
		c-10.9-0.4-21.8-1.6-32.8-1.8c-15-0.2-22.2-15.2-20.8-27.3c0.5-4.2,1.8-8.3,3-12.4c0.9-3.2,0.7-5.7-1.9-7.9
		c-20.5,14.5-29.1,35.2-32.7,60.1c-6.1,0-12.3,0.3-18.5-0.2c-2.2-0.2-5.1-1.8-6.3-3.7c-12.9-20.2-25.5-40.5-38.5-61.3
		c28.1-20.5,57.1-39.1,85-59.9c-14.2-17.4-27.5-33.8-40.8-50.2c10,0.3,19.7,0.9,28.3-3c9-4,16.9-10.2,22.1-21.3
		c3.9,10.9,7.1,20.1,10.8,30.5c22.8-12.3,44.9-24.2,67.3-36.3c4.9,5.7,9.2,10.8,14.4,16.8c-10.7,6.3-20.9,12.2-31.8,18.6
		c3.8,7.3,7.2,14,10.9,21.3c-11.7,6.8-23.2,13.4-35.1,20.2c2,7.2,4.3,14.3,6,21.6c1.5,6.5,2.7,13,3.3,19.6
		c0.9,9.3,5.4,16.2,12.8,21.5c1.6,1.2,3.3,2.3,5.1,3.1C4033.8,310.9,4046.4,320.3,4054.6,336.4z"/>
	<path onclick="modals(this.id);" id="3196" class="st0" d="M3903.6,369.7c5.3,0,8.6,0,11.8,0c8.4,0.2,16-1.1,23.3-6.4c10.5-7.6,23.1-7.5,35.5-6.9
		c13.6,0.6,27.2,1.3,40.7,1.9c1.6,0.1,3.2,0,5.1,0c1.7,8.1,3.4,15.8,4.9,23.5c0.6,3.2,1.9,6.7-2.7,8.3c-0.3,0.1-0.7,0.3-0.8,0.6
		c-3.2,12.8-8,25.2-7.7,38.7c0.1,3.1,0.3,6.7-1.1,9.3c-6.3,11.6-10,23.6-10.1,37c-0.1,6.5-2.5,13-4.5,19.3c-1.3,4.2-0.6,7,2.8,9.5
		c2.7,2,5.3,4.1,7.6,6.4c4.3,4.2,9.2,5.8,15.3,5.6c9.6-0.3,9.6,0.1,12.4,10.6c-1.1,0.6-2.3,1-3.3,1.8c-8.9,7.8-17.9,4-26.7-0.2
		c-2.5-1.2-4.6-3.7-6.1-6.1c-26.3-41.3-52.4-82.6-78.6-123.9C3916,389.8,3910.5,380.7,3903.6,369.7z"/>
	<path onclick="modals(this.id);" id="839" class="st0" d="M4277.3,1249.9c1.9-2.5,3.4-4.7,5.2-6.7c4.3-4.7,9.3-6.8,16-5.9c10.4,1.4,21,2.2,32,3.3
		c1.8-11.1-11.3-20.6-4.8-30.2c7.4-2.4,12.9-4.2,19-6.2c2,3.3,4.6,7.5,7.7,12.6c3.1-1.8,5.8-3.4,8.5-5
		c17.9-10.9,35.6-22.1,53.6-32.8c7.4-4.4,15-7.7,24.3-7.9c9.8-0.2,19.6-3.1,29.5-4.4c4.5-0.6,9-0.1,15-0.1
		c-2.3,15.1-4.4,29.4-6.7,44.9c-6.7-2.3-12.4-4.6-18.4-6.2c-3.4-0.9-7.3-1.7-10.6-1c-24.6,5.2-46.8,16.5-68.3,34.4
		c6.1,9,20.2,11.4,21.1,25.7c-21.1,11.5-42.8,23.3-65.1,35.5c-1-2.7-1.9-4.7-2.5-6.9c-1-3.4-3.4-5-6.4-6.9
		c-12.4-7.6-24.7-15.5-36.6-23.9C4285.2,1259.2,4281.8,1254.5,4277.3,1249.9z"/>
	<path onclick="modals(this.id);" id="3178" class="st0" d="M3980.7,96.6c16.8,21.3,32.8,41.5,49.3,62.4c-20.4,11.1-40.7,22.2-61.8,33.7
		c-3-8.4-5.7-15.8-8.2-23.3c-1.1-3.3-2.1-6.6-5.4-5.7c-5,5.8-9.1,10.7-13.4,15.5c-6.9,7.8-16.8,7.4-25.7,8.3
		c-4.2,0.4-8.8-4.2-13.6,0c-16.6-19.7-32.8-38.9-50.2-59.6c6.9-0.7,11.7-1.6,16.5-1.5c15.1,0.2,29.7-1.6,44-7.1
		c17.1-6.6,34.5-12.2,51.8-18C3969.6,99.4,3975.5,98.1,3980.7,96.6z"/>
	<path onclick="modals(this.id);" id="838" class="st0" d="M4352.7,1212.6c-7.1-20.8-26.6-28.9-41-43.7c15.7-13.6,32.5-24.6,48.6-37.4
		c6.5,5.7,12.5,10.9,18.3,16.3c4.5,4.2,9.1,7.4,15.8,7.1c3.6-0.2,7.2,1,10.8,1.1c8.1,0.3,16.1,0.5,19.4,12.2c2-3.5,3.7-5.2,4-7
		c1.6-11.2,2.8-22.4,4.1-33.6c0.4-3.6,0.8-7.2,1.3-11.8c18.4,1.7,36.4,3.4,55.4,5.1c-1.9,14.2-3.7,27.9-5.3,40.6
		c-14.7,2.2-28.3,5.2-42,5.9c-12.9,0.7-23.6,5.6-34.2,12.1C4390.1,1190.4,4372,1201,4352.7,1212.6z"/>
	<path onclick="modals(this.id);" id="846" class="st0" d="M4417.5,1271.3c2.9-0.3,4.8-0.5,7.1-0.7c0.4,2.2,0.7,4.3,1.2,6.9c3.3,0.5,6.5,0.9,9.6,1.4
		c0.8,8-2.6,14.2-6.8,20.4c-6.3,9.3-11.8,19.1-17.9,29.1c0.1,0-1.3-0.3-2.3-1.1c-7.1-5.9-8.6-6.3-15.4-1.3c-5,3.6-10.1,5.5-16.2,6.6
		c-7.7,1.5-13.8-0.4-19.6-4.6c-8.6-6.3-16.2-13.6-22.8-23.7c23.8-13.1,46.9-25.8,70.6-38.8c-1.8-4.7-3.4-8.9-5.4-14.3
		c7.9-4.9,15.9-9.9,24.7-15.4c4.2,6.7,8.2,13.1,12.4,19.9C4429.3,1259.8,4417.9,1257.9,4417.5,1271.3z"/>
	<path onclick="modals(this.id);" id="845" class="st0" d="M4429.1,1275.1c-0.2-3.2-0.3-5.7-0.5-8.4c-1.7-0.5-3.3-1-5.3-1.6c1.1-1,1.9-2.4,3-2.7
		c5-1.3,10.1-2.3,16.2-3.6c-5.9-9.3-11.1-17.6-16.9-26.8c-6.5,3.8-12.7,7.4-18.9,11.1c-11.8,7-12.1,7-22.4-4.6
		c14.8-9.5,28.9-19.4,45.8-25.7c15.6-5.8,29.3-6,43.5,1.8c0.3,0.2,0.5,0.5,1.7,1.7c-0.8,2.3-1.4,5.5-2.8,8.2
		c-6.4,12.4-13,24.8-19.6,37C4447.4,1271.8,4440.6,1275.8,4429.1,1275.1z"/>
	<path onclick="modals(this.id);" id="766" class="st0" d="M4546.9,813.1c-2.7,1.5-4.3,2.5-6.1,3.3c-8.2,3.5-16.4,6.9-25.8,10.8
		c-5.6-12.4-10.8-24.1-16.4-36.4c6.4-2.7,11.8-4.9,18.1-7.5C4526.7,793.2,4536.5,802.9,4546.9,813.1z"/>
	<path onclick="modals(this.id);" id="823" class="st0" d="M4456.8,1029.6c1,4.2-0.6,9.8,6,11.1c0.7,0.1,1.6,1.3,1.7,2.1c1.7,11,9.7,18.7,14.4,28.2
		c0.8,1.7,1.6,3.4,2.7,5.6c-7.9,2.3-12.6-5.1-20.3-4.7c-1.8,4.8-3.7,10-5.7,15.6c-4.4-0.8-8.2-9.3-14.3-1.9c1.1,2,2.3,4.3,4,7.5
		c-4,0.2-7.4,0.4-12.3,0.7c-2.3,21.3-4.5,42.8-7,66.2c-6.7-8.3-14.9-5.8-22-7.5c-3.2-0.8-6.7,0-9.9-0.9c-4-1.1-8.3-2.3-11.5-4.8
		c-6.6-5-12.3-11.2-18.8-16.3c-3.7-2.8-5.1-5.7-4.1-10.1c1.6-6.8,2.9-13.6-0.1-20.5c-0.7-1.7-0.3-4-0.2-5.9
		c1.3-13.9,2.5-27.7,4-41.6c0.4-3.6,1.3-7.1,2.2-11.9c4.3,0,8.2-0.3,12,0.1c17.8,1.6,35.6,3.4,53.4,5.1c2.3,0.2,4.9,0.8,6.9,0
		c1.7-0.6,3.9-2.9,4-4.5c0.5-9,0.3-9,8.3-10.6c2.3-0.4,4.6-0.4,6.9-0.6C4457.1,1029.9,4456.8,1029.6,4456.8,1029.6z M4310.1,1164.6
		c16.5-10,39.7-28.6,42.7-34.3c-7.2,0-14.2,0.7-21.1-0.1c-13.1-1.6-22.3,4.1-30.3,14.7C4304.2,1151.7,4305.8,1158.8,4310.1,1164.6z"
		/>
	<path onclick="modals(this.id);" id="3192" class="st0" d="M3961.4,351.1c-11.3,4.3-21.3,8.1-32.3,12.3c-1.1-5.7-0.1-12,2.6-17.9
		c3.3-7.3,6.8-14.5,10.8-21.4c2-3.4,5.5-5.8,10-10.3C3953.8,328.3,3949,341.9,3961.4,351.1z"/>
</g>
<g>
	
	<path onclick="modals(this.id);" id="653" class="st0" d="M4212.8,758.1c8.2,12.4,15.8,24.2,23.8,35.7c1.6,2.3,2.2,7.1,7.4,5.3c1.4-0.5,6.4,9.4,5.9,11.4
		c-1.2,4.9-0.6,5.4,4.5,6.1c8.5,1.1,15.2,6,21.9,11.1c12.3,9.5,18.1,22.8,23.1,37.1c-7.1,2.9-14.2,5.9-21.3,8.7
		c-14.5,5.7-29.1,11.3-43.7,17c-4.4,1.7-2.7,5.2-2.6,9.1c-8.5,3.2-17.4,6.6-26.3,10c-9.7,3.7-19.7,7-29.2,11.2
		c-6,2.7-9.8-1.5-14.2-3.4c-3.3-1.3-5.9-4.3-9.3-7c0.1-0.5,0.4-1.8,0.8-3.9c-2.3,0-4.2-0.3-6.1,0.1c-1.2,0.3-2.7,1.4-3,2.4
		c-3.2,10.6-6.5,21.1-9,31.9c-1.8,7.9-2,8.5-10,8.7c-4.1,0.1-8.2,0.8-12.3,0.9c-1.2,0-3.3-0.8-3.6-1.7c-2.1-7-6.9-13.2-6.2-20.9
		c0.2-2.4,0.6-4.9,1-7.3c1.5-9.9-3.4-18.1-6.9-26.7c-6.4-15.8-12.1-32-19.5-47.4c-2.9-6.1-9.3-10.6-14.2-15.7
		c-1.7-1.7-3.7-3.1-5.7-4.7c9.2-6.6,18.2-12.8,26.8-19.4c4.8-3.7,9.1-8.2,13.4-12.5c6.1-5.9,11.9-12.1,18.1-18
		c3.8-3.6,6.6-6.7,5.2-12.9c-1.9-8.5-2.3-17.4-3.4-27c21.5-3.2,43.6-6.5,66.7-10c-2.2-15.7-4.3-31.3-6.4-46.6
		c2.5-1.2,4.6-2.3,7.4-3.7c0.2,0.1,1.1,0.7,2.4,1.6c2.7-3.2,5.4-6.5,8.3-10c1.2,2,2.3,4,3.5,6.1c3-1.2,5.9-2.4,9.4-3.8
		c3.3,8,6.5,16.1,9.9,24.1c3.9,9.3,7.7,18.7,11.7,27.9c1.2,2.8,1.7,4.7-0.7,7.5C4222.9,738,4215.9,747.3,4212.8,758.1z"/>
	<path onclick="modals(this.id);" id="641" class="st0" d="M4146.1,588c7.6-5.8,9.7-17.4,21.4-20.5c-0.3,2.3-0.6,4.2-1,6.7c12.4,3.2,24.9,6.5,37,9.6
		c-2.1,9.6-3.7,19.4-6.4,28.8c-0.9,3-4.5,5.1-7.4,8.2c5.9,14.5,12.1,29.9,18.5,45.6c-2,0.9-4.2,1.8-6.3,2.8
		c-5.6-7.6-5.6-7.6-13.8,4.1c-1-0.8-2-1.6-3.3-2.7c-1.1,1.3-2.2,2.7-3.3,4.1c-1.7-0.1-3.6-0.2-6.8-0.3c2.2,16.4,4.4,32.4,6.6,49
		c-6.8,1-13.7,2.1-20.6,3.1c-13.6,2.1-27.3,3.5-40.6,6.5c-5.5,1.2-7.1-2.7-9.9-4.6c-6.5-4.3-12.8-9.2-18.5-14.5
		c-2.7-2.5-4.9-6.3-5.8-9.9c-2.4-9.1-8.2-15.9-14.2-22.6c-8.3-9.3-17-18.2-25.9-26.9c-3.2-3.1-4.6-6.6-5.2-10.7
		c-2.4-18.2-4.7-36.3-7.1-54.5c-0.6-4.7-1.4-9.3-2.2-14.2c1.7-0.5,3.4-0.5,4.4-1.3c5.3-4.6,12.5-4.4,18.5-7.3
		c1.1-0.5,2.8-0.9,3.2-1.9c4.1-8.1,13.5-11.2,17.6-20.4c9.3,7.2,17.7,13.8,26.1,20.3c0.9,0.7,1.7,1.5,2.8,2
		C4117.8,573.7,4131.9,580.8,4146.1,588z"/>
	<path onclick="modals(this.id);" id="623" class="st0" d="M4178.8,506.3c5.5,0.9,11,1.9,16.4,2.8c0.4,6.2-5.9,12.3-0.7,19.5c-2.3,9.4-0.6,9.6-10.7,9.2
		c0,6.7,0,13.4,0,20.7c-9.6-1.2-17.2,4.8-24.8,9.4c-4.8,2.9-8.2,8.5-11.5,13.3c-1.8,2.7-2.9,3-5.7,1.5
		c-11.8-6.4-23.8-12.3-35.4-18.8c-4.3-2.4-8-6.1-12.7-9.8c6.1-4.9,12.2-9.5,18-14.5c4.3-3.7,8.6-7.5,12.4-11.7
		c8.7-9.7,17-19.6,25.4-29.3c3.3,2.8,7,5.1,9.5,8.2c4.3,5.4,9.9,3.5,15.1,3.4C4175.7,510.2,4177.2,507.7,4178.8,506.3z"/>
	<path onclick="modals(this.id);" id="753" class="st0" d="M4302.5,864.5c-5.8-22-18.4-38.6-40-49.4c2.3-1.9,4-4.2,6.3-5.2c8.2-3.4,16.5-6.8,25.1-9.4
		c5.4-1.7,11.3-1.6,16.8-3.1c7.2-2,14.1-4.7,21.4-7.2c3.6,8.3,7.4,17.2,11.2,26.2c-0.4,0-0.8,0-1.2,0c-0.2,2.3-0.3,4.5-0.5,6.8
		c-0.2,2.4-0.4,4.9-0.6,7.3c-0.5,0-0.9,0-1.4,0c1.3,2.4,2.7,4.7,4,7.2c1.8,3.5,3,6.8-1.2,9.8c-1,0.7-1.2,2.8-2.1,5.1
		c-4.6,1.8-10.4,3.9-16.1,6.3c-2.4,1-4.1,2.2-7.2,0.6c-1.9-0.9-5.6,1.6-8.5,2.7C4306.6,862.7,4304.9,863.5,4302.5,864.5z"/>
	<path onclick="modals(this.id);" id="3180" class="st0" d="M4070.2,269.4c-16.6-23.7-35.5-45.2-49.3-71.6c9.9-5.8,19.8-11.5,29.6-17.2
		c13.4,14.8,27.2,29.3,36.7,47.1c3.7,7,7.2,14.3,10.5,21.5c0.4,0.9-0.6,3.1-1.5,3.8C4087.9,258.4,4079.6,263.5,4070.2,269.4z"/>
	<path onclick="modals(this.id);" id="800" class="st0" d="M4485.9,942.6c-4,21.2-7.9,41.4-11.7,61.8c-2.6-0.7-5-1.8-7.3-1.8c-3.1-0.1-4.6-1-4.5-4.3
		c0-0.8-1.5-2.3-2.4-2.5c-2.7-0.5-5.6-0.7-8.3-0.4c-1.1,0.1-2,1.9-3.4,3.4c-4.5-1-10-2.1-15.1-3.2c0.2-1.8,0.3-3.1,0.5-4.7
		c-5-1.1-9.7-2.2-14.5-3.3c11.4-2.8,9.2-12.7,11.4-20.1c1-3.4,1.1-7.1,2.3-10.5c0.4-1.1,3-2.4,4.3-2.1c4.8,0.8,9.5,2.3,14.2,3.5
		c4.6,1.1,5.8,0,6.3-4.7c0.4-4.2,1.4-8.4,1.9-12.6c0.2-1.9-0.3-3.8-0.5-6.9c3.6,2.3,7.3,3.9,10,6.6c4.3,4.3,8.8,4.4,14,2.6
		C4483.4,943.2,4483.9,943.1,4485.9,942.6z"/>
	<path onclick="modals(this.id);" id="804" class="st0" d="M4361.1,957.9c12.2,2.5,23.3,4.8,35.5,7.4c-1,4.8-2.2,10-3.4,15.6c-5.4-2.4-7.4-0.6-8.3,4.3
		c-1.5,8.9-4.9,17-9.3,25c-3.8,6.9-5.7,14.9-8.8,22.2c-3,6.8-7,8.6-15.5,7.6c1.3-5.6,2.8-11,3.9-16.5c1.7-8.3-7-19.2-15.4-18.8
		c-3.6,0.2-5-1.5-6-4.3c-0.7-1.8-1.3-3.7-2.4-6.8c7.2,1.2,13.6,2.1,19.9,3.5c2.6,0.6,3.6,0.1,4-2.5
		C4357.3,982.3,4359.2,970.1,4361.1,957.9z"/>
	<path onclick="modals(this.id);" id="778" class="st0" d="M4333.9,948.5c-0.9-2.8-1.6-4.8-2.4-7.5c24.8-9.9,50.5-20.3,76.9-30.8
		c-1.8,9.1-3.5,17.5-5.3,25.9c-1.5,7.3-3.2,14.6-4.7,21.9c-0.6,3.2-2.5,4-5.3,3.4c-18.9-4-37.8-8-56.8-12
		C4335.1,949.2,4334,948.5,4333.9,948.5z"/>
	<path onclick="modals(this.id);" id="3206" class="st0" d="M4099.1,497.3c-6.5-4.9-12.2-9.2-17.9-13.5c-0.4-0.3-0.9-0.6-1-1.1c-1.2-3.9-3.1-6.8-6.9-9.2
		c-3-1.9-4.7-5.9-7.4-9.5c3.1-13.5,14.3-21.5,25.4-29.6c1-0.7,4.4,0,5.3,1.2c5.8,6.7,11.1,13.7,16.7,20.7c2.6,3.2,5.3,6.2,7.7,9.6
		c0.7,1,1,3.3,0.3,4.1C4114.1,479,4106.7,488,4099.1,497.3z"/>
	<path onclick="modals(this.id);" id="801" class="st0" d="M4396.7,981.2c4.1-19.2,8.1-38.1,12.1-57.1c14.5,3.2,29.1,6.3,43.6,9.5c3,0.7,4.9,5.6,3.8,10.3
		c-0.5,1.9-1.4,3.7-1.7,5.6c-0.3,1.8-0.1,3.6-0.1,6c-6.2-1.4-12-2.5-17.7-4c-4.8-1.2-6.6-0.2-7.4,4.6c-1.3,7.2-2.6,14.4-4.1,21.6
		c-0.8,3.7-8.7,7.9-12.6,6.9c-2.7-0.7-5.3-1.4-8-2C4402.1,982,4399.5,981.6,4396.7,981.2z"/>
	<path onclick="modals(this.id);" id="779" class="st0" d="M4410,920.9c0.2-1.5,0.4-2.5,0.5-3.6c0.5-5.7,2.1-9.3,8.8-11.4c14.5-4.8,28.4-11.4,43.1-17.5
		c7,17.1,13.9,33.9,20.9,50.8c-5.7,3.6-8.1,3.4-12.8-1.2c-4.8-4.6-10.6-6.6-17.1-7.5c-6.3-0.8-12.4-2.6-18.6-3.9
		C4426.5,924.6,4418.4,922.8,4410,920.9z"/>
	<path onclick="modals(this.id);" id="774" class="st0" d="M4335.1,935.8c3.5-15.2,6.8-29.6,10-44c12.2,2,23.7,4.3,35.3,5.4c3.9,0.3,8.2-2.8,12.3-4.3
		c4.7-1.8,9.4-3.6,14.3-5.5c2.2,5.2,4.4,10.1,6.2,15.1c0.3,0.7-1.1,2.6-2.1,3.1c-3.8,1.9-7.7,3.5-11.7,5
		c-20.6,8.1-41.1,16.2-61.7,24.3C4337.1,935.1,4336.6,935.3,4335.1,935.8z"/>
	<path onclick="modals(this.id);" id="2183" class="st0" d="M4001.2,252.8c5.6-3.3,11.5-6.8,18.1-10.7c6.6,15.5,18.6,27.8,24.9,43.5
		c-4.4,5.4-8.3,9.3-7,24.5c-5.9-3.5-11.1-7-16.6-9.8c-5.1-2.7-9.4-5.9-11.9-11.1c-1.5-3-2.6-6.3-3.2-9.5
		C4003.9,270.9,4002.6,262,4001.2,252.8z"/>
	<path onclick="modals(this.id);" id="761" class="st0" d="M4376.8,893.8c-1.1-4.1-1.6-7-2.5-9.7c-3.2-8.8-6.6-17.6-10-26.8c1.3-0.6,2.5-1.2,4.3-2
		c-1.8-4.6-3.6-9-5.6-14.2c7.4-2.9,14.5-5.8,22.4-8.9c1.7,4.2,3.5,8.4,5.2,12.6c4.7,12,9.2,24,14,35.9c0.9,2.4,1.5,3.8-1.6,4.9
		c-5.8,2.1-11.4,4.8-17.3,6.8C4382.6,893.4,4379.2,893.5,4376.8,893.8z"/>
	<path onclick="modals(this.id);" id="806" class="st0" d="M4368.8,1036.9c2.2-5.4,4.2-10.5,6.3-15.6c0.3-0.7,1.1-1.3,1.2-2.1c2.2-11.8,3.3-11.1,12.8-14
		c4.3,3.4,8.4,6.2,11.9,9.6c3.6,3.5,6.8,7.6,9.8,11.6c3.3,4.4,8.2,6,11.7,1.9c4.7-5.5,10.2-5,16-4.8c6.3,0.2,12.6,0,18.7,1.2
		c6,1.2,9.6,7.3,8.4,14.2c-1.9-2.7-3.6-4.3-4.2-6.2c-1.1-3.8-4.8-6.8-8.4-6.1c-2.9,0.6-5.7,1.3-8.5,1.9c-5.7,1.4-8.4,7.9-4.6,14.3
		C4416.1,1040.8,4393,1038.9,4368.8,1036.9z"/>
	<path onclick="modals(this.id);" id="3208" class="st0" d="M4054.9,527c-4.1-0.9-8.1-1.5-12-2.6c-1.4-0.4-2.9-1.9-3.5-3.2c-4-9.4-5-19-2.4-29.2
		c0.9-3.7-1.2-8.2-2.1-12.3c-0.8-3.5-1.9-6.8-2.8-10.1c4.2-1.8,7.9-3.4,10.2-4.4c4.2,3.7,8.2,6.6,11.4,10.2c1.9,2.2,3.3,5.5,3.5,8.5
		c0.5,6.8,2.8,12,9.1,15.2c4,2,4.6,4.8,2,8.7C4063.8,514.3,4059.2,520.8,4054.9,527z"/>
	<path onclick="modals(this.id);" id="3214" class="st0" d="M4075.3,535.2c0.9,5.6-3.6,8.9-6.7,12.2c-2.5,2.7-3.9,7.7-9.4,6.9c-0.7-0.1-1.9,2.1-2.5,3.4
		c-2.4,4.8-5.1,8.7-11.6,6.9c-1.1-0.3-3,0.7-3.9,1.6c-3.4,3.5-7.2,5.9-12.5,4.4c0.6-3,1.4-6.4,1.8-9.9c0.2-1.9-0.2-3.9-0.4-5.9
		c-1.6,0.7-3.3,1.4-4.9,2.1c-0.4,0.2-0.8,0.2-2.6,0.7c6.5-5.4,5.6-10.9,2.6-16.4c-1.6-2.8-0.8-4.2,1.9-5.3c4-1.5,8-3.1,12-4.6
		c0.4-0.2,1.2-0.3,1.3-0.7c1.1-4.8,4.3-3,7.2-2.3C4056.8,530.7,4066,532.9,4075.3,535.2z"/>
	<path onclick="modals(this.id);" id="777" class="st0" d="M4350.8,993.2c-6.7-1-13.2-2-20.8-3.1c-5.2-12.9-11-27.2-16.9-41.8c3.9-1.6,7.5-3.1,11.4-4.7
		c1.9,2.3,3.9,4.6,6.8,8c7.8,1.6,17.2,3.6,27.3,5.7C4356.1,969.1,4353.5,981.1,4350.8,993.2z"/>
	<path onclick="modals(this.id);" id="3207" class="st0" d="M4009.1,462c3.9,3.6,7.2,1.9,10.5-0.1c3.3-2,5.7-2.5,7,2.6c2,7.6,5.4,14.8,7.3,22.4
		c0.9,3.3-0.3,7.1-0.6,10.7c-0.4,5.1-0.9,10.3-1.3,15.5c-0.7-0.1-2.6-0.8-4.2-0.4c-11.4,2.6-17.7-5.7-25.2-11.5
		c-0.7-0.6-0.8-2.6-0.5-3.8c1.4-6.7,3.1-13.3,4.3-20c0.7-3.5,0.6-7.2,1-10.8C4007.6,465.1,4008.4,463.8,4009.1,462z"/>
	<path onclick="modals(this.id);" id="3194" class="st0" d="M4030.1,386c-1.7-8.6-3.6-17.6-5.5-26.9c14.2-2.9,22.5-13.7,33.1-20.2
		c5.5,6.6,11,13.1,16.9,20.2C4061,369.2,4050.2,383.8,4030.1,386z"/>
	<path onclick="modals(this.id);" id="906" class="st0" d="M4310.7,950.9c5.4,13.1,10.2,24.9,15.4,37.5c-6.2,1.4-11.6,3-17.2,3.8c-2.2,0.3-4.8-0.9-7.1-1.8
		c-3.4-1.4-6.9-2.9-10-4.9c-2.1-1.4-4.3-3.4-5.1-5.7c-1.9-5.8-3.1-11.8-4.7-18.3C4291.1,958.1,4300.8,954.5,4310.7,950.9z"/>
	<path onclick="modals(this.id);" id="775" class="st0" d="M4312,944.9c-5.9-14.7-11.6-29.2-17.8-44.9c6.4,1.3,12.1,2.5,17.8,3.8c7.3,1.6,14.6,3.4,21.9,4.7
		c3.1,0.5,3.8,1.2,2.9,4.5c-2.1,7.5-3.6,15.2-5.4,22.7c-0.3,1.1-1.2,2.4-2.2,2.8C4323.8,940.6,4318.2,942.5,4312,944.9z"/>
	<path onclick="modals(this.id);" id="773" class="st0" d="M4437.6,894.6c-7.4,3.1-14,5.9-20.6,8.6c-6.4-16.4-12.9-32.7-19.4-49.2c6-2.5,12.1-5,19-7.9
		C4423.6,862.4,4430.6,878.5,4437.6,894.6z"/>
	<path onclick="modals(this.id);" id="3213" class="st0" d="M4057.8,528.3c5.6-8.1,10.6-15.3,15.7-22.6c12.8,10.2,25.3,20.2,37.6,30
		c-5.2,4.5-11.3,9.9-17.6,15.1c-0.6,0.5-2.3,0.6-3.1,0.1c-4.6-2.7-9-5.7-13.4-8.5c0.5-0.2,1-0.4,1.5-0.7c0.3-2,1.1-4.2,0.8-6.1
		c-0.3-1.5-1.7-3.7-3-4C4070.4,530.3,4064.5,529.5,4057.8,528.3z"/>
	<path onclick="modals(this.id);" id="696" class="st0" d="M4363.5,692.2c-2.6-6.4-5.1-12.7-7.8-19.4c5.3-2.3,10.6-4.5,15.9-6.8c4.2-1.9,6.7-4.4,3.1-8.9
		c10.4-5.6,11.8-5.5,20.7,2.9c3.6,3.4,7,6.9,10.4,10.4c1,1,1.7,2.4,2.7,3.7C4393.4,680.1,4378.7,686,4363.5,692.2z"/>
	<path onclick="modals(this.id);" id="3182" class="st0" d="M4038.2,231c9.6,13.4,19.1,26.7,28.9,40.4c-6.1,3.8-12.7,7.9-20.5,12.7
		c-1.5-4.1-2.8-7.8-4.2-11.5c-0.4-1-0.7-2.3-1.4-3c-8.7-7.9-13.1-18.4-18.9-28.5C4027.4,237.7,4032.5,234.6,4038.2,231z"/>
	<path onclick="modals(this.id);" id="772" class="st0" d="M4462.1,885.3c-7,2.7-14.1,5.4-21.4,8.2c-6.9-16.2-13.8-32.3-20.8-48.6c4.1-1.6,8.6-3.3,13.1-5
		c2.5,6.1,4.9,12.3,7.6,18.4c0.4,1,2.5,1.8,3.7,1.6c2.2-0.4,4.2-1.5,6.7-2.5C4454.6,866.7,4458.3,875.8,4462.1,885.3z"/>
	<path onclick="modals(this.id);" id="763" class="st0" d="M4436.3,838.3c3.1-1.6,6.1-3.1,9.4-4.8c-2.4-6.1-4.7-11.8-7.1-17.9c5.8-2.4,11.4-4.7,17.2-7.1
		c4.9,12.2,9.7,24.2,14.8,36.9c-5.7,2.4-11.3,4.7-17,7c-0.4,0.2-1,0-1.5,0.2c-2.8,1.2-5.9,3.8-8.2,3.2c-1.8-0.5-2.7-4.7-4-7.3
		c-0.5-1-1.1-2-1.4-3.1C4437.7,843.1,4437,840.7,4436.3,838.3z"/>
	<path onclick="modals(this.id);" id="703" class="st0" d="M4281.1,745.5c-14.3,5.3-28.6,10.6-42.9,15.8c-4.6-6.3-9-12.4-13.8-19.1c2.8-3.6,6-7.6,9.8-12.5
		c1.6,4.2,3.1,7.4,4,10.7c0.7,2.8,1.6,3.7,4.5,2.5c6.1-2.7,12.5-4.8,18.4-7.8c4.1-2.2,7.6-5.5,12.2-8.9
		C4276.2,733.2,4278.5,739,4281.1,745.5z"/>
	<path onclick="modals(this.id);" id="743" class="st0" d="M4466.2,777c-9,3.7-18.1,7.4-27.6,11.3c-3.9-9.9-7.9-19.8-11.9-30.1c9.9-3.3,19-6.4,28.4-9.5
		C4458.8,758,4462.4,767.2,4466.2,777z"/>
	<path onclick="modals(this.id);" id="758" class="st0" d="M4289.1,887.4c8-3.6,15.4-7.4,23.1-10c4.2-1.4,9-0.9,13.3-1.2c0.5,0.9,0.8,1.2,0.8,1.5
		c0.5,9.7,0.5,9.7,10.2,11.9c1.7,0.4,3.4,1,5.7,1.7c-1.1,4-1.8,8.1-3.4,11.9c-0.5,1.2-3.5,2.4-5,2.1c-12.6-2.6-25-5.9-37.6-8.3
		C4290.4,895.9,4291.2,891.1,4289.1,887.4z"/>
	<path onclick="modals(this.id);" id="725" class="st0" d="M4272.1,752.3c1.6,4,2.7,7.7,4.4,11c1.7,3.3,0.6,4.8-2.6,5.9c-9.1,3.2-18.1,6.5-27.6,10
		c-0.9-2-2.5-4.1-2.8-6.4c-0.6-4.6-3.1-3.6-5.5-2.1c-2.9,1.7-5.6,3.9-8.7,6c-4.3-5.9-8.5-11.6-12.5-17.5c-0.5-0.7,0.1-2.5,0.6-3.6
		c1.2-3.2,2.6-6.3,4.2-10c1.1,0.8,2.1,1.3,2.8,2.2c1.5,1.7,2.8,3.6,4.2,5.5c2.9,3.7,5.4,10.1,8.7,10.6c5.1,0.7,10.7-2.6,16.1-4.5
		C4259.5,757.2,4265.5,754.8,4272.1,752.3z"/>
	<path onclick="modals(this.id);" id="734" class="st0" d="M4333.5,785.7c-3.8-9.8-7.3-19.1-11-28.7c7.2-3,14.5-6.1,21.6-9.1c12,4.1,13.6,15.5,17.7,26.2
		C4352.6,777.9,4343.4,781.7,4333.5,785.7z"/>
	<path onclick="modals(this.id);" id="736" class="st0" d="M4422.9,756.5c-9.7,3.7-18.6,7.1-27.4,10.4c-4.2-9.2-8.2-17.8-12.5-27.1
		c9.7-3.8,19.1-7.5,29-11.3C4415.5,737.6,4419.1,746.7,4422.9,756.5z"/>
	<path onclick="modals(this.id);" id="3186" class="st0" d="M4048.7,320.5c-4.3-4.3-8.4-9.1-8.5-16.2c-0.1-7.6,1.8-13.8,9-17.9c7.2-4.1,14-8.8,21.4-13.5
		c3.3,3.8,6.4,7.2,8.9,10.1c-2.2,5.6-4.1,10.8-6.2,16.1c-4.2-1-8.2-2-12.1-2.9C4057.2,304.8,4057.3,314.9,4048.7,320.5z"/>
	<path onclick="modals(this.id);" id="803" class="st0" d="M4390.9,1001c-2.2,0.8-4.4,1.6-6.7,2.5c-0.1-3.8,0.8-6.3,5-6.4c1.3,0,2.7-1.1,3.9-1.9
		c6.6-3.8,8.3-2.7,12.8,4.2c1.2,1.8,1.9,3.8,2.8,5.7c2.4,4.6,5.1,4.8,8.7,0c8.3,3,16.8,6.4,25.4,8.9c4.2,1.2,8.8,0.8,13.2,1.4
		c2.4,0.4,4.7,1.2,6.9,2.2c2.4,1.1,4.7,2.5,7.4,4.1c-0.6,2-1.4,4.6-2.4,7.9c-1.4-1.8-2.3-3.9-3.8-4.7c-3.5-1.8-7.3-4-11.1-4.3
		c-7.9-0.7-16-0.2-24-0.2c-2.7,0-4.7,0.2-6.1,3.5c-1.7,4.1-6.5,3.6-9.5,0.3c-4.4-5-9.1-9.7-14-14.1c-3.2-2.9-7.2-4.9-10.8-7.3
		C4389.4,1002.2,4390.2,1001.6,4390.9,1001z"/>
	<path onclick="modals(this.id);" id="741" class="st0" d="M4485.8,750.7c-1,5.4-10.2,1.1-7.8,8.9c1,3.1,3,3.7,6.3,1.3c2.5,6.2,4.8,12,7,17.5
		c-3.1,1.7-7.5,2.6-8.7,5c-1.1,2.3,1.3,6.2,2.1,9.5c-2,0.9-4.3,2-7.1,3.3c-6.4-16-12.8-31.9-19.6-48.9c5.7-2,11.3-4,16.9-5.8
		c0.6-0.2,1.7,0.7,2.4,1.4C4480.5,745.8,4483.5,748.6,4485.8,750.7z"/>
	<path onclick="modals(this.id);" id="697" class="st0" d="M4321.8,680.2c1.5-0.9,3-1.8,4.9-2.9c-2.3-1.9-1.2-7-6.3-5c-0.3,0.1-1.4-1.9-2.5-3.5
		c5-2.1,9.5-4.1,14.4-6.2c1.3,2.3,2.4,4.4,3.7,6.7c4.5-0.8,9.1-1.6,14-2.5c3.4,8.6,6.8,17.3,10.7,27.1c-6.3,1.6-12.2,3.5-18.3,4.5
		c-3.7,0.6-7.3-1.2-8.8-5c-2-5.3-5.9-8.8-10.4-11.7C4322.6,681.3,4322.2,680.7,4321.8,680.2z"/>
	<path onclick="modals(this.id);" id="748" class="st0" d="M4403.7,826.3c-5.3,2.1-10,3.9-15,5.8c-6.7-16.7-13.4-33.5-20.3-50.8c4.9-2,9.5-3.9,14.7-6
		C4389.9,792.2,4396.7,809,4403.7,826.3z"/>
	<path onclick="modals(this.id);" id="735" class="st0" d="M4367,778.2c-4.7-11.8-9.4-23.5-14.2-35.5c2.4-1,5-2.1,7.7-3.2c4.6,7.6,4.6,7.6,12.8,4.1
		c2.1-0.9,4.2-1.7,6.8-2.7c3.5,8.1,7.2,16.3,10.6,24.6c0.4,1-0.7,3.5-1.6,3.9C4381.8,772.5,4374.3,775.3,4367,778.2z"/>
	<path onclick="modals(this.id);" id="3200" class="st0" d="M4019.9,432.6c-4.4-5.9-1.9-11.7-0.8-17.3c1.2-5.9,3-11.6,4.3-17.5c0.7-3.4,1.4-5.9,5.7-6.5
		c3.2-0.4,6.1-2.7,10-4.6c2.7,9,5.2,17.3,7.6,25.6c1.6,5.6,0.8,6.7-4.5,8.1c-4.8,1.3-8.9,3.1-12.2,7.4
		C4028.1,430.4,4023.6,431,4019.9,432.6z"/>
	<path onclick="modals(this.id);" id="654" class="st0" d="M4206.2,652.6c4.5-1.8,8.7-3.5,13-5.2c3.5,2.1,1.3,10.7,9,7.4c4.5,11.1,8.8,22,13.3,33.1
		c-6,2.4-11.8,4.8-18.1,7.4C4217.8,681.3,4212.1,667.2,4206.2,652.6z"/>
	<path onclick="modals(this.id);" id="2304" class="st0" d="M4072.1,444.5c-3.6,7-6.9,14-10.7,20.9c-1.5,2.6-3.5,5.6-6,6.8c-2.3,1-7.2-5.2-8-8.8
		c-2.9-12.6-6-25.2-9.2-38.4c3.2-1.2,6.4-2.4,9.7-3.6C4051.3,434.6,4060.5,441.6,4072.1,444.5z"/>
	<path onclick="modals(this.id);" id="825" class="st0" d="M4492.4,1117.6c-8.6-0.7-15.5-1.3-22.9-1.9c0-5.4,0-10.4,0-15.6c-1.7-0.3-3.1-0.6-5.6-1.1
		c1.8-7.2,3.7-14.2,5.2-20.2c5.5,0.3,10.3,0.1,14.8,1.2c2.2,0.5,5,3.4,5.3,5.5C4490.6,1095.9,4491.3,1106.3,4492.4,1117.6z"/>
	<path onclick="modals(this.id);" id="762" class="st0" d="M4435.3,816.8c2.2,5.1,4.3,10,6.7,15.7c-15.2,6.1-30,12.1-45.3,18.3c-2.2-5.2-4.3-10.2-6.6-15.5
		C4405.2,829.1,4420,823,4435.3,816.8z"/>
	<path onclick="modals(this.id);" id="807" class="st0" d="M4429.5,997.4c2.8,1.5,4.8,3,7,3.6c1.8,0.5,3.8,0,5.8-0.1c3.7-0.2,8.2,4.8,11-2.1
		c0.8-1.8,6,0.1,6,2.4c0,3.4,1.9,4,4.6,4.4c3.2,0.4,6.3,1.3,9.5,2.1c-0.9,3.6-1.6,6.7-2.5,10.2c-1.9-0.6-3.8-0.6-4.9-1.6
		c-5-4.4-11-4.5-17-4.8c-5.8-0.3-10.9-2.6-16.1-5.3c-4.6-2.3-10.3-2.6-15.5-3.8c-2.1-0.5-4.3-0.9-7.4-1.5c-6.5-12.1-7.7-12.5-24-6.3
		c0.9-3.9,1.7-7.4,2.8-12.3c9.1,2.6,17.7,5.1,26.3,7.6c3.1,0.9,6.2,2.4,9.3,2.4C4428.8,992.4,4430,994.1,4429.5,997.4z"/>
	<path onclick="modals(this.id);" id="745" class="st0" d="M4412,764.1c3.9-1.5,7.4-3,11.6-4.6c3.3,8.5,6.6,16.9,10,25.2c3.4,8.2,6.9,16.4,10.5,24.9
		c-5.9,2.4-11.3,4.6-16.9,6.9c-2.3-5.7-4.6-11.3-6.9-17.1c1.5-0.7,2.7-1.4,4.5-2.2C4420.4,786.2,4416.3,775.4,4412,764.1z"/>
	<path onclick="modals(this.id);" id="3205" class="st0" d="M4042.8,461.2c-1.4,0.7-3.4,1.8-5.4,2.8c-3.6,1.7-6.9,3.3-8.3-2.8c-0.8-3.7-5.1-4.9-8.6-3.2
		c-1.2,0.6-2.3,1.5-3.6,1.6c-2.3,0.2-4.9,0.4-6.8-0.5c-0.7-0.3-0.5-4,0.2-5.8c1.8-4.5,4.3-8.8,6.3-13.3c2-4.4,6.5-5,10-7.1
		c3-1.7,6-3.3,9.3-5.2C4038.1,438.2,4040.4,449.5,4042.8,461.2z"/>
	<path onclick="modals(this.id);" id="765" class="st0" d="M4510.9,829.1c-5.4,2.2-10.8,4.3-16.8,6.8c-5-12.1-10-24.2-15.2-36.7c5.3-2.3,10.3-4.6,15.4-6.4
		c0.9-0.3,3.4,1.2,3.8,2.4c2.2,5.5,4,11.2,6,16.8C4506.4,817.8,4508.7,823.4,4510.9,829.1z"/>
	<path onclick="modals(this.id);" id="764" class="st0" d="M4491.1,836.8c-6.2,2.5-11.7,4.7-17.6,7.1c-4.8-11.9-9.7-24.1-14.6-36.5
		c6.1-2.5,11.5-4.6,17.2-6.9C4480.9,812.4,4485.8,824.2,4491.1,836.8z"/>
	<path onclick="modals(this.id);" id="3203" class="st0" d="M4051.5,419.8c8-2.7,15.6-5.3,24.1-8.1c4.7,5.9,9.6,12.1,14.6,18.4c-4.7,4.3-8.6,8-12.6,11.6
		c-0.5,0.5-1.5,0.7-2.3,0.6c-10-1-21-10.4-23.8-20.1C4051.3,421.6,4051.5,420.9,4051.5,419.8z"/>
	<path onclick="modals(this.id);" id="746" class="st0" d="M4394.1,794.1c-2.6-6.5-5.3-13.1-8.1-20c7.7-3,15.1-5.9,22.9-8.9c3.9,10,7.7,19.8,11.8,30.2
		c-4.1,1.7-7.9,3.3-11.8,4.9c-1.7-3-2.7-7.1-5.2-8.5C4401.7,790.8,4397.9,793.1,4394.1,794.1z"/>
	<path onclick="modals(this.id);" id="720" class="st0" d="M4413.9,724.8c-2.4-6-4.7-11.5-6.8-17.2c-0.3-0.8,0.4-2.7,1.1-2.9c6.7-2.6,13.4-5,20.2-7.2
		c1.5-0.5,4-0.2,5.1,0.8c5.1,4.7,9.9,9.7,15.3,15.1C4436.9,717.3,4425.7,721,4413.9,724.8z"/>
	<path onclick="modals(this.id);" id="760" class="st0" d="M4329.4,885.6c0-1.9,0-3,0-4.2c0-6.6,0-6.1,6.8-7.1c9.6-1.3,19.1-3.4,29-5.3
		c2.5,7.2,5.3,14.8,8.4,23.6C4358,890.2,4343.9,887.9,4329.4,885.6z"/>
	<path onclick="modals(this.id);" id="3209" class="st0" d="M4085.7,511.5c-5.4-4.5-10.9-8.8-16.2-13.4c-4.6-4-10.1-7.7-8.2-15.4c0.2-0.9-0.4-2.3-1-3.2
		c-1.8-2.6-1.3-4.6,1.1-6.6c1.2-1,1.7-2.7,2.7-4.4c1,0.4,2.3,0.6,2.9,1.3c3.1,3.5,6.8,6.8,8.8,10.9c1.7,3.6,4.2,5.8,7.2,8
		c4.6,3.4,8.8,7.3,12.9,10.7C4092.5,503.4,4089.3,507.1,4085.7,511.5z"/>
	<path onclick="modals(this.id);" id="759" class="st0" d="M4329.9,872.4c-1-4.5-1.8-7.8-2.7-11.6c5.2-2,11.2-3,15.2-6.3c3.4-2.9,4.6-8.5,6.7-12.9
		c0.8,1.1,1.7,2.5,2.7,3.9c2.8-1.1,5.3-2,7.9-3c1.5,3.6,3,7,4.4,10.4c-1.3,0.8-2.6,1.6-4,2.5c0.8,2.1,1.3,4.1,2.3,6
		c1.4,2.8,1.5,4.6-2.3,5.2C4350.3,868.4,4340.4,870.4,4329.9,872.4z"/>
	<path onclick="modals(this.id);" id="642" class="st0" d="M4222.3,643.1c-5.9,2.1-11.4,4.1-17.5,6.3c-3.8-9.2-7.6-18.5-11.3-27.3c2.2-2.6,3.8-5.3,6.1-7
		c2.4-1.9,5.4-3.2,8.3-4.4c0.4-0.2,2,1.1,2.3,2C4214.4,622.9,4218.4,633.1,4222.3,643.1z"/>
	<path onclick="modals(this.id);" id="738" class="st0" d="M4436.1,721.2c2.6-0.9,4.6-1.6,6.6-2.3c9-3.1,11-2.1,16.8,5.5c3.9,5.1,8.6,9.4,13.2,14.3
		c-7.6,2.8-14.8,5.6-22.2,8.1c-1.2,0.4-3.9-0.2-4.3-1C4442.7,737.8,4439.5,729.7,4436.1,721.2z"/>
	<path onclick="modals(this.id);" id="724" class="st0" d="M4280.9,766.6c-1.9-5.3-3.7-10.2-5.6-15.5c12-4.1,23.8-8.2,36.3-12.4c1.9,4.7,3.8,9.3,5.9,14.4
		C4305.4,757.5,4293.3,762,4280.9,766.6z"/>
	<path onclick="modals(this.id);" id="824" class="st0" d="M4465.9,1102.9c0,4.2,0,8.1,0,12.8c-9.8-1.1-19.8-2.2-30.6-3.4c0.4-5,0.8-10,1.3-15.2
		c4.8-1.8,11.2,1.8,14.9-4.6c-1.6-1.7-3.2-3.5-5.5-6.1c1.7,0,2.9-0.3,3.7,0.1c1,0.5,1.6,1.6,2.5,2.4c1.7,1.5,3.4,2.9,5.1,4.3
		c1.2-2.1,2.6-4.2,3.5-6.4c1.1-3,1.7-6.2,2.7-9.3c0.2-0.7,1.2-1.1,1.8-1.7c0.3,0.9,0.9,1.9,0.7,2.7c-1.3,5.2-2.8,10.3-4.2,15.5
		C4460.4,1098.9,4461.9,1101.9,4465.9,1102.9z"/>
	<path onclick="modals(this.id);" id="705" class="st0" d="M4305.6,736.9c1-4.1,2.2-8.6,3.6-14.1c11.7-2.7,15.2-15.5,23.3-23.9c1.6,0.8,3.1,1.5,5,2.3
		c-4.8,8.8,3.8,15.2,4.5,23.3C4329.6,728.7,4317.3,732.9,4305.6,736.9z"/>
	<path onclick="modals(this.id);" id="702" class="st0" d="M4254.1,706.6c2.6,6.7,5.3,13.8,7.7,20c-2.4,8.8-10.6,8.7-16.6,12c-2.6,1.4-3.9,1.3-5-2
		c-1.9-5.9-4.4-11.6-6.9-17.2c-1.4-3.1-0.8-4.1,2.5-5.2C4241.7,712.3,4247.3,709.5,4254.1,706.6z"/>
	<path onclick="modals(this.id);" id="625" class="st0" d="M4170.5,572c0.5-7.2,1.2-8.1,8.3-9.7c9.7-2.1,19.4-3.9,29.1-5.8c0.7-0.1,1.6,0.2,2.6,0.3
		c-1.9,8-3.8,15.7-5.7,23.7C4193.5,577.8,4182.2,575,4170.5,572z"/>
	<path onclick="modals(this.id);" id="3211" class="st0" d="M4100.8,499.7c6-6.9,11.5-13.3,17.3-20c-0.2,13.5,7.5,22.2,18.2,29.7
		c-3.3,3.6-6.7,7.3-10.4,11.3C4117.6,513.7,4109.5,506.9,4100.8,499.7z"/>
	<path onclick="modals(this.id);" id="721" class="st0" d="M4403.2,706.4c2.5,6.3,4.8,12.3,7.4,19.1c-8.2,3.3-16.4,6.6-25,10c-2.2-5.7-4.2-11.2-6.5-16.6
		c-1.2-2.8-0.4-3.6,2.3-4.5C4388.5,712,4395.4,709.2,4403.2,706.4z"/>
	<path onclick="modals(this.id);" id="744" class="st0" d="M4474.6,797.4c-8.4,3.4-16.5,6.9-24.7,9.9c-1.1,0.4-3.7-0.5-4.2-1.5c-2.1-4.7-3.7-9.7-5.5-14.8
		c9-3.7,17.9-7.3,27.4-11.1C4470,785.8,4472.1,791.2,4474.6,797.4z"/>
	<path onclick="modals(this.id);" id="737" class="st0" d="M4444.1,749c-6.5,2.2-12.3,4.2-18.1,6.2c-3.5-8.9-7-17.8-10.7-27.4c5.4-1.8,10.7-3.6,16.1-5.1
		c0.6-0.2,2.1,0.9,2.4,1.7C4437.1,732.3,4440.4,740.2,4444.1,749z"/>
	<path onclick="modals(this.id);" id="726" class="st0" d="M4259.7,777.8c4.8,5.6-0.9,7.4-4,9.8c2.3,5.6,4.7,10.8,6.7,16.1c2.6,7,0.2,10.2-7.1,9.8
		c-0.8,0-1.6-0.1-2.4-0.2c0.2-2,0.5-3.7,0.6-5.4c0.1-1.8,0-3.6,0-4.1c-3.2-3.5-5.6-6.2-8.3-9.2c-3.1,1.7-4.8-0.4-6.5-3.5
		c-2.2-4.1-4.9-7.9-7.6-12.1c3.2-1.9,6.1-3.6,9.5-5.7c0.9,3.3,1.6,6.2,2.7,10.4C4248.3,781.9,4254,779.8,4259.7,777.8z"/>
	<path onclick="modals(this.id);" id="722" class="st0" d="M4351.7,739.7c-1.6-4.2-3.1-8.1-4.8-12.5c9.5-3.5,18.7-6.9,27.8-10.3c2.4,6.1,4.8,12.4,7.5,19.4
		c-5.1,2.1-10.3,4.4-15.5,6.6C4361.2,735.2,4361.2,735.2,4351.7,739.7z"/>
	<path onclick="modals(this.id);" id="723" class="st0" d="M4343.6,727.5c2.6,7,5.1,13.6,7.9,21c-2.1-1.4-3.5-2.5-5.1-3.4c-2.2-1.3-3.5-1.7-6.5,0.5
		c-5.3,3.9-12.2,5.7-18.7,8.5c-2.4-6-4.5-11.4-6.9-17.2C4323.9,733.8,4333.4,730.8,4343.6,727.5z"/>
	<path onclick="modals(this.id);" id="3198" class="st0" d="M4073.4,408.9c-7.1,2.4-14,4.8-21.4,7.3c-3-9.6-6.1-19.4-9.4-29.8c3-1.3,6.1-2.7,9-3.9
		C4058.9,391.5,4066.2,400.2,4073.4,408.9z"/>
	<path onclick="modals(this.id);" id="624" class="st0" d="M4186.3,543.5c4.6-2.8,7.8-5.4,11.4-6.8c3.7-1.3,7.8-1.3,12.3-1.9c0.2-0.8,0.7-2.2,1.1-3.7
		c2.2,0.2,4,0.4,6,0.7c-1.6,6.4-3,12.7-4.8,18.9c-0.3,1.1-1.6,2.5-2.7,2.8c-5.5,1.5-11.1,2.6-16.6,3.8c-3.5,0.8-5.8,0.3-5.7-4.2
		C4187.4,549.5,4186.6,545.9,4186.3,543.5z"/>
	<path onclick="modals(this.id);" id="704" class="st0" d="M4276.1,726.3c9.3-3.7,17-6.8,24.6-9.8c9,9.8,2.2,21.5-7.1,25c-2.8,1.1-6.2,3.1-8.6,2.4
		c-2-0.6-2.8-4.7-4.1-7.3C4279.4,733.3,4277.9,730.1,4276.1,726.3z"/>
	<path onclick="modals(this.id);" id="3212" class="st0" d="M4088.4,513.2c2.6-3,5.2-6.2,8.1-9c0.9-0.8,3.4-1.4,4.1-0.9c7.8,6.5,15.4,13.2,23,19.7
		c-0.2,0.7-0.2,1-0.4,1.2c-2.7,2.7-6,8.1-8.1,7.7c-5-1-9.7-4.4-13.9-7.5C4096.6,521.2,4092.7,517.1,4088.4,513.2z"/>
	<path onclick="modals(this.id);" id="698" class="st0" d="M4317.5,713.6c-3.4-8.9-6.4-16.7-9.2-24.5c-1.3-3.7-2.7-6-6.9-3.1c-1.2,0.9-3,1-5.1,1.7
		c3.8-5.6,9.2-7.5,14.7-9c1.4-0.4,3.4,0.2,4.6,1.1c4.1,3,8.1,6.2,11.9,9.5c3,2.7,3.6,5.9,0.9,9.4
		C4324.9,703.1,4321.7,707.8,4317.5,713.6z"/>
	<path onclick="modals(this.id);" id="742" class="st0" d="M4488.2,791.8c-1-2.4-1.8-4.4-2.8-6.6c1.4-0.8,2.7-2,4.2-2.2c5.3-0.9,5.6-3.8,3.9-8.1
		c-2.1-5.1-3.8-10.4-6.2-15.4c-0.6-1.1-3.2-1.3-4.5-1.8c5.6-3.9,5.6-3.9,10.6,1.1c7.3,7.2,14.7,14.5,22.2,21.9
		C4506.1,784.5,4497.3,788.1,4488.2,791.8z"/>
	<path onclick="modals(this.id);" id="3210" class="st0" d="M4147.1,496c-2.8,3.6-5.5,7-8.2,10.4c-14.4-6.1-22.4-27.7-13.2-36.2
		C4132.8,478.8,4139.9,487.3,4147.1,496z"/>
	<path onclick="modals(this.id);" id="677" class="st0" d="M4285,677.9c-0.5,2.3-0.2,5.6-1.6,6.8c-4.7,3.9-6.2,7.8-2.4,13c0.3,0.4,0.3,0.9,0.3,1.4
		c0,0.2,0,0.3-0.1,0.8c-5.1,1.9-10.4,3.9-16.1,6c-2.2-5.2-4.3-10.1-6.3-15c1.3-3.6,7.9-4.9,4.2-11.1c7.4,1.3,14.1,2.3,20-3.1
		C4283.7,677.2,4284.3,677.6,4285,677.9z"/>
	<path onclick="modals(this.id);" id="747" class="st0" d="M4406.4,804c3.3-1,6.7-2.1,10.6-3.3c1,2.4,2.3,5.1,3.4,7.9c1.1,2.8,2.1,5.8,3.5,9.4
		c-5.6,2.4-11,4.6-17,7.2c-3.9-9.4-7.5-18.2-11.3-27.5c2.2-1,4.3-1.9,7-3.1C4403.6,797.3,4404.8,800.1,4406.4,804z"/>
	<path onclick="modals(this.id);" id="675" class="st0" d="M4242.8,690.7c2.7,4.6,4.9,4.9,13,1.6c1.5,3.5,3,6.9,4.9,11.3c-2-0.4-3.4-0.7-4.7-0.8
		c-1.3-0.1-3.2-0.6-3.8,0c-5.2,5.6-12.9,5.7-19.2,8.7c-2.3,1.1-3.1,0.6-3.8-1.7c-1.1-3.9-4.3-8.1-3.3-11.3c0.7-2.4,6.4-3.4,9.9-5
		C4238.1,692.7,4240.4,691.8,4242.8,690.7z"/>
	<path onclick="modals(this.id);" id="3181" class="st0" d="M3996.5,239.4c11-6.3,22-12.5,33.4-19c1.9,2.7,3.8,5.5,5.9,8.5c-9.4,5.5-18.3,10.9-27.4,16
		C4000.1,249.6,3998.7,248.9,3996.5,239.4z"/>
	<path onclick="modals(this.id);" id="757" class="st0" d="M4287.9,884.4c-1.4-3.3-2.8-6.4-4.6-10.6c13.4-4.1,26.7-8.1,41.1-12.5c0.5,4.6,0.9,8.1,1.3,11.8
		c-5.1,0.3-10-0.4-14.2,1C4303.5,876.9,4295.9,880.9,4287.9,884.4z"/>
	<path onclick="modals(this.id);" id="657" class="st0" d="M4268,665.6c-2.4,1-4.2,1.8-6,2.5c-5.1-5.9-7-6.3-15.4-3c-1.9-5-3.8-10.1-5.7-15.2
		c5.9-2.4,11.9-4.7,18.2-7.2C4262,650.4,4265,657.9,4268,665.6z"/>
	<path onclick="modals(this.id);" id="756" class="st0" d="M4294.5,909.9c-6-1.3-10.5-0.9-14.8-6.4c-4.6-6-4.4-12.6-7.2-18.5c-0.7-1.4-1-3.1-1.5-5
		c2.3-1,4.8-2.4,7.5-3.2c0.9-0.3,2.9,0.8,3.3,1.7C4286,888.6,4290.1,898.8,4294.5,909.9z"/>
	<path onclick="modals(this.id);" id="750" class="st0" d="M4364.4,807.9c-5.3,2.2-10.6,4.5-16.1,6.4c-0.9,0.3-3.1-1.1-3.5-2.2c-3.4-7.7-6.5-15.6-10.2-24.8
		c5.6-0.7,10.5-1.2,16.1-1.9c-0.7,4.9-0.6,8.4-1.7,11.6c-1.6,4.5,0.8,4.8,4.2,5.5c3.9,0.8,7.7,2.4,11.6,3.7
		C4364.6,806.8,4364.5,807.4,4364.4,807.9z"/>
	<path onclick="modals(this.id);" id="752" class="st0" d="M4379.9,819.8c4.7,9.7,4.6,9.5-5.1,13.1c-7.2,2.6-14.2,5.8-21.8,8.9c-0.7-1.8-1.3-3.6-2.2-5.2
		c-0.6-1.1-1.4-2.6-2.4-2.8c-5.3-1.3-5.4-1.4-2.7-6.1c0.3-0.6,0.8-1,1.1-1.5c0.8,1.7,1.7,3.4,2.7,5.6
		C4359.8,827.7,4369.7,823.8,4379.9,819.8z"/>
	<path onclick="modals(this.id);" id="699" class="st0" d="M4307.1,720.1c-2.9-2.3-0.8-9.8-8.1-6.7c-2.2-5.5-4.4-11-6.4-16.6c-0.3-0.8,0.6-2.6,1.4-3.2
		c2.9-2,6-3.7,9.8-5.9c1.3,3.8,2.4,6.9,3.6,10c1.5,4.2,1.9,8.6,5.4,12.3c3.9,4.1,2.7,6.6-2.8,8.6
		C4309.1,719,4308.1,719.6,4307.1,720.1z"/>
	<path onclick="modals(this.id);" id="622" class="st0" d="M4208.4,526.4c-0.2,5.8-2.4,6.9-11.3,5.6c0.9-1.8,1.6-3.4,2.7-5.7c-1-0.6-2.6-1.7-4.4-2.8
		c0.6-2.2,1.6-4.4,1.9-6.8c0.5-4.2,3.7-4.2,6.5-4.3c4-0.1,8,0.1,12,0.5c0.9,0.1,2.4,1.4,2.5,2.2c0.2,4.3,0.1,8.6,0.1,13.8
		C4214.9,527.9,4211.8,527.2,4208.4,526.4z"/>
	<path onclick="modals(this.id);" id="710" class="st0" d="M4399,704.7c-1.1-3-2.2-5.6-3.1-8.2c-0.3-0.8-0.4-2.5-0.1-2.6c4.3-1.6,1.4-4.2,1-6.4
		c-0.3-1.4-0.9-2.7-1.5-4.5c4.1-1.7,8.2-3.5,12.4-5.3c2.9,6.6,5.7,13.3,8.9,20.6C4410.8,700.4,4405.1,702.5,4399,704.7z"/>
	<path onclick="modals(this.id);" id="749" class="st0" d="M4352.4,781.2c2.4-0.9,6.1-2.3,10.5-4c3.4,8.3,6.9,16.5,10.1,24.7c0.3,0.8-0.1,2.8-0.7,2.9
		c-1.3,0.4-2.9,0.5-4.1,0c-4.8-1.9-9.6-4-14.2-6.4c-0.9-0.4-1.6-2.2-1.6-3.3c0.1-2.8,1-5.5,1.1-8.2
		C4353.7,785.1,4352.9,783.4,4352.4,781.2z"/>
	<path onclick="modals(this.id);" id="3190" class="st0" d="M4063.3,299.6c9.2,3,9.2,3,7.2,12.1c-1.2,5.6-1.9,11.4-3.8,16.7c-0.9,2.4-4.3,3.8-6.8,5.9
		c-2.3-2.7-4.2-4.8-5.1-9.2c-0.9-4.9,1.2-6.5,3-9.8C4060.3,310.6,4061.4,305.1,4063.3,299.6z"/>
	<path onclick="modals(this.id);" id="676" class="st0" d="M4273.6,666.9c1.2,3.1,2.4,6.1,4.1,10.6c-3.4,0-6.2,0.2-9,0c-2.9-0.2-5.8-0.7-8.1-1.1
		c-1.1,4-1.2,8.4-3.4,10.8c-2.2,2.3-6.6,2.6-10.1,3.8c-2.1-4.2-3.8-7.6-5.8-11.6C4252.1,675.3,4262.6,671.2,4273.6,666.9z"/>
	<path onclick="modals(this.id);" id="730" class="st0" d="M4285.7,776.7c3.3-2.3,6.7-6.4,11.5-2.4c0.9,0.7,3.6-0.7,6-1.3c1.5,5.5-2.5,9.9-3.7,14.7
		c-0.7,2.7-2.5,5.3-4.3,7.6c-0.8,1.1-2.6,1.9-4,2.1c-0.8,0.1-2.1-1.3-2.6-2.3c-2.1-4.4-3.9-8.9-5.8-13.4
		C4283.7,780.2,4284.7,778.4,4285.7,776.7z"/>
	<path onclick="modals(this.id);" id="659" class="st0" d="M4262.1,641.6c4.1-1.6,8-3.2,12.2-4.9c3,7.3,6,14.5,9.2,22.3c-3.9,1.6-7.9,3.2-12.5,5.1
		C4268,656.6,4265.2,649.4,4262.1,641.6z"/>
	<path onclick="modals(this.id);" id="709" class="st0" d="M4392.4,684.2c0.7,3.3,4.3,5.8-0.3,8.4c-0.4,0.2-0.3,2.1,0,3.1c1.1,3.4,2.4,6.7,3.6,10.1
		c-1.8,0.7-3.3,1.4-4.8,1.9c-2.6,1-5.3,2.8-7.7,2.4c-1.7-0.3-2.7-3.7-4.3-5.6c-0.9-1.1-2.2-1.7-3.2-2.5c1.8-1.4,5-2.7,5.5-4.7
		c0.5-2.2-1.4-5.1-2.4-8.1C4383,687.7,4387.4,686.1,4392.4,684.2z"/>
	<path onclick="modals(this.id);" id="751" class="st0" d="M4378.7,816.8c-9.3,3.7-18.4,7.3-27.5,10.9c-1.4-3.2-2.7-6.2-4-9.4c8.3-3.3,16.2-6.5,24.2-9.7
		c2.8-1.1,5-1.4,5.5,2.6C4377,813.1,4378,814.8,4378.7,816.8z"/>
	<path onclick="modals(this.id);" id="660" class="st0" d="M4288.5,631.3c2.8,6.5,5.2,12.6,8.1,18.6c1.3,2.7,0.8,3.9-1.8,4.9c-2,0.8-3.8,1.9-5.8,2.4
		c-1,0.2-2.9-0.4-3.2-1.1c-2.8-6.8-5.3-13.7-8-20.7C4282,633.7,4285.3,632.5,4288.5,631.3z"/>
	<path onclick="modals(this.id);" id="679" class="st0" d="M4321.7,676.3c-7.9-0.9-16.1-2.5-22.2,3.8c-5.3,5.5-9.4,12-14.2,18.3c-3.8-3.6-2.7-7.6,0.2-11.1
		c2.7-3.4,3.8-6.8,2.3-12.2c1.8,0.6,3.6,1.1,5.3,1.7c0.5,0.2,0.8,0.6,1.3,0.7c2.5,0.5,12.4-6.2,14.1-8.1c2-2.3,5.2-3.5,8.1-5.4
		c-0.7,2.4-1.9,4.4-1.4,5.6C4316.3,672.4,4316.6,676.6,4321.7,676.3z"/>
	<path onclick="modals(this.id);" id="700" class="st0" d="M4273.2,706.3c5.5-2,10.4-3.8,15.5-5.7c1.9,3.4,3.7,6.6,5.7,9.7c2.2,3.5,0.6,5.3-2.8,6.5
		c-3.8,1.4-7.6,2.9-11.9,4.5C4277.7,716.6,4275.7,711.9,4273.2,706.3z"/>
	<path onclick="modals(this.id);" id="680" class="st0" d="M4280.2,674.8c-1.2-3.3-2.3-6.1-3.6-9.6c5.7-2.1,11.4-4.3,17.2-6.2c0.6-0.2,2.1,1.3,2.7,2.4
		c1.8,3.3,3.3,6.7,4.9,9.9c-2.2-0.2-5.2,5.1-8.4-0.2c-0.2-0.4-3.1,0.9-4.8,1.4C4285.4,673.3,4282.8,674,4280.2,674.8z"/>
	<path onclick="modals(this.id);" id="6821" class="st0" d="M4358.5,654.1c3.7,6.8,3.7,6.8,14.6,4c-1.3,2.2-1.7,4.2-2.8,4.7c-4.5,2.2-9.2,4.2-13.9,5.9
		c-0.7,0.3-2.6-1.1-3-2.1c-1.3-3.6-2.8-5.1-6.9-3c-2.6,1.3-6,1.1-9.2,1.6c-1.3-2.3-2.5-4.5-3.7-6.6c7.2,7.8,12.7-1,18.8-1.8
		C4354.6,656.5,4356.4,655.1,4358.5,654.1z"/>
	<path onclick="modals(this.id);" id="733" class="st0" d="M4312.6,768.8c4.9-2.6,4.8-4.4,0.9-10.2c4.1-3,4.8-3,6.6,1.5c3.5,8.6,6.7,17.2,10.3,26.5
		c-3.1,1.3-6.3,2.7-9.5,4.1c-1.6-4.3,1.5-9.2-3.3-12.2c-0.4-0.3,0.3-2.7,0.8-4.1C4320.5,768.2,4318.5,768.3,4312.6,768.8z"/>
	<path onclick="modals(this.id);" id="682" class="st0" d="M4320.6,649.2c1.4,3,2.6,5.7,3.9,8.6c-7.1,3-14.2,5.9-21.9,9c-1.5-3.3-2.9-6.4-4.3-9.5
		C4305.9,654.6,4313.2,651.9,4320.6,649.2z"/>
	<path onclick="modals(this.id);" id="656" class="st0" d="M4256.1,664.9c0.7,1.4,1.4,2.7,2.2,4.4c-5.9,2.2-11.7,4.5-18.1,6.9c-2.9-7.3-5.8-14.7-8.7-22.1
		c2.3-0.9,4.3-1.7,6.4-2.6c1.4,3.9,2.9,7.6,4.3,11.4c2.3,6.4,2.4,6.4,8.5,4C4252.3,666.2,4254,665.7,4256.1,664.9z"/>
	<path onclick="modals(this.id);" id="701" class="st0" d="M4276.6,722.9c-1.8,0.7-3.2,1.2-4.5,1.6c-6.7,2.3-6.8,2.3-9.4-4.4c-1.6-4.2-3-8.5-4.4-12.3
		c3.7,0,7.1-0.2,10.4,0.1c0.9,0.1,2.2,1.1,2.6,2C4273.2,714,4274.8,718.3,4276.6,722.9z"/>
	<path onclick="modals(this.id);" id="755" class="st0" d="M4278.5,906.9c-8.3,1.3-10.6,0-13.1-7.2c-0.9-2.4-2-4.8-3-7.2c-0.9-2.4-1.7-4.9-2.7-7.7
		c2.6-1.1,5.2-2.3,8.2-3.6C4271.3,889.8,4270.2,900.1,4278.5,906.9z"/>
	<path onclick="modals(this.id);" id="707" class="st0" d="M4345.5,712.2c4.3-1.7,7.6-3.5,11.2-4.1c2.9-0.5,6.5-0.3,7.5,3.9c0.4,1.6,0.9,3.1,1.5,5.2
		c-6.7,2.3-13.2,4.6-19.9,7C4342.7,720.1,4352.5,716.6,4345.5,712.2z"/>
	<path onclick="modals(this.id);" id="728" class="st0" d="M4286.4,799c-5.4,2.3-10.7,4.5-16.2,6.8c-0.9-2-2-3.5-2.1-5.2c-0.1-1.5,0.5-3.4,1.5-4.6
		c1.2-1.5,3.1-2.4,4.5-3.7c5-4.9,8.9-4.1,10.9,2.3C4285.4,796,4285.9,797.3,4286.4,799z"/>
	<path onclick="modals(this.id);" id="708" class="st0" d="M4368.3,715.7c-1.4-6.7-2.8-13.1-4.4-20.2c3.6-1.5,7.6-3.1,11.8-4.8c0.8,2.6,1.3,4.2,1.9,6.3
		c-2.4,1-4.8,1.6-6.8,2.9c-1.1,0.7-1.9,2.2-2.2,3.5c-0.1,0.5,1.7,1.8,2.7,2c5,0.9,5,0.8,7,6.4C4375.4,713,4372.5,714.1,4368.3,715.7
		z"/>
	<path onclick="modals(this.id);" id="731" class="st0" d="M4299.9,794.5c1.4-3.1,2.1-7.8,4.9-10c2.7-2.2,7.5-1.8,11.3-2.6c0.3,3.5,1.7,7.4,0.5,10.2
		c-0.7,1.7-5.5,1.9-8.4,2.3C4305.5,794.8,4302.7,794.5,4299.9,794.5z"/>
	<path onclick="modals(this.id);" id="706" class="st0" d="M4343.5,717.3c-1.3-2.6-3-5-3.9-7.7c-1.6-5.3,0.4-7.3,5.9-8.2c4.9-0.8,9.6-2.7,15-4.2
		c0.5,1.2,1.7,2.9,1.7,4.6c0,1.1-1.6,2.7-2.8,3.1c-5.2,1.6-10.5,2.6-15.7,4.2c-0.6,0.2-1,2.3-0.8,3.3c0.3,1.5,1.2,2.9,1.8,4.3
		C4344.3,716.9,4343.9,717.1,4343.5,717.3z"/>
	<path onclick="modals(this.id);" id="732" class="st0" d="M4313.3,764.3c-1.5,1-2.5,1.7-4.2,2.7c1.4,3.2,2.8,6.5,4.6,10.6c-1.5,0.6-3.8,1.5-6.5,2.5
		c0.5-6.3-2-11.7-7.3-16.8C4307.2,758.7,4310.4,758.9,4313.3,764.3z"/>
	<path onclick="modals(this.id);" id="727" class="st0" d="M4282,776.8c-6.7,2.1-0.9,6.5-2.5,10.2c-1-4.9-3.4-4.5-7-3.7c-6.7,1.4-7.6,0.4-9-7.5
		c3,0.2,6,0.7,9,0.5C4275.4,776.1,4278.3,772.6,4282,776.8z"/>
	<path onclick="modals(this.id);" id="711" class="st0" d="M4414.1,677.9c4.2,5.7,8.5,11.3,12.7,17c0.5-0.3,1.1-0.7,1.6-1c-2.8,1.1-5.6,2.2-8.5,3.3
		c-2.6-6-5.3-11.9-7.9-17.8C4412.7,678.9,4413.4,678.4,4414.1,677.9z"/>
	<path onclick="modals(this.id);" id="802" class="st0" d="M4262.9,796.7c-1.2-3.1-2.2-5.5-3.6-8.9c4.9-0.6,9.5-1.1,14.2-1.7c0.3,0.6,0.6,1.2,0.9,1.8
		C4270.7,790.7,4267.1,793.5,4262.9,796.7z"/>
	<path onclick="modals(this.id);" id="729" class="st0" d="M4279.3,770.7c4.3-1.6,8.2-2.7,11.7-4.5c4.9-2.6,7.9-1.1,10.4,3.7c-3.7,0-7.3-0.2-10.8,0.1
		C4287,770.2,4283.8,774.4,4279.3,770.7z"/>
	<path onclick="modals(this.id);" id="776" class="st0" d="M4279.1,963c1.9,6.8,3.4,13.2,5.4,19.5c0.6,1.9,2.1,3.9,3.8,4.8c4.2,2.3,8.7,4,13.1,5.9
		c-0.2,0.4-0.4,0.9-0.5,1.3c-4.2-1.5-8.2-3.8-12.5-4.5c-13.1-2.2-26.2-3.5-36.4,8.2c-1.8,2.1-5.5,5.3-6.7,4.8
		c-4.3-2.1-9.8-3.4-10.9-9.5c-0.7-3.8-2.2-7.5-2.7-11.3c-0.1-1.1,1.9-3.1,3.3-3.6c12.5-4.5,25.1-8.7,37.7-13.1
		C4274.3,964.9,4276,964.2,4279.1,963z M4303.9,996.5c9.4,7.2,15.4-2.1,22.6-4.4C4319,993.5,4311.6,995,4303.9,996.5z"/>
</g>
</svg>
