<?xml version="1.0" encoding="utf-8"?>
<!-- Generator: Adobe Illustrator 19.0.0, SVG Export Plug-In . SVG Version: 6.00 Build 0)  -->
<svg version="1.1" id="Layer1" xmlns="http://www.w3.org/2000/svg" xmlns:xlink="http://www.w3.org/1999/xlink" x="0px" y="0px"
	 viewBox="0 0 13000 6500" style="enable-background:new 0 0 13000 6500;overflow: hidden; display: inline; width: inherit; min-width: inherit; max-width: inherit; height: inherit; min-height: inherit; max-height: inherit;" xml:space="preserve">
<style type="text/css">
	.st0{fill:#8FD4EB;stroke:#000000;stroke-width:4;}
</style>
<g>
	
	<path onclick="modals(this.id);" id="3216" class="st0" d="M7104.9,2798.2c-1.2,3-2.4,6.8-4.1,10.3c-41.9,84-85.3,167.3-125.7,252.1
		c-28.7,60.1-55.9,120.9-83.7,181.4c-17.8,38.7-36.2,77.2-56,114.9c-16.1,30.7-35.7,59.4-57.1,86.7c-37,47.2-74.1,94.3-111.3,141.4
		c-4,5.1-6.8,11.6-13.6,13.8c-0.8-0.2-1.7-0.1-2.1-0.5c-13.3-13.7-30.8-20.2-47.4-28.3c-33.5-16.4-67.1-32.6-100.6-49
		c-4.8-2.3-9.3-5.1-14.2-7.8c-3.4-22-6.8-43.6-6.1-65.7c0.7-21.8,3.7-43.5,4.8-65.7c-5.3-1.8-8.9-3.3-12.6-4.4
		c-42.8-12.7-86.5-21.8-130.3-30.6c-12.3-2.5-22.5-7.5-32.2-14.8c-25.5-19.3-50-39.8-72.7-62.4c-19.4-19.2-39.2-38-58.8-57.1
		c-3.3-3.2-6.3-6.9-9.2-10.5c-3.4-4.1-6.9-8.2-9.9-12.6c-29-42.1-65.5-76.8-105.4-108.5c-8.4-6.6-16.4-10.2-27.1-9.9
		c-45.3,1.2-90.6,1.4-135.8,3c-13.9,0.5-27.7,3.9-41.5,6.1c-9.2,1.4-18.3,2.9-27.9,4.5c-15.2-15.6-30.1-30.8-44.9-46.1
		c-15.3-15.8-30.6-31.6-45.8-47.5c-5.1-5.4-10.7-9.8-17.7-12.6c-27.9-11.1-55.7-22.1-83.4-33.6c-7.4-3.1-13.8-3.3-20.9,0.6
		c-11.1,6.1-22.6,11.5-33.7,17.5c-3.5,1.9-6.6,4.5-9.4,7.3c-11,10.7-21.6,21.8-32.6,32.4c-5.3,5.1-6.9,10.9-6.4,18
		c1.5,18.6,2,37.3,4.1,55.8c1,8.8-1.2,15.5-6.4,22.1c-5.7,7.4-10.9,15.1-16.4,22.7c-3.3,4.6-7.5,7.3-13.3,7.5
		c-15.9,0.7-31.9,1.7-48.7,2.6c-3.5-5.2-6.9-9.9-10-15c-11-18.3-22-36.5-32.5-55.1c-4.2-7.5-9.9-12.1-18-14.5
		c-13.4-4.1-26.7-8.4-39.8-13.1c-6.3-2.3-11.6-1.5-17.1,1.8c-13.6,8.4-27.1,16.9-40.9,25.1c-6.1,3.6-10.1,9-12.5,15.2
		c-7.4,19.6-21.8,31.1-41,37.6c-3.1,1.1-6.1,2.8-9.1,4.1c-32,13.6-62.5,29.9-89.8,51.6c-9.5,7.6-19.6,10-31.5,9.5
		c-16-0.7-32-0.2-48.8-0.2c-7.9,7.7-16,15.5-24,23.5c-13.1,13.2-26.3,26.5-39.1,40c-5.7,6.1-12.5,9.6-20.4,11.6
		c-15.5,3.9-30.9,8.4-46.4,12.1c-7.3,1.8-13.8,4.9-19.4,9.7c-1,0.9-2.1,1.7-3.1,2.6c-28.6,25.4-61,45-95,62.2
		c-24.9,12.7-49.4,26.3-74,39.5c-4.7,2.5-9.4,4.8-15.1,7.7c-2.7-2.9-5.6-5.5-7.8-8.6c-8.2-11.7-11-25.6-14.3-39.1
		c-1-4.2-0.1-9.4,1.4-13.6c8-22.2,10-45.4,11.8-68.7c0.7-9.5,0.4-18.6-2.7-27.6c-1.3-3.8-1.8-7.8-3.1-11.6
		c-7.9-23.6-12.5-47.6-10.4-72.6c1.2-15.3-5.5-28.4-11.1-40.8c-7.8-4.6-13.9,0.7-20.4,0.7c-6.2-0.1-11.6-3.1-11-8.9
		c1.9-20.7-8.6-37.1-16.9-54.5c-5.2-10.8-8.9-22.3-14.1-33c-4.6-9.5-9.9-18.8-15.7-27.7c-6.2-9.3-9.3-18.5-6.7-30
		c3.9-17.1,0.8-33.3-11.7-46.3c-11.9-12.4-16-27-16.5-43.6c-0.3-7.9-1.6-15.9-3.7-23.6c-10.5-39.3-20.1-78.7-26.8-118.8
		c-1.9-11.4-5.1-22-13-30.8c-6.7-7.4-6.2-15.1-2.3-24c3.9-9.1,6.5-18.8,8.8-28.4c1.9-7.8,1.4-15.8-1.3-23.6
		c-14.7-42.5-20.5-86.7-25.4-131.1c-0.9-8.2-3.3-15.3-7.6-22.4c-10.4-17-19.7-34.8-30.5-51.6c-10.7-16.8-22.3-33.1-34.1-49.2
		c-7.3-10.1-18.5-15.1-30-18.9c-10.7-3.6-21.7-6.5-32.6-9.5c-17.5-4.8-33.7-11.5-46.7-25.3c-7.2-7.7-17-12.9-20.7-23.6
		c-0.8-2.4-1.4-5-2.4-8.9c26.2-10.6,53.5-16.6,79.9-26.7c0-4.4,1-8.6-0.2-12c-4.5-13,0.9-21.9,11.1-29c10.4-7.2,20.9-14.2,31.3-21.4
		c1.6-1.1,3-2.5,4.3-3.6c0.3-1.6,1.1-3.1,0.8-4.2c-4.7-13.7-9.3-27.2-10.2-42.1c-0.8-13.8-6.4-27.2-8.7-41
		c-2.4-14.4-9.2-25.4-19.5-35.9c-18.4-18.8-39.2-34.2-61.6-47.4c-8.4-5-18.3-7.6-27.8-10.6c-6.3-2-13-2.6-20.4-4
		c-3.6-11.5-12.7-16.8-24.1-20.4c-15.7-5-27-16.8-38-28.4c-1.8-1.9-3.4-4.4-3.8-6.9c-2-10.9-9.2-16.8-17.9-22.6
		c-9.4-6.2-18.4-12.7-29.5-15.7c-2.9-0.8-5.2-3.8-8.4-6.2c0.6-3.4,0.8-6.7,1.6-9.8c1.7-6.4,0.1-11.7-3.8-16.8
		c-2.8-3.7-5.1-7.8-7.9-11.5c-4.5-6.1-7.1-12.6-6.8-20.4c0.3-6.7-1-13.1-4.2-19.2c-2.1-4-2.7-8.9-3.1-13.5
		c-4.4-45.1-8.8-90.2-12.9-135.3c-1.4-15.8-5.4-31.5-2.9-47.7c3.4-22.4,5.2-45,9.1-67.2c3.2-18.5,5.9-36.8,1.5-55.4
		c-0.8-3.2-2-6.9-1.2-9.8c3.3-12.2,2.9-23.6-5.5-33.8c-0.4-11.3-1.4-22.5-1.1-33.8c0.2-8.7,0.9-16.9-4.9-24.7
		c-2.8-3.8-3.2-10-3.2-15.2c0-13.8-3.2-26.3-11.9-37.2c-1.2-1.5-1.7-3.6-3-6.3c1.6-5.7,2.7-12.3,5.3-18.3
		c5.7-13.1,3.9-25.6-0.2-38.8c-29.2-96.2-58-192.6-87-288.9c-0.8-2.5-1.7-5.1-2.5-7.6c-2.2-6.7-2.3-13,2.4-18.9
		c1.7-2.1,2.8-4.5,4.3-6.7c38.6-59.9,77.1-120,115.9-179.7c9.5-14.6,17.6-29.6,22.1-46.6c5.4-20.6,12.2-40.8,18.8-61.1
		c3.2-9.8,4-19.2,1.9-29.4c-2.8-13.6-4.3-27.4-6.5-42.5c39.5-10.5,79.6-13,118.1-23c3.5-9,2.7-17.3,0.8-26.8
		c-4.3-0.5-8.1-1-11.9-1.3c-3.9-0.3-7.8-0.4-11.5-0.6c-3-15-3.4-53.8-0.7-75.5c15.6-3.1,31.7-6.3,47.3-9.5
		c7.2-9.3,0.7-20.6,6.8-30.3c8.9-2.5,18.8-2.8,28.6-3.5c24.6-1.7,49.2-2.8,73.7-5.3c23.8-2.4,47.6-5.9,71.3-9.4
		c9.2-1.4,18.3-3.5,27.2-6.2c82.8-25.5,166.9-46.1,250.5-68.3c39.3-10.4,78.4-21.5,117.3-32.9c8.4-2.5,15.2-2,22.8,1.9
		c33.1,17.1,66.6,33.7,99.7,50.8c8.3,4.3,16.1,9.4,23.7,14.7c36.7,25.5,73.3,51,109.7,76.8c9.3,6.6,19.1,11.9,29.9,15.7
		c143.8,50.8,286.6,104.3,428.7,159.7c23.3,9.1,23.4,9.1,47.5,0.7c34-11.8,68-23.4,101.8-35.7c15.8-5.8,31.9-9.1,48.5-10.9
		c27.1-3.1,54.3-6.2,81.4-9.1c7.4-0.8,14.3-2.5,20.7-6.5c3.3-2.1,7-3.6,11.7-5.9c2.8,4.1,5.8,7.4,7.7,11.4
		c25.6,53.4,51.3,106.9,76.4,160.6c5,10.6,11.7,18.9,20.8,26.1c73.9,59.2,147.4,118.8,221.3,177.8c10.8,8.6,18.1,18.4,23,31.5
		c36.8,98.6,75.4,196.5,110.9,295.6c23.9,66.8,55,129.9,87.9,192.4c19.9,37.7,41.2,74.7,55.9,114.9c8.5,23.3,19.3,45.3,31.7,66.6
		c3.7,6.3,6.5,13.1,9.4,19.8c31.1,70,62,140,93.4,209.9c11.7,26.1,24.9,51.5,36.6,77.6c17.1,38.3,33.3,77,50.2,115.4
		c9.4,21.3,19.5,42.3,29.4,63.4c3.7,7.8,7.7,15.5,11.2,23.4c21.3,48.1,45.7,94.7,69.3,141.7c8.6,17.2,16.2,35,25,52.2
		c21.4,42.2,37.3,86.8,56.4,130c29.6,66.9,61.1,133,91.6,199.6c3.6,7.8,6,16.2,9.1,24.3c2.4,6.2,4.7,12.4,7.7,18.4
		c6.5,13.1,13.3,26.1,20.2,39.1c9.4,17.8,20.6,34.2,37.9,45.5C7103.1,2794.8,7103.6,2796.2,7104.9,2798.2z"/>
	<path onclick="modals(this.id);" id="3219" class="st0" d="M7808.7,2904.2c-16.5-12.8-32.2-25.1-47.9-37.3c-15.6-12.1-31.2-24.1-47.9-37.1
		c3.5-1.6,6.2-3.2,9.2-4.1c13.9-4.6,27.9-8.9,41.8-13.5c3.7-1.2,7.6-2.7,10.7-5.1c1.3-1,1.7-5.3,0.7-6.9c-1.7-2.6-4.8-4.5-7.6-6.1
		c-34.7-19.9-69.6-39.4-104-59.6c-8.7-5.1-15.8-5-23.8,0.7c-4.8,3.4-10.6,5.5-15.9,8.3c-15.9,8.3-31.8,16.6-46.6,27
		c-33.7,23.9-67.8,47.2-101.9,70.5c-8.3,5.7-15.8,12.1-22.1,20c-17,21.3-34.3,42.4-52.6,65.1c-12.2-2.4-25.1-6-36.6-14.7
		c-7.3-5.6-15.6-10.1-24-14c-17.5-8.3-35.2-15.8-52.9-23.6c-5.4-2.4-10.6-5.8-18.5-3.4c-1.9,2.7-4.8,6.3-7.1,10.3
		c-11.9,20.8-23.3,41.9-35.5,62.6c-6.9,11.6-12,23.7-14.4,37c-2.1,11.4-6.9,21.1-16.1,28.9c-16.8,14.4-29.9,32-41.8,50.7
		c-12.9,20.2-26.6,40-39.8,60c-6.7,10.1-14.9,18.6-25.3,26.4c-8.8-4.4-17.6-8.9-25.8-13c0.2-11.1,10.5-17.2,8.6-29.2
		c-24.6-17.4-55.4-25.3-83.3-41.1c1.5-4,2.6-7.8,4.2-11.2c44.2-92.6,91.1-183.8,138.3-274.8c35.3-68,70.5-136,104.7-204.6
		c27.3-54.8,53.2-110.4,79.4-165.8c37-78.3,73.3-156.9,112.7-234c20-39.1,39-78.8,58.7-118c29.3-58.3,59.1-116.4,88.2-174.8
		c29.5-59,59.2-117.9,87.4-177.4c15.7-33.1,28.5-67.5,42.4-101.3c13.7-33.3,26.4-66.9,40.8-99.9c10.4-23.7,22.4-46.9,34.7-69.7
		c51.1-95.1,97.8-192.3,144.8-289.5c1.4-3,3.1-5.8,4.5-8.5c8.1-0.8,12.9,4.5,18.4,7.8c89.3,54.5,178.5,109.2,267.6,163.9
		c115.3,70.7,230.5,141.5,345.8,212.3c4.5,2.8,8.8,5.8,13.4,8.9c-0.2,6.8-4.5,11.4-7.4,16.3c-30.9,52.2-62,104.2-92.9,156.4
		c-3.7,6.2-8.7,11.8-9.1,19.4c4.2,5.8,10.5,6,16.1,7.2c46.3,9.8,92.6,19.2,138.9,28.9c97.1,20.4,194.2,40.9,291.4,61.3
		c29.9,6.3,59.9,12.6,90.8,19.1c0.3,4.2,1.2,8.1,0.7,11.8c-8.5,60.7-17.3,121.3-25.8,182c-8.7,62-17,124.1-25.5,186.1
		c-4.6,33.7-9.5,67.3-14.1,100.9c-1,7.1-3.3,14.4,0.1,21.5c7.2,3.3,13.1-0.8,19.1-3c38.2-13.8,76.3-27.9,114.4-41.9
		c40.6-14.9,81.2-29.9,121.9-44.9c5.6-2,11.2-3.7,17.7-5.8c12.8,15.1,20.7,32.7,30.8,49c10.6,16.9,20.6,34.3,30.8,51.4
		c9.9,16.6,19.6,33.2,30.1,50.9c-5,7.8-9.8,15.7-15,23.4c-22.3,33.2-44.7,66.3-67.3,99.3c-6.1,9-10,18.4-12.5,29
		c-44.6,190.6-89.7,381.2-134.3,571.8c-14.9,63.5-30.7,126.8-43.1,190.9c-10.2,52.3-18.6,104.9-26,157.7
		c-6.7,47.5-13.5,94.9-20.6,142.4c-0.9,5.8-3.1,11.6-5.2,17.1c-13.2,34.2-26.5,68.3-39.9,102.4c-2.9,7.4-6.4,14.6-10,21.8
		c-16,32.2-32.1,64.4-48.2,96.5c-4.2,8.4-7.4,16.9-9.3,26.2c-8.6,42.4-17.8,84.7-26.9,127c-0.7,3.2-1.6,6.4-2.6,10.7
		c-5.7,1.4-11.3,3.7-17.1,4.2c-10.8,0.9-20.9,3.9-30.9,7.6c-3.7,1.4-7.5,2.6-11.3,4.1c-35.4,13.6-70.6,27.9-107.8,36.2
		c-15.2,3.4-28.8,10.2-41.3,19.3c-11.4,8.4-23.9,14.4-37.1,19.3c-7.5,2.8-14.5,6.6-21.7,10.2c-8.3,4.1-16.5,8.4-24.6,12.6
		c-8.6-13.6-9.2-13.8-29-8c-0.4,5.5-0.9,11.4-1.3,17.2c-0.3,4.3-2.3,7.6-6.1,9.6c-3.5,1.9-7.1,4-10.9,5
		c-11.6,2.9-22.2,8.2-33.2,12.6c-14.7,5.8-28.9,1.1-42.9-3.3c-19-5.9-33.9-18-45.9-33.7c-2.8-3.7-5.6-7.4-8.8-11.7
		c-4.4-0.5-8.9-1.4-13.5-1.3c-10.2,0.3-20-0.5-28.6-6.5c-7.3-5.1-15.5-1.6-22.9-2.2c-7.8-13.2-34.6-92.4-40.1-118.3
		c3.5-1.1,7-2.7,10.7-3.3c11-2,22.1-3.7,32.5-5.4c3-8.3-1.6-12.9-4.5-17.9c-16.1-27.6-32.4-55.1-48.6-82.7
		c-25.7-43.6-51.6-87.2-77.1-130.9c-10.7-18.4-11.4-20.1-31.9-7.3c-43,26.7-86.3,53.1-129.4,79.5c-5.1,3.1-10.2,6-16.3,9.5
		c-3.5-4.7-6.9-8.7-9.6-13.1c-8.6-13.5-16.8-27.2-25.3-40.7c-19.3-30.4-41.2-59-64.8-86.2c-4.2-4.8-9.6-8.5-17.6-15.4
		c1.5,2.5,0.5,1.5,0.2,0.3c-5.3-27.3-24-46-43.7-62.6c-46.4-39-94.1-76.5-141.4-114.5c-5.1-4.1-10.5-8-16.4-12.4
		c-3.6,3.2-7.1,5.2-9.2,8.2c-29,41.5-59.1,82.3-86.2,125.1c-19.6,31-41.4,60.4-60.9,91.4c-8.6,13.8-21.9,16.3-35.4,19.3
		c-2.3,0.5-5.2-0.8-7.5-2c-2.9-1.6-5.4-3.8-8.1-5.9c-38.8-30.4-77.7-60.8-116.5-91.2c-2.5-2-4.8-4.4-7.6-7c2.3-4,4.1-7.5,6.3-10.7
		c45.9-66.4,86.3-136.2,128.2-205c19.4-31.9,40.5-62.6,60.8-94c27.5-42.5,55.8-84.5,82.2-127.7c41.3-67.7,86.7-132.8,131.5-198.2
		c13.9-20.3,27.1-41.2,40.4-61.9C7803.8,2914.7,7805.8,2909.9,7808.7,2904.2z M8218,2412.6c-4.3-3.8-8.3-3.7-13.2,0
		C8210.1,2416.3,8214.1,2416.2,8218,2412.6z"/>
	<path onclick="modals(this.id);" id="3215" class="st0" d="M9665.9,1659.9c1.9,14.1,3.7,25.9,5,37.7c5.9,51.6,11.6,103.3,17.6,154.9
		c6,51.6,12.4,103.2,18.4,154.8c6,51.6,11.6,103.3,17.6,154.9c5.9,51,12.2,101.9,18.1,152.8c6,51.6,11.7,103.3,17.7,154.9
		c6,51.6,12.3,103.2,18.3,154.8c4.6,39.7,9,79.4,13.6,119.1c4.6,39.7,9.5,79.4,14.1,119.1c4.7,40.4,9.3,80.7,13.8,121.1
		c4.9,43.7,9.8,87.4,14.5,131.1c4.6,43.1,9,86.1,13.7,129.2c4.7,43,9.6,86.1,14.3,129.1c4.7,43.1,9.1,86.1,13.7,129.2
		c3.1,29.1,5.7,58.4,9.7,87.4c1.5,10.7-0.7,19.3-6,28.2c-37.1,62.5-73.9,125.1-110.7,187.7c-108.9,184.9-218.5,369.3-326.4,554.8
		c-46.9,80.6-95.6,160.1-142.8,240.6c-65.4,111.5-130.7,223.1-196,334.6c-15.1,25.8-15.1,25.7-43,33.3
		c-107.4,28.9-214.8,57.8-322.2,86.7c-6.9,1.8-13.9,3.4-22,5.3c0-4.6-0.5-7.9,0.1-11c12.3-65.5,24.4-131,37.2-196.3
		c2.8-14.3,7.3-28.3,11.9-42.2c7.3-22.1,16.1-43.8,22.8-66.1c5.9-19.7,10.3-39.9,14.7-60.1c6.4-29.9,11.7-60.2,18.5-90
		c3.5-15.1,1.9-28.3-5-42.2c-24.5-49.5-48.1-99.6-71.9-149.5c-3.7-7.8-7.2-15.7-11.2-24.2c2.6-6,5.1-12.2,7.9-18.1
		c15.4-33.2,30.8-66.5,46.5-99.6c5.7-12.1,10.4-24.4,13.4-37.5c15.8-66.7,32.4-133.3,47.7-200.1c10.9-47.4,20.4-95.1,30.2-142.7
		c2.3-11.2,5.7-21.8,11.1-31.9c4.8-8.8,8.7-18,13.5-26.8c33.6-61.6,59-126.7,83.6-192.2c3.7-9.9,6-20.5,7.5-30.9
		c7.9-52.7,16-105.4,22.9-158.2c8.1-62.2,20.3-123.6,33.4-184.8c10.3-48.2,22.3-96,33.6-144c42.2-179.6,84.7-359.1,126.4-538.8
		c6-25.7,14.6-49.1,30.4-70.6c22.5-30.6,42.9-62.7,64.1-94.2c3-4.4,5.6-9,8.7-13.9c-1.4-3.8-2.2-7.8-4.2-11.1
		c-29.6-49.8-59.3-99.6-89.1-149.4c-1-1.7-2.5-3-3.6-4.2c-8.1-3-14.7,1.1-21.4,3.6c-66.9,24.5-133.8,49.1-200.7,73.6
		c-14.9,5.5-29.9,10.8-46.5,16.8c-0.4-4.6-1.3-7.6-0.9-10.5c5.7-42.2,11.6-84.5,17.5-126.7c6-42.9,11.9-85.8,17.9-128.7
		c6-42.9,12-85.8,18-128.7c4.4-31.7,8.9-63.3,13.3-95c0.3-1.9-0.4-3.9-0.8-7.3c-5.2-1.6-10.6-3.8-16.3-5
		c-161-33.8-322.1-67.4-483.1-101.1c-11-2.3-22-5-34.3-7.8c1.9-4.6,3-8.2,4.9-11.4c31.3-52.7,62.7-105.4,94.1-158
		c2-3.3,4.5-6.4,7.2-10.2c4.1,2.2,7.7,3.9,11,6c12,7.3,24.2,14.1,35.7,22.1c12,8.3,24.8,11.4,39.2,12.5
		c55.1,4.2,110.2,9.5,165.2,14.2c35.2,3.1,70.4,5.9,105.5,8.9c42.5,3.7,84.9,7.5,127.4,11.1c38.5,3.3,77,6.3,115.5,9.6
		c38.5,3.3,77,6.9,115.4,10.2c35.8,3.1,71.7,6,107.6,9.1c42.5,3.7,84.9,7.4,127.4,11.1c35.8,3.1,71.7,6,107.5,9
		C9650.9,1658.4,9657.5,1659.1,9665.9,1659.9z"/>
	<path onclick="modals(this.id);" id="3217" class="st0" d="M5931.7,550.2c4.2-2.8,6.9-4.8,9.8-6.4c27.7-15.9,55.5-31.7,83.2-47.7c6.5-3.7,13-5.9,20.7-6
		c26.6-0.1,53.3-0.8,79.9-1.4c49.9-1.2,99.9-2.5,149.8-3.8c45.9-1.1,91.9-2.3,137.8-3.3c37.3-0.9,74.6-1.8,111.8-2.6
		c36-0.8,71.9-1.5,107.9-2.3c51.9-1.2,103.9-2.5,155.8-3.8c16.6-0.4,33.3-0.9,49.9-1.9c11.1-0.7,20.6,2.4,30.1,8.2
		c96.4,59.4,193,118.5,289.6,177.7c231.8,142,463.6,284,695.3,426.1c21.5,13.2,42.9,26.8,65.2,40.7c-1.6,4.8-2.5,9.2-4.4,13.2
		c-52.4,109.3-106.4,217.8-163.4,324.8c-5.6,10.6-10.7,21.5-15.2,32.5c-23,56.1-44.7,112.7-68.9,168.2
		c-20.2,46.3-43.3,91.5-65.3,137c-8.7,18-17.7,35.8-26.7,53.7c-28.9,57.8-57.7,115.6-86.7,173.3c-36.1,72-72.6,143.8-108.3,216.1
		c-19.2,38.8-37.1,78.2-55.6,117.4c-27.8,59-54.7,118.5-83.5,177.1c-27.9,56.8-57.8,112.6-86.8,168.8
		c-10.4,20.1-20.4,40.4-30.7,60.6c-3,5.9-6.5,11.4-10.4,18.1c-7.7-2.5-13.6-6.5-18-12.4c-6.4-8.5-13-16.9-18.3-26.1
		c-8.6-15-16.2-30.6-24.2-46c-1.2-2.4-2.5-4.7-3.4-7.2c-18.9-54.9-44.2-107.1-69.6-159.1c-23.2-47.3-42.8-95.9-63.1-144.4
		c-5.1-12.3-11-24.2-16.6-36.3c-7.9-16.9-15.6-33.8-23.8-50.5c-17.9-36.4-36.2-72.7-54.2-109.1c-6.5-13.1-12.5-26.5-18.9-39.6
		c-9.6-19.8-19.8-39.2-28.9-59.2c-11.5-25.5-21.9-51.5-33.2-77c-16.2-36.5-32.8-72.8-49.4-109.2c-13-28.5-26.4-56.7-39.1-85.3
		c-27.1-60.8-54-121.8-80.9-182.7c-1.6-3.6-3.1-7.4-5.2-10.8c-15.7-24.9-26.7-52.1-37.3-79.4c-16.3-41.7-39.7-79.9-59.6-119.8
		c-19-38.1-37.8-76.4-56.7-114.6c-1.5-3-2.8-6.1-3.9-9.2c-38-101.7-75.9-203.4-113.9-305c-6.1-16.2-12.7-32.3-18.3-48.6
		c-3.6-10.5-9.7-18.4-18.3-25.3c-48.9-39.1-97.6-78.6-146.3-117.9c-27-21.7-54-43.4-81.1-65c-6.3-5-11.7-10.5-15.2-18.1
		c-26.5-56-53.2-111.9-79.8-167.8C5934.1,556.7,5933.3,554.2,5931.7,550.2z"/>
	<path onclick="modals(this.id);" id="3222" class="st0" d="M5341.7,3043.3c14.8,5,29.2,10,43.8,14.6c6.5,2,9.3,7.1,12.4,12.3c11.6,19.5,23.1,39,34.7,58.4
		c2.7,4.5,5.8,8.8,9.3,14.1c23.3-1.7,46.5-3.3,70.1-5c11.6-12.2,20.4-26.3,29.6-40.1c2.3-3.5,2.7-8.9,2.6-13.3
		c-0.4-13.3-1.5-26.6-2.3-39.9c-0.4-6.6-0.9-13.3-1.5-19.9c-0.6-6.4,1.4-11.5,6.1-16c10.1-9.7,19.7-19.8,29.8-29.6
		c2.8-2.7,6.1-5.2,9.6-7c11.7-6.3,23.6-12.2,35.6-18.3c5.3,1.8,10.4,3.4,15.3,5.3c16.7,6.6,33,14.5,50.1,19.9
		c23.8,7.6,41.4,22.7,57.9,40.7c21.5,23.6,44.4,46.1,66.5,69.2c5.1,5.4,10.9,7.1,18,6c13.2-2.1,26.4-3.8,39.4-6.4
		c19-3.8,38.1-5.3,57.6-5.3c32,0.1,64-0.6,95.9-1.5c11.3-0.3,20.3,2.6,28.8,10.4c15.3,13.9,31.6,26.6,47.3,40.1
		c5.5,4.8,10.8,9.9,15.4,15.5c10.6,12.8,20.8,26,31.1,39.1c2.4,3,4.3,6.4,6.8,10.1c-3,1.1-4.7,2.1-6.5,2.3
		c-25.8,2.5-51.7,4.9-77.6,7c-4.5,0.4-9.2-0.9-13.7-2.1c-23.5-6-44.9-15.7-63.9-31.3c-16.4-13.5-34.2-25.4-51.4-38
		c-3.2-2.4-6.5-4.7-9.8-6.9c-5-3.5-10.2-3.6-14.7,0.3c-20.6,17.8-41,35.9-61.8,54.1c4.3,22.5,8.4,44,12.4,65.5
		c5.3,28.1,10.6,56.3,15.7,84.5c1.3,7.4,2.7,14.5,9.7,20.2c-12.5,16.4-24.7,32.9-37.3,49.1c-11.8,15.3-24.1,30.2-35.9,45.5
		c-7.2,9.3-6.7,11.4,2.5,19.9c3.4,3.1,6.9,6.2,10.4,9.4c-1.7,9-9,13.5-13.9,19.5c-8.7,10.8-9.1,11.3-3,22.8
		c2.8,5.2,5.5,10.4,8.3,15.7c-5.1,9.1-12.2,14.3-20.9,18.5c-14,6.7-16.7,17.6-8.2,31c5.3,8.4,11.2,16.4,16.9,24.5
		c11.8,0.6,21.8-3.7,33.2-4.8c6.7,4.4,10.8,9.9,7.9,19.5c-3.5,11.5-3.6,23.5-2.1,36.4c4,3,8.2,6.2,12.5,9.2
		c61,43,121.8,86.2,183.1,128.8c31.2,21.7,63.1,42.2,94.7,63.3c11.1,7.4,21.9,15.2,33.1,22.5c8.1,5.3,11.5,5,16.8-2.5
		c9.1-13,19.9-24.9,27.3-39.7c-3.3-4.6-6.3-8.8-9.3-13c0.7-1.2,1-2.9,1.9-3.2c9.2-3.4,17.7-9.1,28.5-5.1c5.1,1.9,8.6-2.5,10.6-6.9
		c1.8-4,1.3-7.9-2.1-10.9c-6.3-5.7-12.8-11.2-20.6-18c6.5-3.2,11-6.2,16-7.6c14.8-4.4,29.2-9.1,40.2-20.8c2.1-2.3,5.6-3.3,8.9-5.2
		c1.4-12.5-9.7-20.3-11.1-31.3c8.4,2.1,8.5,2,13.1,5.8c37.5,30,75,59.9,112.4,89.9c7.3,5.8,14.7,11.5,21.8,17.6
		c7.9,6.9,9.1,14.9,2.2,22.6c-25.3,28.5-45.4,60.9-69.3,90.3c-19,23.4-34,49.3-52.4,72.9c-10.5,13.5-17.5,29.9-25.4,45.3
		c-22.2,43.3-43.8,86.8-66.1,130c-10.7,20.7-23.3,40.4-33.9,61.1c-28.2,55.1-55.9,110.6-83.6,166c-10.7,21.4-21.3,43-31.2,64.8
		c-14.7,32.2-35.6,59.3-64.4,79.9c-5.8,4.1-12.9,7.1-19.8,8.8c-10.9,2.8-22.2,4.8-33.4,5.9c-27.2,2.6-54.4,5.2-81.6,6.5
		c-18.7,0.9-37-3.8-55-8.9c-41.7-11.9-81.7-28.6-121.4-45.7c-58.1-25.1-116.6-49.3-173.2-77.6c-17-8.5-34-10.8-52.1-3.8
		c-5.5,2.1-11.5,2.9-18.3,4.6c-2.8-4.7-5.3-9.2-8.4-14.5c-30.2-10.1-61.7-18.4-93.7-24.9c-19.6-4-39.2-7.9-58.7-12
		c-6.7-1.4-12.7-1.6-19.1,2.4c-4.2,2.6-10.1,2.9-15.3,3.3c-13.3,1.1-26.6,1.7-41.3,2.6c-16.3-17.5-37.9-22.8-62.9-19.4
		c-6.8-12.2-4.5-27.2-11.1-40c-4.5-0.9-8.9-1.8-13.6-2.8c2-4.1,3.7-7.6,5.7-11.9c-3.2-5.6-6.4-11.2-10.3-17.9c4-6,7.6-12.3,12.1-18
		c5.8-7.5,8.5-15.1,2.7-23.3c6.2-10.4,12.5-19.8,17.7-29.7c6.9-12.9,5.7-17.8-5.5-27.8c-3.9-3.5-8.5-6.4-13-9.2
		c-8.5-5.2-16.9-10.9-26-15c-16.6-7.3-22.1-21.6-25.9-37.4c-0.3-1.3-0.3-2.7-0.6-4c-4.7-22.9-4.7-22.9-21.7-38.7
		c-6.7-6.2-25.8-12.7-34.5-10.5c-11,2.8-22.1,4.2-33.5,4.8c-7.1,0.3-14,3.4-22.4,5.5c-1.2-3.1-2.8-5.9-3.2-8.8
		c-2-13.2-3.4-26.4-5.5-39.6c-3.4-21.2-10.7-41.2-19.8-60.5c-6.8-14.4-14.8-28.3-22.2-42.5c-2.1-4.1-4-8.3-6.4-13.3
		c3.5-2.4,6.4-5.1,9.8-6.8c39.3-19.8,78.7-39.2,117.8-59.2c8.6-4.4,16.1-5.1,24.2,0.2c5.6,3.6,11.4,6.8,17.1,10.3
		c15.4,9.4,31.2,17.8,49.3,20.7c9.2,1.5,18.3,3.1,28.1,4.7c8.8-12.1,15.9-24.4,16.1-40.5c-3.4-2.1-6.5-4.7-10.1-5.9
		c-25.2-8.8-45.1-25.3-63.7-43.7c-1.4-1.4-2.9-2.7-4.2-4.3c-10.6-12.8-24.4-15.5-39.5-11.3c-5.2,1.5-9,0.2-13.2-1.7
		c-13.3-6.1-26.3-13-41.3-14.4c-4-0.4-7.9-1.3-11.9-1.4c-4.8-0.2-8.8-1-12.3-5.1c-1.8-2.1-5.7-2.4-8.7-3.2c-1.9-0.5-4.9,0.2-5.7-0.9
		c-8.3-11.1-18.9-6.2-29.1-4.5c-19.7,3.3-39.4,6.5-59.2,9.5c-3.7,0.6-7.6,0.1-11.4,0.1c-1-2.9-1.9-4.7-2.3-6.6
		c-4.2-22.9-7.1-46.1-12.8-68.7c-3.8-15.1-9-30.6-24.3-39.5c-3.2-1.8-5.7-5.7-7.3-9.1c-11.6-24.8-21.4-50.2-26.8-77.2
		c-1.6-8.1-1.2-15.5,2.1-23.3c6.5-15.1,7.3-31.1,3.4-47.1c-5.9-24.7-12.5-49-29.1-69.3c-9.7-11.8-18.4-24.5-27.7-36.6
		c-4-5.2-9-9.9-9.9-18.5c5.2-3,10.7-6.5,16.4-9.6c33.4-18,66.7-36.3,100.4-53.9c17.8-9.3,34.6-19.9,49.8-33
		c6-5.2,12.7-9.7,18.6-15.1c7.1-6.5,15.5-10,24.7-12.4c14.2-3.6,28.2-8,42.5-11.1c9.6-2.1,17-6.7,23.7-13.7
		c16.1-16.9,32.9-33.1,48.7-50.2c7.4-8,15.6-11.3,26.4-10.7c12.6,0.7,25.3-0.1,38,0.3c8.4,0.3,15.7-1.6,22.3-6.8
		c34.8-27.6,74.4-46.6,114.8-64.1c12.9-5.6,23-12.9,28.2-26.3c5.3-13.6,15-23.1,28-29.8C5321.1,3056.4,5331.1,3049.7,5341.7,3043.3z
		"/>
	<path onclick="modals(this.id);" id="909" class="st0" d="M8426,6059.8c-9.8-2.5-15.6-3.5-21-5.5c-20.7-7.9-42.9-9.1-64.2-14.2
		c-56.3-13.4-112.6-27-169-40.3c-6.4-1.5-13.1-1.8-19.7-2.6c-3.9-0.5-8-0.5-11.8-1.4c-33.8-7.2-67.6-14.6-101.5-21.9
		c-20.8-4.5-41.5-9.7-62.5-13.3c-84.1-14.3-166-38-249.1-56.6c-30.5-6.8-61-14.2-91.2-22c-36-9.4-35.9-9.7-60.4-37.9
		c-56.8-65.4-113.7-130.7-170.5-196.1c-4.8-5.5-9.3-11.2-14.7-17.5c2.3-7.7,4.3-15.4,6.8-22.9c33.2-100.5,66.5-201,99.8-301.5
		c6.1-18.3,12.4-36.6,18.4-54.9c1.4-4.3,1.9-8.8,2.9-13.7c-14.8-9.8-31.5-12.3-46.9-18.3c-15.5-6.1-31.3-11.2-47.1-16.7
		c-15.7-5.5-31.4-10.9-46.9-16.3c-6.2-28.6-21-53.6-26.8-82.9c70-27.3,140.1-51.9,210.7-78.1c5,12.3,9.5,23.3,14.2,35
		c3.9-0.5,7.3-0.3,10.1-1.4c53.3-19.1,106.5-38.3,159.7-57.6c2.4-0.9,4.4-2.7,6.8-4.2c1.8-13.6-8.5-24-8.9-36.5
		c11-8,63.8-28.7,91.2-35.6c7.5,11.2,8.2,24.8,12.1,37.3c3.9,12.6,7.5,25.4,10.9,36.7c8.6,5.1,14.6,0.6,20.7-1.3
		c21-6.5,41.7-13.8,62.7-20.1c10.1-3.1,20.6-4.7,31.7-7.2c2.9,7.7,5.4,14.3,8.2,21.8c10.7-0.9,21.1-1.7,31.9-2.6
		c6.9,29,13.2,56.8,20.1,84.5c6.9,27.8,14.4,55.4,21.8,83.4c-3.6,8.9-11,14.9-17.2,21.6c-7.2,7.8-10.7,16.6-10.6,27.1
		c0.1,11.3,0,22.6,0,34.6c-7.2,9.1-21.2,6.2-29.7,15.2c-1.1,7.2,2.7,13.9,4.2,20.9c2,9.1,4.5,18.1,6.8,27.1
		c3.3,13.3-0.3,23.5-13.1,29.9c-7.3,3.7-12.3,9.6-16.3,16.9c-3.2,5.9-3.7,11.2-1.2,17c0.5,1.2,1.1,2.4,1.8,3.5
		c6.4,9.6,9.5,20,6.6,32.6c98.6,37.2,199.2,66.1,295.9,106.7C8329.7,5692.7,8377.3,5874.2,8426,6059.8z"/>
	<path onclick="modals(this.id);" id="855" class="st0" d="M7358.3,5229c3.8-10.2,7.5-20.1,11.5-30.8c3.8,0.3,7.1-0.1,10,0.9
		c39.6,13.7,79.2,27.6,118.8,41.5c1.8,0.6,3.3,2,6,3.6c-6.8,27-16.9,52.9-25.2,79.4c-8.2,26-17.2,51.8-25.7,77.8
		c-8.8,26.6-17.4,53.2-26.2,79.7c-8.6,25.9-17.4,51.8-26,77.7c-8.8,26.4-17.3,52.9-25.5,77.9c9.4,9.6,18,17.8,25.9,26.5
		c13.8,15.4,27.2,31.1,40.7,46.7c3,3.5,5.7,7.1,9.1,11.5c-31,38.2-65,72.4-102.6,103.5c-13.4-2.5-26.5-4.9-39.6-7.3
		c-20.3-3.7-40.6-7.5-60.9-11.1c-19.6-3.4-36.3-11.4-49-27.6c-11.1-14.1-23.1-27.6-34.9-41.1c-4.3-4.9-7.6-11.1-15.6-14.2
		c-14.6,4.9-30.5,9.4-45.8,15.6c-10.3,4.2-19.7,10.5-27.3,19.5c-6.8,8-15.3,15.1-24.2,20.7c-7.1,4.5-15.8,6.8-24.1,8.9
		c-17.9,4.3-30.7,15.2-41.2,29.6c-2.3,3.1-5.2,6-8.5,7.9c-9.8,5.7-16.3,14.1-19.1,24.6c-5,18.6-16.2,33.4-27.5,48.2
		c-8.1,10.6-16.8,20.7-24.8,31.4c-8.3,11.2-19.5,20.2-24.4,33.8c-17.4,16.2-29.6,38.1-55.2,48.2c-19-8.3-39.6-17.4-60.8-26.7
		c-28.3,26.4-51.7,56.3-78.7,82.3c-2.8-0.3-4.8-0.4-6.7-0.8c-96.1-24.9-193-46.1-289.4-69.4c-4.5-1.1-9.1-2.1-13.6-3.4
		c-28.3-8-57.8-9.2-86.3-15.6c-4.4-1-9.2,0.2-13.8,0c-6.5-0.3-13.1-0.8-20.6-1.4c2.5-23.2,7.1-44.5,11.9-66
		c11.9-6.9,25.1-8.9,37.9-12.3c7.7-2.1,15.2-3.2,21.1-10c3.1-3.5,9.3-4.8,14.3-6.2c18-4.7,36.1-9.4,54.3-13.4
		c18.1-4,31.3-13.7,39.9-30.2c10.1-19.5,21.1-38.5,31.2-58.1c27.7-53.9,55.1-108,82.7-162c27-52.8,54-105.5,81.1-158.3
		c59-114.9,118.1-229.8,177.2-344.8c43.6-84.7,87.1-169.4,130.7-254.1c6.4-12.4,12.9-24.7,19.2-36.7c15.3,1.5,64.6,18.9,81.7,28.9
		c-5,9.9-10,20-15.1,29.9c-25.5,49-51.2,98-76.7,147.1c-2.4,4.6-5.8,9.2-3.4,16.3c9.3,8.2,24,8.4,34.9,17
		c-6.2,19-19.7,34.6-24.9,54.4c12.9,9.2,26.2,15.1,39.5,20.8c2.2,0.9,5.7,1,7.6-0.2c8.7-5.2,16.8-1.5,25,0.8
		c103.9,29.2,207.7,58.3,311.6,87.5C7344.5,5229.1,7350,5231.8,7358.3,5229z"/>
	<path onclick="modals(this.id);" id="3259" class="st0" d="M8069.9,4598.5c89.5-24.7,178.4-47.6,269.1-67.6c8.3,13.4,9,29.1,14,43.2
		c5.1,14.4,9.6,29.1,14.1,43.7c4.7,15.3,9.4,30.6,13.8,45.9c4.2,14.7,7.8,29.6,11.9,44.4c4,14.7,8.3,29.3,12.6,44.3
		c3.5,0.4,6.3,1.4,8.6,0.8c37.6-11,75.2-22.3,113.1-33.5c4.4-17.4-7.7-31.2-7.7-48.3c2.7-1.6,5.8-4.1,9.3-5.2
		c9.4-3,19.1-5.4,29.4-8.3c3.1,5,5.8,9.4,8.9,14.3c21.9-2.3,41.9-12.4,64.5-16.2c3.4,12.5,6.5,23.9,9.6,35.4
		c1.6,6,4.1,11.2,11.1,13.5c-5,14.2-0.1,27.2,4.7,40.3c0.5,1.2,1.1,3.1,2,3.3c9,2,9.9,11.8,16.4,17.4c22.2-6.3,44.5-12.5,67.4-19
		c7.9,12.1,12.4,24.5,17.3,36.8c0.9,2.3,0.6,5.2,0.5,7.8c-0.1,2-0.6,4-1.4,5.8c-17.6,43.7-21.8,90.5-31.1,136.1
		c-8.3,40.5-15.5,81.1-23.2,121.7c-0.6,3.2-1.5,6.4-2.4,10.3c-15.4,4.6-30.5,9.1-45.6,13.6c-3.2,8.3-0.5,15.2,1.5,22.2
		c6,21.1,11.7,42.4,17.9,63.5c2.7,9.2,3.3,17.8,0.9,27.3c-6.5,25.1-11.1,50.8-17.9,75.8c-5.8,21.2-13.5,41.8-20.6,62.6
		c-16.6,48.5-33.2,97.1-50.3,145.4c-8.6,24.1-11.2,49.3-15.8,74.2c-8,43.2-15,86.6-22.8,129.9c-1.9,10.8-1.7,20.9,1.4,31.5
		c8.1,28.2,15.2,56.6,23.1,84.8c3.3,11.7,5.2,23.3,4.9,35.4c-0.2,8,0.2,16,0.7,24c1.2,21.5-1.9,42.4-7.3,62.8
		c-5.9,4.4-12,2.7-17.8,2.4c-49.2-2.7-98.3-7.1-147.6-8c-1.3,0-2.6-0.5-5.2-1c-1.5-3.4-3.9-7.3-5.1-11.6
		c-32.2-122.4-64.3-244.8-96.3-367.2c-2-7.7-4-15.5-6-23.2c-1.4-5.5-4.6-9.4-10.1-11.4c-19.9-7.6-39.6-15.6-59.6-22.9
		c-26.9-9.8-54-19-81.1-28.3c-43.4-15-86.9-30-130.3-45c-3.8-1.3-7.5-2.8-11.2-4.3c-4-11.3-8-22.4-12.5-34.8
		c0.9-1.6,3.2-4.3,3.9-7.3c1.6-6.3,5.1-10.6,10.7-13.6c14.5-7.8,18-20.6,15.5-35.7c-1.4-8.5-3.6-16.9-5.5-25.4
		c-1.3-5.8-2.8-11.5-4.2-17.2c6.8-8.2,18-6.2,26-13.4c2.7-10.7,1-22.7,1.1-34.5c0.1-16.2-0.1-16.6,14.5-21.8
		c42.1-14.9,84.2-29.5,126.3-44.3c4.3-1.5,8.5-3.4,13.4-5.4c-0.4-4-0.4-7.2-1.2-10.2c-7.4-29.7-15.1-59.4-22.3-89.1
		c-7.9-32.5-18.5-63.9-32.5-94.3c-21.5-46.6-42.9-93.2-64.3-139.8c-2.5-5.4-4.8-11-7.4-16.4c-3-6.2-4.8-12.4-1.1-19
		c1-1.7,1.3-3.8,1.8-5.7c3.5-13.1,4.9-26.2-1-39.2c-5.3-11.6-5.3-23.2,0.8-34.6c0.6-1.2,0.8-2.6,1.4-3.7c8.8-16.1,9.2-32.8,4.1-50.1
		C8065.7,4628.3,8067.1,4614.4,8069.9,4598.5z"/>
	<path onclick="modals(this.id);" id="3226" class="st0" d="M6892,3269.3c100.7,80.1,199.7,158.8,299.3,238c-2,4.6-3.3,8.2-5.2,11.5
		c-20.6,37.4-43.3,73.4-69.8,107c-16.1,20.4-32.1,40.9-46.8,62.3c-23.8,34.5-46.7,69.8-69.8,104.7c-10.7,16.1-19.5,33.8-32.3,48
		c-13.2,14.7-29.9,26.4-45.5,38.8c-30.8,24.4-62.2,48-92.8,72.6c-11.4,9.1-21.5,19.9-31.8,30.3c-2.5,2.6-4.6,7-4.4,10.5
		c0.4,6.9-2.9,10.9-7.4,15.3c-7.9,7.6-17.1,12.7-26.8,17c-9.6,4.2-14.5,10.8-14.8,21.4c-0.2,7.3-2.3,14.5-2.5,21.8
		c-0.7,24.2-14.7,39.2-34.4,50c-17.5,9.6-35.8,17.8-53.3,27.3c-8.1,4.4-16.6,9.3-22.8,15.9c-8.4,9-18.4,15.2-28.4,21.8
		c-24.5,16.1-48.6,32.7-73.3,48.6c-10.2,6.6-14.1,14.8-13,26.8c0.9,9.9-0.3,19.9-0.4,29.8c-0.1,7.9,0,15.8,0,23
		c-17.8,13.4-17.5,13.4-18.6,34.6c-1.4,24.6-0.3,49.2-4.9,73.7c-3.2,17.3-9.2,33.3-16.8,48.9c-7.3,15.2-18.4,23.4-36.5,21.5
		c-17.9-1.9-35.8,0.2-53.7,2.1c-22.3,2.3-40.1,13.2-58.4,24c-1.7,1-3.3,2.3-4.8,3.6c-23.6,20.7-52,32-81.4,41.1
		c-23.5,7.3-47.4,13.4-71.2,19.8c-11.6,3.1-23.2,5.6-35.5,3.8c-9.5-1.4-18.5,1.4-26.8,6.1c-5.2,2.9-10.3,6.1-15.6,8.9
		c-6.6,3.5-12.1,8-15.3,15.1c-3.7,8-9.7,14.1-16.3,19.9c-11.4,10.2-22.5,20.8-33.5,31.5c-10.7,10.3-23,15.7-37.9,13.3
		c-7.7-1.2-14.6,1.1-21.3,3.9c-13.1,5.5-26.3,9.5-40.6,4.9c-4.9-1.6-9.3-0.6-13.1,2.6c-3.3,2.8-7,4.1-11.1,3
		c-10.9-3-22.4-4.8-32.2-10c-9.4-5-18.3-7.1-28.5-6.7c-8.6,0.4-17.3,0-26,0.3c-13.5,0.5-26.4-1.6-39.4-5.2
		c-7.5-2.1-15.7-2.1-23.6-2.4c-17.5-0.7-27.8-8.3-33.5-25.6c-1.3-3.8-2.2-7.7-3.6-11.4c-7.4-20.5-21.9-31.1-43.6-31.4
		c-11.9-0.1-23.9,0.7-35.8,1.1c-4,0.1-8,0-12,0.3c-10.4,0.8-19.2-2.1-27.7-8.5c-22.4-16.8-45.3-32.9-68.2-49
		c-6.5-4.6-13.7-8.1-20.5-12.3c-5.6-3.5-11.8-6.6-16.5-11.1c-12.6-11.8-24.7-24.3-36.9-36.6c-5.2-5.4-5-5.6-5.6-19
		c11.4-4.6,23.5-8.1,35.9-9.7c6.2-0.8,13.2,1.5,19.3,3.8c9.3,3.5,18.2,8.3,27.2,12.5c75.4,35.4,151.7,68.5,229.3,98.8
		c29.8,11.7,60.7,20,92.5,24.4c3.3,0.5,6.7,0.8,9.9,0.6c38.5-3.1,77.1-4,115.2-11.3c15.4-2.9,29-8.3,40.6-19.6
		c10.9-10.7,23.8-19.5,32.3-32.5c7.6-11.7,15.3-23.4,21.6-35.9c30.9-61.2,61.3-122.7,91.8-184.1c7.7-15.5,15-31.2,23-46.6
		c9.3-17.7,19.4-34.9,28.7-52.5c11-20.6,21.6-41.3,32.3-62c18.9-36.7,37.5-73.6,56.7-110.1c5.6-10.5,13-20.1,19.6-30.1
		c1.1-1.7,2.7-3,3.7-4.7c16.2-29.3,40.1-53.1,58.2-81c14.2-21.9,30.6-42.1,48.1-61.2c12.5-13.7,26.8-25.8,40.2-38.7
		c21.1-20.4,42.2-40.7,63.1-61.3c4.3-4.2,8-8.9,11.9-13.4c35.3-40.8,67.5-84.2,100.6-126.8c42.2-54.2,85.2-107.6,127.6-161.6
		c37.2-47.3,69.4-97.7,92.9-153.4c1.8-4.3,3.5-8.7,5.5-12.8c3.2-6.6,6.5-13.1,10-19.6C6887.6,3275.7,6889.2,3273.6,6892,3269.3z
		 M6457.2,4032.5c-2.2,1-4.2,1.7-4.2,2c0.4,2.3,1.3,4.6,2,6.8c1.5-0.7,4.2-1.5,4.2-2.2C6459.1,4036.9,6458,4034.8,6457.2,4032.5z
		 M6869.5,3570.8c-1.9,1.5-3.4,2.4-4.3,3.7c-0.3,0.4,0.7,2.6,1.1,2.6c1.6,0,3.3-0.6,4.9-0.9
		C6870.7,3574.6,6870.2,3573.1,6869.5,3570.8z"/>
	<path onclick="modals(this.id);" id="3220" class="st0" d="M7652.4,2742.6c37.6,19.1,89,49.1,101.4,59.6c-3.4,1.6-6.1,3.2-9,4.2
		c-13.9,4.6-27.9,8.9-41.8,13.5c-3.8,1.2-7.5,2.7-11,4.5c-3.1,1.5-3.8,6.5-1.1,8.4c3.8,2.7,7.7,5.3,11.8,7.4
		c15.6,7.8,29.4,18.1,42.8,29.2c15.3,12.7,31.1,24.9,47.6,38c-2.2,4.3-3.8,8.6-6.2,12.3c-20.2,30.5-40.2,61.3-61.1,91.4
		c-37.3,53.6-73,108.3-107.5,163.7c-28.2,45.2-57.2,90-87.1,134.1c-30.8,45.2-58.6,92.2-86.8,139c-12.3,20.5-24.7,41-36.6,60.8
		c-7.6,2.7-12.8-0.7-17.9-3.6c-12.2-6.9-24.1-14.2-36.3-21.1c-3.9-2.3-8.2-3.9-13.2-6.3c-3.4,3.8-6.8,6.9-9.4,10.5
		c-14.1,20.3-27.9,40.7-41.9,61c-2.2,3.2-4.8,6.3-7.8,10.3c-4.9-2.9-9.6-5.2-13.7-8.3c-36.8-28.7-73.6-57.3-110.2-86.3
		c-82-65-163.9-130.2-245.8-195.3c-4.1-3.3-8.2-6.6-13.1-10.5c1.4-4.7,2.2-9.1,4-13.2c21.2-46.7,42.5-93.3,63.9-139.9
		c4.7-10.2,9.6-20.3,14.8-31.1c14.8,3.4,26.8,10.5,39.4,16.2c12.6,5.7,26.1,9.7,37.9,19.5c-3.2,6.3-6.2,12.1-9,17.9
		c-2.8,6.1-1.7,10.3,4.2,13.3c10,5.2,20.3,10,30.6,14.7c6.2,2.9,11.7,1.6,16.2-3.5c8.3-9.5,17.3-18.5,24.6-28.7
		c13.1-18.5,25.6-37.4,37.6-56.6c11.4-18.2,24.3-35.1,40.5-49.2c10-8.7,16.2-18.9,18.3-32.1c2.4-14.6,8.9-27.7,16.5-40.4
		c10.3-17.1,19.7-34.8,29.7-52.1c2.3-3.9,5.1-7.6,8.1-12.1c4.9,1.9,9.2,3.4,13.3,5.2c15.9,7,31.7,14.1,47.5,21.2
		c3.6,1.6,7.7,2.9,10.7,5.4c11.9,10,24.9,17.5,40.2,21.3c4.8,1.2,8.8,5.7,13.3,8.5c3.2,1.9,6.7,3.4,10.3,5.2c1.6-2.7,3.6-4.5,3.4-6
		c-1.5-11.8,4.6-20.5,11.4-28.8c13.5-16.5,26.8-33.1,40.7-49.4c4.3-5,9.6-9.2,15-13c38.3-26.6,76.6-53.2,115.2-79.4
		c8.2-5.6,17.3-9.9,26.2-14.5C7632.2,2752.5,7641.8,2747.9,7652.4,2742.6z"/>
	<path onclick="modals(this.id);" id="854" class="st0" d="M6272.6,5894.2c2.5-13.4,4.6-24.3,6.8-36.1c14.7,1,28.4,2,41.5,3c5.1-5.9,2.8-11.2,0.8-15.8
		c-8.1-19-16.7-37.7-24.8-56.7c-2.6-6.1-7.3-8.9-13.3-10.9c-24-8-47.9-16.3-71.8-24.5c-25.8-8.9-51.6-17.7-77.4-26.7
		c-4.3-1.5-8.3-3.6-13.3-5.7c2.7-12.4,5.2-24,7.9-35.5c7.8-33,15.6-66,23.7-99c1.1-4.4,3.3-8.7,5.4-12.8
		c11.2-21.9,21.8-44.2,34-65.6c46.8-82.3,82.9-169.7,125.1-254.2c5.4-10.7,10.9-21.3,16.3-32c1.5-2.9,3-5.9,3.9-9.1
		c9.7-33.9,19.3-67.8,24.2-102.8c3.2-22.4,0.2-43.7-8.8-64.4c-5.1-11.6-10.5-23-15-34.8c-2.4-6.3-7.5-9.1-12.6-12.1
		c-24.8-14.3-49.6-28.6-74.5-42.8c-20.2-11.6-40.4-23.2-61.1-35.1c-5.4-14.7-11.1-29.5-16.5-44.5c-1.8-5.1,2.4-9.5,7.7-8
		c18.6,5.2,37.1,10.6,55.7,15.9c18.6,5.3,37.1,10.7,55.7,15.8c4.4,1.2,9,1.6,14.3,2.5c6-8.3,11.7-16.3,17.8-24.8
		c4.1,0.8,8,1.1,11.7,2.3c26.7,8.4,53.3,17,79.9,25.5c2.5,0.8,5.1,1.7,7.6,2.4c6.8,1.7,10,0.2,12.4-6.2c3.5-9.3,6.6-18.7,9.8-27.7
		c14.4,0.5,41,9,57.6,18.2c-12,22.7-28.2,43.1-39.4,65.8c4.8,9.5,12.4,13.3,20.6,16.4c74.2,27.6,148.4,55.3,222.8,82.7
		c7.8,2.9,15.5,8.4,25.5,4.5c3.5-5.7,7.4-11.9,11.1-17.9c12.9,0.1,61.9,13.2,77.2,20.6c-1.1,3-1.8,6.2-3.3,9
		c-31.9,62.2-63.8,124.4-95.8,186.6c-28.6,55.7-57.2,111.3-85.9,167c-45.5,88.2-91.2,176.2-136.5,264.4
		c-16.4,32-31.8,64.5-48.1,96.5c-7.5,14.8-16,29.2-23.9,43.8c-8.1,14.9-20,24.1-37,27.6c-19.5,4.1-38.7,9.7-58,14.9
		c-4.4,1.2-9.8,2.4-12.4,5.5c-5.2,6.4-12.1,7.7-19.2,9.2C6292.5,5890.3,6284,5892,6272.6,5894.2z"/>
	<path onclick="modals(this.id);" id="852" class="st0" d="M7015.5,4122.9c9,5.6,15.8,9.7,22.4,13.9c61.5,39.8,123,79.7,184.4,119.5
		c23.2,15.1,23.1,15,35.9-10.1c5.4-10.5,9.6-21.8,16.1-30.6c2-0.4,2.7-0.7,3.3-0.6c0.6,0.1,1.3,0.6,1.6,1.1c8.6,11,17.1,22,26,33.5
		c-1.5,4.7-2.5,9.2-4.4,13.3c-9.4,21.3-19.1,42.5-28.6,63.8c-1.9,4.2-3.8,8.6-4.9,13c-1,4,0.1,7.9,4.3,10.2
		c5.8,3.1,11.5,6.3,18.1,9.9c-2.6,5.7-4.6,10.5-7,15.1c-21.8,41.2-43.6,82.4-65.5,123.5c-1.2,2.4-2.7,4.6-3.9,7
		c-7.4,14.6-7.2,15.4,6.1,26.4c68.3,56.5,136.5,112.9,204.8,169.4c6.6,5.5,13,11.3,20.2,17.5c-1.1,3.5-1.7,6.7-3.1,9.5
		c-34.6,68.3-69.2,136.6-103.9,204.8c-0.9,1.7-2.3,3.2-3.6,5.1c-7.7,2.1-14.2-2-20.9-4.3c-59.1-20.4-118.2-41-177.3-61.6
		c-140.8-49-281.6-98.1-422.4-147.1c-18.9-6.6-37.7-13.2-56.5-19.9c-3.7-1.3-7.2-3.3-11.5-5.2c1.6-3.4,2.6-6.6,4.3-9.2
		C6772.4,4503.2,6889,4311.4,7015.5,4122.9z"/>
	<path onclick="modals(this.id);" id="2897" class="st0" d="M3883.2,2395.6c-12.4,4.1-24.8,8.2-38,12.6c0.5,4.8,0.4,8.7,1.3,12.4c3.8,14.8,8,29.6,11.9,44.3
		c1.7,6.3,3.1,12.7,5.2,21.1c-4.2-1-7.1-0.7-8.4-2.1c-6.2-6-12.1-12.3-17.9-18.7c-4-4.5-7-9.9-11.4-13.8
		c-8.3-7.3-17.8-11.1-29.2-6.7c-17.3,6.8-30.2,19.2-42,32.8c-6.8,7.8-4.6,17.9-1.9,26.7c3.1,10.2,7.7,19.8,11.3,29.8
		c1.5,4.1,2.1,8.5,3.7,15c-5.2-1.5-8.3-1.8-11-3.2c-22.7-11.1-45.6-21.9-67.8-33.9c-13.4-7.3-27.1-10.5-42-10.4
		c-11.3,0-22.6-0.4-33.9-0.9c-9.6-0.5-16-5.2-19-14.7c-2.6-8.2-6.1-15.7-13-22c-11.3-10.2-23.1-8-33.9,1.3c-5,4.3-8.9,10-13.6,14.6
		c-14.7,14.4-22.5,14.1-36.2-1.6c-3.1-3.5-5.6-7.4-8.3-11.3c-5.2-7.5-12.1-12.3-21.1-13.7c-10.5-1.6-21-3.8-31.6-4.3
		c-6.7-0.3-11.3-2.7-15.6-7.2c-13.2-13.5-23-29.1-30.4-46.5c-33.4-79.1-67-158.2-100.5-237.3c-30.1-71.1-60.2-142.3-90.4-213.3
		c-4.7-11-10.3-21.5-15.9-33c3.1-1.9,5.7-4,8.6-5.2c53.4-22.3,106.9-44.4,160.3-66.7c4.8-2,9.5-4.6,13.3-6.4
		c3.5-6.8-0.3-11.4-2.2-16.1c-17.2-41.1-34.7-82.2-52-123.3c-4.1-9.7-7.8-19.6-11.9-30c4-2.3,6.6-4.5,9.6-5.5
		c20.2-6.6,38.3-18.5,59.5-22.9c6.7-1.4,12.6-6.9,19.1-10.6c5.8,3,6.5,8.6,8.4,13.2c18.2,45.1,35.5,90.5,52.3,136.1
		c18.1,49.3,38.9,97.7,58.6,146.5c0.7,1.8,2.1,3.2,3,4.5c7.7,3.1,13.5-1.2,19.5-3.6c44.5-17.9,88.8-36.1,133.2-54.2
		c20.9-8.5,41.9-16.9,64-25.8c2.2,4.8,4.5,8.7,5.8,13c18.1,62,36.4,123.9,54,186c30.7,108.2,61,216.6,91.3,324.9
		C3880.2,2375,3884.4,2384.4,3883.2,2395.6z"/>
	<path onclick="modals(this.id);" id="849" class="st0" d="M6527.8,4247.9c14.8-10.5,29.2-21.2,44-31.3c11.6-7.8,23.7-14.9,35.5-22.3
		c11.8-7.4,23.8-14.4,33.2-25.3c5-5.8,12.6-9.8,19.6-13.6c17.6-9.4,36-17.4,53.3-27.3c9.7-5.5,18.9-12.8,26.5-21
		c8.8-9.5,10.8-22.6,11.8-35.3c0.9-10.6,1-21.3,6.2-32.3c3.7-2.1,8.5-4.4,12.9-7.3c8.3-5.5,16.5-11.1,24.4-17
		c7.3-5.4,13.5-11.7,8.1-21.9c15.2-14.9,28.9-28.8,45.3-40.6c29.7-21.4,56.9-46.2,86.3-68c29.5-21.8,53.4-47.8,71-79.8
		c2.9-5.2,6.6-10,9.7-15.1c32.7-53.5,69.4-104.2,107.8-153.7c24.5-31.7,47.1-64.5,66.2-99.8c3.4-6.4,7.6-12.3,12-19.4
		c5.2,3.6,9.6,6.3,13.8,9.5c17.6,13.2,35.1,26.5,52.6,39.8c3.2,2.4,6.4,4.8,9.9,6.7c4,2.1,7.8,1.3,10.6-2.4
		c3.6-4.8,7.1-9.7,10.5-14.6c11.6-17.1,23.2-34.2,34.8-51.2c2.6-3.8,5.6-7.3,8.6-11.4c11,2.6,19.3,9.6,28.5,14.5
		c8.7,4.6,17.2,9.6,26.8,14.9c-3.4,5.9-6.1,11.1-9.3,15.9c-25.5,37.4-51.3,74.7-76.6,112.2c-28.7,42.5-57.8,84.7-85.3,128
		c-80,126-162.8,250.1-245.6,374.2c-38.4,57.6-75.5,116.1-112.8,174.5c-60.2,94.3-119.7,189.1-180.1,283.3
		c-30.9,48.2-63,95.7-94.5,143.6c-7,10.6-13.7,21.3-20.7,31.8c-3.6,5.5-7.5,10.8-11.5,16.6c-3.8-0.6-7.2-0.6-10.2-1.7
		c-44.7-15.3-89.4-30.8-134-46.3c-3.6-1.3-7-3.2-11.4-5.3c1.5-4.5,2.5-8.1,3.8-11.8c13.6-37.5,27.4-75,40.9-112.6
		c7.4-20.7,7.1-20.8,4.7-40.7c-15.5-13.5-28-3.7-40,7.6c-4.1-16.7-2.8-61.4,2.1-89.2c8.4-4,18.1-2.9,26.9-1.7
		c19,2.6,30.3-6.9,38.9-21.7c13.9-24.1,20.5-50.4,22.1-78c1.1-19.3,1.7-38.6,2.7-57.8c0.2-4,0.8-7.9,1.2-11.7c2-1.3,3.5-2.8,5.3-3.4
		c10.1-3.1,14.1-11.7,12.7-20.1c-2-12.2,0.8-23.9,0.8-35.8C6527.8,4264.7,6527.8,4256.7,6527.8,4247.9z"/>
	<path onclick="modals(this.id);" id="3233" class="st0" d="M7319.3,4249.3c-12.3-16.8-24.1-32.8-35.2-47.8c0-2.7-0.4-4.3,0.1-5.3
		c14.9-32,29.3-64.2,45-95.7c18.1-36.4,37.3-72.1,56.1-108.1c5.5-10.6,11.3-21.1,17.3-32.4c3.7-0.8,7.6-1.3,11.2-2.5
		c7.6-2.6,14-0.8,20.8,3.1c20.3,11.5,40.7,22.6,59.1,37.2c5.7,4.5,11.9,8.2,18.5,12.8c4.9-4.8,9.1-8.7,14.2-13.6
		c11.3,8.6,22.4,17,33.3,25.6c41.2,32.8,82.3,65.6,123.5,98.4c6.4,5.1,12,11.9,21.4,11.7c-4.5,1.2-9.2,1.9-13.4,3.7
		c-10.6,4.4-13.5,12.1-8.6,22.4c8.5,18.1,17.3,36,26,54c8.9,18.5,17.7,37.1,26.9,56.6c-10.8,6.1-20.8,9.6-35.7,8.1
		c8.3-4.2,13.5-6.8,19.4-9.7c3.4-15.5-5.5-27.2-13.1-40.7c-22.9,6.6-45.2,12.6-67.9,21c0.4,4.3,0.1,8.3,1.2,11.8
		c19.8,61.4,36.3,123.9,59.2,184.4c15.1,39.9,25.7,81.2,37.4,122.1c19.5,68.5,38.8,137.1,58.3,205.6c3.6,12.6,6.5,25.2,16.3,35.8
		c5.6,6.1,8.8,15.6,2.7,25.7c-2.9,4.8-0.5,12.7-0.5,19.5c-2.6,1.6-4.6,3.4-7,4.2c-38.3,13.3-76.8,26.3-115.1,40
		c-9.1,3.3-15.1,0.1-21.6-5.4c-39.9-33.3-80-66.3-119.8-99.7c-81.2-68-162.2-136.2-243.4-204.2c-26-21.8-52.4-43.2-78.7-64.8
		c-1.5-1.3-3.2-2.3-5.5-4c2-5,3.2-9.4,5.3-13.2c22.7-43,45.5-85.9,68.2-128.9c3.4-6.4,6.5-13,10.1-20.3c-3.7-2.9-6.4-5.6-9.6-7.5
		c-5-3-10.3-5.6-16.3-8.8C7292.8,4309.2,7306,4279.5,7319.3,4249.3z"/>
	<path onclick="modals(this.id);" id="613" class="st0" d="M4151.1,2109.7c3.8-1.6,5.5-2.7,7.4-3c26.3-4.4,52.6-8.2,78.8-13.2c10.3-2,20.7-5.5,30.2-10
		c16.3-7.6,26-28,23.8-46.5c-1.1-9.7-4.4-19.4-2.5-30.5c13.4,0.7,25.1,4.8,35.9,11.2c24.8,14.7,47.1,32.5,66.6,53.8
		c4.7,5.1,7.7,10.6,8.9,17.4c3.9,21.6,11.9,42.3,12,64.6c0,5.7,3.3,11.4,5.5,18.6c-6.9,5.3-13.9,11.2-21.3,16.5
		c-24.5,17.8-25.1,18.8-25.6,48.2c-11.9,6.4-25.9,8.6-38.9,13.2c-13.1,4.6-26.3,8.7-39.9,13.1c-0.5,17.5,5.8,30.7,17.1,41.8
		c5.2,5.1,11.2,9.4,16.6,14.3c10.7,9.7,23.7,14.6,37.1,18.7c12.1,3.7,24.3,7.1,36.4,10.7c13.9,4,24.7,11.8,33.5,23.6
		c13.6,18.2,26.4,36.7,36.8,57c5.2,10.1,10.4,20.3,17.1,29.3c8.8,11.8,12.1,24.7,13.2,38.9c2.6,32.6,8.8,64.6,16.7,96.3
		c1.4,5.8,2.8,11.8,5.1,17.2c6,14,3.5,27.4-1.9,40.7c-1.2,3.1-3.1,5.9-4.3,9c-4.9,11.9-5.1,23.8,3.3,33.9
		c8.5,10.3,11.4,22,13.9,34.6c6.7,32.6,14,65,21.8,97.4c4.1,16.9,8.6,33.6,9,51c0.2,11.2,4,20.7,11.5,29c3.1,3.4,5.9,7.2,8.7,11
		c6.5,9.1,9,19.1,6.8,30.2c-1,5.2-2.2,10.3-3.6,16.8c-33.7,12.5-67.9,25.1-103.2,38.1c-3.5-3.4-7-6.9-11.1-10.9
		c-15.9,5-28.1,17.7-44.9,20.9c-16.2,3.1-31.3,10.7-47.5,12.8c-7.6-8.9-5.8-21.4-14.4-29.5c-14.3-0.8-25.5,10.7-40.4,10.7
		c-2.1-5.8-4.4-11.2-6.1-16.9c-17.8-59.3-35.5-118.6-53.2-177.9c-24.4-81.6-49-163.2-73.2-244.9c-4-13.3-5.7-27.3-9.5-40.7
		c-6.5-23.1-12.8-46.2-20.9-68.7c-6-16.7-12-33.7-25.4-46.9c-5.5-5.4-8.7-13.3-12.7-20.2c-26.6-45.4-53.1-90.9-79.6-136.3
		c-1.7-2.9-3.2-5.8-5.2-9.5c4.7-4.7,8.5-9.8,15.7-11.7c8.6,5.8,7.2,17,14.7,25.5c17.3,2,35-3.4,52.5-5.9c5.8-9.9-2.2-15.9-4-23.3
		c-1.7-7-2.9-14.1-4.4-21.9c18-6.9,36.6-5.3,53-11.1c5-12.4,3.5-23.9-0.5-35.6c-4.4-12.6-8.3-25.3-12.3-38
		C4153,2118.8,4152.3,2115,4151.1,2109.7z"/>
	<path onclick="modals(this.id);" id="610" class="st0" d="M3909.8,2439.4c-28.7-102.6-56.7-203.9-85.4-305c-28.7-101.1-55.8-202.7-88-304
		c-5.2,0.3-9.9-0.2-14,1c-7,2-13.8,4.9-20.6,7.6c-56.7,23.1-113.4,46.2-170.2,69.3c-4.3,1.7-8.7,3.2-13.9,5.1
		c-2-3.7-4.2-6.9-5.6-10.5c-18-44.4-37.9-88.2-53.4-133.4c-27.8-81.3-61.6-160.2-92.6-240.3c-2.1-5.5-4.1-11.1-6.2-17.2
		c8.4-5.8,17.3-2.2,25.8-3.9c6.9,6,10.1,14.2,14.3,21.6c4.4,7.9,10.3,13.5,18.6,17.2c11.5,5.2,22.9,10.9,33.9,17
		c10.8,6,22.2,8.8,34.3,9.5c6,0.3,12,0.6,17.9,1.3c7.6,0.8,14.5-0.7,21.1-4.4c7.5-4.2,15.1-8.5,23-11.9c16.5-7.2,26.5-19.5,31-36.7
		c0.8-3.1,2.5-6,3.9-9c0.2-0.5,1.1-0.8,2.4-1.7c9.4,16,15.6,33.4,23.2,50.1c8,17.6,15.3,35.5,23.5,52.9
		c7.9,16.7,13.1,34.7,22.7,51.3c4.9-0.7,8.8-0.8,12.5-1.8c33.9-9.6,67.7-19.4,101.8-29.2c2.2,1.9,4.7,3.4,6,5.5
		c7.4,12.1,16.9,12.1,29.1,7.5c13-4.9,26.8-8,40.3-11.3c30.4-7.4,61-14,91.3-21.6c19.8-4.9,39.7-2.2,60.2-3.7
		c4.5,6.3,5.8,13.4,7.1,20.5c5.1,28.8,10.4,57.6,15.1,86.5c6.9,41.4,13.4,82.8,19.9,124.2c0.3,1.8-0.5,3.8-0.9,7
		c-30.6,5.3-61.2,10.6-92.9,16c-0.2,5.2-1.1,9.8-0.4,14.1c5,29.5,9.5,59.2,15.8,88.5c4.4,20.7,11.2,40.9,16.9,61.2
		c4.6,1.6,8.2,2.8,11.9,4.1c0.8,1.1,1.9,2.1,2.2,3.2c4.3,21.5,8.6,43.1,12.7,64.7c2.6,13.7,4.9,27.4,11.3,40.1
		c2.7,5.3,4.1,11.2,6.4,17.7c-1.7,2.9-4.9,6.1-5.1,9.6c-0.3,4.4,1.5,9,2.9,13.3c5.1,15.1,10.5,30.2,16.1,46.1
		c-3.8,3.6-7.4,7.1-11.6,11.2c5.3,16.1,15.8,29.2,23.7,43.6c7.7,14,15.9,27.7,23.9,41.5c8.3,14.3,16.7,28.7,25.5,43.6
		c-2.5,2.1-4.2,4.2-6.4,5.2c-57,24.3-115,45.9-173.6,65.8C3915.4,2439.1,3913.3,2439,3909.8,2439.4z"/>
	<path onclick="modals(this.id);" id="3243" class="st0" d="M8838.6,4023.1c-4.2,18.7-7.7,34.9-11.6,51c-11.6,47.9-23.4,95.7-34.9,143.6
		c-3,12.4-7,24.2-12.5,35.7c-16.8,35.5-32.9,71.4-50.1,106.7c-6.4,13-7,24.2-0.3,37.6c20.9,41.7,40.5,84,60.5,126.1
		c2.5,5.3,4.8,10.7,7.1,16c-13.7,6.8-61.9,20.6-80.1,22.9c-1.9-6-3.5-12.4-5.8-18.5c-1.4-3.6-3.2-8.6-6.1-9.6
		c-7.1-2.5-7.8-8.3-10.1-13.7c-13.8-31.9-23.3-65.2-33.9-98.1c-2-6.3-4.1-12.6-6.5-19.9c-4.8-0.1-9.5-1.2-13.6-0.1
		c-45,12-90,24.3-135,36.5c-2.6,0.7-5.2,1.4-7.5,2.6c-21.6,10.8-44.7,17.1-67.6,24.2c-8.1,2.5-16.2,6.5-22.9,11.7
		c-10.5,8-22.2,14.7-30.6,25.5c-2.6,3.3-7.5,5.2-11.7,6.9c-20.4,8.5-42.1,12.4-63.4,17.7c-73.6,18.4-147.2,37.1-220.8,55.6
		c-3.2,0.8-6.4,1.3-10.5,2.2c-6.7-18.8-8-38-11.4-56.7c-3.5-19-7-38-10.2-57c-3.2-18.9-6.2-37.9-9.4-57.8c3.8-1.6,6.6-3.2,9.6-4
		c27-7.2,54.1-14.3,81-21.6c4.3-1.2,8.2-3.6,12.8-5.8c-4.8-20-4.8-40.1-16.6-58.7c16.4-5.7,30.6-10.7,44.6-15.6
		c1.4-12-5.2-20.3-8.4-29.4c-3.1-8.7-6.9-17.1-10.9-26.9c15.2-5.1,29-9.8,42.7-14.4c1.8-0.6,4.2-1.2,5.8-0.7
		c11.6,4,22.3-0.4,33.3-2.9c18.8-4.3,37.6-8.7,55.8-12.9c5.8-5.7,3.5-11.8,2.4-17.5c-2.9-15-6.4-29.9-9.5-44.9
		c-0.9-4.5-1.3-9.1-2.1-14.6c10.7-4.3,20.9-8.4,31.6-12.6c-0.9-6.9-1.7-12.7-2.7-19.8c3.9-0.3,8.5-2.1,11.1-0.6
		c12.2,7,25.3,7.3,38.7,7.1c1.3,0,2.6,0.5,3.8,0.8c8.1,8.9,15.8,18,24.2,26.5c13.6,13.8,31,20.1,49.5,23.8
		c19.4,3.9,37.6,2.2,55.8-7.7c10.7-5.8,23.6-8.3,35.5-14.7c1-6.9,2-13.9,3-20.9c0.6,0,1.1,0,1.7,0c0.3,1.6,0.6,3.1,0.8,4.7
		c1.5,8.8,4.4,11,11.5,7.5c10.8-5.3,21.3-11,31.9-16.6c4.1-2.2,8-4.9,12.4-6.5c23.1-8.8,44.6-20.5,65.4-34.1
		c15.7-10.3,34.9-12.6,52.7-17.9c9.5-2.8,19.2-5.3,28.5-8.7c23.2-8.4,46.2-17.2,69.3-25.8
		C8814.5,4025.2,8824.7,4022.8,8838.6,4023.1z"/>
	<path onclick="modals(this.id);" id="740" class="st0" d="M4431.3,4164.4c-10.3-10.7-17.3-23.3-22.9-37c-29-72.3-58.3-144.5-87.5-216.8
		c-27.7-68.5-55.5-137-83.2-205.6c-1.7-4.3-3.3-8.7-5.2-13.7c2.2-1.6,4.1-3.6,6.4-4.5c37.7-13.2,75.4-26.3,113.2-39.4
		c1.2-0.4,2.6-0.3,5.4-0.6c2.1,4,4.6,8.4,6.9,12.9c2.4,4.7,4.6,9.4,6.5,13.4c8,3.2,14-0.1,20.3-2.2c36-11.9,72.1-23.7,108.2-35.4
		c5.6-1.8,11.5-2.9,18.2-4.5c11.2,25.5,19,51.7,28.8,77c9.8,25.4,17.7,51.5,27.9,75.2c7.8,3.4,13.7,2.1,19.2-0.4
		c12-5.5,24.6-6,37.2-4.9c13.7,1.2,26.3-0.9,38.4-7.8c21.1-12.1,43.8-17.7,68.3-19c30.7-1.5,61.3-1.2,91.9,0.1
		c4.5,0.2,8.9,1.8,13.8,2.9c7.3,27,7.9,54.4,12.6,81.1c-5.5,8.8-14.1,12.8-22,17.5c-26.4,15.6-52.9,31-79.3,46.5
		c-1.1,0.7-2.3,1.4-3.4,2.1c-13.3,8.1-13.6,9.1-6.2,23.6c2.1,4.2,4.5,8.1,6.6,12.3c1.8,3.5,3.2,7.1,5.3,11.7
		c-7.3,5.1-14.2,10-20.7,14.5c-3.5,12.6,8.8,19.3,9.8,29.5c-1.2,1.3-1.8,2.9-2.9,3.2c-23.6,6.9-46.5,16.1-71.1,19.5
		c-19.2,2.6-36.6,11.3-53.3,16.7c-4.1,6.7-1.6,10.8,0.7,14.9c6.5,11.6,13,23.1,19,33.7c-0.2,2-0.1,2.7-0.4,3.2
		c-0.3,0.6-0.9,1-1.4,1.4c-1.1,0.7-2.2,1.6-3.4,2c-65.6,24.1-129,54-195.5,75.7C4435.7,4164,4433.7,4164,4431.3,4164.4z"/>
	<path onclick="modals(this.id);" id="3225" class="st0" d="M6445.8,3838c-3.9-5-7-10-11-14.1c-4.2-4.2-9.2-7.6-13.9-11.4c-40.6-32.4-81.4-64.7-121.8-97.4
		c-10.1-8.2-21.3-13.6-33.6-16.7c-2.2-0.5-5.8,0.4-7.1,1.9c-1.2,1.5-1.2,5.2-0.2,7.2c5.5,11.4,11.4,22.5,17.6,34.7
		c-8.2,6.3-12.8,16.9-27.2,16.7c2.8-7.3,5-13.2,7.4-19.1c6-14.5,6.1-14.5-6.8-24.7c-15.7-12.4-31.6-24.5-47.1-37.2
		c-8.1-6.6-16.7-10.7-28.1-10.4c-10.5,8.7-12.6,24-22.4,33.7c-18.9-10.5-188.2-143.4-210.1-165c2.4-3.4,4.8-7.1,7.4-10.6
		c21.5-28,42.5-56.4,65-83.6c8.7-10.6,20.5-19,32-26.7c4.1-2.8,11.6-1.4,17.4-0.6c17.1,2.5,34.2,5.6,51.2,8.5
		c36.1,6.1,72.2,12.2,108.3,18.3c10.5,1.8,21,2.8,30.8,7.7c3.2,1.6,7.8,0.9,11.6,0.5c4.4-0.5,8-3.8,8.1-7.7
		c0.3-16.2,9.8-28.8,16.2-42.4c7.6-16.2,17-31.6,25.4-46.9c36.1,3.9,138.7,28.2,160.1,37.9c2,10.3,0.9,21-0.9,31.3
		c-5.3,30.7-1,61.1,2.1,91.5c0.7,6.9,4.7,10.4,10.5,13.2c22.8,11.1,45.4,22.4,68.1,33.5c17.3,8.5,34.7,16.9,52.2,25.2
		c13.9,6.5,25.7,15.9,37.2,25.1c-0.8,2.3-1,3.7-1.7,4.7c-34.5,45.7-68.4,92-106.8,134.6c-22.7,25.2-48.2,47.9-72.5,71.6
		C6457.8,3827,6451.9,3832.3,6445.8,3838z"/>
	<path onclick="modals(this.id);" id="3244" class="st0" d="M7814.3,4790.5c-6.8-6.1-7.5-15.2-9.8-23.4c-13.8-48-27.2-96.1-40.7-144.1
		c-5.8-20.5-11.7-41-17.3-61.5c-1.2-4.3-1.7-8.8-2.8-14.3c18.6-5.4,36.5-10.2,54.1-15.9c17.7-5.7,35-12.3,51.2-18
		c4.9-7.8,1-13.1-1.3-18.4c-12.3-28.1-24.8-56-37.3-84c-5.4-12.1-10.9-24.2-15.9-35.5c-8.5-4-15.5-1.1-22.5,0.5
		c-22.7,5.4-45.3,10.9-68,16.3c-3.1,0.7-6.3,0.9-10.2,1.4c-1.6-3.7-3.1-6.6-4.1-9.7c-12.7-41.3-25.4-82.7-37.9-124
		c-0.3-1.1,0.5-2.5,1.2-5.1c14.8-5.1,30.4-10.1,47.7-13.6c2.7,5.7,5.1,10.9,7.3,15.4c-1.3,2.2-1.7,3.8-2.7,4.3
		c-5.4,2.4-10.9,4.6-16,6.6c-3,9.6,1.5,16.2,5,24.3c4.3-0.3,8.2-0.1,11.8-1c12.3-3,24.5-6.3,36.6-9.8c5.4-1.6,7.4-5.6,5.5-10.9
		c-2.1-5.6-4.6-11-7.2-16.4c-14.6-30.7-29.3-61.3-43.8-91.9c-1.7-3.5-3-7.2-5-12.1c3.6-1.6,6.3-3.4,9.2-3.9
		c20.9-3.8,41.8-7.4,63.8-11.3c2.5,5.5,5.2,10.7,7.4,16.1c21.4,53.8,42.7,107.7,64.1,161.5c2.7,6.7,5.8,13.2,8.2,18.6
		c8,3.1,13.6-0.2,19-2c32.3-10.4,64.5-21.2,96.7-31.8c3.1-1,6.2-1.8,9.6-2.8c2,2.6,4.1,4.4,5.2,6.7c17.6,34.4,35.5,68.6,49.4,104.7
		c2.6,6.8,4.2,14,5.4,21.2c9.2,53.1,18.3,106.3,27.3,159.4c0.9,5.2,1.7,10.7,0.8,15.8c-3.2,17.4-2.3,34.6,2.5,51.4
		c2.5,8.9,1.6,16.9-1.9,25.2c-3.1,7.4-5.5,15-8.7,22.3c-3.4,7.8-3.8,15.4-0.8,23.3c1.7,4.4,2.9,8.8,4.5,13.2
		c3.4,9.8,4.1,20-0.5,29.2c-6.6,13.4-4,25.2,2,37.9c23.2,49.4,45.6,99.2,68.5,148.8c14.3,30.9,25.7,62.8,33.5,96
		c5.5,23.3,11.6,46.5,17.3,69.8c1.3,5.2,2,10.4,3.1,16.6c-11.6,8.1-25.7,9.8-38.5,14.8c-13.6,5.4-27.4,10.5-41.3,14.9
		c-13.1,4.2-25.5,10.7-40.6,12.9c1.4-3.2,1.6-5.4,2.9-6.5c7.1-6.3,6.5-13.6,4.2-21.9c-6.9-25-13.6-50.1-19.9-75.3
		c-6.9-27.8-13.1-55.7-19.5-83.6c-0.9-3.8-1.6-7.6-2.5-11.4c-11.3-5.4-21.7,1.6-32.5-0.1c-0.9-1.3-2.4-2.8-2.9-4.5
		c-1.1-3.7-1.7-7.5-2.7-11.9c13.8-7.1,29.2-6.2,43.1-12.6c0.5-3.3,1.4-6.4,1.4-9.6c0.6-33-6.9-64.7-16.7-96c-1.2-3.8-2.9-7.4-4.7-11
		c-16.3-32.8-32.7-65.5-49.2-98.2c-2.3-4.6-5.5-8.8-7.8-12.4c-9.6-0.9-15.3,4.4-21.5,7.9c-31.5,17.3-62.8,35-94.3,52.5
		C7828.5,4786.9,7822.5,4791.4,7814.3,4790.5z"/>
	<path onclick="modals(this.id);" id="3228" class="st0" d="M7683.6,3494.3c5.2,3.9,8.9,6.4,12.4,9.3c40.4,32.7,80.7,65.5,121.2,98
		c13,10.4,25.3,21.2,36.5,33.8c12.5,14.1,20.1,29.4,22.9,48.7c-7,7.4-16.7,11.8-25.6,17.3c-14.2,8.7-28.4,17.4-42.5,26.1
		c-2.8,1.8-5.5,3.8-8.1,5.9c-5.8,4.8-6.8,9.1-2.8,15.6c5.6,9.1,11.8,17.8,17.3,26.9c3.7,6.2,9,11.6,10.1,19.1
		c-16,15.7-46.3,34.1-67.9,40.9c-19.7,6.2-39.4,12.2-59.6,18.5c-4.4,17.3,8.4,32,7.1,49.4c-9.1,3.3-18.2,6.6-28.5,10.4
		c15.4,68.9,35.1,135.7,52.5,204.2c-14.1,4.1-25.3,3.8-36.4-5.2c-37.2-30.3-74.8-60-112.4-89.9c-14.1-11.2-28.3-22.2-42.6-33.1
		c-4.2-3.2-8.8-5.7-14-9.1c-4.6,4.3-8.8,8.2-14.1,13.1c-27.3-20.4-56-39.4-89.6-52.3c1.6-4.2,2.9-8.5,5-12.4
		c27.2-53.4,54.5-106.7,81.8-160.1c3-5.9,6.7-11.6,8.9-17.8c7.4-20.2,18.4-38.2,30.6-55.8c42.3-61.4,83.9-123.2,125.9-184.9
		C7675,3505.9,7678.6,3501.1,7683.6,3494.3z"/>
	<path onclick="modals(this.id);" id="718" class="st0" d="M4052.8,3620.4c-12.1-37.2-27.4-71.2-40.3-107.1c18.7-9.9,38.7-14.7,57.8-21.9
		c19.3-7.2,38.9-13.6,57.8-20.2c6.6,3.9,7.4,10.2,9.6,15.7c43.4,107.5,86.7,215,130,322.5c13.2,32.7,26.5,65.4,39.7,98.2
		c1.5,3.7,2.8,7.4,4.6,12.2c-18.6,11.2-39.1,17.2-58.4,25.6c-18.7,8.1-37.6,16.3-57,22.8c-9.9-12.7-10.1-28.8-20.7-40.6
		c-22,5.9-42.2,16.1-63.3,23.7c-20.6,7.5-40.8,16.1-61.9,24.6c-1.8-2.2-4-3.8-4.9-6.1c-13.4-33.4-26.6-66.8-39.7-100.3
		c-1.6-4.2-2.5-8.7-4-13.9c10.2-4.5,19.8-8.8,29.8-13.2c-0.2-3.9,0.4-7.4-0.7-10.3c-8.7-23.6-16.8-47.4-27-70.3
		c-14.5-1.6-25.1,7.8-39.1,8.6c-9.6-16.3-13.9-35.2-21.1-52.8c-7.3-17.8-13.7-35.9-20-52.6c2.5-7.3,7.9-7.1,12.1-8.3
		c33.8-10.2,67.6-20.3,101.4-30.5C4041.7,3624.7,4045.9,3622.9,4052.8,3620.4z"/>
	<path onclick="modals(this.id);" id="848" class="st0" d="M5772.8,4776.6c-0.4-6.7-0.7-12.7-1.1-19.6c-12.4-8.6-27.3-12.6-41.1-18.7
		c-13.9-6.2-28.1-11.8-42.6-17.9c-1.3-17.8-3-34.9-3.6-52.1c-0.5-16.4-4.4-32.9,0-48.6c5.5-2.9,8.7-0.7,11.3,2.5
		c6.5,7.8,10.2,17,12.8,26.8c1.7,6.3,4.1,12.2,8.7,17.6c9.6,11.3,22.2,14.5,35.6,14.6c9.5,0,18.3,2.1,27.5,3.8
		c17.6,3.4,35.6,5.1,53.6,3.2c10.4-1.1,19.1,1.2,28.7,5.3c13.9,5.9,29.1,9,43.8,12.8c2.9,0.7,7.5,0.3,9.4-1.5
		c6.3-6.1,13.1-5.2,20.4-3.4c8.1,2,15.7,0.3,23.4-2.8c13-5.2,26-9,40.6-8.2c11,0.6,22.1-3.4,30.8-11.8
		c14.4-13.9,29.1-27.3,43.5-41.2c3.3-3.2,6.1-7,8.7-10.8c13.7-21.1,33.1-31.8,58.3-31.2c12.8,0.3,25.1-2,37.4-5.1
		c37.4-9.5,74.8-19.1,110.1-35.3c12.2-5.6,23.8-11.8,34-20.6c11.7-10.1,25.4-17,39-24c12.7-6.6,26.4-7.3,41.7-8.4
		c1.4,34.8-1.6,67.8-3.5,101.6c-3.9,3.4-7.7,7.1-11.8,10.3c-49.4,39.5-98.9,79-148.3,118.4c-3.6,2.9-7.5,5.5-11.2,8.3
		c-7.7,5.8-16.3,8.9-26,8.4c-8.6-0.5-17.3-0.9-25.9-1.2c-9.7-0.4-12.9,1.8-15.8,11.5c-1.9,6.4-3.4,12.9-5.3,19.2
		c-4.8,15.7-5.4,31.4-1.2,47.3c2.4,9,5.1,17.9,7.4,26.9c0.9,3.8,2.4,8.1,1.3,11.5c-3.1,9.8-0.7,18.2,3.6,26.9
		c2.2,4.5,3.1,9.7,5.2,16.8c-4.4-1.3-6.9-1.6-8.9-2.7c-24.9-14.1-49.7-28.3-74.7-42.3c-5.7-3.2-11.8-6.1-18.1-8
		c-47.3-13.7-94.6-27.4-142.1-40.4c-17.9-4.9-36.4-7.4-54.5-11.8c-21.3-5.2-42.4-11.3-63.7-16.7c-5.7-1.4-11.7-2.2-17.6-2.5
		C5785.7,4782.9,5779.1,4782.6,5772.8,4776.6z"/>
	<path onclick="modals(this.id);" id="689" class="st0" d="M4468.2,3008.3c2.6,2.4,5.4,5.1,9.2,8.7c37.4-12.4,73.5-29.3,111.9-39.9
		c11.9,15.1,21.4,29.9,27.4,47.3c4.8,13.8,11.9,26.8,18.4,39.9c4.8,9.6,9.3,19.1,8.1,30.4c-0.3,3.2,0.5,6.6,0.9,9.9
		c0.6,5.2,3.4,8.9,8.6,9.6c7.7,1.1,15.6,1.6,24.6,2.5c4.8,7.5,7.5,16.9,9.7,27.7c-3.9,2.5-7.5,5.2-11.5,7.1
		c-52.4,24.8-106.8,44.7-160.6,66.2c-20.9,8.3-42.8,14.2-64.4,20.8c-36.9,11.2-74,22-111,32.9c-5.7,1.7-11.5,3-16.4,4.3
		c-6.9-3.1-6.3-9.2-8.5-13.9c-2.8-5.8-1.9-13.5-9.9-17.9c-28.6,4.7-57.4,12.1-86.6,22.5c-2.2-3.4-4.8-6.3-6.2-9.7
		c-23.6-57.9-47.2-115.9-70.6-174c-1.2-2.9-1.1-6.3-1.8-10.7c43.8-15.3,87.6-28.4,130.7-42.1c20.4,14.1,37.8,15.6,60.5,5.4
		c0-4.4,0-9,0-14.4c7.6-6,17.3-8.2,27.6-12c2,3.5,4.3,6.6,5.7,10c2.6,6.1,4.6,12.3,6.9,18.5c12.7,2.7,22.8-3.7,33.4-6.5
		c10.3-2.7,20.6-5.6,30.6-9.2C4445.5,3018,4455.8,3013.4,4468.2,3008.3z"/>
	<path onclick="modals(this.id);" id="853" class="st0" d="M6637,4710.3c104,37.2,206.9,71,310.1,108.1c-7.8,21.7-19.6,40.1-28.9,59.6
		c-9.2,19.2-19.3,38-29,56.9c-10,19.5-19.8,39.2-30.2,58.5c-10,18.7-18.1,38.4-30.3,56.8c-4.8-0.5-9.4-0.5-13.8-1.6
		c-19.9-5.3-39.8-10.8-59.7-16.4c-5.8-1.6-11.4-3.7-18.3-0.8c-3.4,5.5-7.2,11.7-11.5,18.5c-4.8-1.3-9.2-2.1-13.4-3.7
		c-54.9-20.5-109.7-41.1-164.5-61.5c-18.1-6.7-36.3-13-54.4-19.7c-4.8-1.8-9.2-4.5-14.7-7.3c10.9-23.6,25.7-43.2,38.5-64
		c12.6-20.4,26.1-40.2,39.2-60.3c13.4-20.6,26.8-41.3,40.3-61.9C6609.5,4751.7,6622.7,4731.8,6637,4710.3z"/>
	<path onclick="modals(this.id);" id="717" class="st0" d="M4591.9,3577.8c-0.4,6.5-0.7,11.1-1,15.2c-4.6,4.4-35.7,14.3-63,20.3c-5.5-3.3-6.1-9.7-8.1-15
		c-26.8-73.8-53.3-147.7-80.3-221.4c-12.4-33.8-23.2-68-33-102.5c-0.7-2.5-1.3-5-2.2-8.9c5-2.1,9.5-4.4,14.3-5.9
		c24.1-7.7,48-16,72.3-22.7c45-12.4,87-32.7,130.4-49.4c17.4-6.7,34.2-14.7,51.3-21.9c3.5-1.5,7.2-2.4,10.4-3.5c1.6,1.9,3,2.9,3,3.9
		c-0.4,18.9,3.6,37.1,9.9,54.7c10.2,28.4,5.1,56.4-0.6,84.5c-0.1,0.7-0.3,1.3-0.5,1.9c-13.6,30-6.5,47.7,10.7,81.1
		c9.5,18.4,21.8,34.9,35.1,50.8c10.2,12.2,18.8,25.9,27.3,39.3c3.8,6,5.7,13.2,9,21.1c-5.6,2.9-10,5.5-14.7,7.5
		c-50.4,21-100.8,41.9-151.1,62.9C4605,3572,4599,3574.7,4591.9,3577.8z"/>
	<path onclick="modals(this.id);" id="612" class="st0" d="M3955.1,1874.4c33.3-5.8,63.9-11.2,95.6-16.7c0-5.1,0.5-9-0.1-12.7c-5.9-37.5-11.8-75-18.1-112.4
		c-4-23.6-8.9-47.1-12.7-70.7c-2.7-16.3-4.2-32.8-6.3-49.1c13.2-2.8,72.1-3.9,94.1-1.8c4.2,42.7,8.4,85.5,12.7,128.4
		c2.4,23.8,4.2,47.8,7.5,71.5c1.9,13.7,6.7,26.8,8.5,40.7c0.8,6.1,5.8,11.8,9.7,17.1c4.6,6.3,7.3,12.4,4.5,20.3
		c-2.6,7.5,1.4,12.9,7,17.1c3.1,2.4,6.8,4.8,10.6,5.4c12.7,2,20.3,12.1,30.5,18.1c3.6,2.1,6.2,7.1,7.5,11.3
		c2.9,9.4,9.1,16.2,16.2,22.3c10.6,9.1,21.1,18.7,35.3,21.8c8.2,1.8,12.7,7.2,14.6,14.7c3.1,12.2,6.3,24.5,7.9,37
		c2.2,17.9-6.8,32.6-23.9,39.2c-11.1,4.2-22.9,7.1-34.6,9.3c-23.5,4.5-47.2,8.1-70.8,12.1c-3.2,0.5-6.3,1.4-9.2,2.1
		c-4.4,8.2-1.6,15.2,0.5,22c4.9,15.9,10.2,31.7,15,47.6c1.5,4.9,2,10.1,3,15.8c-18.2,8.4-37.7,5.9-55.2,12.2
		c-5.1,15.9,3.7,30.2,4.2,45.2c-2.2,1-3.9,2.4-5.7,2.6c-8.5,1.1-17,1.9-26.5,2.9c-3.6-8.4-6.9-16.3-10.6-25c-2.7-0.5-5.8-1.4-9-1.7
		c-3.3-0.3-6.6-0.1-10.9-0.1c-7.3-13.3-9.4-28.7-15.4-42.6c-0.8-1.9-0.1-5.5,1.3-7.1c3.7-4.1,3.6-8.3,1.9-12.9
		c-0.2-0.6-0.5-1.3-0.7-1.9c-17.3-37.3-22.3-77.8-29.9-117.6c-0.7-3.9-1.7-7.8-2.6-11.7c-0.5-1.9-1.3-3.7-2.2-6
		c-3.6-1.1-7.4-2.2-12.3-3.7C3969.9,1972.5,3963.8,1924.4,3955.1,1874.4z"/>
	<path onclick="modals(this.id);" id="715" class="st0" d="M3912.8,3418.9c8.8-3.7,14.8-6.4,21-8.9c46.4-18.5,92.8-36.8,139.1-55.4
		c11.1-4.5,22-9.6,32.5-15.2c29.3-15.7,58.7-31.4,87.5-48.1c23.9-13.9,49.9-21.7,76.3-28.7c9.6-2.5,19.4-4.2,29.1-6.2
		c9.7,9.1,6.7,23.7,16.1,32.8c26.2-4.4,50.7-15,77.2-20.7c8.1,16.3,10.2,33.5,16.9,50.6c-4.5,2.5-8.1,5.3-12.2,6.6
		c-17.1,5.6-34.3,10.8-51.4,16.3c-3.7,1.2-7.2,2.9-11.1,4.5c-3.1,12.2,5.1,22.2,5.2,34.8c-2.6,1.5-5.7,3.8-9.2,5.2
		c-16.6,6.8-33.4,13.2-50.1,20c-5.4,2.2-10.6,5.1-16.6,8c0.9,4.7,1.1,8.7,2.5,12.1c22.7,53.3,45.5,106.5,68.3,159.7
		c6.5,15.2,12.7,30.5,19.4,46.9c-20.5,11-41.9,15.8-62.2,23.3c-20.5,7.5-41.2,14.5-63,22.1c-3-6.2-5.8-11.3-8-16.7
		c-24.5-61.2-48.9-122.4-73.3-183.5c-2.7-6.7-5.7-13.2-8.5-19.7c-3.9,0-6.6-0.6-9,0.1c-23.6,6.4-118.2,41.3-129.8,48
		c1.5,19.8,15.5,36,18.4,56.5c-6.2,5.1-14.2,6-21.7,8.3c-7,2.1-14.1,3.8-21.4,5.7c-8.1-5.3-6.2-16-13.7-23.6c-1.8,0-5-0.2-8.1,0.1
		c-3.3,0.3-6.5,1.2-10.9,2c-2.2-4.6-4.4-9.1-7-14.7c7.3-3.6,13.5-6.8,21-10.5c-5.6-19.7-14.2-37.6-21.3-56
		C3927.8,3456.5,3920.6,3438.6,3912.8,3418.9z"/>
	<path onclick="modals(this.id);" id="908" class="st0" d="M7349.9,5218.7c-8.9-2.3-15.4-3.8-21.7-5.6c-101.8-28.7-203.6-57.4-305.5-86
		c-6.9-1.9-13.7-5-21.3-1.3c-2.5,1.2-6.7,0.8-9.5-0.3c-7.3-3.1-14.2-7-22-10.9c5.8-20.1,19.7-35.5,24.5-53.6
		c-2.3-7.4-8.2-8-12.8-10.2c-7.7-3.6-16.6-4.8-24-11.4c30.4-58.6,60.7-117.1,91-175.5c1.2-2.3,3.2-4.1,5.2-6.5
		c3.5,0.7,6.8,0.9,9.8,2c87.3,30.3,174.6,60.7,263.1,91.5c-2.1,5.3-3.4,9.5-5.4,13.4c-8.5,16.6-17.2,33.1-25.8,49.6
		c-2.4,4.6-5.7,9.2-2.6,16.1c4.5,0.3,9.6,0.5,15.2,0.9c1,1.3,2.6,2.7,3.3,4.5c16.6,44.9,33.1,89.9,49.8,134.8
		c2.2,6,2.6,11.2,0.1,17.3C7357.2,5197.1,7354,5207.1,7349.9,5218.7z"/>
	<path onclick="modals(this.id);" id="856" class="st0" d="M7454.9,4728.8c6.7,5.1,12.1,8.8,17,13c61.3,51.3,122.3,102.9,183.9,153.9
		c21.2,17.6,16.5,19.5,47.9,8.3c33.9-12.1,68-23.4,102-35c3.1-1.1,6.2-2,9.5-3c11.7,12.3,16.2,27.1,19.1,43.6c-3.7,1.9-7,4-10.6,5.3
		c-24.9,9.4-49.9,18.6-74.8,28c-6.7,2.5-13.3,5.6-20,8.4c0.3,14.2,8.9,24.7,10.5,38.4c-16.1,9.2-34.3,13.2-51.4,19.9
		c-16.7,6.5-33.7,12.4-50.6,18.5c-17.4,6.3-34.9,12.5-52.2,18.8c-9.9-9.6-8.3-23.5-16.1-32.3c-7.3-3.3-13.3,0.5-19.4,2.8
		c-50,18.3-100,36.7-150,55c-17.4,6.4-34.9,12.8-53.2,19.5c-2.6-5-5-8.8-6.6-13c-5.7-14.9-11.1-29.9-16.7-44.9
		c-1.6-4.4-3-8.9-5.4-12.8c-1.9-3.2-5.3-5.5-8.2-8.4C7357.9,4918.6,7405.8,4825,7454.9,4728.8z"/>
	<path onclick="modals(this.id);" id="3232" class="st0" d="M7240.2,4253.8c-73.3-47.5-144.6-93.8-215.2-139.6c-0.2-2.1-0.3-2.8-0.3-3.4
		c0.1-0.7,0.2-1.4,0.5-1.9c9.4-14.5,18.8-29.1,28.3-43.5c38.6-58.3,77.2-116.5,115.9-174.7c0.7-1,2-1.7,3.2-2.3c0.4-0.2,1,0,2.8,0.2
		c-1,8.4-7.1,13.9-11,20.3c-3.8,6.3-8.1,12.2-12.1,18.3c-4.3,6.6-9.8,12.5-12,20c10.2,8.3,40.8,26.8,50.8,30.5
		c2.9-3.7,6.5-7.4,9.3-11.7c21.1-32.3,42-64.8,63-97.2c4-6.1,8.1-12,11.5-17c2-0.8,2.6-1.2,3.3-1.2c0.6,0,1.3,0.3,1.9,0.7
		c38.2,28,80.3,49.7,120,75.4c1,0.7,1.6,2,3.4,4.2c-5,12.1-11.6,24.3-18,36.6c-22.4,43.1-46.2,85.5-67,129.4
		c-16.3,34.2-32.2,68.6-49.3,102.4c-7.5,14.8-15.1,29.7-22.7,44.5C7244.9,4246.6,7243,4249.2,7240.2,4253.8z"/>
	<path onclick="modals(this.id);" id="3221" class="st0" d="M5929.5,3528.5c-19.3-15.2-38.6-30.4-58-45.6c-3.7-2.9-7.2-5.9-11.1-8.6c-2.1-1.5-4.9-3.8-7-3.4
		c-13.1,2.7-18.5-7.7-27.2-14.5c2.3-3.9,3.9-7.5,6.2-10.5c8.6-11.1,17.4-21.9,26-32.9c7.8-9.9,15.4-20,23.3-29.9
		c5.3-6.8,10.7-13.6,16.4-20c3.8-4.2,6.4-8.5,5.3-15.6c-9.9-5.8-12.5-16.4-14.6-27.7c-7.6-41.2-15.6-82.4-23.5-123.6
		c-0.5-2.6-0.5-5.2-0.8-8.4c18-17.7,37.6-33.5,56.8-50.5c23.8,17.3,47.1,32.7,68.7,50.4c19.9,16.3,43.9,21.7,67.2,28.9
		c5.4,1.7,11.9,0.4,17.8-0.1c21.2-1.7,42.4-3.8,63.6-5.6c10-0.8,12.8,1.4,12.8,11.9c0,5.4,2.2,8.8,6,11.7
		c11.6,8.9,23.3,17.8,34.8,26.8c4.1,3.2,7.8,6.8,12.1,10.5c-29.4,21.4-57.8,42.2-86.3,62.9c-28.4,20.7-56.9,41.3-85.5,62
		c0.9,3.3,1.7,6.4,2.5,9.3c-0.8,1.4-1.2,2.8-2.2,3.6c-4.6,3.8-9.2,7.7-14.1,11.2c-7.1,5.2-12.6,11.6-17.9,18.6
		c-21.8,28.6-44,56.9-66.2,85.2C5933.7,3525.9,5931.8,3526.8,5929.5,3528.5z"/>
	<path onclick="modals(this.id);" id="767" class="st0" d="M4171.2,3942c5.9,13.5,11.4,26.1,16.6,38c8.6,3,14.3-1.5,20.2-3.8c29.6-11.9,59.1-24.2,88.6-36.2
		c6.1-2.5,12.3-4.6,19.4-7.2c2.3,4.1,4.5,7.3,5.9,10.7c24.9,61.7,50.1,123.3,74.4,185.2c4.9,12.4,9.7,24.6,17.8,35.2
		c1.1,1.4,1.2,3.5,1.7,5.2c-13.6,8.3-157.6,61.4-176.4,65c-2.2-3.5-6.1-7-6.9-11.1c-1.8-9.4-8.3-15-14.3-21.1
		c-34.3-34.4-68.6-68.8-103.1-103.1c-26.9-26.8-54-53.3-80.9-80c-4.7-4.6-9.1-9.6-14.4-15.3c2.6-2.2,4.1-4.4,6.2-5.3
		c46.3-18.5,92.7-36.9,139.1-55.3C4166.4,3942.5,4167.8,3942.5,4171.2,3942z"/>
	<path onclick="modals(this.id);" id="3239" class="st0" d="M7865.6,4031.7c5.1-2.1,8.6-4.2,12.4-5c22.2-4.4,40.4-16.7,58.8-28.7
		c36.2-23.7,72.3-47.6,108.5-71.3c7.6-5,8.7-8.4,4.2-16.5c-10.4-18.6-21.1-37-31.6-55.6c-3.2-5.7-6-11.7-9.5-18.6
		c4.6-3.7,8.4-7.4,12.8-10.1c45.4-28,90.8-55.8,136.3-83.6c1.6-1,3.6-1.3,5.2-1.9c11.9,13.9,82.4,131.4,127.5,212.4
		c1.9,3.4,3.2,7,4.7,10.4c-2.2,1.1-3.2,2.1-4.4,2.2c-34.2,3-66,15.4-98.4,25.3c-24.2,7.4-48.2,15.2-72.3,23.2
		c-8.2,2.7-16,6.4-24,9.6c-3.1,1.2-6.1,2.6-9.3,3.5c-35.8,10.3-71.6,20.7-107.5,30.9c-6.8,1.9-13.4,5.6-20.6-0.6
		c-2.1-1.8-7.7-0.7-11.3,0.4c-16,4.5-31.9,9.3-47.9,14.1c-5.1,1.5-10.1,3.1-16.1,5C7874.1,4062.7,7875,4045.7,7865.6,4031.7z"/>
	<path onclick="modals(this.id);" id="739" class="st0" d="M4780.1,3513.6c7.2,17.3,8.4,33.5,1.6,49.5c-4.7,10.9-5.1,21.2-3,32.9
		c5.3,28.4,15.7,54.9,27.6,81c1.9,4.1,4.5,9,8.2,10.7c10.9,5.2,13.7,15.8,18.7,25c4.5,8.3,6.8,17.2,5.7,27.4
		c-14,3.5-27.8,0-41.6,0.4c-15.2,0.4-30.5,0.1-45.7,0.5c-10.6,0.2-21.3,1.3-31.9,1.4c-12.9,0.1-25,2.6-36.5,8.6
		c-9.4,4.9-19.3,9-28.9,13.5c-6.1,2.8-12.2,3.8-19.2,3.4c-11.2-0.7-22.5,0.7-33.8,1.3c-5.9,0.3-11.8,0.9-17.2,1.3
		c-10-18.9-49.2-128.5-51.4-143.9c22.8-7.8,45.9-15.7,69.6-23.8c0.6-5.6,1.1-10.8,1.6-16.1c1.5-1.2,2.8-2.9,4.5-3.6
		c54.6-22.8,109.3-45.5,164-68.1C4774.2,3514.2,4776.3,3514.3,4780.1,3513.6z"/>
	<path onclick="modals(this.id);" id="617" class="st0" d="M3538.5,2493.9c1.8,2.7,3.2,4.2,3.8,5.9c1.9,4.9,3.4,9.9,5.2,15.1c-12.2,9.1-27.6,11.2-40,21.2
		c6.9,17.3,13.5,33.9,20.2,50.4c6.7,16.6,13.3,33.2,20.5,50.9c-3,2-5.5,4.2-8.3,5.4c-42,18.5-84.1,36.9-126.1,55.4
		c-6.6,2.9-12.9,6.7-20.2,10.5c-7.1-10.3-12.3-21.6-17.2-33c-16.8-39.1-33.2-78.4-49.9-117.6c-2.3-5.5-4.9-11.1-8.5-15.7
		c-10.1-12.9-10.6-14.2-26.6-8.9c-5,1.7-10.2,2.6-16.4,4.1c-8.6-18.3-14.8-36.8-20.5-56.8c40.5-21.1,80-41.6,119.5-62
		c3.4-1.8,7.3-2.7,10-3.7c9.8,12.3,19,23.6,28,35.1c4.8,6.2,10.6,9.2,18.8,9.3c8.6,0,17.2,1.7,25.8,2.7c11.2,1.4,19.9,6.4,26,16.3
		c3.1,5,7,9.8,11.4,13.8c12.9,11.9,23.5,12.7,39.5,3.9C3534.7,2495.5,3535.9,2495,3538.5,2493.9z"/>
	<path onclick="modals(this.id);" id="716" class="st0" d="M4378.8,3663.4c-34.9-82.1-68.6-161.6-102.7-241.8c24.4-13.4,50.4-20,74.4-31.5
		c3.3-12.1-4.7-22-5.2-34.4c2.7-1.5,5.7-4,9.3-5.1c17.7-5.7,35.4-11.1,54.1-16.9c2.5,4.7,5,8.5,6.5,12.7c31.6,87,63,174,94.5,261
		c1.1,3,1.7,6.2,2.8,10.4c-22.6,7.8-44.4,15.4-66.2,22.8C4424.4,3648,4402.4,3655.4,4378.8,3663.4z"/>
	<path onclick="modals(this.id);" id="614" class="st0" d="M3964.2,2623.7c-10.5-20.5-46.4-146.4-49.2-171c2-1,4.2-2.5,6.6-3.3
		c60.2-21.2,119.8-43.8,179-67.6c1.1-0.4,2.6,0.3,4.9,0.5c4.1,6.8,8.3,14.2,13,21.4c4.7,7.2,10.5,13.7,14.9,21
		c6,10.3,12.6,20.6,16.4,31.7c9.3,27.7,17.2,55.8,25.6,83.8c0.3,1.1-0.3,2.6-0.7,5.2c-4,1.9-8.6,4.3-13.4,6.2
		C4096.6,2577.1,4031.5,2601.8,3964.2,2623.7z"/>
	<path onclick="modals(this.id);" id="719" class="st0" d="M3911.2,3664.5c8.7,22.6,16.2,42.5,24,62.2c7.5,19,12.8,39,22.3,57.6
		c13.8-0.9,24.8-8.1,38.3-10.3c10.1,18.9,16,39.1,23.7,59.6c-8.9,7.9-21.4,8.1-29.6,14.4c-3.3,5.5-1,9.6,0.7,13.9
		c14,35.3,27.9,70.6,41.8,105.9c1.4,3.7,2.5,7.5,4,11.7c-8,7.2-17.5,9.3-26.3,11.6c-15-10.1-258.7-253.6-271.6-268.1
		c28.1-12.5,57.1-21.1,85.9-30.5C3852.7,3683.2,3881,3673.8,3911.2,3664.5z"/>
	<path onclick="modals(this.id);" id="850" class="st0" d="M6300.8,4890.3c-5.9-1.4-11.1-2.5-16.1-3.9c-32.6-9.4-65.2-19.1-97.8-28.2
		c-8.6-2.4-14.2-6.6-15.9-15.7c-0.7-3.9-2.3-7.6-3.6-11.4c-5.7-16.9-6.7-33.8-0.5-50.9c2.5-6.8,4.4-13.7,6.7-21
		c6.8,0,12.7-0.4,18.6,0.1c21.7,1.9,40-4.7,57-18.7c36.4-30.2,73.8-59.2,110.7-88.7c22.4-17.9,44.5-36.1,66.9-54
		c4-3.2,7.2-8.1,13.5-6.9c3.6,10.2,3.8,19.8-0.1,30.3c-17,45.5-32.9,91.4-50,136.9c-4.2,11.1-10.2,21.8-17.1,31.5
		c-22.6,32-48.6,61.6-68.5,95.5C6303.4,4886.8,6302.1,4888.4,6300.8,4890.3z"/>
	<path onclick="modals(this.id);" id="3227" class="st0" d="M7340.2,3786.4c-10.1-12.1-23.9-18-35.6-26.4c-11.3-8.1-23.2-15.5-34.6-23
		c8.2-19.5,56.7-89.9,74.6-108.2c3,1.8,6.4,3.5,9.4,5.9c32.6,25.4,65.1,50.9,97.6,76.4c4.7,3.7,9.4,7.4,14.2,11.1
		c17.6,13.6,17.6,13.6,37.5,11.5c0.2,1.2,0.9,2.7,0.5,3.6c-30.9,59.7-61.9,119.3-93.3,179.8c-20.4-7.3-36.3-20.7-53.9-31
		c-17.8-10.3-36.3-19.6-53.2-33.7c1.6-3.6,2.9-7.3,4.8-10.5c7.8-13.2,15.9-26.2,23.7-39.4
		C7334.9,3797.5,7337.3,3792.1,7340.2,3786.4z"/>
	<path onclick="modals(this.id);" id="768" class="st0" d="M5056.2,3832.9c14.7-9.6,16.9-9.5,27.2-0.1c11.3,10.3,22.6,20.6,34.2,30.6
		c9.1,7.9,19.5,13.8,30.8,18.1c3.7,1.4,7.1,3.4,11.3,5.4c0.2,8.8-4.2,15.2-8.8,21.7c-24.4-0.9-45.5-9.8-65.4-22.5
		c-8.4-5.4-17.2-9.9-26-14.6c-6.3-3.3-12.8-3.4-19.2,0c-22.4,11.7-44.8,23.3-67.2,35c-2.4,1.2-4.5,2.9-6.9,4
		c-46.2,22-92.8,43.3-138.6,66.2c-21.6,10.8-43.4,15.6-68.3,11.9c-3.2-4.9-6.8-10.4-11-16.8c3.1-2.7,5.7-5.4,8.7-7.6
		c4.2-3.1,8.7-5.9,13.2-8.9c-0.2-15.5-12.4-25.4-16.1-39.9c2.5-2,5.2-4.8,8.4-6.8c23.4-14,46.9-27.8,70.4-41.7
		c4.6-2.7,9.1-5.6,13.8-8.1c15-7.8,24.2-18.1,17.9-36.6c-1.4-4.1-0.2-9-0.2-14.3c9.1-3.2,18.3-4.2,27.3-5.7
		c14.4-2.5,28.9-4.9,43.3-7.2c5.9-1,11.8-2.1,16,4.4c1.1,1.7,4.6,2,7,2.7c1.2,0.3,3-0.6,3.9,0.1c11.5,8.1,25.2,6,37.9,8.7
		c7.1,1.5,14.1,3.9,20.8,6.7C5032.5,3822.2,5043.9,3827.5,5056.2,3832.9z"/>
	<path onclick="modals(this.id);" id="788" class="st0" d="M4896.4,3957.3c25,29.8,49.2,86.9,48.6,114.8c-13.2,4-26.8,6.3-40.8,6.3
		c-20.6,0-41.2,0.3-61.9,0.9c-7.9,0.2-15.7,1.6-23.2,2.4c-4.9,9.2-9.2,17.2-13.5,25.3c-15.8-1-26.5-14.8-42.4-13.3
		c-15,21.8-19,49.9-39.8,69.2c-7.5-1.2-13-6.2-19-10c-10.7-6.7-21.1-13.8-31.7-20.7c-4.1-11.2-7.9-22.5-12.4-33.5
		c-4-9.8-8.7-19.4-13.6-28.8c-4.6-8.8-9.7-17.3-15.2-26.8c3.5-2,6.1-4,9-5c16.3-5.7,32.6-10.9,49.6-14.4c22.1-4.5,43.6-12,65-19
		c11.6-3.8,23-6.4,35.2-5.4c11,0.9,20.9-2.1,30.7-6.9c19.1-9.3,38.4-18.3,57.7-27.3C4884.6,3962.3,4890.6,3959.8,4896.4,3957.3z"/>
	<path onclick="modals(this.id);" id="790" class="st0" d="M5142.4,4236.9c-8.9,21-10.3,23-26.8,37.1c2.5,4.9,5.1,10.1,8,15.9c-6.4,9.8-12.9,19.8-19.6,30
		c3.2,5.8,6,11,9.4,17.4c-3.6,4-7.7,8.2-11.5,12.7c-4.2,5-1.9,10.5,4.8,11.3c6.6,0.7,13.2,0.9,20,1.3c6,9.1,4.9,19.5,7.4,29.7
		c-8.6,4.9-17.9,5.6-27,4.3c-15.9-2.2-31.3-6.8-44.8-16c-4.3-2.9-8.3-6.6-11.6-10.7c-20.4-25.5-40.8-50.9-60.7-76.8
		c-4.3-5.6-7.3-12.6-9.7-19.4c-2.7-7.5-3-15.9-6.1-23.1c-11.2-26-12-52.9-9.1-80.3c1.3-12.5,2.1-25.1,3.2-38.6
		c11.8-6.4,24.5-8.7,37.5-11.3c13.6-2.7,25.9,1.8,40.6,2.5c1.7,1.5,4.4,4.5,7.6,6.7c8.4,5.7,12,14,13.8,23.4
		c2.1,11.1,5.2,21.8,8.7,32.6c2.1,6.4,5.3,10.4,10.6,13.5c12.7,7.4,25.2,14.9,37.9,22.2C5132.2,4225,5138.8,4229.4,5142.4,4236.9z"
		/>
	<path onclick="modals(this.id);" id="713" class="st0" d="M3906.4,3652c-21.4,9.9-164,55.8-181,58.3c-7.8-5-14.2-12.3-21-20.7c19.1-16.8,44.7-17,64.6-28.2
		c2.6-7.3-0.9-12.6-3-17.9c-16.1-40.8-32.4-81.5-48.4-122.4c-2.6-6.6-7.1-12.9-5.6-20.5c16.6-10,58.3-26.7,113.8-45.6
		c1.7,2.2,4.2,4.5,5.3,7.3c23.4,57.9,46.7,115.9,69.9,173.9C3903,3641,3904.4,3646.2,3906.4,3652z"/>
	<path onclick="modals(this.id);" id="616" class="st0" d="M3767.3,2564.9c7.8,21.5,18.4,44.2,26.5,67.5c-13.7,9.4-97.6,45.9-114.5,49.9
		c-14.4-25.1-21.1-53.9-34-78.8c-6.3-4-11.2-1.6-16.1,0.5c-16.5,7.1-32.9,14.3-49.4,21.5c-6,2.6-12.1,5-18,7.4
		c-9-12.5-34.3-73.9-38.1-93.1c8.7-4,17.6-8,26.6-12.2c11.7-5.4,12.4-7.5,7.6-20c-2.4-6.2-4.9-12.3-6.6-18.7
		c-2.2-8.4,0.7-14.3,8-18.1c3.7-1.9,7.5-2,11.3,0.5c7.1,4.7,10.9,11.7,13,19.5c3.6,13.7,12.6,19.3,26.2,19.7
		c15.3,0.5,30.5,1.7,45.7,2.4c7.5,0.4,14.2,2.5,20.9,5.9C3706,2534,3735.7,2548.9,3767.3,2564.9z"/>
	<path onclick="modals(this.id);" id="3230" class="st0" d="M6155,3718.4c11.4-11.7,15-27.4,24.5-38.7c14.2,6.1,43.2,27.8,67,50
		c-1.9,10.6-7.8,20.3-12.1,30.5c-4.8,11.4-19.2,11.6-26.3,22.3c1.5,2.5,2.6,5.6,4.7,7.7c4.1,4.2,8.8,7.9,14.5,12.9
		c-12.8,10.2-29.5,9-42.9,18.3c1.6,3.2,2.5,6.2,4.4,8.5c3.4,4,7.3,7.5,11.8,11.9c-6.4,10.7-13.4,20.2-21.8,30.6
		c-3.4-1.9-6.9-3.4-9.9-5.4c-34.9-23.3-69.7-46.9-104.8-69.9c-8.2-5.4-13.8-11.7-16.3-21.4c-5.4-20.6-12-40.9-17.7-61.4
		c-2.7-9.8-5.5-19.2-16.7-24.1c6.4-16.2,11.5-31.9,19.9-47.4c5.5,1.9,10.8,2.8,15.1,5.5c17.6,10.7,36.6,18.9,53,31.7
		c13.7,10.7,27.4,21.2,41.3,31.5C6146.2,3714.1,6150.4,3715.8,6155,3718.4z"/>
	<path onclick="modals(this.id);" id="644" class="st0" d="M3715.7,2805.5c14.7,33.1,27.6,66.3,40.7,99.1c-15,9.4-183.4,73.7-240.7,92.2
		c-8.1-11.9-31-65.3-36.1-84.2c10.2-8.1,22.4-13.4,34.3-18.8c64.8-29.2,129.9-57.9,194.9-86.8
		C3710.1,2806.4,3711.5,2806.3,3715.7,2805.5z"/>
	<path onclick="modals(this.id);" id="789" class="st0" d="M4736.7,4171.8c11.6-23.1,22-43.8,32.9-65.5c13.2,5.5,25.8,10.8,38,16
		c12-7.7,11.3-22.2,21.7-31.4c20.3-2.4,42.3-1.6,64.1-0.9c13.4,0.4,26.4,0,39.5-2.7c4.4-0.9,9.1-0.9,14.1-1.4
		c1.4,3.1,2.9,5.3,3.3,7.8c4.8,24.9,7.2,50,4,75.3c-0.8,5.9-1,11.9-1.6,17.9c-2,18.7-1.2,37.1,5.9,54.9c1.4,3.6,1.4,7.7,2.3,12.9
		c-9.9,9.3-19.8,18.8-30.4,28.8c-2.5-3.3-4.7-5.2-5.4-7.5c-7-22.8-24.3-35.5-44.2-45.7c-39.8-20.3-81.5-35.9-123.5-50.7
		C4750.5,4177.1,4743.8,4174.4,4736.7,4171.8z"/>
	<path onclick="modals(this.id);" id="686" class="st0" d="M3913.8,3122.2c17.9,37.7,30.3,76.2,47.3,114c-19.5,11-40,16.8-59.5,24.8
		c-19,7.9-38.3,15.2-57.4,22.8c-19.7,7.8-39.4,15.6-60,23.8c-11.3-18.6-16.7-38.5-24.5-57.2c-7.7-18.3-14.5-36.9-22.1-56.5
		c19.4-10.9,39.5-17.3,59-25.1c19.1-7.7,38.2-15.4,57.4-23C3873.5,3138,3893.2,3130.3,3913.8,3122.2z"/>
	<path onclick="modals(this.id);" id="691" class="st0" d="M4056.7,3283.9c23.9-6.8,44.5-17.8,66.2-25.8c21.7-8,42.4-18.7,64.6-25.3c6,5.3,7.1,12,9.6,18
		c2.5,6.1,4.7,12.3,7.4,19.3c-3.7,2.7-6.6,5.3-9.9,7.1c-35,19.2-69.7,39.1-105.3,57.2c-19.5,10-40.4,17.2-60.7,25.4
		c-22.1,8.9-44.4,17.5-66.4,26.1c-8.4-12.1-38.3-86.5-46.8-116.3c17.3-10.5,37.2-15.7,55.9-23.6c18.9-8.1,38.2-15.4,57.9-23.2
		C4041.2,3241.7,4045.1,3263.1,4056.7,3283.9z"/>
	<path onclick="modals(this.id);" id="3223" class="st0" d="M6057.1,3394.2c18.2-13.2,37-26.6,55.6-40.4c18.2-13.4,35.9-27.4,54.3-40.5
		c18.9-13.5,38.3-26.3,58.5-40.1c14.7,10,25.2,24.8,39,35.9c13.5,10.8,27,21.4,41.3,32.8c-1.9,4.6-3.2,8.9-5.3,12.8
		c-9.1,17.7-18.6,35.2-27.6,53c-4.7,9.4-8.7,19.2-13.2,29.2c-56.9-9.5-114.5-19.1-172.1-28.7c-7.2-1.2-14.5-2-21.6-3.4
		C6061.3,3403.7,6057.7,3400.9,6057.1,3394.2z"/>
	<path onclick="modals(this.id);" id="669" class="st0" d="M4133.6,3060.9c-14.4-32.8-26.9-64.1-39.7-96.9c31-13.4,61.6-24.1,92.1-35.3
		c29.9-11,59.8-21.9,90.6-33.1c8.9,13.9,10.5,29.3,15.2,43.5c4.8,14.5,9.1,29.2,13.6,43.8c4.5,14.5,8.9,29.1,13.3,43.4
		c-5.7,5.7-11.4,5.5-17.3,4c-6.3-1.6-13.7-0.8-17.3-8c-2.6-5.2-7-5.6-11.8-4.5c-5.2,1.2-10.3,2.8-15.3,4.4
		c-35.4,11.4-70.9,22.8-106.3,34.1C4145.4,3058,4140.3,3059.1,4133.6,3060.9z"/>
	<path onclick="modals(this.id);" id="695" class="st0" d="M3599.9,3353.1c3.4,7.8,6.3,14.4,9.5,21.7c-1.8,2.1-3,4.7-5,5.8c-4.9,2.8-6.1,7-4.8,11.9
		c1.3,5.1,3.1,10.2,5.1,15.1c11,27.9,22.1,55.7,33,83.6c2.6,6.7,6.1,13.2,6.7,20.2c-13,8.3-56.4,25.8-82.7,33.5
		c-7.9-8.1-16.1-16.7-24.5-25.2c-24.4-24.6-50.6-47.3-72.3-74.5c-9.6-12-10.6-13.6-14.7-31.7
		C3462.8,3406.2,3579.5,3359,3599.9,3353.1z"/>
	<path onclick="modals(this.id);" id="615" class="st0" d="M3874.3,2499.3c4.4-4.8,2.1-10.1,0.8-15.1c-4.2-16.1-8.9-32.1-13.2-48.1
		c-1.7-6.3-2.8-12.7-4.4-20.3c9.9-3,18.7-5.6,28.4-8.4c2.2,3.8,4.8,6.9,5.8,10.5c13.7,49.4,27.2,98.8,40.7,148.2
		c0.5,1.9,0.5,3.9,0.9,7c-2.4,1.5-4.8,3.7-7.7,4.9c-37.3,16.1-74.6,32.2-111.9,48.2c-1.8,0.8-3.8,1-7,1.9c-1.8-3.1-4-6.2-5.4-9.6
		c-5.9-14.1-11.6-28.3-17.3-42.5c-4.2-10.5-7.7-20.9-7.1-32.8c0.3-6.3-2.5-12.9-4.6-19.1c-3.9-11.2-8.3-22.3-12.3-32.9
		c9.2-15.4,22.2-24.6,35.7-33.1c10.2-6.4,16.1-4.8,24.4,4.6c4.4,5,8.1,10.6,12.2,15.8C3845.8,2495.6,3851.6,2498.4,3874.3,2499.3z"
		/>
	<path onclick="modals(this.id);" id="645" class="st0" d="M3974.1,2695.6c5.5,14.1,11,28.1,16.8,43.1c-4.7,2.2-8.1,3.9-11.6,5.4
		c-36.7,15.6-73.2,31.6-110.2,46.7c-10,4.1-14,11.1-16.4,20.6c-2.7,10.9-2.6,21.2,4.8,30.2c5,6.1,10.7,11.7,16.1,17.6
		c-13,9.1-59.3,27.7-103.3,41.8c-7.8-10.5-35.9-77.2-42.2-100.6c1.4-1.2,2.6-2.9,4.3-3.7c78.2-33.5,156.5-66.9,234.7-100.3
		C3968.9,2695.7,3971,2695.9,3974.1,2695.6z"/>
	<path onclick="modals(this.id);" id="646" class="st0" d="M4235.7,2758.7c-8.2-2.2-15-3-20.7-5.8c-17.1-8.3-32.8-5.1-49.7,1.6
		c-38.9,15.6-78.3,29.7-117.5,44.3c-5.4,2-11.1,3.6-17.8,5.7c-10.3-25.7-20.1-50.2-30.2-75.6c4-2.3,7.1-4.7,10.7-6.1
		c57.6-22.3,115.3-44.5,172.9-66.9c7-2.7,14-3.9,21.3-2.4C4212.7,2668.6,4233.5,2738,4235.7,2758.7z"/>
	<path onclick="modals(this.id);" id="633" class="st0" d="M3994.5,2715.6c-10.3-27.4-22.8-51.6-27.3-79.4c70.4-26,139.3-51.4,208.2-76.8
		c8.3,12.2,23.3,58.8,26.1,81.4c-18.1,1.2-34,9.6-50.6,16c-47.1,18.1-94.3,36.2-141.4,54.2
		C4005.2,2712.6,4000.8,2713.7,3994.5,2715.6z"/>
	<path onclick="modals(this.id);" id="671" class="st0" d="M3958.4,3018.7c-1.4-7.1-2.3-12.2-3.3-16.9c15.2-8.8,86-36.6,100.3-39.5c4.9,4.1,5.9,9.7,6,16.2
		c-6.8,5.6-15.4,7.4-23.1,11.1c-6,2.9-12.2,5.2-18.2,8c-4.3,2-5.2,5.7-4.2,10c1.2,5,5.6,7.9,10.5,6.9c3.2-0.7,6.4-1.9,9.4-3.1
		c12.4-4.9,24.6-10,37-14.9c5.5-2.2,11-4.1,17.3-6.5c8.2,12.9,12.3,26.8,18.1,41.4c-26.9,13.1-54.4,22.5-81.3,33.2
		c-27.8,11.1-55.6,22.1-83.4,33.1c-27.1,10.7-54.2,21.5-82,32.5c-11.6-19.2-17.1-39.7-25.9-60.2c5.2-2.6,9.6-5.3,14.3-7.2
		c29-11.6,58.1-23,87-34.6C3943.8,3025.5,3950.3,3022.3,3958.4,3018.7z"/>
	<path onclick="modals(this.id);" id="3254" class="st0" d="M8508.4,4452.7c15.7-7.8,118.4-35.9,137.6-37.6c12,36.1,24.2,72.5,36.7,110.2
		c-45.3,17.3-92.2,28.9-139.9,40.9c-10.3-17.9-11.3-38.3-18.1-56.7C8517.9,4491,8513.7,4471.5,8508.4,4452.7z"/>
	<path onclick="modals(this.id);" id="3257" class="st0" d="M8353.8,4527.3c8.8-3.6,18.7-6.2,26.9-11.4c8.3-5.2,15.1-12.8,22.3-19.7
		c14.4-13.9,32.3-20.6,51.1-25.8c13.4-3.7,26.6-8.4,40.4-12.8c1,0.9,3.3,1.9,3.8,3.5c10.9,34.9,21.9,69.8,30.7,106.3
		c-3.8,2.1-7,4.5-10.5,5.6c-24.2,7.3-48.4,14.6-72.7,21.5c-16,4.6-32.2,8.5-48.2,12.9c-6.4,1.8-12.6,4.2-19.2,2.6
		C8369,4591,8356.3,4548.6,8353.8,4527.3z"/>
	<path onclick="modals(this.id);" id="648" class="st0" d="M4033.5,2848.7c-28.9,15.8-60.3,24.9-89.3,40.1c0.5,18.9,12.9,33.7,15.9,51.7
		c-6.9,6-15.2,8.2-23.7,10.8c-7.2-4.1-9.2-11.3-11.8-17.9c-7.1-18.6-14-37.3-20.8-56c-2.8-7.6-6.8-14-13.1-19.5
		c-8.5-7.4-16.5-15.5-23.8-24.1c-8.7-10.2-5.3-26.1,6.8-31.9c39-18.6,78.7-35.5,120-51c11.6,14.7,14.9,32.6,21.7,48.8
		C4021.9,2815.5,4030,2830.8,4033.5,2848.7z"/>
	<path onclick="modals(this.id);" id="3242" class="st0" d="M8129.6,4152c5.7-1.8,9.4-2.9,13.8-4.3c1.5-9.5,2.9-19.3,4.5-29.1c0.9-5.5,2.9-10.2,9.2-11.8
		c3.7-0.9,4.8-4,5.7-7.4c0.7-3,2-5.8,3.2-9.2c34.4,17.6,69.7,16.6,106.4,13.7c0.3-22.5-12-39.8-14.1-60.7c3.5-1.2,7.1-2.4,11.7-4
		c7.8,12.9,10.4,27.4,15.2,40.9c4.9,13.8,9.2,27.7,13.9,41.9c-9.6,10-24.5,7.9-34.6,17.1c8.3,23.1,12.5,47.1,16.8,72
		c-7.7,2.2-13.9,4.2-20.3,5.7c-11,2.7-22,5.2-33.1,7.6c-3.9,0.9-7.8,1.6-11.8,2.1c-6.4,0.7-11.5-6.7-18.9-2.6
		c-5.1,2.8-11,4-17.3,6.1c-10.6-17.8-17.7-36.4-26.1-55.3c-5.7-0.6-11.4-1.2-18.2-2C8133.5,4166.5,8131.8,4160.2,8129.6,4152z"/>
	<path onclick="modals(this.id);" id="647" class="st0" d="M4035.4,2816.2c9.1-3.6,17-6.8,25-9.9c38-14.3,76.2-28.1,113.9-43.1c12-4.8,22.8-5.6,34.5-0.8
		c6.8,2.8,13.8,5.4,20.9,6.6c10.2,1.7,14.5,8,16.7,17.2c1.2,5.1,3.1,10.1,4.9,16.1c-4.6,2.3-8.4,4.7-12.5,6.2
		c-20,7.3-40.1,14.3-60.2,21.6c-5.5,2-10.8,4.6-16.1,6.8c-1.6,12.9,6.4,22.4,8,34.2c-16,8.4-33.8,11.5-50.6,17.2
		c-16.3,5.5-32.3,11.7-50.8,14.3C4057.3,2874.4,4046,2846.2,4035.4,2816.2z"/>
	<path onclick="modals(this.id);" id="851" class="st0" d="M6554.1,4814.8c-13.8,21.1-25.7,39.4-37.8,57.7c-1.4,2.1-3.4,3.9-5.7,6.6
		c-4.5-1.1-9-1.9-13.3-3.3c-15.2-5-30.2-10.2-45.4-15.2c-3.6-1.2-7.6-1.5-12.5-2.4c-4.6,12.2-9.1,23.8-13.7,36.1
		c-17.3-2-32.5-8.6-48.1-13.6c-15-4.7-30.9-7.1-45-16.1c6.4-11,13.5-20.3,21-29.7c16.1-20.2,33.3-39.9,43.6-64.1
		c1-2.4,2.6-4.5,4.6-7.9c25.9,5.8,50.1,16.6,75.1,24.8C6502,4796,6527.1,4804.3,6554.1,4814.8z"/>
	<path onclick="modals(this.id);" id="714" class="st0" d="M3902.6,3424.9c13.1,32.9,25.9,64.9,39.1,98c-7,3.8-13.1,7.1-19.8,10.8
		c1,13.1,6.9,23.9,12.7,35.6c7-1.1,13.3-2.1,20.4-3.1c2,4.8,3.6,9.1,5.6,13.1c5,10.1,8.4,11.7,18.9,8.7c10.2-2.9,20.4-6.1,30.6-9
		c3.8-1.1,7.7-1.7,12.5-2.7c7.5,10.6,10.3,22.8,14.6,35.2c-2.2,1.6-3.9,3.9-6.2,4.5c-35.2,10-69.4,22.9-105,31.3
		c-1.9,0.4-3.8,0.6-5.3,0.8c-1-0.6-1.6-0.9-2.2-1.3c-0.5-0.4-1.2-0.8-1.4-1.3c-25.6-63.5-51.2-127.1-76.7-190.6
		c-0.4-1.1-0.1-2.6-0.1-3.9C3851.2,3443.1,3880.8,3430.5,3902.6,3424.9z M3909.3,3587.9c-0.2,0.5-0.4,1-0.5,1.5
		c0.7,0.1,1.4,0.2,2,0.3c-0.1-0.5,0-1.1-0.3-1.6C3910.4,3587.9,3909.7,3588,3909.3,3587.9z"/>
	<path onclick="modals(this.id);" id="692" class="st0" d="M3947.9,3389.5c-13.2,8.3-92.5,41.2-113.3,47.3c-1.2-2-3-4-3.9-6.3
		c-14.3-36.4-30.4-72.1-42.3-109.2c12.3-8.1,84.6-37.9,113.5-46.7c10.7,18,16.4,38.5,24.3,57.9
		C3933.9,3351.3,3941.9,3370.2,3947.9,3389.5z"/>
	<path onclick="modals(this.id);" id="3224" class="st0" d="M5835.2,3535.1c-5-9.4-9.3-17.6-14.2-26.9c4.6-5.4,9.1-11.1,14-16.3c8.1-8.5,16.7-9.2,26.4-1.7
		c17.9,13.8,35.6,27.9,53.3,42c35.9,28.5,71.8,57.1,107.7,85.7c3,2.4,5.8,5.1,12.1,10.6c-12.4-2.3-20.8-6-28.6,0.3
		c-1.2,1-5-0.8-7.4-1.6c-13.2-4.5-26.4-9-39.5-13.9c-7.2-2.7-12.8-1.7-17.6,4.5c-5.8,7.3-11.8,14.4-17.9,21.5
		c-2.1,2.4-4.6,4.4-7.8,7.4c-17.5-12-35-22.8-50.6-36.1c-5.4-4.6-9.1-11.3-14.4-18.1c-11.1,1.1-22.8,2.3-35.5,3.7
		c-4.4-6.2-9.3-12.4-13.6-19c-4.1-6.4-3-11.5,4.2-14.5C5818.9,3557.3,5827.9,3548.3,5835.2,3535.1z"/>
	<path onclick="modals(this.id);" id="674" class="st0" d="M3475.7,3281.8c-4.5-17.9-15.2-30.5-26.3-42.9c-10.2-11.4-20.1-23.1-30-34.7
		c-2.5-2.9-4.5-6.2-7.7-10.5c12-6.8,23.9-10.5,35.3-15.1c12.3-5,24.7-9.7,37.1-14.6c11.7-4.6,23.4-9.3,35.2-13.9
		c11.7-4.5,23.4-8.9,36.4-13.8c1.3,2.2,2.6,3.8,3.4,5.5c12.2,28.7,24.3,57.5,36.3,86.3c0.7,1.7,0.3,3.8,0.4,5.6
		C3580.4,3243.6,3521,3267.5,3475.7,3281.8z"/>
	<path onclick="modals(this.id);" id="3240" class="st0" d="M8134.1,4137.4c-11.6,1.2-21.7,4.1-31.3,2.9c-18.6-2.3-36.8,5.1-55.9,1
		c-2.8-8.7-1.9-17.2-1-25.8c0.3-3.3,1.4-6.5,1.8-9.8c1.3-11-2-14.5-13.1-14.3c-6.6,0.1-13.2,0.1-19.9,0.1c-13.8,0-28.1-2.6-39.5,8.6
		c-0.8,0.8-2.5,1.2-3.7,1.2c-16.1,0.3-24.5,11.6-33.1,22.8c-7.7,9.9-15.5,19.8-23.9,30.4c-12.7-17.5-21.1-35.3-27.1-53.8
		c2.8-7.6,9.7-7.4,15.1-9c34.4-10.2,69-20.1,103.5-30.1c19.8-5.8,39.5-11.9,59.3-17.5c12.7-3.6,25.6-6.6,37.9-9.7
		c13,12.8,25.5,24.8,37.5,37.2c4.1,4.2,7.5,9.4,10,14.7c1.1,2.3-0.1,8.1-1.7,8.7c-9.4,3.6-9.6,12.3-11.5,19.7
		C8135.7,4121.5,8135.4,4128.9,8134.1,4137.4z"/>
	<path onclick="modals(this.id);" id="684" class="st0" d="M3648.6,3205.2c9.4-3.5,18-6.7,26.3-9.8c8.9,11.9,22.2,43.5,32.8,77.4c-2.5,6.5-9.4,6.4-14.4,9.2
		c-6.8,3.8-15.3,4.6-21.2,12.6c4.1,10,8.3,20.4,12.6,30.8c4.3,10.4,8.8,20.7,13.6,31.9c-23.6,9.5-47.5,19.2-71.7,28.9
		c-17.8-42.7-35.2-84.2-52.9-126.4c11.9-9.5,26.1-11.7,38.4-17.7c12.5-6.1,25.5-10.9,39.3-16.7
		C3650.4,3218.3,3649.5,3212.2,3648.6,3205.2z"/>
	<path onclick="modals(this.id);" id="3258" class="st0" d="M8382,4623.2c39.5-10.7,78.5-21.2,118.1-32c6.8,10.1,7.2,21.7,10.6,32.2
		c3.3,10.1,5.4,20.5,8.2,31.5c-4.5,3-8.7,5.8-14.1,9.3c3.8,14.7,7.6,29.3,11.6,45.1c-16.7,7.8-33.9,12-50.8,17.1
		c-16.5,5-33.1,9.6-50.7,14.6c-8.8-19.7-13.4-39.9-17.4-59.7C8393.7,4661.9,8383.9,4644.2,8382,4623.2z"/>
	<path onclick="modals(this.id);" id="3262" class="st0" d="M8703.3,4604.6c-18.9,5.5-36.6,10.7-54.9,16.1c-0.5,5.5-0.9,10.7-1.4,16.6
		c-23.3,9.2-47.6,15.3-71.9,22.2c-3.1-4.6-5.6-8.4-8.2-12.3c-6.1-2.7-11.6,0.3-17.3,1.6c-5.7,1.4-11.5,2.5-18.4,3.9
		c-7.8-21.3-12.1-42.6-18-64.3c4.7-2.2,8.6-4.7,12.9-6c14-4.1,28-8.3,42.3-11.6c33.7-7.7,66.8-17.5,99.7-28.2
		c5.6-1.8,11.4-3.3,16.9-4.9C8692.5,4551.4,8702.2,4586,8703.3,4604.6z"/>
	<path onclick="modals(this.id);" id="688" class="st0" d="M4114.5,3045.5c12.7,31.8,24.9,62.6,37.1,93.3c-2.6,2-4.1,3.5-5.8,4.2
		c-36.5,14.6-73,29-109.5,43.4c-1.7,0.7-3.8,0.4-7.1,0.6c-12.7-31.2-25.4-62.4-38.3-94.1c3.3-2.1,5.3-3.9,7.7-4.8
		c35.9-14.2,71.9-28.2,107.9-42.2C4108.1,3045.3,4110.3,3045.7,4114.5,3045.5z"/>
	<path onclick="modals(this.id);" id="632" class="st0" d="M3811.4,2642.4c13.8-9.3,96.5-45.6,124.4-55c8,12.9,16.5,38.2,31.4,93.7
		c-1.1,1.2-2.1,3.2-3.6,3.9c-37.8,16.2-75.7,32.2-114.3,48.5c-10.3-13.8-13.7-30.3-20.3-45.3
		C3822.3,2673.2,3817.1,2657.5,3811.4,2642.4z"/>
	<path onclick="modals(this.id);" id="3234" class="st0" d="M7807.8,3742.8c27.5-19.9,55.1-35.4,82.5-50.2c17.1,12,49.8,54.4,62.8,80.9
		c-1.6,1.6-3.1,3.8-5.2,5.3c-38.8,26.9-77.6,53.7-117,80.8c-11.1-10.1-16.3-22.9-24.4-34.8c10.1-7.1,18.8-13.1,27.3-19.4
		c7.5-5.6,8.1-9.1,3.2-16.9C7827.8,3773.9,7818.4,3759.4,7807.8,3742.8z"/>
	<path onclick="modals(this.id);" id="3246" class="st0" d="M7837.8,4504.6c-31.8,12.6-63.3,24.4-97.5,30c-9.9-21.2-13.3-43.7-20.7-64.8
		c-7.2-20.6-14.8-41.2-22.1-61.6c11.4-6.5,67.1-20.6,87.7-22.2c1.4,2.3,3.5,4.9,4.8,7.8c14.9,33.4,29.8,66.8,44.5,100.3
		C7835.8,4497,7836.5,4500.3,7837.8,4504.6z"/>
	<path onclick="modals(this.id);" id="3231" class="st0" d="M7191.4,3886.8c-4-4.5-7-8-9.9-11.3c0-1.4-0.5-2.9,0.1-3.9c25.2-39.9,50.6-79.7,75.9-119.5
		c1.1-1.7,2.4-3.2,4.4-5.7c21.2,13.8,41.6,27.1,62.5,40.6c-1.8,11.9-9.2,19.8-14.3,28.8c-5.2,9.1-9,19.3-18.7,26.9
		c-5.2-2.7-10.9-5.6-17.6-9.1c-3.5,4.6-7,8.4-9.8,12.7c-20.7,31.8-41.2,63.6-61.8,95.4c-4.6,7.1-8.7,14.8-16.1,21.6
		c-9.7-6.3-19.1-12.4-29.3-19C7166.1,3924,7181.9,3908.2,7191.4,3886.8z"/>
	<path onclick="modals(this.id);" id="629" class="st0" d="M3397.8,2722.6c7.4-4.9,12.6-9.2,18.5-11.9c30.9-14.1,61.9-27.7,93.4-41.7c2.1,2.3,4.4,4,5.3,6.2
		c10.9,26.4,21.7,53,32.4,79.5c0.7,1.8,0.6,3.8,0.9,5.6c-12.2,9.6-86.3,41.9-112.3,48.9c-6.5-7.9-9.2-18.2-13.4-27.7
		c-4.1-9.1-7.8-18.4-11.6-27.6C3406.9,2744.1,3402.7,2734.4,3397.8,2722.6z"/>
	<path onclick="modals(this.id);" id="630" class="st0" d="M3560.8,2756.6c-12.9-31.7-25.1-61.8-37.2-91.5c14.2-9.3,87.3-41.8,111.7-49.9
		c8.7,11.1,22,42.2,38.5,89.7c-1.6,1.4-3.2,3.7-5.4,4.7c-32.7,14.8-65.5,29.5-98.2,44.2C3567.8,2754.8,3565.2,2755.3,3560.8,2756.6z
		"/>
	<path onclick="modals(this.id);" id="631" class="st0" d="M3799.8,2646c12.8,31.1,24.6,61.2,35.8,91.2c-14.3,9.4-91,42.8-111.8,49
		c-8.7-11-22.4-42.6-38.4-88.6C3698,2688.1,3754.8,2662.4,3799.8,2646z"/>
	<path onclick="modals(this.id);" id="3236" class="st0" d="M7824.9,3880.6c15.6-14,121.9-87.3,136.6-94.4c15.6,18.4,42.9,64.9,50.6,86.5
		c-1.1,0.8-2.7,1.9-4.4,3c-2.8,1.8-5.6,3.5-8.1,5c-1.7-0.7-3.4-0.9-3.9-1.8c-3.1-5-6-10.2-9.5-16.2c-7.6-2.7-14.2,1.3-20.9,5.9
		c-20.9,14.3-41.9,28.3-62.9,42.5c-8.3,5.6-16.5,11.3-24.9,16.6c-7,4.4-11.1,2.5-13-5.4c-0.3-1.3,0.1-2.7-0.3-4
		c-2.2-8.8-4.6-10.5-13.9-9.9c-2.6,0.2-5.2,0.5-8.3,0.9C7835.1,3900.2,7829.5,3890.6,7824.9,3880.6z"/>
	<path onclick="modals(this.id);" id="3235" class="st0" d="M7797.1,3832.7c6.9,10.8,13.7,21.3,21.1,32.7c-1.8,2.8-3.5,5.4-5.2,7.9c-3,4.5-1.9,8.9,0.6,13.1
		c6.8,11.4,13.7,22.7,20.7,34.1c5.3,0.7,10.2,1.3,15,1.9c0,0.8,0.1,1.6,0.1,2.4c-48.8,14.8-97.5,29.5-147,44.5
		c-6.1-16.1-10.2-31.3-12.6-47.7c9.5-3.3,18.1-6.3,27.6-9.6c1.4-16.6-6.8-31.1-8.9-47.5c13.4-7.8,28.7-9.8,42.9-14.9
		C7765.6,3844.3,7779.9,3839,7797.1,3832.7z"/>
	<path onclick="modals(this.id);" id="693" class="st0" d="M3686.3,3376c15.4-8.4,80.8-34.6,94.2-37.7c9.4,15.7,14.3,33.7,21.1,50.7
		c6.9,17.1,14.7,34,19.9,52.9c-14.5,9.7-31,12.9-46.1,19.2c-15.2,6.4-30.8,11.9-45.8,17.6C3721.2,3466.7,3696.3,3407.5,3686.3,3376z
		"/>
	<path onclick="modals(this.id);" id="3260" class="st0" d="M8756.2,4745.8c5.3-5.9,6.3-12.3,3.7-20c-5-15.1-9-30.5-13.8-45.7c-1.9-6-2.5-13.3-10.8-15.5
		c-1.7-0.5-3.2-4.1-3.8-6.5c-7-25.6-13.9-51.2-20.9-77.3c14.7-9.5,30.9-10.8,45.8-15.6c14.5-4.6,29.3-8.3,44.7-12.6
		c9.4,10.7,14.4,21.6,11.2,36.2c-9.7,44.1-18.2,88.5-28,132.5c-3.2,14.1-9.1,27.7-13.9,41.4c-0.3,0.9-2,1.4-4.3,2.8
		C8762.9,4759.3,8759.8,4753,8756.2,4745.8z"/>
	<path onclick="modals(this.id);" id="3263" class="st0" d="M8000.3,4845.1c10.6,32.9,19.3,63.2,17.8,96.8c-11.7,2.8-22.6,5.4-33.5,8
		c-8.3,2-17.1,2.2-23.3,9.6c-1.5,1.7-4.7,2.1-7.2,2.9c-26.7,8.2-53.4,16.3-80,24.5c-1.8,0.6-3.8,0.8-6.5,1.3
		c-5.4-7.9-6.8-17-8.4-25.4c9.1-20,28.6-22.4,45.6-28.7c1.2-0.5,2.6-0.4,3.9-0.8c0.6-0.2,1.1-0.7,2.4-1.7
		c6.5-13.4-11.5-21.7-8.7-34.7c0.3-0.6,0.5-1.2,0.8-1.7c0.4-0.5,0.7-1.2,1.3-1.5C7935.6,4877.8,7966.9,4862,8000.3,4845.1z"/>
	<path onclick="modals(this.id);" id="3238" class="st0" d="M7861.2,4000.7c-0.9,1.6-1.4,4.1-2.7,4.6c-6.8,2.7-13.7,5-21.5,7.7c-0.2,4.5-0.5,8.9-0.8,14.4
		c-33.2,10.3-66.8,20.7-100.4,30.9c-3,0.9-6.3,0.7-10.3,1.1c-8.6-25.8-14.7-51.4-21-76.7c3.1-1.9,4.7-3.3,6.5-3.9
		c43.9-13.5,87.9-26.7,131.7-40.3c10.8-3.3,19.1-1.9,26.1,9.2c-13.6,8.9-30.5,7.1-42.8,16.8c0.4,2.3,0.1,4.8,1.2,6
		c10.4,11.1,19.9,23.2,34,30.1L7861.2,4000.7z"/>
	<path onclick="modals(this.id);" id="683" class="st0" d="M3448.6,3397.5c-2.1-8-1-15.7,1.8-23.3c3.7-10,7-20.2,11.3-29.9c7.1-15.8,13.6-31.8,15.8-49.8
		c27.4-10.6,54.7-21.1,82.9-32c9.1,12,12.1,25.8,17.8,38.3c5.8,12.6,10.6,25.7,15.7,38.3C3577.5,3349.3,3465.3,3394.2,3448.6,3397.5
		z"/>
	<path onclick="modals(this.id);" id="3229" class="st0" d="M5862.3,3626c7.3,1.7,12.6,7,18.5,11c9.4,6.3,18.5,13.1,28,19.2c7.2,4.7,11.9,4.1,17.6-2.2
		c6.2-6.9,11.9-14.3,18-21.4c2.5-3,5.5-5.5,9.1-9.1c20.8,7.3,41.3,14.6,63.1,22.2c-0.9,4.1-1.3,7.9-2.6,11.4
		c-4.6,12.4-9.6,24.6-14.6,37.5c3.4,2.7,5.5,5.5,8.3,6.6c6.4,2.5,9.2,7.5,10.8,13.4c5.1,17.9,10.1,35.9,15,53.8
		c0.3,1.1-0.4,2.4-0.9,5c-3-1.7-5.8-2.9-8.3-4.6c-51.3-35.8-102.6-71.7-153.8-107.5c-2.2-1.5-4.3-3.2-6.5-4.6c-5-3.2-7-7.7-6.7-13.5
		C5857.5,3637.2,5858.2,3631.3,5862.3,3626z"/>
	<path onclick="modals(this.id);" id="3237" class="st0" d="M7891.5,4012.3c5.9-8.6,7-16.9-1.3-24.8c-3.1-3-6.5-4.5-10.8-3.5c-5.2,1.2-10.3,2.4-15.6,3.7
		c-8-4-13.5-10.2-19.4-17.7c12.5-7.9,26.8-7.2,38.8-14.7c-0.4-4.4-0.9-8.9-1.3-13.5c11.9-11.5,81.6-58.8,96.7-65.4
		c5,6.8,10.1,13.6,15.8,21.4c8.5-4.9,15.8-9.1,24-13.8c9.4,8.5,13.9,20.2,20,32C7989.8,3949.4,7941.1,3981.6,7891.5,4012.3
		C7891.4,4012.3,7891.5,4012.3,7891.5,4012.3z"/>
	<path onclick="modals(this.id);" id="2896" class="st0" d="M3383,1611.8c-5.2,3.2-10.4,7.5-16.4,10c-49.1,20.7-98.3,41.1-147.5,61.5c-2.4,1-4.9,1.5-6.5,2
		c-1.7-0.6-2.5-0.7-2.8-1.1c-0.4-0.5-0.6-1.2-0.6-1.9c0.7-19.2,1.4-38.5,2.1-57.1c13.7-9.3,130-61,149.8-66.8
		C3369.3,1568.9,3379.7,1593.7,3383,1611.8z"/>
	<path onclick="modals(this.id);" id="3253" class="st0" d="M8035.8,4400.9c-7.1-16.4-14-32.1-21.3-48.9c3.9-2.2,7-4.5,10.4-5.7c12.5-4.2,25.2-8,38.9-12.3
		c-0.7-5.4-0.7-9.9-2-14c-1.9-6.3-4.6-12.3-7.4-19.6c5.8-2.8,10.9-5.3,17.2-8.3c0-4.3,0-9.4,0-13.9c4.7-4.8,45.5-17.9,66.9-21.8
		c5.9,5.5,7.2,13.6,10.4,20.8c3.2,7.2,6,14.6,9.1,22.4c-13.1,8.9-28.7,8.7-41.9,16.3c0,3.8-1.3,8.3,0.2,11.4
		c7.6,15.2,8.4,31.8,11.6,47.8C8114.2,4382.3,8068.5,4395.3,8035.8,4400.9z"/>
	<path onclick="modals(this.id);" id="668" class="st0" d="M4182.5,2879.3c-2.4-12-4.5-23-6.9-35c25.4-10.7,51.2-19.2,76.6-28c8.2,12.4,18.4,46.3,20.4,67.3
		c-6.1,2.9-12.4,6.5-19.2,9c-49.3,18.1-98.7,36-148.1,53.9c-4.9,1.8-9.9,2.9-15.3,4.4c-7.5-10.7-10-22.4-15.6-34.3
		c5.9-2.6,10.5-5,15.3-6.6c26-8.3,52.1-16.2,78-24.5C4172.6,2884,4177.2,2881.6,4182.5,2879.3z"/>
	<path onclick="modals(this.id);" id="634" class="st0" d="M3567.9,2769.6c11.4-7.7,78.5-38.6,110.7-50.9c8.6,10.2,11.5,23.3,16.7,35.3
		c5.2,12.2,9.7,24.6,15.1,38.2c-18.2,10.7-37.4,17.9-56,26.4c-18.6,8.5-36.8,18-56.1,24.5
		C3590.6,2832.1,3571.6,2785.8,3567.9,2769.6z"/>
	<path onclick="modals(this.id);" id="635" class="st0" d="M3472.3,2898.1c-11.3-24-20.9-48.6-31-72.6c0.5-1.2,0.6-1.9,1-2.4c0.3-0.6,0.7-1.3,1.3-1.5
		c36.5-16,73-31.9,109.2-47.8c9.2,14.2,25,52.6,31.1,75.3c-3.1,1.7-6.3,3.9-9.8,5.4c-31.6,14.2-63.1,28.3-94.8,42.3
		C3477.5,2897.7,3475.5,2897.6,3472.3,2898.1z"/>
	<path onclick="modals(this.id);" id="3241" class="st0" d="M8162.4,4077.6c-15.4-16.4-30.3-32.2-46.5-49.4c23-10.3,46-15.8,68.3-23
		c22.6-7.3,44.8-15.9,68.9-20.3c5.8,14.3,10.8,27.7,13.5,42.3c-7.5,2.8-14.2,5.2-21.6,7.9c0.7,20.1,10.8,37.2,14,55.3
		c-3.1,4.9-7.4,3.7-11.1,3.8c-8.6,0.2-17.3,0.6-25.9-0.1c-14.5-1.2-28.9-2.6-42-10.5C8174.7,4080.3,8167.8,4079.4,8162.4,4077.6z"/>
	<path onclick="modals(this.id);" id="690" class="st0" d="M4156.6,3152.1c9.8,24.1,18.6,45.5,27.3,66.6c-15.4,9.2-104.5,45.7-121.9,50
		c-8.8-21.9-17.8-44-27.1-67.1c9.1-7.1,19.6-9.5,29.1-13.6c10.4-4.5,21-8.5,31.5-12.8c9.9-4,19.8-8,29.7-11.8
		C4134.9,3159.7,4144.8,3156.3,4156.6,3152.1z"/>
	<path onclick="modals(this.id);" id="651" class="st0" d="M3547.3,3077c-9.3-22-18.1-42.8-27.3-64.6c3.4-2.4,6.2-5.2,9.6-6.5
		c32.9-12.8,65.8-25.4,98.8-37.9c1.1-0.4,2.5,0.1,4.8,0.3c12,21.7,17.9,46.4,29.2,69.9c-4.6,2.7-7.6,5.1-11.1,6.5
		c-22.9,9.2-45.9,18-68.7,27.2C3571.8,3076.2,3560.7,3077.3,3547.3,3077z"/>
	<path onclick="modals(this.id);" id="2898" class="st0" d="M3278.3,1781c-10.3,3.7-18.9,6.8-28.1,10.2c-9.7-18-17-35.6-23.8-53.9
		c6.5-5.9,12.3-11.1,17.7-16.1c-0.4-11.2-10.1-16.3-13.7-26.3c2.1-1.6,4.2-4,6.9-5.1c16.5-6.8,33.1-13.3,49.4-19.9
		c7.3,11.1,52,115.7,59.7,139.5c-11.1,8.5-11.1,8.5-28.1,12.9c-9.2-8.2-8-22.4-17.2-31.6c-4.2,0.5-8.7,1.1-13.7,1.8
		C3284.7,1789.2,3282,1785.7,3278.3,1781z"/>
	<path onclick="modals(this.id);" id="3248" class="st0" d="M8036.1,4103.1c-0.6,14.1-1.1,26-1.7,38.6c-6,2-11.4,3.8-17.7,5.9c-2.4,20.6,4,40.3,7.4,61.2
		c-14.7,7.5-30.3,7.1-45,4.9c-23.7-3.6-46.6-10.7-65.7-26.6c-7.7-6.4-8.6-12.7-0.8-17.4c12.4-7.5,20.3-18.9,29-29.7
		c2.9-3.6,5.2-7.7,8.2-11.3c3.4-4,7.3-7.7,11.1-11.4c1.4-1.3,3.4-3.1,5-3c11.4,0.3,19-9.3,28.9-11.1
		C8007.6,4100.7,8021.1,4100.5,8036.1,4103.1z"/>
	<path onclick="modals(this.id);" id="649" class="st0" d="M3772.7,2913.9c38.3-17,76.1-29.1,112.3-44.2c10.6,14.8,25.3,53.4,26.9,70.6
		c-35.3,15.9-71.9,29.7-109.7,44.2C3790.8,2961.9,3783,2938.8,3772.7,2913.9z"/>
	<path onclick="modals(this.id);" id="2895" class="st0" d="M3166.1,1795.5c-7.1-13.4-11.6-24.2-15.6-36.1c4-3.7,7.8-7.1,12-10.9
		c-4.2-15.9-14.6-28.3-21.9-42.2c-7.3-14.1-15.2-28-23-42.2c1.3-1.6,2.3-4,3.7-4.4c20.9-4.8,39.5-15.5,59.1-23.5
		c5.4-2.2,10.9-4.1,17.3-6.5c5.6,24.3-2.5,47.2-1,68.8c6.6,6.5,12.3,0.8,18.5,1.6c6.3,3.5,9.2,10.1,13.2,16
		c-1.8,2.3-2.7,4.1-4.2,5.3c-12.9,10.7-12.9,10.7-6.6,26.2c5.5,13.4,12.2,26.3,16.7,41c-5,2.2-9.1,4.1-13.5,6
		c-9.9-8.3-8.9-22.6-18.8-31c-12.5,0.8-22.2,7.8-31.1,15.5C3168.2,1781.6,3168.4,1787.5,3166.1,1795.5z"/>
	<path onclick="modals(this.id);" id="672" class="st0" d="M3732.9,3180.8c-9.6-20.6-18.5-40.3-25.2-62c25.6-13.2,52.9-19.9,79.3-31.9
		c-0.9-6.6-1.7-12.9-2.7-20.3c9.6-5.3,20.1-8.4,30.7-10.5c8.7,13.2,26.5,56.7,32,77.6C3831.7,3143.9,3783.7,3163.7,3732.9,3180.8z"
		/>
	<path onclick="modals(this.id);" id="667" class="st0" d="M3948.8,2989.1c-3.3-8.5-6-15.8-9-23.7c9.2-9,22.5-9.2,32.3-17.3c-2-9-3.6-18-6.2-26.7
		c-2.5-8.2-6-16.1-9-23.9c12.3-8.3,59.2-28.9,81.4-35.8c8,11.3,11.4,24.9,16.9,37.5c5.5,12.8,10.3,25.9,15.6,39.4
		c-8.3,8.1-18.8,11-28.3,14.9c-27.6,11.4-55.7,21.7-83.6,32.4C3956.4,2986.9,3953.8,2987.5,3948.8,2989.1z"/>
	<path onclick="modals(this.id);" id="3261" class="st0" d="M8644.2,4652.3c5-2.4,9.6-4.7,15-7.3c0.5-5,1.1-10.2,1.7-16c14.6-5.7,29.8-9.6,46-12.9
		c1.9,4.6,3.7,8,4.7,11.7c3.3,12.2,6.2,24.4,9.6,36.6c1.7,6.2,2.3,13.3,10.6,15.3c1.8,0.5,3.5,3.9,4.2,6.3c4.2,13.9,8.2,28,12.1,42
		c0.3,1.1-0.6,2.5-1.4,5.4c-20.6,6.1-42.1,12.4-63.6,18.7c-6-4.8-7.2-12.4-15.1-15.6c-6.2-2.5-6.7-11.4-4.3-19.3
		c3.2-10.6,2.7-20.9-8.5-27.5c-1.5-0.9-3-2.7-3.5-4.4C8648.8,4674.5,8643.7,4664.2,8644.2,4652.3z"/>
	<path onclick="modals(this.id);" id="3256" class="st0" d="M7943.4,4778.2c6.2-3.5,11.2-6.2,16-8.9c10,12.3,27.1,45.8,33,64.6c-6.6,6.3-15.5,9.3-23.4,13.8
		c-13.3,7.5-27.8,12.7-39.2,23.3c-2.2,2.1-6,2.4-9.1,3.6c-8.6,3.4-17.4,6.4-25.9,10.2c-6,2.7-7.6,6.8-5.3,13.1
		c2.7,7.4,5.9,14.7,9,22.3c-5.2,7.2-13.6,8.3-20.7,11.4c-7.3,3.2-14.9,5.6-23.6,8.7c-2-4.6-4.4-8.4-5.3-12.6
		c-3.1-14.8-5.6-29.7-8.6-46c4.2-2,8.8-4.1,14.6-6.8c0.4-5.1,0.8-10.8,1.2-17.4c10.3-9,23.6-13.4,36.5-20.6c7.2,4.4,14.4,9,23.6,6
		c7.5-2.4,9.7-5.3,8.9-14.6c-0.2-1.9-0.2-3.8-0.3-6.4c7.1-3.8,14.1-7.4,20.9-11.4c6.1-3.5,7.3-6.6,5-13.2
		C7948.9,4791.7,7946.5,4786.2,7943.4,4778.2z"/>
	<path onclick="modals(this.id);" id="3250" class="st0" d="M8087.3,4257.6c-11.3,5-20.9,9.2-31,13.6c0.3,4.6,0.6,8.4,1,13.2c-4.9,2-10.3,4.2-16.2,6.6
		c-1.3,12.3,7.3,21.4,9.4,33.4c-2.9,1.6-5.9,4-9.4,5.2c-10,3.3-20.2,6-31.2,9.3c-23.6-33.5-37.1-68.8-27.9-111.1
		c13.3-5.6,28.2-2.4,42.2-5.9c14-3.5,28-7.6,43.7-8.5C8074.3,4228,8080.4,4241.9,8087.3,4257.6z"/>
	<path onclick="modals(this.id);" id="3249" class="st0" d="M8037.5,4205.5c-8.1-15.9-10.7-31.8-9.1-48.5c15.9-3.7,63.8-6.7,87.3-5.6
		c11.1,8.2,4.8,22.9,13.1,33.5c4.9,0.6,10.6,1.2,17.1,2c6.8,14.9,13.6,29.9,20.9,45.9c-3.8,2-7,4.4-10.5,5.4
		c-18.3,5.5-36.8,10.7-56.2,16.2c-11.2-16.1-14.8-35.6-25.1-51C8062.3,4198.4,8051.2,4207.5,8037.5,4205.5z"/>
	<path onclick="modals(this.id);" id="666" class="st0" d="M3943.2,3012.9c-36.1,15.8-73,30-109.8,43.9c-10.1-13.1-20.7-38.6-25.5-61.6
		c35.9-14.4,72.1-29,109.2-43.8c1.8,1.5,4.1,2.8,5.5,4.7C3928.1,2964.3,3939,2994.7,3943.2,3012.9z"/>
	<path onclick="modals(this.id);" id="3251" class="st0" d="M7854.1,4318.6c-9.5-14.9-32.5-70.8-49.3-119.6c3.2-1.7,6.3-4,9.9-5.2
		c17-5.7,34.1-11.2,51.2-16.7c9.4-3,19.7-4.1,23.6-13.4c5.9,0.3,7.3,3.8,6.3,5.5c-6.3,10.5-1.3,17.5,6.3,24.2
		c2.4,2.1,4.6,4.3,8.1,7.7c-7.7,3-13.7,5.4-19.9,7.6c-5,1.8-10.2,3.1-15.1,5c-6.4,2.5-8.3,6.1-6.5,12.4c1,3.8,2.4,7.6,3.9,11.3
		c6.1,14.8,12.3,29.5,18.4,44.2c2.8,6.7,5.7,13.4,9.2,21.3C7885.1,4311.1,7869.7,4315.5,7854.1,4318.6z"/>
	<path onclick="modals(this.id);" id="910" class="st0" d="M3757.9,3653.5c-22.6,8.3-43,15.8-64.1,23.6c-11-6.7-26.6-21.6-42-40.7
		c9.2-16.7,27.8-18.4,43.9-26.7c-0.5-4.3-0.3-8.9-1.8-12.9c-4.7-12.4-10-24.6-15-36.9c-2.5-6.1-4.7-12.3-7.2-18.9
		c10.6-8.3,23.2-10.2,35.1-16.6C3723.8,3567.3,3740.4,3609.3,3757.9,3653.5z"/>
	<path onclick="modals(this.id);" id="663" class="st0" d="M3578.1,3153c-4.8-10.8-9.5-20.3-13.4-30.2c-3.9-9.9-6.8-20.1-10.4-30.9
		c5.6-5.7,13.3-4.6,20.2-5.2c8-0.7,15.1-1.8,22-7.3c6-4.8,14.5-6.5,21.9-9.4c15.5-6.1,31-12.1,47.5-18.5c11,18.9,18.2,38.5,24,58.5
		C3669.7,3122.6,3612.6,3144.5,3578.1,3153z"/>
	<path onclick="modals(this.id);" id="3245" class="st0" d="M7755.6,4124.1c-5.5-2.9-10.1-5.3-15.8-8.3c-3.5-13.3-7.2-27.3-11.3-42.6
		c40.2-13.9,80-25.8,119.2-36.9c8.4,1.9,11.7,7.5,13.7,14.1c3.8,12,7.3,24.1,11.1,36.8c-12,8.8-26.4,9.4-39.1,14.4
		c-12.3,4.8-25.5,7.3-38.3,10.9C7781.7,4116.3,7768.4,4120.3,7755.6,4124.1z"/>
	<path onclick="modals(this.id);" id="694" class="st0" d="M3616.9,3404.9c11.7-7.8,41.5-20,56.1-23c9,14.5,33,72.5,41.7,101.6
		c-17.3,10.6-36.9,16.3-55.2,24.3C3650.8,3495.4,3625.5,3434,3616.9,3404.9z"/>
	<path onclick="modals(this.id);" id="687" class="st0" d="M4024.6,3212.1c-17.1,6.8-33.6,13.4-51,20.4c-2.5-4.4-4.7-7.6-6.2-11.1
		c-12.9-31.4-25.7-62.8-38.5-94.2c-1-2.4-1.2-5.1-1.9-8.1c6.7-7.4,16.5-8.5,24.7-12.3c8.3-3.8,17.1-6.6,26.4-10.1
		c2.2,3.8,4.2,6.4,5.4,9.4c4.4,10.4,10.1,20.7,12.2,31.6c2.3,12.1,10.8,20.8,14.2,32.2c3.2,10.8,8.2,21.1,12.2,31.7
		C4023.3,3204.4,4023.6,3207.7,4024.6,3212.1z"/>
	<path onclick="modals(this.id);" id="3255" class="st0" d="M7843.3,4851.3c0,4.2,0.5,8.2-0.2,12c-0.4,2.1-2.7,4.9-4.6,5.2c-2.1,0.4-6.3-1-6.8-2.5
		c-3.4-9.5-11.5-18.1-4.7-29.7c2-3.5,1.5-9,0.9-13.4c-0.9-6.5-2.9-12.8-4.3-18.7c17.5-12.4,109.1-62.4,122.3-66.6
		c3,5.5,6.1,11.2,9.2,16.9c-5.2,9.4-16.4,9.6-23,17.7c-3.3,9.6,6.9,17.6,5.6,28.7c-7.9,4.6-16.5,9.5-25.5,14.7
		c-0.4,5-0.7,9.9-1.5,20c-3.6-6.6-5.2-9.5-6.3-11.6C7884.8,4826.7,7873.6,4831.7,7843.3,4851.3z"/>
	<path onclick="modals(this.id);" id="2899" class="st0" d="M3339.4,1829.4c-1,1.5-1.7,3.8-3.1,4.3c-38,16-76,31.9-114.5,47.9c-2.3-2.6-4.6-4.2-5.5-6.4
		c-11-27.2-21.8-54.4-32.5-81.7c-0.5-1.2-0.3-2.6-0.6-6.6c2.5-2.4,6.2-6.1,9.9-9.7c3.1,1.8,5.5,2.4,6.2,3.8
		c4,7.6,7.5,15.5,11.5,23.8c5.5,0,10.9,0.9,15.8-0.2c6.5-1.6,12.2-4.7,19.2-0.9c2.3,1.2,6.4-0.6,9.5-1.6c5.7-1.8,11.2-4,16.4-5.9
		c8.9,9.1,8.9,9.1,24.8,10.2c4.5,9.8,9.1,20,14.2,31.1c10.3-2.7,19.7-5.2,29.1-7.7C3339.8,1829.8,3339.4,1829.4,3339.4,1829.4z"/>
	<path onclick="modals(this.id);" id="673" class="st0" d="M3696.1,3124.3c8.3,19.2,16.9,39.1,24.5,60c-8.2,7.3-17.9,9.1-27.6,12.6c-3.6-5.2-7-9.9-10-14.2
		c-12.6,1.6-32.7,8.9-47.5,17.3c0.4,5.4,0.8,11.2,1.2,18.1c-4.4,2.2-8.9,4.7-13.6,6.8c-4.1,1.8-8.5,2.9-13.4,4.5
		c-10.7-20-17.6-40.6-26.1-61.6c4.2-2.2,7.4-4.4,11-5.7c21.2-7.7,42.5-15,63.6-22.8C3670.5,3134.8,3682.5,3129.7,3696.1,3124.3z"/>
	<path onclick="modals(this.id);" id="712" class="st0" d="M3641.5,3625.4c-20.4-15.2-61.2-56.1-70.1-70.4c38.4-15,76.5-30,114-44.7
		c4.9,4.7,4.6,8.4,0.1,10.6c-7.8,3.7-15.9,6.7-23.2,9.7c-4.5,5.5-3.1,10.8-1.2,15.8c4.3,11.2,9.1,22.2,13.6,33.2
		c2.8,6.7,5.4,13.5,8.2,20.6c-5.8,8-15.7,6.9-22.8,11.2C3653.4,3615.4,3647.5,3620.8,3641.5,3625.4z"/>
	<path onclick="modals(this.id);" id="685" class="st0" d="M3724.8,3198.5c8,13.9,45.7,109,50,126.1c-5.3,5.1-12.6,6.6-19.4,8.9c-2,0.7-5.5,0-7.1-1.5
		c-5.4-4.7-11.1-3.8-16.8-1.8c-8.6,3-17.1,6.5-26.5,10.1c-9-12.7-12.1-27-18.4-40.2c9.9-10.7,25.2-10.3,35.7-20.4
		c-5.5-24.1-19.1-45.7-25.3-70.2C3706.2,3204.1,3715.2,3200.3,3724.8,3198.5z"/>
	<path onclick="modals(this.id);" id="3247" class="st0" d="M7777.8,4131.9c15.7-7.7,73.5-25.3,95.5-29.3c10.1,13.6,12.8,31.3,23.2,46.5
		c-8.5,2.2-16.1,4.2-20.7,11.6c-1.5,2.4-5.5,3.4-8.6,4.4c-20.1,6.6-40.3,13.1-60.5,19.5c-1.8,0.6-3.8,0.5-6.8,0.9
		C7790.7,4168.7,7785,4150.6,7777.8,4131.9z"/>
	<path onclick="modals(this.id);" id="3252" class="st0" d="M7880.9,4224.2c13.4-4.7,25.7-9.3,38.3-13.3c3-1,6.7-0.9,9.7-0.1c13.3,3.9,26.4,8.3,40.2,12.6
		c0,19.3,0,37.6,0,57.1c-17.4,7.8-36.2,13.7-54.8,19.1C7904,4285.7,7889.1,4252.4,7880.9,4224.2z"/>
	<path onclick="modals(this.id);" id="665" class="st0" d="M3772.6,3080.2c-22.9,11-46.5,17.1-69.4,26.7c-7.6-14.3-13.4-27.4-16.1-42.4
		c25.4-13.4,53-21,78.8-33.4c-0.9-6.5-1.6-11.5-2.5-17.3c9.3-5.5,19.1-9.1,30-12c9.1,12.7,12.9,27.1,17.5,42.3c-8.9,3.2-16.9,6-25,9
		c-14.7,5.4-14.9,5.7-13.4,21.5C3772.7,3075.7,3772.6,3077,3772.6,3080.2z"/>
	<path onclick="modals(this.id);" id="650" class="st0" d="M3660.9,3001c-7.2-12.7-11.2-25.1-16-38c38.6-16.5,76.7-30.9,115.7-44.9
		c6.5,11.5,10.7,22.5,14.9,34.6c-3.5,2-6.6,4.3-10,5.8c-12.2,5.3-24.5,10.3-36.7,15.3c-3.7,1.5-7.3,3.1-11.1,4.5
		c-9.2,3.5-16.4,10.7-26.9,12.2C3681.1,2992.1,3672,2997,3660.9,3001z"/>
	<path onclick="modals(this.id);" id="664" class="st0" d="M3681.1,3053.3c-6-14.2-11.1-26.2-16.4-38.9c18.1-12.7,38.8-16.4,57.3-25
		c18.6-8.6,37.7-16.2,57.4-23.6c5.3,7.4,8.9,14.1,9,23.1c-11.9,8.5-27.5,9.7-39.8,19c1.1,5.5,2,10.5,3,15.3
		c-1.4,1.2-2.3,2.4-3.4,2.8C3726.7,3034.8,3705.2,3043.5,3681.1,3053.3z"/>
	<path onclick="modals(this.id);" id="670" class="st0" d="M4078.3,2982.6c-4.9-10.4-8.9-17.9-9.8-28c3.2,0,7.1-0.8,7.5,0.1c3.4,7,6.3,14.2,8.7,21.6
		C4085,2977.3,4081.5,2979.5,4078.3,2982.6z"/>
</g>
</svg>
