<?xml version="1.0" encoding="utf-8"?>
<!-- Generator: Adobe Illustrator 19.0.0, SVG Export Plug-In . SVG Version: 6.00 Build 0)  -->
<svg version="1.1" id="Layer_1" xmlns="http://www.w3.org/2000/svg" xmlns:xlink="http://www.w3.org/1999/xlink" x="0px" y="0px"
	 viewBox="0 0 6300 3100" style="enable-background:new 0 0 6300 3100;" xml:space="preserve">
<style type="text/css">
	.st0{fill:#FFFFFF;}
</style>
<g>
	<path onclick="modals(this.id);" id="1562" class="st0" d="M3998.3,1806.3c19.7,5.8,38.1,11.6,56.7,16.5c64.3,16.8,128.9,32.8,193.1,50.1
		c28.5,7.7,56.4,18,84.6,27.1c16.1,5.2,32.2,10.6,48.4,15.8c2.2,0.7,4.5,1,7.9,1.8c1.1-10,2.1-19.4,3.1-29.3c23.1,0,46.2,0,70,0
		c40.9,117.5,81.5,234.3,122.5,351.9c-2.5,1-4.7,2.1-7.1,2.8c-39.5,10.6-79,21.3-118.5,31.7c-71,18.8-142.1,37.5-213.2,56.2
		c-50.8,13.4-101.6,26.7-152.4,40.2c-6,1.6-12,4.1-17.4,7.2c-120.8,69-241.6,138-362.3,207.1c-106.9,61.2-213.7,122.5-320.5,183.7
		c-16.2,9.3-32.2,18.7-48.5,27.8c-3.4,1.9-7.3,3.2-11.1,3.6c-49.2,5.1-98.4,9.9-147.6,14.8c-39.3,3.9-78.6,8-117.9,11.9
		c-7.2,0.7-15.4,3.2-21.5,0.7c-5.6-2.3-9-10.2-13.2-15.7c-68.8-92-137.6-184-206.3-276c-20.5-27.5-41.5-54.6-61.2-82.7
		c-9.5-13.5-16.6-28.8-24.5-43.4c-11.8-21.6-23.9-43.1-34.7-65.2c-4.6-9.4-7.5-20-9.2-30.3c-2.9-17.3-4.7-34.9-6.1-52.4
		c-0.6-7.5-3.2-13.5-8.7-18.1c-4.6-3.8-5.2-8.7-6.1-14.1c-2.1-12.2,0.9-23.7,3-35.4c2.2-12.4,4-24.9,5.1-37.4
		c1.2-13.6,6.5-25.4,15.7-34.7c12.4-12.3,22.6-26.1,32.5-40.3c5.3-7.6,11.6-14.6,17.7-21.6c1.7-1.9,4.2-3.1,6.5-4.4
		c20.7-12.2,43.4-18.8,67.1-20.6c13.9-1.1,26.6-5.3,39.4-10.2c4.2-1.6,8.1-2.1,12.5-0.9c9,2.4,18.2,4.2,27.1,6.7
		c4.1,1.2,7,0.7,9.6-2.6c0.8-1,1.8-2,2.8-2.8c6.9-6,7.8-12.8,6.5-22.1c-2.4-17.1-9.4-28-25.8-35c-18.3-7.9-31.7-22.4-43.7-38.3
		c-10.2-13.5-21.7-26.1-33.3-38.4c-6.3-6.7-13.9-12.4-21.5-17.8c-5.3-3.8-7.4-8.1-6.4-14.3c0.1-0.7-0.1-1.4,0.1-2
		c3.7-10.1-0.2-18.2-6.8-25.4c-3.6-3.9-3.8-7.6-2.2-12.7c6.2-19.1,14.1-37.2,27.6-52.5c5.4-6.2,9.9-13.3,14.1-20.5
		c10.4-18,22.8-34.6,37.7-48.9c25.5-24.6,47.6-52,69-80.1c2.8-3.7,6.2-6.9,9.7-10c20-17.3,37.9-36.4,53.5-57.7
		c1.1-1.5,1.8-3.4,3-5.9c-2.3-0.7-4.1-1.6-5.8-1.6c-31,0.1-62,0.3-93,0.6c-13,0.2-25.9,1.1-38.9,1.2c-29.6,0.4-59.3,0.4-89,0.7
		c-43.9,0.6-87.9,1.3-131.8,2c-42.9,0.7-85.9,1.3-128.8,2c-43.9,0.7-87.9,1.3-131.8,2c-43.3,0.7-86.5,1.3-129.8,2
		c-41.3,0.7-82.5,1.3-123.8,2c-41.6,0.7-83.2,1.3-124.8,2c-40.9,0.7-81.9,1.4-122.8,2c-44.9,0.7-89.9,1.3-134.8,2.1
		c-6.6,0.1-13.2,1-20.4-0.3c2.8-1.2,5.5-2.5,8.3-3.6c99.3-36.5,198.5-73.1,297.8-109.6c138.9-51.1,277.9-102.1,416.8-153.2
		c118-43.4,236.1-86.7,354.1-130.1c71.8-26.4,143.6-52.9,215.4-79.3c54.9-20.2,109.9-40.3,164.9-60.5c2.5-0.9,5-1.9,7.6-2.1
		c9.9-0.7,19.9-1.2,29.9-1.4c21.3-0.4,42.6-0.3,64-0.8c27.6-0.5,55.2-1.3,82.8-2c27.3-0.7,54.5-1.3,81.8-2c27.3-0.7,54.5-1.4,81.8-2
		c29.9-0.7,59.9-1.4,89.8-2c38.3-0.7,76.5-1.4,114.8-2c38.6-0.7,77.2-1.3,115.8-2c38.3-0.7,76.5-1.3,114.8-2
		c38.6-0.7,77.2-1.3,115.8-2c37.9-0.7,75.9-1.3,113.8-2c13.6-0.3,27.2-0.9,40.9-1.3c3.3-0.1,6.5,0,10.2,0c0.8,9.1,2.6,17.4,1.9,25.5
		c-1.7,18.9,3.9,35.6,13.9,50.9c8.4,12.9,11.8,27.3,14.9,41.9c0.8,3.5,1.6,7.1,2.7,11.9c8.3-0.9,16.4-1.8,24.5-2.8
		c1.6-0.2,3.3-0.5,4.9-0.7c5.9-0.7,8.4,1.3,7.6,7c-2.9,19.7-6.1,39.3-9.3,59c-0.1,0.9-0.8,1.7-1.5,3.1c-33.8,2.5-67.8,4.9-103.1,7.5
		c11.6,64.8,23,128.3,34.6,192.5c-4.4,1.4-8.1,2.7-11.8,3.7c-41.4,11.4-82.7,22.9-124.1,33.9c-5.6,1.5-11.8,1.3-17.6,1
		c-8.8-0.4-17.5-1.6-27.5-2.5c1.9,17,3.6,32.3,5.4,48.2c3.5,0.8,6.6,1.5,10.9,2.4c-3.4,10.2-6.7,20.2-10.1,30.7
		c-4.5,0.9-9.3,1.9-14.6,3c-6.3,15.2-6.3,31.9-10.2,48.5c7.2,0.4,12.7,0.8,18.9,1.1C4038.9,1647.9,4019.1,1726.7,3998.3,1806.3z
		 M3804.2,1576.3c-1.6,2.5-2.7,4.3-4.3,6.9C3806,1583.2,3805.5,1580.5,3804.2,1576.3z"/>
	<path onclick="modals(this.id);" id="1424" class="st0" d="M3688.2,471.8c12.6,17.5,24.7,34.4,37.2,51.8c11.8-7.4,22.8-14.2,33.7-21.2
		c12.9-8.3,25.5-17,38.5-25.1c3.5-2.2,7.9-3.5,12-3.9c29.5-2.2,59-4.1,88.4-6.1c10.9-0.7,21.9-1.1,32.8-2.2
		c4.9-0.5,9.9-1.4,14.4-3.2c11.5-4.5,22.7-9.4,34-14.5c3-1.3,5.8-3.3,8.1-5.5c10.4-9.8,20.5-20,31-29.7c3.5-3.2,8-5.9,12.5-7.6
		c7.1-2.8,12.9-6.4,16-13.7c1-2.3,2.8-4.3,5.6-8.3c-0.2,7.7-0.9,12.3-4,17.4c-3,4.8-3.9,11.1-4.9,16.9c-2.9,16.3-5.2,32.8-8.2,49.1
		c-1.2,6.9-0.3,11.8,6.5,15.8c7.7,4.4,14.7,10.3,22.2,15.8c-0.2,2-0.8,3.9-0.7,5.8c1.7,22.9-13.9,35.2-29.3,47.5
		c-2.4,1.9-6.1,2.7-9.3,3.1c-12.9,1.5-23.7,8.4-35.5,12.7c-3.5,1.3-4.2,3.9-4,7.1c0.8,13.6,1.5,27.1,2.5,40.7
		c0.4,6.2,1.5,12.4,2.4,19.8c7.7-0.7,15-1.3,24.1-2.1c-5.1,8.4-9.3,15.5-13.7,22.4c-5.5,8.7-10.9,17.5-16.8,26
		c-2.6,3.8-3.6,7.7-2.9,12.2c1.3,8.9,2.4,17.8,3.9,26.6c0.4,2.5,1.5,5.1,2.8,7.3c4.1,6.4,8.6,12.6,12.9,19
		c3.6,5.4,7.9,9.1,14.3,11.6c4.4,1.7,7.6,6.9,11.2,10.7c3.5,3.7,6.4,7.5,3.8,13.3c-0.5,1.2,1.4,4.3,3,5.4c4.7,3.2,9.7,5.7,14.7,8.5
		c35.7,20.1,71.2,40.4,107,60.2c10.4,5.7,21.6,9.8,34.1,7.9c8.8-1.3,17.9-1.5,26.8-2.1c2.7-0.2,5.6-0.7,8,0.1
		c7.3,2.5,13.7-0.3,20.4-2.3c4.1-1.2,8.3-2.2,12.6-2.7c5.4-0.7,9.9,1.4,12.4,6.4c4.1,8,8.7,15.9,11.3,24.4c1.8,5.8,1,12.5,0.5,18.7
		c-1,13.9-2.1,27.8-3.9,41.6c-1.3,9.8-3.6,19.5-5.5,29.2c-0.3,1.3-0.5,3.1-1.3,3.7c-8.8,5.7-17.2,12.8-26.9,16.2
		c-8.1,2.9-17.7,1.7-26.7,1.8c-31,0.4-62,0.3-93,0.8c-38.6,0.5-77.2,1.3-115.8,2c-38.3,0.7-76.5,1.3-114.8,2
		c-38.6,0.7-77.2,1.3-115.8,2c-38.3,0.7-76.5,1.3-114.8,2c-33.6,0.6-67.2,1.3-100.8,2c-26.9,0.6-53.9,1.3-80.8,2
		c-27.3,0.7-54.5,1.3-81.8,2c-27.6,0.7-55.2,1.3-82.8,2c-26.6,0.7-53.2,1.3-79.8,2c-15,0.4-29.9,0.7-44.8,1.5
		c-4.6,0.2-9.3,1.2-13.6,2.8c-120.2,44.1-240.4,88.4-360.6,132.6c-144.9,53.2-289.8,106.3-434.6,159.5
		c-117.7,43.3-235.3,86.7-353,130c-103,37.9-206,75.8-309.1,113.6c-3.6,1.3-7.3,2.5-12.5,4.2c2.3-8.1,4-14.7,6-21.3
		c33.9-114.1,67.9-228.2,101.9-342.3c2.9-9.8,6.5-19.5,10.4-29c2.2-5.4,6.7-8.5,12.4-10.7c52.7-20.5,105.2-41.5,157.9-62.1
		c8.8-3.4,16.8-7.8,24.3-13.4c52.8-38.9,103.7-80.1,154.1-122.1c5.6-4.6,8.5-10.5,11.5-17c6.8-14.9,4.1-30,2.3-45
		c-3.7-32-7.6-63.9-11.5-95.9c-4.5-37.6-9.1-75.1-13.5-112.7c-3.7-31.3-7.2-62.7-10.8-94c-0.2-2-0.9-4-0.7-5.9
		c1.9-20.1-12.9-24.9-27.4-29c-18.5-5.3-37.2-9.9-55.2-17c-4-1.6-6.7-3.5-8.4-7.5c-4-9.5-8.3-18.8-12.6-28.2
		c-8.5-18.7-7-37.1-0.2-56.2c4.3-12.1,6.1-25.1,9.1-37.6c1.2-4.9-1.3-8-4.4-11.3c-19.6-20.5-40.9-39.1-63.1-56.7
		c-24.2-19.2-48.1-38.9-72.1-58.5c-1.8-1.4-3.4-3.1-6-5.6c9.3-2.3,17.7-1,26-1c6.6,0,13.3,1.1,19.9,1.1
		c109.6,0.3,219.3,0.4,328.9,0.8c73.3,0.2,146.6,0.9,219.9,1.3c56.7,0.3,113.3,0.4,170,0.7c71,0.4,141.9,0.9,212.9,1.3
		c38.3,0.2,76.6,0.5,115,0.7c88.9,0.5,177.9,0.9,266.8,1.3c43,0.2,86,0.4,129,0.7c50,0.4,99.9,1.4,149.9,1.1
		c21.9-0.2,43.7-3,65.5-4.7c11.9-0.9,23.8-1.8,35.8-2.7c25.2-2,50.3-4.3,75.5-6c26.8-1.8,53.7-3,80.6-4.4
		c21.9-1.2,43.8-2.1,65.7-3.6c7.8-0.6,15.2,0.1,22.5,2.8c6.2,2.3,12.6,4,19.2,6.1c0.4,6.5-3.2,11.1-6.1,15.7
		c-14.3,22.8-28.8,45.5-43.3,68.2c-2.5,3.9-3.6,7,0.9,10.2c0.9,0.7,0.8,2.9,1.4,5.8c-5.1-2.6-8.9-2-11.3,2.2
		c-3.4-2.5-6.3-4.6-9.8-7.1c-2.6,3.3-5,6.3-8,10.2c-5.4-3.7-10.8-7.4-16.6-11.3c-5.2,3.4-10.2,6.6-7.7,14.8c0.6,2-1.4,5.8-3.4,7.4
		c-13.9,11.3-28,22.3-42.1,33.4c-1.3,1-3,1.6-4.1,2.8c-4.6,4.9-10.1,7.2-16.8,7.2c-8.7,0-15.8,4.4-22.6,9.2
		C3713,455.1,3700.9,463.2,3688.2,471.8z"/>
	<path onclick="modals(this.id);" id="1890" class="st0" d="M4002.8,1803.7c6.5-26,12.7-51.2,19-76.3c4.4-17.7,8.9-35.5,13.4-53.2c2-7.7,2.4-8.1,9.7-8.9
		c45.9-4.7,91.9-8.6,137.6-14.4c55.6-7.1,111.1-15.7,166.6-23.7c13-1.9,25.2-5.3,35.4-17c0.6,3.7,0.9,5.2,1,6.7
		c0.5,16.9,1.1,33.9,1.3,50.8c0.4,26.3,0.3,52.6,0.8,78.9c0.4,22.3,1.3,44.5,2,66.8c0.1,1.6,0.7,3.2,1.2,5.3
		c17.9,1.2,35.7,2.3,53.4,8.4c-4,19.2-8,38-12,57.2c-13.3,0-27.4,0-42.7,0c-1,8.9-2.1,18.3-3.3,28.8c-3-0.8-5.8-1.3-8.5-2.2
		c-38.2-12.5-76.3-25.7-114.8-37.4c-28.3-8.6-57.1-15.4-85.9-22.5c-55.5-13.7-110.9-27.8-165.6-44.5
		C4008.7,1805.9,4006.3,1804.9,4002.8,1803.7z"/>
	<path onclick="modals(this.id);" id="2195" class="st0" d="M4468.7,1457c-11.8-3.3-19.7-11-26.5-19.9c-1,0.3-1.9,0.3-2.2,0.8c-4.4,7.3-11.4,10-19,13.4
		c-12,5.3-22,5-33.6-0.7c-9.1-4.5-19.3-8.9-30.4-4c-2.8,1.3-6.6,0.7-9.9,0.8c-3.7,0.1-7.7-0.9-10.9,0.3c-9,3.3-15.9-0.3-23.2-4.8
		c-23-14-46.3-27.7-69.4-41.5c-3.4-2-6.3-3.8-7.1-8.7c-4.9-28.8-10.3-57.5-15.7-86.8c12.9-4,25.9-2.4,38.7-3.2
		c17.9-1.1,35.9-1.4,53.8-2.1c8.6-0.3,15.8-4.8,23.2-8.6c27.2-14,54.4-28.1,81.5-42.4c4.8-2.5,8.3-2.3,12.7,0.8
		c10.3,7.2,21,13.8,31.8,20.8c4.2-3.7,7.9-6.9,11.4-9.9c4.8,5.5,9.4,10.7,15,17.2c3.1-5.9,4.9-9.2,7.3-13.6
		c21.6,2.9,43.1,7.5,65.7,13.8c-1.4,6.6-2.3,12.7-4.1,18.6c-0.6,2.2-3,4.4-5.1,5.5c-6,3-10.1,7.7-13,13.4
		c-14.7,28.8-29.3,57.5-43.8,86.4c-8.4,16.7-16.4,33.5-24.6,50.2C4470.6,1454.3,4469.6,1455.6,4468.7,1457z"/>
	<path onclick="modals(this.id);" id="2196" class="st0" d="M4466.7,1462.4c-11.2,19.8-22.3,39.1-33.1,58.6c-11.6,20.9-22.9,42-34.4,63
		c-6.6,12-14,23.4-25.5,31.6c-2.3,1.6-4.9,2.8-8.2,4.7c-2.2-16.3-4.2-31.3-6.4-47.3c-16.1,3.1-31.1,5.8-45.9,9c-9.7,2-19,2-28.5-1.3
		c-10.4-3.6-20.9-6.6-31.4-9.7c-7.5-2.2-14.2-5.6-18.5-12.6c-6.9-11.2-18.8-15.7-29.7-20.8c-17.2-8-34.8-15.2-52.7-21.2
		c-7.2-2.4-15.7-1.3-23.7-1.3c-21.6-0.1-43.2,0-66.1,0c3.4-11.6,6.7-22.4,10.2-34.3c-4.3-0.9-7.4-1.5-11.6-2.3
		c-1.5-13-3.1-26.4-4.8-41.2c9.6,0.8,18.3,1.7,27,2.2c4.2,0.2,8.6,0.6,12.6-0.5c43-11.7,85.9-23.4,128.7-35.7
		c7.7-2.2,13.7-1.2,20.4,3c23.5,14.5,47.4,28.4,71.1,42.5c4.9,2.9,9.6,5.2,15.9,3c3.9-1.3,8.5-0.6,12.8-0.8c3.3-0.1,6.9,0.6,9.9-0.4
		c13.4-4.7,25.1-0.7,36.5,6.2c5.5,3.3,22,2.7,27.6-0.5c2.3-1.3,4.6-3,7.1-3.4c6.6-0.8,12-2.9,13.7-10.1
		C4449,1449.4,4457.4,1455.6,4466.7,1462.4z"/>
	<path onclick="modals(this.id);" id="2197" class="st0" d="M4037.8,1661.8c6.6-32.7,13.1-64.5,19.8-97.7c-6.3-0.5-12.3-0.9-19.6-1.4
		c2.7-14.6,5.3-28.5,8-42.6c3-0.3,4.9-0.6,6.8-0.7c23.6-0.3,47.3-0.5,70.9-0.7c1.7,0,3.4,0.4,5-0.1c13.5-3.6,25.4,1.1,37.4,6.4
		c10.6,4.7,21.7,8.5,32.3,13.1c3.8,1.6,7,4.6,10.5,6.9c2.2,1.4,4.4,3.1,6.9,4c8.4,3,14.4,9,20.2,15.5c2.6,2.8,5.8,5.7,9.4,6.9
		c16,5.5,32.1,10.8,48.4,15.3c4.8,1.3,10.6,0.2,15.7-0.7c15.3-2.7,30.6-5.8,47.1-8.9c1.8,14.7,3.5,28.7,5.2,42.3
		C4343.1,1630.2,4068.8,1661.7,4037.8,1661.8z"/>
	<path onclick="modals(this.id);" id="2192" class="st0" d="M4219.8,1300.7c-5.6-31.5-11.1-61.8-16.6-92.8c13.8-1.1,26.7-2.1,39.5-3
		c18.2-1.3,36.4-2.9,54.6-3.5c12.2-0.4,24.5,0.7,36.8,1.1c6.6,0.2,13.3,0.5,19.9,0.9c13.9,0.7,27.8,1.5,42.3,2.2
		c0.3,1.5,0.6,3.1,1.1,4.5c2.2,6.6,3.9,7.5,10.2,4.4c5.3-2.6,10.3-5.8,14.5-8.1c6.5,6,13,11.9,20.4,18.7
		c-9.8,7.4-16.4,16.9-27.2,22.3c-27.7,13.7-55.1,28.1-82.4,42.6c-8.7,4.7-17.6,7.1-27.5,7.4c-23.2,0.8-46.4,2.2-69.6,3.3
		C4230.8,1300.9,4225.9,1300.7,4219.8,1300.7z"/>
	<path onclick="modals(this.id);" id="1915" class="st0" d="M4568.5,1707c-35.7,59.7-71,118.8-106.3,177.9c-8.2,0-16.1,0-24.5,0c0-4.6-0.7-9,0.1-13
		c8.4-40.3,16.9-80.6,25.5-120.8c6.4-29.8,12.9-59.7,19.4-89.5c1.1-5.3,1-9.6-4-14c-17-14.9-33.2-30.6-49.7-46.1
		c-7.7-7.3-15.4-14.6-23.8-22.5c4.6-8.5,9-16.5,13.8-25.2C4469.2,1605.3,4518.8,1656.2,4568.5,1707z"/>
	<path onclick="modals(this.id);" id="1425" class="st0" d="M3956.3,290.1c-4.1,7.3-7.2,13.4-10.9,19.2c-3,4.7-4.1,9.5-4.2,15c-0.1,4.1-0.6,8.9-2.7,12.2
		c-15.4,24-31.3,47.8-47.5,72.3c-8.9-2.2-15.1,3-20.8,9.4c-18.7,20.9-42.4,35.2-65.5,50.3c-23.1,15.1-46.4,29.9-69.7,44.8
		c-2.7,1.8-5.7,3.3-8.9,5.1c-11-15.3-21.6-30.2-32.6-45.6c2.1-1.7,3.9-3.5,6-4.9c8.2-5.7,16.7-11,24.7-16.9
		c8.5-6.3,17.4-10.6,28.3-10.8c3.1,0,6.5-1.6,9-3.5c16.9-12.9,33.7-25.9,50.4-39c4.3-3.3,7.9-6.8,5.6-13.4c-0.8-2.2,1.7-5.5,3-9.1
		c7,4.6,12.7,8.4,18.8,12.4c2.8-3.4,5-6.1,7.8-9.6c2.9,2,5.8,4,9.2,6.4c1.9-1.2,4-2.6,6-3.9c2.7,1.5,5.2,3,8.7,4.9
		c3.2-7.7-0.3-13.3-4.1-19.3c17.6-28.2,35.3-56.6,53.9-86.4C3931.2,283,3942.9,286.3,3956.3,290.1z"/>
	<path onclick="modals(this.id);" id="1884" class="st0" d="M4445,1822c-17.6-2.4-33.9-4.5-51-6.8c-0.4-3.3-1.1-7.2-1.2-11.1c-0.8-29.9-1.4-59.9-2.1-89.8
		c-0.7-31.6-1.2-63.2-2.1-94.8c-0.2-7.9,0.9-15,6-21.4c3.5-4.4,6-9.5,9.3-14.9c25.5,23.6,50.8,47,76.6,70.8
		C4468.6,1710,4456.8,1766.1,4445,1822z"/>
	<path onclick="modals(this.id);" id="1914" class="st0" d="M4420.7,1550.5c15.3-27,29.8-52.3,45-79.1c6.4,6.7,12.3,12.7,18,18.9c7,7.5,13.5,15.6,21,22.7
		c4.6,4.4,4.9,8.9,3.8,14.4c-2.9,14-5.7,28-8.5,42c-0.1,0.6,0.1,1.3,0.3,3.1c8.9,0.3,18.1,1.4,27.2,0.8c11.4-0.7,18.4,3.6,22.5,14.2
		c1.5,3.8,5.1,6.9,8.1,10c8.6,9.2,17.5,18.1,26,27.4c2.9,3.1,5.2,6.8,8.2,10.7c-3.3,9.4-6.2,19.3-10.3,28.7
		c-2.1,4.7-6.4,8.3-9.8,12.3c-4.7,5.4-4,8.1,2.7,10.8c1.8,0.7,3.6,1.4,5.2,2.4c0.7,0.4,1,1.6,1.4,2.5c-0.6,1-1,1.9-1.6,2.6
		c-2.6,2.9-5.4,5.8-8.9,9.5C4520.8,1653,4471,1602,4420.7,1550.5z"/>
	<path onclick="modals(this.id);" id="1564" class="st0" d="M3960.1,291.4c41.6,12.7,82.5,25.3,124.5,38.1c-4,5.9-7.3,10.8-10.6,15.7
		c-10.8,15.9-21.9,31.7-32.4,47.9c-3.9,6.1-10,7-15.9,9.3c-3.8-5.4-9.6-6.5-15.5-7.8c-27.3-6-54.3-13-77.7-29.2
		c-1.8-1.3-3.5-2.8-5.5-4.3c5.1-8,10.1-15.4,14.6-23c1.6-2.7,3.1-6.1,2.9-9.1c-0.6-8.4,1.8-15.6,6.4-22.4
		C3954,302,3956.7,297,3960.1,291.4z"/>
	<path onclick="modals(this.id);" id="1563" class="st0" d="M4021.3,404c-8.9,8.9-18.2,17.4-26.6,26.7c-15,16.8-36.4,21.1-55.5,30
		c-3.4,1.6-7.8,1.6-11.7,1.9c-17.2,1-34.5,1.7-51.7,2.8c-17.5,1.1-35,2.5-52.6,3.7c-3.2,0.2-6.5,0-12.1,0c3.4-2.7,4.9-4.2,6.7-5.3
		c20.7-12.3,39.8-26.6,56.1-44.4c3.9-4.3,8.1-7.8,14.6-6.7c5.1,0.9,6.8-3.4,8.9-6.7c6.6-10.3,13-20.8,19.7-31.2
		c2.1-3.3,4.7-6.4,7.5-10.3c28.7,21.3,62.7,28.1,96,36.4C4020.9,402.1,4021.1,403.1,4021.3,404z"/>
	<path onclick="modals(this.id);" id="2120" class="st0" d="M4271.9,1095.8c-7.1-13.7-13.6-26-19.9-38.4c-1.5-2.9-3-6.1-3.2-9.3
		c-0.8-13.6-0.9-27.2-1.5-40.8c-0.2-4.4,1-7.6,4.9-10c6.2-3.8,12.2-8,18.4-12c6.8,1.1,12.6,9.5,20.3,2c1.5,2.2,2.4,4.5,4.1,5.4
		c1.4,0.8,3.8,0.1,5.7-0.4c4.2-1,8.3-2.3,12.5-3.3c3.9-1,7.7-2.1,11.7-2.6c3.5-0.4,7.1-0.1,11.8-0.1c3.3,15.5,6.8,31.6,10.5,48.8
		c-14.8,3.9-29.4,7.8-45.1,12.1c2.6,12.6,5,24.5,7.8,37.7C4297.2,1088.5,4284.9,1092,4271.9,1095.8z"/>
	<path onclick="modals(this.id);" id="1430" class="st0" d="M4113.5,438.4c1.8,3.9,3.2,6.8,4.8,10.1c-3.9,3.6-8,7.5-2,14.3c-3.7-0.4-5.8-0.6-8.7-0.9
		c1.4,7.7-4.1,11-9.7,13.5c-6.5,3-10,7.3-8.4,15.7c-11.5,1.3-22.3,7-32.8-3c-5.2-5-11.8-8.5-18.8-13.4c3.8-23.2,7.6-46.6,11.7-71.3
		c4.3,0.4,8.4,0.8,12.5,1.2c4,0.4,7.9,1.4,11.9,1.4c18.6,0.1,34.9,6.5,49.6,17.6c0.7,0.6,1.8,0.6,3.5,1.1
		c5.2-3.9,10.8-8.1,16.6-12.5c1.7,2.1,3.2,3.8,4.9,5.9C4139.6,429.3,4127.2,434.6,4113.5,438.4z"/>
	<path onclick="modals(this.id);" id="2830" class="st0" d="M4533.8,1428.7c3.2,2.1,5,3.5,6.9,4.6c5.3,3.1,6.9,6.9,5.1,13.2c-3.6,13.1-5.6,26.7-9.1,39.8
		c-3,11.1-0.1,21.8,1.1,32.6c1.6,15.1,4.5,30.2,6.7,45.2c0.2,1.6-0.3,3.2-0.5,6c-13.4,1.7-26.4-2.3-40.6-0.8
		C4511.8,1521.8,4523.1,1476,4533.8,1428.7z"/>
	<path onclick="modals(this.id);" id="2191" class="st0" d="M4382.5,1163.5c3,4.3,5.5,7.7,7.7,10.8c-1.3,5.7-2.6,11.2-4,16.9c-8.2,2.4-8.2,2.4-10.7,9.6
		c-22.2-1.2-44.6-2.5-68.2-3.8c1.6-13.4,3.1-26,4.8-40C4335.9,1159.2,4359.2,1161.3,4382.5,1163.5z"/>
	<path onclick="modals(this.id);" id="1429" class="st0" d="M4126.3,421.1c-3.5-2-6.3-3.1-8.6-5c-11.3-9.3-24.6-12.1-38.7-13c-7.9-0.5-15.7-1.9-24.7-3
		c1-6.2,2-12.2,2.9-18.3c12.6-3.8,24.6-2.7,36.7-0.1c7.4,1.5,14.9,2.9,22.4,2.8c19-0.1,32.7,7.5,43.3,26c-2.4,1.7-4.9,3.5-7.8,5.6
		c-2.9-3.2-5.2-5.9-7.8-8.8C4138.2,411.9,4132.4,416.3,4126.3,421.1z"/>
	<path onclick="modals(this.id);" id="2155" class="st0" d="M4408.4,1098.6c7.1,0.8,13.6,1.6,20.3,2.3c0,5.2,0,9.7,0,15.4c-3.8,0-7,0.2-10.1,0
		c-11.2-0.9-22.4-1.8-33.6-3c-6.2-0.7-12.8-0.9-18.5-3.1c-6.7-2.6-12.4,0.1-18.5,0.8c-0.6,0.1-1.6,0.4-1.7,0.8
		c-2.5,8.4-10.2,6.8-16.1,8c-13.3,2.7-26.7,4.8-40.1,7c-3.5,0.6-7.1,0.5-11.2,0.8c-1.2-4.8-2.2-9-3.5-14.2
		c14.3-3.1,28.3-6.2,42.9-9.4c1.2,2.1,2.4,4.3,3.9,6.8c1.1,0,2.8,0.5,3.6-0.1c12.3-8.7,27.3-8.2,41-11.9c12.3-3.3,24.7-6.1,37.9-9.3
		C4405.7,1092.3,4406.9,1095.2,4408.4,1098.6z"/>
	<path onclick="modals(this.id);" id="1426" class="st0" d="M4056.6,376.3c10.6-15.3,20.9-30.2,31-44.8c21.6,8,37.1,22.3,51.7,39.1c-2,3.9-4.1,7.9-6.1,11.8
		c-11.4-0.7-22-1.2-32.5-2.2c-8.5-0.9-16.9-2.8-25.4-3.7C4069.7,375.8,4063.8,376.3,4056.6,376.3z"/>
	<path onclick="modals(this.id);" id="2118" class="st0" d="M4321.3,945.2c-6.3,1.4-12.1,2.7-17.9,4.1c-1.3,0.3-3.2,0.4-3.6,1.2c-4.1,8-12.8,5.2-20.5,10.2
		c1.5-17.5,2.8-33,4.2-49.4c12.1-0.6,23.5-1.2,35.1-1.9c1.4,3.3,2.6,6.2,4,9.5c3.5-0.6,6.7-1.1,10.5-1.7c4.7,9.7,5.6,20.2,8.1,30.1
		C4327.1,952.3,4327.1,952.3,4321.3,945.2z"/>
	<path onclick="modals(this.id);" id="2119" class="st0" d="M4343,952.1c0.8,3.3,1.5,5.8,2.1,8.4c0.3,1.3,0.4,3.6,0.8,3.6c6.6,0.4,2.8,5.1,3.3,7.9
		c0.3,1.9,0.2,3.8,0.3,6.2c-17.4,3.6-34.4,7.1-51.9,10.7c-1.3-1.9-2.8-3.9-4.6-6.5c-6.5,4.8-12.8,6.2-19.1-1.4c1-3.6,2.3-8,3.3-12.4
		c0.7-3.3,2.4-5.2,5.7-6c3.8-1,7.6-2.2,11.3-3.6c3.5-1.3,6.9-2,10.2-5c3.5-3.2,9.7-3.5,15.3-5.3c1.5,7.6,6,7.1,11.4,5.3
		C4334.4,952.9,4338.2,952.8,4343,952.1z"/>
	<path onclick="modals(this.id);" id="2140" class="st0" d="M4272.7,1099.1c13.9-4,27.2-7.9,40.6-11.7c10.8-3.1,21.7-6,32.6-9c1.3-0.4,3.4-0.7,3.6-1.5
		c2.9-10.9,12.9-7.8,20.1-10.2c3.1-1,6.4-1.4,10.1-2.2c0.6,2.3,2.1,5.2,1.5,5.7c-6.2,5.5-2.8,11.8-2,17.9c0.1,0.9-0.4,1.9-0.5,2.6
		c-9.2,2.6-18,5.3-26.9,7.8c-9,2.5-19.1,1.1-27.2,8.2c-1.2-2.4-2.3-4.6-3.4-6.8c-13.4,2.6-26.3,5.3-39.3,7.7
		C4274.4,1108.9,4274.4,1108.7,4272.7,1099.1z"/>
	<path onclick="modals(this.id);" id="2188" class="st0" d="M4428.6,1172.8c0.6-4.7,1-8.2,1.6-12.7c11,1.3,21.4,2.6,32.2,3.9c0,14.9,0,29.4,0,45
		c-6.9-0.4-13.4-0.7-20.5-1.1c-0.7,1.9-1.5,4.1-1.9,5.4c-9.2-7.7-18.7-15.8-28.2-23.8C4416.8,1181.4,4419.1,1173.6,4428.6,1172.8z"
		/>
	<path onclick="modals(this.id);" id="2836" class="st0" d="M4512.9,1423.7c-0.9-7.1,0.8-11.1,4.7-13.6c3.9-2.7,5.5-5.9,6-10.7c0.5-4.8,2.8-9.4,4.6-15.3
		c-3.7-3.9-7.9-8.4-12.8-13.6c3.8-7.3,7.7-14.5,11.5-21.8c5.5-10.6,10.8-21.3,16.5-31.9c2.3-4.3,5.1-8.4,11.9-10.3
		c-6.4,38.6-17.1,75.1-24,112.3C4525,1419.8,4518.2,1414.2,4512.9,1423.7z"/>
	<path onclick="modals(this.id);" id="2172" class="st0" d="M4388.6,1160.8c-25.6-2.5-50.2-4.9-75.8-7.4c1.5-7,2.8-13.3,4-19.4c12-3.8,59.1,1.8,73.9,6.1
		C4390,1147,4389.3,1153.9,4388.6,1160.8z"/>
	<path onclick="modals(this.id);" id="2138" class="st0" d="M4313.5,1084c-2.8-12.5-5.1-22.8-7.6-34.5c21.4-5.4,42.4-10.8,63.3-16.1
		c3.1,8.7,2.8,9.9-4.6,11.9c-5.7,1.5-11.7,2.3-17.5,3.6c-1.8,0.4-3.5,1.4-5.9,2.4c1.9,7.7,3.7,15,5.7,23.3
		C4336.1,1077.6,4325.4,1080.6,4313.5,1084z"/>
	<path onclick="modals(this.id);" id="2193" class="st0" d="M4443.9,1210.6c9.8,1.6,18.2,2.9,27.4,4.4c-1.3,11.2-2.6,21.8-4,33.5c-3.2-2.3-5.3-3.9-8.5-6.3
		c-4.9,3.7-10,7.6-15.8,12c-4.5-2.9-9.5-6-15.7-9.8c3.8-3.9,6.5-7.8,10.1-10.1c7.1-4.4,8.1-10.6,7.1-17.9
		C4444.4,1215.1,4444.2,1213.9,4443.9,1210.6z"/>
	<path onclick="modals(this.id);" id="2121" class="st0" d="M4369.8,1029.8c-6.4,1.4-12.1,2.7-18.4,4.1c-5.5-16.5-7.9-32.7-11.1-50c6-1.3,11.3-2.5,17.4-3.8
		C4364.3,996.2,4365.7,1012.9,4369.8,1029.8z"/>
	<path onclick="modals(this.id);" id="2171" class="st0" d="M4401.7,1121.2c-2.9,0-5.8,0-9.5,0c-0.5,4.6-1,8.7-1.5,13.3c-24.7-2.2-49.2-4.5-75.3-6.8
		c2.7-1.2,4.2-2.1,5.9-2.5c7.1-1.5,14.3-2.9,21.5-4.3c3-0.6,5.8-0.8,6.6-4.8c0.2-1.3,2.8-2.8,4.4-2.9c4.6-0.4,9.7-1.2,13.8,0.2
		c9.6,3.3,19.5,3.3,29.4,4.1c1.8,0.1,3.6,1.3,5.3,2C4402.2,1120.1,4401.9,1120.6,4401.7,1121.2z"/>
	<path onclick="modals(this.id);" id="1469" class="st0" d="M4092.7,488.3c0.4-1.7,0.1-5.2,1.6-6.2c7.3-4.9,14.2-11,24.2-9.5c6.8,1,13.9,0.5,20.6,1.7
		c5.2,1,9-0.1,12.2-4.1c2.9-3.6,6.1-3.2,9.6,0c-0.7,4-3,6.7-6.6,9c-6.7,4.2-13,9-19.7,13.1c-3.2,1.9-6.3,3.5-11,1.3
		c-5.8-2.7-12.6-3.6-19-4.8C4101.1,488.2,4097.4,488.4,4092.7,488.3z"/>
	<path onclick="modals(this.id);" id="2832" class="st0" d="M4512.9,1504.7c-4.3-4.6-7.6-8.1-11.1-11.8c1.7-3.1,3.1-5.6,4.8-8.5c-8.4-9.5-16.7-18.9-25-28.4
		c-3.1-3.5-6.5-7.1-1-11.6c3.1,3,6.4,5.7,9.2,8.9c5.1,5.8,11.1,7.4,18.6,6.2c10.6-1.6,14.3,2.6,12,12.9
		C4518,1482.8,4515.6,1493.1,4512.9,1504.7z"/>
	<path onclick="modals(this.id);" id="2189" class="st0" d="M4426.6,1154.6c0.1,8.4,0.1,14-7.4,18c-4.7,2.6-7.2,9.2-10.1,13.3c-6.8-6.2-13.4-12.2-19-17.3
		c1.6-6.3,2.9-11.4,4.6-18.1C4404.9,1151.9,4415.4,1153.2,4426.6,1154.6z"/>
	<path onclick="modals(this.id);" id="2833" class="st0" d="M4511.9,1409.9c-2.1,9.2-7.6,18.4-18.2,26.5c7.3,6,13.6,11.3,20.8,17.2c-15.4,4-21.3,1-32.3-15
		c6.3-13.2,12.9-26.8,20.3-42.1C4505.9,1401.2,4508.5,1405,4511.9,1409.9z"/>
	<path onclick="modals(this.id);" id="1428" class="st0" d="M4180.4,391.8c9.9,8,19.1,17.1,15.6,33.8c-5.4,1.6-11.3,3.4-17.1,5.2
		c-12.3-7.7-12.3-7.7-14.9-17.8C4169.3,406.1,4174.4,399.5,4180.4,391.8z"/>
	<path onclick="modals(this.id);" id="1432" class="st0" d="M4204.7,459.3c-8,0-14.7,0-22.1,0c-4.9-7-10.3-14.8-16.5-23.5c3-1.3,6.4-3.7,7.2-3
		c4.5,3.8,8.2,0.3,12.2-0.4c3.5-0.6,7-1.6,11.3-2.6C4199.4,439.5,4201.8,448.7,4204.7,459.3z"/>
	<path onclick="modals(this.id);" id="2831" class="st0" d="M4497.7,1491.9c3.6,7.8,11.8,11.6,13.7,19.5c-0.7,0.5-1.3,1-2,1.6
		c-13.6-14.6-27.2-29.2-41.4-44.5c1.9-4.4,3.9-8.7,6.6-14.7c4,4.4,7.3,7.8,10.5,11.3c3.8,4.2,7.3,8.6,11.2,12.7
		C4502.3,1484,4502.4,1484,4497.7,1491.9z"/>
	<path onclick="modals(this.id);" id="2117" class="st0" d="M4333.5,913.6c-3.2,0.6-5.4,0.9-8.2,1.4c-1.1-2.5-2.1-4.9-3.5-8.1c-12.3,0-25.1,0-38.6,0
		c0.8-5.8,1.4-10.6,2.2-16.3c15.3,1.8,29.7,4.9,43.3,11.2C4333.1,903.9,4332,909.2,4333.5,913.6z"/>
	<path onclick="modals(this.id);" id="2173" class="st0" d="M4429.2,1132c-1.1,7.5-2,12.9-2.9,18.9c-10.6-1.4-20.6-2.7-31.1-4c0-5.8,0-11.3,0-17.8
		C4406.5,1128.2,4417.1,1132.1,4429.2,1132z"/>
	<path onclick="modals(this.id);" id="2190" class="st0" d="M4419.7,1200.8c-4,7.7-10.9,8.5-17.5,12.3c-0.2-9.4-5-11.8-12.8-11.5c-2.6,0.1-8,1.8-8.4-5.1
		c2.8-0.7,5.8-1.5,8.5-2.2c1.1-5.4,2.1-10.3,3.4-16.7C4402.9,1186.2,4411.3,1193.5,4419.7,1200.8z"/>
	<path onclick="modals(this.id);" id="2137" class="st0" d="M4375.1,1032.1c6.2-1,11-1.8,16.8-2.7c2,8.8,3.8,17.4,5.9,26.9c-7.1,1.5-13.2,2.9-19.7,4.3
		C4372.5,1051.6,4375.9,1042,4375.1,1032.1z"/>
	<path onclick="modals(this.id);" id="1434" class="st0" d="M4181.5,464.1c-5.7,2.7-9.5,4.6-13.3,6.4c-9.2-4.2-14.1-11.5-15.9-22.4c3-2.4,6.7-5.5,11.2-9.2
		C4169.7,447.5,4175.2,455.3,4181.5,464.1z"/>
	<path onclick="modals(this.id);" id="2141" class="st0" d="M4384.9,1062.9c4-0.9,8.4-1.9,13.7-3.1c1.9,8.6,3.7,16.8,5.7,26c-7,1.8-13.3,3.3-20.2,5
		c-1-3.4-2.1-6.5-2.8-9.6c-0.3-1.2-0.3-3.5,0.2-3.7C4389.1,1074.3,4383.4,1068.2,4384.9,1062.9z"/>
	<path onclick="modals(this.id);" id="1427" class="st0" d="M4137.1,382.3c1.3-2.4,2.9-5.2,5-9c3.6,2.6,6.6,5,9.9,7.1c7.2,4.6,14.5,8.9,22.4,13.8
		c-3.4,4.4-6.5,8.5-9.7,12.7C4155.6,398.8,4146.9,391,4137.1,382.3z"/>
	<path onclick="modals(this.id);" id="1431" class="st0" d="M4149.1,445.7c-3.7-5-6.6-9-10.2-13.8c6.8-5.6,13.3-10.9,20.2-16.6c3.3,4.9,6.3,9.4,9.7,14.5
		C4162.3,435.1,4155.8,440.3,4149.1,445.7z"/>
	<path onclick="modals(this.id);" id="2114" class="st0" d="M4352.7,899.3c4.1,1.3,6.7,2.1,10.4,3.2c1.6,7.9,3.3,16.6,5,25.1c-4.1,3.2-7.3,5.8-11.9,9.4
		c-2.6-10.5-5.2-19.5-6.8-28.8C4348.8,905.6,4351.4,902.4,4352.7,899.3z"/>
	<path onclick="modals(this.id);" id="1470" class="st0" d="M4112.1,468.6c3.2-2.4,5.2-3.9,6.9-5c1.6-3.8-5.7-7.9,2.1-10.6c2.9,3.9,5.9,8,9.3,12.5
		c6-4.7,11.7-9.2,18.4-14.4c1.5,4.7,2.7,8.5,3.8,11.9c-4.7,10.2-13.6,8.3-21.6,8.1C4125.1,470.7,4119.2,469.5,4112.1,468.6z"/>
	<path onclick="modals(this.id);" id="2136" class="st0" d="M4368.2,1005.9c6.5-1.3,11.8-2.4,17.5-3.6c1.9,8.1,3.5,15.1,5.4,23.2
		c-5.9,1.1-11.2,2.1-17.5,3.3C4371.8,1021,4370.1,1013.8,4368.2,1005.9z"/>
	<path onclick="modals(this.id);" id="2122" class="st0" d="M4384.9,998c-5.9,1.4-11,2.7-16.9,4.1c-2-7.7-3.8-14.6-5.9-22.5c6-1.6,11.5-3.2,17.6-4.8
		C4381.5,982.5,4383,989.5,4384.9,998z"/>
	<path onclick="modals(this.id);" id="2113" class="st0" d="M4378.8,970.9c-3.4,1-5.9,1.8-8.4,2.5c-0.8-1.1-1.6-1.8-1.8-2.6c-2.1-8.3-4.2-16.6-6.2-25
		c-2-8.1-1.9-8.1,7.2-13.3C4372.6,945.2,4375.6,957.5,4378.8,970.9z"/>
	<path onclick="modals(this.id);" id="1433" class="st0" d="M4131,460.6c-4.6-6.9-8.5-12.8-12.9-19.3c6.3-2.7,11.6-5,17.6-7.5c3.4,4.6,6.8,9.2,10.5,14.3
		C4141.3,452.2,4136.8,455.9,4131,460.6z"/>
	<path onclick="modals(this.id);" id="2139" class="st0" d="M4344.5,1053.4c9.1-2,17.3-3.8,25.8-5.7c1.1,4.4,2.2,8.8,3.5,14.1c-8.3,2-15.9,3.8-24.4,5.8
		C4347.8,1063,4346.4,1058.8,4344.5,1053.4z"/>
	<path onclick="modals(this.id);" id="2115" class="st0" d="M4365.9,974.6c-5,0.9-8.2,1.4-12,2.1c-0.4-2.3-1.4-4.3-1-6c0.8-4.5,0.9-7.8-3.3-11.3
		c-2.4-2.1-2.2-7.2-3.2-10.9c3.8-2.5,6.8-4.5,11.2-7.4C4360.3,952.4,4363,963,4365.9,974.6z"/>
	<path onclick="modals(this.id);" id="2116" class="st0" d="M4334.8,905c6.9,0,10.7,1.9,11.9,7.9c1.8,8.7,3.9,17.3,6.1,26.6c-2.2,1.5-4.6,3.1-8.2,5.6
		C4341.3,931.4,4338.2,918.8,4334.8,905z"/>
	<path onclick="modals(this.id);" id="2837" class="st0" d="M4504,1393.6c3.4-6.6,6.3-12.5,9.8-19.4c3.6,4.2,6.6,7.6,10,11.5c-1.6,5.9-3.4,12.5-5.3,19.5
		C4511.8,1403.7,4509.4,1397.8,4504,1393.6z"/>
	<path onclick="modals(this.id);" id="3117" class="st0" d="M4538.6,1259.2c2.3-3.3,4-5.6,5.3-7.5c7.1,2.9,13.7,5.6,21.4,8.8c-0.8,4.4-1.6,9-2.5,14.3
		c-4.9-1.1-9-2-13.4-3c0-3.3,0-6.1,0-9.5C4546.2,1261.4,4543.2,1260.5,4538.6,1259.2z"/>
	<path onclick="modals(this.id);" id="3115" class="st0" d="M4498.9,1248c-5.5,6.1-11.2-1.9-16.6,0.3c-3,2.2-6.1,4.5-10.7,7.9c0-6.9,0-11.8,0-17.5
		C4482.1,1239.4,4492.8,1236.3,4498.9,1248z"/>
	<path onclick="modals(this.id);" id="3111" class="st0" d="M4549.5,1249.6c-5.1-5.8-9.1-10.4-13.9-15.8c4.3-3.8,8.2-7.3,11.9-10.6c6.6,3.8,8.7,8,5.6,14.4
		C4551.5,1240.7,4551,1244.3,4549.5,1249.6z"/>
	<path onclick="modals(this.id);" id="3113" class="st0" d="M4552.3,1251.7c2.2-6.8,3.8-12,5.6-17.4c2.3,0.4,3.9,0.5,5.6,0.9c6.1,1.3,7.2,3.2,5.8,9.6
		c-0.8,3.5-1.8,7-2.9,11.3C4561.6,1254.6,4557.4,1253.3,4552.3,1251.7z"/>
	<path onclick="modals(this.id);" id="3118" class="st0" d="M4503,1253.4c-0.1,2.5-0.2,4.7-0.3,7.3c-3.3,0.4-6.1,0.7-9.1,1.1c-1.6,2.9-3.2,5.8-5.4,9.8
		c-4.2-4.8-7.8-8.9-11.3-12.8c2.9-5.3,6.4-7.1,11.8-6.1C4493,1253.4,4497.4,1253.2,4503,1253.4z"/>
	<path onclick="modals(this.id);" id="2194" class="st0" d="M4471.1,1258.2c-2.9,3-5.6,5.8-8.7,9.1c-5.5-3.6-10.6-7-16.6-10.9c4.7-4,8.4-7.1,12.4-10.6
		C4462.7,1250.2,4466.7,1254,4471.1,1258.2z"/>
	<path onclick="modals(this.id);" id="2834" class="st0" d="M4499.3,1435c3.8-3.2,6.4-5.4,9.4-7.9c1.4,1.1,3.3,2,3.2,2.6c-1.3,7.8,4.8,11.4,9.2,15.8
		c2.9,3,5.6,5.8,1.6,10.8C4513.8,1451.2,4508,1442.6,4499.3,1435z"/>
	<path onclick="modals(this.id);" id="3110" class="st0" d="M4472.9,1233.7c0.7-5.9,1.3-11.7,2.2-19c2.8,1.8,5.9,3,5.8,4c-0.6,8.6,4.7,10.5,11.6,11.1
		c0.5,0,1,0.8,1.9,1.5c-0.5,1-0.8,2.8-1.5,3C4486.5,1236.1,4480.1,1235.9,4472.9,1233.7z"/>
	<path onclick="modals(this.id);" id="2835" class="st0" d="M4526.1,1445c-3.6-3.4-6.4-6-8-7.5c0-5.5,0-9.5,0-14.6c1.5,0,3.9-0.1,6.3,0
		c4.7,0.4,6.7,2.4,5.9,6.7C4529.3,1434.5,4527.7,1439.1,4526.1,1445z"/>
	<path onclick="modals(this.id);" id="3114" class="st0" d="M4523,1244.3c3.5-3.3,6.3-5.9,9.6-9c3.2,4,6,7.6,9.3,11.8c-1.9,3.1-3.9,6.4-6.5,10.7
		C4530.9,1253,4527.3,1249,4523,1244.3z"/>
	<path onclick="modals(this.id);" id="3112" class="st0" d="M4503.8,1248c-2.5-5.4-9.4-8.9-5.5-16c4.7-0.3,9.4-0.6,14.6-1
		C4512.9,1238.5,4512.8,1245.3,4503.8,1248z"/>
	<path onclick="modals(this.id);" id="3119" class="st0" d="M4542.3,1270.3c-11.8-2.6-23.6-5.3-37.6-8.4c3.2-1.8,4.5-3.2,5.6-3.1c10.4,1.8,20.8,3.7,31.2,6
		c1.3,0.3,2,2.9,3,4.4C4543.7,1269.6,4543,1270,4542.3,1270.3z"/>
	<path onclick="modals(this.id);" id="2170" class="st0" d="M4406.4,1126.3c0.3-3,0.6-4.9,0.9-7.8c6.5,0.8,12.7,1.2,18.7,2.5c1.6,0.4,2.5,3.7,5.1,7.8
		C4421.4,1127.8,4414.4,1127.1,4406.4,1126.3z"/>
	<path onclick="modals(this.id);" id="3116" class="st0" d="M4507.8,1252.6c7.4-10.5,10.9-9.8,20.7,4.4C4520.9,1255.4,4514.6,1254.1,4507.8,1252.6z"/>
</g>
</svg>
