<?xml version="1.0" encoding="utf-8"?>
<!-- Generator: Adobe Illustrator 19.0.0, SVG Export Plug-In . SVG Version: 6.00 Build 0)  -->
<svg version="1.1" id="Layer_1" xmlns="http://www.w3.org/2000/svg" xmlns:xlink="http://www.w3.org/1999/xlink" x="0px" y="0px"
	 viewBox="0 0 16383 10000" style="enable-background:new 0 0 16383 10000;" xml:space="preserve">
<style type="text/css">
	.st0{fill:#FFFFFF;}
</style>
<g>
	<path onclick="modals(this.id);"  id="1683" class="st0" d="M8575.8,5922.2c-23.5,25.1-30.8,30.3-68.1,49c-3.5-3.1-7.8-6.2-11.2-10.1
		c-13-15.1-26-30.4-38.6-45.9c-11.8-14.6-25-27.6-39.7-39.3c-42.8-34-85.4-68.2-128.1-102.3c-48-38.2-95.9-76.4-144.1-114.3
		c-11.5-9.1-23.5-17.5-35.5-25.9c-233.6-163.5-467.3-327-701-490.5c-78.6-55-157.2-110.1-235.7-165.2c-8.7-6.1-17.1-12.7-25.6-19.1
		c-2.7-2.1-3.6-8.5-1.5-10.8c4.5-4.9,8.9-9.9,13.7-14.4c119-110.8,238-221.6,357.2-332.2c29.3-27.2,58.7-54.4,89.3-80.1
		c39.8-33.4,80.3-65.9,116.7-103.2c7.4-7.6,16.6-13.3,24.9-20c24.5-19.8,51.8-32.1,84-32.8c9.1-0.2,18.1-3.6,27.2-5.6
		c6.5-1.4,12.9-3.5,19.5-4c18.3-1.4,34.9,8.1,42.1,24.5c3.7,8.5,5.9,17.6,8.5,26.6c2.6,8.9,4.8,18,7.5,26.9
		c7.4,24.2,23,41.6,44.4,54.4c12.6,7.6,25.8,13.9,40.3,16.9c5,1,11.4-1.5,13.6-6c2.4-4.7,4.8-9.5,6.7-14.4
		c10.6-27.3,20.8-54.8,31.7-82c8.4-21,17-42,26.7-62.4c25.8-54.1,64.1-98.2,112.2-133c60.5-43.7,122.6-85.1,183.9-127.7
		c18-12.5,37.7-19.5,59.8-19.4c33.3,0.1,66.6,0,99.9,0.2c32,0.2,64,0.5,95.9,0.9c9.3,0.1,19.3-1.2,27.8,1.5c21.3,6.8,42,4,63.1,0.6
		c21-3.4,42.3-5.6,63.4-8.6c11.3-1.6,21.1,0.2,28.6,9.7c20,25.4,45.4,44.9,71.4,63.6c6.5,4.7,12.6,9.8,19.1,14.5
		c117,84,228.2,175.4,341.7,263.9c15.7,12.3,30,26.3,45.2,39.3c13.1,11.3,26,23,39.9,33.1c50.9,36.7,98.6,77.2,146.4,117.7
		c16.2,13.8,32.9,27.1,49.8,40c29.7,22.6,59.9,44.5,89.5,67.2c51.9,39.6,103.3,79.9,155.4,119.3c80.8,61.2,158.7,125.9,234.8,192.8
		c4,3.5,7.5,7.5,11.2,11.3c1.9,2,1.7,8.9-0.5,11.1c-17.9,17.9-34.9,36.9-53.9,53.5c-26.1,22.7-54.2,43-81.8,62
		c-8.6,0-13.7-4.1-18.9-8.4c-6.1-5.1-12.2-10.4-18.5-15.3c-8-6.2-16.6-6.6-25.9-0.4c-14.4,9.7-28.6,19.5-45.3,25.2
		c-7.6,2.6-15,5.4-22.7,7.7c-14.5,4.2-28.8,5.1-42.4-3.6c-3.3-2.2-7.1-3.7-10.8-5.3c-4.5-1.9-11.8,0-14.3,3.8
		c-2.9,4.4-5.9,8.8-8.4,13.5c-10.4,20.1-21.1,40.1-30.8,60.5c-5.7,12.1-15.2,17.8-27.4,20.8c-15.7,3.9-31.6,5.1-47.6,3.5
		c-11.1-1.1-21.1,1.6-30.4,7.4c-21.6,13.4-44.1,24.9-68.1,33.3c-10.5,3.7-19,10-23,20.7c-3.5,9.4-9.9,15-19.1,18.8
		c-12.2,5.1-25.3,9-34.2,19.9c-2.5,3.1-5.1,6.1-7.5,9.3c-3.2,4.2-3.4,10.9-0.3,14.9c4.1,5.2,8.1,10.6,12.7,15.4
		c13.6,14.6,27.3,29.3,41.4,43.4c53.7,54,101.7,112.7,148.9,172.4c6,7.6,11.1,14.6,7.9,25.1c-1.6,5.2,1,10.4,4.5,14.7
		c10.1,12.3,20.3,24.7,31,37.7c-1.5,14.2-2.9,28.6-4.5,43.1c-1.6,14.6-2.8,29.2-4.9,43.7c-2.9,20-3.2,39.7,0.8,59.6
		c3.4,16.9,6.4,34,3.9,51.4c-0.3,1.8-3.8,4.6-5.3,4.3c-10.4-2.1-20.7-4.5-30.9-7.4c-14.1-4-28-8.6-42-12.6
		c-6.3-1.8-14.3,2.5-16.1,8.5c-5.5,17.8-11.1,35.6-15.9,53.6c-1.3,4.8-1.5,11.3,0.8,15.4c5.1,9.1,4.8,17.5,1.7,26.8
		c-3,8.8-5.4,17.9-7.4,27c-1.1,5.1-2.1,10.7-1,15.6c1.9,8.1,1.2,15.5-0.9,23.5c-8.1,30.9-15.5,62-23.2,93
		c-1.7,6.8-8.4,10.2-15.4,7.6c-6.3-2.3-12.4-4.7-18.6-7.2c-22.3-8.9-44.7-17.5-66.8-26.7c-87.4-36.2-176.1-68.9-264.5-102.5
		c-127-48.3-253.4-97.9-380.1-147c-60.8-23.6-121.6-47.4-182.4-71.2c-33.1-13-33.6-12.6-60,11.1c-6,5.3-11.8,10.8-17.5,16.4
		c-4.9,4.8-5.3,12.5-0.5,18c20.8,24.3,41.8,48.4,62.7,72.6C8570.9,5910.1,8575.8,5914.9,8575.8,5922.2z"/>
	<path onclick="modals(this.id);"  id="1642" class="st0" d="M7124.9,4939.1c-9.8-1.8-15.7-7.5-22.1-12.2c-116.5-84.6-232.1-170.4-343.4-261.9
		c-28.1-23.1-52.7-48.8-73.4-78.6c-6.1-8.7-12.1-17.6-19.3-25.5c-64.7-71.2-122.1-148.1-180-224.6c-52.3-69.1-104.8-138-157.1-207.1
		c-7.2-9.5-14-19.4-20.2-28c-0.1-7.5,3.5-11.4,7.1-15.1c63.1-65,125-131.4,192.3-192.2c7.9-7.1,16.5-13.4,24.8-20.1
		c15.7-12.7,31.6-24.6,53.2-24.5c2.6,0,5.2-1.2,7.7-2.1c10.9-3.6,23-15.9,16.6-31.2c-5.2-12.3-10.1-24.6-15.4-36.9
		c-6.3-14.8-10.2-29.9-11.8-46.2c-3.2-33.1-5.5-66.4-13.4-99c-5.7-23.3-9.2-47.2-16.3-70c-9.7-31.3-11.4-62.9-7.2-94.9
		c3.4-26.4,8.4-52.6,12.9-78.9c0.9-5.1,2.7-10.1,4.2-15.7c4.7,0.3,8.8-0.3,12.1,1c11.1,4.4,21.9,9.7,32.9,14.4
		c6.1,2.6,14.3-0.8,16.8-6.7c19.3-46.9,37.3-94,39.9-145.6c1.2-23.9,5-47.7,8.1-71.5c1-7.8,3-15.8,6-23
		c11.8-28.3,23.1-56.8,36.7-84.2c7-14.1,17.9-26.4,27.6-39.1c25.9-33.8,24.5-34.3-7-59.6c-37.3-30.1-73.8-61.3-110.5-92.1
		c-4.3-3.6-3.8-10.9,0.8-13.8c10.1-6.4,20.5-12.4,30.7-18.6c14.4-8.6,28.9-11.7,45.6-4.7c17.4,7.2,36.1,9.1,55,7.4
		c8.1-0.7,15.7,1.4,23,5.2c11.8,6.2,24.5,10.9,35.8,17.8c15.6,9.6,32,12.2,49.8,10.5c10.6-1,21.3-0.7,32-1.4
		c14.2-0.9,26.8,6,32.9,23.7c3,8.8,4.2,18.1,6.4,27.2c1.6,6.5,7,11.2,14.3,11.9c21.2,2.3,42.4,4.6,63.6,6.5
		c41.2,3.7,82.3,7,123.5,10.7c39.8,3.6,79.6,7.5,119.4,11.3c6.6,0.6,13.3,2,19.9,1.6c5.1-0.3,11.9-1.4,14.6-4.7
		c9-11,20.3-11.2,32.5-10.2c6.6,0.6,13.3,1.2,20,1c35.5-1,68.3,9.5,100.7,22.2c8.8,3.4,12.2,9.3,10,18.8
		c-6.4,27.2-13.3,54.3-19.7,81.6c-1.8,7.7-2.9,15.7-3.9,23.6c-0.6,4.9,3.6,11,8.2,12.5c7.6,2.5,15.1,5.6,22.9,7.1
		c20.2,3.8,36.9,13.8,53.4,25.7c43.4,31,84.3,65.3,125.8,98.8c8.3,6.7,16.6,13.4,24.7,20.3c8.2,7,17.1,12.9,28,14.5
		c14.8,2.2,27.8,8.9,41.2,14.9c28,12.5,55.8,25.3,83.8,37.7c13.2,5.8,17.3,4.3,27.5-7.3c9.7-11,19.2-22.2,29.7-32.3
		c21.5-20.8,46.8-34.4,76.3-41.2c26.2-6.1,52.1-10.6,79.1-8.7c11.9,0.8,24-0.5,35.9-1.9c7.8-0.9,16.2-2.3,23.1-5.8
		c32.1-16.3,65.3-30.2,98.5-44c8.2-3.4,12.3-9.9,12.7-18.6c1.2-28,2.2-55.9,3.4-83.9c0.2-5.3,1-10.6,1.6-15.9c0.4-3.5,4.7-7.5,8-7.6
		c4-0.1,8-0.5,12-0.3c25.3,1.3,50.6,2.5,75.9,4.3c33.4,2.3,66.6,3,99.1-7.3c2.4-0.8,5.4-0.7,7.8,0.1c2.3,0.7,4.9,2.4,6.2,4.3
		c2.1,3.3,4.3,7.2,4.5,10.9c0.9,20.4,8.5,38.8,16.4,57.2c8.9,20.8,17.5,41.8,19.3,64.9c0.6,7.8,4.3,15.4,5.8,23.2
		c1.8,9.1,4.3,18.5,3.7,27.5c-1.2,16.6,3.1,31.7,8.8,46.7c8,21.3,15,42.7,14.5,65.9c-0.1,5.1,2,10.4,3.4,15.5
		c6.6,23,13.3,46,19.9,69.1c1.1,3.8,2.8,7.7,3,11.6c2,33.7,15.4,64.7,23.3,96.9c5.4,22,13,43.4,12.5,66.5
		c-0.1,6.5,1.6,13.4,3.9,19.5c9.6,25.1,13.9,51.5,18.8,77.6c9.1,48.3,31.4,90.3,58.3,130.3c17.8,26.6,36.7,52.4,54.3,79.1
		c10.3,15.7,21.8,30,35.3,43.2c22.9,22.3,46.4,44,71.3,64.1c0.8,0.7,1.5,2.8,1,3.7c-1,2.1-2.3,4.4-4.1,5.7c-2.1,1.4-4.9,2.2-7.5,2.6
		c-22.4,3.2-44.8,6.7-67.3,9.2c-6.4,0.7-13.1-1.1-19.7-1.8c-10.5-1.2-21.1-3.3-31.6-3.4c-58.7-0.8-117.3-1.1-176-1.5
		c-14.7-0.1-29.3,0.7-44,0.5c-20.8-0.2-39.5,6.4-56.3,17.8c-65.1,44.1-131.5,86.4-193.8,134.5c-50.3,38.8-90.7,86.1-115.5,145.4
		c-11.3,27-22,54.3-32.8,81.6c-5.4,13.6-10.5,27.4-15.9,41c-8.6,21.7-12.4,22.8-31.7,13.2c-28.1-14.1-45.2-36.5-53.2-66.4
		c-3.1-11.6-5.6-23.3-8.9-34.8c-3.4-11.9-10.2-21.7-20.7-28.5c-4.4-2.8-9.3-5.9-14.3-6.6c-17.2-2.4-34.8-4.4-51.3,2.2
		c-10.2,4.1-20.6,5.3-31.2,5.9c-28.8,1.7-54.2,12.2-77.4,29.2c-22.7,16.6-43.5,35.2-63,55.4c-15.8,16.3-33,31-51.1,44.7
		c-14.8,11.3-29.2,23.3-42.9,35.9c-88.4,81.2-176.6,162.5-264.7,244c-58.7,54.3-117.2,108.9-175.9,163.3
		C7139.1,4929.4,7133,4936.7,7124.9,4939.1z"/>
	<path onclick="modals(this.id);"  id="1706" class="st0" d="M9574.1,5890.2c18.8,1,35.5,10.1,53.5,14.2c9.1,2.1,18,4.8,27.1,6.6c9,1.8,16.2-4.6,15-13.4
		c-2.7-21.1-5.3-42.3-8.7-63.3c-2.8-17.3-3.8-34.4-1.6-51.7c3.6-27.7,7.1-55.5,11.3-83.1c1.7-11.4-0.8-21-8.3-29.6
		c-5.3-6-10.7-11.9-15.3-18.4c-2.2-3-4.2-7.8-3.4-11c3.1-12.1-2.7-20.3-9.6-28.8c-27.8-34.1-54.9-68.7-83.1-102.4
		c-16.2-19.4-34-37.5-51.3-56c-22.7-24.4-45.6-48.6-68.2-73c-4.9-5.2-3.7-13.8,2.6-17.1c10.5-5.6,21.4-10.5,32.1-15.9
		c7.3-3.7,13.5-8.2,16-16.7c3.3-11.2,11.5-17,22.2-21c13.7-5.1,27.9-10,40.1-17.7c23.1-14.7,46.8-25.1,74.9-20.8
		c15.6-3.2,31.2-6.3,47.6-9.6c5-8.2,10.2-15.8,14.5-23.9c9.4-17.6,18.2-35.6,27.5-53.3c4-7.6,9.4-11,15.9-8.3
		c25.6,10.5,50.2,3.6,73.9-5.2c18.6-6.9,35.9-17,54.7-26.2c13.3,5.2,22.3,17.4,34.3,25.5c7.2,4.9,15.4,5.8,22.3,0.7
		c38.4-28.6,78.9-54.7,111.9-90c10-10.7,20.9-20.6,31.5-30.7c4.3-4.1,10.1-4.6,14.6-1.2c25.4,19.4,50.9,38.7,76,58.6
		c6.2,4.9,11.2,11.4,16.5,17.3c11.4,13,22.7,26.2,34,39.3c33.4,38.6,33.8,38.4,54.1,83.1c12.1,26.7,23,53.9,34.1,81
		c35.8,87.6,66.2,177.1,95.2,267.1c12.2,38.1,26.1,75.4,43.6,111.5c8.7,17.9,16,36.6,22.5,55.5c21,61.8,45.4,122.3,68.4,183.4
		c32.8,87.2,64.5,174.9,96.1,262.6c19.8,55.1,39.2,110.4,62.6,164.2c3.2,7.3,5.6,14.9,7.6,22.6c0.5,2-1.1,5.8-2.9,6.9
		c-8.9,5.8-18.2,10.9-27.3,16.3c-20.6,12.3-41.1,24.6-61.6,37c-7.2,4.3-11.5,11-13.9,18.9c-3.5,11.4-6.8,23-10.1,34.5
		c-19.4,67.9-38.7,135.7-58,203.6c-2.6,9-5.4,17.9-7.9,26.8c-2.7,9.7-8.3,16.2-18.1,19.5c-22.7,7.6-45.3,15.6-68,23.5
		c-10.1,3.5-20.1,7.1-30.3,10.2c-13.9,4.2-21.9,12.7-25.9,27.1c-29.1,105.2-59,210.3-88.1,315.5c-29.5,106.5-58.5,213.2-87.7,319.7
		c-2.1,7.7-4.5,15.3-7.1,22.8c-1.9,5.5-6.6,8.4-12.1,8.4c-18.9-0.1-37.1-3.7-54.7-10.2c-7.5-2.8-14.8-6.1-22.2-9.1
		c-108.5-44.4-216.9-88.8-325.4-133c-76.4-31.2-153-62.1-229.5-93.2c-13.5-5.5-26.8-11.8-40.1-18c-5-2.3-7.6-8.3-6.3-13.4
		c0.3-1.3,0.5-2.7,0.9-3.9c19.1-48.7,27.3-100.1,38.8-150.7c14.5-63.6,28.1-127.4,42.7-191c2.8-12.1,0-20.6-9.4-28
		c-69.5-54.7-128.7-119.8-186.4-186.2c-64.7-74.5-134.1-144.5-203.1-215c-3.7-3.8-7.9-7.3-10.8-11.7c-2.1-3.1-3.6-7.5-3.2-11.1
		c0.9-7.9,2.8-15.7,5-23.4c27.3-98.8,54.6-197.6,82-296.4c2.1-7.6,4.8-15.1,7.9-22.4c0.8-1.8,4.6-3.8,6.4-3.3
		c8.9,2.4,17.8,5.2,26.4,8.6c61.9,24.5,123.7,49.3,185.6,73.9c14.8,5.9,29.8,11.4,44.8,17c5,1.9,12.3-1.6,12.8-6
		c4.1-40,16.9-78,27.3-116.5c2.8-10.4,4.7-20.4,3.8-31.4c-0.7-9,1.1-18.5,3.4-27.5c3.9-15.3,11.7-30.3,1.4-45.9
		C9560.3,5920.9,9559.7,5903,9574.1,5890.2z"/>
	<path onclick="modals(this.id);"  id="1772" class="st0" d="M7768.4,7648.3c-12.1-37.1-23.5-72.6-35.3-108c-26.9-80.9-52.1-162.3-76.7-243.9
		c-4.7-15.5-7.3-30.8-7.6-47c-1.3-79.9-3.3-159.8-4.7-239.8c-0.3-15.9-2.3-32,4-47.4c1.3-3.2,7.3-5.7,9.9-3.6
		c5.1,4.3,10.4,8.4,15.1,13c28.8,27.7,57.5,55.6,86.3,83.3c97.9,94.3,195.9,188.5,293.8,282.7c1,0.9,2,1.8,2.9,2.8
		c14.7,16.1,32.7,26.4,53.1,34c57.4,21.3,114.6,43.3,171.6,65.8c144.9,57.2,289.6,114.9,434.5,172.2c16.2,6.4,31.6,14,46.1,23.6
		c7.8,5.1,15.6,10.2,23.7,14.9c91,53.3,175.8,115.7,259.2,179.9c70.8,54.4,142,108.3,213.3,161.9c20.2,15.2,41,29.7,62.4,43.2
		c66.5,42,133.3,83.3,197.4,129c9.8,7,20,13.2,30.2,19.5c33,20.3,64.6,42.2,92.4,69.5c10.4,10.2,22.8,18.4,34.6,27
		c61.5,44.5,123.2,88.9,184.8,133.3c9.7,7,19.2,14.3,28.7,21.7c4.5,3.5,6.3,8.8,5,14.2c-3.8,15.5-7.7,31-12,46.4
		c-35,125.7-70,251.4-105,377.1c-5.7,20.5-12.5,40.6-21.8,59.9c-11.6,24-22.1,48.5-33.3,72.7c-2.8,6-6,11.9-9.2,17.7
		c-2.1,3.9-10,5.6-14.4,3.5c-17.5-8.5-30.2-20.8-36.4-40.1c-8.1-25.4-18.2-50.1-26.3-75.4c-4.9-15.3-14.6-25.1-28.5-31.5
		c-14.5-6.7-29.1-13.1-43.9-19.2c-13.2-5.4-20-2.7-25.8,9.6c-7.9,16.9-15.4,34-23.2,50.9c-3.5,7.5-9.1,10.6-15.7,8.7
		c-25.6-7.2-51.2-14.6-76.8-22c-7.2-2.1-10.5-7.4-11.8-14.5c-1.1-5.7-5-9.1-10-11.5c-1.2-0.6-2.3-1.4-3.6-1.8
		c-51.4-15.3-98.3-40.8-146.5-63.3c-7.2-3.4-14.4-7-21.7-10.1c-9.1-3.9-18-4.6-26.1,2.6c-4.5,4-9.9,3.6-15.1,2
		c-19.2-5.7-38.3-11.5-57.3-17.4c-8.9-2.7-17.9-5.3-26.6-8.5c-4.9-1.8-9.3-4.7-13.4-6.7c-2.4-15,5.3-27.1,6.2-39.3
		c-2.8-7.7-8.1-11.2-14.7-13.4c-41.7-14-83.3-28-124.9-42.1c-56.8-19.2-113.5-38.5-170.3-57.6c-7.5-2.5-15.3-4.1-23.1-5.7
		c-4.1-0.9-11.9,3.6-13.2,7.3c-3.9,11.3-7.6,22.7-11.5,34.1c-1.6,4.7-8.1,8.2-12.8,7.2c-3.9-0.8-7.9-1.4-11.7-2.6
		c-110.6-34.3-221.3-68.7-331.9-103.1c-5-1.6-10.1-3.7-14.6-6.5c-3.3-2.1-5.6-5.8-4.6-10.2c2.3-10.4,4.8-20.7,7.1-31
		c1.1-4.7-2.3-11.9-6.2-13.6c-2.4-1.1-4.8-2.4-7.3-3.1c-38.2-11.6-76.4-23.2-114.7-34.7c-6.9-2.1-13.2,1.4-16.1,8
		c-0.5,1.2-1.3,2.4-1.7,3.6c-13.1,41.5-10.5,34.8-49.9,22.7c-80.2-24.6-160-50.3-240-75.6c-39.4-12.4-78.7-24.8-118.1-37.1
		c-5-1.6-10.3-3.2-15.5-3.3c-3.6,0-8.6,1.6-10.5,4.3c-4.5,6.5-7.4,14-11.1,21.1c-3.5,6.7-8.6,8.8-16.6,6.3
		c-29.2-9.2-58.4-18.3-87.5-28c-3.1-1-5.4-5.3-7.2-8.6c-1.2-2.2-1.2-5.2-1.2-7.8c0.7-48,4.6-95.7,14-142.9
		c4.2-20.8,7.1-42.1,8.2-63.3c2.4-44.1,11.9-87.1,19.7-130.3c3.3-18.3,7.7-36.5,10.9-54.9c7.9-46,19.8-91.1,30.9-136.3
		c1.6-6.5,3.3-12.9,4.9-19.4c7.3-30.1,10.2-60.2,1.9-90.8c-4.3-15.6-3.1-31.6,2.4-47.2C7762,7674.3,7764.5,7662.5,7768.4,7648.3z"/>
	<path onclick="modals(this.id);"  id="3030" class="st0" d="M9732.7,9034.4c-1.7-8.8,3.3-15.7,6.4-22.7c11.3-25.6,23.2-50.9,34.9-76.3
		c5.6-12.1,9.3-24.7,12.5-37.7c9.6-38.8,21-77.1,31.7-115.6c26.7-96.2,53.5-192.5,80.3-288.7c2.9-10.3,6-20.4,9.2-30.6
		c1.6-5,7.9-6.7,13-3.3c6.7,4.4,13.4,8.8,19.8,13.4c45.4,32.8,90.7,65.7,136,98.5c8.6,6.2,17.3,12.4,26.2,18.3
		c7.9,5.2,16.8,1.5,17.8-7.5c3.5-33.5,14.3-64.6,31.3-95.3c5.9,0.6,12.4,1.4,18.9,2c5.4,0.4,10.6-2.9,12.4-7.7
		c1.4-3.7,2.5-7.6,3.8-11.4c20.6-61.9,41.2-123.8,61.9-185.7c3.4-10.1,6.9-20.1,10.3-30.2c1.9-5.7,6.4-10.2,11.5-9.2
		c14.3,3,24.8-8.5,38.4-8.2c11.8,0.3,23.7-3.1,35.6-4.5c29.1-3.3,58.3-6.4,87.4-9.6c3.9-0.4,7.8-1.3,11.7-2.1
		c4.3-0.9,8.3-7.8,7.2-12.7c-0.8-3.9-1.3-7.9-2.6-11.6c-3.2-8.8-6.6-17.4-10.2-26c-35.3-86.4-63.3-175.3-92-264
		c-16.4-50.7-35.5-100.4-52.9-150.8c-10.9-31.5-20.9-63.2-31.1-94.9c-10-31.1-11.5-62.7-4.1-94.6c5.1-22.1,9.6-44.2,14.6-66.3
		c1.5-6.8,5.8-11.9,12.2-14.8c8.5-3.8,16.9-7.8,25.5-11.5c157.1-66.2,314.2-132.4,471.3-198.5c9.8-4.1,19.7-8.1,29.9-11.3
		c49.5-15.6,99.1-31,148.7-46.4c2.5-0.8,5.2-1.2,7.8-1.8c4.9-1.2,11.8,1.8,13.4,6.2c5.1,15.1,10.2,30.2,14.9,45.5
		c5.8,19.2,13.6,37.3,24.4,54.4c13.5,21.4,25,44,37,66.3c9.6,17.8,15.7,36.6,16.5,57.1c0.9,24.2,5.6,47.4,17.7,69
		c7.9,14.1,10.1,30.4,12.1,46.1c1.6,12.4,6.6,22.5,12.6,33.1c21.7,38.3,40.8,77.9,55.6,119.3c12.1,33.9,18.3,69.5,22.4,105.3
		c1.4,11.9,2.3,23.9,3.2,35.8c1.3,16.5,4.2,30.8,22.4,38.8c12.1,5.3,20,17.5,25.2,30.1c4.9,11.7,13.6,19.4,23.9,26
		c21.3,13.7,42,28.4,63.7,41.4c21,12.6,38.1,28.8,52.2,48.6c6.1,8.7,12.6,17.1,18.3,26c0.9,1.5,0,5.6-1.5,6.9
		c-10.1,9-21.9,15.5-34.8,18.7c-19.6,4.7-37.6,13.3-56.1,20.9c-61.6,25.4-122.9,51.3-184.5,76.5c-18.7,7.6-35.7,17.4-51.7,29.7
		c-59.2,45.5-118.6,90.7-178.2,135.5c-16.2,12.2-29.5,26-40,43.7c-67.2,113.5-135.8,226.2-202.8,339.8
		c-31.9,54.1-56.3,111.7-74.9,171.8c-12.2,39.4-25.1,78.7-36.8,118.2c-6.5,21.9-15.9,42.3-27,62.1c-34.5,61.6-68.2,123.6-103,185.1
		c-14.5,25.7-27.5,51.7-33.9,80.6c-0.9,3.8-2.9,7.3-4.4,11c-1.2,2.8-7.8,4.4-10.5,2.3c-11.7-8.8-24.1-16.9-34.6-26.9
		c-8.8-8.4-18.2-15.5-28.3-22c-75.9-49.5-151.9-98.9-227.6-148.5c-14.6-9.6-30-17.2-46.1-23.8c-62.8-26-125.4-52.3-188.3-78
		c-23.4-9.5-47.4-17.5-72.6-21.3C9754.1,9044.4,9742.5,9041.6,9732.7,9034.4z"/>
	<path onclick="modals(this.id);"  id="1734" class="st0" d="M6495,5521.8c6.1,3.5,13.1,7.4,19.9,11.5c24.2,14.7,50.7,23.5,78,30.1c3.9,0.9,7.8,1.9,11.8,2
		c28,0.9,55.7,3.9,83.2,9.7c7.4,1.5,16.5,0.5,23.4-2.5c18.1-8,35.7-9.2,54.3-2.5c6.4,2.3,13.1-2.4,15.6-9.1c1.4-3.7,3.1-7.4,4-11.3
		c9-37.8,12.5-30.3,40-23.5c16.8,4.1,33.3,9.4,50,13.8c5.1,1.3,10.6,2.3,15.7,1.7c3.5-0.4,7-3.2,9.8-5.7c1.9-1.6,2.9-4.4,3.7-6.9
		c13.4-44.6,26.8-89.3,39.9-134c3-10.1-0.1-16.5-10.2-23.4c-11-7.5-22.1-14.9-33.1-22.4c-4.3-3-4.7-10.5-0.7-13.8
		c10.3-8.4,20.7-16.8,31.1-25c22.9-18.2,45.9-36.3,69.1-54.5c7.4-1.5,12.1,3.7,17.1,7.8c55.5,45.8,111.2,91.4,166.2,137.8
		c85.6,72.1,171.2,144.3,256.1,217.3c53.6,46,105.8,93.6,158.7,140.5c31.9,28.3,63.9,56.5,95.5,85.2
		c66.1,60.1,135.7,116.1,204.7,172.7c15.6,12.8,29.6,26.4,39.2,44.6c15.6,29.7,36,56,58.4,80.8c14.5,16.1,26.1,33.6,32.1,54.6
		c1.5,5.1,3.8,9.9,5.8,14.9c12.1,29.6,23,59.6,27.6,91.6c2.8,19.7,13.1,38.5,10.9,58.6c-2,18.4-8,36.3-12.3,54.5
		c-3.7,15.6-7.3,31.1-11.3,46.6c-1.3,5.1-3.7,9.9-5.8,14.8c-2,4.7-8.5,8.6-12.9,7.3c-24.1-7.5-48.2-15.1-72.2-22.9
		c-7.4-2.4-10-7.4-8.4-15.7c8.4-43.4,5.2-40.9-34.1-48.3c-30.1-5.7-60.2-11.5-90.3-17.1c-17.3-3.2-16.1-8.8-16.1-22.3
		c0-3.9-0.1-8-1.1-11.8c-0.6-2.2-2.7-4.8-4.9-5.7c-4.8-2.1-10-4-15.2-4.7c-18.5-2.5-37-4.6-55.5-6.6c-8.1-0.9-15.4,5-17,13.5
		c-9.1,48.4-19.9,96.5-26.5,145.4c-2.3,17.1-6.2,34.1-9.4,51.1c-0.9,4.5-7.5,8.7-12.1,8.1c-9.2-1-17.5-6.7-27.3-4.8
		c-3.1,0.6-5.2,1.4-5.7,4.6c-0.8,5.2-2.3,10.4-2.1,15.6c1.7,43.9,2.8,87.9,5.8,131.8c4.3,62.7,2.1,125.2-1,187.8
		c-0.3,5.3-1.3,10.5-2,15.8c-0.4,3.1-7,5.6-9.7,3.6c-5.4-3.9-10.8-7.8-16-11.9c-150.5-119.1-301.1-238-451.4-357.4
		c-19-15.1-38.4-28.5-62-35.3c-3.8-1.1-7.5-2.7-11.1-4.6c-32-17.1-66.6-26.3-101.6-35c-86.6-21.4-172.9-44.1-259.4-65.9
		c-14.3-3.6-28.1-8-41.1-14.9c-118-61.8-236.6-122.5-356.1-181.4c-4.8-2.4-9.8-4.6-13.7-8.1c-2.6-2.3-5.2-7.3-4.4-10.2
		c2.5-8.9,6.5-17.4,10-26.1c28.9-70.2,57.1-140.7,87-210.5c13.3-31,21.3-62.8,26.4-95.8c10.7-69.8,21.5-139.6,32.9-209.2
		c5.6-34.2,12.8-68.1,19.4-102C6485.9,5529.2,6488.3,5524.6,6495,5521.8z"/>
	<path onclick="modals(this.id);"  id="1694" class="st0" d="M5805.6,5514.3c0.8-0.8,1.7-2,2.8-2.6c10.5-5.6,22.5-9.5,31.2-17.2c10.2-9,10.6-24,15.1-36.5
		c7.2-20,13.8-40.2,21.9-59.9c10-24.6,17.8-50.3,23.9-76.1c4.3-18.3,9.8-35.9,16.8-53.2c6.5-16.1,12.6-32.3,19.6-48.1
		c6.7-15.2,8.9-30.3,5.1-46.7c-2.4-10.3-2.8-21.1-4-31.6c-0.5-4.9,4.3-10.1,9.7-10.4c30.6-1.5,61.2-2.9,91.8-4.1
		c21.3-0.8,42.6-1.1,63.9-2c3.7-0.2,7.8-0.5,10-5c1.8-3.8,1.3-9.7-3-14.5c-12.4-13.9-25.1-27.6-37.6-41.5
		c-11.6-12.8-23.3-25.7-34.7-38.6c-3.8-4.3-4.8-9.9-2.6-14.9c7.6-17,15.6-33.9,23.6-50.7c11.4-24.1,22.9-48.1,34.3-72.2
		c2.3-4.8,4.3-9.8,6.1-14.7c2.6-6.9,1.4-13.4-3.9-18.3c-8.8-8.2-17.9-15.9-27.1-23.6c-46.9-39.5-93.8-79-140.7-118.5
		c-6.1-5.1-12-10.5-17.7-16.1c-1.8-1.8-3.3-4.6-3.5-7c-1.3-18.7-1.2-37.3,6-55c3.4-8.4,12.7-14.8,22.3-13.8c10.6,1.1,21,3.3,31.5,5
		c6.6,1,13.1,2.5,19.7,2.8c8.4,0.4,15.7-3.1,21.5-9c3.7-3.7,6.8-8.2,9.6-12.7c9.3-14.6,18.4-29.4,27.6-44c5-7.9,9-16.9,15.7-23.1
		c25.1-23.4,37.6-54.6,54.5-83.2c15-25.5,24.3-53.1,30.3-82c8.1-39.1,17.8-77.9,31.2-115.6c5.8-16.4,9-33.2,10-50.7
		c2.2-38.6,5.6-77.1,8.7-115.6c0.5-6.6,0.9-13.4,2.9-19.7c8.5-27.5,9.8-28.3,35.7-18c3.7,1.5,7.2,3.6,11,4.7
		c12.1,3.5,20.9,10.8,28.1,21.1c12.2,17.5,24.9,34.6,37.7,51.6c78.1,103,156.6,205.7,234.5,309c32.2,42.6,67.6,82.5,102,123.2
		c9.4,11.2,18.4,22.8,26.9,34.7c20.1,28.5,43.6,53.6,70.6,75.7c103.1,84.5,209.6,164.7,317.4,243.1c11.9,8.6,23.7,17.3,35.4,26.2
		c10.6,8.1,11,13.1,1.3,22.3c-27.9,26.7-56.2,53-84,79.9c-7.6,7.4-16.1,9-25.7,6.7c-37.6-9-75-18.3-112.6-27.4
		c-9.1-2.2-18.2-4-27.3-6.3c-17.6-4.3-31,3.8-43.3,14.6c-1.7,1.4-2.9,5.3-2.2,7.3c8.3,21.1,18.6,41.1,34.9,57.5
		c9.3,9.3,19.6,17.8,27.6,30.1c-4.2,4.3-7.5,8.3-11.4,11.4c-9.5,7.4-19.4,14.1-28.9,21.5c-6.4,5-11.1,11.6-13.5,19.4
		c-1.1,3.6-1.5,8.7,0.3,11.5c7.1,11.2,14.4,22.4,23.1,32.5c4.1,4.8,10.8,8,16.9,10.1c18.9,6.4,38.1,11.9,57.2,17.7
		c12.7,3.9,25.4,7.6,38,11.9c1,0.3,1.8,5.4,0.7,6.8c-3.1,4.2-6.8,8.2-10.9,11.4c-17.8,14.1-35.8,27.8-53.7,41.7
		c-3.2,2.4-6.2,5-9.2,7.6c-7.5,6.5-7.8,14.8-0.2,20c12.1,8.3,24.4,16.1,36.6,24.4c4.4,3,8.6,6.3,12.3,10c1.7,1.7,2.2,4.7,2.9,7.2
		c0.3,1.2,0,2.6-0.3,3.9c-11.4,38.3-22.8,76.6-34.2,114.9c-0.4,1.3-1.1,2.4-1.6,3.7c-2.1,4.9-7.9,8.4-12.7,7.1
		c-23.1-6.3-46.2-12.8-69.3-19.1c-5.1-1.4-10.4-2-15.7-2.8c-4.2-0.6-11.1,3.9-12.5,8.2c-3.3,10.1-6.4,20.3-9.8,30.4
		c-2.4,7.4-6.7,10.8-15.2,9.4c-16.4-2.7-31.7-0.5-46.8,6.2c-8.7,3.9-18,3.5-27.5,2.1c-17.1-2.5-34.3-5.4-51.5-6.3
		c-39.7-2.1-75.4-15.4-109-35.6c-10.3-6.2-20.1-13.1-30.3-19.4c-4.1-2.5-12.3,0.4-13.5,4.5c-0.4,1.3-1.2,2.4-1.4,3.7
		c-11.5,58.8-23.9,117.5-32.8,176.8c-8.8,58-17.8,115.9-26.8,173.8c-3.3,21.1-9,41.5-17.3,61.3c-30.9,73.7-61.1,147.7-91.6,221.6
		c-3.6,8.6-7.1,17.2-10.9,25.8c-3.2,7.3-9.7,10-16.1,7c-3.6-1.7-7.2-3.5-10.7-5.4c-27-14.5-54.2-28.6-80.8-43.8
		c-121.5-69.3-242.8-139.2-364.3-208.5c-35.9-20.5-72.4-39.7-108.6-59.7c-5.8-3.2-11.2-7-16.3-11.2c-1.6-1.3-2.7-5.2-2-7.1
		c2.3-6.1,5.1-12.2,8.7-17.7c22.1-34.9,43.7-70.2,67.2-104.1c10.8-15.6,13-34.7,24.2-49.7c4.9-22.4,6.9-44.8,1.4-67.3
		c-2.5-10.3-6.4-20.3-9.7-30.4c-4.2-12.8-3.1-16.2,7.6-23.3c12.7-8.4,12.7-8.4,9.5-25C5805.4,5517.1,5805.6,5515.8,5805.6,5514.3z"
		/>
	<path onclick="modals(this.id);"  id="1754" class="st0" d="M7751.5,7648.6c-2.8,9.7-5.2,18.7-7.9,27.6c-1,3.4-7.8,5.2-9.9,2.6
		c-13.6-16.5-28.7-31.4-45.3-44.8c-7.2-5.8-14.8-11.6-23-15.7c-38.1-19-76.5-37.7-117.7-49.6c-62.8-18.1-124-40.5-184.4-65.5
		c-9.8-4.1-20.1-7.2-29.9-11.3c-53.2-21.9-107.9-38.1-164.8-47c-19.8-3.1-38.8-8.7-56.2-19.5c-7.8-4.8-17.1-7.3-26-10.1
		c-63.4-20.5-126.8-40.8-190.2-61.1c-3.8-1.2-7.6-2.6-11.4-3.6c-15.7-4-22.1,0.2-27.1,14.9c-10.7,31.5-21.8,62.9-32.9,94.3
		c-2.2,6.3-4.9,12.4-7.5,18.5c-2.1,4.9-8.3,8.1-13.1,6.3c-15-5.4-30.2-10.6-45-16.6c-10-4.1-20.1-7.1-30.9-7.1
		c-40,0.2-79.9,0.4-119.9,0.8c-7.2,0.1-12.5,5.5-12.9,12.6c-1.3,19.9-2.2,39.8-3.7,59.7c-0.1,1.5-4.7,4.3-5.8,3.7
		c-9.5-4.7-19-9.5-27.9-15.2c-16.8-10.9-34.1-20.3-53.2-27.2c-13.9-5-27.4-9.9-42.2-11.3c-3.8-0.4-7.6-2.2-10.9-4.3
		c-1.9-1.2-3.5-4.1-3.9-6.5c-0.4-2.5,0.5-5.3,1.5-7.8c22.5-58.4,45-116.8,67.8-175.1c3.4-8.6,7.2-12.4,18.9-9.8
		c1.3,0.3,2.6,0.4,3.9,0.7c7.2,1.4,13.7-0.9,17.9-6.4c23.3-30.8,46.3-61.8,69.3-92.9c1.5-2,2.4-4.9,2.6-7.4c0.2-2.5-0.2-5.8-1.7-7.3
		c-4.6-4.7-9.6-9.1-14.8-13.1c-25.6-19.1-51.5-37.9-77.2-57c-21.7-16.2-39.2-35.8-49.6-61.3c-7.5-18.5-17.4-36-24.4-54.7
		c-13.6-35.8-35.2-65.5-63.7-90.6c-27-23.8-53.9-47.7-81.1-71.2c-17.2-14.8-33.2-30.7-48.3-47.7c-31.6-35.6-45.9-77.7-47.5-124.3
		c-1.1-31.9-0.8-64-0.1-95.9c1-45.3,3.4-90.6,4.1-135.9c0.5-31.1,6.1-61,18.1-89.5c15.5-36.8,32-73.2,48.3-109.7
		c4.7-10.6,11.4-12.6,22.6-7.2c9.6,4.6,19.1,9.4,28.6,14.2c104.5,53.2,209,106.2,313.3,159.8c22.6,11.6,45.7,20.8,70.6,26.9
		c91.9,22.4,183.4,46,275.1,69.3c19.4,4.9,38.4,11,56.2,20.3c8.3,4.3,16.8,8.4,25.6,11.1c24.8,7.5,45.2,21.7,65.3,37.6
		c146.1,116.1,292.6,231.7,438.9,347.6c13.6,10.7,26.6,22.2,39.6,33.6c4.2,3.6,6.2,8.7,5.9,14.3c-5.3,106.6,1.4,213.2,0.8,319.7
		c-0.1,12.2,2.4,23.6,6.1,35.2c23.2,73.7,45.8,147.6,69,221.2C7723,7562.9,7737.5,7605.8,7751.5,7648.6z"/>
	<path onclick="modals(this.id);"  id="1600" class="st0" d="M7678.5,2070.6c46.3,43.9,100.9,72.2,152.9,104.4c16.1,9.9,34.1,15,51.2,22.3
		c7.3,3.1,15.8,5.5,21.1,10.9c22.6,22.8,48.1,42,73.6,61.2c3.1,2.3,3.8,7.6,1.7,10.7c-0.7,1.1-1.1,2.4-1.9,3.5
		c-1.6,2.1-3.3,4.2-5.1,6.1c-51.4,57.8-96.4,120.8-144.2,181.5c-13.2,16.7-24.3,35-36.1,52.7c-25.2,37.7-50.2,75.4-75.2,113.2
		c-3.6,5.5-6.6,11.5-9.6,17.4c-1.9,3.7,0,12.4,3.5,14.7c13.3,8.8,26.8,17.3,40.2,26.2c6.2,4.1,8.3,10,6.5,17.3
		c-2.9,11.6-6.2,23.2-8.6,34.9c-8.4,40.2-9.9,34.4-47.5,40.5c-10.5,1.7-21.2,2.4-31.7,3.7c-4.8,0.6-9.7,7.4-8.3,11.7
		c7.7,24.1,15.3,48.2,23.5,72.1c1.7,4.9,4.7,9.7,8.2,13.6c15.1,16.9,30.6,33.4,45.9,50.1c7.5,8.2,17.4,12.3,27.6,15.4
		c44.5,13.7,88.6,29.1,135.2,34.4c18.7,2.1,36.4,7.8,54.1,13.6c7.9,2.6,13.8,7.9,15.8,16.5c1.2,5.2,2.2,10.4,3.6,15.6
		c1.9,7,6.2,11.6,13.8,12.2c26.5,2.3,53.1,4.6,79.7,6.7c37.2,2.9,74.4,5.5,111.6,8.4c7.2,0.6,13.1,6,13,12.5
		c-0.4,27.9-0.8,55.9-2.1,83.8c-0.2,4.5-4.7,9.3-8.3,12.8c-2.6,2.6-7.1,3.5-10.7,5.1c-27.9,12.6-55.9,25-83.7,37.9
		c-9.9,4.6-20,7.2-30.8,7.4c-14.7,0.2-29.3,1.1-44,0.6c-32.6-1-63.4,8-93.7,17.9c-17.5,5.7-33.4,16.5-47.3,29.3
		c-7.9,7.2-15.9,14.3-22.7,22.5c-20.9,24.9-19.7,20-46.8,8.5c-22-9.4-43.6-19.9-65.5-29.6c-7.3-3.2-14.6-7.4-22.3-8.3
		c-15.4-1.9-27.3-9.3-38.8-19c-20.4-17.2-40.9-34.2-61.9-50.6c-29.4-23-59.4-45.1-88.8-68.1c-13.9-10.9-29.1-18.6-46.3-22.4
		c-5.2-1.2-10.3-2.8-15.3-4.4c-11.4-3.8-14.3-9-11.2-21.3c5.7-23.3,11.7-46.5,17.3-69.8c2.2-9.1,4-18.2,5.5-27.4
		c1.5-9-2.6-16.1-10.5-19.2c-38.7-14.9-78.1-26.9-120.3-26c-13.3,0.3-26.6-1.4-39.9-1.4c-5.1,0-12.6,0.6-14.8,3.8
		c-9.6,13.8-22.3,11.5-35.8,10.1c-45.1-4.6-90.2-8.6-135.3-12.9c-47.7-4.5-95.5-9-143.2-13.7c-6.5-0.6-12.9-2.3-20-3.6
		c-3.1-11-6.1-21.1-8.8-31.3c-1.7-6.7-5.7-11.9-10-17c-7.3-8.7-16-13.7-27.8-12.9c-9.3,0.6-18.6,0.6-27.9,1.3
		c-35.7,2.4-27.1,3.6-60.8-12.9c-7.2-3.5-14.4-7-21.4-10.9c-13.1-7.3-26.6-11.5-42-9.7c-16.1,1.8-31.8-1.2-47.1-6.6
		c-8.7-3.1-17.8-5.2-25-7.3c-9.4-4.8-12.4-12.5-16.6-19.3c-9.1-14.7-17.8-29.7-26.8-44.5c-5.6-9.2-12-17.6-20.7-24.1
		c-3.2-2.4-6.5-4.8-9.2-7.7c-18.4-20.3-33.1-41.9-24.9-71.5c5.6-55.7,14.4-110.9,25.8-165.7c7.8-37.8,15.5-75.6,22.9-112
		c6.1-6.7,12.7-7,19.5-6.6c49.4,3.1,98.1,11.1,145.1,26.3c29,9.4,55.8,25.1,79.9,44.4c21.9,17.4,43.7,35,65.8,52.1
		c5.1,4,11.3,6.8,17.3,9.4c1.9,0.8,5.8,0.1,7.3-1.4c4.7-4.6,9.2-9.5,12.8-15c26.7-41.4,53.1-83.1,79.6-124.6
		c4.3-6.7,8.9-13.3,13.5-19.7c2.8-3.9,10.2-5.5,14.4-3c14.8,9,29.7,17.8,44.3,27.1c34.9,22.2,69.5,44.6,104.4,66.8
		c7.9,5,16,9.6,24.1,14.1c4.4,2.5,11.7,1.1,14.6-2.8c4.7-6.5,9.3-12.9,13.6-19.7c24.1-38.4,47.9-76.9,72-115.3
		c4.9-7.8,10.4-15.3,15.5-22.8c4.7-0.6,8.6-1.2,12.6-1.5c5.6-0.4,10.3-2.6,13.6-7.1c8.5-11.8,16.8-23.8,25.3-35.8
		c7.3-1.1,13.8-2.5,20.4-2.9c15.9-1.1,27.8-7.9,35.3-22.4c4.5-8.6,12.6-13.4,21.1-17.6c18-8.9,35.8-18.1,57-14.9
		c10.5,1.5,17.2-4.2,23.2-12.3C7608.2,2130.9,7644.9,2095.3,7678.5,2070.6z"/>
	<path onclick="modals(this.id);"  id="1758" class="st0" d="M5766.5,5689.1c-3.7,6.5-6.8,12.4-10.3,18c-22.3,34.8-44.6,69.5-67,104.2
		c-2.9,4.5-6,8.8-9.2,13.1c-2.8,3.8-9.7,5-14.5,2.5c-16.5-8.6-32.9-17.5-49.6-25.7c-4.6-2.3-10.1-3.9-15.2-3.9
		c-3.2,0-7.2,2.9-9.4,5.6c-2.3,3-3.4,7.2-4.1,11c-11.1,54.8-21.5,109.8-33.3,164.4c-8.2,38-9.2,76.6-14.1,114.9
		c-3.7,29-5.5,58.3-8.1,87.5c-0.4,4-0.3,8-0.7,12c-0.8,9.3,4.5,14.8,11.9,18.9c2.3,1.3,4.8,2.4,7.3,3.3
		c24.5,8.8,43.3,24.8,60.1,44.5c26.8,31.4,54.9,61.7,82.5,92.5c6.2,6.9,12.4,13.9,18.6,20.9c5.7,6.5,7.7,13.5,3.2,21.8
		c-11.3,21.1-22.4,42.4-33.2,63.8c-9.6,19-18.8,38.1-28.2,57.2c-0.7,20-1.9,39.9-2,59.9c-0.2,61.3,0,122.6,0.1,183.9
		c0,8.8,3.2,15.4,12.7,17.3c9.6,1.9,12.4,9,12.7,17.6c0.8,22.6,1.6,45.3,2.1,67.9c0.5,24,0.7,47.9,1,71.9c0,4-0.6,7.9-1,11.9
		c-0.4,4.5-6.4,9.9-11,9.7c-27.9-0.9-55.9-1.9-83.8-2.9c-5.3-0.2-10.6-0.6-16-0.7c-33.5-0.5-33.4-0.4-34.7,32.1
		c-0.5,11.9-1.9,24-4.9,35.5c-10.5,39.9-21.8,79.6-32.8,119.3c-1.1,3.8-2.6,7.5-4,11.3c-1.8,4.9-7.4,8.1-12.7,6.8
		c-14.2-3.5-28.4-7.2-42.6-10.7c-14.2-3.4-28.5-6.8-42.8-9.8c-8.1-1.7-13.3,1-15.9,7.9c-2.9,7.4-5.4,15-8.2,22.5
		c-1.7,4.4-7.7,7.6-13.1,6.6c-5.2-0.9-10.4-2.1-15.5-3.8c-7.9-2.6-10.9-6.9-10.6-14.5c0.2-6.6,1-13.3,0.9-19.9
		c0-5.8-3.3-10.5-8.5-12.3c-12.5-4.5-25.2-8.4-38-12.1c-48.6-14-97.3-27.8-145.9-41.7c-7.7-2.2-15.3-4.7-22.8-7.3
		c-8.4-2.9-11.9-9.6-9.6-19c1.3-5.2,3.1-10.2,4.5-15.3c8.5-30.8,17.7-61.4,22.8-93c2.2-13.2,3.4-26.3,3.5-39.7
		c0.4-58.6,0.9-117.2,1.4-175.8c0-5.3,0-10.7,0.3-16c7.7-121,5.6-242.3,8.1-363.5c1.9-93.2,3.6-186.4,5.3-279.7
		c1.7-91.9,2.3-183.8,5.2-275.7c4.4-137.2,4-274.4,5.1-411.6c0.2-26.6,0.9-53.3,1.5-79.9c0.1-4.3,5.8-10,10.3-10.7
		c9.3-1.5,18.5-1.7,27.4,2.4c13.5,6.2,25.4,14.3,35.6,25.2c19,20.6,38.7,40.5,57.2,61.4c14.5,16.4,31.8,27.7,52,35.6
		c28.5,11.1,56.5,23.7,84.9,35.1c12.6,5.1,23.8,11.7,32.4,22.4c3.3,4.1,7.3,7.8,10.9,11.7c8.5,9.1,18.7,15.3,31.1,16.6
		c13.8,1.4,25.3,7.4,36.3,15.2c13,9.2,26.8,17.5,39.1,27.6c17.7,14.4,36.7,26.5,56.6,37.3c18.7,10.2,37.3,20.6,56.1,30.7
		c25.3,13.5,44.1,34,61.2,56.4C5762,5668.7,5761.3,5679.8,5766.5,5689.1z"/>
	<path onclick="modals(this.id);"  id="1707" class="st0" d="M8617.3,6218.6c-14.4-13.8-28.6-27.7-43.1-41.4c-4.5-4.2-14.1-2.7-18.1,2.1
		c-13,15.5-22,32.7-26.4,53c-12.8,58.5-26.6,116.8-40.2,175.2c-2.7,11.7-5.7,23.3-8.8,34.9c-1.8,6.9-7.8,10.2-15.5,8.5
		c-35-8.1-70-16.4-105-24.5c-10.4-2.4-20.9-4.3-31.3-6.6c-7-1.5-13.2-0.4-18.1,5.2c-4.8,5.5-10.7,7.7-17.8,5.7
		c-9-2.5-17.9-5.3-26.7-8.1c-50.7-16.2-101.5-32.3-152.2-48.6c-7.4-2.4-14.6-5.8-22.2-9c-6.4-29.4-12.8-57.9-18.8-86.5
		c-6.8-32.7-17.6-64.2-29.6-95.3c-5.3-13.7-12.2-26.6-22.3-37.6c-5.4-5.9-10.2-12.3-15.5-18.3c-20.2-23.1-39-47.4-53.4-74.6
		c-10.2-19.2-24.2-34.6-41.5-47.8c-19.1-14.5-37.3-30.1-55.6-45.6c-43.7-37-87.7-73.8-130.9-111.4c-46.2-40.2-92-81-137.5-122.1
		c-116.7-105.5-237.3-206.4-357.3-308c-64.1-54.3-128.9-107.6-193.5-161.2c-8.2-6.8-16.6-13.4-25.1-19.8c-6.6-5-12-5.1-18.1-0.2
		c-6.2,5-12,10.3-16.2,13.9c-9.3,3.5-15.4,0.4-21.7-1.4c-30.6-9-62-15.3-92-26.7c-16.5-6.2-24.7-19.3-31.3-34.1
		c-0.8-1.9,0.1-5.6,1.6-7.3c4.4-4.9,9.2-9.5,14.4-13.5c12.6-9.8,25.5-19.2,38.1-29c3.8-3,4.7-11.3,1.4-14.7
		c-11.1-11.4-22.3-22.8-33.8-34c-11.7-11.3-20.5-24.3-26.3-39.5c-1.7-4.5,1.9-11.9,6.7-12.6c5.2-0.7,10.7-2,15.7-1
		c15.7,2.9,31.3,6.6,46.8,10.3c25.9,6.2,51.7,12.8,77.6,19c9,2.2,18.2,4,27.4,5.4c6.8,1,13.2-1,18.4-5.8c4.9-4.5,9.9-8.9,14.7-13.5
		c24.2-22.9,48.4-45.8,72.7-68.6c5.8-5.4,12.1-10.2,19-15.9c8.4,5.1,16.6,9.4,24.1,14.7c176.9,123.7,353.8,247.4,530.6,371.2
		c120.1,84,240.1,168.2,360.2,252.2c44.8,31.3,89.3,62.8,131.9,97.2c73.6,59.5,148,117.9,222.3,176.4c22.1,17.4,42,36.9,59.4,59
		c7.4,9.4,15.2,18.6,23,27.7c13,15.2,24.6,31.4,34.7,48.7c27.6,47.2,55.8,93.9,83.3,141.1c8,13.8,14.5,28.4,21.1,43
		c2.8,6.2,1.8,13-0.9,19.4L8617.3,6218.6z"/>
	<path onclick="modals(this.id);"  id="1574" class="st0" d="M6054.7,1274.6c19.8,7.4,49.5,25.6,64.6,39.9c1.5,1.4,1,4.9,1.5,8.1c-3.7,1-7.5,1.7-11,3
		c-3.7,1.4-7.4,3-10.5,5.3c-2,1.5-3.2,4.2-4.5,6.5c-20.2,34-16.8,31.7-52.7,20.9c-7.6-2.3-15.2-4.9-22.9-7
		c-14.2-3.8-28.5-6.9-43.3-6.3c-9.3,0.4-18.7,0.4-28,0c-39.6-1.6-76.2,8.2-111.2,26.7c-94.2,49.8-190.4,95.7-286.6,141.4
		c-18.1,8.6-36.3,16.5-55.3,22.9c-24,8.1-47.4,17.8-71.5,25.4c-24.1,7.7-48.6,13.8-73,20.4c-6.4,1.7-13.1,2.6-19.5,4.2
		c-28.3,6.9-34.1,4.9-26.1,39.5c2.4,10.4,3.9,20.9,5.8,31.4c2.2,11.8-4.7,27-15.8,33.8c-2,1.2-5.3,1.7-7.5,0.9
		c-7.5-2.6-14.7-6.4-22.2-8.8c-16.4-5.4-32.8-10.8-50.5-11.1c-20.6-0.4-21.5-3.5-24.7-23.5c-4.2-26.3-7-52.8-10.5-79.2
		c-4.7-35.6-9.6-71.3-14.4-106.9c-1.1-7.9-2.3-15.9-2.7-23.8c-4-66.5-13.7-132.5-21.2-198.6c-6.4-56.9-12.6-113.9-19-170.8
		c-2.7-23.8-5.2-47.7-8.5-71.4c-1.1-7.8-3.8-15.5-6.4-23c-27.2-78-53.8-156.1-82.1-233.7c-9.5-26.2-23.2-50.8-34.8-76.3
		c-3.8-8.4-7.2-17.1-10.6-25.7c-1.2-3.1,3-8.1,6.7-8c5.3,0.1,10.7,0,15.9,0.6c72.7,9.3,145.2,19.4,218,27.6
		c32,3.6,62.9,10.1,93.5,20c11.3,3.6,23.4,4.9,35.2,6.7c10.5,1.6,21.2,2.4,31.7,3.8c21.2,2.8,41.7,8.2,61.2,17.4
		c26.6,12.4,54.8,20.6,83.2,28c33.6,8.7,66.2,20.2,97.7,35c20.5,9.6,41.1,18.9,63.3,24.2c14.4,3.5,27.3,10.4,38.5,20.4
		c19.2,17.1,41.8,28.1,65.5,37.6c16,6.4,31.5,14.3,46.9,22.1c14.2,7.2,27.9,15.6,42.1,22.9c30.9,15.9,60.4,33.7,86.6,56.8
		c9.9,8.8,21.6,15.5,32.4,23.4c7.5,5.5,14.9,11.2,22,17.2c8.6,7.4,9.7,13.9,4.3,24.8c-7.6,15.5-15.7,30.9-23.4,46.3
		c-4.8,9.5-9.6,19-14,28.7c-6.2,13.5-9.3,27.5-9.1,42.6c0.4,20-0.7,40-1.1,59.9c-0.2,8.6,3,15.2,10.7,19.9
		c6.5,3.9,7.6,10.6,5.8,17.5c-4.2,16.8-8.7,33.5-12.8,50.3c-2.1,8.6,1.3,14,10.7,18.7c8.6,4.3,17.1,8.2,25.9,0.6
		c7.2-6.3,19-1.2,25.2-10.1C6046.2,1287.3,6050.5,1280.8,6054.7,1274.6z"/>
	<path onclick="modals(this.id);"  id="3028" class="st0" d="M9350.2,7864.3c-7.9,43.2-15.7,86.5-23.6,129.7c-0.5,2.6-1.5,5.1-2.2,7.7
		c-2.4,8.8-7.3,11.4-14.1,7c-10-6.5-20.1-13-29.7-20.2c-69.1-52.2-138.1-104.7-207.2-157c-46.8-35.4-93.5-70.8-140.4-106
		c-11.7-8.8-24-16.9-36.3-24.7c-40.5-25.7-81.3-51-121.8-76.7c-16.9-10.8-34.7-19.5-53.4-27c-193.9-78.5-388.5-155.1-583.9-229.6
		c-48.9-18.6-43.8-13.2-29.1-58.1c20.8-63.4,35.6-128.3,52.8-192.7c29.3-109.4,54.2-219.8,80.4-330c1.2-5.1,3.1-10.1,4.8-15.1
		c1-2.9,7-6,10-4.9c10,3.5,20.1,6.9,30,10.8c126.1,50.6,252.2,101.2,378.3,151.9c55.6,22.4,111,45.2,166.8,67.3
		c23.5,9.3,47.4,17.6,71.4,25.6c35.5,11.9,29.3,8.8,40.2,38.1c33.3,89.9,65.8,180.2,98.5,270.3c54,149,107.9,298.1,162,447.1
		c3.2,8.8,6.7,17.4,10.2,26c1.5,3.6,9.9,7.7,13.6,6.7c14.1-4,28.1-8.1,42.1-12.3c8.9-2.7,17.7-5.8,26.6-8.5
		c14.8-4.5,19.4-2.5,25.3,10.5c1.1,2.4,2,4.9,3,7.4c5.3,13.8,12.5,26.4,21.8,37.9C9350.4,7850.9,9352,7857.4,9350.2,7864.3z"/>
	<path onclick="modals(this.id);"  id="1682" class="st0" d="M5725.2,4490.2c-4.2-6-8.7-12.4-13.1-18.9c-10.8-16-24.9-27.6-43.7-32.9
		c-10.3-2.9-20.4-6.1-30.7-8.9c-27-7.4-54.1-14.2-80.9-22c-16.6-4.8-33.1-10.2-49.2-16.4c-18.7-7.2-38-12.3-57.6-16.1
		c-48.4-9.3-97-17.2-146-22.8c-17.2-2-34.5-2.5-51.8-3.3c-21.3-1-42.6-1.5-63.9-2.4c-3.9-0.2-7.9-1.2-11.8-2
		c-4.9-0.9-9.9-6.1-10.2-10.9c-0.6-9.3-1.1-18.6-1.1-27.9c-0.3-91.9,0.9-183.8,3.5-275.7c0.9-30.6,1.1-61.3,1.6-91.9
		c0.1-4,0.6-8.1-0.1-12c-5.9-33.1-2-66.5-1.9-99.7c0.1-69.3,0.9-138.6,1.5-207.9c0.1-6.6,0.8-13.2,1.4-19.8c0.3-3.4,5.7-5.9,9.2-4.4
		c3.6,1.6,7.4,3,10.9,4.9c7,3.9,14,7.8,20.7,12.1c73.5,46.2,152,82.7,229.5,121.4c32.2,16.1,67.5,24.5,102.1,34.1
		c8.1,2.2,15.9,0.6,22.5-4.9c5.1-4.3,10.2-8.6,14.7-13.5c20.1-21.6,43.5-39.2,66.7-57.1c55.8-42.7,56.6-43.1,58.2-38.4
		c7.4,22.1,0.8,44.6,1,67c0.3,26.6-1.1,53.3-1.6,79.9c-0.2,10.1,2.7,18.4,13.4,21.9c1.3,0.4,2.5,1,3.7,1.4
		c81.9,32.5,157.7,77.5,235.9,117.4c3.5,1.8,7,3.9,10.4,6c6,3.7,8.3,9.5,6.6,17.2c-7.2,32.5-14.5,65-21.9,97.4
		c-15.6,68.8-31.6,137.6-46.8,206.4c-3.5,15.8-7.8,31-17,44.4c-8.5,12.4-10.6,27.2-15.6,40.9c-2.5,7-8.2,10.4-15.6,8.9
		c-10.4-2.1-20.8-4.7-31.2-6.7c-5.8-1.1-10.7,1.8-13.8,6.1c-6.3,8.6-11.8,17.7-17.5,26.7c-18.5,29.3-37.1,58.5-55.5,87.8
		C5736.7,4481.6,5733.4,4487.3,5725.2,4490.2z"/>
	<path onclick="modals(this.id);"  id="1640" class="st0" d="M6323.4,3288c-2.6-0.2-5.3-0.4-7.9-0.5c-4.5-0.2-7.9,2.4-9.4,6c-2.6,6.1-4.7,12.5-6,19
		c-11.4,60.2-22.3,120.4-33.8,180.5c-7,36.6-15.7,72.9-21.8,109.6c-8.3,49.9-21.7,98.7-31.1,148.3c-9.4,49.7-19.2,99.3-28.9,148.9
		c-0.5,2.5-1.5,5.4-3.3,6.9c-1.7,1.4-5.9,2.4-6.9,1.4c-5.7-5.4-11.4-11-15.9-17.4c-93.4-131.3-186.7-262.7-280-394
		c-3.9-5.4-7.7-10.9-11.1-16.6c-2.9-4.8-3-10-0.3-15.2c0.6-1.2,1-2.5,1.8-3.5c21-25.7,29.1-56.1,33.6-88.3
		c7.9-56.7,17.3-113.2,25.1-169.9c2.4-17.1,2.1-34.5,2.6-51.8c2.1-81.2,2.8-162.4,6.3-243.6c1.8-41.2,2.1-82.5,5.1-123.6
		c2.4-33.1,7.8-66.1,13.3-98.9c5.1-30.2,12-60,18.3-89.9c0.8-3.8,2.4-7.7,4.4-11c1.2-2,4.3-4.4,6.1-4.2c9.2,1.3,18.4,2.9,27.4,5.3
		c114.3,31.1,228.5,62.3,342.8,93.5c6.4,1.8,12.6,4.3,19.1,5.7c8.1,1.8,14.8,5.9,20.8,11.3c31.9,28.2,63.8,56.5,95.6,84.9
		c4.3,3.8,4,10.2-0.8,13.8c-24.6,18.2-49.3,36.3-73.9,54.5c-11.8,8.7-23.5,17.5-35,26.5c-4.3,3.3-6.8,8.1-7.6,13.6
		c-0.4,2.6-0.7,5.3-0.9,7.9c-3.2,49.2-6.3,98.3-9.7,147.5c-4.1,59.8-8.5,119.5-12.8,179.3c-1.4,19.9-3.1,39.8-4.7,59.6
		c-0.2,2.9-5.6,6.7-8.9,6.5c-1.3-0.1-2.6-0.3-4-0.5C6328.7,3289.1,6326.1,3288.5,6323.4,3288z"/>
	<path onclick="modals(this.id);"  id="1743" class="st0" d="M8946.5,7017.9c-4.6-11.1-9.5-22-13.6-33.1c-43.1-117.4-85.9-234.9-129.2-352.3
		c-22.6-61.2-46-122-68.8-183.1c-3.7-9.8-6.6-19.9-10.1-30.8c5.2-3.5,9.3-6.9,13.9-9.1c8.4-4,17.2-7.2,25.7-11
		c8.8-4,12.2-10.9,9.6-19.1c-2.4-7.6-5.1-15.1-7.8-22.6c-6-16.2-12.4-32.3-18.2-48.6c-2.2-6.1-3.2-12.6-5.1-20
		c5.4-2.7,9.8-6.2,14.7-7.2c24.9-5.1,49.9-7.1,75.4-3.4c22.4,3.3,45.1,4.6,67.3,8.6c34,6.1,67.8,13.9,101.6,20.8
		c9.5,2,16.9,7.2,23.7,13.9c81.8,82,163.9,163.7,245.5,245.9c15,15.1,28.6,31.5,42.9,47.3c40.2,44.4,80.2,89,120.8,133.1
		c29.8,32.3,60.9,63.5,95.9,90.2c13.4,10.2,18.1,21.1,14.1,37.7c-9,37.5-16.8,75.3-25,113c-10,45.5-19.9,91-30.1,136.4
		c-5.8,26-13.4,51.5-24.5,75.8c-2,4.3-8.9,7.8-13.3,6.4c-6.3-2-12.7-3.9-18.9-6.3c-68.2-26.5-136.3-53.3-204.6-79.7
		c-67-25.9-134.1-51.7-201.3-77.1c-18.6-7-38-12.1-57-18.1C8962.5,7023.3,8955,7020.7,8946.5,7017.9z"/>
	<path onclick="modals(this.id);"  id="1623" class="st0" d="M6568,2401.8c-19.4,30.7-54.7,108.5-65.4,144c-4.4,0.8-9.4,2.4-14.5,2.5
		c-21.3,0.4-42.6,0.2-64,0.5c-6.8,0.1-12.2,6-12.4,13.1c-0.4,16-0.5,31.9-0.8,47.9c-0.1,5.2-5,10.5-9.8,10.8
		c-10.6,0.7-21.3,1.2-31.9,1.7c-9.3,0.4-18.7,0.3-28,0.8c-11.6,0.6-14.2,8-6.9,19.3c1.4,2.2,3.3,4.1,4.6,6.4
		c0.6,1.1,1.1,3.5,0.7,3.7c-2.1,1.3-4.7,3.2-6.9,2.8c-7.9-1.1-15.8-2.7-23.4-4.8c-96.4-26.2-192.8-52.4-289-79
		c-15.3-4.2-30.6-8.5-45.4-15.1c-13.2-5.9-27.9-8.8-42.1-12c-23.4-5.3-46.9-10-70.5-14.3c-9.1-1.7-18.5-2.8-27.7-2.4
		c-23,1.1-24.6,5.2-28,25.8c-2.4,14.5-3.9,29-5.8,43.6c-1.4,10.5-2.5,21.1-9.4,31.5c-54,4.3-108.1-9.8-163.4-5.6
		c-3.8,5.3-8.2,10.3-11.4,16c-6,10.4-11,21.3-17.2,31.6c-1.8,2.9-6.1,4.9-9.7,5.8c-3.7,1-7.9,0.6-11.9,0.1
		c-38.4-4.3-76.8-8.7-115.2-13.1c-4-0.5-8-0.9-11.9-1.5c-26.8-4.1-50.8-13.2-72-31.4c-31.3-26.9-64.7-51.3-97-77.2
		c-13.6-10.9-28.1-20-44.2-26.9c-9.8-4.2-19.3-9.1-28.8-13.7c-10.5-5.1-16.1-12.7-15.8-25.1c1-46.6,1.3-93.3,1.9-139.9
		c0.2-17.3,0.4-34.7,1.3-52c0.2-5,2.6-10,4.2-15.5c18-2.5,35-5.2,52.2-7.1c34.4-3.9,68.9-7.3,103.4-10.9c11.9-1.2,24-1.7,35.8-3.8
		c29.2-5.1,58.3-4.3,87.7-1.8c25.2,2.2,50.5,3.6,75.8,5.1c75.8,4.5,151.7,8.9,227.5,13.4c6.7,0.4,13.3,1.1,20,1.2
		c57.4,1.2,114.2,8.3,171.1,15.3c27.8,3.4,55.7,5.3,83.6,7.9c38.5,3.6,77,7,115.4,10.7c41.1,3.9,82.2,8.1,123.3,12.2
		c31.8,3.2,63.6,6.6,95.5,9.6c39.8,3.7,79.6,7,119.4,10.7c31.8,3,63.7,6.1,95.5,9.4c7.4,0.8,12.5,6.4,11.6,13.4
		c-1,7.9-2.2,15.8-4.2,23.5c-1.4,5.3-5.3,9.4-11.1,10C6590.7,2400.2,6578.8,2401,6568,2401.8z"/>
	<path onclick="modals(this.id);"  id="1737" class="st0" d="M10189,7482.4c2.8-12.1,5.2-23.8,8.3-35.3c48.7-183.9,101.4-366.8,152.4-550.1
		c6.8-24.4,13.9-48.6,20.6-73c2.3-8.5,7.8-13.7,15.8-16.5c31.4-11,62.9-21.7,94.3-32.7c7.5-2.6,14.8-5.7,21.2-8.2
		c7.5-9.7,9.7-20.2,12.6-30.4c21.9-76.8,43.8-153.5,65.9-230.3c9.4-32.8,9.2-33.2,39-51.3c19.3-11.7,39.6-21.9,59.5-32.6
		c4.7-2.5,11.2-0.2,13.6,4.5c1.8,3.5,4,6.9,5.3,10.7c5.8,16.3,11.7,32.5,17.1,49c19.8,60.7,39.2,121.6,63,180.9
		c14.9,37.1,26.6,75.3,37.2,113.8c5,18.1,11.4,35.4,19.2,52.4c21.2,45.9,43.5,91.4,62.2,138.3c18.2,45.7,32.6,92.9,48.6,139.4
		c8.2,23.9,16.3,47.8,24.3,71.8c2.4,7.3-0.6,13.4-7.5,16c-6.2,2.4-12.4,4.8-18.8,6.8c-17.7,5.7-35.5,11.4-53.4,16.6
		c-66.6,19.2-131.1,43.7-194.8,71c-133.3,57.1-267.4,112.4-400.9,169.2c-29.9,12.7-61.2,17.7-92.6,23.1
		C10197.7,7486,10193.7,7483.6,10189,7482.4z"/>
	<path onclick="modals(this.id);"  id="3031" class="st0" d="M9388.2,7776.1c6-23.3,11.1-45.3,17.4-67c17.9-61.5,29.6-124.3,42.4-186.9
		c5.1-24.7,7-50.1,10.4-75.2c0.8-5.8,6.5-8.3,12-5.8c9.8,4.6,19.3,9.4,21.8,21.4c2.1,10.2,9.4,15.5,18.1,19.6
		c80.6,38.3,161.2,76.6,241.8,114.9c10.9,5.2,22.2,8.6,34.2,10.5c47.4,7.3,94.7,15.2,142,22.7c15.8,2.5,31.6,4.9,47.4,6.9
		c6.7,0.9,12.6-3.6,14.9-10.6c0.8-2.5,1.7-5.1,2.1-7.7c3.3-21.6,9.7-20,27.3-15.2c11.6,3.2,23.2,6.1,34.9,8.7
		c6.5,1.4,13.1,2.1,19.7,2.9c4.2,0.5,11.8-4.8,12.1-8.5c0.9-10.6,1.6-21.2,2.1-31.9c0.3-5.9-5.1-12.6-11.4-14.8
		c-7.5-2.7-15.1-5.1-22.8-7.5c-62.3-19.5-124.5-39-186.8-58.5c-8.9-2.8-17.8-5.6-26.4-9.1c-67.9-27.6-135.6-55.3-203.5-82.9
		c-4.9-2-9.9-3.8-15-5.5c-9.2-3.2-14.2-1.1-19.6,8c-1.3,2.3-1.8,5-3.1,7.3c-2.1,3.8-5.7,5.8-9.9,4.9c-9.1-2-18.1-4.4-27-6.9
		c-11.6-3.2-23-7-34.6-9.6c-5.1-1.2-11-0.2-13.9,5.3c-6.1,11.7-15.2,13.7-26.7,9.3c-3.7-1.4-7.6-2.3-11.4-3.6c-4.5-1.6-9-8.4-8-12.5
		c4.3-18.1,8.7-36.3,13.2-54.3c6.8-27.1,13.6-54.2,20.6-81.3c1.9-7.2,8.7-10.8,15.2-8.7c3.8,1.2,7.6,2.5,11.3,4
		c13.6,5.3,27.3,10.6,40.9,16.1c161.5,65.9,323.3,131.1,484.4,198.2c47.6,19.8,95.7,31.9,147.2,30.4c1.1,0,3,0.7,3.1,1.4
		c0.6,2.3,1.7,5.6,0.6,7.1c-19.1,25.6-38.3,51.2-58,76.3c-5.9,7.6-9.7,15.8-12.4,24.8c-11.7,39.6-23.9,79-34.8,118.8
		c-33.4,122-65,244.5-99.7,366.1c-28.8,101.1-61,201.3-91.8,301.9c-1.5,5-3.5,10.1-6,14.6c-1,1.7-4.9,3.2-6.6,2.5
		c-4.9-1.8-9.7-4.4-13.9-7.4c-69.2-49.8-138.4-99.6-207.5-149.7c-10.8-7.8-21.1-16.4-30.7-25.6c-21.3-20.4-44.8-37.5-69.8-53.2
		c-27.1-16.9-53.2-35.4-79.9-53c-37.8-24.9-75.8-49.5-113.8-74.2c-11.2-7.3-22.4-14.4-33.7-21.5c-6.3-4-9.3-9.8-8.1-16.8
		c2-11.8,4.8-23.4,7.4-35.1c0.7-3.3,6.4-5.8,9.8-4.4c7.4,3.1,14.8,6,22,9.4c68.8,32.1,137.5,64.4,206.3,96.5
		c8.4,3.9,16.9,8.1,25.6,11.2c16.5,5.9,22,2.5,26.6-13.1c9.4-31.9,19.1-63.8,28.7-95.7c2.7-8.9,5.5-17.8,8.1-26.8
		c2-6.9,6.3-11.3,12.8-14.3c6.6-3,9.2-9.2,10.8-15.9c14.5-60.9,29-121.8,43.4-182.7c1.2-5.1,1.8-10.4,1.8-15.6
		c0-2.3-1.7-5.3-3.5-6.8c-3-2.5-6.6-4.4-10.2-5.9c-72.9-29.3-145.9-58.4-218.8-87.6c-3.7-1.5-7.8-3.1-11.5-2.7
		c-3.5,0.4-7.7,2.6-9.7,5.4c-3,4.2-4.7,9.5-6.2,14.5c-12.9,43.4-25.7,86.8-38.5,130.2c-1.5,5.1-3,10.2-4.7,15.2
		c-1.7,4.8-8.6,8.3-12.8,6.7C9413.5,7793.2,9401.5,7787.8,9388.2,7776.1z"/>
	<path onclick="modals(this.id);"  id="1756" class="st0" d="M6032.3,6775.5c-14.1-3.9-27.5-2.2-40.8-2.4c-25.3-0.4-50.6-0.4-75.9-0.9
		c-5.2-0.1-10.5-1.3-15.5-2.8c-2.2-0.7-4.8-3.1-5.5-5.3c-0.7-2.1,0.1-5.7,1.7-7.2c3.8-3.6,8.1-6.7,12.7-9.2
		c18.7-10.2,37.7-19.9,56.4-30c7.2-3.9,8.9-11.8,5.1-20.8c-3.5-8.3-11.8-13.5-18.7-11c-7.5,2.7-14.8,5.8-22,9.2
		c-14.4,6.9-28.7,14.1-43.1,21.1c-4.7,2.3-10.4,0.2-13.6-4.7c-0.7-1.1-1.4-2.3-2.1-3.4c-4.3-7.9-3.3-13.6,3.2-16.8
		c8.4-4,16.9-7.8,25.3-11.7c44.3-20.4,39.5-12.1,38.6-61.4c-0.3-17.3-0.7-34.6-0.9-52c-0.1-14-4.7-25.6-14.8-35.7
		c-29.3-29.3-54.4-62.1-79.5-94.9c-8.9-11.6-16.5-24.1-24.9-36.1c-6.1-8.7-12.2-17.5-18.7-25.8c-43.4-55.7-87-111.3-130.5-166.9
		c-3.3-4.2-6.3-8.6-9.1-12.5c-4.8-17.5-3.8-34.9-3.9-52.2c0-8,0.8-16,0.4-24c-2.1-42.8,2.4-84.8,10.4-127
		c7.4-39.2,10.9-79.1,16.2-118.8c1-7.2,7.9-10.6,14.7-7.4c3.6,1.7,7.2,3.5,10.7,5.4c8.2,4.4,16.3,9,24.5,13.5
		c143.9,78.4,285.4,161,427.5,242.5c34.7,19.9,70.1,38.3,105.2,57.5c5.7,3.1,11.9,6,14.8,15.2c-3.5,8.1-7.5,17.9-11.7,27.6
		c-11.7,26.9-23.3,53.8-35.2,80.5c-15.4,34.6-22.5,70.7-22.8,108.6c-0.5,52-2.8,103.9-3.5,155.8c-0.4,32,0.2,64,1.4,95.9
		c1.2,34,11.8,65.3,30.5,93.8c5.1,7.7,10.3,15.3,15.1,22.5c-20.8,31.6-20.2,26-31.5,69.4c-5,19.3-8.8,38.9-13.6,58.3
		c-2.5,10.3-5.2,20.7-9.2,30.5c-3.5,8.5-8.9,16.2-19.7,19.5c-4.2-4.9-8.6-9.9-12.7-15c-9-11.2-20.5-15.6-34.9-15.5
		c-29.3,0.1-58.6-1-87.9-1.5c-2.7-0.1-5.3,0.2-8,0.3c-9.3,0.4-14.4,5-16,14.2c-1.1,6.4-2.2,12.8-3.3,19.1c-5.2,1-9.1,2.4-12.9,2.4
		c-30.6,0.2-61.3,0.2-91.9,0.1c-4,0-7.9-0.9-11.9-1.4c-3.1-0.4-7.8-5.3-7.7-8.1c0.9-35.9,1.8-71.8,2.8-107.7c0.1-4,0.8-7.9,1.4-11.9
		c0.6-4.4,6.3-9.8,10.9-10.1c9.3-0.5,18.6-1.1,27.9-1.1c34.6-0.2,69.3,0,103.9-0.3c6.5-0.1,13.1-1.5,19.5-3.1
		c1.6-0.4,3.2-4.1,3.3-6.4c0.1-2.4-1.1-5.2-2.5-7.3C6051.7,6796.1,6042.7,6784.6,6032.3,6775.5z"/>
	<path onclick="modals(this.id);"  id="1598" class="st0" d="M6956,2416.6c2.2-36.3-7.1-76.2-24.5-114.3c-11.2-24.4-18.8-49.9-24.3-75.9
		c-3.4-16.4-10.6-29.7-21.6-41.8c-13.4-14.8-27.2-28.9-43.3-41.2c-17.5-13.3-36.9-21.1-58.1-24.8c-18.3-3.2-36.9-5.6-55.4-7.9
		c-47.6-5.7-95-11.6-142.1-21.2c-31.1-6.4-63.3-9.1-95.3-8.1c-11.9,0.4-24,1.9-35.4,5.1c-37.3,10.5-74,6.2-110.3-3.7
		c-12.7-3.5-26.2-5.3-37.7-12.8c-2.8-1.8-4.7-7.3-3-10.4c2.5-4.7,4.8-9.5,7.7-13.9c49.5-75.8,99-151.6,148.5-227.4
		c1.5-2.2,3.1-4.3,4.7-6.5c4.4-6,11.2-8.2,17.4-5.2c10.8,5.2,21.6,10.4,32.2,16c47.2,24.7,94.3,49.5,141.5,74.1
		c16.5,8.6,33.1,17.2,49.8,25.4c4.7,2.3,9.9,4.3,15,4.8c3.5,0.3,8.4-1,10.7-3.5c5.4-5.8,9.8-12.5,14.1-19.2
		c54.4-83.7,108.8-167.5,163.2-251.2c9.4-14.5,19.1-28.8,28.9-43.1c3.8-5.6,11.2-6.8,17.8-3.4c40.3,20.9,77.4,46.8,114.6,72.6
		c3.3,2.3,6.2,5.1,9,7.9c41.5,41.7,91.1,73.6,135.4,111.9c8.9,7.7,19.9,13.2,30.5,18.8c20,10.6,40.3,20.6,60.5,30.9
		c8.3,4.2,16.5,8.7,24.7,13.2c9.4,5.2,11.6,11,6.7,19.2c-8.1,13.7-16.4,27.4-24.9,40.9c-99.1,156.3-198.4,312.5-297.6,468.7
		c-11.4,18-22.9,36-34.4,53.9c-3.6,5.6-7.4,11.1-11.2,16.6c-2.9,4.2-7.5,5.8-9.8,3.4c-1.7-1.7-3.9-4-4-6.1
		C6955.8,2446.4,6956,2434.4,6956,2416.6z"/>
	<path onclick="modals(this.id);"  id="1641" class="st0" d="M6293.8,4077.2c-2.6-2.5-6-4.8-8.3-8c-26.4-36.8-52.6-73.8-78.9-110.7c-2.3-3.3-4.4-6.7-6.8-9.9
		c-5.1-6.9-6.1-14.7-4.6-22.8c2.8-15.7,5.6-31.5,8.8-47.1c12.4-61.4,24.7-122.7,37.6-184c3.6-16.9,9.9-33.1,13.4-50
		c3.2-15.6,3.7-31.7,6.6-47.4c14.6-77.2,29.5-154.4,44.4-231.6c3.3-17,6.6-34,10-51c1-4.9,6.7-8.9,12.3-7.8
		c29.5,5.9,30.5,1.1,32.3-28.2c3.4-54.5,6.6-109.1,10.4-163.6c3.8-54.5,8.1-109,12.1-163.5c1.5-19.9,2.9-39.7,4.3-59.7
		c8.1-6.4,15.1-12.3,22.6-17.8c28-20.5,56-40.8,84.1-61.2c3.2-2.3,6.5-4.7,9.9-6.7c4.9-2.9,10.3-3.2,15,0
		c7.7,5.3,15.2,10.8,22.5,16.6c46.9,37.4,94.5,73.9,139,114.2c14.8,13.4,31.2,25,46.8,37.4c3.1,2.5,6.1,5.2,9,7.9
		c3.7,3.4,4.9,10.6,2.3,14.5c-2.9,4.4-5.7,9.1-9.1,13.1c-31.3,37.6-48.1,82.6-64.9,127.5c-2.8,7.4-4.6,15.3-5.6,23.2
		c-3.4,27.8-6.8,55.6-9.2,83.4c-2.2,25.4-6.8,50.1-16.5,73.8c-6.1,14.8-11.3,29.9-17.1,44.8c-1.9,4.8-8.6,7.6-13.2,5.6
		c-8.5-3.8-16.9-7.8-25.4-11.7c-3.6-1.7-7.2-3.5-10.8-5.1c-8.5-3.6-16.8,0.4-18.3,9.2c-3.6,22.4-7.1,44.7-10.4,67.1
		c-2.6,17.1-4.9,34.3-7.2,51.4c-3.7,28.2-1.2,55.8,6.8,83.1c8.2,28.2,15.5,56.6,19.7,85.6c4.2,29,9,58,11.5,87.1
		c1.6,18.9,5.5,36.7,12.9,54c4.2,9.8,7.9,19.7,11.6,29.7c1.6,4.2-2.3,11.8-6.7,13.1c-6.3,2-12.7,4.7-19.1,5
		c-12.8,0.5-22.5,6.4-32.4,13.7c-43.2,31.6-81,69.2-118.5,107.1c-34.7,35.1-68.8,70.7-103.3,105.9
		C6308.1,4069.4,6303.1,4076.1,6293.8,4077.2z"/>
	<path onclick="modals(this.id);"  id="1745" class="st0" d="M7921.8,6652.9c13.4,3.9,31.3,9.2,49.2,14.3c6.8,1.9,12.8-2.1,14.6-9.7
		c2.7-11.7,5.6-23.3,7.7-35.1c5.4-30.6,15.3-59.1,34.5-84.1c6.5-8.4,11.7-17.8,17.4-26.8c10.2-15.8,17.2-32.9,21.3-51.4
		c4.9-22.1,10.7-44,16.4-65.9c1.9-7.4,7.3-9.9,15.4-7.9c3.9,1,7.7,2,11.6,3.2c30.5,9.6,61,19.1,91.4,28.8
		c34.3,10.9,68.4,22.1,102.7,32.9c5.1,1.6,11.3,1.2,14.4-3.9c5.8-9.8,14.3-11.2,24.1-9c38.9,9,77.8,18,116.6,27.7
		c13.2,3.3,14.7,8.6,11.8,20.6c-19,79-38.2,157.9-57.1,236.9c-3.1,12.9-5.6,26-7.4,39.2c-1,7.4,5.3,16.6-3.1,22.1
		c-11.4,7.6-24.4,10.5-38,5.7c-6.3-2.2-12.5-4.7-18.7-7.1c-28.5-11.2-57-22.5-85.5-33.7c-5-1.9-10-4.3-15.2-4.7
		c-3.3-0.2-8.6,2.1-9.8,4.8c-3.7,8.5-6.6,17.4-8.6,26.5c-32.2,144.3-68.7,287.5-105.7,430.6c-10.3,40-22.6,79.4-35.8,118.5
		c-2.6,7.6-9.5,9.3-15.3,4.2c-3-2.6-6-5.3-8.8-8.1c-29.9-28.5-59.7-57.1-89.5-85.7c-50.9-49-101.7-98-152.6-147
		c-3.8-3.7-7.6-7.4-11.5-11.1c-6.2-5.9-9.1-13-7.5-21.6c1.2-6.5,2.4-13.1,4.1-19.5c31.3-121.2,62.7-242.3,94-363.5
		c1-3.9,2.3-7.6,3.5-11.4C7905,6653.4,7910,6650.3,7921.8,6652.9z"/>
	<path onclick="modals(this.id);"  id="1949" class="st0" d="M8001.5,2286.2c34.3,21.9,68,40.7,97.1,66.5c5,4.4,9.8,9.1,15,13.2
		c52.2,40.8,91.6,92.6,128.1,147c10.5,15.7,18.7,32.2,24.6,50c4.2,12.6,8.7,25.2,13.9,37.4c8.4,19.6,17.6,38.8,30.3,56.2
		c7.1,9.7,13.2,20,19.9,30c7.6,11.2,13,23.2,15.1,36.6c1,6.6,1.9,13.3,4.1,19.5c9.8,27.8,17,56,16.5,85.8c-0.1,3.9,0.9,8,2.2,11.8
		c13,39.2,16.4,80.8,30.6,119.9c7.7,21.1,10.1,44.1,14.7,66.2c1,4.9-2.8,10.5-7.9,12.4c-29.2,10.4-58.9,15.4-90.2,12
		c-33.1-3.6-66.5-4.7-99.7-6.9c-2.7-0.2-5.4-0.7-8-0.3c-36,5.8-71.7-0.1-107.5-2.8c-23.9-1.8-47.9-2.7-71.8-4.2
		c-9.3-0.6-18.6-1.6-27.7-3.3c-6.9-1.3-12-5.4-13.3-13c-0.2-1.3-0.7-2.6-0.8-3.9c-1-13.2-7.3-22.5-20-27.2c-2.5-0.9-4.9-2-7.2-3.3
		c-4.9-2.8-7.9-8.7-6.3-13.3c11.7-33.9,23.6-67.8,35.5-101.7c1-2.9,7.2-5.2,10.4-4c11.3,4,22.5,8.3,33.8,12.2
		c11.9,4.1,18.7,0.8,21-10.2c3.9-18.2,7.7-36.5,11.3-54.8c2.3-12.1,1.2-23.5-4.7-34.9c-11-21.3-20.5-43.4-31.7-64.6
		c-9.6-18.1-14.5-37.1-16.2-57.2c-0.7-8-1.5-15.9-2.5-23.9c-1.1-8.3-5.8-14.7-11.2-20.7c-3-3.3-11-5.7-14.6-4
		c-6,2.8-11.9,5.9-17.8,9c-4.7,2.5-9.5,4.8-14.1,7.6c-31,18.8-64.1,32-99.5,40.3c-22,5.2-43.7,12-65.4,18.3
		c-10.9,3.2-20.9,2-30.3-4.8c-7.5-5.4-15.7-10-23.4-15.2c-2.1-1.4-3.5-3.9-6.2-7c1.7-4.1,2.9-9.3,5.6-13.6
		C7817.1,2509,7945.8,2339.1,8001.5,2286.2z"/>
	<path onclick="modals(this.id);"  id="1705" class="st0" d="M5658.3,5335.2c-8.7-24.4-15.4-50.1-18.6-76.5c-2.2-18.5-2.4-37.2-3.3-55.8
		c-0.3-5.7,2.2-10,7.4-13c6.8-3.9,15.2-6.7,19.7-12.5c6.1-7.9,1.4-17.9-0.7-26.8c-4.6-19.4-9.3-38.8-13.7-58.3
		c-2.2-9.8-1.5-18.4,9.8-22.8c15.3-6,20.6-20,25.3-34c4.3-13.1,4-26.4-2.1-38.9c-4.6-9.6-10-18.8-15.2-28.1
		c-15.5-27.9-31-55.9-46.8-83.7c-10-17.6-15.9-36.3-17.8-56.6c-2.6-27.8-6.6-55.5-9.9-83.3c-1.5-12.3-5.3-23.7-14.8-31.8
		c-10.3-8.7-9-18.1-4.5-28.7c4.2-9.8,7.9-19.8,12-29.6c6.8-16.5,6.9-16.5,26.3-11.7c7.7,1.9,13.2,0,16.8-6.5
		c5.2-9.3,10.2-18.7,15.1-28.1c16-30.7,31.8-61.5,47.8-92.2c3-5.8,6.8-11.3,10.6-17.6c4.2,2.7,8.9,4,10.3,6.9
		c14.3,29.6,35.9,52.6,63,70.6c7.9,5.3,13.9,12.3,18.9,20.3c7.8,12.4,15.6,24.8,23.6,37c16.2,24.8,35.6,46.3,60.8,62.5
		c8.9,5.7,17.1,12.7,25.3,19.5c54.1,45.4,108,90.9,162,136.3c4.1,3.4,8.3,6.8,11.8,10.8c3.7,4.2,4.8,9.4,2.4,14.8
		c-3.2,7.3-6.7,14.5-10.1,21.7c-14.3,30.1-28.6,60.1-42.8,90.2c-3.4,7.2-6.8,14.5-9.5,22c-3,8.1-1.7,16.2,3.9,22.5
		c15,17,30.5,33.4,45.7,50.3c5.3,5.9,10.2,12.2,15.3,18.4c1.8,2.3-1.7,9.2-4.8,9.3c-29.2,1.4-58.5,2.8-87.7,4.1
		c-12,0.5-24,0.9-35.9,0.8c-35.2-0.2-34.2,3.7-30.7,37.8c10.1,28.5,2.5,54.7-9.6,80.8c-7.8,16.9-14.4,34.4-21.2,51.7
		c-4.9,12.3-10.3,24.5-10.1,38.3c0.1,5.2-1.5,10.6-3.2,15.6c-20.4,59.1-6.9,50.8-67,37.4c-7.8-1.7-15.9-3.2-22.9-6.7
		C5748.2,5351,5703.5,5344.9,5658.3,5335.2z"/>
	<path onclick="modals(this.id);"  id="1603" class="st0" d="M5871.2,1951.1c1.1,5,3,8.9,2.5,12.5c-1.8,14,2.2,26.2,10.2,37.5c3.2,4.5,5.1,9.4,3.8,15
		c-1.6,6.9-1,14,3.5,19c17.3,19.1,10.6,39.5,4.1,60c-0.6,2-3.7,3.9-6,4.5c-3.8,1-7.9,1.5-11.8,1.2c-19.9-1.2-39.8-3.1-59.8-4.1
		c-13.6-0.6-22-4.8-24.2-20.2c-1.3-9.1-9.8-15.7-19-18.8c-1.9-0.6-6.1,0.7-6.9,2.3c-2.8,5.9-5.1,12.1-6.7,18.4
		c-8.5,33.8-9.5,30.1,9.6,59.1c21.9,33.4,43.9,66.7,65.7,100.2c3.5,5.5,6.2,11.6,8.5,17.7c0.5,1.3-2.1,4.6-4,5.7
		c-2.1,1.2-5.1,1.3-7.7,1.3c-12-0.2-24-0.4-35.9-1.1c-67.8-4-135.6-8.2-203.3-12.3c-18.6-1.1-37.2-1.7-55.8-2.9
		c-23.9-1.5-47.8-3-71.7-5.1c-21.3-1.9-42.4-1.8-63.7,1.1c-33,4.5-66.1,7.5-99.2,11.1c-19.8,2.2-39.7,4.5-59.6,6.4
		c-10.6,1-21.2,1.1-31.8,1.7c-2.8,0.1-8.5-4.5-8.7-6.9c-0.3-5.3-0.8-10.6-0.8-15.9c-0.2-151.8-0.3-303.6-0.4-455.5
		c0-2.7,0.4-5.3,0.6-8c0.3-4.7,6.4-8.6,11.7-7.3c10.3,2.5,20.7,4.9,30.9,7.8c124.2,35.1,248.5,69.9,372.5,105.8
		c74.1,21.5,148.8,41,223.4,60.7C5851.2,1944.5,5861.1,1948,5871.2,1951.1z"/>
	<path onclick="modals(this.id);"  id="1666" class="st0" d="M5485.6,3730.1c-12.2-1-23.1-5.6-33.9-11c-54.7-27.6-110-53.9-163.9-83
		c-37.4-20.2-72.9-44.1-109.1-66.4c-6-3.7-8.9-9.5-8.9-16.7c0.3-25.3-1.3-50.8,1.1-75.9c5-51.8,3.9-103.8,4.8-155.7
		c1.8-106.5,2.7-213.1,4.2-319.6c0.2-10.5,2.1-21.1,3.8-31.5c0.3-1.9,3.8-4.3,6-4.5c3.9-0.3,8.1,0.2,11.8,1.5
		c70.8,23.3,142.2,44.6,211,73.6c22,9.3,45,16.2,67.6,24.1c12.6,4.4,25.1,8.8,37.9,12.7c27.4,8.3,50.1,24.9,71.7,42.5
		c14.4,11.7,24.2,27.8,33.4,44.7c-2.7,3.8-4.4,7.5-7.2,9.8c-9.2,7.7-18.8,14.9-28.2,22.3c-5.4,4.3-8.7,10-10,16.7
		c-4.7,24.8-10.3,49.6-13.9,74.6c-9.2,63.3-23.1,125.6-38.1,187.8c-0.9,3.9-2.3,7.7-2.7,11.7c-0.8,7.5-5,16.5,3.7,21.5
		c6.3,3.6,12.7-1,18.4-4.5c15.8-9.8,31.6-19.8,47.5-29.5c6.8-4.2,8.9-2.7,12.7,8.5c-12.4,9.6-24.8,19.8-37.8,29
		c-11.5,8.1-18.1,18.6-22,32.1c-15.6,53.7-32,107.1-48,160.6C5495,3714.3,5493,3723.4,5485.6,3730.1z"/>
	<path onclick="modals(this.id);"  id="1639" class="st0" d="M5612.5,3116.3c8.8-28.8,10.3-55.5,12.9-81.9c5.6-57,10.7-114.1,15.9-171.2
		c1.6-17.4,3.7-34.3,14.8-49.1c2.6-3.5,2.9-10.6,1.4-15.2c-4.8-15.2-10.5-30.2-16.6-44.9c-2-4.7-5.8-9-9.7-12.4
		c-12.9-11.6-26.3-22.5-39.1-34.2c-2.6-2.3-3.2-6.8-5.1-10.8c4.6-1.3,8.3-2.6,12.2-3.2c5.6-0.9,9.8-3.6,12.5-8.7
		c7.9-15.4,14-31.8,26.4-46c5.7-0.4,12.3-1.6,18.8-1.3c26.6,1.3,53.2,3,79.8,4.6c18.6,1.1,37.2,2.5,55.9,3.2
		c11.6,0.4,16.1-3.8,18.1-16.3c3-19.8,5.4-39.6,8.4-59.3c1-6.5,2.5-13.1,5.2-19c1.4-3.1,5.5-6,9-6.8c5-1.2,10.7-1.5,15.8-0.5
		c30,6.1,59.9,12.5,89.9,19.1c5.2,1.1,10.4,2.8,15.1,5.1c3.5,1.7,6.7,5,5.9,9.5c-3.3,19.7-6.6,39.3-10.3,58.9
		c-4.2,22.2-8.9,44.4-13.3,66.6c-7.7,39.4-9.2,79.4-9.5,119.4c-0.1,18.6,0.3,37.2-3.6,55.7c-1.9,9-1.3,18.6-1.6,27.9
		c-2.2,86.6-4.8,173.2-6.4,259.8c-0.6,33.5-7.7,66.1-11.5,99.2c-4.2,35.7-10.6,71.1-16.2,106.7c-4.4,27.9-11,55-31.3,76.3
		c-2.4,2.5-8.2,2.6-10.6-0.1c-1.7-2-3.7-3.8-5.2-5.9c-3.9-5.4-7.7-10.9-11.4-16.4c-20.8-31-41.3-62.1-62.3-93
		c-24.8-36.3-48.8-73-76.6-107.2C5662.4,3190.6,5637.9,3154,5612.5,3116.3z"/>
	<path onclick="modals(this.id);"  id="1602" class="st0" d="M5776.7,2111.7c25.3-3.5,50.4,0.7,75.6,1.8c14.6,0.6,29.2,1.5,43.8,2
		c6.2,0.2,13.5-5.5,14.7-11.4c3-15.7,5.9-31.3,8.2-47.1c0.5-3.7-0.7-7.9-2.2-11.5c-3.8-9.7-9.7-18.5-6.9-30.3
		c1-4.2-3.2-9.8-5.6-14.5c-4.3-8.2-9.6-15.9-13.5-24.3c-1.5-3.2-0.6-7.9,0.3-11.6c0.5-2.1,3-4.5,5.2-5.4c2.3-0.9,5.4-0.8,7.8-0.1
		c48.7,13.6,97.2,27.6,145.9,41.1c25.6,7.1,51.4,13.6,77.2,20.2c18,4.6,36.2,8.6,54.3,13.2c31.1,8,60.8,19.2,88.2,36.2
		c40.7,25.3,86.5,33.2,133.2,37.7c22.4-2.7,45.1-4.2,67.2-8.5c15.9-3.2,31.5-4.8,47.5-3c18.5,2.1,36.9,4.7,53.8,6.8
		c7.8,4.1,10.6,10.1,13.5,16c11.6,24,20.7,49,28.5,74.5c2.7,8.8,4.5,18.1,5,27.3c1.7,33.2,2.8,66.5,4,99.7c0.3,9.3-5.7,15.8-14,15.6
		c-5.3-0.1-10.6-0.4-15.9-0.8c-43.8-3.8-87.5-7.3-131.3-11.5c-38.4-3.7-76.7-8.3-115.1-12c-39.7-3.9-79.5-7-119.3-10.8
		c-38.4-3.7-76.8-8-115.2-11.8c-38.4-3.7-76.9-6.9-115.3-10.7c-34.4-3.4-68.8-7.2-103.2-10.9c-11.1-1.2-20.2-5.4-26.7-15.2
		c-28.3-43.5-57-86.8-85.3-130.3c-2.1-3.2-2.4-7.5-3.6-11.2L5776.7,2111.7z"/>
	<path onclick="modals(this.id);"  id="1703" class="st0" d="M5417.2,4840.2c-11,9.9-22.2,17.5-24.4,32.1c-0.6,4-5.4,5.6-9.5,5.1c-6.6-0.7-13.1-2-19.7-2.9
		c-25.1-3.5-50.1-7.2-75.2-10.4c-9.9-1.2-16.4,3.8-16.5,12.6c-0.4,24-1,48-0.1,71.9c0.3,9.1,3.6,18.2,6.7,27
		c6.2,17.6,13.3,34.9,19.7,52.3c2.3,6.1,4,12.5,6,18.9c-4.1,3.2-6.8,6.2-10.2,7.7c-8.5,3.8-17.4,6.8-26,10.1
		c-9.9,3.8-19.9,7.6-29.8,11.7c-9.5,4-12.5,10-9.6,18.8c1.6,5.1,3.5,10.1,5.3,15.1c7.3,20.2,8.1,20.5,32.1,16.6
		c8.4-1.4,13,0.8,15.7,8.3c10.8,30.1,21.7,60.2,31.9,90.4c3.7,10.9,9.3,18.6,20.6,22.3c13.9,4.6,27.2,10.9,41.2,15.4
		c12.5,4,25.4,6.7,38.9,10.1c1.6,3,3.7,6.4,5.1,10c8.6,22,11.4,21.8,32.8,18c2.6-0.5,5.3-0.3,7.9,0.1c4.5,0.7,6.3,4.3,7.4,8.2
		c1.2,4.2,0.1,8.1-3.6,10.3c-3.3,2-7.1,3.4-10.9,4.3c-7.8,1.8-15.8,2.8-23.5,4.6c-13.2,3.1-24.7,8.9-34.2,19.2
		c-11.7,12.8-24.3,24.7-36.7,36.8c-4.2,4.1-9.6,4.2-14.9,2.1c-10-3.9-18.9-9.5-26.4-17.5c-21.8-23.5-43.7-46.8-65.9-69.8
		c-7.4-7.6-15.4-14.8-24.1-20.7c-15.6-10.5-32.3-18.4-52.1-17.2c-6.9,0.4-11.4-5.7-11.4-13.6c0-34.7-0.1-69.3,0.3-104
		c1.2-103.9,2.9-207.9,4-311.8c1.4-134.6,2.5-269.2,3.5-403.9c0.1-13.3-1.4-26.6-1.8-39.9c-0.2-6.6-0.4-13.4,1-19.7
		c0.7-3,4.8-6.8,7.9-7.5c6.4-1.3,13.2-1.1,19.8-1c74.8,1.8,148.8,10.4,222.2,25.1c18.3,3.7,36.5,7.4,54.7,11.7
		c11.6,2.8,16.6,8.8,16.2,19.4c-1.3,46.6-3,93.2-4.7,139.8c-0.2,5-7.4,9.2-11.9,7.1c-7.3-3.3-14.4-6.8-21.6-10.3
		c-10.7-5.3-21.4-10.9-32.2-16.1c-9-4.3-16.1-1.8-19.3,6.9c-3.2,8.7-6.1,17.6-9.1,26.4c-7.5,22.8-15.2,45.5-22.2,68.4
		c-3.8,12.3-10,21.7-22.9,25.3c-27.7,7.7-26,17.9-18.5,37.6c5.2,13.7,10.2,27.4,15.6,41c1.9,4.8,7.4,7.5,13.3,6.6
		c5.2-0.8,10.3-3.3,15.5-3.4c3.4,0,8.9,2.2,10,4.9C5396.4,4780,5406.6,4810.2,5417.2,4840.2z"/>
	<path onclick="modals(this.id);"  id="3029" class="st0" d="M9247.5,7486.5c-37.5-23-75.2-45.6-112.4-69c-14-8.8-28-15.5-42.2-11.5c-12-6.8-12.9-17-16-25.4
		c-29-78.8-57.6-157.7-86.1-236.6c-11.3-31.3-22.2-62.7-33.3-94.1c-1.2-3.5,3-8.5,6.3-7.9c1.3,0.2,2.7,0,4,0.3
		c17.8,5.5,36,10,53.4,16.7c139.2,53.7,278.4,107.4,417.3,161.9c64.5,25.3,53,12.7,38.8,75.4c-7.6,33.8-16.8,67.2-25,100.8
		c-5.3,22-9.3,44.2-11.9,66.8c-3.3,29.1-9.2,57.9-14.3,86.7c-15.9,89.3-42.3,176.1-65.2,263.7c-0.5,2.1-3,3.7-4.7,5.5
		c-1.8,1.8-7.8-1.3-9.8-5c-1.3-2.3-2.7-4.6-3.8-7c-10.9-24.3-21-49-27.8-74.8c-2.7-10.3-5.8-20.5-8-30.9c-0.7-3.6,1-7.6,1.8-12.6
		c10.9,3.2,21,6.4,31.3,8.9c5.6,1.4,10.3-1.3,13.9-5.7c16.7-20.1,24.6-44,28.3-69.4c0.5-3.3-2.3-7.3-4.3-10.5
		c-1.3-2.1-3.9-3.7-6.2-4.9c-20.4-9.8-40.9-19.4-61.4-29.1c-6.3-3-12.5-2.9-19.4-1.5c-15.5,3-16.5,2.2-19.9-10.1
		c-6-21.8-11.7-43.7-17.8-65.5C9251.9,7496.6,9249.6,7491.7,9247.5,7486.5z"/>
	<path onclick="modals(this.id);"  id="1638" class="st0" d="M5640.7,2802.6c-9.3,20.1-12.9,39.6-14.7,59.6c-5.8,66.4-11.9,132.7-17.9,199
		c-0.5,5.3-1,10.6-2.1,15.8c-4,19.2-7.8,27.9-28,12.5c-21.6-16.5-46.6-26.2-72.1-33.4c-38.6-10.9-75.6-25.6-112.6-40.8
		c-46.8-19.3-95.3-33.9-143.4-49.5c-19-6.2-37.8-12.8-56.6-19.6c-5.2-1.9-8.4-6.8-8.7-12.4c-0.6-10.6-0.7-21.3-0.5-32
		c1.6-94.6,3.1-189.2,5.1-283.7c0.5-26.6,2.4-53.2,3.8-79.7c0.2-3.2,5.6-6.5,9-5.9c3.9,0.7,8.1,0.8,11.7,2.2
		c18.7,7.1,36.7,15.4,52.5,28.2c33.1,26.8,66.8,53,100.3,79.4c7.3,5.8,14.4,11.9,22.3,16.8c6.7,4.2,14.1,8.2,21.6,9.8
		c18.2,3.7,36.1,8.8,54.9,10.1c27.9,2,55.6,5.8,83.5,8.5c10.5,1,17.2,5.5,19,16.6c1.1,6.8,6.2,11.5,11.4,15.9
		c11.3,9.4,22.1,19.3,33.6,28.3c9.9,7.7,16.1,17.4,19.6,29.3C5634.7,2785.4,5637.5,2792.9,5640.7,2802.6z"/>
	<path onclick="modals(this.id);"  id="3034" class="st0" d="M10430,8204.3c-18.5,7.4-38.5,7.9-58.3,9.9c-18.5,1.9-37,5-55.6,6.4c-19.8,1.5-39.6,1.6-59,2.3
		c-6.4,2.4-7.1,8.2-8.8,13c-7.6,21.3-15,42.7-22.5,64.1c-3.1,8.8-6.2,17.6-9.6,26.3c-2.3,6.1-9.5,8.9-16.7,7
		c-2.6-0.7-5.2-1.3-7.7-2.2c-64.4-22.4-56.5-5.7-36.2-70.5c5.2-16.5,11.1-32.8,16.7-49.2c1.7-5,3.4-10.1,4.8-15.2
		c2.4-8.8-0.9-16.8-8.5-20c-8.6-3.6-17.3-7-26-10.3c-34.8-13.3-69.7-26.4-104.5-39.8c-6.2-2.4-12.3-5.2-18-8.5
		c-3.5-2-5.4-5.8-4.5-10.2c1.6-7.8,2.9-15.7,5-23.4c35.4-129.7,70.9-259.4,106.3-389.1c2.1-7.7,3.8-15.5,6.2-23.2
		c5.9-19.1,11.4-38.3,18.5-56.9c6.8-17.7,22.2-29.7,32.3-45.4c16.7-25.9,36.5-49.1,61.2-67.8c1.5-1.1,4.8-0.3,7.1,0.3
		c0.8,0.2,1.6,2.3,1.5,3.5c-0.1,2.6-0.7,5.3-1.3,7.9c-2.9,14.3-6.1,28.7-8.8,43c-7.2,38.5-6.8,76.8,4.8,114.6
		c6.6,21.6,12.6,43.5,20.3,64.8c32.2,88.9,63.4,178.1,92.2,268.2c18.3,57.1,38,113.6,60.4,169.2
		C10425.5,8182.7,10430.7,8192.1,10430,8204.3z"/>
	<path onclick="modals(this.id);"  id="1693" class="st0" d="M5999.3,3961.1c4.7,1.5,9.9,2.9,14.8,4.9c51.8,21,103.5,42.1,155.2,63.3c4.9,2,9.6,4.5,14.2,7.1
		c3.8,2.1,5.9,6.2,4.8,10c-8.7,32.5-9.2,65.8-11.5,99c-1.6,23.9-3.9,47.8-6.5,71.6c-0.8,7.9-2.6,15.8-5.1,23.3
		c-15.5,46.8-27.9,94.4-37.9,142.6c-3.3,15.6-8.3,30.7-16.3,44.8c-11.8,20.8-22.8,42.1-34.4,63.1c-3.9,7-7.3,14.8-12.9,20
		c-19.9,18.5-32.1,42.3-46.5,64.6c-2.2,3.4-4.3,6.7-6.4,10.1c-17.7,27.9-17.7,32.5-54.2,22.6c-7.6-2.1-15.8-3.1-23.7-3
		c-6.5,0.1-13.2,1.8-19.2,4.2c-7.7,3-13.7,8.6-15.6,17c-3.4,15.5-6.1,31.2-9.6,46.7c-0.3,1.3-4.5,3.1-6.3,2.6
		c-3.7-1-7.7-2.7-10.4-5.4c-10.3-10.4-20.8-20.6-29.8-32c-9.1-11.4-16.9-23.9-24.5-36.4c-11.1-18.4-23.4-35.2-42.3-46.9
		c-8.9-5.5-16.8-13.2-24-21c-5.3-5.7-8.8-13-12.7-18.9c16.6-32.2,69.6-115.8,88.4-139.6c13-2.9,26,1.3,39,2.7
		c12,1.4,19.3-2.1,21.5-12.3c4.3-19.8,12-37.7,22.2-55.2c5.9-10,8.2-22.4,10.8-34c11.3-49.3,22.1-98.6,33.2-148
		c11.1-49.3,22.2-98.6,33.3-147.9C5988.9,3973.1,5990.3,3965,5999.3,3961.1z"/>
	<path onclick="modals(this.id);"  id="1757" class="st0" d="M5550.3,6195.6c-5.2-10.4-3.4-19.8-2.5-29c4.6-47.7,9.3-95.4,14.1-143.1
		c0.8-7.9,2.1-15.8,3.6-23.6c9.6-48.3,19.3-96.6,29.1-144.8c2.1-10.4,5-20.7,7.6-31c1-4.1,5.4-6.4,9-5.1c17.8,6,33.5,16.1,49.3,25.9
		c4.8,3,7.5,7.6,7.2,13.3c-0.7,13.3-0.9,26.7-2.9,39.8c-6.2,42.1-10.1,84.6-19.2,126.3c-2.8,12.9-4.3,26.3-4.5,39.5
		c-0.4,36,0.1,71.9,0.5,107.9c0.1,8,0.9,15.9,1.5,23.9c0.6,8.2,3.7,15.1,9,21.7c20.1,24.8,40,49.8,59.6,75.1
		c32.6,42.2,64.8,84.6,97.1,126.9c33.1,43.4,66,87,103.9,126.5c2.7,2.8,4.8,6.3,7.8,10.4c3,29.6,4.1,60,2.3,87.7
		c-4.2,9.7-11.2,11.3-17,14.1c-10.8,5.2-21.8,9.9-32.8,14.6c-28.3,12-32.8,13.1-17.3,43c3.7,7.1,7.1,14.4,11.7,20.8
		c4.2,5.7,6.2,11.2,6.1,18.2c-0.1,5.1,1.7,10.5,3.5,15.4c3,7.8,7.8,14,17,14.7c10.6,0.8,21.2,1.9,31.9,2.1c21.3,0.4,42.6,0,63.9,0.4
		c9.3,0.1,18.6,0.4,27.7,2c7,1.2,11,7.1,13.4,13.4c0.6,1.7-1.4,6.4-2.7,6.6c-9.1,1.4-18.3,2.8-27.5,2.8c-30.6,0-61.3-0.7-91.9-0.8
		c-6.6,0-13.2,1.1-19.7,2.5c-2.2,0.5-4.8,3.1-5.4,5.2c-1.4,5-2.4,10.3-2.5,15.5c-0.4,25.3-0.6,50.6-0.6,75.9
		c0,14.7-1.2,29.3-5.5,43.4c-1.3,4.3-7.1,9.4-11.6,9.5c-9.3,0.3-18.6,0.8-27.9,0.4c-27.9-1.1-55.9-1.9-83.8-4.1
		c-69.9-5.5-54.7,11.1-58.5-62.4c-2-38.4-3.2-77.1,0.3-115.7c0.8-8.5-3.6-15.7-12.7-17.8c-10.6-2.4-15.6-8.4-15.5-19.5
		c0.4-69.3,0.6-138.5,0.5-207.8c0-11.2,4-20.8,8.9-30.2c18.5-35.4,37.2-70.7,55.6-106.1c3-5.9,5.6-12,7.7-18.3
		c0.7-2.2,0.1-5.4-1-7.6c-1.9-3.4-4.5-6.6-7.1-9.5c-39.1-43.6-78.5-87.1-117.4-130.9c-9-10.2-19-18.2-31.8-23.3
		C5570.2,6206.4,5559.8,6200.3,5550.3,6195.6z"/>
	<path onclick="modals(this.id);"  id="1736" class="st0" d="M9133.9,6395.8c-6.1,0.8-10.5-2.3-14.3-6.1c-23.8-23.3-47.6-46.6-71.3-70
		c-4.7-4.7-9.2-9.7-13.8-14.4c-5.7-5.8-12.1-10.1-20.3-11.8c-45.6-9.3-90.5-22.3-137.4-24.7c-9.2-0.5-18.4-2.8-27.5-4.5
		c-40.1-7.5-79.5-4.3-118.5,7c-4.4,1.3-8.8,8.3-7.7,12.6c1.4,5.1,2.6,10.3,4.4,15.2c7.8,21.3,15.6,42.5,23.6,63.7
		c6.4,17,3.6,23-14.9,29.4c-3.8,1.3-7.5,3.7-11.2,3.7c-3.5,0-7.8-1.5-10.3-3.9c-2.8-2.6-4.3-6.7-5.8-10.4
		c-26.5-65.4-52.9-130.8-79.3-196.3c-2.9-7.3-1.4-13.6,4.6-17.5c24.6-15.9,49.5-31.4,74-47.4c79.3-51.5,158.6-103,237.9-154.6
		c3.3-2.2,6.4-5.3,10-6.4c4.9-1.5,10.3-2.1,15.4-1.9c3.8,0.2,7.7,2.1,11.4,3.5c74.7,28.2,149.4,56.5,224.1,84.8
		c4.9,1.9,10.1,3.8,14.3,6.9c2.8,2.1,5.9,6.4,5.7,9.5c-0.8,9.2-2.6,18.4-5.1,27.4c-16.1,59.1-32.5,118.1-48.8,177.1
		c-9.2,33.4-18.2,66.8-27.6,100.1C9142.6,6377,9140.6,6387.5,9133.9,6395.8z"/>
	<path onclick="modals(this.id);"  id="1750" class="st0" d="M7650.8,6923.8c1-34.7,1.4-68,3.1-101.2c1.9-37.3,1.9-74.4-0.6-111.8
		c-3-43.8-3.6-87.8-5.3-131.7c-0.2-5.4,0.5-10.6,5.8-15c7.2,0.8,15.1,1.8,23,2.5c9.5,0.8,14.5-2.7,16.4-13
		c4.7-24.8,9-49.8,13.1-74.7c6.3-38.1,12.6-76.2,22-113.7c1-3.9,1.1-8.4,3.3-11.4c2.1-2.8,6.3-5.7,9.6-5.7c10.6,0,21.2,1.3,31.8,2.2
		c19.3,1.8,20.2,6.5,19.2,22.9c-0.2,2.6-0.5,5.6,0.5,7.9c1.6,3.4,3.7,7.7,6.7,8.9c7.3,3.1,15.1,5.3,22.9,6.8
		c31.4,6.1,62.8,11.7,94.2,17.6c3.9,0.7,7.8,1.6,11.7,2.5c4.5,1.1,9.3,7.4,8.6,11.9c-1.4,10.5-3.2,21-4.7,31.5
		c-0.6,4.3,3.5,11.6,7.5,13.1c10,3.7,19.9,7.4,30,10.7c13.9,4.6,28,8.6,41.8,13.4c4.8,1.7,9.1,4.9,15,8.1
		c-3.5,6.7-5.6,13.2-9.6,18.2c-22.3,28-32.8,60.6-38.8,95.1c-0.9,5.2-1.9,10.5-3,15.7c-2.1,9.4-8.7,14-17.2,11.7
		c-14.1-3.9-28-8.4-42.1-12.4c-3.8-1.1-7.9-2.6-11.6-2c-3.6,0.5-8.5,2.6-9.8,5.3c-3.9,8.4-6.7,17.3-9.1,26.2
		c-11.8,45.1-23.3,90.2-34.9,135.3c-19.2,74.8-38.4,149.5-57.7,224.3c-1.7,6.4-4,12.7-6.1,19c-1.2,3.6-6.8,5.7-9.5,3.5
		c-3.2-2.4-6.6-4.5-9.4-7.3c-34.5-33.3-69-66.6-103.4-100C7660.1,6934.5,7656.8,6930.4,7650.8,6923.8z"/>
	<path onclick="modals(this.id);"  id="1599" class="st0" d="M7568.9,2154.3c-5.5,1.1-8.2,2.3-10.7,2c-20.9-2.4-38.9,5.4-57.1,14.2
		c-12.3,6-23.4,12.5-30.2,24.8c-6.4,11.6-16.8,16.5-29.6,17.1c-5.3,0.3-10.8,0.3-15.9,1.6c-3.6,0.9-7.6,3.2-9.8,6.1
		c-6.6,8.3-12.3,17.4-18.6,25.9c-3.3,4.5-7.8,7.1-13.6,6.6c-9-0.6-15.1,3.9-19.7,11.1c-21.9,35-43.2,70.3-65.8,104.9
		c-9.9,15.2-15.5,34-32.7,43.7c-17.5-3.7-30.2-16.2-44.7-25.1c-35.2-21.6-69.7-44.1-104.5-66.3c-4.5-2.9-8.9-5.9-13.2-9
		c-6.3-4.5-8.2-11.1-4.7-17.3c5.3-9.2,10.8-18.4,16.4-27.3c39.8-63,79.8-125.9,119.6-189c37.7-59.6,75.2-119.4,112.8-179.1
		c3.5-5.6,7.4-11.1,11.6-16.1c2.6-3.1,6.9-4.4,10.8-2.6c31.5,14.2,63,28.5,94.4,43.1c13.5,6.3,24.5,16.7,33.8,27.7
		c24,28.2,55.1,45.7,87.4,61.5c20.4,9.9,40.8,19.5,59.4,32.6c3.3,2.3,6.3,4.9,9.4,7.3c2.8,2.2,3.3,7.9,0.8,10.6
		c-2.7,2.9-5.4,5.9-8.2,8.7C7619.4,2099.6,7587.9,2122.6,7568.9,2154.3z"/>
	<path onclick="modals(this.id);"  id="1704" class="st0" d="M5526.9,5097.3c-4.9-0.3-8.9-1.1-12.7-0.5c-6.6,1.1-10.9-2.7-12.7-7.3
		c-9.6-24.8-18.4-50-27.6-75c-2.3-6.2-4.9-12.4-7.8-18.4c-1.1-2.2-3.4-5.1-5.5-5.4c-15.2-2.2-17.5-14.5-21.5-25.8
		c-8.8-25.1-18.1-50.1-26.9-75.2c-5.1-14.6-3.3-20.1,11.5-29c11.4-6.8,12.9-14.1,9.6-23.1c-12.7-35-26-69.9-39.2-104.7
		c-1.8-4.8-7.3-7.5-13.1-6.6c-5.2,0.8-10.4,2.2-15.6,3.1c-4.3,0.7-8.4-0.9-10-4.6c-4.2-9.8-7.8-19.8-11.2-29.8
		c-2.3-6.7,0.7-13.1,8.9-14.9c18.2-3.9,26.6-16.2,31.7-32.3c8-25.4,16.2-50.7,24.4-76.1c1.2-3.7,3-7.4,5.4-10.4
		c1.4-1.8,5-3.4,6.9-2.9c6.3,1.9,12.4,4.6,18.4,7.5c15.6,7.4,31.1,15.1,46.7,22.4c4.3,2,11.3-2.4,11.9-7.1
		c0.8-6.6,1.8-13.2,2.2-19.8c1.7-37.3,3.2-74.5,4.8-111.8c0.4-9.3,1.2-18.6,1.9-27.8c0.3-3.3,5.1-7.4,8.2-7c3.9,0.5,8,0.6,11.8,1.7
		c36,9.6,72,19.3,108,29.3c11.5,3.2,22.9,7,34.1,11.2c4.8,1.8,9.1,5.3,13.4,8.5c5.4,3.9,7.8,12.3,5.5,17.8c-1,2.5-2,4.9-3.2,7.3
		c-20.8,40.2-41.5,80.5-62.5,120.6c-5.2,9.9-9.9,14.5-22.4,8.4c-1.2-0.6-2.4-1.2-3.7-1.6c-8.2-2.1-14.1,0-16.9,6
		c-1.7,3.6-3.3,7.3-4.8,11c-6.9,17.3-13.2,34.9-20.9,51.8c-7.1,15.6-6.1,27.7,9.1,37.9c9.2,6.2,13.2,16.2,14.4,27.4
		c2.8,25.1,6.7,50.2,9,75.4c2.8,29.7,12.1,56.9,27.4,82.5c15.7,26.3,30.2,53.3,45,80.2c5.1,9.3,9.4,18.9,14.1,28.6
		c-2.8,6.9-5,13.1-7.7,19.2c-3.9,8.8-9.8,15.5-19.5,18.8c-4.9,1.7-9.6,4.7-13.8,7.9c-1.8,1.4-2.8,4.6-3,7.1c-0.2,3.9,0.4,8,1.2,11.8
		c4.6,20.8,9,41.7,14.3,62.3c4.1,15.8,6.5,23.6-13.4,30.6c-1.2,0.4-2.3,1.4-3.5,2c-6.5,3.5-9.8,9-9,16.3c0.7,6.6,2.5,13.1,3.2,19.7
		c0.9,7.9,1.3,15.9,1.6,23.9c0.3,7.7-5.6,12.1-13.1,10.1c-5.1-1.4-10.3-2.7-15.2-4.8c-7.6-3.2-13.4-8.3-16.5-16.3
		c-13.5-34.7-27.2-69.5-40.9-104.1C5534.6,5114.1,5530.6,5105.8,5526.9,5097.3z"/>
	<path onclick="modals(this.id);"  id="1578" class="st0" d="M6224.5,1417.7c13.2,2.1,24.2,9.8,35.9,15.9c4.3,2.2,6.1,8.5,4.2,13.8
		c-1.4,3.7-4.3,7.2-4.6,10.9c-0.3,3.6,0.6,8.6,3,10.9c4.7,4.6,10.5,8,16.2,11.4c19.4,11.6,39,22.9,58.4,34.5
		c6.9,4.1,8.8,10,5.6,16.8c-9.6,20.5-19.4,40.8-28.9,61.4c-2.7,6-4.4,12.4-6.5,18.7c-0.9,2.6,2.6,8.4,5.8,9.5
		c7.5,2.7,14.9,5.6,22.6,7.7c23.1,6.2,46.3,11.9,69.4,18.2c6.4,1.7,12.6,4.3,18.5,7.2c1.9,0.9,3.7,4.3,3.5,6.4
		c-0.4,5.2-1,10.8-3.2,15.4c-3.3,7.2-7.8,13.9-12.2,20.5c-59.7,89.7-115.1,182.1-172.2,273.5c-9.2,14.6-19.5,28.5-29.5,42.6
		c-5.3,7.5-12.7,8.8-21.2,6.6c-18-4.7-36.1-9.2-54.1-13.9c-9.7-2.5-13.6-8.2-11.9-17.3c1.9-10.5,4.2-20.8,6.1-31.3
		c2.1-12,2.3-23.4-6-34.1c-3.7-4.7-2-13.4-7.6-17.8c-8.1-6.4-21.2-7.1-24.7-18.5c-2.8-9.1-6.2-17.5-11.8-25
		c-13.5-18.4-23.9-38.4-31.3-59.9c-10.3-30.4-18.2-61.2-11-93.7c2.3-10.5,5.1-20.6,11.2-29.6c6.7-9.9,12.4-20.5,19.6-30
		c36.1-47.9,66.4-99.6,99.2-149.6c14.6-22.2,28.8-44.7,43.3-67C6214.2,1426.2,6217.6,1420.4,6224.5,1417.7z"/>
	<path onclick="modals(this.id);"  id="1577" class="st0" d="M6926.3,1596c-13,20.2-26.5,41.5-40.3,62.7c-48.7,74.8-97.4,149.6-146.2,224.3
		c-4.4,6.7-8.8,13.3-13.4,19.9c-2.9,4.2-9.2,5.4-14.3,3.1c-2.4-1.1-4.9-2.2-7.2-3.4c-95.5-50.2-191-100.4-286.4-150.6
		c-1.2-0.6-2.3-1.4-3.4-2c-6.8-4-9.3-10.8-5.6-16.6c6.4-10.1,13.1-20.1,19.7-30.1c4.9-7.5,11.8-10.5,20.5-8.2
		c15.4,4.1,30.7,8.7,46.2,12.6c7.7,1.9,15.7,3.1,23.6,4c5.6,0.7,11.3-1.5,14.2-5.9c24.5-37.9,52.9-73.6,67.4-117.4
		c9.2-27.9,21.5-54.4,35.3-80.3c12.5-23.5,23.9-47.6,35.9-71.3c2.5-5,9.1-7.4,13.4-5.1c28.2,15,56.5,29.9,82.5,48.8
		c21.5,15.7,43.1,31.4,65,46.5c26.3,18.1,53,35.7,79.6,53.3C6918.3,1584,6924,1587.3,6926.3,1596z"/>
	<path onclick="modals(this.id);"  id="1755" class="st0" d="M6036.3,7057.2c22.3-3.5,43.4-2.4,64.6-0.1c4.8,0.5,8.9,5,9.9,10.8c1.4,7.6-0.9,16.2,6.2,23.3
		c2.8,0.6,6.6,2.1,10.5,2.1c45.3,0.4,90.6,0.5,135.9,0.7c2.6,0,5.2-0.9,7.8-1.3c4.9-0.7,9-8,6.5-12.2c-5.5-9-11.3-18-17.1-26.8
		c-4.4-6.6-9.2-13-13.9-19.6c-4.1-5.8-5.3-12.2-3.8-19c1.8-7.8,4.2-15.4,5.9-23.2c2.5-11.5-0.9-16.9-12.8-20.5
		c-7.5-2.3-15.1-4.3-24-6.9c0.5-4.1,0.6-7.7,1.4-11.1c6.8-27.1,13.3-54.2,20.6-81.2c4.5-16.7,9.6-33.2,15.5-49.4
		c2.2-6,7.2-11,11.2-16.2c2.9-3.7,10.7-4,14.6-1.1c1.1,0.8,2.4,1.3,3.4,2.1c31.9,28.3,63.8,56.5,95.7,84.9
		c8,7.1,15.6,14.5,23.4,21.8c20.6,19.5,36,42.4,46.8,68.8c9.6,23.4,21.3,45.9,31.4,69.1c9.9,22.7,25.4,40.5,44.9,55.1
		c22.3,16.8,44.8,33.5,67.2,50.3c6.3,4.7,12.5,9.6,17.9,13.6c0,4.2,1,7.5-0.2,9.1c-17.9,24.8-36.1,49.5-54.3,74.1
		c-5.2,7-12.1,9.9-20.9,8.5c-3.9-0.6-8.1-1.1-11.9-0.5c-3.8,0.6-9,1.8-10.6,4.5c-7.6,13.4-18.9,12.8-31.2,9.5
		c-16.7-4.5-33.3-9.5-50.1-13.5c-6.8-1.6-13.2,0.8-17.3,7c-4.4,6.6-8.5,13.5-13,20.1c-2.2,3.2-4.8,6.5-7.9,8.7
		c-1.7,1.2-5.3,1.3-7.2,0.3c-1.8-1-3.2-4-3.3-6.2c-0.2-2.4,0.8-5.3,2.1-7.4c2.8-4.5,6-8.9,9.4-12.9c26.6-30.6,23.1-33.7-15.9-43.7
		c-59.3-15.2-118.5-30.9-177.8-46.5c-12.9-3.4-26-6.1-38.5-10.6c-27.6-10.1-55.1-20-84.6-22.3c-1.3-0.1-2.6-0.5-3.9-0.8
		c-63.3-17.6-57.4-4.9-41.5-69.5C6029.4,7071.6,6033.3,7064.6,6036.3,7057.2z"/>
	<path onclick="modals(this.id);"  id="1830" class="st0" d="M8350,8522.4c-2.7,10.7-5.7,22.3-8.6,33.9c-1,4,2.9,12.1,6.5,13.6c4.9,1.9,9.9,3.7,15,5.3
		c41.9,13.2,83.8,26.4,125.8,39.6c8.9,2.8,17.8,5.4,26.7,8.4c9.7,3.2,13.1,8.7,10.5,18c-7.5,26.9-15.3,53.8-22.9,80.7
		c-1.8,6.4-3.5,12.8-5.4,19.2c-4.9,16.7-9.4,19.3-26.1,14.3c-98.3-29.2-195.8-61-293.5-92.4c-126.8-40.8-253.8-80.9-380.7-121.3
		c-8.9-2.8-17.6-6.5-26.7-8.3c-24.7-4.8-34.6-22.3-39-44.5c-0.3-1.6,2.9-5.6,4.2-5.5c6.6,0.6,13,2.3,19.6,3.3
		c10.1,1.4,15.6-1.7,18.7-10.6c4.7-13.8,9.1-27.8,13.9-41.6c2.6-7.5,5.8-14.9,8.9-22.3c1.8-4.3,8.6-7.7,13.3-7
		c2.6,0.4,5.3,0.6,7.9,1.3c23.1,6.5,46.5,12,69.1,19.8c88.2,30.4,177.7,56.4,266.7,84.2c14,4.4,27.8,9.2,41.8,13.5
		c5.1,1.5,10.4,2.1,15.6,3c4.7,0.8,12-2.8,13.5-6.6c1-2.5,2-5,2.9-7.5c10.2-29.7,8.4-33,41.6-22.3c22.8,7.3,45.9,13.8,68.9,20.6
		C8343.8,8512.7,8347.6,8516.1,8350,8522.4z"/>
	<path onclick="modals(this.id);"  id="1669" class="st0" d="M5722.3,3803.3c-0.9-5.4-2.3-9.3-2.2-13.2c1.2-46.6,2.8-93.1,4-139.6
		c0.3-12.8,4.4-23.5,15.4-30.6c12.1-7.8,17.9-19.4,20.5-32.9c3.3-17.1,8.9-33.4,16.3-49.1c2.2-4.6,5.7-9.3,9.8-12.1
		c19.7-13.2,39-27.2,59-38c11.1,4.3,15.2,13.2,20.5,20.7c54.8,77,109.3,154.1,164.1,231.1c61.7,86.7,123.5,173.4,185.2,260.1
		c6.2,8.7,12.2,17.4,17.8,26.4c1,1.6-0.2,4.8-0.8,7.1c-0.2,0.7-2.3,1.6-3.1,1.3c-7.6-2.5-15.1-5-22.5-8
		c-62.8-25.5-125.7-51-188.4-76.9c-17.2-7.1-34-15.1-50.6-23.6c-37.9-19.4-75.6-39.1-113.2-59.1c-35.2-18.7-70.8-36.7-107.9-51.6
		C5737.8,3811.8,5729.9,3807.1,5722.3,3803.3z"/>
	<path onclick="modals(this.id);"  id="1733" class="st0" d="M5623.8,5272c3.2,11.3,6.7,22.7,9.6,34.2c3.3,12.9,6,25.9,9.2,38.9c3,12.2,6.9,15.1,20.2,12.1
		c9.5-2.2,18.3-2.2,27.5,0.2c29.5,7.9,59.5,13.6,87.4,27.1c14.1,6.8,30.5,9,45.9,13.3c6.4,1.8,12.8,3.5,19.1,5.5
		c5.1,1.6,8.9,7.7,7.5,12.4c-6.2,20.3-12.2,40.8-19.3,60.8c-1.5,4.4-6.7,8.4-11.1,10.7c-11.8,6-24.3,10.9-36.4,16.4
		c-5.6,2.6-7.1,7.8-6.4,13.3c0.7,5.2,4.5,12.2,0,15c-18,11.1-11,25-5.1,38.3c9.9,22.3,16.7,44.9,13.3,69.6c-0.4,2.6-1.1,5.2-1.6,7.8
		c-0.6,3-7.5,5.3-9.9,3.2c-4-3.4-8.8-6.2-11.8-10.4c-18.5-25.4-43-43.3-70.3-57.9c-12.9-6.9-25.8-13.9-38.7-20.8
		c-22.4-11.9-43.8-25.2-63.3-41.6c-11.1-9.4-23.9-16.8-35.9-25.2c-12.1-8.5-24.8-15.5-40-16.7c-11.3-0.9-20.6-6.3-27.2-15.1
		c-16.9-22.2-40.2-34-65.6-43.2c-13.7-5-26.7-11.9-39.9-18c-2.8-1.3-4-8.4-1.9-10.6c12-12.4,23.4-25.5,36.2-37.1
		c5.6-5.1,13.6-8.3,21.1-10.6c10.1-3.1,20.7-4.9,31.2-6.7c22.3-3.8,26.5-8.4,16.3-32.4c-2.6-6.1-4.7-12.5-8.2-18
		c-1.8-2.8-6.2-5.1-9.7-5.6c-3.7-0.5-7.7,1.4-11.6,2.1c-14.1,2.7-14.7,2.4-21.2-10.7c-1.2-2.4-2-4.9-3.2-7.3
		c-3.1-6.4-7.7-11-15.2-10.7c-27.8,0.9-51.1-13.2-75.7-22.8c-5.2-2-8.2-6.5-10.1-11.7c-7.6-21.3-15.2-42.6-22.8-64
		c-4-11.3-7.5-22.8-11.8-34c-6.5-17-10.6-19.3-26.9-13.5c-2.5,0.9-5.2,1.4-7.8,1.4c-4.1,0.1-7.7-1.4-9.6-5.4
		c-2.5-5.1-1.4-12.6,2.2-14.5c16.4-8.9,33.8-15.2,52-19.2c4.6-1,7.9,2.1,9.5,5.7c3.2,7.3,5.6,14.9,8.4,22.4
		c4.6,12.5,9.6,24.8,13.9,37.4c3.3,9.5,9.9,15.6,18.3,20.2c7,3.8,14.2,7.4,21.4,10.8c13,6.1,25.7,5.8,38.2-1.6
		c20.5-12.3,41.3-24.4,61.5-37.1c10.6-6.7,21.7-9.7,34-9.1c5.7,0.3,10,2.6,12.2,8.3c9.7,24.8,19.6,49.5,29.4,74.3
		c3.9,9.9,8.4,19.7,11.4,29.8c4.7,15.7,15.5,24.2,30.5,28.6c5.1,1.5,10.3,2.8,15.3,4.7C5613.4,5266.8,5618,5269.3,5623.8,5272z"/>
	<path onclick="modals(this.id);"  id="1575" class="st0" d="M6001.1,1267.3c2-8,5.5-22.2,8.9-36.4c0.6-2.6,0.9-5.2,1.2-7.9c1-7-0.1-13.8-6.9-17.2
		c-11.4-5.6-14-15.1-13.4-26.4c3-62.8-4.3-50.7,28.4-114c4.9-9.4,9.8-18.9,14.8-28.2c5.4-10,9.7-10.9,17.7-4.1
		c5,4.2,9.7,9.6,15.6,11.9c16.4,6.4,30.6,16.1,44.2,26.7c12.8,10,27.3,16.1,42.5,21.3c61.8,21.1,120.8,48.5,177.3,81.2
		c9.1,5.3,17.9,11.7,25.6,18.8c24.4,22.6,48.4,45.5,72.2,68.8c10.5,10.3,20.4,20.8,33.7,27.7c15.9,8.3,16.8,14.3,7.7,28
		c-7.3,11.1-14.1,22.5-21.6,33.5c-28.6,41.7-53.4,85.8-78.5,129.6c-3.3,5.7-7,11.3-10.6,16.8c-1.6,2.4-8.3,4.4-10.8,3
		c-20.7-11.9-41.4-23.8-62-35.9c-4.4-2.6-5.3-7.4-2.8-14.1c1.4-3.7,4-7.3,4.2-11c0.2-3.5-0.9-8.9-3.4-10.6
		c-8.7-5.9-18-11.2-27.6-15.7c-39.9-18.8-75.7-44.3-112.3-68.4c-6.4-4.2-7.1-7.9-4.2-17.2c4.7-14.7,4.3-18.4-4.3-24.2
		c-25.5-16.9-51.1-33.5-76.8-50c-6.3-4-13.7-2-17.4,3.9c-2.1,3.4-4.6,6.7-5.8,10.4c-3.9,12.2-12.9,15.3-24.6,16.1
		C6003.5,1284.5,5998.8,1281.4,6001.1,1267.3z"/>
	<path onclick="modals(this.id);"  id="1946" class="st0" d="M5591.1,1657.2c-3.1-2.3-6.3-3.5-7.1-5.6c-13-34.8-25.9-69.7-38.5-104.6
		c-2.2-6.2,1.3-12.9,8-16.4c8.2-4.3,16.6-8.4,25-12.5c41.9-20.2,84-40.1,125.8-60.7c46.5-23,92.6-46.8,139-70
		c13.1-6.5,26.4-12.5,40-17.8c33.1-13,67.9-11.5,102.4-9.9c7.8,0.4,15.5,3.5,23.2,5.7c19.2,5.5,38.2,11.4,57.5,16.6
		c13.8,3.7,20,1.5,27.2-9.8c18.2-28.7,16-30,48.2-8.8c15.6,10.2,31.4,20.1,46.9,30.3c15.7,10.4,16.7,14.1,7.5,28.6
		c-30.8,48.2-61.8,96.3-92.8,144.4c-2.1,3.3-5.1,6.1-8.8,10.3c-13.2,3-27.8,3-42.3,3.8c-13.2,0.8-26.5,3-41.2-0.2
		c-19.5-26.7-50.6-36.2-81.3-44.1c-24.6-6.3-48.5-13.9-72.1-22.8c-5-1.9-10-3.5-15-5.4c-8.9-3.4-17.9-4.9-27.3-2.4
		c-3.9,1-7.8,1.9-11.7,2.4c-35.1,4.3-36.5,4.3-35,41.8c1.8,42.8,3.2,38.8-36.5,54.4c-39.6,15.6-79.4,30.6-119.2,45.7
		C5605.5,1652.9,5597.9,1655,5591.1,1657.2z"/>
	<path onclick="modals(this.id);"  id="1829" class="st0" d="M8510.4,8760.7c0.7-4,1.3-9.2,2.7-14.2c8.9-32,17.9-64,27.1-95.9c1.1-3.7,3.2-7.4,5.6-10.4
		c1.5-1.8,4.6-3.5,6.8-3.2c6.6,0.7,13.2,1.9,19.5,3.9c48.3,14.8,96.4,30.1,144.8,44.5c23,6.8,29.1,8.4,37-19.8
		c2.1-7.6,5.3-15,8.8-22.1c0.9-1.8,4.3-2.9,6.7-3.2c2.5-0.3,5.2,0.6,7.7,1.4c94.5,31.9,188.9,63.8,283.3,95.8
		c3.7,1.3,7.4,3.2,10.5,5.6c1.8,1.5,3.1,4.5,3.2,6.9c0.2,3.9-0.1,8.1-1.2,11.8c-13.9,47.2-28,94.3-42.2,141.4
		c-1.1,3.8-2.7,7.6-4.8,10.9c-2.1,3.3-5.1,6.5-9.7,5.4c-9-2-18.1-4-26.9-6.7c-103-31.5-205.8-63.2-308.8-94.7
		c-49.6-15.1-99.3-29.7-149-44.5C8523.7,8771.3,8515.9,8769.3,8510.4,8760.7z"/>
	<path onclick="modals(this.id);"  id="1828" class="st0" d="M9386.5,8897.3c1.2,3.4,2.4,7.1,3.9,10.8c1,2.4,2.4,4.7,4.3,8.5c9,3,18.9,6.6,29.1,9.6
		c25.5,7.6,51,15.1,76.6,22.3c12.5,3.5,19.4-0.1,25.2-12.6c7.9-16.9,15.4-33.9,23.2-50.8c1.9-4.2,9.5-7,13.7-5.3
		c7.4,3,14.9,5.8,22.1,9.2c27.6,12.7,29.8,15,40.8,44.9c8.3,22.5,16.3,45,23.8,67.7c4.3,13.3,12.3,23.1,23.5,31.1
		c8.5,6,18.4,10.5,25.5,19.9c-5.2,18.2-14.2,34.4-21.9,51.2c-4.4,9.6-9.7,13.2-22.3,9.4c-64.8-19.8-129.8-39.1-194.8-58.6
		c-126.1-37.8-252.1-75.6-378.2-113.5c-10.2-3.1-20.3-6.4-30.4-9.7c-4.5-1.5-8.2-8.3-7.3-12.8c0.3-1.3,0.2-2.7,0.6-3.9
		c10.3-34.4,20.5-68.8,31-103.1c3.5-11.5,8.7-13.8,21.4-10c29.2,8.9,58.4,18.2,87.7,27.1c10.3,3.1,20.6,4.4,30.7-2.2
		c2.8-1.8,8-1.5,11.4-0.3c7.5,2.6,14.6,6.4,21.8,9.8c43.3,20.2,85.9,42.3,131.5,57.4C9381.7,8894,9383.8,8895.8,9386.5,8897.3z"/>
	<path onclick="modals(this.id);"  id="1751" class="st0" d="M8920.5,7001.3c-4.7,5.6-9.9,6.3-15.1,4.5c-17.7-5.9-35.4-11.6-52.7-18.5
		c-73-29.1-145.8-58.6-218.6-88.1c-63-25.5-125.8-51.1-188.7-76.8c-8.6-3.5-17.5-6.7-25.7-11c-2.8-1.5-3.9-6-6.2-9.7
		c49.3-22.8,98.8-42.4,148-62.7c19.7-8.1,39.1-16.9,58.8-25c51.7-21.3,103.5-42.5,155.3-63.5c11.9-4.8,15.8-2.7,21,9.9
		c2,4.9,3.9,9.9,5.8,14.9c14.7,40,29.3,80,44,120c22,60,44.1,120,66,180C8915.4,6984.2,8917.9,6993.1,8920.5,7001.3z"/>
	<path onclick="modals(this.id);"  id="1621" class="st0" d="M7748.5,2796.2c10.8-17.4,12.2-34.9,16.9-51.4c13-45.3,3.4-39.6,52.6-52.8
		c20.5-5.5,40.9-11.5,61.5-17c23.2-6.3,45.5-14.3,66.3-26.7c11.3-6.8,23.7-12,35.6-17.7c4.1-2,11.8,2,12.6,6.6
		c2.1,11.7,5.2,23.4,5.7,35.3c0.9,17.7,6.1,33.7,14.1,49.3c10.3,20.1,19.2,40.9,29.8,60.9c6.7,12.6,7.7,25.1,4.3,38.5
		c-3.2,12.7-6.5,25.4-9.6,37.5c-13,3.2-21.7-4.8-31.7-7.6c-6.3-1.7-12.5-3.9-18.9-5.1c-2.1-0.4-5.8,1.1-6.9,2.9
		c-3.5,5.5-6.9,11.3-9.1,17.4c-11.2,31.3-21.9,62.7-32.9,94c-1.3,3.7-2.8,7.4-5.1,10.6c-1.4,1.9-4.2,3.2-6.6,3.9
		c-2.4,0.8-5.2,0.9-7.8,0.6c-26.5-2.4-52.7-6.6-78.2-14.6c-21.6-6.7-43.2-13.1-64.9-19.6c-11.8-3.5-21.8-9.6-30-18.8
		c-5.3-5.9-10.8-11.8-16.2-17.6c-33-35.8-33-35.8-46.6-81.6c-3.6-12.2-0.7-17.1,12-19.1C7712.5,2801.3,7729.6,2799,7748.5,2796.2z"
		/>
	<path onclick="modals(this.id);"  id="1735" class="st0" d="M8523.1,5826.5c4.7-13.3,15.3-19.7,24.9-26.5c3.7-2.6,10.4-2.9,15.2-1.8
		c9,2.1,17.7,5.8,26.3,9.2c75.6,29.6,151.2,59.2,226.8,88.9c31,12.1,61.9,24.3,92.9,36.5c6.2,2.4,12.4,4.9,18.5,7.5
		c9.6,4.2,9.8,10,0.6,17c-2.1,1.6-4.2,3.3-6.4,4.8c-8.8,6.1-17.4,12.3-26.4,18.1c-81.8,52.5-163.6,104.9-245.5,157.3
		c-7.8,5-15.9,9.6-24,14.3c-4.1,2.4-11.3,0.5-14.1-3.5c-0.8-1.1-1.5-2.2-2.2-3.3c-28.6-48.1-57.1-96.2-85.6-144.3
		c-0.7-1.1-1-2.5-1.5-3.7c-2-4.3,0-11.1,4.4-14.1c7.7-5.3,15.8-10,23.2-15.6c14.8-11.3,29.3-23,43.5-34.9c2.9-2.4,4.2-6.6,6.8-10.9
		C8579,5886,8545.3,5860.4,8523.1,5826.5z"/>
	<path onclick="modals(this.id);"  id="1811" class="st0" d="M7177.8,7944.6c3.2-2.4,6.2-5.2,9.5-7.1c25.2-14.8,50.7-29.2,75.7-44.3
		c14.7-8.9,28.8-19,43.2-28.5c6-3.9,12.7-3.4,18,1.8c19.1,18.6,38,37.2,59.3,58c9.8,2.2,22.6,5.9,35.7,7.8
		c13.7,2,25.5,6.3,35.3,16.4c7.4,7.7,15.9,8.9,24.8,2c3.1-2.4,6.6-4.4,10.1-6.3c1.1-0.6,3.4-1,3.8-0.5c1.4,1.8,3.5,4.4,3.1,6.1
		c-4.1,15.4-8.9,30.6-12.9,46c-2.4,8.9-4.1,18.1-5.4,27.2c-0.3,1.8,2.3,5.1,4.3,5.8c3.6,1.4,7.7,1.8,11.6,1.8
		c7.9-0.1,15.8-1.7,23,0.3c3.7,6.2-0.3,10.7-1.2,15.5c-1,5.4,2,11.5,6.3,13.2c4.9,2,9.8,4.2,14.9,5.6c34.6,9.4,69.2,19.2,104.1,27.6
		c10,2.4,21,0.5,31.5,1.2c2,0.1,4,3.1,5.5,5.1c0.7,0.9,0.4,2.6,0.3,3.9c-3.6,29-7.2,58.1-11,87.1c-1,7.4-6.4,11-14.2,10.2
		c-4-0.4-7.9-0.9-11.9-1.5c-19.7-3-39.4-6-59.1-9.2c-45.9-7.6-91.8-15.5-137.7-22.9c-9.5-1.5-17.9-4.5-25.2-10.8
		c-77.8-66.7-155.7-133.2-233.4-200C7182.8,7953.5,7181.2,7949.6,7177.8,7944.6z"/>
	<path onclick="modals(this.id);"  id="1595" class="st0" d="M5203.5,1746.8c-2.8-17-5.2-31.4-7.3-45.8c-1.3-8.7,5-14.6,14.5-14.3
		c20.3,0.8,39.1,7.4,57.5,15.4c7.3,3.2,14.4,6.8,21.7,10c4.1,1.8,12.2,0.1,14.8-3.1c4.9-6.3,9.6-12.7,14.5-19.1
		c8.5-11.2,12.9-22.9,6.9-37.1c-2.6-6-3.3-12.8-4.5-19.4c-5-27.3-4-29.2,23.1-34.5c43.2-8.5,85.1-21.4,126.3-36.9
		c14.9-5.6,30.2-10.4,45.4-15.5c4.9-1.6,10.8,1.4,12.8,6.8c13.4,36.2,26.8,72.4,40,108.7c3.7,10.2,4,20.8,1.4,31.5
		c-4.1,16.8-8.1,33.7-12,50.5c-1.8,7.8-3.8,15.5-5.2,23.4c-2.7,14.6,0.3,20,14,23.6c29.6,7.9,59.3,15.3,88.9,23
		c10.3,2.7,20.6,5.5,30.8,8.4c7.4,2.2,10,7.3,8,15.4c-2.2,9-4.4,18.1-6.9,27.1c-3.6,12.7-10.4,16.6-24.3,12.7
		c-37.2-10.4-74.2-21.3-111.3-31.9c-102.5-29-204.9-58-307.4-87C5232,1755.1,5219.3,1751.3,5203.5,1746.8z"/>
	<path onclick="modals(this.id);"  id="1576" class="st0" d="M6447,1660.3c0.3-1.3,0.6-2.6,0.7-3.9c0.6-7.7-2.8-14.2-8.7-16c-6.3-2-12.8-3.6-19.2-5.4
		c-28.1-7.9-56.2-15.8-84.3-23.8c-2.7-0.8-5.8-7.3-4.9-10c1.3-3.8,2.3-7.6,4-11.2c9.7-20.4,18.8-41.1,29.4-61.1
		c37.8-71.9,79.9-141.2,125.8-208.2c4.4-6.4,10.8-7.8,17.2-3.2c45.5,32.6,93.2,61.6,140.7,91c2.2,1.4,4.4,3,6.2,5
		c2.7,2.9,5,6.4,3.7,10.7c-1.1,3.8-2.3,7.6-4,11.1c-10.4,21.6-20.1,43.5-31.7,64.4c-13.6,24.6-24.6,50.2-33.8,76.5
		c-8.4,24-19.1,46.7-33.9,67.4c-2.3,3.3-4.3,6.7-6.5,10.1c-34.3,52-19.9,44.4-77.9,30.5c-6.4-1.5-12.7-4-18.8-6.7
		c-3.6-1.6-6.2-4.8-5.5-9.4C6445.8,1665.4,6446.4,1662.9,6447,1660.3z"/>
	<path onclick="modals(this.id);"  id="1596" class="st0" d="M5782.6,1647c9.9-0.4,20.4-1.2,31-1c5.4,0.1,9.9,3,11.3,9.2c1.6,7.1,5.9,12,13.4,12.5
		c14.6,0.9,29.2,1.5,43.8,1.8c6.3,0.2,12.1-5.6,12.8-12.9c1.4-13.2,2-26.5,3.6-39.7c2.3-19.8,5.1-39.5,7.8-59.3
		c0.6-4.5,7.2-8.1,12.2-7.2c21.3,3.7,40.3,13.3,59.3,22.7c4.5,2.3,9,6.2,11.6,10.5c7.2,11.9,17.5,14.5,30.5,14.3
		c18.5-0.3,36.9-5.1,55.4-1.3c0.9,0.2,1.7,1.8,2.2,2.9c0.5,1.1,1,2.9,0.5,3.6c-9.7,14.3-19.6,28.5-29.2,42.8
		c-22.9,34.1-26.3,44.1-29.4,85.1c-0.4,5.3-0.9,10.7,0,15.9c6.7,40.9,16.3,80.8,40.4,115.7c3.8,5.5,7.3,11.1,10.5,16.9
		c1.2,2.2,2.1,5.2,1.7,7.5c-0.7,3.7-2,7.6-4.2,10.5c-1,1.4-5.2,1.7-7.3,0.8c-24.6-10-49.4-19.7-73.6-30.6
		c-14.7-6.6-29.4-11.7-45.4-14.2c-32.8-5.2-65.5-11.5-98.1-17.6c-5.2-1-10.8-2.1-15.1-4.8c-21.9-13.7-47-18.1-70.9-25.7
		c-40.4-12.8-34.6-9.1-25.3-46c5.5-21.8,14-43,21.5-64.2c2.2-6.2,5.4-12,8.9-17.6C5768.4,1667.8,5775.2,1658.1,5782.6,1647z"/>
	<path onclick="modals(this.id);"  id="1601" class="st0" d="M6605,2114c7.1-3.8,13.7-2.6,20.3-1.8c38.3,4.9,76.6,9.8,114.9,14.9c10.6,1.4,21,3.7,31.6,5
		c33.4,4.2,59.5,21.9,83,44.4c2.9,2.8,5.5,5.8,8.2,8.8c24.7,27.1,25.3,27,33.3,62c5.4,23.5,13.8,45.7,23,68
		c15.3,37.2,26,75.6,23.3,116.5c-0.2,3.8-1.3,7.8-3.1,11.2c-0.9,1.6-4.7,3.1-6.6,2.5c-11.8-3.7-20.3-12.5-29.1-20.4
		c-23.1-20.8-50.5-34.6-77.7-48.7c-9.3-4.8-20.1-7-30.2-10.1c-43.5-13.6-88.7-17.8-133.6-23.5c-5.3-0.7-10.8-0.9-15.6-2.9
		c-3.3-1.3-7-4.7-7.9-7.9c-1.9-6.3-2.5-13.1-2.7-19.7c-0.8-24-1.8-48-1.7-71.9c0.1-27-3.8-53-14.4-78c-5.2-12.2-9.4-24.9-13.7-37.5
		C6605.2,2121.2,6605.4,2117.3,6605,2114z"/>
	<path onclick="modals(this.id);"  id="1775" class="st0" d="M5597.2,6966.1c17.2,1.5,34.4,3.4,51.6,4.5c25.2,1.6,50.4,2.9,75.7,3.7
		c41.2,1.3,82.5,2.1,123.7,3.3c3.9,0.1,7.8,1.5,11.7,2.3c3,0.6,7.5,5.8,7.2,8.4c-0.6,5.3-0.7,10.7-2.1,15.8
		c-15.9,57.7-32,115.3-48.2,172.9c-2.1,7.6-8.1,11.6-14.7,10c-19.4-4.8-39.2-8.4-57.9-15c-31.6-11.2-64.8-14.3-97.3-20.6
		c-4.5-0.9-10.8,3.5-12.2,8.2c-1.9,6.3-3.2,12.9-5.5,19c-3.8,9.9-11.8,14.6-22.3,12c-29.6-7.4-59.1-15.5-88.6-23.6
		c-7.1-1.9-9.7-7.6-7.6-15.8c7-28.4,13.8-56.9,21.7-85c7.9-28.2,16-56.2,16.3-85.9c0.1-7.4,5.7-12.7,12.6-12.8
		c12-0.2,23.9-0.1,35.9-0.1C5597.1,6966.8,5597.1,6966.5,5597.2,6966.1z"/>
	<path onclick="modals(this.id);"  id="1794" class="st0" d="M7330.7,7779.4c3.5-4.9,5.9-9.6,9.4-13.2c10.2-10.5,20.5-20.8,31.2-30.7c4-3.7,9.7-4.4,15.1-3.3
		c10.4,2.3,20.6,5.3,31,7.4c7.8,1.6,15.7,3.1,23.5,3.3c3.1,0.1,7.5-2.9,9.3-5.8c2.7-4.4,4-9.8,5.1-15c2.2-10.4,4.1-20.9,5.9-31.4
		c4.1-25,10.4-49.3,22.8-71.7c2.5-4.6,4.5-9.7,5.9-14.7c1.5-5.3,1-10.9-3.1-14.8c-7.6-7.4-15.7-14.2-23.5-21.3
		c-0.8-0.8-1.5-3.2-1.1-3.6c1.6-1.5,4-3.7,5.5-3.3c60.1,17.1,119.6,35.7,175.6,64.2c28,14.2,50.4,34.2,70.3,57.6
		c4.3,5.1,7.6,10.9,11.7,16.1c7.5,9.6,11.7,20.2,14.6,32.2c6.8,27.8,8.1,54.9-0.1,82.6c-6.8,22.9-11.9,46.3-17.9,69.4
		c-1.3,5.1-8.7,6.3-12.4,1.8c-17.8-21.5-35.5-43.1-53.2-64.7c-10.1-12.3-20.1-24.8-30.1-37.2c-11.1-13.8-25.3-23.3-41.1-30.7
		c-4.4-2.1-11.9,1-13,5.7c-3.5,14.2-7.1,28.3-10,42.6c-2.7,13-4.9,26-10.9,38.6c-4.3-0.8-8.5-0.6-11.7-2.3
		c-9.3-5.2-18.6-10.5-27-16.9c-23-17.6-50.4-23.2-77.6-29.4c-6.7-1.5-13.1,0.1-18.4,5c-9.8,9-19.7,17.9-29.7,26.6
		c-4.8,4.2-10.6,4.5-14.3,0.8C7358.3,7809.3,7343,7796.5,7330.7,7779.4z"/>
	<path onclick="modals(this.id);"  id="1744" class="st0" d="M8782,6623.6c-4.3,7.5-10.2,10.5-16.4,13c-27.2,10.9-54.4,21.6-81.5,32.5
		c-13.6,5.4-27.1,10.9-40.6,16.6c-66.2,27.9-132.3,55.9-198.5,83.8c-2.4,1-4.9,2.1-7.4,3c-7.7,2.9-16.3-4.4-14.9-13.1
		c1.7-10.5,3.6-21,6-31.3c7.3-31.1,14.7-62.1,22.3-93.1c10.3-42.7,20.7-85.3,31.2-127.9c1.9-7.7,4.4-15.3,6.9-22.9
		c1.6-4.9,7.1-7.9,12.7-7.2c4,0.5,8,0.6,11.8,1.6c72.3,17.9,144.6,35.8,216.8,53.8c2.6,0.6,5.2,1.3,7.8,1.9
		c6.9,1.6,12.3,5.5,14.8,12.1C8763.2,6572.2,8774.6,6597.7,8782,6623.6z"/>
	<path onclick="modals(this.id);"  id="3039" class="st0" d="M10159.7,8197.6c-8.4,24.9-17.3,51.3-26.1,77.7c-15.7,46.6-31.5,93.2-47,139.9
		c-2.5,7.5-3.7,15.4-5.2,23.2c-0.8,4.2,3.8,11.5,7.8,12.8c10.1,3.3,20.3,6.5,30.3,9.9c3.7,1.3,7.3,2.9,11,4.4
		c2.8,1.2,5.3,7.1,4.1,10.3c-10.2,28.8-20.5,57.5-30.8,86.3c-0.3,0.8-1.9,1.2-3.5,2.1c-3.2-1.5-7.1-2.5-10.2-4.8
		c-52.9-38.1-105.8-76.2-158.6-114.5c-3.2-2.3-6.8-4.7-9-7.8c-2.1-3-3.8-7.3-3.5-10.8c0.6-6.5,2.6-13,4.5-19.4
		c26.1-85.2,52.4-170.3,78.6-255.5c1.2-3.8,2.9-7.3,4.5-10.9c1.3-3,6.9-5.5,10.2-4.4c8.8,3,17.6,5.9,26.3,9.2
		c33.6,12.7,67.2,25.4,100.7,38.2C10150,8186.1,10155.9,8189,10159.7,8197.6z"/>
	<path onclick="modals(this.id);"  id="1793" class="st0" d="M7472.9,7601.7c-4.3,10.1-7.1,17.6-10.6,24.7c-6.5,13.3-10.7,27.2-12.5,41.8
		c-0.8,6.6-2,13.1-3.5,19.6c-9.7,42.3-2.9,42.4-47.5,30.2c-5.1-1.4-10.3-2.5-15.5-3.9c-8.5-2.4-15.9-0.4-22,5.7
		c-16,16-31.8,32.2-47.4,48.5c-6,6.2-5.5,14.5,0.9,21.4c12.7,13.6,25.8,26.8,38.4,40.5c2.6,2.8,4,6.8,5.6,10.3
		c0.4,0.9-0.1,2.4-0.6,3.5c-4.1,8.5-15.9,11.9-23.4,6.7c-4.4-3-8.1-7.2-12.8-9.3c-3.2-1.5-8-1.6-11.3-0.3c-4.9,1.9-9.2,5.2-13.5,8.4
		c-17.1,12.6-34.5,24.1-54.3,32.7c-20.5,9-38.9,22.8-58.3,34.4c-6.8,4.1-13.9,7.8-21,11.4c-3.9,2-8.3,1-10.9-2
		c-18-21.2-35.5-42.8-50.1-68.2c6.1-5.8,11.4-11.7,17.6-16.4c24.3-18.5,49-36.6,71.5-57.4c36.2-33.3,72.7-66.2,109-99.5
		c3.9-3.6,7.8-7.6,10-12.2c1.4-2.9,0.7-8.4-1.3-11c-4-5.2-9.3-9.3-14.4-13.6c-9.1-7.7-18.5-15.1-27.5-23c-4.4-3.8-5.3-9.1-3.5-14.5
		c1.6-5,3.5-10,5.6-14.9c10.1-23.1,20.3-46.3,30.6-69.3c11.3-24.9,11.7-25.1,38.9-14.6c26,10.1,51.9,20.5,77.8,30.8
		c2.5,1,5,1.9,7.4,3c7.6,3.5,13.6,7.9,12.2,17.9c-0.8,5.6,2.5,10.2,6.8,13.7c5.1,4.2,10.6,8,15.7,12.3
		C7463.3,7592.4,7467,7596.1,7472.9,7601.7z"/>
	<path onclick="modals(this.id);"  id="1668" class="st0" d="M5620.5,3457.6c29.8-23.4,111.9-80.3,139.2-96.5c2.9,1.8,7.3,3,9.3,5.9
		c21,30.7,41.8,61.6,62.4,92.5c4,6,2.6,13.1-3.7,17.3c-15.4,10.5-30.8,21-46.5,30.9c-10.5,6.6-18.1,14.6-22.2,26.8
		c-5.5,16.4-11.8,32.4-14.6,49.6c-1.1,6.8-4.8,12.4-10,16.8c-7.1,6-14.2,12-21.6,17.7c-18.8,14.8-37.7,29.4-56.6,44.1
		c-32.5,25.3-66.5,48.8-94.4,79.6c-7.1,7.8-15.8,9.3-25.5,6.3c-7.6-2.4-15.1-5.2-22.6-7.9c-4.4-1.6-7.2-8.2-5.9-13.3
		c0.3-1.3,0.5-2.6,0.8-3.9c17.3-57.2,34.8-114.3,51.8-171.7c3.2-10.9,9.1-18.9,17.9-25.4c13.9-10.3,27.7-20.6,41.4-31.1
		c9.4-7.1,10.3-11.7,5.2-24c-1-2.4-2.5-4.7-3.5-7.1C5621.1,3463.1,5621.1,3461.7,5620.5,3457.6z"/>
	<path onclick="modals(this.id);"  id="1796" class="st0" d="M6830.4,7513.1c9.8,3.4,21.1,7.3,32.3,11.2c16.3,5.8,32.2,12.8,48.9,17.1
		c28.9,7.4,54.2,21.5,78.7,37.7c32.2,21.3,64.3,42.5,96.6,63.6c7.8,5.1,15.3,11.5,23.9,14.1c14.7,4.5,25.5,13.5,35.8,24.1
		c16.6,17.2,33.5,34.2,50.1,51.5c3.6,3.7,6.3,8.3,9.9,13.1c-4,4.6-7.1,8.9-11,12.3c-30.9,27.3-64.4,51.4-97.7,75.7
		c-6.3,4.6-12.4,3.6-17.3-2.4c-2.5-3.1-5-6.2-7.4-9.4c-12-15.9-24.7-31.4-35.7-48c-11.5-17.3-27-28.6-45.1-38
		c-47.2-24.4-94-49.7-140.9-74.8c-9.4-5-18.6-10.3-27.8-15.7c-5-2.9-7.6-7.7-7.6-13.2c-0.1-33.2-0.1-66.4,0.6-99.6
		C6816.6,7524.7,6819.8,7517,6830.4,7513.1z"/>
	<path onclick="modals(this.id);"  id="1795" class="st0" d="M7467.7,7933.1c-8.1-4.1-16-9.1-24.6-12.1c-7.4-2.6-15.6-2.8-23.5-4.2
		c-5.2-0.9-10.4-2.1-15.6-3.3c-7.9-1.9-14.9-5.4-20.5-11.6c-7.1-7.9-14.5-15.5-21.7-23.4c-3.3-3.6-2.4-10.7,1.6-14.1
		c20.2-17.2,40.4-34.4,60.6-51.7c5.5-4.7,11.6-5.6,18.5-4c20.8,5,40.7,11.8,58.3,24.5c11.8,8.5,24.4,16.1,36.9,23.7
		c4.4,2.7,9.5,5.1,14.5,5.8c3.2,0.4,8.7-1.6,10-4.2c3.5-7,5.8-14.8,7.7-22.4c4.6-18,8.6-36,13.1-54c0.8-3.4,7.1-5.7,9.8-4
		c3.3,2.1,7.1,3.8,10,6.3c4,3.5,7.6,7.4,10.9,11.6c30.2,37.1,60.2,74.4,90.4,111.5c7.4,9,8.8,18.4,6.4,29.7
		c-7.6,36.4-14.5,72.9-21.5,109.4c-1.8,9.2-3.8,18.1-8.5,25.6c-10.1,1.2-19,2.3-28,3.2c-5.2,0.5-10.8,1.8-15.6,0.6
		c-29.6-7.6-59-15.6-88.4-24.1c-3.1-0.9-5.1-5.3-7.9-8.4c3.7-6.2,7.3-11.8,10.4-17.5c2.7-4.9-0.6-12-5.4-12.3
		c-4-0.3-7.9-0.9-11.8-0.7c-44.4,2.5-38.2,0.5-27.4-38.3c5-17.9,10.6-35.6,15.8-53.5c1.1-3.8,1.8-7.9,1.7-11.8
		c-0.1-2.3-1.6-5.3-3.4-6.5c-1.9-1.3-5.6-1.9-7.4-0.9c-6.7,4.1-13,8.9-19.4,13.6C7485.5,7921.8,7479.1,7931,7467.7,7933.1z"/>
	<path onclick="modals(this.id);"  id="1797" class="st0" d="M6801.8,7504.6c-0.3,36.2-0.5,69.4-0.8,102.5c0,5.3-0.1,10.6-0.4,15.9
		c-0.5,9.9-4.7,14.8-13.9,16.2c-21.1,3.2-42.3,3.9-63.6,3.5c-66.4-1.3-132.9-2.7-199.3-3.7c-33.2-0.5-66.4,0.1-99.7,0.1
		c-9.3,0-13.6-4.8-13.5-15.2c0-4,0.3-8,0.5-11.9c0.1-1.3,0.3-2.7,0.8-3.9c1.7-3.6,3.4-7.2,7.9-7.9c5.2-0.8,10.8-0.8,15.6-2.6
		c3.3-1.2,6.7-4.4,8.3-7.5c2.4-4.6,3.7-10,4.6-15.1c1.3-7.9,1.5-15.9,2.9-23.7c10.8-60.3,1.8-56.4,63-33.9
		c11,4.1,20.9,11.5,31.1,17.7c15.9,9.6,31.6,19.6,47.6,29c5.9,3.5,13.8-1.4,14.3-8.6c0.4-5.3,0.6-10.6,0.8-15.9
		c0.4-13.3,0.5-26.6,1-39.9c0.2-5.3,0.3-10.8,1.9-15.8c1.1-3.5,3.9-7,8.5-7.4c6.6-0.5,13.2-1.3,19.8-1.5c17.3-0.6,34.5-1.1,51.8-1.4
		c22.8-0.4,45.1,1.3,66.2,11.3C6771.6,7491.6,6787.8,7494.3,6801.8,7504.6z"/>
	<path onclick="modals(this.id);"  id="1622" class="st0" d="M6563,2670.7c13.1,22.5,24.4,46.4,46,63.6c7.1,5.7,13.1,13.2,18.2,20.9
		c9.5,14.4,18.2,29.4,26.9,44.4c6.5,11.2,5.1,15.5-6.5,22.3c-13.8,8-27.6,16-40.5,23.5c-8.4,0.5-13.7-3.5-18.8-7.7
		c-31-25.2-62.5-49.8-92.9-75.7c-35.5-30.2-70.1-61.4-105-92.4c-7.9-7-15.5-14.6-22.7-22.3c-1.2-1.3-0.4-4.7,0-7.1
		c0.1-0.7,2-1.7,3.1-1.7c13.3-0.8,26.5-1.3,39.8-2.2c9.4-0.6,15-6,15.4-14.7c0.3-5.3,0.4-10.6,0.4-16c0.1-9.3-0.1-18.7,0.1-28
		c0.2-11.6,5-16,17.8-16.1c9.3,0,18.6,0.8,27.9,0.9c12,0.1,23.9-0.2,35.9-0.5c4.9-0.2,11.4-4.9,11.7-9.4c1.4-20.6,11.6-38,19.7-56.1
		c10.4-23.1,21-46,31.9-68.9c5.6-11.9,16.8-15.9,30.1-10.9c2,0.8,4.7,4,4.5,5.8c-1.8,14.5-3.7,29-6.4,43.3c-3.7,19.6-8.4,39-12,58.7
		c-4.5,24.9-8.7,49.8-10.5,75.1C6575.2,2623.2,6572.2,2646.9,6563,2670.7z"/>
	<path onclick="modals(this.id);"  id="3032" class="st0" d="M9622.4,7414.2c25.9,10.3,49.4,19.5,72.8,29c46.9,19.1,93.6,38.5,140.5,57.5
		c8.6,3.5,17.6,6,26.5,8.8c62.3,19.5,124.6,38.9,186.8,58.4c6.3,2,12.4,4.7,18.6,7.3c3.5,1.4,5.7,8.2,5,14.1
		c-0.5,3.9-4.5,7.9-7.7,7.6c-5.2-0.6-10.6-0.9-15.7-2c-16.9-3.9-33.6-8.3-50.5-12.1c-6.6-1.5-13.7,2.8-16,8.8
		c-0.5,1.3-1.1,2.5-1.3,3.8c-4.8,29.9-11.5,26.7-34.5,22.9c-43.4-7.1-86.8-14-130.2-20.5c-23.9-3.5-46.5-10.1-68.4-20.7
		c-69.5-33.7-139.5-66.4-209.2-99.6c-8.4-4-16.7-8.2-24.8-12.9c-9.3-5.4-10.1-19.2-1.9-26.9c1-0.9,2.4-1.3,3.3-2.2
		c4.5-4.7,8.1-11.1,13.5-14c8.9-4.7,18.1,0.8,26.9,3.2c12.8,3.5,25.5,7.8,38.2,11.5c8.5,2.4,12.7,0.2,19.3-9.3
		C9615.9,7423.5,9618.2,7420.2,9622.4,7414.2z"/>
	<path onclick="modals(this.id);"  id="3037" class="st0" d="M9377.6,7840.9c3.4,0.6,7.4,0.9,11.1,2c42.1,12.6,84.1,25.4,126.1,38.1c5.1,1.5,10,3.7,15.2,4.8
		c40.8,8.5,77.6,27.6,115.5,43.5c12.8,5.3,15.3,11.5,11.2,25.6c-10.8,37-21.8,74-32.9,111c-2.7,9.1-9.2,11.5-18.7,7.1
		c-77.2-35.9-154.4-71.9-231.6-107.9c-4.8-2.2-9.4-5-14.1-7.5c-5.4-2.9-7.5-8.1-6.9-13.3c3.9-33.1,9.7-65.8,18.9-97.8
		C9372,7844.3,9375.1,7843,9377.6,7840.9z"/>
	<path onclick="modals(this.id);"  id="3033" class="st0" d="M9284,7679.7c5.8,21,11.8,42.8,17.7,64.6c1.4,5.1,3.3,10.3,3.3,15.5c0,3.4-2.3,8.7-5.1,9.9
		c-20.6,9.2-41.9,16.6-64.2,20.7c-4.4,0.8-7.8-1.4-10.1-4.7c-2.3-3.2-4.3-6.8-5.6-10.5c-40-109.9-79.9-219.9-119.8-329.9
		c-1.3-3.7-2.8-7.8-2.5-11.6c0.2-3.5,2-7.4,4.3-10.1c1.1-1.3,5.3-0.9,7.5,0c4.9,1.9,9.7,4.3,14.2,7.1c33,20,65.6,40.6,98.9,60.1
		c10.1,5.9,15.8,13.7,18.5,24.5c5.8,23.2,11.7,46.4,17.3,69.6c2.8,11.7,7.5,14.8,20.2,13c2.6-0.4,5.4-0.5,7.8-1.5
		c9.4-4.2,18.2-2.1,26.9,2c10.8,5.1,21.5,10.4,32.4,15.5c20.2,9.3,20.7,15.1,14.1,34.5c-2.9,8.6-8.7,16.4-13.4,24.3
		c-2.4,4.1-9.6,6.7-13.9,5.3c-7.6-2.5-15-5.2-22.6-7.8c-5-1.7-10.1-3.3-15.2-4.8c-4.1-1.2-11.2,5.1-10.7,9.3
		C9284.1,7676.2,9284,7677.5,9284,7679.7z"/>
	<path onclick="modals(this.id);"  id="1774" class="st0" d="M6033.8,6988.1c-1.2,6.2-1.8,11.5-3.1,16.6c-16.1,61.8-32.2,123.6-48.3,185.4
		c-0.7,2.6-1.2,5.2-1.7,7.8c-0.9,4.2,3,12.1,6.9,13.2c11.4,3.5,22.9,7.1,34.4,10.2c30.8,8.4,61.7,16.6,92.5,25.1
		c6.4,1.8,12.5,4.4,18.7,6.8c3.4,1.3,5.5,6.8,3.7,10c-2.1,3.7-5,6-9.4,5.6c-4-0.3-8-0.6-11.8-1.4c-27.4-5.7-54.2-13.4-81.2-20.6
		c-57.9-15.4-116-30-173.9-44.9c-6.4-1.7-12.8-3.6-19.2-5.5c-4.1-1.2-7.8-8.4-7-13.1c0.5-2.6,0.5-5.3,1.2-7.9
		c16.1-60.4,32.3-120.9,48.6-181.2c1.8-6.7,5.9-13,13.3-13.1c42.6-0.3,85.2-0.1,127.7,0.4
		C6027.9,6981.6,6030.7,6985.7,6033.8,6988.1z"/>
	<path onclick="modals(this.id);"  id="1947" class="st0" d="M5888.9,1562.6c-2.3,23.8-4.6,47.6-6.9,71.4c-1.7,17.9-4.7,20.5-21.9,20.2
		c-10.1-0.2-18.4-2.2-20.2-14.2c-0.9-6.1-5.9-9.2-11.3-9.2c-17.2,0-34.5,0.6-51.7,1.3c-5.7,0.2-10,3.6-12.8,8.3
		c-4,6.8-6.6,14.7-11.5,20.7c-8.6,10.7-13.8,22.6-16.2,35.9c-2.3,13.2-7.5,25.2-12.3,37.7c-7.6,19.8-12.4,40.6-18.4,60.9
		c-2.2,7.5-7.7,11.2-14.7,10.1c-1.3-0.2-2.7-0.1-4-0.5c-34.8-8.8-69.5-17.4-104.3-26.4c-11-2.8-14.6-9.4-11.8-21.2
		c5.5-23.3,11.2-46.5,16.8-69.7c1.7-6.9,6-12,12.2-14.8c9.7-4.3,19.7-7.9,29.6-11.7c44.6-17.2,89-34.9,133.9-51.4
		c13.6-5,18.7-13.9,19.1-26.9c0.5-14.6,0.6-29.2,1-43.8c0.2-7.4,4.1-12.2,11.5-13.8c6.5-1.4,13-2.7,19.5-4c6.7-1.4,13.2-1,19.6,1.4
		c14.9,5.6,29.9,11.1,44.7,17c8.9,3.5,11.4,8.3,10.7,18.7c-0.1,1.3-0.2,2.7-0.3,4C5889.2,1562.6,5889.1,1562.6,5888.9,1562.6z"/>
	<path onclick="modals(this.id);"  id="1719" class="st0" d="M5395.7,5155.2c-32.8-6.4-48-26.3-55.8-54.1c-11.8-42.4-26.9-83.7-44-124.2
		c-11.9-28.1-13.7-56.6-11.1-86.1c0.6-6.8,6.5-11.6,13.9-11c30.6,2.6,60.5,9.2,90.3,16.3c5.5,1.3,9.6,5.2,11.6,10.2
		c5.8,14.9,11.1,30,16.5,45c5.5,15,10.7,30.1,16.6,45c1.3,3.4,4.4,7.9,7.3,8.6c12.5,2.7,16.7,11.9,20.2,22.4
		c7.2,21.4,14.8,42.7,22.2,64.1c1.6,4.6-0.8,11.9-4.5,14.3C5452,5123,5425.9,5141.5,5395.7,5155.2z"/>
	<path onclick="modals(this.id);"  id="1753" class="st0" d="M6879.7,7367c5.4,1.4,10.6,2.4,15.6,4c60.8,19.5,121.5,39,182.2,58.6c3.8,1.2,7.5,2.6,11.2,4.1
		c5.2,2,8,8.7,5.5,12.8c-1.4,2.3-2.7,4.6-4.1,6.8c-21.2,32.2-42.4,64.4-63.8,96.5c-3.6,5.5-7.9,10.6-12.4,15.4
		c-1.5,1.6-5.4,2.6-7.3,1.8c-6.1-2.5-11.9-5.7-17.5-9.2c-20.4-12.8-42.1-22.3-65.1-29.5c-26.6-8.3-52.7-18.5-78.9-28.1
		c-9.4-3.4-13.2-10.4-10.4-18.5c12.3-35.1,24.8-70.2,37.5-105.1C6873.4,7373,6876.8,7370.4,6879.7,7367z"/>
	<path onclick="modals(this.id);"  id="1948" class="st0" d="M5699.4,1882.3c6-21.5,11.3-40.8,16.8-59.9c1.3-4.5,8.3-8.9,12.5-7.7
		c26.8,7.7,54.7,11.9,78.9,27c10.6,6.6,22.7,7.5,34.3,9.9c32.6,6.7,65.5,12,98.2,18.1c7.8,1.5,15.7,3.2,23,6.2
		c34.4,14.3,68.6,29.1,102.9,43.8c6.1,2.6,12.3,5.1,18.3,8c32.4,15.9,35.5,11.5,24.2,54.5c-1.3,4.9-4.2,9.4-6.6,14.7
		c-16.7-3.6-32.2-7-47.4-11.8c-19-6.1-38.2-11.5-57.5-16.8c-16.7-4.6-33.8-7.7-50.2-13c-64.7-20.9-130.7-36.5-196.5-53.4
		c-12.9-3.3-25.7-7-38.3-11.1C5708.3,1889.7,5705.4,1886.5,5699.4,1882.3z"/>
	<path onclick="modals(this.id);"  id="1667" class="st0" d="M5546.2,3478.7c-3.3-9.4-0.7-18.6,1.6-27.5c17.1-64.5,26.1-130.5,38-196
		c0.7-3.9,1.3-7.9,1.7-11.9c2.9-30.3,21.8-46.8,47.5-57c2.4,1.2,3.9,1.4,4.7,2.3c37.5,46.7,74.9,93.4,106.6,144.4
		c2.8,4.5,1.8,11.4-2,14.6c-2,1.7-3.9,3.6-6.1,5.1c-53.7,37.1-107.3,74.3-161.1,111.3c-7.6,5.3-15.9,9.7-24.1,14
		c-2,1-5.1-0.1-7.7-0.2L5546.2,3478.7z"/>
	<path onclick="modals(this.id);"  id="1790" class="st0" d="M6366.5,7317c11.7,0,22.1,0,33,0c6.9-10.5,13.3-20.6,20.1-30.3c3.2-4.6,8.3-7.1,13.9-5.5
		c16.5,4.8,33,9.9,49.4,15.1c3.9,1.3,7.3,9.5,6.2,13.5c-0.4,1.3-0.4,2.6-0.9,3.9c-19.7,50.7-39.4,101.4-59.2,152.1
		c-1,2.5-2,5.5-4,6.8c-3.1,2-6.9,3.3-10.6,3.9c-2.4,0.4-5.3-0.6-7.7-1.4c-40.3-13.9-81.9-22.1-123.5-30.4c-9-1.8-18.4-3.1-25.7-9.4
		c-0.6-2.5-2.1-5.1-1.7-7.3c1.8-11.8,3.5-23.6,6.3-35.2c3.4-14.2,8.3-28,11.5-42.2c4.4-19.4,12.7-19.5,29.1-15.7
		c12.9,2.9,25.8,6.3,38.8,8.7c5.3,1,10.4-1.1,13.4-6.3C6358.7,7330.5,6362.6,7323.7,6366.5,7317z"/>
	<path onclick="modals(this.id);"  id="1773" class="st0" d="M6016.1,7152.6c2.6,0.3,5.3,0.4,7.9,1.1c39.7,10.6,80,19.1,119.4,31.2
		c26.6,8.2,53.9,14.1,80.9,21.1c45,11.7,89.9,23.3,134.8,35.3c6.3,1.7,12.5,4.4,18.4,7.3c1.4,0.7,2.4,5,1.6,6.6
		c-3.1,5.8-6.8,11.3-10.6,16.7c-9.8,14.2-19.2,28.6-23.7,45.7c-1.7,6.5-8.7,9.5-16.1,7.6c-18-4.7-35.9-9.7-53.8-14.4
		c-32.1-8.5-64.2-16.8-96.3-25.3c-5.1-1.4-10.1-3.3-15.1-5c-6.1-2.2-8.4-5.6-7.8-11.9c0.5-5.3,2-10.5,1.9-15.7
		c-0.2-5.4-2.8-10.5-8.2-12.6c-19.8-7.7-40.1-13.8-60.8-18.6c-23.3-5.4-46.4-11.4-69.5-17.5c-5-1.3-9.9-3.7-14.4-6.4
		c-1.9-1.1-3.7-4.3-3.6-6.5c0.4-12,2.2-23.9,8.9-34.2C6011.1,7154.9,6014,7154,6016.1,7152.6z"/>
	<path onclick="modals(this.id);"  id="3035" class="st0" d="M9548.3,7873.5c-7.9-2-17-4-25.9-6.7c-39.5-12-78.9-24.2-118.2-36.4c-6.3-2-12.5-4.3-18.7-6.7
		c-5.9-2.3-8.1-9.9-5.2-16.8c2.1-4.8,8.1-7.1,13.1-4.7c9.6,4.6,19.3,9,28.6,14.1c20.9,11.3,25.6,3.3,30.8-14.8
		c4.1-14,8.5-28,12.6-42.1c8.2-28.1,16.4-56.2,24.5-84.3c1.5-5.1,3-10.2,4.7-15.3c5.1-14.7,9.2-14.5,20.5-11.2
		c1.3,0.4,2.4,1.1,3.7,1.6c24.7,10,49.4,19.9,74,30c8.3,3.4,11.3,10.1,9.4,19.4c-0.5,2.6-0.9,5.3-1.6,7.8
		c-14.3,48.5-27.4,97.3-38.5,146.7C9560.3,7862,9558,7869.6,9548.3,7873.5z"/>
	<path onclick="modals(this.id);"  id="3036" class="st0" d="M9677.9,7922.1c-1.6-0.1-3,0.2-4.2-0.3c-30.6-12.8-61.2-25.6-91.7-38.6c-4.9-2.1-7.8-8-6.7-13.2
		c3.6-16.9,6.7-33.9,11.2-50.6c10.8-39.7,22.1-79.3,33.8-118.7c0.8-2.5,6.2-3.8,9.7-5.3c1-0.4,2.6,0.4,3.8,0.9
		c27.1,10.8,54.3,21.6,81.4,32.5c6,2.4,9.3,9.4,8.1,16.5c-1.3,7.8-2.8,15.7-4.6,23.4c-9.6,40-19.3,80-28.9,120
		C9686.9,7900.4,9684.8,7912.1,9677.9,7922.1z"/>
	<path onclick="modals(this.id);"  id="1791" class="st0" d="M7115.9,7639.2c-28.8-15.3-56-33.8-82.3-53.8c-1.8-1.4-2.2-4.7-3.6-7.8
		c23.7-40.9,49.4-81,78-119.3c4.3-5.7,9.9-8.1,17.3-6.6c32.4,6.8,64.9,13.5,97.3,20.3c4.7,1,7.8,8.1,5.7,12.8
		c-3.3,7.2-6.6,14.5-10.2,21.5c-13.2,26-26.8,51.8-39.8,77.9c-6.1,12.2-14.2,22.3-25.4,29.9
		C7141,7622.2,7131.3,7633.7,7115.9,7639.2z"/>
	<path onclick="modals(this.id);"  id="1597" class="st0" d="M6453.3,1795.3c-2,4.2-3.7,9.3-6.5,13.7c-50.8,77.9-101.7,155.7-152.7,233.5
		c-2.1,3.3-4.8,6.4-7.8,8.9c-1.8,1.5-5.5,3-7.2,2.1c-17.7-8.6-36.9-14.3-52.6-26.1c1.2-3.7,1.5-6.5,2.8-8.6
		c23.2-37.2,46.4-74.4,70-111.3c13.5-21.3,28-41.9,41.4-63.3c12.7-20.2,24.4-41,36.6-61.5c3.4-5.7,6.7-11.6,11.1-16.4
		c2.3-2.5,7.9-5.1,10.3-4c17.8,8.7,36.8,15.4,52,28.8C6451.7,1791.9,6452.1,1793.3,6453.3,1795.3z"/>
	<path onclick="modals(this.id);"  id="1742" class="st0" d="M8638.6,6266.7c3.1,2.3,7.5,3.9,8.9,7c5.5,12,10.3,24.4,15.1,36.8
		c23.5,60.6,46.9,121.2,70.3,181.9c1.9,4.8,2.8,10.1,4,15.2c0.8,3.5-3.8,7.9-7.4,7.2c-6.5-1.3-13-2.6-19.4-4.2
		c-34.8-8.3-69.7-16.6-104.4-25.1c-6.4-1.6-12.7-3.9-18.9-6c-5.1-1.7-8.7-7.3-7.7-12.3c1.8-9.1,3.9-18.1,6-27.1
		c10.7-45.2,21.8-90.2,32-135.5C8620.3,6289.5,8627,6277.4,8638.6,6266.7z"/>
	<path onclick="modals(this.id);"  id="1789" class="st0" d="M6227.5,7430.5c-4.9-0.3-9,0-12.9-0.8c-44.3-9.4-88.5-19-132.8-28.7c-2.6-0.6-5.1-1.6-7.6-2.4
		c-5.1-1.6-8.9-6.7-8-12.1c3.3-19.7,6.9-39.3,10.5-58.9c1.2-6.5,3.6-12.9,4.3-19.5c3.8-33.7,12.8-28.3,36.9-22.3
		c43.9,11,87.6,23,131.3,34.7c2.5,0.7,4.9,2.2,6.8,4c1.8,1.7,4.5,4.5,4.1,6.4c-5.1,31.6-14.2,62.1-24.8,92.2
		C6234.2,7426.3,6229.9,7428.3,6227.5,7430.5z"/>
	<path onclick="modals(this.id);"  id="1771" class="st0" d="M6169,6980c14,4.9,27.4,2.3,40.6,3.2c4,0.3,7.9,0.8,11.9,1.2c4.2,0.5,10.2,7.5,9.6,11.1
		c-0.7,3.9-1.5,7.8-2.7,11.6c-5,16.5-3.2,31.3,9.2,44.4c4.5,4.7,7.3,11,10.7,16.6c1.8,2.9-0.7,9.1-3.7,9.7c-2.6,0.5-5.2,1.6-7.7,1.6
		c-33.2-0.2-66.4-0.6-99.6-1c-5.4-0.1-9.4-4.3-9.8-10.2c-0.3-4,0.3-8,0-11.9c-0.6-7.7-4.6-12-12.5-12.7c-11.9-1.1-23.8-1.7-35.8-2.4
		c-6.6-0.3-13.3-0.1-19.9-0.3c-16.7-0.5-20-5.5-15.8-23c3.1-12.9,6.6-25.7,9-38.7c1-5.3-1.8-10.2-7.3-12.8c-2.3-1.1-5.4-2.5-6.2-4.5
		c-1.3-3.4-1.8-7.5-1.2-11.2c0.3-1.9,3.3-4.6,5.4-4.9c7.8-1.1,15.8-1.7,23.7-1.7c21.2,0,42.5,0.3,63.7,0.8c9.9,0.3,17.8,5.2,23.6,13
		C6159.6,6965.2,6164.4,6973,6169,6980z"/>
	<path onclick="modals(this.id);"  id="1741" class="st0" d="M8565.7,6198.4c14.5,2.1,21.2,15.2,31.3,23.2c9.3,7.3,18,15.6,26.1,22.7
		c2.7,6.8-0.5,11.2-3.5,15.4c-9.6,13.1-15.2,27.5-18.7,43.4c-9.9,45.4-21.2,90.5-32,135.6c-1.9,7.7-4.3,15.3-6.5,23
		c-1.6,5.4-6.8,9.3-11.8,8.3c-10.4-2-20.6-4.8-31.1-6.6c-23.4-4.1-24.5-11.2-20.4-29.4c15.1-66,30.8-131.8,45.9-197.8
		C8548.5,6221.7,8553.7,6208.5,8565.7,6198.4z"/>
	<path onclick="modals(this.id);"  id="1792" class="st0" d="M7252.2,7481.7c6.4,1.3,9,1.7,11.5,2.5c32.1,9.4,31.7,13.4,19,41.1
		c-11,24.1-21.6,48.5-32.3,72.7c-2.1,4.9-4.4,9.7-6,14.7c-2.2,6.7-1.6,13.3,3.9,18.3c7.9,7.1,16,14,24.2,20.6
		c18.5,14.8,20.5,17.1-0.1,35.7c-12.8,11.6-25,23.8-37.8,35.3c-3.7,3.3-8.5,5.5-12.6,8c-4.3-3.2-7.9-5.1-10.6-7.9
		c-23.1-23.7-46-47.6-68.7-71c1.1-3.4,1.5-6,2.8-8.1c1.3-2.2,3.2-4.4,5.4-5.7c26.7-15.4,40.8-40.6,53.5-67.3
		c11.4-23.9,24.1-47.3,36.4-70.8C7243.9,7494.1,7247.7,7488.8,7252.2,7481.7z"/>
	<path onclick="modals(this.id);"  id="3040" class="st0" d="M10153.5,8335.7c8.7,3,26.1,9.1,43.5,15.2c4,1.4,7.5,8.9,6.2,13.3c-3.9,14-7.4,28.1-12.1,41.8
		c-21.2,61.7-8.1,55.5-71.7,38.2c-5-1.4-10-3.6-14.5-6.2c-3.4-1.9-6.4-5.4-5-9.7c9.5-28.8,19-57.6,28.9-86.2
		C10131.2,8335.1,10137.4,8332.2,10153.5,8335.7z"/>
</g>
</svg>
