<?xml version="1.0" encoding="utf-8"?>
<!-- Generator: Adobe Illustrator 19.0.0, SVG Export Plug-In . SVG Version: 6.00 Build 0)  -->
<svg version="1.1" id="Layer1" xmlns="http://www.w3.org/2000/svg" xmlns:xlink="http://www.w3.org/1999/xlink" x="0px" y="0px"
	 viewBox="0 0 16383 8800" style="enable-background:new 0 0 16383 8800;overflow: hidden; display: inline; width: inherit; min-width: inherit; max-width: inherit; height: inherit; min-height: inherit; max-height: inherit;" xml:space="preserve">
<style type="text/css">
	.st0{fill:#8FD4EB;stroke:#000000;stroke-width:4;}
</style>
<g>
	<path onclick="modals(this.id);" id="2814" class="st0" d="M6708.8,6470.9c-42.7,41.9-82.1,83.3-124.9,122.8c-4-3.4-7.6-6.1-10.8-9.3
		c-25-24.9-50-49.9-75-74.9c-2.8-2.8-5.6-5.7-8.5-8.5c-9.7-9-13.6-9.1-23.5,0.4c-17.3,16.6-34.2,33.7-51.5,50.3
		c-25.4,24.5-51.3,48.5-76.6,73.2c-14.8,14.4-28.6,29.8-43,44.6c-4.6,4.8-9.5,9.2-14.4,13.8c-0.5,0.1-1.2,0.5-1.8,0.4
		c-0.6-0.1-1.2-0.6-1.7-1c-6.6-6.6-13.2-13.2-19.7-19.9c-100.6-103.9-200.8-208.1-301.9-311.5c-51.2-52.4-104-103.2-156.9-155.5
		c1.4-4.9,2.4-10.1,4.3-14.8c18.6-47.1,37.3-94.1,56.2-141.1c39.6-98.2,79.5-196.3,119.1-294.5c105.3-261.3,211.2-522.4,315.6-784.1
		c112.8-282.7,226.8-565,343.1-846.3c63.9-154.5,128.7-308.6,193.2-462.9c2.8-6.6,6.1-13,9.6-20.1c6,2.1,11.1,3.5,15.9,5.5
		c186.2,76,372.4,152.1,558.7,228.1c51.2,20.9,102.4,41.6,153.7,62.1c19.7,7.9,19.8,7.6,33.7-8.3c66.8-77.1,134.5-153.3,200.1-231.4
		c104.6-124.6,207.9-250.2,311.3-375.7c87.3-106,173.5-212.8,261.3-318.4c31.5-37.9,62-76.6,93.1-114.9
		c48.7-60,98.2-119.5,147.8-178.7c17.5-20.9,38.8-38.3,59.1-57c14,5.1,25.6,12.5,36.5,21.3c67,53.9,134,107.8,200.8,161.8
		c62.2,50.3,124.2,100.9,186.2,151.3c4.6,3.8,9.2,7.7,14.2,11.9c2.2,13.7,2.4,27.6,1.9,41.5c-0.1,4.4-1.4,9.4-3.9,12.9
		c-16.2,22.7-33,45.2-49.4,67.6c-90.6-3.9-180.3-7.8-268.9-11.6c-7.4,9.6-81.2,144.1-85.3,155.4c-0.8,2.3-0.4,5.1-0.6,7.4
		c6.4,4.5,13.1,4.4,19.7,4.7c37.3,1.9,74.5,3.6,111.8,5.6c23.9,1.3,47.9,2.7,71.8,4.2c1.1,0.1,2.2,1.1,4.2,2.2
		c-1.1,6.7-6.5,11.1-10.5,16c-37.8,46.6-75.8,93-113.7,139.5c-133.3,163.1-266.5,326.2-399.8,489.3
		c-63.3,77.4-126.5,154.9-189.7,232.3c-5.1,6.2-10,12.5-15.1,18.7c-3.2,3.9-4.6,8-2.3,14.7c4.2,1.9,9.4,4.5,14.8,6.6
		c46.7,17.6,93.6,35,140.2,52.8c5.1,2,11.8,2,15.8,9.5c-10.4,1.7-19.8,3.2-30.2,4.8c-0.7,4.7-1.4,8.4-1.7,12.2
		c-4,52.5-8.1,104.9-11.8,157.4c-0.7,9.7-4.5,18-8.1,26.5c-39.4,91.1-78.9,182.1-118.2,273.3c-30.3,70.3-59.6,141.2-90.8,211.1
		c-45.8,102.8-93,205-139.5,307.5c-16.5,36.4-33,72.8-49.5,109.2c-1.4,3-2.9,6-4,9.1c-1.5,4.2-0.6,8.1,3,10.7
		c5.4,3.9,11,7.6,16.6,11.1c75.5,47.6,151.1,95.2,226.6,142.8c4.4,2.8,8.7,5.9,12.4,8.5c1.1,6.1-3.4,7.7-6.1,10.3
		c-72.9,71.4-149.2,138.9-227.2,204.6c-121.9,102.6-243,206.1-364.4,309.1c-9.6,8.1-19.5,15.8-29.7,23.9c-6.5-4.4-12-7.9-17.4-11.8
		c-118.7-87.2-237.7-174-356-261.7c-53-39.3-104.7-80.3-157-120.5c-5.3-4.1-10.5-8.2-15.8-12.2c-14.6-10.9-16.8-10.6-29.2,3.9
		c-2.6,3-5.2,6.1-7.7,9.2c-56.7,69-113,138.4-170.1,207c-60.1,72.2-121,143.8-181.6,215.6c-24.9,29.6-49.9,59-74.9,88.6
		c-2.6,3.1-5,6.2-7.8,9.1c-11.2,11.9-23.1,22.3-41.4,19c-7.1-1.2-13,1.8-17.9,6.8c-4.4,4.5-5.4,8.9-2.5,14.5
		c4.3,8.4,10.4,15.2,17.9,21.1c35.8,27.8,71.4,55.8,106.8,84.1c42.2,33.7,84,67.8,126,101.8
		C6703.4,6466.9,6705,6468.1,6708.8,6470.9z"/>
	<path onclick="modals(this.id);" id="2811" class="st0" d="M5069.5,8089.1c-1.5-23.7-1.9-45.7-4.6-67.4c-3.3-26.7,2.8-50.7,13-75.3
		c135.3-327.5,270.2-655.1,404.6-983c57.3-139.9,112.7-280.6,169.8-420.6c31.9-78.3,65.6-155.9,98.4-233.9
		c11.4-27,22.5-54.1,33.8-81.1c2-4.8,4.4-9.4,7.2-15.4c3.5,2.6,6.3,4.3,8.5,6.5c17.2,16.7,34.3,33.5,51.4,50.4
		c36,35.6,72.3,71,107.9,107c44,44.6,87.4,89.8,131,134.7c25.1,25.8,50.3,51.5,75.3,77.4c32.8,34.1,65.5,68.3,98.2,102.5
		c4.6,4.8,8.3,10.5,16.7,12.8c2.9-2,7.1-4.1,10.3-7.2c5.3-5.1,9.9-10.8,14.8-16.2c20.5-22.8,42.3-44.2,65-64.9
		c24.1-22,46.7-45.7,70-68.5c11.8-11.6,23.9-22.9,36.7-35.1c4.2,3.5,7.8,6.2,11,9.3c26.9,26.8,53.7,53.8,80.7,80.5
		c13.6,13.5,15.2,13.5,28.9,0c35.1-34.7,70.1-69.4,105.1-104.1c5.2-5.1,10.5-10,16.3-15.5c14,8.6,24.9,19.1,35.2,30.3
		c14.5,15.6,28.1,32.1,42.6,47.7c30.2,32.8,60.7,65.5,91.2,98c8.7,9.3,11.5,9.2,21.7,0.4c32.7-28.4,65.3-56.9,97.7-85.7
		c71.8-63.7,143.5-127.5,215.2-191.2c3.9-3.5,8.1-6.7,12.8-10.6c3.3,3,6.5,5.4,9.1,8.2c47.2,51.6,94.8,102.9,141.4,155.1
		c11.4,12.8,21.1,27.6,29.6,42.6c14.7,25.7,33.4,48,53.3,69.5c52.5,56.7,104,114.4,156.9,170.7c22.3,23.8,46.8,45.5,70.6,67.8
		c67.1,62.8,134.7,125.2,201.6,188.3c34.9,32.9,68.6,67.1,102.9,100.7c65.2,63.9,130.4,127.8,195.7,191.6
		c9.5,9.3,19.5,18.1,29.3,27.2c-1.1,8.9-1.6,16.2-2.8,23.3c-15.5,90.6-31,181.2-46.6,271.8c-14,81.4-28.2,162.8-42.2,244.1
		c-12.7,73.5-25.2,147.1-37.7,220.6c-2.2,13.1-4.5,25.8-12.4,37.2c-4.9,7-7.4,15.6-11.2,23.4c-2.6,5.3-5.3,10.6-8.5,16.8
		c-6.8,0-13.4,0.2-19.9,0c-26.6-1.1-53.2-2.4-79.8-3.6c-49.9-2.2-99.8-4.2-149.7-6.4c-58.5-2.6-117.1-5.3-175.6-8
		c-57.9-2.7-115.8-5.3-173.6-8c-58.5-2.7-117.1-5.3-175.6-8c-46.6-2.2-93.1-4.8-139.7-6.5c-30.6-1.1-61.2-0.9-91.8-1.5
		c-71.3-1.3-142.5-2.6-213.8-3.9c-44.6-0.8-89.3-1.2-133.9-2.7c-29.9-1-59.9-3.4-89.8-5.4c-25.2-1.7-50.5-3.9-75.7-5.7
		c-47.8-3.3-95.7-6.2-143.6-9.6c-65.8-4.6-131.5-9.7-197.3-14.2c-35.2-2.4-70.5-4.5-105.7-6.4c-56.5-2.9-113.1-5.4-169.6-8.1
		c-55.9-2.7-111.8-5.3-167.6-8c-54.5-2.6-109.1-5.3-163.6-8c-55.9-2.7-111.8-5.3-167.6-8c-55.2-2.7-110.4-5.3-165.6-8
		c-55.9-2.7-111.8-5.3-167.6-8.1C5088.8,8091.3,5080.2,8090.1,5069.5,8089.1z"/>
	<path onclick="modals(this.id);" id="2829" class="st0" d="M6658.7,4022.2c-2.7,7.7-4.4,13.4-6.6,18.9c-71.2,173.8-142.9,347.4-213.5,521.5
		c-58.1,143.2-114.6,287.1-172.2,430.5c-92.9,231.2-185.9,462.2-279.2,693.2c-55.9,138.3-112.6,276.3-168.7,414.6
		c-16.3,40.1-30.4,81.1-47,121c-38.6,92.9-78.5,185.2-117,278.1c-29.6,71.4-57.7,143.3-86.9,214.9
		c-85.5,209.7-170.9,419.5-256.7,629c-84.9,207.1-170.2,414-255.5,620.9c-4.7,11.5-6.3,22.6-5.4,34.9c2.7,34.5,4.5,69.1,6.8,105
		c-24.8,19.4-50.6,38-75.2,56.3c-10.1-2.5-13.6-7.5-13-16.3c1.1-18.6,2.3-37.1,7.6-55.2c8.2-28.1,15.2-56.6,22.8-84.9
		c1.9-7.2,2.7-13.6-0.5-21.2c-3.1-7.1-3.2-15.5-4.1-23.5c-4.6-43.1-9-86.1-13.6-129.2c-4.5-42.4-9.4-84.8-13.9-127.1
		c-4.6-43.1-9.1-86.1-13.7-129.2c-4.6-43.1-9.2-86.1-13.9-129.2c-4.6-43-9.3-86.1-14-129.1c-4.9-45-9.9-90.1-14.7-135.1
		c-4.6-42.4-9-84.8-13.5-127.2c-4.5-42.4-9-84.8-13.6-127.2c-3.5-32.5-6-65.1-10.9-97.3c-4.1-26.9-1-52.8,4.2-79.1
		c22-112.4,42.9-225.1,65.2-337.4c7.8-39.2,18.3-77.8,27.6-116.7c23.7-98.4,46.8-197,71.6-295.1c9.7-38.3,13.2-77.4,19.7-116.1
		c1.2-7,0.2-14.4,0.2-22.2c-16.2-9.6-32.2-19.1-48.2-28.5c-25.3-14.8-50.7-29.4-75.9-44.5c-11.5-6.9-23.7-12-36.4-16.1
		c-22.8-7.2-45.6-14.7-69.1-22.3c-2.4-4.4-5.2-8.9-7.5-13.7c-12.8-27.1-25-54.5-38.4-81.3c-5.1-10.3-5.7-20-3.3-30.8
		c17.5-80,34.7-160.1,52.1-240.1c8.5-39,18.1-77.9,25.9-117c32.2-161.3,71.2-321.2,106.4-481.8c28.5-130.1,58.5-259.9,87.2-390
		c24.6-111.2,48.9-222.4,72.4-333.9c11.4-54.1,20.7-108.6,30.9-162.9c11.9-63.5,23.8-127,35.9-190.5c1.1-5.8,3.2-11.4,4.7-16.6
		c8.4-1.9,14.8,1.5,19.3,5.7c6.8,6.3,14.5,8.8,23,10.7c97.3,22.5,194.5,45.7,292,67.5c140.4,31.3,281,61.7,421.6,92.3
		c139.3,30.3,278.6,60.4,417.9,90.6c89.2,19.3,178.4,38.5,267.5,57.8C6644.7,4018.6,6650.5,4020.2,6658.7,4022.2z"/>
	<path onclick="modals(this.id);" id="2711" class="st0" d="M10248.2,4746.6c0,2.5,0.3,5.1,0,7.7c-7.1,46.1-15.8,91.7-29.7,136.4
		c-7.7,24.6-11.1,50.7-15.8,76.2c-6.7,36-12.3,72.2-19.2,108.1c-7.2,37.9-13.9,75.9-23.9,113.3c-5.5,20.5-7.1,42-10.5,63
		c-1.9,11.8-3.7,23.7-5.7,36.6c-11.4,3.7-15.8,13.3-19.7,24.2c-8,22.2-11.2,45.3-14.4,68.3c-6.1,43.5-10.4,87.3-15.6,130.9
		c-1.9,16.1-1.5,31.9,5.9,46.1c-0.8,2.1-0.9,3.8-1.8,4.4c-14.6,10-17.9,25-20,41.3c-8,62.7-16.7,125.4-25.2,188.1
		c-1.1,7.8-2.7,15.6-4.3,24.3c-4.4,0-8.2,0.4-11.9-0.1c-37.9-4.2-74.1-16.2-111.1-24.1c-28.7-6.1-57.1-13.2-86-18.1
		c-37.4-6.4-75.1-11.2-112.7-16.5c-14.5-2.1-29.1-3.6-43.6-5.4c-12.7-1.5-24.5-5.9-37.5-12.4c-2.7-10.5-5.9-22-8.5-33.6
		c-1.5-6.7-5.2-10.4-11.6-12.1c-62.3-15.7-120-43.9-179.9-66c-50.1-18.5-97.2-43.5-145.8-65.4c-7.9-3.5-15.9-6.9-24.2-9.1
		c-18.7-5-36.7-11.7-54.3-19.9c-50.7-23.7-101.5-47-152.2-70.6c-10.9-5.1-22.1-8.6-34.1-10.7c-32.8-5.8-65.8-9.7-99.2-10.9
		c-31.3-1.1-62.5-3.9-93.8-4.3c-37.3-0.5-74.6,0.5-111.9,1.4c-7.9,0.2-15.8,2.4-23.5,4.3c-27.9,6.6-55.7,13.3-83.5,20.2
		c-6,1.5-11.4,1.8-17.6,0.4c-32.1-6.9-62.7-18.4-92.3-32.1c-16.2-7.5-30.5-18.9-46-28c-22.1-12.9-39.6-31.3-58.7-47.1
		c1.2-8.7,8.1-11.4,12.9-15.5c54-45.5,107.9-91.2,162.5-136c162.6-133.8,320.4-273.2,478.2-412.6c41.4-36.6,82.9-73.1,124.2-110
		c7.4-6.6,14.2-14,20.6-21.7c15.2-18.5,30-37.4,45-56.2c2.9-3.6,6-7,8.9-10.4c3.9,0,7.2-0.4,10.5,0.1
		c323.7,50.1,647.5,100.3,971.2,150.6C10244.1,4744.1,10245.7,4745.4,10248.2,4746.6z"/>
	<path onclick="modals(this.id);" id="1911" class="st0" d="M6934.8,3352c-7.8,32.3-254.9,629.4-271.7,656.6c-13.7-2.8-28-5.6-42.2-8.6
		c-178.3-38.6-356.6-77.2-534.9-115.8c-165.9-36-331.9-71.4-497.7-108.2c-110.5-24.5-220.5-50.9-330.8-76.6
		c-7.6-1.8-15.2-3.2-21.5-9.3c-4.5-4.4-11.7-6.1-17.6-9.2c-4-2.1-7.9-4.5-12.5-7.2c2-5.7,3.5-10.7,5.4-15.5
		c5.5-14.3,11.3-28.5,16.8-42.8c1.7-4.3,4.1-8.9,4-13.3c-0.8-30.5,9.1-59.1,15-88.3c24-116.7,48.7-233.3,70.7-350.5
		c13.2-70.7,29.8-140.7,45-211c8.3-38.4,17-76.7,25.5-115c0.7-3.2,1.7-6.3,2.9-10.7c5.6,1.8,10.6,3.1,15.3,5
		c67.7,27.9,135.2,56.3,203.1,83.9c191.1,77.9,382.4,155.5,573.6,233.3c123.3,50.2,246.7,100.4,369.9,150.8
		c14.4,5.9,28.8,9.2,44.4,10c57.8,2.9,115.6,6.8,173.5,10.1c27.9,1.6,55.8,3,83.8,4.2c10.1,0.4,19.6,2.8,29,6.7
		c12.9,5.4,26,10.2,39,15.5C6927,3347.7,6931,3350,6934.8,3352z"/>
	<path onclick="modals(this.id);" id="2761" class="st0" d="M8515.7,5964.2c-1.1,8.2-1.8,15.4-3.1,22.5c-12.6,70.1-25.3,140.3-38,210.4
		c-12.5,69.5-24.8,139-37.4,208.5c-13.2,72.7-24.9,145.8-40.5,218c-31.5,145.8-65.4,291.1-97.8,436.7
		c-21.2,95.6-41.4,191.4-62.1,287c-1.8,8.3-3.9,16.6-5.7,24.2c-5,2.7-7.3-0.3-9.5-2.4c-13-12.5-25.9-25-38.8-37.6
		c-59.9-58.9-119.9-117.6-179.6-176.7c-91-90-185-176.7-278.5-264.1c-22.4-20.9-45.5-41.1-67.1-62.8c-24-24.1-46.7-49.3-69.8-74.3
		c-43.3-47-86.5-94.2-129.6-141.5c-5.8-6.4-11.5-13.1-15.7-20.5c-23.4-41.5-53.1-78-85.8-112.5c-32.6-34.3-64-69.7-95.9-104.6
		c-4-4.4-7.7-9-12.2-14.3c2.6-2.8,4.5-5.4,6.8-7.5c38.9-35.5,77.4-71.3,116.9-106.1c45-39.6,90.7-78.6,136.4-117.3
		c148.4-125.8,297.1-251.5,445.6-377.2c22.4-18.9,44.6-38,67-57c6-5.1,11.8-10.6,19.5-15.2c5.1,5,9.8,9.5,14.4,14.1
		c4.2,4.2,8.6,8.4,12.5,12.9c15,17.2,31.8,32,51.3,44c61.3,37.7,122.2,76,183.4,113.9c24.4,15.1,48.8,30,73.5,44.6
		c9.1,5.4,18.8,10,28.7,13.8c30.5,11.5,61.3,22.5,91.9,33.7C8503,5958.9,8509,5961.5,8515.7,5964.2z"/>
	<path onclick="modals(this.id);" id="1851" class="st0" d="M5914.2,2372.6c19.4-61.9,38.5-122.9,57.5-183.8c19-60.9,37.7-121.9,57.5-183.7
		c5.2,1,9,1.5,12.7,2.3c64.5,14.1,126.9,35.6,189.8,55.1c30.7,9.5,61.8,15.5,93.7,19c51.7,5.5,103.2,12.1,154.8,18.4
		c80.6,9.8,161.3,19.9,241.9,29.7c47.6,5.8,95.2,11.4,142.9,16.9c6.5,0.8,13.3-0.2,19.8,0.5c43.7,4.9,87.5,9.1,131,15.6
		c22.3,3.3,43.9,11,65.8,16.7c71.6,18.4,143.2,36.9,214.8,55.3c6.5,1.7,13,2.9,19.4,4.6c7.8,2.1,15.4,3.2,22.2-1.8
		c3.9,4.6,1.6,8.3,0.5,12c-22.3,79.5-45.6,158.8-66.7,238.6c-24.1,90.9-56.3,179.1-87.1,267.8c-7,20.1-14.2,40.2-20.9,60.4
		c-25.5,77.3-60,151-90.5,226.2c-1,2.3-2.6,4.4-4.5,7.6c-4.1-1.4-7.8-2.5-11.3-3.9c-262.1-106.9-524.3-213.8-786.4-320.7
		c-191.2-78-382.3-156.1-573.6-234c-16-6.5-32.6-11.4-49.9-17.3c-4.1-15.9,0.6-32.5-0.7-48.8c-1.3-15.8-3.7-31.6-5.6-46.5
		c5.6-6.2,12-5.1,17.7-5.4c44.6-2,89.2-3.8,133.8-5.6c11.3-0.5,22.6-0.5,33.9-1c2.6-0.1,5.8-0.1,7.8-1.5c10.1-7,19.7-3.3,30.1-0.3
		C5879.8,2369.4,5895.3,2373.9,5914.2,2372.6z"/>
	<path onclick="modals(this.id);" id="2808" class="st0" d="M8756,7356.1c0.5,16,0.9,29.2,1.3,44c5.5-0.6,10.2-0.1,14-1.6c9.3-3.8,17.9-2.5,27.1,0.4
		c82.4,26.4,164.9,52.6,247.4,78.9c10.7,3.4,21.2,7.2,33,11.2c-1.4,6.1-2.2,11.2-3.7,16.1c-13.4,44-26.9,87.9-40.2,131.8
		c-2.1,6.9-3.6,14-4.9,19.2c3.8,8.7,10.5,8.9,16,10.7c39.3,12.8,78.6,25.3,117.9,38c8.2,2.6,16.3,5.5,25.4,8.6c-1,3.5-1.3,6-2.4,8.1
		c-28.1,47.6-56.2,95.2-84.4,142.8c-1,1.7-2.4,3.1-4.3,5.4c-3.5-0.7-7.5-0.8-11-2.2c-32.1-13-63.2-28.4-93.6-45
		c-5.2-2.8-9.9-6.7-14.6-10.4c-22.8-18.4-45.3-37.2-68.4-55.3c-12.7-10-23.7-21.4-33.2-34.3c-4.7-6.4-9.7-12.8-15.3-18.4
		c-2.4-2.3-6.8-2.5-9.9-3.5c-5,5.8-3.1,11.2-2.3,16.2c8.1,48.6,16.4,97.2,24.6,145.8c13,76.8,26.1,153.6,39.1,230.5
		c6.7,39.4,13,78.8,20.2,118.2c2.6,14.4,7.2,28.4,10.6,42.6c1.2,5,1.7,10.3,2.5,14.9c-1.4,1.1-1.8,1.6-2.4,1.9
		c-0.5,0.3-1.2,0.7-1.8,0.7c-29.3-1.2-58.5-2.2-87.8-3.6c-256-11.9-512-23.8-769.3-35.7c0.5-4,0.4-7.3,1.5-10.1
		c2.4-6.2,4.6-12.7,8.3-18.1c8.1-12,10.5-25.6,12.9-39.3c11.9-68.9,23.8-137.8,35.6-206.7c13.9-81.4,27.6-162.8,41.6-244.2
		c15.3-89.3,31-178.5,46.4-267.7c1.9-11.2,3.5-22.4,5.5-33.5c0.7-3.8,1.9-7.6,3.1-12.5c3.7,0,6.8-0.2,9.9,0
		c71.8,4.6,143.5,9.4,215.3,14c16.6,1.1,33.2,1.7,49.9,2.1c5.9,0.1,11.9-0.8,17.8-1.8c63.2-10.6,124.5-28.7,185.7-47.4
		C8730.4,7363,8741.9,7360,8756,7356.1z"/>
	<path onclick="modals(this.id);" id="1879" class="st0" d="M10169.1,3689.8c1.6,8.7,2.6,15.9,4.3,23c2.5,10.3,5.1,20.6,8.2,30.7c1.7,5.4,5.8,8.6,11.6,9.8
		c10.4,2.2,20.6,5.4,31.1,6.9c15.8,2.2,31.8,2.9,47.7,4.9c21.2,2.7,41,10.6,62.2,17.1c1.1,10.5,2.2,20.3,3.3,31
		c3.6,1.4,7.1,3.1,10.8,4c16.8,3.9,33.7,7.6,50.2,11.3c3.1,10.7-0.7,19.7-1.1,28.9c-0.4,9.3-1.6,18.6-2.3,27.9
		c-5,61.9-18.4,122.4-27.3,183.7c-7.4,50.7-15.2,101.4-22.8,152.1c-8.5,56.6-17.1,113.3-25.6,169.9c-3.5,23-7,46.1-10.7,69.1
		c-0.8,5.1-2.5,10-4,15.5c-3.8-0.5-6.3-0.7-8.8-1.2c-69.9-14.2-140.5-23.9-211.3-31.6c-37-4-74.1-7.1-111.6-3.2
		c-22.5,2.3-45.3,1.3-67.9,1.9c-41.3,1.2-82.5,2.5-123.8,3.7c-9.9,0.3-19.9,0-29,0c-5.9-4.7-4.3-10.4-4.3-15.5
		c0.1-33.3,0.8-66.6,0.7-99.9c-0.1-62-0.4-123.9-0.9-185.9c-0.6-79.9-1.6-159.9-2.4-239.8c-0.2-18-0.4-36-0.7-54
		c-0.1-3.9-0.7-7.8-1.2-13.1c-4.3,0.7-8.8,0.2-11.2,2.2c-4,3.3-6.7,8.1-9.8,12.5c-33.6,48-67.2,96.1-100.8,144.2
		c-3.8,5.4-7.8,10.7-12.3,16.8c-55.2-1.2-110.3-2.4-164.9-3.6c-5.5-5.6-3.7-11.9-3.7-17.7c-0.4-60-0.5-119.9-1-179.9
		c-0.6-73.9-1.6-147.9-2.4-221.8c-0.1-7.2,0.4-14.4,0.7-22.6c5-0.6,8.7-1.4,12.6-1.5c53.2-1.6,106.5-3.1,159.8-4.5
		c6.5-0.2,13.1,0.2,20.6,0.4c0.7,5.5,1.7,9.9,1.6,14.4c-0.7,43.9-1.7,87.9-2.2,131.8c-0.3,27.3-0.1,54.5-0.1,81.9
		c4.4,3.2,8,6.2,11.9,8.5c18.9,11.3,37.8,22.4,56.8,33.6c2.9,1.7,5.7,3.5,8.8,4.7c4.7,1.8,9.2,1.3,12.5-3.2c2.7-3.8,5.4-7.6,8-11.5
		c24.5-38.1,49-76.2,73.6-114.3c3.6-5.6,7.4-11,11.6-17.1c5.2-0.3,10.5-0.7,15.7-0.7c24.7-0.1,49.3,0,74,0
		c68-0.2,135.9-0.5,203.9-0.6C10126.9,3688.7,10146.8,3689.4,10169.1,3689.8z"/>
	<path onclick="modals(this.id);" id="1826" class="st0" d="M10591.8,3223.4c-6.5,3.3-9.1,4.9-11.9,6c-24.4,9-48.7,18.1-73.3,26.5
		c-8.5,2.9-15.5,7.2-21.7,13.6c-11.9,12.6-24.2,24.8-36.2,37.3c-7.4,7.7-15.5,14.4-24.9,19.7c-34.2,19.4-68.1,39.2-102.1,59
		c-15.1,8.8-15.2,14.3-0.2,23.5c31.3,19.1,62.8,37.9,94.1,56.8c4.5,2.7,8.8,5.7,12.7,8.3c-2.7,16.8-68.7,227.6-87.9,281
		c-1.3,3.6-3.3,7-5.2,11.3c-5.9-1.3-11.2-1.9-16-3.6c-26-9.2-53.1-12.1-80.4-14c-12-0.8-23.7-2.9-35.2-6.6
		c-6.4-2.1-10.6-5.6-12.3-11.8c-2.4-9-4.2-18.1-6.2-27.2c-1.6-7.8-3-15.6-4.6-23.9c-4.6-0.7-8.4-1.7-12.2-1.8
		c-76.6-0.1-153.3-0.1-229.9-0.1c-38,0-76,0-114,0c-6.6,0-13.2,0-20.4,0c-31.9,47.4-61,95.9-93.4,143.7
		c-23.6-13.3-46-26.1-68.6-40.6c0.8-54.9,2-109.5,2.4-164c0.4-55.3,0.1-110.6,0.1-166c0-54.7,0-109.3,0-164c0-54.5,0-109.1,0-164.7
		c5.1-0.8,8.8-1.4,12.5-1.9c1.3-0.2,2.7-0.1,4-0.1c73.3-0.5,146.6-1.2,219.9-1.6c84-0.4,167.9-1,251.9-0.6c27.3,0.1,54.5,3,81.7,5
		c6.6,0.5,13.1,2.5,19.5,4.2c111.9,30,223.8,60.1,335.6,90.2C10575.6,3218.6,10581.3,3220.4,10591.8,3223.4z"/>
	<path onclick="modals(this.id);" id="2809" class="st0" d="M8912.5,6712.7c69.2,62.5,139.5,124.6,205.3,192.2c-4.1,6.7-7.4,12.4-10.9,17.9
		c-24.2,37.5-49,74.7-72.4,112.6c-19.6,31.7-37.8,64.3-56,96.8c-8.2,14.6-16.8,28.7-28.5,40.7c-2.3,2.4-4.4,5-6.6,7.5
		c-58.9,67-58.4,67.6-127.9,123.1c-25.4,20.3-53.1,37.5-85.7,45.7c-30.3,7.6-60.2,17.2-90,26.5c-35.1,11-71.1,17.8-107.1,24.4
		c-16.8,3.1-34.6,2.6-51.8,1.6c-56.5-3.3-113-7.5-169.4-11.4c-19.3-1.3-38.5-2.6-57.8-4c-2.6-0.2-5.2-0.7-7.7-1.1
		c-4-6.1-0.9-12,0.2-17.5c12.2-57.3,24.6-114.6,37.3-171.8c37.9-171,76-341.9,114.1-512.9c4.2-18.8,8.7-37.6,13-56.5
		c8.2-2.1,12.8,3.8,18.1,7.1c52.5,32.8,104.9,66,157.4,98.9c72.2,45.4,144.4,90.8,216.6,136.2c4.5,2.8,9,5.8,13.9,7.8
		c4,1.7,8.1,0.5,10.3-3.6c2.2-4.1,4.1-8.4,6-12.6c12.6-27.9,25.3-55.8,37.9-83.8c9.9-22,23.8-41.5,37.3-61.4
		C8908.7,6714.2,8910.3,6713.9,8912.5,6712.7z"/>
	<path onclick="modals(this.id);" id="2760" class="st0" d="M8053.5,5668.4c108-108.2,224.5-205.5,340.8-304.8c8.2,7,16.1,13.1,23.2,19.9
		c23.8,22.9,51.9,39.8,80.3,55.6c23.7,13.2,49.5,23.1,76.2,29.6c45.9,11.3,29.6,12.2,77.9,0.6c15.5-3.7,31.2-7.1,46.5-11.5
		c25.9-7.5,52.4-8.5,79.1-9.1c66.7-1.4,133.1,3.3,199.6,7.7c14.5,0.9,28.7,3.7,42.8,7.2c0.8,7.7-3.5,12.4-6.4,17.4
		c-31.9,57-64,113.9-96,170.8c-2.3,4.1-5.1,8-6.7,12.3c-1.5,4.2-1.7,8.8-2.7,13.9c16.8,9.6,32.8,18.8,49.7,28.6
		c-3.6,6.4-6.4,11.6-9.4,16.6c-25.8,43.6-51.6,87.1-77.5,130.7c-1,1.7-2.1,3.4-3,5.2c-4.7,9.2-4,12.6,4.4,18.3
		c4.4,3,8.9,5.8,13.6,8.5c35.7,20.7,71.5,41.4,107.2,62c5.2,3,10.4,5.8,16.8,9.4c-1.3,3.8-1.9,7.6-3.6,10.9
		c-16.5,31.2-33.1,62.4-49.8,93.5c-0.9,1.7-2.3,3.2-4.2,5.7c-3.4-0.6-7.3-0.9-10.9-2c-35.7-10.9-70.8-23-104.7-39
		c-41-19.3-82.5-37.4-123.9-55.7c-6-2.6-12.6-4.7-19-5.2c-40.5-3.2-81.1-5.8-121.6-8.7c-13.3-0.9-26.6-2-39.8-3.4
		c-4.6-0.5-9.1-1.9-13.5-3.4c-37.6-13.6-75.2-27.1-112.7-41c-6.8-2.5-13.3-6.1-19.6-9.9c-71.8-43.6-143.6-87.1-215.1-131
		c-21.6-13.3-42.3-27.8-63.3-42c-3.3-2.2-6.4-4.9-9.1-7.7c-13.1-13.3-26-26.7-38.9-40.3C8058,5675.1,8056,5671.6,8053.5,5668.4z"/>
	<path onclick="modals(this.id);" id="1868" class="st0" d="M7358.3,2235c7.8,2.2,13.6,3.6,19.2,5.4c25.3,8.2,50.7,16.4,75.9,24.9
		c8.2,2.8,16.2,6.1,24.1,9.6c63.8,28.5,127.3,57.8,191.5,85.4c41,17.6,83,32.7,124.6,48.5c37.3,14.2,75.1,27.4,112.2,42.1
		c17.6,6.9,34.7,7.5,52.7,3.8c13-2.6,26.3-4.2,39.5-5.8c6.5-0.8,13.1-0.6,20.8,2.4c-2.2,4.7-3.6,9-6.1,12.6
		c-9.1,13.3-15.5,27.7-20.4,43.1c-8.6,27.3-19.2,54-27.3,81.4c-5.4,18.4-8.1,37.7-11.9,56.6c-0.7,3.3-1,6.6-1.3,9.9
		c-2.3,21.4-8.8,41.5-16.9,61.3c-12.8,31.4-24.7,63.2-37.1,94.9c-2.4,6.1-5.1,12-8.2,19.2c-7.9-2.8-14.7-5-21.4-7.6
		c-75.7-29.3-151.4-58.8-227.2-88c-6.7-2.6-13.2-6.9-21.6-4.4c-5.8,4.5-6.7,12.3-9,19c-25,72.4-49.7,144.8-74.3,217.3
		c-6.7,19.6-16.3,37.8-25.3,57.4c-3.6-0.9-6.8-1.3-9.6-2.4c-109.7-43.1-220-84.5-327.8-132.3c-5.4-2.4-10.6-5-16.7-8
		c1.3-4.6,2.1-8.3,3.3-12c30.2-86.7,61.1-173.3,90.4-260.3c13-38.4,23.2-77.8,34.2-116.9c22.8-80.7,45.4-161.5,68.1-242.2
		C7354,2245.7,7355.9,2241.5,7358.3,2235z"/>
	<path onclick="modals(this.id);" id="2813" class="st0" d="M6969.2,5693.8c4.7,2.6,6.6,3.4,8.1,4.6c175,137.7,356.6,266.5,535.3,399.2
		c1,0.7,1.5,2.1,2.5,3.5c0,5.3-4.9,7.3-8.2,10.1c-30.3,26.1-61,51.7-91.1,78.1c-33.6,29.4-66.6,59.5-99.9,89.2
		c-37.8,33.7-75.5,67.5-113.4,101.1c-25.9,23-51.8,46-77.8,69c-4.5,4-9.1,7.7-14.2,12c-4.9-4-9.7-7.5-14-11.6
		c-49.3-46.8-98.6-93.6-147.6-140.6c-44.7-42.9-89-86.3-133.5-129.4c-2.4-2.3-4.7-4.8-7.5-6.6c-3.6-2.4-7.7-2.8-11.2,0.1
		c-4.1,3.4-8,7-11.7,10.9c-28.3,30.1-57.7,59.1-89.1,86.1c-10.1,8.6-19,18.6-28.4,28.1c-20.3,20.3-40.4,40.6-60.7,60.9
		c-1.8,1.8-4.1,3.1-6.8,5.1c-3.5-2.5-6.8-4.5-9.9-6.9c-37.2-29.3-74.3-58.6-111.4-88c-4.1-3.2-7.6-7.3-10.7-11.5
		c-0.7-1,1.3-5.9,2.6-6.2c5.8-1.1,11.8-1.6,17.7-1.3c7.9,0.4,14.4-1.7,20-7.2c6.7-6.5,14-12.4,20-19.5
		c112-133.1,226-264.6,335.1-400c32.6-40.5,66.2-80.2,99.3-120.3C6965,5699.9,6966.8,5697.1,6969.2,5693.8z"/>
	<path onclick="modals(this.id);" id="2804" class="st0" d="M9508.4,8296.4c-37.4,2.2-73-2.6-108.8-3.4c-35.9-0.7-71.9-2.8-107.8-4.4
		c-36.6-1.6-73.2-3.1-109.8-4.9c-35.9-1.7-71.8-3.4-107.7-5.4c-35.9-2-71.7-4.5-107.9-6.8c-1-1.4-2.7-2.8-3.2-4.6
		c-6.8-26.4-14.7-52.6-19.7-79.3c-11-58.9-20.4-118.1-30.5-177.2c-11.5-67.6-23-135.2-34.5-202.9c-3.1-18.4-6.3-36.8-9.2-55.2
		c-0.6-3.8-0.4-7.7-0.6-11.5c1.6-0.1,2.6-0.4,2.9-0.1c31.5,31.8,68.3,57.2,102.2,86c3.5,3,7.6,5.3,11.7,7.5
		c29.2,16.1,59,30.9,89.9,43.4c7.4,3,15.1,5.4,22.8,7.2c15.6,3.6,31.2,6.7,46.9,9.9c4.5,0.9,9.1,1.2,14.6,1.8
		c12.7-16.5,23-34.3,34.4-51.4c11.1-16.6,22-33.4,32.9-50.1c11.3-17.3,22.6-34.6,34-51.8c11-16.7,22.2-33.2,33.3-49.9
		c11.4-17.2,22.7-34.5,34.2-51.7c11.1-16.6,22.4-33.1,33.7-49.6c11.6-17.1,23.2-34.2,34.9-51.2c11.3-16.5,22.5-33,33.9-49.5
		c11.7-16.8,22.3-34.4,36.1-51.6c2,4.4,3.5,6.7,4.1,9.1c23.7,97.7,47.3,195.4,71,293.1c1.1,4.5,1.6,9.3,3.4,13.6
		c9,22.1,5.6,44.5,1.7,66.8c-4,23-9.2,45.7-12.5,68.8c-2.9,20.4-4,41.1-5.4,61.7c-3.9,55.1-7.7,110.3-11.1,165.4
		c-1.2,19.9-1.1,39.9-2.1,59.9c-1.4,27.9-3.4,55.8-5.2,83.7C9510.4,8272.7,9509.4,8283.3,9508.4,8296.4z"/>
	<path onclick="modals(this.id);" id="1877" class="st0" d="M10742.1,3577.7c26.7-93.9,53.1-186.7,79.6-279.4c1.1-3.8,2.8-7.3,4.7-12.1
		c4.3,1.1,8,1.8,11.7,2.9c52.2,16.1,104.3,32.3,156.5,48.4c33.1,10.2,66,21.1,99.5,29.8c23.1,6,47,9.2,70.7,13.2
		c66.3,11.2,132.7,22.2,199,33.3c5.2,0.9,10.3,2.3,15.1,3.4c4.3,5.4,1.9,10.7,0.9,15.7c-20.3,97.1-40.8,194.2-61,291.3
		c-14.3,68.4-28.3,136.9-42.5,205.4c-1.2,5.7-3,11.3-4.9,18.6c-12.3-5.9-23.5-11.5-34.9-16.7c-10.8-4.9-20.3-12.7-32.8-13.9
		c-8.6,8.8-5.3,20.5-8.4,30.4c-3.2,10-4.9,20.5-7.5,32c-6.8-1.5-12.6-2.4-18.1-4c-133.1-38.2-266.2-76.4-399.4-114.6
		c-60.8-17.5-121.6-34.9-182.4-52.3c-6.3-1.8-12.5-4-18.7-6c0-3.1-0.5-5.2,0.1-7c19.4-66.5,38.9-132.9,58.5-199.3
		c0.5-1.8,2.1-3.3,3.5-5.4c4.3,2.2,8.5,4.1,12.5,6.4c99.7,59.2,199.3,118.4,298.9,177.6c28.6,17,57.2,34.2,85.8,51.2
		c5.6,3.3,10.9,8.1,18.4,5.6c7-16.2,11.5-42.8,10-61.8C10952.7,3706.6,10847.6,3642.7,10742.1,3577.7z"/>
	<path onclick="modals(this.id);" id="1892" class="st0" d="M8934.5,3266.2c-34.9-1.8-70.1-3.6-105.2-5.6c-34.3-2-68.6-3.9-103.4-5.4
		c4.8-17,48.8-101.3,72.9-140.5c11.9-3.6,24.5-0.6,36.9-0.3c29.3,0.8,58.5,2.4,87.8,3.8c28.6,1.3,57.1,2.6,85.1,3.9
		c5.4,4.5,3.9,10.2,4,15.3c0.3,36.6,0.5,73.3,0.7,109.9c0.3,41.3,0.5,82.6,0.9,123.9c1,86.6,2.1,173.1,3.1,259.7
		c0.4,36,0.5,71.9,0.9,107.9c1,85.2,2.1,170.5,3,255.7c0.1,4.5-0.6,9-1,14.4c-4.9,0.5-8.7,1.1-12.5,1.2c-19.3,0.7-38.6,0.4-57.9,2
		c-18.9,1.5-37.2-0.6-55.4-5.2c-16.9-4.2-34-5.8-51.4-5.8c-40.6,0-81.3-1.3-121.9-1.2c-40,0.1-79.9,1-119.9,1.8
		c-48.6,1-97.2,2.3-145.8,3.6c-27.9,0.7-55.9,1.6-83.8,2.3c-8.6,0.2-17.3,0-25.4,0c-4.2-6.5,0.9-9.3,3.6-12.6
		c32.5-39.7,65.3-79.1,97.8-118.8c145.5-177.9,291-355.8,436.5-533.8c15.6-19.1,31-38.3,46.5-57.5
		C8934.4,3280.4,8939.1,3276.1,8934.5,3266.2z"/>
	<path onclick="modals(this.id);" id="2810" class="st0" d="M8414.4,6607.1c38.4-213.7,76.6-426,115-639.3c5-0.5,9.5-1.5,13.9-1.2
		c45.8,3.2,91.7,6.8,137.5,10c9.5,0.7,18.1,2.6,26.8,6.6c48.5,22.1,97.1,44,145.8,65.6c31.1,13.8,63.8,23.1,96.3,32.9
		c3.1,0.9,6.6,1.8,9.7,1.4c22.3-3.1,39.9,6.7,57.5,20.2c-5.7,7.1-11.3,13.7-16.4,20.6c-5.4,7.2-4.9,11.5,1.5,17.3
		c4.9,4.4,10.1,8.5,15.3,12.9c-2.2,8-8.1,12.8-12.7,18.2c-22.3,25.7-43.8,52.1-61.4,81.2c-18.6,30.7-30.2,63.6-29,100.1
		c0.4,11.9,1.4,23.9,2.8,35.8c2.9,25.5,14.2,46.8,33.4,64c20.4,18.2,40.3,36.9,60.4,55.4c5.3,4.9,10.3,10.1,15.8,15.5
		c-2.9,8.4-8.5,14.2-13.2,20.5c-4.3,5.7-7.5,12.6-15,16.8c-6.3-4.6-12.7-9.2-19-14.1c-12.6-9.8-24.9-20.2-37.7-29.7
		c-28.6-21.2-47.9-49.7-63.7-80.9c-8.1-16-15-32.6-22.7-49.2c-3.7-0.4-7-1.5-10.1-1.1c-28.4,3.6-56.7,7.6-85.6,11.5
		c-4.8,9.9-4.5,20.7-5.9,31c-6.9,50.9-10.7,102-13.5,153.2c-3.6,67.2-8.1,134.3-12.4,201.4c-0.3,5.1-1.3,10.3-1.9,15.3
		c-7.2,1.4-11-2.8-15.2-5.4c-72.2-45.4-144.4-90.8-216.6-136.3C8468.3,6641,8442.3,6624.7,8414.4,6607.1z"/>
	<path onclick="modals(this.id);" id="1807" class="st0" d="M9836.9,1790.6c-4.1,1-6,1.9-7.9,1.9c-221.3,0.3-442.6,0.6-664,0.8c-2.6,0-5.2-0.6-6.9-0.8
		c-4.8-3.9-2.7-8.1-2.4-11.8c3.3-44.5,6.7-89,10.2-133.5c0.6-7.2,1.9-14.3,3-22.4c19.8-1.3,38.8-2.6,58.6-3.9
		c3.1-14.7,2.2-28.7,2.2-42.4c0.2-54-0.6-108-1-161.9c-0.1-17.3,0-34.6,0-52.9c3.8-0.8,7.5-2.2,11.2-2.1c24.6,0.5,49.3,1.4,73.9,2.1
		c6,0.2,12,0.2,18,0.2c51.3,0,102.7,0.2,154,0c71.3-0.3,142.6-1,213.9-1.6c2,0,4.1,0.3,6-0.1c25.1-5.9,50.2-0.1,75.2,0.5
		c8.6,0.2,17,0.8,25.7-0.5c9.7-1.4,19.8-0.3,31.2-0.3c0.7,5.8,1.7,10.9,1.7,16c0.1,33.3,0.2,66.7,0.1,100
		c-0.5,94.6-1,189.3-1.6,283.9C9838.1,1770.9,9837.4,1780.2,9836.9,1790.6z"/>
	<path onclick="modals(this.id);" id="1870" class="st0" d="M9029.8,3551.3c-0.4-18.2-0.9-35.4-1.1-52.7c-0.4-26.6-0.6-53.3-0.9-79.9
		c-0.5-40.6-1.1-81.2-1.6-121.8c-0.6-50.6-1.1-101.2-1.5-151.8c-0.1-6.5,0.6-13,0.9-20.8c5.2,0,9,0,12.8,0
		c45.3-0.1,90.5-0.2,135.8-0.2c2.7,0,5.3-0.2,8-0.2c87.9-0.8,175.8-1.8,263.7-2.5c54-0.4,107.9-0.5,161.9-0.7c7.3,0,14.5,0,22.8,0
		c0.8,5.5,1.9,10,2,14.4c0.2,30,0.1,60,0.1,89.9c0,99.3,0,198.5,0,297.8c0,7.3,0,14.6,0,20.4c-5.4,6-10.9,5.3-16.2,5.5
		c-21.3,0.6-42.6,0.8-63.9,1.6c-166.5,6.2-333,3.2-499.5,3.9C9046,3554.2,9038.6,3555.6,9029.8,3551.3z"/>
	<path onclick="modals(this.id);" id="1904" class="st0" d="M9268.8,4579c3.3-7.9,5.6-14.1,8.4-20c19.7-41.5,39.1-83.2,59.5-124.4
		c7.4-14.9,10.2-29.7,9.4-46.1c-1.1-23.9-0.6-48-0.7-72c0-2.6,0.8-5.1,1.2-7.7c2.3-0.9,4-2.1,5.9-2.3c4-0.4,8-0.4,12-0.4
		c116-0.5,231.9-1,347.9-1.5c6.6,0,13.2,0,18.3,0c6.6,5.2,5,10.9,5,16c0.1,37.3,0.1,74.7,0.1,112c0,7.3,0,14.6,0,23.1
		c5.1,0.9,9.5,2.4,13.8,2.3c38.6-1,77.2-2.4,115.8-3.6c24-0.7,48-1.1,71.9-1.8c21.3-0.6,42.6-2.4,63.9-2.1
		c23.3,0.3,46.6,1.4,69.8,3.7c63.6,6.4,126.9,15.6,189.9,26.8c13.7,2.4,27.2,5.7,42.1,8.9c-1.3,28-5.8,54.7-9.1,81.6
		c-3.2,26.4-6.4,52.9-9.8,79.3c-3.5,27-7.2,53.9-11,81.7c-6.3,0-11.6,0.7-16.6-0.1c-45.4-6.9-90.8-14.1-136.2-21.2
		c-55.9-8.7-111.9-17.5-167.8-26.1c-66.5-10.3-133-20.6-199.4-30.8c-63.2-9.7-126.4-19.3-189.6-29c-48.7-7.5-97.4-15.3-146.1-22.9
		c-46.1-7.2-92.2-14.2-138.2-21.3C9276.6,4580.7,9274,4580.1,9268.8,4579z"/>
	<path onclick="modals(this.id);" id="1845" class="st0" d="M9630.2,2669c-6.3,0.5-10.1,1.1-14,1.1c-56.6,0.6-113.2,1.3-169.8,1.6
		c-47.3,0.3-94.6,0-141.9,0.1c-84.6,0.2-169.3,0.6-253.9,0.8c-7.2,0-14.4-0.3-22.3-0.4c-0.8-5.1-1.9-8.9-1.9-12.7
		c-0.9-46.6-1.7-93.2-2.5-139.9c-0.8-42.6-1.4-85.2-2.5-127.8c-1.1-40.1,3.1-79.8,9.7-119.3c1.4-8.4,2.7-16.9,4.1-25.8
		c7.6-3.3,14.9-2.1,22.1-2.1c83.3,0.1,166.6,0.4,249.9,0.6c100,0.3,199.9,0.6,299.9,0.9c5.9,0,11.8,0.5,18.7,0.9
		c0.8,5.2,2,9.6,2.1,14c0.5,28.6,0.8,57.3,0.9,85.9c0.3,74.6,0.4,149.3,0.7,223.9c0.1,25.3,0.6,50.6,0.8,75.9
		C9630.3,2653.4,9630.2,2660.1,9630.2,2669z"/>
	<path onclick="modals(this.id);" id="1808" class="st0" d="M9851.3,1792.7c-0.5-8.8-1-14.7-1-20.6c-0.1-57.3-0.2-114.6,0-171.9c0.3-69.3,1-138.5,1.5-207.8
		c0.1-9.9,0.7-19.7,2-30.1c4.5-0.2,8.2-1.5,10.8-0.4c10.2,4.5,20.9,3.4,31.4,3.4c71.3,0.3,142.6,0.5,213.9,0.9
		c30.6,0.2,61.2,1.2,91.9,1.4c7.2,0.1,14.4-1.6,21.6-2.5c4.6-0.5,9.2-1.3,13.8-1.3c32.7,0.2,65.1-3.2,97.7-5.2
		c33.3-2.1,66.5-0.4,99.7,1.9c1.2,0.1,2.3,1.2,4.9,2.6c1.8,15.4,3.8,31.8,5.5,48.2c0.9,8.6,1.3,17.1,4.8,25.4c2,4.7,1.7,10.4,2,15.6
		c5.9,107.8,5,215.7,4.8,323.6c0,3.3-0.4,6.6-0.6,9.4c-5.2,5.7-11.6,3.8-17.3,3.8c-52.6,0.4-105.3,0.7-157.9,1
		c-91.9,0.5-183.8,1.1-275.8,1.6c-44,0.3-87.9,0.6-131.9,0.8C9866.6,1792.7,9860,1792.7,9851.3,1792.7z"/>
	<path onclick="modals(this.id);" id="1896" class="st0" d="M6631.8,2888.7c-24,59.8-47.4,116.9-71.2,174.4c-4.1-1-6.7-1.2-9-2.2
		c-366.4-148.9-732.9-297.8-1099.3-446.7c-1.7-0.7-3.1-2.3-5.4-4.1c12.9-75.8,32.8-150.3,44-227.3c4.5-0.7,8.4-1.8,12.2-1.9
		c40.5-1,80.9-5.5,121.8-4.2c6.6,11.4,3.8,23.8,5.9,35.4c2.1,11.7,2.7,23.8,3.2,35.8c0.5,11.9,0.1,23.8,0.1,35.7
		c2.8,1.5,5,3.4,7.5,4c40.2,10.2,77.7,27.9,115.8,43.4c284.8,116.2,569.6,232.7,854.3,349.1
		C6617.9,2882.6,6623.8,2885.3,6631.8,2888.7z"/>
	<path onclick="modals(this.id);" id="1854" class="st0" d="M9629.1,2683.8c0.5,7,1,11.5,1.1,16c0.6,65.3,1.2,130.5,1.6,195.8c0.4,62.6,0.6,125.2,0.9,187.9
		c0,7.2-0.3,14.4-0.4,22.3c-5.1,0.8-8.9,1.8-12.7,1.9c-18,0.5-36,0.9-53.9,0.9c-86.6,0.3-173.2,0.1-259.8,0.8
		c-54.6,0.4-109.2,2.1-163.7,3.1c-18.6,0.3-37.3,0.3-55.9,0.3c-1,0-2.1-1.1-3.2-1.8c-1.3-4.6,2.3-7.3,4.5-10.3
		c10.9-15.1,21.8-30.3,33.2-45.1c5.2-6.7,7.9-13.6,7.3-22.1c-1.2-17.2-2-34.5-3-52.4c-5-4.3-10-8.7-15.1-12.8
		c-25.4-20.5-50.5-41.3-76.3-61.4c-8.2-6.4-12-13.2-11.4-23.6c1.1-19.9,1.3-39.9,1.7-59.9c0.9-41.9,1.6-83.9,2.5-125.8
		c0.1-3.2,0.7-6.4,1.2-10.9c4.3-0.5,8.1-1.2,11.8-1.4c4-0.2,8-0.1,12-0.1c83.9-0.2,167.9-0.4,251.8-0.7
		c99.9-0.3,199.9-0.6,299.8-0.9C9610.9,2683.8,9618.8,2683.8,9629.1,2683.8z"/>
	<path onclick="modals(this.id);" id="1834" class="st0" d="M7828.1,1656.2c2.4,18.4-2.8,35.4-2.8,52.6c0,17.2-5.6,34.1-2.6,52c8.9,1.4,17.4,2.8,26.2,4.2
		c2.9,6,0.3,11.8-1,17.3c-6,24.6-12.4,49.1-19,73.5c-27.9,102.8-56,205.6-83.8,308.4c-9.6,35.4-18.2,70.9-27.7,106.3
		c-6.4,23.8-13.3,47.4-20.1,71.1c-1.1,3.7-2.6,7.3-3.7,10.4c-6.8,2.7-11.2-1.3-15.8-3.3c-59-26.3-117.9-52.9-177-79
		c-18.2-8-37-15-55.8-21.7c-20.7-7.4-41.7-14-62.6-20.6c-8.8-2.8-17.8-4.8-27-7.2c-3-3.6-0.3-7.4,0.6-11
		c17.8-70.4,35.7-140.7,53.6-211c28.3-111,56.7-221.9,85.1-332.9c2-7.7,4.3-15.3,6.6-23.4c14.7-4,29.4-2.3,43.8-1.7
		c33.3,1.5,66.4,4.2,99.7,5.9c56.5,2.9,113.1,5.4,169.6,8.1C7819,1654.5,7823.4,1655.5,7828.1,1656.2z"/>
	<path onclick="modals(this.id);" id="1897" class="st0" d="M6553.3,3077.8c-8.1,26.7-64.8,160.9-74.2,175.4c-7-2.6-14.4-5.2-21.7-8.1
		c-89.4-36.4-178.8-72.8-268.3-109.2c-130.2-52.9-260.4-105.5-390.5-158.6c-128.8-52.6-257.4-105.8-386-158.8
		c-5.4-2.2-10.7-4.9-16.4-7.6c0.3-4,0.1-7.4,0.9-10.4c15-57.2,30.2-114.4,45.2-171.1c9.3-2.1,15.6,2.7,22.2,5.3
		c93.3,37.4,186.7,74.6,279.8,112.5c263.3,107.2,526.5,214.6,789.8,322C6540.2,3071.6,6546.1,3074.5,6553.3,3077.8z"/>
	<path onclick="modals(this.id);" id="1823" class="st0" d="M9626.8,2232.8c-5.4,0.6-8.7,1.3-11.9,1.3c-189.8-0.9-379.7-1.8-569.5-2.8
		c-1.2,0-2.3-1.1-3.8-1.8c-2.7-6.6,0.4-12.8,2.1-19.1c23.5-86.7,46.9-173.5,70.8-260.1c7.3-26.3,16.2-52.1,24.2-78.2
		c6.4-20.9,15.8-41.1,14.4-62.9c7.8-5.8,15.4-3.7,22.5-3.7c59.3-0.2,118.6-0.1,177.9-0.1c83.9,0,167.9,0,251.8,0
		c7.2,0,14.5,0.4,22.9,0.6c0.8,5.1,2,9.5,2,13.9c-0.1,27.3-0.6,54.6-0.7,81.9c-0.3,75.9-0.4,151.9-0.7,227.8
		c-0.1,29.3-0.5,58.6-0.9,87.9C9627.7,2222,9627.2,2226.6,9626.8,2232.8z"/>
	<path onclick="modals(this.id);" id="1815" class="st0" d="M7970.8,1346c163.6,7.7,325.4,17.1,488.6,26.8c-2.5,31.1-5.7,59.9-10.7,89
		c-18.2,5.1-36.2-3.5-54.6,1.3c-3.2,9.3-3.7,19.1-4.3,28.9c-3.4,54.5-6.6,109-9.9,163.5c-2.3,39.2-4.7,78.3-7,118.5
		c-5.8,1.6-11.3,3.2-17.2,4.8c-0.8,1.6-2.1,3.3-2.5,5.1c-9.4,39.5-18.6,79-28,118.5c-1,4.4-2.7,8.6-4.5,14
		c-33.2-7.5-64.8-17.6-96.9-25.8c-32.3-8.2-64.4-16.9-96.6-25.5c-32.2-8.5-64.4-16.9-96.5-25.6c-31.9-8.7-64.1-16.1-96.5-26.1
		c2.7-16.9,5.2-31.9,7.5-46.9c0.9-5.9,1.8-11.9,2.1-17.8c3.3-50.5,6.3-101,9.6-151.5c5.2-80.4,10.6-160.8,15.9-241.1
		C7969.5,1353.6,7970.1,1351.1,7970.8,1346z"/>
	<path onclick="modals(this.id);" id="1832" class="st0" d="M10142.8,2670.1c-1.7,0.9-2.8,2-3.9,2c-80,0.2-160,0.6-240,0.5c-84.5-0.1-169-0.7-254.5-1.2
		c-0.9-5-1.7-8.7-2.2-12.5c-0.3-2-0.1-4-0.1-6c-0.3-58.7-0.6-117.3-0.9-176c-0.3-58-0.4-116-0.7-174c-0.1-13.3-0.7-26.6-0.8-40
		c0-4.6,0.7-9.2,1.1-14.8c4.8-0.7,9.3-1.8,13.7-1.8c30-0.4,60-0.7,90-0.9c76.6-0.6,153.3-0.9,229.9-1.6c50-0.5,99.9-1.6,149.9-2.3
		c6.5-0.1,13,0.5,19.2,0.8c1,3.2,2.2,5,2.2,6.8c-0.4,138.6-0.9,277.3-1.5,415.9C10144.4,2666.8,10143.3,2668.6,10142.8,2670.1z"/>
	<path onclick="modals(this.id);" id="1824" class="st0" d="M10147.2,1804.5c2.3,142.1-1.2,281.8-1.2,420.6c-5.1,5.6-10.7,4.2-15.8,4.3
		c-47.3,0.4-94.6,0.4-141.9,1c-69.3,0.8-138.5,2-207.7,3c-16.7,0.2-33.3,0-50,0.1c-19.3,0.2-38.6,0.6-57.9,0.8
		c-9.9,0.1-19.8,0-30.6,0c-0.9-5-2.1-8.8-2.1-12.5c0.2-55.3,0.6-110.6,1-165.9c0-6.7,0.4-13.3,0.4-20c0.3-70,0.6-139.9,0.9-209.9
		c0-5.9,0.6-11.8,0.9-18.2c7.5-3.6,14.9-2.3,21.9-2.3c65.3-0.1,130.6,0,195.9-0.1c55.3-0.1,110.6-0.4,165.9-0.7
		c32.6-0.2,65.3-0.6,97.9-0.8C10131.4,1803.8,10138,1804.2,10147.2,1804.5z"/>
	<path onclick="modals(this.id);" id="1891" class="st0" d="M10380.2,4072c14.7-83.5,28.3-165,32.8-247.5c0.1-1.9-1-3.8-1.8-6.9
		c-19.6-4.5-39.6-9.1-59.5-13.7c-5.9-19.3-5.6-23.8,3.4-44.8c6.5-2.2,12.6,1.5,18.7,3.2c94.1,26.9,188.1,54.2,282.2,81.1
		c172.8,49.5,345.7,98.9,518.5,148.3c1.9,0.5,3.9,1,5.8,1.5c16.7,4.2,17.5,3.7,21.3-13.2c2.6-11.7,5-23.4,7.6-35.1
		c0.5-2.4,1.6-4.7,2.8-8.3c19.9,7.9,37.9,17.3,56.3,27.7c-14.4,76.3-26.4,152.5-47.9,227.7c-4.5,0-9,0.5-13.5-0.1
		c-50.1-7.1-100.2-14.4-150.3-21.6c-74.5-10.8-148.9-21.6-223.4-32.3c-78.4-11.3-156.9-22.5-235.3-33.7
		c-65.3-9.4-130.5-18.7-195.8-28.1C10395.6,4075.2,10389.2,4073.7,10380.2,4072z"/>
	<path onclick="modals(this.id);" id="1855" class="st0" d="M9642.3,2686.3c4.3-1.2,6.2-2.2,8-2.2c64-0.1,127.9-0.4,191.9-0.2c99.8,0.4,199.6,1.2,300.7,1.9
		c0.6,6.2,1.7,11.3,1.6,16.3c-0.2,38.6-0.6,77.3-0.8,115.9c-0.1,35.3,0.3,70.6-0.1,106c-0.6,56.6-1.6,113.2-2.5,169.8
		c0,2.6-0.6,5.2-1.1,8.8c-3.8,0.7-7.6,1.9-11.4,1.9c-24.6,0.4-49.3,0.7-73.9,0.8c-99.9,0.3-199.9,0.5-299.8,1
		c-29.3,0.1-58.6,1.1-87.9,1.5c-6.5,0.1-13.1-0.5-20.8-0.8c-0.6-4.6-1.3-8.3-1.6-12.1c-0.2-2.6-0.1-5.3-0.1-8
		c-0.3-111.9-0.5-223.9-0.9-335.8c-0.1-14.6-1-29.3-1.3-43.9C9642.2,2700.6,9642.3,2694,9642.3,2686.3z"/>
	<path onclick="modals(this.id);" id="1853" class="st0" d="M9009.5,2886.3c-8.6-6.5-13.4-9.9-18-13.6c-85.5-69.2-171-138.3-256.4-207.6
		c-15-12.2-30.5-23.7-47.7-32.7c-12.7-6.7-16-6.6-26.4,3.2c-25.7,24.1-52.7,47.1-73.9,75.7c-1.5,2.1-3.7,3.7-6.6,6.4
		c-47-18.2-93.2-38.5-140-57.6c-46.9-19.1-93.5-38.7-140.3-58.1c-46.8-19.3-93.6-38.5-140.4-57.8c-46.7-19.3-93.4-38.7-140-58
		c6.5-19.1,29-53.9,49.3-76.4c11.6,2.9,23.8,5.8,35.9,9c50.3,13.1,100.5,26.3,150.7,39.5c5.8,1.5,11.4,3.9,18.6,1.5
		c7.3-13.5,9.2-29.6,13.9-44.6c4.7-15.2,8.9-30.6,13.2-45.7c7.1-2.8,12.8-0.2,18.4,1.2c55.4,14.4,110.7,29.2,166.2,43.4
		c169.1,43.1,337.1,90,505.4,136.2c6.3,1.7,12.5,4,19.7,6.3C9016.2,2665.7,9013.1,2773.8,9009.5,2886.3z"/>
	<path onclick="modals(this.id);" id="1919" class="st0" d="M11483.4,2892.4c-3.1,0-5.2,0.5-7-0.1c-85.8-24.4-171.6-49-257.4-73.6c-1.8-0.5-3.3-2-6-3.8
		c1.7-9.5,3.3-19.2,5.2-28.9c8.4-44.5,16.8-89,25.3-133.5c1.1-5.9,2.3-11.8-1.1-19c-5.4-1.7-11.6-3.8-17.9-5.6
		c-74.3-21.1-148.6-42.2-222.9-63.4c-8.9-2.5-17.6-5.5-27.2-8.5c-0.3-29-0.8-57-0.8-84.9c0-4.5,1.5-9.2,3-13.5
		c17.6-49.6,35.3-99.1,53-148.7c0.9-2.5,2.3-4.8,4.2-8.4c4.8,0.5,10.1,0.4,15,1.6c66,16.1,132,32.3,197.9,48.5
		c51.7,12.7,103.5,25.4,155.2,38.2c4.5,1.1,9.2,1.9,13.4,3.8c3.5,1.5,6.7,4.1,9.3,6.9c2.6,2.9,4.3,6.7,6.5,10.1
		c33.5,53.7,66.9,107.5,100.7,161c6.7,10.6,9.1,20.3,6.6,33.5c-17.3,88.2-33.3,176.7-49.9,265.1
		C11487.1,2877,11485.1,2884.6,11483.4,2892.4z"/>
	<path onclick="modals(this.id);" id="1912" class="st0" d="M10317.2,4492.2c18.4,2.3,34.2,4.2,49.9,6.3c56.1,7.6,112.2,15.1,168.3,22.8
		c50.8,7,101.6,14.1,152.4,21.1c34.3,4.8,68.6,9.4,102.9,14.3c67.2,9.6,134.5,19.4,201.7,28.9c19.8,2.8,39.9,3.6,59.4,7.4
		c25.8,5,51.6,4.1,77.5,4.4c2.6,0,5.2,0.5,8,0.7c4,6.2,0.5,12-0.7,17.4c-12.3,55.9-25.1,111.8-37.7,167.6
		c-3.7,16.2-7.3,32.3-10.9,47.8c-7.3,4.8-14.1,2.4-20.4,1.7c-24.5-2.8-48.9-6.2-73.3-9.4c-47.6-6.1-95.1-12.2-142.7-18.4
		c-46.9-6.1-93.8-12.2-140.7-18.3c-42.9-5.6-85.9-11.1-128.8-16.6c-46.3-5.9-92.5-11.6-138.8-17.6c-48.2-6.2-96.4-12.6-144.6-19
		c-3.2-0.4-6.3-1.3-10.1-2.1c0-4.7-0.4-8.6,0.1-12.4C10298,4644.1,10307.4,4569.5,10317.2,4492.2z"/>
	<path onclick="modals(this.id);" id="1928" class="st0" d="M11171.1,3047.3c8.6-16.4,8.7-34.7,12.7-51.9c4.2-18.2,6.9-36.6,10.4-55
		c3.4-17.7,7.6-35.2,10.3-52.9c2.7-17.7,3.9-35.6,5.9-54.4c4.4,0.4,8.4,0,12,1.1c82.6,23.5,165.2,47.2,247.8,70.9
		c3.1,0.9,6,2.4,8.8,3.6c-0.6,15.5-89.4,478-94.7,493.2c-3.6,0-7.4,0.5-11.1-0.1c-53.9-8.8-107.8-17.6-161.6-26.6
		c-25.6-4.3-51.1-9.4-76.8-13.4c-18.5-2.9-36.6-7-54.4-12.6c-30.5-9.5-61.1-18.7-91.6-28.2c-5-1.5-9.8-3.7-15.5-5.9
		c4.8-17.4,9.4-34,14-50.6c6.1-21.8,11.6-43.8,18.4-65.4c3.7-11.9,4.4-23.6,2.6-35.5c-4.1-28.3-8.8-56.6-13.2-84.9
		c-1-6.5-1.9-13-3-20.5c3.7-1.5,6.5-3.2,9.6-3.7c32.7-6.1,65.6-11.7,98.2-18.1c9.5-1.9,18.4-1,27.5,1.3c11.6,3,23.2,6,34.9,8.8
		C11164.8,3047,11167.4,3047,11171.1,3047.3z"/>
	<path onclick="modals(this.id);" id="1908" class="st0" d="M8328.6,4020.6c119.5-2.6,238-5.2,356.5-7.7c1.8,0,3.6,1.1,6.5,2c1.7,10.3,1.6,20.9,1.7,31.4
		c0.4,41.3,0.4,82.6,1,123.9c1.1,81.3,2.7,162.5,3.9,243.7c0.4,25.9,0.1,51.8,0.1,79.1c-2.4,0.3-5.5,1.3-8.4,0.9
		c-37-4.9-73.9-10.1-110.8-15.2c-54.1-7.4-108.2-14.8-162.3-22.2c-25.1-3.4-50.2-6.8-75.2-10.4c-6.5-0.9-13.4-1.1-19.6-7.8
		c4-53.1,8.1-107.3,12.2-162.3c5.4-1.2,9.8-2.4,14.3-3c12.5-1.6,25.1-2.9,37.7-4.6c2.5-0.3,5.1-1.3,7.4-2.3c2.5-1.1,3.4-7.2,1.2-8.7
		c-2.7-1.9-5.6-3.6-8.6-4.8c-13.7-5.3-27.4-10.4-41.1-15.6c-42.4-16-84.8-31.9-127.1-47.9c-5.5-2.1-10.8-4.5-15.5-6.4
		c-0.5-1.9-0.8-2.5-0.8-3.2c0-0.6,0.3-1.4,0.6-1.9C8243.9,4126,8285.6,4074,8328.6,4020.6z"/>
	<path onclick="modals(this.id);" id="1883" class="st0" d="M9033.8,4008.1c-0.4-24.9-1-47.5-1.1-70.1c-0.4-68-0.4-135.9-1-203.9
		c-0.4-45.3-1.6-90.5-2.3-135.8c-0.1-9.2,0.2-18.4,0.3-28.7c5-0.7,8.7-1.3,12.5-1.7c2-0.2,4-0.1,6-0.1
		c117.2-0.5,234.5-1.1,351.7-1.5c7.8,0,15.9-1.3,24.3,2.2c0.4,5.4,1,10.6,1,15.8c0.4,56,0.5,111.9,1,167.9
		c0.7,77.2,1.6,154.5,2.4,231.7c0.1,7.3,0,14.6,0,22.8c-4.4,1-8.1,2.6-11.8,2.6c-60.6-0.3-121.2-0.9-181.8-1.2
		c-18-0.1-36,0.5-53.9,0.6c-44,0.3-87.9,0.5-131.9,0.6C9044.7,4009.3,9040.2,4008.6,9033.8,4008.1z"/>
	<path onclick="modals(this.id);" id="1806" class="st0" d="M8399,1568.3c-1.7-19.2,3.3-78.3,7.6-92.5c8.4,0,16.9,0,25.4,0c8.6,0,17.1,0,26.5,0
		c6.5-16.6,5.9-34.1,8.4-50.9c2.5-16.4,4.3-33,6.4-49.8c11.3-4.2,22.7-3,33.8-3.2c77.9-1.3,155.8-2.3,233.6-3.2
		c41.3-0.5,82.6-0.3,123.8-1c67.9-1.1,135.8-2.5,203.6-3.9c41.9-0.8,83.8-1.7,125.8-2.5c6.5-0.1,13,0.5,19.8,0.8
		c0.8,3.7,1.8,6.2,1.8,8.8c1.3,48.2,4.7,202.1,0.3,235.4c-1,0.8-1.9,2.3-3,2.4c-19.8,1.3-39.6,3.6-59.6,1.8
		c-43.1-3.9-86.2-7.3-129.4-10c-55.1-3.4-110.3-5.9-165.5-8.7c-54.5-2.7-109-5.4-163.5-8c-55.8-2.7-111.7-5.3-167.5-8
		c-37.2-1.8-74.4-3.8-111.6-5.8C8410.6,1569.7,8405.4,1569,8399,1568.3z"/>
	<path onclick="modals(this.id);" id="1822" class="st0" d="M9110.9,1911.6c-8.5,2.8-14.6-0.9-20.9-2.7c-72.4-20.6-144.6-41.5-217-62.1
		c-50.6-14.4-101.1-29.2-151.9-42.7c-14.6-3.9-30.2-4.8-45.4-6c-45.8-3.5-91.7-6.3-137.5-9.6c-46.5-3.4-93-7-139.4-10.6
		c-3.9-0.3-7.7-1.2-12.7-2c-0.5-22,2.7-43,3.3-64.1c0.6-21.3,2.2-42.6,3.3-63.8c1.2-21.2,2.3-42.5,3.6-65.1
		c6.8-0.2,12.6-0.9,18.4-0.6c51.9,2.5,103.7,5.2,155.6,7.7c57.2,2.8,114.4,5.4,171.6,8.2c54.5,2.6,109.1,5.3,163.6,8
		c46.6,2.3,93.1,4.4,139.6,7.4c32.6,2.1,65,5.6,97.5,8.6c3.2,0.3,6.4,1.4,10.5,2.3c0.3,4.1,1.2,7.9,0.9,11.7
		c-3.7,47.8-7.6,95.6-11.5,143.4c-0.1,1.3-0.4,2.7-0.3,4c1.2,32.7-9.4,62.9-19.7,93.2C9118.4,1888.7,9114.5,1900.6,9110.9,1911.6z"
		/>
	<path onclick="modals(this.id);" id="1917" class="st0" d="M11325.2,2117.2c19.6,2.4,38.7,5,57.9,7.1c52.3,5.9,104.6,11.4,156.9,17.5
		c21.1,2.4,42.4,3.9,63.3,13.7c-0.7,33.5-7.2,66.8-11.1,100.3c-4,34.4-9,68.7-13.7,103c-4.6,33.7-8.6,67.4-14,100.9
		c-5.4,33.3-11,66.6-18,99.4c-2.6-0.3-3.2-0.2-3.7-0.4c-0.6-0.2-1.3-0.5-1.6-1c-36.5-58.1-73-116.2-110.3-175.5
		c-65.3-16.1-131.2-32.4-197.1-48.7c-65.2-16.1-130.6-31.2-196.3-48.1c0.2-4.7,0-8,0.6-11.1c8.9-51.2,17.3-102.5,26.9-153.5
		c8.8-46.5,19.6-92.5,34.6-137.4c2.1-6.3,4-12,11.1-15.5c4.2-2.1,6.8-7.9,9.7-12.3c18.2-27.9,36.3-55.9,54.6-83.7
		c3.2-4.9,6.9-9.5,11.5-15.8c2.8,5.6,5.1,9.4,6.7,13.4c13.2,32.8,26.1,65.6,39.4,98.3c3,7.4,6.4,14.7,10.6,21.4
		c25.5,40.7,51.2,81.1,76.9,121.7C11321.4,2112.4,11322.7,2113.9,11325.2,2117.2z"/>
	<path onclick="modals(this.id);" id="1878" class="st0" d="M10331.7,3397.4c7.9-4.8,12.9-8.1,18-11c27.1-15.7,54.1-31.6,81.4-47
		c11.2-6.3,20.8-14.2,29.5-23.5c10.1-10.7,20.7-20.8,30.5-31.6c7.8-8.6,17-14.4,28.1-18.2c29-9.9,57.9-20.1,86.5-30.9
		c10-3.8,19.2-3.8,29.1-1.2c35.4,9.5,70.7,19,106.1,28.5c18.7,5,37.4,9.8,56,14.8c4.4,1.2,8.6,3,13.9,4.9
		c-1.2,5.8-1.9,10.9-3.4,15.9c-24.8,86.4-49.6,172.8-74.4,259.2c-1.8,6.4-3.5,12.8-4.8,19.4c-1.1,5.7,0.4,10.4,5.9,13.6
		c6.3,3.7,12.5,7.7,18.8,11.5c92.1,56.3,184.2,112.7,276.2,169c5.1,3.1,9.9,6.6,15.8,10.6c-2,10.5-3.9,20.6-6.2,32.6
		c-5.7-2.6-9.9-4-13.7-6.3c-61.9-36.8-123.6-73.7-185.5-110.4c-65.9-39.1-131.8-78.2-197.7-117.2c-0.6-0.3-1.1-0.7-1.7-1.1
		c-16.9-9.7-19.3-8.9-24.7,9.4c-18.5,62.6-36.8,125.2-55.2,187.8c-2,6.9-4.4,13.7-6.9,21.5c-23-3-43.4-11.1-64.5-16.6
		c-21.2-5.6-42.3-12.1-63.4-18.2c-21.1-6.1-42.1-12.1-64.5-18.5c0.7-5.1,0.7-9.7,2.1-13.8c20.1-63.5,40.5-126.9,60.7-190.3
		c6.3-19.7,12.7-39.3,18.8-59c3.7-12.2,2.9-14.3-8.3-21.1c-29-17.6-58.3-35-87.4-52.6C10342.6,3404.8,10338.4,3401.8,10331.7,3397.4
		z"/>
	<path onclick="modals(this.id);" id="2841" class="st0" d="M8601.5,4818.7c60,67.5,117.6,134.5,173.2,202.9c-12.9,14.8-364.9,309.9-381,319.6
		c-5.7-5.1-11.9-10.1-17.6-15.6c-31.2-30-62.3-60.2-93.3-90.3c-2.4-2.3-4.9-4.6-6.7-7.4c-19-28.1-38-56.2-51.8-87.9
		c7.9-17.7,16.2-35,23.4-52.8c15.1-37,28.8-74.5,44.6-111.2c19-44,34.9-89.2,53-133.6c7.5-18.5,15.8-36.7,23.9-55
		c2.1-4.7,4.6-9.2,7.1-14.1c8,3.1,11.2,9.2,15.3,14.1c29.6,35.1,59.4,70.2,88.6,105.7c13.3,16.1,17,16.6,33.1,2.1
		C8541.5,4869.9,8570.6,4845.4,8601.5,4818.7z"/>
	<path onclick="modals(this.id);" id="1902" class="st0" d="M10379.4,4085.8c279.8,40.4,557.8,80.5,836.6,120.8c2.2,16.2-3.2,30.8-5,45.7
		c-1.9,15.9-4.7,31.6-7.2,47.4c-2.4,15.1-4.6,30.3-7.2,45.4c-2.6,15-4.8,30.1-10.1,45c-3,0.5-5.6,1.4-8.1,1.2
		c-33.2-2.3-66.2-7.1-99.1-12c-46.8-7-93.5-13.9-140.6-18.8c-29.1-3.1-57.9-8.9-86.9-13.3c-65.2-10.1-130.3-20.3-195.5-30
		c-60.6-9.1-121.2-17.8-181.9-26.6c-31.6-4.6-63.3-9.1-94.9-13.7c-8.5-1.2-16.9-3-25.3-4.5c-3.7-7.1-1.5-13.8-0.6-20.1
		c4.1-29.7,8.4-59.3,12.8-89c3.3-22.4,6.9-44.8,10.4-67.1C10377.3,4093.4,10378.1,4091,10379.4,4085.8z"/>
	<path onclick="modals(this.id);" id="1903" class="st0" d="M10321,4477.8c0-4.7-0.5-8.7,0.1-12.5c9.1-59.2,18.3-118.4,27.6-178.2c5.1,0,9-0.5,12.6,0.1
		c69.9,10,139.8,19.9,209.7,30.3c75.1,11.1,150.2,22.6,225.2,34.2c42.1,6.5,84.1,13.9,126.3,20.1c26.3,3.9,53,5.8,79.4,9.4
		c40.9,5.6,81.7,12,122.6,17.8c18.4,2.6,36.9,4.8,55.6,7.2c3.8,6,1.1,11.8-0.1,17.3c-8.4,37.7-17,75.4-25.5,113
		c-3.5,15.5-7.1,31-10.7,46.9c-20.3,2.4-39.6,1.9-58.8,0.5c-13.3-1-26.4-4.2-39.6-4.9c-36.7-2-72.4-10.9-108.8-15.5
		c-44.9-5.6-89.7-12.3-134.6-18.5c-53.4-7.4-106.9-14.8-160.3-22.1c-44.9-6.1-89.8-12-134.7-18c-42.2-5.7-84.5-11.6-126.7-17.4
		c-15.8-2.2-31.7-4.3-47.5-6.6C10328.8,4480.2,10325.1,4478.9,10321,4477.8z"/>
	<path onclick="modals(this.id);" id="1907" class="st0" d="M9020.3,4023.2c0.4,6.9,1,12.1,1,17.3c0.1,18,0,36,0.1,54c0.3,98.6,0.5,197.3,0.9,295.9
		c0.2,44,1,87.9,1.5,131.9c0.1,6.6-0.4,13.1-0.6,18.7c-1.7,1.3-2.2,1.7-2.8,2c-0.6,0.3-1.2,0.9-1.8,0.8
		c-81.7-12.2-163.3-24.5-245-36.9c-19.7-3-39.4-6.2-58.8-9.3c-1.1-2.8-2.4-4.5-2.5-6.4c-0.8-21.3-1.8-42.6-2-63.9
		c-0.7-64-0.9-128-1.7-191.9c-0.8-66.6-2.1-133.2-3.2-199.8c-0.1-6.6,0-13.2,0-20.7c4.9-0.9,8.6-2.2,12.3-2.2
		c45.3,0.1,90.6,0.1,136,0.8c9.9,0.2,19.9,2.1,29.5,4.7c24.8,6.6,49.8,7.8,75.3,6c16.6-1.2,33.2-1.4,49.9-2
		C9011.5,4022.2,9014.8,4022.8,9020.3,4023.2z"/>
	<path onclick="modals(this.id);" id="1805" class="st0" d="M7982.5,1094.4c15.9,1,26.3,12.5,41.6,10.2c1.4-2.9,3.5-6.2,4.6-9.9
		c9.4-33.3,18.5-66.7,27.8-100c1.8-6.3,3.8-12.6,5.5-18c1.7-0.9,2.3-1.3,2.9-1.4c0.6-0.2,1.4-0.3,2-0.2c137,36.1,274,72.3,411,108.5
		c3.1,0.8,6.2,1.9,10.4,3.1c-0.8,4.5-1.2,8.3-2.1,11.9c-7.2,27.7-15.5,55.1-25.8,81.8c-2.6,6.8-5.2,13.7-7.5,20.6
		c-4,12.5-3.3,14.4,6.7,21.9c4.2,3.2,8.4,6.4,12.1,9.2c0.8,18.3-8.2,112-11.9,125.3c-0.5,0.4-1.1,1-1.7,1.1c-1.9,0.4-3.9,1-5.8,0.9
		c-158.7-8.9-317.5-17.8-476.2-26.9c-1.2-0.1-2.2-1.2-4.4-2.4C7973.6,1252.6,7979.6,1174.5,7982.5,1094.4z M8142.3,1171
		c-2.4-2.1-3.9-4.3-4.9-4c-1.4,0.3-3.3,2.3-3.4,3.7c-0.2,1.5,1.5,3.1,2.3,4.7C8138.1,1174.1,8139.8,1172.9,8142.3,1171z"/>
	<path onclick="modals(this.id);" id="1785" class="st0" d="M8135.1,977c-4.4-0.3-7.1-0.1-9.6-0.7c-134.3-36-268.7-72.1-404-108.4c0.7-4.8,0.8-8.7,1.8-12.3
		c8.6-31.5,16.8-63.1,26.1-94.4c9.2-31.3,16.8-63,23.6-95c4.4-20.8,9.3-41.6,14.2-62.3c5.8-24.6,11.7-49.2,14.5-74.5
		c1-9.1,2.3-18.4,7.7-27.9c4.3,0.9,9.4,0.8,12.8,3c10.9,7.1,23.4,9.2,35.6,12.3c73.6,18.7,147.2,37.3,220.7,56
		c3.2,0.8,6.3,1.9,10.6,3.2c-0.4,5.5-0.2,10.7-1.2,15.7c-3.1,15-6.8,29.9-10,44.8c-1.1,5.2-1.5,10.5-1.8,15.8c-0.1,1.8,1,3.7,2,7
		c8.4,2,17.3,4.2,26.3,6.3c18.8,4.4,37.6,9,56.4,13.1c10.2,2.2,12.7,0.6,16.4-9.5c5.5-15,10.6-30.1,16-45.2
		c1.8-4.9,3.7-9.8,5.6-14.7c10.4-2,19.3,0,28.9,2.1c-0.2,12.3-1.5,23.3-5.2,34.1c-7.7,22.7-14.8,45.6-22.1,68.4
		c-3.7,11.4-8.1,22.5-7.3,34.9c0.2,3.2-1,6.6-2,9.7c-18.9,66-34,132.9-50.6,199.4C8139.2,964,8137.3,969.7,8135.1,977z"/>
	<path onclick="modals(this.id);" id="1895" class="st0" d="M6495.5,3258.4c49.8-120.9,99.4-241.5,148.7-361c6.3-3,10.3,0.1,14.4,1.8
		c120.9,49.1,241.8,98.2,362.7,147.4c4.8,2,9.3,4.7,14.9,7.5c-1.6,5-2.8,9.4-4.4,13.6c-20.3,53.5-40.4,107.1-61,160.6
		c-11.9,31.1-24.5,61.9-36.9,92.7c-1.4,3.6-3.5,6.9-6,11.6c-12.4-4.8-24.1-9.1-35.6-13.9c-9.9-4.1-20-6.5-30.9-7.1
		c-47.9-2.3-95.8-4.9-143.6-7.6c-41.9-2.4-83.8-4.9-125.6-7.6c-5.9-0.4-12-1.7-17.4-3.8c-24.2-9.5-48.1-19.5-72.1-29.4
		C6500.3,3262.2,6498.3,3260.3,6495.5,3258.4z"/>
	<path onclick="modals(this.id);" id="1810" class="st0" d="M10772.8,1432.1c7.4,2.6,11.8,4,16,5.7c61.7,24.8,123.3,50,185.3,74.3c10.2,4,16.3,10.8,22,19.1
		c39.7,58.4,79.3,116.7,119,175.1c4.1,6.1,8,12.3,12.5,18.1c25.7,32.6,36.1,72.2,51.6,109.9c-3.3,5.6-6.2,10.9-9.4,15.9
		c-18.8,29-37.7,58.1-56.7,87c-4.3,6.6-8,13.5-15,18.3c-3.5,2.4-5.5,7.4-7.3,11.5c-2.9,6.6-5.1,13.6-7.8,20.9c-3.7,0-7.1,0.7-10-0.1
		c-70-18.8-140-37.8-210-56.7c-3.1-0.9-6.2-2.2-10.3-3.6c0.6-4.9,0.6-9.4,1.7-13.7c5.5-21.3,11.3-42.4,16.8-63.7
		c1.5-5.7,2.2-11.6,3-16.2c-3.7-6.9-9.2-7.5-14.2-9c-34.3-10.6-68.7-21.1-103-31.7c-5-1.5-9.9-3.3-16-5.3c0.8-4.5,1-8.3,2.1-11.9
		c9.1-30.6,18.5-61.1,27.3-91.8c2.2-7.6,3.5-15.6,3.7-23.5c1.4-65.2-1.3-130.3-1.3-195.5
		C10772.8,1455.1,10772.8,1445.2,10772.8,1432.1z"/>
	<path onclick="modals(this.id);" id="2767" class="st0" d="M9327.9,7195.9c-5.3-3.1-10-5.5-14.4-8.4c-31.7-20.7-64-40.4-94.2-63.4
		c-43.4-33-88.6-63.7-133-95.5c-6.4-4.6-13.6-8.3-19.1-15.7c1.9-3.4,3.6-6.9,5.6-10.2c37.5-59.8,77.5-117.9,120.1-174.2
		c40.6-53.6,79.6-108.4,119.4-162.6c7.1-9.6,14.4-19,22.2-29.1c4.3,2.6,7.8,4.2,10.8,6.5c72.7,58.3,145.3,116.7,218,175.1
		c2.1,1.7,4.5,2.9,7.4,4.8c-4,6.8-6.8,11.9-10,16.8c-67.3,99.9-134.6,199.9-202.1,299.7c-9.7,14.4-18.9,29-24.9,45.4
		C9332.4,7188.7,9330.1,7191.9,9327.9,7195.9z"/>
	<path onclick="modals(this.id);" id="1816" class="st0" d="M7955.6,1345.6c0,12.4,0.5,23-0.1,33.5c-1.8,31.2-4.1,62.4-6.2,93.6
		c-3.6,53.1-7.4,106.2-10.9,159.4c-2.1,31.2-4.1,62.4-5.6,93.7c-1.2,25.4-5.5,50.3-10.4,75.1c-0.5,2.5-1.5,4.9-2.6,8.3
		c-20.3-2.6-39.1-8.5-58.3-13.5c-3.1-14.9,7.5-27.9,2.9-42.4c-9.5-1.4-18.5-2.7-28.5-4.1c-0.8-35.1,7.5-69.1,5.7-104.5
		c-5.4-0.9-9.8-2.1-14.2-2.3c-47.9-2.2-95.8-4.2-143.6-6.5c-34.6-1.7-69.3-2.1-103.6-6.1c-21.9-2.6-43.7-2.9-65.5-3.6
		c-2.6-0.1-5.1-1-9-1.9c24.9-99.2,50.3-197.7,75.6-296.2c7.7-4.6,17.4-3,23.6-10.5c1.8-2.1,7.5-1.4,11.4-1.1
		c24.6,1.8,49.1,3.7,73.7,5.9c37.1,3.3,74.3,6.7,111.4,10.2c29.1,2.7,58.2,5.9,87.4,8.5c17.2,1.5,34.5,2.3,51.8,3.4
		C7945.1,1344.6,7949.6,1345.1,7955.6,1345.6z"/>
	<path onclick="modals(this.id);" id="1833" class="st0" d="M9103.8,1928.1c-0.9,14.7-38.9,154.9-49.5,183.2c-5.2,3.5-10.2,0.5-15.1-0.8
		c-79.7-21.5-159.3-43-239-64.5c-149.7-40.3-299.4-80.6-449.1-120.9c-4.4-1.2-8.8-2.8-14-4.5c0-3.6-0.6-6.9,0.1-9.9
		c8.3-36.3,16.8-72.6,25.4-108.9c0.9-3.8,2.5-7.4,3.9-11.4c10.5,0,20.4-0.6,30.2,0.1c43.8,3.2,87.6,6.8,131.4,10
		c56.4,4.2,112.8,8,169.2,12.2c6.6,0.5,13.1,2.2,19.5,4c95.3,27.2,190.6,54.5,286,81.8c30.7,8.8,61.4,17.4,92.2,26.2
		C9098.1,1925.8,9101,1927.1,9103.8,1928.1z"/>
	<path onclick="modals(this.id);" id="2842" class="st0" d="M8250.9,5042.6c-11,26.7-20.8,51.4-32.6,75.3c-12.5,25.3-11.2,19.6,0.3,44
		c12.3,26,27.9,50.2,44.9,73.1c11,14.8,25.8,26.8,39.2,39.8c24.8,24.2,49.8,48.2,74.7,72.3c1.4,1.3,2.2,3.2,3.6,5.3
		c-2.8,7.2-9.5,10.9-14.9,15.6c-49.4,42.7-99,85.2-148.5,127.8c-14.6,12.6-29.2,25.1-43.4,37.3c-15.9-6.6-243.2-149.6-258.1-162.3
		c0.5-2.2,0.8-4.8,1.8-7.1c58-127.9,116.2-255.7,173.4-381.6c2.8-1.7,3.4-2.2,4-2.3c0.6-0.1,1.3,0,1.9,0.2c1.9,0.6,3.9,1.1,5.7,1.8
		C8151.5,5001.7,8200,5021.6,8250.9,5042.6z"/>
	<path onclick="modals(this.id);" id="1804" class="st0" d="M7606,1300.7c8.1-41.6,14.7-80.9,25.8-119.4c26.3-91.5,51.4-183.3,77-275
		c2.1-7.6,4.5-15.2,6.6-22.2c8-3.7,14.2,0.4,20.2,2c86.2,22.9,172.4,46.1,258.6,69.2c12.9,3.4,25.8,6.7,38.6,10.3
		c5,1.4,9.8,3.6,15.7,5.7c-10.9,39.2-21.5,77.6-32.3,116.3c-8.8,0.9-14.7-3.9-21.4-6.1c-6.8-2.2-13-7.1-22.3-4
		c-0.6,2.3-2,5.2-2.2,8.3c-0.7,10.6-0.8,21.3-1.4,31.9c-3.1,63.2-6.1,126.4-9.3,189.5c-0.4,7.8-1.6,15.6-2.6,24.5
		c-5.7,0-10.3,0.4-14.8-0.1C7831.1,1321.5,7719.9,1311.2,7606,1300.7z"/>
	<path onclick="modals(this.id);" id="1786" class="st0" d="M8149.5,980.7c10-42.1,19.2-82.9,29.5-123.5c10.1-40,20.9-79.8,32.2-119.5
		c11.4-40.2,23.7-80.1,35.9-121.3c113.7,28,222.3,70.1,332.2,104.2c4.3,7.6,1.3,13.3-0.1,18.9c-21.3,83.2-42.6,166.3-63.9,249.5
		c-6,23.2-11.9,46.4-18.1,69.6c-1.2,4.4-3,8.6-4.5,12.6C8475.2,1069.4,8168.1,988.4,8149.5,980.7z"/>
	<path onclick="modals(this.id);" id="1825" class="st0" d="M10466.3,2343.3c-5.3-82.7-2.8-165-0.9-247.5c2-1,3.7-2.6,5.4-2.6c28.6,0,57.2,0.2,86.5,0.4
		c1,4.6,2.3,8.4,2.4,12.2c0.5,16,0.6,32,1,47.9c0.2,7.9,0.8,15.8,1.2,23.1c20.4,6.9,81.2,5.5,114.7-2.4c0.4-3.4,1.3-7.2,1.3-11
		c0.2-33.3,0.3-66.6,0.2-99.9c-0.1-14-0.6-28-1.5-41.9c-0.6-8.7,1.5-15.7,9.7-22c4.1,0.7,9.3,1.1,14.2,2.5
		c111,30.6,222,61.3,333,92.1c3.8,1,7.4,2.7,10.9,4c0.4,7.8-5.8,10.8-9.5,15.1c-8.7,10.1-18,19.5-23.4,32.1c-2,4.8-6,8.8-9.3,12.9
		c-23.3,29.2-46.5,58.3-69.9,87.4c-12.5,15.6-24.6,31.3-35.5,48.2c-11.1,17.3-25.4,32.6-37.3,49.4c-8.2,11.5-17.8,21.2-28.9,30.9
		c-4.4-0.6-9-0.8-13.4-1.9c-43.3-10.9-86.5-21.8-129.7-33.1c-11.3-3-22-4.2-33.3-0.2c-5.6,1.9-11.7,2.9-17.6,3
		c-38.6,1.1-77.2,1.8-115.8,2.6c-10.7,0.2-21.3,0.6-32,0.5C10481.6,2345.2,10474.3,2346.3,10466.3,2343.3z"/>
	<path onclick="modals(this.id);" id="2763" class="st0" d="M9444.7,6465.6c-43.5,57.6-86,113.9-129.3,171.2c-3.7-2.3-7.2-3.8-10.1-6.1
		c-45.6-38-90.4-76.8-132.7-118.5c-9.5-9.3-19.8-17.9-29.5-26.9c-12.7-11.7-25.3-23.6-37.9-35.4c-2.4-2.3-4.8-4.7-7.5-6.6
		c-3.8-2.6-7.8-2-10.9,1.1c-3.2,3.3-5.9,7.2-8.7,11c-10.5,14.6-21,29.3-31.5,43.8c-2.7,3.7-5.7,7.1-9.4,11.6
		c-3.8-2.7-7.1-4.6-9.9-7.1c-22.1-20.2-44-40.7-66.3-60.8c-18.7-16.8-28.2-37.8-32.3-62.4c-7.5-44.7,5.4-84.1,28.4-121.5
		c20.1-32.5,45.4-60.8,69.8-90c4.2-5,9.9-9.3,9.2-18.6c-6.4-5.8-13.6-12.4-21.1-19.2c4.5-7.4,9.1-13.8,17-18.8
		c9,6.9,18,13.7,26.9,20.6c64.2,49.9,126.2,102.5,186.7,156.8c27.8,24.9,56.7,48.6,85.8,71.9c37.5,30.1,71.7,63.7,107,96.2
		C9440.4,6459.8,9441.8,6462,9444.7,6465.6z"/>
	<path onclick="modals(this.id);" id="1839" class="st0" d="M8988.4,4835.7c-11.8-11.7-22.2-21.9-32.5-32.3c-26.6-27.1-52.9-54.5-79.7-81.3
		c-8.9-8.9-19-16.7-28.9-24.5c-6-4.7-10.7-9.9-11.2-18.2c-15.7-6.8-31.7-11.4-48.1-13.7c-71.2-10-142.4-19.5-213.6-29.2
		c-11.9-1.6-23.9-2.4-35.6-4.8c-10.3-2.1-19.8-0.6-29.5,2.2c-14.1,4-28.1,8.2-42.2,12.1c-5.1,1.4-10.3,2-15.1,2.9
		c-5.9-5.8-3.2-12.1-2.4-17.6c4.2-29,9-57.9,13.5-86.8c2.9-18.4,5.6-36.8,8.5-55.3c0.5-3.2,1.4-6.4,2.3-10.7c3.6,0,6.7-0.4,9.8,0.1
		c64.6,9,129.2,17.9,193.8,27.2c45.5,6.6,90.8,13.8,136.2,20.7c40.8,6.2,81.6,12.1,122.4,18.6c46,7.2,91.9,15,138,22.3
		c13.1,2.1,26.5,2.9,39.7,4.5c37.7,4.6,75.3,9.2,112.9,14c4.5,0.6,8.9,2.3,14.6,3.8c-1.9,3.6-3.2,6.5-4.9,9.1
		c-1.4,2.2-3.4,4.1-4.9,6.3c-28.7,39.6-62.6,74-100,105.5c-42.3,35.6-83,73-124.5,109.6C9001.6,4824.9,8996,4829.4,8988.4,4835.7z"
		/>
	<path onclick="modals(this.id);" id="1787" class="st0" d="M8626.3,1155.3c-21.3-1.4-40.6-2-59.7-4.1c-10.2-1.1-20.2-1.1-29.4,2.7
		c-11.5,4.7-22,3.4-32.7-1.6c-4.8-2.3-9.6-4.3-15.4-6.8c0.7-4.7,0.8-9.3,2-13.6c28.7-110.1,57.4-220.2,86.4-330.2
		c9.6-36.7,20-73.1,29.8-109.8c3.6-13.5,6.5-27.2,9.9-40.7c0.8-3.2,2.2-6.2,3.7-10.3c5.4,0.4,10.7,0.3,15.7,1.3
		c38.5,7.7,77,15.3,115.4,23.6c15.5,3.4,31.2,6.9,45.1,15.5c3.8,2.4,8.8,2.9,13.3,4.1c16,4.3,32.1,8.4,48.7,12.8
		c1.4,5.5,2.7,10.5,3.9,15.6c13.5,55.1,18.9,111.4,26.5,167.4c3,22.4,6.7,44.7,10,67.1c1.3,8.5,3.3,16.9,1.4,27
		c-13.3,3-26.8,6.3-40.3,9.1c-48.9,10.2-97.8,20.1-146.6,30.4c-10.6,2.3-20.8,3.6-31.3-0.7c-5.5-2.3-11.5-3.4-19,0.3
		C8650.5,1059.7,8639.7,1106.9,8626.3,1155.3z"/>
	<path onclick="modals(this.id);" id="1814" class="st0" d="M10159.8,1804.9c7-0.5,11.5-1,16-1.1c81.2-0.6,162.5-1.1,243.7-1.6c8.7-0.1,17.3-0.1,26,0.1
		c3.2,0.1,6.3,1.1,9.1,1.6c2.6,13.2-2.8,406-6.1,422.7c-2.7,0.6-5.8,1.9-8.9,1.9c-90.6,0.1-181.2,0.1-271.8,0c-2,0-3.9-0.6-7.2-1
		c-0.7-4-2.3-8.4-2.2-12.7c0.2-17.3,1.3-34.6,1.4-51.9c0.1-110.6,0.1-221.2,0.1-331.8C10159.8,1823.2,10159.8,1815.2,10159.8,1804.9
		z"/>
	<path onclick="modals(this.id);" id="1809" class="st0" d="M10759.2,1426.8c0.5,23,1.1,44.9,1.4,66.8c0.6,47.3,0.8,94.5,1.7,141.8
		c0.3,18.8-1.8,36.9-7.8,54.9c-9,27.1-16.7,54.7-25,82.1c-1.1,3.8-2.5,7.5-4.1,12c-21.2,4.2-42.5,0.9-63.5,2.4
		c-21.2,1.5-42.6,0.7-63.9,1c-21.3,0.3-42.6,0.9-63.9,0.7c-21.1-0.2-42.3,2.4-64.6-0.5c-0.3-8-0.8-15.2-0.8-22.3
		c-0.1-65.3,0.6-130.5-0.2-195.8c-0.6-47.9-3-95.8-5-143.6c-0.4-8.4-2.1-16.8-4.6-25.3c-3.5-11.9-3.3-24.9-4.8-38.3
		c4.5-0.8,8.3-2.1,12-1.9c43.9,1.3,87.8,2.6,131.6,4.3c6.5,0.3,13.3,1.4,19.4,3.8c43.9,17.3,87.7,35,131.5,52.7
		C10751.7,1422.9,10754.5,1424.5,10759.2,1426.8z"/>
	<path onclick="modals(this.id);" id="1901" class="st0" d="M9735,4291.2c-15.1,0.6-27.6,1.4-40.2,1.4c-73.3,0.3-146.6,0.4-220,0.7c-36,0.1-72,0.6-108,0.8
		c-6.5,0-13.1-0.5-20.8-0.8c-2.9-13-3.1-25.6-3.9-38c-2.2-33.9-2.9-67.9-6.3-101.7c-3.3-33.3-3.1-66.5-3.1-99.8
		c0-9.9,0.7-19.8,1-30.5c4.2-0.8,7.4-1.9,10.5-1.9c56,0.2,112,0.3,168,0.9c30,0.3,59.9,1.5,89.9,2.3c5.3,0.1,10.6,0,16.5,0
		c4.5-6.1,9-11.7,13.2-17.7c29.4-42,58.7-84.2,88.2-126.2c2.9-4.1,4.6-9.6,11.9-11.2c0.3,3.5,0.7,6.5,0.7,9.6
		c0.3,17.3,0.6,34.7,0.7,52c0.3,63.3,0.5,126.6,0.9,190c0.3,49.3,1.1,98.6,1.5,147.9C9735.8,4275.6,9735.3,4282.2,9735,4291.2z"/>
	<path onclick="modals(this.id);" id="2840" class="st0" d="M8788,5012.7c-5.4-6-9.8-10.9-14.1-15.8c-50.6-59.2-101.4-118.3-151.9-177.6
		c-20.9-24.5-22.3-18.9-40.6-2.8c-25,22-50.4,43.5-75.6,65.2c-2.5,2.1-5.2,3.9-8.8,6.6c-4.4-4.6-8.6-8.6-12.3-13
		c-26.6-31.6-53-63.3-79.7-94.8c-6.8-8.1-14.2-15.7-22.7-25.1c4.1-12.1,8.4-26,13.5-39.6c4.9-13.1,10.9-25.8,15.7-38.9
		c2.4-6.5,6.4-9.8,12.9-10.8c7.9-1.2,15.7-3.1,23.7-3.7c20.8-1.6,40.5-7.6,60.2-13.9c11.7-3.7,23.2-5.1,35.4-3.4
		c60.6,8.7,121.2,17.3,181.8,25.8c15.1,2.1,30.4,3.3,45.5,5.7c12.4,2,24.7,5.1,37,7.8c8.5,1.9,16.6,3.6,19.5,14.2
		c1.1,3.8,6.2,6.7,9.8,9.6c20.7,15.9,38.9,34.2,56.8,53.1c23.4,24.6,47.6,48.5,71.3,72.7c3.6,3.7,6.9,7.9,10.9,12.5
		C8913.6,4902.4,8851.2,4957.2,8788,5012.7z"/>
	<path onclick="modals(this.id);" id="1844" class="st0" d="M8703.3,2455.3c0.5-3.4,0.6-6.1,1.3-8.5c35.9-124.8,68.7-250.4,100.4-376.3
		c0.5-1.8,1.8-3.5,3-5.8c3.2,0.2,6.5,0,9.6,0.6c37.6,8.1,217.5,58.1,231.5,64.3c-0.4,3.6-0.4,7.5-1.3,11.2
		c-3.5,14.2-6.8,28.5-11.2,42.5c-14.7,46.7-19.3,95.2-26.8,143.2c-0.7,4.6-0.6,9.3-0.5,14c0.3,58.6,0.8,117.3,0.6,175.9
		c0,7.6,4.4,15.6-1.4,24.4c-98.9-26.5-197.5-54.2-296.2-81.4C8709.4,2458.4,8706.5,2456.7,8703.3,2455.3z"/>
	<path onclick="modals(this.id);" id="1898" class="st0" d="M7147.6,3223.7c14.6-32,25.8-65.4,41.4-98.4c40.8,15.1,79.7,32.1,119,48.1
		c39.4,16,79,31.3,117.7,48.5c-0.2,3.3,0.2,5.4-0.5,7.1c-37.4,91.2-74.8,182.3-112.4,273.5c-0.7,1.7-2.3,3.1-3.7,4.8
		c-2-0.4-4.1-0.4-5.8-1.1c-116.1-46.9-232.1-93.9-348.2-140.9c-1.8-0.7-3.2-2.2-4.7-3.2c2.1-15.8,2.1-15.8-5.8-25.4
		c35-91.6,70.2-183.5,105.8-276.5c4.5,1.9,8.5,3.5,13.1,5.5c-2.8,7.9-5,14.8-7.6,21.5c-9.1,23.6-18.3,47.2-27.4,70.8
		c-1.9,5-3.8,10-5.4,15.1c-1.4,4.4,0.5,8,4.3,10.1c3.5,1.9,7.3,3.3,11,4.7c28.6,11,57.2,22,85.8,32.8
		C7131,3223.1,7137.7,3227,7147.6,3223.7z M7163.7,3287.4c-1.3,2.4-2.8,4-2.6,5.4c0.2,1.2,2.2,2.1,3.5,3.2c1.1-1.4,2.9-2.7,3-4.2
		C7167.6,3290.6,7165.5,3289.3,7163.7,3287.4z"/>
	<path onclick="modals(this.id);" id="1846" class="st0" d="M10157.1,2672.7c0.8-67.2-0.9-131.6,1.6-197.2c4.6-0.8,8.3-2,12-2.1c18-0.2,36-0.2,54-0.1
		c49.3,0.2,98.6,0.9,148,0.8c83.3-0.2,166.6-1.1,249.9-1.3c11.2,0,20.9-2.6,30.1-10.6c0-10.7,0.1-22,0-33.2
		c-0.2-9.4-0.2-18.7,7.4-27.2c1.7-0.1,4.4-0.9,6.8-0.3c38.4,10.8,76.8,21.9,116.7,33.3c-2.1,4.3-3.2,7.9-5.3,10.8
		c-16.2,21.1-32.7,42.1-49.1,63.2c-34,43.6-68,87.3-102,130.8c-5.7,7.3-11.8,14.4-17.4,21.2c-24.6,4.8-48.6,2.9-72.5,3.7
		c-34.6,1.1-69.3,0.7-103.9,1.8c-56.6,1.9-113.1,4.5-169.7,6.7c-6,0.2-12,0.2-18,0.2c-22-0.2-43.9-0.4-65.9-0.6
		C10173.1,2672.6,10166.5,2672.7,10157.1,2672.7z"/>
	<path onclick="modals(this.id);" id="1869" class="st0" d="M8429.9,2899.2c-3.3,11.8-12,20.5-19.4,29.5c-33.7,41.3-68,82-102.2,122.9c-1.7,2-3.8,3.6-6.4,6
		c-5.5-2.3-11-4.4-16.4-6.7c-107.8-46-215.3-92.6-323.5-137.6c-40.5-16.8-82.7-29.6-124.2-44.1c-70.4-24.6-140.8-49.1-211.2-73.6
		c-4.3-1.5-8.5-3.5-13.5-5.6c2-15.8,8.3-29.4,14.2-44.6c6.2,2,11.8,3.6,17.2,5.7c73.3,28.4,146.5,56.8,219.7,85.3
		c6.8,2.7,13.5,5.7,20.5,7.8c4.2,1.2,8.9,0.9,14.2,1.4c2.2-4.9,4.2-9,5.9-13.3c14.8-37.8,29.4-75.7,44.2-113.5
		c2.4-6,5.3-11.8,7.8-17.5C7976.7,2706.4,8410,2887.8,8429.9,2899.2z"/>
	<path onclick="modals(this.id);" id="1801" class="st0" d="M8475.4,1359.8c1.7-47,8.4-91.1,10.5-135.2c-7.1-5.7-13.3-10.6-20.3-16.2
		c4.4-16.1,10.8-31.2,16.6-46.6c8.7-1.7,15.1,2.5,21.5,5.4c11,5,21.8,5.5,32.9,1.2c11.5-4.4,23.2-5.1,35.4-3.9
		c13.9,1.4,27.9,2.4,41.8,3.2c7.2,0.4,14.5,0.1,23.1,0.1c13.5-46.4,23.5-93.8,37.8-141c17.6,6.3,33.7,2.9,50-0.6
		c56.6-12.2,113.3-23.8,170-35.5c2.5-0.5,5.1-0.6,7.5-0.8c4.8,6,3,11.8,1.1,17.5c-3.6,10.7-7.4,21.4-11.2,32
		c-6.5,18.2-12.4,36.6-19.6,54.5c-5.6,13.9-7.8,28-7.8,42.8c-0.1,26-0.3,51.9-0.9,77.9c-1.1,45.9-2.5,91.7-3.8,138.6
		c-3.8,0.9-7.5,2.3-11.2,2.6c-6,0.4-12,0.1-18,0.2c-85.9,0.5-171.8,0.9-257.7,1.6c-27.3,0.2-54.5,1.6-81.8,2.4
		C8486.7,1359.9,8482.1,1359.8,8475.4,1359.8z"/>
	<path onclick="modals(this.id);" id="1894" class="st0" d="M7626.3,3090c-24,56.5-46.9,111.7-71.5,167.4c-7.3-2.7-13.5-4.8-19.6-7.3
		c-110.4-44.9-220.8-89.8-331.3-134.6c-7.2-2.9-14.2-7.8-24.3-4.6c-15.2,31.3-26.1,65.5-41.5,97.4c-16.2-3.1-81.4-27.8-98.5-37.3
		c6.1-23.5,16.7-45.7,25.3-68.5c8.7-23,18.2-45.8,27.5-68.6c9.3-22.8,18.8-45.6,28.3-68.3c9.5-22.7,19.1-45.2,28.2-66.6
		c2.2-1,2.7-1.4,3.3-1.6c0.6-0.1,1.4-0.3,2-0.1c152.7,66.3,309.7,122.1,462.8,187.5C7619.6,3086,7621.8,3087.5,7626.3,3090z"/>
	<path onclick="modals(this.id);" id="1800" class="st0" d="M8873.8,1353c-0.4-4.8-1.1-8.6-1-12.4c1.2-49.3,2.6-98.5,3.8-147.7c0.5-19.3,0.8-38.6,0.7-57.9
		c-0.1-8.8,1.5-17.1,4.5-25.3c9.3-25.7,17.3-51.8,27.9-77c9.2-22,9.1-43.9,5.7-66.5c-1.7-11.2-3.1-22.4-4.6-33.6
		c-0.1-0.5,0.5-1.2,1.5-3.1c12.6-5.6,27.4-4.3,42.2-6.7c4.6,11.2,4.9,22.5,6.2,33.5c2.4,20.7,2.3,20.9,23.3,18.2
		c20.6-2.7,41.1-1.1,61.8,0.1c28.4,1.6,54.8,10.2,80.9,20.3c19.2,7.5,38.6,14.5,57.9,21.8c3,1.1,5.9,2.7,9.7,4.5
		c-0.9,4.3-1.2,8.2-2.4,11.8c-8.6,25.2-17.1,50.4-26.2,75.5c-4.1,11.5-6.6,22.9-6,35.1c0.3,6.5-0.4,13.1-0.7,19.8
		c-10.3,3.4-19.5,0.9-28.5,0c-28.5-2.8-56.9-6-85.4-8.8c-3.1-0.3-6.3,0.8-9.1,1.2c-4.2,16.2-5.5,40.3-2.8,53
		c60,8.2,121,12.5,181.1,20.7c4.7,20.5,4,96.4-1.1,118.9c-4.9,0.4-10,1-15.2,1.1c-15.3,0.4-30.6,0.6-45.9,0.9
		c-71.2,1.1-142.5,2.1-213.7,3.2c-16.6,0.2-33.3,0.7-49.9,0.8C8883.8,1354.2,8879.3,1353.4,8873.8,1353z"/>
	<path onclick="modals(this.id);" id="2756" class="st0" d="M9213.1,5829.5c16.1-5.6,31-11.1,46.1-15.8c10.1-3.1,17-8.8,22.8-17.8
		c20.5-32,41.5-63.6,62.8-95.1c7.1-10.4,15.2-20.2,23.6-29.6c12.8-14.4,26.2-28.2,39.6-42.5c72.5,24.9,140.6,59.2,212.8,78
		c1.7,2.6,2.9,3.6,3.1,4.8c2.3,10.4,7.4,21.2,5.9,31c-1.5,9.8-9.4,18.8-14.9,27.8c-11.9,19.3-24.5,38.1-36.2,57.5
		c-13.5,22.3-28.1,43.6-46.5,62.3c-5.5,5.6-10.3,12.3-14.3,19.1c-16.6,28.6-38,53-63,74.3c-13.8,11.7-25.8,24.9-36.6,39.4
		c-17.5,23.5-35.5,46.7-53.4,69.9c-3.5,4.6-7.6,8.8-12.2,14.1c-14.7-14.3-29.2-27.1-38.6-44c-14.5-26.2-28-53-41.7-79.6
		c-6.7-13-13.3-26-19.4-39.3c-5.6-12.1-11.2-24.2-15.4-36.8C9229.2,5882.1,9221.6,5856.6,9213.1,5829.5z"/>
	<path onclick="modals(this.id);" id="2812" class="st0" d="M6802.4,6189.2c98,93.4,195.4,186.2,292.7,279c0.8,0.8,0.9,2.3,1.8,4.9
		c-62.4,56.2-125.7,112.1-189.4,167.6c-2.4,2.1-5.4,3.6-9.1,6c-11.9-12.3-23.3-24.3-35-36.1c-29.6-29.8-56.6-62-84.1-93.6
		c-20.2-23.2-43.3-43.3-67.4-62.3c-29.8-23.6-59.3-47.5-88.9-71.3c-3.1-2.5-5.8-5.4-9.4-8.7c3.2-3.8,5.8-7.6,9-10.8
		c23.3-23.8,46.7-47.5,70.1-71.2c2.8-2.8,5.6-5.8,8.6-8.3c34.2-28.8,65.9-60.2,96.6-92.6C6798.9,6190.9,6800.3,6190.4,6802.4,6189.2
		z"/>
	<path onclick="modals(this.id);" id="1910" class="st0" d="M6942.3,3377.4c24.9,7,345.2,137.2,360.6,146.4c-0.6,2.4-0.9,5-1.9,7.4
		c-31.3,75.6-62.8,151.1-94.2,226.6c-0.7,1.7-2.3,3.1-3.5,4.6c-15.4-3.7-342.3-137.1-357.2-145.8c9-26.8,21-52.6,31.4-79
		c10.5-26.6,21.6-53,32.3-79.5C6920.5,3431.5,6931.2,3405,6942.3,3377.4z"/>
	<path onclick="modals(this.id);" id="1899" class="st0" d="M7625,3637.5c-2.2,0-3.6,0.3-4.7-0.1c-2.5-0.8-5-1.8-7.4-2.9c-94.2-43.4-192-78.3-286.4-119.3
		c-0.5-1.8-0.7-2.5-0.8-3.1c-0.1-0.6-0.3-1.4-0.1-1.9c37.6-91.7,75.2-183.4,112.8-275.1c0.7-1.8,2.2-3.2,3.1-4.4
		c1.1-0.6,1.6-1,2.2-1.2c0.6-0.1,1.4-0.1,2,0.2c79.6,32.1,159.2,64.1,238.7,96.3c17.8,7.2,35.5,14.9,54.4,22.8
		c-1.3,4.8-2,9.2-3.6,13.3c-23.7,60-47.6,119.9-71.4,179.9c-11.5,29.1-23,58.1-34.6,87.2C7628,3632.2,7626.3,3635,7625,3637.5z"/>
	<path onclick="modals(this.id);" id="1906" class="st0" d="M9033.3,4023.8c6.4-1,10.2-2.1,14.1-2.1c53.9-0.4,107.9-0.6,161.8-0.7c1.8,0,3.6,1.2,6.2,2.1
		c0,9.3,0.5,18.5-0.1,27.6c-3.6,61.2-5.1,122.3-0.1,183.5c0.9,11.3,0.8,22.6,1.5,33.9c3.5,61.8,7.1,123.6,10.7,185.3
		c0.2,2.7,0.2,5.3,0.2,8c0.3,30.6,0.7,61.3,0.8,91.9c0,5.9-0.6,11.7-1,18.2c-15.2,0.6-28.8-2.6-42.5-4.1
		c-29.1-3.1-58.2-6.3-87.2-10.2c-19.7-2.6-39.2-6.4-59.7-9.9c-0.6-6.2-1.5-11.3-1.5-16.4c-0.4-45.9-0.6-91.9-0.9-137.8
		c-0.5-73.9-1.1-147.8-1.6-221.7c-0.3-42.6-0.6-85.2-0.9-127.8C9033.3,4037.6,9033.3,4031.6,9033.3,4023.8z"/>
	<path onclick="modals(this.id);" id="1856" class="st0" d="M10156.7,2686.2c8.8-0.6,15.3-1.5,21.8-1.5c22,0,44,1,66,0.5c38.6-0.9,77.2-2.8,115.8-4
		c23.3-0.7,46.6-0.8,69.9-1.5c33.9-0.9,67.9-2,101.8-2.9c6.6-0.2,13.2,0,19.4,0c3.5,6.6-1.6,9.3-4.2,12.6
		c-58.8,75.9-117.6,151.6-176.5,227.4c-45.8,59-91.5,118-137.2,176.9c-4.1,5.2-8.4,10.2-13,16c-9.4-0.5-18.7-0.8-27.9-1.5
		c-11.9-1-23.8-2.4-36.5-3.7c-0.7-5.1-1.8-9.5-1.7-14c0.4-37.3,0.9-74.6,1.4-111.9c0.1-5.3,0-10.7,0-16c0.3-86,0.6-171.9,0.9-257.9
		C10156.7,2699.5,10156.7,2694.2,10156.7,2686.2z"/>
	<path onclick="modals(this.id);" id="2754" class="st0" d="M9980.9,5987c-1.1,4.1-2,8.5-3.6,12.7c-25.4,67.9-50.8,135.8-76.3,203.7
		c-2.1,5.6-5.1,10.4-8.8,15.3c-8.4,11.1-15.2,23.4-22.6,35.2c-6.3,10.1-12.5,20.3-19.2,31.3c-5.5-0.4-10.8-0.2-15.8-1.2
		c-56.8-10.8-113.6-21.8-170.4-32.8c-3.3-0.6-6.5-1.4-9.8-1.9c-8.3-1.4-15.6,0.1-21.9,6.5c-4.9,5-9.8,10.6-18.7,13.2
		c10-99.9,22-198,34.2-296.4c19.8-10.7,38.4-22.1,60.1-27.2c9.7-2.3,19.2-5.3,29-7.5c37-8.3,74.1-6.1,111.1-0.6
		c5.8,0.9,11.4,3.5,16.9,5.8c25.2,10.5,50.3,21,75.4,31.8c11.6,5,23,10.3,36,9.8C9977.7,5984.6,9978.9,5985.8,9980.9,5987z"/>
	<path onclick="modals(this.id);" id="2838" class="st0" d="M8318.3,4456.6c47.4,6.6,93.5,11.8,139,18.9c1.6,15.2-17.9,149.2-25.4,175.4
		c-8.4,1.9-17.3,3.9-26.5,5.9c-8.9,16.8-16.1,34-21.8,51.6c-14.7,45-33.9,88.2-52.9,131.4c-1.6,3.7-3.6,7.2-4.8,11
		c-15.6,50.3-39.8,97.3-56.8,147c-3.4,10-6.5,20.2-12.8,28.7c-23.6-5.1-139.8-53-155.7-64.3
		C8172.5,4794.4,8244.5,4626.3,8318.3,4456.6z"/>
	<path onclick="modals(this.id);" id="1799" class="st0" d="M9422.9,1351.1c-65.7,2.6-128.6-2.1-192.2-2c-3.5-10.1-1.9-19.4-1.8-28.5
		c0.2-22,1.1-43.9,1.2-65.9c0-11.9,0-23.8-3.1-36.4c-30.5-5.5-61-7.4-91.3-10.8c-29.7-3.3-59.4-6.7-90.1-10.2
		c-0.4-5.4-0.9-9.9-0.9-14.4c0-3.9,0.6-7.8,1-12.2c8.2-3.9,16.1-1.6,23.8-0.9c28.5,2.5,57,5.6,85.5,8.4c2.6,0.3,5.3,0.9,7.9,1
		c5.3,0.2,8.4-2.7,8.6-8.5c0.3-8.7-0.3-17.4,0.4-26c0.5-7.2,1.4-14.6,3.7-21.4c15.7-46.7,31.7-93.3,47.7-139.8
		c0.6-1.8,1.8-3.5,3.3-6.3c22.1,3.2,43.5,10.5,65.2,15.8c22,5.3,43.9,11.2,65.8,16.9c21.9,5.7,43.8,11.3,65.7,17.2
		c21.7,5.9,43.8,10.1,65.8,18.1c-0.6,8.9-5,15.8-7.3,23.2c-2.4,7.6-4.3,15.4-7,22.9c-6.8,19.5-14,38.8-20.9,58.2
		c-6.1,17-8.9,34.6-11.7,53.3c4.6,1.4,8.1,3,11.8,3.5c9.9,1.2,19.9,2,29.8,2.9c6.6,0.6,13.3,0,19.6,3.1c0.4,2.1,1.2,4.2,0.9,6
		c-1.5,9.8-3.2,19.5-5,29.7c-24.4,4.6-48.5,0.6-73.1,3.5c-0.9,5.2-2.2,9.6-2.3,13.9c-0.2,21.3-0.1,42.6-0.2,64
		C9423.7,1335.7,9423.3,1342.3,9422.9,1351.1z"/>
	<path onclick="modals(this.id);" id="1831" class="st0" d="M10160.4,2459.5c-2.9-18.4-2.9-198-0.1-216.5c3.3-0.5,7-1.5,10.8-1.6c88.7-0.1,177.3-0.1,266,0
		c3.8,0,7.7,1,12.9,1.7c1.4,37.6,2.8,74.7,4.2,112.7c5.1,0.6,8.9,1.4,12.7,1.4c50.6-0.4,101.3-0.4,151.9-1.8
		c15.8-0.4,32,0.6,47.4-5.3c2.8-1.1,6.6-0.4,9.8,0.4c46.4,11.9,92.8,24,139.2,36c0.5,0.1,1,0.8,2.5,2.1c-4.2,12.3-13.8,21.6-21,32
		c-6.6,2.8-12.3,0.1-17.9-1.6c-33.9-9.7-67.8-19.7-101.8-29.2c-8.1-2.3-16.2-6.5-25.9-3.1c-7.2,10.4-11.9,21.4-10.5,35
		c1,9.9,0.2,19.9,0.2,29.3c-6.5,8.5-14.8,9.6-23.7,9.6c-18,0.1-36,0.5-54,0.6c-99.3,0.3-198.6,0.8-297.9,0.8c-32,0-64-0.9-95.9-1.5
		C10166.5,2460.5,10163.9,2459.9,10160.4,2459.5z"/>
	<path onclick="modals(this.id);" id="1900" class="st0" d="M7583,3917.5c-17-4.9-32.8-11.1-47.9-18.5c0-2.2-0.4-3.6,0.1-4.7
		c73.8-176.3,145.1-353.6,215-531.4c0.7-1.8,2.1-3.3,3.9-6.1c2.7,0.5,6,0.5,8.9,1.6c69,28.2,138,56.5,207,84.8
		c2.9,1.2,5.6,2.8,9.2,4.7c-1.7,3.2-2.5,5.8-4.1,7.7C7847.6,3612,7718.2,3766.8,7583,3917.5z"/>
	<path onclick="modals(this.id);" id="1893" class="st0" d="M8111.3,3291.2c-39.9,48.8-79.9,96.7-120.4,145c-141-58-281.5-114.7-422.6-172.8
		c23.9-57.1,47.2-112,70.6-165.9c2.9-0.4,4.4-1.1,5.5-0.6c153.2,63,306.3,126.1,459.4,189.2
		C8106.1,3287.1,8108.1,3289,8111.3,3291.2z"/>
	<path onclick="modals(this.id);" id="2807" class="st0" d="M9499.4,7324.9c-7,11.5-12.7,21.3-18.7,30.8c-6.5,10.3-10.5,21.4-11.9,33.6
		c-0.5,4.6-2.1,9.1-2.4,13.8c-0.8,9.6-4.7,17.7-10.1,25.6c-30.5,44.5-60.8,89.1-91.2,133.6c-1.5,2.2-3.3,4.1-5.7,7
		c-11.3-4-21.3-9.7-31.7-18.4c9.1-6.4,17.4-11.8,25.1-17.9c5.1-4.1,10.3-8.6,14-13.9c11.8-16.9,22.9-34.3,34.3-51.6
		c1.1-1.7,2.2-3.3,3-5.1c2.5-5.4,1.4-10.4-3.7-13.9c-8.2-5.6-16.6-11.1-25.3-16.1c-41.6-23.9-83.3-47.5-124.8-71.4
		c-8.6-5-16.9-10.7-24.6-17c-32.9-27-65.9-54.1-98.3-81.8c-29-24.7-61.1-45-92-66.9c-17.3-12.3-34.9-24.3-53.4-37.1
		c10.7-23.7,24.1-45,35.9-67.1c11.6-21.7,25.2-42,39.3-63.4c4.6,2.7,8.1,4.4,11.2,6.6c44.5,31.6,89,63.3,133.4,95.1
		c5.9,4.2,11.7,8.3,15.7,14.9c2.6,4.2,8,6.7,12.5,9.6c22.4,14.4,45.1,28.4,67.3,43.1c9.8,6.5,22,10.1,27.7,22
		c11.2,2.2,20.5,8.4,30,14.4c34.2,21.9,68.5,43.7,102.8,65.4c9,5.7,18.4,10.8,27.4,16.3C9489.5,7317.6,9493.6,7320.9,9499.4,7324.9z
		"/>
	<path onclick="modals(this.id);" id="1909" class="st0" d="M7619.4,3653.7c-33.6,80.8-66.2,159.3-98.3,236.5c-2.5,1.1-3,1.4-3.6,1.5c-0.6,0.1-1.4,0.2-2,0
		c-96.8-39.5-193.5-79.1-290.3-118.7c-1.8-0.7-3.3-2.1-5.9-3.8c0.9-3.6,1.4-7.5,2.8-11c30.3-73.2,60.7-146.4,91.2-219.5
		c1.2-3,3-5.8,5-9.7c4.2,1.3,7.9,2.2,11.4,3.6c73.5,29.7,146.9,59.4,220.3,89.3C7572.7,3631.2,7594.9,3641.9,7619.4,3653.7z"/>
	<path onclick="modals(this.id);" id="2758" class="st0" d="M9246,5966.7c-1.8,2.4-3.1,4.7-4.9,6.6c-50.7,51.9-101,104.3-149.4,158.4
		c-1.3,1.4-3.2,2.2-5.4,3.6c-11.6-8.8-23.2-17.7-34.8-26.6c-4.2-3.2-8.4-6.6-12.7-9.7c-24.6-17.8-33.4-22-66.7-31.6
		c0.1-6.8,4.4-12.1,7.5-17.7c62.3-114.7,124.5-229.4,187-343.9c24.2-44.4,49.1-88.5,73.6-132.7c2.2-4,4.6-7.9,7-12.1
		c13,0.3,24.4,4,35.1,8.9c35.1,16.1,70,32.7,104.9,49.1c1.1,0.5,2,1.8,4,3.7c-2,2.8-3.9,6-6.3,8.6c-6.3,6.9-12.6,13.7-19.2,20.3
		c-16.1,16.1-29.4,34.3-41.7,53.4c-17.3,26.9-35.5,53.2-52.8,80.1c-5.7,8.9-12.7,14.8-22.9,17.7c-16.5,4.8-32.8,10.3-50.1,15.8
		c-3,5-1.2,10.7,1,16.3c15.3,39.7,24.7,81.6,42.9,120.3C9243.9,5958.8,9244.7,5962.7,9246,5966.7z"/>
	<path onclick="modals(this.id);" id="2764" class="st0" d="M9093.7,6460.3c38.5,35.7,74.8,69.9,111.8,103.5c25.6,23.3,52.1,45.6,78.3,68.3
		c6.5,5.6,13.1,11.1,18.3,15.5c0.8,2.6,1.2,3.2,1.1,3.8c0,0.6-0.3,1.3-0.7,1.9c-32,44.3-63.8,88.7-96.1,132.7
		c-25.6,34.9-51.8,69.3-77.2,103.2c-1.8,0.4-2.4,0.7-3,0.6c-0.6-0.1-1.4-0.3-1.8-0.7c-65.5-64.6-134-125.8-201.7-188
		c-0.8-0.8-1-2.3-1.8-4.3C8979.7,6620.1,9033.7,6539.4,9093.7,6460.3z"/>
	<path onclick="modals(this.id);" id="2755" class="st0" d="M9413.7,6414.1c4.9-7.4,8.5-12.9,12.2-18.4c27.1-38.8,54.2-77.5,81.2-116.3
		c2.7-3.8,5.6-7.5,7.9-11.5c3.6-6.3,2.7-11.1-2.4-16c-0.5-0.5-1-0.9-1.5-1.3c-37.5-28-67.9-63.8-103.4-94
		c-14.2-12-28.1-24.3-42.9-37.1c2.8-4.3,5.1-8.2,7.8-11.7c21.4-28.1,42.7-56.2,64.4-84.1c6.1-7.8,13.3-14.9,20.3-21.9
		c13.1-13.2,26.6-26.1,39.8-39.2c11.9-11.8,21-25.7,29.9-39.8c6.4-10,13.5-19.9,21.6-28.5c12.8-13.7,24-28.4,33.7-44.4
		c16.4-26.7,33.3-53,50-79.5c3.2-5,6.6-9.8,10.4-15.4c5.4,1.9,10.2,3.5,14.2,4.9c0.9,2.5,1.9,3.8,1.8,4.9
		c-5.4,46.9-11,93.9-16.5,140.8c-4.4,37.7-8.6,75.4-13,113.1c-3.1,26.5-6.3,52.9-9.5,79.3c-3.6,30.4-7,60.8-10.7,91.2
		c-3.8,30.4-8,60.7-11.8,91.1c-0.6,4.9-2.3,8.8-6,12.1c-13,11.5-24.5,25.3-39.2,33.9c-15.3,8.9-24.1,22.2-33.6,35.4
		c-17.5,24.4-34.6,49-51.9,73.4c-3.4,4.9-7.2,9.5-11.4,15.2C9439.2,6440.9,9428.1,6426.9,9413.7,6414.1z"/>
	<path onclick="modals(this.id);" id="2759" class="st0" d="M9018.8,5944.1c-47.5-22.8-91.5-49.8-136.2-78.2c2.3-4.9,3.8-9.2,6-13
		c25.9-43.5,51.8-87,77.8-130.3c12.9-21.5,13.1-21.4-9.6-34.1c-10.4-5.8-20.7-11.7-31.9-17.9c11.3-24.6,25.4-46.4,37.7-69
		c12.4-22.8,25.3-45.3,38.2-67.9c12.8-22.4,24.7-45.3,39-68.1c65.4,28.7,128,59.3,192.1,88.3c-0.9,8.3-5.6,14.1-9,20.3
		c-42.8,77.5-85.8,154.9-128.6,232.5c-21.9,39.6-43.3,79.5-65,119.2C9026.2,5931.6,9022.8,5937.2,9018.8,5944.1z"/>
	<path onclick="modals(this.id);" id="1843" class="st0" d="M8743.8,2250.7c-20.4-2.3-289.6-70.3-373.8-94.4c-3.7-1.1-7.3-2.8-12.2-4.7
		c17.9-64.7,35.6-128.5,53.1-191.9c5.7-4.5,10.6-1.2,15.5,0.1c103.4,27.8,206.7,55.7,310.1,83.6c12.8,3.5,25.8,6.7,38.6,10.2
		c5.7,1.6,11.2,3.7,18,6c-15.1,60-30,119.2-45,178.4C8747.1,2242.4,8745.3,2246.6,8743.8,2250.7z"/>
	<path onclick="modals(this.id);" id="2806" class="st0" d="M9166.3,7501c-6.9-1.9-13.3-3.4-19.5-5.4c-67.2-21.5-134.4-43.1-201.5-64.6
		c-47.5-15.2-95.2-30.1-142.7-45.5c-10.4-3.4-20.5-5.4-31.9-2c-3.3-11-2.1-21.3-1.2-31.8c2.5-1.8,4.5-3.6,6.8-4.8
		c31.6-17.6,59.2-40.5,87.1-63.2c30.2-24.5,55.6-53.5,81.4-82.2c8.9-9.9,17.6-19.9,26.9-30.5c4.2,2.1,7.8,3.5,10.9,5.7
		c35.1,24.2,70.3,48.2,105.1,72.9c13,9.2,25,19.9,37.3,30.1c29.2,24.2,58.4,48.6,87.5,73c3,2.5,5.7,5.3,9,8.3
		c-2.8,10.2-8.4,18.6-13.2,27.1c-10.5,18.7-19.1,38-24.3,58.9c-3.2,12.9-7.6,25.5-11.7,38.2C9170.8,7490,9168.7,7494.8,9166.3,7501z
		"/>
	<path onclick="modals(this.id);" id="1847" class="st0" d="M8307.2,2351.7c4.4-25.3,42.5-170.6,48-183.5c1.7,0,3.7-0.4,5.5,0.1
		c123.8,31.8,247.6,63.7,371.4,95.6c2.5,0.6,4.8,2,8.4,3.6c-16.6,59.3-33.1,118.2-49.7,177c-0.7,2.4-2.4,4.6-4.3,7.9
		c-124-32.4-247.6-64.6-371.1-96.9C8312.9,2354.8,8310.6,2353.3,8307.2,2351.7z"/>
	<path onclick="modals(this.id);" id="1925" class="st0" d="M10317.1,3134.4c-26.6-6.1-51.6-12.3-76.3-20.8c0.1-7.6,5.1-11.5,8.5-15.9
		c44.4-57.5,88.9-114.9,133.5-172.2c32.7-42.1,65.5-84.1,98.3-126.1c4.5-5.8,9.2-11.4,14.5-17.9c3.6,2,7.2,3.5,10.2,5.7
		c24.3,17.5,48.7,35.1,72.8,52.9c8.1,6,16.7,10.5,26.6,13.2c27.6,7.6,55.1,15.7,82.6,23.7c4.3,1.3,8.4,3.3,13.8,5.4
		c-6,64.7-12,128.9-18.1,194.1c-5.1-0.7-9-0.7-12.6-1.7c-14.1-4.1-28-8.7-42.1-12.7c-26.9-7.6-53.9-14.7-80.9-22.2
		c-34-9.5-67.9-19.2-101.9-28.8c-5.1-1.4-10.3-2.9-15.4-4.1c-5.7-1.4-10.4,0.3-14.1,5c-7.5,9.4-15.1,18.6-22.6,28
		c-23,28.5-46,57.1-69,85.6C10322.7,3128.1,10320.5,3130.5,10317.1,3134.4z"/>
	<path onclick="modals(this.id);" id="2805" class="st0" d="M9208.4,7707.9c-5.6-7.4-13.5-7.8-20.2-10c-41.7-13.8-83.6-27.1-125.3-40.6
		c-5.6-1.8-11.1-3.9-17.9-6.4c15.5-50.6,30.7-100.2,46-149.7c0.7-2.4,2.6-4.5,4.1-7c26.9,6.4,51.9,17.5,79.4,23
		c2.5-5.1,4.9-8.9,6.3-13.2c5.5-17.1,11.2-34.2,15.9-51.5c4.9-18.1,11.8-35.3,21.2-51.5c5.7-9.7,10.8-19.8,16.6-30.5
		c18.9,6.9,34.4,18.3,51.2,27.4c17.6,9.5,34.9,19.5,52.1,29.7c16.5,9.8,34.4,17.5,50,30.5c-3.2,9.8-10.2,17.1-14.9,25.6
		c-12.5,22.6-29.5,40.8-52.1,53.7c-4,2.3-7.7,5.3-11.1,8.4c-4.3,4-3.8,10.4,1.1,13.8c4.4,3,9.2,5.4,13.8,8.1c8,4.6,16,9.3,25,14.5
		c-1.7,3.7-2.7,6.7-4.4,9.3c-61.4,92.8-122.8,185.5-184.2,278.2c-2.5,3.8-5.4,7.5-8.2,11.3c-12.5,0.7-23.7-3.3-34.4-6.1
		c-3.3-6.4,0.8-9.9,3-13.6c24.3-41.4,48.7-82.6,73-123.9c3.7-6.3,7.6-12.5,11-19C9206.9,7715,9207.5,7711.1,9208.4,7707.9z"/>
	<path onclick="modals(this.id);" id="1852" class="st0" d="M8286.5,2362.7c-1.6,15.6-15.4,65.5-22.7,82.2c-4.1-0.6-8.7-0.8-13-2
		c-56-14.6-112.1-29.4-168.1-44.1c-7.8-2.1-15.5-3.9-24.4-1.8c-9.5,13-19.3,26.4-28.6,39c-10.7,0-19.9-0.4-29.1,0.1
		c-17.3,0.9-34.6,2.1-51.4,6.8c-9.1,2.6-18,2.4-27.3-1.1c-69.2-26.1-138.5-51.7-207.7-77.6c-1.8-0.7-3.4-2-6-3.6
		c0.5-4.3,0.5-8.9,1.7-13.2c4.6-17.4,9.7-34.6,14.5-51.9c5.5-19.9,10.7-39.9,16.1-59.8c1.2-4.5,2.5-8.9,3.6-12.8
		c5.9-4.1,10.9-1.3,15.9,0c67.5,18,135,36.1,202.6,53.9c101.1,26.7,202.2,53.1,303.3,79.7
		C8272.9,2358.6,8279.8,2360.8,8286.5,2362.7z"/>
	<path onclick="modals(this.id);" id="1788" class="st0" d="M8908.9,912.9c-1.4-2.6-2.5-3.7-2.6-4.9c-9.5-67.1-16.6-134.5-28.8-201.3
		c-0.1-0.4,0.7-1,1.9-2.6c4.4,0.8,9.5,1.4,14.4,2.7c56.7,14.4,113.4,28.8,170.1,43.2c50.9,13,101.7,25.8,152.5,39
		c14,3.6,27.8,8.4,42.9,13c-18.1,67-38.7,132.1-56.9,198c-0.5,1.8-2.2,3.2-3.3,4.9c-7.9,0.7-14.3-3.4-21-5.8
		c-25.6-9.3-51-19.2-76.7-28.3c-8.7-3-18-4.3-27.1-5.8c-8.5-1.4-17.1-2.3-25.8-3.1c-19.2-1.7-38.5-3.2-57.8-1.1
		c-4.6,0.5-9.2,0.1-14.8,0.1c-6.3-16-3.9-33.8-9.4-50.9C8947.3,906.1,8928.7,916,8908.9,912.9z M9067.5,760.8
		c-1.9-1.9-3-3.4-4.4-4.1c-0.5-0.3-2.9,1.3-2.8,2c0.1,1.7,1,3.3,1.7,4.9C9063.5,762.9,9065,762.1,9067.5,760.8z"/>
	<path onclick="modals(this.id);" id="2757" class="st0" d="M9499.8,6261.3c-9,17.1-86.9,128.4-97.5,139.5c-1.3-0.3-2.9-0.2-3.8-0.9
		c-98.8-84.3-197.5-168.6-297.2-253.7c1.4-2.2,2.6-5.2,4.7-7.4c46.4-52.4,94.6-103.1,144.1-152.5c1.4-1.4,3.3-2.1,5.5-3.6
		c8.6,16.8,17,33.3,25.5,49.9c0.9,1.8,1.9,3.5,2.7,5.3c18.8,40.7,47.4,73.6,81.6,102c31.8,26.4,62.3,54.2,91.6,83.4
		c8.9,8.9,18.8,16.9,28.2,25.3C9490,6252.9,9495,6257.1,9499.8,6261.3z"/>
	<path onclick="modals(this.id);" id="1813" class="st0" d="M10468.7,1801.8c85.2-1,167.6-2,251.3-2.9c-0.4,4.7-0.3,8.6-1.2,12.1
		c-8.5,33.5-17.4,67-25.9,100.6c-4.7,18.7-8.8,37.6-12.9,56.4c-2.3,10.5-4.6,20.7-11.8,29.2c-5,5.9-6,12.7-4.9,20.5
		c2.6,17.8,2.8,35.8,2.3,53.8c-0.7,25.3-0.2,50.6-0.3,75.9c0,5.2-0.7,10.3-1,15.1c-32.1,7.4-72.3,8.2-89.7,2
		c-4.2-26.7,1.1-54.2-4.8-82c-17.7-2.8-34.9-0.8-52.1-1.6c-16.5-0.8-33.1-0.5-50.8-0.7c-0.6-5.5-1.5-9.9-1.5-14.3
		c0.7-44.6,1.7-89.2,2.3-133.8c0.5-35.3,0.7-70.6,1-105.9C10468.7,1818.9,10468.7,1811.7,10468.7,1801.8z"/>
	<path onclick="modals(this.id);" id="1866" class="st0" d="M8094.7,2740.6c19.1-44.4,36.6-86.6,55.1-128.2c9.9-0.7,16.8,3.8,24,6.8
		c59.8,24.2,119.5,48.7,179.3,73c6.7,2.7,13,7.1,22.3,5c1.4-2.4,3.9-5.5,5.3-9c3.7-9.9,7-20,10.8-30.9c3.8,0.8,7.1,0.9,9.9,2.1
		c53.5,22.1,107,44.2,160.4,66.4c2.4,1,4.5,2.7,6.7,4c-6.6,12-69.5,89.8-124.2,153.7c-6.4,4-11.6-0.4-16.9-2.6
		c-46.6-19.5-93.2-39.4-139.8-58.9c-58.3-24.4-116.7-48.7-175-73.1C8107.2,2746.7,8102,2744,8094.7,2740.6z"/>
	<path onclick="modals(this.id);" id="1880" class="st0" d="M8290.7,3069.9c-7.9,13.2-72.9,91.9-89.9,108.9c-8.4-0.5-15.6-5.7-23.5-8.8
		c-8-3.2-15.7-6.9-24.5-10.7c1.2-4.4,1.8-8.1,3.2-11.6c3.2-8,7.1-15.8,10.2-23.9c1.3-3.5,1.4-7.5,2.3-12.3
		c-48.3-22.3-97.4-40.9-145.8-61.2c-48.5-20.3-97.2-40-146.3-58.9c-48.5-18.6-97.2-36.5-146.2-53.5c-49.6-17.3-99.7-33.1-149.2-49.5
		c0.8-14.1,14.3-56.4,26-82.2c6.2-2.9,11.5,1.4,16.8,3.2c78,27,155.5,55.4,233.8,81.3c88.6,29.3,173.7,67.2,259.7,103.1
		c52.2,21.8,103.9,44.7,155.8,67.2C8279,3063.8,8284.8,3066.9,8290.7,3069.9z"/>
	<path onclick="modals(this.id);" id="2762" class="st0" d="M8769.8,6410.2c26.6-4,50.8-7.9,75.5-10c7.3,15.9,13.5,30.6,20.6,44.8
		c15.9,31.9,35.7,60.8,64.5,82.7c15.4,11.7,30.5,23.8,45.6,35.8c4.6,3.6,8.9,7.6,14.3,12.3c-15.4,22.1-29.8,43.5-45,64.5
		c-10.5,14.6-22.1,28.4-33,42.7c-5.7,7.4-10.8,15.2-16.3,22.7c-25.2,34.8-42.5,73.7-59.8,112.7c-5.9,13.2-10.7,27.1-18.9,39.1
		c-14-5.1-54-29.5-77.9-47.2c0.9-18.4,1.6-37.7,2.8-56.9c1.8-29.9,3.9-59.8,5.8-89.7c3.2-51.2,5.7-102.4,9.7-153.5
		C8760.2,6477.1,8764,6444.1,8769.8,6410.2z"/>
	<path onclick="modals(this.id);" id="1842" class="st0" d="M8092,1869.9c101.9,27.3,202.7,54.3,304.4,81.5c-0.4,5-0.1,8.9-1.1,12.5
		c-15.7,57.2-31.4,114.3-47.3,171.4c-1.2,4.4-3.4,8.5-5.1,12.5c-31.5-5.7-290.3-76.8-304.5-83.6
		C8039.8,2050.3,8082.9,1893.1,8092,1869.9z"/>
	<path onclick="modals(this.id);" id="1848" class="st0" d="M8032.6,2080.8c4.1,0.3,6.8,0.1,9.2,0.8c98.7,26.9,197.5,53.8,297.1,81
		c-2.3,22.1-9.3,42.1-14.3,62.6c-5,20.7-10.2,41.3-16,61.8c-5.8,20.3-8.8,41.5-17.7,61.9c-101.7-26.3-202.6-52.6-304.5-79.8
		c2.9-22.1,9.7-42.2,14.6-62.6c5.1-21.3,10.4-42.6,15.7-64C8021.7,2122,8026.2,2101.4,8032.6,2080.8z"/>
	<path onclick="modals(this.id);" id="1882" class="st0" d="M8151.4,3120c-5.5,14.7-10.5,27.6-15.1,40.7c-0.6,1.6,0.4,3.8,0.9,7.3
		c16.8,7.5,34.2,15.3,51.6,23.1c-6.4,13.4-48.8,67.4-66.5,85.3c-0.6,0.1-1.3,0.2-1.9,0.3c-0.7,0-1.4,0.1-2-0.1
		c-195.7-80.9-391.4-161.9-587-242.9c-1.8-0.7-3.4-2-5.8-3.5c2.7-11.7,8.7-21.9,14-31.7c7.4-3,12.5,1.3,17.8,3.5
		c81.4,33.2,162.7,66.6,244,100c16.6,6.8,33.4,13.4,49.9,20.5c24.8,10.7,23.4,7.8,32.4-14.7c9.8-24.8,19.5-49.6,29.3-74.4
		c1.2-3,2.9-5.9,4.9-9.9c3.4,0.9,6.6,1.2,9.5,2.4c71.4,29.6,142.7,59.2,214,88.9C8144.3,3116,8147.1,3117.7,8151.4,3120z"/>
	<path onclick="modals(this.id);" id="1926" class="st0" d="M10864,3281.3c-28.2-5.9-147.3-39.4-159.3-44.9c3.8-23.9,12.1-47.1,18.1-70.7
		c5.8-23.1,13.3-45.8,18-68c-6.6-8.7-15.3-7.8-22.7-10.2c-6.8-2.2-13.7-4.2-20.1-6.1c-1.2-17.8,12.7-170.4,17.6-194.6
		c15.9,0.8,30.5,7.4,45.7,11.2c14.8,3.7,29.5,8.2,44.1,12.5c15.2,4.5,30.4,9.1,46.2,13.8c4.6,26.3,9.2,51.8,13.6,77.2
		c9,51.8,17.9,103.5,26.9,155.3c1.5,8.6,2.3,17-0.1,25.7c-8.3,30.8-16.3,61.7-24.5,92.6C10866.9,3276.9,10865.6,3278.5,10864,3281.3
		z"/>
	<path onclick="modals(this.id);" id="1922" class="st0" d="M10506.1,2767.7c22.5-31.3,46.5-60.4,69.7-90.6c20.9-3,41.4-0.9,61.8,1c11.3,1,22.5,2,33.7,3.5
		c7.9,1,15.9,2,23.5,4.1c61.5,17.2,122.9,34.6,184.3,52c2.5,0.7,4.8,2.1,8.3,3.6c-0.6,3.8-0.9,7.6-1.9,11.2
		c-9.8,37.3-19.9,74.5-29.5,111.8c-3.6,14-6.1,28.3-9.3,43.2c-4.6-1.1-9.8-2-14.8-3.4c-72.2-20.8-144.3-41.8-216.6-62.3
		c-10.4-3-19.7-7.4-28.4-13.9c-22.9-17.1-46.2-33.7-69.3-50.6C10514.1,2774.5,10510.7,2771.5,10506.1,2767.7z"/>
	<path onclick="modals(this.id);" id="2753" class="st0" d="M10044.2,5831.7c-2.8,9.1-5,16.7-7.5,24.2c-0.8,2.5-2.1,6.2-3.8,6.6c-8.3,2-8.2,8.7-10.3,14.9
		c-10.3,30.8-22.3,61-34,91.8c-17.3-0.4-32.7-3.5-47.5-9.7c-19-7.9-38.4-15.2-56.9-24.2c-18.4-8.9-37.8-12-57.7-14
		c-47-4.9-92.9,0.3-137.7,15.2c-6.9,2.3-13.4,5.8-20.1,8.7c-5.3,2.3-10.6,4.6-15.9,6.9c-1-2.4-2-3.6-1.9-4.8
		c6.6-57.5,13.4-114.9,20.2-172.4c0.4-3.2,1.5-6.2,2.3-9.7c6.7,0,12.6-0.6,18.3,0.1c32.3,4.2,64.6,8.8,96.9,13.1
		c52.2,6.9,103.3,19.3,154.4,31.1c31.1,7.2,62.1,14.4,93.7,19.3C10038.6,5829.4,10040.4,5830.4,10044.2,5831.7z"/>
	<path onclick="modals(this.id);" id="1923" class="st0" d="M10957.9,3310.7c-26.4-5.8-51-15.6-77.5-23.4c0.8-5.9,0.9-11.1,2.1-16c7-27.1,14.1-54.1,21.5-81
		c3.1-11.1,3.4-21.9,1.3-33.4c-13.6-76.6-26.2-153.5-40.3-230c-3.5-19-2.6-36.5,2.7-54.8c10.4-35.8,19.4-71.9,29.1-107.9
		c1.5-5.7,3.5-11.3,5.1-16.8c13.4-0.7,61.4,11.3,83.9,20.8c-0.9,4.8-1.6,9.9-3,14.9c-9.5,33.3-19.1,66.5-29,99.7
		c-2.7,9.1-3.3,17.8-1.6,27.3c13.6,75.3,26.7,150.7,39.7,226.1c2,11.8,3.2,23.8,4.2,35.7c0.4,4.5,0,9.4-1.2,13.8
		c-10.4,37.9-21,75.6-31.7,113.4C10962.2,3302.6,10960.1,3306,10957.9,3310.7z"/>
	<path onclick="modals(this.id);" id="1924" class="st0" d="M10989.2,3042.2c-2.6-13.7-4.9-25.4-6.9-37.1c-5.5-31.5-10.8-63-16.3-94.5
		c-1.4-8-1.3-15.6,1.1-23.6c10.2-33.8,19.7-67.8,29.6-101.6c1.3-4.3,3.2-8.4,4.8-12.7c2.9,0,5-0.4,6.8,0.1
		c62.1,17.7,124.2,35.4,187.4,53.5c0.3,5.5,1.4,10.7,0.8,15.8c-2.7,21.8-5.1,43.7-9,65.2c-6.9,38-14.7,75.8-22.2,113.7
		c-0.6,3.2-1.7,6.3-2.9,10.8c-11.6-2.6-22.5-4.6-33.2-7.7c-10.6-3-20.7-3-31.5-0.9c-29.4,5.9-58.9,11.2-88.4,16.5
		C11003.4,3040.9,10997.5,3041.2,10989.2,3042.2z"/>
	<path onclick="modals(this.id);" id="1920" class="st0" d="M10628.2,2664c12.6-19.1,26.1-33.7,38.1-51c2.2,3.4,3.4,5.7,5,7.5c3.1,3.4,7.1,4.2,10.6,1.1
		c3.9-3.5,7.3-7.7,10.6-11.8c22.9-28.5,45.7-57.2,68.6-85.7c2.9-3.6,6-7.1,9.6-11.3c4.3,0.8,8.9,1.1,13.2,2.4
		c38.9,11.6,77.7,23.3,116.5,35c6.9,2.1,13.7,5.3,22.1,2.1c6-13.3-2.7-28.5,3.9-42.6c11.4,0.8,22.1,3.8,33.6,8.2
		c0.5,4.2,1.2,8.7,1.4,13.2c1.3,31.9,2.4,63.8,3.8,95.6c0.8,18.1-0.1,35.8-4.8,53.4c-4.5,16.7-7.7,33.7-11.6,50.5
		c-0.7,3.1-2.2,6-3.8,10.2c-18-4.7-35.3-8.8-52.5-13.6c-60.8-17-121.6-34.1-182.3-51.5c-12.9-3.7-25.8-6-39.2-7
		C10657.7,2667.7,10644.6,2665.8,10628.2,2664z"/>
	<path onclick="modals(this.id);" id="1927" class="st0" d="M10427.9,3021.2c41.4,9.5,263.6,71.9,295.8,83c-0.4,3.5-0.5,7.3-1.5,10.9
		c-10,37.3-20.1,74.6-30.2,111.8c-0.5,1.8-1.8,3.4-2.8,5.3c-2.1,0.2-4.2,1-5.9,0.5c-115.7-30.7-231.4-61.5-347.4-92.4
		c0.9-3.1,0.9-5.4,2-6.8C10367.8,3096,10397.8,3058.7,10427.9,3021.2z"/>
	<path onclick="modals(this.id);" id="1905" class="st0" d="M9229.6,4023.5c2.4-1.2,3.5-2.2,4.6-2.3c5.3-0.3,10.6-0.6,16-0.5c22.5,0.3,45.1,0.7,68.7,1.1
		c0.7,4.7,1.7,8.4,1.7,12.2c-0.1,19.3-1,38.6-0.6,57.9c0.4,20,1.9,39.9,3.1,59.8c1.5,23.9,3,47.8,4.8,71.7
		c4,55.8,6.2,111.7,5.6,167.6c-0.1,10.9-2,20.9-6.7,30.7c-22.8,47.4-45.3,95-67.9,142.5c-0.9,1.8-1.6,3.7-2.6,5.4
		c-2,3.6-4.2,6.9-9.2,5.9c-4.9-0.9-6.3-4.3-6.4-8.6c-0.1-3.3-0.1-6.7-0.1-10c-0.3-27.3-0.1-54.6-1-81.9
		c-1.3-37.2-3.5-74.5-5.3-111.7c-2.1-43.2-4.4-86.4-6.5-129.6c-1.1-23.3-3-46.5-3.1-69.8c-0.1-31.3,1-62.6,1.9-93.8
		c0.3-12.6,1.3-25.3,2-37.9C9228.9,4029.1,9229.4,4025.9,9229.6,4023.5z M9234.4,4287.3c0.4-1,0.6-1.6,0.8-2.2
		c-0.4,0.1-0.9,0.2-1.3,0.3C9234,4285.9,9234.2,4286.4,9234.4,4287.3z"/>
	<path onclick="modals(this.id);" id="1841" class="st0" d="M7855.6,1810.2c28.4,4.1,203.3,50,220.8,57.9c-17.3,63.8-34.9,127.7-53.4,192
		c-4.3-0.3-7.6,0.1-10.6-0.7c-65-16.9-129.9-34-194.8-51.1c-4.4-1.2-8.7-2.9-13.9-4.7c3.2-22.4,10.7-42.9,16.2-63.9
		c5.7-21.9,11.9-43.6,17.9-65.4C7843.6,1853.4,7849.5,1832.3,7855.6,1810.2z"/>
	<path onclick="modals(this.id);" id="1812" class="st0" d="M10691.3,1982.6c3.6-26.1,36.8-157.4,45.5-179.6c13.6,1.1,26.3,6.9,39.5,10.6
		c13.5,3.8,26.8,8,40.1,12.2c13.3,4.1,26.5,8.4,39.3,12.4c4.3,6.6,1.3,12.4-0.1,18c-5.1,20-10.6,39.8-15.9,59.8
		c-1.2,4.5-2,9-3.1,13.7c7.1,9.1,16.6,13,27.1,15.8c43.7,11.6,87.4,23.5,131,35.4c26.9,7.3,53.8,14.7,81.4,22.3
		c0.8,14.7-4.4,27.7-7.6,40.9c-3.3,13.4-5.2,27.3-10.8,39.4c-1.5,0.7-2.1,1.1-2.8,1.3c-0.6,0.2-1.3,0.3-1.9,0.2
		c-116.7-32.1-233.4-64.2-350.1-96.3c-2.6-0.7-5.1-1.6-7.5-2.6C10694.2,1985.4,10693.4,1984.3,10691.3,1982.6z"/>
	<path onclick="modals(this.id);" id="1849" class="st0" d="M7748.3,2205.1c17-63.9,32.4-125.1,50.1-185.5c16.6,1.8,193.4,47.6,218.5,56.6
		c0,2.6,0.6,5.9-0.1,8.9c-14.1,56.9-28.3,113.7-42.5,170.6c-0.6,2.5-1.7,4.9-3,8.6c-25.1-4.6-49-12.5-73.2-18.8
		c-25.1-6.5-50.2-13.3-75.3-20.1C7798.5,2218.9,7774,2213,7748.3,2205.1z"/>
	<path onclick="modals(this.id);" id="1921" class="st0" d="M11197.4,2812.6c-79.4-22.8-157.3-45.2-236.2-67.9c0.4-5,0.2-9.6,1.2-13.9
		c4.1-18.9,8.9-37.6,12.7-56.5c1.8-9,2.6-18.4,2.5-27.7c-0.1-22-1.1-43.9-1.6-65.9c0-1.9,0.8-3.8,1.5-6.6c2.5,0,5.1-0.6,7.4,0.1
		c78.8,22.3,157.5,44.7,236.2,67.1c2.5,0.7,4.8,2,8.5,3.6c-0.4,5.9-0.2,11.8-1.2,17.5c-9.1,47.7-18.5,95.4-27.9,143
		C11200.2,2807.3,11199,2809.1,11197.4,2812.6z"/>
	<path onclick="modals(this.id);" id="1918" class="st0" d="M10757.2,2501.1c1.6-3.5,2.6-7.4,4.9-10.4c24.2-32.7,48.5-65.2,72.8-97.8
		c2.4-3.2,5.1-6.1,7.8-9.1c8.8-9.7,20-16.9,26.7-29c6.1-10.9,15.3-20.1,22.8-30.3c7.9-10.7,14.9-22,23-32.6
		c14.1-18.6,28.6-36.8,43.1-55.1c18.2-23,36.7-45.7,54.7-68.9c5.3-6.8,9.7-14.2,14.1-21.6c5.3-8.8,10-14,22.8-23.3
		c-0.8,7.6-1.2,14-2.3,20.4c-7.3,42-14.6,84-22.2,125.9c-1.9,10.4-4.3,20.9-7.8,30.9c-16.2,46.5-32.6,93-49.6,139.3
		c-4.7,12.8-7.5,25.4-6.8,38.9c0.4,7.2-0.2,14.5-0.3,22c-17.4,2.5-31.7-9.8-48.1-5.8c-7,13.4,2.9,27.9-3.2,42.4
		c-4.4-0.8-8.9-1.1-13.1-2.4c-38.3-11.4-76.6-22.6-114.8-34.6c-8.9-2.8-16.7-2.4-25,0.8
		C10756.8,2500.8,10757.2,2501.1,10757.2,2501.1z"/>
	<path onclick="modals(this.id);" id="1867" class="st0" d="M8142,2595.1c-21.5,45.5-39.2,92.7-60.7,139.4c-21.7-6.3-40.6-16-60.1-23.9
		c-19.7-8-39.2-16.4-59.7-25.1c0-3.8-0.4-7,0.1-10.1c2.7-17.1,5.1-34.3,8.6-51.2c2.5-12.3,6.1-24.5,10-36.5
		c8-24.7,16.5-49.2,24.8-73.8c1.5-4.4,3.3-8.6,5.1-13.3c8.4-1.3,14.6,3.2,21.1,5.8c67.7,27.8,135.4,55.8,203.1,83.7
		c41.2,17,82.5,34,123.7,51c6.1,2.5,12.1,5.3,18.8,8.3c0.6,11.4-5,20.5-8.2,29.8c-6.6,3.2-11.1-0.8-15.8-2.7
		c-63-25.4-125.8-51-188.7-76.6C8157.9,2597.5,8152.1,2593.9,8142,2595.1z"/>
	<path onclick="modals(this.id);" id="1881" class="st0" d="M7902.5,3019.4c-10.4,30.3-23.7,60.6-35,90.4c-2.1,0.9-2.7,1.2-3.4,1.3
		c-0.6,0.1-1.4,0.3-1.9,0.1c-102.2-41.8-204.3-83.6-306.5-125.5c-2.4-1-4.6-2.5-6.8-3.8c-0.5-0.3-0.7-1.1-1.8-2.9
		c6.9-25.2,16.3-50.5,24.9-74.8c2.1-1.2,2.7-1.7,3.3-1.8c0.6-0.2,1.3-0.2,1.9,0c107.3,33.5,213.2,71.2,318.3,111.1
		c1.8,0.7,3.4,1.9,5.1,3C7901.1,3016.7,7901.3,3017.4,7902.5,3019.4z"/>
	<path onclick="modals(this.id);" id="1798" class="st0" d="M9445,1341h248.3c-0.1-6.7-0.2-13.3-0.3-20v-76h58.2v-124.2c-38.1,2.9-75.1-9.7-111-23
		c-43.1-16-85.3-44.8-131.3-44.8l-4-4c0,1.3,0,2.7,0,4c-2.9,3.3-7.1,5.3-11.4,4.5c5.5,41.7-29.7,82.5-20.6,123.5c0,0,44,0,44,0v84.1
		c4.6,0,6.1,7.8,4,11.9h-64c0,9.3,0,18.7,0,28L9445,1341z"/>
</g>
</svg>
