<?xml version="1.0" encoding="utf-8"?>
<!-- Generator: Adobe Illustrator 19.0.0, SVG Export Plug-In . SVG Version: 6.00 Build 0)  -->
<svg version="1.1" id="Layer1" xmlns="http://www.w3.org/2000/svg" xmlns:xlink="http://www.w3.org/1999/xlink" x="0px" y="0px"
	 viewBox="0 0 4000 2000" style="enable-background:new 0 0 4000 2000;overflow: hidden; display: inline; width: inherit; min-width: inherit; max-width: inherit; height: inherit; min-height: inherit; max-height: inherit;" xml:space="preserve">
<style type="text/css">
	.st0{fill:#8FD4EB;stroke:#000000;stroke-width:1;}
</style>
<g>
	
	<path onclick="modals(this.id);" id="2667" class="st0" d="M2654.4,1684.4c-3-0.5-5.7-1.2-8.5-1.2c-2.6-0.1-5.3,0.1-7.7,0.8c-12.1,3.8-23.9,8.3-36.1,11.7
		c-9.1,2.5-17-1.8-24-7.3c-0.7-0.5-0.9-2.5-0.5-3.4c3.1-6.1,0-9.9-4.5-13.4c-7.6-5.9-15-12.3-22.9-17.7c-5-3.4-11.3-4.8-16.4-8.1
		c-6.2-4-11.8-8.9-17.6-13.5c-0.7-0.6-0.9-1.8-1.7-2.4c-9.6-8.1-10.5-18.7-8.9-30.1c1.1-7.4-4.7-17.2-12.6-21.4
		c-5.9-3.2-10.6-12.6-10.1-19.2c0.2-3.2-0.1-6.7-1.2-9.7c-2-5.6-10.5-6.5-13.6-1.4c-5,8.1-11.5,11.2-21,8.9c-4.5-1.1-9-0.7-11.7,4.8
		c-1.6,3.3-4.7,5.1-8.8,2c-7.4-5.5-15.5-6.5-24.1-2.8c-1.1,0.5-2.6,0.9-3.8,0.6c-13.5-3.5-27-7.3-40.5-10.8c-2.2-0.6-4.7-0.3-7-0.1
		c-4.7,0.5-9.3,1.6-14,1.8c-1.5,0.1-3.5-1.7-4.6-3.1c-6-7.8-16-8.6-21.1,0c-4.4,7.5-9.1,8.3-15.9,5.3c-7.3-3.2-14.7-6.3-21.7-10
		c-8.2-4.4-11.4-12.2-12.6-21c-0.2-1.3-0.8-2.5-0.9-3.8c-0.1-3.7-0.4-6.6,3.4-9.9c6.4-5.4,9.8-10.8,5.4-19.7
		c-3.4-7-5.9-14.4-8.9-21.5c-2.3-5.3-5.2-10.4-7.2-15.8c-1-2.8-0.7-6.1-0.3-9.2c0.9-7.8,0.7-15.3-4-22.2c-2.1-3.2-3.6-6.9-4.8-10.5
		c-3.7-10.7-11.9-16.3-21.7-20.4c-5.9-2.5-13.6-1.9-16.9-9.3c-0.5-1.1-1.3-2.5-1.1-3.6c2-11.9-3.4-21.3-9.2-30.9
		c-2.6-4.3-3.3-9.7-4.9-14.5c-0.8-2.6-1-5.8-2.6-7.6c-6.1-6.7-12.6-13.2-19.3-19.4c-2.3-2.1-5.6-3.7-8.6-4.4
		c-8.1-1.8-12.6-7.3-16.4-14.1c-3.3-5.9-7.3-11.4-10.5-17.4c-6.6-12.4-13-25-19.4-37.5c-9.9-19.2-19.3-38.6-30-57.4
		c-4.1-7.1-10.8-12.9-16.7-18.9c-5-5.1-10.9-9.4-16-14.4c-15.9-15.6-31.7-31.4-47.5-47.2c-0.9-0.9-1.8-1.9-2.8-3
		c28.3-13.9,56.5-27.7,84.6-41.5c7.5-3.7,14.9-7.5,22.4-11c1.2-0.6,4.1-0.3,4.5,0.5c5.6,10.5,15.5,15.6,25.6,19.8
		c8.5,3.5,13.8,9.4,17.8,17c1.2,2.3,2.5,4.6,3.7,7c1.7,3.3,3.6,6,8,3.4c1-0.6,2.9-0.3,4,0.3c4.1,2.2,8,0.9,12.1,0
		c11.2-2.4,17.6-10.5,24.1-18.8c11.5-14.9,23.1-29.7,34.7-44.5c5.1-6.6,10.3-13.1,14.8-18.7c2.9,1.5,5.3,3.6,7.6,3.6
		c5.1,0.2,10.5,1.7,15.3-2.3c1.7-1.4,4.7-1.4,7.1-1.4c8-0.2,16,0.2,24-0.2c2.9-0.1,6-1.2,8.7-2.5c4.2-2,8-2.1,11.2,1.5
		c6.3,6.9,12.4,13.9,18.6,20.8c3.9,4.4,7.8,8.7,11.4,13.2c1.3,1.6,1.8,3.8,2.8,5.6c2.3,3.9,4.4,8.1,7.4,11.4
		c4.2,4.7,9.2,8.7,13.9,13.1c0.1,0.1,0.3,0.2,0.3,0.4c4.8,10.8,9.6,21.6,14.2,32.6c1.5,3.7,2.3,7.8,3.2,11.7c0.5,1.9,1,3.9,0.8,5.8
		c-1.3,9.6,1.3,18.7,3.1,27.9c0.3,1.7-0.1,4.3-1.3,5.3c-12.8,10.8-25.8,21.3-38.7,32c-11,9.1-22,18.3-32.7,27.8
		c-4,3.5-7.3,7.8-10.9,11.8c-0.3,0.4-0.6,0.9-1.1,1c-5.6,2-8.7,6.6-9,11.8c-0.3,5.7,0.8,11.7,2.5,17.3c2.8,9.1,6.6,17.9,10.1,26.8
		c1,2.5,2.6,4.8,3.6,7.3c1.3,3.4,3.2,7,3.2,10.5c0,5.9,1.9,10.7,6,14.5c11.2,10.2,22.8,20,33.9,30.3c2.7,2.5,4.5,6.3,6.1,9.8
		c1.2,2.4,1.8,5.3,2.2,8c1.6,10.9,10.4,16.2,17.7,22.7c2.4,2.2,5,4.2,7.6,6.1c6.8,5.1,13.6,10.2,20.4,15.2c5,3.6,10.5,4.9,15.8,1.3
		c10.4-7,21.4-6.2,32.9-3.4c7.9,1.9,14.4,5.6,20,11.6c3.4,3.6,7.8,6.4,12.1,9c4.1,2.4,3.4,6,3.3,9.5c-0.3,8.1-0.4,16.3-0.9,24.4
		c-0.5,8.2-1.3,16.4-2.1,24.5c-0.1,1-1.3,2.2-2.2,2.9c-3.7,2.7-7.5,5.4-11.4,7.8c-3.9,2.4-2.6,10.8,2.4,13.8
		c1.1,0.7,2.4,1.1,3.7,1.2c10.2,0.7,20.4,1.2,30.6,2.1c13.9,1.2,27.8,2.7,41.7,3.9c9.5,0.8,19.1,1.3,28.6,2.1
		c15.1,1.2,30.1,2.7,45.2,3.9c6.4,0.5,12.9,0.7,19.3,1.1c2.1,0.1,4.1,0.6,6,0.9c-4.7,13.1-9.4,25.6-13.6,38.4
		c-2.3,7.2-4.6,14.6,0,22c2,3.2,1.3,5.8-1.9,8.3c-2.2,1.7-4,4.6-5,7.3c-1.7,4.9-2.5,10.1-3.7,15.2c-1.8,7.8-7.6,13.2-12.3,19.1
		c-6.4,7.9-6.8,19.8-0.6,28c3.7,4.9,7.7,8.4,13.8,10.2C2655.2,1671.6,2657,1676,2654.4,1684.4z"/>
	<path onclick="modals(this.id);" id="2663" class="st0" d="M2057.1,574.5c-0.4,6.1-1,11.2-1.1,16.2c-0.2,10.4,3.8,16.1,13.6,19.4c2.1,0.7,4.6-0.2,7-0.4
		c3.1-0.2,6.2-0.7,9.3-0.6c5.4,0.2,10.7,0.7,17.1,1.2c-0.4,6-0.8,13.1-1.2,20.5c-3.2,0.8-6.4,1.4-9.5,2.2c-6.1,1.7-9.1,8.2-6.7,15.1
		c0.5,1.5,1.4,2.9,2.2,4.4c1.4,2.6,0.9,4.2-1.7,6c-3.1,2.2-5.9,4.9-8.2,7.9c-3.1,4-1.8,8.4,2.9,10.5c3.3,1.4,6.8,2.1,10.1,3.6
		c5.7,2.7,6.3,6.6,2,11c-6.3,6.4-13.2,11.6-22.8,10.3c-3-0.4-5.8-1.9-8.7-2.9c-6.8-2.3-13.2,0.2-19.7,1.7
		c-7.3,1.7-14.5,3.5-21.8,5.2c-1.2,0.3-2.6-0.1-3.9-0.4c-4.7-1.1-9.3-2.8-14-3.4c-14.4-1.6-28.8-2.8-43.2-4
		c-6.1-0.5-12.2-0.6-19.2-1c1.1,3,1.8,4.7,2.3,6.5c0.9,3.5,3.6,6.8-1.3,10.2c-1.3,0.9,0.1,6.2,0.6,9.4c2.6,15.6,5.4,31.2,7.8,46.8
		c1.5,9.4,11.4,17.5,22.4,18c4.3,0.2,8.5,0.6,12.8,1c3,0.3,3.8,1.9,2,4.4c-5.7,8.2-11.4,16.3-17.2,24.5c-0.4,0.6-1.6,1-2.4,1
		c-4.4,0.1-8.9-0.3-13.3,0.2c-8.5,1-14.5-4.7-21.5-7.4c-12.4-4.7-18.3-15.4-21.6-27.5c-2.8-10.4-4.5-21.1-7.5-31.4
		c-1.2-4.1-4.3-7.6-6.7-11.3c-6.2-9.4-12.5-18.7-18.7-28.2c-2.3-3.5-6-4.2-8.9-2.9c-9.8,4.4-19.3,9.4-28.8,14.4
		c-7,3.7-14.1,5.5-22.2,5.3c-7.9-0.2-15.7,1.4-23.6,1.4c-6.7,0-13.3-1-20-1.8c-7.8-0.9-15.6-1.9-23.4-2.8
		c-11.7-1.3-23.5-2.7-35.2-3.9c-7.7-0.8-15.4-1.3-23.1-2.1c-9.6-1-19.3-1.6-28.8-3.3c-3.2-0.6-6-4-9.3-6.4c-2.8,3.3-5.2,0.3-7.6-1.6
		c-8.1-6.4-16-13.4-26.3-15.6c-8.9-1.9-15.9-6.9-23.7-10.9c-8.7-4.5-18.3-8.2-27.9-9.7c-5.8-0.9-13.1-1.2-18.9,3.3
		c-1.2,1-3.8,1-5.4,0.5c-3.8-1.3-7.5-3.2-11.2-5c-5.7-2.7-7.1-2.1-9.2,4.4c-2.9,0.4-5.1,0.6-7.4-2.7c-4.9-6.9-10.8-13.3-16.4-19.7
		c-1.1-1.2-2.9-2-4.6-2.3c-6.2-1.4-12.4-2.6-18.6-3.8c-8-1.5-16-3.9-24-4c-11.3-0.2-19.1-4.5-22.4-15.2c-2.5-8.2-8.4-13.3-14.8-17.8
		c-5.7-4-12.2-6.8-18.4-10.2c-0.8-0.5-2.3-0.7-2.5-1.3c-1-5-5.1-6.5-8.8-8.8c-2.9-1.8-4.4-4.6-5-8.5c-0.7-4.4-3.8-8.4-6.2-12.4
		c-1.2-1.9-3.5-3.2-1.6-5.9c0.4-0.6,0.3-1.7,0.1-2.4c-4.3-14.3-8.2-28.7-13.2-42.7c-2-5.5-6.3-10.3-9.9-15.1c-1.8-2.4-1.7-4.1,0-6.4
		c7.1-9.4,9.8-20.4,11-31.9c1.1-10,2.5-20,2.5-30c0-10.2-0.6-20.7-10.9-27.9c10.4-6.4,20.5-12.9,30.9-18.8c4.3-2.4,9.3-3.5,14-5.2
		c7.9-2.8,16-5.5,23.8-8.5c7.2-2.8,14.5-2.9,21.8-1.6c8.6,1.5,16.5,1.4,22.3-6.5c0.1-0.1,0.3-0.2,0.3-0.4c1.3-8.3,9-10.4,14-15.2
		c1.7-1.6,2.2-4.4,3.2-6.7c0.4-1,0.4-2.3,0.9-3.2c3.5-6.4,5-13.2,4.1-20.5c-0.6-5,2.8-7.2,6.4-6.8c8.9,0.8,16.1-2.4,23.1-7
		c0.9-0.6,2-0.8,3-1.2c2.9,11.6-3,19.6-9.6,27.8c-6.1,7.5-11.3,15.6-16.9,23.4c-0.5,0.6-0.9,1.5-0.9,2.2c0.4,10.1,0.9,20.2,1.3,30.3
		c0.2,4.8,0.3,9.5,0,14.3c-0.4,6.7-1.1,13.1,3.1,19.4c3.3,5,4.8,11.4,6.5,17.3c3.4,11.9,6.3,24,13.2,34.5c3.4,5.2,8.1,9.5,11.9,14.4
		c2,2.6,3.9,5.6,4.8,8.7c2.7,9.7,7.2,18.5,15.6,24c6,4,13.7,5,20.8,2.7c9.8-3.1,19.5-2.6,29.3-0.9c10.9,1.9,21.2,1.9,28.7-8
		c3.9-5.2,9.7-4.9,14.9-6.2c9.7-2.4,18.7-5.8,26.5-12.8c5.9-5.3,13.2-7.8,21.8-7.6c8.1,0.2,17.3,0.3,24-3.4
		c11.9-6.4,24.8-5.3,36.9-8.4c11.9-3.1,22.1,2.7,32.9,5.3c8.3,2,15.7,7.2,24.6,7.1c1,0,2.4,2.4,3.1,4c2,4.5,5.2,6.3,10,5.9
		c5.1-0.5,10.9,0.6,15.1-1.5c4.5-2.3,8.8-3.1,13.3-2.5c12.5,1.8,25,4.2,37.5,6.2c6.1,1,12.3,1.7,18.4,2.8c2.2,0.4,3.6,1.5,4.2,4.3
		c1.4,6.7,3,7.7,9.9,7.5c10.2-0.3,18.7,4.2,27,9.1c4.9,2.9,10.5,5.2,12.7,11.4c0.5,1.3,3.1,2.2,4.9,2.6c11.8,2.5,21.7,7.3,29.5,17.3
		c5.4,7,12.9,12.8,20.4,17.6c3.3,2.2,9,1.1,13.6,1C2038.4,575.7,2047.3,575,2057.1,574.5z"/>
	<path onclick="modals(this.id);" id="2662" class="st0" d="M1943.6,700.6c11.8,0.9,22.6,1.6,33.5,2.4c11.1,0.9,22.3,1.8,33.4,3.1c3.9,0.4,7.9,3.1,11.6,2.6
		c7.5-1,14.9-3.4,22.2-5.4c7.4-1.9,14.2-2.1,21.7,0.8c7.8,3.1,15.8,0.6,22.7-4.4c2-1.5,4.1-2.9,5.6-4.7c2-2.4,5.2-5.4,4.9-7.7
		c-0.7-4.5-3.1-9-8.5-10.3c-2-0.5-4.1-1-6-1.9c-2.2-1.2-4.2-2.8-7.3-5c4.6-3.8,8.2-6.5,11.5-9.5c2.4-2.2,4.3-4.7,2.1-8.2
		c-0.2-0.3-0.2-0.6-0.3-0.9c-5.1-8.1-3.9-13.5,6.5-16.1c4.9-1.2,9.2-2.2,13.8,0.6c2.1,1.3,5.2,1.1,7.3,2.5c2,1.2,4.2,3.5,4.6,5.5
		c1.7,11.2,3.2,22.4,4,33.6c0.3,4.4-1.4,8.7,1.3,13.2c4.2,7.1,5.8,9.2,14.7,7.1c13.9-3.2,27.6-7.7,41.6-10.3
		c5.8-1.1,12.3,0.7,18.4,1.9c14.5,2.9,28.8,6.5,43.3,9.3c3.4,0.6,7.3-1.4,11-1.7c2-0.2,4.4,0,6.1,0.9c5.7,3.1,11,6.9,16.7,10
		c4.8,2.6,10.3,4.2,14.9,7.2c8.1,5.3,17.2,3.5,25.8,4.7c12.8,1.8,25.8,2.8,38.7,4.1c8.7,0.8,17.3,1.4,26,2.1
		c-0.2-0.4-0.4-0.9-0.7-1.3c2-1.7,3.8-3.7,6-5c3.1-1.9,6.6-3,9.6-4.9c7.5-4.6,14.2-4.1,20.4,2.3c4.8,5,9.9,9.6,14.6,14.7
		c3.2,3.5,6.8,5.7,11.7,5.1c3.1-0.4,5.2,0.7,6,3.8c1.1,4.2,2.1,8.5,3.1,12.8c0.2,1-0.2,2.2,0.3,2.9c4.8,7.7,3.6,16.2,3.8,24.5
		c0.1,5.1,1,10.2,0.8,15.3c-0.2,5.4-1.6,10.7-1.9,16.1c-0.4,7.7-0.8,15.5,0,23.1c0.7,7.1-2.9,14.7-8.6,18.7
		c-4.2,2.9-7,7.8-10.7,11.6c-5.5,5.7-11.1,11.3-16.9,16.7c-0.8,0.7-2.5,0.5-3.8,0.5c-20.6-0.3-41.2-0.7-61.8-1
		c-7.4-0.1-14.8,0-22.7,0c-0.6,3.9-1.3,6.9-1.4,9.9c-0.5,11.8-0.7,23.5-1.1,35.3c-0.6,17.7-1.3,35.4-2,53.1
		c-0.3,6.1-0.9,12.2-1.3,16.8c-4.1,1.2-7.9,2.3-11.6,3.4c-2.3,0.6-4.7,1.5-7.1,1.5c-8.2,0.2-16.3,0-24.5,0.1c-2.4,0-5,0.4-7.1,1.4
		c-8.6,4.1-11.9,3.8-18.7-2.1c-0.8-0.7-3.7-0.6-4.3,0.2c-15.3,19.4-30.5,38.9-45.7,58.3c-4.8,6.1-8.8,13.1-14.8,17.7
		c-6.3,4.9-13.7,9.6-22.8,6.6c-2.5-0.8-5.4-0.5-8.2-0.7c-0.2,0.5-0.4,1-0.6,1.5c-1.4-2.7-2.6-5.5-4.2-8.1c-3.1-4.8-5.9-9.9-9.8-13.9
		c-3.1-3.1-7.5-4.9-11.6-6.9c-8.9-4.3-17.6-8.6-22.7-17.7c-3.2-5.8-5.3-12-4.8-18.7c0.6-6.9-1.4-9.6-8.6-11.4
		c-5.9-1.5-9.9-6.9-10.5-13.2c-1.1-11.5-2.6-23-3.7-34.5c-0.1-1.5,0.9-3,1.3-4.6c1.2-4.5,2.7-9,3.3-13.6c0.7-4.9,4.1-9.7,9.5-11.2
		c2.8-0.8,5.7-1.5,8.5-2.1c4.1-0.8,6.8-3.5,6.6-7.2c-0.2-4,0.9-9.1-4.5-11.3c-3.8-1.5-7.5-3.1-9.7-4.1c-1.5-3.9-2.6-6.7-3.7-9.5
		c-0.1-0.3-0.3-0.6-0.4-0.9c-3.9-10.9-12.2-13.6-22.7-12c-2.1,0.3-4.3,0-6.7,0c-0.2-0.9-0.5-1.6-0.5-2.4c-0.4-12.6-0.8-25.2-1-37.8
		c0-2.9-0.6-4.4-3.7-5.2c-6.9-1.8-13.9-3.5-20.4-6.3c-10.1-4.4-16.6-12.4-22.3-22c-4.2-7.1-11.6-13.1-18.9-17.3
		c-4.4-2.5-10.3-2.1-14.6-6.5c-1.8-1.8-6.3-1.1-9.5-1.4c-3.3-0.4-6.5-0.5-9.8-1c-11.8-1.6-12.7-6.6-14.9-16.2
		c-3.5-15.4-6-31-8.8-46.5c-0.3-1.7-0.4-3.8,0.4-5.2C1947.4,710.9,1947.1,705.9,1943.6,700.6z M2216.7,900.7
		c6.8,2.9,13.5,5.8,20.2,8.7c2.9,1.2,5.6,1.8,6.9-2.1c1.3-4.1-3.6-16.2-7.8-17.1c-6.1-1.4-11.6-4.4-18.6-3.8
		c-9.7,0.8-19.7-0.7-29.5-1.5c-5.7-0.4-11.4-1.4-17.1-1.8c-7.4-0.5-14.8-0.8-22.3-1c-1.2,0-2.8,0.9-3.5,1.9
		c-6.2,8.2-5.4,10.3,4.7,13.1c0.6,0.2,1.2,0.6,1.8,0.9c10.4,5.3,20.6,10.9,31.2,15.9c5.8,2.8,12.4,4,18.2,6.8c4.3,2.2,5.6,0.8,7.3-3
		C2210.6,912,2213.7,906.6,2216.7,900.7z"/>
	<path onclick="modals(this.id);" id="2664" class="st0" d="M2452.8,734c-2,0-4.6,0.4-7-0.1c-2.3-0.5-4.8-1.6-6.5-3.2c-7.9-6.9-15.4-14.2-23.3-21.1
		c-4-3.5-8.6-1.4-12.5,0.4c-7.1,3.2-13.7,7.6-20.9,10.7c-3.4,1.4-7.7,1.4-11.5,1.2c-9.2-0.7-18.3-1.9-27.4-2.8
		c-12.6-1.3-25.2-2.1-37.6-4.2c-6.9-1.2-13.6-4.2-19.9-7.3c-7.8-3.9-15.1-9-22.8-13.1c-2-1.1-5.2-1.7-7-0.8
		c-7.6,3.5-15.1,1.3-22.4-0.1c-7.3-1.4-14.2-4.6-21.5-6c-8.8-1.7-17.9-3.2-26.8-3.1c-6.5,0.1-12.8,3.3-19.3,4.9
		c-8.2,2-16.4,4-24.7,5.7c-7.1,1.4-12.2-4.6-12-11.9c0.3-8.9-0.5-17.9-1.2-26.8c-0.4-5-1.3-10.1-2.7-14.9c-0.6-2.1-2.9-4.2-4.9-5.2
		c-4.2-2.1-8.8-3.3-13.1-5.1c-1.2-0.5-2.7-2.2-2.6-3.2c0.2-5.6,0.8-11.1,1.3-17c0.3,0.1,0.9,0.3,1.3,0.6c6.5,7.5,13.6,7.6,21.8,0.5
		c3-2.6,5.5-4.5,10-3.2c1.9,0.6,5.4-1.3,7.2-3.1c6.5-6.6,12.5-13.6,18.8-20.4c4.4-4.7,9-9.3,13.5-14c6.7-7.1,13.1-14.4,20.2-21.1
		c2-1.9,6-2.1,9.1-2.1c9.2,0,18.1,0.4,26.5,5.5c5.2,3.1,7,7.9,10.2,12.1c2.8,3.6,5.5,7.5,8.9,10.4c4.4,3.8,9.3,2.2,15-3.6
		c5.8-5.9,11.8-11.5,17.4-17.5c8.6-9.3,18.4-17.1,29-24c3.2-2.1,5.2-6.1,7.3-9.4c4.1-6.4,10.8-10.1,17.4-12.1
		c4-1.2,9.9,1.4,14.2,3.7c9.8,5.1,19.9,7.2,30.1,2.6c9.2-4.2,17.8-3.3,26.7-0.3c3.5,1.2,7,2.6,10.2,4.5c6.9,3.9,14.6,4.5,22,5.9
		c14.1,2.7,28.1,5.3,42.2,8.1c5.9,1.2,11.7,3.2,17.6,3.8c3.9,0.4,8.1-0.6,12-1.9c3.4-1.1,5.2,0,7.7,2.1c6.1,5.3,12.4,10.5,19,15.1
		c4.7,3.3,7.4,6.6,7.5,12.8c0.2,13.3,4,26,7.7,38.7c0.6,2,1,4.1,1.2,6.2c1.4,15.6,2.7,31.1,4,46.7c0.7,8.5,0.1,17-3.4,24.6
		c-1.8,3.9-3.9,7.4-5.2,11.7c-0.9,2.8-6.7,5.4-10.5,5.8c-11.3,1.3-22.7,1.7-34.1,2.2c-4.1,0.2-8.2-0.9-12.3-0.9
		c-7.4,0.1-14.9,0.1-22.3,1.1c-5.1,0.7-10.3,2.6-14.7,5.2c-4.2,2.4-4.7,7.1-2.1,11.3c2,3.2,1.6,5.6-0.7,8.4
		C2455.1,728.8,2454.3,731.2,2452.8,734z"/>
	<path onclick="modals(this.id);" id="2666" class="st0" d="M1415.4,869.9c-1.6-11.4-3.2-21.9-4.6-32.4c-0.8-5.7-1.4-11.4-1.7-17.1
		c-0.8-14-1.1-28.1-2.1-42.1c-1.1-15.4-2.7-30.8-3.9-46.2c-0.9-11.5-1.2-23.1-2.1-34.6c-1.2-15.4-2.6-30.8-3.9-46.2
		c-0.4-5.4-0.6-10.9-1-16.3c-0.6-8.5-1.3-17.1-2-25.6c-0.1-1.6,0-3.3,0-6.4c6.5,3.4,12.2,6.3,17.8,9.5c2.1,1.2,3.8,3.1,5.7,4.6
		c5.1,4.3,8.1,9.9,10.8,16.1c3.2,7.3,9,13.6,17.6,13.7c14.3,0.1,27.8,3.7,41.2,7.8c0.6,0.2,1.3,0.5,1.9,0.4c7.9-1.3,12,3.9,15.9,9.4
		c2.4,3.5,5.3,6.6,7.8,10.1c5.9,8.2,10.9,8.1,15.9-0.3c5.6,2.3,11.1,4.8,16.7,6.8c1.3,0.5,3.2-0.2,4.7-0.6c3.4-1,6.6-2.9,10-3.3
		c16.7-1.7,30.3,6.2,43.9,14.3c3.2,1.9,6.6,3.8,10.2,4.4c10.6,1.7,18.9,7.7,27.1,13.9c2.3,1.8,4.6,3.8,7.1,5.3
		c1.5,0.9,3.4,1,5.5,0.7c3,5.8,9.3,5.3,14.5,6.1c10.4,1.6,20.9,2.1,31.4,3.2c11.2,1.2,22.5,2.7,33.7,3.9c7,0.8,14.1,1.3,21.1,2.1
		c11.9,1.3,23.8,2.8,35.7,3.8c3.5,0.3,7.2-0.8,10.8-0.9c8.3-0.1,16.7,0.4,25-0.2c4-0.3,8.1-2.3,11.8-4.1c9.7-4.7,19.4-9.5,28.9-14.6
		c4.5-2.5,7.4,0.4,9.2,2.9c7.7,11.1,15.5,22.3,21.9,34.2c3.5,6.6,4.3,14.6,6.3,21.9c1.7,6.4,2.8,13.1,4.9,19.4
		c3.9,11.3,12,18.6,23.2,22.6c1.8,0.7,3.8,1.2,5.4,2.3c5.2,3.5,10.6,6,16.3,4.8c-0.6,5.3-0.8,10.5-1.9,15.4
		c-0.7,2.9-2.8,5.4-4.6,7.9c-3.9,5.4-7.4,11.3-12.2,15.8c-5.4,5.1-11.8,9.3-18.2,13.2c-1.7,1-4.9-0.3-7.5-0.7
		c-1.1-0.1-2.3-0.7-3.3-0.6c-12.1,1.3-23.3-2.5-34.6-5.9c-9-2.7-17.4,0.1-25.9,2.7c-6.1,1.9-12.1,3.7-18.3,5.1
		c-2.2,0.5-4.8-0.4-7-1.3c-6.5-2.7-12.8-6.2-19.5-8.4c-2.8-0.9-6.7,0.1-9.5,1.5c-4,2-6.5,1.3-8.4-2.3c-3.5-6.6-4.9-13.4-3-20.9
		c2.2-8.6-3.6-20.9-12.7-24.7c-7.5-3.1-11.1-8.9-13.9-15.5c-3.9-9.1-7-10.1-15-5c-5.1,3.2-9.5,8.5-16.5,7.7
		c-9.1-1-18.2-2.7-27.3-3.1c-5-0.2-9.4-0.7-14.3-2.4c-7.7-2.6-16.4-2.9-24.7-3.4c-12.1-0.7-24.2-1.3-36.3-0.9
		c-5.4,0.2-9.1-1.4-13.6-3.9c-6.9-3.9-14-8.3-22.8-6.6c-3.1,0.6-6.3-0.1-9.5,0.3c-2.9,0.4-5.9,0.9-8.4,2.2
		c-15.6,8.3-31,16.8-46.5,25.2c-26.7,14.5-53.3,29.1-80,43.6C1430.6,862,1423.1,865.8,1415.4,869.9z"/>
	<path onclick="modals(this.id);" id="2665" class="st0" d="M2109.1,1034.7c-36.9,18.1-73.9,36.1-111.3,54.4c-1.2-1.1-2.5-2.3-3.8-3.5
		c-14.4-14.4-28.8-28.7-43.1-43.1c-13.7-13.9-27.6-27.6-40.7-42.1c-3.2-3.6-5.1-9.9-4.9-14.8c0.4-9.3-1.9-17.9-4.8-26.1
		c-4.5-12.4-3.1-25-2.2-37.5c0.3-4.1,4-8,6.3-11.9c5.1-8.5,10.3-17,15.4-25.5c0.5-0.8,1.2-2,0.9-2.7c-2.3-6.5,3.2-8,6.8-10.7
		c4.2-3.1,9.3-5.3,12.6-9.2c5.3-6.3,9.4-13.6,14-20.5c0.2-0.3,0.5-0.5,0.6-0.8c1-6,1.9-12.1,2.9-18.7c2.5,0,4.5-0.3,6.3,0.1
		c5.4,1,8.4-1.9,11-6c3.6-5.6,7.4-11.1,11.2-16.6c3.1-4.5,10.7-6.5,15.5-3.4c8.7,5.6,16.3,12.4,20.4,22.5c0.9,2.3,2.5,4.7,4.4,6.3
		c8.2,7.3,17.5,12.7,28.6,14.2c0.8,0.1,1.5,0.6,2.3,0.7c5,0.7,6.8,3.3,6.7,8.6c-0.2,11.6,0.6,23.2,0.8,34.8c0.1,2.8,1,3.9,3.8,3.9
		c4.8-0.1,9.7,0.3,14.5-0.1c3.7-0.3,6,1.3,8,3.9c2.2,3,4.3,6.1,6.3,9.3c0.5,0.8,0.7,2.2,0.3,2.8c-2.8,4.7,1.1,5.6,3.9,6.9
		c2.4,1.1,4.9,1.8,7.3,2.7c4.4,1.7,4,5.6,3.9,9.2c-0.1,3.6-3.1,3.5-5.5,4.4c-4.7,1.7-9.6,3.3-13.5,6.2c-2.4,1.7-3.8,5.5-4.8,8.6
		c-1.6,4.7-2.7,9.6-3.8,14.5c-0.6,2.8-0.7,5.7-0.8,8.6c-0.1,1.5,0.3,2.9,0.5,4.4c0.6,4.7,1.4,9.3,1.9,14c0.5,4.3,0.6,8.6,1.1,12.8
		c1,9.6,5.3,14.7,14.5,16.7c3.3,0.7,4.6,2.1,4.5,5.3c-0.1,3-0.3,6,0.1,9C2107.4,1028.9,2108.3,1031.5,2109.1,1034.7z"/>
	
	<path onclick="modals(this.id);" id="1661" class="st0" d="M2241.6,907.7c-9.6-3.9-17.7-7.3-25.6-10.5c-3.9,6.9-7.9,13.8-11.9,20.9
		c-8.1-2.4-16.1-4.8-23.7-9.5c-9.7-6-20.8-9.8-31.1-14.7c-1.7-0.8-2.9-2.6-4.3-3.9c1.8-1.7,3.5-4.7,5.3-4.8
		c6.4-0.3,12.9,0.2,19.3,0.9c8,0.8,15.9,2.3,23.9,2.8c9.3,0.5,18.7,0.2,28.1,0.3c0.9,0,1.8,0.7,2.7,0.9c2.7,0.7,5.5,0.9,8,2.1
		c2.1,1,4.4,2.7,5.5,4.7C2239.5,899.8,2240.2,903.2,2241.6,907.7z"/>
</g>
</svg>
