<?xml version="1.0" encoding="utf-8"?>
<!-- Generator: Adobe Illustrator 19.0.0, SVG Export Plug-In . SVG Version: 6.00 Build 0)  -->
<svg version="1.1" id="Layer1" xmlns="http://www.w3.org/2000/svg" xmlns:xlink="http://www.w3.org/1999/xlink" x="0px" y="0px"
	 viewBox="0 0 2600 1300" style="enable-background:new 0 0 2600 1300;overflow: hidden; display: inline; width: inherit; min-width: inherit; max-width: inherit; height: inherit; min-height: inherit; max-height: inherit;" xml:space="preserve">
<style type="text/css">
	.st0{fill:#8FD4EB;stroke:#000000;stroke-width:1;}
</style>
<g>
	
	<path onclick="modals(this.id);" id="1078" class="st0" d="M1404.5,602.7c3.2,10.8,4.3,11.7,19.9,18.2c4.7-4.6,3.4-9.7,1.2-14.7
		c-8.2-19.2-16.5-38.3-24.6-57.5c-1-2.3-1.2-5.2-0.8-7.7c1.1-6.7,2.7-13.3,4.1-20.3c3.1,2.5,6.8,5.3,10.2,8.4
		c14.6,13.2,29,26.6,43.8,39.5c5.3,4.6,7.1,10.1,6.6,16.5c-0.4,5.2,1.3,8.9,5.1,12.6c9.9,9.6,20.1,19.1,28.6,29.8
		c6.8,8.7,15,9.5,24.5,9.9c9.2,0.3,18.4,1.9,27.5,2.9c3.4,0.4,6.9,0.5,10.3,1.2c12.6,2.4,25,5.8,38.1,5.6c7.7-0.1,15.4,0.5,23,1.6
		c4.7,0.7,9.2,3.4,13.9,4.6c8.5,2.1,17.1,4,25.8,5.5c2.1,0.4,4.7-0.7,6.7-1.9c6.6-3.7,13.7-5.8,20.9-3.7c7.5,2.3,14.4,1.6,21.6-0.7
		c9.1-3,18.4-5.6,27.4-8.8c2.6-0.9,4.7-0.9,7.1,0.2c5.9,2.7,11.9,5.1,17.8,7.8c1.2,0.6,2.1,1.9,3.7,3.4
		c-26.9,6.5-52.8,12.5-78.6,19.1c-3.5,0.9-6.9,3.5-9.7,6c-5.2,4.6-10.2,9.5-14.7,14.7c-4.6,5.3-8.6,11.1-12.8,16.8
		c-7.1,9.6-14.1,19.2-21,28.9c-1,1.5-0.7,3.9-1.5,5.6c-1.2,2.7-2.6,5.4-4.3,7.9c-6.8,10-13.8,19.8-20.5,29.9c-1,1.4-0.9,3.8-0.7,5.7
		c0.8,6.8,2,13.6,2.8,20.4c0.2,1.9-0.1,4-0.9,5.7c-6.6,14.4-13.3,28.7-20,43.1c-0.2,0.4-0.5,0.7-1.3,1.8
		c-11.6-9.8-23.1-19.4-34.6-29c-5.3-4.5-10.4-9.2-15.8-13.5c-1-0.8-3.8-0.9-4.7-0.1c-8.5,7.1-16.7,14.5-25,21.7
		c-2,1.8-2.1,3.2-0.2,5.4c8.7,10.1,17,20.5,25.8,30.5c1.8,2.1,4.7,3.6,7.4,4.5c10.8,3.7,14.3,12.7,16.2,22.5c1.1,5.5,1,11.2,1,16.8
		c0,1.2-1.5,2.6-2.6,3.4c-3,2.1-7.2,3.2-6.3,8.3c1.9,10.2-4.8,15.2-12.1,19.2c-6.5,3.6-13.9,5.6-20.7,8.7
		c-8.3,3.9-16.6,7.8-24.3,12.7c-6.9,4.5-13.4,5.3-20.8,1.9c-17.2-7.9-34.4-15.8-51.7-23.5c-23.1-10.3-46.3-20.2-69.3-30.7
		c-8.5-3.9-16.4-8.8-24.6-13.3c-1-0.6-2.5-1.7-2.5-2.6c-0.2-6.9-5.2-10.1-9.7-14c-7-6.1-13.6-12.7-20.3-19c-0.4-0.3-0.9-0.7-0.9-1.1
		c-1.2-13-11.9-20.7-17.3-31.4c-2.9-5.8-6.7-11.2-10.2-16.7c-1.1-1.7-2.6-4-4.2-4.3c-9.2-1.6-15.7-7.6-22.7-12.9
		c-14.7-11.2-29.3-22.5-43.9-33.9c-8.9-7-17.4-14.5-26.5-21.2c-5.3-4-5.9-9.1-5.1-14.7c1.6-10.9,4.5-21.8,5-32.8
		c0.2-5.3,3.3-7.9,4.9-11.8c1.3-3.1,0.4-7.1,0.4-10.7c0-0.9-0.7-2.1-0.3-2.7c2.9-4.5,7.6-2.1,11.5-2.2c1.3-0.1,3.8,2.3,4,3.8
		c0.5,4.4,2.4,7.1,6.5,8.8c5.5,2.3,11.1,4.7,16.3,7.6c3,1.7,5.1,5.4,8.2,6.6c8.3,3.1,16.8,7.4,25.3,7.6c21,0.5,42.1-0.4,63.1-1.8
		c11.2-0.7,20.9,2,29.5,8.6c8,6.2,17.1,3.9,25.4,3c4.5-0.5,8.4-6.3,12.7-9.6c4.9-3.8,7.9-8.6,10.8-14.1c4-7.8,3.9-15.8,2.9-23.5
		c-1.3-10.1-5.4-19.8-6.8-29.9c-0.8-5.7,1.1-11.9,2.4-17.8c0.9-4.1,2.9-8,3.8-12.1c1-4.2,2.3-7,7.6-6.8
		C1395.6,604.9,1399.9,603.5,1404.5,602.7z"/>
	<path onclick="modals(this.id);" id="1073" class="st0" d="M1740.9,639.9c-12.8,3.9-25.1,8.1-37.7,11.2c-4.8,1.1-10.2-1-15.4-1c-5.3,0-11.2-0.5-15.6,1.7
		c-5,2.5-9.3,2.3-14.1,1.2c-7.3-1.7-14.8-2.7-21.9-5.1c-13.7-4.5-27.8-4.8-41.9-6c-16.9-1.3-33.7-3.2-50.5-5
		c-11.2-1.2-22.4-2.6-33.6-4c-1.3-0.2-2.8-1-3.7-2c-12.3-12.6-24.6-25.2-36.9-37.9c-0.9-0.9-1.5-2.5-1.6-3.9c-0.3-2.5,0-5-0.1-7.5
		c-0.2-4.8-1.1-9.2-5.2-12.6c-4.4-3.8-8.4-8.1-12.4-12.3c-0.8-0.9-1.7-2.7-1.3-3.5c1.6-3.2,1.5-6.2,1.1-9.8
		c-0.7-7.9,0.6-15.7,5.7-22.2c4.3-5.5,2.2-11.8,1.7-17.7c-0.4-6.1-1.9-11.7,2.9-17.1c4.7-5.3,3.5-12.5,4-19.1
		c0.5-6.3-3.5-10.4-7.9-12.8c-7.5-4.1-10.7-10.5-13.8-17.7c-2.7-6.4-6.3-12.5-9.2-18.8c-1.5-3.2-2-6.9-3.3-10.1
		c-2.7-6.4-5.6-12.7-9-20.4c3.1,1.9,5.2,3.1,7.2,4.5c6.3,4.3,14.4,2.2,17.2-5c2.3-5.9,2.9-12.4,5.4-18.1c1.8-4.3,5.1-8.1,8.2-11.7
		c3.4-4,8.2-7.1,10.9-11.5c4.5-7.1,5-7.9,13.5-6.9c1.1,0.1,2.3,0,4.2,0c0-4.6,0.1-9,0-13.5c-0.1-4.5-0.2-8.6,3.8-12.1
		c7.3-6.5,10.2-15.3,12.6-24.7c2-7.6,6.3-14.5,9.6-21.7c4.1-8.8,7-17.8,5.2-27.8c-0.7-3.8,0.5-7.8,0.6-11.8
		c0.3-6.8-0.7-12.9-5.3-18.7c-4.6-5.8-7.7-12.8-11.4-19.4c-1.5-2.7-3-5.4-4.2-7.5c2.9-5.6,5.3-11.6,8.9-16.7
		c1.9-2.8,5.8-4.4,9.1-5.8c0.8-0.4,3.5,1.4,4.1,2.7c7.8,18.5,16.1,36.9,27.9,53.3c2.1,2.9,5.8,5.4,9.2,6.7c7.2,2.7,9.1,10,13.8,14.8
		c3,3,4.5,6.7,2.4,11.1c-0.4,0.8,0.4,2.2,0.8,3.2c4.2,12.3,8.4,24.6,12.4,37c1,3.1,1.2,6.4,1.6,9.7c1.1,8.8,1.4,17.7,3.3,26.3
		c0.8,3.8,4.5,7.2,7.4,10.2c9.2,9.5,17.3,19.9,22.6,32c4.2,9.8,8,20.2,9.2,30.7c0.9,7.5-1.8,15.9-4.3,23.4c-3,8.8,1,15.5,5.2,21.9
		c1.6,2.5,6.6,3.1,10.1,3.8c6.6,1.3,13.5,1.4,19.8,3.4c4.3,1.4,7.6,5.4,11.5,8c5.6,3.8,11.2,7.8,17.2,11c3,1.6,6.8,2.1,10.4,2.6
		c8.7,1.2,15.3,6.3,21.5,11.7c1.2,1,2.1,4.4,1.4,5.4c-4.8,6.2-4.7,13.7-6.4,20.8c-1.5,6.3-4,12.4-6,18.5c-1.3,4-4.4,5.5-8.2,6.7
		c-6,2-11.9,4.4-17.6,7.1c-1.8,0.9-3.6,3.2-4,5.2c-1.7,9.3,1.3,17.7,8.5,23.4c4.4,3.4,5.5,7.3,6.3,11.9c1.9,11.5,6.9,21.1,17,27.4
		C1726.1,616.4,1733.8,627.7,1740.9,639.9z"/>
	<path onclick="modals(this.id);" id="1079" class="st0" d="M1874.5,907c-1.8,12.4-9.6,19.2-20.2,22.8c-6.2,2.1-7.3,6.4-7.4,12c-0.1,6.4-0.5,12.9-1,19.3
		c-0.6,8.3-5.9,13.9-11.2,19.5c-4.5,4.8-9,9.6-14,13.9c-9.8,8.4-16.3,19.3-22.7,30.2c-3,5.2-5.6,10.6-8.2,15.9
		c-0.6,1.2-1.3,3.4-0.7,4.2c4.9,6,2.6,12.8,1.6,19.1c-0.9,5.6,0.9,10.3,2.8,15c3.7,9.2,6.4,18.5,6.6,28.5c0.1,4.2,1.2,8.4,2.3,12.5
		c3.4,11.9,0.4,23.4-1.6,35c-0.2,0.9-2,2.2-2.9,2.1c-7.6-0.8-12.5,4.6-18,8c-6.8,4.1-13.2,8.4-21.5,8.3c-1,0-2.2,0.1-2.9-0.3
		c-20.9-13.6-41.8-27.2-62.7-40.9c-11.6-7.6-23.2-15.2-34.7-23c-1.6-1.1-3-3.6-3-5.4c-0.2-19.3-0.2-38.7-0.1-58c0-1.6,1-3.3,1.8-4.8
		c1.4-2.4,3.4-4.5,4.7-6.9c3.9-7.3,10.1-10.8,18-11.8c4.1-0.5,6.5-3.9,6.3-10.9c-0.2-6.5-1.4-13-2.1-19.6c-0.1-1-0.3-2.2,0-3.1
		c6.4-20,12.7-40,24.6-57.8c3.4-5.1,4.4-10.8,0.9-17.4c-4-7.5-5.6-16.2-8.4-24.3c-4-11.7-7.9-23.4-12.1-35.1c-2.5-7-5.8-13.7-8-20.7
		c-1.3-4-1.5-8.3-1.8-12.6c-0.5-6.6-1-13.2-1-19.8c0.1-16.4-3-32.2-7.4-47.9c-2.8-9.8-3.8-20.2-5.7-30.2c-0.9-4.6-2.1-9.2-2.9-13.8
		c-0.2-1.3,0.1-3.2,0.9-4.2c6.3-8.2,12.2-16.7,19.4-24.1c3.2-3.2,8.9-4.3,13.7-5.5c23.4-5.8,46.8-11.3,70.3-16.7
		c1.5-0.3,3.7,0.7,5.1,1.7c3.9,2.9,7.8,6,11.4,9.4c1.9,1.8,3.7,4.3,4.1,6.8c1.7,8.8,2.3,17.8,4.2,26.6c1.3,6,3.7,11.7,5.9,17.5
		c6,15.6,12.7,30.7,22,44.6c5.1,7.6,11.1,14.6,15.7,22.5c2.8,4.9,4.4,10.8,5.1,16.5c1.1,8.5,0.5,17.2,1.4,25.8
		c0.3,3,2.3,6.1,4.1,8.7c4.3,6.1,4.7,13.4,7,20c3.3,9.5,4.5,18.1-1.2,26.9c-0.5,0.8,0.2,2.6,0.5,3.8c1,3.3,2.2,6.5,3.3,9.7
		c2.7,8.1,2.7,8.1,11.1,8.1C1868.9,907,1871.7,907,1874.5,907z"/>
	<path onclick="modals(this.id);" id="1071" class="st0" d="M1069.9,345.5c4.3,2.1,8.5,4.3,12.8,6.4c5.3,2.7,10.3,3,15.6-0.8c8.1-6,10.7-15.5,5.7-24
		c-1.2-2-3.3-3.9-5.4-4.7c-5.7-2.3-7.6-6.6-8.6-12.3c-2.2-13-2.4-26.4-9-38.3c-1.3-2.4-2.6-4.9-3.9-7.3c-2.6-5,1.7-8.9,2.1-13.5
		c1-12.4,2.6-24.8,3.9-37.2c0.1-0.5,0.2-1,0.3-1.4c10,1,14-0.3,14.6-5.1c0.8-6.2-3.4-10.2-7.9-14.4c3.2-0.7,5.4-1.3,7.6-1.7
		c6.4-1.1,7.8-2.4,7.2-8.7c-0.5-5.1-1.7-10-4.4-14.8c-3.6-6.4-5.3-13.8-7.9-20.8c0.4-0.4,0.8-0.8,1.2-1.2c3.1,2,7,3.5,9.1,6.2
		c11.7,15.2,29.3,21.6,45.1,30.7c5.1,2.9,8.9,0.4,8.9-5.6c0-2,0.1-4-0.1-6c-0.2-1.7-0.8-3.4-1.1-4.9c4.1,0,7.8,0.3,11.4-0.1
		c3.9-0.4,6.1-2.9,6.8-6.7c1-5.4,1.9-10.9,3.2-16.3c0.3-1.2,2.3-2.5,3.7-2.8c4.3-0.9,8.7-1.6,13.1-1.9c2.7-0.2,5.5,0.4,8.3,0.9
		c7.3,1.2,8.7,0.5,12.3-6.1c0.5-0.8,0.9-1.7,1.6-2.8c2.5,4.4,5.1,8.3,7.1,12.6c1.9,4.3,3.8,8.7,4.6,13.3c1,5.8,1,11.9,1.2,17.8
		c0.1,3.5,1.3,7.1,4.6,7.6c2.1,0.3,4.7-2.4,7.1-3.6c2.7-1.3,5.5-2.5,8.2-3.8c5.8-2.9,11.5-5.8,17.2-8.7c0.7-0.4,1.4-1.3,2-1.3
		c6.5,0.5,9.5-3.3,11.3-8.8c0.2-0.7,1.1-1.2,1.6-1.9c4.8-7.2,6.5-7.4,14.1-3c5.6,3.2,11.2,6.9,17.4,8.4c8.7,2.1,16.6,5.4,24.4,9.4
		c2.3,1.2,5.1,1.4,8.2,2.1c-5.4,4.7-10.4,8.9-15.2,13.3c-2,1.8-3.9,3.8-5.6,5.9c-2.5,3.2-4.5,3.3-6.9,0.1c-1-1.4-1.9-3-2.8-4.6
		c-4.1-7.3-13.9-4.9-16.2,0.5c-2.3,5.3-4.1,10.9-5.2,16.5c-1,5.1-0.8,10.5-1.1,15.8c-1,14.3,4.6,25.8,15.3,34.8
		c2.1,1.8,5.2,2.4,8,3.3c5.7,1.9,10.4,4.4,11.5,11.3c1.3,8,3.3,15.9,5.3,23.8c2,7.8,0.2,15.3-1.6,22.8c-1.9,7.7-5.2,15.2-6.1,23
		c-0.6,4.9,1.6,10.5,3.6,15.3c2.1,4.9,5.1,9.6,8.6,13.6c3.6,4,8.2,7.1,12.7,10.1c2.8,1.9,7.3,10.2,6.6,14.5c-0.6,3.9-1,7.8-2.1,11.5
		c-0.8,2.7-2.3,5.4-4.1,7.6c-2.9,3.7-4.7,7.4-4.9,12.4c-0.4,10-1.7,19.9-2.8,29.8c-0.1,1.2-1.6,2.1-2.4,3.3
		c-1.9,2.7-3.8,5.5-6.3,9.2c-4.5-4.7-9-10-14.2-14.6c-2.9-2.6-6.5-5-10.2-6.2c-23.7-7.7-47.4-15.4-71.2-22.4
		c-26.4-7.8-53-14.7-79.4-22.2c-20.8-5.9-41.6-11.9-62.4-17.9c-0.6-0.2-1.2-0.4-1.9-0.6c-3.4-1.1-8-1.2-9.8-3.5
		c-1.8-2.4-0.8-6.9-1.2-10.5c-0.8-6.3-1.2-12.7-8.9-15.1c-2.1-0.6-3.8-2.7-5.6-4C1068.9,346.7,1069.4,346.1,1069.9,345.5z"/>
	<path onclick="modals(this.id);" id="1081" class="st0" d="M1116,833.5c1.2-5,2.4-8.7,3-12.3c0.5-3.6,8-11.8,11.6-12.1c0.8-0.1,1.7,0.1,2.5-0.1
		c9.6-1.9,10.1-2.5,10-12.7c0-2-0.3-4,0.1-6c0.2-1.5,0.9-3.2,1.9-4.2c2.3-2,5.6-3.1,7.5-5.4c1.8-2.2,3.2-5.4,3.4-8.2
		c0.6-6.9,0.3-13.8,0.5-20.7c0-1.3,0.5-2.5,0.9-4.4c10.5,8.5,20.3,16.5,30.1,24.4c10.5,8.4,21,16.8,31.5,25.2
		c7.3,5.8,14.7,11.5,22,17.3c1.5,1.2,3.1,3.4,4.7,3.4c11.5,0,14.3,9.8,19.2,16.9c5.7,8.3,10.8,17.1,16,25.8c1.5,2.5,2,5.5,3.5,7.9
		c2.3,3.5,4.7,7.1,7.7,10c6.9,6.7,14.1,12.9,21.2,19.4c1,0.9,1.9,2.4,2,3.7c0.3,6.1,5.2,8,9.4,10.5c3.1,1.8,6.2,3.5,9,5.1
		c-2.3,4.8-4.6,9.2-6.5,13.8c-0.8,1.9-1.2,4.3-0.7,6.2c2.1,7.7-0.2,14-4.6,20.2c-5.6,7.9-7.9,14.6,1.4,25.6c1,1.2,1.2,3.3,1.2,5
		c0,4.3-0.6,8.5-0.3,12.8c0.5,6.2,2.3,7.6,9.1,8.7c6.1,1,12.3,1.9,18.3,3.1c1,0.2,2.3,1.7,2.6,2.8c2.3,10.1,1.5,18.1-13.1,26.5
		c-9.3,5.3-19.6,5.7-29,9.5c-3.8,1.5-8.2,2-11.3,4.3c-2.9,2.1-4.4,6-7,9.8c-0.9,0-2.9,0.1-4.8,0c-5-0.4-8.9,0.6-11.7,5.4
		c-1.1,1.8-4.1,2.9-6.5,3.6c-9.2,2.7-18.5,1.4-27.9,1.2c-8.5-0.2-17.2,0.6-25.5,2.1c-4.8,0.9-9.1,4.3-13.8,6
		c-5.2,1.9-10.5,3.6-15.9,4.3c-2,0.3-4.4-2.3-6.7-3.5c-11.9-6.1-23.6-12.7-37.9-11.1c-11.6,1.3-23.2,2.6-34.9,2.9
		c-12.5,0.4-24.1-3.3-34.3-10.8c-3.5-2.6-4.8-5.7-3.5-9.9c2.9-9.2,8.8-15.8,17.1-20.7c9.3-5.5,16.3-12.6,15-24.8
		c-0.6-5.7-0.8-11.5-1-17.3c0-1.3,0.5-3.6,1.3-3.9c11-4,10.8-14,12.6-22.9c2.4-12.3,1.4-12.9-11.2-15.7c-9.1-2-18.7-4-25.6-11.2
		c-4-4.2-7.4-8.8-6.3-15.3c0.3-1.5,0.2-3,0-4.5c-1.4-11.3,3.2-18.6,13.9-23c4.4-1.8,7.9-5.9,11.8-9c7.9-6.2,15.5-12.6,23.7-18.4
		c4.2-3,5.6-5.8,5-11.3C1125.2,847.4,1122.3,839,1116,833.5z"/>
	<path onclick="modals(this.id);" id="1072" class="st0" d="M1353.4,115.5c6.3-2.2,7.9-1.8,12.6,4.7c3.1,4.3,5.6,9.2,8.5,13.7c6.2,9.8,14.8,16.9,24.6,22.9
		c7.6,4.7,14.5,10.5,21.9,15.6c2.4,1.6,5.3,2.7,8,3.5c6.9,2.2,10.5,7.8,13.9,13.4c5.5,8.9,11.2,8.9,16.6-0.3
		c0.2-0.3,0.5-0.5,0.1-0.1c6.8,0.4,13.2,1.8,19.2,0.7c5.9-1,11.3-4.4,17.1-6.8c4.5,7.9,9.4,16.4,14.1,24.9c2.3,4.2,4.6,8.5,6.2,12.9
		c0.8,2.1-0.1,4.7,0,7.1c0.2,4.6,0.5,9.2,0.7,13.8c0.3,8.3-1.1,16.6-5.6,23.5c-7,10.5-9.3,22.5-13.2,33.9c-1,2.8-2.3,6-4.5,7.8
		c-7.1,6-9.9,13.2-8.5,22.3c0.3,2.1,0,4.3,0,5c-4.7,1.4-8.9,2-12.5,3.9c-2.1,1.1-3.1,4.3-4.7,6.4c-2.3,2.9-4.3,6.4-7.3,8.3
		c-8.3,5.1-12,12.6-13.7,21.8c-0.9,4.7-2.9,9.4-5.5,13.4c-3,4.6-6.7,4.6-11.2,1.7c-3.7-2.4-7.4-4.6-11.9-7.4
		c-0.7,6.4,2.1,10.9,4.1,15.5c2.2,5.1,4.4,10.1,6.6,15.2c1.1,2.6,1.9,5.4,3.1,8c3.6,7.7,6.8,15.6,11.1,22.8c2.7,4.6,6.5,9,10.7,12.3
		c4.4,3.5,7.8,6.4,7.4,12.7c-0.5,7.1-0.1,13.7-5.5,19.8c-2.4,2.7-2,8.7-1.4,13.1c0.9,7.9,1.2,14.8-3.6,22.4
		c-3.5,5.5-2.6,13.9-3.5,21c-0.3,2.5-0.4,5-0.6,8.9c-11-9.9-20.7-18.8-30.5-27.6c-13.3-11.8-26.9-23.3-40.1-35.2
		c-11.6-10.4-22.9-21.1-34.3-31.7c0.6-0.2,1.2-0.5,1.8-0.7c0.9-3.8,2.2-7.6,2.6-11.5c0.9-9.5,1.3-19.1,2.2-28.6
		c0.2-2.1,1.3-4.8,2.9-6c5.7-4.6,5.8-11.2,6.9-17.3c0.6-3.6,0.7-7.5,0-11c-1.2-5.5-3.6-9.8-9.8-12.2c-7.5-3-11.1-10.6-15.1-17.3
		c-1.4-2.4-2.6-4.9-4-7.3c-3.4-5.8-1.7-11.7-0.1-17.5c3.1-11,7.9-21.8,6.9-33.4c-0.8-8.5-3.4-16.9-5.1-25.3
		c-0.1-0.6-0.6-1.2-0.6-1.9c-0.1-10.4-6.4-14.6-15.6-16.8c-9.7-2.3-14-10.7-17.2-18.8c-3.3-8.6-3.1-18.1-1.6-27.3
		c0.8-4.8,1-9.8,2.5-14.4c1.2-3.7,2.7-8.6,8.3-8c1.9,0.2,4,1.6,5.5,3c1.4,1.2,2.3,3.2,3.4,4.8c3,4.1,7.5,3.8,11,0.3
		c6.9-6.8,14.1-13.1,21.4-19.5c1-0.9,3.1-0.8,4.7-0.9c3.3-0.3,6.5-1.2,6.4-5.1c-0.1-6.4-0.6-12.8-1.2-19.2c-0.7-7-1.7-14-2.7-20.9
		C1354.5,123,1354,119.4,1353.4,115.5z"/>
	<path onclick="modals(this.id);" id="1070" class="st0" d="M1652,1104c-1.9-0.6-2.6-0.7-3.1-1.1c-7.6-4.4-8.8-4.3-11.7,3.8c-4.4,12.1-8.1,24.3-12.2,36.5
		c-0.7,2-1.3,4.2-2.6,5.7c-6.6,7.6-6.7,17.1-8.4,26.2c-0.4,2.4-0.8,4.8-1.2,7.2c-0.3-0.1-0.5-0.1-0.6-0.2
		c-8.2-16.6-20.9-29.9-31.4-44.8c-3.4-4.8-5.6-10.8-9.9-14.4c-10.9-9.2-19.5-20.1-27.6-31.7c-1.6-2.3-4.7-4.1-7.5-5
		c-7.3-2.3-14.6-4.5-22.1-5.8c-3.2-0.6-6.7,1.2-10.1,1.4c-1.4,0.1-3.5-0.8-4.1-1.9c-2.7-4.5-5.5-8.6-10.6-11c-2.1-1-2.9-4.2-4.7-6
		c-3.5-3.5-7.2-6.8-11-10c-1.9-1.6-2-2.9-0.6-4.9c5.3-7.2,7.1-15.6,7.4-24.4c0.1-2.8,0.9-5.5,0.9-8.3c0.3-12,0.5-24-5.7-35.5
		c10.2-1.2,17.1-7.6,25.2-11.4c11-5.2,22.2-10,33.3-15.3c3.1-1.5,5.8-3.6,8.5-5.7c4.2-3.4,6.7-7.6,5.8-13.3c-0.6-4,0.9-6.8,4.7-8.2
		c3.4-1.3,4.3-3.7,4.5-7.3c0.2-3.1,1.1-7.5,3.2-8.7c4.1-2.3,8,0.4,10.9,4c5.6,6.9,5.6,6.6,14.3,3.6c7-2.4,13.9-4.6,18.7-11.6
		c-4.9-4.7-9.7-9.4-14.8-14.3c5.1-4.7,10.7-10,16.3-15.3c2-1.9,4.2-3.7,6.3-5.6c3.7-3.4,7-7.6,11.3-9.9
		c13.3-7.3,26.9-14.1,40.5-20.8c6-2.9,11.6,1,17.2,2.4c0.5,0.1,0.7,1.3,1,2c6.6,18.7,13.1,37.4,19.7,56.1c2.1,6,5.7,11.7,6.4,17.8
		c0.6,4.5-1.3,10.1-3.9,14c-11.5,17.4-17.3,37.1-23.7,56.6c-1.3,4,1.3,9.2,1.6,13.9c0.3,4.5,0.1,9.1-0.4,13.6
		c-0.1,1.1-2.2,2.5-3.6,2.9c-7.6,1.8-14.5,4.5-18.2,12.2c-0.7,1.5-1.5,3.2-2.7,4c-5.7,3.7-5.3,9.3-5.3,15c0.1,16,0,32,0,48
		C1652,1099.8,1652,1101.5,1652,1104z"/>
	<path onclick="modals(this.id);" id="1077" class="st0" d="M923.1,493.7c9.4,13.8,18.5,27.4,27.8,40.9c14.2,20.6,28.4,41.1,42.8,61.5
		c1.2,1.7,3.4,3.6,5.2,3.7c9.9,0.3,17,6,24.2,11.7c3.8,3,5.7,5.7,4.6,11c-0.7,3.4,1.7,7.5,2.7,11.3c2.9,10.7,5.7,21.3,8.7,32
		c1.2,4.4,2.5,8.8,4.4,12.9c1.7,3.6,1.1,6.4-0.9,9.4c-3.4,5.2-7.4,10.1-6.7,17c0.1,0.8-1.3,2.2-2.2,2.7c-7.9,3.5-15.8,7.5-24.8,2.9
		c0.1,0.6,0.3,1.2,0.4,1.8c-2.6,0.9-5.1,1.9-7.7,2.5c-6.7,1.5-13.4,2.9-20.1,4.3c-0.9,0.2-2.1,0.9-2.8,0.6
		c-9.5-4-20.2-5.2-27.9-13.3c-6.9-7.2-16.5-5.1-22,2.9c-8.2,11.9-10.6,25.8-14.6,39.1c-4.8,15.7-9.2,31.5-16.1,46.5
		c-1.6,3.5-9.1,5.3-12.3,3.4c-5.4-3.3-10.8-6.6-16.5-9.2c-6.5-2.9-10-8.7-10.4-15.5c-0.3-4.9-2.4-9.9-4.4-14.5
		c-2.8-6.3-6.1-12.3-9.6-18.2c-2.6-4.5-4.7-9-2.8-14.2c1.6-4.2-0.1-7.6-1.8-11.1c-1.6-3.2-2.5-6.9-4.5-9.7c-2.3-3.3-5.3-6.1-8.3-8.8
		c-2.6-2.4-5.9-4.2-8.4-6.7c-3.3-3.3-6.6-2.4-10.5-1.7c-6.7,1.2-11.2,5.6-16.3,9.4c-3.4,2.6-7,4.9-10.6,6.9
		c-4.6,2.6-11.7,0-13.6-4.9c-9.1-23.2-18.1-46.4-27-69.6c-3.9-10-7.7-20-11.9-30.9c9.5,0.5,18.4,0.9,27.2,1.4c0.8,0,1.7,0,2.5,0.1
		c16.3,0.3,32.5,0.6,48.8,1c20.7,0.6,41.4,1.3,62.1,2c1.9,0.1,4.1,0.3,5.7,1.2c6.3,3.6,12.7,4.5,19.9,2.8c8.7-2.1,17.6-3.1,26.3-5.2
		c6.5-1.6,7-3.7,5.6-10.5c-2-10.2-3.7-20.5-5.1-30.9c-1.1-8.2-6.1-14.3-10.7-20.5c-2.6-3.6-5.9-6.6-8.9-10c-2.8-3.2-2.6-6,0.3-9.4
		c5.6-6.4,10.8-13.2,16-19.9C920.5,499.4,921.5,496.7,923.1,493.7z"/>
	<path onclick="modals(this.id);" id="1075" class="st0" d="M1233.8,648.2c0.5-4.6,0.8-8.2,1.2-11.8c0.4-3.6-1.3-4.9-4.7-4.5c-3.2,0.4-6.6,0.4-9.7,1.1
		c-3,0.6-5-0.2-6.5-2.7c-5.4-9.2-10.9-18.4-16.2-27.8c-2.7-4.8-6.3-6-11.3-3.9c-3.6,1.5-7.4,2.3-11.2,3.3c-1.2,0.4-2.8,0.3-3.7,1.1
		c-6.5,5.7-12.9,2-19.3,0.1c-6.1-1.8-12.2-3.5-18.3-5.2c-6.6-1.8-14.1-11.6-15.3-18.4c-0.6-3.3-3.4-6.1-5-9.2
		c-0.7-1.3-1.2-3.3-0.7-4.6c2.7-7.1,5.8-14.1,8.6-21.2c1.8-4.6,8.1-7.2,12.6-5.5c5.2,2,9.4,4.7,11.7,10.1c0.9,2.1,2.1,2.6,4.3,0.3
		c6.3-6.6,4.1-13.8,1-20.2c-3.8-7.8-5.1-15.2-3.6-23.7c1.4-7.5-1.9-14.5-5.7-20.9c-7.3-12-13.6-23.9-15.6-38.5
		c-1.7-12.7-7.4-24.9-11-37.4c-1.9-6.3-3.3-12.8-5.1-20.1c15.8,4.3,30.5,8.2,45.1,12.3c24.7,6.9,49.6,13.6,74.2,21
		c26.5,7.9,52.8,16.5,79.1,25c2.4,0.8,4.7,2.2,6.6,3.9c4.4,4,8.5,8.5,12.8,12.6c6.1,5.8,7.7,12.4,7.3,21.1
		c-0.7,15.6-5.7,29.7-11.7,43.7c-1.2,2.9-3.4,5.7-5.7,7.9c-10.3,10.3-10.3,22.9-7.8,35.8c0.7,3.9,3.6,7.3,4.7,11.1
		c0.9,3.1,1,6.5,1,9.8c-0.1,5.6-0.5,11.2-1,16.8c-0.1,1.7-0.7,3.4-1.4,6.1c-7.8-4.9-15.6-8.6-21.8-14.1c-4.1-3.6-7.5-3.5-11.9-2.8
		c-3.2,0.5-6.5,1-9.8,0.9c-3.9-0.1-4.4,2-4.1,5.1c0.7,6.5,1.3,13.1,2,19.6c0.5,4.2,1.1,8.4,1.6,12.7c0.7,5.6,1.1,11.2-3.8,15.4
		c-0.8,0.7-2.4,1.5-2.9,1.2c-3.5-2.4-7.7-4.5-10.1-7.8c-4.1-5.6-5-6.2-10.9-2.4C1239.6,645,1237.1,646.3,1233.8,648.2z"/>
	<path onclick="modals(this.id);" id="1076" class="st0" d="M1008.8,597.9c16.4,1.2,31.5-4.1,46.8-8.1c2.7-0.7,6.2-3.3,7-5.8c1.1-3.4-2.4-5.6-5.6-7
		c-1.9-0.9-3.8-1.9-6.1-3.1c11-14.8,21.8-29.2,32.5-43.7c10.7-14.7,16.8-31.7,21.3-49c1.9-7.3-0.1-15.3-3.4-22.5
		c-0.7-1.6-1-3.4-1.3-5.2c-1.2-7.1-2.5-14.1-3.4-21.2c-0.8-6-1.8-12.1-1.5-18.2c0.5-10.9-1.6-20.8-7.6-30c-0.3-0.4-0.4-0.9-1-2.5
		c5.3,1.6,9.7,3.4,14.3,4.3c4.7,0.9,6.5,2.7,7.7,7.8c3.4,14.7,8.4,29,12.4,43.6c2.2,8,2.9,16.4,5.5,24.2c1.9,5.9,5.6,11.3,8.5,16.9
		c3,5.9,6.7,11.6,8.5,17.9c1.5,5.3,0.1,11.3,0.7,16.9c0.5,4.7,1.8,9.3,3,13.9c1.2,4.7,2.9,9.3,3.8,14c0.3,1.7-1,3.8-1.2,4.5
		c-5.1-3.4-9.6-6.8-14.5-9.6c-5.1-2.9-14,1.2-16.2,6.9c-2.9,7.4-6.1,14.7-8.8,22.2c-0.6,1.7-0.1,4.4,0.9,6.1
		c2.2,3.9,3.9,7.9,5.6,12.1c2.9,7.4,8,14.8,16.6,17.5c9.8,3.1,19.7,5.7,29.6,8.3c1.5,0.4,3.4,0.1,4.9-0.4c7.4-2.8,14.6-6,22.1-8.5
		c1.2-0.4,4,1.6,4.9,3.1c5.7,9.3,11.1,18.7,16.6,28.1c0.3,0.5,0.6,1.1,0.9,1.9c-8.9,9.9-17.9,19.6-26.5,29.6c-1.7,2-2.3,4.9-3.6,7.8
		c-2.5,0-5.7-0.1-8.8,0c-5.7,0.2-10,4.2-7.7,9.4c2.2,5.1-0.1,9.4-3.6,13.2c-0.8,0.9-1.8,2.1-1.9,3.2c-1.8,15.5-2.5,31.2-5.4,46.5
		c-1.8,9.8-1.3,19.4-1.6,29.1c-0.2,7-6.4,8.3-10.4,11.7c-0.5,0.4-1.1,0.7-2.8,1.8c-4.7-8.2-9.3-16.2-13.9-24.2
		c-0.8-1.4-1.5-3.2-2.8-4c-8.8-5.1-17.2-11.4-26.6-14.4c-12.3-3.9-25.6-4.8-38.3-7.5c-7.7-1.7-15.5-3.9-22.8-6.9
		c-8.6-3.5-16.7-8.2-24.8-13.3c8,2,14.8-1.4,21.7-3.8c4.1-1.4,7.3-3.5,7.1-9.2c-0.1-3.6,2.6-7.5,4.6-11c2.9-4.8,4.3-9.1,2.3-15
		c-3.7-10.9-6.2-22.2-9.2-33.3c-1.3-4.8-3.2-9.6-4.4-14.4c-0.8-3.1-1.6-6.5-1.4-9.6c0.3-4.3-1.5-6.9-4.7-9.2
		C1020.8,606.2,1015.1,602.2,1008.8,597.9z"/>
	<path onclick="modals(this.id);" id="1080" class="st0" d="M1329.6,1121.7c-7.8-12.4-15.6-24.4-22.9-36.6c-3.4-5.7-6.7-11.7-8.6-18
		c-0.7-2.4,1.8-7.8,4.1-8.7c8-3.3,16.8-4.9,25-8c6.8-2.5,12.9-6.6,19.6-9.4c12.3-5.2,12.5-19.2,10.1-28.7c-0.4-1.4-3.1-2.7-5-3.1
		c-7-1.6-14.1-2.6-21.1-4.2c-1.4-0.3-3.4-2.2-3.5-3.6c-0.5-3.9-1.2-8.3,0.1-11.9c1.6-4.5-0.5-7.2-2.6-10.2c-6.4-9-6.2-13.2,0.3-21.8
		c4.4-5.8,5.8-12.5,4.5-19.8c-1.3-7,3.2-12.3,6.5-17.8c0.3-0.5,2.4-0.4,3.4,0c14.9,6.5,29.8,13.1,44.7,19.7
		c23.8,10.6,47.7,21.1,71.5,31.7c4.2,1.9,8.2,4,12.5,5.7c6.7,2.6,7.3,9.3,8.4,14.5c3.1,14.6,2.2,29.5-1.5,44
		c-1.2,4.6-4.3,8.7-6,13.2c-0.6,1.5-0.2,4.4,0.8,5.4c5.5,5,12.6,8.5,15.3,16.2c0.2,0.5,1,0.8,1.6,1c6.1,1.9,8.6,7,10.2,10.7
		c-5.1,7.4-9.5,14.1-14.3,20.6c-3.5,4.7-8.1,7.8-13.7,10.1c-11.5,4.7-22.3,11.4-35.3,10.3c-12.9-1.1-25.8-2.2-38.7-4
		c-10.1-1.4-20.1-4.2-30.2-5.8c-10.1-1.6-19.4,1.8-28.7,5.3C1333.6,1119.4,1331.2,1120.9,1329.6,1121.7z"/>
	<path onclick="modals(this.id);" id="1074" class="st0" d="M1232.1,635c-0.4,4.4-0.9,8.1-1,11.8c-0.1,3.8,1.8,4.9,5.2,3.1c2.8-1.4,5.4-3,8.1-4.7
		c2.5-1.6,4.8-1.2,5.4,1.5c1.6,6.5,7.7,7.5,12.2,10c2.8,1.5,9.5-3.6,9.8-7.7c0.5-5.6,0.4-11.4,0.1-17c-0.4-8-1.3-16.1-1.9-24.1
		c-0.1-1.4-0.5-2.9-0.7-4.2c5.4-0.8,10.9-2.5,16.2-2.2c2.8,0.2,5.4,3.9,8.2,5.7c6.3,4,12.8,7.9,19.2,11.7c0.6,0.4,1.6,0,3.3,0
		c0.6-4.7,1.2-9.3,1.7-14c0.4-4.3,0.1-8.7,1.2-12.7c1.6-5.8-0.8-10.8-3.1-15.3c-5-9.8-6-19.7-1.6-29.6c1.8-4.1,5.7-7.2,7.8-11.2
		c4-7.8,7.4-15.9,11.1-23.9c3.7-7.9,3.6-16.5,4.7-24.9c0.8-6.3,1.1-12.1-1.7-18.2c-1-2.1,1.7-5.8,2.4-7.7
		c10.1,9,20.2,18.1,30.2,27.2c7.7,7,14.9,14.7,23.2,20.8c7,5.2,8.9,11.2,7.7,19.1c-0.5,3.2-1.6,6.3-1.9,9.5c-0.4,3.8-1.4,8.2,0,11.4
		c6.2,14.9,13.3,29.4,19.7,44.2c2.6,5.9,4.3,12.3,6.2,18.5c0.5,1.5,0.1,3.2,0.1,5.3c-8.2-2.5-14.1-6.2-16-14
		c-0.7-2.8-2.2-3.7-4.9-3.4c-5.9,0.7-11.7,1.3-17.6,2.1c-1,0.1-2.3,1.4-2.6,2.4c-3.1,10.3-7.6,20.4-8.4,30.9
		c-0.7,8.6,2.4,17.8,5.1,26.3c4.4,13.8,2.8,27.1-5.1,38.4c-4.6,6.6-12.3,12.4-19.8,15.3c-7.7,3-16.7,0.8-23.7-5
		c-6.4-5.3-13.7-7.1-22-6.6c-9.8,0.5-19.7-0.1-29.5,0.2c-13.4,0.4-26.8,2.2-40.1,1.6c-9.7-0.4-19.6-2.9-27.1-10.6
		c-1.9-2-5-2.8-7.5-4.1c-5.3-2.9-10.7-5.6-15.9-8.6c-0.8-0.5-1.6-1.7-1.7-2.7c-0.7-4.9-3.2-9.7,1.1-14.4c8-9,15.6-18.2,23.5-27.3
		c0.6-0.7,1.5-1.6,2.3-1.7C1219.8,635.6,1225.5,635.4,1232.1,635z"/>
	<path onclick="modals(this.id);" id="1069" class="st0" d="M1677.9,837.7c-0.2-0.1-1-0.3-1.8-0.6c-9.1-4.3-16.7-0.2-24.4,4.1c-6.4,3.6-12.7,7.5-19.3,10.7
		c-9.2,4.4-17.1,10.4-24.4,17.6c-6.9,6.8-14.4,13.1-21.6,19.7c-3.6,3.4-3.2,4.2,1.1,6.8c4.5,2.8,8.7,6.1,13.5,9.5
		c-6.6,7-14.7,8.3-22.1,10.8c-1,0.3-3.3-2.2-4.6-3.8c-5.1-6.2-10.5-7.8-16.8-5.4c-1.5-4.9-2.9-9.8-4.4-14.6
		c-1.8-5.9-5.5-10.5-11.1-13c-4.9-2.2-8.6-5.6-12-9.8c-5.7-7.2-12.2-13.8-18.3-20.6c-1.9-2.1-3.6-4.2-5.7-6.6
		c8.3-7.6,16.5-15,24.8-22.6c17.8,15.5,33.9,32.7,54.9,44.9c3.3-7.4,6.3-14.2,9.4-21c3.2-7,6-14.3,10.1-20.7
		c4.9-7.5,3.4-15,2.4-22.7c-0.5-3.9-2.1-8-1.3-11.6c0.9-4.2,3.4-8.3,5.9-12c7-10.4,14.3-20.7,21.5-31c7.7-11.1,15.4-22.2,23.8-34.3
		c1.4,7.9,2.3,14.7,4,21.4c2.6,10.2,6,20.2,8.5,30.4c1.8,7.6,3.2,15.3,3.9,23.1c1.3,13.3,2,26.6,3,39.9
		C1677.2,829.9,1677.6,833.7,1677.9,837.7z"/>
</g>
</svg>
