<?xml version="1.0" encoding="utf-8"?>
<!-- Generator: Adobe Illustrator 19.0.0, SVG Export Plug-In . SVG Version: 6.00 Build 0)  -->
<svg version="1.1" id="Layer1" xmlns="http://www.w3.org/2000/svg" xmlns:xlink="http://www.w3.org/1999/xlink" x="0px" y="0px"
	 viewBox="0 0 8000 4100" style="enable-background:new 0 0 8000 4100;overflow: hidden; display: inline; width: inherit; min-width: inherit; max-width: inherit; height: inherit; min-height: inherit; max-height: inherit;" xml:space="preserve">
<style type="text/css">
	.st0{fill:#8FD4EB;stroke:#000000;stroke-width:3;}
</style>
<g>
	
	<path onclick="modals(this.id);" id="1139" class="st0" d="M3859.9,926.1c-9.4-3.1-18.5-6.1-28.5-9.4c6.7-6,6.3-13.2,5.5-20.3c-0.2-1.8-1.2-4.6-2.6-5.1
		c-5.9-2.3-12.3-6-18.1-5.3c-6.1,0.7-9.6-1.3-13-5c-4.8-5.3-9.8-9.7-17.3-10.7c-2.3-0.3-4.9-2.2-6.5-4.2
		c-6.5-7.7-14.9-11.8-24.4-14.6c-5.3-1.5-10.8-4.1-15-7.6c-6.8-5.7-13.1-12-11.6-22.6c0.7-4.7-0.4-10-1.8-14.7
		c-1.9-6.1-2-11.7,1-17.4c5.8-10.9,5.2-22.1-0.8-32.4c-7.2-12.4-8.6-26.4-13-39.6c-1.2-3.5,0.6-8.5,2.3-12.3
		c3-6.6,7.1-12.8,10.6-19.2c1.6-2.9,4.4-6.2,3.9-8.7c-0.9-4.3-3-9.4-6.3-11.9c-4.5-3.5-5.5-7.3-5.1-12.1c0.6-6.7-0.9-12.5-5.8-17.3
		c-4.2-4.1-4.5-9.5-4.8-14.8c-0.7-12.3-0.8-24.6-2.3-36.8c-0.6-4.9-3.8-9.7-6.6-14c-3.5-5.2-8.1-9.6-9.1-16.4c-0.2-1.8-1.8-3.5-3-5
		c-4.7-5.9-7.2-12.6-8.4-19.9c-2.4-15.2-8.8-18.8-20.1-18.6c-5.2,0.1-10-1.1-11.1-7.5c-0.2-0.9-0.8-1.9-1.4-2.6
		c-12.1-11.8-18.1-27.8-27.5-41.4c-4.5-6.5-9.6-11.4-18.2-12.3c-5.8-0.6-11.1-2.9-15.4-8c-2.6-3.2-7.8-4.9-12.1-5.9
		c-8.3-1.9-15.4-5.7-21.7-9.8c3.5-5.4,6.4-10.6,10.1-15.1c4.8-5.9,9.4-12.7,15.6-16.6c9.8-6.2,13.5-14.7,14.1-26.6
		c5.2,3.4,9.4,6.7,14.1,9c3,1.5,7.1,2.6,10.2,1.8c12.1-3.3,24.2-7.2,36-11.4c4.8-1.7,9.1-2.8,14.4-1.7c10.6,2,20.5,4.9,28.6,12.7
		c5.8,5.6,8.9,5.3,14.6,0.2c7.5-6.7,8.4-7,17.2-2.5c5.5,2.8,10.8,4.5,17.1,2.5c7.6-2.4,13-6.4,14.2-14.8c0.4-2.9,1.4-5.7,2.5-9.6
		c4.1,1.6,7.7,3,11.2,4.6c19.1,8.3,36.5,2.8,53-7.2c4.2-2.6,6.8-8,9.6-12.5c3.6-5.6,7.7-8.9,14.9-9.5c7.3-0.6,15.5,0.4,21.7-5.5
		c0.6-0.5,2-0.7,2.8-0.5c7.6,2.7,11.7-2,15.9-7.1c2.5-3,6-5.4,8.2-8.6c2.3-3.4,4.1-7.4,5.4-11.4c1.5-4.8,3-8.9,9.1-8.7
		c1.3,0,2.8-0.3,3.8-1.1c9.3-7.9,20.1-4.3,30.3-3.7c9.6,0.5,19.1,1.9,28.7,2.8c2,0.2,4.7,0.7,5.9-0.3c6.3-5.5,12.7-1.5,18.8-0.5
		c10.4,1.8,20.6,5.2,31.4,3.4c2.6-0.4,6.3-0.4,7.4-2c4.1-5.9,9.8-4.6,15.3-4.5c8,0.1,16,0.4,24,0.6c6.1,0.2,12.8-1.7,17,5.1
		c11.1,2.6,21.2,9.4,33.6,7.2c4.7-0.8,9.9,0.7,14.7,1.7c13.1,2.5,16.2,0.9,21.3-11.8c6.1-1.5,12.1-1.6,17.7,2.7
		c8.9,6.8,19.5,7.6,30.1,8.5c10.6,1,21.1,2.4,31.5,4c8.5,1.4,16.8,3.4,26.5,5.4c0.5,0.8,1.8,2.7,2.6,4.8c2.3,6.1,6.9,9.8,12.8,11.7
		c11.7,3.9,21.3,10.3,28.2,20.8c3.5,5.2,8,9.8,12,14.7c2.9,3.5,6.9,6.6,3.8,12.2c-0.6,1,0.5,3.3,1.3,4.6c4.6,6.9,8.8,14.3,14.4,20.3
		c4.1,4.4,9.8,7.9,15.4,10.4c11.9,5.2,24.2,9.4,36.4,13.9c5.3,1.9,10.8,3.2,17.1,5.1c2.1,4.9,4.7,10.7,7.1,16.5
		c3.3,8,7.5,15.3,13.4,22c6,6.8,12.8,8.8,21.1,8.5c5.3-0.2,10.6,0,16.1,0c0.1,12.9-2.5,24.6-8.1,35.7c-2.9,5.6-5,11.6-7.5,17.4
		c-4.4,10.2-1.1,18.3,9.5,20.1c10.2,1.7,18.9,5.3,26.3,12.5c0.9,0.9,2.2,1.8,3.4,2c14.9,2.6,22.4,14.9,31.2,24.7
		c7.7,8.7,15.6,8.6,24.9,5.5c8.6-2.9,10.1-2.5,16,4.8c2.3,2.8,4.7,5.6,6.7,8.7c5,8,11.2,13.8,21.2,14.7c1.9,0.2,3.7,1.5,5.4,2.4
		c5.6,2.8,11,6,16.7,8.5c4.8,2,8.8,4.3,10.9,9.5c1.1,2.7,3.1,5.1,5.1,8.1c-4.3,7.7-2.7,15.7,0.2,24c4.2,2,9.4,2.9,13-0.1
		c5.6-4.7,11.1-2.6,17.4-2.8c0.6,3.1,1,5.6,1.7,8.1c2.2,7.7,4.8,10.5,12.6,9.9c5.8-0.5,8.4,2.1,10.9,6.4c2.2,3.7,4.7,7.3,7.8,10.3
		c9.9,9.9,5.2,20.1-4.3,26.7c-3,2.1-6.6,3.1-10,4.6c-4.2,1.9-8.6,3.5-12.7,5.8c-12.5,6.9-22.7,15.2-19.7,31.8
		c0.9,5.2,1.4,10.5,1.4,15.7c0,2.8-1,5.7-2.1,8.3c-2,4.5-4.6,8.7-7.2,13.7c4.2,3.1,7.9,5.9,13.4,10c-23.1,1.2-33.6,15.3-43.1,31.7
		c5.6,7.2,10.9,14.4,16.7,21.2c7.8,9.2,11.5,19.1,8.2,31.3c-1.7,6-2,12.4-2.8,18.7c-1,7.4,0.8,13.1,7.9,17.6
		c8.4,5.3,15.7,12,25.7,14.6c2.3,0.6,5.6,3.9,5.7,6.1c0.6,11.1,7.4,19.2,13.1,27.6c4.4,6.6,5.7,12.2,1.5,19.1
		c-1.7,2.8-2.5,6.2-3.1,9.4c-1.4,6.9,0.7,10.1,6.8,13.5c4.9,2.7,9.5,6,14,9.3c7.4,5.2,7.7,12.4,5.9,20.5c-1,4.5-1.5,9.2-1.7,13.8
		c-0.1,4.9,3.2,7.9,7.3,9.8c4,1.8,6.9-0.4,9.8-2.9c9.6-8.4,11.6-8.2,19.2,2.1c1.6,2.1,3.2,4.3,4.6,6.5c4.6,7.3,10.5,11.9,19.8,9.2
		c0.9-0.3,1.9,0,3.5,0c0,1.7,0.3,3.4-0.1,4.8c-0.4,1.5-1.5,2.8-2.5,4.6c-9.5-5.1-18.6-5.7-27.1,1.4c-13.2,11.1-16,24.5-8,40.4
		c-8.9,1.4-16.4,2.5-24.6,1.6c-6.5-0.7-13.6,2.1-20.1,4.2c-3.9,1.3-7.1,2.3-11.3,0.7c-9.9-3.8-19.7-3.1-27.8,4.5
		c-3.7,3.5-6.6,3.2-11.4,2c-12.4-3-24,0.7-33,9.5c-3.6,3.5-6.5,4.7-11.2,3.6c-9.3-2.2-10.3-1.2-10.4,8.4c-0.3,21.3-0.7,42.6-0.5,64
		c0,6.4-1.6,11-7.3,14c-17,9.1-33.9,18.4-51,27.4c-2.6,1.3-5.7,1.5-8.6,2.4c-2.8,0.9-6.2,1.3-8.2,3.1c-8.8,8.2-19.2,7.1-29.7,6
		c-5.9-0.6-11.8-1.5-18.6-2.3c-0.9,7.3-1.7,14.3-2.3,20.2c-13.8,9.4-26.6,18.2-39.1,26.8c-5.5-2.3-8.8-8.1-14.4-5
		c-4,2.2-7.5,5.2-11.3,7.9c-2.1,1.5-4.2,3-6.3,4.5c-2.7,1.9-6.5,3.1-8,5.7c-3.7,6.5-8.8,6.5-15.2,6.1c-7.2-0.4-14.5,0.6-22.8,1
		c-2.1,5.7-4.3,11.7-6.7,18.5c-2.7-1.7-4.4-3.1-6.5-3.9c-1.8-0.7-4.6-1.5-5.6-0.7c-6.5,5.3-15.6,7.9-18.2,17.5
		c-1.3,4.8-3.3,9.4-5.5,13.9c-1.1,2.2-3.2,4.8-5.3,5.2c-1.4,0.3-3.8-2.7-5.1-4.7c-3.9-5.9-7.6-11-15.9-11.8
		c-6.5-0.7-12.9-4.9-15.6-11.2c-4.4-10.4-13.5-15.8-22.2-20.7c-7.4-4.2-14.1-8.5-19.2-15.9c-13.3,6.5-26.4,9.5-39-1.8
		c-2.1,1.4-3.9,3.3-5.9,3.8c-3,0.8-6.8,1.7-9.2,0.5c-4.5-2.2-8.5-2.2-12.1,0.8c-4.1,3.4-7.4,3-11.6,0.1c-4.8-3.4-9.7-7-16.2-7
		c-1.7,0-3.9-2.4-4.9-4.2c-1.6-2.9-2.4-6.2-3.4-9.4c-1.7-5.5-5-9.6-10.9-10.4c-5.4-0.8-8.4,3.5-11.3,6.9c-2.5,3-4.2,6.5-6.6,10.3
		c-3.5-1.9-6.2-3.4-9.8-5.4c-2,2.9-4.2,5.3-5.5,8.2c-3,6.5-8.5,9.3-14.6,7.8c-9-2.2-14.3,3.3-16.7,9.1c-3.5,8.3-9.6,12.4-16.6,16.2
		c-7,3.9-14,7.5-21,11.3c-6.1,3.3-17.7,2.2-22.1-2.6c-3.2-3.5-5.5-7.7-2.6-12.7c5.8-10,4.3-18.3-4.3-26.5c-6.2-6-8.1-14.2-4-23.1
		c0.8-0.4,2.1-1.5,3.2-1.4c9,1.5,18.1-1.4,27.3,1.3c6.7,1.9,14.2,0.9,22,1.2c1.6-12.4,3-23.5,4.5-34.6c3.2-25,6.6-50,9.6-75.1
		c0.5-4.2,1.2-7.6,5-10.1c1.8-1.2,3.8-3.3,4.2-5.4c0.8-4.1,3.5-5.8,6.6-7.9c2.2-1.5,4.2-4.3,5.1-6.9c3.1-8.8,5.5-17.7,8.5-26.5
		c0.9-2.7,2.2-6.5,4.4-7.5c6.9-2.9,9.4-9,12.7-14.7c1.7-2.9,3.3-6.3,5.9-8c8-5.1,8.2-12.8,8.5-20.8c0.3-7.2,0.3-14.2,6.7-19.8
		c2.6-2.3,3.6-7,1.4-11.2c-1.5-2.9-2.2-6.3-3.8-9.2c-1.6-2.8-3.4-6.2-6-7.5c-1.9-0.9-5.4,0.8-8,1.8c-9.9,3.5-19.2,0.8-28.4-2.5
		c-4.1-1.5-4.1-5.6-3.5-9.4c1.8-11.6,0.7-13.7-10.1-17.7c-11.8-4.3-23.9-7.9-36.5-8.7c-2.5-0.2-6,1.1-7.7,2.9
		c-15.2,16.9-20.2,12.3-32.5,0.8c-5.9-5.5-13.7-9.5-21.3-12.6c-10.9-4.6-17.6-11.8-21.6-23.1c-4.6-13-7.3-27.2-16.5-38.1
		c-8.8-10.4-18.5-19.9-27.9-29.7c-2.9-3.1-6.2-1.9-9.1-0.2C3868.2,920.6,3864.1,923.4,3859.9,926.1z"/>
	<path onclick="modals(this.id);" id="1140" class="st0" d="M5153,1413.3c0,19.9,0,40.9,0,62.7c11.6-1.7,18.2,3.9,24.7,11.9c9.8,12.1,22.2,22.1,31.5,34.5
		c10.4,13.9,23.1,24.3,37.3,33.8c4.8,3.2,8.2,8.5,11.9,13.2c6.2,7.8,12,15.7,18.1,23.6c0.2,0.3,0.4,0.6,0.6,0.8
		c2.8,1.7,6.4,2.8,8.4,5.2c2.2,2.7,3.1,6.5,4.2,9.9c1.1,3.1,1.7,6.4,2.7,9.8c-3,3.5-5.9,6.9-10,11.7c15.4,6.3,29.7,12.1,44.6,18.1
		c-1.9,8.5,2.3,14.1,8.4,19.5c5.6,5.1,10.3,11.2,15,17.2c2,2.5,3.9,6,3.9,9c-0.1,8,2.5,14.9,6.7,21.5c1,1.6,1.2,3.7,1.9,6.1
		c-5.4,1.8-9.6-0.5-12.9-3.4c-7.9-7-16.7-6.7-26.1-4.5c-6.1,1.4-12.4,1.9-18.6,3c-2.7,0.5-5.3,1.7-8.3,2.7c0.7,2.3,0.8,3.7,1.5,4.8
		c3.8,5.6,1.2,9.6-2.5,14.1c-3.7,4.5-6.1,10-9.2,15.1c-2.7,4.5-4.9,9.5-8.3,13.3c-7.6,8.3-12.8,18.2-16,28.5
		c-3,9.7-2.1,20.2,4.6,29.3c1.8,2.4,2.8,5.5,4.5,9c-9.6,2.3-17.1,6.3-26.4,4.3c-5.6-1.2-12-0.2-17.7,1.2c-3.8,0.9-6.9,4.3-9.9,8.2
		c-43.7-5.4-87.5-10.8-132.1-16.3c0,7.4,0,14.2,0,21.3c-6.9,0-13.5,1-19.7-0.3c-4.5-0.9-9.2-4.1-12.3-7.6
		c-5.6-6.1-10.7-12.4-17.9-17c-4.1-2.6-6.4-8.3-8.9-12.9c-4.9-9-12.8-10.7-21.3-5c-4,2.7-9.1,3.7-13.9,5.6c-2.9-2-6.2-3.8-8.9-6.1
		c-3.7-3.3-7.5-4.8-12.7-4.1c-3.1,0.5-6.5-0.7-9.8-1.4c-8.2-1.7-10.6-0.7-15.1,6.1c-1.1,1.7-2,3.4-3.1,5.1
		c-8.1,13.1-9,18.1-5.7,33.6c-2.4-0.3-4.4-0.6-6.5-0.8c-8.9-0.9-16,2.1-21.6,9.3c-1.9,2.4-4.9,4.6-7.8,5.3c-4.8,1.2-7.4,4-8.9,8.4
		c-2.5,7.5-5,14.9-8,23.7c-51.3-1.5-104-3-155.1-4.5c-4.7-6.2-8.1-11.1-11.8-15.7c-4.6-5.8-10.9-8.3-18.2-9.3
		c-12.5-1.7-23.8-5.7-31.5-16.6c-1-1.5-3.2-2.2-5-3.2c-18.8-10.7-37.6-21.4-56.4-32.2c-2.3-1.3-4.3-3-7.1-4.9
		c8.3-14,16.3-27.8,24.5-41.4c2.5-4.2,5.9-5.4,11-3.6c3.1,1.1,7.4,1.5,10.3,0.2c8.1-3.6,16.4-3.4,25.2-3.6c2.2-3.5,3.3-8,0.6-11
		c-6.9-7.5-7.4-16.7-8.4-27.1c14.5-2.8,29.4-5.6,44.9-8.6c-0.5-7.7,2.2-13.9,6.9-19.9c2.7-3.5,2.7-9.2,4-13.8c1.5-5,3.2-10,5-15.8
		c-4.7-7.7-10.1-16.4-15.2-25.2c-1.8-3.1-2.6-6.7-3.9-10c-2.7-6.8-2.9-14.9-10.9-18.8c-1.6-0.8-2.7-2.8-3.7-4.5
		c-4.4-7.2-8.6-14.4-13.2-22.1c5.7-8.2,4-16.4-1.7-24.8c1.6-1.2,3.4-2.6,5.2-4c5.6-4.6,5.6-9.4-1-12.1c-6.5-2.6-10.9-6.8-14.9-12.1
		c-7.7-10.1-18.8-14.5-30.3-18.9c-9.4-3.6-19.2-7.6-26.3-15.4c-2.5-2.8-4.1-6.7-5.4-10.4c-1.4-4-3.5-6.7-7.2-8.9
		c-10.9-6.6-20.8-14.4-28.2-25c-1-1.5-2.8-3.3-4.3-3.3c-9.8-0.1-13.5-7.6-15.7-14.6c-4.2-13-14-19.7-25-25
		c-13-6.3-17.6-17.3-19.7-30.2c-1.1-6.8-2.3-13.7-3.2-20.5c-0.7-5.2-1-10.5-1.5-16.9c-1.4-0.8-3.5-2.5-5.9-3.3
		c-10.2-3.2-15.2-12.3-22.1-19.1c-2.7-2.6-4.7-6.2-2.5-10.8c1.2-2.5,0.5-5.8,0.6-9.6c2,0.2,4.5,0.4,6.9,0.5c9.6,0.5,19.3,1,28.9,1.2
		c2.1,0,4.9-1,6.2-2.5c4.2-5,9.9-6.3,15.8-7.6c3.2-0.7,6.3-2.1,9.2-3.7c15.3-8.1,30.4-16.5,45.8-24.4c7.3-3.8,10.4-8.8,10.3-17.4
		c-0.2-21.9,0.7-43.9,1.2-65.9c0-1.3,0.3-2.6,0.5-3.7c0.9-0.5,1.5-1.2,1.9-1c8.4,2.9,14.1,0.3,21-5.8c8.1-7.1,18.9-11.3,30.5-5.7
		c1.7,0.8,4.3-0.1,6.4-0.5c0.6-0.1,1.1-0.8,1.5-1.2c8.8-8.5,18.7-10,30.1-5.5c2.6,1,6.7,0.3,9.4-1c6.8-3.4,13.8-4.4,21.3-4.1
		c9,0.3,17.9,0.1,27.9,0.1c-1.9-7.3-3.3-13.4-5.2-19.3c-1.5-4.6-0.7-8.7,1.9-12.3c2.9-4.1,5.7-8.4,9.5-11.4
		c5.3-4.3,11.6-6.6,18.5-2.8c2,1.1,4.2,1.9,6.4,2.8c6.1-4.3,7.2-10,6.5-17.3c-2.8,0.2-5.2-0.1-7.1,0.7c-7.3,2.8-12.1-0.1-16.2-5.8
		c-2.7-3.8-5.5-7.6-8.3-11.2c-6.9-8.8-11.6-9.3-19.5-1.8c-2.9,2.8-6.2,6.8-10,3.3c-2.5-2.2-2.9-6.8-4-10.4c-0.2-0.8,0.5-1.9,0.8-2.8
		c5.4-20.5,3-24-18.5-38.1c-1.7-1.1-3.6-1.8-5.6-2.8c-3.1-6.2-1-12.3,2-17.9c4-7.4,3-13.5-1.8-20.3c-5.6-8.1-11.9-16-12.8-26.6
		c-0.5-5.5-4.9-8.7-10-9.8c-10.6-2.3-17.9-9.9-26.2-15.8c-2.4-1.7-3.3-7.1-3.1-10.7c0.4-8.3,1.2-16.7,3.2-24.7
		c2.7-10.7-1.8-18.8-7.6-26.7c-5.5-7.4-11.4-14.6-17.3-22c10.1-15.2,19.6-30.3,41.9-26.5c0.8-8.6-4.7-12.2-12-15.4
		c2.6-4.8,4.9-9.1,7.4-13.3c2-3.3,1.8-6.2,1-10.2c-1.5-8.4-1.4-17.1-1.3-25.6c0-1.9,2.4-3.8,3.9-5.6c7.6-9,17.5-14.2,28.4-17.8
		c11.3-3.8,18.8-10.8,20.6-23.7c6.9-0.7,13.6-1.5,20.8-2.2c1.3,5.4,2.5,9.5,3.2,13.7c1.2,7.7,4.8,13.2,11.5,17.6
		c6.6,4.4,11.9,10.6,18.4,15.2c8.1,5.8,16.3,11.8,25.3,15.8c7.7,3.5,16.6,5.7,25,5.7c5.1,0,11.2-4.2,15.1-8.2
		c3.8-3.9,6.8-5.4,12-3.7c3.1,1,6.5,0.7,9.8,1.1c7.7,0.9,14,2.4,18.2,10.9c5,10.3,12.2,19.9,24.4,23.6c1.6,0.5,3.4,1,4.4,2.2
		c8.1,9.1,17,17.7,23.7,27.7c4.8,7.3,9.7,14.3,16.4,19.7c4.1,3.4,6.8,6.7,6.3,12.4c-0.6,8.2,3.5,13.7,10.6,17.7
		c6.9,3.8,14.5,7.2,20.1,12.6c10.6,10.3,21.9,19.3,34.6,26.7c1.2,0.7,2.1,2.6,2.5,4.1c1.2,4.9,2.2,9.6,6.4,13.1
		c1.4,1.2,1.4,4.2,1.6,6.5c0.9,11.7,5,22,13.7,30.1c3,2.8,5.5,5.8,5.1,10.3c-0.8,7.7,3.5,13.2,7.9,18.7c2.5,3.1,5.5,5.9,7.4,9.4
		c7.5,14,14.7,28.2,22.6,43.3c-27.4,12.4-54.7,24.8-82.1,37.3c1.8,4.6,2.9,8.6,4.8,12.2c1.4,2.4,3.7,4.5,6,6.2
		c8.6,6.3,10,13.1,4.1,21.7c-1.1,1.6-2.1,3.4-3.1,5.1c-2.5,4-5.6,5.9-10.8,5.1c-6.5-1-11.4,2-12.8,8.1c-1.5,6.3-5.3,12.9,0.5,19.7
		c1.4,1.7-0.2,7.1-1.8,10.1c-1.9,3.7-5.2,6.7-8.5,10.6c4.4,3.7,9.8,4.9,15.3,5.4c11.3,1.1,18.4,6.2,22.8,17.5
		c4.3,11,11.3,21,17.4,31.3c1.1,1.9,3,4,5,4.6c7.2,2.3,9.6,8.5,13.1,14.2c6.7,11.1,14.5,21.5,21.2,32.6c3.2,5.3,5.7,11.2,7.4,17.1
		c4.1,13.9,10.3,26.5,18.1,38.6c11.4,17.8,26.2,32.6,40.5,47.9C5136.3,1403.1,5144.7,1407.3,5153,1413.3z"/>
	<path onclick="modals(this.id);" id="1155" class="st0" d="M5791.8,2248.8c-2.8-1.6-5.5-3.5-8.5-4.8c-3.3-1.4-6.8-2.9-10.3-3.2c-9-0.8-13.3,4.2-10.2,12.9
		c5,14.2-0.2,25.5-8.8,35.8c-8.8,10.6-10.3,17.9-3,29.5c11.1,17.5,8.6,29.6-3.4,45.6c-4,5.3-8,10.7-12.7,15.4
		c-2.9,2.9-6.9,5.1-10.8,6.5c-4.3,1.6-6.7,3.9-7.3,8.4c-0.3,2.6-1.5,5.2-1.4,7.8c0.5,12.7-4.9,22.2-15.4,29
		c-1.1,0.7-2.5,1.7-2.8,2.8c-1.5,6.3-6.5,8.4-11.6,11c-4.9,2.4-5.3,5-2.3,9.8c3.1,4.9,7.2,8.2,13,10.1c13.7,4.3,26.9,9.8,37.6,19.9
		c1,0.9,2.1,1.7,3,2.6c2.7,2.6,2.8,5.5-0.2,7.6c-3.5,2.5-6.9,4.4-8.5,9.2c-0.7,2.1-5.5,3.8-8.5,3.9c-7.8,0.2-11.8,5.2-16,10.4
		c-3.1,3.8-6.4,7.5-10,10.9c-6.6,6.3-10.9,13.3-9.1,22.9c1.4,7.8,2.6,15.7,3.8,23.6c2,13-10.1,20.4-21.4,20.4
		c-4.5,0-9.1,0.3-13.6,0.7c-5.3,0.4-10.6,1.5-15.8,1.2c-7.3-0.4-13.7,1.5-19.9,5.2c-8,4.8-16.2,9.2-24.3,13.8
		c-5.4,3.1-9.2,6.7-9.4,14c-0.1,4-3.4,8.6-6.4,11.8c-4.3,4.6-9.4,8.4-14.6,12c-6,4.1-9.5,9.3-8.6,16.7c1.4,12.1-2.4,22.6-8.9,32.6
		c-1.8,2.7-2.5,6.1-3.4,9.3c-1.6,5.7-2.8,10.9-7.6,15.6c-4.1,4-4.7,10.6-1.6,16.7c2.9,5.6,5.3,11.5,7.8,17.2
		c3.7,8.5,3.2,16.7-1.5,24.8c-3,5.1-5.5,10.5-8.6,16.5c-1.9-1.5-3.9-3-5.9-4.5c-8.4-6.2-17.1-10.4-28-11.5
		c-13.6-1.4-27-2.6-40.6-0.4c-5.7,0.9-9.9-2.7-12.2-7.1c-4.4-8.3-10.2-16.4-9.6-27.2c-14.4-4.4-28.5-9.3-42.9-13
		c-17.6-4.5-33.7-12.2-49-21.7c-4.3-2.7-8.2-4.3-13.7-1.6c-4.1,2-9.5,1.3-13.6,1.7c-3.8-7.4-7.7-13.3-10-19.7
		c-3.1-8.8-9.3-13.1-17.7-13.8c-6.8-0.5-11-3.9-14.5-9c-4.5-6.4-9.4-10.1-17.5-5c-1.7,1.1-5.1,0.1-7.6-0.6
		c-4.8-1.3-9.5-3.1-14.1-4.7c-4.2-1.5-7.7,0.3-9.1,3.8c-0.9,2.2-0.7,6.6,0.9,8c4.5,4.1,3,9.1,3.9,14.1c-2.1,1-4,2.7-5.5,2.4
		c-6.7-1.1-13.3-3.1-20-4.3c-7-1.3-14.1-2-22.9-3.3c0-0.1-1.1-2.1-2.4-3.9c-7.1-9.2-12.5-8.8-18.7,1.5c-5.2-1.5-6.8-6.1-8.2-10.3
		c-1.9-5.5-5.3-9.2-10.2-11.7c-5.4-2.7-8.9-6.7-11.3-12.1c-1.1-2.4-2.6-4.7-4-6.9c-3.6-5.6-8.3-9.6-15.4-9.3
		c-4.5,0.2-7.4-1.9-10.3-4.9c-4.2-4.3-8.7-8.2-13.1-12.2c-6.3-5.8-7-8.8-3.6-16.7c1.2-2.7,2.6-5.4,3.5-8.2c2.7-7.9,0.9-12.6-6.7-16
		c-3.6-1.6-7.8-3.5-11.4-3.1c-8.1,1-16.3-1.1-24.3,2.4c-8.1,3.6-13.5,1.3-17.3-6.6c-2.3-4.7-3.4-10-4.9-15.1
		c-0.6-2.2-0.3-4.7-1.1-6.8c-5.4-14.6-1.4-27.5,9.1-37.4c6.6-6.3,12.9-12.8,19.3-19.1c3.5-3.4,8-6,12.4-8.2c2.3-1.1,6-1.6,8.3-0.6
		c11.1,4.9,19.4,0.3,26.6-7.4c3.1-3.3,5.8-5.7,10.5-6.8c3.6-0.8,7-3.9,9.6-6.7c1.4-1.5,1.4-4.9,0.9-7.2c-1.2-6.1-2.9-12.2-4.8-19.6
		c10.3,0,19.4,0,28.7,0c0.5-2.3,1-3.6,1.1-4.8c0.5-15.6,1.2-31.2,1.4-46.9c0.4-37.6,0.3-75.3,0.8-112.9c0.5-38.3,1.3-76.5,1.9-114.8
		c0.7-42.6,1.2-85.2,2-127.8c0.6-31.2,1.6-62.4,2.5-94.6c4.3,0,8.5,0.4,12.7-0.1c12.3-1.3,21.3-7.2,25.2-19.4
		c1.2-3.8,2.5-7.6,3.4-11.5c1.1-4.7,2.4-8.9,7.1-11.3c3.2-1.6,3.4-4.4,3.2-7.7c-0.5-9.6-4.3-17.9-8.9-26.1c-1.5-2.7-3.1-5.5-5.3-9.5
		c11.6,1.3,21.4,2.3,32,3.5c1.2-8.9,7.3-10,14.5-9.6c5.6,0.3,11.3,0.7,16.9,0.5c2.8-0.1,5.7-1.1,8.4-2c8-2.5,12.4-2.3,15.6,4
		c4.5,8.8,12.6,9.7,19.3,7.9c13.5-3.7,23.8,0.3,33.8,9.5c-0.8,2.1-2.3,4.6-2.8,7.4c-0.8,4.1,1.8,6.8,5.7,5.2c12.5-5,25,0.2,37.5-0.8
		c4.3-0.3,8.6,0.4,13,0.3c8.3-0.2,15.5-3.3,21.8-8.6c5.8-5,10.7-5.6,15.8-0.2c7.2,7.7,15,9.2,25.1,7.3c6.9-1.3,14.4,0.4,21.6,0.6
		c5.2,0.1,10.5,0,17.2,0c-0.6,3.1-0.3,7.1-2.1,9.5c-5.9,7.6-2.3,14.5,0.6,21.6c2.6,6.2,7.5,10.1,13.9,11.6c5,1.2,7.8,4.3,10.5,8.3
		c4.6,6.9,8.1,8.3,16,5.6c5.9-2,11.7-4.6,17.1-7.8c14.5-8.8,28.6-18.1,42.3-26.8c7.3,3.1,13.4,5.7,20.3,8.6c0.3-3.1,0.5-5.2,0.7-7.3
		c8-3.3,15.2-0.8,17.8,7.7c1.6,5.3,4.9,8.3,8.6,11.6c4.9,4.4,9.5,9.2,14.1,14c9.1,9.5,17.3,10.4,23.9-1.2c2.2-3.9,5-6.6,9.3-8.5
		c6.2-2.6,6.1-6.7,1.8-12.3c-2.9-3.8-4.9-8.5-6.4-13.1c-1.2-3.7,2.3-5.2,5.2-6c1.1-0.3,2.6,0.3,3.8,0.8c12.5,4.8,12.5,4.8,20.8-5.8
		c0.4-0.5,1.1-0.8,2.1-1.4c1.9,0.6,4.2,0.9,6.2,1.9c4.3,2.3,8.6,2.2,12.4-0.3c6.4-4.2,12-2.2,17.7,1c2.9,1.6,5.4,4,8.4,5.3
		c3.5,1.5,7.4,2.3,11.1,3c1.5,0.3,3.4-1,4.8-0.6c12.1,4,24.1,8.3,36.7,12.7c7.9-11.8,13.5-26.3,25.4-35c8.6,11,16.5,21.1,24.4,31.3
		c6.7,8.6,5.3,20.3-2.2,27.8c-3.6,3.6-6.4,8.4-8.3,13.2c-2.2,5.5-4.1,11.6-4,17.3c0.1,7.5-2.8,12.7-7.7,17.5
		c-1.4,1.4-2.8,2.9-4.1,4.4c-3.6,4.3-4.5,8.9-1.1,13.7c3.6,5.3,4.8,10.1,1.3,16.5c-3.8,7-0.7,14.4,2.7,21c0.8,1.6,3.6,2.6,5.7,3
		c4.2,0.9,8.5,1.3,13,2c1.8,4,3.6,7.9,5.3,11.8c1.6,3.6,3,7.3,4.9,11.9c-7,5.5-14,11-21,16.4c-21.9,16.8-43.8,33.7-65.9,50.2
		c-5.3,3.9-8,8.3-8.2,14.9c-0.1,6.3-1.3,12.5-1.6,18.8c-0.4,9.9,1.5,18.8,8.2,26.9c3.8,4.6,6,11.1,7.3,17.1c2,9,5.2,16.8,12.3,23.3
		C5796,2235.1,5796.6,2241.6,5791.8,2248.8z"/>
	<path onclick="modals(this.id);" id="1150" class="st0" d="M2871.2,1441.4c3.1,1.2,5.8,2.7,8.7,3.2c4.7,0.9,9.3,0.5,12.4-4.2c4.9-7.5,11.9-11.2,20.9-11.4
		c2.3-0.1,4.6-0.6,6.8-1.3c5.2-1.7,9.3-1.3,13.6,2.9c4.3,4.3,9.7,7.6,16.1,12.4c4.6,1.1,5.8-5.7,9.6-8.2c9.3,7.5,18,14.9,29.3,18.8
		c2.7,0.9,5.7,5.4,5.9,8.4c1.1,15.3,12,22.9,22.5,31c30.5,23.7,60.9,47.4,91.5,71c5.6,4.3,8.1,9.2,7,16.2c-0.5,2.9-0.1,6-0.2,9
		c-0.3,10.7-1.7,12.4-12.1,15.5c0,3.4,0,7,0,10.5c-0.1,7.2-2.6,10.1-9.8,11.3c-3.6,0.6-7.3,1.4-10.9,1.3
		c-10.8-0.3-17.7,5.8-24.3,13.2c-5.5,6.2-11.2,12.4-17.1,18.1c-3.4,3.3-5,6.9-4.5,11.5c0.2,1.6-0.2,3.4,0.1,5
		c1.8,12.4-0.1,24.4-4.2,36c-1.5,4.1-1.1,7.7,0.5,11.5c2.9,7.2,4.1,14.1,1,22c-3.8,9.8-2.3,19,6.3,26.8c6.1,5.5,10.7,12.6,16.5,18.5
		c3.4,3.5,7.2,7.4,11.6,9c5.9,2.1,10,6.6,15.3,8.8c12.2,5.1,21.5,14.6,33.6,19.9c6.1,2.6,10.9,9.5,14.8,15.4c4.3,6.7,6.6,9.1,14,6.8
		c5.3-1.6,10-2.4,15.4-0.4c4.6,1.7,8.1-0.5,9.4-6.2c1.3-5.6,1.3-11.6,1.9-18.5c6-0.9,12.8-2,19.6-3c3.9-0.5,6.8,0.9,6.7,5.2
		c-0.4,10.1,6.7,14.8,13.9,19c4.5,2.7,8.5,4.9,9,10.7c0.1,1.5,1,3.4,2.1,4.4c8,7.7,7.3,18.2,8.7,27.9c1.2,7.7-1.3,10.9-9,10.8
		c-6.9-0.1-11.3,2.5-14.9,7.9c-3.7,5.5-9,8-15.2,10.2c-11,4-22.3,6.5-33.8,7.9c-11.4,1.4-18.3,6.9-19.9,18.5
		c-0.7,5.4-3.9,8.9-8.5,11.5c-11.4,6.4-19,16.5-25.8,27.2c-2.8,4.4-4.2,9-1.7,14.1c2.6,5.2,0.2,10.1-2.4,14.1
		c-1.5,2.3-5.6,4.7-8,4.3c-5.6-1.1-9.7,1.4-14,3.7c-4.8,2.5-7.1,6.3-6.6,12.2c0.6,6.3,0.2,12.7-0.1,19c-0.4,8.6,3.4,15.1,9,21.3
		c3.7,4,7.4,8.8,8.9,13.9c2.9,10.4,9.2,18.3,16.1,26c1.9,2.1,4.7,3.4,7.2,4.9c4.4,2.8,9.4,5.1,10.4,11.1c2,11.9-1,15.7-13.1,16.2
		c-2.6,0.1-5.3-0.3-7.8-1c-12.9-3.9-26-5.6-39.4-4.6c-3.6,0.3-6.7-0.1-8.9-3c-5.3-7.2-13-9.8-21.3-11.8c-9.1-2.2-9.1-2.6-9.4-12.2
		c-0.1-4,0-8,0-12c0-6.5-2.5-10.9-8.6-14.4c-24.7-13.8-48.8-28.6-73.6-42.2c-23.6-13-47.6-25.2-71.6-37.5c-2.6-1.4-6.4-1.7-9.3-1.1
		c-27,5.4-54.1,11-81,16.9c-3.7,0.8-7.3,3.1-10.6,5.2c-3.9,2.6-7.3,5.8-11,8.6c-8.5,6.6-12.7,6.2-20.5-1.7c-2.8-2.8-5.7-5.6-8.9-7.8
		c-6.7-4.6-11.8-4.8-15.2,1.9c-5,10.1-14,14.8-22.4,20.3c-8.7,5.8-12.9,14.1-16.6,23c-2,4.9-3.8,10-4.9,15.2
		c-3,14-11.1,24.7-21.6,33.8c-3.9,3.4-4.4,6.7-2.4,11.4c6.5,15.1,16.8,21.2,33.3,19.1c4.1-0.5,8.1-0.9,13.6-1.5
		c-5.6,7.8-9.7,14.5-14.9,20.3c-2.4,2.7-6.7,4.5-10.4,5c-6.1,0.9-11.4,3.1-16.5,6.6c-5.6,4-11.6,7.5-17.3,11.3
		c-1.4,0.9-3.1,1.9-3.6,3.3c-3.5,9.2-11.4,8.7-19.2,9.4c-5.4-7.3-10.7-14.5-16.2-21.6c-8.2-10.7-19-18.6-30.1-25.9
		c-7.4-4.9-14.1-2.3-15.4,6.3c-0.9,6-0.4,12.7,1.2,18.6c3.8,13.5-5.1,21.8-11.6,31.1c-0.8,1.1-4.1,1.7-5.3,1c-3.4-2-7.7-4.1-9-7.3
		c-5.1-12.8-15.2-11.9-25.6-10.7c-9.4,1-18.3-5.1-18.6-13.6c-0.2-5.6-0.6-11.5,0.8-16.9c3.2-12.1-1.7-20.7-10.3-28.1
		c-4.5-3.9-9.7-5.7-15.7-4.7c-6.9,1.2-13.7,2.3-20.6,3.6c-9.3,1.7-10.7,1.2-15.9-7.4c-2.4-4-4.7-8-7.2-11.9c-3.2-4.9-6.8-6-11.8-2.7
		c-4,2.7-7.4,6.4-11.6,10.2c-1.3-1.6-3.4-2.9-3.4-4.3c-0.1-10.6-5.1-18.2-14.9-24c6.6-4.1,12.2-7.1,19.1-7.4
		c11.2-0.4,14.1-2.8,17.6-13.7c2.7-8.4,5.1-17,7.3-25.6c0.4-1.7-0.5-3.8-0.7-5.8c-0.9-8.7,0.7-16.5,7.5-22.7
		c3.2-2.9,6.1-6.1,9.2-9.2c6-5.9,11.3-11.8,9.3-21.5c-1.5-7.3,2.4-12.7,9.4-15.6c0.3-0.1,0.6-0.3,0.9-0.4
		c19.7-9.7,24.7-18.5,23.5-40.7c-0.3-5.6-0.4-11.3,0.1-16.9c0.5-4.5,2.8-8.1,8.3-8.2c6.9-0.1,10.8-3.8,12.9-10.3c0.8-2.6,3-5,5-6.9
		c6.2-5.8,7.6-10.3,4-17.6c-3-5.9-6.2-11.9-10.2-17.2c-2.1-2.8-6.1-4.1-9.8-6.4c2.7-0.5,5.5-1,8.3-1.5c9-1.7,11.9-4.7,12.9-13.7
		c0.3-2.6,0.3-5.3,0.6-8c1.2-9.8,1.5-19.9,12.4-25.3c3-1.5,4.8-5.4,7.7-8.8c-5.9-6.4-11.4-12.9-17.4-19
		c-12.4-12.6-25.3-24.7-37.3-37.7c-6.2-6.7-10.8-15-15.9-22.7c-0.8-1.2-0.8-3.4-0.3-4.7c4.3-10.5-1.3-20.9-0.4-31.4
		c0.4-4.1-2.1-8.2-5.7-11.1c-3.1-2.5-5.7-5.6-8.6-8.4c-4.1-4-5.1-8.9-4.6-14.6c0.9-8.9,1.3-17.9,1.9-26.8c0.4-6.2-1.6-11.2-7.2-14.2
		c-6.7-3.6-9.5-9.5-11.5-16.6c-2.3-8.2-5.8-16.1-9.2-25.3c4.3-3.5,9.4-7.6,14.5-11.7c15-12.1,29.6-24.6,47.5-32.7
		c4.8-2.2,8.4-7.2,13.3-11.5c1.6,1.6,3.4,3.3,5.1,5.1c13.8,14.8,35.7,13,46.8-4c1.8-2.8,3.6-5.6,5.3-8.5c2.3-3.9,5.2-5.8,10.2-6.5
		c5.6-0.8,11-4.2,16.2-7c1.6-0.9,2.5-3.8,2.9-5.9c1.1-6.3-1.4-11.8-4.6-17c-2.2-3.6-5.1-6.8-8-10.6c0.5-1.3,0.8-3,1.7-4.3
		c8.1-11.6,10.5-24.7,7.9-38c-2.3-12,1.9-21.4,7.9-30.8c1.4-2.2,3.4-4.1,4.8-6.4c4-6.7,2.3-14.2-3.8-19.2c-3.3-2.7-6.4-5.6-10.5-9.1
		c13.7-6.4,17.7-16.8,14.1-30.9c2.5,0,4.6-0.6,6.1,0.1c7.5,3.5,14.6,7.6,22.2,11c2.8,1.2,6.2,1.5,9.3,1.5c3.6-0.1,7.2-1.7,10.8-1.5
		c5.5,0.2,10.3,0.1,14.2-4.8c4.2-5.2,6.8-11,5.6-17.5c-2-10.4-4.3-20.4-15.4-26.4c-5.7-3.1-9.6-9.8-13.6-15.5
		c-5.8-8.4-10.6-17.6-16.4-26.1c-8.2-12.1-8.1-18.5,1.3-29.3c6.1-7,12.1-14.1,18.2-21.2c2.9-3.3,5.9-5.6,11-5.6
		c56.3,0.1,112.6,0,169-0.1c0.6,0,1.3,0.3,3.4,0.8c-1.3,3.3-2.3,6.5-3.9,9.4c-3.5,6-7.5,11.8-11.1,17.8c-4.5,7.5-6.9,15.2-1.6,23.4
		c1.1,1.7,2.3,3.7,2.2,5.5c-0.5,15.6,8,30.2,5,46.3c-1.7,9.3,2,12.9,11.2,15.8c4,1.3,7.8,3.5,11.7,5c1.7,0.7,3.8,1.2,5.5,0.8
		c5.5-1.3,10.4-0.3,15.4,2.3c2.2,1.2,5.1,1.3,7.7,1.5c3.9,0.2,7.8,0.1,13.5,0.1c-5.5,6.9-3.8,12.9-3,19.5c1,7.8-0.4,15.9-0.2,23.9
		c0.1,3.4,1.4,6.8,2.6,10.1c2.6,6.8,1.5,13.3-2,19c-3.5,5.7-3.2,10.6-1.1,16.8c4.2,12.6,7.3,25.5,10.8,38.3
		C2869.8,1435.8,2870.5,1438.7,2871.2,1441.4z"/>
	<path onclick="modals(this.id);" id="1147" class="st0" d="M4003.3,1480.8c-0.2-3.5-0.8-6.6-0.6-9.6c0.2-2.9,1.2-5.8,1.9-8.7c2.6-11.1-1.8-19.9-8.8-28.1
		c-7.3-8.5-7.2-9.3,0.7-16.6c9.6-8.8,10.3-11.7,5.4-24.4c-0.5-1.2-0.8-2.4-1.4-4.6c6.7-3.8,13.2-7.6,19.9-11.2
		c9.3-5,19.1-8.9,23.1-20.5c1.5-4.2,5.9-8,12.8-6.9c8.4,1.4,15.8-1.5,18.9-10.8c0.4-1.2,1.5-2.1,2.2-3.1c9.9,4.6,11.1,4.2,16.7-4.8
		c0.7-1.1,1.4-2.2,2.1-3.4c2-3.3,4.6-5.8,8.9-5.2c4.5,0.7,6.9,3.4,8,7.8c0.9,3.5,1.9,7.2,3.9,10.2c1.7,2.5,4.8,5.6,7.4,5.6
		c6.3,0.1,10.9,3.3,15.2,6.7c4.4,3.5,8.2,3.8,12.5,0.6c3.7-2.7,7.1-4.1,11.7-0.8c6,4.3,10.3-1.4,14.8-4c11.1,8,20.7,8.5,38.1,2.1
		c1.5,1.2,3.1,2.7,4.9,4.1c3.3,2.6,6.5,5.4,10,7.8c6.5,4.6,13.2,8.9,19.7,13.5c1.5,1.1,2.8,2.9,3.6,4.7c4.5,10.4,13,15.8,23.6,17.7
		c4.9,0.8,6.4,4.3,8.7,7.3c2.6,3.3,4.8,6.9,7.4,10.5c5.9-2.5,9.1-5.9,10.7-10.9c0.6-1.9,1.7-3.7,2.1-5.6c2.6-11.3,10.3-18,20.9-22.8
		c2.7,1.8,5.7,3.7,10,6.4c1.9-4.4,4.6-8.3,5.1-12.5c0.8-6,3.5-8,9.1-7.9c5.6,0.1,11.3-0.4,16.9-0.2c6,0.2,10.1-1.8,14.5-6.5
		c6.1-6.5,14.7-10.4,21.5-16.7c2.6-2.4,7.2-3,10.6,1.1c2.5,3.1,6,2.5,9.1,0.7c5.4-3.3,11-6.2,15.8-10.2c7.7-6.3,14.5-10.7,22.2-12.7
		c10.3,7.2,15.6,20.8,29.1,22.5c2.5,15.8,4.5,30.5,7.4,45.1c2.3,11.8,9.8,19.6,20.7,25.2c9.5,4.9,18.5,10.6,22.4,22.1
		c2.7,8,6.5,16.3,17.2,17.4c1.7,0.2,3.7,1.7,4.7,3.2c6.9,10.6,17.5,17.1,27.2,24.6c2.7,2.1,5.7,5,6.6,8.1c3,10.1,9.5,15.9,19,19.8
		c11.9,4.8,23.5,10.5,34.9,16.4c3.3,1.7,5.8,5.3,8,8.6c3.8,5.7,8.3,10.2,15.2,11.9c1.4,0.3,2.6,1.8,5,3.6c-4,4-7.6,7.5-11.6,11.5
		c8.2,7.8,8.6,16.3,2.8,24.9c5.1,8.3,10,16.4,15,24.3c0.9,1.4,1.9,2.9,3.2,3.6c6.8,3.6,8.1,10.4,9.9,16.9c0.6,2.2,0.9,4.6,2,6.6
		c5.4,9.4,11.1,18.8,16.4,27.6c-1.3,7-2.3,13.8-3.9,20.5c-0.8,3.2-2.5,6.1-4,9.1c-3,5.7-6.1,11.4-10,18.6c-13,2.5-28.2,5.4-43.3,8.2
		c2,13.2,3.5,25.2,14.1,35.9c-8.3,1-13.3,1.5-18.4,2.2c-1.6,0.2-3.5,0.2-4.8,1c-4.8,3.2-9.2,3.8-14.9,1.4c-5.8-2.5-11.7,1-14.9,6.9
		c-7.6,14-15.1,28-22.7,42.1c6.5,23.2,20.4,44.3,22,70.2c-5.6,0-10.2,0.3-14.6-0.1c-8.3-0.7-16.5-2-24.7-2.6c-2.5-0.2-5.1,1-7.5,2
		c-4.9,2.1-9.6,4.5-14.8,7c0,1.8,0,3.9,0,5.8c-31.2,0-62.2,0.7-93.2-0.3c-15.5-0.5-31.1-1.1-46.7-1.5c-7.9-0.2-15.8-1-24-1.6
		c-3.4,9.7-4.4,18.6,0.3,27.3c-29.8,13.3-59.1,26.4-88.9,39.8c-10.8-7.5-22.1-15.1-33.1-23.2c-8.6-6.3-8.4-6.6-21.3-5
		c-1.6,4-3.3,8.1-5.8,14.4c-2.2-5.1-3.5-8.2-4.9-11.6c-8,1-15.8,1.8-23.6,3.1c-4.6,0.8-6.6,2.9-6.2,8.9c1.7,25.2,2.3,50.5,3.1,75.8
		c0.3,8.9,0,17.9,0,27.6c-0.1,0.1-1.3,1-2.5,1c-23.9,0.1-47.8-0.3-71.7,0.1c-19.3,0.3-38.6-1.8-57.8,1.5c-6.4,1.1-13.3-0.3-19.9-0.3
		c-44,0-88,0-132,0c-3.6,0-7.3,0-12.1,0c-2.1-6.3-5-12.3-5.9-18.6c-1.1-7.6-5.1-12.2-11.5-15.1c-4.1-1.9-6.7-4.8-9.2-8.5
		c-2.8-4.3-7.3-7.5-11.1-11.1c-2.9-2.7-5.9-5.2-8.1-7.2c6.7-10.4,12.7-20.1,19.1-29.6c3.9-5.8,5.2-12.1,5.8-18.8
		c1.7-17.8-0.2-35.2-5.8-52.1c-0.2-0.6-0.3-1.3-0.4-2c-1.4-8.9-4.3-17.8-3.6-26.6c0.7-9.2,10.1-14.2,15.6-21.1
		c7.7-9.6,16-18.7,24.4-27.7c2.8-3,6.7-5.4,10.5-6.8c8.7-3.2,17.7-5.9,26.7-8.2c4.8-1.2,8.3-3.3,11.4-7.2
		c6.6-8.3,13.7-16.2,20.6-24.2c9.5,17.1,19,33.9,29,51.9c9-3.5,18-6.7,26.7-10.5c1.8-0.8,3-3.4,4.1-5.4c3.5-6.4,6.7-13,10.3-19.4
		c2.8-4.8,5.8-8.6,12.6-9.3c4.7-0.5,10.8-3.6,12.5-9.6c3.1-10.8,13.3-15.3,19.8-23c3.4-4.1,9.1-2.7,13.2-1c9.4,3.9,19,2.9,28.5,3
		c8.9,0.1,12.3-2,14-10.9c1.9-10.1,3.2-20.4,3.5-30.6c0.2-8.1,1.6-15.1,7.7-20.7c4.4-4.1,3.7-8.9,2.3-13.8c-0.6-1.9-2.1-3.4-2.9-5.2
		c-3-6.4-6.4-12.8-0.2-19.7c-8.6-8.6-5.2-20.1-7.8-31.1c-4.6,1.8-8.1,2.8-11.2,4.5c-4.8,2.6-8.6,1.9-12.8-1.5
		c-4.6-3.8-9.3-7.6-14.5-10.4c-6.9-3.8-14.3-6.8-21.5-9.9c-3.6-1.6-6.7-0.7-10.3,1.3c-5.1,2.9-10.7,4.7-16.2,6.8
		c-1.1,0.4-2.6-0.3-4.1-0.5c-2.5-6.2-4.5-12.4-7.4-18.3c-2.3-4.7-5.1-9.3-8.5-13.2c-6.5-7.6-7.9-14.2-3.7-23.3
		c1.5-3.2,2.6-6.5-0.4-9.1c-3-2.7-6-0.9-9.2,0.5c-5.1,2.2-10.5,4.2-15.9,5.1c-5.1,0.9-9.9-2.8-11.6-7.5c-1.8-5.1-0.7-9.1,4.1-12
		c1.7-1,3.3-2.3,4.8-3.6c12.4-11.1,14.4-24.8,5.5-38.9c-3.8-6-7.2-6.9-13.2-3C4016.3,1476.6,4011.9,1481,4003.3,1480.8z"/>
	<path onclick="modals(this.id);" id="1138" class="st0" d="M3096.8,845.7c-9.2,9.7-18.1,19-27.1,28.4c-0.7,0.7-1.1,1.6-1.8,2.4
		c-12.4,14.2-12.4,14.2-31.4,14.2c-18.3,0-36.6,0-54.7,0c-11.1-13.8-23.7-23.9-44.2-22.9c0,0-1.8-1.1-2.9-2.6
		c-5.1-6.8-11.3-12.1-19.2-15.4c-6-2.5-9-7.3-10.3-13.6c-1-4.9-2.5-9.6-4-14.4c-2.7-8.8-6.7-11.9-15.7-12.5
		c-4.3-0.3-8.6-0.6-12.9-0.9c-0.3,0-0.6-0.3-1.5-0.7c-0.1-3.4,6.7-5.3,3.2-9.5c-2.3-2.8-4.9-5.4-7.4-8c-1.1-1.1-2.5-2-4.7-3.8
		c5.5-2.5,10.2-4.5,14.7-6.8c4.3-2.2,7.3-6.4,13-6.7c4.1-0.2,5.5-4,4.8-8.3c-1.7-10.5-12.5-18.6-23.4-17.4c-1,0.1-2-0.2-1.1-0.1
		c-4.5-4.8-7.6-8.9-11.4-12.2c-5.9-5.2-10.7-11.4-18.5-14.8c-3.7-1.6-5.8-8.6-7.2-13.5c-2.9-10.5-5-21.3-7-32
		c-2.5-13.4-2.3-26.3,6.3-38c2.7-3.7,4.8-8.1,5.9-12.5c0.8-3.2,0.6-7.6-1-10.4c-4.3-7.3-3.3-14.7-1.4-22c1.2-4.8,3.1-9.5,5.3-14
		c4.3-8.9,4.5-17.9,1.9-27.2c-0.7-2.5-1.9-5.7-3.9-6.8c-9.9-5.3-10.4-15.3-12.3-24.3c-1.3-6.1-1.7-12.5-1.7-18.7
		c0-4.9-1.8-9.4-5.6-10.9c-10.2-4-12.1-14.6-18.5-21.6c-2.4-2.6-2.8-5.9,0-9c3.8-4.2,7.3-8.7,11.2-12.8c1.2-1.2,3.3-1.7,5.1-2
		c5.3-0.7,10.6-1.1,15.8-1.7c2.6-0.3,6.3,0.4,7.7-1.1c7.5-7.6,17.5-3.7,26-6.3c2.8-0.8,5.9-1.2,8.5-2.5c18-9.3,28.1-10.3,49.9-4.3
		c-3,4.3-4.9,9.3-8.6,12c-8.5,6.3-9.8,14.8-9.1,23.9c0.9,12.2,2.6,24.3,3.9,36.5c0.1,0.7-0.1,1.5,0.3,2c6.9,8.9,13.4,18.1,21,26.3
		c2.4,2.6,5.7,4,6.4,8c0.2,1,0.8,1.8,1.2,2.7c5.5,13.6,5.5,13.6,20.7,11.8c1.2,3.8,2.8,7.6,3.5,11.7c1.9,10.7,5.9,19.4,16.4,24.5
		c10.6,5.1,19.6,25.2,12.2,38.2c-4.5,7.8-3,14.8,0.3,22.6c4.9,11.6,8,23.9,12.5,35.7c2.3,6.1,5.2,12.3,9,17.6
		c6.9,9.5,12.8,19.3,16.3,30.7c2.2,7.3,5.8,14.1,9.2,21c2.4,4.9,6.1,7.6,12.1,5.7c5.3-1.7,10.9-2.6,16.1-4.5c1.7-0.6,4.2-3.8,3.8-5
		c-3.3-9.7,2.2-17.7,5.3-25.7c2.5-6.6,4.6-13.2,4.9-20c0.6-15.2,8.1-26.9,19.3-35.7c7.7-6.1,8.9-12.5,6.7-20.8
		c-0.3-1.3-0.5-2.6-0.7-3.9c0-0.3,0.1-0.6,0.5-2.3c6.8-3.4,14.4-7.4,22.2-11.1c21.6-10.4,43.2-20.7,64.8-31c1.2-0.6,2.4-1.2,3.5-1.9
		c4.9-3.2,5.7-5.3,2.1-9.6c-3.2-3.8-2.8-7.4-2.9-11.8c-0.2-6.4-2.2-13-4.4-19.1c-4.2-11.5-9-22.8-13.9-34.1
		c-1.4-3.2-3.1-7.1-5.8-8.9c-5.8-3.7-8.2-9.3-11-15c-2.9-5.9-6.4-11.5-9.8-17.2c-1-1.7-2.6-3.2-3.2-5c-4.9-14.4-9.5-29-14.4-43.4
		c-1.5-4.3-3.4-8.6-6-12.3c-5.3-7.4-10-14.8-10.1-24.4c-0.1-5.2-2.6-9.5-7.3-12.3c-7.3-4.5-14.5-9.1-21.8-13.7
		c-3.7-2.4-5.3-8.8-2.2-14.4c3.3-6,7.7-11.6,12.1-16.9c4.4-5.3,9.5-10.1,14.4-15c1.3-1.3,2.9-3.1,4.5-3.4c11.5-1.6,23-2.9,34.6-4.2
		c1.6-0.2,3.6-0.5,4.9,0.2c6,2.9,11.7,0.7,18.6-1.2c2.1,3.4,4.5,6.8,6.4,10.5c2.2,4.1,4.1,8.4,6.2,12.6c2.4,4.7,5.8,8.2,11.1,9.3
		c4.2,0.8,7.1,3,9.6,6.4c1.9,2.6,4.4,5.2,7.2,6.8c5,2.7,8,6.3,10.1,11.6c2.5,6.3,12.1,10.2,18.5,8.6c4.4-1.1,8.8-2.1,14.7-3.5
		c5.2-10.4,10.8-22.1,16.9-33.5c3.4-6.4,7.7-12.3,11.6-18.5c1.4-2.2,3.6-4.7,3.5-6.9c-0.5-11.7,8.5-19,12.6-28.6
		c1.3-3,3.9-5.4,5.8-8.1c3.7-5.2,5.4-5.8,11.7-3.2c4.9,2,10,3.8,14.5,6.4c2.6,1.5,4.8,4.4,6.2,7.1c1.7,3.2,2.2,7,3.8,10.3
		c5.6,11,12.8,20.2,26.2,22.1c4.9,0.7,8.1,2.9,6.4,8.8c-1.6,5.6,1.2,10,5.8,12.6c6,3.4,12.4,6.1,18.9,8.7c3.5,1.4,7,2.2,8.3,6.2
		c1.9,5.5,6.9,6.7,11.5,8.6c10.9,4.7,21.8,9.6,32.6,14.6c2,0.9,3.9,2.7,5.2,4.6c4.7,6.8,9.1,13.8,13.7,20.6c0.9,1.3,2.2,2.6,3.6,3.2
		c7.3,2.9,14.6,5.5,22,8.2c8.3,3,15.6,0.5,22.5-4.3c1.9-1.3,3.7-2.8,5.6-4.2c3.3-2.7,6.2-1.9,8.5,1.3c8.9,11.9,20.4,19.2,35.2,21.9
		c3.7,0.7,7.8,2.8,10.3,5.6c5.3,5.9,12.1,8.1,19.3,9.3c5.4,0.9,9.3,3.2,12,7.9c4.2,7.2,8.4,14.3,12.8,21.3
		c3.4,5.3,7.3,10.2,10.9,15.5c2.6,3.8,5.3,7.6,7.2,11.7c2,4.2,4.9,5.8,9.3,6.3c18.1,2.4,17.8,2.5,21.8,19.6
		c1.4,5.9,4.9,11.4,7.5,17.1c1,2.1,2.2,4.1,3.4,6.1c3,5.1,5.5,10.5,9.1,15.1c3.6,4.7,6,9.5,6.4,15.4c0.7,11.9,1,23.9,2.3,35.8
		c0.6,5.4,2.3,11.3,5.4,15.6c3.8,5.2,5.7,10.3,5.7,16.5c0,5.3-0.3,10.3,5.7,13.7c2.7,1.6,3.8,6,5.8,9.6c-4.7,8.3-9.3,16.7-14.3,24.9
		c-3.9,6.4-4.1,12.6-2.1,19.9c3.7,13.8,8,27.2,14,40.3c3.6,7.9,4.1,16.6-0.6,24.9c-3.6,6.3-3.7,12.8-1.8,20.1
		c2,7.2,1.7,15.1,2.4,22.2c-13.2,8.1-24.5,16.6-34.4,27.6c-6.5,7.3-15.3,12.6-25.9,13.3c-2.7,0.2-6.6,1.4-7.7,3.4
		c-6.2,11.3-18.1,15.1-27.6,21.8c-7,4.9-14.6,9-21.3,14.5c-0.6,0.1-1.3,0.4-1.9,0.4c-13.8-1.3-19.1,5.9-14.5,19.4
		c1.4,4.1,2.5,8.3,3.6,12.4c0.4,1.6,0.4,3.2,0.6,5.3c-5.5,2.5-10.5,1.6-14.9-1.9c-4.9-3.9-9.7-8.1-14.2-12.5c-1.8-1.7-3-4.4-3.8-6.8
		c-2.7-8-8.7-11.6-16.6-12c-4-0.2-6.7-1.3-9.4-4.3c-4-4.3-9.3-5.8-15.3-5.9c-19.9-0.4-39.9-1.2-59.8-1.9c-2.3-0.1-4.5-0.5-7.9-0.9
		c0-4.6,0.2-8.8,0-13.1c-0.4-8.2-2.1-10.3-10.3-12c-35.1-7.4-70.3-14.6-105.4-22.2c-4.6-1-8.4-1.4-11.6,2.6
		c-4.5,5.6-10.3,2.8-16.1,1.7c-3.7,9.5-10.3,14.3-20.5,14.7c-6.1,0.3-8.3,5.9-10.3,10.9c-1.3,3.4-2.2,7-3,10.5
		c-1.2,4.9-5.2,6.9-9.3,8.2c-5,1.7-8.5-0.9-10.5-6.4c-1.7-4.7-3.5-9.3-5.3-13.8c-3-7.4-11.7-8-16.3-13.7c-0.8-1-4.8-0.6-6.6,0.4
		c-4.3,2.4-8.6,2.1-12.5,0.4c-5.5-2.4-10.2-0.8-13.8,2.8c-5.5,5.6-11.9,5.6-17.3,2.2c-10.7-6.7-22.9-8.7-34.5-12.5
		C3133.4,856.5,3115.2,851.3,3096.8,845.7z"/>
	<path onclick="modals(this.id);" id="1145" class="st0" d="M5363.5,1728.2c3.1-7.5,1.7-12.6-1.3-17.2c-3.3-4.9-4.8-10-4.9-15.9c-0.2-6.1-2.8-11-7.5-15.5
		c-7.2-6.8-13.1-14.9-19.8-22.8c1.8-10,1.8-10-8.9-14.3c-11-4.5-22-9.1-33.6-14c3.3-3.7,6-6.7,8.8-9.8c-0.9-2.8-2.3-5.5-2.8-8.3
		c-1.4-8-4.3-13.9-12.1-18.7c-7-4.3-12.2-12.2-16.7-19.5c-7.4-12-17.1-21.2-29.2-28c-6.9-3.9-12.4-8.8-16.4-15.6
		c-1.2-2-2.8-3.7-4.3-5.4c-6-7.1-12-14.2-18.2-21.1c-7.6-8.3-15.2-16.8-23.6-24.3c-4-3.5-9.9-4.9-16.3-7.9c0-10.7,0.1-22.6,0-34.5
		c-0.1-8,1.9-17.1-1.4-23.5c-3-5.9-11.8-8.9-18.1-13.2c-1.4-0.9-2.8-1.9-3.9-3.1c-15.2-17.1-31.7-33.3-43.7-53
		c-6.6-10.8-11.8-22.2-14.9-34.7c-1.4-5.7-4.2-11.2-7.3-16.2c-8.3-13.6-16.9-27-25.6-40.4c-1.4-2.1-3.4-4.6-5.6-5.4
		c-6-2-9-6.6-12-11.4c-6.1-9.9-12.4-19.6-16.2-30.8c-3.4-10.3-12.8-12.6-22.1-14.5c-3.2-0.6-6.4-0.9-11.1-1.5c2.3-3.5,4-5.8,5.4-8.2
		c3.2-5.7,4-11.4,1.6-18c-1.3-3.7-0.8-8.5,0.3-12.5c1.7-6.1,4.3-7.3,11-6.7c5.2,0.5,9-1.3,11.7-5.9c1.5-2.6,3.4-4.9,5.1-7.4
		c4.8-6.7,3.7-16.9-2.6-22.5c-2.7-2.4-5.9-4.2-8-7c-1.9-2.5-2.4-6-3.8-9.7c26.5-12,53.1-23.9,80.8-36.4c3.9,6.6,7.7,12.4,10.9,18.4
		c2.8,5.3,5.2,10.5,10.6,14.1c2.6,1.7,4.4,5.9,4.9,9.2c1.4,10.1,8.3,16.4,14.7,23.1c1.9,1.9,5.2,2.4,7.8,3.5
		c0.9,14.7,9.5,24.7,20.2,33c6.8,5.4,13.8,3.8,18.9-2.9c8.4-11.2,16.5-11.6,25.8-1.1c8,8.9,16.1,17.7,24,26.7
		c8,9.1,17.3,10.6,31.7,5.2c5.2-1.9,9.8-5.5,14.7-8.4c3.4-2,6.8-2.9,9.9,0.5c6,6.6,14.1,8.3,22.4,9.7c4.2,0.7,8.4,1.8,12.8,2.7
		c1.4,3.1,2.5,6.2,4.2,9c6.2,9.8,16.5,11,25.1,3.2c1.9-1.7,4.1-3.1,6.9-5.1c1.6,4.1,2.7,7.5,4.1,10.8c3.9,9.4,10.7,12,19.7,7.2
		c6.5-3.5,12.9-3.4,20.2-2.7c15.2,1.6,27.7,9.1,40,16.9c4,2.5,7.4,6.7,10,10.8c6.3,9.9,19.7,12.9,29.1,6.3c2.1-1.5,4.6-2.6,7.1-3
		c6.9-1,13.8-1.6,21.7-2.4c1.3,4.1,2.4,7.9,3.7,11.5c3.9,10.9,9.2,13.8,20.5,11.3c8.1-1.8,12.6-0.4,16.8,6.3
		c4,6.5,7.7,13.3,6.6,21.5c-0.4,2.6,0.2,5.4-0.4,8c-2,9.6,1.5,16.4,10.4,20.1c15.4,6.4,26.3,19.1,39.8,28.1c3.7,2.5,5,6.2,3.9,11.3
		c-2.1,10.3-4.2,20.6-2,31.4c2,9.3,6.5,14.9,15.6,16.8c6.8,1.4,13.6,3.1,20.4,4.2c3.2,0.5,6.6,0,9.9-0.2c4.7-0.3,7.2-2.9,7.6-7.6
		c0.1-1.6,0.4-3.2,0.6-4.7c8.7-0.3,14.8,3,20.1,9.3c4.9,5.7,10.7,10.5,16.9,15.1c7.5,5.6,15.2,13.4,12.8,24.1
		c-4.5,2.8-8.3,4.6-11.3,7.4c-1.6,1.5-3.1,5.1-2.4,6.9c2.8,7.1-0.8,13.7-0.6,20.5c0.1,3.1,0.2,6.9,1.9,9.1c6,7.7,8.6,16.4,9.2,24.7
		c-3.8,4.9-8.5,8.7-10.1,13.5c-1.7,5.1-0.4,11.1-0.4,18.4c-4.2-1.2-7.2-1.8-9.9-3c-4.3-1.9-7.7-1.1-10.6,2.5
		c-3,3.8-2.7,7.7,1.1,10.5c3.6,2.7,7.6,6.4,11.7,6.8c10.5,1,17.5,7.1,24.7,13.7c7,6.5,14.5,12.5,22.7,19.5c-3,5.7-0.6,11.1,4.7,17.4
		c5.3,6.3,9.2,13.6,16.5,18.2c1.7,1.1,2.3,3.8,3.3,5.7c4.3,8.2,8.8,16.4,12.8,24.7c4,8.3,7.5,16.8,11.2,25.2c1.1,2.4,1.6,5.1,3,7.3
		c7.6,11.8,8.7,24.1,3.3,37c-1.7,4-0.6,7.2,2.4,9.8c5.5,5,6.7,10.9,4.9,18.1c-0.8,3.4-0.6,7.2-0.3,10.8c0.4,6.6,1.2,13.2,1.9,19.8
		c0.6,6,3.6,10.4,8.8,13.7c3.5,2.2,6.6,5.2,9.5,8.2c3.1,3.2,5.7,5.7,11,4.8c6.5-1,9.9,2.2,11.3,8.3c3,13,4.4,26.2,2.9,39.8
		c-14.7,7.5-19.7,23.2-28.8,35c-5.4-1-10.7-1.8-16-2.9c-2.6-0.6-5.4-1.2-7.5-2.7c-6-4.5-12.5-5.5-19.8-4.4c-2.2,0.3-4.9-1.4-7.2-2.6
		c-4.4-2.3-8.6-5-13-7.3c-4.9-2.6-9.6-3.3-15,0.2c-2.8,1.8-7.7,1.6-11.3,0.6c-8.7-2.2-8.6-2.6-13.7,4.4c-4.3,5.8-5.1,5.7-12.4,2.7
		c-3.1-1.3-7.1-1.9-10.3-1.2c-4.8,1.2-6.7,5.3-4.8,10.1c2.3,6,5.4,11.7,8.5,18.4c-2.7,1.9-6.3,4-9.3,6.8c-2.9,2.7-4.8,6.4-7.6,9.2
		c-3.4,3.4-7.8,3.5-11.7-0.1c-7.9-7.1-15.5-14.6-22.9-22.1c-1.5-1.5-1.8-4.1-2.6-6.2c-3-7.7-11.4-13.1-18.5-11
		c-3,0.9-5.4,3.7-8.9,6.4c-3.6-1.8-8-3.9-13.9-6.8c-14.7,9.3-30,19.1-45.6,28.7c-4.8,2.9-10,5-15.2,7.1c-4.9,2-9.3,0.7-12.1-4
		c-3.4-5.7-8.3-8.8-14.6-11.1c-11.3-4.3-15.2-16.7-10.6-27.9c1.7-4,1.7-8.8,2.5-13.7c-2.8-0.4-4.4-0.8-6-0.8
		c-14.5,0.1-29.1-2-43.5,0.6c-5.9,1-10.1-1.9-14.2-5.5c-9.6-8.4-13.4-8.1-23.2-0.3c-7,5.5-15,7.7-24.2,6.8
		c-12.2-1.1-24.6-1.4-36.9-1.7c-2.8-0.1-5.7,1.3-10.6,2.5c2.4-4.6,4.1-7.8,5.8-11c-6.6-4.3-12.6-9.4-19.5-12.2
		c-4.8-1.9-11-1.3-16.3-0.4c-14.8,2.7-23.1-2.6-25.8-17.4c-0.3-1.9-1.3-3.8-2.4-5.3c-8.3-11.7-8.8-23.6-2.3-36.4
		c4.2-8.4,8.4-16.6,15.4-23c0.5-0.4,1.1-0.9,1.3-1.5c4.3-10.8,9.6-21,17.2-30c1.9-2.3-0.1-7.9-0.4-12.7c0.8-0.3,2.5-1.4,4.3-1.7
		c8.2-1.4,16.4-2.3,24.5-3.8c5.3-1,9.6,0.8,14,3.5C5351,1722.5,5357,1725,5363.5,1728.2z"/>
	<path onclick="modals(this.id);" id="1142" class="st0" d="M3826.1,918.5c10.6,3.5,21.2,7.2,31.9,10.3c1.8,0.5,4.5-0.7,6.4-1.7c4-2.3,7.8-5,11.5-7.4
		c1.1,0.1,2,0,2.4,0.3c15.2,14.3,31.8,27.2,37.6,49c2.5,9.5,6.8,18.8,11.6,27.5c2.5,4.6,7.1,9.1,11.8,11.5
		c13.1,6.7,26,13.1,36.6,23.7c5.5,5.5,10.5,5.3,17.1,0.9c3-2,5.7-4.6,8.1-7.3c3.2-3.5,6.3-3.9,11.3-3.5c10.8,0.9,20.7,4.3,30.8,7.4
		c10,3.1,10.2,4,9.7,14.1c-0.6,10.5,1.1,12.5,11.2,15.4c3.1,0.9,5.9,2.7,9.2,4.2c6.5-1.7,13.5-3.5,21.2-5.5c5.3,3.8,6.6,10.5,8,16.9
		c0.5,2.4-0.8,6.5-2.7,7.9c-4.1,3.1-4.4,7.1-4.9,11.4c-0.2,1.7,0,3.3-0.2,5c-1,9.2-1.5,18.4-10.2,24.7c-2.5,1.8-4.1,5.2-5.5,8.2
		c-2.2,4.6-5,8.3-9.6,11c-2.6,1.5-4.8,4.7-5.9,7.6c-2.7,7.1-4.8,14.4-6.9,21.7c-1.8,6.1-3.1,12.4-10.4,14.5
		c-1.1,0.3-2.8,1.9-2.7,2.7c1,8.4-9.8,9.3-10.3,17.1c-0.8,11.9-2.6,23.8-4.1,35.6c-2.9,23.4-5.7,46.8-8.6,70.2
		c-0.2,1.3-0.9,2.4-1.7,4.7c-4.1,0-8.6,0.8-12.6-0.2c-8-2-16-2.2-24.2-2.7c-8.1-0.5-14.4,0.3-18.3,7.5c-19-1.3-30.7-12-33.2-29.7
		c-0.5-3.2-2.1-6.2-3.5-9.1c-1.6-3.3-4-6.2-5.2-9.6c-0.9-2.3-1.6-6.6-0.4-7.5c6.2-4.8,8.1-13.4,15.8-16.8c5.2-2.3,5.7-7,0.7-9.4
		c-3.4-1.7-7.7-2.3-11.5-2.3c-6.6,0.1-12.6-1.3-17.8-5.3c-5.9-4.6-11.6-4-17.2,0.5c-13.1,10.5-27.7,18.1-43.9,22.8
		c-2.5,0.7-4.6,2.8-7,3.6c-3,0.9-6.3,1.3-9.4,1.5c-3.6,0.1-7.3-0.6-10.9-0.4c-8.5,0.7-15.4,3.3-16.9,13.4
		c-1.1,7.4-6.4,10.7-13.6,10.5c-5.9-0.2-9.9,2.6-14,6.4c-6.1,5.6-12.4,10.9-19.2,15.6c-9.7,6.6-23.3,6.1-31-2.9
		c-10.1-11.7-20.1-13.6-33.1-5.4c-7,4.4-14.1-0.1-21.1-1.6c-2.4-0.5-5.3-1.2-7.2-0.3c-3,1.5-2.1,4.8-2,7.9
		c0.3,6.8,5.3,10.2,9.6,14.4c-3.7,6.6-13.8,7.4-13.3,16.2c-16.6,6.1-36.1-0.1-46-14c-2-2.8-5.1-4.9-8.4-8c0.2-0.7,0.7-2.4,1.2-4.2
		c1.4-5.5,0-9.2-5.3-12.3c-10.9-6.4-20.8-14.5-32-20.2c-9.7-4.9-20.4-7.9-30.9-11c-3.1-0.9-7.1,0.9-10.7,1.5
		c-6.5,1.1-12.9,2.9-19.5,3.1c-6.7,0.2-12.5,0.9-16,8.6c-2.1-2.3-3.6-3.8-5-5.4c-6.9-8-16.1-6.7-25-5.8c-1.4,0.1-3.2,2.5-3.6,4.1
		c-1.2,4.2-4.1,5.8-9.1,6.6c-0.9-2.5-2.4-5-2.8-7.7c-1.9-10.8-6.3-20.3-13.7-28.4c-5.5-6-12.5-11-11.6-23.1
		c-9.8,8.9-17.4,16-24.2,22.2c-23.2-5-44.9-10.4-65-22.3c-8.8,7.1-18.9,2.3-28.1,1.3c-9.3-1-18-7.3-21.8-17.1
		c-2.6-6.6-8.4-3.7-12.4-5.1c-0.5-1-1-1.6-1.1-2.2c-2.1-17.8-4-15.2-17.9-15.5c-6.2-0.2-12.4-0.8-18.6-1.3
		c-1.9-7.2-5.9-11.1-11-14.7c-3.3-2.4-5.3-6.7-7.9-10.1c-5.4-6.9-9.6-8.5-17.1-3.9c-11.6,7.1-24.2,6.4-36.8,5.8
		c-6.3-0.3-12.1-2.8-16.3-8.4c-2.3-3-6.1-5-9.2-7.3c-1.1-0.8-2.6-1-3.5-1.9c-12.1-12.6-29.1-11.8-44.1-16c-7.4-2-14.9,1.1-21.6,5.3
		c-4.4,2.8-9.2,5-14.1,7.6c-13.3-14.3-25.9-27.8-39-42c9.5-6.9,18.4-13.3,27.3-19.7c13.5-9.7,26.8-19.7,40.7-28.9
		c7.1-4.7,8.7-11,6.5-18c-2-6.5-5.3-12.9-9-18.6c-3.1-4.8-3.6-8.6-0.8-13.7c3.3-6.3,6.1-13,8.1-19.8c1.7-5.5-1.1-11.1-4.9-14.5
		c-7.1-6.3-9.8-13.4-10.1-22.7c-0.1-5.4-3.5-10.6-5.2-16c-2.1-7-3.9-14-5.7-21.1c-1-3.8,0.2-6.8,3.1-9.8
		c12.2-12.7,24.1-25.7,36.8-39.3c9.2,2.7,18.7,5.3,28.2,8.2c16.2,5,32.4,10,48.5,15.2c5.3,1.7,10.3,4.3,15.4,6.4
		c5.1,2.1,10,1.1,13.9-2.5c4.7-4.4,9.4-4.7,15.5-3.3c4.7,1.1,10-0.4,15.8-0.8c3.1,1.9,7.6,4,11.3,7.1c5.2,4.4,7.5,10.8,8.8,17.4
		c0.7,3.7,1.5,6.8,5.8,8.3c7.5,2.7,15.7,0,19-7.5c1.6-3.6,2.5-7.6,3.4-11.4c1.3-5.9,5.2-9,10.7-10.5c11.9-3.3,11.9-3.3,20.3-12.9
		c6.1,0.4,12.4,1,17.4-4.6c1.1-1.3,4.4-1.4,6.4-1c35.2,7.2,70.3,14.6,105.4,22.1c7.1,1.5,7.9,2.9,8,10.2c0.1,3.7,0.2,7.3,0.4,11
		c0.1,0.9,0.6,1.9,1.3,3.9c6.1,0.6,12.5,1.7,19,1.9c16,0.5,32,0.6,48,0.7c7,0.1,13.2,1.9,17.4,7.8c2,2.8,4.1,3.3,7.6,3
		c7.8-0.7,12.6,3.3,16,10.4c1.6,3.4,4.2,6.6,6.8,9.3c3.5,3.6,7.5,6.6,11.3,9.8c1.3,1.1,2.5,2.7,3.9,2.9c4.7,0.8,10.2,2.6,14.1,1
		c4.4-1.8,2.3-7.7,1.6-11.9c-0.5-3.2-2-6.3-2.7-9.6c-0.6-2.9-1.2-5.9-1.1-8.8c0.3-6.4,2.7-8.8,8.8-7.4c4.8,1.1,7.3-0.7,10.6-3.4
		c4.6-3.8,9.7-7,14.7-10.2c8.7-5.5,19-9.5,25.8-16.8c6-6.4,11.7-9.4,19.8-11.7c8.5-2.5,16.3-8,22.6-15.7
		c5.8-7.1,13.5-12.7,20.9-18.2c5.9-4.4,9.1-3.8,13.5,2.2c6.3,8.6,15.2,12.5,24.9,15.4c7.8,2.3,14.7,5.8,20.2,12.1
		c2.3,2.6,5.7,4.9,9,5.7c6.2,1.4,10.6,5,14.8,9.4c4.3,4.5,8.9,8,16.5,6.7c4.6-0.8,10.2,1.8,14.8,4.1c4.4,2.1,3.9,13.1-0.6,18.2
		c-1.7,1.9-4.3,3-6.5,4.4C3825.1,916.9,3825.6,917.7,3826.1,918.5z M3404.6,1024.4c0,6.2,1.3,12.1-0.3,17c-2.5,7.9,1.8,11.4,7,14.4
		c19.5,10.9,40.3,17.1,63,15.1c2.1-0.2,5.3-1,6-2.5c2.8-6.2,6.5-12.4,3.6-19.9c-3.3-8.5-6.4-17.2-9.7-26.4
		c-7.6,0.3-16.1,0.7-24.8,1.1c-0.3,3.3-0.6,6.1-0.8,8.4c-3.2,1.3-5.8,2.3-8.4,3.4c-4.6-16.2-4.6-16.2-21.7-20.6
		c-2.2-0.6-4.4-1.1-7.3-1.7c0,4.2,0,7.7,0,11.3C3409.4,1024.1,3407.8,1024.2,3404.6,1024.4z"/>
	<path onclick="modals(this.id);" id="1144" class="st0" d="M2958.4,1430.4c-2.9,3.4-5,5.8-7.5,8.8c-5.9-4.5-11.7-9-17.7-13.4c-1.5-1.1-3.6-2.6-5.2-2.3
		c-10.1,1.6-20.7,1-29.7,6.7c-3,1.9-6.2,4.3-8,7.3c-2.8,4.4-6.5,4.2-10.4,3.4c-3.6-0.8-6.2-2.5-7.3-6.9
		c-3.7-14.8-8.3-29.4-12.1-44.2c-0.7-2.8-0.1-6.6,1.3-9.3c4.4-8.6,7.4-16.7,0.9-26c-1.9-2.7-0.8-7.7-0.9-11.6
		c-0.2-8.2-0.3-16.4-0.3-24.7c0-2.5,0.7-5,1.4-7.5c0.8-2.6,1.9-5.2,3.3-8.9c-5.6,0.3-9.5,0.9-13.3,0.6c-4.2-0.4-8.3-1.6-12.4-2.6
		c-1.9-0.5-3.9-2-5.6-1.7c-9.6,1.6-17.4-4.1-26.3-5.7c-6.3-1.1-10.2-6.1-8.6-12.2c2.7-10.9,0.3-21-3-31.3c-0.9-2.7-0.7-5.8-1.2-8.7
		c-0.9-4.8-0.8-10.3-3.1-14.2c-4.3-7.3-2.4-13.3,1.4-19.5c2.9-4.9,6-9.6,8.9-14.4c2.8-4.8,5.5-9.6,8.7-15.3
		c10.3-0.5,21.6-1.8,32.8-1.3c21.8,0.8,43.1-2.9,64.5-5.3c7.9-0.9,15.8-2.4,23.7-3c5-0.4,7.8-2.6,9.8-7c3.4-7.6,7.3-15,11.1-22.4
		c1.6-3.2,3.5-6.3,6-10.6c8,12.6,15.1,24.1,23,36.6c24.9-2.7,50.2-5.4,76.8-8.2c-3.2-6.7-5.7-12-8.6-18.2
		c7.2-3.9,14.1-8.4,21.6-11.6c5.1-2.2,10.6-2.9,16.5-1.1c8.6,2.6,18,2.9,26,6.6c8.8,4.1,17.1,10.2,24.4,16.8
		c6.8,6.2,13.7,10.2,23.1,9.4c3.6-0.3,7.3-0.2,11,0c7.8,0.3,15.1-1.3,22-5.1c8.1-4.4,10.8-4.4,15,2.9c5.1,8.7,14.8,13.3,18.8,22.9
		c0.8,1.8,4.9,2.9,7.6,3.1c8.2,0.8,16.5,1,25.7,1.4c0.7,5.3,1.3,10.1,2,16.2c3.5,0.7,7.8,1.6,12.8,2.6c4.4,10.2,13.1,17.8,23.9,20.1
		c9.7,2.1,20.4,6,29.1,0.4c14.6,5.4,28,10.7,41.6,15.4c6.8,2.4,13.9,4.2,21,5.4c2.4,0.4,5.7-1.1,7.7-2.7c5.3-4.5,10.2-9.5,15.1-14.1
		c4.5,5.6,8.4,10.9,12.9,15.7c7.1,7.5,11.5,16.1,13.6,26.2c0.9,4.5,0.6,10.6,7.4,11.5c7,0.8,10.1-3.5,11.7-9.7
		c9.9-2.1,18.7-1.6,25,7.5c2.1,3,5.7,3.3,7.7,0.6c5.3-7.2,13.1-4.9,19.9-6.2c2.9-0.6,6.3,0,8.8-1.2c8.8-4.2,17-2.7,26,0.2
		c11.3,3.6,21.6,8.4,31,15.5c6.1,4.6,12.9,8.3,19.1,12.6c4.8,3.3,5.1,5.9,2.3,10.7c-3.2,5.4-6.2,10.9-9.8,16c-2,2.9-4.7,5.8-7.8,7.2
		c-8.1,3.8-16.4,7.2-24.9,10.2c-5.5,2-10.2,4.4-13.6,9.4c-2,3-5,5.3-7.2,8.2c-3,3.9-6.3,7.7-8.5,12.1c-5.4,10.4-8.6,11.9-19.6,8.3
		c-8.2-2.7-13.6,0.3-15.5,8.7c-2.8,11.9,5.9,31.6,17.3,36.6c7.3,3.2,9.9,8.1,12.1,15.4c3.2,10.7,8.2,21,13.1,31.2
		c1.3,2.6,4.6,5.1,7.5,6c7.9,2.3,10.5,7.8,12.4,15c1.6,5.9,4.1,12.1,7.8,16.9c7.8,10.2,6.4,20.1,0.2,29.6
		c-8.4,12.8-17.8,24.8-27.6,38.2c-8.7-6.4-18.7-10.2-22.9-21c-1.4-3.5-3.9-7-6.8-9.4c-4.6-3.9-7.5-8.3-8.8-14.1
		c-1.8-8.2-6.7-14.3-12.9-19.7c-3.5-3-6.4-6.7-9.8-9.9c-3.1-3-6.2-6.1-9.7-8.5c-5.6-3.9-11.6-7.2-18.1,1c-2.7-4-5.1-7-7-10.4
		c-11.3-20.1-27.1-17.3-39-7.7c-11.9,9.5-23,20-32.7,32.1c-6.5,8.1-5.9,15.6-2,23.8c5.9,12.4,13.1,24.1,23.9,32.9
		c9.6,7.8,13,17.9,14,29.6c0.4,4.5,2.3,8.9,3.5,13.3c1.2,4.4,4,7.3,7.7,9.9c4.3,3.1,8.4,6.7,11.8,10.7c12.1,14.4,12.8,31,2.3,46.8
		c-3.1,4.7-6.3,9.4-9.5,14.1c-2.6,3.8-2.1,7.3,0.5,11.1c2.8,4.1,5.5,8.3,7.3,12.9c4,9.8,11,16.4,20.2,21.2c5,2.6,9.8,5.5,14.9,8.4
		c-0.6,13.4-3.2,24.9-17.6,29.6c-1.7,0.6-4.1,2-4.5,3.5c-1.4,5.8-5.9,7.2-10.5,9.4c-5.9,2.9-11.2,7-16.8,10.5
		c-7.5,4.7-15,9.4-22.8,14.4c0.1,0.4,0.2,1.7,0.8,2c7,3.4,8.8,9.7,8.8,16.5c0,6.4,0.6,12.3,6.3,18.1c-6.7,1.3-12.1,2.4-17.6,3.3
		c-6.2,1-12.5,2.2-18.8,2.6c-12.1,0.7-22.9,6.4-34.5,9c-5.4,1.2-11,2.3-16.5,2.5c-12.3,0.4-18,7.2-17.9,19.6
		c0.1,6.8-1.6,13.8-3.5,20.4c-2.3,7.9-5.8,15.4-8.7,23.1c-4,10.6-12.1,14.4-22.9,10.4c-3.1-1.1-6.1-2.5-9.7-4.1
		c0.3-6.6-0.3-13.4-5.4-19c-0.8-0.8-0.7-2.5-0.8-3.9c-0.4-8.2-4.1-14.7-10.2-19.8c-3.9-3.2-5.9-6.9-5.7-12
		c0.2-7.6-1.5-14.5-7.5-19.8c-0.7-0.6-1.4-1.7-1.5-2.6c-0.7-8.8-6.4-13-13.7-16.5c-8.1-3.9-11.3-10.9-9.6-19.6
		c-9-5.2-18.4-4.8-33.8,1.2c0,4.7,0.4,9.7-0.1,14.6c-0.8,7.9-2.5,8.5-10.2,7.2c-4-0.7-8.4,0.3-12.4,1.2c-7.3,1.5-7.4,1-11.4-5.5
		c-4.6-7.5-10.3-14.4-19.3-17.3c-1.9-0.6-4.5-1-5.4-2.3c-8.5-12.5-25.6-12.2-34.6-23.8c-0.8-1-2.2-2.2-3.3-2.1
		c-8.6,0.7-11.7-5.9-16-11.4c-3.7-4.7-7.6-9.3-11.8-13.4c-11-10.8-11.2-12.9-6.7-26.3c2.2-6.6,2.4-13.1-0.2-18.2
		c-4-7.9-2.6-15.5,0.2-22.1c3.5-8.3,3.8-16.4,2.2-24.4c-1.9-9.9,0.1-17.3,7.8-23.8c6.1-5.1,11.7-10.9,17-16.9
		c4.7-5.4,10.4-7.9,17.3-8.3c3-0.2,5.9-0.8,8.9-1.1c11.6-1,17.3-4.4,14.6-21.9c11.6-2.7,13.4-11.6,13.1-21.9c-0.1-2.6,0.5-5.3,0.5-8
		c0-6.3-2-11.6-7.2-15.6c-29.7-23-59.4-46.2-89-69.3c-3.7-2.9-7.3-5.8-11-8.6c-6.9-5.3-13-10.5-13.6-20.7
		c-0.4-7.1-4.5-12.8-12.9-15.7c-7.6-2.6-14-8.7-20.9-13.3C2962.8,1433.9,2961.1,1432.5,2958.4,1430.4z"/>
	<path onclick="modals(this.id);" id="1161" class="st0" d="M3743.3,2927.9c-2.5-10.5-0.2-21.8-10.3-29.3c9.2-10.7,5-20.2-1.2-29.6
		c-6.4-9.6-5.6-18.7,1.1-27.7c1.6-2.1,2.1-5.1,3.9-6.9c3.9-3.9,7.7-8.3,12.5-10.9c9.4-5,19.5-9,29.3-13.4c0.2-0.5,0.6-1.1,0.6-1.7
		c0.1-8.7-0.5-17.2,1.7-26c2.5-10.1-1.6-15.2-11.6-19.6c-0.9-0.4-2.2-0.3-2.8-0.9c-0.8-0.9-1.6-2.4-1.4-3.4c0.2-1,1.6-2.6,2.5-2.5
		c2.9,0,5.9,0.4,8.6,1.1c6.8,1.9,10-0.2,10.3-7.3c0-0.3,0.1-0.7,0-1c-1.3-5-2.2-9.9,3.2-13.3c5.7-3.6,11.4-7.1,18.6-4.7
		c5.7,1.9,11.4,3.7,16.8,6.1c1.8,0.8,3.2,3.1,4.2,5c2.8,4.9,5,10.1,7.9,15c1.3,2.2,3.3,4,5.2,5.8c2.9,2.9,5.9,5.7,10,9.7
		c5.9-0.2,11.1-5,15.5-10.3c3-3.7,5.8-6,10.8-5.2c4.3,0.7,6.2-1.3,5.1-5.8c-1-4.3,0.8-7.8,4.3-10.3c7.8-5.8,15.4-11.6,23.4-17.1
		c1.7-1.2,4.9-2.4,6.3-1.6c7.6,4.2,16.8,5,23.6,11.4c2.3,2.2,6.5,3,9.9,3.2c8.2,0.5,15.8,0.8,23.8,5c10,5.2,22,6.6,32.9,10
		c2.5,0.8,5.4,2.9,6.6,5.2c2.9,5.5,7,9.3,11.9,13.1c5.9,4.6,8.2,12,8.5,18.9c0.4,6.9,3.3,11.7,6.9,17c7.1,10.5,16.6,17.6,27.8,22.9
		c2.4,1.1,4.4,2.9,6.6,4.4c7.2-1,14.7-8.5,22.2,0.9c-2.7,4.1-5.2,7.9-7.4,11.2c1.3,3.9,3.7,7.4,3.1,10.2c-0.6,2.6-4.4,4.5-7.6,7.3
		c0,4.5-0.3,9.9,0.1,15.1c0.5,7.2,5.1,10,11.5,7.1c8-3.6,16-6.2,24.8-3.9c0.3,0.1,0.7,0.3,1,0.1c8.4-3.8,16,1.2,23.9,2.4
		c6.2,0.9,12,2,18.6,0.4c4.7-1.2,10.9-0.1,15.3,2.2c4.7,2.5,9.2,3.4,14.2,3.3c14-0.3,28-0.7,41.9-0.7c2.5,0,5.2,0.8,7.4,1.9
		c5.3,2.8,10.4,6,15.6,9c2.9,1.6,5.8,4.1,8.8,4.4c10.2,1,17.9,6.4,25.1,13c6.3,5.7,13.9,4.6,23,5.7c-6-17.9-11.3-34.8-10.8-53.3
		c6.7,0,13.3-0.2,19.8,0c7,0.2,13.9,0.6,20.8,1.5c2.3,0.3,5.8,2.1,6.2,3.7c1.6,7.7,7.7,12,12.5,17.1c2.5,2.6,4.2,4.8,3.3,8.6
		c-1.7,7.2,0.4,13,6.5,17.4c4.7,3.4,5.5,8.9,6.9,14c2.3,8.7,4.8,17.1,12.5,23.2c3.7,2.9,7,4.4,11.6,4.5c58,0.6,115.9,1.2,173.9,2
		c27,0.3,53.9,0.9,80.9,1.4c2.6,0,5.2,0.6,7.5,0.8c1.5,10.6,2.3,20.7,4.7,30.4c1.5,6.4,0.8,11.8-2,17.3c-2.1,4.1-4.6,8.1-6.6,12.3
		c-3.4,7.4-2.7,9.6,4.4,13.8c8.4,5,16.3,11.3,26.4,11.5c1.1,12.1-3.4,18.7-13.8,22.7c-8.4,3.2-16.5,6.8-24.8,10.3
		c-0.3,0.1-0.7,0.3-0.9,0.5c-6.1,8.5-17.1,9.9-24.3,16.6c-3,2.8-6.3,6.3-7.5,10.1c-2.4,8.1-6,15.2-10.6,22.3
		c-5.4,8.2-8.9,17.6-13.4,26.8c-3.3,0.6-6.9,1.5-10.5,1.9c-6.4,0.8-11.3,3.7-14.5,9.3c-2,3.4-4.8,4.6-8.8,5.4
		c-11.7,2.6-21.5,8.3-25.7,20.5c-2.4,6.8-5.1,11.8-13.4,14.1c-6.2,1.7-11.6,7.5-16.4,12.5c-5.2,5.4-10.7,8.6-18.3,7.5
		c-1.2-0.2-2.5,0.5-4.1,0.8c-0.3,2.2-1,4.2-0.6,6c2.3,10.5-4,16.2-11.8,20.7c-4.8,2.8-10.2,4.8-15.5,6.7
		c-10.8,4-18.4,11.5-24.7,20.8c-2.6,3.8-5.8,7.2-8.2,11.1c-1.1,1.8-2.1,4.4-1.7,6.4c1,4.8,2.5,9.6,4.4,14.1c1.6,4,4.6,7.4,6,11.5
		c4.6,12.7,14.6,19.4,26,24.7c6.3,2.9,12.1,5.7,16.9,11.5c4,4.8,11.1,7,17.1,10c4.9,2.5,10,4.5,16.2,7.2
		c-4.3,4.9-7.6,10.4-12.5,13.8c-16.2,11.4-23.1,26.8-22.4,46.2c0.2,5,0,10,0.1,15c0.1,4,0.8,7.7,4.8,10.3c1.7,1.1,3.1,4.4,2.9,6.6
		c-0.4,6.1,1.8,10.5,7.2,12.9c4.7,2.2,7,6,8.3,10.6c2.4,8.6,4.9,17.2,6.9,26c2.6,11,3.7,22.3,12.6,30.8c1.4,1.3,0.7,5.4,0.1,8
		c-1.1,5.1-3.4,10-4.3,15.1c-1.9,10.2-10.7,14.5-19.5,9.3c-6.6-3.9-13.4-7.4-19.6-11.9c-9.1-6.6-19.7-9.3-30.1-12.4
		c-7.1-2.2-13.9-0.3-19.8,4.1c-3.5,2.6-6.8,4-11.1,2.2c-1.5-0.6-3.6-0.9-4.9-0.2c-11,5.9-22.4,1-33.5,1.2
		c-8.4,0.2-16.9-2.6-25.2-4.4c-1.6-0.3-3.2-2.2-4.2-3.7c-1.8-2.8-3.8-5.7-4.5-8.8c-1.5-6.6-5.7-9.4-11.9-10
		c-6.3-0.6-10.6,2.7-14.2,7.4c-1,1.3-1.7,2.8-2.9,4.6c-7.3-1.4-14.1-1-21.1,2.6c-4.9,2.5-11,2.2-16.8-0.9
		c1.6-10.9-2.3-19.7-10.7-26.9c-4.8-4.1-7.6-9.1-4.8-15.9c0.7-1.7,0.4-4,0-5.9c-1.6-9.1-3.4-18.2-4.9-27.3c-0.3-2.1,0.2-4.5,0.6-6.7
		c0.9-4.6,1.7-9.2,3.2-13.6c1.8-5.2,0.4-9.4-3.6-12.4c-4.6-3.4-4.6-7.2-3.4-12.2c3.6-16.2-2.7-21.9-17.8-22.1
		c-5.2-0.1-12,0.5-15.1-2.4c-6.6-6.2-14.3-12.2-16.6-22c-2.5-10.7-5.4-21.2-8-31.9c-2.7-11.4-9.1-14.3-19.8-9.7
		c-12.1,5.2-19.9,13.9-24.3,26.1c-0.9,2.5-2,4.8-3.3,7.9c-7.9-1.8-15.6-1.4-22.5,4.9c-8.2-21-17.2-40.7-21.9-61.8
		c-2.8-12.6-8.6-21.9-20.9-26.8c-5.5-2.2-10.9-5.1-16-8.1c-11.2-6.6-11.2-14.8-2.4-21c5.5-3.8,8.8-9,11.1-15
		c3.7-9.6,9.8-16.4,20.6-18.1c8.5-1.3,13.1-7.4,16.6-14.4c3.5-7.1,6.3-14.7,9.8-21.8c5.3-10.7,7.1-21.9,6.8-33.8
		c-0.2-6.8-1.9-12.9-6.4-17.3c-10.1-9.8-10.7-22.3-11.8-34.8c-0.6-6.3-0.5-12.6-1.7-18.8c-1.4-7.4-6.3-11.2-14-11.1
		c-7,0.1-11.7-3.2-14.5-8.8c-6-12.1-15.2-20.9-26.9-27.3c-4.3-2.3-6.1-5.7-6.4-10.4c-0.6-8.9-1.1-17.9-2.2-26.8
		c-1.3-11.4-7.7-19.4-17.5-25.1c-10.6-6.2-21.1-12.6-31.6-19.1c-1.7-1-3-2.6-4.8-4.2c1-3.2,1.4-6.6,2.9-9.5
		c3.3-6.4,1.7-11.9-1.7-17.7c-7.6-13.2-18-21-34-19.3c-15,1.6-28.8-4.5-43.2-6.5c-4.3-0.6-8.4-1.8-12.7-2.5
		c-13.8-2.3-23.2-11.5-31.9-21c-9.8-10.7-21.5-16.5-35.6-18c-4.8-0.5-10-0.7-14.6,0.4c-13.2,3.2-18.6,20.2-9.9,30.7
		c3.6,4.3,8,7.8,12.1,11.7c1.9,1.8,4.2,3.4,5.6,5.6c4.3,6.7,8.9,28.9,7.9,37.8c-5,2-10.5,3.6-15.4,6.3c-9.7,5.1-19,11-28.6,16.2
		c-3.1,1.7-6.7,3.1-10.1,3.1c-6.3,0-12.6-1-18.8-1.9c-6.4-0.8-10.4-6.3-9.4-12.7c0.5-3.2,1.9-6.4,2.4-9.6c0.6-3.5,1.2-7.1,1-10.6
		c-0.5-7.3-3.9-12.5-11.6-14.2C3746.2,2929.3,3745.1,2928.6,3743.3,2927.9z"/>
	<path onclick="modals(this.id);" id="1159" class="st0" d="M3959.6,2719.8c1.4,4.2,2.7,8.3,4,12.4c-12,4.3-21-1.6-30.3-7.4c-4.9-3-10.7-5-16.3-6.3
		c-2.3-0.5-5.6,1.4-7.9,3c-6.1,4.1-11.9,8.5-17.8,12.9c-9.7,7.1-9.7,7.1-11.5,18.8c-6.8-1.3-10.8,2.9-15,7.4c-3.1,3.3-7,5.8-10,8.2
		c-4.2-3.5-8.2-6-10.9-9.5c-4-5.2-7.8-10.8-10.5-16.7c-2.4-5.3-5.1-9-11-10.2c-3.5-0.7-6.8-2.6-10.2-4c-5.2-2.3-10.3-2.4-15.5-0.3
		c-11.5,4.6-13.7,8.1-13.4,21c0,1.6-0.5,3.2-1,5.5c-4.2-0.9-8-2.3-11.8-2.4c-3.5-0.1-7.5,0.6-8.9,4.9c-1,3.2,2.1,6.9,6.7,8.5
		c8.1,2.8,13.1,10.7,9.8,18.6c-2.9,6.9-3.2,13.2-1.5,20c0.2,0.9-0.2,1.9-0.4,3.1c-6.2,4.2-12.2,5.9-19,0.5c-2.4-1.9-6.1-2.6-9.3-3.1
		c-10.6-1.7-17.5-7.8-21-17.6c-1.9-5.3-5-9.1-9.7-12.2c-3-2-5.4-4.9-8.2-7.3c-4.7-4-6.7-8.5-4.7-15c2.2-7,0.4-13.5-4.3-19.6
		c-3.6-4.6-5.5-10.5-8.6-15.5c-5.2-8.3-9.8-17.2-16.4-24.3c-4.7-5.1-12-8.3-18.7-11c-6.3-2.6-12.4-1-16.9,4.9
		c-1.8,2.4-4.1,4.4-5.8,6.8c-2.8,3.9-6.4,5.4-11.1,5.5c-3.2,0.1-6.3,1.2-10,1.9c-7.1-9.1-15-18.4-21.9-28.4
		c-1.8-2.7-1.2-7.6-0.7-11.3c0.8-5.9,3.1-11.6,3.7-17.5c0.7-6.1-2.1-9.6-7.4-11.4c-8-2.7-12-2.1-15.4,4.2c-3.7,6.7-8.1,8.1-15.5,6.8
		c-7.4-1.3-15.4-1.1-22.9,0.1c-5,0.8-7.5-0.9-10.3-3.9c-5.3-5.6-10.5-11.1-15.8-16.7c-5.5-5.9-11.5-10.8-18.8-14.5
		c-7.7-3.8-13.2-9.3-13.4-19.2c-0.2-7.5-5.7-11.6-13.1-12.1c-1.7-0.1-3.5,0.1-4.9-0.5c-13.4-5.1-26.8-2.9-40.1,0.1
		c-4.6,1-8.8,4.3-13,6.8c-2,1.2-3.5,4-5.4,4.2c-8.1,0.6-12.2,5.9-15.9,13.7c-2.6-4-4.8-6.8-6.3-9.9c-3.4-7.5-8.6-12.8-15.3-17.7
		c-5.3-3.9-9-10.4-12.6-16.2c-0.9-1.5,0.5-5.2,1.9-7.2c10.9-15.5,11.7-34.4,17.6-51.6c-3.1-11.8,3.8-23.4,0.9-35.4
		c-0.9-3.9,1.2-8.5,1.8-12.7c0.4-2.6,0.9-5.3,0.7-7.9c-0.8-8.2-6.4-11-13.8-7.2c-1.1,0.6-2.3,1.1-3.7,1.8
		c-8.9-12-19.9-18.6-35.9-15.1c1.5-3.9,3-6.9,3.9-10c1.1-3.8,3.8-5.2,7.4-5.6c2-0.2,4.1-0.2,5.9-0.9c5-1.9,6-6.7,1.9-10.2
		c-7.7-6.6-15.7-12.9-23.1-18.9c0.4-6.6,0.7-12.7,1.1-19.7c2.8-1.2,6.1-2.5,9.3-4.1c2.6-1.3,5.4-2.7,7.6-4.6
		c5.7-4.8,5.9-9.4,1.1-15.3c-3.9-4.7-4.1-7.1,0.2-10.8c2.9-2.5,6.6-4.8,10.2-5.6c9.9-2.3,18.6-6.8,26.9-12.5
		c3.7-2.5,8.4-3.9,12.8-4.9c7.3-1.5,13.4-5,17.3-10.9c8.1-12.1,20-16.7,34.2-19.2c5.4,7.9,11.3,15.5,16.1,23.7
		c2.8,4.7,5.8,7.9,11.3,8.5c9.6,1.1,14.2,7.4,16.8,16c3.2,10.4,1.7,15.5-6.9,22.6c-5.2,4.3-5.9,7.9-1.6,11.4c1.7,1.4,4.7,1.8,7,1.4
		c2.8-0.4,5.4-2,9.1-3.5c4,10.8,7.6,21,11.6,31.1c1.6,3.9,3.4,8.2,6.5,10.8c5.6,4.7,10.6,2,11.1-5.3c0.2-2.6-0.4-5.4,0.1-7.9
		c0.4-2.1,1.8-5.5,2.9-5.6c2.2-0.1,4.7,1.4,6.8,2.7c0.9,0.6,0.9,2.5,1.6,3.6c3.3,5.2,7.6,6.5,12.4,2.4c5.5-4.7,11.4-6.3,18.4-5.7
		c5.6,0.5,9.5-2.2,12.2-6.9c1.3-2.3,2.8-4.5,3.4-5.4c7.6-2.2,13.7-4.6,20.1-5.8c8.4-1.7,17-3,25.5-3.7c11.7-1,23.2-2.3,32.6-10.3
		c4-3.4,8.4-6.7,11.3-10.9c6.6-9.5,12.3-19.5,18.7-29.9c0.3-0.1,1.2-0.8,2.1-0.9c7-0.8,13.1-6.8,21.2-0.3c5.5,4.5,14.8,2.7,20.7,8.7
		c2.1,2.2,6.2,2.3,9,3.9c4.8,2.8,9.7,5.6,12,11.4c1.6,4.2,5.6,6.6,9.6,4.5c12.7-6.8,26.7-3.9,40-6.3c15-2.6,30.2-4.2,45.4-6
		c5.5-0.7,10.8,0.5,16.3,1.8c9.7,2.3,19.9,5.6,30.4,2.4c5.6-1.7,10.8-0.9,16.4,1.7c7.1,3.4,15,5.2,22.4,8.2
		c4.6,1.8,8.6,4.9,13.2,6.9c5.4,2.4,10.9,5.2,16.6,5.9c5.2,0.6,10.3-0.7,14.9-5.6c4.1-4.3,10.2-7,17.2-8.5c13-2.6,24.9,0.3,37.2,2.6
		c1.2,0.2,2.6-0.2,4-0.3c3.4,5.3,0.3,14.5,8.6,16.4c5.8,1.3,12.1,0.2,18.5,0.2c0,0.5,0.5,2.3-0.1,3.7c-2.8,7.3-2,12.3,6.3,15.9
		c3.1,1.3,4.4,7,7.2,11.8c-11.1-0.2-16.1,5-17.6,14.5c-0.4,2.3-3.4,4.4-5.5,6.3c-1.9,1.7-4.2,2.9-6.1,4.1c0.4,1.4,0.3,2.4,0.8,2.7
		c10.2,6.5,9.6,16.3,7.7,26.2c-0.9,4.7,0.8,7.6,4.5,10c4.2,2.7,8,6.2,12.5,8.2c5,2.2,10.5,4.3,15.9,4.5c10.6,0.4,15.5,6.8,19.8,15.1
		c2.7,5.3,6.2,10.2,9.7,15c7.2,9.8,17.2,14.7,29.2,16.3c7.1,0.9,13.9,3.8,21.5,2c8.8-2.1,13.2,4.2,17.7,9.7
		c1,15.3-11.6,28.7-18.7,36c4.4,5.7,8.8,11.5,12.5,16.4c-1.9,8.2-3.3,15.5-5.4,22.7c-1.5,5-3.7,9.8-6.1,14.4
		c-0.7,1.4-3.3,2.7-4.9,2.6c-3.9-0.2-8.2-0.5-11.5-2.3c-4.6-2.4-9.1-2.8-14.1-3.5c-9-1.2-13-9-16.6-16.6c-1.5-3.2-3-6.8-5.6-8.9
		c-4-3.1-5.1-6.4-4.3-11.2c1.3-8.8-3-14.2-12-15.1c-4.6-0.5-9.4-0.5-14,0.2c-9.5,1.4-19,3.2-28.4,5.1c-2.4,0.5-5.9,1.5-6.6,3.2
		c-3.7,8.9-7.6,18.3-2.8,27.8c3.2,6.3,4.3,12.4,3.2,19.2c-0.3,1.6,0,3.3-0.1,5c-0.3,4.8,2.5,10.1-2.3,14.1
		c-6.1,5.2-11.9,10.8-20.6,11.1c-3.3,0.1-6.7-0.1-10,0.2c-11.4,1.2-17.4,8.8-16.7,20.3c0.4,5.9,0.4,11.9,0,17.9
		c-0.1,2-1.3,4.8-2.9,5.7c-6.4,3.5-7.3,9.8-9,15.9c-0.7,2.6-2.1,5.6-4.2,7.3c-3.2,2.6-7.7,3.7-10.8,6.4
		C3965,2711.6,3962.8,2715.5,3959.6,2719.8z"/>
	<path onclick="modals(this.id);" id="1166" class="st0" d="M5275.5,3775.6c-8.2-1.7-15.5-3.5-22.8-4.8c-4.1-0.7-7.7,0.5-10.8,3.8
		c-8.2,8.7-17.6,16-27.4,23.1c-11,7.9-18.6,19-17.9,33.9c0.1,2.3,0,4.7,0,6.6c-0.7,0.9-1,1.7-1.5,1.9c-15.7,7.1-15.8,7.1-26.3-6.6
		c-1.4-1.8-2.6-3.8-4-5.7c-3.1-4.2-6.9-6-12.2-4.3c-2.5,0.8-5.6,0.5-7.7,1.8c-9.9,6.5-19,2.5-28.1-1.9c-2.6-1.3-5.7-3.1-6.7-5.4
		c-4.8-11.2-9.1-22.6-13.4-34c-1-2.8-2.5-6-1.9-8.7c2.2-10-2.6-17.9-6.4-26.3c-1.9-4.3-4.4-6.1-9.3-5c-7.5,1.7-14.6,3.8-20.8,8.9
		c-7.8,6.4-21.3,6.2-29.7,0.5c-2.7-1.9-5.4-3.9-8.3-5.6c-2.8-1.7-5.8-3.1-9-4.7c0-3-0.4-6,0.1-8.9c1.2-7.9-10.1-12.1-15-8
		c-2.7,2.3-5,5.2-6.8,8.2c-2.5,4.3-4,9.1-6.4,13.5c-2.9,5.4-7.1,9.8-13.5,11c-6.4,1.2-11.1,4.6-13.9,10.3c-1.8,3.6-4.4,5.4-8.4,6.2
		c-3.6,0.7-7,2-10.3,3.5c-3.2,1.5-6.2,3.5-10.1,5.8c0-2.5-0.2-4.1,0-5.7c1-5.4-1.5-9.1-5.9-11.6c-5.8-3.2-11.9-6-17.8-8.8
		c-1.5-0.7-3.2-1-4.7-1.6c-14.2-5.5-15.6-8.8-9.8-23.1c3.8-9.4,2.9-12.1-6.7-15.9c-4.9-1.9-7.9-4.3-7.5-10.1
		c0.5-7.8,1.2-9.2,8.2-11.6c11.3-3.9,22.6-8,34-11.5c5.7-1.8,9.7-4.6,12.5-10.3c1.9-3.8,5.9-6.9,9.6-9.4c3.9-2.6,7.4-1.4,10,3
		c1.4,2.4,3.7,5.3,6,5.8c8.1,1.4,10.3,6.2,9.8,13.5c-0.1,1,0.3,1.9,0.6,4.1c3.1,0.6,6.9,2.4,9.9,1.6c7-1.9,13.5-1.3,19.4,1.8
		c2.9-10.2,6.1-19.6,7.9-29.2c0.9-4.9-0.4-10.4-1.3-15.5c-1.1-6.2-3-12.2-4.5-18.3c-0.6-2.5-0.9-5.3-1.9-7.6
		c-4.6-9.9-6.7-10.6-16.8-5.9c-6,2.8-14.9,1.5-17.4-4.4c-4.2-10-13.1-15.6-19.4-23.5c-4.9-6.1-7-12.4-8.2-19.7
		c-1.9-11.7-6.2-22.3-13.7-31.7c-4.4-5.4-9.4-9.3-16.4-10.4c-1.6-0.3-3.2-1-4.8-1.2c-6.5-0.9-10-4.7-10.3-11.2
		c-0.5-12-0.3-24,3.6-35.4c2.9-8.4,3.8-16.5,2.7-25.4c-1.1-8.8-0.2-17.9,0-26.9c0.2-6.6,1.5-13.3,1.1-19.9
		c-0.6-9.5-5.2-17-14.5-22.2c4.2-12.7,9.7-24,22.9-29.5c5.5-2.3,11.1-4.5,16.7-6.5c5.5-2,9.1-0.9,9.7,4.7
		c1.1,10.1,7.5,15.9,14.5,21.6c5.3,4.3,8.8,9.8,9.6,17.8c10,0,19.9,0.3,29.8-0.1c6-0.2,10.9,1.1,15.3,5.3c7.5,7,15.9,12.6,20.8,22.4
		c3.1,6.1,9.3,11.5,15.4,15.1c7.2,4.3,12.7,9.3,16.4,16.6c0.6,1.1,1.5,2,2.1,2.7c6.9-4.6,13.1-9.8,20.1-13.2
		c9.7-4.7,20.1-8,30.3-11.9c0.9-0.3,2.1-0.5,3-0.2c8,3,11.3-2.3,14.7-7.9c2.8-4.4,6.4-8.4,8.9-12.9c1.3-2.4,1.7-5.6,1.7-8.4
		c0.2-15.7-0.1-31.3,0.2-47c0.1-3.9,1.5-7.7,2.2-11.6c0.6-3.6,1.5-7.1,1.7-10.7c0.8-12.1,9.6-19.1,21.7-17.3
		c3.9,0.6,7.9,1.6,11.8,1.6c6.3,0,11.6,1.8,16.1,6.4c4.6,4.6,10.2,6.9,16,2.4c7.3-5.6,15.1-6,23.6-3.6c1.8,0.5,4,0.1,6.4,0.1
		c2.5-6.7,0.1-13.5,0-20.3c-0.1-3.9-0.3-7.9,0.6-11.7c1.5-6.7,4.2-13.1,5.7-19.9c1.6-7.6,5-13,13.3-14c13.2-1.5,21-8.7,25.1-21.5
		c3.2-9.7,8.4-18.8,12.9-28.1c2.9-6.1,8.4-11,7.9-18.7c-0.1-1.5,1.9-3.4,3.4-4.7c6.3-5.4,12.4-11.1,19.1-16
		c10.7-7.8,21.9-11.2,35.4-5.6c11,4.6,22.8,6.6,34.8,1.6c6.4-2.6,11.8,0.9,15.6,6c10.9,14.7,26.3,22.8,42.1,30.9
		c8.4,4.3,16.2,10.4,23.3,16.6c3.2,2.8,4.7,8,6,12.4c2,6.7,3.1,8.5,9.5,9c11.1,1,20.2-2.7,27.2-11.6c4.7-6,9.5-12,14.6-17.6
		c4-4.3,8.7-4.8,13.4-1.4c12.4,9,26.2,12.6,41.3,10.8c3.2,3.6,3.9,6.6-0.2,10.2c-2.2,2-4.2,5.3-4.4,8.2c-0.4,5.6-2.9,9-7.9,10
		c-12.3,2.5-19,11.3-25,21.1c-3.4,5.7-6.8,11.5-11,16.6c-2.6,3.1-6.4,5.7-10.2,7.2c-5.5,2.2-7.2,5.2-5.5,10.8
		c0.5,1.7,0.4,3.8,0.1,5.6c-1.1,5.2-2.8,10.2-3.9,15.4c-2.5,12.2-1.1,23.9,5.7,34.5c3.2,5,4,10,3.8,16c-0.4,16.3-0.1,32.6,0.5,48.9
		c0.4,10.5,1.6,11.5,11.4,14.9c10.6,3.7,21.2,7.4,32.2,11.3c-3.1,17.8-14.3,31.7-19.4,47.4c-22.7,11.5-47.2,16.2-71.2,22.4
		c-7.6,2-14,4.4-15.6,13c-0.1,0.6-0.3,1.4-0.7,1.8c-9.3,11.1-17.7,23.2-31.9,29.1c-15.1,6.4-28.7,15.1-40.1,27.2
		c-8.6,9.2-18.3,17.5-26.7,26.8c-10.9,12-21.3,24.5-31.6,37.1c-5.1,6.1-9.5,12.8-14.2,19.2c-0.8,1-1.6,2.7-2.6,2.8
		c-7.8,0.9-8.5,7.4-10.7,12.8c-2.8,6.7-5.2,13.5-8.7,19.9c-1.6,3-4.8,5.8-7.9,7.2c-5.8,2.5-8,6.5-8.3,12.3
		c-0.6,13.2-4.5,26.2-2,39.7C5277.8,3770.7,5276,3773.7,5275.5,3775.6z"/>
	<path onclick="modals(this.id);" id="1163" class="st0" d="M5037.9,2697.3c-0.8-9.1-2.1-19.2-2.5-29.4c-0.3-8.2,7.9-14.1,16.5-12.8
		c7.6,1.2,7.6,1.2,12.7-4.4c4.5,1,9.3,2.2,14.1,3.2c11,2.3,13.5-0.4,10.3-10.8c-0.2-0.6,0-1.3,0-2c10.6-7.1,28.2-4.3,35,5.8
		c1.7,2.5,3.3,5,4.5,7.8c2.1,4.8,5.2,8.3,10.1,10.6c5,2.3,8.2,6.1,10.4,11.4c2.3,5.6,4.8,12,13.3,12.6c1.5-3,3-6.1,4.8-9.7
		c7.2,1.9,10.3,6.8,11.2,13.7c2.9-0.5,5.1-1.1,7.4-1.2c3.6-0.3,8-1.7,10.8-0.2c7.8,4,16.4,3.6,24.4,6.2c7.1,2.3,12.2-2,12.1-9.5
		c-0.1-4.4-0.6-8.5-4.4-11.6c-1-0.8-1.1-4-0.3-5.2c0.8-1.2,3.4-2.2,5-1.9c3.5,0.7,7,2.1,10.4,3.5c5.6,2.4,10.9,4.2,16.9,0.4
		c1.6-1,5.6,0.8,7.7,2.3c2.3,1.7,3.8,4.5,5.6,6.9c2.7,3.6,5.8,5.7,10.8,5.9c8.5,0.2,15.2,3.3,17.8,12.8c1.6,5.9,5,11.5,8.2,16.8
		c1.2,1.9,4,4,6.1,4.1c4.5,0.1,9.4-0.3,13.6-1.9c3.9-1.4,7-1.4,10.2,0.9c20.2,14.3,43.8,20.5,67,27.4c7.3,2.2,14.6,4.5,20.9,6.4
		c4.6,9.7,8.6,18.7,13,27.4c3.4,6.7,9.3,9.4,16.7,8.3c15.3-2.3,30.4-0.5,45.4,1.7c9.1,1.3,16.6,6.7,22.9,13.2c1.9,1.9,2.6,5.2,3.1,8
		c0.7,4.2,0.4,8.6,1.1,12.9c1.5,10.2-1.7,16.6-12.3,20.1c-9.2,3.1-13.2,12.2-10.8,22c1.4,5.6,0.9,9.7-4.1,13
		c-1.1,0.7-2.4,1.7-2.8,2.8c-3.4,10.1-2.9,20.6-2.5,31c0.1,1.5,4.5,3.5,7.2,4.1c6.1,1.5,12.2,2.5,18.4,3.3
		c13.8,1.7,26.9-6.3,31.1-19.5c2.6-8.4,9.4-12.8,15.3-17.7c4.9-4.1,17.3,0.1,20.7,5.9c1.5,2.6,2.8,5.3,4,8.1
		c3.5,8.1,8.3,15.1,16.8,18.9c1.7,0.8,4.1,2.4,4.2,3.8c0.9,8.8,5.2,17.3,2.1,26.5c-3.4,9.9-4.1,19.5,4.1,27.7
		c7.3,7.3,15.4,12.7,26.4,11.9c1-0.1,2,0.3,3.7,0.6c2.2,9.7,0,18.1-7.4,25.1c-6.7,6.4-14,12.2-20.3,19c-2.9,3.2-4.4,8-5.7,12.4
		c-1.2,4.1-1.7,8.5-1.9,12.8c-0.3,5.3-2,9.7-6.2,13.1c-3.7,3-5.1,6.7-3.2,11.5c1.9,4.9,0.6,8.9-3.5,12.4c-2.8,2.3-5.4,5.1-7.2,8.2
		c-4.4,7.8-9.8,13.7-19,16.4c-6.3,1.9-8.6,9-6.7,15.8c0.7,2.5,2,4.9,3,7.4c2,4.7,2.6,9.4,0.9,14.5c-1.9,5.7-3.1,11.5-4.8,17.3
		c-1.9,6.7-1.7,13,1.9,19.2c1.8,3.1,3,6.7,4.5,10c1.3,3,2.7,6.1,4.5,10.2c-2.4,0.7-4.8,2.2-6.9,1.8c-10.4-1.9-20.8-3.8-29.7-10.6
		c-6.2-4.8-12.4-4.4-18,1.2c-5.1,5.1-9.7,10.9-14,16.8c-6.3,8.6-14.7,12.1-25.1,11.5c-3.8-0.2-5.9-1.6-6.7-5.8
		c-1.6-8.9-6.8-15.4-14.2-20.8c-7.3-5.3-14.6-10-22.8-13.9c-13.7-6.6-26.8-14.6-35.9-27.7c-4.7-6.7-12.4-7.6-20.2-6
		c-6.9,1.4-14.4,0.9-21.5,0.6c-3.6-0.2-7.3-1.4-10.5-2.8c-16.1-7.3-29-0.6-41.2,9.1c-4.2,3.3-7.9,7.1-12.1,10.4
		c-4.8,3.9-8.9,8-9.5,14.6c-0.5,4.6-3.2,6.4-7.7,5.2c-12.5-3.3-22.6-10.4-31-20c-3.5-4-6.9-8.1-10.6-11.8
		c-9.3-9.2-11.6-19.7-6.4-31.9c1.3-3.1,1.4-6.8,2.4-12.1c-5.9,2.9-9.9,5-14,6.9c-4.8,2.2-9.5,3.7-15.1,1.1c-2.9-1.4-7.2-0.9-10.6,0
		c-4.6,1.2-8.9,1.7-13.6,0.6c-6.1-1.3-12.2-3-18.1,1.4c-2.9,2.2-5.7,0-7.3-2.9c-5.9-10.7-14-19.3-24-26.2c-2.5-1.8-3.8-5.9-8.2-4.1
		c-0.5,0.2-1.8-0.7-2.3-1.3c-4.7-6.8-9.9-13.4-13.9-20.6c-3.8-6.8-7.3-13.3-14.4-17.4c-2.3-1.4-3.8-4.4-5.2-7c-2.4-4.4-4.4-8.9-7-14
		c-14.7-0.6-30,0.1-42.1-10.8c-2,1.2-3.7,1.8-4.8,2.9c-5.5,5.5-12.3,5.7-18.5,3.1c-7.7-3.2-14.7-8-21.8-12.5
		c-1.2-0.8-1.8-3.5-1.7-5.2c0.6-9.2,1.3-18.5,2.4-27.7c0.3-2.8,1-6.2,2.8-8.1c11.7-12.3,17.6-27.2,21.5-43.2
		c1.5-6.1,3.4-12.1,5.8-17.9c2.6-6.3,2.3-11.9-0.7-18.1c-7.5-15.5-16-30.6-20.1-47.6c-2.2-9-3.9-17.8-2.4-27.4
		c2.8-17.1,4.9-34.2,13.9-49.6c2.4-4.1,2.9-8.6,1.2-13.4c-3-8.9-2.2-17.3,2.7-25.8c3.4-5.9,4.8-12.8,5.5-19.9
		C5030.4,2711.2,5034.6,2705.1,5037.9,2697.3z"/>
	<path onclick="modals(this.id);" id="1136" class="st0" d="M4214.3,2049.4c0-14.9,0.3-28.5-0.1-42c-0.3-13.3-1.2-26.6-1.9-39.8c-0.4-7.6-0.8-15.2-1.3-22.9
		c-0.5-7.5,1.2-9.5,8.7-10c5.3-0.4,10.5-1.1,16.4-1.7c0.9,4.4,1.1,10.2,9.8,8.5c1.6-3.4,3.6-7.7,5.7-12.1c5.9-1.6,10.5-0.2,15.5,3.8
		c9.9,7.8,20.7,14.5,30.9,21.9c3.6,2.6,6.7,3.1,10.9,1.2c26.3-11.9,52.7-23.6,79.1-35.4c3-1.3,5.9-2.8,9.6-4.7
		c-6.3-7.7-4.2-15.9-4.2-24c1.2-0.6,2-1.5,2.9-1.4c14.6,0.4,29.2,0.9,43.8,1.4c7,0.3,13.9,1,20.9,1.2c31.3,0.5,62.6,0.9,93.9,1.4
		c1,0,2,0,3,0c9.4,0.4,13.6,3.6,12.3,12.7c-1.6,11.2-0.7,21.7,2.5,32.4c0.8,2.6-0.2,5.9-0.7,8.8c-0.6,3.5-3,7.5-1.9,10.2
		c2.1,5,6,9.3,9.4,13.8c2.3,3.1,5.6,5.5,7.5,8.8c5.6,10,11.7,19,22.7,24.2c8.7,4.1,16.8,9.8,24.9,15.1c2.4,1.6,4.3,4.1,6.2,6.4
		c2.1,2.5,3.7,5.6,6.1,7.9c7,6.9,12.2,14.8,16,23.8c3.7,8.6,11.3,13.9,18.2,19.6c4.2,3.4,5.6,6.8,5.4,11.9c-0.3,7.3-0.1,14.7-0.1,22
		c0,2-0.7,5,0.3,5.8c8.2,6.9,4.1,20,13.6,26.2c0.4,0.2,0.3,1.2,0.7,3.1c-7,0-13.8,0-20.7,0c-4.3,0-9-0.8-12.9,0.5
		c-6.6,2.2-12,1.8-18.9,0.1c-9.2-2.2-19.7-0.2-29.4,1.2c-5.8,0.8-9.8,5.3-11.1,11.5c-0.4,1.9-1.3,3.7-2.2,5.9c-5-1.7-9.6-3.3-14.4-5
		c-0.9-5.4-0.9-10.8-2.7-15.5c-1.9-4.8-5.3-9-8.5-13.1c-3.2-4.1-7-5.7-13-5.1c-5.1,0.6-10.8-2.2-15.8-4.6
		c-8.3-3.8-13.4-1.7-14.8,7.4c-0.6,3.6-0.5,7.4-0.1,11c0.9,7.9,1.6,15.9,3.6,23.6c1.2,4.6,3.7,10.4,7.4,12.5
		c7.5,4.3,10.8,11.6,16,17.5c2.9,3.3,4.8,7.6,3,12c-3.7,9-0.2,15.4,6.8,20.8c1.3,1,2.2,2.4,3.7,4c-2,0.8-3.4,1.5-5,2
		c-4.6,1.3-5.6,4.1-3.6,8.3c2.1,4.5,3.9,9.1,6.2,14.6c-10.2,2.3-20.4,4.7-30.3,7c-3.1-5-5.6-9.6-8.7-13.7
		c-2.9-3.9-6.5-7.3-10.6-11.8c-2.2,5.3-4,9.3-6.2,14.5c-5.6-2.5-10.3-4.5-16.6-7.3c-3.2,1.3-8,3.3-12.9,5.4
		c-7.1-1.7-13.3-7.6-21.7-6.1c-0.8,1.5-1.5,3-2.3,4.4c-5.6,9.1-12.5,10.4-21.1,4c-1-0.8-2.2-2.1-3.2-2.1c-3.5,0.1-7,1.2-10.5,1.1
		c-3,0-6-1-9-1.6c-0.4,0.6-0.7,1.3-1.1,1.9c1.1,1.8,2.1,3.7,3.4,5.4c2.3,3.2,4.8,6.2,7.2,9.4c2.7,3.6,3.3,7.8,1,11.3
		c-5.9,8.8-2.2,16.4,1.7,24.3c3,6.1,5.6,12.6,8.7,19.9c-6.7,3.3-12.2,6-18.2,9c-3.4-4-6.4-7.5-9.3-11c-8-9.7-11.1-10.3-22-4.4
		c-0.9,0.5-1.7,1-3.3,1.8c-7.2-3.5-14.7-7.2-23.8-11.7c0,3.9-0.8,7,0.1,7.8c4.2,3.2,4,6.9,2.9,11.4c-0.7,2.7-0.1,5.7-0.1,7.6
		c-28.6,0.5-56.4-0.9-84.3,1c-13.9,1-28,0.3-42,0.3c-8,0-16-0.4-24,0.2c-5,0.4-9.1,0-12.9-3.6c-1.5-1.4-4-2-6.2-2.6
		c-3.8-1-7.7-1.6-11.5-2.4c-2.7,1.7-5.7,3.5-8.7,5.3c-0.4-0.4-0.8-0.9-1.2-1.3c-0.7,3.2-1.7,6.3-2.1,9.5c-0.8,5.8-2.7,10.6-7.9,14.3
		c-2.8,2-4.6,5.6-6.2,8.9c-2.9,5.9-7.3,10.5-13,13.4c-5.8,3-12,5.2-17.3,9.4c-4.8,3.7-10.1,1.2-15-1.3c-2.2,4.5-4.3,9.1-6.5,13.6
		c-11.3-1.1-20.3-5.5-29-10.1c-4.3-2.3-7.7-7.5-10-12.1c-2.9-5.9-5.8-11.2-13.2-13.2c1.2-6.7,2.2-13.1,3.6-20.8
		c-4,1.7-6.7,2.7-9.3,3.8c-10.1,4.2-15.5,1.2-17.6-9.4c-0.6-3-2.4-5.9-3.2-7.6c-6.6-0.4-12.1,0.4-16.7-1.2
		c-11-3.9-21.7-0.8-32.5,0.2c-3.5,0.3-6.7,3.6-10.9,6c-0.4-8.6-5.5-13.6-10.7-18.6c-0.7-0.7-1.7-1.3-1.9-2.2
		c-3.1-10.6-12.6-12.7-21.1-16c-3.8-1.5-7.5-3.2-13.1-5.5c7-4.7,12.8-7.5,17-11.9c4-4.2,6.2-10,9.4-15.4c4.6-1.9,9.7-4.2,14.8-6.1
		c4-1.4,4.4-4.9,4.7-8c0.3-3.8,1-6.8,4-9.7c1.6-1.5,2.8-5.6,1.9-7.1c-4.6-7.2-3.6-15.5-5-23.2c-1.7-8.9-6.5-13.4-14.8-15.2
		c-5.1-1.1-10.2-2.5-15.4-3.8c0-12.6,0-24.5,0-37.4c17.3-0.2,34.2-0.1,51.1-0.7c16.4-0.6,32.9,0.5,49.6-0.7
		c-7.5-9.2-13.6-17.9-21-25.2c-6.8-6.6-15.1-11.7-22.9-17.3c-6.2-4.5-12.7-8.5-18.8-13.1c-5.6-4.2-11-8.1-17.6-11
		c-7.5-3.3-13.9-8.9-20.8-13.4c-2.2-1.4-4.5-3.2-7-3.6c-10.7-1.4-13.5-9.2-16.4-19.3C4017,2049.4,4115.6,2049.4,4214.3,2049.4z
		 M4284.1,2140.5c3-4,6.7-6.8,6.7-9.5c-0.1-7.6-6.2-14.7-2.7-22.9c0.1-0.2-0.3-0.6-1-1.6c-2-0.7-4.7-1.6-7.1-2.4
		c-1.7,2.3-3,4-4.3,5.9c-0.7-1-1-1.8-1.5-2c-1.8-1-3.6-1.7-5.5-2.6c-0.4,1.7-1.7,3.9-1.1,5.2c1.6,3.6-0.4,5.5-2.4,7.8
		c-6.1,6.8-12,13.8-18.5,21.2c5.8,2.5,10.3,4.5,14.9,6.5c-1.7,5.4-5,10.4,1.8,14.4c4.1,2.4,5.4,9.3,12.5,8.4c0-2.9,0-5.3,0-7.7
		c6-0.4,11.4-0.7,17.9-1.1c-2-4.3-3.4-7.3-4.8-10.2C4287.4,2146.5,4285.7,2143.4,4284.1,2140.5z"/>
	<path onclick="modals(this.id);" id="1165" class="st0" d="M4429.7,3300.1c2.9-3.9,5.6-6.8,7.5-10.3c7.3-12.7,17.8-21.2,31.8-25.7
		c8-2.6,15.1-6.6,20.3-13.7c3-4.1,5-7.6,2.4-12.6c-0.5-1-0.1-2.5-0.1-3.8c13.9-2.7,13.9-2.7,26.5-13.6c5-4.3,9.6-9.2,16.9-9.9
		c4.6-0.5,6.7-4.7,7.4-8.5c2-10.6,8.9-17.8,17.8-21c9.9-3.5,17.5-8.9,25.2-15.6c6.3-5.5,14.8-3.2,19.9,3.2c3.8,4.7,7.4,8.6,14.1,9.8
		c4.5,0.8,7.8,5.2,13.5,5.1c12-0.1,23.8-1.6,36.4-4.4c-0.5-3-1.1-5.4-1.4-7.9c-0.4-2.9-1.9-6.8-0.6-8.6c3.8-5.2,8.2-10.6,13.6-14
		c5.6-3.6,12.5-3.9,18.7,0.5c1.8,1.3,4.7,2.4,6.5,1.8c8.3-2.7,15.5,2.4,23.3,3c8.3,0.6,13,6.1,15.5,13.5c2.5,7.2,4.9,14.5,6.9,21.9
		c0.7,2.7,0.1,5.8-0.2,8.7c-0.6,6.7-3.7,13.4-0.8,21.9c6.4-4.5,12-8.3,17.5-12.3c8.8-6.4,12.8-6.6,21.4-0.2
		c5.1,3.8,9.6,8.2,14.6,12.1c9.2,7.4,18.1,5,23.1-5.9c1.5-3.3,3.4-6.6,5.9-9.1c3.5-3.6,7.4-2.6,9.4,2c4.2,10.1,8.3,20.2,12.6,30.9
		c-0.5,0.6-1.1,1.9-2.2,2.5c-13.1,7.5-20.8,20.5-31.1,30.8c-5.6,5.6-2.3,12.5,0.1,18.6c1.1,2.8,3.3,5,4.5,7.7
		c2.9,6.3,5.6,12.7,8.4,19c2,4.5,4.4,9,6.3,13.5c2,4.5,4.3,9.1,5.4,13.8c3.7,16.7,12.8,29.6,26,40c0.5,0.4,1,0.8,1.6,1.2
		c13.5,8.3,19.3,19.6,17.3,36c-1.6,13.4-0.1,27.2-0.4,40.9c-0.1,5.2-0.4,10.9-2.4,15.6c-6.1,14.5-3.6,29.6-3.9,44.4
		c0,1.6,1.4,3.9,2.9,4.7c3.4,2,7.1,4.4,10.9,4.6c12,0.8,18.7,8.4,23.3,17.9c3.8,8,7.4,16.7,8.2,25.4c1.1,12,9.3,18.6,15.8,26.7
		c2.6,3.3,5.7,6.3,8.2,9.7c3.3,4.6,6,9.4,12.1,11.2c4.4,1.3,8.2,1.6,12.5-0.5c8.3-4,12.9-2.3,14,6.6c1.2,9.7,4,18.7,6.8,27.9
		c1.1,3.4,0.1,7.8-0.9,11.5c-1.9,7-4.4,13.8-6.8,21.2c-7.4,0.4-15.4,0.8-22.4,1.1c-1.6-5.4-2-9.8-4.1-13.2c-1.5-2.5-5.3-3.6-8-5.4
		c-1.8-1.2-4.4-2.1-5.3-3.8c-1.9-3.8-3.5-7.1-8.6-6.7c-5.1,0.4-9.9,1.3-13.1,5.9c-0.4,0.6-0.9,1-1.1,1.6c-3.4,10.2-12,13.3-21.2,16
		c-7.3,2.2-14.5,4.8-21.7,7.4c-5.3,1.9-10.4,1.9-16.1,2.1c-14.6,0.3-27.9,5.9-37.2,18.1c-5.2,6.8-9.9,14-15.1,20.9
		c-3.6,4.8-6.1,10-4.4,15.8c2.5,8.5-0.1,16.2-3.7,23.1c-3.6,6.9-5.2,13.6-4.6,21c1,11.4-2,20.1-13.5,25.1c-5.3,2.3-9.7,6.6-15,9.2
		c-5.7,2.8-7.7,2-9.6-4c-1.6-4.9-4.3-8.1-8.9-9.9c-0.9-0.4-2.3-0.5-2.7-1.1c-9.7-17.4-33-15.3-43-32.3c-0.5,0.5-0.9,0.9-1.4,1.4
		c-0.3-2.3-0.4-4.6-0.9-6.8c-2-9.1-10.6-13.2-19-9.2c-13.8,6.6-13.8,6.6-21.7,5.9c-1.5-8.3-2.5-16.8-4.6-25
		c-2.8-10.5-6.3-20.9-9.9-31.2c-0.9-2.7-3.5-4.7-5.3-7.1c-15.2-19.4-35.8-32.5-55.1-47.1c-28.1-21.3-55.8-43.1-83.6-64.8
		c-0.7-0.6-1.2-1.5-2.4-3c1.8-1.4,3.5-2.6,5.2-4c1.3-1.1,3-2.1,3.4-3.6c3.2-9.6,6.3-19.2,9.1-28.9c0.4-1.2-0.6-3.5-1.7-4.4
		c-8.6-6.9-9.7-17-12.1-26.6c-2.6-10.6-5.5-21.2-8.5-31.7c-1.2-4.3-3.5-7.6-7.9-9.6c-4.9-2.1-7.7-5.9-7.1-11.8c0.2-2.3-0.6-6-2.2-7
		c-4.7-3.1-5.4-8-5.3-12.2c0-10.3,0.1-20.8,2.3-30.7c2.1-10,9.2-18.1,18.1-22.9c6.8-3.7,8.4-10.6,13-15.4c2.8-3,0.9-6.3-2.7-7.9
		c-7.8-3.5-15.8-6.7-23.6-10.2c-3.6-1.6-7.3-3-8.7-7.5c-0.4-1.3-2.3-2.2-3.6-3.1c-2.3-1.4-4.6-2.9-7.1-3.7
		C4446,3344.3,4436.8,3324.3,4429.7,3300.1z"/>
	<path onclick="modals(this.id);" id="1160" class="st0" d="M3963.4,2719.9c5-6.4,8.9-12.6,16.9-14.5c4.9-1.2,5.8-5.8,6.5-10.2c0.9-5.7,2.8-10.7,8.5-13.9
		c1.8-1,3.5-4.1,3.6-6.3c0.3-7.3,0-14.6-0.4-21.9c-0.4-7.1,3.7-12.7,11-13.7c3.3-0.5,6.6-0.5,10-0.6c8.4-0.3,15.4-3.6,21.6-9.1
		c5.5-4.9,9.9-9.9,6.6-18c-0.7-1.7-0.5-4.1,0-5.9c2.2-7.2,0.6-13.6-2.7-20.2c-4.1-8.2-1.3-16.3,1.3-24.2c0.5-1.6,2.6-3.5,4.2-3.7
		c12.5-1.9,25-3.4,37.5-5c5.6-0.7,10.5,0.9,15.1,5.5c-0.1,1.4,0.2,3.6-0.5,5.3c-2.6,6.4-0.2,10.7,4.9,14.6c2.2,1.7,4.1,4.5,4.7,7.1
		c2,8.5,8.2,13.4,14.5,18.2c0.8,0.6,1.8,1.5,2.6,1.4c8.1-1.7,14.6,3.3,21.8,5.3c9.1,2.5,13.3,0,16.2-9.3c0.4-1.2,1-2.3,1.8-4.4
		c1.7,1.6,2.7,2.8,3.9,3.7c8.2,6.2,18.2,3.8,21.9-5.6c2.8-7,6.6-13,12.5-16.4c8.5,1.6,16.3,2.7,23.8,4.8c3.2,0.9,6.3,3.5,8.5,6.1
		c2.8,3.3,4.2,7.6,6.9,11c3,3.8,6.8,7.1,10.2,10.6c2.3,2.3,4.8,4.4,6.8,7c8,10.3,19.2,9.3,25.2-2.6c1.2-2.3,2.3-4.7,3.3-6.7
		c7.3,1.1,14.1,1.8,20.8,3.1c2.8,0.6,5.6,2.1,7.9,3.8c12.4,9.6,25.5,15,41.6,9.6c4.8-1.6,10.5-1.3,15.6-0.7c8,1,15.8,1.2,23.7-0.9
		c4.4-1.2,9.3-1,13.7-2.2c4.9-1.4,9.6-3.6,15.4-5.9c0.6,1.1,2.2,2.8,2.4,4.7c0.9,10.8,4.6,20.6,9.1,30.3c3.7,8,5.7,16.9,8.9,25.2
		c3.7,9.5,8.5,12.1,19.2,11.3c2.3-0.2,4.9-0.3,6.9,0.6c5.4,2.7,10.5,3.5,16.1,0.6c1.4-0.7,3.7,0.2,5.5,0.7
		c8.4,2.5,11.5-0.2,12.2-9.2c0.3-4,1.6-8.9,4.2-11.6c4.4-4.5,4.9-9,3.7-14.6c-0.6-3-0.8-6.2-1.4-11c3.6,1.9,5.4,3.3,7.4,3.7
		c3.4,0.8,7.1,1.8,10.3,1.1c7.2-1.5,8.1-3.1,7.5-10.4c-0.2-3-0.7-5.9-1-8.8c0-0.5,0.5-1.1,1.1-2.3c11.3-2.5,20.3,1.6,26.5,11
		c1.4-0.5,2.3-0.5,2.6-1c8-9,10.8-8.5,15.6,2.5c2.8,6.3,5.7,12.6,9.2,20.3c2,1.6,5.5,2.4,9.8,1.1c2.2-0.6,4.6-0.4,7-0.4
		c7.1,0,9.8,1.7,9.6,8.4c-0.2,6.9,2.8,10.9,7.5,15.2c4.3,3.9,7.1,9.4,10.4,14.1c11.3-3.6,15.2-8.7,13.9-19.8
		c-1-8.5-0.1-16.2,7.2-21.5c4.4-3.2,9.8-5,14.1-7.2c13.1,16.3,18,34.4,20.4,53.4c1.2,9.4,5.4,17.7,10.6,25.6
		c0.9,1.4,2.4,2.7,2.6,4.2c1.2,9.6,4.3,18.5,7.2,27.7c2.1,6.8,1.8,14.4,2.3,21.7c0.5,8.8-1.7,11.9-10,14.9
		c-7.5,2.7-14.9,5.6-22.4,7.9c-2.1,0.7-4.9,0.1-7.2-0.7c-2.1-0.7-3.8-2.6-5.8-3.8c-12.8-7.8-19.3-7.2-30.6,2.1
		c-3.5,2.9-3,6.8-1.8,10.1c3.6,9.6,5,19.4,3.2,29.4c-2.2,12.4,5.3,21.1,11.8,29.5c6.3,8.2,9.5,16.6,8.9,26.6
		c-0.6,9.5,1.4,18.4,4.1,27.4c1.4,4.6,1.4,9.8,1.1,14.6c-0.3,6.3-1.6,12.5-2.6,19.5c-0.6,0.1-2.2,0.8-3.7,0.8
		c-40.7-0.2-81.3-0.3-122-0.6c-21-0.2-41.9-0.9-62.9-1.3c-23-0.3-46-0.9-69-0.5c-10.4,0.2-15.6-5.9-20-13.5
		c-1.9-3.4-2.7-7.5-3.7-11.3c-1.8-6.9-4.1-13.4-10.1-17.9c-4-3-4.5-7-3.7-11.6c1-5.9-0.6-10.2-5.5-14.7c-4.2-3.8-9.4-7.9-10.9-14.7
		c-0.5-2.3-4.6-5.3-7.2-5.5c-13.9-1.2-27.9-1.6-41.8-2.2c-1.3-0.1-2.5,0.4-4.3,0.7c-0.1,17.9,3.7,34.7,9.7,51.3
		c-8.7,3.4-14.7-1-19.4-5.9c-5.7-5.9-12.2-8.3-19.8-10.3c-6-1.6-12.2-4.2-16.9-8.1c-10.9-9.1-23.2-8.3-35.9-7.6
		c-9.6,0.5-19.2,0.8-28.9,1.1c-1.6,0-3.6-0.1-4.7-1.1c-7.7-6.4-16.5-4.3-25.3-4.3c-7.8,0-15.6-2-23.3-3.7c-3.2-0.7-5.9-2.8-9.3-0.3
		c-1.1,0.8-3.2,0.9-4.7,0.5c-11.1-2.9-20.9,1.1-31.1,5.3c-7.5-4.5-3.4-11.8-4.4-17.7c3.6-3.7,7-7.2,10.4-10.7
		c-1.9-3.4-3.4-6-4.9-8.8c1.2-1.9,2.3-4.1,3.8-5.8c2.7-3.2,3.6-6.5,1-9.9c-2.7-3.7-6.1-5.9-11.1-4.2c-3.7,1.3-7.5,2-11.7,3.1
		c-5.1-3.1-10.1-7.2-15.8-9.5c-10.4-4.3-14.1-14.5-20.9-21.9c-0.6-0.7-1.3-1.9-1.2-2.7c1.7-8-1.8-14.7-5.6-21.2
		c-1.4-2.4-2.9-5.1-5.1-6.7c-4.3-3.2-8.3-6.2-10.5-11.6c-1.6-4.1-4.9-6.4-10-7c-4.8-0.6-9.3-3.1-14-4.7c-2.8-1-5.5-2.6-8.4-2.9
		C3972.5,2739.6,3965.8,2732.3,3963.4,2719.9z"/>
	<path onclick="modals(this.id);" id="1148" class="st0" d="M4002.5,1406.1c-3.2,3.3-6.7,7.2-10.5,10.8c-6.6,6.2-7.4,11.5-0.6,17.7
		c10.1,9.2,11.7,20.2,8.7,32.6c-1.5,6-3.4,12.3,3.2,16.1c5.8,3.4,11-1.2,15.5-3.9c10.2-6.2,12.8-5.5,16.1,6.2
		c3.9,13.7,1.7,20.2-11.1,29.6c-5,3.7-8.1,7.3-7.1,13.9c1.2,7.4,4.8,12.1,12.2,11.9c6.1-0.1,12.3-2.1,18.3-3.5
		c2.3-0.6,4.5-1.9,8.4-3.6c-1,3.6-1,5.6-2,7.1c-6,9.4-2.4,18.1,3.8,24.7c7.2,7.7,10.6,16.7,13.8,26.1c2.9,8.6,8.5,11.2,16.9,7.7
		c0.3-0.1,0.6-0.3,0.9-0.5c8.8-6.9,17.7-10.4,27-0.7c10.7,0.7,18.1,7.6,25.8,13.8c5.2,4.2,10.4,5.2,16.4,1.5
		c1.9-1.1,4.3-1.4,7.1-2.2c-0.6,8.9-0.3,17.2,4.7,24.4c0.6,0.9,0.8,2.7,0.3,3.7c-3.7,7.7-0.2,14.3,3.2,20.8
		c3.1,5.7,4.6,10.1-1.4,15.7c-5.5,5.2-7.4,12.4-7.2,20.9c0.3,10.1-2,20.4-3.4,30.6c-0.7,5.6-4.2,7.8-9.7,7.7
		c-10.3-0.1-20.7,0.7-30.5-3.1c-7.8-3.1-13.5-0.1-18.2,6c-1.2,1.5-2.5,3.3-4.1,4.1c-5.4,2.8-7.7,7.8-10.9,12.6
		c-3.4,5.1-6.3,10.6-14.8,10.8c-4.8,0.1-9.7,5.6-12.3,11.2c-3.2,6.9-6.6,13.8-10.2,20.5c-0.9,1.6-2.5,3.3-4.2,4
		c-7,2.9-14.1,5.5-22.3,8.6c-9.7-18-19-35.3-29-53.9c-3.9,4.1-8.1,7.7-11.3,12.1c-9.6,13.7-20.7,24.7-38.5,27
		c-13.1,1.6-22.7,8.9-30.9,19.4c-10.8,13.9-23,26.6-35.1,40.3c-13.9-5-27.6-9.9-41.3-14.9c-17.2-6.3-34.3-12.7-51.5-18.8
		c-3.6-1.3-7.8-2.2-11.6-1.7c-14.1,1.6-28.4,1.8-41.9,7.1c-6.1,2.4-12.1-1.3-13.6-9.3c-1.1-5.6-2.6-10.1-7.8-13.1
		c-3-1.7-3.6-4.4-2.6-7.7c0.9-3.2,1.5-6.5,1.8-9.7c0.6-6.4-0.1-12.2-5.5-17.2c-3.2-3-4.5-8-6.9-11.8c-2.1-3.3-4.2-6.9-7.1-9.4
		c-5.8-5.2-8.1-11.2-6.7-18.7c1.3-7.5-0.3-14.3-4.3-20.9c-2.1-3.5-3.1-8-3.3-12.2c-0.6-10.8-3.3-20.4-8.6-30.1
		c-6.1-11.2-10.7-23.9-12.8-36.4c-1.3-7.8,1.9-17.2,5.6-24.7c7.5-15.5,16.6-30.2,25.4-45.1c3-5,4.6-10,4.6-15.9
		c0-7.8-0.6-16.2,5.2-22.7c2.6-2.8,5.8-5.2,9.1-7.2c3.1-1.9,6.5-3.6,10-4.5c12-3,20.2-10.2,26.1-20.9c7.3-13.1,19-22,31.4-29.9
		c4.8-3.1,8.8-6.6,6.9-12.8c-0.9-3-3-6.4-5.5-7.9c-7.9-4.8-9.7-11.9-10.2-20.3c-0.8-12.3-4.7-15.4-15.6-17.9
		c-12.9-3-26.7-6-35.6-18.2c-1.2-1.6-4.5-1.8-6.9-2.3c-2.5-0.5-5.4,0.1-7.5-1c-9.6-4.8-18.5-10.9-24.5-19.9c-5-7.5-9.8-15-19.6-17.4
		c7.4-7.8,11.3-17.3,20.6-22c-2.8-8.1-13.6-11.4-9.3-21.9c2.4,0.7,5.1,1.5,7.8,2.2c8.1,2.1,15.7,2.9,23.8-1.7
		c10.9-6.1,13.6-4.9,23.4,4.8c11.3,11.1,24.4,13.2,36.9,5.1c6.9-4.5,13.2-9.8,19.4-15.3c3.8-3.4,7.2-6.2,13-6
		c7.8,0.2,13-4.4,15.5-11.7c1-2.8,1.8-5.7,2.7-8.6c6.6-3.1,13.3-4.3,20.4-3.2c5.8,0.9,10.8-0.4,16.1-3.4c6.8-3.9,14.7-5.9,21.8-9.5
		c8.5-4.4,16.7-9.4,24.8-14.6c7.5-4.9,8.4-5.4,15.9-0.4c4.6,3.1,9.5,4.2,15,4.4c5.1,0.2,10.2,1.6,15.1,2.4c-4.1,4.6-7.4,8.3-10.7,12
		c-1.5,1.7-3,3.4-4.8,4.9c-5.6,4.9-6.6,8-3.9,14.8c1.2,3.1,3.3,5.8,4.7,8.8c1.3,3,2.8,6,3.3,9.2c2.8,17,13.8,29,30.2,32.6
		c2.2,0.5,4.5,1,7,1.6c1,8.3,4.3,15.3,10.3,21.1c5,4.9,6.1,10.4,2.5,17.2c-1.9,3.5-3.1,8.4-2.4,12.2c1,5.8,4.9,10.2,11.4,10.9
		C3996.4,1388.3,4000.9,1395.2,4002.5,1406.1z"/>
	<path onclick="modals(this.id);" id="1146" class="st0" d="M5087.7,1834.7c32.9,4,65.4,8,97.5,12c6.3,13,15.3,24.1,15.5,39.5c-7.2,3.7-10.4,10.3-11.5,18.2
		c-0.1,0.7-0.3,1.3-0.4,1.9c-5.6,19.5-16.2,26.1-36.4,22.5c-0.6-0.1-1.3,0.2-3,0.6c-0.6,7.1-1.8,14.6-1.9,22
		c-0.4,39.3-0.4,78.6-0.8,117.9c-0.4,38.6-1.3,77.2-1.9,115.8c-0.7,41.6-1.3,83.2-2,124.8c-0.1,3.3,0,6.5,0,10.9
		c-13.5-2.5-25.7-5.4-38.1-6.9c-7.7-0.9-13-3.9-16.6-10.6c-0.9-1.7-2.4-3.3-4-4.4c-7-5-14.3-9.5-20.1-16.1c-2-2.2-5.8-3.1-8.9-4
		c-7.7-2.3-15.1-5.1-19.8-12.3c-0.5-0.8-1.2-2-2-2.2c-10.5-2.5-17.8-11-28.4-13.8c-49.1-13.2-98-27.3-147-41c-2.5-0.7-5-1.6-8-2.6
		c3.7-2.9,6.7-5.4,9.7-7.8c3.5-2.9,5.3-6.3,5.3-11.1c0-4.1,1.3-8.4,2.7-12.3c2.7-7.6-0.8-12.9-6.1-17.5
		c-12.8-11.1-26.4-21.4-38.4-33.3c-9.3-9.3-19.5-10.5-31.6-10c-25.6,1.2-51.2,1.3-76.8,1.8c-7.9,0.2-15.9,0-25.3,0
		c0-9.2-0.4-18.5,0.1-27.6c0.4-6.4-1.7-10.5-6.9-14.1c-9.2-6.3-16.2-14.5-20.2-25.3c-1.6-4.2-4.9-7.8-7.7-11.4
		c-3.7-4.7-7.4-9.4-11.6-13.7c-2.9-3-6.3-5.6-9.8-7.8c-9.3-5.9-19.4-10.8-28-17.5c-5.8-4.6-10-11.4-14.1-17.8c-2.9-4.4-4.9-9-9.9-12
		c-3-1.8-3.9-6.6-6.4-9.7c-3-3.7-0.6-6.6,0.2-10.1c1-4.3,1.5-9.3,0.3-13.5c-2.3-7.9-2.8-15.6-2.1-23.7c0.5-5.5-0.3-11.2-0.4-16.1
		c-4.8-2.8-8.7-5.1-13.4-7.9c9.4-8.3,18.7-10.8,29.5-9.3c9.5,1.4,19.1,2.2,30,3.4c-0.3-8.5,1.6-16.4-1.8-24.6
		c-4.5-11.1-8.5-22.4-12.6-33.6c-1-2.7-1.8-5.5-3.3-9.8c3.8,1.7,6.1,2.6,8.2,3.8c13,7.4,26.1,14.8,39,22.3c7.1,4.1,13.7,8.8,20,14.4
		c6.3,5.7,15.3,10.6,23.7,11.6c16.8,1.9,26.8,10.3,32,25.7c1.9,0.3,3.5,0.8,5.1,0.8c30.9,0.7,61.9,1.3,92.8,2.1
		c18.9,0.5,37.9,1.3,56.8,1.9c3.2,0.1,6.4-0.3,8.6-0.4c1.8-7.6,3.1-14,5-20.3c1.9-6.1,4.3-11.9,12.3-12.4c1.9-0.1,4.4-2.1,5.4-3.9
		c4.9-8.2,11.8-10.7,20.9-9c7.6,1.4,9.5-0.1,7.5-7.4c-3.8-14.2,2.9-24.7,11-35c2.2-2.8,4.7-3.8,8.7-2.8c4.6,1.2,9.7,0.9,14.5,1.5
		c1.8,0.2,3.7,1.1,5.3,2.1c3.3,2.2,6.2,5.1,9.6,7c2.1,1.1,5.6,1.9,7.3,0.8c4.4-2.6,9.9-1.8,13.9-6.3c3.7-4.1,10.8-2.2,13.4,2.9
		c4.2,8.6,9.7,15.5,18.2,20.4c4.1,2.3,6.7,7.2,9.7,11.3c4.9,6.8,11.5,9.6,19.7,9.5c4.3-0.1,8.5,0.8,12.8,1.1
		c4.1,0.3,6.5-1.5,6.3-5.7C5088.8,1845.9,5088.2,1841,5087.7,1834.7z"/>
	<path onclick="modals(this.id);" id="1153" class="st0" d="M3511.3,2390.6c-6.4-1.1-8.7-4.5-10.3-8.7c-3.3-9-6.6-18-10-27c-3.6-9.7-4.1-9.8-13.4-6
		c-1.2,0.5-2.4,0.9-4.1,1.6c-1.1-1.5-2.2-3-3.5-4.7c1.8-1.6,3.2-3.1,4.8-4.2c7.9-5.6,9.4-13.3,7.2-22.1c-2.5-9.6-5.7-18.9-17.5-20.5
		c-6.6-0.9-10.3-4.7-13.5-10.2c-3.6-6.3-8-12.2-12.3-18c-2.2-2.9-2.9-5.5-2.1-9.1c1.7-7.8,2.7-15.7,4.3-23.5c0.5-2.5,1.9-5.1,3.5-7
		c6.9-7.9,6.2-16.6,2.7-25.3c-2.1-5.3-5.2-10.2-2-16c-3.9-8.9,1-21.1-10.5-27.1c-1.5-0.8-2.7-2.9-3.2-4.6c-1.2-3.9-3.8-5.6-7.5-4.8
		c-8.5,1.8-15.9-3.4-24.5-3c-0.8-7.5-2.1-13.6,5.1-19.1c8.7-6.6,8.8-17.6,1.7-26.4c-2.5-3.1-5.7-5.6-8.7-8.1
		c-6.4-5.5-6.1-12.8,1.2-16.7c6.3-3.4,12-7.1,15.6-13.5c0.8-1.4,2.2-2.6,3.6-3.4c6.6-4.1,13.4-8.1,21.3-12.9
		c4.4,3.5,10.2,7.4,15.1,12.1c2.6,2.5,5,2.7,8.1,2.3c9.9-1.1,19.7-2.7,29.6-3.1c7.5-0.3,12.7-3.1,15.8-9.9c1.2-2.7,2.5-5.4,3.5-8.2
		c2.7-7.5,4.7-15.2,11.1-20.8c2.2-2,3.5-5.8,4-9c1-6.4,4.3-11.1,8.8-15.2c4.9-4.4,7.4-10,9.5-16.1c2.6-7.8,6.1-15.3,9.6-24.1
		c5,1.2,10,2.4,15,3.8c2.9,0.8,5.6,2.2,8.6,2.6c9.2,1.3,16-3.9,16.9-13.2c0.6-6.2,2.9-9.7,9.3-10.9c5.8-1.1,11.4-3.3,17.2-4.8
		c1.9-0.5,4.4-1,5.9-0.2c6.6,3.7,13.5,1.9,20.3,2.1c7,0.1,10.1,1.8,11.2,8.6c1.3,7.8,5.7,11.9,12.3,15.2
		c10.9,5.6,21.6,11.6,33.8,12.3c2.2,4.1,4,7.5,6.3,11.7c11-4.2,21.4-8.2,30.7-11.8c17.4,16.4,34.1,32.1,51.4,48.4
		c3.6-0.8,8.3-1.6,13-2c6.6-0.6,13.6-5.3,18.9-9.8c5-4.3,10.3-6.6,16.4-8.6c8.8-2.9,18.5-4.6,25-14c6.6,8,16.6,11.8,21.5,21.6
		c1.5,2.9,5.2,5,8.3,6.6c5.8,2.9,8.7,7.2,10.5,13.5c2.9,10.5,6.9,20.7,10.9,30.9c2.3,5.7,6.3,9.4,12.8,11.5
		c6.7,2.2,12.6,6.9,18.8,10.6c3.1,1.9,5.8,4.9,9.2,5.9c9,2.7,15.2,9.2,22.4,14.5c8.5,6.3,17.2,12.5,26.3,17.9
		c11.3,6.7,18.3,16.9,25.4,28.6c-32.1,0.7-63.4,1.4-95.4,2.1c0,14.4,0,27.9,0,42.6c5.3,1.3,10.7,2.7,16.1,3.8
		c8.3,1.6,13.9,5.1,14.9,14.6c0.7,7.2,4.5,14.4,4,21.3c-0.6,7.3-3.9,14.7-7.6,21.1c-1.7,2.9-7.3,4.1-11.4,4.9
		c-3.8,0.8-6.4,2.6-7.3,5.9c-2.4,9.7-9.3,15-17.4,19.4c-2.3,1.3-4.3,2.9-6.8,4.6c2.1,5.9,6.8,8,11.8,9.9c5.2,2,11.1,3.4,15.3,6.8
		c7.8,6.4,13.8,14.8,17.7,24.1c3.1,7.4,0.6,11.1-7.4,10.7c-6-0.3-12.4-2.2-17.8-5c-6.1-3.2-11.8-6.8-18.8-8.4
		c-6.1-1.3-12-4.1-17.5-7.1c-5.3-2.9-10.6-3.7-16.3-2.2c-11.8,3.1-22.9-0.3-34.1-3.1c-3.1-0.8-6.5-1.4-9.6-1
		c-21.4,2.5-42.8,6-64.3,7.6c-8.7,0.6-16.9,1.1-24.8,4.8c-2.9,1.4-6,0.5-7.4-3c-3.4-8.2-11-11.1-18.2-14.5c-10-4.7-20-9.4-30.2-13.6
		c-2.7-1.1-6.4-0.4-9.5,0.2c-4,0.8-7.8,2.4-12,3.8c-6.4,10.6-12.8,22.3-20.3,33.1c-6,8.7-15.5,13.6-25.7,16
		c-7,1.7-14.5,1.2-21.7,2.4c-7.8,1.3-15.5,3.3-23.2,5c-0.3,0.1-0.6,0.3-0.9,0.4c-9.5,1.2-18.5,2.8-22.8,13.4c-0.8,2-6.5,3-9.9,2.9
		c-6.2-0.2-11.5-0.2-16.1,5.3c-3,3.7-6.1,2.8-8.9-1.2c-0.9-1.4-1.2-3.7-2.4-4.3c-3.1-1.5-6.8-3.6-9.8-3c-2.3,0.5-4.8,4.5-5.4,7.3
		C3510.6,2380.8,3511.3,2385.2,3511.3,2390.6z"/>
	<path onclick="modals(this.id);" id="1149" class="st0" d="M3792.7,2017.7c-16-15.9-32.3-32-48.9-48.6c-10.2,4-20.3,7.9-30.1,11.7
		c-1.2-0.7-2.1-0.9-2.2-1.3c-2-7.2-6.3-10.4-14.2-11c-11.9-0.9-21.4-8.6-31.5-14.2c-1.8-1-2.3-4.5-3-6.9
		c-3.2-11.4-7.5-14.2-19.4-13.2c-4.1,0.3-8.4-1-12.6-1.5c-3.2-0.3-6.6-1-9.6-0.4c-6.2,1.2-12.1,3.3-18.3,4.8
		c-7,1.7-10.6,5.9-11.6,13.1c-1.2,9.3-7,13.9-15.6,10.3c-12-5.1-26.4-3.6-36.7-13.7c-4.2-4.1-8.7-2.7-13,1.7
		c-1.9,1.9-3.7,3.8-5.3,5.5c-5.3-0.3-6.3-3.1-5.6-7.5c2.8-18.3-11-30.5-29.4-25.4c-5.8,1.6-9.7,1.6-14.2-2.9
		c-3.1-3.1-7.8-4.7-12.3-7.2c0.1-7.1,2.7-12.1,10.2-14.7c6.5-2.3,12.9-5.4,15.8-13.3c-2.1-1.5-3.8-2.9-5.8-3.9
		c-1.7-0.9-4.7-1-5.2-2.3c-3.2-7.5-10.2-7.5-16.5-9.5c-13.2-4.1-26.6-7.9-39.2-13.4c-7.8-3.4-13.9-9.9-14-20
		c-0.1-7.5-1-15.2-7.3-20.5c10.4-7,20.1-13.6,30-20.1c2.7-1.8,5.7-3.3,8.8-4.5c3.6-1.3,6.4-2.6,7.6-6.9c0.5-2,3.3-4,5.6-4.9
		c13.4-5.1,16.1-16.8,17.8-28.9c0.3-2-1.5-5.2-3.3-6.5c-3.9-3-8.3-5.6-12.9-7.6c-9.3-4.1-15.6-10.9-19.6-20.1
		c-2-4.5-4.4-8.8-7.2-12.9c-2.3-3.3-2.2-6.1-0.2-9.1c2.6-3.8,5.2-7.7,8.1-11.4c7.4-9.5,10.2-20.6,8.3-31.9c-1.2-7.1-6-13.8-10.3-20
		c-2.9-4.3-7.4-7.7-11.5-11c-5.8-4.6-9.1-10.3-9.8-17.7c-0.2-2.6-1.1-5.2-1.2-7.8c-0.4-11.5-5.5-20.6-14.3-27.4
		c-11.5-8.9-17.7-21.4-24.2-33.8c-3.1-5.9-3.2-12.2,1.9-17.5c10.4-10.7,20.2-22.1,31.5-31.9c7.6-6.6,17.3-10.9,27.3-3.4
		c3.1,2.3,5.3,5.7,7.8,8.7c1,1.3,1.7,2.9,2.6,4.3c6,9.6,6.3,9.7,15.9,3.2c0.9,0.2,2,0.2,2.8,0.8c15.4,10.6,29.9,22.1,36.5,40.5
		c1.8,5.1,4,9.7,8.2,13.3c3.8,3.2,5.9,7.5,8.4,12c5.4,9.8,14.7,15.9,25.7,20.8c6.7-9,13.2-17.7,19.5-26.6
		c5.2-7.3,11.1-13.9,14.1-22.7c2.2-6.5,2.8-12.3-1.2-18c-6.4-9.1-11.4-18.7-12.9-29.8c-0.6-4.4-3.9-6.1-7.5-7.1
		c-7.4-2-11.9-6.9-14.4-13.8c-3.4-9.3-7.2-18.6-9.9-28.1c-1.8-6.3-5.9-9.3-11.1-11.9c-11.5-5.7-19-20.4-16.9-33.2
		c1.2-7.5,4.6-9.5,11.9-6.8c10.3,3.8,17.6,1.5,21.5-8.5c4.2-10.8,14.1-16.6,20.2-25.5c1.3-1.9,4.5-2.6,7-3.5
		c6.5-2.6,13-5.1,19.5-7.4c8.8-3.2,15.7-8.1,19.1-17.5c2.4-6.4,8.3-7.1,11.9-1.2c6.7,11.1,16.7,15.7,28.8,17.2
		c9.2,1.1,16.7,6.3,24.5,10.4c3,1.6,5.1,5.1,7.1,8.1c5.6,8.5,12.5,15.5,21.1,21c6.2,4,12.5,7.8,20.4,5.7c9.4,14,24.6,16.7,38.8,20.9
		c9.4,2.8,11.7,4.1,12.2,13.9c0.4,9.9,3.3,17.8,12,23.7c6.3,4.3,5.6,9.7-0.8,14.6c-7.3,5.7-15.3,10.8-21.7,17.3
		c-6.7,6.8-11.7,15.2-17.7,22.7c-1.9,2.4-4.3,4.9-7,6.3c-6.2,3.1-12.7,5.9-19.3,8.2c-12,4.1-18,12.9-17.6,24.8
		c0.3,11.3-2.8,20.5-8.8,29.8c-7.2,11.1-13.3,22.9-19.3,34.7c-3.2,6.2-5.5,12.8-7.6,19.4c-1.7,5.1-2,10.5-0.2,15.6
		c4.3,11.5,7.9,23.4,13.6,34.2c4.3,8.3,6.3,16.5,7.3,25.5c0.6,5.4,1.8,11.1,4,16c3,6.8,5.8,13.2,3.4,20.9c-1.6,5.1-0.6,10,3.3,13.9
		c5.5,5.4,10.7,10.8,12.8,18.6c0.6,2.1,2.2,4.2,3.9,5.7c8.3,7.3,7.3,16.7,4.9,25.7c-1.5,5.5-0.7,8.9,3.8,11.9
		c4.1,2.8,5.7,6.8,6.9,11.6c2.5,10.7,9.9,13.2,20.2,10.4c15.6-4.2,31.5-9,47.8-3.5c27.1,9.1,53.8,19.1,81.1,27.5
		c12.2,3.8,17.8,10,18.8,22.7c1.2,13.8,5.3,27.4,6.7,41.2c1.4,14.5,1.2,28.9-7.8,42c-5.3,7.6-10.3,15.3-16.3,22.5
		c-8.6,10.3-19.1,15.5-31.7,18.1c-3.1,0.6-5.9,2.8-8.6,4.7c-4.7,3.2-8.9,7-13.8,9.7c-2.9,1.6-6.7,1.5-10.2,2.1
		C3799.9,2016.6,3796.4,2017.1,3792.7,2017.7z"/>
	<path onclick="modals(this.id);" id="1162" class="st0" d="M4866.9,2686.9c-1.1,2.6-2.2,5.3-3.6,8.5c9.1,6.3,17.4,1.4,26.1-2c1.5,1.7,2.7,4.2,4.7,5.2
		c1.9,1,4.5,0.6,6.9,0.6c27.7,0,55.3-0.2,83,0.1c15.6,0.1,31.2,1,47.7,1.6c-7.1,13.6-4.7,29.3-13.3,42.3c-2.9,4.4-1.6,12.4-0.4,18.4
		c1.3,6.3,0.9,11.9-2.2,17.2c-8.8,15.1-10.7,32.1-12.8,48.9c-2.4,18.9,4.7,36,12,52.8c3.4,7.9,7.7,15.5,11.6,23.2
		c2.3,4.7,2.5,9.1,0.2,14.3c-3.2,7.5-5.5,15.6-7.5,23.6c-3.2,12.8-8.6,24.4-17.7,34.2c-3.6,3.9-4.8,8.3-5.1,13.6
		c-0.5,8.9-1.6,17.8-3.1,26.5c-0.9,5.1,2.1,7.4,5.4,9.7c4.5,3.2,9,6.6,13.9,9.1c4.1,2,8.7,2.9,13.2,3.9c2.5,0.6,5.1,0.5,9.3,0.9
		c-2,8.9-3.7,17.2-5.9,25.3c-0.4,1.5-2.7,2.7-4.4,3.4c-4.9,2.2-9.7,4.7-14.8,5.9c-16.1,3.8-24,16.9-33.4,28.3
		c-0.3,8.9-8.4,12.6-12.7,18.8c-3,4.4-6.4,8.5-12.6,8.7c-1.8,0.1-3.9,1.3-5.2,2.7c-3.5,3.6-7,2.7-10.9,0.7
		c-7.6-3.8-11.4-2.9-14.6,5.1c-3.7,9.4-8.5,18.7-7.5,29.5c0.5,6.1,0.1,12.2,0.1,18.9c-5,0.6-10.3,1.2-15.5,1.9
		c-6.3,0.8-9.3,3.4-8.9,9.7c0.4,7.2,1.1,14.7,3.5,21.5c5.5,15.6,0.6,29.2-6.2,45.1c-1.5-8-4.8-12.5-10.5-14.8
		c-11.3-4.6-17-14.4-22.1-24.5c-3.2-6.5-5.6-13.5-8.3-20.3c-2.9-7.2-8.3-8.7-13.7-3.2c-3.2,3.2-5.5,7.4-7.6,11.5
		c-4,7.7-9.9,9.4-16.8,4.1c-4-3-7.6-6.5-11.5-9.5c-3.7-2.8-7.5-5.4-11.6-7.5c-4.8-2.4-9.5-1.9-14,1.6c-5.1,4.1-10.6,7.7-17.7,12.7
		c0.6-5.3,0.4-8.7,1.5-11.7c2.6-7.4,1.6-14.3-1.2-21.3c-2.2-5.5-3.5-11.4-5.5-17.1c-3.1-8.5-8.5-14.1-18.2-14.4
		c-2.9-0.1-5.8-1.2-8.7-1.8c-9.7-2.2-19.7-2.4-29.3-5.5c-5.5-1.7-12.7-0.9-15.8,6.9c-0.7,1.9-3.4,3-5.3,4.5c-7.6,6-8,7.4-5.3,17
		c0.4,1.3,0.5,2.6,0.9,4.5c-11.1,3-22.1,4.9-33.4,4.3c-2.1-0.1-4.2-1.4-6.3-2.3c-2.7-1.1-5.3-2.4-7.9-3.6c-2-1-4.3-1.7-5.9-3.2
		c-8.1-7.5-8.3-13.2-2.6-23.8c6.7-12.4,15.5-23.8,19.1-37.8c2-8,9.5-10.5,15.6-14.4c1.4-0.9,3.8-0.6,4.6-1.6
		c6.4-8.5,16.5-10.5,25.4-14.6c3.6-1.7,7.1-3.6,10.9-4.9c9.2-3.2,13.5-10.3,15.7-19c1.4-5.7-0.9-10.1-6.3-10.2
		c-11.4-0.4-17.7-9.7-28.1-13.3c1.7-4.2,3-7.6,4.4-10.8c1.3-2.7,2.9-5.2,4.2-7.9c3-6.3,4.6-12.3,2.7-19.9
		c-3.2-13.1-4.4-26.7-5.8-40.1c-0.4-4.1,0.8-8.6,2-12.7c1.6-5.7,1.3-11.2-0.9-16.6c-3.4-8.8-4.4-18-4.1-27.4c0.4-10-1.7-18.8-9-26.5
		c-4.5-4.8-8.1-10.7-10.7-16.7c-1.7-4-2.2-9.2-1.3-13.5c1.7-8.8,0.8-17.1-2-25.5c-1-3-0.6-6.4-0.9-9.1c11.1-10.6,21.5-8.8,31.5-0.2
		c4.8,4.1,8.9,4,14.3,1c4.8-2.7,10.4-4,15.8-5.6c15.1-4.5,18-9,15.3-24.8c-0.5-3.2-0.7-6.6-1.1-10.2c6.3-1,9.6-4.8,9.9-10.5
		c0.3-5.5,3.9-7.8,7.5-11c9.6-8.7,20.6-12.6,33.4-12.4c1.5,0,3.3-0.8,4.6-1.6c7.3-4.6,15.3-8.4,21.5-14.2c6.4-6,11.8-13.4,16.2-21.1
		c2.5-4.3,5.2-7.4,9.1-10c4.1-2.7,8.1-5.7,12.7-9.1c3.1,1.8,4.7,4.1,1.7,8.2c-2.5,3.4-4.5,8.1-0.7,10.7c4.8,3.4,7.1-2.1,10.2-5
		c3.2-3.1,7.3-5.3,11.9-8.6c0.4,7.1,4.4,7,8.6,6.6L4866.9,2686.9z"/>
	<path onclick="modals(this.id);" id="1156" class="st0" d="M4953.2,2493.1c1.1-11.5-2.1-20.9-11-28.3c-3.2-2.7-5.4-6.8-7.3-10.6c-6-12-15.8-16.4-28.7-14.9
		c-7.8,0.9-14.9,0.2-17.7-9.9c-3.7,0-7.2,0-10.8,0c-21-0.2-42-0.4-62.9-0.7c-37.9-0.4-75.9-0.9-113.8-1.3
		c-23.3-0.3-46.6-0.4-69.9-0.7c-42.9-0.6-85.9-1.3-128.8-2c-23.6-0.4-47.2-1.1-70.9-1.2c-8.9-0.1-12.2-6.8-16.2-12.5
		c-2.8-4-4.7-8.8-6.3-13.5c-3.8-11.6-12-19.1-22.6-24c-6.5-3-10.6-7.6-13.4-14c-1.6-3.6-4-6.8-6.1-10.3c-2-3.3-3.9-6.7-6.6-11.5
		c3.8,0.4,5.8,1.1,7.4,0.5c1.9-0.7,4.8-2.5,4.8-3.8c-0.2-7.3,3.6-15.1-1.9-22.6c4.2,2.3,8.5,4.3,12.5,6.9c4.1,2.7,7.6,2.6,12,0.3
		c8.9-4.8,10.8-4.1,17.6,3.9c3.2,3.8,6.5,7.6,9.7,11.3c0.2,0.2,0.6,0.3,2.2,1.1c6.2-3.1,13.2-6.6,20.4-10.1
		c-0.5-8-3.3-14.7-6.6-21.2c-1.8-3.5-3.5-7.2-5-10.8c-1.5-3.5-1.7-6.8,0.5-10.4c4.2-6.7,3.8-13.1-1.4-19.3c-1.6-2-2.5-4.6-3.8-7
		c2.7-0.3,5.2-0.9,7.6-0.9c2.1,0,4.1,0.7,6.1,1.3c4.7,1.2,9.4,3.5,14,3.5c3.1,0,6.5-2.9,9.1-5.3c2.1-1.9,3.3-4.9,5.2-7.7
		c1.7,0.5,3.4,0.8,4.7,1.5c9.2,5,18.3,7.8,25.8,1c7.2,2,12.7,4.6,18.3,4.7c2.5,0,5-5.3,8-8.7c5.6,5.6,12.6,11.2,11.6,22.7
		c14.9-3.3,28.9-6.5,42.7-9.6c-4.2-7-7.9-13-11.8-19.4c5-2.4,8.7-4.2,13.3-6.4c-3.9-3.7-6.7-6.4-9.6-9c-4.6-3.9-6-8.7-4.1-14.3
		c2.4-6.8,0.2-12.2-4.1-17.4c-5.2-6.3-9-13.7-16.8-17.8c-2.5-1.3-4.4-5.3-5-8.4c-1.9-9.8-3.4-19.6-4.2-29.5c-0.3-3.9,1.8-8,2.9-12.6
		c3.2,0.9,5.3,1,6.8,2c6.1,4.2,12.7,5.3,19.9,5.2c6.7-0.1,16.6,9.7,17,16.5c0.1,1.6-0.7,3.3-0.4,4.8c2.2,10.9,2.3,10.9,13.7,15.3
		c2.4,0.9,4.9,1.8,8.4,3.1c1.2-3,2.4-5.6,3.1-8.3c1.9-7,6.7-11.4,13.4-11.6c9.8-0.3,19.8-2.6,29.4,2.1c2.3,1.1,6,0.7,8.6-0.2
		c13.4-4.7,26.8-1.3,40.3-2c-0.4,16.4,3.8,20.4,20.2,18.6c3.3,7.3,6.1,15.5,10.6,22.7c4.5,7.2,9,14.9,18.2,19.3
		c3.3-2.5,6.9-5.2,10.9-8.3c6.4,10.9-3.2,22.8,3.5,33.4c1.3,0,3.2,0.6,4.4-0.1c8.5-4.7,16.4-10.6,26.4-12.1c8-9.7,18.5-7.5,28.3-5.1
		c7.4,1.8,12.7,2.6,16-5.9c1.6-4.2,5.7-3.7,9.5-2.6c9,2.5,17.9,4.9,26.9,7.4c42.3,11.7,84.7,23.1,126.7,35.5
		c11.8,3.5,22.8,9.6,31.9,18.8c4.2,4.2,10.8,6.3,16.6,8.5c5.1,1.9,9.9,3.3,13.3,8c1.9,2.6,4.8,4.5,7.6,6.3c6.3,3.9,12.1,8.2,15.6,15
		c1.6,3.2,4.2,4.6,7.8,5.2c12.8,2.1,25.5,4.7,38.2,7.2c2.2,0.4,4.4,1.1,6.6,1.6c-0.5,35.6-1,70.7-1.5,106.9c-9.9,0-19.1,0-28.7,0
		c-1.8,10,2.4,17.8,4.4,27.4c-4.4,2.4-9.6,4.8-14.4,7.9c-3,1.9-5.6,4.7-8.1,7.3c-6.1,6.5-13.1,8.7-21.7,5.2
		c-2.2-0.9-5.6-1.6-7.4-0.5c-8.1,4.7-17.6,7.7-22.9,16.5c-5.2,8.7-8.4,9.7-18.2,6.4c-4.7-1.6-9.5-3.1-13.9-5.3
		c-2.1-1.1-3.6-3.7-4.9-5.9c-1.8-3.1-3.2-6.5-4.3-8.7c-5.1-0.5-9.1-0.5-13-1.5c-7.3-1.8-13.7-0.6-19.5,4.4
		c-3.9,3.4-8.2,6.3-12.4,9.4C4954.8,2493.7,4954,2493.4,4953.2,2493.1z"/>
	<path onclick="modals(this.id);" id="1137" class="st0" d="M2984.1,1160.2c-8.3-13.2-16-25.4-24.8-39.3c-2.7,4.4-4.6,7.3-6.2,10.4
		c-4.5,8.5-9.2,17-13.2,25.8c-2.3,5-6,6.8-10.7,7.4c-21.1,2.3-42.2,6.2-63.4,6.5c-75.9,1.4-151.8,1.6-227.8,2.2
		c-1.3,0-2.5-0.3-5.2-0.6c4.4-5.1,8-9.6,11.9-13.9c9.2-10,19.6-19.2,27.5-30.2c5.9-8.1,8.9-18.3,12.7-27.9c1.7-4.2,2-9,2.9-13.9
		c5.6-2.6,11.2-5.5,17-7.7c11.8-4.5,15.8-14.2,10-25.8c-1.2-2.3-2.7-4.7-4.6-6.5c-5.1-4.6-6.1-10-4-16.3c0.1-0.3,0.2-0.7,0.2-1
		c-1-15.4,0.4-30.9-4.7-46c-2.7-8.1-3.5-16.8-5-25.2c-1.4-7.4-1.2-15.3-6.8-21.5c-0.9-1-1.5-3.5-0.9-4.6c3.3-6.2-0.7-9.8-4.1-14
		c-2.9-3.6-4.7-7.9-7.2-11.8c-3.8-5.8-8.8-9.8-16.2-9.7c-0.8-5.4-1.8-10.3-2.2-15.2c-0.8-10.8-6.4-17-17.9-18.8c1-3,1.2-6.5,3-8.2
		c6.8-6.4,7.6-13.6,4-23.1c13.1-6.5,26-13,39.1-19.6c2.2,1.9,4.2,3.1,5.6,4.9c6.6,8.5,16.6,10.9,26,14c9.3,3.1,14.9-0.6,18-10.1
		c2.2-6.5,4.6-12.4,12-14.7c4.5-1.4,5.8-4.3,4-9.4c-1.6-4.5-2-9.7-2-14.5c0-8.7-2.5-11.8-11.6-12.7c-13.5-1.4-13.7-1.8-11.7-15
		c1.1-7.1,1.8-14.2,2.7-21.4c10.1,1.6,18.9,3.3,27.7,4.4c8.5,1.1,11.2-0.6,14.6-8.4c0.7-1.5,1.3-3.1,1.9-4.6
		c3.8-10.3,0.9-14-11-12.8c-0.8-8.6-5.1-16.7-2.8-25.9c1.2-4.9-2-7.4-6.5-8.1c-2.9-0.4-5.9-0.5-9.3-0.7c-1.3-7.7,4.6-17.5-7.8-21.9
		c-4.1,0.9-9,5.1-14.7,0.6c-2.1-1.7-5.5,0-6,3.2c-0.8,4.5-1.3,9.2-1.4,13.8c-0.4,11.7-9.4,17.1-19.7,11.6c-2.3-1.2-4.4-2.8-6.7-4.3
		c0-5.8,3.1-10.1,7.1-12.8c8.8-6.1,13.1-15.1,15.9-24.5c2.1-7,5.3-12.9,10.1-18c11.3-12.1,23.2-23.5,37.1-32.7
		c21.3-14.2,42.6-28.4,63.9-42.6c1.1-0.7,2.3-1.4,3.4-2.1c8.1-4.4,12.6-2.3,14,6.8c1.3,8.3,0.8,16.3-3.1,24.3
		c-3.2,6.8-4.8,14.4-6.2,21.9c-0.7,3.7-0.1,8.2,1.6,11.5c4.5,8.8,1.9,16.3-3.3,23.3c-8.9,11.9-9.6,25-7,38.7
		c2.1,11.1,4.2,22.1,6.9,33.1c2,8.1,5.3,14.7,13.7,19.5c8.4,4.8,17.3,10.8,20.9,21.2c1.4,4,5,4.8,8.2,3.5c5.3-2.2,8.8-0.1,12.4,3.4
		c4.1,4.1,8.3,7.9,6.4,13.5c-6,3.6-11.1,6.9-16.5,9.7c-5.1,2.7-10.6,4.8-17.5,7.9c5.7,5.5,10,9.7,14.8,14.3
		c-2.2,2.3-3.9,4.2-6.6,7.1c2.5,1.7,4.5,3.9,6.9,4.5c4.1,1,8.5,1.5,12.8,1.5c7.1-0.1,11.2,3.3,13.1,9.9c1.8,6.4,3.3,12.9,5.6,19.1
		c1.2,3.2,3.5,6.9,6.4,8.3c11,5.4,19.7,13.2,27.5,23c7.5-3.2,14.3-2.4,20.9,1.9c7.4,4.9,16.4,8,19.4,18.5c24.8,0,49.7,0,73.7,0
		c4.7,14.2,9,27.4,13.3,40.6c0.4,1.2,0.8,2.7,0.6,3.9c-1.4,9.3,4,15.5,9.6,21.8c2.1,2.4,3.4,5.6,4.9,8.5c0.5,1.1,1.1,3.1,0.5,3.7
		c-4.7,5.5-3.5,13.3-7.5,19c-4.8,6.8-4.5,12.8,1.6,18.6c1.6,1.6,2.9,3.7,3.9,5.8c7.2,14.1,6.1,19.1-6.7,28.4
		c-18.6,13.5-37.3,26.7-56,40.1c-2.9,2.1-5.8,4.3-9.5,7.2c2.7,3.3,4.7,6.1,7.1,8.7c9.5,10.3,19.2,20.3,28.5,30.7
		c5.5,6.2,9,13.7,12.2,22.4C3029.9,1155.3,3007.2,1157.8,2984.1,1160.2z"/>
	<path onclick="modals(this.id);" id="1152" class="st0" d="M3483,1884.2c-6,3.7-9.8,7-14.2,8.6c-9.4,3.5-13.4,10-13.5,19.1c7.1,4.8,13.4,9.5,20.2,13.5
		c1.8,1.1,5.3,0.7,7.4-0.2c7.5-3.3,14.4-0.2,21.3,1.5c5.5,1.3,9.3,9.1,8.8,15.3c-0.1,0.7-0.2,1.3-0.3,2c-2.6,8.9-2.2,11.8,9,14.5
		c0.5-0.3,1.2-0.6,1.6-1.1c3.3-3,6.8-8.8,9.7-8.5c5.1,0.5,10.1,4.4,14.5,7.7c1.4,1.1,2.1,5.3,1.2,7.1c-6,11.6-6.9,26-18.2,34.8
		c-1.3,1-2.3,2.5-3,4c-6.2,12.7-12.3,25.4-18.4,38.1c-0.1,0.3-0.2,0.6-0.3,1c-6.5,16.8-7.5,15.5-23.9,17.2
		c-6.9,0.7-13.9,1.2-20.7,2.2c-4,0.6-6.8-0.3-9.9-3c-5-4.3-10.5-8-15.3-11.5c-8.4,5.2-16,9.8-23.5,14.5c-1.4,0.9-2.6,2.1-3.5,3.5
		c-3.6,5.9-8.8,9.6-14.8,12.8c-10.1,5.3-10.4,15.2-1.5,22.3c3.5,2.8,7.3,6.1,9.3,9.9c5,9.5,4.2,14-4.1,20.7
		c-4.7,3.8-6.6,7.8-6.3,13.6c0.5,7.8,2.1,9.9,9.9,11c7.5,1,15,1.9,21.1,2.6c3.5,3.6,6.3,6.4,9.1,9.3c0.9,0.9,2.5,1.8,2.6,2.9
		c0.6,7.5,5.3,14,4.2,21.9c-0.6,4,0.1,8.6,1.6,12.5c3.9,9.9,5.8,18.9-2.8,27.6c-2,2.1-2.4,6.1-3.1,9.2c-1.7,8.1-3.2,16.3-4.5,23.1
		c-9.6,4.7-18.2,8.7-26.6,13.2c-2.8,1.5-4.9,4.3-6.9,6.9c-5.3,6.8-11.6,11.5-20.5,12.9c-4.4,0.7-8.7,3.1-12.5,5.6
		c-7.3,4.8-14.5,9.2-23.3,10.6c-3.8,0.6-7.4,2.8-11.4,4.4c-2.6-4.5-6.5-7.2-12.6-7.4c-3.7-0.1-8-1.7-11-4.1
		c-11.2-8.7-21.9-7.8-32.8,0.1c-1.3,1-2.7,1.8-3.9,2.7c-7.3-8.3-14.4-16-20.9-24.2c-1.5-1.9-1.1-5.6-1-8.4
		c0.3-11.7-9.9-21.3-21.6-20.6c-2.5,0.1-5.2-0.3-7.6-1.2c-15.6-5.8-30.9-12.2-46.7-17.7c-14.8-5.1-26.3-22.6-20.9-38.9
		c1.9-5.7,2.9-11.6,4.3-17.4c1.6-6.8,3-13.6,1.1-20.7c-0.8-3.1-0.4-6.6,0-9.9c1.2-9.6-3.7-14.6-13.2-12.9c-4.8,0.9-9.6,2.2-15.4,3.6
		c-0.7-3.6-1.9-6.8-1.7-9.9c0.4-9.2-5.5-13.6-12.4-17.4c-2.5-1.4-5.6-2.4-7.2-4.5c-5.5-7.4-11.9-14.2-13.8-23.9
		c-1.1-5.8-4.2-11-9.2-15c-6-4.8-8.9-11.4-8.2-19.4c0.4-5.6,0-11.3,0.1-17c0.1-8.4,1.4-10.4,9.2-13.2c2.1-0.8,4.5-1,6.8-1.2
		c11.3-0.7,18.1-10.1,14.6-21.3c-1.6-5-0.9-8.8,1.6-13.1c6.1-10.5,13.9-19.6,24.4-25.8c6-3.5,9.4-7.8,10.2-14.8
		c0.8-7.3,5.1-12.1,12.5-13.7c2.6-0.6,5.2-1.3,7.8-1.5c12.7-0.9,24.7-5.1,36.5-9.4c4.6-1.7,8.5-6.2,11.7-10.3
		c2.7-3.5,6.1-6.6,9.7-5.7c7.5,2,11-2.4,14.8-7c0.4-0.5,1-0.9,2.1-1.8c2,2.6,5.1,4.8,5.8,7.7c2.4,10.4,8.8,19.7,8.9,30.8
		c0,1.8,1,4.6,2.2,5.1c5.7,2.4,11.6,4.5,17.6,5.9c2.7,0.6,6.1-0.2,8.7-1.3c2.8-1.2,6.4-3,7.4-5.4c5.4-13.2,10.3-26.5,14.9-40
		c1.2-3.7,1.1-7.9,1-11.9c-0.1-11.1,6.1-16.6,17.2-15.7c3.5,0.3,7.4-0.2,10.6-1.5c23.1-9.2,47.6-11.7,71.8-15.3
		c1.9-0.3,4.2-0.6,5.9,0c7.1,2.7,13.9,6.2,21,8.7c9.6,3.4,19.4,6.2,29,9.4c2.8,0.9,7,1.6,7.8,3.5
		C3470.8,1880.5,3475.8,1881.1,3483,1884.2z"/>
	<path onclick="modals(this.id);" id="1157" class="st0" d="M4722.3,2760.4c-3.2-7.4-8.2-13.9-7.9-22.8c0.1-3.7-1.5-8-3.8-11c-8.2-10.8-11.5-23.4-12.9-36.2
		c-1.3-12-5.7-22.4-11.4-32.6c-0.5-0.9-1.1-1.7-1.6-2.5c-6.8-11.8-6.8-11.8-18.7-6.3c-11.2,5.2-16.6,15.3-14.5,27.7
		c1.5,9.4,0.4,11.6-8.5,16.4c-4.8-5.7-9.9-11.3-14.5-17.3c-1.2-1.6-1.1-4.2-1.3-6.4c-1-10.6-6.1-14.7-16.5-13.3
		c-3.8,0.5-7.7,0.5-11.2,0.8c-3.5-7.9-6.5-14.8-9.8-21.7c-5.3-11.2-10.3-11.9-19.4-3c-3.5-3.3-7.1-6.5-11.3-10.4
		c-0.8-11.7-4.4-23.2-12.2-33.3c-2.2-2.8-3.5-6.4-4.8-9.8c-2.8-7.4-1.8-10.2,4.1-15.9c2.5-2.4,4.9-5.4,6.4-8.5
		c6.5-13.1,12.6-26.4,19-39.5c1.1-2.3,2.9-4.5,4.7-6.4c3.5-3.6,3.3-6.9,0-10.4c-7.7-8.3-15-16.8-22.9-24.8
		c-8.1-8.1-13.7-16.5-13.1-28.8c0.3-5.4-3.3-11-5-16c27.8,0.4,56.4,0.8,85,1.1c59.3,0.7,118.5,1.2,177.8,2.1
		c29.3,0.4,58.5,1.4,88.5,2.1c3.6,9.3,11.6,9.9,20.3,9.3c4.2-0.3,8.5,0.3,12.7,1c4.1,0.7,6.8,3.3,9.3,6.9c5.6,8.1,12,15.7,17.9,23.8
		c1.4,2,2.1,4.7,2.5,7.2c0.9,5.5,1.5,11,2.3,17.3c6.8-1.8,12-5.1,16.2-9.3c8.2-8.2,16.5-9,26-1.4c1.3-0.9,2.7-1.8,4.6-3.2
		c2.4,4.8,4.6,9.4,6.7,13.6c7.4,2.6,14.4,5.1,22.8,8c-1.8,3.2-3.1,6.2-5,8.6c-5,6.4-7.4,13.5-6.1,21.4c1.7,10.4,3.1,21.1,6.3,31.1
		c4,12.4,11.7,14.7,24.2,11.1c9.2-2.7,19-3.4,28.4-0.6c9.2,2.7,11,6.8,7.6,15.7c-6.8,18-6.8,18,7.8,30.8c1.8,1.5,3.4,3.2,5,4.9
		c0.9,0.9,1.6,2,2.4,3.2c-4.4,1.7-9.9,2.3-12,5.3c-1.8,2.5,0.1,7.9,0.4,12.3c-5.4,1.8-10.8,0-16.1-1.8c-7.7-2.6-7.7-2.6-12.1,2.8
		c-6.1,0.6-11.4,0.4-16.2,1.9c-6.9,2.2-10.9,7.2-10.1,15.2c0.5,4.6-0.1,9.3,0.1,14c0.2,4.6,0.8,9.1,1.3,14.1c-5.7,0-11.3,0-16.8,0
		c-29.3,0-58.6,0.1-88-0.1c-9.9-0.1-19.9-0.5-29.8-1.5c-3-0.3-5.7-3.4-9.1-5.6c-6.6,2.5-13.2,7-22.9,4.4c2.7-3,5-5.5,7.1-8.1
		c2.4-3,4.1-6.2,0-10.8c-3.6,2.1-7.3,4.3-11.2,6.7c-0.6-0.7-2-2.5-3.2-4c-9.4,1.7-15.5,7.8-20.9,14.9c-0.6-0.6-1.1-1.1-1.7-1.7
		c1.2-2.5,2.5-5,3.6-7.6c2-4.6,0-9.8-4.6-11.2c-1.5-0.4-3.7,0.5-5.2,1.4c-1.6,1-2.5,3.4-4.1,4.2c-12.7,5.7-17.6,18.2-25.1,28.5
		c-2.6,3.6-6.3,6.7-9.9,9.4c-5.6,4.1-11.5,7.7-17.4,11.2c-1.8,1.1-4.4,1.4-6.5,1.3c-15.3-1.1-26,8.1-36.9,16.7c-2.1,1.7-2.9,5-4,7.7
		c-1,2.6-1.6,5.4-2.4,8.2C4724.1,2760.5,4723.2,2760.5,4722.3,2760.4z"/>
	<path onclick="modals(this.id);" id="1158" class="st0" d="M4189.3,2330.1c6.8,0.8,13.6,2.5,19.8,7.1c2.3,1.7,6.3,1.4,9.6,1.3c7-0.2,13.9-1.1,20.9-1.1
		c35.3-0.3,70.6-0.5,106-0.7c3.6,0,7.3,0,10.4,0c5.7,9.9,10.9,19,16.2,28.2c2.7,4.7,6.1,8.4,11.4,10.7c10.8,4.7,18.3,12.3,22.8,23.7
		c3.2,8.1,6.4,16.5,13.5,22.9c4,3.6,7.6,4.5,12.3,4.5c29,0.2,58,0.4,87,0.6c11.1,0.1,17.8,4.8,17.4,15.7
		c-0.5,17.1,10,27.4,20.3,38.2c6.3,6.7,12.6,13.4,18.8,20c-6.8,13-13.2,25.3-19.5,37.6c-1.2,2.3-2.5,4.7-3.3,7.2
		c-2.2,6.4-5.2,12.1-10.5,16.6c-5.1,4.3-6.8,9.6-3.4,15.9c3.2,5.8,5.7,12.1,9.3,17.6c5,7.6,6.7,15.7,7.1,24.3
		c-0.8,0.5-1.3,1.2-1.8,1.2c-15.2-0.2-15.2-0.2-14.2,14.8c0.1,1.6,0,3.3,0,5.3c-4.8,2.9-9.1,4.8-14.5,0.6c-2.4-1.8-6.5-1.3-10.9-2.1
		c0.4,3.9,0.5,6.1,1,8.3c1.5,7.6,2,14.4-4.3,21c-3.1,3.2-2.7,9.7-4.3,16.3c1-1.1,0.9-0.8,0.6-0.6c-0.9,0.5-2.2,1.5-2.6,1.3
		c-7.8-5.3-15.9,2.6-23.9-0.7c-3.7-1.6-8.3-1.7-12.5-1.6c-5.7,0.1-9.9-1.3-12.1-6.4c-2.5-5.7-4.3-11.8-6.4-17.7
		c-1.3-3.7-2.5-7.6-4.2-11.1c-4.3-9.1-8-18.1-8.6-28.4c-0.5-9.1-5.6-10.9-13-5.6c-2.3,1.7-5.5,3.9-7.9,3.5c-6-1.1-11,1.4-16.5,2.3
		c-5.8,1-11.5,2-17.7,0.8c-8.9-1.6-17.8-1.5-26.5,2.2c-2.2,0.9-5.3,0.8-7.7,0.2c-9.3-2.3-18.8-4.2-25.5-12.3c-1.3-1.6-4-2.2-6.2-2.7
		c-7.7-1.5-15.5-2.8-24.5-4.3c-1.4,2.4-3.3,5.8-5.2,9.2c-5.3,9.9-13.1,10.4-19.8,1.3c-1.6-2.1-3.1-4.9-5.3-5.8
		c-7.6-3-11-9.3-14.4-15.8c-4.8-9-10.9-15.7-22.5-14.9c-3.4,0.2-7.3-1.1-10.4-2.7c-5.1-2.5-9.3-1.2-12.4,2.8
		c-3.6,4.7-6.7,9.9-9.5,15.1c-3.5,6.4-5.8,7.7-12.6,5.7c-5.9-1.7-8.9-5.7-7.5-12c1.3-6,3.9-11.8,6.5-19.1
		c-2.9-4.2-6.7-9.6-11.3-16.1c3.5-4.9,7.1-10.3,11.1-15.5c3.5-4.6,7.1-20.1,4.4-23.5c-5.6-7.1-11.6-13.3-22.5-10.9
		c-4.9,1.1-10.6-0.3-15.7-1.7c-10-2.7-21.1-3.7-28-13.1c-3.7-5.1-7.3-10.2-10.6-15.6c-2.6-4.2-4.4-8.8-7.2-12.9
		c-1.1-1.7-3.5-2.8-5.6-3.4c-2.8-0.8-6-0.6-8.9-1.3c-5.7-1.5-11.7-2.6-16.9-5.1c-5-2.4-9.1-6.5-13.6-9.8c-2.4-10.8,5-23.8-9.2-32.7
		c8.2-2.6,10.8-7.8,12.6-14.6c2-7.9,11.1-10.4,17.5-5.1c8.8,7.3,19.6,9.5,29.7,13.6c4.1,1.6,7.2-0.2,9.8-3.1c2-2.2,3.4-4.9,5.4-7.9
		c7.5,2.5,13.2-1.7,19.9-4.7c13.5-6,22.8-14.9,30.4-27.2c3.4-5.4,9.5-9.1,9.6-16.5c0-1,1.2-2.1,2-3
		C4183.4,2335.7,4186,2333.3,4189.3,2330.1z"/>
	<path onclick="modals(this.id);" id="1164" class="st0" d="M4857.3,3241.5c6.5,4.3,12.8,7.9,18.4,12.3c2.9,2.3,5.9,5.8,6.6,9.2c1,5,3.2,6.9,7.5,7.2
		c2.6-10,5.4-19.7,7.6-29.6c0.8-3.7,0.9-7.9,0.3-11.7c-1.5-8.1-3.6-16.2-5.5-24.2c-2.1-9.1,0.1-12.7,9.3-13.2
		c19.4-1.1,15.4-1.9,15.4-17.6c0-10.5,1.3-20.4,4.9-30c1.4-3.8,4.5-7,6.6-10.3c4,1.7,6.6,3.1,9.4,4c1.8,0.6,4.6,1.4,5.7,0.6
		c7.9-6.1,19.7-6.3,24.6-17.1c1.3-2.9,5.4-4.6,7.3-6.2c6.5-16.7,15.1-30,32.2-36.2c6.2-2.3,12.3-5.2,18.5-7.4
		c4.3-1.5,6.5-4.3,7.3-8.6c1.3-7.1,2.9-14.2,3.8-21.4c1-7.9,4.6-10.6,11-6.1c8.2,5.9,17.3,6.5,26.6,6c6.8-0.4,10.5,2,12.7,8.3
		c2.3,6.7,6.1,12.2,12.4,16.3c3.4,2.2,5.7,6.4,8.1,9.9c5.5,8.2,10.8,16.7,16.3,24.9c0.9,1.3,2.2,3.1,3.6,3.3
		c13.9,2.1,19.9,13.6,27.7,22.9c1.7,2,2.8,4.5,4.5,6.6c2.9,3.5,6.7,4.9,10.5,2.2c4-2.9,8-2.7,12.3-1.7c6.2,1.5,12.4,2.1,18.6-0.4
		c2-0.8,5-1.1,6.8-0.2c8.3,4,15.5,1.3,22.6-2.8c0.8-0.5,1.8-0.7,3.6-1.4c-0.2,2.2,0,4.1-0.6,5.6c-5.9,14.4-0.9,25.8,9.2,36.1
		c3.5,3.5,6.4,7.5,9.6,11.2c1.1,1.2,1.9,2.9,3.2,3.6c10.3,5.8,18.3,15.7,32.8,15.9c-4.3,9.3-8.1,17.3-11.8,25.4
		c-0.7,1.5-1.5,3-1.9,4.6c-3.9,12.7-11.1,21.2-25.4,22.4c-7.8,0.7-11.8,7-14,14c-2.3,7.2-5.1,14.4-6,21.9
		c-0.9,7.8,0.1,15.8,0.4,23.8c0,1.3,0.3,2.6,0.7,5.2c-3.2,0-6.1,0.7-8.6-0.1c-6.6-2.1-12.6-1.1-17.9,3c-6,4.6-11.4,4.3-16.8-1
		c-4.5-4.4-10-6.1-16.4-5.9c-3.6,0.1-7.2-1.1-10.8-1.6c-14.9-2-27.9,4-26.9,21.8c-7,22.1-2.9,44.9-3.9,67.3c-0.1,3.4-0.8,6-3.3,8.8
		c-3.5,3.9-5.9,8.8-8.5,13.4c-1.9,3.3-4.4,4.8-8.1,4.4c-5.1-0.5-9.8,0.7-14.2,3.6c-2.1,1.4-5,1.9-7.5,2.5
		c-12.7,3-23.2,8.6-32.1,17.5c-1.6-2-3-4.1-4.7-5.8c-3.2-3.2-6.2-7-10.1-9.2c-9.3-5.3-15.5-12.9-21.2-21.7c-4-6.2-10.5-10.8-16-16
		c-1.4-1.4-3.6-2.1-4.7-3.7c-3.1-4.5-7.5-4.7-12.3-4.7c-9.6,0.2-19.3,0.1-29,0.1c-3.2-9.2-8.6-16.3-16.4-21.3
		c-5.7-3.7-6.8-9.4-8.2-15.3c-1.8-7.3-5.3-9.8-12.4-7.6c-8.2,2.6-16.7,5.2-23.9,9.7c-5.4,3.3-9.2,9.4-13.2,14.6
		c-2.4,3.1-3.7,7-5.9,11.5c-3.1-2.1-6.5-3.5-8.7-6c-8-9.3-15.9-18.7-18.4-31.3c-0.7-3.6-1.7-7.2-3.2-10.4
		c-7.1-15.3-14.5-30.5-21.5-45.8c-1.6-3.5-2.5-7.5-3.1-11.3c-0.3-1.7,0.3-4.3,1.5-5.5C4835.5,3261.9,4843.7,3248,4857.3,3241.5z"/>
	<path onclick="modals(this.id);" id="1151" class="st0" d="M2436,1658.8c4.7,5,9.2,9.4,13.1,14.2c1.3,1.6,1.3,4.3,1.5,6.5c0.5,6.5-1,13.2,2.3,19.5
		c0.8,1.5,0.3,4.1-0.5,5.8c-3,5.9-0.5,10.2,2.4,15.6c10.1,19,27.8,31.1,41.3,46.9c7.5,8.8,16.7,16.2,26,25.2
		c-4.2,4.4-7.1,8.5-11,11.2c-5.2,3.6-7.3,8.2-7.9,14.1c-0.6,5.6-1.2,11.2-2,16.8c-1.2,9.1-5.6,12.6-14.6,12c-1.6-0.1-3.1-0.7-4.6-1
		c-3.8,6.9-3.8,7.6,1.8,9.7c11.9,4.4,14.4,15.6,18.3,25.5c0.8,2.1-2.6,6.5-5,8.9c-2.9,2.8-6.1,4.7-6.5,9.3c-0.3,3.6-3.1,5.4-6.7,6.3
		c-4.1,1-9.8,1.9-11.4,4.7c-2.5,4.6-3.9,11.1-2.9,16.2c1.9,10.3-0.2,19.7-2.5,29.4c-1.3,5.2-3.8,9-8.8,11.3
		c-4.8,2.3-9.6,4.6-14.2,7.2c-4.2,2.4-8.3,5.8-7.3,10.9c2.8,15.3-6.9,24.2-16.6,32.7c-5.9,5.2-9.1,11.2-10.3,18.6
		c-0.2,1-0.7,2-0.5,2.9c2.1,12.8-2.6,24.5-6.1,36.4c-2.3,7.7-5.8,9.7-13.5,10.8c-5.8,0.8-11.4,2.8-17,4.5c-3,1-5.1,4.7-9,2.6
		c-4.2-2.4-9.4-4-12.3-7.5c-6.9-8.2-7-8.7-17.5-6c-1,0.3-1.9,0.6-2.9,0.8c-11,2-15.5-1.5-16.9-14c2,0.8,3.7,1.3,5.3,2.1
		c5.4,2.8,11,4.8,17.2,2.8c5.5-1.7,7-4.5,4.8-9.8c-1.9-4.6-3.8-9.4-6.7-13.4c-4.4-5.9-11.2-6.6-18-5.7c-2.5,0.3-4.9,1.5-8.8,2.7
		c-1-4.6-1.9-8.6-2.9-12.6c-2.2-9.6-6.5-18-13.6-25c-3.6-3.5-7-4.4-11.6-1.6c-2.6,1.6-6,2.1-9.3,3.3c-3.9-8.4-6.8-15.8-6.3-24.5
		c0.4-7.9-2.2-14.7-9.2-19.9c-8.1-6-7.7-6.5-3.6-15.8c0.4-0.9,0.7-1.9,1.2-2.8c3.9-8.6,3.8-10.3-0.6-14c-4.9-4.1-13.9-5.3-18.6-1.7
		c-3.6,2.8-7,6.1-9.8,9.7c-6.9,8.9-13.5,18.1-20.7,28c-4.1-1.4-8.3-2.3-11.9-4.4c-4.5-2.5-5.3-7-4.8-12.1c0.6-7.3,1.3-14.7,0.6-21.9
		c-0.6-6.1,1.6-10.4,5.3-14.3c3.8-4,8.1-7.7,12.3-11.3c7.3-6.2,7.8-8.9,2.8-17.6c-1.1-2-2-4.2-2.9-6.4c-1.5-3.9-4-5.4-8.4-5.6
		c-5.6-0.2-11.1-1.3-16.6-2.4c-4-0.8-6.6-3.5-6.2-7.8c0.3-4.3,0.7-8.6,1.9-12.7c3-10.6,3.1-10.7-4.9-18.8c9.3-4.5,16.7-10.9,21.4-20
		c0.6-1.1,1.8-1.9,3-2.5c13.3-6.8,26.5-13.9,40-20.1c5-2.3,10.9-3.5,16.4-3.5c8.6-0.1,13.2-4.1,16.7-11.6
		c3.4-7.5,7.8-14.6,12.3-21.6c5-7.7,12-14.2,18.1-20.9c6.9-7.6,17.7-13,27.7-16.3c12.3-4.1,23.7-10,35.5-15
		c9.1-3.9,17.1-10.2,26-14.7c5.8-2.9,11.8-5.8,19-3.8c5.4,1.5,10.3-1.2,13.9-5.7C2425.4,1671.8,2430.4,1665.7,2436,1658.8z"/>
	<path onclick="modals(this.id);" id="1154" class="st0" d="M4766.9,2234.7c0.4-8.5,0.6-14.6,1-20.8c0.1-1.6,1.1-3.4,0.6-4.8c-0.8-2.7-1.7-6.4-3.8-7.5
		c-1.9-1-5.5,0.6-8,1.7c-1.7,0.7-2.9,2.6-5,4.6c-8-5.3-13.1-12.7-17.2-21c-2.1-4.1-4.1-8.3-5.9-12.6c-2.6-6.3-6.1-9.2-13.7-7.5
		c-6.3,1.4-10-4-8.4-10.7c1.2-5,0.9-9.9-2.7-13c-5.9-5.1-8.1-11-7.2-18.5c0.1-0.9-0.4-1.9-0.8-3.5c12-0.6,23.8-1.6,35.6-1.8
		c20.3-0.5,40.7,0.9,60.8-1.2c13.1-1.4,21.9,2.6,30.8,11.1c11.3,10.7,23.6,20.4,35.4,30.6c7.2,6.2,8.4,11.4,4.9,20.2
		c-0.9,2.1-2.8,4.4-2.5,6.4c1.4,8-3.6,11.1-9.2,14.6c-5.8,3.6-11.8,7-15.3,13.6c-0.8,1.6-4.2,2.7-6.3,2.6c-4.6-0.3-9.5-0.6-13.6-2.5
		c-7.1-3.3-12.4-0.5-17.2,3.8c-4.2,3.8-8.8,5.4-14.2,6.3c-2.6,0.4-5,2.5-7.5,3.8C4774.7,2230.3,4771.7,2232,4766.9,2234.7z"/>
	
	<path onclick="modals(this.id);" id="1143" class="st0" d="M3454.1,1027c5.3-0.6,11.1-1.3,16.9-1.9c2.6,6.4,4.5,12.3,7.3,17.9c4,8.1,4.1,15.8-0.6,23.7
		c-24.8,3.7-47.1-3.3-67.9-15.4c-0.8-4.1-1.6-7.6-2.1-11.2c-0.4-3.2-0.5-6.5-0.7-10.3c2.9,0.2,5.1,0.4,8,0.6c0-4.4,0-8.5,0-13.6
		c5.6,1.5,10.4,2.5,15,4.1c1.6,0.6,3.1,2.3,4,3.9c0.8,1.3,0.7,3.2,1,4.8c1.7,8.6,3.7,11.5,8,10.6c2.6-0.6,5.5-2,7.2-4
		c1.7-2,2-5.2,3-7.8C3453.1,1028,3453.4,1027.8,3454.1,1027z"/>
	<path onclick="modals(this.id);" id="1135" class="st0" d="M4277.7,2116.8c1.4-2.8,2.7-5.6,4.5-9.4c1,5.3,1.4,9.3,2.6,13.1c2.2,7.1,3.7,13.7-5.8,17.6
		c3.2,6.5,6.1,12.3,8.8,17.8c-6.1,4.2-14.3-3.1-18.9,5.6c-2.3-2.5-4.4-4.9-6.6-7.3c2-3.3,3.6-6,5.7-9.5c-5-2.3-9.4-4.3-13.8-6.3
		C4259.2,2127.1,4270.3,2117,4277.7,2116.8z"/>
</g>
</svg>
