<?xml version="1.0" encoding="utf-8"?>
<!-- Generator: Adobe Illustrator 19.0.0, SVG Export Plug-In . SVG Version: 6.00 Build 0)  -->
<svg version="1.1" id="Layer1" xmlns="http://www.w3.org/2000/svg" xmlns:xlink="http://www.w3.org/1999/xlink" x="0px" y="0px"
	 viewBox="0 0 10000 5000" style="enable-background:new 0 0 10000 5000;overflow: hidden; display: inline; width: inherit; min-width: inherit; max-width: inherit; height: inherit; min-height: inherit; max-height: inherit;" xml:space="preserve">
<style type="text/css">
	.st0{fill:#8FD4EB;stroke:#000000;stroke-width:3;}
</style>
<g>
	
	<path onclick="modals(this.id);" id="1132" class="st0" d="M6781.4,3231.1c9.8,3.4,20,6.4,29.7,10.5c15,6.3,30.2,9.4,46.6,8.7c15.3-0.7,30.6,1,45.1,9.4
		c0.9,2.7,2.4,5.7,2.8,8.9c1.1,9.2,5.4,16.1,13.2,21.2c14.8,9.8,21.5,25.4,26,41.4c7,24.3,10.2,49.5,10.9,74.8
		c0.2,8.2,1.5,15.8,5.1,23.2c4.7,9.6,8.3,19.5,7.3,30.7c-0.8,8.5,2.9,15.4,8.7,21.5c18.4,19.3,40.1,32.8,66.7,37.2
		c8.9,1.5,16.6,4.7,23.4,10.3c6.5,5.4,13.9,8,22.2,7.1c9.8-1.1,18.1,2.2,26.4,7c16.5,9.6,16.6,9.3,36.3,6.4
		c7.9,6.2,11.8,15.4,13.7,25.2c2.8,14.8,10.6,25.6,23.1,33.4c1.1,0.7,1.9,1.9,3,2.6c14.6,9.3,25.1,21.3,28,39.1
		c0.7,4.5,3.2,8.8,5.5,12.8c7.6,13.6,13.4,27.5,11.3,43.6c-1,7.9,2.5,14.9,7.9,19.7c13.3,12,15.1,27.4,14.4,43.6
		c-0.3,6.7,1.6,11.8,6.2,16c4.8,4.5,9.8,9,15.2,12.9c8.1,5.9,7.2,11.6,3.2,19.1c-1.5,2.9-4,5.3-5.9,8c-4,5.5-3.8,11.4-0.4,16.9
		c6.7,10.6,12.3,22.4,26.3,25.9c1.7,0.4,3,2.6,5.8,5.2c0,9.4,0.6,20-0.2,30.6c-0.9,11.9,2.2,22.3,8.1,32.3c1,1.7,1.7,3.7,2.9,5.2
		c8.7,11.4,11,23.9,7,37.6c-0.7,2.5-1,5.2-1.6,7.8c-2.6,11.7-1,22.4,6.8,31.8c1.7,2,2.8,4.6,4.4,6.7c4.1,5.1,5.3,10.7,3.2,16.9
		c-3.8,11.2-3.6,23.7-9.7,34.4c-9.1,1.5-17.5-1.4-25.8-3.1c-17.6-3.6-35-8.3-52.6-11.9c-13.7-2.8-27.5-5-41.3-6.6
		c-5.1-0.6-10.8,0.4-15.6,2.2c-24.3,9.2-48.5,6-72.7,0.2c-5.8-1.4-11.3-4.2-17-5.7c-6.4-1.7-10.1-5.4-12.5-11.5
		c-3.2-8-6.8-15.6-8.1-24.5c-1.8-13.1-5.5-26-8-39.1c-1.5-8.1-6.1-12.7-13.7-15.5c-10.8-4.1-21.1-5.5-32.9-3.2
		c-28.1,5.5-56.4,9.7-84.7,13.6c-29.6,4.2-59.3,8.1-89,10.9c-21.2,2-42.6,1.5-63.8-1.8c-10-1.5-12.7,0.6-15.9,10.3
		c-3.6,11-4,22.2-3.7,33.6c0.8,34.5-10.2,65.4-28.7,94c-11.9,18.4-29.2,30.9-47.6,41.8c-29.1,17.3-61.5,25.7-94.3,31.5
		c-24.8,4.4-48.9-2.1-72-11.8c-6.7-2.8-13.5-5.8-20.1-8.8c-6.4-2.9-12.7-2.6-19.3-0.3c-8.9,3.1-16.8,7.8-24.2,13.6
		c-17.8,14.1-36,27.5-56.6,37.3c-6,2.9-11.9,5.9-18,8.5c-19.6,8.2-39.2,16.6-59.1,24.3c-20.1,7.8-38.4,18.9-55.5,31.5
		c-15.5,11.4-29.1,25-36.4,44c-5.2,13.6-12.7,26.4-19.3,39.5c-1.5,3-2.7,6.6-5.2,8.4c-14.1,9.9-27.8,20.8-45.3,24.2
		c-7.8,1.5-15.8,3.2-23.6,3.3c-5.8,0.1-11.7-1.8-17.3-3.8c-32-11.5-63.8-23.3-94.9-36.9c-14.6-6.4-29.3-12.4-43.6-19.7
		c-16.6-8.5-34.1-15-51-22.8c-8.5-3.9-16.3-3.4-25-0.3c-32.6,11.7-65.4,22.7-98.1,34c-21.2,7.3-43,8.2-64.9,5.3
		c-21.7-2.9-43.3-7.7-65.1-10.1c-17.1-1.9-34.6-2.4-51.8-1.5c-8.9,0.5-18.3,4.1-26.3,8.3c-21.4,11.2-40.1,26-55.6,44.8
		c-7.2,8.7-14.6,17.3-22.3,25.6c-9,9.7-15.1,10.2-26.3,3c-5-3.2-9.8-6.9-15.1-9.7c-5.8-3.1-13.1,1.7-12.1,8.1
		c0.9,5.8,3.2,11.4,5.3,17c5.8,15.3,6,16.4,5.4,33.9c-6.9,6.2-16.5,7.1-25.4,8.9c-17.8,3.6-34.3,10.7-51,17.2
		c-8.5,3.3-14,9-18.3,17.2c-6.6,12.7-10.8,25.4-9.7,40c0.8,11.2,0.2,22.6,0.2,33.1c-5.2,4.6-8.3,1.1-11.4-1
		c-29.2-20.9-58.4-42-87.6-63c-3.2-2.3-6.4-4.7-9.7-7.1c-15.1-11-17-12.3-35,0.8c-8.1,5.9-15.5,12.5-23.3,18.8
		c-14.5,11.7-30.5,18.3-49.7,17c-11.9-0.8-23.9-0.1-34.8-0.1c-7.4-5.7-9.6-12.5-11.3-19.7c-9.1-38.2-18.2-76.4-27.2-114.6
		c-0.8-3.2-1.8-6.5-2.2-9.7c-1.6-11.8-8.4-18.7-19.5-22.7c-17.5-6.3-34.8-13.4-52.1-20.2c-6.1-2.4-12.2-5.1-18.8-8
		c0-8.9-0.2-17.5,0.1-26c0.1-5.7-1.9-10.3-6-14.2c-12.1-11.4-24.2-22.9-36.1-34.5c-14.3-14-28.6-28-42.6-42.3
		c-3.7-3.7-6.6-8.4-9.2-13c-38.2-68.6-76.3-137.4-114.5-206c-45.6-82.1-91.2-164.1-136.7-246.2c-21.3-38.4-42.3-77-63.4-115.6
		c-1.9-3.4-3.3-7.1-4.8-10.6c4.5-7.5,8.9-14.1,12.7-21c10.6-19.4,18.9-39.4,21.1-61.9c2.1-21.2,8.8-41.6,15.2-61.9
		c6.8-21.6,13.6-43.2,21-64.6c4.3-12.6,10.1-24.6,14.7-37.1c2.7-7.4,5.6-15.1,6.4-22.9c2.8-26.4,6.5-52.9,5.1-79.6
		c-1.4-27.9-3.4-55.8-3.5-83.7c-0.1-13.1,2.9-26.4,5.6-39.4c3.6-17.6,8.5-34.9,12.4-52.5c6.5-29.9,11.9-60.1,21.1-89.4
		c5.3-16.9,3.1-34.3,3.3-51.6c0-5.8-3-10-7.6-13.2c-7.1-4.9-14-10.1-21.3-14.8c-5.9-3.8-10.1-8.5-11-15.7c-0.2-1.3-0.9-2.6-0.9-3.9
		c-0.7-14.4-6.3-26.6-15.1-38.1c-4.2-5.6-5.8-13.3-8-20.3c-6-18.4-12.1-36.7-17.3-55.3c-2.7-9.8-8-16.1-17.3-20.3
		c-19.4-8.8-38.4-18.4-57.7-27.5c-8.6-4.1-17.5-6.1-27.1-3.3c-3.1,0.9-6.6,1-9.9,1.1c-29.3,0.6-58.6,0.9-87.9,1.8
		c-32.6,1-65.1,2.5-97.7,3.8c-0.7,0-1.3,0.1-2,0.1c-35.2,2-35.1,1.8-65.1-17.7c-54.2-35.2-108.5-70.2-162.9-105.1
		c-7.3-4.7-14.9-8.7-22.1-12.9c-9.1,1-15.1,6.7-21.4,11.2c-25.5,18.1-50.8,36.6-76,55.1c-9.3,6.9-18.4,13.5-30.8,8.5
		c-37.8-1.9-75.7-3.6-113.5-5.9c-27.2-1.6-54.3-4.2-81.5-6.1c-11.9-0.9-23.9-1.2-35.9-1.8c-26.6-1.4-53.1-2.6-79.7-4.3
		c-31.2-2-62.3-4.4-93.5-6.7c-1.2-0.1-2.4-1-5.1-2.2c-1.5-16.3-3.1-33.5-4.5-50.6c-0.5-5.6,1.3-10.5,5.6-14.4c2.5-2.3,4.6-4.9,7.1-7
		c18.9-15.9,30.1-36.7,38.5-59.6c5.4-14.8,4.5-27.3-7.4-38.2c-4.4-4-8.8-8.1-13.5-11.9c-20.1-16.4-40.5-32.5-60.5-49.1
		c-5.6-4.6-10.8-10-14.9-15.9c-21.6-31.3-41.5-63.6-55.3-99.2c-3.1-8.1-4.9-15.7-3.9-24.9c2.5-24.6-1.1-49.1-4-73.6
		c-0.6-5.4-4.5-11-8.3-15.4c-7.4-8.5-15.8-16.3-23.8-24.2c-7.1-7-13.1-14.7-16.4-25.6c5-1.3,9.4-2.7,13.8-3.6
		c3.2-0.7,7.1,0.2,9.8-1.2c18.1-9.6,36.8-4.9,54.8-1.5c15.5,2.9,28.2-2,38.7-10.6c15.5-12.9,32.1-23.5,49.8-32.9
		c9.9-5.3,19.1-12.1,28.4-18.6c7.7-5.4,15.6-9.7,25.1-11.6c5.6-1.1,11.1-4.3,15.9-7.7c7.6-5.4,14.6-11.6,21.7-17.6
		c5.3-4.6,11.1-7,18.2-6.4c4,0.3,8,0,12,0c68.7,0,137.4-1.6,206,0.4c115.3,3.3,230.6,0.9,345.9,2c10,0.1,20,0.7,30,0.8
		c2.4,0,4.9-0.9,8.6-1.6c-1.6-11.2-6.6-19.4-14.1-26.2c-14.8-13.4-29.9-26.4-44.5-40c-8.2-7.7-16.5-15.6-23.2-24.6
		c-5.9-7.8-9.9-17.2-10.5-27.6c12.2-11.6,27.7-18.8,38.4-31.7c-1.3-10-5.7-17.8-12.7-24.5c-5.8-5.5-11.1-11.6-17.1-16.9
		c-13.8-12.1-24.3-26.6-31.1-43.4c-3.5-8.7-9.3-14.1-17.6-17.7c-11.6-5.1-23.2-10.2-34.4-16.1c-9.9-5.3-19.4-11.5-28.9-17.5
		c-4.7-3-7.2-7.5-8-13.2c-1.2-9.2-2.5-18.4-4.2-27.6c-1.4-7.6-0.9-14.7,4.6-20.6c10.9-11.6,11.6-24.6,5.6-39.4
		c-4.2-1.7-8.9-3.6-14.3-5.7c2-10.7,6.8-19.4,10.9-28.3c6.9-15.1,14.6-29.7,14.3-47.2c-0.1-5.5,3.8-11.2,6.3-16.7
		c4.6-10.2,9.5-20.3,14.5-31c5.1,0.8,8.9,1.6,12.7,2.1c5.9,0.8,11.8,2,17.8,2.2c19.4,0.6,19.4,0.5,32.6-13.6
		c5.5-1.4,10.6-0.3,15.1,3c12.2,8.6,25.6,10.5,41.3,7.2c1.8-2.1,5.1-4.8,6.8-8.2c5.8-12.1,15.6-19.9,27.4-24.9
		c14.2-6,24.4-15.7,32-28.8c3-5.2,7.1-9.7,10.3-14.7c8.5-13,18.7-23.9,32.7-31.5c11.4-6.1,11.9-10.6,6.8-23.1
		c-3-7.4-6.8-14.6-8.5-22.3c-2.2-10-8.1-14.8-17.5-16.6c-6-1.2-11.9-2.4-14.9-10.6c4.8-7.4,10.2-15.5,15.6-23.9
		c-3.7-15.3-17.3-25.5-20.3-41.1c8.6-2.4,16.7-4.8,24.9-7c9.1-2.5,15.3-7.6,17.3-17.3c0.5-2.5,2.2-4.8,3.8-8.3
		c3,2.3,5.9,3.8,7.8,6.1c6,7.1,11.8,14.5,17.4,21.8c9.8,12.7,20.6,24.3,34.1,33.3c4.4,2.9,8.2,6.7,12.3,10.1
		c8.1,6.6,12.2,15.2,14.1,25.5c2.4,13.1,6.1,25.9,9.4,38.8c2.7,10.5,9,19.2,14.8,28.1c3.8,5.8,9.4,9.6,15.9,11.5
		c14.7,4.3,29.4,8.4,44.2,12.1c11.6,2.9,23.3,5.6,35.1,7.7c15.1,2.7,27,10.2,37,21.7c13.1,15.1,26.5,29.9,40,44.6
		c25.4,27.6,56.7,45.8,91.7,58.4c34.5,12.4,68.8,25.2,103.2,37.7c5.1,1.9,9.7,4.2,12.6,9.2c6.6,11.6,15.3,22.4,19.5,34.7
		c6.7,19.9,21.6,29.4,39.5,32.4c32.4,5.4,55,25.6,77.3,46.5c17.7,16.5,30.5,36.8,40,59.2c3.1,7.2,7.6,14.1,12.5,20.3
		c20.3,25.1,29.8,54.9,36.8,85.5c2.5,10.9,2,22.5,2.9,33.8c1.6,18.5,7.7,34.9,21.5,47.9c2.9,2.7,5.8,5.5,8.5,8.5
		c6.4,7.1,10.7,15.1,10.5,25.1c-0.3,21.7,9.7,38.2,26.2,51.4c19.3,15.4,38.9,30.2,62.6,38.5c6.2,2.2,12.5,4.6,19,5.9
		c11.1,2.1,19.8,7.7,26.7,16.3c7,8.9,13.8,18,20.4,27.2c4.5,6.3,10.1,10.5,17.8,11.8c2,0.3,3.9,1.2,5.8,1.4
		c15.7,1.3,24.9,11.9,32.2,24.1c2.9,4.9,4.9,11.3,4.6,16.9c-0.7,13.6,5.7,21.4,17.4,26.1c9.7,3.9,16.1,10.7,21.7,19.6
		c8,12.6,20.4,21,33.7,27.4c10.5,5.1,19.9,10.5,24,22.3c2.1,6,7.2,9.1,13.3,11c9.5,3,18.8,6.6,27.2,9.5c1.3,2.2,2.7,3.4,2.6,4.4
		c-1,13.7,5.3,21.1,18.7,23.5c7.4,1.3,13.9,4.8,16.5,12.8c2.1,6.3,7.1,9.8,12.9,11.5c13.7,4,25.2,11.9,37.1,19.2
		c9,5.5,19,9.5,28.7,14c5.5,2.6,11.1,5.3,13.2,11.4c5.1,15,15.5,24.3,30.1,29.7c1.8,0.6,3.1,2.4,5.5,4.2c0.5,9.3,1,19.2,1.5,30.3
		c1.1,0.8,2.6,2.2,4.4,3c13.6,5.8,17.9,16.2,16.9,30.5c-0.8,11.5-1.6,22.5-9,32c-7.6,9.7-4.5,20.3-1.3,30.5
		c1.5,4.8,5.5,7.4,10.7,7.6c2,0.1,4,0.3,6,0.1c16.4-1.2,31.9,0.9,45.5,11.2c11.7,1.9,23.1,7.2,35.2,3.9c12.5-3.5,22.1,1,30.5,9.7
		c3.2,3.4,6.9,6.4,9.8,10c12,15.3,27.9,21.6,46.9,21.4c3.1,0,6.4,1,9.2,2.3c7.2,3.4,14.1,7.2,22.2,11.4c3.4,20.6,22.8,22.1,39.2,29
		c0.4,3.6,1.5,7.5,1.2,11.3c-0.8,13.6,6.7,22.5,16.5,30.1c6.3,4.8,12.9,9.2,19.4,13.8c7.3,5.2,12.8,5,19.4-1.7
		c8.4-8.6,16.4-17.3,20-29.4c2.4-8.2,4.9-17,15.6-20c1.2,1.9,3.4,3.8,3.9,6.2c1.5,7.4,6.3,11.7,12.6,14.4
		c11.6,4.8,20.2,12.5,25.4,24.1c3.5,7.7,9.4,12.7,17.7,15c15.1,4.1,24.9,13.5,31.5,28c9.7,21.2,12.4,22,33.3,12
		c12.2-5.8,25-9.4,38-12c7-1.4,14.8-2.1,21.6-0.6c14.1,3.1,27.7,2.8,41.4-1c4.4-1.2,9-1.3,13.2-1.8c4.9,5.2,5.2,9.6,1.4,14.8
		c-12.6,17.1-12.5,17.2-1.7,34.6c0.4,0.6,0.7,1.1,1.1,1.7c15,24.4,10.8,25.4,46.7,21.8c9-5.6,10.6-18.4,22.2-23.6
		c11.9,10.4,27,17.9,30.8,36.1c2.5,11.8,10.3,19.7,21.3,24.7c7.8,3.6,15.4,7.8,22.5,11.4c10.5-6.2,10.5-6.2,17.5-22.4
		c8.7,1.1,15.7,5.6,21.2,12.3c4.7,5.6,5.6,11.9,1.4,18.5c-0.4,0.6-0.6,1.2-1,1.7c-12.9,14.7-6.7,28,2.4,41.6
		c5.2,7.9,12.2,11.3,20.3,8.2c14.7-5.5,28.9-2.7,43.1,0.5c16.9,3.8,33.7,7.9,50.3,12.6c4.8,1.4,9.3,4.8,13.4,8
		c5.7,4.4,10.8,9.5,17.1,15.2c2.5,4.9-0.4,10.5-1.8,16.2c-2.7,11.2-1.5,19.2,12.6,22.2c2.6,0.5,5,1.7,7.3,2.5
		c7,11.6,14,22.8,20.7,34.3c5.3,9.1,12.3,15.1,22.8,17.8c14.7,3.7,26.6,12,34.5,25.3c4.4,7.3,10.9,13.8,6.7,23.7
		c-0.9,2.1,0.1,5.3,0.7,7.8c1.1,4.5,5.9,7.8,10.6,7.3c2.6-0.3,5.4-0.6,7.7-1.8c8.9-4.8,17.2-1.9,24.7,2.5
		c11.3,6.6,15.2,13.4,13.4,26.3c-2.6,19-2.2,19,14.4,26.6c4.2,1.9,7.8,4.9,11.9,7.1c4,2.2,8.1,4.7,12.4,6.1
		c16.8,5.5,19.3,4.2,27.6-12.1c0.9-1.8,2.1-3.4,3.3-5C6777.8,3233.3,6778.5,3233.1,6781.4,3231.1z"/>
	<path onclick="modals(this.id);" id="1131" class="st0" d="M2709.3,1567.9c0-12.2-0.2-22.1,0.1-32c0.2-7.2-2.1-12.6-7.9-17.2c-9.4-7.4-18-15.8-27.3-23.3
		c-5.2-4.1-7.6-9-7.4-15.5c0.8-25.3-1.9-50.6,1.9-75.8c0.3-2,0.2-4,0.2-6c0.7-40.6,1.1-81.2,2-121.8c0.7-30.6,1.9-61.2,3-92.4
		c10.6-9.2,24.1-13.5,37.6-16.4c11.6-2.6,23.6-1.5,34.3,6.3c10.2,7.5,21.4,13.6,31.8,20.7c6.8,4.6,14,7.2,22,8.7
		c17.1,3.3,34.3,4.3,51.6,4.2c8.9-0.1,17.2-2.2,25.2-5.2c10.8-4,13.3-9.6,9-20.1c-5.1-12.3-10.5-24.4-15.9-36.6
		c-9.9-22.6-19.7-45.1-29.6-67.7c-1.3-3-2.9-6.1-3.6-9.2c-1.7-7.4,3.4-13.1,11-12.7c4,0.2,7.9,1.1,11.9,1.1
		c7.9-0.1,16.7,2.1,23.1-3.8c9.2-8.4,20.4-15.6,23.2-29.1c2.1-10.1,6.7-19,14.3-25.8c17.1-15.2,20.9-36.5,26.6-56.9
		c1-3.5,0.3-8.1-1.1-11.6c-7.4-17.8-13.3-36.3-24.7-52.2c-12.6-17.5-19.7-37.5-28.3-58c3-2.8,5.6-7.1,8.7-7.6
		c17.5-2.8,30.2-13.6,42.4-24.9c5.7-5.3,11.7-8,19-9.9c25.3-6.6,49.1-16.7,69.6-33.6c5.8-4.7,11.7-8.6,19.7-8.2
		c2.5,0.1,6.2-0.4,7.5-2.1c8.8-11.3,23.6-11,34.5-18.5c16.2-11.2,35.2-15.8,54.2-19.3c20.3-3.7,40.9-5.8,61.6-4.2
		c28.4,2.2,55.8-2.3,82.2-12.6c6.1-2.4,11.7-6.1,17.5-9.3c8.2-4.5,14.8-1.5,15.9,7.4c0.5,4.6,0.6,9.3,0.8,14
		c4.9,5.5,12,5.7,18.1,7.7c2.4,0.7,5.7,0.7,7.8-0.4c13.5-7.2,27.1-14.3,31.4-30.9c1.5-5.8,3.2-11.5,4.7-16.9c-0.6-1.7-0.9-3-1.6-4.1
		c-2-3.2-6.9-5.4-4.8-10c2.2-4.8,6.8-5.2,11.8-5.6c11.2-0.9,22.4-2.8,33.5-4.2c7.5-0.9,11.9-6,15.2-11.8c3.1-5.5,6.3-10.1,13.6-10.1
		c-1-7.6-1.8-13.8-2.9-22.2c15.2,14.3,31.6,21.1,48.9,26.3c29.7,9,59.6,11.2,90.6,8.2c21.8-2.1,43.4,3.9,63.4,15.2
		c4.5,19,9.7,37.6,12.9,56.6c1.4,8.2-1.3,17-2.3,26.4c4,6.5,8.4,13.7,12.7,20.6c-6.7,7.4-14.9,8.8-22.4,11.3
		c-20.2,6.7-40.6,13-60.8,19.7c-5,1.7-9.8,4-14.4,6.6c-3.6,2.1-4.5,7.3-1.8,10.6c6.2,7.8,12.9,15.2,19.2,22.9
		c5,6.1,9.7,12.5,14.8,19.2c-4.3,8.5-9.3,15.2-16.7,20.1c-13.9,9.2-27.1,19.7-41.8,27.2c-17,8.7-28.6,21.8-36.8,38
		c-14.1,28-28.9,55.5-45.4,82.2c-9.3,15.1-13.8,30.9-8.7,49.4c6.3,22.7,5,46,2.3,69.3c-1.8,15.7-2.8,31.8,2.1,47.5
		c3,9.4,7.9,16.3,16.9,21c21.8,11.4,43.2,23.6,65,35.1c5.2,2.8,11.1,4.6,16.9,6c10.1,2.5,17.9,8,25.1,15.4
		c14.4,14.6,23.9,31.6,29.6,51.2c4.3,14.6,8.7,29.2,17.5,42.2c5.2,7.7,11,12.7,19.7,15.6c22.1,7.3,43.9,15.7,66.2,22.4
		c25.1,7.5,44.5,23.3,62.9,40.8c2.7,2.5,4,6.8,5.2,10.4c3.2,9.5,6.2,19,8.9,28.6c2.3,8,6.4,14.1,13.5,19
		c40.6,27.9,80.4,57.2,121.6,84.1c20.2,13.2,43.5,17.5,65.9,3.3c10.1-6.5,20.7-8.7,32.2-8.5c3.3,0.1,6.7-0.4,9.8,0.5
		c16.7,4.5,33.3,9.2,50,14c1.1,0.3,2,1.6,4.1,3.4c-4.6,10.3-9.3,21.1-14.1,31.9c-3.2,7.3-5.4,14.5-6.3,22.7
		c-1.1,10.3-5.6,20.4-9.3,30.3c-3.3,8.7-7.9,16.9-11.4,25.5c-2.2,5.4-3.5,11.2-5.4,17.4c6.5,2.9,11.8,5.3,17.5,7.8
		c0.9,5.3,1.8,10.5,2.8,16.5c-2.7,4.1-5.1,8.9-8.4,12.9c-6.5,7.7-8.6,15.5-5.9,25.8c3.2,12.1,4.3,24.9,6.4,37.8
		c12.8,10.6,25.9,20.6,41.7,26.6c4.3,1.7,8.5,3.8,12.8,5.6c17.7,7.2,32.3,17,39.5,36.5c3.1,8.3,10.4,15.3,16.5,22.2
		c8,8.9,16.8,17.1,25.3,25.6c5.3,5.3,9.6,11,10.1,19.6c-10.6,12.4-25.3,20.4-38.7,30.9c4.3,15,8.6,28.3,18.7,39.8
		c14.5,16.6,30.6,31.4,47.3,45.7c7.1,6.1,13.9,12.5,20.4,19.1c2,2,2.5,5.5,4.3,9.8c-6.3,0.4-10.8,1-15.3,1
		c-86.7,0.1-173.3,1.5-260-0.3c-103.3-2.2-206.6-0.3-309.9-1.7c-14.4-0.2-26,3.1-36,13.1c-3.3,3.3-7.4,5.6-10.9,8.8
		c-6.1,5.5-13.1,8.7-20.9,11c-6.9,2-14.4,4.2-19.9,8.5c-18.5,14.5-39.7,24.4-59.3,36.9c-5.6,3.5-11.2,7.3-16,11.9
		c-5.9,5.6-12.6,9.5-20.1,12.6c-7.1,2.9-13.8,3.8-21.3,2.4c-9.1-1.7-18.4-2.5-27.7-3.2c-9.9-0.8-19.5,0-29.2,3.8
		c-8.4,3.3-18.1,3.4-27.8,5c-3-6.4-5.5-11.7-7.9-17.1c-2.3-5.3-6.4-8.4-11.8-9.8c-0.6-0.2-1.3-0.3-1.9-0.4
		c-40.4-7.2-77-25.3-114.6-40.4c-27.2-10.9-54.5-21.5-82-31.6c-15.4-5.7-31.8-3.9-47.5-2.2c-19.1,2-38.1,6.2-56.8,10.7
		c-11,2.6-20.9,1.8-30.8-3.2c-6.5-3.3-13-6.7-19.7-9.8c-5.6-2.6-9.7-6.6-13.5-11.4c-44.3-55.8-88.8-111.4-133.3-166.9
		c-4.8-5.9-6.9-12.1-7.6-19.9c-1.8-21.2-4.9-42.2-7.5-63.3c-0.3-2.6,0-5.3,0-9.2c12.2-8.6,24.9-16.9,37.7-25.2
		c5.6-3.6,11.3-7,16.8-10.8c13.8-9.5,14.2-10.4,9.8-26.1c-6.5-23.1-13-46.1-19.6-69.1c-1.1-3.8-2.3-7.7-3.1-11.6
		c-6.4-30.4-20.3-57.6-35.1-84.5c-4.6-8.4-10.1-12.6-20.6-11.8c-36.5,2.8-73.1,1-109.7,0.9
		C2723.6,1570.9,2717.1,1569.1,2709.3,1567.9z"/>
	<path onclick="modals(this.id);" id="1134" class="st0" d="M3265.6,455.3c-11,12,3.4,16.6,5.7,24.6c-4.5,10.8-16.9,12.7-24,22.1c1.3,2.4,2.1,6.2,4.3,7.5
		c2.4,1.4,6.6,1.3,9.2,0.1c6-2.8,11.6-6.5,17.3-10c6.3-3.7,12.5-7.6,19.4-11.8c6,5.4,11.8,10.6,18.2,16.4
		c7.4-3.7,14.3-7.2,21.6-10.9c1.7,1.3,3.5,2.2,4.6,3.7c7.7,9.8,17.5,15.8,29.9,18.4c9,1.9,17.6,5.5,27.8,8.9c-2.1,4.4-3,8.3-5.3,11
		c-11.7,13.6-23.9,26.8-35.7,40.3c-12.4,14.1-27.5,25.1-42,36.7c-11.9,9.5-23.6,19.2-35.9,29.2c5.1,10.7,17.5,11.2,23.7,20.9
		c-2.1,2.3-4,6.3-7,7.5c-21.7,8.7-44,15.1-67.7,15.4c-22,0.2-43.9,0.4-65.8,2c-26.2,1.8-51.1,8.8-73.9,22.3
		c-7.5,4.4-15,8.4-23.7,8.7c-9.5-11.9-58.4-107.6-73.3-143.4c6.8-8,13.5-17.1,21.5-24.8c30.9-29.7,55.5-64.5,81.1-98.5
		c10-13.3,19.1-27.2,24.1-43.4c2.1-6.8,6.4-12.9,9.3-18.5c9.5-2.4,17.3-1.9,25,1c14.3,5.4,28.6,10.8,42.9,16.4
		c10,3.9,18.7,9.4,27,16.6C3236.4,434.5,3250.3,443.8,3265.6,455.3z"/>
	<path onclick="modals(this.id);" id="1127" class="st0" d="M3406,608.2c1.2-4.9,2.4-9.8,3.6-14.8c-10.9-8.7-22.2-8.7-34.7-5.9c-1.3,3.5-2.9,6.5-3.4,9.6
		c-1.6,10.2-5.9,17.3-17.5,18.1c-6.1,0.4-8.7,5.4-10.9,10.4c-5.3,12.1-10.7,24.1-16.5,37.2c-4.4-1.2-8.3-1.6-11.5-3.4
		c-8-4.5-16-9.1-22.1-15c-0.9-5.3,2.6-6.7,5-8.7c6.1-5.1,12-10.5,18.6-15c27.5-19.1,49.8-43.5,71.4-68.8c6-7,12.5-13.7,19.2-21
		c22.5,17,32.3,40.4,40.4,65C3421.5,608.9,3420.5,609.2,3406,608.2z"/>
	<path onclick="modals(this.id);" id="1128" class="st0" d="M3364.6,631.3c4.7-3.5,9.4-7,15.3-11.5c15.9-2,33.5-4.2,52.6-6.6c-1.5,2.7-2.1,5.1-3.1,5.3
		c-11,2-22.2,5.4-33.2,5c-14.4-0.5-22.2,5.9-27.9,18.9c3.6,2.5,7.2,5,11.5,8.1c-0.3,12.7-3.7,25.3-14.5,32.5
		c-8.5,5.7-18.1,15.9-32,3.9c-4-10.5-1.5-22.2,5.4-34c10.9-4.7,24.4-6.9,26.6-22.4L3364.6,631.3z"/>
	<path onclick="modals(this.id);" id="1130" class="st0" d="M3300.4,479.4c-8.4,4.9-16.6,9.9-25.1,14.4c-1.8,1-4.7,0-7.1,0c0,0,0.5,0.5,0.5,0.5
		c4.1-4.1,8.1-8.1,12.3-12.3c-1.1-7.9-13.1-11.4-8.8-23c10.3,5.1,19.3,10.4,27.3,17.2c0.7,0.6,0.4,2.4,0.6,3.6
		C3299.9,479.9,3300.4,479.4,3300.4,479.4z"/>
	<path onclick="modals(this.id);" id="1126" class="st0" d="M3399.2,596.9c-4,15.9-4,15.9-21.7,16.2c-2.5-7-0.8-13.5,2-20.2
		C3387.4,590.6,3394,590.5,3399.2,596.9z"/>
	<path onclick="modals(this.id);" id="1129" class="st0" d="M3365.2,630.6c-5.9,4-11.8,8-18.8,12.8c-2.1-9.2,1.1-15.1,6.6-19.8c2.4-2.1,5.8-3.2,9.1-1
		c3.5,2.2,2.9,5.5,2.4,8.8C3364.6,631.3,3365.2,630.6,3365.2,630.6z"/>
</g>
</svg>
