<?xml version="1.0" encoding="utf-8"?>
<!-- Generator: Adobe Illustrator 19.0.0, SVG Export Plug-In . SVG Version: 6.00 Build 0)  -->
<svg version="1.1" id="Layer1" xmlns="http://www.w3.org/2000/svg" xmlns:xlink="http://www.w3.org/1999/xlink" x="0px" y="0px"
	 viewBox="0 0 5400 2700" style="enable-background:new 0 0 5400 2700;overflow: hidden; display: inline; width: inherit; min-width: inherit; max-width: inherit; height: inherit; min-height: inherit; max-height: inherit;" xml:space="preserve">
<style type="text/css">
	.st0{fill:#8FD4EB;stroke:#000000;stroke-width:3;}
</style>
<g>
	
	<path onclick="modals(this.id);" id="1169" class="st0" d="M2652.1,1202.6c-2.1,1.1-3,1.9-3.8,1.8c-9.8-1.3-17.4,3.2-24.5,9c-6.9,5.6-15.2,7.8-23.3,10.7
		c-22.8,8.2-45.4,17.1-68.2,25.4c-56.3,20.4-112.6,40.7-168.9,60.9c-5.8,2.1-5.8,2-9.5,7.3c2.2,1.2,4.4,2.5,6.8,3.8
		c0.2,3,0.3,6.2,0.5,9.6c2.2,1,4.2,1.9,6.2,2.8c-0.2,5.8-0.5,10.8,1.8,16.5c3.6,9,4.4,19.2,5.9,29c0.4,2.7-1,5.7-1.7,9.4
		c-14.4-1.2-28.1-2.4-41.7-3.6c-0.9-8-1.4-14.5-2.4-21c-0.3-2.2-1.2-5.2-2.8-6c-6.4-3.3-7.8-9.4-10.2-15.2
		c-2.6-6.3-12.8-9.7-17.2-4.8c-5.9,6.6-13.3,4.8-20.2,6.2c-2.2,0.5-4.7,0.2-7,0.1c-5.4-0.2-9.6,1.4-12.3,6.6c-1.3,2.3-4,3.9-6.2,5.9
		c-6.4-4.5-7.8-9.7-5.8-16.1c0.6-1.9,0.9-3.9,1.5-5.8c4.5-12.9-1.8-21.7-11.3-29.2c-10.7-8.4-21.5-16.7-32.3-25.1
		c-6.1-4.8-8.9-10.1-4.9-18.1c3.6-7.1,1-13.7-3.3-20.4c-6.1-9.4-11.2-19.5-15.8-29.7c-1.6-3.5-1.4-9.1,0.3-12.6
		c5.6-11.8,4.3-24.7,6.7-36.9c1-5.2-1.3-9.4-6.3-12.4c-9.1-5.5-17.7-11.8-28.6-13.5c-1.6-0.2-3.4-0.8-4.6-1.8
		c-8.5-7.1-18.8-9.6-29.1-12.3c-6.5-1.7-6.9-2.3-5.4-9c3.7-17.6,7.5-35.1,11.6-52.6c1.4-6.1,1.3-11.7-0.8-17.6
		c-3.9-10.9-7.3-22-11.5-34.7c7,2.1,12.2,3.7,16.9,7.6c5.6,4.7,12.1,8.1,17.8,12.7c8.8,7.1,18.1,4.6,27.4,2.2
		c6.2-1.6,11.6-3.3,18.1,0.5c5.7,3.4,11.8,0.4,14.6-5.8c4-8.8,8-17.3,15.3-24.1c4.3-4,4.2-10,2.8-16c-1.3-5.7-1.5-11.6-2-16.3
		c7.2-5.2,13.1-9.3,18.8-13.8c2-1.6,4.3-3.8,4.7-6.1c1.2-6.5,5.6-9.2,11.1-11.6c4-1.7,7-2.1,11.1,0.3c9.2,5.3,16.3,2.9,21.6-6.3
		c2.5-4.3,0.5-10-4.8-10.9c-10-1.7-17.4-8.1-25.7-12.8c-3.3-1.9-5.9-6.2-7.2-10c-2.5-6.8-5.6-12.1-11.8-16.6
		c-4.4-3.2-7.7-9.5-8.8-14.9c-2-9.5-6.5-16.8-14.1-22.1c-6.1-4.3-8-9.8-8.1-17.1c-0.1-9.3-0.6-18.4,3.4-27.3c2.6-5.8,6-8.5,12.1-8.2
		c1.7,0.1,3.3,0.1,5,0c8.3-0.5,15.7-2.6,19.1-11.6c0.7-1.8,3.1-4,4.8-4c6.7,0,13.5,0.7,20.2,1.3c4.9,0.4,6.1-3,7.2-6.6
		c2.4-7.6,4.5-15.3,7.4-22.7c1.9-4.8,4.8-9.4,7.9-13.7c4.9-6.6,3.5-10.8-4.5-12.7c-8.7-2.1-17.4-4.3-25.8-7.1c-6.9-2.3-8.3-6.7-5-13
		c0.9-1.7,2.4-3.1,3.7-4.7c2.9-3.5,4.8-6.5,1.9-11.5c-1.6-2.8-0.3-7.3-0.3-11.4c7.3-0.7,11.8,3.4,16.7,5.7c4.7,2.3,8.6,3.4,12.3-1.4
		c3.2-4.1,6.9-2.5,10.9-1.2c15,5,26.4-3.8,24.3-19.2c-0.7-5.2,0.9-8.9,3.4-12.9c4.9-7.8,4.7-10.7-0.9-17.9c-3.9-4.9-3.9-4.9-3-11.6
		c6.5,0,13,0,19.4,0c3,0,6.1,0.2,9-0.3c4.4-0.8,7.3-4.2,7.6-8.2c0.2-2.2-2.2-5.1-4.1-7.1c-2.5-2.7-5.4-5-8.4-7.1
		c-11.7-8.1-14.6-18.7-7.2-32.5c6,0.4,11.8,1.4,17.6,0.9c5.9-0.5,11.5-2.8,17.4-3.7c14.1-2.1,28.3-3.8,42.4-5.8
		c4.3-0.6,8.5-1.4,12.6-2.7c8.8-2.7,11.5-11.8,5.5-18.8c-3.6-4.3-8-8-11.9-12.1c-6.2-6.6-5.5-13.7,3.2-16.2
		c10.3-3,17.6-10.4,26.9-14.6c2.7-1.2,4.5-5.4,5.9-8.6c4.5-10.9,6.8-12.4,18.1-9.3c5.1,1.4,10,3.5,15.1,5.1c2.5,0.8,5.1,1.5,7.7,1.6
		c7.1,0.2,9.5-3.1,7.6-10.1c-0.9-3.2-2.6-6.2-3.4-9.4c-0.7-2.5-1.3-5.3-0.6-7.6c0.5-1.6,3.4-3.4,5-3.2c1.5,0.2,4,3.1,3.7,4.5
		c-2.5,16.3,3.6,32.2,1.7,48.5c-0.8,6.4,3.1,13.4,5.4,19.9c0.6,1.6,3.5,3.2,5.5,3.3c15.3,0.9,30.5,1.8,45.8,2
		c5.1,0.1,10.3-2.1,14.9-3.1c1.7,4.7,3.5,9.6,5.3,14.5c0.8,2.2,1.8,4.3,2.3,6.5c2.4,9.5,1.1,17.8-9.4,23.9
		c8.7,5.7,16.4,10.7,24.1,15.7c7.8,5.1,15.6,10.1,24,15.6c-4.8,10.3-7,21.5-15.7,29.5c-3.8,3.5-7.7,5.8-13.3,5
		c-4.5-0.6-9.2-0.3-13.8,0.2c-10.8,1.2-19.2,7.6-26,15.2c-5.4,6.1-11.7,9.4-18.9,12.2c-3.3,1.2-7.2,3-8.9,5.7
		c-6.1,9.7-14.1,17.4-22.7,24.8c-3.2,2.8-4.4,7.8-6.3,11.4c8.7,10.7,9.2,10.9,20.5,5.8c5.6-2.5,11.2-3.9,17.4-1.5
		c2.3,0.9,5.1,0.7,7.7,0.9c3.8,0.4,7.7,0.8,11.4,1.1c1,3.8,1.7,6.6,2.6,9.7c-0.7,0.3-1.5,0.9-2.4,1c-4,0.4-7,1.4-6.9,6.5
		c0,1.5-1.9,4-3.4,4.5c-7.4,2.4-8.3,8.5-9.9,15.8c4.6,2.2,9.3,4.4,14.4,6.8c-0.9,2.1-2,4.7-3.3,7.6c3,3.5,6.4,4.6,11.3,3.1
		c5.2-1.6,11.6-0.5,13.7-7.6c2.6-8.9,8.9-13.6,17.9-15.2c1.9-0.3,3.8-1.2,5.3-2.4c7-5.7,13-7,22.3-3.7c-3.1,2.1-6.1,3.6-8.3,5.8
		c-1.7,1.7-3.3,4.3-3.3,6.5c0,1.3,2.9,3,4.8,3.9c2.5,1.2,5.4,1.9,8.3,2.9c-2.4,4.2-5.3,2.9-8,1.5c-5.2-2.6-9.6-1.6-14,3.1
		c0.7,2.3,1.4,4.9,2.4,8.1c-1.7,0.4-3,1-4.1,0.9c-5.7-0.6-9.9,1-13.5,6.1c-2.6,3.7-7.1,5.9-10.6,9c-1.9,1.6-3.5,3.6-5.2,5.4
		c2,1.8,4.1,3.6,7.1,6.2c0.2,1.4,0.5,4.3,0.9,7.7c4.3-0.5,8.2-1,12.3-1.5c2.8-7.4,7.6-10.6,15.6-7.5c1.6,0.6,3.8-0.4,5.7-0.8
		c6.4-1.4,12.7-3,19.8-3.9c-5.6,7.1-3.1,13.8-0.9,20.8c3.8,11.7,7,23.6,10.2,35.5c1.1,4.1,2.6,7.3,6.7,9.2c2.3,1.1,4.8,3.2,5.6,5.4
		c3.1,9.1,8.4,17,12.2,25.7c4.8,11-1.3,20.7-5.6,30.3c-1.2,2.7-3,5.2-4.7,7.6c-8.9,13.1-6.3,26.2,4.5,34.7
		c10.9,8.5,14.7,21.2,21.9,31.7c1.2,1.7,0.8,5.2-0.1,7.4c-3.8,9.1-8,18-12.6,28.3c5.9,5.8,14,10.9,23.5,14c0.9,0.3,2,0.4,2.9,0.1
		c18.9-5.1,37.5,1.9,56.2,2c1.4,0,3.2,1.1,4.3,2.2c11.1,11.3,22.1,22.8,34.5,35.7c-5.4,0.3-8.9,0.1-12.3,0.7
		c-4.2,0.8-8.8,1.6-12.3,3.8c-13.9,8.7-29.1,10.7-44.9,9.3c-8.4-0.7-16.5-0.2-24,4.3c-4.6,2.8-9.4,2.5-14.3,0.2
		c-4.8-2.3-9.8-4.1-14.7-6.3c-13.8-6.4-24-4.5-33.7,7c-4.7,5.5-8.1,12.3-13.5,17c-5.4,4.6-12.5,7.3-19.9,11.4
		C2625,1151.9,2638.1,1177.3,2652.1,1202.6z"/>
	<path onclick="modals(this.id);" id="1170" class="st0" d="M3318.7,1009.4c-2.6-3.1-3.6-4.3-4.5-5.6c-6.1-8-14.8-9.8-23.5-4.6c-5.4,3.2-10.4,7.2-16,10.1
		c-4.6,2.4-9.8,3.8-14.8,5.1c-1.7,0.4-4.5,0-5.6-1.1c-4.8-5-10.6-4.1-16.7-4.1c-6.7,0.1-11.6,1.8-14.2,8.4
		c-3.7,9.3-12.1,7.6-20.8,7.9c-3.1-9.8-11.5-17.8-11.4-29.6c0-4.7-1.9-8.9-6.2-11.9c-5.8-4.2-8.5-10.1-7.6-17.4
		c0.7-5-1.2-9.1-4.6-12.6c-4.4-4.5-9.3-8.6-13.1-13.6c-3.6-4.7-6.4-10-8.8-15.4c-5.6-13.2-13.6-15.9-26.6-7.4
		c-1.4-4.6-2.8-8.8-3.9-13.1c-1.4-5.5-3.8-9.4-10.4-10.2c-6.2-0.7-12.1-2.9-19.2-4.7c9.6-20.5,19-40.5,29.1-62.1
		c-4.3,0.8-6.8,1.1-9.1,1.8c-7.5,2-8.8,1.6-12.8-5c-4.9-8.1-11.6-15.6-8.3-26.3c-9.1-0.5-9.1-0.5-12.7,9.7c-1.7-1-3.2-2.1-4.8-2.9
		c-3.5-1.8-6.8-4.2-10.5-4.9c-5.2-1.1-10.6-1.4-15.9-1c-3.8,0.3-7.7,1.8-11.1,3.5c-8.4,4.3-11.8,3.1-14.9-5.8
		c-2.8-7.8-5.8-15.4-9.2-24.2c-8.5,1-16.9,2-25.4,3.1c-5.6,0.7-11.2,1.3-16.8,2.2c-8.3,1.2-10,3.1-10.9,11.4c-0.2,2.1-0.9,4.2-1.6,7
		c-5.1-1.9-9.4-3.4-14.4-5.2c-1.7,4.3-3.2,8.2-5.1,13c-3.4-1.9-5.9-3.3-8.8-5c-3.3,3.8-6.6,7.6-9.9,11.3c-0.4-0.3-0.8-0.6-1.3-0.8
		c1.2-5.3,2.5-10.6,3.8-16.4c1.8-0.9,3.8-2,5.9-2.9c10.4-4.6,11.4-7.1,6-17.9c2.6-1.2,5.4-2.2,7.7-3.8c2.1-1.4,3.6-3.6,6.1-6.2
		c-6.4-2.6-11.5-6.1-18.8-3.1c2.7-3.4,5.3-6.7,8-10.1c-5.5-5.2-42.1-24.6-58.5-30.9c-0.8,2.8-1.4,5.5-2.4,8.2
		c-3.2,9-8.9,12.9-17.8,12.9c-4.5,0-9.5-2.3-13.3,1.7c-6,6.4-14.7,10.7-17.1,20.2c-0.4,1.6-0.6,3.3-1.1,4.9
		c-3,9.4-6.4,18.1-18.5,19.2c-5.8,0.5-10.3,4.3-13.5,9.4c-6.1,9.6-16,7.9-25,7.2c-5.4-0.4-7.9-5.2-6.6-11.3c1-4.8,3.1-9.4,4.9-14.1
		c2-5.3,4.3-10.5,6.3-15.7c3-7.4,3.2-14.9,0-22.3c-2.2-5-1.8-9.6,1.1-14.2c1-1.6,1.8-3.8,1.5-5.6c-1.4-9.1-1.3-18.6-6.4-26.9
		c-1.2-2-2.4-4-3.4-6.1c-3.5-8.1-2.7-11.6,3.7-17.7c1.7-1.6,3.4-3.1,4.9-4.9c2.1-2.5,4-5.3,6.4-8.4c-2.5-6.7-5.3-13.4-7.4-20.3
		c-1.3-4-1.9-8.4-2.1-12.6c-0.2-6.3-0.9-11.7-7.9-14.3c-2.4-0.9-4.2-3.3-6.3-4.9c-8.1-6-12.2-4.9-16.7,5c-2.6-1.4-5-3.1-7.7-4
		c-3.5-1.1-7.4-1.6-9.8,2.4c-2.1,3.4-1,6.3,1.6,9c0.9,0.9,1.8,2,3.2,3.5c-2.1,2.1-4.1,4.1-5.7,5.7c-10.8-2.7-19.4-7.2-25.1-16.1
		c-1.5-2.4-3.1-5.2-3.5-8c-1.5-11.8-2.6-23.6-4-35.4c-0.2-1.8-1.3-3.9-2.6-5.1c-5.2-5-10.5-10.1-16.2-14.6c-2.4-1.9-5.7-3.3-8.7-3.7
		c-9.7-1.4-17.3-5.5-23.3-13.6c-3-4-7.8-6.7-12-9.9c-3.2-2.4-6.4-4.6-9.9-6.5c-3.9-2.2-8.3-3.5-12.1-5.9
		c-10.9-6.7-21.1-14.6-28.7-24.9c-3.7-5-4.8-12-6.9-17.7c5.2-0.5,11-1.1,16.8-1.6c6.1-0.6,10.9-3.8,13.5-9.1
		c2.7-5.4,6.6-8.3,12.4-8.5c5.5-0.2,8.6-3.2,10.5-7.8c3.2-7.8,8.8-16,5.1-24.3c-4.6-10.5-11.2-20.1-17.4-29.7
		c-1.6-2.5-5.3-3.7-8.3-5.7c0-2.9,0-5.9,0-9.8c1.8,0.3,3.3,0.5,4.7,0.9c25.1,6.6,50.5,12.2,75.1,20.3c15.9,5.3,31.1,4,46.9,2.7
		c16.2-1.3,32.5-2,48.7-3.1c20.2-1.3,40.4-2.6,60.6-4.2c2.6-0.2,5.1-2.2,8.6-3.7c-2-3.5-3.5-6.1-4.9-8.5
		c-5.3-9.1-10.8-18.1-15.8-27.3c-1.2-2.2-1.7-5.2-1.4-7.6c0.3-2.2,2-5.6,3.6-5.9c2.5-0.5,7.1,0.5,7.8,2.1
		c3.7,8.4,11.3,9.6,18.6,11.8c17.8,5.4,35.5,11.1,53.4,16.4c4,1.2,8.3,1.3,13.2,2c1.1-13.1,7.6-24,2.1-37c-3.2-7.5-0.5-16.3,3.5-24
		c1.5-2.8,3.4-6.2,3.1-9.1c-0.8-6,1.7-9.3,6.2-12.4c7.7-5.1,15.6-10,20.8-18.2c1-1.7,4.6-2.6,6.8-2.5c3.9,0.3,7.8,1.6,11.5,2.7
		c2.9,0.8,5.6,3.1,8.4,3c9.4-0.3,16.5,4.8,23.6,9.6c4,2.7,7.4,6.4,10.9,10c2.1,2.1,3.5,4.9,5.5,7.1c10.8,11.1,18.2,11.8,31,3.1
		c1.9-1.3,4.3-2.3,5.7-4c5.8-7.2,13.4-8.9,22.2-8.9c4.3,0,8.5-2.2,15.1-4c2.7,1.5,7.5,4.1,12.1,6.7c0,5.6-0.4,10.5,0.1,15.3
		c0.7,6.5,4.1,11.8,9.4,15.8c9.1,6.9,16.6,15.2,22.7,24.9c4.2,6.7,10.4,11.4,18.8,11.4c12,0,19.9,5.7,25,16.4
		c4.4,9.3,9.3,18.4,14.3,27.3c1.8,3.1,4.1,6.3,7,8.3c7.9,5.5,12.7,13.4,18.1,21c7.9,11,17.9,19.8,31.3,23.7
		c11.4,3.3,16.8,11.1,18.9,22.6c-0.6,0.7-1.1,2.1-2.2,2.8c-14,9.4-24.2,22.7-35.5,34.8c-2.2,2.4-4.1,5.2-5.8,8.1
		c-4.6,7.8-10.2,14.3-18.6,18.9c-5.4,2.9-9.9,7.9-13.9,12.7c-4,5-4.1,10.9-1.1,16.9c3.4,6.8,6.6,13.8,9.5,20.8
		c5.7,14,13.9,25.5,28.5,31.6c4.8,2,8.8,3.7,12-2c2.4,1.3,4.3,2,5.8,3.3c5.2,4.4,11.1,5.7,17.7,5.1c7.9-0.7,15.8,1.4,23.7-1.6
		c2.1-0.8,6.1,0.8,8,2.6c3.5,3.4,6.3,7.6,9,11.7c1.6,2.5,2.3,5.5,3.4,8.3c3.8,9.5,9,12.8,18.4,10.2c11.9-3.3,15.8-4.5,18.3,12
		c0.8,5.6,1.4,11.2,1.9,16.8c0.6,8.3,0.3,16.7,1.7,24.8c1.6,9.2,5,17.6,12,24.7c7,7,12.7,15.3,18.8,22.7c-0.1,1.2,0,2-0.3,2.5
		c-6,9-8,19.4-10,29.6c-1.2,6-3.8,10.7-8.1,14.3c-6.5,5.4-10.2,12-10.5,20.6c-10.3,2.7-16.6-3.5-23-9.1c-0.5-0.4-0.9-1-1.1-1.6
		c-5.9-15.5-19.5-19.8-33.8-22.7c-10.9-2.2-21.3-5-29.3-13.5c-2.7-2.9-6.3-3.1-10.1-1c-5.2,3-10.7,5.4-15.8,8.5
		c-11.7,7-23.3,14.1-34.9,21.3c-9.4,5.9-12.1,13.5-10.2,24.5c2.6,15,10.6,26.2,22.7,34.9c5.4,3.9,10.5,8.2,15.5,12.5
		c4.9,4.3,6.7,9.7,5,16.1c-0.6,2.2-1.3,4.7-0.9,6.9c1.1,6.9,1.4,13-2.8,19.6c-3.5,5.5,0.1,9.6,7.5,10.2c16.9,1.5,33.7,2.9,50.6,4.2
		c17.2,1.4,34.4,2.7,51.6,4.2c2.6,0.2,5.1,1.2,7.8,1.9c1.7,12.3,3.7,24.4,5,36.5c0.8,7.6-2.1,10.9-10.6,10.5
		c-9-0.3-16.1,3.5-23.2,7.9C3322,997.3,3317.5,1000.5,3318.7,1009.4z"/>
	<path onclick="modals(this.id);" id="1171" class="st0" d="M2656.2,1202.9c-13.5-25.1-26.8-49.7-39.8-73.8c0.9-1.4,1.1-2.3,1.6-2.5
		c12.7-5.3,22.2-13.6,29.2-25.7c6.4-11.1,18.8-13.1,30.7-7.7c5.1,2.4,10.4,4.4,15.5,6.9c5.5,2.7,11,2.6,16.1-0.4
		c8.6-5.2,17.8-5.2,27.1-4c12.6,1.7,24.5-0.9,35.6-6.3c7.9-3.8,15.4-7.5,24.6-6.8c2.7,0.2,5.5-1.2,9.3-2.2c-1.9-2.7-2.8-4.4-4.1-5.7
		c-10.6-11.1-21.3-22-31.7-33.2c-2.8-3-5.7-3.9-9.6-4.1c-13.6-1-27.1-2.6-40.6-3.6c-3.2-0.2-6.8-0.1-9.7,1.2
		c-3.8,1.7-7.3,1.3-10.4-0.4c-5.7-3.1-11.1-6.9-16.1-10.1c4.2-9,8.2-17.3,12-25.7c2-4.5,1.9-8.8-1-13.2c-3.3-5-5.5-10.6-8.8-15.5
		c-2.7-4.1-6.1-7.8-9.6-11.2c-4.9-4.6-9.5-9.3-11.1-16.1c-1.2-5.4-0.7-10.4,2.2-15.4c4-6.9,7.9-13.9,11.1-21.2
		c4.9-11.2,4.1-22-3.8-31.9c-1.8-2.2-3.5-5.2-3.7-7.9c-0.5-6.8-4.5-11.4-9.3-14.6c-4.4-2.9-6-6.5-7.2-11.2
		c-3.1-11.6-6.1-23.2-10-34.5c-2.3-6.5-1.3-11.5,2.7-16.6c1.2-1.5,1.8-3.4,3.3-6.3c-6.1,1.1-11.1,2.4-16.3,2.9
		c-7.7,0.8-14.7,5.5-23.2,3.1c-2.4-0.7-6.1,3.1-9.1,4.9c-2.6,1.5-5.1,3.1-8.7,5.3c-0.3-4.4-0.5-7-0.7-10c-1.9-0.4-4-0.8-6.1-1.2
		c0.3-1,0.3-1.8,0.7-2.2c4.7-4.2,9.4-8.4,14.3-12.3c1.9-1.5,4.5-2.6,6.9-2.8c11.2-1,11.2-0.9,8.8-11.7c3.4-4.4,7.1-1.1,10.7-0.2
		c6.6,1.7,8.8,0.4,11-7.3c-4.7-1.7-9.5-3.4-16.7-6c7-4.3,11.9-7.4,18.6-11.5c-5.8-2.4-10-4-14.1-6c-4.5-2.2-7.8,8-12.7-0.9
		c-2.4,8.1-7.6,10.3-13.5,12.1c-5.7,1.7-11.6,4.5-13.3,11c-2.8,11.1-11.5,9.7-20.3,10.7c1.3-4.1,2.4-7.4,3.4-10.7
		c-5.3-1.8-10.1-3.5-14.7-5.1c0-6.4,2.3-9.6,6.9-12.2c3.3-1.8,5.5-5.6,7.1-9.4c3-1,5.9-2,9.4-3.2c-1-2.8-1.8-4.5-2.2-6.4
		c-1.9-7.1-7-10.7-14-10.2c-2.9,0.2-5.9,0.3-8.6-0.4c-7.4-2-14.3-1.2-21.1,2.5c-2.6,1.4-6.5,2.5-9.1,1.5c-6.6-2.4-6.6-9.7-0.5-15.2
		c4.1-3.8,8.3-7.5,12.2-11.5c2.9-3.1,5.2-6.8,8.2-9.8c3-2.9,6.1-6.5,9.8-7.7c8.1-2.8,14.4-7.2,20.4-13.5
		c10.5-11.1,23.7-17,39.4-14.1c3.8,0.7,6.2,0,9-2.2c6.7-5.3,11.8-11.5,14.8-19.6c1.9-5.3,4.5-10.3,7.1-16.3
		c-15.3-10-30.5-19.9-46.3-30.2c9.9-8.8,8.5-19,4.9-28.9c-5.4-14.7-5.8-14.6,1.3-30.1c0.9,0,2.1-0.3,2.7,0.2
		c10.3,8.6,24.2,12.1,31.9,24.3c4.3,6.9,12.2,9.5,19.8,10.2c5.2,0.5,8.7,2.7,12.2,5.7c4.2,3.7,8.4,7.5,12.3,11.5
		c1.3,1.3,2.2,3.2,2.5,5c1.6,8.4,2.8,16.9,4.2,25.4c0.2,1,0.7,2,0.6,2.9c-2.7,16.6,9,23.4,20.7,29.9c3.2,1.8,6.7,2.8,9.4,3.9
		c4.1-2.3,7.7-4.3,12.4-6.8c-2.2-2.5-4.9-4.9-6.6-7.8c-1-1.6-0.5-4.1-0.6-6.2c1.9-0.1,3.7-0.3,5.6-0.3c0.6,0,1.2,0.6,1.8,0.9
		c9.7,4.8,9.7,4.8,13.7-6.4c2.9,1.5,5.8,2.8,8.4,4.5c2.8,1.8,5.6,3.7,8.1,5.8c1.6,1.4,3.8,3.5,3.7,5.1c-0.9,10.8,3,20.3,7.3,29.7
		c3.3,7,1.2,12.1-3.8,16.8c-1.2,1.1-2.6,2.1-3.8,3.3c-7,7-8.2,11.8-3.7,20.6c4.3,8.4,7.4,16.9,8.7,26.3c0.6,4.6,0.5,8.2-1.9,12.2
		c-2.1,3.7-3,8-0.9,12.4c5.3,11,1.8,21.3-2.5,31.5c-2.8,6.7-6,13.4-7.6,20.4c-2.4,9.9,3.1,15.7,13.3,16.1c10.2,0.4,18.4-2.1,25-10.9
		c2.9-3.8,8.6-6.2,13.5-7.5c7.1-1.9,11.9-5.4,14.1-12.5c0.7-2.2,2.3-4.3,2.5-6.5c1-11.2,9.1-17.4,16.6-23.8c2.4-2,6.7-2.7,10.1-2.6
		c13.1,0.4,17.2-1.8,22.4-13.3c0.9-2,1.6-4.2,2.7-7.1c17.6,9.1,34.7,17.9,52,26.7c-3.1,4.9-5.9,9.4-9.8,15.6
		c7.6-0.4,13-0.7,18.5-1.1c0.1,0.6,0.2,1.3,0.3,1.9c-2.2,1.2-4.6,2.2-6.7,3.6c-3.8,2.7-7.1,5.5-1.8,10.1c2.7,2.4,0.9,5.1-1.3,6.7
		c-1.8,1.4-4.2,2-6.3,2.8c-4.7,1.8-7.6,4.4-7.7,10.2c0,4.1-2.1,8.1-3.5,12.9c2.5,1.1,4.7,2.1,7,3.1c2.7-3.8,4.9-7,7.5-10.7
		c2.7,1.3,4.9,2.3,7.4,3.5c5-2.1,9-4.9,7.8-12.9c4.8,2.4,8.5,4.3,12.2,6.2c7.4-3.1,6.7-9.8,6.3-16.9c15.7-4.4,31.5-5.2,47.6-7.8
		c3,7.6,6.2,14.6,8.5,21.7c2.8,8.8,8.3,14.3,18.6,7.9c5.5-3.4,11-4.3,17.1-2.9c2.2,0.5,4.6,0.7,6.9,0.7c4.5,0.1,8.2,1.5,11.6,4.7
		c6.5,6,8.9,4.9,10.7-4c0.3-1.5,1.1-3,3-3.7c0.6,7.6,2.2,13.5,6.3,18.9c4,5.2,7.6,10.7,11.2,15.8c4.3-0.9,7.5-1.5,12.4-2.4
		c-9.4,20.2-18.3,39.3-27.8,59.7c7.2,1.9,13.7,4.1,20.4,5.1c6.3,0.9,9.2,4.1,10.6,10c1.5,6.1,3.6,12,5.9,19.6c2-2.9,3.2-4.5,4.3-6.3
		c4.5-7.4,14.8-5,18.2,1.2c0.3,0.6,0.6,1.2,0.7,1.9c2.7,12.8,11.7,21.4,20.6,29.8c5.2,5,8.3,10.2,7.2,17.5c-1,6.8,3.5,10.9,7.5,15.5
		c2.5,2.8,5.7,6.5,5.8,9.8c0.1,7.4,2.7,13.7,6.4,19.5c4.4,6.8,4.9,14,3.7,22.5c-5.4-2.3-8.8-5.5-11-11.3
		c-3.4-9.3-7.2-18.6-17.9-22.5c-2.6-1-4.8-4.3-6.3-7.1c-4.5-7.8-8.5-15.8-12.7-23.7c-2.3-4.3-5-6.5-10.4-4.4
		c-8.7,3.3-17.7,5.8-26.5,8.9c-5.8,2.1-6.8,4.1-5.3,9.8c4.1,15.7,7.8,31.7,12.9,47.1c4,12.3,9.9,23.9,14.9,35.9
		c5.2,12.2,10.5,24.5,15.5,36.7c3.7,9,7.4,17.5,18.7,20.1c5.7,1.3,8.9,7.1,10,12.8c2.6,13.3,5.6,26.7,6.3,40.2
		c0.7,12.5,2.6,24.4,6.8,36.1c2.1,5.9,3.7,12,6.1,19.7c-4.3-0.7-7.4-0.9-10.4-1.7c-62.3-16.8-124.6-33.4-186.7-50.7
		c-22.9-6.4-46.1-10.3-69.6-10.3c-14.8,0-29.7,2.8-44.5,4.6c-28,3.6-55.9,7.7-83.9,11c-28,3.2-56.1,4.8-84,8.7
		c-14,2-28.4,0.5-42.3,5.2C2671.6,1204.7,2664,1202.9,2656.2,1202.9z"/>
	<path onclick="modals(this.id);" id="1181" class="st0" d="M2082.2,1918.1c3.8,4.6,8.4,9.8,12.4,15.3c6.6,9,14.3,17.1,17.4,28.7c1.4,5,7.1,10,12.1,12.5
		c18.2,9.4,31.2,24.6,45.5,38.5c0.9,0.9,2,1.5,3.8,2.9c2.5-3,5-5.5,7-8.5c6.9-10.6,17.2-17.4,27.4-24.4c4.8-3.3,8.5-2.6,11.5,2.9
		c2.3,4.2,5.2,5.1,9.5,5.4c31.4,2.2,62.8,4.8,94.3,7.1c6.3,0.5,12.6,0.5,19,0.8c8,0.3,9.9,1.6,10.3,8.9c0.7,13.2,8.3,23.3,14.1,34.2
		c1.4,2.6,2.8,5.2,4.2,7.8c0.9,1.7,1.4,4.2,2.9,4.9c6.2,3.5,7.8,9.1,9.1,15.5c1.6,7.9,7,13.3,14.5,18.3c4.3-6,8.6-11.7,12.6-17.6
		c5.6-8.2,11.3-16.5,16.5-25c2.5-4,5.6-6.2,10.1-7c8.2-1.4,16-2.9,23.5-7.5c6.1-3.7,13-0.8,18.6,3.3c3.5,2.6,6.5,5.6,9.7,8.6
		c5.6,5.2,8.4,11.3,8.6,19.3c0.2,11.7-1.1,22.2-8.7,31.8c-4.7,5.9-7.2,13.3-7.7,21.3c-0.5,7.3-2.8,14.4-2.8,21.6
		c0,7.9,1.3,15.8,2.6,23.6c0.7,4.2,2.7,8.2,4,12.3c3.8,12.6,3.9,24.8-2.7,36.7c-1.9,3.5-3.4,7.2-4.6,11c-1.9,5.6-1.6,11.1,2.5,15.8
		c3.1,3.7,3.3,7.4,2,12c-1.5,5.3-1.7,10.9-2.4,15.9c5.8,4.3,10.7,5.8,16.9,4.7c6.1-1,12.6-1.3,18.6-0.2c10.1,1.8,19,0.7,27.4-5.2
		c4-2.8,8.6-4.9,14.1-8c2.3,8.1,4.9,15.4,6.5,23c1.5,6.8,4.7,10.7,11.5,13.2c30,10.9,59.7,22.6,89.5,34c1.2,0.5,2.3,1.1,3,1.4
		c1.5,15.3-6.8,23.7-18.7,30.3c-8.9,4.9-18.8,8.6-25.7,16.9c-1.7,2-5.4,2.3-8.2,3.3c-11.2,4.1-21,9.6-26.1,21.4
		c-3.3,7.7-9.2,13-17.9,14.3c-1.6,0.2-3.4,0.7-4.9,0.2c-5.7-1.6-11.2-3.5-16.8-5.3c-6.8-2.2-12.5-5.7-16-12.4
		c-1.8-3.5-4.6-6.6-7.5-9.3c-4.3-3.9-9.2-1.7-9.9,4.1c-0.3,2.3,0.2,4.6,0.3,7c0.6,9.8,0,10.9-8.6,15.9c-7-6.8-14-13.4-20.7-20.2
		c-2-2-4.1-4.6-4.7-7.2c-4.2-17.5-15.1-29.8-29-40.4c-3.6-2.7-6.3-6.7-9-10.4c-4.4-6.2-6.6-7-12.9-2.9c-9.8,6.3-16,15.7-17.1,27
		c-1.1,11.5-8.9,16.8-17.2,21.4c-5,2.8-11.3,3.1-17.3,4.6c-3.2-6.4-6.7-12.4-9.4-18.8c-2-4.8-3.8-9.9-4.4-15
		c-1.7-14-5.4-19-19.5-20.8c-8.3-1.1-15.1-4.4-21.8-8.8c-3.2-2.1-7.1-3.6-10.9-4.2c-5-0.8-8.7,0.3-12.2,5.8
		c-3.7,5.8-10.7,9.6-16.4,14.1c-10.5,8.2-10.5,9.4-2.5,19.7c3.1,3.9,8.6,6.5,7.7,13.2c-1.1,8-4.7,14.8-10.8,19.5
		c-9.1,7.1-18.7,13.6-28.7,19.3c-3.7,2.1-8.9,2-13.5,1.9c-8-0.2-9.8,0.8-11.8,8.4c-1,3.8-3,7.6-3,11.4c0,4.4,1.8,8.8,3,14.4
		c-1.6,2-4.1,5-7.5,9.3c-3-6.1-5.9-10.8-7.7-15.9c-2.1-5.8-5.7-9.5-11-12.2c-5.6-2.9-11.2-5.8-16.5-9.3c-8.3-5.4-17.4-8.5-27.1-9
		c-6-0.4-11-2.1-15.6-5.6c-1.1-0.8-2.2-1.5-3.3-2.2c-9.6-6.9-19.1-7.5-29.6-1.2c-9.9,6-19.9,1-21.2-10.5c-0.7-6.8-3.2-12.1-7.8-16.6
		c-6.9-6.8-12.5-5.5-15.3,3.7c-1.5,4.9-2.5,9.9-4.1,16.3c-2.3-2.1-3.7-2.7-4-3.6c-3.9-14.7-8.7-29.4-5.4-45c0.8-3.8,0-8,0.4-12
		c0.6-6.6,0.6-13.4,2.4-19.7c2.4-8.6,1.8-16.6-2.7-24c-5.1-8.4-2.1-15.9,1.7-23.4c1.8-3.5,4.7-6.5,6.8-9.9c7-11.5,5.6-26.1-3.7-35.9
		c-6.5-6.8-12-13.8-15.4-22.9c-3.1-8.3-8.8-15.3-17.9-19.1c-6.1-2.6-10.1-7.8-11.6-15.2c-1.9-9.6-0.7-18.4,2.4-27.4
		c1.9-5.6,3.2-11.5,5.1-17.2c1.7-5.1,0.6-9.2-3.6-12.4c-5.6-4.2-6-9.6-4.7-16c2.1-11.1,3.1-22.4,5.5-33.4c2.5-11.7,5.8-23.2,9-34.7
		c1.2-4.4,5.1-4.6,8.9-4.7c16.2-0.5,26-12.2,23.8-28.3c-0.8-6.1-4.3-10.2-9-13.7c-7.9-6-8.8-9.3-4.1-17.6c4.8-8.4,10-16.4,11.6-26.3
		c0.8-4.9,5.3-7.1,10.3-8C2069,1922,2074.4,1920.2,2082.2,1918.1z"/>
	<path onclick="modals(this.id);" id="1179" class="st0" d="M2482.1,2265.2c0.8-5.9,1-10.6,2.1-15c1.2-4.8,1.6-9.1-1.8-13.2c-4.2-5.2-4.5-10.8-2-16.8
		c1-2.5,1.5-5.2,2.9-7.4c8.2-13.7,7.9-28.2,2.7-42.3c-5.1-13.9-6.3-27.4-3.9-42.1c1.6-9.8,1.4-19.9,6.7-28.8
		c0.7-1.1,1.1-2.5,1.9-3.5c9.1-10.1,8.9-22.3,8.7-34.8c-0.2-8.3-3.2-14.9-9.6-19.9c-6.5-5-11.3-12.8-20.5-13.3
		c-3.8-0.2-7.8,0.3-11.5,1.3c-7.3,2.1-14.2,5.6-21.6,6.9c-5.9,1.1-9.4,3.5-12.5,8.4c-7.8,12.4-16.2,24.4-24.3,36.6
		c-0.7,1.1-1.3,2.4-1.9,3.7c-8.1-4.7-12.1-10.6-12.7-18.2c-0.4-5.1-1.8-8.9-6.5-11.5c-1.6-0.9-3.1-2.6-4-4.3
		c-5.9-10.7-12-21.2-17.1-32.3c-2.2-4.9-2.1-10.9-3.1-17.2c7.5-0.8,7.1-6.6,8-11.3c3.8-20.2,7.3-40.5,10.9-60.8
		c1.2-6.9,3-13.7,3.6-20.6c0.6-6.6,3.1-11.4,10.3-14.2c4.2,5.8,8.7,11.9,13.4,18.2c5.6-1.9,6.2-6.4,6.8-10.5
		c1.5-9.6,7-16.8,12.8-24.1c3.8-4.7,8.3-9.5,7.5-16.7c-0.3-2.7,1.8-5.6,3.2-9.2c4.2,3,5.9,5.4,4.9,9.2c-3.5,12.7-3.5,12.7,2.3,24.2
		c0.6,0.2,1.4,0.6,1.8,0.4c9.7-4.7,11.7-3.9,14.8,6.2c1.9,6.4,13.4,16.3,19.1,14.4c5.1-1.7,7,0.8,10.2,2.7c2.2,1.3,5.1,1.2,7.6,2.1
		c2.6,0.9,5.1,2,9.1,3.7c-9.4,3.6-15.1,10.6-24,10.5c-1,0-2.7,2.7-3,4.4c-0.5,2.5-0.1,5.2-0.1,9.2c3.5-0.5,7.1-0.5,10.2-1.5
		c7.4-2.5,14.5-6.5,22.1-8.1c5.6-1.2,11.7-1.5,17.5-2c3.8-0.3,7.8,3,11.5,4.5c3.9-0.3,7.7-0.7,11.6-0.7c11.7-0.1,23.3,0.2,35,0
		c16.2-0.4,30.4,6,44.7,12.2c2.1,0.9,3.3,3.9,4.7,6c1.6,2.4,2.9,4.9,4.4,7.5c4.1-1.3,7.2-2.3,9.3-3.1c6.9,3.4,13,6.5,19.2,9.3
		c3.8,1.8,6.8,3.7,7.3,8.5c0.5,4.6,3.7,7.4,7.4,10.1c5,3.7,10,7.8,14.1,12.4c2.7,3.1,5.5,5.7,9.1,3.9c3-1.5,7.1-5.2,6.9-7.5
		c-1.1-10.6,7.4-13.9,12.2-19.9c4.7,2,8.5,3.9,12.5,5.4c4.5,1.7,8.2,3.4,8.3,9.6c0.1,2.4,4.5,4.7,7.5,7.6c-0.7,1.7-1.6,4.1-2.7,7.1
		c7.2,0.4,13.5,3,20.4-1.3c15.5-9.7,31.4-18.9,47.1-28.2c20-11.9,40-23.8,61-36.3c5.3,6.4,10.5,12.8,15.7,19.2c0.6,0.7,1.2,2,1,2.7
		c-2.9,9.8,3.9,12.9,11.2,15.6c0.3,1.9,0.9,3.6,0.7,5.1c-0.6,5.5,0.3,10.1,4.7,14.4c4.1,4.1,4.7,10.9,10.3,14.4
		c0.9,0.6-0.2,5.4-1.3,7.8c-0.7,1.6-3.2,2.3-4.7,3.5c-2.1,1.6-4.9,3-5.9,5.2c-4.8,9.6-9.1,19.5-13.5,29.3c-2.4,5.4-3.9,11.3-7,16.3
		c-2.5,4.1-1.9,7.4-0.3,11.2c1.6,3.9,3,7.8,5.2,13.4c6.8,3.4,13.9-1.5,20.6-4.9c10.6-5.3,20.8-11.7,30.9-18c2.4-1.5,4.8-4,5.7-6.5
		c3.5-9.6,9.9-16,19.3-19.7c1.2-0.5,2-1.7,3.2-2.4c6.2-4,7.8-4.4,13.1,0.9c4.3,4.4,8.6,4.9,13.3,2.3c3.6-2,6.6-2,10.3-0.6
		c2.4,0.9,5.3,0.6,7.9,0.6c2.3,0,4.5-0.5,6.9-0.8c3.1,4.8,6.4,9.3,9.2,14.2c3.8,6.7,6.4,13.9,3.8,21.8c-0.6,1.8-1.2,4.2-2.6,5.2
		c-8.1,5.9-10.7,15.2-14.7,23.4c-2.7,5.4-4,12.1-4.1,18.2c-0.3,16.1-1.4,31.8-7.8,46.9c-2.2,5.1-2.4,10.9-3.9,18.7
		c-2.3-8.4-8.3-9.5-13.7-11.9c-15-6.7-30.4-5.4-46-4c-13.2,1.2-26.5,2.5-39.7,3c-6.9,0.2-12.9,2.6-19.1,5c-12.9,5-24,12.7-34.9,20.9
		c-7.2,5.4-14.7,10.5-22.6,14.6c-6.4,3.3-10.7,8-13.5,14c-2.7,5.7-5.6,11.6-6.7,17.7c-1.3,7.1-4.7,12.3-10,16.6
		c-3.9,3.1-8.2,5.7-12.3,8.5c0.7,0.8,1.5,1.6,2.2,2.5c-2.3,0-4.6,0.2-6.9,0c-6.6-0.8-12.3,0.5-17.5,5.2c-4.6,4.1-9.6,7.9-17,5.2
		c-2.1-0.8-6,1-8,2.8c-15,13.8-34.2,18.8-52.6,25.4c-2.5,0.9-5.8,1.3-7.2,3.2c-4.5,5.8-9.4,4.4-15,2.2c-31-12-62.1-23.8-93.3-35.8
		c-3.2-11.2-6.4-22.3-10-34.6c-7.6,4.2-14,8.2-20.8,11.3c-4.1,1.9-8.7,3.3-13.1,3.5c-10.6,0.5-21.2,0.3-31.8,0
		C2489.3,2267.1,2486.4,2266.1,2482.1,2265.2z"/>
	<path onclick="modals(this.id);" id="1174" class="st0" d="M2799.1,1324c-29.6,18-59.1,35.8-90.8,55c19.3,7,36.3,13.1,54.4,19.7c0,3.5,0,7.1,0,10.6
		c0,10.3,0.1,20.7,0,31c0,4.4,0.4,8.2,3.7,11.9c5.3,5.9,5.3,13.5,3.7,20.8c-2.9,13.5-0.3,25,7.5,36.8c8.4,12.7,14,27.1,7.9,43.1
		c-0.9,2.3-0.5,5.2-0.3,7.8c0.6,6.9,1.4,13.7,2.2,21.2c-3.7,0.3-6.2,0.7-8.8,0.7c-60.3,0.3-120.6,0.5-180.9,0.7
		c-14.3,0-28.7-0.1-43,0c-10.9,0.1-14.2,6-8.8,15.2c0.8,1.4,1.6,2.9,1.8,4.4c0.4,4.6,0.4,9.2,0.7,13.8c0.3,4-2.3,5.9-5.2,5.8
		c-1.9,0-5.5-2.9-5.4-4.2c0.9-10.6-6.9-16.9-11.3-24.8c-5.2-9.4-12.6-16.2-23.8-17.9c-6-0.9-10.4-4.1-11.6-10.6
		c-0.1-0.7-0.2-1.5-0.6-1.9c-10.9-9.8-14.8-24.9-26.2-34.6c-8-6.8-9.6-18.8-5.1-28.2c3.2-6.6,2.7-12.5-1.5-18.7
		c-5.9-8.6-2.8-17.4-0.1-26.6c5.1,1.3,9.2,3.3,13.3,3.2c4.2,0,8.4-1.8,12.5-3.1c5.1-1.6,6.8-4.2,4.2-8.9
		c-5.6-9.8-11.5-19.5-18.4-28.3c-4.6-5.8-7.8-10.1-2.9-17.4c3-4.5,4.3-10.2,6.7-16.2c-4.9-5.2-8.1-11.5-2.1-19.2
		c-4.2-5.6-8.3-11-13.2-17.5c6.8-1.2,12.5-2.2,18.5-3.3c2.4-5.2,0.9-10.3-1-15.2c-2.5-6.3-2-12.4,0.7-18.4
		c2.4-5.5,4.5-11.2,7.7-16.2c4.7-7.4,7.8-14.6,3-24.3c9.5-3.7,18.3-7.4,27.2-10.7c31.6-11.3,63.4-22.2,94.8-34
		c8.6-3.2,16.2-9,24.1-14c4.3-2.8,8.5-4.4,13.9-4.5c13.9-0.2,27.9-0.9,41.8-2c7.5-0.6,15-2.3,22.5-3.6c5-0.9,8.8,0,11.9,4.7
		c24.7,37.9,49.6,75.7,74.5,113.6C2797.8,1321,2798.2,1322.2,2799.1,1324z"/>
	<path onclick="modals(this.id);" id="1178" class="st0" d="M2995.4,1914.9c5.4,1.9,10.2,3.7,13.1,4.7c6.8,5.9,12.2,10.5,18.8,16.2c1,9.5-1.7,20.5-4,31.5
		c-1.6,7.5-2.8,15.1-4.8,22.4c-2.4,8.7,0,16.4,4.1,23.8c0.9,1.8,2.1,3.4,3,5.2c2.3,4.1,5,8.4,1.6,13c-3.8,5.2-7.3,11.5-15.6,9.7
		c-6.4-1.4-12.7-2.4-19,1.3c-1.3,0.8-4.9-1.1-6.8-2.5c-9-6.6-8.9-6.6-18.1-0.4c-5.1,3.5-11.1,5.7-15.2,10.9
		c-2.6,3.3-5.8,5.8-6.7,10.5c-0.5,2.5-3.1,5.2-5.4,6.7c-9.5,5.9-19.2,11.7-29.1,16.9c-5.7,3-11.6,6.5-18.2,5.6
		c-1.9-4.7-4-8.9-5-13.2c-0.6-2.6,0.2-5.7,1-8.3c1.9-5.6,4.3-11,6.3-16.6c1.6-4.7,2.5-9.5,6.6-13.1c2-1.9,3.5-5.1,3.9-7.9
		c0.8-6,4.4-9.4,9.2-12.2c2-1.2,4-2.6,5.4-4.3c3.4-4.1,2.6-8.1-1-12.3c-4.6-5.5-8.8-11.4-12.8-17.3c-0.8-1.1,0.1-3.2-0.1-4.8
		c-0.4-3.6-0.9-7.1-1.3-10.3c-3.2-1.3-6-1.8-8-3.3c-1.6-1.2-3.6-4.2-3.1-5.4c2.6-6.1-1.7-9.3-4.7-13.1c-4.5-5.7-9.1-11.2-14-17.1
		c-18.9,11.2-37.3,22-55.5,32.9c-17.7,10.6-35.5,21.1-53.1,31.9c-4.6,2.8-9,4-14.9,2.3c0.7-4.2,1.1-8.7-4.7-10.6
		c-1.3-0.4-2.5-2.7-2.8-4.3c-1.1-5.2-4.9-7.7-9.3-9.6c-4.5-2-9.1-3.7-14.8-6c-3.9,3.8-8.6,7.9-12.7,12.6c-1.4,1.7-1.9,4.8-1.7,7.2
		c0.4,4.1-1.4,6.5-4.8,7.7c-3.3,1.2-5-1.2-7.2-3.6c-4-4.4-9.1-7.7-13.4-11.8c-2.6-2.4-6.1-5.1-6.6-8.1c-1.1-6.8-5.6-9.2-10.9-11.7
		c-4.4-2.1-8.6-4.9-13-6.9c-2.2-1-4.9-1.6-7.3-1.6c-2.2,0-4.4,1.1-7.1,1.8c-0.9-2-2-3.7-2.4-5.5c-0.8-4.1-3.4-6-7.1-7.4
		c-8.4-3.1-16.6-6.7-23.4-9.4c-3.4-6.1-6.2-11.1-9.7-17.4c4.4-16.4,3.3-34.2-5.9-51.5c2.8-0.3,4.9-0.1,6.8-0.7
		c6.3-2,9.5-7.6,6.8-13.9c-3.9-9.2-3.5-17.6-0.3-27c3.6-10.5,3.2-21.5-3.2-31.4c-0.7-1.1-1.9-2.7-1.6-3.5c3-7.3,0-14.1-1-21.6
		c1.4,1.1,2.7,2.1,4.1,3.2c4.8,3.8,9,2.5,9.7-3.4c0.4-3.2-0.3-6.5-0.3-9.8c0-2.5,0.4-5,2.4-7.8c1.3,3.1,3.2,6,3.9,9.2
		c2.6,11.1,10.1,15.8,20.7,11.4c6.9-2.9,13.2-7.6,19.2-12.2c1.9-1.4,2.4-5.2,2.7-8c0.9-7.9,0.9-15.9,2.1-23.8
		c1.2-8.1,2.7-9.4,10.7-9.9c12.3-0.8,20.3-7.1,24.7-18.4c0.5-1.2,1.1-2.3,1.6-3.3c4.3-0.9,7.2,0.7,8.1,4.3
		c1.4,5.4,2.4,10.9,2.9,16.4c0.4,4.7-0.1,9.4,4.9,12.2c5.7-2.4,7.6-6.9,7.2-12.8c-0.8-10.6,2.6-19,11.8-25.3c3.8-2.6,6-7.7,8.2-12.1
		c2.9-5.7,5.3-11.2,12.8-12.5c6.3-1.1,10.2-6.2,13-11.6c5.2-9.7,10.9-18.9,18.4-27.2c3.6-4,5.1-9.9,7.2-15.1
		c2.3-5.7,4.2-11.7,6.5-18.4c15.1,4.5,29,8.7,42.7,12.8c0.1,1.1,0.5,2,0.3,2.4c-14.3,21.1-18.7,46-26.5,69.5
		c-2.6,7.8-4.1,16.1-6.2,24.1c-0.9,3.2-1.8,6.5-3.5,9.3c-13.3,21.8-9.4,28.8,3.2,47c5.1,7.3,12,13.2,21.6,15
		c6.3,1.2,10,6.1,12.6,11.8c1.8,3.9,3.1,8.1,4.9,12c1.1,2.4,2.1,5.4,4.1,6.6c6.6,3.9,6.9,10,7,16.4c0.1,5.3,0.4,10.6,0.8,15.9
		c1.4,17.1,18.9,34.4,41.5,30.7c2.1-0.3,4.4-1.5,6-2.9c9.7-8,15-8.9,23.7,4.7c9.9,15.4,19.9,30.7,30,45.9c2.2,3.3,4.8,6.4,7.6,9.2
		c10.1,10.3,18.6,9.3,26.5-2.8C2993.8,1916.2,2994.4,1915.8,2995.4,1914.9z"/>
	<path onclick="modals(this.id);" id="1173" class="st0" d="M2765.3,1396.5c-16.9-6.1-32.7-11.8-50.3-18.1c30.5-18.5,59.4-36,88.3-53.6
		c-27-41.4-53.3-81.7-80.2-123c3.2-1.1,5.2-2.1,7.3-2.4c15.8-2.1,31.6-4.3,47.4-6c10.2-1.1,20.5-1.1,30.7-2.2
		c14.2-1.6,28.3-3.9,42.5-5.6c5.3-0.6,10.7,0,15.9-0.7c10.1-1.4,20.1-3.6,30.2-5.1c10.8-1.7,21.7-3.3,32.6-4.2
		c4.1-0.4,8.3,1.1,13,1.8c-4,5.5-9.4,1.8-14.3,4.2c-1,2.1-2.3,5-3.9,8.6c-4.4-1.5-8.7-2.9-12.8-4.2c-3.9,5.5-7.6,10.5-11,15.7
		c-1.8,2.7-3,5.8-4.4,8.8c-1.9,4-0.7,6.9,2.9,9.3c5.5,3.7,10.9,7.6,16.8,11.8c-0.8,3-1.5,6.1-2.5,9.8c1.2,0.8,3.2,1.3,3.8,2.5
		c1,2.3,2.3,5.4,1.4,7.2c-0.8,1.8-4.3,3.6-6.3,3.3c-5.7-1-10.9,0.2-17.3,1.7c1.6,2.6,2.4,4.6,3.8,6.1c5.3,5.6,8.1,12.1,7.7,19.8
		c-0.3,4.7,1,8.2,5,11.1c5.1,3.7,9.5,8.4,14.4,12.3c6.4,5,10.9,11.4,15.1,18.2c3,4.9,2.1,8.9-1.3,12.7c-4.4,4.9-9.4,9.3-13.8,14.3
		c-2.6,2.9-5.2,6.2-6.8,9.7c-3.6,7.9-6.7,16-9.7,24.1c-1.9,5.1-1.1,9.2,3.9,13c9,6.8,10.5,12.7,5.7,23.2c-5.6,12.2-3.6,23.1,2.9,34
		c1.3,2.2,2.1,4.8,2.5,7.4c1,7.2,1.5,14.4,2.4,21.6c0.7,5.9,4.1,7,13.9,4.4c-0.3-11.6,7.1-19.6,13.6-28.5c3.9-5.2,5.5-12,8.5-17.9
		c1.3-2.5,3.2-4.8,5.2-6.8c3.9-3.9,8.7-7.1,12.1-11.4c3.2-4.2,6.6-7.7,11.8-8.5c14.8-2.3,22.8-12.8,29.3-24.5
		c5.6-10.1,12.5-18,24.6-19.4c1-0.1,2-0.5,2.8-1.1c12.2-9.7,21.8-0.6,31.8,4.6c1.5,0.8,2.6,3.9,2.6,5.9c0,3.6-1,7.2-1.7,10.8
		c-0.8,4.5-0.1,8.7,0.5,13.3c1.3,10.2,5.4,18.6,10,27.5c2.5,4.9,1.4,12.5,0.2,18.5c-2.5,12.3-6.3,24.4-9.3,36.7
		c-2,7.9-8,11.6-14.9,13.1c-7.4,1.7-15.1,2.2-22.6,2.4c-9.7,0.2-19.1,0.6-28.6,3.4c-8.2,2.4-16.9,3.8-25.4,4.5
		c-9.9,0.8-17.7,5.1-24.8,11.4c-10.9,9.9-22.9,15.5-38.1,12.2c-3.5-0.7-7.7,1-11.4,2.1c-7.6,2.2-9.4,1.5-11.4-6.2
		c-1.7-6.6-3.7-12.6-9.6-16.9c-1.7-1.2-2.3-3.9-3.4-5.9c-2.1-3.7-3.8-7.8-6.4-11.1c-2.5-3.2-4.8-8.3-10.1-6.3
		c-5.5,2.1-11.6,4.3-12.8,11.3c-1.1,6.1-4.1,10.8-8.2,15.5c-4.3,4.9-7.6,10.9-10.4,16.9c-1.4,3-1.8,7.4-0.7,10.3
		c3,7.7,7.4,14.9,10.6,22.5c2.3,5.4,4.4,11.1,5.4,16.9c1.4,8.5-9.6,17.9-18.7,15.6c-14.2-3.6-28.2-7.8-42-12.5
		c-6.4-2.2-11.3-6.6-10.2-15c0.5-3.5-0.8-7.2-1.1-10.8c-0.2-2.2-0.5-4.8,0.3-6.7c6.7-17.1,0.1-32.2-8.5-46
		c-6.3-10.2-9.6-19.9-7.3-31.8c1.8-9.5,2.2-19.1-5-27.4c-1.8-2.1-2-6.2-2.1-9.3C2765.2,1425.3,2765.3,1411.4,2765.3,1396.5z"/>
	<path onclick="modals(this.id);" id="1172" class="st0" d="M3196.1,1239.4c-0.5,10.3-0.6,19.5-1.4,28.7c-0.7,8.1-6.5,13.7-11.5,19.3
		c-3.9,4.4-9,7.8-13.2,12c-4.6,4.6-10,6.3-16.3,5.5c-16.6-2-31.7,2.6-42.3,15.3c-10,11.8-17.9,25.5-26.2,38.6
		c-2,3.2-2.1,7.6-3.2,12.2c-4.6-2.2-8.6-4.6-13-6c-4-1.3-8.6-2.8-12.4-1.8c-7.9,2.1-15.6,5.1-22.9,8.9c-5.9,3-10.2,8.1-13.5,14.2
		c-3.2,6.1-7.9,11.4-12.2,16.9c-3.6,4.6-8.4,7.3-14.4,8.1c-6.6,0.8-11.3,4.4-15.3,10c-3.1,4.4-8.2,7.4-12.2,11.3
		c-2.3,2.2-4.9,4.6-5.8,7.5c-3.6,10.2-8.8,19.2-15.4,27.7c-3.9,4.9-5.4,11.7-8.4,18.5c-3,0.8-5.3,1.4-6.5-5
		c-2.1-11.2-1.7-22.9-8-33.4c-4.7-7.8-5-17.2-0.3-25.9c0.8-1.4,1.2-3.1,1.7-4.7c3.2-11,2.1-16.1-7.4-22.2c-5-3.2-5.1-6.1-3.3-10.6
		c3-7.4,6-14.8,8.8-22.2c3.3-8.8,12-13.1,17.1-20.5c1.5-2.2,3.6-3.9,5.2-6c3.2-4.1,3-7.9,0.6-12.7c-5.8-11.3-15.4-19-24.8-26.7
		c-6.5-5.3-10.6-10.6-10.8-19.8c-0.1-6-4.7-12-7.5-18.7c3,0,6.7,0,10.4,0c9.6,0,12.9-5.3,9.6-14.4c-1.6-4.5-2.1-9.4-3.4-15.2
		c-4-2.8-9.3-6.1-14.4-9.9c-5.2-3.8-5.6-5.6-2.5-10.8c2-3.4,4.6-6.5,7-9.7c1.8-2.3,3.8-4.5,5.9-6.9c2.8,1.3,5.1,2.4,7.5,3.5
		c2.4,1,4.8,2,7.8,3.2c0.8-4.5,1.5-8.5,2.3-12.8c5.9-0.2,11.6,0.3,15.4-5.6c1-1.6,4.8-2,7.3-1.8c16.6,1.4,32.8,5.1,48.7,9.8
		c7.3,2.1,14.7,3.9,22,5.9c52.6,14.1,105.3,28.2,157.9,42.4C3187.2,1236.7,3191.6,1238.1,3196.1,1239.4z"/>
	<path onclick="modals(this.id);" id="1180" class="st0" d="M2357.6,1997.5c-12.3-0.8-23.9-1.5-35.4-2.3c-30.8-2.2-61.6-4.5-92.3-6.5
		c-3.9-0.2-5.9-2-8.1-4.7c-5.3-6.9-9.6-7.3-16.8-2.5c-11.1,7.4-21.5,15.7-29,27c-0.7,1.1-1.2,2.4-2.2,4.6c-8.1-8-14.3-14.8-21.2-21
		c-5.6-5.1-11.9-9.4-18-14c-4.3-3.2-8.7-6.1-13-9.2c-4.5-3.2-7.4-7.3-8.8-12.8c-1.3-5.5-3.4-10.7-8.1-14.4c-2-1.6-3.1-4.3-4.7-6.4
		c-6.3-8-10.7-17.7-21.4-21.8c1.1-2.5,1.6-4,2.4-5.4c5-9,3.8-17.7-0.7-26.5c-1.4-2.6-2.4-5.5-3.4-8.3c-1.7-4.7-1.6-8.9,3-12.3
		c4.3-3.1,8.8-3.8,13-0.9c8.3,5.8,17.4,5.8,26.7,5c7.9-0.6,11.7-5.5,11-13.5c-0.3-3.3-1.3-6.6-1.2-9.8c0.2-3.5,0.7-7.3,2.2-10.4
		c2.8-5.9,6.4-11.5,9.7-17.2c0.5-0.8,1.3-1.5,2.1-2.1c9-6.3,28.2-4.3,35.1,3.9c1.9,2.2,3.4,5,4.1,7.8c1.3,5.2,4.7,6,9.1,5.2
		c4.2-0.8,8.5-1.8,12.6-3c4.7-1.4,8.4-0.2,11.4,3.7c0.6,0.8,1.3,1.5,1.9,2.3c10.3,11.8,10.3,11.9,25.2,9.2c2.1-0.4,4.7-1.3,6-2.8
		c4.6-5,10.4-4.2,15.8-3.4c4.5,0.6,9,2.3,13,4.5c2.1,1.2,3,4.6,5,7.8c1.3-0.2,4.4,0.1,5.4-1.2c6.8-8.8,16.1-6.3,24.4-4.9
		c11.7,1.9,23.3,5.2,34.8,8.2c3.1,0.8,6,2.7,8.7,4c-1.2,8.8,1.7,15.5,7.2,21.2c9.7,9.9,13.5,21.1,10.5,35.4
		c-5.7,27.3-10,54.9-14.9,82.3C2358.6,1993.6,2358.2,1994.9,2357.6,1997.5z"/>
	<path onclick="modals(this.id);" id="1177" class="st0" d="M2474.4,1544.4c2.9,11.4,12.7,17.5,16.6,27.6c1.2,3.1,6.6,5.8,10.4,6.4
		c10.7,1.6,17.3,7.6,22.3,16.5c1.6,2.9,3.6,5.6,5.5,8.4c5.8,8.6,7.3,17.8,7.1,28.4c-0.2,9.1-1.1,17.5-4.5,25.9
		c-1.1,2.6-0.3,7,1.3,9.5c13.4,19.7,17.9,42.7,25,64.8c1.3,3.9,3.2,7.7,5.2,12.5c-0.8,1.3-2.8,3.6-3.4,6.3c-0.5,2.3-0.2,6,1.3,7.2
		c3.5,3,6.9,5.6,9,10.2c1.8,4.1,5.5,7.3,9.5,12.2c-4.4,3.2-8.9,6.4-13.7,9.8c3.1,3.8,4.7,5.8,5.9,7.2c-2.1,4.4-4.2,8.6-6.5,13.5
		c-1.9-0.8-4.8-1.5-7.1-3.1c-3.2-2.2-6.4-2.7-10.3-2.5c-11.1,0.7-14.9,6-11.2,16.8c2.9,8.3,6.3,16.4,9.6,24.8
		c-7.2,8-14,15.7-20.9,23.3c-7.2,7.9-6.5,16.6,2.6,22.6c7.6,5,9,12.3,8.1,19.8c-0.4,4.1-1.3,7.4,0.9,11.2c0.6,1.1-0.3,3.1-0.6,5.6
		c-3.5-1.6-6.3-3.3-9.4-4.2c-2.7-0.8-6.6-1.8-8.4-0.5c-4.5,3.3-8,1.5-11.7-1.2c-1.2,1.2-2,2.4-3.1,2.8c-8.6,3.3-17.2,6.5-26.5,10
		c-0.1-2.6-0.3-5.1-0.4-7.8c10.3-2,19.3-5.4,27.3-14.9c-5-2.1-8.3-4.4-11.9-4.8c-5.4-0.7-9.3-3-11.8-7.5c-12,3.5-20.2-0.7-23.7-11.9
		c-2.9-9-7.4-11-17-7.2c-3.5-6.1-6.5-12.1-1.7-19.1c0.8-1.2,1.1-3.2,0.7-4.7c-4.4-17.6-3.2-35.6-4.2-53.5
		c-1.6-28.2-3.5-56.3-5.2-84.4c-0.4-6-1.1-12-0.6-17.9c1-11.7-2.4-22.5-7-32.8c-4.6-10.4-2.7-20.6-2-31.1c0.3-4.2,0.2-8.5-0.7-12.5
		c-1.2-4.8-2.7-9.8-5.4-13.8c-8-11.7-6.8-25.4-9-38.3c-0.4-2.3,1.5-5.9,3.5-7.4c7.4-5.5,12.3-12.1,11.2-22.4
		C2437.7,1541.2,2455.5,1546.3,2474.4,1544.4z"/>
	<path onclick="modals(this.id);" id="1167" class="st0" d="M2557.1,1717.4c-2-6.1-3.8-13.2-6.5-19.8c-4-9.8-8.3-19.5-13.2-28.9c-2.5-4.8-3-9-1.5-14.2
		c1.7-6,3.2-12.2,3.2-18.4c0-5.4,1.3-9.1,6.3-11c5.4-2,6.7-5.8,5.6-11.1c-0.5-2.6-0.5-5.3-0.2-7.9c0.4-3.8-0.2-6.7-2.8-10
		c-3.8-4.9-1.5-8.8,4.6-9.4c2.3-0.2,4.7-0.1,7-0.1c31.6,0,63.3,0.2,94.9-0.1c43.9-0.4,87.8-1.2,131.7-1.7c2.9,0,5.9,1.4,8.3,2
		c-2.7,8.7-4.7,16.3-7.4,23.7c-1.5,4-4,7.6-6.4,11.2c-5.6,8.2-11.8,16-16.9,24.6c-3.9,6.7-8.4,12.1-16.2,13.5
		c-5,0.9-7.3,4.1-8.7,8.4c-2.6,7.7-6.7,13.7-13.9,18.6c-5.8,3.9-8.5,11.3-8.4,19.1c0.1,4.6,1.9,10.1-4.7,14.1
		c-0.5-3.1-0.7-5.5-1.2-7.9c-1.2-6.1-1.6-12.5-3.9-18.2c-1.2-3-5.5-5.8-8.9-6.7c-3.9-1-5.1,3.2-6.4,6.3c-4.1,10.2-11,16-22.8,15.7
		c-7.5-0.2-10.4,2.3-11.7,9.6c-1.4,8.1-2.1,16.5-2.3,24.7c-0.1,4.8-1.4,8.5-5.2,11c-4.7,3.1-9.3,6.5-14.4,8.7
		c-8.9,3.9-15.4-0.1-18-9.3c-1.7-5.8-4.8-11.1-7.9-17.9c-1.9,2.9-2.7,4.1-4.2,6.4c0-6.6-0.8-12.3,0.2-17.5c1-4.8-0.1-7.8-4-9.9
		c-7.6-4.1-15.3-8-23.1-11.9c-3.1-1.5-5.4-0.5-7.8,2.1C2566.5,1709.8,2561.7,1713.4,2557.1,1717.4z"/>
	<path onclick="modals(this.id);" id="1175" class="st0" d="M2367,1408.9c-5.8-12.2-9.9-13.1-21.9-6c-1.9-0.9-3.9-2.2-6-2.9c-2.2-0.7-4.5-0.9-7.2-1.5
		c0-2.9,0-5.8,0-9.8c14.5,1,28.6,2,43,3c3.1-6.7,4.3-13,2.1-20.2c-1.9-6.3-1.2-13.6-4-19.3c-3.7-7.4-2.7-14.5-1.5-22.5
		c-2.8-0.6-5.2-1.1-8.2-1.7c1.4-5,1.6-9.6-6.6-12.1c43.7-15.4,85.2-30.1,126.4-44.7c4.9,6.9,3.8,12.9-0.3,19
		c-2.4,3.6-4.3,7.5-6.3,11.3c-5.5,10.4-8.1,21.1-3.2,32.5c0.6,1.5,0.9,3.2,1.1,4.8c0.1,0.6-0.2,1.3-0.5,2.7
		c-6.6,1.1-13.6,2.2-22,3.6c5.7,7.4,10.5,13.6,15.5,20.1c-4.1,6.1-4,11.8,0.7,17.4c1,1.1,1,3.8,0.4,5.4c-1.7,4.6-3.4,9.3-6,13.4
		c-4,6.4-1.6,10.9,2.5,16c6.2,7.7,11.9,16,17.5,24.2c1.6,2.4,2.2,5.4,3.6,9.1c-7.9,1.8-14.2,6-22.5,2.8c-7-2.8-10.3,0.1-11.1,7.9
		c-0.2,2.3-0.2,4.7-0.7,6.9c-1.4,5.2-0.5,9.8,2.9,14c4.6,5.5,4.7,11.1,1.4,17.5c-4.7,8.9-2.2,21.9,4.7,29.4
		c2.9,3.2,5.7,6.4,9.6,10.8c-18.4,3-35.8-1.4-52.9,1c-3.3,15.8,1.4,11.9-16.2,27.6c-8.1-8.1-16.3-16.2-24.4-24.4
		c-6.7-6.7-7.7-15.1-6.4-24c1-6.4,1.9-12.9,3-20.6c-15.2-1.1-28.9-2.2-43.9-3.3c-1.1-21.5-2.2-42.9-3.3-64
		C2339.9,1423.5,2354.7,1418,2367,1408.9z"/>
	<path onclick="modals(this.id);" id="1176" class="st0" d="M2270.4,1834.1c-0.2-0.9-0.4-1.4-0.3-1.5c8.4-7,9.8-17.7,13.6-27c1.5-3.5,1.4-7.8,1.6-11.7
		c0.3-5.7,1.8-10.3,7.8-12.7c2.3-0.9,4.9-3,5.7-5.1c4.5-12.4,14.2-18.4,25.7-22.5c5.8-2.1,11.7-3.9,19-6.3c-0.1,0.1,1.2-1.3,1.2-2.7
		c0.3-13.2,8.9-23,13.9-34.2c1.5-3.5,4-5.2,7.7-5.2c4.7-0.1,7.7-2.4,10.7-6.1c4.6-5.6,10.1-10.3,15.3-15.4
		c13.3-1.3,17.3-11.6,21.3-21.9c0.1-0.2,0.5-0.3,1.6-0.8c4,9.7,8.8,19.2,10,29.7c1.4,12.9,1.5,25.9,2.2,38.8
		c1.2,22.6,2.4,45.1,3.6,67.7c0.9,17.2,1.7,34.5,2.6,51.8c-6.8,2-9.3,6.5-8.8,12.8c0.4,4.4-1.4,7.6-4,10.8
		c-4.8,5.7-9.3,11.6-13.7,17.6c-1.1,1.5-1.2,3.7-1.6,5.5c-0.9,4.1-1.7,8.2-2.8,13.4c-5.9-6.8-11.2-12.3-15.9-18.4
		c-1.6-2.1-1.6-5.6-2.3-8.4c-4.3,0.7-4.3,0.7-5.3,14.9c-1.6-3.5-2.4-5.4-3.4-7.2c-2.8-5.2-5.1-10.9-8.9-15.3
		c-5.5-6.4-9.4-12.8-7.5-22.3c-3.9-1.9-7.5-4.4-11.5-5.5c-12.5-3.4-25-6.7-37.7-9.1c-6-1.1-12.5-0.6-18.6,0.3
		c-2,0.3-3.4,4.2-6.8,8.8C2283.7,1835,2275.6,1836.4,2270.4,1834.1z"/>
	<path onclick="modals(this.id);" id="1168" class="st0" d="M2599.2,1851.3c-3.4,9-9.6,6.4-16.2,5.8c2.7,8.1,4.7,15.3,7.5,22.2c2.7,6.8,3.6,13.2,1.2,20.4
		c-1.5,4.5-1.9,9.5-2.1,14.3c-0.1,1.9,1.7,4.1,3.2,5.7c2.3,2.4,5.4,4.1,3.4,9c-17.9,0-36,0-54.4,0c-1.7-6.8-3.1-12.8-2.9-19.5
		c0.2-7-1.3-14.1-9-18.5c-8.4-4.9-8.7-11.7-2.2-18.9c7.1-7.9,14.2-15.8,21.9-24.2c-3.2-8.1-6.8-16.2-9.5-24.5
		c-1.3-4.1-0.8-8.8-1-12.1c12.3-7,20.6,2.8,30.2,4.5c2.4-5-0.5-10.9,5.2-14.1c1-0.6-0.9-6.4-1.8-11.4c2.4-1.8,6.1-4.6,9.7-7.3
		c-1-2.9-1.2-4.7-2.1-5.9c-5.2-6.7-10.6-13.3-16-19.9c-2.3-2.7-2.4-5.4-0.4-8.1c1.3-1.8,3.1-3.3,5.2-5.6c-5.3-3.7-8.3-8.3-9.2-14.7
		c-0.6-4.1-0.3-6.9,2.6-9.8c4.2-4.1,8.2-8.5,12.6-13.2c7.5,3.7,14.6,7.4,21.7,10.8c4.3,2.1,6.2,4.3,5.1,10c-1.8,9.4-2,19.2,3,28.1
		c2.3,4,0.8,7.5-1.3,11.7c-4-2.7-7.5-5.2-11.3-7.8c-4.1,7.3,1.4,12.4,1.5,17.9c0.1,5.5-2.1,10.6,1.7,16.1c5.1,7.2,5.1,16.2,2.6,24
		C2594.3,1828.6,2593.2,1840.3,2599.2,1851.3z"/>
</g>
</svg>
