<?xml version="1.0" encoding="utf-8"?>
<!-- Generator: Adobe Illustrator 19.0.0, SVG Export Plug-In . SVG Version: 6.00 Build 0)  -->
<svg version="1.1" id="Layer1" xmlns="http://www.w3.org/2000/svg" xmlns:xlink="http://www.w3.org/1999/xlink" x="0px" y="0px"
	 viewBox="0 0 4000 2000" style="enable-background:new 0 0 4000 2000;overflow: hidden; display: inline; width: inherit; min-width: inherit; max-width: inherit; height: inherit; min-height: inherit; max-height: inherit;" xml:space="preserve">
<style type="text/css">
	.st0{fill:#8FD4EB;stroke:#000000;stroke-width:3;}
</style>
<g>
	
	<path onclick="modals(this.id);"  id="1356" class="st0" d="M1597.9,1681c7.4-1.2,5.3-8,7-12.2c2.8-7,4.2-14.2,3.5-22.3c-1.1-12.1,0.4-24.5,0.6-36.8
		c0.1-5.8-2.7-9.7-8.1-12.6c-5.3-2.9-10.3-6.9-14.3-11.3c-6.6-7.3-15.6-8.3-24.1-10.8c-9.3-2.8-18.4-1.2-27.4,1.1
		c-2.2,0.5-4.6,1.3-6.2,2.7c-3.4,3.1-6.1,1.9-9-0.4c-7.1-5.5-14.4-10.8-21.5-16.3c-5.3-4.1-11.2-7.9-15.3-13
		c-3.2-4-4.9-9.7-5.8-14.8c-1.5-8-6-13.5-11.9-18.4c-2.3-2-4.2-4.5-6.6-6.5c-5.2-4.4-10.3-9.1-16-12.9c-7.6-5-11.2-11.7-12-20.7
		c-0.3-3.2-2.3-6.2-3.6-9.3c-1.6-3.7-3.6-7.3-4.9-11.1c-2.6-7.5-4.9-14.9-8.2-22.2c-4.6-10.2-5-12,2.7-18.8c2.5-2.2,4.5-4.8,6.8-7.2
		c8.8,3.4,17.9,6.9,26.8,10.6c1.9,0.8,3.5,2.5,4.9,4c8.5,9.4,18.7,16.7,29.6,23.1c1.9,1.1,3,3.3,4.6,5c7.8,8.2,15.5,16.7,23.7,24.5
		c3.7,3.5,8.7,5.6,12.9,8.6c3.4,2.4,7.1,4.8,9.7,8c4.8,6.1,9.1,12.7,13.2,19.4c4.1,6.7,10,6.1,16.1,4.3c12.2-3.5,24.9-6,36.1-11.5
		c8.7-4.3,17.6-6.1,26.7-8.3c0.9-0.2,2.1-0.5,2.5-1.2c5.1-8.6,13.7-12.6,22.4-14.9c11-2.9,19.8-8.9,28.6-15.2
		c5-3.6,9.5-7.4,16.2-6.8c1.2,0.1,2.5-1.4,3.8-2c3.8-1.7,7.7-3.4,11.5-4.9c3.8-1.5,7.5-2.4,10.6-5.9c8.6-9.6,16.3-19.6,19.2-32.5
		c0.4-1.7,1.2-3.4,2.1-5c4.3-7.1,4.4-14.6,0.7-21.7c-3.2-6.1-0.8-10.9,1.7-16.1c3-6.1,7.4-11.8,6.5-19.2c-1-7.4-2.5-14-7.9-20.3
		c-8.9-10.2-16.1-21.8-24-32.9c-2.2-3-4.2-6.2-6.6-9.7c10.8-6.4,21.3-12.5,31.7-18.8c20.3-12.1,40.5-24.4,60.9-36.5
		c20.1-11.9,40.3-23.6,60.4-35.3c7.6-4.4,15.4-8.6,22.8-13.3c4.2-2.7,8.1-2.3,12.1-0.6c7.6,3.4,15.3,6.2,21.4,12.5
		c6.1,6.3,13.6,5.7,21.6,2.7c8.5-3.2,17.4-5,26.2-7.5c0.7-0.2,1.3-0.7,2.4-1.3c-1.4-0.5-2.4-0.9-3.9-1.4
		c3.6-19.8,7.3-39.6,10.8-59.5c4.1-23.6,8-47.3,12.1-71c1.1-6.3,2.7-12.6,4.5-18.8c1.1-3.9,4.6-4.7,8.2-5c1.5-0.1,3-0.2,4.5,0
		c7,1.1,10.6-1.8,14.8-7.8c4.5-6.4,12.4-11,19.6-14.8c6.8-3.5,11.1-7.5,8.3-17.5c-6.5-23.2-12.7-46.4-19-69.7
		c-5.4-19.9-10.1-40.1-16.3-59.8c-2.2-6.9-7.7-12.8-11.9-19c-11.1-16.3-22.4-32.5-33.5-48.9c-17.9-26.3-35.6-52.8-53.4-79.1
		c-12.5-18.4-25.1-36.6-37.6-55c-3.5-5.1-6.9-10.3-10.3-15.4c4.2-3.4,8.5-6.3,12.2-10c2.1-2.1,3.7-5,4.6-7.9
		c1.7-5.1,0.1-7.8-5.2-9.3c-5.6-1.6-11.3-2.8-17.1-4c-4-0.8-5.5-2.7-3.6-6.6c0.8-1.6,0.9-3.9,2.2-4.8c9-6.9,14.4-17.8,25.3-22.5
		c4-1.7,8-3.5,12.1-5c8.2-3,15.4-13.1,15.6-21.9c0.3-18.2-4.9-35.1-11.6-51.7c-1.6-3.9-2.7-8.1-3.3-12.2
		c-1.3-9.9-6.3-17.5-13.3-24.2c-1.2-1.2-2.8-3.1-2.6-4.5c1.1-9.8-6.7-17.2-6.9-26.7c-0.1-2.6-3.2-5.1-4.5-7.9
		c-0.9-2-2.1-4.7-1.4-6.4c3.3-8.3,1.2-16-1.3-23.9c-1.5-4.8-2.4-9.8-2.9-14.7c-0.8-8.1-3.6-14.7-11-19.1c-4.3-2.5-8.1-5.9-11.7-8.6
		c4-1.4,8.9-3.6,13.9-4.9c6.7-1.8,8.1-6.8,8.7-12.6c0.5-4.4-0.4-8-3.8-11.6c-2.5-2.7-3.1-7.3-4.1-11.1c-0.7-2.7-0.3-5.6-1.2-8.2
		c-0.9-2.7-2.5-5.1-4.1-7.5c-1.7-2.5-3.6-4.7-5.8-7.5c17.7-3.4,21-16.3,16.3-30c-1.7-5.1-4.9-9.7-6.1-14.9
		c-1.2-5.4-0.7-11.2-1.3-16.7c-0.3-2.2-1.3-4.7-2.7-6.4c-5.9-7.2-12.1-14.1-18.2-21.1c-0.6,0.5-1.3,0.9-1.9,1.4
		c2.9-1.5,5.7-3.2,8.7-4.3c1-0.4,3.1,0.5,3.8,1.5c4.7,6,9.1,12.3,13.8,18.4c1,1.2,2.4,2.3,3.9,2.9c7.6,2.8,15.2,6.4,23.1,7.7
		c4.8,0.8,10.5-1.6,15.2-3.7c7.7-3.5,14.9-8.1,22.5-12c1.4-0.7,3.8-0.6,5.1,0.1c9.8,5.9,20.8,8.5,31.7,11c3,0.7,6.6,0.9,9.4,0
		c5.5-1.8,10.4-0.4,15.3,1.5c14.9,5.8,29.7,11.6,44.3,18c2.6,1.2,4.6,5,5.8,8.1c6.4,15.3,18.2,26.7,28.4,39.3
		c0.6,0.8,1.7,1.5,1.7,2.3c0.1,7.8,5.9,9.7,11.8,10.8c14.3,2.6,28.6,4.9,43,7.3c4.5,0.7,9.1,1.4,13.6,2c4.5,0.6,3,4.7,3.7,7.1
		c2.3,8.3,4,16.7,6.2,25.1c0.3,1.2,1.5,2.5,2.6,3.1c12,6.3,23.9,12.9,36.2,18.6c8.1,3.7,16.6,6.4,25.2,8.9c2,0.6,5.3-1.3,7.3-2.8
		c15.7-12.1,31.2-24.4,46.9-36.6c0.9-0.7,3-1.1,3.8-0.5c5.1,3.5,10.4,5.5,16.8,5.9c4,0.2,8.1,2.3,11.6,4.3
		c6.5,3.7,12.8,2.6,18.4-0.8c4.5-2.7,8.4-3.8,13.4-2.3c8.2,2.5,16.8,4,24.6,7.3c4.9,2.1,8.7,6.8,13.1,10.2c1.5,1.2,3.2,2.2,4.9,2.9
		c7.5,3.3,14.8,7.3,22.6,9.5c15.1,4.2,29.7,2.7,43.5-5.5c9-5.3,18.3-10.2,28.1-15.6c-4.5,10,0.4,18.2,3.8,26.3
		c3.7,8.8,11.7,13.6,20.4,16.6c12.9,4.4,24,11.3,33.1,21.2c4.1,4.5,7.7,9.4,11.2,14.3c1.2,1.7,1,4.8,2.5,6.1c3.3,2.9,7,5.8,11.1,7.4
		c4.7,1.8,6.9,3.7,4.7,8.7c-0.8,1.8-1.2,3.7-2,5.5c-3.9,9.9-0.3,18.5,5.1,26.6c2.5,3.7,5.2,7.2,8.1,11c-6.2,1.2-11.9,1.8-17.3,3.6
		c-3,1-6.7,3.4-7.6,6.1c-1.3,3.9-3.4,8.7,1.7,12.5c3.7,2.8,5.7,6.4,4.2,12c-1.3,4.5-1,9.8,0,14.4c0.6,2.9,3.3,6.4,6,7.7
		c6.9,3.2,11.1,8.4,14,15c3.5,8.1,11.5,12.5,20.5,9.3c0.9-0.3,1.9,0,2.9,0c0.3,0.4,0.6,0.9,0.8,1.3c-3.7,2.9-7.2,6.2-11.2,8.8
		c-4,2.5-7.2,5.1-8.5,10c-1.4,5-4.4,8.7-10.2,9.9c-9.5,2-12.9,9-14.7,17.9c-2,9.5-2.5,19.3-7.7,28.1c-2.5,4.3-3.8,9.3-5.1,14.1
		c-1.1,3.8-2.9,6-7,6.9c-6,1.3-12.1,2.8-17.8,5c-2.7,1-5.7,3.4-7,5.9c-2.4,4.7-5.5,7.8-10.2,10.1c-11.3,5.6-22.3,11.6-33.3,17.7
		c-1.3,0.7-2.6,3-2.6,4.5c0.1,14.4,0.5,28.9,0.9,43.3c0.2,8.6,0.7,17.2,1,25.8c0.2,6.8,1.2,7.6,8.2,8.1c1.7,0.1,3.9,1.6,4.8,3.1
		c3.6,6.1,9.3,8.9,15.7,10.6c-1.6,17.7,10.6,22,24.9,24.8c-11.3,9.8-14.6,22.8-18.2,35.2c-1.7,5.8-6.1,7.5-9.8,10.2
		c-4.8,3.5-8.2,7.7-10.7,12.9c-3.9,8.3-8.1,16.4-11.8,24.8c-1.2,2.7-1.9,5.9-2,9c-0.3,8.8-0.1,17.7-0.1,26.5
		c0,6.2,0.3,12.4-0.1,18.6c-0.1,1.8-1.5,4-3,5.3c-9.2,8.6-11.7,15.4-6.6,26.4c2.5,5.3,7.5,9.8,12.2,13.8
		c8.7,7.3,16.4,15.2,21.3,26.1c-2.5,0.9-5,1.9-7.6,2.6c-5,1.3-7.6,4.3-8.3,9.5c-0.2,1.6-1.4,3.4-2.7,4.5c-3.2,2.8-4.2,6.5-2.8,9.8
		c0.9,2.2,4.1,4.2,6.6,4.7c4,0.7,6.6,2.5,8.4,6c2.1,4.2,4.9,7.4,9.7,8.9c5.1,1.7,6.3,4.8,4.9,9.8c0,0.2,0,0.3,0,0.5
		c-0.7,6.9-1.3,13.3-9.1,17.1c-3,1.5-4.4,7-5.7,11c-1.3,3.7-1.6,7.6-2.2,11.5c-0.5,3.3-2.8,3.6-5.4,3.3c-4.8-0.4-9.6-0.9-14.4-0.9
		c-5.1-0.1-7.7,2.9-8.2,7.8c-0.3,3.4-1,6.8-1.9,10.1c-2.6,8.9-1.6,13.6,6.6,17.7c9.1,4.5,10.8,12.2,11.3,20.7
		c0.4,6.2,2.7,11.2,6.7,15.8c1.5,1.8,2.9,4,3.5,6.3c1.8,7.7,7,13.5,10.6,20.1c3.1,5.6,6.5,10.2,11.9,13.5c0.7,0.5,1.1,1.6,1.5,2.4
		c2.7,7.7,5.6,15.3,7.9,23c0.8,2.8,0.3,6,0.3,9c0,6.7-0.1,13.2,5.4,18.7c5.8,5.9,8,13,5.2,21.6c-2.1,6.6-4.5,12.2-11.6,14.4
		c-3.2,1-6.5,2-9.9,2.5c-12.5,2.1-20.1,8.9-22.3,21.7c-1.2,6.7-8.3,11.8-14.8,11.4c-3.4-0.2-6.8-0.6-10.3-0.9
		c-4.1-0.3-9.3,4.1-10.9,10.6c-2.2,8.9-8.9,12.2-16.5,14.2c-7.7,2.1-15.6,3.2-23.3,5.3c-2.7,0.7-5.3,2.7-7.2,4.8
		c-2.9,3.1-0.4,8.5,4.8,11c9.6,4.6,14.1,12.4,12,22.3c-2.7,12.7,1.7,22.7,10.3,31.6c10,10.2,19.9,20.4,29.6,30.5
		c-2.4,9.1-9.7,11.2-17.2,12.6c-3.8,0.7-6.3,2.2-7.3,6.1c-1.4,5.3-2.9,10.6-4.4,15.9c-2.9,9.6-12,12.3-19.1,17.1
		c-4,2.7-8.2,5.2-11.6,8.4c-1.8,1.7-2.8,4.8-3.2,7.4c-2.2,14.2-3.9,28.5-6.2,42.7c-0.6,3.9-2.7,7.6-4.3,11.3
		c-3.9,9.1-10.2,17.1-9.8,27.9c0.1,3.4-3,6.8-4.2,10.3c-4.4,13.2-8.5,26.5-8.3,40.6c0.1,9.8-11.6,21-22.7,14.4
		c-3.9-2.3-7.7-4.9-11.7-7.1c-8-4.4-15.9-9-24.1-13c-8.6-4.2-17.4-8.3-26.3-11.7c-4.6-1.8-9.8-2.4-14.7-3.2
		c-1.2-0.2-2.8,0.8-3.8,1.6c-12.6,10.5-25.1,21.2-37.8,31.7c-13.4,11.1-26.9,22.1-40.2,33.3c-11.5,9.6-22.7,19.5-34.2,29.1
		c-12.7,10.7-25.5,21.3-38.3,31.9c-3.7-6.3-8.3-12.3-10.6-19.1c-1.2-3.6,2.3-8.5,2.8-13c0.6-5.6,0.7-11.3,0-16.9
		c-0.2-1.5-4-3.6-6.2-3.6c-11.4-0.1-22.8,0.5-34.3,0.8c-19.3,0.4-38.5,0.7-57.8,1c-15.6,0.3-31.2,0.7-46.8,1
		c-15.8,0.3-31.5,0.6-47.3,1c-7.9,0.2-15.9,0.8-23.8,0.9c-1.4,0-3.6-1.2-4-2.4c-2.7-7.5-4.9-15.1-7.5-22.6c-1.4-4-2.6-8.2-5-11.5
		c-2.6-3.7-6.1-7.2-9.9-9.7c-4.7-3-4.7-6.8-3.7-11.3c1.5-6.3,0-8-6.2-8.5c-14.9-1.1-29.8-2.6-44.7-3.9c-9.4-0.8-18.7-1.3-28.1-2.1
		c-15.6-1.3-31.1-2.7-46.7-3.9c-9.7-0.8-19.4-1.3-29.1-2.1c-14.9-1.2-29.8-2.6-44.7-3.9c-4.4-0.4-8.9-0.7-13.3-1.1
		C1617.6,1682.3,1607.8,1681.7,1597.9,1681z"/>
	<path onclick="modals(this.id);"  id="1355" class="st0" d="M1432.9,1073.5c11.6,0.5,22.3,1.2,33.1,1.4c10.7,0.2,21.3,0,32,0.1c3.1,0,6.2,0.4,9.3,0.9
		c7.5,1.3,13-3.2,18.1-7.2c4.5-3.6,8-8.7,11.5-13.4c3.5-4.7,6.8-9.1,11.8-12.6c3.8-2.6,6.9-7.7,7.9-12.3c1.4-6.1,0.1-12.7,0.5-19
		c0.4-7.4,1.8-14.7,2.1-22c0.4-8.9,0.2-17.8,0.1-26.7c0-3.1-0.1-6.3-0.3-9.4c-0.2-3.4-0.5-6.9-1.1-10.3c-1.3-7-3.5-13.9-4.1-20.9
		c-0.3-3.7,2.4-7.6,3.2-11.5c0.7-3.8,0.6-7.8,0.9-13.4c4.2-0.8,10.1-2.6,16.1-3c7.1-0.4,14.2,0.9,21.3,0.7c9.7-0.3,19.4-1.3,29-2.1
		c0.5,0,1-0.7,1.3-0.6c9.8,3.6,16.4-3.4,24-7.1c0.7-0.4,1.8-0.8,2-1.3c3-11.7,10.8-22.2,10.3-34.7c-0.5-11.9-2.5-23.8-3.6-35.7
		c-0.4-4.1,0.2-8.3-0.3-12.5c-0.7-6.6-1.4-13.3-3.1-19.8c-3.2-12.5-6.3-25-6.9-38c-0.4-8-6.5-12-12.4-15.9
		c-4.2-2.8-8.5-5.4-13.1-8.3c3.3-2.7,5.5-2.5,7.7-0.3c2.1,2.1,4.5,4,6.3,6.4c4.2,5.6,10.6,7.1,16.6,8.8c6.8,1.9,17.9-4.2,21.4-10.6
		c2.3-4.1,6.3-7.7,7.3-12.1c2.4-10.8,11.2-9.7,18.5-10.9c7.8-1.3,15.7-1.5,23.6-2.2c1.1-0.1,2.5-0.3,3.2-1
		c6.3-6.5,16.1-6.3,22.6-11.9c6.2-5.4,13.7-9.8,15.6-19c0.3-1.7,3.8-4,5.6-3.8c7.8,0.8,13.6-3,19.4-6.9c6.7-4.5,8-4.1,14.8,0.1
		c6.5,4,13.3,7.5,20.3,10.6c5.7,2.5,11.1-0.5,13.1-6.1c0.6-1.7,1.4-3.3,2-5c1.5-4.7,4.1-5.2,9.1-4.4c6,0.8,12.4-1.3,19.3-2.2
		c12.3,18.1,25.3,37.4,38.4,56.7c18.6,27.4,37.1,54.9,55.6,82.3c16.3,24,32.4,48.2,49.2,71.9c4.5,6.4,5.5,13.5,7.4,20.4
		c7.3,25.7,13.9,51.5,20.8,77.3c3.4,12.6,6.9,25.1,10.3,37.6c1.8,6.6-0.2,9.3-6.3,12.6c-7.3,4-13.9,9-20.8,13.7
		c-0.9,0.7-1.3,2.2-1.9,3.4c-3,5.9-5.2,6.9-11.7,5.4c-9-2-15.9,4.3-17.2,11.7c-3.2,17.8-6,35.7-9.1,53.6
		c-3.6,20.4-7.3,40.8-10.9,61.2c-1.7,9.8-3.3,19.6-5.2,29.4c-0.3,1.3-2,3-3.3,3.3c-7.1,1.2-13.9,2.8-20.6,5.9
		c-6.9,3.3-13.6,1.3-18.8-4.2c-7.8-8-18-10.8-28.3-13.4c-1.4-0.4-3.5,0.5-4.9,1.3c-25.9,15.1-51.9,30.2-77.7,45.5
		c-21.6,12.8-43.1,25.9-64.6,38.7c-12.7,7.6-25.6,15-39.2,22.9c2.8,4,5.5,7.8,8.2,11.6c8,11.3,15.4,23.2,24.2,33.8
		c5.7,6.8,7.7,13.7,7.1,21.9c-0.2,2.1-0.7,4.2-1.5,6.1c-1.6,3.7-3.6,7.4-5.5,11c-2.9,5.7-3.4,11-0.2,17.1c2.4,4.5,3.2,9.5,0.4,15
		c-5,9.9-6.3,21.6-14,30.4c-5.7,6.6-10.3,14.5-20.6,14.8c-1.5,0-3,1.1-4.5,1.7c-3.7,1.5-7.5,2.7-11,4.5c-6.4,3.4-13.5,6.3-18.7,11.1
		c-6,5.5-13.3,7.6-20.3,10.3c-9.3,3.6-18.8,6.6-25.2,15.1c-0.9,1.3-3.4,1.8-5.2,2c-10.7,1.1-19.8,6.9-29.6,10.3
		c-9.9,3.5-20.1,6.3-30.3,9.2c-6.2,1.8-8.7,0.7-12.4-4.8c-4.5-6.6-8.9-13.3-13.8-19.6c-2-2.6-5.1-4.6-8.1-6.2
		c-6.1-3.2-11.9-6.4-16.3-12.2c-3.6-4.7-8.6-8.2-12.9-12.3c-2.2-2.2-3.9-5-6.2-7c-5.8-5-11.5-10.1-17.8-14.4
		c-5.8-4-11.3-8.1-16.1-13.4c-6.7-7.4-14.6-13-25.5-13.1c-2.6,0-5.2-2.8-8.4-4.6c5.5-4.7,10.4-9,15.5-13.1c9-7.5,18-14.8,26.9-22.3
		c11.6-9.6,23.2-19.3,34.9-28.9c4.3-3.6,2.9-8.4,2-12.5c-2.1-8.9-4.2-17.7-2.7-27c0.4-2.7-1.3-5.6-1.8-8.5
		c-2.8-16.4-10.6-30.9-18-45.5c-0.5-1-1.1-2.2-2-2.7c-9.8-6.1-16-15-21.1-25.1c-2.9-5.6-7.9-10.1-12-15.1c-2.2-2.7-4.5-5.2-6.7-7.9
		c-1.6-2-2.6-4.9-4.6-6.2c-7.4-5-8-12.1-7.6-20c0.7-13.1,0.7-26.2,1.1-39.3c0.3-9.3,0.5-18.5,1-27.8
		C1431.5,1092.9,1432.2,1083.7,1432.9,1073.5z"/>
</g>
</svg>
