<?xml version="1.0" encoding="utf-8"?>
<!-- Generator: Adobe Illustrator 19.0.0, SVG Export Plug-In . SVG Version: 6.00 Build 0)  -->

<svg version="1.1" id="Layer_1" xmlns="http://www.w3.org/2000/svg" xmlns:xlink="http://www.w3.org/1999/xlink" x="0px" y="0px"
	 viewBox="0 0 6500 3500" style="enable-background:new 0 0 6500 3500;overflow: hidden; display: inline; width: inherit; min-width: inherit; max-width: inherit; height: inherit; min-height: inherit; max-height: inherit;" xml:space="preserve">
<style type="text/css">
	.st0{fill:#8FD4EB;stroke:#000000;stroke-width:3;}
</style>
<path onclick="modals(this.id);" id="1379" class="st0" d="M2782.6,1292.7c8.7-5.3,14.9-11.6,16.3-20.6c9.3-2.1,17.6-4.9,26-5.6c8.7-0.7,17.4,2.2,22.4,9.8
	c4.6,6.9,9.5,11.2,18.2,11.6c6.8,0.3,11.1,4.9,14.2,11c6.5,12.7,13.5,25.2,20.2,37.9c2.6,4.9,6.2,7.4,12,6.6
	c7.2-1,14.6-1.3,21.7-2.8c18.3-3.8,36.4-1.6,54.4,1.8c7.1,1.3,12.9,5.3,16.5,11.8c7,12.6,18.2,19.7,31.1,25
	c12.6,5.1,25.7,9.6,37.3,16.5c12.2,7.2,24.2,15.6,34.2,25.6c16.3,16.2,34.5,28.8,55.4,38.2c17.2,7.7,33.8,16.9,50.6,25.6
	c2.9,1.5,5.6,3.6,8.2,5.6c7.9,5.7,17.3,7.8,26.4,10.7c11.1,3.7,21.1,9.3,30.7,17.2c8.6-2.9,17.6-1.4,26.6,1.4
	c20.3,6.4,39.7,14.9,58.3,25.1c6.7,3.7,13.1,7.9,21.8,7.5c6.1-0.3,12.2,3,18.4,3.9c11.4,1.6,22.9,2.7,35.3,4.1
	c1.2,14.2,6.4,28.9,2.2,44.2c-0.6,2.2-1.2,4.5-2.2,6.6c-8,17.5-16,35.1-24.1,52.6c-4,8.6-9.7,15.1-20,15.2
	c-5.1-7.4-10.1-14.7-15.4-22.5c-7.7,6.1-8.7,13.4-8.2,21.9c-6.8-0.7-11.9-3.4-17-6.3c-9.8-5.6-19.4-11.9-29.9-15.7
	c-10.5-3.8-22-4.9-33-7.2c-21.9-4.6-44-6.3-66.3-6.5c-3,0-6-0.3-8.9-0.8c-7.1-1.1-13.7-0.4-20.4,2.6c-6.9,3.1-14.4,4.9-21.7,7.3
	c-1.9,0.6-4.1,0.7-5.7,1.8c-10.2,6.9-19.7,4.6-29.2-1.6c-2.1-1.4-4.7-2.3-7.2-2.5c-16.4-1.3-20.2-4.5-24.1-21.7
	c-3.1-1.4-6.9-2.7-10.3-4.7c-3-1.8-5.5-4.4-8-6.4c0.7-2.6,1-4.3,1.6-5.8c4-10.5,4.1-10.9-5-18.2c-5.9-4.8-12.1-9.1-18.4-13.9
	c0.5-2.3,1.1-4.5,1.5-6.8c1.3-7.2-2.6-12.4-9.7-12.5c-13.6-0.3-27.3-0.5-41-0.7c-2,0-4.3-0.5-5.9,0.3c-8.5,3.9-17.1,4.2-26.2,2.6
	c-2.8-0.5-6.3,1.6-9.2,3.1c-4.2,2.2-8,1.7-10.7-1.8c-2.8-3.6-7.8-6.4-4.6-12.8c3.7-7.3,6.4-15.1,6.1-25.3
	c-9.8,3.5-18.6,6.6-26.5,9.4c-5.1-2.8-9.1-5.5-13.6-7.3c-4.9-2-8.2-0.4-8.8,4.4c-2.2,17.6-14,30.6-21.8,45.4
	c-3.4,6.5-7.6,12.5-11.7,18.6c-4.7,7-8.6,14.2-9.5,22.7c-0.5,5.3-3.3,8.7-8,11.6c-5.9,3.6-11,8.5-16.5,12.9
	c-1.8,1.5-3.3,3.6-5.4,4.4c-9.4,3.5-14.2,11.3-19.6,18.9c-4.6,6.4-7.8,12.2-3.7,20.3c-2.5,1.6-4.8,2.8-6.7,4.5
	c-3.4,3-6.7,6.2-9.7,9.6c-3.5,4-5.9,9.3-10.1,12.2c-11.6,8.1-18.7,19.8-26.3,31c-7.6,11.1-17.3,20.1-27.1,29c-2,1.8-4.8,3-6,5.2
	c-5.3,9.3-14,13.8-23.5,17.3c-4.5,1.7-6.6,5.3-8.6,9.2c-4.9,9.5-10.5,18.2-18.8,25.5c-7.2,6.4-15.2,9.2-23.7,7.5
	c-12.5-2.5-22.9,1.6-33.1,7.1c-4.9,2.6-9.2,3.1-14,0.4c-7.2-4-10.3-4.5-17.9,4.2c-4.1,4.7-9,7.8-14.7,9.8
	c-16,5.8-32.1,11.3-45.3,22.5c-7.1,6-13.9,12.2-20.7,18.5c-6.7,6.2-13.8,11.5-22.7,14c-7.7,2.1-15.4,4.6-23.2,5.6
	c-9.5,1.2-17,5.6-22.9,12.4c-5.9,6.8-14,9.2-21.9,10.8c-5.2,1-11-1.2-16.6-1.9c-26-3.2-52-6.4-78.1-9.7c-7.5-0.9-15-1.9-23.5-2.9
	c1-7,1.8-13.5,2.9-19.9c3.9-24.6,8-49.1,11.9-73.7c3.3-21,6.6-42,9.8-63c5.6-35.7,11-71.5,16.7-107.2c2.4-15.1,3.7-30.3,9.4-44.7
	c2.2-5.7,0.3-8.3-5.4-10.8c-1.8-0.8-3.7-1.7-5.6-2c-15.4-2.6-28.2-11.6-42.1-17.7c-2.1-0.9-3.9-2.5-5.7-3.9
	c-0.8-0.6-1.1-1.8-1.9-2.3c-12.2-6.4-25.2-10.4-39.1-9.6c-3.5,0.2-7,3.6-10.1,6c-12.1,9.1-13.4,9.5-29.6,5.1
	c0.7-16.4,1.4-32.9,2.2-49.4c0.1-1.6,0.6-3.3,1.5-4.7c6.1-9.8,6.3-20.8,6.3-31.8c0-6-0.9-12-0.5-18c1-13.8-3.2-26.6-12.1-35.9
	c-14.5-15-17.2-32.8-17.3-52c0-1.3,0.1-2.7,0-4c-1.1-10.3-3.8-19.6-15.2-23.2c-0.9-0.3-1.8-0.9-2.7-1.3
	c-10.2-3.8-16.3-10.9-18.2-21.7c-1.1-6.2-2.4-12.5-4.7-18.3c-2.8-7-0.9-12.6,2.2-18.9c25.1-50.7,49.9-101.5,74.7-152.3
	c0.7-1.5,1.5-3,2.2-4.5c2.7-5.5,6.1-9.2,13.1-10.3c14.4-2.2,28.6-5.9,42.9-9c7-1.6,10.5-5.8,8.7-12c-4.7-15.9-9.4-31.9-24-42.5
	c-3.8-2.8-7.2-4.1-11.8-3.5c-6.7,0.9-12.2-0.6-15.7-7.5c-1.3-2.7-4.4-5.1-7.3-6.3c-6.4-2.5-11.8-6.1-16-11.5
	c-3.5-4.6-7.9-5.4-13.3-4.3c-17.8,3.5-22.3-2.1-19.8-20.3c1.3-9.6-0.8-19.8-1.6-29.6c-0.1-1.3-2.1-2.4-3.1-3.6
	c-4-4.6-3.7-9.9,0.2-14.9c1.9-2.5,4.3-5.6,4.4-8.5c0.2-6.6,3.6-11.2,7.9-16.8c6.4,5,13,9.8,19.1,15.2c4.2,3.7,8.6,5,13.7,3.2
	c5.9-2.1,10.2-0.1,14.2,4.1c5,5.4,11,8.1,18.7,7.4c2.9-0.3,6.4,1.4,9.1,3.1c4.8,3,9.1,6.6,14.1,10.3c8.4-7.5,16.3-14.7,20.3-26
	c8.9-0.8,11.3,9.7,19.4,11.2c3.7-6.2,8-12.6,16.8-13.1c6.5,4.9,7.3,11.2,4.5,18.4c-0.7,1.9-0.6,4.1-1.6,5.7
	c-7.7,12.1-3.8,24.2,2,34.9c3.9,7.2,10.6,14,17.8,18.1c10.9,6.3,18.9,13.5,20.2,26.3c0.4,4.1,2.6,5.8,5.9,7.1c2.5,1,5,1.9,7.3,3.2
	c10.3,6.1,21.1,6.7,32.5,3.6c3-0.8,6.6-0.6,9.6,0.3c31.8,8.9,62.1,21.7,91.7,36.3c6.1,3,11.3,8.1,16.3,12.8c1.5,1.4,1.9,5,1.6,7.4
	c-1.9,13.5,3.6,23.9,11.3,34.7c17.9,25.2,35.3,50.8,51.4,77.2c8.2,13.5,10.3,29.3,3.3,44.8c-0.7,1.5-1.1,3-2.1,5.8
	c6.7,1,12.7,2.1,18.8,2.7c12.5,1.4,25.1,2.8,37.6,3.8c2.7,0.2,5.9-0.8,8.3-2.2c3.4-2,6.9-4.4,9.4-7.3c7.9-9.3,17.8-9,28.1-6.4
	c5.3,1.4,9.6,0.7,15-1c11.9-3.7,24.4-7.1,36.7-0.3C2775.9,1290.8,2779.3,1291.5,2782.6,1292.7z"/>
<path onclick="modals(this.id);" id="1385" class="st0" d="M3132.3,2694.9c1.7,5.6,3,11.3,5.1,16.8c1.5,3.8,1.2,7-0.7,10.4c-3.4,6.1-6.3,12.4-9.8,18.5
	c-6.7,11.5-15.1,12.8-27.3,6.7c-13.6-6.8-27.8-12.6-42-18.1c-8.7-3.4-17.4-6.3-25.1-11.8c-9.2-6.6-19.1-12.1-28.4-18.5
	c-12-8.3-25.6-12.6-39.2-17c-2.4-0.8-5.2-0.3-7.8-0.3c-0.6,0-1.2,0.4-1.9,0.6c-21.7,6.6-21.8,6.6-30.5,27.9
	c-2.8,6.8-5.4,13.7-7.2,20.7c-5.5,21.1-15.8,39.3-30.8,55.1c-5.7,6-13.8,6.5-20.9,8.5c-3.2,0.9-7.6-1.3-11-2.9
	c-8.7-4-17.3-8.5-26.6-13.2c1.9-2.7,3.2-5,4.9-6.9c20.2-22.1,24.7-48.5,21.4-77.1c-1.2-10.2-2.4-20.4-6.8-29.9
	c-3.4-7.4-7.3-14-14.9-17.9c-4.1-2.1-8.1-5-11-8.5c-7.6-9-17.3-14.8-28.1-18.3c-14.7-4.8-19.1-17-21.7-29.7c-1-5,2.6-11.5,5.6-16.5
	c5.7-9.7,12.5-18.8,18.9-28.1c1.7-2.5,3.6-4.8,5.4-7.2c7.2-9.9,6.7-12.4-4.5-16.6c-23.6-9-47.4-17.7-71-26.7
	c-14.6-5.5-29.1-11.1-44.5-14.4c-5-1.1-9.6-4.2-14-7c-7.9-4.9-15.4-10.3-24.4-16.4c-0.2-10,0.2-21.3-0.8-32.4
	c-0.8-9.2-2.3-18.6-5.5-27.1c-5.2-13.9-17.4-20.1-32.2-23.7c0.4-6.7,0.8-13.4,1.3-21.6c7.2,1.3,13,2.5,18.8,3.3
	c5.5,0.8,11.2,1.7,16.7,1.4c13.4-0.8,25.7,0.9,36.4,10.1c6,5.2,14,6.4,21.6,6.2c11.3-0.3,22.5-1.8,33.8-2.5
	c6.2-0.4,12.6-0.9,18.6,0.3c9.4,1.8,18.7,4.8,27.9,7.7c3.7,1.2,7.7,3,10.4,5.6c5,5,10.1,8.4,17.5,6.6c1.2-0.3,3.5,0.8,4.3,2
	c5.7,7.9,12.5,5,19.9,2.5c0.6-9.1-1.2-16.8-8.8-22.8c-9.4-7.4-18.5-15.2-27.5-23.1c-7.2-6.3-10-14.4-9.1-23.9c0.1-1,0.1-2,0.4-3
	c5.4-19.1,1.6-37.3-4.7-55.5c-3.7-10.7-6.9-21.5-10.2-32.3c-3.6-11.5-11-14.5-21.8-8.7c-0.6,0.3-1.3,0.3-1.9,0.4
	c-2.6-2.5-1.5-4.8,0.6-6.8c10.1-9.8,14.7-23,20.3-35.3c2.8-6,1.5-14.4,0.7-21.5c-2.7-24.1-1.5-47.7,6.8-70.8
	c2.6-7.3,6.8-12.7,14.3-15.4c5-1.8,9.7-4.3,15.5-7c2.7,4.9,6.5,9.5,7.8,14.6c5,19.6,12.1,38.9,10.2,59.7c-0.9,9.2-2.2,18.5-4.2,27.5
	c-1.1,4.8-0.3,8,3,11.6c18.7,20.7,35.6,43.1,56.3,62.1c10.2,9.4,16.7,21.3,21.5,34.3c3.6,9.9,2.4,19.8,0.6,29.5
	c-2.2,11.9-3.4,23.5-0.7,35.5c1,4.3,2.5,6.4,6.9,6.8c4.6,0.4,9.1,1.2,13.9,1.9c2.4-4.7,5.2-8.5,6.6-12.9
	c4.3-13.9,17.4-17.7,29.7-14.8c8.5,2,15.2,0.9,22.6-3.5c9.1-5.4,19.4-3.7,29-1.3c9.8,2.5,18.2,7.7,24,16.5
	c19.2,28.9,37.5,28.4,68.4,27c3-0.1,5.9-0.9,8.9-1c4.5-0.2,8-2.1,11.5-5c11.5-9.2,22-19.3,30.9-31c6.6-8.6,15.9-13.2,25-17.7
	c11.2-5.4,22.2-1.5,31.8,5.2c9.3,6.5,18.9,12.1,29.4,16.6c8.9,3.8,15.5,11.4,19.9,20.3c3.4,7,7.3,12.6,14.8,16.6
	c6.5,3.5,12.5,9.3,16.4,15.6c5.9,9.4,13.3,16.4,22.6,22c5,3,8.8,6.8,11.6,12c4.4,7.8,8.9,15.7,14.1,23c5.5,7.8,11.7,15.3,18.1,22.4
	c1.9,2.1,5.6,3,8.6,3.9c12.4,3.9,22.1-0.2,29.1-10.7c5.2-7.9,13.5-7.7,21.2-8.8c5.2-0.8,9.8-1.4,11.7-7.3c0.4-1.1,1.5-2.5,2.6-2.8
	c9.8-2.9,19.6-6.6,29.7-8c9-1.2,17.7-1.5,25.3-7.3c6.3-4.9,14.4-5.3,21.9-5.4c7.6-0.1,14.4-1.9,20.9-5.7c5-2.9,10.3-4.7,16.2-3.9
	c10.3,1.4,17.8-3.8,25-10c17.6-15.2,27.1-34.5,31.7-57.2c5.1-25.2,14.3-49.2,27.2-71.5c4.8-8.3,12.6-13.4,20.9-17.9
	c15.5-8.5,11.3-7.8,23.8,2.2c20.2,16.2,42.7,28.1,67.1,36.6c5.9,2.1,11.7,4.8,17.2,7.7c23,12.1,46.4,22.8,71.3,30.7
	c28.9,9.1,56.5,21.5,82.4,37.6c24.9,15.5,50.3,30.1,78.5,38.9c3.1,1,5.9,2.5,10.7,4.6c-4,2.9-6.5,5.5-9.5,6.8
	c-17.4,7.4-35.2,13.9-52.5,21.7c-13.9,6.3-27.4,13.4-40.5,21.2c-15.2,8.9-29.8,18.8-44.6,28.4c-3.5,2.3-8.9,4.7-9.5,7.8
	c-1.2,5.9,0.3,12.4,0.8,18.6c0,0.6,0.5,1.2,0.8,1.8c6.4,13.1,11.6,27.1,19.6,39.2c9.9,15.1,15.9,32.1,25.6,47.2
	c7.2,11.3,7.8,24.5,10.7,37.1c4.2,18.1,8.3,36.3,12.2,54.5c0.8,3.9,1.5,7.9,1.5,11.8c-0.2,14-0.8,27.9-1.2,41.8c0,0.3-0.1,0.7,0,1
	c5,15.8-5.8,25.8-14.3,36c-6.9,8.3-12.4,16.9-16.2,27.1c-2.3,6.2-7.4,11.6-11.9,16.8c-1.2,1.4-5,1.1-7.5,0.8
	c-12.5-1.3-25.1-2.9-37.6-4.4c-24.7-3-49.4-6.1-74.1-9.2c-27.3-3.4-54.8-6.2-82-10.4c-12.4-1.9-24.6-5.4-36-11.4
	c-10-5.3-20.7-9.1-31-13.8c-4.3-2-8.2-2-12.3,0.3c-11.6,6.4-23.5,7.2-36.3,3.1c-15.5-5-31.4-8.5-47.8-9c-10.9-0.3-21.8-2.7-31.8,4.3
	c-2.8,1.9-6.9,2.1-10.5,2.5c-11.6,1.1-23.1,3.1-33.5,8.6c-5.7,3-11.1,3.8-16.9,0.4c-2.3-1.3-5-1.9-7.5-2.8
	c-14.3-5.2-28.6-7.9-43.7-2.5c-7.4,2.6-15.7,2.7-23.5,4.5c-11.1,2.5-19.3-3-26.9-9.7c-3-2.6-5.1-6.1-7.7-9.1
	c-15.3-18.5-34.6-25.8-58.4-21.7c-11.1,1.9-22.3,1.7-33.6,0.8c-11.6-1-20.2-7.4-25.9-16.4c-6.4-10.1-13.1-18.9-24-24.5
	c-4.3-2.2-7.4-6.7-10.9-10.1C3144.3,2690.9,3144.3,2690.9,3132.3,2694.9z"/>
<path onclick="modals(this.id);" id="1381" class="st0" d="M4000.9,2404c-34-9.1-63.3-26.4-92.2-44.1c-26.6-16.3-55.1-28-84.7-37.3
	c-23.6-7.4-45.6-18.2-67.3-30c-3.5-1.9-7-4-10.8-5.1c-17.1-5-32.7-13.1-48-21.9c-6.3-3.6-12.3-7.9-18.2-12.2
	c-15.3-11.1-30.4-22.7-45.9-33.6c-13.7-9.5-24.6-21.4-32.6-35.9c-8.2-14.8-19.8-25.6-34.7-33.3c-0.6-0.3-1.1-0.9-1.7-1
	c-22.2-4.4-40-17.8-58.8-28.7c-21.6-12.5-44.6-22.6-64.5-37.8c-3.7-2.8-7.4-5.7-10.7-9c-15.1-15.5-30.1-31.1-44.9-46.9
	c-6.4-6.7-12.2-13.9-19.5-22.3c5.6-2,9.9-3.2,14-5.1c2.5-1.2,5.6-3.1,6.4-5.4c3.6-10.6,5.4-21.9,16.4-29.7
	c-7.6-4.2-13.2-7.7-19.3-10.3c-2.3-1-6-0.6-8.4,0.5c-11.7,5.5-24,10.3-34.6,17.6c-10.4,7.1-20.6,6.5-31.2,3.5
	c-17.4-5-33-13.9-47.3-25.1c-10.2-8-20.1-16.5-30.6-24.1c-18.1-13.1-37.8-21-60.7-22.7c-23.2-1.6-45.7,0.8-68.4,3.8
	c-8.7,1.1-17,1.7-25.3-2.3c-5.7-2.7-12-4-17.7-6.7c-24.7-11.4-51.3-16-77.5-22c-21.7-5-41-15.4-60.8-24.9
	c-7.4-3.6-15.4-6.1-23.2-8.7c-8.8-2.9-17.5-5.9-26.5-7.9c-8.7-2-17.6-3.6-26.5-3.9c-9.4-0.3-16.6-4.5-23.2-10.2
	c-12.3-10.6-21.1-14.3-38.7-14.9c-0.6-3.2-1.6-6.6-1.9-10.1c-0.3-3.3,0.1-6.7-0.1-10c-0.7-10-1.8-19.9-10.1-27.1
	c-1.4-1.2-2-3.4-3.3-5.7c9.9-11.9,15.9-26.8,29.2-36.2c3.7-2.6,7.3-6.1,9.7-10c4.1-6.7,8.4-12.6,16-15.6c3.5-1.4,4.9-4.5,3.3-8.2
	c-2.4-5.8,0.4-9.9,3.5-14.5c5.3-7.7,10.7-14.5,19.5-19.2c9.5-5.1,17.7-12.8,26.1-19.8c2.1-1.7,3.5-4.9,4-7.6
	c1.5-9.4,5.3-17.6,10.4-25.6c9.7-15.1,18.7-30.7,27.4-46.4c3.3-5.9,5.1-12.7,7.9-19.8c6.3-1.2,10,3.5,13.1,9.1
	c8.7-3.1,16.7-5.9,27-9.5c-2.5,7.5-4.3,13-6.2,18.4c-2.8,7.7-1.5,12,5.7,18.1c4.6,3.9,9.2,4.2,15.4,1c1.8-0.9,3.6-2.4,5.4-2.4
	c24.5,0,48.9-4.9,73.5-1.9c5.6,0.7,7.6,2.9,6.7,8.4c-0.4,2.6-1.2,5.2-2.1,8.5c8.5,7.6,20.4,11.9,27.1,22.6c-0.6,1.8-1.2,3.7-2,5.6
	c-3.6,9.1-2.3,13,6.2,17.6c2.9,1.6,6.1,2.6,9.4,4c2.9,5.2,2.6,11.7,8.1,16.4c5,4.2,9.8,6.6,15.8,6.8c4.4,0.1,7.9,1.1,11.9,3.6
	c4.5,2.8,10.5,3.7,16,4.3c5.1,0.6,10.9,1.4,14.5-4.2c0.2-0.3,0.4-0.6,0.7-0.7c18.9-3.9,36.3-14.5,56.9-11
	c13.7,2.3,27.8,2.2,41.6,4.1c19.4,2.7,39,5,57.4,12c8.3,3.1,15.9,8.2,23.5,12.9c7.2,4.4,14.5,7.8,23.7,9.1c0.9-6.7,1.8-13,2.7-19.3
	c0.8-0.2,1.6-0.3,2.4-0.5c7.3,7.8,13.3,15.9,11.3,28.2c-1.8,10.7-2.7,21.6-4.1,32.8c3.7,1.3,6.7,2.4,10.6,3.9
	c-0.6,12.2-1.2,24.7-1.8,38.3c4.6,0.7,8.7,1.7,12.8,1.8c34,0.4,68,0.7,102,0.7c15.6,0,28.1,5.6,38.5,17.5
	c7.3,8.4,14.7,17.2,25.2,21.3c12-9.1,18.1-21.8,23-35.1c0.9-2.3,1.2-5,1.1-7.5c-0.5-8,3.9-11.5,11.2-9.3c10.2,3.1,20.4,5.8,30.7,8.7
	c2.5,0.7,5,1.5,7.9,2.4c-2.8,6.1-6.5,10.4-11.5,14c-8.6,6.2-17.2,12.5-25.1,19.6c-7,6.2-5.8,21.5,2.4,25.8
	c9.3,4.9,19.5,8.3,29.6,11.3c11.5,3.3,23.3,5.6,35,7.7c11.8,2.1,21.4,8.8,31.6,14.3c6.1,3.3,11.6,8.1,17.9,10.9
	c6.9,3.1,8.4,8.4,9.5,14.8c2,12.1,4.9,24.1,6.8,36.2c1.2,7.6,5,11.9,12.5,13c1.9,0.3,3.8,1,7.2,1.9c-1.7-9-3.3-17.2-4.9-25.4
	c0.6-0.2,1.3-0.4,1.9-0.6c2.3,4.6,4.7,9.2,7.2,14.1c4.9,0,9.8,0,15,0c1.8-4.1,3.5-8,5.7-13c3.7,2.2,7.2,4.5,10.8,6.4
	c6.4,3.4,12.9,6.7,19.5,9.7c4.6,2.1,7.2,4.7,5.2,10c-0.4,1.2-0.3,2.6-0.5,4.6c11.5,8,22,17.9,37.2,19.4c9.3,0.9,15.4,7.4,21.8,13
	c4.8,4.1,9.3,8.6,13.4,13.4c3.5,4.1,7.3,5.3,12.3,4c3.4-0.9,7-1.6,12.1-2.7c-3.9-4.5-7-8.1-10.2-11.9c2.5-1.3,4.8-2.5,8.1-4.3
	c-3.9-4.6-7.4-8.7-11.7-13.7c2.3-0.3,3.8-1,4.5-0.6c5.3,4,10.4,8.3,15.5,12.5c3,2.4,3.5,5.4,2,8.9c-0.8,1.8-1.3,3.8-2.4,5.5
	c-6.1,9.7-10.2,20.1-10.9,31.6c-0.1,1.3-0.7,2.6-1.2,3.8c-6.1,13.6-12,27.4-18.6,40.8c-2,4-2.5,7.2-0.6,11.2
	c2.3,4.8,3.8,10,6.3,14.7c2,3.7,4.7,7.1,7.5,10.3c4.7,5.2,10.8,9.3,14.5,15c8.3,12.9,20.7,19.6,34.5,23.8
	c11.7,3.6,18.1,11.3,21.6,22.5c3,9.7,4.3,19.4,3.7,29.5c-0.3,5.7,0.5,11.1,3.3,16.3c6.7,12.2,13,24.7,19.4,37.1
	c2.8,5.3,6.5,10.4,8,16c3.3,12,10.3,20.1,20.9,26.3c6.5,3.8,11.8,9.7,17.8,14.4c12.6,9.7,18.1,24.4,26.2,37.3
	c7.3,11.6,10.5,23.2,5.5,36.6c-1.5,4.2-0.9,9.2-1.3,13.9c-0.3,3.3-0.5,6.6-0.9,9.9c-1.2,9.7-4.7,17-16.3,16.9
	c-2.5,0-5.3,1.1-7.5,2.3c-7.6,4.3-15.2,3.7-22.9,0.3c-3.9-1.7-7.2-2.7-8.4-8.4c-0.8-3.9-6.3-7.2-10.2-10c-5.1-3.6-8.6,0.5-12.1,3.6
	C4003.3,2402.8,4002.1,2403.3,4000.9,2404z"/>
<path onclick="modals(this.id);" id="1377" class="st0" d="M3855.2,1661.1c-4.3,0.7-8.5,2-12.8,2.1c-6,0.1-12-0.5-17.9-1.3c-6.3-0.8-12.6-2.1-17.1,3.7
	c-7.6-4.6-12.4-10.2-14.1-19.4c1.1-1.9,2.6-4.8,4.2-7.6c1.6,0,2.9,0,4.2,0c13.3-0.5,26.1,0.2,32.8,15.3c4.5-3,8-5.5,11.6-7.7
	c3.9-2.5,5.5-6.1,6.7-10.5c1.7-6.4,4-12.6,6.5-18.7c5.4-13.2,11.1-26.4,16.7-39.5c11.2-26.3,22.4-52.6,33.5-79
	c3.2-7.7,6.2-15.5,8.7-23.4c4.6-14.5,11.6-27.4,21.1-39.3c6.8-8.5,12.9-17.6,19.4-26.4c7.4,2.9,12.2,8,15.4,14.3
	c3.9,7.8,10.3,11.5,18.3,10.7c15.1-1.4,21.5,5.9,25.4,19.7c5.5,19.6,6.3,19.6,25,27.4c11.7,4.9,22.7,10.3,32.1,19.3
	c10.5,10.1,22.7,18.5,33.1,28.8c10.9,10.7,24.2,14.9,38.4,16.8c12.6,1.6,24.9,3.8,37.1,7.3c6.3,1.8,13,2.1,19.6,2.9
	c3.3,0.4,6.6,0.5,10,0.6c8.8,0.4,16.1,2.9,19.4,12.2c2,5.4,6.5,8,12.1,9.3c6.5,1.5,12.7,3.9,19.2,5.2c4.5,0.9,9.7,2,13.7,0.4
	c10.3-3.9,17.1,1.4,22.4,8.2c5.1,6.6,11.9,12.6,12.4,22.1c0.1,2.3,2.6,4.5,3.9,6.8c5.8,9.6,8.8,19.3,1.8,29.7
	c-1.4,2.2-3,5.1-2.7,7.4c1.4,8.7-4.3,13.4-9.5,18.5c-9.5,9.4-18.7,19-28.4,28.2c-4.2,4-6.8,7.5-4.4,13.8c2.9,7.7,4.7,15.8,6.9,23.8
	c1.9,6.7,3.3,13.5,5.5,20.1c1.9,5.6,3.9,11.4,7.1,16.3c4.1,6.2,4.3,11.7,2.3,18.7c-4.7,16.3-4.5,32.1,7.9,45.7
	c1.2,1.3,2,3.4,2.3,5.2c1.7,10.8,3.6,21.6,4.8,32.5c0.4,3.4-0.7,7.1-1.7,10.5c-1.6,5.1-1.2,9.9,1.5,14.4c6.4,10.3,5.5,22.3,7.7,33.5
	c0.6,3-2.1,6.8-3.7,10.1c-3.1,6.2-2,12.4,2.7,16.4c8.2,6.9,13.7,17.6,25.5,17.8c0.8,1.6,1.5,2.3,1.4,2.7c-3,9.5,1.8,18.1,3.1,27.1
	c0.4,2.5,1,5.8-0.3,7.5c-6,8.6-2.9,15.5,2.7,21.9c0,4.9,0,9.4,0,13.9c0,2.7,0.6,5.4,0,8c-3.6,16.6,5.8,26.6,17.6,35.6
	c2.2,1.7,4,4,5.7,6.2c2.6,3.4,4.5,7.5,7.5,10.5c5.8,5.9,6.5,13.1,5,20.3c-1.2,5.4-1.5,10.2,0.5,15.5c1.1,2.9,0.5,6.5,0.6,10.2
	c-22.4,8.8-44.3,17.4-66.3,25.9c-38.4,15-76.9,30-115.2,45.1c-10.3,4-10.2,4.2-7.3,14.5c1.4,5.1,2.9,10.2,4.3,15.3
	c0.2,0.6-0.1,1.3-0.2,3c-9.5,4.8-19.4,10.3-29.6,14.9c-13.6,6-25.2,14.4-35.3,25.4c-11.3,12.2-23.4,23.7-35.3,35.4
	c-2.8,2.8-5.9,5.2-9.8,8.6c-3.6-6.4-6.8-12.1-9.9-17.8c-3.3-6.1-6.7-12.3-9.8-18.5c-5.2-10.6-14.9-16.9-23.2-24.4
	c-6.1-5.6-13-10.3-19.9-15.1c-3.4-2.4-5.6-5.1-7.2-9c-4.1-9.8-8.8-19.3-13.6-28.8c-5.8-11.6-13.1-22.6-17.6-34.6
	c-3.2-8.4-3.2-18.1-3.9-27.3c-0.9-12.1-3.1-23.5-11.6-33.1c-3.3-3.7-6.7-6.2-11.2-7.7c-5.3-1.9-10.5-4.2-15.6-6.4
	c-9.1-3.9-16.2-10.2-21.5-18.6c-1.9-3.1-4.3-6.2-7.2-8.2c-10.6-7.1-16-17.5-19.7-29.2c-0.7-2.3-1.3-5.4-0.4-7.4
	c4.6-11.4,10.3-22.3,14.5-33.8c3.3-8.9,9.8-11.9,18.2-12.9c5.9-0.8,11.9-1.2,17.8-2.2c2.2-0.4,4.2-1.8,7.2-3.1
	c-1.5-6-2.9-11.7-4.4-17.4c-2-7.4-1-14.1,2.8-21c8.4-15.1,16.7-30.2,19.5-47.8c0.8-5.3,4.2-10.6,7.6-14.9c8.6-11,18-21.4,26.8-32.2
	c6.6-8.2,6.7-15.8,0.2-24.3c-20.6-27-41.3-53.9-62-80.8c-27.2-35.3-54.4-70.7-81.6-106c-2.6-3.4-5.4-6.7-8-10
	C3856.2,1659.8,3855.7,1660.5,3855.2,1661.1z"/>
<path onclick="modals(this.id);" id="1384" class="st0" d="M3657.7,2240.9c-8.3,5.3-15.2,9.3-21.7,13.8c-10.6,7.4-15.9,18.8-20.5,30.1
	c-8.5,20.9-16.5,42-20.7,64.5c-2.9,15.7-10.8,29.2-23,39.9c-2,1.8-3.9,3.6-5.8,5.5c-5.9,5.9-12.5,9.8-21.3,8.7
	c-5.8-0.7-11.3,0.4-16.2,3.7c-9.9,6.8-21.7,5.4-32.7,7.5c-5.4,1-10.3,2.3-14.6,5.6c-5.2,4-11,5.4-17.7,5.3
	c-11.8-0.1-22.7,4.3-33.7,8.2c-1.7,0.6-3.9,2.1-4.4,3.6c-2.1,6.7-8,7.1-13,7.2c-9.2,0.2-15.6,4.4-21.4,11
	c-4.9,5.5-10.1,10.5-18.7,9.4c-5.8-0.8-10.4-2.6-15-6.6c-11.1-9.8-17.4-22.7-24.4-35c-6.2-10.7-14.2-18.9-24.5-25.6
	c-4.3-2.8-8.3-6.8-11-11.1c-6.4-10.1-14.8-17.7-24.8-24c-2.9-1.8-5.5-4.9-7-8c-7.2-14.8-17.8-25.3-33.8-30.4c-4.3-1.4-8-4.6-12-7
	c-4.8-2.9-9.5-6.1-14.4-8.9c-12.3-7.1-23.5-4.4-35.6,1.8c-11.5,5.9-18.9,15.3-27.4,24.2c-7.6,7.9-15.8,15.2-23.9,22.6
	c-1.4,1.3-3.4,2.2-5.3,2.5c-17.2,3-34.4,3-51.4-1.4c-8.3-2.2-12.5-9.4-18.4-14.5c-2.7-2.3-4.9-5.5-6.9-8.5
	c-9.1-13.2-21.8-18.6-37.6-18.2c-9.3,0.2-18.4-0.3-26.8,5.4c-2.6,1.8-7.6,0.4-11.5,0c-9.7-1.1-19.3-2.1-27.3,5.1
	c-2.4,2.2-4.6,4.8-6.2,7.6c-2.5,4.3-4.4,9-7,14.4c-4.5-0.6-9.3-1.3-13.5-1.9c-6.4-14.2-3.3-27.7-0.6-41c4.7-23.3-4.1-42.4-19.1-58.2
	c-17.6-18.6-35.2-37.2-51.3-57.2c-0.8-1-1.5-2.4-2.6-3c-10.4-6.5-10-15.8-7.2-26c4.4-16.1,2.7-32.3-0.6-48.3
	c-3.2-15.6-5.7-31.4-15.2-45.9c7.5-5.6,13.8-11.7,21.3-15.6c7.1-3.7,12.9-8.5,17.1-14.8c6.9-10.3,16.4-16,28.1-19.2
	c13.9-3.8,26.8-9.4,38.3-18.5c6.6-5.2,10-12.1,11.2-19.3c1.6-10,2.4-20.5-0.9-30.7c-5.7-17.8-8.9-36.1-10.2-54.7
	c-0.8-12.3-6.1-21.5-18.3-25.7c-6.3-2.2-5.9-8.3-7.3-13.1c-0.8-3,0.2-6.5,0.5-11.3c9.1,3,17.3,5.3,25.2,8.4c5.9,2.3,11.5,5.2,17,8.4
	c26.7,15.4,56.4,21.4,86,27.6c0.7,0.1,1.3,0.2,2,0.3c18,3.2,23,10.8,18.5,28.4c-0.8,3.2-1.5,6.7-3.4,9.3c-6.1,8.6-6.1,17.8-4.1,27.5
	c1.4,6.8,1.6,13.9,2.9,20.7c2.2,11.3,0.2,21.7-4.8,31.9c-6.2,12.5-6.1,12.6,4.6,24.1c6.9-0.8,11.9-5,16.4-10c3.1-3.4,6.2-7,9.5-10.3
	c6.6-6.7,11.7-7.8,20.2-3.6c4.1,2,7.5,2.6,10.7-1.1c5.2-6,11.1-6.2,17.8-2.4c2.3,1.3,4.9,1.9,7.7,3c1.8-3,3.4-5.8,5.6-9.4
	c15.1,1,31.4,6.4,45.6-7.3c2.3,3,4.4,5.8,5.9,7.7c7.1-0.5,12.9-0.7,18.6-1.3c1.6-0.2,3.4-1,4.4-2.1c6.8-7.1,14.2-3.4,19.5,0.7
	c5.2,4.1,10.1,4.3,15.7,4.3c2.3,0,4.7-0.1,7,0c7.7,0.3,8.3,0.9,8.9,9.2c0.1,1.2,0.2,3.1,1,3.6c9.1,5.7,4.4,12.3,1.6,18.9
	c-0.7,1.7-1.4,3.4-3,7.3c8.2-3.2,14.5-5.7,22.5-8.8c-1,6.5-1.8,11.2-2.5,16.1c-7.4,2.4-16,2.5-17.9,11.6c4.4,5.7,8.4,11.2,12.8,16.4
	c4.5,5.3,17.1,7.4,23.8,4.9c12.8-4.7,22.1-11.7,26-25.9c2.6-9.4,8.3-18.1,13.4-26.6c6.2-10.4,16-16.6,27.4-20.4
	c4.5-1.5,8.9-2,12.5,2.8c17.4,22.8,38.2,42.5,58,63.2c13.6,14.2,29.8,24.2,46.8,33.6c24.5,13.5,48.7,27.5,73.1,41.1
	c3.2,1.8,6.6,3.4,10.1,4.1c20.9,4.2,34.2,17.8,44.7,35.2c9,15,20,28.1,34.8,37.9C3640.5,2228.8,3648.5,2234.6,3657.7,2240.9z"/>
<path onclick="modals(this.id);" id="1386" class="st0" d="M3137.3,2696.1c3.1,0.7,6.5,0.5,8,2c7.3,7.3,15.3,13.6,24,19.3c5,3.2,8.2,9.4,11.8,14.5
	c8.4,11.7,17.9,21.4,33.9,20.8c11.3-0.4,22.6-0.2,33.8-1.5c21.2-2.4,38.5,4.2,52,20.6c5.9,7.2,11.7,14.2,20.6,18.4
	c5.1,2.4,9.9,3.6,15.3,2.6c11.4-2.1,23-3.8,34.2-6.5c7.1-1.7,13.7-2.1,20.6,0.2c8.2,2.8,16.5,5.1,24.6,8.2c4.1,1.6,7.7,1.5,11.4-0.2
	c12.2-5.5,24.6-10,38.3-10.2c3.2-0.1,7-0.6,9.5-2.3c11.9-8.4,25.2-5.5,37.7-3.8c17,2.2,33.8,6.7,50.6,10.6c6,1.4,11.6,1.9,17.3-1.2
	c11.3-6.4,22.6-6.1,33.7,0.8c2.8,1.7,6.2,2.6,9,4.2c19.7,11.4,41.4,15.6,63.7,18.3c60,7.2,119.9,14.7,179.9,22.2
	c0.9,0.1,1.8,0.7,2.6,1c3.7,5.7,3.3,11.1,0.2,17c-2,3.7-2.5,8.1-3.3,11.2c-16,10.5-31.6,20.4-47,30.8c-5.3,3.6-10.2,6.6-17.1,6.5
	c-13.3-0.2-23.6,5.6-29.5,18.1c-4.1,8.7-8.5,17.3-12.9,25.9c-4.9,9.6-15.1,12-24.1,5.7c-3-2.1-5.7-4.6-8.9-6.4
	c-6.2-3.5-8.3-3.1-12.4,2.8c-7.1,10-14,20.3-21.1,30.4c-7,10.1-14,20.2-21.8,31.3c-9.2-5.5-18-11-27-16c-4-2.2-8.3-3.9-12.7-5.1
	c-7.4-2.1-14.5-4.6-19.9-10.6c-1.9-2.1-4.6-4-7.3-4.8c-13.3-4.2-26.6-8.4-40.1-11.9c-9.6-2.5-19.1-3.5-29.2,0.7
	c-6.3,2.7-14.4,1.2-21.7,1.6c-10.9,0.7-21.9,1.1-32.8,2.2c-3.1,0.3-6.7,1.6-9.1,3.6c-5.5,4.7-11.6,4.6-17.9,3.2
	c-3.9-0.8-7.9-1.7-11.4-3.5c-7.1-3.6-13.5-1.8-19.9,1.6c-6.3,3.3-6.7,4.8-3.2,11.7c0.3,0.6,0.7,1.1,1,1.7c0.1,0.3,0,0.6-0.2,2.2
	c-11.4,5-21.6,13.8-34.8,17c-9.4,2.2-15.1,12.2-12.4,21.3c1.6,5.5,3.8,10.8-1.9,15.3c-0.3,12-8.4,20.5-13.9,30.2
	c-4.6,8-9.8,15.6-14.7,23.4c-8.8-2.1-13.7-6.1-14.3-15.6c-0.4-7.4-3.4-14.7-5.2-22.1c-0.9-3.8-3.8-4-6.9-4.2
	c-10.9-0.6-21.9-1.1-32.8-2c-5.2-0.4-10.5-1.2-15.4-2.9c-11.1-3.7-22.2-6.6-34-7.3c-6.9-0.4-14.3-1.1-20.4-3.9
	c-16-7.2-32.4-7.1-48.9-3.7c-11.3,2.4-20.8,0-30.1-6.4c-8.1-5.6-17.5-8-27.4-7.8c-10.3,0.2-16.1,5.9-16.4,16c-0.1,3.7-0.3,7.4,0,11
	c0.5,5.9-0.7,11-5.2,15.3c-9.5,9.1-18.8,18.3-28.9,28.2c-6-5.5-11.2-9.9-16-14.8c-2.8-2.9-5.9-3.6-9.8-3.8c-5.3-0.2-10.6-1-15.7-2.1
	c-2.5-0.5-5-2-6.9-3.7c-13.4-12.1-28.4-21.8-45-29c-3.6-1.6-7.6-2.2-11.3-3.6c-4.3-1.6-9.2-2.7-12.6-5.5
	c-10.9-9.1-23.6-13.5-37.2-15.7c-11.5-1.9-23.1-3-34.4-5.3c-10.8-2.2-20.5,0.4-29.8,5.1c-14.9,7.5-28.4,4.1-41.5-4
	c-2.3-1.4-4.1-4.3-5.3-6.9c-12.2-26.2-24.1-52.6-36.2-78.8c-10.9-23.5-22-47-32.9-70.5c-6.6-14.1-13-28.3-19.6-42.9
	c13.4-8.7,25.6-18.5,42.1-19.8c5.1-0.4,10.3-2.7,15.1-5c5.9-2.8,11.4-2.8,17.3-0.7c4.1,1.4,8.3,2.6,12.5,3.5c3.2,0.7,7,2.2,9.7,1.2
	c8.2-3.3,16.4,0.1,24.5-1.3c2-0.3,4.5,0.7,6.5,1.6c9,4.2,18.1,8.5,27,13c3.8,1.9,7.3,1.6,11.4,1c18.7-2.6,28.5-16.5,37.6-30.1
	c6-8.9,9.1-19.9,13.1-30.1c5.3-13.3,10.3-26.6,15.2-40.1c1.4-3.9,3.8-5.7,7.6-7c17.7-6.5,17.6-6.3,35.2-0.8
	c12.6,4,23.1,11.6,34.3,18.1c2.6,1.5,5.1,3.2,7.5,5c13.5,10,28.2,17,44.3,22.1c12.9,4.1,25,10.8,37.1,17c10,5.2,21.3,3.1,27.6-6.2
	c0.2-0.3,0.4-0.5,0.6-0.8c4.2-7.6,8.6-15,12.5-22.7C3145.5,2713.5,3137.2,2706.6,3137.3,2696.1z"/>
<path onclick="modals(this.id);" id="1383" class="st0" d="M2608.1,1845c9.5,7.2,18.4,5.9,28,0.4c7.4-4.3,15.3-6.7,24.6-4.7c17.4,3.7,28.7-7,38.6-19.2
	c2.7-3.3,5.2-7.1,6.6-11.1c2.9-8.4,8.9-12.9,16.8-15.4c5.9-1.9,9.9-5.9,14.1-10.5c8.5-9.3,17.9-17.7,27.1-26.6
	c10.3,7.4,13.8,17.5,13.5,29.4c-0.2,8-0.3,16,3.7,22.2c8.2,1.5,15.8,2.2,22.9,4.6c5.1,1.7,10.1,5.1,14.1,8.9
	c8.7,8.1,18.3,12.2,30.4,12.7c10.8,0.4,21.6,3.2,32.3,5.6c1.8,0.4,3.5,3.5,4.4,5.6c0.7,1.7,0,4,0.2,5.9c0.9,9.5,2.5,18,13.7,21.8
	c6.7,2.2,10.5,8.7,11.7,16c0.6,3.6,1.7,7.2,1.6,10.8c-0.2,17.3,5.8,33.3,9,49.9c1.6,8.4,2,17.2,1.3,25.7
	c-0.7,8.4-4.6,15.6-12.1,20.9c-9.6,6.8-20,11.8-31.1,15.4c-4.4,1.4-8.9,2.8-13.3,4.3c-7.8,2.7-14.1,7.5-18.6,14.4
	c-4.9,7.4-10.6,13.4-19.1,17c-4.2,1.8-7.9,5-11.3,8.1c-7.8,7-16.8,11.9-26.5,15.6c-9,3.4-14.7,9.6-17.8,18.8
	c-7.4,22.1-9.7,44.6-6.8,67.8c1.5,12.3,1.8,24.5-5.7,35.6c-4.8,7.1-8.9,14.8-13.9,21.8c-4.9,6.9-5.2,7.2,0.7,15.9
	c2.4-1.5,4.8-3.2,7.4-4.5c4.9-2.4,11.1,0,12.7,5.3c6.3,20.3,13.1,40.5,18.1,61.2c1.8,7.3-0.5,15.7-1.7,23.5
	c-1.4,9.1-2.3,18.2,3,26.1c4,5.9,9.3,11.1,14.6,16c6.5,6.1,13.8,11.4,20.5,17.4c5.3,4.8,5.1,5.1,6.4,14c-4.4,4-8.8,4-12.9-0.6
	c-2.9-3.3-6.1-4.3-10.6-4c-2.9,0.2-6.4-1.4-8.8-3.2c-7-5.4-14.7-9-23.2-11c-7.8-1.8-15.4-4.2-23.2-5.9c-11-2.4-21.6,1.3-32.4,2.5
	c-14.7,1.7-28.8,1.4-41.4-8.5c-8.3-6.6-18.9-9-29.3-7.8c-10.2,1.2-19.7-0.9-29.5-2.7c-4.2-0.8-8.5-1.1-13.6-1.8
	c-1,9.5-1.9,18.2-2.9,27c7.1,3.1,13.7,6,20.2,9c6.9,3.1,11,9,13.2,15.6c2.6,7.8,4.5,16.1,5.1,24.3c0.9,10.9,0.2,21.9,0.2,33.8
	c-2.4,0.2-4.9,0.6-7.4,0.5c-8.3-0.5-16.5-1.5-24.8-1.5c-3.4,0-7.2,1.5-10.3,3.2c-10.6,5.8-20.5,6.8-30.3-1.7
	c-2.9-2.5-6.8-4.5-10.5-5.5c-11.2-3-22.6-5.6-34-7.8c-3.7-0.7-8.1-0.1-11.7,1.1c-14.6,5-28.1,3.7-42.4-2.5
	c-28.9-12.7-58.4-24.2-87.7-36.1c-5.4-2.2-10.1-5-13.1-10.1c-3.2-5.4-7.8-9.1-13.5-11.4c-6.5-2.6-9.5-7.4-8.3-14.2
	c2-11.4-5.4-18-12.6-24.3c-2-1.8-6.2-2.2-9.1-1.6c-5.6,1.2-10.3,0-15.2-2.6c-14.5-7.5-29-14.8-43.7-21.9c-8.3-4-12.9-9.7-15.3-19
	c-4.4-17.2,0.1-28.3,15.1-38.8c16.8-11.8,34.9-16.8,54.2-20.9c14.7-3.1,27.9-10,39.2-20.4c3.8-3.5,8-7,12.6-9.3
	c7.7-3.9,15.8-7,23.8-10.1c13.4-5.2,22.6-17.6,23-31.9c0.3-10.6,0.3-21.3,0.1-31.9c-0.5-22.1,2.4-43.7,9.4-64.7
	c3.8-11.4,4.2-22.7,1.6-34.3c-1.1-5-2.7-9.6-7.7-12.1c-9-4.5-11-12.9-11.8-21.6c-1.9-20.6,3.9-39.5,14.7-56.9c1.2-2,4.1-3.5,6.4-4
	c10.5-2.4,18.9-7.9,25.9-15.9c2.7-3.2,6.1-4.6,10.3-5.4c9.8-1.9,19.7-3.6,28.9-7.2c7.9-3,16-7.2,22-13c18.1-17.8,37.8-32.5,62.3-40
	c8.7-2.7,16.6-6.5,22.3-14C2603,1848.2,2605.2,1847.2,2608.1,1845z"/>
<path onclick="modals(this.id);" id="1375" class="st0" d="M3951.4,2012.2c-10.7,1.6-20.7,3-31.3,4.6c-1.4-7.2,0.9-13.5,4.1-19.7c2.6-5,5.2-10,7.4-15.2
	c3.2-7.6,3.3-8.1-3-13.6c-6.2-5.4-13-10.2-19.3-15.2c-8.3,7.2-8.3,7.2,0.8,18.7c-2.4,1.4-4.8,2.7-7.8,4.4c3.4,3.8,6.3,7.2,9.8,11.1
	c-5.7,2.3-9.7,2.4-13.8-2.2c-4.9-5.4-10.3-10.4-15.9-15.2c-7.3-6.2-15.2-10.4-25.2-12.6c-9.9-2.2-18.7-9.4-27.8-14.8
	c-1.3-0.8-1.8-4.2-1.3-6c1.4-5.3-0.7-9.2-5.1-10.4c-12.8-3.6-22.9-11.9-34-18.5c-0.5-0.3-1.3-0.2-2.6-0.4c-5.1,4.4-2,17.5-16.1,14.4
	c-1.7-3.2-4.1-7.8-6.7-12.3c-2.3-4.1-3-9.8-10.7-10.2c0,10.9,3.8,20.8,5.1,31.4c-6.6,0.5-9.6-2.7-10.6-8.2c-2.9-15-6-29.9-8.5-45
	c-0.8-5.2-2.8-8.4-7.3-10.9c-7.2-4.1-13.7-9.8-21.3-12.9c-11.5-4.8-23.4-8.6-35.4-11.9c-15-4.2-30.4-7.3-45.5-11.1
	c-3.8-1-7.7-2.4-11.1-4.4c-9.6-5.6-11.2-17.3-2.9-24.8c6.1-5.5,13.1-10.2,19.9-14.9c10.9-7.5,19-16.5,19.2-30.7
	c0-1.6,0.3-3.6,1.4-4.6c5.8-5.4,11.6-11,18-15.6c5.4-3.8,11.5-6.8,17.5-9.5c19.6-8.8,37.4-20.2,49.7-35.2c10.8,0,19.3,0,27.9,0
	c4.6,0,7.2-1.9,8.2-6.7c3.6-16.2,7.6-32.4,11.4-48.5c0.8-3.2,1.8-6.3,2.8-9.9c14.1,0.7,20.5-11.4,31.5-17.9
	c8.4,5.4,17.2,11.1,26.7,17.3c-2.6,2.9-4.6,5-6.4,7.2c-3.2,3.8-6.9,5.3-12.2,4.8c-11.9-1.3-23.8-1.8-36-2.6
	c-2.3,4.1-4.3,7.8-6.1,11.2c2.4,11.5,8.3,19.8,19,25.3c5.2-7.9,12.8-5.7,20.3-4.9c9.1,0.9,18.4,3.2,28.3-0.8
	c6.1,7.9,12.4,16,18.6,24.1c43,55.9,86,111.8,129.1,167.7c7.2,9.4,7.3,13.4-0.5,22.7c-8.2,9.6-16.9,18.8-24.5,28.9
	c-4.3,5.7-8.1,12.6-9.4,19.5c-2.8,14.3-8.3,27.6-15.9,39.6c-7.5,11.8-9.2,23.1-4.5,35.9C3950.5,2005.9,3950.6,2008.5,3951.4,2012.2z
	"/>
<path onclick="modals(this.id);" id="1380" class="st0" d="M3399.3,1764.2c0.5-13.4,1-25.9,1.5-38.5c-3.4-1.3-6.2-2.3-10.1-3.8c1.3-12.4,2.7-25.1,4.1-38.4
	c14.8-1.9,21.3-11.8,26.3-24.3c5.6-14.2,12.4-28,19-41.7c5.4-11.1,7.8-22.3,5.5-34.7c-1.5-8-1.9-16.3-3-26c4.7,1.3,8.3,1.7,11.4,3.1
	c9.9,4.5,20.3,5.9,31.1,5.5c10.7-0.3,21.2,1.1,31.7,2.3c7.8,0.9,16.2-2.2,24.2-4.1c1.7-0.4,2.9-3.4,4-5.4
	c10.3-19.3,16.4-39.9,18.2-61.7c1.3-16.3,7.9-30.7,14.5-46.7c6.6,6.8,12.9,12.6,18.2,19.1c6.7,8.2,12.4,17.2,18.8,25.7
	c2.6,3.4,5.4,6.9,8.9,9.1c8.6,5.6,15.1,12.3,19.6,21.8c3.8,8,9.5,15.1,14.4,22.7c1.4,2.2,3.2,4.3,4.2,6.7
	c8.4,21.3,25.1,34.6,44.1,45.7c5.7,3.4,11.6,6.6,17.1,10.2c16,10.6,34.1,14.4,52.8,15.7c3.2,0.2,6.5-0.3,11.1-0.6
	c-4,20.3-9,40-14.1,60.1c-8.9,0-17.5,0.4-25.9-0.2c-3.7-0.3-6.4,0.3-9,2.7c-1.9,1.8-4,3.5-5.8,5.5c-15.6,17.4-37.4,25.1-57.1,35.9
	c-8.7,4.8-15.3,11.7-21.6,18.7c-2.9,3.2-2.7,9.2-4.3,15.1c-15.6-4.4-31.2-8.8-47.4-13.4c-3.9,4.8-12,8.1-7.4,17.6
	c0.5,1.1-0.7,3.1-1.3,4.6c-4.9,11.1-9,22.9-20.8,29.8c-7-2.5-11.5-8.7-16.9-14.1c-6.1-6-12.5-11.9-19.6-16.7
	c-4.2-2.8-9.8-4.3-15-4.7c-12.9-1-25.9-1.3-38.8-1.5c-25-0.4-50-0.5-75-0.7C3404.9,1764.6,3402.9,1764.4,3399.3,1764.2z"/>
<path onclick="modals(this.id);" id="1382" class="st0" d="M3114.4,2002.7c-11.1-6.7-20.7-8.3-28.2,2.8c-1.8-0.8-3-1.2-4.2-1.8c-9.2-4.6-16.6-3.9-24.3,3.1
	c-3.7,3.4-6.7,7.4-10.2,10.9c-3.5,3.4-7.2,6.6-10.8,9.7c-9.4-8.5-10.1-9-4.7-18c8.8-14.7,6.1-30.1,4.2-45.6
	c-0.7-5.9-2.2-11.8-2.8-17.7c-0.3-3.2-0.4-7.1,1.2-9.7c6.7-11.3,9.2-23.4,8.7-36.3c0-0.6,0.4-1.2,0.9-2.8c7.4,2.7,15.1,4.7,22.1,8.2
	c15.4,7.6,31,7.3,47.5,4.6c26.7-4.5,53.6-4.7,80.2,1.2c12.9,2.9,23.6,10.5,34.3,17.7c8.8,5.9,16.9,13,25.1,19.7
	c15.9,12.8,32.6,24.2,52.5,29.9c7.3,2.1,14.9,3.1,22.5,3.6c2.9,0.2,6.1-2.1,8.9-3.7c10.2-5.6,20.4-11.2,30.5-17
	c10-5.6,18.9-4.4,27.3,4.3c-6.7,6.7-9,15.6-11.3,24.5c-0.5,2-2.2,4.7-3.8,5.2c-6.9,2.1-14,4.3-21.1,4.8c-7.7,0.5-14.3,3.1-20.5,6.8
	c-10.2,6.2-17.8,15-22.7,25.9c-4,8.8-7.9,17.6-11.5,26.5c-1.8,4.6-4.1,8.1-9.1,9.8c-3.4,1.2-6.7,3-10,4.5c-8.8,4-17.5,1.3-22.6-6.9
	c-1.2-1.9-2.6-3.8-4.2-5.5c-1.4-1.4-3.2-2.4-5-3.7c2-9,11-5.8,16.6-10.3c1-5.6,2.1-12,3.3-18.4c-6.5-3.9-12-0.8-18,1
	c0.6-4.3,1-7.9,1.5-11.4c0.4-3.4,0.9-6.5-3.4-8.3c-1.1-0.5-1.7-3.1-2-4.8c-1-7.1-3.8-10.1-10.5-10.4c-3.7-0.2-7.4-0.6-11,0.1
	c-7.5,1.5-12.3-3.5-17.1-7.2c-5.8-4.4-9.8-5.3-16.3-2c-6.4,3.3-13.2,5.8-19.8,8.7c-3.5-3.7-6.1-6.6-9.1-9.7
	c-1.3,0.8-2.8,1.1-3.5,2.1c-7.2,9.1-17.3,8.3-27.3,8.2c-3.6,0-7.3-0.4-10.9-0.9C3120.7,1994,3116.3,1995.2,3114.4,2002.7z"/>
<path onclick="modals(this.id);" id="1378" class="st0" d="M2347.6,956.9c-6.5,4.1-12.7,8.1-20.2,12.8c-5.1-2.4-9.6-10.9-19.5-8.8
	c-1.6,10.6-8.9,17.7-17.5,24.6c-2.4-1.6-5-3-7.1-4.9c-5.7-5-11.8-8.5-19.8-7.2c-4.9,0.8-8.1-2.5-11.2-5.5c-5.4-5.2-11-8-18.8-5.3
	c-2.3,0.8-6-0.3-8.1-1.8c-7.3-5.2-14.1-11-20.8-16.4c2.3-13.3-6-21.8-13.9-28c-6.2-4.8-11.5-10.5-16.7-14.6
	c-0.4-6.2,1.3-13.2-1.5-16.8c-6.4-8.6-11.1-18.9-21.2-24.5c-8.5-4.7-12.5-16.5-9.5-25.6c2.9-8.6,1.5-11.8-5.4-17.9
	c-3.5-3.1-5.9-7.6-9.2-12.2c6.3-10,12.6-20,19-30.1c9.3-14.6,18.6-29.2,27.8-43.9c5.4-8.7,4.5-11.2-5.5-14.1
	c-12.1-3.5-24.2-6.7-36.8-10.2c1-7.1,1.7-13.6,2.9-20.1c1.4-8,0-15.2-5.3-21.5c-5.2-6.1-7.1-13-6.8-21.1c0.4-9.6-0.1-19.3-1.2-28.8
	c-0.7-5.3-3.5-10.4-5.7-16.5c7.4,0.5,12.5,1.9,15.4,9.1c2,5.1,6.1,9.3,9,14c3.1,5,6.3,10,8.9,15.3c1.7,3.4,3.1,6.9,7.4,7.3
	c16.8,1.6,29.5,11.4,41.6,21.6c11.3,9.5,23.2,17.6,36.7,23.6c17.9,8,35.4,16.9,53,25.6c2,1,3.8,2.7,5,4.5
	c9.1,13.1,21.4,22.3,35.1,30c2.6,1.5,5.3,2.9,7.6,4.8c10.4,8.6,23,11.9,35.8,13.9c5.6,0.9,11.9-0.9,17.4-2.7c13-4.3,25.3-3.8,37.4,3
	c4.8,2.7,10.3,4.4,15.8,5.6c9.2,2.1,11.8-0.2,11-9.5c-1.1-12.5-2.7-25-4.2-37.6c-2.4-20.1-4.9-40.2-7.4-60.3
	c-1.1-9.2-2.3-18.4-3.6-27.6c-0.6-4.4,0.5-7.4,4.5-10c17.5-11.6,34.7-23.5,52-35.3c25-17,50.2-33.9,75-51.1c2.7-1.9,5.1-5.3,6-8.5
	c7.7-26.8,15-53.8,22.3-80.7c2.5-9,1.9-9.9-5.9-14.3c-19.2-10.8-40-17.9-60.4-25.9c-1.8-0.7-3.7-1.5-6.8-2.7
	c4.2-2.3,7.7-1.8,10.9-1.7c24.2,0.6,48.4,1.4,72.6,2c16.6,0.4,33.2,0.3,49.8,0.7c21.3,0.5,42.5,1.3,63.8,2.1
	c24.8,0.9,49.7,2.2,74.5,2.8c31.6,0.7,63.1,0.6,94.7,1.2c25.9,0.4,51.7,1.2,77.5,2c18.9,0.6,37.9,1.5,56.8,2
	c28.2,0.8,56.4,1.2,84.5,2c19.9,0.5,39.9,1.3,59.8,2c22.6,0.8,45.1,1.8,67.7,2.5c20.6,0.6,41.1,1,61.7,1.5
	c24.6,0.7,49.2,1.5,73.8,2.1c27.5,0.7,55,1.2,82.6,1.9c24.3,0.6,48.5,1.3,72.8,2c21.9,0.6,43.8,1.3,65.7,2c23.6,0.7,47.2,1.3,70.8,2
	c22.6,0.7,45.1,1.2,67.7,2c17.6,0.6,35.2,1.7,52.8,2.3c16.2,0.6,32.4,0.8,48.9,1.3c0.4,1.7,1,2.9,0.9,4.1
	c-2.3,27.1-4.8,54.2-7.1,81.3c-1.7,20.2-3.6,40.4-4.7,60.6c-1.1,20.2-1.4,40.5-2.1,60.8c-0.7,19.9,0.2,40.1-2.5,59.7
	c-2.1,14.7,3.4,24.2,11.5,35c71.2,95.1,142.1,190.5,212.9,285.9c6.5,8.7,12.1,18.2,18.3,27.1c3.4,4.9,7.1,9.6,10.7,14.4
	c0.6-0.6,1.3-1.3,1.9-1.9c-0.4,0.5-0.7,1.1-1.2,1.4c-11.7,5.8-11.8,5.8-9.4,18.4c5.3,27.7,10.6,55.4,15.7,81.9
	c-4.9,6.7-9.3,12.5-13.3,18.4c-3.7,5.5-3.3,11.2-0.1,17c2.2,3.9,4.4,7.6,5,12.6c0.3,3.3,5.9,6.4,9.7,8.7c2,1.2,5.2,0.5,8.3,0.7
	c2.4,7.1,7.8,8.4,14.8,8.4c20.9,0.2,41.9,1.1,62.8,1.9c10.9,0.4,21.7,1.3,33.1,2c0.2,1.9,0.5,3.5,0.5,5.1
	c-0.7,32.6-1.5,65.2-2.2,97.8c-0.2,7.3-0.1,14.7-0.4,22c-0.9,16.9-2.4,33.8-2.8,50.7c-0.2,6.1,0.6,13,3.4,18.3
	c7.3,13.6,12.6,27.9,17.6,42.3c1.8,5.2,4.6,9.2,8.6,13.1c5.4,5.3,9.2,12.1,14.1,18c3.1,3.7,6.4,8.2,10.6,10
	c9.2,3.9,11.5,11,12.5,19.7c0.5,4.6,1.6,9.1,2.2,13.7c0.3,2.1,0.6,4.5,0,6.5c-2.8,10.2-0.8,14,9.2,16.8c1.6,0.4,3.2,0.8,4.7,1.3
	c0.6,0.2,0.9,0.9,2.3,2.3c-5.3,0-9.7,0.3-14-0.1c-2.6-0.2-5.1-1.5-7.7-2c-11.8-2.3-22.1-6.4-27.1-18.8c-0.8-2-3.7-4-5.8-4.3
	c-8.5-1.3-17.2-1.8-25.7-2.8c-5.2-0.6-10.8-0.6-15.6-2.5c-11.7-4.5-23.9-5.5-36-7.3c-15.1-2.2-28.7-6.7-39.7-18.4
	c-8.2-8.6-18.7-15-27-23.7c-11-11.5-24.3-18.4-38.8-23.3c-10.3-3.5-16.8-9.8-19.7-20.3c-2.2-8-5.5-15.6-8.4-23.8
	c-6.7-0.8-13.3-2.3-19.8-2.3c-7.8-0.1-13.4-2.5-16.9-9.8c-3.8-7.8-10.4-12.7-18.7-16.7c-1.6,1.8-3.6,3.5-5.1,5.5
	c-7.9,10.7-16.1,21.3-23.5,32.3c-4.2,6.3-8.1,13.1-10.6,20.2c-12.5,35.5-28.2,69.7-43.1,104.2c-6.9,15.9-13.3,31.9-20.1,47.8
	c-0.9,2.1-2.2,4.1-3.8,7c-9.8-6.2-19.2-12.1-29.5-18.6c-3,2.3-6.6,4.2-9,7.1c-8.5,10-19.7,12.6-32,12.6
	c-20.6,0.1-40.1-3.8-57.7-15.7c-10.7-7.3-22.6-12.9-32.8-20.8c-11-8.5-20.9-18.4-25.9-32.2c-1.2-3.3-3.7-6.2-5.6-9.3
	c-5.1-8.2-10.7-16.1-15-24.6c-2.7-5.2-5.6-9.7-10.3-13c-9.1-6.3-16.2-14-22.1-23.7c-9-14.7-21.3-27.1-35-39c-1.4,2.3-2.9,4-3.7,5.9
	c-2.7,6.4-5.3,12.9-7.8,19.4c-3.2,8.4-5.4,16.9-5.2,26.2c0.1,6.1-2,12.4-3.6,18.5c-3.6,13.8-6.8,27.8-13.8,40.5
	c-2.1,3.8-4.4,6-8.8,7c-7.8,1.7-15.3,3.3-23.5,1.5c-6.7-1.5-13.9-0.3-20.9-0.7c-7.3-0.4-14.5-1.3-21.8-2.1c-1.3-0.1-2.8-0.5-3.7-1.3
	c-8.3-7.3-18.3-5-27.5-4.4c-17.6,1.3-34.3-1.2-50.6-8c-13.1-5.4-26.4-10.3-39.5-15.8c-4.2-1.7-7.8-4.8-11.8-7
	c-5.5-3-10.8-5.8-17.7-5.8c-6.1,0-12.2-2.2-18.3-3.4c-1.6-0.3-3.1-1.3-4.7-1.1c-11.2,0.9-20.5-3-28.8-10.3c-2-1.8-5-3.2-7.7-3.7
	c-10.1-1.7-19.1-5.4-26.9-12.2c-2.7-2.3-6.3-3.7-9.6-5.1c-6.9-3-14.3-5.2-20.9-8.7c-21.2-11.2-44-19.1-63.8-33
	c-6.8-4.8-13.7-9.5-19.4-15.4c-14.8-15.1-30.8-28.5-50-37.7c-8.7-4.1-17.6-7.9-26.8-10.9c-10.1-3.3-18.5-9.1-26.3-15.8
	c-2.2-1.9-3.9-4.5-5.3-7.1c-4.6-8.9-11.9-13.6-21.7-15.6c-21.9-4.3-43.5-4.8-65.2,1.1c-2.5,0.7-5.2,0.8-7.8,1.2
	c-4.9,0.7-8.2-1.1-10.5-5.5c-6.6-12.3-14-24.2-20-36.8c-4.2-8.7-10-14.1-19.5-14.6c-6.1-0.3-9.4-3.4-12.4-8.2
	c-6.3-10-20.6-14.8-32-11.7c-5.4,1.5-11,2.4-16.6,3c-4.5,0.5-7.6,1.7-8.7,6.5c-0.4,1.9-1.2,3.8-2.2,5.6c-4.1,7.5-10,10.2-17.9,6.6
	c-14.2-6.5-27.8-3-41.6,1c-2.4,0.7-5,0.9-7.5,0.8c-3.3-0.2-6.5-1.2-9.8-1.5c-8.3-0.9-16.7-1.9-22.5,6.4c-0.7,1-2.2,1.5-3.1,2.5
	c-6.6,6.3-13.6,9.2-23.4,7c-10-2.2-20.5-2-30.7-3.1c-3.6-0.4-7.1-1.3-10.5-2c6.3-18.2,3.8-35.3-5.2-51.2
	c-5.4-9.5-12.3-18.2-18.4-27.4c-10.3-15.5-20.5-31.1-30.7-46.6c-0.7-1.1-1.4-2.3-2.3-3.3c-8-8.1-11.2-17.9-9.5-29.1
	c1.1-7-2.1-11.8-7.1-16.4c-8.3-7.6-18.1-12.6-28.2-16.6c-23.5-9.3-47.3-17.8-70.8-26.9c-8.1-3.1-16.1-3.9-24.2-1.4
	c-6.5,2-12.3,1.5-18.2-1.9c-2.9-1.6-6-2.8-9.2-3.8c-5.3-1.7-8.1-4.4-8.6-10.6c-0.8-9.2-6.7-15.6-14.3-20.4c-4.5-2.8-8.8-5.9-13.1-9
	c-9.4-6.6-12.5-16.8-15.2-27.2c-0.6-2.3,0-5.2,0.6-7.6c1.2-4.5,2.4-9.1,4.3-13.3C2359.8,973.7,2356.8,965.5,2347.6,956.9z
	 M2509,407.6c-18.8,0-37.6,0-57.9,0c6.1,6.5,11.2,10.2,19.6,7.6c4.5-1.4,9.6-0.9,14.4-0.7c8.6,0.4,16.9-0.1,24.4-4.6
	C2509.3,409.2,2509.1,408.4,2509,407.6z"/>
<path onclick="modals(this.id);" id="1376" class="st0" d="M3848.9,1635.3c-1.4,7.7-8,8.8-12.5,13.1c-2-2.3-3.4-3.9-4.7-5.3
	C3837.4,1640.5,3842.7,1638.1,3848.9,1635.3z"/>
</svg>
