<?xml version="1.0" encoding="utf-8"?>
<!-- Generator: Adobe Illustrator 19.0.0, SVG Export Plug-In . SVG Version: 6.00 Build 0)  -->
<svg version="1.1" id="Layer1" xmlns="http://www.w3.org/2000/svg" xmlns:xlink="http://www.w3.org/1999/xlink" x="0px" y="0px"
	 viewBox="0 0 10000 5000" style="enable-background:new 0 0 10000 5000;overflow: hidden; display: inline; width: inherit; min-width: inherit; max-width: inherit; height: inherit; min-height: inherit; max-height: inherit;" xml:space="preserve">
<style type="text/css">
	.st0{fill:#8FD4EB;stroke:#000000;stroke-width:2;}
</style>
<g>
	
	<path onclick="modals(this.id);" id="1422" class="st0" d="M4817.7,2600c-14.1-11.2-27.7-21.7-40.9-32.6c-2.3-1.9-3.7-5.4-4.8-8.5
		c-1.7-5-2.8-10.1-4.1-14.9c-7.6-2-15.2-2.5-21.1-5.9c-7.9-4.5-19-7.4-18.3-20.2c-8.4-9.9-13-21.5-16.6-33.8
		c-1.1-3.8-2.7-8-5.5-10.5c-8.1-7.5-10.3-16.7-9-27.8c-5.1-2.5-9.7-4.7-14.2-7c-0.4-1.2-1.2-2.4-1.2-3.7c-0.2-12.6-1.9-25,1.8-37.6
		c1.7-5.7-0.3-13.5-2.9-19.4c-4.7-10.7-1.6-19.2,4.4-27.8c2.6-3.7,4.9-7.6,7.9-12.4c-3.9-3.4-7.2-6.3-11-9.6
		c-0.3-4-0.6-8.6-0.9-12.5c-1.4-1.6-2.1-2.9-3.2-3.4c-7-3.1-13.1-6.6-13.5-15.5c-0.1-2.6-0.4-5.9-1.9-7.6
		c-9.9-10.5-7.6-23.5-7.7-35.9c-0.1-18,0-35.9,0-54.8c5.1-1.4,9.4-2.7,13.7-3.7c21.5-4.8,43-9.3,64.4-14.3
		c6.4-1.5,12.6-4.1,18.7-6.7c5.5-2.4,10.3-6.7,15.9-8.2c16.2-4.3,23.4-16.3,28.4-30.6c2-5.7,4.2-11.2,9.5-14.8
		c8.6-5.9,9.1-14.1,5.9-23.1c-0.9-2.5-1.4-5.3-2.9-7.4c-13.6-18-27.6-35.8-41.2-53.9c-7.9-10.4-20.9-14.2-29.4-23.6
		c-8.1-8.8-15.6-17.8-24.5-26c-14.2-13.1-28.8-25.1-44.9-35.7c-8.7-5.7-15.1-14.8-22.5-22.4c-1.4-1.4-2.4-3.6-4.1-4.3
		c-16.3-7-30.4-19.7-49.3-19.9c-6.9-0.1-12.1-2.7-14.3-8.8c-6.6-18.5-20.8-25.7-38.8-30c-17.4-4.2-34.2-10.8-51.5-16.5
		c1.1-6.6,6-7.7,9.9-9.1c12.5-4.5,25.1-8.8,37.8-12.8c9.8-3.1,17.9-8.4,25.1-15.8c4.2-4.4,5.6-9.2,3.5-14.5
		c-2.2-5.5-4.7-11.1-8.1-15.9c-7.2-10-8.4-20.6-5.3-32.2c2.5-9.6,4.5-19.4,6.1-29.3c0.6-3.7-0.7-7.8-1.2-12.4
		c-13.3-3.3-25.8-7-36.6-15.3c-3.8-2.9-10.2-3.7-15.2-3.2c-22.5,2.6-44.9,5.7-67.2,9.3c-3.5,0.6-7.4,3.4-9.7,6.3
		c-9.7,12.5-22.5,20.5-36.1,27.9c-4.6,2.5-8.7,5.9-12.8,8.8c-7.9-2.1-10.9-8.3-13.8-14c-5.1-10.2-12.5-16.9-24-19.2
		c-3.7-0.8-8.2-2.6-10.4-5.5c-9.7-12.4-21.6-23.5-24.1-40.3c-0.6-3.7-2-8-4.5-10.7c-5.5-5.9-7.4-12.3-6.5-20.1
		c1-8.2-0.8-15.6-6.1-22.5c-3.2-4.1-4.7-9.4-7.3-14.8c-15.9-6.1-28.2-18.1-40.8-29.7c-2.4-2.2-4.5-6.1-7.2-6.6
		c-12.7-2.3-21.8-11.9-33.6-15.8c-5.3-1.8-9.5-4.4-12.8-8.9c-3.2-4.3-6.9-8.1-10.5-12c-11.1-11.9-13.4-25.4-6.8-40.2
		c1.9-4.2,4.4-8.2,6.3-12.5c1.6-3.6,4.4-7.7,3.9-11.1c-2-13.1,2.7-26.2-0.8-39.2c-1.2-4.4-1.8-9.2-1.5-13.8
		c0.6-11.1-2.7-20.8-8.3-30.3c-2.5-4.4-3.9-9.8-4.5-14.9c-0.8-5.9-0.5-11.5-3.7-17.2c-1.9-3.4-0.9-8.9-0.2-13.3
		c2.8-16.3,0.3-31.7-6.6-46.5c-1-2.3-2.5-5.1-1.9-7.3c2.7-10.5,1.8-19-7.9-26.4c-3.3-2.5-4.9-10.4-3.7-14.8
		c3.9-15-2.5-24.2-14.5-30.4c1.4-8.6,2.7-16.2,4-23.8c12.7,1.6,25.6,3.2,40.4,5c3,5.3,6.8,11.5,10.1,17.8
		c14,26.5,27.8,53.1,41.8,79.6c5.3,10,8.6,11.2,19.1,6.1c6.2-3,14.6-3,17.3-11.9c0.5-1.8,4.1-2.9,6.5-3.9c4.7-1.9,7.8-5.2,9.2-9.9
		c3.5-12.1,7.4-24,4.6-37.2c-1.5-6.9-0.9-14.5-0.2-21.7c0.9-9.9,2.4-19.7-0.3-29.7c-1.8-6.9,2.7-11.6,9.7-11.3
		c9.9,0.5,19.9,1.1,29.8,2.4c7.5,1,14.6,0.5,21.6-2c6-2.2,11.7-1.6,17,2.3c6.2,4.6,13,6.5,20.4,3.6c0.9-1.3,2.3-2.4,2.3-3.4
		c0.7-21.3,2-42.6,1.5-63.9c-0.4-15.9-9.2-28.9-20.1-40.2c-3.7-3.8-8.2-6.9-11.6-10.9c-2.3-2.7-3.3-6.6-5.7-11.8
		c15.3-0.3,28.5-0.6,41.6-0.8c17.3-0.2,34.6-0.5,52-0.4c11.3,0.1,21-3.6,29.1-11.1c5.9-5.5,12.4-9.7,19.5-13.7
		c6.8-3.8,13.1-9.4,17.8-15.5c4.3-5.6,8.5-9,15.5-11c8.7-2.5,16.5-7.5,26.4-6.2c2.7,0.3,6.7-2,8.6-4.4c8.7-10.8,20-20.1,23.5-34.2
		c2.9-11.8,9.8-20,19.9-26.2c6.2-3.8,12-8.2,18.8-12.9c4.4,4.9,8.4,9.3,12.4,13.7c2.7,3,4.7,7.3,8,8.7c13.7,6,17.8,18.2,22,30.8
		c3.3,10.2,8.6,12.9,18.2,8c6.8-3.6,13.3-4.7,20.9-4.7c10.6,0,21.1-0.4,31.5-4.1c6.7-2.5,14.4-2.4,21.6-3.5
		c13.2-1.8,26.5-3.2,39.6-5.5c10.3-1.8,18.1-7.2,23.2-17c3.3-6.4,7.5-12.8,12.8-17.5c9.9-8.7,16.4-18.5,19.3-31.7
		c1.9-8.6,4.6-18.2,15.6-21.4c2.3-0.7,4.7-4.8,5.2-7.6c3.4-18,13.7-31.4,27.3-42.9c4.5-3.8,8.7-8.4,11.9-13.3
		c5.7-8.7,14-11.9,23.7-12.7c3.3-0.3,6.7-0.1,10,0.2c8,0.8,14.5-1.6,19.3-8.1c8.4-11.4,20.5-16.3,33.4-20.5
		c20.9-6.7,41.4-14.7,60.2-26.4c6.2-3.9,12.3-7.5,16.7-13.8c2.4-3.5,7-5.7,11-7.7c9.6-4.7,19.5-8.6,29-13.3
		c5.4-2.6,10.5-5.8,15.5-9.2c14.7-9.9,17.8-24.2,8.4-39.3c-3.5-5.6-8.3-10.5-7.3-17.9c13.6-7,13.5-7,23.2-20.2
		c5.9-8,11.6-16.4,18.5-23.5c5.9-6.1,9.7-11.9,9.4-20.8c-0.3-10.9,9.8-16.7,13.5-25c6,7.6,11.1,15.2,17.2,21.7
		c7.7,8.2,11,19.9,21.3,26c1.5,0.9,2.8,3.4,2.8,5.1c0.2,12.9,8.8,21.1,15.1,31.2c9.3,15,17.7,31.5,15.7,50.6
		c-0.4,3.9,0.6,7.9,1.4,11.8c2.2,10.6,8.3,18,18.6,21.6c9,3.2,17.9,5.3,26.4-1.8c1.7-1.4,5-2.4,7.1-1.8c12.3,3.6,23.5,1.5,34.5-4.8
		c6.9-3.9,10-2.5,15.1,4.3c2.8,3.7,5.1,7.9,8.1,11.4c5.1,6,11.6,6.9,17.5,1.4c8.8-8.2,17.9-16.3,25-25.8
		c16.2-21.8,37.9-37.3,59.2-53.1c17.4-13,40.9-12.2,59.6,0.5c5.5,3.7,11.1,5.5,16.8,4c10-2.7,18.4,0.7,26.7,5.1
		c20.3,10.7,42.3,15.2,64.6,19c8.5,1.4,17,1.8,23,9.8c2.4,3.3,7.8,4.8,12.1,6.1c5.1,1.5,11.1,0.8,15.6,3.1c10.3,5.3,18.7,2.4,28-2.7
		c22.3-12.3,43-26.5,60.8-45c17.5-18.3,35.8-35.9,53.5-53.9c11-11.1,11.1-12.8,2.8-25.4c-2.9-4.4-5.9-8.8-9.5-14
		c2.1-6.4,4.3-13.2,6.7-20.3c39.5,13.2,79.4,22.3,119.2,32.4c7.4,1.9,14.5,0.6,21.5-2.1c18-6.9,36-13.9,54.3-20.2
		c7.4-2.6,15.5-3.3,23.2-5.4c8-2.2,14.1,0.3,19.9,5.7c8.6,8.1,14.9,16.2,12.8,29.4c-1.6,10.1,0.9,19.9,11.5,25.6
		c2,1,3.1,4.1,4.1,6.4c2.2,5.5,4.1,11.1,6.5,17.6c6.6,0,13,0,20.5,0c7.8,12.8,19.3,23,25.3,37.3c2.6,6.2,5.6,12.1,11.7,15.7
		c5.8,3.5,12.7,1,14-5.6c2.2-11,3.8-22.2,6.1-35.6c4.4,3.9,7.6,6,9.7,8.8c2.4,3.1,4.1,6.9,5.5,10.6c8.1,20.7,22.1,37.7,34,56.1
		c7.3,11.2,14.1,22.5,17.4,35.7c1.3,5,4.1,9.8,7,14.3c3.3,5.1,9.3,7.4,13.7,5.7c5.7-2.2,8.3-7,8-12.6c-0.3-7.2-1.7-14.4-2.7-21.9
		c0.4-1,0.5-2.5,1.3-3.4c12.2-13.4,22.1-28.2,30.5-44.2c3.1-5.8,7.1-11.5,11.9-16c9.3-8.7,17.2-17.9,23.2-29.5
		c5.3-10.3,14.8-17.2,28-15.1c7.5,1.2,14.4-0.8,21.3-3.8c7.9-3.5,16-6.5,25.8-10.5c10.9,4.4,23.1,9.3,35.7,14.4
		c4.4,22.2,8.7,43.7,12.9,65.3c18.2,94.9,36.3,189.7,54.4,284.6c22.2,116.5,44.3,233,66.4,349.4c12.4,65.4,24.2,131,37.6,196.2
		c4.6,22.4-4.4,37.9-20.2,50.2c-13.3,10.4-29.8,9.6-43.4,1c-13.2-8.3-28.2-11.8-41.3-19.8c-9.1-5.6-18.1-0.9-27.6,1.2
		c-6.2-3.2-12.5-6.7-19-9.8c-19.9-9.3-39.8-9.9-59.4,0.9c-15.2,8.4-30.9,11.4-48.1,7.9c-5.6-1.2-11.8-0.2-17.7,0.2
		c-10.1,0.8-19.3-0.4-29-4.6c-14.6-6.2-28.7-13.7-44.7-16.7c-8.1-1.5-15.8-6.7-23.1-11.2c-14.1-8.7-16.9-8.7-29.5,2.5
		c-2.4,2.2-4.9,4.4-7.9,7.2c-5.1-1.8-10.4-2.8-14.8-5.4c-10.9-6.3-22-12.5-31.8-20.2c-7-5.5-14-7.3-22.2-6.4
		c-5.7,0.6-9.8-1.1-14.3-5c-8.2-7.1-15.5-6.3-22.6,1c-1.8,1.9-3.3,4.2-5.1,6.1c-1.8,1.9-3.8,3.6-6.4,6.1c-4.6-4-8.6-8.4-13.4-11.5
		c-8-5.1-15.8-13.5-26.6-5.4c-7.9-0.6-15.8-2.3-23.1,2.8c-1,0.7-3.7-0.6-5.3-1.5c-5.1-2.8-9.9-2.8-15.1,0c-9.3,4.9-20.2,4.6-29.8,10
		c-7.3,4.1-17,1.7-24.7-3.4c-6.1-4.1-12.5-4-19.2-2.2c-6.8,1.8-12.3,4.8-13.8,12.6c-0.6,3.2-1.9,6.4-3.2,9.5
		c-3,7.5-8.1,12.1-16.8,11.2c-0.7-0.1-1.3,0-2,0c-24.7,1.8-28.3,3.4-45,21c-14.8,15.6-15.6,35.8-1.6,52.3
		c8.2,9.6,16.9,18.8,25.3,28.3c1.7,1.9,3,4.2,4.9,6.9c-3.3,2.9-7,4.9-9,7.9c-4.5,6.8-10.6,9.9-18.5,9.9c-12.4,0-21.2,5.5-27.7,16.2
		c-5.2,8.5-11.6,16.1-20.3,21.7c-9,5.7-13.3,14.5-15,24.9c-1.2,7.2-3.4,14.3-4.1,21.5c-0.4,4.4-0.1,10,2.3,13.2
		c4.2,5.5,4.9,10.6,3.2,16.7c-1.8,6.7-5.4,12.2-11.5,15.7c-5.2,3-10.6,5.6-16,8.2c-21.6,10.2-40.9,24.9-63.6,32.9
		c-3.7,1.3-7.4,2.8-11.4,4.4c-3.7-2-7.8-3.2-10.5-5.9c-10-9.7-22.1-11.4-35.1-10.2c-2,0.2-4,0.4-6.8,0.7
		c-4.7,7.4-9.7,15.2-14.5,23.1c-3.5,5.8-5.6,12.2-4.5,19.1c2.4,14.4,5.2,28.7,8.2,44.8c-1.8,1.1-5.2,4.9-8,4.5
		c-17.3-2.4-31,5.9-44.8,14c-20.8,12.2-38.9,27.7-56,44.5c-6.4,6.3-8.9,12.8-6,21.5c1.4,4.3,1.9,8.9,3.1,14.5
		c-4.1,0.6-7.2,1-10.4,1.4c-9.9,1.5-19.5,3.3-27.9,9.8c-5.2,4-11.7,6.2-17.7,9.2c-10.1,5.2-14.3,14.7-9.6,24.6
		c2.5,5.3,6.3,10.3,10.5,14.4c12.9,12.2,20.7,27.6,28.8,42.9c3.4,6.3,4,12.6,1.1,19.2c-5.6,12.8-11.3,25.5-16.9,38.3
		c-1.8,4.2-4.4,8.4-5,12.8c-1.5,11.6,4.4,19.5,15.8,24.4c13.9,6,27.5,12.8,42.2,19.8c-2,10.1-3.7,19.1-5.6,28.1
		c-0.8,3.9-2.3,7.7-2.9,11.6c-1.2,8,1,14.9,9.1,17.9c8.6,3.2,14.5,8.5,18.1,17.1c1.4,3.4,4.9,6.7,8.3,8.2c4.9,2.2,7.6,4.7,7.6,10.2
		c0,5.8,3.7,9.8,7.7,13.4c5.9,5.3,11.6,10.8,18,16.8c-1.3,3.3-2.5,6.2-3.7,9.1c-3.1,7.3-2.9,14.2,1.8,20.8c5,7,9.9,14.2,15.2,21
		c4.5,5.8,9.5,11.2,14.3,16.7c4,4.7,7.2,9.8,6.6,16.2c-0.7,8,3.2,13.7,8,19.6c7.6,9.2,14.2,19.1,22.2,30.2
		c22.9,11,50.2,13.6,78.1,20.8c-3,3.7-4.6,6.7-7.1,8.4c-21.4,14.6-35.8,35.4-50.2,56.2c-1.1,1.6-2.6,3.1-4.7,5.6
		c-6.2,1.3-13.3,3-20.5,4.1c-16.4,2.6-33.1,3.9-45.6,17.4c-2.9,3.1-8.3,3.9-12.6,5.5c-21,8-33.4,23.6-39.1,44.7
		c-3.3,12.2-5.7,24.6-8.2,37c-1.8,8.7-5.9,15.7-11,23c-9,12.8-19.9,23.1-32.2,32.3c-3.2,2.4-6.1,5.3-8.4,8.4
		c-1.3,1.8-2.3,5.2-1.5,6.9c0.9,1.8,4.3,3.8,6.4,3.5c14.5-1.9,28.9-4.2,43.2-6.6c7.1-1.2,13.7-5.6,22.8-2.7
		c0.7,11.3,1.4,23,2.1,34.7c10.5,5.1,20.6,2.4,30.4,3.1c10,0.7,19.9,1.2,30.5,1.8c3.3,5.1,6.5,10.1,9.6,15.2
		c5.2,8.6,9.9,17.4,15.4,25.7c9.9,15.1,18.6,30.7,24.4,47.9c1.5,4.4,3.4,8.7,5.4,12.9c2.6,5.5,5.7,10.5,12.5,11.8
		c7.7,1.4,11.1,6.7,11.5,14.2c0.1,1.3,0,2.7,0.4,4c2.1,8.8,10.9,12.9,18.4,8.3c4-2.4,7.3-5.7,11.1-8.5c5.8-4.4,11.6-9.1,19.6-8.7
		c6.9,2.5,9.1,9.4,13,14.6c4.1,5.5,8.2,10,15.6,11.2c4.4,0.7,8.5,3.7,12.4,6.1c4.2,2.5,7,5.9,6.3,11.4c-0.3,2.5,0.1,5.4,1.1,7.8
		c6.2,15.4,12.8,30.6,19,46c4.5,11.1,12.6,19.8,22.8,24.3c14.8,6.5,24.4,18.3,34.8,29.4c10.9,11.7,21.2,23.9,27.3,39.2
		c-6.2,13.6-11.1,27.2-10.3,42.3c0.2,3.5-1.6,8.1-4.1,10.6c-16.6,16.6-24.7,37.7-32.4,59c-1.6,4.4-3.6,8.6-5.8,13.8
		c-84.8,12-169.8,24-255.8,36.1c-10.2-10-20.8-20-30.9-30.4c-2.1-2.2-2.6-6-4.1-8.9c-4.4-8.9-8.6-18-13.3-26.7
		c-6.4-12-15.4-21.4-28.4-26.9c-5.4-2.3-9.9-6.9-15.2-9.5c-8.9-4.3-15.1-10.6-18.4-19.9c-3.7-10.5-11.9-17.6-19.3-25.2
		c-8.1-8.2-15.4-16.5-17.3-28.4c-0.4-2.5-2.1-4.9-3.1-7.4c-6.9-18.7-13.9-37.4-20.7-56.2c-1.8-4.9-3.2-10-4.8-14.8
		c-11.2-3.7-20.8-0.9-29.7,3.8c-7.6,4-14.5,9.5-21.9,13.9c-12.6,7.4-25.4,14.4-38.1,21.6c-1.7,1-4,1.3-5.4,2.5
		c-17.1,14.7-39.1,19.7-58.4,29.9c-10.6,5.6-21.4,10.7-31.5,15.7c-4.9,8.3-3.6,15.1,2.6,20.6c5.9,5.2,9,11.2,9.4,19
		c0.1,2.6,1,5.5,2.5,7.5c7.7,10.7,9.8,23.1,12.3,35.5c1.9,9.6,10.1,12.3,18,6.5c3.7-2.7,7.4-5.8,10.4-9.3
		c6.9-7.9,15.2-10.3,23.2-7.7c10.7,8.7,19.8,16.4,29.3,23.6c10.1,7.8,16.8,17.9,17.1,30.3c0.5,15.8,5.6,29.9,11.6,44.1
		c4.4,10.4,8.5,21,12.5,31.6c1.3,3.6,1.8,7.5,3,12.4c-15.9,3.2-30.8,6.3-45.8,9.3c-9.8,1.9-19.7,3.5-29.4,5.6
		c-13.5,3-24.1,9.8-32.1,21.7c-7.8,11.5-17.5,21.7-25.8,31.8c-6.6,0.9-9.1-3.7-12.6-6.3c-18.6-13.8-31.7-31.8-41-52.8
		c-9.8-22.2-24.9-41-40.7-59c-23-26.3-40.4-56.2-57.5-88.2c6.6-13.6,13.7-27.8,20.5-42.1c7-14.6,7.1-16.6,3.2-34.3
		c-1.1-0.7-2.5-2.2-3.3-1.9c-8.8,3.3-16.6,1.5-24.5-3.5c-9.6-6.1-20-10.3-31.5-12.2c-6.5-1.1-12.7-3.8-18.8-6.4
		c-2.9-1.2-5.7-3.4-7.6-5.9c-10.7-14.1-24.5-22.1-42.4-21.6c-10.6,0.3-19.7-2.8-27.9-9c-17.9-13.7-39.7-21.3-56.6-36.6
		c-1.7-1.6-4.8-2.1-7.4-2.3c-4.6-0.4-9.2-0.1-14.5-0.1c-1.3-1.7-2.8-3.2-3.6-5c-4-8.9-10.7-13.1-20.5-12.6c-2,0.1-4.5,0.7-5.9-0.2
		c-8.4-5.9-16.6-2.5-25.7,0.7c-6.8-10.3-16.3-17.1-28.7-20.1c-1.4-15.7-5.5-30.1-11.1-44.5c-5.4-14.1-6.9-29.7-9.8-44.7
		c-2-10.4-3.6-20.9-5.5-31.4c-0.6-3.3-1.6-6.5-2.2-9.7c-3.4-16.9-2.5-32.4,8.4-47.3c8.9-12.3,15.1-26.6,22.4-40
		c5.8-10.8,8.7-22.3,7.4-34.7c-0.9-9.3-1.5-18.6-2.9-27.8c-1.8-11.8-4.6-23.5-6.1-35.3C4815.9,2611.2,4817.3,2605.3,4817.7,2600z"/>
	<path onclick="modals(this.id);" id="1421" class="st0" d="M6990.3,3285.2c-6.5-0.8-10.4-0.9-14.2-1.7c-148.5-31.7-297.1-62.8-445.5-95.4
		c-43.8-9.6-87.8-15.4-132.3-19.5c-45.1-4.2-90.1-9.4-135.2-13.9c-23.2-2.3-46.5-3.8-69.7-5.9c-11-1-20.9,1.1-30.2,7.4
		c-33.4,22.8-70.3,37.4-109.3,47.5c-25.1,6.5-49.8,14.9-74.8,21.9c-11.3,3.1-21.2,7.6-27.7,17.9c-1.6,2.6-4.8,4.3-7.6,6.8
		c-23.3-17.5-46.1-34.6-69.9-52.5c6.7-20.6,13.6-41.8,30.1-58.6c7.2-7.3,11.7-15.5,9.5-26.9c-1.9-9.4,2-18.6,7-26.5
		c5.4-8.5,3.8-15.8-0.8-24.2c-11.8-21.3-28.6-38.4-45.6-55.3c-2.3-2.3-5.3-4.2-8.3-5.4c-20.5-8.3-30.5-24.7-36-44.9
		c-1-3.8-1.8-8-3.9-11.2c-6.1-9.2-8-19.5-8.3-29.4c-5.8-7.2-12.1-12.4-20.1-13.9c-7.4-1.4-11.9-5.4-15.7-11.1
		c-1.1-1.7-2.3-3.3-3.4-5c-8.2-13.3-13.3-18.1-33.3-8.4c-7.1,3.4-13.5,8.2-21.2,12.9c-2-5.6-3.4-10.6-5.5-15.2
		c-2.2-4.9-5.3-9.5-11.5-9.9c-5.5-0.3-8.3-3.7-10.3-8.2c-2.2-4.9-4.8-9.6-6.4-14.6c-5.3-16.7-14.2-31.5-23.4-46.2
		c-7.5-11.8-14.4-24-21.4-36.1c-3.7-6.3-8.3-9.1-16.2-8.9c-15.2,0.4-30.4-0.8-45.6-1.3c-6.5-12.4-3.1-25.6-5.4-37.9
		c-19-7.2-35.1,6.8-53.9,6.2c1.3-3.1,1.6-5.5,2.8-6.3c11.6-7.5,16.7-20.5,25.9-30.1c2.6-2.7,3.6-7.1,4.5-10.9
		c2.9-11.6,5.6-23.3,7.9-35.1c4.8-25.5,17.5-44.1,43.3-52.4c4.9-1.6,9.6-4.7,13.5-8c6.3-5.4,13.4-8.6,21.5-9.8
		c9.2-1.4,18.4-3,27.6-4.4c8.3-1.2,14.9-4.4,19.5-12.1c4.5-7.4,10.4-13.8,15.5-20.9c8.2-11.5,17.7-21.7,29.4-29.6
		c6.9-4.6,11.3-11.3,15.7-17.8c3.6-5.3,1.4-10.4-5.2-12c-10.3-2.5-20.7-5.5-31.2-6.2c-17.1-1.1-31.9-9.1-46.1-12.6
		c-9.1-12-16.9-22.6-25.1-32.9c-3.5-4.4-6.1-8.8-5.5-14.5c0.9-8.8-3.9-15-8.9-21.4c-9.4-12-21.8-21.7-27.4-36.6
		c1.9-8.1,3.7-16.3,5.5-24.3c-5.9-6.3-10.1-12.7-16-16.5c-9.3-6.1-13.4-14.3-13.7-25c-7.8-4.4-15.7-8-18.8-17.2
		c-1.1-3.3-5-5.9-8.2-8.1c-3.7-2.6-8-4.4-12.7-6.9c0.4-5.1,0.4-9.7,1.3-14.1c1.5-7.2,3.7-14.2,5.3-21.3c3.4-15,1.8-17.8-12.7-24.4
		c-12.1-5.5-24.3-10.7-36.1-16.7c-3.7-1.9-6.3-6.2-8.7-8.7c6.7-14.8,13-28,18.7-41.4c7.7-17.8,6.7-34.9-4.2-51.4
		c-8.1-12.2-14.5-25.5-26.1-35.1c-4-3.3-7.6-7.6-7-14.7c2.1-1.5,4.5-3.7,7.3-5.2c5.3-2.8,11.4-4.5,16-8.1c8.4-6.6,17.4-8.7,27.9-8.7
		c11.3,0,14-3.4,13.7-14.7c-0.1-6.6-1.3-13.1-2.1-21.1c15.7-12.8,27.5-31.3,48-40c5.4-2.3,9.9-6.7,14.9-10
		c10.7-7.1,21.7-11.6,35.5-10.1c14.7,1.6,23.4-13.7,16-27.3c-6.4-11.7-4.5-24.7-7.3-36.9c-0.6-2.6,1.8-6.3,3.5-9.1
		c3.7-6.3,7.9-12.3,11.4-17.7c9.3-3.1,16.6-1.9,23.4,3.9c3,2.6,6.5,4.8,10,6.6c7.4,3.9,15.2,5.1,23.1,1.4
		c16.2-7.6,33.2-13.6,48.3-23.7c10.4-7,22.2-11.8,33.4-17.6c15.2-7.8,23.9-22.6,21.8-39c-0.7-5.6-4.3-10.9-6.6-16.3
		c1.1-6.4,2.3-12.9,3.3-19.4c1.2-7.5,3.9-14.6,10.4-18.7c11-7,18.9-16.8,25.8-27.4c4.9-7.4,10.8-11,19.7-11.1
		c8-0.1,15.7-2.4,22.1-7.9c2.2-1.9,5.8-2.5,8.9-3.1c13.5-2.6,16.3-9.6,7.3-20.4c-9.8-11.8-20-23.2-30.1-34.7
		c-2.2-2.5-4.9-4.6-6.9-7.2c-8.3-10.8-8.5-20.6,0.6-30.7c6.2-6.9,13.5-12.9,20.8-18.6c2.9-2.3,7.3-3.2,11.1-3.7
		c5.3-0.7,10.7-1,16-0.6c9.6,0.8,15-4.3,18.6-12.1c1.9-4.2,2.8-8.9,4.5-13.2c2.5-6.3,7.9-8.6,14.6-6.4c5.7,1.8,11.1,5.1,16.9,5.6
		c7.8,0.7,16,0.6,23.6-1.3c6.1-1.5,11.2-7.1,18.2-2c1.1,0.8,4.7,0.2,5.5-0.9c5.3-7.1,12.1-1.8,17.8-2.9c12-2.4,24.9,3.7,35-4.5
		c7.8,2.1,12.4,6.3,16.8,11.8c7.1,9,15.1,8.9,23.7,0.9c3.8-3.6,7.2-7.6,11.4-12c4.1,3,7.3,6.5,11.2,7.9c3.5,1.3,7.9,0.7,11.8,0.2
		c7-0.9,12.5,1.4,18.5,5.3c9.4,6.1,19.8,10.6,28.7,17.9c4.4,3.6,10.7,5.3,16.4,7c8.9,2.6,17.1,1.3,23.4-6.6c2-2.5,4.7-4.5,7.7-7.3
		c13.4,9.8,27.9,15.3,43.6,19c10.9,2.5,21.3,7.7,31.3,12.9c7.5,3.9,15,4.6,23.1,4.8c13.2,0.3,26.3-0.2,39.6,2.7
		c12.8,2.8,26.3-1.8,38.6-7.1c6.7-2.9,13.4-5.8,20-9c7.1-3.4,14.1-3.6,21.2-0.2c8.4,4,17,7.5,24.9,12.3c6.2,3.8,12.1,5.7,18.8,2.8
		c8-3.5,15.3-2.6,22.8,1.8c10.8,6.4,22.9,9.9,33.9,16.5c15.8,9.4,51.9,11,66.4-9c1.5-2.1,3.8-3.6,6.2-5.8c1.4,1.9,3.4,3.2,3.5,4.7
		c1.7,42.1,10.3,83.1,17.8,124.4c9.3,51.9,21.6,103,37.1,153.3c12.2,39.5,20,80.1,28.6,120.5c12.8,59.9,25.7,119.8,37.6,179.9
		c7.2,36.6,12.8,73.5,18.9,110.3c7.2,43.4,14,86.8,21.5,130.1c1.3,7.7,4.3,15.5,8.1,22.4c9.7,17.7,15.5,36.5,19.7,56.2
		c29.5,140.1,60.1,280,89.2,420.2c15.2,73,28,146.5,42,219.8c11.3,58.9,22.7,117.7,33.9,176.6
		C6989.2,3273.5,6989.4,3278,6990.3,3285.2z"/>
	<path onclick="modals(this.id);" id="1423" class="st0" d="M4573.2,2618.5c5.9,0,7.8-0.3,9.7,0.1c4.1,0.8,8.2,1.1,10.7-2.9c2.6-4,1.8-11.7-2-14.9
		c-4.5-3.8-9.7-6.8-14.5-10.1c0.2-0.8,0.1-1.6,0.5-2.1c7.3-7.8,14.2-15.5,11.8-27.8c-1-4.8,5.8-7.2,10.3-4.3
		c6.9,4.5,9.5,11.9,9.5,18.9c0,16.3,9.8,25.2,21.7,33.3c7.7,5.2,15.2,10.9,22,17.1c8,7.2,15.9,14.2,26.2,17.9
		c8.6,3.1,14.3,9.1,18,17.6c7.2,16.7,20.6,25.3,38.2,28.1c4.5,0.7,8.9,2.7,13.4,3.8c5.1,1.2,10.3,2.8,15.5,3
		c11.2,0.5,20.8,3.5,27.7,13c2.3,3.1,5.8,5.4,9.2,8.5c-0.5,8.6-5.6,15.6-10,22.9c-18,29.2-18,29.2-13.3,63.5c0.9,6.6,2.8,13,4,19.5
		c1.5,8.5,2.5,17.1,4.1,25.5c3,15.7,4.7,31.9,10.1,46.7c5.3,14.5,9.8,28.8,10.2,44.1c11.3,4.8,22.4,8,28.2,19
		c0.9,1.7,4.6,2.8,7.1,2.8c12.5,0.3,25,0.1,38.4,0.1c2.1,2.9,4.5,5.9,6.7,9.1c4.4,6.5,10.1,10.5,18.4,9.5c6.4-0.7,10.4,2.9,15.7,6.3
		c18.4,11.7,37.9,21.6,56.1,33.8c8.2,5.6,17.3,9.2,28.2,7.4c13-2.2,22.1,7.2,31.9,13.8c5.2,13.2,18.3,15.3,29.2,18
		c11.8,3,22.6,7.4,33.5,12.5c8.3,3.9,16.9,7.1,26.7,11.2c-0.8,2.8-1.3,6.6-2.9,9.9c-6.2,13.3-12.3,26.6-19.2,39.5
		c-4.9,9.1-4.7,16.6,0.6,26c17.2,30.2,34.6,60.1,57.9,86c17.9,20,32.1,42.5,43.6,66.6c6.1,12.7,13.1,24.4,25.2,32.6
		c6,4,11,9.6,16.1,14.9c9.3,9.7,13,20.4,8.9,34.4c-11.8,39.9-30.6,76.6-50.5,112.8c-3.7,6.6-8.5,12-14.9,15.8
		c-9.2,5.4-18.4,10.7-27.9,15.4c-11.4,5.5-23,10.4-34.6,15.4c-22,9.6-43.8,19.4-66,28.5c-16.9,6.9-33.2,14.2-42.8,31.4
		c-6.1-2.1-11.1-3.6-16-5.4c-6.9-2.6-13.6-5.5-20.4-8.1c-21.4-8.1-24.4,3.4-21.6,19c1.4,8.1,6.8,15.6,10.9,24.7
		c-6.3,7.7-15.6,12.4-26.1,14.3c-7.6,1.4-13.2,5.6-19.3,9.7c-16.3,10.7-26.1,26.1-34.4,43c-8.5,17.4-17.5,34.2-31.9,48
		c-5.8,5.6-8.7,14.7-11.8,22.7c-3.7,9.6-1.4,14.1,8.3,19.2c2.2,1.1,4.7,1.7,8.3,3c-22.3,20.4-28.2,47.5-34,74.1
		c-4.7,21.8-12.3,42.2-22.3,61.8c-8.8,17.2-17.8,34.2-22.3,53.2c-1.7,7.1-4.7,13.9-7.6,20.6c-2.9,6.8-6.4,13-15.5,13.5
		c-2.7,0.1-6.3,2.9-7.8,5.5c-4.3,7.4-9.1,15-11.3,23.2c-4.3,15.5-10.4,30.1-17.6,44.4c-3,5.9-6,12-10.3,16.9
		c-10.8,12.2-14.6,26.6-15.4,42.2c-1.1,22.9,2.2,45.2,10.3,66.6c5.8,15.3,8,30.8,6,47.1c-1.1,8.8-4.4,16.2-10.3,23.2
		c-52,60.7-105.1,120.6-160.5,178.2c-2.8,2.9-5.6,5.7-8.5,8.5c-15.4,15.3-24,16.6-46.2,7c-9.7-22.9-9.7-22.9-32.9-36
		c-4.2-17.8-2.7-37.6-10.2-55.4c-10-5.5-18.5-3.7-25.2,4.6c-5,6.2-9.6,12.8-13.6,19.7c-3.4,5.9-7.8,8.9-14.6,8.3
		c-7.2-0.7-14.5-1.4-22.5-2.1c-7.3-13.7-15.2-27-33.2-27.7c-11.3-24.4-29.5-38.1-56.4-38.1c-6.5-7.8-9.5-16.6-11.9-25.5
		c-3.8-13.8-8.9-26.4-22.2-34.1c-5.3-3.1-7.1-8.8-9.6-14.4c-7.2-16.3-15-32.7-29.7-43.9c-14-10.7-24.2-24.5-33.8-38.7
		c-9.1-13.4-19.6-25.3-32.7-34.6c-6.2-4.4-11.3-9.3-13.8-16.5c-4.6-13.2-12.4-23.4-25.6-29c-7.8-3.3-12.6-9.5-16.5-16.7
		c-7.8-14.4-18.8-24-36.1-24.7c-3.2-0.1-6.8-0.9-9.6-2.4c-9.5-5.4-19.7-7.8-30.3-9.5c-1.8-0.3-3.5-1.8-6.2-3.3
		c-0.2-4.1-0.8-8.6-0.6-13.1c0.9-24.3-1.3-47.8-12.9-69.9c-4-7.6-6.8-16-9.3-24.2c-2.2-7.4-7-11-14.2-12.1c-1.3-0.2-2.6-0.6-3.9-0.7
		c-20-1.2-34.5-12.3-47.5-26.2c-7.3-7.8-14.9-15.3-22.8-22.5c-8.5-7.7-16.5-14.9-17.5-27.8c-0.4-5.4-5.2-10.6-7.9-15.8
		c11.9-38.6,30.5-73.6,53.5-106.5c0.8-1.1,2-2,2.3-3.2c1.6-7,1.7-14.8,4.9-21c3.1-6.2,10.3-10.3,13.8-16.4
		c2.4-4.2,2.2-10.3,2.3-15.5c0.3-11.3,0-22.6,0.2-34c0-3.2,0.6-6.4,0.9-9.2c7.5-3.2,12.5,1.1,17.4,4c12,7.1,23.3,15.5,37.6,18.1
		c2.9,0.5,6,3.1,7.9,5.6c8,10.7,19.4,15.9,31.3,20.6c1.2,0.5,2.5,0.9,3.7,1.5c17,9.2,34.2,9,52.1,2.6c5.4-1.9,11.7-2,17.5-2.3
		c8.6-0.4,17.4,0.4,26-0.2c10.9-0.7,15.3-7.6,11.6-17.9c-1.5-4.2-4.7-7.8-7.4-11.5c-1.5-2.1-3.4-4-5.7-6.6
		c2.7-8.6,0.5-16.1-4.2-24.2c-7.1-12.2-10.9-26-8.6-40.3c2-12.3-1.9-22.1-8.9-31.6c-11.1-15-21.9-30.2-36.2-42.4
		c-2.8-2.4-6.1-6.5-5.9-9.6c0.7-8.7-4.7-13.3-10.8-18.8c2.4-5.7,4.8-11,7-16.4c3.8-9.2,8.1-18.2,11.2-27.6
		c4-11.9,6.9-24.1,10.5-36.1c2.8-9.2,12.7-14,22.2-11.3c1.3,0.4,2.4,1.2,3.7,1.6c18.2,5.4,28.8-4.4,24.6-22.8
		c-0.6-2.6-1.5-5.1-2.7-7.5c-5.5-10.7-5-21.7-3.2-31.7c1.2-1.7,1.5-2.6,2-2.8c8.7-3.8,18-7.9,19.6-18.2c1.8-12,0.1-24.5-8.1-34
		c-7.3-8.3-12.1-17.5-16.1-27.3c-6.7-16.3-15.7-30.8-30.6-41c-7.8-5.4-11-13.6-10.8-22.5c0.5-21-8-40.4-9.9-61
		c-0.8-9.1-6.8-15.1-14.6-20.2c-43.7-28.1-87.1-56.7-130.7-85.1c-17.8-11.6-35.6-23.3-54-35.3c2.8-21.8,9.9-41.9,14.9-62.5
		c1.4-5.8,3.1-11.6,5.9-16.8c7.8-14.7,16.4-28.7,27.3-41.5c17.8-20.7,34.4-42.5,51.9-63.4c11.3-13.5,19.1-28.8,25.2-45.1
		c7.2-19.4,21.1-30.7,41.4-35.9c13.2-3.4,26.4-4.8,39.5-3.4c27.2,3,51-6.5,74.4-18.1c4.8-2.4,9.3-5.3,14.3-7.2
		c10.9-4.4,19-11.7,25.6-21.4c6.4-9.3,14-17.8,21.2-26.5c1.7-2.1,3.3-4.5,5.6-5.7c10.4-5.2,17.9-13.5,26-21.4
		c10.9-10.6,22.2-20.9,34.2-32.2c7.9,5.7,16.1,12.4,24.9,18c22.5,14.3,45.3,28.1,68,42.1c50.5,31,101.1,62.1,151.7,92.9
		c6.5,3.9,11.5,8.9,15.1,15.5c1.9,3.5,3.8,7.3,6.6,9.9c2.1,2,6,3.5,8.6,3c2.7-0.6,6.2-3.6,6.9-6.2c2.1-8.4,3.8-17,4.1-25.6
		c0.6-15.4,6.5-28.4,15.8-40.2c2.5-3.1,5.5-6.1,7-9.6c1.8-4.1,3.2-8.8,3.1-13.1c-0.3-7.9-1.4-15.9-2.9-23.8
		c-1.5-7.8-3.6-15.1-10.6-20.7C4584.5,2634.4,4580.3,2627.2,4573.2,2618.5z"/>
	<path onclick="modals(this.id);" id="1418" class="st0" d="M4612.7,2550.5c-7.2-4.2-13.3-8.3-19.9-11.3c-4-1.8-8.9-2.8-13.3-2.5c-10.2,0.7-13,6.5-8.6,16.1
		c2.5,5.3,4.5,10.8,7.2,17.4c-4.9,4.5-9.6,9-14.5,13.3c-5.7,5.1-4.8,10.4-0.6,15.3c-2.5,3.2-6.7,6.1-6.9,9.3
		c-0.4,4.2,1.5,9.2,3.9,12.8c5.2,7.7,10.5,15.9,17.5,21.6c11.6,9.4,14.8,21.5,15.5,35.1c0.1,2.6,0.3,5.3,0.5,8.4
		c-4.4,6.3-9.2,12.7-13.5,19.4c-5.8,9-10.3,18.5-10.6,29.7c-0.2,7.7-1.6,15.4-5.7,24.7c-11.5-16.9-28.1-24.1-43.2-33.3
		c-51.6-31.8-103.5-63.2-155.2-94.8c-23.3-14.2-46.7-28.4-67.6-46.1c-2.5-2.1-5.3-4-8.2-5.7c-3.9-2.3-9.3-1-9.9,3.1
		c-2.3,15.5-14.5,22.9-24.3,32.7c-16.4,16.4-37.3,28-50.5,47.7c-0.4,0.5-1,0.9-1.3,1.5c-12.1,24-35.5,32.8-57.9,43
		c-3.6,1.7-7.6,2.6-11.1,4.5c-10.9,5.9-22.4,7.8-34.7,7.4c-12-0.4-24-0.2-35.9,0.9c-10.5,1-21.8,1.5-31.1,5.9
		c-13.1,6.2-25.5,15.5-30.4,30.1c-7.6,22.5-19.8,41.9-35.1,59.9c-18.1,21.3-35.4,43.3-53,65.1c-1.7,2.1-3,4.4-4.7,6.9
		c-8.5-3.9-11.4-9.3-11.9-16.2c-0.6-7.3-1-14.6-1.1-21.9c-0.1-7.5-2.3-14.3-5.1-20.4c-8.6-5.3-17.1-5.5-25.8-3.6
		c-17.4,3.8-31.7,12.1-43.7,25.9c-11.7,13.5-25.1,25.6-38.8,37.1c-7,5.9-13.2,11.5-13,21.1c0.5,16.7-9.3,25.1-23.5,30.3
		c-0.6,0.2-1.3-0.1-2-0.2c-6.6-6.4-7.9-15.1-9.1-23.5c-1.5-10.6-6.7-18.9-15-25c-8.5-6.3-17.1-13-26.6-17.3
		c-10.1-4.5-17.1-11.4-19.3-21.3c-3-14-9.4-26.2-16.4-37.5c3.4-11.8,6.4-22.6,9.7-33.4c2.5-8.2,1.9-15.9-3.8-22.6
		c-5.1-5.9-6.2-12.8-6.9-20.4c-2.2-26.5-5.5-52.9-14.1-78.3c-4.2-12.6-11.2-15.6-22.5-8.6c-7.8,4.8-14.9,10.7-22,15.8
		c-2-1.4-3.5-1.9-4-2.9c-8.5-16.8-22.8-27.7-38.2-37c-6.5-4-11.5-8.5-15.6-14.8c-20.3-31.3-40.7-62.5-61.1-93.8
		c-0.4-0.6-0.8-1.1-1.1-1.7c-4.5-9.5-8.2-19.5-13.7-28.5c-5.5-8.9-13.1-16.2-17.1-26.6c-3.2-8.3-10.7-14.9-17.1-23.4
		c4.4-18.3,4.5-38.1,0.4-59.1c-4.2-0.9-8.5-2.6-12.9-2.6c-20.6,0.2-41.3,0.9-61.9,1.2c-17.3,0.2-34.6,0-52.7,0
		c-5.3-6.8-10.5-13.5-16.3-21c4.4-6.2,8.2-11.5,11.9-16.7c29.3-2.4,57.8,1,86.9,2.5c8.5-7.4,17-14.8,25.6-22.1
		c5.6-4.7,7.2-10.4,7.1-17.7c-0.3-18.3-6.5-35.2-10.7-52.6c-1.1-4.5-2.3-8.9-3.3-12.8c21.6-38.2,48-72.2,72.1-106.8
		c5.5-0.8,4.3,3.1,5.5,4.9c1.5,2.2,2.5,4.7,4.1,6.8c3.1,4.2,8.8,3.8,11.5-0.9c1.7-2.9,3-6,4.3-9c3-6.7,5.8-13.4,9-20.6
		c10.3-3.7,19.7-9.5,31.7-9.2c7.4,0.2,13.4-5.7,18.1-11.4c5.6-6.8,12.5-9.5,21.1-8c6.9-8.5,13.2-16.9,20.2-24.7
		c7.1-7.9,14.6-15.6,22.8-22.3c7.1-5.9,12.2-12.5,13-21.6c1.6-19.1,12.3-31.6,28-40.8c7.4-4.3,14.6-9.1,22.3-13.8
		c11.2,3.9,21.9,7.6,32.5,11.4c18.8,6.8,37.6,13.6,56.3,20.6c6.4,2.4,12.6,3.6,19.4,1.1c23.2-8.5,47.5-12.6,71.5-17.6
		c16.3-3.4,32.8-5.7,49.2-8.5c2.6-0.4,5.4-0.6,7.8-1.5c34.9-12.7,72-12.8,108.1-18.4c13.8-2.1,27.8-3.3,41.6-5.2
		c3.7-0.5,7.2-2.5,11.8-4.1c-1.5-3.9-2.2-7.2-3.9-9.8c-19.2-28-19.3-28-52.9-37.8c-8.3-2.4-16.5-5.1-24.9-7.3
		c-6.1-1.5-11.3-4.2-14.8-9.4c-11.8-17.6-28.2-32-36.9-51.9c-0.8-1.8-2.2-3.5-3.8-4.6c-8.4-5.9-10.8-14.8-12.9-25
		c7.1-6.8,10.3-15.7,9.2-26.3c-1.6-15.9-2.3-31.8-3.8-47.7c-0.4-4.5-2.2-9-4-13.2c-2-4.9-4.5-9.7-7.1-14.3c-14.9-26.3-17-54-10.2-83
		c1.8-7.7,1.5-15.8,2-20.7c-8.7-15.1-16-27.7-23.1-40.3c-5.2-9.1-7.4-19.8-16.5-26.8c-3.8-2.9-2.8-8.7,0.6-12.7
		c10.4-12.1,9.6-25.3,3.4-38.6c-4.6-10-6.2-20.3-4.5-31.1c1.6-9.8-0.9-17.5-7.5-25.6c-7.8-9.5-14.9-20.5-11.7-34.6
		c-3.7-4.2-7.2-8.1-10.7-12c-6.9-7.5-10-7.6-18-0.4c-4.4,3.9-8.8,7.8-12.6,11.2c-2.7-0.7-4.6-0.6-5.1-1.4
		c-11.7-18.2-28.6-32.9-34.9-54.8c-1.8-6.4-3.9-12.6-4.3-19.3c-0.6-14.1-1.8-27.9-10.3-40.1c-1.7-2.5-1.4-6.4-2.3-9.5
		c-2.4-8.3-5-16.5-11.2-23.1c-3.1-3.4-5.5-7.5-7.8-11.5c-10.1-17.6-23.1-32.1-41.7-41.1c-2.2-1.1-4.4-3.1-5.7-5.2
		c-8-12.9-19.7-23.7-21.7-39.9c-0.3-2.3-2.6-4.4-4.5-7.5c15-7.7,28.2-17,35.7-32.5c1.1-2.3,2.9-4.7,5-6.1c5.5-3.7,5.4-9,4.2-14.2
		c-1.7-7.1-4-14-6.3-21c-1-3.2-3.4-6.1-3.7-9.2c-1.6-16.8-12.5-23.7-28.2-27.2c0.6-7.9,3-14.9,11.9-20.2
		c18.5,14.1,38.8,26.3,53.6,45.6c7.6,9.9,14,21.2,25.5,27.6c4.5,9.4,14.7,15.6,15.7,27c0.8,8.3,5.4,13.2,13,16
		c3.1,1.1,6,2.8,8.6,4.8c6.4,4.8,4.5,16.1,13.7,18.6c7.8,2.1,11.7,8.3,16.5,13.8c6.6,7.6,14.1,14,24,17.3c2.9,1,6.1,3,7.9,5.4
		c6.5,8.7,14.3,8.3,23,4.3c3-1.4,6-2.8,9.4-4.3c2.5,0.6,5.4,0.6,7.6,1.8c15.6,9.1,29.9,3,43.4-4.4c16.3-8.9,31.9-19.2,47.9-28.7
		c3.4-2,7.1-4.1,10.9-4.8c8.9-1.7,16.6-0.5,22.7,8.1c6.7,9.5,12.3,18.9,11.3,31.1c-0.2,2.6-0.3,5.7,0.9,7.9c1.4,2.7,4.2,6.5,6.4,6.5
		c10.5,0.1,21.8,2.7,30.9-4.3c8.3-6.3,17.2-6.1,27.8-4.8c0.8,4,2.7,8.4,2.5,12.7c-0.6,12.2,0.2,23.1,14.8,26
		c0.7,17.4,0.6,33.4,12,47.2c-4.7,3.2-9.6,5.5-13,9.1c-1.8,1.9-2.1,6.2-1.5,9.1c0.4,1.8,3.5,3.5,5.7,4.4c1.7,0.7,3.9,0.1,5.9-0.1
		c5.7-0.3,9,3.5,10.1,8c1.8,7.6,4,15.2,2.5,23.4c-2.1,11.7-4.8,23.6,2.3,34.9c0.9,1.5,0.9,3.9,0.6,5.8c-1.1,8.5,2,15.6,6.7,22.4
		c4.6,6.8,6.2,14.2,6.2,22.6c-0.1,13.2,2.7,26.2,2.7,39.5c0,7.7-0.7,14.4-4.9,20.8c-1.4,2.2-2.1,4.9-3.5,7.1
		c-9.9,15.2-6.2,30.6-0.7,45.9c1.3,3.6,4.2,6.7,6.7,9.7c3.8,4.6,7.8,9,11.8,13.5c1.8,2,3.3,4.7,5.6,5.6
		c10.5,4.2,19.4,11.6,29.7,15.5c8.4,3.2,14.7,7.4,21.3,13.3c11.2,10,22.1,21.1,36.8,26.2c2.5,4.9,4.2,10.2,7.4,14.2
		c4.6,5.7,5.5,11.6,5.2,18.6c-0.4,8.7,0.2,17.2,7.2,24.1c2.6,2.6,4.2,6.9,4.7,10.6c2.4,16.9,14.5,28,24,40.6
		c2.5,3.4,7.6,5.9,11.9,6.7c11.8,2.2,18.6,9.5,23.7,19.5c3.4,6.7,8.2,12.3,14.9,15.7c3.4,1.7,7.5,1.9,9.2,2.2
		c11.6-7.8,21.1-15,31.5-20.8c7.8-4.4,14-10.1,19.5-16.8c5.3-6.4,11.3-10.5,20.1-11.4c15.2-1.6,30.3-4.5,45.4-6.8
		c6-0.9,11.9-0.9,17,3.6c8.7,7.7,19.6,10.7,31,13.8c1,9.7-0.8,19-3.5,27.6c-5.6,18.1-2.8,34.1,8.4,49c1.6,2.1,2.4,4.7,3.5,7.1
		c-4.1,9.5-12.1,14.1-21,17.3c-9.4,3.3-19.1,5.8-28.4,9.4c-9.9,3.8-19.7,8.1-29.1,12.9c-6.2,3.2-6.5,10.8-0.7,14.7
		c4.3,3,9.2,5.3,14.2,7c18.3,6.1,36.6,12.3,55.2,17.3c9.8,2.7,16.8,7.3,20.9,16.6c1.6,3.6,3.9,6.9,5.9,10.4
		c3.2,5.6,8.2,9.9,14.4,9.1c10.9-1.3,19.3,4,28.2,8.4c4.2,2.1,8.8,3.3,12.7,5.7c4.5,2.7,9.2,5.6,12.5,9.4
		c11.3,13.3,23.5,25.4,39.5,33.1c2.4,1.1,4.8,2.5,6.7,4.3c13.3,12.9,26.4,26,39.7,38.9c5.7,5.5,10.9,11.9,17.5,16
		c9.7,6.2,17.6,14,24.5,22.8c11.1,14.1,21.7,28.7,32.3,43.2c1.9,2.6,2.9,5.7,4.9,9.6c-11.2,9.5-16.2,22.4-21.9,35
		c-1.8,4-4.9,8.4-8.6,10.3c-16,7.9-31.5,17.1-49.8,19.8c-15.1,2.2-29.8,6.9-44.8,9.9c-9.7,1.9-19.5,2.8-31,4.4c-0.5,2.1-2,5.8-2,9.4
		c-0.2,20-0.1,40-0.1,60c0,9.9,0,19.8,0,31.4c4.2,5.4,11.4,11.1,11.1,20.8c0,0.6,0.2,1.4,0.6,1.9c3.7,5.4,8.2,10.4,10.9,16.2
		c2.6,5.8,3.2,12.4,5.5,22.1c-6.6,12.3-4.6,29.2-2.3,45.5c0.9,6.2,0.4,11.7-0.3,17.5c-0.8,6.4-4.4,12.8-0.3,19.3
		c-3.8,12.6,4.5,21.8,10.7,30.3c11.3,15.7,22.3,31.1,28.6,49.6c3.2,9.4,8.3,18.1,12.7,27c2.1,4.2,4.9,7.5,9.8,9.2
		c8.7,2.9,17.2,6.7,27.5,10.7c0.4,1.4,1.6,4.3,2.3,7.4c0.6,2.6,0.7,5.2,0.9,7.4c14.1,11.9,27.7,23.4,42.1,35.6
		c3.4,23.5,7.2,47.6,10.3,71.9c1.2,9.3,1.2,18.8-6.9,27.2c-2.5-1.3-6-2.1-7.7-4.3c-7.8-10.7-19.4-13.2-31.3-15.3
		c-11-2-22.6-2.4-33.1-6c-12.5-4.3-24.6-10.8-29.6-24.7c-3.6-10.1-10.8-16.6-20.5-20.4c-8.9-3.4-16-9.1-23-15.4
		c-7.9-7.1-16.4-13.6-25.1-19.6c-11-7.5-18.8-16.2-19.3-30.6C4618.3,2562.5,4614.6,2556.3,4612.7,2550.5z"/>
	<path onclick="modals(this.id);" id="1413" class="st0" d="M3020.2,1245.8c17.6,2.4,30,9.2,43.3,12.9c4.5,1.2,8.7,3.2,13.2,4.7c6,1.9,11.9,2.3,16.8-2.5
		c3.7-3.6,7.9-3.8,12.8-3.6c14.1,0.6,27.7,3.2,40.6,9c3,1.4,6.4,2.1,9.3,3.6c9.2,4.9,16.4,1.8,23.3-4.9c12-11.4,24.5-22.4,37.1-33.9
		c36.1,2.2,71.9,4.4,107.1,6.6c7.3-9.5,6.1-22.2,17.2-28.7c9.5,2.3,19.7,6.3,32,1.8c2.5-5.4,5.7-11.9,8.6-18.5
		c7.3-16.4,14.4-32.9,21.8-49.3c1.6-3.6,3.5-7.2,5.6-10.6c6.4-10.4,15.5-16.3,28.2-15c6,0.6,11.9,1.8,17.8,2.2
		c5.1,0.4,10.3,0.1,16.5,0.1c1.4-7.2,2.6-13.5,3.8-19.9c3.3-1.9,6.7-3.8,10-5.7c3.1-14.8-6.2-27.5-5.4-42.9
		c3.4-0.5,7.1-1.7,10.7-1.6c39.3,0.6,78.5,1.5,117.8,2.2c12.7,0.2,25.4-0.5,38,0.3c11.2,0.7,19.3-3.8,26.1-11.9
		c2.9-3.5,5.5-7.3,8.1-10.8c7.7-1.1,12.9,2,13.5,8.9c0.6,7.1,3.6,12.5,7.3,18.1c6.3,9.3,5.9,18.1-1,27.5c-5.1,7-9,14.9-16.5,19.7
		c-5.4,3.5-10.4,8-18.1,6.2c-5.9-1.4-10,2.4-13.2,7.1c-3,4.4-2.7,9.6,2.1,11.9c9.2,4.6,12.6,12.7,16.6,21.3
		c5.1,10.8,12.2,20.5,18.9,30.5c1.7,2.6,4.7,4.5,7.6,6c17.1,8.7,29.4,22.2,38.8,38.6c2,3.4,3.5,7.4,6.3,10.1
		c7.7,7.3,12,15.8,12.6,26.3c0.2,2.6,0.9,5.5,2.3,7.5c8.2,11.4,9.5,24.6,10.9,37.8c2.4,22.4,9.7,42.6,26.1,58.8
		c3.9,3.9,6.7,8.2,6.3,15.1c-13.5,2.3-27.1,4.7-40.7,6.9c-27.6,4.5-55,10.3-83.3,8.3c-11.8-0.8-22.2,3.7-32.4,8.8
		c-9.5,4.8-18.8,10.1-28.3,14.9c-3.3,1.7-7,2.8-11.9,4.7c-4.8-23.7-0.9-46.6-7.1-69.3c-3.6-0.5-7.4-1.4-11.2-1.5
		c-14-0.2-28,0.2-42-0.2c-10.1-0.3-18.1,3.1-24.4,12.3c0.5,2.7,0.8,5.9,1.7,9c6.6,22.3,14.6,44.2,19.7,66.8
		c4.2,18.6,4.9,37.9,0.8,57.5c-22.1,6.7-45,6.4-66.3,11.3c-5.2,4.7-4.3,10.2-4.2,15.4c0.7,23.9,1.8,47.9,2.2,71.8
		c0.4,23.9,0.1,47.8,0.1,73.1c-3-0.7-6.2-0.8-8.7-2.1c-23.9-13.1-48.2-25.8-71.5-39.9c-18-10.9-28-6.9-28.9,13.7
		c-0.8,19.4-5.6,38.1-10.4,56.8c-1.5,5.8-2.5,11.7-3.5,17.6c-1.8,10.7-1.4,21.2,3.9,31.1c2.2,4.1,3.7,8.5,5.4,12.9
		c2,5.2,0.1,8.9-5.8,11.9c-3.3-4.7-6.9-9.3-10.1-14.2c-37.9-59.6-77.3-118.3-113.1-179c-27.4-46.5-58.9-90.2-87.5-135.7
		c-28.7-45.7-57.4-91.4-86-137.1c-10.3-16.4-20.5-32.7-30.7-49.1C3025,1254.6,3023.6,1251.7,3020.2,1245.8z"/>
	<path onclick="modals(this.id);" id="1416" class="st0" d="M3876.9,1532.8c3,4.2,6.1,7.6,8.2,11.5c6.8,12.8,12,26.7,20.2,38.5c5.6,8.2,6.7,15.4,4.5,24.2
		c-4.8,19.7-4,39.5-0.7,59.4c1.2,7.4,3.2,14.2,6.7,20.7c2.2,4.1,4,8.5,6.3,12.5c11.5,19.7,14.2,41.2,13.2,63.6
		c-0.3,7.4-0.3,14.2-5.9,20.4c-2.7,3-4,8.7-3.4,12.9c1,7.1,2,15.7,6.4,20.5c10,10.8,15.5,24.5,25,35.5c9.1,10.6,17.3,22,25.7,33.2
		c3.4,4.5,8,6.5,13.4,7.9c12.2,3.3,24.1,8,36.5,10.5c16.5,3.2,27.5,12.1,34.7,28.4c-4.4,1.3-8.4,3.2-12.7,3.7
		c-33,4.3-66.1,8.4-99.1,12.5c-4,0.5-8.1,0.6-11.8,1.9c-28.4,10.2-58.6,12-87.8,18.5c-20.1,4.4-40.3,8.6-60.2,14
		c-6.2,1.7-11.3,2-17.3-0.2c-22.4-8.4-45-16.6-67.5-24.8c-20.4-7.5-20.4-7.5-41.2-1.4c-14.2-16.2-36.2-12.4-55.3-19.2
		c-3.6-7.7-6.2-15.1-2.7-24.4c2.9-7.6,5.3-14.7,12.6-19.3c3.2-2,6.1-5.4,7.9-8.8c2.4-4.5,5.6-6.7,10.6-8c8.7-2.2,13.3-8.8,14.3-17.3
		c1.1-9.4,4.4-18,7.2-26.8c2.6-8.1,2.3-17,3.5-27c5.2-3.2,11.4-6.8,17.5-10.7c16.7-10.7,19.8-22.3,10.7-40.7
		c-3.8-7.7-8-15.3-12.5-23.8c-24.5-4.4-49.3-8.9-74.2-13.2c-5.3-0.9-10.1-2-14.1-6.3c-3.2-3.6-6-7-6.5-11.9
		c-0.5-3.9-1.3-7.8-2.1-12.4c-5-1.9-9.8-3.7-15.2-5.7c-8.8-19.4-15.9-39.2-7.6-62.2c11.2-1.9,22.9-3.9,35-6c1.5-4.8,2.8-9.1,4.3-14
		c10.1-6.3,21.6-8.2,33.8-9.1c37.2-2.6,74.4-5.6,111.5-8.5c3.3-0.3,6.6-0.8,10.1-1.3c7-8.7,0.5-19.7,5.6-30.1
		c3-0.3,6.8-1.2,10.5-0.9c17.3,1.3,34.5,3,51.8,4.2c8.3,0.6,17.7,3.5,22.4-7.3C3857.6,1542,3866,1538,3876.9,1532.8z"/>
	<path onclick="modals(this.id);" id="1417" class="st0" d="M3607.3,1893.2c-2.9,8.3-5.7,16.4-8.7,25c-5.3,0.5-10.6,0.1-15.3,1.6c-5,1.6-9.8,4.4-13.8,7.7
		c-4,3.4-6.7,8.2-10.2,12.2c-10,11.6-19.6,23.4-25.7,37.5c-14.5,7.4-22.5,22.4-35.5,31.3c-4.2,2.9-9.5,4.3-14.3,6.4
		c-9.4-7.6-8-17.9-8.3-27.1c-5.7-4.5-10.7-1.1-15.6,0.3c-6.9,1.9-13.2,1.5-18.4-4c-9.5-10.1-21.4-11.4-34.6-11.1
		c-30,0.7-60,0.3-89.9,0.2c-7.9,0-15.8-0.7-23.3-1.1c-4.7-6.3-3-12.5-3.1-18.3c-0.1-5.7-1.7-10.5-5.6-14.5
		c-14.2-14.8-25.2-32.4-41.8-45.4c-9.7-7.6-18.5-17.1-24.5-28.6c-2.7-5.2-7.2-9.4-11.1-13.9c-9.6-11-19.3-21.8-28.9-32.7
		c-2.1-2.4-0.8-6.7,2.4-8.4c8.4-4.4,17.3-6.4,26.9-5.8c31.9,2.3,63.8,4.2,95.7,6.4c11.9,0.8,23.8,2.6,35.9,0.8
		c4-6.1,3.5-11.4-1.4-16.2c-10-9.8-20-19.6-30.2-29.2c-46.9-44.4-93.9-88.7-140.9-133.1c-3.3-3.2-6.3-6.7-9.2-9.9
		c2.3-31.8,23.1-45.2,49.5-53.7c6.8,1.5,8.4,8,11.5,12.8c39.8,62.3,79.4,124.8,119,187.2c3.6,5.6,7,11.3,11,16.7
		c3.6,4.8,9.6,4.4,13.5-0.6c2.4-3.2,4.5-6.6,6.7-10c3.9-6,4.9-12.2,1.8-18.9c-2.5-5.5-4.3-11.2-6.9-16.6c-3.6-7.5-4.5-15-2.5-23.2
		c2.4-9.7,3.3-19.7,6.1-29.3c4-13.5,6.5-27.1,6.6-41.3c0-3.7,1.9-7.4,3.3-12.4c4,1.8,7,2.9,9.7,4.3c27.4,15.1,54.8,30.3,82.2,45.4
		c4.5,2.5,9.1,6.2,15.4,2.3c2.7-17.9-1.5-36.4-0.5-55.8c21.6-6.1,43.3-7.3,63.7-9.9c4.9,4.7,2.1,8.8,2.1,12.5
		c0,14.8,2.7,29.1,7.9,43c5.2,14.1,5.2,14.2,20.2,19.9c0.4,2.8,0.8,6,1.5,9.1c2.4,11.4,8.5,19,20.7,21c21,3.5,42,7.3,62.9,11.1
		c3.9,0.7,7.8,1.7,12.7,2.8c5.3,10.1,10.7,20.4,15.6,29.8c-2.6,8.4-7.2,13-13.2,16.4c-2.9,1.6-5.9,3-8.8,4.6
		c-9.4,5.3-15.9,12-12.5,24.1c0.8,3,0.6,6.8-0.6,9.6c-4.1,9.2-6.7,18.7-7.8,28.8c-0.7,6.3-4.3,12.8-10.1,13.7
		c-9.6,1.4-12.6,8.3-17.5,14.5C3617.1,1886.2,3611.8,1889.4,3607.3,1893.2z"/>
	<path onclick="modals(this.id);" id="1419" class="st0" d="M3409.8,2306.4c-2.5,3.2-3.2,4.4-4.2,5.3c-25,22.3-18.5,22.9-54.4,20.4
		c-7.3-0.5-14.7-0.2-22-0.3c-6.6-0.1-13.2-0.3-20.8-0.5c0-6,0-10.9,0-17.1c-18.8-4.2-30.4-18.4-43.7-30c-35.1-30.7-70-61.7-105-92.6
		c-4.5-4-8.9-8-14.5-13c0.1-17.7-0.4-36.1,1.7-54.7c5.8-2.5,10.5-4.8,15.4-6.7c27.3-10.6,54.8-20.9,82-31.7
		c29.8-11.8,60.5-20.6,91.1-29.7c5.7-1.7,11.5-3.4,17.1-5.7c8.6-3.5,10.2-11.3,3.3-17c-11.9-9.8-24.4-18.5-40.4-20.4
		c-4.6-0.5-9-2.3-13.4-3.6c-7.4-2.2-11.1-7.1-10.7-14.8c0.2-3.2,0.8-6.4,1.4-10.4c4.3-0.6,8.2-1.6,12-1.6
		c35.3,0.4,70.6,1.1,105.9,1.4c7.8,0.1,14,2.2,20.1,7c14.3,11.2,14.5,11,32.8,9.1c2.9,7.9,5.8,15.9,8.8,24.2
		c-0.7,1.6-1.3,3.5-2.1,5.3c-5,10.4-5,10.4,3.2,20c-5.3,29.5,3,46.5,41.2,48.1c-2,6-9.6,3.8-11.8,8.4c-2,4.1-4.3,8.1-6.4,12.1
		c-7.3-0.6-13.8-1.2-20.9-1.8c-3,3.7-6.1,7-8.8,10.7c-16.4,22.7-32.7,45.3-48.8,68.1c-4.2,6-8.2,12.3-11,18.9
		c-2.2,5.2-4.8,9.2-9.6,12.1c-6.2,3.7-6.5,8.8-4.4,15.5c5.1,15.8,9.5,31.8,13.8,47.7C3408.3,2294.8,3408.8,2300.7,3409.8,2306.4z"/>
	<path onclick="modals(this.id);" id="1414" class="st0" d="M3663.7,1407.7c15.3,18.3,21,39.2,33.4,57.1c10.8,3.6,21.3-4.2,33.3-3.5
		c9.5,13.6,14.9,29.4,20.5,44.8c2.9,7.8,2.5,17,2.6,25.5c0.1,12.5,1,25.1-0.8,38.2c-3.9,1-7,2.3-10.2,2.6
		c-37.2,2.9-74.4,5.7-111.6,8.3c-17.3,1.2-17.3,0.9-36.2,10c-1.5,4.1-3.1,8.4-4.5,12.1c-6,3.5-84.9,13.8-104.7,13.7
		c-0.8-2.5-2.7-5.4-2.7-8.3c-0.4-28-0.6-55.9-0.7-83.9c0-1.2,1-2.4,2.2-5.1c12.1-1.8,25.1-3.8,38.2-5.7c6.6-1,13.2-1.7,19.7-3.1
		c9.2-2,10.7-3.6,11.4-13.5c1.8-24,1.1-47.6-6.2-71c-5.7-18.3-9.6-37.2-14.2-55.8c0.8-1.1,1.3-2.8,2.3-3.1c17.3-5.1,34.9-6,53.6-3
		c1.2,13.1,2.5,25.6,3.5,38.1c0.9,11.9,1.5,23.8,2.2,37c5.2-0.8,9.3-0.5,12.5-2.1c10.8-5.2,21.3-11,31.9-16.5
		C3646.9,1416.3,3654.5,1412.4,3663.7,1407.7z"/>
	<path onclick="modals(this.id);" id="1415" class="st0" d="M3738,1448.9c-11.1,1.7-21.5,3.4-32.6,5.1c-10.1-14.6-19-29.6-23.7-46.8
		c1.6-0.7,2.8-1.7,3.9-1.6c28.9,1.6,57-4.5,84.9-9.8c14.3-2.7,29.3-0.1,43.1-6.2c11.6,1.6,20.4-4,27.3-11.5
		c6.4,0.3,11.1,3.6,10.9,8.1c-0.8,17.6,10.3,29.2,19.4,41.9c0.4,0.5,0.7,1.1,1.6,2.6c-0.2,2.4-0.4,5.6-0.6,8.9
		c-0.8,14.5-2.4,28.9,7.7,41.7c3.5,4.4,1.7,10.3-1.2,15.1c-8.1,13.7-8.2,13.7-9.2,26.6c-8,4-16.5,9.3-25.8,12.4
		c-5.8,2-7.4,9.9-14.8,8.7c-5.9-1-11.9-1.4-17.8-1.9c-8.6-0.7-17.3-1.1-25.9-1.9c-7.2-0.7-14.3-1.9-21.9-2.9
		c-0.4-6.5-1.3-11.8-0.9-17c1-12.4-2.3-23.5-7.5-34.5C3749.3,1473.8,3745.3,1461.1,3738,1448.9z"/>
	<path onclick="modals(this.id);" id="1387" class="st0" d="M3659.1,1965c-3.8,3.4-6.3,6.6-9.6,8.3c-11.7,6.3-16.8,16.8-18.7,28.9
		c-2.1,13.1-7.2,23.6-18.5,31.3c-6.4,4.4-11.5,10.7-17.4,16.3c-8.6-3.6-14.2-9.3-20.2-14.3c-1.9-1.5-3.9-4.4-3.7-6.5
		c0.9-11.7-7.5-17.7-14.6-24.3c-5.4-4.9-11.4-9-14.4-17.1c5-10.9,9.6-22.4,19-31.4c4.2-4.1,6.8-9.8,10.9-14.1
		c4.1-4.2,8.7-8.2,13.8-10.9c6.9-3.7,13.7-0.6,16.8,7.6c2.1,5.7,5.3,8.8,11.1,9.7c9.2,1.4,18.3,3.3,27.5,4.6
		C3647.9,1954.3,3653.4,1957.4,3659.1,1965z"/>
</g>
<g>
	
	<path onclick="modals(this.id);" id="1407" class="st0" d="M3525.4,2082.5c-0.9,0-1.9,0-2.8,0c-0.5,0-0.9-0.1-1.3-0.6c-0.7-0.9-1.6-1.6-2.4-2.4
		c-0.9-0.9-1.8-1.8-2.6-2.7c-0.5-0.5-1-1-1.5-1.4c-0.6-0.6-0.6-1.4,0-2c0.5-0.4,1-0.9,1.4-1.4c0.3-0.5,0.7-0.7,1.2-0.7
		c0.3,0,0.7-0.2,0.8-0.4c0.3-0.5,0.7-0.6,1.2-0.6c0.4,0,0.7-0.2,0.9-0.5c0.9-1.3,2-2.4,3.3-3.3c0.6-0.5,0.6-0.6,0.1-1.1
		c-0.4-0.4-0.8-0.8-1.1-1.2c-0.2-0.2-0.2-0.5-0.3-0.7c0-0.7,0-1.5,0-2.2c0-0.2,0.1-0.5,0.2-0.6c0.4-0.4,0.8-0.8,1.3-1.2
		c0.8-0.7,0.7-1.4,0-2.1c-0.8-0.7-1.5-1.4-2.3-2.2c-0.4-0.4-0.3-1.3,0.1-1.6c1-0.9,1-1.4,0-2.2c-0.5-0.5-0.5-1.3,0-1.8
		c0.9-0.9,1.8-1.8,2.7-2.7c0.5-0.5,1.3-0.5,1.8,0c0.4,0.5,0.8,1,1.3,1.4c0.2,0.2,0.5,0.2,0.8,0.2c0.4,0,0.7,0.1,1,0.5
		c0.4,0.5,0.8,0.9,1.2,1.3c0.2,0.2,0.5,0.2,0.7,0.2c0.5,0,0.8,0.1,1.1,0.6c0.2,0.4,0.5,0.5,0.9,0.4c0.5,0,0.8,0.2,1.1,0.5
		c0.8,0.9,1.6,1.6,2.4,2.5c0.5,0.5,1,0.9,1.5,1.5c0.3,0.4,0.6,0.6,1.1,0.5c0.4,0,0.7,0.2,1,0.5c0.4,0.5,0.8,0.9,1.2,1.3
		c0.2,0.2,0.5,0.2,0.7,0.2c0.4,0,0.7,0,1.1,0c0.2,0,0.6,0.1,0.7,0.3c1.1,1.1,2.2,2.3,3.3,3.4c0.2,0.2,0.5,0.3,0.8,0.3
		c0.5,0,0.9,0.1,1.2,0.6c0.1,0.2,0.5,0.4,0.8,0.4c0.5,0,0.9,0.1,1.2,0.6c0.2,0.4,0.5,0.5,0.9,0.4c0.5,0,0.8,0.2,1.1,0.6
		c0.3,0.4,0.7,0.8,1.1,1.1c0.7,0.7,1.4,1.4,2.1,2.1c0.2,0.2,0.5,0.2,0.8,0.2c0.4,0,0.7,0.1,0.9,0.5c0.4,0.5,0.8,0.9,1.2,1.3
		c0.2,0.2,0.5,0.2,0.7,0.3c0.4,0,0.7,0,1.1,0c0.3,0,0.6,0.1,0.7,0.2c0.8,0.7,1.5,1.5,2.2,2.3c0.3,0.4,0.6,0.6,1.1,0.5
		c0.4,0,0.8,0.1,0.9,0.5c0.1,0.5,0.1,1-0.3,1.4c-1,0.9-1.9,1.9-2.8,2.8c-1.2,1.2-2.4,2.3-3.5,3.4c-1.2,1.2-2.3,2.4-3.4,3.5
		c-0.8,0.8-1.7,1.6-2.5,2.4s-1.6,1.6-2.4,2.5c-0.4,0.4-0.8,0.8-1.2,1.2c-0.4,0.4-1.4,0.4-1.7-0.1c-0.4-0.6-0.8-0.7-1.4-0.7
		c-0.4,0-0.9,0-1.3,0c-0.6,0-1.2,0-1.5-0.7c-0.1-0.2-0.6-0.3-0.9-0.3c-0.6,0-1.3,0-1.9,0c-0.5,0-0.9-0.1-1.1-0.5s-0.6-0.5-1.1-0.5
		c-0.6,0-1.3,0-1.9,0c-0.8,0-1-0.2-1-1c0-0.7,0-1.4,0-2.1c0-0.8-0.3-1.1-1.1-1.1c-1.9-0.2-3.7-0.5-5.4-1.4c-0.5-0.2-1.1-0.3-1.6-0.3
		C3527.4,2082.5,3526.4,2082.6,3525.4,2082.5C3525.4,2082.6,3525.4,2082.5,3525.4,2082.5z M3554.8,2068.4c0.1-0.1,0.2-0.2,0.3-0.3
		c0,0-0.1-0.2-0.2-0.2c-0.1,0-0.2,0.1-0.3,0.2C3554.6,2068.1,3554.7,2068.2,3554.8,2068.4z"/>
	<path onclick="modals(this.id);" id="1411" class="st0" d="M3577.2,2077.6c-0.1,0-0.3-0.1-0.5-0.2c-0.4-0.3-0.8-0.7-1.1-1.1c-0.3-0.5-0.7-0.7-1.3-0.7
		c-0.2,0-0.5-0.1-0.6-0.2c-0.4-0.4-0.8-0.9-1.3-1.4c-0.2-0.2-0.6-0.3-0.9-0.4c-0.5,0-0.8-0.1-1.1-0.6c-0.3-0.5-0.7-0.9-1.2-1.2
		c-0.2-0.2-0.5-0.2-0.8-0.2c-0.4,0-0.7-0.2-1-0.5c-0.4-0.5-0.8-0.9-1.2-1.3c-0.2-0.2-0.5-0.2-0.7-0.2c-0.5,0-0.8-0.2-1.1-0.6
		c-0.3-0.5-0.7-0.8-1.2-1.2c-0.2-0.1-0.4-0.2-0.6-0.2c-0.5,0-0.9-0.1-1.3-0.6c-0.3-0.5-0.7-0.8-1.2-1.2c-0.2-0.1-0.5-0.2-0.7-0.2
		c-0.4,0-0.7-0.1-1-0.4c-0.7-0.8-1.5-1.6-2.2-2.4c-0.2-0.2-0.5-0.2-0.8-0.2c-0.4,0-0.7-0.2-1-0.5c-0.4-0.5-0.8-0.9-1.2-1.3
		c-0.2-0.2-0.5-0.2-0.7-0.2c-0.4,0-0.8-0.1-1-0.5c-0.2-0.4-0.6-0.5-1-0.5c-0.5,0-0.8-0.1-1.1-0.6c-0.1-0.2-0.3-0.3-0.5-0.5
		c-0.7-0.6-0.6-1.4,0-1.9c0.8-0.8,1.7-1.6,2.5-2.4c0.9-0.9,1.8-1.8,2.6-2.7c0.2-0.2,0.4-0.6,0.4-0.8c0-0.6,0.1-1,0.7-1.2
		c0.1-0.1,0.2-0.2,0.3-0.3c0.2-0.5,0.6-0.6,1.1-0.6c0.8,0,0.9-0.1,0.9-1c0-0.5,0-0.9,0.6-1c0.5-0.1,1-0.1,1.4,0.4
		c0.7,0.8,1.5,1.6,2.3,2.3c0.2,0.2,0.5,0.2,0.7,0.2c0.4,0,0.7,0.1,1,0.5c0.6,0.8,1.4,0.8,2,0c0.5-0.6,0.6-0.6,1.1,0
		c0.2,0.3,0.5,0.5,0.9,0.5c0.5,0,0.8,0.2,1.1,0.5c0.8,0.9,1.6,1.6,2.4,2.5c0.5,0.5,1,0.9,1.5,1.5c0.3,0.4,0.6,0.6,1.1,0.6
		c0.4,0,0.7,0.2,1,0.5c0.8,0.9,1.6,1.6,2.4,2.5c0.9,0.9,1.7,1.7,2.6,2.6c0.3,0.3,0.5,0.5,0.9,0.4c0.5-0.1,0.8,0.2,1.1,0.6
		c0.3,0.5,0.7,0.8,1.2,1.2c0.2,0.1,0.5,0.1,0.7,0.2c0.3,0.1,0.6,0.1,0.8,0.3c0.7,0.6,1.3,1.2,1.9,1.8c0.3,0.3,0.3,0.6-0.1,0.8
		c-0.6,0.3-0.7,0.7-0.7,1.3c0,0.2-0.1,0.4-0.2,0.5c-0.7,0.7-1.5,1.5-2.3,2.2c-0.4,0.3-0.6,0.6-0.5,1.1c0,0.4-0.2,0.7-0.5,1
		c-0.8,0.7-1.5,1.4-2.3,2.2c-0.2,0.2-0.2,0.6-0.2,0.8c0,0.4-0.1,0.7-0.5,0.9c-0.2,0.1-0.4,0.3-0.6,0.6
		C3578.1,2077.5,3577.8,2077.6,3577.2,2077.6z"/>
	<path onclick="modals(this.id);" id="1388" class="st0" d="M3528.9,1988.5c0.7-0.1,1.3,0,1.7,0.7c0.3,0.5,0.8,0.9,1.3,1.2c0.4,0.3,0.6,0.6,0.6,1.1
		c0,0.4,0.2,0.7,0.5,1c0.9,0.8,1.7,1.7,2.5,2.5c0.5,0.5,0.9,1,1.5,1.4c0.4,0.3,0.5,0.6,0.5,1c0,0.5,0.2,0.8,0.5,1.1
		c0.8,0.7,1.6,1.6,2.4,2.4c0.9,0.9,1.8,1.8,2.7,2.6c0.8,0.8,1.6,1.6,2.4,2.4c0.8,0.8,1.5,1.6,2.3,2.3c0.2,0.2,0.5,0.2,0.8,0.2
		c0.4,0,0.7,0.1,0.9,0.5c0.1,0.2,0.3,0.4,0.5,0.5c0.4,0.2,0.5,0.6,0.6,1.1c0,0.8,0.1,0.9,0.9,1c0.9,0.1,1,0.1,1,1.1
		c0.1,0.8,0.2,0.9,1,0.9c0.9,0.1,1,0.1,1,1c0,0.5,0.2,0.8,0.6,1.1c0.8,0.7,1.6,1.6,2.4,2.4c0.8,0.8,1.5,1.6,2.3,2.3
		c0.1,0.1,0.4,0.2,0.6,0.2c0.5,0,0.9,0.1,1.3,0.6c0.4,0.5,0.9,0.9,1.4,1.4c0.6,0.5,0.6,0.6,0,1.1c-0.5,0.4-1,0.8-1.4,1.3
		c-0.4,0.5-0.8,0.7-1.3,0.7c-0.2,0-0.5,0.1-0.6,0.3c-0.4,0.4-0.9,0.9-1.3,1.4c-0.5,0.5-1.3,0.5-1.8,0c-0.9-0.9-1.8-1.8-2.7-2.7
		c-0.8-0.8-1.6-1.7-2.4-2.5c-0.4-0.4-0.7-0.8-1.2-1.2c-0.2-0.2-0.5-0.2-0.8-0.2c-0.4,0-0.7-0.1-0.9-0.5c-0.4-0.5-0.8-0.9-1.2-1.3
		c-0.2-0.2-0.5-0.2-0.8-0.2c-0.4,0-0.8-0.1-1-0.5c-0.1-0.2-0.2-0.3-0.4-0.4c-0.5-0.3-0.6-0.6-0.6-1.2c0-0.2-0.1-0.6-0.2-0.7
		c-1-1-1.9-2-2.9-2.9c-0.2-0.2-0.5-0.3-0.7-0.2c-0.5,0-0.8-0.2-1.2-0.6c-0.8-0.9-1.6-1.6-2.4-2.4c-0.8-0.8-1.7-1.7-2.5-2.5
		c-0.8-0.8-1.6-1.6-2.4-2.4c-0.8-0.8-1.7-1.7-2.5-2.5c-0.8-0.8-1.6-1.6-2.4-2.5c-0.9-0.9-1.8-1.8-2.7-2.6c-0.8-0.8-1.6-1.6-2.5-2.4
		c-0.5-0.5-0.5-0.6,0-1.1c0.9-0.8,1.7-1.6,2.5-2.5c0.4-0.4,0.8-0.9,1.2-1.3c0.2-0.2,0.6-0.1,0.8-0.2c0.3-0.1,0.7-0.1,0.8-0.3
		C3527.6,1988.5,3528.2,1988.5,3528.9,1988.5z"/>
	<path onclick="modals(this.id);" id="1398" class="st0" d="M3523,2087.5c-3.1,0-6.2,0-9.3,0c-0.5,0-1,0-1.3,0.6c-0.2,0.4-0.5,0.5-0.9,0.5
		c-2.7,0-5.4,0-8.1,0c-0.4,0-0.7-0.1-0.9-0.5c-0.2-0.5-0.7-0.6-1.2-0.6c-2.2,0-4.4,0-6.6,0c-0.6,0-1-0.1-1.4-0.6
		c-0.1-0.2-0.5-0.4-0.8-0.4c-0.5,0-0.9-0.2-1.2-0.6c-0.3-0.5-0.7-0.8-1.2-1.2c-0.2-0.1-0.5-0.1-0.7-0.2c-0.3-0.1-0.6-0.1-0.8-0.3
		c-0.5-0.4-0.8-0.9-1.3-1.4c-0.2-0.2-0.5-0.4-0.8-0.4c-0.6,0-0.9-0.1-1.2-0.6c-0.2-0.3-0.7-0.6-0.8-0.9c0-0.2,0.5-0.5,0.8-0.8
		c1.3-1.3,2.6-2.5,3.9-3.8c0.8-0.8,1.6-1.7,2.4-2.5c0.5-0.5,1.3-0.5,1.8,0c1.1,1.1,2.2,2.3,3.3,3.4c0.1,0.1,0.4,0.3,0.6,0.3
		c0.6,0,1,0.1,1.3,0.7c0.3,0.4,0.7,0.8,1.1,1.1c0.2,0.1,0.4,0.2,0.6,0.2c0.4,0,0.9,0,1.3,0c0.2,0,0.5-0.1,0.6-0.2
		c0.8-0.7,1.5-1.5,2.2-2.3c0.3-0.3,0.6-0.5,1-0.5c0.5,0,0.8-0.2,1.1-0.6c0.6-0.8,1.4-1.5,2.1-2.2c0.3-0.3,0.5-0.2,0.8,0.1
		c0.3,0.3,0.6,0.5,0.8,0.9c0.2,0.3,0.3,0.6,0.3,0.9c0,0.4,0.2,0.7,0.5,0.9c0.9,0.8,1.7,1.7,2.6,2.6c0.8,0.8,1.6,1.6,2.5,2.4
		c0.8,0.8,1.7,1.6,2.4,2.4c0.3,0.4,0.6,0.6,1.1,0.5c0.4,0,0.8,0.1,1,0.5c0.2,0.5,0.7,0.5,1.1,0.5c1.2,0,2.4,0,3.6,0
		c0.6,0,1.1,0,1.4,0.6c0.2,0.4,0.7,0.4,1.1,0.4c1.5,0,3.1,0,4.6,0c0.3,0,0.6,0,0.8,0.1c0.2,0.1,0.4,0.3,0.4,0.5
		c0,0.2-0.2,0.4-0.4,0.5c-0.2,0.1-0.5,0.1-0.8,0.1C3529.1,2087.6,3526,2087.6,3523,2087.5C3523,2087.6,3523,2087.5,3523,2087.5z
		 M3483.9,2044.5c-0.4,0-0.9,0-1.3,0c-1.1,0-1.2,0.2-1.2,1.2c0,0.6,0,1.2,0,1.8c0,0.4-0.1,0.8-0.5,1c-0.5,0.2-0.6,0.6-0.5,1.1
		c0,0.3,0,0.5,0,0.8c0,0.5-0.1,0.9-0.6,1.2c-0.4,0.2-0.5,0.5-0.5,0.9c0,0.7,0.1,1.3,0,2c0,0.3-0.1,0.8-0.3,0.9
		c-0.7,0.4-0.7,1-0.7,1.6c0,0.5,0,0.9,0,1.4c0,0.5-0.1,0.9-0.6,1.2c-0.4,0.2-0.5,0.6-0.5,1c0,0.6,0,1.2,0,1.8c0,0.5,0,0.9-0.5,1.2
		c-0.4,0.2-0.5,0.5-0.5,0.9c0,0.4,0,0.7,0,1.1c0,0.4,0.1,0.7,0.5,0.9c0.5,0.2,0.6,0.6,0.6,1.1c0,0.4,0.1,0.8,0.5,1
		c0.4,0.2,0.5,0.6,0.5,1c0,0.4,0.1,0.8,0.5,1c0.4,0.2,0.5,0.6,0.5,1c0,0.4,0.1,0.8,0.5,1c0.4,0.2,0.5,0.6,0.5,1c0,0.8,0.3,1,1,1
		c0.7,0,0.9-0.2,1-1.1c0-0.3,0.1-0.6,0.2-0.7c0.7-0.8,1.5-1.5,2.3-2.2c0.4-0.3,0.5-0.6,0.5-1.1c0-1.3,0-2.6,0-3.9
		c0-0.4-0.1-0.8-0.5-1c-0.5-0.2-0.6-0.6-0.5-1.1c0-0.4-0.2-0.7-0.5-1c-0.7-0.5-0.7-1.4,0-1.9c0.2-0.1,0.4-0.3,0.5-0.5
		c0.3-0.5,0.7-0.6,1.3-0.6c0.9,0,1.8,0,2.7,0c0.5,0,0.8-0.1,1.1-0.5c0.8-0.9,1.6-1.7,2.5-2.5c0.3-0.3,0.5-0.5,0.5-0.9
		c0-0.3,0-0.6,0.2-0.8c0.4-0.5,0.8-0.9,1.3-1.2c0.4-0.3,0.5-0.6,0.5-1c0-0.3,0.1-0.6,0.2-0.8c0.6-0.7,1.3-1.4,2-2
		c0.5-0.4,0.8-0.7,0.7-1.4c0-0.2,0.1-0.5,0.3-0.7c0.8-0.8,1.6-1.5,2.4-2.2c0.4-0.3,0.3-0.8-0.2-0.9c-0.2-0.1-0.5,0-0.7,0
		c-0.2,0-0.5-0.1-0.6-0.2c-0.4-0.4-0.8-0.8-1.1-1.2c-0.3-0.4-0.6-0.6-1.1-0.5c-0.3,0-0.7,0-1,0c-0.4,0-0.7,0.1-0.9,0.5
		c-0.2,0.5-0.6,0.6-1.1,0.6c-1.3,0-2.6,0-3.9,0c-0.4,0-0.7-0.1-1-0.5c-0.5-0.7-0.6-0.7-1.1,0c-0.8,1-1.6,1.8-3,1.4
		C3484.2,2044.5,3484.1,2044.5,3483.9,2044.5C3483.9,2044.5,3483.9,2044.5,3483.9,2044.5z"/>
	<path onclick="modals(this.id);" id="1389" class="st0" d="M3513,2010.4c-0.7,0-1.3,0.1-1.7,0.8c-0.1,0.2-0.5,0.3-0.8,0.3c-0.5,0-0.8,0.2-1.1,0.6
		c-0.2,0.2-0.5,0.4-0.8,0.4c-0.5,0-0.9,0.1-1.1,0.6c-0.3,0.5-0.6,0.5-1,0c-0.2-0.2-0.4-0.4-0.6-0.6c-0.5-0.4-0.5-0.6,0-1.1
		c0.9-0.8,1.7-1.7,2.5-2.5c0.8-0.8,1.6-1.7,2.5-2.4c0.3-0.3,0.6-0.5,0.5-1c0-0.5,0.2-0.8,0.5-1.1c0.9-0.8,1.6-1.6,2.5-2.4
		c0.5-0.5,0.9-1,1.5-1.5c0.4-0.3,0.6-0.6,0.5-1.1c0-0.4,0.2-0.7,0.5-1c0.5-0.5,1-1,1.5-1.6c0.4-0.5,0.6-0.5,1,0
		c0.8,0.9,1.6,1.7,2.4,2.5c0.9,0.9,1.8,1.8,2.7,2.7c0.8,0.8,1.7,1.6,2.5,2.4c0.5,0.5,1,0.9,1.4,1.4c0.3,0.4,0.6,0.5,1.1,0.5
		c0.8,0,1,0.2,1,0.9c0,0.7-0.2,1-1,1c-0.5,0-0.8,0.2-1.1,0.5c-0.8,0.9-1.6,1.6-2.4,2.5c-0.8,0.8-1.7,1.6-2.5,2.5
		c-0.3,0.3-0.6,0.5-1,0.5c-0.5,0-0.8,0.2-1.1,0.6c-0.3,0.4-0.7,0.8-1,1.2c-0.3,0.3-0.5,0.3-0.8,0c-1.1-1.1-2.2-2.3-3.3-3.4
		c-0.7-0.7-1.4-1.4-2.1-2.1C3513.9,2010.5,3513.4,2010.5,3513,2010.4z"/>
	<path onclick="modals(this.id);" id="1397" class="st0" d="M3490.9,2039.5c-1.4,0-2.8,0-4.2,0c-0.6,0-1.1,0.1-1.4,0.7c-0.3,0.4-0.7,0.8-1.1,1.1
		c-0.4,0.4-1.4,0.4-1.6-0.1c-0.4-0.8-1.1-0.8-1.8-0.7c-0.6,0.1-1.2,0-1.5-0.7c-0.1-0.2-0.5-0.3-0.8-0.3c-0.4,0-0.7,0-1.1,0
		c-0.4,0-0.7-0.1-0.9-0.4c-0.3-0.5-0.7-0.6-1.3-0.6c-0.3,0-0.6,0.1-0.9,0c-0.3-0.1-0.6-0.2-0.8-0.4c-0.2-0.2-0.4-0.4-0.7-0.6
		c-0.4-0.4-0.5-0.7,0-0.9c0.5-0.3,0.7-0.7,0.7-1.2c0-0.3,0.2-0.5,0.4-0.8c0.2-0.3,0.4-0.5,0.7-0.7c0.6-0.5,1.1-1,1-1.8
		c0-0.1,0.1-0.3,0.2-0.4c1.2-1.1,2.3-2.2,3.5-3.4c0.3-0.3,0.5-0.8,1-0.8c0.5,0,0.9,0,1.2,0.5c0.2,0.4,0.6,0.6,1,0.5
		c0.5,0,0.8,0.2,1.1,0.6c0.7,0.8,1.4,1.5,2.2,2.3c0.2,0.2,0.5,0.2,0.7,0.2c0.4,0,0.7,0.2,1,0.5c0.7,0.8,1.4,1.5,2.2,2.3
		c0.2,0.2,0.5,0.2,0.7,0.2c0.5,0,0.8,0.2,1.2,0.6c0.3,0.5,0.7,0.8,1.2,1.2c0.2,0.1,0.5,0.1,0.7,0.2c0.3,0.1,0.6,0.1,0.8,0.3
		c0.7,0.6,1.3,1.2,1.9,1.8c0.1,0.1,0.2,0.4,0.2,0.5c-0.1,0.2-0.3,0.4-0.5,0.4c-0.4,0.1-0.7,0-1.1,0
		C3493.5,2039.5,3492.2,2039.5,3490.9,2039.5C3490.9,2039.5,3490.9,2039.5,3490.9,2039.5z"/>
	<path onclick="modals(this.id);" id="1412" class="st0" d="M3512.4,2071.6c-0.3-0.1-0.6-0.2-0.8-0.4c-0.5-0.4-0.9-0.9-1.3-1.4c-0.5-0.6-1.3-0.6-1.9,0
		c-0.7,0.8-1.5,1.6-2.3,2.3c-0.2,0.2-0.5,0.2-0.7,0.2c-0.5,0-0.8,0.2-1.2,0.6c-0.7,0.8-1.4,1.5-2.1,2.2c-0.1,0.1-0.4,0.2-0.5,0.2
		c-0.5,0-1,0-1.5,0c-0.2,0-0.4-0.1-0.5-0.2c-0.8-0.8-1.5-1.6-2.3-2.4c-0.5-0.5-1-0.9-1.5-1.3c-0.5-0.4-0.5-0.6,0-1.1
		c0.5-0.4,1-0.9,1.5-1.4c0.3-0.3,0.6-0.6,1-0.5c0.5,0,0.8-0.2,1.1-0.5c0.7-0.8,1.6-1.6,2.4-2.4c0.4-0.4,0.9-0.8,1.4-1.3
		c0.2-0.2,0.2-0.5,0.2-0.8c0.1-0.8,0.2-0.9,1-1c0.5,0,0.8-0.1,1.1-0.5c0.3-0.5,0.8-0.9,1.2-1.3c0.4-0.4,1.2-0.3,1.6,0.1
		c0.4,0.5,0.8,1,1.3,1.4c0.2,0.2,0.6,0.3,0.9,0.3c0.4,0,0.7,0.2,0.9,0.5c0.8,0.9,1.7,1.7,2.6,2.6c0.7,0.7,1.5,1.4,2.2,2.1
		c0.3,0.3,0.2,0.5,0,0.8c-1,0.9-1.9,1.9-2.9,2.8C3513,2071.4,3512.7,2071.5,3512.4,2071.6z"/>
	<path onclick="modals(this.id);" id="1410" class="st0" d="M3565.9,2045.5c-0.2,0-0.5,0-0.7,0c-0.5,0-0.7-0.3-0.8-0.8c0-0.5,0-1,0-1.5
		c0-0.2,0.2-0.5,0.4-0.7c0.5-0.6,1.1-1.1,1.7-1.7c0.5-0.6,1.4-0.6,1.9,0c0.3,0.4,0.6,0.6,1.2,0.6c0.4,0,0.7,0.1,0.9,0.5
		c0.4,0.5,0.8,0.9,1.2,1.3c0.2,0.2,0.5,0.2,0.7,0.2c0.5,0,0.8,0.2,1.1,0.5c0.8,0.9,1.6,1.6,2.4,2.5c0.5,0.5,1,0.9,1.4,1.4
		c0.3,0.4,0.7,0.7,1.2,0.6c0.2,0,0.5,0.1,0.6,0.2c0.7,0.7,1.4,1.4,2.2,2.2c0.4,0.4,0.8,1,1.3,1.4c0.2,0.2,0.5,0.2,0.8,0.2
		c0.4,0,0.7,0.2,1,0.5c0.8,0.9,1.7,1.7,2.5,2.5c0.5,0.5,0.5,0.6,0,1.1c-0.9,0.8-1.7,1.6-2.5,2.5c-0.6,0.7-1.4,0.7-2,0
		c-0.8-0.9-1.7-1.7-2.5-2.5c-0.5-0.5-1-0.9-1.4-1.5c-0.3-0.3-0.6-0.6-1-0.5c-0.5,0-0.8-0.2-1.1-0.5c-0.8-0.9-1.6-1.6-2.4-2.4
		c-0.8-0.8-1.7-1.6-2.4-2.4c-0.3-0.4-0.7-0.6-1.2-0.6c-0.3,0-0.6-0.2-0.8-0.4c-0.8-0.8-1.5-1.6-2.3-2.3c-0.3-0.3-0.9-0.2-1.3-0.4
		C3565.9,2045.5,3565.9,2045.5,3565.9,2045.5z"/>
	<path onclick="modals(this.id);" id="1395" class="st0" d="M3509,2026.5c1.1,0,2.2,0,3.3,0c0.5,0,0.9,0,1.2-0.6c0.2-0.4,0.6-0.5,1-0.5c1.3,0,2.6,0,3.9,0
		c0.5,0,0.8,0.1,1.1,0.5c0.3,0.5,0.8,0.9,1.2,1.3c0.1,0.1,0.4,0.2,0.5,0.2c0.2,0,0.5,0,0.7,0c0.2,0,0.3,0,0.5,0c0.6,0,2,1.2,2,1.8
		c0.1,0.5,0,0.9-0.5,1.2c-0.9,0.8-1.7,1.7-2.6,2.6c-0.5,0.5-0.9,1-1.4,1.4c-0.4,0.3-0.6,0.7-0.6,1.2c0,0.3-0.2,0.6-0.3,0.8
		c-0.2,0.3-0.5,0.5-0.7,0.8c-0.3,0.4-0.6,0.4-0.9,0c-0.3-0.5-0.7-0.7-1.2-0.7c-0.2,0-0.5-0.1-0.6-0.2c-0.8-0.7-1.5-1.5-2.2-2.3
		c-0.3-0.3-0.6-0.5-1-0.5c-0.4,0-0.8-0.1-1-0.5c-0.2-0.4-0.6-0.6-1-0.5c-0.5,0-0.8-0.2-1.1-0.6c-0.3-0.5-0.7-0.8-1.1-1.2
		c-0.1-0.1-0.4-0.2-0.5-0.2c-0.7,0.1-1.1-0.2-1.5-0.8c-0.2-0.4-0.6-0.7-1-1c-0.2-0.1-0.4-0.2-0.6-0.2c-0.2,0-0.4,0.1-0.6,0
		c-0.2-0.1-0.4-0.2-0.5-0.4c-0.1-0.1,0.1-0.4,0.2-0.5c0.3-0.3,0.5-0.6,0.9-0.8c0.3-0.2,0.7-0.3,1-0.3
		C3506.7,2026.5,3507.8,2026.5,3509,2026.5C3509,2026.5,3509,2026.5,3509,2026.5z"/>
	<path onclick="modals(this.id);" id="1405" class="st0" d="M3518.4,2053c-0.1,0.2-0.1,0.3-0.3,0.4c-0.4,0.4-0.9,0.8-1.3,1.2c-0.5,0.4-0.5,0.9-0.4,1.3
		c0.1,0.5,0.5,0.6,1,0.6c0.4,0,0.7,0.2,1,0.5c0.5,0.5,1,1,1.6,1.5c0.5,0.4,0.5,0.6,0,1c-0.8,0.7-1.6,1.4-2.3,2.1
		c-0.3,0.3-0.3,0.6,0.2,0.9c0.6,0.4,0.7,0.9,0.6,1.4c0,0.2-0.2,0.4-0.4,0.5c-0.1,0-0.4-0.1-0.5-0.2c-1.1-1.1-2.2-2.3-3.3-3.4
		c-0.2-0.2-0.5-0.3-0.7-0.3c-0.5,0-0.8-0.2-1.2-0.6c-0.8-0.9-1.6-1.6-2.4-2.4c-0.8-0.8-1.7-1.6-2.4-2.4c-0.3-0.4-0.6-0.6-1.1-0.6
		c-0.4,0-0.7-0.2-1-0.5c-0.8-0.9-1.7-1.7-2.5-2.5c-0.1-0.1-0.3-0.3-0.4-0.4c-0.7-0.8-1.4-0.8-2.1,0c-0.1,0.2-0.4,0.3-0.6,0.3
		c-0.1,0-0.3-0.2-0.3-0.3c0-0.2,0.1-0.4,0.3-0.6c0.5-0.5,1.1-1.1,1.7-1.6c0.1-0.1,0.3-0.3,0.4-0.4c0.4-0.2,0.6-0.6,0.5-1.1
		c0-0.1-0.1-0.3,0-0.4c0.1-0.2,0.2-0.4,0.4-0.5c0.1-0.1,0.4,0.1,0.5,0.2c0.3,0.6,0.8,0.7,1.4,0.7c0.2,0,0.5,0.2,0.7,0.5
		c0.3,0.4,0.6,0.5,1,0.5c0.5,0,0.8,0.1,1.1,0.6c0.3,0.5,0.7,0.8,1.1,1.2c0.2,0.1,0.4,0.2,0.6,0.2c0.5,0,1,0.1,1.3,0.6
		c0.1,0.2,0.5,0.3,0.7,0.4c0.4,0.1,0.7,0,1.1,0c0.5,0,0.8-0.1,1.1-0.5c0.6-0.8,1.4-0.7,2,0c0.2,0.2,0.5,0.5,0.8,0.5
		c0.6,0,1,0.1,1.3,0.7c0.1,0.2,0.4,0.3,0.5,0.4C3518.2,2052.7,3518.3,2052.8,3518.4,2053z"/>
	<path onclick="modals(this.id);" id="1393" class="st0" d="M3549.6,2024.8c-0.3,0.4-0.4,0.5-0.5,0.7c-1.1,1.1-2.3,2.1-3.4,3.2c-0.3,0.3-0.3,0.5,0,0.8
		c0.4,0.4,0.9,0.8,1.3,1.2c0.2,0.2,0.4,0.6,0.4,0.8c0,0.5,0.1,0.9,0.6,1.2c0.2,0.1,0.3,0.3,0.4,0.4c0.2,0.4,0.6,0.5,1,0.5
		c0.5,0,0.8,0.2,1.1,0.6c0.4,0.5,0.9,1,1.4,1.4c0.5,0.4,0.7,1.1,1.4,1.3c0.3,0.1,0.2,0.5,0,0.7c-0.2,0.1-0.6,0-0.7-0.1
		c-0.3-0.6-0.7-0.8-1.3-0.8c-0.3,0-0.6-0.2-0.7-0.4c-0.3-0.5-0.7-0.6-1.2-0.6c-0.4,0-0.7-0.1-0.9-0.5c-0.2-0.4-0.6-0.5-1-0.5
		c-0.4,0-0.8-0.1-1-0.5c-0.2-0.4-0.6-0.5-1-0.5c-0.4,0-0.8-0.1-1-0.5c-0.2-0.4-0.6-0.5-1-0.5c-0.4,0-0.8-0.1-1-0.5
		c-0.2-0.5-0.6-0.6-1.1-0.5c-0.3,0-0.7,0.1-1,0c-0.3,0-0.5-0.1-0.7-0.3c-0.4-0.4-0.9-0.8-1.2-1.3c-0.3-0.4-0.6-0.5-1-0.5
		c-0.6,0-1.2,0-1.8,0c-0.5,0-0.9-0.1-1.2-0.5c-0.1-0.2-0.4-0.4-0.7-0.6c-0.3-0.3-0.3-0.5,0-0.8c0.9-0.9,1.9-1.9,2.8-2.7
		c0.2-0.2,0.6-0.3,0.9-0.3c0.4,0,0.7-0.2,1-0.5c0.8-0.9,1.6-1.6,2.4-2.5c0.2-0.2,0.4-0.4,0.6-0.6c0.5-0.6,1.4-0.6,1.9,0
		c0.4,0.5,0.8,0.9,1.3,1.4c0.1,0.1,0.4,0.2,0.6,0.2c0.3,0,0.7,0,1,0c0.5,0,0.9,0.1,1.2,0.5c0.4,0.5,1,1,1.5,1.4
		C3549.1,2024.6,3549.3,2024.7,3549.6,2024.8z"/>
	<path onclick="modals(this.id);" id="1390" class="st0" d="M3514.2,2022.5c-0.6,0-1,0-1.3,0c-0.6,0-1.2,0-1.5,0.7c-0.1,0.2-0.5,0.3-0.8,0.4
		c-1.1,0-2.1,0-3.2,0c-0.2,0-0.6-0.1-0.7-0.3c-0.8-0.8-1.5-1.5-2.2-2.4c-0.3-0.3-0.6-0.4-1-0.4c-0.4,0-0.7-0.1-1-0.5
		c-0.4-0.5-0.8-0.9-1.2-1.3c-0.2-0.2-0.6-0.1-0.8-0.2c-0.3-0.1-0.6-0.2-0.9-0.4c-0.6-0.5-1.2-1.1-1.7-1.6c-0.1-0.1-0.3-0.4-0.3-0.6
		c0.1-0.2,0.4-0.4,0.6-0.4c0.7,0.1,1.2-0.1,1.5-0.7c0.1-0.2,0.5-0.2,0.7-0.3c0.3,0,0.7,0.1,1,0c1.4-0.3,2.3,0.5,3.1,1.5
		c0.3,0.4,0.7,0.6,1.2,0.5c0.5,0,0.9,0,1.4,0c0.7,0,1.2,0,1.6-0.7c0.1-0.2,0.5-0.3,0.8-0.3c0.5,0,0.9-0.1,1.1-0.5
		c0.2-0.4,0.5-0.5,0.9-0.5c0.4,0,0.8,0,1.2,0c0.2,0,0.5,0.1,0.6,0.2c0.8,0.7,1.5,1.5,2.2,2.3c0.3,0.3,0.6,0.6,1,0.5
		c0.5,0,0.9,0.1,1.1,0.5c0,0.1,0.1,0.1,0.1,0.2c0.3,0.3,0.6,0.5,0.7,0.8c0,0.2-0.5,0.4-0.7,0.7c-0.1,0.2-0.2,0.5-0.2,0.7
		c0,0.4-0.3,0.7-0.5,1C3516.1,2022.7,3515.1,2022.6,3514.2,2022.5z"/>
	<path onclick="modals(this.id);" id="1406" class="st0" d="M3498.4,2061.3c0,0.7,0.1,1.1,0.6,1.3c0.5,0.2,0.5,0.7,0.5,1.1c0,0.6-0.2,0.9-0.9,0.8
		c-0.6,0-1,0.2-1.3,0.7c-0.3,0.4-0.7,0.7-1,1.1c-0.2,0.2-0.5,0.3-0.7,0.3c-0.5,0-0.8,0.2-1.2,0.6c-0.8,0.9-1.6,1.6-2.4,2.4
		c-0.5,0.5-1,0.9-1.5,1.5c-0.3,0.3-0.6,0.6-1,0.5c-0.5,0-0.9,0.1-1.1,0.6c0,0.2-0.3,0.3-0.5,0.3c-0.1,0-0.4-0.2-0.4-0.4
		c0-0.2,0.2-0.5,0.3-0.5c0.6-0.2,0.7-0.6,0.6-1.1c0-0.4,0.1-0.8,0.5-1c0.4-0.2,0.5-0.5,0.5-0.9c0-1,0-2.1,0-3.1c0-0.4-0.2-0.7-0.6-1
		c-0.2-0.1-0.4-0.4-0.4-0.6c0-0.4,0.4-0.5,0.7-0.4c0.7,0.1,1-0.2,1.4-0.7c1.1-1.2,2.3-2.2,3.4-3.4c0.2-0.2,0.3-0.6,0.3-0.9
		c0-0.5,0.2-0.8,0.6-1.1c0.5-0.3,0.8-0.7,1.2-1.1c0.1-0.2,0.2-0.4,0.2-0.6c0-0.2-0.1-0.4,0-0.6c0.1-0.2,0.2-0.4,0.4-0.5
		c0.1-0.1,0.4,0.1,0.5,0.2c0.6,1.2,1.7,0.6,2.6,0.7c0.2,0,0.4-0.4,0.6-0.6c0.3-0.4,0.6-0.4,0.9,0c0.7,0.8,1.5,1.6,2.2,2.4
		c0.2,0.2,0.5,0.2,0.7,0.3c0.2,0,0.4,0,0.6,0c0.5,0.1,0.6,0.5,0.3,0.9c-0.3,0.3-0.6,0.5-0.8,0.8c-0.3,0.3-0.6,0.3-0.8,0
		c-0.4-0.5-0.8-0.9-1.1-1.4c-0.3-0.4-0.5-0.4-0.9,0c-0.9,0.9-1.8,1.8-2.7,2.8C3498.6,2060.9,3498.5,2061.2,3498.4,2061.3z"/>
	<path onclick="modals(this.id);" id="1396" class="st0" d="M3492.4,2031.4c0-0.1,0.1-0.5,0.3-0.6c0.8-0.8,1.6-1.5,2.4-2.3c0.8-0.8,1.6-1.7,2.4-2.5
		c0.1-0.1,0.3-0.3,0.4-0.4c0.4-0.2,0.5-0.6,0.5-1c0-0.5,0.1-0.8,0.6-1.1c0.2-0.1,0.3-0.3,0.5-0.5c0.5-0.6,1.3-0.7,1.9-0.1
		c0.2,0.3,0.5,0.5,0.8,0.7c0.3,0.3,0.3,0.5,0,0.8c-0.8,0.7-1.6,1.5-2.4,2.2c-0.2,0.2-0.3,0.5-0.3,0.7c0,0.8,0,1.5,0,2.3
		c0,0.6,0.2,0.8,0.8,0.9c0.5,0,1,0.1,1.2,0.6c0.2,0.4,0.6,0.4,1,0.4c0.4,0,0.7,0.1,0.9,0.4c0.2,0.5,0.6,0.6,1.1,0.6
		c0.4,0,0.7,0.2,1,0.5c0.5,0.5,1,1,1.6,1.5c0.5,0.4,0.5,0.7,0,1c-0.4,0.3-0.6,0.6-0.6,1.1c0,0.4-0.1,0.7-0.4,0.9
		c-0.5,0.5-1,1-1.5,1.5c-0.5,0.5-0.7,0.6-1,0c-0.3-0.4-0.6-0.6-1.1-0.5c-0.4,0-0.7-0.1-0.9-0.5c-0.4-0.5-0.8-0.9-1.2-1.3
		c-0.2-0.2-0.5-0.2-0.8-0.2c-0.4,0-0.7-0.2-1-0.5c-0.4-0.5-0.8-0.9-1.2-1.3c-0.1-0.1-0.4-0.2-0.5-0.2c-0.6,0-1-0.1-1.3-0.7
		c-0.3-0.4-0.7-0.8-1.1-1.1c-0.2-0.2-0.5-0.2-0.8-0.2C3492.6,2032.5,3492.4,2032.3,3492.4,2031.4z"/>
	<path onclick="modals(this.id);" id="1392" class="st0" d="M3535.9,2018.5c-0.8,0-1.5,0-2.3,0c-0.5,0-1,0.1-1.3,0.6c-0.2,0.4-0.6,0.4-1,0.4
		c-1.2,0-2.5,0-3.7,0c-0.5,0-1,0-1.3,0.6c-0.2,0.4-0.5,0.5-0.9,0.5c-1.1,0-2.1,0-3.2,0c-0.3,0-0.6-0.2-0.7-0.4
		c-0.2-0.3,0.1-0.5,0.4-0.7c0.8-0.8,1.7-1.6,2.5-2.4c0.9-0.9,1.7-1.7,2.6-2.6c0.1-0.1,0.3-0.3,0.4-0.4c0.2-0.4,0.6-0.6,1.1-0.6
		c0.4,0,0.7-0.2,1-0.5c0.7-0.8,1.4-1.5,2.2-2.3c0.4-0.4,1.3-0.4,1.7,0.1c0.3,0.5,0.7,0.7,1.2,0.6c0.2,0,0.5,0.1,0.6,0.2
		c0.8,0.7,1.5,1.5,2.2,2.2c0.9,0.9,1.7,1.7,2.6,2.5c0.5,0.4,0.4,0.5,0,1c-0.8,1-1.8,1.1-2.9,1
		C3536.7,2018.5,3536.3,2018.5,3535.9,2018.5C3535.9,2018.5,3535.9,2018.5,3535.9,2018.5z"/>
	<path onclick="modals(this.id);" id="1391" class="st0" d="M3489.5,2029.7c-0.3-0.1-0.6-0.2-0.8-0.3c-0.8-0.7-1.5-1.5-2.2-2.3c-0.3-0.4-0.6-0.6-1.1-0.5
		c-0.4,0-0.7-0.1-0.9-0.4c-0.2-0.5-0.6-0.5-1.1-0.6c-0.9,0-1.3-0.9-0.9-1.6c0.1-0.2,0.5-0.3,0.8-0.4c0.5,0,0.8-0.1,1.1-0.6
		c0.3-0.5,0.7-0.9,1.1-1.2c0.2-0.2,0.5-0.2,0.8-0.2c0.4,0,0.8-0.1,1-0.5c0.2-0.4,0.6-0.5,1-0.5c0.4,0,0.8-0.1,1-0.5
		c0.2-0.4,0.6-0.5,1-0.5c0.4,0,0.8-0.1,1-0.5c0.2-0.4,0.5-0.5,0.9-0.5c0.5,0,0.9-0.1,1.1-0.6c0.3-0.5,0.6-0.5,0.9,0
		c0.4,0.4,0.7,0.9,1.2,1.3c0.2,0.2,0.6,0.3,0.9,0.3c0.4,0,0.8,0.1,0.9,0.6c0.1,0.5,0.1,1-0.3,1.4c-1,0.9-1.9,1.9-2.8,2.8
		c-0.8,0.8-1.7,1.6-2.5,2.4c-0.2,0.2-0.4,0.4-0.4,0.7c0.1,0.7-0.2,1.1-0.8,1.5c-0.1,0.1-0.2,0.3-0.3,0.4
		C3490.1,2029.3,3489.8,2029.5,3489.5,2029.7z"/>
	<path onclick="modals(this.id);" id="1399" class="st0" d="M3513.1,2045.5c-0.9,0.1-1.4,0-1.9-0.6c-0.6-0.8-1.3-1.4-2.1-2.1c-0.2-0.2-0.5-0.2-0.8-0.2
		c-0.8-0.1-0.9-0.2-0.9-1c0-0.3,0-0.7,0-1c0-0.4,0.1-0.7,0.5-1c0.5-0.4,0.9-0.8,1.3-1.2c0.2-0.2,0.2-0.5,0.2-0.8
		c0-0.4,0.1-0.8,0.6-0.9c0.5-0.1,0.9-0.1,1.3,0.3c0.8,0.8,1.5,1.6,2.3,2.4c0.2,0.2,0.5,0.3,0.8,0.3c0.5,0,0.8,0.1,1.1,0.6
		c0.2,0.4,0.5,0.5,0.9,0.4c0.5,0,0.8,0.1,1.1,0.5c0.3,0.5,0.7,0.9,1.2,1.2c0.2,0.2,0.5,0.2,0.8,0.2c0.4,0,0.8,0.1,1,0.5
		c0.1,0.2,0.4,0.4,0.6,0.5c0.6,0.5,0.6,1.3,0,1.9c-0.9,0.9-1.8,1.8-2.6,2.7c-0.4,0.4-0.7,0.5-0.9,0c-0.3-0.5-0.7-0.6-1.2-0.6
		c-0.3,0-0.6-0.2-0.7-0.4c-0.5-0.4-0.8-1-1.3-1.3C3513.9,2045.5,3513.3,2045.5,3513.1,2045.5z"/>
	<path onclick="modals(this.id);" id="1402" class="st0" d="M3552.1,2027.5c1,0,1.2,0.2,1.3,0.9c0.1,1,0.1,1,1.1,1.1c0.4,0,0.7,0.2,0.9,0.5
		c0.4,0.5,0.8,0.9,1.2,1.3c0.2,0.2,0.5,0.2,0.8,0.2c0.4,0,0.7,0.2,0.9,0.5c0.8,0.9,1.7,1.7,2.6,2.6c0.7,0.7,1.5,1.4,2.2,2.1
		c0.3,0.3,0.2,0.5,0,0.8c-0.3,0.3-0.6,0.7-1,0.9c-0.7,0.4-0.8,0.9-0.7,1.6c0,0.4,0,0.8,0,1.2c0,0.6,0,1.2-0.7,1.5
		c-0.2,0.1-0.3,0.4-0.4,0.5c-0.5,0.5-1.3,0.5-1.8,0c-0.9-0.9-1.9-1.9-2.8-2.8c-0.5-0.5-0.5-1.3,0-1.8c0.4-0.4,0.9-0.8,1.3-1.2
		c0.4-0.3,0.4-0.6,0-0.9c-0.6-0.3-0.7-0.7-0.7-1.3c0-0.2-0.1-0.4-0.2-0.5c-0.7-0.7-1.5-1.5-2.3-2.2c-0.2-0.2-0.4-0.3-0.5-0.5
		c-0.2-0.4-0.6-0.6-1.1-0.5c-0.4,0-0.8-0.1-1-0.5c-0.1-0.2-0.4-0.4-0.6-0.5c-0.6-0.5-0.6-1.4,0-1.9c0.2-0.2,0.4-0.4,0.6-0.6
		C3551.7,2027.8,3552,2027.6,3552.1,2027.5z"/>
	<path onclick="modals(this.id);" id="1404" class="st0" d="M3535.4,2041.1c0,0.2,0,0.5,0,0.7c0,0.5,0.3,0.7,0.7,0.8c0.1,0,0.1,0,0.2,0c0.4,0,0.8-0.1,1,0.3
		c0.2,0.5-0.3,0.6-0.5,0.8c-0.2,0.2-0.3,0.5-0.4,0.8c0,0.5-0.1,0.9-0.6,1.2c-0.4,0.2-0.4,0.5-0.4,0.9c0,0.3,0,0.7,0,1
		c0,0.4,0,0.8-0.5,1c-0.5,0.2-1.1,0.1-1.4-0.3c-0.4-0.5-0.8-0.9-1.3-1.4c-0.2-0.2-0.5-0.3-0.7-0.3c-0.5,0-0.9-0.1-1.3-0.6
		c-0.4-0.5-0.9-1-1.4-1.4c-0.7-0.6-0.8-1.4,0-2c0.4-0.3,0.6-0.6,0.5-1.1c0-0.4,0.1-0.7,0.5-0.9c0.5-0.4,0.9-0.8,1.3-1.2
		c0.1-0.1,0.2-0.4,0.2-0.6c0-0.2-0.1-0.4,0-0.6c0.1-0.2,0.2-0.4,0.4-0.5c0.1-0.1,0.4,0.1,0.5,0.2c0.3,0.6,0.7,0.8,1.4,0.7
		c0.2,0,0.5,0.2,0.7,0.4c0.2,0.1,0.2,0.3,0.4,0.5C3535.4,2040.1,3535.4,2040.1,3535.4,2041.1z"/>
	<path onclick="modals(this.id);" id="1400" class="st0" d="M3524.8,2041.5c-0.6,0.1-1.1-0.1-1.6-0.7c-0.4-0.5-0.9-0.9-1.4-1.3c-0.5-0.5-0.5-1.3,0-1.8
		c0.9-0.9,1.8-1.8,2.7-2.7c0.1-0.1,0.2-0.3,0.4-0.3c0.4-0.2,0.6-0.6,0.5-1.1c0-0.4,0.2-0.7,0.5-1c0.5-0.4,1-0.9,1.5-1.5
		c0.3-0.4,0.6-0.6,1.1-0.5c0.3,0,0.5,0,0.8,0c0.5,0,0.9,0.1,1.2,0.6c0.1,0.2,0.3,0.3,0.5,0.5c0.7,0.6,0.7,1.4,0,2
		c-0.4,0.4-0.9,0.8-1.3,1.2c-0.2,0.2-0.2,0.5-0.2,0.8c0,0.4-0.1,0.7-0.5,0.9c-0.5,0.4-0.9,0.8-1.3,1.2c-0.2,0.2-0.2,0.5-0.2,0.8
		c0,0.4-0.1,0.8-0.5,1c-0.4,0.2-0.5,0.5-0.5,0.9c-0.1,1-0.2,1.1-1.2,1.1C3525.1,2041.5,3525,2041.5,3524.8,2041.5z"/>
	<path onclick="modals(this.id);" id="1409" class="st0" d="M3544.9,2055.5c-0.1,0-0.3,0-0.4,0c-0.5,0-0.9,0-1-0.6c-0.1-0.5-0.2-1,0.4-1.3
		c0.5-0.3,0.6-0.7,0.6-1.2c0-0.7,0.2-0.8,0.8-0.8c1-0.1,1-0.1,1.1-1.2c0-0.2,0.1-0.5,0.2-0.6c0.7-0.8,1.5-1.5,2.3-2.2
		c0.3-0.3,0.5-0.6,0.5-1c0-0.5,0.2-0.8,0.6-1.1c0.9-0.8,1.7-1.7,2.5-2.6c0.4-0.4,0.6-0.4,1,0c0.5,0.6,1.1,1.1,1.7,1.7
		c0.1,0.2,0.3,0.4,0.3,0.6c0,0.2-0.3,0.4-0.5,0.4c-1.3-0.3-1.6,0.9-2.4,1.4c-0.1,0.1-0.2,0.3-0.3,0.4c-0.6,0.3-0.8,0.7-0.7,1.4
		c0,0.2-0.1,0.4-0.2,0.5c-0.7,0.7-1.5,1.5-2.3,2.2c-0.4,0.3-0.6,0.6-0.5,1.1c0,0.4-0.1,0.7-0.5,1c-0.5,0.4-0.9,0.8-1.3,1.2
		C3545.8,2055.5,3545.8,2055.5,3544.9,2055.5z"/>
	<path onclick="modals(this.id);" id="1403" class="st0" d="M3545.5,2037.5c0.3,0,0.7,0,1,0c0.4,0,0.7,0.1,0.9,0.5c0.2,0.5,0.6,0.6,1.1,0.6
		c0.4,0,0.8,0.1,1,0.5c0.1,0.2,0.4,0.3,0.6,0.5c0.4,0.4,0.5,0.7,0,0.9c-0.5,0.3-0.7,0.6-0.6,1.1c0,0.4-0.2,0.7-0.5,0.9
		c-0.8,0.7-1.6,1.5-2.4,2.4c-0.4,0.5-0.8,1-1.3,1.4c-0.2,0.2-0.5,0.3-0.7,0s-0.2-0.6,0-0.7c1.2-0.5,0.7-1.5,0.8-2.3
		c0-0.2-0.2-0.5-0.4-0.8c-0.2-0.2-0.4-0.3-0.6-0.5c-0.3-0.4-0.6-0.6-1.1-0.5c-0.4,0-0.8-0.1-0.9-0.5c-0.1-0.5-0.2-1,0.3-1.3
		c0.5-0.3,0.6-0.7,0.6-1.2c0-0.7,0.2-0.8,0.9-0.9C3544.7,2037.5,3545.1,2037.5,3545.5,2037.5
		C3545.5,2037.5,3545.5,2037.5,3545.5,2037.5z"/>
	<path onclick="modals(this.id);" id="1394" class="st0" d="M3525.4,2023.5c0.5,0,1.1,0,1.6,0c0.7,0,1.2,0,1.6-0.7c0.1-0.2,0.5-0.3,0.8-0.3
		c1.1,0,2.1,0,3.2,0c0.3,0,0.7,0,0.8,0.4c0,0.2-0.3,0.5-0.5,0.7c-0.4,0.4-0.8,0.7-1.2,1.2c-0.2,0.2-0.2,0.5-0.2,0.7
		c0,0.5-0.1,0.8-0.5,1.1c-0.2,0.1-0.3,0.4-0.5,0.6c-0.4,0.4-0.6,0.5-0.9,0c-0.3-0.5-0.6-0.7-1.1-0.6c-0.4,0-0.7-0.1-0.9-0.5
		c-0.2-0.4-0.6-0.5-1-0.5c-0.4,0-0.7,0-0.9-0.4c-0.3-0.5-0.7-0.6-1.3-0.6c-0.3,0-0.7,0-1,0c-0.4,0-0.7-0.1-0.7-0.5
		c0-0.4,0.3-0.6,0.7-0.6C3523.9,2023.5,3524.6,2023.5,3525.4,2023.5C3525.4,2023.5,3525.4,2023.5,3525.4,2023.5z"/>
	<path onclick="modals(this.id);" id="1401" class="st0" d="M3534.4,2034c0-0.1,0-0.2,0-0.3c0-0.5,0-1,0.6-1.1c0.5-0.2,1.1,0,1.4,0.4
		c0.3,0.4,0.6,0.6,1.1,0.5c0.4,0,0.8,0.1,1,0.5c0.2,0.4,0.5,0.5,0.9,0.5c0.5,0,0.9,0.1,1.2,0.6c0.1,0.2,0.4,0.3,0.6,0.5
		c0.3,0.3,0.4,0.5,0.1,0.8c-0.3,0.3-0.6,0.6-0.9,0.9c-0.5,0.4-1.4,0.4-1.7-0.1c-0.4-0.7-1-0.7-1.6-0.7c-0.7,0.1-1.2-0.1-1.7-0.7
		C3534.5,2034.8,3534.4,2034.9,3534.4,2034z"/>
	<path onclick="modals(this.id);" id="1408" class="st0" d="M3541.7,2044.9c-0.3,0.4-0.5,0.5-0.6,0.7c-0.8,0.6-0.8,1.4-0.1,2c0.4,0.4,0.8,0.7,1.2,1.1
		c0.3,0.3,0.3,0.6-0.1,0.8c-0.6,0.3-0.7,0.8-0.7,1.4c0,0.2-0.2,0.6-0.5,0.7c-0.4,0.2-0.5,1.1-1.1,0.9c-0.4-0.1-0.7-0.6-1-0.9
		c-0.4-0.4-0.8-0.7-1.2-1.1c-0.3-0.3-0.3-0.6,0.1-0.8c0.6-0.3,0.8-0.7,0.7-1.4c0-0.2,0.2-0.5,0.4-0.6c0.5-0.3,0.6-0.7,0.6-1.2
		c0-0.4,0.1-0.7,0.5-0.9c0.3-0.2,0.4-0.6,0.7-0.8c0.1-0.1,0.4-0.2,0.5-0.2C3541.2,2044.6,3541.4,2044.7,3541.7,2044.9z"/>
</g>
</svg>
