<?xml version="1.0" encoding="utf-8"?>
<!-- Generator: Adobe Illustrator 19.0.0, SVG Export Plug-In . SVG Version: 6.00 Build 0)  -->
<svg version="1.1" id="Layer_1" xmlns="http://www.w3.org/2000/svg" xmlns:xlink="http://www.w3.org/1999/xlink" x="0px" y="0px"
	 viewBox="0 0 960 460" style="enable-background:new 0 0 960 460;" xml:space="preserve">
<style type="text/css">
	.st0{fill:#FFFFFF;}
</style>
<g>
	<path class="st0" d="M1231,981c-500,0-1000,0-1500,0c0-500,0-1000,0-1500c500,0,1000,0,1500,0C1231-19,1231,481,1231,981z
		 M271.8,142c-2.4,3.8-5.6,7-6.5,10.8c-1.8,7-6.4,11.3-11.7,15.2c-7.7,5.7-8.3,12.8-4.7,18.4c3.1,4.8,5.9,9.7,9.1,14.4
		c2.7,3.8,0.1,7.2-2.3,7.7c-8.1,1.4-10.5,8.7-15.4,13.3c-1.8,1.6-4.1,3.3-4.6,5.4c-1.3,5.3-1.9,10.9-2.6,16.3
		c-0.1,1.2,0.5,2.5,1,3.7c1,2.7,2.1,5.5,3.1,8.2c1.6,4.4,2.4,9.4,5,13.1c13.6,19.4,27.6,38.5,41.4,57.7c1.5,2.1,1.6,4.5-0.4,6.1
		c-4,3-8,6.6-12.6,8.4c-29,11.1-58.3,21.6-87.4,32.5c-28.1,10.4-56.1,21-84.1,31.4c-19.4,7.2-38.8,14.2-58.1,21.6
		c-10.1,3.9-10.8,4.5-7.6,14.4c1.9,5.7,4.6,12.3,12.5,13.7c2.5,0.4,5.4,2.3,6.8,4.4c4.1,5.9,9.5,11.2,11.4,18.5c0.2,0.7,1,1.3,1.5,2
		c3.4,5.1,6.4,10.5,10.3,15.1c3.6,4.3,7.6,9,12.5,11.5c5.8,3,8.5,5.2,8.7,11.7c0.1,2.9,0.5,5.9,1.5,8.6c1.8,4.5,4.3,8.7,6.3,13
		c3,6.5,5.9,13,9,19.5c1.2,2.6,3.2,5.1,3.9,7.8c2.2,8.7,3.3,17.7,9.3,25.1c2.6,3.2,4.5,6.7,4.2,11.3c-0.1,1.6,2.3,3.7,4,4.9
		c5.1,3.7,9.3,7.5,9.9,14.4c0.2,2.1,2.5,4.6,4.5,5.7c2.8,1.6,5.2,2.9,6,6.4c0.4,2,1.4,4.5,2.9,5.5c3.9,2.6,8.2,4.5,11.6,6.3
		c2.5,0,4.4,0.1,6.2,0c2.1-0.2,4.3-0.2,6.2-0.9c4.5-1.6,8.8-3.9,13.3-5.4c9.6-3.3,19.4-6.4,29.1-9.5c8.5-2.8,16.7-6.1,26.1-3.8
		c8.3,2,16.8,3.7,25.3,4.7c5.6,0.7,12.1,1.6,16.7-0.6c4.6-2.2,8.6-4.6,13.8-4.4c1.7,0,3.4-0.8,5.1-1.5c5.8-2.5,8.8-0.7,8.9,5.6
		c0,2.8,0.1,5.7,0,8.5c-0.1,4,1.5,6.6,5.5,7.5c0.9,0.2,2.2,0.9,2.4,1.6c0.9,3.3,1.7,6.6,2.1,10c0.7,5.8,5.4,8.8,11,7
		c4.1-1.3,7.9-1.2,11.8,2.2c3,2.7,7.8,3.5,11.8,5.1c1,0.4,2.3,0.3,3.4,0.5c5.7,1.4,11.3,5.3,17.4,0.8c0.7-0.5,1.9-0.3,2.9-0.3
		c4.4-0.4,8.9-0.6,13.3-1.1c14.7-1.6,29.3-3.5,44-4.9c10.3-1,14.1-5.5,12-18.5c-1.1-7-2.6-14.7,1.6-21.3c2.9-4.7,6.9-8.7,10.3-12.8
		c5.4,8.4,13.3,13,23,13.4c15.5,0.6,31,0.2,46.5,0.1c1.7,0,3.6-0.4,5.2-1c4.3-1.7,7.6-6,12.9-5.5c0.7,0.1,1.8-0.5,2.1-1.1
		c3-5.6,8.2-4.2,13-4.3c4-0.1,8.1-0.6,12,0.1c5,0.9,10.8,1.7,14.6,4.7c6.8,5.5,12.3,12.6,18.6,19.3c3-1.1,6.4-2,9.5-3.6
		c1.1-0.5,2.2-2.4,2.2-3.7c0.5-12.8,0.8-25.5,1.1-38.3c0.4-15.1,0.7-30.2,1.1-45.3c0-0.4,0.4-0.8,0.1-0.2c3.6,1,6.8,2,10,2.8
		c2.5,0.7,5.3,0.7,7.4,2c9.9,6.3,20.3,9.8,32.1,8c0.2,0,0.3,0,0.5,0c4.1-0.1,10.5-4.4,11.4-8.3c0.4-1.9,0.3-5.3-0.9-5.9
		c-3.9-2.3-4.9-5.9-5.7-9.8c-0.1-0.3-0.2-0.7-0.4-0.9c-5.4-6.2-4.8-13.5-4.3-20.9c5-0.8,9.6-1.8,14.3-2.1c5.3-0.4,7.4-2.2,7.4-7.7
		c0.1-6.2,0-12.3,0-18.5c0-1.1-0.1-3.1,0.4-3.3c5.5-2.2,2.7-6.1,2.4-9.6c-0.2-1.8,0.3-3.8,1-5.4c4.2-8.9,2.3-12.4-7.3-12.5
		c-3.3,0-4.4-1.5-4.5-4.3c-0.1-1.5,0-3,0-4.4c0.5,0.3,0.9,0.5,1.4,0.8c2.6-3.6,5.6-6.9,7.7-10.7c2.3-4.2,5.1-7.1,10.2-6.3
		c9.3,1.4,16.5-4.1,24.3-7.5c4.3-1.8,4.9-6.1,3.1-10.4c-5.4-12.6-10.4-25.3-16.2-37.8c-1.7-3.7-0.6-5.5,1.6-8.1
		c7.9-9,15.7-18.2,23.4-27.4c7.8-9.3,15.6-18.6,23.1-28.2c1.5-1.9,3.2-5.5,2.3-6.9c-1.1-2-4.5-3.3-7-3.7c-4-0.6-7.3-1.1-11.2-3.4
		c-8.6-5.1-10.8-12-10.8-21c0-2.2-1-4.8-2.4-6.7c-4.8-6.5-9-12.9-7.5-21.6c1.2-6.6-1.5-12.2-4.6-17.8c-0.7-1.3-1.3-3.2-0.9-4.5
		c1.9-7,0.6-8.8-6.8-9.3c-1.4-0.1-3-0.9-3.9-2c-4.3-5-8.2-10.3-12.6-15.2c-2.4-2.6-5.4-5.5-8.7-6.5c-6.2-1.9-8-3.6-8.6-10
		c-0.4-4.3-1.5-8.6-2.9-12.7c-0.9-2.7-2.4-6-4.6-7.3c-5.6-3.4-5.2-8.8-6.6-14c-1.7-6.4,1.2-14.9-7.4-18.8c-1.1-0.5-1.9-2.5-2-3.8
		c-0.2-3.9-2.1-6.6-4-9.9c-4.4-7.5-7.2-15.9-13.9-22.1c-1.4-1.3-1.3-4-2.5-5.7c-1.7-2.6-3.6-6.5-6-7c-5.1-1.1-6.3-5-8.2-8.5
		c-1.5-2.9-2.6-6.1-3.5-9.2c-1.2-4.4-2.1-8.9-3.2-13.3c-0.5-2.3-0.5-5.1-1.9-6.8c-4-5.3-8.5-10.3-13-15.1c-1.6-1.7-3.9-3.4-6.1-3.7
		c-3.5-0.4-4.1-2.2-4.1-4.9c0-5.5,0.4-11-0.2-16.5c-0.3-2.3-2.2-5.2-4.2-6.2c-1.5-0.7-4.3,1.2-7.4,2.2c-2.2-1.3-5.8-3.1-8.8-5.5
		c-4.7-3.9-9.6-7.8-13.2-12.6c-2.5-3.3-4.8-4.6-8.8-4.8c-6.5-0.3-13-1.2-19.5-2.1c-1.5-0.2-2.7-1.7-4.1-2.5c-4.6-3-9.1-6.3-14-8.7
		c-1.7-0.8-5.2-0.2-6.8,1.2c-4.9,4-9.2,8.6-13.8,13c-1-0.6-2.7-2.3-4.7-2.7c-5.3-1-10.7-2.1-16-2c-4.8,0.1-5.8-2.6-6.6-6.1
		c-0.4-1.6-0.2-3.4-1-4.7c-2.7-4.6-5.2-9.6-8.9-13.3c-2.2-2.3-5.7-5.3-10-3.2c-0.2,0.1-0.5-0.2-1-0.4c-0.1-1.2-0.2-2.6-0.3-4.1
		c-2.5-0.8-5-2.2-7.5-2.3c-23.9-0.5-47.9-0.8-71.8-1.1c-34.1-0.4-68.2-0.7-102.3-1c-40.3-0.4-80.5-0.7-120.8-1c-9.7-0.1-19.3,0-29,0
		c-53.6-0.3-107.2-0.7-160.8-1c-2.8,0-5.5,0-8.3,0c0,3.3,0,6,0,10c24.4,0,48.5-0.3,72.6,0.1c30,0.4,60,1.2,90,2.1
		c1.7,0,3.6,1.5,5,2.8c3.1,2.7,5.5,7.2,9,8.1c6.2,1.6,6.7,5.1,6.1,9.9c-1,8.1,2.4,14.1,7.9,19.8c2.9,2.9,4.1,7.5,6.1,11.3
		c0.5,1,0.4,2.4,1.1,3.2c4.4,4.7,3.6,11,4.7,16.5c1.1,5.6,0.5,11.6,0.1,17.4c-0.3,4.2-0.1,9.4-2.5,12.2c-4,4.7-9.6,8.4-15.1,11.4
		c-5,2.8-11,3.9-16.3,6.2c-4.6,2-9.1,4.3-13.2,7.2c-2.1,1.4-3.5,4.2-4.7,6.6c-2.5,5.4-4.5,11.1-6.9,16.5c-3.2,7.2-8.3,13.6-7.4,22.4
		c0.4,3.7-1.2,7.7-2.4,11.3c-2.7,7.7-0.6,10.9,7.4,10.9c57.7,0,115.3,0,173,0C268.6,142,270.4,142,271.8,142z"/>
	<path d="M271.8,142c-1.5,0-3.3,0-5.1,0c-57.7,0-115.3,0-173,0c-8,0-10.1-3.2-7.4-10.9c1.3-3.7,2.8-7.7,2.4-11.3
		c-0.9-8.8,4.3-15.1,7.4-22.4c2.4-5.5,4.4-11.1,6.9-16.5c1.1-2.4,2.6-5.2,4.7-6.6c4.1-2.8,8.7-5.2,13.2-7.2
		c5.3-2.3,11.3-3.5,16.3-6.2c5.5-3,11.1-6.7,15.1-11.4c2.4-2.8,2.2-8,2.5-12.2c0.4-5.8,0.9-11.8-0.1-17.4c-1-5.5-0.3-11.8-4.7-16.5
		C149.4,2.5,149.5,1,149,0c-1.9-3.8-3.2-8.4-6.1-11.3c-5.6-5.7-8.9-11.7-7.9-19.8c0.6-4.8,0.1-8.4-6.1-9.9c-3.4-0.9-5.9-5.4-9-8.1
		c-1.4-1.2-3.3-2.7-5-2.8c-30-0.8-60-1.7-90-2.1C0.9-54.3-23.2-54-47.6-54c0-4,0-6.7,0-10c2.8,0,5.5,0,8.3,0
		c53.6,0.3,107.2,0.7,160.8,1c9.7,0.1,19.3-0.1,29,0c40.3,0.3,80.5,0.6,120.8,1c34.1,0.3,68.2,0.6,102.3,1
		c23.9,0.3,47.9,0.6,71.8,1.1c2.5,0.1,5,1.5,7.5,2.3c0.1,1.5,0.2,2.8,0.3,4.1c0.4,0.2,0.8,0.5,1,0.4c4.3-2.1,7.8,0.9,10,3.2
		c3.7,3.8,6.2,8.7,8.9,13.3c0.8,1.3,0.6,3.1,1,4.7c0.8,3.5,1.8,6.2,6.6,6.1c5.3-0.1,10.7,0.9,16,2c2,0.4,3.7,2.1,4.7,2.7
		c4.6-4.4,8.9-9,13.8-13c1.6-1.3,5-2,6.8-1.2c4.9,2.4,9.4,5.7,14,8.7c1.4,0.9,2.6,2.3,4.1,2.5c6.5,0.9,13,1.8,19.5,2.1
		c3.9,0.2,6.3,1.5,8.8,4.8c3.6,4.8,8.5,8.7,13.2,12.6c3,2.5,6.6,4.2,8.8,5.5c3.1-1,5.9-3,7.4-2.2c2,1,4,3.9,4.2,6.2
		c0.6,5.4,0.2,11,0.2,16.5c0,2.7,0.6,4.5,4.1,4.9c2.2,0.2,4.5,2,6.1,3.7c4.6,4.8,9,9.8,13,15.1c1.3,1.7,1.3,4.5,1.9,6.8
		c1.1,4.4,1.9,8.9,3.2,13.3c0.9,3.2,2,6.3,3.5,9.2c1.8,3.5,3,7.4,8.2,8.5c2.4,0.5,4.3,4.4,6,7c1.1,1.7,1.1,4.5,2.5,5.7
		c6.7,6.2,9.5,14.6,13.9,22.1c1.9,3.3,3.8,6.1,4,9.9c0.1,1.3,0.9,3.3,2,3.8c8.6,3.9,5.7,12.4,7.4,18.8c1.4,5.2,1,10.6,6.6,14
		c2.2,1.3,3.7,4.6,4.6,7.3c1.4,4.1,2.5,8.4,2.9,12.7c0.6,6.4,2.4,8.1,8.6,10c3.3,1,6.2,3.9,8.7,6.5c4.4,4.8,8.3,10.2,12.6,15.2
		c0.9,1,2.6,1.9,3.9,2c7.4,0.5,8.7,2.4,6.8,9.3c-0.4,1.3,0.2,3.2,0.9,4.5c3.1,5.5,5.7,11.2,4.6,17.8c-1.5,8.7,2.7,15.1,7.5,21.6
		c1.4,1.8,2.4,4.4,2.4,6.7c0,8.9,2.2,15.9,10.8,21c3.9,2.3,7.2,2.8,11.2,3.4c2.6,0.4,5.9,1.7,7,3.7c0.8,1.4-0.9,5-2.3,6.9
		c-7.5,9.5-15.3,18.9-23.1,28.2c-7.7,9.2-15.5,18.3-23.4,27.4c-2.2,2.5-3.3,4.4-1.6,8.1c5.7,12.4,10.8,25.2,16.2,37.8
		c1.9,4.4,1.2,8.6-3.1,10.4c-7.8,3.3-15,8.9-24.3,7.5c-5.1-0.8-7.9,2.1-10.2,6.3c-2.1,3.8-5.1,7.2-7.7,10.7
		c-0.5-0.3-0.9-0.5-1.4-0.8c0,1.5,0,3,0,4.4c0.1,2.9,1.3,4.3,4.5,4.3c9.6,0.1,11.5,3.5,7.3,12.5c-0.8,1.6-1.2,3.7-1,5.4
		c0.3,3.5,3.2,7.4-2.4,9.6c-0.5,0.2-0.4,2.2-0.4,3.3c0,6.2,0,12.3,0,18.5c-0.1,5.4-2.1,7.2-7.4,7.7c-4.7,0.4-9.3,1.4-14.3,2.1
		c-0.5,7.4-1,14.7,4.3,20.9c0.2,0.2,0.4,0.6,0.4,0.9c0.8,3.9,1.8,7.5,5.7,9.8c1.1,0.7,1.3,4,0.9,5.9c-0.9,3.9-7.4,8.2-11.4,8.3
		c-0.2,0-0.3,0-0.5,0c-11.8,1.8-22.3-1.7-32.1-8c-2.1-1.3-4.9-1.3-7.4-2c-3.2-0.9-6.4-1.8-10-2.8c0.3-0.6,0-0.2-0.1,0.2
		c-0.4,15.1-0.7,30.2-1.1,45.3c-0.3,12.8-0.6,25.5-1.1,38.3c0,1.3-1.1,3.1-2.2,3.7c-3.1,1.5-6.5,2.5-9.5,3.6
		c-6.3-6.7-11.8-13.8-18.6-19.3c-3.7-3-9.5-3.8-14.6-4.7c-3.9-0.7-8-0.2-12-0.1c-4.8,0.1-10-1.3-13,4.3c-0.3,0.6-1.4,1.2-2.1,1.1
		c-5.4-0.5-8.6,3.8-12.9,5.5c-1.6,0.6-3.5,1-5.2,1c-15.5,0.1-31,0.5-46.5-0.1c-9.7-0.4-17.6-5-23-13.4c-3.4,4.1-7.4,8.1-10.3,12.8
		c-4.1,6.6-2.7,14.4-1.6,21.3c2.1,12.9-1.7,17.5-12,18.5c-14.7,1.4-29.3,3.3-44,4.9c-4.4,0.5-8.9,0.7-13.3,1.1
		c-1,0.1-2.2-0.2-2.9,0.3c-6.1,4.5-11.6,0.6-17.4-0.8c-1.1-0.3-2.3-0.1-3.4-0.5c-4-1.5-8.7-2.4-11.8-5.1c-3.9-3.5-7.7-3.5-11.8-2.2
		c-5.6,1.7-10.3-1.2-11-7c-0.4-3.4-1.2-6.7-2.1-10c-0.2-0.7-1.5-1.4-2.4-1.6c-4-1-5.6-3.6-5.5-7.5c0.1-2.8,0-5.7,0-8.5
		c-0.1-6.3-3.1-8.1-8.9-5.6c-1.6,0.7-3.4,1.6-5.1,1.5c-5.2-0.1-9.2,2.2-13.8,4.4c-4.6,2.2-11.2,1.3-16.7,0.6c-8.5-1-17-2.7-25.3-4.7
		c-9.3-2.2-17.6,1.1-26.1,3.8c-9.7,3.2-19.4,6.2-29.1,9.5c-4.5,1.6-8.8,3.8-13.3,5.4c-1.9,0.7-4.1,0.8-6.2,0.9c-1.9,0.1-3.7,0-6.2,0
		c-3.4-1.8-7.7-3.7-11.6-6.3c-1.5-1-2.5-3.5-2.9-5.5c-0.8-3.5-3.2-4.8-6-6.4c-2-1.1-4.3-3.6-4.5-5.7c-0.6-6.9-4.9-10.8-9.9-14.4
		c-1.7-1.2-4.1-3.3-4-4.9c0.3-4.6-1.6-8.1-4.2-11.3c-6-7.3-7.1-16.4-9.3-25.1c-0.7-2.8-2.6-5.2-3.9-7.8c-3-6.5-5.9-13.1-9-19.5
		c-2.1-4.4-4.6-8.6-6.3-13c-1.1-2.7-1.4-5.7-1.5-8.6c-0.2-6.5-3-8.7-8.7-11.7c-4.9-2.5-8.9-7.1-12.5-11.5
		c-3.9-4.7-6.9-10.1-10.3-15.1c-0.5-0.7-1.3-1.2-1.5-2c-1.9-7.3-7.3-12.6-11.4-18.5c-1.4-2.1-4.3-3.9-6.8-4.4
		c-7.9-1.4-10.6-8-12.5-13.7c-3.2-9.9-2.5-10.5,7.6-14.4c19.3-7.4,38.7-14.4,58.1-21.6c28.1-10.5,56.1-21,84.1-31.4
		c29.1-10.8,58.4-21.4,87.4-32.5c4.6-1.8,8.6-5.3,12.6-8.4c2.1-1.6,2-3.9,0.4-6.1c-13.8-19.2-27.9-38.3-41.4-57.7
		c-2.6-3.7-3.4-8.7-5-13.1c-1-2.7-2.1-5.4-3.1-8.2c-0.4-1.2-1.1-2.5-1-3.7c0.7-5.5,1.2-11,2.6-16.3c0.5-2.1,2.9-3.8,4.6-5.4
		c4.9-4.6,7.4-11.8,15.4-13.3c2.4-0.4,4.9-3.8,2.3-7.7c-3.2-4.6-6-9.6-9.1-14.4c-3.6-5.5-2.9-12.7,4.7-18.4
		c5.2-3.9,9.9-8.2,11.7-15.2C266.3,149,269.4,145.8,271.8,142z M657.6,144.5c-0.2-5.4-0.4-10.7-0.7-16.1c0-0.5-0.2-0.9-0.5-1.4
		c-6-10.1-12.1-20.2-18.2-30.3c-1.2-2-2.5-4-3.7-6c-0.6,0-1.2-0.1-1.8-0.1c-2,4-4,8-5,10C638.5,116.2,648.1,130.3,657.6,144.5
		c1.3,11.8-0.6,16-9.7,19c-4.4,1.5-9.3,2.3-13.9,2.4c-9.6,0.3-19.4,1.3-28.5-3.5c-1.7,12.5-11.9,17.2-22,10.5
		c-4.7-3.2-9.3-6.6-14-9.9c-0.9-0.6-2.1-0.9-3.2-1c-4.6-0.5-6-2.4-5.2-6.9c0.4-2.2,0.7-4.4,1.2-7.3c-10.9-0.7-21-1.4-32-2.1
		c1.1,3.5,2.3,6,2.6,8.7c0.3,2.7,0.7,6.1-0.5,8.3c-2.9,5.1-7.2,9.4-9.9,14.5c-2.5,4.8-6.3,11-5,15.3c4.8,15.7,6.8,32.6,17.6,46.1
		c3.6,4.6,2.2,8-3.3,9.3c-19.1,4.7-38.3,9.4-57.4,14.1c-5.5,1.4-11.4,1.9-16.3,4.6c-16.3,8.9-32.2,18.6-48.2,28
		c-16.3,9.6-32.7,19-48.8,29c-10.8,6.7-21.8,11.3-35,10.6c-8.8-0.4-17.7,1-26.6,1.9c-2,0.2-4,1.5-5.7,2.7c-4.2,2.9-8,6.8-12.5,8.9
		c-8.5,4-17.5,7-26.4,10.3c-22,8.2-43.9,16.3-65.9,24.4c-30,11.2-60.1,22.4-90.1,33.6c-18.2,6.8-36.3,13.6-54.5,20.4
		c1.7,2.3,2.9,5.7,4.8,6.2c6.4,1.7,10.6,5.4,14.2,11c5.3,8.2,11.5,15.8,17.3,23.7c1.7,2.3,3.6,4.6,4.3,7.2c1.8,6.9,6.9,9.9,12.7,13
		c6.2,3.3,10.6,8,10.6,16.4c0,5.5,3.4,10.9,5.4,16.3c0.6,1.7,1.5,3.2,2.2,4.8c1.8,4.3,3.5,8.7,5.5,12.9c2.7,5.8,6.1,11.4,8.4,17.3
		c1.7,4.3,1,10.2,3.7,13.4c6,7.1,6.4,16.8,13.1,23.6c4.7,4.8,8.6,10.1,14.8,13.2c2.9,1.5,5.8,4.1,7.4,7c2.3,4.1,3.5,8.9,4.9,12.8
		c7.2-2.8,14-5.8,21-8.1c13.4-4.5,26.8-8.9,40.3-13c4.9-1.5,10.2-5.6,15,0.5c0.4,0.6,1.9,0.3,2.8,0.5c4.3,0.8,8.6,1.7,12.9,2.5
		c2.9,0.5,5.8,1.6,8.6,1.4c13-1.1,26-2.6,38.4-7.3c3-1.1,7.4-2.8,9.4-1.6c4.7,3.1,9,7.3,9.7,13.8c0.6,6.1,1,12.4,6.2,16.9
		c0.8,0.7,1.3,1.9,1.7,3c2.4,7.4,4.5,8.8,12.4,9.3c2.3,0.1,5.4,0.9,6.6,2.5c5.1,6.7,12.7,6.8,19.5,7.1c8.6,0.3,17.2-1.8,25.9-2.6
		c10.6-1.1,21.3-2,31.9-3.1c4.1-0.4,8.2-1.2,10.9-1.7c0-8.8-0.2-16.8,0.1-24.7c0.1-3,0.7-6.3,2.1-8.9c3.1-5.4,7.5-10,10.4-15.5
		c4.6-8.6,11.8-10.3,20.4-9.3c4.7,0.5,7.1,4.5,5.4,9c-0.4,1.1-0.9,2.2-1.4,3.3c10.6,5,20.9,9.1,32.7,7.8c6.5-0.7,13.2-0.1,19.8-0.2
		c1.5,0,3.4-0.6,4.4-1.7c2.8-2.9,5.8-4.8,10-4.3c0.7,0.1,1.8-0.3,2.2-0.9c3.9-5.8,9.9-5.4,15.7-5c9.7,0.6,20-2.4,29,3.8
		c0.6,0.4,1.7-0.1,2.4,0.2c2.5,1,5.3,1.7,7.3,3.3c3.8,3.1,7,6.9,10.8,10.7c0.6-4.3,1.4-7.9,1.4-11.4c0.4-22.1,0.8-44.2,1-66.3
		c0-4.3,1.3-8.2,5.2-9.2c4.2-1,10.8-1.9,13,0.4c3.8,3.9,7.3,4.4,11.9,4.6c1.4,0.1,2.7,1.6,4.2,2.4c6.9,4,13.5,9.1,22.4,7
		c-0.5-2.3-0.4-5-1.5-7c-5-8.9-5.6-18.4-5-28.2c0.1-1.9,0.8-3.8,1.7-5.5c3.1-6.6,10-5.1,15.3-6.7c2.7-0.8,4.1-1.6,4.4-4.2
		c0.3-2.6,0.3-5.3,0.6-7.9c0.6-4.7,1.6-9.3,1.8-14c0.1-3.1,0.4-7.5-1.4-9c-7.6-6.5-10.7-14.2-8.3-24.1c0.3-1.4,1.3-2.7,2.2-3.7
		c3-3.5,6.3-6.8,9.2-10.4c4.2-5.1,8-10.4,16.1-9c6.9,1.2,12.6-2.2,18.2-6.3c-5.6-13.2-11.3-26.1-16.6-39.2c-0.8-2.1-0.9-5.6,0.3-7.2
		c8.1-10.3,16.7-20.3,25.1-30.4c6.5-7.9,12.7-15.9,19.2-23.9c-6.3-5-11.6-9.1-16.7-13.5c-1.4-1.2-2.4-3.1-3-4.9
		c-2.1-7-3.8-14.1-6.1-21c-1-2.8-2.8-6.1-5.2-7.4c-4.3-2.4-5-5.6-4.8-9.8c0.1-3.2,0.4-6.4-0.1-9.5c-0.4-2.4-1.3-5.8-3-6.7
		c-5.7-2.9-5.1-7.3-4.3-12.4c-7.1-3.2-9.1-10.3-12.3-16.5c-2-3.9-4.8-6-8.9-7.5c-5.3-1.9-10.7-4-11.5-11.2c-0.6-5.1-2.2-10.1-3.9-15
		c-0.8-2.4-2.8-4.5-4.5-6.5c-1.6-2-4.3-3.5-5-5.7c-1.5-4.4-1.9-9.2-2.8-13.8c-2.5-1.2-4.1-3.1-5.8-4.9
		C659.8,146.5,658.7,145.5,657.6,144.5z M243.4,241.4c0.8,0.3,1.6,0.5,2.4,0.8c1.4,5.2,2.8,10.4,4.2,15.7c0.4,1.5,0.3,3.4,1.1,4.6
		c14.6,20.7,29.2,41.3,44.1,61.8c1,1.4,3.5,2.6,5.3,2.6c10-0.4,20.1-0.9,30.1-2c5.4-0.6,10.7-1.3,15.7-4.4
		c16.8-10.2,33.9-19.7,50.8-29.6c2.5-1.4,4.6-3.5,6.9-5.2c1.8-1.3,3.5-2.7,5.5-3.7c1.2-0.6,3-0.4,4.2-1.1c6.4-3.6,12.8-7.3,19-11.2
		c12.2-7.6,24.6-14.2,39.1-17.1c17.4-3.5,34.6-8.6,51.7-12.9c-1.5-3.1-3.4-5.9-4.4-8.9c-3.9-11.9-7.7-23.8-11.3-35.8
		c-0.7-2.2-0.4-4.8,0-7.2c1.4-9.9,7.4-17.6,13.3-25.2c2.1-2.7,3.3-5.1,1.7-8.6c-4.6-10.2-7.4-21-7.4-32.2c0-9.2,1.5-18.4,2.3-27.8
		c-0.8-0.2-2.7-0.7-4.6-1.1c-3.8-0.9-7.4-1.6-7.2-7c0.1-1.3-2.4-2.6-3.5-4.1c-1.2-1.5-2.3-3.2-3.2-4.9c-0.5-1-0.5-2.2-0.8-3.3
		c-3.2-10.7-6.4-21.4-9.8-32.7c-2-0.8-5.2-3-8.4-2.9c-12.5,0.3-23.1-4.1-33.5-10.7c-10.3-6.6-15.8-20.1-14-32.3
		c1.2-7.5,7-10.2,10.8-14.9c4.9-6,11.7-9,19.5-10.8c-5.7-8.7-11.3-17-22.5-18.3c-9.3-1-18.7-0.8-28.2-1.7
		c-19.6-1.8-39.5-1.2-59.3-1.3c-38-0.2-76-0.3-113.9-0.3c-33.5,0-67,0.2-100.5,0.3c-1,0-2,0.2-2.9,0.3c-0.3,0.4-0.7,0.7-1,1.1
		c12.1,2.1,12,10.4,11.4,19.1c0,0.3,0,0.7,0,1c-0.5,3.4,1,5.7,3.2,8.3c4.8,5.6,12.3,9.7,11.7,18.7c0,0.3,0.2,0.7,0.4,0.9
		c4.8,5.6,3.2,12.9,4.4,19.2c1.5,8.2,1,17,0.2,25.4c-0.6,6.5-1.2,13.5-7.4,17.9c-2.7,1.9-5.6,3.6-7.8,5.9
		c-5.7,6.1-13.3,7.7-20.7,10.1c-5.5,1.8-10.4,5.3-15.5,8.1c-0.2,0.1-0.3,0.6-0.4,0.9c-2.5,8.9-6.7,16.9-11.5,24.9
		c-3.4,5.7-3,13.6-4.4,20.9c2.3,0,4.3,0,6.3,0c57.8,0,115.7,0,173.5,0c1.3,0,2.7-0.1,4,0c5.2,0.5,7.2,4.5,4.6,9
		c-0.4,0.7-1.4,1.6-1.3,2c2.1,4.5-1,7.2-3.9,9c-5.2,3.2-5.6,8.5-7.3,13.2c-1.9,5.2-3.8,10.1-9.7,12.2c-2.3,0.8-4.2,2.5-6.3,3.8
		c2.7,3.1,6.1,5.3,6.7,8.1c1.4,5.9,6.1,8.6,9.4,12.6c1.4,1.7,2.3,4.8,1.8,6.8c-0.6,2.3-3.2,5.9-4.8,5.9c-5.4-0.2-8,3-10.8,6.5
		C254.8,227.2,249.1,234.3,243.4,241.4z M629.2,81.9c-2.3-6.7-4-12.9-6.4-18.8c-1.6-4-2.8-7.9-6.8-10.9c-4.5-3.4-7.5-8.6-11.4-12.8
		c-1.2-1.3-3.4-1.5-5-2.4c-2.1-1.2-5.2-2.2-5.9-4.1c-1.5-4.2-2.1-8.8-2.6-13.3c-0.6-5.3-0.8-10.8-6.1-13.7c-4-2.2-7-7.5-13-5
		c-0.5,0.2-1.6-0.4-2.2-0.9c-3.7-2.9-7.4-5.9-11.2-8.8c-1.4-1.1-3.1-1.8-5.2-3c-0.3,1.8-0.4,2.4-0.4,3.1c0,24.1,0,48.3-0.1,72.4
		c0,3.2,1.7,3.7,4.1,4.4c10,2.6,20.1,5.9,27.4,13.3c5.6,5.6,11.4,7.8,19,7.9c5.5,0.1,10.9,2.2,15.7,3.2
		C622.4,89,626.1,85.2,629.2,81.9z M491.6-11.8c0,3.6,1,7-0.2,9.6c-4.4,9.7-7.1,19.9-8.9,30.3c-0.3,1.8,0.5,5.2,1.6,5.5
		c4.4,1.5,9.2,3.1,13.6,2.7c8.8-0.9,16.1-5.5,22.8-11.4c1.4-1.3,4.1-1.6,6.2-1.5c5.6,0.4,11.2,1.4,17.2,2.2
		c0-12.6,0.1-23.9-0.1-35.2c0-1.2-1.4-3-2.5-3.4c-3-1.1-7.2-0.5-9.3-2.4c-4.6-4.2-15-2.3-13.2-14c-3.1,1.5-6.4,2-7,3.5
		c-3.4,8.4-9.7,12.1-18.2,13.1C492.8-12.5,492-11.9,491.6-11.8z M574.4,105c1.7-4.6,3.5-8.4,4.4-12.5c0.4-1.6-0.8-4.7-2.1-5.3
		c-6.8-3.4-13.9-6.3-21-9.1c-1.1-0.4-3.5,0-3.9,0.8c-3.1,5.5-7.9,7.6-14,8.3c-2.9,0.4-6.7,2.3-7.9,4.7c-2.4,4.6-4.1,10-4.8,15.2
		c-1.2,9.5-1.6,19.2,1.6,29c10.5,0.7,21.2,1.4,30.4,2c1.4-5.9,2.2-10.8,3.8-15.4c1.2-3.7,3.9-7.1,4.9-10.8
		C567.1,107.1,568.8,103.8,574.4,105z M500.5,47c1.1,5,2,10.5,3.7,15.7c1.5,4.6,3.4,9.1,7.9,12c1.1,0.7,1.7,2.7,2,4.2
		c1.1,6.1,4.5,7.3,9.8,4.1c3.7-2.2,8-3.5,12-5c3.1-1.1,7.2-0.8,8.2-4.8c0.6-2.4,0-5,0-7.6c0-8.8-0.2-17.6,0.1-26.4
		c0.1-4-1.6-5.2-5.2-5.2c-7.4,0.1-14.7-0.8-21.4,4.8C512.8,42.7,506.3,44.3,500.5,47z M584.9,104.3c1.8,0.7,3.6,1,4.7,2
		c5.3,4.7,11.4,9,15.4,14.7c6.2,8.8,11,18.6,6.5,30c-1,2.6-0.1,3.4,2.3,4.2c10.3,3.5,20.4,2.2,30.4-0.9c4.9-1.5,5.5-4.6,2.6-8.9
		c-4.3-6.3-8.7-12.6-13-19c-3.6-5.3-8.2-10.2-10.3-16c-1.7-4.6-3.9-5.8-8-6.4c-4-0.6-9-0.6-11.5-3c-3.1-2.9-5.9-2.8-9.2-2.9
		c-1.2,0-2.5,0.1-3.4-0.3c-2.7-1.3-3.9-0.5-4.5,2.4C586.6,101.4,585.7,102.7,584.9,104.3z M471.8,28c3.2-10.7,6.2-21,9.3-31.2
		c1.3-4.2-3.6-11.8-7.9-11.7c-5.5,0.1-8.2-2.3-8.5-8.9c-8,6.3-15.2,12-22.4,17.7c0.7,0.4,1.4,0.7,2.1,1.1c-0.2,3.1,0.1,6.4-0.6,9.4
		c-1,4.3-0.8,8.1,2.8,10.8C454.3,20.9,462.1,26.6,471.8,28z M571.3,153.1c5.3,3.5,10.7,7.2,16.1,10.8c5.3,3.5,7.4,2.5,8.7-3.6
		c0.6-2.7,2.4-5.1,3.8-7.7c0.7-1.3,1.6-2.4,2.1-3.7c4.3-10.4-4.6-24.7-12.7-31c-4.4-3.4-8.7-4.9-13.2-3.6c-1.7,4.3-2.4,8.9-5,11.8
		c-3.9,4.3-3.6,9.2-1.3,12.6C573.1,143.4,571.7,147.6,571.3,153.1z"/>
	<path class="st0" d="M657.6,144.5c1.1,1,2.2,2,3.2,3.1c1.7,1.8,3.3,3.7,5.8,4.9c0.9,4.6,1.4,9.4,2.8,13.8c0.7,2.2,3.4,3.7,5,5.7
		c1.7,2.1,3.6,4.1,4.5,6.5c1.7,4.9,3.3,9.9,3.9,15c0.8,7.3,6.2,9.3,11.5,11.2c4.1,1.5,6.9,3.6,8.9,7.5c3.2,6.2,5.3,13.3,12.3,16.5
		c-0.8,5.1-1.4,9.5,4.3,12.4c1.7,0.9,2.6,4.3,3,6.7c0.5,3.1,0.3,6.3,0.1,9.5c-0.2,4.2,0.5,7.4,4.8,9.8c2.4,1.3,4.2,4.6,5.2,7.4
		c2.4,6.9,4,14,6.1,21c0.6,1.8,1.6,3.7,3,4.9c5.1,4.4,10.4,8.5,16.7,13.5c-6.4,8-12.7,16-19.2,23.9c-8.3,10.2-17,20.1-25.1,30.4
		c-1.2,1.6-1.1,5.1-0.3,7.2c5.3,13.1,11,26.1,16.6,39.2c-5.6,4.1-11.3,7.5-18.2,6.3c-8.2-1.5-11.9,3.9-16.1,9
		c-3,3.6-6.2,6.9-9.2,10.4c-0.9,1.1-1.9,2.4-2.2,3.7c-2.5,9.9,0.7,17.6,8.3,24.1c1.8,1.5,1.5,5.9,1.4,9c-0.2,4.7-1.2,9.3-1.8,14
		c-0.3,2.6-0.3,5.3-0.6,7.9c-0.3,2.6-1.7,3.4-4.4,4.2c-5.3,1.5-12.2,0.1-15.3,6.7c-0.8,1.7-1.5,3.7-1.7,5.5c-0.6,9.8,0,19.4,5,28.2
		c1.1,2,1,4.7,1.5,7c-8.9,2.1-15.5-3.1-22.4-7c-1.4-0.8-2.7-2.4-4.2-2.4c-4.6-0.2-8.1-0.7-11.9-4.6c-2.2-2.3-8.7-1.4-13-0.4
		c-3.9,0.9-5.2,4.9-5.2,9.2c-0.2,22.1-0.5,44.2-1,66.3c-0.1,3.5-0.9,7.1-1.4,11.4c-3.8-3.8-7.1-7.6-10.8-10.7
		c-2-1.7-4.8-2.3-7.3-3.3c-0.7-0.3-1.9,0.2-2.4-0.2c-9-6.2-19.2-3.3-29-3.8c-5.8-0.3-11.8-0.8-15.7,5c-0.4,0.5-1.5,0.9-2.2,0.9
		c-4.2-0.5-7.2,1.4-10,4.3c-1,1-2.9,1.6-4.4,1.7c-6.6,0.2-13.3-0.5-19.8,0.2c-11.8,1.3-22.1-2.8-32.7-7.8c0.5-1.1,1-2.2,1.4-3.3
		c1.6-4.5-0.8-8.4-5.4-9c-8.7-1-15.8,0.7-20.4,9.3c-2.9,5.5-7.3,10.1-10.4,15.5c-1.5,2.5-2,5.9-2.1,8.9c-0.3,7.9-0.1,15.8-0.1,24.7
		c-2.7,0.4-6.8,1.2-10.9,1.7c-10.6,1.1-21.3,2-31.9,3.1c-8.6,0.9-17.3,3-25.9,2.6c-6.7-0.3-14.4-0.4-19.5-7.1
		c-1.2-1.6-4.3-2.3-6.6-2.5c-7.9-0.5-10-1.9-12.4-9.3c-0.3-1.1-0.9-2.3-1.7-3c-5.2-4.5-5.6-10.8-6.2-16.9
		c-0.6-6.5-4.9-10.7-9.7-13.8c-2-1.3-6.4,0.4-9.4,1.6c-12.4,4.7-25.4,6.2-38.4,7.3c-2.8,0.2-5.7-0.9-8.6-1.4
		c-4.3-0.8-8.6-1.7-12.9-2.5c-1-0.2-2.4,0.1-2.8-0.5c-4.9-6.1-10.2-2-15-0.5c-13.5,4.1-27,8.5-40.3,13c-7,2.4-13.8,5.3-21,8.1
		c-1.5-4-2.6-8.7-4.9-12.8c-1.6-2.8-4.4-5.5-7.4-7c-6.2-3.2-10.1-8.4-14.8-13.2c-6.7-6.8-7.1-16.5-13.1-23.6
		c-2.7-3.2-2-9.1-3.7-13.4c-2.4-5.9-5.7-11.5-8.4-17.3c-2-4.2-3.6-8.6-5.5-12.9c-0.7-1.6-1.6-3.1-2.2-4.8c-2-5.4-5.4-10.9-5.4-16.3
		c0-8.4-4.4-13.1-10.6-16.4c-5.8-3.1-10.9-6-12.7-13c-0.7-2.6-2.7-4.9-4.3-7.2c-5.8-7.9-12-15.5-17.3-23.7c-3.6-5.6-7.8-9.2-14.2-11
		c-1.9-0.5-3.1-3.9-4.8-6.2c18.2-6.8,36.4-13.7,54.5-20.4c30-11.2,60.1-22.4,90.1-33.6c22-8.2,44-16.3,65.9-24.4
		c8.8-3.3,17.8-6.3,26.4-10.3c4.6-2.1,8.3-6,12.5-8.9c1.7-1.2,3.7-2.5,5.7-2.7c8.8-0.9,17.8-2.3,26.6-1.9c13.2,0.6,24.2-3.9,35-10.6
		c16.1-9.9,32.5-19.4,48.8-29c16-9.4,31.9-19.1,48.2-28c4.8-2.6,10.8-3.2,16.3-4.6c19.1-4.7,38.3-9.4,57.4-14.1
		c5.5-1.4,7-4.8,3.3-9.3c-10.8-13.5-12.7-30.5-17.6-46.1c-1.3-4.2,2.5-10.5,5-15.3c2.7-5.1,7.1-9.4,9.9-14.5
		c1.2-2.2,0.8-5.6,0.5-8.3c-0.3-2.7-1.5-5.2-2.6-8.7c11,0.7,21.1,1.4,32,2.1c-0.5,2.9-0.8,5.1-1.2,7.3c-0.8,4.5,0.6,6.4,5.2,6.9
		c1.1,0.1,2.3,0.4,3.2,1c4.7,3.2,9.2,6.7,14,9.9c10.1,6.7,20.3,2.1,22-10.5c9.1,4.8,18.9,3.7,28.5,3.5c4.7-0.1,9.5-0.9,13.9-2.4
		C657,160.4,658.9,156.3,657.6,144.5L657.6,144.5z"/>
	<path class="st0" d="M243.4,241.4c5.7-7.1,11.4-14.3,17.1-21.4c2.8-3.5,5.4-6.7,10.8-6.5c1.6,0.1,4.1-3.5,4.8-5.9
		c0.5-2-0.4-5.1-1.8-6.8c-3.3-4-8-6.7-9.4-12.6c-0.7-2.8-4.1-5-6.7-8.1c2.1-1.3,4-3,6.3-3.8c5.8-2.1,7.8-7,9.7-12.2
		c1.7-4.8,2.1-10.1,7.3-13.2c2.9-1.7,6-4.5,3.9-9c-0.2-0.4,0.9-1.3,1.3-2c2.7-4.5,0.7-8.5-4.6-9c-1.3-0.1-2.7,0-4,0
		c-57.8,0-115.7,0-173.5,0c-2,0-4,0-6.3,0c1.4-7.3,1-15.2,4.4-20.9c4.8-8,9-16,11.5-24.9c0.1-0.3,0.1-0.8,0.4-0.9
		c5.1-2.8,10-6.3,15.5-8.1c7.4-2.5,15-4.1,20.7-10.1c2.2-2.3,5.1-4,7.8-5.9c6.3-4.4,6.8-11.5,7.4-17.9c0.8-8.4,1.4-17.2-0.2-25.4
		c-1.2-6.4,0.4-13.6-4.4-19.2c-0.2-0.2-0.4-0.6-0.4-0.9c0.7-9-6.9-13.1-11.7-18.7c-2.2-2.6-3.8-4.9-3.2-8.3c0.1-0.3,0-0.7,0-1
		c0.6-8.7,0.7-17-11.4-19.1c0.3-0.4,0.7-0.7,1-1.1c1-0.1,2-0.3,2.9-0.3c33.5-0.1,67-0.3,100.5-0.3c38,0,76,0.1,113.9,0.3
		c19.8,0.1,39.7-0.5,59.3,1.3c9.4,0.9,18.8,0.6,28.2,1.7c11.1,1.2,16.8,9.6,22.5,18.3c-7.9,1.7-14.6,4.8-19.5,10.8
		c-3.9,4.7-9.7,7.4-10.8,14.9c-1.9,12.2,3.6,25.7,14,32.3c10.3,6.6,21,11,33.5,10.7c3.2-0.1,6.4,2.2,8.4,2.9
		c3.4,11.3,6.6,22,9.8,32.7c0.3,1.1,0.3,2.3,0.8,3.3c0.9,1.7,2,3.4,3.2,4.9c1.1,1.4,3.6,2.8,3.5,4.1c-0.2,5.4,3.4,6.1,7.2,7
		c1.9,0.4,3.8,0.9,4.6,1.1c-0.8,9.4-2.3,18.6-2.3,27.8c0,11.2,2.8,22,7.4,32.2c1.6,3.5,0.4,5.9-1.7,8.6
		c-5.9,7.6-11.8,15.3-13.3,25.2c-0.3,2.4-0.6,5,0,7.2c3.6,12,7.4,23.9,11.3,35.8c1,3,2.8,5.8,4.4,8.9c-17.1,4.3-34.2,9.4-51.7,12.9
		c-14.5,2.9-26.9,9.5-39.1,17.1c-6.3,3.9-12.6,7.5-19,11.2c-1.2,0.7-2.9,0.4-4.2,1.1c-1.9,1-3.7,2.4-5.5,3.7
		c-2.3,1.7-4.4,3.7-6.9,5.2c-16.9,9.9-34.1,19.4-50.8,29.6c-5,3-10.3,3.8-15.7,4.4c-10,1.1-20,1.6-30.1,2c-1.8,0.1-4.3-1.1-5.3-2.6
		c-14.8-20.5-29.5-41.1-44.1-61.8c-0.8-1.2-0.7-3.1-1.1-4.6c-1.4-5.2-2.8-10.4-4.2-15.7C245,242,244.2,241.7,243.4,241.4z"/>
	<path class="st0" d="M629.2,81.9c-3.2,3.3-6.8,7.1-10.1,10.6c-4.7-1-10.2-3.1-15.7-3.2c-7.7-0.1-13.4-2.3-19-7.9
		C577.1,73.9,567,70.6,557,68c-2.4-0.6-4.1-1.2-4.1-4.4c0.1-24.1,0.1-48.3,0.1-72.4c0-0.6,0.2-1.3,0.4-3.1c2.1,1.2,3.8,1.9,5.2,3
		c3.8,2.9,7.4,5.9,11.2,8.8c0.6,0.5,1.7,1.1,2.2,0.9c5.9-2.5,8.9,2.8,13,5c5.3,2.9,5.4,8.4,6.1,13.7c0.5,4.5,1.1,9.1,2.6,13.3
		c0.7,1.8,3.8,2.9,5.9,4.1c1.6,0.9,3.8,1.1,5,2.4c3.9,4.2,7,9.4,11.4,12.8c4,3,5.2,7,6.8,10.9C625.2,69,627,75.1,629.2,81.9z"/>
	<path class="st0" d="M491.6-11.8c0.4-0.2,1.2-0.8,2.1-0.9c8.5-1,14.8-4.7,18.2-13.1c0.6-1.5,3.8-2,7-3.5c-1.8,11.8,8.5,9.9,13.2,14
		c2.1,1.9,6.2,1.3,9.3,2.4c1.1,0.4,2.5,2.2,2.5,3.4c0.2,11.3,0.1,22.6,0.1,35.2c-6.1-0.8-11.6-1.8-17.2-2.2c-2-0.2-4.8,0.2-6.2,1.5
		c-6.6,5.9-14,10.6-22.8,11.4c-4.5,0.4-9.2-1.2-13.6-2.7c-1.1-0.4-1.9-3.7-1.6-5.5c1.8-10.4,4.5-20.6,8.9-30.3
		C492.6-4.7,491.6-8.2,491.6-11.8z"/>
	<path class="st0" d="M574.4,105c-5.7-1.2-7.3,2.2-8.6,6.9c-1,3.8-3.7,7.1-4.9,10.8c-1.5,4.6-2.4,9.5-3.8,15.4
		c-9.1-0.6-19.8-1.3-30.4-2c-3.2-9.8-2.8-19.5-1.6-29c0.6-5.2,2.3-10.6,4.8-15.2c1.2-2.4,5-4.3,7.9-4.7c6.1-0.8,10.9-2.8,14-8.3
		c0.5-0.8,2.9-1.3,3.9-0.8c7.1,2.8,14.1,5.7,21,9.1c1.3,0.7,2.4,3.7,2.1,5.3C577.9,96.6,576.1,100.4,574.4,105z"/>
	<path class="st0" d="M500.5,47c5.8-2.7,12.4-4.3,17-8.2c6.7-5.6,13.9-4.7,21.4-4.8c3.6-0.1,5.3,1.1,5.2,5.2
		c-0.3,8.8-0.1,17.6-0.1,26.4c0,2.5,0.6,5.2,0,7.6c-1.1,4-5.2,3.7-8.2,4.8c-4.1,1.5-8.4,2.7-12,5c-5.3,3.2-8.7,2.1-9.8-4.1
		c-0.3-1.5-0.8-3.5-2-4.2c-4.5-2.9-6.4-7.4-7.9-12C502.5,57.5,501.6,52,500.5,47z"/>
	<path class="st0" d="M584.9,104.3c0.8-1.6,1.7-2.9,2-4.3c0.6-2.8,1.7-3.7,4.5-2.4c1,0.5,2.3,0.3,3.4,0.3c3.3,0.1,6.1,0,9.2,2.9
		c2.5,2.4,7.5,2.5,11.5,3c4.1,0.6,6.3,1.8,8,6.4c2.1,5.8,6.7,10.7,10.3,16c4.3,6.3,8.7,12.6,13,19c2.9,4.3,2.3,7.4-2.6,8.9
		c-10,3.1-20.1,4.4-30.4,0.9c-2.4-0.8-3.3-1.6-2.3-4.2c4.5-11.4-0.2-21.2-6.5-30c-4-5.7-10.1-10-15.4-14.7
		C588.5,105.3,586.7,105,584.9,104.3z"/>
	<path class="st0" d="M471.8,28c-9.7-1.4-17.5-7.1-25.2-12.8c-3.6-2.7-3.8-6.6-2.8-10.8c0.7-3,0.4-6.3,0.6-9.4
		c-0.7-0.4-1.4-0.7-2.1-1.1c7.2-5.7,14.4-11.4,22.4-17.7c0.2,6.6,3,9,8.5,8.9c4.3-0.1,9.1,7.6,7.9,11.7C478,7,475,17.3,471.8,28z"/>
	<path class="st0" d="M571.3,153.1c0.4-5.5,1.8-9.7-1.6-14.4c-2.3-3.3-2.6-8.2,1.3-12.6c2.6-2.9,3.3-7.5,5-11.8
		c4.6-1.3,8.8,0.2,13.2,3.6c8.2,6.3,17,20.6,12.7,31c-0.5,1.3-1.4,2.5-2.1,3.7c-1.3,2.5-3.2,5-3.8,7.7c-1.3,6.1-3.4,7.1-8.7,3.6
		C582,160.3,576.6,156.6,571.3,153.1z"/>
	<path class="st0" d="M657.7,144.4c-9.6-14.1-19.2-28.2-29.9-43.9c1-2,3-6,5-10c0.6,0,1.2,0.1,1.8,0.1c1.2,2,2.5,4,3.7,6
		c6.1,10.1,12.1,20.2,18.2,30.3c0.2,0.4,0.5,0.9,0.5,1.4C657.2,133.7,657.4,139.1,657.7,144.4C657.6,144.5,657.7,144.4,657.7,144.4z
		"/>
</g>
</svg>
