<?xml version="1.0" encoding="utf-8"?>
<!-- Generator: Adobe Illustrator 19.0.0, SVG Export Plug-In . SVG Version: 6.00 Build 0)  -->
<svg version="1.1" id="Layer_1" xmlns="http://www.w3.org/2000/svg" xmlns:xlink="http://www.w3.org/1999/xlink" x="0px" y="0px"
	 viewBox="0 0 1920 1110" style="enable-background:new 0 0 1920 1110;" xml:space="preserve">
<style type="text/css">
	.st0{fill:#FFFFFF;}
</style>
<path d="M866.8,390c-1.5,0-3.3,0-5.1,0c-57.7,0-115.3,0-173,0c-8,0-10.1-3.2-7.4-10.9c1.3-3.7,2.8-7.7,2.4-11.3
	c-0.9-8.8,4.3-15.1,7.4-22.4c2.4-5.5,4.4-11.1,6.9-16.5c1.1-2.4,2.6-5.2,4.7-6.6c4.1-2.8,8.7-5.2,13.2-7.2
	c5.3-2.3,11.3-3.5,16.3-6.2c5.5-3,11.1-6.7,15.1-11.4c2.4-2.8,2.2-8,2.5-12.2c0.4-5.8,0.9-11.8-0.1-17.4c-1-5.5-0.3-11.8-4.7-16.5
	c-0.7-0.8-0.6-2.2-1.1-3.2c-1.9-3.8-3.2-8.4-6.1-11.3c-5.6-5.7-8.9-11.7-7.9-19.8c0.6-4.8,0.1-8.4-6.1-9.9c-3.4-0.9-5.9-5.4-9-8.1
	c-1.4-1.2-3.3-2.7-5-2.8c-30-0.8-60-1.7-90-2.1c-24.1-0.3-48.2-0.1-72.6-0.1c0-4,0-6.7,0-10c2.8,0,5.5,0,8.3,0
	c53.6,0.3,107.2,0.7,160.8,1c9.7,0.1,19.3-0.1,29,0c40.3,0.3,80.5,0.6,120.8,1c34.1,0.3,68.2,0.6,102.3,1
	c23.9,0.3,47.9,0.6,71.8,1.1c2.5,0.1,5,1.5,7.5,2.3c0.1,1.5,0.2,2.8,0.3,4.1c0.4,0.2,0.8,0.5,1,0.4c4.3-2.1,7.8,0.9,10,3.2
	c3.7,3.8,6.2,8.7,8.9,13.3c0.8,1.3,0.6,3.1,1,4.7c0.8,3.5,1.8,6.2,6.6,6.1c5.3-0.1,10.7,0.9,16,2c2,0.4,3.7,2.1,4.7,2.7
	c4.6-4.4,8.9-9,13.8-13c1.6-1.3,5-2,6.8-1.2c4.9,2.4,9.4,5.7,14,8.7c1.4,0.9,2.6,2.3,4.1,2.5c6.5,0.9,13,1.8,19.5,2.1
	c3.9,0.2,6.3,1.5,8.8,4.8c3.6,4.8,8.5,8.7,13.2,12.6c3,2.5,6.6,4.2,8.8,5.5c3.1-1,5.9-3,7.4-2.2c2,1,4,3.9,4.2,6.2
	c0.6,5.4,0.2,11,0.2,16.5c0,2.7,0.6,4.5,4.1,4.9c2.2,0.2,4.5,2,6.1,3.7c4.6,4.8,9,9.8,13,15.1c1.3,1.7,1.3,4.5,1.9,6.8
	c1.1,4.4,1.9,8.9,3.2,13.3c0.9,3.2,2,6.3,3.5,9.2c1.8,3.5,3,7.4,8.2,8.5c2.4,0.5,4.3,4.4,6,7c1.1,1.7,1.1,4.5,2.5,5.7
	c6.7,6.2,9.5,14.6,13.9,22.1c1.9,3.3,3.8,6.1,4,9.9c0.1,1.3,0.9,3.3,2,3.8c8.6,3.9,5.7,12.4,7.4,18.8c1.4,5.2,1,10.6,6.6,14
	c2.2,1.3,3.7,4.6,4.6,7.3c1.4,4.1,2.5,8.4,2.9,12.7c0.6,6.4,2.4,8.1,8.6,10c3.3,1,6.2,3.9,8.7,6.5c4.4,4.8,8.3,10.2,12.6,15.2
	c0.9,1,2.6,1.9,3.9,2c7.4,0.5,8.7,2.4,6.8,9.3c-0.4,1.3,0.2,3.2,0.9,4.5c3.1,5.5,5.7,11.2,4.6,17.8c-1.5,8.7,2.7,15.1,7.5,21.6
	c1.4,1.8,2.4,4.4,2.4,6.7c0,8.9,2.2,15.9,10.8,21c3.9,2.3,7.2,2.8,11.2,3.4c2.6,0.4,5.9,1.7,7,3.7c0.8,1.4-0.9,5-2.3,6.9
	c-7.5,9.5-15.3,18.9-23.1,28.2c-7.7,9.2-15.5,18.3-23.4,27.4c-2.2,2.5-3.3,4.4-1.6,8.1c5.7,12.4,10.8,25.2,16.2,37.8
	c1.9,4.4,1.2,8.6-3.1,10.4c-7.8,3.3-15,8.9-24.3,7.5c-5.1-0.8-7.9,2.1-10.2,6.3c-2.1,3.8-5.1,7.2-7.7,10.7c-0.5-0.3-0.9-0.5-1.4-0.8
	c0,1.5,0,3,0,4.4c0.1,2.9,1.3,4.3,4.5,4.3c9.6,0.1,11.5,3.5,7.3,12.5c-0.8,1.6-1.2,3.7-1,5.4c0.3,3.5,3.2,7.4-2.4,9.6
	c-0.5,0.2-0.4,2.2-0.4,3.3c0,6.2,0,12.3,0,18.5c-0.1,5.4-2.1,7.2-7.4,7.7c-4.7,0.4-9.3,1.4-14.3,2.1c-0.5,7.4-1,14.7,4.3,20.9
	c0.2,0.2,0.4,0.6,0.4,0.9c0.8,3.9,1.8,7.5,5.7,9.8c1.1,0.7,1.3,4,0.9,5.9c-0.9,3.9-7.4,8.2-11.4,8.3c-0.2,0-0.3,0-0.5,0
	c-11.8,1.8-22.3-1.7-32.1-8c-2.1-1.3-4.9-1.3-7.4-2c-3.2-0.9-6.4-1.8-10-2.8c0.3-0.6,0-0.2-0.1,0.2c-0.4,15.1-0.7,30.2-1.1,45.3
	c-0.3,12.8-0.6,25.5-1.1,38.3c0,1.3-1.1,3.1-2.2,3.7c-3.1,1.5-6.5,2.5-9.5,3.6c-6.3-6.7-11.8-13.8-18.6-19.3
	c-3.7-3-9.5-3.8-14.6-4.7c-3.9-0.7-8-0.2-12-0.1c-4.8,0.1-10-1.3-13,4.3c-0.3,0.6-1.4,1.2-2.1,1.1c-5.4-0.5-8.6,3.8-12.9,5.5
	c-1.6,0.6-3.5,1-5.2,1c-15.5,0.1-31,0.5-46.5-0.1c-9.7-0.4-17.6-5-23-13.4c-3.4,4.1-7.4,8.1-10.3,12.8c-4.1,6.6-2.7,14.4-1.6,21.3
	c2.1,12.9-1.7,17.5-12,18.5c-14.7,1.4-29.3,3.3-44,4.9c-4.4,0.5-8.9,0.7-13.3,1.1c-1,0.1-2.2-0.2-2.9,0.3
	c-6.1,4.5-11.6,0.6-17.4-0.8c-1.1-0.3-2.3-0.1-3.4-0.5c-4-1.5-8.7-2.4-11.8-5.1c-3.9-3.5-7.7-3.5-11.8-2.2c-5.6,1.7-10.3-1.2-11-7
	c-0.4-3.4-1.2-6.7-2.1-10c-0.2-0.7-1.5-1.4-2.4-1.6c-4-1-5.6-3.6-5.5-7.5c0.1-2.8,0-5.7,0-8.5c-0.1-6.3-3.1-8.1-8.9-5.6
	c-1.6,0.7-3.4,1.6-5.1,1.5c-5.2-0.1-9.2,2.2-13.8,4.4c-4.6,2.2-11.2,1.3-16.7,0.6c-8.5-1-17-2.7-25.3-4.7
	c-9.3-2.2-17.6,1.1-26.1,3.8c-9.7,3.2-19.4,6.2-29.1,9.5c-4.5,1.6-8.8,3.8-13.3,5.4c-1.9,0.7-4.1,0.8-6.2,0.9c-1.9,0.1-3.7,0-6.2,0
	c-3.4-1.8-7.7-3.7-11.6-6.3c-1.5-1-2.5-3.5-2.9-5.5c-0.8-3.5-3.2-4.8-6-6.4c-2-1.1-4.3-3.6-4.5-5.7c-0.6-6.9-4.9-10.8-9.9-14.4
	c-1.7-1.2-4.1-3.3-4-4.9c0.3-4.6-1.6-8.1-4.2-11.3c-6-7.3-7.1-16.4-9.3-25.1c-0.7-2.8-2.6-5.2-3.9-7.8c-3-6.5-5.9-13.1-9-19.5
	c-2.1-4.4-4.6-8.6-6.3-13c-1.1-2.7-1.4-5.7-1.5-8.6c-0.2-6.5-3-8.7-8.7-11.7c-4.9-2.5-8.9-7.1-12.5-11.5
	c-3.9-4.7-6.9-10.1-10.3-15.1c-0.5-0.7-1.3-1.2-1.5-2c-1.9-7.3-7.3-12.6-11.4-18.5c-1.4-2.1-4.3-3.9-6.8-4.4
	c-7.9-1.4-10.6-8-12.5-13.7c-3.2-9.9-2.5-10.5,7.6-14.4c19.3-7.4,38.7-14.4,58.1-21.6c28.1-10.5,56.1-21,84.1-31.4
	c29.1-10.8,58.4-21.4,87.4-32.5c4.6-1.8,8.6-5.3,12.6-8.4c2.1-1.6,2-3.9,0.4-6.1c-13.8-19.2-27.9-38.3-41.4-57.7
	c-2.6-3.7-3.4-8.7-5-13.1c-1-2.7-2.1-5.4-3.1-8.2c-0.4-1.2-1.1-2.5-1-3.7c0.7-5.5,1.2-11,2.6-16.3c0.5-2.1,2.9-3.8,4.6-5.4
	c4.9-4.6,7.4-11.8,15.4-13.3c2.4-0.4,4.9-3.8,2.3-7.7c-3.2-4.6-6-9.6-9.1-14.4c-3.6-5.5-2.9-12.7,4.7-18.4
	c5.2-3.9,9.9-8.2,11.7-15.2C861.3,397,864.4,393.8,866.8,390z M1252.6,392.5c-0.2-5.4-0.4-10.7-0.7-16.1c0-0.5-0.2-0.9-0.5-1.4
	c-6-10.1-12.1-20.2-18.2-30.3c-1.2-2-2.5-4-3.7-6c-0.6,0-1.2-0.1-1.8-0.1c-2,4-4,8-5,10C1233.5,364.2,1243.1,378.3,1252.6,392.5
	c1.3,11.8-0.6,16-9.7,19c-4.4,1.5-9.3,2.3-13.9,2.4c-9.6,0.3-19.4,1.3-28.5-3.5c-1.7,12.5-11.9,17.2-22,10.5
	c-4.7-3.2-9.3-6.6-14-9.9c-0.9-0.6-2.1-0.9-3.2-1c-4.6-0.5-6-2.4-5.2-6.9c0.4-2.2,0.7-4.4,1.2-7.3c-10.9-0.7-21-1.4-32-2.1
	c1.1,3.5,2.3,6,2.6,8.7c0.3,2.7,0.7,6.1-0.5,8.3c-2.9,5.1-7.2,9.4-9.9,14.5c-2.5,4.8-6.3,11-5,15.3c4.8,15.7,6.8,32.6,17.6,46.1
	c3.6,4.6,2.2,8-3.3,9.3c-19.1,4.7-38.3,9.4-57.4,14.1c-5.5,1.4-11.4,1.9-16.3,4.6c-16.3,8.9-32.2,18.6-48.2,28
	c-16.3,9.6-32.7,19-48.8,29c-10.8,6.7-21.8,11.3-35,10.6c-8.8-0.4-17.7,1-26.6,1.9c-2,0.2-4,1.5-5.7,2.7c-4.2,2.9-8,6.8-12.5,8.9
	c-8.5,4-17.5,7-26.4,10.3c-22,8.2-43.9,16.3-65.9,24.4c-30,11.2-60.1,22.4-90.1,33.6c-18.2,6.8-36.3,13.6-54.5,20.4
	c1.7,2.3,2.9,5.7,4.8,6.2c6.4,1.7,10.6,5.4,14.2,11c5.3,8.2,11.5,15.8,17.3,23.7c1.7,2.3,3.6,4.6,4.3,7.2c1.8,6.9,6.9,9.9,12.7,13
	c6.2,3.3,10.6,8,10.6,16.4c0,5.5,3.4,10.9,5.4,16.3c0.6,1.7,1.5,3.2,2.2,4.8c1.8,4.3,3.5,8.7,5.5,12.9c2.7,5.8,6.1,11.4,8.4,17.3
	c1.7,4.3,1,10.2,3.7,13.4c6,7.1,6.4,16.8,13.1,23.6c4.7,4.8,8.6,10.1,14.8,13.2c2.9,1.5,5.8,4.1,7.4,7c2.3,4.1,3.5,8.9,4.9,12.8
	c7.2-2.8,14-5.8,21-8.1c13.4-4.5,26.8-8.9,40.3-13c4.9-1.5,10.2-5.6,15,0.5c0.4,0.6,1.9,0.3,2.8,0.5c4.3,0.8,8.6,1.7,12.9,2.5
	c2.9,0.5,5.8,1.6,8.6,1.4c13-1.1,26-2.6,38.4-7.3c3-1.1,7.4-2.8,9.4-1.6c4.7,3.1,9,7.3,9.7,13.8c0.6,6.1,1,12.4,6.2,16.9
	c0.8,0.7,1.3,1.9,1.7,3c2.4,7.4,4.5,8.8,12.4,9.3c2.3,0.1,5.4,0.9,6.6,2.5c5.1,6.7,12.7,6.8,19.5,7.1c8.6,0.3,17.2-1.8,25.9-2.6
	c10.6-1.1,21.3-2,31.9-3.1c4.1-0.4,8.2-1.2,10.9-1.7c0-8.8-0.2-16.8,0.1-24.7c0.1-3,0.7-6.3,2.1-8.9c3.1-5.4,7.5-10,10.4-15.5
	c4.6-8.6,11.8-10.3,20.4-9.3c4.7,0.5,7.1,4.5,5.4,9c-0.4,1.1-0.9,2.2-1.4,3.3c10.6,5,20.9,9.1,32.7,7.8c6.5-0.7,13.2-0.1,19.8-0.2
	c1.5,0,3.4-0.6,4.4-1.7c2.8-2.9,5.8-4.8,10-4.3c0.7,0.1,1.8-0.3,2.2-0.9c3.9-5.8,9.9-5.4,15.7-5c9.7,0.6,20-2.4,29,3.8
	c0.6,0.4,1.7-0.1,2.4,0.2c2.5,1,5.3,1.7,7.3,3.3c3.8,3.1,7,6.9,10.8,10.7c0.6-4.3,1.4-7.9,1.4-11.4c0.4-22.1,0.8-44.2,1-66.3
	c0-4.3,1.3-8.2,5.2-9.2c4.2-1,10.8-1.9,13,0.4c3.8,3.9,7.3,4.4,11.9,4.6c1.4,0.1,2.7,1.6,4.2,2.4c6.9,4,13.5,9.1,22.4,7
	c-0.5-2.3-0.4-5-1.5-7c-5-8.9-5.6-18.4-5-28.2c0.1-1.9,0.8-3.8,1.7-5.5c3.1-6.6,10-5.1,15.3-6.7c2.7-0.8,4.1-1.6,4.4-4.2
	c0.3-2.6,0.3-5.3,0.6-7.9c0.6-4.7,1.6-9.3,1.8-14c0.1-3.1,0.4-7.5-1.4-9c-7.6-6.5-10.7-14.2-8.3-24.1c0.3-1.4,1.3-2.7,2.2-3.7
	c3-3.5,6.3-6.8,9.2-10.4c4.2-5.1,8-10.4,16.1-9c6.9,1.2,12.6-2.2,18.2-6.3c-5.6-13.2-11.3-26.1-16.6-39.2c-0.8-2.1-0.9-5.6,0.3-7.2
	c8.1-10.3,16.7-20.3,25.1-30.4c6.5-7.9,12.7-15.9,19.2-23.9c-6.3-5-11.6-9.1-16.7-13.5c-1.4-1.2-2.4-3.1-3-4.9
	c-2.1-7-3.8-14.1-6.1-21c-1-2.8-2.8-6.1-5.2-7.4c-4.3-2.4-5-5.6-4.8-9.8c0.1-3.2,0.4-6.4-0.1-9.5c-0.4-2.4-1.3-5.8-3-6.7
	c-5.7-2.9-5.1-7.3-4.3-12.4c-7.1-3.2-9.1-10.3-12.3-16.5c-2-3.9-4.8-6-8.9-7.5c-5.3-1.9-10.7-4-11.5-11.2c-0.6-5.1-2.2-10.1-3.9-15
	c-0.8-2.4-2.8-4.5-4.5-6.5c-1.6-2-4.3-3.5-5-5.7c-1.5-4.4-1.9-9.2-2.8-13.8c-2.5-1.2-4.1-3.1-5.8-4.9
	C1254.8,394.5,1253.7,393.5,1252.6,392.5z M838.4,489.4c0.8,0.3,1.6,0.5,2.4,0.8c1.4,5.2,2.8,10.4,4.2,15.7c0.4,1.5,0.3,3.4,1.1,4.6
	c14.6,20.7,29.2,41.3,44.1,61.8c1,1.4,3.5,2.6,5.3,2.6c10-0.4,20.1-0.9,30.1-2c5.4-0.6,10.7-1.3,15.7-4.4
	c16.8-10.2,33.9-19.7,50.8-29.6c2.5-1.4,4.6-3.5,6.9-5.2c1.8-1.3,3.5-2.7,5.5-3.7c1.2-0.6,3-0.4,4.2-1.1c6.4-3.6,12.8-7.3,19-11.2
	c12.2-7.6,24.6-14.2,39.1-17.1c17.4-3.5,34.6-8.6,51.7-12.9c-1.5-3.1-3.4-5.9-4.4-8.9c-3.9-11.9-7.7-23.8-11.3-35.8
	c-0.7-2.2-0.4-4.8,0-7.2c1.4-9.9,7.4-17.6,13.3-25.2c2.1-2.7,3.3-5.1,1.7-8.6c-4.6-10.2-7.4-21-7.4-32.2c0-9.2,1.5-18.4,2.3-27.8
	c-0.8-0.2-2.7-0.7-4.6-1.1c-3.8-0.9-7.4-1.6-7.2-7c0.1-1.3-2.4-2.6-3.5-4.1c-1.2-1.5-2.3-3.2-3.2-4.9c-0.5-1-0.5-2.2-0.8-3.3
	c-3.2-10.7-6.4-21.4-9.8-32.7c-2-0.8-5.2-3-8.4-2.9c-12.5,0.3-23.1-4.1-33.5-10.7c-10.3-6.6-15.8-20.1-14-32.3
	c1.2-7.5,7-10.2,10.8-14.9c4.9-6,11.7-9,19.5-10.8c-5.7-8.7-11.3-17-22.5-18.3c-9.3-1-18.7-0.8-28.2-1.7
	c-19.6-1.8-39.5-1.2-59.3-1.3c-38-0.2-76-0.3-113.9-0.3c-33.5,0-67,0.2-100.5,0.3c-1,0-2,0.2-2.9,0.3c-0.3,0.4-0.7,0.7-1,1.1
	c12.1,2.1,12,10.4,11.4,19.1c0,0.3,0,0.7,0,1c-0.5,3.4,1,5.7,3.2,8.3c4.8,5.6,12.3,9.7,11.7,18.7c0,0.3,0.2,0.7,0.4,0.9
	c4.8,5.6,3.2,12.9,4.4,19.2c1.5,8.2,1,17,0.2,25.4c-0.6,6.5-1.2,13.5-7.4,17.9c-2.7,1.9-5.6,3.6-7.8,5.9
	c-5.7,6.1-13.3,7.7-20.7,10.1c-5.5,1.8-10.4,5.3-15.5,8.1c-0.2,0.1-0.3,0.6-0.4,0.9c-2.5,8.9-6.7,16.9-11.5,24.9
	c-3.4,5.7-3,13.6-4.4,20.9c2.3,0,4.3,0,6.3,0c57.8,0,115.7,0,173.5,0c1.3,0,2.7-0.1,4,0c5.2,0.5,7.2,4.5,4.6,9
	c-0.4,0.7-1.4,1.6-1.3,2c2.1,4.5-1,7.2-3.9,9c-5.2,3.2-5.6,8.5-7.3,13.2c-1.9,5.2-3.8,10.1-9.7,12.2c-2.3,0.8-4.2,2.5-6.3,3.8
	c2.7,3.1,6.1,5.3,6.7,8.1c1.4,5.9,6.1,8.6,9.4,12.6c1.4,1.7,2.3,4.8,1.8,6.8c-0.6,2.3-3.2,5.9-4.8,5.9c-5.4-0.2-8,3-10.8,6.5
	C849.8,475.2,844.1,482.3,838.4,489.4z M1224.2,329.9c-2.3-6.7-4-12.9-6.4-18.8c-1.6-4-2.8-7.9-6.8-10.9c-4.5-3.4-7.5-8.6-11.4-12.8
	c-1.2-1.3-3.4-1.5-5-2.4c-2.1-1.2-5.2-2.2-5.9-4.1c-1.5-4.2-2.1-8.8-2.6-13.3c-0.6-5.3-0.8-10.8-6.1-13.7c-4-2.2-7-7.5-13-5
	c-0.5,0.2-1.6-0.4-2.2-0.9c-3.7-2.9-7.4-5.9-11.2-8.8c-1.4-1.1-3.1-1.8-5.2-3c-0.3,1.8-0.4,2.4-0.4,3.1c0,24.1,0,48.3-0.1,72.4
	c0,3.2,1.7,3.7,4.1,4.4c10,2.6,20.1,5.9,27.4,13.3c5.6,5.6,11.4,7.8,19,7.9c5.5,0.1,10.9,2.2,15.7,3.2
	C1217.4,337,1221.1,333.2,1224.2,329.9z M1086.6,236.2c0,3.6,1,7-0.2,9.6c-4.4,9.7-7.1,19.9-8.9,30.3c-0.3,1.8,0.5,5.2,1.6,5.5
	c4.4,1.5,9.2,3.1,13.6,2.7c8.8-0.9,16.1-5.5,22.8-11.4c1.4-1.3,4.1-1.6,6.2-1.5c5.6,0.4,11.2,1.4,17.2,2.2c0-12.6,0.1-23.9-0.1-35.2
	c0-1.2-1.4-3-2.5-3.4c-3-1.1-7.2-0.5-9.3-2.4c-4.6-4.2-15-2.3-13.2-14c-3.1,1.5-6.4,2-7,3.5c-3.4,8.4-9.7,12.1-18.2,13.1
	C1087.8,235.5,1087,236.1,1086.6,236.2z M1169.4,353c1.7-4.6,3.5-8.4,4.4-12.5c0.4-1.6-0.8-4.7-2.1-5.3c-6.8-3.4-13.9-6.3-21-9.1
	c-1.1-0.4-3.5,0-3.9,0.8c-3.1,5.5-7.9,7.6-14,8.3c-2.9,0.4-6.7,2.3-7.9,4.7c-2.4,4.6-4.1,10-4.8,15.2c-1.2,9.5-1.6,19.2,1.6,29
	c10.5,0.7,21.2,1.4,30.4,2c1.4-5.9,2.2-10.8,3.8-15.4c1.2-3.7,3.9-7.1,4.9-10.8C1162.1,355.1,1163.8,351.8,1169.4,353z M1095.5,295
	c1.1,5,2,10.5,3.7,15.7c1.5,4.6,3.4,9.1,7.9,12c1.1,0.7,1.7,2.7,2,4.2c1.1,6.1,4.5,7.3,9.8,4.1c3.7-2.2,8-3.5,12-5
	c3.1-1.1,7.2-0.8,8.2-4.8c0.6-2.4,0-5,0-7.6c0-8.8-0.2-17.6,0.1-26.4c0.1-4-1.6-5.2-5.2-5.2c-7.4,0.1-14.7-0.8-21.4,4.8
	C1107.8,290.7,1101.3,292.3,1095.5,295z M1179.9,352.3c1.8,0.7,3.6,1,4.7,2c5.3,4.7,11.4,9,15.4,14.7c6.2,8.8,11,18.6,6.5,30
	c-1,2.6-0.1,3.4,2.3,4.2c10.3,3.5,20.4,2.2,30.4-0.9c4.9-1.5,5.5-4.6,2.6-8.9c-4.3-6.3-8.7-12.6-13-19c-3.6-5.3-8.2-10.2-10.3-16
	c-1.7-4.6-3.9-5.8-8-6.4c-4-0.6-9-0.6-11.5-3c-3.1-2.9-5.9-2.8-9.2-2.9c-1.2,0-2.5,0.1-3.4-0.3c-2.7-1.3-3.9-0.5-4.5,2.4
	C1181.6,349.4,1180.7,350.7,1179.9,352.3z M1066.8,276c3.2-10.7,6.2-21,9.3-31.2c1.3-4.2-3.6-11.8-7.9-11.7
	c-5.5,0.1-8.2-2.3-8.5-8.9c-8,6.3-15.2,12-22.4,17.7c0.7,0.4,1.4,0.7,2.1,1.1c-0.2,3.1,0.1,6.4-0.6,9.4c-1,4.3-0.8,8.1,2.8,10.8
	C1049.3,268.9,1057.1,274.6,1066.8,276z M1166.3,401.1c5.3,3.5,10.7,7.2,16.1,10.8c5.3,3.5,7.4,2.5,8.7-3.6c0.6-2.7,2.4-5.1,3.8-7.7
	c0.7-1.3,1.6-2.4,2.1-3.7c4.3-10.4-4.6-24.7-12.7-31c-4.4-3.4-8.7-4.9-13.2-3.6c-1.7,4.3-2.4,8.9-5,11.8c-3.9,4.3-3.6,9.2-1.3,12.6
	C1168.1,391.4,1166.7,395.6,1166.3,401.1z"/>
<path class="st0" d="M1252.6,392.5c1.1,1,2.2,2,3.2,3.1c1.7,1.8,3.3,3.7,5.8,4.9c0.9,4.6,1.4,9.4,2.8,13.8c0.7,2.2,3.4,3.7,5,5.7
	c1.7,2.1,3.6,4.1,4.5,6.5c1.7,4.9,3.3,9.9,3.9,15c0.8,7.3,6.2,9.3,11.5,11.2c4.1,1.5,6.9,3.6,8.9,7.5c3.2,6.2,5.3,13.3,12.3,16.5
	c-0.8,5.1-1.4,9.5,4.3,12.4c1.7,0.9,2.6,4.3,3,6.7c0.5,3.1,0.3,6.3,0.1,9.5c-0.2,4.2,0.5,7.4,4.8,9.8c2.4,1.3,4.2,4.6,5.2,7.4
	c2.4,6.9,4,14,6.1,21c0.6,1.8,1.6,3.7,3,4.9c5.1,4.4,10.4,8.5,16.7,13.5c-6.4,8-12.7,16-19.2,23.9c-8.3,10.2-17,20.1-25.1,30.4
	c-1.2,1.6-1.1,5.1-0.3,7.2c5.3,13.1,11,26.1,16.6,39.2c-5.6,4.1-11.3,7.5-18.2,6.3c-8.2-1.5-11.9,3.9-16.1,9
	c-3,3.6-6.2,6.9-9.2,10.4c-0.9,1.1-1.9,2.4-2.2,3.7c-2.5,9.9,0.7,17.6,8.3,24.1c1.8,1.5,1.5,5.9,1.4,9c-0.2,4.7-1.2,9.3-1.8,14
	c-0.3,2.6-0.3,5.3-0.6,7.9c-0.3,2.6-1.7,3.4-4.4,4.2c-5.3,1.5-12.2,0.1-15.3,6.7c-0.8,1.7-1.5,3.7-1.7,5.5c-0.6,9.8,0,19.4,5,28.2
	c1.1,2,1,4.7,1.5,7c-8.9,2.1-15.5-3.1-22.4-7c-1.4-0.8-2.7-2.4-4.2-2.4c-4.6-0.2-8.1-0.7-11.9-4.6c-2.2-2.3-8.7-1.4-13-0.4
	c-3.9,0.9-5.2,4.9-5.2,9.2c-0.2,22.1-0.5,44.2-1,66.3c-0.1,3.5-0.9,7.1-1.4,11.4c-3.8-3.8-7.1-7.6-10.8-10.7c-2-1.7-4.8-2.3-7.3-3.3
	c-0.7-0.3-1.9,0.2-2.4-0.2c-9-6.2-19.2-3.3-29-3.8c-5.8-0.3-11.8-0.8-15.7,5c-0.4,0.5-1.5,0.9-2.2,0.9c-4.2-0.5-7.2,1.4-10,4.3
	c-1,1-2.9,1.6-4.4,1.7c-6.6,0.2-13.3-0.5-19.8,0.2c-11.8,1.3-22.1-2.8-32.7-7.8c0.5-1.1,1-2.2,1.4-3.3c1.6-4.5-0.8-8.4-5.4-9
	c-8.7-1-15.8,0.7-20.4,9.3c-2.9,5.5-7.3,10.1-10.4,15.5c-1.5,2.5-2,5.9-2.1,8.9c-0.3,7.9-0.1,15.8-0.1,24.7
	c-2.7,0.4-6.8,1.2-10.9,1.7c-10.6,1.1-21.3,2-31.9,3.1c-8.6,0.9-17.3,3-25.9,2.6c-6.7-0.3-14.4-0.4-19.5-7.1
	c-1.2-1.6-4.3-2.3-6.6-2.5c-7.9-0.5-10-1.9-12.4-9.3c-0.3-1.1-0.9-2.3-1.7-3c-5.2-4.5-5.6-10.8-6.2-16.9c-0.6-6.5-4.9-10.7-9.7-13.8
	c-2-1.3-6.4,0.4-9.4,1.6c-12.4,4.7-25.4,6.2-38.4,7.3c-2.8,0.2-5.7-0.9-8.6-1.4c-4.3-0.8-8.6-1.7-12.9-2.5c-1-0.2-2.4,0.1-2.8-0.5
	c-4.9-6.1-10.2-2-15-0.5c-13.5,4.1-27,8.5-40.3,13c-7,2.4-13.8,5.3-21,8.1c-1.5-4-2.6-8.7-4.9-12.8c-1.6-2.8-4.4-5.5-7.4-7
	c-6.2-3.2-10.1-8.4-14.8-13.2c-6.7-6.8-7.1-16.5-13.1-23.6c-2.7-3.2-2-9.1-3.7-13.4c-2.4-5.9-5.7-11.5-8.4-17.3
	c-2-4.2-3.6-8.6-5.5-12.9c-0.7-1.6-1.6-3.1-2.2-4.8c-2-5.4-5.4-10.9-5.4-16.3c0-8.4-4.4-13.1-10.6-16.4c-5.8-3.1-10.9-6-12.7-13
	c-0.7-2.6-2.7-4.9-4.3-7.2c-5.8-7.9-12-15.5-17.3-23.7c-3.6-5.6-7.8-9.2-14.2-11c-1.9-0.5-3.1-3.9-4.8-6.2
	c18.2-6.8,36.4-13.7,54.5-20.4c30-11.2,60.1-22.4,90.1-33.6c22-8.2,44-16.3,65.9-24.4c8.8-3.3,17.8-6.3,26.4-10.3
	c4.6-2.1,8.3-6,12.5-8.9c1.7-1.2,3.7-2.5,5.7-2.7c8.8-0.9,17.8-2.3,26.6-1.9c13.2,0.6,24.2-3.9,35-10.6c16.1-9.9,32.5-19.4,48.8-29
	c16-9.4,31.9-19.1,48.2-28c4.8-2.6,10.8-3.2,16.3-4.6c19.1-4.7,38.3-9.4,57.4-14.1c5.5-1.4,7-4.8,3.3-9.3
	c-10.8-13.5-12.7-30.5-17.6-46.1c-1.3-4.2,2.5-10.5,5-15.3c2.7-5.1,7.1-9.4,9.9-14.5c1.2-2.2,0.8-5.6,0.5-8.3
	c-0.3-2.7-1.5-5.2-2.6-8.7c11,0.7,21.1,1.4,32,2.1c-0.5,2.9-0.8,5.1-1.2,7.3c-0.8,4.5,0.6,6.4,5.2,6.9c1.1,0.1,2.3,0.4,3.2,1
	c4.7,3.2,9.2,6.7,14,9.9c10.1,6.7,20.3,2.1,22-10.5c9.1,4.8,18.9,3.7,28.5,3.5c4.7-0.1,9.5-0.9,13.9-2.4
	C1252,408.4,1253.9,404.3,1252.6,392.5L1252.6,392.5z"/>
<path class="st0" d="M838.4,489.4c5.7-7.1,11.4-14.3,17.1-21.4c2.8-3.5,5.4-6.7,10.8-6.5c1.6,0.1,4.1-3.5,4.8-5.9
	c0.5-2-0.4-5.1-1.8-6.8c-3.3-4-8-6.7-9.4-12.6c-0.7-2.8-4.1-5-6.7-8.1c2.1-1.3,4-3,6.3-3.8c5.8-2.1,7.8-7,9.7-12.2
	c1.7-4.8,2.1-10.1,7.3-13.2c2.9-1.7,6-4.5,3.9-9c-0.2-0.4,0.9-1.3,1.3-2c2.7-4.5,0.7-8.5-4.6-9c-1.3-0.1-2.7,0-4,0
	c-57.8,0-115.7,0-173.5,0c-2,0-4,0-6.3,0c1.4-7.3,1-15.2,4.4-20.9c4.8-8,9-16,11.5-24.9c0.1-0.3,0.1-0.8,0.4-0.9
	c5.1-2.8,10-6.3,15.5-8.1c7.4-2.5,15-4.1,20.7-10.1c2.2-2.3,5.1-4,7.8-5.9c6.3-4.4,6.8-11.5,7.4-17.9c0.8-8.4,1.4-17.2-0.2-25.4
	c-1.2-6.4,0.4-13.6-4.4-19.2c-0.2-0.2-0.4-0.6-0.4-0.9c0.7-9-6.9-13.1-11.7-18.7c-2.2-2.6-3.8-4.9-3.2-8.3c0.1-0.3,0-0.7,0-1
	c0.6-8.7,0.7-17-11.4-19.1c0.3-0.4,0.7-0.7,1-1.1c1-0.1,2-0.3,2.9-0.3c33.5-0.1,67-0.3,100.5-0.3c38,0,76,0.1,113.9,0.3
	c19.8,0.1,39.7-0.5,59.3,1.3c9.4,0.9,18.8,0.6,28.2,1.7c11.1,1.2,16.8,9.6,22.5,18.3c-7.9,1.7-14.6,4.8-19.5,10.8
	c-3.9,4.7-9.7,7.4-10.8,14.9c-1.9,12.2,3.6,25.7,14,32.3c10.3,6.6,21,11,33.5,10.7c3.2-0.1,6.4,2.2,8.4,2.9
	c3.4,11.3,6.6,22,9.8,32.7c0.3,1.1,0.3,2.3,0.8,3.3c0.9,1.7,2,3.4,3.2,4.9c1.1,1.4,3.6,2.8,3.5,4.1c-0.2,5.4,3.4,6.1,7.2,7
	c1.9,0.4,3.8,0.9,4.6,1.1c-0.8,9.4-2.3,18.6-2.3,27.8c0,11.2,2.8,22,7.4,32.2c1.6,3.5,0.4,5.9-1.7,8.6c-5.9,7.6-11.8,15.3-13.3,25.2
	c-0.3,2.4-0.6,5,0,7.2c3.6,12,7.4,23.9,11.3,35.8c1,3,2.8,5.8,4.4,8.9c-17.1,4.3-34.2,9.4-51.7,12.9c-14.5,2.9-26.9,9.5-39.1,17.1
	c-6.3,3.9-12.6,7.5-19,11.2c-1.2,0.7-2.9,0.4-4.2,1.1c-1.9,1-3.7,2.4-5.5,3.7c-2.3,1.7-4.4,3.7-6.9,5.2
	c-16.9,9.9-34.1,19.4-50.8,29.6c-5,3-10.3,3.8-15.7,4.4c-10,1.1-20,1.6-30.1,2c-1.8,0.1-4.3-1.1-5.3-2.6
	c-14.8-20.5-29.5-41.1-44.1-61.8c-0.8-1.2-0.7-3.1-1.1-4.6c-1.4-5.2-2.8-10.4-4.2-15.7C840,490,839.2,489.7,838.4,489.4z"/>
<path class="st0" d="M1224.2,329.9c-3.2,3.3-6.8,7.1-10.1,10.6c-4.7-1-10.2-3.1-15.7-3.2c-7.7-0.1-13.4-2.3-19-7.9
	c-7.3-7.4-17.4-10.7-27.4-13.3c-2.4-0.6-4.1-1.2-4.1-4.4c0.1-24.1,0.1-48.3,0.1-72.4c0-0.6,0.2-1.3,0.4-3.1c2.1,1.2,3.8,1.9,5.2,3
	c3.8,2.9,7.4,5.9,11.2,8.8c0.6,0.5,1.7,1.1,2.2,0.9c5.9-2.5,8.9,2.8,13,5c5.3,2.9,5.4,8.4,6.1,13.7c0.5,4.5,1.1,9.1,2.6,13.3
	c0.7,1.8,3.8,2.9,5.9,4.1c1.6,0.9,3.8,1.1,5,2.4c3.9,4.2,7,9.4,11.4,12.8c4,3,5.2,7,6.8,10.9C1220.2,317,1222,323.1,1224.2,329.9z"
	/>
<path class="st0" d="M1086.6,236.2c0.4-0.2,1.2-0.8,2.1-0.9c8.5-1,14.8-4.7,18.2-13.1c0.6-1.5,3.8-2,7-3.5
	c-1.8,11.8,8.5,9.9,13.2,14c2.1,1.9,6.2,1.3,9.3,2.4c1.1,0.4,2.5,2.2,2.5,3.4c0.2,11.3,0.1,22.6,0.1,35.2
	c-6.1-0.8-11.6-1.8-17.2-2.2c-2-0.2-4.8,0.2-6.2,1.5c-6.6,5.9-14,10.6-22.8,11.4c-4.5,0.4-9.2-1.2-13.6-2.7
	c-1.1-0.4-1.9-3.7-1.6-5.5c1.8-10.4,4.5-20.6,8.9-30.3C1087.6,243.3,1086.6,239.8,1086.6,236.2z"/>
<path class="st0" d="M1169.4,353c-5.7-1.2-7.3,2.2-8.6,6.9c-1,3.8-3.7,7.1-4.9,10.8c-1.5,4.6-2.4,9.5-3.8,15.4
	c-9.1-0.6-19.8-1.3-30.4-2c-3.2-9.8-2.8-19.5-1.6-29c0.6-5.2,2.3-10.6,4.8-15.2c1.2-2.4,5-4.3,7.9-4.7c6.1-0.8,10.9-2.8,14-8.3
	c0.5-0.8,2.9-1.3,3.9-0.8c7.1,2.8,14.1,5.7,21,9.1c1.3,0.7,2.4,3.7,2.1,5.3C1172.9,344.6,1171.1,348.4,1169.4,353z"/>
<path class="st0" d="M1095.5,295c5.8-2.7,12.4-4.3,17-8.2c6.7-5.6,13.9-4.7,21.4-4.8c3.6-0.1,5.3,1.1,5.2,5.2
	c-0.3,8.8-0.1,17.6-0.1,26.4c0,2.5,0.6,5.2,0,7.6c-1.1,4-5.2,3.7-8.2,4.8c-4.1,1.5-8.4,2.7-12,5c-5.3,3.2-8.7,2.1-9.8-4.1
	c-0.3-1.5-0.8-3.5-2-4.2c-4.5-2.9-6.4-7.4-7.9-12C1097.5,305.5,1096.6,300,1095.5,295z"/>
<path class="st0" d="M1179.9,352.3c0.8-1.6,1.7-2.9,2-4.3c0.6-2.8,1.7-3.7,4.5-2.4c1,0.5,2.3,0.3,3.4,0.3c3.3,0.1,6.1,0,9.2,2.9
	c2.5,2.4,7.5,2.5,11.5,3c4.1,0.6,6.3,1.8,8,6.4c2.1,5.8,6.7,10.7,10.3,16c4.3,6.3,8.7,12.6,13,19c2.9,4.3,2.3,7.4-2.6,8.9
	c-10,3.1-20.1,4.4-30.4,0.9c-2.4-0.8-3.3-1.6-2.3-4.2c4.5-11.4-0.2-21.2-6.5-30c-4-5.7-10.1-10-15.4-14.7
	C1183.5,353.3,1181.7,353,1179.9,352.3z"/>
<path class="st0" d="M1066.8,276c-9.7-1.4-17.5-7.1-25.2-12.8c-3.6-2.7-3.8-6.6-2.8-10.8c0.7-3,0.4-6.3,0.6-9.4
	c-0.7-0.4-1.4-0.7-2.1-1.1c7.2-5.7,14.4-11.4,22.4-17.7c0.2,6.6,3,9,8.5,8.9c4.3-0.1,9.1,7.6,7.9,11.7
	C1073,255,1070,265.3,1066.8,276z"/>
<path class="st0" d="M1166.3,401.1c0.4-5.5,1.8-9.7-1.6-14.4c-2.3-3.3-2.6-8.2,1.3-12.6c2.6-2.9,3.3-7.5,5-11.8
	c4.6-1.3,8.8,0.2,13.2,3.6c8.2,6.3,17,20.6,12.7,31c-0.5,1.3-1.4,2.5-2.1,3.7c-1.3,2.5-3.2,5-3.8,7.7c-1.3,6.1-3.4,7.1-8.7,3.6
	C1177,408.3,1171.6,404.6,1166.3,401.1z"/>
<path class="st0" d="M1252.7,392.4c-9.6-14.1-19.2-28.2-29.9-43.9c1-2,3-6,5-10c0.6,0,1.2,0.1,1.8,0.1c1.2,2,2.5,4,3.7,6
	c6.1,10.1,12.1,20.2,18.2,30.3c0.2,0.4,0.5,0.9,0.5,1.4C1252.2,381.7,1252.4,387.1,1252.7,392.4
	C1252.6,392.5,1252.7,392.4,1252.7,392.4z"/>
</svg>
