<?xml version="1.0" encoding="utf-8"?>
<!-- Generator: Adobe Illustrator 19.0.0, SVG Export Plug-In . SVG Version: 6.00 Build 0)  -->
<svg version="1.1" id="Layer1" xmlns="http://www.w3.org/2000/svg" xmlns:xlink="http://www.w3.org/1999/xlink" x="0px" y="0px"
	 viewBox="0 0 2400 1200" style="enable-background:new 0 0 2400 1200;overflow: hidden; display: inline; width: inherit; min-width: inherit; max-width: inherit; height: inherit; min-height: inherit; max-height: inherit;" xml:space="preserve">
<style type="text/css">
	.st0{fill:#8FD4EB;stroke:#000000;stroke-width:3;}
</style>
<g>
	
	<path onclick="modals(this.id);"  id="268" class="st0" d="M819.9,742.1c0.4-8.4,1.1-16,0.9-23.5c-0.1-5.4-0.1-10.5,2.8-15.4c1.1-1.9,0.4-4.9,0.3-7.4
		c-0.2-3.8-0.9-7.5-0.9-11.3c0-3-1.2-4.2-3.9-4.5c-7.1-0.8-14.1-1.6-20.5-2.3c0.2-2.6,1.2-5.7,0.3-8.1c-1-2.7-3.7-4.7-5.6-7
		c-4.4-5.5-8.6-11.2-13.3-16.4c-5-5.4-5.5-11.8-4.8-18.3c0.4-4.1,2.9-7.9,3.7-12c1.8-8.9,6.1-16.4,12.5-22.8c3.6-3.6,4.6-8.1,4.7-13
		c0.1-3.6,0.3-7.3,1.3-10.7c1.1-3.5,0.3-6-1.9-8.6c-7.4-8.3-7.4-13.6-1.4-22.7c2.3-3.5,3.8-7.6,4.8-11.7c1.5-5.7-0.6-8.6-6-11.2
		c-8-3.9-16.6-4.2-25.2-5.6c-8.4-1.3-16.3-4.7-21.4-12.2c-0.5-0.7-0.9-1.4-1.1-2.2c-2.3-14.9-11.4-26.7-18.1-39.5
		c-1.9-3.7-7-5.7-10-8.9c-2.5-2.6-4.2-6-6-9.1c-1.7-2.9-2.5-6.5-4.7-8.7c-5.7-5.7-12.3-10.5-17.8-16.4c-2.4-2.5-5-6.3-2-10.6
		c3.9,1.6,7.5,3.9,11.5,4.7c6.6,1.2,13.5,1.5,20.2,2.2c1.8,0.2,3.6,0.7,5.3,0.7c2.6,0,6,0.7,7.6-0.7c4.2-3.7,9.7-2.1,13.9-4.2
		c5.7-2.9,11.7-6.3,15.7-11.1c4.7-5.6,8.3-11.7,15.4-15c4.3-2,8-5.7,11.5-9.1c2.8-2.8,5.6-4.7,9.6-5.4c9.9-1.6,11.4-8.4,12.8-18.3
		c0.6-4.2,1.2-8.4,2.3-12.4c0.4-1.5,2-2.8,3.4-3.8c6.1-4.5,8.9-11.4,12.1-17.7c2.5-4.9,5.5-5.9,10.3-4.5c1.7,0.5,3.6,0.5,5.4,0.5
		c50,0,100-0.1,150,0.1c14.4,0,28.9,0.7,43.3,0.9c9.7,0.1,10.2-0.4,10.2-9.9c0-1.5,0-3,0-4.5c8.9,0,17.5,0.7,25.9-0.2
		c11.3-1.1,16.7-10.3,21.7-18.9c4.7-8,9.3-16.3,8.4-26.3c2.1,0,3.9-0.5,5.3,0.1c10.1,4.5,20.1,2.4,30.3,0c5.2-1.2,10.7-2.2,16-2.1
		c7.5,0.2,12.7-2.7,17.2-8.4c4.6-5.8,9.8-11.2,14.6-16.8c4.2-4.8,6.6-10.2,7.7-16.5c0.9-5.2,3.9-10,5-15.2c1.9-9,7.6-9.9,15.4-9.4
		c15.4,0.9,30.9,0.7,46.3,1.2c4.9,0.2,9.7,1.1,14.6,2c6.7,1.2,12.3,0.5,16-6.5c1.2-2.3,4.9-3.9,7.8-4.4c15.2-2.9,30.5-5.4,45.8-8
		c1.4-0.2,2.9,0,3,0c3.2,5.3,5.4,10.2,8.8,14.1c4.8,5.5,10.5,10.3,16,15.2c6.3,5.7,13.5,3.8,20.5,1.8c5.4-1.6,10.9-3.5,15.7-6.3
		c7.6-4.6,14.8-2.3,22.2-0.2c11.4,3.2,19.9,11.6,29.6,17.7c12.8,8,18.5,20.2,19.2,34.9c0.4,7.6,4.4,13.2,11.8,15.2
		c6,1.6,12.1,2.7,17.9,4.8c3,1.1,5.4,3.8,7.9,5.9c4.4,3.6,8.8,7.1,13.1,10.8c5.8,5,12.2,5.2,19.7,4.5c10.1-0.9,20.5,0.2,30.6,1.2
		c7.9,0.8,15.7,3,23.9,4.7c3,13.6,6.1,27.2,9.1,40.8c6.3,28.3,12.7,56.6,19,84.8c1.9,8.6,4.6,9.9,12.8,6.7c4.4-1.7,8.7-3.8,13.2-5
		c2.2-0.6,5.4-0.1,7.2,1.2c8.3,6.1,15.9,13.3,24.4,19.1c11.4,7.8,23.6,14.6,35.3,22c7.1,4.6,13.9,9.7,21,14.3
		c8.2,5.2,16.6,10.3,25.1,15c5.4,3,11.3,5.2,16.8,8c1.5,0.7,3.3,2.2,3.6,3.6c1.5,5.8,3.3,11.7,3.5,17.7c0.7,21.5,2.9,42.7,7.5,63.9
		c3.7,16.7,8.8,33.3,7.8,50.9c-0.5,9.9,4.3,18.9,7.8,28.1c2.4,6.2,4.5,12.6,7.1,18.7c0.6,1.5,2.3,3,3.8,3.7
		c7.1,3.2,14.2,6.2,21.5,8.9c4.8,1.8,9.8,3,14.8,4.1c2.8,0.7,6,0.2,8.7,1.2c5.7,2.1,10.1-0.2,14.6-3.2c1.2-0.8,2.5-1.8,3.7-1.9
		c11.4-0.8,22.7-1.6,34.1-2c2.4-0.1,5,1,7.3,2.1c5.5,2.8,10.9,5.8,16.3,8.8c0.8,0.5,1.7,1.1,2.3,1.8c8,9,16,18,24.1,26.9
		c1.4,1.6,2.9,3.1,3.6,3.9c-6,3.6-11.8,7.3-17.9,10.7c-5.4,3-11.2,5.3-16.4,8.6c-10.4,6.7-20.4,14.1-30.9,20.7
		c-17.2,10.9-34.8,21.2-52,32.2c-6.5,4.1-12,9.6-18.3,14.1c-20.4,14.6-40.9,29.3-61.6,43.5c-4.7,3.2-10.5,4.9-15.9,7
		c-8.9,3.5-17.9,6.9-27,10c-2.9,1-6.1,1.5-9.1,1.5c-6.2-0.1-11.7,1.1-17.4,3.9c-7.8,3.9-16.3,6.5-24.7,9c-12,3.7-24.2,6.3-36.1,10.2
		c-13.6,4.5-26.9,9.8-40.3,14.8c-10.8,4-21.6,8.2-32.6,11.6c-5.7,1.8-11.9,1.9-17.8,3.1c-9.8,1.9-16.9,8.2-23.7,14.9
		c-2.9,2.9-6,3.3-9.6,3.8c-10.5,1.3-21,3.3-31.5,4.6c-3.2,0.4-6.5-0.6-9.8-0.9c-14.8-1-29.1,1.2-43.4,4.9
		c-15.3,3.9-30.8,6.9-46.3,10c-10.5,2.1-21.2,4.5-31.9,4.8c-8.9,0.3-17.3-3.3-24.5-9.6c-7.1-6.3-11.7-13.9-15.9-22.1
		c-1.3-2.6-3.2-5-5.1-7.1c-6.2-6.8-12.8-13.2-18.9-20.1c-3.2-3.6-6.9-4-11.2-3.9c-1.8,0-4.4-0.4-5.2-1.6
		c-6.9-10.9-16.8-11.4-28.2-9.6c-6,1-9.6,4.4-13.4,8.3c-0.9,1-2.8,2-3.8,1.7c-14.6-4.1-28.4-1.4-42.2,4c-7.3,2.9-14,8.4-22.6,7.2
		c-11.2-1.5-21.6-5.4-29.7-13.7c-4-4.1-10.7-4.7-17.8-1.5c-2.8,1.3-6.2,2.1-9.3,2c-5.9-0.1-10.2,2.2-14.6,5.9
		c-2.4,2.1-5.8,3.2-9,4.1c-5.8,1.7-11.7,4.2-17.5,4.2c-4.3,0-8.5-3.5-12.7-5.6c-0.2-0.1,0.1-2.3,0.8-2.9c3-2.6,5.8-5.8,9.3-7.1
		c7.6-2.8,9.4-9,10.4-15.6c0.5-3,0.6-5,4.4-5.1c1.6,0,3.5-1.1,4.7-2.3c4.5-4.6,10.4-5.3,16.2-5.4c9.5-0.1,17.2-4.6,24.6-9.6
		c1.8-1.2,2.4-4.2,3.7-6.3c2.5-4,5.2-7.8,7.7-11.8c2.3-3.6,4.5-7.2,6.6-10.8c0.2-0.4,0.4-1,0.2-1.4c-2.7-8.1-3.6-17.1-10.8-23
		c-3.1-2.6-6.6-4.8-9.9-7.3c-6.5-4.8-9.2-11.7-10.3-19.4c-0.9-6.3-2.9-11.3-9-14.7c-2.1-1.2-2.4-5.9-3-9.1
		c-2.3-11.8-5.5-23.5-13.5-32.4c-2.9-3.2-10.4-3-15.7-2.8c-5.4,0.2-10.8,2.2-16,3.8c-5.3,1.6-10.4,3.8-15.7,5.2
		c-3.3,0.9-7,0.7-10.4,0.9c-3.9,0.3-7.9,0.1-11.7,0.8c-1.5,0.3-2.6,2.5-4,3.8c-1.3,1.1-2.6,2.6-4,2.9c-1.1,0.2-2.5-1.4-3.7-2.1
		c-0.1-0.1-0.2-0.2-0.3-0.4c-2-2.6-0.6-8.2-6.6-7.4c-3.6,0.5-7.2,0.5-10.8,0.9c-8.8,1-17.6,2.9-26.3,2.9c-9.1,0-18.4-1.1-27.3-3.1
		c-9.8-2.3-19.1-0.6-28.7,0.8c-6.8,1-13.6,2.2-20.5,2.5c-10.3,0.4-20.7,0.3-31,0.1C850,743.5,835.3,742.8,819.9,742.1z"/>
	<path onclick="modals(this.id);"  id="267" class="st0" d="M817.8,685.9c-0.4,7.2,2.4,13.8-1.6,20.5c-1.6,2.8-0.5,7.3-0.6,11c-0.2,4.9-0.9,9.9-0.6,14.7
		c0.6,8-1.4,15.3-4.3,22.5c-1.1,2.7-1.7,5.6-2.6,8.9c-12.4,4.1-25.2,5-37.7-2.6c-7.7-4.6-16-5.7-24.7-3c-1.8,0.5-3.8,0.1-5.7-0.4
		c3.6-0.9,7.2-1.8,10.8-2.8c0.7-3.1-1.3-7.9,6.2-6.4c-1.9-5.9-2.4-11.6-5.5-15.2c-1.8-2.1-7.8-1.5-11.7-0.9
		c-8.5,1.4-8.7,1.7-9.8-6.5c-0.9-6.7-1.5-13.4-2-20.1c-0.2-2.8-1.2-3.8-3.9-3.8c-3.1-0.1-6.3-0.3-9.3-1c-10.3-2.2-17,3-22.7,10.5
		c-0.8,1-1.4,2.2-2.3,3.1c-2.7,2.6-2.7,5-0.1,7.7c6.1,6.3,12.1,12.7,18.1,19.1c1.3,1.4,2.3,3.1,3.6,4.9c-1.7,1.2-3,2.2-4.4,3.1
		c-2.9,1.9-6.5,3.1-8.5,5.7c-8.6,11.6-22.5,14.6-33.8,21.8c-11.4,7.3-23.3,13.9-34.5,21.5c-3.2,2.2-5.4,6.4-7.1,10.2
		c-1.6,3.5-3.9,5.4-7.4,6.4c-4.5,1.3-9.2,2.3-13.4,4.4c-7,3.4-13.6,7.5-20.9,11.6c-6.1-6.7-13.1-14.4-20.1-22
		c-7.1-7.6-14.8-14.8-21.5-22.8c-7.6-9-17.2-14.4-27.8-18.7c-9.5-3.9-18.8-8.2-28.2-12.5c-18.5-8.5-37-17.2-55.5-25.8
		c-0.9-0.4-2.4-1.9-2.2-2.2c0.6-1.1,1.6-2.6,2.6-2.8c6.8-0.9,11.6-4.8,16.2-9.5c4.9-5,10.8-9,12.5-16.5c1.6-7.1,4-14,5.4-21.2
		c1-5.3,4.1-7.7,8.9-9c2-0.5,4.4-1,5.8-2.4c5-5,11.3-5.2,17.7-5.6c10.2-0.6,20-2.6,28.7-8.5c1.4-0.9,3.3-1.1,5.1-1.5
		c2.5-0.5,5.7-0.2,7.6-1.5c5.6-4.1,11.8-3.2,18-3.6c2.9-0.2,5.8-1.6,8.5-3c4.9-2.5,10.4-4.1,11.7-11c0.6-2.9,3.8-5.5,6.4-7.6
		c5.5-4.6,6.1-7.1,2-13.3c-6.1-9.3-12.3-18.4-18.4-27.8c-7.7-11.9-15.2-23.8-22.7-35.7c5.4-4.1,10.8-8.2,16.3-12.3
		c0.9,1.2,1.8,2.6,2.9,3.8c5,5.6,8.7,6.9,15.3,3.5c7.5-3.9,15-2.7,22.8-1.9c4.7,0.5,9.8-0.5,14.4-1.8c6.6-1.8,12.9-4.5,19.3-6.8
		c4.6-1.6,8.9-3.3,9.1-9.5c0-1.4,2.2-3.3,3.8-4c3.6-1.5,7.8-1.7,11-3.8c6.1-3.8,11.8-8.3,17.3-13c5.7-4.9,10.9-10.4,16.6-15.3
		c1.9-1.6,4.6-2.4,6.9-3.4c3.7-1.6,7.5-3,10.7-4.4c4.2,3.8,8.6,7.5,12.8,11.6c1.2,1.1,2.1,2.9,2.3,4.5c0.5,4.2-0.9,9.3,4.1,11.6
		c5.6,2.5,8.5-2.9,11.2-4.3c6,3.8,11.7,7.1,17.1,10.7c5.5,3.6,11.9,3,17.9,4.3c6,1.2,11.9,3.1,17.7,5.1c0.9,0.3,2.1,2.7,1.8,3.4
		c-1.7,3.9-3.2,8.2-6,11.3c-5.4,6.2-5.1,19.6,1.7,26.9c2.5,2.7,3.2,5.1,1.9,8.4c-0.4,0.9-0.5,2-0.3,2.9c1.5,9.2-3.8,15.4-9.3,21.7
		c-2.4,2.7-4.2,6.1-5.4,9.6c-2.4,7.2-4.7,14.5-6.2,22c-2.3,11.5,2.3,21.1,10.2,29.3c4.1,4.2,8.4,8.3,12.4,12.7
		c0.7,0.8,0.6,2.9,0.1,4.1c-0.5,1.3-2,2.2-2.8,3.4c-1.8,3-0.7,5.6,2.8,6C801.1,684,809.3,684.9,817.8,685.9z"/>
	<path onclick="modals(this.id);"  id="270" class="st0" d="M1172.4,929.4c-6.6,2.4-13.3,4.1-19.2,7.3c-6.5,3.5-12.3,8.2-18.1,12.9
		c-7.8,6.3-14.7,13.9-23,19.4c-7.3,5-16.4,7.2-25.3,5.6c-7.9-1.4-14.6,0.4-21,4.3c-5.2,3.1-10.1,6.7-15.2,9.9
		c-6.1,3.8-12.5,3.2-19.5,2.6c-9.2-0.8-19.1-2.6-26.9,4.7c-5.5,5-11.9,4.6-18.1,2.8c-7.6-2.1-14.6,1.2-21.8,1.5
		c-8.8,0.4-17.6,0.5-26.4,0.5c-3.7,0-7.3-0.5-11.5-0.8c0,0.1-0.2-0.7-0.3-1.4c-0.4-10.8-0.7-21.5-1-32.3c-0.2-5.9-3.3-8-9-6.4
		c-1.6,0.4-3.4-0.1-5,0.2c-3.9,0.9-7.7,2.2-11.6,3c-2.8,0.6-5.8,0.7-8.7,0.8c-3.8,0.2-7.7,0.2-11.5,0.1c-1.1,0-2.6-0.1-3.4-0.8
		c-5-4-10.1-2.2-14.6,0.4c-2.4,1.4-3.6,1.6-5.4-0.4c-3-3.2-6.7-4.2-11.1-4.4c-2.5-0.1-5.2-1.7-7.5-3.2c-3.4-2.3-6.4-5.1-11-4.6
		c-6.8,0.8-14-1.8-20.7,2.9c-2.9-8.1-6.1-16-8.3-24.1c-0.8-3,0.3-6.9,1.6-10c3.8-9.1,4.7-18.7,5.1-28.3c0.1-2.6-1.5-5.2-2.6-7.7
		c-1.9-4.2-4-8.2-6.6-13.7c8.6,0,16.3-0.4,24,0.1c6.8,0.5,10.2-1.3,11.2-8.3c0.9-6,1.4-12,2.1-18.1c0.1-0.8,0.1-1.7,0-2.5
		c-3.1-13.8-6.3-27.5-9.5-41.3c-0.1-0.6-0.5-1.3-0.4-1.9c1.8-11.9-2.8-22.5-6.6-33.3c-2.3-6.4,1.7-11.7,4.6-16.6
		c1-1.6,6.2-1.5,9.3-1c24.5,4,49.1,1.3,73.6,1.6c8.7,0.1,17.4-3,26.2-3.6c7.4-0.5,15-0.2,22.3,1.2c16.9,3.3,33.5,4.1,50.2-0.6
		c4.1-1.2,7.4-2,8.9,3.8c1,3.9,4.4,6.2,8.9,6.5c4.5,0.2,7.7-2.3,9.2-5.6c1.6-3.6,4.4-3.8,6.6-3.3c7.4,1.7,14.1,0.5,21.1-2
		c6.7-2.4,13.8-3.6,20.7-5.2c3.6-0.8,7.3-1.6,11-2c6.9-0.8,9.1,4.7,10.7,9.4c3.2,9.3,5.5,19,8.2,28.5c0.5,1.8,1.2,4.3,2.6,5
		c6.8,3.5,8.4,9.9,9.2,16.4c1,8.8,5.9,15.1,12.7,19.3c8.5,5.2,14,12.2,15.7,21.6c0.6,3.2-1.9,7.3-3.7,10.5
		c-2.8,5.1-6.1,9.9-9.5,14.6c-1.7,2.3-3.8,4.5-6.1,6.1c-6,4.1-12.5,6.8-20.1,6.7c-6.1-0.1-12,1-16.5,5.9c-0.8,0.9-2.3,1.9-3.4,1.9
		c-6.6-0.3-7.4,4.6-8,9.1c-0.8,5.9-3.1,9.7-8.9,12.3c-4.3,2-8,5.6-11.2,9.2c-3,3.3,0.2,9.2,5,12.7c7.9,5.8,15.8,3.4,23.9,1.4
		c3.6-0.9,7.5-1.2,10.9-2.7c4.1-1.8,7.7-4.5,11.6-6.7c1.5-0.9,3-2.4,4.6-2.5c7-0.5,13.9-1,20.3-4.4c1.1-0.6,3.7,0.5,4.8,1.7
		C1149.9,922.4,1160.7,926.5,1172.4,929.4z"/>
	<path onclick="modals(this.id);"  id="269" class="st0" d="M586.9,835.7c6.2-7.1,15.3-10.5,24.7-13.6c1.2-0.4,2.5-0.9,3.7-1.1c6.6-1.1,11.6-4.2,13.5-10.8
		c1.7-5.8,6.4-8.4,11-11.2c13.1-7.9,26.2-15.9,39.4-23.8c2.2-1.3,4.7-2.1,7-3.3c3.2-1.7,6.7-3.2,9.5-5.4c5.9-4.8,11.3-10,17.5-15.5
		c0.9,4.2,1.4,6.9,2.1,10.2c4.2-0.5,8.4-1,12.7-1.3c1.5-0.1,3.4-0.4,4.4,0.4c5.7,4,11.9,3.2,18,1.9c7.7-1.6,14.4,1.5,20.6,5
		c10.3,5.9,20.6,5.5,31.4,3c2.4-0.5,4.8-0.7,8.5-1.2c1.9,5.9,5.6,12.3,5.7,18.7c0.2,10.8,2.1,21.2,4.4,31.6
		c1.7,7.8,3.9,15.5,4.7,23.4c0.5,5.8-0.9,11.7-1.5,17.6c-0.4,3.7-2.6,4.8-6.2,4.8c-9.9-0.2-19.8-0.1-30.8-0.1c0.9,3.6,1.1,5.7,2,7.5
		c2.5,5.1,6.1,9.9,7.7,15.3c1.4,4.7,1.3,10.2,0.5,15.1c-1.2,7-3.1,14-5.6,20.6c-2.3,6.2,1.1,11.2,2.3,16.6c1.1,4.9,3.2,9.5,5,14.2
		c0.9,2.3,2.1,4.4,3.6,6.4c2.7,3.6,2.6,8,0.7,11.7c-1.5,2.9-2,6.5-2.3,9.8c-0.2,2.3-0.5,3.9-3,4.9c-5.2,2.1-10.4,4.2-15.2,6.8
		c-4,2.2-7.3,5.6-11.2,7.8c-2.5,1.4-5.7,1.9-8.6,2.2c-5.4,0.6-11,0.4-16.3,1.3c-11.2,2-22.4,4.1-33.4,7c-7.2,1.9-13.7-0.8-19.2-3.6
		c-12.9-6.5-22.3-1.9-31.8,6.4c-11.9,10.3-27,13.9-41.6,18.5c-0.9,0.3-2.7-0.8-3.5-1.7c-4.8-5.9-11.1-8.9-18.2-10.9
		c-2.9-0.8-6-2.9-7.9-5.3c-7.5-9.1-15.6-6.6-23.1-4.1c-1.5,0.5-3.3,0.5-4.8,0.3c-4.6-0.6-9.1-1.3-14.8-2.2
		c-6.9-9.2-13.8-11.5-26.1-7.8c-1.5-10.1-11.3-14.1-19.7-8c-0.9,0.7-2.8,1.4-3.3,0.9c-1.4-1-2.8-2.6-3.3-4.2
		c-0.6-1.6-0.2-3.6-0.1-5.5c0.3-6.6-0.9-12.7-7.1-17.4c8.7-0.9,16.6-1.8,24.6-2.4c1.8-0.1,3.7,1,5.6,1.5c3.3,0.8,6.6,1.5,9.8,2.5
		c2.3,0.7,5,1,6.8,2.5c4.1,3.5,8,2.4,12.4,1c7.4-2.5,14.8-5.2,22.4-6.5c5.8-1,12.1,0.2,18.1-0.1c6.5-0.3,12.9-1.5,18.5-5.5
		c5.8-4.2,7.3-7.7,5.7-14.8c-1.7-7.6-3.5-15.1-4.8-22.8c-1-5.6,0-10.7,5-14.4c6.6-5,6.6-10.6,0.3-17.6c-4.5-4.9-8.8-10-13.1-15.1
		c-0.8-1-1.8-2.1-2-3.3c-1.2-6-1.6-12.3-3.4-18.1C592.9,848,589.7,842.1,586.9,835.7z"/>
	<path onclick="modals(this.id);"  id="266" class="st0" d="M720.6,755.4c-2.6-16.4-16.1-25.5-26.4-36.9c2.8-3.2,5.6-6.2,8.1-9.4c2.2-2.9,5-3.5,8.3-3.1
		c3.9,0.5,7.8,1,12,1.5c1.3,10.2,2.6,20.7,3.9,31.8c7.6-0.9,14.2-1.7,21-2.5c0.5,3.1,3.8,6.5-2,7.5c-0.3,0-0.6,1.5-0.5,2.3
		c0.6,5.5-3.2,5.9-7.2,6.4C732.3,753.7,726.7,754.6,720.6,755.4z"/>
</g>
</svg>
