<?xml version="1.0" encoding="utf-8"?>
<!-- Generator: Adobe Illustrator 19.0.0, SVG Export Plug-In . SVG Version: 6.00 Build 0)  -->
<svg version="1.1" id="Layer1" xmlns="http://www.w3.org/2000/svg" xmlns:xlink="http://www.w3.org/1999/xlink" x="0px" y="0px"
	 viewBox="0 0 4000 2000" style="enable-background:new 0 0 4000 2000;overflow: hidden; display: inline; width: inherit; min-width: inherit; max-width: inherit; height: inherit; min-height: inherit; max-height: inherit;" xml:space="preserve">
<style type="text/css">
	.st0{fill:#8FD4EB;stroke:#000000;stroke-width:3;}
</style>
<g>
	
	<path onclick="modals(this.id);"  id="2213" class="st0" d="M2800.3,1745.9c-6.7-1.6-12.6-3.3-18.6-4.5c-2.2-0.5-4.8-0.8-6.9-0.1c-6.3,2-12.4,0.8-18.7-0.1
		c-10.2-1.6-20.5-2.2-30.6-4.3c-8.7-1.8-17.2-4.7-25.6-7.6c-5.3-1.9-10.2-5.1-15.5-7.1c-5-1.8-10.3-2.8-15.4-4.1
		c-1.1-0.3-2.6,0.2-3.4-0.4c-6.6-4.9-14.2-3.5-21.5-3.7c-1.9-0.1-4.1-0.4-5.6-1.3c-6.4-4-12.4-8.4-18.8-12.4c-8-5-16.9-4.6-25.8-4
		c-8,0.6-15.9,2-23.9,2.7c-5.5,0.4-11.1,0.4-16.6,0c-11.2-0.8-21.2,3.9-31.6,6.4c-32.2,7.9-64.4,16.3-96.4,24.8
		c-14.8,3.9-29.4,8.4-43.9,13c-9.3,3-18.5,3.9-28.4,3.3c-14.7-0.9-29.3,1.8-42.1,10.4c-3.5,2.4-7.2,4.5-10.7,6.8
		c-4.1,2.6-7.4,1.9-9.8-2.1c-9-15.5-17.9-31.1-26.8-46.7c-8.8-15.4-17.7-30.9-26.5-46.3c-2.6-4.5-6.3-5.4-11.8-4.2
		c-14,3.1-28,5.7-42,8.7c-2.9,0.6-5.8,2.1-8.3,3.8c-10,6.5-21,9.3-32.7,10.2c-2.5,0.2-5.2,0.7-7.4,1.9c-9.2,4.9-18.2,10.3-27.4,15.2
		c-2.3,1.2-5.4,2-8,1.7c-6.6-0.9-12.4,1.4-17.7,4.5c-2.7,1.6-4.3,1.2-6.6,0.1c-11.4-5.6-22.8-11.2-34.4-16.5
		c-8.2-3.8-21-0.2-26.6,6.8c-1.3,1.6-3.6,2.9-5.6,3.1c-13.1,1.2-26.3,2.1-39.4,3.2c-6.4,0.5-12.7,1.3-19.1,1.9c-1.5,0.1-2.9,0-5.9,0
		c3.5-11.1,7.1-21.4,9.9-31.9c1.5-5.8,1.7-12,1.9-18c0-1.1-2.2-2.9-3.7-3.4c-7.9-2.8-16-5.4-24.4-2.5c-3.3,1.1-5,1.1-6.7-2.5
		c-3-6.4-9.7-8.5-15.4-11.3c-6.4-3.2-12.1-6.4-15.5-13.4c-2.3-4.6-7.8-6.4-12.9-8.1c-5.4-1.8-10.3-5.4-15.2-8.5
		c-10.7-6.9-21.4-13.8-31.6-21.3c-6.1-4.5-11.6-9.9-16.9-15.3c-3.7-3.8-8.1-5.5-13.1-5.6c-8.2-0.1-14.6-4.1-20.9-8.5
		c-0.7-0.5-1.3-2.4-1-2.9c8.6-13.8,2.7-27.4,0.2-41.3c-1.7-9.5-6.1-15.8-13.6-21c-6-4.1-7.4-10.9-7.7-17.3
		c-0.3-7.3-1.6-14.1-5.3-20.1c-5.1-8.3-5.6-16.7-2.9-25.8c2.1-6.8,3.4-13.9,4.9-20.9c0.7-3.4-2.8-8.3-7-9
		c-8.4-1.4-15.4-5.5-21.3-11.2c-2.8-2.7-4.6-6.6-6.3-10.3c-1.6-3.5-1.8-7.7-3.8-11c-2.1-3.5-4.8-7.3-8.3-9.2
		c-8.5-4.9-17.5-8.8-26.8-13.4c5.4-8.6,11.1-17.7,16.9-26.8c3.6-5.7,7.2-11.3,10.8-16.9c2.1-3.4,1.7-6.6-0.2-10.1
		c-6.9-12.6-13.6-25.3-20.5-38c-4.8-8.9-9.8-17.7-14.7-26.6c-5.9-10.7-11.8-21.5-17.9-32.1c-0.7-1.2-2.7-2.4-4.2-2.4
		c-12.3,0.1-24.5,0.4-36.8,1.1c-2.3,0.1-4.8,2.3-6.7,4c-6.4,5.5-12.7,11.3-19,16.9c-0.7,0.6-1.7,0.8-2.7,0.9
		c-5.7,0.7-11.5,0.9-17,2.3c-2.2,0.5-4.1,3.2-5.6,5.3c-2.1,3-3.2,6.8-5.7,9.3c-3.1,3.2-7,6-11,8.1c-6.8,3.5-14.1,0.9-21.2,0.6
		c-4.6-0.2-10.2-0.4-13.6-3c-7.9-5.9-17-4.7-25.7-6.7c-9.3-2.1-18.9,1.5-28.1-2.6c-1.7-0.7-6,0.8-6.8,2.5c-2.5,5.1-7.9,4.4-11.7,6.9
		c-0.5,0.4-2.9-0.8-3.3-1.7c-0.8-1.9-1-4.1-1.2-6.2c-0.7-9.1-3-11.7-12.1-11.6c-5.4,0-10.8,0.8-16,2.1c-9.1,2.2-18.1,5.1-28.4,8.1
		c6.9-13.3,20.2-16.2,30.1-23.6c0.1,0.5,0.1,1,0.2,1.5c3,0.5,6.7,2.3,8.8,1.1c2-1.1,2.3-5.3,3.4-8c1-2.6,2.1-5.3,3.3-7.9
		c1-2.2,2.1-4.4,3.4-6.9c5.5,3.5,11.4,6.9,17.2-1.4c2.4,1.3,5,2.6,7.7,4c0.9,0.4,1.8,0.8,2.7,1.1c6.6,1.7,13.2,3.2,19.7,5
		c1.2,0.3,2.1,1.9,3,3c1.4,1.9,2.3,5,4,5.5c1.8,0.5,5.2-1,6.3-2.6c2.5-4,5.6-4.4,9.9-4.2c2.4,0.1,5.8-1.2,7.2-3c2.4-3.2,4.4-2.2,7-1
		c1.3,0.6,2.7,1.1,4.1,1.2c6.5,0.3,7.7-1.5,6-7.4c3.8-0.9,8.2-1,11.2-3c3.2-2.2,5.5-6.1,7.3-9.7c2.6-5,1.5-9.5-2.4-13
		c1.1-1.2,2.9-2.3,3.2-3.7c0.3-1.2-0.9-2.9-1.8-5.1c1.8,0.3,3.3,0.9,4.6,0.7c2.4-0.4,6.1-0.7,6.8-2.1c0.9-2-0.5-5-1.1-7.5
		c-0.3-1.1-1-2.1-1.8-3.6c2.1-0.3,3.6-0.4,5-0.7c1.4-0.3,2.8-0.8,5.2-1.5c-0.8-4.1-1.2-8.5-2.4-12.6c-3-10.3-7-20.3-9.5-30.7
		c-2.8-11.8-4-24.1-6.8-36c-1.5-6.2-4.7-12.1-7.4-18c-2.9-6.4-2.1-8.1,4.8-8c9.1,0.2,18.2,0.9,27.3,0.9c15.6-0.1,31.2-0.6,46.8-0.9
		c0.8,0,1.7,0,2.5,0c44.4-0.3,88.9-0.6,133.3-1c24.3-0.2,48.5-0.6,72.8-1.1c1.8,0,4.2-1.3,5.4-2.8c7.8-9.8,15.4-19.9,23.3-30.1
		c3.4,0.6,6.9,1.4,10.4,1.9c3.1,0.5,4.7,2.1,5.7,5.2c2.2,7,4,8.4,13.4,11.4c0,2.7-0.4,5.6,0.1,8.3c1.5,9.5,9.5,15.8,19.3,16.4
		c2.6,0.1,5.2,1.9,7.5,3.4c6.5,4.1,12.7,8.4,19.2,12.5c2.1,1.3,4.5,2,6.6,3.2c1.6,1,2.9,2.5,4.4,3.7c1.1,0.8,2.4,2,3.5,1.9
		c9.9-0.5,19.7-1.2,29.6-1.8c6.4-0.4,12.9-0.8,19.3-1.1c8.3-0.4,16.6-0.4,24.8-1.1c7.9-0.6,15.4,1,23.2,1.7
		c6.7,0.7,13.6-1.2,20.5-2.2c11.8-1.7,23.6-3.6,35.3-5.5c7.7-1.3,15.4-2.6,23.1-4.1c0.9-0.2,2.4-1.2,2.4-1.9c0.3-6.5,5.8-7.7,10-9.9
		c5.5-2.8,11.5-4.6,16.9-7.5c5.1-2.8,9.7-6.4,8.4-13.6c-0.5-2.7-0.1-5.5,0.9-8.5c5.4,8.3,10.7,16.5,16,24.8
		c7.1,11.1,14,22.4,21.4,33.4c1.5,2.3,4.5,3.7,6.9,5.4c9.6,6.8,19.5,13.2,28.6,20.6c4.4,3.6,8.1,8.8,10.7,13.9
		c1.6,3.2,1.1,8,0.2,11.7c-1.1,4.8,0.6,11.1,5.1,11.8c2.3,0.4,5.5-0.6,7.4-2c11.1-8.7,21.9-17.8,32.9-26.6c0.9-0.7,2.1-1.2,2.5-1.4
		c2.7,8.6,6,16.6,7.7,25c2.2,10.5,3.3,21.3,4.6,32c1.5,11.7,2.1,23.6,4.4,35.1c1,4.9,5.4,9.1,7.9,13.8c0.8,1.6,1.2,4,0.7,5.7
		c-3.2,10.4-6.7,20.6-10,31c-2.3,7.2-1.1,14,3.1,20.1c6.8,9.7,10.9,20.4,14.1,31.9c3.7,13.3,11.6,23.2,26,28.2
		c9,3.1,16.7,10.5,24.4,16.8c3.7,3,6,7.6,8.8,11.6c0.9,1.3,1.5,3.1,1.3,4.6c-1,10.3,5,18.4,8.2,27.4c2.5,7,7.1,11.7,13.4,15
		c6.6,3.5,11.6,1.8,13.5-5.5c1.5-5.9,5.2-8.4,9.9-10.9c4-2.1,8-4.7,11.3-7.8c1.8-1.7,2.5-4.8,2.9-7.4c1.3-7.6,2-15.2,3.4-22.7
		c0.3-1.8,2.4-3.4,3.9-4.7c4.7-3.8,9.8-7.2,14.3-11.2c7.4-6.6,14.6-13.5,21.6-20.6c4.2-4.2,7.7-9,11.6-13.4
		c8.8-9.9,19.9-15.7,32.7-18.8c9.2-2.3,13.6-2.7,13.6,12c0,7.7-1.4,15.7,0.4,23c1.8,7.7,5.8,15.2,10.4,21.7
		c3.8,5.2,5.4,5.7,1.5,10.3c-5.1,6.1-6.2,13.6-8.1,20.7c-6.1,22.8-11.9,45.7-17.8,68.5c-1.5,5.9-0.5,8.8,4.4,12.1
		c28.1,18.5,56.2,36.9,84.3,55.3c22.8,14.9,45.7,29.7,68.5,44.6c11.6,7.6,23,15.7,35,22.5c6.6,3.8,9.9,9.1,10.2,15.8
		c0.6,13.6,5.5,26.1,7.9,39.2c1.2,6.5,0.9,13.2,1.3,19.8c0.5,8.1,2.3,16,7.5,22.2c3.2,3.8,7.8,6.4,11.8,9.4
		c7.4,5.6,12.7,12.9,16.8,21.2c5.2,10.7,10.2,21.5,15.8,32c2,3.7,4.9,7.1,8,9.9C2799.7,1737.5,2798.9,1741.7,2800.3,1745.9z"/>
	<path onclick="modals(this.id);"  id="2210" class="st0" d="M1496.8,653.5c-3.4-8.1-6.8-16.1-10.1-24.3c-4.4-11-8.8-22.1-13-33.2c-1.3-3.5-2.3-7.1-2.9-10.8
		c-2.1-11.7-8.7-21.3-14.3-31.4c-3.3-6-5.4-12.5-8.6-18.6c-2.4-4.6-4.9-9.4-8.4-13.1c-10.6-11.1-19.3-23.5-27.3-36.6
		c-8-13.1-16.3-25.9-24.8-38.7c-3.5-5.2-8.3-6.1-14.6-4.3c-3.4,1-6.9,1.7-10.4,2.3c-1.1,0.2-2.4-0.6-3.5-1.4
		c9.4-0.5,17.8-3.5,25.9-7.7c1.2-0.6,2.8-0.6,4.2-0.8c4.5-0.6,9-1.5,13.6-1.7c6.8-0.3,13.7-0.2,20.5-0.2c4,0,8.1-0.1,12.1-0.1
		c8.4,0,16.8,0.4,25.1-0.1c9.5-0.6,18.9-1.9,28.3-3.2c11.8-1.7,23.5-3.7,35.3-5.6c2.1-0.3,4.3-0.5,6.2-1.2c3.8-1.3,4.9-7.1,1.8-10.3
		c-4.9-5.1-10-10.1-15.5-15.5c4.4-2.4,9.6-5.2,14.8-8.1c27.8-15.3,55.5-30.6,83.3-45.8c12-6.6,24.2-13,36.2-19.5
		c24.7-13.5,49.2-27.1,73.9-40.5c16.1-8.8,32.2-17.4,48.3-26.1c10.6-5.8,21.1-11.8,31.9-17.2c2.8-1.4,6.4-1.6,9.7-1.5
		c1.2,0,3.1,2.3,3.3,3.7c0.3,2.5-0.2,5.2-0.7,7.8c-0.9,4.7,2.9,14.3,7,16.3c4.8,2.4,7.8,5.9,11,10.2c6.4,8.7,14.4,16.1,21.6,24.2
		c2.4,2.8,4.1,6.2,6.2,9.3c2.9,4.3,5.7,8.7,9,12.7c4.7,5.7,9.7,11.2,14.7,16.7c0.7,0.8,1.7,1.8,2.7,2c8.3,2.1,11.9,9.6,17.1,15.1
		c6.7,7.2,12,15.7,19.1,22.5c6.5,6.2,7.1,13.7,7.4,21.4c0.7,14.6,0.8,29.2,1.1,43.8c0.1,3.8,2,5.5,5.3,7.3c11.4,6.1,24,8,36.3,11
		c7,1.7,12.9,5.6,18.8,10.8c-12.3,3.9-23.8,7.8-35.5,11c-22.9,6.3-45.3,14.1-67.4,22.9c-21.8,8.7-43.8,16.8-65.6,25.2
		c-10.9,4.2-21.9,8.3-32.8,12.6c-3.4,1.3-4.9,4-5,7.7c-0.3,16.3-0.6,32.5-1,48.8c-0.1,3.9,0.4,8.4-1.2,11.7
		c-6.1,12.8-2.3,26.2-2.6,39.2c-0.7,30.3-0.3,60.7-0.2,91c0,6.9,0.5,13.9,1,20.8c0.2,2.9-0.8,4.1-3.5,5.4c-2.9,1.4-5,4.4-7.1,6.4
		c-1.8-2.6-3.6-7.6-6.8-8.8c-2.7-0.9-6.9,2.7-10.9,4.5c-1.1-2.5-2.5-6.5-4.7-10c-4.6-7.5-12.5-9-19.6-4.3c-1.1,0.7-2.2,1.5-3.2,2.2
		c-4.6,3.1-8.9,4.7-13.8,0c-4.3-4.1-9.3-2.3-14.2-0.4c-3,1.1-6.3,2-9.4,2c-4.7,0-8.6,1.1-12.4,3.9c-5.1,3.8-7.8,3.3-12.4-1.3
		c-5.2-5.1-8.6-5.9-12.8-2.4c-1.6,1.4-2.2,4-3.2,6.1c-0.8,1.6-1.4,3.3-2.1,5c-0.5,0-1.1,0.1-1.6,0.1c-2.4-5.2-5.6-10.1-7.1-15.5
		c-1.4-5-1.5-10.5-1.1-15.7c0.5-6.3-1.8-11.5-4.5-16.8c-11.7-22.9-23.2-45.8-34.9-68.7c-1-2-2.5-4.1-4.3-5.2
		c-9.9-6-19.9-11.9-30.1-17.3c-2.5-1.3-6.5-1.8-9.1-0.8c-18.4,6.5-36.7,13.5-55,20.3C1499,652.8,1497.7,653.2,1496.8,653.5z"/>
	<path onclick="modals(this.id);"  id="2212" class="st0" d="M1788,621.6c5.2,4.4,9.5,7.9,13.6,11.6c16.6,14.6,33.2,29.1,49.7,43.7
		c10,8.9,19.8,17.9,29.9,26.8c12.6,11.1,25.3,22,38,33.1c6,5.2,12,10.4,17.7,15.9c1.1,1.1,1.4,3.7,1,5.4c-0.5,2.3-1.8,4.6-3.1,6.6
		c-9.6,14.7-14,30.7-11.7,48.3c0.4,3.3-0.9,4.6-4.2,5.2c-9.3,1.8-18.3,4.5-26.3,9.9c-2,1.4-4.9,2-7.4,1.9
		c-20.8-0.2-41.5-0.6-62.3-0.9c-1.8,0-3.6,0-5.9,0c0,6.4,0.1,12.3,0,18.3c-0.2,8.4-0.3,16.9-1.2,25.3c-0.2,2.2-2.5,5.4-4.5,6.1
		c-11.5,3.7-19.8,11.3-27.4,20.2c-4.5,5.3-8.2,11.7-14.8,15.3c-1.1,0.6-2,2.9-2,4.4c0.2,7.9,0.7,15.8,1.1,23.5
		c-0.7,0.5-0.9,0.9-1.2,0.9c-11.1,0.4-22.2,1-33.3,1.1c-6.8,0.1-13.4,0.1-16.4,7.9c-6.5-4-12.7-7.8-18.1-11.2
		c2.6-7.6,5.9-15.1,7.7-22.9c1.2-5.1,1-10.8-0.2-15.9c-1.3-5.7,0.4-10.1,2.8-14.8c1.1-2.2,2.6-4.8,2.4-7.2
		c-0.4-5.6,2.6-8.4,6.7-11.1c1.7-1.1,3.4-3.1,4-5c1.5-4.9,2.5-10.1,3.4-15.2c0.3-1.5-0.3-3.3-1-4.7c-1-2.1-1.9-3.7,0.2-5.9
		c0.9-0.9,0.6-4.8-0.1-5.1c-6.8-3.3-12.8-9-21.3-7.8c-2.9,0.4-5.8,1-8.6,2c-5.8,2-10.4-1.6-15.1-3.6c-19.7-8.6-39.3-17.6-58.9-26.4
		c-15.6-6.9-31.3-13.9-47.1-20.4c-5.3-2.2-5.7-5.5-4.5-10.9c11.3,0.7,22.8,1.7,34.3,2.1c11.4,0.4,22.9,0.1,33.8,0.1
		c3,7.9,4.8,8.9,10.8,9.1c4.1,0.1,5.5-2.3,6.5-5.4c0.7-2.1,1.2-4.3,2-7.2c1.9,1.1,3.7,1.5,4.5,2.6c2.5,3.6,5.7,4.9,10.1,5.4
		c4.1,0.5,7.2,0.7,10.2-2.6c1.7-1.8,4.3-3.5,6.7-3.7c6-0.6,11.9,0.1,17.7-2.9c1.8-0.9,6,1.3,8.3,3.1c3.8,3,7.2,3.4,11.2,0.7
		c2.4-1.6,5.2-2.7,7.7-4.2c6.8-4.3,11.8-2.7,14.6,5c0.7,2,0.9,4.3,2.1,5.9c1.5,2,3.5,4.1,5.8,5c2.6,1.1,5.1-0.2,6.2-3.3
		c0.4-1.2,1.2-2.4,2.3-4.4c1.4,3.3,2.1,4.5,2.4,5.9c0.9,4,3.1,5.3,7.3,5.2c4-0.1,5.4-2.3,6.7-5.3c0.5-1.1,1.3-2.6,2.2-2.7
		c4.8-0.8,5.6-4.5,5.6-8.1c-0.1-15.3-0.5-30.5-0.8-45.8c0-0.2,0-0.3,0-0.5C1788,687.4,1788,655.2,1788,621.6z"/>
	<path onclick="modals(this.id);"  id="2208" class="st0" d="M1424,703.2c-9.6-2.9-18-2.3-26.7,1.9c-16,7.7-32.4,14.5-49,21.8c-1-3.6,0.6-8.9-6.9-7.8
		c1-5.9,1.5-11.5,2.9-16.7c1.9-6.9,2.6-13.2-1-20c-1-1.9,0.5-6.8,2.5-8.4c9.1-7.9,7.1-18,6.7-28c-0.1-2.3,0.7-4.7,0.9-7
		c0.3-3.1,1.5-6.6,0.5-9.1c-2.5-6.1-3.3-11.9-2.2-18.5c1.1-6.6,0.6-13.5,1.3-20.2c0.4-3.5,2-6.8,2.9-10.3c2.8-10.9,1.5-21.5-2.5-32
		c-2-5.4-4.9-11.6-4.1-16.9c1.8-10.6-4.7-19.1-4.8-29.1c-0.1-5.3-4-10.5-6.1-15.7c-2.2-5.4-5.1-10.6-6.1-16.2
		c-0.6-3.2,1.9-7.1,2.9-10.6c0.2-0.6,0.5-1.2,0.6-1.9c1.5-10.4,1.8-10.8,12.1-12.3c1.3-0.2,3,0.3,4.2,1c7.1,4,14.3,4,21.7,1
		c3.6-1.4,6.7-0.8,9.1,3c12.5,19.5,25.1,38.9,37.8,58.3c2.4,3.7,5.2,7.3,8.4,10.2c7.6,6.9,12.5,15.3,16.2,24.9c3,8,8,15.3,11.7,23.1
		c3,6.3,5.5,12.8,7.9,19.3c6.3,16.7,12.3,33.6,18.6,50.3c1.8,4.9,4.2,9.5,6.2,14.3c1.2,2.7,0.4,4.5-2.4,5.7
		c-14,5.9-27.9,11.9-41.8,17.8c-5.2,2.2-10.4,4.7-15.8,6.5c-4.9,1.6-5.6,5.4-5.8,9.5C1423.8,694.8,1424,698.6,1424,703.2z"/>
	<path onclick="modals(this.id);"  id="2209" class="st0" d="M1634.4,763.7c-8.4-0.4-17-0.9-25.7-1.3c-0.8,0-1.6-0.3-2.4-0.3c-11.9-0.4-23.9-0.7-35.8-1
		c-10.6-0.3-21.2-0.6-31.8-1c-2.1-0.1-4.1-0.8-5.6-1.1c0-8.6-0.1-17,0.1-25.4c0.1-3.4-0.9-4.7-4.4-5.5c-25.4-6-50.6-12.4-76-18.5
		c-7.7-1.9-15.5-3.6-24-5.5c0.5-4.9,0.7-9.6,1.5-14.3c0.2-1.3,2.2-2.8,3.6-3.4c19.6-8.4,39.2-17,58.9-25
		c13.3-5.4,26.8-10.1,40.2-15.1c5.8-2.1,12.1-3.3,17.3-6.4c6.8-4.1,12-1.6,17.6,1.8c6.9,4.1,13.8,8.1,20.5,12.4
		c2.3,1.5,4.7,3.6,5.9,6c12.5,24.3,24.8,48.7,37.1,73.1c1,2,1.4,4.3,1.6,6.6C1633.5,747.5,1633.9,755.5,1634.4,763.7z"/>
	<path onclick="modals(this.id);"  id="2211" class="st0" d="M1379.4,1215.3c3.8-8.3,3-9.6-6.7-17.1c-9.7-7.5-19-15.7-28.5-23.5c-10.6-8.7-21.4-17.4-32-26.1
		c-4.6-3.8-8.8-7.9-13.6-11.4c-5.7-4.1-3.6-10.3-4.4-15.5c-1.9-13-2.9-26.1-4.2-39.2c-0.7-7-1.5-14-2-21.1c-0.1-1.8,0.6-3.9,1.5-5.5
		c2.7-5,6.3-9.6,8.5-14.8c1.3-3.2,1.9-7.5,0.8-10.6c-5.4-15-11.6-29.7-17.4-44.6c-3.5-8.9-7.8-17.4-8.7-27.3
		c-0.6-7.2-5-10.5-12.1-10.9c-12.8-0.8-25.9-2.5-36.7-10c-8.7-6-17.4-12.2-23.4-21.4c-1.5-2.4-4.3-3.9-7.1-6.4
		c2.3-2.1,4.2-4.4,6.6-5.9c10.9-6.8,22.2-12.7,34.8-16.2c7.5-2.1,8.1-6.9,8.7-14.5c0.7-7.4-3.1-14.4-0.1-22.1
		c1.7-4.3,0.1-9.8,0.3-14.8c0.1-2.7,0.4-5.7,1.5-8.1c4.1-8.8,9.2-17.1,10.9-27.1c1.7-10.3,0.6-20.3-1.7-30.3c-1-4.3-0.7-7.2,4.1-9.4
		c24.7-11.2,49.1-22.9,73.8-34.2c2.9-1.3,6.5-0.9,10-1.3c0.1,0.1,0.4,0.3,0.5,0.6c0.8,8,0.9,8.3,8.5,5.2
		c11.7-4.9,23.2-10.4,34.9-15.5c7.6-3.4,15.1-6.9,22.9-9.8c2.3-0.9,5.5-0.1,8.1,0.5c20.4,4.8,40.8,9.7,61.3,14.6
		c16.4,3.9,32.9,7.7,48.6,11.4c0,9,0.2,17.6-0.1,26.1c-0.1,4.2,0.9,6,5.5,5.8c9.9-0.3,19.8-0.1,30.1-0.1c0.2,2.4,0.6,3.7,0.4,4.9
		c-1.1,6.2,2,9,7.4,11.3c29.6,12.9,59,26.1,88.5,39.2c8.6,3.8,17.1,8.2,26,11.3c3.9,1.4,8.9,1.2,12.9,0.1c7.4-2.1,13.7-0.9,18.2,2.7
		c1.5,4.7,2.8,8.3,3.7,12c0.5,2.2,0.5,4.7,0.3,7c-0.8,7.6-6.9,11.6-11.5,16.5c-0.8,0.8-2.3,1.9-2.2,2.6c2.1,9.7-7.7,17.1-5.3,26.8
		c0.4,1.7,0.8,3.5,0.9,5.3c0.2,3.8,0.8,7.9,0,11.5c-1.3,5.4-3.5,10.7-5.9,15.8c-1.8,3.7-4.8,5.8-9.6,4.1c-13-4.5-26-3.1-39.2-0.3
		c-4,0.8-8.5-0.8-12.8-0.6c-4.2,0.2-8.4,1.2-12.6,1.9c-2.3,0.4-4.5,0.9-6.8,1c-7.3,0.1-14.7,0.2-22,0c-5.3-0.1-10.3-0.1-14.7,4
		c-2.2,2.1-5.1,3.2-8.2-0.1c-2.3-2.5-5.6-2.9-9.4-2c-10.8,2.5-21.7,4.6-32.6,6.5c-7.3,1.3-4.8,7.3-6.1,11.5c-0.6,2-0.1,4.3-0.1,6.9
		c-10.7,0.8-21.3,1.5-33.7,2.4c3.7,6.3,6.6,11.5,9.8,16.5c9,14.4,18.1,28.7,26.9,43.2c1.1,1.9-0.1,5,0.7,7.2c1.5,4.6,3.7,9,5.2,13.6
		c1.7,5.4,2.8,10.9,4.2,16.4c0.7,2.7,1.4,5.3,2,8c1.5,7.7,2.5,15.5,4.6,23c3.3,11.9,7.3,23.5,11.1,35.6c-0.9,0.2-2.2,0.4-3.4,0.7
		c-3.2,0.9-5.3,2.3-5.5,6.4c-0.3,5.1-4.4,7.8-12,8.8c0.5,2.3,1,4.6,1.5,7.3c-4.4,5.8-4.4,5.8,4.1,12.2c-2.4,3.7-4.5,7.6-7.3,11.1
		c-0.8,1-3.3,0.9-5.1,0.9c-7.7,0.1-7.7,0.1-8.4,7.7c-2.3-0.6-4.5-1.3-6.8-1.6c-3.8-0.6-6.7,1-9.2,3.7c-0.8,0.9-2.5,1.9-3.5,1.7
		c-7-1.5-7.3-1.5-12.8,5.1c-0.9-4.8-3.8-5.9-8.4-6.9c-8.8-1.9-17.6-4.2-25.8-8.5c-4-2.1-9-3.2-11.8,2.8c-0.3,0.5-2.6,0.6-3.7,0.1
		c-1.3-0.6-2.1-2.1-3.3-3c-3.7-3-7-2.2-9,2.2c-1.3,2.8-2.8,5.5-4.1,8.3c-0.8,1.7-1.8,3.4-2.2,5.3c-0.4,1.9-0.1,3.9-0.1,6.4
		c-10.1-3.9-16.8,2.7-24.2,6.7c-4.3,2.3-8.3,4.9-12.5,7.4C1379.3,1215.2,1379.4,1215.3,1379.4,1215.3z M1379.4,1215.3
		c-6.9,3-13.8,5.9-21.6,9.3c3.1,3.5,5.5,6.2,8.8,10c4.7-7.2,8.6-13.3,12.6-19.4C1379.3,1215.2,1379.4,1215.3,1379.4,1215.3z"/>
	<path onclick="modals(this.id);"  id="2207" class="st0" d="M1497.4,971c2.9,0,4.5,0.1,6.1,0c6.8-0.3,13.5-0.5,20.3-1.1c1.2-0.1,2.9-2,3.1-3.3
		c0.8-4.5,1-9.1,1.5-14.5c9.1-2,18.6-4,28-6.1c4.4-1,8.1-0.4,12.3,2c5.1,2.9,10.7,1.1,15.5-2.6c1.5-1.2,3.7-2.1,5.6-2.2
		c7.2-0.3,14.3,0.2,21.5-0.2c6.3-0.4,12.6-1.9,18.9-2.5c2.9-0.3,5.8,0.7,8.7,0.5c7-0.4,14.2-0.6,21.1-2c8.8-1.9,17.2-0.1,24.9,2.9
		c9.5,3.7,18.4,9,27.2,14.1c4.8,2.8,6.9,3.4,9.4-1.2c3.5-6.3,9.5-5.1,14.6-5.5c11-0.9,22.2-1,33.3-1.1c3.6,0,4.8-1.4,4.5-4.7
		c-0.7-6.5-1.4-13-1.9-19.6c-0.2-2.4,0-4.2,2.5-6.3c5.2-4.4,9.8-9.7,14.2-15c7-8.4,14.7-15.6,25.6-18.8c3.9-1.2,6.8-3.9,6.8-9.1
		c0.1-8.9,1.4-17.7,1.7-26.6c0.2-4.4-0.7-8.8-1.1-13.6c10.7,0,20.9,0,31.1,0c2.5,0,4.9,0.5,7.4,0.5c6,0.1,12-0.2,18,0.1
		c8.7,0.4,16.6-0.7,24.5-5.6c5.7-3.6,13.1-4.6,19.8-6.4c3.8-1,5.9-2.3,5.6-6.9c-0.5-8.3-0.1-16.6,0.3-25.1
		c-0.7,10.5,8.4,16.1,11.9,24.4c1.4,3.3,4.2,6,6.8,8.6c1.2,1.2,3.4,1.8,5.2,1.9c9,0.2,18.1,0.1,27.1,0.1c31,0,62,0,93,0
		c0.6,0,1.3,0.1,2.1,0.2c2.1,13.7,2.5,27.2-1.8,40.5c-3.5,10.9-0.6,18.4,8.3,25c5.8,4.3,9.7,10.4,11.8,17.3
		c1.7,5.6,3.6,10.7,8.2,14.7c3.6,3.1,6.6,6.9,9.7,10.6c1,1.2,2,2.9,2,4.3c0,9.9,6.2,17,11.1,24.6c7.3,11.4,14.7,22.7,22,34.1
		c0.4,0.7,1,1.4,1.1,2.1c0.1,4.8,0.1,9.7,0.1,14.5c0,6.2-1.9,8.6-7.7,11c-9.9,4.1-19.7,8.3-27.9,15.7c-2.5,2.2-6.9,2.6-10.5,3.2
		c-15.5,2.5-31.2,3.9-46.5,7.4c-10.8,2.5-20.9-0.2-31.3-0.1c-19.3,0.3-38.6,1.7-57.9,2.8c-7.4,0.4-14.9,2.4-22,1.5
		c-4.6-0.6-8.7-5.1-12.9-8c-1.5-1.1-2.5-3-4.1-3.9c-9.2-5-17.8-10.6-29.1-11.1c-7.4-0.3-14.9-6.6-13.2-15.5c0.9-4.7-0.8-8.3-6-9.8
		c-4.6-1.3-8-4.3-8.9-9.3c-0.5-3-1.8-4.6-5.3-5.3c-4.9-1.1-9.4-3.8-14.3-5.3c-1.2-0.4-3.5,0.9-4.4,2.1c-5.5,7.1-10.8,14.4-16.1,21.6
		c-2.5,3.4-4.9,7-7.9,10c-1.2,1.3-3.8,1.8-5.7,1.8c-26,0.1-52-0.1-78,0.1c-27.3,0.2-54.5,0.7-81.8,1c-40.1,0.4-80.2,0.6-120.3,1.1
		c-3.5,0-5.2-1.3-7-4.2c-9.3-15.2-18.8-30.2-28.2-45.3C1499.5,974.6,1498.8,973.4,1497.4,971z M1833.3,879c0.1,0,0.9,0,1.4-0.3
		c7-4.2,13.9-8.4,20.8-12.7c1-0.6,1.7-1.6,2.7-1.9c8.1-2.8,10.1-10.2,4.2-16.1c-1.4-1.4-2.9-2.8-4.2-4.2c-2.1-2.3-4.2-2.5-6.3-0.1
		c-4,4.4-8.7,4.9-14,2.9c-2.7-1-5.6-1.6-8.4-2.3c-3.6-0.8-5.6,0-5.5,4.4c0,5.9-0.6,11.8-0.9,17.7
		C1822.6,872.5,1827.7,879.1,1833.3,879z M1939.3,772c2.7-4.8,5.4-9.5,8.1-14.3c-0.6-0.3-1.3-0.7-1.9-1c-2.5,4.9-5.1,9.7-7.6,14.6
		C1938.3,771.5,1938.8,771.8,1939.3,772z"/>
	
	<path onclick="modals(this.id);"  id="2206" class="st0" d="M1829,850.3c9.2,0,18.2,7.9,26-1.9c2.1,2,3.6,3.5,4.7,4.6c-0.6,8.7-8.2,8.8-13.2,12
		c-3.1,2-6.5,3.7-9.7,5.6c-4,2.5-7.5,0.9-7.7-3.9C1828.8,861.4,1829,856,1829,850.3z"/>
</g>
</svg>
