<?xml version="1.0" encoding="utf-8"?>
<!-- Generator: Adobe Illustrator 19.0.0, SVG Export Plug-In . SVG Version: 6.00 Build 0)  -->
<svg version="1.1" id="Layer_1" xmlns="http://www.w3.org/2000/svg" xmlns:xlink="http://www.w3.org/1999/xlink" x="0px" y="0px"
	 viewBox="0 0 8000 4000" style="enable-background:new 0 0 8000 4000;" xml:space="preserve">
<style type="text/css">
	.st0{fill:#FFFFFF;}
</style>
<g>
	<path onclick="modals(this.id);" id="2260" class="st0" d="M3052.1,2652c12.9-0.9,24.5-1.9,36.1-2.6c8.5-0.5,15.4-3.2,19.3-11.6
		c3.8-8.1,8.2-15.9,12.8-24.8c-5.9-4.3-11.4-8.4-17.1-12.2c-12.5-8.3-18.5-26.2-13.2-40.3c1.7-4.6,4-9.1,6-13.7
		c3.7-8.4,9.7-13.5,19-15.7c5.9-1.4,11-5.7,16.6-8.8c-1.4-8-10.2-14.8-0.6-23.2c0.7-0.1,2.7-0.6,4.5-0.3c9,1.4,17-1.5,24.9-5.3
		c11.5-5.4,22.9-6.3,34.3,0.6c1.4,0.9,3,1.3,4.6,1.9c0.3,0.1,0.6-0.1,2.2-0.5c0.8-3.9,1.7-8.3,2.7-12.7c2.1-9.1,4.7-11,14-9.7
		c10.5,1.5,21,3.4,32.6,5.3c2.9-8.8,7.8-17,17-19.9c3.7-1.2,8.7,2,12.5,3c4.6,9.9,5.9,19.1,1.6,28.6c-3.9,8.6,0.5,17,0.2,26.7
		c4,0.7,7.7,1.4,11.5,1.8c5.3,0.6,10.7,0.6,15.9,1.5c17.8,3.1,30.5,16.6,28.9,34.4c-1.6,18.1,2.7,32.9,14.4,46.6
		c5,5.9,9.7,11.7,15.9,16.3c4.4,3.2,7.2,7.3,8.3,13c2.5,13.9,7.6,26.4,16.4,37.9c4.9,6.4,6.2,15.9,7.9,24.3c0.8,4.3,2.2,7.1,5.4,9.9
		c7.4,6.6,14.4,13.6,21.2,20.7c1.4,1.4,2.1,4.1,2.2,6.2c0.1,5.3,0.1,10.7-0.7,15.9c-2.4,15.2,1.7,28.3,11.8,39.6
		c8.7,9.7,17.7,19,26.7,28.4c8,8.3,8.7,13.2,3.1,22.9c-1.2,2-2.3,4-3.2,5.6c0.3,1.2,0.2,2,0.6,2.4c9.9,10.2,16.5,22.4,21.1,35.7
		c1.6,4.6,4.4,7.1,8.9,8.4c7,2,14.5,7,20.7,5.7c7.6-1.6,14.1-8.3,20.8-13.2c2.3-1.7,3.7-4.7,5.8-6.8c4.9-4.9,9.8-9.8,15.2-14.2
		c5.4-4.5,12.6-3.9,18.2-1.9c11.6,4,19.6,0.6,26.9-8.3c4-4.9,9.2-8.7,13.1-13.6c2.8-3.6,5.8-4.9,10.1-4.8
		c10.3,0.1,20.6-0.5,30.9-0.1c13.6,0.5,24.7-3.6,32.2-15.5c0.5-0.7,1.4-1.2,2.8-2.2c1.1,11.3,2.1,21.9,3.2,33.8
		c10-0.2,17.9,5.6,26.4,10.1c12.6,6.6,24.5,0.2,36.2-4.1c3.1-1.1,6-2.7,7.2-3.2c9,3.3,16.3,6.7,23.9,8.4
		c17.6,3.9,31.3,12.4,39.8,28.7c1,2,2.7,3.7,4.7,6.2c4.1-3.2,7.9-6.2,11.7-9.2c6.2,2.9,7.6,7.1,6.3,13.7c-0.9,4.6,0.2,9.8,1.1,14.7
		c3.2,17.5,9.6,33.8,17.4,49.7c4.5,9.2,6.8,19.4,10.2,29.1c4,11.5,12,16.9,26.1,17.1c0.1-7.8-0.2-15.7,0.3-23.5
		c0.2-3.8,1.3-7.7,2.9-11.1c2.3-4.9,6.5-6.6,12.3-6.6c17.3,0.1,27.3,7.2,33.2,23.8c1.9,5.4,1.7,12.2,8.4,15.1
		c5.6,2.4,10.6,9.2,17,6.4c9.3-4.2,21-5.3,25.7-17.1c4-10.2,8.9-20,12.9-30.2c1.7-4.4,3.9-7.1,8.8-8.2c27.2-6.4,54.3-13.1,81.4-19.7
		c4.8-1.2,9.1-0.8,12.8,3.3c2.4,2.7,5.4,4.8,8.7,7.6c-8.1,18.9-14.4,38.2-28,54.1c3.5,5.4,6.9,10.7,11,17
		c-4.9,3.9-9.1,9.1-14.6,11.3c-5.2,2-11.6,0.9-18.4,1.2c1.8,7.7,6.8,12.6,11.5,16.4c4.6,3.6,11.4,4.5,18,6.8
		c-0.4,4.9-0.9,10.7-1.5,17.7c-10.3-1.5-20-1.9-29.6,3.7c-9.2,5.3-13.7,14.3-21.5,21.6c-1.3-2.8-2.4-5.4-3.6-8.1
		c-3.3-2.3-9-1.5-12.3,2c-1.9,2-2.7,6.5-6.5,4.6c-4.1-2-1.5-5.8-0.9-8.8c0.8-4.2,1.6-8.4,2.5-13c-4.1-2.7-8-5.3-11.9-7.7
		c-1.4-0.9-2.9-1.5-4-2.1c-1,0.6-1.9,0.8-2.1,1.3c-4,11.7-15,14-24.5,18.4c-4,1.9-7,0-10.2-2c-5.4-3.4-10.6-5.6-17.6-4.3
		c-4,0.8-8.9-1.5-13.1-3.3c-8.1-3.5-15.2-8.9-24.9-9c-4.9,0-9.7-4.8-15.4-7.9c-11.4,8.1-18.6,19.6-22.7,33.9
		c-6,21.5-4.3,43.1-0.6,64.3c4.1,23.4,2.9,46.2-1.4,69.2c-2.2,12.1-5.5,24.1-6.3,36.3c-0.8,11.4-0.5,23.4,5.9,33.6
		c11.3,18.3,11.5,18.2,8,39.7c-0.9,5.5-0.9,11-5.6,15.5c-1.9,1.8-1.5,6.1-2.2,9.8c-1.3,0.4-3.2,1-5,1.5c-7.7,1.8-11.6,6.9-13.6,14.3
		c-1.6,5.7-4.1,11.1-6.3,16.7c-1.1,2.9-3.3,4.1-6.3,3.1c-16.4-4.9-27.7,1.4-35.8,15.6c-2.5,4.3-5.9,8-8.8,12.1
		c-3.9,5.5-4.5,5.7-10.6,2.8c-4.2-2-8.3-4.5-12.7-5.6c-9.2-2.3-17.6,0.5-25.5,5.5c-6.4,4.1-13.3,7.5-19.9,11.3
		c-1.4,0.8-2.7,1.9-4.2,2.7c-10.6,5.2-13.2,16.4-1.5,26.6c4.9,4.2,9.5,9.4,12.6,15.1c8.3,15.2,15.7,30.8,23.3,46.3
		c3.1,6.3,6,12.6,8.4,19.2c2.5,6.9,5.3,13.2,11.4,18.2c3,2.5,4.5,8.2,4.7,12.5c0.7,16,0.8,32,0.8,48c0,9.2,0.6,17.8,8.1,24.7
		c3.6,3.3,2.5,8.1,0.8,12.2c-2.4,5.8-5.2,11.5-8.1,17.9c-4.7-2.3-9-4.5-13.4-6.6c-2.1-1-4.1-2.3-6.3-2.9c-8.1-2.2-12.8,0.5-15.3,8.4
		c-0.5,1.5-0.5,3.2-0.9,5.4c-1.9-0.2-3.6,0-4.9-0.5c-8.5-3.2-17-4.7-26.3-2.8c-4.4,0.9-9.7-1.6-14.2-3.4c-5.9-2.2-11.4-5.4-17.2-7.9
		c-3-1.3-6.1-3-9.3-3.3c-9.5-1-18.9-2.1-28.3-4.1c-6.4-1.4-14.8,1.6-20.8,5.1c-14.4,8.3-29.5,9.5-45.3,8
		c-10.2-0.9-19.7,2.6-29.2,5.7c-10.5,3.4-11.6,3-15.7-7c-3.6-8.6-7.4-17-14.1-23.9c-7-7.4-18.7-8.9-26.3-2.1
		c-8.4,7.5-16.5,15.3-19.3,27.2c-2,8.4-15.6,11.5-20.8,4.6c-6.5-8.6-14.5-12.3-24.7-12.4c-4.3-0.1-6.5-3-8.5-6
		c-3.2-4.7-6.3-9.4-9.4-14.1c-5.1-7.7-12.7-10.3-20.1-4.8c-7.1,5.3-14.5,5.6-22.6,5.7c-4.6,0.1-9.8,0.2-13.5,2.4
		c-5.5,3.1-9.4,8.2-8.7,15.6c0.5,5.2,0.9,10.8-0.5,15.8c-3.7,13.8-0.2,26.3,5,38.7c0.5,1.2,1.1,2.4,1.6,3.6c0.1,0.3,0,0.6,0,1.9
		c-7.4,1.2-12.5,5.9-14.5,14.1c-10.2-1.9-19.2-1.4-26.1,6.7c-6.6,7.7-6.6,16.8-5.2,27.1c-3.7,1-7.4,1.9-12.1,3.1
		c-1.5-7.9-3.2-15.3-4.3-22.8c-1.9-12.2-8.1-21.4-17.9-28.8c-5.4-4-10.8-5.8-17.5-5.7c-27.7,0.2-55.3,0.1-83,0.1c-3.6,0-7.3,0-11,0
		c-5.4-7.6-6.6-16.2-8-24.7c-1-5.9-1.4-11.9-1.7-17.8c-0.8-14-12-29.4-25.3-33.3c-11.6-3.4-22.4-7.8-32-15.5
		c-14.4-11.6-31.5-14.8-49.7-13.5c-9.9,0.7-19.9,0.1-29.5,0.1c-1.1-1.1-1.7-1.9-2.4-2.6c-10.6-10.8-19.9-22.1-20.7-38.4
		c-0.2-3.5-3.1-7.8-6-9.9c-4.5-3.3-5.3-7.3-5.2-12.1c0-3.3,0.1-6.7,0.2-10c0.2-5.6-1.3-10.4-6.1-13.9c-5.6-4.2-8-10.2-9.8-16.9
		c-2-7.7-5.2-15.1-7.5-22.7c-2.3-7.6-4.1-15.3-6-23c-3.3-13.2-10.4-24.4-18.6-34.9c-1.7-2.2-5.6-3.1-8.7-3.6
		c-3.5-0.6-7.1-0.1-10.5-0.1c-2.7-10-5.4-18.8-7.5-27.8c-1.3-5.5,1.7-8,8-8.2c9.6-0.3,19.2-1,28.8-1.3c4-0.1,6.8-1.4,9.3-4.6
		c4.4-5.7,8.8-11.4,17.1-12.5c4.2-0.6,5-5.1,5.3-8.7c0.2-3.2-0.5-6.5-0.8-9.7c15.8-6.1,18.2-16.9,6.8-29.9c-0.7-0.8-1.6-1.4-2-2.2
		c-3.8-9.5-10.6-16.6-18.8-21.4c-0.1-6.1,3.8-7.3,7.5-9.1c11-5.5,13.1-12.6,7.4-23.6c-3.2-6-9.2-7.8-15.1-4.3
		c-3,1.8-5.8,3.8-10.5,6.8c1.3-7.2,4.9-10.2,7.9-13.5c7.8-8.5,7.7-8.4,2.6-19.1c-3.6-7.7-9.6-14.6-8.7-24c0.1-1.6-0.2-3.2,0.3-4.7
		c3.4-10.8,2.7-21.7,1.4-32.6c-0.3-2.2,0-4.5,0.6-6.6c2.4-9.3,5.7-18.4,7.2-27.9c1.4-8.7-0.2-17.4-7.7-23.6
		c-4.9-4.1-7.9-3.6-11.3,1.9c-1.2,1.9-1.9,4.2-2.5,6.4c-0.9,3.7-1.5,7.6-2.5,12.7c-8.9-7.7-6-20.2-15.2-26.7
		c14.9-8.7,20.1-21.9,22.6-37.9c3.4,0,7,0.3,10.5-0.1c7.6-0.8,11.4-4.7,11.1-12.4c-0.2-6.8-1.5-13.5-2.3-20.2
		c19.1,2.5,36.7-7.8,44.4-26.7c0.9-2.1,0.4-5.2-0.3-7.5c-1.2-3.7-3.2-7.2-4.8-10.6c4.1-4.2,9.8-7.6,11.3-12.3
		c1.6-4.8-0.8-10.9-1.5-17c2.5-1.1,5.2-2.1,7.8-3.6c4.9-2.9,5.8-6.8,3-11.8c-1.7-3.1-3.6-6.2-5.3-9.2c4.7-3.2,8.9-5.7,12.6-8.9
		c6.2-5.2,6.8-10.4,2.7-17.4c-2.8-4.8-5.2-9.9-8.4-14.5c-3.2-4.6-6.9-9.2-13.4-9.1c-4.2,0.1-6.6-1.9-8.4-5.7
		c-2.8-6-7.7-9.8-13.9-12.1c-7.5-2.7-11.3-13.1-7.6-20.3c1.8-3.6,3.9-7,5.4-10.6c4.2-10.4,0.5-16.2-10.9-17.4
		c-1-0.1-1.9-0.4-1.9-1.8c-5.2-5-10.1-10.2-15.5-14.8c-6.5-5.5-6.7-5.3-8.7-12.8c2.8-0.8,5.7-1.4,8.5-2.5
		c9.4-3.6,12.6-10.1,9.6-19.7c-2.2-7.3-5.5-14.3-4-23.2c13-4.7,16.9-15.8,18.5-28.8c1.2-10.1,4.2-20.5,14.3-24.8
		c11.1-4.7,19.2-11.1,23.4-22.6c0.6-1.8,4.9-2.6,7.6-3.2c7.7-1.8,9.5-4.4,7.5-12C3054.7,2659.6,3053.4,2656.2,3052.1,2652z"/>
	<path onclick="modals(this.id);" id="2248" class="st0" d="M3559.6,282.6c5.2,2.2,9,3.4,12.5,5.3c18.3,9.6,36.6,19.1,54.6,29c6.2,3.4,12,5.3,19.5,4.9
		c13.5-0.8,27.2,1,40.8,1.3c10.9,0.3,21.9,0.1,34.9,0.1c1.4,2.1,4.3,6.1,6.9,10.3c8.9,14.1,17.8,28.1,26.6,42.3
		c1.6,2.6,3.2,5.9,6.7,4.6c2-0.7,3.8-3.4,4.7-5.7c1.9-4.6,3.7-9.3,4.8-14.2c1.6-7.1,6.5-11.5,11.6-15.8c1.8-1.5,4.9-1.9,7.4-1.8
		c11.2,0.1,11.2,0.3,20.6-4.5c4.2,3.7,8.6,7.6,13.9,12.4c3.7-2.4,7.8-4.5,11.1-7.5c5.6-5,12-7,19.2-6.6c8,0.4,15.9,0.9,23.8,1.8
		c11.2,1.2,22.4,3.1,33.6,4.2c17.6,1.6,32.4,8.5,44.8,21.3c12.4,12.8,27.5,22,43,30.5c6.9,3.8,14.4,4.3,22.1,3.1
		c1-0.2,2-0.6,2.9-0.6c15.5,0.1,22.6-10.4,28.5-22.5c1.7-3.6,3.4-7.1,5.7-11.9c19.7,0,39.7-0.2,59.6,0.1c6.7,0.1,12.4-1.1,17.3-5.9
		c3-3,6.3-4.2,10.8-2.2c6.4,2.8,13.1,4.6,18.9,6.6c0.9,1.5,1.3,2,1.5,2.6c3.3,9.1,0.6,15.7-7.8,20.6c-7.5,4.4-12.2,10.9-12.6,20
		c-0.1,1.3-0.6,2.6-1.1,3.8c-6,15.3,0.9,27.7,9.1,39.7c1.1,1.6,2.9,2.9,3.9,4.5c7,11.2,16.9,18.2,29.9,21.3
		c8.7,2.1,14.5,8.8,18.5,15.9c6.9,12.1,12.7,24.9,18,37.8c2.2,5.3,1.8,11.7,2.6,17.9c-2.5,1.1-4.5,2.1-6.6,2.9
		c-10.7,4.1-9.9,4.1-10.1,15c-0.2,15.5,6.7,26.7,18.5,35.5c6.2,4.6,9.6,10.4,12.1,17.6c6.4,18.9,12,38,14.4,57.9
		c0.9,7.6,1.1,15.2,1.5,22.9c0.5,8.1,2.2,9.5,10.5,8.6c2-0.2,4-0.1,6-0.3c5.8-0.6,6.8-1.9,6.2-7.6c-0.2-2.3-0.5-4.6-0.6-6.9
		c0-0.6,0.4-1.2,0.8-2.6c6,4.6,11.2,9.7,14.2,16.2c4.4,9.3,8,19,11.3,28.7c5.5,16,9.8,32.5,16.1,48.2c4.4,11,11,21.2,17.2,31.5
		c1.8,2.9,5.2,5.2,8.3,6.8c11.1,6,22.5,11.6,33.8,17.3c4.9,2.5,9.9,4.9,14.8,9.4c-6.4,2.2-12.7,4.7-19.3,6.5
		c-9,2.5-18.1,4.2-27.1,6.5c-19,4.9-36.3,12.8-50.4,26.9c-2.5,2.5-5.6,4.6-6.9,5.7c-6.6-2.1-11.6-4.3-16.9-5.4
		c-9.4-2-19.2-2.6-28.4-5.4c-24.3-7.5-43.6-21.3-51.5-46.7c-1.7-5.4-0.4-11.9,0.1-17.8c0.6-7.9,1.8-15.7,2.7-23.6
		c-5.7-3.5-10.6-1-16.2,0.5c-3.7,12.5-7.2,25.3-11.5,37.9c-2,5.7-0.8,9.6,3.6,13.1c2.3,1.9,4.9,3.6,6.9,5.7c1.3,1.5,1.8,3.6,3.8,7.7
		c-11.3-3.7-19.2-8.8-28.1-14.6c-0.9,5.5-1.7,10.1-2.5,14.8c-7.8-1.1-11.7-4.9-12-12.4c-0.1-3.3-1.1-6.6-1.3-9.9
		c-0.6-7.4,0.4-14.1,5.7-20.4c3.8-4.4,8.2-9.4,5.8-17c-2.5-8.1-5.9-13.4-15.4-13.6c-5.8-0.1-11.2-4-17.5-1.9
		c-6.7,2.2-8.4,3.5-7.8,10.6c0.4,5.9,1.9,11.8,3.1,17.6c2,9.8,1.8,11.2-6.7,16.4c-5.6,3.4-11.8,7.6-18,8.1
		c-6.4,0.5-13.3-2.6-19.7-4.9c-3.3-1.2-6-3.9-9.5-6.4c-0.9,1.5-1.9,2.4-2.2,3.5c-2.5,12.3-5.3,24.6-7.2,37.1c-0.6,4,0.4,8.6,2,12.5
		c2.7,6.8,5.7,13.6,9.7,19.6c11.7,18,16.8,38.1,19.8,59c2.9,20.5,3.4,41,0.6,61.6c-1.1,8.5-1.3,17.2-2,25.8c-0.2,2.9-0.7,5.9-1,8.6
		c-8.5,3.5-16.4,5-24.6,1.2c-5-2.3-9.3-2.4-13.2,2.5c-4.3,5.4-9.6,10-14,15.3c-2.7,3.4-5.5,5.4-9.9,5.6c-10.6,0.6-21.2,2-31.8,2.4
		c-4.6,0.2-7.1,1.5-8.9,6c-2.7,6.9-15.2,10.7-21.8,6.4c-8.1-5.2-16.8-9.7-22.2-18.2c-2.7-4.2-6.4-6.3-11.2-7.5
		c-11-2.7-21.6-6.5-31.2-12.8c-6.7-4.3-14.1-4.9-22-2.5c-16.2,4.9-32.5,9.4-48.3,14c-3.9-9.3-7.5-18.1-11.8-28.5
		c-3.7,4.5-6.6,7.9-9.3,11.5c-2.7,3.7-5.2,7.5-8.3,12.2c-5.9-13.2,7-19.4,8.2-29.9c-6.2-3.3-13.1-3.9-20.1-1
		c-6.2,2.5-6.7,3.8-5.8,10.7c0.2,1.3,0.4,2.6,0.7,5c-4.8,0.4-9.2,0.7-14.6,1.2c-0.6,7.8-1.3,15.9-2.1,26c-7-7-12.9-12.4-21.7-6.8
		c-4.7,20.6-0.6,39.2,14.6,54.2c-3.6,4.2-6.6,7.6-9.4,10.9c-2-0.9-3.2-1-3.8-1.7c-7.6-9-17.3-6.7-26.6-4.5
		c-9.3,2.2-18.5,5.3-27.5,8.8c-4.2,1.6-7.7,1.4-11.4-0.2c-2.4-1-4.9-2.3-7-3.8c-9-6.2-19-8.9-29.9-9.5c-4.5-0.3-9-2.2-13.2-3.9
		c-5.3-2.2-10.2-2-15.9-1.8c-13,0.5-21.2,10-32,12.4c-1.8,10.8,10.2,13.1,10.2,22.7c-1.3,1.1-3.3,2.8-5.6,4.7
		c-5.7-3.2-11.2-6.2-17.3-9.7c-4.7,3.2-9.5,6.5-14,9.6c-0.3,1.2-0.8,2-0.6,2.5c3.7,11.3-1.5,19.7-8.8,27.4c-4.4,4.7-8,9.8-7.1,17.3
		c-5.7,0.5-10.5-0.7-14.5-3.5c-5.2-3.6-10.9-4.1-17-4.4c-6.8-0.3-13.6-2-18.6-2.8c-4.2-14.2-7.4-26.7-11.7-38.9
		c-6-17.1-19.1-27.7-35.1-34.8c-2.8-1.3-6.4-0.9-8.2-1.1c1.6-7.7,3.7-14.9,4.5-22.3c1.1-10.2,1.7-20.5-1-30.7
		c-3.2-12.4-1.3-25-0.7-37.6c0.1-2.3,0.3-4.6,0.5-7c0.4-5.3-1.6-9.1-7-10.6c-4.3-1.2-6.4-3.9-7.6-8.2c-0.9-3-2.8-7-5.3-8
		c-8.1-3.2-8.5-11.4-12.2-17.3c-1-1.6-0.6-4.5,0.1-6.5c1.6-4.3,1.4-8.2-0.3-12.5c-6.1-15.3-5.8-30.8,1.6-45.4
		c4.4-8.6,4.9-17.8,6.6-26.9c1.3-7.2-2-12.9-8.8-16.1c9.4-16.7,5.9-24.6-15.2-34.1c0.5-7.7,0.9-15.1,8.5-20.7
		c8.7-6.3,7.4-15.5-2.1-20.6c-1.7-0.9-3.6-1.6-6.2-2.6c0.7-7-2.4-11.7-8.7-15.9c-4.7-3.1-7.6-9-11.2-13.8c-0.4-0.5-0.5-1.3-0.4-1.9
		c1.5-7.1,1.4-15.1,4.9-21c5.7-9.5,6-18.9,3.3-28.7c-2.4-8.9-6.3-17.4-9.1-26.2c-1.1-3.4-1.4-7.2-1.4-10.7
		c0.1-6.2-1.9-11.5-7.5-14.1c-5.2-2.4-10.3-1-15,2.5c-2.8,2.1-5.9,3.8-9.2,5.9c-3.1-4.1-5.6-7.5-8.3-10.8c-1.2-1.5-2.7-2.9-4.4-3.9
		c-5.8-3.2-12.1,3.4-18.8-1.7c-5.5-4.1-11.7,1-17.4,4c-11.2,6-11.3,5.8-20.9,5c-2.9-3.7-4-7.6-2.7-12.7c1.9-7.4,0.8-14.3-6.1-19.6
		c-5.4-4.2-5.1-11.1-0.9-16.7c3.8-5,7.8-10,10.4-15.7c4.1-9.1,0.5-15.7-8.8-19.5c-3.3-1.4-6.4-3.5-8.9-6.1
		c-10.1-10.1-19.8-20.5-30.5-31.6c8.3-3.7,9.7-11.2,12.7-18c6.1-14,13.2-27.5,19.9-41.2c2.1-4.4,6.2-4.9,10.2-4.1
		c7.7,1.6,15.4,3.2,21.6,9.2c4.7,4.5,10.6,7.7,17.5,12.5c-1,5.7-2.3,12.8-3.6,19.9c-0.4,2.3-1.2,4.6-1.3,6.8c0,4.9,3.3,7.7,7.8,6
		c4.6-1.7,9.4-3.7,13.3-6.7c7.8-5.9,16.5-8.1,26-8.1c24.3,0,48.5-0.2,72.6-4c8.1-1.3,16.6-0.5,24.9-0.6c36.8-0.4,62-18.3,77.3-51.2
		c3-6.3,5.6-12.8,8.6-19.1c6.1-12.7,4.6-24.6-4.2-35.4c-6.7-8.3-14.1-16-20.9-24.1c-8.5-10.2-19.5-14.4-33.1-14.3
		c-0.3-6-4.2-9.3-9.2-11.6c-4.2-1.9-5.9-4.9-5.5-9.5c0.6-7.1-2.3-12.8-6.7-18.2c-5.9-7.2-5.9-17.7,0.9-23.9
		c3.7-3.4,5.1-6.8,4.5-11.3c-1.5-12.6,0.5-23.7,11.2-32.2c2.1-1.7,2.1-5.9,2.8-9.1c1.3-6,2.4-12,4-19.8c-0.7-1.8-9.1,2.7-7.3-6.2
		c5.2,0,10.7-0.2,16.2,0.1c1.8,0.1,4.3,1.2,5,2.6c1.7,3.7,4.9,4.8,8.1,6.5c16.8,9.2,31.4,20.7,41.7,37.4c6.7,10.7,14.5,20.7,21.8,31
		c0.8,1.1,1.6,2.1,2.3,3.2c2.1,3.1,5.4,5,8.5,3c1.9-1.2,2.8-5,2.8-7.6C3561.5,292.8,3560.4,288.6,3559.6,282.6z"/>
	<path onclick="modals(this.id);" id="2256" class="st0" d="M3021.1,2164.9c7.1-3.8,12.5-7.1,18.2-9.7c9.5-4.3,16.7-10.4,21.1-20.2
		c3.1-6.9,3.6-6.7,10.1-3.3c6.3,3.2,8.9,2.8,11.5-4c2.2-5.5,5.8-7.5,11.1-8.5c51-9.2,102-18.5,153-27.8c7.9-1.4,9-1,12.8,6
		c2.4,4.4,3.8,9.3,6.4,13.5c3.8,6.1,8.1,12,12.7,17.7c1.2,1.5,4,2,6.1,2.3c4.9,0.7,9.8,1.1,15.3,1.6c4.9-5,7.1-11.3,7.2-18
		c6.7-0.5,12.8-1.2,19-1.4c5.1-0.2,7.4-3.2,7.6-7.6c0.4-8.3,0.3-16.6,0.3-24.9c0-0.9-0.2-2.4-0.8-2.7c-7.1-4.5-6.1-12-7.2-18.8
		c-0.6-3.6-1.1-7.4-2.7-10.6c-4.5-8.5-1.8-15.1,4.2-21.5c5.7-6,11.1-12.4,16.8-18.4c2-2.1,4.6-3.8,7.2-5.8c2.7,1.5,5.3,2.9,7.7,4.2
		c4.6,0,10.1-4.8,11.1-9.9c1.1-5.8,2.1-11.7,3.3-18.4c21.2,8.4,39.4-2.1,58.2-7.8c2.4-0.7,4.6-2.6,6.6-4.3
		c11.4-9.7,22.8-19.4,34-29.3c4.1-3.7,8-5.8,13.3-2.5c3.2,2,6.1,1.1,9.4-0.3c9.5-4.1,18.7-8.2,23.7-18.4c2.1-4.3,6.5-7.4,10.3-11.5
		c13.8,9.9,28.5,6.9,43.2,4.6c16.6-2.5,32.6-6.5,47.2-17c14,11,30.7,11.1,47.3,11c5.1,8.5,8.3,17.1,9.5,26.4
		c0.2,1.7,0.2,3.4,0.7,4.9c2,7,4,13.9,6.1,20.8c10.5,4.9,20.5,11.3,32.7,11c2.6-0.1,5.3-0.7,7.7-1.7c13.7-6,27.6-11.7,37.7-23.7
		c1.5-1.7,3.4-3.1,5.3-4.8c2,0.7,3.9,1.3,5.7,2.1c6.7,2.8,7,2.9,5.5,10.4c-3,14.4,2.3,25.8,13.3,34.1c10.8,8.2,22.8,14.8,34.4,21.8
		c2.7,1.6,6.3,2.3,9.5,2.6c9.3,1.1,16.2,5.7,20.9,13.5c3.9,6.5,8.6,11.7,15.6,14.8c2,0.9,3.4,3,5.2,4.5c4.6,3.7,8.7,9.1,14,10.7
		c11.1,3.3,15.5,12.7,22,20.4c1.6,1.9,3,4.3,5.1,5.5c11.5,6.7,23.9,11.1,37.4,10.7c12.7-0.4,22.7-5.1,30.8-16.1
		c5.8-7.9,14.4-14.6,25.4-15.8c6.3-0.7,12.6-2.1,18.8-1.8c17.7,1,36,1,50.2,14.4c1.8,1.7,3.7,3.7,4.8,6c10.1,21.3,20.1,42.8,30,64.2
		c1.3,2.7,3,5.4,3.4,8.2c1.9,16.8,11.7,30.1,19.4,44.4c1,1.9,2.8,3.7,4.7,4.8c19.9,11.5,31,30.2,41.7,49.6
		c10.4,18.8,12.7,39.7,16.2,60.2c1,5.6,1.3,11.2,2.3,16.8c1.4,7.6,6.8,12.8,12.2,17.7c2.5,2.3,3.9,4.5,3.5,7.6
		c-1.3,9.6,2.8,17.6,7.6,25.2c5.3,8.3,9,16.7,8,27.1c-0.4,4.3,1.6,9.1,3.1,13.4c2.7,7.9,5.9,15.5,8.6,23.4c2.4,7.1,2,7.3-4.6,10.6
		c-2.3,1.1-5,2.5-6.2,4.5c-5.7,9.6-15.3,14.6-23.8,20.9c-1.8,1.3-4.2,2.1-6.4,2.3c-8.6,0.8-17.2,1.5-25.8,1.7
		c-6.4,0.2-12.4-1.5-17.3-6.2c-5.6-5.5-12.6-7.9-20.1-10.2c-17.1-5.4-34-11.7-50.7-18.1c-5.6-2.2-10.8-3.1-16.2-0.5
		c-14.8,7.2-29.7,8-45.1,1.3c-6.8-3-13.4-3.5-20.6,1c-6.3,3.9-13.9,4.3-19.7-2.8c-4.4-5.4-9.3-10.2-13.6-15.7
		c-3.9-5-6.7-10.8-10.8-15.6c-8.2-9.7-14.2-10.4-24.9-3.3c-5.5,3.7-10.6,8-17.6,6.6c-4,12.2,0,23.6,1.2,35c1,10-7,21.7-16.8,22.9
		c-4.5,0.6-9.1,0.1-13.7,0.4c-4.9,0.3-10.1,0.3-14.7,1.7c-13.3,4.2-26.4,8.9-39.4,13.7c-2.9,1.1-5.9,3.4-7.7,6
		c-3.3,4.5-7.1,6.6-12.6,5.9c-3.3-0.4-6.7,0.1-10-0.1c-13.7-0.9-21.5,7.1-27.2,18c-1.7,3.2-2.7,6.8-4.3,10.1
		c-3.7,7.4-10.9,8.7-16.9,3c-4.1-3.9-8.2-7.9-12-12c-2.9-3.2-6.2-4.1-10.5-4.5c-6.5-0.6-11.2,1.6-14.2,6.9
		c-6.7,12.1-16.5,16.1-30.3,15c-8.6-0.6-15.5-2.8-21.6-8.2c-1.9-1.7-3.8-3.9-4.6-6.2c-3.1-9.1-6.9-18.2-8.4-27.6
		c-2.3-14.9-11.9-24-22.7-32.5c-1.8-1.4-3.8-2.5-5.6-3.8c8.8-23.3-4.8-57.5-46-49c-7.6,7.8-11.5,16.8-8.4,28
		c-15.5-2.4-27.2-11.6-38.1-29.9c1.4-1.9,3-3.9,4.6-5.9c-0.8-1-1.3-2-2.1-2.4c-1.7-1.1-3.7-1.7-5.3-2.8c-7.1-5.1-14.8-7.2-23.5-5.5
		c-15.2,3-30.4,0.1-45.7-0.3c-14.1-0.3-28.4-3.1-42.5,1.6c-15.5,5.2-30.8,10.7-44.3,20c-11.8,8.2-22.8,17.3-34.4,25.6
		c-4,2.8-8.6,5-13.2,6.7c-13.8,4.9-27.8,9.2-41.6,14c-4,1.4-7.5,1.6-11.5,0.2c-3.9-1.3-9.2-3.2-12.1-1.5
		c-5.5,3.1-11.8,6.5-14.1,13.4c-0.6,1.8-1.6,3.5-2.5,5.7c-9.8-1.7-19.3-3.5-28.7-5.1c-11.7-2-16.2,1-19.2,12.7
		c-0.7,2.8-1.3,5.6-1.9,8.3c-1.3,0.1-2.1,0.4-2.6,0.1c-13.1-7.4-26.1-5.9-39.1,0.4c-7,3.4-14.2,5.4-22.2,3.7
		c-2.2-0.5-4.6,0.1-6.7,0.2c-6,8.1-8.4,16.1-0.3,25c-5.3,3-9.6,7.3-14.4,8c-11.1,1.6-16.9,8.6-21.1,17.7c-3.3,7.2-7.1,14.7-7.9,22.3
		c-1.5,15.3,5.4,27.5,17.7,36.5c4.3,3.1,8.6,6.1,13.4,9.6c-4.5,8.5-8.7,16.4-12.9,24.3c-2.2,4.1-5.6,6.4-10.3,6.8
		c-13.5,1.1-27,2.3-41.5,3.6c-1-10-1.9-19.4-2.8-28.8c-0.7-7.3-1.9-14.6-1.9-21.8c0.2-18-9-31.5-20.1-44.1
		c-4.2-4.8-8.8-9.1-12.7-14.1c-1.7-2.1-2.5-5.1-3.3-7.9c-1.3-4.7-1.8-9.7-3.5-14.3c-2.4-6.5-5.3-12.9-8.5-19.2
		c-4.7-9.3-7.1-19.2-8-29.6c-1.4-15.2-3.4-30.4-4.1-45.6c-0.6-13,0.8-25.9,7.1-37.7c1.4-2.6,3.1-5.4,3.4-8.3
		c1.3-12.5,2.3-25.1,3.2-37.7c0.1-1.8-0.8-3.9-1.8-5.6c-6.1-11.5-7.2-24-8.1-36.6c-0.4-5.6-1.9-11.1-3.4-16.5
		c-4.8-17.5-4.8-34.7,2.3-51.7c2.2-5.2,4.4-10.5,6-15.9c3.4-11.5,9.1-21.3,19.8-27.5C3023.1,2181.2,3028,2175.2,3021.1,2164.9z"/>
	<path onclick="modals(this.id);" id="2258" class="st0" d="M4724.3,2434.8c-1-2.1-1.4-3.7-2.3-4.9c-7.9-9.8-15.5-20-24.1-29.2c-4.6-4.9-6.6-9.7-4.9-16.4
		c15.9-4,27.4,3.8,37.4,14.6c14.5,15.7,20.4,35.5,25.4,55.7c2.8,11.3,5.7,22.6,8.2,33.9c1.7,7.4,3.4,14.9,4,22.4
		c0.9,12.3,0.9,24.6,1.2,36.9c0.1,2.9-0.4,5.8-0.7,10.4c-7.6-4.2-14.3-7.5-20.6-11.4c-5.9-3.7-11.1-4-17.6-0.7
		c-23.5,11.9-47.3,23.1-70.9,34.5c-6.8,3.3-7.7,5.6-5.3,12.5c1.8,5.1,5.2,8.5,10.3,10.1c5.6,1.9,11.3,3.6,18.2,5.9
		c-1.6,3.1-2.8,6.1-4.6,8.6c-9.5,13.3-8.1,25.6,4.4,35.9c1.8,1.5,3.7,2.9,5.6,4.2c7.9,5.2,14.1,11.7,18.8,20.2
		c11.2,20.3,29.7,29.4,51.8,33.3c11.3,2,22.3,5.8,34.2,8.9c-3,8.2-9.3,11-14.3,14.9c-3.9,3.1-8.5,5.4-12.1,8.7
		c-17.6,15.9-26.7,35.3-23.5,60.3c-19.4,5.9-38.6,13.8-59.8,11.3c-7.3-0.9-12.7,1.2-17.4,6.9c-7.2,8.5-18.1,10.8-27.7,15.1
		c-1.4,0.6-3.7-0.3-5.4-0.9c-1.2-0.4-2.2-1.5-3.3-2.2c-9.9-7.2-10.4-7.4-5.8-19.2c2.8-7,2.1-12.4-2.3-18.4c-5.6-7.5-10.2-15.6-19-20
		c-1.7-0.9-3.1-3.3-3.7-5.4c-1.7-5.4-2.9-10.9-4.4-16.9c-3.5-0.5-7-1-10.8-1.5c-4.6-5.9-7.2-12.4-6.6-20.2c0.3-3.6,0.1-7.4-0.8-10.9
		c-1.5-6.1-3.8-12-6.1-19c-10.9-0.8-21.7-1.7-32.9-2.5c-7.7-12.2-15.8-24.3-14.9-40.1c0.2-3.4-1.3-7-2.1-11.4
		c-18.4,5.4-35,4.6-47.6-10.1c-2,0.7-3.2,0.7-3.8,1.3c-17.4,16.1-16.2,9.1-9.8,32.3c0.8,2.9,1.5,5.8,2.3,8.7
		c1.1,3.9,2.9,6.7,6.8,9.1c6.2,3.7,11.2,9.2,13.8,16.5c4.5,12.5,9.8,24.7,14.2,37.3c1.9,5.3,4.9,8.3,10.4,8.9
		c1.7,0.2,3.3,0.6,4.9,0.7c12.4,0.9,21.6,7.2,29.4,17.5c-1.3,0.8-2.5,2.1-3.8,2.3c-26.1,3.2-52.3,4.3-78.6,3.6
		c-3.3-0.1-6.6-1.1-9.9-1.2c-9.8-0.3-17.2,3.5-21.7,12.7c-4.3,9-9.1,17.7-13.7,26.6c-8,15.4-21.1,24.9-36.9,30.2
		c-7,2.3-15.3,2.5-22.6,1.3c-10-1.6-19.8-4.7-28.7-10.7c-15.9-10.9-32.6-20.7-49-30.8c-10.9-6.7-15.3-5.3-23.8,4.3
		c-13.8,15.6-18.2,34.2-19.1,54.2c-1.1,25.3,1.4,50.4,4.8,75.5c1,7.7-0.7,15.9-1.7,23.7c-1.4,11.5-3.2,23-5.1,34.5
		c-3.2,19.3,3.5,36,13.6,51.8c1.3,2,4.1,3.2,6.3,4.5c10.8,6.4,21.7,8.7,33.6,2c11-6.2,23.5-10,33.5-17.4c8.6-6.3,14.7-16,21.7-24.4
		c2.1-2.5,3.7-5.6,4.9-8.7c2.4-6.4,6.5-8.9,13.2-6.6c0.3,0.5,1,1.1,0.9,1.7c-0.9,10.7,1.6,20.3,9.3,28.2c1.3,1.4,2.1,3.5,2.6,5.4
		c3.5,13.5,12.2,22.3,24.1,29c10.1,5.7,19.6,12.7,29.6,18.6c4.3,2.5,5.1,5.4,4.2,9.9c-2.4,11-4.7,22.1-6.8,33.2
		c-1.2,6.5-2.3,13.1-3.1,19.7c-1.8,14.5-7.7,26.8-19.6,35.5c-6.2,4.6-10.1,10.3-12.8,17.4c-2.2,5.9-4.6,11.8-7.3,17.5
		c-4,8.4-11.4,10.4-18.6,4.7c-11.2-8.8-23.9-15.5-34.4-25.4c-9.3-8.8-20.7-12.6-34.1-8.6c-5.1,1.5-11.2-0.9-16.8-0.6
		c-7.2,0.4-14.6,0.7-21.4,2.9c-8.8,2.9-11.4,8.8-10.4,17.9c0.5,4.3,1.1,8.6,1.1,12.9c-0.1,10.4,5.4,18.3,11.1,26.2
		c1.1,1.6,3.9,2.3,6,2.6c3.2,0.6,6.5,0.5,10.4,0.7c-0.3,2.6-0.4,4.5-0.8,6.3c-1.6,6-0.1,11,3.6,15.9c4.7,6.3,4.2,8.1-2.6,12.1
		c-2.3,1.3-4.7,2.6-6.6,4.4c-8.1,7.6-11.5,16-1,27.5c6.9,7.6,13,15.9,19.4,24.1c1.8,2.3,3,5.1,5,8.6c-3.1,0.1-5.4,0.7-7.4,0.3
		c-15.1-3.3-27.3,2.1-38,12.4c-3.6,3.5-7.2,6.9-11.1,10c-7.4,6-15.8,8.1-25.2,5.5c-2.9-0.8-6-1-8.7-2c-10.5-3.8-19,0.2-26.4,7.1
		c-3.9,3.6-7,8-10.4,12.1c-3.3,4-6.6,8.1-10,12.3c-14.8-8.2-29.2-15.2-42.4-24c-10.1-6.7-19.1-15.2-27.6-24
		c-3.6-3.7-5.2-9.9-6.6-15.2c-2.6-9.9-10.9-16.9-21.3-17.2c-13.6-0.4-27.2-0.3-40.8,1.5c-12.5,1.7-20.9,8-26.3,18.7
		c-7.9,15.4-7.6,14.9-24.6,11.4c-7.8-1.6-16.3-0.3-26.1-0.3c-3.4-3.3-3.6-11.7-11.7-14.1c-7.3-2.2-13.7-1.9-21.5,3.7
		c0.9-10.2,1.2-18.6,2.5-26.9c0.7-5-0.1-9-3.3-12.8c-13.5-16.2-14.3-34.9-10.7-54.6c3.4-18.6,6.3-37.3,8.9-56.1
		c0.8-5.8,0-11.9-0.6-17.9c-2-17.8-5.9-35.6-5.9-53.4c0-18.1,2.5-36.6,14.6-51.8c2.6-3.2,6.1-5.8,9.6-9.1c4.7,6.4,10.5,8,17.1,8.2
		c7.6,0.2,13.8,4.6,20,8.2c5.3,3,10.3,5.7,16.8,3.5c5.1-1.7,9.8,0.9,13.9,4c5,3.9,10.1,4.6,15.6,1.3c1.7-1,3.7-1.5,5.5-2.2
		c7.4-3.1,15.3-5.5,17.1-16c4.8,2.8,8.3,4.9,12.6,7.5c-1.3,6.9-2.6,13.6-4.1,21.5c3.2,1.4,6.3,2.7,9.8,4.2c2.1-2.6,3.6-4.8,5.4-6.6
		c3.8-3.9,7.2-3.1,8.7,2c0.7,2.5,1.1,5,1.8,8.1c5.3-1.3,6.9-5.6,9.5-8.6c4.7-5.5,8.6-11.5,15.1-15.6c8.8-5.5,17.5-7.5,27.4-4.7
		c1.5,0.4,3.2,0.1,5.5,0.1c1.2-8.2,2.3-16.2,3.5-24.7c-9.5-3.4-22.9-0.8-27.5-15.1c4.9-3.2,11.7,1.2,16.4-4.1
		c3.9-4.4,8.9-7.9,14.1-12.4c-3.6-5.6-7.1-11.1-10.4-16.2c5.1-9.6,10.3-18.8,14.8-28.3c4.4-9.3,8.1-18.8,11.9-27.8
		c-1-1.4-1.2-2.1-1.7-2.5c-14.7-13.6-14.8-13.8-34.3-9.3c-24,5.6-47.8,11.7-71.7,17.5c-5.5,1.3-9,3.8-11,9.9
		c-3.3,10.1-8.3,19.6-12.4,29.4c-2.5,5.8-6.6,9.7-12.7,11.7c-4.4,1.4-8.6,3.6-12.3,5.2c-12.7-3.1-19.1-11.2-21.4-22.9
		c-2.9-15.3-25.1-27-42.2-23.2c-5.3,1.2-12.7,13.1-12.4,19.9c0.2,6,0.4,12,0.5,18c0,1-0.4,1.9-0.7,3.2c-9.8,1-15-5.5-18-12.7
		c-8.4-19.9-16.3-40-23.2-60.4c-4.2-12.5-8.3-25.3-5.8-39.1c0.4-2.1-0.9-5.3-2.6-6.7c-4.2-3.6-4.3-7.4-3.2-12.4
		c2.8-12.6,2.7-24.7-6.2-35.7c-2.8-3.5-3.3-8.9-4.4-12c9.1-6.3,16.5-11.6,24.1-16.7c4.4-2.9,5.7-6.8,5.9-11.8
		c0.6-12.3,0.8-24.6,2.4-36.8c1.8-13,5.5-25.6,18.4-32.4c2.5-1.4,5.6-2.5,8.4-2.4c13.6,0.4,27.2,1.3,40.8,1.9
		c8.9,0.4,17.9,0.8,26.9,1.3c3.4,0.2,5.6-1.4,7.3-4.2c4.8-7.6,10.4-14.7,14.3-22.7c4.2-8.6,10-15,18.8-18.1
		c21.3-7.6,30.4-25.8,39-44.3c1.6-3.4,1.4-7.8,1.2-11.7c-0.3-6.3,1.8-11.3,4.8-16.8c7.7-14.2,20.6-21.2,35.3-27.6
		c2,2.9,4.2,5.7,6.1,8.8c27,43.6,54,87.1,80.9,130.8c3.5,5.6,6.4,11.7,8.7,17.8c2.2,5.8,5.2,10.7,9.7,14.5
		c13.5-6.8,17.2-16.8,12.1-33.4c-2-6.7-3.8-13.6-7.1-19.7c-7.4-13.4-6.6-27.5-6-42c15-9.7,26.3-21.6,23.6-41.5
		c1.6-1.1,2.8-2.2,4.2-2.9c10.5-4.8,15.9-13.3,18.6-24.4c3.3-14,12.4-24.8,21.3-35.6c1.2-1.4,3.2-2,5.2-3.1c0.8,1.6,1.8,2.7,2,3.9
		c1.2,10.1,9.5,12.9,17,14.4c14.6,2.8,29.6,3.9,44.4,5.7c0.3,0,0.7,0.1,1,0c10.9-3.8,14.9,3.1,18.2,11.5c1.6,4,3.2,8.1,5.3,11.8
		c4.7,8.2,11.4,13.6,21.5,13.4c5.9-0.1,11.9,0,18.4,0c1.4-8.8-0.3-16.4-2.6-23.9c-2.7-8.7-7.3-16.2-13.7-22.9
		c-5.9-6.2-10.8-13.5-16-20.4c-1-1.3-1.7-2.9-1.9-4.5c-0.8-6.5-1.3-13.1-2.1-20.9c16.1,7.2,30.7,14.9,44.5,23.9
		c2.1,1.3,3.1,4.8,3.9,7.5c2.2,8,4,16,6,24.4c1.9,0,3.2,0.2,4.4,0c19.1-2.7,38.4-4.1,57.1-8.4c15-3.5,25.8,2.3,36.6,10.4
		c1.3,1,2.6,2.1,3.7,3.4c9.6,11.6,23.2,8.6,36.4,11.4c-0.5-6.5-0.9-11.3-1.3-16.2c-0.6-6.9-2.6-12.9-9.2-16.5
		c-4.3-2.4-5-6.2-4.3-11.1c2.5-17.4,4.4-34.8,6.8-53.4c7.1,1.2,14.1,1.6,20.5,3.7c9.6,3.1,16.7,0.2,23-6.8c1.1-1.2,2.2-2.5,3.6-3.5
		c5-3.8,10.1-5.7,16.6-3.3c10.9,4.1,22.2,7.1,34,7.3c2.4,0,5.4,0.1,7.2-1.2c10.2-7,19.5-15.2,24.9-26.6c1.6-3.3,1.8-7.6,1.4-11.3
		c-1.1-9.6-3-19.1,0.2-28.6c0.3-0.9,0.7-1.7,1.4-3.2c3.9,2.2,7.3,5.2,11.2,6.2c9.5,2.6,19.2,4.5,28.9,6.3
		C4718.1,2435.7,4720.8,2435,4724.3,2434.8z"/>
	<path onclick="modals(this.id);" id="2252" class="st0" d="M3669,1901.4c-5.9-0.6-11.8-1.7-17.8-1.8c-10.3-0.2-19.7-2.8-28.2-8.6c-3.3-2.3-6.1-1.3-9.2,0.6
		c-21.2,13-44.6,16.8-69,15.6c-5.3-0.3-10.4-3.4-16.9-5.7c-5.3,3.3-11,8.5-14.5,15.3c-4.8,9.5-14.1,11.5-22.5,15.2
		c-1.5,0.6-4,0-5.6-0.9c-6-3.5-10.5-1.2-15.1,2.9c-7.2,6.5-15.2,12.1-21.7,19.1c-12.7,13.7-29.2,19-46.3,23.8
		c-8.3,2.3-16.4,2-24.6-0.2c-2.2-0.6-4.4-0.8-6.4-1.1c-6.7,8.4-0.2,21.5-11.6,27.9c-2.7-1.5-5.2-3-7.7-4.4c-1,0.3-2.1,0.3-2.9,0.9
		c-12.5,9.2-22.4,20.9-31.1,33.5c-1.4,2-1.6,5.6-1.1,8.2c1.9,10.1,4.3,20.1,6.6,30.1c0.2,1,0.1,2.3,0.7,2.8
		c10.7,10.2,4.2,22.3,5.3,35c-9.7,0-18.2,0-27.5,0c0,3.7,0.2,6.6,0,9.4c-0.8,7.9-4,9.6-11.8,9.4c-11.2-0.3-16.3-7.6-20.8-15.8
		c-3.9-7-7-14.3-10.5-21.5c-0.6-1.2-0.9-2.5-1.1-3.7c-3-19.7-5.8-39.4-8.8-59c-2.8-18-3.3-35.4,5.3-52.4
		c5.7-11.2,9.3-23.5,14.1-35.2c1.9-4.6,4.4-9,7.2-13c3.3-4.7,4.6-9.3,3.2-15c-0.8-3.2-0.4-6.7-1.3-9.9c-2.9-10.1,0.6-18.8,4.8-27.6
		c3.4-7.1,8.1-13.6,8.2-22.2c0-2.8,3.6-5.4,5.3-8.2c9.5-15.4,24.5-22.8,40.9-28.1c6.6-2.1,13.6-3.4,20-6.2
		c10.3-4.5,20.2-2.8,30.1,0.5c3.9,1.3,6.8,0.9,10.2-1.2c5.1-3.1,10.5-5.7,16.4-8.8c5.8,6.3,11.3,12.3,17.3,18.8
		c-0.9,3.9-1.9,8-3.1,13c6.3,3,12.5,6,18.8,8.8c5.1,2.2,7.9,5.1,7.8,11.2c0,9,10.4,17.3,19.6,16.4c1.7-0.2,3.3-0.5,4.9-0.9
		c4.5-1.1,9-2.2,14.1-3.5c0.2-3.1,0.2-6,0.6-8.9c0.4-2.9,0.2-6.3,1.7-8.6c4.6-6.9,5.9-14.6,8-22.3c4-14.6,8.2-29.4,20.3-40.1
		c1.2-1,2-2.5,2.9-3.6c-8.7-13.8-8.7-13.8-0.5-28.6c1.4-2.6,3.4-5,4.6-7.7c2.2-5,6.1-7.9,11.2-9.2c20.6-5.2,34.8-18.6,46.6-35.2
		c7.9-11.1,16.2-21.9,24.6-32.7c2-2.6,4.7-4.5,7.3-6.6c8-6.5,16.1-12.7,23.9-19.5c2.1-1.8,3.3-4.9,4.5-7.5
		c4.3-9.6,10.7-15.9,22.1-14.7c0.9,0.1,1.9-0.5,3-0.8c4.6-8.9,1.4-18.1,0.9-27.2c0.8-0.1,1.7-0.5,1.9-0.3c5.8,6.4,13.6,9,21.5,11.8
		c9.1,3.3,16.9,8.7,23.9,15.7c14.3,14.3,28.8,28.6,46.1,39.5c2,1.2,3.8,2.6,5.8,4c5.1,3.6,8.1,7.9,8.7,14.6
		c1.6,19.5,13.9,29.8,31.8,34.8c16,4.4,32.1,8.8,47.9,13.9c14.2,4.6,26.3,12.4,34.6,25.2c6.9,10.7,17.4,13.8,29.2,8.8
		c1.8-0.8,3.5-1.9,5.4-2.6c10.4-3.9,15.9-10.1,14.4-22.4c-0.8-6.6,2.5-13.6,3.2-20.5c1.3-12.6,0-25.6-9.3-34.5
		c-16.1-15.5-18.4-34-15.3-54.1c1.8-11.4,0.2-21.3-5-31.6c-15.8-31.2-31.3-62.5-46-94.2c-4.3-9.4-5.6-20.2-8.1-29.9
		c5.8-4.6,8.5-1.1,11,1.9c5.4,6.7,12.7,10.4,19.9,14.3c10.6-15.9,8.7-34.3-6.9-40.3c1.1-4.9,2-10,3.3-15.1c0.8-3.2,3.1-6.4,2.9-9.5
		c-0.4-7.4,3.6-10.8,10-13.6c4.5,2.4,9.4,4.9,15.4,8.1c1.2-5.6,2.2-10.3,3.2-15.1c-7-5.4-13.5-10.4-20.3-15.6
		c0.6-9.3,4.5-16.3,13.7-19.8c1.8-0.7,3.4-2.2,5.3-2.8c8.6-3.1,13.7-8.8,17.4-17.5c4.3-10.2,2.5-19.4,0.2-29.1
		c-0.5-2.2-1.5-4.3-2.7-7.8c4.2,2.1,7,3.5,9.8,4.9c9-6.3,9.7-6.8,5.3-15.9c-4.3-8.9-10.1-17.2-15.3-25.7c-0.5-0.8-1.2-1.7-2.1-2.1
		c-15.1-6.7-29.2-16.2-46.3-17.4c-4.3-0.3-8.9-0.6-12.9,0.6c-13.8,4-27.5,0.8-42.7,1.8c3.2-11.8-0.1-22.8,4.9-33.2
		c5.7-12.1,2.3-24.1-2-35.8c-0.8-2.1-2.6-3.9-4.3-5.4c-4.2-3.8-8.9-7.1-12.8-11.1c-11.7-11.9-24.8-9.9-37.9,0.7
		c-7.9,6.4-9.4,5.6-17.9,0c-12.8-8.4-14.9-22.1-20.2-35.5c4.2-3.8,8.6-7.7,12.8-11.5c-5.3-9.1-10.6-17.1-14.7-25.7
		c-4.3-9.1-1.4-18.9-2-28.1c11.4-5.1,13.1,7.4,21.5,10.8c1.2-10.5,2.3-19.8,3.5-29.8c4.5,0,9,0,14.3,0c-0.2-2.9-0.3-5.1-0.6-7.2
		c-1.2-8.7,3.6-10.8,10.3-10.9c2.2,0,4.4,0.6,7.6,1.1c-1.6,3.3-2.7,6-4.1,8.5c-6.8,12.3-6.8,12.3-0.9,27.5c6-8.3,11.4-15.9,18-25.1
		c3.7,9.6,6.8,17.5,10.2,26.3c10.2-2.9,21-5.9,31.7-9c7.4-2.1,14.7-4.3,22-6.4c6.4-1.8,12.2-0.3,18.1,2.7
		c8.8,4.5,17.9,8.9,27.4,11.7c7.5,2.3,13.3,5.6,17.2,13.9c-8.9,14.3-2.1,29.3,2.7,43.8c2,6.1,7.9,11.3,12.9,15.9
		c4.4,3.9,10,6.7,15.4,9.2c2.3,1.1,5.8,1.1,8.3,0.3c5.1-1.6,9.9-3.9,14.7-6.1c15.3-6.9,31.9,3.1,33.4,18.5c0.9,9.7,5,17.7,10.2,25.6
		c3.7,5.6,7.1,11.3,10.4,17c3.5,6.1,7.6,11.4,12.7,16.4c5.1,5,8.6,11.6,13.1,18.1c2.8-0.1,6.1-0.5,9.4-0.4c4.2,0.1,8.5,0.1,12.5,1.1
		c18,4.5,26.4,17.7,30.3,34.5c4.2,18.1,8,36.3,11.7,54.6c2.9,14.6,8.9,27.9,16.3,40.6c4.1,7.1,9.8,13.2,14.7,19.8
		c7.9,10.6,5,21.9-0.4,31.8c-5.3,9.8-12.1,18.9-21.5,26c-7.1,5.3-9.9,14.3-10.8,22.8c-0.6,5.7-2.8,10-4.6,13.4c-8.1,0-15.2,0-22.9,0
		c0,9-0.3,16.9,0.1,24.7c0.6,10.9,2.6,21.9,2.2,32.8c-0.3,7-2.5,14.6-6.1,20.6c-4.3,7.3-11.1,13.1-16.7,19.6
		c-2.8,3.2-6.2,6.3-7.8,10.1c-3.8,9.3-11,13.7-20.1,16.3c-5.7,1.7-11.3,3.9-16.2,5.7c-3.8,9.5-2.1,17,4.4,23.6
		c1.9,1.9,3.1,4.4,4.9,6.3c9.7,10.9,13.9,23.8,14.6,38.2c0.4,9.3,0.9,18.6,2.1,27.8c1.4,10.1-1.5,19-5.5,27.9
		c-5.3,11.7-5.2,11.8,6,19.8c6.1-4.2,11.9-9.6,18.7-12.5c6.6-2.8,14.2-3,21.4-4.2c9.8-1.6,19.6-3.5,29.4-4.6c8.5-1,15.4,4,22,8.2
		c14.2,8.8,26.8,19.6,36.2,33.8c4.8,7.2,7.2,14.6,7.8,23.2c0.9,11.4-0.7,21.6-6.7,31.4c-2.7,4.3-5.6,6.1-11.6,5
		c7.9-21.4-1.3-38.5-14-55.7c-1.3,1.6-2.3,2.8-3.1,4c-0.7,1.1-1.1,2.3-1.8,4c-3.3-0.3-6.5-0.5-10.6-0.9c-1.4,11.2-2.9,22.3-3.9,33.5
		c-0.2,2.2,1.5,4.8,3,6.7c1.6,2,4.1,3.3,6.2,4.9c4.2,3.2,6.4,7,6.5,12.6c0.2,6.9,2.2,13.6-1.1,20.4c-0.9,1.8,0.1,5.6,1.5,7.1
		c4.6,4.8,5.4,10.2,5.4,16.5c0,3.9,1.3,7.8,2.2,12.1c-1.4,0.8-3.1,1.7-5,2.7c-0.8,10.5,5.1,19.4,8.7,30.9c-4.5-1.8-7.5-3-11.2-4.5
		c-0.4,6.2-0.8,11.9-1.3,19.1c5.4,3.6,11.7,7.8,18.8,12.5c-8.5,5.9-8.9,15.1-9.9,24.2c-0.3,3.2-1.8,6.4-3.1,9.4
		c-3.2,7.9-8.5,15.6-0.1,24.2c-4.3,2.1-7.2,3.4-11.1,5.3c-7.4-5.9-15.1-11.7-22.4-18c-3.4-2.9-6.6-4.6-11.2-5.3
		c-15.4-2.6-30.6-6-43.7-15.3c-7.1-5-14.2-9.9-21.1-15.1c-4.1-3.1-8.4-4-13.1-2.5c-13.2,4.3-26.2,2.6-39.2-0.6
		c-5.6-1.4-10.8-1.5-16.5,0.8c-4.5,1.8-9.7,2.8-14.5,2.8c-6-0.1-9.8,2.5-13.6,6.7c-7.1,7.9-14.5,15.6-22.3,22.8
		c-7.5,6.9-16.2,10.4-27.1,9.4c-12.6-1.1-23.9-4.5-34-12.2c-4.2-3.2-8.8-5.9-13.9-9.3c-3.7,3.2-7.4,5.9-10.6,9.1
		c-4.2,4.2-8.1,5.6-14.7,4.5c-17.9-2.8-32.1-12.2-46.1-22.4c-12-8.7-18.1-20-15.4-35.2c0.5-2.6,0.6-5.2,1-8.7
		c-5.2-2.5-10.5-5.1-15.9-7.7c-1.8,1.6-3.5,2.7-4.8,4.2c-8.7,10-19.6,16.6-31.4,22.5c-10.7,5.3-20.8,6.1-31.4,0.7
		c-0.3-0.1-0.6-0.3-0.9-0.4c-12-2.8-15.9-11.4-17-22.6C3678.8,1923.8,3676.3,1911.8,3669,1901.4z"/>
	<path onclick="modals(this.id);" id="2244" class="st0" d="M4721.1,961.1c5.4,13.3,10.9,24.7,14.6,36.7c4.3,14,6.2,28.5,0,42.9
		c-6.6,15.3-13.1,30.6-19.3,46c-3.6,9-3,11.1,5.9,14.6c14.5,5.7,26.8,14.8,38.7,24.3c5.5,4.5,9.4,11,13.7,17c2.7,3.8,4.5,8.2,7,12.1
		c4.4,6.8,9.4,13.2,17.3,15.9c8.4,2.8,15.6,7.4,21.7,13.7c9.8,10.1,22.5,15.1,35.1,20.4c3.4,1.4,6.9,2.6,10.1,4.3
		c2.2,1.1,3.9,3,6.5,5c-9.2,6.3-18.7,1.7-27.8,4.3c-2.6,3.9-5.5,8.3-8.9,13.6c2.6,2.4,4.9,4.7,7.3,6.8c7.3,6.3,14.3,12.9,22.1,18.7
		c6.4,4.8,8.9,11.2,10.9,18.9c-12.7,1.9-8.8,12-9.8,20.2c-2.3,1.2-4.6,2.2-6.9,3.5c-5.7,3.1-6.5,6.2-1.9,10.9
		c8.1,8.3,16.5,16.3,25,24.3c3.8,3.6,8,6.8,12.3,10.5c-1.5,2-2.3,4.1-3.7,5.1c-12,8.1-17.3,20.7-23.2,33c-0.9,1.8-1.7,3.6-2.3,5.5
		c-2.9,8.6-7.8,15.3-16.6,18.6c-5,1.9-8,6-9.6,10.9c-3.3,10.1-6.8,20.1-9.3,30.4c-2.2,9.1-4.4,18.2-9.3,26.1
		c-7.4,11.8-7.3,24.3-5.5,37.5c1.4,10.8,1.8,21.7,2.7,33.4c-9.6-0.4-18.1,0.3-24.8-7.8c-10.9-13.1-25.6-19.6-42.3-22
		c-4.9-0.7-12.7,4.7-14.2,10c-0.5,1.9-0.7,3.9-0.9,5.9c-3,25.4-14.2,47.5-26.8,69.2c-18.1,31.4-35.8,63.1-53.3,94.8
		c-3.9,7.1-8.4,11.3-17,10.9c-5.5-0.3-11,0.9-17.8,1.6c1.3-13.1,2.5-25,3.8-37.5c7.5-0.9,14.7-1.8,22.6-2.7c0-11.8,0-23.6,0-35.8
		c-7.6-3.5-15.6-2.1-23.5-1.7c-2,0.1-4.5,2.9-5.5,5c-4.8,9.8-9.3,19.8-13.7,29.8c-3.2,7.3-6,14.8-9.2,22.5c-1.9,0.3-3.8,0.8-5.8,0.8
		c-27.3,0.7-54.5,1.3-81.8,2.1c-23.9,0.6-47.9,1.3-71.8,2c-0.7,0-1.4-0.1-2,0c-11.5,3.3-21.6,0.7-30.4-7.8c-7.8,5.4-14,11.5-16.5,21
		c-9.6-2.6-18.4-3.6-26.4,2.2c-9.1-6.3-6.4-17.5-11.5-24.9c-13.6,1.9-17.1,5.9-19.3,18.5c-3.4,19.1-4.4,38.2-3.3,57.6
		c0.4,6.5-0.8,13.1-1.2,19c-4.2,0-7.2,0-10.9,0c-0.1-2.4-1-5.4-0.4-8.1c2.3-9.8-0.6-19.2-2-28.5c-0.5-3.5-3.7-7.2-6.7-9.5
		c-8.6-6.6-10.9-15.8-10.5-25.5c0.3-8-1.7-14.1-7.7-19.3c-2.7-2.4-4.8-5.5-6.7-8.6c-2.8-4.6-6.1-7-12.1-6.9
		c-7.7,0.2-10.3-7.2-15.6-12c7.1-4.9,13.6-9.4,21.2-14.7c-3.4-5.3-5.8-11.5-10.3-15.3c-7.3-6.3-11.9-14.2-16.8-22.1
		c-1.5-2.5-3.3-4.9-5.2-7.7c-13.1,7.9-3.5,17.9-3.5,27.7c-2.7,1.5-5.7,3.2-9.9,5.6c-4-8.7-7.4-16.9-11.4-24.8
		c-4.9-9.7-7-19.7-6.6-30.7c0.4-8.6-0.9-17.2-2.1-25.8c-0.4-2.5-2.7-5-4.6-7c-2.3-2.4-5.6-3.8-7.5-6.4c-4.6-6.4-9.9-11.5-18.2-12.5
		c-6.3-0.8-5.5-7.8-10.2-11.7c-17.4,9-35.1,19-57.3,17c-1-14.1-2.1-28.2-3.1-42.1c8-4.8,14.6,0.6,21.9,0c3.3-5.6,6.4-11.1,7-18.5
		c0.8-8.4,4.1-16.5,11.5-22.3c4.6-3.6,8.6-8.3,12-13.1c3-4.1,6.3-6.5,11.4-6.8c4.3-0.3,8.5-1.8,12.8-1.7c8.6,0.2,13.6-5,17.3-11.5
		c4.4-7.8,10.2-13.7,18-18c2.9-1.6,5.4-4.8,6.8-7.9c4.4-9.8,9.6-19,17.7-26.3c6.2-5.6,11.1-11.9,14.4-20c2.8-6.8,10-10.2,17-12.7
		c2.5-0.9,5.2-1.3,7.8-1.7c7.9-1.2,13.5-5.1,16.5-12.6c4-9.8,13.2-14.7,20.8-20.9c4.5-3.6,8.9-6.7,10.7-12.6
		c0.6-2.1,2.7-3.7,4.2-5.5c0.4-0.5,1.3-0.6,1.6-1.1c5.1-8.4,10.8-16.2,19.6-21.3c1.3-0.7,1.4-3.6,1.9-5.5c1-3.8,2-7.6,3-11.8
		c9-1.1,17.4-2.2,26.1-3.3c2.7-6.5,2.8-12.8,1.5-19.5c-2-10.1-3.1-20.3-4.7-30.5c-0.8-5.2,0.6-9.2,3.8-13.7
		c8.1-11.5,18.9-15,32-13.7c14.6,1.4,24.7-6.1,33-16.8c2.7-3.5,3.9-8.2,5.9-12.8c2.4-0.1,5-0.6,7.6-0.4c17.4,1.2,30.6-6.6,41.8-19.1
		c1.8-2,3.6-3.9,5.2-6.1c3.3-4.3,7.4-6.1,12.9-5.7c3.8,0.3,8.4,1.6,11-2.6c3.6-5.8,11.3-9.7,10.3-17.5c-2.1-15.7,5.1-23.7,19.9-26.4
		c4.7-0.8,6.6-3.9,6.8-8.4c0.2-2.6,1-5.2,1.4-7.8c2.5-17.2,10.3-20,28.2-20.7c6.9-0.3,13.9,1.4,20.8,1.4c3.4,0,7.2-1.2,10.1-3
		c10.8-6.7,21.2-13.8,29.7-23.4c2.2-2.5,4.7-4.6,5.6-5.4c11.2,0.8,20.7,1.4,30.1,2.2c5.2,0.4,7.8-2.3,10.1-6.4
		C4713.6,972.6,4717.3,967.2,4721.1,961.1z"/>
	<path onclick="modals(this.id);" id="2236" class="st0" d="M4843.4,2004.8c-12-6.9-23.5-3.6-35-2.5c-8.9,0.8-18,0.7-26.9,1.2c-4.9,0.3-9.8,1-15.3,1.6
		c0,7.7,0,14.9,0,23.1c7.2,0.9,14.4,1.8,21.5,2.7c6.9,0.9,14.8,0,20.4,3.2c5.3,3,8.6,9.9,11.9,15.7c3.1,5.3,7.2,6,12.6,5.6
		c7.9-0.6,9.2,0.3,9,7.8c-0.5,16.6-0.9,33.2-2.2,49.8c-1.6,20.3-1.7,40.5,1.3,60.7c0.7,4.9,1.9,9.8,2.1,14.8
		c0.6,13,6.8,23.5,14.5,33.2c3.3,4.2,4.6,8.5,4.4,13.8c-0.6,15.9-1.1,31.9-1.3,47.9c-0.2,10,0.2,10.1,9.9,10.3
		c34.6,0.7,69.2,1.3,103.8,2c13,0.3,25.9,1,38.9,1.2c4,0.1,6.7,1.4,9.3,4.5c11.3,13.5,22.9,26.8,34.4,40.2c3.3,3.9,5.2,7.9,5.2,13.4
		c0,8.6,0.9,17.2,2,25.7c0.3,2.4,2,4.9,3.8,6.6c3.2,3,3.9,6.5,4.1,10.7c0.4,7.5,2.8,15.1,2.1,22.4c-0.9,9.5-3.3,19-6.5,28
		c-3,8.4-8.3,15.9-11.7,24.2c-3.5,8.5-7.1,17.3-8.8,26.3c-3.4,17.2-5.6,34.7-8.2,52.1c-0.2,1.3-0.4,2.7-0.3,4
		c1.8,19.6-4.6,38-8.7,56.7c-1.8,8.4-2.3,17.1-4.1,25.4c-1.3,6.1-3.4,12.2-6.3,17.6c-3.5,6.7-8.3,12.8-13.1,20
		c-7.9-3.9-15.5-7.6-23.6-11.6c14.7-20.7,19-44.4,24.9-67.5c1.7-6.8-0.8-9.5-8.3-10.2c-19.5-1.6-39.1-3.1-58.6-4.6
		c-26.8-2-53.6-3.9-80.5-5.8c-16.9-1.2-33.8-2.2-50.6-3.7c-6.7-0.6-11.5,2.6-16.5,7.2c-6.2-5.6-12.5-10.9-18.3-16.7
		c-1.6-1.6-2.1-4.8-2.2-7.2c-0.4-13-0.8-26-0.7-39c0.1-9.1-1.1-17.8-3.7-26.5c-3.7-12.4-6.3-25.2-9.8-37.6c-3-10.5-6-21.1-10.1-31.3
		c-6.6-16.1-17-29.3-32.8-37.4c-2-1-4.3-1.9-6.5-2c-6.3-0.3-12.6-0.1-19.3-0.1c-2.6,8.7-1.4,15.4,5.2,21.9
		c8.2,8.1,15.1,17.5,23,26.8c-8.4,2-19.1-1.1-44.4-12.2c-5.6,12.6-5,25.7-2.6,38.7c0.6,3.6,0.4,6.4-1.7,9.3
		c-3.2,4.3-5.7,9.2-9.3,12.9c-12.7,12.9-19.3,14.4-37.3,9.3c-5.1-1.4-10.2-3.1-15.2-4.8c-7.8-2.6-14.9-0.9-20.1,4.9
		c-8,9.2-16.9,11.5-28.3,7.7c-5.6-1.9-11.6-2.4-18.8-3.8c-2.9,22.3-5.7,44.3-8.6,66.9c12.6,5.9,16.1,16.6,15.4,30.5
		c-10.1-2.1-20.7,0.1-29.1-9.1c-5.3-5.7-12.8-9.4-19.5-13.8c-5-3.3-10.8-3.2-16.4-2.4c-21.7,2.9-43.3,5.9-66.3,9
		c-1.7-7.1-3.8-14.3-5-21.7c-0.8-5.2-3.2-8.3-7.7-10.7c-15.8-8.4-31.4-17.1-48.2-26.3c0.5-10.4,1-22.3,1.5-33.2
		c8.6-3.8,16.7-7.3,24-10.5c1.3-12.1-3.7-15.5-13-15.1c-3.9,0.2-7.8-0.8-12.5-1.3c0.6-6.7,1.1-12.8,1.6-19.3c-3.4-1-6.2-1.9-9.4-2.9
		c0-1.8,0-3.7,0-6c-2.9-1.4-5.9-2.7-8.2-3.8c0-8.4,0-16.2,0-23.9c0.6-0.5,1-1,1.6-1.3c15.8-8.7,15.7-8.5,32.6-3.3
		c11.4,3.5,23.1,6.3,34.7,9.3c4.1,1.1,7.3,0.1,11.1-2.4c14.7-9.6,23.6-22.8,27.9-39.7c3.4-13.2,7.9-26.1,12-39.1
		c2.5-7.8,2.5-7.8,11.1-9.7c1.9-12.7,3.8-25.7,5.9-39.5c-10.9-2.7-21.4-5.2-32-7.9c-1.4,2.6-2.5,4.6-3.6,6.7c-1.2-0.2-2.4,0-3-0.5
		c-5.4-4.3-11.1-8.5-16.1-13.3c-3.8-3.6-7.7-6.2-13.1-6.1c-1,0-2-0.4-3-0.4c-10.5-0.4-18.8-3.5-23.7-14.3c-2.8-6.2-8.5-11-12.7-16.6
		c-2.2-2.9-4-6.1-6.1-9.4c8.7-12.8,4.8-27.3,6.3-41.7c6.9,1.7,9.8,11.6,18.8,8.7c1.2,4.3,2.3,8.5,3.5,12.6c1.2,4.4,5.6,7,8.2,4.6
		c6.2-5.6,12.4-2.8,18.9-1.7c1.6-2.7,3-5.2,4.5-7.8c3.9,2.5,7.4,4.9,11.4,7.5c3.9-2.6,7.8-5.1,12.3-8.1c-1.2-8.4-0.8-17.6-6.1-24.6
		c-12.7-16.4-11.3-34.9-9.6-53.5c0.9-10,3.6-18.9,10.6-27.1c4.6-5.4,5.4-14,7.9-21.2c0.7-2.2,1.2-4.4,2.1-7.7c6,0.6,11.8,1.3,18.4,2
		c2.2-3.2,4.7-6.9,7.4-10.8c4.2,7,4.2,7-4.6,16.4c5.7,7.8,1.8,15.9-0.7,23.8c18.1,7.4,22.3,3.1,29.9-13.3c2.3-5,4.3-10.2,6.7-15.3
		c0.7-1.4,1.9-2.9,3.3-3.7c15.5-9.3,23.6-24.3,29.1-40.3c5-14.5,12.7-25,26.8-31.2c9.7-4.3,18.9-10,28.8-13.7
		c6.3-2.3,8-5.8,8.1-11.7c0.5-19.6,1.3-39.2,2-58.8c0-1.3,0.4-2.5,0.8-5.3c6.5,3.8,12.3,7.2,18.4,10.7c0.7,9.5,1.6,19,2.1,28.5
		c0.5,8.6,3.9,16,7.6,23.5c2.5,5.1,5.7,6.8,11.1,5.4c8-2.1,16.2-3.6,24.2-5.8c13.3-3.7,26.7-4.9,40.4-2.4c2.5,0.5,5.2,0.1,8.2,0.1
		c1.5-7.2,1.2-13-4.1-17.9c-2.2-2-3.6-4.8-5.9-6.7c-3.2-2.8-4.3-6.1-2.9-9.8c3-7.6-0.3-12.7-5.9-17.2c-1-0.8-1.7-2-3.3-3.9
		c5.1-9.6,10.4-19.5,15.4-29c21.2,0,41.4,0,62.3,0c3.9-8.9,6.6-19.5,19.2-22.7c2.8,6.2,5.9,12.7,8.8,19.4c1.6,3.7,3.3,7.4,4.1,11.2
		c4.4,19.2,15.5,33.4,31.9,43.7c6.9,4.3,9.3,10,8.8,18.3c-1.2,19.9-1.5,39.9-2.3,59.8C4845.4,1996.9,4844.3,2000.1,4843.4,2004.8z"
		/>
	<path onclick="modals(this.id);" id="2251" class="st0" d="M3673,1584.5c-3.9,9.9,1.9,20.8-2,31.4c-1.6,0.2-3.2,0.8-4.7,0.7c-9.3-0.6-15.2,4.5-18.7,12.2
		c-5.7,12.3-15.4,20.8-26.6,27.6c-5.3,3.2-9.5,7-13.1,11.9c-7.6,10.5-15.4,20.9-23.2,31.3c-11.6,15.6-25.4,28.1-44.8,33
		c-5.2,1.3-8.9,4-11.4,8.8c-2.6,5-5.6,9.8-8.4,14.7c-6.1,10.9-5.9,14.8,1.6,24.1c-0.2,0.6-0.2,1.4-0.6,1.8
		c-12.7,12.3-18.3,27.9-21.7,44.7c-0.7,3.6-1.2,7.5-3,10.5c-4.6,7.6-7.4,15.5-6.1,24.5c-4.7,1.2-8.5,2.2-12.3,3
		c-11.6,2.4-19.5-3.2-20.2-15.1c-0.3-5.1-2.2-8-6.7-9.8c-3.4-1.3-6.7-2.9-10-4.5c-3-1.4-5.8-3.1-9-4.7c0.7-2.6,1.8-4.8,1.7-6.9
		c-0.1-2.7-0.4-6-2-8c-5-6.2-10.6-11.9-16.8-18.8c-7.5,3.6-15.1,7.3-23.7,11.4c-1.4-0.4-3.9-1.4-6.5-2c-9.4-2.1-18.7-3.3-28.2,0.4
		c-12.4,4.8-24.9,9.1-37.4,13.6c-11.6,4.1-19.2,12.8-26.1,22.4c-1.9,2.7-3.9,5.3-6.2,8.2c-2.8-2.4-5.3-4.6-8.6-7.5
		c1.5-7,2.7-14.5,4.7-21.7c1.7-6.2,1-11.4-2.4-17c-12.2-19.9-23.9-40-35.8-60c-1-1.7-1.8-3.5-3.1-6.2c3.1-0.4,5.6-0.9,8-0.9
		c27.6,0.6,55.2,1.3,82.8,1.9c1,0,2,0,3,0c19.7-0.1,16.1,1.6,25.2-13.6c5.1-8.4,11.7-13.4,22-12.4c2.6,0.2,5.3-0.4,8-0.5
		c8.9-0.3,13.9-5.4,17.1-13.1c3.3-7.9,6.5-16,10.3-23.7c1.6-3.2,4.5-5.7,6.9-8.4c1.3-1.5,3.3-2.6,4.1-4.3
		c6.1-12.3,16.8-12.8,28.6-12.1c17.6,1,35.2,1,52.8,1.5c2,0,4,0,6,0c12.4-0.2,13.7-2.6,8.4-14.1c-2.5-5.5-3.9-10.8-0.6-17.1
		c2.7-5.2,4-11.3,5-17.1c0.9-5.8-1.4-11-5-15.6c-3.7-4.7-7.1-9.6-10.6-14.5c-6.9-9.7-11.1-20.3-11.4-32.3
		c-0.2-6.4-3.2-11.1-8.7-14.8c-8.8-6-16.5-13.1-22.6-22.2c-2.3-3.4-7.2-5.2-11.1-7.5c-3.1-1.8-6.9-2.6-9.5-4.8
		c-8.2-7-16-14.6-23.3-21.3c2.2-9.7,4.5-19.9,6.7-30.2c0.4-1.9,0.6-4.3-0.2-5.8c-5.5-10.2-5.6-21.6-7.7-32.5c-1.3-6.4-2.6-8.2-9-7.9
		c-5,0.2-9.9,0.8-15.7,1.3c-1.9-5.4-4.2-10.9-5.9-16.5c-3-10.3-2.8-20.3,3.2-29.7c3.2-5.1,6-10.4,9.5-15.2
		c7.4-10.1,11.7-21.3,15.4-33.2c3.6-11.8,3.5-22.8-1.8-33.8c-1.2-2.4-2-4.9-2.9-7.4c8.1-9.8,6.9-21.7,7.6-33.1
		c0.1-0.9-0.4-2.3-1.1-2.6c-7.1-3.5-4.9-10-5.3-15.7c-0.5-7.6-1.4-15.2-1.9-22.8c-0.4-5.7,0.8-10.6,6.9-12.9c4.4-1.7,6.6-5.2,8-9.6
		c1.4-4.4,3.4-8.7,4.8-13.1c2.2-7.2,0.4-9.8-6.9-11c-2-0.3-4-0.4-6-0.7c-1.6-0.2-3.2-0.3-5.9-0.6c-0.3-5.9-0.6-11.7-0.9-17.7
		c17.5-4.9,28.9,4.3,38.9,15.2c12.1,13.2,16.2,30.2,19,47.4c1.4,8.5,1.1,8.7,9.9,11c3.2,0.8,6.5,1.7,9.8,1.6
		c11.3-0.5,20.8,5.6,31.3,8.1c2.5,0.6,5.1,0.8,9,1.4c-1.9-13,6.9-20,13.3-28.3c2.5-3.2,5.1-5.9,3.6-10.6
		c-2.8-9.1,1.7-14.4,10.5-17.9c2.1,1.1,4.8,2.3,7.3,3.8c10,5.8,10,5.8,19.5-2.3c0.2-8.8-7.8-13.2-11.4-20.9
		c10.9-4.3,19.5-13.3,32.9-10.9c-2.8,8.5-0.4,16.5,3.9,24.3c1.1,1.9,2.4,4.9,1.6,6.5c-4.5,9.8,0.9,18,3.6,26.6
		c0.1,0.3,0.1,0.6,0.1,1.2c-2.1,0.5-4.3,1.1-7,1.8c-0.2,3.1-0.6,6.1-0.7,9c-0.5,11.3-1.4,22.7-7.2,32.8c-4.1,7.3-3.8,15-1.5,22.2
		c2.6,8.4,2,16.4,0.8,24.6c-0.3,1.9-0.4,4.1,0.4,5.7c3.3,6.5,7.1,12.8,10.4,19.3c3.1,6.1,8.4,3.5,12.7,3.5c2.3,2.7,3.9,6,6.6,7.4
		c4.5,2.5,9.4,3.2,13.7-1.1c5.1-5,14-7.5,11.2-17.5c-0.1-0.5,0.1-1.4,0.5-1.8c7.7-8.5,12.9-19.6,24.4-24.4c2-0.8,4.5-0.8,6.8-0.7
		c21.3,0.4,42.6,1.2,63.8,1.3c11.2,0.1,22.4-1,34.2-1.6c0-17.7,0-34.9,0-52.6c-6.3-1.9-12.5-3.8-19-5.8c0-7.1,0-13.7,0-19.2
		c5.4-3.4,9.9-6.4,14.6-9.2c3-1.8,6.2-3.6,9.4-5c8.8-4,16-1,22.4,5.5c2.1,2.1,4.6,3.9,6.8,5.8c14,12.2,17.6,27.4,10.6,44.7
		c-4.5,11.2-2.4,22.9-3,35.9c12.9-0.6,25.5,1.9,37.8-0.7c15.7-3.4,30.3-1.8,44.3,5.8c1.7,0.9,3.6,1.8,5.5,2.3
		c16.6,4.6,23,18.9,30.5,32.1c0.5,0.8,0.4,2,0.8,2.9c1.1,2.6,2.2,5.5-0.9,6.9c-1.6,0.7-4.4,0-6.2-1c-4.9-2.8-9.4-6.1-16.3-10.7
		c1.6,3.9,2.3,5.8,3.1,7.6c2.7,6,5.6,12,8,18.1c4.3,11,0,20.8-4.8,30.4c-0.8,1.6-2.7,2.9-4.3,3.9c-3.2,1.8-6.6,3.1-9.8,5
		c-16.4,9.5-13.8,5.2-19.5,26.5c5.2,3.8,10.4,7.7,15.7,11.6c4.6,3.3,4.7,3.3,3.1,11.6c-4.5-2.3-8.9-4.5-13.7-6.9
		c-4.3,3.2-8.5,6.3-11.4,8.4c-2.9,13.1-5.5,24.7-8.1,36.3c5.1,4,10.9,6.2,13.3,12.7c2.8,7.5-0.8,13.5-3,20.7
		c-6.9-2.6-12.3-6.6-16.8-11.9c-5.2-6.1-4.1-7.2-16.4-3.5c1.5,11.8,1.9,24,7.4,35.2c16.4,33.5,33,66.9,49.5,100.2
		c3.6,7.3,2.6,14.9,2.2,22.5c-0.5,8.6-1.6,17.3-1.1,25.8c0.7,10.8,5,20.6,13,28.3c12,11.6,13.8,25.9,11.7,41.4
		c-1.3,9.1-3,18.1-4.8,28.9c-4.1,2.2-9.8,5.6-15.8,8.5c-9,4.3-20.1,1.4-24.8-7.2c-7.5-13.7-20.5-21.5-35-26.3
		c-16.4-5.4-33.1-10.1-49.8-14.6c-17.2-4.7-27.8-14.9-29.3-33.2c-0.5-6-2.7-10.8-7.9-14.1c-4.5-2.8-8.7-6.1-13.1-9.1
		c-15.5-10.6-28-24.5-42-36.8c-6.6-5.8-14.2-11.2-22.3-14.5c-8.8-3.5-17.3-6.7-23.4-14.3c-0.6-0.7-1.6-1-2.5-1.5
		C3674.4,1584.2,3674,1584.4,3673,1584.5z"/>
	<path onclick="modals(this.id);" id="2257" class="st0" d="M3776.8,2534.6c2.1-4.8,4.3-9.2,6-13.9c4.9-13.1,14.4-19.3,28.2-19.4c2,0,4-0.1,6,0
		c6.9,0.5,12.3-0.7,17.2-7c3.6-4.5,10.4-6.7,16.2-9.2c5.5-2.4,11.4-3.7,17-5.6c9.2-3,18.3-6.1,28.3-4.3c1.9,0.3,4,0.1,6,0
		c13-0.7,22.2-7.8,24.6-20.2c1-5-0.9-10.5-1.3-15.7c-0.6-7.2-1.1-14.4-1.5-20.2c5.5-2.8,9.6-4.8,13.5-6.9c2-1.1,3.7-2.9,5.7-4.1
		c7.4-4.2,12.1-3.8,17.6,2.8c4.7,5.6,8.7,11.8,12.3,18.1c4.8,8.4,12.1,14.2,19.7,19.5c6,4.2,12.6,1.1,17.8-1.7
		c7.1-3.8,13.1-2.8,19.9,0.5c0,3.3-0.1,6.6,0,9.9c0.1,4.3-0.1,8.7,0.7,12.9c1.9,9,2.1,9-2.8,18.3c-13.2-3.6-24.9,1.5-36.8,6.8
		c-2.5,1.1-5.7,1.2-8.5,1c-3.2-0.3-6.3-1.5-9.4-2.3c-6.5,8.1-8.8,16.7-8.3,26.5c0.4,8.9,0.1,17.9,0.1,26.3c-12,6.5-23-2.2-35.2,0.6
		c-2.5,14.6-12.2,27.9-9.4,43.9c1.5,8.4,3.9,16.7,6.1,25.1c0.4,1.5,1.3,3.8,2.4,4.1c7.4,1.9,14.8,3.8,22.4,4.6
		c3.2,0.3,6.7-2,9.9-3.5c2.4-1.1,4.8-2.4,6.8-4.1c8.5-7.2,18.2-7.1,28.3-5.1c0.7,0.1,1.3,0.2,1.9,0.4c13,4.2,26.2,7.3,40.1,6.2
		c2.2-0.2,4.5,0.6,7.2,1c0.7,8.3,1.2,16-3,23.3c-3,5.2-5.5,10.6-8.6,15.8c-4.7,7.8-10.9,14.4-19.5,17.9
		c-14.1,5.8-23.9,15.3-30.7,29.2c-9.3,18.9-10.2,18.8-31.3,18.4c-10.3-0.2-20.5-2-30.7-2.4c-8.9-0.3-18-0.6-26.7,1
		c-8,1.5-14,7.5-17.4,15.2c-4.4,10.1-8.2,20.2-7.5,31.7c0.5,7.2-1,14.6-0.9,21.9c0.1,11.8-7.9,17.6-16.5,22.7
		c-3.9,2.3-8.5,3.6-13.4,5.7c-2.5,7-0.4,13.9,4.5,19.7c9.5,11.5,7.7,24.2,4,36.7c-1.3,4.2-6,7.5-9.9,12.2c-2.9-4.3-4.9-7.2-6.8-10.2
		c-8.4-13.2-21.2-19.7-35.8-23.4c-7.4-1.9-15.1-2.8-21.1-8.3c-3.1-2.8-6.3-1-9.3,0.2c-6.8,2.6-13.6,5.4-20.5,7.7
		c-9.6,3.1-18.7,1.6-25.5-5.9c-4.6-5-10.6-2.9-16.7-5.5c-1.4-12.6-2.9-25.8-4.4-39c-0.8-0.2-1.5-0.4-2.3-0.7
		c-1.9,2.9-3.9,5.7-5.6,8.7c-5.5,10.1-14.4,14.3-25.3,14.6c-11,0.3-22,0.1-32.9,0c-6.7-0.1-11.9,2.2-16.3,7.6
		c-5.3,6.4-11.6,11.9-17.5,17.7c-2.9,2.9-6,4.1-10.7,3.2c-6.8-1.3-13.9-1.4-20.9-1c-8.9,0.6-15.4,6.7-20.1,13.3
		c-6.2,8.8-14.6,14.3-23,20.3c-2.9,2.1-5.5,2.6-9.2,1.5c-18.4-5.5-18-5.5-26.2-23.1c-4-8.6-9.9-16.3-15.4-25.3
		c0.9-1.7,2.4-4.2,3.8-6.8c4.2-8,3-15-3.3-21.5c-10.1-10.6-20.3-21.1-30-32c-9.5-10.6-11.7-23.5-9.8-37.3c0.4-2.6,0.4-5.3,0.8-7.9
		c1.2-8.6-1.1-14.9-8.9-20.3c-6.7-4.6-12-11.3-17.5-17.4c-1.6-1.8-2.6-4.7-2.9-7.2c-1.5-12.1-4.9-23.1-13.4-32.5
		c-7-7.7-8.3-18.1-10.3-27.8c-1.4-6.7-3.8-11.9-9.4-15.6c-12.7-8.4-18.4-22.5-27.4-33.9c-1.4-1.8-1.5-5-1.5-7.6c-0.2-6-0.4-12,0-18
		c1-16.1-7-27.8-19.6-35.7c-5.7-3.6-13.9-3.5-21.1-4.6c-4.9-0.8-9.9-0.8-15-1.1c-2.4-8.8-3.9-17.2-0.5-25.6c2.9-7.1,3.1-14,0.2-21.1
		c-0.6-1.5-0.4-3.2-0.7-6c14.8-4.9,29.6-9.5,44.3-14.7c5.8-2.1,11.6-4.8,16.7-8.4c12.3-8.6,23.3-19.1,36.2-26.5
		c22.5-13,45.7-23.1,73.5-19.8c17.2,2.1,34.9,3.6,52.6,1.3c14.2-1.8,14.3-1.3,26.2,6.6c-1,1.6-2.1,3.2-3.3,5.1
		c10.3,18.4,24.9,31.3,46.9,37.1c-0.3-4.7-0.8-8.8-0.8-12.9c0-2.9,0.1-6.1,1.1-8.7c3.8-9.2,7.5-11,18.8-10.5
		c13.7,0.6,22.8,8,28.8,19.6c2.9,5.5,1.3,19.5-2.5,26.9c6.7,5.8,13.3,11.6,20.1,17.3c4.5,3.8,6.7,8.6,8.2,14.4
		c2.9,11.2,6.1,22.5,10.3,33.3c4,10.3,13,15.8,23.7,16.9c6.8,0.7,13.9-0.9,20.8-0.9c4.9,0,8.1-2,10.7-5.9c1.6-2.5,3.7-4.7,5.6-7
		c8.2-10,14.9-10.5,23.9-1.6c2.6,2.6,5.5,4.9,7.7,7.8c4.5,5.7,9.9,7.3,16.6,4.7C3773.4,2535,3775.1,2534.9,3776.8,2534.6z"/>
	<path onclick="modals(this.id);" id="2249" class="st0" d="M4169.2,1425.6c1.3-9.1,2.6-16.8,3.6-24.7c0.2-1.5-0.1-3.4-0.9-4.6c-5-8.2-9.4-16.5-15.9-24
		c-6.5-7.6-11.1-17.5-14.1-27.2c-5-16.1-8-32.9-11.9-49.4c-2.2-9.4-3.2-19.2-6.8-28.1c-4.7-11.5-9.8-23.5-24-27.1
		c-3.2-0.8-6.1-2.6-10.4-4.5c2.6-11,4.9-22,8-32.7c1.6-5.6,13.6-10.4,18.6-7.4c9.6,5.9,19.1,2.3,29.8,1.8c-2.2-14.1-4.7-27.1-6-40.2
		c-0.9-9.3-5.3-15.7-11.8-22c-11-10.6-21-22.2-31.8-33.1c-2.7-2.7-6.5-4.1-9.3-5.8c0-20.6-0.2-41.2,0.1-61.8
		c0.1-8.9,1-17.9,2.1-26.8c3.5-29.6-0.6-58.3-8.9-86.6c-1.9-6.3-5.2-12.2-8.1-18.1c-3.8-7.7-7.7-15.5-12-23
		c-4-7.1-4.7-14.6-3.4-22.2c1.5-9.1,4-18.1,6.5-28.6c8.9,6.7,18.6,11.6,28,10.1c10.5-1.7,20.7-7.2,29.6-16.3
		c-1.3-10.8-2.8-22.5-4.2-33.7c10.8-8.5,19.9,1.7,28.8-0.3c6.2,8.3,7.3,16.3,0.5,23.3c-8.6,8.9-7.1,19.4-6.4,30
		c0.2,2.6,1.2,5.2,1.3,7.8c0.1,4.2,1.9,6.9,5.8,8.3c3.9,1.5,7.8,3.2,12.7,5.3c0.7-5.1,1.1-8.9,1.7-13.5c8.4,4.1,16.6,8.1,24.8,12.1
		c4.8-9.3,4.5-11-2.9-16.8c-1.6-1.2-3.1-2.5-4.6-3.8c-1.2-1.1-2.3-2.4-4.1-4.4c4.1-13.6,8.3-27.5,12.6-41.5c3.2-0.4,5.8-0.7,8.5-1
		c0.4,1.3,1,2.2,0.9,3.1c-0.9,8.6-2.5,17.1-2.9,25.7c-1,20.2,9.7,34.4,24.9,45.9c0.5,0.4,1.2,0.6,1.7,1.1
		c14.9,12.7,33.1,16,51.7,18.3c11.9,1.5,11.9,1.7,20.9,9.3c6.4-5.6,12.7-11.4,19.4-16.8c10.2-8.3,22.1-13.5,34.6-17
		c19.2-5.4,38.4-10.4,58.6-15.8c4.7,5.5,8.9,12.3,8.1,21.3c-0.2,2.3-0.1,4.7,0,7c0.4,7.5,1.9,9,9.6,9.6c31.1,2.2,62.3,4.5,93.4,6.7
		c27.8,2,55.6,4,83.4,6c19.9,1.4,39.8,2.4,59.6,4.4c5.6,0.6,8.8-0.8,11.7-5c3.1-4.6,6.4-9.2,11-15.7c1.9,2.9,3,4.9,4.3,6.7
		c12.9,18.5,26.8,36.4,33.2,58.7c1.2,4.2,1.7,7.5-0.8,11.2c-4.5,6.9-8.8,14-13.3,21.3c-9.3,0.8-18.5,2.7-27.3-1.9
		c-4.6-2.4-8-1-11.4,2.7c-8,8.9-17.4,16.4-27.2,23.4c-7.4,5.3-15,6.8-23.5,5.3c-11.5-2.2-22.3-0.9-33,4.1c-3.3,1.6-5.6,3.1-6.4,6.7
		c-1.4,5.8-3.1,11.5-4.5,17.3c-1,4.4-2.4,7.8-7.8,8.9c-14,2.8-21.2,11-19.6,26c0.8,7.9-4.6,13-9.7,17.6c-2,1.8-6.2,1.7-9.4,1.6
		c-5.4-0.2-9.4,1.2-12.9,5.7c-4.3,5.4-9.7,10-14.5,15c-8.4,9-19.6,10.4-31,11.4c-3.6,0.3-7.2,0-11.2,0c-1.5,4.4-2,8.6-4.1,11.8
		c-6.5,9.8-14.8,17.1-27.5,16.9c-2,0-4,0.2-6,0c-16.6-1.6-27.6,7.5-36.3,20c-1.3,1.9-1.4,5-1.2,7.5c1.4,11.2,3.1,22.4,4.7,33.5
		c0.2,1.6,0.7,3.3,0.9,4.9c1.4,11.2,0.2,12.6-11,13.5c-0.3,0-0.7,0.1-1,0.1c-14.9,1.2-15.1,1.1-19,15.7c-1.2,4.3-3.1,7-7,8.9
		c-4.5,2.3-8.3,5.2-9.6,10.7c-0.6,2.3-2.8,4.3-4.6,6.2c-1.3,1.5-3.9,2.3-4.4,3.9c-3.9,13-17,17.2-24.8,26.4c-2.5,3-5.9,5.6-7.3,9.1
		c-3.3,8.2-9.4,11.9-17.5,12.8c-6.2,0.7-11.3,3.3-16.3,6.8c-4.8,3.3-8.5,6.8-10.4,12.7c-1.2,3.9-4.2,7.6-7.3,10.5
		c-10.1,9.5-18.5,20-23.3,33.1c-0.8,2.2-3.2,4.2-5.3,5.4c-8.2,4.4-14.4,10.5-18.7,18.8c-3.1,6-7.8,9.7-14.7,10.4
		C4178.7,1424.8,4173.8,1425.2,4169.2,1425.6z"/>
	<path onclick="modals(this.id);" id="2254" class="st0" d="M4421.2,2178.6c-2.1,4-3.7,6.9-5.1,9.7c-9.9-1.2-9.9-1.2-20.7,3.3c-2-6.2-3.9-12.4-6.1-19.4
		c-4.7,1.5-9.4,1.9-12.9-2.8c-2.6-3.6-5.6-6.9-10.4-9.7c-0.5,10.4-1.2,20.8-1.5,31.3c-0.2,6.1-0.6,12-6,17.1
		c-9.8-4.1-19.9-8.3-30.9-13c2.1-8,4.1-15.9,6.1-23.6c-8.9-10-16.7-19.9-22.7-31.7c-5.9-11.6-13.9-22.6-26.1-29.5
		c-14.2-8-26.8-18.5-42.1-24.8c-13.9-5.8-28.4-6-43-5.8c-8.9,0.1-17.9,1.4-26.8,1c-15.8-0.7-28.6,6.2-38.9,16.7
		c-4.7,4.8-6.1,13-8.3,19.9c-1.9,6-2.8,12.3-4.6,20.4c-2.3-3.8-4-6-5.1-8.5c-8-16.8-16.3-33.5-23.7-50.6
		c-5.4-12.4-15.8-18.6-27.2-23.4c-7.9-3.3-16.4-6.9-24.6-6.8c-14.5,0.2-30-2.3-43,8c-6.5,5.2-13.2,10.1-20.2,14.6
		c-6.6,4.3-13.4,8.6-20.7,11.4c-7.9,3.1-15.6-0.8-23-3.6c-10.9-4.1-19.2-11.6-26.7-20.2c-2.4-2.8-4-6.5-6.8-8.5
		c-8.8-6.4-17.8-12.6-27.3-18c-5.7-3.2-10.6-6.6-13.9-12.3c-1.8-3.1-4.1-6-6.8-9.7c5-4.6,10-9.1,15.2-13.8c4.7,3.1,8.8,5.4,12.5,8.2
		c10.4,8,22.2,11,35,12.3c12,1.2,21.6-2.5,30.1-10.2c7.4-6.7,14.9-13.5,21-21.3c4.7-6,10.5-7.5,17.1-8.1c2.6-0.2,5.9,0.5,7.8-0.8
		c8-5.1,16-2.9,24.1-0.9c9.9,2.5,19.9,2.6,29.6,0.1c7.5-1.9,13.7-0.8,19.5,4.1c2.3,1.9,5,3.3,7.3,5.3c12.8,11.5,28.3,18.2,44.7,20.6
		c11.4,1.7,19.7,6,27.2,13.7c2.1,2.1,4.9,3.4,7.3,5.2c10.8,7.8,11.4,7.8,23.4-0.5c-3.5-13.6-3.5-13.6,2.3-29
		c1.1-3.1,2.3-6.4,2.3-9.6c-0.1-8,2.5-14.2,9.4-18.6c1-0.7,1.8-1.8,3-3.2c-7.4-4.6-14.4-8.9-21.5-13.2c0.6-3.8,1.1-7,1.6-10.6
		c1.9,0.7,3.7,1.4,5.5,2.1c5.1-3.5,4.9-7.6,2.5-12.8c-2.8-5.9-4.5-12.4-6.8-19.1c2.9-0.9,5-1.5,6.8-2c-1.6-9.4-1.2-19.3-5.1-27.2
		c-3.8-7.7-4.9-13.8-2.9-22c1.3-5.4-0.6-12-2.6-17.5c-1.5-4-4.9-7.7-8.4-10.5c-4.7-3.7-6.8-7.4-5.6-13.5c1.5-7.4,1.9-15.1,2.7-21.9
		c4.6-1,8.8-1.8,14.4-3c5.5,5.6,10.6,14,11,23.7c0.4,9-1.6,18.1-2.6,28.4c5.4-1.7,12.6-1.8,15.4-5.3c5-6.3,8.9-14.4,10.2-22.3
		c1.4-8.6-0.5-17.8-1.5-26.7c-0.4-3.2-1.9-6.4-3.7-9.2c-13.4-20.6-31.1-36.3-53.8-45.9c-3.8-1.6-8.5-2.4-12.6-1.9
		c-9.5,1.1-18.9,3.2-28.3,4.9c-2.9,0.5-5.8,1.7-8.8,1.8c-9.8,0.2-18.2,3.6-25.1,10.4c-4.2,4.2-7.6,2.7-11.4-2.2
		c1.6-3.7,3.2-8,5.1-12.1c4.5-9.7,5.4-19.7,3.8-30.2c-1.3-9.2-2.2-18.5-2.5-27.7c-0.4-10.6-2.7-20.3-9.4-28.8
		c-3.7-4.7-6.7-10-10.6-14.5c-4.4-5-5.7-10.3-3.8-17.7c4.6-1.6,9.9-3.4,15.2-5.2c9.4-3.1,17.4-7.6,21.5-17.6
		c1.6-4.1,5.3-7.5,8.7-10.6c9.3-8.4,17.1-17.8,20.6-30c1.5-5,1.8-10.4,2.8-16.9c8.9-1.5,18.9-2.2,28.2-5.1
		c9.3-2.9,17.9-8.1,27.5-12.6c2,8,7.4,10.4,13.9,11.9c2.7,0.6,5.2,2.6,7.4,4.5c4.7,4.2,9.2,8.5,13.4,13.1c1.4,1.5,2.4,3.9,2.6,6
		c0.8,8.6,1.8,17.2,1.7,25.8c-0.1,8.9,1.1,17.1,5.2,25c4.4,8.6,8,17.6,12,26.3c0.8,1.7,2.1,3.3,3.8,5.8c5-2.4,9.7-4.7,14.3-6.9
		c2.1-8.4-6-15.7-1.5-25c2,2.5,3.5,4.2,4.7,6c4.9,7.4,8.9,15.4,16.5,21c3.2,2.4,4.8,7,7.6,11.4c-7.2,5.2-14.1,10.1-22.1,15.8
		c8.8,7,12.5,19.3,25.9,16c5.5,6.5,10.8,12.4,15.6,18.7c1.6,2.2,2.2,5.4,2.6,8.2c0.6,4.3,0.6,8.6,1.1,12.9
		c0.7,6.4,2.7,12.2,8.1,16.4c11.4,9,11.2,22.3,10.6,34.6c-0.5,8.9-0.6,9.2,3,19.7c1.1-0.2,2.4-0.3,3.4-0.8c0.8-0.4,1.4-1.2,2.4-2
		c10.5,9.3,13.6,20.7,10.9,34c-1.1,5.7-0.6,11.1,2,16.5c4.2,8.6,7.4,17.5,8.5,27.4c1.6,15.4,10.4,27.8,19.8,39.6
		c1.6,2.1,4.9,3.2,7.6,4c10.2,3.1,20.5,5.7,30.7,8.7c8.5,2.5,17,5.3,26.1,8.3c1-3.2,2.2-6.9,3.5-11.2c5.9-0.1,10.3-2.4,14.4-7.9
		c3.5-4.8,10.2-7.1,16.2-11.1c3,1.9,6.4,3.3,9,5.7c6.9,6.3,15.2,5.5,21.1,1c17.5-13.4,38.8-12.7,58.5-17.5
		c11.2-2.7,22.9-3.7,34.4-5.8c11.3-2,22.3,7.8,21.5,19.3c-0.9,13.3-1.3,26.5-2,39.8c-0.4,7.9-1.1,15.8-1.6,23.1
		c-13.6,6.9-26.6,13.6-39.7,20.2c-10.3,5.2-17.6,12.7-20.5,24.1c-3.3,12.9-10.8,23.5-18.3,34.1c-2.4,3.4-5.9,6.2-9.3,8.7
		c-6,4.5-11,9.5-12.7,17.1c-0.6,2.6-1.1,5.2-2,7.7c-3.7,10-9.1,12.7-20.4,10c-0.4-6.8,6.1-13.9-0.5-20.2c9.8-11.6,9.5-17.1-1.7-22.4
		c-2.3,3.7-4.6,7.5-6.8,11.1c-6.2-0.7-12.1-1.3-19.1-2.1c-1.7,5.9-3.5,11.1-4.7,16.5c-1.7,7.6-4.7,14.4-9.8,20.4
		c-2.3,2.7-4.3,6.1-5,9.5c-3.4,16.3-5.7,32.9-1.5,49.4c1.4,5.6,3.9,11.3,7.2,16.1c4.2,6.1,5.2,12.8,6.8,19.6c0.9,4-0.9,6.1-3.9,8.2
		c-3.4,2.4-6.2,1.5-9-0.8C4426.7,2183.2,4424.4,2181.3,4421.2,2178.6z"/>
	<path onclick="modals(this.id);" id="2259" class="st0" d="M4741.4,2808.5c6.4,7.3,11.5,13.2,16.7,19.1c5.3,6,10.6,11.9,16.1,17.7c4.1,4.4,4.8,8.6,2,14.3
		c-4.4,8.9-8,18.2-11.4,27.6c-2.8,7.9-0.5,15.3,5.2,21.1c9,9.2,15.7,19.7,19.7,32c6.3,18.9,14.3,37.4,19,56.7
		c4.4,18.1,2.7,36.7-8.8,52.5c-5.7,7.9-8.7,16.2-9.8,25.6c-0.6,5.6-1.8,11.1-2.9,17.8c-3.6-2.3-6.6-4.5-9.9-6.3
		c-3.5-1.9-7.8-2.6-10.7-5.1c-2.2-1.9-3-5.7-4.2-8.8c-2.2-5.7-3.9-6.9-9.6-5.1c-6,1.9-11.8,4.1-18.3,6.5c-2.7-8.3-12-12.4-10.6-22.3
		c0.2-1.3-1.1-3.5-2.3-4.1c-5.7-3-11.5-7-17.6-7.9c-7-1-13.4,3.3-18.6,8.2c-2.9,2.7-5.5,5.7-8.5,8.9c-3.6-1.1-7.1-2-10.5-3.3
		c-10.6-4-20.4-1.9-29.3,4.3c-5.8,4-11.6,5.9-18.6,5.3c-9.3-0.9-17.4,3.7-25.5,7.4c-13.6,6.2-27.2,12.2-40.7,18.7
		c-3.1,1.5-6.7,3.6-8.4,6.5c-4.9,8.3-12.7,11.1-21.1,10.7c-8.7-0.4-17.1-0.2-25.6,1c-12.8,1.7-21.7-6.2-31.1-12.8
		c-4.6-3.2-8.9-6.9-13.3-10.4c-5.6-4.5-11.6-5.8-18.7-4.2c-2.2,0.5-5.3-0.1-7.3-1.3c-13.8-8.6-27.5-17.6-41.2-26.4
		c-6.3-4-8.6-10.8-11.5-17.1c-1.4-3-1.7-6.9-3.9-9.1c-8.5-8.3-9.5-18.5-8.8-29.4c0-0.6-0.4-1.2-0.9-2.7c-2.5-0.2-5.4-0.3-8.2-0.7
		c-5.1-0.7-8,1.6-10,6.2c-5.1,11.7-12.1,22.8-21.8,30.6c-9.9,8-22,13.4-33.1,19.9c-2,1.1-4.5,1.4-6.6,2.3c-9,4.2-17.4,4-26.4-0.9
		c-5-2.7-8.3-5.7-11-10.6c-5.1-9.1-9.8-18.2-9.8-28.9c0-6.9,0.4-13.8,1.2-20.6c1.8-15.5,4.4-30.9,5.8-46.4c0.6-6.1-1-12.5-1.8-18.7
		c-3.2-24.8-4.9-49.8-2.1-74.6c1.8-16.2,7.8-31.6,19.9-43.6c4.2-4.1,9-4.8,15.3-0.9c17.3,10.6,34.6,21.2,51.6,32.4
		c10.7,7,22.5,10,34.7,11.1c16.5,1.5,30.4-5.7,42.8-16c11.4-9.4,17.5-22.4,24-35.2c1.5-3,3-6,4.1-9.1c3-8,9.3-10.9,17.2-10.8
		c9.3,0.1,18.6,1.5,27.8,1.1c20.6-0.9,41.1-2.4,61.6-4c3.3-0.3,6.5-2.5,11.7-4.5c-11-8.8-17.1-20-31.6-21.4
		c-15-1.4-14.8-2.3-20.2-17c-3.3-9.1-7.3-17.9-10.5-26.9c-3-8.6-8.7-14.7-15.8-19.9c-1.8-1.3-4-2.9-4.6-4.8
		c-2.5-7.6-4.4-15.3-6.6-23c-1-3.3,0-5.8,2.6-7.9c3.1-2.5,6.1-5.1,9.9-8.3c12.9,13.1,28.7,15.1,46.3,10.2c1,8,0.7,15.6,3.1,22.3
		c3.3,9.3,8,18.2,13.2,26.6c1.4,2.2,6.6,2.6,10.1,2.8c7.3,0.4,14.6,0.1,21.9,0.1c4.4,8.2,7.7,15.8,7,24.3
		c-0.8,10.2,2.5,18.9,8.3,27.5c3,0.2,6.3,0.4,9.9,0.7c0.6,1.9,1.4,3.7,1.8,5.6c1.8,8.5,4.2,15.5,12.9,20.8
		c6.8,4.2,10.9,13.1,15.7,20.3c1.1,1.7,0.1,5-0.5,7.5c-1.2,5.8-4.9,12.2-3.4,17c1.4,4.4,8.2,7.2,12.6,10.7c1.6,1.2,3.3,2.2,5.3,3.5
		c7.6-3.3,15.3-6.3,22.6-10.1c4-2.1,7.7-5.2,10.9-8.5c3.5-3.5,7-6.1,12.2-5.3c18,2.8,34.9-2.3,51.7-7.8
		C4735.7,2809.8,4739.2,2809.1,4741.4,2808.5z"/>
	<path onclick="modals(this.id);" id="2245" class="st0" d="M4786.2,1838c-5,7.4-9.6,14.1-15,22.2c-11.8,0-25.3,0-38.9,0c-0.3,0-0.6-0.2-1-0.3
		c-18.2-2.8-19.2-2.3-28.3,13.8c-1.5,2.6-2.8,5.3-4.1,8c-5.8,11.5-5.7,11.4,2.2,21.1c1.5,1.8,3,5.2,2.3,6.9
		c-4,9.7,1.8,15.7,7.6,21.7c3.4,3.4,6.6,6.8,4.2,13c-4.3,0-9,0.7-13.4-0.2c-8.4-1.7-16.5-0.8-24.6,1.2c-9,2.3-18.1,4.5-27.1,6.6
		c-2.9,0.7-5.8,0.9-8.7,1.3c-7.8-9.6-10.2-20.4-11-31.8c-0.2-3-0.3-6,0-9c0.8-9.6-0.8-16.9-11.2-21.4c-9-3.9-16.7-10.8-24.9-16.5
		c-3.8-2.7-7.3-3.2-12.1-2.3c-24.1,4.5-48.4,8.4-72.6,12.7c-3.5,0.6-6.8,2.3-10,3.9c-3.2,1.7-6.2,4-9.3,5.8
		c-7,4.2-14.1,5.9-21.1-0.3c-1.7-1.5-3.7-3.1-5.8-3.8c-2.2-0.7-5.5-1.4-7.1-0.4c-6.3,4.1-12.2,8.9-18.3,13.5
		c-1.5,1.2-3.2,3.3-4.7,3.2c-7.7-0.6-9.5,4.4-10.2,10.2c-17.8-4.9-35-9.7-52.4-14.2c-4.6-1.2-7.5-3.7-10.2-7.3
		c-9.6-12.7-16.1-26.4-17.2-42.8c-0.5-6.9-4.8-13.7-7.7-20.3c-2-4.4-2.7-8.5-1.7-13.4c2.1-10.3,1-20.3-4.4-29.7
		c-1.5-2.5-1-6.3-1-9.5c-0.1-13.6-0.1-27.1,0.2-40.7c0.1-5.6,1.1-11.2,1.7-16.8c0.7-6.3,1.4-12.5,2.3-18.8c1.4-9.3,5.1-13.4,14-15.4
		c4.5,7.5,2.7,18.1,12.5,24.2c8.6-3.7,18.3-7.3,28.3-1c4.9-8,7-16.6,16.4-20.9c8.1,8.6,19.4,6.7,30.2,6.7
		c17.3-0.1,34.6-0.1,51.9-0.7c31.9-1.1,63.7-2.6,95.6-3.8c5.9-0.2,12,0,17.9,0.9c5.8,0.9,11.5,3,17.8,4.8c0.2,4.2,0.4,8.7,0.7,14.5
		c11.8-1.4,22.8-2.7,34.1-4c11.4-20.2,22.7-40.1,34-60.1c13.5-24.1,27.1-48.1,40.5-72.3c7.4-13.3,9.3-28.3,12.2-43
		c1-4.9,1.6-10,7-12.3c1.2-0.5,2.6-1.7,3.6-1.4c8.3,2.3,17,3.8,24.5,7.7c6.9,3.6,12.6,9.6,18.4,15.1c3.8,3.6,7.4,6,12.9,6.3
		c5.1,0.4,10.1,2.6,15.1,4c1.5,0.4,3.2,1.1,4.6,0.8c14.2-3.3,23.6,6.5,34,12.9c4,2.5,6.3,7.6,10.3,12.6c-1.9,11.8-1.8,25.9,0.4,40.2
		c1.9,12.7,9.9,20,19.5,26.1c8.4,5.3,17.6,9.5,26.5,14c5.1,2.6,8,6.1,8.5,12.3c0.5,7.3,2.1,14.4,3.4,21.6c1.4,7.9,0.1,9.8-7.1,12.8
		c-7,2.9-12.9,3.6-18.8-2.8c-2.3-2.5-7.1-3.1-10.8-3.9c-2.8-0.6-5.9-0.4-9.2-0.5c-1.8-3.4-3.2-6.8-5.2-9.8c-2.2-3.2-4.8-6.2-7.5-9.1
		c-6.1-6.5-12.3-12.8-17-17.7c3.4-8.1,6-14.3,8.2-19.6c-0.9-1.9-1-2.8-1.5-3c-4.8-2.8-9.7-8-14.3-7.8c-7.9,0.4-16.3,2.2-23.3,7.6
		c-14.7,11.4-29.8,22.3-44.8,33.3c-7,5.1-9.9,11.8-9.9,20.5c0,8.9-1.9,17.8-2.2,26.8c-0.9,26.6-2.5,53.2,5.7,79.2
		c1.1,3.5,2,7.1,2.6,10.7c1.7,9,5.3,17.1,11.3,24.1C4784.9,1835.5,4785.8,1837.3,4786.2,1838z"/>
	<path onclick="modals(this.id);" id="2214" class="st0" d="M4458.7,2312.7c-8.2,23.3-15.4,44.6-23.3,65.8c-3.7,10-13.6,14.3-21.4,20.2
		c-1.8,1.3-5.8,0.2-8.6-0.5c-13.8-3.6-27.7-7.1-41.3-11.3c-5.3-1.6-9.6-1-14.4,1c-8.5,3.6-17.2,7-25.9,10.4
		c-3.9,1.5-7.5,2.6-12.3,1.3c-4-1.1-9.2,0.9-13.3,2.7c-3.7,1.6-5,5.8-2.9,9.3c5.6,9.7-0.1,17.1-4.3,24.7c-2.6,4.6-6.1,8.7-9.1,13.1
		c-5.2,7.5-5.5,22.2-0.1,29.2c1.6,2.1,4.7,3.3,7.4,4.4c1.4,0.6,3.4-0.1,4.9,0.3c5.5,1.4,10.8,3.2,16.3,4.4c5.5,1.2,11.1,2,17.5,3.1
		c3.9,26.5,7.8,53,11.8,81c-4.6,0.2-8.4,0.9-12.1,0.5c-11.9-1.1-23.7-2.6-35.6-4c-2.6-0.3-5.3-0.9-7.7-1.8c-6-2.3-11.7-5-12.5-12.6
		c-0.2-1.6-1.2-3-1.9-4.9c-4.8-0.8-8.4,1.1-11.3,4.6c-9.3,11.4-18.7,22.9-22,37.5c-2.3,9.9-7.2,16.9-16.4,21.1
		c-1.8,0.8-3.4,2.1-5.7,3.7c1.8,19-6.9,32.8-23.7,41.3c-0.9,17-1.1,33.1,6.6,48.4c4.9,9.8,7.8,20.3,7.3,31.8
		c-0.3,6.6-2.3,10.7-9.5,13c-1.7-2.7-4.4-5.5-5.4-8.7c-3.7-12.8-11.5-23.2-18.2-34.2c-25-40.5-50.1-80.9-75.2-121.4
		c-1.4-2.2-2.9-4.3-4.7-6.9c-10.3,2-19,7.3-26.4,13.4c-7.3,6-12.5,14.4-19.1,22.2c-12.9,0.4-26.5,1.4-39.6-3.9
		c-4-1.6-8.4-2.1-12.6-3c-9.1-1.9-17.8-1.5-25.5,4.7c-0.3,0.2-0.6,0.3-0.9,0.5c-9.1,9.1-19.8,8.8-31.3,5.8c-3.6-1-6.3-2.2-7.3-5.8
		c-3.9-13.6-9-27.1-3-41.5c2.9-7,4.7-14.5,7.3-22.7c11.3,2,22.5,6.7,35,1.2c0-10.2,0.3-20.8-0.1-31.3c-0.3-7.7,1.7-14.4,6.8-20.9
		c2.7,0.6,5.7,0.9,8.3,2c3.6,1.5,6.2,0.1,9.4-1.2c7-2.9,14.1-6.1,21.5-7.6c4.9-1,10.3,0.8,16.1,1.4c3.7-7.1,7.1-13.8,4.2-23
		c-1.9-6-0.4-13.1-0.4-20.2c1.5-0.1,2.9-0.6,3.9-0.1c9.6,4.7,18.9,2.4,27.8-1.4c10.3-4.5,19.7-4.4,30.4,0.1
		c16.2,6.9,33.3,11.5,49.8,17.4c3.4,1.2,6.8,3.1,9.3,5.6c9.6,10,22,9.8,34.2,9.6c20-0.3,35.1-10.3,46.9-26c1.5-2,4-3.4,6.3-4.5
		c7.4-3.3,8.5-4.9,6.2-12.7c-2.1-7-4.2-14.1-7.4-20.6c-3.9-8-5.6-16.1-5.4-25c0.1-4.1-1.4-8.4-3.1-12.2c-3-6.6-7-12.9-10.2-19.4
		c-1.4-2.8-1.9-5.9-3.3-10.7c3.4,1.6,5,2.1,6.3,3c10.1,7.1,20.2,14,30,21.4c3.9,2.9,7.2,6.8,10.2,10.7c5.4,7,12.3,11.7,21.3,16.2
		c1-14.9,0.8-28.1-8.4-39.5c-4.3-5.3-3.4-10.2-0.2-16.2c6.9,5.5,13.9,7.1,22.4,4.2c8.9-3.1,14-9.7,12.9-19.2
		c-0.4-3.2-1.1-6.4-1.8-10.4c10.7-0.9,14.8-9.3,19.8-16.6c2.6-3.8,5-7.7,8.1-12.5C4378.8,2297.8,4417.6,2305,4458.7,2312.7z"/>
	<path onclick="modals(this.id);" id="2255" class="st0" d="M4338.3,2286.8c-3.3,4.9-6.2,9.3-9.1,13.7c-2.6,3.9-4.7,8.4-8.1,11.3c-3.3,2.8-8.1,3.8-13.1,6
		c0.6,3.3,1.3,6.8,2,10.3c1.2,5.9,0.5,13-4.3,15.4c-5.9,2.9-13.3,7.2-20.6,1.5c-2.5-2-5.6-3.3-9.1-5.4c-3.1,9.4-6.2,17.3,1.5,26.1
		c6.5,7.4,7,17.6,6.8,28.1c-7-2-11.7-5.8-15.1-11.2c-4.2-6.7-10.2-11.1-16.7-15.4c-8.9-5.8-17.8-11.8-25.7-18.8
		c-7-6.3-13.1-13.7-18.7-21.3c-2.4-3.2-2.8-8-3.5-12.2c-2.9-16.7-4.7-33.6-8.8-50c-2.6-10.5-8.2-20.3-13.3-30
		c-7.1-13.2-17-24.6-27.4-35.4c-1.1-1.2-2.6-2.2-4.1-2.8c-8.4-3.2-12.9-10.1-16.6-17.7c-3.2-6.6-7.1-12.9-9.8-19.6
		c-2.7-6.7-3.8-12.9,0.8-20.5c4.2-7,5.4-16.4,6.2-24.9c1.2-11.8,7.5-18.7,17.7-22.9c4.9-2,9.7-4.6,14.8-5.8
		c3.8-0.9,8.1-2.6,12.1,0.8c1.2,1,3.9,0.7,5.8,0.5c7.3-0.5,14.6-0.6,21.8-1.9c20.9-3.7,39.3,2.5,56.4,13.8
		c5.3,3.5,10.4,7.2,15.9,10.3c16.9,9.5,28.1,23.6,36.2,41.1c4,8.5,11.2,15.5,17.2,23.5c-1.7,6.3-3.6,13-5.3,19.3
		c4.5,8.1,12.7,10,19.9,12.8c9.2,3.6,17,7.9,22.2,17.1c5.1,8.9,11.8,16.9,18.2,24.9c1.9,2.3,5.1,3.7,8,4.9c1.7,0.8,3.9,0.6,5.9,0.7
		c10.3,0.7,19,3.8,26,12.2c4.1,4.9,10.5,7.8,16.4,11.9c2.1-3.3,3.6-5.7,5.5-8.7c8.2,2,16.4,3.9,25.4,6.1c-1.7,11.6-3.3,22.6-5,33.6
		c-15.7,1.5-29.6-3.8-43.9-6.3C4394.8,2297.1,4366.8,2292,4338.3,2286.8z"/>
	<path onclick="modals(this.id);" id="2253" class="st0" d="M4850.3,1919.6c-1.6-1-2.2-1.3-2.7-1.7c-9-7.4-19.7-13.5-26.4-22.6c-6.5-8.8-8.9-20.6-13.1-31
		c-3.4-8.3-6.8-16.6-10.5-24.8c-1.2-2.7-1.9-7.1-6.9-4.2c-0.4,0.2-1.9-0.7-2.3-1.4c-3.6-5.9-8.3-11.5-10.4-17.9
		c-9.6-28.3-13-57.7-11.2-87.4c0.8-13.2,3.5-26.3,3.4-39.6c0-3.5,2.5-7.6,5.1-10.3c4.3-4.5,9.5-8.3,14.6-12
		c11-8.1,22.3-15.6,33-24.1c6.5-5.1,14-6.3,21.4-7.1c3.7-0.4,7.9,3.8,11.5,5.7c-2.2,11.5-2.2,11.5-10.1,17.3
		c5.5,7.7,10.3,16,18,21.7c5.3,3.9,9.4,8.4,11.7,14.5c2.1,5.7,5.8,8.8,11.9,8.3c6.7-0.5,12.2,1.5,16.7,6.7c2.8,3.3,6.4,4.3,10.7,1.9
		c5.8-3.3,14.4-1.6,17.2-11.8c20.2,16.7,39.5,32.6,59.3,49c-6.1,7.4-11.3,14.3-17.1,20.5c-2.1,2.2-5.6,3.5-8.7,4.2
		c-6.8,1.5-12.3,4.7-16,10.8c-4.5,7.3-11.2,12.2-18.6,16.2c-6.3,3.5-10.8,8.4-14.6,14.6c-19.6,31.7-39.4,63.2-59.2,94.8
		C4854.7,1913,4852.7,1916,4850.3,1919.6z"/>
	<path onclick="modals(this.id);" id="2250" class="st0" d="M3615.6,1118.1c11.1,2.2,21.2,3.7,31.1,6.2c5.7,1.4,11.2,4,16.3,6.9c9.1,5.2,17.5,7.9,28.2,3
		c8.9-4.1,19-5.8,28.7-7.9c9.9-2.1,18.2,2.9,22,12.3c0.7,1.9,1.5,3.7,2,5.6c3.3,11,8.1,20.9,18.2,27.5c3.9,2.5,5.1,6.5,5,11.2
		c0,5.9-1.1,13.1,1.8,17.4c2.6,3.7,10,4.2,15.2,6.1c0.6,0.2,1.1,0.7,2.3,1.4c0,14.9,0,30.1,0,45.9c-2.4,0.4-4.6,1-6.8,1
		c-26,0.1-52,0.1-78,0c-2,0-4.1,0.2-6-0.4c-10.3-3.4-17.5,2.5-24,8.5c-5.3,4.9-9.2,11.3-13.6,17.2c-1,1.3-2.2,3.1-1.9,4.4
		c1.6,7.8-4.4,10.6-9,14c-6.5,4.8-10.1,3.5-13.5-4.2c-0.4-0.9-1-1.6-1.9-3c-10.1,4.4-14.3-1.7-17.1-10.1c-0.7-2.2-2.2-4.1-3.5-6
		c-2.7-3.8-3.4-7.8-2.2-12.3c1.8-6.6,1.6-13.1-0.8-19.6c-2.6-7.2-2.3-14.1,0.9-21.3c2.8-6.3,4.8-13.1,6.2-19.9
		c1.2-6.5,1.1-13.2,1.6-20.1c3.9-0.4,7.6-0.7,10.9-1.1c-3-7.2-5.8-13.8-8.4-20.4c-0.6-1.5-1.3-3.7-0.7-4.8
		c4.5-7.7,0.1-14.1-2.8-20.6C3613.1,1129.1,3613.3,1123.5,3615.6,1118.1z"/>
	<path onclick="modals(this.id);" id="2241" class="st0" d="M3939.1,1084c5.8,4,10.5,6.6,14.4,10c5.1,4.3,10.4,3.4,16,2c5.3-1.3,11.4-1.3,12.8-8.9
		c0.3-1.7,3.7-3.5,5.9-4c2.8-0.7,5.9-0.2,9.1-0.2c5.9,15,15.2,28.4,15.7,45.5c8.7-0.2,15.8,0.1,21.2-9c4.9-8.3,15.4-10.7,24.3-14
		c1.5-0.6,3.3-0.5,5.7-0.8c0-6.8,0-13.6,0-21.4c-5.5-4.6-11.8-9.8-18.2-15.1c-5.1,3-9.5,5.6-14.9,8.8c3.4-10.8,11.7-15.5,18.9-22.3
		c9.9,4.4,20.1,6.7,31.9,0.5c0,11.9,0,21.8,0,31.7c0,3-0.7,6.1-0.2,8.9c0.4,2.4,2.2,4.6,4.2,8.7c-3.5,6.1-7.5,14.2-12.4,21.5
		c-5.2,7.6-6.7,15.7-5.8,24.6c1,9.6,1.9,19.2,2.6,28.8c0.3,4.1,1.9,6.6,6.1,8c6.9,2.3,13.6,5.1,19.5,7.4c-2.4,8.7-4.7,16.8-6.9,25
		c-0.4,1.3-0.5,2.6-0.8,3.9c-2.8,13.4-2.8,13.4-15.3,13c-6.8-7.7-13-14.4-18.9-21.5c-2.7-3.3-4.7-7.2-7-10.9
		c-2.9-4.8-5.5-9.9-8.8-14.5c-6.5-9.1-10.5-18.9-12.2-30.1c-2.2-14.5-19.3-23.9-33.4-19.1c-6,2-11.7,4.9-17.6,7
		c-2,0.7-4.6,1-6.5,0.3c-22.2-9-35.1-30.2-32.7-54C3936.1,1091,3937.6,1088.4,3939.1,1084z"/>
	<path onclick="modals(this.id);" id="2247" class="st0" d="M4104.1,1116.6c9.2,9.6,18.5,19,27.5,28.8c1.6,1.8,2.3,4.7,2.8,7.2c2.4,13.7,4.7,27.5,7.1,41.9
		c-8.9,0.3-17.5,3.9-25.7-2.3c-1.5-1.1-4.7-1.3-6.5-0.5c-4.5,2.2-8.3,1-12.4-0.6c-7.1-2.8-14.3-5.3-22.3-8.3
		c-0.3-5.2-0.5-10.4-1-15.6c-0.5-5.2-1.3-10.4-2.2-17.2c12.3,4.9,23.2,9.2,34,13.5c4.2-4.9,4.6-9.3,3.3-14.6
		c-2.6-10.6-4.5-21.3-6.6-32C4102.7,1116.9,4103.4,1116.7,4104.1,1116.6z"/>
	<path onclick="modals(this.id);" id="2246" class="st0" d="M4091.9,1105.5c2.2,3.8,3.8,6,4.8,8.5c4.7,11.8,9.3,37.4,7.9,44.8c-1.8-0.4-3.7-0.5-5.4-1.1
		c-5.8-2.3-11.5-4.9-17.4-7.1c-8.8-3.4-10.2-6.5-6.3-14.8c3.1-6.6,6-13.2,9.4-19.7C4086.4,1112.8,4088.8,1110.1,4091.9,1105.5z"/>
	<path onclick="modals(this.id);" id="2242" class="st0" d="M4618.5,1694.3c-7.6-1.6-13-2.8-18.3-3.9c1.1-12.5,17.5-49.2,24.9-55.4c0.9,10.5-3,19.6-4.4,29
		C4619.4,1673.5,4619.3,1683,4618.5,1694.3z"/>
	<path onclick="modals(this.id);" id="2226" class="st0" d="M4301.2,2448.1c4.4,11.7,7.9,22.3,4.8,34.2c-6.2-1.1-12-2.1-17.8-3.1c-0.3-0.1-0.7-0.1-0.9-0.3
		c-6.1-4.2-5.2-11.2-6.3-17.1c-0.7-3.7,1.3-7.8,6-9.2C4291.4,2451.4,4295.8,2449.8,4301.2,2448.1z"/>
	<path onclick="modals(this.id);" id="2237" class="st0" d="M4003,1084.9c11.6-3.1,14.6-1.8,19.9,7.5c5.6,9.7,10.1,19.4,3.8,31.4c-2.8,0.4-6,0.9-8.3,1.2
		C4013.2,1111.4,4008.3,1098.5,4003,1084.9z"/>
	<path onclick="modals(this.id);" id="2231" class="st0" d="M4770.1,2024.8c0-5.8,0-11,0-17.1c8.9-0.4,17.4-0.8,26.8-1.2c1.6,7.2,3.1,13.8,4.9,21.6
		C4790.7,2028.2,4780.6,2026.4,4770.1,2024.8z"/>
	<path onclick="modals(this.id);" id="2243" class="st0" d="M4643.3,1665.8c-6.1,0.4-11.8,0.7-19,1.1c1.3-5.9,2.4-10.5,3.3-15.2c0.8-4.6,1.4-9.2,2-13.8
		c0.4-3.4,2.9-4.5,5.6-4.3c2.6,0.2,5.1,1.2,8,1.9C4643.3,1645.3,4643.3,1654.8,4643.3,1665.8z"/>
	<path onclick="modals(this.id);" id="2222" class="st0" d="M4350.6,2456.1c9,1.9,16.9,3.5,24.8,5.2c0.2,0,0.1,1.2,0.2,3.3c-13.3-1.6-26.3-3.3-40.3-5
		c1-8.6,1.9-15.7,2.9-24.3c4.5,0.4,8.8,0.9,14.1,1.4C4351.8,2443.5,4351.2,2449.6,4350.6,2456.1z"/>
	<path onclick="modals(this.id);" id="2232" class="st0" d="M4820.1,2029.4c-6.1,4.7-10.1,0.2-15.1-1.2c-1.1-6.6-2.2-13.4-3.3-20.3
		c5.4-4.1,11.1-2.1,16.4-2.8C4823.3,2013.2,4819.6,2021.4,4820.1,2029.4z"/>
	<path onclick="modals(this.id);" id="2240" class="st0" d="M4059.1,1102c-3-0.5-7.1,0-8.6-1.7c-2.9-3.3-5.4-7.7-6-12c-0.6-4.2,1.3-8.8,2.1-13.2
		C4059.1,1079.6,4060.9,1083.3,4059.1,1102z"/>
	<path onclick="modals(this.id);" id="2233" class="st0" d="M4844,2008.4c0,3.8,0,6.4,0,10.3c-5.4,1-11.1,2.1-17.9,3.3c-1.1-6.3-2.1-11.7-3.2-17.4
		C4831.1,2001.4,4836.7,2006.7,4844,2008.4z"/>
	<path onclick="modals(this.id);" id="2229" class="st0" d="M4321,2464.1c5-0.2,10.3-0.5,15.8-0.8c3.7,6.8-2.8,11.8-1.8,18.4c-4.9-0.6-9-1-14-1.6
		C4321,2475.2,4321,2469.9,4321,2464.1z"/>
	<path onclick="modals(this.id);" id="2215" class="st0" d="M4288.8,2447.7c5.3-10.1,9.9-19.1,15.4-29.7c2.3,8,4.3,15,6.5,22.9
		C4303.2,2443.3,4296.4,2445.4,4288.8,2447.7z"/>
	<path onclick="modals(this.id);" id="2218" class="st0" d="M4318.9,2418c-1.2-4.9-2.1-8.4-3.2-12.9c6.4-2.1,12.4-4.1,19.4-6.4c0,5.7,0,10.2,0,15.3
		C4329.9,2415.3,4324.9,2416.5,4318.9,2418z"/>
	<path onclick="modals(this.id);" id="2235" class="st0" d="M4841.3,2037.1c0.4,2.1,0.9,3.3,0.9,4.6c0,2.6-0.2,5.2-0.3,8.6c-5.4,0.6-10.5,1.1-15.8,1.7
		c-2.3-3.5-4.4-6.7-7.5-11.3C4827.1,2039.3,4834,2038.2,4841.3,2037.1z"/>
	<path onclick="modals(this.id);" id="2230" class="st0" d="M4341.5,2464.3c12,1.4,21.3,2.5,31.1,3.7c-7.6,6.8-21.6,9-28.5,4.3
		C4342.6,2471.4,4342.7,2468.3,4341.5,2464.3z"/>
	<path onclick="modals(this.id);" id="2239" class="st0" d="M4047.7,1105.7c-1.5,1-3.1,2-5,3.1c-0.8-0.9-1.6-1.6-2-2.5c-2.2-4.8-4.6-9.5-6.2-14.5
		c-2.6-8-1-11.4,6.7-15.1c0,5.2-0.8,10.3,0.2,15C4042.5,1096.4,4045.4,1100.7,4047.7,1105.7z"/>
	<path onclick="modals(this.id);" id="2234" class="st0" d="M4824.8,2026.5c4.8-0.9,8.6-1.5,12.4-2.4c2.6-0.6,5.5-1.7,6.6,1.7c1.2,3.7-0.5,6.5-4.2,7.6
		c-2.8,0.8-5.8,1-8.7,1.3c-1.9,0.2-3.9,0.3-6.2,0.4C4824.8,2032.4,4824.8,2029.9,4824.8,2026.5z"/>
	<path onclick="modals(this.id);" id="2216" class="st0" d="M4317.6,2427.5c-2.2,0.6-3.9,1.1-5.6,1.6c-7.6-20.7-7.6-20.7-1.4-26.4c1.3,4.4,2.5,8.3,3.6,12.1
		C4315.3,2418.9,4316.4,2422.9,4317.6,2427.5z"/>
	<path onclick="modals(this.id);" id="2227" class="st0" d="M4323.3,2485.1c4.6,0,9.2,0,14.3,0c1-2.9,2-5.7,3.1-8.9c3.2,0.5,6.7,1,11.2,1.7
		c0,3.7,0,7.6,0,11.5c-0.1,8.3-0.2,16.6-0.2,25c0,1.6-0.2,3.7,0.7,4.9c4.1,5.5,3.5,12,3.8,18.2c0.2,5.3,1.9,9.7,5.2,13.6
		c6.2,7.4,12.4,14.8,18.3,22.4c7.8,10,11.5,21.5,11.8,35c-5.5,0.7-11,2.2-16.4,2c-7.5-0.2-13.1-5.1-16.6-11.2
		c-5.1-8.8-7.7-19-14.8-27c-1.5-1.7-1.3-5-1.6-7.6c-3.7-25.3-7.4-50.5-11.1-76.1c-2.8-1-5.4-1.8-7.9-2.7
		C4323.2,2485.6,4323.3,2485.4,4323.3,2485.1z M4310.3,2461.7c-0.2,6.6-0.1,13.2,0.4,19.7c0.1,1.3,2.4,2.5,4.1,4.2
		c2.7-9.8,3.4-18-0.6-26.9C4312.8,2459.8,4310.3,2460.7,4310.3,2461.7z"/>
	<path onclick="modals(this.id);" id="2238" class="st0" d="M4032.3,1098.5c-3.8-5.1-7.6-10.3-12.3-16.6c3.9,0,6.3,0,8.9,0c1.1,5.8,2.1,11.3,3.1,16.8
		C4032.1,1098.8,4032.3,1098.5,4032.3,1098.5z"/>
	<path onclick="modals(this.id);" id="2223" class="st0" d="M4326.9,2450c-0.7-2.7-1.5-5.4-2.4-8.7c3-1,5.7-1.8,9-2.8
		C4333.5,2444,4335.6,2449.7,4326.9,2450z"/>
	<path onclick="modals(this.id);" id="2225" class="st0" d="M4308.2,2456.1c-1.9-4.1-5.3-8.1,1.8-10.9C4315.7,2453.2,4315.7,2453.3,4308.2,2456.1z"/>
	<path onclick="modals(this.id);" id="2219" class="st0" d="M4322.8,2428c-1.1-2.2-1.8-3.6-2.9-5.7c2.7-0.8,4.8-1.4,6.8-1.9c1.8-0.5,3.6-1,6-0.1
		C4329.6,2422.7,4326.4,2425.2,4322.8,2428z"/>
	<path onclick="modals(this.id);" id="2221" class="st0" d="M4332.8,2425c4,1.2,7,2,12.4,3.6c-4.9,1.9-7.6,2.9-10.9,4.2
		C4333.8,2430,4333.4,2427.8,4332.8,2425z"/>
	<path onclick="modals(this.id);" id="2228" class="st0" d="M4319.8,2457.2c3.4-1.2,6.8-2.4,10.3-3.7c1.1,5.8,1.1,5.8-9.8,5.7
		C4320.2,2458.5,4320,2457.9,4319.8,2457.2z"/>
	<path onclick="modals(this.id);" id="2224" class="st0" d="M4319.4,2441.3c2.2,4.9,4.5,8,0.3,12.2C4316.8,2449.7,4314.6,2446.8,4319.4,2441.3z"/>
	<path onclick="modals(this.id);" id="2217" class="st0" d="M4318.4,2431.5c1.5,3.4,3.2,6.4-1.4,7.5c-1,0.2-3.1-0.9-3.6-2
		C4311.3,2432.6,4315,2432.5,4318.4,2431.5z"/>
	<path onclick="modals(this.id);" id="2220" class="st0" d="M4328,2428.2c2.4,3.8,3.2,6.3-0.2,7.7c-0.9,0.4-2.5-1-3.7-1.6
		C4325.3,2432.4,4326.4,2430.6,4328,2428.2z"/>
</g>
</svg>
