<?xml version="1.0" encoding="utf-8"?>
<!-- Generator: Adobe Illustrator 19.0.0, SVG Export Plug-In . SVG Version: 6.00 Build 0)  -->
<svg version="1.1" id="Layer1" xmlns="http://www.w3.org/2000/svg" xmlns:xlink="http://www.w3.org/1999/xlink" x="0px" y="0px"
	 viewBox="0 0 3000 1560" style="enable-background:new 0 0 3000 1560;overflow: hidden; display: inline; width: inherit; min-width: inherit; max-width: inherit; height: inherit; min-height: inherit; max-height: inherit;" xml:space="preserve">
<style type="text/css">
	.st0{fill:#8FD4EB;stroke:#000000;stroke-width:3;}
</style>
<g>
	
	<path onclick="modals(this.id);" id="2261" class="st0" d="M1438.6,637.5c2.1-0.8,3.1-1.2,4.1-1.6c0,0.1,0.3,0.6,0.3,1.1c1.1,7.3,6.1,11.3,11.9,15.1
		c7.6,5,14.9,10.6,22.5,15.7c1,0.7,3.5,0.5,4.5-0.2c2.6-2,4.8-4.6,7.1-7c5-5,5.2-5.2,10.2,0.2c3.8,4.1,7.3,8.6,11.6,13.7
		c12.4-11.9,23.9-22.9,35.3-34c2.2-2.2,4.6-4.9,7.5-3.2c1.9,1.1,2.9,4.5,3.3,7c0.7,4.2-0.3,8.8,0.9,12.8c1.7,5.3,4.4,10.4,7.4,15.2
		c4.7,7.8,5.2,15.3,0.2,23.1c-0.8,1.2-1.2,2.7-1.3,4.1c-0.2,2.2-0.7,5.7,0.3,6.4c2.7,1.6,5.6,2.5,9.3,0.5
		c7.8-4.1,12.8-10.7,17.8-17.3c1-1.4,1.5-3.1,2.7-5.7c1.7,5.8,4.2,10.4,10.6,5.9c1.8,4.9,0.4,8-4.1,8.8c-10,1.6-12.9,9.7-17.9,18.2
		c6.3,0,11.4,0,17.2,0c0-1.8,0.2-3.4,0-5c-0.7-4,2.9-5.1,4.8-4.8c8.3,1.4,16.5,3.4,22.1,10.8c2.6,3.4,6.3,5.9,8.9,9.3
		c3.2,4.1,6.2,8.5,8.3,13.2c3.4,7.4,7,14.9,5.9,23.5c-0.4,3.2-0.8,6.6-2.2,9.4c-5.9,11.7-4.3,11.1,2.8,20.3c3.2,4.3,6.6,8.2,9,13.2
		c1.9,4,7.1,6.6,10.8,9.7c9.3,7.8,18.7,15.5,28.1,23.2c3,2.5,6.4,4.6,9.1,7.4c2.8,3,4.9,6.8,7.6,10c1.3,1.5,3.1,3.2,5,3.6
		c4.3,0.8,8.8,0.9,13.3,1.1c3.6,0.2,6.6,0.2,9.3-3.7c2.9-4.1,7.3-7.8,11.9-10.1c6.4-3.1,12.8-0.6,18.1,3.9
		c8.9,7.5,13.8,17.7,18,28.2c0.4,0.9-0.2,2.7-1,3.4c-4.3,3.6-5.6,7.9-4.3,13.3c0.3,1.4-0.4,3.1-0.9,6.2c-5.1-3.4-10-6-14.1-9.5
		c-7.1-6.2-10.1-6.8-18.2-2.6c-4,2.1-6.1-2-8.8-3.4c-2.1-1.1-3.5-3.5-5.4-5.2c-3.4-3.1-9.2-2.2-11.1,1.9c-1.6,3.3-3.9,4.9-7.1,6.7
		c-9.6,5.4-19,11.4-28.1,17.6c-16,11-31.7,22.4-47.8,33.4c-2,1.3-5,1.7-7.5,1.6c-4.7-0.2-9.4-1.5-14.1-1.8
		c-5.7-0.3-11.4,0.3-17.1-0.2c-5.7-0.5-11.2-2.1-16.9-2.6c-5.1-0.4-10.4-0.4-15.4,0.3c-4.8,0.7-9.3,3.2-14.1,3.6
		c-3.1,0.3-6.5-1.3-9.5-2.5c-5.9-2.3-11.5-5.8-17.6-7c-6.6-1.3-13.6-0.7-20.4-0.9c-3.5-0.1-6.9-0.3-10.4-0.3
		c-4.4,0.1-8.8,0.3-13.2,0.6c-0.5,0-1.1,0.6-1.5,1.1c-2.3,2.9-4.6,5.7-6.8,8.7c-2.4,3.2-4,6.6-3.6,10.9c1.2,15.5,2.7,30.9,2.8,46.4
		c0.1,10.1-2.8,20.7-9.5,28.2c-6.8,7.7-7.3,15.8-7.3,24.8c0,3.7,0.9,7.6,0,11c-2.5,9.6-4.9,8.9-12.9,6.9c-6.4-1.6-12.4-5.6-18.2-9
		c-4.6-2.6-5.9-7.4-6.9-12.3c-2.8-14.2-9.1-25.7-24.3-30.1c-14.1-4.1-23.7-14-31.3-26c-3.7-5.8-8.9-10.2-13.5-15.1
		c-7.1-7.7-13-16.9-17.6-26.3c-4.1-8.5-8.1-16.7-14.5-23.6c-1.7-1.9-4.7-2.9-7.3-3.5c-5.5-1.4-11.3-1.7-16.7-3.5
		c-3.5-1.2-7.5-3.5-9.4-6.5c-7-10.8-15.6-19.7-25.7-27.6c-7.5-5.9-7.3-18.7-1.7-25.4c3.9-4.6,8-10,9.4-15.7
		c1.2-4.9-1.1-10.8-2.3-16.1c-1.4-6.2-4.9-12.3-4.7-18.3c0.7-17.8-3.5-33.3-14.7-47.6c-5.2-6.7-11.7-10.6-18.4-14.6
		c-7.6-4.6-9.9-12.1-12.1-19.7c-1.6-5.6-1.7-11.7-3.3-17.3c-2.5-8.5-3.7-16.8-0.9-25.4c2.4-7.3-3.6-11.5-7.3-16
		c-4.6-5.5-9.9-10.5-15.6-14.8c-7.6-5.7-12.9-13-17.2-21.2c-1.1-2-2.4-3.9-3.6-5.9c-4-7.1-3.4-8.5,3-13.8
		c9.4-7.7,18.6-15.8,27.9-23.6c12.6-10.6,25.1-21.3,37.8-31.7c1.2-1,3.9-1.1,5.6-0.6c7.8,2.2,15.6,4.5,23.4,7.1
		c2.7,0.9,5.4,2.3,7.8,3.9c20.8,13.5,41.5,27.3,62.5,40.5c4.7,3,10.5,4.2,15.9,6c8.2,2.6,16.6,4.8,24.8,7.5
		c5.1,1.7,8.5-0.2,12.2-3.5c6.2-5.7,12.7-11,19.3-16.2c2.4-1.9,5.5-2.8,8.2-4.3c1-0.6,2.4-1.6,2.5-2.5c0.5-4.6,2.2-3.6,4.6-1.3
		c2.5,2.4,5,4.9,7.8,6.8c7,4.8,7.3,11.5,6.2,18.9C1440,626.6,1439.4,631.5,1438.6,637.5z"/>
	<path onclick="modals(this.id);" id="2265" class="st0" d="M1803.3,1042.2c-2.7-2.9-5.2-5.5-7.8-8.1c-6.5-6.5-8.2-6.8-15.8-1.3c-4.2,3-7.8,6.8-11.5,10.5
		c-2.4,2.5-2,5.2-0.3,8.3c3,5.6,6.2,11.2,7.8,17.2c1.3,4.9,2.5,10-0.1,15.8c-2.6,5.7-1.6,12.9-2.7,19.3c-1.1,6.6-2.1,13.4-4.4,19.6
		c-2.4,6.6-6.6,12.6-9.3,19.2c-1.5,3.6-3.8,3.8-6.6,3c-16.2-4.2-13.7-1.1-16.7,10.9c-2.4,9.7-9.8,15.4-18,20.4
		c-5.6,3.5-10.8,7.7-15.6,12.2c-6.1,5.8-5.3,12.9-2.5,20.1c2.5,6.2,3.2,12.2,2.6,19.1c-0.8,8.7,1.2,17.6,2.1,26.4
		c0.9,9.1,2.9,18.2,2.5,27.2c-0.3,5.6-4,11.1-6.3,16.6c-0.9,2.1-1.8,4.2-3.1,6.1c-3,4.4-3.1,8.6-0.1,13.2c2.8,4.3,1.5,8.5-0.7,12.9
		c-1.2,2.5-1.5,6.6-0.2,8.8c3.8,6.1,8.8,11.4,12.9,17.3c3.6,5.2,7.1,10.6,9.5,16.4c1.9,4.6,2,9.8,2.7,14.8c1.5,11,3.1,22,4.3,33
		c0.3,3.3-0.5,6.9-1.2,10.2c-1,4.8-3.7,5.9-8.7,4.6c-2.5-0.7-5.4-1.6-7.7-1c-5.1,1.4-7.5-2-10.5-4.7c-7.3-6.8-14.6-13.6-22.2-20
		c-3.9-3.2-8.4-1.4-11.8,1.4c-4.2,3.5-10.1,5.8-10.3,12.7c0,1.2-2.2,2.3-3.7,3.8c-6.7-7.5-15.8-8.3-24.9-9.5
		c-2.2-0.3-4.4-2.8-5.9-4.8c-5.6-7.4-9.9-16-16.5-22.4c-8.6-8.4-18.8-15.2-28.5-22.5c-5.2-3.9-8.3-8.5-8.1-15.1
		c0.3-7.8-1.1-15.1-7.1-20.6c-5-4.6-10.9-4.4-16.9-2.4c-2.7,0.9-7.5-1.6-10.1-4c-4-3.7-6.9-8.7-10.4-13c-3.1-3.8-6.5-7.4-9.5-11.3
		c-5.8-7.3-8.4-15.7-8-25.1c0.7-14.4-0.5-28.6-5-42.4c-3.5-10.8-10.1-14.5-21.2-12.1c-11.6,2.5-11.7,2.5-16.1-8.8
		c-3.9-10.2-10.4-18-20.4-22.5c-2-0.9-4.9-1.5-6.7-0.6c-9.4,4.5-19.2,2.4-28.9,2.5c-2.4,0-4.8-2.4-7.2-3.7c-2.8-1.6-5.5-3.5-8.4-5
		c-6.2-3.2-6.5-3-10.9,2.6c-8.4-2.5-14.2-8.4-18.2-15.7c-4.6-8.6-8.1-17.7-12.1-26.6c-0.6-1.3-1.3-2.7-2.1-3.9
		c-2.7-3.6-2.9-6.8,0.9-9.8c5.5-4.4,11.1-8.8,16.3-13.4c3.8-3.3,7.5-6.9,10.6-10.8c4.9-6.3,8.5-13.7,14.1-19.4
		c10.6-10.8,19.9-23.3,34.1-30.7c5.9,7.2,13.6,11.8,22.5,14.9c5.2,1.8,10.9,3.9,15,0.2c4.7-4.2,5.9-10.6,5.3-17.5
		c-0.6-7,0.6-14.3,1.7-21.4c0.3-1.9,3.6-3.2,4.8-5.2c7.5-12.8,11.6-26.4,9-41.6c-1.1-6.6-0.8-13.5-1.2-20.3c-0.3-4.9-0.6-9.9-1-14.8
		c-0.3-4.4,1.6-7.5,5.2-9.8c0.8-0.5,2-1.2,2.2-1.9c1.2-6.6,6.2-6,11-6c8,0,16.1-0.5,24.1,0.2c6.1,0.5,12,2.4,18,4.1
		c2.6,0.7,5,2.4,7.5,3.7c6.9,3.7,14.3,4.7,21.4,1.2c9.1-4.4,18.1-2.4,27.3-1.1c4.7,0.7,9.6,0.6,14.4,0.9c5.1,0.3,10.2,0.6,15.3,1.1
		c4.2,0.4,8.4,1.1,12.6,1.9c4.7,0.9,7.8-2.3,11-4.5c20.9-14.6,41.6-29.4,62.4-44.1c2.2-1.6,4.9-2.5,7.4-3.7
		c4.3-1.9,8.5-3.4,10.7-8.4c1.6-3.6,4.7-3.5,7.7-0.9c3.1,2.7,6.4,5.1,9.5,7.7c2.7,2.2,5.2,1.8,8,0.1c5.5-3.3,7.8-2.4,13,1.7
		c4.7,3.8,9.8,8.6,15.2,9.4c5.3,0.8,9.4,2.9,13.7,5c12.1,5.9,21.6,14.8,29.4,26c6.5,9.4,14.2,18,21,27.2c5.7,7.7,5.6,12.3-3.5,17.7
		c-3.3,2-6.9,3.6-10.1,5.8c-3.7,2.5-7.5,5-10.7,8.1c-2.4,2.3-4.8,3.6-7.9,2.8c-3.1-0.7-6-2-8.5,1.3c-2.6,3.6-4,7.3-2.7,11.9
		C1805.8,1017.1,1805.6,1035.7,1803.3,1042.2z"/>
	<path onclick="modals(this.id);" id="2262" class="st0" d="M1389.2,440.8c7.9-5.1,16.5-2.5,24.5-1.2c11,1.8,25.9-3.7,32.4-12.9c3.6-5.1,8.1-9.5,11.8-14.6
		c4.4-6.1,2.2-13.6-4.6-17.3c-4.1-2.2-8.7-4-12-7.1c-8.6-8.2-10.3-20.6-5.2-31.3c1.8-3.8,3.2-7.8,4.6-11.8c2.1-5.7,5.2-7.5,10.8-5.6
		c3.3,1.1,4.8-0.2,6-3c6.4-15.5,12.9-31,19.2-46.5c6.9-16.7,13.5-33.5,20.6-50.1c1.9-4.4,0.4-6.9-2.4-9.8c-8-8.3-15.9-16.7-23.9-25
		c-2.7-2.8-5.1-6.4-8.5-8c-7.3-3.5-11.1-9.9-15.3-15.9c4.2-8.2,13-10.8,20-15.7c2.7-1.9,5.1-4.2,7.5-6.4c7.2-6.9,15.6-9,25.2-7
		c10,2.1,20.2,3.7,29.9,6.7c4.8,1.4,8.8,5.4,13,8.4c1.9,1.3,3.7,2.8,5.4,4.3c3.9,3.6,8.3,2.7,12.7,1.4c5.1-1.5,7.8-4.9,9-10.3
		c1.9-8.6,4.7-17.1,7.1-25.6c0.4,0.1,0.8,0.2,1.2,0.4c0.3,3,0.3,6.1,1,9c2.1,9,9.4,13.8,16.7,17.5c8,4,13.8,9.8,18.9,16.8
		c0.8,1,1.6,2.2,2.7,2.8c5,2.6,10.1,5,15.1,7.6c1.7,0.9,3.8,1.7,4.9,3.2c4.8,6.5,11,11,18,15c4.3,2.5,7.8,6.4,11.2,10
		c4.9,5,11,7.5,17.5,9.4c3.8,1.1,5.9,3.1,6.7,7.2c0.5,2.7,2.3,5.4,4.2,7.4c4,4.4,5.7,4.3,10,0.9c10.7,7.6,21,15.5,34.3,7.3
		c2.3,8.6,4.3,16.7,6.7,24.8c0.8,2.7,2.1,5.6,3.9,7.8c5.5,6.6,10.3,13.6,18.4,18c4.7,2.6,7.6,9.1,10.2,14.4
		c4.3,8.7,7.5,18,11.5,26.8c1.1,2.4,3.3,4.6,5.4,6.3c6.8,5.2,13.7,10.3,17.4,18.4c0.7,1.6,3.5,2.3,4.3,3.9c1.5,3.1,3,6.5,3.1,9.8
		c0,1-4.7,2.7-7.3,2.9c-6.5,0.5-10.5,4-11.2,10.7c-0.5,4.9-1.4,9.7-2,14.6c-0.8,6.6,1.2,12.1,5.6,17.3c3,3.6,5,8,7.3,11.7
		c-3.1,5.1-6.2,9.9-8.8,14.8c-2.1,3.9-5,3.7-6.7,0.8c-4.8-8.3-13-8.4-20.8-9.6c-7-1-11.6-4.7-15.2-10.9c-4.4-7.4-9.9-14.2-15-21.1
		c-0.8-1-2.5-1.7-3.8-1.9c-7.5-1.2-13.3-5.8-19.6-9.5c-1.8-1.1-4.7-1.8-6.5-1.1c-6.3,2.5-12.6,5.4-18.5,8.7
		c-6.8,3.9-8.3,8.9-6.5,16.8c2,8.9,3.7,17.8,5.6,26.7c1.5,6.9-2.2,12.1-5.6,17.3c-3.8,6-4.6,11.9-1.8,18.6c1.4,3.4,1.4,7.3,2.4,10.9
		c1.8,6.3-3.7,9.1-6.5,13c-0.6,0.9-4.7,0.4-6.1-0.8c-5.3-4.3-10.1-9.1-15.6-14.1c4.3-11.7-1.4-23.6-4.1-35.7
		c-0.6-2.9-3.1-6.2-5.7-7.7c-1.8-1.1-5.3,0.1-7.9,0.9c-1.1,0.3-1.8,2.1-2.9,3.5c-1.1-0.9-1.7-1.6-2.5-2.2c-4.7-3.5-7-3-9.8,2.2
		c-7,13.3-14.8,26.3-20.8,40c-7,16-18.9,28.4-28.6,42.4c-5.2,7.5-11.5,14.3-16.3,22.1c-4.4,7.2-11.8,8.8-18.4,11.9
		c-6.9,3.3-14.1,6.1-21,9.2c-1.1,0.5-2.5,1.9-2.6,2.9c-0.9,7.8-1.3,15.7-2.2,23.6c-0.3,2.4-1.4,4.9-3,6.8
		c-6.3,7.4-14,12.8-22.4,17.8c-9.5,5.7-14.6,15.5-15.5,26.9c-0.1,1.2-0.1,2.3-0.2,4.5c-5-3.4-9.6-6.4-14.1-9.5
		c-3.2-2.3-6-5.5-9.5-6.9c-10.1-4.1-11.7-13.7-12.7-22c-0.8-6.5-0.1-13.9,4.6-20.5c3.4-4.8,5.8-9.8,11.5-12.2
		c0.7-0.3,1.1-1.6,1.3-2.5c2.7-10.7,5.4-21.5,8-32.2c0.2-0.9,0-2,0-3.3c-3.5-0.7-7-2.1-10.4-2.1c-6.4,0-6.4-4.7-7.6-8.8
		c-1.1-4-2.7-7.9-3.7-11.9c-1.3-5.5-2-11.2-3.4-16.7c-1.4-5.6-3.1-11.1-4.9-16.6c-4.2-12.8-12.2-23.3-20.7-33.5
		c-2.1-2.5-3.6-5.4-5.3-8.2c-3.4-5.9-8.6-8.7-15.2-9.6C1392.5,448.2,1389.1,444.7,1389.2,440.8z"/>
	<path onclick="modals(this.id);" id="2264" class="st0" d="M1635.4,455.3c3,2.2,5.3,3.9,7.9,5.8c0.8-0.7,1.6-1.5,2.4-2.3c5.3-5.3,8.7-5.4,10.8,1.6
		c3.6,12.2,8.6,24.6,3.5,38c4.1,2.9,8.3,5.6,12.3,8.7c2.9,2.2,5.3,5.1,8.4,7c3.1,2,5.2,0.6,8.3-2c9.1-7.9,6.6-16.5,3.2-25.5
		c-2.1-5.6-2-10.8,1.6-16.1c4-5.8,7.7-12,6.1-19.6c-1.2-5.4-2.7-10.7-3.9-16.1c-0.8-4-1.4-8-1.9-12.1c-0.7-5.9,1.1-10.6,7-13.2
		c1.9-0.9,3.7-2.1,5.5-3.2c8.7-5.3,16.8-5,24.3,2.6c1.4,1.4,4.1,1.8,6.2,2.2c7.3,1.6,11,7.4,14.9,12.8c3.3,4.6,6,9.7,9.2,14.4
		c3.4,5,8.7,7.4,14.4,8.7c3,0.7,6.2,0.5,9.3,1.2c3.3,0.7,6.5,1.4,8.3,5.2c0.8,1.7,3.3,2.6,4.8,4.1c2.8,2.8,5.2,1.9,7-0.8
		c2.1-3.1,3.9-6.4,5.7-9.7c2.8-5.2,8.1-6.9,12.9-3.6c3.1,2.1,5.8,4.8,8.6,7.4c1.9,1.7,3.4,4.1,5.5,5.3c9.6,5.6,9.8,15.3,11.5,24.5
		c1.1,6.2,2.3,12.6,4.6,18.4c4.6,11.6,4.3,23.2,0.9,34.7c-2.8,9.6,0,17.9,4.6,26c2.2,3.8,5.1,7.7,5.7,11.9c0.5,3.5-1.1,7.8-3,11
		c-7.7,12.7-9.3,21.1,0.9,32.7c3.8,4.3,8,8.4,11,13.3c5.6,9.3,9.3,19.1,3.5,30.1c-4.6-3.3-9.1-7.2-14.2-9.9c-4.2-2.3-9-3.4-13.7-4.6
		c-3.3-0.8-5.8,0.9-7.7,3.8c-3.2,4.8-6.8,9.2-9.8,14.1c-1,1.7-1.3,4.5-0.5,6.3c2.4,6,5.4,11.7,8.1,17.6c1,2.2,1.1,3.9-1.3,5.8
		c-6.3,5.1-12.3,10.1-21,10.6c-3.9,0.2-7.7,3.2-7.7,7.6c0,4.3-2.8,5.5-5.5,7.2c-3.3,2.1-6.6,4.2-9.8,6.5c-6.8,4.8-7.2,12.5-8.9,19.6
		c-0.9,4-1.5,8-1.9,12.1c-0.2,1.9,0,4.2,0.9,5.7c6.1,9.2,3.7,19,2.6,28.8c-1.2,9.9-1.3,19.5,3.1,29c1.8,3.9,2,8.5,3.4,12.6
		c1,3.2,2.3,6.3,4,9.2c1.9,3.2,4.7,3.1,7.7,1.3c2.4-1.5,5-2.7,7.7-3.6c-3.9,5.7-9,9.6-15.5,11.4c-6.4,1.7-10.6,5.2-11.2,11.8
		c-3.7-4.1-7-8.8-11.2-12c-11.9-9.1-19.6-8.1-30.2,2c-0.8,0.8-1.8,1.5-2.4,2.5c-3.5,5.6-8.7,4.8-13.9,3.8
		c-3.8-0.7-10.3-5.4-13.4-8.3c-5.3-4.9-10.9-9.5-16.5-14.1c-7-5.9-14.1-11.8-21.2-17.7c-2.3-1.9-4.3-4.1-6.8-5.7
		c-10.2-6.4-13.3-18.6-21.8-26.6c-1.3-1.2-0.6-6.1,0.7-8.4c5.6-10.2,5.3-20.2,0.6-30.5c-2.4-5.1-4.4-10.5-6.8-15.6
		c-1-2-2.4-4.3-4.2-5.3c-4.9-2.8-7.7-7.3-10.7-11.7c-3.6-5.2-19.4-12-26.8-9.2c-2.3,0.9-3.5,4.7-5.2,7.2c0.4,0.3,0.7,0.7,1.1,1
		c-3,0.5-6,1.1-10.3,1.8c4.3-6.1,6.7-12.4,14.2-13.4c5.6-0.8,7-5.2,8.9-9.5c-1.8-3.6-4-6.6-9-4c-0.4,0.2-2.3-1.3-2.5-2.3
		c-0.4-1.5-0.1-3.2-0.1-5c-2.5,0.4-4.5,0.8-6.6,1.2c-2.5,11.8-17.2,24.8-25.8,22c1.1-3.1,1.8-6.5,3.4-9.4c5.2-9,2.8-17.2-2.5-24.7
		c-5-7-7.1-14.4-6.8-23c0.1-3.9-1.7-7.9-2.6-11.5c-7.1-3.1-10.7,0.6-14.5,5.6c-3.4,4.4-8.1,7.8-12.2,11.6c-5,4.6-9.9,9.3-14.9,13.9
		c-4.6,4.1-7.6,3.4-10.6-1.3c-2.1-3.4-4.6-6.9-7.8-9.2c-1.5-1.1-5.3-0.5-7.3,0.6c-2.3,1.3-3.8,4-5.7,6.1c-0.5-0.2-1-0.5-1.5-0.7
		c0.8-3.6,1-7.5,2.6-10.7c3.4-6.5,7.5-12.9,14.6-16c11.8-5.1,19-15.1,26.5-23.6c-0.7-1.8-1.5-2.9-1.5-4c0.2-5.9,0.5-11.9,1.1-17.8
		c0.2-1.4,1.7-3.1,3.1-3.7c9.1-4.1,18.1-8.3,27.4-11.6c6.9-2.4,10.1-8.2,13.9-13.2c12.9-16.9,25.6-33.9,38.1-51.1
		c1.5-2.1,1.2-5.4,2.4-7.8C1618.9,486.5,1627,471.3,1635.4,455.3z"/>
	<path onclick="modals(this.id);" id="2263" class="st0" d="M1166.4,617.9c0.6-7.6,0.5-14.9,1.9-21.8c1.9-9.7,0.2-18-5.5-26c-1.6-2.2-2.6-5.4-2.6-8.1
		c-0.1-7.4,0.8-14.9,0.8-22.3c0-6.1-0.6-12.2-0.9-18.3c-0.5-8.7-0.1-17.1,5.4-24.4c5.6-7.4,10.3-15.7,16.8-22.3
		c6.4-6.5,13.9-12.3,21.9-16.4c10.3-5.4,13.2-14.2,13.6-24.1c0.2-5.4,2.6-8,6.6-10.2c1.7-1,3.3-2.1,5.1-2.8
		c9.6-3.7,13.7-12.5,18-20.5c4-7.5,8.8-14,14.4-20.6c9.3-10.9,14.5-23.9,10.7-39.3c-2-7.9-2.7-16.3-2.4-24.5c0.5-13-5.1-22-16-28.1
		c-2.6-1.4-3.4-2.9-3.3-5.7c0.1-3.2-1.5-7.4,0.1-9.3c1.6-1.9,6-1.6,9.1-2.3c2.5-0.6,5.1-1.1,7.5-2c4.9-1.7,9-4.2,11.5-9.2
		c4.3-8.9,9.6-17,17.7-23.2c3.1-2.4,5.1-6.4,7.8-9.5c4.8-5.6,9.5-11.4,14.8-16.6c2.2-2.1,5.7-3.1,8.8-3.9
		c9.7-2.6,16.3-9.2,21.6-17.1c3.1-4.7,7.3-6.9,12.2-8.3c6.2-1.9,12.5-3.5,18.8-5.4c1.5-0.5,2.8-1.7,4-2.8c7.4-7,13.9-6.5,20.3,1.4
		c3.5,4.3,7.5,7.4,13.9,7c4.2-0.3,8.5,1.9,12.8,2.9c4.7,1.2,9.5,2.5,14.2-1.8c4.3,10.1,13.4,14.8,21,21.1c4,3.3,6.6,8.1,10.2,12
		c5.1,5.4,10.3,10.7,15.7,15.7c2.5,2.3,3.4,4.5,2,7.6c-12.3,29.6-24.6,59.3-36.9,88.9c-1.1,2.7-2.2,5.4-3.3,8.3
		c-0.8,0-1.7,0.2-2.4,0c-7.1-1.6-11.5,0.9-14,7.7c-2.2,5.9-5.2,11.6-7.3,17.5c-0.9,2.5-0.7,5.5-0.6,8.3c0.1,9.6,9.7,22.5,18.5,26
		c2.8,1.1,5.4,3.5,7.5,5.9c4.3,5.1-0.1,9.1-2.7,12.8c-3.2,4.4-6.9,8.4-10.4,12.5c-8.1,9.6-19.1,11.1-30.4,9.9
		c-9-0.9-17.8-2.5-26.2,2.2c-0.5,6.9,3.7,12.2,11.4,13.2c6,0.8,10.1,3.6,13.5,8.6c5.9,8.6,13.2,16.4,18.1,25.5
		c6.3,11.8,12.4,23.9,13,37.9c0.2,5.2,3.3,10.3,4.7,15.5c1,3.4,1.5,7,2,10.5c0.7,4.6,4.7,8,9.5,8.1c6.8,0.1,7.1,0.4,5.5,7.1
		c-1.8,7.4-3.5,14.9-5.8,22.2c-0.9,2.9-3,5.6-5.1,8c-3.2,3.7-6.9,7.1-10.5,10.8c-4.4-4.1-9.7-8.8-14.8-13.8c-2.1-2-3.4-3-6.1-0.6
		c-8.6,7.4-17.5,14.4-26.3,21.5c-2.4,2-4.5,4.6-7.2,5.9c-2.2,1.1-5.3,1.6-7.7,1c-11.1-2.8-22.1-5.8-32.9-9.2c-3.1-1-5.6-3.9-8.4-6
		c-0.5-0.4-0.8-1.3-1.3-1.4c-15.1-4.7-26.1-16.1-39.4-23.7c-9.6-5.5-18.7-12-28.5-17c-5.8-3-13.3-2.9-19.1-5.9
		c-8.1-4.3-12.9-1-18.7,4.3c-12,10.9-24.9,21-37.2,31.6C1185.6,600.7,1176.5,608.9,1166.4,617.9z"/>
</g>
</svg>
