<?xml version="1.0" encoding="utf-8"?>
<!-- Generator: Adobe Illustrator 19.0.0, SVG Export Plug-In . SVG Version: 6.00 Build 0)  -->
<svg version="1.1" id="Layer1" xmlns="http://www.w3.org/2000/svg" xmlns:xlink="http://www.w3.org/1999/xlink" x="0px" y="0px"
	 viewBox="0 0 2200 1160" style="enable-background:new 0 0 2200 1160;overflow: hidden; display: inline; width: inherit; min-width: inherit; max-width: inherit; height: inherit; min-height: inherit; max-height: inherit;" xml:space="preserve">
<style type="text/css">
	.st0{fill:#8FD4EB;stroke:#000000;stroke-width:3;}
</style>
<g>
	
	<path onclick="modals(this.id);" id="2277" class="st0" d="M713.4,1015.8c-2-10-2.3-20.6-9.5-28.5c-4.8-5.2-10.6-9.6-16.3-14c-4.9-3.8-5.8-5.6-4-11.6
		c2.1-6.7,4.2-13.3,6.3-20c2.8-8.8,0.2-17-4.3-24.3c-3.7-6-4.9-12-4.7-18.7c0.3-11.1,0.8-22.2,0.9-33.3c0-5.9,2-10.6,5.2-15.4
		c4.9-7.4,8.6-15.6,12.9-23.3c2.1-3.7,5-6.9,6.8-10.8c3.2-7.2,3.5-14.6,0.6-22.1c-2.9-7.5-1.1-14.8,1.2-22.1
		c7.9-24.9,17.2-49.2,29.2-72.5c4.5-8.7,10.4-16.2,16.8-23.5c5.5-6.3,9.4-13.3,7.8-22.7c4.1-1.3,8.6-2.8,13.1-4.1
		c2.3-0.7,3.4-1.5,3.8-4.2c0.3-2.2,2-4.5,3.7-6.1c4-3.7,6.1-8.2,8.2-13.2c5-12,12.1-22.6,20.9-32.4c7.2-8.1,15.7-11.5,25.8-13.2
		c17.4-2.9,34.6-6.5,51.9-9.8c15.2-2.9,30.3-7.2,45.6-8.4c11.5-0.9,18.9-7.3,27.5-12.9c2.4-1.6,5.6-2.6,8.5-2.7
		c8.7-0.3,17.7-1.4,25.7,2.9c6.7,3.6,13.1,7.9,19.9,12c-4.9,4.7-9.4,9.1-14,13.4c-6.2,5.9-12.6,11.8-18.8,17.8
		c-16,15.5-31.8,31.2-47.8,46.7c-8.8,8.6-17.7,17.1-26.6,25.6c-7.7,7.3-15.5,14.5-23.9,22.5c29.5,20.3,58.3,40.1,87.3,60.1
		c0.6-0.6,1.3-0.9,1.5-1.4c3.5-9.6,5.6-10.9,15.6-11.8c8.3-0.8,16.6-1.9,24.6-4.2c4.3-1.2,8.2-4.7,11.7-7.9
		c6.1-5.6,12-11.5,17.6-17.6c5-5.5,10.7-2.1,16.2-2.2c4,0,8,0,12.1,0c2.5,8.2,6.7,9.8,15.8,8.5c8.7-1.2,17.7-0.6,26.5-0.4
		c2.5,0.1,4.6,1.7,4.2,5c-0.5,4.7-1,9.5-1.1,14.3c-0.1,2.4,0.2,5.1,1.3,7.1c2.8,5.3,5.1,10.4,5,16.7c-0.1,4.1,0.8,8.5,2.2,12.3
		c1.8,5,6.2,6.7,11.4,5c3.7-1.2,7.4-2.6,11-4c4.1-1.6,7.9-3.1,12.7-1.8c3.2,0.9,7.1-0.7,10.5-1.1c2.8,4.4,5.4,9.4,9,13.7
		c2.3,2.8,6.4,4,9.1,6.5c5.3,4.9,10.2,10.3,15.5,15.2c2.3,2.1,5.3,3.7,8.1,5.3c10.9,6,21.8,11.8,32.8,17.7c5,2.7,10.1,5.3,15.5,8.2
		c-5.4,6.5-11,12.5-15.6,19.2c-3.6,5.3-8.6,10.8-5.4,18.4c0.2,0.4,0.1,1.1-0.1,1.5c-5.5,7.8-10.5,16.1-17,22.9
		c-2.7,2.9-8.9,2.1-13.1,4c-6.2,2.7-12.2,6-17.7,9.8c-2.1,1.4-2.1,5.6-4.1,7.4c-3.7,3.4-7.9,6.3-12.3,8.7c-5.7,3.1-6.9,8.8-9.5,13.8
		c-1.8,3.6-3.8,7.2-6,10.5c-0.8,1.2-3,2.8-4,2.5c-4.1-1.4-6.6,2.1-9.6,2.6c-7.7,1.4-12.5,8.1-20,9.4c-1.7,0.3-3.8,1.5-5.2,1
		c-8.2-3-13.7,1.9-19.7,6c-5.1,3.5-10.3,6.9-15.6,10.1c-4.5,2.7-9.2,4.9-13.8,7.2c-1.2,0.6-2.8,0.9-4.2,0.8c-7-0.5-14.1-2.3-21-1.7
		c-15,1.3-30.1-2.6-45.1,2c-5.2,1.6-11.4,0-17.1-0.3c-1.1-0.1-2.4-1-3.2-2c-5.8-6.5-12.5-11.1-21.4-12.4c-8.7-1.3-17.3-3.1-26-4.6
		c-5.2-0.9-9.4,1.7-12.5,5.1c-6.3,7-14.6,10.7-22.8,14.7c-1.5,0.7-3.9-0.2-5.8-0.3c-11.1-0.4-22.4-2.4-33.2,2.5
		c-5.8,2.6-10.7,3.2-15.6-2.7c-4.8-5.8-13.4-6.1-19.7-1.5c-10.7,7.8-21,16.1-31.9,23.7c-4.9,3.4-10.7,5.4-16.1,8.2
		c-5.4,2.8-11.3,4-16.1,8.6c-3.8,3.6-10.1,5.7-15.5,6.4c-5.6,0.7-11.7-1.7-14.9-6.7C726.9,1018.3,720.8,1016.1,713.4,1015.8z"/>
	<path onclick="modals(this.id);" id="2272" class="st0" d="M990.5,462c2.1-0.2,5.5-0.5,8.9-1.1c1.5-0.3,3-1.1,4.5-1.6c-0.7-1.4-1.3-2.9-2.2-4.1
		c-4.7-6.8-10.5-13.2-14.1-20.5c-3.9-7.8-5.8-16.5-8.6-24.8c-0.8-2.3-1.8-4.5-2.5-6.9c-0.9-2.9-2.5-5.5,0.1-8.7
		c1-1.3,0.3-4.5-0.4-6.6c-6.1-18.2-12.2-36.4-18.7-54.5c-1.8-5.1,2.7-6.8,4.6-9.5c9.1-12.6,18.3-25.2,28.2-37.1
		c6.7-8.1,14.7-15.1,22.2-22.6c9.3-9.4,19.2-18.3,27.9-28.2c10-11.4,19-23.2,24.2-38.2c3.9-11.4,11.6-21.5,17.4-32.2
		c1.8-3.3,3.2-6.8,5-10.1c1.1-2,3-3.7,3.7-5.8c1-2.8,1.2-6,2.4-8.1c2.1-1.7,4-4,6.4-4.9c2.2-0.8,5.5-0.9,7.5,0.2
		c14.7,8.1,29.7,15.7,46,19.7c10.9,2.7,22.3,3.2,33.3,5.8c6.5,1.6,12.9,4.5,18.4,8.4c7.9,5.6,14.8,12.5,22.2,18.8
		c4.7,4,7.4,9,9.1,14.8c1,3.4,2.4,6.7,3.7,10.1c3.4,8.4,10.9,11.5,18.7,13.6c3.8,1,5.6,2.2,6.7,6.2c5.7,21.7,11.8,43.3,17.8,64.9
		c0.4,1.6,0.9,3.2,1.1,4.8c0.8,7.2,4.8,12.5,9.6,17.6c2.3,2.4,4.3,5.6,5.2,8.8c4.3,16.5,15.8,26.7,32.6,27.8c2.5,0.2,5-1.5,7.6-2.3
		c1.6-0.5,4-1.9,4.9-1.3c6.1,4.7,13.1,2.1,19.7,2.8c0.9,0.1,1.8,0.1,2.7,0.1c-3.7,2.7-7.4,5.2-10.8,7.9
		c-7.4,5.9-11.1,13.9-13.4,22.8c-1.6,6.1-4.9,11.6-4.4,18.4c0.2,2.2-3.4,4.9-5.6,7.1c-2.1,2.1-4.6,3.8-6.7,5.8
		c-11.7,11.3-23.3,22.7-35.1,34c-2.1,2-4.7,3.5-7.3,4.9c-22.1,11.7-44.3,23.2-66.4,34.9c-21.8,11.5-43.6,23.2-65.5,34.5
		c-9.3,4.8-18.7,9.5-28.5,13.1c-3.5,1.2-8.3-1.1-12.4-2c-2.8-0.6-5.5-1.6-8.3-2.5c-0.8-0.2-1.8-0.3-2.2-0.9
		c-4.1-4.8-9.7-3.7-14.9-4.1c-12.7-0.8-25.4-1.6-38.1-2c-6.3-0.2-12.5,0.6-18.8,0.9c-1.1,0.1-2.6,0.2-3.4-0.4
		c-6.1-4.5-14.3-8.3-23.1-10.6c-1.1-0.3-2.6-0.6-2.9-1.4c-2.3-5.9-4.3-11.8-6.3-17.8c-0.5-1.5-0.2-3.5-1.1-4.7
		c-4.5-5.9-2.6-12.2-1.8-18.5C989.7,472,990,467.3,990.5,462z"/>
	<path onclick="modals(this.id);" id="2273" class="st0" d="M1288.6,457.9c18.9,20.6,37.7,41.1,56.6,61.8c-5.2,7.1-10.1,14.1-15.4,20.9
		c-1.8,2.2-4.4,4.1-7,5.4c-14.3,7.2-28.5,14.4-43.1,20.9c-5.6,2.5-11.9,3.2-17.7,5.2c-10.4,3.5-20.2,8.3-25.2,18.8
		c-2.1,4.4-2.8,9.5-3.7,14.4c-2.1,10.4-3.5,20.9-6,31.1c-1.8,7-5.2,13.7-7.4,20.6c-0.9,2.7-0.6,5.9-1,8.8
		c-1.2,10.8-8.7,17.9-14.8,25.9c-4,5.2-7.7,10.6-11.7,15.7c-0.9,1.2-2.7,2.4-4.2,2.4c-21.3,0.2-42.7,0.3-64,0
		c-5.9-0.1-11.8-2.4-17.8-2.7c-6.4-0.3-12.9,0.3-19.3,0.9c-6.3,0.6-8.9-0.9-11.2-6.9c-0.4-1-1.1-1.9-1.9-3.2
		c-6.8,3.1-13.6,1.7-20.5,0.2c-4.8-1-8.2,1.7-11.3,5.2c-8.7,9.6-17.3,19.7-29.9,23.9c-8.3,2.7-17.2,3.5-26,4.6
		c-7,0.9-12.8,2.6-14.1,11c-27.2-18.7-54-37.2-81.6-56.2c7.5-7,14.5-13.6,21.4-20.1c0.6-0.6,1.2-1.1,1.8-1.7
		c14.5-14.2,29-28.4,43.5-42.5c18.8-18.3,37.5-36.7,56.8-54.5c6.1-5.7,13.1-10.3,15.7-18.7c0.4-1.4,0.9-3.2,0.5-4.5
		c-1.1-3.7-2.7-7.3-4.4-11.7c13.5,0,26.5-0.1,39.4,0c4.3,0,8.5,1.1,12.8,0.9c10-0.3,18.9,3.3,27.8,6.9c4.2,1.7,8.6,2.9,13.1,4
		c1.3,0.3,3,0.1,4.3-0.5c7-3,14.2-5.9,21-9.4c31.5-16.5,62.8-33.3,94.2-50C1255,476,1271.7,467,1288.6,457.9z"/>
	<path onclick="modals(this.id);" id="2275" class="st0" d="M1452.5,674c-7.1,5.4-14.2,10.6-21,16.1c-3.5,2.9-6.4,5.2-11.7,5.3c-9.6,0.2-19.4,1.3-28.5,4.3
		c-7.6,2.5-15.1,6.8-20.4,13.6c-0.5,0.6-1.1,1.5-1.7,1.6c-10.3,1.2-18.9,8.3-30.1,7.6c-6.4-0.4-12,5.3-15.1,11.3
		c-2.7,5.2-7.1,10.4-4.3,17.3c0.4,1.1-1,3-1.7,4.4c-2.8,5.5-5.5,11-8.4,16.4c-5.5,10-10.8,20.2-17.1,29.7c-2.5,3.7-7.4,5.8-11.2,8.8
		c-2.4,1.9-5,3.8-7,6.1c-3.3,3.8-6.3,7.9-9.5,12.1c-16.5-8.8-32.2-17.4-48.2-25.5c-6.2-3.2-10.6-7.9-15.2-12.8
		c-5-5.4-11.3-9.5-17-14.1c-1.5-1.2-3.2-2.3-4.5-3.8c-2.9-3.5-2.4-5.3,1.7-7.1c6.8-2.8,7.6-5.6,3.6-11.7c-3.3-5-6.7-9.8-11.1-16.2
		c3-4.6,6.8-10.9,11.1-16.7c6.8-9.2,13.9-18.2,20.9-27.3c2.5-3.2,5.1-6.4,7.8-9.5c7.1-8.2,7.2-18.5,9.4-28.3
		c1.1-5.2,2.8-10.5,5.4-15.1c5.8-10.3,5.9-21.6,7.4-32.7c1.5-11.2,3.9-21.9,14.9-27.5c7.3-3.7,14.7-8.3,23.7-7.1
		c1,0.1,2.2-0.4,3.2-0.9c8.6-4,17.2-7.9,25.7-12.2c6.9-3.5,13.2-8.4,20.3-10.9c8.3-2.9,11.7-9.9,16.2-16c8.3-11.5,8-11.5,21.8-7.8
		c31.7,8.7,63.4,17.2,95.1,25.8c2.4,0.6,4.8,1.1,7,2.1c1,0.5,2.2,2.2,2.1,3.2c-2.2,18.5-4.6,37-6.8,55.6
		c-1.6,13.7-2.7,27.5-4.1,41.2C1454.2,660.1,1453.3,667.1,1452.5,674z"/>
	<path onclick="modals(this.id);" id="2271" class="st0" d="M971.4,398.3c10.2,19.6,10.7,43.1,28.9,59.4c-4.1,0.5-7.4,1.1-10.6,1.3
		c-2.8,0.1-4.8,1.6-3.5,3.9c3.6,6.5,0.4,12.6-0.6,18.6c-0.7,4.4-1.1,8.3,1.5,12.2c0.8,1.2,1.8,2.7,1.7,4c-0.8,7.8,3.5,13.8,6.6,20.3
		c0.7,1.3,1.9,2.8,3.2,3.3c6,2.4,12.2,4.6,18.3,6.8c0.6,0.2,1.7,0.1,1.8,0.5c2.8,6.2,6.4,12.3,7.7,18.8c0.6,3.1-3.1,7.2-5.2,10.6
		c-0.4,0.6-2.9,0.4-4.1-0.2c-7.1-3.9-13.9-8.5-21.2-12c-9.6-4.5-20.2-2.8-30.3-2.4c-3.1,0.1-6.3,3.2-8.9,5.5
		c-8.1,7.3-18.2,9.2-28.3,11.2c-11.7,2.2-23.5,4.2-35.2,6.3c-15.2,2.8-30.4,5.8-45.6,8.7c-7.9,1.5-15.8,2.6-23.6,4.1
		c-1.7,0.3-3.6,1-4.8,2.2c-14.1,12.8-24.7,28-31.9,45.6c-1.3,3.2-3.7,6.1-5.8,8.9c-1.9,2.5-5.2,4.1-4.9,8.2c0.1,0.9-2.1,2.4-3.5,2.9
		c-3.2,1.2-6.6,1.9-10.6,3c1.2-8.3,2.2-16.2,3.5-24.1c1.9-11.9,3.9-23.8,5.9-35.8c1.9-11.4,3.9-22.9,5.6-34.3
		c1.6-10.3,2.9-20.7,4.3-31.1c0.1-0.6-0.5-1.2-0.6-1.8c-0.8-4.9,0.3-8.7,3.2-13.3c6-9.5,10.5-20,15.5-30.2
		c3.1-6.4,5.5-13.2,8.8-19.6c5.8-11.1,11.5-22.3,18.1-33c6.8-11,17.5-16.8,30.2-18.6c5.2-0.7,10.6-0.2,15.9-0.6
		c8.3-0.6,13.7-6.4,19.4-11.4c4-3.4,7.9-7,12.2-9.9c7.6-5.2,15.7-4.6,23.5-0.5c4.3,2.3,8.5,4.9,12.5,7.6c5.9,3.9,11.6,8.2,19.1,7.6
		C964,400.5,968,399.1,971.4,398.3z"/>
	<path onclick="modals(this.id);" id="2274" class="st0" d="M1290.9,456.5c14.6-14.2,28.7-28.5,43.5-42.1c4.7-4.3,8.3-7.5,5.9-14.4
		c-0.6-1.7,1.8-4.3,2.7-6.5c2.6-6.2,4.4-13,7.9-18.6c3.8-6.1,8.2-12.3,16.2-13.8c0.6-0.1,1.3-0.3,1.8-0.6c5.2-4.5,7.4-4.3,12.5,0.5
		c9.6,9.1,18.6,19.2,29.3,26.7c7,4.9,16.6,5.9,25.2,8.3c1.3,0.4,3.4-0.9,4.6-2c5.2-5,10.3-10.1,15.4-15.3c1.5-1.5,2.8-3.2,4.7-5.4
		c3.8,2.9,7.9,5.9,11.9,9.1c4.4,3.5,8.4,7.4,12.9,10.6c5.5,3.9,3.1,10,4.4,15c2.8,10.6-2.5,19.4-7.3,28.4
		c-7.8,14.7-15.6,29.6-21.7,45c-2.1,5.2-0.7,13.1,1.9,18.5c4,8.6,3.7,17.5,4.6,26.3c0.1,1.3-0.5,3.2-1.4,4.1
		c-6.2,5.3-3.7,11.5-2,17.6c0.1,0.5,0,1,0,1.5c0,0.1-0.2,0.3-0.7,0.9c-6.9-1.8-14.1-3.7-21.2-5.6c-11.8-3.1-23.6-6.2-35.3-9.5
		c-10.1-2.9-20.1-6.3-30.3-9.1c-7.3-2-15.1-2.9-22.2-5.5c-4.5-1.6-8.8-4.9-12.3-8.2c-5.1-4.9-9.3-10.6-14.1-15.8
		C1315.6,483,1303.3,469.8,1290.9,456.5z"/>
	<path onclick="modals(this.id);" id="2276" class="st0" d="M1176.4,764.5c-1-4.9-3.5-5.2-7-3.5c-3.6,1.7-7.1,1.9-11.2,0.5c-2.4-0.9-5.9,0.9-8.8,1.8
		c-3.6,1.1-7,2.6-10.6,3.8c-7.9,2.6-12.6-1.2-11.9-9.7c0.6-8.3-1-15.9-5.8-22.8c-0.7-1-1.2-2.4-1.1-3.6c0.7-6.2,1.7-12.3,2.7-18.7
		c21.4,0,43.1,0,65.5,0c-3.5,4.5-6.7,8.7-9.9,12.9c-1.4,1.8-2.6,3.7-3.7,5.7c-1.4,2.6-3.7,5.3-3.6,7.9c0.2,2.1,3.6,3.9,5.2,6
		c2.9,3.9,5.7,8,8,12.2c0.5,1-0.8,3.6-1.9,4.7C1181,763,1178.9,763.4,1176.4,764.5z"/>
</g>
</svg>
