<?xml version="1.0" encoding="utf-8"?>
<!-- Generator: Adobe Illustrator 19.0.0, SVG Export Plug-In . SVG Version: 6.00 Build 0)  -->
<svg version="1.1" id="Layer1" xmlns="http://www.w3.org/2000/svg" xmlns:xlink="http://www.w3.org/1999/xlink" x="0px" y="0px"
	 viewBox="0 0 4500 2000" style="enable-background:new 0 0 4500 2000;overflow: hidden; display: inline; width: inherit; min-width: inherit; max-width: inherit; height: inherit; min-height: inherit; max-height: inherit;" xml:space="preserve">
<style type="text/css">
	.st0{fill:#8FD4EB;stroke:#000000;stroke-width:3;}
</style>
<g>
	
	<path onclick="modals(this.id);" id="2286" class="st0" d="M2773.9,1392.8c-11.3-7.1-22.3-9-33.7-0.6c-1,0.7-3.3,0-4.9-0.5c-29.3-9.9-58.6-19.9-87.9-29.9
		c-23.6-8-47.2-15.9-70.8-23.9c-32.7-11-65.5-21.9-98.2-32.9c-33.3-11.3-66.6-22.6-99.9-34c-14.5-4.9-28.9-10.1-43.4-15
		c-5.6-1.9-6-7.8-9.4-11.3c-5.2-5.6-6-12.8-7.7-19.6c-1.5-6.1-4.7-10.9-8.3-15.8c-4.8-6.7-8.8-14-13.3-20.9
		c-1.7-2.7-3.7-5.6-6.2-7.2c-9.4-6.1-14.2-16.1-21.5-23.9c-7.6-8.3-7.8-18.7-9.9-28.6c-0.8-4-0.9-8.2-2.2-12
		c-0.8-2.4-2.7-5.2-4.9-6.3c-4.1-1.9-4.8-5.4-5.9-9c-0.8-2.4-1.7-4.8-2.5-7.2c-0.8-2.4-1.3-5.1-2.6-7.2c-2.5-4.1-5.3-8-8.5-11.6
		c-2-2.3-4.8-3.9-7.4-5.7c-6.5-4.3-6-10.9-6.1-17.5c0-2.9-0.1-6.1-1.4-8.6c-2.4-5-5.4-9.7-8.7-14.2c-1.5-2.1-4-4.5-6.3-4.9
		c-8.5-1.5-10.2-7.7-11.5-14.6c-1.3-7-2.4-14.2-4.3-21.1c-1.7-6.2-1-10.7,3.8-15.8c3.1-3.2,2.7-9.5,4.5-14.2
		c5-13.6,2.2-27.4,1.2-41.1c-0.6-8.7-0.1-17.5-0.1-26.3c2.2-0.1,8.4,4.4,9.9,7.4c1.1,2.1,2.4,4.6,4.3,5.8c17.9,11.6,36,23,54,34.5
		c6.5,4.1,13.4,7.6,19.3,12.5c5.2,4.2,11.4,6.2,16.9,9.6c5.7,3.5,11.7,6.5,17.4,10c1.4,0.8,2.6,2.6,3,4.2c1.6,6.6,2.8,13.4,4.2,20.1
		c1.3,6.3,7.6,7.7,11.4,11.5c4.6,4.6,11,4.6,16.9,5.1c13.3,1,26.7,1.3,40.1,2.2c1.9,0.1,4.1,1.7,5.4,3.3c2.5,3.1,5.5,5,9.3,4.5
		c9.1-1.1,18.2-2.2,27.1-4.2c15.8-3.6,31.5-8.1,48-6.8c5.7,0.4,11.5-0.6,17.3-0.9c5.5-0.3,10.8-0.3,15.3,3.9
		c1.2,1.1,3.8,1.2,5.6,1.1c13.1-1.2,26.1-2.5,39.2-4c1.2-0.1,2.4-1.3,3.3-2.3c5.6-5.9,11.3-11.9,16.7-18c4.8-5.4,9.2-11.1,13.8-16.7
		c7.5-9.1,14.9-18.3,22.5-27.4c8-9.8,16.4-19.3,24.1-29.3c3.3-4.3,5.4-9.6,8-14.6c6.7-12.9,13.1-26,20-38.7
		c6.7-12.3,13.5-24.7,21.4-36.2c2.6-3.8,8.7-5.6,13.6-7.2c13.2-4.3,23.8-12.7,34.7-20.8c9.2-6.8,18.6-13.2,27.8-20.1
		c3.9-3,7.3-6.7,11.1-9.8c7.3-5.8,15.5-10.2,24.8-10.7c15-0.9,25.1,9.1,25.5,24.3c0.1,3.7,0.3,7.4,0,11c-0.6,7.8,4.3,12.1,10.1,15.5
		c11.8,6.9,23.7,13.5,35.7,20c7,3.8,14.2,7.3,21.2,11.1c5.6,3.1,11.1,6.3,16.4,9.8c1.3,0.9,2.6,3,2.5,4.5c-0.1,4.2-1.1,8.4-1.3,12.7
		c0,2,0.8,4.3,2.1,5.8c0.7,0.8,3.6,0.7,4.6,0c9.4-6.9,20-11.3,31.2-13.3c8.4-1.5,13.2-5.9,16.9-12.9c1-1.8,4.3-3.4,6.5-3.3
		c16.1,0.6,32.3,1.6,48.5,2.5c-0.4,4.9-1.2,10.9-1.5,16.9c-0.8,16.2-1.2,32.4-2.1,48.6c-0.4,6.7-2.4,13.2-2.8,19.9
		c-0.3,6.4-0.1,13,1.2,19.3c2.4,11.4,6.1,22.6,8.5,34c1.7,8,3,16.3,2.9,24.4c-0.1,9,0,18,3.3,26.3c4.1,10.2,9.7,19.3,21.2,22.9
		c1.2,0.4,2.7,1.1,3.1,2.1c5.7,11.6,15.2,19,26.6,24.3c6.7,3.1,9.9,7.5,7.2,15.3c-0.7,2,0.2,5,1.3,7.1c3.5,6.5,1.6,12.9,1,19.6
		c-0.7,8.3-0.3,16.9,0.7,25.2c0.5,4.2-1.4,6.8-3.1,9.7c-2.4,3.9-4.8,8.1-8.3,10.8c-3.4,2.6-8.1,3.4-12.3,4.9
		c-1.5,0.5-3.3,0.5-4.8,1.1c-7.3,2.9-14.3,1-21.3-1.3c-7.3-2.3-14.5-4.8-22-6.6c-5.8-1.5-11.9-2.7-17.8-2.9
		c-10.5-0.5-20-4.2-29.7-7.6c-8.9-3.1-18-5.9-27.3-7.3c-11-1.7-21,3.7-31.3,7c-8.9,2.8-17.2,6.7-24.4,12.8
		c-6.4,5.4-11.8,11.5-14.3,19.7c-0.9,2.9-1.5,5.9-6,5.5c-1.4-0.1-4.4,2.8-4.4,4.3c0,5.3,0.1,11,1.9,15.9c2.2,6.1,1.1,11.3-1,16.9
		c-2.9,7.6-5.3,15.3-8.2,22.8c-2.7,6.9-4.5,13.9-5,21.3c-0.1,0.7-1.2,1.3-1.8,1.9c-3.4,3.6-7.2,6.9-10.1,10.9
		c-7.1,10.1-5.1,24.1,4.1,32.6c6.5,6,7.4,9.3,3,16.7c-3.4,5.7-6.3,11.7-9.8,17.4c-0.9,1.4-3.1,2.1-4.9,2.9c-2.8,1.3-6.5,1.8-8.5,3.9
		c-3.3,3.4-7.3,4.8-11.5,6.1c-7.8,2.4-15.5,4.9-23.2,7.4c-0.5,0.1-0.9,0.6-1.3,0.6C2780.6,1379,2776.7,1384.9,2773.9,1392.8z"/>
	<path onclick="modals(this.id);" id="2281" class="st0" d="M2976.6,353.7c-2,5.7-4.7,12.2-6.7,18.8c-3.2,10.4-5.5,21.1-9.1,31.4
		c-1.7,4.9-3.1,10.8-9.6,12.8c-1.7,0.5-3.4,3-4,5c-1.4,4.3-2.8,8.8-3,13.3c-0.5,10,3.6,14.4,13.9,15.6c-0.1,2.4-0.2,4.8-0.4,7.2
		c-0.2,2.1-0.5,4.2-0.6,6.4c-0.4,7-0.7,13.9-0.9,20.9c0,0.8,0.4,1.6,0.5,2.4c1.1,9.4,2.3,18.8,3.4,28.3c0.2,1.3-0.2,2.8,0.3,4
		c2.6,7.3,5.3,14.5,8,21.7c-7.6,5.8-7.9,14.2-9.3,22.1c-2.7,15.8,8.1,24.4,18.1,33.2c3,2.7,6,5.5,9.5,7.4c4.2,2.2,8.9,4.2,13.6,4.9
		c3.7,0.5,6.3,2.1,9.2,4c7.3,4.7,15.6,8.3,22.2,13.9c6.6,5.6,14.8,6.1,21.6,10c5.6,3.2,10.8,6.1,17,7.9c1.7,0.5,2.9,5.8,2.7,8.7
		c-0.5,7.1,2,13.7,6.5,18c7.1,6.9,10.7,14.6,11.7,24.1c0.2,2.5,0.1,4.3-3.3,4.8c-4.2,0.7-7.3,3.2-6.6,8.2c0.6,3.9-1.1,6-4.8,6.5
		c-10.2,1.3-15.2,9.2-21.8,15.7c-7.9,7.8-10.3,18-14.5,27.4c-1.5,3.5-3.2,5.4-7.5,5.1c-8.3-0.5-16.7-0.1-25-0.1
		c-34.9-0.3-69.9-0.6-104.8-1c-25.4-0.3-50.9-0.6-76.3-1.1c-3.5-0.1-7.5-0.5-10.4-2.1c-10.3-5.9-19.9-2.5-29.2,2
		c-5.4,2.6-10.2,6.5-15.1,10c-4.5,3.2-8.8,6.8-13.2,10.2c-12.1,9.2-24.1,18.6-36.5,27.3c-5.8,4-12.6,6.6-19.1,9.7
		c-2.6,1.3-5.3,2.2-9,3.6c4-8.6,7.5-16.3,11.1-24c-5.8-5-13-4.9-19.6-5.4c-7.8-0.5-15.6,0.9-23.5,0.7c-7.2-0.2-14.4-1.4-21.5-2.2
		c-4.6-0.5-9.1-1.3-13.6-1.7c-10-0.8-20.1-0.9-30.1-2.2c-8.2-1.1-12.5,3.7-16.7,9.1c-1.3,1.7-2.3,3.5-4,6.2c-0.4-3.5-0.9-6.1-1-8.7
		c-0.7-14.9-1.4-29.7-2-44.6c-0.1-2.8-1.2-3.4-3.9-3.9c-14.3-2.5-28.6-4.8-42.7-8.1c-8.7-2-15.5-12.4-16.6-21.1
		c-1.3-10.2,0.7-19.7,2.8-29.5c1.3-6,0.7-12.5,1.3-18.7c0.6-6.3,2.1-12.5,2.5-18.8c0.1-2.4-1.4-5.3-3-7.3c-5.6-7.1-6.8-14-2.8-22.7
		c4.3-9.4-1.7-18.9-11.5-21.8c-28.1-8.1-56.1-16.6-84.2-24.9c-5.7-1.7-6.6-7-8.6-11.3c-3.8-8.2-6.7-16.6-13.9-22.8
		c-4.3-3.7-3.3-7.4,1.4-10.9c6.8-5.1,13.4-10.5,20.2-15.6c5.3-4,6.5-10,8.5-15.7c1.6-4.4,3.4-8.8,4.4-13.4c0.5-2,0.2-5.6-1.2-6.5
		c-6-4.2-9-10.3-12.1-16.4c-3-5.8-6.1-10.7-12.7-14c-4.4-2.2-7.9-8.5-9.4-13.7c-4.1-14.1-12.2-26.3-18-39.5
		c-2.1-4.8-4.2-9.6-6.2-14.3c-1.4-3.3,0.6-4.1,3.3-5c21.9-6.9,43.7-14,65.6-20.9c25.9-8.2,51.8-16.4,77.7-24.5
		c18.1-5.7,36.3-11.2,54.5-16.8c4.7,10.3,3.9,10.2,16.7,6.2c21.8-6.7,43.4-13.8,65-20.9c2.3-0.8,3.9-0.7,5.5,1.3
		c1.6,1.9,3.3,3.9,5.3,5.3c13.3,9.4,14.4,23.7,15.9,38c0.7,6.5,1.1,13.1,2.2,19.6c1.1,6.5,5.4,9.1,13.1,6.6
		c15.3-4.9,30.4-10.4,45.6-15.6c1.6-0.5,3.6-0.9,5.1-0.5c3.9,1.2,7.4,0.4,10-2.2c7.6-7.5,16.7-9.5,26.2-6.1
		c6.8,2.4,12.8,0.5,19.2-0.4c3.8-0.5,7.6-0.3,11.3-1c2.9-0.6,5.9-1.9,8.3-3.6c2.9-2.1,4.8-5.5,7.8-7.3c2.9-1.7,6.6-2.7,10-2.9
		c9-0.4,18-0.1,27-0.2c3.1,0,6.1-0.5,9.2-0.5c11.5,0.3,18.5,8.7,26.3,15.4c4.4,3.8,9,5.9,14.6,6c7,0.1,13.9,0.5,20.7-2.8
		c3.6-1.7,8.4-1,12.7-1.2c3.3-0.1,6.8-0.4,10,0.2c3,0.5,5.8,1.8,8.6,3.2C2968.6,349.2,2972.3,351.4,2976.6,353.7z"/>
	<path onclick="modals(this.id);" id="2287" class="st0" d="M2263.3,1154.9c5.5,7,10.5,13.4,15.7,19.8c1.6,2,3.4,4,5.6,5.4c6.7,4.3,10.3,10.6,13.6,17.6
		c2.1,4.4,4.9,8.6,8.3,12c7.5,7.4,8.5,17.3,11.6,26.5c1.2,3.7,3.4,7,5.2,10.4c0.8,1.6,2.1,3,2.7,4.6c2.9,7.9,10.5,8.5,16.8,10.7
		c27.5,9.5,55.2,18.7,82.8,28.1c34.1,11.6,68.1,23.3,102.1,34.9c28.1,9.5,56.2,18.6,84.3,28.1c34.6,11.6,69.1,23.3,103.6,35.1
		c4.6,1.6,9.1,3.4,13.8,5.2c-7.2,5-8.1,9.3-4.5,20.3c-0.8,0.1-1.6,0.5-2.3,0.3c-4.8-1.2-8.2,0.2-9.4,4.9c-1.5,6-2.9,12.1-3.1,18.3
		c-0.3,9.5-3.6,17.5-10.1,24.3c-2.4,2.6-5,5.1-7.6,7.6c-4.7,4.5-6.4,11.2-3.3,16.9c1.2,2.3,4.4,4.8,6.8,4.9
		c12.4,0.3,21.4,7.5,30.9,13.9c-4.4,10.3-1.1,17.9,9.3,22.7c2.1,1,4,3.7,4.7,6c3.6,13.1,6.9,26.3,9.6,40c-5.4-2.5-9.6-1.2-13.9,1.4
		c-2.6,1.6-5.5,3-8.3,4.2c-4.8,1.9-8.9,3.8-15,2.6c-13.8-2.8-25.4,4-30.8,18.4c-0.5,1.4-1.3,2.7-1.5,4.1c-0.5,6-3.5,9-9.6,10
		c-5.3,0.9-9.1,7.6-8.5,12.5c0.9,6.3,4.6,9.8,11,10.4c1.9,0.2,3.8,0.8,5.7,1.2c-0.1,9,5.8,14.8,10.4,21.3c2.5,3.5,5.3,6.7,7.8,10.1
		c3.1,4.3,1.3,12.2-4,15.4c-3.6,2.2-5.8,7.5-7.6,11.8c-1.6,3.8-1.9,8.2-2.7,12.6c-5.4-1.4-11.1-2.7-16.7-4.3
		c-4.1-1.1-7.3-0.6-10.5,2.7c-24.2,25.1-48.7,50.1-73,75.2c-1.2,1.2-2.1,2.6-3.1,3.9c-0.6-0.1-1.1-0.2-1.7-0.3
		c-1.9-6.6-3.5-13.3-5.7-19.8c-2.7-7.9-6.1-15.7-13.8-20c-14.6-8-30-14.8-44.2-23.4c-16.9-10.2-33-21.7-49.4-32.7
		c-11.1-7.4-22.1-15.1-33.4-22.2c-2.7-1.7-6.4-2.3-9.7-2.8c-12.4-1.5-24.8-2.6-37.2-4.1c-14.6-1.8-29.2-4-43.8-5.9
		c-9.3-1.2-18.6-2-27.9-3.1c-3.4-0.4-5.9-1.4-7.6-4.9c-16.5-33.7-33.2-67.2-49.9-100.8c-2.3-4.5-4.8-8.9-7.1-13.4
		c-4.7-9.3-6-9.8-16.2-7.8c-21.1,4.1-42.3,8-63.4,12c-4,0.8-8,1.7-12.4,2.7c0.7-7.8,1.4-15.4,2.2-23.1c0.8-7.3,2-14.6,2.8-21.9
		c1.4-13.4,2.7-26.8,4-40.2c0.5-5.3,0.7-10.5,1.1-15.8c1-16.6,1.6-33.3,3.2-49.9c0.9-9.4-2.7-16.2-9.1-22.1
		c-8.7-8.1-7.7-18.3-6.8-28.6c0.2-2.2-0.7-4.5-1.5-6.7c-0.4-1-2.4-2-2.2-2.5c3.1-10.6-9.7-16.6-7.6-26.8c0.1-0.6,0.2-1.5-0.1-2
		c-3.1-4.4-5.4-10-9.6-12.6c-5.1-3.1-6.7-7.7-9.2-12.1c-2.6-4.6-5.5-9.1-7.9-13.8c-3.3-6.5-5.7-13.4-9.3-19.7
		c-4-7-3.1-11.4,3.7-16.4c10.3-7.5,20.1-15.6,31.5-21.6c2.4-1.3,5.1-2.6,6.9-4.6c10.3-11.1,22.8-13,36.9-10c14,3,25-4.2,28-18.4
		c1.8-8.4,9.2-12.4,16.9-8.6c4.5,2.2,8.9,4.4,13.3,6.7c5,2.6,8-0.6,10.8-4C2257.8,1162.5,2260.5,1158.8,2263.3,1154.9z"/>
	<path onclick="modals(this.id);" id="2284" class="st0" d="M1472.1,826c8,0,15.6,0.1,23.1,0c11.9-0.2,23.9-0.6,35.8-1c9.4-0.3,18.9-0.7,28.3-1
		c18.9-0.7,37.7-1.3,56.6-2c9.6-0.3,19.2-0.6,28.8-1c2.2-0.1,4.4-0.7,7.2-1.1c1.1,10.6,2,20.9,3.1,31.2c1.5,13.3,3.3,26.7,4.9,40
		c0,0.3,0,0.7,0.1,1c1.3,13.9-1.3,10.7,12.3,14.5c30.4,8.5,60.9,16.6,91.4,24.7c5.2,1.4,10.4,2.7,15.6,3.7c2.4,0.5,5.1-0.2,7.5,0.1
		c5.4,0.7,9.1,3.8,12.9,7.7c3.8,3.8,5.5,7.5,5.5,12.8c0,3.1,2.1,5.6,6.3,5.5c10.3-0.2,20.5-0.1,31.2-0.1c-3.3,4.2-6.7,8.7-10.3,13.1
		c-4.2,5.1-9.4,9.5-12.6,15.1c-2.6,4.4-3.1,10.1-4.2,15.3c-0.1,0.6,1.7,2.2,2.8,2.4c7.6,1.2,15.2,2.2,22.9,3.1
		c6,0.8,12,1.5,18.1,2.1c4.9,0.5,9.9,0.3,14.8,1.1c2.4,0.4,4.9,1.9,6.9,3.4c4.8,3.8,10,4.9,16,4.1c3.7-0.4,7.9-0.1,11.3,1.2
		c8.6,3.4,17.2,6.2,26.6,6.1c2.3,0,4.7,0.2,6.7,1c6.2,2.4,9.8-1.6,12-5.7c2.4-4.6,3.7-10,4.2-15.2c0.7-7.3,6-12.9,13.2-13.2
		c6.7-0.3,13.4-1.7,20.1-1.8c9.3-0.2,18.4,0.1,27.7-1.7c5.8-1.1,12.5,1.7,18.7,2.9c0.9,0.2,1.9,1.4,2.3,2.4
		c1.8,3.7,3.4,7.6,5.2,11.3c1.5,3.2,3.9,6.1,1.6,9.9c-0.3,0.5,1,2.1,1.8,2.9c0.3,0.3,1.3,0.1,1.9,0.1c28.9,0.3,57.9,0.6,86.8,1
		c17.6,0.2,35.2,0.1,52.8,1.3c7.5,0.5,15.2,3.4,19,11.5c1.6,3.4,4.5,6.2,5.6,9.7c1.2,3.7,1.4,7.9,1.3,11.8c-0.1,6.4,1.5,11.7,7,15.7
		c4.3,3.2,8.1,6.9,12.1,10.4c2.1,1.9,4.5,3.8,2.2,7.1c-0.1,0.2-0.1,0.8,0.1,0.9c4.9,4.8,5.5,11.5,7.8,17.5c0.3,0.7,0.8,1.7,1.5,1.9
		c8.5,3.4,7.6,11.7,9.4,18.4c1.9,7.4,3.4,14.9,5,22.3c0.2,1,0.1,2.5-0.5,3.3c-2.7,3.7-5.5,7.3-8.6,10.7c-3.9,4.2-6.5,3.5-11.3,0.5
		c-5.1-3.2-11-5.5-16.9-7c-4.3-1.1-11.6,7.1-12.5,12.9c-1.8,11.6-13.1,19.2-24.2,16.2c-9.8-2.7-19.4-2.2-28.4,2.2
		c-4.5,2.2-7.8,6.5-12,9.3c-6.1,4-12.8,7.2-18.8,11.4c-8.5,5.9-16.7,12.1-24.6,18.6c-2.4,2-3.7,5.2-1.6,9.2
		c4.6,8.7,7.6,18.4,12.9,26.6c3.5,5.6,6.6,11.1,8.8,17.2c0.5,1.5,1.3,3.4,2.6,4.1c6.3,3.4,8.2,10.6,13.2,15.1c0.8,0.7,1.2,2.3,1,3.4
		c-1.1,5.8,1.7,10,5.1,14.2c4.4,5.4,2.6,12.5-4,14.2c-10.1,2.6-20.3,4.8-30.4,7.1c-6.3,1.5-7.4,2.8-7.8,10.1
		c-5.7-0.4-11.4-0.7-17-1.3c-9-0.9-17.9-1.9-26.9-2.9c-11.9-1.3-23.8-2.7-35.7-3.9c-8.4-0.8-16.7-1.4-25.1-2.1
		c-11.1-1-22.3-1.9-33.4-3.2c-1-0.1-2.6-2.2-2.5-3.3c0.3-3.4,1-6.8,2.1-10c1.1-3.4,3-6.5,4.4-9.8c2.4-5.6,2-8.5-3-11.3
		c-5.8-3.3-12.3-5.2-18-8.6c-6.8-4.1-15.4-7.8-19.1-14.1c-4.2-7.3-9.7-9.6-16.5-11.8c-50.7-16.9-101.3-33.9-151.9-50.8
		c-37.8-12.7-75.8-24.8-113.3-38.3c-14.5-5.2-28-13.3-41.9-20.3c-17.7-8.9-35.2-18.1-53-26.8c-4-2-8.6-3-13.1-3.5
		c-9-1-18.1-1.3-27.1-2.2c-12.1-1.2-24.1-2.7-36.2-3.9c-8.2-0.8-16.4-1.4-24.6-2.1c-7.2-0.6-14.4-1.2-22.7-1.9
		c1.8-5.7,3.6-10.6,4.9-15.7c1.2-5,2.3-10.1,2.7-15.3c0.3-4.7-3-7.3-7.2-8.8c-3.1-1.1-4.5-2.4-2.9-6.1c1.5-3.5,1.8-7.6,2.9-11.3
		c2-6.9,7.1-11.4,13-14.6c10.7-5.8,21.6-11.7,33-16c10.1-3.8,21-5.7,32.1-4.5c4.1,0.4,12.5-6.3,14.1-11.5c2.9-9.5,5.9-19,8-28.6
		c2.5-11.3,4.3-22.8,6.1-34.2c1.9-12.3,3.4-24.6,5.1-36.9c1.3-9.1,1.3-8.9-6.6-13.9c-3.1-1.9-5.5-4.9-8.5-7.1
		c-9.6-7.1-20.4-12.9-28.6-21.3c-6.8-7-10.8-16.8-15.5-25.7C1477.7,840.4,1475.4,833.7,1472.1,826z"/>
	<path onclick="modals(this.id);" id="2280" class="st0" d="M1871,661.5c-5.1-17.4-11.6-34.6-14.9-52.3c-2.7-14.4-11.2-24.7-19.3-35.6
		c-2.1-2.9-1.9-4.6,0-7.3c5.8-8.2,7.2-18.3,8.5-27.6c0.9-6.8,1.5-15.6-4.4-22c-0.3-0.3-0.7-0.9-0.7-1.3c0.8-11.6-7.6-20.2-9.8-30.5
		c9.4-6.7,20.8-6.5,31.5-9.1c3.3-0.8,6.7-2.6,9.3-4.8c3.4-2.8,6.1-6.5,9-9.9c3.6-4.2,0.7-8.9,0-13.1c-0.2-1.4-4.7-1.7-6.7-3.2
		c-2.4-1.8-5.9-4-6.2-6.4c-1-6.7-4.9-10.4-10.1-14.1c-5-3.6-9-8.8-13.5-13.2c-1.6-1.5-3.1-3.3-5-4.2c-7.6-3.8-15.3-7.2-23-10.8
		c-0.9-0.4-1.6-0.9-2.9-1.7c12.3-11.9,24.4-23.5,36.4-35.2c12.2-11.8,24.3-23.6,36.5-35.4c8.6-8.3,17.3-16.5,25.8-24.9
		c2.4-2.4,4.2-3.1,7.5-0.8c5.4,3.8,11.9,5.8,18.1,2.7c6-3.1,11.7-2.3,17.3-0.6c9.4,2.7,16.6-1.3,23.5-6.6c1.7-1.3,3.3-2.9,4.6-4.6
		c2.5-3.5,5.8-4.6,9.9-4.1c1,0.1,2,0.2,3,0c9-1.9,18-3.9,27-6c6-1.4,13.1,2.6,17.7,9.7c6,9.3,12.4,18.3,18.6,27.4
		c5.4,8,13,13.3,22.5,13c4.5-0.2,9.5,0.1,14-1.1c6.4-1.7,7.3-4.2,8.2-10.5c1-7.4,2.9-14.7,5.3-21.7c0.4-1.2,7.1-2.1,8-1
		c6.4,8.4,17.2,11.2,23.9,18.6c7.9,8.7,19.3,9.7,28.8,14.9c3.8,2.1,9.3,1.1,14,1.8c2,0.3,4.1,1.2,5.7,2.4c4.6,3.6,9.8,5.1,15.4,5.5
		c1.5,0.1,3.7-0.3,4.4-1.3c3.4-4.6,8.7-5.7,13.6-7.3c21.2-6.7,42.6-13.3,63.8-20c36.2-11.4,72.3-22.8,108.4-34.2
		c22.2-7,44.4-13.9,66.6-20.8c22.4-7,44.7-14.1,67.1-21c2.6-0.8,5.4-0.7,9-1.1c10.1,24.6,20.3,49.5,30.7,74.8
		c-8.6,2.9-17,6-25.5,8.7c-16,5.1-32,10-48,15c-41.9,13.2-83.8,26.5-125.6,39.8c-6.2,2-6.6,2.1-3.8,8.2c5.7,12.6,11.8,25,17.6,37.5
		c1.7,3.7,2.6,7.7,4.3,11.4c3,6.3,6.3,12.4,9.8,18.5c0.9,1.5,2.8,3,4.5,3.3c4.1,0.8,5.8,3.8,7.6,6.9c3.1,5.6,5.9,11.3,9.4,16.6
		c1.7,2.6,4.6,4.5,6.6,6.2c-2,5.9-4.6,11.2-5.5,16.7c-1.4,8.9-7.7,13.8-13.8,18.9c-4.9,4.1-10.2,7.6-15.2,11.5
		c-3.6,2.7-4.9,8.4-1.7,11.4c8.7,8.1,12.8,18.8,17.5,29.2c2,4.4,4.7,7.3,9.7,8.5c6,1.4,11.7,3.9,18.4,6.2
		c-41,11-81.1,21.6-121.2,32.5c-40.8,11.1-81.5,22.5-122.3,33.7c-22,6-43.8,12.7-66,17.6c-9.3,2.1-19.5,0.3-29.3,0.2
		c-1.3,0-2.6-0.5-3.9-0.5c-35.3-0.4-70.5-0.7-105.8-1c-27.9-0.3-55.9-0.6-83.8-1C1891.5,662.8,1881.2,662,1871,661.5z"/>
	<path onclick="modals(this.id);" id="2279" class="st0" d="M2575.4,806.5c2.9-3.4,6-6.6,8.5-10.3c2.9-4.3,6.2-6.8,11.8-6.3c14.9,1.5,29.8,2.2,44.7,4.2
		c14.3,1.9,28.6,0.7,42.9,1c5.9,0.1,11.8,1.6,19.4,2.8c-9.5,17.2-18.3,33.2-27.1,49.1c-6.8,12.3-13.8,24.4-20.4,36.8
		c-10.7,20.1-22.4,39.5-37.7,56.6c-9.3,10.3-17.5,21.5-26.4,32.1c-8.2,9.8-17.1,18.9-24.7,29.1c-4.7,6.4-10.5,7.2-17.4,7.5
		c-9,0.5-17.9,2.1-26.9,2.7c-2.3,0.2-4.7-1.6-7.1-2.4c-2.4-0.8-4.9-2.2-7.3-2.2c-14.6,0.1-29.3-0.1-43.8,1.1
		c-9.3,0.8-18.4,4.2-27.6,6.1c-8.3,1.7-16.6,3.3-25,4.6c-3.9,0.6-7.5-0.7-10.1-4.2c-3.7-5.1-9.8-4.1-15-4.5
		c-10.7-0.8-21.5-1-32.3-1.1c-9.9-0.1-17.6-5.1-23.9-11.5c-2.9-3-3.1-9.1-3.7-13.8c-0.5-3.6-3.4-7.4-0.3-11.2
		c0.1-0.2-1.3-2.1-2.3-2.6c-32.6-17-63.2-37.4-93.8-57.6c-5.4-3.6-12.2-5.9-16.4-10.6c-5.7-6.4-13.7-11-16.2-20.2
		c-1.3-5-4.2-9.5-6-14.4c-0.8-2-3.3-4-0.5-6.8c0.7-0.7-1-3.8-1.8-5.7c-2.9-8.1-5.9-16.2-8.8-24.3c-1.6-4.4-1.6-8.6,0.7-12.8
		c2.2-4-0.4-15.9-4-18.2c-8.7-5.5-18.3-9.9-20.5-21.7c-2,0.9-3.3,1.3-4.3,2c-5.6,4.1-5.5,4.1-10.2-2c6.1-4.5,12.3-9,18.4-13.6
		c5.2-3.9,10.5-7.6,15.2-12.1c4-3.8,7.3-8.4,10.8-12.7c0.5-0.6,0.7-1.5,0.7-2.2c0.1-6.1,0-12.2,0-18.7c4-0.5,5.3-2.7,2.7-7
		c4.2-0.7,8.8-2.9,11.6-1.5c2.5,1.2,3.1,6.3,4.8,9.7c3,6.2,5.6,12.4,2.6,19.4c-0.3,0.6-0.5,1.8-0.2,2.1c4.4,3.9,8.6,8,13.4,11.3
		c2.6,1.8,5.5,1.3,7.8-2.3c3.2-5.1,10.3-5.3,14.5-1.2c3.8,3.7,8.2,4.4,13.1,2.1c6-2.8,11.8-6,18-8.4c3.7-1.4,8-1.5,11.9-2.5
		c1.1-0.3,2.3-2,2.7-3.3c0.9-3.4,1-7.2,2.3-10.4c0.7-1.8,3.1-3.3,5.1-4.1c7.4-2.9,9-5.8,7.1-13.3c-1.7-6.5,2.3-11.9,8.8-11.8
		c62.9,0.3,125.8,0.7,188.8,1c4,0,5.1,0.8,4.5,5.5c-2.4,18.6,4.7,33.6,24.9,38.4c11.7,2.8,23.8,4.1,35.6,6.3
		c1.2,0.2,2.8,2.3,2.8,3.5c0.6,10.1,0.7,20.2,1.2,30.3c0.4,7.8,1.2,15.6,1.9,23.4C2573.7,805.7,2574.5,806.1,2575.4,806.5z"/>
	<path onclick="modals(this.id);" id="2285" class="st0" d="M2190.3,1020.1c-47.3-0.7-93.6-1.5-140.4-2.2c2.6-5.3-0.8-8.7-3.1-12.6c-1.4-2.4-2.3-5.3-2.9-8
		c-0.6-2.9-6.1-6.5-11.2-7.2c-3.5-0.5-7-1.5-10.4-2.2c-0.7-0.2-1.6-0.5-2.2-0.3c-9.3,3.8-19,2.2-28.6,2.6c-8.7,0.4-17.4,1.1-26.1,2
		c-3.9,0.4-10.3,9.7-10.6,14.4c-0.2,3.4-0.3,7-1.4,10.1c-1.1,3.1-2.9,6.8-5.5,8.3c-2.4,1.4-6.3-0.1-9.6,0.1
		c-11.1,0.6-21.3-2.7-31.3-7.1c-2.9-1.3-7-1.5-10.2-0.6c-6.2,1.7-10.5-1-15.4-3.8c-3.9-2.3-8.7-3.6-13.2-4.3
		c-6.7-0.9-13.6-0.5-20.3-1.3c-9.6-1.1-19.1-2.9-28.7-4.4c-0.2-10.5,6.2-17.6,13-24.7c4.3-4.4,8-9.5,11.5-14.6
		c2.3-3.4,5.1-5.1,8.9-5.1c16.5,0.2,29.9-6.3,40.9-18.2c1.6-1.7,3.2-3.5,5-4.9c2.8-2.2,5.5-3,8.8-0.1c5.6,4.8,18.4,7.6,24.8,5.7
		c-0.8-5.6-1.7-11.4-2.6-17.1c-0.6-4-1.8-8.1-1.7-12.1c0-2.5,1.7-5.1,3.2-7.3c8.4-13.2,16.9-26.4,25.3-39.5c1.4,0.6,2.6,1.1,4.1,1.8
		c3.2-19,6.4-37.7,9.5-56.3c0.2-1.4,0.5-2.9,1-4.3c2.9-8.3-0.7-13.9-6.8-19.2c-5.2-4.5-9.5-10.1-14.3-15.3c3.9-4.4,7.6-8.8,11.5-13
		c9-9.7,18.1-19.3,27-29.1c14.2-15.5,28.3-30.9,42.5-46.5c4.3-4.7,8.4-9.7,12.7-14.5c0.7-0.8,2.4-1.1,3.6-1.1
		c11.3-0.1,22.7-0.2,34,0c12.3,0.2,24.5,0.7,36.8,0.9c2.9,0,4.8,0.8,6.4,3.5c3.3,5.6,7.4,10.7,10.9,16.3c3.2,5.1,3.9,10.5,2.3,16.5
		c-1.6,6.1-2.2,12.5-3.9,18.6c-2,7.2-4.9,14.1-7,21.3c-2.2,7.5,0.9,13.8,4.9,20.5c-0.8,2.3-1.8,5.5-2.5,7.5c5.2,3.9,9.8,7,13.9,10.6
		c2.9,2.6,5.3,3.6,8.6,0.7c0.7-0.7,4.1-0.1,4.2,0.4c2.1,9.2,10.7,11.2,17.1,15.5c4.6,3.1,6.1,12.9,4.1,17.9
		c-1.5,3.9-0.9,9.1,0.2,13.4c2,7.5,5.3,14.7,7.9,22c0.4,1.1-0.5,2.6-0.5,3.9c0,1.4,0,2.9,0.6,4.2c3.5,8.4,7.2,16.7,11,25.6
		c-1.7,0.4-3.3,0.6-4.7,1.3c-1.2,0.5-2.1,1.5-3.2,2.3c1.1,0.7,2.3,1.3,3.6,2.1c0.4,7.8,0.8,15.9,1.3,24c0.5,7.4,2,14.8,1.8,22.1
		c-0.2,6.3-1.7,12.6-3.5,18.7c-1.9,6.5-4.5,12.9-7.4,19.1c-2.9,6.2-0.4,11.7,0.8,17.5C2186.3,1002.6,2188.3,1011,2190.3,1020.1z"/>
	<path onclick="modals(this.id);" id="2283" class="st0" d="M2040.1,668.5c-31.7,34.8-62.9,69-94.7,103.9c5.6,5.7,10.9,11.9,16.9,17.2
		c5.3,4.7,7.2,9.7,5.8,16.8c-3.1,15.4-5.1,30.9-8.4,46.2c-1,4.5-4.9,8.5-7.5,12.6c-8.9,14-18,28-26.8,42.1c-0.9,1.4-1.5,3.5-1.2,5.1
		c1.4,8.8,3,17.6,4.9,28c-3.3-0.9-5.8-1.2-8.1-2.2c-5.2-2.3-10-5.5-15.3-7.1c-5.5-1.6-9.9,1.8-13.2,6c-9.6,12-22.2,17.7-37.3,18.8
		c-11.5,0.8-22.9,2.1-34.4,2.8c-3.4,0.2-6.9-0.4-10.2-1.2c-1-0.2-2.5-2.3-2.4-3.3c1.2-7.6-4.1-11.5-8.4-16.1
		c-4.8-5.1-10.1-7.4-17.3-5.6c-2.4,0.6-5.3-0.9-8-1.6c-23.6-6.3-47.1-12.7-70.6-19.1c-11.9-3.2-23.8-6.8-35.8-9.8
		c-3.4-0.9-4.7-2.9-5-5.6c-1.2-10.8-2-21.6-3.1-32.4c-1.1-10.4-2.6-20.8-3.9-31.2c-0.4-3.6-0.7-7.2-1.1-10.8c0-0.5-0.1-1.2,0.2-1.4
		c4.5-4.7,8.7-9.9,13.8-14c9.4-7.5,19.5-14.3,29.2-21.5c2.6-1.9,4.7-4.4,6.9-6.8c3.3-3.5,6.4-6.4,12.1-5.8c2.6,0.2,6.8-2.3,8.2-4.8
		c3.2-5.7,9.1-5.9,13.7-8.4c3.2-1.8,6.9-3.5,9.1-6.3c6-7.3,14.2-11.4,22-16.1c7.8-4.7,16.5-8.1,24.1-13.1c6.8-4.5,12.7-10.4,19-15.7
		c3.1-2.7,6-5.6,9.3-8.1c1.1-0.9,3-1.1,4.6-1.1c12.7-0.1,25.3,0,38-0.1c4.7,0,8.9-3.8,8.9-8.5c0-5.3-0.6-10.5-1.1-15.8
		c-0.3-3.1-1-6.1-1.8-10c5.4,0.4,10.6,0.9,15.8,1.3c1,0.1,2,0.1,3,0.1c42.1,0.3,84.2,0.6,126.3,1.1
		C2023.9,667.1,2031.6,667.9,2040.1,668.5z"/>
	<path onclick="modals(this.id);" id="2278" class="st0" d="M2187.7,714.7c-3.8,0.2-5.2,1.3-4.1,5.9c1.2,5.1,0.4,10.6,0.4,15.9c0,0.8-0.8,1.7-1.4,2.4
		c-12.2,14-26.6,25.2-42.1,35.2c-1.1,0.7-1.2,0.7-8.1-1.7c0.5-1.3,0.9-2.7,1.5-4c0.6-1.3,1.4-2.5,2.2-3.9c-10.8-9.5-6.4-20.1-2.5-31
		c2.9-8.2,6.1-16.3,6.9-25.4c0.4-5.2,1.7-10.5-0.1-15.1c-2.4-6.1-6.4-11.5-9.9-17.2c-1.4-2.4-3.1-4.6-5-7.5
		c10.8-2.9,21-5.7,31.3-8.5c22.9-6.3,45.8-12.5,68.7-18.8c22.4-6.1,44.9-12.1,67.4-18.2c24.5-6.6,49-13.3,73.4-20
		c22.1-6,44.4-11.6,66.3-18.2c8.3-2.5,14.9,0.9,22.1,2.7c15.3,3.9,30.4,8.4,45.6,12.7c5.7,1.6,10.1,9.8,8.3,15.7
		c-0.5,1.7-1.2,3.4-2,5c-2.9,6.2-1.9,12.1,1.5,17.7c0.1,0.1,0.2,0.2,0.3,0.4c3.4,4.4,5.2,8.9,3.8,14.9c-1.3,5.7-0.6,11.8-1.3,17.7
		c-0.7,7-1.8,13.9-3.1,20.8c-0.2,1-1.8,2-2.9,2.5c-0.8,0.4-2,0.1-3,0.1c-44.5,0-89,0.2-133.5,0c-19.5-0.1-38.9-0.6-58.4-1.1
		c-4.1-0.1-6.8,0.7-7.2,5.3c-0.3,4.1-0.8,8.2-0.9,12.3c-0.1,2.8,0.1,5.9-3.2,6.4c-8.5,1.4-10.8,7.8-11.4,14.7
		c-0.6,5.6-4.2,6.2-8,6.3c-6.8,0.3-12.6,2.5-18.2,6.2c-3.7,2.5-7.6,5.6-12.6,2.9c-0.8-0.5-1.7-0.9-2.5-1.5c-1.8-1.5-4-4.6-5.2-4.2
		c-4.5,1.3-9.9,0.2-13.1,5.1c-2.3,3.6-5.3,3.3-8.2-0.1c-1.9-2.2-4.2-4-6-6.3c-0.8-1-1.9-3-1.4-3.8c3.7-6.9-0.9-12.5-2.9-18.4
		c-0.8-2.5-2.1-4.8-3.1-7.2c-2.6-6.6-2.6-6.6-9.8-4.7c-1.6,0.4-3.1,1-4.7,1.1C2187.1,708.2,2186.1,710.5,2187.7,714.7z"/>
	<path onclick="modals(this.id);" id="2282" class="st0" d="M3035.6,766.1c-0.6,1.8-0.9,3.7-1.7,5.1c-4.6,7.9-5.9,16.5-5.9,25.5c0,1.6-0.2,3.4-0.9,4.7
		c-5.1,9.9-3.5,20.2-1.9,30.4c0.8,4.9-3,11.1-7.9,11c-12.9-0.2-26,0.3-38.8-1.3c-7.9-1-12,0.7-15.7,7.6c-2.4,4.6-7.3,6.6-12.8,8
		c-10.3,2.6-21.1,4.8-29.4,12.5c-1.2,1.1-3,1.4-5.4,2.5c0.7-5.8,0.7-10.9,2-15.6c1.1-4.1-0.7-6.6-3.5-8.2
		c-10-5.8-20.2-11.2-30.3-16.8c-3.3-1.8-6.4-3.9-9.7-5.7c-10.9-6.1-22-11.9-32.9-18.1c-5.8-3.3-10.8-7.3-10-15.5
		c0.8-8,0.4-16.1-3.8-23.5c-0.8-1.4-1.5-2.8-2.7-5.1C2894.9,764.6,2965.1,765.3,3035.6,766.1z"/>
</g>
</svg>
