<?xml version="1.0" encoding="utf-8"?>
<!-- Generator: Adobe Illustrator 19.0.0, SVG Export Plug-In . SVG Version: 6.00 Build 0)  -->
<svg version="1.1" id="Layer1" xmlns="http://www.w3.org/2000/svg" xmlns:xlink="http://www.w3.org/1999/xlink" x="0px" y="0px"
	 viewBox="0 0 4000 2000" style="enable-background:new 0 0 4000 2000;overflow: hidden; display: inline; width: inherit; min-width: inherit; max-width: inherit; height: inherit; min-height: inherit; max-height: inherit;" xml:space="preserve">
<style type="text/css">
	.st0{fill:#8FD4EB;stroke:#000000;stroke-width:3;}
</style>
<g>
	
	<path onclick="modals(this.id);" id="2270" class="st0" d="M2580,1309c-6.3,11.6-12.2,22.6-18.3,33.6c-6.2,11.1-12.5,22.2-18.7,33.3
		c-3.2,5.7-6.2,11.5-9.6,17.1c-5.7,9.4-0.8,13.6,9.3,15.9c1.4,0.3,3,0,4.9,0c0.2,3.7-0.9,8.4,0.9,10.6c5.6,6.6,2.1,11.9-0.6,17.9
		c-4.3,9.4-8.3,18.9-12.4,28.4c-2.2,5.1-1.9,10.1-0.1,15.3c1.7,5.1,2.3,10.5,4,15.6c1.8,5.9,5.3,10.5,10.9,11.3
		c2,3.5,4.4,6.2,5.2,9.3c1,4,1.3,8.3,1,12.5c-0.6,9-1.3,18.1-2.9,26.9c-0.6,3.5-3.2,7-5.8,9.7c-2.4,2.5-6.2,3.5-9,5.8
		c-1.7,1.4-3.2,3.8-3.8,5.9c-2.2,8.5-3.8,17.2-6.1,25.6c-1.7,6.1-4.8,11.3-10.8,14.9c-4.3,2.5-7.4,7-11.3,10.3c-1.7,1.4-3.9,2.7-6,3
		c-4.4,0.8-9.2-0.1-13.1,1.5c-4.8,1.9-9,5.6-13.3,8.6c-4.3,3-8.3,6.4-12.6,9.3c-1.2,0.8-3.2,0.6-4.8,0.6c-21.2,0-42.3,0.1-63.5-0.1
		c-3.7,0-6,1.4-8,4c-5.6,7.6-11.2,15.3-16.7,23c-3.1,4.4-6.8,6.1-12.4,5.4c-4-0.5-8.2,1.2-12.4,2c-0.5,0.1-0.9,0.7-1.3,0.7
		c-1.6,0-4.4,0.3-4.7-0.4c-2.5-5.4-10.6-1.9-12.3-8.6c-2.9-11.2-6.6-13.3-17.9-12.9c-4.8,0.2-8.4-0.5-11.4-5.4
		c-4.6-7.4-12.1-6.5-18.6,1.8c-0.9-1.2-1.9-2.2-2.4-3.4c-5.1-10.7-10.9-21.2-14.7-32.3c-1.4-4,1.9-9.8,3.8-14.6c1.3-3.3,2-5.9-0.5-9
		c-3.2-4-8.2-4.9-11.5-1c-5.1,6-9.6,12.4-14.5,18.5c-1.6,2-3.7,3.6-5.5,5.5c-3.1,3.3-6,6.7-9.2,10c-2.9,3.1-5.9,6.1-9.1,8.9
		c-0.5,0.5-2.3-0.1-3.3-0.6c-16.1-8.4-32.4-16.5-47.9-25.8c-3.9-2.4-5.8-8.7-7.9-13.5c-4-9.2-7.4-18.8-11.3-28.1
		c-0.8-1.9-3-3.5-4.9-4.5c-17.3-8.9-34.7-17.7-52-26.6c-4.6-2.4-9.2-5-14.1-7.8c1.1-1.9,2.2-3.9,3.3-5.8c1.8-3.1,3.7-6,2-10
		c-2.9-6.8-0.7-13.6,0.4-20.5c0.5-3.1,0.3-6.6-0.4-9.6c-2.9-12.1-10-21.6-19-29.8c-0.4-0.3-0.7-0.9-1.1-1c-9-3-10.7-11.1-14.4-18.6
		c-5.2-10.7-8.8-22.4-17.4-31.3c-4.1-4.3-7.1-10.1-11.9-13.3c-6.7-4.5-14.7-7-21.9-10.6c-3.5-1.8-6.5-4.5-9.9-6.6
		c-7.7-4.8-15.5-9.4-23.7-14.3c2.3-7.2,4.7-13.9,6.5-20.8c0.6-2.1-0.4-4.7-0.9-7c-0.3-1.7-1.5-3.5-1.3-5.1
		c1.4-9.8,0.3-23.1-1.3-32.5c-1.9-11.2-8.1-19.5-15.9-26.8c-3.3-3.1-7-6-10.7-8.6c-0.9-0.6-2.7,0.2-4.5,0.4
		c-2.5-4.7-4.8-9.5-2.3-15.7c0.7-1.9-1.7-5-3.2-8.8c1.6-1.5,4.8-4,7.3-7c0.8-1,1-4.1,0.3-4.7c-5.9-4.4-9.8-9-8.7-17.4
		c0.8-6.2-0.3-6.4-7.1-3.6c0.3-1.7,0.6-3,0.7-4.3c0.1-1.5,0.4-3.2,0-4.6c-1.3-4.6-3.9-5.4-8.8-4.5c-5.9,1.1-10.8,3.1-15.1,7
		c-0.2,0.2-0.6,0.4-0.7,0.7c-1.6,6.3-6.4,6.5-11.7,6.8c-1.9,0.1-3.9,3.2-5.2,5.3c-5.5,9.1-9.2,10.2-16.2,4.5
		c-4.5-3.6-10.5-5.2-14.9-8.9c-4.3-3.6-7.5-8.5-11-12.9c-2.9-3.7-5.4-7.8-8.2-11.5c-0.8-1.1-2.2-2-3.4-2.6
		c-4.9-2.1-9.7-4.1-14.7-5.9c-2.5-0.9-4.7-0.6-4.7,2.9c0,3.1,0,6.3,0,9c-6.6-0.4-12.8-0.9-19-1.3c-4.6-0.3-8.1-2.1-10.1-6.6
		c-0.4-1-1.6-1.7-2.6-2.4c-0.6-0.4-1.9-0.2-2.3-0.7c-4.6-6.5-12.6-8.3-18.6-13c-6-4.7-12.6-8.9-19.5-12.2c-5.4-2.5-5.3-6.9-6-11.2
		c-0.5-3.4-0.9-6.8-0.9-10.3c0-1.3,0.7-2.8,1.6-3.9c11.7-14.6,25.3-27,41.8-36c9.8-5.3,19.8-10.2,29.3-16
		c6.1-3.7,12.3-7.7,15.8-14.6c1.1-2.2,4.5-3.2,7.1-5c4.8,7.6,13.2,5.6,18.6,3.7c4.9-1.8,9.5,0.2,14-1.8c3.7-1.6,3.6-5.1,1.9-6
		c-5.5-3.2-4.7-9-7.7-14.1c9.2,0,17.7-0.8,25.9,0.4c3.7,0.5,6.8,5.1,10.3,7.8c1.1,0.8,3.2,2.1,3.9,1.7c4.4-2.9,7.9,0.6,11.7,1.2
		c4,0.6,8.1,1.3,12,0.9c4.6-0.5,5.3-2.8,2.7-7c3.6,1.4,7.6,3.7,9.3-1c0.6-1.7-1.2-4.3-2.3-7.4c1.9-3.8,3.9-9.4,7.3-13.7
		c2.3-2.9,6.9-3.9,10.4-5.8c5.6-2.9,11.2-5.9,13.5-11.7c6.6,8.2,13.6,16.8,20.6,25.5c0.7-0.1,1.4-0.2,2.1-0.4
		c1.4-2.6,2.4-5.5,4.3-7.7c2.7-3.2,5.9-5.9,9.2-8.6c4.7-3.8,10-7,14.3-11.2c4.9-4.8,10.8-3.6,16-2.6c5.9,1.1,10.2,0,14.7-3.8
		c3.6-3,8.2-4.6,12.4-6.8c7.5-3.9,15.4-7.4,22.5-11.9c6.2-3.9,11.6-9.1,17.3-13.8c7.7-6.5,15.2-13.2,22.8-19.7
		c1.1-0.9,2.4-1.7,3.8-2.1c8.7-2.9,17.7-5.4,26.2-8.8c3.2-1.3,5.7-4.6,8.7-7.2c5.3,2.8,11.1,5.2,16,8.9c2.9,2.1,4.6,6.1,6.5,9.4
		c4.5,7.9,8.5,16.2,13.4,23.9c1.6,2.6,5,4.1,7.6,6c5.8,4.2,11.5,8.6,17.5,12.5c5.9,3.9,12.5,6.9,18.2,11.1
		c6.8,5.1,13.1,10.8,19.2,16.7c5.1,5,9.6,10.6,14.3,16c4.4,5.1,8.7,10.3,13.1,15.4c1.9,2.2,3.8,4.2,5.4,5.9c-0.9,1-2.6,2.3-3.5,4
		c-7.1,14.2-13.9,28.5-21,42.7c-1.5,2.9-0.7,4.6,1.4,6.4c8.9,7.9,17.8,15.7,26.6,23.7c1.2,1.1,2.3,2.4,3.1,3.8
		c3.3,5.4,6.9,6.1,12,2.4c6.5-4.8,12.5-10.6,19.7-13.9c14.7-6.8,29.2-5.5,43.2,3.3c11.4,7.1,15.5,17.5,17,30
		c0.7,5.6,3.1,10.9,4.8,16.4c-5,5.5-10.1,11.1-15.3,16.7c-8.5,9.2-17.2,18.4-25.5,27.8c-1.2,1.4-1.9,4.4-1.3,6.1
		c4.1,11.4,11.7,19.1,24.1,21.4c1.4,0.3,2.9,0.8,4,1.6c6,4.6,12.5,4.7,19.6,3.2c4.8-1,9.8-1,14.8-1.1c6.3-0.2,11.6-1.8,16.3-6.7
		c4.7-4.9,10.5-8.9,16-13.1c2.9-2.2,5-1,5.6,2.4c1.8,9.6,3.3,19.3,5.1,28.9c0.6,3.5,2.2,6.9,2.4,10.4c0.5,8,0.5,16,0.5,24
		c0,2.9-0.8,5.9-0.8,8.8c0,3,1.4,5.1,4.7,5.9c1.9,0.4,4.5,1.1,5.3,2.6c3.8,6.7,11.1,6.2,16.9,8.7c5.8,2.5,11,5.4,14.2,11.3
		c1.4,2.7,4.2,4.6,6.8,7.5c3.3-4.4,6.4-8.6,9.5-12.6c0.9-1.2,2.1-2.3,3.4-3c8.7-5.3,19-3.4,28.4-5.7c4-1,8.6,0.1,12.8,0.8
		c9.4,1.5,17.9-2.3,26.7-4.5c0.8-0.2,1.6-0.5,2.3-0.6C2577.8,1308.9,2578.5,1309,2580,1309z"/>
	<path onclick="modals(this.id);" id="2266" class="st0" d="M2006.3,991.7c-12-6.7-24.2-13.4-36.2-20.3c-1-0.6-1.9-2.1-2-3.3c-0.5-7.4-0.9-14.9-1-22.3
		c0-2.7-0.8-4-3.5-4.9c-20.1-6.5-40.3-12.9-60.1-20.3c-4.9-1.8-8.9-7.1-12.5-11.4c-2.8-3.3-4.1-7.7-6.6-11.3
		c-5.5-7.9-14.5-9.5-23.4-3.8c-3.4,2.2-4.8,0.9-7.5-0.9c-2.9-2-6.8-2.7-10.3-3.6c-8.6-2.3-17.3-4.5-26-6.7
		c-7.4-1.9-8.6-1.1-13.2,4.9c-3.4,4.4-6.5,9.8-15.3,8.9c2.9-4,5.1-7.2,7.4-10.3c2-2.8,4.3-5.3,6.2-8.2c2.9-4.4,1.6-7-3.7-7.2
		c-8.9-0.4-17.9-0.6-26.8-1.1c-4.6-0.2-9.3-0.3-13.7-1.2c-1.6-0.3-2.7-3.1-4.8-5.7c-0.6-0.1-2.6-0.3-5-0.6
		c4.6-4.8,2.4-13.7-2.8-15.3c-3.7,6.7-7.4,13.4-11.1,20.2c-0.8-0.3-2.1-0.9-3.5-1.4c-5,4.8,3,6.8,2,11.2c-1.9-0.5-3.8-1.1-6.8-1.9
		c0.3,5,0.6,9.6,0.9,14.1c-9.3-6.5-9.9-11-3.5-20.4c1.7-2.5,2.1-6,2.6-9.2c0.6-3.7,0.7-7.5,1-10.5c-6-1.4-11.6-2.9-17.3-4
		c-1-0.2-2.6,0.4-3.4,1.2c-4.1,3.7-8.6,6.5-13.3,9.4c-4.6,2.8-8.7,3.2-13.2,3c-4.4-0.2-6.8,2-8.6,5.4c-3.7,7-7.4,14-10.9,21.1
		c-1.8,3.5-7.2,5.8-10.8,4.3c-7.7-3.3-11.8-1.8-17.1,4.6c-5,6-10.7,11.1-19.7,10.9c-8.2-0.2-16.4,0.8-24.3,1.3
		c-3.3-5.4-4.3-10-2.5-16c2.4-7.7-1.7-12-9.7-12.4c-0.8,0-1.7,0-2.5-0.3c-1.4-0.6-7-14.2-7-15.8c0.2-6.4,2.5-10.8,9.2-12.5
		c1.1-0.3,2.1-3.2,2.2-4.9c0.1-3.2-0.1-6.7-1-9.7c-0.7-2.2-2.8-3.8-4.3-5.8c-1,1.6-2.5,3.1-2.9,4.9c-0.8,3.7-2.3,5.2-6.3,4
		c-4.1-1.2-7.8,0.4-10.1,3.8c-5.4,7.8-10.3,9.5-19.5,5.5c-5.7-2.5-10.9-4.1-17.6-2.5c-7.6,1.9-15.6,1.7-23.5,2.2
		c-2.2,0.1-4.6-0.3-6.7-1c-4-1.3-7.4-1.4-9.9,2.6c-0.4,0.6-1.3,1.4-2,1.4c-9.2,0.6-15.3,7.1-22.2,12.1c-3.5-9-1-17.4,0.6-25.8
		c0.1-0.6,0.6-1.3,0.6-1.9c-1.1-11.7,6.3-18,14.7-23.7c6.8-4.5,10.1-10.9,10.3-18.9c0.1-5.2,0-5.2-5.6-8.2c2.2-5.8,6.1-9.3,12.5-9.6
		c3.4-0.2,5.9-2.2,6-5.4c0.1-7.3,5.2-12.5,7.3-18.9c1.6-5,0.9-7.9-4.1-9.7c-5.1-1.7-10-3.9-14.9-6.1c-0.9-0.4-1.8-1.8-2-2.9
		c-1.2-5.7-2.1-11.5-3.2-17.3c-0.6-3.5-1-7.1-2-10.5c-0.7-2.5-1.9-5.2-3.6-7.2c-3-3.4-4.8-6.7-3.4-11.4c0.5-1.7,0.5-3.8,0-5.5
		c-1.8-5.6-3.8-11.1-6-16.5c-1.1-2.8-3.4-4.5-6.6-3.2c-7.5,3.1-14.8-0.2-22.2-0.7c-1.6-0.1-3.3-2.2-4.4-3.8
		c-4.1-6.1-10.1-5.4-16-4.8c-5.9,0.6-11.7,2.1-17.7-0.1c-1.5-0.5-3.3-0.2-5-0.1c-6.9,0.3-9.1-1.3-12.1-8.1
		c-1.8-4.3-4.5-7.7-10.1-6.9c-2.6,0.3-5.4-0.2-8,0.1c-7.7,1-12.3-3.6-16.7-8.6c-1-1.2-2.2-2.2-3.3-3.4c-1.7-1.8-4-3.4-4.8-5.5
		c-2.7-7.1-7-12.2-14-15.7c-4.9-2.4-9.2-6.1-13.8-9.2c-0.9-0.6-1.8-1.6-2.8-1.8c-5.6-1.1-7.4-5.8-10-9.9c-1.4-2.3-3.2-4.9-5.4-6.3
		c-9.3-5.7-12.3-15.2-16-24.5c-3.9-9.7-9.3-19.1-19.9-22.1c-5.7-1.6-7.2-4.4-9.2-9.2c-5.3-12.1-11.7-23.8-17.8-35.5
		c-1.3-2.4-3.3-4.4-5.1-6.6c-5.2-6.5-6.4-14-6.1-22.2c0.3-8.4-0.4-16.9-1-25.3c-0.2-2.1-1.2-4.6-2.6-6.2c-3.7-4-7.9-7.6-12.2-11.8
		c7.9,0.6,15.1,1.1,22.3,1.8c5.9,0.6,11.7,1.3,17.5,2.4c6.7,1.3,10.5-2.4,8.9-9c-0.2-0.8-0.3-1.6-0.8-2.3c-4.9-8-2.6-16.5-2.1-25
		c0.7-12.2-2.5-23.6-9.4-33.8c-2.1-3.1-1.4-5.1,0.2-7.5c1.4-2.2,3.3-4.2,4.1-6.6c1.2-3.7,1.7-7.6,2.4-11.1c5.5,3.5,10.4,9,14.9,15.5
		c8.8,12.7,18.3,25.5,34.5,29.5c9.7,2.4,19.8,3.4,29.8,4.9c5.9,0.9,11.7,1.7,18.1,2.5c-7.8,13.4-7.1,20.4,2.2,31.7
		c0.8,1,1.2,2.3,1.6,3.5c1.9,5.6,3.9,11.3,5.7,17c1.3,3.8,3.6,5.8,7.8,6.5c2.4,0.4,4.5,2.4,6.6,3.7c4.7,2.9,9,6.9,14.1,8.4
		c3.4,1,7.9-1.3,12.8-2.4c4.9,3.7,7.4,14,18,11.5c1.8,4.1,3.2,8.7,5.8,12.5c8.4,12.4,19.5,20.2,35.4,19.1c7.4-0.5,13.8-3.4,19.7-7.7
		c5.3-3.8,10.2-8.8,16.1-11c4.6-1.7,10.7-1,15.7,0.4c6,1.7,11.3,5.4,17.2,7.7c4.6,1.9,9.5,3.9,14.4,4.3c9.4,0.9,18.9,0.7,28.3,1.3
		c2.8,0.2,5.6,1.4,8.2,2.4c4.8,1.9,9.6,4,14.3,6.2c4.1,1.9,8.1,3.9,12,6.2c1.5,0.9,2.7,2.6,3.6,4.3c3.3,6,8.5,8.8,14.9,11
		c9.8,3.4,19.8,6.6,28.1,13.2c1.9,1.5,4.8,1.6,7.1,2.6c3.1,1.4,6.4,2.6,8.9,4.7c3.3,2.7,5.9,6.2,8.7,9.5c3.7,4.4,8.5,6.9,13.9,8.9
		c5.3,1.9,10.2,4.8,15.4,7.2c1.3,0.6,2.7,1.3,4.1,1.5c11.5,1.9,21.4,7.4,31.1,13.5c3.1,1.9,7.2,2,10.5,3.8c3.1,1.7,6,4.1,8.4,6.8
		c3.2,3.7,5.5,8.1,8.6,11.9c2.9,3.5,6.4,2,9.8,0.4c3.2-1.5,4.1-3.8,3.2-7.2c-1.8-7.1-0.2-8.6,7-9.1c7.6-0.6,15.3-1.4,22.8-3.3
		c4.5-1.1,6.7,0.1,8.8,3.7c3.5,5.7,7.7,10.2,15.3,9.9c1.7-0.1,3.6,2,5.4,3.1c4.8,2.9,9.2,9,15.5,5.5c5.8-3.3,11.9-3.7,17.9-5.4
		c6.9-2,14.5-3.6,19.8-10.2c5.9-7.3,13.5-13.3,19.7-20.5c5.3-6.3,11.9-9.2,19.6-10.7c14.7-2.9,24.1-12.3,30.9-25
		c1.2-2.3,2.8-4.5,4.7-6.2c7.3-6.3,12.7-13.8,16.4-22.8c1.4-3.4,4.4-6.1,6.5-9.2c2.2-3.1,4.5-6.2,6.1-9.6c0.9-2,0.4-4.6,0.3-6.9
		c-0.2-3.5-1.2-6.7,3.4-8.8c2.3-1,3.9-4.6,4.8-7.4c1.8-5.3,2.3-10.6-2-15.5c-1.1-1.2-0.5-4.1-0.4-6.2c0.3-4,0.7-7.9,1.3-11.8
		c0.3-1.9,1.2-3.6,1.8-5.4c2,1.1,5,1.7,5.7,3.3c1.9,4.4,2.4,9.5,4.4,13.8c4.8,10.3,12.7,11.4,20.6,3.6c2.1-2.1,4.3-4.2,6.9-5.6
		c5.2-2.9,8.3-2,10.1,3.6c3.1,9.4,5.9,18.9,7.7,28.6c0.5,2.9-2.5,6.4-4,9.6c-5.5,11.8-1.7,22.9,3,33.5c2.6,5.8,11.2,4.7,15.5-1.7
		c3.2-4.7,5.9-9.8,9.2-14.4c0.9-1.3,3.6-2.6,4.9-2.1c1.3,0.5,2.4,3,2.7,4.7c0.4,2.2,0.3,4.8-0.4,6.8c-3.4,9.3,1.6,15,10.8,14.3
		c3.9-0.3,7.6-1.4,10.9-2c0.8,6,1,12.7,2.6,19c2.3,9,8.3,15.6,15.3,21.6c6.7,5.7,12.9,12.1,16,20.9c1.8,5,4.3,10,11,10.4
		c3.8,0.2,6.2-1.1,8-4.4c2.1-4,11-3.9,13.1,0.1c4.2,8.2,9.3,12.1,20.7,10.2c5.6-0.9,8.9,3,13.5,4c7.6,1.6,15.2,3.5,22.8,5.1
		c4.5,0.9,9.1,1.1,13.4,2.5c2.1,0.7,3.7,3.2,5.4,5c0.5,0.5,0.6,1.5,0.9,2.2c1.8,4.3,6.3,9.8,5,12.6c-2.8,5.9-8.3,10.5-13.2,15.2
		c-4.7,4.5-9.9,8.5-15.5,13.2c2.1,2,3.9,3.6,5.6,5.2c3,2.9,6.3,5.6,8.9,8.9c2.5,3,2,5.9-0.5,9.6c-5.1,7.5-11.5,13.8-17,20.8
		c-2.6,3.3-5.2,6.7-3.8,12c0.7,2.5-1.6,6.5-3.6,9c-5.8,7.2-5.1,9.5-1.2,17.6c2.7,5.6,5.8,9.4,10.9,12.5c1.6,1,2.6,3.3,3.3,5.3
		c2.4,6.4,2.3,6.4,9.1,10c-4,2.3-7.7,4.4-11.4,6.4c-8.6,4.7-17.3,9.3-25.9,14c-4.9,2.7-8-2.1-12.1-3c-1.5-0.3-2.6-1.9-4-2.7
		c-2.5-1.4-4.8-2.3-8-0.5c-2.5,1.5-6,1.3-8.9,2.2c-2.2,0.7-5.1,1.4-6.1,3.1c-2.5,4-7.8,7.2-4.7,13.2c0.7,1.4,1.4,2.8,2.2,4.2
		c0.5,0.8,1.8,1.4,1.7,2c-0.7,6.1,3,7.5,9.3,7.7c-1.7,4-2.4,7.9-4.7,10.5c-5.2,6-10.9,11.7-16.9,16.9c-2.9,2.6-6.8,4.5-10.5,5.6
		c-7.6,2.2-14.8,4.2-19.3,11.8c-1.4,2.4-5.5,4.7-8.2,4.6c-7.3-0.5-11.8,4.3-17.1,7.6c-3.1,1.9-11.8,16.4-13.6,19.9
		c-2.1,4-4.9,7.7-7.8,11.3c-4.5,5.5-9,11-14,15.9c-3.3,3.3-4.9,6.3-3,10.8c3.8,8.9-1.2,16.2-4.4,23.8c-5.3,12.4-15,21.4-23.9,31
		C2016.7,980.5,2011.7,985.9,2006.3,991.7z M1835.3,697.2c1.7,7.4,3.2,14.3,5,21.2c0.7,2.9,1.6,5.8,2.9,8.4c0.7,1.5,2.4,3.7,3.6,3.7
		c8.5-0.1,17.2,1.3,23.4-7.7c4.9-7.1,5.7-6.5-0.3-12.5c-0.7-0.7-1.4-1.4-2.1-2.1C1859,699.5,1848.3,696.7,1835.3,697.2z"/>
	<path onclick="modals(this.id);" id="2269" class="st0" d="M1806.1,1181.9c5.1,1.5,10.2,2.1,14.2,4.5c3.7,2.2,6.4,6.2,9.2,9.8c3.5,4.5,6.7,9.3,10.1,13.8
		c0.9,1.2,2.1,2.6,3.3,2.8c7.1,1.4,11.8,6.7,17.5,10.3c6.8,4.2,13.5,2.6,17.5-4.5c0.8-1.4,1.2-3.2,2.3-4.3c1-1.1,2.7-2.1,4.1-2.1
		c4.4-0.2,8.1-1.1,10.3-5.5c3.3-6.4,10.3-10,17.1-8.5c1.1,0.2,2.8,3.5,2.4,4.8c-2.1,7.1-0.9,8.6,6.7,7.5c0,2.2-0.2,4.4,0,6.5
		c0.4,4.4,0.6,8.6,5.9,10.6c2.4,0.9,5.1,3.3,0.7,6.5c-3.1,2.2-5.3,5.8-8.2,9.1c1.8,1.1,3.3,1.8,4.5,2.7c0.8,0.6,1.8,2.4,1.7,2.5
		c-4.5,3.8-1.1,8.1-0.4,11.8c1,4.8,3.4,9.2,5.5,14.7c1.9-2.3,2.9-3.6,4.1-5c8.7,3.9,15.1,10.1,19.3,19c2.8,6,4.5,12.1,4.9,18.7
		c0.4,6,2.2,12.1,1.8,18.1c-0.7,9.9,3,20.3-2.5,29.9c-1.4,2.4-2,5.6-2.1,8.5c-0.1,1.6,1.1,3.9,2.5,4.8c7.6,5,15.4,9.7,23,14.6
		c2.9,1.9,5.4,4.4,8.4,6.1c4.1,2.4,8.4,4.5,12.6,6.7c1.2,0.6,2.3,1.7,3.5,1.7c7,0.1,10.3,5,14.2,9.7c8.8,10.7,14.4,23.1,20.2,35.5
		c2.4,5.1,4.5,10.3,6.8,15.7c-7.4,2.8-15.3,4-23.3,1.7c-8.1-2.3-16.2-4.8-24.1-7.5c-12.7-4.3-25.6-3.5-38.6-2
		c-10.1,1.2-18.9-0.7-26.8-7.8c-8.4-7.5-17.7-14.1-26.7-20.8c-2.2-1.6-5-2.5-7.6-3.3c-4.5-1.4-7.2,1.7-8.3,6.5
		c-3,13.1,3.7,24.1,6.2,36.1c3.6,17.3,14.3,30.3,23.6,44.3c2.4,3.6,3.7,6.6,2.1,10.6c-1.2,2.9-2.1,5.8-3.3,9
		c-6.6-5.4-14-8.4-22.8-5.4c-3.8,1.3-7.8,2.3-11.7,3.4c-13.5,3.6-27,7.2-40.5,10.7c-7.3,1.9-14.7,3.9-22.1,5.5
		c-1.5,0.3-3.7-0.9-5.1-2c-9.1-7.7-17.9-15.6-24.5-26c-2.3-3.6-7.2-5.5-10.8-8.2c-4.1-3-5-7.4-5.1-12.2c0-7.3-6.8-11.5-13.3-8.1
		c-2.6,1.4-4.4,1.5-7-0.2c-2.7-1.8-5.8-3.1-8.9-4c-10.1-3-19.1-7.9-27.8-13.9c-11.5-7.9-24.1-14-36-21.3
		c-10.3-6.3-20.1-13.4-30.4-19.6c-2.7-1.6-6.9-2.7-9.6-1.9c-3.5,1.1-5.6,0.4-7.7-1.7c-9.2-9.3-20.2-8.9-31.7-6.5
		c-4.4,1-8.9,1.9-13.4,2.8c-0.6,0.1-1.4,0.1-1.9,0.3c-5.1,2.3-10.1,4.8-15.3,7c-1.1,0.4-2.6-0.3-5.1-0.6c2.2-2.1,3.6-3.3,5-4.7
		c2.4-2.5,4.7-4.9,7-7.5c4.5-5,9.3-9.9,13.3-15.3c4.7-6.4,9.4-12.9,12.8-20c1.9-3.9,1.1-9,1.5-13.7c1.3-0.4,2.9-0.8,4.3-1.5
		c4.7-2.3,5.7-6.6,2.2-10.5c-1.7-1.9-4-3.4-6-5.1c-2.1-1.8-5.2-3.2-6.2-5.5c-3.2-7.3-8.8-11.9-14.7-16.8c-4.2-3.5-6.9-8.6-10.4-13
		c-5.4-6.7-13.7-8.1-21.2-4c-8.5,4.7-17.1,8.4-27.4,6.1c-4.8-1.1-8.5,3.4-10.4,7.1c-1.2,2.5-0.2,6.9,1.3,9.7
		c1.6,2.9,3.3,4.9,2.3,8.8c-0.9,3.4,0.5,7.2,5.1,8.2c0.9,0.2,1.7,0.8,3.2,2.8c-3.4,1.7-6.7,3.6-10.2,5.1c-9.2,4.1-10.3,6.9-9.5,16.4
		c0.8,8.5-0.1,17,0.2,25.6c0.1,4.4,0.3,9,1.7,13.1c1.5,4.2-1.2,6-2.8,8.5c-1.3,2-3.1,2.1-5.8,2c-4.3-0.2-9.1,1.2-13,3.2
		c-4.1,2.1-7.2,6.2-11.2,8.7c-2.4,1.5-5.7,1.7-8.6,2.3c-0.8,0.2-2.3-0.8-2.7-0.4c-6.3,5.3-16.5,4.4-21,13c-0.8,1.6-4.1,2.1-6.4,2.7
		c-7.4,1.9-8.6,3.2-9.3,10.9c-0.4,3.9-0.7,7.8-1.2,13c-4.3-4.7-8-8.7-11.7-12.7c-2.1-2.3-4-5-6.4-6.8c-4-3.1-8.6-0.7-8.6,4.3
		c0.2,14.4,0.5,28.9,1,43.3c0.2,5.1,0.9,10.1,1.3,15.3c-8.8,2.9-18.2,3.4-23.6,11.6c-4.7-5.8-9.2-10.8-17.3-11.1
		c-7-0.3-5.5-7-6.3-11.3c-0.6-3.4,0-7.2,0.8-10.7c1.7-7.3-1.7-13.6-2.8-20.4c-0.7-4.6-1.4-8.8-5.2-10.5c3.8-9,7.9-17.8,11.2-26.8
		c1.8-4.8,2-9.9-4.2-12.5c-0.3-0.1-0.6-0.4-0.7-0.7c-2.7-7.2-8.6-11.7-14.2-16.3c-0.6-0.5-0.8-1.7-0.7-2.5c0.6-5.8-1.6-8.7-7.7-9.1
		c-13.3-0.8-14.4-9.7-11.8-18.3c0.6-2,1.1-4.2,2.2-5.9c0.6-0.9,2.4-1.5,3.5-1.4c3.4,0.3,6.7,1.3,10.1,1.5c5.9,0.3,11.8,0.5,17.6-0.1
		c2.6-0.2,5.7-1.9,7.2-3.9c0.7-1-1.1-5-2.8-6.4c-8.8-7.4-17.9-14.4-26.8-21.5c-2.2-1.7-4.4-3.5-6.6-5.1c-4.8-3.5-1.4-7.8,0.2-10.4
		c2.7-4.4,7.2-7.7,10.8-11.6c2.6-2.8,5.1-5.8,7.8-8.9c2.2,0.8,4.4,1.9,6.7,2.4c2.2,0.5,5,1.1,6.7,0.2c4-2.2,7.6-1.6,11.3,0
		c4.8,2,7.7,0.2,10.4-4c3.6-5.5,8.5-10.2,12.2-15.7c3.6-5.2,6.7-10.8,9.5-16.5c1.8-3.5,1.9-7.3-1.6-10.3c-3.6-3-5.9-8-12.5-6.8
		c-4.1-8.7-8-17.4-12.4-25.9c-1.3-2.5-3.7-4.5-5.9-6.3c-2.8-2.3-4.9-4.5-2.7-8.3c5.6-9.4,8-20,11.2-30.4c1.1-3.5,4.6-6.2,6.7-9.4
		c1.6-2.4,3.6-5.1,3.9-7.8c0.7-5.5,2-7,7.7-7.2c2.4-0.1,5.1-0.3,7.1-1.4c1.3-0.7,2.6-3.6,2.1-4.9c-4.1-10.9,1.7-18.5,7.6-26.6
		c5.2-7.1,9.8-14.6,14.1-22.3c1.2-2,0.6-5.2,0.5-7.8c-0.3-5.2-0.8-10.5-1.3-16.5c10.9,3.1,20.9,5.9,30.9,8.6
		c5.3,1.4,10.8,3.9,16.1,3.5c7.5-0.5,14.9-2.8,22.1-5.2c7.3-2.4,14.1-2.1,20.9,1.4c4.7,2.4,8.8,1.2,10.3-3.3c0.6-1.7,0.2-4.5-1-5.9
		c-3.1-3.8-6.9-6.9-10.2-10.6c-1-1.1-2-3.3-1.5-4.3c4.2-8.2,0.7-15.4-3.1-22.3c-4.8-8.7-4.9-18.5-7.2-27.7c-1.9-7.7-4.4-15.3-7-22.8
		c-1.5-4.4-3.7-8.4-2.2-13.6c0.6-2-1.4-5.3-3.1-7.2c-8.1-9.2-16.4-18.2-25-26.9c-3.1-3.2-3.2-6.5-2.2-10c1.2-4.4,0-7.5-4.3-8.7
		c-7.7-2.1-15.4-4.9-23.2-5.2c-5.7-0.3-11.6,2.8-18.2,4.6c1.3-5.8,2.9-11.3,3.7-16.8c1.2-8.3,2-16.7-2.4-24.6
		c-3.1-5.5-6.3-10.9-9.5-16.6c2.3,0.5,5.3,1.1,8.2,1.9c0.8,0.2,1.6,1.1,2.2,0.9c6.9-1.5,12.8,1.5,18.5,4.4c3.5,1.8,5.1-0.2,7.2-2.2
		c5.5-5,10.5-10.7,16.8-14.3c4.7-2.7,10.5-3.5,15.3-7c1.5-1.1,5.2,1.3,7.9,1.2c7.3-0.3,14.5-1,21.8-1.6c7.4-0.6,14.4-1.5,22,1.9
		c5.4,2.4,12.8,5,18.6-1.2c1.1-1.2,2.2-2.3,3.1-3.7c2.2-3.2,4.2-5.3,8.9-3.8c2.5,0.8,6-1.6,9.2-2.6c0.3,1.5,1,4.2,1.8,7.5
		c-9.3,1.6-10.6,8.7-11.9,16.3c-1,5.5,4.1,7.8,5.2,12.3c1.3,5.1,5.2,6.6,10.3,6.1c2.5-0.2,5.7,5.5,4.3,8.9
		c-2.1,5.2-2.4,9.7,0.8,14.4c0.6,0.8,0.1,2.4,0.1,4.2c1.1,0.1,2.4,0.4,3.6,0.4c10,0,20,0,30,0c1,0,2.3,0.3,2.9-0.2
		c4.7-3.7,9.9-7,13.8-11.4c5.5-6.5,6.4-7.3,14.8-4.5c5.1,1.7,11.8-1.3,14.4-6.4c3.7-7.2,7.4-14.4,11.4-21.5c0.7-1.3,2.9-2.2,4.5-2.4
		c5.2-0.7,10.1-0.4,15.2-3.7c4.6-2.9,9.5-5,13-9.5c0.4-0.5,1.9-0.5,2.8-0.3c4.1,0.8,8.2,1.8,12.9,2.8c-1.8,5.6,1.3,12.2-4.9,17.8
		c-5.7,5.3-1.1,19.9,6.3,22.9c1.3,0.5,3.8,0.3,4.5-0.6c1-1.3,1.3-3.5,1.2-5.2c-0.1-2-1-4.1-1.6-6.4c4.9-0.4,8.5-0.7,6.9-7.5
		c-0.7-2.9,3.5-7.1,5.6-10.6c1.6-2.6,3.3-5.1,6.1-7.3c-0.9,2-1.8,4-3.2,7.2c1.5,1,3.9,2.3,6,3.9c1.3,1,1.9,3.3,3.2,3.8
		c3.4,1.4,7,2.7,10.6,2.9c10.9,0.7,21.9,0.8,32.8,1.2c1.1,0,2.1,0.6,3.5,1c-3.5,8.7-13.3,13.2-14.1,22.9c4.7,3.3,10,2.7,15.4-2.1
		c1.3-1.2,2.4-2.7,3.5-4.1c4.4-6.2,6-6.6,13.7-4.8c9.3,2.2,18.8,4,28.1,6.3c1.8,0.4,3.4,1.9,4.9,3.2c3,2.5,5.6,3.4,9.7,1.2
		c5.1-2.7,10.9-6.2,16.8-1.4c1.6,1.3,2.9,3.1,4.1,4.8c3.9,5.4,7.5,11.1,11.6,16.3c3.4,4.3,7.6,7.2,13.5,8.8
		c14.7,4,29.1,9.5,43.6,14.4c0.3,0.1,0.6,0.4,0.9,0.4c8.5,1.3,14.1,4.5,12.3,14.9c-0.8,4.6,0.3,9.5,0.9,14.3c0.2,1.4,1,3.2,2.1,3.9
		c12,6.9,24.2,13.6,37,20.7c-5.8,4.5-11.4,8.9-17,13.3c-3.4,2.6-6.9,5-10.2,7.7c-1,0.8-1.4,2.4-2,3.7c-0.7,1.5-1.2,3.1-2.2,5.6
		c-2.8-3.9-4.8-6.8-6.9-9.7c-4.2-5.8-8.3-11.6-12.7-17.2c-0.4-0.5-3.7,0.2-4,1c-3.6,8.5-10.4,12.6-18.8,15.5c-2.5,0.9-4.9,3.6-6.4,6
		c-3.2,5.1-5.9,10.5-8.8,15.8c1.4,1.6,2.8,3.2,4.1,4.7c-0.3,0.3-0.6,0.6-0.8,0.8c-2.2-1.3-4.3-2.7-6.6-3.8c-1.2-0.5-2.7-0.3-4-0.4
		c0.2,1.4,0.1,2.9,0.6,4.2c0.6,1.5,1.6,2.8,2.7,4.6c-8.2,1.7-15-1-21.7-5.3c-1.1,1.3-2.1,2.6-3.5,4.2c-3.5-3.2-6.8-6.3-10.1-9.3
		c-0.5-0.5-1.3-1-2-1c-10.6-0.1-21.2,0-32.9,0c3.5,7.2,6.5,13.5,9.8,20.3c-1.7-0.2-3.8-0.7-5.9-0.7c-1.6,0-3.8-0.1-4.8,0.8
		c-6.4,5.8-12.4,3.9-17.2-0.8c-2.2-2.1-3.7-2.1-5.9-0.3c-3.6,2.9-8.1,4.5-9.6,10c-0.6,2.1-4.8,3.4-7.6,4.6
		c-20.4,8.3-39,19.9-56.7,32.8c-7.1,5.2-12.4,12.8-18.2,19.6c-2.5,3-6.9,4.8-6.1,10.1c1,6.6,1.3,13.4,2.2,20
		c0.2,1.2,1.4,2.7,2.5,3.4c11.4,7.3,23,14.2,34.3,21.8c3.6,2.4,7,4.4,11.2,5.6c2,0.6,3.5,3.2,5.2,4.9c5.7,5.5,13,4.7,20,5.2
		c1.9,0.1,3.9,0,5.8,0.4c4.2,0.9,6.3-0.9,6-5.5C1806,1185.3,1806.1,1183.5,1806.1,1181.9z"/>
	<path onclick="modals(this.id);" id="2268" class="st0" d="M2493.5,1328.5c-3.5-3.4-6.8-7.8-11.2-10.6c-5.2-3.4-11.4-5.4-17.1-8c-1.4-0.7-2.8-1.4-4.1-2.4
		c-2.7-1.9-5-4.8-8-5.7c-5.4-1.6-5-5.7-3.9-9c3.7-11.2,1.3-22.1-0.4-33.2c-1.2-7.7-2.4-15.5-3.9-23.1c-0.9-4.6-2.1-9.2-4-13.5
		c-2.2-4.9-4.2-5.3-8.4-2.1c-5.8,4.4-11.7,8.8-16.8,14c-4.1,4.2-9.1,5.1-14.2,5.8c-7.6,1.1-15.4,2-23.1,1.9c-3.6,0-7-2.9-10.7-3.8
		c-8.4-2.1-16-5.7-21.6-12.5c-2.2-2.7-3.6-6.1-5-9.4c-0.3-0.8,0.7-2.4,1.5-3.3c10.6-11.4,21.3-22.7,32-34.1c2.7-2.9,5.5-5.7,7.8-8.9
		c0.9-1.3,1.1-3.7,0.6-5.2c-1.8-5.7-4.4-11.2-5.9-17c-0.7-2.6,0-6,1-8.6c1.1-3.1,1.1-4.9-1.5-7.6c-4.4-4.4-7.6-9.9-11.6-14.8
		c-1.5-1.9-3.4-3.8-5.6-4.9c-3.8-1.9-7.8-3.7-11.9-4.5c-4-0.8-8.3-0.2-12.5-0.2c-4.2,0-8.5,0-13.5,0c2.2,1.4,3.7,2.3,6.2,3.9
		c-3.6,0.9-6.2,1.4-8.7,2.2c-2,0.6-4.1,1.2-5.8,2.3c-6,4-11.9,8.3-18,12.6c-11.9-10-23.7-19.7-35.6-29.7c8.1-17,16.1-33.7,24.2-50.6
		c0,0.1,0-0.2-0.1-0.2c-10-4.2-14.7-13.6-21.3-21.3c-7-8.2-14.6-16-21.9-23.9c-0.3-0.3-1.2-0.4-1.2-0.7c-2-9.9-11.4-10.2-18.1-14.1
		c-8.1-4.7-15.9-9.8-23.9-14.6c-12.3-7.4-17.1-20.6-22.7-32.3c-6-12.7-17-17.4-27.8-23c-0.8-0.4-2.6-0.2-3,0.4
		c-6.7,8.9-17.2,10.6-26.7,13.3c-10.2,2.9-17.5,9.4-24.8,16.2c-14.1,13-28.7,25-46.3,32.8c-6.4,2.8-12.1,7.5-18.7,9.7
		c-5.3,1.7-10.3,6.6-17.3,3.2c2.8-4.4,5.3-8.4,10.6-10.1c1.7-0.5,3-2.8,4.3-4.4c5.9-6.9,12.2-13.4,17.5-20.7
		c4.2-5.9,6.9-12.9,10.7-19.1c3.2-5.3,5.2-10.9,2.7-16.7c-2.8-6.6,0.8-10.6,4.6-14.9c3.5-3.9,8.5-7.3,10.4-11.9
		c3.2-7.6,10.9-13.7,8.3-23.4c-0.2-0.8,1.4-2.3,2.5-3c4.6-3,9.2-6.3,14.1-8.6c4.4-2.1,9.5-2.8,14.1-4.7c2.7-1.2,5.9-3,7.3-5.4
		c3.7-6.2,9.6-7.9,15.8-9c8.3-1.5,13.5-7.2,19.2-12.6c3.2-3,6.4-6.1,9.2-9.4c2-2.4,3.8-5.3,4.7-8.3c2.3-7.8,1.1-9.5-6.8-11.3
		c-0.8-3,0.8-6.4-3.5-9c-3.7-2.2,1.8-11.9,7.3-13.1c3.8-0.8,7.4-2.1,11.2-3c1-0.2,2.2-0.1,3.1,0.4c3.9,1.9,7.8,3.9,11.6,6.2
		c2.8,1.6,5.1,1.7,8,0.1c13.2-7.3,26.5-14.3,39.7-21.4c0.6-0.3,1.1-0.7,1.4-0.9c-0.2-0.8-0.1-1.3-0.3-1.4c-6.2-3.6-10.9-8-12.7-15.5
		c-0.5-2.1-4.5-3.3-6.8-4.9c-1-0.7-2.3-1.5-2.9-2.5c-2-3.3-4.6-6.6-5.2-10.2c-0.5-2.8,0.7-7.3,2.8-8.8c4.1-3,5-7.8,4.7-11
		c-0.7-7.8,3.4-12.4,8.3-16.6c6.4-5.5,10.3-12.7,14.3-19.7c3-5.1-1.5-9-4.3-12.5c-2.5-3.2-6-5.6-9.5-8.7c3-2.8,6.5-5.8,9.9-9.1
		c4.4-4.2,8.8-8.3,12.9-12.8c2.2-2.4,3.9-3.7,7.4-2.4c2,0.8,5.4,0.4,7-0.8c5.5-4.3,10.9-5.9,17.6-3c5,2.2,8.6-0.5,11.6-4.5
		c0.9-1.2,2.7-2.1,4.2-2.4c5.8-1.1,11.5-2.2,17.4-2.7c2.1-0.2,4.7,0.9,6.4,2.2c7.6,5.9,15,12,22.3,18.2c4.7,4,10.4,4.7,16,5.1
		c7,0.5,13.5-0.4,19.9-4.6c4.6-3.1,10.8-4.7,16.4-5c6.2-0.4,11.3-1.7,15.3-6.6c3.1,2.4,3.3,4.6,1.5,7.7c-3,5.1-3.7,10.1-0.1,15.7
		c2.5,3.8,6.2,5.3,9.2,3.7c11-5.9,18.5,1.3,26.8,5.9c3.8,2.1,8.2,4,8.5,9.1c0.2,3.5-0.8,7.1-1.4,10.6c-0.2,1.1-0.9,2.1-1,3.2
		c-0.6,7.6-1.9,12.7,9.6,12.6c4.7,0,9.3,1.4,14,2.3c4.1,0.8,8.1,1.6,12.5,2.5c-1.9,5-9.5,10.2-2.3,17c4.9,4.6,10.1,3.6,15.5,0.1
		c3.8,5.9,7.4,12,11.4,17.6c3.6,5,6.9,10.4,13.8,11.7c0.9,0.2,1.6,1.4,2.4,2.1c2.6,2.4,5,5,7.9,7c3.4,2.2,4.9,4.6,3.4,8.5
		c-1.1,3-1.8,6.1-3.2,9c-2.6,5.6-1.4,14,2.6,17.5c4.7,4,14.9,5,19.3,1.2c2.4-2.1,3.7-5.6,5.4-8.2c2.4-0.2,4.8-0.4,7.6-0.7
		c0.4,2.6,0.5,5.8,1.5,8.6c3.8,9.6,11.8,14.4,21.5,16.6c6.4,1.4,11.5,10.4,8.2,15.8c-2.9,4.7-0.9,7.7,2.4,10.7
		c3.1,2.8,9.8,3.4,12.8,1.3c4.2-3.1,5.7-2.6,7.4,2.5c1.8,5.5,10.1,8.6,16.2,6c1.4-0.6,2.7-1.2,3.5-1.6c3.3,4.3,5.9,9.6,10.1,12.4
		c5.9,4,9.5-4,15.1-5.2c2.1,2.9,3.5,5.5,2.5,9.7c-0.7,3,0.3,7,2,9.7c0.9,1.4,5.1,2,7.1,1.2c3.2-1.3,5.5-1.3,8.8,0
		c8.5,3.2,17.1,6.2,26,8.2c3.1,0.7,8.3-0.7,10.2-3.1c5.6-6.9,10.8-14.4,14.5-22.4c2.4-5.2,2.1-11.8,3-17.7c0.4-2.3,0.8-4.7,1.2-6.4
		c5.7,1.5,10.5,2.8,15.5,4c7.5,1.8,9.1,4,8.4,11.8c-0.4,4.5-4.2,7.3-10.5,7.2c-4.5-0.1-8.8,0.1-10.4,5.2c-0.6,2.1-0.9,5.1,0.1,6.9
		c2.9,5.1,6.3,9.9,9.9,14.5c5.8,7.2,21.3,5.5,27.6-0.7c8.5-8.3,10.6-9.7,17.1-11.8c-0.7,6.2-4.6,10.2-8.5,14.3
		c-2.4,2.5-4.5,5.4-6.4,8.4c-2.5,3.8,0.6,6.8,2.7,9.1c3.1,3.5,7.1,6.2,11.2,9.6c-3.3,6.5-7,13.7-10.8,20.9
		c-6,11.2-12.2,22.4-18.3,33.6c-16.2,30-32.4,60.1-48.6,90.2c-8.6,16-16.9,32.1-25.6,48c-11.3,20.6-22.9,41.1-34.3,61.6
		c-7.9,14.1-15.7,28.3-23.6,42.3c-11.4,20.2-22.9,40.3-34.3,60.5c-7.2,12.8-15.1,25.3-21.3,38.5c-3.7,7.9-9,10.6-16.7,11
		c-1,0.1-2.1-0.1-2.9,0.4c-10.1,5.4-20.7,3.9-31.4,2.8c-2.4-0.3-4.8,0.6-7.3,0.8c-8.3,0.6-16.9,0.9-24,5.3
		C2501,1319.1,2497.7,1324.2,2493.5,1328.5z"/>
	
	<path onclick="modals(this.id);" id="2267" class="st0" d="M1846.9,726.6c-2.7-8.6-5.3-17-7.9-25.4c14.7-1.8,23.6,5.8,31.5,15.1
		C1863.7,727.2,1860.2,728.7,1846.9,726.6z"/>
</g>
</svg>
