<?xml version="1.0" encoding="utf-8"?>
<!-- Generator: Adobe Illustrator 19.0.0, SVG Export Plug-In . SVG Version: 6.00 Build 0)  -->
<svg version="1.1" id="Layer1" xmlns="http://www.w3.org/2000/svg" xmlns:xlink="http://www.w3.org/1999/xlink" x="0px" y="0px"
	 viewBox="0 0 10000 4500" style="enable-background:new 0 0 10000 4500;overflow: hidden; display: inline; width: inherit; min-width: inherit; max-width: inherit; height: inherit; min-height: inherit; max-height: inherit;" xml:space="preserve">
<style type="text/css">
	.st0{fill:#8FD4EB;stroke:#000000;stroke-width:3;}
</style>
<g>
	
	<path onclick="modals(this.id);" id="2312" class="st0" d="M4774,2198.8c-6.7,3.3-9,8.2-8.9,14.8c0.2,12,0.1,24,0.1,35.1c-5.2,6.9-11.2,6.1-16.8,3.6
		c-7.2-3.2-13.8-7.7-21-10.9c-7.1-3.2-14.6-5.5-22.3-8.3c-3.2-4-6.1-9.7-10.8-12.8c-4.1-2.7-10.1-2.9-15.3-3.2
		c-42.6-2-85.2-3.7-127.9-5.5c-16.6-0.7-33.2-1.5-50.9-2.2c-1.8,5.7-3.5,11.1-5.5,17.7c-10.2,1.4-20.3,3.3-30.6-2
		c-3.3-1.7-7.7-1.6-11.5-1.7c-17.3-0.2-34.7,0-52-0.1c-5.3,0-10.8,0-15.9-1.2c-18.8-4.4-29.2-22.8-20.7-40
		c5.1-10.3,5.5-20.3,5.5-30.8c0.1-13.3,0.1-26.7-0.1-40c-0.1-6.5-0.4-6.5-8.1-13.6c-6.9,1.1-13.3,1.9-19.7,3.1
		c-3.2,0.6-6.9,0.8-9.3,2.6c-4,3.1-8.3,4-13,3.9c-5.4-0.1-10.5,0.4-15.1,3.9c-1.9,1.5-5,2.2-7.5,2.1c-7.6-0.4-14,2-20.7,5.6
		c-3.8,2-10.1-0.6-13.6,1.6c-11.6,7.1-26,3.8-37.4,11.2c-2.7,1.8-7.6,0.3-13.4,0.3c4.4-10.2,7.9-19.1,12.1-27.8
		c6.2-13,12.3-26.2,19.7-38.6c4.4-7.3,7-15.5,13.5-21.8c4.9-4.8,6.7-12.7,10.4-18.8c2.7-4.4,5.6-10.5,9.7-11.8
		c9.7-3.1,14.8-10.9,21.7-16.9c7.4-6.5,12.7-15.6,23.4-17.9c1.7-0.4,3-2.5,4.5-3.9c5.3-5.2,5.2-10.3-0.3-15.3
		c-1.5-1.3-2.9-2.8-4.7-3.6c-26.2-12.1-49.1-30.5-76.4-40.5c-4.3-1.6-8.2-4.1-12.3-6.3c-4.8-2.6-8.6-6.1-10.4-12.1
		c9.6-15.6,15.4-32.8,19.6-50.7c0.4-1.9,1.1-3.9,2.2-5.4c6.1-8.5,12.7-16.7,18.4-25.5c4.2-6.6,8.1-13.6,10.7-20.9
		c6.1-17.8,10.4-36.2,18.1-53.5c1.7-3.7,1.9-10.3-0.4-13.2c-5.7-7.2-4.7-15-4.8-22.8c-0.1-28.7,0-57.3-0.1-86c0-4-0.3-7.9-0.5-12.3
		c-13.5-11.8-21.8-27.4-32.5-42.8c7.4-4.2,13.5-7.7,20.4-11.6c3.2,2,6.5,4.1,9.8,6.1c17.1,10.2,36,7.4,54.4,6.4
		c7.8-0.4,12.9-7.7,16.4-13.6c8.1-13.5,18-25.9,25.8-39.4c5.1-9,11.8-15.7,18.4-23c3.8-4.2,8.3-6.3,14.1-6c5.3,0.3,10.7,0,16,0
		c138.7,0,277.3,0,416-0.1c11.1,0,22.7,2.3,32.7-5.3c1.8-1.4,5.1-0.9,7.8-1c5.3-0.1,10.7-0.1,16-0.1c175.3,0,350.6,0,526,0
		c7.3,0,14.6,0,23,0c11.5-11.4,23.3-23.1,35.1-34.7c4.2-4.1,7.9-8.7,14.2-10.5c3.5-1,6.6-4.3,9.4-7c7.7-7.4,15.3-14.9,22.6-22.6
		c7.8-8.3,16.1-15.8,29-18.7c7.9,7.8,18.3,14.8,22.7,27.5c1.2,3.4,5.3,5.8,7.9,8.8c3,3.5,7.2,6.7,8.5,10.8c2.2,6.9,7,11.2,11.8,15.7
		c7.8,7.3,14.2,15.4,18.6,25.3c5.7,12.6,13.7,24.3,17.8,37.3c7.9,24.6,21.6,46.3,31.8,69.7c2,4.7,2.9,10,3.4,15.2
		c1,11.7-1.8,23.6,5.6,34.7c2.7,4.1,0.4,11.5,0.4,18c-15.6,4.6-30,10.1-46.3,9.7c-9.3-0.2-19,4.4-28.1,7.8
		c-13.5,5-26.4,10.9-41.4,10.8c-6.1,0-12.2,3.6-19.4,6c-2-1.6-4.5-3.7-7.1-5.7c-9.5-7.2-19.2-13.1-31.9-13.8
		c-8.3-0.5-16.4-4.1-24.5-6.6c-1.7-0.5-3.1-2.3-4.3-3.8c-7.1-9-14.8-13.9-23.9-14.4c-11.1-0.6-22.8,2.2-32.4-6.1
		c-15.2-2.7-29.1,0.3-40.8,10.4c-2.7,2.4-4.5,6.5-5.3,10.1c-0.9,3.8-0.3,8-0.3,11.9c0,88.7,0,177.3,0.1,266c0,7.1,0.4,13.8,3.6,21.1
		c7.8,17.8,21.2,24.1,39.2,24.2c18.7,0,37.3,0.4,56-0.1c11.3-0.3,19.4,2.9,23,14.3c1,3.1,3.8,5.6,4.6,8.7c3.2,11.2,10,16.9,22,15.7
		c1.3-0.1,3-0.4,3.9,0.2c13.9,9.1,29.6,4.9,44.6,6.4c1.3,0.1,2.5,0.8,3.8,1.3c8.3,16.1,10.8,33.2,9.9,51.2
		c-0.8,14.6-0.4,29.3-0.1,44c0.3,12.1,6.3,20.9,17.8,27.2c1.9,11,3.5,22.3-4.4,33.4c-2.7,3.8-4.6,7-9.2,9.2
		c-5.2,2.5-9.5,7.1-15.4,11.7c-14.6,0-30.4,0-45.5,0c-5.9,4.4-5.3,9.9-4.7,15.1c1,9.3,3.1,18.4,3.5,27.7c0.3,8,7.9,10.3,10.6,16.3
		c0.8,13.9-1.2,27.4-3.5,41.1c-1.9,11.7-7.7,20.9-17.6,25.1c-18.8,8.1-28.8,22.6-36.2,40.3c-2,4.7-6.1,8.6-9.3,12.8
		c-2.4,3.1-5.3,5.9-7.5,9.2c-5.4,8.3-12.9,14.7-19.2,22.2c-8.5,10.2-15.7,21.5-23.3,32.4c-14.5,20.7-29.3,41.3-43.3,62.4
		c-8.2,12.3-18.9,18.1-33.5,17.7c-10-0.3-20,0.2-30-0.1c-9.9-0.3-19.3,2.2-25.4,9.4c-10.4,12.4-23,14.4-39,11.7
		c-2.9-2.7-6.9-6.1-10.7-9.8c-4.8-4.8-10.5-6.8-17-9.1c-10.7-3.8-21.7-5.5-32.6-8.2c-3.2-0.8-6.8-1.4-9.4-3.3
		c-14.5-10.7-32.2-14.5-48.1-22.3c-9.2-4.6-19.5-7-29.4-10.1c-8.7-2.8-17.5-5.1-26.1-8c-2.4-0.8-4.4-2.7-6.7-4.1
		c-4.1,1.5-7.8,3-11.6,4.1c-14.6,4.4-26.4,0.1-34.3-12.7c-2.8-4.5-5.1-9.4-7-14.4c-3.4-8.9-8.6-16.2-15.4-23c-5-5-8.8-11.6-12-18
		c-5.4-10.6-10.8-21-18.2-30.4c-7.4-9.4-12.8-19.8-11.8-32.6c0.6-7.3-0.2-14.7,0.2-22c0.4-7.7-3.4-13.6-9.7-16
		c-12.2-4.6-22.3-14.6-36.3-14.8c-0.6,0-1.3-0.3-1.9-0.6c-15.7-10.5-34.1-14.1-51.3-21c-9.8-4-19.9-7.2-30-10.5
		c-11.6-3.7-22.4-8-28.9-19.7c-2.8-5-8.2-8.5-12.4-12.7c-2.3-2.4-5.9-4.6-6.5-7.4C4790,2202.9,4780.9,2202.3,4774,2198.8z
		 M5470.1,2242.8c-3.9-8.7-10.7-14.2-16-20.7c-1.6-2-4-3.9-4.5-6.2c-5.4-21.6-23.5-36.3-30.6-56.9c-0.4-1.2-1.8-1.9-2.6-3
		c-8.5-11.6-17-23.3-23.3-36.2c-7.2-14.7-19.3-26.6-24.2-42.6c-0.2-0.6-0.7-1.1-1.2-1.6c-12.8-11.9-16.5-29.6-27.7-42.9
		c-9.9-11.8-16.3-26.5-24.6-40.4c-6.7,0-13.4,0-20,0c-60.6,0-121.2,0-181.7,0c-4,0-8-0.1-12,0.1c-11.4,0.5-17.2,6-17.7,16.9
		c-0.4,7.3-0.2,14.6-0.1,22c0.1,5.5-1,10.4-5.4,14.4c-2.3,2.1-3.9,5-6.4,8.3c5.5,5,9.6,11.3,15.3,13.6c16.4,6.4,30.1,19.1,48.4,21.1
		c2.3,0.3,4.8,2.2,6.6,4c4.4,4.1,9,7.3,14.8,9.5c9.8,3.8,18.8,9.4,28.2,14.2c2.3,1.2,4.8,3.3,7,3.2c18.2-1.3,37.1,5.6,54.6-4.8
		c2.1-1.2,5.2-1.1,7.8-1.1c9.3-0.1,18.7,0.2,28-0.1c8.5-0.4,13.6,4.2,17.4,10.9c6.8,12,14.6,23.2,22.5,34.4
		c7.7,10.8,15.6,21.5,22.4,32.9c12.6,21.1,24.5,42.7,36.7,64.1c2.6,4.6,4.6,9.6,7.5,14.1c4.4,6.8,10.5,7.8,16.3,1.9
		c7.4-7.6,15.2-9.1,25.3-6.7c13.6,3.2,15.5,2.2,21.8-10.3c2.4-4.7,5-7.3,10-8.4C5465.1,2245.9,5467.3,2244.2,5470.1,2242.8z"/>
	<path onclick="modals(this.id);" id="2322" class="st0" d="M5746.5,3026c-37-21.3-71.5-47.2-108.4-70.9c-9.8,6.2-18.3,13.9-23.7,23.6
		c-2.9,5.3-6.4,9.8-10,14.5c-8.4,11.1-6.8,24.7,5.2,30.6c7.4,3.7,13.1,8.7,19,13.9c4.8,4.2,10.5,7.5,16.7,11.7
		c-3.9,10.3-8.5,20-16.9,28c-22.1,21.2-43.7,42.9-63.5,62.5c-6.6,15.4,0.1,25.9,5.4,36.4c4.2,8.6,14.6,8.5,21,14.2
		c11.7-0.7,20.4,9.2,32.4,7.9c3,19.6,14.5,30.8,30.9,38.8c9.3,4.5,19.3,8.9,25.8,18c1.5,2.1,3.8,4.3,6.1,5
		c12.3,3.4,17.3,11.3,16,23.8c-0.5,5.2,2.2,8.9,5.9,12c1.5,1.2,3.4,3.3,4.9,3.1c14.3-2,26.2,9.8,40.4,7.3c8.1-1.4,13.3,5.6,20.6,6.1
		c7.2,0.5,15.7-0.9,21.4,2.4c7.7,4.5,15.2,3.8,23,4.4c7.8,0.7,12.5-3.6,16.3-9.4c1.4-2.2,1.5-5.2,2.9-7.4c5.9-9.2,8.7-20.6,22-23.8
		c5.4-1.3,8.9-7.6,8.6-14.5c-0.2-6-0.8-12.4,4.6-16.6c7.2-5.5,8.8-12.9,8.2-21.3c-0.1-1.9,0.5-3.9,0.8-6.1
		c6.1-9.2,16.8-14.9,20.2-26.7c1.2-4.2,3.7-8.1,4.5-12.8c0.6-3.6,2.7-7.4,5.2-10.2c9.6-11.2,23.8-14.3,37.6-8.9
		c12.7,5,25,10.8,39.2,11.2c5.5,0.2,10.9,4.1,16.4,6c18.9,6.8,39.6,7.9,57.6,17.7c0.6,0.3,1.3,0.9,1.8,0.7
		c11.9-2.3,22.2,3.9,32.2,7.6c18.3,6.8,38.4,7.3,55.9,17.1c5.2,2.9,13.1,1.8,19.6,1.3c10.8-0.8,18.8,5.3,27.4,9.9
		c2.2,1.2,4.3,3.5,5.3,5.8c5.9,14.1,16,23.7,29.8,30.1c5.3,2.5,9.8,7,9.8,14c-0.2,20.6-0.4,41.3-0.7,61.9c0,1.1-1.2,2.3-2.5,4.7
		c-2.9,0.4-6.7,1.2-10.6,1.3c-10.7,0.2-21.4,0.9-32-0.2c-10-1-18.1,3.1-26.4,7.1c-6.2,3-10.8,7.6-10.8,15.3c0,8.7-8.4,14.7-6.8,24.4
		c1.4,8.4,0.4,17.3,0.2,25.9c-0.1,4.6-0.8,9.1-1.2,13.5c-7.3,4.7-14.9,2.9-21.9,2.9c-66.7,0.2-133.3,0.1-200,0.1
		c-7.3,0-14.6,0-20.3,0c-2.6,1.7-3.7,2.4-4.8,3.2c-16.6,11.2-21.5,26.9-19.8,46.4c1.5,16.5-0.2,33.3,0.5,50
		c0.4,9.7-3,16.8-10.5,22.3c-9,6.7-18.4,12.7-30.4,12.2c-9.3-0.3-18.7,0-28-0.1c-2.7,0-5.9,0.7-7.9-0.5c-14.7-9.4-31-4.9-46.6-5.8
		c-6.6-0.4-13.3-0.1-20.2-0.1c-7.4,7.3-14.4,14.3-21.1,20.9c-2.9,24.7,0.9,48.7-2.4,72.3c-2.7,1-4.5,2.1-6.3,2.2
		c-4.6,0.3-9.1,0.1-14.5,0.1c1.1-7.4,2.8-13.7,2.6-19.8c-0.2-6.6,3.1-11.2,6.1-16.3c0.6-1,0.6-3.1,0-3.8c-6.9-7.2-1.7-14.5,1.8-19.5
		c9.9-14.3,2.6-25.8-5.2-36.1c-6.1-8.1-12.7-17.1-24-20.1c-3.5-0.9-6.3-4.7-9.2-7.5c-5.3-5.1-10.6-10.2-15.4-15.7
		c-12.3-14.1-27.8-24-43.8-33.2c-6.9-4-6.8-15-16.7-15.3c-1-8.9-9.5-9.9-14.9-14.3c-1.4-1.1-2.2-3-3.8-5.3c4-2.7,7.9-4.9,11.2-7.7
		c3.6-3,7.1-6.2,9.9-9.8c6.8-8.8,13.2-17.9,19.6-27.1c1-1.5,1.4-3.8,1.3-5.7c-0.2-13.8,2.3-27.8-4-41.1c2.9-2.5,5.1-5,7.8-6.8
		c2.2-1.4,5.2-1.5,7.3-3c3.7-2.7,7.7-5.5,7.7-10.9c0-4.6-5.5-11.4-11.7-12.1c-15.5-1.8-25.5-12.9-36.6-21.4
		c-7.9-6.1-15.2-12.4-25-15.1c-4.8,3.4-9.6,6.9-14.5,10.1c-0.7,0.5-2.7-0.2-3.5-0.9c-0.9-0.8-1.8-3-1.4-3.3c6-5.8,3-12,0.6-17.8
		c3-4.5,10.1-4.5,9.8-11.7c-0.2-5.9-2.5-10.1-6.4-14c-8.4-8.4-18-15.8-21.8-27.8c-0.4-1.1-1.7-2-2.7-2.9c-4.6-4.8-9-5.2-13.9-0.6
		c-9.2,8.7-18,17.7-26.6,26.2c-10.4-0.9-9.7-10.6-14.7-16.3c-16.1-2.8-26.2,8.8-37.9,16.6c-7.2-5.9-7.2-5.9-8.9-13.5
		c14.9-8.9,14.9-8.9,23-25.2c4.1-8.2,8.3-16.4,12.2-24.7c5-10.7,1-22-10.1-23.5c-12-1.7-22.5-8-34.3-9.4c-7.2-0.9-14.3-3.2-22.5,0.1
		c-0.5,5.2-0.4,10.5-1.6,15.4c-1.4,5.6-4.7,10.9-5.8,16.5c-1.1,5.7-3.3,9.9-8.3,12.7c-6.5-0.5-4.1-7.6-7.7-10.3
		c-3.2-2.4-5.6-5.7-8.6-8.3c-6.3-5.4-14.9-6.7-19.8-1.1c-9.7,11.3-23.6,16.7-35.1,27c-2.5-4.1-4.4-8.1-7.2-11.4
		c-6.5-7.7-14.6-8.3-22.7-2.2c-5.2,3.9-10.4,7.8-17.2,12.9c-4.1,8.8-0.2,18.5,6.2,28.6c-4.7,5.2-9.1,10-13.5,14.9
		c-9.2,10.1-9.4,16-0.2,25.6c10.2,10.5,20.7,20.7,31,31.2c2.7,2.8,5,6,7.8,9.4c-7.4,15.9-23.9,23.5-32.3,38
		c0.6,7.7,7,11.1,11.4,15.8c4.5,4.9,9.2,9.6,14.4,15c-1.3,3.1-2.3,6.1-3.6,8.8c-4.9,10.2-4.7,13.5,2.4,21.3c2.7,3,5.7,5.7,8.3,8.6
		c4.3,4.7,4.2,4.8,4.5,16.3c-7,5.8-14.5,11.1-20.9,17.4c-5,4.9-5.5,13.4-1.1,18.3c12,13.2,23.6,27.9,41.7,32.2
		c8.6,2,15.6,5.8,23.5,9.3c-1.8,4.8-2.5,9.8-5.2,13.2c-4.5,5.7-5.1,11.8-5.5,18.6c-0.7,11.7-6,16.7-17.6,16.9
		c-7.8,0.2-15.9,1.5-22.9-4.5c-2.2-1.8-6.3-1.7-9.5-1.9c-7.9-0.4-15.8,0.6-23-4.7c-2.3-1.7-6.4-0.9-9.6-1.6c-4.4-1-8.8-2.2-13.1-3.5
		c-3.1-0.9-6.1-2.6-9.3-2.9c-9.2-0.7-18.7,1.2-26.8-5.4c-1.7-1.4-5.1-0.8-7.8-0.9c-8-0.1-15.4-0.2-22.9-4.9
		c-4.6-2.8-11.6-1.7-19.6-2.5c-9.6-9.5-22.8-18.7-30.7-31.3c-16.9-27.1-42.4-45.5-63.5-68.2c-0.4-0.5-1.1-0.7-2.9-1.8
		c-4.1,0-9.5,0.3-14.8-0.1c-9-0.6-16,1.9-23.6,7.7c-9.8,7.4-20.3,14.1-30.1,23.7c-5.3-5.5-11.9-9.4-14-15
		c-3.5-9.4-10.6-15.1-16.8-21.8c-9.3-10.2-21-18.3-26.2-32c-1.3-3.4-5.3-5.9-8.1-8.7c-8.9-9-18.1-17.8-26.8-26.9
		c-5.4-5.7-12-10.3-14.1-18.9c-0.9-3.4-4.7-6.3-7.5-9.1c-7.9-8.1-16.1-16-24-24.1c-5.1-5.2-10.6-9.7-12.9-17.3
		c-1.2-4.1-5.5-7.3-8.7-10.7c-7.9-8.1-16-16-24-24.1c-4.6-4.7-9.7-8.8-11.7-15.8c-1-3.5-4.4-6.5-7.1-9.4
		c-6.5-6.7-13.2-13.1-19.7-19.8c-4.6-4.7-8.8-9.3-11.7-15.7c-2.8-6.3-9.3-11-14.1-16.5c-5.5-6.4-5.7-13.1-0.7-19.8
		c13.3-17.8,24.6-37.1,37.3-55.2c10.9-15.5,21.1-31.5,31.9-47.1c8.5-12.2,18.5-23.9,23.3-38.6c2.9-8.8,10.5-14.7,15.1-22.9
		c9.2-16.5,21.7-31.1,32.4-46.9c9.9-14.6,18.7-30,28.7-44.5c10.4-15.3,19.8-31,27.2-48c2.9-6.6,8.8-10,16.3-9.1
		c5.8,0.7,11.5,2,18.8,3.2c8.9-2.3,17.2-8.5,24.5-16.6c6.7-7.4,14-14.2,21.1-21.3c2.4-2.4,4.4-5.6,7.2-6.8
		c16.8-6.8,26.4-21.8,39.1-33.2c6.8-6.2,12.3-13.8,22-16.6c3.4-1,6.1-5,8.9-7.8c8.5-8.4,17-16.9,25.5-25.4c2.4-2.4,4.4-5.8,7.2-6.8
		c15.2-5.5,23.6-18.9,34.9-28.9c8.3-7.4,14.8-16.6,26.1-20.9c5.7-2.1,9.6-9,14.6-13.4c12.2-10.9,22.2-24,37.4-32.2
		c10.7-5.8,18.2-17.3,27.3-26.1c11.1-10.8,18-11.9,31.8-5.1c28.9,14.2,58,28.1,86.6,43c9.8,5.1,18.5,5.5,28.2,0.8
		c10.7-5.2,23.1-5.2,33-1.2c9.9,4,19.3,3.9,29,4.7c1.3,0.1,2.5,0.7,5,1.4c1,2.2,2,5.3,3.7,8c3.2,5.2,7.1,9.7,14.1,9.7
		c2,0,4.6-0.4,5.8,0.7c10.7,9.5,20.8,5.1,30.8-1c8.8-5.4,17.3-10.1,27-1.3c2,1.8,6.3,1.5,9.6,1.6c5.4,0.2,10.5,0.3,15,4.2
		c1.8,1.5,4.9,2,7.5,2.1c6.7,0.2,13.4-0.1,18.8,4.9c13.4-0.7,24.8,8.5,38.1,8.1c6.6-0.2,11.5,2.3,14.8,8.8
		c-1.4,3.2-2.8,6.8-4.4,10.5c0.9,1.8,1.5,3.9,2.8,5.2c19.2,19.4,38.5,38.8,57.8,58.1c2.3,2.3,5.5,5.9,7.8,5.6
		c13.2-1.9,23.6,8.3,36.4,7.7c3.1-0.1,6.3,1.6,9.4,2.4c4.4,1.2,8.7,3,13.2,3.3c7.9,0.6,16.1-0.9,22.6,5.5c0.8,0.8,2.6,1.2,3.8,1
		c14.3-2,26.9,4.8,41.5,8.3c-1.3,4.1-3.1,8.1-3.7,12.2c-0.7,4.6-0.2,9.3-0.3,14c-0.1,2,0.3,4.4-0.7,5.9
		c-11.7,17.4-11.7,40.7-27.8,56c-1.8,1.7-2.3,4.7-3.6,6.9c-4.8,8.6-9.1,17.3-15.3,25.2c-5.8,7.5-11.3,16.5-9.7,27.3
		c0.2,1.3,0,2.7,0,4c0.5,12-8.8,21.5-7.2,34.5c1.5,12-9,21.5-13.5,32.3C5761.8,3016.7,5755.3,3022.2,5746.5,3026z"/>
	<path onclick="modals(this.id);" id="2314" class="st0" d="M4338,2700.6c-2.5-6.8-8.2-11.6-7.1-19c0.3-1.7-0.7-4.3-2-5.4c-9.7-8.4-15.7-19.4-22.9-29.6
		c-2.6-3.7-6.4-7.6-10.5-8.9c-6.9-2.1-11.6-6.5-15.9-11.5c-6.2-7.3-13.8-9.5-23-8.9c-8.6,0.5-17.3,0.2-26,0.1
		c-7.9-0.1-15.3-0.3-23-4.3c-11.2-5.7-21.2,1.2-22.7,13.7c-0.4,3.3,0.1,6.7-0.6,9.9c-2.4,11.2-16.3,16.6-25,9.3
		c-5.5-4.6-10.3-9.7-13.6-16.8c-9.6-20.9-20.3-41.3-31.1-61.6c-5.5-10.4-12.7-19.8-18.2-30.2c-5.2-9.9-10-19.7-16.6-29
		c-8.3-11.6-13.5-25.4-20-38.3c-3.2-6.4-6.3-12.9-9.7-19.8c10-11,19.7-21.7,30-33.1c14,4.5,30.2,4.2,45.6,1.5
		c15.3-2.6,30.4-2.6,45.7-2.8c3.9,0,7.9,0,11.6,0c5.7-6.7,8.4-13.3,7.3-22.1c-1.2-9.8-0.8-19.9-0.6-29.9c1-54.6,2.2-109.3,3.4-163.9
		c0.1-5.3-0.5-11.4,1.9-15.7c4.2-7.5,3-15.3,3.3-22.6c9.3-5.3,17.3-11.3,28.1-10.1c2.9,0.3,6.2-1.8,9.2-3c1.2-0.5,2.3-2.1,3.4-2.1
		c11.5,0.2,21.6-5.1,32.5-7.1c5.8-1.1,11.6-0.5,16.9-4.5c2.8-2.1,7.5-2,11.4-2.3c4.7-0.3,9.3-0.2,13.1-3.7c0.5-0.4,1.1-0.9,1.7-1
		c5.9-0.7,11.9-0.8,17.7-2.2c4.8-1.2,9.3-3.9,15.3-6.5c1.2,4.6,2.4,7.5,2.6,10.5c0.3,8.7-0.1,17.3,0.3,26c0.4,7.8-1.1,14.5-7.5,19.6
		c-4.7,3.7-5.1,8.8-4.7,14.4c0.5,7.9,0.1,15.9,0.1,24.8c1.3,1,2.7,2.4,4.5,3.2c16.2,7.6,32.2,15.5,48.7,22.5
		c9.9,4.3,19.8,4.9,31,1.3c11.2-3.6,24-3.3,35.1,2c12.4,6,24.6,5.4,36.5,0.9c7.7-2.9,15.4-3.5,23.1-5.2c17.1-3.7,34.3-3.6,51.6-3.8
		c3.2,0,7.5-0.2,9.3-2.2c5.4-5.8,11.9-5.1,18.5-5.2c8-0.1,16.1,0.7,24-0.2c19.9-2.1,37.8,4.3,54.7,13.1
		c14.6,7.5,30.5,11.6,44.9,19.1c13.9,7.2,28.1,13.1,43.5,16.6c2.7-4.7,4.8-9.6,8-13.7c3.2-4.1,8.4-6.9,10.9-11.4
		c2.3-4.2,2.3-9.8,3.3-14.8c2.2,0.6,3.8,0.5,4.6,1.3c16.8,17.5,38.1,34.7,56.2,45.9c1.1,0.7,2.4,1.1,4.5,2c6-6.1,12.9-9.7,21.8-4.1
		c6.1,3.8,12.9,6.6,19.2,10c13.8,7.4,29.6,9.8,43.2,18.4c13.6,8.6,16.5,11.5,14.1,26.6c-0.5,3.1-2.4,6.1-3.6,9
		c7.3,20.1,19.6,37,32,54c4.2,5.8,6.9,12.6,10.7,19.6c-2.8,4.3-5.6,8.7-8.4,12.9c0.5,1.3,0.6,2.8,1.4,3.5
		c10.3,8.5,19.6,17.6,26.5,29.5c3.4,5.9,10.3,9.7,15.8,14.6c5.5-3.6,9.9-6.5,13.8-9.2c22.1,7.9,44.5,12.9,64.4,24.7
		c23.3,4.1,43.5,17.4,66.1,23.5c22.1,6,42.7,15.9,66.4,24.2c3.4,9.6,10,19.2,27.1,16.4c-2.7,4.7-3.8,7.6-5.7,9.7
		c-6.4,6.8-13.1,13.3-19.7,19.9c-1.9,1.9-3.6,4.4-5.9,5.4c-16.6,7-26.5,21.6-39.1,33.2c-6.8,6.2-12.1,14-21.9,16.6
		c-3.4,0.9-6,5.1-8.8,7.9c-8.5,8.4-16.9,17-25.5,25.3c-4.2,4.1-7.9,8.6-14.2,10.4c-4.1,1.2-7.5,5.3-10.8,8.5
		c-7.7,7.4-14.9,15.2-22.7,22.5c-5.7,5.4-10.3,12-18.9,14.1c-3.4,0.8-6.2,4.8-9.1,7.5c-8.1,7.9-16,16-24.1,24
		c-5.2,5.1-9.6,10.6-17.3,12.9c-4,1.2-7.3,5.6-10.6,8.8c-8.6,8.4-17,16.9-25.5,25.4c-4.2,4.2-9.1,7.3-14.2,10.4
		c-11.4,7.1-22.2,7.3-34.3,1.4c-10.1,9.9-25.9,13-34,28.2c1.1,14.5-6.4,26.8-15.3,39.9c-10.6,15.6-22.1,30.7-31,47.6
		c-5.1,9.8-13,18-19.2,27.3c-7.6,11.4-15.5,22.8-21.8,35c-6.1,11.7-14.5,21.7-21.1,33c-6.3,10.7-14.8,20-20.1,31.3
		c-3.6,7.8-13.2,11.7-13.9,21.4c-15,19.1-27.8,39.6-40.6,60.1c-1,1.6-3,2.5-5.3,4.5c-12.2-10.9-25.8-20.4-31.9-36.7
		c-0.9-2.4-2.5-4.7-3.5-7.1c-8.9-19.8-21.7-35.8-41.7-45.7c-6.9-3.4-11.3-11.3-19.7-12.7c-6.9-11.7-21-9.9-30.8-16.2
		c-3-1.9-7.7-1.3-11.7-1.4c-12.7-0.2-25.3-0.4-38,0c-7.8,0.3-13.7-3.3-15.9-9.7c-2.4-6.8-7.4-12.2-8.4-20c-1-7.4-4.7-15.3-9.5-21.3
		c-10.9-13.6-17.6-28.8-22.5-45.4c-2.7-9.3-8.2-17.9-12.6-26.7c-12.5-24.6-24.8-49.4-37.8-73.7c-6.2-11.5-12.6-23-21.8-32.5
		c-4.6-4.7-9.4-9-11.4-16c-1.1-4-5.6-7.2-8.9-10.5c-14.5-14.7-29.2-29.2-43.7-43.9C4328.1,2719.4,4328.1,2718.6,4338,2700.6z"/>
	<path onclick="modals(this.id);" id="2310" class="st0" d="M4430.8,1460.2c1.1-1.2,2.1-2.8,3.5-3.6c9.5-5.5,15.8-13.2,20.4-23.4
		c4.8-10.8,12.2-20.3,11-33.2c-0.5-5.1,3.4-9.4,7.5-10.9c7.4-2.7,13.1-9.2,21.7-9.1c3,0,6-2.3,9.1-3.3c8.6-2.9,15.6-10.3,25.7-9.5
		c0.6,0.1,1.5-0.1,1.9-0.6c11.5-12.1,30.9-15.1,37.2-34c2.5-7.4,9.9-13.6,18.8-16.7c8.6-3.1,16.5-8.1,24.7-12.2
		c1.2-0.6,2.8-0.6,3.6-1.5c9.5-10.2,21.3-17.4,32.5-25.4c10-7.2,15.7-17.9,20.3-28.8c3.1-7.3,7.2-11.9,14.4-15.1
		c4.4-2,9-6.2,11-10.6c4.4-9.6,11.1-16,20.2-20.9c4-2.1,7.4-5.4,11.3-7.9c2.7-1.8,5.7-4.5,8.5-4.4c8.5,0.4,13.2-5.1,18.6-10
		c6.7-6.2,12.5-12.9,21.5-17.1c8.5-3.9,16.7-11.2,16.4-23.1c-0.2-6.1,5.1-9,8.7-12.8c7.2-7.7,15.4-14.4,19.3-25
		c1.6-4.3,4.3-8.3,3.7-13c-1.3-11.9,2.7-22,10.2-32.2c12.4-0.4,24.7-1.5,38.1,3.4c16.6,6,34.4,3.1,48.4-9.1c7.2-6.3,14.5-8.4,23.6-8
		c9.3,0.4,18.7-0.2,28,0.2c5.8,0.3,11.7,1.4,17.4,2.9c2.8,0.7,4.9,1.1,7.4-0.4c1.7-1,3.7-2.3,5.5-2.1c12.1,0.8,23.5-1.9,34.4-6.8
		c15.5-6.9,33.8-5.4,48-15.8c5.1-3.7,10,3.9,14.7-1.2c4.2-4.5,8.3-1.3,12.5,1.2c1.3,0.8,3.7,0,5.5-0.5c2.5-0.7,4.9-2.9,7.2-2.8
		c12.1,0.8,23.5-1.9,34.5-6.5c7.2-3,15.5-4.9,21.2-9.8c8.2-7.1,18-10.7,26.9-16.2c16.7-10.4,34.5-20.5,45.6-37.1
		c7.8-11.7,16.6-22,26.2-32.1c2.1-2.3,2.7-5.9,4.5-8.6c2.2-3.2,4.4-7.9,7.6-8.8c10.9-3.4,17.3-12,24.8-19.3c4.8-4.7,9.6-7.9,17-9
		c10.1-1.6,19.6-6.3,29.8-9.8c3.2,4.5,5.5,9.4,9.2,12.8c14.2,13.2,23.5,29.6,34.1,45.5c7.4,11,14.7,21.7,19.8,33.9
		c1,2.4,3.6,4.6,3.6,6.9c0,15.9,13.8,21.7,22.4,31.2c11.6,1.9,13.3,12.6,15.7,20.6c5.8,19.3,13.5,37.2,29.2,50.3
		c13.3,11,19.4,26.4,26.8,41c1.7,3.3,1.8,7.7,1.9,11.6c0.2,11.3-0.2,22.7,0.2,34c0.6,15.3,1.3,30.6,2.7,45.8
		c2.4,26.7,1.3,53.1-5.1,79.3c-3.7,15.2-2.9,29.7,5.3,43.9c7.9,13.5,14,28,21.2,42.6c-13.9,13.9-26,29.8-41.6,40.6
		c-18.8,13-33.6,29.8-50.3,44.7c-8.5,7.6-18.4,12.8-30.4,12.3c-4-0.2-8,0-12,0c-178.5,0-357.1,0-535.6,0.1c-9.1,0-18.7-2.1-26.8,4.9
		c-1.7,1.5-5,1.4-7.6,1.6c-4,0.3-8,0.1-12,0.1c-129.2,0-258.5,0-387.7,0C4439.8,1463.2,4434.8,1465.4,4430.8,1460.2z"/>
	<path onclick="modals(this.id);" id="2313" class="st0" d="M3866.6,2094.9c7.2,0.6,11.7,0.5,16,1.4c4.4,1,8.5,3.9,12.8,4.3c7.4,0.7,12.2,7.9,20.4,7
		c7.1-0.7,14.6-1.2,21.4,2.9c1.5,0.9,4.8-0.9,7.2-1.5c8.5-2.2,16.7-3.1,24.8,2.2c6.6,4.3,16.1,1.2,22,8.1c6.3-0.6,12.7-1.3,21.3-2.1
		c6.9,6.8,15.5,15.1,24,23.4c3.6,3.5,7.3,5.9,13.1,1.9c0.6-5.8,1.3-12.3,2.1-19.3c3.4-2,6.7-3.9,10.4-6.1c2.9-8.4,0.8-17.8,6.4-26.4
		c4.6-7.2-0.2-18.6,7.1-26.1c-0.2-16.5,10.1-31.4,7.2-48.5c-1.1-6.4-0.6-13,4-19c2.1-2.8,1.6-7.6,2.5-11.4c1-4.4,2.3-8.8,3.6-13.1
		c0.2-0.6,0.8-1.2,0.9-1.8c0.6-7.2,1.1-14.5,1.8-21.7c0.7-7.2,8.1-12.2,6.4-20.4c-1.9-9.5,1.4-18.1,7.4-26.8
		c-6-6.2-11.4-11.8-17.1-17.7c-16.8,2-31.2-3.1-45.2-11.7c-8.2-5-17.3-9.6-28-8.1c-3,0.4-6.3-1.7-10.5-2.9
		c-15.2,9.6-32.8,11.7-51.1,10.6c-10-0.6-20-0.8-30-0.5c-8.3,0.3-15.1-2.9-22.6-5.8c-7.1-2.8-15.9-0.9-23.5-2.7
		c-5.6-1.3-10.5-5.4-15.8-8c-9.5-4.7-13.8-4.1-21.4,3c-2,1.8-3.8,3.7-5.6,5.7c-1.3,1.5-2.5,3.1-4.1,5c0,5.6,0,11.6,0,18
		c3.9,2.5,7.7,4.8,12.6,7.9c-3.4,7.2-6.6,14.1-10.4,22.2c-4.3-2.3-8.1-3.5-10.8-5.9c-9.4-8.3-16.8-18.8-29.4-23.3
		c-3.4-1.2-5.8-5.3-8.6-8.2c-32-32-64.1-64.1-96.1-96.1c-4.6-4.7-9.2-9.1-11.7-15.7c-2-5.2-7.5-9.1-11.4-13.6
		c-3.7-4.4-9.3-7.4-10.5-13.7c13.4-3.8,14-4.4,20.8-0.8c12.1,6.5,23.7,6.8,35.7-0.1c2.2-1.3,5.2-2.3,7.6-1.9
		c11.3,2.1,19.6-7.5,30.6-7.2c2.5,0.1,5.4-3.5,7.8-5.8c6.3-5.9,12.4-12,19.7-19.2c7.7,0,16.3-0.3,24.9,0.1
		c10.2,0.4,18.7-3.4,24.4-11.2c8.5-11.6,19-17.6,33.6-18.4c6.9-0.4,13.6-4.6,21.8-7.6c16.7,9.1,36.1,4.8,55.1,4.7
		c4,0,9.2-2.9,11.9-6.2c7-8.6,16.6-13.3,26.1-17.5c7.9-3.5,13.4-7.5,16.1-15.9c1.8-5.5,5.5-10.4,8.8-16.5c2.2,0.3,5.5-0.3,7,1.1
		c8.1,7.2,17.9,5.8,26.6,4.3c7.4-1.3,14.2-6.3,21.1-10c1.6-0.9,3-2.8,3.9-4.5c8.6-15.4,19.5-29.6,26.3-46
		c4.5-10.8,14-13.6,23.2-15.1c10.4-1.7,21.4-1.3,31.9-0.1c6.9,0.8,14.1,3.8,20.1,7.6c11.5,7.2,23.1,12.6,37.1,11.2
		c3-0.3,6.7,1,9.2,2.8c4.3,3.2,7.5-0.7,12.1-0.9c13.2,13.2,26.8,26.9,40.6,40.4c4.2,4.1,5.4,8.8,5.4,14.4
		c-0.1,40.7,0.5,81.3-0.4,122c-0.2,10.1-4.4,20.4-8.1,30.1c-1.7,4.2-3.3,8.3-4.6,12.8c-1.9,6.9-4.1,14.6-8.7,19.6
		c-11.2,12-16.4,27-23.1,41.2c-8.1,17.1-13.5,35.4-23.3,51.8c-2.1,3.5-1.1,8.8-1.5,13.3c27.2,13.9,53.3,27.7,79.9,40.4
		c8.3,3.9,14.3,9.2,20.4,16.9c-2.5,2.8-4.5,7.3-7.5,8.1c-8.4,2.2-13.2,8.6-19.1,13.7c-14.3,12.3-25.1,26.9-32,44.6
		c-6.3,15.9-17.4,29.3-25.2,44.4c-11.2,21.6-22.2,43.3-32.8,65.1c-1.9,4-2.1,8.8-3.1,13.3c-0.7,3.2-0.2,8-2.1,9.4
		c-9.1,6.3-6.5,15.4-6.3,23.6c1.7,56.6,3.6,113.2,5.5,169.9c0.2,5.3,0.5,10.7-0.2,15.9c-2.3,15.5-15.6,26-31.1,24.9
		c-8.6-0.6-17.2-1.8-25.8-2.2c-8-0.4-16-0.1-24.9-0.1c-4.2-3.5-8.7-7.2-13.8-11.4c-8.5,5.7-14,14.4-21.9,20.2
		c-7.7,5.7-5.8,18.3-18,21.5c-4-4.2-10.6-8.1-12.7-13.7c-3.5-9.4-10.4-15.3-16.8-21.8c-19.7-19.9-39.5-39.7-59.3-59.4
		c-4.8-4.8-9.7-9.3-8.7-17c-7.9-11.1-3.6-26-11.6-37.2c-0.7-1-0.8-2.6-0.7-3.9c1.2-11.5-2.3-21.9-6.6-32.4
		c-4.1-10.2-7.4-20.9-10.3-31.4c-3-11.2-7.7-21.9-9.7-33.7c-2-11.5-3.5-24.8-13.8-33.7c-1.5-1.3-3.3-3.2-3.3-4.8
		c0-8.4-4.4-15-7.7-22.1C3875,2112.7,3871.6,2105.6,3866.6,2094.9z"/>
	<path onclick="modals(this.id);" id="2317" class="st0" d="M6363.6,2884.4c-7.1,0.3-12.9,0.8-18.8,0.8c-35.3,0.1-70.6,0.8-105.9-0.4
		c-13.3-0.4-23.6,7.7-36.2,8.6c-2.6,0.2-6,3.8-7,6.6c-3.5,9-10.5,17-8.9,27.8c0.3,1.8-0.8,3.8-1.4,6.5c-8.2,2.7-16,3.5-24.4-1.2
		c-4.3-2.4-10-2.4-15.2-3c-17.8-2.2-27.2-0.6-44.4,5c-6.8,2.2-13.7,4.3-20.4,6.4c-8.9,2.9-19.4,4.1-28.6-2.5
		c-8.7-6.2-22-6.1-26.3-18.7c-17.6-5.8-20.2-22.9-27.6-36.8c1.2-4.7,3.6-9.8,3.4-14.7c-0.4-12.2,5.6-21.6,12.6-30.4
		c9-11.3,14.4-23.4,13.2-38.2c-0.7-8.6,0.2-17.4-1.5-25.8c-1.7-8.2-6.2-15.7-8.6-23.8c-1.7-5.6-2.5-11.6-2.8-17.4
		c-0.2-5-5-8.3-2.6-14.9c4.1-11,6.7-22.5,14-32.1c8.7-11.5,15.6-24.4,26.9-33.9c2.8-2.3,4.7-6.6,5.4-10.3c3.1-14.8,1-29.1-7.4-41.8
		c-6.1-9.3-13.3-18-19.7-27.1c-2.6-3.7-4.6-7.9-7.1-12.1c-11.9-1.4-23.5-2.2-34.4,5.3c-3.4,2.4-5.5,4.8-7.7,8.1
		c-4,6-8.5,13.2-14.6,15.7c-12.7,5.2-19.9,14.6-26.1,26.8c-3.1-0.8-6.3-1.2-9.2-2.3c-18-7.4-37.2-1.1-45.1,16.2
		c-5.1,11.2-8.9,23-12.7,34.8c-4.3,13-7.2,26.9-14.3,38.3c-6.6,10.5-5.3,18.4,1.5,26.9c-5.1,12.3-10.1,24.2-16.4,39.3
		c-1.9,1.8-7.8,2.3-12.1-0.8c-5.9-4.4-12-4.9-18.7-5.2c-3.2-0.1-6.3-1.5-9.4-2.6c-1.8-0.7-3.5-2.8-5.2-2.7
		c-13.4,0.7-25.7-4.4-38.5-6.9c-5.8-1.1-11.8-0.6-16.7-5.1c-1.3-1.2-3.8-1.9-5.6-1.6c-13.2,2.3-20.7-6.2-28.8-14.3
		c-10.8-10.8-22.2-21.1-33.2-31.5c0-12,0-22.6,0-34.1c-12.9-2.6-23.3-9.7-36.3-9.8c-6.1,0-12.1-4.7-18.4-5.8
		c-5.8-1.1-11.9,0.1-17-4.2c-1.4-1.2-3.6-1.9-5.5-1.9c-8-0.2-15.4-1-22.7-5.6c-4-2.5-10.4-0.8-15.6-1.9c-2-0.4-4.7-3.1-4.9-5
		c-0.2-1.9,1.8-4.8,3.6-6.2c2.5-2,5.8-3.1,8.8-4.3c9.4-3.9,16.8-8.9,20.7-19.6c2.5-7,9.3-12.5,15.5-20.5c8.8-1.2,19.8-3.2,30.2,3.7
		c1.5,1,3.8,1.3,5.7,1.3c15.2,0.2,30.4,0.6,44.4-0.2c1.9-2.6,3.4-3.7,3.3-4.7c-1.1-16.6,5.4-30.6,13-44.8
		c5.4-10.3,10.8-21.4,12.4-32.7c1.5-10.7,7-17.4,14.5-22.5c8-5.4,16.7-10.5,27.5-9.5c7.9,0.7,16,0,24,0.3c3.2,0.1,8.1,0.4,9.2,2.4
		c4.8,8.4,12.4,6.1,19.5,6.4c13.8,0.5,28.1-2.4,41,5.3c1.5,0.9,4.1,1.1,5.6,0.4c9-4.1,16.3-0.5,24.3,3.7c8.6,4.5,18,7.3,27.2,10.6
		c8.6,3.1,15.8,9.9,25.7,9.6c1.7-0.1,3.5,1.6,5.3,2.5c15,8.2,31,13.6,47.7,17.1c2.4,0.5,4.6,2.4,6.8,3.6c5.5-2.3,9-5.7,9.7-11.7
		c1.4-12.3,9.4-23,7.8-37.3c12.2,3.1,22.3,8.6,33.4,6.4c4.8,4.6,9.2,8.7,13.4,12.9c6.5,6.5,12.4,14.3,23.3,12.9
		c12.3,6.2,24.6,12.4,36.5,18.4c5.9-2.2,11.4-4.2,16.8-6.2c5.4-2,10.9-3.9,17.3-6.2c3.2,2.6,6.5,5.7,10.3,8.3
		c2.6,1.8,5.6,3.4,8.6,4.3c7.5,2.3,15,5.6,22.6,6c18.6,0.8,37.3,0.5,55.9,0c3.7-0.1,7.3-2.6,11-3.9c10.2-3.7,18.5-2.2,21.9,7
		c3.9,10.8,11.7,15.1,20.8,19.5c13.1,6.2,25.8,12.9,38.7,19.4c12.3,6.2,24.6,12.4,37.2,18.8c0.3,4.2,1.1,8.2,0.7,12.1
		c-1.8,16.3,4.5,29.7,14.6,41.7c9.7,11.3,13.5,24.3,10.5,38.6c-1.8,8.8-4.7,17.9-9.1,25.6c-7.4,12.8-11,26.8-13.9,40.8
		c-1.8,8.6-4.7,16.5-8.6,24.1c-6.8,13.4-9.1,28.8-17.8,41.4c0,14.4-4.4,29,3.5,42.8C6360.1,2872.9,6361.3,2878.1,6363.6,2884.4z"/>
	<path onclick="modals(this.id);" id="2315" class="st0" d="M6068.9,2318.5c8.8,16,22.1,28.1,37.4,38.4c16.9,11.3,34.6,22,46.4,39.6c-2,10.5-8.3,18.5-16,26
		c-11.6,11.4-16.3,25.9-13,41.7c2,9.4,6.5,18.3,10.3,27.3c2.2,5.2,3,10.1-0.6,16c-7.9,1.8-15.6,2.5-24.1-2.1
		c-7.9-4.2-15.6-9.7-25.5-10.1c-3.7-0.1-7.7-4.8-10.8-8.1c-5.6-5.8-11.9-10.5-19.6-13.1c-3.7-1.2-7.5-2.8-11.3-3.1
		c-8.5-0.7-16.8,0.1-24.8-5.3c-4.2-2.9-11.5-1.1-17.5-1.5c-5.9,9.7-11.7,18.3-10.5,29.8c0.6,6-3.3,9.8-8.3,12.4
		c-13.2-3.7-26.3-7.2-38.2-14.5c-6.5-4-15.8-1.8-21.9-7.9c-10.1,1.3-17.2-6.1-25.7-9.2c-12.3-4.4-24.7-8.4-36.4-14.3
		c-3.3-1.7-7.8-1.1-11.8-1.1c-10-0.1-20,0.3-30-0.2c-5.9-0.3-12.1-0.9-17.5-3.2c-19.4-8.1-39.5-3.6-59.2-3.6
		c-7.1,0-12.6,6.4-16.9,12.7c-3.7,5.4-7.5,12.5-12.9,14.6c-14.7,5.9-16.4,19.3-20.4,31.2c-1.4,4.3-2.7,8.5-4.7,12.7
		c-5.7,12.5-10.3,25.4-15.4,38.1c-0.5,1.2-1.6,2.1-3.2,4.1c-5.1,0-12.4,2.3-16.6-0.4c-13.2-8.4-27-4.8-40.7-5c-0.7,0-1.3,0.2,0,0
		c-8.6,5.9-15.6,10.8-22.7,15.6c-1.1,0.7-2.7,1-3.3,2c-13.5,22.2-39.9,30.5-55.1,50.8c-5.1,6.8-13.7,7.7-19.9,12.1
		c-10.3-3.5-19.2-8.8-26.1-17.2c-4.1-5-9.4-6.8-15.9-6.6c-12.4,0.5-24.7-1.4-37.2,3.3c-15.1,5.7-30.8,0.3-44.5-5.9
		c-30.4-13.9-59.9-29.8-90.8-45.4c1.2-3.3,1.7-6.7,3.5-8.9c3.8-4.6,8.9-8.2,12.4-13c8.5-11.3,20.1-14.7,33.3-14.2
		c6,0.2,11.9,0.9,17.9,1.4c12.8,1.1,23.2-2.1,31.1-13.5c7.1-10.2,16-19.2,23.7-29.1c2.8-3.5,4.3-8,6.7-12
		c6.3-10.7,10.4-23.1,22.8-29.2c2-1,3.2-3.9,4.4-6.1c2.4-4.7,3.5-10.4,6.8-14.2c15.9-18.6,27.5-40.5,46-57.1
		c4.8-4.3,8.2-10.5,11.3-16.3c8.1-15.1,19.3-27.1,34.5-35.1c6-3.2,8.9-7.9,10-14c1.4-7.9,2.7-15.8,3.3-23.7
		c0.7-9.7,2.9-18.3,10.5-25c1.3-1.2,1.6-3.5,2.4-5.2c-5.5-15.1-19.5-23.1-31.1-35.8c17.1-5.5,32.5-0.4,47.7-3.8
		c5.9-4.1,11.3-9.6,18.6-13.3c7.9-4,14-12.1,20-19.1c2.2-2.6,2.1-7.4,2.5-11.3c0.9-7.8-1.6-15.9,3.2-24.6c5.4-0.3,11.3-0.9,17.2-0.9
		c70-0.1,140,0,209.9,0c3.3,0,6.7-0.1,10,0.2c7.5,0.7,12.4,5.2,14.2,12.1c4.3,16.5,10.7,32,17.5,47.6c5.9,13.5,10.3,28.1,14.1,42.5
		c1.8,6.5,3.9,12.6,7.3,18c6.2,9.6,5,21.7,12,30.9c2.3,3.1,4,6.8,5.4,10.4c4.6,12.3,14.7,16.4,26.3,16.8c22,0.6,44,0.3,66,0.1
		c3.2,0,7.3-0.1,9.5-1.9C6052.1,2316.4,6059.8,2317.4,6068.9,2318.5z"/>
	<path onclick="modals(this.id);" id="2321" class="st0" d="M5854.6,3221.3c1.7,3.8,2.5,5.5,3.3,7.3c0.8,1.8,1.6,3.5,2.4,5.5c-4.8,6.3-12,10.6-11.6,20.2
		c0.1,3.7-3.7,9.6-7.1,11c-13.9,5.6-16.4,17.4-18.9,29.7c-0.2,1.2-1.4,2.1-2.9,4.4c-3.1,0-8.1,1.6-10.6-0.3
		c-8.3-6.2-17.4-5.5-26.7-5.9c-3.2-0.1-6.3-1.5-9.4-2.5c-2.5-0.8-5-3.2-7.2-2.9c-15.2,2.3-27.9-6.2-42.5-9.1
		c-1.2-4.9-1.4-10.4-3.8-14.8c-2.5-4.5-7.4-7.6-10.6-11.8c-6.3-8.3-19.2-9.2-22.4-20.8c-9.4-4.7-18.8-9.4-28.2-14.3
		c-4-2.1-7.7-4.6-10.9-6.5c0-2.7-0.4-4.2,0.1-5.3c3.5-9.3,3.3-13-3-16.9c-6.1-3.7-12.8-6.8-19.5-9.2c-8.6-3-17.8-4.3-26.1-7.7
		c-8.1-3.3-13.8-9.8-17.5-17.3c1.3-7.4,5.8-11.3,11.5-13.5c9.9-3.8,16-11,20.6-20.1c2.1-4,5-7.7,8.2-11
		c9.7-10.1,19.3-20.3,29.7-29.6c9.3-8.2,14.3-18.6,19.4-29.9c-8.2-10.1-16.2-19.1-27.7-25.4c-8.4-4.6-14.9-12.8-22.6-19.7
		c5.8-8.6,10.8-16,16.4-24.3c6.4,3,14,4.7,19.1,9.1c14.4,12.6,31.8,20.7,46.8,32.4c12.3,9.6,27,16,39,26.4c5.7,5,14,3.2,19.6-2.5
		c5.6-5.7,6.2-14.3,12.9-19.7c5.9-4.8,9.9-12,15.7-19.3c10.5,3.5,22,7.4,33.7,11.3c7.5-4.5,15.7-8.7,23.2-14.1
		c3.5-2.5,6-6.8,8.3-10.7c3.6-6.2,6.8-12.7,9.9-19.2c6.4-13.5,13.3-26.3,31.2-26.1c15.4-7.1,31.5-12.6,46.8-20
		c15.2-7.3,31-14.5,53.4-9.3c6.8,7.4,16.2,17.7,25.7,28c4.6,5,9.7,7.7,16.9,9.1c11.3,2.3,22,7.6,32.6,11.5
		c14.1-5.8,27.6-12.7,41.8-16.9c12.7-3.8,26.8-4.3,39.2,0.6c7.1,2.9,13.7,4.2,20.9,4.3c7.3,0.1,14.6,0,22.6,0
		c6.8,13.3,13.2,26.1,20,38.8c3.2,5.8,3.7,11.7,0.4,17c-4.1,6.7-6.1,14.5-12.6,19.9c-18.6,15.4-18.5,36.7-16.8,58.2
		c5.6,7.6,5.7,17.3,9.3,25.7c1.7,4.1,3.1,8.8,3.2,13.2c0.3,24.6,0.2,49.3,0,73.9c0,1.8-1.1,3.6-1.7,5.7c-4.7-1.3-9.1-3.8-13.3-3.5
		c-18.3,1.2-35.1-3.5-51.2-11.5c-0.6-0.3-1.3-0.7-1.9-0.7c-10.9,0.8-20.3-4.5-30.3-7.1c-10.1-2.6-19.5-8.2-30.5-6.8
		c-7.4-7.7-19.3-4.2-27.1-10.9c-1.3-1.1-3.8-1.3-5.7-1.3c-13.4,0-25.1-6.2-37.2-10.8c-1.8-0.7-3.7-1.9-5.5-1.9
		c-14.7-0.4-28-5.8-41.1-11.8c-2.9-1.3-6.6-0.6-9.8-1.3c-4.4-0.9-8.9-2-13.1-3.6c-12-4.7-18-2.7-24.5,8.7c-2.3,3.9-4.3,8.2-7.3,11.5
		c-6.3,6.8-14.1,12.6-12.8,23.5c-5.1,7.6-6.8,17.1-14.4,23.4C5866.2,3208.8,5861,3214.9,5854.6,3221.3z"/>
	<path onclick="modals(this.id);" id="2316" class="st0" d="M5919.5,2630.4c6.4,3.3,13.3,7.1,20.3,10.5c11.5,5.5,21.9,1,23.7-11.7
		c1.4-10,5.5-15.3,14.8-18.7c4.4-1.6,9-6.5,10.5-10.9c2.6-7.6,8.4-11.8,13.5-16.9c4.6-4.5,9.7-4.4,13.6,1.2
		c8.2,11.8,16.4,23.7,22.8,36.4c3.8,7.5,4.8,17.4-3,23.9c-16,13.3-23.9,33.1-39,46.4c-1.9,8.9,0.5,17.8-5.5,25.6
		c-2.2,2.9-2.1,9.9,0,13.1c3.9,6.1,3.6,12.5,4.9,18.9c1.9,9.5,4.5,19.2,8.8,27.8c6.1,12.2,3.7,24,2.4,37.7c-4.3-1.9-7-3.6-10-4.2
		c-3.2-0.7-6.7,0-9.9-0.8c-9.4-2.4-19.5-4-27.9-8.4c-6.4-3.4-12.4-4-19-4.1c-8.5-0.1-17.4,1.4-24.7-5.1c-0.5-0.4-1.2-0.8-1.8-0.7
		c-17.1,1.5-29.4-9.8-43.7-15.3c-5.5-12.4,2.3-21.6,8-29.4c5.5-7.6,9.7-15.4,13.8-23.9c-2.3-2.5-4.4-5-6.7-7.3
		c-5.4-5.5-5.9-12.2-2.4-18.3c8.6-14.9,13.6-30.9,17.7-47.4C5902.3,2642.6,5905.9,2639.6,5919.5,2630.4z"/>
	<path onclick="modals(this.id);" id="2320" class="st0" d="M5871.5,2797.8c11.4,5.4,21.2,12.8,34.1,11.3c2.3-0.3,4.8,1.8,7.2,2.8c2.4,1,4.7,2.9,7.1,3.1
		c7.3,0.5,14.7-0.4,21.9,0.7c6.3,0.9,12.6,5.8,18.6,5.3c12.1-1,20.5,9.3,33.4,7.4c-2.2,6.3-2.8,11.7-5.7,15.7
		c-3.8,5.2-5.5,10.4-5.3,16.6c0.1,2.6-0.1,5.4-0.8,7.9c-4.7,17.2-4.8,17.2-2.3,28.6c-22,1.4-41.6,10.1-60.6,20.2
		c-11,5.9-23.2,8.2-34.6,12.7c-3,1.2-6.3,1.7-9.3,2.8c-11.1,3.9-19.1,10.8-22.9,22.5c-2,6.1-6,11.6-9,17.4
		c-7.4,14.4-17.4,20.2-35.3,20c-3-5.3-6.2-10.9-10.1-17.7c5.7-7.7,7.9-17.1,6.8-27.2c-1.4-12.8,4.4-23.1,11.8-32.5
		c3.3-4.2,6.2-8.3,8.3-13.3c4.3-10.3,11.8-18.8,17.6-28.3c8.2-13.3,9.6-29.7,18.3-43.2c2.8-4.3,1.3-11.7,1.2-17.6
		C5861.7,2806.1,5864.7,2801.5,5871.5,2797.8z"/>
	<path onclick="modals(this.id);" id="2288" class="st0" d="M5281.3,3357.6c5-10.7,14.3-17.1,22.7-24.9c10.6,10.8,24.9,15.5,34.6,27.1
		c9.4,11.2,20.6,20.8,30.9,31.3c5.2,5.2,10.1,10.3,17.6,12.5c2.8,0.8,4.8,4.3,7.4,6.6c-0.9,2.1-1.2,4.6-2.6,5.5
		c-9.1,6.3-18.6,12.2-27.8,18.4c-11.4,7.6-22.7,15.3-35.5,21c-6.8,3.1-11.6,10.7-17.4,16.2c-2.4,2.3-4.8,4.9-7.7,6.2
		c-1.9,0.8-5.6,0.1-7-1.4c-1.4-1.5-2.1-5.8-1-6.9c5.4-5.7,11.4-10.9,17.3-16.1c1.4-1.2,3.4-1.8,5.1-2.6c4.7-12.4,1.2-22.1-8.5-30.3
		c-3.4-2.9-5.9-7-8.6-10.3c0.9-2.6,1.3-4.6,2.1-6.3c5.9-13,5.6-15.3-3-24.7C5293.7,3372,5285.6,3366.8,5281.3,3357.6z"/>
	<path onclick="modals(this.id);" id="2289" class="st0" d="M5381.5,3337.7c-10.9-0.5-18.9,3.7-25.4,12.4c-3.9-3.1-7.4-5.8-10.7-8.7
		c-9.8-8.6-17-20.4-30.5-24.6c-2.3-0.7-4-3.4-5.8-5.3c-13.5-13.6-27-27.2-39.9-40.4c0.8-11.4,10.1-15,15.1-21.6
		c4.7-6.3,5.1-13.5,0.4-19.9c-1.2-1.6-2.9-2.8-4.2-4.2c-0.9-1-1.7-2-2.4-3.2c-0.3-0.5,0.1-1.3,0.2-2c2.1-4.2,5.9-3.6,7.6-0.7
		c3.7,6.1,5.6,13.5,14.6,16.7c4.2-1.9,9.4-4.2,13.9-6.2c6.9,8.4,13.4,15.7,19.3,23.5c4.7,6.2,8.5,13.2,13.3,19.3
		c4.5,5.6,9.3,10.5,12.6,17.4c4.8,9.8,12.4,18.3,19,27.3C5383,3323.4,5383.1,3323.3,5381.5,3337.7z"/>
	<path onclick="modals(this.id);" id="2308" class="st0" d="M3930.6,2045.4c-1.2,15.4,0.3,30.4-12.2,42.7c-12.6-9-30.4-3.4-43.6-15.7
		c3.2-7.8,6.4-16.4-0.7-25c-1.8-2.2-1.6-6.3-2.1-9.5c-0.5-3.7-2.8-5.3-5.8-7.1c-6.7-4-9.5-9.4-5.9-14.2c6.2-8.3,4.9-17.5,6.4-26.3
		c4.2-5,9.7-5.4,14.6-3c14.6,7.3,31.2,9,45.6,16.6c1.1,0.6,2.5,0.7,3.8,0.9c4.6,0.4,9.6-0.3,13.8,1.2c5.4,1.9,10.3,5.5,15.4,8.3
		C3963.2,2039,3961.3,2041.2,3930.6,2045.4z"/>
	<path onclick="modals(this.id);" id="2302" class="st0" d="M5510.4,3374.5c12.2-8.5,25.6-11.3,34.6-21.8c8.5-10,18.6-18.6,27.3-27.1
		c9.3,0.3,12,7.8,17.6,10.9c5.4,3.1,13.4,2.9,14.5,12.8c-2.4,1.2-5.2,2.5-8.9,4.3c-1.5,7.9-2.1,15.4,2.1,24
		c3.5,7.2,2.9,16.5,3.8,22.9c-6,9.8-10.6,17.7-15.7,25.3c-3.4,5.2-8.2,8.4-15,8.1c-4.6-0.2-9.3-0.4-13.9,0.3
		c-3.7,0.6-7.2,2.4-12.2,4.2c-1-13.1-9.2-22.9-13.2-34.2C5527.2,3392.3,5514.2,3387.6,5510.4,3374.5z"/>
	<path onclick="modals(this.id);" id="2309" class="st0" d="M4007,2087.5c-7.6,3.4-14,9.5-22.5,7.1c-9.3-2.6-18.8-5.1-27.7-8.8c-3.1-1.3-5.3-5.6-7.2-9
		c-0.7-1.3,0.5-3.7,1.1-6.3c3.9-0.7,7.8-1,11.5-2c5.4-1.5,9.6-5,11.2-10.3c3.4-11.8,6.2-23.7,9.5-36.6c4.3,0.8,9.2,1.8,14,2.7
		c5.1,1,10.2,1.9,15.2,3.1c4.4,1,8.6,3,13.1,3.4c5.4,0.4,10.1,1.7,14.9,4.4c4.3,2.4,9.9,2.5,15.3,3.7c2.3,7.7,4,15.4-0.3,21.5
		c-4.3,6.1-3.3,12.5-4.9,18.7c-2.9,11.2-6,23-19.4,29C4023,2101.3,4015.1,2094.5,4007,2087.5z"/>
	<path onclick="modals(this.id);" id="2290" class="st0" d="M5434.3,3191.3c-2.3,5.2-4.1,10.9-7.2,15.8c-2.4,3.7-6.3,6.5-9.9,9.2c-3.6,2.7-8.1,4.4-11.4,7.4
		c-11,9.9-11.3,12.4-4.7,27.4c0.8,1.7,0.8,3.8,1.1,5.5c-14.7,10.3-14.7,10.3-22,28c-2.2-3.6-3.9-7-6.3-10c-2.4-3.1-5.7-5.6-8.2-8.7
		c-2.8-3.6-5.1-7.5-7.7-11.3c-1.8-2.7-3.4-5.6-5.5-8.1c-3.9-4.5-8.8-8.3-12-13.2c-3.2-4.8-4.9-10.6-7.3-16c0.3-1.3,0.2-2.9,0.9-3.8
		c10.2-12.1,17.2-12.2,23.1,1.3c3.7,8.6,10,13.4,16.6,20.6c6.6-6.4,14-10.5,16.7-19.6c1-3.5,4.5-6.3,6.8-9.5c1.8-2.7,5-5.6,4.8-8.2
		c-0.4-9.5,6.6-15.5,9.3-23.4C5427.7,3181.5,5427.7,3181.5,5434.3,3191.3z"/>
	<path onclick="modals(this.id);" id="2305" class="st0" d="M3994.9,1955.5c5.4,0,10.3-1.1,14.1,0.3c4.9,1.8,10.3,3,14.5,5.3c14,7.4,31.4,4.1,45.3,16
		c0.2,2.3,1.3,6.4,0.5,9.9c-1.2,5-4.4,9.5-5.6,14.4c-1.1,4.4-0.8,9.1-1.1,14.5c-8.7,2.9-16.1,2.5-24.8-0.8
		c-11.3-4.3-22.4-10-35.2-10.3c-10-0.2-15.4-6.7-15.5-16.8c-0.1-3.9,0.3-8,1.3-11.7c1.1-3.7,3.7-6.9,5-10.5
		C3994.2,1962.8,3994.3,1959.5,3994.9,1955.5z"/>
	<path onclick="modals(this.id);" id="2304" class="st0" d="M4081.5,1905.5c1.4,12.9,2.6,23.9-4.3,34.2c-1.6,2.5-0.6,6.6-1.6,9.7c-1.1,3.5-5.2,6.1-7.7,3.9
		c-7.4-6.6-16.6-3.7-24.5-6.1c-12.3-3.8-24.1-9.3-36.8-14.4c1.2-8.5-4.8-15.3-3.4-23.3c1.3-7.7,3.2-15.2,5-23.4
		c6.7-3.8,13.7-1.8,20.1-1.2c1.3,2.2,2.5,3.2,2.5,4.4c0.4,7.6,1.9,15.1,9.7,18.2c7.5,3,15.6,3.6,22.9-1.3
		C4068.9,1902.6,4074.4,1903,4081.5,1905.5z"/>
	<path onclick="modals(this.id);" id="2291" class="st0" d="M5460.9,3260.9c3.7,3.3,7,6.2,10.5,9.3c-13.6,11-21.8,24.9-28.9,39.5c-1.9,3.9-1.1,9.1-1.3,13.8
		c-0.2,6,0.1,12-0.2,18c-0.3,5.9-0.5,5.9-9.6,13.9c-1.6-0.9-4-1.5-4.8-3c-4.7-8.7-11.4-16.1-16.3-24.5c-3-5.2-6.3-9.9-10-14.6
		c-5.2-6.5-4.9-8.1,3.1-13.3c3-2,4.7-4,5.6-7.5c4.2-16,4.3-16.4,20.9-17.7c9.1-0.7,15.4-7.2,23.5-9.7
		C5455.9,3264.3,5458,3262.6,5460.9,3260.9z"/>
	<path onclick="modals(this.id);" id="2318" class="st0" d="M4250.1,2710.1c-8,0-12.9,0-20.3,0c-13.7-13.3-29.2-28.3-44.2-44.5c2.4-2.9,3.7-5.9,5.8-6.7
		c7-2.8,11.6-6.9,14.9-14.2c5.2-11.6,26.9-11.2,33.7-0.2c2.3,3.7,2,7.6-1.6,10.3c-10.5,7.9-11.1,9.5-5.9,20.1
		C4237.8,2686,4243.4,2696.9,4250.1,2710.1z"/>
	<path onclick="modals(this.id);" id="2307" class="st0" d="M3914.5,1977.3c-12.8-4-25.7-8.1-38.5-12.1c0.8-8.4,1.8-16.7,2.4-25c1-14.9,10.9-21.8,24.3-15.2
		c7.2,3.6,14,3.6,21.1,3.4c7.5-0.2,12.8,2.3,16.7,9.8c-2.1,1.2-4.1,2.5-6.3,3.6c-7.8,4-12.1,9.9-11.2,19.1
		C3923.6,1968,3921.7,1974,3914.5,1977.3z"/>
	<path onclick="modals(this.id);" id="2303" class="st0" d="M3984.7,1898.6c-1.4,5-3,9.3-3.9,13.7c-0.8,4.4-0.9,8.9-1.4,14.6c-6-2.4-11.2-3.6-15.4-6.3
		c-4.7-3-9.3-5.8-14.7-4.6c-9.5,2.2-15.4-7.2-24.4-6.8c-8.5,0.4-17.5,1.5-24.6-5.3c-10.7,0.8-18.3-6.4-28-9.8c0.5-3.1,1-5.5,1.7-9.4
		c8.5,5.2,16.3,8.7,24.5,2.2c1.1-0.8,4.1-0.5,5.4,0.4c6.6,5,14.1,2.8,21.2,3.2c6.6,0.3,12.9,0,19.1,4.1c6,4,12.3,1.9,18.6-1.7
		C3971.7,1887.9,3979.3,1890.6,3984.7,1898.6z"/>
	<path onclick="modals(this.id);" id="2301" class="st0" d="M5522.5,3444.2c-8.9,2.7-15.8,12.1-27.9,6.9c-2.5-7.1-9-13.2-9.2-22.5c-0.1-3.4-3.2-7-5.5-9.9
		c-3.7-4.5-7.9-8.6-12.5-13.5c4.5-4.7,8.3-9.3,12.7-13.1c5.2-4.5,12.8-4.4,18,0.4c5.2,4.8,11,9.1,13.4,16.7
		c2.2,6.7,6.2,12.9,9.8,19.1C5524.2,3433.2,5524.1,3438.2,5522.5,3444.2z"/>
	<path onclick="modals(this.id);" id="2319" class="st0" d="M4256.3,2670.2c7-6.8,13.4-13.2,20.5-20.1c4.3,4,8.1,6.7,10.8,10.2c4.3,5.6,7.5,12.1,11.8,17.7
		c3.9,5.1,8.7,9.6,13.1,14.3c-2.6,9.1-9.2,13.5-15.2,19.1C4277.4,2704.7,4264.5,2691.2,4256.3,2670.2z"/>
	<path onclick="modals(this.id);" id="2292" class="st0" d="M5515,3250.2c4.7,4.6,9.3,9.1,14.8,14.4c-2.3,2.6-3.7,4.7-5.5,6.2c-4.9,4.1-7,9.2-6.7,15.7
		c0.4,7.3-0.1,14.5,0.1,21.8c0.1,5.8-2.2,10.1-6.6,13.7c-5.1,4.2-9.2,3.6-12.5-2.5c-3.7-6.9-7.3-13.9-10.8-20.9
		c-3.1-6.4-3.9-13.1,1.7-18.3c8.2-7.7,14.9-16.4,20-26.4C5510.4,3252.5,5512.7,3251.8,5515,3250.2z"/>
	<path onclick="modals(this.id);" id="2299" class="st0" d="M5327.9,3487.1c8.2-7.8,14.1-18.3,26.3-22.3c2.9-1,5.5-3.7,7.7-6c3.9-4,8.2-6.4,14-5.9
		c6.1,0.5,9.2,4.7,12.9,9.5c-8.6,11.6-20,20.8-30,31.2c-4.8,5-10.9,3.9-16.8,3.9C5335.5,3497.5,5330.8,3494.5,5327.9,3487.1z"/>
	<path onclick="modals(this.id);" id="2300" class="st0" d="M5423.2,3457.8c2-3.3,2.8-6.3,4.6-7.1c8-3.7,13.7-9.4,17.2-17.4c0.2-0.6,0.9-1,1.4-1.4
		c5.1-5.3,10.2-5.2,15.3,0.4c1.3,1.5,3.6,3.1,3.6,4.6c0,7.3,11.3,11.9,5.7,19.5c-4.4,6-12.4,2.9-18.8,2.9
		C5443.1,3459.3,5433.9,3460.8,5423.2,3457.8z"/>
	<path onclick="modals(this.id);" id="2294" class="st0" d="M5504,3353.8c-3.2,4.4-5.1,7.1-7.4,10.4c-5.1-4.8-8.5-7.9-11.8-11c-4.3-4.1-8.5-7.9-14.6-9.9
		c-5.8-1.9-9.7-6.9-9.9-13.7c-0.2-7.9-1.3-16.2,9.3-20.9c7.1,6.5,7.5,17.5,14.3,24.5C5490.4,3339.8,5496.9,3346.5,5504,3353.8z"/>
	<path onclick="modals(this.id);" id="2306" class="st0" d="M3943.9,1962.5c9.6-3.2,16.8-8.3,19.4-18.4c0.3-1.1,5-2.3,6.8-1.5c1.8,0.8,2.7,4,3.5,6.3
		c0.3,1-0.6,2.5-1.2,3.6c-3.4,6.3-7,12.7-11,19.9c1.2,3.1,2.7,6.6,4.1,10.2c-8.3,10.9-8.3,10.9-18.2,5.6c-2.8-1.5-5.6-3-8.3-4.5
		C3940.6,1977,3942,1970.7,3943.9,1962.5z"/>
	<path onclick="modals(this.id);" id="2296" class="st0" d="M5373.5,3367.6c9.3-7.7,17.7-14.6,26.3-21.6c3.4,6.4,6.4,12.1,9.4,17.5
		C5397.7,3380.3,5396.6,3380.4,5373.5,3367.6z"/>
	<path onclick="modals(this.id);" id="2297" class="st0" d="M5424.3,3413.6c-4.2-4.1-7.6-7.1-10.7-10.5c-6.3-7.1-3.1-17,6.6-19.3c2.1-0.5,5.2,0.5,7.1,1.8
		c4.5,3,7.5,7.1,7.2,13.1C5434.3,3404.2,5434.1,3404.8,5424.3,3413.6z"/>
	<path onclick="modals(this.id);" id="2295" class="st0" d="M5442.3,3374.4c4-8,8.6-10.8,15.3-10.7c7.1,0.1,10.5,4.2,14.6,11.3c-4.4,4.5-8.9,9.1-14.2,14.5
		C5451.8,3383.5,5447.2,3379.2,5442.3,3374.4z"/>
	<path onclick="modals(this.id);" id="2298" class="st0" d="M5413.6,3428.6c-0.2,12.1-5.3,18.7-12.3,17.2c-2.1-0.4-3.4-4.5-5.7-7.8
		C5401.9,3434.7,5406.9,3432.1,5413.6,3428.6z"/>
	<path onclick="modals(this.id);" id="2293" class="st0" d="M5526.7,3346.3c-1.5-5.9-2.9-8.3-2.2-9.4c2-3.2,4.7-6,7.4-8.7c0.4-0.4,2.5,0.2,3.3,0.9
		c0.8,0.8,1.6,2.7,1.2,3.4C5534.1,3336.2,5531.4,3339.6,5526.7,3346.3z"/>
	
	<path onclick="modals(this.id);" id="2311" class="st0" d="M5103.8,2053.6c-1.3-13.4-1.9-26.5,0.4-39.3c3-1,4.8-2.2,6.6-2.2c63.9-0.1,127.8-0.1,191.6-0.1
		c8.9,12.7,17.5,24.9,26.1,37.1c0.8,1.1,2.1,1.9,2.5,3.1c5.7,18.5,21.4,31.5,27.4,49.8c12.6,12.1,15.9,30,27.3,43.1
		c8,9.2,13.4,20.8,19.5,31.5c7.4,13.1,16.2,25.3,24.6,37.7c3.9,5.9,6.7,12.5,10.3,19.4c-11.1,6-20.5,13.5-33.3,14.4
		c-5.3-9.7-9.4-19.5-15.6-27.7c-6.3-8.4-15-15.1-22.1-23c-4.4-4.9-8.1-10.6-11.5-16.3c-13.1-21.6-26-43.3-39-64.9
		c-1.7-2.8-3.8-5.5-4.8-8.6c-3-8.8-8.9-12.3-18.1-12.1c-12.6,0.2-25.3-0.8-37.9-0.7c-10.5,0.1-21.5-2.4-30.8,5.1
		c-12.4,0.3-24.5,2.8-37-3.2c-15-7.2-30.9-12.2-42.8-24.6c-1.3-1.3-3.4-2.6-5.1-2.7C5127.4,2068.7,5117,2058.5,5103.8,2053.6z"/>
</g>
</svg>
