<?xml version="1.0" encoding="utf-8"?>
<!-- Generator: Adobe Illustrator 19.0.0, SVG Export Plug-In . SVG Version: 6.00 Build 0)  -->
<svg version="1.1" id="Layer1" xmlns="http://www.w3.org/2000/svg" xmlns:xlink="http://www.w3.org/1999/xlink" x="0px" y="0px"
	 viewBox="0 0 5600 2860" style="enable-background:new 0 0 5600 2860;overflow: hidden; display: inline; width: inherit; min-width: inherit; max-width: inherit; height: inherit; min-height: inherit; max-height: inherit;" xml:space="preserve">
<style type="text/css">
	.st0{fill:#8FD4EB;stroke:#000000;stroke-width:3;}
</style>
<g>
	
	<path onclick="modals(this.id);" id="2357" class="st0" d="M3427.2,716.8c-4-2.2-6.5-3.6-10.1-5.6c-0.3,3.7-1,6.6-0.7,9.4c1.5,14.3-2.7,27.4-8,40.3
		c-1.2,3-1.9,6.4-2,9.7c-0.4,14-0.5,28-0.8,42c-0.6,29.3-1.3,58.5-2,87.8c-0.7,28.3-1.3,56.5-2,84.8c-0.3,10.9-0.9,21.8-1.4,33.2
		c-15.1,3.8-29.9,1.8-45.2,2.1c-0.7-7.9-1.2-15-1.9-22.7c-9-0.4-17.2-1-25.5-1c-19.3-0.2-38.7,0-58-0.1c-2.3,0-4.8,0.5-7-0.2
		c-9.6-3-17.7-0.1-25.2,5.6c-6.4,4.9-14,5.9-21.6,6.5c-8.3,0.6-16.6,0.8-25,0.7c-5.8-0.1-10.4,1.8-14,6.2
		c-6.2,7.7-14.2,12.8-23.3,16.5c-4,1.6-7.6,4-11.3,6.3c-7.3,4.5-20.6,2.8-25.7-3.7c-1.3-1.7-2-4.3-2.3-6.5
		c-1.6-13.5-7.4-25.4-12.8-37.6c-4.5-10-8.2-20.3-12-30.6c-1-2.8-2-5.8-1.8-8.7c0.6-10.9-5.2-17.4-14.9-19.4
		c-9-1.9-14.6-7.3-19.8-13.8c-6.1-7.5-7-7.7-16.1-4.5c-2.8,1-5.6,2.2-8.4,3c-8.1,2.3-16.1,3.6-24.2-0.8c-4.6-2.5-9.9-3.9-14.9-5.7
		c-2.2-0.8-4.5-1.9-6.7-1.8c-18.6,0.8-35.7-5.7-53-11c-2.7-0.8-5.7-1-8.5-1c-8.6,0-17.3,0.7-25.8,0.2c-3.7-0.2-7.4-2.6-10.9-4.5
		c-8-4.4-18.3-2.9-24.1,4.3c-4,4.9-7.4,10.2-11,15.5c-2.2,3.3-4.9,5.2-9.1,4.9c-8.3-0.6-16.5-1.2-24.8-1.4
		c-5.2-0.1-10.5,0.1-15.8,0.7c-4.6,0.6-9.1,2.4-13.6,2.8c-6.9,0.6-12.2,2.6-14.2,10.1c-0.5,2-2.6,3.8-4.3,5.1
		c-8.1,5.8-16.3,11.5-23.2,16.2c-13-6-25-11.5-37-16.9c-12.2-5.4-24.4-10.6-36.6-16c-6.3-2.8-12.6-5.6-18.8-8.6
		c-5.1-2.4-8.8,0-10.7,4c-3.1,6.3-7.7,10.2-13.5,13.9c-5.8,3.6-10.3,9.1-16.1,14.4c-3.8-4.9-7-8.9-10.5-13.5
		c3.9-9.5,7.5-19.4,12-28.9c1.8-3.6,5.8-6.1,9.3-9.6c-4.6-7.2-9-14.5-13.9-21.6c-1-1.4-3.2-2.4-5-2.7c-9.1-1.5-18.4-2.4-27.5-4.3
		c-3.6-0.8-7.3-3.1-9.8-5.8c-3.6-3.8-7.6-6.1-12.6-7.5c-5.3-1.5-10.4-3.4-16.8-5.5c-1.3,1.5-3.3,4-5.5,6.5c1.6,3,2.9,5.5,4.6,8.6
		c-8,7.2-17,8.8-26.9,7.5c-2-0.3-3.8-1.2-5.8-1.5c-6.5-0.9-7.9,0.1-9.8,6.7c-0.5,1.6-0.9,3.2-1.2,4.8c-0.3,1.6-0.4,3.3-0.5,5
		c-7.1,3.7-13.7,1.7-20.3-0.8c-7.9-3-5.9-12.2-11.3-17.5c-5.4,3.4-8.1,9.2-11.7,14.1c-2.8,3.8-6.2,5.4-10.2,4.2
		c-12.3-3.8-24.9-7.2-36.7-12.4c-5.7-2.5-10.2-8.2-14.6-13.1c-4.1-4.6-6.1-10.2-3.6-16.6c0.9-2.4,0.5-5.3,0.8-7.9
		c0.9-6.5-1.4-11.4-6.4-15.7c-5.6-4.7-10.6-10-15.9-15.1c-1-0.9-1.7-2.2-2.9-2.7c-7.7-3.6-15.7-6.7-23.3-10.5
		c-3.1-1.6-5.6-4.5-8.6-6.9c2.9-6.8,4.4-13.8,12.9-15.4c1.6-0.3,3.2-2.3,4-4c5.6-11.4,7.8-23.5,4.8-35.8c-0.9-3.7-4.2-7.6-7.4-9.9
		c-9.5-6.9-20.3-11.5-31.7-14.3c-8.2-2-12.7-7.2-16.3-14.6c-4.8-9.8-10.6-19.1-16.3-28.5c-1.5-2.4-4.4-4-6.6-6
		c-1.7-1.5-4.1-2.7-5-4.6c-4.7-10.4-13.5-15.8-23.2-20.5c-11.7-5.6-23.3-11.5-34.8-17.4c-6.1-3.1-12.3-5.1-19.2-2.8
		c-0.6,0.2-1.3,0.3-2,0.3c-12.5,0-25.1,0.3-37.6-0.1c-3.7-0.1-7.4-1.8-11.9-2.9c1.5-3.1,2.3-5.2,3.3-7.2
		c5.4-10.9,12.8-20.9,14.1-33.7c0.5-5,3.8-9.8,5.6-14.3c8.1-2.5,14.3-0.9,19.7,4.7c4.2,4.4,9.7,6.6,15.6,8.3c4.3,1.2,8.2,4,12.4,5.8
		c5.1,2.2,10.4,4.2,15.6,6c11.3,3.9,22.9,3.7,34.7,3.6c16-0.1,31.9,1,47.8-1.8c6.9-1.2,12.4-3.9,17-9.3c2.3-2.7,5.3-5,8.2-7
		c15.6-10.5,32.7-17.8,50.9-22.1c12.2-2.9,24.6-5.3,37.1-7.3c18.2-2.9,33.5-23.2,30.6-41.3c-1.4-8.5-2.2-17.2-4.3-25.5
		c-1.3-5.3-3.6-10.8-6.7-15.3c-10-14.5-13.8-30.4-12.4-47.8c0.6-7.9,1.4-15.8,2-23.6c5.5-2.5,10.1-0.5,14.5,1.8
		c11.8,6.2,23.3,12.8,35.3,18.6c9.4,4.5,19.6,5.2,30.2,4.6c16.2-0.8,32.5-1.6,46.8,8.8c6.7,4.9,14.8,3.6,22.2,2.1
		c5.9-1.2,10.9-0.8,16.4,1.6c9.1,4,17.6,9.1,27.9,10.5c6.2,0.9,10.7,0.1,15.3-4.3c10.3-9.9,21.2-19.2,31.7-28.9
		c3.4-3.2,7.2-4.3,11.8-4c12.3,0.9,24.5,1.6,36.8,2c10,0.3,20,0.4,30-0.3c10.5-0.7,19.8-5.4,28.7-10.7c9.7-5.8,19.4-11.6,29.1-17.4
		c14.8-8.8,30.8-14.1,48-15.1c5.6-0.3,10.2-2.6,14.5-6c6-4.7,6.6-10.5,0.5-14.8c-13.3-9.4-26.6-19.3-44.4-17.3
		c-1.2,0.1-2.5-0.3-5.2-0.7c7.6-11.1,15-21.1,24.6-29.3c1.4-1.2,3.4-2.3,5.2-2.5c11.9-1.4,23.7-2.5,35.7-3.7
		c3.6,4.4,6.7,9.6,11.2,13.3c5.1,4.3,11.1,9.4,17.2,10.2c8.9,1.3,18.9,0.7,27.5-2c10.6-3.5,19.5-1.2,28.7,3c5.8,2.6,6.6,6.9,3,12.1
		c-1.5,2.2-3.8,4-4.7,6.4c-1,2.6-2,5.9-1.2,8.4c4.4,13.4-1.7,23-10.7,31.8c-5.3,5.1-10.7,10-15.3,15.6c-1.8,2.2-3.3,6.6-2.3,8.7
		c1,2.2,5.3,3.7,8.3,3.8c13.6,0.6,27.1,0.5,39.6-7c3.9-2.3,9.7-3.2,14.3-2.4c11,1.9,21.6,2.2,32.6-0.2c7.7-1.7,15.8-1.6,23.8-2.2
		c8.7-0.7,17.1-2.4,24.1-8.1c7.5-6.1,16-7.6,25.3-5.3c5.8,1.5,11.6,2.8,17.4,4.3c10.9,2.7,21.8,5.8,32.8,7.9
		c5.6,1.1,11.7,0.2,18,0.2c0.4,2,0.8,3.5,1.1,5.1c0.7,4.1,2.6,6.6,7.2,6.7c2.2,0.1,5.2,0.7,6.4,2.2c7.4,9.2,15.1,18.3,21.2,28.4
		c3.4,5.7,0.8,13.1-4.4,17.2c-11.7,9.2-13.8,23.9-21.2,35.5c-1.1,1.8-1.1,5.6,0.1,7.2c1.2,1.5,4.7,1.9,7,1.4
		c10.8-2,21.4-4.9,32.2-6.7c7.5-1.3,15.2-1.4,22.8-2.1s15.5-0.5,22.7-2.7c5.7-1.7,10.9-6,15.6-10c1.6-1.4,1.7-5.5,1.4-8.2
		c-1.2-9.1,1.3-12.9,10.3-14.4c8.5-1.5,17-2.9,25.6-4.3c9.6-1.5,18.9-0.8,28.3,2.3c20.9,7.1,41.7,5.4,62.3-1.5
		c13.3-4.5,20.6-15.5,26.5-27.1c5.2-10.1,10.7-19.8,18.4-28.3c10.7-11.7,23.3-19.9,39.5-20.5c6.8-0.2,13.7,1.7,20.4,3.3
		c13.2,3.2,26.2,7.7,39.6,9.9c11.1,1.8,22.5,1.5,33.8,1.3c11.8-0.2,22.4,1.7,31.5,9.8c2.4,2.1,5.9,4.1,8.9,4.1
		c8.3,0.1,13.6,5.2,18.6,10.3c7,7.1,13.3,14.8,19.9,22.3c0.7-0.5,1.5-0.9,2.2-1.4c-0.8,2.8-1.4,5.7-2.5,8.4
		c-2.4,6,0.2,11.2,2.7,16.2c2,3.9,9.1,4.9,13.2,0.8c5.8-5.7,13.2-7.5,19.9-11c8.1-4.2,12.7-13.6,10.9-22.4c-0.5-2.6-0.9-5.3-1.7-7.8
		c-5.2-16.8,0.9-30.5,11.7-43.1c3.4-3.9,7-4.4,11.6-3.4c12.3,2.7,24.7,5,37,7.8c3.2,0.7,6.3,2.2,9,4c10.8,7,22.7,7.9,34.6,4.8
		c27-7.1,51.7-19.1,73.5-36.8c4.6-3.7,10-6.4,15.1-9.3c5.5-3.1,11.5-5.5,16.6-9.1c10.8-7.7,22.6-10.7,35.7-9.3c4,0.4,7.9,1,11.9,1.3
		c10.2,0.9,20.3,1.9,30.7,1c11.5-0.9,23.2,0.5,34.8,1.7c25.4,2.7,50.7,6.1,76.1,9.1c4.6,0.5,9.3,0.6,14,0.8
		c49.2,2,98.5,3.2,147.7,1.1c13.9,17.5,14.7,37.5,6.1,54.9c-1.3,2.6-3.5,5.1-6,6.5c-16.1,9.1-24.3,25.2-34.7,39.2
		c-4.3,5.9-8.3,12-12.3,18.2c-3.3,5.2-7.1,9.4-13.1,11.6c-2.7,1-5.7,4.1-6.5,6.8c-5.4,18.5-10.4,37.1-15.1,55.7
		c-0.9,3.7-0.6,7.8,0,11.6c1.7,11.4,0.5,21.6-7.7,30.7c-10.5,11.6-21.4,22.8-34.5,31.6c-4.4,2.9-8.2,6.7-12.4,10.1
		c-5.4,4.4-10.7,8.9-16.3,12.9c-5.4,4-8.1,8.5-8.8,15.7c-1.2,11.4-4.1,22.9-11.7,32.3c-7.3,9-8.8,19-6.4,29.9
		c1.5,7.2,3.2,14.3,4.7,21.4c5.3,25.3-0.9,47.8-19,65.7c-8.5,8.4-9.6,16.3-6.9,26.6c4.4,16.5,12.3,30.7,24.8,42.4
		c2.6,2.5,5.2,5.3,6.9,8.5c5.1,9.4,11.3,17.8,21.8,23.8c-12.8,8.7-24.6,14.6-38.6,7.5c-12.2-6.2-25.4-8.4-38.6-8.3
		c-8.4,0.1-16.7,3.7-25.1,5.7c-4.2,1-8.2,2.8-12.4,3.1c-7.6,0.5-11.4-3.7-11.9-11.3c-0.5-8.6-1.1-17.3-1.9-25.9
		c-0.7-7-4.5-12.2-9.4-17c-5.7-5.6-12-10.9-16.4-17.3c-9.1-13.2-22.6-19.6-36.7-24.1c-16.6-5.3-31.1-13.3-43.4-25.5
		c-2.6-2.6-5.5-4.8-8.3-7.2c-6.2-5.5-12.4-8.5-20.3-2.7c-3.4,2.5-7.5,2-11.3-0.2c-15.9-9.1-33.6-12.3-51.4-14.6
		c-1.9-0.2-4-0.7-5.7-1.6c-12.3-6.4-25.5-9.4-39-11.8c-8-1.5-15-4.8-20.9-10.7c-14.4-14.4-32.5-21.3-52.4-20.5
		c-13.8,0.6-23.7,9.8-30.3,21.7c-4.1,7.3-6.4,15.1-6.6,23.8c-0.3,11.1-4.7,20.5-14.2,27.3c-5.9,4.3-10.9,9.8-16.9,13.9
		c-7.1,4.8-14.7,9-22.3,12.9c-8.5,4.4-17.9,7.5-25.9,12.6c-7.1,4.5-13.7,10.2-12.6,20.6c0.8,7.5,0.2,15.2,0.2,23.2
		c-16.7,6.1-33,10.8-49.2,14.9c2.3-9.2,4.2-17.4,6.3-25.5c0.6-2.2,1.2-4.7,2.6-6.4c8.9-11.1,11.1-24.3,12.4-37.9
		c0.2-2.6,0.9-5.3,2.1-7.6c6.6-12.6,6.6-26.2,6.4-39.9c-0.1-10.6,0.8-21.4-0.3-31.9c-1.2-11.1-0.4-21.7,2.3-32.3
		c0.2-0.9,0.1-2,0.1-3c-0.3-7.8-3.3-11.2-11.1-10.6c-11.2,0.8-22.5,2-33.6,3.8c-4.8,0.8-9.5,3.1-13.7,5.5
		c-11.8,6.9-22.6,15.2-31.9,25.4C3439.7,703.4,3433.4,710.2,3427.2,716.8z"/>
	<path onclick="modals(this.id);" id="2362" class="st0" d="M2606.3,1402.2c17.4,4.6,34,9.6,50.9,13.1c9.8,2,19.4,0.9,26.4-8.9c5-7,11.5-12.9,17.6-19
		c3-3,4.7-6,4.7-10.4c-0.1-9.6,0.2-19.3,0.7-29c0.3-5.1-2.3-8.5-5.8-10.9c-6.5-4.4-13.5-8.1-21-11.1c-0.3-0.6-1-1.2-1-1.7
		c1.1-8.8-3-14.1-10.9-17.8c-5.5-2.6-10.4-6.6-16.7-10.7c8.2-5.1,15.7-8.4,21.2-13.6c7.6-7.2,14.4-15.6,20.4-24.2
		c3.9-5.6,1.6-13.8-3.2-19c-4.7-5.1-9.1-10.4-13.8-15.8c-2.7,0.7-5.1,1-7.1,2c-5,2.4-10.2,2-14.3-0.8c-10.1-7.1-22.4-5.6-33.2-9.6
		c-1.2-0.4-2.7-0.5-3.9-0.2c-7.3,2.3-13.9,6.7-21.9,6.8c-9.7,9.2-22.5,9.1-34.5,11.2c-35.7,6.1-71.4,11.9-107.1,17.8
		c-0.9,0.2-1.9-0.1-3.6-0.2c-0.6-8.9-1.1-17.8-2-26.6c-0.7-6.5,2.7-10.5,8-12.2c7.3-2.2,13.2-5.7,18-11.6c3.4-4.1,8-5.8,13.4-3.7
		c1.2,0.5,2.6,0.6,3.9,0.8c14.9,2.3,22-6.2,16.9-20.6c3.9-4.1,9.2-7,10.6-13.7c0.8-4,13.5-6.3,18-4.1c2.3,1.1,4.5,2.5,8.3,4.6
		c1.8-11,3.6-21,4.8-31c0.3-2.7-0.9-6-2.4-8.3c-2.9-4.4-6.1-8.9-10.1-12.3c-12.8-10.8-16.5-26.1-21.1-41c-0.7-2.2,0.7-5,1.1-7.6
		c0.8-4.5,1.9-8.9,2.3-13.4c1.4-15.2-2.6-29.5-6.8-43.9c-0.9-3-1-6.6-0.3-9.8c3.4-16.6,6.4-33.3,10.9-49.6c4-14.6,2.1-29.1,1.2-43.6
		c-0.4-6-0.9-11.7,0.8-17.7c1.6-5.8,4-9.7,10.1-12.1c7.4-3,7.5-5.4,4.4-13.3c-1.7-4.3-4.7-8.6-3-13.6c6.7,1.9,13,3.5,19.1,5.5
		c2.4,0.8,5.2,2.3,6.5,4.3c4.6,7,11.4,8.4,18.9,9.1c6.9,0.7,13.8,1.6,20.7,2.8c1.7,0.3,3.5,1.7,4.6,3.2c4.1,5.6,7.8,11.5,11.8,17.4
		c-12.7,11.8-14.9,28.5-21.7,40c5.8,5.7,10.4,10.2,15.1,14.8c-0.3,0.9-0.7,1.9-1,2.8c3.5-2.9,6.9-5.8,10.4-8.7
		c4.3-3.6,8.8-7.1,13-10.9c2.6-2.4,5.7-4.8,7.1-7.9c4.3-9.6,8.3-9.5,15.7-4.4c9,6.2,19,8.9,28.4,13.5c12.2,6,25,10.8,37.5,16.4
		c5.1,2.3,10.1,5.1,14.7,8.2c3.8,2.5,6.7,3,10.7,0c7.2-5.3,15.4-9.2,22.2-14.9c3.5-2.9,5-8.3,7.8-13.3c9-2,18.7-4.3,28.4-6.2
		c2.2-0.4,4.6,0.2,6.9,0.3c10,0.4,19.9,1.1,29.9,1c2.5,0,5.5-2.2,7.2-4.3c4.1-4.8,7.3-10.3,11.2-15.3c5.7-7.2,14-8.5,21.9-4.2
		c10.6,5.8,22,7.2,33.7,4.8c5.2-1.1,9.6-0.7,14.4,1.1c5.8,2.2,12,3.7,18.1,5.3c5.1,1.4,10.2,2.8,15.4,3.8c4.1,0.7,8.4,0.7,12.5,1.1
		c3.3,0.3,6.6,0.5,9.8,1.5c4.8,1.4,9.6,3,14,5.2c9.9,5.2,19.7,4.1,29.7,0.6c14-4.9,14.1-5,23.9,6.4c3.8,4.5,8.1,7.3,14,8.7
		c12.1,2.9,12.9,5.8,15.3,17.7c2.4,11.6,6.3,23.1,11.1,33.9c6.9,15.5,14.6,30.6,16.5,47.8c0.2,2.1,1.9,4,3.5,7.2
		c-4.3,3.9-8.7,8.3-13.6,12.2c-4.3,3.3-6.3,6.9-6,12.6c0.5,12.9,0.2,25.9,0.2,39.7c-8.8,2.2-16.7,4.1-25.9,6.3
		c11.3,11.2,8.3,23.9,7.2,37.4c-5.7,0.5-11.2,0.9-18,1.5c1,5.3,2.7,10,2.4,14.7c-0.3,4.4-2.7,8.7-4.6,14.1c3.6,1.3,6.7,2.9,10.1,3.7
		c2.5,0.6,5.3,0.1,8,0.2c11.6,0.4,12.3,1,16,12.3c2.1,6.6,4.2,13.1,6.4,19.7c0.5,1.6,0.7,3.7,1.8,4.6c11,8.6,11.6,22.9,18.5,33.7
		c1,1.6,1.5,3.7,1.8,5.6c4,21.5,8.1,43,11.6,64.6c1.2,7.2,4.2,15.2-3.4,21.2c-4,13.3-16.4,18.5-25.7,26.6
		c-6.3,5.5-12.3,10.9-16.2,18.6c-2.2,4.4-6.4,7.7-8.9,11.9c-2.2,3.9-4.8,8.4-4.7,12.6c0.3,14.1-6.1,25.7-12.1,37.5
		c-2.8,5.6-6.5,10.8-10.4,17.3c-7.8-6.6-15.6-13.1-23.2-19.7c-12.6-10.9-24.5-22.6-33.7-36.6c-2.4-3.7-5.6-5.5-9.9-5.6
		c-3.3,0-6.6-0.4-10-0.4c-20.7,0-41.3,0-62,0c-3.7,0-7.3-0.2-11-0.6c-3.3-0.4-4.5-2.5-3.5-6.3c3.6-1.3,7.6-2.7,11.6-4.1
		c3.5-1.3,5.3-3.7,5.2-7.5c-0.1-5,0.4-10.1-0.2-15c-0.3-2.6-1.9-6.1-4-7.2c-5.1-2.7-5.7-7.2-5.7-11.8c0-4.6,0.6-9.3,1.3-13.9
		c2.3-14.3,1-28.5-0.8-42.7c-0.4-3.3-1.4-6.6-4.9-6.2c-2.3,0.3-5.3,2.9-6.1,5.2c-2.8,8.1-5.7,16.4-6.7,24.9
		c-0.9,8.3-4,15.3-10.1,19.8c-14.6,10.9-25.9,24.8-38,38.1c-11.1,12.1-23.7,21.3-40.3,24c-5.3,0.9-8.4,3.3-8.6,9.1
		c-0.6,16.6-1.5,33.2-1.8,49.8c0,2.6,1.8,5.6,3.6,7.7c20.4,24.2,15.3,19.2,16.4,45.7c0.6,15.5-4.8,28.9-13.1,41.1
		c-4.1,6-10.9,10.6-17.2,14.7c-9.1,6.1-18.8,11.2-28.2,16.8c-2,1.2-4,2.7-5.3,4.5c-5.1,6.9-11.7,9.2-20,8.2c-3.6-0.5-7.3,0-11-0.1
		c-7.2-0.3-13.3-1.6-17.4-9c-3.3-5.9-8.5-11-13.4-15.9c-2.2-2.2-5.5-3.6-8.5-4.5c-7.2-2-14.6-1.9-21.2-7.3c-4.4-3.7-11.9-2.3-16.7,2
		c-5.3,4.8-10.3,9.8-18,9.2c-9.2-0.7-17.6-4.2-24.5-10.1c-9.9-8.5-18.4-18.3-21.2-31.8c-0.7-3.6-2.2-7-3.3-10.5
		c-1.3-4.3-2.6-8.3-8.4-8.2c-1.6,0-3.7-1.6-4.6-3.1c-6-9.6-12.2-19.3-8.6-32.6c13.8,0.9,28-5.3,42.4,1.4c5.3,2.5,10.5-0.3,14.4-4.3
		c2.3-2.3,4-5.3,5.4-8.3c6.1-13.2,4.5-27.3,4.2-41.2c-0.1-2.7-2.3-5.4-3.4-8.2C2608,1413.3,2604.4,1408.5,2606.3,1402.2z
		 M2999.9,1111.4c4.8-1.6,8.4-3.1,12.1-4.1c3.8-1.1,7.6-2.2,11.5-2.5c10.2-0.8,20.4-0.9,30.6-1.7c9.8-0.7,12.9-5.7,10.9-15.6
		c-0.7-3.5-0.3-7.2-0.5-10.8c-0.2-3.2,0.1-6.5-0.9-9.5c-1.7-5-3-9.6-1.8-15.3c1.6-7.7-3.1-13.5-10.9-14.3c-9.1-0.9-18.3-1-27.9-1.5
		c-0.4,2.3-1.2,4.2-1,6.1c0.9,7.9-3.3,12.9-8.6,17.9c-3.8,3.6-8.1,7.9-9.4,12.6C3000.9,1084.9,2999.8,1097.4,2999.9,1111.4z"/>
	<path onclick="modals(this.id);" id="2365" class="st0" d="M3284.3,1563.1c-3.3-5.6-5.4-10.2-8.4-14c-1.6-2-4.8-3.8-7.2-3.6c-1.6,0.1-3.4,3.5-4.3,5.8
		c-1.7,4.7-2.5,9.6-4.2,14.3c-2.7,7.4-7.3,12-16.2,11.9c-9.9-0.2-19.9,0.6-29.8,1.7c-8.8,0.9-14.6-2.9-18.9-10
		c-5.6-9.3-7.6-10.1-17.6-6.5c-1.9,0.7-3.7,1.4-5.7,1.9c-4.3,1.2-7.5,0.2-10.2-3.8c-5.3-7.7-11.3-14.8-16.7-22.4
		c-3.1-4.4-6.9-6.6-12.3-7.2c-7.2-0.9-14.3-2.9-21.5-4.2c-4.9-0.9-6.2-4.8-7.1-8.6c-2.1-8.4-4.2-16.8-5.6-25.3
		c-0.9-5.8-3.4-9.9-8.6-12.5c-1.5-0.7-2.8-1.8-4.2-2.7c-11.7-7.9-11.7-7.9-21.5,2.2c-3.5-2.6-7.2-5.3-11.6-8.6
		c3.2-5.6,6.3-10.7,8.9-16c4.1-8.3,8.4-16.6,11.7-25.3c1.7-4.5,1.2-9.8,2.3-14.6c1-4.4,2.3-9,4.5-12.8c3.5-6,7.6-11.6,11.9-17.1
		c3-3.9,6.5-7.5,10.3-10.7c6.3-5.4,13.6-9.8,19.4-15.7c10.2-10.4,17-21.7,12.8-38.1c-5-19.9-7.5-40.4-11.1-60.7
		c-0.6-3.2-1.6-6.4-2.8-9.5c-2.7-6.8-5.8-13.4-8.7-20.2c-0.4-0.9-0.6-2-1.3-2.7c-10.5-10.6-12.8-25.1-17.4-38.3
		c-2.8-8.1-8.7-10.1-16.1-10.5c-4.9-0.3-9.7-0.5-16.5-0.8c4.3-8.8,7.5-16.5,0.6-25.3c4.9-0.2,8.1-0.4,11.3-0.6
		c6.5-0.3,8.1-1.7,9-8.1c1.3-10.4,0.7-20.6-3.6-31.4c6.4-1.7,12.7-3.4,19.7-5.2c0.7-10.1,1.4-20.2,2-30.4c0.2-4.7,0.2-9.3,0-14
		c-0.1-3.7,1.3-6.1,4.2-8.4c5.2-4.1,10-8.6,15.7-13.7c2.1,0.5,5.2,1.8,8.3,2c4.2,0.3,9.1,1.1,12.5-0.6c10.7-5.3,20.8-11.6,31.1-17.7
		c2.5-1.5,5.1-3.6,6.6-6c3.5-5.6,8.4-6.4,14.5-6.4c11.2-0.1,22.5-0.9,33.7-2.4c4.4-0.6,8.7-3.1,12.6-5.6c5.8-3.7,11.7-5.7,18.7-5.6
		c18,0.4,36-0.1,54,0.2c12.6,0.2,25.1,1.2,37.6,1.9c2.9,10.2,3.6,38.9,1.2,50.8c-3.4,0.3-7,0.7-11.6,1.2
		c-0.9,10.6-1.8,21.1-2.7,31.6c-2.1,26.5-4.3,52.9-6.1,79.4c-0.7,10.2-2.7,12.3,10.9,17.5c10.5,4,20.2,10,30.3,15
		c7.8,3.9,15.5,3.9,22.3-2.2c8.6-7.6,19.4-6,29.4-7.1c6.2-0.7,12.5,0.6,18.8,0.8c2.6,0.1,5.3-0.2,7.8-0.9c7.3-2.1,14.6-4.3,21.7-7
		c2-0.8,3.7-3.3,4.7-5.4c0.9-2,0.6-4.6,0.9-6.9c0.6-3.9,2.3-6.4,6.8-7.3c5.4-1.1,10.7-3.1,15.9-5.3c9.8-4.1,20-4.7,30.3-4.2
		c13.6,0.7,27.2,1.2,40.8,2c9.5,0.5,19.1,1.2,29.2,1.9c0.2,3.3,0.5,6.2,0.5,9.1c-0.2,35.6-0.2,71.3-0.8,106.9
		c-0.1,8.2-2.1,16.5-4.1,24.5c-2,8-8,11.8-16.3,11.6c-20.6-0.6-41.2-1.2-61.8-1.7c-2.5-0.1-5.6,0.5-7.6,1.9
		c-12.6,8.8-25.2,17.8-28.1,34.5c-1.2,6.9-5.1,9.9-12.1,10.8c-13.4,1.6-18.8,8.7-16.9,23.9c1.2,9.6-1.6,17.4-7.8,24.4
		c-6.1,6.9-13.2,13.4-11.2,24.3c0.8,4.1,2.2,6.8,6.3,7.9c24.7,6.6,49.4,13.4,74.1,20.1c5.1,1.4,10.2,2.9,15.4,4
		c6.1,1.3,12.3,3,18.5,3.1c10.7,0.2,17.6,6.5,26.1,13.7c-3.4,2-5.7,3.8-8.3,4.8c-15.7,6-24.2,19-31.9,32.8c-1,1.9-1.4,4.6-1,6.7
		c2.4,12.3,0.9,25,4.9,37.4c3.5,10.7-10.4,29.7-21.7,31.6c-9.8,1.6-19.8,1.9-29.6,3.6c-5.8,1-11.4,3.3-16.7,5.9
		c-17.2,8.4-31.5,20.4-43.9,35.2c-5.4,6.5-12.5,11.4-22.2,11.7c-7.7,0.2-13.4-2-18.6-7.3c-6.7-6.9-9.7-15.8-13-24.5
		c-3.1-8.1-5.5-16.4-8.3-24.6c-5.6-16.8-18.5-25.7-33.8-32.8C3312.5,1546.6,3297.8,1550.5,3284.3,1563.1z M3183.7,1473.3
		c16.9-3.5,32.6-0.1,47.4-4.6c-0.4-4-0.7-7.1-1-9.7c7.2-2.9,13.1-6.5,19.5-7.4c6.2-0.9,12.9,0.8,20,1.5c4.4-18.3,8.8-36.2,13.1-54.2
		c-2.4-1-3.5-1.6-4.7-2c-13.7-4.5-27.6-6.6-42-4c-6.4,1.2-13.2,1.8-19.7,1.1c-5.1-0.5-9.8-3.9-14.6,1c-0.8,0.8-3.8-0.1-5.6-0.7
		c-4.4-1.5-8.7-3.2-13-4.9c-11.6-4.5-23.2-2.6-33.9-1.4c-1,8.8-1.9,16.2-2.5,23.7c-0.1,1.5,0.5,3.3,1.3,4.7
		c5.2,8.8,9.5,17.7,21.5,20.1c10.9,2.2,14.2,8.2,14.2,19.2C3183.7,1460.8,3183.7,1466,3183.7,1473.3z"/>
	<path onclick="modals(this.id);" id="2358" class="st0" d="M3693.4,1147.3c-4.5,0-7.7,0-10.9,0c-22.7,0-45.3-0.1-68,0.1c-4.2,0-8.3,1.6-12.5,2.3
		c-3.9,0.6-7.8,1.6-11.6,1.5c-24.9-0.9-49.8-2.3-74.7-2.9c-5.1-0.1-10.2,2.3-15.3,3.8c-6.3,1.9-12.5,4.2-18.9,5.9
		c-4.7,1.3-8.1,3.3-7.7,8.6c0.6,8.5-3.8,11.9-11.6,12.6c-2.2,0.2-4.6,1.1-6.6,2.3c-5.7,3.5-11.9,3.4-18.3,3.3
		c-10.2-0.2-20.6-0.3-30.7,0.8c-5,0.6-10.1,3.3-14.4,6.2c-6.7,4.5-13,5.7-20.4,2c-11.6-5.8-23.3-11.2-35-16.8
		c-3.9-1.8-4.8-4.8-4.5-9c2.1-24.5,3.9-48.9,5.9-73.4c1-12.8,2.3-25.6,3.4-38.7c4.2-0.4,7.5-0.7,12-1.1c0.3-10,0.7-20,1-31.2
		c16.2,0,31.7,0,48.3,0c0.4-7.6,1.1-14.1,1.2-20.6c0.7-40.9,1.3-81.9,2.1-122.8c0.5-26.6,1.3-53.2,2-79.8
		c0.3-10.3,0.7-20.6,1.4-30.8c0.2-2.9,1.1-5.8,2.1-8.6c5-13.7,9.9-27.5,7.9-43.6c5.8,3.3,8.9,1.3,12.8-3
		c11.4-12.6,23.4-24.5,37.2-34.7c18.4-13.6,39.1-15,60.7-14.1c2.7,4.7,2.8,9.1,1.8,13.7c-1.7,7.7-4.2,15.5-0.8,23.5
		c0.5,1.1,0,2.6-0.3,3.9c-2.8,11.9-0.5,23.8,0,35.7c0.5,10.6,0.1,21.3-4.4,31.2c-2.9,6.5-4.4,13-5.2,20.1
		c-1.2,10.4-3.6,20.6-10.7,29.2c-1.9,2.4-2.5,6-3.2,9.2c-1.7,7.7-1.6,15.9-8.1,21.8c-0.8,0.7-0.8,2.3-1.2,3.5
		c9.3,3,36.8-3.4,57.9-13.5c0-7.6,0.5-15.6-0.1-23.5c-0.8-9.9,5-15.6,12.3-19.6c10.2-5.6,21.2-9.7,31.5-15c5.9-3,11.4-6.8,16.6-10.9
		c7.3-5.7,14.1-12.1,21.2-18.1c7.1-6,9.3-14.1,10.7-22.9c1.3-8.1,2.8-16.5,6.1-23.9c5.6-12.8,20.5-23.2,38.4-20.3
		c15.8,2.5,29.1,9.1,40.5,19.8c6.6,6.2,14.2,9.8,22.9,11.2c12.9,2.1,25.3,5.5,37.1,11.3c3.2,1.6,6.8,2.2,10.8,3.4
		c-3.4,15.4-8.2,29.6-18.5,41.6c-7.9,9.2-7.6,9.5-10.6,21.4c-3.9,0.7-8.1,2.1-12.2,2c-11-0.1-19,5.7-26.2,12.7
		c-6.2,5.9-12.8,8.9-21.4,8.5c-15.8-0.8-27.3,6.3-35,20c-5.8,10.4-13.2,19.5-25.8,21.7c-5.4,1-11,1-17.9,1.5
		c-10.2,8.8-8.3,23.8-14.4,36.3c3.5,1.2,6.2,2.2,9.7,3.4c0.8,4.9,1.6,10,2.6,15.9c4.9,0.4,7.5,3.3,8.8,8.4c0.6,2.4,4.3,4.6,7.1,5.8
		c3.6,1.5,7.9,1.3,11.6,2.8c4.2,1.7,8.4,3.9,11.7,6.9c7.4,6.9,14.6,8.7,22.4,4.5c6.5-3.5,11.6-15.2,9.1-22.5c-1-2.9-3.7-5.4-6-7.5
		c-2.1-1.9-4.8-3.1-7.4-4.7c2-4.4,5.4-3.5,7.9-2.6c6.8,2.6,12.2,1.3,17.1-4c1.5-1.6,3.9-2.6,6-3.5c4.7-2,8.9-1.6,12.8,2.1
		c8.8,8.3,19.3,13.7,30.5,18.5c12.1,5.2,20.9,14.1,21.5,28.4c0.4,9.3,3.6,17.2,9.1,24.8c4.1,5.6,6,12.4,4,19.8
		c-1.7,6.6-1.5,13.1,4.5,18.2c4.1,3.5,4.2,8.3,2.4,12.9c-3.8,9.9-1.8,18.7,3.7,27.5c7.6,12.2,6.7,19.3-3.3,29.3
		c-6.3,6.3-9.7,14-11.7,22.4c-1.2,4.9-3.4,8.5-7.7,11c-11.2,6.5-22.5,12.9-33.6,19.6c-4.5,2.7-8.5,2.1-13.1-0.1
		c-12-5.6-24.2-10.9-36.6-15.8c-3.2-1.3-7.1-1.5-10.6-1c-7.8,1-11.1,7.4-7.8,14.6C3688.4,1139.6,3690.7,1142.8,3693.4,1147.3z"/>
	<path onclick="modals(this.id);" id="2364" class="st0" d="M4099.3,883.7c-2.2,6.8-5.5,12.3-12,15.3c-6.6,3-10.1,8.2-10.8,15.4
		c-1.3,13.5-2.8,27.1-4.1,40.6c-0.4,4.6,0.8,8.3,5,11.2c5.2,3.6,9.7,8.1,15,11.5c6.3,4,10.1,9.4,11.8,16.5c1.4,5.8,2.5,11.7,4,17.5
		c0.8,3.2,1.9,6.3,3.2,9.3c1.2,2.7,2.7,5.4,4.5,7.8c12,16.2,18.7,34.2,19.8,54.3c0.3,5.9,2.5,10.9,6,15.5c2,2.6,3.3,5.8,5.1,8.6
		c4.5,6.9,7.3,13.3,1.6,21.7c-4.8,7.1-2.3,11.7,5.3,16.2c2,1.2,3.8,2.5,6.5,4.3c-2.4,3.9-4.6,7.5-6.9,11c-1.3,1.9-3.8,3.5-4.1,5.5
		c-1.9,11.2-8.1,20.2-13.3,30c-6.4,12.1-15.7,18.5-28.2,21.3c-10.4,2.3-20.7,4.1-30.5,8.8c-9.9,4.7-15.8,12.8-22,21.1
		c-10.4,13.8-21.2,27.3-31.5,41.2c-3.3,4.5-6.4,4.8-10.9,2.2c-14.4-8.3-29.3-15.8-41.8-27c-2.2-2-4.1-4.3-5.7-6.7
		c-11-17-21.9-34.2-32.9-51.3c-5.5-8.6-7.5-9.1-15.7-2.8c-12.9,9.9-25.8,19.9-38.4,30.3c-5.6,4.7-11.7,5.1-19.1,5.4
		c1.1-12.8,5.7-23.5,12.3-33.6c3.5-5.3,7.3-10.4,9.9-16.1c3.1-6.5,0.8-10.3-6.1-11.5c-3.5-0.6-7.5-0.8-10.9,0.2
		c-13.4,3.8-26.9,3.2-41.8,3.4c-2-11-4.2-21.9-6-32.9c-2.4-14.1-4.4-28.2-6.7-42.3c-1.6-10-0.8-13.5,4.9-22.4
		c5.9-9.2,7.2-18,0.1-27.6c-5.9-8.1-8.8-17.1-3.7-27.1c2.3-4.6,1.5-9.6-2.3-12.9c-5-4.3-5.8-9.6-4.9-15.3
		c1.7-10.9-0.9-20.2-7.5-29.1c-2.6-3.5-3.4-8.5-4.5-12.9c-0.9-3.5-1.2-7.2-1.8-10.8c-2.4-14.1-12.9-20.6-24.3-26.7
		c-9.3-4.9-18.7-10-27.3-16.2c-8.1-5.9-11-6.9-19.5-2c-2,1.2-4,2.4-5.8,3.9c-3.4,2.9-7.1,3.4-11.2,2.3c-1.3-0.3-2.5-0.9-3.8-1.1
		c-4.9-0.7-9.4,1.3-10,4.5c-0.8,4.5,2.8,5.8,5.8,6.9c6.6,2.5,9.4,6.8,8.5,13.9c-0.9,6.8-3.6,11.7-10.6,14.3
		c-5.2,1.9-10.5,0.2-12.8-2.8c-6.9-8.9-16.6-10.5-26.2-12.7c-1.6-0.4-3.2-0.8-5.1-1.3c-3-4.7-1.1-13.6-10.6-12.8
		c-0.5-5.6-1-10.6-1.5-15.5c-2.8-1.3-5.5-2.5-8.2-3.7c3.6-10.7,3.1-22.4,11.3-30.6c5.7-0.4,11.5-0.3,16.9-1.4
		c12.7-2.6,20.7-11.4,27-22c3.6-6,7.2-12.2,13.9-15.3c3.5-1.6,7.2-2.9,11-3.5c3.9-0.7,8-0.8,11.9-0.7c6,0.1,11-2.1,15.4-6
		c3.2-2.9,6.6-5.6,10-8.3c5.9-4.6,12.3-7.8,20.2-7.3c2.3,0.2,4.6-0.5,7-0.6c4.8-0.2,7.6-2.7,7.8-7.4c0.2-6.5,3.8-10.9,7.8-15.6
		c8-9.1,14-19.4,16.7-31.4c0.9-4.2,2.7-8.1,4.3-12.7c13.6,0.9,26.5,3.9,38.1,10.6c8.3,4.8,15.5,4.3,23.2-0.3
		c0.8-0.5,1.9-0.6,4.1-1.3c6.1,5.1,13.1,10.1,19.1,16.2c11.2,11.2,24.7,17.5,39.4,22.4c14.5,4.8,28.3,11.1,37.7,24.5
		c4.1,5.9,9.7,11,15.1,15.9c7.4,6.8,10.4,15.1,10.5,24.9c0,6.3,0.2,12.7,0.7,19c0.5,6.4,5.8,11.8,12.3,11.7c5.2,0,10.8-0.5,15.5-2.5
		c19.6-8,38.9-6.9,58.3,0.5C4088,879.4,4093.6,881.5,4099.3,883.7z"/>
	<path onclick="modals(this.id);" id="2367" class="st0" d="M1704,1054.2c1.3,0.2,2.7,0.1,3.8,0.6c10.4,4.8,19.3,1.3,27.9-4.7c4.1-2.8,8.6-5.1,12.9-7.6
		c6.2-3.5,12.6-5.9,19.9-5.2c2.3,0.2,4.8,0.2,6.9-0.5c5.8-2.2,10.3-0.2,14.8,4c-0.4,1.4-0.5,3.2-1.2,4.5c-6.6,11-6.2,22.9-4.2,34.9
		c0.3,2,0.6,4,1.2,5.8c3.5,10.9,1.2,20.7-4.3,30.5c-3.7,6.5-4.6,13.6-1.9,21.1c1.9,5.3,2.2,11.2,4.5,16.3c3,6.5,7.3,12.3,11.4,19
		c8.5-2.8,16.1-5.1,23.5-7.8c8.5-3.1,15.1-4.7,21.1,7.6c4,8.3,10.2,13,18.8,14.5c12.4,2.1,24.9,4.1,37.4,5.4
		c11.9,1.2,22.4,5.2,32.3,11.8c17.5,11.5,36.3,16.5,56.5,7.1c9.9-4.6,19.9-6.6,30.7-4.9c6.5,1.1,13.2-0.2,19.4,3.5
		c2.1,1.3,5.7,0.2,9.3,0.2c-0.4,3.2-0.7,6.6-1.3,11.5c6.7-0.5,12.8-1,19.5-1.5c5.4,6,7.3,13.9,7.2,22.4c0,3.8-1.1,7-5.2,8.8
		c-5.7,2.5-11.1,5.7-17.2,8.9c-5.6-1.9-8.7-5.8-8.2-12.5c0.3-4.6,0.1-9.2,0.1-14.9c-19.5,0.1-38.1-3.8-55.2,9.1
		c-8.8,6.7-19.8,10.8-30.2,15.2c-5,2.1-10.9,2-17.6,3.1c-0.9,12.7-1.9,25.8-2.9,39.3c15.7,5.9,31.5,6.6,48.3,8.2
		c0.8,15.6,1.5,31.1,2.3,47.9c18.9,0.6,37.3,1.3,56.7,1.9c0-7.3,0-13.1,0-19.6c4.7-1,8.8-1.9,13.3-2.9c1.6,3.9,3.1,7.4,4.8,11.4
		c2.8-1.1,5.2-2.1,7.8-3.1c1.2,1.5,2.4,3,3.8,4.9c7.6-1.6,15.5-3.5,22.6,1.2c1,10.9,2.1,21.4,3,31.9c0.2,1.9,0,4-0.4,5.9
		c-1.8,8.1-4.4,8.9-11.4,4c-6-4.1-12.1-8.1-18.4-12.2c-1.8,1-3.5,1.5-4.5,2.6c-5.8,6-13.3,6.7-20.4,5.1c-11.6-2.7-23.1-2-34.8-1.7
		c-8,0.2-15.7-0.5-23.5-3.3c-6.4-2.3-13.6-1.7-20.2,1.6c-28.5,14.5-57.2,28.6-85.6,43.2c-5.4,2.8-9.6,2.7-14.6-0.8
		c-9.6-6.6-19.7-12.4-29.4-18.9c-4.5-3.1-7.7-2.5-11.2,1.4c-5.3,5.8-11,11.3-16.5,16.9c7.6,10.7,14.7,20.5,22.5,31.5
		c-14.6,6.8-28.7,14.2-43.5,19.9c-28.2,11-56.7,21.1-85.1,31.6c-1.2,0.5-2.6,0.7-4.8,1.3c-7.8-7-15.9-14.3-24-21.7
		c-7.6-6.9-15.3-13.8-22.8-20.9c-7.7-7.4-13.6-15.8-15-27c-1.3-10.3-6-15.6-16.1-16.6c-16.8-1.7-33.3-7-50.5-4.2
		c-7.1,1.1-11.9-1.2-15.4-7.8c-3.1-5.9-7.1-11.3-11-16.7c-2.6-3.5-3-6.8-1.9-11.1c3.5-13.8,6.3-27.9,9.7-41.8
		c1.4-5.7,0.5-10.4-3.7-14.6c-2.1-2.1-4-4.5-5.8-6.8c-9.1-11.8-19.7-21.5-34.2-26.2c-2.1-0.7-4.3-2.2-5.6-4
		c-7.6-10.4-15-20.9-23.6-33.1c11.6-1.5,21.6-3.2,31.7-4c11.9-1,21.3-6.8,30.4-13.7c5-3.8,9.9-7.7,14.9-11.6
		c6.6-5.2,13.8-5.1,20.5-1c12.4,7.5,26,5,34.8-7.7c9.3-13.3,21.8-23,35.1-32.1c16.7-11.5,32.7-24,48.6-36.6
		c10.3-8.2,10.4-10.2,1.9-20c-5.7-6.6-8.6-14.2-10.2-22.4c-1.4-7.3-1.6-14.6,4.3-20.6c3.6-3.7,3.9-8.1,3.2-13
		c-0.8-5.6,0.1-10.5,6.8-12.6c3.3-1.1,6.1-3.9,9.1-6C1705.1,1055.5,1704.5,1054.9,1704,1054.2z"/>
	<path onclick="modals(this.id);" id="2345" class="st0" d="M2061.9,764.2c0-8.6,0.1-15.9,0-23.1c-0.1-5.7,2-10.3,5.9-14.2c4.1-4.1,7.1-8.5,8.3-14.4
		c0.7-3.4,3.1-6.6,5-9.7c4.1-6.5,5.8-13.7,4.1-21c-1.7-7.4,0.6-13.6,5.7-17.9c7.1-6,18.2-6.2,25.1-1.3c3.8,2.6,7.1,5.9,9.9,8.3
		c5.5-1.8,10.5-2.7,14.8-5c2.9-1.5,4.7-5,7.4-8.2c-7-4.9-13.2-9.2-19.7-13.7c0.8-2,1.4-3.8,2.3-5.5c4.8-8.8,4.8-8.8-3.3-16
		c2.5-5.6,5.2-11.5,8-17.8c11.1,4,21.4,4.1,32.1,2.7c9.8-1.3,19.9-0.7,29.9-0.3c3.1,0.1,6.3,1.8,9.3,3.3
		c12.9,6.2,25.9,12.1,38.5,18.9c7.2,3.9,14.4,8.3,17.5,16.9c0.6,1.7,2.3,3.4,3.9,4.4c11.9,7.5,17.6,19.8,23,31.8
		c4.5,10,10.1,17.1,21.5,20c8.3,2.1,16.1,6.1,23.8,10.1c10.9,5.7,14.6,13.8,12.4,26.3c-0.9,5.2-3,10.2-4.3,15.3
		c-0.9,3.5-3.1,5.4-6.4,7c-2.8,1.3-5.3,3.7-7.1,6.2c-4.6,6.1-8.5,12.7-13.1,18.8c-3.4,4.5-5,9-4.1,14.8c1,6.9,1.1,13.9,1.5,20.8
		c0.3,5.6-1.5,8.5-7.1,10c-9.2,2.4-14,7.9-14.2,17.7c-0.3,9.6-1.6,19.2-1.7,28.8c-0.1,6.4-1.7,12.2-6.3,16.2
		c-11.7,10.1-13.4,23-12.2,37.2c0.4,4.1-0.2,8.3-0.4,13.3c-10.7,0-20.2,0-30.5,0c-0.4-2-0.7-4.2-1.2-6.4
		c-1.9-9.1-5.2-12.5-14.7-13.3c-4.3-0.4-7-1.7-10.1-5c-11.6-12.3-24.1-23.9-35.7-36.3c-5.5-5.9-11.7-6.7-18.9-6.1
		c-18.9,1.4-37.7,2.5-56.6,3.9c-4.8,0.3-7.8-1.3-10.8-5.3c-14.1-19-28.7-37.5-42.8-56.5c-3.9-5.2-7.2-6.7-14.1-5.1
		c-65.8,14.6-131.8,28.6-197.7,42.9c-17.5,3.8-35,7.8-52.5,11.8c-2.5,0.6-4.8,1.8-7.3,2.7c2.1,12.7,4,24.7,6.3,38.7
		c-5.7-2.4-9.8-4.1-13.9-5.8c-5.2-2.3-10.6-4.2-15.4-7c-7.5-4.3-14.8-8.9-16-18.9c-0.8-6.9-3.2-13.6-3.8-20.5
		c-1.2-14-7.7-26.1-13.5-38.3c-12.5-25.9-16.6-52.4-7.6-80.3c2.6-8.1,3-16,1.8-24.5c-1.2-8.5-0.7-17.3-0.2-25.9
		c0.2-3.8,1.4-7.9,3.2-11.3c4.6-8.6,7-17.9,9.7-27.1c1.8-6.2,0.9-11.7-3.1-15.8c-6.6-6.9-7.7-15.1-8.3-23.8
		c-0.2-3.2-0.6-6.5-1.1-10.7c9.4,3.8,16.9,9,23.7,15.2c7.3,6.7,10,7.5,18.5,2.9c6.8-3.7,13.7-4.9,21.1-3.6c15,2.8,29.9,5.9,44.9,8.6
		c3.5,0.6,7.6,1.4,10.7,0.3c7.2-2.5,13,0.1,18.8,3.5c1.7,1,3.4,2.2,4.8,3.6c14.5,14,31.3,24.4,48.7,34.3c14.1,8,27.5,17.4,41.4,25.9
		c8.3,5.1,15.6,11.2,21.5,19.1c4.8,6.5,10.3,12,18.8,13.8c3,0.6,5.7,3.1,8.3,5.2c8.9,7.1,18.1,13.3,28.8,17.5
		c10.1,4,19.5,9.8,29.3,14.8C2057.5,762.5,2059,763,2061.9,764.2z"/>
	<path onclick="modals(this.id);" id="2386" class="st0" d="M1849.6,1906.9c21.5,0.8,42.3,1.5,63.6,2.3c3,6.4,6,12.9,9.3,20.1c8.4-1.1,16.6-1.7,24.7-3.3
		c4.7-0.9,8.5-0.4,12.1,2.5c7.7,6.1,17,10.1,23.2,18.4c4.9,6.5,15.4,6.3,23,1.1c0.8,1.5,1.3,3.1,2.4,4.4
		c9.8,12.2,11.7,26.8,14.1,41.8c2.8,18.3,5.6,36.9,15.9,53.1c11.8,18.6,24.5,36.5,40.1,52c6.1,6,13.7,10.6,21,15.1
		c14.5,9.1,27.1,20.4,38.6,32.9c14.6,15.9,29.7,31.4,47.3,44c-0.5,4.6-3.8,5-7.1,5.8c-7.4,1.7-14.8,3.8-22.1,5.7
		c-9.8,2.5-15.6,9.7-20.6,17.7c-1.1,1.7-1.8,3.5-2.8,5.3c-4.1,7.5-9.4,13.3-18,16.2c-5.9,1.9-11.2,5.7-16.8,8.6
		c-7.4,3.9-11.1,10.7-12.8,18.2c-3.6,16.3-11.4,30.4-21,43.7c-5.8,8-5.9,16.2-1.3,24.2c3,5.2,5,10.5,3.5,16.1
		c-5.2,19.9-11,39.6-16.8,60.3c-12.5-2.7-23.7-5.2-35.6-7.8c-2.6,1.7-5.7,3.8-9.4,6.2c-2.4-3.1-5.4-5.4-6.3-8.3
		c-3.8-12.9-15.5-20.4-21.3-32.1c-3.4-6.8-10.1-12.4-19.3-12.2c-1.3,0-3.1,0.3-3.9-0.4c-8.4-7.1-19.3-6.5-29-9.4
		c-9.6-2.9-16-8.4-20.3-17.5c-2.3-4.9-6.4-9.2-10.3-13c-19-18.5-17.8-17-8.6-40.1c9.7-24.4,19.4-48.8,29-73.2
		c2.2-5.5,5.2-9.5,10.6-12.4c6.1-3.2,11.9-7.4,16.8-12.2c5.9-5.8,4.9-10.2-0.7-16.3c-8.6-9.2-17-18.4-22.1-30.4
		c-4.1-9.7-9.4-18.8-16.1-27.4c-4.4-5.7-4.5-14.9-6.4-22.5c-0.2-0.6-0.2-1.4,0-2c2.6-11.8-2-23.2-2.5-34.8
		c-0.1-3.7-2.9-7.3-4.7-11.6c-3.4,0.2-6.7,0.4-9.9,0.7c-4.3,0.4-8.6,1.3-12.9,1.1c-7.3-0.3-14.2,0.6-21.4,3
		c-6.3,2.1-13.8,0.9-20.8,0.9c-6.7,0-13.3-0.5-20-0.3c-6.9,0.2-9.4,2.2-11.3,8.9c-1.8,6-3.1,12-4.8,18.8c7,0.9,13.1,1.8,20,2.7
		c-0.5,8.3-1,16.7-1.5,26.2c-24.9-0.9-48.7-1.8-72.3-2.6c-4-17.7-3.9-34.2,3.5-50.3c1.3-2.9,0.5-5.4-0.5-8.7
		c-1.6-5.2,0.5-11.5,0.9-16.8c1.5-0.8,2.1-1.4,2.6-1.3c9.6,1.1,15.2-2.7,18.8-12c1.9-4.8,7.2-8.2,12.2-13.6c0-1.5,0.1-5.1,0-8.7
		c-0.5-10.9,0.6-21.2,8.6-29.6c1.1-1.2,2.3-2.6,2.6-4.2c1.8-7.7,4-15.4,4.6-23.2c0.2-3-3.5-6.3-5.9-10.4c1.9-8.2,4.6-17.6,6.3-27.2
		c0.9-4.8,3.4-7.7,7.5-7.8c8.2-0.1,14.8-2.6,22.1-6.7c6.7-3.7,16.1-3.2,24.4-3.4c6.3-0.2,12.1-0.1,16.1-6.7
		C1855.5,1878.2,1852.6,1892,1849.6,1906.9z"/>
	<path onclick="modals(this.id);" id="2359" class="st0" d="M2083.3,1043.6c-8.5-0.6-14.8-0.7-20.9-1.7c-14-2.3-27.9-4.2-42.4-3.5
		c-21.9,1.2-43.9,1-65.9,0.8c-12.9-0.1-25.9-1.3-38.8-1.9c-3.7-0.2-7.3-0.6-11-0.5c-3.6,0.1-5.3,2.6-5.4,5.8
		c-0.2,4.8-0.1,9.6-0.1,16c-0.6-1-0.3,0,0.1,0.1c16.4,2.8,30,12.3,45.1,18.3c19.2,7.7,34.4,21.5,47.4,37.2
		c6.3,7.6,13.8,13.5,22.2,18.2c6.1,3.4,10.1,7.1,8.7,14.8c-0.7,3.9,1.8,6.6,4.1,10.1c4.6,6.9,10.2,10.5,17.6,12.9
		c2.6,0.8,4.7,3.5,7,5.3c-1.3,6.4-2.5,12.4-3.7,18.7c-3.9,0-7.4,0-11.9,0c-0.7,3.1-1.4,6.4-2.3,10.3c-6.7-0.5-13.2-1-19.8-1.6
		c-9.1-0.8-17.7,0.1-26.1,4.3c-19.8,9.8-38.5,6.3-56.4-5.6c-10.9-7.2-22.9-11.5-36.3-12.6c-12.5-1.1-24.9-3.7-37.3-5.9
		c-6.6-1.2-11-5.1-13.8-11.5c-5.1-11.6-13.3-14.4-25.1-9.7c-2.5,1-4.8,2.3-7.4,3c-4.1,1.2-8.3,2.2-12.7,3.3
		c-6.1-4.5-10.4-10.1-11.8-17.7c-0.4-2.3-0.7-4.7-1.6-6.8c-4.8-11.6-4.1-22.7,2.9-33.2c5.2-7.8,2.5-15.9,1.6-24.1
		c-0.9-8.9-1.6-17.8-1.8-26.8c-0.1-3.5,1.6-7.1,2.8-10.5c1.1-3,2.7-5.9,4.2-9.2c-3.7-2.8-6.8-5.2-10.7-8.2
		c4.4-12.5,8.6-25.4,13.5-38c1.2-3.2,4.1-6,6.9-8.3c10.7-8.8,23-14.4,36.8-16.6c5.6-0.9,11.1-2.2,16.4-3.9c1.8-0.6,4-3.1,4-4.8
		c0.1-1.7-1.9-4.6-3.6-5.1c-8.1-2.5-15.5-6.9-24.9-5.2c-9,1.6-17.5-1.3-22.1-11.1c-4.5-9.7-10.5-18.5-19.8-24.5
		c-1.5-1-2.7-3-3.1-4.7c-2.2-11.7-4.1-23.4-6.3-36c11.9-2.8,23.1-5.7,34.3-8.2c73.4-16,146.8-31.8,220.1-48
		c5.5-1.2,8.5,0.4,11.7,4.6c13.8,18.4,28.1,36.4,41.6,54.9c4.2,5.7,8.4,8.3,15.6,7.7c18.8-1.6,37.7-2.8,56.6-3.7
		c3.7-0.2,8.6-0.1,11.2,2c15.6,12.4,28.5,27.6,42.3,42.6c-2.2,1.3-3.5,2.3-5,3c-8.2,3.4-13,9.5-16.1,17.9c-2,5.4-5.8,10.3-9.4,15
		c-5.3,6.8-10.8,13.5-16.9,19.5c-9.8,9.5-22.5,13.9-35.1,18.1c-7.4,2.5-13.8,6-19.8,11c-7.3,6.1-14.5,12.7-25.5,11.5
		c-4.8-0.5-8.1,5.8-7,11.9C2081.1,1036.2,2082.1,1038.9,2083.3,1043.6z"/>
	<path onclick="modals(this.id);" id="2380" class="st0" d="M1459.9,1253.1c16.2,6.9,22.3,21.2,31.1,33c4.3,5.8,8.5,10.8,15.6,13
		c17.4,5.5,26.1,21,37.2,33.6c1.3,1.5,1.1,4.9,0.6,7.3c-3,14.3-6.1,28.6-9.6,42.8c-1.3,5.3-0.8,9.5,2.4,14
		c6,8.4,11.5,17.1,17.5,26.3c7.6-0.5,15.2-1,22.8-1.4c2-0.1,4,0,5.9,0.3c10.5,1.5,21,3.1,31.5,4.7c11,1.7,14.1,4.8,14.9,15.8
		c0.7,9.1,5.5,16.6,11.4,22.4c15.5,15.5,32.2,29.9,48.1,45c3.6,3.4,6.5,3.4,10.6,1.7c9.1-3.9,18.4-7.4,28.7-11.4
		c6.9,13,20.1,16.5,32,22.1c8.3,3.9,16.1,9.1,24.8,14.2c-5.9,16.3-11.5,31.8-17.1,47.2c-0.7-0.1-1.3-0.2-2-0.2
		c-0.9-4.1-1.8-8.1-2.8-12.2c-0.9-3.9-2.8-6.5-7.4-6.6c-5-0.1-10-0.6-14.8-1.6c-5-1-6.9,1.5-9.4,5.3c-5.9,9.2-6,19.5-6.6,30.7
		c-9.8,1.6-19.5,3.2-30.4,4.9c-0.3,8.3-1.2,16.8-0.8,25.3c0.3,6.3,7.3,11.3,14.1,11.4c5,0.1,9.5-0.1,12.7,5.5
		c2.3,4,7.4,3.7,11.8,2.3c4.4-1.4,6.6-4.5,6.2-9c-0.6-6.1,2-10.9,5.7-15.4c5.4-6.8,10.5-13.7,16.2-21.3c25.7,30,50.9,59.5,76.3,89.2
		c-6.7,6.3-13,12.2-20.2,18.9c3.9,3.6,7,6.9,10.5,9.7c9.4,7.4,19.1,14.4,28.3,21.9c5.5,4.5,10.8,8.6,18.3,9.2
		c2.5,0.2,4.8,2.5,6.5,3.4c-2.4,6.2-4.4,11.3-6.9,17.6c-51.5,2.4-104.2,4.9-158.4,7.4c2.2,13.7,4.3,26.7,6.6,41.1
		c-6.8,0.1-13.3,0.4-19.7,0.1c-1.6-0.1-3.4-1.8-4.6-3.2c-5.5-6.2-11.3-12.3-16-19c-4.9-7-8.9-14.8-13-22.3
		c-4.9-9.1-9.5-18.3-14.3-27.5c-3-5.8-3.3-11.3,1.3-16.6c5.5-6.4,7.8-13.8,6.8-22.2c-0.8-7-3.2-12.7-10.5-15.5
		c-3.9-1.5-7.7-4-10.9-6.8c-4.6-4-7.4-8.7-6-15.8c1.5-7.6-0.8-15.1-5.7-21.5c-9.7-12.8-22.6-21.5-37.3-27.6
		c-20.3-8.5-39.7-18.5-58.1-30.7c-12-7.9-20.3-19.1-29.7-29.3c-10-10.8-22.6-17.4-35.6-23.2c-4.5-2-10.6-1.6-15.8-1
		c-6.7,0.8-12.5-0.9-18.2-3.8c-3.5-1.8-7.5-3.2-10.6-5.6c-10.3-8.2-22.3-11-34.7-9.8c-13.9,1.3-20.9-5.3-25.6-16.8
		c-2.4-5.8-5.4-11.4-8.2-17.1c-4.5-8.9-3.6-16.4,3-23.7c1.6-1.7,3.2-3.4,4.9-5c9-8.1,15.6-17.8,21.9-28.2
		c6.2-10.1,14.1-19.4,22.5-27.8c20.6-20.6,37.4-43.2,42.7-72.6c0.6-3.4,0.3-7.3-0.9-10.5c-2.9-7.6-3-15.5,0.2-22.4
		c5.4-11.8,5.8-24.4,7.9-36.8C1458,1256.9,1459.1,1255.3,1459.9,1253.1z"/>
	<path onclick="modals(this.id);" id="2371" class="st0" d="M2675.4,1315.4c0.2,4.3,0.4,8.3,0.6,12.2c6.1,2.8,12.3,5.3,18,8.3c6.6,3.5,10.6,8.7,9.8,16.9
		c-0.9,8.6-0.8,17.2-1.6,25.8c-0.2,2.4-1.7,5-3.3,6.8c-5.5,6.2-11.6,12-16.9,18.3c-7.3,8.7-16.4,10.9-26.8,8
		c-15.7-4.3-31.3-8.9-46.9-13.4c-1.2-0.3-2.4-0.6-3.8-0.9c-3,4.2-3,8.4-1.4,12.6c1.4,3.7,3.3,7.3,5.1,10.8c2.3,4.5,3.6,9,2.6,14.3
		c-0.8,4.9,0.4,10.1-0.5,14.9c-1.4,7.1-3.2,14.3-6.3,20.7c-3.3,6.7-8.6,7.6-16,5.6c-3.8-1.1-7.8-1.5-11.7-1.6
		c-10.6-0.2-21.2-0.1-32.6-0.1c-2.7,17,2.9,30.2,11.8,41.6c-4.9,7.5-9.2,14.9-14.3,21.6c-3,3.8-7.1,7-11.2,9.7
		c-3.2,2.2-6.4,1.4-8-2.7c-0.5-1.2-1-2.5-1.6-3.7c-3.8-7-6.3-7.7-11.8-1.9c-3.1,3.3-5.3,7.4-7.8,11.2c-1,1.6-1.9,3.2-3.2,5.2
		c-2.5-1.2-4.8-1.7-6.6-3.1c-7.4-5.7-15.7-5.2-23.7-3c-3.7,1.1-6.6,0.9-9.2-1.1c-5.6-4.1-11.1-8.4-16.3-13.1
		c-9.8-8.8-21.6-15.7-28.5-29.5c-8.5,10.9-16.1,20.7-23.8,30.4c3.8-17-4.6-31.9-6.5-47.6c-0.7-5.7-3.3-8-9.2-7.7
		c-7.6,0.4-15.3,0.1-23.3,0.1c-4.8-14.4-9.3-27.8-13.7-41.2c0.5-0.3,1-0.6,1.4-0.9c5.7,3.8,11.3,7.6,17.7,11.9
		c1-3.1,1.9-5.1,2.4-7.3c2.5-10.3,4.7-20.7,7.3-31.1c1.4-5.7,0.2-10-4.2-14.2c-14.3-13.5-28.3-27.3-42.2-41.2
		c-5.7-5.6-11.4-8.3-19.6-5.1c-5.5,2.2-11.6,2.8-18.7,4.4c-3.9-5.8-8.3-11.5-11.7-17.9c-1.2-2.1-0.5-5.8,0.5-8.4
		c3.8-10.6,8-21.1,12.4-32.6c-5.1-4.1-10.1-8.2-15.2-12.3c-4.7,2.3-8.8,4.4-12.5,6.2c-5.7-3.6-11.7-6.1-16.1-10.3
		c-5.9-5.7-11-12.4-15.6-19.1c-3.7-5.5-6-11.9-9.5-17.5c-5.8-9.4-3.9-17.5,6-22.6c5.6-2.9,11.3-5.6,17.3-8.6
		c2.2,1.7,4.6,2.9,6.4,4.8c10.5,11,23.9,16.4,38.3,20c4.5,1.1,9,2.3,13.4,3.9c6.4,2.3,12.7,2.9,19.5,1.3c5.1-1.1,10.6-0.7,15.9-1.1
		c4-0.3,8-0.6,11.8-1.6c10.9-2.8,10.6-2.7,17.4,6.6c7.6,10.4,16.6,15.8,31.2,14.2c63.8-7.1,126.7-19.3,190.1-29.1
		c1-0.2,2.3,0.1,2.9-0.4c8.8-6.7,19.8-8.2,29.5-12.8c2.3-1.1,5.5-2.5,7.5-1.7c10.8,4.2,23.2,2.3,33.2,9.6c5.1,3.7,9.5,2.8,21.2-0.3
		c5.2,5.7,11.1,11.1,15.7,17.4c3.5,4.8,0.9,10.5-2.2,14.8c-9,12.4-17.9,24.7-33.4,30.2c-6.7,2.3-7,7.8-1.1,12
		C2660.6,1306.3,2668.1,1310.7,2675.4,1315.4z"/>
	<path onclick="modals(this.id);" id="2361" class="st0" d="M2373.7,1222.9c-7.9,2-14.1,5.9-20.4,10.4c-5.7,4.1-14.3,4.5-21.7,5.8
		c-5.8,1.1-11.9,0.8-17.8,1.5c-6.7,0.8-13.1,0.6-19.7-1.7c-9.1-3.1-18.5-5.6-27.7-8.4c-11-3.3-18.1-12.1-26.5-19.1
		c-1.5-1.3-1.5-4.9-1.6-7.4c-1.4-24.7,3.9-48.2,13.4-70.8c1-2.4,1.7-4.9,2.9-8.7c-34.7-1.4-68.3-2.8-102.8-4.2
		c0.7,7.3,1.3,13.2,2,19.5c-8.8,3.8-17.8,3.4-27.8,2.9c8.2-12.6,12.2-26.4,21.3-37.6c7.2-8.8,14.4-16.1,26.5-17.4
		c10.7-1.1,18.1-7.8,22.5-17.6c1.3-3,2.5-6.1,3.6-9.3c1.7-4.8,4.2-8.4,10-7.7c4.4,0.5,6.6-1.9,8.3-5.6c2.9-6.3,6.3-12.4,9.6-18.8
		c4.6,1.2,8.7,2.5,12.9,3.2c8.4,1.3,15.8-2,22.1-7c2.5-2,4.8-6.6,4.4-9.6c-1.1-8-1.5-16.5-9-22.4c-6.2-4.9-11.9-10.6-17.2-16.5
		c-2-2.2-3.2-5.8-3.2-8.8c0.1-5.9,1.4-11.8,2.3-18.4c11-0.7,21.8-1.4,32.3-2c3.9-6.6,3.8-12.9,2.7-19.2c-2.1-11.7,0.9-21.8,9.3-30.1
		c6.6-6.5,9.5-13.9,9.4-23.2c-0.1-9.3,1.1-18.6,1.9-27.8c0.7-7.5,3.3-10.2,10.8-12.3c7.8-2.2,9.7-4.4,9.7-12.4c0-7,0.1-14-0.7-20.9
		c-1-9,2.9-15.3,8.6-19.9c11,5.6,21.5,10.9,31.8,16.4c2.6,1.4,4.8,3.5,7,5.5c4.2,3.8,8.1,8,12.5,11.4c5.4,4.2,7.3,9.5,6,15.8
		c-1.5,7.9-3.2,15.3,1.6,23.1c5.5,9,13,15.4,22.4,19c10.5,4,21.5,6.9,32.5,9.7c4.9,1.3,9.7,0.5,12.7-5.1c2-3.8,5.1-6.9,8.2-11
		c4.8,5.6,5.3,14,14.2,16.4c7.9,2.1,14.9,2.5,22-1c0.9-5.5,1.8-10.8,2.7-15.9c7.9,0.6,14.4,1.9,20.8,1.4c6.1-0.5,12.1-3,18.9-4.8
		c2,1.3,2.2,3.5-0.2,5.9c-0.5,0.5-1.1,0.8-1.7,1.1c-15.4,5.5-14.6,18.2-13.9,31c0.9,16.1,2.8,32.1-2,48.3
		c-4.7,16.2-7.2,33.1-10.4,49.7c-0.4,2.2-0.4,4.6,0.2,6.8c1.9,7.7,4.4,15.3,6.2,23.1c0.8,3.4,0.7,7,0.8,10.5c0.1,3-0.6,6.1,0.1,8.9
		c1.3,5.5,0.9,10.2-2.1,15.2c-1.3,2.2-1.4,5.8-0.7,8.4c4.4,16.9,10,33.2,24,45c8,6.8,11.7,14.8,8.2,25.6c-1.5,4.7-1.8,9.7-2.8,15.5
		c-7.9-5.4-15.4-3.5-22.7,0.3c-4,2.1-7.3,0.5-9.9-2.3c-6-6.6-13.6-10.4-21.4-14.2c-5.6-2.7-10.8-6.6-15.6-10.6
		c-7.7-6.4-16.5-7.8-25.3-4.5c-16.8,6.3-33.9,5.8-51.3,4.9c-4.3-0.2-8.7-0.2-13-0.2c-6.7,0-12,2.4-16.7,7.4
		c-7.9,8.5-8.9,14.7-3.1,24.8c3.6,6.3,6.5,13.1,10.4,19.2c4.4,6.8,4.4,13.7,2.9,21.1C2376.2,1209.5,2375.1,1215.7,2373.7,1222.9z"/>
	<path onclick="modals(this.id);" id="2378" class="st0" d="M2217.7,1393.5c6.8-4,13.7-8,21-12.2c3.7,2.1,7.7,4.4,11.8,6.6c1.7,1,3.7,2.7,5.3,2.5
		c9.1-0.9,15,4.7,20.9,9.9c4.6,4,9.3,5,14.4,2.2c4.2-2.3,7.2-1.4,10.7,1.6c9.1,7.7,19.8,13.6,25.6,24.7c2.1,4.1,4.6,8.1,6.1,12.4
		c4.8,13.8,9.3,27.7,14,41.8c10.5,0.8,20.4,1.5,31.1,2.4c2.8,12.9,5.8,26.1,8.5,39.4c0.3,1.6-0.8,3.8-1.8,5.4
		c-2.6,4.6-1.2,8.8,1.1,15c9.2-11.7,17.4-22.2,25.2-32.1c12.6,11.6,24.3,22.8,36.5,33.4c6.4,5.6,15,8.1,21.2,14.5
		c7.9,8.1,13.9,16.5,14.4,28.5c0.5,11.9,3.1,23.7,3.2,35.6c0.1,6-2.4,12.5-5.4,17.8c-3.3,6-8.1,11.3-13,16.3
		c-5.9,6-9.5,12.6-9.3,21.2c0.3,11,0.7,22,0.5,32.9c-0.5,22.6-18,44.7-47,35.8c-22.1-6.8-40.3-20.1-57.5-35c-2-1.7-4-3.5-6-5.2
		c-5.4-4.4-8.7-9.9-9.4-17c-0.3-3.3-1-6.6-1.8-9.8c-2.3-8.8-9.2-12.1-17.9-9.6c-10.2,2.9-20.4,5.4-28.6,13.2
		c-2.5,2.4-8.1,2.2-12.2,2.2c-6.3,0-12.6-0.8-18.9-1.2c-5.4-0.4-10.3,0.4-15,4c-2.6,2-6.8,2.6-10.3,2.5c-18.2-0.7-35.9,0.9-52.7,8.4
		c-3.5,1.6-6.3,1.4-9.2-0.9c-1.3-1-2.7-1.9-4.1-2.8c-11.8-7.8-12.7-7.9-27.1-4.5c-0.4-19.6-0.8-39-1.2-59.7
		c-18.4-0.5-36.1-0.9-54.4-1.4c0.6-10.8,1-21,1.8-31.1c0.1-1.4,1.6-2.7,2.7-3.9c5.5-5.8,5.5-5.8,1.1-13.6
		c7.2-10.5,14.4-21.3,22-31.8c3.8-5.2,4.4-9.8,1.1-15.5c-4.9-8.6-9.1-17.6-13.8-26.7c6.9-3.8,13.4-3.6,19.8-1.4
		c14.9,5.1,30.4,7.3,46,6.9c12.1-0.3,22.6-6.8,32.7-13.3c1.2-0.8,2-2.6,2.6-4.1c3.6-9.9,7.2-19.9,11.1-30.8c-4.3-2-8.1-5.1-11.9-5.2
		c-7.7-0.1-11.3-4.9-14.8-10.2c-2.8-4.2-5.7-7.8-10.7-9.8c-5.1-2-8.6-6.1-10.5-12.1c13.5-9,27.1-18,40.6-27.1
		c4-2.8,7.6-6.2,11.4-9.3L2217.7,1393.5z"/>
	<path onclick="modals(this.id);" id="2355" class="st0" d="M1715.9,594.1c5.6-8.9,10.8-17.7,16.8-25.9c2.4-3.2,6.7-6.6,10.4-7c10.8-1,18.2-7.5,25.9-13.7
		c2.5-2,5.5-3.9,8.5-4.4c16.7-3,25.4-14.5,31.2-29c1.6-4,2.8-8.2,5-11.8c4.8-7.7,7.9-8.4,16.7-6c5.1,1.4,10.3,2.3,15.5,3
		c5.8,0.8,11-0.8,16.3-3.5c4.7-2.4,9.9-3.8,15-5.1c16.5-4.2,31.9-10.4,46.5-19.9c13.6-8.8,28.8-15.2,43.6-22
		c16.6-7.6,33.7-13.9,51.8-17.7c9.4-2,18.4-5.6,27.7-8.3c8.6-2.6,17.1-3.4,26.4-2.5c22.1,2.3,44.4,3.5,66.7,1.3
		c7.5-0.7,15.1-0.1,24.1-0.1c-0.8,4.7-1.1,8.6-2.2,12.2c-4.3,14-5.7,27.9,0.3,41.9c4.5,10.6,5.4,21.3,2.7,32.8
		c-1.3,5.8-4,10.4-7.2,14.7c-2.7,3.6-3.7,6.6-2.5,10.9c2,7-0.1,13.5-1.5,20.4c-4.8,23.6-20.3,42.4-28.1,64.5
		c-0.6,1.8-1.9,3.8-3.4,4.7c-11.8,6.9-17.2,17.1-16,31c-3.5,1.1-6.5,2.4-9.7,3.1c-12.2,2.9-15.1,12.2-14.4,20.7
		c0.8,10.4-1.5,19.2-6.6,28.4c-4.3,7.8-8.2,15.6-13.4,22.9c-2.6,3.7-2.9,9.3-3.4,14.1c-0.5,4.6-0.1,9.3-0.1,15.4
		c-5.7-2.9-10.7-5.4-15.6-7.9c-4.1-2.2-8-4.9-12.3-6.5c-11.7-4.3-22-10.8-31.5-18.7c-2.7-2.3-6-4.3-9.4-5.3c-6-1.8-10.9-4.9-14.4-10
		c-9.9-14.6-24.5-23.1-39.4-31.4c-5.2-2.9-10.2-6.2-15.3-9.4c-7.6-4.8-14.9-10-22.7-14.5c-9.8-5.7-19.7-11-27.6-19.5
		c-3.3-3.6-7.5-6.7-11.6-9.4c-6.9-4.7-13.8-8.9-23-6c-3.8,1.2-8.6,0.1-12.8-0.7c-13.7-2.6-27.3-5.7-41-8.1
		c-8.2-1.5-16.6-1.8-23.9,3.8c-5.5,4.2-10,2.8-15.1-1.4C1734.7,607.6,1726,601.6,1715.9,594.1z"/>
	<path onclick="modals(this.id);" id="2387" class="st0" d="M1827.9,2199.2c15.8,0,32,0,49.7,0c-3,38.2-7.6,76-11.3,113.8c0.6,0.2,1.3,0.4,1.9,0.7
		c2.3-3.8,4.5-7.5,6.3-10.6c6.8,6.8,13.6,13.3,20.1,20.2c2.7,2.8,5.2,6.1,6.9,9.6c4.5,9.6,11.3,16.2,21.8,18.7
		c4.8,1.2,9.7,2.2,14.5,3.6c9.1,2.7,18.4,5,27,8.9c4.4,2,7.7,7.1,11,11.1c4.2,5.1,8.1,10.5,11.8,16c2.4,3.5,4.1,7.5,6.3,11.2
		c5.2,9,7.9,14.5,19,7.8c1.7-1,4.5-0.8,6.6-0.4c8.8,1.8,17.5,3.9,27,6c-0.3,2.4-0.3,4.6-1,6.6c-2.6,7.6-2,14.9,0,22.5
		c1.6,6,2.6,12.4,2.8,18.6c0.4,12.3,0.2,24.6,0.1,37c-0.1,10.2-1.9,18.9-13.3,23.1c-5.8,2.1-7,8.3-7.4,14.2
		c-0.4,5.9-1.4,11.7-2.3,18.7c-5.3,0-10,0.7-14.4-0.1c-19.5-3.6-37.8,0-54.7,9.8c-6.8,3.9-12.7,9.2-19.6,14.3
		c-0.8-11.6-1.5-22.7-2.3-33.7c-0.2-2.7,0.1-5.5-0.8-7.9c-5.6-14.6-3.6-29.4-1.9-44.2c1.1-9.5,1.4-14.6-11.1-20.4
		c-10.8-5-21.2-11.2-31.7-16.8c-6.7-3.6-11.3-9.1-14.7-15.8c-4.9-9.8-9.1-20.1-15.2-29.1c-11.7-17.3-24.3-34-36.8-50.7
		c-2.3-3.1-6-5.2-8.9-8c-4.8-4.6-10-8.9-14.2-13.9c-10.7-12.7-13.1-27.1-8.2-43c5.7-18.4,12-36.5,24-52.1c1.4-1.8,2.6-4,3.2-6.2
		C1821.3,2226.1,1824.4,2213.3,1827.9,2199.2z"/>
	<path onclick="modals(this.id);" id="2382" class="st0" d="M2137.7,1637.2c0.5,20.8,1,40.9,1.6,62.4c2.6-1.1,4.1-1.4,5.2-2.2c6.3-4.3,12.6-3.7,18.7,0
		c6.2,3.8,11.7,7.6,15.2,14.9c6.2,12.9,13.5,25.2,21.3,37.2c4.3,6.6,10.1,12.3,15.9,17.7c5.6,5.2,9.8,10.6,10.7,18.4
		c0.7,5.6,2.2,11.1,3,16.7c1.4,9.6-1.7,12.1-10.9,9.4c-13-3.9-26-8.2-39.2-11.4c-4.9-1.2-10.4-0.2-15.6,0.6
		c-6.5,1-12.9,3.1-19.4,4.4c-7,1.4-13.2,4-17.5,10.3c-2.2,3.2-5.2,6-8.4,9.7c-3-3.6-5.7-6.8-8.4-10.1c-5.4-0.7-8.7,2.4-11.7,6.2
		c-2.5,3.1-4.8,6.5-7.6,9.2c-3.1,3-6.5,5.2-11.6,3.4c-2.9-1-6.6-0.3-9.8,0.3c-8.7,1.8-17.3,2-25.5-1.7c-9.3-4.2-17.3-3-24.8,4.5
		c-17.9-14.1-35.5-28.2-53.2-42.2c-9.7-7.6-19.4-15.2-29.1-22.8c-7.7-6-9.6-13.7-5-22.6c6.9-13.5,17.4-24.1,28.6-34.1
		c1.5-1.3,4.6-2.2,6.3-1.5c6.2,2.3,11-0.1,15.9-3.3c2.8-1.8,5.6-3.7,8.5-5.3c3.3-1.8,5.9-3.9,6.9-7.9c0.7-2.7,2.9-5.2,4.7-7.5
		c2.3-3,3.5-5.9,3.5-9.9c-0.1-6,2.3-10.6,8-14.8c8-5.8,13.9-14.3,11.8-25.7c-1-5.6,0.8-10.3,4.7-14.6c3.1-3.4,5.5-7.4,8.4-11
		c1.9-2.3,4.1-4.3,6.1-6.4c3.6-3.7,7.2-7.3,11.2-11.4c4.1,5.2,5,11.8,3.2,19.2c-2.7,10.8,1.3,15.2,12.5,14.7
		c2.4-0.1,5.5,0.3,7.2,1.8c4,3.3,8.3,3.5,13,3.7C2106.8,1635.8,2121.4,1636.6,2137.7,1637.2z"/>
	<path onclick="modals(this.id);" id="2356" class="st0" d="M2398.2,450.7c2.9,2.6,5.4,4.8,7.9,7c7.9,6.9,16.9,4.5,20-5.6c1.4-4.7,1.6-9.7,2.6-15.6
		c6.9,9.2,14,17.2,14.6,29.1c0.4,7.9,2.1,15.8,3.8,23.6c1.2,5.3,0.4,9.8-2.3,14.3c-7.4,12.3-16.8,20.7-32.2,21.9
		c-22.4,1.7-43.9,8.4-63.9,18.1c-10.7,5.2-22.4,10.2-30.2,20.5c-2.1,2.8-6.5,4.7-10.2,5.4c-15,2.7-30.1,5.3-45.4,2.3
		c-2.3-0.4-4.8-1.1-6.9-0.5c-9.7,2.7-18.7,0.6-28.1-1.9c-7.8-2.1-15.5-3.4-21.7-9.1c-0.2-0.2-0.5-0.4-0.8-0.5
		c-11.1-3.3-21.5-7.9-30.6-15.5c-3-2.5-8.8-1.6-14.5-2.5c-0.6-2.4-1.6-5.8-2.1-9.3c-0.2-1.5,0-3.7,0.9-4.6
		c6.7-6.5,7.9-14.9,9.8-23.6c2.4-10.9-0.7-20.3-4.1-29.9c-4.5-12.8-3.7-25.4-0.1-38.2c1.1-3.8,1.8-7.7,2.9-12.6
		c2.5,0.2,5.4,0.2,8.1,0.7c11.4,2.1,22.7,4.9,34.2,6.4c7.8,1,16.1,1.5,23.8,0.2c12.7-2.1,25.1-1.7,37.6,1.1
		c4.1,0.9,8.6,1.1,12.8,0.6c7.2-0.9,13.5,0.7,19.9,4c14.4,7.5,28.9,15.1,43.7,21.8c14.5,6.6,29,6.1,42.7-2.9
		C2392.4,453.6,2394.9,452.5,2398.2,450.7z"/>
	<path onclick="modals(this.id);" id="2360" class="st0" d="M2073.3,1131.3c-5.1-6.8-11.8-3.9-18.2-5.2c-0.4,3.3-0.7,5.9-1,8.7c-1.2,0.2-2.5,0.4-3.8,0.5
		c-7.9,0.3-15.8,0.7-23.7,0.8c-1.5,0-3.1-0.9-4.5-1.7c-14.1-8.4-26.4-18.8-37-31.4c-11.6-13.8-26.6-22.9-42.8-30.4
		c-7.2-3.3-14.2-7.2-21.6-10.2c-6.1-2.5-12.5-4.3-18.8-6.4c0.5-4.8,0.9-9.6,1.5-15.7c1.8-0.1,4.3-0.8,6.6-0.4
		c21.1,3.4,42.2,2.6,63.5,2c28.1-0.8,56.5-3.5,84.6,2.6c8.3,1.8,17,1.8,24.5,2.5c8.2-7.1-3.1-15.2,4.3-21.9
		c11.3,1.5,19.9-5.3,28.2-12.7c5.6-5,12.1-7.9,19.1-10.4c12.3-4.2,25-8.2,34.4-17.5c11.7-11.6,24.1-23,29.7-39.2
		c3.8-10.9,13.2-15,22.6-17.5c10.1-2.7,18,7,16.5,19c-0.7,5.9-1.9,11.8-3,17.7c-1.2,6.8,0.6,11.8,6.5,16.4
		c6.8,5.2,12.9,11.5,18.3,18.2c4.2,5.3,5.5,12.2,3.9,19c-0.6,2.5-2.9,5.3-5.1,6.7c-7.1,4.4-14.8,5.8-22.9,2.6c-2.5-1-5-1.6-8.4-2.7
		c-3.4,6.5-6.8,12.8-10,19.3c-1.6,3.2-3.2,5.4-7.4,5.4c-6,0-9.5,4.1-11.7,9.3c-1.2,2.8-2.2,5.6-3.3,8.4c-4.1,10.5-11.4,17.2-22.9,18
		c-11.2,0.8-18.2,7.9-24.3,15.8c-6.4,8.3-13.2,16.5-16.7,27c-1.8,5.5-5.9,10.2-9.3,15.7c-8.6-5.3-18.5-6.6-23.8-15.3
		c-5.8-0.2-11.6-0.7-17.3-0.5C2078.1,1127.9,2076.1,1129.8,2073.3,1131.3z"/>
	<path onclick="modals(this.id);" id="23511" class="st0" d="M1913.4,1691c-23.4,1.1-45.9-0.6-71,1.1c16.8,19.1,31.9,36.2,47.5,53.8
		c-1.2,2.8-2.5,5.7-4.2,9.4c-4.9-4.8-9.4-8.7-16.3-8.5c-2.6,0.1-5.6-2.1-7.8-3.9c-11.7-9.9-22.9-20.3-36.4-27.9
		c-1.3-0.7-2-2.5-3.6-4.4c6.4-6,12.6-11.8,19.7-18.5c-26.2-30.7-52-61-76.7-90.1c8.3-22.2,16.1-43.3,23.9-64
		c17.4,1.1,33.9,1.7,49.8,7c16.7,5.6,33.8,10.3,47.3,22.3c7.5,6.6,16.3,10.1,25.6,12.8c9.2,2.7,16.8,7,22.9,14.9
		c3.7,4.8,9.4,8.5,14.9,11.4c10.1,5.2,20.2,10.3,27.9,18.9c3,3.3,6.6,4,10.8,4c11.3-0.1,22.6,0,34.3,0c0.4,4.6,1.1,9.4,1.3,14.3
		c0.2,7.6-4,14.3-9.5,17.8c-6.8,4.4-9.8,10.2-11.7,18c-3.2-1.6-5.8-2.9-8.6-4.3c-0.7,0.2-1.8,0.2-2.6,0.7c-14,8.2-27.3,5.5-40.6-2
		c-9.2-5.2-18.6-10-29.2-15.6C1918.5,1669.4,1916,1679.8,1913.4,1691z"/>
	<path onclick="modals(this.id);" id="2368" class="st0" d="M2253.1,1295.9c14.7-6.9,16.7-6.6,24.8,3.7c-3.5,9.3-7.2,18.9-10.7,28.6c-1.7,4.7-4,7.8-9.5,8.9
		c-5.7,1.1-7.5-2.6-10-6.8c-34.7,6.1-69.3,12.2-104,18.3c-4.5-6.4,2-11.5,1.3-17.2c-6.8-7.9-15.1-9.7-26.1-5.5
		c-3.5-4.8-7.3-9.4-10.4-14.3c-2.8-4.5-5.1-9.3-3.2-15c2.1-6.4,0.3-12.4-3.1-18.1c-0.7-1.1-1.2-2.4-2.1-3.4
		c-11.9-13.2-13.2-28.5-8-44.5c5.9-17.9,8.6-36,3.7-55.5c10.3-0.5,18.9,1.2,27.4,3.6c3.5,1,6.8,2.7,10.1,4.2c7.7,3.5,14.7,9,24,7.5
		c1.2-0.2,2.5,0.7,4.4,1.3c0.4,6.4,4.1,9.8,10.2,12.7c12.6,5.8,24.6,13,36.3,19.3c0.4,1.5,0.9,2.3,0.7,2.7
		c-3.9,8.3-2.3,15.3,3.2,22.9c6.4,8.8,8.9,20.1,17.3,27.7c3.6,3.3,7.6,6.1,11.5,9.2C2244.6,1289.3,2248.5,1292.3,2253.1,1295.9z"/>
	<path onclick="modals(this.id);" id="2366" class="st0" d="M2517.2,1164.6c-5.2,3.9-9.4,7-13,9.7c1.3,4.9,3.2,8.4,2.8,11.6c-0.8,6-6.4,9.3-12.6,8.5
		c-2.6-0.3-5.2-1.1-7.8-1.4c-6.4-0.9-11.8,0.7-15.9,6c-3.6,4.6-8.2,7.1-13.9,8.9c-9.4,3-11,6.2-11.1,16.3c0,8.6,0,17.2,0,27
		c-7.2,1.1-14.6,2.4-22,3.4c-11.8,1.5-23.8,2.5-35.6,4.4c-11.4,1.8-19-4-25.8-11.6c-2.4-2.7-4-6.1-6-9.2c1.9-6.2,6.7-9.4,12.4-10.2
		c7.1-1,9.7-4.6,9.6-11.3c0-1.6,0.4-3.3,1-4.9c5.9-17.2-0.7-31.7-9.5-45.8c-4.1-6.5-8.8-12.9-4.2-21c5.5-9.7,14.9-12.1,24.8-11.3
		c19.7,1.7,39.1,2.7,58-4.5c9.3-3.6,17.3-0.9,25.1,4.9c6.6,4.9,14.2,8.4,21,13.1C2501.7,1152.1,2508.5,1157.9,2517.2,1164.6z"/>
	<path onclick="modals(this.id);" id="2379" class="st0" d="M2096.9,1499.4c1,17.7,13.8,29.1,18.1,45.3c-8.7,13-18,26.7-27.4,40.7c1.6,1.9,3,3.6,4.3,5.1
		c-0.2,0.9-0.2,1.8-0.6,2.1c-4.1,2.8-5.9,6.2-5.9,11.6c0,7.9-1.3,15.8-2.1,23.9c-4.1-0.5-7.8-1.2-11.5-1.3
		c-9.2-0.3-11.6-2.8-8.9-11.6c3.1-10.2-1.7-17.6-6.7-26.5c-2.2,2.3-3.9,3.3-4.3,4.7c-1.7,5.8-5,9.7-10.3,12.7
		c-2.6,1.5-4.5,4.8-6,7.7c-4.5,8.4-10.6,12.5-20.7,11.8c-8.2-0.6-16.5,0.5-24.8,1.2c-5.5,0.5-9.7-1.5-13.2-5.4
		c-7.1-7.8-16.1-12.7-25.6-16.9c-2.1-0.9-4.2-2-6.1-3.3c-10.1-6.8-10.9-9.4-8-21.3c3.2-12.8,6.2-25.7,9.5-39.7
		c9.9,1.5,19.4,2.6,28.7,4.3c6.8,1.3,13.7,2.9,20.3,5.1c5,1.6,9.8,3.8,14.4,6.4c8.9,5.1,17.5,10.7,28.1,12.2
		c8.8,1.3,14.6-3.4,20.2-8.6c1.3-1.2,1.4-4.3,1.2-6.4c-1.7-13-1.4-25.9,0.3-39c0.6-4.9-1.9-10.1-3-15c2.9-3.7,6.4-2.9,9.4-1.6
		c5.9,2.6,11.5,4.2,18.1,2C2088,1498.4,2092.2,1499.4,2096.9,1499.4z"/>
	<path onclick="modals(this.id);" id="2385" class="st0" d="M1811.7,2067.4c-6.8-0.4-12.4-0.6-19.5-1c1.6-6.4,2.5-12.1,4.5-17.5c2.4-6.3,8.3-5.6,13.7-5.4
		c9.3,0.3,18.6,0.9,27.8,1.2c2.3,0.1,5.2,0.5,6.9-0.6c7.6-5,15.9-3.1,24.1-3.3c5.6-0.1,11.1-1.2,17.1-2c1.2,2,3.2,3.7,3.5,5.8
		c1.6,9.6,2.8,19.3,3.9,29c1.1,9.2,1.7,18.5,2.8,27.7c0.3,2.2,1.2,4.8,2.8,6.2c8.5,8,13,18.5,17.4,28.9
		c4.9,11.7,13.4,20.5,21.3,29.9c4.9,5.8,5.6,9,0,14.1c-3.9,3.6-8.4,6.8-13.2,8.9c-7.8,3.4-11.5,9.2-14.4,16.7
		c-10.8,28.2-22.1,56.3-33.2,84.4c-0.9,2.3-2.3,4.5-4.8,6.4c0-3.7-0.3-7.5,0-11.2c2.6-26.8,5.3-53.5,8-80.2c0.1-1,0-2.2,0.5-2.9
		c5.4-7.6,2.4-15.2,0.5-22.9c-5.8-22.9-11.5-45.8-17.3-68.7c-0.6-2.6-1.4-5.1-2.6-9c-16.5-1.5-33.1-3.1-51.1-4.8
		C1810.8,2087.2,1811.2,2077.8,1811.7,2067.4z"/>
	<path onclick="modals(this.id);" id="2375" class="st0" d="M2218,1393.2c-3.2,1.4-6.8,2.3-9.7,4.2c-11.4,7.4-22.6,15.2-34,22.8c-2.7,1.8-5.5,3.4-9.2,5.6
		c-2.8-13-4.7-25.3-8.3-37.1c-3.6-12-8.9-23.5-13.8-36.4c13.9-2.5,26.4-4.8,39-7c17.6-3.1,35.3-6.3,53-9.3
		c5.4-0.9,11.1-3.3,14.9,3.6c0.6,1.1,3.6,1.2,5.5,1.1c2.9-0.2,5.8-1,9.4-1.7c4.9,7,9.8,14.1,15,21.6c9.8-2.3,19.4-4.6,29.5-7
		c5.8,5.2,11.8,10.4,17.5,15.8c11.1,10.6,21.9,21.4,33,31.9c3,2.8,3.8,5.5,2.7,9.6c-2.9,11.2-5.1,22.6-7.9,35.2
		c-8.8-5.2-17.7-9-22.5-16.7c-8.7-14.2-22.3-22.5-34.6-32.6c-1.6,0.5-3,0.6-4,1.3c-6.3,4.1-11.6,2.9-17.1-2
		c-5.4-4.8-11-9.2-19.2-9.2c-3.9,0-7.9-3.2-11.5-5.5c-4.9-3-9.5-3.1-13.9,0.3c-4.8,3.7-9.4,7.8-14.1,11.8
		C2217.7,1393.5,2218,1393.2,2218,1393.2z"/>
	<path onclick="modals(this.id);" id="23401" class="st0" d="M1937.2,1299.1c0.9-13,1.6-24.1,2.3-35.2c18.8-2,33.9-10.7,48.6-20.3
		c6.2-4,12.6-7.5,20.2-7.6c8.9-0.2,17.8,0,28,0c0,4.8,0.2,9.3,0,13.9c-0.2,5.2,2.2,9.1,6.3,11.7c3.4,2.2,6.9,3.3,10.8-0.1
		c3.2-2.7,7.2-4.6,11.1-6.4c7.5-3.5,10.2-7.5,8.9-15.6c-0.8-5.2-2.4-10.3-3.3-14.4c2.8-6.6,5.3-12.5,7.9-18.7
		c5.3-0.7,11-1.4,17.6-2.2c-0.5,2.6-0.7,4.8-1.2,6.8c-2.5,10.3-4.9,20.6-7.6,30.9c-2.7,10.1,0,19.2,5.8,27.3
		c6.6,9.2,11.7,18.2,9.4,30.3c-1.1,5.6,1.3,11.2,5.7,15.3c3.4,3.3,5.8,7,6.2,12.8c-12.9-2.7-18.1-14.2-27.5-20.8
		c2.6-4.1,4.6-7.4,7.4-11.7c-5.1-2.3-10-3.9-14.3-6.6c-3.9-2.5-7.1-6.1-9.8-10.8c-10.8,0-21.6,0-33.1,0c-0.3,2.8-0.5,5.3-0.7,7.9
		c-0.6,7.6-1.6,15.1-1.8,22.7c-0.2,4.9,0.5,9.9,1.1,14.9c1.2,9.5,2.5,18.9,4,29.7c-18.1,0.5-34.8,0.8-53-0.9c0-15.7,0-30.8,0-46.4
		C1969.4,1303.5,1954.1,1301.4,1937.2,1299.1z M2136.8,1181.1c5.7,3.3,11.4,6.3,18.6,5.9c4.9-0.3,9.9,1.5,10.8,8
		c0.2,1.6,1.8,3.6,3.3,4.4c8.4,4.7,16.7,9.9,25.5,13.5c6.5,2.7,11.9,10.1,19.8,7.5c6.8-2.3,13-6.5,19.5-9.9c0.3-0.1,0.5-0.5,1.5-1.5
		c-2.3-27.4,3-54.5,14.6-81.4c-32.1-1.3-63-2.5-94.7-3.7c0.5,7.1,0.9,13.4,1.4,19.8c-10.4,1.3-19.6,2.5-28.7,3.4
		c-2.9,0.3-6.5,0.7-8.8-0.6c-8-4.5-17.6-6.5-23.6-14.4c-1.2-1.5-3.9-2.5-6-2.7c-8.2-0.9-15.3,3-16.2,16.7
		c-0.9,13.2-1,13.1-14.3,13.2c-4,0-8-0.2-12,0.1c-3.9,0.3-7.7,1.1-12.5,1.9c7.4,4.1,13.2,8.1,19.7,10.6c5.7,2.2,12.2,3.9,18.1,3.5
		c9.5-0.7,12.6,0.3,15.3,8.9c1.6,5.2,3.4,10.3,5.2,15.5c0.6-0.2,1.2-0.3,1.9-0.5c-0.6-9.3-1.1-18.5-1.7-28.4
		C2109.4,1172.3,2123.8,1173.5,2136.8,1181.1z"/>
	<path onclick="modals(this.id);" id="2384" class="st0" d="M1777.6,1919c2.8,2.3,5.1,4,6.6,5.2c-1.4,8.2-2.5,15.6-3.9,23c-0.4,1.9-1.2,3.8-2.4,5.3
		c-7.8,9.9-11.1,20.8-8.3,33.3c0.8,3.5-0.6,5.9-3.6,8.4c-4,3.3-8,7.4-10.1,12c-3,6.5-7.1,9.2-14,8.4c-1.6-0.2-3.3,0.2-5.3,0.3
		c-3.2,7.7-2.2,15.7-2.6,23.6c-0.2,3.2,0.4,6.6-0.7,9.4c-4.3,11.8-6.5,23.7-3.6,36.1c1.3,5.6,0.1,10.2-4.4,14.4
		c-4.4,4.1-6.3,9.8-8.1,15.6c-3.4,10.7-8.3,20.7-17.1,28.6c-4.6,4.1-8.5,9.5-11.2,15.1c-3.5,7.2-9.5,10.7-15.9,14.9
		c-0.5-1.3-1.1-2.1-1.1-2.9c0.1-11.7-5.7-19.6-15.2-25.9c-8-5.3-15.3-11.8-22.9-17.7c-0.5-0.4-1.2-0.4-2.5-0.9
		c-7.6,8.1-15.4,16.5-23.3,24.9c-12.1-1.6-22.4-6.1-30.5-15.2c-5.1-5.7-11-10.7-16.1-16.4c-3.9-4.3-8.5-6.1-14.2-6c-2.3,0-4.7,0-7,0
		c-3.3,0-6.7,0.5-10-0.1c-9.2-1.6-17.6-3.6-27.7-0.7c-9.1,2.6-16-6-20.3-14.5c-4.1-8.2-8.3-16.4-13.1-25.9c2-5.2,4.4-12.1,7.4-18.7
		c1.1-2.4,3.7-4.9,6.1-5.8c9.9-3.9,12.7-12,13.6-21.4c1.1-12.2-3.7-22.8-9-33.3c-2.7-5.3-4-10.4-1.8-16.2c2.3-6.4,4.5-8.3,11-7.2
		c6.6,1.1,12.9,2.5,19.6,0.2c2.2-0.8,5.8,0.9,8.2,2.4c20.6,13,43.6,17.4,67.3,19.1c16.9,1.3,30.2-5.7,40.7-18.9
		c6.4-8.1,13.4-15.6,19.9-23.6c9.3-11.5,22.4-16.2,35.6-20.8c6.9-2.4,13-0.9,17.8,4.9c5.7,6.9,13.3,11,21.3,14.4
		c10.2,4.4,20.6,4.5,31,1.1c6.3-2.1,11.1-5.7,13.2-12.5C1772.9,1930,1775.2,1924.9,1777.6,1919z M1680.9,1839.4
		c9.5,6,16.7,14.1,22.4,23.7c4.9,8.3,9.5,16.7,14.6,24.9c1.3,2.1,3.4,4.5,5.6,5c13.9,3,27.4,3.7,39.7-6.2c4.6-3.7,11.4-5.1,17.3-6.9
		c2.5-0.7,6.3,1.6,8.2,0.4c5-2.9,10.1-2.8,15.4-3.2c2.4-0.1,4.7-1.8,7.1-2.8c3-1.2,5.8-3.1,8.9-3.6c10.1-1.8,20.2-3.1,30.9-4.6
		c1.5-2.2,3-5.3,5.3-7.5c6-5.6,1.7-11,0.2-16.5c-1.4-5.1-5.9-4.4-9.8-4.8c-17.5-1.6-35-3.1-52.5-4.9c-29.3-3-58.6-7.8-88.2-7
		c-5.7,0.2-9.3-1.5-11.9-6.7c-1.6-3.2-4.2-6-6.6-8.6c-7-7.5-13.8-15.1-17.8-24.9c-2.2-5.4-5.7-10.4-9.6-17.3
		c-1.9,10.1-7.2,17.7-5.5,26.5c1.7,8.9,0,17-4.4,25.3C1660.9,1826.5,1670.9,1833,1680.9,1839.4z"/>
	<path onclick="modals(this.id);" id="2350" class="st0" d="M1898.1,1770.3c5.3,0.4,10.6,1.2,15.9,0.9c3.6-0.2,7.1-1.9,12.4-3.5
		c29.8,23.5,61.3,48.4,93,73.5c2.2-1.8,4-3.3,5.8-4.7c4.2-3.4,8.7-4.5,13.9-2.3c10.4,4.5,21,6.1,32.1,2.8c1.8-0.5,4.1-0.5,5.9,0
		c9.2,2.4,15.1-2.2,20.3-9c2.7-3.6,5.9-6.8,9.8-11.4c3.6,4.6,6.1,7.8,9.4,12.1c-18.5,17.6-29.7,39.1-35.6,64.1
		c-11-5.2-18.6-12.5-25.8-20.2c-7.5-8-12.8-7.7-18.1,1.7c-3.1,5.4-5.5,11.2-7.3,17.2c-2.2,7.4-4.5,14.6-10.5,20.7
		c-5.4-4.4-11-8.3-18.3-8.7c-6.9-0.4-14.2-3.1-18.8,5.8c-22-7.5-43-17.9-67.2-18.6c-0.3,3.4-0.5,5.6-0.6,7.9c-0.1,1.9,0,3.9,0,6
		c-20,0-39.9,0-60.6,0c0.4-3.4,0.6-6,1.1-8.5c2.5-13,5.9-26,7.3-39.1c0.7-6.2-2-12.8-3.9-19.1c-0.4-1.5-3.6-2.8-5.6-3.1
		c-10.9-1.4-21.8-2.4-32.6-3.5c-31-3.1-62.1-6.1-94.3-9.3c-2.2-12.5-4.5-25.1-7-39.1c51.9-2.4,103.2-4.7,154.9-7.1
		c0.6,11.5,1.2,22.9,1.9,35.8c14.5-0.7,27.9-1.3,42-2c0-9.6,0-17.8,0-25.2c-11.1-7.5-23.2-1.6-34.7-3.5c2.4-7.8,7.8-11.6,15.3-10.7
		C1898.2,1770.3,1898.1,1770.3,1898.1,1770.3z M1926.7,1755.3c1.6-10.3,9.1-17.5,14.2-25.9c3.3-5.4,9.9-8.7,14.4-13.5
		c4-4.3,7.7-5.9,13.8-5.1c10.2,1.5,17.4-5.9,24.2-11.7c3.8-3.3,5.2-9.5,8-15c-3.4-2.9-6.3-7.1-12.3-3.9c-13.9,7.4-26.8,3.5-39.6-3.4
		c-8.6-4.7-17.4-9.1-26.3-13.7c-2.6,11.1-5,21.3-7.6,32.5c-21.7,0-42.8,0-64.1,0c0.4,1.7,0.4,2.5,0.8,2.9
		c12.7,14.5,25.3,29,38.1,43.3c1.3,1.4,3.1,2.9,4.8,3.2c3,0.6,4.7,1.5,5.4,4.7c0.3,1.4,2.6,2.7,4.2,3.4c6.7,2.6,13.5,4.9,20.6,7.4
		C1926,1758.5,1926.5,1756.9,1926.7,1755.3z"/>
	<path onclick="modals(this.id);" id="2381" class="st0" d="M1699,1606.1c9.7-1.4,18.8-2.8,28.3-4.2c3.6-11.6,0.2-25,10.2-35.3c0.8,0,2.4-0.1,4,0
		c18,0.8,17.9,0.9,22,18c1.3,5.3,0.5,9.4-3.2,13.8c-6.8,8.1-12.9,16.9-19.5,25.2c-3.4,4.3-6,8.7-5.2,14.5c0.6,3.8-1,7.1-4.8,7.4
		c-2.8,0.2-7-0.9-8.4-2.9c-3.2-4.5-7.1-5.2-12-5.3c-10.2-0.1-12.7-2.8-12.7-13.2c0-5.3,0.1-10.6,0.3-15.9
		C1698,1607.6,1698.5,1607,1699,1606.1z"/>
	<path onclick="modals(this.id);" id="2374" class="st0" d="M2102.4,1427.8c-1.8,23.5-3.5,45.5-5.2,68.2c-5.1,0-10.2-0.9-14.6,0.2c-5.3,1.4-9.7,0.9-14.5-2
		c-0.6-2.9-1.2-6.2-2-9.3c-1.2-4.8-0.1-8.1,3.1-12.4c6.9-9.4,9.1-15.3,0.9-26c-4.1-5.3-7.2-10.7-2.4-16.9c1.6-2,5-4.3,7.1-3.9
		c4.2,0.8,7.8-1.2,11.5-1.3C2091.3,1424.3,2096.3,1426.4,2102.4,1427.8z"/>
	<path onclick="modals(this.id);" id="2383" class="st0" d="M1978.7,1911.9c0.8,8.4,1.6,16.6,2.5,25.5c-5.3-0.2-8.8-3.6-12-6.3c-9.6-8.5-20.2-10.2-32.3-6.9
		c-3.8,1-7.9,1-11.5,1.4c-7.7-11.5-8-13-6.6-32.2C1939.5,1896.7,1959.1,1903.2,1978.7,1911.9z"/>
	<path onclick="modals(this.id);" id="2354" class="st0" d="M2101.6,1361.7c13.8,1.8,26,3.5,40,5.3c-7.3,7.2-14.2-0.2-20.5,3.5c2,7.1,15.6,6.8,11.9,17.9
		c-1,0.2-2.3,0.8-3.5,0.8c-10.2,0.6-10.2,0.5-11.8,10.6c-0.1,0.6,0.1,1.7-0.2,1.9c-9,5-4.5,14.1-6.4,22.2
		c-5.6-0.9-11.2-1.4-16.5-2.9c-5.1-1.4-6-4.7-3.1-8.9c2.6-3.7,5.6-7.2,8.3-10.8c3.1-4.1,4.7-8,3.5-13.7
		C2101.9,1379.9,2102.2,1371.9,2101.6,1361.7z"/>
	<path onclick="modals(this.id);" id="2341" class="st0" d="M2048.1,1217.4c0-4.5,0-8.1,0-12.3c-3.5,0.5-6.6,0.9-9.9,1.3c0-2.9,0-5.5,0-8.4
		c4-0.4,7.5-0.7,11.8-1.2c1.3-6.3,2.7-12.6,3.9-18.2c8.5,0,15.9,0.2,23.4-0.1c4.1-0.1,6.1,1.7,7.2,5.3c1.7,5.3,3.3,10.7,5.3,16.9
		c-3,0.7-6,2.4-8.5,1.9c-6.2-1.1-7.4,2.6-8.6,7c-0.8,3.1-1.9,6.1-2.5,7.8C2062,1217.4,2055.3,1217.4,2048.1,1217.4z"/>
	<path onclick="modals(this.id);" id="2346" class="st0" d="M2038.3,1280.9c7.9,0,14.5-0.2,21.1,0.1c3.9,0.2,7.5,0.3,9.8,5.1c1.3,2.8,5.7,4.2,8.9,5.9
		c3.1,1.7,6.5,2.9,10.8,4.8c-4.4,4.8-5.3,13.1-14.4,8.4c-3.8,2.7-7.4,2.6-11.9,0.6c-3.6-1.6-8.2-1.1-12.3-0.9
		c-3.6,0.1-7.1,1.1-11,1.7C2039.2,1298.3,2038.8,1290.2,2038.3,1280.9z"/>
	<path onclick="modals(this.id);" id="2339" class="st0" d="M2057.6,1138.7c0.4-3.1,0.6-5.6,1-8.3c6.6-3.6,9.1,2.8,13.5,5.6c-0.8,5.9-1.5,12-2.4,18.7
		c-10.6,0.8-21.4,1.8-32.2,2.2c-1.8,0.1-3.6-2.4-5.6-3.3c-1.7-0.8-3.7-0.9-5.8-1.5c-0.1-2.6-0.6-4.9-0.3-7.1c0.9-5.5,3-6.7,8.8-6.6
		C2042.1,1138.9,2049.7,1138.7,2057.6,1138.7z"/>
	<path onclick="modals(this.id);" id="2351" class="st0" d="M1916,1784.8c-0.7,8.1-1.2,14.3-1.8,21.5c-11.8,0.8-23.1,1.5-35.5,2.3c0-8,0-15.4,0-23.8
		C1890.5,1784.8,1902.3,1784.8,1916,1784.8z"/>
	<path onclick="modals(this.id);" id="2352" class="st0" d="M2063.8,1490.8c-1.6,0.9-3.1,1.7-4.4,2.5c-5.9,3.5-6.8,5-4.6,11.3c1.8,5.2,3.1,9.9,0.1,15.2
		c-0.8,1.4,0.3,3.8,0.5,5.7c0.2,2.6,0.6,5.3,0.6,7.9c0,5.2-0.6,10.5-0.1,15.6c0.8,9.4-4.3,15.9-13.8,15.9c-4.5,0-9.2-1.2-13.6-2.6
		c-3.4-1.1-6.8-2.9-9.8-5c-16.8-12.1-36.6-14.8-56.3-18.2c-5.5-1-11.1-1.7-17.9-2.8c-4.2,17-8.3,33.6-12.2,49.3
		c-9.1-3.7-17.6-6.9-26-10.7c-6-2.7-12.3-5.3-17.3-9.4c-14.7-12.3-32.3-18.4-50.1-23.5c-14-4-28.1-7.8-43.1-7.1
		c-5.2,0.2-10.8-2.9-15.8-5.3c-10.5-5-20.5-10.8-31-15.8c-6.9-3.2-12.5-7.3-16.8-15c33.9-13.4,70-21.2,99.8-42.4
		c-7.6-10.3-14.8-20.1-22.3-30.3c6.3-6,12.2-11.7,18.8-18c8.9,5.6,18.1,11.3,27.3,17.2c13.3,8.6,13.3,8.7,27.5,1.6
		c26.8-13.4,53.5-26.9,80.3-40.3c6.6-3.3,14-3.4,20.3-1c12.1,4.6,24.3,2.5,36.5,2.6c3.2,0,6.5-0.2,9.7,0.4c19.5,3.5,19.5,3.6,36-5.5
		c4.8,3.1,9.9,6.1,14.8,9.6c10.3,7.5,12.3,7.4,19.6-2c-1.1,11.3-16.2,16.2-13.8,30.4c-3.8,0.5-7.6,1.2-11.4,1.4
		c-10.7,0.6-16.7,11.7-11,20.8c1.1,1.7,2.4,3.2,3.5,4.8c5.7,8.2,6.2,15.8-0.9,22.5c-5.1,4.9-5.6,9.1-3.5,15
		C2063.8,1487.2,2063.7,1488.9,2063.8,1490.8z M2202.9,1465.1c-9.7,0-14.9-5.8-19.4-13.2c-1.4-2.4-3.8-4.8-6.3-5.9
		c-10.8-5-15.8-13.9-16.9-25.1c-1.8-18.4-7-35.7-15.4-52c-1,1.7-2.1,3.6-3.1,5.4c-3.8-0.2-7.1-0.3-10.4-0.5c6.3,6,5.6,12.2,3.7,19
		c-4.7,0.4-8.9,0.8-13.5,1.3c0,3.7,0,6.9,0,10.6c-7,1.4-8.2,6.4-7.4,12.7c0.4,2.8,1.1,6.4-0.3,8.3c-1.3,1.8-5.1,1.9-8.4,2.9
		c-1.9,25.1-3.8,50.4-5.7,75.4c7,0,13.1-1.4,18.1,0.3c15,5,30.5,6,45.9,8.1c3.1,0.4,6.6-0.1,9.7-1c5.4-1.7,10.7-3.8,15.6-6.4
		c4.2-2.2,9.2-3.8,11.1-9.3c3-8.8,6.2-17.4,9.7-27.1C2207,1467.1,2205,1465.1,2202.9,1465.1z M2121.5,1329.2c-5,3.4-10,2.6-14.9-0.2
		c-2.4-1.3-4.7-2.6-8-4.4c0,7.7,3.2,14.9-4.5,19c1.4,1.6,2.6,2.8,3.4,4.2c0.7,1.3,1,2.9,1.8,5.6c2-11.5,2.5-11.8,12.3-9.7
		c3.5,0.7,7.1,1.3,10.7,1.6c6.2,0.6,12.2,1.5,15.8,5.9c1.1-6.4,2.2-13,3.6-20.7C2135,1328.7,2128.8,1324.1,2121.5,1329.2z"/>
	<path onclick="modals(this.id);" id="2388" class="st0" d="M2093.7,1324.4c-17.5,3.4-34.6,6.7-52.3,10.1c-1-3.2-1.7-5.5-2.8-8.8
		c10.1-1.7,19.4-3.2,28.7-4.9c6.8-1.2,13.6-2.5,20.4-3.7C2092.5,1316.3,2094.6,1318.2,2093.7,1324.4z"/>
	<path onclick="modals(this.id);" id="2353" class="st0" d="M2141.9,1363.8c-14.7-2-27-3.7-40.3-5.5c0.7-4.4,1.4-8.2,2.2-12.9c11.5,4.4,24.7-0.4,33.6,10.1
		C2138.9,1357.3,2139.7,1359.6,2141.9,1363.8z"/>
	<path onclick="modals(this.id);" id="2347" class="st0" d="M2088.6,1314.1c-17.7,2.8-33.6,5.3-49.9,7.8c-0.8-3.6-1.4-6.4-2.2-9.9c1.6-0.8,3.1-2.2,4.9-2.5
		c8.3-1.6,16.4-0.5,24.5,1.9c2.2,0.7,4.9-0.5,7.4-0.3C2077.8,1311.5,2082.7,1306.5,2088.6,1314.1z"/>
	<path onclick="modals(this.id);" id="2349" class="st0" d="M1898.2,1770.3c-4.2-4-8.3-5.4-12.8-0.3c-0.8,0.9-2.8,0.8-4.5,1.2c-2-8.3,6.1-4.1,8.4-8.3
		c1.7-3.8-2.3-11.4,6.5-14.5c1.6,6.5,6.5,7.8,12.2,9c4.7,0.9,9,3.5,13.5,5.3c0,0.7,0,1.4,0,2.1c-1.8,0.8-3.6,2.3-5.4,2.4
		c-4.6,0.4-9.3-0.1-13.9,0.3c-1.5,0.1-2.8,1.8-4.1,2.8C1898.1,1770.3,1898.2,1770.3,1898.2,1770.3z"/>
	<path onclick="modals(this.id);" id="2344" class="st0" d="M2131.8,630.8c-5.1,8.1-9.9,16-14.9,23.6c-0.8,1.1-3,2.6-3.7,2.2c-1.5-0.7-3.2-2.5-3.3-4
		c-1-8.6,0.8-16.2,7.9-22.2C2122.4,626.6,2126.3,625.8,2131.8,630.8z"/>
	<path onclick="modals(this.id);" id="2348" class="st0" d="M2074,1345.5c-2.4-3.2-3.7-5-5.1-6.9c-2.6,1.2-4.9,2.2-7.9,3.6c-0.7-2.2-1.2-4-2-6.6
		c2.6-0.9,4.9-1.8,7.3-2.4c7.6-1.9,15.3-3.8,23-5.3c1.8-0.3,5.1,0.7,5.6,2c0.6,1.5-0.4,4.9-1.8,5.7
		C2087.1,1339.2,2080.7,1342.1,2074,1345.5z"/>
	<path onclick="modals(this.id);" id="2389" class="st0" d="M2125.8,646.3c6.4,4.3,11.8,7.9,18.9,12.7c-4.2,1.7-6.9,2.7-9.6,3.8c-2.6,1.1-5.2,2.2-8.9,3.9
		c-2.2-1.8-5.1-4.3-8.4-7.1C2120.5,655.3,2122.8,651.4,2125.8,646.3z"/>
	
	<path onclick="modals(this.id);" id="2363" class="st0" d="M3002.7,1106.9c1.1-10.4,2.4-19.5,3.1-28.7c0.5-7.1,5.3-11.7,9.8-15.6
		c5.9-5.2,9.5-10.8,9.9-18.5c0.1-1.3,0.6-2.5,1-4.3c9.6,0.7,19.1,1.4,28.9,2.1c2.9,3.9,5.2,8.1,2.5,13.4c-0.3,0.6-0.4,1.4-0.2,2
		c4,9.9,3,20.5,4.3,30.8c1,7.9-0.8,11.5-8.4,11.8c-11.2,0.5-22.4,0.5-33.5,1.7C3014.7,1102.1,3009.5,1104.7,3002.7,1106.9z"/>
	<path onclick="modals(this.id);" id="2343" class="st0" d="M3187.7,1469.1c0-4.3,0-7,0-9.6c-0.1-17.1-3.8-21.8-20-27.2c-3.5-1.2-6.7-3.5-11-5.9
		c2.8-3,4.2-5.8,6.4-6.6c5.8-2.3,12-3.7,18-5.6c6-1.9,11.8-4,18.8-6.5c0.3-0.8,1.2-2.6,1.8-4.4c3-8.5,2.9-7.9,12-6.8
		c7.2,0.9,14.7,1,21.8-0.3c14.5-2.6,28.3-1.4,43,4.3c-2.3,16.1-7.6,31.7-11.1,47.4c-1.1,0.6-1.8,1.3-2.2,1.1
		c-12.2-5.1-22.4,2.3-33.4,5.2c-6.4,1.7-6,6.9-4.8,12.5C3213.8,1467.6,3201.4,1468.3,3187.7,1469.1z"/>
	<path onclick="modals(this.id);" id="2342" class="st0" d="M3151.4,1392c17.3-5.5,32.2-0.6,46.8,7.4c1.4,3.8-0.8,5.7-4.3,6.9c-9.4,3.1-18.9,6.1-28.2,9.5
		c-3.5,1.3-6.8,3.3-10.9,5.3c-3.6-3.6-5.5-7.9-3.6-14.3C3152.4,1402.2,3151.4,1397,3151.4,1392z"/>
</g>
</svg>
