<?xml version="1.0" encoding="utf-8"?>
<!-- Generator: Adobe Illustrator 19.0.0, SVG Export Plug-In . SVG Version: 6.00 Build 0)  -->
<svg version="1.1" id="Layer1" xmlns="http://www.w3.org/2000/svg" xmlns:xlink="http://www.w3.org/1999/xlink" x="0px" y="0px"
	 viewBox="0 0 4200 2600" style="enable-background:new 0 0 4200 2600;overflow: hidden; display: inline; width: inherit; min-width: inherit; max-width: inherit; height: inherit; min-height: inherit; max-height: inherit;" xml:space="preserve">
<style type="text/css">
	.st0{fill:#8FD4EB;stroke:#000000;stroke-width:3;}
</style>
<g>
	
	<path onclick="modals(this.id);" id="2395" class="st0" d="M2614.3,1985.2c-6,13.9-17.9,16.7-28.3,19.1c-21.3,4.8-43.2,7.2-64.8,11.1
		c-12.7,2.3-25.3,5.6-37.9,8.3c-15.6,3.3-31.1,6.7-46.8,9.5c-10.1,1.8-20.4,2.9-30.6,4.1c-4.8,0.6-6.8,3.2-7.8,7.6
		c-2.4,10.4-3.6,20.6-0.5,31.3c3.5,12.1,5.5,24.5,3.1,37.4c-1,5-2.8,7.8-7.2,9.5c-9.6,3.6-18.2,9.2-28.8,10.9
		c-4.8,0.8-9.9,5.5-13.2,9.8c-4.2,5.4-8.7,7.5-15.3,7.1c-6-0.4-12,0.5-18,0.5c-4,0-5.8,2.1-7.4,5.4c-3.3,7.2-5.3,14.2-0.4,21.6
		c1.8,2.7,2.9,6,4.4,9c5,10.1,4.3,18.6-3.2,26.5c-6.1,6.4-10.2,13.7-12.9,22.1c-2.1,6.5-5,12.9-8.7,18.7c-1.9,2.9-6.1,5.2-9.6,6
		c-10.3,2.1-18.7,6.3-24.2,15.7c-5.6,9.6-15.7,12.3-25.2,14.2c-4.6,0.9-10.3-1.7-14.9-3.9c-5.1-2.4-9.6-3.1-15.2-1.8
		c-10.4,2.2-21,3.4-31.5,4.5c-4.9,0.5-9.9-0.7-14.8-0.8c-5.2,0-10.5-0.1-15.6,0.8c-4.7,0.8-6.2,4.7-3.7,9.2
		c3.4,6.1,7.1,12.1,11.3,17.6c1.8,2.4,5.2,3.7,8.1,5.1c5.5,2.6,10.6,5.5,12.1,12.5c-10.3,9.2-22.5,5.1-34.5,5.7
		c-0.7-1.4-1.6-2.8-2.1-4.2c-1.5-4.7-4.6-5.8-9.3-5.3c-11.5,1.4-23,2.6-34.6,3.5c-6.2,0.5-11.9,2.3-16.3,6.5
		c-10.1,9.6-21.9,17.5-29.1,29.9c-3.1,5.3-8.8,4.4-13.4,4.6c-4.3,0.2-4.7-4.7-5.8-8.1c-3.1-10.1-5.5-20.7-15.7-26.4
		c6.8-7.2,13.3-14.1,19.9-21c4.4-4.6,7.6-9.7,8.9-16.3c2-10,4.5-11.2,15.3-10.4c2.2,0.2,4.4-0.8,6.6-1c3.2-0.3,6.5-1.1,9.5-0.5
		c12.7,2.4,24.4-7,23.9-19.6c-0.1-1.9-0.3-4.7-1.6-5.5c-6.2-4.2-5.9-11.3-8.6-17.1c-4-8.2-7.7-17.4-19.6-17.3c-2,0-4.4-2.7-6.1-4.6
		c-5.8-6.1-12.1-8.1-20.5-5c-10.9,4-21.4,7.7-25.9,19.9c-0.4,1.2-2.4,1.8-4.8,3.4c-0.3-2.9-0.6-4.8-0.5-6.5c0.3-3.9-1.4-6.3-5-7.6
		c-5.4-2-10.2-4.5-13-10.2c-1.7-3.3-5-4.1-8.6-2.5c-2.1,1-4.4,1.6-7,2.5c-6.1-2.6-10.9-12.5-19.4-4.2c-2.9-2.4-5.8-4.3-8-6.7
		c-3.4-3.7-7.2-5.9-12.3-4.8c-4,0.9-6.2-1.1-8-4.2c-5-8.7-10.3-17-21.8-18.5c-2.6-0.3-5-3.2-7.3-5c-8.5-6.9-17.9-8.3-28.1-4.3
		c-1.8,0.7-3.7,1-5.9,1.6c-1.3-2.2-2.4-4.2-3.5-6.2c-3.7-6.7-7.9-8.1-14.8-5c-2.1,1-3.9,2.7-6,3.5c-4,1.6-8,3.5-12.1,4
		c-7,0.9-9.5-1.8-9.4-8.9c0.1-12.6-8.5-18.1-19.8-12.1c-7.3,3.9-14.1,8.8-23.4,14.6c-0.8-1.5-1.6-3.7-2.9-5.6
		c-7.4-10.7-16.7-12.3-27.1-5.1c-5.9,4.1-10.4,9.3-12.9,16.1c-1.2,3.1-2.2,6.3-3.7,9.3c-4.2,8.7-10.4,14.7-20.8,13.8
		c-4.7-0.4-7.6,1.3-9.7,5.3c-1.2,2.3-2.7,4.6-4,6.9c-3.7,6.9-6.2,14.1-14.5,18c-5.3,2.5-8.8,8.9-13.2,13.4c-4.1,4.1-8,5.2-14.1,2.3
		c-20.4-9.8-23.3-10-42.3-9.8c-5-7.8-8.4-17.2-17.9-21.5c-1.2-0.5-2.4-1.7-3.5-1.7c-11.2-0.3-22.2-5-33.5-1.6
		c-4.3,1.3-8.7,2.1-12.4-0.9c-5.4-4.3-11.5-4.7-17.9-4.5c-3.3,0.1-6.7-0.1-10,0c-5.9,0.3-10.2-2.3-13.6-6.9
		c-1.6-2.1-3.5-4.1-4.7-6.4c-5.8-11.5-18.4-14.6-27.6-21.9c-7.3-5.7-9.6-11.5-8-20.3c2.2-12.1,3.6-24.3,5.2-36.5
		c0.4-2.9,0.5-6,0.3-8.9c-1.1-16.3-3.1-18.8-18.9-23.3c-18.2-5.2-36.4-10.3-54.6-15.7c-7.3-2.2-14.5-4.6-21.6-7.3
		c-3.3-1.2-6.2-3.3-9.6-5.2c1-0.8,1.2-1.2,1.5-1.2c20-3.1,32.7-17.2,46.4-30.1c6.3-6,10.1-12.5,13.3-20.4
		c2.8-7.1,8.7-12.9,13.4-19.6c2.7,1.6,5.2,3.2,7.8,4.5c5.7,2.7,11.2,3.4,16.8-1c2.3-1.8,6-3,9-2.8c5.2,0.5,8.8-1.1,12.2-5
		c11.6-13.1,11.8-13.1-0.6-25.3c-9-8.9-18-17.7-27.4-26.1c-2.5-2.2-6.5-2.7-9.8-3.9c-4.6-1.6-10.1-2-13.8-4.9
		c-9.5-7.3-20.2-9.7-31.7-9.9c-1,0-2-0.3-3.3-0.5c-1.5-2.4-3.5-4.7-4.7-7.4c-5.4-11.4-15.2-19.2-23-28.6c-2.3-2.8-6.9-3.8-10.5-5.4
		c-3.5-1.6-7.2-2.9-11-4.4c4.9-3.7,9.6-6.9,13.8-10.6c5-4.3,6.3-10.9,3.2-17.2c-2.6-5.4-5.9-10.7-13.4-10c-1.7,0.2-3.3,0-5,0
		c-8.7-0.2-8.1-0.3-10.4-8.4c-1.8-6.2-4.8-12.3-8.4-17.8c-2.1-3.3-3.3-6.2-3.3-10c0.1-11.9-1.1-23.8,4.5-35.2
		c1.7-3.3,1.9-7.9,1.3-11.7c-1.1-7.8,1.6-14.6,4.7-21.1c1.9-3.9,5.4-7.7,9.2-9.9c9.4-5.5,15.3-12.9,18.6-23.4
		c3.8-12.1,2.6-23.6-2-34.9c-2.7-6.7-8.2-11.6-15.2-13.3c-6.7-1.6-13.8-1.9-20.7-2c-2.7,0-5.8,1.5-8.1,3.2
		c-6.7,4.9-13.2,10.1-19.6,15.5c-2.2,1.8-3.7,4.5-5.4,6.8c-0.6,0.8-0.9,2-1.6,2.3c-13.8,5.3-16.1,17.1-16.9,29.8
		c-0.2,2.6-0.6,5.2-0.9,7.9c-2.9,1-5.7,1.9-8.4,3c-11.3,4.6-14.3,10.3-12.6,22.6c2.8,20.2-3,38.3-13.7,55.4
		c-4.6,7.4-7.8,15.8-12,24.8c-4.8,0.5-11.1,1.6-17.3,1.4c-2.9-0.1-6.7-2-8.5-4.3c-7.6-9.8-19.2-13.6-28.9-20.1
		c-2.3-1.5-5.7-3.6-6-5.8c-1.5-9.3-8.5-12.7-15.8-14.6c-7.4-1.9-11.7-5.3-12.5-12.9c-0.2-1.9-0.7-4.3-1.9-5.6
		c-5.4-5.4-6.7-11.8-6.4-19.1c0.1-1.7-1.5-3.6-2.6-5.2c-1.1-1.6-3.7-2.9-3.8-4.5c-1.1-10.5-8.9-10.8-17.6-10.8
		c0.2-3.7,0.3-6.9,0.5-10c0.2-2,1.4-4.4,0.6-5.8c-3.6-6.2-1.8-12.1,0.2-18.1c1.5-4.6,1.1-9.1-1.8-13.3c-2.5-3.5-4.5-7.4-6.5-11.2
		c-1.4-2.6-3.6-5.4-3.5-8.1c0.1-10.2-5.3-18.1-9.9-26.3c-3.2-5.7-6.2-11.2-13.3-13.9c-3.6-1.4-6.7-6.2-8.3-10.1
		c-5-12.1-9.5-24.5-12.2-37.5c-0.4-1.9-2.6-3.7-4.4-4.9c-3.3-2.2-6.8-4.2-10.4-5.9c-4.4-2.1-7.3-5.2-9.1-9.8
		c-3.5-8.9-9.5-16-17.1-21.7c-6.3-4.7-10.8-10.1-12.7-18.2c-1.4-6-5-11.4-7.8-17.7c9.2-4.9,18.3-9.7,27.4-14.4
		c13.3-6.9,26.6-13.9,40-20.4c2.4-1.2,5.7-1.1,8.5-0.6c19.3,3.5,38.5,7.3,57.8,10.9c10.1,1.9,20.2,3.8,30.4,5.6
		c5.3,0.9,8.5,3.6,11.1,8.5c7.8,15,9.9,31.6,14,47.6c2.7,10.3,4.6,20.7,7.1,31.1c0.4,1.8,1.7,4,3.2,4.8c8.3,4,16.4,8.8,25.9,7.8
		c0.8-1,1.6-1.4,1.7-1.9c2-15.2,11.1-26.6,19.8-38.5c14.3-19.6,27.6-39.9,42.2-61c2.6-0.2,6.5-0.7,10.4-1c9.1-0.7,17.9-2.6,25.2-8.2
		c8.6-6.6,18.6-8.6,29-9c4.3-0.2,7.3-1.4,10.2-4.8c9.6-11.1,21.3-19.4,36-21.7c11.4-1.7,23.3-2.9,34.8-2.1
		c22.5,1.7,42.3-7.5,62.8-14c2.8-0.9,5.6-3.8,7-6.5c4.5-8.6,12-11.6,20.6-11c11.2,0.7,22.6,1.8,33.5,4.4c17.8,4.2,35.4,8.9,53.9,9.6
		c3.9,0.1,7.9,1.1,11.7,2.1c55.4,15.6,110.7,31.3,166,46.9c4.7,1.3,9.2,3.5,14.5,0.7c3.4-1.8,7-0.5,9.6,3c1.7,2.3,4.2,4.4,6.6,5.9
		c18.3,11.5,36.5,23.1,55.1,34.2c4.1,2.4,9.3,3,14.1,4c3.8,0.7,8-0.1,11.5,1.2c14.1,5.1,27.2,5,39.3-5.2c2.3-1.9,5.1-3.1,7.9-4.8
		c5.8,4.3,11.4,8.5,16.9,12.7c11.3,8.5,23.5,15.9,37.5,17.8c9.4,1.3,17.2,4.7,24.8,9.3c3.1,1.8,5.7,4.5,8.2,7.1
		c6.9,7,8.9,15.1,5.7,24.7c-3,8.9,0.9,15.7,7,22.2c7.6,8.2,17.8,9.4,27.5,11.5c3.2,0.7,7.1-1.2,10.4-2.5c4.7-1.8,8.6-1.8,13.1,1
		c7.1,4.4,15,6.1,23.8,5.9c9.5-0.2,19.1,1.9,28.6,3c4.2,0.5,7.7,2.4,9.3,6.6c2.8,7.4,9.2,9.3,15.9,9.6c9.7,0.4,17.7,2.7,24.1,11.2
		c5.2,6.8,12.4,12,19,17.6c3.8,3.2,7.7,6.2,13.4,5.5c4.6-0.6,6.1,3.5,7.7,6.7c2.3,4.8,6.1,6.9,11.1,7.1c11.2,0.3,17.8,7.7,24.5,15.3
		c3.9,4.4,8.3,8.4,12.5,12.6c3.1,3,6.5,5.7,9.4,8.9c6.5,7.3,13.8,12.1,24,12.1c3.8,0,7.8,1.5,11.3,3.3c8.3,4.1,17.2,7,24.3,13.4
		c4.3,3.9,9.9,5,15.8,3c6.9-2.3,14.4-3.4,20.9-6.5c5.1-2.4,8.6-1.5,12.9,1.1c4.8,3,10.1,5.2,14.8,8.2c7.6,4.9,15.9,3.9,24,2.9
		c3.7-0.5,7.3-3.1,10.4-5.4c8.6-6.3,16.9-12.9,25.4-19.4c0.8-0.6,1.7-1,3.7-2.1c10.3,10.8,21.5,21.1,31,32.9
		c11.1,13.9,24.2,24.6,40.8,30.5c7.3,2.6,12.3,5.6,15.1,13.7c2.2,6.2,8.1,11.2,12.5,16.6c5.9,7.2,12,14.3,17.8,21.6
		c1.9,2.4,3.1,5.4,5,8.9c-9.9,4-14.1,12.2-18.9,19.7c-12.5,19.7-30.5,31.3-52.9,35.7c-8.7,1.7-17.8,1.7-26.8,1.7
		c-16.3,0.1-32.6-0.5-49-0.4c-3.6,0-7.2,0.9-10.7,2c-19,6-38,12.2-56.9,18.4c-3.9,1.3-7.6,3.2-11.9,5c1.8,4,3,6.6,4.2,9.3
		c2,4.6,5.1,7,10.4,8c23.8,4.4,47.8,8.6,71.3,14.3c12.5,3,24.3,8.7,36.2,13.8c7.9,3.4,15.5,7.7,23.2,11.7c14.8,7.7,31,9.3,47.1,11.5
		c14.1,1.9,28.3,4,42.1,7.2C2602.6,1977.4,2608,1981.8,2614.3,1985.2z"/>
	<path onclick="modals(this.id);" id="2390" class="st0" d="M2569.3,1671c-21.4,11.3-42.8,8.4-64.1,4.4c-8.2-1.5-16.2-3.9-24.2-6c-4.5-1.2-7.8-0.2-9.6,4.5
		c-0.4,0.9-1.1,1.7-1.3,2.7c-5.7,19.8-23.4,28.2-38.2,38.8c-5.6,4-14.5,4.9-21.9,1.7c-6.7-2.9-13.2-6.3-19.5-10
		c-5.5-3.2-10.3-5.4-16.5-1.2c-3.1,2.2-7.6,2.3-11.3,3.8c-10.1,4-18.1,2.2-27.7-4c-10-6.5-20.8-13.8-34.5-13.5
		c-6.7,0.1-12.9-4.4-17.9-9.9c-4.2-4.6-9.3-8.4-13.8-12.7c-2.6-2.5-5.4-5-7.4-7.9c-7.1-10.3-15.9-17.9-29-18.6
		c-4.5-0.2-6.4-3.2-8-6.5c-2.4-4.9-5.7-7.2-11.6-7.6c-4.1-0.3-8.7-3.2-12-6.1c-7.2-6.4-13.7-13.5-20.5-20.3c-5-5-11.4-6.8-18-7
		c-8.3-0.2-14.4-2.5-18.9-10.2c-4.4-7.4-12.9-7.4-20.5-7.9c-7.8-0.6-15.8,0.1-23.6-1.1c-6.1-0.9-12.4-3.1-17.7-6.1
		c-4.8-2.7-8.7-4.1-13.8-1.4c-5.5,2.8-11.4,4-17,0c-8.5,2.5-13.6-3.4-19.2-8c-5.9-4.8-8.3-11-6-18.6c3.7-12.1,0.5-22.1-8.9-30.4
		c-8.9-7.8-18.4-13.8-30.7-15c-15.4-1.5-27.9-10-40.1-18.8c-5.4-3.9-10.6-10.4-16.2-10.8c-5.5-0.4-11.7,5.2-17.2,8.8
		c-6.8,4.4-14,4-21.1,2.4c-8-1.7-15.7-4.8-24.3-4c-3.3,0.3-7.1-1.8-10.1-3.6c-15.6-9.5-31.1-19.3-46.5-29.2c-5.5-3.6-11-7.5-15.8-12
		c-3.3-3.1-7.2-3.2-10.1-1.9c-5,2.3-9.1,0.5-13.5-0.7c-43.9-12.2-87.8-24.5-131.6-36.8c-10.5-3-21-6.4-31.6-9.1
		c-7-1.8-14.3-2.5-21.5-3.8c-12.4-2.2-24.8-4.4-37.2-6.5c-15-2.5-30-5.7-45.1-7c-7.8-0.7-16,2.6-20.3,10.3c-3,5.5-7.2,8.2-12.9,9.8
		c-7,2-13.9,4.7-20.8,6.9c-8.9,2.8-17.9,4.7-27.4,4.6c-12.6-0.1-25.2,0.6-37.8,1.4c-16.1,1.1-29.2,8.9-39.9,20.4
		c-4.5,4.8-9,7.3-15.4,7.5c-8.8,0.3-17.1,2.3-24.3,7.7c-8.3,6.2-17.7,9.1-28,8.8c-7.7-0.2-12,3.1-16.3,10
		c-11.9,19.2-25.1,37.6-38.2,56.1c-7.3,10.3-15.9,19.7-17.2,33.1c-0.1,1.4-1.6,2.8-2.3,4c-21.6-6-21.8-6-26.8-26.4
		c-3.8-15.5-6.5-31.2-10.8-46.5c-2.3-8.2-6.8-15.8-10.9-23.4c-1-1.8-4.3-2.8-6.7-3.2c-30.6-6-61.3-11.9-92-17.8
		c-1.6-0.3-3.2-0.7-5.5-1.2c-4.6-13.3-9.3-26.8-13.7-40.3c-0.8-2.4-1.2-5.5-0.5-7.8c2.1-6.5,0.6-12.4-1.5-18.4
		c-3.9-11.2-7.5-22.6-11.5-33.8c-2.1-5.8-2.4-10.9,3-15.3c3.8-3.1,7.4-6.5,10.8-9.6c1.7,0.6,2.8,0.7,3.5,1.3
		c7,5.8,13.6,4.8,21.1,0.3c5.9-3.6,12.7-5.8,19.2-8.2c2-0.7,4.5,0.1,6.7,0.1c13.9,0.3,27.7,1,41.6-2.6c11.9-3.1,17.9-12,22.5-21
		c5.2-10,13-17.5,19.5-26.1c5.1-6.7,5.8-7.1,0.7-13.5c-4.6-5.7-9.6-10.8-16.4-14.2c-7.4-3.7-14.3-4.9-21.9-1.6
		c-2.7,1.2-5.7,1.6-9,2.5c-7.5-8.2-16.1-14.1-28.6-12.7c-3.7-17.3-17.7-25.7-30.3-35.3c-9.2-7-11-13.1-2.2-23.3
		c4.1-4.8,7.3-9.5,6.9-15.9c-0.3-4.3,2.3-6.6,5.2-9c28.2-22.8,56.3-45.6,84.5-68.5c18.1-14.7,36.2-29.3,54.2-44
		c2.8-2.3,4.9-5.4,7.7-7.8c7.5-6.5,14.3-14.4,23-18.8c7.6-3.9,17.2-4.4,26.1-5.4c13.5-1.5,27-0.1,40.5,1.5c6.2,0.7,12.6,0.3,19,0.3
		c6.2,0,12.5,0.3,18.7-0.1c7-0.5,13.3-2.5,18.5-8.3c7.7-8.6,16.3-16.5,24.4-24.8c5-5.3,9.7-10.9,14.5-16.4c2-2.2,3.6-4.9,5.8-6.8
		c8.1-6.9,13.4-15.4,16.8-25.5c1.1-3.3,3.3-6.6,5.8-9c14.3-13.9,28.7-27.6,43.2-41.3c1.4-1.3,3.2-3.2,4.8-3.3
		c8.7-0.4,11.8-7.9,16.7-12.9c4.1-4.2,3.8-8.8,0.2-13.6c-2.7-3.7-6-7.1-9.2-10.5c-1.3-1.5-3.3-2.4-4.5-4
		c-12.1-15.7-26.7-28.4-44.4-37.7c-2.4-1.3-3.7-4.8-6-8c6.7-1.4,11.8-2.4,16.9-3.6c7.5-1.7,13-5.6,16.4-13.1
		c3.3-7.3,8.6-13.2,16.5-16.6c3.5-1.5,7-4.2,9-7.4c6.2-9.8,15.6-14.9,25.4-19.9c9.7-4.9,19.1-10.7,28.3-16.7
		c12.1-7.9,12.8-8,24.3,0.6c6.7,5,10.9,11.4,14,20.2c-9.6,2.4-12.9,10.3-17.6,17.5c-6.3,9.8-15.3,16.6-28.8,13.5
		c-0.2,2.9-0.1,5.6-0.7,8c-1.3,5.1-2.8,10.1-4.6,15c-0.8,2.1-2.5,3.9-3.7,5.9c-10.2,16.6-10.1,16.5,3.2,30.1
		c4.2,4.2,8.1,8.7,11.9,12.7c1.4,0,2.2,0.3,2.6,0c7.6-6.1,15.8-11,25.5-12.9c0.6-0.1,1.3-0.5,1.8-0.8c14.3-9.6,29.2-18.5,42.8-29.2
		c6.9-5.5,13.2-10.4,22.2-12c12.6-2.2,18.8-10.5,19.1-23.5c0.1-3.3-0.4-6.7-0.3-10c0.3-17.6,6.4-29.3,26.8-26.9
		c2.6,3.8,1,7-0.7,10.9c-8.2,18.4-10.6,37.5-6.1,57.2c1.9,8.5,7.3,14.9,14,20c4.2,3.2,9.2,5.4,13.5,8.5c8.3,6,17.2,6.1,26.7,4
		c7.7-1.7,15.4-4.4,23.4-2c0.4,9.3-3,13.5-12.2,14.4c-5.3,0.5-10.6,0.6-16.1,1c-0.7,6.1,2.8,8.4,7.2,9.3c7.1,1.5,14.3,3,21.6,3.8
		c14.8,1.6,29.7,2.9,44.6,4c11.9,0.9,15.9,7.7,10.2,18c-0.2,0.3-0.3,0.6-0.6,0.8c-9.1,9.8-4.3,19.8,0,29.4c0.9,2.1,4.5,3.9,7,4.2
		c8.1,0.9,12.2,5.4,14.7,12.7c2.9,8.5,5.7,16.9,12.3,23.7c4.1,4.2,0.5,8.9-1,13.1c-0.9,2.7-3.3,4.8-5.3,7.5
		c8.9,8,19.7,11.4,30.2,16.7c7.3-5.8,12.8-15.9,24.6-11.3c0.5,0.4,1.3,0.7,1.5,1.2c3.6,10.1,11.5,16.9,18.3,24.4
		c3.5,3.8,5.9,7.9,6.6,13.1c1.4,10.4,2.9,20.9,4.4,32c-11.6,1.8-22.4,3.6-33.3,5.3c-0.2,0.8-0.3,1.6-0.5,2.4
		c6.2,3.5,12.2,7.3,18.5,10.5c8.2,4.3,16.8,8,19.9,18c0.2,0.8,1.4,1.3,2.4,2c5.5-0.7,10.6-1.1,14.6-6.5c3.2-4.2,8.8-3.6,13.1,0.1
		c4.8,4.1,9.2,8.6,13.9,12.8c4.4,3.9,5.7,8,4.3,14.1c-3.5,14.9-6.5,29.9-4.3,45.4c3.2,21.7,11,41.7,21.4,60.8
		c3,5.5,4.8,10.7,4.6,16.9c-1,35.9-1.8,71.8-2.7,107.8c-0.1,2.3,0.1,4.7-0.1,7c-0.7,9.1-0.3,17.7,7.2,24.4c5.8,5.2,2.5,12.7,4,19
		c0.9,3.7,1.3,7.6,1.9,11.4c0.2,1,1,2.1,0.7,2.9c-3.9,11.8,5.1,20.7,6.7,32.6c9.7,0.5,19.5,0.8,29.2,1.7c3.9,0.4,7.6,2.1,10.8,3
		c5.6-0.8,11-1,15.9-2.6c4.9-1.6,9.6-4.2,14-6.9c6.6-4.2,8-4.5,13.9,0.6c2.5,2.1,5.1,4.4,7.1,7c9.2,12.1,21.7,17.2,36.4,16.8
		c14-0.4,26.2,4.8,37.6,11.6c6.4,3.8,11.7,9.7,17.2,14.9c6.8,6.4,13.2,13.1,19.9,19.5c0.6,0.6,1.7,0.8,4.2,1.8
		c-4.3-11.6-12.3-20.9-11.2-34c5,4.1,9.5,7.7,13.9,11.5c7.6,6.5,15.4,12.7,22.4,19.8c4.1,4.2,7.5,9.4,9.9,14.8
		c3.9,8.8,9.9,15,18.5,18.7c9.7,4.2,19.7,7.9,29.8,11.2c5.9,2,12.1,3.1,18.6,1.3c3.3-0.9,7.2,0.2,10.8,0.6c7.9,1,15.9,1.5,23.7,3.2
		c6.7,1.5,13.8,3.2,19.6,6.7c9.9,5.8,19.1,6.8,29,0.4c7.6-4.9,15.3-9.4,22.8-14.3c5.9-3.8,8.7-9.3,9.6-16.5c1-8.1,3.6-16.1,5.6-24.1
		c1.1-4.1,3.5-8.2,3.6-12.3c0.5-18.2,8.8-32.9,19.5-46.7c6-7.8,9.2-16.9,11.1-26.5c0.6-2.9,1.2-5.7,2.2-10.2
		c3.6,2.1,6.5,3.4,8.8,5.4c10,8.7,20.1,17.4,29.7,26.5c8.9,8.4,17.4,17.3,25.7,26.3c9.3,10,18.1,20.4,27,30.7
		c2.1,2.5,4.3,5.2,5.4,8.2c8.2,20.9,24.1,33.7,44.2,41.7c8.6,3.5,17.6,6.2,26.5,8.8c9.5,2.7,19.3,4.8,28.9,7.2
		c3.1,0.8,6.1,1.9,11.3,3.6c-11.4,9.6-20,20-31.5,26.2c-28.3,15.4-57,30.2-85.7,44.9c-5.3,2.7-8.1,5.9-8.9,12
		c-0.8,6.2-2.5,12-1.8,18.6c0.8,7,3,12.9,7.8,17.8c4.6,4.5,5.5,9.2,2.8,15.3C2571.9,1660.4,2570.7,1666.3,2569.3,1671z"/>
	<path onclick="modals(this.id);" id="2393" class="st0" d="M2480,1359c-0.3,18-8.3,32.8-18.6,47.2c-7.4,10.4-13.6,22-13.2,35.7c0.1,2.9-0.7,6-1.7,8.8
		c-4.3,11.2-8,22.4-9.1,34.5c-0.3,3.6-3.9,7.8-7.1,10.1c-9,6.2-18.5,11.8-28.1,17.2c-5.8,3.3-11.8,1.2-17-1.8
		c-8.2-4.7-16.7-7.5-26.2-8.6c-13.5-1.6-26.9-3.5-40.6-3.6c-13.7-0.1-26.3-6.4-38.7-12.2c-7.8-3.7-13.5-9.1-17-17.2
		c-3.6-8.3-9-15.1-16.4-20.9c-11.4-8.9-21.8-19.2-33.1-29.4c-7.6,7.4-0.9,15.6-0.9,25.2c-5.4-5.1-9.6-8.7-13.4-12.7
		c-14.5-15.8-32.8-24.4-53.9-24.2c-16.2,0.1-26.8-7.8-36.7-18.5c-1.8-1.9-3.5-4-5.6-5.6c-6.7-4.9-9-5.2-15.6,0.4
		c-8.5,7.1-19.1,6-28.7,8.8c-1.3,0.4-3-1.1-4.6-1.6c-2.2-0.7-4.4-1.7-6.6-1.7c-4.5-0.1-9.1,0.9-13.6,0.5c-4.2-0.4-8.3-2-12.3-3
		c-7.9-15.3-8.4-31.9-9.1-48.3c-0.2-6-1-11.4-5.1-15.5c-8.5-8.4-7.1-18.7-6.5-28.9c0.2-3,0.9-5.9,0.9-8.9c0.3-25,0.4-50,0.8-74.9
		c0.1-9.3,1.2-18.6,1.1-27.9c-0.1-4.1-1.4-8.5-3.4-12.1c-11.3-20.2-19.5-41.3-22.4-64.5c-1.3-10.4-0.5-20.4,2-30.5
		c1.2-4.8,1.6-9.8,2.7-14.7c1.3-5.6-0.7-9.6-4.7-13.3c-4.7-4.2-9.3-8.6-13.9-12.9c-6.5-6.2-13.4-6.3-19.9-0.1c-1,0.9-1.6,2.2-2.6,3
		c-4.1,3.1-9,2.2-10.3-2.8c-1.4-5.4-5-7.4-9.1-9.7c-6.4-3.5-12.8-7-19.2-10.6c-0.5-0.3-0.6-1.1-1.4-2.6c9.2-1.4,18.1-2.7,28.3-4.3
		c-2.1-14.1-3-27.7-6.4-40.7c-1.6-6.2-7.4-11.8-12.4-16.4c-5.5-5-8-11.1-10.7-17.9c2.6-1,4.6-2,6.8-2.5c3.6-0.8,4.4-3.2,5.3-6.3
		c2.4-8.6,5.4-17,8.2-25.8c10.5,0.7,20.1,1.1,29.6,2c20.8,1.8,41.6,3.9,62.4,5.8c34.4,3.1,68.7,6.3,103.1,9.3
		c19.8,1.7,39.7,3.1,59.6,4.8c34.4,3,68.7,6.2,103.1,9.2c18.9,1.7,37.7,3.1,56.6,4.6c30.1,2.5,60.2,5.1,90.3,7.6
		c34.4,2.9,68.8,5.7,103.2,8.6c30.4,2.6,60.8,5.3,91.3,8c22.5,2,44.9,4.2,67.4,5.9c8.9,0.7,15.7,6,22.2,10.6
		c7.9,5.5,15,5.9,23.3,2.9c2.8-1,5.7-1.6,9-2.4c1.1-2.2,2.4-4.6,3.3-7c2.2-5.7,6-8.7,11.9-10.9c5.4-2,10.6-5.7,14.7-9.9
		c2.2-2.3,2-7,3.2-11.7c8.6-4.3,20.9-3.3,29-13.9c2.7,3,5,5.7,7.4,8.2c11.5,12,23,23.9,34.4,36c4.1,4.3,8.6,5.2,14.3,3.1
		c3.2-1.2,7.2-1.5,10.6-0.8c15.7,3,31.3,6.2,46.8,9.8c11,2.5,18.2,10.2,20.8,20.7c2.2,9,6.8,15.8,13.5,21.4
		c5.1,4.3,10.6,8,15.7,12.2c5.2,4.3,10.2,4.8,16.5,1.6c7-3.6,14.6-6,22-8.9c6.5,9.3,12.9,17.8,18.4,26.8
		c7.5,12.2,19.2,18.2,31.9,22.5c8,2.7,13.7,7,18.7,13.7c9.2,12.3,22.8,18.8,37.2,21.4c13,2.4,24.8,7,35.5,11.6
		c4.8,10.3,8.6,19.8,13.5,28.7c5.5,10.2,6.6,21.5,9.6,32.4c3,11.2,5.4,22.7,8.8,33.8c1.7,5.6,4.9,10.9,7.7,16.2
		c7.1,13.6,13.3,27.4,13.5,43.3c0.1,7.7,2.6,14.7,7.8,21c6.3,7.6,11.6,16,17.6,24.5c-9.1,9.4-16,19.5-27.6,25
		c-13.8,6.5-26.2,15.9-41.8,18.3c-2.4,0.4-4.7,2.3-6.8,3.9c-9.8,7.9-19.3,16.1-29.4,23.7c-2.2,1.7-6.2,1.4-9.4,1.3
		c-4.6-0.1-8,1-11,5.1c-4.5,6.3-11.1,7.1-18.3,3.6c-0.6-0.3-1.3-0.4-1.8-0.8c-13.6-11.4-25.6-5.6-37.2,3.6
		c-5.2,4.1-10.2,8.5-15.4,12.7c-6.7,5.5-9.3,4.9-13.6-3c-1.1-2.1-1.8-4.4-3.3-6.1c-1.6-1.8-3.8-3.9-5.9-4.2
		c-1.2-0.2-3.8,2.7-4.2,4.6c-0.9,4.1-2.1,8.8-0.9,12.4c6.3,18.5,4.6,37.5,4.6,56.4c0,1.7-1.2,3.5-2.2,6.5
		c-15.2-9.8-29.6-19.1-43.5-28.2c-1.4,0.3-2.3,0.3-2.6,0.7c-5.7,8.6-14.5,10.4-24,11.6c-13.3,1.7-26.3,2.5-39-3.6
		c-7.2-3.5-14.7-6.2-22.2-9c-6.6-2.5-12.5-5.7-17.7-10.8c-5.6-5.5-13.4-7.5-21.2-7.4c-24.6,0.3-49.2,1.2-73.8,1.6
		c-4.2,0.1-8.5-0.9-12.7-2c-21.6-5.4-43.1-11.1-64.7-16.5c-3.1-0.8-6.7-1.1-9.8-0.3c-17.1,4.3-34,9.1-51.1,13.4
		c-5.4,1.4-9.5,3.8-13.2,8.1c-3.9,4.7-8.9,8.8-14,12.2c-4.6,3-9.1,1.9-13-2.8c-12.8-15.3-25.9-30.3-39.3-45.2
		c-5.1-5.6-11-10.5-16.7-15.6c-9.4-8.5-18.8-16.8-28.1-25.3C2491.1,1361.1,2488.7,1359.9,2480,1359z"/>
	<path onclick="modals(this.id);" id="2391" class="st0" d="M2726.6,642.4c-5.1,2.3-9.6,5.3-14.5,6.3c-14.9,3-30,6.2-45.1,7.4c-15.6,1.3-24.6,9.9-31.6,22.5
		c-6.2,11.1-7.6,23.3-8.8,35.5c-0.3,2.7,0.9,6.3,2.7,8.2c5.4,5.7,10.9,11.8,17.5,16c9.1,5.7,18.3,10.8,24.3,20.1
		c1.2,1.9,3,3.8,4.9,5c8.6,5.2,8.9,12.9,7.8,21.7c-0.9,7.8-0.9,15.7-0.7,23.6c0,1.7,2.3,4.5,3.9,4.7c3.8,0.6,7.9,0.8,10.7-3.1
		c3.1-4.3,6.4-8.4,9.8-12.5c3.4-4.1,6.9-8.1,10.6-11.9c3.6-3.8,7.7-5,12.4-1.8c4,2.7,10.4,3.5,10.8,9.3c0.6,7.3,3.3,14.7-1.5,22.2
		c-10.1,16-9.8,16.5-28.1,19c-8.2,1.1-16.6,0.4-24.9,0.6c-2,0-4.1-0.4-5.9,0.1c-3.7,1-5.2,5.9-2,7.6c6.1,3.4,9.5,8.5,13.2,14.1
		c1.7,2.5,6.3,3.4,9.8,4.2c4.2,0.9,5.4-2.3,6.8-5.7c0.7-1.7,3.1-3.5,4.9-3.8c8.2-1.7,16-0.7,22.1,5.7c10.4,11.1,22.5,19.6,36.8,24.9
		c4.9,1.8,6.3,7.3,4,13.4c-3.4,8.9-1.8,11.7,7.6,13.6c6.2,1.2,12.7,1.7,16.2,8.7c-1.9,4.8-5.9,7.4-10.8,8.9c-4.8,1.4-9.6,2.7-14.4,4
		c-3.2,0.8-5.8,2.5-5.3,6.1c1.4,9.6-5.8,13.5-12.2,15.7c-8.6,3-14.5,7.2-17.4,16c-0.6,1.9-3.7,3.1-5.9,4.2c-1.8,0.8-4,0.6-5.8,1.4
		c-5.7,2.6-10.1,1.6-15.5-2.1c-11.8-8.2-24.8-12.7-39.8-13.6c-34.8-2.1-69.4-5.9-104.1-8.9c-19.9-1.7-39.7-3.1-59.6-4.8
		c-26.8-2.3-53.5-4.8-80.3-7.2c-18.5-1.6-37.1-3-55.6-4.5c-31.1-2.6-62.2-5.4-93.3-8c-34.1-2.9-68.2-5.5-102.2-8.4
		c-30.1-2.5-60.2-5.3-90.3-7.9c-38.4-3.4-76.7-6.6-115.1-10c-16.2-1.4-32.4-3-49.5-4.7c1-2.6,1.7-5,2.9-7.2
		c1.9-3.5,4.2-6.8,6.2-10.2c4.5-7.8,6.3-15.6,2.6-24.6c-3.3-8-6.3-15.9-11.9-22.8c-10-12.1-8.2-26-1.7-38.4
		c8.9-17,18.6-33.6,32-47.9c9.7-10.4,17.6-22.5,26.6-33.6c3.7-4.6,8.1-8.7,11.9-13.3c2.7-3.3,5.4-6.7,7.2-10.5
		c6.8-14,19.7-15.3,31.1-10.5c17.4,7.3,34.7,14.9,52.7,22.7c3.7-3.6,6.9-6.9,10.2-10c3.4-3.1,6.7-6.4,10.4-9
		c5.5-3.8,6.8-9.8,1.7-13.8c-13.9-11.3-27.7-22.7-42.2-33.2c-8.8-6.4-19.1-10.9-28.2-16.9c-5.8-3.8-11-3.8-16.7-0.4
		c-1.7,1-3.4,2-5.1,3c-15.5-6.5-31.6-11.4-44.5-22.6c-11.6-10.1-20.9-22.2-28.4-35.6c-2.9-5.2-4.7-11.1-8-16.1
		c-5.5-8.4-6-18.2-8.8-27.4c-0.6-2,0.5-4.5,0.8-6.7c0.5-3.3,1.8-6.6,1.4-9.8c-0.9-8.9,2.6-15.9,7.5-23c8.4-12.2,18.3-22.6,30.5-31.1
		c8.6-6,16.3-13.3,25.9-21.3c9.7,5.3,22.7,5.6,35.2,8.4c8.4,1.9,16.6,7,23.7,12.2c9.9,7.1,19.8,10.4,31.9,5.5
		c12.8,11.4,23.4,24.5,30.7,40c2.3,5,2.1,11.1,3.6,16.5c2.1,7.5,5.5,9.3,11.4,4.4c11.5-9.5,23.9-13.8,38.7-10.1c0.9,0.2,2-0.1,3,0.1
		c13.3,2.4,26.3,1.4,39.2-2.9c2.4-0.8,5.4-0.7,7.9,0c7,2,13.1-1.2,19.3-3.2c1.8-0.6,3.8-2.9,4.3-4.8c5.1-18.2,10.2-36.4,14.5-54.8
		c1.2-4.9,0.8-10.7-0.4-15.6c-1.2-4.8-1.1-9.1,0.6-13.5c3.5-9,4.6-17.8,0.5-27.1c-1.1-2.4-0.4-5.8,0.3-8.6
		c3.3-12.6,5.7-25.3,2.8-38.4c-2.3-10.2,1.7-17.9,9.7-24.3c14.7-12,28.8-24.6,40.2-40c1.8-2.4,4-4.5,6.4-6.3c1.5-1.1,4-2.1,5.4-1.5
		c7.1,2.6,14.8,4.5,17.9,12.8c1.9,5.2,5.4,9,10.2,11.9c10,6,19.9,12,29.6,18.4c3.8,2.5,7.4,5.7,10.2,9.2c4.3,5.4,9.4,6.3,15.8,5.2
		c12-2,21.2-9.3,30.8-15.7c7.2-4.8,13.9-10.4,21.3-14.9c4.4-2.7,9.7-5.1,14.7-5.3c11.2-0.3,22.6,0.1,32.9,6c2,1.2,4.1,2.2,6.3,3
		c6.5,2.5,12.9,3.2,18.6-2.2c1.2-1.1,2.8-1.7,4.8-2.9c7,3.2,14.3,6.4,21.5,9.8c8.5,3.9,12.6,1.5,17.4-6.5
		c7.1-11.8,11.4-23.7,8.3-37.6c-0.3-1.5,0.2-3.2,0.3-5.6c6.4-1.1,12.4-1.3,18.6,0.8c9.1,3.1,18.4,5.6,27.7,8.4
		c9.1,2.7,16.9,7.9,23.5,14.5c6,5.9,13.1,8.4,21,10.2c12.3,2.8,24.2,6.8,36.3,10.3c8,2.3,15.8,5.3,24,6.5c6.9,1,12.8,3.3,18.2,7.4
		c6.8,5.2,13.4,10.7,22.1,17.7c-4.8,0.4-7.6,1.1-10.1,0.7c-19.1-3.2-36.9-0.2-53.6,10c-17.9,10.9-37.6,12-57.9,10
		c-2.3-0.2-4.6-0.4-6.9-0.9c-5-1-7.5,1.6-8.8,5.9c-4.3,15-9.4,29.9-12.4,45.2c-2.7,13.8,0.7,24.7,15.9,30.3c6.9,2.5,13.6,4.3,21,5.1
		c14.4,1.5,28.8,4.3,42.6,10.9c0.6,10.8,1.1,21.4,1.8,31.9c0.2,3.7-1.1,6.2-4,8.5c-3.1,2.5-5.8,5.5-8.6,8.4
		c-1.2,1.2-2.8,2.4-3.1,3.8c-3.4,14.7-10.3,28.9-6,44.5c0.8,2.8,3.6,5.6,6.2,7.3c5.6,3.5,8.4,8.2,9,14.6c2.5,27.2,14.2,51,26.5,74.7
		C2723.3,635.1,2724.6,638.1,2726.6,642.4z"/>
	<path onclick="modals(this.id);" id="2392" class="st0" d="M1907,927.1c-7.2,0.9-14.7,1.7-22.1,2.7c-1.8,0.3-3.8,1-5.2,2.1c-3.5,2.5-6.7,5.4-10.7,8.7
		c-7.8-4-15.8-8-23.9-12.2c1.9-4.6,3.4-8.5,5.2-12.3c2.3-5,0.9-9.4-2.7-12.7c-5.3-4.8-6.8-11.3-9.3-17.3c-1.3-3.1-2.2-6.3-3.8-9.2
		c-2.4-4.5-5.2-8.4-11.3-8.4c-5.7,0-8.2-3.5-10.3-8.9c-2.9-7.5-3.4-14,2-20.3c0.8-1,1.2-2.3,1.8-3.6c4.8-10.8,0.1-19.3-11.7-20.5
		c-6.6-0.6-13.4-0.1-19.9-0.9c-15.2-1.8-30.3-4-45.4-6.2c-1.6-0.2-3-1.2-4.6-3.3c3.6-0.6,7.2-1.5,10.9-1.6
		c12-0.5,17.5-7.8,14.5-19.6c-6.3-2.9-12.7-2.5-19.4-0.8c-5.7,1.5-11.8,2.6-17.7,2.2c-20.3-1.4-45-20.4-42.9-45.2
		c1.3-14.6,0.8-30,10.3-43c3.1-4.3,0.1-8.8-1.9-14.3c-6.4,1.2-12.8,1.5-18.5,3.7c-9.8,3.9-15.5,17.7-14,30.2
		c0.6,4.5,0.9,9.4-0.3,13.6c-2.3,8.4-7.2,14.5-17.2,15.1c-8.6,0.5-15.4,4.2-21,11.5c-3.4,4.5-9.6,7-14.5,10.4
		c-6,4.1-12,8.4-18.1,12.2c-5,3.1-10.3,5.9-15.7,8.5c-7.1,3.4-14.3,6.5-22.8,10.3c-5.1-5.3-11.6-11.9-17.7-18.8
		c-1.2-1.3-1.4-4.5-0.7-6.3c1.7-4.3,3.7-8.6,6.3-12.4c5-7.2,8.8-14.8,9.3-23.9c1.8-0.6,3.4-1.5,4.9-1.7c10.1-1.1,17.1-7.1,22.3-15.1
		c5-7.8,8.6-16.7,19.2-17.9c-4.6-16.4-10.4-22.8-29.7-33.6c-5.3,3.1-11.2,6.7-17.3,10.1c-9.2,5.2-18.6,10.1-27.8,15.3
		c-8.6,4.9-17.3,9.6-22.7,18.7c-1.9,3.2-5.5,5.7-8.9,7.4c-7.3,3.8-13.7,8.7-16.9,16.3c-4.3,10.5-12.8,13.6-22.8,15
		c-3.9,0.6-7.7,1.3-11.4,2c-0.2,7.8,3.1,12.7,9.3,15.9c15.2,7.9,28.2,18.3,38.6,32.1c3.8,5,9.2,8.6,13.3,13.5
		c6.1,7.3,5.6,10-0.5,17.2c-3,3.5-5.5,7.4-11,7.7c-2.1,0.1-4.3,1.8-6,3.3c-10.6,10-21.1,20.2-31.6,30.4c-1.7,1.6-3.1,3.6-5,4.9
		c-8.9,6.1-14.2,14.7-17.4,24.8c-0.8,2.5-1.9,5.2-3.6,7.1c-11.9,12.9-24.1,25.7-36.2,38.5c-5.5,5.8-11.3,11.3-16.2,17.5
		c-5,6.3-11,9-18.9,8.8c-11.6-0.3-23.3,0.1-34.9-0.2c-5.6-0.1-11.3-0.7-16.9-1.3c-14.4-1.7-28.5,0.4-42.7,2.3
		c-9.8,1.4-17.9,6.7-24,13.3c-17.2,18.9-37.8,33.6-57.2,49.7c-29.9,24.9-60.3,49.2-90.5,73.7c-3.2,2.6-6.6,4.9-11.9,8.8
		c2.3-9.4,3.3-16.7,5.9-23.3c1.9-4.7,5.1-9.5,9.1-12.7c10.1-8.1,15.7-19.4,22.6-29.7c3.3-5,3.1-11-0.7-15.9
		c-4-5.1-6.1-10.4-7.7-16.7c-1.8-7.2-7.1-13.4-10.7-20.1c-1.5-2.9-3.8-6.2-3.6-9.1c1-11.6-6.7-18.8-12.5-27c-1.7-2.4-3.9-5.1-4-7.7
		c-0.5-14.3-9.1-23.3-19.9-30.5c-5.2-3.5-7.1-7-6.6-12.9c1.1-15.2,1.9-30.5,2.7-45.8c0.2-4,0-8,0-12.3c-2.9-1.6-5.6-2.9-8.1-4.4
		c-1.6-1-3.2-2.3-4.3-3.8c-3.6-4.7-7.1-9.5-10.4-14.4c-1.1-1.6-2.5-3.7-2.2-5.3c1.3-6.6-2.2-11.5-5-16.8c-0.3-0.6-0.9-1.1-1-1.7
		c-3.5-19.8-15.7-36.2-20.7-55.7c-4.6-17.9-3.3-35.5-5.1-53.2c-1.7-15.8,5.7-29.7,6.5-44.8c0.2-2.7,3-6.2,5.5-7.6
		c10.5-5.7,21.4-10.7,32.2-15.8c1.6-0.8,4.2-1.3,5.6-0.6c10.6,5.4,16.8-1.7,23.1-8.1c2.3-2.3,3.7-5.6,6-8c4.1-4.4,8.4-7.6,15.1-8.4
		c16.8-2.1,30.4-11.1,41.9-23.2c0.7-0.7,1-1.9,1.8-2.3c12.7-6.8,14.7-19.6,18.1-31.6c0.4-1.3,0.9-2.5,1.5-4.5
		c2.7-0.2,5.6-0.2,8.5-0.6c9.5-1.2,19.2-1.4,27.7-6.9c7.5-4.8,16.4-3,24.4-2.7c17,0.6,17.8-6.7,15.2-18.8c-0.5-2.3-0.7-4.6-0.9-6.9
		c-1-13.2,9.7-22.6,22.6-19.8c2,0.4,4,2.2,5.2,3.9c2.4,3.6,4.9,7.3,6.3,11.3c8.6,25.4,22.9,47.9,35.9,71.2
		c5.9,10.6,14.8,17.8,22.9,26.1c0.9,0.9,2.1,1.7,3.3,2.2c15.7,6.3,31.4,12.6,47.3,18.6c8.3,3.2,16.9,3.3,25.4,0.4
		c3.7-1.2,7.7-1.8,12-2.7c1.2,2.3,2.8,4.2,3.2,6.3c1.2,6.3,4.7,9.7,10.9,11.4c10.6,3,21.2,5,32.3,3.2c1-0.2,2-0.1,3-0.1
		c16,0.5,14.4-0.2,17.4-15.2c1.9-9.4,2.2-19.1,2.7-28.7c0.4-7.5,1.5-14,8.9-18.5c8.2-5,11-12.4,7.8-22.3c-2.5-7.8-2.7-16.5-5.3-24.3
		c-8.4-25.1-23.9-44.9-45.7-59.9c-7.4-5.1-14.8-10.1-20-19.4c2.8,0.5,4.9,0.6,6.8,1.1c9.9,2.7,19.9,5.3,29.7,8.2
		c21.4,6.3,39.7,18.2,56.8,32.2c11.8,9.7,20.7,21.6,29.3,33.8c7.9,11.4,18.6,19.1,31.2,23.9c9.9,3.8,18.1,9.3,24.3,18
		c8.8,12.4,21.3,19.7,35.4,24.7c6.2,2.2,12,5.6,18.1,8.1c5.8,2.3,11.8,4.4,17.9,6c4.3,1.1,8.2-0.4,9-5.4c0.8-4.8,1.9-10,0.9-14.6
		c-1.8-8.6-1-16.4,3.1-24.1c3.7-6.9,2.5-14.5,0.8-21.5c-2.9-12.1-1.6-23.7,0.8-35.5c0.8-4.1,2.5-6.8,6.9-7.3c0.3,0,0.7-0.1,1-0.2
		c23.7-7.7,23-10.4,23.9-35.9c0.6-15.9-0.7-31.9,2.5-47.7c1.2-6.2,3.2-11.6,10.7-12.5c0.9-0.1,1.8-0.8,2.7-1.3
		c13.6-7.2,15.8-14.3,8.8-28.2c-0.1-0.3-0.3-0.6-0.6-0.8c-9.9-11.8-9.8-25.5-7.7-39.6c1-6.6,1.7-13.2,3.2-19.6
		c2.9-12.4,2.6-24.3-3.5-35.7c-0.4-0.8-0.2-1.9-0.4-3.4c21.9-2,43.7-4.4,64.9,2.8c7.5,2.5,14.4,6.7,21.7,9.9
		c11.6,5,23.4,9.6,34.8,14.8c5.1,2.3,9.7,5.8,14.7,8.8c-0.3,2.9,0.2,5.9-1,8c-3.4,6.2-1.7,10.7,3.5,14.6
		c15.2,11.3,24.4,27.9,37,41.6c14.5,15.8,30.5,28.3,52.1,33.1c9.3,2.1,18.2,6.2,27.7,9.6c-3.1,7-7.3,11.6-13.1,15.2
		c-18.3,11.5-33.8,25.9-44.4,44.9c-1.6,2.8-2.8,6-3.3,9.1c-1.1,6.8-3,13.9-2.2,20.6c1.2,10,4.1,19.9,7.1,29.7c1.5,5,4.5,9.6,7,14.3
		c13.5,26.1,31.3,47.7,60,58.1c2.5,0.9,4.8,2.2,7.3,3.2c6.7,2.7,13.3,6.2,20.2-0.1c3.1-2.8,6.7-1,10.2,0.8
		c18.5,9.3,35.7,20.6,50.7,35c5,4.8,10.9,8.7,16.5,12.8c7,5.1,6.7,6.7-0.3,12.3c-5.6,4.5-10.4,10.1-16.5,16.2
		c-15.7-6.4-32.3-12.3-48-19.9c-15.4-7.6-30.7-6.2-38.9,11.6c-1.1,2.4-2.3,5-4.2,6.7c-13.5,11.6-23.1,26.5-33.3,40.8
		c-0.2,0.3-0.3,0.6-0.5,0.8c-14.7,12.1-22.7,29.3-33.6,44.3c-7.2,9.9-10.8,21.9-11.2,33.6c-0.3,7.1,4.5,15.3,9.1,21.4
		c6.1,8,9.6,17.1,11.5,26.2c1.1,5.3-2.1,12.3-5.2,17.5C1918.9,891.8,1911.8,907.7,1907,927.1z"/>
</g>
</svg>
