<?xml version="1.0" encoding="utf-8"?>
<!-- Generator: Adobe Illustrator 19.0.0, SVG Export Plug-In . SVG Version: 6.00 Build 0)  -->
<svg version="1.1" id="Layer1" xmlns="http://www.w3.org/2000/svg" xmlns:xlink="http://www.w3.org/1999/xlink" x="0px" y="0px"
	 viewBox="0 0 3000 1560" style="enable-background:new 0 0 3000 1560;overflow: hidden; display: inline; width: inherit; min-width: inherit; max-width: inherit; height: inherit; min-height: inherit; max-height: inherit;" xml:space="preserve">
<style type="text/css">
	.st0{fill:#8FD4EB;stroke:#000000;stroke-width:3;}
</style>
<g>
	
	<path onclick="modals(this.id);" id="2473" class="st0" d="M1149.3,1238.8c-0.6-9-5.9-12-13.2-13.4c-11.3-2.2-22.6-4.9-33.8-7.4c-0.8-0.2-1.6,0-2.9,0
		c-2.1,9.4-4.2,18.7-6.3,28.1c-0.7,3.3-1.3,6.7-2,10.1c-0.6,2.7-4.3,4-7.1,2.1c-5.8-3.8-13.1-5.3-17.1-11.8
		c-0.7-1.1-3.6-1.7-4.8-1.2c-4.2,2-6.5-0.4-9-2.9c-0.9-0.9-1.7-2.4-2.7-2.5c-9.7-1.5-13.5-10.7-20.5-15.8c-1.9-1.4-2.5-4.5-3.6-6.8
		c-0.4-0.9-0.5-2-1.1-2.6c-5.3-5-17.8-2.7-21.1,3.9c-3.2,6.6-6.4,13.2-9.8,20.3c-10.6-2.4-21.2-4.7-31.8-7.1
		c-8.4-1.9-16.9-3.7-25.2-5.8c-1.2-0.3-3-2.3-2.9-3.4c0.2-3.5,1.3-7,1.9-10.6c0.5-2.9,1.4-6.1,0.7-8.7c-1.5-5.7,0.9-9.7,4.2-13.7
		c2.3-2.6,4.3-5.5,6.9-7.8c7-6.2,8-14.5,8.1-22.9c0-12.3-0.6-24.6-0.9-36.9c-0.1-5.1,2-10.2-1-15.3c-4.6-7.8-9.4-15-19.7-15.8
		c-1.9-0.1-3.7-1.3-5.5-2c-0.8-0.3-1.6-1-2.3-0.8c-5.1,1.2-10.2,2.7-15.4,3.8c-1.5,0.3-3.9-0.1-4.7-1.2c-2.3-2.9-3.8-6.5-6-9.5
		c-1.1-1.4-3.6-3.3-4.6-2.9c-2,0.8-3.9,2.8-4.8,4.8c-1.4,3.1-2.6,4.9-6.2,2.9c-3.8-2.1-7.8-4-11.6-6.2c-2.4-1.4-4.4-3.9-6.9-4.5
		c-7.3-1.8-13-6.4-19.1-10.4c-0.3-0.2-0.5-0.6-0.7-0.6c-8.2-2.1-16.4-4.4-24.7-6.2c-2.3-0.5-4.8,0.4-7.6,0.7
		c-0.1-1.4-0.3-2.8-0.4-4.3c6.6-0.5,13-0.8,19.4-1.6c4.3-0.6,9-1.1,10.1-6.8c0.1-0.4,0.6-0.8,1-1.1c9.2-6.3,12.3-16.3,16.3-26
		c1.7-4.1,6.6-6.9,8.5-11c3.3-7.2,5.1-14.9,7.9-22.3c3-8.1,4.9-17,13.3-21.8c8.2-4.6,13.3-12.1,18.5-19.3c3.5-4.8,4.3-11.2,2.2-17.4
		c-0.7-2-0.9-4.2-1-6.3c-0.4-9.9-0.8-19.9-0.8-29.8c0-3.5,1.2-7.1,1.4-10.6c0.1-2.1-0.7-4.3-1-6.5c-0.5-3-0.8-6.2-1.7-9.1
		c-4.1-12.2-4.3-24.8-3.9-37.5c0.2-6.1-1.1-7.3-7-7.5c-9.3-0.2-12.3-2.3-13.8-11.6c-1.9-11.5-9.3-19.9-14.6-29.5
		c-1-1.7-0.8-4.1-1.6-5.9c-2-4.4-3.8-9-6.6-12.8c-4.6-6.2-10-11.9-15.1-17.8c0.3-0.4,0.7-0.9,1-1.3c7.5-0.7,14.9-1.6,22.4-2.1
		c12.4-0.8,24.7-1.3,37.1-2.1c14.1-0.9,28.3-2,42.4-3c14.5-1,28.9-2,43.4-3c13.3-1,26.6-2,39.9-3c13.1-1,26.3-2,39.4-3
		c13.5-1,26.9-1.9,40.4-3c6.9-0.5,13.7-1.4,20.6-1.9c3.1-0.3,5.6,0.7,8.6,2.5c8.1,4.7,10.6,12.9,14.6,20.3
		c4.8,8.9,9.5,17.8,14.5,27.3c-4.5,1.2-9.6,2.6-14.7,3.9c-7.1,1.8-14.3,3.3-21.4,5.2c-1.3,0.3-3.3,1.9-3.2,2.7
		c0.3,5,0.6,10.1,1.9,15c1,4,3.2,7.8,5.1,11.5c1.3,2.5,3.3,3,6.3,1.9c10.2-3.8,20.6-7.3,31.5-11.1c-2.6,15.3-5.4,30.4-7.8,45.6
		c-1.4,8.9,0.8,17.7,2.9,26.3c3.6,14.9,7.2,29.7,11,44.5c0.8,3.1,2.2,6.1,3.9,8.9c7,11.6,13.6,23.6,25.8,31c2.4,1.5,3.9,4.5,6.5,7.6
		c-12.7,3.8-24.1,7.3-35.6,10.8c-9,2.7-18,5.6-27.2,7.7c-4.2,1-4.4,3.2-3.5,6.3c3.9,13.9,7.9,27.8,11.8,41.8c3,10.6,6.4,21.2,8.7,32
		c0.7,3.5-1.3,7.6-2.2,11.4c-0.4,1.7-0.6,3.6-1.6,5.1c-3.3,5.3-0.1,8.5,3,12.3c4.6,5.8,8.3,12.4,12.7,18.4
		c4.4,5.9,9.2,11.5,14.1,17.1c2.9,3.3,5.7,6.5,3.4,11.2c-2.5,5.2-1.3,10.4-0.1,15.6c1.3,5.5,1.6,11.4,3.2,16.8
		c1.6,5.4,4.1,10.5,6.6,15.6c1.5,3.1,1.2,4.7-1.7,6.9c-13.4,10.2-26.6,20.8-39.8,31.2C1162.9,1228.3,1156.5,1233.2,1149.3,1238.8z"
		/>
	<path onclick="modals(this.id);" id="2460" class="st0" d="M1176.7,735.6c-12.2-7.4-24.4-14.7-31.7-29.7c-4.6,10.5-11.9,11.7-20.6,11.3
		c-6.3-0.3-12.7,1.3-19.1,1.7c-11.5,0.8-23.1,1.3-34.6,2.1c-13.5,0.9-26.9,2-40.4,3c-13,1-25.9,2-38.9,3c-14.5,1.1-28.9,2-43.4,3
		c-14.6,1-29.3,2-43.9,3c-14,1-27.9,2-41.9,3c-4.4,0.3-8.9,0.4-13.3,1.1c-4.1,0.7-6.8-0.8-9.2-3.8c-2.8-3.6-6.1-6.9-8.7-10.7
		c-2-2.8-4.9-3.6-7.3-2.2c-1.5,0.9-2.5,4.2-2.2,6.3c1,7.4-0.2,8.8-7.5,9.4c-11.6,0.9-21-2.3-30.6-9.4c-8.5-6.3-17.4-13.1-28.6-15.1
		c-3.2-0.6-6-4.8-8.4-7.8c-4.8-6-8.6-12.9-13.8-18.4c-5.8-6.1-10.8-12.3-12.4-20.7c6.6-3.2,9.7-16,7.8-22.9c-0.8-3-0.2-6.3-0.1-9.5
		c0-2.4,0-4.7,0.2-7.1c0.6-6.8,1.3-13.7,2.2-20.5c0.1-0.7,1.7-1.4,2.7-1.7c6.1-1.7,12.3-3,18.3-5.1c2.9-1,5.1-3.8,7.9-5.1
		c2.4-1.2,5.4-2.5,7.9-2c6.8,1.3,13.5,3.5,21,5.5c0,3.2-0.1,7.3,0,11.4c0.1,6.6,2.9,9.2,11.8,11.3c5,1.1,8.1-1.1,10.2-5.6
		c1.8-3.8,3.9-7.5,6-11.1c2.2-3.9,5.1-5,9.5-3.2c7.7,3.4,15.3,2.4,22.6-1.5c0.6-0.3,1.2-0.7,1.8-0.8c10.2-1.4,11.6-9.2,13.3-17.2
		c1-4.7,2.8-9.3,4.6-13.7c1.7-4.1,0.8-6.8-3.2-8.6c-4.4-2-8.8-3.9-12.9-6.4c-6.9-4.1-13.5-8.6-20.3-12.7c-4.9-2.9-5-8.7-8.3-12.6
		c-0.4-0.5-0.7-1.1-0.9-1.7c-3.1-8.3-8.9-13.3-17.6-15.1c-1.6-0.3-3.4-0.8-4.5-1.8c-8.1-7.6-16.9-4.6-25.9-2.5
		c-7.6,1.8-15.6,2.3-22.8,4.8c-6.3,2.2-11.9,6.3-17.7,9.9c-1.7,1.1-2.9,3.1-4.3,4.7c-0.6-0.2-1.2-0.4-1.9-0.6
		c0.9-9.2,1.6-18.4,3-27.5c0.3-2,2.9-4.6,5-5.3c11.9-3.9,18-13.3,23.7-23.4c2-3.5,4.4-6.8,9.5-4.4c1.2,0.5,3.4,0.5,4.2-0.3
		c6.2-6,14.4-6.5,22-8.3c28-6.6,56.2-12.8,84.3-19.1c9.7-2.2,19.5-3.9,29.1-6.2c2.5-0.6,4.6-2.9,6.9-4.6c0.5-0.3,0.5-1.4,1-1.6
		c8.6-3.8,6.2-12.2,8-18.9c0.5-1.9,2.1-4,3.9-5.1c3.6-2.2,7.7-3.6,11.3-5.8c2.8-1.8,4.8-4.8,7.7-6.4c3.3-1.7,7-2.6,10.7-3.4
		c3.3-0.7,6.8-1,10.2-0.8c1.4,0.1,3.4,1.7,4,3c2.6,6.6,4.2,13.7,7.5,19.9c1.7,3.1,6.2,4.9,9.6,6.8c7.6,4.2,17.3,4.4,23.2,11.8
		c1.2,1.6,1.8,3.6,2.8,5.4c3.8,7.5,6.1,15.6,12.9,21.5c5.2,4.5,9.2,10.3,13.7,15.5c1.5,1.7,3.3,3,4.7,4.7c3.9,4.8,7.6,9.7,11.5,14.7
		c-2.4,5.7-5.1,11.2-7.1,17c-0.9,2.7-1.3,6.1-0.5,8.7c1.3,4,2.3,7.8,1.7,12.1c-2.1,14.7,6,25.4,14.1,36.3
		c12.5,16.6,24.6,33.4,36.8,50.2c7.8,10.7,4.2,8.9,18.7,6.6c11.2-1.8,22.4-3.8,33.6-5.7c5.9,23.9,11.9,47.4,17.5,70.9
		c1.2,4.9,0,10.4,1.4,15.3c2.1,7.2,5.6,14,8.4,21.1c0.6,1.4,0.9,3.4,0.4,4.7C1181.1,727.3,1178.8,731.4,1176.7,735.6z"/>
	<path onclick="modals(this.id);" id="2472" class="st0" d="M1451.8,715.7c4,4.8,8.3,6,13.4,2.3c3.5-2.6,5.5-7.3,9-12.2c1.6,1.9,3.2,4.1,5,6.1
		c1.7,1.9,3.4,4.4,5.6,5.2c8.4,3.1,12.2,9.8,15.2,17.5c2.9,7.4,5.6,15,9.2,22.1c2.6,5,6.5,9.4,10,13.9c4.2,5.3,8.4,10.5,13.1,15.3
		c0.9,0.9,4.2,0.3,5.7-0.6c8.9-5.3,17.4-11.4,26.5-16.2c7.1-3.7,14,1.2,14.6,9c0.5,6,1.5,12.1,2,18.1c0.3,3.3,0.1,6.7,0.1,9.5
		c5.2,2.2,10.2,4.3,15.1,6.5c4.5,2,8.3,0.4,9.4-3.7c1.5-5.3,6.4-6.1,9.6-9c5.4-4.8,11.5-8.7,17-13.3c9.5-8.2,18.8-16.6,28.1-25
		c5-4.5,11.1-2.9,16.7-2.8c4.5,0,9.1,1,13.6,1.8c5,0.9,7.8-2.7,11-5.3c4.3-3.5,8.4-7.4,12.8-10.8c1.5-1.2,3.8-1.5,5.7-2.1
		c0.6,2.4,2.1,4.9,1.8,7.1c-1.7,12.8-3.9,25.5-5.9,38.3c-2,12.9-3.8,25.9-6.2,38.8c-3.1,16.3-6.8,32.5-10.3,48.8
		c-1,4.6-1,10.9-3.9,13.2c-3.1,2.4-9.2,0.9-13.9,1.2c-7.1,0.4-9.6,4.4-6.9,10.8c0.8,1.8,1.4,3.6,1.9,5c-4.3,5.2-8.9,4.6-14.4,2.4
		c-6.9-2.9-7.1-2.5-15.8,2.1c-4.4,9.6,3.1,15.7,6.2,23c2.1,4.8,4.9,9.2,7.2,13.8c2.6,5.2,6,10.3,7.1,15.8c2,9.7,9.7,15.7,13.5,24.1
		c1.7,3.8,4.3,7.3,6.3,11c1.8,3.3,4.4,4.7,8.2,5c5.5,0.4,11.1,1.2,16.6,2c1.5,0.2,3.2,1.2,4.2,2.4c3.7,4.7,7.1,9.7,10.6,14.5
		c1.3,1.7,2.4,3.9,4.1,4.8c11.2,5.9,13,25.7,3.5,35.4c-3.2,3.3-7,6-10.7,8.6c-7.4,5.1-10.2,9.3-7.1,17.1c4.9,12.4,1.7,23.5-2.2,34.9
		c-2.2,6.6-4.1,13.2-6.2,20.4c-7.7-7.5-15-14.2-19.3-23.7c-2.9-6.3-6.8-12.5-11.8-17.3c-5-4.7-11.7-7.6-17.7-11.2
		c-1.2-0.8-2.6-1.3-3.8-2.2c-7.3-5.8-14.6-11.7-21.8-17.6c-0.7-0.6-1.7-1-2.3-1.8c-5.7-8.2-11.3-16.4-16.9-24.6
		c-1.5-2.2-2.8-3.5-5.9-2.1c-4.6,2-9.5,3.2-14.3,4.8c-2.7,0.9-10.7-4.3-12.7-7.5c-2.9-4.7-5.6-9.9-9.6-13.3c-4-3.4-5.9-7.6-8.4-11.8
		c-1.7-2.9-3.7-5.7-5.5-8.5c-1.6-2.4-2.9-5.1-5-7.1c-1.8-1.8-4.3-3.5-6.7-4c-19.4-3.6-38.9-6.8-58.3-10.3c-5.9-1-11.8-2.5-17.8-3.4
		c-7.4-1.1-14.5-0.8-21,3.8c-15.6,10.9-25.2,8.3-38-2.7c-6.3-5.4-10.1-13.9-14.8-21.1c-3.9-6.1-6.7-13.2-11.4-18.6
		c-2.6-3-8.1-3.6-12.4-4.8c-3.4-1-7-1.7-10.6-2c-3.8-0.3-7.7,0.2-11.5,0c-1.2,0-3.1-0.9-3.3-1.7c-2.6-9.4-7.2-18.2-7.3-28.3
		c0-2.6-2.2-5.3-3.9-7.7c-6.4-9.1-16.2-12.2-26.4-14.5c-0.4-0.1-0.9-0.3-1.1-0.4c-2.1-8.9,1.8-14.8,8.8-19.2
		c1.2-0.8,2.4-1.7,3.7-2.3c5.7-2.6,8.1-6.7,7.1-13c-0.5-2.8,0-5.2,3.1-6.9c4.6-2.6,8.9-5.9,13.1-9.3c1.4-1.1,2.1-3.3,2.9-5
		c9.2-18.8,18.5-37.7,27.7-56.5c4.7-9.7,9.5-19.4,14-29.2c1.4-3,3-4.5,6.3-4.1c3.7,0.4,7.9,1.7,11.2,0.6c2.7-1,5.1-4.6,6.4-7.6
		c1-2.2-0.2-5.3,0.3-7.9c0.6-3.2,1.7-6.4,3-9.5c1.6-3.8,3.7-2.7,5.7-0.1c3.4,4.5,6.9,8.9,10.4,13.3c2.2,2.8,4.4,3.8,8.4,2.6
		C1447,726.5,1450.6,722.9,1451.8,715.7z"/>
	<path onclick="modals(this.id);" id="2475" class="st0" d="M1218.2,1334.9c-12.1,0.7-23.4,1.3-34.8,2.2c-16.1,1.2-32.1,2.7-48.2,3.9
		c-5.4,0.4-11,1.5-16.3,0.8c-4.6-0.6-9.6-2.4-13.4-5.1c-8.9-6.5-18.4-11.7-28.6-15.7c-0.4-0.2-0.7-0.6-1.3-1.2
		c1.3-1.9,2.2-4.2,3.8-5.6c6-5,7.2-12.4,9.2-19.1c1.1-3.8-0.5-8.4-0.9-12.6c-0.5-5.2-1.2-10.4-1.7-15.6c-0.3-2.8,0.2-4.6,3.8-5.1
		c1.6-0.2,3.7-2.6,4.1-4.4c2.6-10.4,4.9-20.9,7.1-31.4c0.6-2.9,1.8-4.5,4.9-3.8c10.5,2.3,21,4.6,31.4,7.1c4.3,1,8,2.9,8.4,8.1
		c0.2,1.9,1.1,3.7,2,6.5c3.6-2.5,6.9-4.7,10-7.1c17-13.3,34-26.7,51-40c1.5-1.2,3-2.6,4.6-3.7c2.3-1.7,3.5-3.5,1.6-6.2
		c-8.3-12-8.2-26.6-11.9-40c-0.5-1.9-0.8-4.6,0.2-6.1c5-8.1,0.3-13.3-4.7-18.7c-4.4-4.8-8.7-9.8-13.6-15.4
		c8.7-2.7,16.4-5.3,24.1-7.5c16.4-4.8,32.9-9.4,49.2-14.2c11.7-3.5,23.3-7.3,35-10.8c3.9-1.2,5.6-3.3,5.8-7.4c0.2-6,1.9-10.9,7.4-15
		c16.3-12.5,31.9-25.8,47.7-38.8c0.9-0.7,1.7-2.1,1.7-3.2c0.1-17.8-1.1-35.5-8-52.2c-2.6-6.2,0.8-11.8,0.1-17.6
		c7.7-4.9,15.1,0,22.6,0.4c1.6,0.1,3.2,0.5,4.8,0.7c4,0.5,6.9,2,9.2,5.9c6.9,11.9,14.2,23.6,22,35c8.6,12.6,28.2,16.3,40.4,7.4
		c9.8-7.1,19.9-6.1,30.6-4c16,3.2,32.1,5.8,48.1,8.7c7.2,1.3,14.4,2.6,21.6,4.1c1,0.2,2,1.5,2.7,2.4c2.1,2.7,4,5.5,6.1,8.2
		c0.9,1.2,2.3,2.1,2.7,3.4c2.8,9,9.3,15.2,15.9,21.3c1,0.9,1.8,2.3,2.2,3.7c1.2,4.8,4.3,7.5,8.5,10c4.8,2.8,8.8,3.3,13.7,1
		c3.5-1.6,7.3-2.5,11.1-3.8c6.2,8.8,12.2,17.6,18.6,26.2c1.8,2.4,4.6,4,6.9,5.9c5.2,4.2,10.3,8.6,15.7,12.6c2.2,1.7,5,2.7,7.6,4
		c0.4,0.2,1.1,0,1.4,0.3c9.1,8.7,21.5,14.3,25.7,27.9c1.5,4.8,5.4,8.9,8.5,13c2.1,2.8,4.7,5.2,7.4,7.4c7.9,6.5,10.4,15.3,10.7,24.9
		c0.2,6.9,0,13.7,0,20.6c0,4.7,0.7,9.5-0.2,14c-0.6,3.1-3.9,5.6-5.1,8.8c-3,8-2.8,16.1,0.4,24c0.7,1.7,2.9,3.2,4.7,4
		c9.2,3.6,12.3,10.2,12.4,20c0,9.4,1.7,18.9,3.4,28.2c2.1,11.9-2.6,21.5-9.1,30.6c-0.7,1-4,0.9-5.6,0.2c-5.9-2.7-11.6-6-17.5-8.7
		c-6.2-2.9-7.8-9.3-11.3-14.2c-3.6-5-6.4-10.4-9.4-15.8c-1.4-2.5-3.4-5-3.6-7.7c-0.6-8-4.3-13.3-11.8-16.4
		c-9.3-3.8-18.5-8.2-27.9-11.9c-7.1-2.8-10.3-8.4-12.4-15.2c-1.5-4.7-2.2-9.7-4.6-13.8c-5.6-9.7-5.9-20.6-8.5-30.9
		c-1.5-6-2.9-12.4-6.2-17.3c-4.1-6-3.4-11.2-2.1-17.5c2.1-10.1,3-20.4,4.4-30.6c0.5-4.2-1.5-5.8-5.8-6c-12.7-0.4-25.4-1.6-38.1-1.8
		c-7.4-0.1-10.1-5.7-13.6-10.3c-3.5-4.5-6.4-9.5-10.1-13.8c-4.7-5.5-10.6-9.3-18.3-9c-3.2,0.1-6.4,0.3-9.5,0
		c-9.6-1-18.5,1.4-27.2,5.2c-1.4,0.6-3.2,0.8-4.8,0.8c-12.5,0.1-25-0.7-37.5,0.2c-11,0.8-22.1,2.7-32.8,5.3c-12,3-17.2,13-21.3,23.8
		c-3.3,8.6-8.2,16.6-11.8,25.2c-3.3,7.7-7.2,15.1-7.3,24.1c-0.1,11.4-8.1,22.3-21.6,22.4c-7.9,0.1-15.9,0.6-23.5,2.2
		c-4.6,0.9-8.7,4.1-12.9,6.5c-3.4,1.9-6.6,4.2-9.9,6.2c-3.3,2-5.3,4.7-7.1,8.2c-1.7,3.2-5.8,5.3-9.1,7.4c-3.1,2.1-6.5,3.7-9.9,5.4
		c-7.6,3.9-9,7.5-7.4,16c0.9,4.7,0.3,9.7,1,14.5c1.1,7.1-4.5,9.9-8.7,13c-3.7,2.7-5.3,6-6.6,9.9c-0.4,1.4-0.5,2.9-1.1,4.2
		c-2.7,6.2-2.9,12.4-0.9,18.9c0.4,1.3-0.3,3.7-1.4,4.5c-8,6.5-16.2,12.8-24.3,19.2C1216,1323.3,1216.3,1328.6,1218.2,1334.9z"/>
	<path onclick="modals(this.id);" id="2471" class="st0" d="M2234.4,1233.5c-3.8-4.4-7.7-8.3-11-12.7c-1.4-1.9-1.6-4.8-2.5-7.2c-1.1-3.2-2.1-6.4-3.5-9.5
		c-1.1-2.3-2-4.1,0.2-6.6c2.2-2.6-1.8-11.4-5.7-12.4c-4.9-1.2-9.9-2.3-14.8,0.7c-2.7,1.7-5.5,1.5-8.7-0.5
		c-5.3-3.3-10.8-6.1-15.6-10.2c-1.8-1.6-4.7-1.8-8.1-2.9c-1.3-7.7-8.7-9.4-15.7-12.5c-5.7-2.6-10.6-7.1-15.7-10.9
		c-2.1-1.5-4-3.4-6-5.1c-6.9-5.6-13.7-11.5-20.9-16.7c-5.1-3.7-11.1-6.1-16.3-9.7c-3.4-2.4-5.9-6-9-8.9c-2.9-2.8-5.8-5.6-9.1-7.9
		c-4-2.8-8.5-4.9-12.5-7.7c-5.1-3.5-8-8-5.6-14.5c0.3-0.9,0-1.9,0-3.7c9.3,3.9,11.8-3.7,16.7-9.4c-3.3,0-5.9,0.4-8.4-0.1
		c-5-1-9.9-2.6-14.9-3.6c-1.6-0.3-4.4-0.2-5,0.8c-7.8,11.9-15.3,23.9-16.6,38.6c-0.1,1.6-1.7,3.6-3.1,4.3c-1.2,0.6-3.5-0.1-4.7-1
		c-4.6-3.2-8.5-7.6-13.4-9.9c-6.5-3-13.7-4.7-20.7-6.4c-7.3-1.8-14.8-2.5-22-4.3c-9.7-2.5-17.3,2.2-24.7,6.7
		c-7.2,4.4-13.7,10-20.5,15.2c-3.9,2.9-7.6,6-11.5,9.1c-3.6-14.8-7.4-30.3-11.2-45.7c-4.8-19.9-9.5-39.9-14.4-59.8
		c-7.1-29.4-14.4-58.8-21.6-88.2c-1.4-5.5-2.4-11.2-4-16.6c-2.3-7.6,0.7-14.6,2.6-21.4c2.5-9.2,3.1-17.5-2.9-25.6
		c-1-1.4-1.4-3.2-2-4.7c8.8-5.7,19.2-12.8,30-19.5c2.5-1.5,5.9-1.9,8.9-2.1c6.9-0.4,13.8,0.8,20.4-2.5c1.1-0.6,3.2,0.9,4.8,1.3
		c4.6,1.3,9.2,2.9,13.9,3.9c2.2,0.4,4.7-0.1,6.8-0.8c2.6-0.8,4-1.7,5.5,2c10.8,28.8,21.9,57.5,32.9,86.2c1.3,3.3,2.6,6.5,7.7,6.1
		c2.8-0.2,5.7,1.9,9.1,3.2c-1-9.6,5.7-14,11.1-20.1c1,1.4,2,2.5,2.6,3.7c3.1,5.9,8.3,7.9,13.8,4.7c4.3-2.4,8.3-2.7,13.1-1.9
		c7.1,1.1,14.3,1.5,21.5,2.1c4.4,0.4,8.8,0.8,13.3,0.9c1.3,0,2.6-0.9,3.9-1.5c3.8-1.7,7.6-3.7,11.6-5.1c0.8-0.3,2.8,1.2,3.5,2.4
		c3.6,5.8,8.8,6,11.8-0.1c2-4.1,4.8-4.6,7.8-2.1c5.3,4.4,10.1,2.4,15.3,0.1c2.9-1.2,6.1-1.6,10-2.6c-3.4,8.5-3.4,10.2,3.3,13.6
		c7.7,3.9,10.9,10.6,13.6,17.9c2.4,6.5,5.8,8.1,12.2,5.5c7-2.9,14.9-0.8,20.2,4.8c2.4,2.5,5.5,4.2,8.2,6.4
		c7.1,5.5,8.9,13.3,9.4,21.7c0,0.7-0.1,1.4,0.1,2c0.9,4.4,15.1,15.7,19.6,16.2c6.7,0.7,13.6,1.2,18.1,7.4c-5.5,3.8-6.2,10-2.4,16.4
		c3.1,5.3,8.2,7,13.7,8.2c6.1,1.3,12,3,18.1,4.6c-0.1,0.4-0.2,0.8-0.3,1.3c-2.4,0.7-4.9,1.2-7.3,2.1c-3.4,1.2-4.7,3.9-4.4,7.4
		c0.6,6.4,1.8,12.7,1.7,19.1c-0.1,3.4-2.2,6.9-4,10.1c-1.1,2-3.2,3.4-4.8,5c-8.1,8.1-10.4,21.7-5.2,31.8c7.1,13.8,6,26.9-0.9,40.6
		c-3,6-4.4,13.4-4.7,20.3c-0.7,15.5,0.6,31,5.4,46C2242.5,1225.2,2241.1,1228.1,2234.4,1233.5z"/>
	<path onclick="modals(this.id);" id="2463" class="st0" d="M1600.9,553.1c2.8-4.6,5.9-11,10.2-16.4c1.8-2.3,6.2-2.8,9.5-3.6c12.7-2.9,25.5-5.5,38.1-8.5
		c1.8-0.4,3.4-2.1,4.7-3.6c2.8-3.2,5.2-6.6,8.2-10.5c-3.4-1.8-6.4-3.4-9.5-4.9c-15.5-7.3-31.1-14.5-46.6-21.7
		c-5.6-2.6-11.2-5.3-16.8-7.9c-3.4-1.5-5.7-3.6-7-7.4c-3-9-9.6-12.4-19.1-12.7c-15.4-0.6-30.8-2.5-46.2-3.7
		c-10.5-0.8-21.1-1.4-31.6-2.1c-2.1-0.1-4.2-0.9-6.3-0.7c-2.1,0.2-4.5,0.9-6.2,2.1c-1.8,1.3-2.9,3.5-4.5,5.2
		c-3.6,3.8-6.7,7-7.5,13.4c-1,7.5-4.6,15.2-10.7,21.1c-2.9,2.8-4.8,6.8-6.8,10.5c-1.6,2.9-2.9,4.6-6.5,2.6
		c-6.1-3.4-13-5.7-18.2-10.1c-3-2.5-5.2-8.3-4.9-12.3c1-12.7-5.6-21.5-13.5-30.7c7.1-2.8,13.8-5.4,20.5-8.1c20.3-8,40.6-16,60.9-24
		c12.4-4.9,24.7-10.2,37.3-14.4c3.7-1.2,8.7,0.5,12.9,1.7c6.4,1.9,12.6,4.4,18.8,6.9c0.8,0.3,1.5,1.6,1.9,2.5
		c2.6,6.5,4,13.7,7.9,19.2c6.1,8.7,6.6,10.2,20,7c7.3-1.7,14.6-3.5,21.8-5.3c5.3-1.3,8.3-5.9,7.2-11.3c-0.9-4-2.1-7.9-3.6-11.6
		c-2.5-6.3-2.7-6.2-2-14.2c7.2,0.3,12.4-3.1,15.7-9c4.1-7.2,7.8-14.6,11.1-22.1c2-4.6,3.8-8.7,8.4-11.6c4.1-2.6,7.7-6.1,11.4-9.3
		c4.9-4.2,10.4-3.8,16.3-3c5.7,0.8,11.5,1.3,17.2,1.4c7.3,0.1,12.8,3.3,16.1,9.4c5.6,10.2,14,14.8,25.2,17.1
		c5.2,1.1,9.9,5.6,14.2,9.2c6.1,5.1,11.5,11.2,17.7,16.3c2.6,2.1,6.4,4.1,9.5,3.9c12-0.9,22.3,4.7,33.1,8.1c8,2.6,10.3,8.8,6.8,16.4
		c-1.2,2.6-5.4,5.1-8.4,5.4c-8.9,1-14.9,6.7-19.8,12.6c-7.7,9.3-11.3,21-14.9,32.6c-1.7,5.6,1.4,4.9,5,5.2
		c-0.5,7.5,3.9,15.2-1.5,22.4c-0.3,0.3-0.3,1-0.2,1.5c1.4,9.8-5.1,15.6-10.6,22.2c-2.2,2.7-4.2,5.9-5.3,9.2c-1.2,3.7-3,5.8-6.8,6.7
		c-7.3,1.7-7.4,1.9-7.4,9.6c0,17.7,0,35.3,0,53c0,6.3,2,8.2,8.2,8.4c3.1,0.1,6.2,0.6,9.4,1c0.4,0.1,1.2,0.3,1.2,0.6
		c1.3,7.6,9.9,8.9,13,14.9c1.4,2.6,1.1,6,2.2,8.8c1.1,2.8,3,5.2,4.9,8.3c-3.4,3.1-3,8.4-3.1,13.7c-0.1,4.3,2.3,5.8,5.8,6.6
		c0.3,0.1,0.7,0.1,1,0c10.2-2,18.2,1.7,25,9.2c0.9,1,3.2,1.2,4.7,0.9c8.6-1.7,10.7-9.5,13.4-16.1c2.7-6.5,6.7-11.9,12.3-15.3
		c5.9-3.5,8.7-8.8,10.7-14.5c4.2-11.6,12-21.1,17.6-31.9c0.6-1.1,3.4-2,4.8-1.6c6.4,1.7,12.7,4.2,19.1,5.8c3.2,0.8,3.7,2.4,3.7,5.3
		c-0.1,23,0.1,46-0.1,69c-0.1,19.1-0.6,38.2-1,57.3c0,0.8-0.1,1.6-0.2,2.9c-2,0-3.8,0-5.6,0c-30.2,0-60.3,0.1-90.5,0
		c-25.7-0.1-51.5-0.6-77.2-1c-0.7,0-1.5,0.2-2-0.1c-6.8-4.2-10.4,1.3-14.6,4.8c-3.7,3.1-7.3,6.2-10.6,9.7c-5.5,5.7-11.9,2.5-18,2.3
		c-4.9-0.1-9.8-1.5-14.7-1.4c-2.3,0-4.8,1.9-6.7,3.5c-8.8,7.5-17.3,15.3-26,22.8c-7.4,6.4-13.9,14.1-23.7,17.3
		c-1.9,0.6-3.2,3.6-4.4,5.6c-3.7,6.6-8.2,7.2-13.8,2.2c-1.6-1.4-4.1-2-6-2.9c-1.2-10.8-2.4-22.4-3.8-34.7
		c13.5,2.9,11.1-9.8,14.8-14.7c-1.2-4.5-3.1-7.9-2.9-11.2c0.7-9.5-4.4-16.1-10.1-22.4c-1.9-2.1-1.7-3.9-1.5-6.6
		c0.3-4.3-1.1-8.7-1.7-13c6.6-0.4,14.4-0.8,22.1-1.2c15.2-0.7,30.4-1.3,45.6-2c12.4-0.6,24.7-1.3,37.1-2c4.1-0.2,8.2-0.5,12.3-1.1
		c1.1-0.2,3-2,2.9-2.9c-0.3-4.4-0.6-8.9-2-13c-2.8-8.2-5.7-16-6.2-25c-0.6-10.2-4.6-19.7-15.8-23.6c-7.3-2.6-14.4-5.6-21.7-8.2
		c-3.7-1.3-7.4-2.6-7-7.5c0.3-4.1,4.8-7.4,9.3-7.7c4.7-0.4,9.4-1.1,14-2.1c1.1-0.2,2.7-1.8,2.8-2.8c0.1-1.3-0.9-3.6-1.9-3.8
		c-10-2.9-15.7-9.9-19.9-18.9c-0.8-1.8-4.3-3-6.7-3.1c-4.2-0.3-8.6,0.2-12.8,0.8c-6.2,1-16.2-4-20.1-10.2
		C1609.1,561.5,1605.1,557.9,1600.9,553.1z"/>
	<path onclick="modals(this.id);" id="2461" class="st0" d="M1370.6,352.3c-1.6,5.2-4.6,8.9-9.8,11c-2.5,1-4.6,3.6-6.3,5.9c-2.9,3.9-7.4,5.7-11.2,4.7
		c-10.4-2.8-18.5,2.2-27.6,5.6c-10.2,3.8-13.8,10.7-13.4,20.4c0.1,3.2,2.6,6.2,3.7,9.4c1.2,3.6,2.1,7.4,3.3,11.9
		c-1.6-0.3-2.8-0.2-3.6-0.7c-4.9-2.7-9.1-0.8-12.6,2.3c-6.1,5.5-11.9,11.2-17.2,17.4c-1.8,2.1-1.6,5.7-1.7,9
		c-9.3,4.7-19.1,8.7-30.7,4.5c-5.1-1.8-11.1-0.9-16.6-1.5c-4.2-0.5-8.5-1.2-12.6-2.4c-6.4-1.9-12.4-5.1-18.9-6.4
		c-6.3-1.3-10.4-5.1-14-9.6c-2.4-3.1-5.7-5.8-4.6-11c0.7-3-3.6-5-6.6-3.6c-1.8,0.8-3.5,1.7-4.1,1.9c-3.8-2.2-6.9-4.1-10.1-5.9
		c-5-2.9-10.4-5.3-15-8.8c-7.6-5.8-23.5-7.1-30.3-0.9c-2.1,2-2.9,6.8-2.5,10c1.9,13.7,4.6,27.3,7,41c0.1,0.6,0.5,1.2,0.9,2.1
		c-9.3,4.2-18.4,8.3-27.6,12.4c-7.7,3.4-15.6,6.6-23.3,10.2c-5.3,2.5-7.5,0.6-9.4-3.5c-1.3-2.9-3.5-5.5-5.6-7.8
		c-7.4-8-15.5-15.5-22.5-23.9c-3.8-4.6-6.6-10.5-8.5-16.3c-2.4-7.3-6.8-12-13.7-14.7c-6.5-2.6-13.2-4.6-19.3-7.9
		c-8-4.4-8.2-13.6-11.2-21c-0.2-0.4,0-1.2,0.2-1.4c6.6-4.7,3.7-12.3,4.1-18.1c0.3-5.2-4-11-6.9-16.2c-1.4-2.6-4-4.7-6.5-6.5
		c-1.5-1.1-4-1.6-5.8-1.2c-3.4,0.8-5.7,0.1-8.5-2.2c-6.9-5.5-14.2-10.5-21.8-16c5.9-5.6,11.7-11.1,17.7-16.4
		c0.7-0.6,2.8-0.5,3.8,0.1c5.3,3.1,10.6,6.3,15.8,9.7c6.3,4.1,12.1,9.3,20.3,9.5c1,0,2.3,0.3,3.1-0.1c9.1-5.3,19-9.7,26.8-16.6
		c5.5-4.9,11.1-8.9,17.4-12.3c1.1-0.6,2.4-1,3.7-1.1c6.1-0.7,7.9-4.5,4.3-9.8c-3.3-4.9-6.6-9.7-10.3-14.3c-2.1-2.6-1.6-4.6,0.2-7
		c3.1-4.4,5.7-9.1,8.7-13.5c5.3-7.8,10.6-15.6,16.1-23.2c4.5-6.2,9-12.5,14.3-18.1c3.2-3.4,7.8-5.7,11.9-8.3
		c2.1-1.3,4.4-2.4,6.6-3.5c0.8-0.4,2.5-0.8,2.5-0.7c1.7,4,5.3,1.6,7.9,2.3c3,0.8,6.2,1,8.8,2.4c4.6,2.5,9,3.1,14.1,1.8
		c3.6-0.9,7.7-0.2,11.5-0.2c8.2,0,16.3,0.3,24.5-0.2c5.3-0.3,9.3,1.5,13.4,4.6c9.8,7.4,21.2,11.2,33.2,13.5c7,1.3,12.4-2.1,16.6-6.7
		c3.6-3.8,7.2-4.1,11.8-3.4c2.2,0.4,5.2,0,6.9-1.3c4.1-3,8.1-3.3,12.3-1c4.1,2.2,8,4.8,12.1,7c1.5,0.8,3.4,1.2,5.1,1.4
		c3.9,0.5,8,0.2,11.7,1.3c2,0.6,3.9,3.3,4.8,5.4c2.8,6.5,4.4,13.6,7.8,19.8c2.5,4.6,6.6,8.4,10.6,11.9c8.8,7.8,19.6,13.2,24.6,25.3
		c3,7.4,9.4,13.3,13.6,20.2c3.4,5.7,5.9,11.9,8.7,17.9c2,4.1,2.8,9.8,6,12c4.2,2.8,5.4,6.7,7.5,10.3
		C1368.2,346.1,1369.3,349.4,1370.6,352.3z"/>
	<path onclick="modals(this.id);" id="2470" class="st0" d="M1903.1,743c0-45.3,0-90,0-135.4c18.9,6.2,36.6,11.3,53.6,18.1c5.9,2.3,10.2,8.8,15,13.6
		c7.8,7.9,15.3,16.2,23.3,23.8c1.8,1.7,5.5,1.9,8.3,1.8c4.2-0.2,8.6-0.6,12.5-2.1c2.8-1.1,5.3-3.7,7.2-6.2c3-4,4.8-9.1,8.3-12.6
		c2.8-2.9,7.2-4.1,11.4-6.3c1,2.2,1.8,4.1,2.6,6c1.6,4.2,3.7,7.3,8.1,10c5.7,3.5,7.2,10.7,7,17.6c-0.3,11.4-1.3,22.7-5,33.8
		c-1,3.1,0.6,7.4,1.9,10.9c1.1,3,0.4,4.5-2,6.1c-5.9,4-6.6,6.6-5.4,13.7c0.6,3.3-0.4,6.8,0.3,10c1.4,6.1,3.1,12,9.4,15.4
		c1.6,0.9,3,3.6,3.1,5.5c0.4,8.2,3.9,14.8,9.2,20.8c3.3,3.7,6.1,8,9.3,11.9c1.2,1.5,2.7,3.2,4.4,3.8c8.2,2.5,12.2,9.8,17.9,15.1
		c4.5,4.2,8.1,9.6,12.4,14c2.8,2.9,4.2,6,4.2,10.1c0,8.1,3.9,12.4,12.1,11.6c6.6-0.7,9,2.2,11.6,7.2c3.9,7.6,4.6,15.6,5.3,23.7
		c0.3,3.3,0,6.5,0,10.1c-0.7,0-2,0.2-3.4,0.2c-6.8,0.1-6.8,0.1-7.7,7c-0.5,4.2-4.5,6.4-9,6.2c-3.3-0.1-6.8,0.9-9.8,2.3
		c-4.2,1.9-7.7,3.2-12.1-0.3c-4.1-3.2-8.7-1.4-11.3,3c-0.8,1.4-2.5,2.8-4.1,3.2c-0.7,0.2-2.5-1.9-2.9-3.2c-1.2-3.8-3.5-4.6-6.9-3.2
		c-1.2,0.5-2.6,0.5-3.7,1.1c-15.1,8.2-30.9,5.6-46.6,2.6c-4.9-0.9-9-0.3-13.3,1.7c-5.2,2.5-7.5,1.6-10.4-3.1
		c-1.4-2.2-3.8-3.8-6.4-6.3c-5.2,6.7-9.6,12.5-14.5,18.8c-3.5-0.5-7.2-0.6-9.5-6.9c-10.6-29-22.5-57.6-33.3-86.6
		c-2.2-5.9-6-2.8-7.6-1.9c-4,2.2-6.6-0.2-10-1c-6.7-1.7-13.4-4.5-20.8-2.1c-3.5,1.1-7.6,0.5-11.4,1c-4.6,0.6-9.9,0.4-13.7,2.6
		c-12,7-23.3,14.9-35.2,22.6c2.7,4,6,7.6,7.7,11.7c1.4,3.3,1.8,7.5,1.4,11.1c-0.8,6.3-2.3,12.5-4,18.6c-1.1,3.8-3,7.5-4.9,11.1
		c-3.3,6.4-7.2,12.5-10.3,18.9c-1.9,4.1-4.7,5.9-9,6.1c-0.9,0-1.9,0.4-2.8,0.9c-10.3,5.4-16.7-1.8-23.7-7.3
		c-6.3-4.9-12.5-10-19.3-14.2c-8.2-5-16.9-9-25.3-13.5c-1.6-0.8-2.9-2.2-4.2-3.3c-4.2-3.5-8.3-7-12.3-10.3c-2.8,2-4.5,3.5-6.5,4.6
		c-4.5,2.5-8.6,6.4-14.5,1.3c-2.9-2.5-8-2.3-12-3.3c-1.5-0.4-3-1.1-5-1.8c11.9-46.3,18.5-93,25.3-140.2
		C1784.2,743,1842.8,743,1903.1,743z"/>
	<path onclick="modals(this.id);" id="2462" class="st0" d="M1314.7,425.3c-3.2-9.4-5.9-17-8.5-24.6c-2.2-6.6,1-13.1,8-16.7c3.8-1.9,7.6-3.8,11.3-5.8
		c4.4-2.5,8.9-2.5,13.8-1.5c6,1.2,11.5,0.7,16.2-4.5c3-3.3,7.1-5.7,11-8c5.7-3.3,8.4-10.8,5.6-16.6c-2.2-4.5-4.1-9.2-6.4-14.2
		c11.7-1.3,15.8-10.7,20.3-19.2c1.5-2.7,1.6-6.3,1.8-9.5c0.2-4.4,2.5-6.4,6.3-7.7c5.5-2,10.9-4.2,16.8-6.6c0,10,0,19.6,0,29.1
		c0,7.1,2.6,9.5,9.3,7.5c10.3-3.1,21.1-5.3,28.5-14.2c1.5-1.8,2.9-3.5,4.3-5.3c6.6-8.3,16.2-9.7,25.7-11.5c8.2-1.5,16.6-2.5,23,3.3
		c6.4,5.7,13.8,7.8,21.5,9.6c5,1.2,6.9,4,5.5,8.3c-3.8,11.6,1,20.7,7.4,29.7c6.5,9.1,12.6,18.7,18.6,28.1c1.9,3,4.1,4.5,7.7,4
		c3.7-0.5,7.7-0.2,11.3-1.1c7.6-2,13.4,1.7,18.9,5.6c5.4,3.9,10.2,8.6,15.1,13.1c0.8,0.7,1.3,2.5,1.1,3.6
		c-1.4,7.2,2.6,13.1,4.8,19.4c0.5,1.5,0.9,3.1,1.3,4.7c1.2,5.9-0.4,8.5-5.9,9.7c-8.1,1.8-16.4,2.9-24.3,5.4c-5.9,1.9-9.4-1.2-11.5-5
		c-3.2-5.9-4.9-12.6-7.5-18.8c-0.7-1.8-2.1-3.8-3.7-4.7c-9.4-5.1-19.5-8.7-30.1-9.5c-5-0.4-10.5,1.9-15.4,3.9
		c-28,11-55.9,22.3-83.9,33.4c-8,3.2-16,6.3-24.1,9.3c-2.8,1-3.5,2.2-1.6,4.6c1.8,2.3,3.1,5.1,5.2,7.1c6.1,5.8,6.9,13.3,7.9,21
		c0.7,5.2,2.8,10.2,4.4,15.3c0.2,0.6,0.8,1.1,1.4,1.4c5.8,3.2,11.4,7.4,17.6,9.1c6.1,1.7,7.9,4.9,8.4,10.3c0.4,3.7,1.2,7.4,1.9,11.1
		c0.8,4-3.7,10-7.7,11.2c-1.9,0.6-3.8,2-5,3.6c-1.7,2.4-2.6,5.3-4.1,7.8c-0.7,1.2-1.8,3.1-2.8,3.2c-5.9,0.2-4.9,4.5-4,7.5
		c1.7,6.1,0.7,11.7-1.4,17.5c-1.2,3.3-1.6,7-1.8,10.5c-0.3,4-1,7-5.2,9c-3.8,1.8-7,4.8-10.2,7.7c-5,4.5-8.7,4.7-13.2,0.2
		c-0.7-0.7-1.5-1.3-2.1-2.1c-7.6-10.1-18.1-9.2-28.9-8.3c-5.1,0.4-8.2,3.1-11.9,6c-7.8,6.2-15.7,4.1-22.7-2.8
		c-5.2-5-10.5-10-16.3-14.3c-1.7-1.3-5.4-0.1-8.1,0.2c-2.9,0.3-5.1,0.6-6.7-2.9c-2.9-6-6.5-11.6-10-17.3c-3.6-6-16.7-6.2-21-0.5
		c-1.1,1.4-3.4,2.7-5.2,2.8c-21.5,0.2-43,0.1-64.5,0.1c-1,0-2.5,0.2-2.8-0.4c-3.1-4.7-8.4-4.5-12.8-6.4c-7.9-3.4-12.5-0.5-12.5,7.8
		c0,1.4,0,2.8,0,3.5c-4.8-1.9-9.4-3.8-13.9-5.6c-0.6-0.2-1.3-0.5-1.6-1c-5-8.3-15.6-12-18.5-22.1c-1-3.6-2.3-7.1-2.8-10.8
		c-1.1-8-5.3-14.6-8.8-21.6c-3.5-7.1-6.2-14.7-8.1-22.3c-1-3.8-0.2-8.3,0.9-12.2c2.5-9.1-1.3-17.4-2.7-26.1
		c-1.9-11.6-4-23.2-5.3-34.8c-0.8-7.1,2.2-9.5,9.6-10c7-0.5,13.1,1.1,18.8,5.7c3.7,3,8.4,4.8,12.7,6.9c3.8,1.9,8.8,2.3,8.5,8.8
		c4-1.8,7.1-3.2,11.6-5.3c-2.7,8.7,4.3,11.9,7.5,17.1c4.1,6.6,11.6,7.4,18.2,9.7c4.9,1.7,9.8,3.3,14.6,5.3
		c5.2,2.1,10.3,3.2,16.2,2.1c4-0.8,8.6-0.2,12.6,1c7.8,2.3,15.3,3.7,23.2,0.4c3.1-1.3,6.5-2,9.8-2.8c2.8-0.7,4.8-1.9,3-5
		c-2.6-4.5-0.9-7.5,2.6-10.6c4.3-3.7,8-8.1,12.1-11.9c3.5-3.3,7.3-4.9,12.2-2.5C1307.6,425.1,1310.5,424.8,1314.7,425.3z"/>
	<path onclick="modals(this.id);" id="2467" class="st0" d="M1145.4,712.6c6.6,14.5,20.4,19.7,32.4,28c3.7-6.8,7.1-13.1,10.4-19.2
		c-2.9-6.1-6.2-12.3-8.9-18.9c-2.3-5.7-3.8-11.5-2.8-18c0.6-4-1.6-8.5-2.6-12.7c-4.9-19.9-9.9-39.8-14.9-59.7
		c-0.4-1.7-1.2-3.3-1.9-5.1c-15,2.7-29.5,5.3-44.1,7.8c-1,0.2-2.6-0.8-3.4-1.8c-7.9-10.4-15.7-20.9-23.4-31.5
		c-8.6-11.7-16.9-23.7-25.6-35.3c-5.3-7.1-5.1-15.3-5.6-23.4c-0.2-3.6-0.8-7.2-1-10.8c-0.2-2.7-0.6-5.4,0.1-7.9
		c0.9-3.6,3.1-6.9,3.9-10.5c1.8-9,9.7-10.2,16.1-13.1c12.6-5.7,25.4-11.1,38.1-16.5c1.3-0.6,2.8-1,4.7-1.7c0,5.3,0.9,10.5-0.2,15.3
		c-2,8.7-0.3,16.6,3.2,24.4c3.5,7.6,7.6,15,10.7,22.8c1.9,4.6,2.2,9.8,3.5,14.7c2.1,8.6,6.9,15.4,14.2,20.4c0.9,0.6,2.3,1.3,2.5,2.1
		c1,5.7,5.8,6.8,10,7.9c4.9,1.3,8.3,4.1,11.1,8c0.7,0.9,1.9,1.4,2.9,2.1c0.7-1,1.9-2,2-3.1c0.2-2.6,0.1-5.3-0.4-7.9
		c-1-5-0.1-6.7,4.6-5.8c5,1,10.6,0.5,14.4,5.5c1.1,1.5,4,2.3,6.1,2.3c21.7,0.2,43.3,0.1,65,0.1c3.1,0,5-1.2,6.6-3.9
		c1.1-1.8,4-4.1,5.6-3.8c3.8,0.6,8.4,1.8,10.7,4.4c3.7,4.3,5.9,9.9,8.7,15c0.6,1.1,1.4,2.2,1.7,3.4c0.8,2.9,2.9,3.5,5.3,2.7
		c5.4-1.7,10.1-2.4,14.3,2.9c2.4,3,5.9,5.1,9.1,7.4c6.4,4.6,3.6,11-2.1,13.9c-1.7,0.9-3.5,1.8-5.1,3c-5.1,4-9.1,8.6-7.6,15.9
		c0.5,2.7,0.2,5.7,0.1,8.5c-0.4,5.3,0.1,9.8,5.6,13.1c1.8,1.1,2.5,5.5,2.2,8.3c-0.5,5.1-2.3,9.4-8.5,10.8c-1.8,0.4-3.4,3.9-4.1,6.3
		c-1.3,4-1.9,8.2-3.1,13.4c4.7,1.2,9.6,2.6,14.6,3.6c14.1,2.8,28.2,5.3,42.2,8.2c1.7,0.3,3.9,1.6,4.5,3c4.8,10.8,9.6,21.5,20.7,27.6
		c-9.9,20.4-19.5,40.1-29.1,59.8c-2.9,6-6.3,11.9-8.7,18.2c-4.6,11.9-12.5,20.7-23.1,27.4c-0.7,0.4-1.4,0.9-1.9,1.4
		c-0.4,0.4-0.6,1.1-0.7,1.2c-6.8-3.2-13.4-6.3-20-9.4c-0.9-0.4-2-0.8-2.4-1.6c-5.4-8.7-14.8-10.3-23.3-13.6
		c-10.8-4.3-21.4-8.8-32.2-13.1c-1.3-0.5-2.9-0.8-4.3-0.9c-16.9-0.7-33.7-1.3-50.6-2c-4.4-0.2-8.8-0.9-13.1-1.4
		c0.1-1.6,0.2-3.4,0.4-6.2c-3.8,1.2-7,2.1-10.1,3.2c-8.2,2.8-16.4,5.6-24.4,8.7c-3.1,1.2-4,0.1-5.6-2.4c-4.2-6.5-4.5-13.5-3.9-21.8
		c7.7-1.8,16.2-3.8,24.6-5.8c3.6-0.9,7.3-1.6,10.9-2.7c3.8-1.2,4.3-3.7,2.2-7.3c-5.9-10.2-12.3-20.1-17.3-30.7
		c-2.7-5.8-5.2-10.7-11.1-14C1139.7,718.9,1140.2,717.2,1145.4,712.6z"/>
	<path onclick="modals(this.id);" id="2469" class="st0" d="M1407.3,613c7.1-4.9,13.6-9,19.6-13.6c1.7-1.3,2.5-4.2,3-6.5c1.7-7.3,3.2-14.6,4.7-21.9
		c0.2-1,0.7-2.1,0.4-2.9c-3-7,1.4-11.3,5.4-16.1c2.2-2.7,3.3-6.3,5.1-9.7c6,0.3,9-4.3,11.4-8.6c1.2-2.1,0.4-5.6,0-8.4
		c-0.7-4.8-2.2-9.6-2.7-14.4c-0.6-6,1.9-11.5,6.2-15.5c7.6-7,11.4-16.1,13.8-25.5c0.9-3.7,2.2-6.6,4.2-9.5c4.8-7,10.3-8.6,18.8-6.9
		c5,1,10.1,1.1,15.2,1.5c11.2,0.7,22.4,1.2,33.6,2.1c11,0.8,22,1.7,32.9,3.1c5.4,0.7,8.6,4.9,9.9,9.8c1.4,5,4.6,7.4,8.9,9.4
		c16.3,7.5,32.6,15.2,48.8,22.8c6.5,3,13,6.1,19.2,9.1c-2.6,10.1-11.2,10.9-19,12.7c-11.1,2.5-22.3,4.6-33.4,7.2
		c-2,0.5-4.1,2.3-5.3,4.1c-3.9,5.8-7.4,11.9-11.1,17.9c-1.5,2.5-1.4,4,1.9,5c4.2,1.2,7.2,3.9,9.3,8.1c4.1,8.2,11.8,12.1,20.5,13.6
		c3.4,0.6,7.2-0.4,10.7-1.1c6.6-1.3,8.8-0.6,11.6,5.7c2.7,6.2,5.7,11.6,13.3,12.8c1.9,0.3,3.6,1.9,6.6,3.6
		c-6.4,0.9-11.5,1.8-16.6,2.2c-4.6,0.4-10.5,5.1-11.1,10.2c-0.5,4.5,2,8,6.2,9.5c5.5,2,11.2,3.3,16.6,5.4c4.2,1.7,7.9,4.5,12.1,6.3
		c8.1,3.4,9.4,11.1,9.6,17.8c0.3,9.3,3.8,17.4,6.3,25.9c1.2,4,1.8,8.1,2.8,12.3c-7.2,0.6-13.2,1.3-19.3,1.6
		c-9.8,0.5-19.5,0.6-29.3,1.1c-20.6,0.9-41.3,2-61.9,3c-4.8,0.2-9.5,0.6-14.3,1c-1.3,0.1-2.5,1-3.8,1.6c1,0.8,2,1.9,3.1,2.3
		c6.1,1.8,8.1,4.8,6.7,11c-1.1,5.1,0.3,9.4,4.1,12.4c7.9,6.3,7.8,15.4,8.9,24c0.3,2.2,0.5,4.6,0.2,6.8c-1,8.1-3.1,9.8-11.2,9.8
		c-4.7,0-9.4-0.3-14.1,0.2c-2.5,0.2-5,1.5-7.2,2.7c-8.1,4.6-16.1,9.4-24.1,14c-12.2-12.1-23.8-24.3-28.8-41.2c-1.5-5.1-4-10-6-15
		c-2.6-6.3-8.2-8.9-13.8-11.7c-1.7-0.9-3.1-2.1-5.7-3.9c3.4-0.9,5.2-1.5,7-1.9c12.9-3.5,18.9-13,21.3-25.2c0.6-3.3,2-4.8,4.8-5.8
		c6.6-2.3,7.5-4.7,6.7-11.7c-0.3-2.4,1.3-5.3,2.6-7.6c2.3-4.3,0.7-7.7-4.1-7.7c-3.9,0-7.8,0.7-11.8,0.8c-1.3,0-3.1-0.4-3.9-1.4
		c-4.1-4.9-8.5-9.6-11.8-15.1c-5-8.3-12.5-12.7-21.5-13.2c-9.3-0.5-18.7,1.6-28.1,1.5c-6.8-0.1-13.5-1.8-20.3-3.1
		c-3.2-0.6-6.3-1.5-9.3-2.8C1410.4,616.2,1409.1,614.5,1407.3,613z"/>
	<path onclick="modals(this.id);" id="2468" class="st0" d="M1177.2,804.9c10.8,0,20.9-0.4,31.1,0.1c12.1,0.5,24.2,2.7,36.3,3.5c8.5,0.6,16.7,6.1,25.1,9.3
		c5.3,2.1,10.8,3.7,15.9,6.2c4,2,7.5,4.9,11.3,7.4c3.8,2.5,7.5,5.1,11.5,7.2c4.8,2.7,10,4.7,14.8,7.4c3,1.7,2,8-1.7,10.6
		c-3.2,2.2-6.7,4.1-9.8,6.4c-5.4,3.9-10,14.9-6.7,19.9c0.8,1.3,2.3,2.4,3.7,3c6.9,2.7,14.5,3.3,20.2,9.2c4.8,5,7.6,9.9,8.3,17
		c0.7,7,4.3,13.6,5.9,20.6c1,4.1,0.5,8.6,0.8,12.9c0.3,4.8-0.4,9.9,1.2,14.3c5.6,15.3,7.7,30.9,6.8,47c-0.1,1,0.3,1.9,0.3,2.3
		c-16.5,13.8-32.7,27.7-49.4,41c-5.2,4.2-7.3,8.8-7.1,15.1c0.1,3-1.2,5-4.5,6c-20.9,6.1-41.8,12.4-62.7,18.6
		c-14.6,4.4-29.3,8.6-43.7,12.9c-4.6-5.7-9.3-11.2-13.5-17c-1.1-1.4-1.2-3.9-0.9-5.8c0.3-2.4,1.4-4.6,2.4-6.9
		c4.2-9.3,0.4-17.9-2-26.6c-5.6-20.2-11.2-40.4-17-61.1c9.6-2.8,19.2-5.6,28.8-8.5c11.1-3.3,22.1-6.7,33.2-9.9
		c4.1-1.2,5.3-3.7,2.9-6.9c-2.8-3.7-6-7.3-9.6-10.3c-15-12.5-24.2-28.3-28.3-47.4c-2.8-13.1-6.1-26-9-39c-1.8-8-2.3-15.9-0.2-24.2
		c2.2-9,2.8-18.4,4.2-27.7C1176.3,809.5,1176.8,807.2,1177.2,804.9z"/>
	<path onclick="modals(this.id);" id="2476" class="st0" d="M1676.6,895c4-2.9,7.6-3.8,12.1-2.3c2.4,0.8,5.6,1,7.8,0.1c2-0.8,3.1-3.6,4.6-5.7
		c6.6,1.5,13.8,1.6,19.1,7.4c0.9,0.9,3.6,0.8,5.2,0.3c3-1.1,6-2.6,8.7-4.4c4.8-3.3,8.3-3.1,12.1,1.6c8.1,9.7,19.3,14.4,30.4,19.6
		c5.2,2.5,10,6,14.7,9.5c6.3,4.6,12.3,9.7,18.6,14.4c1.3,1,3.4,1.8,4.9,1.5c6.2-1.4,12.3-3,18.3-5c1.9-0.6,3.7-2.7,4.7-4.5
		c4.2-7.5,8.1-15.2,12.8-24c17.4,72.3,34.5,143.2,51.8,214.7c-5.5-1.6-10.3-2.9-15-4.3c-0.8-0.2-1.6-0.8-2.3-0.7
		c-5.2,1.1-7.7-2.2-10.4-5.7c-1.4-1.9-3.7-3.4-6-4.4c-9-3.8-16.6-2.5-24.7,3.9c-5.3,4.2-13,6-19.9,7.3c-7.3,1.4-12.6,5.3-16.3,10.8
		c-5.9,8.9-14.1,13.4-23.6,17.1c-8.7,3.4-14.7,10.6-20.2,18c-3.7,4.9-7.9,9.4-11.7,14.2c-4.8,6.2-10.2,12.1-14,18.9
		c-2.9,5.1-6.2,8.6-11.9,9.7c-3.2,0.6-6.3,1.3-9.8,2.1c0.5-9.2,2.2-18.3,1.1-27.2c-1.1-9.6-0.2-19.7-5.5-28.6
		c-3.1-5.1,0.5-9.8,1.7-14.6c2.7-10.2,6.1-20.3,8.4-30.5c0.8-3.7-0.1-8.1-1.2-11.9c-3.9-13.2-2.7-15.7,9.1-23
		c8.7-5.4,14.5-13.6,13.8-24.4c-0.6-8.1-2.5-15.8-10.3-21.2c-3.9-2.7-6-7.9-8.7-12.1c-4.7-7.1-10.8-11.7-19.8-11.6
		c-3.1,0-6.2-0.8-9.3-1c-4.5-0.3-5.9-3.9-7.8-6.9c-5-7.8-10-15.6-15-23.5c-0.9-1.5-1.4-3.3-2-4.9c-1.6-4-3.2-8-4.8-12
		c-1.6-3.9-3-7.9-4.9-11.7c-3.5-6.8-7.6-13.3-10.9-20.3c-1.1-2.3-1.3-6-0.1-8.1c1.7-3,5-4.1,8.8-2c2.4,1.3,5.2,2,7.8,2.9
		c2.6,1,13.1-3.2,13.7-5.8c0.3-1.3-0.3-2.8-0.8-4.1C1678.9,900.1,1677.8,897.7,1676.6,895z"/>
	<path onclick="modals(this.id);" id="2464" class="st0" d="M1784.2,642.6c-0.6-2.1-2.1-5.2-2.1-8.2c0.1-6.6-5.6-8.5-8.9-12.3c-1.4-1.6-2.8-3.1-4.3-4.6
		c-1.3-1.5-2.4-3.8-4-4.3c-4.6-1.3-9.5-1.9-14.5-2.8c0,0-0.3-0.5-0.3-0.9c-0.4-18.8-0.7-37.6-1.1-56.4c-0.1-2.7,0.5-4.3,3.3-5.1
		c6.3-1.9,10.6-5.3,12.3-12.4c0.8-3.5,4.4-6.3,6.9-9.4c4.4-5.4,8.9-10.7,7.6-18.4c-0.1-0.6,0.2-1.3,0.5-1.8c4.5-6.3,3-12.9,1.6-19.7
		c-0.4-2.1-0.1-4.3-0.1-6.7c-1.8-0.3-3.3-0.6-6.4-1.1c4.7-10.4,8.2-21,14-30.2c6.1-9.6,17-13.6,28.4-16c3.2,5.4,9.6,8,16.3,9.8
		c4.6,1.2,8.6,3,11.7,6.7c3.2,3.8,7,4.7,11.3,1.6c0.8-0.6,1.7-1,2.5-1.6c8.2-5.3,15.9-2.5,19.4,6.9c1,2.7,2.9,5.1,3.7,7.9
		c1.6,5.2,2.6,10.6,4,15.9c1,3.5,1.8,7.2,3.4,10.4c4.2,8.2,9,16.1,13,24.5c0.9,1.8-0.5,5.2-1.8,7.4c-2,3.6-3.7,6.5-3,11.2
		c0.9,5.8,1.5,11.9-2.3,17.6c-7.3,10.9-14,22.1-20.8,33.3c-2.3,3.9-4.5,7.5-4.2,13c0.3,4.6-4.4,9.5-6.9,14.2
		c-4.1,7.4-8.6,14.5-12.2,22.2c-2.3,4.9-5,8.6-9.6,11.7c-7.4,5.1-12,12.9-15.1,21.2c-1.9,5.2-4.5,8.9-10.4,10.3
		c-2.7-2.6-5.3-6.1-8.7-8.4c-2.6-1.7-6.2-2.2-9.4-2.6c-2.7-0.3-5.6,0.5-8.4,0.3c-4-0.4-6.1-5.2-4.4-10.3c0.7-2.1,2.4-3.9,3.5-5.9
		c1-1.8,1.9-3.7,2.8-5.6C1789.5,643.7,1787.4,643.3,1784.2,642.6z"/>
	<path onclick="modals(this.id);" id="2466" class="st0" d="M1404.9,614.2c0.4,4.3,4.5,5.8,8,6.6c9.3,2.2,18.4,6.2,28.3,5.1c2.9-0.3,5.8-1.4,8.7-1.4
		c11.3,0.1,23.1-2.1,33.2,5.4c1.7,1.3,3.4,2.7,4.7,4.4c3.8,5.1,7.2,10.4,10.9,15.6c2.9,4.1,7.1,4.2,11.6,3.9c3.3-0.2,6.7,0,10.6,0
		c-1.2,2.2-2.6,4.1-3.2,6.3c-0.6,2-1,4.5-0.4,6.4c1.4,4-0.3,6.6-3.6,7c-6.3,0.9-8,5.1-8.5,10.1c-0.6,6.7-4.6,11.6-8.7,16
		c-2.6,2.7-7.1,3.6-10.7,5.4c-4.5,2.3-7.8,0.3-11.1-2.7c-0.7-0.6-3.5,0-4.1,1c-1.5,2.2-2.1,5.1-3.6,7.5c-1.1,1.8-2.6,4-4.4,4.7
		c-1.9,0.7-4.9,0.6-6.5-0.6c-1.1-0.8-0.7-3.9-0.5-5.9c0.4-2.7,1.6-5.3,1.7-8c0.1-1.3-1.6-2.7-2.5-4c-0.9,1-2.2,1.9-2.6,3
		c-1.2,4.2-2.4,8.5-3.1,12.8c-1.1,7.2-4.1,12.4-12.8,12.8c-4.2-5.5-8.8-11.4-13.3-17.3c-2.5-3.3-5.7-3.3-8-0.6
		c-2.7,3.3-5.3,6.7-5.1,11.8c0.8,15,0.2,14.8-14.2,14.4c-7.7-0.2-11.8-6-15.6-11.4c-3.9-5.5-6.7-11.8-9.8-17.9
		c-2.5-4.9-7.4-3.7-11.2-4.5c-15.4-3.4-31-6.1-46.5-9.3c-0.9-0.2-2-2.1-1.9-3.1c0.1-2.6,0.8-5.2,1.3-7.7c0.6-3.1,2.2-5.5,5.5-5.8
		c4.3-0.4,5.7-3.2,6.4-6.8c0.6-3,2.1-6.2,1.7-9c-0.5-2.9-2.8-5.5-4.3-8.3c-1.1-2-2.8-3.8-3.2-5.9c-0.8-3.5-0.5-7.2-1.1-10.8
		c-1.6-8.7,4.2-13.1,10.3-17c3.6-2.3,7.1-4.1,8-8.7c0.1-0.5,2.7-1.2,3.8-0.7c7.1,2.9,14.7,1.1,20.7-4c2.4-2.1,5.8-3.4,9-3.9
		c12.2-2.1,22.4,1,29.8,11.6C1399.5,612.3,1402.2,612.8,1404.9,614.2z"/>
</g>
</svg>
