<?xml version="1.0" encoding="utf-8"?>
<!-- Generator: Adobe Illustrator 19.0.0, SVG Export Plug-In . SVG Version: 6.00 Build 0)  -->
<svg version="1.1" id="Layer1" xmlns="http://www.w3.org/2000/svg" xmlns:xlink="http://www.w3.org/1999/xlink" x="0px" y="0px"
	 viewBox="0 0 16000 12000" style="enable-background:new 0 0 16000 12000;overflow: hidden; display: inline; width: inherit; min-width: inherit; max-width: inherit; height: inherit; min-height: inherit; max-height: inherit;" xml:space="preserve">
<style type="text/css">
	.st0{fill:#8FD4EB;stroke:#000000;stroke-width:3;}
</style>
<g>
	
	<path onclick="modals(this.id);" id="2507" class="st0" d="M7935.2,8234.7c3.6-14.1,5.1-21.9,7.7-29.3c1.2-3.5,4-7.1,7-9.3c5.4-3.8,11.5-6.6,17.4-9.7
		c27.3-14,54.6-27.7,81.8-41.9c7.6-3.9,15.1-5.2,23.1-2.5c8.8,3,17.8,5.8,25.9,10.1c12.1,6.4,24.9,10.4,38.3,9.2
		c20.7-1.8,39.3,5.6,58.4,11.1c10.2,2.9,19.8,7.9,29.9,11.1c14.5,4.6,25.9,12.9,35.1,25.1c6.3,8.4,12.9,16.7,22.3,22.5
		c21,13.1,43.1,20.8,68.2,16.6c3.9-0.7,8-0.8,12-0.7c16.9,0.4,30.6-5.7,43-17.5c16.7-16,37.1-24.9,60.5-28.2
		c14.3-2,28.1-8,42.3-11.1c8.3-1.8,15.9,0.5,18,10.7c1,4.5,5,6.1,8.9,6.7c6.5,1,13.6,2.8,19.7,1.3c11.2-2.8,20.8-0.5,31,3.4
		c4.6,1.8,10.6,1.3,15.5,0.1c5.3-1.2,9.9-1.9,15.3,0c19.9,7,32.8-4.6,44.7-17.9c1.5-1.7,1.5-5,2-7.5c1.9-10.7,3.1-12.4,10.3-12.4
		c10.6,0,21.2,0.4,31.8,0.5c9.3,0.1,18.6,0,29.8,0c8.8-7.9,18.7-16.6,28.2-25.6c8.6-8.2,16.8-16.9,25-25.2c7.6-4.4,15.7-3,23.6-3.4
		c14.6-0.7,29.6-0.8,37.4-16.7c12.3-7.8,24-16.9,40-21.2c6.1,7.9,12.2,16.5,19,24.4c10.8,12.7,23.6,20.9,41.5,20.1
		c9.2-0.4,18.5,1.6,27.6,3.2c5.3,0.9,10.5,2.3,15.7,0.2c10.2-4.1,20.9-3.2,31.6-3.6c11.2-0.4,20.9,1.5,28.4,11.1
		c6.9,8.8,16.8,12.7,27.8,14c13.2,1.5,26.4,3.3,39.6,4.7c7.8,0.8,17.2-1.8,22.5,5.3c7.2,9.5,13.3,20.9,10.8,33.1
		c-4.1,20.1,1.4,36.8,14.4,51.6c5.5,6.3,8.6,13.1,9.1,21.4c0.4,6.6,1.3,13.3,3.1,19.6c4.9,16.6,8.6,33.3,9.5,50.8
		c0.6,12.6,7.7,22.4,19.6,28.1c9.6,4.6,19.2,9,28.6,14c6,3.2,8.5,11.2,5.6,17.3c-4.6,9.6-9.4,19.1-14.8,30.2
		c-3.4,1.8-7.7,5.4-12.6,6.7c-20.7,5.4-29.1,22.1-36.3,39.4c-3.7,8.8-3.5,18.3,1.3,27.1c2.5,4.6,6.5,9,7.3,13.9
		c0.8,4.8-0.4,11.1-3.1,15.1c-3.6,5.3-9,10-14.6,13.3c-15.2,9.2-25.7,22.8-36.6,36.4c-10.4,13-18.5,26.1-14.8,43.6
		c-3.1,25-6.3,50.1-9.6,76.3c-17.2,2.4-34.1,4.6-51.3,0.2c-15.5-4-30.9-8.2-46.5-11.6c-12.1-2.7-23.1,10.5-20.1,22.8
		c3.5,14.5,9.6,27.7,20,38.6c14.2,14.8,21.7,33.2,27.9,52.4c3.4,10.4,4.4,20.8,1.5,31.4c-5.5,20.6-11.2,41-16.5,61.7
		c-5.7,22.3,5.6,34.5,27.1,29.4c11.7-2.8,23.5-5.4,34.7-9.5c17.1-6.4,33.8-6,50.8,0c5,1.8,10.3,2.7,15.3,4.3
		c5.6,1.8,8.3,6.3,9.3,11.8c0.5,2.6,0.9,5.3,0.7,7.9c-1,14.7,6.5,24.9,16.3,34.8c20.6,20.8,40.4,42.4,60.7,63.5
		c5.8,6.1,8.1,12.6,8.4,21.3c0.4,14.6,4.4,28.8,11,42.2c9.6,19.2,15.7,39.3,18,60.9c2,18.4,6.9,36.6,10.6,54.8
		c2.9,14.6,10,27.5,16.6,40.5c4.3,8.6,7.5,17.7,4.7,26.9c-4.6,14.8-1.5,29,1.6,44c-3.8,1.8-7.1,4.6-10.6,4.8
		c-10.9,0.5-20.8,4.2-30.8,7.9c-11.2,4.1-22.7,7.6-34.2,10.8c-10.4,2.9-20.6,2.9-31.4-0.3c-31.9-9.4-64.1-17.9-96.2-26.8
		c-5.1-1.4-10.1-3.4-15.3-4.7c-19.7-4.7-35.1,5.3-38,24.7c-2.4,15.9-3.4,31.8-1.1,47.8c1.8,12.4-0.6,23.9-8.8,33.8
		c-11.8,14.4-17.3,33.2-32.5,45.1c-12,19.1-25.6,37.6-24.4,62c0.2,3.8-1.7,7.6-2.7,11.8c-3.5,2-6.7,4.3-10.3,5.7
		c-17.5,6.7-28.8,18.8-32.8,37.2c-1.5,6.6-2.8,13.2-8.3,17.7c-18.9,15.4-24.8,37.6-29.9,59.5c-2.7,11.8-6.9,22.6-10.8,33.9
		c-5.9,17-18.4,21.8-33.8,23c-6.5,0.5-13.2-1.9-19.7-1.5c-15.2,0.8-29,4.7-35.3,21c-2.3,5.8-7.8,7.6-13.1,6.6
		c-24.9-4.7-49.6-9.9-74.7-15.1c-3-2.3-6.5-4.3-9.3-7.1c-20.4-21.1-20.5-21.1-28.2-51c-4.6-18-10-35.8-11-54.7
		c-0.6-11.4-8.3-19.5-18.9-23.7c-13.5-5.4-27.4-9.5-39.1-19.3c-7.4-6.2-17.7-4.5-27.1-4.6c-12.6-0.2-23.8,2.5-31.4,13.8
		c-9.9,14.7-23.8,24.9-38.5,34.3c-4.5,2.9-8.9,6.6-13.9,7.7c-26.2,5.4-43.4,25.1-63.8,39.7c-6.8,4.9-10,12.3-10.4,20.7
		c-0.5,10.6-1,21.2-1.4,29.7c-4.2,8.7-10.7,11-16.8,13.4c-26.3,10.5-49.7,25.2-70.3,44.6c-1.9,1.8-4.6,2.7-8.7,5.1
		c-38-2.2-77.8-4.3-117.6-6.8c-10.9-0.7-19.5-6.1-22.7-18.8c-5.2-20.6-11.1-40.9-16.7-61.3c-6.3-4.1-11.6-8-17.4-11.2
		c-13.9-7.7-28.1-7.7-42-0.4c-21.2,11-42,22.6-63.2,33.5c-1.5,0.8-6.5-1.3-6.7-2.5c-2.1-13.1-3.6-26.3-5.2-39.5
		c-0.7-5.3-1.5-10.6-7.8-12.4c-7-2-13.1,0.3-18.7,4.3c-2.1,1.5-3.8,3.8-5,6.1c-5.8,11-15.1,18.3-24.5,25.8
		c-11,8.8-22.6,14-36.8,10.3c-16.3-4.2-31.8,0.5-47.3,3.8c-15.8,3.4-31,6.4-47.2,0.9c-5.7-1.9-13.3-0.6-19.4,1.3
		c-10.1,3.2-19.7,8-29.6,12.1c-16.1,6.8-31.2,14.5-41,30.3c-6.2,9.9-16.1,13.4-27.7,12.1c-10.6-1.2-21.2-2-31.8-3.4
		c-8-1-13.9-8.2-13.6-17c0.7-23.9,1.9-47.9,2.5-71.8c0.2-8-0.1-16-1.1-23.9c-0.4-3.7-2.8-7.2-4.3-10.9c-14.1-1.5-26.7,3.8-39.4,7
		c-20.6,5.3-40.7,12.3-61.2,17.9c-6.3,1.7-13.1,1.6-19.7,1.9c-27.9,1.3-55.9,0.6-83.4,7.2c-7.6,1.8-16.5,2.8-23.8,0.6
		c-21.7-6.4-42.6-1.3-63.2,3.1c-22,4.7-44.5,8.3-65.6,17c-10.2,4.2-19.2,9.3-22.9,20.6c-4.7,14.5-16.3,17.8-28.7,14.9
		c-23.7-5.6-47.9-1.6-71.6-5.3c-10.7-1.7-20.9,1.9-31.2,5.1c-64.8,20.2-129.8,40-194.7,59.8c-7.6,2.3-15.3,4.9-23.1,6.3
		c-5.2,0.9-10.2-0.3-13.6-5.8c-3.4-5.6-6.9-12.2-12.1-15.6c-20.1-12.8-40.2-26.1-63.3-33.3c-6-1.9-14.4,1.4-17.1,6.9
		c-1.7,3.6-2.6,7.6-4.5,11.1c-5.1,9.3-10,18.9-16.1,27.5c-12,16.8-27.8,28.6-49,31.5c-18.6,2.5-36.2,8.5-53.5,15.8
		c-18.5,7.8-36,16.6-50.7,31.1c-16.4,16.1-36,27.2-60.1,28.5c-7.9,0.4-15.6,3.7-23.5,4.7c-5.1,0.6-11.2,1-15.5-1.1
		c-21.3-10.8-44.6-4.1-66.6-8.3c-3.5-0.7-7.7,1.5-11.3,3.1c-14.4,6.5-25.8,19-42.6,21.2c-3.3,0.4-6.9,4.1-9.1,7.2
		c-9,12.5-22.8,18.1-35.4,25.4c-11,6.3-16.9,4.4-21.9-7.3c-13.1-30.6-26.1-61.3-38.9-92c-72.3-173.3-144.4-346.7-216.8-520
		c-22.6-54.1-45.8-107.8-68.5-161.8c-4.1-9.7-7.1-20-10.4-30c-1-3,3-8.2,6.5-8.5c10.6-0.9,21.1-1.6,32.1-2.5
		c15.8-23.2,39.1-40.1,46-66.2c12.5-1.6,18.5,4.2,25.1,8.2c56.8,34.9,113.4,69.9,170.1,104.9c18.1,11.2,36.2,22.5,54.4,33.6
		c4.5,2.8,9.2,5.4,14.1,7.4c6.5,2.6,13.8,2.7,19.1-1.5c16.8-13.1,33.1-26.8,49.3-40.6c2.8-2.4,4.6-6.6,5.9-10.2
		c1.8-5,3.5-10.2,4.1-15.4c3.2-28.1,11-54.7,24.7-79.6c5-9,3.2-17.7-1.9-26.4c-8.6-14.4-19.4-25.3-37-27.5
		c-3.9-0.5-7.6-2.5-11.6-3.1c-21.7-3.2-36.4-16.9-46.9-34.3c-14.5-23.9-26.8-49.1-39.9-73.8c-1.2-2.2-1.1-5.1-1.8-8.5
		c1.6-2.9,2.8-7,5.4-9.6c9.5-9.6,7.2-19.1,0.6-28.9c-6-8.8-11.8-17.8-17.7-26.7c-14-21.1-28.2-42.1-42.1-63.3
		c-7.5-11.5-6.4-17.8,4.5-27.7c41.4-37.6,82.7-75.3,124.2-112.7c56.3-50.8,112.8-101.5,169.3-152.3c10.9-9.8,21.9-19.4,33-29
		c5.5-4.7,14.8-2,15.5,4.9c2.5,27.1,16,50.5,24.7,75.6c5,14.4,12.9,26.1,25.3,34.9c4.3,3,8.1,6.7,12,10.3c2.8,2.6,3,12,0.3,15
		c-3.6,3.9-7.2,7.8-11.1,11.4c-5.8,5.5-12.1,10.4-17.7,16.1c-8.7,8.8-8.4,20.2,1.2,27.9c22,17.4,41.6,37.4,61.1,57.5
		c9.2,9.5,17.5,20.1,25.7,30.5c4.2,5.4,4.8,11.7,4.1,18.8c-1.1,10,1.3,13.2,9,14.2c17.1,2.3,34.3,4.6,51.5,5.9
		c38.5,2.8,77,4.7,115.5,7.2c65.1,4.2,130.1,8.6,195.1,13c8,0.5,15.9,1.9,23.8,2.2c16.7,0.7,27.7,7.8,30.5,25.2
		c0.4,2.5,2.2,4.8,3.6,7.1c5,8.6,18.5,13.8,28,10.3c7.4-2.8,15.1-5.6,21.7-10c13.9-9.3,29.3-13.6,45.4-13.4
		c22.4,0.3,41.6-7.2,59.8-19.2c13.3-8.8,26.8-17.4,40.4-25.8c3.3-2,7.3-3,11.1-3.9c5.9-1.4,13.8,2.8,16.6,8.3
		c6.2,11.7,9.7,24.8,18.2,35.4c7.1,8.7,14.5,15.3,26.8,13.8c10.5-1.3,21.1-1.5,31.1-2.2c14.6-13.8,23-30.6,33.7-45.8
		c6.2-8.7,11.4-18,17.3-26.8c7.6-11.1,18.7-14.4,31.5-12.9c5.2,0.6,10.7,1.6,15.5,3.8c14.6,6.6,29.2,12.5,45.5,13.9
		c5.2,0.5,10.8,2.2,15,5c13.6,9,26.6,9.2,41.4,2.3c10.7-5,22.8-6.9,34.4-10c15.6-4.1,29.9-10.3,42.7-20.7
		c10.2-8.4,22-14.8,33.1-22.1c6.6-4.4,13.2-8.9,19.8-13.4c6.9-4.7,10.8-11.3,13.2-19.3c3.5-11.4,0.6-24.5,7.9-34.8
		c6.1-8.6,13.6-16.3,19.8-24.9c5.5-7.6,10.4-15.6,18.7-20.5c9.8-5.8,13.9-15.4,18.7-25.1c7.6-15.5,15.9-30.8,25.2-45.3
		c5.1-7.9,11-14.9,10.4-25c-0.2-2.5,0.5-5.5,1.8-7.7c10.2-17.6,12.4-37.6,17.9-56.6c4.1-14.3,5.5-28.6,8.5-42.8
		c1.9-9.4,1.6-18.3-0.1-27.6c-3.9-21.1-8.9-41.6-18.9-60.8c-3.6-7.1-7.2-14.6-8.5-22.3C7954.4,8258.2,7950.5,8243,7935.2,8234.7z"/>
	<path onclick="modals(this.id);" id="2505" class="st0" d="M8823,8107.6c-6,0.3-12.7,1.2-19.2,0.9c-14.2-0.7-24.8,3.7-34.4,15.4
		c-11.7,14.3-26,26.6-40.1,38.7c-3.4,2.9-11,4.2-15,2.5c-19.4-8.4-39.2-4.8-59-3.5c-4.3,0.3-10.4,5.8-11,10.2
		c-0.8,5.2-0.7,10.5-1.4,15.8c-0.9,7.4-6.7,12.6-13.2,12.2c-12.8-0.8-25.2-7.1-38.7-1c-3.7,1.7-10.1-2.1-15.1-3.9
		c-5.2-1.9-10.3-2.5-15.4-0.2c-10.6,4.9-17.4,1.9-21.7-9.1c-2-5.2-7.8-7.7-13.2-7.7c-9.2,0-18.9-0.5-27.6,2
		c-16.6,4.8-32.9,10.2-50.3,12.1c-13.5,1.5-25.4,8-35.9,16.5c-8.3,6.7-16.1,13.9-25.3,21.9c-11.9,1.9-24.9,4.5-38.1,6.1
		c-20.8,2.5-39.7-3.8-56.9-14.7c-6.5-4.2-12.3-10.3-16.9-16.7c-13-18.1-30-29.8-51.3-35.8c-3.8-1.1-7.5-2.7-11.2-4.2
		c-23.6-9.6-47.8-16.8-73.6-15.9c-11,0.4-20.9-2.6-30.8-7c-12.2-5.4-24.6-10.1-37.2-14.3c-7.7-2.6-15.8-2.2-23.1,2.5
		c-31.4,20.4-66,34.7-99,52c-8.8,4.6-14.7,10.3-17.1,20.5c-1.8,7.6-6.2,14.6-9.4,22c-2.4,5.4-1.1,10.5,2.1,15c2.3,3.2,5.2,6,8,8.8
		c4.7,4.8,8.4,9.8,9.7,16.9c2.6,14.5,8.7,27.8,15,41c16.7,34.9,21.8,71,9.6,108.6c-2.1,6.3-3.8,12.8-4.9,19.4
		c-5.3,30.5-16.8,58.5-32.6,85c-6.8,11.4-13.8,23-18.5,35.3c-4,10.6-9.7,18.3-19,24.6c-5.3,3.6-9.2,9.5-13.3,14.7
		c-9,11.5-17.8,23.1-29.2,37.9c-0.6,5.3-2,14.4-2.8,23.6c-1,11.6-6.9,20-16.7,25.7c-18.5,10.6-36.6,21.7-53.2,35.3
		c-9.4,7.7-21,11.4-32.6,14.7c-12.8,3.6-25.5,7.3-38.2,11.4c-8,2.6-15.6,3.1-23.1-1.3c-8.2-4.8-17.2-7.3-26.6-8.1
		c-10.8-1-20.5-4.4-30.2-9.4c-6.8-3.5-15.2-5.4-22.9-5.6c-41.7-0.7-37.1-2.2-58.5,29.4c-10.5,15.4-20.2,31.3-30.6,46.9
		c-4.7,7-11.3,10.5-20.1,11c-14.9,0.8-26-4.6-32.8-17.9c-4.8-9.5-8.9-19.3-13.5-28.9c-6.6-14-22.8-19.1-36.9-11.7
		c-4.7,2.5-9.1,5.5-13.6,8.4c-13.5,8.6-26.8,17.4-40.5,25.7c-17.4,10.5-35.8,17.6-56.8,15.7c-12.4-1.1-23.5,2.8-34.3,8.8
		c-8.1,4.5-16.8,8-25.4,11.8c-6.1,2.7-14.4,0-16.1-7.1c-7-29.3-27.4-34.6-54.2-35.5c-55.8-1.9-111.7-5.3-167.3-10.5
		c-59.6-5.5-119.5-7.7-179.1-13c-6.5-0.6-13-2-18.7-3c-12.1-29.4-17.1-37.7-39.1-60.4c-11.1-11.5-23.1-22.1-34.7-33.1
		c-8.7-8.3-17.3-16.5-25.9-24.9c-2-2-2.3-9.2-0.2-11.2c5.7-5.5,11.1-11.6,17.5-16.2c9.7-7.1,13.1-16.3,12.2-27.7
		c-0.4-5.3-1.1-10.5-1.6-15.7c-3.4-3-6-6.2-9.3-8.1c-14.8-8.2-23.9-20.7-29.4-36.4c-8.3-23.8-20.1-46.4-22.3-72.1
		c-0.4-5.1-3.1-10.1-4.6-14.4c0.7-8,5.7-12.7,10.6-17.1c58.1-52.9,116.3-105.7,174.5-158.5c47.3-43,95-85.5,141.9-129
		c34.8-32.3,74.5-55.7,118.8-71.8c13.8-5,27.8-9.2,41.6-14.1c6.3-2.2,12.4-4.9,18.4-7.8c10.4-5,12.3-18,4-26.8
		c-4.6-4.8-9.3-9.6-14.6-13.5c-5.3-4-11.1-7.4-17.2-10.2c-13.1-6.1-20-16.9-23.9-30.2c-1.5-5.1-2.4-10.5-4.7-15.2
		c-2.8-5.9-5.8-12.1-10.3-16.7c-14-14.2-28.7-27.8-43.3-41.5c-11.7-10.9-23.7-21.4-32.9-34.8c-13.5-19.7-19.3-40.5-11.5-64.2
		c6.3-18.9,11.6-38.2,17.1-57.4c4.8-16.8,15.1-27.2,32.4-31.8c19.3-5.1,38-12.3,55.7-21.8c6.2-3.4,9.9-8.5,12.6-14.8
		c5-11.4,5.2-23.2,3.4-35.3c-2.1-14.6-6.7-28.5-13-41.8c-2.3-4.8-3.7-10-5.4-15c-1.9-5.7,0-10.9,3.8-14.6
		c12.5-11.9,25.5-23.3,38.4-35c15.8-14.3,31.9-28.3,47.3-43c14.1-13.4,14.7-26.5,2-42.2c-7.5-9.3-15.5-18.3-24.4-26.2
		c-24-21.4-44.7-45.5-62.2-72.6c-10.8-16.7-22.6-33.2-36.1-47.7c-21.1-22.6-30.3-49.6-34.6-79.1c-0.7-4.8,3-11.5,7.2-13
		c3.8-1.3,7.8-2,11.4-3.7c31.1-14.2,57-2.6,81.2,16.4c5.2,4.1,9,9.8,14.1,14.1c11.4,9.5,28.3,10.9,41.2,3.4
		c22-12.8,41.6-28.9,59-47.4c8.2-8.7,16.4-17,28.7-20.7c7.8-2.4,13.5-8.6,13-18.1c-0.5-8.8,3.5-15.4,9.6-21
		c10.8-9.9,21.8-19.6,32.5-29.6c7.8-7.2,15.4-14.6,22.7-22.3c6.4-6.8,11.8-14.5,13.3-24.1c0.4-2.6,1.2-5.2,2.2-7.7
		c5.1-12.3,13.7-47.8,14.4-60.1c0.1-1.3,0.1-2.7,0.4-4c8.5-28.7,5.3-58.1,5-87.3c-0.1-6.3,1.8-13.3,4.6-19
		c23.1-46.5,46.7-92.8,70.2-139.2c3-5.9,6.3-11.6,8.8-16c37.6-18.2,74.8-32.3,112.3-46c2.5-0.9,4.9-2.1,7.4-3
		c44.5-16.4,44.6-16.4,87.8,0.4c21.1,8.2,41.8,17.8,63.4,24.4c19.8,6.1,35.6,17.8,51.6,29.6c4.2,3.1,8,7.2,7.9,13.1
		c-0.1,7.3,3.3,12.8,8.8,17c15.3,11.8,25.2,26.7,30.7,45.5c2.5,8.5,9.7,15.7,14.8,23.4c8.1,12.2,16.4,24.2,24.3,36.5
		c10.1,15.7,18.8,32.3,29.9,47.2c14,18.7,22.4,39.3,25,62.2c3.6,31.9,10.8,62.9,21.2,93c-5.4,19.8-11.4,38.8-21.2,56.4
		c-4.6,8.4-5.8,17.5-3.1,27c4,14.1,7.2,28.4,11.6,42.3c1.6,5,6.3,8.5,11.8,9.8c2.6,0.6,5.3,1,7.9,1.1c38.6,1.7,77.2,3.5,115.7,5.1
		c9.3,0.4,18.7-0.3,28-0.3c8.5-0.1,15.3-3.1,20.5-10.1c9-12.2,22.1-13.8,35.9-12.6c5.3,0.4,10.5,1.8,15.7,2.8
		c19.2,3.7,37.3-0.2,54.2-8.8c15.4-7.9,30.2-16.9,45.1-25.6c12.5-7.3,19.4-18.4,18.1-33c-0.7-7.8,3.3-11.8,8-16.8
		c3.4-3.6,4.7-9.1,6.9-13.8c12.2-0.2,17-11.1,25-17.3c4-3.1,12,0.4,12.7,5.2c1.8,12,2.4,23.8-3.3,35.2c-1.7,3.5-2.5,7.4-3.5,11.2
		c-1.1,4.1,5.6,10.3,9.9,10.3c9.6,0,15.8-9.8,26.2-8c10.2,1.8,16.5-7.3,24.9-10.6c3-1.2,5.8-0.1,6.5,2.8c2,7.6,3.4,15.4,5.4,23.1
		c1.1,4.1,9.5,7.9,13.4,6.1c7.1-3.4,14.2-7,20.9-11.1c4.5-2.7,8.4-6.5,12.7-9.5c0.9-0.6,3-0.6,3.8,0c1.8,1.4,4.6,3.6,4.4,5.1
		c-0.9,6.6-5.1,13.6-3.7,19.4c4.5,18.6-1.7,33.7-11.8,48.5c-3,4.3-5.1,9.5-6.2,14.7c-1,5-1.6,10.9,0.1,15.5
		c3.2,8.7,7.8,16.9,12.6,24.9c4.2,6.9,6.6,14.3,9.5,21.7c10.2,25.6,12.7,51.5,5.1,77.9c-4.4,15.2,1.6,28.8,3.9,43
		c0.3,1.7-2.4,5.3-4.3,5.7c-3.8,0.8-7.9,0.2-11.8-0.2c-19.9-2-39.7-4.7-59.6-6c-11-0.7-20.6-3.1-30.1-9c-7.7-4.9-16.6-8.5-25.4-11
		c-4.6-1.3-10.5,0.6-15.3,2.3c-6.9,2.4-10.2,8.6-10.5,15.6c-0.4,11.1,3.4,20.9,11.3,28.9c15.8,16.2,31.5,32.6,47.5,48.5
		c6.1,6.1,8.9,12.9,9.2,21.3c0.9,26.5,3.3,53,3.5,79.5c0.2,27.4,11.7,49.3,27.5,68.8c12.8,15.7,23.1,32.4,32.2,50.2
		c2.4,4.7,4.6,9.6,6.5,14.5c8.8,22.2,17.5,44.5,26.4,66.6c2,5.1,6,8.7,11,11.1c2.4,1.1,4.8,2.7,7.4,3c30.3,3.9,45.6,25.3,57.4,50
		c6.9,14.4,11.9,29.6,18.1,44.3c4.2,9.9,10.3,18.4,19,25.2c7.3,5.7,14.1,12.3,20.3,19.2c5.3,5.9,11.6,12.2,13.6,19.4
		c4.6,16.3,14.3,24.6,30.6,26.9c3.7,0.5,7.4,3.3,10.3,5.9c11.8,11.1,25.8,18.8,39.9,26.3c13.4,7.2,23.7,16.7,29.1,31.4
		c4.6,12.7,12.9,22.7,23.3,31.8c15.1,13.1,29.4,26.9,47.2,36.5c4.7,2.5,4.7,9.5,0.4,13.2C8833.9,8098.6,8828.8,8102.7,8823,8107.6z"
		/>
	<path onclick="modals(this.id);" id="2495" class="st0" d="M6114,2932.5c-4.2-4-9.5-9.8-15.5-14.7c-10.5-8.7-22.4-14-36.6-13.8c-13.3,0.3-26.7-0.1-40,0
		c-26.5,0.2-52.8,2.5-79.5-1.2c-19.4-2.7-39.8,0.7-59.8,2.1c-30.5,2.2-61,5-91.5,7.7c-11.9,1-23.8,2.4-35.7,3.3
		c-6.1,0.5-12.8-6.5-12.2-12.9c0.8-9.2,2.3-18.4,3.2-27.7c6.3-63.6,12.5-127.2,18.8-190.8c2.6-26.5,3.8-53.2,10.9-79.1
		c2.7-10-0.1-18.5-5.3-26.5c-5.8-8.9-12.1-17.6-18.3-26.2c-8.9-12.4-12.3-26.4-11.7-41.5c0.7-16,1.3-31.9,1.9-47.9
		c0.4-12.2-2.1-23.8-8.4-34.5c-13.8-23.2-22.3-48.3-25.9-75.1c-2.2-16.3-9-30.3-18-43.9c-29.4-44.4-58.3-89.3-87.5-133.9
		c-46.1-70.2-92.3-140.3-138.3-210.5c-3.6-5.5-6.6-11.5-9.8-17.3c-1.4-2.6,0.9-9.3,3.7-10.4c7.4-2.8,14.9-5.5,22.5-7.8
		c4.3-1.3,10.9,2.7,12.8,7.4c1,2.4,1.6,5,2.4,7.5c11,32.6,34.6,49.2,67.9,53.7c16.3,2.2,35.5-8.7,42-24.3c2.5-6.1,4.3-12.6,5.8-19.1
		c3.7-16,11.8-29.4,22.4-41.8c10.4-12.1,19.8-25,30.4-38.6c9.8-5.3,21.8-5.6,33.8-6.2c8.2-0.4,15.2-3.5,22.4-7.4
		c12.8-6.9,26-13.8,39.8-18.2c14.4-4.5,26.5-12.1,38.2-21c13.6-10.4,20.7-24,20.8-41.2c0-4-0.1-8,0.5-12c1.6-11,0-21.1-6.3-30.5
		c-3.7-5.5-6.9-11.5-9.6-17.5c-7.9-17.5-11.4-35.4-3.7-54.1c2-4.8,3.4-10.5,2.8-15.5c-2.8-21.5,0-42.6,2.7-63.7
		c0.2-1.3,0.2-2.7,0.2-4c0-6.9-1.2-13.3-8.1-16.8c-5.6-2.9-13.4-1.3-18.1,4c-5.3,5.9-9.9,12.6-15.5,18.2
		c-10.2,10.2-22.7,13.3-36.8,10.4c-12-2.5-22.5-7.8-31.9-15.8c-6.1-5.2-12.3-10.2-18.7-14.9c-6.1-4.4-16.6-4.2-22.6,0.2
		c-4.3,3.1-8.6,6.3-12.2,10.2c-6.6,7.1-13.7,11.7-23.8,13.1c-19,2.7-35,12.1-49.3,26.2c-6.6-0.3-13.3,0-19.7-1.2
		c-16.2-2.8-31.6-2.6-46.5,5.9c-4.2,2.4-10.4,2.3-15.4,1.7c-7.8-1.1-15.4-3.7-24-5.9c-3.7-8.6-8-16.9-10.8-25.6
		c-26.9-82.3-53.9-164.6-80.2-247.1c-30.5-95.1-60.4-190.5-90.5-285.7c-7.2-22.9-14.6-45.7-21.7-68.6c-1.9-6.3-3.1-12.8-4.7-19.6
		c4.4-2.2,7.6-4.7,11.3-5.5c23.5-4.8,47-9.6,70.6-13.5c4.8-0.8,10.4,1.4,15.3,3.1c5.2,1.7,9.5,5.5,10.8,10.9
		c3.5,14.2,6.5,28.5,9.6,42.9c1.7,7.8,2.2,16,4.8,23.4c5.3,15,9.7,30.9,20.5,43c10.3,11.5,26.4,11.9,39.9,17.2
		c29.1,11.3,60,11.7,90.5,12.3c10.3,0.2,21-3.4,31-6.7c11.7-3.9,23.4-5,35.5-3.4c10.5,1.4,21.1,3.2,31.5,5.4
		c18.3,3.8,36.5,7.8,54.6,12.2c27.2,6.7,54.3,13.3,82.5,14.2c13.7,0.4,24.5,13.5,23.9,27.1c-0.3,6.6-1.6,13.2-2.1,19.8
		c-0.9,14.8,0.1,29,7.8,42.5c6.6,11.6,9,24.9,9.8,38.4c0.6,9.3,1.6,18.6,3.2,27.8c4,23,12.4,43.6,32.8,57.2c2,1.4,3.2,4,5.6,7.2
		c-2.3,11.9-5.7,24.7-7.2,37.7c-1.3,11.9,0.1,24-0.7,36c-0.8,11.9-2.5,23.8-4.6,35.6c-3.2,18.1,0.8,34.4,11.2,49.2
		c6.9,9.8,13.9,19.6,21.6,28.8c18.9,22.3,43.3,35.6,72.2,38.7c21,2.2,42,7.6,63.5,3.3c4.9-1,10.4,3.9,11.4,8.9
		c5.8,27.5,10.1,55,1,82.8c-6.2,19-2.7,36.6,8.4,53.3c8.8,13.3,15.5,27.8,18.6,43.8c2.2,11,9.6,18.8,19.9,23.6
		c3.6,1.7,7.2,3.5,11,4.7c24,7.6,40.9,24.1,55.8,43.5c8.8,11.6,16.7,24.1,29.4,32.4c16.1,10.3,28.3,23.8,34.1,42.7
		c1.5,4.9,5.8,8.9,8.8,13.3c20.8,29.8,11,24,43.6,38.3c10.7,4.7,16.8,12.2,20.3,23c4.9,14.7,10.4,49.9,8.4,66.7
		c-1.5,12.1-0.4,23.8,1.1,35.7c2.5,19.9,9.3,35.8,31,41.5c3.1,0.8,5.6,5.4,7.6,8.7c1.3,2.1,1.2,5.2,1.3,7.8
		c1,23.5,16.1,35.8,35.8,43.3c11.1,4.2,23.1,6.6,34.9,8.1c15.5,2,27.7,9.2,37.5,20.8c6.9,8.1,13.4,16.6,19.6,25.2
		c18.8,25.9,37.1,52.2,62.2,72.7c5.8,4.7,6.1,11.4,5.3,18.3c-0.3,2.6-0.6,5.4-1.6,7.8c-6.5,16.3-4.4,30.8,6.3,45
		c8.9,11.7,14.6,25.6,18.3,39.8c3.7,14.2,5.2,29,17.1,39.5c13.3,39.2,33.4,75.5,48.1,114c4.2,11.1,6.1,23.1,8.2,34.9
		c4.6,26.2,8.5,52.6,13.2,78.7c1.5,8.1,1.7,15.8-0.2,23.7c-1.3,5.2-2.4,10.4-3.6,15.6c-2,9.1-5.3,18.1-5.5,27.2
		c-0.1,7.6,3.6,15.2,5.3,21.7c-1.6,2.6-2.1,4-3.1,4.8c-27.9,23.9-35.7,54.9-31.4,90c0.5,3.9,0.6,8.3,2.2,11.7
		c7.7,15.8,12.2,32.2,12.4,49.9c0,3.8,2,7.7,3.7,11.3c2.9,5.8,9.6,11.4,5.7,17.8c-3.2,5.2-10,8.2-15.3,12.2
		c-3.2,2.4-6.5,4.6-9.5,7.2c-7.8,6.9-9.2,21.1-2.7,29.1c4.2,5.1,8.9,9.9,13.4,14.8c4.5,4.9,9,9.8,14.1,15.3
		c2.3,16.5,0.9,34.1,9.5,50c2.9,5.3,2,13,1.7,19.5c-0.3,6.6-3,13.1-3,19.7c0,16.2-7.5,27.9-19.8,37.3c-6.3,4.9-12.4,10.2-19.3,14.3
		c-21.7,13-30.9,33.5-31.3,57c-0.7,35.7-9.6,38.5,22.5,81.7c2.4,3.2,4.7,6.5,6.5,10c3.3,6.3,3.2,13.1,0,19.2
		c-3,5.8-7.1,11.1-11,16.5c-3.1,4.3-7,8-9.7,12.5c-6.6,11-8.1,21.7-0.8,33.8c12.4,20.7,26.1,40.2,43.4,57.1
		c5.2,5.1,6.2,11.8,4.3,18.5c-3,10.2-6.2,20.4-9.9,30.4c-3.2,8.4-1.2,16,2.9,22.9c4,6.8,8.9,13.2,14.5,18.9c6.4,6.5,8.7,13,4.4,21.4
		c-1.2,2.3-1.6,5-2.2,7.6c-2.1,10.1,9.3,16.3,7.9,26c-1.1,7.9-4.1,15.7-1.3,23.6c1.2,3.6,3.8,7,6.6,9.6c6.8,6.3,14.6,11.7,21.2,18.2
		c6.9,6.9,9.7,15,6,25.4c-3.5,10-5.1,20.7-6.8,31.2c-1.8,11,0.7,21.2,8.1,29.9c7.8,9.1,15.7,18.1,23.4,27.3c3.4,4,6.6,8.1,8.8,10.8
		c0.9,10.4-2.9,17.6-5.9,24.9c-11.2,27.5-17.5,55.8-16.8,85.6c0.1,6.6-1.6,13.4-0.9,19.9c1.7,16.5-2,31.4-9.4,46.2
		c-6.2,12.5-2.7,23.1,7.2,32.3c9,8.4,19.9,13.3,30.7,18.4c12.4,5.9,22.8,13.1,27.3,27.2c2.1,6.5,8.2,10.3,15.5,10.6
		c9.2,0.4,18.4,0.6,26.8,0.9c6.2,5.6,2.4,10.7,0.5,14.9c-4.7,10.1-5.6,20.4-4.1,31.2c1.1,8.1,6.8,14.9,14.8,16.7
		c6.4,1.5,12.9,2.4,18.9,3.5c9.5,17.6,19.2,33.5,27,50.4c8.5,18.4,20.2,34.3,33.6,49.3c6.2,6.9,12.2,14.1,17.7,21.6
		c5.8,7.9,7.2,16.9,5.8,26.6c-0.5,3.1-1.5,5.1-4.6,5.8c-1.3,0.3-2.5,1.3-3.7,1.2c-20.7-2.5-39.3,2.1-57,13.4
		c-7.6,4.9-17.3,6.8-26.3,9.1c-5,1.3-10.6,1.4-15.7,0.6c-11.8-1.7-23.6-3.9-35.3-6.7c-7.7-1.8-15.2-4.6-22.4-7.9
		c-8.4-3.9-16.3-8.8-22.6-12.2c-15.5,1.1-28.8,2.9-42,2.9c-16.9,0-28.5,7.3-33.2,23.1c-2.9,9.6-8.5,12.6-17.2,12.8
		c-6.6,0.1-13.3-0.6-19.9-0.1c-10.9,0.8-21.2,3.6-28,13.1c-5,7-11.6,10.6-20.2,11c-8.5,0.5-15.3,4.6-20.1,11.4
		c-8.6,12.3-18.8,22.2-33.5,27.1c-4.7,1.6-9.2,5.4-12.6,9.3c-11.8,13.5-27.3,16.1-43.7,14.4c-18.5-1.9-36.9-4.9-55.2-8.5
		c-7.7-1.5-15.1-5.2-22.1-8.9c-13.1-7-26.8-11.8-41.7-12.9c-2.7-0.2-5.5,0-7.9-0.9c-22.4-8.5-45.7-13.6-69.1-18.7
		c-0.7-0.1-1.4-1.8-1.4-2.8c0-1.2,0.3-3.1,1.2-3.6c3.3-2,6.8-4.8,10.4-5.1c6.9-0.7,12.6-3,18.1-7.1c13.5-10.1,13.9-15.2,0.8-27.6
		c-4.8-4.6-4.9-8.1-0.2-12.9c3.7-3.7,7.7-7.2,11.2-11.1c2.4-2.6,2.5-9.8,0.3-10.9c-2.3-1.2-5-2.7-7.2-2.4c-7.9,1-15.7,3.1-23.5,4.2
		c-8.2,1.2-15.9,0.1-21.7-6.9c-2.6-3.1-5.3-6.2-8.6-8.3c-3.3-2.1-7.4-4.4-11-4.1c-19.8,1.6-39.7,3.6-59.4,6.4
		c-6.9,1-14.4,2.6-18.5-3.1c-9.3-13.1-23.2-16.4-37-21.6c-10.5-3.9-20-5.5-30.9-3.3c-10.4,2.1-21.2,1.9-31.8,3.1
		c-3.9,0.4-7.9,1.5-11.3,3.2c-2,1-4.7,4.4-4.2,6c3.6,12.5,3.2,26.4,12.2,37.1c11.2,13.4,13,28.6,9,45.1c-0.9,3.9-5,5.1-9.6,2.2
		c-2.2-1.4-3.8-3.8-6-5.1c-5-3.1-10.2-1.4-12.9,4.3c-2.1,4.6-3.7,9.4-6.6,17c-4.2-8.6-7.4-14.4-9.9-20.4
		c-4.1-9.8-7.4-19.8-11.7-29.5c-0.7-1.6-4.6-2.6-6.9-2.5c-2.3,0.1-5.3,1.4-6.7,3.2c-2.3,3.1-4.4,6.9-5.1,10.6
		c-1.6,9.2-2.2,18.5-3.5,27.7c-1.5,10.9-8.2,15.3-20,13.4c-3.8-0.6-7.4-5.3-6.2-8.6c2.7-7.5,6-14.7,8.4-22.3
		c2.4-7.5-4.6-14.4-13.7-13.7c-12.3,0.9-14.8-0.7-13.4-12.2c1-8.4,1.5-16.5-5.3-22.1c-8.8-7.2-11.1-18-17.4-26.5
		c-6.7-9-4.4-17.2,2.6-25.1c3.5-3.9,6.3-8.5,9.1-13c2.1-3.4,0.6-12-3-14.6c-3-2.1-7-3.8-10.6-3.9c-3.8-0.2-8,1-11.5,2.7
		c-23.9,11.6-48.9,21.5-68.1,41.1c-6.1,6.2-13.7,7.6-22.1,5.6c-2.6-0.6-5.3-1-7.8-1.8c-9.5-2.9-18.4-1.6-27,2.9
		c-7.1,3.6-14.1,7.6-21.5,10.5c-17.3,6.6-33.7,1.6-46.9-12.4c-12.5-13.2-19.3-28.7-20.8-46.5c-1.1-13.3-1-26.6-1.1-39.9
		c-0.3-24.7,10.7-43.6,30.9-57.1c13.3-8.9,27-17.2,40.5-25.7c8.3-5.3,13.1-13,15.7-22.3c6.4-23.2,10.1-46.8,11-70.9
		c0.3-8,0.4-16,2-23.8c0.7-3.2,4.5-6.8,7.8-8c6.1-2.3,12.8-3.3,19.4-4.3c17.1-2.7,34.1-5.8,50.5-11.8c12.6-4.6,25.8-6.8,39.2-1.8
		c3.7,1.4,7.8,1.8,11.8,2.1c13.9,1.1,26-2.6,36.6-12.4c19.5-18.1,39.6-35.6,59.3-53.5c12.7-11.6,26.6-17.5,43.7-10.4
		c1.2,0.5,2.6,0.5,3.9,0.7c7.8,1,16.9-5.4,17.5-12.7c0.6-8,1.5-16,0.7-23.9c-8.6-84.8-14.1-169.8-20.9-254.7
		c-1.1-13.9-5.6-25.4-15-35.9c-47.2-52.5-94-105.3-140.8-158.2c-22-24.9-43.6-50.3-65.2-75.6c-2.4-2.8-1.3-8.4,1.6-10.7
		c3.1-2.5,6.1-5.1,9.4-7.4c28.6-19.5,57.3-39,86-58.4c33.1-22.4,66.2-44.9,99.4-67.1c8.8-5.9,17.9-11.6,27.3-16.5
		c11.2-5.8,23.2-6,35-1.9c8.8,3.1,17,7.7,25.8,10.9c23,8.4,45.3,2.3,61.7-15.4c12.8-13.8,22.1-30,31.5-46.1
		c9.1-15.6,11.8-32.4,9.2-50.1c-2.2-14.5-4.6-28.9-6.5-43.4c-0.9-6.9,1.3-13.1,5.9-18.4c5.3-6,10.7-11.8,15.5-18.2
		c5.4-7.1-0.2-20.7-9.2-22.2c-11.8-2-23.6-3.7-35.5-4.7c-3.6-0.3-7.6,1.9-11.2,3.5C6125.8,2928.5,6122.5,2933.5,6114,2932.5z"/>
	<path onclick="modals(this.id);" id="2500" class="st0" d="M6927.3,5620.6c-25.2-14.3-25.2-15.1-47.9-14.5c-27.4,0.8-52.7-6.1-77-17.9
		c-10.8-5.3-21.8-9.9-32.6-15.1c-29.4-14.3-29.9-18.2-60.2-7.3c-7.9,2.8-15.7,0.2-22.7-4.4c-8.9-5.8-18.1-11.2-26.7-16.5
		c-31.4,2.2-61.9,4.9-92.4,6.4c-39.5,2-47.2,5.5-81.6-30c-3.7-3.8-7.9-7.2-12-10.5c-5.2-4.3-11.2-7.1-18.1-7.7
		c-6.6-0.6-13.2-1.9-19.9-2c-12.7-0.2-23.6-3.8-31.7-14c-4.7-5.9-11-6.8-17.9-6.6c-6.6,0.2-13.2,0.6-19.8,0.5
		c-6.8-0.2-11.3-7.6-8.8-14.5c2.2-6.2,5.7-12.1,7.1-18.5c1.1-5,0.2-10.5-0.2-15.7c-0.3-3.3-5.4-7-8.6-6.7c-2.6,0.2-5.5,0-7.8,1
		c-18,7.3-27-0.1-35.8-15.5c-1.9-3.4-3.1-7.4-4-11.2c-1.7-7.5-7.5-10.8-13.8-13c-15.5-5.4-31.5-4-47.4-2.1
		c-6.6,0.8-14.7,9.4-15.4,16.6c-0.7,7.9-0.8,15.9-1.2,23.9c-0.7,13.3-1.2,26.6-2.2,39.9c-0.3,3.5-0.1,7.4-4.8,9.5
		c-2.9,1.3-6.5-0.7-7.9-6.7c-4.2-18-13.1-34.8-13.5-53.8c0-2.6-5-5.9-8.4-7.3c-4.8-2-11.7,0.8-14.3,4.4c-4.8,6.7-7.6,14.1-8.1,22.2
		c-0.2,4-0.1,8,0.5,11.9c2,13.1,3.6,25.9,9.2,38.6c4.5,10.3,0.4,22.9,6.6,34.5c5.4,10.1,6.4,22.8,8.4,34.5c0.8,5,0.6,11.2-1.6,15.6
		c-9.4,18.5-7.1,35.9,2,53.6c1.8,3.5,2.2,7.7,3.1,11.5c0.9,3.9-3.8,12.2-7.5,12.7c-26.4,3.5-52.6,8.4-79.4,6.1
		c-12-1-23.5-4-35.3-9.9c-2.1-5.6-4.3-11.8-7-17.9c-2.3-5.1-6.4-8.5-12.2-8.8c-5.3-0.3-10.6,0.2-15.9-0.1c-5.4-0.3-10.3-1.7-14.3-6
		c-3.6-3.9-7.6-7.5-11.9-10.5c-9.3-6.5-19.2-8.8-30.1-3.6c-2.1,1-5.2,0.1-8,0.1c-9.5-10.8-15.9-23.7-20.5-37.6
		c-2.1-6.4-9.5-9-16.4-6.1c-8.6,3.6-17,7.8-25.7,11c-1.7,0.6-4.9-1.4-6.6-3c-1.8-1.8-4.1-5-3.5-6.8c2.4-7.5,6.5-14.6,8.5-22.2
		c1.3-4.8,1.2-10.9-0.7-15.5c-3-7.3-7.3-14.3-12.2-20.5c-7.7-9.8-17.3-16.7-30.8-14.9c-11.5,1.6-20.2-4.8-29.8-9.5
		c-6.9-3.4-16.4-2.8-21.9-7.3c-8-6.6-13.5-16.3-19.9-24.7c-2.4-3.2-4.3-6.8-6.8-9.8c-8.5-10.1-10.6-20.1-4.4-32.9
		c14.1-29.3,17.6-61.1,19.4-93.3c1-18.1-2.5-34.7-14.3-48.5c-11.3-13.2-14.3-27.7-12.3-44.6c1.9-15.8,2.2-31.9,2.8-47.8
		c0.4-9.3,0.6-18.7-0.1-28c-0.8-10.7-3.3-20.9-10.8-29.5c-3.4-3.9-6.7-8.8-7.6-13.8c-5.1-29-15.6-56.2-26.5-83.3
		c-0.5-1.2-0.5-2.6-1.1-5.5c5.2-10.8,11-22.7,16.6-34.7c4.1-9,1.3-18.4-7.4-24.4c-8.7-6-19.2-10.3-26-18
		c-5.8-6.6-7.4-16.8-11.1-25.3c-1-2.4-2.5-4.9-4.4-6.7c-21-19.4-30.2-46.7-46.2-69.4c-0.7-1-0.5-2.6-0.7-3.9c1.3-2.3,2.5-4.7,3.8-7
		c6.3-11.9,19.9-17.7,25.2-30.6c10.2-24.6,25.3-46.9,32.4-73c2.1-7.7,5.1-15.1,7.5-22.8c6-19.2,13.2-37.6,27.8-52.4
		c6.6-6.7,9.9-15.5,11.8-25c5.6-27.8,19.4-52.3,30.9-77.8c4.5-9.9,11.9-17.5,19.2-25.4c10.8-11.7,21.8-23.4,31.5-36.1
		c17.7-23.2,20.7-49.7,8.2-75.3c-9.9-20.4-13.2-40.2-8.2-61.7c3.4-14.5,4-28.7,0.6-43.5c-1.7-7.5-2-15.9,2.9-23
		c0.6-0.9,3-1.9,3.5-1.5c9.2,7.2,18.3,14.7,20.5,27.1c0.9,5.2,0.8,10.6,1.1,15.9c0.5,7.2,4.3,12.3,10.1,16.3
		c6.8,4.7,6.5,10.5,3.2,17.2c-2.3,4.7-3.9,9.8-5.5,14.8c-0.9,2.9,2.9,8.7,5.6,9.3c14.5,3.1,29.1,2.9,43.5,0c3.1-0.6,6.5-4.7,7.8-8
		c2.4-6.1,3.2-12.8,5-19.1c0.8-2.9,3.4-3.9,6.4-2.6c1,0.4,1.8,1.6,2.3,2.6c4.2,8.9,3.5,18.1,2.2,27.4c-1.5,10.5-3.3,21-1,31.8
		c1.7,7.8,10.6,12.4,18.6,8.9c9.2-4,15.6-10.1,15.9-20.8c0.2-6.5,0-12.9,0-20.8c4.6,1.2,8.4,1.6,11.7,3.1c14.9,6.8,20.6,4,20.4-10
		c-0.2-10.6-2.3-21.9,0.4-31.7c4.8-17.1,1-31.3-8.2-45.3c-2.9-4.4-4.7-9.5-6.7-14.3c-1.9-4.6,1.6-11.8,5.9-13.3
		c10.1-3.6,20.4-6,31.2-5.3c2.7,0.2,6-0.4,7.8,1c11.8,8.6,28.2,9.9,38.1,19.8c11.6,11.5,23.3,11.9,36.5,7.9
		c10.4-3.2,20.8-3.1,31.3-4.4c19.2-2.4,34.2,2,45.1,19.9c-1,2.3-2.5,5.9-4,9.5c-3.2,7.1-2.3,10.8,3.2,12.4
		c8.9,2.5,17.8,4.8,28.2,7.6c-3.1,3.8-4.9,7.4-7.9,9.2c-6.7,4.2-14.6,6.8-20.9,11.5c-3.9,2.9-6.2,8.3-8.5,13
		c-2.9,6-0.8,11.5,4.3,13.1c1.3,0.4,2.5,1.1,3.8,1.3c15.7,2.6,31.8,3.8,47.1,7.9c15.4,4.1,29.9,10.4,46.2,12.2
		c10.2,1.1,20.3,6.1,29.8,10.7c18.2,8.9,36.7,15.4,57.4,14.5c6.5-0.3,13.3,1.2,19.6,3.3c16.5,5.5,31.5-1.1,46.8-5
		c3.6-0.9,6.7-4.2,9.7-6.7c4.1-3.4,7.3-8.6,11.9-10.4c15.7-5.9,27-16.6,36.9-29.4c5.2-6.8,12.4-9.5,20.7-10.4
		c8.2-0.9,15.6-3.9,20.4-11c5.8-8.6,14.3-11.4,24-11.8c5.3-0.2,10.7-0.4,16-0.3c17,0.5,27.8-6.3,31.1-24c1.6-8.9,8.8-13.1,17.4-13.7
		c10.6-0.7,21.3-0.4,32-0.6c8.3-0.1,15.9,1.8,22.3,7.2c7.4,6.2,16.2,8.7,25.6,10.1c11.8,1.8,23.5,5,35.3,6.8
		c20.3,3.1,39.9,1.2,58-9.5c3.4-2,7.4-3.3,10.5-5.7c14.7-11.1,30-8.8,45.4-2.4c3.5,1.5,7.5,3.7,9.4,6.7
		c20.9,32.9,46.7,61.2,77.2,85.4c5.1,4,8.9,9.8,12.8,15.1c7.2,9.9,6.5,13.9-2.9,23.9c-3.6,3.9-7.5,7.5-10.8,11.7
		c-4.6,5.9-3.6,16.5,1.8,22.1c2.7,2.9,5.8,5.5,9,7.9c5.5,4.3,10,9.6,10.5,16.4c0.9,13.4,9,21.7,18.4,29.6
		c14.3,12,28.4,24.2,42.5,36.4c6.1,5.2,12.7,9.2,20.3,12.2c7.2,2.9,13.6,8.2,19.8,13c5.8,4.4,7.7,10.4,4.9,17.6
		c-1.4,3.7-2,7.7-2.5,11.7c-0.9,7,1.1,13.2,6.2,18.1c2.9,2.8,6.1,5.2,9.3,7.6c14.3,10.8,24.5,24.7,29.4,41.8
		c4.2,14.7,12.2,26.2,23.5,36.3c12.9,11.6,24.3,24.6,34.5,38.7c11.6,16,15.9,33.3,12.1,52.7c-2.1,10.4-2.4,21.1-7.5,30.9
		c-2.4,4.6-3.6,10.1-4.2,15.3c-1.6,14.4,2.6,26.6,16,33.8c16.4,9,32.2,18.8,45.6,32c5.4,5.3,16.3,6.6,15.9,15.8
		c-0.2,6-5.5,11.7-8.5,17.6c-3.3,6.3-3.3,12.8-0.7,19.2c1.5,3.7,3.7,7.1,5.3,10.7c4.6,11.2,7,22.6,5.2,35
		c-2.5,17.7,0.8,34.4,11,49.6c3,4.4,4.6,9.6,7.3,14.2c7.6,13,11.4,26.5,9.6,41.9c-2.2,18.7,6.8,33.6,19.5,46.3
		c9.3,9.3,19.7,17.7,28.9,25.9c-0.6,9.9-4,16.6-11.4,21.3c-17.7,11.2-19.9,25.6-8.9,44.6c6.7,11.5,12.7,23.5,19.9,34.6
		c3.5,5.4,8.6,11.1,14.2,13.3c10.7,4.3,17.1,12.4,23.3,21c26.5,36.8,48.8,76.2,71.1,115.6c2,3.5,3.1,7.4,5.1,10.8
		c5.9,9.6,14.1,15.8,25.8,16.4c8,0.4,15.9,0.9,24.1,1.4c13.3,11.2,26.4,22.6,43.3,28.1c4.9,1.6,9.9,4.6,13.4,8.3
		c10.3,11.1,22.5,18.7,36.9,22.8c11.1,3.1,18.4,10.4,23,20.6c4.6,10.1,12.1,17.4,21.8,22.5c10.8,5.7,18.8,13.4,25.5,24.2
		c9.9,15.9,25.1,27.2,41.9,34.6c0.8,14.7-7.6,26.3-8.7,39.7c1,3.6,2.4,7.5,2.9,11.4c1.4,9.9,10.3,15.6,13.1,24.2
		c2.8,8.6,1.7,18.4,3.4,27.5c2.3,12.3,12.7,20.2,25.8,20.9c6.7,0.4,13.4,0.4,19.3-3.6c7.4-5,14.6-6.5,21.3,0.9
		c9.5,10.3,22.2,15,34.9,18.3c14.8,3.9,27.5,10,36.4,22.6c5.6,7.9,13.4,13,21.9,16.9c10.8,5.1,21.9,9.5,32.9,14.2
		c6.1,2.7,7.2,13.1,0.9,16.4c-13.5,7-21.3,19.9-32.5,29.1c-11.3,9.2-22.5,18.7-33.9,27.8c-3.1,2.5-6.6,4.4-10.3,6.9
		c-3.2-2.4-7.6-4.1-9.2-7.2c-11.5-21-24.6-41.4-24.8-66.6c0-2.4-2-4.8-2.9-7.3c-0.9-2.5-7.5-5.8-10.2-4.6
		c-7.2,3.2-15.7,5.2-21.2,10.4c-10.6,9.9-19.9,21-33.1,27.9c-3.2,1.7-5.7,5.7-7.1,9.2c-2.8,6.9-7.5,10.6-14.7,11.5
		c-5.3,0.6-10.6,1-15.8,2.1c-22.3,4.6-33.2,21.4-28.4,44.2c1.4,6.5,3.8,12.7,5.5,19.2c1.2,4.4-3.5,10.3-8.6,11.6
		c-11,2.8-21.1,2.1-29.5-6.6c-4.7-4.8-9.7-9.1-14.4-13.9c-6.8-6.9-14.6-11-24.5-12c-7.9-0.9-15.5-3.9-23.4-5.3
		c-30.8-5.3-58.6-17.2-82.9-37c-9.4-7.7-20-13-31.3-17.2c-5-1.9-10.1-3.4-15-5.5c-16.9-7.1-29.9-21.9-50.3-22.8
		c-18.5-0.8-36.9-4.9-55.4-7.5c-5.3-0.7-10.8-0.6-15.8-2.1c-7.6-2.3-15.5-4.7-22.2-8.7c-14.8-9-28.8-18.9-45.3-25
		c-5.5-2-9.9-8.7-13.3-14.2c-18-29.6-35.6-59.4-53-89.4c-8.7-15-17.1-29.9-31.6-40.6c-6.1-4.5-9.9-12.3-14-19.1
		c-5.2-8.5-12.1-14.8-22-15.5c-17.5-1.2-33.9-6.8-50.6-11.3c-9.1-2.4-18.4-4.3-27.6-1.6c-8.9,2.6-17.3,7.9-26.2,8.6
		c-7.4,0.6-15.1-4.6-22.9-5.4c-6.4-0.6-13.3,0.9-19.7,2.4C6956.4,5612.5,6942.4,5616.5,6927.3,5620.6z"/>
	<path onclick="modals(this.id);" id="2508" class="st0" d="M8977.6,9896.9c-25.2,54.5-31.3,63.7-59.7,82.7c-9.5,0-19.1-1.6-27.8,0.4
		c-13.7,3.2-26.2,2.5-38.9-3.1c-3.5-1.5-8-2-11.7-1.4c-5.1,0.8-12,1.7-14.5,5.1c-12.4,17.7-31.1,29-44.6,45.5
		c-10.2,12.5-18.3,25.9-24.3,41c-11,27.4-9.8,32.1,14,50.1c19.1,14.5,37.5,29.8,56,45.1c1.6,1.3,2.3,5.2,1.6,7.3
		c-0.6,1.8-3.7,3.3-5.9,3.9c-6.7,1.9-13,0.1-19.3-2.8c-10.5-4.9-20.8-3-30.8,1.8c-6.2,3-11.2,7.2-13.9,13.7
		c-3.6,8.6-7.3,17.2-10.3,26c-5.2,15.5-5.7,31.3-1.2,47.1c1.8,6.5,4.5,12.5,9.4,17.3c4.7,4.7,9,10.1,14.4,13.8
		c9.7,6.8,21.1,11.4,30,19c7.9,6.8,11.8,18.6,20.2,24.2c16.4,10.9,24,28.3,36.1,42.3c5.8,6.7,5.7,14.8,2.8,22.7
		c-6.5,17.6-15.2,34-27.6,48.3c-3.5,4-6.9,8.2-9.4,12.8c-2.6,4.9-2.2,10.4,0.5,15.3c1.9,3.5,4.1,7,6.9,9.7
		c10.2,9.6,15.2,21.4,17.2,35.1c1.3,9.2,5.8,18.2,5.6,27.2c-0.2,15.8-2.2,31.7-9.8,47c-8.8,1.7-18.2,2.5-26.8,5.7
		c-7.3,2.7-13.4,8.4-20.2,12.6c-6.9,4.4-14.6,6.5-22.7,6.8c-10.6,0.4-21.3,0.6-31.9,1.4c-22.5,1.6-40.7,11.6-54.8,29.1
		c-7.5,9.3-14.8,18.9-22,28.4c-8.8,11.7-16.7,24.3-26.4,35.1c-14.7,16.3-22.7,35.9-30.5,55.7c-2.8,7,0.4,17,7,21.2
		c6.7,4.3,13.8,7.9,20.9,11.5c15.4,7.9,30.9,15.6,46.3,23.5c4.3,2.2,5.9,10.3,3.3,14.1c-1.5,2.2-2.5,4.9-4.4,6.6
		c-12.5,11.4-19.3,25.2-19.7,42.2c-0.2,7-3.6,12.4-8.7,17.2c-9.1,8.5-13.1,19.5-15.5,31.7c-2.1,10.4-5.6,20.6-9.8,30.3
		c-4.7,11-11,20.9-21.1,28.5c-12.7,9.6-24.2,20.8-36.4,31.1c-6.9,5.8-14.5,6.1-22.2,1.7c-18.4-10.7-39.5-16.6-55.3-31.7
		c-0.9-0.9-2.2-1.6-3.4-2.1c-29.5-12.2-58.9-24.6-88.5-36.6c-8.6-3.5-17.8-5.4-26.5-8.6c-68.5-25.9-137-51.9-205.4-78.2
		c-9.9-3.8-19.2-9.2-28.4-14.4c-7.2-4.1-11.2-11.1-14.8-18.4c-2-4.1-1.5-8.3,1.2-11.1c39.6-39.9,70.9-86.5,106.2-129.8
		c3.4-4.1,7.1-8.1,9.6-12.8c6.7-12.5,3-28.1-14.2-29.7c-19.9-1.8-39.8-3.1-59.8-3.6c-17.3-0.4-34.5-1.5-52-6.8
		c0.8-3.7,0.5-8.1,2.6-10.8c12.2-15.9,24.9-31.3,37.4-46.9c6.6-8.3,13.2-16.7,19.4-25.4c2.3-3.2,3.6-7.1,5-10.7
		c2.5-6.4-2.9-18.3-9.3-20.1c-5.1-1.4-10.3-2.4-15.6-3.3c-17.2-3-33.7-7.8-48.6-17.4c-15.1-9.7-32.8-11-49.8-13.1
		c-17.2-2.1-34.3-4.2-51.2-8c-13-2.9-26.3-3.9-39.7-2.3c-6.5,0.8-13.1,0-17.3-0.1c-9.3-4.9-9.4-12.3-11.4-18.2
		c-9.3-27.8-17.4-56-27.1-83.6c-5.7-16.2-5.1-31.1,2.8-46.2c2.5-4.7,4.2-9.8,6.1-14.7c3.4-8.8,5.3-17.7,4.9-27.3
		c-0.5-10.6,0.2-21.2,0.6-31.8c0.7-20,1.7-40.1-8.8-58.4c-1.3-2.2-1.3-5.1-2-7.7c-7.6-27.3-9.7-28.9-38.4-29.2
		c-87.9-0.9-175.9-1.6-263.8-2.5c-69.3-0.7-138.8,1.3-207.8-3.2c-67.9-4.5-135.9,0.3-203.7-5.2c-1.3-0.1-2.7,0-4,0
		c-79.9-0.9-159.9-1.9-239.8-2.8c-9.3-0.1-18.7,0.4-28,0c-14.6-0.5-25.7,4.9-33.1,17.8c-3.3,5.7-7.1,11.3-11.2,16.5
		c-3.5,4.4-9,6.4-14.3,5.7c-17.2-2.1-34.3-4.7-51.4-7.3c-59.3-9-118.5-18.4-177.8-27.1c-17.1-2.5-34.4-4-51.7-4.9
		c-4.7-0.2-11.5,2-14.2,5.5c-14.3,18.6-36.6,26.2-54.4,42.3c-9.7-15.2-15.9-31.3-24.9-45.8c-3.4-5.5-7.4-11.9-12.7-14.8
		c-8.9-4.8-14.1-11.5-17.8-20.4c-19.1-45.4-38.4-90.7-57.6-136.2c-1.5-3.6-3.1-7.7-2.9-11.4c0.2-3.6,2.5-7.1,4.1-10.6
		c0.5-1.1,1.8-2,2.9-2.7c13.5-8.5,27-17.1,40.5-25.5c12.4-7.7,24.8-15.4,37.2-23c7-4.3,14.1-7.2,22.4-2.6c1.9,1.1,5.8,0.8,7.6-0.5
		c12.2-8.6,25.8-7.5,38.3-3.1c14.5,5.1,28.7,4.8,43.3,2.9c9.2-1.2,18.3-3.7,27.5-5c17.8-2.4,33.3-10.2,46-22.3
		c30.1-28.6,67.1-42.3,106.3-51.7c26.8-0.6,43.8-16.8,58.6-36.6c7.2-9.6,13.3-19.8,17.9-31c1.7-4.1,9.6-6.6,14-5
		c3.7,1.3,7.7,2.4,11.1,4.3c8.1,4.7,15.5,10.6,23.9,14.5c12.9,6.1,21.1,15.4,26.2,28.6c2.7,7.1,9.1,9.6,16.1,7.4
		c34.4-10.5,68.7-21.1,103.1-31.6c33.1-10.2,66.5-19.5,99.1-30.9c27.1-9.5,54.4-12,82.6-10.3c22.5,1.3,45.1,1.9,64.6,2.6
		c11.8-4.2,13.7-12.6,17.1-19.5c3.8-7.7,9.1-13.2,17-15.8c30.5-9.8,61.4-17.8,93.2-22c6.5-0.8,13.4-0.4,19.9,0.7
		c18.7,3.1,37.2,1.9,55.5-2.2c21-4.6,42.1-6.4,63.4-4.7c10.9,0.8,21.1-1,31.5-4c23-6.6,46.1-12.7,69.1-19c2.7-0.7,8.8,3.5,9.1,6.2
		c0.7,6.6,1.8,13.1,1.9,19.7c0.4,22.7,0.3,45.3,0.5,68c0.1,5.3,0.1,10.8,1.4,15.9c0.9,3.6,3.5,7.2,8,7.9c22.2,3.7,44.3,9,70.2,6.8
		c2.1-2.6,5.7-6.6,8.5-11c10.2-16.8,26.6-25.1,43.5-33.6c17.3-8.6,34.3-13.2,53.8-10c13.1,2.1,26.8,1.7,39.6-3
		c15.6-5.7,31.4-5.8,47.3-3.1c14.2,2.4,25.9-2,37-10.7c10.5-8.3,20.7-16.7,28.5-27.7c1.9-2.7,8.5-0.8,9.8,2.2
		c5.9,13.9,3.8,28.9,5.9,43.3c0.7,4.7,7.7,8.2,12.6,6.4c1.2-0.5,2.6-0.6,3.8-1c1.3-0.4,2.6-0.9,3.6-1.6
		c21.5-16.1,46.6-25.5,69.6-38.8c5.8-3.3,12-6.5,18.8-3.4c9.7,4.4,20.3,8.6,23.8,19.8c4.8,15.2,8.2,30.9,12.4,46.3
		c1.4,5.1,2.9,10.3,4.8,15.2c2,5.1,5.8,9.3,11.1,10.7c11.6,3,23.2,7,35,7.5c33.2,1.6,66.6,1.8,99.9,2.5c9.8,0.2,18.4-2.8,25.4-9.7
		c20.4-20.1,44.6-33.6,71.7-42c12.4-3.8,16.2-12.1,15.7-24.2c-0.4-10.6,0.4-21.2,0.8-32.8c19-16.6,37.6-32.9,61.9-42.5
		c20.9-8.3,41-19.3,54.5-38.8c1.5-2.2,3.6-4,5.4-5.9c12.1-12.9,27.4-15.8,43.3-6.7c12.7,7.2,24.3,16,39.2,19
		c8.5,1.7,13.8,10,14.1,17.8c1.1,26.9,12.7,51.7,13.9,79c8,13.7,21.5,23,31.8,36.1c31.4,9.9,64.3,15.1,96.9,21.4
		c5.4,1.1,11.3-0.7,13.1-6.5c5.7-19.4,20-22.9,37.4-21.5c6.6,0.5,13.1,0.7,19,1c2.1,3,4.8,4.9,4.9,7c1.1,16.9,7.9,30.4,21,41.5
		c5.9,5,11.2,11.9,14.1,19c9.8,24.7,26.2,46.3,34.2,71.8c1.7,5.5,6.4,8.6,11.4,10.3c5,1.7,10.7,1.3,15.5,3.4
		C8973.4,9890.1,8975.3,9894.2,8977.6,9896.9z"/>
	<path onclick="modals(this.id);" id="2498" class="st0" d="M7954.2,6562c-24.9,0-47.6,0-72.1,0c-6.5-1.7-11.1-8.7-16.6-14.3c-7-7-14-5.9-21.8-2.4
		c-0.8,0.4-2.2-0.5-3.3-0.9c-18.5-34.4-29.7-46.7-60.6-66.7c-4.1-2.7-10-2.2-10.6,0.9c-0.4,2.4-1.3,5.4-0.4,7.3
		c4.2,8.3,8.5,16.7,13.8,24.3c11.6,16.4,15.8,36.6,27.8,52.9c2.9,3.9,3.7,10.2,3.5,15.3c-0.2,9.2-1.6,18.5-3.1,27.7
		c-0.3,1.9-3.2,4.2-5.3,4.6c-2.1,0.4-5.4-0.6-6.9-2.2c-5.6-5.7-10.4-12.1-16-17.8c-2.7-2.7-6.2-5-9.8-6.4c-2.1-0.9-5.5-0.6-7.4,0.6
		c-1.9,1.2-4,4.1-3.9,6.3c0.3,12.1,2.7,23.7,9.5,34.1c3.6,5.6,7.1,11.3,10.1,17.2c1.1,2.2,1,5.2,1.2,7.8c0.4,6.1-7.6,13.6-13,11.8
		c-11.3-3.9-22.6-7.9-33.8-12.2c-19.9-7.6-39.7-15.5-59.5-23.3c-10.3-4-21.2-5.3-31.3-1.2c-54.4,21.7-110.2,39.9-165,64.8
		c-4,7.2-8.7,15.2-12.8,23.4c-16.8,33.3-33.3,66.8-50.4,100c-6.7,13.1-11.1,26.9-15.4,40.9c-2.4,7.9-3.6,15.6-2.5,23.5
		c3.6,25.3,3.9,50.5-3.4,75.3c-0.8,2.5-1.9,5.6-1.2,7.8c9.7,29.4-11.9,50.5-20,75c-3.6,11.1-12.3,20.3-21.9,28
		c-12.4,10-24.3,20.8-36.5,31.1c-10.8,9-16.3,20.7-17.6,35.5c-9.5,6.5-19.7,12.7-28.8,20.1c-8.2,6.7-14.8,15.4-22.9,22.3
		c-12.2,10.3-24.8,20.1-37.8,29.3c-12.2,8.5-22.7,8.2-32.5-2c-10.4-10.7-21.8-19.7-35.1-25.9c-7.2-3.4-14.7-6.2-22.3-8.5
		c-10.4-3.2-20.9-3.5-31.5-0.5c-11.5,3.2-23.1,5.9-35.5,9.1c-19.2-14.9-36.3-31.5-50.7-50.6c-11.2-14.8-22.4-29.6-30.4-46.8
		c-8.5-18.3-21.6-33.4-38.2-45.5c-12.9-9.4-25.1-19.9-37.1-30.4c-16.1-14-32.5-27.2-53.3-34.2c-7.2-2.4-13.8-8-19.5-13.3
		c-12.7-11.8-25-24-36.8-36.7c-12.9-13.9-27.3-24.9-45.3-31.8c-16.1-6.2-31.3-14.9-47.3-21.4c-17.6-7.1-33.2-16.5-46.8-29.8
		c-12.4-12.1-26.8-21.7-43.7-27.1c-18.3-5.8-32-18-44.6-32.4c-23.7-27.1-48.3-53.3-73-79.4c-4.3-4.6-10.6-8.6-16.6-10.2
		c-42.9-11.3-76.5-36.6-105.9-68.5c-2.7-2.9-5.5-5.8-8.5-8.5c-26.7-23.8-43.2-54.1-53.4-87.7c-13.9-45.9-26.3-92.3-39.6-138.3
		c-7-24.3-14.1-48.6-21.9-72.7c-6.6-20.3-14.4-40.2-30.6-55.4c-3.7-3.5-1.9-10.8,2.3-13.9c9.8-7.2,20.3-13.1,32.5-14.5
		c16.3-1.8,31.1-5.8,43.4-17.8c7.1-6.9,16.8-7.3,26.4-4.4c10.2,3.1,20.3,6.8,30.6,9.2c9,2.1,18.3,3.1,27.6,3.9
		c9.7,0.9,18.4-1.8,25.3-9.3c6.3-6.9,12.7-13.6,19.1-20.3c3-3.2,11.6-3.9,14.8-1c7,6.2,13.7,12.6,20.6,18.9c2.9,2.7,5.9,5.5,9.3,7.4
		c2.1,1.2,5.2,1.6,7.7,1.2c3.9-0.7,7.8-2.1,11.2-3.9c18.5-10.1,37.9-12.3,58.1-7.1c12.2,3.1,23.9,1,35.4-2.2c5-1.4,9.8-4.1,14.4-6.6
		c17.3-9.5,25.5-28.3,20.1-47.3c-1.8-6.3-4-12.8-7.6-18.2c-7.1-10.5-8.6-22.4-9.5-34.3c-1-14.2,4.5-26.1,15.7-34.9
		c7.3-5.8,15.4-10.6,22.6-16.4c13.1-10.4,27.5-15.7,44.4-14.5c13.5,0.9,26.9-1.8,39.2-6.8c18.3-7.4,36.4-6.7,54.9-3
		c6.5,1.3,13,3.1,19.5,4.2c12.9,2,25.5-7.7,27.1-18.2c2-13.2,5.3-26.2,6.3-39.4c1.2-16.8,7.1-30.8,19-42.7c3.7-3.7,5.4-9.1,8.7-13.2
		c2.4-3,5.8-7.2,9-7.3c20-1.1,34.9-11.7,49.2-24.1c5.5-4.8,12.3-5.6,18.4-1.3c13.8,9.5,29,12.6,45.5,11.6c12-0.7,23.4,1.3,34.9,6.3
		c10.8,4.7,23,5.7,34.5,8.9c1.5,0.4,3.4,4.8,2.8,6.3c-4.4,9.6-9.4,19-14.4,28.3c-3.8,7-8,13.8-11.9,20.8c-2.3,4.2-1.2,11.6,2.2,14.9
		c16.2,15.8,32.4,31.7,48.8,47.3c6.8,6.5,18,6.6,25.7,0.4c4.1-3.3,8-7,11.4-11.1c39.5-47.6,87.8-85.1,138-120.5
		c5.6-3.9,12.6-5.6,18.4-0.4c16.7,15,36.3,21.6,58.4,22.6c7.1,0.3,12.4,4.1,15.7,10.6c18.3,35.9,21.9,51.8,21.6,91.9
		c-0.1,8.2-1.9,15.7-4.4,23.3c-3.3,10.1,0.4,18.5,8,24.9c5,4.2,10.8,7.7,16.6,10.8c22.9,12.2,48.7,13.2,73.4,18.1
		c3.7,0.7,8-0.7,11.8-1.8c15.6-4.4,27.2-0.9,38.8,11.8c9.9,11,25.2,14.4,40.7,11.4c5.2-1,10.6-1.4,15.8-2.3
		c22.5-3.6,43.9-9.4,63.2-22.8c17.7-12.3,27.3-15.9,40.9,10c5.1,9.7,10.6,18.2,19.4,24.7c7.5,5.6,14.5,11.7,21.7,17.7
		c7.4,6.1,15.8,9.7,25.2,11.4c14.4,2.6,28.7,5.7,43.1,8.4c8.8,1.6,14.2,6.7,16.3,15.3c0.6,2.6,0.9,5.3,1.4,7.9
		c1.1,5.8,5,8.6,10.4,10.5c11.6,4.2,23.6,3.7,35.5,4c17.3,0.4,34.6,0.8,51.9,2c9.2,0.6,14.3,5.7,16.3,14.8
		c4.5,20.8,9.1,41.7,13.2,62.6c13.5,69.3,27,138.6,40.3,207.9C7960.2,6512.3,7959.8,6526.9,7954.2,6562z"/>
	<path onclick="modals(this.id);" id="2504" class="st0" d="M7789.3,6620.5c5.6,6.3,12.9,9.1,21,7.9c3.4-0.5,8.4-3.2,9.1-5.7c3.5-13.8,6-27.9,8.3-42
		c0.4-2.1-1.7-4.7-2.7-7l0,0.1c3.8,0.4,8.4-0.6,11.1,1.4c4.2,3,6.8,8.1,10.4,12c3.8,4.2,8.8,5.1,14,0.6c5.5-4.7,10.2-6.6,17.7-5.6
		c19.7,2.6,39.6,4,59.5,5.4c6.6,0.4,13.4,0,19.8-1.5c3.3-0.8,8-4.4,8.5-7.4c3.6-22.3,8.4-44.5,4.7-67.3c-3-18.4-5.9-36.8-9.4-55.1
		c-11.6-60.1-23.5-120.2-35.2-180.4c-0.5-2.6-0.9-5.4-0.3-7.9c0.9-3.7,1.6-9,4.2-10.5c28.5-17.2,57.3-33.9,86.2-50.5
		c5.9-3.4,12.6-4.1,19.3-2c2.5,0.8,5.2,1.2,7.7,2c16.4,5.6,33.6,9.4,48.8,17.4c14.2,7.5,20.5,24,30.7,36.3
		c6.8,8.1,13.5,16.3,19.6,23.8c22.6,3,43.6,6.5,64.8,8.3c13.2,1.1,26.6-0.3,39.8-1c9.3-0.5,18.5-1.9,27.7-2.8
		c15-1.4,21.7-7.6,23.3-21.9c0.4-3.9,0.4-8,0.3-11.9c-0.2-8.9-8.2-17.7-0.6-26.5c5.8-6.6,14.7-5.3,22.2-7.7
		c5.1-1.6,10.1-3.3,15.2-4.8c18.4-5.4,34.7-13.3,42.5-32.8c1.6-3.9,6.4-4.2,10.5-3.3c4.2,0.9,7.6,3.8,7.9,7.9
		c1.2,17.6,6.4,33.9,15.3,49c4.8,8.1,18.7,8.5,23.6,0.1c2.6-4.5,5.7-10.1,5.1-14.8c-2.3-19.7,0.6-40.3-7.1-59.2
		c-7.1-17.3-5.5-33.7,1.1-50.5c2-4.9,3.3-10.1,5.1-15.2c2.3-6.4,8.6-9.7,16.1-8.3c9.2,1.7,18.2,4.5,27.4,5.3
		c28.4,2.7,54.1,13.7,79.4,25.7c9.6,4.6,18.5,11.2,28.5,14.4c26,8.5,46.9,24.9,67.9,41.3c15.8,12.3,31.3,24.9,46.7,37.6
		c10.5,8.7,18.2,19.1,21.5,32.8c3.1,12.9,7.4,25.6,11.3,38.3c2.5,8.2,9.7,14,17.9,13.1c14.5-1.5,29-3.9,43.4-6.1
		c5.2-0.8,10.3-2.5,15.5-3.4c7.6-1.3,16.5,5.4,16.9,13.2c0.4,6.6,0.6,13.3-0.3,19.8c-2.7,19.9-4.4,39.7-1.9,59.7
		c1,7.9,0.5,16-0.2,23.9c-2.8,31.5,8.6,57.1,31.3,78.5c7.7,7.3,14.3,15.7,21.5,23.5c4.5,4.9,8.8,10,13.7,14.3
		c16.3,14,30.4,29.9,42.3,47.7c5.2,7.8,10.4,15.5,17.8,21.3c7.8,6.1,11.3,14.8,13.1,24.1c2,10.4,2.9,21.1,4.5,31.6
		c2.5,16.3,8.5,30.6,21.5,41.5c5.1,4.2,9.3,9.5,13.7,14.5c4.4,5.1,4.9,12.8,1.4,18.6c-6.1,10.3-12.4,20.5-18.6,30.7
		c-2,3.4-4.4,6.8-5.6,10.6c-5.9,17.4-6.8,37-23.4,49.3c-8.9,16.4-17.5,32.9-26.8,49.1c-3.3,5.6-7.9,10.7-12.6,15.3
		c-10.5,10.2-21.8,19.5-32.1,29.9c-5.5,5.6-10.9,12-14.3,19c-21.4,44.4-20.5,44.8,17.5,76.2c13.3,11,28.2,20,42.5,29.8
		c8.2,5.6,12.6,13.3,14.2,23c0.6,3.8,3.1,7.3,5.4,12.6c4.7,2.4,11,4.7,16.2,8.5c25.1,18.3,52.7,15.5,80.5,10c4.4-0.9,8-5.6,12-8.6
		c5.9,8.4,12.4,12.8,23.5,11.1c15.8-2.4,18.6,0.9,19.1,16.5c0.1,3.9-0.6,7.9-1,12c-5,2.2-10.1,3.8-14.5,6.5
		c-1.5,0.9-2.5,5.1-1.7,6.6c2.6,4.5,5.8,8.9,9.5,12.6c6.6,6.6,14.2,12.1,20.6,18.9c5.7,6.1,8.5,14,5,22.1
		c-7.9,18.1-10.4,38.7-25.2,53.8c-3.3,3.4-4.1,9.7-5.2,14.9c-4.7,21.9-16.4,42.5-10,65c-21.9,19.5-38.8,40.2-61,55.5
		c-8.7,6-16.7,13.3-24.3,20.7c-11.5,11.3-21.2,23.9-23.6,40.7c-1,6.5-2.9,12.8-4,17.5c-6.8,6.8-14.1,4.2-20.2,6
		c-6.4,1.9-12.6,4.2-19,6.1c-9.8,2.9-18.1,0.2-25.6-6.8c-6.8-6.4-13.6-12.8-21.2-18c-6.5-4.4-14.1-7-21.5-10.5
		c-4.1-10.1-8.8-19.7-11.9-29.8c-5-16.7-11.3-32.6-22.5-46.3c-2.5-3-3.8-7-5.2-10.7c-2.8-8-2.8-15.8,3.7-22.2
		c3.8-3.7,8.4-6.6,12-10.4c6.3-6.6,6.1-19.1-0.1-25.8c-15-16.3-33.1-27.4-55.7-27.6c-21.6-0.2-42.4-3.4-62.5-11.2
		c-10.2-3.9-20.8-4.7-31.5-3.8c-12.8,1.1-23.4-3.9-33.6-10.5c-7.9-5-15.6-10.2-23.4-15.3c-6.9-4.5-12-10.1-15.1-18
		c-3.5-8.8-9.6-15.6-16.8-22c-5.9-5.2-11.4-11.6-14.9-18.5c-7.6-14.6-17.5-26.6-31.8-34.9c-7.1-4.1-11.5-11-15.2-18.2
		c-7-13.9-17.8-18.7-32.9-14.6c-3.7,1-8,0.5-11.9,0.1c-10.2-0.9-17.9,3.6-24.8,10.4c-3.8,3.7-7.9,7.2-12.4,9.9
		c-1.3,0.8-5.7-0.9-6.4-2.5c-3.3-7.1-5.7-14.6-8.9-23.3c-5.6-6.3-14.6-8.7-23.5-11.4c-9.3-2.9-10.2-2.4-16.7,10.1
		c-2,3.9-6.2,5.5-9.5,3.2c-2-1.4-5-3.4-5.1-5.3c-0.6-7.9-0.4-15.8-0.4-23.8c0.2-13.3-9.5-23.3-22.3-21.9c-10.5,1.2-20.8,3.7-31.1,6
		c-5.1,1.1-10,3.2-15.2,5c-3.8,10.9-8,22-11.5,33.2c-1.2,3.7-1.8,8.1-0.9,11.8c4.4,17.6-4.8,27.7-18.7,35.5
		c-11.6,6.5-23.1,13.2-34.9,19.3c-12,6.2-24.4,10.1-38.4,8.6c-11.9-1.3-24-0.2-35.9-1.2c-15.9-1.4-28.5,3.2-38.2,16.3
		c-4.2,5.6-11.3,7.9-18,6.9c-26.4-3.9-53.2,0.1-79.7-4.9c-15.5-2.9-31.9-1.3-47.8-2c-10.6-0.4-17.3-6.3-20.1-16.2
		c-3.2-11.5-5.9-23.1-8.5-33.4c5.7-15.3,9.8-29.4,16-42.6c9.5-20.4,12.7-40.4,1.1-60.9c-3.3-19.7-10.5-38.5-11.9-58.6
		c-1.8-27.1-10.6-51.8-27-74c-11-15-19.8-31.5-29.6-47.4c-8.4-13.6-15.3-28-26.9-39.5c-4.6-4.5-8-10.7-10.4-16.8
		c-5.8-15.1-13.9-28.7-24.9-40.6c-0.9-1-1.7-2.1-2.3-3.3c-11.9-24.4-28.7-44.5-51.8-59.3c-2.8-1.8-5.9-7.5-5-10
		c5.5-15.1-2.1-28.8-3.6-43.1L7789.3,6620.5z"/>
	<path onclick="modals(this.id);" id="2503" class="st0" d="M10277.3,7910.6c-20.4-11.8-37.9-27.1-60.8-29.8c-3.9-4.8-7.6-8.7-10.4-13.2
		c-10.2-16.4-24.8-23.5-43.9-21.8c-6.6,0.6-13.5,0.1-19.9,1.7c-20.8,5.3-41.8,7.8-63.3,7.2c-8.3-0.3-15.6,2.7-22.2,7.8
		c-7.3,5.6-14.8,10.9-22.7,16.7c-13.6-16.6-29.9-27.4-49.6-33.3c-7.6-2.2-15-5.6-22-9.4c-29.3-15.7-58.2-32.3-91.4-39
		c-3.8-0.8-7.5-2.8-10.7-5.1c-12.1-8.7-26.1-13.1-40-17.9c-15.4-5.2-28.7-13.1-38.9-26.5c-6.3-8.4-14.9-15.2-22.5-22.6
		c-10.7-10.3-22.9-18.2-37.8-21.2c-7.9-1.6-15.5-3.6-22-8.8c-24.6-19.5-54.5-27.3-83.2-37.5c-10.5-3.7-19.7-8.1-24.9-18.3
		c-10.5-20.4-30.1-30.1-49-39.1c-19.1-9.1-39.6-15.1-58.6-25c-10.5-5.5-22.3-7.9-34.7-7.9c-20,0-39.9-1.9-59.9-1.7
		c-19.3,0.1-37.1-4.7-53-15.1c-16-10.4-33.8-15.4-51.5-21.1c-14.2-4.7-28.9-5.3-43.5-3.4c-7.7,1-15.8,3.5-22.4,7.5
		c-14.8,8.9-28.7,19.3-43.1,28.9c-7.7,5.2-15.4,10.6-23.7,14.7c-17.5,8.8-35.8,10.1-54.2,3c-24.9-9.6-41.8-27.9-52.7-51.8
		c-3.3-7.2-5-15.2-7.2-22.8c-3.8-13.7-12.9-19.5-26.8-18.4c-1.3,0.1-2.7,0.3-4,0.2c-15.1-1.3-24.9-12.5-22.7-26.5
		c1-6.6,3.1-13,3.5-19.6c0.9-17.2,9.2-30.3,21.7-41.2c8-7,15.7-14.6,24.5-20.5c21.3-14.3,37.7-33.6,55.6-51.5c5-5,6.7-11.2,5.4-18.3
		c-1.9-10.8-0.9-20.9,4.5-30.9c3.7-6.9,5.6-14.9,7.8-22.6c1.8-6.4,3.4-12.8,7.9-18.1c13.3-15.7,15.2-36.6,24.3-54.4
		c4.2-8.2,1.4-18.6-4.3-26.6c-3.8-5.3-9.1-9.6-13.7-14.4c-4.5-4.7-5.5-8.1-0.3-13.6c6.8-7.2,7.9-13.2,1.1-20.5
		c-4.9-5.3-4.8-12.3-4.9-18.9c-0.1-11.2-6.2-18-16.4-19.4c-12-1.7-23-4.4-33.1-11.6c-5.9-4.3-11.7-3.1-17.5,3.8
		c-15.8,19.1-35.3,15.3-54.6,9c-9.9-3.3-18.7-9.8-28.8-15.3c-1.9-4.4-4.6-9.1-5.9-14.2c-2.2-8.1-6.4-14.5-13.1-19.4
		c-11.9-8.6-23.5-17.6-35.7-25.5c-11.3-7.3-21.5-15.6-30.3-25.8c-5.8-6.7-6.6-14.5-3.1-22.4c6.4-14.7,13.7-28.9,26.1-39.7
		c4-3.5,7.2-8.1,11.4-11.1c21.1-15.4,35.5-35.9,45.1-59.8c5.6-14,17.4-23.6,24.4-36c6.4-11.3,7.2-25.5,12.4-37.7
		c4.1-9.7,10.9-18.2,16.7-27.1c2.8-4.3,10.1-4.9,14.1-1.5c2,1.7,4.2,3.4,6,5.3c10,11,22.4,17.9,35.7,24.7c20,10.3,38.7,23.3,57,36.5
		c7.3,5.2,12.3,13.8,17.8,21.2c7.4,9.9,16.7,12.9,28,8.2c8.9-3.7,17.7-3.9,27.3-2.5c22.9,3.3,43.8,10,61.5,25.7
		c13.1,11.6,28.8,19,45.8,23.6c7.7,2.1,14.9,5.8,22.3,8.6c12.7,4.8,23.1,12.4,31.6,23.3c16.4,21,33.8,41.2,53.3,59.4
		c11.7,11,22.5,22.6,28.1,38.2c2.9,8,9.4,12.5,17.5,15c21.6,6.7,40.1,20.6,63,24.9c13.4,2.5,22.7,13.7,31,24.2
		c15,19,33.8,33.9,51.3,50.2c17.9,16.6,38.5,28.6,61.7,35.8c56,17.3,109.7,41.1,166.1,57.4c24.2,7,47.3,18,70.9,27.1
		c12.4,4.8,25,9.1,37.5,13.8c9,3.4,17.7,3.6,27.3,1.7c18.3-3.7,36.9-4,55.7-2.1c17.2,1.7,34.6,1.4,51.9,1c29.9-0.7,57.8,9,85.9,16.9
		c9.6,2.7,17.8,11.3,26.1,17.9c8.3,6.6,15.7,14.4,24.1,20.9c10.8,8.3,23,12.9,37,12.7c10.6-0.1,21.3,1.3,31.9,1.7
		c9.4,0.4,18.3,2,27.2,5.3c21.5,8.1,43.5,10.1,66.7,8.7c33.2-2.1,66.5,1.2,99.4,6c21.1,3.1,41.9,7.8,62.9,11.1
		c10.9,1.7,20.3,5.9,29.2,12.1c3.3,2.3,6.8,4.3,9.9,6.8c12.1,9.5,25.9,13.5,41.1,12.3c23.8-1.8,44.2,7.5,64.2,18.5
		c6.4,3.5,8.7,9.7,9.7,16.5c1.3,9.4,0.4,18.6-3.3,27.5c-5.5,13.2-4.8,25.9,2.7,38.2c2.1,3.4,4.4,7.2,4.5,10.9
		c0.2,5.1-0.3,10.9-2.6,15.3c-2.3,4.4-7,7.8-11.1,11.1c-9.1,7.2-14.1,16.6-12.7,27.8c2.2,17-3.9,31.6-12.2,45.3
		c-10.4,17-21.5,33.5-30.9,51.2c-6.8,12.7-17.2,23.7-27.2,34.3c-11,11.7-20.7,23.9-28.8,38c-15.2,26.5-37.6,44.6-68.2,51.1
		c-3.9,0.8-7.8,1.6-11.7,2.5c-24.4,5.4-44.6,18-59.4,37.8c-17.7,23.7-41.9,40.8-61.7,62.3c-9.5,10.3-24.3,10.1-36.1,15.9
		C10313.9,7894,10295.4,7901.1,10277.3,7910.6z"/>
	<path onclick="modals(this.id);" id="2499" class="st0" d="M6913.6,5856.1c-7.9,5.5-16.1,10-22.8,16.2c-10.3,9.6-21.2,15.2-35.7,14.5
		c-8.4-0.4-15.4,4-18,13c-2.2,7.9-6.1,14.8-12.1,20.3c-10.5,9.6-14.7,21.9-16.6,35.4c-2,14.5-4.2,29-6.4,43.4
		c-0.6,3.7-8.2,9.7-12,9.2c-11.9-1.5-23.8-2.5-35.5-4.8c-12.1-2.3-23.8-1.9-35.4,2.3c-20.2,7.4-40.8,11.9-62.6,10.9
		c-5.1-0.2-11.1,0.6-15.4,3.1c-17.1,10.2-35,19.6-48.7,34.6c-5.3,5.8-9.1,13-12.9,19.9c-1.8,3.3-3.3,7.9-2.5,11.5
		c4,19.2,2.6,39.5,15.3,57.1c9.2,12.8,3.1,28.8-10.1,38.4c-10.1,7.3-21,11.3-33.6,10.2c-1.3-0.1-2.7,0.1-4-0.2
		c-26.7-5.9-52.8-4.8-77.3,9.4c-9.4-8.5-17.5-15.3-24.8-22.8c-11.8-12-31.1-14.7-40.1,2.9c-11.1,21.7-28.4,26.2-50.2,20.5
		c-11.6-3-23.1-6.4-34.7-9.2c-14.8-3.7-29.1-4-40.8,8.3c-5.7,6-13.3,9-21.2,10.6c-20.9,4-41.6,8.2-57.5,20.9c-5-3.2-8-4.1-9.2-6.1
		c-10.7-18.7-24.1-35.1-39.8-49.7c-22.6-21-26.1-48.4-25.4-77.1c0.1-5.2,2.1-10.4,3.8-15.4c2.1-6.3,4.4-12.5,7.1-18.6
		c7.8-18,8-35.5,1.3-54.3c-5.4-14.9-7.9-31-10.4-46.7c-5-31.4-22.9-53.5-49.3-69c-19.5-11.5-40.1-20.8-62.9-24.6
		c-23.9-4-45.1-15.9-66.8-26c-4.6-2.1-8.5-6.4-12-10.3c-6.1-7-11.3-14.8-17.4-21.9c-5.2-6-10.4-12.6-16.9-16.7
		c-18.1-11.3-35.6-23.4-51.7-37.5c-3.9-3.4-9-5.7-13.8-8c-5.7-2.8-7.2-7.9-7-13.2c0.6-11.9,1.5-23.9,3.1-35.8
		c2.2-15.8,5.6-31.5,7.7-47.3c1.1-8.4,4.1-15.7,9.9-21.3c28.3-26.9,22-32.6,8-62.9c-11.3-24.5-18.3-49.9-22.2-76.4
		c-0.6-4.1,3.4-7.3,7.5-6.4c9,2.1,16.9,7.6,26.7,7.5c15.2-0.2,24.2,9.3,30.9,21.7c2.7,5,3.2,10.2,0.5,15.2
		c-2.5,4.6-5.5,9.1-8.8,13.2c-12.1,15.3-3.7,26.4,9.1,36.8c3.3,2.6,10.2,1.8,15.2,0.9c3.6-0.7,6.7-4.1,10-6.3
		c16.4-11.1,16.4-11.2,24,7c2.5,6.1,5.7,11.9,9.1,17.5c5.3,8.7,16.7,12.8,27.8,10.3c2.6-0.6,5-1.8,7.5-2.6c7-2.4,14.4-1.4,18.1,4.4
		c10.1,15.5,24.5,19.3,41.4,18.2c1.2-0.1,2.4,0.8,3.6,1.2c1.4,2.2,3.5,4.2,4,6.6c4.7,19.9,4.9,21,21.6,22.2
		c19.9,1.4,39.9,1.8,59.9,2.1c16,0.2,32,0.1,48-0.6c13.4-0.6,24.3-14,22.8-27.7c-0.6-5.2-2-10.4-3.8-15.4c-2.7-7.5-6-14.7-8.6-21.3
		c0.9-5.1,0.9-9.3,2.4-12.9c10.3-23.6,5.6-46.9-1.7-69.9c-2.8-9-6.3-17.5-4.9-27.1c0.8-5.5-1-10.3-4.1-14.9
		c-6.9-10.4-6.9-22.6-8.7-34.3c-0.3-1.7,2.1-5,3.9-5.6c2.9-1.1,5,1.1,5.7,4.3c3,14.1,12.4,26.3,11.2,41.9c-0.3,4,4.7,9.3,8.5,12.6
		c7.2,6.4,19.7,2.7,23.5-5.8c3.8-8.7,5.9-17.7,5.9-27.1c0-12,0-24,0.2-36c0.1-5.3,0.9-10.6,1.5-15.9c0.5-4.1,6.6-9.4,11.3-9.8
		c4-0.3,7.9-0.7,11.9-0.4c6.6,0.4,13.2,1.2,17.9,1.7c10.3,4.3,10.6,13.7,15.9,19.5c5.4,5.9,10.2,12.3,16,17.6
		c4.9,4.5,10.7,6.8,18.1,6.4c15.2-0.8,16.9,1.8,12.4,14.4c-1.3,3.7-3.6,7.2-4.6,11c-2.7,10.4,7.6,25.4,18.4,26.9
		c3.9,0.5,8.1,1.3,11.9,0.6c11.4-2,20.8,1.2,29.5,8.6c8.5,7.2,18.4,10.2,29.7,8.8c3.9-0.5,8,0.4,12,0.7c9.6,0.7,18.2,4,25.2,10.7
		c4.8,4.6,9.8,9.1,14.2,14c8.2,9,18.6,14.9,28.8,21.3c9.6,5.9,19.5,7.9,30.4,6.9c27.8-2.4,55.7-4.6,83.5-6.8
		c6.6-0.5,13.3-0.8,19.9-0.9c8.2-0.1,15.8,1.8,22.6,6.6c5.4,3.8,11.2,7.2,16.8,10.7c7.2,4.4,14.7,5.8,22.9,3c3.8-1.3,7.7-2,11.6-3
		c10.7-2.5,20.8-2.1,31.1,2.9c18,8.7,36.5,16.1,54.6,24.7c15.9,7.5,32.2,12.4,50,12.4c20.1-0.1,39.5,2.6,57.5,13.3
		c8,4.8,18,4.5,27.3,1.8c11.5-3.3,23.1-6.5,34.4-10.2c10-3.3,18-1.1,25.4,6.2c4.1,4.1,10.4,4.9,14.8,1.7
		c21.5-15.8,43.7-16.5,67.7-6.2c8.3,3.6,18.2,3.3,27.3,5.3c8.1,1.7,14.6,5.9,19.1,13.2c4.2,6.7,8,14.4,14.1,19
		c14.3,10.9,23.1,25.6,31.8,40.5c17.6,29.8,35.1,59.7,52.7,89.5c2.7,4.6,6,8.8,9.7,14.1c16.9,5.7,33.8,13.5,48.7,24.9
		c8.6,6.5,18.4,10.2,29.4,11.4c19.8,2.2,39.5,5.7,59.3,8.1c14.8,1.8,28.7,5.1,41.1,13.8c5.4,3.8,11.2,7.4,17.4,9.6
		c21.6,7.5,41.1,18.4,59.2,32.3c14.9,11.5,31.9,19.1,50.5,23c9.1,1.9,17.9,6.3,27,6.9c21.6,1.3,37.7,11.7,51.2,27.5
		c13.9,16.1,28,32.1,41.7,48.3c3.8,4.5,3.5,10,0.7,14.9c-18.1,31.2-46,51.1-77.6,66.4c-6.9,3.3-15.5,3.2-23.4,4.7
		c-5.2,1-10.6,1.6-15.6,3.2c-18.9,5.9-34,0.1-46-14.8c-5.6-7-13.2-8.7-21.3-8.8c-6.6,0-13.3,0.7-19.9,1.3
		c-28.7,2.5-62.9-5.3-87.8-20.2c-1.1-0.7-2.5-1.4-3.1-2.5c-1.9-3.3-5.3-7.1-4.9-10.2c3.9-26.6,0.1-53.2-0.3-79.7
		c-0.1-8.2-2-15.8-6.9-22.5c-5.6-7.6-9-16.1-11.5-25.2c-2.3-8.1-8.7-13.2-17.2-14.9c-3.9-0.8-7.9-1.1-11.8-1.8
		c-19.9-3.5-38.6-9-53.4-24.4c-5.9-6.2-15-4.9-22.5-1c-5.9,3.1-11.3,7-16.7,10.9c-30.2,22-59.4,45-86.2,71.1
		c-16.2,15.8-33.5,30.3-47.2,48.5c-5.1,6.8-14.6,7-21.1,0.7c-50.7-49.6-52.2-27-14.7-91.9c2.6-4.5,4.1-9.7,6-14.6
		c1.1-2.8-2.6-8.9-5.4-9.3c-5.3-0.6-10.5-1.1-15.8-1.8c-7.9-1-16.5-0.3-23.5-3.4c-13.9-6.1-28.2-7.6-42.9-6.9
		c-12.4,0.6-23.7-2.5-34.5-8.3C6931,5865,6922.7,5860.8,6913.6,5856.1z"/>
	<path onclick="modals(this.id);" id="2502" class="st0" d="M8361.9,6051.7c14.4,17.4,32.6,30.1,56.6,32.3c1.2,0.1,2.6,1,3.4,2c1.6,2,4.3,4.6,3.9,6.4
		c-2.6,11.7-5.9,23.2-9,34.8c-2.9,10.5-3,20.3,1.1,31.1c7.1,18.7,10.1,38.6,9.4,58.7c-0.1,1.9-2.7,5.2-4.1,5.1
		c-2.2-0.1-5.1-1.9-6.4-3.8c-4.6-6.7-6.4-14.5-6.4-22.6c-0.1-5.2,0-10.5,0-16.3c-6.1-5.3-12-10.5-18-15.7
		c-14-12.3-19.2-11.6-24.9,3.9c-1.8,5-2.1,10.7-4.5,15.3c-2.4,4.5-5.9,9.2-10.2,11.7c-8,4.7-16.7,8.3-25.4,11.4
		c-6.2,2.3-13,2.9-19.4,4.6c-25.1,6.6-26.9,9.5-23.5,36.2c0.3,2.6,0.9,5.3,1.1,7.9c1.2,14.5-5.4,22-20.3,23.7
		c-34.6,4-69.1,1.3-103.6-2.1c-8.3-0.8-15-5.3-20.1-11.9c-10.5-13.8-21-27.5-31.3-41.5c-4.9-6.7-11.1-11.7-18.8-14.2
		c-19-6.2-38.1-12.1-57.2-17.8c-6.6-2-13.4-1.1-19.4,2.2c-15.2,8.3-30.1,17.1-45.2,25.6c-9.3,5.2-18.5,10.5-27.9,15.5
		c-5.9,3.2-10.6,1.8-12.3-4.2c-1.8-6.5-4-12.1-8.8-17.3c-13.2-14.3-18.4-31.7-19.4-51.1c-1.3-25.2-3.9-50.4-6.5-75.5
		c-1.5-13.7,4.9-22.9,14.9-30.6c4.2-3.2,8.8-5.9,13.4-8.7c14.9-8.9,29.8-17.6,44.7-26.4c5.7-3.4,11.1-8.1,17.2-10
		c19.5-5.8,36-17.1,52.9-27.6c20.6-12.7,41.2-7.7,61,1.5c9.5,4.4,17.9,11.6,26.4,18c11.8,8.9,23.6,11.2,36.9,3.2
		c4.3-2.6,9.6-4.1,14.6-5c1.7-0.3,4.7,2.3,5.9,4.3c3.9,6.3,0.4,12.9,0.2,19.4c-0.2,7.3,2.8,13,8,17.4c8.2,7,17.3,12.6,27.9,15.1
		c12,2.9,21.7,9.2,30.7,17.5c7.8,7.1,17,12.9,25.9,18.6c7.3,4.6,15.4,4.2,23,0.6c14.6-6.9,26.9-17.1,38.8-27.8
		C8344,6059.5,8350.6,6052.8,8361.9,6051.7z"/>
	<path onclick="modals(this.id);" id="2501" class="st0" d="M7653.1,6062c8.8-12.3,16.8-22.8,24.1-33.8c5.7-8.6,4.8-17.2-1.9-25.9
		c-4.9-6.3-10-12.4-14.9-18.6c-2.5-3.2-1.2-7.8,2.6-9.8c3.5-1.8,7.6-2.7,10.9-4.8c11.3-7,13.8-14.7,9.6-27c-2.2-6.2-5-12.3-6.3-18.7
		c-3-14.4,6.8-27.7,20.7-28.2c10.6-0.4,21.2,0.3,31.9,0.2c10.8,0,13.9-3.6,11.2-14.5c-1.4-5.7-2.3-11.7,3.3-13.8
		c10.7-3.9,17.3-11.1,23.1-20.4c3.7-5.9,10.2-8.2,17.8-6c3,11.1,5.3,22.7,9.5,33.7c4.2,11.1,10.2,21.6,15.1,31.7
		c-2.6,9.8-9.2,13.5-17.7,14.3c-5.2,0.5-10.8-0.8-15.5,0.8c-13.4,4.7-17.9,17.1-11.2,28.2c1.4,2.3,2.6,4.7,4.4,6.6
		c10.1,10.6,11.5,23.4,9.8,37.2c-0.8,6.6-1.3,13.2-1.7,19.8c-0.3,5.3,3.2,10,8.6,11.8c7.5,2.6,15,5,22.5,7.5
		c1.5,4.2,3.2,7.8,4.1,11.5c2.6,11.1,6.5,19.6,20.4,20.1c10.7,0.4,20.6,5.3,27,14.8c3.4,5,8.7,5.5,13.7,7c5.7,1.7,9,5.8,9.6,11.4
		c2.5,25.1,4.8,50.2,7,75.3c0.4,4.9-4.4,10.6-9.4,11c-7.9,0.7-15.9,1.6-23.8,1.4c-12-0.3-23.9-2.1-35.8-2
		c-14,0.2-22.6-4.1-24.5-19.4c-0.9-6.8-7.4-11.1-14.1-12.8c-12.9-3.2-25.9-6.3-39-8.2c-33-4.8-54.4-25.7-72.7-51
		C7665.3,6083.2,7660.4,6073.8,7653.1,6062z"/>
</g>
<g>
	
	<path onclick="modals(this.id);" id="2491" class="st0" d="M7964.1,6003.8c-1-2.7-2.1-5.6-3.2-8.6c-0.9-2.3-2.2-4.6-3-7c-2.1-6.1-4.2-12.2-6.1-18.4
		c-0.4-1.4,0-3.2,0.3-4.8c1.2-6.5-0.1-12.7-3.3-18.3c-0.5-0.9-2.3-0.9-3.3-1.6c-0.8-0.6-2-1.5-2-2.3c0-1,0.8-2.5,1.7-2.9
		c5.5-2.6,11.4-4.5,16.7-7.5c3.6-2.1,4.7,0.1,5.5,2.1c3.3,8.8,10.2,11.7,18.2,7.3c2.7-1.5,5.5-2.8,8.3-4c7.8-3.4,15.7-6.6,23.5-10.1
		c1.4-0.6,2.1-2.5,3.4-3.3c3.4-2.2,6.8-4.7,10.5-6.1c3.7-1.4,7.6,0.6,8.6,3.9c1,3.3,0.8,7.8-0.5,11c-2,4.5-2.4,16,0.3,20.5
		c1.5,2.4,2.4,5.1,3.7,8.2c-5.1,2.1-10.6,3.6-15.3,6.3c-5.6,3.3-10.5,7.7-15.7,11.5c-5.3,3.9-10.3,8.1-17.1,9.4
		c-4.6,0.9-8.9,3-13.3,4.7c-2.2,0.9-4.2,2.2-6.3,3.3C7972.2,5999.2,7968.8,6001.2,7964.1,6003.8z"/>
	<path onclick="modals(this.id);" id="2483" class="st0" d="M7868.7,5888.3c6.3,5.8,7.3,13.8,3.4,19.7c-0.2,0.3-0.5,0.5-0.5,0.8c-1.1,5.5-2.1,11-3.2,16.4
		c-0.9,4.3-1.2,9.2-3.5,12.7c-1.6,2.4-5.9,3.6-9.2,4.2c-4.2,0.7-8.6,0.5-12.8,0.1c-3.8-0.4-6.3,1.1-8.7,3.6
		c-3.9,4.1-8.1,7.9-11.8,12c-1.6,1.7-2.4,4.1-3.7,6.1c-0.9,1.4-1.8,3.2-3.2,3.7c-9,3.3-13.4,11.8-20.3,17.5
		c-0.9,0.7-1.8,1.4-3.5,2.6c0-6.4,0-12,0-17.5c0-0.7,0.5-1.7,1-2.1c6.4-5.4,6.4-11.2,2.3-18.2c-4.7-8.1-4.3-8.2-13.9-6.7
		c-1.1,0.2-3-1.1-3.8-2.2c-1.3-2-1.9-4.3-3.2-7.5c2-1.1,4.6-2.2,6.8-3.7c2.5-1.7,3.9-0.5,5.4,1.2c5.6,6.9,8.5,6.5,14.6-0.1
		c3.1-3.3,7.5-5.4,11.8-8.3c2.8,2.7,6.8,4.7,6.1,10c-0.1,0.9,0.7,2.4,1.5,2.8c7.2,3.9,15.2-0.8,15.1-8.7
		c-0.1-8.5,2.2-11.3,11.3-14.3c1.3-0.4,2.3-2.1,3.3-3.3c0.5-0.6,0.5-1.6,1-2.2C7856.5,5900.4,7864.9,5896.9,7868.7,5888.3z"/>
	<path onclick="modals(this.id);" id="2492" class="st0" d="M7911.7,6034.6c-2.1-6.3-4.3-12-6-17.9c-1.3-4.4-1.9-9-3.3-13.4c-0.9-2.8-2.3-5.6-4-8.1
		c-4-5.8-2-9.9,4.9-11.4c8.7-1.9,17.4-3.5,22.4-12.8c3.1-5.8,8.9-6.5,11.7-2.7c1.7,2.3,3.8,5.1,3.7,7.6c-0.2,6.4,2.5,11.4,5.7,16.5
		c1.8,2.9,2.2,6.5,3.3,9.9c0.9,3,3.2,6.5,2.3,8.7c-1,2.4-4.9,3.6-7.6,5.2c-8.1,4.9-15.7,10.7-24.8,13.8
		C7917.1,6031.1,7914.7,6032.9,7911.7,6034.6z"/>
	<path onclick="modals(this.id);" id="2493" class="st0" d="M7887.4,6053.7c-9.2-3.2-10.5,7.5-17.4,9.9c-0.7-1.4-1.8-3.3-2.4-5.3c-0.2-0.7,0.8-2.6,1.4-2.6
		c3-0.3,4.9-1.3,4.3-4.6c-0.4-2.3-1.1-4.6-1.9-6.8c-1-3.1-2.4-6.1-3.4-9.3c-2.8-9-4.7-18.2-3.4-27.8c0.1-0.7,0.6-1.7,1.2-2
		c5.5-3.5,11.1-7,16.8-10.2c0.6-0.3,2.9,0.9,3,1.7c1.6,7.6,3.7,15,8.2,21.5c0.5,0.7,0.8,1.9,0.7,2.8c-0.7,5.7,2.2,10.1,5,14.7
		c0.9,1.4,0,4.8-1.2,6.3C7895.1,6046,7891.3,6049.6,7887.4,6053.7z"/>
	<path onclick="modals(this.id);" id="2489" class="st0" d="M7858,6046.2c-2.5,1.6-4.5,2.9-6.8,4.4c-1.8-4.2-2.7-8.5-8.4-9.2c-5.5-0.7-7.9,3.2-11.2,6.1
		c-3.7-2.2-5.7-4.8-5.2-9.2c0.2-1.8-1.2-3.8-1.7-5.8c-0.4-1.4-1-2.8-1-4.2c-0.2-4.8,1.4-10.2-6-13.7c4.1-2.5,7-4.3,9.8-6.2
		c3.6-2.4,7-5,10.7-7.2c4.2-2.5,8.6-4.7,12.9-7c0.4-0.2,1.7,0.1,1.7,0.4c0.2,0.8,0.3,2.1-0.1,2.5c-2.5,2.1-2.5,3.8-0.1,6.1
		c1,0.9,1,3,1,4.6c0.1,8.6,0,17.3,0,25.9C7853.8,6038.5,7852.4,6043.5,7858,6046.2z"/>
	<path onclick="modals(this.id);" id="2488" class="st0" d="M7792.2,6003.7c6.3-6.3,12.9-13.2,19.9-19.7c2.3-2.2,6-2.9,8.8-4.6c2-1.2,4.7-2.6,5.4-4.6
		c3.1-8.2,10.9-12.1,16.1-18.3c0.6-0.7,2.5-0.5,3.8-0.5c4.3-0.1,8.5,0,13.1,0c-0.1,3.5,1.8,7.4-2,10.8c-1,0.9-0.7,3.5-0.6,5.3
		c0.2,4.5-2,6.7-6.1,8.3c-5,1.9-9.7,4.6-14.4,7.3c-7.4,4.3-14.6,8.8-21.9,13.3c-1.4,0.9-2.5,2.1-3.7,3.3c-3.3,3.6-6.7,2.8-10.6,0.8
		C7797.9,6004,7794.9,6004.1,7792.2,6003.7z"/>
	<path onclick="modals(this.id);" id="2480" class="st0" d="M7949.8,5865.4c2.2-1.5,5.3-3.8,8.4-5.8c7.4-4.8,14.8-9.7,22.3-14.4c3.7-2.3,6-1.2,7.4,2.8
		c0.9,2.7,1.6,5.9,3.4,7.7c3.4,3.3,1.8,7.1,2.4,10.7c0.5,3.1,1.1,6.3,2.5,9c3.1,6.4-0.6,14.7-7.2,14.5c-2.6-0.1-5.8-2.7-7.6-5
		c-3.5-4.6-7.8-6.7-13.3-7c-4.7-0.3-7.6-3-10.4-6.7C7956,5868.8,7952.8,5867.5,7949.8,5865.4z"/>
	<path onclick="modals(this.id);" id="2485" class="st0" d="M7961.5,5898.8c2.2-1.1,4.5-2.3,7.1-3.6c2.9,2.1,6.1,4.4,9.3,6.8c0.1-0.2,0.2-0.4,0.3-0.6
		c1.1,1.9,2.1,3.9,3.3,5.7c1.7,2.6,3.3,2.8,6,0.6c4.5-3.8,9.6-7,14.1-10.2c3,3.2,6.3,6.8,9.7,10.4c5.6,5.8,4.9,9-2.3,11.9
		c-6.6,2.6-12.8,6.1-19.5,8.2c-11.2,3.5-21.3-3.1-24-14.9C7964.4,5908.5,7962.9,5903.8,7961.5,5898.8z"/>
	<path onclick="modals(this.id);" id="2479" class="st0" d="M7925.8,5845.5c0-7-0.2-13.6,0.2-20.3c0.1-1.1,2.1-3.1,3.2-3.1c10.7-0.2,21.3-0.5,32,0
		c3.1,0.1,6.1,2.5,9.1,4c2,1,3.9,2.4,5.8,3.6c-1.9,1.2-3.8,2.7-5.9,3.6c-3.6,1.6-7.7,2.2-11,4.2c-3.3,2-8.7,1.2-9.6,7.2
		c-0.5,3.4-7.2,5.9-11.2,4.8C7934.4,5848.4,7930.4,5847,7925.8,5845.5z"/>
	<path onclick="modals(this.id);" id="2490" class="st0" d="M7929,5942.9c0.9,6.3-2,12-6.7,13.8c-5,1.9-9.4,4.4-13.6,7.9c-3.9,3.2-9.3,4.7-14,7
		c-1.1,0.5-2.2,1.3-3.3,1.9c-4,2.3-8,4.5-11.9,6.9c-4.5,2.7-9,5.5-13.8,8.3c-0.2-0.3-1-0.9-0.9-1.2c1.1-3.6,1.9-7.4,3.5-10.8
		c1.1-2.3,2.8-4.7,4.9-5.9c15-8.3,30.1-16.4,45.3-24.3C7921.7,5944.9,7925.3,5944.2,7929,5942.9z"/>
	<path onclick="modals(this.id);" id="2486" class="st0" d="M7952.8,5903.1c1.8,5.1,3.9,10.8,5.7,16.6c0.3,1.1,0,3.3-0.6,3.6c-4.1,2.1-8.3,4.3-12.7,5.5
		c-4.9,1.4-9.5-2.4-10.6-7.5c-0.5-2.4-1-4.7-1.9-7c-1.7-4.7,0.1-7.5,5.4-8.4C7942.8,5905.3,7947.5,5904.2,7952.8,5903.1z"/>
	<path onclick="modals(this.id);" id="2487" class="st0" d="M7873.8,5959.7c-2.4-8.1,2.6-12.1,8.1-15.3c5.6-3.3,11.7-5.8,17.4-8.9c3.5-2,6.6-4.8,10.1-6.8
		c3.7-2.1,7.6-3.8,11.6-5.3c0.5-0.2,2.8,2.2,2.6,2.9c-0.8,2.5-1.7,5.5-3.6,7c-4.3,3.2-9.1,5.6-13.8,8.1c-4.7,2.6-9.7,4.9-14.3,7.6
		C7885.8,5952.3,7880,5955.9,7873.8,5959.7z"/>
	<path onclick="modals(this.id);" id="2481" class="st0" d="M7954.1,5887.1c-7,8.8-18.3,8.3-28.2,12.2c-1-5.3-2.2-10.8-2.9-16.4c-0.2-1.7,0.9-4.8,2-5.2
		c4.5-1.4,8.5-6.6,14.1-1.2C7943.4,5880.7,7948.9,5883.5,7954.1,5887.1z"/>
	<path onclick="modals(this.id);" id="2482" class="st0" d="M7912.3,5885.2c0,5.5,0.3,9.8-0.2,13.9c-0.2,1.3-2.2,2.8-3.8,3.5c-6.4,2.9-12.8,5.8-19.5,8.1
		c-1.7,0.6-5.1-0.1-5.8-1.3c-0.8-1.5-0.2-4.5,0.8-6.2c2.1-3.5,4.8-6.6,7.3-9.9c0.4-0.5,1-0.9,1.5-1.1
		C7898.7,5890,7904.8,5887.9,7912.3,5885.2z"/>
	<path onclick="modals(this.id);" id="2484" class="st0" d="M7914.4,5908.3c0.3,2.4,0.8,4.1,0.6,5.8c-0.1,1.3-0.5,3.3-1.4,3.8c-4.7,2.8-9.7,5.2-14.5,8
		c-2.7,1.5-5,3.7-7.7,5.3c-3,1.7-6.5,4.9-8.2-1.5c-0.2-0.8-1.4-1.3-2.8-2.4C7892.1,5920.7,7903.3,5914.5,7914.4,5908.3z"/>
	<path onclick="modals(this.id);" id="2477" class="st0" d="M7891.5,5876.8c2.4-4.6,5.3-10.4,8.7-15.9c1-1.6,3.2-2.4,4.9-3.5c0.4,1.7,0.9,3.3,1.2,5
		c0.2,0.8,0,1.7,0,2.5c0,6.5-3.4,10-9.9,10.5C7894.3,5875.5,7892.2,5876.6,7891.5,5876.8z"/>
	<path onclick="modals(this.id);" id="2478" class="st0" d="M7917.1,5858.2c4.4,1.6,7.8,2.9,11.3,4.1c0.1,0.5,0.2,1,0.2,1.5c-3.4,1.3-6.7,2.8-10.2,3.9
		c-0.5,0.1-2.1-1.5-2.2-2.4C7916.2,5863.1,7916.8,5860.8,7917.1,5858.2z"/>
</g>
</svg>
