<?xml version="1.0" encoding="utf-8"?>
<!-- Generator: Adobe Illustrator 19.0.0, SVG Export Plug-In . SVG Version: 6.00 Build 0)  -->
<svg version="1.1" id="Layer1" xmlns="http://www.w3.org/2000/svg" xmlns:xlink="http://www.w3.org/1999/xlink" x="0px" y="0px"
	 viewBox="0 0 16000 8000" style="enable-background:new 0 0 16000 8000;overflow: hidden; display: inline; width: inherit; min-width: inherit; max-width: inherit; height: inherit; min-height: inherit; max-height: inherit;" xml:space="preserve">
<style type="text/css">
	.st0{fill:#8FD4EB;stroke:#000000;stroke-width:3;}
</style>
<g>
	
	<path onclick="modals(this.id);" id="2520" class="st0" d="M8455.1,3844c-10.6,3.6-20,6.8-29.1,10c-3.8,11.6-0.9,22.2,0.4,32.6c1.3,10.2,0.2,19.7-3,29.4
		c-6.2,19-10.9,38.5-17.8,57.2c-8,21.6-3.8,41.4,9.1,58.4c8.5,11.2,8.6,21.5,5.7,33.4c-0.6,2.6-1.5,5.1-2.5,7.6
		c-5.1,13.5-5.1,26.9-2.2,41.1c2.4,11.4,5.3,21.9,13.3,30.6c6.9,7.5,8.6,15.5,5.2,25.7c-5.3,15.9-1,30,11.5,41.6
		c5.7,5.3,11.7,8.6,19.5,8.3c9.3-0.4,18.7,0.1,27.9-1.2c10.3-1.5,18.9-6.4,23.1-16.8c1-2.4,2.7-4.6,4-6.9c2.8-5.2,7.2-7.8,13.1-7.3
		c9.2,0.8,18.4,1.8,28.4,2.8c0.6,3.9,1.9,7.1,1.3,10c-1,5.6,0.6,10.4,2.6,15.5c8.6,21.7,15.3,43.8,16.2,67.6
		c0.4,12.5,3.5,25.1,6.3,37.4c5.4,23.6,6.6,47.4,5.7,71.5c-0.2,5.3-0.7,10.7-0.5,16c0.4,11.6-2,22.5-6.4,33.1
		c-3.1,7.4-5.9,14.8-8.7,22.3c-3.7,10-6.3,20.3-6.6,31.1c-0.2,7.9-1.9,15.8-2.7,23.8c-1.2,12.6-2.4,25.2,1.2,37.7
		c0.9,3,0.5,6.6-0.3,9.7c-5.1,19.2-10.5,38.3-16.1,58.6c-3.8,0.3-7.6,0.8-11.5,0.7c-14.7-0.3-29.3-1.2-43.9-1.3
		c-9.2,0-16.2-4.3-18.7-12.3c-7.3-23-24.3-39.5-37.6-58.5c-8.1-11.4-17.1-22.2-25.1-33.6c-9.8-13.9-23.1-23.9-35.7-34.7
		c-3.8-3.2-8.1-4.9-12.9-4c-7.1,1.3-14.5,2.3-21.1,5c-8.6,3.5-16.5,8.5-25.2,13.2c-3.4,14.9-5.3,29.4-2,45.1
		c4.6,22-0.3,43.8-8.8,64.4c-1.3,3.2-5.2,6.1-8.6,7.5c-6.1,2.4-12.8,3.5-19.2,5.3c-14.2,3.8-28.5,7.2-40.9,15.5
		c-5.3,3.5-11.1,4.2-17.2,3.8c-30.6-1.8-61.2-1.7-91.6-6.9c-7.7-1.3-13.6-4.1-19-9.5c-13.1-13.2-26.7-25.9-39.4-38.2
		c-8.8-0.2-13.3,5.4-18.5,9.2c-26.9,19.7-53.7,39.5-80.2,59.6c-8.2,6.2-16.4,10.4-27,11.3c-17.2,1.4-34.4,4.3-51.5,6.8
		c-8.9,1.3-17.2,0.3-24.9-4.5c-1.7-1.1-3.5-1.9-5.3-2.8c-28.9-14.3-30.3-14.8-61.2-11.9c-7.1,0.7-13.9,3.9-22.4,6.4
		c-9.8-8.7-23-12.3-37-14c-15.2-1.8-22.9,3.5-26,17.8c-1.1,4.9-0.3,9.2,2.6,13.2c9.3,13,18.3,26.2,27.9,39c2.7,3.6,6.7,6.4,10.3,9.3
		c4.7,3.7,9.6,7.1,14.1,10.4c1.2,9.9-4.7,15.4-10.3,21.1c-17.3,17.6-34.6,35.2-51.8,52.8c-5.6,5.7-11.7,11.1-16.5,17.4
		c-6.4,8.5-14.5,11.1-24.4,9.9c-6.6-0.8-13.2-2-19.6-3.5c-6.5-1.5-12.9-3.3-19.2-5.5c-8.5-3-15.4-1.5-21.9,4.8
		c-7.6,7.4-15.8,14.1-23.6,21c-1.1,18.9-1,36.8,4.6,54.2c3.7,11.4,6.9,23,11,34.2c4.4,11.9,2.5,22-6.2,31.2
		c-3.2,3.3-5.7,7.3-8.6,11.1c1.9,15,11.8,26.9,14.9,40.9c-3.5,4-6.4,1-9-0.4c-37.3-19.5-72.8-41.9-105.7-68.2
		c-12-9.6-22.6-20.4-28.5-35.3c-4.7-11.7-13.2-21-21.9-31.1c-13.2,9.5-19.3,22.4-28,33c-8.8,10.8-16.9,22.2-25.3,33.4
		c-3.5-0.3-6.4,0.2-8.6-0.9c-16.5-7.6-29.7-0.7-42.2,9.2c-4.2,3.3-7.8,7.3-12,10.5c-4.2,3.3-8.7,2.1-14.2,0
		c-1.4-5.5-3.3-11.1-4.3-16.9c-2.8-16.4-11.6-28-27-34.5c-5.5-2.3-10.8-5.1-16-7.6c-10.3,1.3-17.6,6.5-23.3,14.5
		c-1.9,2.7-3.9,5.5-6.1,7.9c-7.7,8.2-16.6,12.7-28.4,10.9c-11.8-1.8-23.9-2.4-35.8-3.6c-20.9-2.1-41.4-0.6-60.3,9.5
		c-28.5,15.2-59.5,18.1-90.8,20.6c-7.3,0.6-14.6,1.1-22,1.2c-11,0.2-20.2,3.1-28.7,11.3c-6.9,6.7-17,10-26.4,15.3
		c-12.7-9-26-8.8-40.1-4.6c-6.6,1.9-12.6,3.9-17.4,8.9c-2.3,2.4-5,4.4-7.4,6.7c-8.6,8-18.1,10.7-29.1,4.9c-2.3-1.2-5-1.8-7.4-3.1
		c-8-4.2-15.1-2-22.7,1.7c-15.7,7.8-29.7,17.3-40.7,31.3c-14.2,18-33.5,30.4-51.2,44.4c-6.1,4.8-14.2,7.5-21.8,9.6
		c-17.3,4.7-31.5,13.8-44,26.2c-2.4,2.3-4.9,4.5-7.4,6.7c-11.6,9.9-11.6,9.9-28.7,1.5c1.6-16.1,2.9-32.6,8.7-48.4
		c6.5-17.6,10.4-35.7,11.3-54.6c0.7-15-1.7-28.9-7.6-42.8c-13.6-32.4-19.6-66-14.5-101.4c1.9-13.1,1.9-26.6,2.4-39.9
		c0.5-15.4-1-30.6-7.9-44.8c-4.6-9.3-5.2-19-2.9-29.1c2.5-11,3.9-22.3,6.6-33.3c1.9-7.6,1.8-14.5-2.7-21
		c-13.5-19.3-18-41.2-18.4-64.2c0-1.3-0.2-2.7-0.4-4c-1.1-5.9-6.5-8.7-12-5.7c-4.1,2.2-7.8,5-11.6,7.8c-20.5,14.9-41.1,29.6-61.2,45
		c-9,6.9-17.7,10.4-29.4,8.2c-9-1.7-18.6-0.3-27.9,0c-8,0.3-16,0.7-23.9,1.6c-6.9,0.8-13.3-0.2-19.2-3.8
		c-12.8-7.7-26.7-12.2-41.4-13.5c-21.4-1.8-39.9-11.6-56.6-23.4c-19.3-13.7-39.6-24.2-62.2-30.8c-7-2.1-13.5-5.7-20.5-7.9
		c-19.3-6.2-36.8-15.3-50.9-30.3c-5.7-6-12.8-9.3-20.8-11.1c-15.7-3.5-30.1-10.4-44.7-17.1c-12.1-5.6-24.7-10-37-15
		c-2.9-1.2-5.6-2.8-10.2-5c5.1-5.2,9-9.5,13.3-13.4c23.9-21.2,48-42.3,72-63.4c4.5-3.9,9.8-7.4,7.2-14.9c-4.6-4.1-10.1-2.9-15.2-1.7
		c-18.1,4.3-36.9,6.3-52.4,18c-2.5,1.9-6.1,3.6-9.2,3.5c-15.7-0.8-31.5-1.2-47.2-2.7c-0.9-7.2,0.9-11.8,5.3-15.5
		c4.1-3.3,9.1-5.8,12.2-9.8c3.1-4.1,4.3-9.6,6.6-15.3c9.8-2.3,18.6-6.4,22.1-17.3c0.5-1.7,2.3-3.6,4-4.2
		c14.3-5.3,20.1-18.9,29.1-29.4c5.2-6,10-10.7,19-12.6c11.1-2.4,15.1-14,17.7-24.5c1.2-5,1.3-10.4,2-16c3-1.1,5.4-2.1,7.9-2.8
		c20.8-6.3,20.8-6.3,30.2-24.9c2.4-4.8,4.6-9.6,7.1-14.3c7-13.1,15.9-24.2,29.2-31.9c14.4-8.3,27.9-18.1,42-27
		c6.9-4.4,12.5-9.7,16.2-17.1c7.5-15,17.1-28.3,30.1-39.4c5.9-5,10.1-12.3,13.9-19.1c6.1-10.9,11.2-22.4,17.3-34.6
		c7.2,2.5,13.4,4.5,19.5,6.8c34.2,13.2,68.5,26,102.4,39.8c11.7,4.8,23,6,35,2.8c8.4-2.2,17.1-3.6,25.1-6.8
		c43.3-17.1,86.6-34.5,129.7-52.2c7.9-3.3,15.2-8.2,22.5-12.8c4.1-2.6,4.6-8.9,1.4-12.3c-2.3-2.4-5-4.4-7.7-6.3
		c-37.3-26.9-74.6-53.8-111.9-80.7c-2.2-1.6-4.3-3.2-6.6-4.5c-6.1-3.3-11.5-2.5-15.9,3c-5,6.2-9.2,13.1-14.3,19.2
		c-5.5,6.6-11.5,12.8-17.4,19.1c-3.4,3.6-7.3,6-12.4,3.7c-3.2-1.4-3.4-5.5-0.1-12.3c9.9-20.4,20-40.6,29.8-61.1
		c12-25.2,23.7-50.7,35.7-75.9c4.1-8.6,5.7-17.4,6-27c0.3-9.2,2.8-18.3,4-27.5c0.5-3.8,0.1-7.7,0.1-12.6
		c-39.9-15.3-80.5-27.8-120.7-41.6c-40.9-14.1-82-27.8-123-41.7c-40.3-13.6-80.6-27.3-121.4-41.1c-1.1-6.7-2.1-12.5-3-18.3
		c-2-12.7-6.3-24.4-13.3-35.2c-6.3-9.7-13.9-17.4-24.7-22.4c-14.5-6.7-28.4-14.6-42.9-21.5c-16.3-7.8-31.1-17.9-46.3-27.5
		c-14.5-9.1-20.9-23.8-29.1-37.3c-1.6-2.6-1.6-6.5-1.4-9.7c0.7-12.6,1.5-25,6.6-37.1c4.9-11.6,7.9-24,12.1-35.9
		c2-5.6,3.8-11.6,7.3-16.2c18.1-23.1,36.7-45.8,55.1-68.5c0.8-1,2.1-1.6,4.6-3.5c13.8,0,29.1,0,45.7,0c7.2,6.4,12.2,15.5,16.7,25.3
		c6.1,13.3,13.1,26.2,19.6,39.3c4.3,8.8,10.7,15.1,20,18.5c4.4,1.6,8.4,4,12.7,5.7c8.2,3.3,15.3,7.8,20.8,14.9
		c5.4,7,12.9,11.2,20.8,15.1c23.3,11.5,46.4,23.3,69.3,35.6c6.2,3.4,11.7,8.7,16.4,14.2c23,26.8,45.6,54,68.3,81
		c3.4,4.1,6.7,8.4,10.7,11.8c2.2,1.8,5.9,1.9,10.2,3.1c1.8-5.7,4.1-10.5,4.9-15.5c11.1-65.7,22-131.4,33-197.1
		c1.2-7.1,2.4-14.3,5.7-20.4c4.4-0.5,5.4,2.1,5.8,4.7c2.8,16.8,10.4,31.3,19.5,45.5c12.9,20.2,23.8,41.5,32.6,64
		c5.5,14.2,12.6,27.9,19.9,41.4c7.5,13.9,20.4,22.5,33,31.2c3.2,2.2,8.6-0.5,9.5-4.4c2.7-10.7,2.4-21.1-4.2-30.6
		c-12.8-18.5-17.7-39.9-22.9-61.3c-4.7-19.4-0.2-37,9-53.7c4.2-7.7,7.7-15.2,8.7-24.1c1.7-15.4,10-27.9,22.2-36.5
		c31.3-21.9,58-49,86.8-73.7c18.7-16,36.6-33.1,53.1-51.3c14.7-16.2,27.2-34.5,40.5-52c1.5-2,3-4.9,2.8-7.3
		c-0.7-12.7-1.5-25.9-11.2-35.2c-4.7-4.5-7.1-9.1-8.7-14.9c-1.8-6.4-4.7-12.4-7.1-18.6c-3.2-8.3-9.2-14-15.8-20
		c-16.1-14.6-33.2-24.1-55.7-18.1c-1.8,0.5-3.9-0.5-6.1-0.9c-1.7-1.9-3.9-3.7-5-6c-10.1-20.3-27.8-32.4-47.5-41
		c-27.8-12.1-52.3-29.1-76.8-46.3c-14-9.8-19.6-24.8-15.6-41.6c1.6-6.5,3.7-12.8,6-19.1c6.4-17.6,9.7-36,12.5-54.4
		c3-20.4,5.7-40.9,8.2-61.4c1-7.9,1.8-16,1.7-23.9c-0.2-18.8,2.4-37.1,5.4-55.6c1.4-9.1,0.2-18.5,0-27.8c-0.1-5.3-1.3-10.6-1.1-15.9
		c0.5-10.5,4.3-19.4,14-24.8c18-10,36.2-19.9,54.1-30.1c13.9-7.9,27.5-16.3,41.3-24.3c15.1-8.7,22.5-22.8,24.7-39.1
		c2.2-16.3,6.1-31.3,17.8-43.5c6-6.3,5.9-14.4,6.6-22.4c1.1-11.7,0.7-22.5-8.3-31.5c-4.7-4.7-5.1-10.6-3.6-16.8
		c1.8-7.8,3.7-15.6,5.6-23.3c5.1-20.7,9-41.5,10.7-62.9c1.1-14.5,6-28.6,8.8-43c2.5-12.4,4.2-24.9,6.8-37.2
		c2.4-10.9,5.6-21.7,9.1-34.9c7.6,11.2,10.1,21.8,12.9,32.4c3.6,13.5,7.4,26.9,11.7,40.2c5.1,15.8,15.2,27,29.7,36
		c17.2,10.7,35,15.5,54.9,14.6c26.6-1.2,53.2-2.1,79.8-3.1c14-0.5,28-0.7,41.9-1.7c49.9-3.8,99.8-4.5,149.8-4c3.3,0,6.6-0.6,10.9-1
		c0.8-4.6,2.1-9.1,2.1-13.5c-0.2-18-0.9-35.9-1.3-53.9c-0.1-5.9,0.4-11.8,0.6-18.2c21.3-6.4,42.9-3.1,64.6-7.3
		c3.4-20.4,0.4-40.3,0.9-60c0.5-19.9-0.2-39.9-0.4-60.8c-51.1-39.9-102-79.7-153-119.4c-50.4-39.2-100.8-78.4-151-117.8
		c1.7-2.2,2.3-3.8,3.1-4c21.3-5,42.4-10.6,64.4-13c26.4-3,53.3-3.6,78.8-11.9c8-2.6,14.2-0.7,20,4.9c9.2,8.9,19.7,15.8,31.8,20.2
		c7.2,2.6,12.5,7.3,16.9,13.4c11,15.5,25.6,26.8,41.9,36.4c14.3,8.4,27.8,18.3,41.8,27.3c12.6,8.1,27.2,11.2,41.5,13.4
		c16.4,2.5,30.4,9.3,43.7,18.5c6,4.2,11.9,8.6,18,12.6c11.1,7.3,22.3,14.6,33.6,21.6c5.4,3.4,11.1,4.6,16.7-0.3
		c2.5-6-0.3-11.5-2.2-17.2c-11.5-34.8-22.9-69.6-34.2-104.4c-1.4-4.3-2.3-8.7-3.5-13.5c7.9-4,15.1-2.2,22.2-1.9
		c36.6,1.7,73.2,3.6,109.7,5.1c4.4,0.2,9.8-0.3,13.3-2.6c11.7-7.6,24.2-6.1,36.8-4.5c3.9,0.5,7.8,1.8,11.6,2.9
		c8,2.2,15.4,2.7,22.1-4.1c5.9-5.9,14-7.4,22.2-7.7c14.7-0.5,29.1-2.5,43.2-6.9c4.3-1.3,9.2-1.3,13.9-1.3c50.7-0.1,101.3-0.1,152,0
		c3.9,0,7.9,0.8,12.4,1.2c5.8,11.4,11.6,22.6,17.2,33.9c12.4,25.1,24.6,50.3,37.2,75.2c4.6,9.1,7.6,18.2,8.4,28.5
		c1.1,13.9,3.9,27.7,4.5,41.6c0.3,5.5-3.2,11.1-5.2,17.4c2.4,8,7.5,14.7,15.9,18.4c9.6,4.2,16.2,11.4,22.1,19.6
		c3.9,5.4,7.8,10.8,11.8,16.2c9.1,12.2,20.5,19.8,36.4,21.9c16.2,2.1,31.8,1.2,47.4-2.5c8.3-1.9,16.2-5.3,27-5.6
		c-19.7,19.6-23,41.8-18.7,65.9c3.9,21.6,8.4,43.1,12,64.8c1.3,7.6,4.1,14,9.6,19.2c12.3,11.6,19.9,26.6,29.3,40.3
		c6.8,10,8,21.3,5.9,32.6c-2.5,13.7-6.2,27.1-9.4,40.4c-7.9,5.2-15.1,4.4-23.1,1.2c-10.5-4.2-21.3-7.5-32.2-10.5
		c-5.7-1.6-11.9-2.7-17.7-2.1c-25.2,2.3-50.4,3.8-75.1,10c-27.4,6.9-52.9,18.1-77.5,31.6c-9.7,5.3-18.9,8.9-30.2,7.2
		c-7.9-1.1-16,0-24-0.6c-10.6-0.9-20,2.9-28.5,7.8c-10,5.8-14.7,16.8-19.6,27c-0.5,1.1-0.6,2.7-0.3,3.9c3.8,16,10.1,30.5,26.1,37.9
		c3.3,1.5,8.1,2,11.4,0.8c22.7-8,45.6-8,68.9-3.6c7.1,1.4,14.7,0.5,21.9,1.8c10.8,1.9,15.1,6.4,15.9,17.3
		c0.9,11.3,1.3,22.6,0.8,33.9c-0.4,9.5,0,18.4,4.3,27.2c6.8,14,9.7,28.8,8.8,44.6c-0.5,8.6-0.5,17.5,1.3,25.9
		c3.9,18.7,2.8,37.1,0.2,55.6c-2.6,17.9,1.6,35.5,10.3,50c9,15,21.2,29.1,37.5,38c5.8,3.2,11.6,6.3,18.2,9.8
		c3.9,15.8-9.3,23.1-16.9,33.5c-4.1,0-8.3,0.9-11.9-0.2c-17.4-5.4-34.3-1.8-51.2,2.1c-8.1,1.9-15.7,2.4-23.5-0.4
		c-3.8-1.3-7.9-1.5-11.6-2.8c-32.9-12.2-65.7-8.1-98,1.7c-12.5,3.8-24.1,11.1-35.7,17.6c-3.1,1.7-5.4,5.8-6.9,9.2
		c-2.2,4.8-3.7,10-4.9,15.2c-2.8,11.5-9.6,20.1-18.1,28c-5.6,5.2-11.4,8.8-19.1,9.8c-10.8,1.3-20.8,4.6-28.5,13
		c-11.4,12.4-26.5,14.2-42.1,14.2c-10,0-20-0.8-29.9-0.1c-14.3,0.9-19.6,6.6-21.4,21.2c-0.5,4-0.7,8-1.1,11.9
		c-0.6,5.8,2.1,10,6.1,14c7.5,7.6,15.5,15,21.3,23.7c11.9,18.1,29.4,21.4,48.6,20.8c12-0.3,23.9-2,35.9-2.3
		c19.3-0.5,38.7-0.8,58-0.4c7.8,0.2,15.5,2.4,24.1,3.8c0.2,5,0.6,8.8,0.5,12.6c-0.4,13.3-1.2,26.6-1.5,39.9
		c-0.5,24.1,17.9,36.5,38.9,35.4c23.2-1.1,46.3-4.9,69.4-7.4c27.8-3,55.6-6.1,83.5-8.4c10.2-0.8,19.6-3,28.5-7.9
		c5.8-3.2,11.9-5.9,18.2-8.3c7.9-3,12.8-0.9,16.2,6.6c3.3,7.3,6.2,14.7,9.2,22.1c3.3,8.3,8.7,14.5,16.4,19.4
		c7.2,4.7,13.5,10.7,20.1,16.4c4.1,3.5,7.2,7.8,7.9,13.5c1,9.8,6.2,17.5,12.5,24.5c9.8,10.7,14.6,23.9,17.9,37.5
		c4,16.6,3.5,33.1-4.4,48.8c-4.8,9.5-9.2,19.2-14.1,28.7c-5.5,10.8-8.5,22-10,34.2c-1.3,10.9,2.6,17.8,9.8,24.5
		c4.2,3.8,8.5,5.6,14.4,5.2c14.6-0.9,29.3-0.8,43.9-1.4c9.1-0.4,16.8,2.2,23.8,8.2c7.1,6,14.8,11.3,22.4,16.6
		c8.9,6.2,16,14,20.3,24.1c7.2,16.6,16.3,31.9,28.5,45.5c5.7,6.3,10.2,14.2,13.6,22c14.1,32.4,42.6,46.5,73.1,57.4
		c6.4,2.3,14.3,0.1,21.6-0.2c8.6-0.4,17.2-1.3,25.8-1.5c7.1-0.2,12.9,2.7,17.5,8.1c8.9,10.1,19.8,17.7,30.8,25.3
		c6,4.2,11.3,9.3,17.1,13.8c5.5,4.3,9.2,9.9,10.2,16.7c1.5,9.7,6.5,17.4,12.1,24.9c10.9,14.5,15.6,30.6,13.1,48.7
		c-0.5,3.3-0.2,6.7-1,9.9c-2.8,11-0.5,21.1,4.4,30.9c4.3,8.6,6.1,17.9,4.3,27.2C8453.7,3810.7,8456.9,3826.6,8455.1,3844z"/>
	<path onclick="modals(this.id);" id="2519" class="st0" d="M7339.5,653.4c3.2,18.1,6.4,36.2,9.4,54.3c6.5,38.8,12.9,77.5,19.3,116.3
		c0.5,3.3,0.8,6.6,1.6,9.9c2,7.8,5.7,10.9,14,11.9c2,0.2,4,0.3,6,0.3c28-0.8,56-1.3,83.9-2.5c14.7-0.6,29.1-3.6,43-8.3
		c5.6-1.9,5.7-1.8,16,1.8c-1.2,2.9-1.9,6.1-3.5,8.7c-2.4,4-5.1,7.8-8.1,11.4c-16.5,19.6-27.5,42.1-37.5,65.6
		c-7.1,16.8-11.3,34-14.1,51.8c-0.3,2-0.7,4-0.6,6c0.4,25-1.6,32.4,28.5,26c10.4-2.2,21-3.9,31.6-4.7c10.5-0.8,18.9-4.9,27-11.4
		c32.7-26.3,65.8-52.2,98.7-78.3c5.2-4.1,10.5-8.1,16.8-12.9c3.7,4.8,7.1,8.7,9.9,13c28,43.8,56.1,87.5,83.7,131.5
		c7.9,12.7,17,23.7,29.8,31.6c6.8,4.2,12.9,9.4,19.4,14.1c17.2,12.6,34.9,24.3,53.9,34.3c15.3,8,29.9,17.5,44.6,26.6
		c7,4.4,14,8,22.4,4.9c6.9-2.6,13-0.8,18.9,3c10.9,7.1,22.1,11.6,35.8,8.6c4.5-1,10.4,1.5,14.9,3.9c7.6,4,14.9,8.9,21.8,14.1
		c10.3,7.7,21.7,12.8,33.7,16.9c8.3,2.8,16.4,4.9,25.4,4c5.2-0.6,10.5,0.4,16.3,0.8c6.1,11.4,12.5,22.2,17.5,33.7
		c2.3,5.2,2,11.7,2.5,17.7c1.2,14.6,1.4,29.2,7.4,43c5.6,12.9,21.2,22.5,35.2,20.6c14.1-2,27.7-6.2,38.3-15.7
		c13.3-11.8,25.6-11.3,39.6-1.7c7.6,5.3,16.4,8.9,24.6,13.3c5.1,2.7,10.2,2.9,15.2,0c8.1-4.6,16.1-9.3,23.4-13.5
		c1.2-2,2.4-3.1,2.6-4.2c1.8-16.4,9.2-30.4,18.2-43.8c7.9-11.6,14.4-23.9,18.6-37.4c1.5-4.9,5-9.3,8-13.6c3.6-5.1,8.4-8.4,15.1-8.1
		c2.6,0.1,5.3-0.4,8-0.7c7.9-1,16-1.4,23.8-3.1c6.8-1.5,13.4-4.3,22.7-7.4c-6,8.6-10.2,15.1-14.8,21.4c-5.2,7.1-8.6,14.9-10.5,23.5
		c-4.7,21.4-10.4,42.7-14.2,64.3c-1.9,11-2.4,22.9-0.4,33.8c4.7,25.2-3.2,47.4-13.8,69.1c-4.3,9-9.9,17.3-15,26
		c-2.7,4.6-5.8,9-8.1,13.8c-5.9,12-10,24.1-9.1,38.2c1,15.3,1.7,30.5,5.8,45.4c1.2,4.4,1.7,9.2,1.9,13.8c0.7,22.6,0.8,45.3,1.7,67.9
		c1.1,25.3,2.8,50.5,4.2,75.8c0.4,7.3,1,14.6,1.3,21.8c1.5,34.9,12.9,66.4,32.6,95.1c4.1,5.9,9.1,7.4,15.5,5.9
		c7.8-1.9,15.5-3.9,23.1-6.2c6.4-2,12.8-3.1,19.4-1c3,24.3,16.1,40.4,36.9,49.4c3.7,11.1,6.8,21.3,10.4,31.2
		c3,8.4,7.9,15.3,16.3,19.3c19.8,9.4,32,25,39.2,45.5c2.8,8,8.3,15.1,13.3,22.1c8.4,12,10.5,16.4,15,35.4
		c-8.4,7.9-17.6,14.8-30.2,16.5c-25.9,3.5-47.7,15.9-68.4,31c-5.4,3.9-10.5,8.7-16.5,11.2c-13.1,5.3-21.5,15.3-29.7,25.9
		c-11.5,14.7-23.4,29.1-34.7,43.9c-5.4,7-11.6,12.7-19.6,16.6c-9.5,4.8-18.6,10.5-28.3,14.9c-12.3,5.6-23.1,13.1-32.1,23.3
		c-7.1,8-14.3,15.8-21.7,23.4c-2.2,2.3-5.1,3.8-8.4,6.2c-1.4-2.5-2.9-4-3-5.6c-1.1-17.8-15.5-25.3-27.4-34.3
		c-2.4-1.8-7.8-0.7-11.4,0.5c-8.9,2.8-17.5,6.4-26.8,9.8c-19.4-16.5-44.4-15.5-68.3-21.4c-1-5.2-1.4-10.5-3-15.4
		c-1.6-4.9-3.5-10.2-6.7-14.1c-8.6-10.7-18.7-15.4-33.1-9.4c-10.1,4.2-19.4,8.3-26.6,16.7c-2.2,2.5-4.9,4.5-7,7.1
		c-7,8.7-16.2,13.3-27,15.7c-11,2.5-21.9,5.8-32.8,8.6c-13.7,3.5-27.3,4-41.5,1.7c-11.5-1.8-19.7-7.6-27.1-15.4
		c-3.6-3.9-6.5-8.5-9.5-12.8c-8.5-12-17.3-23.6-31.3-30c-3.4-1.5-5.8-5.2-9.4-8.6c6-10.1,3.6-20.2,1.6-30.7
		c-2.5-13-2.7-26.5-4.3-39.7c-0.5-4.5-1.3-9.3-3.3-13.4c-19.2-39.5-38.7-78.9-58.2-118.3c-0.5-1.1-1.8-1.9-3.6-3.7
		c-5-0.2-10.9-0.6-16.8-0.6c-50.7-0.1-101.3,0-152,0c-8.7,0-17.1,0.3-25.6,3.2c-8.1,2.7-17,4.6-25.5,4.3
		c-15.3-0.4-28.9,2.9-39.1,11.8c-15.1-1.5-28.2-3-41.4-4.1c-6.7-0.6-13.4,0.3-19.1,4.4c-6.5,4.6-13.6,4.3-21.1,3.9
		c-37.9-2.1-75.8-4-113.7-5.8c-6.4-0.3-13.2-1.2-20.3,2.5c4.4,23.4,13.6,44.8,20.5,66.8c6.8,22.1,14.3,44,22.3,68.8
		c-4.9-1.7-7.3-2.1-9.1-3.3c-14.5-9.5-29.1-18.8-43.3-28.7c-14.9-10.5-30.5-18.2-49-20.8c-17.8-2.5-34.6-8.2-49.1-20.3
		c-10.6-8.9-23.3-15.5-35.5-22.3c-13.6-7.6-25.1-17.5-34.2-30.1c-6.5-8.8-14.3-15.6-24.9-19c-9.7-3.2-17.6-9.5-24.9-16.3
		c-9.1-8.6-19.6-10.9-31.3-7.1c-25.6,8.3-52.5,8.2-78.8,11.9c-13.2,1.9-26.4,3.1-39.3,6.5c-9.7,2.5-19.5,4.3-29.2,6.7
		c-4.3,1.1-8.3,3.1-12.7,4.9c1.8,8.6,8.5,11.3,13.6,15.2c43.5,34.1,87.2,68.1,130.9,102.1c50.5,39.3,101,78.6,151.5,117.9
		c5.8,4.5,11.3,9.2,17.6,14.3c0,35.2,0,70.4,0,106.2c-10,5.1-20.9,2.6-31.2,4.1c-9.9,1.4-19.9,2.1-31.1,3.3c-0.7,4.2-2.1,8.6-2.1,13
		c-0.1,19.3,0.3,38.6,0.4,58c0,4.5-0.4,9.1-0.7,14.7c-4.5,0.6-8.3,1.5-12.1,1.6c-20.7,0.2-41.3-0.3-62,0.2
		c-16,0.4-31.9,1.9-47.9,2.6c-13.3,0.7-26.6,0.8-39.9,1.5c-28.6,1.5-57.2,3.4-85.8,4.5c-14.6,0.6-29.3,0-43.9-0.4
		c-8.1-0.2-15.3-3.4-22.7-6.7c-23.6-10.6-38.2-28.1-44.2-53.1c-2.3-9.7-5.3-19.3-7.5-29c-4.7-20.5-14.1-38.2-28.3-53.9
		c-8.8-9.8-16.1-21.2-22.6-32.7c-8.9-15.6-16.7-31.8-24.6-48c-3.2-6.6-6.1-13.4-7.8-20.5c-3.3-13.2-10.1-24.3-17-35.9
		c-14.3-24-27.6-48.6-40.8-73.3c-3.4-6.3-4.6-13.8-6.9-20.8c-3.4-10.1-5.6-20.8-10.5-30.1c-8.8-16.5-13.4-34.5-20.1-51.7
		c-1.4-3.6-1.9-7.8-1.6-11.7c0.5-6.6-3-11.3-6.9-16.1c0.4-1.9,0.5-4,1.4-5.7c6.8-12.8,6.5-25.5-0.1-38.3c-5-9.7-6.2-20.2-6.8-30.9
		c-1-18-2.5-35.9-4.2-53.8c-0.9-9.8,0.4-18.4,7.9-25.6c3.3-3.2,6.3-7.2,7.9-11.4c11.1-29.1,34.7-44.5,61.5-56.3
		c1.2-0.5,2.4-1.3,3.7-1.6c18-3.6,25.5-17.9,33.2-32.1c2.9-5.3,1.9-9.6-3.1-14.3c-18.2-16.8-37.5-32-59.8-43.1
		c-4.6-2.3-10-3.5-15.1-4.2c-9.9-1.3-19.9-2.1-29.9-2.5c-15.5-0.5-30.2-2.9-44.3-10.1c-6.9-3.5-15.3-4.4-23-6.2
		c-18.1-4.2-36.5-7.7-54.5-12.5c-48.9-13-97.7-26.6-146.5-40c-3.8-1-7.5-2.4-11.4-3.7c-3.8-9.2-2.6-17.2,3.3-24.5
		c8.4-10.3,16.5-20.9,25.6-30.7c5.1-5.5,9.1-11.3,11.3-18.5c1.9-6.4,3.7-12.8,6.2-19c6-14.5,8.4-29.1,4.5-44.8
		c-1.4-5.5,0.2-11.8,0.7-17.7c1.1-12.4,8.9-18.8,20.1-21.7c6.4-1.7,13.1-2.2,19.6-3.6c5.2-1.1,10.4-2.3,15.3-4.2
		c11.1-4.5,18.2-11.6,20.6-24.5c3.3-17.6,7.1-35.4,17.9-50.4c3.4-4.8,6.9-9.8,11.4-13.6c9.6-8.3,20-15.6,29.6-23.8
		c7.5-6.5,15.7-9.1,25.6-8.9c34,0.7,68,0.9,101.9,1.3c26,0.3,52,0.6,77.9,1.3c9.9,0.3,17.5-2.3,25-9.3c23.9-22.4,24.8-21.9,32.2-53
		c5.1-21.3,8.7-43,8.6-65.2c-0.2-59.3,0.2-118.6,0.5-178c0.2-30,0.3-60,0.9-90c0.3-14.5,1.6-29,2.5-44.1c21.6-2.9,42.2-1,62.7-1.3
		c21.3-0.3,42.7-0.1,64-0.1c20.7,0,41.3,0,62,0c20.6,0,41.3,0,61.1,0c8.1-7.6,10.9-16.5,13.9-25.2c1.9-5.4,0.4-10.6-4.6-14.1
		c-2.2-1.5-4.3-3.3-6.6-4.5c-9.3-5.2-14.9-13-17.8-23.8c5.6-6.7,12.9-5.9,19.7-3.5c15.1,5.3,30.1,10.8,44.7,17.3
		c20.1,8.9,39.7,18.8,59.6,28.1c15.8,7.4,32.1,8.6,48.2,1.2c15.1-6.9,30.3-13.9,44.6-22.3c27-15.8,54.3-31.2,78-52.1
		C7335.2,653.6,7336.9,653.8,7339.5,653.4z"/>
	<path onclick="modals(this.id);" id="2523" class="st0" d="M8682.5,6361.2c-8.5-7.1-12-15.8-12.1-25.2c-0.2-21.4-11.9-37.6-22.8-54.3
		c-4.3-6.5-9.9-8.6-17.1-6.6c-5,1.4-10,3.3-16.6,5.5c-6.3-4.9-14.8-7.2-24.4-4.3c-3.1,0.9-6.6,0.8-9.9,1.2
		c-25.3,2.6-28.2,1.8-48.3-12c-4-2.8-7.3-5.7-8.4-10.6c-3.3-15-6.6-29.9-9.8-44.9c-0.8-3.8-1-7.7-1.6-13c9.9-0.4,19-0.7,27.5-1
		c4.4-6.1,1.4-10.8-0.8-15.5c-9.8-21.1-19.7-42.2-29.7-63.3c-13-27.7-26.1-55.4-39.3-83.1c-1.9-4-4.7-7.6-7.3-11.8
		c-12.9,3.7-19.8,14.9-31.3,20.2c-5.1-6.5-5.2-13.7-4-20.7c3.9-23.5,1.5-46.4-5.5-69c-4.3-14-8.2-28.1-12.1-42.2
		c-2.5-8.9-7.8-15.2-16.3-18.9c-4.9-2.1-9.6-4.6-14.3-7.1c-7.5-4-16.9-5.3-20.3-14.8c-4.4-12.4-11.4-23.8-7.2-38.3
		c3.1-10.7,4.3-22.3,4.8-33.5c0.6-12.2,5.5-21.8,13.9-29.9c7.2-6.9,14.7-13.5,22.7-19.5c4.1-3.1,9.5-4.5,14.5-6.3
		c10.6-3.8,21.3-7.3,32.3-11.1c0.8-4.7,1.9-8.5,2.1-12.3c0.9-14.8,2.9-28.8,13.5-40.6c5.9-6.5,6.8-15.4,6-24.5
		c-0.9-11.9-0.3-12,10-22.9c9.5,13.9,11.2,31.1,20.1,45c18.5,5.5,30.3-1.5,38.5-18.4c2-4.2,3.7-8.6,6.4-12.4
		c2.6-3.7,5.6-8.1,9.5-9.6c26.3-10.5,38.8-31.1,43.8-57.6c0.4-1.9,1.1-3.8,1.8-5.9c7.7-7.4,17.8-9.1,27.6-9.4
		c10.4-0.3,17.9-4.7,23.8-12.4c5.6-7.4,11.1-14.9,15.4-23.1c7.8-14.7,14.8-29.8,28.6-40.3c3.1-2.3,5.2-6.1,7.2-9.5
		c3.8-6.5,8.9-11.3,15.1-15.5c15.2-10.2,24.6-23.9,23.3-43.2c-0.4-6-0.1-12-0.1-18c-0.1-11.1-5.2-18.9-15.1-23.8
		c-3.5-1.7-7-3.6-11.5-5.9c1.4-4.1,2-7.9,3.9-11c2-3.4,5-6.2,7.9-9c12.5-11.7,17.9-25.9,16.6-43.1c-1.1-14.5-1.4-29.1-2.2-46.1
		c2.7-2.7,7.1-7.3,12.2-12.4c-9.3-11.4-23.4-11.3-34.4-18.8c-4.4-15.5,1.7-30.5,6.6-46c-3.5-2.7-6.8-4.9-9.7-7.6
		c-7.4-6.7-15.2-13-21.7-20.4c-8.4-9.7-7.7-23.3,1.1-32.5c4.1-4.2,9.2-7.6,14.2-10.7c8.4-5.3,17.6-9.6,25.7-15.4
		c9.5-6.8,19.7-10.8,31-12.8c18.3-3.2,36.4-7.8,55.3-8.1c7-0.1,14.1-3.5,20.7-6.4c8.8-3.8,17.4-4.9,27.1-3.5
		c45.6,6.5,91.6,7.3,137.6,5.5c20-0.8,40-0.8,60-0.5c23.5,0.4,44.5,9.3,62.1,24.2c9.8,8.3,12.6,21.5,11.8,34.5
		c-0.5,7.9-2.1,15.8-3.5,23.7c-1.1,5.8,0.3,10.7,4.3,14.6c6.2,6,12.3,12.2,19.3,17.2c16.9,11.9,34.3,23.1,51.4,34.6
		c4.4,3,8.9,5.9,13,9.3c5.8,4.7,10,10.4,11.9,17.9c7.4,29.7,15.2,59.3,22.4,89c2,8.2,4.9,14.5,12.9,18.8
		c19.4,10.4,38.3,21.6,57.3,32.7c6.2,3.6,12,4.9,18.9,1.8c23.5-10.5,48.4-14.1,73.9-14.5c8-0.1,15.9-1.6,23.9-2.1
		c2.4-0.2,4.8,0.8,8.4,1.5c-5.1,16.7-9.9,32.4-14.9,48.1c-3.3,10.3,1.9,27.3,11.1,33.9c2.4,1.7,6.9,2.8,9.3,1.7
		c18.4-8.7,36.5-4.4,54.5,0.6c7.2,2,12.9,0.2,18.5-4.3c12.1-9.5,24.5-18.5,31.8-32.6c3.8-7.5,10.3-11.8,17.8-15.3
		c16.3-7.6,32.3-15.7,48.5-23.6c15.3-7.5,22.5-22,30.3-35.9c0.6-1.1,0.7-2.6,1.2-3.8c5-13.7,10-27.5,14.9-41.2c11-8.7,22-17.2,33-26
		c17.7-14.2,35.2-28.5,52.8-42.7c3.1-2.5,6.3-4.9,9.6-7.2c4.6-3.3,9.4-3.6,15.1-2c12.1,3.5,24.5,5.9,36.7,9.3
		c8.4,2.4,15.6,0.4,23-3.3c11.4-5.7,22.2-11.9,30.1-22.4c3.1-4.1,7.4-7.4,10.7-10.5c6.9,1.3,7,5.5,5.5,9.3
		c-4.3,10.5-8.5,21.1-13.9,31c-12.1,22.3-15.2,46.6-16.9,71.3c-0.8,11.3-1,22.6-1.2,33.9c-0.1,4.6-0.3,9.6,1.3,13.8
		c5.1,13.9,3.7,19.6,23,18.8c3.6-0.2,7.3,1.6,12.3,2.8c-1.3,4.1-1.6,7.5-3.2,10c-5.5,9.1-11.5,17.9-17.1,26.9
		c-4.1,6.5-9.7,10.7-17,13c-7.6,2.4-15,5.1-21,11.1c-6.7,6.7-11.7,13.5-13.6,23.5c-2.2,11.6-7.1,22.8-11.7,33.9
		c-1.7,4-5.8,7-9.1,10.2c-6.6,6.5-13.5,12.7-20.2,19.2c-6.7,6.4-13.2,13.1-20.1,19.4c-5.4,4.9-11.8,8.8-16.9,14.1
		c-26.7,27.6-61.6,35.1-97.5,40.2c-14.5,2-29.1,3.3-43.7,4.6c-15.1,1.3-22.5,13-30.9,23c-1.7,2-1.4,6.6-0.5,9.5
		c6.3,21.8,13.1,43.6,26.9,61.9c10.5,13.9,14.8,29.1,16,46.3c1.2,17.2,5,34.2,8.1,51.2c3,16.7,13.1,28.8,26.5,38.4
		c8.1,5.8,16.4,11.5,24.8,16.9c17.7,11.4,37,17.8,58.4,18.4c0.7,0.6,2,1.2,2.7,2.3c7.9,12.8,18,22.1,33,27
		c11.3,3.7,21.2,11.1,28.8,20.8c2.9,3.7,6,7.3,9.6,10.1c15.2,11.9,30.2,24,41.6,40c2.5,3.5,7.8,5,11.4,7.8
		c10.4,8.2,20.7,16.6,30.9,25.1c7.1,6,13.5,12.8,20.8,18.4c5,3.8,9.1,7.8,10.5,14c4.7,21.6,18.7,36.2,36.1,48.3c2.7,1.9,5.2,4,8,6.1
		c-2.3,8.3-8.4,12.6-14.6,16.2c-25.6,14.9-33.5,40.2-40,66.4c-0.9,3.7-0.3,8,0.5,11.9c3.1,14.9,4.6,30.3,12.4,44
		c3.6,6.4,3.7,12.8-5.4,17.9c-3.7-2.5-8.2-5-12.1-8.3c-5.4-4.6-11.1-6.4-18.3-5.9c-26.7,2-23-1.6-32.9,23.1
		c-4.2,10.5-7,21.5-16.8,30.4c-4.4-2-9.3-3.7-13.8-6.2c-6.5-3.7-12.5-3.3-18.8,0.5c-16,9.6-32.3,18.7-48.1,28.6
		c-10.8,6.8-20.3,15.1-23.9,28.3c-1.8,6.8-7,10.8-12.2,15.3c-18.1,15.7-39.1,22.1-62.6,21.8c-6.4-0.1-11.7-1.4-16-6.4
		c-3.4-4.1-6.8-8.3-10.8-11.8c-13.4-11.6-19.4-25.1-18.5-43.5c1-18.6-2.5-37.6-15.8-52.2c-6.2-6.8-13.7-12.6-21.7-17.2
		c-6.3-3.7-14.4-3.8-21.2-0.1c-8.2,4.4-16.7,8.7-23.6,14.7c-20.1,17.3-43.9,24.6-69.5,27.1c-12.5,1.2-25.3,0.3-37.9,0.7
		c-10.6,0.4-21.3,0.5-31.8,2c-29.2,4.1-33.9,2.8-54.3-18.9c-3.2-3.4-6.4-6.9-9-10.7c-17.3-25.5-42.2-37.5-72-41
		c-7.3-0.9-14.5-2.4-21.8-2.9c-20.9-1.5-38.4-9.6-52.4-25.3c-1.3-1.5-2.7-3.4-4.4-4c-13.3-4.5-25.3-11.2-37.2-18.5
		c-2.6-1.6-7.9-0.3-11.3,1.1c-9.2,3.8-18.3,8.1-27.1,12.7c-9.1,4.7-18.6,6.3-28.8,6.5c-20.8,0.4-36.8,11.4-48.7,27.2
		c-11,14.6-24.8,24.1-41.7,29c-14.6,4.3-29.7,7.3-44.8,9.5c-42.2,6.1-84.5,11.5-126.7,17c-20.4,2.6-38.6,10-53.6,24.2
		c-9.7,9.1-19.4,18.2-28.5,28C8711.7,6335.5,8697.1,6347.9,8682.5,6361.2z"/>
	<path onclick="modals(this.id);" id="2522" class="st0" d="M7439.2,4903.8c5.7,9,11.9,16.2,15.4,24.6c6.4,15.5,17.6,26.4,30.3,36.4
		c36.2,28.6,75.1,52.9,116.5,73.3c2.4,1.2,4.5,2.8,7.5,4.7c0.6,18.3,1.3,36.9,1.9,57c0.7,0.5,2.2,2,4,2.8
		c25,11.5,36.7,31.9,36.8,58.6c0,15.8,3.7,30.7,10.4,44.3c7.8,15.8,8.9,31.7,7,48.5c-0.8,7.2-1.6,14.5-2.3,21
		c9.1,10,17.6,19.3,27.3,29.8c28.4,1.3,58.1,3,89.3,3.4c0.3-5.6,1.2-10.1,0.7-14.4c-1.9-14.4,1-27.7,7.2-40.6
		c2.8-5.9,5-12.3,6.5-18.7c4.6-19.2,14.8-33.9,32.4-43.4c4.7-2.5,9.3-5.4,13.2-9c11.6-10.7,26.1-15.5,40.2-20.8
		c2.3,1.3,4.2,2,5.6,3.4c24.3,23.8,48.3,47.8,72.8,71.3c6.3,6.1,8.8,12.5,8.4,21.2c-0.8,16-0.7,32-0.7,48c0,8.5,3.1,13.1,10.4,14.9
		c10.3,2.5,20.8,5.3,31.4,1.2c3.6-1.4,7.9-2.8,10.2-5.6c8.5-10.2,19.9-15.2,31.8-19.8c7.4-2.8,14.6-6.2,22.8-9.7
		c4.8,3.4,9.8,6.5,14.4,10.2c8.4,6.7,17,13.2,27.5,15.9c18.3,4.7,26.1,19.3,33.9,34.1c0.6,1.2,0.9,2.5,1.1,3.8
		c4,22.1,16.1,38.7,34.6,51.2c6.5,4.4,11.7,10.8,18.4,17.2c-1.2,7.6-3,15.4-3.5,23.2c-1.1,17.9-1.5,35.8,2.3,53.7
		c6.3,29.3,10.9,59,24.2,86.3c2.6,5.3,5.6,10.6,9.4,15.1c12.6,14.6,25.7,28.9,38.6,43.2c18.3,20.3,36.2,40.9,55.2,60.5
		c10.1,10.4,22.3,18.9,33.7,28c5.6,4.5,13,6.9,17.4,15.1c-4.1,3.8-8.4,7.7-12.5,11.8c-4.7,4.6-9.5,9.2-13.9,14.1
		c-5.9,6.7-8.3,14.5-8.7,23.7c-0.5,11.9-1.9,24-5,35.5c-5.3,19.3,2.4,35.3,10.3,51.4c1.5,3.1,5.8,5.2,9.3,7
		c8.2,4.3,16.7,8.3,25.1,12.3c6.4,3,10.9,7.3,13,14.2c2.8,9.5,6.2,18.9,9,28.5c2.3,7.7,3.8,15.5,6.1,23.2c5,16.9,6.4,34.2,3.3,51.4
		c-2.4,13.7,1.9,26.1,2.3,40.2c16.7-1.9,23.4-17.4,38.2-21.6c23.2,47.5,45.3,95.7,67.8,143.8c1,2.2,0.9,5,1.6,8.9
		c-6.8,0-12.5,0.2-18.3-0.1c-6-0.3-11.9-1-17.9-1.5c-14.1-1.3-28.1-2.8-38.5,11c-9.2-4-18.1-6.9-26.1-11.5
		c-11.9-6.7-24.5-5.5-37-4.3c-4.2,0.4-8.3,3.8-12.2,6.3c-17.9,11.6-35.8,23.1-53.5,35c-10.8,7.3-22.1,12.2-35.5,10.6
		c-2-0.2-4-0.3-6,0c-27.9,3.8-54.2-1.4-79.6-13c-27.7-12.6-54.8-6.4-81.3,3.7c-7.6,2.9-14.8,5.5-22.9,5.4
		c-29.3-0.2-58.6-0.3-87.9-0.5c-11.2-0.1-22.3-0.6-35.4-0.9c1.8-4.5,2.7-7.5,4.2-10.1c15.3-28.8,30.7-57.6,45.8-86.5
		c1.7-3.3,1.8-7.5,2.8-12.2c-4.1-1.7-7.5-3.7-11.2-4.6c-5.1-1.3-10.8-1-15.7-2.9c-10.4-4-19.5-1.3-28.6,3.7c-4,2.2-8.2,4.5-12.6,5.3
		c-13.3,2.2-23.3-3-29.4-15.2c-0.9-1.8-2-3.5-2.6-5.4c-6.3-18.6-17.9-34-29.5-49.5c-6.5-8.7-13.7-16.3-23.8-20.6
		c-7.6-3.3-13.6-8.3-17.6-15.6c-8.6-15.8-22.2-26.2-37.5-34.9c-4.1-2.3-8.2-4.5-12-7.3c-8.4-6.1-17.8-8.3-28.1-8.7
		c-9.9-0.4-19.8-2.1-29.7-3.4c-17.7-2.3-33.7-7.8-44.9-22.9c-1.6-2.1-3.7-3.8-5.6-5.7c-16.1-15.3-33.4-28-56.4-31.8
		c-13.7-2.3-27-7.2-40.4-11.1c-5-1.4-10-3.2-16.2-5.2c7.8-20.4,9.8-40.6,7.7-61.2c-8.7-6.4-18.2-4.9-27.1-3.3
		c-15.1,2.8-30.1,5.1-45.5,5.9c-5.7,0.3-11.7,2.7-16.7,5.6c-7.3,4.2-13.4,3.6-20.5-0.5c-14.9-8.7-30.7-15.8-44-27.3
		c-5.4-4.7-12.4-7.7-19.1-10.5c-22.3-9.3-42.5-22.2-62.2-35.9c-9.5-6.6-10.2-14.9-1.4-22.9c4.3-3.9,9.8-6.7,15-9.5
		c5.3-2.8,10.6-5.3,14.1-10.7c12.1-18.6,27.4-34.3,44.6-48.2c1-0.8,1.6-2.1,3-4c0-8.4,0-17.6,0-28.1c-2.7-2.5-5.8-6.1-9.6-8.5
		c-12.5-8.2-22.3-18.7-29.2-32.1c-6.4-12.3-12.6-15.2-24.3-2.9c-5.2,5.5-9.1,11.4-11.8,18.3c-2.1,5.4-5.9,8.4-11.3,10.4
		c-15.6,6-31,12-48.2,11.1c-11.6-0.6-22.2,2.9-32.9,7c-21.7,8.3-42.8,18.6-66.1,22.2c-7,1.1-11.6,6.1-16.4,10.7
		c-5.2,5-10.6,10.1-16.6,14c-7.9,5.2-16.7,7.6-26.6,6.8c-5.8-0.5-12.1,0.1-17.6,1.8c-12.5,3.8-24.8,3.5-38.7-0.1
		c-1.9-5.5-4.2-11.7-6-17.9c-22.7-77.3-45.4-154.6-68.1-231.9c-1.7-5.7-3.5-11.5-5.6-17c-1.3-3.5-7.4-5.3-10.3-3
		c-3.6,2.9-6.8,6.2-10.1,9.5c-9.3,9.3-21.1,11.6-32.5,5.2c-12.3-6.8-23.2-14.9-29-29c-5.3-12.9-14.8-24.3-18.4-37.5
		c-3.6-13.2-1.7-27.7-2.9-41.6c-3.4-38.5-6.9-76.9-10.9-115.3c-1.1-10.5-3.1-21.2-6.2-31.3c-3.9-12.6-1.8-23.9,4.8-34.4
		c8.1-13,16-26.4,26.2-37.6c12.4-13.7,17.7-29.3,19.7-46.8c1.8-15.9,3.6-31.8,5.6-49c3.7-2.3,8.1-5,12.6-7.8
		c5.6-3.5,12.2-6,16.7-10.7c7.1-7.4,15.1-10.2,24.9-10.2c26.1-0.1,51.8-3.5,77.4-8.2c8.6-1.6,17-3.3,24.6-7.7c1.7-1,3.6-1.7,5.4-2.7
		c20.5-11.3,42.6-14.7,65.7-12.5c11.3,1.1,22.7,1.6,33.8,3.7c15.7,3,27-3.3,36.6-14.8c2.6-3.1,4.7-6.6,7.6-9.3
		c3.3-3.1,7.3-5.6,10.9-8.2c3.2,1.2,5.7,2,8.1,3c18.1,7.4,29.6,19.7,31.1,40.2c0.3,4.5,2.4,8.9,3.9,14.3c4.5,1,9,1.8,13.3,3.1
		c5.8,1.7,10.3,0.2,14.5-3.9c4.8-4.6,9.5-9.4,14.9-13.3c8.9-6.4,18.3-10.8,29.6-4.9c3.4,1.8,7.6,2.2,12.4,3.4
		c3.1-3.1,6.7-5.9,9.5-9.5c11-14.3,21.6-28.8,32.5-43.1C7431.6,4911.6,7434.9,4908.5,7439.2,4903.8z"/>
	<path onclick="modals(this.id);" id="2521" class="st0" d="M8070.9,4596.3c12.1,8.4,22,18.2,31.3,28.6c9.4,10.4,19.9,15.6,34.2,17.4
		c31.8,4.1,63.8,3.9,95.6,5.9c4.3,0.3,9.5-1,13.2-3.3c15.6-9.7,33.2-13.5,50.5-18.3c6.4-1.8,12.7-3.7,19.3-5.6
		c12.7-27.7,17.4-56,11.4-85.7c-0.4-2-0.9-3.9-1-5.9c-0.5-14,1.2-26.7,17.4-31.7c3.1-1,5.9-3,8.8-4.6c10.4-5.8,19.5-5.4,29.1,3.1
		c11.4,10.3,22.8,20.4,31.9,32.9c12.5,17.3,25.6,34.1,38.5,51.1c8,10.6,16.1,21,20.3,34.1c3.8,12,12.9,17.6,26,17.6
		c16.5,0,33,1.2,51,1.9c-1.4,4.6-1.8,7.9-3.4,10.6c-8.3,13.9-9.4,29.1-7,44.5c1.3,8.6-0.3,16-4.7,22.9
		c-6.8,10.9-10.8,22.8-14.1,35.1c-1.4,5.1-3,10.3-5.4,15c-14.7,28.5-8.1,53.9,11,77.6c0.8,1,1.4,2.2,2.4,3.8
		c-3.6,20.6,7.7,36.5,18.3,52.6c1.4,2.1,4,4.6,6.1,4.6c9.4,0.2,14.4,6.2,18.6,13.1c5.8,9.6,13.5,11.7,23.8,8
		c10-3.6,20.3-6.3,30.4-9.7c6.3-2.1,12.3-4.7,18.3-7.1c4.6,5.4,6.5,11,5.5,17.2c-1.6,9.9,2.1,18.2,6.8,26.5
		c6.2,11,11.6,22.5,17.8,33.5c4.6,8,5.4,16.2,3.3,25c-1.9,7.8-2.9,15.8-5,23.4c-2.9,10.4-1.4,19.7,5.6,28.1c2.1,2.5,3.9,5.4,6.7,9.5
		c16.5,3.1,34.1,6.4,53.1,10c-12.7,11.8-26.6,19.5-40.5,26.9c-7.7,4.1-14.7,8.9-20.3,15.8c-4,5-5.2,10.2-5.3,16.5
		c-0.4,18.6,10,31,22.9,42.1c3.5,3,7.5,5.3,11,7.8c-4.1,16.5-5.4,32.3-3.7,49.3c8.7,4,17.5,8,27.5,12.5c-4,4.3-6.9,7.6-10.5,11.6
		c10.8,17.4,7.4,37,7.6,56.1c0.1,8.4-4.3,15.3-9.3,21.6c-3.3,4.2-7,8-10.7,11.8c-7,7.2-9.7,15.6-8.1,26.4c5,2.7,10.2,5.5,15.4,8.2
		c7.2,3.7,10.8,9.7,11.2,17.6c0.2,4.7-0.2,9.4,0.2,14c1.3,17.3-7.3,29.3-20.7,38.3c-6.8,4.6-12.4,9.8-16.6,16.8
		c-2.3,3.9-5.2,8-8.7,10.8c-11.8,9.5-18.6,22.3-25.2,35.5c-3.8,7.7-8,15.4-13.1,22.3c-6.9,9.4-16,15.7-28.5,15.8
		c-4.6,0.1-9.3,1.1-13.7,2.3c-9,2.4-15.4,7.4-16.4,17.6c-0.4,3.9-1.9,7.7-3,11.6c-4.8,16.9-14.6,30.4-30.8,37
		c-11.6,4.8-18.3,12.7-22.8,23.4c-2.8,6.9-6,13.6-12.5,17.6c-3.7,2.3-8.2,3.3-12.4,4.9c-7.3-7.3-8.6-16.2-11.8-24
		c-2.3-5.5-3.9-11.4-6.4-16.8c-4.8-10.4-15.3-11.3-21.7-2.2c-5.1,7.3-8.7,14.8-6.9,24.2c1.8,9.1-0.5,18.1-6.7,24.2
		c-8,7.9-8.9,17.6-10.9,27.2c-1.3,6.5-1.9,13.1-2.9,20.6c-11.2,6.8-24.1,9.8-37.1,13.5c-24.9-15.5-48.2-32.6-67.5-55.2
		c-25.9-30.4-53.4-59.5-80.4-88.9c-5.1-5.5-8.7-11.5-11.9-18.2c-11.6-24.4-16.4-50.6-21.6-76.7c-6.3-31.6-5.9-35.6,1.1-79.5
		c-2.1-7-7.8-11.8-13-16.9c-2.4-2.3-4.9-4.6-7.6-6.5c-17.6-12.1-30.1-27.5-33.9-49.4c-2.1-12.2-11-21.1-18.5-30.4
		c-2.3-2.9-6.2-5.2-9.8-6.4c-17.4-5.7-32.1-15.8-46.1-27.3c-2-1.7-4.4-2.9-6.7-4.3c-8.6-0.2-15.4,4.6-22.5,7.8
		c-15.1,6.8-31.3,11.2-42.8,24.8c-2.9,3.5-9.6,5.1-14.5,5.1c-7.1,0-14.7-0.5-21.8-7.2c-2.2-21.9,1.3-45.2-1-68.9
		c-3.9-4.1-7.8-8.6-12.1-12.7c-22.9-22.4-46-44.5-68.6-67.1c-6.6-6.6-12.8-8-21.4-4.1c-13.3,6.1-27.1,10.9-38.3,21
		c-4.9,4.4-11,7.5-16.7,11c-14.3,8.8-23.2,21.6-27.7,37.6c-2,7-3.6,14.4-6.9,20.8c-7.3,14.1-9.9,28.9-9.2,44.5
		c0.1,2.6-0.3,5.2-0.5,9.2c-25.4,3.3-50.3-1.3-75.5-1.3c-8.1-9-16.1-17.8-24.2-26.7c0.7-12,1.1-24,2.1-35.9c0.7-8.2-0.5-15.7-4-23.3
		c-3.6-7.8-6.2-16.2-9.3-24.2c-3.6-9.5-5-19.2-4.8-29.4c0.5-29.8-15.5-49.4-41.4-65.8c-2.7-6.6-1.2-16.1-0.7-25.1
		c1.3-23.2-2.3-45.1-13.2-65.7c-2.1-4.1-3.4-8.6-5.3-13.5c2.7-3.9,5.1-7.7,7.9-11.3c8-10.2,10.2-21.2,6.2-33.7
		c-4.7-14.6-9.8-29.1-13.4-43.9c-2.5-10.2-2.8-21-3.9-31.5c-0.5-4.8,0.9-9.2,4.8-12.5c8.1-6.8,15.3-14.8,25.2-20.3
		c5.7,1.6,11.3,3.6,17.1,4.8c9.8,2.1,19.5,4.3,29.4,5.4c13.2,1.4,23.6-2.4,33.3-13.3c21.2-23.9,44.3-46.1,66.9-68.7
		c8.5-8.5,13-18.2,12.8-30.6c-1.9-1.8-3.5-4-5.8-5.2c-23-12.3-33.8-35.2-48.4-54.9c-5.1-6.9,1.4-19,10.9-18.3
		c9.9,0.7,20.3,0.9,28.1,8.3c8.4,7.9,16.1,8,26.9,3.2c16-7.1,33.4-7.9,50.1,0.1c5.4,2.6,11,4.9,16.1,8.1c13.3,8.2,27.3,9,42.3,6.4
		c15.7-2.7,31.6-5.1,47.5-6.4c10.5-0.8,19.1-4.4,27.3-10.7c24.9-19,50.2-37.5,75.3-56.2C8060.7,4603.2,8065.7,4599.9,8070.9,4596.3z
		 M8175.6,5044.1c-0.7-0.6-1.4-1.2-2.1-1.7c-0.1-0.1-0.7,0.7-1.1,1.1c0.7,0.7,1.5,1.4,2.2,2.1
		C8175,5045,8175.3,5044.6,8175.6,5044.1z"/>
	<path onclick="modals(this.id);" id="2527" class="st0" d="M8574.3,7093.2c0.6,11.4,1.4,21.9,1.8,32.5c0.5,14.6,0.4,28.9-1.1,43.7
		c-3.3,33.4,1,66.5,14.8,97.6c3.2,7.2,8.8,13.2,13.5,19.7c4.2,5.9,9.5,11.3,9,20.4c-4.5,4.8-9.5,10-15.6,16.4
		c0,4.4-0.6,9.7,0.1,14.9c2,14-6.8,22.3-15.6,30.5c-2.2,2.1-6,2.7-9.1,3.5c-9.5,2.5-19.1,4.7-30.3,7.4c-5.5-3.6-10.2-10.2-13.9-17.2
		c-4-7.5-9.5-12.5-17.3-15.6c-11-4.4-18.4-12.5-24-22.9c-14.6-26.9-30.3-53.3-39.7-82.6c-1.2-3.8-2.6-7.8-5.1-10.7
		c-2.4-2.8-6.1-6-9.4-6.1c-11.2-0.4-22.4-0.6-32.8,5.8c-7.8,4.7-13.8,10-16.4,18.9c-6.2,21.7-24.8,28.1-43.4,33.9
		c-6.8,2.1-11.6-3.2-10.3-10.4c0.6-3.2,1.8-6.4,3.4-9.2c2.7-4.6,5.7-9,8.9-13.3c8.6-11.6,11.3-24.4,12-39c1-21.5-9-37.2-21.7-51.8
		c-9.6-11-21.2-20.2-32-30.1c-6.4-5.8-13.5-11-19.3-17.3c-15.3-16.8-31.2-32.7-51.2-44c-3.2-1.8-5.3-5.4-10.8-11.4
		c8.9,2.7,13.8,4.2,18.6,5.7c5.1,1.6,10,3.7,15.2,4.7c2.1,0.4,5.6-0.9,6.9-2.6c1.3-1.7,1.5-5.4,0.4-7.4c-2.2-4-5.5-7.4-8.2-11.2
		c-6.3-8.5-13.1-16.8-18.8-25.8c-57.1-90.8-113.9-181.8-170.8-272.7c-3.5-5.6-7.2-11.2-11.2-17.6c-38.5-5.8-77.9-4.7-117-7.6
		c-39.1-2.9-78.3-4.2-118.7-6.3c-2.5-19.4,2.3-37.5,1.6-56.4c5-0.9,8.8-2.1,12.6-2.1c24-0.2,47.8-1.5,71.4-7.2
		c10.8-2.6,22.5-2.3,33.8-2.3c7.4-0.1,12.9-2.2,16.9-8.4c0.7-1.1,1.8-2,2.4-3.2c5.6-9.9,14.7-15,25.2-18.2c4.4-1.4,8.7-3,13.6-4.7
		c3.1,2.9,5.9,5.6,8.8,8.2c3.4,3.1,6.7,6.5,10.4,9.3c16.5,12.7,33.6,15.4,52.5,1.3c1-6,3.2-13.2,3-20.3c-0.2-8.8,3.3-15.3,8.8-21.4
		c8-8.9,15.3-18.6,23.9-26.8c7.6-7.2,16.7-12.9,24.3-18.6c11.8,1.7,18.5,7.3,21.8,17c0.9,2.5,2.4,4.8,3.3,7.3
		c8.6,23.3,27.1,35.4,49.3,43.1c5,1.7,10.1,3.1,15.6,4.7c4.6,11.4,9,22.5,13.5,33.6c6.6,16,21.3,25.6,38.8,25
		c13.3-0.5,26.6-1.7,39.9-2.3c13.3-0.6,26.6-0.8,40-1.2c7.8-8.3,3.4-19.6,8.7-30.1c21.7-6.4,44.6-13.1,67.7-19.9
		c7.4,2.9,10.1,12.1,19.3,13.1c8.5,1,15.4,0.8,22.1-5.3c6.4-5.8,13.7-10.5,20.6-15.7c5.5-4.1,11.7-5.6,18.6-5.9
		c12.6-0.6,25.1-2.4,37.7-3.4c12.7-1,22.6-6.9,30.6-16.6c5.1-6.1,10.7-11.8,16.9-18.7c11.7-1,24.2-2.2,37.1-3.3
		c8.6,8.6,16.6,17.4,27.9,22.3c4.7,2,8.6,6.3,12.3,10.1c6.9,7,14.8,13.2,20.5,22c-5.6,7.8-15.8,8-22.1,15.7c0.4,2.9,0.3,7,1.4,10.6
		c3.6,11.4,7.2,22.8,7.4,35c0.2,8.7,5.8,14.8,13,18.9c12.2,6.7,24.3,14.2,37.3,19c13.8,5.1,24.1,13.2,32.2,25.2
		c7.4,11,15.7,21.5,24.1,31.8c4.9,5.9,7.5,11.7,7.8,19.7c0.9,28,1.7,28.9,23.4,47c4.1,3.4,8.4,6.6,13,9.2c10.5,6,19.5,13.8,28.4,23
		c-3.7,8.1-9.9,13.3-18.3,12.5c-20.4-1.9-40.9-1.3-61.2-3.6c-4.6-0.5-9-2.3-13.6-3.1c-24.2-4.2-46.7,14.2-47,39
		c-0.4,30.7-0.1,61.3-0.1,92c0,7.3,0,14.6,0,21c-10,11-21.2,15.6-34.7,15c-9.3-0.4-18.7-0.1-28-0.8c-9.1-0.6-16.8,1.5-24.2,7.1
		C8609,7067.9,8591.7,7080.3,8574.3,7093.2z"/>
	<path onclick="modals(this.id);" id="2525" class="st0" d="M9694,6548.9c-10.3-9.1-14.2-22-16.9-34.7c-2.2-10.2-6.2-18.8-12.3-26.8
		c-3.7-4.8-7.4-9.4-13.5-11.4c-6.8-2.2-10.7-7.5-13.9-13.5c-5.6-10.6-11.3-21.1-17-31.7c-1.9-3.5-3.8-7.1-5.8-10.5
		c-10.1-16.8-22.4-29.7-44.6-27.2c-5.8,0.7-12-0.9-17.8-2c-10.6-2.1-21.1-1.8-31.7,0c-7.8,1.3-15.9,1.8-23.8,1.4
		c-13.3-0.7-26.5-2.3-39.7-3.9c-5.2-0.7-10.3-2.5-15.4-3.8c-8.4-2.1-13.8-6.9-16.5-15.4c-4-12.7-9.6-24.7-16.4-35.3
		c-8.4-3.2-15.6-1.2-22.4,1.3c-33.6,12.5-68.9,14.4-104,17.9c-11.8,1.2-21.7,4.7-30.8,12.4c-6.4,5.4-11.4,11.3-14,19
		c-4.6,14-13,24.5-27.2,30.5c-1.4,5.8-2.7,11.4-4.1,17.3c-2.2,0.4-4.1,1-6,1c-15.8,0.4-23.3,5.8-26.9,20.6
		c-2.8,11.6-5.5,23.4-7.2,35.2c-1.2,8.2-4.1,15.3-8.4,22.2c-16.3,25.9-33,51.4-43.2,80.7c-4.9,14.1-13.2,26.9-23.9,38.6
		c-13.1,14.2-21.2,32.2-21.8,52.5c-0.8,23.9-9,45.6-20.4,66.2c-6.5,11.7-11.3,24-16.2,36.4c-5,12.9-12.3,25-18.9,37.3
		c-3,5.6-8.1,8.4-14.2,10.2c-14.1,4-28,8.6-42.2,12.3c-13.9,3.6-25.8,10.3-36,20.4c-4.2,4.2-9,7.8-14.5,12.7c-2-4-4-7.2-5.1-10.7
		c-13.7-40.3-27.1-80.8-40.9-121.1c-1.9-5.6-4.7-11.1-8.4-15.7c-13.5-17.3-27.8-34.1-41.3-51.3c-6.5-8.3-13.1-16.9-18.2-26.1
		c-12.9-23.3-25-47-37.5-70.7c-32.4-6-41.2-1.7-59.1,29.4c-6.2-1.2-9.3-6.6-13.4-10.5c-10-9.8-19.8-19.5-32.7-25.9
		c-9.2-4.6-15-13.3-19-22.5c-6.1-13.8-14.5-25.3-27.9-32.8c-0.9-0.5-1.2-2.2-1.8-3.4c0.2-1.3,0-3,0.8-3.7c9.2-7.7,12.4-18,14.7-29.5
		c3-15.1,5.9-29.8,1.9-45.3c-2.5-9.7,2.2-18.4,8.6-25.5c3.9-4.4,8.9-8.1,14-11.2c38.2-23.7,71.3-53.4,101.7-86.4
		c14-15.2,29.6-29.2,50.3-34.7c12.8-3.4,26-5.5,39.2-7.3c40.9-5.7,81.9-10.7,122.8-16.6c19.9-2.8,39.3-7.6,55.5-20.6
		c5.1-4.1,10.8-8.4,14-13.8c7.6-12.9,20.6-18.6,32.4-25.8c3.2-1.9,7.7-2.6,11.5-2.3c16.7,1,31.3-5.1,45.7-12.2
		c5.9-2.9,12-5.5,18.5-8.4c10.4,6.2,19.8,13.7,32,16c3.4,0.6,6.4,4.5,9.1,7.4c13.3,14.4,30,21.6,49.1,23.9c11.9,1.5,24,2,35.6,4.7
		c21.7,5,41.8,13.7,55.1,32.9c8.8,12.7,19.9,23.3,31.4,33.4c3.7,3.3,7.8,4.8,12.7,4.5c12.6-0.9,25.2-2,37.8-2.6
		c10-0.5,19.9-0.6,29.9-0.5c22.7,0.4,45.1-0.4,67.1-7.5c14.2-4.6,27.3-10.4,38.4-20.4c3.5-3.1,7.1-6.1,10.9-8.7
		c16.8-11,23.9-10.7,38.9,2.9c8.5,7.7,14.2,17,17.2,28.5c3.8,14.4,3.8,29,4.4,43.6c0.3,7.1,2,12.7,7.1,17.9
		c8.5,8.5,16.4,17.5,24.5,26.3c3.8,4.2,8.4,6.3,14.2,5.9c10-0.6,20-0.7,29.9-1.7c21-2.2,36.7-14.9,52.3-27.3c2.4-1.9,4-5.4,4.8-8.5
		c3.8-13.8,13.4-22.8,24.9-30c16.4-10.1,33.1-19.8,49.8-29.8c6.6,3.6,12.3,6.7,18.4,10c1.3,11.5-6.4,20.4-7.4,30.9
		c-0.9,9.9-2.9,19.7-4.5,30.2c-7.7,2.9-15.1,5.7-22.5,8.4c-20.5,7.6-35.7,20.3-40,42.8c-2.1,11.1-3.2,22.3-5,33.5
		c-1.2,7.2-1.9,14.7-4.3,21.5c-7.9,21.9-15.5,44-32.1,61.5c-3.5,3.7-5.5,9-7.2,13.9C9703.1,6542.9,9700.6,6547.1,9694,6548.9z"/>
	<path onclick="modals(this.id);" id="2518" class="st0" d="M7975.4,6236.9c4.2-0.2,8.7-0.6,13.3-0.6c37.3,0.3,74.6,0.6,111.9,1.1
		c10.1,0.1,19.2-2.2,28.8-6.3c23.1-9.8,47-14.4,71.4-3.1c23.9,11.1,49,16.6,75.6,13.4c3.3-0.4,6.7,0,10-0.1
		c14.7,0,29.5,0.5,41.4-9.2c8.6,3.5,11.9,10.5,15.7,16.3c10.8,16.4,25.9,28.5,40.3,41.4c3.2,2.9,8.1,5.2,12.4,5.5
		c17.3,1.3,34.8,3.6,51.8,1.8c21-2.2,42.3-5.7,60-19.4c3.6-2.8,8-4.6,12.9-7.3c6.8,3.8,14,7.3,20.6,11.5c7.1,4.4,14.1,6.4,22.7,4.8
		c9.8-1.7,19.9-2.1,29.8-2.6c3.1-0.2,7.6-0.1,9.3,1.8c7.1,8,14,5.4,21.3,0.8c2.7-1.7,5.7-3.1,9.3-5c3.1,3,6.4,5.3,8.6,8.4
		c11.2,15.9,20.2,32.6,21.6,52.8c0.6,8.3,4.6,16.3,7.1,24.6c-0.6,1-0.9,2.5-1.9,3.2c-10.8,7.8-21.7,15.4-32.5,23.1
		c-5.4,3.9-11.3,7.4-15.7,12.2c-8.9,9.7-14.5,21.4-10.6,34.7c5.4,18.6-1.8,35.5-5.1,53c-0.5,2.9-3.3,5.9-5.8,7.8
		c-7.3,5.6-9.1,12.7-6.4,22.7c10.3,8.7,25.2,15.4,27.5,33.7c-12.5,4-25.4,1.4-38,5c-6.8,7.6-13.8,15.6-20.9,23.5
		c-4.1,4.6-8.9,8.1-15.1,9.1c-11.8,1.8-23.7,5.1-35.5,4.6c-17.2-0.7-31.1,5.3-44,15.3c-3.2,2.4-6,5.2-9.1,7.7
		c-8.5,6.9-14.4,6.2-21.9-2.5c-1.3-1.5-2.1-3.4-3.4-4.9c-0.8-1-2.1-1.5-4.4-3.2c-26.6,6.8-53.9,14.8-81.4,23.5
		c-1.5,9.2-2.9,17.6-4.4,26.4c-2.9,0.9-5.3,2.2-7.8,2.3c-21.3,1.1-42.5,2.2-63.8,3c-17.5,0.7-29.9-7.6-36.7-24.2
		c-4.5-11-9-22.1-13.3-32.5c-10.9-4.2-21.1-7.4-30.7-11.9c-14.9-6.9-26.9-17.2-32.7-33.2c-0.5-1.3-1.2-2.4-1.6-3.7
		c-4.7-15.6-15.8-23.9-31.5-27.3c-25.8,12.7-43,34.7-60.4,56.6c-2.2,2.8-2.8,7.3-3.4,11.1c-1.2,7.8-2,15.7-2.7,22.1
		c-13.6,11.7-25.6,10.3-37.6,1c-2.6-2-5.4-3.9-7.9-6.1c-9.3-7.7-14.5-17-11.7-29.6c2.1-9.7,3.5-19.6,5.4-29.4
		c6.1-30.8-6.8-60.1-33.5-74.2c-13.2-6.9-24.4-16.1-35.8-26.8c-0.3-3.9-1.3-8.5-1.1-13c1.2-23.3,2.8-46.5,4.2-69.8
		c1.5-23.9,3.5-47.9-2.4-71.6c-0.6-2.5-0.1-5.3-0.1-7.6c7.9-9.2,16.9-17.5,23.2-27.5C7967,6260.3,7970.4,6248.7,7975.4,6236.9z"/>
	<path onclick="modals(this.id);" id="2526" class="st0" d="M8674.3,6641.3c4.1-5.8,10.8-7.5,16.7-10.1c6.4-2.8,11.3-6.8,13.6-13.7c0.8-2.5,2-4.9,3.1-7.4
		c8.7-18.7,17.6-23.3,41.1-20.4c4.1,8.3,8.3,17.2,12.9,25.9c4.6,8.8,10.1,17.3,14.4,26.3c9.3,19.3,20.7,37,35.4,52.8
		c12.7,13.6,23.5,29,34.7,43.9c3.1,4.1,5.2,9.3,6.9,14.2c14.6,42.8,29,85.7,43.6,128.6c1.4,4.2,3.6,8.2,5.5,12.5
		c2.9-1.1,5-1.3,6.5-2.5c2-1.7,3.6-3.9,5.3-6c14.2-16.6,30.6-29.5,52.6-34c7.1-1.4,14-4,20.7-6c4.2,3.5,1.3,6.3,0.1,9
		c-6.4,14.4-16.1,25.9-30.4,33.1c-4.1,2.1-7.9,5.1-12.1,7c-18.5,8.4-14.5,13.2-10.2,26.5c2.2,6.9,5.6,13.6,9.3,19.9
		c10,16.9,11.6,35,9.7,53.9c-1.6,15.2-2.7,30.4-4.2,48c-5.5,7.7-11.5,17.7-10,30.8c1.9,16.9,1.4,17,13.9,31.7
		c-0.9,1.5-1.7,3.4-3,4.6c-2.4,2.2-5.4,3.9-7.8,6.2c-17.7,16.3-39.1,24.9-62.1,30.2c-8.4,1.9-17,3.7-25.5,3.7
		c-23.7,0-46.5,3.6-68,13.6c-14.7,6.8-30,6.2-45.1,4.3c-40.4-5.2-81-6.1-121.6-6.5c-10.6-0.1-21.1-0.6-31.2-0.9
		c-4-11.7-6.5-39-5.8-61.5c3.8-3.1,8.2-7.1,12.9-10.6c7.4-5.6,15.1-11,22.6-16.5c22.9-16.7,22.9-16.7,51.2-15.9c2,0.1,4,0.1,6,0.3
		c16.9,1.6,31.5-3.1,44.3-16.4c0.2-5.1,0.6-11,0.6-16.9c0.1-32.7,0.4-65.3-0.1-98c-0.2-13.7,6.4-22.8,16.3-30.2
		c6.5-4.9,14.2-7.2,22.6-4.8c13.5,3.8,27,7.1,41.2,3.8c3.6-0.8,7.8,0.9,11.8,1.2c6.6,0.6,13.3,0.8,19.8,1.8
		c12.9,1.9,21.4-5.6,29.6-13.6c3.6-3.5,3.5-9-0.5-12.4c-9.7-8.1-19.8-15.7-29.6-23.6c-8.8-7-17.5-14.3-26.4-21.2
		c-6.9-5.4-9.5-12.6-9.4-21c0.1-25.1,3.2-20.9-16.3-42.4c-7.1-7.9-12.8-17-18.6-26c-7.2-11.1-17.4-17.8-29.4-22.9
		c-12.8-5.5-25.2-12-37.6-18.5c-8.9-4.7-12.9-12.2-13.6-22.7C8679.7,6662,8676.4,6651.8,8674.3,6641.3z"/>
	<path onclick="modals(this.id);" id="2524" class="st0" d="M8338.5,6226.4c17.9-14.2,35.4-25,53-35.6c9.8-5.9,20.4-3.2,30.6,1.4c9.6,4.4,19.5,8.3,29.4,12
		c3.8,1.4,7.6,0.5,11.3-1.9c16.2-10.5,16.3-10.4,38.1-6.3c5.8,21.1,10.6,42.9,14.3,65.2c-24.5,20-51.4,29.1-81.9,28.1
		c-0.7,0-1.3,0-2-0.1c-12.5-1.1-25.1-2.1-37.6-3.2c-11.3-10.3-23.1-20.1-33.6-31.1C8352.5,6246.9,8346.6,6237.1,8338.5,6226.4z"/>
</g>
</svg>
