<?xml version="1.0" encoding="utf-8"?>
<!-- Generator: Adobe Illustrator 19.0.0, SVG Export Plug-In . SVG Version: 6.00 Build 0)  -->
<svg version="1.1" id="Layer1" xmlns="http://www.w3.org/2000/svg" xmlns:xlink="http://www.w3.org/1999/xlink" x="0px" y="0px"
	 viewBox="0 0 4600 2300" style="enable-background:new 0 0 4600 2300;overflow: hidden; display: inline; width: inherit; min-width: inherit; max-width: inherit; height: inherit; min-height: inherit; max-height: inherit;" xml:space="preserve">
<style type="text/css">
	.st0{fill:#8FD4EB;stroke:#000000;stroke-width:3;}
</style>
<g>
	
	<path onclick="modals(this.id);" id="2557" class="st0" d="M2593.7,1076.9c7-2.8,14.1-5.5,21.6-8.4c6.5,12.2,13.2,24.3,19.5,36.7
		c3.1,6.2,5.4,12.9,8.2,19.3c4.1,9.6,10.6,17.4,17,25.6c6.5,8.3,11.1,18.1,16.4,27.3c3,5.2,5.9,10.4,8.4,15.9
		c2.9,6.6,8.4,9.8,13.8,13.1c7.9-6.6,5.4-15.2,6.5-23.3c3.1-1.6,6.3-3.3,9.1-4.7c9.3,4.3,14.6,10.7,15.7,20.6
		c0.4,3.9,2,7.7,2.7,11.6c3.6,18.4,16.3,26.4,33.3,29.3c9.2,1.6,18.4,3.1,27.6,3.6c7.9,0.4,15.9-0.6,22.2-6.7c1.9-1.8,4.6-3,6.2-5
		c11-13.8,25-10.4,38.1-5.6c13.3,4.8,26.2,5.7,39.9,2.9c14-2.9,28.1-4.9,42.6-7.4c1.3,2.6,2.5,4.9,3.7,7.1c1.6,2.9,2.5,6.7,4.9,8.6
		c10.4,8.1,13.3,19,14.4,31.5c1.1,12.6,7.1,23.6,15.7,32.7c4.3,4.5,7.5,9.3,9.1,15.2c3,10.6,8.8,18,20.7,18.1
		c8.9,0.1,14.4,5.3,19.7,11.4c4.1,4.7,8.9,8.8,13.4,13.2c2.2,2.1,4.5,3.9,6.6,6c10.8,11.2,10.6,24.4,6.2,37.9
		c-1.2,3.6-0.8,6.5,0.3,9.5c1.3,3.5,4.4,3,7.5,3.4c6.3,0.7,8.3,3.6,7.8,10.2c-0.5,6.3-1,12.6-2.2,18.8c-0.6,3.1-2.5,6.1-4.2,8.9
		c-2.1,3.4-4.6,6.5-6.9,9.7c-3.8,5.2-3.9,10.5-2.6,16.9c4.2,21,9.6,41.3,20.7,60c3.6,6.2,4.6,13.8,7.8,20.4
		c6.8,14.1,18.4,24.4,30.4,33.9c4.7,3.7,8.1,7.3,8.2,13.8c0.1,8.5,3.6,16,7.6,23.4c1.8,3.5,3.2,7.3,4,11.1
		c2.6,12.3-6.2,20.2-18.6,17.2c-9-2.2-18.1-4.4-27.2-6.2c-7.4-1.5-10,0.4-10,8.1c0,8.6,1.1,17.2,1.2,25.9c0.3,63,0.4,126,0.8,189
		c0.1,16.3,0.8,32.6,1.3,48.9c0.2,6.9,1.7,7.9,8.6,6.8c13.9-2.2,21.2,1.6,27.3,13.9c1.4,2.9,3.6,5.5,6,7.6
		c7.2,6.4,14.8,12.4,22.1,18.7c1.8,1.5,3.1,3.7,3.9,6.5c-4.7-4.8-10.2-6-16.4-6.4c-3.2-0.2-6.1-2.5-9.3-3.5c-4.1-1.3-8.4-3.5-12.3-3
		c-4.1,0.4-6.8-0.5-10-2.6c-9.1-6-22.1-3.4-27.4,5.9c-3,5.4-4.6,11.7-7,17.5c-1.1,2.6-2.1,6-4.3,7.4c-13.6,8.4-27.4,16.3-41.3,24.5
		c-6.2-4.5-11.7-9.3-17.9-13c-4.8-2.8-10.2-4.7-15.5-6.3c-13.3-3.9-26.8-7.3-40.2-11c-8-2.2-15.8-5.2-23.9-6.6c-5.6-1-10-2.9-14-6.7
		c-10.9-10.3-23.4-17.4-38.4-20c-4.9-0.9-9.7-2.6-14.2-4.6c-7.6-3.2-15.4-4-23.5-3.7c-9.5,0.4-12.4,3.5-11.5,13
		c0.1,1.3,0.7,2.6,0.9,3.9c1,9.7,1.3,19.2-5.2,27.6c-1.8,2.3-3.1,5.1-4.8,8.1c-7.7-3.3-15.3-6.5-22.8-9.9c-4.3-1.9-8.4-2.5-12,0.9
		c-6.3,5.9-12.5,4.2-19.2,0.7c-13.7-7.3-28.4-8.4-43.4-5.9c-4.1,0.7-8.3,2.5-11.8,4.8c-11.4,7.4-22.5,15.4-33.9,23
		c-3.3,2.2-6.9,3.8-10.6,5.4c-6,2.6-11.1,2.6-15.3-3.9c-2.2-3.4-6.4-5.6-10-7.9c-7.6-4.8-15.3-9.4-23-14
		c-6.3-3.8-10.9-8.7-14.6-15.6c-5.5-10.4-16.9-13.2-27.6-15.9c-5.1,3.6-11.3,6.4-15,11.1c-12,15.3-25.6,28.9-40.9,40.7
		c-9.9,7.7-14.8,17.1-12,30.4c2.7,12.9,0.4,25.8-3.2,38.4c-0.9,3.3-1.5,7.5-0.2,10.4c3.5,8.3,2.8,16.2-0.4,24.2
		c-2.1,5.4-2.2,10.4-0.9,16.3c1.4,6.2,1,13.3-0.6,19.5c-3.8,15.1-8.6,30-13.6,46.7c-3.6,0.5-8.3,1.3-13.1,1.9
		c-8.2,1.1-16.4,2.2-24.6,3.2c-3.3,0.4-6.6,0.8-9.8,0.7c-10.6-0.5-21.2-1-31.8-2c-7.4-0.6-13.7,1.4-19.3,6.2
		c-1.7,1.5-3.8,2.5-6.7,4.3c-2-20.9-15.2-34.8-27.2-49.3c-2.7-3.3-6.3-5.9-9.4-8.9c-3.2-3.2-6.6-4.1-10.8-1.9
		c-7.2,3.9-13.9,1.5-19.5-2.9c-13.5-10.5-28.4-16.8-45.7-17.7c-4.5-0.2-8.9-2.4-13.3-3.9c-15.7-5.4-31.3-11.1-47.1-16.3
		c-14.3-4.7-26.1-13.2-36-24.2c-7.7-8.6-14.3-18.3-21.8-27.1c-4.7-5.6-10-10.7-15.5-15.5c-4.4-3.8-5.1-7.9-4-13.3
		c2.1-10.3,1.6-10-7-16.1c-14.9-10.6-32.6-14.9-48.8-22.6c-1.5-0.7-3.1-1.2-4.5-2c-21-12.4-44-13.6-67.5-12.4
		c-7.2,0.4-14.4,0.8-23,1.3c1.4-4.3,2.6-7.7,3.7-11c1.5-4.4,3.5-8.7,4.2-13.3c1.3-7.7,5.1-12.9,12.7-14.8c7.3-1.9,11-6.8,12.7-13.8
		c1.6-6.4,4.1-12.7,5.9-19.1c0.8-2.8,1.2-5.9,1.2-8.9c0.1-8.6-2.3-10.7-10.6-10.6c-4.3,0.1-8.6,0-13.4,0
		c-2.7-14.3-3.7-28.4,1.2-42.2c2-5.6,2.4-10.8,0.8-16.5c-1.5-5.1-2.1-10.4-3.4-16.9c7.4,1,13.8,1.7,20.2,2.7
		c7.2,1.1,14.4,2.4,21.6,3.5c7.3,1,7.8,0.9,9.5-6.4c1.7-7.1,2.2-14.4,3.7-21.5c2.4-11,5.2-21.9,8.2-32.7c1.3-4.7,4.5-8,9.4-9.5
		c6.4-1.9,12.6-4,19.7-6.3c1.6,2.9,2.8,6.2,4.9,8.5c2.8,3.1,6,6.8,9.7,7.7c6.6,1.7,11.5,4.8,15.1,10.4c0.7,1,1.8,1.7,3.8,3.5
		c2.9-12,4-22.9,3.5-34.1c-0.3-6.1-2.2-11.2-5.7-16.5c-9.6-14-12.6-29.5-9.1-46.4c3.4-16.2,10.1-30.8,18.7-45.8
		c4.5,1.1,9.6,1.1,13.2,3.5c9.5,6.4,20.3,5.9,30.8,6.6c7,0.5,13.3,1.4,18.4,6.1c11.4,10.6,21.7,2.5,25.8-10.3
		c2.1-6.6,2.9-13.6,4.4-21c12.6,0.3,19-10,27.8-16.7c3.9-3,8-5.8,12.3-8c8.9-4.4,18-8.4,27-12.5c13.3-6.1,27.4-10.5,41.8-12.3
		c9.5-1.2,17.4-3.6,23.4-11.1c1.5-1.8,3.3-3.3,4.9-5c8.2-8.3,13-17,7.4-29.3c-2.7-5.8-3.8-12.8-1.4-19.4c1.2-3.3,2.7-6.6,4.4-9.7
		c2.6-4.7,5.7-9,8.1-13.7c4.1-7.9,5.1-16.4,3.4-25.2c-0.9-4.5-1.2-9.2-1.3-13.8c-0.1-4.4,2-7.6,6.2-9.3c0.3-0.1,0.6-0.2,0.9-0.4
		c5.8-3.3,11.4-8.6,17.4-9.2c5.5-0.5,11.5,4.3,17.3,6.5c10.2,3.9,20.7,7.2,30.6,11.7c5,2.3,9.2,6.4,13.6,10.1
		c5.5,4.7,11.5,8.3,19,6.9c13.9-2.6,26.9,0.8,37.9,8.4c13.6,9.3,25,3.4,37-2.1c4.5-2.1,8.8-4.5,13.2-6.7c4.4-2.3,8.9-2.5,13.5-0.7
		c10,4,19.2,0.3,27.9-3.7c3.6-1.7,6.1-7,7.7-11.1c0.8-2.1-1-5.5-2.1-8.2c-3.5-8.1-4.4-16-2.3-25c1.4-5.9,0-13.7-3-19
		c-8-14.4-8-28.3-1.4-42.8c1.5-3.3,2.7-6.8,4.7-9.8c5.3-7.7,11-15.1,15.6-21.3c-2.1-11-4-21-5.8-30.9c-0.1-0.7,0-1.4-0.3-2
		c-5.9-10.6-2.9-20.1,2.9-29.6c2.2-3.6,3.1-8,4.9-12.7c-5.8-5.4-11.1-11.4-17.5-16c-5.7-4.1-7.7-8.6-8.6-15.5
		c-1.3-9.9-0.4-19,3.7-29.4c-8.9-8.4-18-17.6-27.7-26c-7.2-6.2-14.7-12.3-16-22c-1.1-8.7-0.2-17.7,0.3-26.6c0.1-1.5,2.3-3.1,3.7-4.3
		c6.2-5.1,12.5-9.9,18.6-15c2.4-2,4.4-4.7,6.5-7L2593.7,1076.9z"/>
	<path onclick="modals(this.id);" id="2554" class="st0" d="M2318.9,1004.1c2,12.4,4.2,23.8,5.7,35.3c3.7,26.6,7,53.3,10.7,79.9c0.6,4.1,2,8.5,4.4,11.8
		c9.1,12.6,18.8,24.9,28.3,37.3c0.2,0.3,0.3,0.6,0.6,0.8c15.5,15.5,15.9,34.7,13.5,54.7c-0.4,3.5,0.5,7.2,1.2,10.7
		c3.3,16.3,6.3,32.6,10.2,48.8c1.9,7.7,4.9,15.2,8.2,22.4c8.4,17.9,12.5,37.1,17.6,56c2.4,9-1.3,17.3-7.5,23.6
		c-5.4,5.5-9.1,11.8-9.9,19.1c-1.1,10.2-7.1,15.8-15.5,20.1c-4.3,2.2-10.4,4.4-11.8,8.1c-2.3,5.9-3.1,13.5-1.4,19.4
		c3.7,13.1-0.4,24.1-7.8,33.6c-9.4,12.1-10.8,25-5.7,38.4c3.5,9.3,1.6,15.9-5.3,22c-1.2,1.1-2.4,2.3-3.3,3.7
		c-5.8,8.5-13.6,12.5-24,13.9c-18.8,2.5-37,7.7-53.3,17.9c-2.8,1.8-5.8,3.9-8.9,4.3c-13.2,1.9-21.8,10.9-30.5,19.5
		c-4,3.9-7.7,7-13.7,6.6c-4.9-0.4-6.9,2.7-7.3,7.4c-0.5,5.3-0.9,10.8-2.7,15.6c-1.8,4.8-5,9.3-8.6,13c-1.3,1.4-6.4,1.3-7.9-0.1
		c-10.1-9.7-22.7-9.5-35.3-10.4c-6.1-0.4-12-3.3-17.9-5c-5.6-1.7-11.3-3.4-16.9-5c-11.9,18.5-20.1,37.6-22.4,58.2
		c-1.4,12.8,1.5,26.5,9.6,36.9c6,7.6,6.7,15.7,7.3,24c0.5,6.4-1.3,12.9-2,18.4c-5.9-2.6-11.6-4.6-16.8-7.5c-3.3-1.9-6.1-5-8.5-8
		c-2-2.5-3.3-5.7-5.3-9.3c-8.7,2.8-17.6,4.7-25.4,8.7c-4.1,2.1-7.7,7.6-9,12.3c-3.6,13.4-8.3,26.6-8.9,40.7
		c-0.2,5.2-2.1,10.3-3.4,16.2c-11.2-1.7-21.6-3.2-32-4.8c-2.3-0.3-4.6-1.1-6.9-1.2c-5.4-0.2-9.1-2.6-12.7-6.7
		c-4.7-5.5-10.2-10.3-15.4-15.4c-4.6-4.6-5.1-10.8-5.2-16.6c-0.1-8.5-1.6-16.6-5.3-24.1c-3.6-7.1-7.4-14.1-11.9-20.6
		c-7.9-11.5-15.8-23-24.6-33.8c-9.4-11.5-16-24.3-22.8-37.3c-8.7-16.8-13.5-35.2-21.6-52.3c-4.1-8.7-2.5-16.8,1.7-24.7
		c5.5-10.3,11.3-20.4,16.7-30.7c4.6-8.8,3.9-11.1-3.6-17.9c-1.7-1.6-3.6-3-5-4.8c-8.4-10.5-20.4-13.2-32.7-14.3
		c-2.6-0.2-6.2,2.2-8.1,4.4c-6.9,8.5-13.4,17.3-19.9,26.1c-8.1,11-18.5,19-31.2,24c-5.8,2.3-10.9,5.5-15.3,10.6
		c-6.7,7.7-14.6,14.5-22.4,21c-2.2,1.9-6.2,2.7-9.2,2.5c-13.2-0.8-26.4-2.1-40.9-3.3c0.8-5.1,1.4-9.5,2.3-13.9
		c3.3-15.8-1-28.8-13.8-38.9c-12.3-9.6-24.7-19.2-36.7-29.2c-4.8-4-8.7-9.1-13.2-13.5c-7-7-14.2-13.9-21.2-20.9
		c-2.6-2.6-5.4-5-7.3-8c-5.8-9-5.6-9.1-16.4-5.8c-4.7-4.3-9.7-8.9-15.8-14.5c5.2-2.9,9.1-5.2,13-7.3c4.2-2.2,5.9-5.5,4.2-9.9
		c-4-9.8-8.3-19.5-12.6-29.2c-2.5-5.5-7.2-8.3-12.5-10.8c-4.3-2.1-8.9-4.8-11.8-8.5c-5.9-7.3-13.4-10.5-22.2-12
		c-0.7-0.1-1.4,0.1-2-0.1c-1.8-0.6-4.5-0.8-5.2-2.1c-5.4-9.9-22.6-6.3-23.7-21.3c-0.4-5.1-1.4-9.7,1.6-14.3
		c12.5-18.8,18-40.6,25.8-61.5c1.3-3.4,1.6-7.1,2.4-10.6c2.8-12.6,12.9-19.8,21.1-28.4c4.1-4.3,8.4-8.4,12.2-13
		c3.7-4.5,8.6-5.8,14-6.7c5.5-0.9,11.3-1.3,16.5-3.1c8.9-3.1,15.8-8.7,21.4-16.9c5.3-7.7,13.7-13.2,20.3-20.2
		c6.7-7.2,14.8-13.3,17.7-23.5c4.4-15.4-0.2-39-11.4-50.3c-10.5-10.7-21.5-20.9-33.1-30.3c-8.1-6.5-13.5-14.4-18.2-23.3
		c-1.7-3.2-3.4-6.5-4.9-9.8c-3.8-8.2-9.9-13.3-18.9-14.3c-3.5-0.4-4.9-2.4-6.7-5c-2.4-3.5-5.3-6.6-8.4-9.6c-4.2-4.2-8.9-8-13.1-12.2
		c-5-4.9-9.8-9.6-16.7-12.2c-4-1.5-6.9-5.7-11-9.2c6.8-8.2,12.2-16.3,19.2-22.6c9.5-8.6,10.1-17.7,5.1-28.5
		c-0.8-1.8-1.3-3.7-2.2-6.4c4.2-2.1,8.3-4.2,12.3-6.3c12.2-6.3,16.2-14.6,14.5-28.4c-1.6-13.1-2.7-26.3-4.1-40.5
		c10.1-4.7,21.7-6.8,33.5-8c4.5-0.5,11,6,11.1,12.4c0.2,14.1,9.2,23.1,16.8,33c5.4,7.1,11.8,13.4,18.1,19.7c2,2,5.1,3.6,7.8,3.7
		c6.9,0.2,11.7,3.6,16.7,7.7c12,9.7,25.8,16.3,40.4,21.2c1.8,0.6,3.9,1,5.8,0.9c23.5-2,46.5-6.2,69.7-10.6
		c25-4.8,44.9-17.2,64.5-31.7c7.2-5.4,14.7-10.3,21.9-15.8c11.2-8.7,24.2-12,38-13.1c5.9-0.4,11.9-1.3,17.8-1.7
		c2.3-0.2,4.7,0,6.9,0.5c7.3,1.6,14.2,0.2,16.9-5.7c2.1-4.5,5.3-5.7,9-6.7c6.4-1.8,12.8-3.2,19.3-4.5c1.4-0.3,3.7,0.2,4.6,1.2
		c5.4,5.7,12.9,6.7,19.7,9.2c4.7,1.7,9.5,3.2,13.9,5.4c12.5,6.2,24.8,6.7,37.2-0.1c2.3-1.3,4.9-2,7.4-2.9c8.4-3,16.5-1,22.4,5.7
		c7.2,8.2,14.3,16.6,21.7,24.6c1.4,1.5,3.7,2.8,5.8,2.9c3.6,0.3,8.3,0.9,10.8-0.9c10.6-7.7,21.8-1.9,32.8-3.1c1.4,2.6,3,4.8,3.8,7.2
		c4.6,14,15.6,21.4,28.2,26.2c11,4.3,18.4,11.2,23.5,21.6c4.6,9.2,10.1,17.9,15.8,27.8c-15.6,7.5-30.7,14.8-46.7,22.5
		c6.5,8.6,12.3,16.2,18.6,24.5c8.5-3.3,17-6,24.9-9.9c7.8-3.8,15.8-4.7,24.2-3.7c10.2,1.3,20.4,3.3,30.6,3.4
		c8.5,0.1,17.1-1.9,25.7-2.9C2312.9,1004.7,2315.1,1004.5,2318.9,1004.1z"/>
	<path onclick="modals(this.id);" id="2550" class="st0" d="M1712.9,283.2c25.9-2.8,48.2-10.6,70.7-17.7c18.2-5.7,35.1-13.9,49.4-27.1
		c11.5-10.6,25.1-16.1,41-12.1c9.6,2.4,17.8-0.9,25.3-5.7c3.3-2.1,6.3-3.3,10.1-3.1c9.3,0.6,18.6,2,27.8,1.6
		c12.2-0.5,24.4-2.3,36.5-3.9c1.9-0.3,3.6-2.7,5-4.5c1.7-2,3-4.3,4.3-6.3c1.1-0.1,2-0.4,2.4-0.1c6.5,6.4,12.8,6,20.3,1.2
		c7.7-5,17.1-5.3,26-5.2c3,0,6.6,1.5,9,3.4c7.6,6.1,16.2,6.4,25.4,5.8c14.2-0.9,28.5-1.2,42.8-1.1c2.8,0,6.2,2.2,8.3,4.3
		c8.2,8.3,16,16.9,23.9,25.4c0.9,1,1.8,2,2.7,3c9.6,10.2,13.3,9.9,19.2-3c5.4-11.9,13.3-21.2,24.1-28.5
		c18.4-12.5,30.7-30.4,40.2-49.9c3.4-7,2.9-16.2,3.2-24.4c0.3-8.9-0.5-17.9-1.2-26.8c-0.9-11.9,3.6-17.9,17.4-21.7
		c15.3,12.1,30.9,24.5,46.5,37c45.7,36.6,91.4,73.2,137.2,109.7c4.9,3.9,7.3,7.7,7.1,14.1c-0.4,13.8,1.8,15.1,14,9.6
		c11.4-5.1,22.7-10.8,35.4-16.8c4,6.8,8.8,14.6,13,22.7c0.9,1.7,0.1,4.6-0.6,6.6c-3.3,9.3-2.6,18.2,1.5,27.1
		c3.6,7.6,5.7,15.6,4,24.2c-2.2,11.4-10.1,19.2-17.1,27.6c-5.1,6.1-10,12.3-14.5,18.9c-1.7,2.6-2.2,6.2-2.6,9.4
		c-1.6,14.9,2.2,29,7,42.9c3.4,9.7,6.3,19.6,8.8,29.5c0.7,2.9-0.1,6.5-1.1,9.5c-1.1,3.4-3,6.7-4.9,9.8c-5,7.8-7.3,15.6-5.9,25.3
		c2.1,13.6-4.3,24.1-16.9,29.6c-5,2.2-8.5,5.1-10.4,10c-3.4,8.6-6.6,17.3-10.3,25.9c-1.8,4.2-4.1,8.2-6.7,12
		c-4.5,6.6-9.5,12.8-14,19.4c-4.7,7-4.2,13.5,1.8,18.8c19.1,16.5,34.9,36.7,55.8,51.3c4.8,3.4,8.4,8.4,12.9,13.1
		c-2.2,9.8-4.4,19.8-6.8,29.8c-0.5,1.9-1,4.1-2.2,5.5c-10.1,11-11.3,26-16.3,39.1c-2.3,5.9,1,14.2,2.5,21.3
		c1.5,7.3,6.5,11.7,13.3,15c11.4,5.4,22.2,12,33.9,18.4c-1,7.3-2.4,14.4-3,21.6c-1.8,19.5-4.6,38.9-1.9,58.5
		c0.3,2.2-0.1,4.7-0.7,6.9c-1.6,5.8-3.2,11.5-5.4,17.1c-0.9,2.3-2.6,4.8-4.7,6c-9.4,5.2-15.9,12.7-20.7,22.2
		c-5,9.8-10.2,19.4-15.6,28.9c-1.8,3.1-4.4,5.7-7.3,9.3c-3.6-2.5-6.8-4.6-10-6.8c-0.8,0.4-1.9,0.6-2.6,1.2
		c-12,11.7-27.3,14.2-42.9,16.2c-5.6,0.7-11,2.1-15.6-3.2c-1.1-1.3-4.4-1.1-6.5-0.9c-12.5,1.3-25.2,2.3-37.5,4.6
		c-4.9,0.9-10,4-13.5,7.6c-9.7,10-21.8,12.2-34.6,11.6c-14.2-0.7-28.4-2.4-42.6-3.2c-3.5-0.2-7.3,0.5-10.6,1.7
		c-9.4,3.4-18.5,7.3-28.7,11.3c-4.6-5.9-9.3-11.8-14.8-18.9c15.4-7.3,29.9-14.2,44.5-21.1c-0.7-7.3-19-40-27.3-48.7
		c2.1-1.1,4.2-2,6.1-3.2c7.5-4.5,13.2-9.9,11.5-19.8c-0.4-2.3-0.3-4.7,0-7c2.4-23-3.2-44.7-9.8-66.5c-3.1-10.1-4.3-20.7-6.2-31.1
		c-2.4-12.9-6.5-25.1-14-36c-9.6-13.9-12.2-28.3-5.2-44.2c3.2-7.3,6-14.8,8.2-22.4c2.4-8.1,0.8-14.8-5.6-21.5
		c-19.7-20.7-44.6-29.2-71.9-33c-9.5-1.3-18.8-3.8-28.1-6.1c-8.9-2.1-15.1-8.1-19.9-15.6c-5.5-8.5-12.7-15-20.3-21.6
		c-15.1-13-29.1-27.3-43.4-41.2c-2.8-2.7-5.8-6-7-9.6c-4.9-14.5-16.9-21.7-28.6-29.3c-2.2-1.5-4.5-2.8-6.9-4
		c-7.9-4.1-11.5-10.5-11.5-19.4c0-2.9-0.5-6.3-2.1-8.5c-7.2-10.3-14.7-20.4-22.6-30.3c-2.4-2.9-6.4-4.5-9.4-7
		c-3.3-2.7-6.7-5.5-9.3-8.8c-5.1-6.3-11-11.3-17.7-15.9c-15.4-10.4-31.2-20.3-44.4-33.9c-4.3-4.5-11.4-6.6-17.5-9
		c-12.4-4.8-25-9.1-37.4-13.8c-2.7-1-5.6-2.5-7.6-4.5c-17.4-16.9-36.2-32.4-51.2-51.7c-5.1-6.6-11.3-12.2-17-18.3
		C1718.2,289.5,1716.2,287,1712.9,283.2z M2346.2,958.8c8.8-5.1,17.7-9.2,25.1-15.1c4.6-3.7,9.9-9.4,9.7-15.9
		c-0.3-11.2-2.1-22.4-9.9-32.2c-18.6,4.1-35,13-51.7,21.6c3.1,10.5,13.7,9.7,20.2,15.7c-1.9,2.9-3.8,5.8-6,9.2
		C2337.5,947.2,2341.5,952.4,2346.2,958.8z"/>
	<path onclick="modals(this.id);" id="2552" class="st0" d="M1569.5,841c-4.2-6.2-7.9-11.4-11.4-16.6c-1.1-1.6-2.4-3.4-2.7-5.2c-1.6-9.6-6.4-17.3-12.6-24.2
		c0.2-1,0.1-1.8,0.4-2.2c10.4-12.6,11.1-24.7,2.2-37.9c-0.4-0.6-0.6-1.4-1.1-1.6c-10.4-3.9-14-15.8-23.8-20.3
		c-4.2-1.9-5-5.3-5.3-9.7c-0.8-11.6-2.5-23.1-3.6-34.6c-0.3-3.6-0.5-7.4,0.2-10.9c1.9-9.8,1.2-19-2.7-28.3c-3.1-7.4-4.7-15-4-23.3
		c0.7-7.2,0-14.6-0.8-21.9c-0.6-5.9-4.4-10.4-10.5-10.1c-8.3,0.5-10-4.9-11.9-10.7c-3.3-10.1-6.1-20.3-9.9-30.2
		c-2.5-6.5-6-12.6-9.4-18.7c-3.3-5.8-7.5-11-10.7-16.9c-5.2-9.5-12.3-17.4-20.6-24.1c-8.9-7.2-16.3-15.4-19-27.1
		c-1.2-5.4-2.1-10,1.9-14.9c4.8-5.8,6.8-12.7,6.4-20.4c-0.4-7.3-0.1-14.5-0.1-23.8c1.5-1.1,4.6-3.5,7.8-5.7c8.8-6,17.6-12,26.4-18
		c6-4,12.4-5.9,19.8-3.9c5.1,1.4,10.5,1.6,15.7,2.7c19.1,4.2,36.8,0.4,54-8.2c11.6-5.8,22.8-12.1,33.1-20.2
		c6.7-5.2,15-8.6,22.9-11.9c10.9-4.5,20.4-10.6,28.6-19.3c11.8-12.6,24.9-24,39.7-33.1c2.2-1.4,4.6-2.9,7.1-3.2
		c9.2-1.1,18.5-1.6,27.8-2.6c3.6-0.4,6,0.6,8.5,3.5c14.1,15.9,28.3,31.8,43.1,47.1c10.6,11,21.7,21.6,33.6,31.1
		c6,4.8,14.2,7,21.6,9.9c6.5,2.6,13.2,4.6,19.9,6.6c11.1,3.3,20,9.3,28.2,17.8c7.9,8.2,18.3,14.3,28,20.6
		c10.7,6.9,20.7,14.5,28.3,24.9c1.3,1.8,3.2,3.7,5.2,4.4c7.9,2.5,12.5,8.6,17.2,14.6c4.7,6,9.1,12.3,13.1,18.8c1.8,3,2.9,6.8,3,10.3
		c0.3,10.7,5.1,18,14.7,22.7c4.2,2,7.8,5,11.9,7.3c9.5,5.5,16.5,12.9,20.8,23.3c2.1,5,6.1,9.6,10.1,13.5
		c13.8,13.4,27.6,26.9,42.2,39.5c6.9,5.9,13.4,11.9,18.3,19.5c9.1,14.4,23.3,20.3,39.2,22.5c15.5,2.1,30.9,4.4,45.7,9.7
		c15.8,5.7,28.5,15.4,39.1,28.1c3.7,4.5,2.7,9.7,1.5,14.3c-1.5,6.4-4,12.7-6.8,18.7c-6.2,13.4-7.2,26.8-1.2,40.5
		c1.3,3,2.9,5.9,4.6,8.7c7.6,11.9,12.1,24.6,14.4,38.8c3,18.3,8.8,36,13.4,54.1c0.9,3.5,2,7,2.1,10.6c0.3,13,0.2,26,0.1,39
		c-0.1,11.3-13.2,20.9-23.6,16.7c-13-5.3-25.7-11.3-30.7-26.2c-1.1-3.4-3.3-6.5-4.7-9.2c-7.4-0.7-14.2-1.4-21.1-1.8
		c-2.5-0.1-5.2,0.7-7.7,1.4c-4.7,1.2-9.4,3-14.2,3.8c-2.2,0.3-5.3-0.7-6.8-2.2c-7.7-8.2-15.1-16.8-22.5-25.3
		c-5-5.8-15.3-8.7-22.5-6.2c-3.8,1.3-7.7,2.6-11,4.6c-9.8,5.9-19.7,4.8-29.7,1c-8.7-3.3-17.4-6.6-26.1-9.9c-1.9-0.7-4.1-1-5.5-2.2
		c-13.5-11.9-25.9-1.3-38.6,1.8c-1.4,0.3-2.3,3-3.3,4.6c-3.3,5.1-7.5,6.9-13.2,5.4c-1-0.3-1.9-1-2.8-0.9
		c-21.9,2.5-44.7,0.7-63.7,15.6c-13.1,10.3-26.9,19.6-40.3,29.4c-10.1,7.3-20.8,13-33.5,14.4c-4.6,0.5-9.1,2-13.5,3.3
		c-21.8,6.5-44.2,9.8-66.8,9.7c-7.5-0.1-15.5-3.7-22.4-7.3c-8.8-4.6-16.6-10.9-25-16.2c-3-1.9-6.3-4-9.6-4.4
		c-7.4-1-13.2-4.2-17.8-9.8c-6.1-7.5-12-15.1-18-22.6c-4.8-6-8.7-12.5-9-20.5c-0.1-1.3-0.2-2.7-0.6-3.9
		c-3.2-10.3-8.4-14.1-19.2-12.6c-6.9,0.9-13.6,2.8-20.4,4.4C1576.1,839.4,1572.9,840.2,1569.5,841z"/>
	<path onclick="modals(this.id);" id="2556" class="st0" d="M2603,1025.2c6.1-3.9,11.9-7.7,17.8-11.3c3.3-2,5.3-4.3,6.5-8.2c6-18.6,8.9-37.4,7.4-56.9
		c-0.9-11.9-0.4-24-1.6-35.8c-1.5-14.5-3.8-28.9-11.2-42c-2-3.6-2.7-8.1-3.2-12.2c-0.9-6.9-0.3-14-1.7-20.8
		c-1.9-8.7-0.6-17.1,0.3-25.6c0.2-1.3,0.2-2.8,0.8-3.9c9.3-15.8,18.1-31.6,36.6-39.3c13.5-5.6,26.1-13.3,39.2-19.8
		c6.7-3.3,10.8-8.1,13.1-15.3c4-12.3,9-24.3,14-37.5c13.5,3.8,26.9,6.5,39.3,11.5c8.3,3.4,15.6,9.8,22.7,15.6
		c9.5,7.6,19.3,14,31.8,15.2c8,0.8,13.5,5.7,15.9,13.2c4,12.3,11.6,22.2,19.3,32.3c11,14.5,25.4,23.1,42.6,27.7
		c9.3,2.5,18.7,4.7,28,7.1c15.1,3.8,27.5-2.1,28.5-20.6c0.1-1.9,0.5-3.7,1-7.1c4.9,3.1,8.8,5.4,12.4,8c11.5,8.6,23.4,16.6,37.6,19.9
		c3.9,0.9,7.7,2.1,11.7,2.5c13.6,1.4,22.7,8.6,28,20.9c1.1,2.4,1.8,5,3,7.4c3.1,6.2,7.2,8.7,12.8,5.1c8.8-5.6,15.2-1.1,23.1,1.7
		c23.4,8.5,47.2,15.9,70.9,23.7c1.5,0.5,3.4,0.9,4.8,0.4c6.7-2.3,11.8,0.5,16.2,4.9c6.7,6.8,13,14,19.8,21.4c-1.5,1.2-3.4,3-5.6,4.4
		c-6.1,3.9-9.4,9.8-13.3,15.7c-8.1,12.3-15.9,24.6-31.2,30.5c-16.3,6.4-31.9,15-47.2,23.5c-5.2,2.9-9.8,8-13.1,13.1
		c-6.3,9.5-13.4,16.2-25.8,15.1c-8.2-0.7-15.9,1.4-21.8,7.7c-1.1,1.2-2.8,2.5-2.8,3.8c-0.3,9.6-6.6,16.5-10.8,24.3
		c-10.2,18.8-15.9,38.8-13.9,60.3c0.8,8.7,0.5,17.1-1.4,25.5c-1.7,7.6-1.2,15.3,1.7,22.6c1.4,3.6,3.8,6.9,6,10.1
		c2.6,3.7,5.5,7.2,8.9,11.7c-9.1,3.7-19.5,3.5-21.5,15.4c-2.3-3.2-3.9-5.7-5.8-7.9c-6.1-7.1-14.6-8.1-21.9-2.5
		c-4.8,3.7-8.3,7.9-9.9,14.3c-1.1,4.5-4.1,9-7.4,12.4c-6.9,7.3-14.8,12.3-25.7,13.2c-13.2,1.1-26.1,5.1-39.3,6.5
		c-7,0.7-14.4-0.9-21.5-2.3c-9.7-1.8-19.3-4.7-29-6.5c-2.2-0.4-5.2,0.8-7.2,2.2c-3.9,2.6-7.5,5.6-10.9,8.7
		c-8.8,8.2-18.8,12.2-30.9,10.2c-9.2-1.5-18.5-2.3-27.6-4.1c-14.5-2.8-23.3-11.8-26.3-26.4c-0.6-2.9-1.7-5.8-1.9-8.8
		c-1-12.1-7-20.5-19.1-25.8c-3.7,1.9-8.4,4.3-12.7,6.4c-1.7,7.1,2.1,14.2-3.2,20.2c-5-1.4-8.3-4.6-10.7-9.3
		c-5.8-11.3-11.6-22.5-17.8-33.5c-2.7-4.9-6-9.7-9.9-13.6c-8-8-12.3-18-16.9-28c-5.4-11.4-11.2-22.6-16.7-33.9
		C2617.3,1064.6,2609.5,1045.6,2603,1025.2z"/>
	<path onclick="modals(this.id);" id="2555" class="st0" d="M2594,1076.7c-1.7,0.5-3.9,0.4-5.2,1.4c-7.9,6.1-15.8,12.3-23.3,18.8c-2,1.7-3.7,4.7-4,7.3
		c-0.8,6.3-0.7,12.6-0.8,18.9c-0.2,8.8,3.1,16.2,9.3,22.3c9,8.9,18,17.8,27.4,26.2c5,4.5,7.1,9.3,4.9,15.9c-2.2,6.8-2,13.7-0.2,20.7
		c0.5,1.8,0.1,3.9,0.1,6.9c-8.1,0.9-16.2,2-24.4,2.6c-1.8,0.2-3.8-0.8-5.6-1.5c-1.5-0.6-3-1.5-4.3-2.5c-17.6-13.6-37.7-12.7-58-9.7
		c-2.8,0.4-5.6,2.1-7.8,3.9c-6.7,5.5-13.7,10.8-19.4,17.2c-9.8,10.9-22.6,17.3-34.9,25c-8.9-6.7-17.2-13.9-26.5-19.6
		c-6.7-4.1-14.3-7.2-21.9-9.2c-3.9-1.1-8.8,1.1-14.1,2c0-10.8-0.1-21.4,0-31.9c0-3.8-1.1-6.6-3.5-9.8c-7.3-9.5-13.7-19.7-20.7-29.4
		c-4.8-6.7-9.7-13.6-15.3-19.7c-5.8-6.3-7.7-13.6-8.7-21.7c-2-17.1-4-34.3-6.3-51.4c-2.1-14.8-4.7-29.5-7-44.3
		c-0.5-3.3-1.1-6.6-1.2-9.9c-0.2-8.9,5.8-16.1,14.6-17.4c10.2-1.5,20.4-2.6,30.6-3.8c5.8-0.7,11.6-2.4,16.6,3.1
		c1.3,1.4,5.1,1,7.6,0.6c10.1-1.7,20.3-3.5,30.3-5.7c3.1-0.7,6-2.7,8.8-4.4c3.3-2.1,6.4-4.6,9.5-6.8c11.9,7.3,16.2,5.8,22.4-6.8
		c5.8-11.6,12.1-22.9,18.3-34.3c0.6-1.2,1.5-2.2,2.5-3.1c13.5-13.7,13.3-15,26.5-1.6c12.3,12.5,24.5,25.2,38.4,35.8
		c7.7,5.8,14,12.3,17.5,21.2c1.3,3.3,2.4,7,2.3,10.5c-0.3,7.5,2.7,13.5,7.2,19.4c12.8,0,25.7,0,40.7,0c-6.4,4.6-11.3,8.2-17.2,12.5
		c4.8,13,9.5,26,14.4,39.2c-6.7,4.5-13.3,8.8-19.8,13.1C2593.7,1076.9,2594,1076.7,2594,1076.7z"/>
	<path onclick="modals(this.id);" id="2558" class="st0" d="M2401.8,1417.6c3.3-11,3.7-21.1,11.5-29.2c9.4-9.8,11.2-21.1,7.4-35
		c-6.1-22.2-14.1-43.5-21.9-65c-5-13.6-6.7-28.4-9.8-42.6c-0.6-2.9-1.2-5.8-1.8-8.8c-1.8-9.8,3.9-14.7,13.7-12.2
		c10.9,2.8,20.2,8.4,28.8,15.4c4.9,4,9.7,8.1,14.8,11.8c2,1.5,4.7,2.2,5.5,2.6c3.4-2.7,5.7-5.2,8.5-6.6c13.6-6.9,23.5-18,34.4-28.2
		c6.2-5.8,12.1-12.5,21.5-13.2c8.6-0.7,17.2-1.4,25.8-1.7c2.2-0.1,4.5,1.1,6.6,2c4.6,2,9.7,3.4,13.4,6.5c11.3,9.5,24,7.7,36.7,5.7
		c4.1-0.6,7.2,0,10.1,2.5c6.8,5.8,13.4,11.7,20.6,18c-3.3,7.4-6,14.2-9.3,20.6c-2.3,4.4-3.3,8.1-1.4,13.1c2.2,5.8,3,12.2,4.3,18.3
		c1.4,6.7,2.8,13.4,4.5,21.8c-2.6,3.5-6,8.8-10.1,13.5c-9.5,11.1-13.5,24.5-15.1,38.4c-0.7,6,2.8,12.6,4.7,18.8
		c1.5,5.1,3.6,10,5.1,15c0.6,2.1,1,4.8,0.3,6.8c-4,10.6-1.6,20.2,3.4,29.7c0.4,0.9,0.7,1.9,0.9,2.7c-5.8,11.7-16.3,17.5-30.5,13.5
		c-10.4-2.9-18.6,0.4-26.3,5.1c-6.4,3.9-13.1,6.1-19.9,8.6c-4.9,1.8-9.3,1.4-14-1.4c-5.7-3.4-11.8-6-17.9-8.6
		c-7.8-3.3-16-4.7-24.4-3c-7.7,1.6-13.7-1-18.9-6c-9.5-9.3-20.7-15.2-33.5-18.8C2420.3,1425.1,2411.6,1421.2,2401.8,1417.6z"/>
	<path onclick="modals(this.id);" id="2553" class="st0" d="M2717.6,696.6c-5.6,14.7-10.8,29-16.5,43c-1,2.4-4.2,4.1-6.7,5.5c-14.4,7.7-28.8,15.3-43.4,22.6
		c-10.7,5.3-19.3,12.5-25.6,22.8c-5.7,9.3-12.4,18.2-12.2,29.9c0.1,5,0,10,0.4,14.9c0.4,5.6,1.9,11.2,1.6,16.8
		c-0.4,8.9,2.7,16.5,5.9,24.7c4.7,12.2,7.6,25.4,9.3,38.4c1.9,14.1,2.5,28.5,1.9,42.7c-0.6,16.8-2,33.8-9.8,49.9
		c-14.7,0.7-29.5,1.3-44.4,2c-4-5.1-7-10.1-6.8-16.5c0.4-13.1-6-22.8-15.5-30.9c-9.1-7.7-18.6-15.1-27.6-22.9
		c-2.7-2.3-4.2-5.9-6.8-8.4c-4.7-4.7-9.6-9.2-14.8-13.4c-3.3-2.6-5.3-5.5-3.5-9.3c7-14.7,5.3-30.4,5.8-46c0.7-20.2,3.2-40.3,5-61.6
		c-11.3-6.2-23.7-13.3-36.4-19.7c-5.6-2.8-8.6-6.8-10.5-12.4c-3.6-10.8-4.2-21.2,1.5-31.6c2.4-4.3,3.1-9.5,5-14
		c1.7-3.9,4.1-7.4,6.1-11.1c1.2-2.3,2.8-4.5,3.4-7c2.4-9.3,4.5-18.7,6.8-28.6c1.3,0.5,2.8,0.6,3.5,1.4c7.5,8.2,17.4,9.1,27.5,9
		c3.2,0,6.5-1.2,9.5-2.5c5.5-2.4,11-4.8,16.1-8c13.8-8.6,27.9-7.6,40.5,0.6c16.5,10.8,32.3,9.2,48.7,1.3c3.7-1.8,7.1-2.8,11.4-1.6
		c21.5,5.9,43,11.5,64.5,17.3C2713.4,694.6,2715.1,695.6,2717.6,696.6z"/>
	
	<path onclick="modals(this.id);" id="2549" class="st0" d="M2378.3,928.3c-2.3,3.6-3.9,6.3-5.7,8.8c-1.1,1.5-2.3,3.3-3.8,4.2c-7,4.3-14.1,8.4-21.5,12.7
		c-3.4-4-6.5-7.7-9.7-11.5c1.6-2.5,2.9-4.3,3.9-6.3c2-3.9,1.3-6.6-3.1-8.7c-4.9-2.3-10.9-3-14.9-8.6c14.6-9.4,30.2-15.1,46.9-20.5
		c2.2,5.6,4.6,10.4,5.9,15.4C2377.5,918.6,2377.7,923.6,2378.3,928.3z"/>
</g>
</svg>
