<?xml version="1.0" encoding="utf-8"?>
<!-- Generator: Adobe Illustrator 19.0.0, SVG Export Plug-In . SVG Version: 6.00 Build 0)  -->
<svg version="1.1" id="Layer1" xmlns="http://www.w3.org/2000/svg" xmlns:xlink="http://www.w3.org/1999/xlink" x="0px" y="0px"
	 viewBox="0 0 3000 1500" style="enable-background:new 0 0 3000 1500;overflow: hidden; display: inline; width: inherit; min-width: inherit; max-width: inherit; height: inherit; min-height: inherit; max-height: inherit;" xml:space="preserve">
<style type="text/css">
	.st0{fill:#8FD4EB;stroke:#000000;stroke-width:2;}
</style>
<g>
	
	<path onclick="modals(this.id);" id="2579" class="st0" d="M1332.6,986.9c1.3,9.6,1.7,17.7,3.5,25.4c1.9,8,4.6,9.2,11.8,5.5c6.6-3.5,12.5-8.1,18.8-12.1
		c2.6-1.7,5.3-3.2,7.8-4.8c6.7,4.7,9.6,4.1,13.3-2.9c2-3.7,3.6-7.7,5-11.6c1.8-4.9,4.2-8.1,10.4-8.7c7.5-0.7,13.6-4.9,18-11.4
		c8.5-12.6,17.6-24.9,20.9-40c1.9-8.8,9-13.7,13.8-20.2c0.6-0.8,1.5-1.3,1.9-2.1c5.5-11,11.8-21.7,16.2-33.1
		c2.1-5.4,1.1-12.2,0.5-18.3c-0.8-9.4-2.4-18.8-3.7-28.2c-1.5-10.9,3.2-20.7,6.1-30.6c1.3-4.4,5.5-7.9,8.5-11.7
		c0.4-0.6,1.4-1.1,2.1-1c4.8,0.5,6.7-2.5,8.3-6.1c-0.5,0-1-0.1-1.5-0.1c-0.1-2.7-1.1-5.8-0.2-8.1c2-4.9-2.4-6.6-4.3-8.9
		c-2.3-2.8-2.8-4.8-1.4-8.1c3.6-8.6,6.8-17.3,10-26c0.4-1,0.2-2.2,0.4-4.1c-7,2.6-13.2,5.2-17.8,10.7c-1.3,1.5-3.4,2.3-5.2,3.5
		c-0.4-0.5-0.9-0.9-1.3-1.4c1.6-3.8,3-7.7,4.9-11.4c2.5-4.9,2.2-6-2.4-7.3c2.1-3.5,4-7.2,6.5-10.6c1.3-1.8,3.5-2.9,5.2-4.4
		c12.4-11.7,24.8-23.5,37.2-35.2c6.6-6.2,13.3-12.4,19.9-18.6c5.8,7,6.1,11.5,2.7,19.2c-1.4,3-1.7,6.7-1.5,10
		c0.4,8.7,1.4,17.4,2.2,26.5c6,1.6,12.3,2.9,18.4,4.9c14,4.7,28,9.7,41.9,14.7c1.5,0.5,3.1,1.8,3.9,3.2c2.9,4.6,5.5,9.5,8.1,14.3
		c0.4,0.8,0.2,2,0.3,2.9c1,13.3,1.9,26.5,3.1,39.8c0.5,5.6,3.1,7.1,10,7.7c9,0.9,17.2-3.7,25.5-3.8c11-0.1,15.1-8.7,22.1-13.6
		c7.2-5.1,13.8-11.2,20.3-17.2c4.1-3.7,8.1-7.4,9.7-13.3c0.9-3.2,3.8-6.1,6.4-8.6c9.1-9,18.4-18,27.8-26.7c2.9-2.7,6.3-5,10.1-7.9
		c-5.1-2.2-9.5-3.7-13.5-5.9c-1.9-1-3.7-3.1-4.4-5.1c-5-15.8-10-31.6-14.3-47.6c-2.9-11-4.6-22.3-6.5-33.6c-0.2-1,2.4-3.2,3.9-3.5
		c3.1-0.6,6.3-0.1,9.5-0.2c2.4,0,3.2-0.5,2.7-3.6c-2.7-17-5-34-7.4-51c-0.1-0.9-0.5-1.8-1-3.3c7.6-0.8,15-1.6,23.2-2.5
		c-2.5-5.2-4.6-9.6-7.1-14.7c5.8-1.9,11.6-3.9,17.4-5.7c17.4-5.3,34.9-10.5,52.4-15.7c17.9-5.3,35.9-10.5,53.8-16
		c2.5-0.8,3.4-0.3,5.3,1.5c8.5,8.2,16.4,17.5,26.2,23.7c7.2,4.5,9.9,10.6,12.5,17c1.8,4.5,1.2,10.1,1.4,15.2
		c0.3,9.6,5.8,16.1,12.7,21.8c1.1,0.9,3.1,0.9,4.6,1.2c6.3,1.1,12.9,1.3,18.9,3.3c12.6,4.3,24.9,9.3,37.1,14.6
		c3.7,1.6,6.6,5,9.8,7.7c4.7,4,9,8.5,13.9,12.3c2.7,2.1,4.5,4,5.2,7.5c1.4,7.6,6.9,12.9,13.7,14.1c-1.6,7-9.8,13.3-18.2,13.4
		c-10.8,0.2-20.2,4.9-29.7,9.1c-3.4,1.5-4.3,7.4-2.3,12.2c1.7,4.2,3.6,8.4,5.3,12.6c2.1,5.1,5,10,4.1,16c-0.2,1.1,0.4,2.7,1.2,3.6
		c5.5,6.6,4.4,14.1,2.6,21.3c-1.9,7.3-3.2,14.8-7.7,21.4c-2.6,3.8-2.2,8.9,0.7,13c3.9,5.4,7.9,10.8,12,16.1c3.8,4.9,5,10.7,6.3,16.7
		c1.7,7.6,5.1,14.7,7.3,22.2c1.5,5.1,2.3,10.5,3.5,15.7c1.6,7.1,3.5,14.2,5.1,21.4c1.1,4.9,2,9.9,2.9,14.9c0.7,4-0.3,6.1-5.2,6
		c-12.2-0.3-24.3-0.2-36.5,0c-2.2,0-4.7,1.2-6.4,2.6c-14.9,13.2-29.6,26.2-48.1,34.5c-8.7,3.9-17.1,9.4-23.9,15.9
		c-5.2,5-10.3,8.3-17.2,10.2c-3.3,0.9-5.8,4.7-8.7,7.1c-1.3,1.1-3.4,2.7-4.5,2.3c-5.2-1.9-8,1.9-11,4.4
		c-8.7,7.3-16.9,15.2-25.7,22.4c-5.3,4.3-11.3,7.6-17,11.5c-1.5,1-3.4,2.2-3.9,3.7c-2.3,6.5-7.3,6.2-12.8,6.3
		c-20.9,0.4-41.7,1.2-62.6,1.9c-8.1,0.3-16.2,0.7-24.3,1c-20.2,0.7-40.4,1.3-60.6,2c-8.3,0.3-16.5,0.6-24.8,1
		c-2.4,0.1-4.9,0.5-7.3,1c-4.4,0.9-5.8,3.1-3.9,7c7.4,15.4,14.1,31.2,22.8,45.8c4.2,7.2,11.9,12.5,18.6,18c6.2,5,13.3,8.9,19.7,13.5
		c3.2,2.3,6.6,4.9,8.8,8.2c1.1,1.7-0.1,5-0.5,7.5c-1.6,13-2.9,26-5.1,38.9c-2.1,12-5.1,23.9-7.8,35.8c-1.2,5.4-2.6,10.8-4.1,16.1
		c-1.5,4.8-4.5,7.1-10.1,7.3c-15.1,0.6-30,2.5-43.5,10.1c-8.7,4.9-17.3,9.9-26.1,14.6c-10.5,5.6-13.3,16-16.3,26.2
		c-0.5,1.6-0.8,3.2-1,4.8c-1.1,9-0.5,10.6,7.8,14.4c3.6,1.6,4,5,2.2,9.7c-2.3,5.9-4.6,11.8-7.2,18.4c-3.8-2.3-8-4.7-12.1-7.1
		c-19-11.3-37.8-22.9-57-33.8c-16.3-9.2-33-17.7-49.5-26.4c-15.5-8.2-31.2-16.1-46.7-24.3c-13.5-7.1-27-14.4-40.4-21.8
		c-10.3-5.7-21.3-9.7-32.8-11.7c-3.7-0.7-5.5-2.7-7.8-5.2c-4.6-5.2-9.3-10.5-14.6-15c-5.1-4.3-7.1-9.8-8.3-15.9
		c0-0.2-0.2-0.3-0.3-0.4c-5-7.4-1.3-14,2.9-19.7c3.8-5.3,4.1-10.6,2.6-16.2c-3.2-12.1-7.3-23.9-10.2-36c-0.9-3.8-0.3-9.1,1.9-12.2
		c7.3-10.2,7-21.9,7.3-33.3c0.1-2.9,0.8-4.5,2.6-6.2c4.2-3.9,8.3-8,12.8-11.7C1326.5,989.6,1329.4,988.6,1332.6,986.9z"/>
	<path onclick="modals(this.id);" id="2591" class="st0" d="M1341.2,1017.1c-2.1-4.3-3.6-8.3-3.5-13.3c0.1-5.4-1.4-10.9-2.8-16.2c-0.3-1.2-3.5-2.7-4.9-2.3
		c-2.9,0.8-5.5,2.6-8,4.3c-1.9,1.3-3.6,3.1-5,4.9c-5.9,7.7-13,8.6-22.2,6.1c-11-3-21.5-0.4-30,8c-0.8,0.8-1.5,1.8-1.9,2.8
		c-1.8,4.7-3.3,9.4-7.5,12.9c-1.6,1.4-1.4,4.8-2.3,8.1c-4.9-3.8-9.6-7.3-14.2-11.1c-16.7-13.7-33.4-27.4-50.1-41.1
		c-11.1-9.1-22-18.3-33.3-27.1c-4.1-3.1-9.2-5-14.1-7.6c11.5-3.8,21-13.5,34.8-11.8c3.5,0.4,7.2-0.6,10.8-1c0.8-0.1,1.9-0.5,2.2-1
		c2.9-6.7,8.4-13.7,8.1-20.3c-0.8-13.9-4.9-27.5-7.2-41.3c-0.5-3.2,0.6-6.8,1.4-10.2c3.6-15,3.5-30.2,1.8-45.4
		c-0.2-1.5,0.4-3.2,0.7-4.7c1.2-7.4,2.7-14.8,3.6-22.2c1.3-10.1,7-17.7,13.3-25.1c4.1-4.7,9.8-8,12-14.3c0.2-0.6,1.5-1.2,2.2-1.3
		c4.7-0.1,9.3-0.2,14,0c4.6,0.2,9.2,0.8,13.8,0.9c18.9,0.4,37.9,0.6,56.8,1.1c9.6,0.2,19.2,0.6,28.8,1c1.4,0.1,2.9,0.5,4.1,1.2
		c4.4,2.4,8.6,5.3,13,7.6c5.9,3.1,11.5-0.5,17.2-1.3c10.3-1.4,17.8-8.2,26-13.9c8.3-5.8,14.1-4.9,20.2,2.8c1.8,2.3,3.8,4.6,5.2,7.1
		c2.8,5.3,7.4,6.5,12.4,5.2c3.8-1,4.9,1,6.5,3.3c3.1,4.2,2.6,8.8,1.7,13.5c-0.8,4.3-1.9,8.6-2.7,12.9c-0.8,4.7,2,6.3,6.5,5.9
		c11.9-1.2,15.8-10.3,20.8-20.6c0.4,2.8,0.4,4.6,1,6c3.5,7.8,2.7,15.7,0.4,23.6c-1.2,4.4-3,8.7-3.5,13.2c-0.5,4.5,0.3,9.2,0.8,13.7
		c1.2,11.2,2.6,22.5,3.8,33.7c0.2,1.7-0.1,3.7-0.9,5.3c-5.9,12-11.9,24-18.1,35.9c-1.3,2.6-3.4,4.9-5.5,6.9
		c-4.5,4.2-6.7,9.2-8.2,15.2c-3.5,13.6-11.6,25-19.3,36.5c-5,7.4-12.2,10.7-20.7,12.4c-2.4,0.5-5.2,2.7-6.5,4.9
		c-3.3,5.6-5.6,11.7-8.7,17.5c-0.7,1.2-3.8,2.6-4.4,2.1c-6.6-5.3-11.1,0.1-14.8,3.5C1357.9,1010.3,1350.3,1014.5,1341.2,1017.1z"/>
	<path onclick="modals(this.id);" id="2587" class="st0" d="M1454.7,748.9c3.2,2.4,6.1,4.5,8.9,6.6c-1.1,3.3-2.7,5.2-6.9,4.7c-2.1-0.2-4.4,1.7-6.7,2.7
		c-2-4.9-6.9-7.2-11-6.6c-8.4,1.2-12.2-3.5-15.9-9.3c-2.7-4.2-5.6-7.6-10.9-9.2c-7.4-2.2-13,1.2-17.8,5.5
		c-9.3,8.4-20.5,12-32.4,13.4c-6.1,0.7-11.5-2.8-16.4-6.6c-1.8-1.4-4-3-6-3c-21.4-0.5-42.9-0.7-64.3-1.2c-12.1-0.2-24.2-0.6-36.3-1
		c-3.9-0.1-7.9-0.5-11.8-1c-3.5-0.4-5.6,0.8-7.7,3.8c-4,5.8-8.5,11.2-13.3,16.4c-7.7,8.3-11.3,18.1-12.3,29.1
		c-0.9,10-2.2,19.9-2.9,29.9c-0.4,6.2,0.3,12.4-0.2,18.6c-0.5,6.6-1.3,13.4-3,19.8c-2.1,7.9,0,15.3,1.4,22.8
		c1.6,9,4.1,17.8,5.5,26.8c0.4,2.9-1.9,6.1-2.5,9.2c-1.7,9.3-8.3,11-16.2,10.5c-8.7-0.5-16.4,1.9-23.6,6.8c-2.2,1.5-5.1,2.2-7.6,3.2
		c-1.2,0.5-3.1,0.6-3.5,1.5c-2.1,4.5-5.5,3.5-9.1,2.6c-13-3.1-26-6.1-39-9c-13.5-3.1-27-6-40.5-9c-6.2-1.4-12.3-3-18.8-4.6
		c0.1-1-0.1-2.2,0.4-3.2c3.2-7-0.6-13.3-8.5-13.1c-11.8,0.3-23.6,1.3-35.5,1.9c-2,0.1-4,0-5.7,0c-2.4-6.2-2.8-13-9.2-15.3
		c7.2-4.4,14.5-8.3,21.2-13.1c4-2.8,7.1-6.9,10.6-10.5c2.4-2.4,4.6-4.9,7.2-7c0.8-0.7,3.1-0.5,4.1,0.2c7.7,5.2,15.3,10.6,23,15.8
		c6.1,4.1,8.2,3.7,11.2-2.9c3.6-7.7,6.8-15.5,10.1-23.3c2.1-4.8,5.4-8.4,11-7.8c6.3,0.7,12.5,1.9,18.7,3.3c6.4,1.4,9.5,0.2,12.3-5.6
		c3.8-7.9,8-15.6,11.2-23.8c1.3-3.5,0.5-7.8,0.5-11.7c0-1.4-0.9-3-0.6-4.3c2.5-9.4-2.4-16.6-6.7-24.2c-1.1-1.9-0.8-4.4-1.8-6.4
		c-3.4-7-6.7-14-10.5-20.7c-3.4-6-7.5-11.7-11-17.6c-0.8-1.3-1.2-3.9-0.4-4.9c0.9-1,3.3-1.4,4.9-1.1c2.3,0.5,4.8,1.4,6.7,2.8
		c4.6,3.6,10.1,2.5,14-0.9c5.7-4.9,7.9-11.1,6.4-18.8c-0.8-4.2-0.5-8.6-0.8-12.9c-0.1-2.3-0.3-4.6-0.8-6.8
		c-1.2-5.8,1.4-9.8,6.6-12.6c14-7.6,27.2-16.3,34.9-31.1c0.5-0.9,1-1.7,1.2-2.7c2.1-7.7,6.2-11.1,14.1-11.1
		c13,0.1,25.3-2.7,35.1-11.3c5.8-5.1,10-12,14.7-18.3c1.8-2.5,3.1-5.3,4.6-7.8c5.3,5.7,10.7,11.4,16.1,17.3
		c8.2,8.9,17.9,11.8,29.8,9.3c16.3-3.5,32.6-6.4,49-9c6.5-1.1,13.2-0.7,19.8-1.2c7.6-0.5,15.3-1.1,23.4-1.7c0.8,1.1,2,3.2,3.6,4.7
		c3.9,3.6,2.9,8.1,2.9,12.5c0.2,12-2.5,24.1,2.8,36c3.8,8.6,5.8,17.9,8.4,27c1.2,4.1,3.2,5.7,7.8,5.7c23.7-0.2,47.3-0.1,71-0.1
		c3,0,13.4,7,13.9,9.8c0.3,1.4-0.3,3.2-1,4.6c-1.8,3.8-3.7,7.5-5.7,11.2c-2.9,5.6-5.9,11.1-8.9,16.7
		C1458.3,741.9,1456.5,745.4,1454.7,748.9z"/>
	<path onclick="modals(this.id);" id="2594" class="st0" d="M1501.3,432.3c-0.7-4.6-1.7-9.1-2.1-13.6c-0.3-2.8-0.1-5.6,0.2-8.4c0.4-3.6,1.5-7.1,1.5-10.6
		c0.1-6.3,4.7-9.9,8.1-14.2c6.5-8.2,9.3-16.5,5.3-27.4c-4.4-11.8-11.4-21.5-18.9-31.2c-2-2.6-3.5-5.5-5.4-8.5
		c13-1.9,24.5-6.6,35.6-12.4c1.6-0.8,2.9-3.4,3.2-5.3c1.4-8.1-1.4-14.5-7.7-20.2c-5.7-5.3-10.3-11.9-15.2-18.1
		c-0.7-0.9-1.1-2.5-0.9-3.6c2.5-13.1,5.2-26.2,7.9-39.3c0.5-2.6,1.6-4.3,4.7-3.2c1.1,0.4,2.2,0.6,3.3,0.7
		c16.6,0.4,33.2,0.6,49.8,1.1c4.1,0.1,8.2,0.8,12.6,1.2c0.3,1.5,0.7,3.2,1.1,4.9c1.8,7.6,7.6,9.5,14.4,9.9c4.4,0.3,8.9,0.4,13.3,1.1
		c1.8,0.3,3.8,1.8,4.8,3.3c13.3,19.6,26.5,39.2,39.6,58.9c2.3,3.5,3,8.2,5.8,11c3.4,3.5,7.9,6.4,12.4,8.1c1.7,0.6,5.4-2.5,7.5-4.6
		c3-3.1,4.7-3.2,6.7,0.8c4.3,8.6,5,7.7,14.9,7.6c6.7-0.1,13.5,3.5,21.6,5.9c-8.8,6.6-16.2,12.1-23.6,17.7
		c-8.6,6.5-17.4,12.8-25.8,19.5c-2,1.6-3.8,4.1-4.5,6.5c-2.2,8.2-9.8,11.4-15,16.6c-6.2,6.1-13.2,11.4-19.8,17.1
		c-12.3,10.6-24.7,21.3-37,32c-6.2,5.4-12.4,10.8-18.4,16.5c-3.3,3.1-5.8,5.5-10.2,1.1c-4.8-4.9-11.8-3.8-17.9-5.3
		c-10.3-2.4-20.6-4.8-30.7-7.8C1515.5,438,1508.6,435,1501.3,432.3z"/>
	<path onclick="modals(this.id);" id="2597" class="st0" d="M1672,419.2c0,5.2-0.4,10,0.1,14.8c1.1,10.5,2.7,21,4.1,31.5c1,7.1,5.5,12.2,10.9,15.8
		c5.1,3.4,6.3,7.9,6.9,13.1c0.3,2.5,0.4,3.5,3.8,3c2.9-0.4,6.6,1.5,9.3,3.4c7.5,5.2,14.4,11.2,21.8,16.5
		c7.2,5.1,12.5,11.5,15.7,20.6c-1.9,0.4-3.8,0.8-5.7,1c-4.4,0.4-8.9,0.6-13.3,1.2c-1,0.1-2.6,2-2.4,2.8c2.1,14.2,4.4,28.4,6.6,42.6
		c0.6,4,1.1,8.1,1.8,13.5c-8,0-15.9-0.2-23.8,0c-19.7,0.6-39.4,1.3-59.1,2c-12.4,0.4-24.9,0.6-37.3,1c-14,0.5-28.1,1.2-42.1,2.1
		c-1.4,0.1-3,1.2-4.1,2.3c-5.7,5.5-11.3,11.2-17.8,17.7c-0.9-5.3-1.8-9.5-2.4-13.7c-2-14.7-4-29.5-5.9-44.3
		c-1.4-11.2-2.7-22.5-4.1-33.7c-0.6-5-1.1-10.1-2.2-15c-0.3-1.3-2.2-2.7-3.7-3.3c-4.5-1.9-9.1-3.4-14.1-5.2
		c7.7-8.9,15.1-17.4,22.5-25.9c5.6-6.5,11.3-12.9,16.6-19.5c2.3-2.9,4.6-1.6,6.9-0.9c7.2,2.1,14.3,4.6,21.5,6.5
		c1.9,0.5,4.8,0.4,6.3-0.6c22.8-15.2,45.5-30.6,68.2-46C1661.7,419.3,1666.9,418.5,1672,419.2z"/>
	<path onclick="modals(this.id);" id="2599" class="st0" d="M1714.7,601.6c1.2,6.7,3,12.4,3.2,18.2c0.7,21.4,11,40.2,15.7,60.4c0.3,1.3,0.9,2.4,1.3,3.7
		c2.3,8.9,6.5,12.5,16.2,13.3c-5.4,5-10.3,9.7-15.4,14.4c-2.3,2.1-4.7,4.1-7.1,6.2c-3.8,3.4-7.8,6.7-11.3,10.4
		c-2.8,3-5.8,6.4-7,10.2c-2.4,7.8-8.5,11.8-14,16.6c-8.7,7.6-17.3,15.3-25.9,22.9c-1.8,1.6-2.9,3.4-6.2,2.4
		c-2.3-0.7-5.5,0.6-7.9,1.7c-7.3,3.3-15,3.4-22.8,2.9c-3.6-0.2-5.7-2-5.8-6.2c-0.4-13.6-4.3-26.9-3.2-40.8c0.3-3.1-3.6-6.3-4.3-9.7
		c-1.9-8.7-7.8-11.2-15.6-13.5c-15-4.3-29.6-9.9-44.3-14.9c-1.2-0.4-2.5-0.7-3.8-0.7c-3.1-0.1-4.6-1.2-4.7-4.7
		c-0.3-7.4-1.5-14.7-1.7-22.1c-0.1-2.6,0.6-6.1,2.3-7.9c6.4-6.8,2.1-12.8-1.6-18c-3.1-4.2-1.1-6,1.7-8.2c1.1-0.9,2.4-1.7,4.4-3.1
		c-3.6-2.6-6.8-5-10-7.3c1.1,0.3,2.3,0.6,3.4,0.9c5.6-6.8,11.2-13.6,16.9-20.3c0.7-0.8,2.3-1.2,3.5-1.3c19.9-0.7,39.8-1.4,59.7-2
		c12.9-0.4,25.9-0.5,38.8-1.1C1684.3,603.3,1699.3,602.4,1714.7,601.6z"/>
	<path onclick="modals(this.id);" id="2598" class="st0" d="M1552.3,634c-25.1,23.9-49.3,46.9-73.5,70c-3.5-3-6.5-6.1-10-8.6c-2-1.4-4.8-2.3-7.2-2.3
		c-23.3-0.2-46.6-0.2-70,0c-3.2,0-4.8-0.6-5.8-4.2c-3.9-13.4-8.3-26.7-12.3-40.1c-0.5-1.7-0.2-4,0.6-5.6c1.9-3.5,2-6.6,0.6-10.2
		c-0.7-1.7,0-4.1,0.4-6.1c1.3-7.4-2.2-13-8-18.4c9-3.7,17.2-7.1,25.4-10.4c6.7-2.7,13.7-4.9,20.2-8.1c3.7-1.8,6.8-5.1,9.9-8
		c3-2.8,3.2-6.3,1.9-10c-1-2.8-2.4-5.4-3-8.2c-0.5-2.1-0.8-5.3,0.3-6.5c2.1-2.2,5.1-4.3,8.7-2.2c1.4,0.8,3,1.3,4.5,2
		c8.4,4.3,11.4,1.9,16.5-2.2c6.1-4.8,11.9-10,18-14.9c2.9-2.3,6.4-4,9.3-6.3c3.8-3,7.4-6.4,6.3-12c-0.7-3.5,0.8-5.5,4.3-6.3
		c4.9-1.2,9.6-3.2,14.5-4c5.4-0.9,10.6,1.5,15.8,2.2c11.3,1.6,11.4,9.4,12.4,17.5c1.5,12,3.3,24,4.9,36c1.5,11.4,2.7,22.8,4.1,34.2
		c1,8.1,1.9,16.3,3.1,24.4c0.2,1.1,1.2,2.3,2,3.2C1548.2,630.5,1550.4,632.3,1552.3,634z"/>
	<path onclick="modals(this.id);" id="2596" class="st0" d="M1866.3,485.3c-14.4,4.4-28.3,8.6-42.1,12.7c-27.1,8.2-54.2,16.4-81.3,24.4
		c-1.4,0.4-3.6-0.1-4.8-1c-6.9-5.6-13.4-11.6-20.4-17.1c-4.2-3.3-8.9-6-13.5-8.6c-2.1-1.2-4.7-1.4-8.1-2.3c0.6,0.6,0.1,0.3,0.1,0.1
		c1.5-7.9-3.5-12.3-9.1-15.9c-6.7-4.3-8.1-11.1-9.1-18.1c-1.2-9.2-2.3-18.5-3-27.8c-0.3-4.2,0.4-8.4,0.6-13.6
		c9.8,3.1,15.1-1.6,19.9-8.2c4.4-6.1,10.9-8.4,18.3-9.2c7.3-0.8,14.6-2.1,21.5-4.1c3.9-1.1,7.3-4.2,10.8-6.5c4.5-3,8.7-6.3,13.3-9.1
		c1.4-0.9,3.9-1.2,5.4-0.6c22,8.1,43.9,16.5,65.8,24.7c3.1,1.2,4.4,2.9,4.4,6.5c0,9.5,0.6,18.9,0.8,28.4c0.1,2.6-0.8,5.2-0.8,7.8
		c0.1,2,0.3,5.2,1.5,5.9c4,2,3,5.3,3.4,8.5c0.7,5.8,4.7,9.4,9.3,12.4c5,3.2,11.7,3.4,15.6,8.8
		C1865.3,483.9,1865.6,484.4,1866.3,485.3z"/>
	<path onclick="modals(this.id);" id="2595" class="st0" d="M1483.8,513.1c-4.7-5.9-9.6-12.7-15.2-18.8c-6-6.6-12.6-12.5-22.1-14c-2.8-0.4-5.5-2.3-8-3.9
		c-5-3.3-9.9-6.8-14.7-10.4c-0.9-0.7-1.8-2.3-1.6-3.2c2.2-9.7-3-15.9-9.9-21.7c7.9-3,16.2-5.5,23.9-9.1c7.8-3.6,15.4-7.8,22.6-12.6
		c4.7-3.1,8.7-7.4,12.6-11.6c1.7-1.8,2.1-4.7,3.5-6.9c1.6-2.4,3.4-5.9,5.7-6.4c5.8-1.5,11.9-1.5,18.5-2.2
		c-0.8,5.6-1.9,10.9-2.2,16.2c-0.3,6.1,0.6,12.3,0.3,18.5c-0.4,7.6,4.6,9.2,10.3,11c10.5,3.4,20.9,7.5,31.5,10.5
		c6.7,1.9,13.9,2.2,20.7,3.7c3.7,0.8,7.7,2,10.7,4.2c4.3,3.2,7.5,2.8,11.1-0.4c11.7-10.4,23.4-20.9,35.2-31.1
		c16.4-14.2,33-28.3,49.4-42.5c3.5-3.1,6.5-6.5,8.2-11.3c1.4-3.8,5.5-6.9,9-9.5c12.6-9.6,25.4-18.9,38.1-28.4
		c5.7-4.3,8.4-4,13.3,1.4c3.9,4.4,7.9,8.6,12.6,13.6c-1.4,3.8-3.3,9.1,2.2,13.5c0.3,0.2,0.4,1,0.3,1.4c-1.3,7.1,3.1,11.4,8.1,15.4
		c-6.8,4.7-13.1,9.3-19.6,13.6c-2.2,1.5-5,2.5-7.6,3c-8.3,1.7-16.6,3.3-25,4.6c-7.1,1.1-10.6,6.8-14.6,11.4c-3,3.4-5.5,5.4-10.2,5.3
		c-6.4-0.1-12.9,0.4-19.3,1c-1.9,0.2-3.8,1.7-5.6,2.8c-22.9,15.3-45.8,30.7-68.8,45.9c-1.1,0.7-3.1,0.8-4.5,0.5
		c-8.3-2.3-16.5-5-24.8-7.3c-1.4-0.4-3.9,0.2-4.8,1.2c-13.4,15.2-26.7,30.6-40,45.8c-0.7,0.8-1.9,1.6-3,1.8
		C1501.8,509.7,1493.2,511.3,1483.8,513.1z"/>
	<path onclick="modals(this.id);" id="2580" class="st0" d="M1475.1,758.1c-0.2-13.8,7.7-27.6,19-32.2c-0.3,1.7-0.3,3.1-0.8,4.3c-2.4,6.2-5.3,12.3-7.2,18.6
		c-1.3,4.2-3.5,6.6-7.4,7.9C1477.5,757.1,1476.3,757.6,1475.1,758.1z"/>
	<path onclick="modals(this.id);" id="2593" class="st0" d="M1444.9,790.4c1.1-6.1,2.2-12.5,3.2-18.6c4.9,3,9.5,5.9,14.1,8.8
		C1459.6,788.3,1453.2,790.5,1444.9,790.4z"/>
	<path onclick="modals(this.id);" id="2585" class="st0" d="M1484.9,755.7c2.7,3.4,4.5,5.4,5.9,7.6c0.5,0.8,0.7,2.4,0.3,3.3c-1.8,3.5-1.9,6.4,2,8.8
		c-0.4,0.4-0.8,0.9-1.3,1.3c-5.2-3.5-10.5-7-17-11.3C1478.4,761.9,1481.4,759,1484.9,755.7z"/>
	<path onclick="modals(this.id);" id="2590" class="st0" d="M1486.6,777c-3.4,3.5-6.8,7.1-11,11.5c-0.5-4-0.9-6.4-1.2-8.7c0.7-0.3,2.1-0.5,2.4-1.2
		C1479.6,772.4,1483.2,774.4,1486.6,777z"/>
	<path onclick="modals(this.id);" id="2592" class="st0" d="M1464.7,777c-7.3-0.4-11.7-5.4-16.9-10.7c2.7,0,6.1-0.7,6.5,0.1
		C1456.6,771.2,1465.5,769,1464.7,777z"/>
	<path onclick="modals(this.id);" id="2588" class="st0" d="M1456.3,762.1c6.1,1.2,10.8,2.1,15.6,3c0.3,0.5,0.6,0.9,0.9,1.4c-1.9,1.8-3.8,3.6-5.7,5.5
		c-1.4-2.1-2.9-4.2-4.7-6.8c-0.6,0.3-2,1.1-4,2.1C1457.9,765.9,1457.4,764.7,1456.3,762.1z"/>
	<path onclick="modals(this.id);" id="2578" class="st0" d="M1468.9,731.3c1.7-5,3-9,4.4-12.9c0.3-0.7,1.4-1,2.1-1.5c0.5,0.9,1.6,1.9,1.4,2.6
		c-1.2,3.7-2.5,7.3-4.1,10.8C1472.4,730.9,1470.6,730.8,1468.9,731.3z"/>
	<path onclick="modals(this.id);" id="2583" class="st0" d="M1460.6,744.8c4.9-0.4,9.8-0.8,15.7-1.2c-5,8.8-10.9,1.4-15.8,2.5
		C1460.5,745.6,1460.5,745.2,1460.6,744.8z"/>
	<path onclick="modals(this.id);" id="2582" class="st0" d="M1470.4,735.5c-2.2,2.2-4.5,4.4-6.7,6.6c-0.5-0.5-1-0.9-1.5-1.4
		C1464.9,738.8,1463.6,733.3,1470.4,735.5z"/>
	<path onclick="modals(this.id);" id="2586" class="st0" d="M1465,757.8c2.2-0.3,4.3-0.7,6.8-1.1c0,2.1,0,3.5,0,5.8c-2.6-0.9-4.7-1.7-6.8-2.5
		C1464.9,759.3,1464.9,758.6,1465,757.8z"/>
	<path onclick="modals(this.id);" id="2589" class="st0" d="M1475.1,776c-4.6-2.1-3-4.7-0.6-7.5C1479.7,770.4,1477.9,773.1,1475.1,776z"/>
	<path onclick="modals(this.id);" id="2584" class="st0" d="M1474,751.5c-4.9,3.5-8.1,3.1-12-1.6C1466.4,750.5,1469.6,750.9,1474,751.5z"/>
	<path onclick="modals(this.id);" id="2581" class="st0" d="M1470.3,740.6c0.9-1.8,1.9-3.7,2.9-5.7c1.7,0.6,3,1,5.9,1.9c-3.2,1.9-5.5,3.3-7.8,4.7
		C1470.9,741.2,1470.6,740.9,1470.3,740.6z"/>
</g>
</svg>
