<?xml version="1.0" encoding="utf-8"?>
<!-- Generator: Adobe Illustrator 19.0.0, SVG Export Plug-In . SVG Version: 6.00 Build 0)  -->
<svg version="1.1" id="Layer1" xmlns="http://www.w3.org/2000/svg" xmlns:xlink="http://www.w3.org/1999/xlink" x="0px" y="0px"
	 viewBox="0 0 4000 2100" style="enable-background:new 0 0 4000 2100;overflow: hidden; display: inline; width: inherit; min-width: inherit; max-width: inherit; height: inherit; min-height: inherit; max-height: inherit;" xml:space="preserve">
<style type="text/css">
	.st0{fill:#8FD4EB;stroke:#000000;stroke-width:2;}
</style>
<g>
	
	<path onclick="modals(this.id);" id="1048" class="st0" d="M2180.1,1311.2c-3.2,2.9-5.7,5.6-8.6,7.7c-6.5,4.7-7.2,11.1-5.9,18.2c1.1,6.3,2.6,12.5,3.3,18.8
		c0.3,3.2-0.5,6.5-1.2,9.7c-3.3,14.2,0.8,22.5,12.3,29c5.4,3,10.4,6.9,15,11c6.8,6,15.7,6.8,23.4,10.3c4.1,1.8,7,3.9,7.6,8.6
		c1.2,9.6,2.6,19.1,4,28.6c2.2,14.6,8.3,26.8,20.5,35.8c4.3,3.2,8.2,7,11.7,11c1.7,1.9,2.9,5.2,2.6,7.6c-0.8,6.8,2.3,12.2,6.2,16.6
		c4.7,5.3,5.1,11.5,5.9,17.7c2,15.2-8.1,24.7-17.6,33.8c-11.8,11.3-15.5,18.2-12.2,32.2c0.3,1.4,1.7,2.7,2.9,3.6
		c7.4,5.6,14.9,11.1,23.2,17.3c-2.4,0.5-4.2,0.6-5.8,1.3c-2.5,1.2-5.9,2.2-6.9,4.2c-3.3,6.6-5.4,13.7-1.8,21.2
		c4.1,8.4,8.1,16.9,12.3,25.7c-7.8,2.6-6.8,11.1-9.4,17.6c-1.5,3.6-2.7,7.3-3.7,11.1c-1,3.9-2.6,8.2-1.8,11.9c2,9.8-3.5,17-7.4,24.5
		c-3.8,7.2-5.7,14.5-7.1,22.5c-2.2,12.2,5.1,21.2,8.1,31.6c2.4,8.5,5.8,16.6,12.7,22.2c7.7,6.3,14.9,14.1,26.3,13.4
		c11-0.7,22.1-1.6,33.1-1.9c11.2-0.4,21.7,3,31.8,7.1c20.5,8.3,40.8,17.2,61.2,25.9c1.3,0.6,2.5,1.4,4.4,2.4
		c-9.4,4.1-18.1,8.7-27.7,2.7c-7.2-4.5-13.9-9.7-21.2-14c-8.1-4.9-16.5-9.2-26.2-10.2c-8.2-0.8-16.3-2.7-24.4-2.8
		c-14.1-0.2-27.4,3.3-39.7,10.6c-7.5,4.5-15.9,7.7-23.9,11.4c-1,0.5-2.4,0.1-3.6,0.1c-3.8,0-7.7-0.6-11.4,0.2
		c-11.2,2.3-22.7-2-29.3-11.2c-9.3-13-21.2-23.4-34.7-31.9c-2.6-1.6-6.2-1.9-9.4-2.2c-6.4-0.7-12.8-1-19.7-1.5
		c1.2-3.1,2.7-6.2,3.7-9.5c2.7-9.2,5.7-18.3,7.5-27.7c0.8-4.2-0.9-9-1.6-13.5c-0.6-3.7-1.6-7.4-1.8-11.1c-0.8-13-9.3-21.6-17.3-30.4
		c-1.8-2-4.6-3.6-7.2-4c-8.6-1.6-13.2-7.8-17.6-14.3c-6.1-8.8-15.2-13.1-25.2-13.8c-11-0.8-21.5,2.9-30.4,9.2
		c-9.6,6.9-20.3,7.3-30.4,5c-11.9-2.7-21.8,1-32.1,5c-4.5,1.8-9.4,5.7-13.5,5c-9.5-1.6-14.6,4.7-21.1,8.7c-5,3.1-9.6,6.8-14.7,9.7
		c-9.5,5.5-22.4,3.6-30.4-4.4c-6.1-6-12.3-11.8-18-18.1c-6.7-7.4-14.2-13.5-23.6-16.5c-6.1-2-12.6-3.6-19-3.7
		c-2.9-0.1-5.8,3.8-7.9,5.3c-12.4-2.6-24.6-5.2-36.9-7.5c-1.8-0.3-3.8,0.8-5.8,0.8c-3.4-0.1-7.4,0.3-10.1-1.2
		c-5.3-2.9-10.2-3-15.4-0.7c-9.5,4.1-18.7,0.5-27.9-1c-12.7-2.2-25.3-2.6-37.4,2.9c-2.1,0.9-4.4,1.2-6.5,2.1c-4.5,2-8.7,2.5-11.1-1
		c1.5-10,2.8-19.2,4.4-28.4c2-11.2-3.6-21.4-3.7-32.2c-0.2-12.3-6.1-22.9-8.7-34.5c-1.1-5.1,0.2-10.7,0.4-16.1
		c0.1-1.5,0.4-3.3-0.2-4.5c-3.5-6.4-0.4-11.5,3-16.6c2.7-4.1,5.8-8,8-12.3c4.1-8,10.2-13.9,16.7-19.7c6.3-5.6,11.5-12.4,17.4-18.4
		c9.2-9.2,10.3-20.8,9.9-32.8c-0.2-6.9,1.4-12.1,8.6-14.3c9.4-2.9,13.9-10.4,17.4-18.8c1.3-3.2,2.6-6.3,3.7-9.5
		c1-2.9,0.5-5.5-2.5-6.6c-4.5-1.7-8.7-4.8-14-2.3c-1.2,0.6-2.9,0.1-4.2,0.1c-4.1-6.9-4.6-13.9-0.5-20.7c2.4-3.9,1.2-7.4,0.1-11.3
		c-1.8-5.7-2.6-11.7-4.6-17.4c-2.1-5.8-5.1-11.2-7.6-16.8c-0.7-1.6-2-3.2-2.1-4.8c-0.6-5.9-1.5-11.9-0.9-17.8
		c1.6-15.3-5.3-27.5-14.3-38.6c-12.9-15.9-21.1-34.3-29.1-52.9c-4.7-10.8-6.2-21.8-7-33.3c-0.4-5.7-2.3-11.6-4.9-16.7
		c-1.7-3.3-5.9-5.3-8.8-8.1c-3.9-3.7-7.3-8-11.6-11.3c-5-3.9-10.3-7.8-16.1-10c-6.2-2.3-11-5.2-13.5-11.5c-0.8-2.1-2.5-3.8-4.4-6.4
		c7.9-4.1,15.2-9.3,23.3-11.9c8-2.5,16.8-2.4,25.3-3.5c9.6-1.2,19.1-2.7,28.7-3.8c9.8-1.2,19.6-2.2,29.4-3.1c3.5-0.3,7,0.1,10.5-0.2
		c1-0.1,2-1.1,2.8-1.9c7.2-6.8,14.1-14.1,21.7-20.4c4.9-4.1,10.8-7.5,17.9-4.1c1,0.5,2.3,0.6,3.4,0.5c8.6-1,17.2-2.2,25.9-3.1
		c12-1.3,24-2.4,36-3.4c0.8-0.1,2.5,2.2,2.6,3.4c0.9,11.5,1.3,23.1,2.2,34.6c0.4,4.3-0.6,9.3,3.9,12.4c1.2,0.8,2.8,1.8,4,1.5
		c10.7-2.8,21.3-5.9,32-8.8c4.6-1.3,9.6-1.6,13.8-3.7c7.8-3.8,15.3-8.4,22.8-13c3.8-2.3,7.5-5,10.8-8.1c6.4-5.9,14.8-4.7,22.1-5.5
		c10.3-1.1,17.2-5.9,23-13.9c2.7-3.8,6.4-6.9,9-9.7c3.4,1.9,7.3,3.6,10.8,6c6.2,4.2,12.1,9,18.2,13.3c5.1,3.6,20.6,1.5,24.9-2.8
		c2.9-2.9,6.2-5.3,9.2-7.9c6.4,5.7,12.5,11.9,19.5,16.8c4,2.8,9.6,4,14.6,4.7c11.8,1.8,23.7,3.1,35.7,4.1c11.8,1,11.9,0.8,16.3-2.1
		c0.8,1.4,1.7,2.7,2.4,4.1c12.8,25.3,26.1,50.3,38.1,75.9c4.3,9.2,6.8,19.8,7.6,29.9c1.1,12.5-5.6,23.1-12.2,33.4
		c-6.6,10.3-15.8,16.1-27.4,18.9c-2.7,0.7-5.5,1.4-7.7,3c-1.9,1.4-3.6,3.8-4.1,6.1c-0.2,1.2,2.1,3.4,3.8,4.3
		C2158.6,1299.4,2169.2,1305.2,2180.1,1311.2z"/>
	<path onclick="modals(this.id);" id="1050" class="st0" d="M2443.9,1246.7c-3.3,0.5-6.5,0.5-9.4,1.4c-2,0.7-3.8,2.4-5.5,3.8c-4.2,3.5-8.2,7.2-12.5,10.6
		c-0.4,0.3-2.1-0.3-2.6-1c-3-3.5-5.7-7.2-8.6-10.8c-2.7-3.4-5.2-4-8.5-0.4c-4.4,4.9-9.1,9.5-13.9,13.9c-1.6,1.5-4.2,2-6.4,2.8
		c-8.1,2.9-14.9,0.7-20.5-5.6c-4.3-4.9-9.3-9.4-16.3-7.6c-5.1,1.4-10,4-14.7,6.7c-9.1,5.1-18.1,10.4-27,15.9
		c-8.5,5.2-16.2,11.2-19,21.4c-0.2,0.8-0.4,1.6-0.8,2.3c-5.2,7.8-14.6,8.4-21.8,1.9c-5.3-4.8-11-9.5-17.2-12.9
		c-3.4-1.9-8.5-1.8-12.7-1.3c-16.9,1.9-30.3,11.3-44,21.1c-11.5-6.3-23.3-12.9-36.1-19.9c2.3-1.8,4.2-3.9,6.5-4.9
		c3.7-1.7,7.6-2.8,11.5-3.9c9.6-2.7,15.7-9.2,21.2-17.2c6.1-8.9,11.3-18,12.6-28.8c0.6-4.8,0.2-9.8-0.5-14.6
		c-1.2-7.9-2.9-15.7-4.9-23.4c-0.5-2-2.8-3.5-3.9-5.5c-11.7-22.7-23.2-45.5-34.9-68.2c-1.1-2.2-2.5-4.2-3.8-6.4
		c2-3.9,4.4-8.1,6.2-12.4c1.2-2.8,1.4-6,2.1-9c0.5-2.3,0.7-3.7-2.2-5.3c-3.6-1.9-5.7-6.6-9.3-8.5c-7.8-4.2-16.1-7.7-24.4-10.7
		c-2.7-1-3.8-1.7-3.8-4.5c0.1-12.5-0.9-25.1,0.4-37.5c0.8-8.2,4.5-16.2,7.2-24.2c4.7-13.9,9.6-27.7,14.2-41.6c0.7-2,0.1-4.5,0.1-6.8
		c-2.3,0.7-5,0.8-6.9,2.1c-5.8,3.9-11.3,8.3-17.4,12.8c-2.3-4.6-5.4-8.1-3.8-13.8c1.2-4.3,1.6-9.2,1-13.7
		c-1.3-9.8,4.1-17.4,7.3-25.6c5-12.6,10.3-25,16-37.3c3.8-8.1,8.4-15.9,12.9-23.7c1-1.7,3-2.9,4.4-4.4c3.6-3.9,7.5-7.6,10.6-11.8
		c1.2-1.7,1.4-4.8,0.9-7.1c-2.3-10-2.5-19.5,1.9-29.2c3.1-6.9,4.1-14.7,6.3-22c1-3.2,2.3-6.4,4-9.4c4.4-7.8,7.1-16.1,5.8-24.9
		c-1.1-7.9-8.3-11.9-14.3-15.1c-9.9-5.2-21-6.1-32.3-6.9c-12.1-0.9-20.5,4.6-28.8,11.5c-5.2,4.3-10.1,9.4-17.3,9.9
		c-5.5-8.1,1.4-13.3,4.6-18.9c7.1-12.5,15.4-24.3,22-37c3.3-6.4,3-14.2,1.2-21.6c-2-8.1-3.5-16.3-4.7-24.5
		c-0.8-4.8-0.3-9.7,2.9-13.6c7.5-9.2,10.6-20.4,14-31.4c0.2-0.6,0.2-1.2,0.4-1.9c4.7,0,9-0.4,13.3,0.1c6.8,0.7,12.2-0.9,15.9-7.1
		c3.7-6.2,10.1-9,16.1-12.3c10.3-5.5,20.8-10.8,30.7-17.1c3.9-2.5,7.2-2.2,11-1.6c7.5,1.4,15.4,2,21.5,7.1c3.1,2.5,5.3,6.2,7.9,9.2
		c14.9,17.3,32.3,31.5,51.7,43.8c8.2,5.2,13,13.9,16.5,23.1c4.8,12.2,9.2,24.7,15.1,36.4c7.1,14.2,20.5,18.2,35.3,19.5
		c5.2,0.5,10.5,2.4,15.4,4.4c7.8,3.2,15.3,7.2,23.1,10.4c5.4,2.2,11.2,3.3,16.6,5.4c8.2,3.1,16.3,6.5,24.3,10.1
		c6.7,3,13.2,6.3,19.7,9.8c7.8,4.2,15.4,8.6,23.5,13.2c-12.2,24.5-24.3,49-36.4,73.4c-15.3,30.6-30.6,61.2-45.9,91.9
		c-2.5,5-1.8,8.2,2.9,11.2c6.5,4.2,9.4,10,9.4,17.7c0.1,14.8,0.5,29.5,1,44.3c0.5,13.7,0.9,27.4,2.1,41.1c1.2,14,3.3,28,4.8,42
		c0.9,8,1.3,16.1,2.1,24.1c1.2,11.6,2.6,23.1,3.9,34.7c0.8,7.4,1.4,14.7,2.1,22.1c1.3,12.1,2.6,24.1,3.9,36.2
		c0.8,7.4,1.3,14.7,2.1,22.1c0.9,9,2,17.9,2.9,26.9C2444.1,1242.2,2443.9,1244.4,2443.9,1246.7z"/>
	<path onclick="modals(this.id);" id="1051" class="st0" d="M1894.7,378.4c-0.6,8-1.2,15.6-1.7,23.2c-0.2,3-0.3,5.3,3.8,6.6c8.7,2.9,17.1,6.7,25.8,10.2
		c-1.2,1-2.3,1.7-3.3,2.6c-3,2.7-5,5.4-3.4,10.1c4.8,14.5,9.3,29.1,13.4,43.8c1.2,4.4,0.4,9.2,1.1,13.8c1.3,8,4.5,15.1,9.6,21.6
		c10.1,12.7,16.6,27.2,20.9,42.7c0,0.2,0,0.4,0.1,0.5c9.6,11.7,11,27.8,21.7,39c3.8,3.9,5.5,9.4,4.1,14.7c-2.7,10.1,0.5,19,6.4,26.4
		c11.4,14.3,17.2,30.4,15.6,48.3c-1.6,18.9-7.2,36.6-20.2,51.4c-6.6,7.6-15.4,10.8-24,14.5c-12.7,5.4-18.5,14.7-20.9,28
		c-1.8,10-0.6,19.1,2.5,28.2c1.6,4.6,4.5,9.1,7.9,12.7c11,11.4,22,22.6,29.6,36.8c2.5,4.6,1.1,17.4-1.9,21.6
		c-5.4,7.8-12.5,14.6-15.3,24.1c-0.2,0.8-0.7,1.6-0.5,2.4c1.5,8-2.5,13.4-8.1,18.5c-2.9,2.7-4.8,6.6-6.9,10
		c-3.4,5.5-7.6,10.8-9.7,16.8c-1.4,4-0.2,9.1,0.4,13.6c0.4,3.2,1.9,6.2,2.9,9.5c-3.2,2.7-6.8,4.5-11,2.1c-6.8-4-12.8-1.2-18.3,2.4
		c-15.7,10.3-31.2,20.9-46.6,31.6c-2.8,1.9-4.2,2.2-5.9-1.1c-2.2-4.2-4.6-8.4-7.7-11.9c-2.4-2.8-5.9-4.7-8.9-6.9
		c-1.4,0.8-2.6,1.4-3.5,2.2c-3.8,3.4-6.6,3-10.2-0.9c-6.2-6.6-14.8-7.9-23.3-9.3c-15.8-2.5-31.5-5.4-47.3-7.8
		c-3.9-0.6-4.2-2.6-3.8-5.4c1.1-7.6,2.3-15.2,3.5-22.8c0.5-2.9,1.1-5.7,1.6-8.8c1.5-0.1,2.8-0.3,4.1-0.2c7.5,0.9,10.4-0.9,12.3-8.2
		c0.1-0.6,0.1-1.2,0-1.8c-2.5-9.1-5-18.1-7.6-27.2c-2.5-8.9-8.7-15.7-14.3-22.6c-5.3-6.6-11.5-12.6-17.5-18.6
		c-1.6-1.5-4.3-2.4-6.5-2.6c-10-0.9-19.9-2.2-28.7-7.3c-5.5-3.2-10.8-6.9-15.5-11.2c-12.5-11.2-22.7-24.3-32.5-38
		c-9.2-12.9-15.8-26.9-22.9-40.8c-5.7-11.4-14.7-19.8-24.2-28c-6.6-5.6-13.7-9.4-22.6-8.9c-0.6,0-1.6,0-1.9-0.4
		c-3.9-5.1-8.7-9.1-10.6-16.1c-2.7-9.9-7.4-19.3-11.6-28.8c-2-4.4-4.8-8.5-7.6-13.4c4.3,0.3,7.9,0.5,11.6,0.7
		c6.3,0.3,12.6,0.5,18.9,1c6.1,0.5,11.5-1.1,17-3.8c7-3.5,14.6-5.8,22.7-5.2c17,1.4,32.4-4.1,47.2-11.2c7.8-3.8,14.6-9.9,21.3-15.5
		c4.6-3.9,3.7-10.9-1.4-16c-2.8-2.7-5.8-5.3-4.6-9.7c0.7-2.6,1.5-5.8,3.4-7.2c3.9-2.7,3.5-6.3,3.5-10c0.1-7.5,0.3-15,0.6-22.5
		c0.4-10.2,0.8-20.3-4.5-29.6c-2.4-4.2-4.3-8.8-6.3-13c5.3-3.6,10.6-6.6,15.2-10.4c3.1-2.6,5.6-6,8.1-9.3c3.2-4.3,5.6-9.3,9.3-13.2
		c8.3-8.9,14.2-19,18.7-30.2c2.8-7.1,6-14,9.4-20.9c5.2-10.6,9.5-21.4,9.7-33.5c0.1-9.7,4.9-17.8,10.2-25.4c1.8-2.5,4.4-2.8,7.4-1.1
		c6.9,3.8,14,7.1,20.8,11c8,4.7,16.8,4.4,25.3,4.4c4.4,0,8.7-3.9,13.1-6.1c8.4-4,16.7-8.1,25.1-12c1.2-0.6,3.1,0.1,4.6,0.4
		C1872.3,373.4,1883,375.8,1894.7,378.4z"/>
	<path onclick="modals(this.id);" id="1047" class="st0" d="M1997,1080.9c-3.5,4.3-7.7,9.4-11.8,14.4c-4.7,5.7-10.2,11.1-18,10.5
		c-15.3-1.3-26.4,6.8-37.1,15.4c-13,10.5-28.7,13.2-43.9,17.8c-6.2,1.9-12.5,3.5-18.8,5.3c-4.2,1.2-6.1-0.3-6.5-4.4
		c-1.6-17.8-3.2-35.7-5-53.5c-0.7-7.1,1.1-9.2,8.2-9.4c6.6-0.2,13.2-0.6,19.8-1c0.9-0.1,1.9-0.4,2.7-0.9c7.4-4.1,15-8,22.1-12.7
		c2.6-1.7,3.9-5.3,6.2-8.5c-7.1-1.8-13.2-3.2-19.3-4.9c-1.6-0.4-3.2-1.4-4.6-2.4c-9.9-7.2-13.4-19.1-20.1-28.6
		c-1.4-2-2.6-4.2-4.1-6.6c12.9-8.8,25.7-17.5,38.4-26.2c4.5-3,8.8-6.3,13.4-9.1c4.8-2.9,9.7-4.3,15.2-1.2c3.4,1.9,10.8,0.3,13.1-2.7
		c0.7-0.9,0.8-2.8,0.5-4.1c-1.3-5.8-2.9-11.6-4.2-17.5c-0.2-0.9-0.1-2,0.4-2.7c5-8.2,10.1-16.3,15.2-24.5c0.3-0.4,0.3-1.1,0.6-1.3
		c6.9-5.4,10.6-12,10.2-21.2c-0.3-7.2,6.1-11.6,9.3-17.3c1.9-3.4,4.8-6.2,7.1-9.4c0.9-1.3,1.7-2.9,1.9-4.4c1-9.9,0-19.3-6.8-27.3
		c-6.7-7.7-12.8-16.1-20.3-22.9c-9.5-8.6-14-19.6-15.3-31.4c-0.8-7.4,2.4-15.3,4.4-22.8c2.2-8.4,9.3-12.5,16.7-15.3
		c13.9-5.3,24.8-13.7,32.6-26.6c5.7-9.5,8.9-19.4,10.7-30c0.9-5.3,1.8-10.7,2-16.1c0.4-16.9-5.2-31.6-15.6-44.8
		c-5.6-7.2-8.8-15.4-6.5-25.1c1.9-8.2-2.8-14.7-7.6-20.9c-2.5-3.3-4.2-7.2-6.1-11c-2.4-4.7-4.7-9.6-7-14.4c-2.7-5.9-6-11.6-7.9-17.7
		c-4.2-13.5-11.1-25.4-19.6-36.4c-5.1-6.6-8.5-14-8.3-22c0.3-12.9-4.9-24.2-8.2-36.1c-1.6-5.8-3.4-11.6-5.7-17.1
		c-1.8-4.4-0.1-7.1,3.1-9.6c1.9-1.5,3.8-3,6.2-5c-7.4-2.9-14-5.6-20.6-8.2c-1.4-0.5-2.7-1.1-4.1-1.6c-8.9-3.6-8.4-3.5-6.7-13.2
		c0.9-5.4,0-11.1-0.5-16.6c-0.1-0.9-1.7-2.2-2.8-2.5c-11.5-2.8-23.1-5.7-34.7-7.9c-2.4-0.5-5.4,1-7.9,2.2c-9.2,4.6-18.5,9-27.3,14.3
		c-6.7,4.1-13.7,2.4-19.5,0.6c-11.6-3.5-22.4-9.4-33.5-14.3c6.3-14,11.8-27.1,18.1-39.6c3.5-7,8.3-13.2,12.7-19.7
		c5.1-7.6,5.1-16.7,7.2-25.1c0.2-0.8,0.2-1.6,0.4-2.4c2.2-8.5,2.2-8.6,10.8-6.5c4,1,7.3-0.9,7.4-4.4c0.2-7.3,2.5-12.3,9.2-16.1
		c2.7-1.5,3.8-6.3,5.1-9.8c3.5-9.2,8.4-12.6,18-13.5c8.9-0.8,17.8-2.6,26.7-3.9c5.2-0.7,10.4-1,15.5-2.1c5-1.1,9.9-3.1,15.7-5
		c2.3,5.7,5,11.4,7,17.3c1.4,4.1,3.9,6.4,7.9,7.9c8.7,3.3,17.6,4.8,26.9,5c4.9,0.1,9.8,1.3,14.7,1.5c3.2,0.2,6.5-0.7,9.7-0.6
		c7.3,0,14.7,0.3,22,0.6c1,0,2,0.6,2.9,0.4c8.1-1.1,12.2,4.5,15.5,10.1c4.7,8,8.5,16.6,13.1,24.7c1.5,2.6,4.3,4.9,7,6.3
		c5.8,2.8,8.3,7.7,10.3,13.4c2.4,6.8,5.4,13.5,8.1,20.2c1,2.4,2.8,4.6,0.3,7.4c-1.1,1.2-1.2,3.7-1.1,5.6c0.8,17.4-1.2,34.3-5.7,51.3
		c-2.4,8.9-1.7,18.6-2.4,28c0,0.5-0.2,1.1,0.1,1.5c5,9.2-1.4,15.9-5.2,23c-3.8,7.1-10.1,12.8-11.9,21.1
		c-3.5,16.2,4.1,25.9,19.9,28.2c4.5,0.7,9.4-1.2,13.9-0.5c3.3,0.5,7,2.6,9.2,5.2c8.5,10.1,10.4,23,14,35.1
		c4.1,14,10.8,26.1,21.3,36.4c2.8,2.7,4,7,5.7,10.7c2.2,4.6,4.9,9.1,6,13.9c0.8,3.6-0.9,7.7-1.4,11.6c-1.2,8.7-6.2,15.8-11,22.6
		c-4.4,6.1-3.9,12.5-2.9,18.9c1.4,9,4,17.8,5.4,26.8c1.3,8.3-2.1,15.7-6.4,22.6c-7.8,12.4-15.5,24.9-23.2,37.4
		c-1.6,2.5-0.6,12.5,1.5,14.5c0.7,0.6,2.3,0.9,3,0.6c5.4-2.8,10.9-5.6,16.1-9c4.6-3,8.7-7,13.3-10c2.4-1.5,5.5-2.4,8.3-2.5
		c12.7-0.5,25.4-0.3,37.1,5.7c11.4,5.8,17.5,11.8,13.5,23.7c-1.6,4.7-4,9.2-5.7,13.9c-2.6,7.5-4.9,15.1-7.2,22.7
		c-1.1,3.4-1.6,7.1-3.1,10.2c-4.3,8.5-4,17.5-1.6,26c1.8,6.4-1.3,10-4.7,13.3c-18.2,17-26.3,39.7-35.6,61.8
		c-2.1,5.1-3.3,10.8-6.2,15.4c-5.4,8.6-5.2,18-5.9,27.3c-0.2,2.8-0.4,5.6-1,8.2c-1.3,5.9,2.4,10.1,4.9,14.6c0.4,0.8,4.4,0.5,5.9-0.5
		c6-3.9,11.7-8.3,18.8-13.4c-5,14.6-9.6,27.7-14.1,40.9c-2.5,7.2-5,14.5-7.3,21.8c-0.8,2.5-1.1,5.1-1.1,7.7
		c-0.1,12.3,0.1,24.7-0.2,37c-0.1,4.3,1,6.4,5.4,7.6c9,2.6,18,5.3,25.8,11.3c8,6.1,9.8,11.3,5,20.3c-2.4,4.5-3.2,10.3-9,12.3
		c-1.5,0.5-3.2,1.1-4.7,1c-17.2-1.1-34.3-2.7-51-7.4c-3.4-1-6.5-3.6-9.3-6.1c-4.5-4-8.3-8.7-12.9-12.6c-1.1-0.9-4.2-0.2-6.1,0.6
		c-1.9,0.8-3.7,2.3-4.9,4c-5.6,7.3-14,5.9-21.5,7.5c-0.5,0.1-1.3-0.2-1.8-0.5c-5.6-4.3-11.1-8.6-16.6-12.9c-1.1-0.9-2.2-1.8-3.5-2.5
		C2006.5,1085.7,2002.1,1083.5,1997,1080.9z M1983.4,1076c0-0.3,0-0.6,0-0.9c10.9-0.7,21.7-1.3,32.6-2.2c1.5-0.1,3.3-1.4,4.2-2.6
		c4.7-6.5,9.3-13,13.5-19.8c4.6-7.5,5.1-15.4,0.8-23.5c-4.4-8.4-8.5-17-12.7-25.5c-1.4-3-2.9-4-6.5-2.7c-11.1,3.8-22.5,7-33.8,10.5
		c-0.9,0.3-1.9,0.7-2.6,1.4c-5.4,5.6-12.5,8.2-19.6,10.7c-4.6,1.6-10.6,2.1-13.4,5.3c-4.3,5.1-10.4,5.4-15.2,8.6
		c-3.9,2.6-11,1.9-10.8,9.3c-7.4,7-3.8,15.5-2.8,23.4c0.6,4.9,5.8,8.1,11,8.1C1946.6,1076,1965,1076,1983.4,1076z"/>
	<path onclick="modals(this.id);" id="1049" class="st0" d="M2414.8,1267.4c5.5-4.7,12.3-6.8,16.6-13.4c2-3.1,8.1-3.5,13-5.4c1,7.9,1.8,14.4,2.6,20.8
		c1.3,11.6,2.7,23.1,3.9,34.7c0.8,7.8,1.4,15.7,2.1,23.6c0.2,2.4,0.2,5.1,1.2,7.2c1.2,2.7,3.6,5.1,7,3.3c7.6-3.8,15.1-7.7,22.6-11.7
		c5.5-2.9,10.9-5.8,16.9-9.1c0.8,4.7,1.5,8.8,2.3,12.9c0.5,2.5,1,5.1,2,7.5c2,4.6,2.6,8.8,0.3,13.6c-4.4,9.3-1.7,18,2.3,26.8
		c3.3,7.2,5.7,14.9,8.2,22.4c0.5,1.5,0.7,3.7,0,5.1c-4.6,9.8-3.6,19.9-1.9,30.1c1.4,8.1,2.7,16.2,2.9,24.4
		c0.4,14.7,2.2,28.9,8.8,42.4c1.4,2.9,0.7,7.3,0,10.8c-1.2,5.8-1.9,11.2,0,17.3c1.5,4.7,1.3,10.5,0.2,15.4
		c-2.7,11.3-2.9,21.8,4.8,31.1c-5.7-1.8-11.3-4.1-17-5.4c-10.9-2.5-20.7-0.1-28.9,7.8c-4.4,4.2-8.3,8.9-13,12.7
		c-4,3.3-8.6,5.8-14.3,5.5c-6.6-0.3-16.9,6.5-18.1,12.7c-0.8,4.4,0.6,9.1,0.9,13.7c0.5,9.2,6.5,15.9,11.3,22.8
		c1.9,2.7,7.1,3.3,10.9,4.6c2.4,0.9,4.9,1.4,7.4,2.1c-6.2,10.2-9,20.1-4.3,31.6c1.5,3.7,0,8.8-0.8,13.1c-0.2,1-3.6,2.4-5,2
		c-9-2.8-18-5.6-26.7-9.3c-19.2-8.2-38.7-15.4-59-20.1c-6.2-1.4-13.3-0.4-19.7,0.9c-8.7,1.7-16-1.2-23.4-4.8
		c-6.5-3.2-11.6-8.1-16.7-13.3c-8-8.3-17.1-15.5-25.8-23.1c-0.8-0.7-2-1.8-2.9-1.7c-9.5,1.2-14.2-7.1-21.3-10.8
		c-3.2-1.6-5.8-4.2-8.6-6.4c-8.4-6.5-9.3-18.5-1.2-26.9c8.4-8.8,17.2-17.2,23.6-27.8c0.7-1.2,1.9-2.6,1.8-3.9
		c-0.5-8.5-0.7-17.1-2.2-25.5c-0.6-3.5-4.6-6.2-6.6-9.6c-1.1-1.9-2-4.2-2-6.3c0.2-9.7-4.9-16.8-12.1-21.9
		c-10.3-7.3-18.4-16.1-22-28.4c-1.2-4-1.4-8.3-2-12.5c-1.4-9.2-2.4-18.5-4.4-27.5c-0.6-2.8-3.6-5.7-6.3-7.3
		c-3.7-2.2-8.2-3.1-12.2-4.8c-4.4-1.9-8.9-3.9-12.8-6.6c-7.6-5.1-14.9-10.7-22.1-16.2c-5.8-4.5-7-11.3-5.1-17.5
		c2.9-9.4,0.8-18.1-0.7-27.1c-0.7-4-1.5-8.1-1.4-12.2c0.2-5.6,4.8-8.8,8.6-12.1c9.8-8.4,20.4-15.8,31.9-21.7
		c8.7-4.4,18.4-6.7,27.6-4.7c5.5,1.2,10.6,6.3,15,10.6c4.1,4,8.2,6.4,14,7.1c8,0.9,14.4-1.4,16.5-9c3.3-12.1,12.4-17.7,22.2-23.1
		c9.4-5.3,18.4-11.1,27.9-16.2c11.1-5.9,13.3-5.3,22.5,2.9c2.9,2.6,5.9,5.8,9.4,6.9c3.9,1.2,8.5,0.2,12.8,0.2
		c4.8,0,7.6-3.2,10.6-6.3c2.1-2.2,4.3-4.4,6.4-6.6c2.1-2.3,4.2-4.7,6.7-7.6C2405.4,1256.3,2409.9,1261.6,2414.8,1267.4z"/>
	<path onclick="modals(this.id);" id="1052" class="st0" d="M1495.6,656.5c8.6,0.5,16.2,1.2,23.7,1.4c9.3,0.2,18.7-0.1,28,0.2c2,0.1,4.8,1.6,5.7,3.3
		c6.2,11.6,12,23.4,17.9,35.2c0.4,0.9,1.1,1.9,1,2.7c-0.9,7.7,4.5,12.3,8.5,17.5c2.2,2.9,4.9,4.4,8.9,4.2
		c9.1-0.5,15.6,5.1,21.9,10.7c12.3,11,21.7,24,27.1,39.8c3.9,11.2,12.4,19.5,18.9,29.1c4.7,6.9,8.9,14.2,14.5,20.3
		c7.3,7.9,15.3,15.2,23.7,21.8c7.9,6.1,17.1,10,27.2,11.3c1.1,0.1,2.2,1,3.3,0.9c12.9-1.8,19,7.7,26,15.7c3.5,4.1,6.3,8.8,9.9,12.8
		c6.8,7.8,7.7,17.7,10.1,27.1c0.7,2.7,0.9,5.7,2.3,7.9c3,4.7,1.4,8.4-1.3,12.1c-4.2,0-8.2,0-12.8,0c-1.7,11-3.7,22.2-5.2,33.5
		c-1.1,8,0.3,9,8.7,10.2c15.5,2.3,30.9,5.5,46.4,7.3c8.6,1,15.3,5,21.2,10.1c4.7,4.1,8.1,2.4,12.1,0.3c0.9-0.4,1.6-1.2,2.3-1.8
		c6.7,3.1,9.3,9.4,12.8,15.1c5,8.2,10.2,16.3,15.4,24.4c3.4,5.3,6.9,10.4,10.5,15.5c5.3,7.4,13.8,8.1,21.6,10
		c0.8,0.2,1.6,0.1,2.4,0.3c0.3,0.1,0.5,0.4,1.2,1.1c-0.8,1.2-1.5,2.8-2.6,3.5c-4.5,2.9-9.2,5.5-13.8,8.3c-5.6,3.5-11.4,5.4-18.2,4.9
		c-5.1-0.4-10.2,0.4-15.3,0.9c-5.7,0.5-8.5,6.4-6.8,14.1c0.3,1.4,0.7,2.7,1,3.8c-5,0.4-9.5,0.5-13.9,1.1c-16.5,2.2-33,4.5-49.6,6.7
		c-0.3,0-0.8,0.2-1,0c-6-4.4-11.8-0.1-17.7,0.3c-1,0.1-2.2,0.7-2.9,1.5c-6,5.5-12.3,10.7-17.6,16.8c-5.2,6.1-11.7,7-18.8,7.7
		c-10.1,1-20.1,2.5-30.2,3.7c-8.8,1.1-17.6,2.1-26.4,3.2c-9.4,1.2-19,1.9-28.1,4.2c-5.8,1.5-10.9,5.6-16.2,8.6
		c-2,1.1-3.9,2.3-4.9,2.8c-7.9-6.6-15-13.2-22.8-18.9c-6.5-4.7-8.5-11.3-10-18.3c-0.6-2.7-0.3-5.7-1.2-8.2c-0.9-2.4-2.6-4.8-4.5-6.4
		c-5.6-4.4-9.7-9.3-7.8-18.1c6.1-2.1,12.9-4.1,19.4-6.8c2.3-0.9,4.7-2.8,6-5c6.3-10.8,9-22.9,11.2-35.1c0.6-3.4,2.7-6.5,4.3-9.7
		c2.2-4.5,0.2-11.9-3.6-15.2c-9.3-8.1-19.6-14-32-15.5c-7.3-0.9-12.1-6.1-17.7-9.9c-3.9-2.7-7.2-6.4-11.2-8.8
		c-2.6-1.6-6.1-2-9.3-2.7c-5.4-1.1-10.9-1.8-16.3-3c-5.5-1.2-8.5-6.4-7.3-12c1.7-8.3,3.6-16.5,4.9-24.9c0.5-3-0.3-6.3-1.1-9.3
		c-1.9-6.9-4-13.7-6.2-20.6c-3.7-11.7-10.7-21.6-18.1-31.1c-4-5.2-9.2-9.6-12.6-15.1c-2.4-3.9-3-9.1-3.9-13.8
		c-2-10.4-0.3-21.3-4.6-31.5c-3.5-8.2-6.5-16.7-9.4-25.2c-2.9-8.4,0.7-15.4,9.4-15.3c12.5,0.1,18.5-8.2,24.6-16.4
		c1.8-2.4,1-7,0.8-10.6c-0.2-3.5,0.9-5.9,3.4-8.2c7-6.7,7.5-12.8,2-21.2c-1.2-1.8-2.7-3.3-3.9-5.1c-8.1-11.1-12.4-23.5-12.4-37.3
		C1496.9,665.6,1496.1,661.7,1495.6,656.5z"/>
	
	<path onclick="modals(this.id);" id="1046" class="st0" d="M1981.5,1073c-16.4,0-32.8,0-49.3,0c-9.4,0-12.1-2.7-13.2-12.1c-1.4-11.6,4.7-19.1,14.6-23
		c8.7-3.4,16.8-8.3,25.3-12.2c7.6-3.5,15.3-6.4,21.9-12.2c3.6-3.1,9.5-3.6,14.4-5c6.4-1.9,12.9-3.5,19.2-5.7c2.7-1,3.8-0.5,5,1.9
		c4.1,8.4,8.7,16.5,12.5,25c3.1,7.1,3.5,14.2-1.8,21c-4,5.1-7.3,10.8-11,16.2c-0.9,1.3-2.5,3-3.9,3.1c-11.2,0.9-22.4,1.5-33.6,2.2
		C1981.5,1072.4,1981.5,1072.7,1981.5,1073z"/>
</g>
</svg>
