<?xml version="1.0" encoding="utf-8"?>
<!-- Generator: Adobe Illustrator 19.0.0, SVG Export Plug-In . SVG Version: 6.00 Build 0)  -->
<svg version="1.1" id="Layer1" xmlns="http://www.w3.org/2000/svg" xmlns:xlink="http://www.w3.org/1999/xlink" x="0px" y="0px"
	 viewBox="0 0 7000 3600" style="enable-background:new 0 0 7000 3600;overflow: hidden; display: inline; width: inherit; min-width: inherit; max-width: inherit; height: inherit; min-height: inherit; max-height: inherit;" xml:space="preserve">
<style type="text/css">
	.st0{fill:#8FD4EB;stroke:#000000;stroke-width:2;}
</style>
<g>
	
	<path onclick="modals(this.id);" id="2613" class="st0" d="M3448.1,2529c4.4-12.5,14.4-14,23.5-16.8c6-1.8,12.2-3.4,18.1-5.7c9.9-3.9,19-2,27.4,3.5
		c3.9,2.6,7.2,2.4,11.2,1.1c10.8-3.6,26.1,0.5,32.7,9.6c9,12.6,23.1,17.6,35.4,25.2c1.8,1.1,5.1,0.3,7.6-0.1
		c3.1-0.5,6.1-1.6,9.2-2.4c0.4,0.7,0.9,1.3,1.3,2c-2.3,2.6-4.5,5.2-7,7.6c-7.9,7.7-9,19.8-2.5,28.6c0.6,0.8,1,1.8,1.8,2.4
		c9.6,7.7,5.6,18.2,5.3,27.7c-0.1,4.3-5.4,7.6-10.1,6.9c-4.5-0.7-7.8,0.7-10.8,3.7c-8.2,8.2-16.8,16.1-24.6,24.7
		c-6.6,7.2-13.4,13.9-22.3,18c-17.8,8.2-35.5,16.8-53.8,24c-8.2,3.3-17.5,3.8-26.3,5.5c-26.7,4.9-53.7,4-80.6,3.6
		c-6.3-0.1-12.6-1.4-18.7-2.9c-9-2.2-17.7-1.7-26.6,0.6c-11.9,3.1-23.9,5.7-36,8.3c-5.8,1.2-10.2,3.6-13.3,9.2
		c-8.3,15.1-20.4,27-34.1,37.3c-11.1,8.4-19.7,18.4-25.8,31c-4.5,9.2-7.9,18.1-6.9,28.5c0.5,5,0.3,10,0,15c-0.5,10-1.1,20-7.4,28.5
		c-4.2,5.7-3.5,11,1.1,16.2c2.2,2.5,3.9,5.3,6,8.3c-6.7,15.3-13.4,30.5-20.6,46.9c-2.4-2.3-4.3-3.9-5.9-5.7
		c-16.2-18.2-36.4-29.6-59.9-35.5c-8.4-2.1-16.4,0.7-24.4,2.8c-14,3.8-28.1,5.1-42.4,1.7c-8.8-2.1-17.4-4.7-24.4-10.8
		c-5.4-4.7-11.2-5.8-17.3-1.9c-6.9,4.3-12.5,2-17.8-2.9c-3.4-3.1-7.1-6.1-10.5-9.2c-4.5-4.1-9.8-5.9-15.6-5
		c-16.8,2.5-33.5,5.7-47.4,16.5c-3.6,2.8-7.5,5.8-9.9,9.6c-10.1,16-19.7,32.4-29.4,48.7c-1.2,2-1.8,4.4-3.2,6.2
		c-3.5,4.1-7.1,7.2-13.6,5c-13.3-4.3-26.9-7.5-40.3-11.4c-3.1-0.9-5.1-0.8-8,1.4c-5.3,3.9-11.4,5.2-17.5,1
		c-3.3-2.3-7.1-3.8-10.3-6.2c-7-5.2-14.9-7.2-23.4-6.8c-9.2,0.5-18.4,1.4-27.4,2.1c0.2,7.5-5.3,28.2-7.3,36
		c-2.5,9.7-3,19.8,4.3,28.3c0.6,0.7,1.7,2.1,2.1,1.9c7.2-2.3,11.2,6.3,18.1,5c4.6-0.9,7.1,2.1,9.7,5.5c7.2,9.3,9.5,20.5,12.6,31.3
		c4.3,14.6,7.6,29.6,11.3,44.4c1.5,6.2,1.9,12.2,0.6,18.6c-1.8,9.1-2.6,18.4-3.9,27.6c-0.9,6.2,0.5,11.4,4.1,16.8
		c16.1,23.9,25.8,51,36,77.7c3.4,9,2.8,19.5,2.4,30.2c-2-1.9-4.6-3.5-6-5.8c-8.8-14.3-15.3-29.4-16.7-46.4c-0.5-5.6-2.4-11-3.4-16.5
		c-1.7-8.9-7.7-14-15.7-16.4c-19.1-5.8-35.8-15.8-52-27.1c-9.1-6.4-19.1-10.5-30.4-11.4c-7.2-0.6-14.4-2-22.4-3.2
		c-1.4-6.8-2.7-13.6-4.1-20.3c-1.4-6.4-3.8-9.1-10.1-8.6c-12.5,1-25.3,0.7-37.2,5.8c-11.9,5-23.8,10-36.5,15.3
		c-4.3-10.7-12.5-19.6-13.1-31.9c-0.2-3.9-2.7-6.7-6.6-8c-12.2-4.1-23.5-10.1-36.8-12.1c-14.9-2.2-28.6-9.3-37.4-22.6
		c-3.9-5.8-8.7-9.4-15.6-11.2c-17.2-4.5-29.8-15.6-38.8-30.7c-3.4-5.7-6.7-11.5-9.7-17.4c-2.2-4.5-5-5.6-9.6-3.7
		c-7.4,3.1-15.1,5.3-22.3,8.7c-5.3,2.5-9.4,2-13.6-1.8c-5.7-5.1-11.7-9.9-17-15.4c-2.3-2.4-3.3-6.3-4.5-9.6
		c-4.9-14.3-13.4-25-28.9-28.4c-16.5-3.6-33.1-7.2-49.7-10.5c-3.1-0.6-6.9-0.7-9.7,0.5c-4.7,2.1-7.8,0.3-10.6-2.7
		c-10.5-11.1-20.9-22.2-31.3-33.4c-3.9-4.1-7.7-8.3-11.4-12.6c-4.5-5.2-9.7-9.1-17-8.9c-1.1-6.5-2.2-12.7-3.3-18.8
		c-0.7-3.9-2.8-6.4-6.9-7.6c-14.2-4.1-25.4-12.7-35.5-23.2c-3.4-3.5-7.7-6.1-11-8.6c2.3-2.6,5-5.2,7.4-8.2c1.8-2.4,2.8-5.4,4.7-7.6
		c9.7-11,8.7-23.7,6-36.7c-0.1-0.3,0-0.7-0.1-1c-3.5-13.1-27.4-20.4-37.2-11.1c-5.6,5.2-10.5,11.1-15.8,16.7c-1.1,1.1-2.4,2-5.6,4.8
		c0.7-6.3,1-10.4,1.8-14.4c2.1-10.6,0.1-19.6-8.7-26.8c-4.6-3.8-7.9-9-12.3-13c-4.9-4.4-10.4-8-15.8-11.9c-5-3.7-10.3-7.1-15.2-11
		c-5-3.9-5.8-9.6-4.9-15.4c1.9-12.7,6.1-24.6,15.1-34.1c2.6-2.7,6.6-4.7,10.2-5.5c7.7-1.7,15.8-2.3,23.6-3.6c11.4-2,22.9-4,34.1-6.7
		c7.2-1.7,12.8-6.7,18.4-12.1c-1.1-2.7-2-5.2-3.1-7.5c-4.3-9-8.4-18.1-13.2-26.9c-10-18.4-15.2-38.2-17.7-58.8
		c-0.6-5.3-2.8-9.2-7.1-12.5c-9-6.8-10.6-12.2-7.4-23c0.8-2.5,2.6-5.1,2.5-7.5c-0.5-11.6,7.2-18,14.9-24.2c3.5-2.8,5.2-5.6,4.9-10.1
		c-0.8-12.3-1.2-24.6-2.2-36.8c-0.2-2.2-2.1-5-4-6.1c-4.9-2.7-10.1-5.4-15.5-6.6c-12.9-2.9-26.1-4.6-39-7.5
		c-5.7-1.3-11.4-3.8-16.4-6.7c-2.4-1.4-4-5.2-4.6-8.2c-0.7-3.5-0.6-7.4,0.3-10.9c3.4-13.2,7.3-26.2,11.2-39.8
		c7.5,0.4,14.7,1,21.8,1.1c17.3,0.3,33.8-3.7,48.6-12.6c13.2-7.9,27-10.7,42.1-9c3,0.3,6,0.5,9,0.6c12.8,0.7,18.8-6.6,14.9-19.9
		c11.4-6.8,22.9-14.1,34.7-20.6c5.4-3,8.8-6.4,9.7-12.7c0.6-4.2,2.1-8.4,3.8-12.4c4-9.4,10.8-11.2,18.7-4.9c2.7,2.2,5.1,3.2,9,2.7
		c4.1-0.5,8.5,0.6,12.6,1.7c5.1,1.3,9.9,3.7,15.1,4.9c4.6,1,7,4.6,6,7.7c-3.7,11.5,4.6,13.7,11.9,16.9c1.2,0.5,2.6,0.6,4.1,1
		c4.8-4.2,5.5-9,3.7-15.1c-1.8-6.2-2.3-12.8-3.3-19.1c11.3-5.8,21.3-7.4,31.5-1c6.5,4,13.1,7.9,19.6,11.8c4.6,2.7,9.3,5.1,13.8,8
		c4.4,2.9,9.2,5.5,12.7,9.3c9.8,10.5,21.4,17,35.1,21.7c12.2,4.3,23.2,11.7,36.2,15c7.8,2,14.3,9.3,21.3,14.2
		c8.8-3.4,14.9-8.8,19.2-16.2c3.5-6,8.3-7.4,14.9-7.5c14.9-0.1,29.9-2.3,44.8-1.5c30.1,1.7,60.6,2.3,88.9,14.8
		c1.2,0.5,2.7,0.7,3.7,1.5c14.5,12.8,32.1,8.1,48.7,8.5c7.3,0.2,14.6-0.9,21.9-1.1c23.1-0.6,44.7-6,63.9-19.4
		c12.5-8.8,24.9-17.8,37.2-26.8c5.8-4.2,12-6.5,19.5-6c8.9,0.5,17.9,0,26.8,0c5.8,0,9.6,2.9,12.8,7.8c6.8,10.2,13.6,20.5,21.7,29.7
		c5.9,6.8,14.2,11.4,23.4,12.2c3.6,0.3,7.6-1.7,11.2-3c3.4-1.2,6.5-3.7,9.9-4.4c10.4-2.1,20.1-1,26.3,9
		c7.2,11.6,17.9,19.5,28.3,27.8c4.1,3.3,8.4,6.8,11.6,10.9c4.7,6.2,10.8,9.5,17.9,11.8c8.2,2.7,16.5,5.4,24.4,8.9
		c4,1.8,8.3,4.6,10.8,8.1c12,17,26.9,31.2,41,46.3c3.5,3.7,7.2,5,12.2,5.2c13.6,0.7,26.4-1.2,38.5-7.9c4-2.3,8.7-3.4,12.8-5.5
		c14-7.1,27.2-5.2,38.8,4.4c12.2,9.9,26,9,39.9,7.7c11.9-1.1,23.6-3.5,35.5-4.4c8.2-0.6,16.6,0.4,24.8,1.1c2.3,0.2,5,1.9,6.6,3.6
		c21.6,23.9,43.1,48,64.7,72C3423.8,2502.1,3435.2,2514.6,3448.1,2529z"/>
	<path onclick="modals(this.id);" id="2610" class="st0" d="M4578,2198.3c1-4.3,1.4-7.2,2.3-9.9c4-11.6-0.9-20.8-8-29.2c-3-3.6-7.5-5.1-12.6-5
		c-10.7,0.3-21.3,0.1-32,0.1c-32.3-0.2-64.6-0.2-96.9-0.8c-7.9-0.2-15.8-2-23.5-4c-12.5-3.3-24.5-1.7-36.3,2.5
		c-15.8,5.6-31.8,8.7-48.8,8.7c-16.5-0.1-33.1,2.2-49.7,2.9c-22.6,1-45.3,3.1-67.8,1.7c-20.5-1.2-40.5,0.2-60.5,3.3
		c-6.7,1-12.2-0.4-18.2-2.7c-9.7-3.8-16.7-9.3-21.7-19c-8-15.6-17.9-30.3-26.9-45.5c-2.5-4.2-5.8-5.5-10.6-5.8
		c-13.4-0.6-25.7,3.4-37.7,8.3c-5.4,2.2-8.9,1.5-13.7-1.2c-5.4-3.1-11.6-5.4-17.7-6.4c-6.9-1.2-13.8,0.1-19.9,4.4
		c-7.2,5.1-14.7,9.9-22.8,15.4c-3.9-17.5-10.8-33.3-20.1-47.8c-4.8-7.5-10.2-15.1-16.9-20.7c-5-4.2-12.5-5.8-19.1-7.4
		c-5.7-1.4-11.9-1-17.8-1.7c-6.4-0.8-11,1.1-13.7,7.3c-1.2,2.7-3.1,5.1-5,8c-4.1-1.8-6.6-3.9-7.1-8.5c-2.2-18.9-2.4-37.8,1.9-56.4
		c2.2-9.6,6.3-18.9,9.5-28.2c1.8-5,5.9-4.8,9.9-4.1c7.9,1.4,15.8,2.4,23.5,4.5c5.8,1.6,10.2,0.3,14.6-3.4
		c7.6-6.4,17.1-11.1,20.2-21.3c3-9.8,8.3-19.8,0.6-30c-2.4-3.2-2.2-6.4-0.1-10.1c3.8-6.8,5.2-14.2,4.5-22.1
		c-0.5-5.5,0.1-11.3,1-16.8c2-12.2-0.3-23.4-7.6-33.1c-7.9-10.6-16.9-20.6-25.1-31c-3.3-4.1-6.5-8.4-8.8-13
		c-2.2-4.5-4.7-7.7-9.7-9.2c-7.9-2.4-14.7-6.2-17.5-14.8c-0.5-1.5-1.9-2.7-3.1-3.9c-18.3-17.5-36.5-35-54.9-52.4
		c-9-8.6-20.2-12.6-32.4-13.9c-5.2-0.5-10.3-1.3-17.8-2.2c5.8-4.8,9.7-8.7,14.2-11.8c17-11.9,28.5-27.8,34.7-47.4
		c1.1-3.5,1.1-8,0.1-11.5c-2.4-8.3-0.2-15.7,2.4-23.3c4.2-11.9,8.8-23.7,12-35.9c1.5-5.8,0.3-12.3,0.3-18.4c-4.5-2.3-8-4.2-12.3-6.4
		c2.5-10.6,5.4-21.1,7.4-31.7c2.5-13.4,4.9-26.8,6.2-40.3c1.5-16.1-3.7-20-18.8-26.4c-3.4-1.4-7-2.2-10.5-3.2
		c-4.5-1.3-6.3-4.2-6.5-8.8c-0.2-3.8-1.1-7.7-2.3-11.4c-3.2-9.7-1.9-19.5-1.3-30.6c5.9,1.8,11.1,3.3,16.3,5.1
		c13.2,4.5,26.2,9.6,39.6,13.3c6.2,1.7,13.3,1.9,19.6,0.7c13.9-2.5,27.6-1.9,41.6-1.6c11.2,0.3,21.8,1.8,32.1,6
		c4.3,1.7,8.8,3.4,12.5,6.1c18,13.2,38,21.6,59.7,26.3c11,2.4,21.9,5.5,33.1,7.2c5.7,0.9,11.8-0.4,17.7-1.2
		c5.9-0.8,11.4-1.9,17.6-1.4c8.4,0.6,14.8,4,20.1,9.6c7.7,8.3,18.2,6.8,27.7,8.9c1.2,0.3,3.1-1.1,4.3-2.1
		c6.1-5.1,13.3-9.5,17.9-15.7c8.8-12.1,16.6-24.9,14-41.2c-1.5-9.5-3.1-19.1-3.2-28.6c-0.2-9.6,0.4-19.4,2.4-28.7
		c4.1-19.1,0.3-36.1-10.4-52.1c-0.3-0.4-0.2-1.2-0.3-2.7c5.3,4.1,9.8,8.4,15,11.5c16.9,10,34,19.5,51.1,29.1
		c11.3,6.4,25.2,4.4,34.5-4.9c7-7.1,14-14.3,16.7-24.4c0.3-1,0.6-2,1.1-2.8c13-19.2,10-40.4,7.7-61.6c-1.1-10.1-3.7-20.1,1.9-30.1
		c5.2-9.2,12.7-13.7,23.4-13.4c12.4,0.4,24.4,2.2,36.3,5.6c6.7,1.9,13.7,2.8,20.5,3.9c11.3,1.9,19.2-2.2,23.4-13.2
		c4.7-12.3,13.1-20.1,25.2-25.3c10-4.3,19.6-9.8,29.1-15.3c5.4-3.1,9.5-3.1,15.5-0.1c9.2,4.7,13.8,11.1,16.3,20.8
		c5.4,20.6,11.1,41.2,22.2,59.7c5.1,8.5,11.3,16.4,16.7,24.8c2.8,4.3,6.7,3.6,10.7,3.2c18.8-2.2,37.6-4.3,56.4-6.6
		c26.4-3.2,52.7-6.5,79.1-9.7c33.6-4.1,67.2-8.1,100.9-12c4.9-0.6,9-2.7,9.2-7.5c0.6-14.3,10.9-22.5,19.7-31.1
		c8.7-8.5,19.2-15.2,30.5-19.9c0.8,0.6,1.7,1.2,1.7,1.5c-3.7,16.2,7,27.6,13.7,40.2c2.9,5.5,7,10.4,10.4,15.4
		c-8.3,9.9-9.1,15.5-3.9,24.6c1.9,3.3,4.3,5,8.1,3.4c2.2-0.9,4.6-1.3,6.5-2.6c8.6-6,18.9-4.9,28.2-7.6c0.4,5.5,0.8,10.3,1.1,15.1
		c0.5,6.9-7.7,16.5-16.7,18.9c-5.8,1.5-11.7,2.6-17.6,3.5c-7.9,1.2-13.4,5.5-17,12.5c-4.8,9.2-9.5,18.5-8.3,29.3
		c0.4,3.6,1.1,7.2,2.4,10.6c2.5,6.5,3.1,13,1.1,19.5c-3.2,10.8-6.8,21.5-10.5,32.2c-4.6,13.3-8,26.6-4.9,40.8c0.5,2.3,0,6.2-1.5,7.5
		c-8.7,7.2-7.2,18-10.1,27.2c-1.4,4.4-2.9,8.8-5.1,12.8c-1,1.8-3.5,3.3-5.5,3.8c-9.3,2.1-15.8,8-21.5,15.2
		c-4.6,5.9-9.9,10.5-17.7,12c-8.1,1.5-13.8,7.1-16.9,14.3c-3.6,8.3-10.2,10.7-17.7,9.6c-8.2-1.3-15,2.4-22.1,4.6
		c-2.9,0.9-5.3,3.8-7.5,6.2c-2.5,2.6-4.7,5.6-6.7,8.6c-6.7,10.3-14.4,19.6-22.7,28.7c-5,5.4-6.1,13.3-6.3,20.6
		c-0.1,4.7-1.4,7.6-5.3,10.7c-11.8,9.6-23,20-34.2,30.3c-9.6,8.9-13.8,20.1-12.7,33.2c0.2,2.3,0,4.6,0,7.5
		c-16.7,1.7-33.1,3.4-49.6,5.2c-9.2,1-18.4,2.7-27.7,3.1c-9.3,0.4-9.3,3.9-10.8,11.4c-2.8,14.3-5.2,28.8-7.8,43.1
		c-2.9,15.7-5.5,31.4-8.9,47c-1.4,6.3-0.3,11.7,2.5,17.2c1.6,3.2,2.5,6.8,3.9,10.1c2.5,5.6,2.5,10.5-1,16c-1.3,2.1-0.6,6.6,0.7,9.2
		c9.5,17.8,22.5,32.9,37.5,46.3c3.2,2.9,6.5,3.5,10.9,2.6c34.7-7.5,69.7-14.2,104.3-22.4c11.1-2.6,21.5-8.8,32-13.6
		c23.9-11,47.7-22.1,71.5-33.1c2.1-1,4.3-1.6,7.2-2.6c5,5.2,10.6,10.1,14.9,15.9c5.9,8.1,12.8,10,22.5,8c13.6-3,27.5-4.7,41.3-6.8
		c2.8-0.4,5.9-0.3,8.7,0.4c9.4,2.5,18.9,3.2,28.5,3.9c10.1,0.7,20.3,3.4,30,6.3c3.6,1.1,6.8,5,9.1,8.4c3,4.4,5,9.4,7.1,14.3
		c0.7,1.6,0.8,3.7,0.6,5.5c-0.6,5.5-2.1,11-2.3,16.5c-0.9,34.9-1.4,69.9-2.1,104.8c-0.3,15.3-0.8,30.6-1.3,45.9
		c-0.1,4.3-0.6,8.6-0.9,13.9c-4.2-1.5-8-2.5-11.5-4.1c-5.2-2.4-9.9-1.7-15.3,0.3c-15.9,6.1-23.3,19.1-28.4,33.9
		c-6.1,17.7-14.4,34.2-24.9,50.4c-17.8-2.6-34,0.6-47.4,14.2c-6.4-6.3-12.4-11.6-17.6-17.5c-3.8-4.3-7.5-4.8-12.3-2.6
		c-7.8,3.6-15.8,7.1-23.5,10.9c-6.7,3.3-13.5,4.9-21,5.6c-6.1,0.5-12,3.2-18,4.9c-3.1,0.9-6.5,3-9.4,2.5c-6.9-1.2-12.3,1.5-17.8,4.7
		c-7.8,4.4-16,8.3-23.6,13c-5,3.1-10.1,6.6-14,11c-4,4.5-8.3,7.2-13.9,8.8c-11.2,3-22.2,6.7-33.4,10
		C4583.5,2197.9,4581.5,2197.9,4578,2198.3z"/>
	<path onclick="modals(this.id);" id="2612" class="st0" d="M2512.3,2298.6c-4.5-2.6-7.7-3.9-10.2-6c-7.8-6.5-16-11.6-26.5-12.2c-2.2-0.1-4.6-1.1-6.3-2.5
		c-7.1-5.8-15.3-9-24-11.6c-5.6-1.6-12-4.3-15.5-8.5c-11.8-14.4-28.9-21-43.4-31.3c-3.8-2.7-8.1-4.7-12.1-7
		c-9.8-5.7-19.9-6.9-30.6-2.4c-0.9,0.4-1.9,0.6-2.8,0.9c-0.3,0.1-0.7,0-1.8,0c-8.7-7.2-18-14.8-27.1-22.5c-1.3-1.1-2.6-2.3-3.2-3.8
		c-6.6-16-19.3-21.6-36-21.6c-0.1-2.7-0.4-5.4-0.4-8c-0.2-60.7-0.4-121.3-0.7-182c-0.1-19.6-0.9-39.2-1.2-58.9
		c-0.1-2.6,0.3-5.2,0.6-8.9c7.3,1.5,14.2,2.4,20.7,4.6c5.6,1.9,10.9,2.1,16.5,1.1c13.2-2.4,20.7-12.5,18-25.6
		c-1.3-6.4-3.9-12.7-6.6-18.7c-2.8-6.1-5.5-11.8-5.4-18.9c0.1-7.2-3-13.1-9.4-17.6c-11.8-8.3-22-18.3-29.3-30.9
		c-1-1.7-2.5-3.4-2.8-5.3c-2.6-13.7-11.5-24.7-15.8-37.5c-4.3-12.9-7.4-26.2-10-39.5c-0.6-3.2,1.6-8.2,4.2-10.7
		c8.7-8.4,10.1-19,11-30c0.4-4.3,1-8.6,1.9-12.8c2.1-10.6,6.6-18.5,17.5-23.5c7.4-3.3,13.1-10.8,19-17
		c12.9-13.5,24.2-28.2,31.8-45.5c4.1-9.4,12.3-15.6,20.6-21.3c2-1.4,5-1.4,7.6-1.5c5.7-0.2,11.3-0.1,17-0.1
		c10.6,0.2,21,1.5,31.5-2.9c6-2.5,12.9-2,18.9,2.7c5.8,4.5,12.1,8.2,18.4,11.9c3.1,1.8,7,4.6,9.8,3.9c10.8-2.7,15.3,4.7,19.8,11.4
		c6.3,9.3,11.8,19.2,17.4,29c5.2,9.2,13.6,12.4,23.3,12.6c5.6,0.1,10.2,1.7,14.9,4.5c17.9,10.5,34.1,23,48.8,37.8
		c8.9,9,17.6,18.1,24.8,28.5c9.1,13.2,23.6,15,37.4,18.1c2.1,0.5,4.8-1.8,7.5-2.9c10.1,5.1,18.8,12.3,26.3,20.8
		c4.4,5,9,6.3,14.9,3.4c2.1-1,4.5-1.4,6.5-2.6c13.9-8.6,28.2-5.5,40.8,1.3c12.2,6.6,24.9,8.9,38,10.9c16,2.4,31.9,5.2,48.5,3.7
		c9.1-0.8,18.7,3.9,28,6.4c1.5,0.4,3.3,1.5,4,2.7c5.5,9.2,15.6,10.6,24.9,15.1c2.9-4.7,6.1-9,8.2-13.7c5.1-12.1,15.3-17.7,26.8-22
		c4.8-1.8,9.2-4.5,15.5-7.6c5.3,2.2,12.8,4.8,19.9,8.3c2.4,1.2,4.3,4.1,5.7,6.7c5.9,10.4,10.8,21.5,17.5,31.3
		c8.3,11.9,17.3,23.7,27.7,33.8c5.7,5.6,15.2,6.1,23.7,4.7c5.6-0.9,11.1-2.3,16.7-2.8c4.1-0.4,8.5-1.1,11.5,3.9
		c0.9,1.4,4.8,1.8,7.2,1.5c10.8-1.2,20.1,1.4,28.8,8.3c10.9,8.7,22.6,16.5,34.1,24.4c4.1,2.8,6.9,6.1,8.5,10.7
		c2.7,7.5,6.1,14.9,7.8,22.6c1.9,8.5,6.9,13.2,14.3,16.5c8.5,3.7,16.9,8,25.5,11.4c9.3,3.6,18.9,4.8,29.2,3.3
		c30.7-4.3,58.6-17.2,87.6-26.9c16.4-5.5,32.8-10.8,49.2-16.5c4-1.4,7.7-3.8,11.5-5.8c17.1-9,33.8-18.6,51.4-26.6
		c8.9-4.1,19.3-4.7,28.8-7.7c6.9-2.1,13.5-5.5,20.3-8.2c3.4-1.4,6.7-3.1,10.2-3.6c2.1-0.4,5.8,0.4,6.7,1.9c3.5,5.9,9,6.3,14.7,6.6
		c3.7,0.2,7.3,0.3,11,0.1c5.5-0.3,9.9,1.1,14.6,4.5c4.3,3.1,10.4,4.4,15.9,4.8c6.9,0.5,10.5,4.1,14.2,9.3
		c10.4,14.7,10.6,30.1,5,46.4c-3.7,10.7-7.4,21.4-11.1,32.1c-4.3,12.5-3.6,24.2,6.1,34.2c4.5,4.7,6.1,10.7,8.5,16.6
		c7.8,19.3,15.2,39.1,31.9,53.3c2.7,2.3,4.5,5.6,6.6,8.3c-1.4,2.9-3.4,5.1-3.6,7.5c-0.8,8.4-6.1,11.7-13.3,13.6
		c-6.4,1.6-12.7,4.2-19.2,5.4c-14.4,2.8-26.7,10.1-38.4,18.4c-4.7,3.4-8.7,8.3-11.9,13.2c-12.2,18.4-21.9,38-27.8,59.4
		c-2.7,9.8-3.9,19.5-2.7,29.6c2.4,18.8,4.7,37.5,6.8,56.3c0.3,2.9,0.2,6.1-0.7,8.7c-6.1,17.2-12.4,34.4-18.8,51.5
		c-1.1,3-3.5,5.6-5.4,8.3c-7.4,10.7-15,21.2-22.3,31.9c-9.9,14.6-22.3,25.4-40.2,28.7c-2.3,0.4-4.5,1.1-6.7,1.8
		c-16,5.3-17.3,8.2-16.7,24.9c0.6,15.8,11.4,23.5,22.5,30.3c9.1,5.6,18,11.1,25.9,18.4c4.5,4.2,10.2,7.3,15.9,10
		c20.7,9.9,41.6,19.5,62.5,29c5.9,2.7,9.4,7,12.2,13.4c-20.1-3.7-36.7,7.2-54.6,11.7c-3.4,0.9-6.1,4.6-10,7.7
		c-3.5-3.6-7.6-7.7-11.5-12c-28-31.2-56.1-62.3-83.8-93.7c-4-4.5-8.4-5.9-13.9-6.2c-15-0.7-29.8,1.5-44.7,2.9
		c-11.9,1.1-23.9,1.1-35.8,0.9c-2.9,0-5.9-2.4-8.8-4c-5.8-3.2-11.1-7.5-17.2-9.6c-10.6-3.7-21.3-3.9-31.5,2.6
		c-4.4,2.8-9.8,4.1-14.6,6.5c-8.8,4.5-18.2,5.7-27.8,6.7c-7.1,0.8-12.5-1.2-17.6-6.8c-13.6-15-28.5-28.9-40-45.9
		c-2-3-5.9-5.4-9.4-6.8c-10.5-4.3-21.2-7.8-31.8-11.9c-2.7-1-5.3-2.7-7.5-4.6c-7.9-7.1-15.3-14.8-23.6-21.4
		c-7.1-5.7-13.1-12.1-18.5-19.3c-10.5-14.2-25.9-17.2-40.9-7.8c-5.7,3.6-10.9,4.2-16.8,1.5c-7.3-3.3-13.5-7.5-18.1-14.8
		c-6.3-10.1-14-19.4-21.4-28.8c-1.3-1.6-3.6-2.8-5.7-3.3c-10.1-2.7-20.4-2.4-30.7-1c-2.3,0.3-4.9,1.3-6.8,0.6
		c-5.2-1.9-9.1,0.4-12.9,3.2c-12.5,8.9-25,17.7-37.2,26.9c-14.7,11.1-31.6,16.9-49.4,20.2c-7.2,1.3-14.5,1.7-21.8,1.9
		c-14.6,0.5-29.3,0.7-44,0.6c-3.5,0-7.6-0.7-10.3-2.6c-15.3-10.3-32.7-14.6-50.4-17.6c-25.3-4.4-50.9-5.4-76.6-3.8
		c-8.9,0.6-17.9,1.4-26.8,1.3c-5.6-0.1-8.3,2.9-11.3,6.6C2522.8,2287.6,2517.7,2292.7,2512.3,2298.6z"/>
	<path onclick="modals(this.id);" id="2608" class="st0" d="M2969.4,1487.2c-7.8-13.9-15.9-27.7-23.3-41.8c-3.3-6.2-7.1-10-14.5-9.8
		c-3.6,0.1-7.2-1.1-10.8-1.5c-12.5-1.1-19.4-8.6-25.9-18.9c-9.7-15.4-2.6-27.2,4.9-39.7c0.5-0.8,1.1-2,1.9-2.3
		c10.2-3.9,11.2-13,12.9-21.9c5-25.4,9.1-51.1,15.5-76.1c5.7-22.1,10.7-44.8,23.2-64.5c4.6-7.3,7.2-15,6.2-23.6
		c-0.4-3.5-1.2-7.2-3-10.2c-5.8-10.2-6.5-21.1-3.6-31.9c2.8-10.5,7.2-20.7,11.2-30.9c4.1-10.3,3-14.3-6.8-19.2
		c-14.9-7.4-22.9-20.6-29.4-35c-1.8-3.9-3.7-7.8-6-11.3c-6.7-10.3-13-21-20.8-30.4c-5.2-6.2-12.6-10.6-19.4-15.3
		c-1.4-1-4.4-0.2-6.5,0.3c-2.8,0.8-5.5,2.1-9.2,3.7c-3.7-5.4-7.6-10.3-10.6-15.7c-4.2-7.6-8.4-15.3-11.1-23.4
		c-2.7-8.2-8.3-11.5-15.6-13.5c-3.9-1.1-7-0.5-9.6,3c-8.1,10.7-19.3,16.7-31.6,21.5c-17.7,6.9-35.2,14.1-52.2,22.6
		c-14.8,7.4-28.9,16.5-42.9,25.4c-4.7,3-8.1,7.8-12.1,11.8c-11.9,12.1-25.7,15.1-42.4,9.5c0.4-2.8,0.5-5.4,1.2-7.8
		c3.8-13.4-0.8-24.9-10-33.6c-8.4-7.9-18.9-13.4-28.4-20.1c-3.1-2.2-7-4.2-8.8-7.3c-5.2-9-12.9-15.2-21.6-20.1
		c-8.5-4.8-15.5-11-21.6-18.8c-7.1-9.1-16.1-16.8-24.1-25.3c-3.3-3.5-7.3-2.6-11.2-2.7c-11-0.2-17.9-6.1-18.9-17.2
		c-0.7-6.9-2.9-11.7-10-14.4c-7.2-2.8-12.1-14.1-9-20.8c8.5-18.1,2-34.4-5.2-50.7c-1.7-3.9-4.2-7.6-5.7-11.6
		c-7.5-21-22.5-36.7-36.5-53.1c-22.3-26-45.3-51.5-61.8-81.9c-3.3-6.1-3.4-6-1.8-11.3c10-0.7,19.9-0.7,29.6-2.3
		c5-0.8,9.3-0.4,13.4,1.9c14.6,8.5,29.6,8.6,45.1,3.1c12.5-4.4,25-1,37.4,0.7c16.8,2.3,33.6,4.5,50.2,7.5c13.8,2.5,27.3,6,37.5,16.8
		c5.9,6.2,12,12.4,18,18.5c1.4,1.4,3,2.5,4.8,4c3.4-2.5,6.7-4.6,9.6-7.1c6.8-5.8,14.5-6.1,22.6-3.9c5.8,1.6,11.6,3.2,17.1,5.5
		c5.7,2.3,10.5,1.5,16.2-0.6c8.4-3.1,13.1-8.3,14.9-16.8c0.8-3.9,2.6-7.6,3.6-11.4c3.2-11.9,8.4-22.1,19.3-29
		c6.4-4.1,7.9-11.4,8.2-18.5c0.1-2.6-1.9-5.4-3.5-7.8c-6.4-10-15.8-17-24.2-25c-7.9-7.6-15.3-15.7-22.7-23.8
		c-1.8-1.9-3.3-4.3-4.2-6.7c-4.4-11.3-10.2-32.9-6.2-50.6c10.7-0.6,21-5.3,32.4-3.8c17.8,2.3,34.9-3,52.2-6.3
		c9.4-1.8,19.1-3.1,28.6-3.2c18.6-0.2,37.3-2.8,55.7,1.5c1.6,0.4,3.3,0.6,4.7,1.4c8.7,4.4,16.4,22.3,13.6,31.7
		c-0.9,3.2-2.5,6.3-2.8,9.5c-0.5,5.6-0.1,11.3-0.1,17.3c7.6,5,15.5,7.1,24.7,8.4c14,2,27-0.7,40.5-2.2c2.6-0.3,5.5-0.8,7.4-2.3
		c8.2-6.8,18.1-9.6,28-12.5c4.1-1.2,8.3-2.7,11.8-5.1c6.7-4.7,13.7-7.8,21.8-9.2c7.9-1.3,15.6-3.4,23.5-4.7
		c4.6-0.7,9.3-1.1,13.9-0.6c26.2,3,48.1-6.1,67.1-23.6c4.1-3.8,8.4-7.5,12.7-11.3c4.9,3,6.7,6.9,6.8,12.5
		c0.3,10.3,1.9,11.5,12.5,12.6c5.3,0.6,10.6,1.9,15.8,1.8c6.9-0.1,14-0.4,20.6-2.1c10.3-2.7,19-8.1,22.7-19
		c2.8-8.4,8.7-13.7,16.3-17.8c9.6-5.2,18.9-11.1,28.5-16.8c8.1,8.4,12.8,18.3,16.9,28.4c6.7,16.4,14.1,32.3,25.1,46.4
		c5.8,7.4,7.2,16.3,7.5,25.4c0.4,10.3,0.1,20.6,0.6,30.9c0.1,3.2,1.3,6.5,2.8,9.3c3.6,6.8,7.9,13.1,11.4,19.9
		c2.6,5.1,6.3,7.3,11.8,7.3c7,0,14,0.9,21,0.5c9.6-0.6,15.6,4.4,20.5,11.6c7,10.3,11.6,21.6,14.2,34.7
		c-12.2,10.5-11.5,25.1-8.8,39.1c2.9,14.9,2.4,28.9-3,43c-4,10.6-7.2,21.4-4.1,32.9c0.2,0.9-0.2,1.9-0.5,3.9
		c-9,2.1-18.5,3.8-27.5,6.7c-8.5,2.7-17.1,5.8-24.4,10.7c-4,2.7-6.7,9.2-7.7,14.4c-1.1,5.7-0.4,12,0.8,17.8
		c3.1,15,7.2,29.7,10.3,44.7c1.3,6.4,0.9,13.1,1.4,19.9c-15.3,3.1-27,11.5-39.6,18.2c-12.4,6.5-24.9,12.6-37.6,18.5
		c-23,10.7-44.7,23.7-64.8,39.1c-3.5,2.7-6.1,6.8-8.7,10.6c-6.1,8.7-11.7,17.7-17.9,26.3c-1.4,1.9-4.5,2.7-6.8,4
		c-6.6,3.7-13.1,7.4-20.8,11.8c4.6,5.8,9.7,10.1,12.1,15.6c6.7,15.5,19,25.1,32.6,33.8c6.1,4,11.7,8.7,17.6,13.1
		c10.2,7.7,19.2,16.4,26,27.3c4.6,7.4,10.7,12.5,19.3,14.4c1.9,0.4,3.7,1.5,5.7,2.4c-6.8,8.3-13.3,16.6-20.2,24.6
		c-3.2,3.7-3.9,7.5-2.9,12c0.9,3.9,0.9,8.1,2.4,11.7c3.1,7.7,7,14.6,15.2,18.9c13.8,7.2,24.4,18.3,32.6,31.5
		c2.3,3.7,2.1,3.8-2.1,8.5c-2.8-2.7-6.3-4.9-8.3-8.1c-6.9-11-17.8-15-29.4-16.8c-8.5-1.3-15.7-5-23.5-7.8
		c-8.7-3.1-17.7-5.7-26.5-8.5c-0.6-0.2-1.3-0.2-2-0.2c-18.5,0-37.1-0.1-55.6,0c-1.9,0-4.5,0.4-5.5,1.6c-7.3,9-15.3,17.3-17.7,29.5
		c-2,10.5,1.6,19,7.1,27c3.3,4.9,4.7,9.8,5.1,15.7c1,15.2-2.2,29.7-4.8,44.4c-1.8,10.1-2.7,20.4-3.2,30.6c-0.5,10.3,0,10.3,9.7,12.9
		c40.5,10.7,81,21.4,121.5,32.1c1.6,0.4,3.1,1.1,5.1,1.9c4.9,20.7,8.7,41.4,0.8,62.5c-6.9,18.7-13.3,37.6-19.8,56.4
		c-1.2,3.4-3.3,4.8-6.6,4.9c-18,0.6-34.3,7.3-50.8,13.4c-11,4-23.2,0.6-31-8.5c-1.9-2.3-3.8-4.6-5.5-7.1
		c-12.9-20-31.7-32.7-52.9-42.4c-6.4-2.9-13.3-4.8-19.1-8.4c-8.7-5.4-15.6-1.8-21.5,3.6C2981.7,1484.9,2977.1,1487.5,2969.4,1487.2z
		"/>
	<path onclick="modals(this.id);" id="2611" class="st0" d="M2928.8,1729.1c-3.1,5.9-8.5,8.5-14.7,10.6c-11.2,3.8-21.2,9.3-26.1,21.3
		c-1.7,4.2-4.7,7.9-7.2,11.9c-8.4-2.4-16.1-5-21.3-12.4c-1.6-2.2-4.7-3.7-7.5-4.6c-11.7-3.7-23.5-7.7-36.1-5.5
		c-10.8,1.9-21-1.8-31.5-2.7c-4.6-0.4-9.2-1.4-13.8-2c-10.6-1.5-20.6-4.4-30.2-9.4c-10-5.2-20.9-8.8-32.5-6
		c-5.1,1.2-9.9,3.6-14.7,5.9c-6.1,2.9-10.8,2.4-15.9-3c-5.9-6.2-12.8-11.7-19.9-16.4c-5.1-3.3-6.3-7-5.3-12.5
		c1.4-8.2,2.6-16.4,4.1-24.6c0.3-1.6,0.7-3.4,1.8-4.5c6.4-6.8,12.1-14.6,19.6-19.7c11.2-7.5,17.8-17.7,22.6-29.5
		c3.9-9.5,7.3-19.3,10.4-29.1c2.1-6.6,5.4-11.1,12.5-12.7c3.8-0.8,7.4-2.7,11.5-4.3c8.8,11.9,16.7,23.8,26,34.7
		c8.2,9.5,17.8,17.9,26.9,26.5c4.2,4,8.7,4.3,13.3,0.2c15.4-13.4,34.1-20.2,53-26.8c11.9-4.2,23.3-9.5,35.1-14
		c4.5-1.7,7.3-5.1,8.3-9.3c1.8-7.1,6.7-11.2,12.2-15c1.4-0.9,2.8-1.9,4.1-2.9c16.7-12.9,18.5-16.1,21-37.1
		c0.7-5.6,1.3-11.2,2.3-16.8c0.9-5.3,2.3-10.4,7.7-14.1c4.7,1.5,8.4-0.3,12.2-4.6c5-5.7,11.6-9.9,19.9-10.2
		c4.1-0.2,7.2-1.8,10.2-5.1c7.6-8.1,11.6-8.4,22.1-4.1c19.2,7.8,37.8,16.5,53.2,30.8c3.4,3.1,6.6,6.5,9.5,10
		c3.1,3.9,5.4,8.5,8.7,12.2c3.9,4.4,7.8,10,12.9,11.7c8.6,2.9,17.9,3.8,27.3,0c14.8-5.9,29.8-11.8,46-12.1c3.9-0.1,8,0.3,11.8,1.2
		c10.1,2.4,19.2,2,28.2-4.7c13.2-10,24.7-21.1,31.4-36.7c3.8-9,8.3-17.8,13-27.8c8,2.1,17.6,3.7,26.4,7.2c17.6,7,34.5,8,51.5-1.4
		c7.1-3.9,15-4.2,23.3-3.5c10.9,1,21.5,0.2,32.1-4.8c10.9-5.2,23.1-7.9,35.9-12c22.3,12.1,46.1,24.8,69.6,37.9
		c3.3,1.8,6.2,4.9,8.6,8c7.2,9.5,13.9,19.4,20.7,28.9c19-7.1,23-10.2,33.2-26.4c19.7,5.1,39.9,10.3,61.4,15.8
		c3.4-6.3,7.5-13,10.7-20.1c3.2-7.2,5.5-14.9,8.2-22.2c6-2,10.6-0.4,15.3,3c11.2,8.4,22.7,16.3,33.9,24.6
		c8.8,6.5,18.4,10.2,29.3,11.3c7.2,0.7,14.6,1.9,21.5,4.1c8.8,2.8,14.8,9.9,20.5,16.8c3.6,4.3,6.5,9.2,10.3,14.6
		c13.9-4.2,27.9-8.2,41.7-12.8c6.8-2.3,12.9-2.5,18.8,1.9c3.3,8.5,1.8,16.7-1.2,25c-4.5,12.5-8.4,25.2-12.5,37.8
		c-0.7,2.2-1.5,4.9-0.8,6.8c6.2,16-2.2,28.6-10.3,40.5c-5.5,8.1-13.6,14.5-20.8,21.2c-6,5.6-12.6,10.6-20.2,17
		c3.4,1.2,5.2,2.3,7.2,2.6c6.9,0.9,13.9,1.6,20.8,2.4c11.3,1.3,20.9,6.3,29.1,14c15.4,14.7,30.9,29.3,46.1,44.3
		c4.4,4.4,8.4,9.4,11.4,14.8c3.3,6,8.9,8.2,14.4,10c5.7,1.9,9.1,5.1,11.1,10.4c3.7,9.7,12.8,15.2,18.6,23.2
		c5.3,7.3,11.1,14.1,16.2,21.5c7.2,10.3,5.4,22.3,5,33.9c-0.1,4.3-1,8.6-1,12.9c0.1,7.8-0.4,15.3-5.3,21.8
		c-2.8,3.7-0.2,6.9,1.1,10.3c1.7,4.1,5,7.2,3.6,12.9c-2.5,9.6-3.3,19.5-11.9,26.4c-15.5,12.5-15.3,12.7-34.7,8.8
		c-2-0.4-3.9-0.6-5.9-1c-16.3-2.7-16.7-2.1-22.8,12.6c-7.6,18.2-9.7,37.2-10,56.5c-0.1,8.2,1.1,16.5,1.8,25.7c-13,3.6-25.1,9-38.7,9
		c-7.9,0-16.1,0.2-23.7,2.2c-24,6.3-49.1,8.6-71.5,20.8c-9.9,5.4-17.7,12.8-25.6,20.4c-3.8,3.6-7,7.7-11.2,12.4
		c-1.3-8.2-2.3-15.3-3.7-22.3c-0.7-3.5-2.1-7-3.7-10.2c-6.8-13.3-13.8-26.6-20.8-39.8c-4.5-8.5-6-8.9-14.7-4.8
		c-13.5,6.3-27.2,12.4-40.8,18.5c-1.5,0.7-3.1,0.9-4.6,1.3c-3.4-6.1,2.3-9.1,4.6-13.9c-2.6-3.5-4.7-7.9-8.1-10.8
		c-16.6-13.9-23.9-33.2-31.5-52.3c-2.6-6.5-4.3-13.2-9.5-18.3c-9.4-9.2-8.6-20.1-5.1-31.3c3.9-12,9.5-23.6,12.4-35.8
		c3-12.8,4.9-26.2-3.2-38.4c-0.7-1.1-1.5-2.2-2-3.4c-3.8-9.2-10.5-13.8-20.6-14.1c-5.6-0.2-10.8-2.3-15.4-6.2
		c-2.2-1.9-5.8-2.8-8.9-3.1c-4.6-0.5-9.3-0.2-14-0.1c-5.5,0.1-10.5-0.4-13.8-5.9c-2.1-3.6-5.6-4.3-9.5-2.7c-2.5,1-5.3,1.2-7.5,2.6
		c-12.3,8-26.4,10.6-40.3,14c-6.7,1.6-13.2,4.3-19.4,7.4c-22.4,10.9-44.2,23.2-67.1,33c-18.6,7.9-38.4,12.9-57.6,19.3
		c-7.3,2.4-14.5,5-21.5,7.9c-15.8,6.5-32.6,9.5-49.3,11.9c-6.6,1-14.1-0.2-20.5-2.3c-10-3.4-19.5-8.5-29.3-12.7
		c-6.4-2.7-10-7.4-11.5-14c-0.8-3.2-1.6-6.5-2.7-9.6c-4.2-12-8.8-23.1-21.1-30c-11-6.1-20.9-14.3-30.8-22c-6.4-5-13.4-6.7-21.3-6.8
		c-4.8-0.1-9.1,0-13.9-3.2c-4.2-2.9-11.4-1.9-17.2-1.8c-3.9,0.1-7.7,2.1-11.7,2.5c-9.1,0.9-17.4-0.5-24.4-7.8
		c-12.1-12.6-22.5-26-30.1-41.9C2959.1,1740.9,2956.3,1738.9,2928.8,1729.1z"/>
	<path onclick="modals(this.id);" id="2603" class="st0" d="M4399.8,1040.7c0.2,2.5,0.5,4.4,0.6,6.3c0.5,11.6,7.6,20.2,18.9,22.1c7.8,1.3,15.8,2.1,23.8,2.4
		c5,0.1,9.1,1,12.2,5.2c0.8,1.1,1.9,1.9,2.8,2.9c9.9,9.9,10.8,13.4,4.7,26.3c-4.4,9.3-9.6,18.3-14.6,27.3c-0.9,1.6-2.3,3.4-3.9,4.2
		c-13.3,6.9-26.5,13.8-40,20.2c-11.4,5.4-19.2,13.8-23.6,25.6c-3.2,8.7-8.5,12-17.6,10.7c-10.8-1.6-21.5-4.3-32.3-6.1
		c-8.8-1.5-17.7-2.4-26.6-3.4c-19.4-2-30.5,14.9-30.5,30.4c0,5.3,0.6,10.6,1,15.9c0.5,5.9,0.8,11.8,1.6,17.6
		c2.8,19.9-3.7,37.4-13.5,54c-6.5,11-14.6,20.9-28.4,22.9c-3.7,0.5-8.2-0.1-11.4-1.8c-18.5-9.9-36.8-20.1-54.9-30.7
		c-5.1-3-9.1-7.7-13.7-11.5c-1.5-1.2-3.1-2.2-5.5-3.9c-2,4.5-2.1,8.2,0.4,11.6c12.3,16.4,13.2,34.7,9.8,54.1
		c-2.8,16.1-2.9,32.5,0.3,48.6c3.3,16.4-1.9,30.5-11.6,42.9c-5,6.4-12.3,11.1-18.6,16.5c-0.7,0.6-1.9,1.3-2.7,1.1
		c-7.6-1.6-16.4,0.1-22.5-6.3c-12.5-12.9-27.2-15.4-43.7-10.1c-8.3,2.7-16.5,1.1-24.5-0.6c-11.7-2.5-23.3-5.7-34.8-8.8
		c-16.8-4.6-32-12.5-46.5-22.2c-12.6-8.4-26.9-13-42.2-13.7c-19-0.9-37.8-0.8-56.6,2.9c-3.2,0.6-7-1.1-10.4-2.2
		c-6.6-2.2-13.2-4.5-19.6-7.2c-5.5-2.2-10.6-5.5-16.2-7.4c-11.6-4-23.3-7.9-35.1-11c-15.9-4.1-24.8-15.8-32.4-28.9
		c-3-5.1-4.8-11-6.9-16.5c-1.5-4.1-4.3-6.5-8.4-7.8c-8.5-2.8-17-5.5-25.4-8.6c-10-3.7-19.8-7.8-30.4-12c-9.1,8-18.1,15.7-26.9,23.7
		c-1.3,1.2-2,3.4-2.5,5.3c-0.9,3.2-1.8,6.5-2,9.8c-0.6,10.3-5.6,18-13.3,24.4c-1.5,1.2-3.3,2.7-3.8,4.4
		c-3.7,11.7-7.4,23.4-10.3,35.2c-1,4.3-2.6,6.7-6.8,7.1c-4.3,0.4-8.6,0.7-13,0.7c-14.3,0.1-28.7,0-43,0c-2.3,0-4.7,0.2-7-0.3
		c-11.1-2.1-13.6-6.4-12.2-17.4c1.6-12.5,3.1-25.1,3.6-37.7c0.4-11.1-2.4-21.6-11.2-29.7c-2.9-2.6-2.7-2.8-3.8-17.9
		c8.2,0.4,16.3,0.7,26.4,1.2c8.4-7.1,19.2-15,28.3-24.5c5.6-5.8,8.9-13.9,9.3-23.8c-2.8-0.8-5.7-2.3-8.8-2.6
		c-17.6-1.8-35.1,0-52.7,0.5c-6.6,0.2-13.2,0.5-19.7-0.3c-7.4-0.9-13.5-0.3-18.8,6c-4.7,5.6-10.4,10.2-16.3,15.7
		c-4.5-6-6-12.4-6.6-18.7c-0.7-7.5-3.9-12-11.1-14.7c-7.4-2.8-14.3-7-21.6-10.2c-3-1.3-6.3-1.8-9.5-2.5c-3.2-0.6-6.7-0.5-9.8-1.5
		c-6.3-2-9.2-7.6-7.6-14c3.2-12.7,8.1-24.7,16.5-34.9c10-12.1,15.7-26.1,19.1-41.2c1.4-6.2-0.9-9.8-7.2-9.7
		c-7.5,0.2-14.4-1.7-21.3-4.3c-3.6-1.3-7.8-1.7-11.7-1.8c-9.3-0.3-18.6-0.1-28.8-0.1c0-2.6-0.6-5.3,0.1-7.4
		c1.3-3.8,3.2-7.3,5.2-10.8c12.7-23,17.7-47.8,16.9-73.8c-0.3-8.5,1.2-16.6,4.5-24.3c8.1-19,16.4-37.8,24.3-56.9
		c2.1-5.1,2.8-10.8,4.5-17.5c11.3,2.4,23.6,3.1,34.3,7.6c23.7,10.1,48.2,12.5,73.3,11c7.9-0.5,14.3,1.4,19.8,7
		c7,7.1,15.6,11.1,25.4,12.8c3.5,0.6,6.9,2,10.6,3.2c-3.2,12.6-6.7,24.1-13.5,34.7c-13.3,20.7-25.9,41.9-39.1,62.7
		c-6.2,9.8-3.9,19.6-1.3,29.6c0.5,1.9,1.6,3.7,2.7,5.3c4.3,6.3,4.4,16.1,14.5,17.4c7.5,1,14.7,3.7,22.6,1.5
		c6.4-1.8,13.1-2.2,19.6-3.5c8-1.6,14.5-0.2,20.8,5.8c14.1,13.6,29.4,26,43.4,39.6c6.6,6.4,10.4,15.2,11.7,24.6
		c0.5,3.9,0.7,7.9,1,11.7c16.3,1.3,25.1-10.8,36.9-17.7c-3,4.5-6,9.1-9.3,14.1c8.6,7.4,18.4,10.6,29.2,10.9
		c22,0.5,43.6-2.4,66.5-6.8c-1.9-11.1-7-20.2-11.4-30.5c-1.8,1.1-3.1,2.5-4.4,2.5c-2,0-5-0.1-6-1.4c-3.6-4.8,0.1-9.5,1.5-14
		c1.2-4,5.1-4.3,9.2-3.2c5.4,1.5,11,2.5,16.5,3.6c1.3,0.3,2.7,0.3,4,0.1c11.3-1.9,22.2-0.2,33.3,1.6c6.8,1.1,12.4,3.2,16.1,8.5
		c15.6,22.3,33.7,43,45,68.1c2.2,4.9,2.4,11,2.4,16.5c0,6.9,2.4,12,6.6,17.5c9.8,12.6,18.1,26.3,27.4,39.3c3.4,4.8,7.5,9.4,12,13.1
		c10.1,8.2,20.6,15.8,31,23.5c6.5,4.8,13,3.9,19.2-1.1c8.3-6.6,17.1-12.7,25.9-18.6c6.9-4.6,14.7-8,21.3-13
		c19.5-14.9,43.5-21.4,64-34.6c4.9-3.2,9.3-6.3,11.9-11.5c1.1-2.1,2.1-4.2,3.6-5.9c7.9-9.1,10.4-17.9,3.1-29.3
		c-4.1-6.3-3-14.6,2-21.6c10.5-14.6,20.5-29.5,30.9-44.2c4.2-5.9,10.5-6.9,16.3-2.3c2.8,2.2,5.1,5.2,7.6,7.9c4,4.2,9.4,4.7,12.5-0.1
		c4.2-6.5,9.8-12.5,8.4-21.7c-1.4-9.8-1.5-19.9-2.3-29.8c-0.4-4.1-2.2-7.5-6-9.8c-5.7-3.4-11.1-7.4-16.8-10.7
		c-1.8-1-4.5-1.7-6.3-1.1c-8.5,2.7-17.2,5.4-25.3,9.2c-5.3,2.5-10.2,6.3-14.3,10.5c-7,7.1-15.4,8.4-24.5,8
		c-5.9-0.3-11.9-1.2-17.1-1.7c-9.5,5.8-6.3,12.5-2.4,19.3c-5.3,8.1-11.6,14.4-20.5,18.3c-7.3,3.2-14.1,7.5-20.9,11.6
		c-4.9,2.9-8.6,2.3-12.3-1.9c-5.9-6.7-12-13.3-14.4-22.4c-1-3.8-2.9-7.4-4.4-11.1c-4.6-10.9-10.4-20.6-20.7-27.4
		c-7.2-4.7-13.9-10.3-20.4-16c-4.4-3.9-8.5-4.1-13.7-1.9c-5.9,2.5-12.8,3.5-14.5,11.2c-6-8-11.6-15.3-16.9-22.8
		c-3-4.1-5.9-5.8-11.6-4.9c-9.1,1.4-18.6,1-27.9,1c-3.2,0-6.6-0.8-9.7-2c-14.6-5.5-29.1-11-42.9-18.6c-20.1-11.1-41.3-20-62.1-29.8
		c-3-1.4-6.2-2.6-9-4.2c-17.9-10.5-37.7-14.3-58-16.1c-1.9-0.2-4.2-0.5-5.7,0.4c-10.1,5.4-21.2,4.7-32,5.9c-8.6,1-17,3-25.5,4.6
		c-1.9,0.4-3.8,0.8-6.2,1.3c-2.7-8.5-2.8-15.9,5.6-21.7c6.4,2.6,13.1,5.3,20.7,8.4c3.1-5.6,6-10.7,9.3-16.6
		c-4.7-3.8-8.9-7.3-13.8-11.2c3.7-8.6,4.9-17.9,11.6-25.1c3.2-3.5,4.5-7.2,2.5-12.7c-1.4-3.7,0.5-9,1.9-13.3c1.4-4,4.1-7.6,6.7-12.2
		c-1.8-2.6-3.3-6.1-5.8-8.4c-5.3-4.8-7.2-10.9-8.5-17.5c-0.9-4.5-1.7-9.3-3.8-13.3c-7.5-14.2-7.9-14.3-28.5-15.7
		c-5.6-0.4-11.3-0.5-17-0.7c-7.4-0.3-7.6-0.5-9.2-7.6c-2.9-13.1-3.1-13.3-14.8-20c0.3-2.2,0.2-4.9,1.2-7.1c3-6.9,6.7-13.1,5.4-21.6
		c-0.6-3.8,4.1-8.7,6.9-12.7c2.8-3.9,4.1-7.7,4.7-12.6c0.7-5.6,4.2-10.9,7-16.1c2.7-4.9,5.7-9.7,9-14.3c3.3-4.6,7.4-8,13.2-9.9
		c10.7-3.5,21-8.3,31.4-12.5c7.4-2.9,14.8-5.8,22.4-8.5c1.1-0.4,2.8,0.8,4.9,1.5c-1.3,2.7-2.2,4.7-3.2,6.7
		c-4,8.4-8.1,16.7-12.1,25.1c-4.3,8.9-4.2,18.2-0.8,27.1c2.7,7.1,1.7,12.9-3,18.5c-5.3,6.4-6.6,13.1-4.1,21.3
		c1.3,4.1,0.1,9.2-0.5,13.7c-2.7,20.8-1.1,41.1,7.9,61.5c7-1.7,13.9-3.4,21.2-5.2c0.3-12.8-3-24.2-6.1-35.7
		c-2.2-8.4,0.3-13.5,8.7-15.6c4.7-1.2,10.4-2.4,14.6-0.8c9.3,3.5,16.5,0.9,23.8-4.5c4.5-3.3,8.9-6.8,15.1-6.8
		c6.9,0,12.8,0.3,17.3,6.9c3.3,4.9,14.5,5.7,21.1,2.3c12.5-6.3,25-12.6,37.1-19.5c4.2-2.4,8.2-5.9,11.1-9.8c4-5.1,9.1-7.7,14.9-9.4
		c12.8-3.9,25.5-3.8,37.9,2c6,2.8,11.9,5.9,18.1,8.4c2.4,1,6.2,1.5,8.2,0.3c7.5-4.8,16-9.2,21.5-15.9c15.3-18.8,35.7-22.8,57.9-22.8
		c3.6,0,7.2,1,10.8,1.4c4,0.4,8.2,1.6,11.9,0.7c8.4-2.1,15.8-0.3,24.1,1.8c7.2,1.9,13.7,3.6,18.7,8.8c8,8.4,17.1,16.4,22.6,26.4
		c5.1,9.3,7,20.8,8.6,31.6c2.3,15.7,8.8,27.7,22,37.1c10.8,7.7,20.3,17.2,30.2,26c4,3.5,7.6,7.5,11.3,11.3
		c5.2,5.1,10.3,10.4,15.5,15.4c8.3,8,16.1,16.5,27.2,21.2c2.8,1.2,4.7,4.6,6.8,7.1c10.5,12.6,20,25.9,24.9,41.7
		c4.8,15.6,15.7,26.5,27.6,35.8c14.4,11.1,29.4,21.9,47,28c1.6,0.5,3.1,1.3,4.6,1.9c11.7,4.3,22.7,6,33.5-3.3
		c6.2-5.3,14.2-8.6,21.6-12.3c3.2-1.6,6.9-2.1,10.5-2.7C4390.6,1041.2,4394.6,1041.1,4399.8,1040.7z"/>
	<path onclick="modals(this.id);" id="2602" class="st0" d="M3088.1,1038.4c6.5-3.4,12.4-6.5,18.1-9.7c2.5-1.4,5.5-2.8,7.1-5c6.5-9.2,11.8-19.3,19-28
		c5.6-6.8,12.9-12.4,20.1-17.5c21.6-15.1,45.2-26.6,69.2-37.5c12.4-5.6,24-13,36.1-19.2c7.3-3.7,15-6.7,24.1-10.7
		c-0.3-6.4,0.1-14.1-1.3-21.4c-3.1-16.3-7.5-32.4-10.7-48.7c-1-5.3-0.5-11.1,0.3-16.6c0.7-4.6,4-7.7,8.3-10.4
		c13.1-8.2,28-10.2,42.5-13.5c8.2-1.9,11.1-4.6,8.6-12.1c-2.4-7.4-0.1-13.8,1.4-20.5c0.9-3.9,2.5-7.6,3.6-11.4
		c3.6-12.2,5.4-24,2.7-37.1c-2.1-10.3-4.1-21.8,1.3-32.2c1.4-2.7,3.8-4.9,6-7.6c10.3,7.4,20.1,13.7,29,21.1
		c13.7,11.4,27.7,9.4,41.7,1.7c8-4.4,16-7.6,25-9.4c9-1.8,17.1-0.9,25.1,3.2c3.3,1.7,6.6,3.2,9.8,4.9c10.8,6,22.2,7,33.6,2.8
		c5.8-2.2,8.7-0.4,12.5,4c9.5,11.1,19.7,21.6,29.9,32c2.3,2.4,6.1,4.1,9.4,4.6c17.1,2.3,34.3,4.1,51.4,6c2.2,0.3,4.4,0.6,7.9,1.1
		c-1.6,3-2.7,5.1-4,7.2c-3.9,6.2-7.6,12.3-8,20.1c-0.2,3.3-2.5,6.7-4.5,9.6c-3.7,5.3-6.6,10.5-6.1,17.4c0.2,3.4-1.7,6.9-2.8,10.4
		c-1.3,4.1-2.9,8.1-3.8,12.3c-0.3,1.6,0.7,4.8,1.7,5c12.2,3.6,12.9,13.8,14.2,23.7c0.1,0.6,0.6,1.1,1.6,2.8
		c9.1,0.8,18.9,1.6,28.8,2.4c0.7,0.1,1.3,0,2,0c13.6,0.4,19.5,3.9,22.9,17.1c3.1,12.3,5.3,24.6,16,33.1c-2.2,4.3-4,7.8-5.8,11.3
		c-0.9,1.8-2.6,3.9-2.2,5.4c3.8,15.9-8.7,26.8-12.1,40.4c-0.7,2.8-1.8,5.6-2.7,8.6c4.6,3.5,8.7,6.8,13.1,10.2c-2,4-3.8,7.5-5.9,11.8
		c-7-3.1-13.5-6-20.5-9.1c2.3-5.4,4.3-10.1,6.9-16.2c-7.1-5.1-13.6-10.8-21.2-14.6c-3.3-1.7-8.6,0.6-13,1.2
		c-1.1,7.1-2,12.9-2.9,18.8c-10.6-2.5-17.1,6.8-27.2,8.4c2-7.4,3.9-14.3,5.9-21.9c-4.5-1.4-8.5-3-12.6-3.7
		c-10.4-1.9-19.5-6.4-27-13.8c-4.6-4.5-9.8-5.8-16.2-5.8c-17.2,0.1-34.7,1.7-51.6-3.4c-2.5-0.8-5.2-1.2-7.6-2.3
		c-16.6-7.5-34.4-10-51.9-13.8c-1.2-0.3-2.6,0-4.5,0c-0.5,3.5-0.8,6.8-1.3,10c-0.6,3.3-1,6.6-2.3,9.6c-7.8,18.7-16,37.3-23.8,56
		c-3.7,8.9-5.7,18-5.4,28c0.8,25-4.2,48.8-16.4,70.9c-1.6,2.9-2.7,6.1-4.2,9c-3.1,6.1-3.9,7,0.3,14.1c8.4,0,17-0.5,25.6,0.2
		c7.2,0.6,14.3,2.5,21.4,3.8c4.5,0.8,9.1,1.6,13.6,2c7,0.6,7.5,1.2,6.1,7.8c-2.9,13.5-8.2,26-17,36.8c-9.2,11.3-14.9,24.3-18.1,38.4
		c-1.5,6.5,2.4,14.4,8.5,16.8c1.2,0.5,2.6,0.8,3.9,0.8c17,0.5,30,11.4,45.2,16.7c2.7,11.2,3.8,22.5,10.1,33.3
		c7.5-7,14.7-13.3,21.4-20.2c3.9-4,8.2-5.5,13.4-4.4c14.6,3.2,29-0.3,43.5-0.9c11.9-0.5,23.8-1,36,2.1c0,7.4-3.4,12.7-8.4,17.2
		c-6,5.3-12.6,10-17.9,15.8c-6.2,6.8-13.2,9.6-22.1,8.5c-5.2-0.6-10.4-0.8-17-1.3c0,2.7-0.1,6.2,0,9.6c0.1,3.3,0.5,6.6,0.8,9.8
		c4.4,5,10.4,8.1,12.7,15.2c1.9,5.9,2.5,11.5,1.8,17.6c-1.4,12.5-2.7,25.1-3.4,37.7c-0.7,12.4,4.9,20.5,17.3,20.9
		c22.9,0.8,45.9,2.5,68.7-2c0.9-0.2,1.8-0.8,2.5-1.2c4.5-13.7,8.2-27.5,13.6-40.6c2.5-6,8.2-10.7,13.2-17.1
		c0.9-5.8,1.9-13.3,3.3-20.7c0.5-2.5,1.5-5.4,3.3-7c7.8-7.2,15.9-14,24.4-21.5c17.8,7.1,35.4,14.2,53,21.1c4.7,1.8,7.6,5,9.2,9.8
		c1.1,3.5,3.2,6.7,4.1,10.2c3.1,11.7,12.5,18.7,20.6,26.2c3.6,3.3,9.7,3.9,14.7,5.5c10.1,3.1,9.1,3.1,10.3,13.6
		c1.1,9.4,0.3,19.2,5,28.1c1,1.9,0.7,4.5,0.8,6.8c0.3,9.5,1.4,10.9,10.8,14.1c3.1,1.1,6.5,1.6,9.5,3c15.4,6.7,16.9,9.9,15.8,23.8
		c-0.8,9.9-2.1,19.8-4.1,29.6c-2.9,14-6.5,27.8-9.9,41.6c-8.5,2.6-16.4,5-24.3,7.4c-7.6,2.3-15.2,4.6-23.4,7.1
		c-2-2.8-4.2-5.3-5.8-8.1c-4.7-8.4-12.2-14-19.5-19.7c-2.2-1.7-5.3-2.9-8.1-3.4c-8.8-1.8-17.8-2.5-26.4-4.8
		c-6.9-1.9-13.9-4.8-19.9-8.7c-12.5-8.2-24.4-17.3-36.6-26c-1.6-1.2-3.2-2.6-5.1-3.2c-8.1-2.4-13.6-2.4-16.3,6.8
		c-3,10.1-7.8,19.7-12,29.5c-0.9,2.1-2.4,3.8-3.5,5.4c-20.7-5.2-40.9-10.3-62-15.7c-4.7,14.7-15.4,21.8-29.6,25.9
		c-6.2-8.7-12.3-17.7-19-26.4c-2.7-3.5-6.3-6.9-10.2-9c-23.8-13.3-47.8-26.3-70.7-38.8c-16.2,5.8-31.4,11.4-46.7,16.7
		c-3.1,1.1-6.6,2-9.7,1.4c-14.5-2.7-28.6-1.7-41.8,5c-12.1,6.1-24,6-36.4,1.5c-6.2-2.3-12.8-3.7-19.2-5.5
		c-6.4-1.8-12.7-3.5-18.9-5.3c-0.8,0.7-1.8,1.1-1.8,1.6c-0.7,16.1-10.4,28.7-17.7,41.7c-6.5,11.6-17.7,19.8-29,26.9
		c-4.4,2.8-16.2,1.5-22.6-1.9c3.7-10.4,7.8-20.8,11.3-31.5c5.1-15.8,11-31.5,14.1-47.7c1.8-9.7-1.1-20.4-2-30.6
		c-0.1-1.3-1-2.6-0.9-3.9c1.2-11.3-5.8-13.8-15.1-16.2c-38.7-9.8-77.2-20.3-115.7-30.5c-2.2-0.6-4.3-1.4-6.6-2.1
		c-2.9-17.1,0.9-33.3,4.2-49.6c1.6-7.8,2.5-15.7,3-23.7c0.7-11.1-0.4-21.9-8.1-30.9c-7.8-9.2-5.5-19.6-1.6-29.1
		c2.7-6.6,8.1-12,12.7-17.7c1.1-1.3,3.6-2.2,5.3-2.1c23.5,1,47.2-2.3,70.4,4c1.3,0.3,2.7,0.4,3.9,1c13,6.9,27,11.1,41.3,14
		c6.6,1.3,11.2,5.5,15.4,10.3c3.9,4.4,8,8.7,12.6,13.6c3.6-3.1,6.5-5.5,9.7-8.3c-9-16.4-20.1-30.1-36.1-38.4
		c-13.7-7.1-16.2-19.3-17.9-32.2c-0.3-2.5,1.7-5.7,3.4-7.9c5.6-7,11.6-13.7,17.5-20.5c2.1-2.4,4.3-4.7,7.6-8.3c-3.8-0.5-6-0.5-8.1-1
		c-8.5-2-16.4-4.5-21.5-12.7c-13.4-21.5-34.3-35.1-54.5-49c-7.9-5.4-14.2-11.5-18.9-19.9C3097.8,1052,3093.1,1045.9,3088.1,1038.4z"
		/>
	<path onclick="modals(this.id);" id="2606" class="st0" d="M4055.7,765.5c-8.6-4.6-16.1-5.5-24.3-3.2c-3.8,1.1-8.5,0.1-12.6-0.7
		c-13.4-2.7-26.4-0.8-39.5,1.9c-11.9,2.4-21.8,8.4-29.4,17.6c-5.4,6.6-11.9,11.4-19,15.9c-4.7,3-8.3,3.6-13.6,0.8
		c-10.8-5.7-21.9-11.6-34.6-11.6c-14.3,0-27.9,2-37.6,14.2c-4,5-9,8.4-15,11c-8.8,3.8-17.1,8.9-25.8,13.1c-3.8,1.8-8.1,2.7-12,4.2
		c-5.2,2-8.8,0.3-12-4c-1.9-2.5-4.7-5.9-7.2-6.1c-6.5-0.5-13.1,0.4-19.6,1.3c-2.1,0.3-4.2,2.1-5.9,3.6c-7.9,6.5-16,9.3-26.6,5.4
		c-4.7-1.7-11.3,0.2-16.5,2c-6.9,2.3-9.9,9.3-8.4,17.2c1.2,6.5,3.3,12.9,4.6,19.4c0.9,4.5,1.2,9.1,1.9,14.6
		c-5.2,1.4-9.9,2.7-15.7,4.3c-2.2-7-5.3-13.4-6.1-20.1c-1.6-13.1-2.7-26.3-0.2-39.6c0.9-4.7,0.6-9.9-0.3-14.6c-1-5.2-0.8-9.7,2.5-14
		c1.8-2.4,3.1-5.1,4.9-7.6c2.3-3.2,3.3-6.5,1.7-10.3c-7.7-18.7-1-35.1,8.1-51.1c2.3-4,4.7-7.9,7.2-12.1c-1.8-2.4-3.3-4.4-4.8-6.4
		c-1.4,0-2.5-0.3-3.3,0c-10.2,4.1-20.3,8.3-30.4,12.4c-6.8,2.8-13.4,6.3-20.5,7.8c-10.2,2.2-17.9,6.8-22.1,17.1
		c-21.2-2.1-41.9-4.2-63.9-6.4c0.9-3.7,1.5-6.5,2.3-9.2c3.2-10.8,6.4-21.7,9.8-32.4c0.7-2.1,2-4,3.2-5.9c0.5-0.8,1.4-1.4,2.2-2
		c11.7-8.3,14.6-19.4,11.6-33.2c-1.3-6.1,0.5-12.8,1-21.3c-19.2-7.6-40.3-16-62.8-25c-1.8,2-4.8,4.6-6.7,7.8
		c-4.9,8.2-11.5,13.4-21.2,14.8c-5.5,0.8-10.9,2.4-16.9,3.7c2.6,11.3,5,22,7.8,32.5c0.6,2.3,2.6,4.6,4.5,6.1
		c5.7,4.6,11.8,8.6,17.6,13.2c1.6,1.3,3,3.5,3.2,5.4c0.1,1-2.5,2.8-4.2,3.3c-11.4,3.9-22.8,4.2-33.8-1.7c-1.8-0.9-3.7-1.7-5.4-2.7
		c-18.3-11.2-36.1-7.4-53.8,1.6c-4.1,2.1-8.1,4.9-12.5,6c-9.5,2.5-18.8,3.1-27.4-3.7c-8.6-6.8-17.7-13-26.7-19.3
		c-4.1-2.8-6.1-6.5-7.8-11.1c-3.1-8.4-6.8-16.5-10.4-24.7c-5.8-13.4-16.9-17.8-30.5-17.8c-5.7,0-11.3-0.7-17-0.5
		c-3.9,0.1-6.2-1.7-7.9-4.8c-4-6.9-8-13.8-11.9-20.8c-1-1.7-2-3.7-2-5.5c-0.3-10.9-0.2-21.8-0.5-32.7c-0.3-9.4-2.3-18.3-7.6-26.3
		c-5.5-8.3-11.2-16.6-15.7-25.5c-5.5-10.6-9.8-21.8-15.3-34.1c9-2,17.3-3.7,25.5-5.8c2.7-0.7,6.1-1.6,7.7-3.6
		c11.8-15.2,28.9-21.9,46.3-30.2c10,6.3,20.3,12.8,30.7,19.3c2.5,1.6,5,3.2,7.6,4.7c10.8,6.1,21.2,1.5,23.6-10.6
		c1.9-9.5,0-18.8-5.4-26.6c-7.7-11.2-16.3-21.8-24.8-32.4c-3.4-4.2-6-8.5-6.3-15c2.8,1.4,4.9,2.2,6.7,3.5c13.1,9.7,26.6,8.4,40.4,2
		c10.5-4.9,20.9-10.2,31.4-15.1c3-1.4,6.3-2.1,9.5-2.7c18.2-3.7,36.4-7.6,54.8-10.5c4.8-0.7,10.2,2,15.2,3.5
		c9.5,2.8,18.8,7.3,28.5,8.5c17.2,2.1,33.6-0.7,47.3-12.9c7.2-6.4,14.8-12.2,24.2-15.4c6.2-2.2,10.9-1.1,15.1,3.5
		c2.5,2.7,4.9,5.4,7.5,8c7.9,7.6,15.9,15.1,23.9,22.5c3.6,3.4,7.6,3.5,11.9,1c4-2.4,8.4-4.3,12-7.1c11.1-8.5,24.2-10.2,37.3-12.4
		c8.5-1.4,16.8-3.9,25-6.5c2.3-0.7,4.3-3.1,5.9-5.1c3-4,6-8,8.3-12.4c7.1-13.8,18-24.7,27.6-36.5c4.5-5.6,10.7-9.9,16.7-14.2
		c8.7-6.2,17.7-11.8,26.7-17.6c1.3-0.8,2.9-1.2,5.8-2.3c-4.2,12.8-7.6,24.4-12,35.7c-3.8,9.9-8.3,19.6-13,29.1
		c-6.5,12.9-10.6,26.5-12.7,40.8c-1.9,13.1,3.7,22.5,16.5,26.8c11,3.7,22.2,6.9,33.4,10.1c7.5,2.1,13.8,5.9,20,10.7
		c15.3,12,28.6,25.9,42.1,39.7c2.3,2.4,4.5,4.9,6.5,7.6c5.2,6.7,7.7,13.8,4.1,22.3c-1.3,3-2.1,6.3-3,9.5
		c-2.4,8.8,2.5,15.7,11.7,16.6c10.9,1.1,21.8,2.1,32.6,3.5c3.1,0.4,6.6,1.7,9,3.7c9,7.2,19.1,13.4,25,24c1.7,3,4,5.7,8,4.4
		c3.6-1.3,4.5-4.4,4.7-8c0.8-15.6,8.4-28.6,16.8-41c4.2-6.2,10.9-7.7,18.5-7.3c12,0.7,24.1,1.6,35.9,0.3c10.4-1.1,20.4,0.1,30.7,0.3
		c5.4,0.1,8.8,2.5,11.3,6.8c1.4,2.3,3.1,4.5,3.9,7c5.3,17.5,10.7,34.9,15.5,52.5c1,3.6-0.4,7.8-0.5,11.7
		c-0.6,23.9,3.5,46.6,13.9,68.7c6.7,14.2,13.3,28.1,23.4,40.3c1.5,1.8,2.1,4.7,2.3,7.2c0.7,8.2,0.9,16.5,1.7,24.8
		c0.9,8.9-0.6,11.7-8.9,15.2c-1.8,0.8-4,1.2-5.5,2.3c-8.7,6.6-18.8,7.8-29.2,8.3c-10.5,0.5-10.7,0.7-13.5,10.5
		c-1.6,5.7-6.1,7.5-10.9,8.7c-7.4,1.8-14.9,3.5-22.4,4.8C4061.4,756.1,4057.1,758.5,4055.7,765.5z"/>
	<path onclick="modals(this.id);" id="2604" class="st0" d="M2838.2,551.9c1.6-9.8,3.4-18.9,4.6-28c0.4-3.4,0.1-7.2-0.9-10.5c-1.3-4.1-3.6-7.9-5.7-11.6
		c-3.2-5.8-8-9.9-14.6-11.1c-14.5-2.7-29.1-3.2-43.7-1.8c-2.3,0.2-4.6,0.8-6.9,0.7c-19.9-1.3-39,2.9-58.1,7.6
		c-11.7,2.9-23.5,3.8-35.5,0.9c-2.3-0.6-5,0.4-7.5,0.8c-6.1,1.1-12.1,2.3-18.1,3.5c-6.8-17.6-11.8-34.6-23-48.7
		c-4.5-5.7-8.8-11.7-13.6-17.3c-3.2-3.8-3.7-7.2-1.5-11.8c3.1-6.3,5.7-12.8,8.1-19.3c2.4-6.5,7.1-9.3,13.7-9.7c0.3,0,0.7,0,1,0
		c12.4,0.5,24.7,0.5,34.8-7.8c7.7,5.1,13.5,10.3,17.8,17.3c2.6,4.2,5.2,9,9,11.8c4.3,3.2,10,6.2,15.1,6.3c9.6,0.2,18.5,2.3,27.1,5.8
		c6.6,2.6,12.9,3.2,19.3,0.2c16.3-7.6,32.1-7.7,48.5,0.6c9.7,4.9,19.7,3.5,28.9-3.8c8-6.4,16.9-11.8,25.4-17.7
		c3.9-2.7,7.9-3.1,12.8-3.2c13.4-0.3,24.4,5.4,36.1,10.2c25.2,10.3,50.6,20.2,75.8,30.5c5.2,2.1,10.1,5.2,15.3,7.3
		c3.3,1.3,7.3,2.9,10.3,2.1c8.4-2.2,13.4,2.1,17.7,7.9c8.2,10.8,8.7,11,18.7,1.4c3-2.9,5.7-6.5,7.5-10.2
		c7.9-16.1,15.4-32.5,23.3-48.6c1.2-2.5,3.5-4.8,5.8-6.5c6.1-4.5,12.6-8.7,19.7-13.5c3.9,3.6,7.7,7.1,11.4,10.8
		c8.1,8,16.6,15.3,26.7,20.7c5.4,2.9,10.6,4,16.2,2.6c9.6-2.4,19.2-5.2,28.7-7.8c2.8-0.8,5.6-1.8,9.1-2.9c4,16.7,7.9,32.7,11.8,49.3
		c-11.7,7.2-22.9,14.3-34.4,20.9c-4.9,2.8-8.1,6.4-10.4,11.5c-8.3,18.3-22.4,26-43,23.7c-7.2-0.8-14.5-1.8-22.7-2.9
		c-1.3-9.3-1-19.5-11.6-25.5c-5.3,4.8-11.2,9.5-16.4,14.9c-14.3,14.6-32.7,19.7-52,22.8c-1.3,0.2-2.7,0.2-4-0.1
		c-19.8-5.1-37.9,3.9-56.8,6.8c-11.8,9.2-26.9,11.2-39.6,18.1c-11.6,6.3-23.6,10.2-36.5,11.1
		C2867.4,560.5,2852.9,560.1,2838.2,551.9z"/>
	<path onclick="modals(this.id);" id="2609" class="st0" d="M4186.7,1171c-2.7-2.9-5-5.6-7.5-8.1c-4.4-4.5-9.6-7.7-16-6.2c-2.9,0.7-6.3,2.6-8,5
		c-11.2,15.3-22.5,30.6-32.7,46.6c-5.7,8.9-4.9,19.4,0.3,28.4c3.4,5.9,2.3,9.7-0.7,15.3c-7.2,12.9-16.5,23-30.3,28.9
		c-7.9,3.4-15.6,7.4-23.4,11.2c-5,2.5-10.2,5-14.9,7.9c-17.5,10.9-34.9,22-52.3,33.1c-2.5,1.6-4.9,3.4-7.2,5.4
		c-7,6.2-11.2,7.2-18.5,1.9c-18.2-13.3-37-25.9-48.9-46.2c-6.4-10.9-14.1-21-21.4-31.3c-2.4-3.4-3.9-6.7-3.8-11
		c0.4-10.2-2.9-19.3-7.7-28.4c-11.3-21.7-27.5-40-41.4-59.8c-1.8-2.6-4.3-4.8-6.7-7.4c9.7-12.8,27.5-18.8,30.2-37.8
		c-4.2-5.4-7.3-12.9-16.8-12.6c-1.2,0-2.4-1.1-3.5-1.8c-12.7-7.2-25.4-14.5-38-21.8c-8.5-4.9-15.2-11.8-20.6-19.9
		c-3.1-4.6-3.1-4.6,0.5-12.4c13.2,3.4,26.9,6,40,10.4c10.9,3.7,21.4,9,31.7,14.3c13.5,6.9,27.8,6,41.9,4.2
		c7.1-0.9,12.2-0.1,16.2,6.1c5.5,8.6,11.3,16.9,17.4,26.1c1-1.8,2.5-4.1,3.4-6.7c1.3-3.7,3.7-5.7,7.2-7.5c7.6-4,13.7-3,19.8,2.8
		c3.6,3.4,7.7,6.4,11.9,9.1c13.5,8.7,22,21.1,26.6,36.1c3.4,11.1,9.4,20.4,17.3,28.7c4.8,5,7.7,6,14,2.7
		c10.3-5.3,20.9-10.5,30.6-16.7c5.2-3.3,9.3-8.5,13.1-13.5c1.3-1.7,0.6-5.7-0.3-8.2c-3.4-9.4-1.8-11.3,8.5-10.4
		c5.9,0.5,12,0.8,17.9,0.3c7.7-0.7,14-3.7,19.7-10c4.9-5.4,12.8-8,19.3-11.8c0.3-0.2,0.6-0.2,1-0.3c6-1.8,12.6-6,18-4.7
		c7.1,1.6,13.3,7.3,19.6,11.6c1.6,1.1,2.8,3.7,3.2,5.7c2.1,11.5,3.5,23,2.2,34.7C4196.9,1160.5,4192.9,1165.6,4186.7,1171z"/>
	<path onclick="modals(this.id);" id="2601" class="st0" d="M3713.3,1179.1c-8.9-4.4-8.7-4.2-15.7,1.7c-7.2,6.1-13.4,14.4-25.3,13.9
		c-0.8-9.7-3.4-19.4-8.8-28.2c-1.2-2-2.1-4.3-3.7-5.8c-12.2-11.2-24.6-22.2-36.9-33.3c-1.5-1.3-3-2.6-4.5-3.9
		c-13.9-11.7-13.9-11.8-31.8-9.1c-5.6,0.8-11.1,2.6-16.7,2.7c-7.2,0.1-14.5-0.9-21.7-1.7c-1.1-0.1-2.5-1.2-3.1-2.2
		c-6.4-11.6-14.2-22.8-11.2-37.2c0.6-2.8,2-5.6,3.5-8.1c13.7-22.4,27.4-44.8,41.5-67c2.2-3.4,5.8-6.1,9.2-8.5c2.9-2.1,6.6-3.2,9.8-5
		c5.1-2.8,10.1-5.2,17.2-1.1c0.5-5.8,1-10.2,1.4-14.7c0.6-8.1,5.8-10.8,12.7-6.4c5,3.3,9.8,6.8,15.2,10.5
		c-5.6,14.7-15.6,28.4-10.2,46.4c4.1-0.8,7.5-1.6,11-2.2c12.4-1.9,24.9-3.6,37.3-5.7c6.1-1,12.4-2.1,18.2-4.4
		c7.2-2.8,13.7,0.9,20.5,1c15.8,0.3,29.2,7.6,42.9,14.3c11.9,5.8,24.2,11.1,36.2,16.7c4.2,1.9,8.2,4.2,11.8,7.8
		c-5.6-1.1-11.1-2.2-16.5-3.2c-6.4,10.7-6.1,10.6,0.1,19.7c7.6,11.1,17.9,18.5,29.7,24.4c7.1,3.5,13.8,7.8,20.8,11.6
		c5.4,3,10.1,7.1,16.7,8.3c3.7,0.7,6.7,5.7,9.7,8.5c-4.5,18.3-21.7,23.9-31.3,36.8c-6.8-1.3-13.2-2.6-19.7-3.7
		c-2.6-0.4-5.3-0.9-7.8-0.4c-11.4,2.7-22.2,1-33.1-2.5c-6.8-2.2-10.4-0.2-13,6.6c-0.2,0.6-0.5,1.3-0.6,1.9
		c-0.8,3.9-1.7,7.8-2.6,12.1c3.8,4.2,7.6,8.1,14.7,4.7c3,6.9,5.9,13.5,9,20.5c-2.4,1.1-4.1,2.3-5.9,2.6c-18.4,2.7-36.8,5.4-55.5,4.8
		c-11.7-0.4-13.6-1-24.4-7.6C3702.7,1187.4,3710,1184.6,3713.3,1179.1z"/>
	<path onclick="modals(this.id);" id="2605" class="st0" d="M3223.3,472.5c-11.2-11.7-13.3-26-16.8-39.8c-1.2-4.8-1.7-9.8-3-14.6c-4-15.1,2.5-27.4,9.5-39.7
		c2,0.4,3.1,0.4,3.8,0.9c4.3,2.8,8.2,6.2,12.8,8.4c4.4,2.1,9.5,2.6,13.9,4.6c3.2,1.4,5.6,1.1,8.4-0.4c9-4.9,18.4-9.1,27.1-14.5
		c6.5-4.1,13.2-5.9,20.7-5.6c4,0.1,8,0.8,11.9,0.5c8.3-0.5,12.4,3,16.3,10.8c5.5,10.7,13.9,20.1,21.4,29.7
		c5.8,7.4,10.7,15,13.1,24.3c2.4,9.1-0.1,16.1-6.8,23.2c-18.8-6.7-33.5-20.3-51.8-29.7c-10,5-21.1,9.5-31.1,15.9
		c-5.9,3.8-10,10.4-15.1,15.6c-1.8,1.8-3.8,3.8-6.1,4.4C3242.3,468.6,3232.9,470.4,3223.3,472.5z"/>
	<path onclick="modals(this.id);" id="2607" class="st0" d="M3556.5,738.5c-15.2-10.4-24.8-24-35.6-36.5c-0.6-0.7-1.6-1.9-1.4-2.5
		c2.1-7.7-3.7-10.9-8.6-13.8c-13.4-7.7-21.1-18.5-22.2-34.1c-0.2-3.2-1.3-6.3-2-9.5c8.9-2.6,17.9-3.6,24.9-7.8
		c6.8-4.1,11.4-11.6,16.8-17.4c19.4,7.7,38.7,15.4,57.1,22.8c-0.7,5.3-1.5,9.7-1.7,14.1c-0.2,3.6,0,7.3,0.6,10.9
		c1.8,10.8-1.2,19.7-10.5,25.9c-4,2.7-5.4,6.3-6.1,10.8C3565.8,714.2,3559.9,725.7,3556.5,738.5z"/>
	<path onclick="modals(this.id);" id="2614" class="st0" d="M3349.9,3061.7c-12,6.6-23.6,12.9-35.5,19.4c-6.7-7.6-13.5-14.1-23.2-15.2
		c-9.9-1.1-17.8,4.1-24.9,11c-8-5.6-15.5-11-23.1-16.2c-4.7-3.2-9.3-6.4-14.3-8.9c-13.7-7-25.2-0.7-27.1,14.6
		c-0.2,1.3-0.1,2.7-0.1,4c0,5.7,0.2,11.3-0.1,17c-0.3,5.3-1.1,10.5-1.8,15.8c-0.4,0.5-0.7,1.2-1.3,1.4c-20.3,7.6-24.7,26.2-28.1,44
		c-2.4,12.2-7.8,18.4-19.5,20.2c-1.3,0.2-2.5,0.8-4.4,1.4c-0.9-4.8-1.8-9.2-2.5-13.7c-1.6-10.5-8.7-18.5-18.9-20.4
		c-10.8-2-21.6-3.4-32.5,0.4c-3.1,1.1-7.2,0.2-10.5-0.7c-3.8-1-7.4-3-11.1-4.6c-7-2.9-13.5-2-19.9,2c-5.3,3.3-11.3,5.4-16.7,8.5
		c-14.8,8.8-22.4,16.4-17.3,33.3c3.8,12.8,1.1,18.8-12.9,23.1c-4.1,1.3-8.5,1.3-12.7,2c-8.5,1.4-17.1,2.4-25.4,4.5
		c-13,3.4-17.6,20-10.4,33.1c2.3,4.3,6.3,7.6,9.4,11.5c2.8,3.6,6.1,7,8.1,11c2.8,5.6,4.2,11.9,7.1,17.5c2.7,5.2,6.4,9.9,9.2,14.1
		c-5.1,0.8-10.8,0.9-15.9,2.5c-14,4.6-23.5,0.5-27.6-13.9c-2.1-7.6-6.7-11.7-13.4-14.8c-3.9-1.7-7.1-1.7-10.1,1
		c-7,6.1-13.9,12.2-21.4,18.9c-5.6-2.1-9.7-7.1-12.1-12.8c-4.6-11-8.8-22.3-8.6-34.6c0-1.7,0.1-3.3,0-5c-0.3-3.9,0.2-9.1-4.5-10.1
		c-3-0.7-7.1,1.1-10,2.9c-4.9,3.1-8.5,7.5-8.2,13.9c0.1,1.6,0,3.4-0.4,5c-0.6,2.6-1.3,5.3-5,5c-3.4-0.3-4.7-2.3-4.6-5.3
		c0.5-27.4-12.3-50.7-23-74.5c-5.3-11.8-12.3-22.8-18.1-34.3c-1.7-3.3-2.7-7.5-2.5-11.2c0.3-7.6,0.8-15.4,2.6-22.7
		c2.7-11,2-21.6-0.9-32.3c-5.2-18.6-10.1-37.2-15.9-55.6c-1.8-5.9-5.8-11.1-8.8-16.6c-2.1-3.9-5.3-5.4-9.8-5.4
		c-3.5,0-6.9-0.6-9.7-3.9c-1.3-1.6-5.2-1.2-8.7-1.8c-7.1-8.9-7.8-19.3-1.3-29.2c0.5-0.8,1-1.7,1.7-2.4c6-6.1,6.7-13.2,4-21
		c-0.5-1.5-0.7-3.2-1.3-5.6c8.9-0.9,17.5-2.6,26-2.2c6,0.3,12,3.2,17.8,5.3c2.4,0.9,4.5,2.8,6.7,4.3c10,7,20,8.2,29,0.7
		c17.7,4.7,34.4,9.1,50.6,13.3c7.1-3.7,11.1-9.1,14-15.7c7.7-17.5,18-33.3,29.4-48.6c1.5-2.1,3.4-4,5.5-5.6
		c14.3-11.3,31.2-15.8,48.9-17.8c4.7-0.5,9.1,0.7,12.8,4.3c4.6,4.3,9.7,8.1,14.3,12.4c3.9,3.6,7.8,4.4,12.7,2
		c3.6-1.7,7.5-2.7,10.9-3.9c8.5,4.4,16.4,9.3,24.9,12.7c16,6.3,32.5,5.6,48.9,1.6c2.9-0.7,5.8-1.4,8.7-2.3c12.9-4.3,25-1.1,36.4,4.8
		c8.8,4.6,17.5,9.6,25.7,15.3c5.1,3.5,9.1,8.6,13.5,13c2.7,2.7,5.4,5.5,9.2,9.4c4.4-9.6,8.1-17.6,11.7-25.7
		c1.9-4.2,4.4-8.4,5.4-12.8c3.3-14.8,15.9-17.8,27.6-23.7c8.6,16.3,19.3,30.4,24.3,47.5c2,6.9,5.9,11.6,11.9,15.2
		c13.4,8,26,18,40.2,24c11.2,4.7,17.8,12.9,25.8,20.7c6.3,6.1,7,13.1,6.3,21c-1.4,15.2-2.6,30.4-3.9,45.6
		C3351.2,3048.9,3350.6,3054.8,3349.9,3061.7z M3018.7,3330.7c2.4-2.4,4-5,5.8-7.2c1.9-2.3,4.1-4.3,6-6.6c4.9-5.9,4.4-11.7-1.8-18.8
		c-5.2,2.1-10.7,4.4-16.4,6.7C3016.9,3313,3021.5,3320.8,3018.7,3330.7z M3017.2,3347.4c0.2-4.1,0.4-7.5,0.6-12.4
		C3010.7,3342.6,3010.7,3342.6,3017.2,3347.4z"/>
</g>
</svg>
