<?xml version="1.0" encoding="utf-8"?>
<!-- Generator: Adobe Illustrator 19.0.0, SVG Export Plug-In . SVG Version: 6.00 Build 0)  -->
<svg version="1.1" id="Layer1" xmlns="http://www.w3.org/2000/svg" xmlns:xlink="http://www.w3.org/1999/xlink" x="0px" y="0px"
	 viewBox="0 0 11500 5700" style="enable-background:new 0 0 11500 5700;overflow: hidden; display: inline; width: inherit; min-width: inherit; max-width: inherit; height: inherit; min-height: inherit; max-height: inherit;" xml:space="preserve">
<style type="text/css">
	.st0{fill:#8FD4EB;stroke:#000000;stroke-width:2;}
</style>
<g>
	
	<path onclick="modals(this.id);" id="2647" class="st0" d="M4239.5,5030.3c-9.1-0.9-15.7-5-21.2-11.1c-6.9-7.5-15.5-9.2-25.5-8.3
		c-13.9,1.2-26.1,4.8-33.8,17.6c-1.3,2.2-3.4,4.1-5.4,6.4c-8.7,1.7-17.1-0.5-25.3-2.7c-14.9-3.9-29.9-6.8-45.3-6.7
		c-10.5,0.1-19.3-4.4-28.3-8.8c-6-2.9-11.7-6.8-17.9-8.6c-6.2-1.8-13-1.7-19.2-2.5c-0.5-1.8-1.6-3.3-1.2-4
		c6.5-10.8,4.4-21.7,0.8-32.7c-6.2-18.6-16.8-32.6-36.9-38.5c-19.8-5.8-39.1-13-59.4-19.8c-1.2-2.9-2.4-5.9-3.6-8.9
		c-3.1-7.7-8.5-12.2-16.9-10.8c-7.2,1.2-13-1.1-18.6-5c-12-8.4-24.2-16.4-36-25c-5.5-4-10.8-7.3-17.6-8.7
		c-5.7-1.2-11.1-4.3-16.2-7.4c-21.7-13-43.2-26.4-64.8-39.6c-4.5-2.8-9.2-5.3-13.8-8.1c-6.6-4-12.9-3-18.4,1.9
		c-5,4.4-9.8,9-14.2,14.1c-24.3,28.2-48.5,56.5-72.7,84.8c-9.9,11.6-20.4,22.9-29.3,35.3c-7.4,10.4-16.5,16.5-28.6,20
		c-42.2,12.3-84.1,25.3-126.2,38c-7.6,2.3-15.2,4.7-24.1,7.4c-13.8-6.3-27.3-14.2-38.8-25.7c-5-5-7.7-10.5-8.3-17.5
		c-1-10.6-2.8-21.1-3.4-31.7c-0.3-5.8,0.8-11.8,2.2-17.5c3.9-16.1,9.5-31.9,8.4-49c-1.1-16.6-1.2-33.2-2.6-49.8
		c-0.7-9.2-2.5-18.5-4.7-27.4c-2.8-11-6.2-21.3-1.2-32.9c2.1-5,0.5-11.8-0.3-17.7c-1.4-10.5-3.3-21-5.2-31.5
		c-1.7-9.4-1.9-18.5,2.9-27.2c3.8-7,3.5-13.9,0-21c-9.3-19.1-18.1-38.6-27.9-57.4c-6.7-12.9-17.8-22-31.9-25.5
		c-21.2-5.2-42-13-64.6-11.1c-5.9,0.5-12.2,0-17.8-1.7c-19.8-6-39.5-4.5-59.2-0.4c-13,2.7-26.1,5.2-39.2,7.6
		c-3.9,0.7-7.8,0.8-11,1.2c-12.1-11.6-23.7-22.4-34.8-33.7c-8-8.1-16.1-10.5-26.9-5.1c-17.3,8.6-35,16.2-52.5,24.3
		c-38,17.6-76,35.4-114.1,52.9c-5.4,2.5-11.1,4.5-16.9,5.8c-49.4,10.5-98.9,20.9-148.4,31.2c-3.9,0.8-7.9,1.1-13.4,1.8
		c-20.7-17.9-37.8-39.6-52.4-64.4c11.7-18.8,2.5-36.4-4.4-53.2c-4.6-11.2-6-21.2-3.7-32.7c6.9-35.2,13.3-70.6,19.9-105.9
		c1.6-8.5,3.2-16.9,5.1-26.9c3.4-1.3,7.4-4,11.6-4.4c32.3-3.6,64.7-6.7,97.1-10.1c8.6-0.9,17.2-1.6,25.7-3
		c10.3-1.6,14.8-8.2,13.2-18.4c-0.6-3.9-2.2-7.7-2.9-11.6c-2.5-14,1.3-25.9,10.4-37.1c11-13.5,25.1-23.5,37.7-35.2
		c7.8-7.2,16.6-13.2,25-19.7c7.9-6.1,12.5-13.7,11.9-24c-1-17.1,4.8-30.7,18.4-41.8c6.5-5.3,11-13.3,16.1-20.2
		c4.3-5.9,8.3-12.1,12.5-18.1c8.2-11.8,19.7-17.3,33.8-17.8c4-0.1,8-0.5,11.9-0.7c17.3-0.8,30.4-8.3,38.8-23.8
		c4.5-8.4,10.7-15.1,20.8-17.3c16.7-3.6,27.7-15.5,37.9-27.8c6.2-7.5,12.7-13,22.1-15.9c20.8-6.3,29.9-22.7,34.1-42.6
		c1.3-6.5,2.8-12.9,3.8-19.5c0.8-5.4,2.1-9.9,6.4-14c3.6-3.5,4.9-9.3,7.7-13.8c4.7-7.3,6.3-14.5,1.8-22.5c-1.3-2.2-2.7-5.2-2.2-7.5
		c3.4-15.5,1.4-32,8.7-46.8c9-18,13.1-37.8,18.1-57c4.1-15.5,2.4-31.8-4-46.9c-2.8-6.7-3.2-12.7-0.2-19.2c1.1-2.4,1.6-5.1,2.3-7.6
		c5-16.1,13.9-27.1,32.5-26.7c3.9,0.1,7.8-1.9,11.7-2.1c19.5-0.8,30.7-14.2,41.4-27.8c6.8-8.6,8.8-19.7,7.9-30.2
		c-0.6-6.7-1.1-12.9,0.2-19.6c1-5.1,0.7-10.7,0.3-15.9c-0.8-9.4-9-15.4-18.2-13.6c-3.3,0.6-6.4,1.7-9.6,2.8
		c-11.5,4.1-23.1,5.5-35.8,2.8c-1.9-16.3-10.3-29.5-20-42.4c-6.8-8.9-12.6-18.7-17.8-28.7c-2.6-5.1-3-11.5-3.9-17.4
		c-0.4-2.6,1-5.5,0.3-7.9c-4.6-15.6,2.3-28,9.8-40.9c17.4-29.8,17.1-30,45.5-51.5c16.4-12.5,32.6-25.4,49.2-37.6
		c7.8-5.7,13.5-12.7,18.2-20.9c36-62.2,72-124.5,107.9-186.7c2-3.4,4.4-7.1,4.8-10.9c1.3-11.6,8.8-18.7,16.2-26.5
		c10.5-11.1,19.9-23.2,30.4-34.4c6.8-7.2,13.9-14.3,22-20c7.3-5.1,13.5-10.8,18.2-18.2c10.2-15.9,25.4-24.9,42.4-31.7
		c4.3-1.7,9.1-2.5,13-5c16.6-10.6,35.1-15.6,54.3-18.9c11.8-2,23.5-4.4,35.2-6.9c3.9-0.8,8-1.9,11.2-4c15.2-9.9,32.6-11.3,49.7-12
		c19.4-0.8,38.4-3.6,57.3-7.6c11.1-2.3,22-3.6,33.4,0.3c10.4,3.6,21,1.2,30.3-5.4c24-16.8,48.1-33.5,72.1-50.3
		c9.7-6.8,15.8-15.7,17.5-27.8c1-7,1.9-14.6,8-20c1.4-1.2,2.5-3.3,2.9-5.2c3.5-16.9,6.8-33.8,10.4-51.7c1.3,0.7,3.8,1.4,5.2,3
		c38.2,44.4,76.3,88.8,114.4,133.3c55.3,64.7,110.5,129.5,165.8,194.3c1.7,2,3,4.5,4.9,6.3c7.3,7.1,15.3,7.3,22.7-0.2
		c7-7.1,13.6-14.6,20-22.2c35.2-41.6,70.3-83.4,105.5-125c24.9-29.5,49.8-58.9,74.8-88.3c3-3.5,6.8-6.3,10.1-9.4
		c16.3,0.4,32-1.2,48,2.7c9.9,2.4,21.2,0.4,31.6-1.2c14.8-2.3,14.4-14,10.6-22.5c-2.1-4.7-5.9-8.7-10.6-15.3
		c6.7,1.1,11,1.5,15.1,2.6c29.9,8.2,29.9,8.2,56.7-5.2c20.3-10.1,40.6-20.1,60.8-30.4c10.3-5.2,20.9-8.1,33.6-7.4
		c2.9,7.2,4.3,14.8,4.5,22.8c0.1,4.6,0.7,9.4,2,13.8c2.7,9.1,10.2,12.6,18.7,9c3-1.3,5.9-3,8.8-4.8c23.2-14.4,46.4-28.8,69.4-43.4
		c15.1-9.6,23.7-25,33.1-39.3c2.6-4,2.2-10.2,2.4-15.5c0.4-11.9,0.4-23.8,0.6-35.8c16.1-7.8,32.7-9.8,48.6-14.2
		c14.8-4.1,30-5.5,45.4-5.2c11.9,0.2,23.9-1.3,35.8-2.5c6.9-0.7,10.8-4.5,11.5-11.6c0.8-7.3,0.4-14.6,0.8-21.9
		c0.9-16.5,2-32.9,3.1-50.1c5.1-0.7,8.9-1.8,12.8-1.8c38-0.1,76,0.3,114-0.3c9.3-0.1,15.1,3.9,20.3,10.3
		c19.3,23.7,38.6,47.5,57.7,71c-0.7,4.8-4.2,4.9-7.5,4.9c-10,0.1-20-0.2-30,0.2c-15.4,0.6-19.9,6.2-23.2,21.7
		c-4.1,19-3.2,38.4-5.4,57.5c-1.6,13.4-4.4,25.9-11.1,37.9c-8.5,15.2-14.1,31.7-12.2,49.7c1.1,10.3-2.4,19.8-5.1,29.3
		c-2.3,8.2-2.2,15.5,3.3,22c10.5,0.8,14.1-7.8,21-13.2c4.9,6.9,10.8,12.2,20.4,12.5c8.5,0.3,14.4,9.3,24.1,8.1
		c8.5-1,17.2-0.2,25.9-0.2c2.3,4,4.2,7.4,5.5,9.7c5.5,5.5,10.7-3.9,16.2,2.5c-3.3,3.5-6.8,7.1-10.9,11.6
		c6.7,12.6,10.1,26.9,21.6,37.2c5.5-2.2,10.4-4.2,16.6-6.7c5.2,3.5,11.1,7.5,17.7,11.9c5.6,2,9-7.1,15.8-4.1
		c9.1,4,20.4,0.3,28.6,7.2c7.6,6.4,15,13.1,21.9,20.3c1.9,2,1.9,6.2,2.3,9.4c0.7,6.3,4.1,8.9,10.3,10c14.3,2.3,17,5.2,19,17.9
		c1.9,12.1,1.9,12.1,14.8,13.7c1.3,0.2,2.6,0.5,5.1,1c1.2,16.3,14.5,27.1,21.7,42.2c-2.1,3.1-4.8,5.9-6.2,9.4
		c-2.6,6.4,2.1,12.8,8.7,12c9.8-1.2,19.7-2.6,29.4-4.4c3.2-0.6,6.5-2,9-4c7.5-6,15.9-9.5,25.2-11.3c2.6-0.5,5.5-1.2,7.4-2.8
		c10.8-8.8,24-10.5,36.9-13.8c11.4-2.9,22.1-8.5,33-13c11.1-4.6,17.3-2.4,22.1,8.2c1.1,2.4,2.9,4.8,3.2,7.3
		c1.9,18,14.8,27.4,27.9,36.9c4.8,3.5,9.8,6.9,14.3,10.8c1.7,1.5,2.2,4.4,4.1,8.3c-15.7,2.4-29.9,4.6-45,7
		c-8.2,8.7-17.3,17.4-25.3,27.2c-4.5,5.5-6.3,13.3-10.8,18.7c-4.6,5.5-11.2,9.2-16.7,14c-11.4,9.9-16.6,23.9-24.1,36.4
		c-1.3,2.2-1.7,5.1-1.8,7.7c-0.5,18-0.5,35.9,9.8,52c6.3,9.8,8.4,20.5,8.9,32.2c0.4,11.1,3.6,22.2,5.8,33.3
		c1.6,8.2,1.5,15.7-4.4,22.5c-3.9,4.5-6.6,10.1-10.4,14.6c-8.3,10-18,17.5-32,18c-5.8,0.2-11.5,2.5-17.8,4.1
		c-2.2,7.7-4.7,14.5-6,21.6c-2.9,15.7-5.2,31.5-7.8,47.2c-3,17.7-4.6,35.5-5.5,53.5c-0.8,15.6,0.6,31.4-2.9,47.1
		c-2.4,10.7-1.9,22.4,1.6,33.6c2.4,7.6,3.3,15.6,5.3,23.3c4.9,19.4,9,22.7,28.6,23.7c2.6,0.1,5.3,0.4,7.9,0.6
		c8.8,6.1,11.5,16.3,17.2,24.4c9.3,13,17.7,26.5,26.7,39.7c1.4,2.1,3.4,4.3,5.7,5.4c12.5,6,16.8,17.8,21.4,29.5
		c0.2,0.4-0.5,1.2-1.2,2.8c-16.5,1.7-33.5,3.2-50.5,5.3c-31.6,3.9-63.5,5.7-95,11.2c-13.1,2.3-26.5,2.7-39.8,3.7
		c-45.2,3.2-90.4,6.3-135.6,9.5c-16.6,1.2-33.2,2.4-49.8,3.7c-2.6,0.2-6.1,0.3-7.5,2c-7.4,8.7-16.6,6.7-25.8,5.1
		c-13.4-2.3-26.5,0.9-39.7,2.2c-17.9,1.7-35.7,4.4-53.6,6.6c-3.3,0.4-6.7,0.3-9.9,1.2c-29.8,7.6-60.7,6.1-90.9,10.4
		c-2.6,0.4-5.3-0.2-9.1-0.4c-2.8-4.6-5.7-9.6-8.1-13.6c-7.8-3.9-14.6-2.1-20.9-1c-25.5,4.5-51.7,5.1-76.8,12.4
		c-5.6,1.6-11.9,1.3-17.9,1.2c-31.3-0.3-62.6-0.8-93.9-1.2c-36.6-0.4-73.3-0.6-109.9-0.9c-52.6-0.4-105.3-0.8-157.9-1.1
		c-34-0.2-67.9-0.4-101.9-0.4c-42.6-0.1-85.2,0.2-127.9-0.1c-19.3-0.1-38.6-1.4-57.8-1.6c-12.6-0.1-25.5,2.7-37.8,1.1
		c-15.3-2-30.6-1.5-45.8-1.7c-19.3-0.3-38.9-2.4-57.9-0.3c-27.3,3-54.5,1.5-81.7,3.1c-1.3,0.1-2.5,0.9-5,1.8c0.9,2.8,1,6.4,2.9,8.3
		c14.2,14,28.6,27.8,43.2,41.4c15.1,14.1,30.7,27.6,45.7,41.7c31,29.3,61.6,58.9,92.6,88.2c29.5,27.8,59.5,55.3,89.1,83
		c17,15.9,33.6,32.3,50.6,48.2c29.6,27.8,59.4,55.4,89.1,83c12.2,11.3,24.4,22.7,36.4,34.1c17.8,17,35.4,34.3,53.3,51.2
		c29.6,27.8,59.4,55.3,89.1,83c12.7,11.8,25.2,23.7,37.8,35.6c27.6,26.1,54.9,52.4,82.6,78.3c26.7,25,53.8,49.6,80.6,74.5
		c16.1,15,31.7,30.4,47.8,45.4c30.6,28.7,61.3,57.2,91.9,85.9c9.2,8.6,18.1,17.4,26.9,26c-0.1,1,0.1,1.8-0.2,2.3
		c-0.3,0.5-1,0.9-1.6,1c-8.5,1.2-17,2.8-25.6,3.4c-30.5,2.2-61,3.7-91.5,6.1c-40.4,3.2-80.7,7.2-121.1,10.4
		c-23.8,1.9-47.8,2.7-71.6,4.4c-28.5,2-56.9,4.5-85.4,6.7c-6.4,0.5-11.1,3.2-15.3,8.1c-31.3,36.2-62.7,72.4-94.3,108.3
		c-27.2,31-54.8,61.6-82.1,92.5c-4.2,4.7-8.7,7.7-15.3,8c-7.4,0.3-14.4,2.7-19.7,8.5c-3.3,3.6-7.4,5.9-12.3,5.5
		c-8.1-0.6-14,3.1-19.1,8.9C4243.5,5027.7,4241.1,5029.1,4239.5,5030.3z"/>
	<path onclick="modals(this.id);" id="2635" class="st0" d="M6527,944.2c10.9-8,21.8-13.2,32.8-17.6c13.5-5.4,23.3-14.7,32.2-25.4c2-2.4,3.9-5.9,3.7-8.8
		c-0.9-11.1,6.6-17.2,13.5-23c7.6-6.4,16.5-11.3,20-21.5c0.4-1.1,1.6-2.4,2.7-2.8c12.5-4.9,19.5-18,32.8-21.9c3.7-1.1,7-3.9,10-6.3
		c12.5-10.1,13-11.5,12.6-29.7c8.6,0,17.3,0.3,25.9-0.1c10-0.5,16.7-9,12.7-17.8c-7.3-15.9-9.5-33.2-15.2-49.5
		c-2-5.6-3.2-11.4-5-17.8c8-14.7,20.5-25.6,32.7-38.3c6.3,7.3,12.2,13.6,17.4,20.4c5.4,7.2,12.2,11.9,20.5,15.2
		c24.1,9.5,47.3,21.1,70.1,33.4c4.1,2.2,8.8,4.1,11.8,7.3c9.1,9.7,21.3,13.1,32.9,18c9.1,3.9,18.2,8,26.5,13.4
		c7.8,5,15.2,7.6,24.3,5.3c4.4-1.1,9.3-1.7,13.7-0.9c8.9,1.6,17.2,0.1,24.9-3.3c1.7,0.4,3.2,0.4,4.2,1.1
		c13.6,10.7,28.5,16.6,46.2,13.7c1.9-0.3,4.1-0.2,6,0.4c19.8,5.7,39.7,11.3,59.3,17.6c5.6,1.8,10.4,5.8,15.5,8.9
		c14.2,8.6,28.3,17.4,42.6,25.9c3.4,2,7,4.4,10.8,5.1c7.7,1.4,13.1,5.5,18.4,10.8c15.2,15.3,32.8,22.4,54.4,15.1
		c6.8-2.3,13.2-1.1,19.4,1.9c4.8,2.3,9.1,5.5,13.8,7.9c4.7,2.4,9.5,5,14.5,6.3c6.3,1.6,13.4,0.9,19.4,3.2c5.4,2,9.8,6.6,15.9,11
		c1.5,14.1,10.5,25.7,20.4,36.4c9.1,9.9,16.7,20.4,22.4,32.7c4.1,8.8,11.6,16.1,17.7,23.8c2.5,3.1,5.3,5.9,8.2,8.6
		c7.1,6.6,9.2,14.3,5.8,23.5c-6.8,18.6,2.4,26.9,14.6,34.8c11.9,7.7,24.5,10.2,38.1,4.8c3.1,2.3,6.1,3.9,8.3,6.2
		c15.8,16.6,35.4,22.8,57.7,22.3c14-0.3,28-0.1,42,0c4.6,0,9.3,0.4,13.9,1c1.9,0.2,3.6,1.5,6.5,2.8c0.7,3.3,1.9,7,2.3,10.8
		c1.8,13.5,10.7,19.8,22.9,21.2c9.1,1.1,18.6,0.7,27.8-0.4c58.7-6.7,117.5-13.3,176.1-21c46.1-6.1,92-13.9,138-20.9
		c5.3-0.8,10.6-1.8,15.9-1.7c10.8,0.2,19.4-3.8,26.5-11.6c18.4-20.1,37.5-39.6,51.5-63.3c2-3.3,4.3-7.3,7.5-9
		c15.4-7.7,25.5-21.1,37.5-33.6c7.8-1.7,16.3-3.4,24.7-5.3c3.8-0.9,7.8-1.5,11.4-3.2c15-6.9,30.1-9.5,46-3c3,1.2,6.5,1.7,9.7,1.8
		c6.1,0.1,11.7,1.1,17.2,4.1c3.3,1.8,8,3.5,11.3,2.5c11.5-3.6,20.5,1.9,30.2,6.2c6.6,2.9,13.8,4.8,20.9,6.3
		c15.6,3.2,31.4,5.5,47.1,8.7c5.8,1.2,11.3,3.7,17,5.7c5.6,2,11.1,4.5,16.9,6c8.4,2.2,16.9,3.2,24.7-2.6c2.6-2,5.7-3.8,8.8-4.6
		c3.7-1,7.9-1.7,11.5-0.8c10.2,2.5,20.3,6,33.1,9.9c5,7.1,11.6,16.2,18.1,25.4c3.4,4.9,6.4,10.1,10.1,14.8
		c4.2,5.3,7.9,10.5,8.2,17.7c0.3,8,5.8,11.8,13.2,12.4c10.7,0.9,18.7,6.6,26.1,13.4c9.2,8.5,19.5,16.2,24.7,28.3
		c23.5,23.2,34.8,55,56.2,79.7c10.9,12.6,20.4,26.1,28.1,40.9c7.2,13.9,20.3,22.8,29.4,35.1c1.1,1.5,3.1,2.7,4.9,3.3
		c11.6,3.8,18.5,12.6,24.7,22.3c6,9.3,15.8,16,20.2,28.5c-4.6,0.4-8.3,1.1-12,1.1c-38,0.1-76,0-114,0.1c-4.7,0-9.3-0.2-14,0.1
		c-12,0.8-15.5,5.7-14.6,18.2c0.5,7.2,1,14.8-0.6,21.7c-4,17.7-3.5,34.3,7.6,49.6c0.7,0.9,0.5,2.5,1,5.3
		c-84.2,51.1-168.9,102.5-254,154c-21.2-6.7-41.7-13.2-58.9-28.4c-8.7-7.7-20.5-12.2-31.5-16.7c-7.4-3-15.8-2.3-23.5,0.9
		c-2.5,1-4.9,2.1-7.1,3.6c-20.3,13.2-43.2,20.4-65.8,28.5c-15,5.4-29.8,11.5-44.7,17.2c-8.1,3.1-16.1,6.9-24.5,8.4
		c-16.2,3-32.3,6.7-49,1.1c-12-4-24.9-3.3-37.5-4.7c-31-3.3-60.7,2-90.5,9.4c-13,3.3-17.8,2.5-37.6-4.2c-14.5,7-29.6,13.9-44.4,21.4
		c-8.6,4.4-16.9,6.4-26.8,3.8c-10.1-2.7-21.3,0-31.3-5c-3.5-1.8-7.7-2.6-10.8-4.8c-11.3-8-22.2-16.4-33.4-24.7
		c-11-8.1-17.5-19.8-25-30.8c-1.8-2.6-4.8-4.3-7.1-6.3c-9.4,3.5-15.3,9.8-18.7,18c-4.4,10.7-11.3,17.8-23,19.7
		c-5.7,1-9.3,4.8-12,9.7c-5.6,10.4-13.4,17.8-25.6,20.1c-3.7,0.7-7.2,3.4-10.4,5.8c-10.8,8-22.1,14.7-35.3,18.2
		c-9.4,2.5-16.5,8-19.6,18.1c-2.2,7.2-6.3,13-14.4,15.3c-6.8,2-10.6,6.7-13,13.7c-2.5,7.4-7.1,14.2-11.3,21
		c-3.4,5.5-8.5,7.8-15.3,6.6c-15.1-2.6-30.3-3.8-45.7-3.4c-6.6,0.1-11.6,2.3-16.4,7.5c-18.8-20.7-37.5-41.3-56.4-61.8
		c-5.4-5.9-11.4-11.2-16.8-17.1c-5.8-6.3-11.7-10.4-21-6.7c-2.8,1.1-8-0.8-10.7-3c-5.6-4.6-10.4-10.2-15.5-15.5
		c-5.9-6.2-11.8-12.4-18.1-19c-12.6,5.5-24.2,10.2-35.5,15.7c-27,12.9-54,26.1-80.8,39.3c-7.7,3.8-16.8,6.7-20.3,15.2
		c-5,12.2-11.9,24.8-8.3,38.4c3.6,13.4,1.9,24.8-6,35.8c-1.5,2.1-2.1,4.8-3.5,8.3c-46.4,9.4-93.2,19.2-140.2,28.3
		c-46.9,9.1-93.6,19.2-140.9,27.6c-2.5-6.5-4.4-11.4-6.4-16.8c-3.6-2.1-7.6-4.5-11.6-6.8c-6.4-3.8-12.2-8.2-14.8-15.6
		c-0.4-1.2-1.2-2.4-1.9-3.5c-14.8-21.2-30.6-41.8-42.1-65.2c-2.5-5.2-7.3-9.3-10.9-13.8c-0.9-8.7,0.2-18.1-3.2-25.5
		c-3.9-8.7-5-17.7-7.8-26.4c-2.6-8-7.8-15.3-12-23.3c-15.2-2.6-27.5,1.4-35.3,15c-4.8,0.2-8.8,0.7-12.8,0.5
		c-10.6-0.6-21-0.8-31.5,2.5c-8.9,2.8-18.1,1.6-27.5-1c-22.4-6.4-45.1-11.6-67.7-17.3c-3.2-0.8-6.5-1.5-9.8-1.9
		c-7-0.8-13.4,2.6-12.9,9.1c0.9,13.4-7.1,20.2-16.1,27.6c-17.7,14.5-31.5,32.3-41,53c-9.1,3.6-17.4,8.2-27.3,5.4
		c-1.7-0.5-4,0.1-5.7,0.8c-10.6,4.9-22.1,3.3-33.2,4.3c-11.8,1.1-23.7,1.9-36.6,3c-14.3-9.2-19.4-9.3-34.9,0.2
		c-8.5,5.2-16.7,11-25.6,15.5c-8.3,4.2-17,7.5-25.9,10.2c-10.8,3.2-17.3,8.9-18.1,20.8c-0.4,7.2-2.1,14.4-3.2,21.2
		c-1.7,0.9-2.9,1.9-4.1,2c-18,1.7-18,1.7-27.3,18.6c-8.8,1.3-15.1-1.1-20.1-10.3c-5.9-11-21.5-12.8-30.9-4.9c-3,2.6-5.6,5.7-8.6,8.3
		c-10.5,9.5-11.9,9.6-26.6,2c-5.4,1.2-11.2,2.2-16.9,3.9c-8.8,2.7-16.7,3.7-23.8-4.3c-4.8-5.5-12.7-3.1-18.6-5.7
		c-5.8-2.6-8-10.1-15.2-12.3c-16-4.8-31.6-10.5-48.7-9.6c-4.7,0.2-9.5,0.7-14-0.1c-18.2-3.3-34.1,3.4-49.2,11.9
		c-7.7,4.4-15.4,7.5-22.9,7.6c-7.5,9.1-14.2,17.1-20.7,25.3c-6.5,8.3-12.7,16.9-19,25.2c-12.4-5.4-11.9-5.4-11.7-15
		c0.4-14.6,0.1-29.2,0.1-45.1c-11.1-6.9-25.2-7.8-38.5-11.3c-1.1-0.3-3.3,0-3.8,0.7c-4.7,8-16.4,4.9-20.8,13.7
		c-2.7,5.5-8.4,6-13.9,5.6c-4.6-0.3-9.3-1.1-13.9-1.3c-10.7-0.5-21-0.4-30.6,6.3c-7,5-15,6.4-24.5,4.4c-9.3-2-19.6,0.4-29.7,0.9
		c-5.8-16.6-7.1-54.1-2.1-76.5c24.5-0.6,48.6-12,75.4-3.6c1.9,5.8,3.9,12,6.2,18.1c1.9,5,6.8,6.9,11.4,4.4c4.1-2.1,7.8-5.1,11.9-7.2
		c7.6-3.9,14.8-9.3,24.3-5.1c1.5,0.7,4.6,0.2,5.6-1c4-4.7,8.2-8.1,14.8-7.8c1.1,0,2.8-1.1,3.2-2.1c2.9-8.1,10.1-12.2,15.9-17.5
		c5.9-5.3,12.2-10.2,18.3-15.2c8.3-0.7,16,0.2,22.8,5.4c10,7.5,20.4,6.4,32.1,3.3c15-4,28.3-11.7,42.1-18c5.8-2.7,10-8.5,15.4-13.3
		c-1.6-16.5,3-32.7-0.5-49.4c-2-9.5-1.8-20.2,7.4-27.8c6.4-2,12.8-0.6,19.4,0.8c16.1,3.3,31.8,1.6,46.6-6
		c17.2-8.8,36.1-13.9,51.9-25.5c4.7-3.5,9.9-3.7,15.2-2.2c6.4,1.8,12.8,3.7,19,6c8.1,3.1,15.4,3.1,22.4-2.7c2.5-2,5.9-2.9,8.7-4.2
		c13.2,6.4,27.3,5.9,40.9,7.9c3.3,0.5,7-0.6,9.9,0.6c14.7,6.1,27.1,1.6,38.9-7.2c2-1.5,5.1-3.1,7.2-2.5c8.4,2.3,15.7-1.9,23.5-3.2
		c9.9-1.6,19.9-5.7,27.2,4.5c4.5-1.7,7.6-3.7,10.7-3.8c14.2-0.1,24.4-9.8,36.2-15.3c4.4-2,7-7.7,10.7-11.5
		c4.6-4.7,8.8-10.3,14.4-13.3c20-11,33.1-28.2,44.4-47.2c3.4-5.7,6.6-11.6,9.3-17.7c2.1-4.8,4.4-10,4.3-15
		c-0.2-12.5,4.2-23.3,9.2-34.3c15.1-33.3,32.5-65.7,44.9-100.2c4.5-12.6,8.6-24.6,4.6-38.7c-2.2-7.7,0.8-16.8,1.5-26
		c4.9-1.6,9.1-3.5,13.4-4.3c8.2-1.4,15-4.3,20.2-11.4c5.5-7.4,14-9.7,23-9.8c26-0.3,49.2-9.9,71.4-22.3c4.5-2.5,5.9-6.9,4.1-12
		c-1.7-5-3.9-9.9-6-14.8c-25.7-57.8-51.4-115.6-77.1-173.4C6533.8,960.7,6530.8,953.3,6527,944.2z"/>
	<path onclick="modals(this.id);" id="2633" class="st0" d="M3959.3,3852.5c7.2-0.6,10.3-1,13.4-1c16-0.1,32-0.3,48,0.1c7.3,0.1,14.6,1.1,21.7,2.2
		c15.9,2.5,31.8,2.5,47.8,0.2c8.5-1.2,17.1-2.3,25.7-2.4c99.3-0.2,198.6-0.2,297.9,0c7.9,0,15.9,1.1,23.8,2.1
		c18.6,2.3,37.1,3,55.7-0.4c5.8-1.1,11.9-1.7,17.8-1.7c39.3-0.1,78.7-0.2,118,0c6.6,0,13.3,0.7,19.8,1.9c13.9,2.5,27.7,2.6,41.7,0.3
		c7.8-1.3,15.8-2.1,23.7-2.2c23.3-0.3,46.7-0.4,70,0c13.1,0.3,26.3,1.8,40.7,2.9c-6.1,11.8-18.7,12.6-26.5,21.4
		c2.2,12.4,4.5,25.3,6.8,37.9c8.2,5.1,15.4,1.7,21.4-1.8c13.1-7.4,27.7-9.4,42-12c24.2-4.3,48.5-7.6,71.4-11
		c13.2-9.5,6.4-19.3,1.7-29.7c7-1.4,12.7-3,18.6-3.6c17.8-1.8,35.7-3.3,53.6-4.9c4-0.4,8.2-0.2,11.8-1.6c22.2-8.8,45.9-6.9,69-9.4
		c24.5-2.7,49.2-3.5,73.8-5.3c7.2-0.5,14.5-0.8,21-5.2c2.5-1.7,6.3-2,9.6-2.3c34.5-2.7,69.1-5.2,103.6-7.7
		c36.5-2.7,73.3-3.7,109.5-8.5c28.3-3.7,56.6-7.3,84.9-10.5c20.4-2.3,40.9-4.1,61.3-6.1c8.3,9.3,16.9,16,27.8,20.1
		c9.9,3.7,18,10.5,24,20c7.7,12.3,26.4,23.2,41.1,24.9c7.4,0.9,14.1,2.9,21,5.8c15.7,6.6,30.8,7.5,43.6-6.6c4-4.4,9-7.9,13.6-11.8
		c1.5-1.3,3-3.4,4.7-3.6c12.8-1.1,23.2-9,35.3-12.1c1.3-0.3,2.7-0.1,4-0.5c18.4-5,22.6-11.1,21.1-30.1c-0.2-2-0.8-3.9-1.3-6.4
		c5.4-7.5,12.4-13.3,21.1-17.2c9.2-4.1,14.3-3.3,21.1,4.1c3.1,3.4,5.6,7.3,7.8,10.2c6-2.5,9.5-5.1,13-5.2c2.8-0.1,6.4,2.2,8.4,4.5
		c5.5,6.3,12.3,7.2,19.9,6.5c3.3-0.3,6.6-0.5,10.3-0.7c5.3,8.2,12.6,15,14.4,25.7c1.1,6.5,8.2,8.3,13.5,10.8
		c16.9,7.9,33.8,15.6,50.8,23.3c45.4,20.7,90.5,42.1,136.4,61.7c20.2,8.6,36.7,20.1,50.4,37.3c12,15.1,26.3,28.3,39.6,42.2
		c15.1,15.9,30.4,31.7,45.5,47.7c11.2,11.9,19.3,25.7,22.2,41.8c1.8,10.3,7.5,19.9,5.2,31.1c-0.6,2.8,1.2,6.7,3.1,9.2
		c9.7,12.6,15.3,28.3,29.3,37.5c1.5,1,2.2,3.2,3.9,5.8c-1.3,2.4-2.7,5.3-4.4,7.9c-10.3,15.7-14,32.9-10.6,51.4
		c1.4,7.8,3.8,15.5,5.9,23.2c2.1,7.7,5.2,15.2,2.7,24.7c-5.5,7.2-14.3,9.6-23.8,9.9c-10.7,0.2-21.3,0.4-32-0.1
		c-11.5-0.5-22.5,1.6-33.3,5.1c-10.7,3.5-21.4,7.1-32.6,10.7c-9.7-3.8-19.2-9-30.3-8c-2.4,0.2-5-1.7-7.4-2.8
		c-17-8.1-34.6-9.3-52.5-3.8c-20.5,6.3-40.3,1.3-58-7.2c-15.4-7.4-30.8-11.3-47.4-13.3c-9.9-1.2-19.7-3-29.4-5.1
		c-6.7-1.4-12.5-4.7-14.9-11.9c-2.3-7.1-7.7-11.1-14.3-12.8c-16.7-4.5-27.4-15.7-35.9-29.8c-3.1-5.1-7.3-9.7-9.8-15
		c-6.5-14.2-18.9-18.1-32.6-19c-9.3-0.6-18.6,0.1-28,0.6c-10.4,0.5-19.9-1.8-28.2-8.1c-18.6-14.3-39.5-12.7-61.2-10.9
		c-1.4,4.8-3.3,8.5-3.5,12.3c-0.4,12.7-0.4,25.3-0.1,38c0.3,14,1.5,27.9,1.5,41.9c0.1,106,0.1,212,0.1,317.9c0,4.7-0.4,9.4,0.1,14
		c0.9,9.7-3.7,15.8-11.2,21.7c-37.8,29.4-75.4,59.1-112.6,89.3c-10.3,8.3-20.6,12.9-34.3,13.3c-21.8,0.6-43.6,4.2-65.4,6
		c-27.8,2.3-55.7,3.9-83.5,6.1c-25.1,2-50.2,4.4-75.4,6.4c-29.1,2.3-58.3,4.2-87.5,6.4c-25.2,1.9-50.3,4.2-75.5,6
		c-23.9,1.7-47.8,2.8-71.6,4.6c-24.5,1.8-48.9,4.3-73.4,6.3c-9.9,0.8-19.9,1.2-29.9,1.9c-27.8,2.1-55.6,4.3-83.3,6.6
		c-5.7,0.5-10.2-1.1-14.4-5.1c-20.4-19.2-41-38-61.3-57.2c-30.9-29.3-61.6-58.9-92.5-88.2c-31.9-30.1-64.1-60.1-96.3-89.9
		c-26.3-24.5-52.9-48.6-79.2-73.1c-16.6-15.4-32.7-31.3-49.2-46.8c-31-29.1-62.2-58.1-93.3-87.2c-13.1-12.3-26.1-24.7-39.2-37
		c-33-30.9-66.1-61.8-99-92.8c-17.9-16.9-35.4-34.3-53.4-51.1c-30.1-28.2-60.4-56.2-90.6-84.4c-13.6-12.7-27.1-25.6-40.6-38.5
		c-30.4-28.9-60.6-58-91.1-86.8c-17.4-16.4-35.3-32.4-52.8-48.7C3969.1,3863.7,3965.8,3859.6,3959.3,3852.5z"/>
	<path onclick="modals(this.id);" id="2617" class="st0" d="M8322.2,2310.1c-6.3,0.7-13.6,0.8-20.6,2.3c-25.7,5.7-24.3,6.6-19.4,28.5
		c-15.1-3.4-18.6-3.6-28.8-1.5c-13.4,2.8-19.6,19.1-10.8,29.6c4.6,5.5,10.5,10,17.8,16.8c-7.5-1.4-12.8-2.4-19.6-3.6
		c-19.9,29.9-35.9,62.8-55.3,93.1c-22.7-3.5-37.3-20.3-56.7-30.1c-6.8,1.6-14.4,3.4-23.5,5.6c0,3.4-1.1,7.5,0.2,10.7
		c3.6,9,8.1,17.6,12.5,26.9c-6.3,0.9-12.6,0.9-16.1-4.9c-4.2-7-10.8-9.4-17.4-12.5c-5.9-2.8-11.4-7.2-17.6-8.4
		c-8.4-1.5-17.3-0.7-25.9-0.7c-81.3,0-162.6-0.2-243.9,0c-175.9,0.4-351.8,1-527.8,1.7c-17.2,0.1-34.3,2.1-52.5,3.2
		c-1.2,7.1-2.3,13.5-3.3,19.8c-1,6.4-3.9,11.6-10.6,13c-17.1,3.8-32,13-48.2,18.7c-7.4,2.6-15.5,3.9-23.3,4.3
		c-16.7,1-34.7,7.4-49,18.7c-1,0.8-2.4,0.9-4.4,1.6c-8-6.1-16.9-10.7-27.6-13.5c-10.5-2.7-20.5-9.9-28.9-17.1
		c-10.7-9.2-22.2-13.1-35.9-14.7c-26.4-3.1-52.7-7-78.8-11.9c-14.3-2.7-28-8.4-42.2-12.2c-7-1.9-14.3-3.1-21.6-3.3
		c-23.9-0.5-47.7,0.7-71,6.6c-8,2-15.8,2.6-23.6-0.2c-5.4-2-10.3-1.4-15.5,0.5c-10,3.6-20.2,6.5-30.2,10.2
		c-13.4,5-24.5,12.8-32.3,25.4c-3.8,6.1-9,11.8-14.8,16.1c-10.1,7.5-19.8,15.2-28.6,24.5c-6.4,6.8-16.8,11-26.2,13.5
		c-24.9,6.7-49.7,15.9-76.4,10.8c-7.5-1.4-14.3,1.4-21,4.7c-14.9,7.3-30.1,14.2-45.2,21.1c-4.2,1.9-8.4,2.4-13.4,1.4
		c-18.5-3.8-29,1.8-38.6,19.1c-0.3,0.6-0.9,1-2.1,2.2c-10.8,2.8-21,8.4-30.4,16.1c-10.5,8.7-22.7,11.1-35.6,6.4
		c-8-2.9-15.6-1.9-23.5-0.5c-7.8,1.4-15.8,1.2-23.6,2.7c-21.3,4.2-43.6,1.9-64.1,12.2c-12.2,6.1-26.8,5.3-39.2,1.4
		c-20.2-6.4-29.1,5.6-39.8,18c7,9,14.7,14.8,24.2,18.4c9.4,3.5,18.3,7.7,24.6,16c-1.1,1.2-1.8,2.7-2.8,2.9
		c-23.3,5.2-46.6,10.3-69.3,15.3c-11.4-12.5-22-24.2-33.2-36.5c1.9-12.9,10.2-23.2,18.9-34.1c-7.1-8.6-17.2-12.8-24.4-19.5
		c-5.8-17.7-9.4-35.1,1.3-53.8c2.5-1,6.7-3,11-4.3c8.4-2.6,13.7-6.8,14.5-16.6c0.4-4.7,4.9-9,7.5-13.4c3.3-5.7,3.5-10.8-1.1-16.4
		c-8.7-10.9-16.8-22.3-24.9-33.6c-1.5-2-1.8-4.9-2.6-7.3c-1.9-5.5-3.7-11.1-6.6-19.7c2.7-7.1,6.8-16.8,10.1-26.8
		c2.9-8.6,7.7-17.5,0.7-26.5c0.4-11.9-1.4-24.4,1.8-35.5c4.4-15.2,3.9-30.2,3.6-45.5c-0.2-8.9-3.2-16.8-10.5-22.7
		c-7.1-5.8-10.7-13.1-10.3-22.7c0.3-9.4-6.8-15.5-12.1-22.2c-1.4-1.8-4.5-2.9-6.9-3.2c-3.9-0.6-8.1,0.2-11.9-0.7
		c-7.9-1.9-14.6-5.1-18.1-13.8c-3.4-8.6-8.5-16.5-13.1-24.5c-3.8-6.6-6-13-2.8-20.7c3.1-7.6,1.7-15.2-1-23.2
		c-3.1-9.2-3.6-19.2-5.4-29.9c36.4-23.7,72.7-47.3,109.7-71.4c4.5,2,9.2,4.2,14.9,6.8c15.1-5.8,25.5-19.5,39.8-28.9
		c22.3,5.6,45.6,2.6,68.6,2.8c14.2,0.1,28.9-3.1,41.3-12.2c5.3-3.9,11.3-7,17.4-9.8c8.1-3.8,14-1.9,18.8,5.4
		c3.3,4.9,7.2,9.6,9.7,14.9c6.5,14.1,18.4,19.4,32.5,23.2c33.4,9.1,66.2,20,99.7,28.5c15.3,3.9,31.5,4.8,47.4,5.4
		c40.6,1.3,81.3,0.5,121.8,2.7c45.3,2.5,90.6,1.4,135.8,1.4c50.6,0.1,101.2-0.9,151.8-1.9c17.9-0.4,35.8-2.7,53.7-3.6
		c10.6-0.6,21.3-0.6,32-0.3c12.6,0.3,25.2,1.2,37.8,2c9.9,0.6,19.9,2.2,29.8,2c18.6-0.4,37.2-1.1,55.7-2.9c35-3.4,70-7.6,105-11.6
		c55.4-6.3,110.8-12.8,166.2-19.1c19.1-2.2,38.3-4.4,57.5-5.9c7.7-0.6,14.3-1.5,18.9-8.6c1.2-1.9,4.5-2.5,6.5-3.5
		c1.8,0.8,3.5,1.1,4.1,2c3.9,6.7,9.4,7.9,16.8,6.9c32.3-4,64.7-7.4,97-11c13.9-1.5,27.8-2.5,41.6-4.6c16.2-2.5,31.6-0.9,46.1,6.5
		c8.1,4.1,14.8,2.8,22.4-1.7c33.1-19.9,66.5-39.3,99.8-58.7c14.4-8.4,28.9-16.6,43.2-24.9c2.8-1.6,5.4-3.6,8.5-5.7
		c-1.9-14.1-13.7-23-17-37c3.6-1.5,7-3.2,10.5-4.4c7.6-2.4,15.2-4.8,23-6.8c7.2-1.8,15.6-9.2,21.4-0.2c4.2,6.5,14.7,7.1,14.4,17.7
		c-0.1,3.8,4.4,7.8,6.6,11.1c2.3,0.2,4.1,0.9,4.8,0.3c7.5-6.8,15.4-7.4,23.3-1.3c5.7,4.4,12.7,6.6,16.9,13.4
		c4.1,6.6,11.3,9,19.3,7.3c0.6-0.1,1.4,0,2-0.2c14-4.4,27.5-3.5,40.7,4.9c5.4-3.3,10.5-6.2,15.5-9.3c7-4.3,13.8-6.7,22.5-3.9
		c5.3,1.7,11.8,0.7,17.6-0.2c11-1.7,22-4.3,32.2-6.3c8.2,9.2,15.7,18.3,23.9,26.7c6.1,6.3,11.2,12.9,14,21.4c3,8.8,7,17.3,10.8,25.8
		c5.5,12.2,8.3,25,10.4,38.3c3,19.7,7.2,39.3,12.6,58.4c5.7,20.2,17,37.6,34.2,50.3c7.3,5.4,12.1,12.6,15,20.8
		c6.7,19,20.9,29.7,38.2,38.6c13.5,6.9,26,16,38.7,24.4C8324.3,2284.2,8329.7,2294.5,8322.2,2310.1z"/>
	<path onclick="modals(this.id);" id="2644" class="st0" d="M8323.2,2322.1c1.3,6,3.8,12.4,3.9,18.7c0.1,12.6,5.3,23,11.3,33.6c11.5,20.2,22.1,40.9,33.9,61
		c6.4,10.9,14.1,21,21.6,31.2c9.8,13.4,20.3,26.4,29.7,40.1c5.8,8.4,12.4,13.5,23.1,11.9c11.1-1.6,21,1.1,29.4,9
		c1.9,1.8,4.4,3.1,6.9,3.8c16,4.6,32,9.2,48,13.4c3.8,1,8.2,1.7,11.8,0.7c9.2-2.6,16.9-0.2,24.5,4.6c11.6,7.4,25,8.3,38.5,9
		c4.6,7.1,9.1,13.6,13.2,20.4c3.3,5.4,7.5,10.4,13.5,11c17.2,1.7,28.3,13,36.2,25.7c18,29.1,46.3,45.4,73.3,63.5
		c9.8,6.6,20.2,5.6,30.5,1.6c5-1.9,9.5-4.8,14.4-6.9c10.4-4.6,21-8.4,33.6-7.8c2.6,3.2,5.8,6.4,8.2,10.3c5.6,9,11.2,18.1,16,27.6
		c3.9,7.7,7.5,15.7,9.5,24c2.3,9.8,2.2,19.7-4.8,28.5c-5,6.2-9,13.2-13.7,19.6c-8.8,12-16.1,24.7-15.9,40.1
		c0.1,9.4-3.7,16.5-9.7,23.2c-7,7.7-15.6,14.4-25.5,14.3c-18.8-0.2-31.2,9.3-42.6,22.1c-3.1,3.5-6.7,6.4-10.7,10.1
		c-3.7-0.5-7.5-1-11.3-1.6c-8.1-1.4-15.6,0.1-23.5,2.6c-14.7,4.8-28.3,11.7-41.4,19.6c-12.3,7.4-25.1,11.9-39.6,11.5
		c-8.6-0.3-17.4,1.2-25.8,0c-9.1-1.3-18.5-3.5-26.5-7.8c-19-10.1-39-16.9-59.7-22.3c-16.1-4.2-31.9-8.8-46.6-17.2
		c-7.1-4-16.5-4-25-5.4c-9.8-1.6-19.9-1.7-29.5-4.2c-24.6-6.2-49.7-9-75-10.5c-10.6-0.6-21.3,0.7-31.8,1.6
		c-9.7,0.8-18.1-1.4-25.9-7.6c-8.2-6.6-17.3-11.3-22.9-21.5c-5.3-9.6-16.9-12.4-27.1-15.5c-10.8-3.3-21.8-6.2-32.8-8.7
		c-7.6-1.7-11.3-6.4-12.9-13.5c-0.3-1.3-0.8-2.7-0.6-3.9c3.5-24-11.4-41.7-21.1-61c-4.8-9.6-12.6-16.7-22.1-22.4
		c-16.5-9.9-32.2-21.1-48.4-31.5c-18.4-11.8-39.5-16-60.7-17.6c-8.7-0.6-18.2,1.5-26.8,6.3c-9.8,5.5-20.5,9.3-31,13.5
		c-14.4,5.8-26.3,0.4-36-9.8c-8.2-8.6-14.9-18.7-22.8-27.7c-4.4-5.1-4.3-10.8-4.6-16.8c-0.8-13.6-4-16.1-17.6-13.8
		c-32.1,5.4-64.2,10.8-96.3,16.3c-3.3,0.6-6.5,1.3-9.8,1.6c-18.6,1.6-34.9,7.7-45.7,24.8c-5.4-0.6-10.7-1.2-15.9-1.8
		c-4.6-0.6-9.2-1.8-13.7-1.9c-28.6-0.7-57.3-1-85.9-1.6c-12.6-0.3-25.2,1-37.8-2.3c-5-1.3-10.6-0.5-15.9-0.2
		c-6.5,0.4-10.8,3.7-13.2,10.2c-4.4,11.8-9.6,23.3-14.1,35.1c-2.3,6.2-5,12.6-5.4,19.1c-1,15-8.9,26.1-18.4,36.6
		c-9.3,10.4-18.5,20.9-27.6,31.4c-3.2,3.7-6.6,6.6-11.8,6.4c-19.6-0.6-38,6-57,9.2c-10,1.7-19.6,3.4-29.3-0.6
		c-2.4-1-5.1-1.6-7.8-1.7c-11.4-0.7-22.8-1.5-31.7,7.9c-2.2,2.4-5.3,4-7.8,5.9c-1.6,28.1-13.4,51.2-32.3,71.2
		c-9,9.5-20.2,11.6-32.7,10.6c-15.2-1.3-30.5-2.1-45.7-2.7c-5.1-0.2-9,3.3-9.5,8.3c-0.7,6.6-0.8,13.2-1.3,20.7
		c-5,0.7-9.4,1.9-13.8,1.9c-77.3,0.1-154.7,1.4-231.9-0.3c-58.6-1.3-117.1-1.7-175.7-2c-6.6,0-13.3,0-19.2,0
		c-15.3,12.5-18.5,31.8-31.5,45.9c-32.1-2.8-48.2,18.3-61.8,44.9c-4,0-8.6-0.1-13.1,0.1c-2.6,0.1-6-0.1-7.7,1.4
		c-10.7,9-23.7,11.4-36.7,13.9c-17.3,13-39.3,16.1-57.4,27.4c-12.3,7.7-25.8,13.3-40.6,14.1c-3.9-15.4-4.1-16.7-16.8-19.2
		c-8.1-1.6-13.4-4.9-16.6-12.3c-5.1-11.7-13-20-26.4-21.5c-0.7-0.1-1.5-0.1-1.9-0.5c-9.8-10.4-23.6-11.3-36-15.4
		c-3.7-1.2-7.2-3.6-10.2-6.2c-6.2-5.4-13-6.1-20.8-3.9c-8.8,10.5-17.7,21.3-26.8,31.8c-4.6,5.4-6.1,11.4-6,18.4
		c0.3,15.3,0.1,30.7,0,46c0,4.5-0.5,9-0.8,14.5c-4.3,0.5-7.5,1-10.6,1.2c-48.5,1.6-169.5,0.6-186.9-1.7c1.2-5,2.3-9.8,3.5-14.9
		c7.8-2,14.7-3.8,22.7-5.9c0.7-3.5,2-7.3,2-11c0.2-18.7,0.6-37.3-0.1-56c-0.3-7.8-2.5-15.6-4.6-23.2c-0.8-2.9-3-6.2-5.6-7.7
		c-9.7-5.6-18.9-11.9-30.5-13.9c-20.2-3.5-30-15.4-30.4-35.5c-0.3-12.6-1.2-25.3,3.8-37.5c2.3-5.7,1.2-11.3-2.6-16.9
		c-4.4-6.5-8-13.9-10.7-21.3c-2.5-6.8-3.3-14.1-4.7-20.8c12.8-16.9,13.1-16.9,9.3-36.7c-2-10.4-5.3-20.5-8.2-31.4
		c12.4-5.8,26.4-6.8,39.8-9.8c18.2-4.2,36.5-7.5,54.7-11.6c3.6-0.8,6.9-3.1,11.2-5.1c-12.9-21.1-35.6-26.4-53.5-38.3
		c0.6-7.9,8.1-8.1,10.2-11.5c12.8,1,24.1,2.5,35.3,2.6c10.6,0.1,20.9-1,30.8-6.3c8.1-4.4,17.1-7.1,26.9-5.4
		c4.4,0.7,9.2-0.8,13.8-1.6c2.6-0.4,5.3-2.6,7.6-2.1c12.3,2.7,23.7-1.1,35.3-3.7c3-0.7,6.4,0.5,9.6,1.1c20.4,3.8,39.6,3.3,55.6-13
		c3.4-3.5,9.2-5,14.1-6.8c6.5-2.3,11.7-5.3,15-11.9c5-10,14-14.2,24.9-11.8c9.1,2.1,17.2,0.3,25.2-3.4c12.1-5.6,24.2-11,36-17.1
		c9-4.7,17.8-7.1,28.4-6.3c31.1,2.2,60.7-5.4,89.1-17.7c4.2-1.8,9.4-3.5,12-6.9c11-14.6,27.5-23.1,39.5-36.5c1.8-2,4-3.7,5.3-6
		c14.3-23.7,39.2-27.7,62.8-34c1.2-0.3,2.8-0.7,3.9-0.3c18.9,7.1,36.7-2.5,55-4c23.8-2,47.4-5.3,70.8,2.8
		c39.9,13.8,81.2,20.1,123.1,23.1c8,0.6,13.5,5.1,19.5,9.3c7.6,5.4,14.2,13.1,22.6,16.1c17.5,6.4,33.5,15.1,49.2,24.9
		c0.4,0.3,1.3-0.1,2.8-0.2c2.8-4.4,4.9-10.8,9.3-13.8c6.5-4.4,14.5-6.6,22-9.4c3.1-1.1,6.5-2,9.7-1.8c13.8,0.8,26.1-3.8,38.5-8.8
		c12.9-5.2,24.9-12.7,39-15c4.4-0.7,8.4-3.9,12-5.6c6.8-8.2,4.8-18.3,7.9-27.9c6-0.3,11.9-0.7,17.8-0.8
		c265.8-5.8,531.7-1.3,797.6-2.7c5.3,0,10.7,0.1,16,0c5.4-0.1,10.3,0.4,14.6,4.8c2.1,2.1,5.9,2.8,9.1,3.6c6.1,1.5,11.3,4.1,14.3,9.9
		c2.3,4.6,5.7,7.3,11,7.3c6.5-0.1,11.5,2.2,15.1,7.9c3.3,5.1,8.8,5.7,14.3,4.6c6.3-1.2,7.9-6.3,8.7-11.7c-9.3-12.4-25.5-20-27-38.8
		c8.6-1.9,15.9-0.7,22.9,4c10.8,7.4,21.8,14.4,33.9,19.9c12,5.4,16.7,5.2,22.9-5.6c12-20.7,23.7-41.7,35.6-62.4
		c3.9-6.9,8.3-13.5,12.8-20.7c9,1.8,17.1,3.5,26.3,5.4c0.6-5.2,1.2-9,1.5-12.8c0.4-5.1-1.9-8.9-6.3-11.6c-4.5-2.8-9.2-5.4-13.4-8.6
		c-4.1-3.1-5.7-7.3-3.6-12.4c1.6-4,4.4-6.6,9-6.6c4,0,7.9,0,11.6,0c8.2,5.5,11.8,17.8,24.5,15c9.1-12.7-2.7-22.5-4.6-35
		c3-1.6,6-3.9,9.5-5.1C8306.5,2320,8314.4,2318.9,8323.2,2322.1z"/>
	<path onclick="modals(this.id);" id="2626" class="st0" d="M7849.5,1982.2c-50.8,30-100,59.1-149.2,88.1c-13.1-3.5-25.8-7.1-38.6-10.3
		c-3.1-0.8-6.6-1.2-9.8-0.7c-15.1,2.1-30.1,5.1-45.2,6.8c-29,3.3-58.2,5.3-87.2,9.1c-13.2,1.7-25.1,1.3-35.4-8.7
		c-5.5,2.2-11.6,2.9-14.9,6.3c-5.6,5.8-11.5,7.6-19.2,8.4c-31.1,3-62.1,6.7-93.1,10.2c-42.2,4.8-84.4,9.7-126.6,14.6
		c-14.5,1.7-29.1,3.1-43.6,4.7c-23.8,2.6-47.5,5.7-71.3,7.6c-15.8,1.2-31.8,1.2-47.7,0.9c-32.6-0.6-65.2-2.1-97.7-2.5
		c-14.6-0.2-29.2,1.7-43.8,2.4c-15.9,0.7-31.9,1.6-47.9,1.7c-31.3,0.3-62.7-0.2-94,0.2c-30.6,0.4-61.2,2.3-91.8,2
		c-40.6-0.5-81.1-2.5-121.7-3.8c-10-0.3-20,0.2-30-0.2c-20.6-0.7-41.2-1.6-61.7-2.7c-4.6-0.3-9.2-1.4-13.7-2.7
		c-35.2-10.2-70.2-20.7-105.4-30.7c-8.7-2.5-15.9-5.7-20.2-14.4c-2.9-5.9-7.3-11-10.9-16.5c-8.4-13-18-16.4-32.3-10.9
		c-4.3,1.7-8.7,3.8-12.2,6.7c-11.2,9.5-25.5,10.5-38.5,15.1c-3,1-6.6,0.3-9.9,0.2c-10-0.2-20-0.5-30-0.7c-7.9-0.1-15.7,0.6-23.6-2
		c-7-2.3-14.2-0.6-20.3,4.9c-8.4,7.5-17.5,14.2-26.6,21.5c-5.2-2-10.1-3.9-16.4-6.3c-7.3,4.3-15.4,8.7-23.1,13.7
		c-28.5,18.4-57.1,36.8-85.3,55.8c-8.5,5.7-16.8,7.1-26.4,4.9c-12.3-2.9-24.8-5.1-37-8.1c-9.2-2.2-18.1-3.7-27.2,1.4
		c-6.1-7.3-10.7-14.4-14.1-22.4c-4.6-11.1-10.1-21-20.8-28.4c-12.4-8.6-19.8-21.6-17.8-37.8c0.5-3.8,1.4-8.3,3.8-11
		c6.5-7.4,13.4-14.6,20.9-21c11-9.3,15.9-21.1,15.9-35c0-9.2-1-18.4-1.7-28.6c4.1-3,8.8-6.5,14.2-10.6c0-6.5,1.6-13.7-0.3-19.7
		c-3.7-11.8-0.9-21.9,4.5-31.6c-3-9.5-5.9-18.4-8.7-27.2c-1.6-5.1-4.8-7.8-11.2-7.1c-1.5,3-3.3,6.4-5.1,9.8
		c-1.2,0.5-2.4,1.4-3.6,1.3c-5.9-0.3-12-0.5-17.8-1.6c-28.7-5.4-57.4-11.1-86.1-16.8c-6.5-1.3-12.2-0.5-14.9,6.4
		c-2.9,7.3-10.6,4.4-16.1,8.1c-1.1,3.7-2.3,8-3.6,12.5c-1.9,0.7-3.7,2.1-5.5,2c-23.2-0.7-46.5-1.2-69.7-2.7
		c-7.7-0.5-16.1-0.7-23.1-7.9c-4.7-25.1,3.5-50.7,0.5-75.7c10.5-8.6,20.2-12.9,32.5-9.4c10.8,3,21.4,1.3,30.4-5.4
		c7.6-5.6,15.6-6.2,24.6-5c10.4,1.4,21,1.4,31.1,1.9c7.2,4.5,0.4,15.4,9.3,18.6c7.9-8,7.9-8,13.1-36.8c10-2.4,18.7,2.8,28.1,5.4
		c3.1,8.9,2.1,17.4,1.2,26c-0.5,5.3-1.7,10.5-1.6,15.8c0.2,14.7,7,21.3,22.2,22c1.9,0.1,3.9-0.7,6.8-1.2c1.5-2.2,3.7-4.8,4.9-7.7
		c6.4-15.2,19.6-25.1,29.4-37.6c0.8-1,1.8-2.2,3-2.5c15.1-3.6,27.1-13.9,41.5-19.2c2.5-0.9,5-2.2,7.6-2.3
		c25.4-1.2,50.5-1.4,74.9,8.2c8.4,3.3,9.9,12.5,17.6,15.5c6.7,2.6,15-1.3,20.7,5.3c5.5,6.4,12.3,6.3,20.1,5
		c10.3-1.8,20.5-4.5,31.3-1.3c8.2,2.4,15.7-1.3,21.7-7.3c2.4-2.3,4.4-5.1,6.8-7.3c8.9-8,16.5-6.3,21.8,4.7c0.8,1.7,1.2,3.7,1.8,5.5
		c6.3,2.4,12.4,4.8,19.2,7.3c10.1-1.6,17.1-7.9,20.5-18.1c6.6-0.8,12.6-1,18.3-2.5c5.5-1.4,9.2-5.2,9.3-11.5c0.1-5.3,0-10.7,0.2-16
		c0.4-9.9,3.9-15.2,13-17.5c19-4.9,35.8-14,51.6-25.4c4.3-3.1,9.3-5.1,14.9-8.2c2.3,2.3,4.2,5.1,6.8,6.3c3.4,1.6,7.7,3.5,11,2.7
		c17-4,34-6.5,51.5-3.9c3.1,0.5,6.5-1.2,9.8-1.7c5.8-0.9,11.7-1.4,17.5-2.6c8.4-1.8,16.8-3.6,24.8-6.5c3.3-1.2,6.7-4.9,8.2-8.2
		c9.3-21.4,25.6-37.1,42.9-51.5c8.4-7.1,13.3-14.4,13.5-25.2c0-1.1,1.3-2.2,2.4-3.9c2.2,0.1,4.9-0.1,7.4,0.5
		c24.5,6.2,49.1,12.2,73.4,19.1c10.2,2.9,19.7,0.5,29.5-0.5c7.8-0.8,15-3,23.5-1.2c9.6,2,20.1-0.3,27.1-8.9
		c4.6-5.7,10.3-7.9,17.4-7.6c9.6,10,8.6,24.7,14.9,35.6c6.9,12,5.4,24.2,6.9,36.2c10.1,10.4,18,21.7,24,34.5
		c2.8,5.9,6.9,11.3,10.7,16.7c6.1,8.7,13.6,16.7,18.4,26.1c6.4,12.5,15.3,21.6,28.1,27.1c2.4,7.1,4.7,13.9,7.2,21.2
		c4.6-0.3,8.5-0.2,12.3-0.9c91.4-18.1,182.7-36.3,274-54.5c2.6-0.5,5.4-0.5,7.8-1.5c2.3-1,5.6-2.7,6.1-4.6
		c3.6-15.7,14.1-29.6,8.3-47.9c-5.6-17.7,4.7-36.6,21.3-44.7c36.5-17.8,73.1-35.2,110.6-53.2c3,3,5.6,5.6,8.3,8.3
		c5.6,5.7,11,11.6,16.8,17.2c12.3,11.9,14.2,12.4,32.2,10c9.5,9.9,19.5,19.7,28.8,30.1c15.6,17.3,30.9,34.8,46,52.4
		c3.7,4.4,7.8,7,13.9,6.8c1.3-1.2,3.3-2.3,4-3.9c3.5-7.5,9.9-8.2,16.8-7.5c12.5,1.2,25.1,2.4,37.6,3.9c8.7,1,15.9-1.3,20.7-8.9
		c6-9.4,14.7-17.3,16.1-29.8c3.6-1.8,7.1-3.6,10.6-5.2c7.9-3.6,11.8-10.5,14.6-18.2c2.4-6.7,6.8-11.4,13.9-13
		c15.2-3.6,27.8-12.1,40.4-20.8c6.9-4.8,16.5-5.8,23.2-10.7c6.2-4.6,9.8-12.5,15.1-18.4c2-2.3,5.6-3.6,8.7-4.4
		c12-3.1,19.7-10.3,23.5-22.2c0.9-2.9,3.7-5.4,5.8-7.8c0.8-0.9,2.4-1,4.5-1.8c2.3,2.8,4.9,5.6,7.1,8.8
		c10.5,14.9,24.9,25.3,39.1,36.5c16.6,13,33.9,20.4,54.8,20.2c3.9,0,7.8,1.3,11.7,2.1c7.5,1.7,14.4,0.4,21.3-3
		c11.9-5.9,24.3-11,36.1-17.2c6.3-3.3,12.2-4.8,18.9-2.2c10.4,4,20.6,2.6,31.4,0.3c18.8-4.1,37.8-7.7,57-9.7
		c23.2-2.5,46.4,0.5,69.3,4.9c3.8,0.7,7.3,2.9,10.6,4.3c2.6,6.4-1.5,9.8-5.3,11.9c-11.7,6.4-18.2,17.1-24.8,27.9
		c-2.7,4.5-6.1,8.7-9.1,13c-3.4,4.9-7.2,9.6-9.9,15c-5.4,11.1-2.7,20.9,7.9,27.2c18.9,11.1,37.2,23.3,55.7,35.2
		c17.2,11.1,30.7,25,36.9,45.3c4.1,13.3,10,26.1,14.5,39.3c4.6,13.4,11.3,25.2,21,35.8c18.8,20.5,18.8,20.7,23.2,48.8
		c3.2,20.6,11.8,39.3,18.2,58.6c-1.7,5.9-7.3,6.6-11.3,7c-12.3,1.5-24.2,6.9-37.1,2.7c-7.2-2.3-14.6-0.2-21.2,3.4
		c-4.7,2.5-9.2,5.4-14.3,8.4c-14.6-4.3-29.5-5.9-44.9-2.3c-3.1,0.7-8.9-1.3-10.5-3.8c-10.8-17.6-27.6-21.3-46.2-21.5
		c-0.6,0-1.3-0.3-0.8-0.2c-8.6-10-16.6-19.3-24.6-28.6c-4.2,0.5-7.5,0.6-10.7,1.4c-14.1,3.9-28.2,7.9-42.2,12
		c-3.2,0.9-6.3,2.2-9.2,3.8c-5.7,3.1-7.8,9.7-4.7,15.4C7838.7,1963.9,7843.5,1971.8,7849.5,1982.2z"/>
	<path onclick="modals(this.id);" id="2637" class="st0" d="M5696,2931.4c4.3-0.3,8.3-0.5,12.2-0.8c13.7-0.9,25.9-5.3,35.6-15.5c3.7-3.9,7.8-7.3,11.2-11.4
		c7.6-9.1,16.8-14.6,28.8-16c4.4-0.5,8.6-3.2,14-5.3c2.6,3.2,5.6,6.5,8.1,10.1c3.7,5.5,8,10.9,10.4,17c4.6,11.4,13.1,13.2,24,12.9
		c21.3-0.6,42.7-0.2,64-0.2c5.9,0,11.8,0,17.7,0c4.5,10.5,5.9,20.4,5.8,30.2c-0.3,21.2,13.5,32,29.2,41.6c2.8,1.7,5.9,3.3,9.1,4
		c13.8,3.2,26.6,8.4,36.5,19c5.6,6,12.7,1,20.9,2.6c0.2,0.3,1.5,1.9,2.3,3.6c16.9,34.7,33.8,69.4,50.7,104.1
		c0.9,1.8,1.6,3.7,2.7,5.3c3.7,6,8.7,7.8,15.3,5.1c3-1.2,5.7-3.3,9.3-5.4c-1.9-5.8-3.6-11.2-5.3-16.5c8.3-14.8,20.7-20.3,37.5-21.8
		c44.6-3.9,88.9-2.6,134.4,1.1c0.9,4.6,1.8,8.9,2.8,13.8c5.8,6.5,14.5,8.6,22.5,11.5c8.9,3.2,12.4,9.1,12.3,18.1c-0.1,20,0,40,0,60
		c0,8.6,0,17.3,0,25.4c5.7,6.5,13,8.2,19.6,11.1c11,4.8,22.2,9.1,33.1,13.9c12.3,5.4,20.3,14.4,23.2,27.9c1,4.5,2.2,9.4,4.9,12.9
		c6.4,8.5,6.1,17.1,3.2,26.5c-1.8,5.7-3,11.6-4.1,17.5c-1.2,6.8-3.3,12.5-9.8,16.4c-8,4.8-10,13.7-12,21.4
		c-16.6,6.4-31.9,12.9-47.6,17.9c-6.7,2.1-14.7,2.2-21.8,1.1c-18.8-2.9-37.1-2.6-55.3,5.6c-5.6-5.2-10.7-10.4-16.2-15
		c-7.7-6.4-13.8-6.9-21.7-1c-15,11.1-29.8,22.4-44.4,34c-7.8,6.2-8.8,12.3-3.8,21c7.1,12.1,14.6,23.8,22.2,35.6
		c19.4,30.3,38.9,60.5,58.4,90.7c2.1,3.3,4,6.8,6,10.1c-5.1,7.6-10.5,14.4-14.6,21.8c-6.8,12.3-16.9,18.4-30.6,18
		c-8.8-0.2-17.4,0.9-25.4,4.2c-9.9,4.1-19.9,7.2-30.5,8.8c-3.8,0.6-7.8,2.1-11.1,4.3c-16.2,10.4-33.7,14.4-53,15
		c-15.7,0.5-31.7,3.1-45,13.6c-3.5,2.8-8.3,4.2-12.7,5.6c-15.9,5.1-25.7,15.1-29,32.1c-2.6,13.6-6.8,26.9-10.4,40.4
		c-2.3,8.5-5.9,16.1-13.2,21.7c-3.7,2.8-6.9,6.3-10,9.8c-6,6.7-12.9,11.1-22,12.6c-10,1.7-18.5,6.7-25.5,13.9
		c-5.7-2.6-6.4-11.4-14.4-9.2c-5.1,1.4-10.4,2.1-15.8,3.1c-9.5-6.1-18-13.9-30.6-13.1c-3.8,0.2-8-3.9-11.8-6.5
		c-8.1-5.5-16.5-5.8-24.4-0.8c-8.4,5.3-16.3,11.4-24,17.7c-2.2,1.8-3,5.7-3.5,8.9c-0.4,2.5,0.2,5.3,0.8,7.9c2,7.8-1.3,14.2-8.2,16
		c-13.3,3.6-24.5,12.8-38.9,13.9c-4.3,0.3-8.8,3.1-12.3,5.8c-5.8,4.4-11.2,9.4-16.3,14.7c-9.2,9.6-20.2,10.2-31.2,5.5
		c-8.1-3.4-16.1-6.4-24.8-6.9c-8.6-0.4-14.4-6-21.4-9.5c-7-3.5-11.9-7.5-15.4-14.4c-6.2-12-18.1-17.8-29.5-22.7
		c-9.2-3.9-15.9-9-20.8-17.4c-4.4-7.5-9.7-14.4-13.9-21.9c-4.3-7.7-8.5-14.9-16.9-19c-3.2-1.6-5.6-5.5-7.7-8.8
		c-10.7-16.1-21.6-31.9-31.5-48.5c-6.4-10.8-13.5-17.4-27.3-14.7c-8.4,1.6-12.6-1.3-14.8-9.6c-5.7-21.7-12.8-43.1-8.3-66.4
		c2.8-14.2,3.5-29.1,3.1-43.6c-0.7-24.2,4.2-47.7,8-71.3c1.7-10.5,3.6-21,5.7-31.4c2.1-10.4,3.8-12.8,14.2-13.5
		c11.2-0.7,20.7-4.5,29.3-11.2c12.5-9.7,19.2-23.6,26.1-37.2c2.1-4.1,0.7-10.5-0.4-15.6c-3.5-15.6-6.6-31.2-6.9-47.2
		c-0.2-10.5-6.5-18.7-10.7-27.7c-9-19.2-10.3-38,0.4-56.8c7.9-13.9,15.6-28,31.1-35.4c2.6-1.3,5.2-4.5,6-7.3
		c4.2-14.2,14.9-23.3,24.6-33.3c4.4-4.5,9.3-6.6,15.8-7.1c14.5-1.1,28.9-3.1,44-8.2c-0.9-3.7-1.1-7-2.5-9.5
		c-4.3-7.7-10.7-13.4-17.9-18.5c-9.2-6.6-18-13.7-25.9-19.8c-3-8.9-5.9-16.4-8.1-24c-3.8-13.2-3.8-26.2,3.9-38.4
		c2.1-3.4,5-6.6,6-10.3c4.1-15.5,16-23.8,28.1-31.9c13.8-9.3,28.5-17.1,40.1-29.3c0.9-0.9,2-1.9,3.2-2.3
		C5680.7,2961.3,5689.4,2947.4,5696,2931.4z"/>
	<path onclick="modals(this.id);" id="2634" class="st0" d="M6128,1538.8c-6.8-2.3-13.7-4.8-20.7-6.8c-11.4-3.3-21.7-1.8-32.5,4.3
		c-16.7,9.5-34.2,17.8-52,25.3c-16.6,7-33.9,4.1-50.7-0.8c-1.3-0.4-2.6-0.5-4.8-1c-16.1,10-22.9,25.7-18.2,43.7
		c3.2,12.2,1.4,23.6,1.6,35.4c0.1,6.8-3,11.8-8.7,14.6c-15.5,7.6-30.4,16.4-47.6,20.1c-4.8,1-9,1-13.5-1
		c-10.2-4.7-20.6-8.9-31.6-13.6c-5.2,3.8-10.2,7.1-14.7,10.8c-9.7,8.1-19.1,16.4-28.7,24.6c-1.4,1.2-3.3,2.6-5,2.6
		c-13,0.1-23.3,6.9-34.1,12.8c-4.5,2.5-9.5,4.2-14.9,6.5c-4.6-5.5-6.4-10.7-3.6-16.9c6.1-13.6-0.2-24.3-10.6-31.1
		c-12-7.8-18.5-18.1-23.3-31c-8.4-22.5-16.9-27.7-40.6-27.2c-3.3,0.1-6.5,0.3-10.6,0.5c-1.1-3.4-3-6.4-3-9.4
		c-0.2-42.6-0.1-85.3-0.1-127.4c5.2-7.8,13.7-9.1,20.3-13.3c5-3.2,11-5.6,14.7-9.9c5.3-6.1,9.4-12,18.9-12.5
		c6.3-0.3,9.5-8.3,8.5-15.8c-1.9-13.9-6.1-27.2-12.2-39.8c-1.1-2.3-2.5-4.5-3.9-6.9c2.1-3.2,4.1-5.7,5.6-8.6
		c1.2-2.3,2.9-5.2,2.4-7.4c-3.1-14.1-3.1-29.9-14.5-40.5c-7.4-6.9-11.1-14.5-12.1-25.7c6.3-5.3,13.2-11.3,20.5-16.9
		c7.1-5.5,11.6-11.6,13-21.2c1.8-11.9,4.3-23.5,2.4-35.6c-0.6-3.5,1.3-6.9,4.9-7.7c2.1-0.5,5.1,0.7,7,2c2.1,1.4,3.3,4.2,5.3,6
		c9.2,8,19.8,11.4,31.5,7c15.4-5.8,32.1-8.8,45.1-20.6c4.8-4.3,11.7-6.2,17.5-9.4c4.3-2.4,8.5-3.2,13.3-1.4
		c10.1,3.9,16.5-0.8,21.2-9.5c2.2-4,4.6-7.9,7-12.1c5,1.6,9.2,3.4,13.6,4.3c4.9,0.9,10.8-0.7,12.1-5c3.1-11.1,12.9-12.4,20.8-16.5
		c1.1-0.6,2.5-0.8,4.5-1.4c2.5,1.2,5.3,2.8,8.4,4c11.8,4.7,21.4-0.8,22.8-13.6c1.2-11.6,0.3-22.7-10.1-30.7c-2-1.6-3.4-3.9-5.8-6.7
		c1.5-2.9,2.8-5.8,4.5-8.4c6.3-10.5,10.3-21.5,9.3-34.1c-0.4-4.6,0.7-9.2,1.1-13.9c0.4-5.3,1.3-10.6,1.2-15.9
		c-0.1-14.3-5.1-26.2-19-32.1c-12.5-5.3-25.3-8.6-37.9,0.4c-2.1,1.5-4.7,2.4-7.2,3.4c-5.4,2.1-11,6.6-16.6,1.5
		c-4.6-4.2-2.7-10.7-1.2-15.1c3-9.2,7-18.5,12.5-26.4c3-4.3,9.9-7.1,15.5-7.9c10.5-1.6,16.5-7.8,21.6-16c8-13,16.1-25.9,24-38.9
		c1.7-2.8,3.3-5.9,4.2-9c3.7-12.3,10.5-22.6,18.6-32.6c5.2-6.4,7.5-15.1,11.8-24.2c1.9-0.9,5.5-2.7,9.1-4.3
		c7.9-3.4,13.1-9,14.5-17.7c1.4-9,6.4-15.4,13-21.6c12.2-11.4,21.4-25.5,29.7-39.9c4.2-7.2,5.7-16,8.8-25.5
		c11.6-11.9,29.1-11.3,45-14.6c8.3-1.8,16.8-2.6,27-4c7.4,9.4,15.7,19.6,23.6,30.2c1.8,2.5,2.7,6.1,2.9,9.2
		c0.9,18.1,8.7,32.2,20.4,46.2c12.2,14.5,24.1,30.1,30.6,48.8c1.6,4.7,5.6,9.5,9.8,12.1c9.6,5.9,19.6,11.7,31.2,12.8
		c14.2,1.4,25.5,6.8,32.6,19.7c0.9,1.7,2.5,3.1,4,4.4c4.7,4.1,9.8,4.8,14.6,0.9c9.7-8,20-14.8,27.9-25.3
		c13.6-18.2,27.2-36.2,38.4-55.9c5.1-9,11.7-12.9,22.5-12.9c19.9,0,39.8-1.9,59.7-2.9c32.5-1.7,65-3.4,97.5-5.2
		c15.9-0.9,31.8-1.7,47.7-2.9c16.5-1.3,33-2.2,49.6-1.8c6.6,0.2,13.1-1.3,19.7-1.8c5.1-0.4,8.9,1.5,11.1,6.5
		c2.2,5.1,0.6,9.1-3.2,12.5c-2,1.8-3.9,4-6.3,4.8c-15.4,5.3-25.8,18.4-40.1,25.3c-5,2.4-8.3,5.9-9.9,11.7c-0.9,3.4-4.3,6.3-7.1,8.9
		c-5.3,5-11.1,9.5-16.3,14.6c-2.7,2.7-6.7,6.7-6.3,9.7c1.5,13-10.5,17.5-15.2,26.5c-1.6,3.1-6,5.1-9.4,6.8
		c-11.2,5.8-22.7,11.3-33.9,17c-4,2.1-7.8,4.7-12.5,7.6c5.1,20,15.2,37.2,22.9,55.4c7.8,18.3,16.2,36.5,24.3,54.7
		c7.8,17.6,15.6,35.3,23.4,53c8,18.3,15.9,36.6,24.4,56c-2.8,2.2-5.5,5.1-8.8,6.7c-18,8.8-36.3,15.9-57,15.8
		c-10-0.1-20.2,2.5-27.3,10.4c-6.7,7.4-14.4,10.7-24.1,12.3c-12.3,2-13.1,4.1-15.1,17.1c-1.7,10.6-3.3,20.8,0,31.6
		c1.2,3.9-0.1,9.3-1.8,13.4c-7.5,19.2-15.1,38.4-23.4,57.2c-9.7,21.9-20.4,43.4-30.1,65.3c-2.3,5.3-3.5,11.5-3.5,17.3
		c0,9-2.7,16.5-6.8,24.5c-6.8,13.1-13.8,25.8-23.9,36.6c-6.3,6.8-12.3,14.1-21.4,17.7c-9,3.6-15.3,10.2-20.5,18.3
		c-10.8,16.6-29.1,19.5-46.1,24.6c-0.6,0.2-1.5,0.2-2-0.2c-12.1-8.7-24.3-1.5-36.5-0.2c-5.3,0.5-10.6,0.9-15.9,0.9
		c-5.6,0-10.3,1.2-14.5,5.3c-6.7,6.6-14.7,7.6-24,6.6c-17.1-2-34.3-2.5-50.6-9.3c-2.7-1.1-6.6-0.8-9.5,0.2
		C6142,1532.3,6136.1,1535.2,6128,1538.8z"/>
	<path onclick="modals(this.id);" id="2643" class="st0" d="M5242.1,2610.8c3.7,10.2,0.9,21.5,6.4,30.6c8.5,4.9,16.1,1.9,23.2-0.2
		c8.3,4.7,16.3,9.4,24.4,13.6c5.7,3,11.7,2.6,17.3-0.2c6.6-3.3,13.1-5.9,20.7-6.6c8.9-0.9,10.5-4.1,10.7-15.2c0-1.2,0.4-2.4,0.9-4.8
		c6.5,2.7,12.2,7.1,20.1,5.6c6.9-1.4,14.5,0.4,22.5,0.9c1.5,1.5,3.8,3,5.1,5.1c5.8,9.4,13.7,13.9,24.9,13.3
		c5.2-0.3,10.6,0.9,15.7,2.3c10.7,3,21,2.3,31.2-2.1c4.8-2.1,10.1-4,15.3-4.5c15.9-1.5,22.5-12.6,27.5-25.4
		c2.1-5.5,2.8-11.6,3.7-17.5c1.9-11.9,5.8-23.1,11.6-33.8c2.9-5.3,6.7-5.7,12.5-3.3c1.2,3.8,1.9,8.4,3.9,12.4
		c8.6,17,24.1,25.4,41,31.8c7.6,2.9,14.4,1.5,19.7-5.1c3.4-4.3,7-7.3,12.9-8.3c30.8-5.3,61.5-11.2,92.2-16.8c4.5-0.8,9.1-1,14.6-1.6
		c4.2,14,13.9,22.7,25.6,29.4c7,4.1,9.6,10.9,12.1,17.7c7.6,20.6,14.8,41.3,22.2,62c0.9,2.5,1.9,5,2.5,7.6
		c2.6,11.3,9.3,15.6,21.2,16.7c58.2,5.5,116.2,12.1,174.3,18.4c2.6,0.3,5,1.5,7.7,2.3c4.8,10.3,0.1,21.4,3.9,32.9
		c2.8,1,6.9,1.6,9.7,3.9c2.8,2.3,4.3,6.2,6.8,10.1c2.2-0.1,4.7-0.2,7.3-0.3c17.4-1,17.4-1,29,13.7c6.4,0,13.7,0.2,20.9-0.1
		c2.6-0.1,6.2-0.2,7.6-1.8c9.6-11.6,23.8-5.8,34.8-10.9c6.4,14,6.2,20.3-4.3,26c-10.1,5.5-14.9,12.2-14.7,23.6
		c0.1,3.5-2.7,7.2-4.7,10.6c-1.9,3.3-5.5,6-6.3,9.5c-1.4,6.3-5.2,9.7-10.6,10.3c-19.3,2.1-33.1,12.3-44.3,27.4
		c-5.7,7.7-13.7,11.8-23.6,13.5c-15.3,2.6-30.4,2.7-45.6,0.3c-6.8-1.1-13.3-2.2-16.8,6.1c-1.9,4.6-6.6,3.9-10.4,3.9
		c-28,0.1-56-0.1-84,0.2c-7.7,0.1-12.5-3.2-16.2-9.4c-5.1-8.6-10.4-17.1-15.8-25.4c-2.1-3.2-4.9-6.1-7.8-9.6
		c-3.5,1.4-6.8,2.1-9.5,3.8c-5.1,3.2-10.1,6-16.4,6.6c-10.4,1.1-18.6,6.5-25,14.9c-3.6,4.7-7.7,9.3-12.3,13
		c-12.7,10.5-26.7,17.5-44.1,13.3c-1.8-0.4-3.8-0.1-6.6-0.1c-0.7,3.1-1.1,6.3-2.1,9.3c-3.4,10.3-8,19.7-18.9,24.3
		c-3,1.3-6,2.8-8.7,4.7c-22.5,16.5-44.9,33.1-67.4,49.8c-2.4,6-4.1,12.6-7.5,18.2c-6.2,10.3-11.7,20.8-11.5,34.5
		c-4.3-0.6-7.3-1.1-10.3-1.3c-2.5-0.1-5.5-0.6-7.5,0.5c-15.1,8.6-31.5,13.2-48,18.3c-9.9,3.1-20.8,4.9-29.1,12.5
		c-2.3,2.1-5.9,3.4-9.1,3.7c-7.7,0.6-14.1,3.8-19.9,8.5c-8.4,6.8-17.8,8.4-29.2,6.2c-1.6-5.6-2.6-12.1-5.4-17.8
		c-2.8-5.9-8-10.7-10.9-16.6c-3.6-7.6-5.9-15.9-9.8-26.6c-2.7-3.6-9.3,0-15.4-1.3c-0.7-1.5-2.1-3.2-2.2-5
		c-0.2-6.9-1.5-13.5-7.6-17.6c-6.1-4-6.4-12.7-14.8-15.5c-5.6-1.8-9.7-8.3-14.5-12.7c-2-1.8-4.5-3.2-5.9-5.4
		c-13.9-22.1-37.2-20.3-58.5-22.7c-4.4-0.5-9.1,1.3-13.1-1.9c-7.7-6.2-15.6-6.7-24.5,0c-3.9-7.3-7.3-13.6-11.1-20.8
		c6.6-6.9,8.1-15.7,7.4-25.7c-4.9-6.6-16.2-5-20.5-13.6c-0.7-1.3-4.9-1.2-7.5-1.2c-7.3,0.2-14.6,0.9-21.9,1.1
		c-8,0.2-16.1,0.4-22.7-5.5c-0.5-0.4-1.1-1-1.7-1c-9.9-0.8-16.7-6.5-22.5-14c-0.8-1-1.8-2.3-2.9-2.7c-2.5-0.7-5.4-1.8-7.6-1.1
		c-2.7,1-4.8,3.7-6.1,4.7c0.3-9.7,1.2-20.8,1-32c-0.3-15.3,5-29.3,12.6-41.6c9.3-15,10.4-31.3,12.3-47.6c1.9-16.5,2.7-33.1,4.5-49.6
		c1.1-10.1,5.2-13.5,15.9-13.8c14.7-0.3,29.3,0.1,44-0.3c3.6-0.1,7.1-2,11.7-3.4c-9.3-18.8-24.1-31.6-35.6-46.8
		c-11-14.6-24-27.7-34.7-43.9c3.2-0.9,5-1.9,6.7-1.9c26.6,0.6,53.2,1.2,79.9,2C5238.6,2608.9,5240.4,2610.2,5242.1,2610.8z"/>
	<path onclick="modals(this.id);" id="2641" class="st0" d="M5255.9,2635.2c-2.1-12.1-3.8-22.4-5.7-33.7c-16.8-1.7-33.2-3-49.8-3c-60,0-119.9,0-179.9,0
		c-6.6,0-13.2,0-22,0c2-3.8,2.7-6.1,4.2-7.7c2.7-2.9,6.2-5.1,8.7-8.1c4.9-5.9,3.6-14.3-3-19.2c-2.6-2-5.8-3.1-8.8-4.7
		c1.5-4.9,5.5-2.9,8.2-2.9c57.3-0.1,114.6-0.3,171.9,0.1c15.2,0.1,30.4,2.2,46.7,3.4c2.8,3.7,6.2,7.7,9.1,12
		c7.9,11.6,15.3,23.4,23.3,34.8c10.1,14.4,28,17.2,41.9,6.6c4.7-3.6,8.6-8.4,12.2-13.1c4.8-6.3,9.1-13.1,13.6-19.7
		c4.6-6.6,9.7-12.7,17.2-16.3c8.7-4.2,13.9-11.2,19.7-18.9c9.7-12.9,16.7-27.1,24.6-40.9c3.9-6.8,8.6-11.7,16.5-12.9
		c1.3-0.2,2.6-0.4,3.9-0.9c18-5.9,23.6-13.5,17.7-31.3c-5.2-15.7-3.4-29.7,2.1-44.2c0.5-1.2,1.1-2.5,1.3-3.8
		c1.8-14.8,10.8-19.9,24.9-19.7c8.6,0.1,17.2-1.6,25.8-2c11.8-0.5,20.8,5.6,23.8,16.9c1.7,6.3,2.1,13,2.7,19.6
		c0.8,7.9,1.1,15.9,1.7,23.9c0.6,7.6,3.2,14.2,9.7,19c8.2-2.5,16.1-6.1,24.4-7.1c7.7-0.9,15.7,0.9,23.9,1.5c0.9,0.6,2.6,1,3,2
		c6.9,15.7,22.1,17.8,35.9,21.8c7,2,12.8-2.3,18.6-5.7c7.3-4.2,12.9-11.2,22.1-12.9c2.9-0.5,5.8-5.3,7.1-8.8
		c1.7-4.9,2.5-10.4,2.6-15.7c0.9-29.9,1.4-59.9,2.2-89.8c0.3-10.5-1.2-21.2,1.7-32.6c12.2-2.5,24.2-0.7,35.9-1.4
		c6.3-0.4,13.2,2,18.4-4.7c1.2-1.5,6.6-1.1,9.1,0.1c11.3,5.8,23.4,4.7,35.3,4.4c3.8-0.1,8.8-0.5,11.3-2.8c6.1-5.9,13.2-5.5,20.5-5.4
		c11.2,0.1,22.4-0.5,32.6,0.6c5.4,7.2,3.9,14.2,3.6,20.6c-0.5,10.6,1.4,19.7,10.3,26.5c3.1,2.4,5.1,6.1,7.7,9.1
		c12.9,15.3,15.8,17.1,35.1,21.1c3.6,23.3-1.1,47.4,2.6,71.4c16.6,4.9,33,5.5,50.3,4.4c11.9,15.6,17.9,34.2,26.1,51.4
		c8.2,17.3,17.7,34.1,23.7,53.9c-4.9,1.5-9.1,3.8-13.4,4.1c-11.2,0.6-22-1.2-33.2-4.2c-23.5-6.3-47.5-12.5-72.4-10.7
		c-1.9,0.1-3.9-0.5-7.1-1c-1.7-4.3-3.5-9-5.7-14.4c-3.8-0.4-7.6-1-11.5-1.1c-11.3-0.3-22.5-0.4-31.1-10c-3.3-3.7-9.1-3.6-13-0.7
		c-8.9,6.6-19.7,7.3-30.7,10.3c-7.2,18.4-5.6,38.7-10.6,58.3c-17.7-1.9-19.4-18.8-29-29.3c-4.4,0-9.7-0.8-14.7,0.1
		c-32.1,5.9-64,12.2-96.1,18.2c-7.3,1.4-14.2,2.6-18.8,9.6c-3.4,5.1-9.4,5.4-14.4,2.7c-8.6-4.9-17.2-10.1-25-16.2
		c-3.4-2.6-5-7.7-6.9-11.9c-1.3-2.9-1.4-6.5-2.7-9.4c-4.3-9.8-10.1-12.3-20.9-8.9c-2.5,0.8-4.7,2.4-7.7,3.9c-7,16-13,32.7-15.8,50.6
		c-1,6.3-4.4,12.4-7.3,18.3c-2.8,5.6-7.7,8.4-14,10.1c-30.4,8.4-30.3,8.4-62.4,5c-6.5-0.7-11.7-3.1-15.1-8.4
		c-6.5-10.2-15.5-13.8-27.3-12.2c-13.5,1.9-24.5-3.5-34.5-13.7c-4.7,3-8.8,5.7-13.6,8.8c2.7,6.6,4.9,12,7.4,18
		c-9,3.3-17.3,7-25.9,9.4c-9.2,2.6-17.5-1.3-23.6-7.6C5276.9,2629.7,5268,2630.2,5255.9,2635.2z"/>
	<path onclick="modals(this.id);" id="2640" class="st0" d="M5774,2171.1c8.8-9.3,23-8.8,31-19.7c-2.2-6.4-4.5-13.1-7.4-21.3c32.7-1.8,64.3-3.5,97.1-5.2
		c5.5,10.9,10.9,21.3,17.1,33.6c2.6-0.1,7.7,1.1,11.1-0.8c7.1-3.9,14-3.6,21.3-2.2c15,3,30,6.1,44.9,9.5c9.9,2.3,13.1,6.1,14,16.5
		c0.5,6.6,0.7,13,4.1,19.3c1.6,2.9,0.8,7.9-0.5,11.3c-4.8,12.6-1.9,23.1,6.1,33.4c4,5.1,7.6,11.1,9.4,17.3
		c3.5,11.8,12.3,16.8,22.8,19.9c5.1,1.5,10.4,1.9,16.6,3c5.7,6.5,11.1,13.6,10.7,23.9c-0.2,7.9,4.2,14.2,10,18.7
		c7.1,5.5,9.2,12.7,10,20.8c1.3,12,1.4,23.8-3.1,35.4c-3.1,7.9-6.8,16.1-2.5,25c0.5,1.1,0.6,2.9,0,3.9c-5.3,8.8-0.8,16.5,3.2,24.1
		c-4.9,13.5-9.8,26.6-14.8,40.3c-4,0.2-8,1.1-11.8,0.6c-35.5-4.8-70.9-9.9-106.4-14.9c-2.6-0.4-5.4-0.3-7.9-0.9
		c-8.6-2-12.7-6.3-13.2-15.2c-0.5-8.6-0.8-17.4,0.4-25.9c1-7.2-0.6-13-4.2-18.8c-5-7.9-9.7-15.9-14.4-23.9
		c-2.7-4.6-5.9-9.2-7.2-14.2c-4.5-17-15.7-30.5-23.7-45.6c-4.9-9.4-10.4-18.4-12.7-29.1c-1.1-4.9-4.4-9.6-7.5-13.8
		c-5.1-7-10.5-13.7-16.3-20.1c-8.5-9.4-16.1-18.9-22.2-30.3c-5.5-10.1-15-18.9-29.3-16.5c-3.2,0.5-6.7,0.1-10-0.2
		c-4.4-0.4-8.5-2.8-8.2-7.2C5781.2,2190.9,5775.6,2181.5,5774,2171.1z"/>
	<path onclick="modals(this.id);" id="2642" class="st0" d="M5906,2635.9c-7.7,3.6-10,9.8-13.2,16.1c6.9,8.7,17.2,10.3,25.9,14.7
		c8.9,4.5,18.1,8.2,28.1,12.7c2.6,13,5.2,25.9,8,40.1c-18.8,1.9-36.2-1.9-53.6-3.7c-17.8-1.8-35.7-3.3-53.5-5.7
		c-17.6-2.5-35.7-2-53.4-8c-9.9-27.8-19.9-55.3-29.5-82.8c-1.3-3.7-1.7-7.8-1.5-11.7c1-18.5,3.8-36.8,7.4-54.7
		c10-3.7,19.2-7.2,30.1-11.2c4.7,3.2,9.1,9.7,17.1,9.7c7.3,0,14.6,0.6,22.8,1c1.4,4.3,2.8,8.6,4.5,13.9c11.3,3.4,23.8,4,36.2,4.6
		c12.6,0.6,25.5-1.5,36.6,6.8c20.1,3,39.9,9.4,60.7,5.4c5.1-1,10.4-0.9,15.2-1.2c4-5.1,1.3-9.2-0.6-13.4
		c-11.9-25.3-23.9-50.5-35.8-75.8c-2.7-5.9-6.6-11.5-5.7-19.7c22.1,2.6,43.6,5.1,65.1,7.8c15.8,2,31.5,4.5,47.3,6.5
		c10.2,1.3,17.3,5.4,19.3,16.6c0.9,4.9,3.9,9.8,6.8,14c7.1,10.4,14.7,20.4,21.8,30.1c-0.5,9.1-9.5,13.4-8.9,22.6
		c0.4,5.8-6.3,8-12,7.5c-9.2-0.7-13.2,3.8-14.9,12.3c-1.3,6.4-3.7,12.7-5.6,19c-7.7,2.2-13.5-2.1-19.5-4c-6.6-2.1-12.5-1.9-19.4-0.5
		c-16.9,3.2-29.4,14.5-44,22c-9.5,4.8-18.8,10.2-27.6,16c-8,5.3-15.8,5.7-24.6,2.5C5925.5,2641.7,5915.3,2638.9,5906,2635.9z"/>
	<path onclick="modals(this.id);" id="2639" class="st0" d="M5658.9,2083c5.3-4.7,9.8-4.7,14.4-2.9c34.5,13.6,70.5,23.9,102.2,44.3
		c9,5.8,13.2,14.2,18.2,21.7c-4.3,7.9-11.5,8.5-17.2,11.4c-12.5,6.2-15.3,12.3-9.5,25.3c2.6,5.8,2,11.6,2.9,17.4
		c2.1,13.3,8.1,19.8,21.1,18.7c17.2-1.4,28.1,4.6,33.9,20.7c1.1,3,3.5,5.6,5.6,8.1c10.1,12.3,20.3,24.6,30.3,37
		c2,2.5,4.2,5.5,4.8,8.6c3.4,18.2,14.7,32.6,23.6,48c3.6,6.3,7,12.3,9.7,19.2c4.6,11.6,10,23.5,17.5,33.4
		c13.1,17.1,11.7,36,10.6,55.2c-0.3,4.8-4.7,7.8-10.1,7.4c-7.3-0.6-14.5-1.5-22.3-2.3c-5.1-5.4-5.6-12.5-5.6-19.9
		c0-13.3,0.1-26.6-0.1-39.9c-0.1-4.5-1.1-9-1.8-14.5c-15.7,1.7-25.2-7.2-34.5-17c-5.5-5.8-12-10.6-15.2-13.4
		c-4.8-16.9,0.1-30.6-4.9-44.5c-3.8-0.5-7.6-1.4-11.4-1.5c-13.3-0.2-26.6-0.1-39.9-0.1c-6,0-11.2,1.4-16.9,4.1
		c-11,5.3-23.2,3.8-34.8,0.2c-5.1-1.6-9.9-3.9-15.1-5.2c-4-1-8.2-0.6-10,4c-1.5,3.7-4.3,4.9-7.7,4.9c-11.9,0.1-23.8,0-36.7,0
		c-0.7-4.7-1.5-8.4-1.9-12.2c-0.5-4.5-0.1-9.2-1.1-13.6c-2.3-10-2.2-19.8,1.6-29.4c2.3-5.8,2.3-11.4,0.9-17.5
		c-1.3-5.8-1.6-11.8-1.6-17.8c-0.1-40.6-0.1-81.2,0-121.8C5658,2093.5,5658.6,2087.6,5658.9,2083z"/>
	<path onclick="modals(this.id);" id="2627" class="st0" d="M5912.4,1946.8c-2.9,2.4-4.4,3.7-6,4.8c-13.7,9.5-13.9,9.6-8.8,25.1c5.3,16.3,1.2,30-10.6,41.8
		c-3.3,3.3-7.4,6.1-9.7,9.9c-5.5,9.1-13.4,12.3-23.4,12.3c-39.2-0.1-78.6,2.2-117.2-7.4c-5.9-1.5-11.6-2.5-17.5,0.2
		c-2.3,1-5.3,1.3-7.8,0.9c-17-2.3-34-4.9-52-7.5c-1.4-16.3-3.9-31.9-2.9-47.7c0.4-6.8,0.4-13.2-2.7-19.4c-3.7-7.5-4.6-15.9-1.3-23.3
		c5.1-11.4,5.7-23.1,5.5-35.1c0-1.9,0.6-3.8,1.1-6.3c34.4-1,68.4,2.2,102.4,3.7c6.1-5.1,6.8-15.7,17.1-15.2
		c2.6-3.8,5.1-7.6,7.8-11.5c5.7-3.2,11.6-0.9,17.4,0.1c29.5,4.7,58.6,11.7,88.2,15.4c3.8,0.5,7.5,2.5,11.3,3.5
		c9.6,2.5,13.2,7.5,8.6,14.9c-5.6,8.9-5.7,16.9-1.7,26.2C5912.1,1936.3,5911.7,1941.3,5912.4,1946.8z"/>
	<path onclick="modals(this.id);" id="2636" class="st0" d="M6099.6,2827.7c5.8,14,11.7,27.9,18.3,43.7c-0.7,3.3-1.5,8.5-3,13.5
		c-4.3,14.6-3.2,28.9,1.1,43.2c4.3,14.4,13.7,24,28,28.5c6.3,2,12.7,3.7,19.1,5.5c15.8,4.5,22.1,16.4,22.7,31.3
		c0.6,15.2-0.6,30.6-1.2,45.8c-0.1,4-0.8,7.9-1.2,11.9c-1,1-1.8,2.4-2.9,2.7c-20.2,4.2-17.9,5.7-23.1,20.4c-0.9,2.5-2,4.8-3.4,8
		c-18.7,3.4-38.4,3.4-56.4,14.9c-4.1,8.2-13.1,16.5-9,29.8c-1.2-1.8-2.9-3.4-3.6-5.3c-10-25.4-22.7-49.5-35.6-73.6
		c-4.4-8.2-7.8-16.9-12.2-25.1c-4.9-9.2-10.7-16.9-23.5-14.2c-3.1,0.7-7.8-1.6-10.5-4c-7.7-6.8-16.7-10.5-26.3-13.7
		c-10.7-3.5-21.4-6.8-29.4-15.9c-5-5.7-8.9-11.4-9.7-19.1c-1-9.9-2.2-19.8-3.4-29.9c3-6.3,13.3-2,15.7-10.3c0.4-1.4,6-1.8,9.3-1.9
		c8.7-0.3,17.3-0.2,26-0.1c19.8,0.3,36.4-5.6,47.9-23.2c6-9.1,15-14.9,26.1-17c3.9-0.7,7.8-1.8,11.6-3c7.2-2.4,12.8-6.4,16-13.8
		C6091,2847.4,6097.4,2838.7,6099.6,2827.7z"/>
	<path onclick="modals(this.id);" id="2646" class="st0" d="M6554.5,3273.3c-4.4-5.6-8.8-11.2-13.3-16.9c-6.6-3-12.9-2-18.6,2.4c-9.1,7-19.4,11.5-30.4,14.7
		c-7.2,2.1-14,5.7-18.1,11.9c-8.4,12.6-21.6,19.5-32.4,29.2c-7.3,6.6-16,11.5-22.9,18.9c-5,5.4-12.3,7.6-21,8.9
		c0-3.6-0.4-6.6,0.1-9.5c1.1-6.5,3-13,4.1-19.5c1.5-9.3,1.9-18.4-3.9-26.9c-2.6-3.8-4.3-8.3-5.5-12.8c-5.4-18.9-17.8-30.2-36.2-36.5
		c-13.1-4.5-25.5-10.9-39.1-16.8c-2.2-20.2-0.7-40-1-60.2c27.9-13.9,59.1-17.1,86.8-31.5c-6.3-21.6-12.2-42-18.1-62.3
		c-1.3-4.5-2.8-8.9-3.6-13.5c-0.9-5.8,2.3-8.6,9.2-8.7c2.4,4.8,5.3,10,7.6,15.4c7.3,16.4,14.2,33,21.5,49.4
		c3.8,8.5,6.4,9.7,15.6,7.7c7.6-1.7,15.1-3.6,22-5.3c3.7,4.2,1.9,7.4,1.1,10.5c-2.7,10.1-1.2,19.6,2.1,29.3
		c2.1,6.1,5.6,10.5,10.4,14.2c3.1,2.4,7.9,3.5,9.9,6.6c7.4,11.3,16.9,20.4,27.6,28.4c1.8,1.4,3.1,4.4,3.5,6.8
		c2.7,16.5,12.9,27.2,26.3,35.9C6548.5,3249.9,6555.4,3259,6554.5,3273.3z M6696.8,2986.8c-5.4,12-11.4,19-25.4,16.4
		c-2.9-0.5-7.2,0.2-9.3,2.1c-8.5,7.3-18.7,9.5-29.3,11.4c-3.8,0.7-7.3,3-10.8,4.7c-7.2,3.4-14.3,6.8-21.5,10.2
		c-6.6,3.1-13.4,5.9-19.8,9.2c-15.4,8-31,15.4-47.9,19.3c-21.1,4.9-36.2,16.6-48.5,37.6c15.4,9.3,30.7,18.2,50,16.4
		c6.4-0.6,13.2,1.1,19.7,2.6c5.6,1.3,10.7,1.6,14.9-2.4c4.9-4.6,10.7-5.1,16.7-4.7c15.7,1,26.3-7.6,35.3-18.8
		c4.2-5.2,7.5-11.1,11.8-16c3.9-4.4,8-9.2,13.1-11.9c15.5-8.2,28.4-19.6,41.3-31c6.3-5.6,12.6-9.5,21.2-9.2c1.8,0.1,3.6-1.4,5.7-2.2
		c5.3-8.9,6-18.9,6-28.8c0-7.6,1.7-14.4,5.3-20.9c1.5-2.8,2.5-5.8,3.7-8.8C6714.1,2965.9,6702.5,2974.2,6696.8,2986.8z"/>
	<path onclick="modals(this.id);" id="2638" class="st0" d="M5856.2,2049.9c7.3,42.4,3,35.6,30.2,62c-0.1,3.6-2.6,4-5.4,4.2c-23.2,1.5-46.4,2.8-69.6,4.5
		c-15.8,1.2-30.1-1.5-43.7-10.5c-11.6-7.6-23.7-16.2-36.7-19.6c-23.8-6.1-45-20.5-70.6-20.9c-4.2-9.8-2.3-19.6-1.9-30.6
		c7.7-1.1,14.8-0.3,21.8,0.5c15.9,1.8,31.6,4.7,47.5,5.5c22.7,1.1,44.9,4.1,67,8.9c2.5,0.6,5.9,1.3,7.8,0.2
		C5819.7,2044,5837.6,2050.6,5856.2,2049.9z"/>
	<path onclick="modals(this.id);" id="2645" class="st0" d="M6430.5,3106.7c-14.5-24.3-21.6-51.7-36.3-76.5c-6.5,2.5-12.4,4.7-19.4,7.4
		c-2.9-10.7-3.6-19.6,4.2-28.2c8.5-9.3,15.9-19.5,24.5-30.2c4.3,2.2,8.2,4.4,12.3,6.2c6.6,2.9,13.2,6.2,20.2,8.2
		c6.5,1.8,12.7,3.3,17.8,8.2c2.2,2.2,5.6,3.9,8.7,4.3c11.3,1.5,17.1,9.2,22.1,18.1c1.3,2.3,2.3,4.8,3.8,7c3.9,5.4,7.6,10.9,16,9.3
		c2.5-0.5,5.6,2.4,9.7,4.4c-3.7,6.1-5.9,11.9-9.9,16c-12.2,12.3-24.2,24.9-37.8,35.4C6456.5,3104.1,6443.7,3106.5,6430.5,3106.7z
		 M6371.6,3091.9c-15,5.4-29.7,1.9-44.1,2.7c-15.1,0.9-30.4-1.3-45.4,1.3c0.6,8.8,0.5,9,3.9,10.5c9.7,4.2,19.4,8.2,27.5,11.6
		c5.3,10.3-0.3,20.3,5.2,28.4c17.8-3.5,60.7-17.8,72.6-24.2c-4.7-16.1-7.5-33-17.3-52.5C6372.9,3080,6372.2,3085.8,6371.6,3091.9z"
		/>
	<path onclick="modals(this.id);" id="2615" class="st0" d="M5954.2,2673.8c-15.2-10.1-33.4-13.6-50.2-26c17.7-0.3,30.3,8.5,45.3,10.4
		c14.7-5.7,27.6-16.6,44.2-23.3c2.9,5.7,2,10.8,1.8,15.8c-0.2,6-0.6,11.9-1,17.9c-0.3,5.3-0.9,10.6-1.1,15.9c-0.2,5.3,0,10.5,0,16.5
		c5.9,6.6,15,7.4,22.6,11c4.2,2,4.2,2,4.9,12.1c-18.2,4.7-36,1.3-54.4-2.4C5959.7,2706.8,5960.2,2690.3,5954.2,2673.8z"/>
	<path onclick="modals(this.id);" id="2616" class="st0" d="M6018.7,2620.2c13.1-7.2,24.2-8,37.3-3.1c12.5,4.7,18.5,11.7,18.9,24.5c0.1,2.6,0.8,5.2,1.2,7.8
		c6.7,5.4,13.2,10.7,20.1,16.3c-7.4,12.5-14.3,24.1-20.9,35.1c-7.7-7-14.2-13.5-21.4-19.1c-9.7-7.4-17.2-16.3-21.9-27.6
		C6027.4,2643.3,6021.1,2633.1,6018.7,2620.2z"/>
	<path onclick="modals(this.id);" id="2630" class="st0" d="M4926.1,3839.9c2.1,4.8,3.7,8.3,5.2,11.7c-14.3,6.8-43.3,14.1-66.3,16.8
		c-5.6-3.9-9.1-9.1-8.7-17.4c10.6-6,23.1-3.9,34.5-6.5C4901.7,3841.9,4913.1,3841.5,4926.1,3839.9z"/>
	<path onclick="modals(this.id);" id="2622" class="st0" d="M6105.4,2771.4c-3.8,1.6-7.3,3.8-10.9,4.5c-14.4,2.6-22.7,2.2-22.4-17.4
		c0.2-14.7-0.4-14.7-7.6-26.2c1.7-2.4,3.6-5,5.4-7.5c1.6,0.7,3.1,0.9,4,1.7c6.1,6.1,11.9,12.4,18.1,18.4
		C6099.2,2751.9,6104.8,2759.7,6105.4,2771.4z"/>
	<path onclick="modals(this.id);" id="2619" class="st0" d="M6003.4,2668.1c0.4-8.6,0.5-17.2,1.4-25.7c0.2-2.2,2.4-5.1,4.4-5.9c1.3-0.5,5,1.7,5.7,3.5
		c7.1,18.5,8.3,37.2-0.6,55.5c-0.8,1.7-4.3,3.3-6.3,3c-2-0.3-5-3-5.1-4.7c-0.5-8.5-0.2-17.1-0.2-25.7
		C6002.9,2668.1,6003.2,2668.1,6003.4,2668.1z"/>
	<path onclick="modals(this.id);" id="2631" class="st0" d="M4869.9,3880.9c20-8.1,41.1-8.5,60.9-13.4c4.2,7.2,3.9,11.4-0.9,13c-3.1,1.1-6.4,1.6-9.6,2.2
		c-12.2,2.4-24.4,5-36.8,6.7c-3.5,0.5-7.5-1.3-11-2.8C4871.3,3886.1,4871,3883.4,4869.9,3880.9z"/>
	<path onclick="modals(this.id);" id="2624" class="st0" d="M5996.3,2758.2c0.4-8.3,0.7-14.6,1-21.6c10-2.7,18.9-1.7,28.4-0.8c3.7,7.1,2.3,14.1,1.6,21.8
		C6017.6,2761.2,6008.2,2760.2,5996.3,2758.2z"/>
	<path onclick="modals(this.id);" id="2625" class="st0" d="M6029.8,2768.7c2.4-0.6,4.8-1.4,7.3-1.9c14.9-3,14.9-2.9,24.4-10.9c4,3.6,2,8.5,2.6,12.7
		c0.6,4.5,1,9.1,1.6,13.9c-7.6,4.5-14.4,5.5-19.4-2.3C6042.3,2773.9,6036.3,2772.1,6029.8,2768.7z"/>
	<path onclick="modals(this.id);" id="2618" class="st0" d="M6029.3,2677.1c9.9,3.8,16.5,9.8,24.3,17.3c-8.7,3.9-16.1,7.5-23.7,10.6c-3.5,1.4-8-3-6.9-7
		C6024.7,2691.1,6027,2684.4,6029.3,2677.1z"/>
	<path onclick="modals(this.id);" id="2632" class="st0" d="M4816.9,3906.3c-5.8-4.4-6.3-9.2-1.5-12.1c11.9-7,24.6-12.4,38.8-12.3c1.9,0,4.9,2.5,5.3,4.3
		c0.4,1.8-1.6,4.4-3.3,6.1c-1.3,1.3-3.5,2.1-5.3,2.2C4838.2,3895.4,4826.6,3899,4816.9,3906.3z"/>
	<path onclick="modals(this.id);" id="2620" class="st0" d="M6029.6,2722.1c3-4.9,4.1-9.4,6.8-10.7c5.2-2.5,11.3-3.2,17.1-4.4c3.8-0.8,8.6-2.1,10,2.8
		c0.7,2.5-0.9,6.3-2.4,8.9c-3.7,6.4-9,9.3-16.7,6.6C6040.8,2724.2,6036.8,2723.7,6029.6,2722.1z"/>
	<path onclick="modals(this.id);" id="2621" class="st0" d="M6080.6,2709.8c9.6-1,12.9,5.6,17.6,9.8c3.4,3.1,6.6,6.5,9,10.3c1.1,1.7,1.2,5.6,0,7
		c-1.2,1.4-5,2.1-6.9,1.2C6088.8,2733,6081.6,2724.4,6080.6,2709.8z"/>
	<path onclick="modals(this.id);" id="2628" class="st0" d="M4851.6,3870.4c-15.6,4.9-27.9,8.8-42.6,13.4c3.5-8.7,10.4-10,15-13.6c5.2-4,11-7.3,17.7-11.6
		C4844.5,3862,4847.2,3865.2,4851.6,3870.4z"/>
	<path onclick="modals(this.id);" id="2623" class="st0" d="M6039.4,2732.2c7.3,5,10.8,7.4,13.7,9.4c0,2.2,0.5,3.7-0.1,4.5c-1.8,2.7-3.7,5.3-6,7.5
		c-2.4,2.4-7.4,0.9-7.6-2.2C6039.2,2746.4,6039.4,2741.4,6039.4,2732.2z"/>
</g>
</svg>
