<?xml version="1.0" encoding="utf-8"?>
<!-- Generator: Adobe Illustrator 19.0.0, SVG Export Plug-In . SVG Version: 6.00 Build 0)  -->
<svg version="1.1" id="Layer1" xmlns="http://www.w3.org/2000/svg" xmlns:xlink="http://www.w3.org/1999/xlink" x="0px" y="0px"
	 viewBox="0 0 6000 3000" style="enable-background:new 0 0 6000 3000;overflow: hidden; display: inline; width: inherit; min-width: inherit; max-width: inherit; height: inherit; min-height: inherit; max-height: inherit;" xml:space="preserve">
<style type="text/css">
	.st0{fill:#8FD4EB;stroke:#000000;stroke-width:2;}
</style>
<g>
	
	<path onclick="modals(this.id);" id="2660" class="st0" d="M2809.4,1939.6c-15.9,6.3-21.8,23.6-14,38.2c5.1,9.6,12.5,12.7,22.7,12.7
		c12.9,0,25.8,0.9,38.6,1.5c8.6-13.6,16.4-27.4,35.2-25.8c0.7-1.5,1.5-2.6,1.8-3.8c1.7-7.2,6.1-10.4,13.5-12.3
		c8.6-2.3,15.8-8.1,19.5-16.9c4.1-9.5,7.8-19.1,11.8-28.6c2.5-5.8,5.2-11.5,8-17.1c3.5-7.2,8.6-9.9,14.1-5c8,7.1,17.4,7.1,26.9,8.2
		c2,8.9,3.8,17.2,5.8,26.3c-2.5,0.6-4.6,1.4-6.7,1.5c-10.4,0.3-19,5.7-28,9.7c-3,1.3-6,4.7-7.1,7.8c-1.6,4.5-4.4,6.1-8.4,7.4
		c-3.8,1.2-7.3,3.2-11.2,4.3c-5.7,1.6-7.6,5.5-8.6,10.8c-1.2,6.1-3.1,12.1-4.3,18.3c-1.9,10-3.5,20-5.3,30.8
		c-24.8-0.7-50.6-1.4-76-2.1c-5.2,6-7.5,11.7-7.2,18.9c0.4,12.8,0.1,12.8-8.5,25.2c-26.7-1.5-52.8-13-80.8-6.8c0,5.4,0,10.6,0,17.1
		c7.6,0.4,15,0.7,23.3,1.1c-0.8,7.7,4,11.2,9.9,14.7c7.4,4.4,14.2,9.9,20.6,15.7c3.6,3.2,7,7.5,8.4,11.9c1.7,5.4,4.2,9.6,8.3,13.2
		c9,8.1,16.8,16.8,18.5,29.8c0.5,3.6,4.6,7.1,7.9,9.7c4.3,3.4,9.5,5.8,13.2,8c7.1-1.8,8.7-12.4,17.5-6.8c0.7,28.3,1.4,56.8,2.2,86.5
		c6.4,0.2,12.2,0.6,18.1,0.7c7,0,14-0.4,21-0.3c7.1,0.1,9.3,1.7,10.9,8.9c1,4.5,3,6.1,7.7,7.3c16.2,4.2,31.1,11.8,44,22.5
		c4.4,3.7,6.8,9.7,10.5,15.1c6.8-2.9,11.1,0.8,15.3,5.6c2.4,2.7,5.3,6.1,8.3,6.6c9.8,1.5,17.5,7.7,26.5,10.8
		c14.6,5,24.2,16.2,31.6,29c6,10.4,12.7,20.2,20.4,29.4c4.3,5,7.7,10.8,11.2,16.4c4.3,6.8,9.6,11.7,18,12.5c3,0.3,5.9,1.3,8.8,1.5
		c6.7,0.4,11.9,3.1,16.8,7.7c2.7,2.6,6.7,4.4,10.4,5.3c5,1.2,9-1.6,10.2-6.6c0.9-3.6,1.3-7,5.8-8.3c6.3-1.8,12.2-6.1,19.1-2.4
		c2.6,1.4,5.3,3,7.4,5c8.9,8.4,19.5,13.5,31.1,16.8c2.2,0.6,4.5,2.8,5.5,4.9c3.2,6.6,5.7,13.5,8.6,20.2c1.4,3.2,0.5,5.5-1.8,8.1
		c-3.4,3.9-8.4,6.9-7.5,13.3c1,7.1,3.4,13.4,9.1,18.3c7.7,6.4,15,13.1,22.7,19.5c7.8,6.5,13.8,14.3,17.9,23.6
		c3.3,7.4,7.5,13.8,15,18c6,3.4,7.9,11.8,4.7,18.2c-2.2,4.4-1.7,7.3,2.2,10.3c4.2,3.2,7.6,7.5,12,10.5c6,4.2,7.7,9.6,6.6,15
		c-4.2,3.6-7.5,6.6-10.9,9.4c-2.2,1.8-4.5,4.5-7.1,5c-13,2.4-26.1,4.5-39.2,6.2c-2.5,0.3-5.5-1.4-7.9-2.7c-4.8-2.5-8.5-2.3-13.7,0.5
		c-10.7,5.7-22.4,12.3-34.5,10.2c-8.4-1.4-15.5-0.7-23.2,1.6c-3.8,1.1-7.7,2.2-11.5,3.2c-2.9,0.7-5.8,1.6-8.8,1.5
		c-6.7-0.1-11.4,2.8-14.6,8.4c-2.3,4.1-4.6,8.1-6.5,12.3c-2.3,5.2-6,8-11.6,7.9c-8.4-0.2-15.3,3.2-22.2,7.6
		c-4.6,2.9-10.3,4.8-15.7,5.5c-10.6,1.4-19.1,5.2-24.5,14.9c-1,1.9-3.2,3.1-6.6,3.9c0.8-2.9,1.6-5.8,2.5-8.7c0.9-2.8,2.3-5.6,3-8.4
		c1.2-5.1-0.1-6.7-5.1-7.2c-1.7-0.2-3.3-0.1-5,0c-15.3,0.5-16,1-17.6,15c-2.1,18.5-5.8,36.7-8.7,55.1c-0.5,2.9-0.3,6-0.4,9
		c-0.4,13.9-3.9,27-10.2,39.2c-1.2,2.4-3.8,5.4-6,5.7c-17.4,2.4-22.7,16.4-29.7,29.4c-9.1-3.3-18.7-6.9-28.3-10.1
		c-3.1-1-6.5-1.3-9.8-1.2c-5.1,0.2-8.8-1.7-12.4-5.2c-5.4-5.4-11.2-10.4-17-15.4c-5.6-4.8-11.5-8.7-19.3-9.7
		c-5.7-0.8-10.3-4.5-13.3-9.8c-6.4-11.2-16.2-16.1-28.9-16.1c-6,0-12-0.4-17.8-1.4c-8.1-1.3-14.2,2.2-20,6.8c-1,0.8-1.8,2-3,2.7
		c-10.7,6.5-17.4,15.8-20.6,28c-1.1,4-3.5,7.9-6,11.4c-5,7.1-7,7-13.1,1.3c-4.6-4.3-9.4-8.5-14.8-11.6c-7-4-14.6-6.3-23-4.5
		c-6.5,1.4-11.4-0.8-14.9-6.9c-5.7-9.8-12.2-19.1-17.8-28.9c-1.4-2.5-1.5-6.3-1.1-9.4c2.3-17.5,0.8-19.9-16-25
		c-4.6-1.4-9.1-3.8-13.2-6.4c-5.7-3.7-11.4-6.8-18.5-6c-2.3,0.3-4.7-0.1-7,0.1c-14.7,0.8-28.2,4.1-38.2,16.3
		c-5.8,7.1-12.9,12.5-24,13.3c0-8.2,0-16.3-0.1-24.4c0-14.3-0.8-14.8-13.8-9.8c-5,1.9-9.8,4.3-14.9,5.8c-8.7,2.7-13.1,8.4-13.9,17.4
		c-0.8,8.4-4.4,15.1-12.3,18.9c-0.9-0.6-1.7-0.9-1.9-1.4c-4.8-13.2-10.9-25.6-20.8-35.9c-1.1-1.2-2.1-2.7-2.6-4.2
		c-4.3-12.6-13.2-21.7-23.9-28.5c-10.4-6.6-15-16.4-18.7-27.2c-0.9-2.5-2-4.9-3.1-7.4c-2.6-5.6-6.8-9.5-13.2-8.6
		c-7.9,1.1-14-3.2-18.8-7.4c-3.9-3.4-5.8-10.3-6.5-15.9c-1.7-14.9-3.8-29.7-9-43.8c-4.3-11.5-9.4-22.8-14.9-33.7
		c-9.7-19.2-19.9-38.3-30.4-57.1c-2.5-4.5-7.2-7.7-10.8-11.6c-5.8-6.4-12.1-12.3-17-19.3c-6-8.6-4.5-15.3,3.6-21.7
		c2.8-2.2,6.2-3.8,9.4-5.5c7.1-3.8,13.2-8,18.1-15c3.9-5.6,11.4-8.6,17.2-13c3.3-2.5,8-4.6,9.4-8c5-12,14.7-18.4,25.6-23.7
		c1.1-0.5,2.2-1.1,5-2.5c-17.6-10.9-34.1-21.1-51.9-32.2c12.8-7.2,15.5-18.3,16.4-30.7c0.6-8.5,1.4-17.5,10.8-24
		c-13.3-5.3-24.9-9.9-37.7-14.9c1.9-7,3.3-13.8,5.7-20.2c4-10.8,2.2-15.2-9-18.5c-4.1-1.2-8.5-1.7-12.6-2.7
		c-2.2-0.5-4.2-1.4-6.3-2.1c-0.4-6.3,1.9-10.7,6.1-14.4c11-9.7,15.5-21.9,14.3-36.6c-0.6-8,0.4-15.9,4.1-23.3
		c2.2-4.4,3.4-9.2,5-13.8c-5-4.9-9.7-7.4-15.3-4.8c-2.6-4.9-4.9-9.5-7.1-13.6c-2,0.2-2.9,0.1-3.3,0.4c-8.7,8.5-16.3,2.9-24-1.7
		c-1.4-0.8-2.5-2.2-3.7-3.3c-11.4-9.3-13-9.4-26.5-2.1c-1.4,0.8-2.9,1.2-4.8,2c1.7-4.1,4.2-7.5,4.5-11.2c0.5-5.1-4.5-5.7-8.5-6.5
		c-0.4-2.3-0.8-4.3-1.2-6.2c-0.7-4.1-2.2-7.3-6.9-8.6c-3-0.8-5.9-3.1-8.2-5.4c-4.2-4-5.8-8.6-2.5-14.3c1.9-3.3,4.8-7.5,0.8-10.8
		c-3.9-3.2-7.4-8.1-13.8-5.8c-5.2,1.8-9.1-0.8-12.1-4.6c-4.9-5.9-9.7-11.8-13.9-18.2c-1.6-2.5-2.1-6.2-1.8-9.2
		c0.7-6.6,2.3-13,3.5-19.6c2.2-12.6,2.6-13,16.6-15.4c3.2-12.9,12.7-22.3,22-31.7c4.8-4.9,7.4-10.7,7.4-17.8
		c0-5.3,0.8-10.6,1.9-15.8c1.1-5.1-1-8.4-4.8-11c-4.1-2.8-8.3-5.5-12.7-8c-16.1-9-24.6-23.5-27.6-40.8c-2.3-13.3-8.6-22.6-19.5-29.6
		c-2.6-1.7-4.8-4-8.8-7.5c16.1-1.5,29.8-2.7,43.6-4c-2.5-8.7-8.7-13.4-16.2-13.6c-10.6-0.3-21.2-0.6-31.8-1.5
		c-3.8-0.3-7.5-2.4-11.2-3.8c-4.9-1.9-9.6-2.2-14.1,1.1c-1.9,1.4-4.2,2.1-6,3.5c-8.5,6.6-17.9,11.3-28.7,12.7
		c-4.9,0.7-6.3,4.4-8.1,7.9c-2.8,5.3-4.8,11.1-11.9,12.2c-8.8,1.3-17.1,0.5-25.3-5.4c1.5-3.9,3-7.5,4.3-11.1c2.2-6,0.4-9.1-5.7-9.4
		c-18.2-0.9-35.4-5.5-52-13.2c-7.4-3.4-15.7-5.2-23.8-6.6c-7.7-1.3-14.6-2.4-19.2-10.1c-3.6-6.1-10.3-4.4-15.3-2.3
		c-6.6,2.8-12.6,7-18.9,10.7c-2,1.2-3.9,2.7-6.5,3c6.8-8.4,13.9-16.6,20.3-25.3c4.9-6.5,4-13.5-1.4-19.8c-1.9-2.2-4-4.4-6.4-7
		c2.9-2.9,5.1-5.9,8-8c4.3-3.1,4.3-7,3.4-11.5c-0.8-4.6-4.5-4.9-8-6.1c-4.2-1.4-10.8,0-10.4-8.6c1.5,0.2,3.3-0.2,4.4,0.5
		c11.7,7.9,24.5,11.1,38.6,10.4c8.6-0.4,18.2-1.8,25.5,1.5c6.9,3.2,11.3,11.8,16.7,18.1c10.5,12.4,20.9,25,31.4,37.4
		c2.3,2.7,5,5.6,8,7.3c8.7,4.9,17.9,2.5,25.2-6.7c3.5-4.4,6.1-9.5,8.7-14.5c3.9-7.5,9.6-12.6,17.9-14.7c16.4-4,18.6-7.5,15-24.8
		c7.7-10.7,18.6-15.1,31.6-15.2c4.7,0,9.4,0.3,14-0.2c11.8-1.2,21.9-6,28.2-16.4c2.7-4.5,6.3-6.5,11.1-7.1c8.2-1,16.4-1.9,25.1-2.9
		c1.8,4.5,3.1,8.5,4.9,12.3c1.7,3.5,3.2,7.5,6,9.9c15.5,13.1,31.4,25.7,47.1,38.4c0.8,0.6,1.7,1.1,3.3,2.2c2.8-2.3,6.6-4.2,8.7-7.2
		c9.5-13.5,19.1-12.3,34.5-7.7c3.7,1.1,7.2,3.4,10.5,5.5c7.9,5,15.4,10.5,23.6,15c4.8,2.6,10.5,3.7,15.8,5.5
		c2.5,0.8,5.1,1.3,7.3,2.5c4.8,2.5,8.6,1.9,12.7-1.8c2.6-2.4,5.9-4.2,9.2-5.7c6.4-2.8,12.9-5.2,19.4-7.8c8.5-3.4,15.9-3.5,24,2.8
		c17.5,13.6,37.4,18.2,59.1,11c4.7-1.6,9-1.1,13.5,0.7c9.3,3.7,18.7,6.9,28.1,10.3c3.8,1.4,7.4,0.8,11.4,0.5
		c13.4-1.1,26.9-0.6,40.3-0.6c1.5,0,3,1.3,4.5,2.2c13.1,7.9,26.3,15.6,39.2,23.8c7.6,4.9,15.6,6.3,23.8,3.8
		c12.3-3.8,24.2-3.3,36,1.1c6.7,2.5,12.7,2,18.6-2.7c9.2-7.2,20.3-10.3,31.8-9.9c13.7,0.5,26.3-2.1,39.1-10.4
		c-0.7,8.6,3,13.6,8.3,18.5c9.8,9,12,20,5.9,32.4c-4.2,8.5-8,17.2-12.3,26.5c0,0-0.9,0.1-1.9,0c-13.5-1.2-17.6,1-23.4,13.3
		c-5.3,11.3-7.5,23.3-8.4,35.7c-0.4,5.4,1.9,9.7,4.8,13.8c3.8,5.4,5.3,10.7,3.9,17.6c-1.7,8.7-1.6,17.8-2.3,26.7L2809.4,1939.6z"/>
	<path onclick="modals(this.id);" id="2659" class="st0" d="M1666.1,2255.1c7.2-1.5,13.4-2.4,19.3-4.3c3.3-1.1,7-3.2,9-6c6.2-8.5,12.3-17.3,17.4-26.5
		c3.8-6.8,7.7-13.1,13.7-18.2c6.6-5.7,9.2-12.5,5.9-21.3c-3.3-8.7-5.2-17.9-8.7-26.5c-2.9-7.3-2.4-13.2,2.4-19.5
		c5.7-7.5,5.2-8.9-2.5-14.2c-8.5-5.8-17-11.7-25.7-17.3c-4.1-2.7-6.9-5.9-8.6-10.6c-2.5-6.9-5.5-13.6-8.1-20.4
		c-2.9-7.6-1.7-11.9,5.8-13.9c11.6-3.2,17.9-13.5,27.7-19.1c2.3-1.3,3.3-4.9,4.7-7.5c0.5-0.8,0.3-2.1,0.8-2.9
		c9.9-14.1,5.1-30.6,7.2-45.9c1.6-11.7,2.1-23.6,3.2-36c2.4-0.3,4.7-1,6.9-0.7c10.1,1.5,15.6-5.2,17.9-14.9c1.1-4.4,2.3-7.9,5.8-11
		c4.6-4,5.8-9.3,4.4-15.4c-1-4.2-1.1-8.5-1.4-12.8c-0.7-9.2-3.7-16.8-13-20.7c-2.3-1-4-3.2-6.5-5.2c4.3-7,4.9-13.5,1.3-20.9
		c-2.9-6.1-0.1-12.3,3.2-17.9c3.6-6.1,6.4-12.4,3.6-19.6c0.5-0.6,0.8-1.3,1.3-1.6c13.4-7.9,14.4-11.8,5.5-24
		c-2.6-3.6-4.7-7.2-4-11.9c0.8-5.2-2.1-8-6.4-10c-5.4-2.5-10.9-5-17-7.8c1.6-2.7,2.8-5.3,4.5-7.6c8.5-11.9,17.2-23.7,25.6-35.7
		c2.8-4,6.3-6.5,11.2-7.5c5.5-1.1,11-2.6,16.4-4.2c6.2-1.8,7.3-4.2,5.2-10.4c-0.5-1.6-1.5-3-2.1-4.5c-4.3-10.9,2.7-20.6,14.3-18.9
		c8.6,1.3,15.2-0.2,18.7-8.8c2-4.8,6.7-5,10.5-6.7c7.2-3.3,8-4.8,5.3-12.3c-1.9-5.3-4.6-10.4-6.4-15.7c-3.1-8.6-3.9-17.3-1.8-26.4
		c1.2-5,1-10.4,0.8-15.6c-0.3-7.1,1.6-9.6,8.9-10c2.7-0.1,5.4-0.4,8,0.1c7.8,1.2,14.3-1.4,20.5-5.7c6.2-4.3,6.2-4.3,10.6,2.1
		c3,4.4,5.7,9,8.9,13.2c4.4,6,9.1,11.1,17.9,10.5c6-0.4,11.3,2.5,15.6,7.4c3.2,3.6,7.5,8.3,11.6,8.6c7.4,0.5,15.6-0.5,22.2-3.5
		c4.3-2,7.9-8.3,9.2-13.3c2.5-9.9,9.3-16,16.5-21.8c4.8-3.8,7.7-3.3,11.8,1.7c3.3,4.1,6.1,8.6,8.6,13.2c1.9,3.5,3,7.4,4.6,11
		c5,11.1,12.3,14.6,24.2,11.4c6.4-1.7,12.7-4,19.2-5.5c4.5-1,9.2-1.3,13.8-1.5c7.6-0.2,15.2,0.5,22.7-0.3c5.5-0.5,10.9-2.3,16.2-4.2
		c5.6-2,10.9-4.9,16.5-7c6.3-2.4,12.7-3.2,19.3-0.4c3.2,1.4,7.2,2.1,10.7,1.8c8-0.6,15,1.5,22,5.2c5,2.6,10.2,4.8,15.4,7.1
		c6.8,3,13.9,4.2,21.4,3.2c6.6-0.9,13.1-0.2,19.6,2.3c3.5,1.4,7.8,1.6,11.6,1.1c4.8-0.6,8.9-2.8,8.9-8.9c0-1.5,1.2-3,2.2-5.4
		c8.3,4.4,16.4,8.2,23.9,12.8c6.9,4.2,10.5,16.9,7.6,24.6c-3.9,10.3-7.7,20.3-17.2,27.5c-3.9,2.9-7.5,5.1-12.1,5.8
		c-6.3,0.8-12.5,2-18.8,2.3c-5.2,0.3-8.7,2.3-11.3,6.7c-7.7,12.7-19.6,17.1-33.8,17c-0.7,0-1.3,0-2,0c-15.9-1.2-29.5,3.3-39.8,16.9
		c0.1-0.4-0.1,0,0,0.3c3.6,17.5,3.3,18.2-13.1,22.8c-9.3,2.6-15.4,8.7-19.8,17c-2.6,5-5.1,10.2-8.8,14.3c-8.5,9.6-18,9.1-26.3-0.6
		c-7.3-8.6-14.5-17.4-21.8-26c-8.1-9.7-16.6-19.1-24.3-29.1c-3.1-4-6.3-5.2-11-5.1c-8,0.2-16-0.2-24,0.1
		c-11.7,0.5-22.2-2.5-32.1-8.8c-2.5-1.6-6-1.5-9.1-2.2c-1,10.8,0.3,13.3,9.5,14.4c6.2,0.7,8.9,3.3,8.8,9.3
		c-4.1,4.6-8.1,9.3-12.6,14.3c3,3.3,5.3,5.7,7.4,8.1c5.1,6,5.8,11.7,1,18c-6.7,8.6-14.1,16.8-21.8,25.9c0.7,1,1.9,2.8,3.8,5.7
		c3.4-2.5,6.6-4.6,9.5-7c8.2-6.6,16.8-11.9,28.7-10c1.3,1.8,2.5,4.3,4.4,5.9c2.7,2.2,5.8,5.2,8.9,5.3c17.1,0.8,32.2,7.4,47.4,14.2
		c5,2.2,11,2.2,16.1,4.2c7.9,3.2,16.3,2.6,26.1,2.9c-1.8,4.7-3,8-4.4,11.2c-2.7,6.4-2.1,9.5,3.9,12c8.7,3.7,18.1,5.5,27,1.3
		c3.2-1.5,6-5.3,7.6-8.7c3.4-7.3,8.6-11.4,16.5-12.2c5.5-0.5,10.2-2.5,14.2-6.4c2.4-2.3,5.6-3.5,8.3-5.5c6.5-4.7,12.8-5.4,20.5-1.9
		c11.4,5.2,24.1,5,36.2,4.4c7-0.4,11.1,1.6,17.4,7.3c-15.5,1.6-29,3-42.9,4.5c0.6,7,5,9.9,9,12.2c11.2,6.6,16.2,16.3,18.7,28.9
		c3.3,16.3,10.9,30.7,26,39.8c1.7,1,3.3,2.2,5,3.3c16.9,10.8,13.4,7.2,12.2,27.3c-0.6,9.9-5.1,17.5-12.2,24.1
		c-4.9,4.5-9.4,9.3-14,14c-0.7,0.7-1.2,1.7-1.4,2.6c-1.1,7.1-5.3,10.8-11.9,13.3c-2.3,0.8-4.6,4.1-5.2,6.6
		c-2.3,10-4.2,20.1-5.6,30.3c-0.4,2.6,1.2,5.9,2.8,8.2c4.6,6.5,9.8,12.6,14.6,19c3.1,4,7.7,6.7,12,5.6c6.4-1.7,10,1.2,14.3,5.5
		c-0.7,6.5-7.2,12.8-2.2,20.2c3.9,5.8,9,9.7,16.3,11.4c0.5,2.5,0.9,5.1,1.5,7.6c0.9,3.2,1.8,5.9,5.7,7.4c5,1.9,4.9,3.3,1.1,7.6
		c-1.5,1.7-2.9,3.4-4.3,5c2.1,4.3,5,4.8,8.5,3.1c2.1-1.1,4-2.4,6-3.6c6.9-4,10.7-3.5,17.2,1.3c6.9,5.1,14.1,9.8,21.1,14.6
		c4.8-2.3,8.6-4.1,12.3-5.9c5.9,2.4,3.4,8.2,5,12.5c5.3,1.3,11.7-3.2,16.4,3.9c-1.3,3.3-2.6,7.3-4.3,11.2c-3.6,8.4-4.7,16.8-4.1,26
		c0.7,11.1-2,21.7-10.8,29.9c-3.1,2.9-6.3,6.1-8.3,9.8c-4.4,8.4-1.7,13,7.6,14.7c2.9,0.5,5.9,0.9,8.8,1.6c12.5,2.9,14,5.4,9.4,17.1
		c-2.7,6.9-4.6,13.8-3.7,21.9c5.5,2.1,11.1,4.1,16.6,6.4c5.2,2.1,10.3,4.3,14.4,6c-1.9,7.9-4.4,14.8-5.2,21.8
		c-1.4,13.3-3.1,26.2-20.2,32c9.9,6.3,17.9,11.4,26,16.4c8.2,5.1,16.4,10,25.5,15.6c-3,2-5.1,3.8-7.6,5
		c-8.6,4.5-14.5,11.4-18.5,20.2c-1.1,2.5-3.4,5-5.9,6.2c-9.8,5-19,10.2-24.9,20.3c-2.1,3.6-7.4,5.3-11.3,7.8
		c-3.9,2.5-8.2,4.4-11.9,7.3c-8.4,6.7-10.3,15.6-4.5,24.4c4.8,7.1,10.2,14.2,16.7,19.6c9.3,7.6,15.9,16.8,21,27.3
		c11.4,23.6,23.5,47,33.7,71.1c5,11.7,6.6,24.9,9.3,37.5c1.5,7.1,2,14.3,3,22.4c-9.1-3-17.5,4.5-27.4,2.4c-2.4-0.5-6.1,2.3-8.3,4.4
		c-6.3,6.2-13.5,7.3-21.1,3.9c-8.7-4-17.2-8.5-25.3-13.6c-4.7-3-9.1-4.9-14.7-4.8c-5.2,0.1-10.5-1.1-15.8-1.2
		c-3.5,0-7.2,0.5-10.6,1.7c-7.7,2.7-14.9,3.6-22.9-0.3c-14.1-6.8-35.4,0.4-45,12.7c-8,10.2-16.4,20.1-24.2,30.5
		c-4.1,5.5-7.1,11.7-11.7,19.6c-3.4-24.1-2.1-46.7-6-68.3c-6.1-1.7-9,1.5-11.3,4.6c-8,10.7-19.7,12.8-31.7,14.2
		c-8.1,0.9-16.6-5.2-20.8-14.4c-2.5-5.4-4.9-10.9-7.9-16.1c-2.5-4.3-5.4-8.5-8.8-12.1c-3.3-3.5-7.5-6.3-12-9.9
		c6-8.9,11.9-17.6,18.1-26.7c3.7,0,7.4,0,11,0c14.3-0.1,23.7-7.7,29.9-19.8c4-7.7,1.9-16.3,1.4-24.5c-0.1-2-1-3.9-1.4-5.8
		c-2.1-10.5-1.9-20.3,6.4-28.6c4.4-4.4,8-9.8,11.5-15c1.2-1.9,0.8-4.8,1.1-7.3c-2.5-0.2-5.4-1.2-7.3-0.3
		c-15.7,7.2-31.3,14.8-46.9,22.3c-11.6,5.6-23.3,11.2-34.5,16.7c-8.4-9.1-16.5-17.4-24-26.2c-2.5-2.9-4.2-6.7-5.6-10.4
		c-4-10.3-9.4-18.9-21.1-21.9c-6.9-1.8-10.2-7.3-11.5-13.8c-4.8-23.5-8.5-18.3-26.1-21.2c-2.3-0.4-4.7-0.1-7-0.3
		c-14.1-0.7-19.9,11.9-18.2,21.7c1.4,7.8,4.2,14.9,10,21.2c9.2,10,12.4,22,8.8,36c-9.7,38-18.6,76.2-27.8,114.4
		c-0.7,2.9-1.5,5.8-2.6,9.5c-2.8-2.3-5-4.3-7.5-6.1c-11-7.8-24.9-6.3-34.2,3.5c-6.3,6.6-8.8,6.9-15.7,1.3
		c-7.6-6.2-15.9-10.7-25.9-11.9c-5.4-0.6-10.1-3.3-13.1-8.2c-2.7-4.6-3.7-8.7,0.1-13.7c6.3-8.5,7.9-18.5-1.3-29.9
		c-10.4-12.9-19-27.3-28.4-41c-4.1-6-3.6-12.6-2.3-19.2c1.3-6.6,1.9-13-0.5-19.6c-1.8-4.9-1.3-9.7,2-14.2c1.8-2.4,3.1-5.1,4.2-7.9
		c3.1-8.4,0.2-16.8-7.3-21.7c-4.7-3.1-9.7-5.8-14.5-8.9c-5.1-3.3-9-7.2-10.4-13.8c-1.6-7.2-3.4-7.7-10.7-6c-1.9,0.5-3.8,1.2-5.8,1.5
		c-5.4,1.1-7-0.1-8.2-5.7c-1.3-6.2-2.2-12.4-3.9-18.5c-1-3.8-2.3-7.9-4.8-10.8c-4.3-5.1-8.7-9.7-10.5-16.5c-1.4-4.9-6.9-5.1-11-5
		c-11.3,0.2-19.9-3.3-24.3-14.4c-0.5-1.2-1.2-2.4-1.8-3.6c-4.2-9.7-10.5-16.9-20.5-21.8c-11.9-5.7-22.7-13.6-34-20.6
		C1662.7,2264.9,1662.6,2263.5,1666.1,2255.1z"/>
	<path onclick="modals(this.id);" id="2657" class="st0" d="M2809,1940c3.4,0.4,3.7-1.8,3.9-4.3c0.5-6.6,1-13.2,1.7-19.8c0.8-7.8,0.4-15.1-4.7-21.6
		c-4.6-5.8-5.7-12.4-3.5-19.7c2.3-7.6,3.1-15.7,5.8-23.1c5.4-14.7,8.2-16.1,23.4-15.2c1,0.1,2-0.1,3.5-0.2c0.6-1.2,1.7-2.6,2-4.1
		c1.2-8.8,5.8-16.1,9.6-23.8c8.5-17.1,5.1-24.1-7.3-37.4c-8.5-9.1-8.4-22.1,1.6-29.8c10.3-7.9,10.2-7.6,22.4-1
		c3.2,1.7,7.9,2.6,11.3,1.7c9.9-2.9,19.3-7.3,26.8-14.8c2.3-2.3,4.5-5.3,5.1-8.3c2.7-13.8,12.5-22.2,22.4-30.6
		c1.5-1.3,3.3-2.4,4.5-3.9c3.9-4.9,9.1-6.2,15.1-6.4c4.2-0.2,8.6-0.9,12.6-2.2c4.8-1.6,5.6-5.6,2.1-9.3c-2.5-2.6-5.7-4.6-8.4-7
		c-2.5-2.2-5-4.4-7.1-6.9c-7.4-8.8-7-12.6,3-17.6c5.4-2.6,6.4-7.1,8.9-12.4c4-0.6,8.4-1.3,13.3-2.1c0.1-2,0.6-4.3,0.2-6.5
		c-0.8-4.6,0.7-8.1,3.1-12c4.6-7.8,10.5-10.4,19.5-10.1c23.6,0.8,47.3,0.5,70.9,0.9c14.2,0.3,28.5,1.3,43.3,2
		c2.5,14.3-2.6,28.2-1.9,42.9c9,5.8,10.6,15.4,11.3,25.7c0.7,10.9,1.2,21.7,5.4,32.2c3,7.4,3.8,15.8,5.7,24.5
		c-14.8,5.8-29.8,11.8-45,17.5c-4.5,1.7-8.1-1.3-11.8-3.7c-5.5-3.6-11.1-7.2-17.2-9.5c-10.7-4.2-21.2-0.1-26,11.5
		c-0.5,1.2-1,2.5-1.5,3.7c-3.4,8.1-3.4,8-12.6,7.1c-1,2.5-2.1,5.2-3.5,8.5c2.3,1.7,4.1,3.8,6.4,4.6c7.7,2.7,8.7,4.3,7.3,12.5
		c-0.9,5.5-1.4,11-2.1,16.6c10,3.7,12.3,12.1,13.7,19.9c1.5,8,5.6,12.6,12.5,15.2c4.5,1.7,7.4,4.7,10.6,8.2c3.6,3.9,10,5.3,16,8.2
		c-1.1,2.1-2.6,5.7-4.9,8.7c-2.2,2.8-4,5-2.4,8.9c0.6,1.4-0.1,3.9-1,5.4c-3.6,6.2-7.6,12.3-11.5,18.6c-14.5-3.1-15.9-2.6-17.4,7.5
		c3.1,3.4,6.2,6.8,10.1,11c-2.3,0.7-4.3,0.9-5.5,1.9c-1.5,1.3-3.4,3.6-3.1,5.1c1.7,9.1,3.7,18.2,6.1,27.2c1.3,4.8,9.3,8.9,15.5,8.5
		c2.3-0.2,4.5-0.9,7.8-1.5c-1-3.1-1.9-5.7-3-9c3.8-2.1,7.8-6,12-6.2c7.3-0.4,11.9-3.2,15.5-9.4c2.1,2.6,4,5.1,5.8,7.3
		c7.6-0.7,11-5.9,13.2-11.4c3.7-9.2,6.9-18.6,9.6-28.2c1.3-4.6,2.2-8.7,6.3-11.9c2.5-1.9,4.1-5.2,5.5-8.1c4-8.3,10.3-11.7,19.5-10.1
		c1.9,0.3,4,0.1,6.2,0.1c0.2,1.9,0.4,3.4,0.6,5.5c6.2,0.9,13.6,0.2,15.6,8.3c5.1,0.6,7.5-1.4,8.9-5.5c3.7-11.2,9.4-21.3,18.3-29.3
		c4.6-4.2,4.1-9.6,4-14.8c-0.1-5.3,0.8-9.6,5.6-12.8c12.9-8.8,17.3-23,22-36.8c2.4-7.1,1.6-13.7-4.5-19c-1.9-1.7-3.4-3.8-5.9-6.7
		c10-2.2,18.4-3.2,25.2,5c2.5,3.1,5.1,6.1,7.7,9.1c3.5,3.8,5.9,9,12.2,9.1c1.1,0,2.2,1.3,3.1,2.3c2,2.2,3.5,4.9,5.8,6.6
		c2.3,1.7,5.4,2.4,8.5,3.8c-0.5,1.5-0.7,2.7-1.2,3.9c-3.7,8.4-3.3,9.5,3.8,14.9c3.1,2.4,5.7,5.5,8.7,8.1c2.6,2.3,2.7,4.8,2.3,8.1
		c-1.5,10.5-0.7,12.3,8.5,15.8c5.4,2,7.8,5,8.6,10.7c1.8,11.8,0.8,23.1-2.3,34.5c-3.3,12,3.6,19.2,15.6,15.8
		c4.1-1.1,7.9-3.4,11.7-5.3c5.4-2.6,6.9-2.2,12.1,4c-2.7,2.2-5.3,4.8-8.3,6.6c-11,6.9-8.3,17.4-3.7,25.1c1.6,2.8,3.9,5.1,6.1,8
		c-3.1,2.1-6.2,3.1-7.8,5.3c-3.9,5.2-2.1,12.2,3.6,16.1c4.4,3,9,5.7,13.3,8.8c1.8,1.3,3.6,2.9,4.5,4.8c4.7,10.2,11.4,12.8,21.4,7.7
		c3.5-1.8,6.9-3.9,10.2-5.9c6.3,2.7,7.6,8.6,11.2,14.1c-4.1,4.3-7.9,8.9-12.3,12.8c-4,3.7-5.4,8.2-3.1,12.5c2.2,4.3,5.6,8.6,11.6,8
		c4.8-0.5,9.6-1.5,14.8-2.3c-3.1,9.3,2.3,17.3,6.4,25.3c3.3,6.4,8.5,11.8,12.8,17.6c1.2,1.6,3.1,3,3.5,4.7
		c2.9,11.3,10.5,19.9,16.6,29.3c3.5,5.5,7.5,10.6,10.3,17.5c-1.9-0.6-4-0.8-5.5-1.9c-6.3-4.4-12.9-4.9-19.9-1.9
		c-1.2,0.5-2.5,1.1-3.7,1.4c-11.7,3.3-16.1,10.7-15.1,22.6c0.8,10.2,5.5,17.5,13.7,23.2c-1.1,3.5-2.2,6.7-3.1,9.8
		c-2.7,9.2,0.5,13.9,10.1,14.6c2,0.1,3.9,0,6.9,0c-3.3,3.8-6.2,4.1-9.8,2.8c-5.6-2.1-10.2-0.1-14.2,4.3
		c-5.1,5.6-10.8,10.8-16.2,16.2c-3.7,3.8-6.5,8.3-3.3,13.4c9.4,15.4,14.9,32.5,22.9,48.5c2.4,4.8,5.5,8.2,10.7,9.5
		c6.5,1.6,11.3,5.7,14.9,11c7.8,11.4,16.4,22.2,20.8,36c3.3,10.3,9,19.9,14.4,29.5c2.4,4.4,6.6,7.8,11,12.9c-0.1,0.3-0.5,2.5-1,4.7
		c-1.3,6.6-0.8,12.7,5.1,17.1c3.9,2.9,4.8,6.9,4.4,11.5c-0.8,10.3,2.7,19.6,6.7,28.8c3.1,7.3,5.7,14.8,8.5,22
		c-3.4,6.5-7.6,7.8-14.8,7c-12.8-1.4-26-1.1-38.9-0.2c-5.6,0.4-11.2,3.9-16.4,6.6c-4.8,2.5-8.9,3.3-14,0.6
		c-8.3-4.4-14.3-2.4-20.1,5.5c-5,6.8-10.8,8.7-19,6.8c-12.4-2.9-23-8.7-30.4-19.4c-2.3-3.3-4.6-6.5-7.2-10.1
		c-12.3,8.3-22.5,15.1-32.6,22c-6.6,4.5-13.1,9.2-19.7,13.6c-1.9,1.3-4,3.2-6.1,3.2c-8.7,0-10.1,6.5-11.7,12.5
		c-0.9,3.5-0.9,7.3-1,10.9c-0.4,8-1.8,15.6-4,23.3c-2.2,7.4-1.6,15.6-2.2,23.7c-0.8-0.5-2.6-1.1-3.7-2.3c-1.7-2-3.5-4.2-4.4-6.6
		c-7.4-18.7-21.6-31.6-37.2-43.2c-8.3-6.2-15.2-13-15.3-25.6c3-3.6,6.7-8.2,11.2-13.7c-3.8-9.1-7.5-18.6-11.8-27.9
		c-0.9-2-3.6-3.7-5.9-4.3c-10.9-3.3-20.9-7.9-29.6-15.6c-10.9-9.6-21.6-10-33.4-2.3c-1.7,1.1-2.7,3.5-3.5,5.6
		c-3.2,8.3-8.9,11-14.7,5c-7.9-8.1-17.3-10.4-27.7-11.6c-8.3-1-14.3-5.2-18.5-13.3c-3.7-7.3-9.7-13.4-14.5-20.2
		c-4.8-6.8-9.6-13.5-13.9-20.6c-9.2-15-19.8-27.8-37.3-34.1c-8.3-3-15.8-8.2-24.6-10.3c-2.6-0.6-4.8-3.3-6.7-5.5
		c-4.4-4.9-9.1-8.9-16.8-7.3c-5.5-14.8-18.5-21.3-31.2-27.8c-8.5-4.4-17.6-7.6-27.2-11.7c-5-12-3.4-13.8,18.1-18.2
		c3.4-11.7,2.1-22.5-6.1-32.3c-16.3-19.4-32.3-38.9-48.4-58.4c-1.9-2.3-3.7-4.7-6.2-8c9-8.6,17.6-17.8,27.1-25.6
		c9.8-8,16.2-18.3,23.5-29.7c-5.2-8.4-10.8-17.4-16.4-26.4c-16.7,6.4-31.7,2.1-46.5-4.5c-2.6-1.2-5.9-2-8.6-1.6
		c-6.8,1-12.3-1.3-17.7-4.9c-3.3-2.2-6.8-4.1-11.1-6.6c0-5.7-0.4-12,0.1-18.3c0.6-8.6,4.2-11.8,12.7-11.6
		c17.9,0.4,35.9,1.2,53.8,1.7c6,0.2,11.9,0,18.7,0c0-5.9-0.6-11.5,0.2-16.9c0.8-5.8,2.8-11.4,4.2-17.1c1.3-5.1,3.1-10.1,3.5-15.3
		c0.4-5.9,3-9,8.4-10.8c5.7-1.8,11.2-4.2,17.4-6.6c-0.2-6.5,4-10.1,9.8-12.8c9-4.2,17.5-9.7,28.1-9.1c2.1,0.1,4.4-1.1,7.3-1.9
		c-2.4-10.5-4.7-20.4-7.2-31.5c-4.2-0.6-9-1.5-13.9-1.7c-4.5-0.3-8.1-1.7-11.5-4.9c-6.3-6-14.7-5.2-19.8,1.6
		c-2.3,3.1-4.4,6.6-5.9,10.2c-5.2,12.3-10.6,24.4-14.9,37c-3,8.9-9.7,13.1-17.3,16.7c-3.8,1.8-8.9,1.6-11.9,4.1
		c-2.7,2.3-3.4,7-5.1,10.8c-12.9,1.3-22.6,7.6-29.1,18.5c-3.9,6.6-9.1,8.7-16.5,8.1c-8.9-0.7-18-0.8-26.9-0.7
		c-11.5,0-17.4-7.3-21.4-16.5c-3.4-7.8-0.6-14.9,4.5-21.2c2.9-3.6,6-6.9,9-10.4C2809.4,1939.6,2809,1940,2809,1940z"/>
	<path onclick="modals(this.id);" id="2656" class="st0" d="M3142.5,1094.5c2.2,3.4,4.8,6.6,6.5,10.3c2.3,4.8,5,6.9,10.8,6c6.9-1,14-0.5,20.9-0.4
		c7.6,0.2,14.6-1.5,20.6-6.2c4.8-3.7,10-4.5,16-3.3c8.6,1.6,16.9,1.2,25.2-3.1c4.8-2.5,10.8-3.6,16.3-3.9
		c11.4-0.7,22.6-1.3,31.1-10.4c0.8-0.9,2.3-1.1,4.5-2c1.7,2.9,4.3,5.5,4.6,8.3c0.9,7.1,2.4,13.8,6.5,19.6c3.5,5-0.4,8.7-2,12.3
		c2.6,5.3,6.6,6.4,11.2,5.9c10.2-1.2,20.4-2.2,30.5-4.2c6.2-1.3,11.8-0.9,17.5,1.3c10.8,4,21.8,5.1,33.8,1.9
		c2.8,9.3,6.1,18.4,8,27.7c1.5,7.2,5.8,10.6,12.1,11.1c5.4,0.4,9.3,2.8,13.6,5.4c6.8,4,14,7.4,21.6,11.4c0,4.9-3.5,8.6-6.4,12.5
		c-3.8,5-4.6,9.5-1.7,15.6c7.3,15.4,5.6,19-9.8,27.4c-3.6,2-6.4,5.4-9.6,8.2c-3.3,2.8-6.5,5.6-9.9,8.3c-2.9,2.2-6.3,3.8-8.9,6.4
		c-5.3,5.2-7.8,11.5-5.2,19c0.7,1.9,1.2,3.8,1.9,5.7c4,12,3.9,11.5,16.5,8.6c5.2-1.2,11.1,0.1,16.5,1c8.8,1.4,17.6,3,26.2,5.2
		c5,1.3,9.6,4.2,14.9,6.6c-0.6,2.3-1,4.1-1.5,6.4c-1.2,0.2-2.5,0.5-3.7,0.7c-11.7,1.7-14.6,5.9-12.4,17.3c1.5,7.5,3,15,4.1,22.5
		c0.6,4.1,2.6,6.5,6,8.6c6,3.7,11.5,8,17.6,11.4c5,2.8,6.9,5.7,5.5,11.9c-2.8,12.6-4.5,25.5-6.4,38.3c-0.6,4.3-0.9,8.6-0.8,12.9
		c0.2,5.7-1.5,10.7-5.5,14.5c-13.4,12.8-20.9,29.3-28,45.7c-7.4,17-13.5,34.7-19.7,52.2c-3.3,9.4-4.9,19.1-1.4,29.2
		c2.7,7.7,0.8,14.8-3.7,21.7c-6.7,10.3-13.4,20.7-18.6,31.8c-3,6.4-3.8,14-4.3,21.2c-0.7,10.6-0.7,21.4,0,32
		c0.4,5.8,2.1,11.8,4.8,16.9c4,7.8,6.2,15.3,2.9,23.8c-1.8,4.7-3.3,9.4-4.7,14.2c-3.6,12.1-2.4,15.6,7.6,23c1.9,1.4,3.7,2.9,5.6,4.1
		c8.3,5,12.7,12.3,13.8,21.9c0.7,5.9,2.4,11.7,2.8,17.6c0.1,2.2-1.7,4.8-3.3,6.7c-6.7,8.2-13.8,16.1-20.5,24.4
		c-5.7,7.1-3.2,14.4,0.2,21.5c2,4.1,4.3,8.1,6.3,12.2c2.6,5.6,7,7.4,13.1,4.8c4.9-2.1,9.5-4.8,14.5-6.6c9.9-3.6,23.8,2.1,28.9,10.9
		c6.7,11.5,13.9,22.6,20.8,33.9c2.2,3.6,4.3,7.4,6.8,11.7c-3.1,1.5-5.8,2.6-8.2,4.2c-4.2,2.7-8.5,5.1-6.3,11.8c0.7,2.2-1.9,6-4,8.3
		c-4.9,5.4-8.5,10.4-2.2,17.2c0.9,1,1,3.1,1,4.8c0,14.3-0.2,28.6-7.9,41.5c-1.7,2.8-2.1,6.3-3.7,9.2c-2.9,5.2-5.8,10.4-9.5,15
		c-4.5,5.6-9.8,10.6-15.3,16.5c-5.3-2.5-9-8.4-12.3-14.3c-3.1-5.5-5.5-11.3-8.2-17c-2.2-4.6-2.3-8.7,1.4-12.9
		c1.9-2.1,2.2-5.6,3.2-8.4c-0.7-0.5-1.4-0.9-2-1.4c-2.1,1.7-4.3,3.4-6.4,5.1c-4.6,3.9-10,5.8-15.8,4.4c-2.8-0.7-6.4-3-7.4-5.5
		c-1-2.5,0-6.7,1.8-9c4-5.2,8.9-9.7,13.9-15c-2.6-4.4-4.7-8.5-7.3-12.4c-3.3-5-6.3-5.5-11.8-3c-3.9,1.8-7.7,3.9-11.8,5.1
		c-6.3,1.9-10.5,0.5-11.9-5.2c-1.5-5.8-5.2-8-9.6-10.4c-3.5-1.9-6.8-4.2-10-6.6c-5.9-4.4-5.6-9.8,0.6-14.1c1.8-1.3,3.4-2.9,5.4-4.7
		c-2-2.9-3.6-5.4-5.5-7.7c-8.5-10.6-7.8-16.3,3.2-24.8c2.6-2,5.1-4.2,7.4-6.2c-3.5-10.4-7.9-12.1-17-7.5c-3.8,1.9-7.8,4.1-11.9,4.8
		c-8.7,1.6-13.3-3.8-10.6-12.3c3.9-12.1,3.2-24.3,2.4-36.6c-0.3-5.3-2.9-8.6-7.3-11c-3.4-1.8-8.1-3.2-9.5-6.1
		c-1.7-3.4-0.4-8.3,1.3-13.4c-4.4-4.3-8.6-9-13.4-12.9c-6-4.8-6.4-5-2.9-12.3c0.7-1.5,1.5-2.9,2.7-5.4c-2.8-1.4-5.4-2.5-7.8-4
		c-2.7-1.7-5.2-3.7-7.5-5.9c-2.6-2.4-4.2-5.5-8.7-5.6c-2.3-0.1-4.6-3.4-6.6-5.6c-3.8-4.1-7.6-8.3-11.1-12.7
		c-6.3-7.9-14.8-6.3-23-5.5c-2.2,0.2-4.1,2.7-6.7,4.6c2.9,3,5,5.5,7.4,7.6c5.5,4.7,6.8,10.5,4.5,17.1c-4.9,13.8-9.6,27.7-22.5,36.5
		c-4.2,2.8-5.2,6.6-4.9,11.2c0.6,8.1-2.4,14.3-7.9,20.5c-5.6,6.3-9.2,14.5-13.5,21.9c-1.3,2.1-2.3,4.5-2.9,5.7
		c-5.5-2.9-10.2-5.3-15.7-8.2c-0.3-0.8-1.2-2.8-1.8-4.3c-4.6-0.3-8.4-1-12.3-0.8c-6.4,0.3-12.2,1.9-16.1,8
		c-3.3,5.3-7.9,9.8-11.1,15.1c-2,3.3-2.6,7.4-4,11.1c-3.4,9.7-6.6,19.4-10.5,28.9c-1.1,2.8-4.1,4.9-7.5,8.6
		c-2.2-4.4-3.7-7.4-5.7-11.2c-1.5,1.1-4.1,1.9-4.7,3.5c-3,8.1-9.1,8.8-15.6,7.3c-4.6,3.3-8.8,6.3-13.4,9.6c0.9,2.1,2,4.6,3.2,7.3
		c-11,1.4-15.2-1-17.3-10.1c-1.8-7.4-3.2-14.9-4.9-22.5c2.7-3.1,9.6-0.8,9.1-7.6c-3.5-3.7-7.3-7.6-11.3-11.8
		c5.9-7.9,11.6-0.6,16.4-0.6c4.8-7.9,9.4-15.4,14-23c0.3-0.6,1-1.3,0.8-1.8c-3.7-10.2,5.3-15.2,9-22.3c-0.8-3.7-3.3-4.9-6.6-4.8
		c-6.3,0.2-11.5-0.9-14.7-7.6c-1.2-2.5-5.2-3.9-8.1-5.2c-6.9-2.9-11.5-7.2-12.5-15.2c-0.7-5.1-3.2-9.9-5-15.1c-8.9-4.8-9-5.2-7-15.2
		c0.5-2.3,1.5-4.6,1.4-6.8c-0.2-3.2-1.1-6.5-2.1-9.5c-1.2-3.3-3.9-3.8-7.3-3.7c-3.7,0.1-4.4-2.3-2.7-6.1c7.5,2,10.7-2.2,13.4-8.9
		c6.9-17,21.5-20.4,35.8-9c1.8,1.4,3.3,3.4,5.1,4.8c3.8,3,7.9,4.9,12.9,3.5c2.5-0.8,5-1.7,7.5-2.6c13.9-5.4,27.8-10.9,41.5-16.2
		c-2-8.5-2.9-16.5-5.8-23.7c-5.8-14.2-4.8-29.4-7.3-44c-0.7-3.8-1.6-8.5-4.2-10.9c-8.4-7.9-5.7-17.3-4.9-26.6
		c0.6-7.9,1.1-15.8,1.7-24.7c-3.9-0.5-6.7-1.1-9.6-1.1c-30-0.3-60-0.3-89.9-0.8c-9.9-0.1-19.8-1.2-30.6-2c-0.2-2.5-1.3-5.4-0.4-7.4
		c2.5-5.4,5.7-10.5,8.9-15.6c2.1-3.4,5.3-3.6,8.8-2c4.2,1.8,8.4,3.6,12.6,5.4c6-6.2,5.2-13.8,3.1-19.3c-4-10.5,1.3-19.3,1.2-30
		c3.8,1.4,6.2,2.4,8.6,3.2c14.9,4.5,14.9,4.5,22.7,17.5c11-4.3,22.3-8.6,33.2-12.8c0.8-4.7-1.1-6.8-4.2-7.7
		c-7.6-2.1-7.8-8.9-8.2-14.4c-0.5-5.8,4.4-8.4,10.3-8.6c0.2-1.8,0.9-3.3,0.4-4.3c-3.4-6.7-3.3-12.4,3.1-17.5c1.2-1,1-3.7,1.5-5.6
		c0.9-2.9,1.8-5.8,3-9.8c-2.5-6.9-10.2-9.7-16.3-14c-8.1-5.7-14.2-11.7-12.8-22.8c0.4-3-1.5-6.3-2.4-9.5c-1-3.6-3.8-6.7-2.1-11.3
		c0.6-1.6-2.2-5.4-4.4-7c-4-2.9-5.1-6.5-5-11.1c0.2-11,0.2-22-0.3-32.9c-0.2-4.5-1.2-9.3-3-13.5c-6.8-15.2-8.5-30.3-3.8-46.5
		c1.8-6.2,1.7-13.3,0.8-19.8c-1.1-7.9,1.7-12.7,8-16.6c2.8-1.7,5.2-4,7.6-5.9c-1.9-10.1-6.5-16.3-16.3-18.7
		c-9.3-2.3-18.5-2.9-27.4,0.5c-5.9,2.3-11.4,2.7-17.5,1.3c-10.9-2.5-19.3,2.1-22.5,12.5c-1.2,4.1-2.8,7.3-6.6,9.4
		c-2.6,1.4-5.4,2.8-7.5,4.8c-1.8,1.7-2.8,4.2-5.3,8c-2.5-5.4-4.9-9.2-6-13.4c-4.1-15.7-12.3-19.6-31.8-17.6
		c-5.2,0.6-9.4,1.3-13.8-2.4c-4.1-3.5-9.3-3.4-14.2-1.6c-4.6,1.7-9.1,3.9-13.8,5.3c-4.4,1.2-9,1.6-14.2,2.4c-1,18-1.9,35.9-2.9,54.7
		c-8.4-2.5-14.4,1.2-20.6,6.1c-7.8,6.1-16.9,10.3-27.3,10.9c-8.5,0.5-11.2,6.2-7.3,13.7c4.5,8.5,9.7,10.3,19.6,6.7
		c6-2.2,10,0.3,8.7,6.2c-1.5,7-0.2,12.1,5,17c3.5,3.3,2.7,5.6-2.2,8.5c-5.7,3.4-12.3,5.5-13.9,12c-11.1,0-21.7,0.3-32.3-0.1
		c-9.9-0.3-19.9-1.5-29.8-1.8c-4.8-0.1-7.1-1.8-8.3-6.6c-1.3-5.5-3.6-10.7-5.6-16c-1.2-3.5-3.6-5.2-7.4-5.6
		c-4.9-0.5-9.8-1.5-14.8-2.3c3.6-10.2,6.6-20.3,10.7-29.9c2.2-5.1,1.4-8.6-1.9-12.6c-5.3-6.4-10-13.2-15.8-20.8
		c13.1-4,21.3-13.3,30-21.9c4.7-4.7,10.5-7.3,17.1-7c8.2,0.5,16.5,1.5,24.6,2.9c7.6,1.3,9.9-0.3,9.2-7.9c-0.3-2.9-0.8-6.2-2.4-8.5
		c-8.6-12.2-17.1-24.6-26.7-36c-8.7-10.4-9.1-13.1,2.6-19.6c5.3-2.9,8.9-6.3,10.4-12.4c1.4-6,2.9-11.3-3.3-16
		c-1.9-1.4-2.2-5.3-2.5-8.1c-0.3-2.9,0.5-6,0.5-8.9c0.1-8.7-1.3-10.3-10-11.5c-14.2-2-18.6-7.1-18.6-21.6c0-3.6,0-7.3-0.5-10.9
		c-0.8-6.7-0.4-7.6,5.7-9c7.5-1.8,15.1-2.7,22.6-0.1c4.6,1.6,9.1,1.5,13.6-0.3c8.7-3.4,15.9-1,23,4.7c11.9,9.6,24.2,18.6,36.4,27.9
		c6.4,4.8,13.1,7.5,21.4,5.4c7.9-2,14-5.5,16.9-13.7c2.7-7.5,5.7-14.9,9.1-22.1c1.6-3.5,3.8-7.3,6.9-9.4c18-12.3,24.3-30.4,27-50.9
		c1.9-14,4.9-27.9,9.3-42c2.2,4.6,4.5,9.1,6.6,13.6c15.1,3,19.3,7.2,20.2,22.4c0.6,10.3,2.4,20.3,4.9,30.4c2.1,8.6,0.6,18.3,5.6,26
		c7.1,11.2,14.2,22.1,16.9,35.5c0.7,3.5,6.2,6.8,10.2,8.8c6.6,3.2,12,7.1,13.5,14.9c5.3,0.3,10.3,0.7,15.3,0.9
		c12.6,0.6,25.2,1,37.8,1.6c5.3,0.3,9.5-0.7,12.8-5.6c3.7-5.3,6.4-5.3,10.9-0.2c5.6,6.2,12,7.8,19.8,5.1c2.2-0.7,4.6-1.4,6.8-1.3
		c7.7,0.6,11.7-3.4,13.9-10.2c3.1-9.8,6.3-19.5,9.5-29.3L3142.5,1094.5z"/>
	<path onclick="modals(this.id);" id="2655" class="st0" d="M2732.6,1305.9c-4.6,12.4-9.2,24.8-14.2,38.3c4.5,0.7,8.9,1.7,13.4,2.1
		c6.8,0.5,10.9,3.4,12.7,10.3c1.6,6.4,4.2,12.5,6.4,18.7c24.5,1.2,48,2.3,72.2,3.5c1.4-6.8,5.8-10.8,12.1-13.1
		c4.6-1.7,6.5-5.4,7.1-10.7c-6.3-4.8-8.3-11.2-7.3-19.7c0.9-7.7-4.6-10.2-12.9-7.1c-7.8,2.9-14.1,0.1-16.5-7.4c-1.2-3.7-0.5-7,4-7.2
		c13.9-0.7,24.8-7.8,35.8-15.5c3.8-2.6,9.9-1.9,16.6-2.9c0.9-17,1.8-35.3,2.7-52.4c9.5-3.3,17.9-5.9,26.1-9c5-1.9,9.1-0.9,12.9,2.4
		c3.2,2.8,6.5,4.1,10.9,2.5c2.7-1,5.9-0.8,8.9-0.9c15-0.3,17.3,1.2,23,15.1c1.5,3.7,2.7,7.5,4.5,11.1c2.5,5,6.8,5.2,9.7,0.5
		c0.2-0.3,0.2-0.6,0.3-0.9c1.8-6.8,9.8-6.6,13.2-11.4c3.2-4.5,4.7-10.2,8.1-14.5c3.5-4.4,9.1-5.5,14.6-3.6
		c7.1,2.4,13.3,1.1,20.1-1.7c9.9-4,20.2-2.7,29.9,2c5,2.4,6.6,7.1,8.5,12.2c-1.9,1.6-3.6,3.1-5.5,4.4c-7.5,5.3-12.2,11-9.8,21.6
		c1.5,6.4-0.3,13.9-1.8,20.6c-3.2,14.5-2.2,28.4,3.8,41.9c2.7,6.1,3.8,12.2,3.4,19.1c-0.5,11.6,0,23.3,1.4,34.8
		c0.5,3.9,5.1,7.3,8.4,11.7c-0.1-0.5,0.2,0.1,0.1,0.8c-0.1,1.9-1.2,4.6-0.3,5.7c6.8,8.7,2.6,20.2,7.7,29.1c2.1,3.6,5.5,6.6,8.8,9.2
		c5.4,4.4,11.2,8.2,16.3,12c-0.7,4.3-1.2,7.7-1.9,11.1c-0.4,1.9-1,3.9-2,5.5c-5.8,9.1-5.8,9.1-3.1,18.5c-6,3.2-12.1,6.8-10,15.6
		c1.7,6.9,3.6,13.5,13.2,14.8c-2.3,1.9-2.9,2.7-3.7,3c-8.6,3.5-17.2,6.9-25.7,10.2c-2.6-4.1-4.3-8.9-7.7-11.5c-3.5-2.6-8.7-3-13-4.6
		c-4.3-1.6-8.5-3.5-13.9-5.8c-1.6,9.4-3.5,18.7-4.5,28c-0.3,3,2.4,6.1,2.8,9.3c0.5,3.9,0.1,7.8,0.1,13.5c-4.9-2-8.4-3.4-11.9-4.8
		c-7.6-3-9.5-2.3-13.8,4.7c-2.4,4-5,7.9-7.1,12c-1.2,2.3-2.9,5.6-2,7.3c2.9,6-1.1,9.5-4,13.3c-4.4,5.7-8.2,11.4-4.9,19.2
		c-3.5,0.7-6.5,1-9.3,2c-2,0.8-4.9,2.3-5.3,3.9c-1.3,6.1-6.1,8.3-10.4,11.3c-7.4,5.1-8.3,10-2.7,17.3c2.8,3.7,6.4,6.7,9.8,9.9
		c3.1,2.9,6.5,5.5,10.2,8.6c-3.6,4.3-7.8,4.7-12.1,4.5c-7.7-0.3-14.2,1.7-19.7,7.6c-5,5.3-10.8,9.9-16.4,14.6
		c-4.2,3.6-6.9,8.1-8.1,13.4c-4.1,18.6-19.4,24-34.7,29.2c-2,0.7-5-0.7-7.3-1.7c-2.7-1.2-5-3.3-7.8-4.4c-5.2-2-10-2.2-14.6,2.5
		c-4.4,4.5-8.9,8.3-12.4,13.9c-5.8,9.4-16.1,12.1-26.8,12.9c-7.3,0.5-14.7,0.3-21.8,1.6c-8.4,1.5-17.2,3.1-23.9,9.2
		c-5.2,4.6-10.6,4.2-16.6,2.6c-5.4-1.5-10.9-3.4-16.4-3.5c-6.5-0.1-13.2,0.9-19.6,2.4c-6.8,1.6-13.1,1.8-19.2-1.9
		c-13.1-7.9-26.3-15.5-39.4-23.5c-6.5-3.9-12.9-6.2-20.7-4.5c-4.4,1-9.2,0.1-13.8,0.2c-5.5,0.1-11.1,0.6-16.6,0.6
		c-2.9,0-6,0-8.7-0.8c-10.4-3.4-20.8-7.1-31-10.9c-3.9-1.5-7.3-1.6-11.5-0.3c-20.8,6.7-40.4,3.5-57.4-9.9c-9.2-7.3-18-7.1-27.8-2.8
		c-5.2,2.2-10.6,3.8-15.7,6.2c-4.5,2-8.5,5-12.9,7.1c-2.5,1.2-6.3,2.7-8.1,1.7c-4.6-2.8-9.3-3.1-14.3-3.6c-2.9-0.3-5.8-1.6-8.3-3.1
		c-7.9-4.9-15.9-9.7-23.4-15.2c-9.2-6.8-19.4-10-30.7-10c-6.4,0-11.7,2.2-15.8,7.1c-2.9,3.6-5.7,7.3-9.2,11.7
		c-9.8-7.7-18-13.8-25.9-20.2c-7.5-6.1-14.5-12.7-22.2-18.5c-7.8-5.8-8.4-14.8-11.1-22.8c-0.6-1.7,2.3-5.6,4.5-7.1
		c11.6-7.9,13.4-21,18.1-32.5c0.8-2.1-0.2-5.2-1.1-7.6c-1.3-3.4-3.4-6.4-5.1-9.6c4.6-11.4,9.8-22.5,13.6-34.1
		c2.9-8.8,2.6-17.6-5.4-24.7c-2.1-1.8-3.3-5.7-3.3-8.7c-0.2-10.6,0.6-21.3,0.4-32c-0.2-10.6-0.9-21.3-2.2-31.8
		c-0.8-6.3-3.6-11.9-9.2-15.9c-2.5-1.8-4.6-4.8-5.7-7.7c-6.8-17.4-14.1-34.5-24-50.3c-4-6.4-7.3-13.5-9.8-20.7
		c-3.2-8.8-8.4-15.7-15.7-21.3c-2.2-1.7-4.1-3.9-7.2-7c4.5-2.7,7.8-4.7,11.2-6.6c8.1-4.6,16.2-9.2,24.4-13.6
		c6.3-3.4,12.7-3.1,19,0.3c3.2,1.7,6.4,3.5,9.8,4.9c9,3.6,13.2,2.4,18.6-5.3c4.4-6.3,8.5-12.7,12.7-19.1c6.3-9.6,11.5-11.7,22.7-8.8
		c10.3,2.7,16.4-0.1,20.6-9.8c2.9-6.7,5.6-13.5,8-20.4c1.1-3.2,2.6-5.3,6.1-5.6c0.7-0.1,1.3-0.2,2-0.3c15-2.6,15-2.6,12.8-17.4
		c1.7-1.1,3.6-2.4,5.6-3.4c7.6-3.8,10.1-2.9,14.3,4.6c1.6,2.9,3.1,5.9,5.2,8.4c3,3.4,6.4,5,11.5,3.1c10.2-3.8,20.8-4,31.2-0.3
		c11.2,4,17.1,1.3,24.2-12.4c2-3.8,3-8.4,5.6-11.6c2.8-3.4,6.8-7.5,10.7-8.1c14.1-2.2,28.3-4.5,42.7-2.7
		c10.1,1.2,12.2,2.9,15.2,12.4c2.7,8.7,6.1,17.2,14.1,22.4c11.8,7.6,19.1,20.2,31.9,26.7c12.5,6.3,24.5,13.4,36.7,20.2
		c5.9,3.3,11.4,3.4,16.3-1.8c3.4-3.7,6.8-7.3,10-11.1c2.6-3,4.6-6.5,7.3-9.5c6.6-7.3,14.1-11.6,24.7-8.1c6.8,2.2,13.6,5,21.3,3.5
		c2-0.4,5.3,2.3,7.1,4.3C2722.2,1291.6,2727.2,1298.7,2732.6,1305.9z"/>
	<path onclick="modals(this.id);" id="2649" class="st0" d="M3490.3,1372.6c-7.5-5-14.5-9.3-21.1-14.2c-1.9-1.4-3.2-4.3-3.7-6.7c-1.8-8.4-3.2-17-4.6-25.5
		c-0.7-4.2,1.2-7.2,5.3-8.3c3.5-1,7.1-1.6,11.4-2.5c0.6-3,1.3-6.1,2.1-9.6c-8.1-5.4-15.7-10.4-25.8-9.6c-3.5,0.3-7.2-1.2-10.7-2.2
		c-11.2-3.3-22.3-7.3-34.8,0.9c-2.2-7.7-4.4-13.9-5.7-20.2c-1.1-5.8,1.9-10.3,6.5-13.7c7.4-5.5,15.8-9.7,21-18
		c1.6-2.5,5.6-3.3,8.5-4.9c12.1-6.5,15-13,9.2-25.1c-3.6-7.6-3.9-13.5,1.9-20c2.8-3,4-7.5,6.4-12.2c-3.7-1.8-6.5-3.3-9.4-4.7
		c-4.8-2.4-9.7-4.4-14.2-7.1c-5.4-3.2-10.1-7.2-17.1-7.1c-4.3,0.1-7-3.2-8.1-7.5c-2-7.7-4.2-15.4-6.4-23.1
		c-0.9-3.1-2.1-6.2-3.4-10.1c-9.8,6.7-20.1,5.6-29.2,2c-13.4-5.2-26.1-3-39.1,0c-7.2,1.7-14.3,1.2-22.9,0.2c4.8-8.2,3.1-14.5-1.3-21
		c-1.8-2.5-2.4-6.3-2.5-9.5c-0.2-6.3-2.9-10.8-8.9-14.6c-2.4,1.2-5.9,2-7.9,4.2c-5.8,6.3-13.4,7.1-21,7.5c-9.7,0.5-18.9,2.6-28,6.1
		c-5.3,2.1-11.7,2.1-17.6,1.6c-7.9-0.6-14.8,0.2-21.7,4.9c-4.4,3-10.5,4.2-16,4.6c-8.9,0.7-17.9,0.2-27.6,0.2
		c-3.9-7.6-8.4-15.2-9-24.4c-0.5-7.7-5.8-10.2-13.4-12.8c2,7.5,3.6,13.5,5.3,19.4c0.4,1.6,1.8,3.4,1.4,4.7
		c-3.6,11.3-7.4,22.5-11.2,33.7c-0.1,0.3-0.4,0.6-0.7,0.7c-5.7,1.4-11.5,2.6-17.2,4.1c-6.8,1.8-11.2-1.2-15.5-6.2
		c-4.3-5-10.6-4.8-14.2,0.8c-2.7,4.2-5.9,4.8-10,4.6c-16.9-0.6-33.8-1.1-50.7-1.6c-3-7.1-7.3-11.7-13.9-14.2
		c-7.3-2.8-12-8-12.8-16.3c-0.7-7.5-3.9-13.9-9.1-19.5c-6.9-7.5-9-16.8-9.8-26.6c-0.3-3.9-1.1-7.8-1.7-11.7c-1-6.2-2-12.4-2.9-18.6
		c-0.7-4.9-0.8-10-2.1-14.8c-2.7-9.8-8.3-16.6-20-15.9c-2.8-6.7-5.5-13-8.9-21.1c4,0.9,6.4,0.9,7.9,2c5.3,4,10.1,8.6,15.5,12.5
		c8.9,6.3,17.7,12.9,28.9,14.6c0.7,0.1,1.3,0.4,2,0.4c15.2-1.1,30.4-1.9,45.6-3.5c7.9-0.8,14.1-5.2,18.8-11.9
		c1.8-2.5,4.8-4.5,7.6-5.9c13.5-6.4,27.1-12.5,40.6-18.8c8.4-4,16.5-7.3,26.5-6.3c5.6,0.6,12.4-2.5,17.5-5.8
		c9.5-6.2,18.9-7.2,29.3-3.2c8.1,3.1,15.4,2.3,21.3-5.4c3.1-4.1,7.7-7.1,11.4-10.4c4.3,1.7,7.6,3.1,9.3,3.7c2,4.4,3,7.7,4.9,10.5
		c3.7,5.8,8.1,11.3,11.8,17.1c4,6.2,5.1,6.9,12.1,4.5c5.3-1.8,10.6-3.6,16.5-5.6c2.5,9.2,8.9,13,16.8,15.7c10.3,3.6,10.4,4.6,9.5,16
		c-0.4,5.1-0.1,9.5,6.4,11.8c4.5,1.5,8,5.7,12,8.6c2.2,1.5,4.4,3.1,6.8,4.1c11.4,4.6,17.2,0.5,16.6-11.6c0-0.7-0.1-1.3-0.2-2
		c-0.7-10.6,2.7-13.7,13.3-12.2c6.5,0.9,13.1,1.6,19.6,2.7c2.5,0.4,5.8,1.4,7,3.2c5.2,8.1,15.7,9.4,20.3,17.9
		c9.2-4.3,16.1-12.2,27.2-10.9c0,2.6,0.4,4.6-0.1,6.4c-1.5,5.5,0.2,9.7,4.7,13.1c1.6,1.2,3.7,2.4,4.2,4.1
		c2.4,7.7,6.2,13.9,14.6,15.5c-0.4,9.2-11.3,11.8-10,21.7c9.6-2.1,19-3.6,28.1-6.2c7.9-2.3,15.6-5.6,23.1-9c2.8-1.3,5.1-4.1,7.3-6.5
		c7.1-7.7,14.9-13.8,25.8-15.5c8.5-1.4,16.6-2.7,25.5-2c8.3,0.6,17.3-1.4,25.2-4.2c8.3-2.9,13.4-9.9,5.6-19.4
		c-5.5-6.6-9.7-14.2-15.2-22.4c3.4-2.5,6.1-4.7,9-6.5c3.4-2.1,7.1-3.4,6-8.8c-0.3-1.7,2.3-3.9,3.8-6.3c-0.6-1.5-1.5-3.6-2.4-5.9
		c3.9-2.8,7.6-5.4,12.6-8.9c-11.1-5.6-9.7-14.9-9.6-23.8c0.1-6,0-11.9,0-17.3c24-11.1,27.4-19.1,52.8-3.9c0.6-9.2,1.1-18.2,1.9-27.2
		c0.2-2.9,0.5-6.1,1.8-8.6c5.4-10.7,10.5-21.6,17-31.5c4.1-6.2,10.5-10.8,15.8-16.3c4.4-4.5,8.5-9.4,13.1-13.7
		c3.3-3.1,6.8-6.3,10.8-8.4c5.4-2.9,8.7-6.4,9.7-12.7c3.1-19.5,15.4-34.3,27.1-49c4-4.9,10.8-7.6,16.4-11.1c4.8-3,10.1-5.3,14.5-8.8
		c4.9-3.9,9.9-5.1,15.8-3.5c6.6,1.8,12.3,0.4,17.5-4.2c3.7-3.3,8-6,11.7-9.4c11.2-10.4,26.9-6.1,32,5.2c0.4,0.9,1,1.7,0.7,1.3
		c-3.3,9.3-7,17.4-8.9,26c-1.3,5.6-0.3,11.8,0.3,17.7c0.5,5,0.8,9.4-4.9,11.3c3.2,9.4,5,10.4,13.5,8.2c3.2-0.8,6.7-0.9,9.7-2.1
		c3.9-1.5,7.6-3.6,11.2-5.8c2.5-1.5,4.7-3.8,7.1-5.4c10.5-7.1,10.4-6.8,21.5,0.4c3.1,2,7.3,3.1,11.1,3.4c7.6,0.7,15.3,0.7,22.9,0.8
		c5.7,0.1,9.9,1.6,12.9,7.3c5.1,9.9,13.2,13.6,24.8,11.4c11.3-2.2,23.1-2.9,34.7-3.1c14.7-0.2,17.7-9.9,13.4-20.7
		c-1.1-2.7-2.3-5.3-3.8-8.6c7.7-4,15-7.8,22.7-11.8c-3-9-5.8-17.5-8.5-26c-1.1-3.5-2.2-7-2.9-10.6c-1.5-7.8,1.9-12.3,9.7-12.4
		c5.3,0,10.6,0.8,15.8,1.6c11.5,1.9,22.9,3.2,34.6,1.2c7.2-1.2,11.3-4.7,13.6-11.2c3.2-8.9,8.3-16.7,15.9-22.5
		c5.2-4,11.1-7.3,17.4-11.3c16.4,7.6,34.4,12.8,49,25c9.7,8.1,16.5,16.6,13.6,30.8c-0.9,4.4,3,10.8,6.4,14.9c4,4.7,9.6,8.1,15,11.4
		c7.1,4.4,9.3,9.7,5.8,17.3c-0.9,2.1-2.1,4.2-3.7,5.9c-7.9,8.6-8,18.6-2.6,27.7c5.1,8.5,4.5,16.3,1.5,24.7c-1.9,5.4-3,10.5-2,16.4
		c1.1,6.1,0.8,12.4-2.6,18.4c-4.3,7.6-2.4,12.9,5.1,17.4c8.5,5.1,16.9,10.5,25.6,15.4c12.5,7,19.8,18.4,26.6,30.4
		c3.8,6.6,7.4,13.4,11.5,19.8c1.3,2.1,3.5,4.8,5.6,5.2c13.9,2.7,27.9,7.4,41.6-0.9c3.1-1.9,6.1-4.1,9.3-5.9c2.7-1.5,5.7-2.6,9.9-4.4
		c-5.7,15.3-10.5,29-16,42.4c-1.1,2.6-4.3,5.1-7.1,6.2c-14,5.4-25.9,0.4-36.9-8.2c-2.9-2.2-5.5-4.8-8.1-7.4c-7-6.9-15.2-7.7-24-4.7
		c-17,5.8-33.7,12-44.5,28.1c-5.5,8.2-12.6,15.4-19.3,22.9c-7.2,8.1-16,12.3-27.4,11.6c-18.7-1.1-37.1-3.2-54.2-11.6
		c-2.4-1.2-5.1-1.9-7.2-3.5c-7.6-5.7-15.2-9.1-24.9-5.1c-2.6,1.1-6.5-0.4-9.7-1.3c-10.6-3-19,3.8-22.1,12.3
		c-2.8,7.7-2.7,15.2,1.2,23.1c4,8.3,6.7,17.3,9.1,26.2c1.8,6.5-1.3,13.9-6.8,16.1c-7.5,3-12,8-14,15.6c-0.3,1.1-1.3,1.9-2.8,4
		c-5.3-19.1-10.2-36.9-15.1-54.7c-0.5-1.9-1.2-3.8-1.6-5.8c-1.5-8.3-4.4-14-14.7-13.5c-6,0.3-10.5-4.4-12.1-10.4
		c-6.3-25-26.4-37.6-45.9-50.2c-6.9-4.4-16.2-6.3-24.6-6.9c-23.5-1.9-44.5-10.4-64.5-22c-3.2-1.8-6.5-3.5-9.9-4.8
		c-7.1-2.8-13.4-0.5-16.8,6.2c-1.8,3.5-2.6,7.5-4.2,11.2c-3.6,8.5-7.1,17.1-11,25.5c-5.2,11.1-11.1,21.9-16.3,33
		c-5.6,11.9-12.9,22.7-22.3,31.7c-26,24.8-51.3,50.1-72,79.8c-9.6,13.8-10.1,13.7-26.6,9.2c-24.4-6.6-18.2-0.6-25.4-24.4
		c-0.9-2.8-1.8-5.7-2.8-9c-9-0.7-17.8-1.4-27-2.2c0,26.1,0,51.3,0,76.2c12.5,4.1,12.5,4.1,16.7,19.8c-5.2,4.7-10.4,10.4-16.4,14.7
		c-2.9,2.1-7.6,2.7-11.4,2.5c-15.5-0.7-28.8,4.4-40,14.8c-3.6,3.3-6.8,7.3-9.3,11.5c-6.1,10.3-11.9,20.8-17.3,31.5
		c-3.6,7.1-5.9,14.8-9.4,21.9c-4.5,9.2-9.2,18.4-14.6,27c-3.1,5-5.5,9.3-4.8,15.6c0.7,5.5-0.4,11.3-0.8,16.9
		c-0.1,1.3-0.2,2.9-0.9,3.8c-9.5,12.1-6.3,26.9-8.7,40.5C3492.1,1365.9,3491.3,1368.7,3490.3,1372.6z"/>
	<path onclick="modals(this.id);" id="2653" class="st0" d="M3832.8,751.9c-3.3-18-4.6-35,9.3-48.9c-6.6-13.9-12.6-18.9-27.4-19.1
		c-4.6-7.4-9.5-15.3-14.4-23.2c-6.7,1.5-13.1,2.6-19.3,4.4c-2.4,0.7-5,2.5-6.3,4.5c-3.1,4.8-7.3,5.7-12.1,4
		c-7.8-2.7-12.5,2.6-17.8,6.2c-1.3,0.9-2.1,3.6-1.9,5.3c0.9,7.3-3.5,11.3-8.9,14.3c-12.8,7.1-25.5,14.4-38.8,20.4
		c-14.5,6.6-29.4,12.3-44.4,17.7c-12,4.3-21.7,11.6-29.7,21.1c-5.4,6.4-12,9-20.1,9c-11.6,0-23.2,0-36.1,0
		c1.9,9.6,4.1,17.8,5.1,26.2c0.9,7.7,0.6,15.6,0.5,23.5c0,3.4-2.9,4.7-5.6,4.1c-9.7-2-19.3-3.3-26.9-11.4c-4.8-5-12.1-8-18.7-10.9
		c-9.6-4.3-19.6-7.7-30.5-11.9c-0.4,2.4-0.9,5.4-1.3,7.7c-6.4,5.8-15.9-1.1-21.7,5.9c-10.3-5.3-20.8-10.3-30.8-16
		c-3.9-2.2-7.6-5.6-10.3-9.2c-3.7-4.8-8.1-6-13.8-6.1c-13.6-0.2-27.1-1.1-39.8-1.6c-9.2-15.8-8.4-32.5-8.2-48.7
		c-10.5-4.3-19.5-5.2-27.5,3.1c-8.4,8.7-19.3,4.2-29.6,6.3c0-15.8-12.9-22.8-20.1-33.4c-1.7-2.4-4.1-4.4-6.3-6.4
		c-14-12.9-16.1-24.7-10.5-42.9c4.7-15.1,14.9-24.6,27-33.2c5.1-3.6,9.8-7.9,14.8-11.8c6.1-4.8,12.4-9.5,19.1-14.7
		c11.7,18,29.1,24.3,48.8,24.5c0.7,9.9,1.5,19.3,2,28.8c0.2,4.7-2.3,8-6,10.8c-5.7,4.5-11,9.4-16.2,14c7,7.1,13.3,13.7,20.3,20.8
		c3.5-3.3,7-6.7,10.7-10c3-2.6,5.9-5.7,9.4-7.2c16.8-7.1,33.4-14.6,51.9-16.6c9.5-1,18.7-3.9,29.7-6.3c-9-19.1-17.5-37.2-26.3-56
		c10,0,18.5,0,27.9,0c2.1-2.9,4.9-6.5,8.1-10.8c3.1,2.4,5.8,4.6,9.1,7.2c-8.4,9.7-5.8,19.6-2.5,29.5c3.6,10.9,3,21.6-2.9,31.5
		c2.3,2.9,4.2,5.7,6.4,8.1c1.5,1.5,3.4,2.7,5.4,3.6c4.7,2.2,10,3.4,14.2,6.4c9.5,6.7,18.3,14.2,27.6,21.1c1.6,1.2,4.3,1.8,6.3,1.4
		c9.8-1.6,19.6-3.5,29.9-5.4c0.8-3.1,1.4-6.3,2.6-9.4c3.7-10,7.3-20,15.9-27.2c2.5-2.1,4.4-5,6-7.9c8.2-14.9,18.8-28,29.7-41.1
		c10.6-12.8,20.5-26.2,34.3-35.9c2.7-1.9,5.3-4,7-5.3c-3.9-14.8-16-18.2-25.4-24.4c-1.9-1.3-5.2-0.7-7.8-0.9
		c-5.6-0.5-11.3-0.7-16.8-1.4c-6.2-0.8-11.8-2.7-12.7-10.3c-0.1-1.1-1.3-2.2-2.2-3.2c-5.9-7.1-12.3-13.8-17.7-21.3
		c-2.1-3-2.7-7.5-3-11.3c-0.3-4.5-1.7-7.8-5.8-9.6c-7.2-3.1-10.6-9.9-14.9-15.7c-1.1-1.5-0.9-4.2-0.7-6.3c0.7-5.2,2.5-10.3,2.4-15.5
		c-0.4-22.4,3.2-44.4,7.7-66.2c0.3-1.6,0.8-3.3,0.8-4.9c0.3-14.8,5.9-27.9,13.4-40.2c9.3-15.4,13.6-32.3,16.3-49.8
		c1.2-7.8,3.6-15.5,5.6-23.1c0.7-2.9,2-5.7,2.7-8.6c5.2-22.4,17.9-40.4,33.2-56.9c5.2-5.6,10-11.5,14.8-17.5
		c7.4-9.2,16.3-16.4,27-22c4.9,2.8,6.4,7.4,7.1,12.4c1,6.9,1.8,13.8,3.1,20.7c1.2,6.4,0.3,12-4.9,16.2c-9.2,7.4-10.6,18.2-11.6,28.7
		c-0.4,4.5,1.9,9.7,4.2,13.9c3.2,5.7,5.4,11.3,5.5,17.8c0.1,9,5,14.7,12.6,18.8c8.5,4.6,16.9,9.2,25.2,14.3
		c7.8,4.8,11.6,11.7,8.9,21.2c-0.6,2.2-0.7,4.6-0.6,6.9c0.4,13.6,0.2,27.3,1.7,40.7c0.8,6.6,4.6,13,7.7,19.2
		c1.8,3.5,4.8,6.3,7.6,9.2c12.9,13.6,13.9,18.3,6.1,35.4c-4.1,9.1-8.9,17.8-13.3,26.8c-1,2.1-1.9,4.2-2.5,6.5c-1,3.4,0.2,6.1,3.7,7
		c10.6,2.7,20.8,4,29.7-5c6-6.1,13.2-10.1,22.5-7.1c1.7,0.5,3.9-0.4,5.8-0.8c2.3-0.6,4.4-1.5,6.7-2.1c13-3.2,24-3.8,34.5,8.8
		c12.2,14.7,27.6,26.9,41.9,39.8c7.2,6.5,10,15.5,14.6,23.6c3.3,5.8,6.6,11.5,9.5,17.5c3.4,6.9,9.2,9.2,16.3,9.4c2,0.1,4,0,6,0
		c13.2-0.2,25.7,1.5,36.7,10c4.4,3.4,9.9,5.7,15.2,7.4c4.9,1.6,10.5,2.9,15.4,2.1c8.2-1.4,14.9,0.8,21.7,4.6
		c13.8,7.8,25.5,17.7,35.1,30.4c8.6,11.4,21.2,18.1,33,25.6c5,3.2,10.2,6.1,16.3,9.7c-2.7,2.3-4.7,4.5-7.1,5.9
		c-12.2,6.8-20.5,16.9-25.3,29.8c-2.2,5.8-5.9,8-11.8,8.7c-13.1,1.4-25.9,0.2-38.7-2.3c-1.6-0.3-3.2-0.9-4.9-1.1
		c-14.7-1.6-21.4,6.3-17.2,20.4c2.9,9.9,6.3,19.6,9.7,30.1c-7.7,4.1-14.9,7.9-22.9,12.2c1.3,3.1,2.5,5.7,3.4,8.4
		c1.1,3.1,2.5,6.3,2.7,9.5c0.5,5.8-2.1,8.7-7.9,9.3c-13.9,1.4-27.8,2.5-41.6,4.1c-8.6,1-15.3-1.7-18.9-9.6c-3.2-7.3-8.7-9.1-16-9.1
		c-8.6,0-17.3-0.6-25.8-1.4c-2.7-0.3-5.4-2.1-7.9-3.6c-3.7-2.2-7.1-4.7-11.2-7.4c-7,5.1-13.6,10.1-20.4,14.8c-2.4,1.7-5.1,3-7.9,3.9
		c-4.1,1.3-8.3,2.3-12.6,2.7c-2.5,0.2-5.1-0.9-9.8-1.9C3828.7,755.5,3830.5,753.9,3832.8,751.9z"/>
	<path onclick="modals(this.id);" id="2650" class="st0" d="M3628.2,891.8c-5.1-2-9.5-4.8-14.2-5.2c-5.1-0.4-10.5,0.7-15.4,2.4c-7.2,2.5-14,6.1-21.7,9.6
		c-0.8,10.1-1.5,20.3-2.4,31.4c-4-2.1-7.6-4.3-11.5-5.9c-6.2-2.7-9.6-1.5-11.5,4.9c-2,7-5.4,14.2-1.9,22.3c3.2-1.3,5.9-2.3,9.8-3.9
		c2.6,6.7,5.2,13.3,8.3,21.1c-4.1,2.9-8.1,5.8-12.9,9.3c5.9,8.9,10.7,16.4,15.7,23.7c6.7,9.7,4.5,16.1-7.1,18.3
		c-7.8,1.5-15.8,2.5-23.7,2.3c-20.2-0.4-38,3.9-51.5,20.5c-3.2,3.9-8.2,7.1-13.1,8.7c-11.9,3.8-24.2,6.4-36.3,9.5
		c-0.4-0.6-0.8-1.2-1.2-1.8c2.3-2.9,4.7-5.8,6.9-8.8c3.4-4.7,3.2-8.3-1.9-10.5c-5.9-2.6-8.9-6.6-10.3-12.4c-0.2-0.9-0.7-2-1.5-2.5
		c-6.6-4.6-10.2-9.9-7-18.5c1.3-3.4-3.9-6.8-8.4-5.6c-4.8,1.3-9.3,3.5-13.8,5.5c-2.3,1.1-4.4,2.8-6.7,4.4
		c-7.1-5.7-13.8-11.2-20.6-16.5c-2-1.6-4.6-2.9-7.1-3.3c-8.5-1.3-17.1-2.6-25.7-2.9c-9.3-0.3-13.1,4.9-11.8,14.1
		c0.5,3.6,0.6,7.2,1,11.1c-12.2,4.1-20.1-1.9-27.8-9.8c6.6-5.7,8.7-13.3,9.8-21.2c1.4-9.9,2.5-19.8,4.5-29.5
		c1-5.1,2.9-10.4,5.8-14.6c16.6-23.8,18.2-49.7,10-76.2c-6.5-20.9-14.9-41.3-22.4-61.9c-3.3-9-8.9-16.6-15.7-22.8
		c-7.9-7.1-7.1-14.5-3.3-22.5c3.5-7.5,7.7-14.7,11.9-22.5c4.4-0.5,9.4-2,14.2-1.4c8.7,1,15.3-2.4,21.7-7.6c2-1.6,4.3-3.7,6.7-4.1
		c10.6-2,15,3,13.9,14c-0.6,5.5,0,11.2,0.9,16.7c0.8,4.9,2.8,9.5,4.3,14.3c2.1,7,3,7.7,10.5,7.9c11.7,0.2,23.3,0.7,35,0.6
		c5.2,0,8.4,2.2,11.9,5.7c4.3,4.4,9.5,8.1,14.8,11.2c9.6,5.8,19.6,11,29.5,16.5c5.8-9.6,16.1-3.7,24.5-6.8c0-2,0-4.4,0-6.8
		c1.2-0.1,1.9-0.3,2.4-0.1c11,4.7,22,9.2,32.7,14.3c4.3,2.1,8.2,5.4,11.9,8.6c8,7,17.8,8.8,27.8,9.2c5.4,0.2,6.8-2.3,7.1-8.5
		c0.6-12.9,0.1-25.7-3.7-38.2c-0.6-1.8-0.4-3.8-0.8-7c10.5,0,20.4-0.3,30.2,0.1c10.3,0.4,18.6-2.6,25.3-11.1
		c8.2-10.6,19.7-16.9,32.3-20.6c19.6-5.7,37.7-14.7,55.6-24.1c7.1-3.7,14.4-7,21.1-11.2c6.5-4,12.8-8.3,12.1-17.8
		c-0.3-4.4,8.2-10.5,13.4-9.3c8.2,1.9,14.9,1.9,19.5-6.5c0.6-1.1,2.9-1.5,4.4-1.8c4.8-1.2,9.6-2.1,16-3.5c1.6,2.6,3.9,6.1,6.1,9.7
		c2.1,3.4,4,6.9,6.2,10.6c-7.2,5.7-14.3,11.2-21.1,16.9c-4,3.4-8.7,3.5-13.2,2.7c-8.1-1.5-14.9,0.4-21.3,5.6
		c-3.8,3.1-8.3,5.7-12.8,7.7c-12.4,5.5-21,15-27.9,26.2c-3.8,6.2-7.9,12.3-11.3,18.8c-2,3.7-3.6,8-4,12.1
		c-0.7,7.7-3.4,13.1-11.1,16.1c-3.2,1.2-6.2,3.9-8.5,6.6c-8,9.3-17.6,17.1-25.4,26.2c-11.3,13.2-21,28.3-23.8,46.3
		C3629.6,876.8,3629.1,884.1,3628.2,891.8z"/>
	<path onclick="modals(this.id);" id="2652" class="st0" d="M3568.9,460c7,6,13.4,11.1,19.3,16.7c1.6,1.6,2.2,4.7,2.4,7.2c0.4,6.3,2.8,11,7.2,15.8
		c6.4,7,11.1,15.6,17,23.1c2.3,3,5.6,6.1,9,7c6.3,1.7,13,2.2,19.6,2.5c12.3,0.4,26.3,9.4,31.2,20.9c-6.9,6.5-14,12.9-20.8,19.6
		c-3.3,3.2-6.4,6.8-9.4,10.4c-6.8,8.1-13.7,16.2-20.3,24.6c-4.3,5.5-7.8,11.5-11.9,17.2c-5.6,7.8-11,15.8-17.2,23.1
		c-6.3,7.4-9.2,16.2-11.8,25c-1.5,5.1-3.9,6.9-8.8,7.5c-7.9,1-15.6,2.7-21.7,3.8c-13.6-9.6-25.7-18.2-37.9-26.8
		c-0.8-0.6-1.8-1.1-2.7-1.1c-7.3,0.1-11.2-4.4-14.3-10.3c4.8-11.5,4.9-23,0.8-34.8c-3.1-8.8-3.5-17.6,4.2-25.8
		c-4.5-3.9-8.5-7.6-12.9-11.5c-3.5,4.5-6.6,8.3-9.4,11.9c-9.9,0.6-19.5-2-30.4,1.8c8.7,18.4,17.1,36.2,26.2,55.6
		c-12.1,2.3-23,4.6-33.9,6.4c-16.9,2.9-32.4,10-47.6,17.2c-6.3,2.9-10.8,9.6-16.9,15.2c-4.9-5.7-9.6-11.2-15-17.5
		c3.4-3.1,7.7-7.7,12.6-11.2c6.1-4.4,8.4-9.6,7.6-17.1c-0.9-8.8-0.8-17.6-1.2-27.3c-1.5-0.3-3.7-1.2-5.8-1.2
		c-12.5,0.3-23.4-4.3-33.4-11.2c-9.5-6.6-10-12.8-2.3-21.4c5.5-6.2,11-12.5,16.2-18.8c4.6-5.6,6.1-12.4,7-19.4
		c1-7.8,4-15.3,3.4-23.1c-16.7-3.6-27.8-19.7-25.3-36.5c0.6-4.2,1.3-7.8-2.1-10.9c-0.7,0-1.5-0.1-2,0.2c-11.3,7-12.7,6.6-18.9-4.8
		c-0.2-0.3-0.4-0.6-0.5-0.9c-2.3-4.8-5-10-2.1-15c3-5.2,8.9-3.7,13.8-3.4c24.5,1.7,49,3.8,73.4,5.5c21.9,1.6,43.7,2.8,65.6,4.4
		c16.2,1.2,32.3,2.6,49.7,4c-5.8,21.8-8.9,43.6-22.6,61.6c-0.6,0.8-1.5,1.3-2.1,2.2c-5.7,8.4-4.8,11.2,4.8,15.7
		c9.3,4.4,18.5,9.2,27.8,13.6c6.5,3.1,7.3,3.2,11.5-2.9c6.8-9.9,13.4-19.8,19.4-30.2c3.2-5.6,6.3-11.4,4.8-18.8
		c-0.9-4.3,0.7-9.2,1.5-13.8C3565.2,476,3567,468.3,3568.9,460z"/>
	<path onclick="modals(this.id);" id="2651" class="st0" d="M3174.7,451c3.3-1.9,5.2-3.2,7.3-4.2c21.3-10.3,42.6-20.5,63.8-31c4.1-2,7.2-1.8,11.1,0.5
		c15.9,9,32.2,17.4,43.9,32.3c2.7,3.5,3.2,3.2,10.4,2.2c2.2,5.2,4,10.5,6.8,15.3c4.8,8.5,8.2,9.4,17.1,5.8c1.2-0.5,2.4-0.8,3.8-1.2
		c-2.3,26.5,10.4,43.2,25.6,46.6c-1.7,9.1-3.1,18.2-5.2,27.2c-2.1,8.6-7.9,15.1-13.6,21.7c-4.1,4.7-8.3,9.5-12,14.5
		c-2.7,3.6-5.3,4.2-9.3,2.2c-7.1-3.6-14.4-6.9-21.5-10.5c-12.4-6.3-26.2-7.1-39.4-10.3c-14.7-3.5-26.7-11-33.8-24.3
		c-6.2-11.6-15.9-19.2-25.5-27.1c-14.2-11.7-14.6-14.2-4-29.4c7.3-10.4,2.6-22.5-9.7-24.9c-2.3-0.4-4.6-0.7-6.8-1.4
		C3181,454.1,3178.6,452.8,3174.7,451z"/>
	<path onclick="modals(this.id);" id="2658" class="st0" d="M2916.2,2060.1c4.7,7.3,9.4,14.8,13.9,21.8c-8.4,17.4-22.2,28.8-35.9,40.4
		c-5.2,4.4-9.6,9.8-14.9,15.3c8.5,10.5,17,21.1,25.6,31.6c9.9,12.1,19.9,24,29.9,36.1c6.7,8.1,10.5,16.8,6.5,28
		c-7.1,2.2-16,1.5-20.2,10.2c-9.8-4.9-19.8-2.8-29.7-2.9c-5.8-0.1-11.5,0-18.7,0c0-17,0-32.6,0-48.2c0-10.7,0.1-21.3-0.1-32
		c-0.1-7.6-6.7-10.9-13-6.5c-2.3,1.6-3.8,4.5-6,7.2c-10.8-4.7-20.1-8.7-22.1-21.4c-1.4-9.2-7.4-16.1-13.9-22.5
		c-5.1-5.1-10.8-9.7-12.1-17.7c-0.4-2.6-2.8-5.4-5-7.2c-10-8.1-20.3-15.9-31.3-24.4c-0.5-2.4-1.1-5.8-2-10.3c-7.9,0-15.4,0-23.4,0
		c0-4.6,0-8.2,0-12.4c27.4-5.2,53.1,6,79.8,7.4c0.4-0.3,1.1-0.5,1.4-1c5.8-10.7,7.3-11.2,17.3-4.7c5.9,3.8,11.6,7.2,19.3,5.7
		c2.8-0.5,6.3,1.4,9.3,2.6C2885.4,2060.8,2899.9,2064.5,2916.2,2060.1z"/>
	<path onclick="modals(this.id);" id="2654" class="st0" d="M3611,1070.2c4.2,0,6.5-0.1,8.7,0c15.2,0.9,15.8,0.8,18.8,16.1c1.9,9.9,6.4,15.5,16.7,16.1
		c2.3,0.1,4.6,0.9,6.7,1.9c6.1,2.9,14.4,1,17.7,10.4c2.3,6.4,6.1,11.9,7.3,19.2c1.7,10,5.6,19.7,8.7,29.5c0.7,2.2,1.5,4.3,2.2,6.6
		c-5.7,5.1-11,3.3-16.3-0.1c-5.8-3.8-11.6-7.8-17.8-11c-9.6-4.9-19.5-6.4-29.5-0.7c-1.4,0.8-2.9,1.2-4.3,1.7
		c-7.8-15.9-7.8-15.9-17-19.7C3612.3,1117.3,3611.7,1094.2,3611,1070.2z"/>
	<path onclick="modals(this.id);" id="2648" class="st0" d="M3583.9,942.8c-4.7,2.9-8,5-11.8,7.4c0.4,2.2,0.9,4.3,1.4,6.8c-1.5,1-3,2-5.3,3.6
		c-2.4-6.2-4.7-11.9-7.1-18.2c-3.4,1.6-6.2,3-10.9,5.3c2.1-8.1,3.7-14.6,5.5-21.9C3568,927.2,3574.7,935.5,3583.9,942.8z"/>
</g>
</svg>
