<?xml version="1.0" encoding="utf-8"?>
<!-- Generator: Adobe Illustrator 19.0.0, SVG Export Plug-In . SVG Version: 6.00 Build 0)  -->
<svg version="1.1" id="Layer1" xmlns="http://www.w3.org/2000/svg" xmlns:xlink="http://www.w3.org/1999/xlink" x="0px" y="0px"
	 viewBox="0 0 6000 3000" style="enable-background:new 0 0 6000 3000;overflow: hidden; display: inline; width: inherit; min-width: inherit; max-width: inherit; height: inherit; min-height: inherit; max-height: inherit;" xml:space="preserve">
<style type="text/css">
	.st0{fill:#8FD4EB;stroke:#000000;stroke-width:2;}
</style>
<g>
	
	<path onclick="modals(this.id);"  id="2682" class="st0" d="M3326.3,2304.3c-13.6,4.6-12.5,16.2-12.5,28.4c-7,0-13.3,0.2-19.5-0.1
		c-4.7-0.2-8.2,1.3-11.4,4.8c-5.8,6.5-12,12.5-17.7,19c-3.9,4.4-8.3,7-14.3,8c-7.7,1.3-8.8,2-8.5,9.6c0.5,11.1-4.5,17.1-14.4,20.3
		c-5,1.6-9.9,3.7-14.9,5.5c-5.3,1.9-6.6,4-4.4,9c2,4.5,5,8.6,7.2,13c1.1,2.2,2.6,5.2,2,7.2c-3.4,10.6-7.5,21-12.1,33.9
		c-1.5-4.7-2.2-7-2.9-9.1c-11.6-2-24,2.3-28.2,10.3c-1.6,3.1-2.5,7-2.4,10.5c0.2,3.8,1.3,7.9,3.3,11.2c1.8,3,5.2,5,8.5,8
		c-2.1,1.5-4.4,2.4-5.4,4.1c-4,6.6-8,10.2-15.7,3.9c-3.3-2.7-11.9,2-13.6,6.8c-1.1,3.1-1.7,6.3-2.7,10.1c-4.4-1.3-6.4-4.8-8.9-7.7
		c-12.2-14.5-26.9-16.2-42.1-4.8c-1.1,0.8-2.2,1.6-3,2.6c-2.5,3.4-2.8,21.1-0.5,24.7c1.4,2.2,2.8,4.5,4,6.8c0.6,1.1,0.8,2.5,1.2,3.9
		c-3.4,4.2-6.8,8.2-9.8,12c-12.3,2.5-23.9,7.1-37.3,4.4c-0.5-1.3-1.7-3.1-1.7-4.8c0.3-14.6-8.5-25-17.1-35c-3.6-4.3-9.7-6.7-15-9.1
		c-3.9-1.7-8.4-2.5-12.6-2.7c-8.5-0.5-13.5-4.3-17.5-12.1c-3-6-8.3-11.2-13.7-15.5c-7.6-6.2-17.6-3.5-23.8,1.4c-1,0.8-2.1,1.6-3,2.6
		c-11.7,13.9-10.8,13.1-28.1,4.5c-6.5-3.3-13.4-6-20.3-8.2c-3.1-1-5.5-2-6.3-5.3c-1.7-7.3-6.4-9.9-13.8-10.1
		c-10.6-0.2-17.3-7.2-20.6-16.2c-3.3-9.3-9.1-16.2-16.6-21.8c-5.4-4-8.2-9.4-10.4-15.4c-1.5-4-3.1-8.1-4.4-12.2
		c-4-12-12.1-21.5-20.9-30c-6.3-6.2-8.9-13.2-9-21.3c-0.2-14.6,0.8-29,5.4-43.3c5.5-16.7,10.6-33.5,10.7-51.5
		c0-10.4,3.8-20,12.2-27.5c8.5-7.6,13.8-17.7,18.6-29.1c-5.3-3.7-10.2-7.6-15.6-10.6c-7-4-11.4-8.8-9-17.6c0.6-2.1,0.1-4.6,0.1-6.8
		c-21.5-15.8-47.1-20.1-70.6-28c3.8-17.2,7.6-33.3,10.9-49.5c0.9-4.5,0.4-9.3,1.1-13.9c1.2-7.8-3.1-12.5-9.5-14.2
		c-9.8-2.6-12.2-9.8-12.3-18c-0.2-8.9,1.2-17.9,1.8-26.8c0.3-5.3,0.5-10.5,0.8-16.4c-10.3-1-19.8-1.8-29.3-3
		c-7.6-1-15.1-2.3-22.5-4.3c-2.8-0.8-6-3.5-7.2-6.2c-4.3-9.6-9.9-17.9-19.3-24c9.4-19.4,9.4-40,10.3-60.6c0.6-13.5,6.6-25.1,15.2-35
		c12.4-14.4,14.2-31.4,3.7-47.4c-2.9-4.4-6-8.7-9.1-13.2c2.2-2.8,4.1-5.1,6.1-7.7c1.7,0.3,3.4,0.4,4.8,1c4.6,1.9,8.9,4,14,0.5
		c6.1-4.3,10.6-9.7,10.9-17c0.4-9.6,0.6-19.5-1.4-28.8c-2.2-10.5,2.5-17.4,8.6-24c4.5-4.9,11.8-4.3,17,0.1c5.9,4.9,12,9.5,17.9,14.3
		c3.6,2.9,7.1,5.9,10.5,9.1c8,7.6,18.5,10.2,28.2,14.5c1.6,0.7,5.2-1.3,6.8-3c5.9-6.6,13-8.6,21.8-9.7c14.1-1.8,27.8-5.6,42.3-5.6
		c6.7,0,13.5-3.2,20-5.7c7.2-2.7,13.5-1.1,20.5,2.5c-1.8,7.8-9.7,14.2-4.9,24.7c4.8,1.4,10.7,3.8,16.8,4.8c7,1.1,10.6,4.7,11.9,11.4
		c1,5.2,2.2,10.4,3.6,16.8c2,0.9,4.9,2.7,7.9,3.5c6,1.7,9.4-0.1,10.7-6.6c2-9.6,9.1-14.3,16.5-18.9c5.3-3.3,10.9-2.5,15.8,1.3
		c3.4,2.7,7,5.1,10,8.2c4.9,5.1,9.9,4.3,15.2,1.1c9.5-5.8,19-11.7,29.3-18c1.6,4.5,3.7,8.6,4.4,13c1.3,8.1,0.9,15.3-7.5,20.8
		c-9.6,6.4-14.3,15.7-12.5,28.2c0.8,5.8-0.6,13.1-3.7,18c-8.5,13.5-8.6,26.8-2.9,40.9c0.4,0.9,0.6,1.9,0.8,2.8c0.1,0.3,0,0.7,0,2
		c-6.1,0.7-12.3,1.5-18.4,2.2c-4.9,0.6-9.9,0.8-14.8,1.7c-9.3,1.6-12.8,5.6-14.2,15.3c-2.4,16.4,3.3,30.1,13.9,42.1
		c2.4,2.8,5.5,5,7.5,8c1.9,2.9,4.1,6.6,3.9,9.8c-0.5,6.8,3.3,10.5,7.8,14.1c3.4,2.7,6.7,5.5,10.4,7.8c8.8,5.6,14.9,12.8,16.7,23.5
		c1.2,7,7.1,10,13.8,10.9c2.6,0.4,5.4,0.2,7.9,0.7c8,1.7,11.5,7.2,9.9,15.4c-2.2,11.7,0.8,16.3,12.9,18c8.4,1.1,12.5,7.1,16.7,13
		c1,1.4,0.2,4.5-0.4,6.6c-1.9,6-4.1,11.8-6.4,18.4c5.6,0.3,10.2,0.5,14.8,0.9c9.2,0.8,18.4,1.6,26.9,5.6c7.2,3.3,14.5,0.2,21.5-0.9
		c5.3-0.9,8.8,0.3,12.6,3.5c13.8,11.5,27.7,22.9,41.6,34.3c2.3,1.9,4.7,3.6,7.8,5.8c2-2,3.7-3.7,5.5-5.5c6.3-6.4,14.7-8.3,22.5-4.2
		c10.5,5.5,21.7,8.2,33.2,10c3.2,0.5,6.5-0.5,9.8-0.6c3.9-0.1,7.7,0,13.2,0c-9.9,14-5.5,25,4.4,35.4c5.5,5.7,4.9,9.7-0.8,15.3
		c-2.7,2.7-7.4,4.5-6.2,9.3c1.4,5.7,1.9,12.1,7.6,15.8c18.9,12.2,19.4,23.5,10.1,43.1c-4,8.4-1.4,16.2,4.1,23.1
		C3319.7,2298.6,3322.9,2301.1,3326.3,2304.3z"/>
	<path onclick="modals(this.id);"  id="2683" class="st0" d="M2658.8,2327.4c-6,13.9-19.7,22.9-18.3,38.7c5.2,3.6,10.4,3.6,15.2-1
		c7.2-6.9,15.3-10.1,25.6-11.1c23.8-2.3,39-20.7,40.8-42c1.2-13.9,8-25.2,13.8-36.9c5.3-10.6,5.2-21,1-31.7
		c-5.6-14.2-11.3-28.4-16.8-42.7c-0.7-1.7-1-4-0.4-5.7c6.7-19.5,13.6-38.9,24.4-56.6c0.1-0.2,0.6-0.3,1.1-0.6
		c12.8,3.8,26,7.1,38.8,11.5c8.8,3,17,7.5,25.5,11.3c4.9,2.2,7.3,5.5,5.4,11.1c-2.3,7.1,0.3,11.8,6.8,15.5c6,3.4,11.4,7.9,18.3,12.8
		c-6.1,8.7-11,18-18.1,25.1c-8.9,8.9-13.3,19.5-13.4,31.2c-0.1,17.7-6,33.9-10.7,50.5c-4.8,17.1-7.4,34.4-3.8,52
		c0.8,3.7,2.9,7.6,5.5,10.2c13.1,13.3,23.1,28.2,28.3,46.2c1.9,6.6,5.6,11.8,11.3,16c6.8,5,11.7,11.3,14.8,19.5
		c3.9,10.5,11.4,18,23.5,18.5c6.2,0.3,9.6,3,11.5,8.9c0.8,2.5,3.4,5,5.8,6.1c9.1,4.1,18.5,7.2,27.6,11.3c12.4,5.6,13.8,5.5,23.1-4.7
		c1.3-1.5,2.4-3.2,3.9-4.5c7.6-7,17.4-7.2,25.1-0.1c4.4,4,8.4,8.1,10.7,14.1c2.4,6.3,6.9,11.1,14.9,11.2c4.9,0.1,9.9,1.3,14.6,2.8
		c18.5,6,26.7,20.5,30.8,38.2c0.8,3.5,0.8,7.2,1.2,11.2c12.6,2.5,24.5,0.1,36.8-3.4c-1.6,4.7-2.7,8.5-4.2,12c-2,4.7-5.3,8.2-10.5,10
		c-6.6,2.3-13.1,4.9-19.4,7.7c-3.2,1.5-6.4,3.5-8.9,5.9c-6.3,6.3-18.4,5.5-24.2-0.5c-2.8-2.8-5.9-5.3-9-7.8
		c-4.6-3.8-9.5-5.2-15.7-3.5c-4.4,1.2-9.3,0.4-13.9,0.4c-5.3,0-10.7-0.7-15.3,3c-0.2,0.2-0.6,0.4-0.9,0.4
		c-10.5-1.1-18.2,5.2-26.3,10.1c-6.7,4.1-12.7,1-18.9-1.3c-3.4-1.2-7-3.1-10.2-2.8c-7.1,0.7-9.5,4.6-9.7,12.4
		c-0.6,16.4,1.1,32.3,7.1,47.9c3.5,9,3.5,19.4,5.2,29.9c-7.1,4.6-14,9.2-20.9,13.6c-6.7,4.3-13.4,8.5-18.7,12
		c-5.4-5.7-9.7-11-14.8-15.5c-6.7-6-13-11.9-17-20.5c-2.2-4.6-7.7-8-12.3-11c-4.1-2.8-8.6-4.6-11-9.6c-1.2-2.5-4.2-4.1-6.5-6
		c-3.3-2.7-6.8-5.2-9.9-8.1c-3.2-3-6.1-4.7-10.6-2c-2.8,1.6-6.3,2-9.4,3.1c-7.9,2.9-14.7,1-21.4-3.6c-9.4-6.4-19.8-6.7-30.2-3.3
		c-4.3,1.4-8.4,4.2-11.9,7.1c-7.6,6.4-14.7,13.3-22.1,20c-2,1.8-3.9,3.6-6.1,5.1c-6.5,4.4-6.6,4.3-8.1,13.1
		c-11.9,0.9-24.1,1.7-36.3,2.6c-15.6,1.2-31.2,1.5-46.6,3.9c-10.7,1.6-21.1,5.9-31.6,9.2c-14.9,4.6-29.8,9.3-44.8,13.9
		c-4.9,1.5-9.5,1.4-14.5-0.2c-19.9-6.6-40-12.4-59.8-19.2c-8.7-3-15.3-1.6-21.6,4.9c-5.5,5.8-9.8,4.6-11.2-3.5
		c-1.9-11.1-2.7-22.4-4.1-33.6c-0.4-2.9-0.7-5.9-1.4-8.7c-1.3-5.2-5.6-7.7-10.2-8.3c-4.4-0.6-8.4,1.8-10.9,5.8
		c-1.2,1.9-2.2,3.9-3.2,5.7c-11.6-1.8-14.2-14.1-24.1-17.9c1.4-2.7,2.3-5.1,3.7-7.3c9.7-15.1,11.9-31.5,8-48.7
		c-2-8.7-1.2-16.4,3.5-23.8c0.7-1.1,1-2.5,1.8-3.5c11.4-13.6,9.7-29.2,8.1-45.4c-1.8-17.8-2.4-35.8-2.4-53.7c0-7.4,3-14.9,5.1-22.1
		c2.6-8.6,3.5-17.1-1.7-24.9c-2.1-3.2-4.9-6.4-8.2-8.2c-14.2-7.9-24-19.7-31.9-33.5c-3.6-6.4-3.6-6.4,0.5-15
		c7.5-0.7,14.9,0.5,22.2,2.9c12.9,4.2,24.6-2.2,28.3-15.4c2.4-8.3,4.1-16.8,6.8-25c3-9,6.8-17.8,10.5-27.5
		c11.4,3.2,21.6,5.5,30.5,11.9c2.9,2.1,6.2,4.1,9.6,4.9c37.2,8.8,74.4,17.3,111.7,25.8c3.2,0.7,6.6,0.6,9.9,0.7
		c26.3,0.5,52.6,0.9,78.8,1.4C2654,2326.7,2655.4,2327,2658.8,2327.4z"/>
	<path onclick="modals(this.id);"  id="2677" class="st0" d="M2929.6,1689.5c-6.3-5-10.9-8.7-15.3-12.3c-9.6,2.4-13.6,7.1-12.4,17.1
		c0.9,7.7-0.5,13.7-7.3,18.5c2.7,6.8,6,12.3,12.7,15.9c4.1,2.2,7.1,6.3,10.7,9.6c-0.4,0.6-0.7,1.1-1.1,1.7c-2.8-0.5-5.8-0.4-8.4-1.5
		c-10.7-4.7-20.6-1.2-30.7,2.3c-4,1.4-8.3,2.2-12.6,2.5c-9.9,0.7-19.8,1-29.4,4.5c-3.7,1.3-7.9,1.8-11.8,1.5c-7-0.6-12,2.2-16.8,6.9
		c-6.8,6.8-6.9,6.1-15.6,2.7c-18.4-7.2-31.3-22.1-46.6-33.5c-9.5-7-18-6.4-25.4,3.1c-5.5,7-7.3,14.1-5.8,22.9
		c1.4,8.1,1.4,16.5,1.6,24.8c0.1,2.8-0.8,5.9-2.1,8.4c-6.3,12.2-14.3,13.3-23.5,5.8c0-9.2-3-17.8-8.3-25.7
		c-4.8-7.1-4.7-15.1-3.3-23.1c1.2-6.9,2.5-13.7,4.2-20.5c2.8-11.6,5.3-23.2,5.5-35.3c0.1-7.8,3.2-15.6,1.7-23.6
		c-0.3-1.6-0.1-3.4-0.7-4.9c-1.5-4.3-4.9-5.3-8.7-2.7c-1.6,1.1-2.9,2.7-4.3,4.1c-1.1,1.1-2.1,2.3-4.2,4.5c-2.3-4.2-4.1-7.6-6-11
		c-2-3.4-4.3-5.5-9-4c-2.5,0.8-5.6-0.4-8.4-1c-2.9-0.6-5.6-2-8.5-2.3c-5.7-0.7-10.1,0.6-12.5,7c-2.6,6.9-5.4,7.1-11,2.2
		c-2.2-2-4.6-4-6.2-6.5c-11.6-17.4-25.8-33.1-34.4-52.5c-4-9-11.3-14.6-19-19.9c-3.1-2.1-5.9-2.8-9.3-1.1c-4.1,2.1-8.5,3.8-12.4,6.3
		c-12.2,8.1-25,6-34.1-5.5c-5.2-6.6-7.3-13.8-7.5-22.1c-0.2-8.6-1.6-17.1-2.7-25.6c-0.3-2.2-1.1-5.2-2.7-6.2
		c-7.3-4.3-9.4-11.8-12.1-18.9c-4.9-12.6-12.8-20.8-26.5-24.5c-11.2-3-16.9-13.3-22.6-22.7c-5.5-9.2-4.8-18.4,1.7-26.9
		c4.4-5.8,6-12.4,7.9-19.2c4.4-16.4,9.1-32.6,14.1-48.8c3.6-11.8,7.2-23.5,11.6-35c4.1-10.8,10.7-19.4,21.9-24.6
		c9.6-4.5,13-13.8,12.2-24.3c-0.9-11.8-5.4-22.6-11.2-32.8c-1.1-2-2.2-4.2-3.5-6c-6.5-9-4-17.7,2.6-24.4
		c7.9-8.1,14.6-16.2,16.5-27.6c0.1-0.8,1.4-1.4,2.3-2.3c5.1,2.6,7,7.4,8.9,12.4c1.3,3.3,2.6,7.5,5.2,9.3c5.9,4,7.7,9.5,9.3,15.7
		c3.4,13.8,12.5,18.5,25.9,14.5c4.6-1.4,9.7-1.3,14.6-1.4c6.8-0.2,13.7-0.1,20.8-0.1c0,5.5,0.4,12.5-0.1,19.4
		c-1.1,17.2-2.3,34.4-3.9,51.6c-0.6,6.5-2.1,13-3.7,19.4c-2.5,9.9-5.4,19.7-8,28.8c4.4,7.3,9.9,9.5,16.7,8.5
		c5.9-0.9,11.8-1.7,17.6-3.2c13.1-3.3,25-1.1,35.7,7.4c11.4,9,20.4,19.8,26.1,33.4c2.3,5.4,1.5,9.3-1.1,13.9
		c-7.9,14.2-15.6,28.6-23.3,43c-1.1,2-1.8,4.2-2.8,6.7c4.3,2.9,8.7,5.3,12.2,8.6c3.3,3.2,5.1,8.2,8.7,10.8
		c7.6,5.4,9.1,12.4,8.1,20.9c-0.1,0.7,0.1,1.3,0,2c-1.5,11.6,0.5,21.7,11.5,28.2c1,0.6,1.6,2,2.8,3.5c-8.7,10.6-1.6,21.6-0.5,32.4
		c0.4,3.7,5.3,7,7.8,10.1c6.4-1.9,10.1-4.8,11.7-10.1c1.4-4.8,4.7-6,9.4-4.3c3.7,1.3,7.6,2.2,11.2,3.8c6.3,2.9,12.5,3.6,19.4,1.9
		c7-1.8,14.3-2.5,22.2-3.8c0.9-2.9,1.8-6,3-9.8c-7.5-4.8-14.7-9.4-20.6-13.2c-2.7-8.8-5-16.3-7.6-24.4c3.4-3.2,7.2-6.8,11.7-11
		c-2.7-2.9-5.4-5.2-7.4-8.1c-3.5-5.1-7.6-10.3-9.6-16.1c-2.7-7.5-6-13.7-12.9-18.2c-9-5.8-13.7-14.2-13.2-25.1
		c8.2-2.4,29.1-1.9,45,1.1c1.5,7.2,6.2,12.2,12.9,16c2.4,1.4,4.1,4.3,5.7,6.7c4.1,6.3,13.5,10.5,19.3,5.9c10.2-8.1,21.4-6,32.2-5.5
		c21.9,1.1,43.7,3.6,66.3,5.5c0.9,4.5,1.9,9.3,2.9,14.3c3.6,0.7,7,1.4,9.2,1.9c1.3,10,2.5,19,3.8,28.8c7.3,1.4,14,2.8,20.8,4
		c4.2,0.8,8.7,1,12.7,2.3c9.4,3.1,17.2,0.6,25.4-4.3c5-3,7.5-6.2,7.3-11.7c-0.3-8.6,2.8-15.2,10.4-19.9c5-3.2,9.3-7.5,14.2-11
		c9.6-6.9,10.9-16.8,10.3-27.4c-0.2-3.3-1.4-6.5-2.1-9.7c-1.2-5.2-1.8-10.3,0.7-15.5c1.3-2.6,1.7-5.8,1.8-8.7
		c0.3-4.6-1.1-8.2-6.2-10c-20.4-7.2-40.3-16-61.1-21.6c-12.4-3.4-24.2-7.9-36.2-12.2c-2.5-0.9-5.5-1.6-7.1-3.5
		c-6-7.1-14.6-9.1-22.5-12.2c-5.9-2.3-10.6-5.3-13.3-11.6c1.2-1,2.4-2,3.7-3c8.4-6.8,10.5-16.8,5.2-26.3c-4.1-7.3-7.4-14.5-8.1-23.2
		c-0.4-5.3-3.7-10.6-6.6-15.4c-3.7-6.2-5.3-12.8-1.8-18.9c5.1-9,5.4-18.4,4.9-28.1c-0.4-8.9,1.2-17.1,6.4-25.8
		c9.4,0.9,19.2,1.8,29,2.6c13.6,1.1,27.1,2.2,40.7,3.3c2,0.1,4.3,0.3,5.9-0.5c14.9-7.3,29.9-1.1,44.9-0.9
		c9.4,0.2,14.9,6.8,18.6,14.4c4.7,9.6,11.5,14.5,22.6,14.5c13.5,0,19,1.5,22,18.5c1.2,6.6,4.3,12.1,9.5,15.9
		c8.1,5.9,10.7,13.1,7.8,22.5c-0.4,1.2-0.4,2.5-0.6,3.8c4.1,3.1,7.7,1.1,11.5,0.1c13.1-3.6,26.4-7.3,40.1-6.1
		c8.1,0.7,15.8,0.7,23-3.4c0.6-0.3,1.3-0.7,1.9-0.6c10.7,2.1,20.9-1.8,31.4-2.9c6.4-0.7,11.5,1.4,16.2,5.8
		c5.6,5.1,11.8,9.5,18.3,14.7c-1.3,9.8-2,20.4-4.2,30.7c-2,9.6-1.7,18.4,3,27c1.2,2.2,1.7,4.9,2.7,7.9c-3,0.2-5.2,0.6-7.5,0.6
		c-21.7-0.2-43.4,0.9-64.9-1.1c-11.4-1.1-15.1,3.7-18.5,12.1c-4.4,10.7-9,21.1-8.1,33.4c0.7,9.4-1.4,19.2-3,28.6
		c-0.7,4.3-3.4,8.2-5.2,12.3c-7.5-1.2-13.7-2.3-19.9-3.2c-5.5-0.8-10.5,0.2-14.5,4.7c-4.4,5-9.5,9.5-13.2,14.9
		c-2.3,3.3-3.2,7.9-3.7,12.1c-1.3,9.8-1.9,19.7-2.8,29.6c-13.4,2-25.9,3.3-38.5,0.8c-3.2-0.6-5.7,0.2-7.4,3.6
		c-3,6.2-6.7,11.8-4.5,19.7c1.1,4-0.4,9.3-2,13.5c-6.3,16-13,31.9-19.8,48.3c-7.2,1-14.7,2.1-23.1,3.3c0,6,0.5,11.7-0.1,17.2
		c-1.2,10.2-2.4,20.5-5.1,30.3c-1.7,6.2-5.3,12.4-9.6,17.1C2931.8,1672.6,2929.3,1679.1,2929.6,1689.5z"/>
	<path onclick="modals(this.id);"  id="2679" class="st0" d="M3670.2,1939.2c-9.1-4.7-15.8-9-23.2-11.6c-8.8-3.1-17.1-6.8-25.2-11.6
		c-8.9-5.3-18.7-7.8-29.6-7c-6,0.4-12.4-1.9-18.3-3.9c-6.2-2.1-11.9-2.3-16.7,2.4c-8.5,8.5-17.7,5.9-26.7,2
		c-12.8-5.6-25.2-12-37.8-18c-4-1.9-7.7-2.8-12.3-1c-3,1.2-7.3,0.5-10.7-0.4c-9.3-2.5-18.3-5.9-27.6-8.4c-11.2-3-22.4-6.2-33.8-7.9
		c-12.3-1.8-22.8-7-32.4-14.3c-4.6-3.5-9-6.7-15.2-6.1c-3.5,0.4-6.4-0.9-8.2-4.3c-1.1-2-3-3.5-3.2-3.6c-8.6-0.8-15.5-0.8-22.1-2.2
		c-10.2-2.3-19.4-2.8-28.4,4.2c-3.3,2.6-8.6,2.9-13.1,3.4c-3.7,0.4-6.6,1.2-7.7,5c-1.1,4-3.5,8.2,0.9,12c3.8,3.2,7.5,6.6,11.2,9.9
		c-1.4,2.7-1.9,4.2-2.8,5.5c-8,11.9-7.6,19.2,2.1,30c4.4,4.9,9.2,9.6,13.8,14.4c4,4.1,7.2,8.5,7.2,14.7c0,3.2,1,6.5,2.1,9.6
		c1.9,5.3,4.1,10.4,2.4,16.4c-0.6,2.2,0.6,5.2,1.6,7.5c2.6,5.8,2.4,11.6,0.6,17.5c-3,9.5-1.3,14.7,6.6,20.5c1.8,1.3,3.6,2.8,5.3,4.1
		c-2.1,8.1-8.8,9.9-14.9,12.5c-3.9,1.6-7.8,2.5-8.7,8.2c-0.8,5.3-0.5,9.3,4.1,12.1c3.9,2.4,4.6,6.1,5.9,9.9
		c1.9,5.6,4.3,11.1,6.3,16.6c1.1,3.1,2,6.2,2.6,9.4c0.9,5.4-1.2,9.1-5.7,12.6c-5.4,4.2-10,9.6-14.5,14.8c-4,4.7-4.2,10.2-2,15.9
		c2.4,6.4,3.4,12.8,0.3,20.1c-18.3,2.1-36.6,2.2-54.1-6c-16.2-7.6-22.4-6.6-35.1,5.9c-8.1-6.5-16.4-13.1-24.5-19.7
		c-7.7-6.3-15.6-12.4-23-19.1c-4.1-3.7-8.4-5-13.7-3.7c-10.6,2.5-20.7,2.7-31-2.5c-4.7-2.4-11-1.6-16.6-2c-3.3-0.3-6.6,0-11.5,0
		c1.9-5.8,3.3-10.7,5.3-15.4c1.8-4.4,1.5-7.6-1.7-11.7c-5.4-6.9-11.3-11.6-20.4-12.4c-6.2-0.6-8.7-5.4-7.7-11.5
		c0.5-3.2,1.4-6.5,0.9-9.6c-1.6-9.3-8.9-12.3-16.8-12.4c-9.7-0.2-14.5-4.2-16.6-13.5c-1.6-7.3-5.9-13.1-12.4-17.4
		c-5.6-3.6-10.9-7.7-15.8-12.1c-2.3-2-4.9-5.4-4.8-8c0.3-9.1-4.9-14.3-10.6-20.3c-11-11.7-18.3-25.3-14.5-42.3c2-8.8,4-11,13.1-12.3
		c7.5-1.1,15.2-1.5,22.8-2.2c3.9-0.4,7.8-0.7,13-1.2c-1.2-3.9-2-7-3.1-9.9c-5-12.9-5.2-25.2,3.2-37c4.8-6.7,4.3-14.6,3.7-22.2
		c-0.8-9.1,2.4-16.1,9.3-21.8c12.1-10.1,14-17.2,8.8-32.1c-0.5-1.6-1-3.2-1.9-6.2c3.8,0.8,6.9,1.4,9.9,2.2c9.6,2.5,17.8,0.1,24-7.4
		c7.2-8.7,15.2-15.2,27.1-16.9c5-0.7,10.5-4.9,14-9c11.6-13.5,26.1-21.5,43-25.6c6.7-1.6,10-5.4,11.8-11.8
		c2.9-10.8,8.3-20.2,17.3-27.3c5.1-4,7.5-9,7-15.6c-0.5-6.6-0.3-13.3-0.4-20c-0.1-6.8,1.8-9.6,8.1-12c2.5-0.9,5.1-1.6,7.6-2.5
		c2.4-0.8,4.9-1.8,7.5-2.8c-2.5-5.2-4.7-9.9-7.4-15.5c2.2-1.2,4.5-3.5,5.9-3c6.2,1.9,11.9-0.2,17.6-1.6c7-1.7,13.7-1.5,20.5,1.9
		c-1,14.9,5.5,28.4,9.1,42.4c0.7,2.7,3.8,5.3,6.4,6.8c3.4,1.9,7.5,2.7,11.3,3.7c3.8,0.9,6.7,2.6,8.3,6.3c3.3,7.8,9.4,10.5,17.7,9.6
		c3.9-0.4,8,0.2,11.9,0.6c10,0.9,17.5,4.9,20.7,15.3c1.4,4.3,4.4,8.1,6.7,12.2c25.9,0.7,51.5,1.4,77.4,2.2
		c3.7,10.2,9.2,19.1,17.4,26.3c9.1,8,26.2,8.2,34.7-0.4c1.7-1.7,2.3-5.2,2.3-7.8c-0.1-4.3-1.8-8.5-1.8-12.8c0-3.4,1.6-6.9,2.7-11.1
		c23.8,0,47,0,69.9,0c0.3-1.3,0.6-1.7,0.5-1.9c-6.9-11.3,0.8-17.6,8.2-23.9c5.9-5.1,11.5-3.1,13,4.4c1.9,9.8,3.3,19.6,5.9,29.2
		c1.8,6.6,4.9,13,7.9,19.2c2.1,4.5,5.4,7.1,11.2,5.7c4.8-1.2,8.8,1.4,11.9,5.4c8.9,11.4,19.7,20.4,33.3,26.1
		c6.6,2.7,9.9,8.5,11.2,15.5c1.5,8.5,5.5,15.5,12,21.3c5.3,4.6,10.8,6.5,18.1,5.8c7.8-0.7,15.8,0.7,23.7,1.5
		c5.2,0.5,10.4,1.7,15.5,2.5c4.6,12.6,6,24.9,2.1,37.5c-1.1,3.5-2,7.1-2.4,10.7c-0.7,6.3-0.8,12.5,3.7,18c1.6,1.9,2.2,4.6,2.9,6
		c-7.1,14.5-19.9,22.1-30.6,31.8C3691.9,1921.7,3680.4,1930.7,3670.2,1939.2z"/>
	<path onclick="modals(this.id);"  id="2678" class="st0" d="M3690.5,1409.2c6.3,2.3,11.9,4.1,17.2,6.5c1.6,0.7,3.6,3.7,3.2,5c-2.7,9.3,1.4,17,5.6,24.6
		c3.5,6.3,7.7,12.2,11.4,18.5c1.5,2.6,2.4,5.4,3.7,8.1c1.8,3.9,3.1,8.2,5.7,11.5c6.4,8,7.7,19.4,16.9,25.4c0.4,9,8.2,11.3,14.1,15.1
		c15.9,10.3,31.8,20.7,48,30.6c5.5,3.3,7.7,7.1,7.5,13.7c-0.5,15.6-0.4,31.3,0,47c0.1,5.8-1.7,9.8-6.7,12.2
		c-17.7,8.5-26.7,25.5-38.5,39.6c-2.2,2.7-3.3,6.5-4.4,9.9c-4.3,12.9-10.2,24.4-22.6,31.7c-6.9,4-9,11.9-8.9,19
		c0.2,8.8-2.6,15.2-8.8,21c-5.5,5.2-10.8,10.2-13.1,18.3c-2.1,7.5-2.2,14.2,0.1,21.3c1.6,4.9,2.9,10,4.3,14.8
		c-14.4-0.7-28.2-1.2-42.1-2.2c-9.4-0.7-14.3-7.9-18.9-14.7c-2.2-3.2-3.4-7.3-4-11.2c-1.4-8.9-7-14.1-14.6-17.4
		c-11.5-5-20.9-12.9-28.8-22.4c-4.5-5.5-9.1-9.6-16.8-8.3c-3.5,0.6-5.9-0.9-7.3-3.9c-2.3-4.7-5.3-9.4-6.5-14.5
		c-2.7-10.9-4-22.2-6.8-33c-1-3.7-3.8-8-7.1-9.8c-3.8-2.2-8,0.2-11.4,3.6c-4.2,4.3-9.1,7.8-12.9,11.1c1.5,5.6,2.4,9.1,3.4,13.3
		c-2.1,0.4-3.6,0.9-5.2,0.8c-18.9-0.3-37.9-0.7-56.8-1.2c-4.3-0.1-7.5,1.5-8.4,5.5c-1,4.7-1.4,9.6-1.4,14.5c0,3.9,1,7.9,1.6,11.8
		c-11.5,10.2-24.6,10-35.2-0.7c-5.7-5.7-10.8-11.8-12.4-20.1c-0.3-1.5-1.5-2.9-3.1-5.6c-18.7,0-38,0-57.3,0c-3.3,0-6.7-0.4-10,0.1
		c-7.5,1.1-12.2-2-14.1-9.1c-4.4-17-17.8-19.5-32.3-20.3c-2.7-0.2-5.3-0.2-8,0c-4.9,0.3-8.6-1.5-10.4-6c-2.7-6.8-8-9.2-14.7-10.2
		c-7.5-1.2-12.4-5-13.8-13.3c-1.5-8.5-4-16.8-6.6-25c-1.5-4.9-1.1-9.5,1.6-13.3c4.5-6.3,3-11.8-0.5-17.6c-2.2-3.6-4.1-7.4-6.4-11.4
		c4.7-3.1,8.2-0.7,11.8,0.3c3.5,0.9,7,1.8,10.9,2.9c6.5-9,12.2-18.1,19.1-26.1c10.5-12,14.8-26.3,18-41.4c4.1-19.1,9-38.1,13.6-57.1
		c-4-2.5-7.7-4.9-10.7-6.8c1.6-14,3.4-27.1,4.5-40.2c0.5-6.1,2.9-11.1,6.6-15.2c8.4-9.4,17.4-18.4,26.3-27.4
		c3.7-3.7,7.5-5.1,13.3-3.3c9.8,3.1,20.1,4.5,30,6.9c2.7,0.7,6.2,1.8,7.6,3.9c6.6,10,16.6,9.9,25.7,7.4c14.4-3.9,28.4-9,43.5-10.1
		c2.9-0.2,5.7-1.7,8.4-3c5.9-2.8,11.7-5.8,17.1-8.5c1.3,0.2,2.1,0.2,2.5,0.5c9.3,9.2,20.4,13.4,33.4,11.8c1-0.1,2.1-0.2,3,0.1
		c14.4,4.7,29.5,3.4,44.2,5.2c2,0.2,4.3,0.1,5.8,1.1c10,6.3,21.4,8.4,32.4,12c2.6,0.9,5.3,4.2,6.3,7c2.2,5.8,3.7,12,5,18.2
		c2.1,9.5,5.8,12.1,15.3,10.6c3.9-0.6,8-1.3,11.9-0.7C3675.3,1422.6,3683.5,1417.4,3690.5,1409.2z"/>
	<path onclick="modals(this.id);"  id="2670" class="st0" d="M3119.9,775.8c-0.6,13-1.3,26.6-2,41.3c-4.5,0.5-9,1.5-13.5,1.5c-21.7,0.2-43.3,0-65,0.1
		c-7.3,0-14.6,0.5-22,0.6c-2.2,0-4.4-0.2-7.6-0.5c5.7-9.1,11.9-16.1,20.8-19.2c11.7-4.1,18.3-12.6,23.6-22.9
		c12.8-25,21.7-51.3,27.8-78.7c3-13.5,8.4-26.6,13.6-39.5c2.6-6.4,6.7-12.2,10.7-17.9c5-7.2,7.6-15.1,9.6-23.7
		c3.8-16.8,5-34,7.9-50.9c1.3-8,4.7-16,9-22.9c4.7-7.7,5.6-15.3,4.9-23.8c-0.9-9.9-1.4-19.9-2-29.8c-0.6-10.3-1.2-20.5-1.8-30.8
		c-0.6-10.2-4.2-18.6-14.2-23.2c-1.8-0.8-3.2-2.3-5.1-3.6c0-5.3-1.2-11,0.2-15.8c4.4-14.6-1.8-25.8-9.9-36.8
		c-3.9-5.3-7.3-11.1-11.3-16.4c-4.7-6.3-4-12.3-0.1-18.5c1.2-2,2.1-4.2,3-6c5.8-1.4,11.5-2.8,18.3-4.4c4.8,3.2,6.7,8.7,6.2,15.4
		c-0.9,10.8,3.9,19.4,11.9,25.9c7.5,6.1,16.3,10.5,23.4,17c8.2,7.6,15.2,16.5,22.6,25c1.1,1.2,1.5,2.9,2.3,4.4
		c5.3,9.6,12.4,15.8,24.4,15.3c3.9-0.2,8.1,2.4,11.9,4.2c2.4,1.1,4.2,3.3,6.6,4.5c6.1,3.2,10.3,2.2,14.6-3.4
		c1.6-2.1,2.8-4.5,4.3-6.7c2.7-3.6,5.5-7.1,8.4-10.8c9.7,5.1,16.8,11.4,22.9,18.9c2.5,3.1,5.4,5.9,8.2,8.6c1.2,1.1,2.9,2.8,4.1,2.6
		c9.5-1.5,18.8,3.3,28.5,0.2c4.4-1.4,7-3.6,8.4-7.6c3.6-10.5,5.3-21.3,3.6-32.4c-2.1-14.1-3.6-28.4-7.3-42
		c-2.3-8.8-7.8-16.8-12.4-24.8c-2.8-4.8-6.8-9-10.2-13.5c-5.6-7.4-3.8-14.6,4.6-18.2c8.7-3.7,14.4-10.4,19.7-17.7
		c1.7-2.3,3.7-5.2,6.2-5.9c11.4-3.2,20-10.4,28.1-18.3c7.9-7.8,18.7-11.9,28.1-10.4c11.1,1.7,21.6,0.7,32.4,0.5c2,0,4.3,1.6,5.9,3.1
		c7.5,7.2,11.9,15.9,12.2,26.5c0.1,3.3-0.3,6.7,0.1,10c1,7.8,2.6,15,12.1,17.3c2.8,0.7,5.8,3.5,7.4,6.2c5.1,8.9,13.3,13.1,22.7,14.7
		c6.7,1.1,9.7,4.8,11.8,10.4c2.7,7.4,3.9,15.3,0.1,22.3c-3.6,6.6-3.6,12.3-0.7,18.7c0.7,1.5,0.8,3.1,1.4,5.5
		c-5.1,3.7-10.1,7.4-15.2,11c-14.7,10.3-29.4,20.7-44.3,30.8c-4.4,3-6.5,6.4-7.7,11.9c-3.2,14.6-3,29-0.5,43.5
		c0.6,3.2,0.9,6.9,0,9.9c-2.3,7.5,1.5,12.7,5.3,18.2c5.3,7.6,10.4,15.3,15.8,23.3c-4,3.1-7.3,5.7-10.3,8c1.6,2.6,3.1,4.8,4.3,7
		c0.8,1.4,1.1,3.2,2.1,4.5c10.2,13,19.9,26.6,31.1,38.8c6.3,6.8,9.3,13.4,8.3,22.2c-0.8,7.3-1.9,14.5-2.4,21.8
		c-0.6,7.4,2.4,9.7,10,9.7c13.9,0,27.8,0.6,41.8,1c2.3,0.1,4.8,0.6,7-0.1c8.8-2.5,17.2,0.1,25.4,2.5c15,4.4,29.2,10.7,42.3,19.8
		c-1.8,7.9-5,14.1-10.1,19.7c-10.5,11.5-23,20.2-36.5,27.4c-4.8,2.6-7.7,5.6-8,11.5c-0.4,8.9-1.5,17.7-2.5,27.9
		c-42.2-0.7-84.9-1.5-128.7-2.2c0-6,0.2-11.2,0-16.4c-0.3-8.5-1.7-9.8-9.9-10c-3.3-0.1-6.7-0.4-10,0.1c-10.7,1.6-20.1-3.2-30-5.7
		c-1.4-0.4-3.1-1.5-3.8-2.7c-5.4-9.7-14.3-14.2-24.4-17.3c-9.8-3-19.4-6.9-30.1-5.8c-14.4,1.4-26,7.4-33.2,20.4
		c-1.8,3.2-3.1,6.7-5,9.8c-3.4,5.6-6.1,6.3-11.3,2.6c-4.4-3.1-7-7.3-9.2-12.5c-3.9-9.1-9.5-17.4-14.5-26c-0.3-0.6-0.9-1.3-1.4-1.3
		c-10.6-1.1-21.3-5.1-31.9-0.4c-4.1,1.8-6.8,4.8-7.9,9.6c-3.3,15.3-15.8,21.2-28.5,26.6c-2.2,0.9-5.2,0.2-7.8,0.1
		c-7.3-0.5-14.5-1.5-21.8-1.4c-2.5,0-5.5,2-7.2,4c-4.4,5.4-8.4,11.2-12.4,16.9C3109.6,767.1,3109.9,768.5,3119.9,775.8z"/>
	<path onclick="modals(this.id);"  id="2674" class="st0" d="M3214.8,1467.6c-3.7-2.9-4.1-6.3-2.5-10.6c2.6-6.8,4.3-14,7.3-20.7c3.5-8,4-15.7,2.2-24.1
		c-2.4-10.7-3.7-21.6-6.3-32.3c-2.1-8.7-5.4-17-8.5-25.4c-1.6-4.4-2.7-8.4-1.6-13.4c2-9.7,3-19.7,4.3-29.6c0.5-3.9,0.4-7.9,0.6-10.2
		c-7-5.7-13.1-10.2-18.7-15.2c-7-6.4-15.2-8.3-24-6.2c-7.8,1.8-15.5,3.8-23.6,2.7c-1-0.1-2.2-0.2-2.9,0.2c-8.9,5-18.6,3.1-28.1,3.8
		c-14.4,1.1-28.8,4-43.9,6.3c0.1-1.3-0.1-3.5,0.4-5.5c1.8-7-0.6-12.5-5.9-16.7c-7-5.6-11.8-12.2-13.1-21.5c-1.1-8.5-5.2-15-15-16.7
		c2.9-8.2,6.4-15,13.4-19.6c2.5-1.6,5.3-3.1,7.2-5.3c7.2-8,16.6-7.5,25.9-6.8c2.7,0.2,5.6,2,7.8,3.7c3.2,2.4,5.8,5.4,9,8.4
		c5.6-1.4,9.1-5.7,12-9.8c4.3-6.3,10.4-10.2,16.5-14.1c6.4-4.1,12.7-8.5,19-12.7c8.8-5.8,7.3-14.9,7.2-23.4c0-6.8-5.6-9.1-10.4-12.1
		c-7.1-4.4-13.8-9.2-21-13.5c-5-2.9-6.6-7.1-6.5-12.5c0.1-3.3,0.1-6.7,0.4-10c1.2-12.5-0.5-24.5-6.3-35.9c-1.3-2.6-2.2-5.5-3.8-9.7
		c34,1,66.9,2,100.5,3c0.4-3.3,0.9-5.8,1.1-8.4c2-22.1,4-44.3,6-66.4c0.1-1.3-0.1-2.8,0.3-4c7.2-18.2,14.5-36.4,21.8-54.4
		c43.5-0.5,86-1.1,129.1-1.6c-0.9-8.6-5.5-13.6-11.1-17.8c-6.9-5.1-14.3-9.8-21.4-14.7c-5.2-3.6-9.3-7.7-7.4-15.4
		c1.6-0.3,3.5-0.9,5.4-0.9c18.9-0.5,37.9-0.9,56.8-1.4c3.5-0.1,7.5,1,9.5-3.4c2-4.3,1.6-8.1-1.2-12.1c-5.7-8.2-10.6-16.6-12.3-27
		c-1-6.5,0.6-11,4.8-15.2c1.4-1.4,2.9-2.8,4.4-4c7.6-5.9,12.8-13,15.3-22.6c1.9-7.3,5.3-14.3,8.5-22.5c43.6,0.6,87.1,1.2,130.3,1.8
		c6.1,11.8,4.4,23.4,2,34c-1.3,5.9-8.2,10.8-13.1,15.7c-4.7,4.6-10.2,8.4-15.2,12.8c-12.8,11.2-16.1,26.9-20.2,42.4
		c-1.2,4.8-2.9,9.6-5.2,13.9c-8.9,16.4-19.1,31.6-31.3,45.9c-7.4,8.6-13.2,19.4-13.1,31.7c0.1,7.3-2.6,11.6-9.7,14.3
		c-5.8,2.2-10.9,6.3-16.3,9.6c-1.1,0.7-2.4,1.6-2.9,2.7c-5.7,12.2-12.6,24.2-8.4,38.6c0.9,3.2,1.9,6.4,3.1,9.5
		c3.2,7.9,7.6,14.8,16.6,17.3c1.4,0.4,2.6,1.7,4.4,2.9c-1.1,2.3-2,4.4-3.1,6.3c-4.4,8.1-2,16.7,6,21.2c1.7,1,3.7,1.6,5.3,2.7
		c4.1,2.7,5.4,6.7,4.4,11.4c-0.9,4.5-3.3,8.6-8.2,8.8c-8.8,0.4-12.8,5.4-15.2,13.1c-0.7,2.1-2.1,4.6-3.9,5.6
		c-8.1,4.5-11.1,12.9-16.3,20.2c-9.6,0.7-19.6,1-29.4,2.3c-7.1,0.9-14.5,2.2-20.9,5.1c-3.6,1.6-5.8,6.9-7.8,10.9
		c-1.2,2.5-0.9,5.9-1.3,9.8c-2.1-1.3-3.9-2.3-5.6-3.4c-2.2-1.5-4.3-3.2-6.6-4.4c-5-2.7-10.7-2-13.6,1.6c-3,3.8-1.6,9.9,2.1,14.2
		c9.7,11.3,19.5,22.5,22.6,37.7c0.5,2.6,1.4,5.2,2.8,7.4c8.3,13.6,16.9,26.9,25,40.6c3.2,5.5,6.9,9.4,13.5,10.4
		c3.5,0.6,6.7,2.8,9.3,4c3.4,24.7,6.8,48.8,10.4,74.4c-14.7-3.2-28.8-6.3-44.6-9.7c-7.4,7.3-15.7,15.4-23.9,23.6
		c-2.3,2.3-4.4,5-6.7,7.4c-6.5,6.7-9.9,14.5-10.3,24c-0.5,11.5-2.4,22.9-3.8,36.2c-0.4-0.4,0.4,1.2,1.8,1.9
		c6.4,3.5,7.3,9.1,5.9,15.4c-4.5,19.8-9.3,39.5-14,59.2c-0.3,1.2-1.3,2.3-2.2,3.9c-8.8-5.8-17.6-10.8-20.4-22
		c-1.3-5.4-4.1-10.5-6.6-16.7c-11.3,1.2-22.5,1.8-33.5,3.6c-7.1,1.1-12.1-0.1-16.4-6.1c-3.7-5.1-8.3-9.5-12.8-14
		c-1.2-1.3-3.2-1.8-4.9-2.6L3214.8,1467.6z"/>
	<path onclick="modals(this.id);"  id="2681" class="st0" d="M2413.2,2277.6c-6.3,10-11.5,18.3-13.8,28.3c-2.2,9.7-5.1,19.3-7.7,28.9
		c-2.6,9.4-12.9,15-22.4,12.9c-8.6-2-17.4-3.5-25.8-5.1c-6.2,8.3-6.5,14.9-1.4,22.8c8.1,12.4,16.6,24.6,30.1,31.2
		c12.6,6.1,13.8,19,10.8,30.7c-1.8,7-3.9,14-5.3,21.2c-3,14.9,0.7,29.7,1.5,44.5c0.6,10.9,1.9,21.8,2.3,32.8
		c0.1,3.7-1.3,7.7-2.9,11.2c-2.3,5.1-5.3,10-8.3,14.8c-5.3,8.5-5.9,17.7-3.7,27c4.7,19.6-0.8,36.6-12.4,53.5
		c-10-6.2-20.5-11-28.2-20c-12.1-14.1-24.1-28.4-36.2-42.5c-4.1-4.7-7.7-10.4-14.9-9.5c-2.5-7.5-4.6-13.7-10.2-18.9
		c-4.4-4.1-5.5-10.9-4.2-17.7c2.4-12.8,3.9-25.7-1.5-38.2c-0.8-1.8-1.3-4.2-2.7-5.2c-10-7.5-7.2-18.2-5.8-27.6
		c1.4-10.2,10.4-15,18.9-19c3.5-1.7,7.7-2.1,11.5-3.3c8.7-2.6,10-6.6,4-13.6c-8.9-10.3-18.1-20.4-27.2-30.6c-2.4-2.7-4.7-5.6-6.7-8
		c0-0.9-0.1-1.3,0-1.6c4.9-14.8,3.1-18-12.1-21.2c-1.9-0.4-4-0.8-5.9-0.4c-6.9,1.2-13.1,0.2-18.9-3.9c-1.6-1.1-4.1-2.4-5.5-1.9
		c-12.1,4.9-21.1-5.9-32.3-6.1c-4.9-0.1-7.8-5.6-6.3-10.6c3.7-12.4,10.6-23.2,20.1-31.6c4-3.6,11-3.9,16.8-5.2
		c4.2-0.9,8.6-0.7,12.8-1.5c8.1-1.6,8.9-2.7,8.5-10.6c0-1-0.3-2-0.4-3c-0.6-9.4-0.2-18.8,5-27c4.4-6.9,4.1-13.8,1-20.9
		c-1.1-2.4-1.3-5.3-2.7-7.5c-3-4.7-2.7-9.6-0.7-14.3c2.1-5,1.8-9.4-0.3-14.4c-3.5-8.4-2.8-9.9,4.8-14.4c6.9-4.1,13.8-8,20.7-12.1
		c10.3-6.1,17.2-14.4,18.1-26.8c0.5-6.8,4.6-10.7,10.6-13c7.2-2.7,14.3-5.6,21.5-8.1c14.6-5.1,28.3-11.6,40.3-21.5
		c3.3-2.7,6.5-4.1,10.9-2.2c4.7,2,9.1,0.6,12.9-2.7c2.3-2,5-3.4,7.1-5.5c5.3-5.6,11.6-5.6,18.9-3.9c-6,15.8,3.1,25.7,14,33.9
		c9,6.7,19.3,11.8,29.2,17.2c1.7,0.9,4.6,0.8,6.4,0c9.1-4.1,17.9-8.8,26.9-13c7.5-3.5,14.9-7,22.7-9.7c6.5-2.2,11.6-5.1,15.3-11.5
		c6.4-11.2,14-21.6,21.5-33c7.2,5.3,13.4,9.7,19.3,14.4c7.6,6.2,15.3,6.7,23.9,1.9c5.2-2.9,11-4.7,16.3-7.5
		c5.2-2.8,9.2-1.5,13.9,1.4c3.8,2.3,5.1,4.8,3.9,9c-0.6,1.9-0.7,3.9-0.7,5.9c0,6.9,4,9.6,10.5,7.1c2.8-1.1,5.7-2.3,8-4.1
		c8.8-7,18-13.8,25.9-21.8c5-5,8.1-11.9,12.2-18.2c-2.7-3.7-4.3-7.7-7.1-9.3c-7.9-4.5-8.9-11.8-9.7-19.4c-0.2-1.6-0.3-3.3-0.5-6.1
		c12.1-5.8,22.8-1.3,34.1,4.1c-0.4,2.6-0.8,4.8-1.1,7c-2.1,13.8-4.2,27.5-6.3,41.3c-0.7,4.6,0.7,8.3,4.3,11.5
		c10.4,9.4,20.4,19.1,30.8,28.4c2.6,2.3,6.1,4.4,9.5,5.1c9.4,2,15.5,8.3,22.3,14.6c-3.3,7.2-6.8,14-9.6,21
		c-5.1,12.3-10,24.6-14.5,37.1c-1,2.7-0.4,6.5,0.6,9.3c5.5,14.6,11.6,29,17,43.7c2.8,7.6,2.5,15.6-0.1,23.4
		c-0.5,1.6-0.9,3.3-1.8,4.6c-8.4,13.8-12.9,28.7-15.4,44.7c-2.5,16.5-20.3,30.9-37.6,31.8c-9.1,0.5-16.7,2.8-23.2,9.3
		c-4.4,4.4-4.9,4-12.4,4.4c0.1-8.2,1.8-15.6,7.9-21.4c5.3-5,8.7-10.7,9.3-19.1c-2.5-0.4-5-1-7.4-1c-24.6-0.3-49.3-0.1-73.9-0.9
		c-9.9-0.3-19.8-1.9-29.5-4.1c-31.1-6.9-62.2-14.2-93.2-21.6c-5-1.2-9.5-4.2-14.3-6.3C2433.3,2286.3,2423.6,2282.1,2413.2,2277.6z"
		/>
	<path onclick="modals(this.id);"  id="2672" class="st0" d="M3097.7,863.1c0.4-0.1,0.7-0.3,1-0.3c12.2,0.1,15.9-2.8,19-14.9c0.6-2.5,1.3-5.1,2.2-8.7
		c26.5,1.9,44.3,18,61.1,34.1c-3.6,5.6-7.1,11-10.5,16.4c-1.2,2-2,4.4-3.7,5.9c-8.2,7.5-12,17.3-15,27.4c-1.3,4.6-1.6,9.5-2.3,13.8
		c5.7,4,14.8,3.2,12.2,13.7c-10.4,1.2-17.4,8.6-24.2,17.3c-9.4-3.4-18.6-7.1-28.1-9.9c-6.6-1.9-13.6-2.6-20.5-3.4
		c-7.1-0.8-12.7,2.8-17.7,7.6c-1,0.9-1.8,2-2.7,2.9c-6.6,7.1-14.3,10.7-24,6.8c-10-4.1-20-3.5-30.3-0.8c-13.2,3.5-26.4,6.8-39.7,9.4
		c-7.4,1.4-15.2,1.2-22.8,1.5c-1.2,0-2.5-0.8-3.6-1.6c-24-16.2-48-32.4-72.9-49.2c6-9.2,5.1-19.1,4.7-29c-0.2-4.5,1-9.3,2.4-13.7
		c3.1-9.4,2.6-18.9-1.3-27.3c-8.7-19-10.2-39-11.4-59.3c-0.7-12.3-2-24.6-7-36c-2.2-5.1-5.1-9.9-7.9-14.8c-3.1-5.4-7.3-9.2-14-9.8
		c-6.4-0.6-8.2-6.2-10.2-11.1c-5.7-13.8-11-27.8-16.8-41.6c-3.2-7.6-7.8-14.8-10.7-22.5c-4.8-13-9-26.3-13-39.7
		c-3.2-10.8-5.7-21.7-8.7-33.7c8.6-2.9,16.6-5.6,25.8-8.6c5.7,10.2,11,20.1,16.7,29.8c1.8,3,4,6.8,6.9,7.9
		c9.9,3.7,14.4,11.9,17.5,20.6c2.7,7.4,6.9,12.7,13.3,16.6c5.4,3.3,10.6,6.9,16.1,9.9c2.4,1.3,7.1,2.4,8,1.2
		c1.8-2.1,2.3-5.9,2.2-8.9c-0.1-3.8-1.4-7.6-2.2-11.6c5.9-0.9,11.8-0.4,16-2.8c4-2.3,6.1-7.7,9.2-11.6c4-5.2,11.5-6.7,16.3-2.1
		c4.6,4.3,9.3,4.2,14.7,3.6c11.5-1.3,22-4.9,31.3-11.8c3.2-2.4,6.4-4.8,9.9-6.7c7.5-4.2,13.9-1.6,14.4,6.8c0.5,7.4,4.1,12.4,9,17
		c9.4,8.9,18.8,17.9,28.6,26.4c2.2,1.9,6,3.4,8.8,3c11.1-1.4,13.6-8.4,6.2-17.5c-7.7-9.6-15.8-18.9-24.1-27.9
		c-6.7-7.3-6.1-11.8,2.8-16c5.3-2.5,11.2-3.8,16.8-5.3c3.2-0.9,6.7-0.6,9.8-1.6c7.3-2.3,16.7-7.6,14.9-18.2
		c-1.1-6.2-1.5-12.5-2.3-18.8c-1.3-10.5-2.9-21-4.1-31.6c-0.6-5.1-2.8-7.6-8.2-8c-15.2-1.1-30.4-2.6-45.6-3.9
		c-25.7-2.2-51.4-4.4-78.3-6.7c5.1-6.7,4.1-13.2,1.5-20c-0.9-2.2-0.2-5.1,0.2-7.7c1.9-12.7-0.7-23.7-11.5-31.9
		c-6.3-4.8-12.4-10-18.6-15c-10.5-8.4-17.6-18.9-19.5-32.4c-0.7-5.2-0.4-10.4,4.5-13.4c18.8-11.4,37.7-22.6,56.5-33.8
		c0.2-0.1,0.6,0,1.7,0c9.4,8.6,21.2,13.2,34.3,15.4c7.2,1.2,14.3,3.5,21,6.2c3.4,1.4,6.5,4.4,8.7,7.5c6.4,9,12.9,17.5,22.9,23.1
		c7.8,4.3,16.1,3.3,24.2,3.9c5.2,0.4,7.8-5.2,7.5-9.1c-0.6-10.5,6.5-16.2,12.3-22.7c5.4-5.9,11.6-11.1,9.4-20.4
		c-0.2-0.9,1.2-2.3,2.2-4.2c7.5,11.6,14.7,22.8,22,33.9c2.3,3.6,2.5,7.2,1.9,11.4c-1,7.2-1,14.6-1.4,21.9c-0.3,3.7,1,6.8,4.4,8.2
		c13.3,5.3,14.4,17,15.5,28.7c0.7,7.9,0.4,16,0.8,23.9c0.5,9.9,1,19.9,2.1,29.8c0.9,7.8,0.3,15-4.2,21.7
		c-8.7,13.2-11.6,28-12.1,43.6c-0.2,6.2-2,12.4-2.6,18.6c-1.9,18-10.1,33-19.5,48.2c-12.7,20.5-16.8,44.6-22.5,67.9
		c-5.7,23.4-15.2,45.3-28,65.8c-3.1,4.9-7.2,8.6-12.9,10.4c-11.8,3.8-18.9,13.2-26.3,22.1c-1.2,1.4-2.1,3.7-1.9,5.4
		c1.1,11.7-1.9,22.4-9.1,33.1c2,1.3,3.4,2.1,4.7,3.1c6.1,4.3,8.7,9,5,16.8c-3.5,7.4,3.2,17.6,12.6,20.6c6.8,2.2,13.3,2.9,19.1-3.4
		c5.2-5.5,10.9-10.7,19.2-11.6c2-0.2,4-2.2,5.8-3.7c3-2.5,6.1-2.8,10.1-2.7C3082.4,875.6,3092.1,873.4,3097.7,863.1z"/>
	<path onclick="modals(this.id);"  id="2668" class="st0" d="M3214.5,1467.4c0.3,1.1,0.2,2.6,0.9,3.4c3.7,4.3,8.3,7.9,11.3,12.6c6.4,10,15,11.5,25.8,9.5
		c8.7-1.6,17.7-1.9,27.4-2.9c4.7,16.8,12,31.5,29.4,39.9c-3,4.5-5.2,7.9-7.6,11.3c-6,8.4-12.4,16.5-18.2,25
		c-3.2,4.7-6.6,6.1-11.7,3.6c-1.8-0.9-3.8-1.2-5.6-2.1c-5.4-2.6-8.9-0.8-11.5,5.3c1.9,3.5,4.3,7.5,6.4,11.6c1.2,2.3,2.5,4.7,3,7.3
		c1.1,5.2-1.5,8.7-6.3,7.2c-12.9-4.2-24.8,3.9-37.4,1.9c-2.3-0.3-5,2.5-8.1,4.1c2,5.3,3.8,9.8,5.8,15.3c-3.3,1.2-6.6,2.5-9.9,3.7
		c-9.2,3.3-11.8,7.4-11,17c0.3,3.6,0,7.3,0.3,10.9c0.8,9.8-1,17.8-9.8,24.3c-8.2,6-12.2,15.8-14.7,25.5c-1.5,5.8-4.9,8.1-10,9.5
		c-17.8,4.8-33.2,13.4-45.4,27.5c-4.2,4.9-9.5,8-16.3,8.5c-6.4,0.5-12.2,3.2-16,8.9c-0.7,1.1-1.9,1.9-2.7,2.9
		c-8.3,11.6-19.1,14.6-32.3,9.6c-5.3-2-9.2-1.1-14.2,3.1c-8,6.7-17.8,11.5-27.1,16.5c-1.7,0.9-5.2,0-7.2-1.3
		c-3.9-2.5-7.3-5.7-11-8.6c-7.5-5.9-15.1-6.1-22.8-0.7c-8.6,6.1-11.1,9.6-16.6,22.7c-9.8,0.9-9.9,0.8-12.2-7.9
		c-0.8-3.2-2.3-6.3-2.7-9.6c-1.2-8.7-6.8-12.4-14.8-13.7c-3.3-0.5-6.6-1-9.7-2.2c-6-2.2-7.1-4.9-4.7-10.8c1.4-3.4,3-6.8,5.3-9.6
		c1.3-1.7,4.1-2.2,7.2-3.8c2.3-8.4-4.6-12.8-10.8-16.7c-4.8-3-8.6-6.1-10.3-12.1c5.3-5.1,7.9-11,6.1-19.2
		c-1.3-5.9,0.8-11.9,8.2-14.7c6,4.9,12.2,9.9,19.8,16.1c0.1-3.7,0.7-6.1,0.2-8.3c-1.4-7.1,0.4-13,5.5-18.1
		c7.3-7.3,11.8-16.2,13.4-26.2c2.1-12.7,3.4-25.6,5.1-39.5c6.5-0.8,13.9-1.7,20.7-2.5c7.2-17.4,14-34,20.9-50.4
		c1.6-3.7,2.5-7,1.8-11.4c-1.7-11.2-1.3-11.2,4.3-22.6c14.5,0,29.4,0,45.4,0c1.2-11.7,2.6-22.8,3.3-34c0.9-13.7,10.9-21,20.6-27.5
		c3.5-2.4,10.7-1.2,15.5,0.4c13.9,4.5,19.6-3.6,20.5-15c0.9-11.8,3-23.4,2.6-35.5c-0.2-6.8,3.7-14,6.6-20.6
		c6-13.7,6.2-13.6,20.9-13.6c13.3,0,26.7-0.2,40,0.1c9.9,0.2,19.8,1.2,30.6,1.9c3,16.3,6.2,32.5,9,48.8c0.4,2.4-0.7,5.2-1.5,7.7
		c-3.1,9.5-6.6,18.8-9.7,28.3c-2,6.4-1.7,6.7,6,9.5C3214.8,1467.6,3214.5,1467.4,3214.5,1467.4z"/>
	<path onclick="modals(this.id);"  id="2673" class="st0" d="M2874.4,934.4c16.8,11.3,33.9,22.8,50.9,34.4c2.8,1.9,5.7,3.6,8.1,5.8
		c14.5,13,30.6,12.1,48.1,6.9c14.9-4.4,30.4-6.9,45.8-9.9c2.4-0.5,5.2,0.4,7.8,1c3.6,0.8,7.2,1.5,10.6,2.7c9.4,3.5,17.1,0.2,23-6.7
		c11.4-13.2,24.9-13.6,39.8-7.9c9.6,3.6,19.3,7.1,29.4,10.8c2.2-2.1,4.3-4,6.5-6.1c21.7,6.3,43.4,12.6,66.1,19.2
		c-2.1,24.8-4.2,49.1-6.4,74.5c-34-0.9-67.7-1.9-103.3-2.8c2.1,4.5,3.4,7.5,4.8,10.3c6.1,12.8,9.7,25.8,7,40.4
		c-1.9,10.3,0.2,19.8,11.1,25.3c5.9,3,11.3,6.9,17,10.4c12.7,7.7,13.8,23.8,2.1,32.9c-3.4,2.7-7.1,5-10.8,7.2
		c-9.7,5.8-19.7,11.2-25.9,21.3c-1.3,2.1-3.9,3.4-5.9,5.1c-1.3-0.7-2.4-1-2.9-1.6c-6.6-8-14.7-11.7-25.3-10.5
		c-4.9,0.5-8.9,1.7-12.8,4.5c-11.2,7.9-22.4,15.7-26.8,28.9c-16.9,1.9-18.6,0.4-27-13.7c-4.3-7.2-10.1-13.7-20.2-14.2
		c-10.2-0.5-20.3-2.5-30.4-3.5c-2.1-0.2-4.5,0.9-6.6,1.7c-6.9,2.7-13.5,3.8-21.2,2.8c-19.1-2.5-38.3-3.3-57.5-5.1
		c-3.7-0.3-7.3-1.9-10.3-2.7c-0.4-2.2-0.8-3-0.6-3.5c7.8-16.9-2.7-28.4-12.1-40.1c-1.7-2.1-5.1-3-7.8-4.2
		c-10.5-4.4-13-8.4-12.5-19.4c0.3-7,0.2-14,0.1-21c0-2,0.2-4.6-0.9-5.8c-7.5-8.6-8.7-19.9-13.3-29.8c-3.1-6.6-7-9.1-14.4-9.1
		c-10.2,0-19.8,1.3-28.4,6.1c-5.7-5.2-5.7-5.2-19-4.4c0-2.3-0.1-4.5,0-6.7c0.4-7.9,0.8-15.8,1.3-23.7c0.4-6,1.3-11.7,5.2-16.8
		c6.6-8.8,12.5-18.1,18.7-27.1c11.6-16.7,27.9-23.1,47.6-20.9c9.4,1.1,17.1-1.9,23.6-7.7C2855.7,953.4,2864.4,944.3,2874.4,934.4z"
		/>
	<path onclick="modals(this.id);"  id="2671" class="st0" d="M3187.9,875c-13.1-11.3-24.6-23.3-39.5-31c-8.3-4.3-20-7.4-31.2-7c-2.8,7.6-2.5,17-9.9,22.9
		c-3.6-0.3-7.2-0.6-11.2-1c-5.7,11.9-15.5,14.8-27.7,12.9c-1.7-0.3-4,0.6-5.3,1.8c-4.6,4.1-10.3,5.7-15.8,7.9
		c-4.4,1.8-7.9,5.8-11.8,8.9c-9.1,7.2-21.4,4.9-26.6-5.4c-1.2-2.3-1.8-6.1-0.8-8.2c4.4-8.8,0.8-14.6-5.9-19.7
		c-0.8-0.6-1.3-1.4-2.4-2.6c4.4-9.5,9.7-18.9,7.5-30.5c2.5-0.5,4.3-1.1,6.1-1.2c31.9-0.5,63.9-0.9,95.8-1.4c3.6,0,7.1,0,11.8,0
		c0-17.1,0-32.9,0-49.2c-1.8-1.1-4.2-2.6-7.9-5c6.8-9.5,13.2-18.6,19.7-27.6c9.1,0.8,17.6,2.1,26.2,2c5.1,0,10.7-1.3,15-3.8
		c6.3-3.6,12-8.4,17.2-13.5c2.4-2.3,3.5-6.2,4.6-9.6c3.1-9.6,6.6-12.1,16.8-11.5c0.3,0,0.7,0,1,0.1c6.5,1,14.9-0.3,19,3.4
		c6.1,5.5,10.4,14,13.1,22c3,9,8.3,14.8,16.2,19.3c5.3-0.9,8.9-3.7,11.1-8.7c1.2-2.7,3-5.2,4.4-7.8c6.3-12.7,17.3-18,30.7-18.6
		c16-0.7,30.8,4.1,44.3,12.5c2.2,1.4,5,3.2,5.7,5.4c1.7,5.8,6.4,6.4,11,8.5c13.3,6.2,27.4,3.3,41.7,4.5c0.7,1.3,2.1,2.7,2.1,4.1
		c-0.1,9.7,2.3,19.6-2.5,29.1c-3,5.9-4.7,12.4-6.7,18.7c-1.8,5.9-4.9,10.9-9.7,14.8c-2.1,1.7-3.9,3.6-6.1,5.2
		c-8.9,6.6-10.1,15.6-6.8,25c2.6,7.4,6.6,14.5,10.7,21.3c2.4,4,4.2,7.5,0.1,13.2c-22.4,0-45.9,0-68.9,0c-3.9,11.3,0.4,18,8.5,23.2
		c7.2,4.7,14.4,9.6,21.4,14.7c3.4,2.5,6.8,5.4,6.9,11.2c-2.7,0.2-5.2,0.5-7.7,0.5c-36,0.3-71.9,0.5-107.9,0.7
		c-11.8,0.1-10.1-0.4-14.2,9.8c-6.1,15.1-12.2,30.1-18.8,46.4c-21.7-6.2-42.9-12.3-64.1-18.4c3.3-9.4,12.5-6.6,18.4-11.2
		c-0.5-3.6-1-7.4-1.7-11.6c-3.6-1.6-7.1-3.3-10.9-5c-0.2-1.3-0.9-2.8-0.6-3.8c3.6-10.5,4.8-22.1,13.7-30.3c2.9-2.6,5-6.2,6.8-9.8
		C3178,881.6,3177.8,881.5,3187.9,875z"/>
	<path onclick="modals(this.id);"  id="2676" class="st0" d="M2575.4,1355.2c1.2-7.3,1-13.4,3.3-18.3c8.3-17.8,8.1-36.8,9.6-55.6c1.2-15.5,2.4-31.1,3.3-46.7
		c0.2-4.1,2.2-6.2,5.5-7.4c8.1-2.7,14.2-8.2,20.4-13.9c4-3.7,9.6-7.2,14.7-7.6c17.4-1.4,34-6.2,50.9-9.5c3.8-0.8,7.9-0.9,11.9-0.6
		c14.8,1.1,28.8-1,42.3-7.8c8.5-4.3,13.7-11.3,14.2-19.2c0.9-12.7,7.2-23.4,9.6-35.4c1.4-7.1,2.6-14.3,3.2-21.6
		c0.6-7.2-1.6-14-6.3-19.5c-5.8-6.6-6.3-14.3-6-22.2c8.5-4.1,8.5-4.1,16.3,2.9c11.2-6.9,24-7.4,38.1-5.5c2.3,5.6,4.8,11.7,7.4,17.8
		c2,4.5,4.2,8.9,6.1,13.5c1.4,3.3,3.4,6.7,3.6,10.2c0.5,6.9,0.4,14-0.3,20.9c-0.9,8.9,3.1,17.8,11.7,20.2
		c12.8,3.5,17.1,14.2,22.2,24c1.8,3.5,0.3,9.1-0.5,13.5c-1.6,8.1-1.8,8.1,2.1,12.6c-1.5,13.9-2.8,26.5-4.3,39.8
		c-4.4-2.9-6.3-7-7.1-11.5c-1.4-8-7.2-11-14.2-11.5c-11.4-0.8-22.7-0.4-32.9,5.9c-6.2,3.8-12.9,2.6-19.5,2.5
		c-6.2-0.1-11.3,1-16.4,5.3c-7.1,5.9-15.2,10.6-23,15.6c-7.3,4.6-14.9,17.7-12.7,25.2c2.2,7.7,1.7,14.3-4.1,20.5
		c15.9,11.8,31.4,23.3,46.9,34.9c8,6,16,11.9,23.9,18c1.7,1.3,4,3.5,3.9,5.2c-0.3,8.9-1.2,17.7-1.9,26.6c-6.6,0.6-13.1-1.5-17.3,4.6
		c-0.3,0.4-1.3,0.8-1.8,0.6c-13.7-4.8-18,10.2-27.9,13.6c-1.6,0.5-2.6,5.3-2.5,8c0.6,10.9,1.8,21.8,2.9,33.7
		c-14-0.5-28.7-1.1-43.9-1.6c-2.3,10.5-1.2,19.5,6.4,26.2c9.3,8.2,17.5,16.5,21.1,29.1c1.8,6.2,7.9,11.2,12.5,17.3
		c-3.5,3.2-7.3,6.7-10.8,9.9c2.7,8.8,5.3,17.2,8.4,27.2c4.4,2.7,10.4,6.2,16.1,10.2c1.6,1.1,3.2,3.9,2.9,5.4c-0.4,1.6-3,3.4-4.9,3.8
		c-7.1,1.5-14.3,3.3-21.6,3.5c-4.7,0.2-9.6-2-14.3-3.3c-3.2-0.9-6.1-2.7-9.3-3.4c-8.2-1.6-9.8-0.4-13.7,7.3c-1.4,2.7-4,4.7-5.9,6.8
		c-10.4-4.3-6.5-13.8-9.7-20.2c-3.9-7.9,1.3-13.9,3.3-20.9c-3.6-3.2-6.8-6.6-10.6-9.3c-3.7-2.7-4.8-5.9-4.7-10.3
		c0.2-7.7,0-15.3,0.1-23c0-3.2-0.9-5.3-3.8-7.4c-3.7-2.7-6.4-6.6-9.6-10c-4.2-4.4-8.4-8.8-13.9-14.6c3.1-5.9,7-13.4,10.9-20.9
		c5.1-9.7,10.2-19.5,15.5-29c1.8-3.2,1.8-5.8,0.5-9.3c-5.8-15.1-15.5-27.2-27.8-37.1c-11.4-9.2-24.6-12.6-39.3-8
		c-6,1.8-12.3,2.8-18.6,3.1C2583.1,1358.6,2579.7,1356.5,2575.4,1355.2z"/>
	<path onclick="modals(this.id);"  id="2675" class="st0" d="M2800.2,1380.3c0.7-10.7,1.8-20.8,1.8-31c0-2.5-3.2-5.6-5.6-7.4c-21-15.9-42.1-31.5-63.2-47.2
		c-1-0.8-2-1.6-3.4-2.8c0.7-1.9,0.9-3.9,2-5.4c2.3-3.3,2.8-6.5,1.1-10.3c-4.9-11.6,3.4-22.9,13.1-28.8c7-4.3,13.9-9,20.2-14.4
		c3.9-3.3,7.8-4.6,12.7-4.3c9.7,0.6,18.8-0.6,27.8-5.6c7.9-4.4,17.4-4.5,26.3-3.4c5.2,0.7,9.6,3.1,11.4,9.5
		c1.7,5.9,5.6,11.2,8.9,17.5c0-0.3,0.2,0.5,0,1c-6.5,10.8-5.9,21,1.2,31.7c3,4.5,3.4,10.6,5.2,15.9c1.8,5.3,3.9,10.5,6,15.6
		c1.1,2.8,3.2,5.3,3.7,8.1c1.1,7.1,0.9,14-6.7,18.1c-2.3,1.2-4.1,3.1-6.1,4.6c4.7,9.3,12.2,14.3,21.5,17c6.5,1.9,12.3,4.6,17,9.9
		c1.8,2.1,5,3.1,7.8,4.3c14.6,6.1,30,9.6,45,14.4c16.1,5.2,31.9,11.5,47.8,17.3c8.9,3.3,11.4,6.3,7.6,14.8c-4.1,9-1.6,16.8,0.2,25.1
		c1.6,7.4,1.4,14.6-2.5,21.2c-1.1,1.9-2.7,3.7-4.4,5.1c-6.5,5.2-13,10.4-19.8,15.1c-4.9,3.4-6.5,7.7-7.1,13.4
		c-0.4,4.4-1,10.4-3.8,12.6c-5.5,4.2-11.6,9.2-19.9,7.5c-10.4-2.1-20.9-4.1-31.4-5.8c-4.1-0.6-5.9-2.6-6.2-6.4
		c-0.6-7.7-1.1-15.4-1.7-24c-2.5-0.2-6.1-0.5-10.3-0.8c-1.1-4.9-2.1-9.6-3.4-15.3c-16.6-1.4-33.4-2.9-50.1-4.1
		c-11.6-0.9-23.2-1.1-34.7-2c-5.1-0.4-9,1.8-12.9,4.4c-4,2.6-8.1,5.1-13,2.7c-2.5-1.2-4.8-3-6.8-4.9c-2.1-2-3.4-5.4-5.8-6.6
		c-11.2-5.7-13.4-16.8-16.1-27.2c-1.9-7.3-2.2-15.1-3-22.6c-0.2-2-0.3-4.2,0.4-5.9c0.9-2,2.5-4.9,4.2-5.1c8-1.1,9.6-13,18.9-10.9
		c4,0.9,6.8-0.1,10-2.5c2.3-1.7,6-1.7,9.2-2.2C2794.9,1379.7,2796.9,1380.1,2800.2,1380.3z"/>
	<path onclick="modals(this.id);"  id="2680" class="st0" d="M2661,1963.3c8.5,3,12.3,9,15,15.4c3.6,8.7,8.8,14,18.9,14.9c13.8,1.2,27.5,4.1,42,6.3
		c2.6,7-1.3,14.3-1.9,21.7c-0.8,10.6-2.5,21.2,3.5,31.1c2,3.3,3.8,5.6,7.9,6.7c9.4,2.6,9.8,3.8,10,13.2c0.4,20.3-6.1,39.2-12.1,59.2
		c-2.7-1.5-4.9-2.1-6.4-3.5c-5.4-5.1-11.3-9.2-18.8-10.4c-1-0.2-2.1-0.4-2.8-1c-12.4-11-24.9-22-36.9-33.5c-1.8-1.8-1.9-6.3-1.5-9.4
		c1.9-15.4,4.2-30.8,6.5-47.5c-11.4-8-24.4-12.3-40.4-5.2c1.1,7.1,1.8,14,3.5,20.6c0.6,2.5,3.4,4.7,5.5,6.7
		c8.8,7.9,9.1,12.7,1.1,21.7c-2.7,3-5.4,5.9-8.5,8.5c-6.9,5.8-13.9,11.4-20.9,17c-1.8,1.4-3.9,2.7-6,3.5c-4.8,1.9-6.9,0.4-7-4.6
		c-0.1-4.6,0-9.2,0-13.5c-0.7-0.7-1-1.2-1.6-1.6c-7.9-6-16.1-6.7-24.8-1.5c-4,2.4-8.3,4.1-12.4,6.3c-6.5,3.4-12.5,3.6-18.5-1.3
		c-7-5.6-14.3-10.8-22.1-16.5c-1.9,2.2-3.8,4-5.2,6.1c-6.8,10.5-16.1,19.4-21.2,31.3c-1.3,3-5.6,5.7-9.1,6.7
		c-10,2.8-19.7,5.9-28,12.6c-1.5,1.2-3.5,2-5.3,2.8c-6.7,3-13.4,8.2-20.1,8.2c-6.1,0-12.1-5.9-18.3-8.7
		c-10.5-4.8-19.8-10.7-25.6-21.2c-4.7-8.7-3.9-13.4,4.1-19.1c1.3-1,2.7-2,3.8-3.2c6.6-6.9,13.5-13.7,19.7-21
		c2.2-2.6,3.3-6.3,4.5-9.7c1.6-4.7,2.6-9.6,4.2-14.3c3.5-10.9,10.2-18.4,20.6-24.2c13.2-7.5,25.1-17.4,37.5-26.2
		c2.1-1.5,4.6-2.7,6.9-3.9c15.4-8.5,32.1-12.4,49.5-13.3c17.9-0.9,35.9-1.6,53.8-2.8c9.8-0.6,18.2,3.6,27,6.4c4.3,1.3,3.9,5.6,4.8,9
		c0.8,3.4,1.6,9,3.4,9.5c4.9,1.2,10.4,0.5,15.5-0.3c1.4-0.2,2.9-3.3,3.4-5.3c0.9-3.5,1.1-7.2,1.5-10.8
		C2660.1,1971.4,2660.5,1967.9,2661,1963.3z"/>
	<path onclick="modals(this.id);"  id="2669" class="st0" d="M3489.6,404c1.4,7.3,2.9,14.4,4,21.5c2.1,13.9,9.7,24.6,20.2,33.3
		c12.1,10.1,20.7,21.9,23.6,37.9c2,11,8.7,19.9,17.9,26.6c8.4,6,16.5,12.4,25.2,17.9c9.4,5.8,11.2,15,9.9,24.1
		c-1.9,13-0.8,24.1,10.2,32.7c1.5,1.2,3.1,2.8,3.8,4.6c4.6,12.1,14.1,20.8,21,31.3c3.8,5.7,6.6,12.1,9.7,17.8
		c-4.9,6.3-8.3,12.3-15.8,14.3c-2.1,0.6-3.4,3.8-5.1,5.8c-2.6,2.9-5.4,5.8-7.8,8.4c-11.3-5.4-21.9-10.7-32.8-15.5
		c-12.3-5.5-24.9-8.8-38.7-7.5c-7.5,0.7-15.2-0.7-22.9-0.9c-6.9-0.2-13.8,0-20.8,0.2c-2.3,0-4.6,0.5-7,0.5c-4.1-0.1-6.1-2.3-5.6-6.4
		c0.9-6.9,1.9-13.8,2.7-20.7c1.1-8.9-0.5-16.3-7.3-23.6c-11.3-12.1-21-25.6-31.3-38.6c-1.4-1.8-2.5-4-3-6.1
		c-1.1-5.1,0.4-6.5,7.5-7.3c-0.5-5.9-2.1-10.6-6.6-15.3c-6.1-6.4-10.4-14.5-15.4-22c-0.7-1-1.2-2.4-1.2-3.7
		c-0.7-14.9-1.7-29.8-1.6-44.8c0-6.5,2-13.1,3.7-19.4c0.5-2,2.7-3.7,4.5-5c18.5-13,37-25.9,55.6-38.9
		C3487.1,404.5,3488.2,404.4,3489.6,404z"/>
</g>
</svg>
